<?xml version="1.0" encoding="utf-8"?>
<!-- Generator: Adobe Illustrator 22.0.0, SVG Export Plug-In . SVG Version: 6.00 Build 0)  -->
<svg version="1.1" baseProfile="basic" id="Layer_1"
	 xmlns="http://www.w3.org/2000/svg" xmlns:xlink="http://www.w3.org/1999/xlink" x="0px" y="0px" width="555px" height="179px"
	 viewBox="0 0 555 179" xml:space="preserve">
<style type="text/css">
	.st0{clip-path:url(#SVGID_2_);}
	.st1{fill:#FF9000;}
	.st2{fill:#FFFFFF;}
	.st3{fill:#2D86FE;}
</style>
<desc>Created with Lunacy</desc>
<g>
	<defs>
		<rect id="SVGID_1_" width="555" height="179"/>
	</defs>
	<clipPath id="SVGID_2_">
		<use xlink:href="#SVGID_1_"  style="overflow:visible;"/>
	</clipPath>
	<g id="bmp00158" class="st0">
		<g id="Icon" transform="translate(0 0.4049225)">
			<path id="XMLID_3_" class="st1" d="M98.7,25.8l37.6,25.5V0H10.7C4.8,0,0,4.7,0,10.6v99l25.7,7.2c1.3,0.4,2.7-0.4,3.1-1.7
				l6.4-23.1c0.4-1.6,2.4-2.4,3.9-1.4l61.6,42c2.3,1.6,0.6,5.2-2.1,4.4L51.2,124c-1.3-0.4-2.8,0.4-3.1,1.8l-6.3,23.1
				c-0.4,1.6-2.4,2.4-3.9,1.4L0,124.1V178h124.8c6.4,0,11.5-5.2,11.5-11.4V66.2l-25.4-7c-1.3-0.4-2.7,0.4-3.1,1.7L101.2,84
				c-0.5,1.6-2.4,2.3-3.9,1.4L35.7,43.3c-2.3-1.6-0.6-5.2,2.1-4.4L85.2,52c1.3,0.4,2.7-0.4,3.1-1.7l6.6-23.1
				C95.4,25.6,97.2,24.9,98.7,25.8L98.7,25.8z"/>
		</g>
		<g id="SURGE" transform="translate(171.63336 0)">
			<path id="S" class="st2" d="M56.8,24l-19.3,1c0-2.6-0.8-4.7-2.3-6.2c-1.5-1.5-3.7-2.3-6.4-2.3c-2.3,0-4.2,0.6-5.6,1.7
				C21.7,19.4,21,21,21,23c0,1.8,0.8,3.3,2.4,4.2c1.8,0.9,5,2,9.7,3.1c8.6,2.3,14.8,5.1,18.8,8.4s5.9,7.9,5.9,13.7
				c0,7.7-2.6,13.6-7.8,17.5c-5.3,3.9-11.9,5.8-19.8,5.8c-9.1,0-16.4-2.1-22.1-6.5C2.7,64.9-0.1,58.8,0,50.9l19.3-1
				c-0.1,2.8,0.9,5.1,3,6.8c2.1,1.7,4.7,2.6,8,2.6c5.5,0,8.3-2,8.3-5.9c0-1.7-1-3.2-2.8-4.4c-1.9-1.2-5.1-2.4-9.6-3.6
				c-7.2-1.8-12.9-4-17.1-6.8c-4.9-3.2-7.3-8.3-7.3-15.2C1.8,16.7,4,11,8.6,6.7C13.3,2.2,19.9,0,28.4,0C36.9,0,43.8,2.1,49,6.4
				C54,10.7,56.7,16.5,56.8,24L56.8,24z"/>
			<path id="U" class="st2" d="M122.5,1.2h18.8v42.3c0,10.2-2.9,18.1-8.6,23.8c-5.7,5.7-13.6,8.6-23.7,8.6
				c-10.2,0-18.2-2.9-23.9-8.6c-5.7-5.7-8.6-13.6-8.6-23.8V1.2h18.9v42C95.4,53.7,99.9,59,109,59c9,0,13.5-5.3,13.5-15.8L122.5,1.2
				L122.5,1.2z"/>
			<path id="R" class="st2" d="M224,74.8h-21.4l-13-24.6h-8v24.6h-18.9V1.2h33.1c7.5,0,13.4,2.2,17.8,6.6c4.4,4.4,6.5,10.4,6.5,18
				c0,10.1-3.7,17.1-11,21.2L224,74.8L224,74.8z M181.6,18v15.3h12c2.3,0,4.2-0.7,5.5-2.1c1.3-1.3,2-3.3,2-5.6c0-2.3-0.7-4.2-2-5.6
				c-1.3-1.3-3.1-2.1-5.5-2.1H181.6L181.6,18z"/>
			<path id="G" class="st2" d="M277.9,32.8h35.8v6.1c0,11-3.2,19.8-9.6,26.7c-6.4,6.8-15,10.2-26,10.2c-11.2,0-20.4-3.4-27.6-10.2
				c-7-6.7-10.6-16-10.6-27.7c0-11.7,3.5-20.9,10.6-27.7C257.7,3.4,266.9,0,278.1,0c8.7,0,16.1,2.2,22.2,6.6
				c6.1,4.4,10.3,10.4,12.5,18.2L293.2,28c-2.3-7.5-7.5-11.2-15.4-11.2c-6,0-10.6,1.8-13.8,5.3c-3.2,3.6-4.8,8.8-4.8,15.8
				c0,6.9,1.6,12.2,4.8,15.8c3.2,3.6,7.8,5.3,13.8,5.3c7.3,0,12.1-3.1,14.6-9.3h-14.6L277.9,32.8L277.9,32.8z"/>
			<path id="E" class="st2" d="M381.5,1.2V18h-29.1v11h24.9v16.4h-24.9V58h29.2v16.8h-48.1V1.2L381.5,1.2L381.5,1.2z"/>
		</g>
		<g id="FREE-_x26_-OPEN-SOURCE" transform="translate(171.63434 112.392685)">
			<path id="F" class="st3" d="M17.2,0.6v6H6.8v3.9h8.3v6H6.8v10.5H0V0.6H17.2L17.2,0.6z"/>
			<path id="R_1_" class="st3" d="M42.1,26.9h-7.6l-4.7-8.8h-2.9v8.8h-6.8V0.6H32c2.7,0,4.8,0.8,6.4,2.3c1.6,1.6,2.4,3.7,2.4,6.4
				c0,3.6-1.3,6.1-3.9,7.6L42.1,26.9L42.1,26.9z M26.8,6.6v5.5h4.3c0.9,0,1.5-0.2,2-0.7c0.5-0.5,0.7-1.2,0.7-2c0-0.9-0.2-1.5-0.7-2
				c-0.5-0.5-1.1-0.7-2-0.7H26.8L26.8,6.6z"/>
			<path id="E_1_" class="st3" d="M61.9,0.6v6H51.5v3.9h8.9v5.9h-8.9v4.5h10.5v6H44.6V0.5L61.9,0.6L61.9,0.6z"/>
			<path id="E_2_" class="st3" d="M82.5,0.6v6H72.1v3.9H81v5.9h-8.9v4.5h10.5v6H65.2V0.5L82.5,0.6L82.5,0.6z"/>
			<path id="_x26_" class="st3" d="M117,22.6l-3.5,4.7l-3.9-3.2c-2.1,2.1-4.8,3.2-7.9,3.2c-3.1,0-5.6-0.7-7.3-2.2
				c-1.7-1.5-2.5-3.3-2.5-5.6c0-2.8,1.3-5,3.8-6.9c-1.3-1.5-2-3.1-2-4.7c0-2.5,0.8-4.4,2.4-5.7c1.6-1.3,3.7-2,6.4-2
				c2.3,0,4.3,0.6,5.9,1.9c1.6,1.3,2.6,3,2.9,5.2l-6.6,0.6c-0.2-1.5-0.9-2.2-2.3-2.2c-0.6,0-1.2,0.2-1.5,0.6
				c-0.4,0.4-0.6,0.9-0.6,1.6c0,0.7,0.3,1.3,0.9,2c0.1,0.1,0.1,0.1,0.1,0.1c0.1,0.1,0.1,0.1,0.1,0.1c0,0.1,0.1,0.1,0.1,0.1
				c0.1,0.1,0.1,0.1,0.1,0.1c0.1,0.1,0.1,0.1,0.2,0.2c0.2,0.2,0.3,0.2,0.4,0.3c0.5,0.4,0.7,0.6,0.8,0.6l4.8,3.9
				c0.3-0.9,0.6-2,0.9-3.4l6,1.5c-0.6,2.1-1.2,4-2,5.8L117,22.6L117,22.6z M101.7,21.6c1.2,0,2.3-0.4,3.2-1.2l-5.1-4.2
				c-0.7,0.7-1.1,1.5-1.1,2.7c0,0.9,0.2,1.5,0.8,2C100.1,21.3,100.8,21.6,101.7,21.6L101.7,21.6z"/>
			<path id="O" class="st3" d="M138.1,0.1c4.1,0,7.5,1.2,10,3.7c2.6,2.5,3.9,5.8,3.9,9.9c0,4.1-1.3,7.4-3.9,9.9
				c-2.6,2.5-5.9,3.7-10,3.7c-4.2,0-7.5-1.2-10.1-3.7c-2.6-2.5-3.9-5.8-3.9-9.9c0-4.1,1.3-7.4,3.9-9.9
				C130.6,1.4,133.9,0.1,138.1,0.1L138.1,0.1z M138.1,6.2c-2.1,0-3.9,0.7-5.1,2c-1.3,1.3-1.9,3.2-1.9,5.5s0.6,4.2,1.9,5.5
				c1.3,1.3,3,2,5.1,2s3.9-0.7,5.1-2c1.3-1.3,1.9-3.2,1.9-5.5s-0.6-4.2-1.9-5.5C141.9,6.9,140.2,6.2,138.1,6.2L138.1,6.2z"/>
			<path id="P" class="st3" d="M155.1,26.9V0.6h12c2.7,0,4.8,0.8,6.4,2.4c1.6,1.6,2.4,3.7,2.4,6.4c0,2.7-0.8,4.8-2.4,6.4
				c-1.6,1.5-3.7,2.3-6.4,2.3H162v8.8H155.1L155.1,26.9z M166.3,6.6h-4.4v5.6h4.4c0.8,0,1.5-0.2,2-0.7c0.5-0.5,0.7-1.2,0.7-2
				c0-0.9-0.2-1.5-0.7-2C167.8,6.8,167.1,6.6,166.3,6.6L166.3,6.6z"/>
			<path id="E_3_" class="st3" d="M195.5,0.6v6H185v3.9h8.9v5.9H185v4.5h10.5v6h-17.3V0.5L195.5,0.6L195.5,0.6z"/>
			<path id="N" class="st3" d="M198.9,0l15,12.9V0.6h6.8v26.9l-15-12.8v12.3h-6.8V0L198.9,0z"/>
			<path id="S_1_" class="st3" d="M251,8.7l-6.9,0.4c0-0.9-0.3-1.7-0.9-2.2c-0.6-0.6-1.3-0.8-2.3-0.8c-0.9,0-1.5,0.2-2,0.6
				c-0.5,0.4-0.7,1-0.7,1.7c0,0.7,0.3,1.2,0.9,1.5c0.6,0.3,1.8,0.7,3.5,1.1c3.1,0.8,5.3,1.8,6.7,3c1.4,1.2,2.1,2.8,2.1,4.9
				c0,2.8-0.9,4.8-2.8,6.3c-1.9,1.4-4.2,2.1-7.1,2.1c-3.2,0-5.9-0.8-7.9-2.3c-2-1.6-3-3.8-2.9-6.6l6.9-0.4c0,1,0.3,1.8,1.1,2.5
				c0.7,0.6,1.7,0.9,2.9,0.9c2,0,2.9-0.7,2.9-2.1c0-0.6-0.4-1.2-1-1.6c-0.7-0.4-1.8-0.9-3.4-1.3c-2.6-0.6-4.6-1.5-6.1-2.5
				c-1.8-1.2-2.6-2.9-2.6-5.5c0-2.5,0.8-4.5,2.4-6c1.7-1.6,4-2.4,7.1-2.4c3.1,0,5.5,0.7,7.4,2.3C250,3.9,250.9,6,251,8.7L251,8.7z"
				/>
			<path id="O_1_" class="st3" d="M267.5,0.1c4.1,0,7.5,1.2,10,3.7c2.6,2.5,3.9,5.8,3.9,9.9c0,4.1-1.3,7.4-3.9,9.9
				c-2.6,2.5-5.9,3.7-10,3.7c-4.2,0-7.5-1.2-10.1-3.7c-2.6-2.5-3.9-5.8-3.9-9.9c0-4.1,1.3-7.4,3.9-9.9C260,1.4,263.3,0.1,267.5,0.1
				L267.5,0.1z M267.5,6.2c-2.1,0-3.9,0.7-5.1,2c-1.3,1.3-1.9,3.2-1.9,5.5s0.6,4.2,1.9,5.5c1.3,1.3,3,2,5.1,2c2.1,0,3.9-0.7,5.1-2
				c1.3-1.3,1.9-3.2,1.9-5.5s-0.6-4.2-1.9-5.5S269.6,6.2,267.5,6.2L267.5,6.2z"/>
			<path id="U_1_" class="st3" d="M300.8,0.6h6.7v15.2c0,3.6-1,6.5-3.1,8.5c-2,2-4.9,3.1-8.5,3.1c-3.7,0-6.5-1-8.6-3.1
				c-2.1-2-3.1-4.9-3.1-8.5V0.6h6.8v15.1c0,3.8,1.7,5.7,4.9,5.7s4.8-1.9,4.8-5.7L300.8,0.6L300.8,0.6z"/>
			<path id="R_2_" class="st3" d="M333.4,26.9h-7.6l-4.7-8.8h-2.9v8.8h-6.8V0.6h11.9c2.7,0,4.8,0.8,6.4,2.3c1.6,1.6,2.4,3.7,2.4,6.4
				c0,3.6-1.3,6.1-3.9,7.6L333.4,26.9L333.4,26.9z M318.1,6.6v5.5h4.3c0.9,0,1.5-0.2,2-0.7c0.5-0.5,0.7-1.2,0.7-2
				c0-0.9-0.2-1.5-0.7-2c-0.5-0.5-1.1-0.7-2-0.7H318.1L318.1,6.6z"/>
			<path id="C" class="st3" d="M348.8,0.1c3.3,0,6.1,0.9,8.5,2.8c2.4,1.8,3.8,4.4,4.3,7.4l-7.1,0.7c-0.7-3.3-2.8-4.8-5.9-4.8
				c-2,0-3.5,0.7-4.7,2.1c-1.2,1.3-1.8,3.2-1.8,5.5c0,2.4,0.6,4.2,1.8,5.6c1.2,1.3,2.8,2,4.7,2c1.6,0,2.9-0.4,3.9-1.2
				c1-0.8,1.7-2,2-3.6l7.1,0.6c-0.5,3.1-1.9,5.6-4.3,7.5c-2.3,1.8-5.2,2.8-8.5,2.8c-4,0-7.3-1.2-9.9-3.7c-2.5-2.5-3.8-5.7-3.8-9.9
				c0-4.2,1.3-7.5,3.8-9.9C341.6,1.3,344.9,0.1,348.8,0.1L348.8,0.1z"/>
			<path id="E_4_" class="st3" d="M381.9,0.6v6h-10.5v3.9h8.9v5.9h-8.9v4.5h10.5v6h-17.3V0.5L381.9,0.6L381.9,0.6z"/>
		</g>
		<g id="HYBRID-SYNTHESIZER" transform="translate(171.63434 150.79755)">
			<path id="H" class="st3" d="M22.4,0.6v26.4h-6.8V16.5H6.8v10.4H0V0.6h6.8v9.9h8.8V0.6H22.4L22.4,0.6z"/>
			<path id="Y" class="st3" d="M50.5,0.6l-10,16.7V27h-6.8v-9.7l-10-16.7h7.9l5.5,9.9l5.5-9.9H50.5L50.5,0.6z"/>
			<path id="B" class="st3" d="M52,27V0.6h11.7c2.6,0,4.6,0.6,6.2,1.9c1.5,1.3,2.3,3.1,2.3,5.6c0,1.9-0.7,3.6-2.1,5
				c1,0.5,1.7,1.3,2.3,2.3c0.6,1,0.9,2.3,0.9,3.7c0,2.5-0.8,4.4-2.4,5.8c-1.6,1.4-3.7,2.1-6.4,2.1H52L52,27z M62.9,6.6h-4.2v4h4.1
				c1.6,0,2.4-0.7,2.4-2C65.2,7.2,64.4,6.6,62.9,6.6L62.9,6.6z M63.6,16.4h-4.8v4.5h4.8c1.8,0,2.6-0.7,2.6-2.3
				C66.2,17.1,65.3,16.4,63.6,16.4L63.6,16.4z"/>
			<path id="R_3_" class="st3" d="M98.1,27h-7.6l-4.7-8.8h-2.9V27h-6.8V0.6H88c2.7,0,4.8,0.8,6.4,2.3c1.6,1.6,2.4,3.7,2.4,6.4
				c0,3.6-1.3,6.1-3.9,7.6L98.1,27L98.1,27z M82.9,6.6v5.5h4.3c0.9,0,1.5-0.2,2-0.7c0.5-0.5,0.7-1.2,0.7-2c0-0.9-0.2-1.5-0.7-2
				c-0.5-0.5-1.1-0.7-2-0.7H82.9L82.9,6.6z"/>
			<path id="I" class="st3" d="M107,0.6v26.4h-6.8V0.6H107L107,0.6z"/>
			<path id="D" class="st3" d="M110.5,27V0.6h11.1c3.9,0,7.1,1.2,9.6,3.6c2.5,2.3,3.7,5.6,3.7,9.6s-1.2,7.3-3.7,9.6
				c-2.5,2.4-5.7,3.6-9.6,3.6H110.5L110.5,27z M121.8,6.4h-4.5v14.7h4.5c2.1,0,3.7-0.6,4.8-1.8c1.1-1.2,1.7-3.1,1.7-5.5
				c0-2.5-0.6-4.2-1.7-5.5C125.4,7.1,123.8,6.4,121.8,6.4L121.8,6.4z"/>
			<path id="S_2_" class="st3" d="M163.6,8.8l-6.9,0.4c0-0.9-0.3-1.7-0.9-2.2c-0.6-0.6-1.3-0.8-2.3-0.8c-0.9,0-1.5,0.2-2,0.6
				c-0.5,0.4-0.7,1-0.7,1.7c0,0.7,0.3,1.2,0.9,1.5c0.6,0.3,1.8,0.7,3.5,1.1c3.1,0.8,5.3,1.8,6.7,3c1.4,1.2,2.1,2.8,2.1,4.9
				c0,2.8-0.9,4.8-2.8,6.3c-1.9,1.4-4.2,2.1-7.1,2.1c-3.2,0-5.9-0.8-7.9-2.3c-2-1.6-3-3.8-2.9-6.6l6.9-0.4c0,1,0.3,1.8,1.1,2.5
				c0.7,0.6,1.7,0.9,2.9,0.9c2,0,2.9-0.7,2.9-2.1c0-0.6-0.4-1.2-1-1.6c-0.7-0.4-1.8-0.9-3.4-1.3c-2.6-0.6-4.6-1.5-6.1-2.5
				c-1.8-1.2-2.6-2.9-2.6-5.5c0-2.5,0.8-4.5,2.4-6c1.7-1.6,4-2.4,7.1-2.4c3.1,0,5.5,0.7,7.4,2.3C162.6,4,163.6,6.1,163.6,8.8
				L163.6,8.8z"/>
			<path id="Y_1_" class="st3" d="M191.2,0.6l-10,16.7V27h-6.8v-9.7l-10-16.7h7.9l5.5,9.9l5.5-9.9H191.2L191.2,0.6z"/>
			<path id="N_1_" class="st3" d="M192.7,0l15,12.9V0.6h6.8v26.9l-15-12.8V27h-6.8V0L192.7,0z"/>
			<path id="T" class="st3" d="M239.5,0.6v6h-8.2v20.4h-6.8V6.6h-8.3v-6H239.5L239.5,0.6z"/>
			<path id="H_1_" class="st3" d="M263.7,0.6v26.4H257V16.5h-8.8v10.4h-6.8V0.6h6.8v9.9h8.8V0.6H263.7L263.7,0.6z"/>
			<path id="E_5_" class="st3" d="M284.5,0.6v6H274v3.9h8.9v5.9H274v4.5h10.5v6h-17.2V0.5L284.5,0.6L284.5,0.6z"/>
			<path id="S_3_" class="st3" d="M306.9,8.8L300,9.1c0-0.9-0.3-1.7-0.9-2.2c-0.6-0.6-1.3-0.8-2.3-0.8c-0.9,0-1.5,0.2-2,0.6
				c-0.5,0.4-0.7,1-0.7,1.7c0,0.7,0.3,1.2,0.9,1.5c0.6,0.3,1.8,0.7,3.5,1.1c3.1,0.8,5.3,1.8,6.7,3c1.4,1.2,2.1,2.8,2.1,4.9
				c0,2.8-0.9,4.8-2.8,6.3c-1.9,1.4-4.2,2.1-7.1,2.1c-3.2,0-5.9-0.8-7.9-2.3c-2-1.6-3-3.8-2.9-6.6l6.9-0.4c0,1,0.3,1.8,1.1,2.5
				c0.7,0.6,1.7,0.9,2.9,0.9c2,0,2.9-0.7,2.9-2.1c0-0.6-0.4-1.2-1-1.6c-0.7-0.4-1.8-0.9-3.4-1.3c-2.6-0.6-4.6-1.5-6.1-2.5
				c-1.8-1.2-2.6-2.9-2.6-5.5c0-2.5,0.8-4.5,2.4-6c1.7-1.6,4-2.4,7.1-2.4c3.1,0,5.5,0.7,7.4,2.3C305.9,4,306.9,6.1,306.9,8.8
				L306.9,8.8z"/>
			<path id="I_1_" class="st3" d="M316.6,0.6v26.4h-6.8V0.6H316.6L316.6,0.6z"/>
			<path id="Z" class="st3" d="M338.9,0.6l-10,20.4h9.9v6h-20.1l10-20.4H319v-6H338.9L338.9,0.6z"/>
			<path id="E_6_" class="st3" d="M358.4,0.6v6h-10.5v3.9h8.9v5.9h-8.9v4.5h10.5v6h-17.3V0.5L358.4,0.6L358.4,0.6z"/>
			<path id="R_4_" class="st3" d="M383.4,27h-7.6l-4.7-8.8h-2.9V27h-6.8V0.6h11.9c2.7,0,4.8,0.8,6.4,2.3c1.6,1.6,2.4,3.7,2.4,6.4
				c0,3.6-1.3,6.1-3.9,7.6L383.4,27L383.4,27z M368.1,6.6v5.5h4.3c0.9,0,1.5-0.2,2-0.7c0.5-0.5,0.7-1.2,0.7-2c0-0.9-0.2-1.5-0.7-2
				c-0.5-0.5-1.1-0.7-2-0.7H368.1L368.1,6.6z"/>
		</g>
	</g>
</g>
</svg>
