<?xml version="1.0" encoding="utf-8"?>
<!-- Generator: Adobe Illustrator 22.0.0, SVG Export Plug-In . SVG Version: 6.00 Build 0)  -->
<svg version="1.1" baseProfile="basic" id="Layer_1"
	 xmlns="http://www.w3.org/2000/svg" xmlns:xlink="http://www.w3.org/1999/xlink" x="0px" y="0px" width="399px" height="84px"
	 viewBox="0 0 399 84" xml:space="preserve">
<style type="text/css">
	.st0{opacity:0.1;}
	.st1{fill:#EEEEEE;}
	.st2{fill:none;stroke:#EEEEEE;}
	.st3{fill:#737373;}
	.st4{fill:none;stroke:#000000;}
	.st5{fill:#2471DB;}
	.st6{fill:none;stroke:#001E3C;stroke-opacity:0.5;}
	.st7{fill:#1F1F1F;}
</style>
<g class="st0">
	<path class="st1" d="M260.5,7.5c0,0.3-0.2,0.5-0.5,0.5H140c-0.3,0-0.5-0.2-0.5-0.5S139.7,7,140,7h120C260.3,7,260.5,7.2,260.5,7.5z
		"/>
	<path class="st2" d="M261,7.5c0,0.6-0.4,1-1,1H140c-0.6,0-1-0.4-1-1l0,0c0-0.6,0.4-1,1-1h120C260.6,6.5,261,6.9,261,7.5L261,7.5z"
		/>
	<path class="st1" d="M144.5,4h-1v2h1V4z"/>
	<path class="st1" d="M144.5,9h-1v2h1V9z"/>
	<path class="st1" d="M256.5,4h-1v2h1V4z"/>
	<path class="st1" d="M256.5,9h-1v2h1V9z"/>
</g>
<path class="st3" d="M260,7c0,0.3-0.2,0.5-0.5,0.5h-120c-0.3,0-0.5-0.2-0.5-0.5s0.2-0.5,0.5-0.5h120C259.8,6.5,260,6.7,260,7z"/>
<path class="st4" d="M260.5,7c0,0.6-0.4,1-1,1h-120c-0.6,0-1-0.4-1-1l0,0c0-0.6,0.4-1,1-1h120C260.1,6,260.5,6.4,260.5,7L260.5,7z"
	/>
<path d="M144,3.5h-1v2h1V3.5z"/>
<path d="M144,8.5h-1v2h1V8.5z"/>
<path d="M256,3.5h-1v2h1V3.5z"/>
<path d="M256,8.5h-1v2h1V8.5z"/>
<g class="st0">
	<path class="st1" d="M200.5,18.5h-1V20h1V18.5z"/>
	<path class="st1" d="M200.5,23h-1v1.5h1V23z"/>
	<path class="st1" d="M144.5,16h-1v2h1V16z"/>
	<path class="st1" d="M144.5,25h-1v2h1V25z"/>
	<path class="st1" d="M256.5,16h-1v2h1V16z"/>
	<path class="st1" d="M256.5,25h-1v2h1V25z"/>
</g>
<g class="st0">
	<path class="st1" d="M260.5,21.5c0,0.3-0.2,0.5-0.5,0.5H140c-0.3,0-0.5-0.2-0.5-0.5s0.2-0.5,0.5-0.5h120
		C260.3,21,260.5,21.2,260.5,21.5z"/>
	<path class="st2" d="M261,21.5c0,0.6-0.4,1-1,1H140c-0.6,0-1-0.4-1-1l0,0c0-0.6,0.4-1,1-1h120C260.6,20.5,261,20.9,261,21.5
		L261,21.5z"/>
	<path class="st1" d="M144.5,18h-1v2h1V18z"/>
	<path class="st1" d="M144.5,23h-1v2h1V23z"/>
	<path class="st1" d="M256.5,18h-1v2h1V18z"/>
	<path class="st1" d="M256.5,23h-1v2h1V23z"/>
</g>
<path class="st3" d="M260,21c0,0.3-0.2,0.5-0.5,0.5h-120c-0.3,0-0.5-0.2-0.5-0.5s0.2-0.5,0.5-0.5h120C259.8,20.5,260,20.7,260,21z"
	/>
<path class="st4" d="M260.5,21c0,0.6-0.4,1-1,1h-120c-0.6,0-1-0.4-1-1l0,0c0-0.6,0.4-1,1-1h120C260.1,20,260.5,20.4,260.5,21
	L260.5,21z"/>
<path d="M144,17.5h-1v2h1V17.5z"/>
<path d="M144,22.5h-1v2h1V22.5z"/>
<path d="M256,17.5h-1v2h1V17.5z"/>
<path d="M256,22.5h-1v2h1V22.5z"/>
<path d="M200,18h-1v1.5h1V18z"/>
<path d="M200,22.5h-1V24h1V22.5z"/>
<path d="M144,15.5h-1v2h1V15.5z"/>
<path d="M144,24.5h-1v2h1V24.5z"/>
<path d="M256,15.5h-1v2h1V15.5z"/>
<path d="M256,24.5h-1v2h1V24.5z"/>
<g class="st0">
	<path class="st1" d="M260.5,35.5c0,0.3-0.2,0.5-0.5,0.5H140c-0.3,0-0.5-0.2-0.5-0.5s0.2-0.5,0.5-0.5h120
		C260.3,35,260.5,35.2,260.5,35.5z"/>
	<path class="st2" d="M261,35.5c0,0.6-0.4,1-1,1H140c-0.6,0-1-0.4-1-1l0,0c0-0.6,0.4-1,1-1h120C260.6,34.5,261,34.9,261,35.5
		L261,35.5z"/>
	<path class="st1" d="M144.5,31h-1v3h1V31z"/>
	<path class="st1" d="M144.5,37h-1v3h1V37z"/>
	<path class="st1" d="M152.5,31h-1v3h1V31z"/>
	<path class="st1" d="M152.5,37h-1v3h1V37z"/>
	<path class="st1" d="M160.5,31h-1v3h1V31z"/>
	<path class="st1" d="M160.5,37h-1v3h1V37z"/>
	<path class="st1" d="M168.5,31h-1v3h1V31z"/>
	<path class="st1" d="M168.5,37h-1v3h1V37z"/>
	<path class="st1" d="M176.5,31h-1v3h1V31z"/>
	<path class="st1" d="M176.5,37h-1v3h1V37z"/>
	<path class="st1" d="M184.5,31h-1v3h1V31z"/>
	<path class="st1" d="M184.5,37h-1v3h1V37z"/>
	<path class="st1" d="M192.5,31h-1v3h1V31z"/>
	<path class="st1" d="M192.5,37h-1v3h1V37z"/>
	<path class="st1" d="M200.5,31h-1v3h1V31z"/>
	<path class="st1" d="M200.5,37h-1v3h1V37z"/>
	<path class="st1" d="M208.5,31h-1v3h1V31z"/>
	<path class="st1" d="M208.5,37h-1v3h1V37z"/>
	<path class="st1" d="M216.5,31h-1v3h1V31z"/>
	<path class="st1" d="M216.5,37h-1v3h1V37z"/>
	<path class="st1" d="M224.5,31h-1v3h1V31z"/>
	<path class="st1" d="M224.5,37h-1v3h1V37z"/>
	<path class="st1" d="M232.5,31h-1v3h1V31z"/>
	<path class="st1" d="M232.5,37h-1v3h1V37z"/>
	<path class="st1" d="M240.5,31h-1v3h1V31z"/>
	<path class="st1" d="M240.5,37h-1v3h1V37z"/>
	<path class="st1" d="M248.5,31h-1v3h1V31z"/>
	<path class="st1" d="M248.5,37h-1v3h1V37z"/>
	<path class="st1" d="M256.5,31h-1v3h1V31z"/>
	<path class="st1" d="M256.5,37h-1v3h1V37z"/>
</g>
<path class="st3" d="M260,35c0,0.3-0.2,0.5-0.5,0.5h-120c-0.3,0-0.5-0.2-0.5-0.5s0.2-0.5,0.5-0.5h120C259.8,34.5,260,34.7,260,35z"
	/>
<path class="st4" d="M260.5,35c0,0.6-0.4,1-1,1h-120c-0.6,0-1-0.4-1-1l0,0c0-0.6,0.4-1,1-1h120C260.1,34,260.5,34.4,260.5,35
	L260.5,35z"/>
<path d="M144,30.5h-1v3h1V30.5z"/>
<path d="M144,36.5h-1v3h1V36.5z"/>
<path d="M152,30.5h-1v3h1V30.5z"/>
<path d="M152,36.5h-1v3h1V36.5z"/>
<path d="M160,30.5h-1v3h1V30.5z"/>
<path d="M160,36.5h-1v3h1V36.5z"/>
<path d="M168,30.5h-1v3h1V30.5z"/>
<path d="M168,36.5h-1v3h1V36.5z"/>
<path d="M176,30.5h-1v3h1V30.5z"/>
<path d="M176,36.5h-1v3h1V36.5z"/>
<path d="M184,30.5h-1v3h1V30.5z"/>
<path d="M184,36.5h-1v3h1V36.5z"/>
<path d="M192,30.5h-1v3h1V30.5z"/>
<path d="M192,36.5h-1v3h1V36.5z"/>
<path d="M200,30.5h-1v3h1V30.5z"/>
<path d="M200,36.5h-1v3h1V36.5z"/>
<path d="M208,30.5h-1v3h1V30.5z"/>
<path d="M208,36.5h-1v3h1V36.5z"/>
<path d="M216,30.5h-1v3h1V30.5z"/>
<path d="M216,36.5h-1v3h1V36.5z"/>
<path d="M224,30.5h-1v3h1V30.5z"/>
<path d="M224,36.5h-1v3h1V36.5z"/>
<path d="M232,30.5h-1v3h1V30.5z"/>
<path d="M232,36.5h-1v3h1V36.5z"/>
<path d="M240,30.5h-1v3h1V30.5z"/>
<path d="M240,36.5h-1v3h1V36.5z"/>
<path d="M248,30.5h-1v3h1V30.5z"/>
<path d="M248,36.5h-1v3h1V36.5z"/>
<path d="M256,30.5h-1v3h1V30.5z"/>
<path d="M256,36.5h-1v3h1V36.5z"/>
<g class="st0">
	<path class="st1" d="M393.5,7.5c0,0.3-0.2,0.5-0.5,0.5H273c-0.3,0-0.5-0.2-0.5-0.5S272.7,7,273,7h120C393.3,7,393.5,7.2,393.5,7.5z
		"/>
	<path class="st2" d="M394,7.5c0,0.6-0.4,1-1,1H273c-0.6,0-1-0.4-1-1l0,0c0-0.6,0.4-1,1-1h120C393.6,6.5,394,6.9,394,7.5L394,7.5z"
		/>
	<path class="st1" d="M277.5,4h-1v2h1V4z"/>
	<path class="st1" d="M277.5,9h-1v2h1V9z"/>
	<path class="st1" d="M389.5,4h-1v2h1V4z"/>
	<path class="st1" d="M389.5,9h-1v2h1V9z"/>
</g>
<path class="st5" d="M393,7c0,0.3-0.2,0.5-0.5,0.5h-120c-0.3,0-0.5-0.2-0.5-0.5s0.2-0.5,0.5-0.5h120C392.8,6.5,393,6.7,393,7z"/>
<path class="st4" d="M393.5,7c0,0.6-0.4,1-1,1h-120c-0.6,0-1-0.4-1-1l0,0c0-0.6,0.4-1,1-1h120C393.1,6,393.5,6.4,393.5,7L393.5,7z"
	/>
<path class="st6" d="M393.5,7c0,1.1-0.9,2-2,2h-118c-1.1,0-2-0.9-2-2l0,0c0-1.1,0.9-2,2-2h118C392.6,5,393.5,5.9,393.5,7L393.5,7z"
	/>
<path d="M277,3.5h-1v2h1V3.5z"/>
<path d="M277,8.5h-1v2h1V8.5z"/>
<path d="M389,3.5h-1v2h1V3.5z"/>
<path d="M389,8.5h-1v2h1V8.5z"/>
<g class="st0">
	<path class="st1" d="M333.5,18.5h-1V20h1V18.5z"/>
	<path class="st1" d="M333.5,23h-1v1.5h1V23z"/>
	<path class="st1" d="M277.5,16h-1v2h1V16z"/>
	<path class="st1" d="M277.5,25h-1v2h1V25z"/>
	<path class="st1" d="M389.5,16h-1v2h1V16z"/>
	<path class="st1" d="M389.5,25h-1v2h1V25z"/>
</g>
<g class="st0">
	<path class="st1" d="M393.5,21.5c0,0.3-0.2,0.5-0.5,0.5H273c-0.3,0-0.5-0.2-0.5-0.5s0.2-0.5,0.5-0.5h120
		C393.3,21,393.5,21.2,393.5,21.5z"/>
	<path class="st2" d="M394,21.5c0,0.6-0.4,1-1,1H273c-0.6,0-1-0.4-1-1l0,0c0-0.6,0.4-1,1-1h120C393.6,20.5,394,20.9,394,21.5
		L394,21.5z"/>
	<path class="st1" d="M277.5,18h-1v2h1V18z"/>
	<path class="st1" d="M277.5,23h-1v2h1V23z"/>
	<path class="st1" d="M389.5,18h-1v2h1V18z"/>
	<path class="st1" d="M389.5,23h-1v2h1V23z"/>
</g>
<path class="st5" d="M393,21c0,0.3-0.2,0.5-0.5,0.5h-120c-0.3,0-0.5-0.2-0.5-0.5s0.2-0.5,0.5-0.5h120C392.8,20.5,393,20.7,393,21z"
	/>
<path class="st4" d="M393.5,21c0,0.6-0.4,1-1,1h-120c-0.6,0-1-0.4-1-1l0,0c0-0.6,0.4-1,1-1h120C393.1,20,393.5,20.4,393.5,21
	L393.5,21z"/>
<path class="st6" d="M393.5,21c0,1.1-0.9,2-2,2h-118c-1.1,0-2-0.9-2-2l0,0c0-1.1,0.9-2,2-2h118C392.6,19,393.5,19.9,393.5,21
	L393.5,21z"/>
<path d="M277,17.5h-1v2h1V17.5z"/>
<path d="M277,22.5h-1v2h1V22.5z"/>
<path d="M389,17.5h-1v2h1V17.5z"/>
<path d="M389,22.5h-1v2h1V22.5z"/>
<path d="M333,18h-1v1.5h1V18z"/>
<path d="M333,22.5h-1V24h1V22.5z"/>
<path d="M277,15.5h-1v2h1V15.5z"/>
<path d="M277,24.5h-1v2h1V24.5z"/>
<path d="M389,15.5h-1v2h1V15.5z"/>
<path d="M389,24.5h-1v2h1V24.5z"/>
<g class="st0">
	<path class="st1" d="M393.5,35.5c0,0.3-0.2,0.5-0.5,0.5H273c-0.3,0-0.5-0.2-0.5-0.5s0.2-0.5,0.5-0.5h120
		C393.3,35,393.5,35.2,393.5,35.5z"/>
	<path class="st2" d="M394,35.5c0,0.6-0.4,1-1,1H273c-0.6,0-1-0.4-1-1l0,0c0-0.6,0.4-1,1-1h120C393.6,34.5,394,34.9,394,35.5
		L394,35.5z"/>
	<path class="st1" d="M277.5,31h-1v3h1V31z"/>
	<path class="st1" d="M277.5,37h-1v3h1V37z"/>
	<path class="st1" d="M285.5,31h-1v3h1V31z"/>
	<path class="st1" d="M285.5,37h-1v3h1V37z"/>
	<path class="st1" d="M293.5,31h-1v3h1V31z"/>
	<path class="st1" d="M293.5,37h-1v3h1V37z"/>
	<path class="st1" d="M301.5,31h-1v3h1V31z"/>
	<path class="st1" d="M301.5,37h-1v3h1V37z"/>
	<path class="st1" d="M309.5,31h-1v3h1V31z"/>
	<path class="st1" d="M309.5,37h-1v3h1V37z"/>
	<path class="st1" d="M317.5,31h-1v3h1V31z"/>
	<path class="st1" d="M317.5,37h-1v3h1V37z"/>
	<path class="st1" d="M325.5,31h-1v3h1V31z"/>
	<path class="st1" d="M325.5,37h-1v3h1V37z"/>
	<path class="st1" d="M333.5,31h-1v3h1V31z"/>
	<path class="st1" d="M333.5,37h-1v3h1V37z"/>
	<path class="st1" d="M341.5,31h-1v3h1V31z"/>
	<path class="st1" d="M341.5,37h-1v3h1V37z"/>
	<path class="st1" d="M349.5,31h-1v3h1V31z"/>
	<path class="st1" d="M349.5,37h-1v3h1V37z"/>
	<path class="st1" d="M357.5,31h-1v3h1V31z"/>
	<path class="st1" d="M357.5,37h-1v3h1V37z"/>
	<path class="st1" d="M365.5,31h-1v3h1V31z"/>
	<path class="st1" d="M365.5,37h-1v3h1V37z"/>
	<path class="st1" d="M373.5,31h-1v3h1V31z"/>
	<path class="st1" d="M373.5,37h-1v3h1V37z"/>
	<path class="st1" d="M381.5,31h-1v3h1V31z"/>
	<path class="st1" d="M381.5,37h-1v3h1V37z"/>
	<path class="st1" d="M389.5,31h-1v3h1V31z"/>
	<path class="st1" d="M389.5,37h-1v3h1V37z"/>
</g>
<path class="st5" d="M393,35c0,0.3-0.2,0.5-0.5,0.5h-120c-0.3,0-0.5-0.2-0.5-0.5s0.2-0.5,0.5-0.5h120C392.8,34.5,393,34.7,393,35z"
	/>
<path class="st4" d="M393.5,35c0,0.6-0.4,1-1,1h-120c-0.6,0-1-0.4-1-1l0,0c0-0.6,0.4-1,1-1h120C393.1,34,393.5,34.4,393.5,35
	L393.5,35z"/>
<path class="st6" d="M393.5,35c0,1.1-0.9,2-2,2h-118c-1.1,0-2-0.9-2-2l0,0c0-1.1,0.9-2,2-2h118C392.6,33,393.5,33.9,393.5,35
	L393.5,35z"/>
<path d="M277,30.5h-1v3h1V30.5z"/>
<path d="M277,36.5h-1v3h1V36.5z"/>
<path d="M285,30.5h-1v3h1V30.5z"/>
<path d="M285,36.5h-1v3h1V36.5z"/>
<path d="M293,30.5h-1v3h1V30.5z"/>
<path d="M293,36.5h-1v3h1V36.5z"/>
<path d="M301,30.5h-1v3h1V30.5z"/>
<path d="M301,36.5h-1v3h1V36.5z"/>
<path d="M309,30.5h-1v3h1V30.5z"/>
<path d="M309,36.5h-1v3h1V36.5z"/>
<path d="M317,30.5h-1v3h1V30.5z"/>
<path d="M317,36.5h-1v3h1V36.5z"/>
<path d="M325,30.5h-1v3h1V30.5z"/>
<path d="M325,36.5h-1v3h1V36.5z"/>
<path d="M333,30.5h-1v3h1V30.5z"/>
<path d="M333,36.5h-1v3h1V36.5z"/>
<path d="M341,30.5h-1v3h1V30.5z"/>
<path d="M341,36.5h-1v3h1V36.5z"/>
<path d="M349,30.5h-1v3h1V30.5z"/>
<path d="M349,36.5h-1v3h1V36.5z"/>
<path d="M357,30.5h-1v3h1V30.5z"/>
<path d="M357,36.5h-1v3h1V36.5z"/>
<path d="M365,30.5h-1v3h1V30.5z"/>
<path d="M365,36.5h-1v3h1V36.5z"/>
<path d="M373,30.5h-1v3h1V30.5z"/>
<path d="M373,36.5h-1v3h1V36.5z"/>
<path d="M381,30.5h-1v3h1V30.5z"/>
<path d="M381,36.5h-1v3h1V36.5z"/>
<path d="M389,30.5h-1v3h1V30.5z"/>
<path d="M389,36.5h-1v3h1V36.5z"/>
<g class="st0">
	<path class="st1" d="M127.5,49.5c0,0.3-0.2,0.5-0.5,0.5H7c-0.3,0-0.5-0.2-0.5-0.5S6.7,49,7,49h120C127.3,49,127.5,49.2,127.5,49.5z
		"/>
	<path class="st2" d="M128,49.5c0,0.6-0.4,1-1,1H7c-0.6,0-1-0.4-1-1l0,0c0-0.6,0.4-1,1-1h120C127.6,48.5,128,48.9,128,49.5L128,49.5
		z"/>
	<path class="st1" d="M11.5,46h-1v2h1V46z"/>
	<path class="st1" d="M11.5,51h-1v2h1V51z"/>
	<path class="st1" d="M123.5,46h-1v2h1V46z"/>
	<path class="st1" d="M123.5,51h-1v2h1V51z"/>
</g>
<path class="st7" d="M127,49c0,0.3-0.2,0.5-0.5,0.5H6.5C6.2,49.5,6,49.3,6,49s0.2-0.5,0.5-0.5h120C126.8,48.5,127,48.7,127,49z"/>
<path class="st4" d="M127.5,49c0,0.6-0.4,1-1,1H6.5c-0.6,0-1-0.4-1-1l0,0c0-0.6,0.4-1,1-1h120C127.1,48,127.5,48.4,127.5,49
	L127.5,49z"/>
<path d="M11,45.5h-1v2h1V45.5z"/>
<path d="M11,50.5h-1v2h1V50.5z"/>
<path d="M123,45.5h-1v2h1V45.5z"/>
<path d="M123,50.5h-1v2h1V50.5z"/>
<g class="st0">
	<path class="st1" d="M67.5,60.5h-1V62h1V60.5z"/>
	<path class="st1" d="M67.5,65h-1v1.5h1V65z"/>
	<path class="st1" d="M11.5,58h-1v2h1V58z"/>
	<path class="st1" d="M11.5,67h-1v2h1V67z"/>
	<path class="st1" d="M123.5,58h-1v2h1V58z"/>
	<path class="st1" d="M123.5,67h-1v2h1V67z"/>
</g>
<g class="st0">
	<path class="st1" d="M127.5,63.5c0,0.3-0.2,0.5-0.5,0.5H7c-0.3,0-0.5-0.2-0.5-0.5S6.7,63,7,63h120C127.3,63,127.5,63.2,127.5,63.5z
		"/>
	<path class="st2" d="M128,63.5c0,0.6-0.4,1-1,1H7c-0.6,0-1-0.4-1-1l0,0c0-0.6,0.4-1,1-1h120C127.6,62.5,128,62.9,128,63.5L128,63.5
		z"/>
	<path class="st1" d="M11.5,60h-1v2h1V60z"/>
	<path class="st1" d="M11.5,65h-1v2h1V65z"/>
	<path class="st1" d="M123.5,60h-1v2h1V60z"/>
	<path class="st1" d="M123.5,65h-1v2h1V65z"/>
</g>
<path class="st7" d="M127,63c0,0.3-0.2,0.5-0.5,0.5H6.5C6.2,63.5,6,63.3,6,63s0.2-0.5,0.5-0.5h120C126.8,62.5,127,62.7,127,63z"/>
<path class="st4" d="M127.5,63c0,0.6-0.4,1-1,1H6.5c-0.6,0-1-0.4-1-1l0,0c0-0.6,0.4-1,1-1h120C127.1,62,127.5,62.4,127.5,63
	L127.5,63z"/>
<path d="M11,59.5h-1v2h1V59.5z"/>
<path d="M11,64.5h-1v2h1V64.5z"/>
<path d="M123,59.5h-1v2h1V59.5z"/>
<path d="M123,64.5h-1v2h1V64.5z"/>
<path d="M67,60h-1v1.5h1V60z"/>
<path d="M67,64.5h-1V66h1V64.5z"/>
<path d="M11,57.5h-1v2h1V57.5z"/>
<path d="M11,66.5h-1v2h1V66.5z"/>
<path d="M123,57.5h-1v2h1V57.5z"/>
<path d="M123,66.5h-1v2h1V66.5z"/>
<g class="st0">
	<path class="st1" d="M127.5,77.5c0,0.3-0.2,0.5-0.5,0.5H7c-0.3,0-0.5-0.2-0.5-0.5S6.7,77,7,77h120C127.3,77,127.5,77.2,127.5,77.5z
		"/>
	<path class="st2" d="M128,77.5c0,0.6-0.4,1-1,1H7c-0.6,0-1-0.4-1-1l0,0c0-0.6,0.4-1,1-1h120C127.6,76.5,128,76.9,128,77.5L128,77.5
		z"/>
	<path class="st1" d="M11.5,73h-1v3h1V73z"/>
	<path class="st1" d="M11.5,79h-1v3h1V79z"/>
	<path class="st1" d="M19.5,73h-1v3h1V73z"/>
	<path class="st1" d="M19.5,79h-1v3h1V79z"/>
	<path class="st1" d="M27.5,73h-1v3h1V73z"/>
	<path class="st1" d="M27.5,79h-1v3h1V79z"/>
	<path class="st1" d="M35.5,73h-1v3h1V73z"/>
	<path class="st1" d="M35.5,79h-1v3h1V79z"/>
	<path class="st1" d="M43.5,73h-1v3h1V73z"/>
	<path class="st1" d="M43.5,79h-1v3h1V79z"/>
	<path class="st1" d="M51.5,73h-1v3h1V73z"/>
	<path class="st1" d="M51.5,79h-1v3h1V79z"/>
	<path class="st1" d="M59.5,73h-1v3h1V73z"/>
	<path class="st1" d="M59.5,79h-1v3h1V79z"/>
	<path class="st1" d="M67.5,73h-1v3h1V73z"/>
	<path class="st1" d="M67.5,79h-1v3h1V79z"/>
	<path class="st1" d="M75.5,73h-1v3h1V73z"/>
	<path class="st1" d="M75.5,79h-1v3h1V79z"/>
	<path class="st1" d="M83.5,73h-1v3h1V73z"/>
	<path class="st1" d="M83.5,79h-1v3h1V79z"/>
	<path class="st1" d="M91.5,73h-1v3h1V73z"/>
	<path class="st1" d="M91.5,79h-1v3h1V79z"/>
	<path class="st1" d="M99.5,73h-1v3h1V73z"/>
	<path class="st1" d="M99.5,79h-1v3h1V79z"/>
	<path class="st1" d="M107.5,73h-1v3h1V73z"/>
	<path class="st1" d="M107.5,79h-1v3h1V79z"/>
	<path class="st1" d="M115.5,73h-1v3h1V73z"/>
	<path class="st1" d="M115.5,79h-1v3h1V79z"/>
	<path class="st1" d="M123.5,73h-1v3h1V73z"/>
	<path class="st1" d="M123.5,79h-1v3h1V79z"/>
</g>
<path class="st7" d="M127,77c0,0.3-0.2,0.5-0.5,0.5H6.5C6.2,77.5,6,77.3,6,77s0.2-0.5,0.5-0.5h120C126.8,76.5,127,76.7,127,77z"/>
<path class="st4" d="M127.5,77c0,0.6-0.4,1-1,1H6.5c-0.6,0-1-0.4-1-1l0,0c0-0.6,0.4-1,1-1h120C127.1,76,127.5,76.4,127.5,77
	L127.5,77z"/>
<path d="M11,72.5h-1v3h1V72.5z"/>
<path d="M11,78.5h-1v3h1V78.5z"/>
<path d="M19,72.5h-1v3h1V72.5z"/>
<path d="M19,78.5h-1v3h1V78.5z"/>
<path d="M27,72.5h-1v3h1V72.5z"/>
<path d="M27,78.5h-1v3h1V78.5z"/>
<path d="M35,72.5h-1v3h1V72.5z"/>
<path d="M35,78.5h-1v3h1V78.5z"/>
<path d="M43,72.5h-1v3h1V72.5z"/>
<path d="M43,78.5h-1v3h1V78.5z"/>
<path d="M51,72.5h-1v3h1V72.5z"/>
<path d="M51,78.5h-1v3h1V78.5z"/>
<path d="M59,72.5h-1v3h1V72.5z"/>
<path d="M59,78.5h-1v3h1V78.5z"/>
<path d="M67,72.5h-1v3h1V72.5z"/>
<path d="M67,78.5h-1v3h1V78.5z"/>
<path d="M75,72.5h-1v3h1V72.5z"/>
<path d="M75,78.5h-1v3h1V78.5z"/>
<path d="M83,72.5h-1v3h1V72.5z"/>
<path d="M83,78.5h-1v3h1V78.5z"/>
<path d="M91,72.5h-1v3h1V72.5z"/>
<path d="M91,78.5h-1v3h1V78.5z"/>
<path d="M99,72.5h-1v3h1V72.5z"/>
<path d="M99,78.5h-1v3h1V78.5z"/>
<path d="M107,72.5h-1v3h1V72.5z"/>
<path d="M107,78.5h-1v3h1V78.5z"/>
<path d="M115,72.5h-1v3h1V72.5z"/>
<path d="M115,78.5h-1v3h1V78.5z"/>
<path d="M123,72.5h-1v3h1V72.5z"/>
<path d="M123,78.5h-1v3h1V78.5z"/>
<g class="st0">
	<path class="st1" d="M260.5,49.5c0,0.3-0.2,0.5-0.5,0.5H140c-0.3,0-0.5-0.2-0.5-0.5s0.2-0.5,0.5-0.5h120
		C260.3,49,260.5,49.2,260.5,49.5z"/>
	<path class="st2" d="M261,49.5c0,0.6-0.4,1-1,1H140c-0.6,0-1-0.4-1-1l0,0c0-0.6,0.4-1,1-1h120C260.6,48.5,261,48.9,261,49.5
		L261,49.5z"/>
	<path class="st1" d="M144.5,46h-1v2h1V46z"/>
	<path class="st1" d="M144.5,51h-1v2h1V51z"/>
	<path class="st1" d="M256.5,46h-1v2h1V46z"/>
	<path class="st1" d="M256.5,51h-1v2h1V51z"/>
</g>
<path class="st3" d="M260,49c0,0.3-0.2,0.5-0.5,0.5h-120c-0.3,0-0.5-0.2-0.5-0.5s0.2-0.5,0.5-0.5h120C259.8,48.5,260,48.7,260,49z"
	/>
<path class="st4" d="M260.5,49c0,0.6-0.4,1-1,1h-120c-0.6,0-1-0.4-1-1l0,0c0-0.6,0.4-1,1-1h120C260.1,48,260.5,48.4,260.5,49
	L260.5,49z"/>
<path d="M144,45.5h-1v2h1V45.5z"/>
<path d="M144,50.5h-1v2h1V50.5z"/>
<path d="M256,45.5h-1v2h1V45.5z"/>
<path d="M256,50.5h-1v2h1V50.5z"/>
<g class="st0">
	<path class="st1" d="M200.5,60.5h-1V62h1V60.5z"/>
	<path class="st1" d="M200.5,65h-1v1.5h1V65z"/>
	<path class="st1" d="M144.5,58h-1v2h1V58z"/>
	<path class="st1" d="M144.5,67h-1v2h1V67z"/>
	<path class="st1" d="M256.5,58h-1v2h1V58z"/>
	<path class="st1" d="M256.5,67h-1v2h1V67z"/>
</g>
<g class="st0">
	<path class="st1" d="M260.5,63.5c0,0.3-0.2,0.5-0.5,0.5H140c-0.3,0-0.5-0.2-0.5-0.5s0.2-0.5,0.5-0.5h120
		C260.3,63,260.5,63.2,260.5,63.5z"/>
	<path class="st2" d="M261,63.5c0,0.6-0.4,1-1,1H140c-0.6,0-1-0.4-1-1l0,0c0-0.6,0.4-1,1-1h120C260.6,62.5,261,62.9,261,63.5
		L261,63.5z"/>
	<path class="st1" d="M144.5,60h-1v2h1V60z"/>
	<path class="st1" d="M144.5,65h-1v2h1V65z"/>
	<path class="st1" d="M256.5,60h-1v2h1V60z"/>
	<path class="st1" d="M256.5,65h-1v2h1V65z"/>
</g>
<path class="st3" d="M260,63c0,0.3-0.2,0.5-0.5,0.5h-120c-0.3,0-0.5-0.2-0.5-0.5s0.2-0.5,0.5-0.5h120C259.8,62.5,260,62.7,260,63z"
	/>
<path class="st4" d="M260.5,63c0,0.6-0.4,1-1,1h-120c-0.6,0-1-0.4-1-1l0,0c0-0.6,0.4-1,1-1h120C260.1,62,260.5,62.4,260.5,63
	L260.5,63z"/>
<path d="M144,59.5h-1v2h1V59.5z"/>
<path d="M144,64.5h-1v2h1V64.5z"/>
<path d="M256,59.5h-1v2h1V59.5z"/>
<path d="M256,64.5h-1v2h1V64.5z"/>
<path d="M200,60h-1v1.5h1V60z"/>
<path d="M200,64.5h-1V66h1V64.5z"/>
<path d="M144,57.5h-1v2h1V57.5z"/>
<path d="M144,66.5h-1v2h1V66.5z"/>
<path d="M256,57.5h-1v2h1V57.5z"/>
<path d="M256,66.5h-1v2h1V66.5z"/>
<g class="st0">
	<path class="st1" d="M260.5,77.5c0,0.3-0.2,0.5-0.5,0.5H140c-0.3,0-0.5-0.2-0.5-0.5s0.2-0.5,0.5-0.5h120
		C260.3,77,260.5,77.2,260.5,77.5z"/>
	<path class="st2" d="M261,77.5c0,0.6-0.4,1-1,1H140c-0.6,0-1-0.4-1-1l0,0c0-0.6,0.4-1,1-1h120C260.6,76.5,261,76.9,261,77.5
		L261,77.5z"/>
	<path class="st1" d="M144.5,73h-1v3h1V73z"/>
	<path class="st1" d="M144.5,79h-1v3h1V79z"/>
	<path class="st1" d="M152.5,73h-1v3h1V73z"/>
	<path class="st1" d="M152.5,79h-1v3h1V79z"/>
	<path class="st1" d="M160.5,73h-1v3h1V73z"/>
	<path class="st1" d="M160.5,79h-1v3h1V79z"/>
	<path class="st1" d="M168.5,73h-1v3h1V73z"/>
	<path class="st1" d="M168.5,79h-1v3h1V79z"/>
	<path class="st1" d="M176.5,73h-1v3h1V73z"/>
	<path class="st1" d="M176.5,79h-1v3h1V79z"/>
	<path class="st1" d="M184.5,73h-1v3h1V73z"/>
	<path class="st1" d="M184.5,79h-1v3h1V79z"/>
	<path class="st1" d="M192.5,73h-1v3h1V73z"/>
	<path class="st1" d="M192.5,79h-1v3h1V79z"/>
	<path class="st1" d="M200.5,73h-1v3h1V73z"/>
	<path class="st1" d="M200.5,79h-1v3h1V79z"/>
	<path class="st1" d="M208.5,73h-1v3h1V73z"/>
	<path class="st1" d="M208.5,79h-1v3h1V79z"/>
	<path class="st1" d="M216.5,73h-1v3h1V73z"/>
	<path class="st1" d="M216.5,79h-1v3h1V79z"/>
	<path class="st1" d="M224.5,73h-1v3h1V73z"/>
	<path class="st1" d="M224.5,79h-1v3h1V79z"/>
	<path class="st1" d="M232.5,73h-1v3h1V73z"/>
	<path class="st1" d="M232.5,79h-1v3h1V79z"/>
	<path class="st1" d="M240.5,73h-1v3h1V73z"/>
	<path class="st1" d="M240.5,79h-1v3h1V79z"/>
	<path class="st1" d="M248.5,73h-1v3h1V73z"/>
	<path class="st1" d="M248.5,79h-1v3h1V79z"/>
	<path class="st1" d="M256.5,73h-1v3h1V73z"/>
	<path class="st1" d="M256.5,79h-1v3h1V79z"/>
</g>
<path class="st3" d="M260,77c0,0.3-0.2,0.5-0.5,0.5h-120c-0.3,0-0.5-0.2-0.5-0.5s0.2-0.5,0.5-0.5h120C259.8,76.5,260,76.7,260,77z"
	/>
<path class="st4" d="M260.5,77c0,0.6-0.4,1-1,1h-120c-0.6,0-1-0.4-1-1l0,0c0-0.6,0.4-1,1-1h120C260.1,76,260.5,76.4,260.5,77
	L260.5,77z"/>
<path d="M144,72.5h-1v3h1V72.5z"/>
<path d="M144,78.5h-1v3h1V78.5z"/>
<path d="M152,72.5h-1v3h1V72.5z"/>
<path d="M152,78.5h-1v3h1V78.5z"/>
<path d="M160,72.5h-1v3h1V72.5z"/>
<path d="M160,78.5h-1v3h1V78.5z"/>
<path d="M168,72.5h-1v3h1V72.5z"/>
<path d="M168,78.5h-1v3h1V78.5z"/>
<path d="M176,72.5h-1v3h1V72.5z"/>
<path d="M176,78.5h-1v3h1V78.5z"/>
<path d="M184,72.5h-1v3h1V72.5z"/>
<path d="M184,78.5h-1v3h1V78.5z"/>
<path d="M192,72.5h-1v3h1V72.5z"/>
<path d="M192,78.5h-1v3h1V78.5z"/>
<path d="M200,72.5h-1v3h1V72.5z"/>
<path d="M200,78.5h-1v3h1V78.5z"/>
<path d="M208,72.5h-1v3h1V72.5z"/>
<path d="M208,78.5h-1v3h1V78.5z"/>
<path d="M216,72.5h-1v3h1V72.5z"/>
<path d="M216,78.5h-1v3h1V78.5z"/>
<path d="M224,72.5h-1v3h1V72.5z"/>
<path d="M224,78.5h-1v3h1V78.5z"/>
<path d="M232,72.5h-1v3h1V72.5z"/>
<path d="M232,78.5h-1v3h1V78.5z"/>
<path d="M240,72.5h-1v3h1V72.5z"/>
<path d="M240,78.5h-1v3h1V78.5z"/>
<path d="M248,72.5h-1v3h1V72.5z"/>
<path d="M248,78.5h-1v3h1V78.5z"/>
<path d="M256,72.5h-1v3h1V72.5z"/>
<path d="M256,78.5h-1v3h1V78.5z"/>
<g class="st0">
	<path class="st1" d="M393.5,49.5c0,0.3-0.2,0.5-0.5,0.5H273c-0.3,0-0.5-0.2-0.5-0.5s0.2-0.5,0.5-0.5h120
		C393.3,49,393.5,49.2,393.5,49.5z"/>
	<path class="st2" d="M394,49.5c0,0.6-0.4,1-1,1H273c-0.6,0-1-0.4-1-1l0,0c0-0.6,0.4-1,1-1h120C393.6,48.5,394,48.9,394,49.5
		L394,49.5z"/>
	<path class="st1" d="M277.5,46h-1v2h1V46z"/>
	<path class="st1" d="M277.5,51h-1v2h1V51z"/>
	<path class="st1" d="M389.5,46h-1v2h1V46z"/>
	<path class="st1" d="M389.5,51h-1v2h1V51z"/>
</g>
<path class="st5" d="M393,49c0,0.3-0.2,0.5-0.5,0.5h-120c-0.3,0-0.5-0.2-0.5-0.5s0.2-0.5,0.5-0.5h120C392.8,48.5,393,48.7,393,49z"
	/>
<path class="st4" d="M393.5,49c0,0.6-0.4,1-1,1h-120c-0.6,0-1-0.4-1-1l0,0c0-0.6,0.4-1,1-1h120C393.1,48,393.5,48.4,393.5,49
	L393.5,49z"/>
<path class="st6" d="M393.5,49c0,1.1-0.9,2-2,2h-118c-1.1,0-2-0.9-2-2l0,0c0-1.1,0.9-2,2-2h118C392.6,47,393.5,47.9,393.5,49
	L393.5,49z"/>
<path d="M277,45.5h-1v2h1V45.5z"/>
<path d="M277,50.5h-1v2h1V50.5z"/>
<path d="M389,45.5h-1v2h1V45.5z"/>
<path d="M389,50.5h-1v2h1V50.5z"/>
<g class="st0">
	<path class="st1" d="M333.5,60.5h-1V62h1V60.5z"/>
	<path class="st1" d="M333.5,65h-1v1.5h1V65z"/>
	<path class="st1" d="M277.5,58h-1v2h1V58z"/>
	<path class="st1" d="M277.5,67h-1v2h1V67z"/>
	<path class="st1" d="M389.5,58h-1v2h1V58z"/>
	<path class="st1" d="M389.5,67h-1v2h1V67z"/>
</g>
<g class="st0">
	<path class="st1" d="M393.5,63.5c0,0.3-0.2,0.5-0.5,0.5H273c-0.3,0-0.5-0.2-0.5-0.5s0.2-0.5,0.5-0.5h120
		C393.3,63,393.5,63.2,393.5,63.5z"/>
	<path class="st2" d="M394,63.5c0,0.6-0.4,1-1,1H273c-0.6,0-1-0.4-1-1l0,0c0-0.6,0.4-1,1-1h120C393.6,62.5,394,62.9,394,63.5
		L394,63.5z"/>
	<path class="st1" d="M277.5,60h-1v2h1V60z"/>
	<path class="st1" d="M277.5,65h-1v2h1V65z"/>
	<path class="st1" d="M389.5,60h-1v2h1V60z"/>
	<path class="st1" d="M389.5,65h-1v2h1V65z"/>
</g>
<path class="st5" d="M393,63c0,0.3-0.2,0.5-0.5,0.5h-120c-0.3,0-0.5-0.2-0.5-0.5s0.2-0.5,0.5-0.5h120C392.8,62.5,393,62.7,393,63z"
	/>
<path class="st4" d="M393.5,63c0,0.6-0.4,1-1,1h-120c-0.6,0-1-0.4-1-1l0,0c0-0.6,0.4-1,1-1h120C393.1,62,393.5,62.4,393.5,63
	L393.5,63z"/>
<path class="st6" d="M393.5,63c0,1.1-0.9,2-2,2h-118c-1.1,0-2-0.9-2-2l0,0c0-1.1,0.9-2,2-2h118C392.6,61,393.5,61.9,393.5,63
	L393.5,63z"/>
<path d="M277,59.5h-1v2h1V59.5z"/>
<path d="M277,64.5h-1v2h1V64.5z"/>
<path d="M389,59.5h-1v2h1V59.5z"/>
<path d="M389,64.5h-1v2h1V64.5z"/>
<path d="M333,60h-1v1.5h1V60z"/>
<path d="M333,64.5h-1V66h1V64.5z"/>
<path d="M277,57.5h-1v2h1V57.5z"/>
<path d="M277,66.5h-1v2h1V66.5z"/>
<path d="M389,57.5h-1v2h1V57.5z"/>
<path d="M389,66.5h-1v2h1V66.5z"/>
<g class="st0">
	<path class="st1" d="M393.5,77.5c0,0.3-0.2,0.5-0.5,0.5H273c-0.3,0-0.5-0.2-0.5-0.5s0.2-0.5,0.5-0.5h120
		C393.3,77,393.5,77.2,393.5,77.5z"/>
	<path class="st2" d="M394,77.5c0,0.6-0.4,1-1,1H273c-0.6,0-1-0.4-1-1l0,0c0-0.6,0.4-1,1-1h120C393.6,76.5,394,76.9,394,77.5
		L394,77.5z"/>
	<path class="st1" d="M277.5,73h-1v3h1V73z"/>
	<path class="st1" d="M277.5,79h-1v3h1V79z"/>
	<path class="st1" d="M285.5,73h-1v3h1V73z"/>
	<path class="st1" d="M285.5,79h-1v3h1V79z"/>
	<path class="st1" d="M293.5,73h-1v3h1V73z"/>
	<path class="st1" d="M293.5,79h-1v3h1V79z"/>
	<path class="st1" d="M301.5,73h-1v3h1V73z"/>
	<path class="st1" d="M301.5,79h-1v3h1V79z"/>
	<path class="st1" d="M309.5,73h-1v3h1V73z"/>
	<path class="st1" d="M309.5,79h-1v3h1V79z"/>
	<path class="st1" d="M317.5,73h-1v3h1V73z"/>
	<path class="st1" d="M317.5,79h-1v3h1V79z"/>
	<path class="st1" d="M325.5,73h-1v3h1V73z"/>
	<path class="st1" d="M325.5,79h-1v3h1V79z"/>
	<path class="st1" d="M333.5,73h-1v3h1V73z"/>
	<path class="st1" d="M333.5,79h-1v3h1V79z"/>
	<path class="st1" d="M341.5,73h-1v3h1V73z"/>
	<path class="st1" d="M341.5,79h-1v3h1V79z"/>
	<path class="st1" d="M349.5,73h-1v3h1V73z"/>
	<path class="st1" d="M349.5,79h-1v3h1V79z"/>
	<path class="st1" d="M357.5,73h-1v3h1V73z"/>
	<path class="st1" d="M357.5,79h-1v3h1V79z"/>
	<path class="st1" d="M365.5,73h-1v3h1V73z"/>
	<path class="st1" d="M365.5,79h-1v3h1V79z"/>
	<path class="st1" d="M373.5,73h-1v3h1V73z"/>
	<path class="st1" d="M373.5,79h-1v3h1V79z"/>
	<path class="st1" d="M381.5,73h-1v3h1V73z"/>
	<path class="st1" d="M381.5,79h-1v3h1V79z"/>
	<path class="st1" d="M389.5,73h-1v3h1V73z"/>
	<path class="st1" d="M389.5,79h-1v3h1V79z"/>
</g>
<path class="st5" d="M393,77c0,0.3-0.2,0.5-0.5,0.5h-120c-0.3,0-0.5-0.2-0.5-0.5s0.2-0.5,0.5-0.5h120C392.8,76.5,393,76.7,393,77z"
	/>
<path class="st4" d="M393.5,77c0,0.6-0.4,1-1,1h-120c-0.6,0-1-0.4-1-1l0,0c0-0.6,0.4-1,1-1h120C393.1,76,393.5,76.4,393.5,77
	L393.5,77z"/>
<path class="st6" d="M393.5,77c0,1.1-0.9,2-2,2h-118c-1.1,0-2-0.9-2-2l0,0c0-1.1,0.9-2,2-2h118C392.6,75,393.5,75.9,393.5,77
	L393.5,77z"/>
<path d="M277,72.5h-1v3h1V72.5z"/>
<path d="M277,78.5h-1v3h1V78.5z"/>
<path d="M285,72.5h-1v3h1V72.5z"/>
<path d="M285,78.5h-1v3h1V78.5z"/>
<path d="M293,72.5h-1v3h1V72.5z"/>
<path d="M293,78.5h-1v3h1V78.5z"/>
<path d="M301,72.5h-1v3h1V72.5z"/>
<path d="M301,78.5h-1v3h1V78.5z"/>
<path d="M309,72.5h-1v3h1V72.5z"/>
<path d="M309,78.5h-1v3h1V78.5z"/>
<path d="M317,72.5h-1v3h1V72.5z"/>
<path d="M317,78.5h-1v3h1V78.5z"/>
<path d="M325,72.5h-1v3h1V72.5z"/>
<path d="M325,78.5h-1v3h1V78.5z"/>
<path d="M333,72.5h-1v3h1V72.5z"/>
<path d="M333,78.5h-1v3h1V78.5z"/>
<path d="M341,72.5h-1v3h1V72.5z"/>
<path d="M341,78.5h-1v3h1V78.5z"/>
<path d="M349,72.5h-1v3h1V72.5z"/>
<path d="M349,78.5h-1v3h1V78.5z"/>
<path d="M357,72.5h-1v3h1V72.5z"/>
<path d="M357,78.5h-1v3h1V78.5z"/>
<path d="M365,72.5h-1v3h1V72.5z"/>
<path d="M365,78.5h-1v3h1V78.5z"/>
<path d="M373,72.5h-1v3h1V72.5z"/>
<path d="M373,78.5h-1v3h1V78.5z"/>
<path d="M381,72.5h-1v3h1V72.5z"/>
<path d="M381,78.5h-1v3h1V78.5z"/>
<path d="M389,72.5h-1v3h1V72.5z"/>
<path d="M389,78.5h-1v3h1V78.5z"/>
<g class="st0">
	<path class="st1" d="M127.5,7.5c0,0.3-0.2,0.5-0.5,0.5H7C6.7,8,6.5,7.8,6.5,7.5S6.7,7,7,7h120C127.3,7,127.5,7.2,127.5,7.5z"/>
	<path class="st2" d="M128,7.5c0,0.6-0.4,1-1,1H7c-0.6,0-1-0.4-1-1l0,0c0-0.6,0.4-1,1-1h120C127.6,6.5,128,6.9,128,7.5L128,7.5z"/>
	<path class="st1" d="M11.5,4h-1v2h1V4z"/>
	<path class="st1" d="M11.5,9h-1v2h1V9z"/>
	<path class="st1" d="M123.5,4h-1v2h1V4z"/>
	<path class="st1" d="M123.5,9h-1v2h1V9z"/>
</g>
<path class="st7" d="M127,7c0,0.3-0.2,0.5-0.5,0.5H6.5C6.2,7.5,6,7.3,6,7s0.2-0.5,0.5-0.5h120C126.8,6.5,127,6.7,127,7z"/>
<path class="st4" d="M127.5,7c0,0.6-0.4,1-1,1H6.5c-0.6,0-1-0.4-1-1l0,0c0-0.6,0.4-1,1-1h120C127.1,6,127.5,6.4,127.5,7L127.5,7z"/>
<path d="M11,3.5h-1v2h1V3.5z"/>
<path d="M11,8.5h-1v2h1V8.5z"/>
<path d="M123,3.5h-1v2h1V3.5z"/>
<path d="M123,8.5h-1v2h1V8.5z"/>
<g class="st0">
	<path class="st1" d="M67.5,18.5h-1V20h1V18.5z"/>
	<path class="st1" d="M67.5,23h-1v1.5h1V23z"/>
	<path class="st1" d="M11.5,16h-1v2h1V16z"/>
	<path class="st1" d="M11.5,25h-1v2h1V25z"/>
	<path class="st1" d="M123.5,16h-1v2h1V16z"/>
	<path class="st1" d="M123.5,25h-1v2h1V25z"/>
</g>
<g class="st0">
	<path class="st1" d="M127.5,21.5c0,0.3-0.2,0.5-0.5,0.5H7c-0.3,0-0.5-0.2-0.5-0.5S6.7,21,7,21h120C127.3,21,127.5,21.2,127.5,21.5z
		"/>
	<path class="st2" d="M128,21.5c0,0.6-0.4,1-1,1H7c-0.6,0-1-0.4-1-1l0,0c0-0.6,0.4-1,1-1h120C127.6,20.5,128,20.9,128,21.5L128,21.5
		z"/>
	<path class="st1" d="M11.5,18h-1v2h1V18z"/>
	<path class="st1" d="M11.5,23h-1v2h1V23z"/>
	<path class="st1" d="M123.5,18h-1v2h1V18z"/>
	<path class="st1" d="M123.5,23h-1v2h1V23z"/>
</g>
<path class="st7" d="M127,21c0,0.3-0.2,0.5-0.5,0.5H6.5C6.2,21.5,6,21.3,6,21s0.2-0.5,0.5-0.5h120C126.8,20.5,127,20.7,127,21z"/>
<path class="st4" d="M127.5,21c0,0.6-0.4,1-1,1H6.5c-0.6,0-1-0.4-1-1l0,0c0-0.6,0.4-1,1-1h120C127.1,20,127.5,20.4,127.5,21
	L127.5,21z"/>
<path d="M11,17.5h-1v2h1V17.5z"/>
<path d="M11,22.5h-1v2h1V22.5z"/>
<path d="M123,17.5h-1v2h1V17.5z"/>
<path d="M123,22.5h-1v2h1V22.5z"/>
<path d="M67,18h-1v1.5h1V18z"/>
<path d="M67,22.5h-1V24h1V22.5z"/>
<path d="M11,15.5h-1v2h1V15.5z"/>
<path d="M11,24.5h-1v2h1V24.5z"/>
<path d="M123,15.5h-1v2h1V15.5z"/>
<path d="M123,24.5h-1v2h1V24.5z"/>
<g class="st0">
	<path class="st1" d="M127.5,35.5c0,0.3-0.2,0.5-0.5,0.5H7c-0.3,0-0.5-0.2-0.5-0.5S6.7,35,7,35h120C127.3,35,127.5,35.2,127.5,35.5z
		"/>
	<path class="st2" d="M128,35.5c0,0.6-0.4,1-1,1H7c-0.6,0-1-0.4-1-1l0,0c0-0.6,0.4-1,1-1h120C127.6,34.5,128,34.9,128,35.5L128,35.5
		z"/>
	<path class="st1" d="M11.5,31h-1v3h1V31z"/>
	<path class="st1" d="M11.5,37h-1v3h1V37z"/>
	<path class="st1" d="M19.5,31h-1v3h1V31z"/>
	<path class="st1" d="M19.5,37h-1v3h1V37z"/>
	<path class="st1" d="M27.5,31h-1v3h1V31z"/>
	<path class="st1" d="M27.5,37h-1v3h1V37z"/>
	<path class="st1" d="M35.5,31h-1v3h1V31z"/>
	<path class="st1" d="M35.5,37h-1v3h1V37z"/>
	<path class="st1" d="M43.5,31h-1v3h1V31z"/>
	<path class="st1" d="M43.5,37h-1v3h1V37z"/>
	<path class="st1" d="M51.5,31h-1v3h1V31z"/>
	<path class="st1" d="M51.5,37h-1v3h1V37z"/>
	<path class="st1" d="M59.5,31h-1v3h1V31z"/>
	<path class="st1" d="M59.5,37h-1v3h1V37z"/>
	<path class="st1" d="M67.5,31h-1v3h1V31z"/>
	<path class="st1" d="M67.5,37h-1v3h1V37z"/>
	<path class="st1" d="M75.5,31h-1v3h1V31z"/>
	<path class="st1" d="M75.5,37h-1v3h1V37z"/>
	<path class="st1" d="M83.5,31h-1v3h1V31z"/>
	<path class="st1" d="M83.5,37h-1v3h1V37z"/>
	<path class="st1" d="M91.5,31h-1v3h1V31z"/>
	<path class="st1" d="M91.5,37h-1v3h1V37z"/>
	<path class="st1" d="M99.5,31h-1v3h1V31z"/>
	<path class="st1" d="M99.5,37h-1v3h1V37z"/>
	<path class="st1" d="M107.5,31h-1v3h1V31z"/>
	<path class="st1" d="M107.5,37h-1v3h1V37z"/>
	<path class="st1" d="M115.5,31h-1v3h1V31z"/>
	<path class="st1" d="M115.5,37h-1v3h1V37z"/>
	<path class="st1" d="M123.5,31h-1v3h1V31z"/>
	<path class="st1" d="M123.5,37h-1v3h1V37z"/>
</g>
<path class="st7" d="M127,35c0,0.3-0.2,0.5-0.5,0.5H6.5C6.2,35.5,6,35.3,6,35s0.2-0.5,0.5-0.5h120C126.8,34.5,127,34.7,127,35z"/>
<path class="st4" d="M127.5,35c0,0.6-0.4,1-1,1H6.5c-0.6,0-1-0.4-1-1l0,0c0-0.6,0.4-1,1-1h120C127.1,34,127.5,34.4,127.5,35
	L127.5,35z"/>
<path d="M11,30.5h-1v3h1V30.5z"/>
<path d="M11,36.5h-1v3h1V36.5z"/>
<path d="M19,30.5h-1v3h1V30.5z"/>
<path d="M19,36.5h-1v3h1V36.5z"/>
<path d="M27,30.5h-1v3h1V30.5z"/>
<path d="M27,36.5h-1v3h1V36.5z"/>
<path d="M35,30.5h-1v3h1V30.5z"/>
<path d="M35,36.5h-1v3h1V36.5z"/>
<path d="M43,30.5h-1v3h1V30.5z"/>
<path d="M43,36.5h-1v3h1V36.5z"/>
<path d="M51,30.5h-1v3h1V30.5z"/>
<path d="M51,36.5h-1v3h1V36.5z"/>
<path d="M59,30.5h-1v3h1V30.5z"/>
<path d="M59,36.5h-1v3h1V36.5z"/>
<path d="M67,30.5h-1v3h1V30.5z"/>
<path d="M67,36.5h-1v3h1V36.5z"/>
<path d="M75,30.5h-1v3h1V30.5z"/>
<path d="M75,36.5h-1v3h1V36.5z"/>
<path d="M83,30.5h-1v3h1V30.5z"/>
<path d="M83,36.5h-1v3h1V36.5z"/>
<path d="M91,30.5h-1v3h1V30.5z"/>
<path d="M91,36.5h-1v3h1V36.5z"/>
<path d="M99,30.5h-1v3h1V30.5z"/>
<path d="M99,36.5h-1v3h1V36.5z"/>
<path d="M107,30.5h-1v3h1V30.5z"/>
<path d="M107,36.5h-1v3h1V36.5z"/>
<path d="M115,30.5h-1v3h1V30.5z"/>
<path d="M115,36.5h-1v3h1V36.5z"/>
<path d="M123,30.5h-1v3h1V30.5z"/>
<path d="M123,36.5h-1v3h1V36.5z"/>
</svg>
