<?xml version="1.0" encoding="UTF-8" standalone="no"?>
<!-- Generator: Adobe Illustrator 22.0.0, SVG Export Plug-In . SVG Version: 6.00 Build 0)  -->

<svg
   version="1.1"
   id="svg6"
   inkscape:version="1.1 (c68e22c387, 2021-05-23)"
   sodipodi:docname="bmp00306.svg"
   x="0px"
   y="0px"
   width="32px"
   height="12px"
   viewBox="0 0 32 12"
   xml:space="preserve"
   xmlns:inkscape="http://www.inkscape.org/namespaces/inkscape"
   xmlns:sodipodi="http://sodipodi.sourceforge.net/DTD/sodipodi-0.dtd"
   xmlns="http://www.w3.org/2000/svg"
   xmlns:svg="http://www.w3.org/2000/svg"><defs
   id="defs8" />
<style
   type="text/css"
   id="style2">
	.st0{fill:#333333;}
</style>
<sodipodi:namedview
   bordercolor="#666666"
   borderopacity="1.0"
   id="namedview8"
   inkscape:current-layer="svg6"
   inkscape:cx="13.867675"
   inkscape:cy="6.0037807"
   inkscape:pagecheckerboard="0"
   inkscape:pageopacity="0.0"
   inkscape:pageshadow="2"
   inkscape:window-height="1017"
   inkscape:window-maximized="1"
   inkscape:window-width="1920"
   inkscape:window-x="-8"
   inkscape:window-y="-8"
   inkscape:zoom="33.0625"
   pagecolor="#ffffff"
   showgrid="false">
	</sodipodi:namedview>
<path
   id="path2"
   class="st0"
   d="M0.5,2.5c0-1.1,0.9-2,2-2h27c1.1,0,2,0.9,2,2v7c0,1.1-0.9,2-2,2h-27c-1.1,0-2-0.9-2-2V2.5z"
   style="fill:#292b2f;fill-opacity:1" />
<path
   id="path4"
   d="M2.5,1h27V0h-27V1z M31,2.5v7h1v-7H31z M29.5,11h-27v1h27V11z M1,9.5v-7H0v7H1z M2.5,11C1.7,11,1,10.3,1,9.5H0  C0,10.9,1.1,12,2.5,12V11z M31,9.5c0,0.8-0.7,1.5-1.5,1.5v1c1.4,0,2.5-1.1,2.5-2.5H31z M29.5,1C30.3,1,31,1.7,31,2.5h1  C32,1.1,30.9,0,29.5,0V1z M2.5,0C1.1,0,0,1.1,0,2.5h1C1,1.7,1.7,1,2.5,1V0z" />
</svg>
