<?xml version="1.0" encoding="utf-8"?>
<!-- Generator: Adobe Illustrator 22.0.0, SVG Export Plug-In . SVG Version: 6.00 Build 0)  -->
<svg version="1.1" baseProfile="basic" id="Layer_1"
	 xmlns="http://www.w3.org/2000/svg" xmlns:xlink="http://www.w3.org/1999/xlink" x="0px" y="0px" width="75px" height="144px"
	 viewBox="0 0 75 144" xml:space="preserve">
<style type="text/css">
	.st0{fill:#2E86FE;stroke:#123462;}
	.st1{fill:#113363;stroke:#FF9000;}
	.st2{fill:#EEEEEE;stroke:#2E86FE;}
	.st3{fill:#2E86FE;}
	.st4{fill:#ADFF6B;}
	.st5{fill:none;stroke:#FFFFFF;stroke-opacity:0.2784;}
	.st6{fill:none;stroke:#FFFFFF;stroke-opacity:0.502;}
</style>
<path class="st0" d="M58.1,116h-2v3l-2.6,0l3.6,4.3l3.6-4.3h-2.6V116z"/>
<path class="st1" d="M58.1,132h-2v3l-2.6,0l3.6,4.3l3.6-4.3h-2.6V132z"/>
<path class="st2" d="M1.5,0.5h72v15h-72V0.5z"/>
<path class="st2" d="M1.5,16.5h72v15h-72V16.5z"/>
<path class="st3" d="M1,33h73v14H1V33z"/>
<path class="st3" d="M1,49h73v14H1V49z"/>
<path class="st4" d="M1,81h73v14H1V81z"/>
<path class="st5" d="M2.5,98.5h70v11h-70V98.5z"/>
<path class="st6" d="M1.5,97.5h72v13h-72V97.5z"/>
<path class="st5" d="M74.5,96.5h-74v15h74V96.5z"/>
</svg>
