<?xml version="1.0" encoding="utf-8"?>
<!-- Generator: Adobe Illustrator 22.0.0, SVG Export Plug-In . SVG Version: 6.00 Build 0)  -->
<svg version="1.1"
	 id="svg6" inkscape:version="1.1 (c68e22c387, 2021-05-23)" sodipodi:docname="bmp00175.svg" xmlns:inkscape="http://www.inkscape.org/namespaces/inkscape" xmlns:sodipodi="http://sodipodi.sourceforge.net/DTD/sodipodi-0.dtd" xmlns:svg="http://www.w3.org/2000/svg"
	 xmlns="http://www.w3.org/2000/svg" xmlns:xlink="http://www.w3.org/1999/xlink" x="0px" y="0px" width="30px" height="13px"
	 viewBox="0 0 30 13" style="enable-background:new 0 0 30 13;" xml:space="preserve">
<style type="text/css">
	.st0{fill:#292B2F;}
</style>
<sodipodi:namedview  bordercolor="#666666" borderopacity="1.0" id="namedview8" inkscape:current-layer="svg6" inkscape:cx="13.000945" inkscape:cy="6.5075614" inkscape:pagecheckerboard="0" inkscape:pageopacity="0.0" inkscape:pageshadow="2" inkscape:window-height="1017" inkscape:window-maximized="1" inkscape:window-width="1920" inkscape:window-x="-8" inkscape:window-y="-8" inkscape:zoom="35.266667" pagecolor="#ffffff" showgrid="false">
	</sodipodi:namedview>
<path id="path2" class="st0" d="M0.7,2.5c0-1.1,0.9-2,2-2h24.7c1.1,0,2,0.9,2,2v7.9c0,1.1-0.9,2-2,2H2.7c-1.1,0-2-0.9-2-2V2.5z"/>
<path id="path4" d="M2.7,1h24.7V0H2.7V1z M28.8,2.5v7.9h1V2.5H28.8z M27.3,12H2.7v1h24.7V12z M1.2,10.5V2.5h-1v7.9H1.2z M2.7,12
	c-0.8,0-1.5-0.7-1.5-1.5h-1c0,1.4,1.1,2.5,2.5,2.5V12z M28.8,10.5c0,0.8-0.7,1.5-1.5,1.5v1c1.4,0,2.5-1.1,2.5-2.5H28.8z M27.3,1
	c0.8,0,1.5,0.7,1.5,1.5h1c0-1.4-1.1-2.5-2.5-2.5V1z M2.7,0C1.3,0,0.2,1.2,0.2,2.5h1C1.2,1.7,1.8,1,2.7,1V0z"/>
</svg>
