<?xml version="1.0" encoding="utf-8"?>
<!-- Generator: Adobe Illustrator 22.0.0, SVG Export Plug-In . SVG Version: 6.00 Build 0)  -->
<svg version="1.1" baseProfile="basic"
	 id="svg15" inkscape:version="1.1 (c68e22c387, 2021-05-23)" sodipodi:docname="bmp00167.svg" xmlns:inkscape="http://www.inkscape.org/namespaces/inkscape" xmlns:sodipodi="http://sodipodi.sourceforge.net/DTD/sodipodi-0.dtd" xmlns:svg="http://www.w3.org/2000/svg"
	 xmlns="http://www.w3.org/2000/svg" xmlns:xlink="http://www.w3.org/1999/xlink" x="0px" y="0px" width="133px" height="18px"
	 viewBox="0 0 133 18" xml:space="preserve">
<style type="text/css">
	.st0{fill:#595959;}
	.st1{fill:#E3E3E3;}
</style>
<sodipodi:namedview  bordercolor="#666666" borderopacity="1.0" id="namedview17" inkscape:current-layer="svg15" inkscape:cx="66.437146" inkscape:cy="8.9881853" inkscape:pagecheckerboard="0" inkscape:pageopacity="0.0" inkscape:pageshadow="2" inkscape:window-height="1017" inkscape:window-maximized="1" inkscape:window-width="1920" inkscape:window-x="-8" inkscape:window-y="-8" inkscape:zoom="7.9548872" pagecolor="#ffffff" showgrid="false">
	</sodipodi:namedview>
<path id="path2" class="st0" d="M2,3.5c0-1.1,0.9-2,2-2h124c1.1,0,2,0.9,2,2v11c0,1.1-0.9,2-2,2H4c-1.1,0-2-0.9-2-2V3.5z"/>
<path id="path4" d="M4,2h124V1H4V2z M129.5,3.5v11h1v-11H129.5z M128,16H4v1h124V16z M2.5,14.5v-11h-1v11H2.5z M4,16
	c-0.8,0-1.5-0.7-1.5-1.5h-1C1.5,15.9,2.6,17,4,17V16z M129.5,14.5c0,0.8-0.7,1.5-1.5,1.5v1c1.4,0,2.5-1.1,2.5-2.5H129.5z M128,2
	c0.8,0,1.5,0.7,1.5,1.5h1c0-1.4-1.1-2.5-2.5-2.5V2z M4,1C2.6,1,1.5,2.1,1.5,3.5h1C2.5,2.7,3.2,2,4,2V1z"/>
<path id="path6" class="st1" d="M123.5,11L121,8h5L123.5,11z"/>
</svg>
