<?xml version="1.0" encoding="utf-8"?>
<!-- Generator: Adobe Illustrator 22.0.0, SVG Export Plug-In . SVG Version: 6.00 Build 0)  -->
<svg version="1.1" baseProfile="basic"
	 id="svg18" inkscape:version="1.1 (c68e22c387, 2021-05-23)" sodipodi:docname="bmp00173.svg" xmlns:inkscape="http://www.inkscape.org/namespaces/inkscape" xmlns:sodipodi="http://sodipodi.sourceforge.net/DTD/sodipodi-0.dtd" xmlns:svg="http://www.w3.org/2000/svg"
	 xmlns="http://www.w3.org/2000/svg" xmlns:xlink="http://www.w3.org/1999/xlink" x="0px" y="0px" width="31px" height="24px"
	 viewBox="0 0 31 24" xml:space="preserve">
<style type="text/css">
	.st0{fill:#595959;}
	.st1{fill:#B4B4B4;}
	.st2{fill:#FF9300;}
	.st3{fill:none;stroke:#FF9300;}
</style>
<sodipodi:namedview  bordercolor="#666666" borderopacity="1.0" id="namedview20" inkscape:current-layer="svg18" inkscape:cx="15.48535" inkscape:cy="11.998582" inkscape:pagecheckerboard="0" inkscape:pageopacity="0.0" inkscape:pageshadow="2" inkscape:window-height="1017" inkscape:window-maximized="1" inkscape:window-width="1920" inkscape:window-x="-8" inkscape:window-y="-8" inkscape:zoom="34.129032" pagecolor="#ffffff" showgrid="false">
	</sodipodi:namedview>
<path id="path2" class="st0" d="M0.5,2.5c0-1.1,0.9-2,2-2h26c1.1,0,2,0.9,2,2v7c0,1.1-0.9,2-2,2h-26c-1.1,0-2-0.9-2-2V2.5z"/>
<path id="path4" class="st1" d="M11.6,4.2H10V9H8.6V4.2H7V3.2h4.6V4.2z M15.1,4.9V9h-0.8c-0.2,0-0.3-0.1-0.3-0.2l-0.1-0.2
	c-0.1,0.1-0.2,0.1-0.2,0.2c-0.1,0.1-0.2,0.1-0.3,0.2C13.3,9,13.2,9,13.1,9c-0.1,0-0.2,0-0.4,0c-0.2,0-0.4,0-0.6-0.1
	c-0.2-0.1-0.3-0.2-0.4-0.3c-0.1-0.1-0.2-0.3-0.3-0.5c-0.1-0.2-0.1-0.4-0.1-0.6V4.9h1.2v2.6c0,0.2,0,0.4,0.1,0.5
	c0.1,0.1,0.2,0.2,0.4,0.2c0.1,0,0.3,0,0.4-0.1c0.1-0.1,0.2-0.1,0.3-0.2v-3H15.1z M17,5.3c0.1-0.1,0.2-0.1,0.2-0.2
	C17.3,5,17.4,5,17.5,4.9c0.1,0,0.2-0.1,0.3-0.1c0.1,0,0.2,0,0.4,0c0.2,0,0.4,0,0.6,0.1c0.2,0.1,0.3,0.2,0.4,0.3
	c0.1,0.1,0.2,0.3,0.3,0.5c0.1,0.2,0.1,0.4,0.1,0.6V9h-1.2V6.4c0-0.2,0-0.4-0.1-0.5c-0.1-0.1-0.2-0.2-0.4-0.2c-0.1,0-0.3,0-0.4,0.1
	C17.3,5.9,17.2,5.9,17,6v3h-1.2V4.9h0.8c0.2,0,0.3,0.1,0.3,0.2L17,5.3z M22.8,6.4c0-0.1,0-0.2,0-0.3c0-0.1-0.1-0.2-0.1-0.2
	c-0.1-0.1-0.1-0.1-0.2-0.2c-0.1,0-0.2-0.1-0.3-0.1c-0.2,0-0.4,0.1-0.6,0.2c-0.1,0.1-0.2,0.3-0.3,0.6H22.8z M21.3,7.1
	c0,0.3,0.1,0.6,0.3,0.8c0.2,0.2,0.4,0.2,0.7,0.2c0.1,0,0.3,0,0.4-0.1C22.7,8,22.8,8,22.9,8c0.1,0,0.2-0.1,0.2-0.1
	c0.1,0,0.1-0.1,0.2-0.1c0.1,0,0.2,0,0.2,0.1l0.4,0.4c-0.1,0.1-0.3,0.3-0.4,0.4c-0.1,0.1-0.3,0.2-0.5,0.2C22.9,9,22.7,9,22.6,9
	c-0.2,0-0.3,0-0.4,0c-0.3,0-0.6,0-0.8-0.1c-0.3-0.1-0.5-0.2-0.7-0.4c-0.2-0.2-0.3-0.4-0.5-0.7c-0.1-0.3-0.2-0.6-0.2-1
	c0-0.3,0-0.5,0.1-0.8c0.1-0.2,0.2-0.5,0.4-0.7C20.8,5.2,21,5.1,21.2,5c0.3-0.1,0.5-0.2,0.9-0.2c0.3,0,0.5,0,0.8,0.1
	c0.2,0.1,0.4,0.2,0.6,0.4c0.2,0.2,0.3,0.4,0.4,0.6c0.1,0.2,0.1,0.5,0.1,0.8c0,0.1,0,0.2,0,0.2s0,0.1,0,0.1c0,0-0.1,0.1-0.1,0.1
	c0,0-0.1,0-0.1,0H21.3z"/>
<path id="path6" d="M2.5,1h26V0h-26V1z M30,2.5v7h1v-7H30z M28.5,11h-26v1h26V11z M1,9.5v-7H0v7H1z M2.5,11C1.7,11,1,10.3,1,9.5H0
	C0,10.9,1.1,12,2.5,12V11z M30,9.5c0,0.8-0.7,1.5-1.5,1.5v1c1.4,0,2.5-1.1,2.5-2.5H30z M28.5,1C29.3,1,30,1.7,30,2.5h1
	C31,1.1,29.9,0,28.5,0V1z M2.5,0C1.1,0,0,1.1,0,2.5h1C1,1.7,1.7,1,2.5,1V0z"/>
<path id="path8" class="st2" d="M0.5,14.5c0-1.1,0.9-2,2-2h26c1.1,0,2,0.9,2,2v7c0,1.1-0.9,2-2,2h-26c-1.1,0-2-0.9-2-2V14.5z"/>
<path id="rect10" class="st2" d="M3.5,14.5h24c0.6,0,1,0.4,1,1v5c0,0.6-0.4,1-1,1h-24c-0.6,0-1-0.4-1-1v-5
	C2.5,14.9,2.9,14.5,3.5,14.5z"/>
<path id="rect12" class="st3" d="M3.5,14.5h24c0.6,0,1,0.4,1,1v5c0,0.6-0.4,1-1,1h-24c-0.6,0-1-0.4-1-1v-5
	C2.5,14.9,2.9,14.5,3.5,14.5z"/>
<path id="path14" d="M11.6,16.2H10V21H8.6v-4.8H7v-1.1h4.6V16.2z M15.1,16.9V21h-0.8c-0.2,0-0.3-0.1-0.3-0.2l-0.1-0.2
	c-0.1,0.1-0.2,0.1-0.2,0.2c-0.1,0.1-0.2,0.1-0.3,0.2c-0.1,0-0.2,0.1-0.3,0.1c-0.1,0-0.2,0-0.4,0c-0.2,0-0.4,0-0.6-0.1
	c-0.2-0.1-0.3-0.2-0.4-0.3c-0.1-0.1-0.2-0.3-0.3-0.5c-0.1-0.2-0.1-0.4-0.1-0.6v-2.6h1.2v2.6c0,0.2,0,0.4,0.1,0.5
	c0.1,0.1,0.2,0.2,0.4,0.2c0.1,0,0.3,0,0.4-0.1c0.1-0.1,0.2-0.1,0.3-0.2v-3H15.1z M17,17.3c0.1-0.1,0.2-0.1,0.2-0.2
	c0.1-0.1,0.2-0.1,0.3-0.2c0.1,0,0.2-0.1,0.3-0.1c0.1,0,0.2,0,0.4,0c0.2,0,0.4,0,0.6,0.1c0.2,0.1,0.3,0.2,0.4,0.3
	c0.1,0.1,0.2,0.3,0.3,0.5c0.1,0.2,0.1,0.4,0.1,0.6V21h-1.2v-2.6c0-0.2,0-0.4-0.1-0.5c-0.1-0.1-0.2-0.2-0.4-0.2c-0.1,0-0.3,0-0.4,0.1
	c-0.1,0.1-0.2,0.1-0.3,0.2v3h-1.2v-4.1h0.8c0.2,0,0.3,0.1,0.3,0.2L17,17.3z M22.8,18.4c0-0.1,0-0.2,0-0.3c0-0.1-0.1-0.2-0.1-0.2
	c-0.1-0.1-0.1-0.1-0.2-0.2c-0.1,0-0.2-0.1-0.3-0.1c-0.2,0-0.4,0.1-0.6,0.2c-0.1,0.1-0.2,0.3-0.3,0.6H22.8z M21.3,19.1
	c0,0.3,0.1,0.6,0.3,0.8c0.2,0.2,0.4,0.2,0.7,0.2c0.1,0,0.3,0,0.4-0.1s0.2-0.1,0.3-0.1c0.1,0,0.2-0.1,0.2-0.1c0.1,0,0.1-0.1,0.2-0.1
	c0.1,0,0.2,0,0.2,0.1l0.4,0.4c-0.1,0.1-0.3,0.3-0.4,0.4c-0.1,0.1-0.3,0.2-0.5,0.2C22.9,21,22.7,21,22.6,21c-0.2,0-0.3,0-0.4,0
	c-0.3,0-0.6,0-0.8-0.1c-0.3-0.1-0.5-0.2-0.7-0.4c-0.2-0.2-0.3-0.4-0.5-0.7c-0.1-0.3-0.2-0.6-0.2-1c0-0.3,0-0.5,0.1-0.8
	c0.1-0.2,0.2-0.5,0.4-0.7c0.2-0.2,0.4-0.3,0.6-0.4c0.3-0.1,0.5-0.2,0.9-0.2c0.3,0,0.5,0,0.8,0.1c0.2,0.1,0.4,0.2,0.6,0.4
	c0.2,0.2,0.3,0.4,0.4,0.6c0.1,0.2,0.1,0.5,0.1,0.8c0,0.1,0,0.2,0,0.2s0,0.1,0,0.1c0,0-0.1,0.1-0.1,0.1c0,0-0.1,0-0.1,0H21.3z"/>
<path id="path16" d="M2.5,13h26v-1h-26V13z M30,14.5v7h1v-7H30z M28.5,23h-26v1h26V23z M1,21.5v-7H0v7H1z M2.5,23
	C1.7,23,1,22.3,1,21.5H0C0,22.9,1.1,24,2.5,24V23z M30,21.5c0,0.8-0.7,1.5-1.5,1.5v1c1.4,0,2.5-1.1,2.5-2.5H30z M28.5,13
	c0.8,0,1.5,0.7,1.5,1.5h1c0-1.4-1.1-2.5-2.5-2.5V13z M2.5,12C1.1,12,0,13.1,0,14.5h1C1,13.7,1.7,13,2.5,13V12z"/>
</svg>
