<?xml version="1.0" encoding="utf-8"?>
<!-- Generator: Adobe Illustrator 22.0.0, SVG Export Plug-In . SVG Version: 6.00 Build 0)  -->
<svg version="1.1" id="Layer_1" xmlns="http://www.w3.org/2000/svg" xmlns:xlink="http://www.w3.org/1999/xlink" x="0px" y="0px"
	 width="37px" height="12px" viewBox="0 0 37 12" style="enable-background:new 0 0 37 12;" xml:space="preserve">
<style type="text/css">
	.st0{fill:#595959;}
	.st1{fill:#B4B4B4;}
</style>
<path class="st0" d="M0.5,2.5c0-1.105,0.895-2,2-2h32c1.105,0,2,0.895,2,2v7c0,1.105-0.895,2-2,2h-32c-1.105,0-2-0.895-2-2V2.5z"/>
<path class="st1" d="M14.019,4.356c-0.04,0.064-0.083,0.112-0.128,0.144c-0.043,0.032-0.099,0.048-0.168,0.048
	c-0.061,0-0.128-0.019-0.2-0.056c-0.069-0.04-0.149-0.084-0.24-0.132c-0.088-0.048-0.189-0.091-0.304-0.128
	c-0.115-0.04-0.245-0.06-0.392-0.06c-0.253,0-0.443,0.055-0.568,0.164c-0.123,0.107-0.184,0.252-0.184,0.436
	c0,0.117,0.037,0.215,0.112,0.292c0.075,0.077,0.172,0.144,0.292,0.2C12.361,5.32,12.5,5.372,12.655,5.42
	c0.157,0.045,0.317,0.097,0.48,0.156c0.163,0.056,0.321,0.123,0.476,0.2c0.157,0.077,0.296,0.176,0.416,0.296
	c0.123,0.12,0.221,0.267,0.296,0.44c0.075,0.171,0.112,0.377,0.112,0.62c0,0.269-0.047,0.521-0.14,0.756s-0.229,0.44-0.408,0.616
	c-0.176,0.173-0.395,0.311-0.656,0.412c-0.259,0.099-0.553,0.148-0.884,0.148c-0.181,0-0.367-0.019-0.556-0.056
	c-0.187-0.037-0.368-0.089-0.544-0.156c-0.176-0.069-0.341-0.151-0.496-0.244c-0.155-0.093-0.289-0.197-0.404-0.312l0.4-0.632
	c0.032-0.045,0.073-0.083,0.124-0.112c0.053-0.032,0.111-0.048,0.172-0.048c0.08,0,0.16,0.025,0.24,0.076
	c0.083,0.051,0.175,0.107,0.276,0.168c0.104,0.061,0.223,0.117,0.356,0.168c0.133,0.051,0.291,0.076,0.472,0.076
	c0.245,0,0.436-0.053,0.572-0.16c0.136-0.109,0.204-0.281,0.204-0.516c0-0.136-0.037-0.247-0.112-0.332
	c-0.075-0.085-0.173-0.156-0.296-0.212c-0.12-0.056-0.257-0.105-0.412-0.148c-0.155-0.043-0.313-0.089-0.476-0.14
	c-0.163-0.053-0.321-0.117-0.476-0.192c-0.155-0.077-0.293-0.177-0.416-0.3c-0.12-0.125-0.217-0.28-0.292-0.464
	c-0.075-0.187-0.112-0.416-0.112-0.688c0-0.219,0.044-0.432,0.132-0.64c0.088-0.208,0.217-0.393,0.388-0.556
	c0.171-0.163,0.38-0.292,0.628-0.388c0.248-0.099,0.532-0.148,0.852-0.148c0.179,0,0.352,0.015,0.52,0.044
	c0.171,0.027,0.332,0.068,0.484,0.124c0.152,0.053,0.293,0.119,0.424,0.196c0.133,0.075,0.252,0.16,0.356,0.256L14.019,4.356z
	 M17.05,7.312c-0.248,0.011-0.452,0.032-0.612,0.064s-0.287,0.072-0.38,0.12c-0.093,0.048-0.159,0.103-0.196,0.164
	c-0.035,0.061-0.052,0.128-0.052,0.2c0,0.141,0.039,0.241,0.116,0.3c0.077,0.056,0.191,0.084,0.34,0.084
	c0.16,0,0.3-0.028,0.42-0.084c0.12-0.056,0.241-0.147,0.364-0.272V7.312z M14.818,5.428c0.251-0.221,0.528-0.385,0.832-0.492
	c0.307-0.109,0.635-0.164,0.984-0.164c0.251,0,0.476,0.041,0.676,0.124c0.203,0.08,0.373,0.193,0.512,0.34
	c0.141,0.144,0.249,0.316,0.324,0.516c0.075,0.2,0.112,0.419,0.112,0.656V9H17.69c-0.117,0-0.207-0.016-0.268-0.048
	c-0.059-0.032-0.108-0.099-0.148-0.2l-0.088-0.228c-0.104,0.088-0.204,0.165-0.3,0.232c-0.096,0.067-0.196,0.124-0.3,0.172
	c-0.101,0.045-0.211,0.079-0.328,0.1c-0.115,0.024-0.243,0.036-0.384,0.036c-0.189,0-0.361-0.024-0.516-0.072
	c-0.155-0.051-0.287-0.124-0.396-0.22c-0.107-0.096-0.189-0.215-0.248-0.356c-0.059-0.144-0.088-0.309-0.088-0.496
	c0-0.149,0.037-0.3,0.112-0.452c0.075-0.155,0.204-0.295,0.388-0.42c0.184-0.128,0.432-0.235,0.744-0.32
	c0.312-0.085,0.705-0.133,1.18-0.144V6.408c0-0.243-0.051-0.417-0.152-0.524c-0.099-0.109-0.24-0.164-0.424-0.164
	c-0.147,0-0.267,0.016-0.36,0.048C16.02,5.8,15.936,5.836,15.862,5.876c-0.072,0.04-0.143,0.076-0.212,0.108
	c-0.069,0.032-0.152,0.048-0.248,0.048c-0.085,0-0.157-0.021-0.216-0.064c-0.059-0.043-0.107-0.093-0.144-0.152L14.818,5.428z
	 M22.729,4.852L21.121,9h-1.128l-1.608-4.148h1.032c0.088,0,0.161,0.021,0.22,0.064c0.061,0.04,0.103,0.091,0.124,0.152l0.576,1.86
	c0.051,0.152,0.095,0.3,0.132,0.444c0.04,0.144,0.075,0.288,0.104,0.432c0.059-0.288,0.14-0.58,0.244-0.876l0.6-1.86
	c0.021-0.061,0.061-0.112,0.12-0.152c0.059-0.043,0.128-0.064,0.208-0.064H22.729z M25.453,6.428c0-0.099-0.013-0.195-0.04-0.288
	c-0.024-0.093-0.065-0.176-0.124-0.248c-0.056-0.075-0.131-0.135-0.224-0.18s-0.207-0.068-0.34-0.068
	c-0.235,0-0.419,0.068-0.552,0.204c-0.133,0.133-0.221,0.327-0.264,0.58H25.453z M23.893,7.148c0.04,0.347,0.145,0.599,0.316,0.756
	c0.171,0.155,0.391,0.232,0.66,0.232c0.144,0,0.268-0.017,0.372-0.052c0.104-0.035,0.196-0.073,0.276-0.116
	c0.083-0.043,0.157-0.081,0.224-0.116C25.81,7.817,25.882,7.8,25.957,7.8c0.099,0,0.173,0.036,0.224,0.108l0.36,0.444
	c-0.128,0.147-0.267,0.267-0.416,0.36c-0.147,0.091-0.299,0.163-0.456,0.216c-0.155,0.051-0.311,0.085-0.468,0.104
	c-0.155,0.021-0.303,0.032-0.444,0.032c-0.291,0-0.564-0.047-0.82-0.14c-0.253-0.096-0.476-0.237-0.668-0.424
	c-0.189-0.187-0.34-0.419-0.452-0.696c-0.109-0.277-0.164-0.6-0.164-0.968c0-0.277,0.047-0.54,0.14-0.788
	c0.096-0.248,0.232-0.465,0.408-0.652c0.179-0.187,0.393-0.335,0.644-0.444c0.253-0.109,0.539-0.164,0.856-0.164
	c0.275,0,0.525,0.043,0.752,0.128c0.229,0.085,0.425,0.209,0.588,0.372c0.165,0.163,0.293,0.363,0.384,0.6
	c0.093,0.235,0.14,0.501,0.14,0.8c0,0.093-0.004,0.169-0.012,0.228c-0.008,0.059-0.023,0.105-0.044,0.14
	c-0.021,0.035-0.051,0.059-0.088,0.072c-0.035,0.013-0.08,0.02-0.136,0.02H23.893z"/>
<path d="M2.5,1h32V0h-32V1z M36,2.5v7h1v-7H36z M34.5,11h-32v1h32V11z M1,9.5v-7H0v7H1z M2.5,11C1.672,11,1,10.328,1,9.5H0
	C0,10.881,1.119,12,2.5,12V11z M36,9.5c0,0.828-0.672,1.5-1.5,1.5v1c1.381,0,2.5-1.119,2.5-2.5H36z M34.5,1
	C35.328,1,36,1.672,36,2.5h1C37,1.119,35.881,0,34.5,0V1z M2.5,0C1.119,0,0,1.119,0,2.5h1C1,1.672,1.672,1,2.5,1V0z"/>
</svg>
