<?xml version="1.0" encoding="utf-8"?>
<!-- Generator: Adobe Illustrator 22.0.0, SVG Export Plug-In . SVG Version: 6.00 Build 0)  -->
<svg version="1.1" baseProfile="basic"
	 id="svg14" inkscape:version="1.1 (c68e22c387, 2021-05-23)" sodipodi:docname="bmp00132.svg" xmlns:inkscape="http://www.inkscape.org/namespaces/inkscape" xmlns:sodipodi="http://sodipodi.sourceforge.net/DTD/sodipodi-0.dtd" xmlns:svg="http://www.w3.org/2000/svg"
	 xmlns="http://www.w3.org/2000/svg" xmlns:xlink="http://www.w3.org/1999/xlink" x="0px" y="0px" width="22px" height="30px"
	 viewBox="0 0 22 30" xml:space="preserve">
<style type="text/css">
	.st0{fill:#595959;}
	.st1{fill:none;stroke:#000000;}
	.st2{fill:#B4B4B4;}
	.st3{fill:#FF9300;}
</style>
<sodipodi:namedview  bordercolor="#666666" borderopacity="1.0" id="namedview16" inkscape:current-layer="svg14" inkscape:cx="11.015625" inkscape:cy="14.981971" inkscape:pagecheckerboard="0" inkscape:pageopacity="0.0" inkscape:pageshadow="2" inkscape:window-height="1017" inkscape:window-maximized="1" inkscape:window-width="1920" inkscape:window-x="-8" inkscape:window-y="-8" inkscape:zoom="27.733333" pagecolor="#ffffff" showgrid="false">
	</sodipodi:namedview>
<path id="rect2" class="st0" d="M3.5,3h13c0.6,0,1,0.4,1,1v6c0,0.6-0.4,1-1,1h-13c-0.6,0-1-0.4-1-1V4C2.5,3.4,2.9,3,3.5,3z"/>
<path id="rect4" class="st1" d="M3.5,3h13c0.6,0,1,0.4,1,1v6c0,0.6-0.4,1-1,1h-13c-0.6,0-1-0.4-1-1V4C2.5,3.4,2.9,3,3.5,3z"/>
<path id="path6" class="st2" d="M11.4,5.4c0,0.1-0.1,0.1-0.1,0.1c0,0-0.1,0-0.1,0c-0.1,0-0.1,0-0.2,0c-0.1,0-0.1-0.1-0.2-0.1
	c-0.1,0-0.2-0.1-0.3-0.1c-0.1,0-0.2-0.1-0.3-0.1c-0.2,0-0.4,0-0.5,0.1C9.5,5.5,9.5,5.6,9.5,5.8c0,0.1,0,0.2,0.1,0.3
	c0.1,0.1,0.2,0.1,0.3,0.2c0.1,0,0.2,0.1,0.4,0.1c0.1,0,0.3,0.1,0.4,0.1c0.1,0,0.3,0.1,0.4,0.2c0.1,0.1,0.3,0.2,0.4,0.3
	c0.1,0.1,0.2,0.2,0.3,0.4c0.1,0.1,0.1,0.3,0.1,0.5c0,0.2,0,0.5-0.1,0.7c-0.1,0.2-0.2,0.4-0.4,0.5c-0.2,0.2-0.3,0.3-0.6,0.4
	c-0.2,0.1-0.5,0.1-0.8,0.1c-0.2,0-0.3,0-0.5,0c-0.2,0-0.3-0.1-0.5-0.1C8.8,9.3,8.6,9.2,8.5,9.2C8.4,9.1,8.3,9,8.2,8.9l0.3-0.6
	c0,0,0.1-0.1,0.1-0.1c0,0,0.1,0,0.2,0c0.1,0,0.1,0,0.2,0.1c0.1,0,0.2,0.1,0.2,0.1c0.1,0.1,0.2,0.1,0.3,0.1c0.1,0,0.3,0.1,0.4,0.1
	c0.2,0,0.4,0,0.5-0.1c0.1-0.1,0.2-0.2,0.2-0.5c0-0.1,0-0.2-0.1-0.3s-0.2-0.1-0.3-0.2c-0.1,0-0.2-0.1-0.4-0.1c-0.1,0-0.3-0.1-0.4-0.1
	c-0.1,0-0.3-0.1-0.4-0.2C8.9,7.1,8.8,7,8.7,6.9C8.6,6.8,8.5,6.6,8.5,6.5C8.4,6.3,8.4,6.1,8.4,5.9c0-0.2,0-0.4,0.1-0.6
	C8.5,5.1,8.7,5,8.8,4.8C9,4.7,9.1,4.6,9.4,4.5c0.2-0.1,0.5-0.1,0.7-0.1c0.2,0,0.3,0,0.5,0c0.1,0,0.3,0.1,0.4,0.1
	c0.1,0,0.3,0.1,0.4,0.2c0.1,0.1,0.2,0.1,0.3,0.2L11.4,5.4z"/>
<path id="rect8" class="st3" d="M3.5,18h13c0.6,0,1,0.4,1,1v6c0,0.6-0.4,1-1,1h-13c-0.6,0-1-0.4-1-1v-6C2.5,18.4,2.9,18,3.5,18z"/>
<path id="rect10" class="st1" d="M3.5,18h13c0.6,0,1,0.4,1,1v6c0,0.6-0.4,1-1,1h-13c-0.6,0-1-0.4-1-1v-6C2.5,18.4,2.9,18,3.5,18z"/>
<path id="path12" d="M11.4,20.4c0,0.1-0.1,0.1-0.1,0.1c0,0-0.1,0-0.1,0c-0.1,0-0.1,0-0.2,0c-0.1,0-0.1-0.1-0.2-0.1
	c-0.1,0-0.2-0.1-0.3-0.1c-0.1,0-0.2-0.1-0.3-0.1c-0.2,0-0.4,0-0.5,0.1c-0.1,0.1-0.2,0.2-0.2,0.4c0,0.1,0,0.2,0.1,0.3
	c0.1,0.1,0.2,0.1,0.3,0.2c0.1,0,0.2,0.1,0.4,0.1c0.1,0,0.3,0.1,0.4,0.1c0.1,0,0.3,0.1,0.4,0.2c0.1,0.1,0.3,0.2,0.4,0.3
	c0.1,0.1,0.2,0.2,0.3,0.4c0.1,0.1,0.1,0.3,0.1,0.5c0,0.2,0,0.5-0.1,0.7c-0.1,0.2-0.2,0.4-0.4,0.5c-0.2,0.2-0.3,0.3-0.6,0.4
	c-0.2,0.1-0.5,0.1-0.8,0.1c-0.2,0-0.3,0-0.5,0c-0.2,0-0.3-0.1-0.5-0.1c-0.2-0.1-0.3-0.1-0.4-0.2c-0.1-0.1-0.3-0.2-0.4-0.3l0.3-0.6
	c0,0,0.1-0.1,0.1-0.1c0,0,0.1,0,0.2,0c0.1,0,0.1,0,0.2,0.1c0.1,0,0.2,0.1,0.2,0.1c0.1,0.1,0.2,0.1,0.3,0.1c0.1,0,0.3,0.1,0.4,0.1
	c0.2,0,0.4,0,0.5-0.1c0.1-0.1,0.2-0.2,0.2-0.5c0-0.1,0-0.2-0.1-0.3s-0.2-0.1-0.3-0.2c-0.1,0-0.2-0.1-0.4-0.1c-0.1,0-0.3-0.1-0.4-0.1
	c-0.1,0-0.3-0.1-0.4-0.2c-0.1-0.1-0.3-0.2-0.4-0.3c-0.1-0.1-0.2-0.2-0.3-0.4c-0.1-0.2-0.1-0.4-0.1-0.6c0-0.2,0-0.4,0.1-0.6
	c0.1-0.2,0.2-0.3,0.3-0.5c0.1-0.1,0.3-0.3,0.5-0.3c0.2-0.1,0.5-0.1,0.7-0.1c0.2,0,0.3,0,0.5,0c0.1,0,0.3,0.1,0.4,0.1
	c0.1,0,0.3,0.1,0.4,0.2c0.1,0.1,0.2,0.1,0.3,0.2L11.4,20.4z"/>
</svg>
