<?xml version="1.0" encoding="utf-8"?>
<!-- Generator: Adobe Illustrator 22.0.0, SVG Export Plug-In . SVG Version: 6.00 Build 0)  -->
<svg version="1.1" baseProfile="basic"
	 id="svg98" inkscape:version="1.1 (c68e22c387, 2021-05-23)" sodipodi:docname="hover00160.svg" xmlns:inkscape="http://www.inkscape.org/namespaces/inkscape" xmlns:sodipodi="http://sodipodi.sourceforge.net/DTD/sodipodi-0.dtd" xmlns:svg="http://www.w3.org/2000/svg"
	 xmlns="http://www.w3.org/2000/svg" xmlns:xlink="http://www.w3.org/1999/xlink" x="0px" y="0px" width="12px" height="306px"
	 viewBox="0 0 12 306" xml:space="preserve">
<style type="text/css">
	.st0{fill:#399DFF;}
	.st1{fill:#FF930F;stroke:#FF930F;}
	.st2{fill:#000001;}
	.st3{fill:#FF930F;stroke:#FF9300;}
	.st4{fill:#FF9300;stroke:#FF9300;}
	.st5{fill:#000001;stroke:#000000;stroke-opacity:0;}
	.st6{fill:none;stroke:#FF9300;}
</style>
<sodipodi:namedview  bordercolor="#666666" borderopacity="1.0" id="namedview100" inkscape:current-layer="svg98" inkscape:cx="37.937063" inkscape:cy="156.11888" inkscape:pagecheckerboard="0" inkscape:pageopacity="0.0" inkscape:pageshadow="2" inkscape:window-height="1017" inkscape:window-maximized="1" inkscape:window-width="1920" inkscape:window-x="-8" inkscape:window-y="-8" inkscape:zoom="2.86" pagecolor="#ffffff" showgrid="false">
	</sodipodi:namedview>
<path id="rect2" class="st0" d="M1.5,20h9c0.6,0,1,0.4,1,1v9c0,0.6-0.4,1-1,1h-9c-0.6,0-1-0.4-1-1v-9C0.5,20.4,0.9,20,1.5,20z"/>
<path id="rect4" class="st1" d="M1.5,20h9c0.6,0,1,0.4,1,1v9c0,0.6-0.4,1-1,1h-9c-0.6,0-1-0.4-1-1v-9C0.5,20.4,0.9,20,1.5,20z"/>
<path id="path6" class="st2" d="M7.6,27.7v0.8H4.7v-0.8h1v-2.6c0-0.1,0-0.1,0-0.2c0-0.1,0-0.1,0-0.2l-0.6,0.5
	c-0.1,0-0.1,0.1-0.2,0.1c0,0-0.1,0-0.1,0c0,0-0.1,0-0.1,0c0,0-0.1,0-0.1-0.1l-0.3-0.5l1.6-1.3h0.9v4.3H7.6z"/>
<path id="rect8" class="st0" d="M1.5,38h9c0.6,0,1,0.4,1,1v9c0,0.6-0.4,1-1,1h-9c-0.6,0-1-0.4-1-1v-9C0.5,38.4,0.9,38,1.5,38z"/>
<path id="rect10" class="st1" d="M1.5,38h9c0.6,0,1,0.4,1,1v9c0,0.6-0.4,1-1,1h-9c-0.6,0-1-0.4-1-1v-9C0.5,38.4,0.9,38,1.5,38z"/>
<path id="path12" class="st2" d="M7.4,45.5c0.1,0,0.2,0,0.3,0.1c0.1,0.1,0.1,0.1,0.1,0.3v0.6H4.2v-0.3c0-0.1,0-0.1,0-0.2
	c0-0.1,0.1-0.1,0.1-0.2l1.5-1.5C6,44.1,6.1,44,6.2,43.9c0.1-0.1,0.2-0.2,0.2-0.3c0.1-0.1,0.1-0.2,0.1-0.3c0-0.1,0-0.2,0-0.4
	c0-0.2,0-0.4-0.1-0.5c-0.1-0.1-0.2-0.2-0.4-0.2c-0.2,0-0.3,0-0.4,0.1c-0.1,0.1-0.2,0.2-0.2,0.3c0,0.1-0.1,0.2-0.2,0.3
	C5.1,43,5,43,4.8,43l-0.6-0.1c0-0.3,0.1-0.5,0.2-0.7c0.1-0.2,0.2-0.3,0.4-0.5c0.2-0.1,0.3-0.2,0.5-0.3c0.2-0.1,0.4-0.1,0.7-0.1
	c0.3,0,0.5,0,0.7,0.1c0.2,0.1,0.4,0.2,0.5,0.3c0.1,0.1,0.3,0.3,0.3,0.5c0.1,0.2,0.1,0.4,0.1,0.6c0,0.2,0,0.4-0.1,0.5
	c-0.1,0.2-0.1,0.3-0.2,0.5c-0.1,0.1-0.2,0.3-0.3,0.4c-0.1,0.1-0.2,0.3-0.4,0.4l-1,1c0.1,0,0.3-0.1,0.4-0.1c0.1,0,0.2,0,0.3,0H7.4z"
	/>
<path id="rect14" class="st0" d="M1.5,56h9c0.6,0,1,0.4,1,1v9c0,0.6-0.4,1-1,1h-9c-0.6,0-1-0.4-1-1v-9C0.5,56.4,0.9,56,1.5,56z"/>
<path id="rect16" class="st1" d="M1.5,56h9c0.6,0,1,0.4,1,1v9c0,0.6-0.4,1-1,1h-9c-0.6,0-1-0.4-1-1v-9C0.5,56.4,0.9,56,1.5,56z"/>
<path id="path18" class="st2" d="M4.3,60.9c0-0.3,0.1-0.5,0.2-0.7c0.1-0.2,0.2-0.3,0.4-0.5c0.2-0.1,0.3-0.2,0.5-0.3
	c0.2-0.1,0.4-0.1,0.7-0.1c0.3,0,0.5,0,0.7,0.1c0.2,0.1,0.4,0.2,0.5,0.3c0.1,0.1,0.2,0.3,0.3,0.4c0.1,0.2,0.1,0.3,0.1,0.5
	c0,0.2,0,0.3,0,0.4c0,0.1-0.1,0.2-0.1,0.3c-0.1,0.1-0.1,0.2-0.2,0.2c-0.1,0.1-0.2,0.1-0.3,0.2c0.6,0.2,0.8,0.6,0.8,1.2
	c0,0.3,0,0.5-0.1,0.7c-0.1,0.2-0.2,0.4-0.4,0.5c-0.2,0.1-0.4,0.2-0.6,0.3c-0.2,0.1-0.4,0.1-0.7,0.1c-0.2,0-0.5,0-0.6-0.1
	c-0.2-0.1-0.4-0.1-0.5-0.2c-0.1-0.1-0.3-0.3-0.4-0.4c-0.1-0.2-0.2-0.4-0.3-0.6L4.6,63c0.1,0,0.2-0.1,0.3,0c0.1,0,0.2,0.1,0.2,0.2
	c0.1,0.2,0.2,0.3,0.3,0.4c0.1,0.1,0.3,0.1,0.4,0.1c0.1,0,0.2,0,0.3-0.1c0.1,0,0.2-0.1,0.2-0.2c0.1-0.1,0.1-0.1,0.1-0.2
	c0-0.1,0-0.2,0-0.2c0-0.1,0-0.2,0-0.3c0-0.1-0.1-0.2-0.1-0.2c-0.1-0.1-0.2-0.1-0.3-0.1c-0.1,0-0.3-0.1-0.6-0.1v-0.7
	c0.2,0,0.4,0,0.5,0c0.1,0,0.2-0.1,0.3-0.1c0.1-0.1,0.1-0.1,0.1-0.2c0-0.1,0-0.2,0-0.3c0-0.2,0-0.4-0.1-0.5c-0.1-0.1-0.2-0.2-0.4-0.2
	c-0.2,0-0.3,0-0.4,0.1c-0.1,0.1-0.2,0.2-0.2,0.3c0,0.1-0.1,0.2-0.2,0.3C5.1,61,5,61,4.9,61L4.3,60.9z"/>
<path id="rect20" class="st0" d="M1.5,74h9c0.6,0,1,0.4,1,1v9c0,0.6-0.4,1-1,1h-9c-0.6,0-1-0.4-1-1v-9C0.5,74.4,0.9,74,1.5,74z"/>
<path id="rect22" class="st1" d="M1.5,74h9c0.6,0,1,0.4,1,1v9c0,0.6-0.4,1-1,1h-9c-0.6,0-1-0.4-1-1v-9C0.5,74.4,0.9,74,1.5,74z"/>
<path id="path24" class="st2" d="M6.4,80.5v-1.3c0-0.1,0-0.2,0-0.3c0-0.1,0-0.2,0-0.3l-1.3,1.9H6.4z M7.9,80.5v0.6
	c0,0.1,0,0.1-0.1,0.1c0,0-0.1,0.1-0.2,0.1H7.3v1.2H6.4v-1.2H4.4c-0.1,0-0.1,0-0.2-0.1c-0.1,0-0.1-0.1-0.1-0.2L4,80.6l2.4-3.2h1v3.1
	H7.9z"/>
<path id="rect26" class="st0" d="M1.5,92h9c0.6,0,1,0.4,1,1v9c0,0.6-0.4,1-1,1h-9c-0.6,0-1-0.4-1-1v-9C0.5,92.4,0.9,92,1.5,92z"/>
<path id="rect28" class="st3" d="M1.5,92h9c0.6,0,1,0.4,1,1v9c0,0.6-0.4,1-1,1h-9c-0.6,0-1-0.4-1-1v-9C0.5,92.4,0.9,92,1.5,92z"/>
<path id="path30" class="st2" d="M5.5,97.2c0.1,0,0.2,0,0.3,0c0.1,0,0.2,0,0.3,0c0.3,0,0.5,0,0.7,0.1c0.2,0.1,0.4,0.2,0.5,0.3
	c0.1,0.1,0.2,0.3,0.3,0.5c0.1,0.2,0.1,0.4,0.1,0.6c0,0.3,0,0.5-0.1,0.7c-0.1,0.2-0.2,0.4-0.4,0.6c-0.2,0.2-0.4,0.3-0.6,0.4
	c-0.2,0.1-0.5,0.1-0.8,0.1c-0.2,0-0.3,0-0.5-0.1c-0.1,0-0.3-0.1-0.4-0.1c-0.1-0.1-0.3-0.1-0.4-0.2c-0.1-0.1-0.2-0.2-0.3-0.3l0.3-0.4
	c0,0,0.1-0.1,0.1-0.1c0,0,0.1,0,0.2,0c0.1,0,0.1,0,0.2,0.1c0.1,0,0.1,0.1,0.2,0.1c0.1,0,0.2,0.1,0.3,0.1s0.2,0.1,0.4,0.1
	c0.1,0,0.3,0,0.4-0.1c0.1,0,0.2-0.1,0.2-0.2c0.1-0.1,0.1-0.2,0.1-0.3c0-0.1,0-0.2,0-0.4c0-0.2-0.1-0.4-0.2-0.6
	C6.3,98.1,6.1,98,5.8,98c-0.2,0-0.5,0-0.7,0.1L4.5,98l0.4-2.6h2.6v0.4c0,0.1,0,0.1,0,0.2c0,0.1-0.1,0.1-0.1,0.2c0,0-0.1,0.1-0.2,0.1
	c-0.1,0-0.2,0-0.3,0H5.7L5.5,97.2z"/>
<path id="rect32" class="st0" d="M1.5,110h9c0.6,0,1,0.4,1,1v9c0,0.6-0.4,1-1,1h-9c-0.6,0-1-0.4-1-1v-9C0.5,110.4,0.9,110,1.5,110z"
	/>
<path id="rect34" class="st4" d="M1.5,110h9c0.6,0,1,0.4,1,1v9c0,0.6-0.4,1-1,1h-9c-0.6,0-1-0.4-1-1v-9C0.5,110.4,0.9,110,1.5,110z"
	/>
<path id="path36" class="st2" d="M6,117.7c0.1,0,0.2,0,0.3-0.1c0.1,0,0.2-0.1,0.3-0.2c0.1-0.1,0.1-0.2,0.2-0.3
	c0-0.1,0.1-0.2,0.1-0.3c0-0.1,0-0.2-0.1-0.3c0-0.1-0.1-0.2-0.2-0.3s-0.2-0.1-0.3-0.2c-0.1,0-0.2-0.1-0.3-0.1c-0.1,0-0.2,0-0.3,0.1
	c-0.1,0-0.2,0.1-0.2,0.2c-0.1,0.1-0.1,0.2-0.2,0.3c0,0.1-0.1,0.2-0.1,0.3s0,0.2,0,0.3c0,0.1,0.1,0.2,0.1,0.3
	c0.1,0.1,0.1,0.1,0.2,0.2C5.7,117.7,5.9,117.7,6,117.7z M5.8,115.4c0.2-0.1,0.3-0.1,0.5-0.1c0.2,0,0.4,0,0.5,0.1
	c0.2,0.1,0.3,0.2,0.5,0.3c0.1,0.1,0.3,0.3,0.3,0.5c0.1,0.2,0.1,0.4,0.1,0.7c0,0.2,0,0.5-0.1,0.7c-0.1,0.2-0.2,0.4-0.4,0.6
	c-0.2,0.2-0.4,0.3-0.6,0.4c-0.2,0.1-0.5,0.1-0.8,0.1c-0.3,0-0.5,0-0.8-0.1c-0.2-0.1-0.4-0.2-0.6-0.4c-0.2-0.2-0.3-0.4-0.4-0.6
	c-0.1-0.2-0.1-0.5-0.1-0.7c0-0.5,0.2-1,0.6-1.5l1.1-1.5c0.1-0.1,0.1-0.1,0.2-0.2c0.1,0,0.2-0.1,0.3-0.1h1L6,115.2L5.8,115.4z"/>
<path id="rect38" class="st0" d="M1.5,128h9c0.6,0,1,0.4,1,1v9c0,0.6-0.4,1-1,1h-9c-0.6,0-1-0.4-1-1v-9C0.5,128.4,0.9,128,1.5,128z"
	/>
<path id="rect40" class="st4" d="M1.5,128h9c0.6,0,1,0.4,1,1v9c0,0.6-0.4,1-1,1h-9c-0.6,0-1-0.4-1-1v-9C0.5,128.4,0.9,128,1.5,128z"
	/>
<path id="path42" class="st2" d="M7.8,131.4v0.5c0,0.1,0,0.2,0,0.3c0,0.1-0.1,0.2-0.1,0.2l-1.8,3.8c0,0.1-0.1,0.2-0.2,0.3
	c-0.1,0.1-0.2,0.1-0.4,0.1H4.6l1.8-3.7c0.1-0.1,0.1-0.2,0.2-0.3c0.1-0.1,0.1-0.2,0.2-0.2H4.5c0,0-0.1,0-0.1,0c0,0-0.1,0-0.1-0.1
	c0,0,0,0-0.1-0.1c0,0,0-0.1,0-0.1v-0.7H7.8z"/>
<path id="rect44" class="st0" d="M1.5,146h9c0.6,0,1,0.4,1,1v9c0,0.6-0.4,1-1,1h-9c-0.6,0-1-0.4-1-1v-9C0.5,146.4,0.9,146,1.5,146z"
	/>
<path id="rect46" class="st4" d="M1.5,146h9c0.6,0,1,0.4,1,1v9c0,0.6-0.4,1-1,1h-9c-0.6,0-1-0.4-1-1v-9C0.5,146.4,0.9,146,1.5,146z"
	/>
<path id="path48" class="st2" d="M6,153.7c0.1,0,0.2,0,0.3-0.1c0.1,0,0.2-0.1,0.2-0.2c0.1-0.1,0.1-0.1,0.1-0.2c0-0.1,0-0.2,0-0.3
	c0-0.1,0-0.2,0-0.3c0-0.1-0.1-0.2-0.1-0.2c-0.1-0.1-0.1-0.1-0.2-0.1c-0.1,0-0.2-0.1-0.3-0.1s-0.2,0-0.3,0.1c-0.1,0-0.2,0.1-0.2,0.1
	c-0.1,0.1-0.1,0.1-0.1,0.2c0,0.1,0,0.2,0,0.3c0,0.1,0,0.2,0,0.3c0,0.1,0.1,0.2,0.1,0.2c0.1,0.1,0.1,0.1,0.2,0.2
	C5.8,153.7,5.9,153.7,6,153.7z M6,150.1c-0.1,0-0.2,0-0.3,0.1c-0.1,0-0.1,0.1-0.2,0.1c0,0.1-0.1,0.1-0.1,0.2c0,0.1,0,0.2,0,0.2
	c0,0.1,0,0.2,0,0.3c0,0.1,0,0.2,0.1,0.2c0,0.1,0.1,0.1,0.2,0.2c0.1,0,0.2,0.1,0.3,0.1c0.1,0,0.2,0,0.3-0.1c0.1,0,0.1-0.1,0.2-0.2
	c0-0.1,0.1-0.1,0.1-0.2c0-0.1,0-0.2,0-0.3c0-0.1,0-0.2,0-0.2s-0.1-0.1-0.1-0.2c0-0.1-0.1-0.1-0.2-0.1C6.2,150.2,6.1,150.1,6,150.1z
	 M7,151.8c0.2,0.1,0.3,0.1,0.4,0.2c0.1,0.1,0.2,0.2,0.3,0.3c0.1,0.1,0.1,0.2,0.2,0.3c0,0.1,0,0.3,0,0.4c0,0.2,0,0.4-0.1,0.6
	c-0.1,0.2-0.2,0.3-0.4,0.5c-0.2,0.1-0.3,0.2-0.6,0.3c-0.2,0.1-0.5,0.1-0.7,0.1c-0.3,0-0.5,0-0.7-0.1c-0.2-0.1-0.4-0.2-0.6-0.3
	c-0.2-0.1-0.3-0.3-0.4-0.5c-0.1-0.2-0.1-0.4-0.1-0.6c0-0.1,0-0.3,0-0.4c0-0.1,0.1-0.2,0.2-0.3c0.1-0.1,0.2-0.2,0.3-0.3
	c0.1-0.1,0.2-0.1,0.4-0.2c-0.2-0.1-0.4-0.3-0.5-0.4c-0.1-0.2-0.2-0.4-0.2-0.7c0-0.2,0-0.4,0.1-0.5c0.1-0.2,0.2-0.3,0.3-0.4
	c0.1-0.1,0.3-0.2,0.5-0.3c0.2-0.1,0.4-0.1,0.7-0.1c0.2,0,0.5,0,0.7,0.1c0.2,0.1,0.4,0.2,0.5,0.3c0.1,0.1,0.3,0.3,0.3,0.4
	c0.1,0.2,0.1,0.4,0.1,0.5c0,0.3-0.1,0.5-0.2,0.7C7.4,151.6,7.2,151.7,7,151.8z"/>
<path id="rect50" class="st0" d="M1.5,164h9c0.6,0,1,0.4,1,1v9c0,0.6-0.4,1-1,1h-9c-0.6,0-1-0.4-1-1v-9C0.5,164.4,0.9,164,1.5,164z"
	/>
<path id="rect52" class="st4" d="M1.5,164h9c0.6,0,1,0.4,1,1v9c0,0.6-0.4,1-1,1h-9c-0.6,0-1-0.4-1-1v-9C0.5,164.4,0.9,164,1.5,164z"
	/>
<path id="path54" class="st2" d="M5.3,169c0,0.5,0.2,0.8,0.7,0.8c0.2,0,0.4-0.1,0.5-0.2c0.1-0.1,0.2-0.3,0.2-0.6
	c0-0.1,0-0.2-0.1-0.3c0-0.1-0.1-0.2-0.2-0.2c-0.1-0.1-0.1-0.1-0.2-0.1c-0.1,0-0.2,0-0.3,0c-0.1,0-0.2,0-0.3,0.1
	c-0.1,0-0.2,0.1-0.2,0.2c-0.1,0.1-0.1,0.1-0.1,0.2C5.3,168.8,5.3,168.9,5.3,169z M6.1,170.6c0,0,0.1-0.1,0.1-0.1
	c0,0,0.1-0.1,0.1-0.1c-0.2,0.1-0.5,0.2-0.7,0.2c-0.2,0-0.3,0-0.5-0.1c-0.2-0.1-0.3-0.2-0.5-0.3c-0.1-0.1-0.2-0.3-0.3-0.5
	c-0.1-0.2-0.1-0.4-0.1-0.7c0-0.2,0-0.4,0.1-0.7c0.1-0.2,0.2-0.4,0.4-0.5c0.2-0.2,0.3-0.3,0.6-0.4c0.2-0.1,0.5-0.1,0.7-0.1
	c0.3,0,0.5,0,0.7,0.1s0.4,0.2,0.5,0.4c0.2,0.2,0.3,0.3,0.3,0.5c0.1,0.2,0.1,0.4,0.1,0.7c0,0.3-0.1,0.6-0.2,0.9
	c-0.1,0.3-0.2,0.5-0.4,0.7l-1.1,1.6c0,0.1-0.1,0.1-0.2,0.2c-0.1,0-0.2,0.1-0.3,0.1h-1L6.1,170.6z"/>
<path id="rect56" class="st0" d="M1.5,182h9c0.6,0,1,0.4,1,1v9c0,0.6-0.4,1-1,1h-9c-0.6,0-1-0.4-1-1v-9C0.5,182.4,0.9,182,1.5,182z"
	/>
<path id="rect58" class="st4" d="M1.5,182h9c0.6,0,1,0.4,1,1v9c0,0.6-0.4,1-1,1h-9c-0.6,0-1-0.4-1-1v-9C0.5,182.4,0.9,182,1.5,182z"
	/>
<path id="path60" class="st2" d="M5.7,189.7v0.8H2.8v-0.8h1v-2.6c0-0.1,0-0.1,0-0.2c0-0.1,0-0.1,0-0.2l-0.6,0.5
	c-0.1,0-0.1,0.1-0.2,0.1c0,0-0.1,0-0.1,0c0,0-0.1,0-0.1,0c0,0-0.1,0-0.1-0.1l-0.3-0.5l1.6-1.3h0.9v4.3H5.7z M9.9,187.9
	c0,0.4,0,0.8-0.1,1.2c-0.1,0.3-0.2,0.6-0.4,0.8c-0.2,0.2-0.4,0.4-0.6,0.5c-0.2,0.1-0.5,0.2-0.8,0.2s-0.5-0.1-0.8-0.2
	c-0.2-0.1-0.4-0.3-0.6-0.5c-0.2-0.2-0.3-0.5-0.4-0.8c-0.1-0.3-0.1-0.7-0.1-1.2c0-0.4,0-0.8,0.1-1.2c0.1-0.3,0.2-0.6,0.4-0.8
	c0.2-0.2,0.4-0.4,0.6-0.5c0.2-0.1,0.5-0.2,0.8-0.2s0.5,0.1,0.8,0.2c0.2,0.1,0.4,0.3,0.6,0.5c0.2,0.2,0.3,0.5,0.4,0.8
	C9.8,187.1,9.9,187.5,9.9,187.9z M8.7,187.9c0-0.4,0-0.6-0.1-0.9c0-0.2-0.1-0.4-0.2-0.5c-0.1-0.1-0.2-0.2-0.2-0.3
	c-0.1,0-0.2-0.1-0.3-0.1c-0.1,0-0.2,0-0.3,0.1c-0.1,0-0.2,0.1-0.2,0.3c-0.1,0.1-0.1,0.3-0.2,0.5c0,0.2-0.1,0.5-0.1,0.9
	c0,0.4,0,0.6,0.1,0.9c0,0.2,0.1,0.4,0.2,0.5c0.1,0.1,0.2,0.2,0.2,0.3c0.1,0,0.2,0.1,0.3,0.1c0.1,0,0.2,0,0.3-0.1
	c0.1,0,0.2-0.1,0.2-0.3c0.1-0.1,0.1-0.3,0.2-0.5C8.7,188.6,8.7,188.3,8.7,187.9z"/>
<path id="rect62" class="st0" d="M1.5,200h9c0.6,0,1,0.4,1,1v9c0,0.6-0.4,1-1,1h-9c-0.6,0-1-0.4-1-1v-9C0.5,200.4,0.9,200,1.5,200z"
	/>
<path id="rect64" class="st4" d="M1.5,200h9c0.6,0,1,0.4,1,1v9c0,0.6-0.4,1-1,1h-9c-0.6,0-1-0.4-1-1v-9C0.5,200.4,0.9,200,1.5,200z"
	/>
<path id="path66" class="st2" d="M5.7,207.7v0.8H2.8v-0.8h1v-2.6c0-0.1,0-0.1,0-0.2c0-0.1,0-0.1,0-0.2l-0.6,0.5
	c-0.1,0-0.1,0.1-0.2,0.1c0,0-0.1,0-0.1,0c0,0-0.1,0-0.1,0c0,0-0.1,0-0.1-0.1l-0.3-0.5l1.6-1.3h0.9v4.3H5.7z M9.6,207.7v0.8H6.7v-0.8
	h1v-2.6c0-0.1,0-0.1,0-0.2c0-0.1,0-0.1,0-0.2l-0.6,0.5c-0.1,0-0.1,0.1-0.2,0.1c0,0-0.1,0-0.1,0c0,0-0.1,0-0.1,0c0,0-0.1,0-0.1-0.1
	l-0.3-0.5l1.6-1.3h0.9v4.3H9.6z"/>
<path id="rect68" class="st0" d="M1.5,218h9c0.6,0,1,0.4,1,1v9c0,0.6-0.4,1-1,1h-9c-0.6,0-1-0.4-1-1v-9C0.5,218.4,0.9,218,1.5,218z"
	/>
<path id="rect70" class="st4" d="M1.5,218h9c0.6,0,1,0.4,1,1v9c0,0.6-0.4,1-1,1h-9c-0.6,0-1-0.4-1-1v-9C0.5,218.4,0.9,218,1.5,218z"
	/>
<path id="path72" class="st2" d="M5.7,225.7v0.8H2.8v-0.8h1v-2.6c0-0.1,0-0.1,0-0.2c0-0.1,0-0.1,0-0.2l-0.6,0.5
	c-0.1,0-0.1,0.1-0.2,0.1c0,0-0.1,0-0.1,0c0,0-0.1,0-0.1,0c0,0-0.1,0-0.1-0.1l-0.3-0.5l1.6-1.3h0.9v4.3H5.7z M9.4,225.5
	c0.1,0,0.2,0,0.3,0.1c0.1,0.1,0.1,0.1,0.1,0.3v0.6H6.2v-0.4c0-0.1,0-0.1,0-0.2s0.1-0.1,0.1-0.2l1.5-1.5c0.1-0.1,0.2-0.2,0.3-0.4
	c0.1-0.1,0.2-0.2,0.2-0.3c0.1-0.1,0.1-0.2,0.1-0.3c0-0.1,0-0.2,0-0.4c0-0.2,0-0.4-0.1-0.5c-0.1-0.1-0.2-0.2-0.4-0.2
	c-0.2,0-0.3,0-0.4,0.1c-0.1,0.1-0.2,0.2-0.2,0.3c0,0.1-0.1,0.2-0.2,0.3c-0.1,0-0.2,0.1-0.3,0l-0.6-0.1c0-0.3,0.1-0.5,0.2-0.7
	c0.1-0.2,0.2-0.3,0.4-0.5c0.2-0.1,0.3-0.2,0.5-0.3c0.2-0.1,0.4-0.1,0.7-0.1c0.3,0,0.5,0,0.7,0.1c0.2,0.1,0.4,0.2,0.5,0.3
	s0.3,0.3,0.3,0.5c0.1,0.2,0.1,0.4,0.1,0.6c0,0.2,0,0.4-0.1,0.5c-0.1,0.2-0.1,0.3-0.2,0.5c-0.1,0.1-0.2,0.3-0.3,0.4
	c-0.1,0.1-0.2,0.3-0.4,0.4l-1,1c0.1,0,0.3-0.1,0.4-0.1c0.1,0,0.2,0,0.4,0H9.4z"/>
<path id="rect74" class="st0" d="M1.5,236h9c0.6,0,1,0.4,1,1v9c0,0.6-0.4,1-1,1h-9c-0.6,0-1-0.4-1-1v-9C0.5,236.4,0.9,236,1.5,236z"
	/>
<path id="rect76" class="st4" d="M1.5,236h9c0.6,0,1,0.4,1,1v9c0,0.6-0.4,1-1,1h-9c-0.6,0-1-0.4-1-1v-9C0.5,236.4,0.9,236,1.5,236z"
	/>
<path id="path78" class="st2" d="M5.7,243.7v0.8H2.8v-0.8h1v-2.6c0-0.1,0-0.1,0-0.2c0-0.1,0-0.1,0-0.2l-0.6,0.5
	c-0.1,0-0.1,0.1-0.2,0.1c0,0-0.1,0-0.1,0c0,0-0.1,0-0.1,0c0,0-0.1,0-0.1-0.1l-0.3-0.5l1.6-1.3h0.9v4.3H5.7z M6.3,240.9
	c0-0.3,0.1-0.5,0.2-0.7c0.1-0.2,0.2-0.3,0.4-0.5c0.2-0.1,0.3-0.2,0.5-0.3c0.2-0.1,0.4-0.1,0.7-0.1c0.3,0,0.5,0,0.7,0.1
	c0.2,0.1,0.4,0.2,0.5,0.3c0.1,0.1,0.2,0.3,0.3,0.4c0.1,0.2,0.1,0.3,0.1,0.5c0,0.2,0,0.3,0,0.4c0,0.1-0.1,0.2-0.1,0.3
	c-0.1,0.1-0.1,0.2-0.2,0.2c-0.1,0.1-0.2,0.1-0.3,0.2c0.6,0.2,0.8,0.6,0.8,1.2c0,0.3,0,0.5-0.1,0.7c-0.1,0.2-0.2,0.4-0.4,0.5
	c-0.2,0.1-0.4,0.2-0.6,0.3c-0.2,0.1-0.4,0.1-0.7,0.1c-0.2,0-0.5,0-0.6-0.1c-0.2-0.1-0.4-0.1-0.5-0.2c-0.1-0.1-0.3-0.3-0.4-0.4
	c-0.1-0.2-0.2-0.4-0.3-0.6l0.5-0.2c0.1,0,0.2-0.1,0.4,0c0.1,0,0.2,0.1,0.2,0.2c0.1,0.2,0.2,0.3,0.3,0.4c0.1,0.1,0.3,0.1,0.4,0.1
	c0.1,0,0.2,0,0.3-0.1c0.1,0,0.2-0.1,0.2-0.2c0.1-0.1,0.1-0.1,0.1-0.2s0-0.2,0-0.2c0-0.1,0-0.2,0-0.3c0-0.1-0.1-0.2-0.1-0.2
	c-0.1-0.1-0.2-0.1-0.3-0.1c-0.1,0-0.3-0.1-0.6-0.1v-0.7c0.2,0,0.4,0,0.5,0c0.1,0,0.2-0.1,0.3-0.1c0.1-0.1,0.1-0.1,0.1-0.2
	c0-0.1,0-0.2,0-0.3c0-0.2,0-0.4-0.1-0.5c-0.1-0.1-0.2-0.2-0.4-0.2c-0.2,0-0.3,0-0.4,0.1c-0.1,0.1-0.2,0.2-0.2,0.3
	c0,0.1-0.1,0.2-0.2,0.3c-0.1,0-0.2,0.1-0.3,0L6.3,240.9z"/>
<path id="rect80" class="st0" d="M1.5,254h9c0.6,0,1,0.4,1,1v9c0,0.6-0.4,1-1,1h-9c-0.6,0-1-0.4-1-1v-9C0.5,254.4,0.9,254,1.5,254z"
	/>
<path id="rect82" class="st4" d="M1.5,254h9c0.6,0,1,0.4,1,1v9c0,0.6-0.4,1-1,1h-9c-0.6,0-1-0.4-1-1v-9C0.5,254.4,0.9,254,1.5,254z"
	/>
<path id="path84" class="st5" d="M5.7,261.7v0.8H2.8v-0.8h1v-2.6c0-0.1,0-0.1,0-0.2c0-0.1,0-0.1,0-0.2l-0.6,0.5
	c-0.1,0-0.1,0.1-0.2,0.1c0,0-0.1,0-0.1,0c0,0-0.1,0-0.1,0c0,0-0.1,0-0.1-0.1l-0.3-0.5l1.6-1.3h0.9v4.3H5.7z M8.4,260.5v-1.3
	c0-0.1,0-0.2,0-0.3c0-0.1,0-0.2,0-0.3l-1.3,1.9H8.4z M9.9,260.5v0.6c0,0.1,0,0.1-0.1,0.1c0,0-0.1,0.1-0.2,0.1H9.3v1.2H8.4v-1.2H6.3
	c-0.1,0-0.1,0-0.2-0.1c-0.1,0-0.1-0.1-0.1-0.2l-0.1-0.5l2.4-3.2h1v3.1H9.9z"/>
<path id="rect86" class="st4" d="M1.5,272h9c0.6,0,1,0.4,1,1v9c0,0.6-0.4,1-1,1h-9c-0.6,0-1-0.4-1-1v-9C0.5,272.4,0.9,272,1.5,272z"
	/>
<path id="rect88" class="st6" d="M1.5,272h9c0.6,0,1,0.4,1,1v9c0,0.6-0.4,1-1,1h-9c-0.6,0-1-0.4-1-1v-9C0.5,272.4,0.9,272,1.5,272z"
	/>
<path id="path90" class="st5" d="M5.7,279.7v0.8H2.8v-0.8h1v-2.6c0-0.1,0-0.1,0-0.2c0-0.1,0-0.1,0-0.2l-0.6,0.5
	c-0.1,0-0.1,0.1-0.2,0.1c0,0-0.1,0-0.1,0c0,0-0.1,0-0.1,0c0,0-0.1,0-0.1-0.1l-0.3-0.5l1.6-1.3h0.9v4.3H5.7z M7.5,277.2
	c0.1,0,0.2,0,0.3,0c0.1,0,0.2,0,0.3,0c0.3,0,0.5,0,0.7,0.1c0.2,0.1,0.4,0.2,0.5,0.3c0.1,0.1,0.2,0.3,0.3,0.5
	c0.1,0.2,0.1,0.4,0.1,0.6c0,0.3,0,0.5-0.1,0.7c-0.1,0.2-0.2,0.4-0.4,0.6c-0.2,0.2-0.4,0.3-0.6,0.4c-0.2,0.1-0.5,0.1-0.8,0.1
	c-0.2,0-0.3,0-0.5-0.1c-0.1,0-0.3-0.1-0.4-0.1c-0.1-0.1-0.3-0.1-0.4-0.2c-0.1-0.1-0.2-0.2-0.3-0.3l0.3-0.4c0,0,0.1-0.1,0.1-0.1
	c0,0,0.1,0,0.2,0c0.1,0,0.1,0,0.2,0.1c0.1,0,0.1,0.1,0.2,0.1c0.1,0,0.2,0.1,0.3,0.1c0.1,0,0.2,0.1,0.4,0.1s0.3,0,0.4-0.1
	c0.1,0,0.2-0.1,0.2-0.2c0.1-0.1,0.1-0.2,0.1-0.3c0-0.1,0-0.2,0-0.4c0-0.2-0.1-0.4-0.2-0.6c-0.1-0.1-0.3-0.2-0.6-0.2
	c-0.2,0-0.5,0-0.7,0.1L6.5,278l0.4-2.6h2.6v0.4c0,0.1,0,0.1,0,0.2c0,0.1-0.1,0.1-0.1,0.2c0,0-0.1,0.1-0.2,0.1c-0.1,0-0.2,0-0.3,0
	H7.6L7.5,277.2z"/>
<path id="rect92" class="st0" d="M1.5,290h9c0.6,0,1,0.4,1,1v9c0,0.6-0.4,1-1,1h-9c-0.6,0-1-0.4-1-1v-9C0.5,290.4,0.9,290,1.5,290z"
	/>
<path id="rect94" class="st4" d="M1.5,290h9c0.6,0,1,0.4,1,1v9c0,0.6-0.4,1-1,1h-9c-0.6,0-1-0.4-1-1v-9C0.5,290.4,0.9,290,1.5,290z"
	/>
<path id="path96" class="st5" d="M5.7,297.7v0.8H2.8v-0.8h1v-2.6c0-0.1,0-0.1,0-0.2c0-0.1,0-0.1,0-0.2l-0.6,0.5
	c-0.1,0-0.1,0.1-0.2,0.1c0,0-0.1,0-0.1,0c0,0-0.1,0-0.1,0c0,0-0.1,0-0.1-0.1l-0.3-0.5l1.6-1.3h0.9v4.3H5.7z M8,297.7
	c0.1,0,0.2,0,0.3-0.1c0.1,0,0.2-0.1,0.3-0.2c0.1-0.1,0.1-0.2,0.2-0.3c0-0.1,0.1-0.2,0.1-0.3c0-0.1,0-0.2-0.1-0.4
	c0-0.1-0.1-0.2-0.2-0.3c-0.1-0.1-0.2-0.1-0.3-0.2c-0.1,0-0.2-0.1-0.3-0.1c-0.1,0-0.2,0-0.3,0.1c-0.1,0-0.2,0.1-0.2,0.2
	c-0.1,0.1-0.1,0.2-0.2,0.3c0,0.1-0.1,0.2-0.1,0.3s0,0.2,0,0.3c0,0.1,0.1,0.2,0.1,0.3c0.1,0.1,0.1,0.1,0.2,0.2
	C7.7,297.7,7.8,297.7,8,297.7z M7.8,295.4c0.2-0.1,0.3-0.1,0.5-0.1c0.2,0,0.4,0,0.5,0.1c0.2,0.1,0.3,0.2,0.5,0.3
	c0.1,0.1,0.3,0.3,0.3,0.5c0.1,0.2,0.1,0.4,0.1,0.7c0,0.2,0,0.5-0.1,0.7c-0.1,0.2-0.2,0.4-0.4,0.6c-0.2,0.2-0.4,0.3-0.6,0.4
	c-0.2,0.1-0.5,0.1-0.8,0.1c-0.3,0-0.5,0-0.8-0.1c-0.2-0.1-0.4-0.2-0.6-0.4c-0.2-0.2-0.3-0.4-0.4-0.6c-0.1-0.2-0.1-0.5-0.1-0.7
	c0-0.5,0.2-1,0.6-1.5l1.1-1.6c0.1-0.1,0.1-0.1,0.2-0.2c0.1,0,0.2-0.1,0.3-0.1h1l-1.5,1.8L7.8,295.4z"/>
</svg>
