<?xml version="1.0" encoding="utf-8"?>
<!-- Generator: Adobe Illustrator 22.0.0, SVG Export Plug-In . SVG Version: 6.00 Build 0)  -->
<svg version="1.1" id="Layer_1" xmlns="http://www.w3.org/2000/svg" xmlns:xlink="http://www.w3.org/1999/xlink" x="0px" y="0px"
	 width="180px" height="126px" viewBox="0 0 180 126" style="enable-background:new 0 0 180 126;" xml:space="preserve">
<style type="text/css">
	.st0{fill:#CCCCCC;}
	.st1{fill:none;stroke:#CCCCCC;}
</style>
<path class="st0" d="M3,9h12V8H3V9z"/>
<path class="st0" d="M7.538,26.087c4.852,0.019,6.451,3.59,6.454,4.913L15,30.997c-0.004-1.98-2.145-6.104-7.718-5.995H3v1.087
	h4.247c0.015,0,0.029,0,0.044,0h0.247V26.087z"/>
<path class="st0" d="M28,26h-7v-1h7c1.314,0,2.597,0.288,3.544,1.249C32.487,27.207,33,28.736,33,31h-1
	c0-2.136-0.487-3.357-1.169-4.049C30.153,26.262,29.186,26,28,26z"/>
<path class="st0" d="M43.538,26.087c4.852,0.019,6.451,3.59,6.454,4.913L51,30.997c-0.004-1.98-2.145-6.104-7.718-5.995H39v1.087
	h4.247c0.015,0,0.029,0,0.044,0h0.247V26.087z"/>
<path class="st0" d="M41.461,21.9h0.157c0.063,0,0.116-0.008,0.158-0.025c0.042-0.018,0.077-0.047,0.108-0.085l0.997-1.263
	c0.042-0.053,0.085-0.09,0.13-0.11c0.047-0.022,0.105-0.032,0.175-0.032h0.58l-1.218,1.503c-0.072,0.092-0.146,0.157-0.222,0.195
	c0.055,0.02,0.104,0.048,0.148,0.085c0.045,0.035,0.087,0.082,0.127,0.14L43.856,24h-0.593c-0.08,0-0.14-0.011-0.18-0.032
	c-0.038-0.023-0.071-0.057-0.097-0.1l-1.022-1.335c-0.032-0.045-0.068-0.077-0.11-0.095c-0.042-0.018-0.102-0.028-0.18-0.028h-0.212
	V24h-0.673v-3.615h0.673V21.9z M44.083,21.392c0.025-0.173,0.073-0.325,0.145-0.455c0.072-0.132,0.161-0.241,0.267-0.327
	c0.108-0.088,0.232-0.154,0.37-0.198c0.14-0.045,0.29-0.068,0.45-0.068c0.167,0,0.317,0.024,0.45,0.073
	c0.135,0.047,0.25,0.113,0.345,0.198c0.095,0.083,0.167,0.182,0.217,0.295c0.052,0.113,0.077,0.236,0.077,0.368
	c0,0.115-0.013,0.217-0.04,0.305c-0.025,0.087-0.062,0.163-0.11,0.227c-0.048,0.065-0.108,0.12-0.18,0.165
	c-0.072,0.045-0.153,0.083-0.243,0.112c0.217,0.068,0.378,0.173,0.485,0.313c0.107,0.14,0.16,0.316,0.16,0.528
	c0,0.18-0.033,0.339-0.1,0.478c-0.067,0.138-0.157,0.255-0.27,0.35c-0.113,0.093-0.245,0.164-0.395,0.213
	c-0.148,0.048-0.306,0.073-0.472,0.073c-0.182,0-0.34-0.021-0.475-0.063c-0.135-0.042-0.252-0.103-0.352-0.185
	c-0.1-0.082-0.185-0.182-0.255-0.3s-0.13-0.255-0.18-0.41l0.272-0.113c0.072-0.03,0.138-0.037,0.2-0.022
	c0.063,0.013,0.109,0.047,0.138,0.1c0.03,0.058,0.063,0.116,0.097,0.172c0.037,0.057,0.08,0.108,0.13,0.153
	c0.05,0.043,0.108,0.079,0.175,0.108c0.068,0.027,0.149,0.04,0.243,0.04c0.105,0,0.197-0.017,0.275-0.05
	c0.078-0.035,0.143-0.08,0.195-0.135c0.053-0.055,0.093-0.116,0.118-0.182c0.027-0.068,0.04-0.137,0.04-0.205
	c0-0.087-0.009-0.165-0.028-0.235c-0.018-0.072-0.057-0.132-0.115-0.182c-0.058-0.05-0.142-0.089-0.252-0.118
	c-0.108-0.028-0.254-0.042-0.438-0.042v-0.44c0.152-0.002,0.278-0.016,0.377-0.042c0.1-0.027,0.179-0.063,0.238-0.11
	c0.06-0.048,0.102-0.106,0.125-0.173c0.023-0.067,0.035-0.14,0.035-0.22c0-0.17-0.048-0.299-0.143-0.388
	c-0.095-0.088-0.222-0.132-0.38-0.132c-0.073,0-0.141,0.011-0.202,0.032c-0.062,0.02-0.118,0.049-0.167,0.088
	c-0.048,0.037-0.089,0.08-0.122,0.13c-0.033,0.05-0.058,0.105-0.075,0.165c-0.028,0.077-0.066,0.127-0.112,0.153
	c-0.045,0.025-0.109,0.031-0.193,0.017L44.083,21.392z M47.729,21.698c0.08-0.017,0.157-0.028,0.23-0.035
	c0.073-0.008,0.144-0.013,0.212-0.013c0.19,0,0.358,0.028,0.503,0.085s0.267,0.135,0.365,0.235c0.098,0.1,0.173,0.218,0.222,0.353
	c0.05,0.133,0.075,0.278,0.075,0.432c0,0.192-0.034,0.367-0.103,0.525c-0.067,0.158-0.16,0.294-0.28,0.407
	c-0.12,0.112-0.263,0.198-0.427,0.26c-0.163,0.062-0.342,0.093-0.535,0.093c-0.113,0-0.221-0.012-0.323-0.035
	c-0.102-0.023-0.197-0.054-0.287-0.092c-0.088-0.04-0.171-0.085-0.248-0.135c-0.075-0.052-0.142-0.106-0.202-0.163l0.19-0.262
	c0.04-0.057,0.093-0.085,0.158-0.085c0.042,0,0.084,0.013,0.127,0.04c0.043,0.027,0.093,0.056,0.148,0.087
	c0.057,0.032,0.122,0.061,0.197,0.087c0.077,0.027,0.168,0.04,0.275,0.04c0.113,0,0.213-0.018,0.3-0.055
	c0.087-0.037,0.158-0.088,0.215-0.153c0.058-0.067,0.102-0.145,0.13-0.235c0.03-0.092,0.045-0.191,0.045-0.298
	c0-0.197-0.057-0.35-0.173-0.46c-0.113-0.112-0.282-0.167-0.505-0.167c-0.172,0-0.347,0.032-0.528,0.095l-0.385-0.11l0.3-1.755
	h1.785v0.262c0,0.088-0.028,0.16-0.083,0.215c-0.055,0.055-0.148,0.083-0.28,0.083h-0.993L47.729,21.698z"/>
<path class="st0" d="M63.069,24.479l0.36-0.951l3.096,1.658l-0.365,0.949L63.069,24.479z M62.712,25.423l-0.437,1.155l3.081,1.65
	l0.443-1.152L62.712,25.423z M61.511,28.596l0.407-1.075l3.077,1.648l-0.412,1.072L61.511,28.596z M61.154,29.539l-0.687,1.814
	l-0.935-0.354l3.882-10.255l0.935,0.354l-0.563,1.488l3.101,1.661l0.646-1.68l0.933,0.359L64.532,33.16l-0.933-0.359l0.623-1.62
	L61.154,29.539z"/>
<path class="st0" d="M60.221,23.445V24h-2.118v-3.615h0.673v3.06H60.221z"/>
<path class="st0" d="M81.069,24.479l0.36-0.951l3.096,1.658l-0.365,0.949L81.069,24.479z M80.712,25.423l-0.437,1.155l3.081,1.65
	l0.443-1.152L80.712,25.423z M79.511,28.596l0.407-1.075l3.077,1.648l-0.412,1.072L79.511,28.596z M79.154,29.539l-0.687,1.814
	l-0.935-0.354l3.882-10.255l0.935,0.354l-0.563,1.488l3.101,1.661l0.646-1.68l0.933,0.359L82.532,33.16l-0.933-0.359l0.623-1.62
	L79.154,29.539z"/>
<path class="st0" d="M78.764,20.385L77.304,24h-0.607l-1.46-3.615h0.54c0.058,0,0.106,0.014,0.142,0.042
	c0.037,0.028,0.064,0.065,0.083,0.11l0.853,2.205c0.028,0.072,0.055,0.151,0.08,0.237c0.027,0.085,0.052,0.174,0.075,0.267
	c0.02-0.093,0.042-0.182,0.065-0.267c0.023-0.087,0.049-0.166,0.077-0.237l0.847-2.205c0.013-0.038,0.039-0.073,0.077-0.105
	c0.04-0.032,0.088-0.048,0.145-0.048H78.764z"/>
<path class="st0" d="M99.069,24.479l0.36-0.951l3.097,1.658l-0.365,0.949L99.069,24.479z M98.712,25.423l-0.437,1.155l3.082,1.65
	l0.442-1.152L98.712,25.423z M97.511,28.596l0.407-1.075l3.077,1.648l-0.412,1.072L97.511,28.596z M97.154,29.539l-0.687,1.814
	l-0.935-0.354l3.882-10.255l0.935,0.354l-0.563,1.488l3.1,1.661l0.646-1.68l0.934,0.359l-3.935,10.235l-0.933-0.359l0.622-1.62
	L97.154,29.539z"/>
<path class="st0" d="M96.711,22.192c0,0.265-0.044,0.508-0.132,0.73c-0.088,0.222-0.213,0.412-0.373,0.573
	c-0.16,0.16-0.352,0.284-0.577,0.372C95.403,23.956,95.153,24,94.878,24h-1.377v-3.615h1.377c0.275,0,0.525,0.045,0.75,0.135
	c0.225,0.088,0.418,0.212,0.577,0.372c0.16,0.158,0.284,0.348,0.373,0.57C96.666,21.684,96.711,21.927,96.711,22.192z
	 M96.021,22.192c0-0.198-0.027-0.376-0.08-0.532c-0.052-0.158-0.127-0.292-0.228-0.4c-0.098-0.11-0.218-0.194-0.36-0.253
	c-0.14-0.058-0.298-0.087-0.475-0.087h-0.702v2.545h0.702c0.177,0,0.335-0.029,0.475-0.087c0.142-0.058,0.262-0.142,0.36-0.25
	c0.1-0.11,0.176-0.243,0.228-0.4C95.994,22.569,96.021,22.391,96.021,22.192z"/>
<path class="st0" d="M115.538,26.087c4.852,0.019,6.451,3.59,6.454,4.913L123,30.997c-0.004-1.98-2.145-6.104-7.718-5.995H111v1.087
	h4.247c0.015,0,0.029,0,0.044,0h0.247V26.087z"/>
<path class="st0" d="M113.296,22.192c0,0.265-0.044,0.511-0.132,0.738c-0.087,0.225-0.21,0.42-0.37,0.585
	c-0.16,0.165-0.353,0.294-0.578,0.388c-0.225,0.092-0.475,0.138-0.75,0.138c-0.273,0-0.522-0.046-0.747-0.138
	c-0.225-0.093-0.419-0.222-0.58-0.388c-0.16-0.165-0.284-0.36-0.373-0.585c-0.088-0.227-0.132-0.472-0.132-0.738
	c0-0.265,0.044-0.51,0.132-0.735c0.089-0.227,0.213-0.423,0.373-0.587c0.161-0.165,0.355-0.293,0.58-0.385
	c0.225-0.093,0.474-0.14,0.747-0.14c0.184,0,0.356,0.022,0.518,0.065c0.161,0.042,0.31,0.102,0.445,0.18
	c0.135,0.077,0.256,0.171,0.362,0.282c0.109,0.11,0.2,0.233,0.275,0.37c0.075,0.137,0.132,0.285,0.17,0.445
	C113.276,21.847,113.296,22.016,113.296,22.192z M112.609,22.192c0-0.198-0.027-0.376-0.08-0.532
	c-0.054-0.158-0.129-0.292-0.228-0.403c-0.098-0.11-0.218-0.194-0.36-0.253c-0.14-0.058-0.298-0.087-0.475-0.087
	c-0.176,0-0.336,0.029-0.477,0.087c-0.14,0.058-0.26,0.142-0.36,0.253c-0.099,0.11-0.174,0.244-0.228,0.403
	c-0.053,0.157-0.08,0.334-0.08,0.532c0,0.198,0.027,0.377,0.08,0.535c0.054,0.157,0.129,0.29,0.228,0.4
	c0.1,0.108,0.22,0.192,0.36,0.25c0.141,0.058,0.301,0.087,0.477,0.087c0.177,0,0.335-0.029,0.475-0.087
	c0.142-0.058,0.262-0.142,0.36-0.25c0.099-0.11,0.174-0.243,0.228-0.4C112.582,22.569,112.609,22.391,112.609,22.192z
	 M115.239,23.475c0.125,0,0.23-0.015,0.315-0.045c0.085-0.03,0.153-0.07,0.203-0.12c0.052-0.05,0.088-0.108,0.11-0.175
	c0.023-0.067,0.035-0.138,0.035-0.212c0-0.078-0.013-0.148-0.038-0.21c-0.025-0.063-0.064-0.117-0.117-0.16
	c-0.053-0.045-0.123-0.079-0.208-0.102c-0.083-0.023-0.184-0.035-0.302-0.035h-0.678v1.06H115.239z M114.559,20.905v1.045h0.535
	c0.23,0,0.404-0.042,0.52-0.125c0.119-0.083,0.178-0.216,0.178-0.398c0-0.188-0.053-0.323-0.16-0.403
	c-0.107-0.08-0.273-0.12-0.5-0.12H114.559z M115.132,20.385c0.237,0,0.439,0.022,0.607,0.067c0.169,0.045,0.306,0.109,0.413,0.193
	c0.108,0.083,0.187,0.184,0.237,0.302s0.075,0.252,0.075,0.4c0,0.085-0.012,0.167-0.037,0.245c-0.025,0.077-0.064,0.149-0.118,0.217
	c-0.051,0.067-0.118,0.128-0.2,0.183c-0.08,0.055-0.175,0.102-0.287,0.14c0.497,0.112,0.745,0.38,0.745,0.805
	c0,0.153-0.029,0.295-0.088,0.425c-0.058,0.13-0.143,0.243-0.255,0.338c-0.111,0.093-0.249,0.167-0.412,0.22
	c-0.163,0.053-0.35,0.08-0.56,0.08h-1.365v-3.615H115.132z M117.06,22.233h1.295v0.515h-1.295V22.233z M121.863,24h-0.67
	c-0.046,0-0.084-0.012-0.112-0.035c-0.027-0.023-0.048-0.05-0.065-0.08l-0.838-1.388c-0.013,0.042-0.029,0.078-0.047,0.108
	l-0.803,1.28c-0.02,0.028-0.043,0.055-0.07,0.08c-0.025,0.023-0.058,0.035-0.1,0.035h-0.627l1.2-1.86l-1.153-1.755h0.67
	c0.047,0,0.08,0.007,0.1,0.02c0.022,0.012,0.042,0.032,0.06,0.06l0.823,1.325c0.017-0.042,0.037-0.083,0.06-0.125l0.755-1.188
	c0.018-0.032,0.038-0.055,0.06-0.07c0.022-0.015,0.049-0.022,0.082-0.022h0.643l-1.163,1.727L121.863,24z M123.632,22.09
	c-0.07-0.085-0.147-0.145-0.23-0.18c-0.082-0.035-0.17-0.052-0.265-0.052c-0.094,0-0.178,0.017-0.253,0.052
	c-0.075,0.035-0.139,0.088-0.192,0.16c-0.054,0.07-0.094,0.16-0.123,0.27c-0.028,0.108-0.042,0.237-0.042,0.385
	c0,0.15,0.011,0.278,0.035,0.382c0.025,0.103,0.06,0.188,0.105,0.255c0.045,0.065,0.1,0.113,0.165,0.142
	c0.065,0.028,0.137,0.043,0.217,0.043c0.129,0,0.238-0.027,0.328-0.08c0.09-0.053,0.175-0.129,0.255-0.228V22.09z M124.249,20.285
	V24h-0.377c-0.082,0-0.134-0.038-0.155-0.112l-0.053-0.248c-0.103,0.118-0.222,0.214-0.357,0.288
	c-0.134,0.073-0.289,0.11-0.468,0.11c-0.14,0-0.268-0.029-0.385-0.087c-0.116-0.058-0.217-0.142-0.302-0.253
	c-0.084-0.112-0.149-0.249-0.195-0.413c-0.045-0.163-0.068-0.35-0.068-0.56c0-0.19,0.026-0.367,0.078-0.53
	c0.051-0.163,0.126-0.305,0.222-0.425c0.097-0.12,0.213-0.213,0.348-0.28c0.135-0.068,0.286-0.102,0.455-0.102
	c0.143,0,0.266,0.022,0.367,0.067c0.102,0.045,0.193,0.106,0.273,0.183v-1.353H124.249z"/>
<path class="st0" d="M136,26h-7v-1h7c1.314,0,2.597,0.288,3.544,1.249C140.487,27.207,141,28.736,141,31h-1
	c0-2.136-0.487-3.357-1.169-4.049C138.153,26.262,137.186,26,136,26z"/>
<path class="st0" d="M131.296,22.192c0,0.265-0.044,0.511-0.132,0.738c-0.087,0.225-0.21,0.42-0.37,0.585
	c-0.16,0.165-0.353,0.294-0.578,0.388c-0.225,0.092-0.475,0.138-0.75,0.138c-0.273,0-0.522-0.046-0.747-0.138
	c-0.225-0.093-0.419-0.222-0.58-0.388c-0.16-0.165-0.284-0.36-0.373-0.585c-0.088-0.227-0.132-0.472-0.132-0.738
	c0-0.265,0.044-0.51,0.132-0.735c0.089-0.227,0.213-0.423,0.373-0.587c0.161-0.165,0.355-0.293,0.58-0.385
	c0.225-0.093,0.474-0.14,0.747-0.14c0.184,0,0.356,0.022,0.518,0.065c0.161,0.042,0.31,0.102,0.445,0.18
	c0.135,0.077,0.256,0.171,0.362,0.282c0.109,0.11,0.2,0.233,0.275,0.37c0.075,0.137,0.132,0.285,0.17,0.445
	C131.276,21.847,131.296,22.016,131.296,22.192z M130.609,22.192c0-0.198-0.027-0.376-0.08-0.532
	c-0.054-0.158-0.129-0.292-0.228-0.403c-0.098-0.11-0.218-0.194-0.36-0.253c-0.14-0.058-0.298-0.087-0.475-0.087
	c-0.176,0-0.336,0.029-0.477,0.087c-0.14,0.058-0.26,0.142-0.36,0.253c-0.099,0.11-0.174,0.244-0.228,0.403
	c-0.053,0.157-0.08,0.334-0.08,0.532c0,0.198,0.027,0.377,0.08,0.535c0.054,0.157,0.129,0.29,0.228,0.4
	c0.1,0.108,0.22,0.192,0.36,0.25c0.141,0.058,0.301,0.087,0.477,0.087c0.177,0,0.335-0.029,0.475-0.087
	c0.142-0.058,0.262-0.142,0.36-0.25c0.099-0.11,0.174-0.243,0.228-0.4C130.582,22.569,130.609,22.391,130.609,22.192z
	 M133.239,23.475c0.125,0,0.23-0.015,0.315-0.045c0.085-0.03,0.153-0.07,0.203-0.12c0.052-0.05,0.088-0.108,0.11-0.175
	c0.023-0.067,0.035-0.138,0.035-0.212c0-0.078-0.013-0.148-0.038-0.21c-0.025-0.063-0.064-0.117-0.117-0.16
	c-0.053-0.045-0.123-0.079-0.208-0.102c-0.083-0.023-0.184-0.035-0.302-0.035h-0.678v1.06H133.239z M132.559,20.905v1.045h0.535
	c0.23,0,0.404-0.042,0.52-0.125c0.119-0.083,0.178-0.216,0.178-0.398c0-0.188-0.053-0.323-0.16-0.403
	c-0.107-0.08-0.273-0.12-0.5-0.12H132.559z M133.132,20.385c0.237,0,0.439,0.022,0.607,0.067c0.169,0.045,0.306,0.109,0.413,0.193
	c0.108,0.083,0.187,0.184,0.237,0.302c0.05,0.118,0.075,0.252,0.075,0.4c0,0.085-0.012,0.167-0.037,0.245
	c-0.025,0.077-0.064,0.149-0.118,0.217c-0.051,0.067-0.118,0.128-0.2,0.183c-0.08,0.055-0.175,0.102-0.287,0.14
	c0.497,0.112,0.745,0.38,0.745,0.805c0,0.153-0.029,0.295-0.088,0.425c-0.058,0.13-0.143,0.243-0.255,0.338
	c-0.111,0.093-0.249,0.167-0.412,0.22c-0.163,0.053-0.35,0.08-0.56,0.08h-1.365v-3.615H133.132z M135.06,22.233h1.295v0.515h-1.295
	V22.233z M139.863,24h-0.67c-0.046,0-0.084-0.012-0.112-0.035c-0.027-0.023-0.048-0.05-0.065-0.08l-0.838-1.388
	c-0.013,0.042-0.029,0.078-0.047,0.108l-0.803,1.28c-0.02,0.028-0.043,0.055-0.07,0.08c-0.025,0.023-0.058,0.035-0.1,0.035h-0.627
	l1.2-1.86l-1.153-1.755h0.67c0.047,0,0.08,0.007,0.1,0.02c0.022,0.012,0.042,0.032,0.06,0.06l0.823,1.325
	c0.017-0.042,0.037-0.083,0.06-0.125l0.755-1.188c0.018-0.032,0.038-0.055,0.06-0.07c0.022-0.015,0.049-0.022,0.082-0.022h0.643
	l-1.163,1.727L139.863,24z M141.632,22.09c-0.07-0.085-0.147-0.145-0.23-0.18c-0.082-0.035-0.17-0.052-0.265-0.052
	c-0.094,0-0.178,0.017-0.253,0.052s-0.139,0.088-0.192,0.16c-0.054,0.07-0.094,0.16-0.123,0.27
	c-0.028,0.108-0.042,0.237-0.042,0.385c0,0.15,0.011,0.278,0.035,0.382c0.025,0.103,0.06,0.188,0.105,0.255
	c0.045,0.065,0.1,0.113,0.165,0.142c0.065,0.028,0.137,0.043,0.217,0.043c0.129,0,0.238-0.027,0.328-0.08
	c0.09-0.053,0.175-0.129,0.255-0.228V22.09z M142.249,20.285V24h-0.377c-0.082,0-0.134-0.038-0.155-0.112l-0.053-0.248
	c-0.103,0.118-0.222,0.214-0.357,0.288c-0.134,0.073-0.289,0.11-0.468,0.11c-0.14,0-0.268-0.029-0.385-0.087
	c-0.116-0.058-0.217-0.142-0.302-0.253c-0.084-0.112-0.149-0.249-0.195-0.413c-0.045-0.163-0.068-0.35-0.068-0.56
	c0-0.19,0.026-0.367,0.078-0.53c0.051-0.163,0.126-0.305,0.222-0.425c0.097-0.12,0.213-0.213,0.348-0.28
	c0.135-0.068,0.286-0.102,0.455-0.102c0.143,0,0.266,0.022,0.367,0.067c0.102,0.045,0.193,0.106,0.273,0.183v-1.353H142.249z"/>
<path class="st0" d="M151.605,23.147c0.037,0,0.069,0.014,0.098,0.043l0.265,0.288c-0.147,0.182-0.328,0.321-0.543,0.417
	c-0.213,0.097-0.47,0.145-0.77,0.145c-0.268,0-0.51-0.046-0.725-0.138c-0.213-0.092-0.396-0.219-0.547-0.382
	c-0.152-0.163-0.269-0.358-0.35-0.585c-0.08-0.227-0.12-0.474-0.12-0.743c0-0.272,0.043-0.52,0.13-0.745
	c0.086-0.227,0.208-0.422,0.365-0.585c0.158-0.163,0.346-0.29,0.565-0.38c0.218-0.092,0.46-0.138,0.725-0.138
	c0.263,0,0.496,0.043,0.7,0.13c0.205,0.087,0.379,0.2,0.522,0.34l-0.225,0.313c-0.013,0.02-0.031,0.038-0.052,0.052
	c-0.02,0.015-0.049,0.022-0.085,0.022c-0.025,0-0.051-0.007-0.078-0.02c-0.026-0.015-0.056-0.033-0.087-0.053
	c-0.032-0.022-0.069-0.045-0.11-0.07c-0.042-0.025-0.09-0.047-0.145-0.067c-0.055-0.022-0.119-0.039-0.193-0.052
	c-0.071-0.015-0.155-0.023-0.25-0.023c-0.161,0-0.31,0.029-0.445,0.087c-0.133,0.057-0.248,0.14-0.345,0.25
	c-0.096,0.108-0.171,0.242-0.225,0.4c-0.053,0.157-0.08,0.336-0.08,0.537c0,0.203,0.029,0.384,0.085,0.543
	c0.059,0.158,0.137,0.292,0.235,0.4c0.099,0.108,0.214,0.192,0.348,0.25c0.133,0.057,0.276,0.085,0.43,0.085
	c0.091,0,0.174-0.005,0.247-0.015c0.075-0.01,0.144-0.026,0.205-0.048c0.064-0.022,0.123-0.049,0.178-0.082
	c0.056-0.035,0.112-0.078,0.167-0.128c0.017-0.015,0.034-0.027,0.053-0.035C151.566,23.153,151.585,23.147,151.605,23.147z
	 M157.238,20.385L156.116,24h-0.608l-0.79-2.47c-0.021-0.06-0.041-0.133-0.06-0.22c-0.01,0.042-0.02,0.081-0.03,0.118
	c-0.01,0.037-0.02,0.071-0.032,0.103L153.798,24h-0.61l-1.12-3.615h0.563c0.058,0,0.107,0.014,0.145,0.042
	c0.04,0.027,0.067,0.063,0.08,0.11l0.615,2.163c0.013,0.053,0.026,0.112,0.037,0.175c0.014,0.062,0.027,0.127,0.04,0.195
	c0.014-0.07,0.028-0.136,0.043-0.198c0.017-0.062,0.034-0.119,0.052-0.172l0.71-2.163c0.014-0.038,0.04-0.073,0.078-0.105
	c0.04-0.032,0.088-0.048,0.145-0.048h0.197c0.059,0,0.106,0.014,0.143,0.042s0.064,0.065,0.082,0.11l0.708,2.163
	c0.035,0.103,0.067,0.222,0.095,0.358c0.022-0.132,0.046-0.251,0.072-0.358l0.615-2.163c0.01-0.042,0.035-0.078,0.075-0.108
	c0.042-0.03,0.091-0.045,0.148-0.045H157.238z"/>
<path class="st1" d="M159,31c0-1.237-1-2.5-1-4s-0.5-2.5-1-2.5s-1,1-2,1s-1,0.5-1.5,0.5s-0.5-0.5-1.5-0.5s-5,0-5,0"/>
<path class="st0" d="M168.301,22.105c0.126,0,0.236-0.016,0.33-0.047c0.095-0.032,0.172-0.075,0.232-0.13
	c0.062-0.057,0.108-0.123,0.138-0.2c0.03-0.077,0.045-0.161,0.045-0.253c0-0.183-0.061-0.324-0.183-0.423
	c-0.12-0.098-0.304-0.147-0.552-0.147h-0.43v1.2H168.301z M170.031,24h-0.608c-0.115,0-0.198-0.045-0.25-0.135l-0.76-1.157
	c-0.028-0.043-0.06-0.074-0.095-0.093c-0.033-0.018-0.083-0.028-0.15-0.028h-0.287V24h-0.673v-3.615h1.103
	c0.245,0,0.455,0.026,0.63,0.077c0.176,0.05,0.32,0.121,0.432,0.212c0.113,0.092,0.197,0.202,0.25,0.33
	c0.053,0.127,0.08,0.267,0.08,0.42c0,0.122-0.018,0.237-0.055,0.345c-0.035,0.108-0.087,0.207-0.155,0.295
	c-0.067,0.088-0.15,0.166-0.25,0.233c-0.098,0.067-0.211,0.119-0.337,0.157c0.043,0.025,0.083,0.055,0.12,0.09
	c0.036,0.033,0.07,0.073,0.1,0.12L170.031,24z M175.153,20.385L174.03,24h-0.607l-0.79-2.47c-0.022-0.06-0.042-0.133-0.06-0.22
	c-0.01,0.042-0.02,0.081-0.03,0.118s-0.021,0.071-0.033,0.103L171.713,24h-0.61l-1.12-3.615h0.562c0.059,0,0.107,0.014,0.145,0.042
	c0.04,0.027,0.067,0.063,0.08,0.11l0.615,2.163c0.014,0.053,0.026,0.112,0.038,0.175c0.013,0.062,0.027,0.127,0.04,0.195
	c0.013-0.07,0.027-0.136,0.042-0.198c0.017-0.062,0.035-0.119,0.053-0.172l0.71-2.163c0.013-0.038,0.039-0.073,0.077-0.105
	c0.04-0.032,0.089-0.048,0.145-0.048h0.198c0.058,0,0.106,0.014,0.142,0.042c0.037,0.028,0.065,0.065,0.083,0.11l0.707,2.163
	c0.035,0.103,0.067,0.222,0.095,0.358c0.022-0.132,0.046-0.251,0.073-0.358l0.615-2.163c0.01-0.042,0.035-0.078,0.075-0.108
	c0.042-0.03,0.091-0.045,0.147-0.045H175.153z"/>
<path class="st1" d="M177,31c0-1.237-1-2.5-1-4s-0.5-2.5-1-2.5s-1,1-2,1s-1,0.5-1.5,0.5s-0.5-0.5-1.5-0.5s-5,0-5,0"/>
<path class="st0" d="M5.006,45.855C4.255,46.897,4,48.163,4,49H3c0-0.997,0.295-2.481,1.194-3.73C5.112,43.996,6.637,43,9,43
	c2.363,0,3.888,0.996,4.806,2.27C14.705,46.519,15,48.003,15,49h-1c0-0.837-0.255-2.103-1.006-3.145C12.262,44.838,11.037,44,9,44
	C6.963,44,5.738,44.838,5.006,45.855z"/>
<path class="st1" d="M23,49c0-3,1-6,4-6s4,3,4,6"/>
<path class="st0" d="M41.006,45.855C40.255,46.897,40,48.163,40,49h-1c0-0.997,0.295-2.481,1.194-3.73
	C41.112,43.996,42.637,43,45,43s3.888,0.996,4.806,2.27C50.705,46.519,51,48.003,51,49h-1c0-0.837-0.255-2.103-1.006-3.145
	C48.262,44.838,47.037,44,45,44S41.738,44.838,41.006,45.855z"/>
<path class="st0" d="M41.296,40.193c0,0.265-0.044,0.511-0.132,0.737c-0.087,0.225-0.21,0.42-0.37,0.585s-0.353,0.294-0.577,0.388
	c-0.225,0.092-0.475,0.138-0.75,0.138c-0.273,0-0.522-0.046-0.748-0.138c-0.225-0.093-0.418-0.222-0.58-0.388
	c-0.16-0.165-0.284-0.36-0.373-0.585c-0.088-0.227-0.132-0.472-0.132-0.737s0.044-0.51,0.132-0.735
	c0.088-0.227,0.213-0.423,0.373-0.588c0.162-0.165,0.355-0.293,0.58-0.385c0.225-0.093,0.474-0.14,0.748-0.14
	c0.183,0,0.356,0.022,0.517,0.065c0.162,0.042,0.31,0.102,0.445,0.18c0.135,0.077,0.256,0.171,0.363,0.283
	c0.108,0.11,0.2,0.233,0.275,0.37s0.132,0.285,0.17,0.445C41.276,39.847,41.296,40.016,41.296,40.193z M40.609,40.193
	c0-0.198-0.027-0.376-0.08-0.533c-0.053-0.158-0.129-0.292-0.228-0.403s-0.218-0.194-0.36-0.252
	c-0.14-0.058-0.298-0.088-0.475-0.088s-0.336,0.029-0.478,0.088c-0.14,0.058-0.26,0.142-0.36,0.252
	c-0.098,0.11-0.174,0.244-0.228,0.403c-0.053,0.157-0.08,0.334-0.08,0.533s0.027,0.377,0.08,0.535c0.053,0.157,0.129,0.29,0.228,0.4
	c0.1,0.108,0.22,0.192,0.36,0.25c0.142,0.058,0.301,0.088,0.478,0.088s0.335-0.029,0.475-0.088c0.142-0.058,0.262-0.142,0.36-0.25
	c0.098-0.11,0.174-0.243,0.228-0.4C40.582,40.569,40.609,40.391,40.609,40.193z M43.239,41.475c0.125,0,0.23-0.015,0.315-0.045
	c0.085-0.03,0.153-0.07,0.202-0.12c0.052-0.05,0.088-0.108,0.11-0.175c0.023-0.067,0.035-0.137,0.035-0.212
	c0-0.078-0.013-0.148-0.038-0.21c-0.025-0.063-0.064-0.117-0.118-0.16c-0.053-0.045-0.122-0.079-0.208-0.103
	c-0.083-0.023-0.184-0.035-0.302-0.035h-0.678v1.06H43.239z M42.559,38.905v1.045h0.535c0.23,0,0.403-0.042,0.52-0.125
	c0.118-0.083,0.178-0.216,0.178-0.397c0-0.188-0.053-0.323-0.16-0.403c-0.107-0.08-0.273-0.12-0.5-0.12H42.559z M43.132,38.385
	c0.237,0,0.439,0.023,0.607,0.068c0.168,0.045,0.306,0.109,0.413,0.193c0.108,0.083,0.188,0.184,0.237,0.302
	c0.05,0.118,0.075,0.252,0.075,0.4c0,0.085-0.013,0.167-0.038,0.245c-0.025,0.077-0.064,0.149-0.118,0.218
	c-0.052,0.067-0.118,0.127-0.2,0.182c-0.08,0.055-0.176,0.102-0.288,0.14c0.497,0.112,0.745,0.38,0.745,0.805
	c0,0.153-0.029,0.295-0.087,0.425c-0.058,0.13-0.143,0.243-0.255,0.338c-0.112,0.093-0.249,0.167-0.412,0.22
	c-0.163,0.053-0.35,0.08-0.56,0.08h-1.365v-3.615H43.132z M45.06,40.232h1.295v0.515H45.06V40.232z M49.863,42h-0.67
	c-0.047,0-0.084-0.012-0.113-0.035c-0.027-0.023-0.048-0.05-0.065-0.08l-0.838-1.387c-0.013,0.042-0.029,0.077-0.047,0.107
	l-0.803,1.28c-0.02,0.028-0.043,0.055-0.07,0.08C47.233,41.988,47.2,42,47.158,42h-0.628l1.2-1.86l-1.153-1.755h0.67
	c0.047,0,0.08,0.007,0.1,0.02c0.022,0.012,0.042,0.032,0.06,0.06l0.822,1.325c0.017-0.042,0.037-0.083,0.06-0.125l0.755-1.188
	c0.018-0.032,0.038-0.055,0.06-0.07c0.022-0.015,0.049-0.023,0.083-0.023h0.642l-1.162,1.728L49.863,42z M51.632,40.09
	c-0.07-0.085-0.147-0.145-0.23-0.18c-0.082-0.035-0.17-0.053-0.265-0.053c-0.093,0-0.177,0.018-0.252,0.053s-0.139,0.088-0.193,0.16
	c-0.053,0.07-0.094,0.16-0.122,0.27c-0.028,0.108-0.043,0.237-0.043,0.385c0,0.15,0.012,0.278,0.035,0.382
	c0.025,0.103,0.06,0.188,0.105,0.255c0.045,0.065,0.1,0.112,0.165,0.143c0.065,0.028,0.138,0.042,0.218,0.042
	c0.128,0,0.237-0.027,0.327-0.08c0.09-0.053,0.175-0.129,0.255-0.227V40.09z M52.249,38.285V42h-0.377
	c-0.082,0-0.133-0.037-0.155-0.112l-0.053-0.248c-0.103,0.118-0.222,0.214-0.357,0.288c-0.133,0.073-0.289,0.11-0.468,0.11
	c-0.14,0-0.268-0.029-0.385-0.087s-0.217-0.143-0.303-0.253c-0.083-0.112-0.148-0.249-0.195-0.412
	c-0.045-0.163-0.067-0.35-0.067-0.56c0-0.19,0.026-0.367,0.077-0.53s0.126-0.305,0.222-0.425s0.212-0.213,0.347-0.28
	c0.135-0.068,0.287-0.103,0.455-0.103c0.143,0,0.266,0.022,0.368,0.068c0.102,0.045,0.193,0.106,0.273,0.182v-1.353H52.249z"/>
<path class="st1" d="M59,49c0-2,1.5-1.501,1.5-3.5s1-2,1.5-2s0.5,1,1,1s0.5-1,1-1s1.5-0.001,1.5,2S67,47,67,49"/>
<path class="st0" d="M61.605,41.147c0.037,0,0.069,0.014,0.097,0.042l0.265,0.288c-0.147,0.182-0.327,0.321-0.542,0.417
	c-0.213,0.097-0.47,0.145-0.77,0.145c-0.268,0-0.51-0.046-0.725-0.138c-0.213-0.092-0.396-0.219-0.547-0.382
	c-0.152-0.163-0.268-0.358-0.35-0.585c-0.08-0.227-0.12-0.474-0.12-0.743c0-0.272,0.043-0.52,0.13-0.745
	c0.087-0.227,0.208-0.422,0.365-0.585c0.158-0.163,0.347-0.29,0.565-0.38c0.218-0.092,0.46-0.137,0.725-0.137
	c0.263,0,0.497,0.043,0.7,0.13c0.205,0.087,0.379,0.2,0.522,0.34l-0.225,0.313c-0.013,0.02-0.031,0.038-0.053,0.053
	c-0.02,0.015-0.048,0.022-0.085,0.022c-0.025,0-0.051-0.007-0.077-0.02c-0.027-0.015-0.056-0.032-0.088-0.052
	c-0.032-0.022-0.068-0.045-0.11-0.07c-0.042-0.025-0.09-0.048-0.145-0.068c-0.055-0.022-0.119-0.039-0.192-0.053
	c-0.072-0.015-0.155-0.022-0.25-0.022c-0.162,0-0.31,0.029-0.445,0.088c-0.133,0.057-0.248,0.14-0.345,0.25
	c-0.097,0.108-0.172,0.242-0.225,0.4c-0.053,0.157-0.08,0.336-0.08,0.538c0,0.203,0.028,0.384,0.085,0.542
	c0.058,0.158,0.137,0.292,0.235,0.4c0.098,0.108,0.214,0.192,0.347,0.25c0.133,0.057,0.277,0.085,0.43,0.085
	c0.092,0,0.174-0.005,0.248-0.015c0.075-0.01,0.143-0.026,0.205-0.048c0.063-0.022,0.123-0.049,0.178-0.083
	c0.057-0.035,0.112-0.077,0.167-0.128c0.017-0.015,0.034-0.027,0.052-0.035C61.566,41.153,61.585,41.147,61.605,41.147z
	 M67.238,38.385L66.116,42h-0.607l-0.79-2.47c-0.022-0.06-0.042-0.133-0.06-0.22c-0.01,0.042-0.02,0.081-0.03,0.118
	c-0.01,0.037-0.021,0.071-0.033,0.102L63.798,42h-0.61l-1.12-3.615h0.563c0.058,0,0.107,0.014,0.145,0.043
	c0.04,0.027,0.067,0.063,0.08,0.11l0.615,2.163c0.013,0.053,0.026,0.112,0.037,0.175c0.013,0.062,0.027,0.127,0.04,0.195
	c0.013-0.07,0.028-0.136,0.042-0.197c0.017-0.062,0.034-0.119,0.052-0.173l0.71-2.163c0.013-0.038,0.039-0.073,0.077-0.105
	c0.04-0.032,0.088-0.048,0.145-0.048h0.198c0.058,0,0.106,0.014,0.143,0.043c0.037,0.028,0.064,0.065,0.082,0.11l0.708,2.163
	c0.035,0.103,0.067,0.222,0.095,0.357c0.022-0.132,0.046-0.251,0.072-0.357l0.615-2.163c0.01-0.042,0.035-0.077,0.075-0.107
	c0.042-0.03,0.091-0.045,0.147-0.045H67.238z"/>
<path class="st1" d="M77,49c0-2,1.5-1.501,1.5-3.5s1-2,1.5-2s0.5,1,1,1s0.5-1,1-1s1.5-0.001,1.5,2S85,47,85,49"/>
<path class="st0" d="M78.301,40.105c0.127,0,0.237-0.016,0.33-0.048c0.095-0.032,0.173-0.075,0.232-0.13
	c0.062-0.057,0.108-0.123,0.138-0.2c0.03-0.077,0.045-0.161,0.045-0.253c0-0.183-0.061-0.324-0.183-0.422
	c-0.12-0.098-0.304-0.148-0.552-0.148h-0.43v1.2H78.301z M80.031,42h-0.607c-0.115,0-0.198-0.045-0.25-0.135l-0.76-1.158
	c-0.028-0.043-0.06-0.074-0.095-0.092c-0.033-0.018-0.083-0.028-0.15-0.028h-0.287V42h-0.673v-3.615h1.103
	c0.245,0,0.455,0.026,0.63,0.078c0.177,0.05,0.321,0.121,0.433,0.212c0.113,0.092,0.197,0.202,0.25,0.33
	c0.053,0.127,0.08,0.267,0.08,0.42c0,0.122-0.018,0.237-0.055,0.345c-0.035,0.108-0.087,0.207-0.155,0.295
	c-0.067,0.088-0.15,0.166-0.25,0.233c-0.098,0.067-0.211,0.119-0.338,0.158c0.043,0.025,0.083,0.055,0.12,0.09
	c0.037,0.033,0.07,0.073,0.1,0.12L80.031,42z M85.153,38.385L84.03,42h-0.608l-0.79-2.47c-0.022-0.06-0.042-0.133-0.06-0.22
	c-0.01,0.042-0.02,0.081-0.03,0.118c-0.01,0.037-0.021,0.071-0.033,0.102L81.713,42h-0.61l-1.12-3.615h0.563
	c0.058,0,0.107,0.014,0.145,0.043c0.04,0.027,0.067,0.063,0.08,0.11l0.615,2.163c0.013,0.053,0.026,0.112,0.037,0.175
	c0.013,0.062,0.027,0.127,0.04,0.195c0.013-0.07,0.028-0.136,0.043-0.197c0.017-0.062,0.034-0.119,0.052-0.173l0.71-2.163
	c0.013-0.038,0.039-0.073,0.077-0.105c0.04-0.032,0.088-0.048,0.145-0.048h0.197c0.058,0,0.106,0.014,0.143,0.043
	c0.037,0.028,0.064,0.065,0.083,0.11L83.62,40.7c0.035,0.103,0.067,0.222,0.095,0.357c0.022-0.132,0.046-0.251,0.073-0.357
	l0.615-2.163c0.01-0.042,0.035-0.077,0.075-0.107c0.042-0.03,0.091-0.045,0.147-0.045H85.153z"/>
<path class="st0" d="M10.462,62.087C5.61,62.107,4.011,65.678,4.008,67L3,66.997c0.004-1.98,2.145-6.104,7.719-5.995H15v1.087
	h-4.247c-0.015,0-0.029,0-0.044,0h-0.247V62.087z"/>
<path class="st0" d="M26,62h7v-1h-7c-1.314,0-2.597,0.288-3.544,1.249C21.513,63.207,21,64.736,21,67h1
	c0-2.136,0.487-3.357,1.169-4.049C23.847,62.262,24.814,62,26,62z"/>
<path class="st0" d="M46.462,62.087c-4.852,0.019-6.451,3.59-6.454,4.913L39,66.997c0.004-1.98,2.145-6.104,7.718-5.995H51v1.087
	h-4.247c-0.015,0-0.029,0-0.044,0h-0.247V62.087z"/>
<path class="st0" d="M41.461,57.9h0.157c0.063,0,0.116-0.008,0.158-0.025c0.042-0.018,0.077-0.047,0.108-0.085l0.997-1.263
	c0.042-0.053,0.085-0.09,0.13-0.11c0.047-0.022,0.105-0.033,0.175-0.033h0.58l-1.218,1.503c-0.072,0.092-0.146,0.157-0.222,0.195
	c0.055,0.02,0.104,0.048,0.148,0.085c0.045,0.035,0.087,0.082,0.127,0.14L43.856,60h-0.593c-0.08,0-0.14-0.011-0.18-0.033
	c-0.038-0.023-0.071-0.057-0.097-0.1l-1.022-1.335c-0.032-0.045-0.068-0.077-0.11-0.095c-0.042-0.018-0.102-0.028-0.18-0.028h-0.212
	V60h-0.673v-3.615h0.673V57.9z M44.083,57.393c0.025-0.173,0.073-0.325,0.145-0.455c0.072-0.132,0.161-0.241,0.267-0.327
	c0.108-0.088,0.232-0.154,0.37-0.198c0.14-0.045,0.29-0.067,0.45-0.067c0.167,0,0.317,0.024,0.45,0.072
	c0.135,0.047,0.25,0.112,0.345,0.198c0.095,0.083,0.167,0.182,0.217,0.295c0.052,0.113,0.077,0.236,0.077,0.368
	c0,0.115-0.013,0.217-0.04,0.305c-0.025,0.087-0.062,0.162-0.11,0.228c-0.048,0.065-0.108,0.12-0.18,0.165
	c-0.072,0.045-0.153,0.083-0.243,0.113c0.217,0.068,0.378,0.172,0.485,0.313c0.107,0.14,0.16,0.316,0.16,0.528
	c0,0.18-0.033,0.339-0.1,0.477c-0.067,0.138-0.157,0.255-0.27,0.35c-0.113,0.093-0.245,0.164-0.395,0.212
	c-0.148,0.048-0.306,0.073-0.472,0.073c-0.182,0-0.34-0.021-0.475-0.063c-0.135-0.042-0.252-0.103-0.352-0.185
	c-0.1-0.082-0.185-0.182-0.255-0.3s-0.13-0.255-0.18-0.41l0.272-0.112c0.072-0.03,0.138-0.038,0.2-0.023
	c0.063,0.013,0.109,0.047,0.138,0.1c0.03,0.058,0.063,0.116,0.097,0.173c0.037,0.057,0.08,0.107,0.13,0.153
	c0.05,0.043,0.108,0.079,0.175,0.107c0.068,0.027,0.149,0.04,0.243,0.04c0.105,0,0.197-0.017,0.275-0.05
	c0.078-0.035,0.143-0.08,0.195-0.135c0.053-0.055,0.093-0.116,0.118-0.182c0.027-0.068,0.04-0.137,0.04-0.205
	c0-0.087-0.009-0.165-0.028-0.235c-0.018-0.072-0.057-0.132-0.115-0.183c-0.058-0.05-0.142-0.089-0.252-0.118
	c-0.108-0.028-0.254-0.042-0.438-0.042v-0.44c0.152-0.002,0.278-0.016,0.377-0.042c0.1-0.027,0.179-0.063,0.238-0.11
	c0.06-0.048,0.102-0.106,0.125-0.173c0.023-0.067,0.035-0.14,0.035-0.22c0-0.17-0.048-0.299-0.143-0.387
	c-0.095-0.088-0.222-0.132-0.38-0.132c-0.073,0-0.141,0.011-0.202,0.032c-0.062,0.02-0.118,0.049-0.167,0.088
	c-0.048,0.037-0.089,0.08-0.122,0.13c-0.033,0.05-0.058,0.105-0.075,0.165c-0.028,0.077-0.066,0.128-0.112,0.153
	c-0.045,0.025-0.109,0.031-0.193,0.018L44.083,57.393z M47.729,57.697c0.08-0.017,0.157-0.028,0.23-0.035
	c0.073-0.008,0.144-0.012,0.212-0.012c0.19,0,0.358,0.028,0.503,0.085c0.145,0.057,0.267,0.135,0.365,0.235
	c0.098,0.1,0.173,0.217,0.222,0.352c0.05,0.133,0.075,0.278,0.075,0.433c0,0.192-0.034,0.367-0.103,0.525
	c-0.067,0.158-0.16,0.294-0.28,0.408c-0.12,0.112-0.263,0.198-0.427,0.26c-0.163,0.062-0.342,0.093-0.535,0.093
	c-0.113,0-0.221-0.012-0.323-0.035c-0.102-0.023-0.197-0.054-0.287-0.093c-0.088-0.04-0.171-0.085-0.248-0.135
	c-0.075-0.052-0.142-0.106-0.202-0.162l0.19-0.263c0.04-0.057,0.093-0.085,0.158-0.085c0.042,0,0.084,0.013,0.127,0.04
	c0.043,0.027,0.093,0.056,0.148,0.088c0.057,0.032,0.122,0.061,0.197,0.087c0.077,0.027,0.168,0.04,0.275,0.04
	c0.113,0,0.213-0.018,0.3-0.055c0.087-0.037,0.158-0.087,0.215-0.153c0.058-0.067,0.102-0.145,0.13-0.235
	c0.03-0.092,0.045-0.191,0.045-0.298c0-0.197-0.057-0.35-0.173-0.46c-0.113-0.112-0.282-0.167-0.505-0.167
	c-0.172,0-0.347,0.032-0.528,0.095l-0.385-0.11l0.3-1.755h1.785v0.263c0,0.088-0.028,0.16-0.083,0.215s-0.148,0.083-0.28,0.083
	h-0.993L47.729,57.697z"/>
<path class="st0" d="M64.462,62.087c-4.852,0.019-6.451,3.59-6.454,4.913L57,66.997c0.004-1.98,2.145-6.104,7.718-5.995H69v1.087
	h-4.247c-0.015,0-0.029,0-0.044,0h-0.247V62.087z"/>
<path class="st0" d="M59.296,58.193c0,0.265-0.044,0.511-0.132,0.737c-0.087,0.225-0.21,0.42-0.37,0.585s-0.353,0.294-0.577,0.388
	c-0.225,0.092-0.475,0.138-0.75,0.138c-0.273,0-0.522-0.046-0.748-0.138c-0.225-0.093-0.418-0.222-0.58-0.388
	c-0.16-0.165-0.284-0.36-0.373-0.585c-0.088-0.227-0.132-0.472-0.132-0.737s0.044-0.51,0.132-0.735
	c0.088-0.227,0.213-0.423,0.373-0.588c0.162-0.165,0.355-0.293,0.58-0.385c0.225-0.093,0.474-0.14,0.748-0.14
	c0.183,0,0.356,0.022,0.517,0.065c0.162,0.042,0.31,0.102,0.445,0.18c0.135,0.077,0.256,0.171,0.363,0.283
	c0.108,0.11,0.2,0.233,0.275,0.37s0.132,0.285,0.17,0.445C59.276,57.847,59.296,58.016,59.296,58.193z M58.609,58.193
	c0-0.198-0.027-0.376-0.08-0.533c-0.053-0.158-0.129-0.292-0.228-0.403s-0.218-0.194-0.36-0.252
	c-0.14-0.058-0.298-0.088-0.475-0.088s-0.336,0.029-0.478,0.088c-0.14,0.058-0.26,0.142-0.36,0.252
	c-0.098,0.11-0.174,0.244-0.228,0.403c-0.053,0.157-0.08,0.334-0.08,0.533s0.027,0.377,0.08,0.535c0.053,0.157,0.129,0.29,0.228,0.4
	c0.1,0.108,0.22,0.192,0.36,0.25c0.142,0.058,0.301,0.088,0.478,0.088s0.335-0.029,0.475-0.088c0.142-0.058,0.262-0.142,0.36-0.25
	c0.098-0.11,0.174-0.243,0.228-0.4C58.582,58.569,58.609,58.391,58.609,58.193z M61.239,59.475c0.125,0,0.23-0.015,0.315-0.045
	c0.085-0.03,0.153-0.07,0.202-0.12c0.052-0.05,0.088-0.108,0.11-0.175c0.023-0.067,0.035-0.137,0.035-0.212
	c0-0.078-0.013-0.148-0.038-0.21c-0.025-0.063-0.064-0.117-0.118-0.16c-0.053-0.045-0.122-0.079-0.208-0.103
	c-0.083-0.023-0.184-0.035-0.302-0.035h-0.678v1.06H61.239z M60.559,56.905v1.045h0.535c0.23,0,0.403-0.042,0.52-0.125
	c0.118-0.083,0.178-0.216,0.178-0.397c0-0.188-0.053-0.323-0.16-0.403c-0.107-0.08-0.273-0.12-0.5-0.12H60.559z M61.132,56.385
	c0.237,0,0.439,0.023,0.607,0.068c0.168,0.045,0.306,0.109,0.413,0.193c0.108,0.083,0.188,0.184,0.237,0.302
	c0.05,0.118,0.075,0.252,0.075,0.4c0,0.085-0.013,0.167-0.038,0.245c-0.025,0.077-0.064,0.149-0.118,0.218
	c-0.052,0.067-0.118,0.127-0.2,0.182c-0.08,0.055-0.176,0.102-0.288,0.14c0.497,0.112,0.745,0.38,0.745,0.805
	c0,0.153-0.029,0.295-0.087,0.425c-0.058,0.13-0.143,0.243-0.255,0.338c-0.112,0.093-0.249,0.167-0.412,0.22
	c-0.163,0.053-0.35,0.08-0.56,0.08h-1.365v-3.615H61.132z M63.06,58.232h1.295v0.515H63.06V58.232z M67.863,60h-0.67
	c-0.047,0-0.084-0.012-0.112-0.035c-0.027-0.023-0.048-0.05-0.065-0.08l-0.838-1.387c-0.013,0.042-0.029,0.077-0.048,0.107
	l-0.802,1.28c-0.02,0.028-0.043,0.055-0.07,0.08C65.233,59.988,65.2,60,65.158,60h-0.628l1.2-1.86l-1.153-1.755h0.67
	c0.047,0,0.08,0.007,0.1,0.02c0.022,0.012,0.042,0.032,0.06,0.06l0.823,1.325c0.017-0.042,0.037-0.083,0.06-0.125l0.755-1.188
	c0.018-0.032,0.038-0.055,0.06-0.07c0.022-0.015,0.049-0.023,0.082-0.023h0.643l-1.162,1.728L67.863,60z M69.632,58.09
	c-0.07-0.085-0.147-0.145-0.23-0.18c-0.082-0.035-0.17-0.053-0.265-0.053c-0.093,0-0.178,0.018-0.253,0.053s-0.139,0.088-0.192,0.16
	c-0.053,0.07-0.094,0.16-0.123,0.27c-0.028,0.108-0.042,0.237-0.042,0.385c0,0.15,0.012,0.278,0.035,0.382
	c0.025,0.103,0.06,0.188,0.105,0.255c0.045,0.065,0.1,0.112,0.165,0.143c0.065,0.028,0.137,0.042,0.217,0.042
	c0.128,0,0.237-0.027,0.327-0.08c0.09-0.053,0.175-0.129,0.255-0.227V58.09z M70.249,56.285V60h-0.377
	c-0.082,0-0.133-0.037-0.155-0.112l-0.052-0.248c-0.103,0.118-0.222,0.214-0.357,0.288c-0.133,0.073-0.289,0.11-0.467,0.11
	c-0.14,0-0.268-0.029-0.385-0.087s-0.217-0.143-0.302-0.253c-0.083-0.112-0.148-0.249-0.195-0.412
	c-0.045-0.163-0.068-0.35-0.068-0.56c0-0.19,0.026-0.367,0.077-0.53c0.052-0.163,0.126-0.305,0.223-0.425s0.213-0.213,0.347-0.28
	c0.135-0.068,0.287-0.103,0.455-0.103c0.143,0,0.266,0.022,0.368,0.068c0.102,0.045,0.193,0.106,0.272,0.182v-1.353H70.249z"/>
<path class="st1" d="M75,67c0-1.237,1-2.5,1-4c0-1.5,0.5-2.5,1-2.5s1,1,2,1s1,0.5,1.5,0.5s0.5-0.5,1.5-0.5s5,0,5,0"/>
<path class="st0" d="M79.605,59.147c0.037,0,0.069,0.014,0.097,0.042l0.265,0.288c-0.147,0.182-0.327,0.321-0.542,0.417
	c-0.213,0.097-0.47,0.145-0.77,0.145c-0.268,0-0.51-0.046-0.725-0.138c-0.213-0.092-0.396-0.219-0.548-0.382
	c-0.152-0.163-0.268-0.358-0.35-0.585c-0.08-0.227-0.12-0.474-0.12-0.743c0-0.272,0.043-0.52,0.13-0.745
	c0.087-0.227,0.208-0.422,0.365-0.585c0.158-0.163,0.347-0.29,0.565-0.38c0.218-0.092,0.46-0.137,0.725-0.137
	c0.263,0,0.497,0.043,0.7,0.13c0.205,0.087,0.379,0.2,0.522,0.34l-0.225,0.313c-0.013,0.02-0.031,0.038-0.052,0.053
	c-0.02,0.015-0.048,0.022-0.085,0.022c-0.025,0-0.051-0.007-0.077-0.02c-0.027-0.015-0.056-0.032-0.088-0.052
	c-0.032-0.022-0.068-0.045-0.11-0.07c-0.042-0.025-0.09-0.048-0.145-0.068c-0.055-0.022-0.119-0.039-0.193-0.053
	c-0.072-0.015-0.155-0.022-0.25-0.022c-0.162,0-0.31,0.029-0.445,0.088c-0.133,0.057-0.248,0.14-0.345,0.25
	c-0.097,0.108-0.172,0.242-0.225,0.4c-0.053,0.157-0.08,0.336-0.08,0.538c0,0.203,0.028,0.384,0.085,0.542
	c0.058,0.158,0.137,0.292,0.235,0.4c0.098,0.108,0.214,0.192,0.348,0.25c0.133,0.057,0.277,0.085,0.43,0.085
	c0.092,0,0.174-0.005,0.247-0.015c0.075-0.01,0.143-0.026,0.205-0.048c0.063-0.022,0.122-0.049,0.177-0.083
	c0.057-0.035,0.113-0.077,0.168-0.128c0.017-0.015,0.034-0.027,0.052-0.035C79.566,59.153,79.585,59.147,79.605,59.147z
	 M85.238,56.385L84.116,60h-0.607l-0.79-2.47c-0.022-0.06-0.042-0.133-0.06-0.22c-0.01,0.042-0.02,0.081-0.03,0.118
	c-0.01,0.037-0.021,0.071-0.033,0.102L81.798,60h-0.61l-1.12-3.615h0.563c0.058,0,0.107,0.014,0.145,0.043
	c0.04,0.027,0.067,0.063,0.08,0.11l0.615,2.163c0.013,0.053,0.026,0.112,0.037,0.175c0.013,0.062,0.027,0.127,0.04,0.195
	c0.013-0.07,0.027-0.136,0.042-0.197c0.017-0.062,0.034-0.119,0.053-0.173l0.71-2.163c0.013-0.038,0.039-0.073,0.077-0.105
	c0.04-0.032,0.088-0.048,0.145-0.048h0.198c0.058,0,0.106,0.014,0.143,0.043c0.037,0.028,0.064,0.065,0.082,0.11l0.708,2.163
	c0.035,0.103,0.067,0.222,0.095,0.357c0.022-0.132,0.046-0.251,0.072-0.357l0.615-2.163c0.01-0.042,0.035-0.077,0.075-0.107
	c0.042-0.03,0.091-0.045,0.147-0.045H85.238z"/>
<path class="st1" d="M93,67c0-1.237,1-2.5,1-4c0-1.5,0.5-2.5,1-2.5s1,1,2,1s1,0.5,1.5,0.5s0.5-0.5,1.5-0.5s5,0,5,0"/>
<path class="st0" d="M96.301,58.105c0.127,0,0.237-0.016,0.33-0.048c0.095-0.032,0.173-0.075,0.232-0.13
	c0.062-0.057,0.108-0.123,0.138-0.2c0.03-0.077,0.045-0.161,0.045-0.253c0-0.183-0.061-0.324-0.183-0.422
	c-0.12-0.098-0.304-0.148-0.552-0.148h-0.43v1.2H96.301z M98.031,60h-0.607c-0.115,0-0.198-0.045-0.25-0.135l-0.76-1.158
	c-0.028-0.043-0.06-0.074-0.095-0.092c-0.033-0.018-0.083-0.028-0.15-0.028h-0.287V60h-0.673v-3.615h1.103
	c0.245,0,0.455,0.026,0.63,0.078c0.177,0.05,0.321,0.121,0.433,0.212c0.113,0.092,0.197,0.202,0.25,0.33
	c0.053,0.127,0.08,0.267,0.08,0.42c0,0.122-0.018,0.237-0.055,0.345c-0.035,0.108-0.087,0.207-0.155,0.295
	c-0.067,0.088-0.15,0.166-0.25,0.233c-0.098,0.067-0.211,0.119-0.338,0.158c0.043,0.025,0.083,0.055,0.12,0.09
	c0.037,0.033,0.07,0.073,0.1,0.12L98.031,60z M103.153,56.385L102.03,60h-0.607l-0.79-2.47c-0.022-0.06-0.042-0.133-0.06-0.22
	c-0.01,0.042-0.02,0.081-0.03,0.118c-0.01,0.037-0.021,0.071-0.033,0.102L99.713,60h-0.61l-1.12-3.615h0.563
	c0.058,0,0.107,0.014,0.145,0.043c0.04,0.027,0.067,0.063,0.08,0.11l0.615,2.163c0.013,0.053,0.026,0.112,0.037,0.175
	c0.013,0.062,0.027,0.127,0.04,0.195c0.013-0.07,0.028-0.136,0.043-0.197c0.017-0.062,0.034-0.119,0.052-0.173l0.71-2.163
	c0.013-0.038,0.039-0.073,0.077-0.105c0.04-0.032,0.089-0.048,0.145-0.048h0.198c0.058,0,0.106,0.014,0.142,0.043
	c0.037,0.028,0.065,0.065,0.083,0.11l0.707,2.163c0.035,0.103,0.067,0.222,0.095,0.357c0.022-0.132,0.046-0.251,0.073-0.357
	l0.615-2.163c0.01-0.042,0.035-0.077,0.075-0.107c0.042-0.03,0.091-0.045,0.147-0.045H103.153z"/>
<path class="st0" d="M6.613,80.697C6.001,80.289,5.163,80,4,80v-1c1.337,0,2.374,0.336,3.168,0.865
	c0.791,0.527,1.312,1.227,1.654,1.911C8.888,81.907,8.947,82.038,9,82.167c0.053-0.129,0.112-0.26,0.178-0.391
	c0.342-0.684,0.863-1.384,1.654-1.911C11.626,79.336,12.663,79,14,79v1c-1.163,0-2.001,0.289-2.613,0.697
	c-0.615,0.41-1.032,0.961-1.314,1.526c-0.284,0.568-0.428,1.141-0.501,1.577c-0.036,0.217-0.054,0.396-0.063,0.52
	c-0.004,0.062-0.007,0.109-0.008,0.14C9.5,84.476,9.5,84.487,9.5,84.494l0,0.006V84.5v0c0,0,0,0.001,0,0.001v0v0
	C9.5,84.776,9.276,85,9,85c-0.276,0-0.5-0.223-0.5-0.499v0c0,0,0,0,0-0.001l0-0.007c0-0.007,0-0.018-0.001-0.033
	c-0.001-0.031-0.003-0.078-0.008-0.14c-0.009-0.123-0.027-0.303-0.063-0.52c-0.073-0.436-0.217-1.01-0.501-1.577
	C7.645,81.658,7.229,81.107,6.613,80.697z"/>
<path class="st0" d="M25,79c0.337,0,0.686,0.086,1.012,0.303c0.322,0.215,0.593,0.539,0.811,0.974
	c0.083,0.166,0.159,0.35,0.228,0.554c0.144-0.402,0.329-0.782,0.567-1.089C27.942,79.322,28.399,79,29,79h3v1h-3
	c-0.199,0-0.392,0.095-0.592,0.353c-0.207,0.267-0.385,0.667-0.527,1.16C27.598,82.495,27.5,83.694,27.5,84.5
	c0,0.276-0.224,0.5-0.5,0.5s-0.5-0.224-0.5-0.5c0-1.975-0.25-3.131-0.572-3.776c-0.158-0.316-0.324-0.491-0.471-0.589
	C25.314,80.039,25.163,80,25,80h-3v-1H25z"/>
<path class="st0" d="M42.613,80.697C42.001,80.289,41.162,80,40,80v-1c1.338,0,2.374,0.336,3.168,0.865
	c0.791,0.527,1.312,1.227,1.654,1.911c0.065,0.131,0.125,0.261,0.178,0.391c0.053-0.129,0.112-0.26,0.178-0.391
	c0.342-0.684,0.863-1.384,1.654-1.911C47.626,79.336,48.662,79,50,79v1c-1.162,0-2.001,0.289-2.613,0.697
	c-0.615,0.41-1.032,0.961-1.314,1.526c-0.284,0.568-0.428,1.141-0.501,1.577c-0.036,0.217-0.054,0.396-0.063,0.52
	c-0.004,0.062-0.007,0.109-0.008,0.14c0,0.015-0.001,0.026-0.001,0.033l0,0.006V84.5v0c0,0,0,0.001,0,0.001v0v0
	c0,0.276-0.224,0.5-0.5,0.5c-0.276,0-0.5-0.223-0.5-0.499v0c0,0,0,0,0-0.001l0-0.007c0-0.007,0-0.018-0.001-0.033
	c-0.001-0.031-0.003-0.078-0.008-0.14c-0.009-0.123-0.027-0.303-0.063-0.52c-0.073-0.436-0.217-1.01-0.501-1.577
	C43.645,81.658,43.229,81.107,42.613,80.697z"/>
<path class="st0" d="M41.296,76.192c0,0.265-0.044,0.511-0.132,0.738c-0.087,0.225-0.21,0.42-0.37,0.585s-0.353,0.294-0.577,0.387
	c-0.225,0.092-0.475,0.138-0.75,0.138c-0.273,0-0.522-0.046-0.748-0.138c-0.225-0.093-0.418-0.222-0.58-0.387
	c-0.16-0.165-0.284-0.36-0.373-0.585c-0.088-0.227-0.132-0.473-0.132-0.738s0.044-0.51,0.132-0.735
	c0.088-0.227,0.213-0.422,0.373-0.587c0.162-0.165,0.355-0.293,0.58-0.385c0.225-0.093,0.474-0.14,0.748-0.14
	c0.183,0,0.356,0.022,0.517,0.065c0.162,0.042,0.31,0.102,0.445,0.18c0.135,0.077,0.256,0.171,0.363,0.283
	c0.108,0.11,0.2,0.233,0.275,0.37s0.132,0.285,0.17,0.445C41.276,75.848,41.296,76.016,41.296,76.192z M40.609,76.192
	c0-0.198-0.027-0.376-0.08-0.532c-0.053-0.158-0.129-0.293-0.228-0.403s-0.218-0.194-0.36-0.253
	c-0.14-0.058-0.298-0.087-0.475-0.087s-0.336,0.029-0.478,0.087c-0.14,0.058-0.26,0.143-0.36,0.253
	c-0.098,0.11-0.174,0.244-0.228,0.403c-0.053,0.157-0.08,0.334-0.08,0.532c0,0.198,0.027,0.377,0.08,0.535
	c0.053,0.157,0.129,0.29,0.228,0.4c0.1,0.108,0.22,0.192,0.36,0.25c0.142,0.058,0.301,0.087,0.478,0.087s0.335-0.029,0.475-0.087
	c0.142-0.058,0.262-0.142,0.36-0.25c0.098-0.11,0.174-0.243,0.228-0.4C40.582,76.569,40.609,76.391,40.609,76.192z M43.239,77.475
	c0.125,0,0.23-0.015,0.315-0.045c0.085-0.03,0.153-0.07,0.202-0.12c0.052-0.05,0.088-0.108,0.11-0.175
	c0.023-0.067,0.035-0.138,0.035-0.213c0-0.078-0.013-0.148-0.038-0.21c-0.025-0.063-0.064-0.117-0.118-0.16
	c-0.053-0.045-0.122-0.079-0.208-0.103c-0.083-0.023-0.184-0.035-0.302-0.035h-0.678v1.06H43.239z M42.559,74.905v1.045h0.535
	c0.23,0,0.403-0.042,0.52-0.125c0.118-0.083,0.178-0.216,0.178-0.397c0-0.188-0.053-0.322-0.16-0.402
	c-0.107-0.08-0.273-0.12-0.5-0.12H42.559z M43.132,74.385c0.237,0,0.439,0.022,0.607,0.067c0.168,0.045,0.306,0.109,0.413,0.192
	c0.108,0.083,0.188,0.184,0.237,0.303s0.075,0.252,0.075,0.4c0,0.085-0.013,0.167-0.038,0.245c-0.025,0.077-0.064,0.149-0.118,0.217
	c-0.052,0.067-0.118,0.128-0.2,0.183c-0.08,0.055-0.176,0.102-0.288,0.14c0.497,0.112,0.745,0.38,0.745,0.805
	c0,0.153-0.029,0.295-0.087,0.425c-0.058,0.13-0.143,0.243-0.255,0.337c-0.112,0.093-0.249,0.167-0.412,0.22
	c-0.163,0.053-0.35,0.08-0.56,0.08h-1.365v-3.615H43.132z M45.06,76.232h1.295v0.515H45.06V76.232z M49.863,78h-0.67
	c-0.047,0-0.084-0.012-0.113-0.035c-0.027-0.023-0.048-0.05-0.065-0.08l-0.838-1.388c-0.013,0.042-0.029,0.077-0.047,0.108
	l-0.803,1.28c-0.02,0.028-0.043,0.055-0.07,0.08C47.233,77.988,47.2,78,47.158,78h-0.628l1.2-1.86l-1.153-1.755h0.67
	c0.047,0,0.08,0.007,0.1,0.02c0.022,0.012,0.042,0.032,0.06,0.06l0.822,1.325c0.017-0.042,0.037-0.083,0.06-0.125l0.755-1.188
	c0.018-0.032,0.038-0.055,0.06-0.07c0.022-0.015,0.049-0.022,0.083-0.022h0.642l-1.162,1.728L49.863,78z M51.632,76.09
	c-0.07-0.085-0.147-0.145-0.23-0.18c-0.082-0.035-0.17-0.053-0.265-0.053c-0.093,0-0.177,0.018-0.252,0.053
	c-0.075,0.035-0.139,0.088-0.193,0.16c-0.053,0.07-0.094,0.16-0.122,0.27c-0.028,0.108-0.043,0.237-0.043,0.385
	c0,0.15,0.012,0.278,0.035,0.382c0.025,0.103,0.06,0.188,0.105,0.255c0.045,0.065,0.1,0.112,0.165,0.142
	c0.065,0.028,0.138,0.043,0.218,0.043c0.128,0,0.237-0.027,0.327-0.08s0.175-0.129,0.255-0.228V76.09z M52.249,74.285V78h-0.377
	c-0.082,0-0.133-0.037-0.155-0.113l-0.053-0.247c-0.103,0.118-0.222,0.214-0.357,0.287c-0.133,0.073-0.289,0.11-0.468,0.11
	c-0.14,0-0.268-0.029-0.385-0.088c-0.117-0.058-0.217-0.142-0.303-0.252c-0.083-0.112-0.148-0.249-0.195-0.412
	c-0.045-0.163-0.067-0.35-0.067-0.56c0-0.19,0.026-0.367,0.077-0.53s0.126-0.305,0.222-0.425c0.097-0.12,0.212-0.213,0.347-0.28
	c0.135-0.068,0.287-0.103,0.455-0.103c0.143,0,0.266,0.023,0.368,0.068s0.193,0.106,0.273,0.182v-1.352H52.249z"/>
<path class="st1" d="M68,79.5c0,0-0.5,0-1.5,0s-2,1-2,2.5s0,2.5-0.5,2.5s0-1.5-1-1.5s-0.5,1.5-1,1.5s-0.5-1-0.5-2.5s-1-2.5-2-2.5
	s-1.5,0-1.5,0"/>
<path class="st0" d="M61.605,77.147c0.037,0,0.069,0.014,0.097,0.043l0.265,0.287c-0.147,0.182-0.327,0.321-0.542,0.417
	c-0.213,0.097-0.47,0.145-0.77,0.145c-0.268,0-0.51-0.046-0.725-0.138c-0.213-0.092-0.396-0.219-0.547-0.382
	c-0.152-0.163-0.268-0.358-0.35-0.585c-0.08-0.227-0.12-0.474-0.12-0.743c0-0.272,0.043-0.52,0.13-0.745
	c0.087-0.227,0.208-0.422,0.365-0.585c0.158-0.163,0.347-0.29,0.565-0.38c0.218-0.092,0.46-0.137,0.725-0.137
	c0.263,0,0.497,0.043,0.7,0.13c0.205,0.087,0.379,0.2,0.522,0.34l-0.225,0.313c-0.013,0.02-0.031,0.037-0.053,0.052
	c-0.02,0.015-0.048,0.022-0.085,0.022c-0.025,0-0.051-0.007-0.077-0.02c-0.027-0.015-0.056-0.033-0.088-0.053
	c-0.032-0.022-0.068-0.045-0.11-0.07c-0.042-0.025-0.09-0.048-0.145-0.067c-0.055-0.022-0.119-0.039-0.192-0.052
	c-0.072-0.015-0.155-0.022-0.25-0.022c-0.162,0-0.31,0.029-0.445,0.087c-0.133,0.057-0.248,0.14-0.345,0.25
	c-0.097,0.108-0.172,0.242-0.225,0.4c-0.053,0.157-0.08,0.336-0.08,0.537c0,0.203,0.028,0.384,0.085,0.543
	c0.058,0.158,0.137,0.292,0.235,0.4s0.214,0.192,0.347,0.25c0.133,0.057,0.277,0.085,0.43,0.085c0.092,0,0.174-0.005,0.248-0.015
	c0.075-0.01,0.143-0.026,0.205-0.048c0.063-0.022,0.123-0.049,0.178-0.083c0.057-0.035,0.112-0.077,0.167-0.127
	c0.017-0.015,0.034-0.027,0.052-0.035C61.566,77.152,61.585,77.147,61.605,77.147z M67.238,74.385L66.116,78h-0.607l-0.79-2.47
	c-0.022-0.06-0.042-0.133-0.06-0.22c-0.01,0.042-0.02,0.081-0.03,0.118c-0.01,0.037-0.021,0.071-0.033,0.103L63.798,78h-0.61
	l-1.12-3.615h0.563c0.058,0,0.107,0.014,0.145,0.042c0.04,0.027,0.067,0.063,0.08,0.11l0.615,2.162
	c0.013,0.053,0.026,0.112,0.037,0.175c0.013,0.062,0.027,0.127,0.04,0.195c0.013-0.07,0.028-0.136,0.042-0.198
	c0.017-0.062,0.034-0.119,0.052-0.173l0.71-2.162c0.013-0.038,0.039-0.073,0.077-0.105c0.04-0.032,0.088-0.048,0.145-0.048h0.198
	c0.058,0,0.106,0.014,0.143,0.042c0.037,0.028,0.064,0.065,0.082,0.11l0.708,2.162c0.035,0.103,0.067,0.223,0.095,0.358
	c0.022-0.132,0.046-0.251,0.072-0.358l0.615-2.162c0.01-0.042,0.035-0.077,0.075-0.107c0.042-0.03,0.091-0.045,0.147-0.045H67.238z"
	/>
<path class="st1" d="M86,79.5c0,0-0.5,0-1.5,0s-2,1-2,2.5s0,2.5-0.5,2.5s0-1.5-1-1.5s-0.5,1.5-1,1.5s-0.5-1-0.5-2.5s-1-2.5-2-2.5
	s-1.5,0-1.5,0"/>
<path class="st0" d="M78.301,76.105c0.127,0,0.237-0.016,0.33-0.048c0.095-0.032,0.173-0.075,0.232-0.13
	c0.062-0.057,0.108-0.123,0.138-0.2s0.045-0.161,0.045-0.253c0-0.183-0.061-0.324-0.183-0.423c-0.12-0.098-0.304-0.147-0.552-0.147
	h-0.43v1.2H78.301z M80.031,78h-0.607c-0.115,0-0.198-0.045-0.25-0.135l-0.76-1.158c-0.028-0.043-0.06-0.074-0.095-0.092
	c-0.033-0.018-0.083-0.027-0.15-0.027h-0.287V78h-0.673v-3.615h1.103c0.245,0,0.455,0.026,0.63,0.077
	c0.177,0.05,0.321,0.121,0.433,0.213c0.113,0.092,0.197,0.202,0.25,0.33c0.053,0.127,0.08,0.267,0.08,0.42
	c0,0.122-0.018,0.237-0.055,0.345c-0.035,0.108-0.087,0.207-0.155,0.295c-0.067,0.088-0.15,0.166-0.25,0.232
	c-0.098,0.067-0.211,0.119-0.338,0.158c0.043,0.025,0.083,0.055,0.12,0.09c0.037,0.033,0.07,0.073,0.1,0.12L80.031,78z
	 M85.153,74.385L84.03,78h-0.608l-0.79-2.47c-0.022-0.06-0.042-0.133-0.06-0.22c-0.01,0.042-0.02,0.081-0.03,0.118
	c-0.01,0.037-0.021,0.071-0.033,0.103L81.713,78h-0.61l-1.12-3.615h0.563c0.058,0,0.107,0.014,0.145,0.042
	c0.04,0.027,0.067,0.063,0.08,0.11l0.615,2.162c0.013,0.053,0.026,0.112,0.037,0.175c0.013,0.062,0.027,0.127,0.04,0.195
	c0.013-0.07,0.028-0.136,0.043-0.198c0.017-0.062,0.034-0.119,0.052-0.173l0.71-2.162c0.013-0.038,0.039-0.073,0.077-0.105
	c0.04-0.032,0.088-0.048,0.145-0.048h0.197c0.058,0,0.106,0.014,0.143,0.042c0.037,0.028,0.064,0.065,0.083,0.11L83.62,76.7
	c0.035,0.103,0.067,0.223,0.095,0.358c0.022-0.132,0.046-0.251,0.073-0.358l0.615-2.162c0.01-0.042,0.035-0.077,0.075-0.107
	c0.042-0.03,0.091-0.045,0.147-0.045H85.153z"/>
<path class="st1" d="M5,103c0-2,1.5-1.501,1.5-3.5c0-2,1-2,1.5-2s0.5,1,1,1s0.5-1,1-1c0.5,0,1.5-0.001,1.5,2c0,2,1.5,1.5,1.5,3.5"/>
<path class="st0" d="M8.08,92.938H6.99V96H6.317v-3.063h-1.09v-0.552H8.08V92.938z M9.645,94.105c0.127,0,0.237-0.016,0.33-0.048
	c0.095-0.032,0.173-0.075,0.233-0.13c0.062-0.057,0.108-0.123,0.137-0.2s0.045-0.161,0.045-0.253c0-0.183-0.061-0.324-0.182-0.423
	c-0.12-0.098-0.304-0.147-0.553-0.147h-0.43v1.2H9.645z M11.375,96h-0.607c-0.115,0-0.198-0.045-0.25-0.135l-0.76-1.158
	c-0.028-0.043-0.06-0.074-0.095-0.092c-0.033-0.018-0.083-0.027-0.15-0.027H9.225V96H8.553v-3.615h1.102
	c0.245,0,0.455,0.026,0.63,0.077c0.177,0.05,0.321,0.121,0.432,0.213c0.113,0.092,0.197,0.202,0.25,0.33
	c0.053,0.127,0.08,0.267,0.08,0.42c0,0.122-0.018,0.237-0.055,0.345c-0.035,0.108-0.087,0.207-0.155,0.295
	c-0.067,0.088-0.15,0.166-0.25,0.232c-0.098,0.067-0.211,0.119-0.338,0.158c0.043,0.025,0.083,0.055,0.12,0.09
	c0.037,0.033,0.07,0.073,0.1,0.12L11.375,96z M12.441,96h-0.675v-3.615h0.675V96z"/>
<path class="st0" d="M7.64,118.089l-0.616-1.684c-0.03-0.074-0.062-0.163-0.095-0.266c-0.033-0.102-0.065-0.213-0.098-0.332
	c-0.03,0.119-0.062,0.231-0.095,0.336c-0.033,0.103-0.064,0.192-0.095,0.269l-0.612,1.677H7.64z M9.303,120H8.575
	c-0.082,0-0.148-0.02-0.2-0.06c-0.051-0.042-0.09-0.093-0.115-0.154l-0.378-1.032H5.785l-0.378,1.032
	c-0.019,0.054-0.055,0.103-0.109,0.147c-0.054,0.045-0.12,0.067-0.2,0.067H4.364l1.992-5.061h0.959L9.303,120z M11.472,117.483
	c0.173,0,0.323-0.021,0.451-0.063c0.128-0.044,0.234-0.106,0.319-0.185c0.086-0.082,0.151-0.18,0.193-0.294
	c0.042-0.117,0.063-0.246,0.063-0.389c0-0.135-0.021-0.257-0.063-0.367s-0.105-0.203-0.189-0.28
	c-0.084-0.077-0.19-0.135-0.319-0.175c-0.128-0.042-0.28-0.063-0.455-0.063h-0.703v1.816H11.472z M11.472,114.939
	c0.338,0,0.631,0.04,0.878,0.119s0.451,0.19,0.613,0.332c0.161,0.143,0.28,0.313,0.357,0.511c0.079,0.199,0.119,0.416,0.119,0.651
	c0,0.245-0.041,0.471-0.122,0.676c-0.082,0.203-0.204,0.378-0.368,0.525c-0.163,0.147-0.369,0.261-0.616,0.343
	c-0.245,0.082-0.532,0.122-0.861,0.122h-0.703V120H9.827v-5.061H11.472z"/>
<path class="st0" d="M21.922,116.862C21.59,116.154,21.228,116,21,116v-1c0.772,0,1.41,0.546,1.828,1.438
	c0.061,0.13,0.119,0.269,0.172,0.419c0.054-0.15,0.111-0.289,0.172-0.419C23.59,115.546,24.228,115,25,115
	c0.337,0,0.686,0.086,1.012,0.303c0.322,0.215,0.593,0.539,0.811,0.973c0.083,0.166,0.159,0.35,0.228,0.554
	c0.144-0.402,0.329-0.782,0.567-1.09C27.942,115.321,28.399,115,29,115s1.058,0.321,1.383,0.74c0.267,0.345,0.467,0.78,0.617,1.236
	c0.151-0.456,0.35-0.891,0.617-1.236C31.942,115.321,32.4,115,33,115v1c-0.2,0-0.392,0.095-0.592,0.353
	c-0.207,0.267-0.385,0.667-0.527,1.16c-0.283,0.982-0.381,2.181-0.381,2.987c0,0.276-0.224,0.5-0.5,0.5s-0.5-0.224-0.5-0.5
	c0-0.806-0.098-2.005-0.381-2.987c-0.142-0.493-0.32-0.893-0.527-1.16C29.392,116.095,29.199,116,29,116s-0.392,0.095-0.592,0.353
	c-0.207,0.267-0.385,0.667-0.527,1.16c-0.283,0.982-0.381,2.181-0.381,2.987c0,0.276-0.224,0.5-0.5,0.5s-0.5-0.224-0.5-0.5
	c0-1.974-0.25-3.131-0.572-3.776c-0.158-0.316-0.324-0.492-0.471-0.589C25.314,116.039,25.163,116,25,116
	c-0.228,0-0.59,0.154-0.922,0.862c-0.331,0.707-0.578,1.874-0.578,3.638c0,0.276-0.224,0.5-0.5,0.5s-0.5-0.224-0.5-0.5
	C22.5,118.736,22.253,117.569,21.922,116.862z"/>
<path class="st0" d="M39.922,119.138C39.59,119.846,39.228,120,39,120v1c0.772,0,1.41-0.546,1.828-1.438
	c0.061-0.13,0.119-0.269,0.172-0.419c0.054,0.15,0.111,0.289,0.172,0.419C41.59,120.454,42.228,121,43,121
	c0.338,0,0.686-0.086,1.012-0.303c0.322-0.215,0.593-0.539,0.811-0.973c0.083-0.166,0.159-0.35,0.228-0.554
	c0.144,0.402,0.328,0.782,0.567,1.09C45.942,120.679,46.4,121,47,121s1.058-0.321,1.383-0.74c0.267-0.345,0.467-0.78,0.617-1.236
	c0.151,0.456,0.35,0.891,0.617,1.236C49.942,120.679,50.4,121,51,121v-1c-0.2,0-0.392-0.095-0.592-0.353
	c-0.207-0.267-0.385-0.667-0.527-1.16c-0.283-0.982-0.381-2.181-0.381-2.987c0-0.276-0.224-0.5-0.5-0.5s-0.5,0.224-0.5,0.5
	c0,0.806-0.098,2.005-0.381,2.987c-0.142,0.493-0.32,0.893-0.527,1.16C47.392,119.905,47.2,120,47,120s-0.392-0.095-0.592-0.353
	c-0.207-0.267-0.385-0.667-0.527-1.16c-0.283-0.982-0.381-2.181-0.381-2.987c0-0.276-0.224-0.5-0.5-0.5s-0.5,0.224-0.5,0.5
	c0,1.974-0.25,3.131-0.572,3.776c-0.158,0.316-0.324,0.492-0.471,0.589C43.314,119.961,43.162,120,43,120
	c-0.228,0-0.59-0.154-0.922-0.862c-0.331-0.707-0.578-1.874-0.578-3.638c0-0.276-0.224-0.5-0.5-0.5s-0.5,0.224-0.5,0.5
	C40.5,117.264,40.253,118.431,39.922,119.138z"/>
<path class="st0" d="M59.108,115.859c-0.028,0.049-0.058,0.086-0.091,0.109c-0.03,0.021-0.069,0.031-0.116,0.031
	c-0.049,0-0.103-0.017-0.161-0.052c-0.056-0.037-0.124-0.078-0.203-0.123c-0.079-0.044-0.173-0.084-0.28-0.119
	c-0.105-0.037-0.23-0.056-0.375-0.056c-0.131,0-0.245,0.017-0.343,0.049c-0.098,0.031-0.181,0.074-0.249,0.13
	c-0.065,0.056-0.114,0.124-0.147,0.203c-0.033,0.077-0.049,0.162-0.049,0.255c0,0.119,0.033,0.219,0.098,0.298
	c0.068,0.079,0.156,0.147,0.266,0.203c0.11,0.056,0.235,0.106,0.375,0.15c0.14,0.045,0.284,0.093,0.431,0.144
	c0.147,0.049,0.291,0.107,0.431,0.175c0.14,0.065,0.265,0.149,0.375,0.252c0.11,0.1,0.197,0.224,0.263,0.371
	c0.068,0.147,0.102,0.325,0.102,0.535c0,0.229-0.04,0.444-0.119,0.644c-0.077,0.199-0.191,0.373-0.343,0.522
	c-0.149,0.147-0.333,0.264-0.549,0.35c-0.217,0.084-0.465,0.126-0.745,0.126c-0.161,0-0.32-0.016-0.476-0.049
	c-0.156-0.03-0.307-0.075-0.451-0.133c-0.142-0.058-0.277-0.128-0.403-0.21s-0.238-0.173-0.336-0.273l0.277-0.452
	c0.023-0.032,0.054-0.059,0.091-0.08c0.037-0.023,0.077-0.035,0.119-0.035c0.058,0,0.121,0.024,0.189,0.073
	c0.068,0.047,0.148,0.1,0.242,0.158s0.202,0.112,0.326,0.161c0.126,0.047,0.276,0.07,0.451,0.07c0.268,0,0.476-0.063,0.623-0.189
	c0.147-0.128,0.221-0.312,0.221-0.55c0-0.133-0.034-0.241-0.101-0.325c-0.065-0.084-0.153-0.154-0.263-0.21
	c-0.11-0.058-0.235-0.107-0.375-0.147s-0.282-0.083-0.427-0.13c-0.145-0.046-0.287-0.102-0.427-0.168
	c-0.14-0.065-0.265-0.15-0.375-0.255c-0.11-0.105-0.198-0.236-0.266-0.392c-0.065-0.159-0.098-0.354-0.098-0.585
	c0-0.184,0.036-0.364,0.109-0.539c0.075-0.175,0.182-0.33,0.322-0.465c0.14-0.135,0.313-0.244,0.518-0.326
	c0.205-0.081,0.441-0.122,0.707-0.122c0.299,0,0.574,0.047,0.826,0.14c0.252,0.093,0.467,0.224,0.644,0.392L59.108,115.859z
	 M61.364,117.634c-0.187,0.121-0.323,0.259-0.41,0.413c-0.084,0.152-0.126,0.315-0.126,0.49c0,0.128,0.022,0.244,0.067,0.346
	c0.044,0.103,0.104,0.191,0.178,0.263c0.077,0.07,0.166,0.125,0.266,0.164c0.103,0.038,0.211,0.056,0.326,0.056
	c0.205,0,0.393-0.031,0.563-0.094c0.17-0.065,0.324-0.155,0.462-0.27L61.364,117.634z M64.735,120h-0.847
	c-0.089,0-0.161-0.011-0.217-0.032c-0.054-0.021-0.111-0.065-0.171-0.133l-0.35-0.36c-0.222,0.182-0.47,0.324-0.745,0.427
	s-0.573,0.154-0.893,0.154c-0.194,0-0.385-0.033-0.574-0.098c-0.187-0.068-0.354-0.165-0.5-0.291s-0.266-0.277-0.357-0.455
	c-0.089-0.179-0.133-0.381-0.133-0.605c0-0.159,0.026-0.308,0.077-0.448c0.051-0.142,0.123-0.274,0.214-0.396
	c0.091-0.121,0.2-0.229,0.326-0.325c0.126-0.098,0.264-0.182,0.413-0.252c-0.126-0.175-0.217-0.345-0.273-0.511
	c-0.056-0.168-0.084-0.335-0.084-0.501c0-0.175,0.031-0.34,0.095-0.497c0.065-0.158,0.159-0.296,0.28-0.413
	c0.121-0.116,0.271-0.208,0.448-0.276c0.177-0.07,0.378-0.105,0.602-0.105c0.205,0,0.389,0.031,0.549,0.094
	c0.163,0.063,0.302,0.147,0.417,0.252c0.117,0.105,0.208,0.226,0.273,0.361c0.068,0.135,0.107,0.275,0.119,0.42l-0.55,0.116
	c-0.103,0.02-0.177-0.024-0.224-0.134c-0.021-0.06-0.049-0.117-0.084-0.171c-0.033-0.056-0.072-0.104-0.119-0.144
	c-0.047-0.042-0.102-0.074-0.165-0.098c-0.063-0.025-0.135-0.038-0.217-0.038c-0.098,0-0.186,0.017-0.263,0.052
	c-0.077,0.033-0.142,0.079-0.196,0.137c-0.051,0.056-0.091,0.122-0.119,0.199c-0.028,0.075-0.042,0.154-0.042,0.238
	c0,0.07,0.007,0.138,0.021,0.203c0.014,0.066,0.037,0.131,0.07,0.196c0.033,0.066,0.075,0.133,0.126,0.203
	c0.054,0.068,0.119,0.142,0.196,0.221l1.344,1.396c0.077-0.147,0.139-0.302,0.186-0.465c0.047-0.163,0.077-0.329,0.091-0.497
	c0.007-0.054,0.026-0.097,0.056-0.13c0.03-0.032,0.072-0.049,0.126-0.049h0.539c-0.002,0.308-0.047,0.602-0.133,0.882
	c-0.086,0.28-0.21,0.538-0.371,0.774L64.735,120z M69.587,114.939V120h-0.945v-2.212h-2.377V120H65.32v-5.061h0.945v2.177h2.377
	v-2.177H69.587z"/>
</svg>
