<?xml version="1.0" encoding="utf-8"?>
<!-- Generator: Adobe Illustrator 22.0.0, SVG Export Plug-In . SVG Version: 6.00 Build 0)  -->
<svg version="1.1" id="Layer_1" xmlns="http://www.w3.org/2000/svg" xmlns:xlink="http://www.w3.org/1999/xlink" x="0px" y="0px"
	 width="34px" height="36px" viewBox="0 0 34 36" style="enable-background:new 0 0 34 36;" xml:space="preserve">
<style type="text/css">
	.st0{fill:#595959;}
	.st1{fill:#FF9000;}
	.st2{fill:none;stroke:#FF9000;}
	.st3{fill:#B4B4B4;}
</style>
<path class="st0" d="M0.5,2.5c0-1.105,0.895-2,2-2h29c1.105,0,2,0.895,2,2v13c0,1.105-0.895,2-2,2h-29c-1.105,0-2-0.895-2-2V2.5z"/>
<path class="st1" d="M2.5,1.5h29c0.552,0,1,0.448,1,1v5c0,0.552-0.448,1-1,1h-29c-0.552,0-1-0.448-1-1v-5
	C1.5,1.948,1.948,1.5,2.5,1.5z"/>
<path class="st2" d="M2.5,1.5h29c0.552,0,1,0.448,1,1v5c0,0.552-0.448,1-1,1h-29c-0.552,0-1-0.448-1-1v-5
	C1.5,1.948,1.948,1.5,2.5,1.5z"/>
<path d="M8.859,5.449c0,0.369-0.064,0.709-0.193,1.022c-0.126,0.31-0.304,0.58-0.536,0.808C7.9,7.505,7.621,7.683,7.295,7.811
	C6.97,7.937,6.61,8,6.213,8H4.232V2.901h1.981c0.397,0,0.757,0.064,1.082,0.192C7.621,3.221,7.9,3.399,8.131,3.625
	c0.231,0.226,0.41,0.496,0.536,0.808C8.795,4.744,8.859,5.082,8.859,5.449z M7.648,5.449c0-0.252-0.033-0.48-0.098-0.683
	C7.485,4.563,7.39,4.391,7.267,4.252C7.145,4.109,6.996,4.001,6.819,3.926C6.641,3.849,6.44,3.81,6.213,3.81H5.422v3.28h0.791
	c0.226,0,0.428-0.037,0.606-0.112c0.177-0.077,0.327-0.186,0.448-0.326C7.39,6.51,7.485,6.338,7.55,6.135
	C7.616,5.931,7.648,5.703,7.648,5.449z M10.642,8h-1.19V2.901h1.19V8z M13.971,5.358h1.813V7.51c-0.261,0.191-0.54,0.33-0.837,0.416
	c-0.294,0.086-0.602,0.129-0.924,0.129c-0.42,0-0.803-0.065-1.148-0.196c-0.343-0.133-0.637-0.315-0.882-0.546
	c-0.245-0.233-0.434-0.509-0.567-0.826c-0.133-0.32-0.2-0.666-0.2-1.039c0-0.38,0.063-0.729,0.189-1.047
	c0.126-0.32,0.306-0.595,0.539-0.826c0.236-0.231,0.519-0.411,0.85-0.539c0.334-0.128,0.706-0.192,1.117-0.192
	c0.212,0,0.412,0.017,0.598,0.053c0.187,0.035,0.358,0.083,0.515,0.143c0.159,0.061,0.303,0.133,0.434,0.217
	c0.131,0.084,0.247,0.175,0.35,0.273l-0.343,0.522c-0.054,0.082-0.124,0.132-0.21,0.15C15.182,4.221,15.091,4.2,14.993,4.14
	c-0.093-0.056-0.182-0.104-0.266-0.144c-0.082-0.042-0.166-0.076-0.252-0.102c-0.086-0.026-0.177-0.044-0.273-0.056
	c-0.096-0.012-0.203-0.017-0.322-0.017c-0.222,0-0.421,0.04-0.598,0.119c-0.177,0.077-0.329,0.187-0.455,0.329
	c-0.124,0.142-0.219,0.314-0.287,0.515c-0.068,0.198-0.101,0.42-0.101,0.665c0,0.271,0.037,0.511,0.112,0.721
	c0.075,0.21,0.18,0.387,0.315,0.532c0.138,0.145,0.301,0.255,0.49,0.332c0.191,0.075,0.403,0.112,0.634,0.112
	c0.142,0,0.271-0.014,0.385-0.042c0.117-0.028,0.23-0.065,0.339-0.112V6.219h-0.504c-0.075,0-0.133-0.02-0.175-0.06
	s-0.063-0.09-0.063-0.15V5.358z M17.665,8h-1.19V2.901h1.19V8z M22.208,3.839h-1.435V8H19.59V3.839h-1.435V2.901h4.053V3.839z
	 M24.9,6.05l-0.472-1.397c-0.035-0.089-0.072-0.192-0.112-0.311c-0.04-0.121-0.079-0.252-0.119-0.392
	c-0.035,0.142-0.072,0.274-0.112,0.396c-0.04,0.121-0.077,0.226-0.112,0.315l-0.469,1.39H24.9z M26.78,8h-0.917
	c-0.103,0-0.185-0.023-0.248-0.07c-0.063-0.049-0.111-0.111-0.144-0.185L25.17,6.856h-1.939L22.93,7.745
	c-0.026,0.065-0.072,0.125-0.14,0.178C22.725,7.974,22.643,8,22.545,8h-0.924l1.974-5.099h1.211L26.78,8z M30.15,7.055V8h-3.073
	V2.901h1.183v4.155H30.15z"/>
<path class="st3" d="M5.597,14.05l-0.472-1.396c-0.035-0.089-0.072-0.193-0.112-0.312c-0.04-0.121-0.079-0.252-0.119-0.392
	c-0.035,0.142-0.072,0.274-0.112,0.396c-0.04,0.121-0.077,0.226-0.112,0.315L4.2,14.05H5.597z M7.476,16H6.559
	c-0.103,0-0.186-0.023-0.248-0.07c-0.063-0.049-0.111-0.111-0.144-0.186l-0.301-0.889H3.927l-0.301,0.889
	c-0.026,0.065-0.072,0.125-0.14,0.179C3.421,15.974,3.339,16,3.241,16H2.317l1.974-5.099h1.211L7.476,16z M12.225,10.901V16h-0.616
	c-0.091,0-0.168-0.014-0.231-0.042c-0.061-0.03-0.121-0.082-0.182-0.154l-2.405-3.042c0.009,0.091,0.015,0.18,0.017,0.266
	c0.005,0.084,0.007,0.163,0.007,0.238V16H7.773v-5.099h0.623c0.051,0,0.095,0.002,0.13,0.007c0.035,0.005,0.066,0.014,0.095,0.028
	c0.028,0.012,0.055,0.029,0.08,0.052s0.055,0.055,0.087,0.095l2.426,3.063c-0.012-0.098-0.02-0.193-0.024-0.284
	c-0.005-0.093-0.007-0.181-0.007-0.262v-2.698H12.225z M15.804,14.05l-0.472-1.396c-0.035-0.089-0.072-0.193-0.112-0.312
	c-0.04-0.121-0.079-0.252-0.119-0.392c-0.035,0.142-0.072,0.274-0.112,0.396c-0.04,0.121-0.077,0.226-0.112,0.315l-0.469,1.389
	H15.804z M17.684,16h-0.917c-0.103,0-0.186-0.023-0.249-0.07c-0.063-0.049-0.111-0.111-0.143-0.186l-0.301-0.889h-1.939
	l-0.301,0.889c-0.026,0.065-0.072,0.125-0.14,0.179C13.629,15.974,13.547,16,13.449,16h-0.924l1.974-5.099h1.211L17.684,16z
	 M21.054,15.055V16h-3.073v-5.099h1.183v4.155H21.054z M26.436,13.448c0,0.369-0.064,0.712-0.192,1.029
	c-0.126,0.317-0.305,0.594-0.535,0.83c-0.231,0.233-0.51,0.417-0.837,0.549c-0.324,0.133-0.685,0.2-1.082,0.2
	c-0.397,0-0.758-0.066-1.085-0.2c-0.327-0.133-0.607-0.316-0.84-0.549c-0.231-0.236-0.411-0.512-0.539-0.83
	c-0.126-0.317-0.189-0.66-0.189-1.029s0.063-0.712,0.189-1.029c0.128-0.317,0.308-0.593,0.539-0.826
	c0.233-0.233,0.513-0.417,0.84-0.55c0.327-0.133,0.688-0.2,1.085-0.2c0.397,0,0.757,0.068,1.082,0.203
	c0.327,0.133,0.605,0.316,0.837,0.55c0.231,0.233,0.41,0.509,0.535,0.826C26.372,12.74,26.436,13.082,26.436,13.448z M25.225,13.448
	c0-0.252-0.033-0.478-0.098-0.679c-0.065-0.203-0.16-0.374-0.283-0.514c-0.121-0.14-0.271-0.247-0.448-0.322
	c-0.177-0.075-0.379-0.112-0.606-0.112c-0.229,0-0.433,0.037-0.612,0.112c-0.177,0.075-0.328,0.182-0.451,0.322
	c-0.121,0.14-0.215,0.311-0.28,0.514c-0.065,0.201-0.098,0.427-0.098,0.679c0,0.254,0.033,0.483,0.098,0.686
	c0.065,0.201,0.159,0.371,0.28,0.511c0.124,0.14,0.274,0.247,0.451,0.322c0.18,0.072,0.384,0.109,0.612,0.109
	c0.226,0,0.428-0.036,0.606-0.109c0.177-0.075,0.327-0.182,0.448-0.322c0.124-0.14,0.218-0.31,0.283-0.511
	C25.192,13.932,25.225,13.703,25.225,13.448z M29.477,13.358h1.813v2.153c-0.261,0.191-0.54,0.33-0.837,0.417
	c-0.294,0.086-0.602,0.129-0.924,0.129c-0.42,0-0.803-0.065-1.148-0.196c-0.343-0.133-0.637-0.315-0.882-0.546
	c-0.245-0.233-0.434-0.509-0.567-0.826c-0.133-0.32-0.199-0.666-0.199-1.04c0-0.38,0.063-0.729,0.189-1.046
	c0.126-0.32,0.306-0.595,0.539-0.826c0.236-0.231,0.519-0.411,0.851-0.539c0.334-0.128,0.706-0.193,1.117-0.193
	c0.212,0,0.412,0.018,0.598,0.053c0.187,0.035,0.358,0.083,0.514,0.143c0.159,0.061,0.303,0.133,0.434,0.217
	c0.131,0.084,0.247,0.175,0.35,0.273l-0.343,0.521c-0.054,0.082-0.124,0.132-0.21,0.151c-0.084,0.019-0.175-0.002-0.273-0.063
	c-0.093-0.056-0.182-0.104-0.266-0.143c-0.082-0.042-0.166-0.076-0.252-0.102c-0.086-0.026-0.177-0.044-0.273-0.056
	c-0.096-0.012-0.203-0.017-0.322-0.017c-0.222,0-0.421,0.04-0.599,0.119c-0.177,0.077-0.329,0.187-0.455,0.329
	c-0.124,0.142-0.219,0.314-0.287,0.514c-0.068,0.198-0.102,0.42-0.102,0.665c0,0.271,0.037,0.511,0.112,0.721
	c0.075,0.21,0.18,0.387,0.315,0.532c0.138,0.145,0.301,0.255,0.49,0.333c0.191,0.075,0.402,0.112,0.633,0.112
	c0.142,0,0.271-0.014,0.385-0.042c0.117-0.028,0.23-0.065,0.34-0.112v-0.773h-0.504c-0.075,0-0.133-0.02-0.175-0.059
	c-0.042-0.04-0.063-0.09-0.063-0.151V13.358z"/>
<path d="M2.5,1h29V0h-29V1z M33,2.5v13h1v-13H33z M31.5,17h-29v1h29V17z M1,15.5v-13H0v13H1z M2.5,17C1.672,17,1,16.328,1,15.5H0
	C0,16.881,1.119,18,2.5,18V17z M33,15.5c0,0.828-0.672,1.5-1.5,1.5v1c1.381,0,2.5-1.119,2.5-2.5H33z M31.5,1
	C32.328,1,33,1.672,33,2.5h1C34,1.119,32.881,0,31.5,0V1z M2.5,0C1.119,0,0,1.119,0,2.5h1C1,1.672,1.672,1,2.5,1V0z"/>
<path class="st0" d="M0.5,20.5c0-1.105,0.895-2,2-2h29c1.105,0,2,0.895,2,2v13c0,1.105-0.895,2-2,2h-29c-1.105,0-2-0.895-2-2V20.5z"
	/>
<path class="st3" d="M8.859,23.448c0,0.369-0.064,0.709-0.193,1.022c-0.126,0.31-0.304,0.58-0.536,0.808
	c-0.231,0.226-0.51,0.404-0.836,0.532C6.97,25.937,6.61,26,6.213,26H4.232v-5.1h1.981c0.397,0,0.757,0.064,1.082,0.193
	c0.327,0.128,0.606,0.306,0.836,0.532c0.231,0.226,0.41,0.496,0.536,0.809C8.795,22.744,8.859,23.082,8.859,23.448z M7.648,23.448
	c0-0.252-0.033-0.479-0.098-0.682c-0.065-0.203-0.16-0.375-0.284-0.515c-0.121-0.142-0.271-0.251-0.448-0.325
	C6.641,21.849,6.44,21.81,6.213,21.81H5.422v3.28h0.791c0.226,0,0.428-0.037,0.606-0.112c0.177-0.077,0.327-0.186,0.448-0.326
	c0.124-0.142,0.218-0.315,0.284-0.518C7.616,23.931,7.648,23.703,7.648,23.448z M10.642,26h-1.19v-5.1h1.19V26z M13.971,23.358
	h1.813v2.153c-0.261,0.191-0.54,0.33-0.837,0.417c-0.294,0.086-0.602,0.129-0.924,0.129c-0.42,0-0.803-0.065-1.148-0.196
	c-0.343-0.133-0.637-0.315-0.882-0.546c-0.245-0.233-0.434-0.509-0.567-0.826c-0.133-0.32-0.2-0.666-0.2-1.04
	c0-0.38,0.063-0.729,0.189-1.046c0.126-0.32,0.306-0.595,0.539-0.826c0.236-0.231,0.519-0.411,0.85-0.539
	c0.334-0.128,0.706-0.193,1.117-0.193c0.212,0,0.412,0.017,0.598,0.052c0.187,0.035,0.358,0.083,0.515,0.144
	c0.159,0.061,0.303,0.133,0.434,0.217c0.131,0.084,0.247,0.175,0.35,0.273l-0.343,0.521c-0.054,0.082-0.124,0.132-0.21,0.15
	c-0.084,0.019-0.175-0.002-0.273-0.063c-0.093-0.056-0.182-0.104-0.266-0.143c-0.082-0.042-0.166-0.076-0.252-0.101
	c-0.086-0.026-0.177-0.044-0.273-0.056c-0.096-0.012-0.203-0.017-0.322-0.017c-0.222,0-0.421,0.04-0.598,0.119
	c-0.177,0.077-0.329,0.187-0.455,0.329c-0.124,0.142-0.219,0.314-0.287,0.515c-0.068,0.198-0.101,0.42-0.101,0.665
	c0,0.271,0.037,0.511,0.112,0.721c0.075,0.21,0.18,0.387,0.315,0.532c0.138,0.145,0.301,0.256,0.49,0.333
	c0.191,0.075,0.403,0.112,0.634,0.112c0.142,0,0.271-0.014,0.385-0.042c0.117-0.028,0.23-0.065,0.339-0.112v-0.774h-0.504
	c-0.075,0-0.133-0.02-0.175-0.059s-0.063-0.09-0.063-0.151V23.358z M17.665,26h-1.19v-5.1h1.19V26z M22.208,21.838h-1.435V26H19.59
	v-4.162h-1.435V20.9h4.053V21.838z M24.9,24.051l-0.472-1.397c-0.035-0.089-0.072-0.192-0.112-0.311
	c-0.04-0.121-0.079-0.252-0.119-0.392c-0.035,0.142-0.072,0.274-0.112,0.396c-0.04,0.121-0.077,0.226-0.112,0.315l-0.469,1.39H24.9z
	 M26.78,26h-0.917c-0.103,0-0.185-0.023-0.248-0.07c-0.063-0.049-0.111-0.111-0.144-0.186l-0.301-0.889h-1.939l-0.301,0.889
	c-0.026,0.065-0.072,0.125-0.14,0.179C22.725,25.974,22.643,26,22.545,26h-0.924l1.974-5.1h1.211L26.78,26z M30.15,25.055V26h-3.073
	v-5.1h1.183v4.155H30.15z"/>
<path class="st1" d="M2.5,27.5h29c0.552,0,1,0.448,1,1v5c0,0.552-0.448,1-1,1h-29c-0.552,0-1-0.448-1-1v-5
	C1.5,27.948,1.948,27.5,2.5,27.5z"/>
<path class="st2" d="M2.5,27.5h29c0.552,0,1,0.448,1,1v5c0,0.552-0.448,1-1,1h-29c-0.552,0-1-0.448-1-1v-5
	C1.5,27.948,1.948,27.5,2.5,27.5z"/>
<path d="M5.597,32.05l-0.472-1.396c-0.035-0.089-0.072-0.192-0.112-0.311c-0.04-0.121-0.079-0.252-0.119-0.392
	c-0.035,0.142-0.072,0.274-0.112,0.396c-0.04,0.121-0.077,0.226-0.112,0.315L4.2,32.05H5.597z M7.476,34H6.559
	c-0.103,0-0.186-0.023-0.248-0.07c-0.063-0.049-0.111-0.111-0.144-0.186l-0.301-0.889H3.927l-0.301,0.889
	c-0.026,0.065-0.072,0.125-0.14,0.179C3.421,33.974,3.339,34,3.241,34H2.317l1.974-5.1h1.211L7.476,34z M12.225,28.9V34h-0.616
	c-0.091,0-0.168-0.014-0.231-0.042c-0.061-0.03-0.121-0.082-0.182-0.154l-2.405-3.042c0.009,0.091,0.015,0.18,0.017,0.266
	c0.005,0.084,0.007,0.163,0.007,0.238V34H7.773v-5.1h0.623c0.051,0,0.095,0.002,0.13,0.007c0.035,0.005,0.066,0.014,0.095,0.028
	c0.028,0.012,0.055,0.029,0.08,0.053c0.026,0.023,0.055,0.055,0.087,0.094l2.426,3.063c-0.012-0.098-0.02-0.193-0.024-0.284
	c-0.005-0.093-0.007-0.181-0.007-0.262V28.9H12.225z M15.804,32.05l-0.472-1.396c-0.035-0.089-0.072-0.192-0.112-0.311
	c-0.04-0.121-0.079-0.252-0.119-0.392c-0.035,0.142-0.072,0.274-0.112,0.396c-0.04,0.121-0.077,0.226-0.112,0.315l-0.469,1.389
	H15.804z M17.684,34h-0.917c-0.103,0-0.186-0.023-0.249-0.07c-0.063-0.049-0.111-0.111-0.143-0.186l-0.301-0.889h-1.939
	l-0.301,0.889c-0.026,0.065-0.072,0.125-0.14,0.179C13.629,33.974,13.547,34,13.449,34h-0.924l1.974-5.1h1.211L17.684,34z
	 M21.054,33.055V34h-3.073v-5.1h1.183v4.155H21.054z M26.436,31.448c0,0.369-0.064,0.712-0.192,1.029
	c-0.126,0.317-0.305,0.594-0.535,0.829c-0.231,0.233-0.51,0.417-0.837,0.549c-0.324,0.133-0.685,0.2-1.082,0.2
	c-0.397,0-0.758-0.067-1.085-0.2c-0.327-0.133-0.607-0.316-0.84-0.549c-0.231-0.236-0.411-0.512-0.539-0.829
	c-0.126-0.317-0.189-0.66-0.189-1.029s0.063-0.712,0.189-1.029c0.128-0.317,0.308-0.593,0.539-0.826
	c0.233-0.233,0.513-0.417,0.84-0.549c0.327-0.133,0.688-0.2,1.085-0.2c0.397,0,0.757,0.068,1.082,0.203
	c0.327,0.133,0.605,0.316,0.837,0.549c0.231,0.233,0.41,0.509,0.535,0.826C26.372,30.74,26.436,31.082,26.436,31.448z
	 M25.225,31.448c0-0.252-0.033-0.478-0.098-0.679c-0.065-0.203-0.16-0.375-0.283-0.515c-0.121-0.14-0.271-0.247-0.448-0.322
	c-0.177-0.075-0.379-0.112-0.606-0.112c-0.229,0-0.433,0.037-0.612,0.112c-0.177,0.075-0.328,0.182-0.451,0.322
	c-0.121,0.14-0.215,0.312-0.28,0.515c-0.065,0.201-0.098,0.427-0.098,0.679c0,0.254,0.033,0.483,0.098,0.686
	c0.065,0.201,0.159,0.371,0.28,0.511c0.124,0.14,0.274,0.247,0.451,0.322c0.18,0.072,0.384,0.109,0.612,0.109
	c0.226,0,0.428-0.036,0.606-0.109c0.177-0.075,0.327-0.182,0.448-0.322c0.124-0.14,0.218-0.31,0.283-0.511
	C25.192,31.931,25.225,31.703,25.225,31.448z M29.477,31.358h1.813v2.152c-0.261,0.191-0.54,0.33-0.837,0.417
	c-0.294,0.086-0.602,0.13-0.924,0.13c-0.42,0-0.803-0.065-1.148-0.196c-0.343-0.133-0.637-0.315-0.882-0.546
	c-0.245-0.233-0.434-0.509-0.567-0.826c-0.133-0.32-0.199-0.666-0.199-1.039c0-0.38,0.063-0.729,0.189-1.046
	c0.126-0.32,0.306-0.595,0.539-0.826c0.236-0.231,0.519-0.411,0.851-0.539c0.334-0.128,0.706-0.193,1.117-0.193
	c0.212,0,0.412,0.017,0.598,0.052c0.187,0.035,0.358,0.083,0.514,0.144c0.159,0.061,0.303,0.133,0.434,0.217
	c0.131,0.084,0.247,0.175,0.35,0.273l-0.343,0.521c-0.054,0.082-0.124,0.132-0.21,0.15c-0.084,0.019-0.175-0.002-0.273-0.063
	c-0.093-0.056-0.182-0.104-0.266-0.143c-0.082-0.042-0.166-0.076-0.252-0.101c-0.086-0.026-0.177-0.044-0.273-0.056
	c-0.096-0.012-0.203-0.017-0.322-0.017c-0.222,0-0.421,0.04-0.599,0.119c-0.177,0.077-0.329,0.187-0.455,0.329
	c-0.124,0.142-0.219,0.314-0.287,0.515c-0.068,0.198-0.102,0.42-0.102,0.665c0,0.271,0.037,0.511,0.112,0.721
	c0.075,0.21,0.18,0.387,0.315,0.532c0.138,0.145,0.301,0.256,0.49,0.333c0.191,0.075,0.402,0.112,0.633,0.112
	c0.142,0,0.271-0.014,0.385-0.042c0.117-0.028,0.23-0.065,0.34-0.112v-0.774h-0.504c-0.075,0-0.133-0.02-0.175-0.059
	s-0.063-0.09-0.063-0.151V31.358z"/>
<path d="M2.5,19h29v-1h-29V19z M33,20.5v13h1v-13H33z M31.5,35h-29v1h29V35z M1,33.5v-13H0v13H1z M2.5,35C1.672,35,1,34.328,1,33.5
	H0C0,34.881,1.119,36,2.5,36V35z M33,33.5c0,0.828-0.672,1.5-1.5,1.5v1c1.381,0,2.5-1.119,2.5-2.5H33z M31.5,19
	c0.828,0,1.5,0.672,1.5,1.5h1c0-1.381-1.119-2.5-2.5-2.5V19z M2.5,18C1.119,18,0,19.119,0,20.5h1C1,19.672,1.672,19,2.5,19V18z"/>
</svg>
