<?xml version="1.0" encoding="UTF-8" standalone="no"?>
<!-- Generator: Adobe Illustrator 22.0.0, SVG Export Plug-In . SVG Version: 6.00 Build 0)  -->

<svg
   version="1.1"
   id="svg6"
   inkscape:version="1.1 (c68e22c387, 2021-05-23)"
   sodipodi:docname="bmp00174.svg"
   x="0px"
   y="0px"
   width="43px"
   height="14px"
   viewBox="0 0 43 14"
   xml:space="preserve"
   xmlns:inkscape="http://www.inkscape.org/namespaces/inkscape"
   xmlns:sodipodi="http://sodipodi.sourceforge.net/DTD/sodipodi-0.dtd"
   xmlns="http://www.w3.org/2000/svg"
   xmlns:svg="http://www.w3.org/2000/svg"><defs
   id="defs8" />
<style
   type="text/css"
   id="style2">
	.st0{fill:#333333;}
</style>
<sodipodi:namedview
   bordercolor="#666666"
   borderopacity="1.0"
   id="namedview8"
   inkscape:current-layer="svg6"
   inkscape:cx="18.634688"
   inkscape:cy="7.0108696"
   inkscape:pagecheckerboard="0"
   inkscape:pageopacity="0.0"
   inkscape:pageshadow="2"
   inkscape:window-height="1017"
   inkscape:window-maximized="1"
   inkscape:window-width="1920"
   inkscape:window-x="-8"
   inkscape:window-y="-8"
   inkscape:zoom="24.604651"
   pagecolor="#ffffff"
   showgrid="false">
	</sodipodi:namedview>
<path
   id="path2"
   class="st0"
   d="M1.5,3.5c0-1.1,0.9-2,2-2h36c1.1,0,2,0.9,2,2v7c0,1.1-0.9,2-2,2h-36c-1.1,0-2-0.9-2-2V3.5z"
   style="fill:#292b2f;fill-opacity:1" />
<path
   id="path4"
   d="M3.5,2h36V1h-36V2z M41,3.5v7h1v-7H41z M39.5,12h-36v1h36V12z M2,10.5v-7H1v7H2z M3.5,12C2.7,12,2,11.3,2,10.5H1  C1,11.9,2.1,13,3.5,13V12z M41,10.5c0,0.8-0.7,1.5-1.5,1.5v1c1.4,0,2.5-1.1,2.5-2.5H41z M39.5,2C40.3,2,41,2.7,41,3.5h1  C42,2.1,40.9,1,39.5,1V2z M3.5,1C2.1,1,1,2.1,1,3.5h1C2,2.7,2.7,2,3.5,2V1z" />
</svg>
