<?xml version="1.0" encoding="utf-8"?>
<!-- Generator: Adobe Illustrator 22.0.0, SVG Export Plug-In . SVG Version: 6.00 Build 0)  -->
<svg version="1.1" baseProfile="basic"
	 id="svg30" inkscape:version="1.1 (c68e22c387, 2021-05-23)" sodipodi:docname="bmp00113.svg" xmlns:inkscape="http://www.inkscape.org/namespaces/inkscape" xmlns:sodipodi="http://sodipodi.sourceforge.net/DTD/sodipodi-0.dtd" xmlns:svg="http://www.w3.org/2000/svg"
	 xmlns="http://www.w3.org/2000/svg" xmlns:xlink="http://www.w3.org/1999/xlink" x="0px" y="0px" width="40px" height="84px"
	 viewBox="0 0 40 84" xml:space="preserve">
<style type="text/css">
	.st0{fill:#595959;}
	.st1{fill:#FF9000;}
	.st2{fill:none;stroke:#FF9000;}
	.st3{opacity:0.5;}
	.st4{fill:#B4B4B4;}
</style>
<sodipodi:namedview  bordercolor="#666666" borderopacity="1.0" id="namedview32" inkscape:current-layer="svg30" inkscape:cx="20.040865" inkscape:cy="42.151442" inkscape:pagecheckerboard="0" inkscape:pageopacity="0.0" inkscape:pageshadow="2" inkscape:window-height="1017" inkscape:window-maximized="1" inkscape:window-width="1920" inkscape:window-x="-8" inkscape:window-y="-8" inkscape:zoom="9.9047619" pagecolor="#ffffff" showgrid="false">
	</sodipodi:namedview>
<path id="path2" class="st0" d="M0.5,2.5c0-1.1,0.9-2,2-2h35c1.1,0,2,0.9,2,2v37c0,1.1-0.9,2-2,2h-35c-1.1,0-2-0.9-2-2V2.5z"/>
<path id="rect4" class="st1" d="M3.5,2.5h33c0.6,0,1,0.4,1,1v14c0,0.6-0.4,1-1,1h-33c-0.6,0-1-0.4-1-1v-14C2.5,2.9,2.9,2.5,3.5,2.5z
	"/>
<path id="rect6" class="st2" d="M3.5,2.5h33c0.6,0,1,0.4,1,1v14c0,0.6-0.4,1-1,1h-33c-0.6,0-1-0.4-1-1v-14C2.5,2.9,2.9,2.5,3.5,2.5z
	"/>
<path id="path8" d="M21.8,12.6l-1.4-3.8c-0.1-0.2-0.1-0.4-0.2-0.6c-0.1-0.2-0.1-0.5-0.2-0.8c-0.1,0.3-0.1,0.5-0.2,0.8
	c-0.1,0.2-0.1,0.4-0.2,0.6l-1.4,3.8H21.8z M25.6,17H24c-0.2,0-0.3,0-0.5-0.1c-0.1-0.1-0.2-0.2-0.3-0.4l-0.9-2.4h-4.8l-0.9,2.4
	c0,0.1-0.1,0.2-0.2,0.3C16.4,16.9,16.2,17,16,17h-1.7l4.6-11.6h2.2L25.6,17z"/>
<path id="path10" class="st3" d="M38,20.5H2v1h36V20.5z"/>
<path id="path12" class="st4" d="M20.4,36.3c0.4,0,0.7,0,1-0.1c0.3-0.1,0.5-0.2,0.6-0.4c0.2-0.2,0.3-0.3,0.4-0.6
	c0.1-0.2,0.1-0.4,0.1-0.7c0-0.3,0-0.5-0.1-0.7c-0.1-0.2-0.2-0.4-0.4-0.5c-0.2-0.1-0.4-0.3-0.7-0.3c-0.3-0.1-0.6-0.1-1-0.1h-2.2v3.4
	H20.4z M18.2,28.1v3.3h1.7c0.7,0,1.3-0.1,1.7-0.4c0.4-0.3,0.6-0.7,0.6-1.3c0-0.6-0.2-1-0.5-1.3c-0.3-0.3-0.9-0.4-1.6-0.4H18.2z
	 M20,26.4c0.8,0,1.4,0.1,1.9,0.2c0.5,0.1,1,0.3,1.3,0.6c0.3,0.3,0.6,0.6,0.8,1s0.2,0.8,0.2,1.3c0,0.3,0,0.5-0.1,0.8
	c-0.1,0.2-0.2,0.5-0.4,0.7c-0.2,0.2-0.4,0.4-0.6,0.6c-0.3,0.2-0.6,0.3-0.9,0.4c1.6,0.4,2.4,1.2,2.4,2.6c0,0.5-0.1,0.9-0.3,1.4
	c-0.2,0.4-0.5,0.8-0.8,1.1c-0.4,0.3-0.8,0.5-1.3,0.7c-0.5,0.2-1.1,0.3-1.8,0.3H16V26.4H20z"/>
<path id="path14" d="M2.5,1h35V0h-35V1z M39,2.5v37h1v-37H39z M37.5,41h-35v1h35V41z M1,39.5v-37H0v37H1z M2.5,41
	C1.7,41,1,40.3,1,39.5H0C0,40.9,1.1,42,2.5,42V41z M39,39.5c0,0.8-0.7,1.5-1.5,1.5v1c1.4,0,2.5-1.1,2.5-2.5H39z M37.5,1
	C38.3,1,39,1.7,39,2.5h1C40,1.1,38.9,0,37.5,0V1z M2.5,0C1.1,0,0,1.1,0,2.5h1C1,1.7,1.7,1,2.5,1V0z"/>
<path id="path16" class="st0" d="M0.5,44.5c0-1.1,0.9-2,2-2h35c1.1,0,2,0.9,2,2v37c0,1.1-0.9,2-2,2h-35c-1.1,0-2-0.9-2-2V44.5z"/>
<path id="path18" class="st4" d="M21.8,54.6l-1.4-3.8c-0.1-0.2-0.1-0.4-0.2-0.6c-0.1-0.2-0.1-0.5-0.2-0.8c-0.1,0.3-0.1,0.5-0.2,0.8
	c-0.1,0.2-0.1,0.4-0.2,0.6l-1.4,3.8H21.8z M25.6,59H24c-0.2,0-0.3,0-0.5-0.1c-0.1-0.1-0.2-0.2-0.3-0.4l-0.9-2.4h-4.8l-0.9,2.4
	c0,0.1-0.1,0.2-0.2,0.3S16.2,59,16,59h-1.7l4.6-11.6h2.2L25.6,59z"/>
<path id="path20" class="st3" d="M38,62.5H2v1h36V62.5z"/>
<path id="rect22" class="st1" d="M3.5,65.5h33c0.6,0,1,0.4,1,1v14c0,0.6-0.4,1-1,1h-33c-0.6,0-1-0.4-1-1v-14
	C2.5,65.9,2.9,65.5,3.5,65.5z"/>
<path id="rect24" class="st2" d="M3.5,65.5h33c0.6,0,1,0.4,1,1v14c0,0.6-0.4,1-1,1h-33c-0.6,0-1-0.4-1-1v-14
	C2.5,65.9,2.9,65.5,3.5,65.5z"/>
<path id="path26" d="M20.4,78.3c0.4,0,0.7,0,1-0.1c0.3-0.1,0.5-0.2,0.6-0.4c0.2-0.2,0.3-0.3,0.4-0.6c0.1-0.2,0.1-0.4,0.1-0.7
	c0-0.3,0-0.5-0.1-0.7c-0.1-0.2-0.2-0.4-0.4-0.5c-0.2-0.1-0.4-0.3-0.7-0.3c-0.3-0.1-0.6-0.1-1-0.1h-2.2v3.4H20.4z M18.2,70.1v3.3h1.7
	c0.7,0,1.3-0.1,1.7-0.4c0.4-0.3,0.6-0.7,0.6-1.3c0-0.6-0.2-1-0.5-1.3c-0.3-0.3-0.9-0.4-1.6-0.4H18.2z M20,68.4
	c0.8,0,1.4,0.1,1.9,0.2c0.5,0.1,1,0.3,1.3,0.6c0.3,0.3,0.6,0.6,0.8,1s0.2,0.8,0.2,1.3c0,0.3,0,0.5-0.1,0.8c-0.1,0.2-0.2,0.5-0.4,0.7
	c-0.2,0.2-0.4,0.4-0.6,0.6c-0.3,0.2-0.6,0.3-0.9,0.4c1.6,0.4,2.4,1.2,2.4,2.6c0,0.5-0.1,0.9-0.3,1.4c-0.2,0.4-0.5,0.8-0.8,1.1
	c-0.4,0.3-0.8,0.5-1.3,0.7c-0.5,0.2-1.1,0.3-1.8,0.3H16V68.4H20z"/>
<path id="path28" d="M2.5,43h35v-1h-35V43z M39,44.5v37h1v-37H39z M37.5,83h-35v1h35V83z M1,81.5v-37H0v37H1z M2.5,83
	C1.7,83,1,82.3,1,81.5H0C0,82.9,1.1,84,2.5,84V83z M39,81.5c0,0.8-0.7,1.5-1.5,1.5v1c1.4,0,2.5-1.1,2.5-2.5H39z M37.5,43
	c0.8,0,1.5,0.7,1.5,1.5h1c0-1.4-1.1-2.5-2.5-2.5V43z M2.5,42C1.1,42,0,43.1,0,44.5h1C1,43.7,1.7,43,2.5,43V42z"/>
</svg>
