<?xml version="1.0" encoding="utf-8"?>
<!-- Generator: Adobe Illustrator 22.0.0, SVG Export Plug-In . SVG Version: 6.00 Build 0)  -->
<svg version="1.1" id="Layer_1" xmlns="http://www.w3.org/2000/svg" xmlns:xlink="http://www.w3.org/1999/xlink" x="0px" y="0px"
	 width="135px" height="36px" viewBox="0 0 135 36" style="enable-background:new 0 0 135 36;" xml:space="preserve">
<style type="text/css">
	.st0{fill:#595959;}
	.st1{fill:#FF9000;}
	.st2{fill:none;stroke:#FF9000;}
	.st3{opacity:0.75;}
	.st4{fill:#B4B4B4;}
</style>
<path class="st0" d="M0.5,2.5c0-1.105,0.895-2,2-2h130c1.105,0,2,0.895,2,2v7c0,1.105-0.895,2-2,2H2.5c-1.105,0-2-0.895-2-2V2.5z"/>
<path class="st1" d="M3.5,2.5h40c0.552,0,1,0.448,1,1v5c0,0.552-0.448,1-1,1h-40c-0.552,0-1-0.448-1-1v-5
	C2.5,2.948,2.948,2.5,3.5,2.5z"/>
<path class="st2" d="M3.5,2.5h40c0.552,0,1,0.448,1,1v5c0,0.552-0.448,1-1,1h-40c-0.552,0-1-0.448-1-1v-5
	C2.5,2.948,2.948,2.5,3.5,2.5z"/>
<path d="M21.188,3.172L19.388,9h-1.224l-1.096-3.612c-0.021-0.056-0.041-0.117-0.06-0.184c-0.019-0.069-0.037-0.141-0.056-0.216
	c-0.019,0.075-0.037,0.147-0.056,0.216c-0.019,0.067-0.039,0.128-0.06,0.184L15.724,9H14.5l-1.8-5.828h1.136
	c0.117,0,0.215,0.027,0.292,0.08c0.08,0.053,0.132,0.124,0.156,0.212l0.8,3.04c0.024,0.096,0.048,0.201,0.072,0.316
	c0.024,0.112,0.048,0.229,0.072,0.352c0.048-0.251,0.107-0.473,0.176-0.668l0.944-3.04c0.024-0.075,0.075-0.141,0.152-0.2
	c0.08-0.061,0.176-0.092,0.288-0.092h0.4c0.117,0,0.212,0.028,0.284,0.084c0.072,0.053,0.127,0.123,0.164,0.208l0.936,3.04
	c0.069,0.187,0.128,0.399,0.176,0.636c0.021-0.12,0.043-0.232,0.064-0.336c0.024-0.107,0.048-0.207,0.072-0.3l0.8-3.04
	c0.021-0.077,0.072-0.145,0.152-0.204s0.176-0.088,0.288-0.088H21.188z M23.116,7.312c-0.248,0.011-0.452,0.032-0.612,0.064
	s-0.287,0.072-0.38,0.12c-0.093,0.048-0.159,0.103-0.196,0.164c-0.035,0.061-0.052,0.128-0.052,0.2c0,0.141,0.039,0.241,0.116,0.3
	c0.077,0.056,0.191,0.084,0.34,0.084c0.16,0,0.3-0.028,0.42-0.084s0.241-0.147,0.364-0.272V7.312z M20.884,5.428
	c0.251-0.221,0.528-0.385,0.832-0.492c0.307-0.109,0.635-0.164,0.984-0.164c0.251,0,0.476,0.041,0.676,0.124
	c0.203,0.08,0.373,0.193,0.512,0.34c0.141,0.144,0.249,0.316,0.324,0.516c0.075,0.2,0.112,0.419,0.112,0.656V9h-0.568
	c-0.117,0-0.207-0.016-0.268-0.048c-0.059-0.032-0.108-0.099-0.148-0.2l-0.088-0.228c-0.104,0.088-0.204,0.165-0.3,0.232
	c-0.096,0.067-0.196,0.124-0.3,0.172c-0.101,0.045-0.211,0.079-0.328,0.1c-0.115,0.024-0.243,0.036-0.384,0.036
	c-0.189,0-0.361-0.024-0.516-0.072c-0.155-0.051-0.287-0.124-0.396-0.22c-0.107-0.096-0.189-0.215-0.248-0.356
	c-0.059-0.144-0.088-0.309-0.088-0.496c0-0.149,0.037-0.3,0.112-0.452c0.075-0.155,0.204-0.295,0.388-0.42
	c0.184-0.128,0.432-0.235,0.744-0.32s0.705-0.133,1.18-0.144V6.408c0-0.243-0.051-0.417-0.152-0.524
	c-0.099-0.109-0.24-0.164-0.424-0.164c-0.147,0-0.267,0.016-0.36,0.048s-0.177,0.068-0.252,0.108
	c-0.072,0.04-0.143,0.076-0.212,0.108c-0.069,0.032-0.152,0.048-0.248,0.048c-0.085,0-0.157-0.021-0.216-0.064
	c-0.059-0.043-0.107-0.093-0.144-0.152L20.884,5.428z M26.157,5.492c0.128-0.224,0.275-0.4,0.44-0.528
	c0.168-0.128,0.36-0.192,0.576-0.192c0.187,0,0.339,0.044,0.456,0.132l-0.08,0.912c-0.013,0.059-0.036,0.099-0.068,0.12
	c-0.029,0.021-0.071,0.032-0.124,0.032c-0.021,0-0.049-0.001-0.084-0.004c-0.035-0.003-0.071-0.005-0.108-0.008
	c-0.037-0.005-0.076-0.009-0.116-0.012c-0.037-0.005-0.072-0.008-0.104-0.008c-0.181,0-0.327,0.048-0.436,0.144
	c-0.107,0.096-0.197,0.229-0.272,0.4V9h-1.24V4.852h0.736c0.061,0,0.112,0.005,0.152,0.016c0.043,0.011,0.077,0.028,0.104,0.052
	c0.029,0.021,0.051,0.051,0.064,0.088c0.016,0.037,0.029,0.083,0.04,0.136L26.157,5.492z M27.931,9V4.852h0.768
	c0.155,0,0.256,0.069,0.304,0.208l0.068,0.224c0.069-0.072,0.141-0.137,0.216-0.196c0.075-0.061,0.155-0.113,0.24-0.156
	c0.088-0.045,0.181-0.08,0.28-0.104c0.101-0.027,0.212-0.04,0.332-0.04c0.251,0,0.457,0.065,0.62,0.196
	c0.165,0.128,0.291,0.3,0.376,0.516c0.069-0.128,0.153-0.237,0.252-0.328c0.101-0.091,0.209-0.164,0.324-0.22
	c0.117-0.056,0.24-0.097,0.368-0.124c0.131-0.027,0.26-0.04,0.388-0.04c0.237,0,0.448,0.036,0.632,0.108
	c0.184,0.069,0.337,0.172,0.46,0.308c0.125,0.133,0.22,0.299,0.284,0.496c0.064,0.195,0.096,0.416,0.096,0.664V9h-1.24V6.364
	c0-0.429-0.184-0.644-0.552-0.644c-0.168,0-0.308,0.056-0.42,0.168c-0.109,0.109-0.164,0.268-0.164,0.476V9h-1.24V6.364
	c0-0.237-0.047-0.404-0.14-0.5C30.09,5.768,29.953,5.72,29.771,5.72c-0.112,0-0.219,0.025-0.32,0.076
	C29.353,5.847,29.259,5.915,29.171,6v3H27.931z"/>
<g class="st3">
	<rect x="45.5" y="2" width="1" height="8"/>
</g>
<path class="st4" d="M59.875,3.172V9h-0.704c-0.104,0-0.192-0.016-0.264-0.048c-0.069-0.035-0.139-0.093-0.208-0.176L55.951,5.3
	c0.011,0.104,0.017,0.205,0.02,0.304c0.005,0.096,0.008,0.187,0.008,0.272V9h-1.192V3.172h0.712c0.059,0,0.108,0.003,0.148,0.008
	c0.04,0.005,0.076,0.016,0.108,0.032c0.032,0.013,0.063,0.033,0.092,0.06c0.029,0.027,0.063,0.063,0.1,0.108l2.772,3.5
	c-0.013-0.112-0.023-0.22-0.028-0.324c-0.005-0.107-0.008-0.207-0.008-0.3V3.172H59.875z M63.197,6.428
	c0-0.099-0.013-0.195-0.04-0.288c-0.024-0.093-0.065-0.176-0.124-0.248c-0.056-0.075-0.131-0.135-0.224-0.18
	c-0.093-0.045-0.207-0.068-0.34-0.068c-0.235,0-0.419,0.068-0.552,0.204c-0.133,0.133-0.221,0.327-0.264,0.58H63.197z M61.637,7.148
	c0.04,0.347,0.145,0.599,0.316,0.756c0.171,0.155,0.391,0.232,0.66,0.232c0.144,0,0.268-0.017,0.372-0.052
	c0.104-0.035,0.196-0.073,0.276-0.116c0.083-0.043,0.157-0.081,0.224-0.116C63.554,7.817,63.626,7.8,63.701,7.8
	c0.099,0,0.173,0.036,0.224,0.108l0.36,0.444c-0.128,0.147-0.267,0.267-0.416,0.36c-0.147,0.091-0.299,0.163-0.456,0.216
	c-0.155,0.051-0.311,0.085-0.468,0.104c-0.155,0.021-0.303,0.032-0.444,0.032c-0.291,0-0.564-0.047-0.82-0.14
	c-0.253-0.096-0.476-0.237-0.668-0.424c-0.189-0.187-0.34-0.419-0.452-0.696c-0.109-0.277-0.164-0.6-0.164-0.968
	c0-0.277,0.047-0.54,0.14-0.788c0.096-0.248,0.232-0.465,0.408-0.652c0.179-0.187,0.393-0.335,0.644-0.444
	c0.253-0.109,0.539-0.164,0.856-0.164c0.275,0,0.525,0.043,0.752,0.128c0.229,0.085,0.425,0.209,0.588,0.372
	c0.165,0.163,0.293,0.363,0.384,0.6c0.093,0.235,0.14,0.501,0.14,0.8c0,0.093-0.004,0.169-0.012,0.228
	c-0.008,0.059-0.023,0.105-0.044,0.14c-0.021,0.035-0.051,0.059-0.088,0.072c-0.035,0.013-0.08,0.02-0.136,0.02H61.637z
	 M68.53,4.852V9h-0.768c-0.155,0-0.256-0.069-0.304-0.208l-0.072-0.24c-0.08,0.077-0.163,0.148-0.248,0.212
	c-0.085,0.061-0.177,0.115-0.276,0.16C66.766,8.967,66.66,9,66.546,9.024c-0.112,0.027-0.235,0.04-0.368,0.04
	c-0.227,0-0.428-0.039-0.604-0.116c-0.173-0.08-0.32-0.191-0.44-0.332s-0.211-0.308-0.272-0.5C64.8,7.924,64.77,7.713,64.77,7.484
	V4.852h1.24v2.632c0,0.205,0.047,0.364,0.14,0.476c0.093,0.112,0.231,0.168,0.412,0.168c0.136,0,0.263-0.028,0.38-0.084
	c0.12-0.059,0.236-0.137,0.348-0.236V4.852H68.53z M70.736,9.064c-0.197,0-0.372-0.028-0.524-0.084
	c-0.149-0.059-0.276-0.14-0.38-0.244c-0.101-0.107-0.179-0.235-0.232-0.384c-0.053-0.149-0.08-0.316-0.08-0.5V5.708h-0.352
	c-0.064,0-0.119-0.02-0.164-0.06c-0.045-0.043-0.068-0.104-0.068-0.184V4.98l0.66-0.128L69.84,3.84
	c0.032-0.128,0.123-0.192,0.272-0.192h0.648V4.86h1.028v0.848H70.76v2.06c0,0.096,0.023,0.176,0.068,0.24
	C70.876,8.069,70.944,8.1,71.032,8.1c0.045,0,0.083-0.004,0.112-0.012c0.032-0.011,0.059-0.021,0.08-0.032
	c0.024-0.013,0.045-0.024,0.064-0.032c0.021-0.011,0.045-0.016,0.072-0.016c0.037,0,0.067,0.009,0.088,0.028
	c0.024,0.016,0.048,0.043,0.072,0.08l0.376,0.588c-0.16,0.12-0.34,0.211-0.54,0.272C71.156,9.035,70.949,9.064,70.736,9.064z
	 M73.362,5.492c0.128-0.224,0.275-0.4,0.44-0.528c0.168-0.128,0.36-0.192,0.576-0.192c0.187,0,0.339,0.044,0.456,0.132l-0.08,0.912
	c-0.013,0.059-0.036,0.099-0.068,0.12c-0.029,0.021-0.071,0.032-0.124,0.032c-0.021,0-0.049-0.001-0.084-0.004
	c-0.035-0.003-0.071-0.005-0.108-0.008c-0.037-0.005-0.076-0.009-0.116-0.012c-0.037-0.005-0.072-0.008-0.104-0.008
	c-0.181,0-0.327,0.048-0.436,0.144c-0.107,0.096-0.197,0.229-0.272,0.4V9h-1.24V4.852h0.736c0.061,0,0.112,0.005,0.152,0.016
	c0.043,0.011,0.077,0.028,0.104,0.052c0.029,0.021,0.051,0.051,0.064,0.088c0.016,0.037,0.029,0.083,0.04,0.136L73.362,5.492z
	 M77.238,7.312c-0.248,0.011-0.452,0.032-0.612,0.064c-0.16,0.032-0.287,0.072-0.38,0.12c-0.093,0.048-0.159,0.103-0.196,0.164
	c-0.035,0.061-0.052,0.128-0.052,0.2c0,0.141,0.039,0.241,0.116,0.3c0.077,0.056,0.191,0.084,0.34,0.084
	c0.16,0,0.3-0.028,0.42-0.084s0.241-0.147,0.364-0.272V7.312z M75.006,5.428c0.251-0.221,0.528-0.385,0.832-0.492
	c0.307-0.109,0.635-0.164,0.984-0.164c0.251,0,0.476,0.041,0.676,0.124c0.203,0.08,0.373,0.193,0.512,0.34
	c0.141,0.144,0.249,0.316,0.324,0.516c0.075,0.2,0.112,0.419,0.112,0.656V9h-0.568c-0.117,0-0.207-0.016-0.268-0.048
	c-0.059-0.032-0.108-0.099-0.148-0.2l-0.088-0.228c-0.104,0.088-0.204,0.165-0.3,0.232c-0.096,0.067-0.196,0.124-0.3,0.172
	c-0.101,0.045-0.211,0.079-0.328,0.1c-0.115,0.024-0.243,0.036-0.384,0.036c-0.189,0-0.361-0.024-0.516-0.072
	c-0.155-0.051-0.287-0.124-0.396-0.22c-0.107-0.096-0.189-0.215-0.248-0.356c-0.059-0.144-0.088-0.309-0.088-0.496
	c0-0.149,0.037-0.3,0.112-0.452c0.075-0.155,0.204-0.295,0.388-0.42c0.184-0.128,0.432-0.235,0.744-0.32
	c0.312-0.085,0.705-0.133,1.18-0.144V6.408c0-0.243-0.051-0.417-0.152-0.524c-0.099-0.109-0.24-0.164-0.424-0.164
	c-0.147,0-0.267,0.016-0.36,0.048C76.209,5.8,76.125,5.836,76.05,5.876c-0.072,0.04-0.143,0.076-0.212,0.108
	c-0.069,0.032-0.152,0.048-0.248,0.048c-0.085,0-0.157-0.021-0.216-0.064c-0.059-0.043-0.107-0.093-0.144-0.152L75.006,5.428z
	 M80.359,3.012V9h-1.24V3.012H80.359z"/>
<g class="st3">
	<rect x="88.5" y="2" width="1" height="8"/>
</g>
<path class="st4" d="M103.5,7.98c0.179,0,0.324-0.023,0.436-0.068c0.115-0.045,0.204-0.104,0.268-0.176
	c0.064-0.072,0.108-0.153,0.132-0.244s0.036-0.183,0.036-0.276c0-0.107-0.015-0.203-0.044-0.288
	c-0.027-0.085-0.075-0.157-0.144-0.216c-0.067-0.059-0.156-0.104-0.268-0.136c-0.112-0.032-0.253-0.048-0.424-0.048h-0.944V7.98
	H103.5z M102.548,4.184v1.44h0.704c0.149,0,0.284-0.011,0.404-0.032c0.12-0.021,0.221-0.059,0.304-0.112
	c0.085-0.053,0.149-0.127,0.192-0.22c0.045-0.093,0.068-0.211,0.068-0.352c0-0.139-0.017-0.253-0.052-0.344
	c-0.035-0.093-0.088-0.168-0.16-0.224c-0.072-0.056-0.164-0.096-0.276-0.12c-0.109-0.024-0.24-0.036-0.392-0.036H102.548z
	 M103.34,3.172c0.403,0,0.745,0.037,1.028,0.112c0.283,0.075,0.513,0.18,0.692,0.316c0.179,0.136,0.308,0.301,0.388,0.496
	c0.083,0.195,0.124,0.412,0.124,0.652c0,0.131-0.019,0.257-0.056,0.38c-0.037,0.12-0.096,0.233-0.176,0.34
	c-0.08,0.104-0.183,0.2-0.308,0.288s-0.276,0.164-0.452,0.228c0.384,0.093,0.668,0.244,0.852,0.452
	c0.184,0.208,0.276,0.477,0.276,0.808c0,0.248-0.048,0.479-0.144,0.692c-0.096,0.213-0.237,0.4-0.424,0.56
	c-0.184,0.157-0.412,0.281-0.684,0.372C104.184,8.956,103.873,9,103.524,9h-2.328V3.172H103.34z M107.381,5.492
	c0.128-0.224,0.275-0.4,0.44-0.528c0.168-0.128,0.36-0.192,0.576-0.192c0.187,0,0.339,0.044,0.456,0.132l-0.08,0.912
	c-0.013,0.059-0.036,0.099-0.068,0.12c-0.029,0.021-0.071,0.032-0.124,0.032c-0.021,0-0.049-0.001-0.084-0.004
	c-0.035-0.003-0.071-0.005-0.108-0.008c-0.037-0.005-0.076-0.009-0.116-0.012c-0.037-0.005-0.072-0.008-0.104-0.008
	c-0.181,0-0.327,0.048-0.436,0.144c-0.107,0.096-0.197,0.229-0.272,0.4V9h-1.24V4.852h0.736c0.061,0,0.112,0.005,0.152,0.016
	c0.043,0.011,0.077,0.028,0.104,0.052c0.029,0.021,0.051,0.051,0.064,0.088c0.016,0.037,0.029,0.083,0.04,0.136L107.381,5.492z
	 M110.424,4.852V9h-1.24V4.852H110.424z M110.552,3.716c0,0.099-0.02,0.192-0.06,0.28c-0.04,0.085-0.095,0.161-0.164,0.228
	c-0.07,0.064-0.151,0.116-0.244,0.156c-0.091,0.037-0.188,0.056-0.292,0.056c-0.102,0-0.196-0.019-0.284-0.056
	c-0.088-0.04-0.167-0.092-0.236-0.156c-0.067-0.067-0.12-0.143-0.16-0.228c-0.038-0.088-0.056-0.181-0.056-0.28
	c0-0.101,0.018-0.196,0.056-0.284c0.04-0.088,0.093-0.165,0.16-0.232c0.069-0.067,0.148-0.119,0.236-0.156
	c0.088-0.037,0.182-0.056,0.284-0.056c0.104,0,0.201,0.019,0.292,0.056c0.093,0.037,0.174,0.089,0.244,0.156
	c0.069,0.067,0.124,0.144,0.164,0.232C110.532,3.52,110.552,3.615,110.552,3.716z M112.749,6.708c0.205,0,0.353-0.051,0.444-0.152
	c0.093-0.104,0.14-0.237,0.14-0.4c0-0.168-0.047-0.3-0.14-0.396c-0.091-0.096-0.239-0.144-0.444-0.144
	c-0.206,0-0.355,0.048-0.448,0.144c-0.091,0.096-0.136,0.228-0.136,0.396c0,0.08,0.01,0.153,0.032,0.22
	c0.024,0.067,0.06,0.125,0.108,0.176c0.048,0.048,0.108,0.087,0.18,0.116C112.559,6.695,112.647,6.708,112.749,6.708z
	 M113.709,9.152c0-0.099-0.044-0.169-0.132-0.212c-0.088-0.045-0.203-0.077-0.344-0.096c-0.142-0.019-0.3-0.029-0.476-0.032
	c-0.174-0.005-0.347-0.016-0.52-0.032c-0.078,0.053-0.142,0.113-0.192,0.18c-0.048,0.064-0.072,0.137-0.072,0.22
	c0,0.059,0.012,0.112,0.036,0.16c0.026,0.048,0.072,0.089,0.136,0.124c0.064,0.035,0.149,0.061,0.256,0.08
	c0.109,0.021,0.246,0.032,0.412,0.032c0.178,0,0.325-0.011,0.44-0.032c0.114-0.021,0.205-0.051,0.272-0.088
	c0.069-0.037,0.117-0.083,0.144-0.136C113.695,9.269,113.709,9.213,113.709,9.152z M114.933,4.98v0.452
	c0,0.069-0.02,0.124-0.06,0.164c-0.038,0.04-0.103,0.071-0.196,0.092l-0.3,0.068c0.016,0.059,0.028,0.119,0.036,0.18
	c0.01,0.061,0.016,0.125,0.016,0.192c0,0.208-0.044,0.395-0.132,0.56c-0.086,0.165-0.204,0.307-0.356,0.424
	c-0.15,0.115-0.327,0.204-0.532,0.268c-0.206,0.061-0.426,0.092-0.66,0.092c-0.064,0-0.127-0.001-0.188-0.004
	c-0.062-0.005-0.122-0.013-0.18-0.024c-0.091,0.056-0.136,0.119-0.136,0.188c0,0.069,0.037,0.12,0.112,0.152
	c0.074,0.029,0.173,0.051,0.296,0.064c0.122,0.011,0.261,0.019,0.416,0.024c0.157,0.003,0.317,0.012,0.48,0.028
	c0.162,0.013,0.321,0.037,0.476,0.072c0.157,0.035,0.297,0.091,0.42,0.168c0.122,0.077,0.221,0.181,0.296,0.312
	c0.074,0.128,0.112,0.292,0.112,0.492c0,0.187-0.046,0.369-0.136,0.548c-0.091,0.179-0.224,0.337-0.4,0.476
	c-0.176,0.139-0.392,0.249-0.648,0.332c-0.256,0.085-0.55,0.128-0.88,0.128c-0.326,0-0.607-0.031-0.844-0.092
	c-0.235-0.061-0.431-0.143-0.588-0.244c-0.155-0.099-0.27-0.213-0.344-0.344c-0.075-0.131-0.112-0.267-0.112-0.408
	c0-0.184,0.053-0.337,0.16-0.46c0.106-0.123,0.256-0.221,0.448-0.296c-0.102-0.061-0.182-0.14-0.24-0.236
	c-0.059-0.096-0.088-0.22-0.088-0.372c0-0.061,0.01-0.125,0.032-0.192c0.021-0.069,0.054-0.136,0.1-0.2
	c0.048-0.067,0.106-0.129,0.176-0.188c0.069-0.059,0.152-0.111,0.248-0.156c-0.216-0.115-0.387-0.265-0.512-0.452
	c-0.126-0.189-0.188-0.409-0.188-0.66c0-0.208,0.044-0.395,0.132-0.56c0.088-0.168,0.208-0.309,0.36-0.424
	c0.154-0.117,0.336-0.207,0.544-0.268c0.208-0.064,0.433-0.096,0.676-0.096c0.352,0,0.664,0.067,0.936,0.2H114.933z M116.57,5.216
	c0.149-0.128,0.311-0.231,0.484-0.308c0.176-0.08,0.385-0.12,0.628-0.12c0.227,0,0.427,0.04,0.6,0.12
	c0.176,0.077,0.324,0.187,0.444,0.328c0.12,0.139,0.211,0.305,0.272,0.5c0.061,0.192,0.092,0.401,0.092,0.628V9h-1.24V6.364
	c0-0.203-0.047-0.36-0.14-0.472c-0.093-0.115-0.231-0.172-0.412-0.172c-0.136,0-0.264,0.029-0.384,0.088
	c-0.117,0.056-0.232,0.133-0.344,0.232V9h-1.24V3.012h1.24V5.216z M121.202,9.064c-0.198,0-0.372-0.028-0.524-0.084
	c-0.15-0.059-0.276-0.14-0.38-0.244c-0.102-0.107-0.179-0.235-0.232-0.384c-0.054-0.149-0.08-0.316-0.08-0.5V5.708h-0.352
	c-0.064,0-0.119-0.02-0.164-0.06c-0.046-0.043-0.068-0.104-0.068-0.184V4.98l0.66-0.128l0.244-1.012
	c0.032-0.128,0.122-0.192,0.272-0.192h0.648V4.86h1.028v0.848h-1.028v2.06c0,0.096,0.022,0.176,0.068,0.24
	c0.048,0.061,0.116,0.092,0.204,0.092c0.045,0,0.082-0.004,0.112-0.012c0.032-0.011,0.058-0.021,0.08-0.032
	c0.024-0.013,0.045-0.024,0.064-0.032c0.021-0.011,0.045-0.016,0.072-0.016c0.037,0,0.066,0.009,0.088,0.028
	c0.024,0.016,0.048,0.043,0.072,0.08l0.376,0.588c-0.16,0.12-0.34,0.211-0.54,0.272C121.622,9.035,121.415,9.064,121.202,9.064z"/>
<path d="M2.5,1h130V0H2.5V1z M134,2.5v7h1v-7H134z M132.5,11H2.5v1h130V11z M1,9.5v-7H0v7H1z M2.5,11C1.672,11,1,10.328,1,9.5H0
	C0,10.881,1.119,12,2.5,12V11z M134,9.5c0,0.828-0.672,1.5-1.5,1.5v1c1.381,0,2.5-1.119,2.5-2.5H134z M132.5,1
	c0.828,0,1.5,0.672,1.5,1.5h1c0-1.381-1.119-2.5-2.5-2.5V1z M2.5,0C1.119,0,0,1.119,0,2.5h1C1,1.672,1.672,1,2.5,1V0z"/>
<path class="st0" d="M0.5,14.5c0-1.105,0.895-2,2-2h130c1.105,0,2,0.895,2,2v7c0,1.105-0.895,2-2,2H2.5c-1.105,0-2-0.895-2-2V14.5z"
	/>
<path class="st4" d="M21.188,15.172L19.388,21h-1.224l-1.096-3.612c-0.021-0.056-0.041-0.117-0.06-0.184
	c-0.019-0.069-0.037-0.141-0.056-0.216c-0.019,0.075-0.037,0.147-0.056,0.216c-0.019,0.067-0.039,0.128-0.06,0.184L15.724,21H14.5
	l-1.8-5.828h1.136c0.117,0,0.215,0.027,0.292,0.08c0.08,0.053,0.132,0.124,0.156,0.212l0.8,3.04
	c0.024,0.096,0.048,0.201,0.072,0.316c0.024,0.112,0.048,0.229,0.072,0.352c0.048-0.251,0.107-0.473,0.176-0.668l0.944-3.04
	c0.024-0.075,0.075-0.141,0.152-0.2c0.08-0.061,0.176-0.092,0.288-0.092h0.4c0.117,0,0.212,0.028,0.284,0.084
	c0.072,0.053,0.127,0.123,0.164,0.208l0.936,3.04c0.069,0.187,0.128,0.399,0.176,0.636c0.021-0.12,0.043-0.232,0.064-0.336
	c0.024-0.107,0.048-0.207,0.072-0.3l0.8-3.04c0.021-0.077,0.072-0.145,0.152-0.204c0.08-0.059,0.176-0.088,0.288-0.088H21.188z
	 M23.116,19.312c-0.248,0.011-0.452,0.032-0.612,0.064c-0.16,0.032-0.287,0.072-0.38,0.12s-0.159,0.103-0.196,0.164
	c-0.035,0.061-0.052,0.128-0.052,0.2c0,0.141,0.039,0.241,0.116,0.3c0.077,0.056,0.191,0.084,0.34,0.084
	c0.16,0,0.3-0.028,0.42-0.084s0.241-0.147,0.364-0.272V19.312z M20.884,17.428c0.251-0.221,0.528-0.385,0.832-0.492
	c0.307-0.109,0.635-0.164,0.984-0.164c0.251,0,0.476,0.041,0.676,0.124c0.203,0.08,0.373,0.193,0.512,0.34
	c0.141,0.144,0.249,0.316,0.324,0.516c0.075,0.2,0.112,0.419,0.112,0.656V21h-0.568c-0.117,0-0.207-0.016-0.268-0.048
	c-0.059-0.032-0.108-0.099-0.148-0.2l-0.088-0.228c-0.104,0.088-0.204,0.165-0.3,0.232c-0.096,0.067-0.196,0.124-0.3,0.172
	c-0.101,0.045-0.211,0.079-0.328,0.1c-0.115,0.024-0.243,0.036-0.384,0.036c-0.189,0-0.361-0.024-0.516-0.072
	c-0.155-0.051-0.287-0.124-0.396-0.22c-0.107-0.096-0.189-0.215-0.248-0.356c-0.059-0.144-0.088-0.309-0.088-0.496
	c0-0.149,0.037-0.3,0.112-0.452c0.075-0.155,0.204-0.295,0.388-0.42c0.184-0.128,0.432-0.235,0.744-0.32
	c0.312-0.085,0.705-0.133,1.18-0.144v-0.176c0-0.243-0.051-0.417-0.152-0.524c-0.099-0.109-0.24-0.164-0.424-0.164
	c-0.147,0-0.267,0.016-0.36,0.048s-0.177,0.068-0.252,0.108c-0.072,0.04-0.143,0.076-0.212,0.108
	c-0.069,0.032-0.152,0.048-0.248,0.048c-0.085,0-0.157-0.021-0.216-0.064s-0.107-0.093-0.144-0.152L20.884,17.428z M26.157,17.492
	c0.128-0.224,0.275-0.4,0.44-0.528c0.168-0.128,0.36-0.192,0.576-0.192c0.187,0,0.339,0.044,0.456,0.132l-0.08,0.912
	c-0.013,0.059-0.036,0.099-0.068,0.12c-0.029,0.021-0.071,0.032-0.124,0.032c-0.021,0-0.049-0.001-0.084-0.004
	c-0.035-0.003-0.071-0.005-0.108-0.008c-0.037-0.005-0.076-0.009-0.116-0.012c-0.037-0.005-0.072-0.008-0.104-0.008
	c-0.181,0-0.327,0.048-0.436,0.144c-0.107,0.096-0.197,0.229-0.272,0.4V21h-1.24v-4.148h0.736c0.061,0,0.112,0.005,0.152,0.016
	c0.043,0.011,0.077,0.028,0.104,0.052c0.029,0.021,0.051,0.051,0.064,0.088c0.016,0.037,0.029,0.083,0.04,0.136L26.157,17.492z
	 M27.931,21v-4.148h0.768c0.155,0,0.256,0.069,0.304,0.208l0.068,0.224c0.069-0.072,0.141-0.137,0.216-0.196
	c0.075-0.061,0.155-0.113,0.24-0.156c0.088-0.045,0.181-0.08,0.28-0.104c0.101-0.027,0.212-0.04,0.332-0.04
	c0.251,0,0.457,0.065,0.62,0.196c0.165,0.128,0.291,0.3,0.376,0.516c0.069-0.128,0.153-0.237,0.252-0.328
	c0.101-0.091,0.209-0.164,0.324-0.22c0.117-0.056,0.24-0.097,0.368-0.124c0.131-0.027,0.26-0.04,0.388-0.04
	c0.237,0,0.448,0.036,0.632,0.108c0.184,0.069,0.337,0.172,0.46,0.308c0.125,0.133,0.22,0.299,0.284,0.496
	c0.064,0.195,0.096,0.416,0.096,0.664V21h-1.24v-2.636c0-0.429-0.184-0.644-0.552-0.644c-0.168,0-0.308,0.056-0.42,0.168
	c-0.109,0.109-0.164,0.268-0.164,0.476V21h-1.24v-2.636c0-0.237-0.047-0.404-0.14-0.5c-0.093-0.096-0.231-0.144-0.412-0.144
	c-0.112,0-0.219,0.025-0.32,0.076c-0.099,0.051-0.192,0.119-0.28,0.204v3H27.931z"/>
<g class="st3">
	<rect x="45.5" y="14" width="1" height="8"/>
</g>
<path class="st1" d="M48.5,14.5h38c0.552,0,1,0.448,1,1v5c0,0.552-0.448,1-1,1h-38c-0.552,0-1-0.448-1-1v-5
	C47.5,14.948,47.948,14.5,48.5,14.5z"/>
<path class="st2" d="M48.5,14.5h38c0.552,0,1,0.448,1,1v5c0,0.552-0.448,1-1,1h-38c-0.552,0-1-0.448-1-1v-5
	C47.5,14.948,47.948,14.5,48.5,14.5z"/>
<path d="M59.875,15.172V21h-0.704c-0.104,0-0.192-0.016-0.264-0.048c-0.069-0.035-0.139-0.093-0.208-0.176L55.951,17.3
	c0.011,0.104,0.017,0.205,0.02,0.304c0.005,0.096,0.008,0.187,0.008,0.272V21h-1.192v-5.828h0.712c0.059,0,0.108,0.003,0.148,0.008
	c0.04,0.005,0.076,0.016,0.108,0.032c0.032,0.013,0.063,0.033,0.092,0.06c0.029,0.027,0.063,0.063,0.1,0.108l2.772,3.5
	c-0.013-0.112-0.023-0.22-0.028-0.324c-0.005-0.107-0.008-0.207-0.008-0.3v-3.084H59.875z M63.197,18.428
	c0-0.099-0.013-0.195-0.04-0.288c-0.024-0.093-0.065-0.176-0.124-0.248c-0.056-0.075-0.131-0.135-0.224-0.18
	c-0.093-0.045-0.207-0.068-0.34-0.068c-0.235,0-0.419,0.068-0.552,0.204c-0.133,0.133-0.221,0.327-0.264,0.58H63.197z
	 M61.637,19.148c0.04,0.347,0.145,0.599,0.316,0.756c0.171,0.155,0.391,0.232,0.66,0.232c0.144,0,0.268-0.017,0.372-0.052
	s0.196-0.073,0.276-0.116c0.083-0.043,0.157-0.081,0.224-0.116c0.069-0.035,0.141-0.052,0.216-0.052
	c0.099,0,0.173,0.036,0.224,0.108l0.36,0.444c-0.128,0.147-0.267,0.267-0.416,0.36c-0.147,0.091-0.299,0.163-0.456,0.216
	c-0.155,0.051-0.311,0.085-0.468,0.104c-0.155,0.021-0.303,0.032-0.444,0.032c-0.291,0-0.564-0.047-0.82-0.14
	c-0.253-0.096-0.476-0.237-0.668-0.424c-0.189-0.187-0.34-0.419-0.452-0.696c-0.109-0.277-0.164-0.6-0.164-0.968
	c0-0.277,0.047-0.54,0.14-0.788c0.096-0.248,0.232-0.465,0.408-0.652c0.179-0.187,0.393-0.335,0.644-0.444
	c0.253-0.109,0.539-0.164,0.856-0.164c0.275,0,0.525,0.043,0.752,0.128c0.229,0.085,0.425,0.209,0.588,0.372
	c0.165,0.163,0.293,0.363,0.384,0.6c0.093,0.235,0.14,0.501,0.14,0.8c0,0.093-0.004,0.169-0.012,0.228
	c-0.008,0.059-0.023,0.105-0.044,0.14c-0.021,0.035-0.051,0.059-0.088,0.072c-0.035,0.013-0.08,0.02-0.136,0.02H61.637z
	 M68.53,16.852V21h-0.768c-0.155,0-0.256-0.069-0.304-0.208l-0.072-0.24c-0.08,0.077-0.163,0.148-0.248,0.212
	c-0.085,0.061-0.177,0.115-0.276,0.16c-0.096,0.043-0.201,0.076-0.316,0.1c-0.112,0.027-0.235,0.04-0.368,0.04
	c-0.227,0-0.428-0.039-0.604-0.116c-0.173-0.08-0.32-0.191-0.44-0.332c-0.12-0.141-0.211-0.308-0.272-0.5
	c-0.061-0.192-0.092-0.403-0.092-0.632v-2.632h1.24v2.632c0,0.205,0.047,0.364,0.14,0.476c0.093,0.112,0.231,0.168,0.412,0.168
	c0.136,0,0.263-0.028,0.38-0.084c0.12-0.059,0.236-0.137,0.348-0.236v-2.956H68.53z M70.736,21.064
	c-0.197,0-0.372-0.028-0.524-0.084c-0.149-0.059-0.276-0.14-0.38-0.244c-0.101-0.107-0.179-0.235-0.232-0.384
	c-0.053-0.149-0.08-0.316-0.08-0.5v-2.144h-0.352c-0.064,0-0.119-0.02-0.164-0.06c-0.045-0.043-0.068-0.104-0.068-0.184V16.98
	l0.66-0.128l0.244-1.012c0.032-0.128,0.123-0.192,0.272-0.192h0.648v1.212h1.028v0.848H70.76v2.06c0,0.096,0.023,0.176,0.068,0.24
	c0.048,0.061,0.116,0.092,0.204,0.092c0.045,0,0.083-0.004,0.112-0.012c0.032-0.011,0.059-0.021,0.08-0.032
	c0.024-0.013,0.045-0.024,0.064-0.032c0.021-0.011,0.045-0.016,0.072-0.016c0.037,0,0.067,0.009,0.088,0.028
	c0.024,0.016,0.048,0.043,0.072,0.08l0.376,0.588c-0.16,0.12-0.34,0.211-0.54,0.272C71.156,21.035,70.949,21.064,70.736,21.064z
	 M73.362,17.492c0.128-0.224,0.275-0.4,0.44-0.528c0.168-0.128,0.36-0.192,0.576-0.192c0.187,0,0.339,0.044,0.456,0.132l-0.08,0.912
	c-0.013,0.059-0.036,0.099-0.068,0.12c-0.029,0.021-0.071,0.032-0.124,0.032c-0.021,0-0.049-0.001-0.084-0.004
	c-0.035-0.003-0.071-0.005-0.108-0.008c-0.037-0.005-0.076-0.009-0.116-0.012c-0.037-0.005-0.072-0.008-0.104-0.008
	c-0.181,0-0.327,0.048-0.436,0.144c-0.107,0.096-0.197,0.229-0.272,0.4V21h-1.24v-4.148h0.736c0.061,0,0.112,0.005,0.152,0.016
	c0.043,0.011,0.077,0.028,0.104,0.052c0.029,0.021,0.051,0.051,0.064,0.088c0.016,0.037,0.029,0.083,0.04,0.136L73.362,17.492z
	 M77.238,19.312c-0.248,0.011-0.452,0.032-0.612,0.064c-0.16,0.032-0.287,0.072-0.38,0.12c-0.093,0.048-0.159,0.103-0.196,0.164
	c-0.035,0.061-0.052,0.128-0.052,0.2c0,0.141,0.039,0.241,0.116,0.3c0.077,0.056,0.191,0.084,0.34,0.084
	c0.16,0,0.3-0.028,0.42-0.084s0.241-0.147,0.364-0.272V19.312z M75.006,17.428c0.251-0.221,0.528-0.385,0.832-0.492
	c0.307-0.109,0.635-0.164,0.984-0.164c0.251,0,0.476,0.041,0.676,0.124c0.203,0.08,0.373,0.193,0.512,0.34
	c0.141,0.144,0.249,0.316,0.324,0.516c0.075,0.2,0.112,0.419,0.112,0.656V21h-0.568c-0.117,0-0.207-0.016-0.268-0.048
	c-0.059-0.032-0.108-0.099-0.148-0.2l-0.088-0.228c-0.104,0.088-0.204,0.165-0.3,0.232s-0.196,0.124-0.3,0.172
	c-0.101,0.045-0.211,0.079-0.328,0.1c-0.115,0.024-0.243,0.036-0.384,0.036c-0.189,0-0.361-0.024-0.516-0.072
	c-0.155-0.051-0.287-0.124-0.396-0.22c-0.107-0.096-0.189-0.215-0.248-0.356c-0.059-0.144-0.088-0.309-0.088-0.496
	c0-0.149,0.037-0.3,0.112-0.452c0.075-0.155,0.204-0.295,0.388-0.42c0.184-0.128,0.432-0.235,0.744-0.32
	c0.312-0.085,0.705-0.133,1.18-0.144v-0.176c0-0.243-0.051-0.417-0.152-0.524c-0.099-0.109-0.24-0.164-0.424-0.164
	c-0.147,0-0.267,0.016-0.36,0.048c-0.093,0.032-0.177,0.068-0.252,0.108c-0.072,0.04-0.143,0.076-0.212,0.108
	c-0.069,0.032-0.152,0.048-0.248,0.048c-0.085,0-0.157-0.021-0.216-0.064c-0.059-0.043-0.107-0.093-0.144-0.152L75.006,17.428z
	 M80.359,15.012V21h-1.24v-5.988H80.359z"/>
<g class="st3">
	<rect x="88.5" y="14" width="1" height="8"/>
</g>
<path class="st4" d="M103.5,19.98c0.179,0,0.324-0.023,0.436-0.068c0.115-0.045,0.204-0.104,0.268-0.176
	c0.064-0.072,0.108-0.153,0.132-0.244s0.036-0.183,0.036-0.276c0-0.107-0.015-0.203-0.044-0.288
	c-0.027-0.085-0.075-0.157-0.144-0.216c-0.067-0.059-0.156-0.104-0.268-0.136s-0.253-0.048-0.424-0.048h-0.944v1.452H103.5z
	 M102.548,16.184v1.44h0.704c0.149,0,0.284-0.011,0.404-0.032c0.12-0.021,0.221-0.059,0.304-0.112
	c0.085-0.053,0.149-0.127,0.192-0.22c0.045-0.093,0.068-0.211,0.068-0.352c0-0.139-0.017-0.253-0.052-0.344
	c-0.035-0.093-0.088-0.168-0.16-0.224c-0.072-0.056-0.164-0.096-0.276-0.12c-0.109-0.024-0.24-0.036-0.392-0.036H102.548z
	 M103.34,15.172c0.403,0,0.745,0.037,1.028,0.112c0.283,0.075,0.513,0.18,0.692,0.316c0.179,0.136,0.308,0.301,0.388,0.496
	c0.083,0.195,0.124,0.412,0.124,0.652c0,0.131-0.019,0.257-0.056,0.38c-0.037,0.12-0.096,0.233-0.176,0.34
	c-0.08,0.104-0.183,0.2-0.308,0.288c-0.125,0.088-0.276,0.164-0.452,0.228c0.384,0.093,0.668,0.244,0.852,0.452
	c0.184,0.208,0.276,0.477,0.276,0.808c0,0.248-0.048,0.479-0.144,0.692c-0.096,0.213-0.237,0.4-0.424,0.56
	c-0.184,0.157-0.412,0.281-0.684,0.372c-0.272,0.088-0.583,0.132-0.932,0.132h-2.328v-5.828H103.34z M107.381,17.492
	c0.128-0.224,0.275-0.4,0.44-0.528c0.168-0.128,0.36-0.192,0.576-0.192c0.187,0,0.339,0.044,0.456,0.132l-0.08,0.912
	c-0.013,0.059-0.036,0.099-0.068,0.12c-0.029,0.021-0.071,0.032-0.124,0.032c-0.021,0-0.049-0.001-0.084-0.004
	c-0.035-0.003-0.071-0.005-0.108-0.008c-0.037-0.005-0.076-0.009-0.116-0.012c-0.037-0.005-0.072-0.008-0.104-0.008
	c-0.181,0-0.327,0.048-0.436,0.144c-0.107,0.096-0.197,0.229-0.272,0.4V21h-1.24v-4.148h0.736c0.061,0,0.112,0.005,0.152,0.016
	c0.043,0.011,0.077,0.028,0.104,0.052c0.029,0.021,0.051,0.051,0.064,0.088c0.016,0.037,0.029,0.083,0.04,0.136L107.381,17.492z
	 M110.424,16.852V21h-1.24v-4.148H110.424z M110.552,15.716c0,0.099-0.02,0.192-0.06,0.28c-0.04,0.085-0.095,0.161-0.164,0.228
	c-0.07,0.064-0.151,0.116-0.244,0.156c-0.091,0.037-0.188,0.056-0.292,0.056c-0.102,0-0.196-0.019-0.284-0.056
	c-0.088-0.04-0.167-0.092-0.236-0.156c-0.067-0.067-0.12-0.143-0.16-0.228c-0.038-0.088-0.056-0.181-0.056-0.28
	c0-0.101,0.018-0.196,0.056-0.284c0.04-0.088,0.093-0.165,0.16-0.232c0.069-0.067,0.148-0.119,0.236-0.156
	c0.088-0.037,0.182-0.056,0.284-0.056c0.104,0,0.201,0.019,0.292,0.056c0.093,0.037,0.174,0.089,0.244,0.156
	c0.069,0.067,0.124,0.144,0.164,0.232C110.532,15.52,110.552,15.615,110.552,15.716z M112.749,18.708
	c0.205,0,0.353-0.051,0.444-0.152c0.093-0.104,0.14-0.237,0.14-0.4c0-0.168-0.047-0.3-0.14-0.396
	c-0.091-0.096-0.239-0.144-0.444-0.144c-0.206,0-0.355,0.048-0.448,0.144c-0.091,0.096-0.136,0.228-0.136,0.396
	c0,0.08,0.01,0.153,0.032,0.22c0.024,0.067,0.06,0.125,0.108,0.176c0.048,0.048,0.108,0.087,0.18,0.116
	C112.559,18.695,112.647,18.708,112.749,18.708z M113.709,21.152c0-0.099-0.044-0.169-0.132-0.212
	c-0.088-0.045-0.203-0.077-0.344-0.096c-0.142-0.019-0.3-0.029-0.476-0.032c-0.174-0.005-0.347-0.016-0.52-0.032
	c-0.078,0.053-0.142,0.113-0.192,0.18c-0.048,0.064-0.072,0.137-0.072,0.22c0,0.059,0.012,0.112,0.036,0.16
	c0.026,0.048,0.072,0.089,0.136,0.124c0.064,0.035,0.149,0.061,0.256,0.08c0.109,0.021,0.246,0.032,0.412,0.032
	c0.178,0,0.325-0.011,0.44-0.032c0.114-0.021,0.205-0.051,0.272-0.088c0.069-0.037,0.117-0.083,0.144-0.136
	C113.695,21.269,113.709,21.213,113.709,21.152z M114.933,16.98v0.452c0,0.069-0.02,0.124-0.06,0.164
	c-0.038,0.04-0.103,0.071-0.196,0.092l-0.3,0.068c0.016,0.059,0.028,0.119,0.036,0.18c0.01,0.061,0.016,0.125,0.016,0.192
	c0,0.208-0.044,0.395-0.132,0.56c-0.086,0.165-0.204,0.307-0.356,0.424c-0.15,0.115-0.327,0.204-0.532,0.268
	c-0.206,0.061-0.426,0.092-0.66,0.092c-0.064,0-0.127-0.001-0.188-0.004c-0.062-0.005-0.122-0.013-0.18-0.024
	c-0.091,0.056-0.136,0.119-0.136,0.188s0.037,0.12,0.112,0.152c0.074,0.029,0.173,0.051,0.296,0.064
	c0.122,0.011,0.261,0.019,0.416,0.024c0.157,0.003,0.317,0.012,0.48,0.028c0.162,0.013,0.321,0.037,0.476,0.072
	c0.157,0.035,0.297,0.091,0.42,0.168c0.122,0.077,0.221,0.181,0.296,0.312c0.074,0.128,0.112,0.292,0.112,0.492
	c0,0.187-0.046,0.369-0.136,0.548c-0.091,0.179-0.224,0.337-0.4,0.476c-0.176,0.139-0.392,0.249-0.648,0.332
	c-0.256,0.085-0.55,0.128-0.88,0.128c-0.326,0-0.607-0.031-0.844-0.092c-0.235-0.061-0.431-0.143-0.588-0.244
	c-0.155-0.099-0.27-0.213-0.344-0.344c-0.075-0.131-0.112-0.267-0.112-0.408c0-0.184,0.053-0.337,0.16-0.46
	c0.106-0.123,0.256-0.221,0.448-0.296c-0.102-0.061-0.182-0.14-0.24-0.236c-0.059-0.096-0.088-0.22-0.088-0.372
	c0-0.061,0.01-0.125,0.032-0.192c0.021-0.069,0.054-0.136,0.1-0.2c0.048-0.067,0.106-0.129,0.176-0.188
	c0.069-0.059,0.152-0.111,0.248-0.156c-0.216-0.115-0.387-0.265-0.512-0.452c-0.126-0.189-0.188-0.409-0.188-0.66
	c0-0.208,0.044-0.395,0.132-0.56c0.088-0.168,0.208-0.309,0.36-0.424c0.154-0.117,0.336-0.207,0.544-0.268
	c0.208-0.064,0.433-0.096,0.676-0.096c0.352,0,0.664,0.067,0.936,0.2H114.933z M116.57,17.216c0.149-0.128,0.311-0.231,0.484-0.308
	c0.176-0.08,0.385-0.12,0.628-0.12c0.227,0,0.427,0.04,0.6,0.12c0.176,0.077,0.324,0.187,0.444,0.328
	c0.12,0.139,0.211,0.305,0.272,0.5c0.061,0.192,0.092,0.401,0.092,0.628V21h-1.24v-2.636c0-0.203-0.047-0.36-0.14-0.472
	c-0.093-0.115-0.231-0.172-0.412-0.172c-0.136,0-0.264,0.029-0.384,0.088c-0.117,0.056-0.232,0.133-0.344,0.232V21h-1.24v-5.988
	h1.24V17.216z M121.202,21.064c-0.198,0-0.372-0.028-0.524-0.084c-0.15-0.059-0.276-0.14-0.38-0.244
	c-0.102-0.107-0.179-0.235-0.232-0.384c-0.054-0.149-0.08-0.316-0.08-0.5v-2.144h-0.352c-0.064,0-0.119-0.02-0.164-0.06
	c-0.046-0.043-0.068-0.104-0.068-0.184V16.98l0.66-0.128l0.244-1.012c0.032-0.128,0.122-0.192,0.272-0.192h0.648v1.212h1.028v0.848
	h-1.028v2.06c0,0.096,0.022,0.176,0.068,0.24c0.048,0.061,0.116,0.092,0.204,0.092c0.045,0,0.082-0.004,0.112-0.012
	c0.032-0.011,0.058-0.021,0.08-0.032c0.024-0.013,0.045-0.024,0.064-0.032c0.021-0.011,0.045-0.016,0.072-0.016
	c0.037,0,0.066,0.009,0.088,0.028c0.024,0.016,0.048,0.043,0.072,0.08l0.376,0.588c-0.16,0.12-0.34,0.211-0.54,0.272
	C121.622,21.035,121.415,21.064,121.202,21.064z"/>
<path d="M2.5,13h130v-1H2.5V13z M134,14.5v7h1v-7H134z M132.5,23H2.5v1h130V23z M1,21.5v-7H0v7H1z M2.5,23C1.672,23,1,22.328,1,21.5
	H0C0,22.881,1.119,24,2.5,24V23z M134,21.5c0,0.828-0.672,1.5-1.5,1.5v1c1.381,0,2.5-1.119,2.5-2.5H134z M132.5,13
	c0.828,0,1.5,0.672,1.5,1.5h1c0-1.381-1.119-2.5-2.5-2.5V13z M2.5,12C1.119,12,0,13.119,0,14.5h1C1,13.672,1.672,13,2.5,13V12z"/>
<path class="st0" d="M0.5,26.5c0-1.105,0.895-2,2-2h130c1.105,0,2,0.895,2,2v7c0,1.105-0.895,2-2,2H2.5c-1.105,0-2-0.895-2-2V26.5z"
	/>
<path class="st4" d="M21.188,27.172L19.388,33h-1.224l-1.096-3.612c-0.021-0.056-0.041-0.117-0.06-0.184
	c-0.019-0.069-0.037-0.141-0.056-0.216c-0.019,0.075-0.037,0.147-0.056,0.216c-0.019,0.067-0.039,0.128-0.06,0.184L15.724,33H14.5
	l-1.8-5.828h1.136c0.117,0,0.215,0.027,0.292,0.08c0.08,0.053,0.132,0.124,0.156,0.212l0.8,3.04
	c0.024,0.096,0.048,0.201,0.072,0.316c0.024,0.112,0.048,0.229,0.072,0.352c0.048-0.251,0.107-0.473,0.176-0.668l0.944-3.04
	c0.024-0.075,0.075-0.141,0.152-0.2c0.08-0.061,0.176-0.092,0.288-0.092h0.4c0.117,0,0.212,0.028,0.284,0.084
	c0.072,0.053,0.127,0.123,0.164,0.208l0.936,3.04c0.069,0.187,0.128,0.399,0.176,0.636c0.021-0.12,0.043-0.232,0.064-0.336
	c0.024-0.107,0.048-0.207,0.072-0.3l0.8-3.04c0.021-0.077,0.072-0.145,0.152-0.204s0.176-0.088,0.288-0.088H21.188z M23.116,31.312
	c-0.248,0.011-0.452,0.032-0.612,0.064c-0.16,0.032-0.287,0.072-0.38,0.12s-0.159,0.103-0.196,0.164
	c-0.035,0.061-0.052,0.128-0.052,0.2c0,0.141,0.039,0.241,0.116,0.3c0.077,0.056,0.191,0.084,0.34,0.084
	c0.16,0,0.3-0.028,0.42-0.084s0.241-0.147,0.364-0.272V31.312z M20.884,29.428c0.251-0.221,0.528-0.385,0.832-0.492
	c0.307-0.109,0.635-0.164,0.984-0.164c0.251,0,0.476,0.041,0.676,0.124c0.203,0.08,0.373,0.193,0.512,0.34
	c0.141,0.144,0.249,0.316,0.324,0.516c0.075,0.2,0.112,0.419,0.112,0.656V33h-0.568c-0.117,0-0.207-0.016-0.268-0.048
	c-0.059-0.032-0.108-0.099-0.148-0.2l-0.088-0.228c-0.104,0.088-0.204,0.165-0.3,0.232c-0.096,0.067-0.196,0.124-0.3,0.172
	c-0.101,0.045-0.211,0.079-0.328,0.1c-0.115,0.024-0.243,0.036-0.384,0.036c-0.189,0-0.361-0.024-0.516-0.072
	c-0.155-0.051-0.287-0.124-0.396-0.22c-0.107-0.096-0.189-0.215-0.248-0.356c-0.059-0.144-0.088-0.309-0.088-0.496
	c0-0.149,0.037-0.3,0.112-0.452c0.075-0.155,0.204-0.295,0.388-0.42c0.184-0.128,0.432-0.235,0.744-0.32
	c0.312-0.085,0.705-0.133,1.18-0.144v-0.176c0-0.243-0.051-0.417-0.152-0.524c-0.099-0.109-0.24-0.164-0.424-0.164
	c-0.147,0-0.267,0.016-0.36,0.048s-0.177,0.068-0.252,0.108c-0.072,0.04-0.143,0.076-0.212,0.108
	c-0.069,0.032-0.152,0.048-0.248,0.048c-0.085,0-0.157-0.021-0.216-0.064s-0.107-0.093-0.144-0.152L20.884,29.428z M26.157,29.492
	c0.128-0.224,0.275-0.4,0.44-0.528c0.168-0.128,0.36-0.192,0.576-0.192c0.187,0,0.339,0.044,0.456,0.132l-0.08,0.912
	c-0.013,0.059-0.036,0.099-0.068,0.12c-0.029,0.021-0.071,0.032-0.124,0.032c-0.021,0-0.049-0.001-0.084-0.004
	c-0.035-0.003-0.071-0.005-0.108-0.008c-0.037-0.005-0.076-0.009-0.116-0.012c-0.037-0.005-0.072-0.008-0.104-0.008
	c-0.181,0-0.327,0.048-0.436,0.144c-0.107,0.096-0.197,0.229-0.272,0.4V33h-1.24v-4.148h0.736c0.061,0,0.112,0.005,0.152,0.016
	c0.043,0.011,0.077,0.028,0.104,0.052c0.029,0.021,0.051,0.051,0.064,0.088c0.016,0.037,0.029,0.083,0.04,0.136L26.157,29.492z
	 M27.931,33v-4.148h0.768c0.155,0,0.256,0.069,0.304,0.208l0.068,0.224c0.069-0.072,0.141-0.137,0.216-0.196
	c0.075-0.061,0.155-0.113,0.24-0.156c0.088-0.045,0.181-0.08,0.28-0.104c0.101-0.027,0.212-0.04,0.332-0.04
	c0.251,0,0.457,0.065,0.62,0.196c0.165,0.128,0.291,0.3,0.376,0.516c0.069-0.128,0.153-0.237,0.252-0.328
	c0.101-0.091,0.209-0.164,0.324-0.22c0.117-0.056,0.24-0.097,0.368-0.124c0.131-0.027,0.26-0.04,0.388-0.04
	c0.237,0,0.448,0.036,0.632,0.108c0.184,0.069,0.337,0.172,0.46,0.308c0.125,0.133,0.22,0.299,0.284,0.496
	c0.064,0.195,0.096,0.416,0.096,0.664V33h-1.24v-2.636c0-0.429-0.184-0.644-0.552-0.644c-0.168,0-0.308,0.056-0.42,0.168
	c-0.109,0.109-0.164,0.268-0.164,0.476V33h-1.24v-2.636c0-0.237-0.047-0.404-0.14-0.5c-0.093-0.096-0.231-0.144-0.412-0.144
	c-0.112,0-0.219,0.025-0.32,0.076c-0.099,0.051-0.192,0.119-0.28,0.204v3H27.931z"/>
<g class="st3">
	<rect x="45.5" y="26" width="1" height="8"/>
</g>
<path class="st4" d="M59.875,27.172V33h-0.704c-0.104,0-0.192-0.016-0.264-0.048c-0.069-0.035-0.139-0.093-0.208-0.176L55.951,29.3
	c0.011,0.104,0.017,0.205,0.02,0.304c0.005,0.096,0.008,0.187,0.008,0.272V33h-1.192v-5.828h0.712c0.059,0,0.108,0.003,0.148,0.008
	s0.076,0.016,0.108,0.032c0.032,0.013,0.063,0.033,0.092,0.06c0.029,0.027,0.063,0.063,0.1,0.108l2.772,3.5
	c-0.013-0.112-0.023-0.22-0.028-0.324c-0.005-0.107-0.008-0.207-0.008-0.3v-3.084H59.875z M63.197,30.428
	c0-0.099-0.013-0.195-0.04-0.288c-0.024-0.093-0.065-0.176-0.124-0.248c-0.056-0.075-0.131-0.135-0.224-0.18
	c-0.093-0.045-0.207-0.068-0.34-0.068c-0.235,0-0.419,0.068-0.552,0.204c-0.133,0.133-0.221,0.327-0.264,0.58H63.197z
	 M61.637,31.148c0.04,0.347,0.145,0.599,0.316,0.756c0.171,0.155,0.391,0.232,0.66,0.232c0.144,0,0.268-0.017,0.372-0.052
	s0.196-0.073,0.276-0.116c0.083-0.043,0.157-0.081,0.224-0.116c0.069-0.035,0.141-0.052,0.216-0.052
	c0.099,0,0.173,0.036,0.224,0.108l0.36,0.444c-0.128,0.147-0.267,0.267-0.416,0.36c-0.147,0.091-0.299,0.163-0.456,0.216
	c-0.155,0.051-0.311,0.085-0.468,0.104c-0.155,0.021-0.303,0.032-0.444,0.032c-0.291,0-0.564-0.047-0.82-0.14
	c-0.253-0.096-0.476-0.237-0.668-0.424c-0.189-0.187-0.34-0.419-0.452-0.696c-0.109-0.277-0.164-0.6-0.164-0.968
	c0-0.277,0.047-0.54,0.14-0.788c0.096-0.248,0.232-0.465,0.408-0.652c0.179-0.187,0.393-0.335,0.644-0.444
	c0.253-0.109,0.539-0.164,0.856-0.164c0.275,0,0.525,0.043,0.752,0.128c0.229,0.085,0.425,0.209,0.588,0.372
	c0.165,0.163,0.293,0.363,0.384,0.6c0.093,0.235,0.14,0.501,0.14,0.8c0,0.093-0.004,0.169-0.012,0.228
	c-0.008,0.059-0.023,0.105-0.044,0.14c-0.021,0.035-0.051,0.059-0.088,0.072c-0.035,0.013-0.08,0.02-0.136,0.02H61.637z
	 M68.53,28.852V33h-0.768c-0.155,0-0.256-0.069-0.304-0.208l-0.072-0.24c-0.08,0.077-0.163,0.148-0.248,0.212
	c-0.085,0.061-0.177,0.115-0.276,0.16c-0.096,0.043-0.201,0.076-0.316,0.1c-0.112,0.027-0.235,0.04-0.368,0.04
	c-0.227,0-0.428-0.039-0.604-0.116c-0.173-0.08-0.32-0.191-0.44-0.332s-0.211-0.308-0.272-0.5c-0.061-0.192-0.092-0.403-0.092-0.632
	v-2.632h1.24v2.632c0,0.205,0.047,0.364,0.14,0.476c0.093,0.112,0.231,0.168,0.412,0.168c0.136,0,0.263-0.028,0.38-0.084
	c0.12-0.059,0.236-0.137,0.348-0.236v-2.956H68.53z M70.736,33.064c-0.197,0-0.372-0.028-0.524-0.084
	c-0.149-0.059-0.276-0.14-0.38-0.244c-0.101-0.107-0.179-0.235-0.232-0.384c-0.053-0.149-0.08-0.316-0.08-0.5v-2.144h-0.352
	c-0.064,0-0.119-0.02-0.164-0.06c-0.045-0.043-0.068-0.104-0.068-0.184V28.98l0.66-0.128l0.244-1.012
	c0.032-0.128,0.123-0.192,0.272-0.192h0.648v1.212h1.028v0.848H70.76v2.06c0,0.096,0.023,0.176,0.068,0.24
	c0.048,0.061,0.116,0.092,0.204,0.092c0.045,0,0.083-0.004,0.112-0.012c0.032-0.011,0.059-0.021,0.08-0.032
	c0.024-0.013,0.045-0.024,0.064-0.032c0.021-0.011,0.045-0.016,0.072-0.016c0.037,0,0.067,0.009,0.088,0.028
	c0.024,0.016,0.048,0.043,0.072,0.08l0.376,0.588c-0.16,0.12-0.34,0.211-0.54,0.272C71.156,33.035,70.949,33.064,70.736,33.064z
	 M73.362,29.492c0.128-0.224,0.275-0.4,0.44-0.528c0.168-0.128,0.36-0.192,0.576-0.192c0.187,0,0.339,0.044,0.456,0.132l-0.08,0.912
	c-0.013,0.059-0.036,0.099-0.068,0.12c-0.029,0.021-0.071,0.032-0.124,0.032c-0.021,0-0.049-0.001-0.084-0.004
	c-0.035-0.003-0.071-0.005-0.108-0.008c-0.037-0.005-0.076-0.009-0.116-0.012c-0.037-0.005-0.072-0.008-0.104-0.008
	c-0.181,0-0.327,0.048-0.436,0.144c-0.107,0.096-0.197,0.229-0.272,0.4V33h-1.24v-4.148h0.736c0.061,0,0.112,0.005,0.152,0.016
	c0.043,0.011,0.077,0.028,0.104,0.052c0.029,0.021,0.051,0.051,0.064,0.088c0.016,0.037,0.029,0.083,0.04,0.136L73.362,29.492z
	 M77.238,31.312c-0.248,0.011-0.452,0.032-0.612,0.064c-0.16,0.032-0.287,0.072-0.38,0.12c-0.093,0.048-0.159,0.103-0.196,0.164
	c-0.035,0.061-0.052,0.128-0.052,0.2c0,0.141,0.039,0.241,0.116,0.3c0.077,0.056,0.191,0.084,0.34,0.084
	c0.16,0,0.3-0.028,0.42-0.084s0.241-0.147,0.364-0.272V31.312z M75.006,29.428c0.251-0.221,0.528-0.385,0.832-0.492
	c0.307-0.109,0.635-0.164,0.984-0.164c0.251,0,0.476,0.041,0.676,0.124c0.203,0.08,0.373,0.193,0.512,0.34
	c0.141,0.144,0.249,0.316,0.324,0.516c0.075,0.2,0.112,0.419,0.112,0.656V33h-0.568c-0.117,0-0.207-0.016-0.268-0.048
	c-0.059-0.032-0.108-0.099-0.148-0.2l-0.088-0.228c-0.104,0.088-0.204,0.165-0.3,0.232s-0.196,0.124-0.3,0.172
	c-0.101,0.045-0.211,0.079-0.328,0.1c-0.115,0.024-0.243,0.036-0.384,0.036c-0.189,0-0.361-0.024-0.516-0.072
	c-0.155-0.051-0.287-0.124-0.396-0.22c-0.107-0.096-0.189-0.215-0.248-0.356c-0.059-0.144-0.088-0.309-0.088-0.496
	c0-0.149,0.037-0.3,0.112-0.452c0.075-0.155,0.204-0.295,0.388-0.42c0.184-0.128,0.432-0.235,0.744-0.32
	c0.312-0.085,0.705-0.133,1.18-0.144v-0.176c0-0.243-0.051-0.417-0.152-0.524c-0.099-0.109-0.24-0.164-0.424-0.164
	c-0.147,0-0.267,0.016-0.36,0.048c-0.093,0.032-0.177,0.068-0.252,0.108c-0.072,0.04-0.143,0.076-0.212,0.108
	c-0.069,0.032-0.152,0.048-0.248,0.048c-0.085,0-0.157-0.021-0.216-0.064c-0.059-0.043-0.107-0.093-0.144-0.152L75.006,29.428z
	 M80.359,27.012V33h-1.24v-5.988H80.359z"/>
<g class="st3">
	<rect x="88.5" y="26" width="1" height="8"/>
</g>
<path class="st1" d="M91.5,26.5h40c0.552,0,1,0.448,1,1v5c0,0.552-0.448,1-1,1h-40c-0.552,0-1-0.448-1-1v-5
	C90.5,26.948,90.948,26.5,91.5,26.5z"/>
<path class="st2" d="M91.5,26.5h40c0.552,0,1,0.448,1,1v5c0,0.552-0.448,1-1,1h-40c-0.552,0-1-0.448-1-1v-5
	C90.5,26.948,90.948,26.5,91.5,26.5z"/>
<path d="M103.5,31.98c0.179,0,0.324-0.023,0.436-0.068c0.115-0.045,0.204-0.104,0.268-0.176c0.064-0.072,0.108-0.153,0.132-0.244
	s0.036-0.183,0.036-0.276c0-0.107-0.015-0.203-0.044-0.288c-0.027-0.085-0.075-0.157-0.144-0.216
	c-0.067-0.059-0.156-0.104-0.268-0.136s-0.253-0.048-0.424-0.048h-0.944v1.452H103.5z M102.548,28.184v1.44h0.704
	c0.149,0,0.284-0.011,0.404-0.032c0.12-0.021,0.221-0.059,0.304-0.112c0.085-0.053,0.149-0.127,0.192-0.22
	c0.045-0.093,0.068-0.211,0.068-0.352c0-0.139-0.017-0.253-0.052-0.344c-0.035-0.093-0.088-0.168-0.16-0.224
	c-0.072-0.056-0.164-0.096-0.276-0.12c-0.109-0.024-0.24-0.036-0.392-0.036H102.548z M103.34,27.172
	c0.403,0,0.745,0.037,1.028,0.112c0.283,0.075,0.513,0.18,0.692,0.316s0.308,0.301,0.388,0.496c0.083,0.195,0.124,0.412,0.124,0.652
	c0,0.131-0.019,0.257-0.056,0.38c-0.037,0.12-0.096,0.233-0.176,0.34c-0.08,0.104-0.183,0.2-0.308,0.288
	c-0.125,0.088-0.276,0.164-0.452,0.228c0.384,0.093,0.668,0.244,0.852,0.452c0.184,0.208,0.276,0.477,0.276,0.808
	c0,0.248-0.048,0.479-0.144,0.692c-0.096,0.213-0.237,0.4-0.424,0.56c-0.184,0.157-0.412,0.281-0.684,0.372
	c-0.272,0.088-0.583,0.132-0.932,0.132h-2.328v-5.828H103.34z M107.381,29.492c0.128-0.224,0.275-0.4,0.44-0.528
	c0.168-0.128,0.36-0.192,0.576-0.192c0.187,0,0.339,0.044,0.456,0.132l-0.08,0.912c-0.013,0.059-0.036,0.099-0.068,0.12
	c-0.029,0.021-0.071,0.032-0.124,0.032c-0.021,0-0.049-0.001-0.084-0.004c-0.035-0.003-0.071-0.005-0.108-0.008
	c-0.037-0.005-0.076-0.009-0.116-0.012c-0.037-0.005-0.072-0.008-0.104-0.008c-0.181,0-0.327,0.048-0.436,0.144
	c-0.107,0.096-0.197,0.229-0.272,0.4V33h-1.24v-4.148h0.736c0.061,0,0.112,0.005,0.152,0.016c0.043,0.011,0.077,0.028,0.104,0.052
	c0.029,0.021,0.051,0.051,0.064,0.088c0.016,0.037,0.029,0.083,0.04,0.136L107.381,29.492z M110.424,28.852V33h-1.24v-4.148H110.424
	z M110.552,27.716c0,0.099-0.02,0.192-0.06,0.28c-0.04,0.085-0.095,0.161-0.164,0.228c-0.07,0.064-0.151,0.116-0.244,0.156
	c-0.091,0.037-0.188,0.056-0.292,0.056c-0.102,0-0.196-0.019-0.284-0.056c-0.088-0.04-0.167-0.092-0.236-0.156
	c-0.067-0.067-0.12-0.143-0.16-0.228c-0.038-0.088-0.056-0.181-0.056-0.28c0-0.101,0.018-0.196,0.056-0.284
	c0.04-0.088,0.093-0.165,0.16-0.232c0.069-0.067,0.148-0.119,0.236-0.156c0.088-0.037,0.182-0.056,0.284-0.056
	c0.104,0,0.201,0.019,0.292,0.056c0.093,0.037,0.174,0.089,0.244,0.156c0.069,0.067,0.124,0.144,0.164,0.232
	C110.532,27.52,110.552,27.615,110.552,27.716z M112.749,30.708c0.205,0,0.353-0.051,0.444-0.152c0.093-0.104,0.14-0.237,0.14-0.4
	c0-0.168-0.047-0.3-0.14-0.396c-0.091-0.096-0.239-0.144-0.444-0.144c-0.206,0-0.355,0.048-0.448,0.144
	c-0.091,0.096-0.136,0.228-0.136,0.396c0,0.08,0.01,0.153,0.032,0.22c0.024,0.067,0.06,0.125,0.108,0.176
	c0.048,0.048,0.108,0.087,0.18,0.116C112.559,30.695,112.647,30.708,112.749,30.708z M113.709,33.152
	c0-0.099-0.044-0.169-0.132-0.212c-0.088-0.045-0.203-0.077-0.344-0.096c-0.142-0.019-0.3-0.029-0.476-0.032
	c-0.174-0.005-0.347-0.016-0.52-0.032c-0.078,0.053-0.142,0.113-0.192,0.18c-0.048,0.064-0.072,0.137-0.072,0.22
	c0,0.059,0.012,0.112,0.036,0.16c0.026,0.048,0.072,0.089,0.136,0.124c0.064,0.035,0.149,0.061,0.256,0.08
	c0.109,0.021,0.246,0.032,0.412,0.032c0.178,0,0.325-0.011,0.44-0.032c0.114-0.021,0.205-0.051,0.272-0.088
	c0.069-0.037,0.117-0.083,0.144-0.136C113.695,33.269,113.709,33.213,113.709,33.152z M114.933,28.98v0.452
	c0,0.069-0.02,0.124-0.06,0.164c-0.038,0.04-0.103,0.071-0.196,0.092l-0.3,0.068c0.016,0.059,0.028,0.119,0.036,0.18
	c0.01,0.061,0.016,0.125,0.016,0.192c0,0.208-0.044,0.395-0.132,0.56c-0.086,0.165-0.204,0.307-0.356,0.424
	c-0.15,0.115-0.327,0.204-0.532,0.268c-0.206,0.061-0.426,0.092-0.66,0.092c-0.064,0-0.127-0.001-0.188-0.004
	c-0.062-0.005-0.122-0.013-0.18-0.024c-0.091,0.056-0.136,0.119-0.136,0.188s0.037,0.12,0.112,0.152
	c0.074,0.029,0.173,0.051,0.296,0.064c0.122,0.011,0.261,0.019,0.416,0.024c0.157,0.003,0.317,0.012,0.48,0.028
	c0.162,0.013,0.321,0.037,0.476,0.072c0.157,0.035,0.297,0.091,0.42,0.168c0.122,0.077,0.221,0.181,0.296,0.312
	c0.074,0.128,0.112,0.292,0.112,0.492c0,0.187-0.046,0.369-0.136,0.548c-0.091,0.179-0.224,0.337-0.4,0.476
	c-0.176,0.139-0.392,0.249-0.648,0.332c-0.256,0.085-0.55,0.128-0.88,0.128c-0.326,0-0.607-0.031-0.844-0.092
	c-0.235-0.061-0.431-0.143-0.588-0.244c-0.155-0.099-0.27-0.213-0.344-0.344c-0.075-0.131-0.112-0.267-0.112-0.408
	c0-0.184,0.053-0.337,0.16-0.46c0.106-0.123,0.256-0.221,0.448-0.296c-0.102-0.061-0.182-0.14-0.24-0.236
	c-0.059-0.096-0.088-0.22-0.088-0.372c0-0.061,0.01-0.125,0.032-0.192c0.021-0.069,0.054-0.136,0.1-0.2
	c0.048-0.067,0.106-0.129,0.176-0.188c0.069-0.059,0.152-0.111,0.248-0.156c-0.216-0.115-0.387-0.265-0.512-0.452
	c-0.126-0.189-0.188-0.409-0.188-0.66c0-0.208,0.044-0.395,0.132-0.56c0.088-0.168,0.208-0.309,0.36-0.424
	c0.154-0.117,0.336-0.207,0.544-0.268c0.208-0.064,0.433-0.096,0.676-0.096c0.352,0,0.664,0.067,0.936,0.2H114.933z M116.57,29.216
	c0.149-0.128,0.311-0.231,0.484-0.308c0.176-0.08,0.385-0.12,0.628-0.12c0.227,0,0.427,0.04,0.6,0.12
	c0.176,0.077,0.324,0.187,0.444,0.328c0.12,0.139,0.211,0.305,0.272,0.5c0.061,0.192,0.092,0.401,0.092,0.628V33h-1.24v-2.636
	c0-0.203-0.047-0.36-0.14-0.472c-0.093-0.115-0.231-0.172-0.412-0.172c-0.136,0-0.264,0.029-0.384,0.088
	c-0.117,0.056-0.232,0.133-0.344,0.232V33h-1.24v-5.988h1.24V29.216z M121.202,33.064c-0.198,0-0.372-0.028-0.524-0.084
	c-0.15-0.059-0.276-0.14-0.38-0.244c-0.102-0.107-0.179-0.235-0.232-0.384c-0.054-0.149-0.08-0.316-0.08-0.5v-2.144h-0.352
	c-0.064,0-0.119-0.02-0.164-0.06c-0.046-0.043-0.068-0.104-0.068-0.184V28.98l0.66-0.128l0.244-1.012
	c0.032-0.128,0.122-0.192,0.272-0.192h0.648v1.212h1.028v0.848h-1.028v2.06c0,0.096,0.022,0.176,0.068,0.24
	c0.048,0.061,0.116,0.092,0.204,0.092c0.045,0,0.082-0.004,0.112-0.012c0.032-0.011,0.058-0.021,0.08-0.032
	c0.024-0.013,0.045-0.024,0.064-0.032c0.021-0.011,0.045-0.016,0.072-0.016c0.037,0,0.066,0.009,0.088,0.028
	c0.024,0.016,0.048,0.043,0.072,0.08l0.376,0.588c-0.16,0.12-0.34,0.211-0.54,0.272C121.622,33.035,121.415,33.064,121.202,33.064z"
	/>
<path d="M2.5,25h130v-1H2.5V25z M134,26.5v7h1v-7H134z M132.5,35H2.5v1h130V35z M1,33.5v-7H0v7H1z M2.5,35C1.672,35,1,34.328,1,33.5
	H0C0,34.881,1.119,36,2.5,36V35z M134,33.5c0,0.828-0.672,1.5-1.5,1.5v1c1.381,0,2.5-1.119,2.5-2.5H134z M132.5,25
	c0.828,0,1.5,0.672,1.5,1.5h1c0-1.381-1.119-2.5-2.5-2.5V25z M2.5,24C1.119,24,0,25.119,0,26.5h1C1,25.672,1.672,25,2.5,25V24z"/>
</svg>
