<?xml version="1.0" encoding="utf-8"?>
<!-- Generator: Adobe Illustrator 22.0.0, SVG Export Plug-In . SVG Version: 6.00 Build 0)  -->
<svg version="1.1" id="Layer_1" xmlns="http://www.w3.org/2000/svg" xmlns:xlink="http://www.w3.org/1999/xlink" x="0px" y="0px"
	 width="51px" height="117px" viewBox="0 0 51 117" style="enable-background:new 0 0 51 117;" xml:space="preserve">
<style type="text/css">
	.st0{fill:#595959;}
	.st1{fill:#FF9300;}
	.st2{fill:none;stroke:#FF9300;}
	.st3{opacity:0.75;}
	.st4{fill:#B4B4B4;}
</style>
<path class="st0" d="M0.5,2.5c0-1.105,0.895-2,2-2h46c1.105,0,2,0.895,2,2v34c0,1.105-0.895,2-2,2h-46c-1.105,0-2-0.895-2-2V2.5z"/>
<rect x="2.5" y="2" class="st1" width="46" height="10"/>
<path class="st1" d="M3.5,2h44c0.552,0,1,0.448,1,1v8c0,0.552-0.448,1-1,1h-44c-0.552,0-1-0.448-1-1V3C2.5,2.448,2.948,2,3.5,2z"/>
<path class="st2" d="M3.5,2h44c0.552,0,1,0.448,1,1v8c0,0.552-0.448,1-1,1h-44c-0.552,0-1-0.448-1-1V3C2.5,2.448,2.948,2,3.5,2z"/>
<path d="M13.776,5.712v1.476h1.992v1.044h-1.992V10.5h-1.36V4.672h3.752v1.04H13.776z M17.539,6.992
	c0.128-0.224,0.275-0.4,0.44-0.528c0.168-0.128,0.36-0.192,0.576-0.192c0.187,0,0.339,0.044,0.456,0.132l-0.08,0.912
	c-0.013,0.059-0.036,0.099-0.068,0.12c-0.029,0.021-0.071,0.032-0.124,0.032c-0.021,0-0.049-0.001-0.084-0.004
	c-0.035-0.003-0.071-0.005-0.108-0.008c-0.037-0.005-0.076-0.009-0.116-0.012c-0.037-0.005-0.072-0.008-0.104-0.008
	c-0.181,0-0.327,0.048-0.436,0.144c-0.107,0.096-0.197,0.229-0.272,0.4v2.52h-1.24V6.352h0.736c0.061,0,0.112,0.005,0.152,0.016
	c0.043,0.011,0.077,0.028,0.104,0.052c0.029,0.021,0.051,0.051,0.064,0.088c0.016,0.037,0.029,0.083,0.04,0.136L17.539,6.992z
	 M21.823,7.928c0-0.099-0.013-0.195-0.04-0.288c-0.024-0.093-0.065-0.176-0.124-0.248c-0.056-0.075-0.131-0.135-0.224-0.18
	c-0.093-0.045-0.207-0.068-0.34-0.068c-0.235,0-0.419,0.068-0.552,0.204c-0.133,0.133-0.221,0.327-0.264,0.58H21.823z M20.263,8.648
	c0.04,0.347,0.145,0.599,0.316,0.756c0.171,0.155,0.391,0.232,0.66,0.232c0.144,0,0.268-0.017,0.372-0.052
	c0.104-0.035,0.196-0.073,0.276-0.116c0.083-0.043,0.157-0.081,0.224-0.116C22.181,9.317,22.253,9.3,22.327,9.3
	c0.099,0,0.173,0.036,0.224,0.108l0.36,0.444c-0.128,0.147-0.267,0.267-0.416,0.36c-0.147,0.091-0.299,0.163-0.456,0.216
	c-0.155,0.051-0.311,0.085-0.468,0.104c-0.155,0.021-0.303,0.032-0.444,0.032c-0.291,0-0.564-0.047-0.82-0.14
	c-0.253-0.096-0.476-0.237-0.668-0.424c-0.189-0.187-0.34-0.419-0.452-0.696c-0.109-0.277-0.164-0.6-0.164-0.968
	c0-0.277,0.047-0.54,0.14-0.788c0.096-0.248,0.232-0.465,0.408-0.652c0.179-0.187,0.393-0.335,0.644-0.444
	c0.253-0.109,0.539-0.164,0.856-0.164c0.275,0,0.525,0.043,0.752,0.128c0.229,0.085,0.425,0.209,0.588,0.372
	c0.165,0.163,0.293,0.363,0.384,0.6c0.093,0.235,0.14,0.501,0.14,0.8c0,0.093-0.004,0.169-0.012,0.228
	c-0.008,0.059-0.023,0.105-0.044,0.14c-0.021,0.035-0.051,0.059-0.088,0.072c-0.035,0.013-0.08,0.02-0.136,0.02H20.263z
	 M26.016,7.928c0-0.099-0.013-0.195-0.04-0.288c-0.024-0.093-0.065-0.176-0.124-0.248c-0.056-0.075-0.131-0.135-0.224-0.18
	c-0.093-0.045-0.207-0.068-0.34-0.068c-0.235,0-0.419,0.068-0.552,0.204c-0.133,0.133-0.221,0.327-0.264,0.58H26.016z M24.456,8.648
	c0.04,0.347,0.145,0.599,0.316,0.756c0.171,0.155,0.391,0.232,0.66,0.232c0.144,0,0.268-0.017,0.372-0.052
	C25.908,9.549,26,9.511,26.08,9.468c0.083-0.043,0.157-0.081,0.224-0.116C26.373,9.317,26.445,9.3,26.52,9.3
	c0.099,0,0.173,0.036,0.224,0.108l0.36,0.444c-0.128,0.147-0.267,0.267-0.416,0.36c-0.147,0.091-0.299,0.163-0.456,0.216
	c-0.155,0.051-0.311,0.085-0.468,0.104c-0.155,0.021-0.303,0.032-0.444,0.032c-0.291,0-0.564-0.047-0.82-0.14
	c-0.253-0.096-0.476-0.237-0.668-0.424c-0.189-0.187-0.34-0.419-0.452-0.696c-0.109-0.277-0.164-0.6-0.164-0.968
	c0-0.277,0.047-0.54,0.14-0.788c0.096-0.248,0.232-0.465,0.408-0.652c0.179-0.187,0.393-0.335,0.644-0.444
	c0.253-0.109,0.539-0.164,0.856-0.164c0.275,0,0.525,0.043,0.752,0.128c0.229,0.085,0.425,0.209,0.588,0.372
	c0.165,0.163,0.293,0.363,0.384,0.6c0.093,0.235,0.14,0.501,0.14,0.8c0,0.093-0.004,0.169-0.012,0.228
	c-0.008,0.059-0.023,0.105-0.044,0.14c-0.021,0.035-0.051,0.059-0.088,0.072c-0.035,0.013-0.08,0.02-0.136,0.02H24.456z
	 M28.788,6.992c0.128-0.224,0.275-0.4,0.44-0.528c0.168-0.128,0.36-0.192,0.576-0.192c0.187,0,0.339,0.044,0.456,0.132l-0.08,0.912
	c-0.013,0.059-0.036,0.099-0.068,0.12c-0.029,0.021-0.071,0.032-0.124,0.032c-0.021,0-0.049-0.001-0.084-0.004
	c-0.035-0.003-0.071-0.005-0.108-0.008c-0.037-0.005-0.076-0.009-0.116-0.012c-0.037-0.005-0.072-0.008-0.104-0.008
	c-0.181,0-0.327,0.048-0.436,0.144c-0.107,0.096-0.197,0.229-0.272,0.4v2.52h-1.24V6.352h0.736c0.061,0,0.112,0.005,0.152,0.016
	c0.043,0.011,0.077,0.028,0.104,0.052c0.029,0.021,0.051,0.051,0.064,0.088c0.016,0.037,0.029,0.083,0.04,0.136L28.788,6.992z
	 M34.283,6.352V10.5h-0.768c-0.155,0-0.256-0.069-0.304-0.208l-0.072-0.24c-0.08,0.077-0.163,0.148-0.248,0.212
	c-0.085,0.061-0.177,0.115-0.276,0.16c-0.096,0.043-0.201,0.076-0.316,0.1c-0.112,0.027-0.235,0.04-0.368,0.04
	c-0.227,0-0.428-0.039-0.604-0.116c-0.173-0.08-0.32-0.191-0.44-0.332c-0.12-0.141-0.211-0.308-0.272-0.5
	c-0.061-0.192-0.092-0.403-0.092-0.632V6.352h1.24v2.632c0,0.205,0.047,0.364,0.14,0.476c0.093,0.112,0.231,0.168,0.412,0.168
	c0.136,0,0.263-0.028,0.38-0.084c0.12-0.059,0.236-0.137,0.348-0.236V6.352H34.283z M36.149,6.8c0.08-0.075,0.163-0.144,0.248-0.208
	s0.176-0.117,0.272-0.16c0.099-0.045,0.204-0.08,0.316-0.104c0.115-0.027,0.239-0.04,0.372-0.04c0.227,0,0.427,0.04,0.6,0.12
	c0.176,0.077,0.324,0.187,0.444,0.328c0.12,0.139,0.211,0.305,0.272,0.5c0.061,0.192,0.092,0.401,0.092,0.628V10.5h-1.24V7.864
	c0-0.203-0.047-0.36-0.14-0.472c-0.093-0.115-0.231-0.172-0.412-0.172c-0.136,0-0.264,0.029-0.384,0.088
	c-0.117,0.056-0.232,0.133-0.344,0.232v2.96h-1.24V6.352h0.768c0.155,0,0.256,0.069,0.304,0.208L36.149,6.8z"/>
<g class="st3">
	<rect x="3" y="12.75" width="45" height="1"/>
</g>
<path class="st4" d="M8.979,19.532h0.216c0.2,0,0.344-0.063,0.432-0.188l1.312-1.904c0.077-0.101,0.16-0.171,0.248-0.208
	c0.091-0.04,0.203-0.06,0.336-0.06h1.176l-1.728,2.356c-0.123,0.163-0.255,0.28-0.396,0.352c0.101,0.037,0.193,0.089,0.276,0.156
	c0.083,0.067,0.16,0.153,0.232,0.26L12.843,23h-1.208c-0.077,0-0.144-0.005-0.2-0.016c-0.053-0.011-0.1-0.027-0.14-0.048
	c-0.04-0.021-0.075-0.047-0.104-0.076c-0.029-0.032-0.057-0.068-0.084-0.108l-1.32-2.028c-0.048-0.075-0.109-0.127-0.184-0.156
	c-0.072-0.032-0.171-0.048-0.296-0.048H8.979V23H7.627v-5.828h1.352V19.532z M15.303,20.428c0-0.099-0.013-0.195-0.04-0.288
	c-0.024-0.093-0.065-0.176-0.124-0.248c-0.056-0.075-0.131-0.135-0.224-0.18s-0.207-0.068-0.34-0.068
	c-0.235,0-0.419,0.068-0.552,0.204c-0.133,0.133-0.221,0.327-0.264,0.58H15.303z M13.743,21.148c0.04,0.347,0.145,0.599,0.316,0.756
	c0.171,0.155,0.391,0.232,0.66,0.232c0.144,0,0.268-0.017,0.372-0.052s0.196-0.073,0.276-0.116c0.083-0.043,0.157-0.081,0.224-0.116
	c0.069-0.035,0.141-0.052,0.216-0.052c0.099,0,0.173,0.036,0.224,0.108l0.36,0.444c-0.128,0.147-0.267,0.267-0.416,0.36
	c-0.147,0.091-0.299,0.163-0.456,0.216c-0.155,0.051-0.311,0.085-0.468,0.104c-0.155,0.021-0.303,0.032-0.444,0.032
	c-0.291,0-0.564-0.047-0.82-0.14c-0.253-0.096-0.476-0.237-0.668-0.424c-0.189-0.187-0.34-0.419-0.452-0.696
	c-0.109-0.277-0.164-0.6-0.164-0.968c0-0.277,0.047-0.54,0.14-0.788c0.096-0.248,0.232-0.465,0.408-0.652
	c0.179-0.187,0.393-0.335,0.644-0.444c0.253-0.109,0.539-0.164,0.856-0.164c0.275,0,0.525,0.043,0.752,0.128
	c0.229,0.085,0.425,0.209,0.588,0.372c0.165,0.163,0.293,0.363,0.384,0.6c0.093,0.235,0.14,0.501,0.14,0.8
	c0,0.093-0.004,0.169-0.012,0.228c-0.008,0.059-0.023,0.105-0.044,0.14c-0.021,0.035-0.051,0.059-0.088,0.072
	c-0.035,0.013-0.08,0.02-0.136,0.02H13.743z M20.722,18.852l-2.216,5.224c-0.037,0.083-0.083,0.143-0.136,0.18
	c-0.053,0.04-0.139,0.06-0.256,0.06h-0.928l0.8-1.68l-1.656-3.784h1.096c0.096,0,0.169,0.021,0.22,0.064
	c0.053,0.043,0.092,0.093,0.116,0.152l0.68,1.788c0.064,0.163,0.116,0.329,0.156,0.5c0.029-0.085,0.059-0.171,0.088-0.256
	c0.029-0.085,0.06-0.169,0.092-0.252l0.616-1.78c0.024-0.061,0.067-0.112,0.128-0.152c0.061-0.043,0.128-0.064,0.2-0.064H20.722z
	 M22.451,23.064c-0.197,0-0.372-0.028-0.524-0.084c-0.149-0.059-0.276-0.14-0.38-0.244c-0.101-0.107-0.179-0.235-0.232-0.384
	c-0.053-0.149-0.08-0.316-0.08-0.5v-2.144h-0.352c-0.064,0-0.119-0.02-0.164-0.06c-0.045-0.043-0.068-0.104-0.068-0.184V18.98
	l0.66-0.128l0.244-1.012c0.032-0.128,0.123-0.192,0.272-0.192h0.648v1.212h1.028v0.848h-1.028v2.06c0,0.096,0.023,0.176,0.068,0.24
	c0.048,0.061,0.116,0.092,0.204,0.092c0.045,0,0.083-0.004,0.112-0.012c0.032-0.011,0.059-0.021,0.08-0.032
	c0.024-0.013,0.045-0.024,0.064-0.032c0.021-0.011,0.045-0.016,0.072-0.016c0.037,0,0.067,0.009,0.088,0.028
	c0.024,0.016,0.048,0.043,0.072,0.08l0.376,0.588c-0.16,0.12-0.34,0.211-0.54,0.272C22.871,23.035,22.664,23.064,22.451,23.064z
	 M25.077,19.492c0.128-0.224,0.275-0.4,0.44-0.528c0.168-0.128,0.36-0.192,0.576-0.192c0.187,0,0.339,0.044,0.456,0.132l-0.08,0.912
	c-0.013,0.059-0.036,0.099-0.068,0.12c-0.029,0.021-0.071,0.032-0.124,0.032c-0.021,0-0.049-0.001-0.084-0.004
	c-0.035-0.003-0.071-0.005-0.108-0.008c-0.037-0.005-0.076-0.009-0.116-0.012c-0.037-0.005-0.072-0.008-0.104-0.008
	c-0.181,0-0.327,0.048-0.436,0.144c-0.107,0.096-0.197,0.229-0.272,0.4V23h-1.24v-4.148h0.736c0.061,0,0.112,0.005,0.152,0.016
	c0.043,0.011,0.077,0.028,0.104,0.052c0.029,0.021,0.051,0.051,0.064,0.088c0.016,0.037,0.029,0.083,0.04,0.136L25.077,19.492z
	 M28.12,18.852V23h-1.24v-4.148H28.12z M28.248,17.716c0,0.099-0.02,0.192-0.06,0.28c-0.04,0.085-0.095,0.161-0.164,0.228
	c-0.069,0.064-0.151,0.116-0.244,0.156c-0.091,0.037-0.188,0.056-0.292,0.056c-0.101,0-0.196-0.019-0.284-0.056
	c-0.088-0.04-0.167-0.092-0.236-0.156c-0.067-0.067-0.12-0.143-0.16-0.228c-0.037-0.088-0.056-0.181-0.056-0.28
	c0-0.101,0.019-0.196,0.056-0.284c0.04-0.088,0.093-0.165,0.16-0.232c0.069-0.067,0.148-0.119,0.236-0.156
	c0.088-0.037,0.183-0.056,0.284-0.056c0.104,0,0.201,0.019,0.292,0.056c0.093,0.037,0.175,0.089,0.244,0.156
	s0.124,0.144,0.164,0.232C28.228,17.52,28.248,17.615,28.248,17.716z M30.445,20.708c0.205,0,0.353-0.051,0.444-0.152
	c0.093-0.104,0.14-0.237,0.14-0.4c0-0.168-0.047-0.3-0.14-0.396c-0.091-0.096-0.239-0.144-0.444-0.144s-0.355,0.048-0.448,0.144
	c-0.091,0.096-0.136,0.228-0.136,0.396c0,0.08,0.011,0.153,0.032,0.22c0.024,0.067,0.06,0.125,0.108,0.176
	c0.048,0.048,0.108,0.087,0.18,0.116C30.256,20.695,30.344,20.708,30.445,20.708z M31.405,23.152c0-0.099-0.044-0.169-0.132-0.212
	c-0.088-0.045-0.203-0.077-0.344-0.096c-0.141-0.019-0.3-0.029-0.476-0.032c-0.173-0.005-0.347-0.016-0.52-0.032
	c-0.077,0.053-0.141,0.113-0.192,0.18c-0.048,0.064-0.072,0.137-0.072,0.22c0,0.059,0.012,0.112,0.036,0.16
	c0.027,0.048,0.072,0.089,0.136,0.124c0.064,0.035,0.149,0.061,0.256,0.08c0.109,0.021,0.247,0.032,0.412,0.032
	c0.179,0,0.325-0.011,0.44-0.032c0.115-0.021,0.205-0.051,0.272-0.088c0.069-0.037,0.117-0.083,0.144-0.136
	C31.392,23.269,31.405,23.213,31.405,23.152z M32.629,18.98v0.452c0,0.069-0.02,0.124-0.06,0.164
	c-0.037,0.04-0.103,0.071-0.196,0.092l-0.3,0.068c0.016,0.059,0.028,0.119,0.036,0.18c0.011,0.061,0.016,0.125,0.016,0.192
	c0,0.208-0.044,0.395-0.132,0.56c-0.085,0.165-0.204,0.307-0.356,0.424c-0.149,0.115-0.327,0.204-0.532,0.268
	c-0.205,0.061-0.425,0.092-0.66,0.092c-0.064,0-0.127-0.001-0.188-0.004c-0.061-0.005-0.121-0.013-0.18-0.024
	c-0.091,0.056-0.136,0.119-0.136,0.188s0.037,0.12,0.112,0.152c0.075,0.029,0.173,0.051,0.296,0.064
	c0.123,0.011,0.261,0.019,0.416,0.024c0.157,0.003,0.317,0.012,0.48,0.028c0.163,0.013,0.321,0.037,0.476,0.072
	c0.157,0.035,0.297,0.091,0.42,0.168c0.123,0.077,0.221,0.181,0.296,0.312c0.075,0.128,0.112,0.292,0.112,0.492
	c0,0.187-0.045,0.369-0.136,0.548c-0.091,0.179-0.224,0.337-0.4,0.476c-0.176,0.139-0.392,0.249-0.648,0.332
	c-0.256,0.085-0.549,0.128-0.88,0.128c-0.325,0-0.607-0.031-0.844-0.092c-0.235-0.061-0.431-0.143-0.588-0.244
	c-0.155-0.099-0.269-0.213-0.344-0.344c-0.075-0.131-0.112-0.267-0.112-0.408c0-0.184,0.053-0.337,0.16-0.46
	c0.107-0.123,0.256-0.221,0.448-0.296c-0.101-0.061-0.181-0.14-0.24-0.236c-0.059-0.096-0.088-0.22-0.088-0.372
	c0-0.061,0.011-0.125,0.032-0.192c0.021-0.069,0.055-0.136,0.1-0.2c0.048-0.067,0.107-0.129,0.176-0.188s0.152-0.111,0.248-0.156
	c-0.216-0.115-0.387-0.265-0.512-0.452c-0.125-0.189-0.188-0.409-0.188-0.66c0-0.208,0.044-0.395,0.132-0.56
	c0.088-0.168,0.208-0.309,0.36-0.424c0.155-0.117,0.336-0.207,0.544-0.268c0.208-0.064,0.433-0.096,0.676-0.096
	c0.352,0,0.664,0.067,0.936,0.2H32.629z M34.606,20.708c0.205,0,0.353-0.051,0.444-0.152c0.093-0.104,0.14-0.237,0.14-0.4
	c0-0.168-0.047-0.3-0.14-0.396c-0.091-0.096-0.239-0.144-0.444-0.144c-0.205,0-0.355,0.048-0.448,0.144
	c-0.091,0.096-0.136,0.228-0.136,0.396c0,0.08,0.011,0.153,0.032,0.22c0.024,0.067,0.06,0.125,0.108,0.176
	c0.048,0.048,0.108,0.087,0.18,0.116C34.417,20.695,34.505,20.708,34.606,20.708z M35.566,23.152c0-0.099-0.044-0.169-0.132-0.212
	c-0.088-0.045-0.203-0.077-0.344-0.096c-0.141-0.019-0.3-0.029-0.476-0.032c-0.173-0.005-0.347-0.016-0.52-0.032
	c-0.077,0.053-0.141,0.113-0.192,0.18c-0.048,0.064-0.072,0.137-0.072,0.22c0,0.059,0.012,0.112,0.036,0.16
	c0.027,0.048,0.072,0.089,0.136,0.124c0.064,0.035,0.149,0.061,0.256,0.08c0.109,0.021,0.247,0.032,0.412,0.032
	c0.179,0,0.325-0.011,0.44-0.032c0.115-0.021,0.205-0.051,0.272-0.088c0.069-0.037,0.117-0.083,0.144-0.136
	C35.553,23.269,35.566,23.213,35.566,23.152z M36.79,18.98v0.452c0,0.069-0.02,0.124-0.06,0.164
	c-0.037,0.04-0.103,0.071-0.196,0.092l-0.3,0.068c0.016,0.059,0.028,0.119,0.036,0.18c0.011,0.061,0.016,0.125,0.016,0.192
	c0,0.208-0.044,0.395-0.132,0.56c-0.085,0.165-0.204,0.307-0.356,0.424c-0.149,0.115-0.327,0.204-0.532,0.268
	c-0.205,0.061-0.425,0.092-0.66,0.092c-0.064,0-0.127-0.001-0.188-0.004c-0.061-0.005-0.121-0.013-0.18-0.024
	c-0.091,0.056-0.136,0.119-0.136,0.188s0.037,0.12,0.112,0.152c0.075,0.029,0.173,0.051,0.296,0.064
	c0.123,0.011,0.261,0.019,0.416,0.024c0.157,0.003,0.317,0.012,0.48,0.028c0.163,0.013,0.321,0.037,0.476,0.072
	c0.157,0.035,0.297,0.091,0.42,0.168c0.123,0.077,0.221,0.181,0.296,0.312c0.075,0.128,0.112,0.292,0.112,0.492
	c0,0.187-0.045,0.369-0.136,0.548c-0.091,0.179-0.224,0.337-0.4,0.476c-0.176,0.139-0.392,0.249-0.648,0.332
	c-0.256,0.085-0.549,0.128-0.88,0.128c-0.325,0-0.607-0.031-0.844-0.092c-0.235-0.061-0.431-0.143-0.588-0.244
	c-0.155-0.099-0.269-0.213-0.344-0.344c-0.075-0.131-0.112-0.267-0.112-0.408c0-0.184,0.053-0.337,0.16-0.46
	c0.107-0.123,0.256-0.221,0.448-0.296c-0.101-0.061-0.181-0.14-0.24-0.236c-0.059-0.096-0.088-0.22-0.088-0.372
	c0-0.061,0.011-0.125,0.032-0.192c0.021-0.069,0.055-0.136,0.1-0.2c0.048-0.067,0.107-0.129,0.176-0.188
	c0.069-0.059,0.152-0.111,0.248-0.156c-0.216-0.115-0.387-0.265-0.512-0.452c-0.125-0.189-0.188-0.409-0.188-0.66
	c0-0.208,0.044-0.395,0.132-0.56c0.088-0.168,0.208-0.309,0.36-0.424c0.155-0.117,0.336-0.207,0.544-0.268
	c0.208-0.064,0.433-0.096,0.676-0.096c0.352,0,0.664,0.067,0.936,0.2H36.79z M39.689,20.428c0-0.099-0.013-0.195-0.04-0.288
	c-0.024-0.093-0.065-0.176-0.124-0.248c-0.056-0.075-0.131-0.135-0.224-0.18c-0.093-0.045-0.207-0.068-0.34-0.068
	c-0.235,0-0.419,0.068-0.552,0.204c-0.133,0.133-0.221,0.327-0.264,0.58H39.689z M38.129,21.148c0.04,0.347,0.145,0.599,0.316,0.756
	c0.171,0.155,0.391,0.232,0.66,0.232c0.144,0,0.268-0.017,0.372-0.052s0.196-0.073,0.276-0.116c0.083-0.043,0.157-0.081,0.224-0.116
	c0.069-0.035,0.141-0.052,0.216-0.052c0.099,0,0.173,0.036,0.224,0.108l0.36,0.444c-0.128,0.147-0.267,0.267-0.416,0.36
	c-0.147,0.091-0.299,0.163-0.456,0.216c-0.155,0.051-0.311,0.085-0.468,0.104c-0.155,0.021-0.303,0.032-0.444,0.032
	c-0.291,0-0.564-0.047-0.82-0.14c-0.253-0.096-0.476-0.237-0.668-0.424c-0.189-0.187-0.34-0.419-0.452-0.696
	c-0.109-0.277-0.164-0.6-0.164-0.968c0-0.277,0.047-0.54,0.14-0.788c0.096-0.248,0.232-0.465,0.408-0.652
	c0.179-0.187,0.393-0.335,0.644-0.444c0.253-0.109,0.539-0.164,0.856-0.164c0.275,0,0.525,0.043,0.752,0.128
	c0.229,0.085,0.425,0.209,0.588,0.372c0.165,0.163,0.293,0.363,0.384,0.6c0.093,0.235,0.14,0.501,0.14,0.8
	c0,0.093-0.004,0.169-0.012,0.228c-0.008,0.059-0.023,0.105-0.044,0.14c-0.021,0.035-0.051,0.059-0.088,0.072
	c-0.035,0.013-0.08,0.02-0.136,0.02H38.129z M42.462,19.492c0.128-0.224,0.275-0.4,0.44-0.528c0.168-0.128,0.36-0.192,0.576-0.192
	c0.187,0,0.339,0.044,0.456,0.132l-0.08,0.912c-0.013,0.059-0.036,0.099-0.068,0.12c-0.029,0.021-0.071,0.032-0.124,0.032
	c-0.021,0-0.049-0.001-0.084-0.004c-0.035-0.003-0.071-0.005-0.108-0.008c-0.037-0.005-0.076-0.009-0.116-0.012
	c-0.037-0.005-0.072-0.008-0.104-0.008c-0.181,0-0.327,0.048-0.436,0.144c-0.107,0.096-0.197,0.229-0.272,0.4V23h-1.24v-4.148h0.736
	c0.061,0,0.112,0.005,0.152,0.016c0.043,0.011,0.077,0.028,0.104,0.052c0.029,0.021,0.051,0.051,0.064,0.088
	c0.016,0.037,0.029,0.083,0.04,0.136L42.462,19.492z"/>
<g class="st3">
	<rect x="3" y="25.25" width="45" height="1"/>
</g>
<path class="st4" d="M13.291,32.412c0.184,0,0.34-0.023,0.468-0.068c0.131-0.048,0.237-0.113,0.32-0.196
	c0.083-0.083,0.143-0.179,0.18-0.288c0.037-0.112,0.056-0.232,0.056-0.36c0-0.256-0.084-0.456-0.252-0.6
	c-0.165-0.144-0.423-0.216-0.772-0.216h-0.544v1.728H13.291z M16.163,35.5h-1.224c-0.227,0-0.389-0.085-0.488-0.256l-0.968-1.692
	c-0.045-0.072-0.096-0.124-0.152-0.156c-0.056-0.035-0.136-0.052-0.24-0.052h-0.344V35.5h-1.352v-5.828h1.896
	c0.421,0,0.78,0.044,1.076,0.132c0.299,0.085,0.541,0.205,0.728,0.36c0.189,0.155,0.327,0.337,0.412,0.548
	c0.085,0.211,0.128,0.44,0.128,0.688c0,0.189-0.025,0.368-0.076,0.536c-0.051,0.168-0.125,0.324-0.224,0.468
	c-0.099,0.141-0.221,0.268-0.368,0.38c-0.144,0.112-0.311,0.204-0.5,0.276c0.088,0.045,0.171,0.103,0.248,0.172
	c0.077,0.067,0.147,0.147,0.208,0.24L16.163,35.5z M18.459,33.812c-0.248,0.011-0.452,0.032-0.612,0.064
	c-0.16,0.032-0.287,0.072-0.38,0.12c-0.093,0.048-0.159,0.103-0.196,0.164c-0.035,0.061-0.052,0.128-0.052,0.2
	c0,0.141,0.039,0.241,0.116,0.3c0.077,0.056,0.191,0.084,0.34,0.084c0.16,0,0.3-0.028,0.42-0.084
	c0.12-0.056,0.241-0.147,0.364-0.272V33.812z M16.227,31.928c0.251-0.221,0.528-0.385,0.832-0.492
	c0.307-0.109,0.635-0.164,0.984-0.164c0.251,0,0.476,0.041,0.676,0.124c0.203,0.08,0.373,0.193,0.512,0.34
	c0.141,0.144,0.249,0.316,0.324,0.516c0.075,0.2,0.112,0.419,0.112,0.656V35.5h-0.568c-0.117,0-0.207-0.016-0.268-0.048
	c-0.059-0.032-0.108-0.099-0.148-0.2l-0.088-0.228c-0.104,0.088-0.204,0.165-0.3,0.232s-0.196,0.124-0.3,0.172
	c-0.101,0.045-0.211,0.079-0.328,0.1c-0.115,0.024-0.243,0.036-0.384,0.036c-0.189,0-0.361-0.024-0.516-0.072
	c-0.155-0.051-0.287-0.124-0.396-0.22c-0.107-0.096-0.189-0.215-0.248-0.356c-0.059-0.144-0.088-0.309-0.088-0.496
	c0-0.149,0.037-0.3,0.112-0.452c0.075-0.155,0.204-0.295,0.388-0.42c0.184-0.128,0.432-0.235,0.744-0.32
	c0.312-0.085,0.705-0.133,1.18-0.144v-0.176c0-0.243-0.051-0.417-0.152-0.524c-0.099-0.109-0.24-0.164-0.424-0.164
	c-0.147,0-0.267,0.016-0.36,0.048c-0.093,0.032-0.177,0.068-0.252,0.108c-0.072,0.04-0.143,0.076-0.212,0.108
	c-0.069,0.032-0.152,0.048-0.248,0.048c-0.085,0-0.157-0.021-0.216-0.064c-0.059-0.043-0.107-0.093-0.144-0.152L16.227,31.928z
	 M21.483,31.8c0.08-0.075,0.163-0.144,0.248-0.208c0.085-0.064,0.176-0.117,0.272-0.16c0.099-0.045,0.204-0.08,0.316-0.104
	c0.115-0.027,0.239-0.04,0.372-0.04c0.227,0,0.427,0.04,0.6,0.12c0.176,0.077,0.324,0.187,0.444,0.328
	c0.12,0.139,0.211,0.305,0.272,0.5c0.061,0.192,0.092,0.401,0.092,0.628V35.5h-1.24v-2.636c0-0.203-0.047-0.36-0.14-0.472
	c-0.093-0.115-0.231-0.172-0.412-0.172c-0.136,0-0.264,0.029-0.384,0.088c-0.117,0.056-0.232,0.133-0.344,0.232v2.96h-1.24v-4.148
	h0.768c0.155,0,0.256,0.069,0.304,0.208L21.483,31.8z M27.298,32.464c-0.093-0.104-0.195-0.176-0.304-0.216
	c-0.109-0.043-0.224-0.064-0.344-0.064c-0.115,0-0.22,0.023-0.316,0.068c-0.096,0.045-0.18,0.119-0.252,0.22
	c-0.069,0.099-0.124,0.228-0.164,0.388c-0.04,0.16-0.06,0.353-0.06,0.58c0,0.219,0.016,0.403,0.048,0.552
	c0.032,0.149,0.076,0.271,0.132,0.364c0.059,0.091,0.128,0.156,0.208,0.196c0.08,0.04,0.169,0.06,0.268,0.06
	c0.091,0,0.172-0.008,0.244-0.024c0.075-0.019,0.143-0.044,0.204-0.076c0.061-0.032,0.119-0.072,0.172-0.12
	c0.056-0.051,0.111-0.108,0.164-0.172V32.464z M28.538,29.512V35.5H27.77c-0.155,0-0.256-0.069-0.304-0.208l-0.096-0.316
	c-0.083,0.088-0.169,0.168-0.26,0.24c-0.091,0.072-0.189,0.135-0.296,0.188c-0.104,0.051-0.217,0.089-0.34,0.116
	c-0.12,0.029-0.251,0.044-0.392,0.044c-0.216,0-0.416-0.048-0.6-0.144c-0.184-0.096-0.343-0.235-0.476-0.416
	c-0.133-0.181-0.239-0.403-0.316-0.664c-0.075-0.264-0.112-0.564-0.112-0.9c0-0.309,0.043-0.596,0.128-0.86
	c0.085-0.267,0.205-0.496,0.36-0.688c0.157-0.195,0.345-0.347,0.564-0.456c0.219-0.109,0.46-0.164,0.724-0.164
	c0.216,0,0.397,0.031,0.544,0.092c0.147,0.061,0.28,0.144,0.4,0.248v-2.1H28.538z M31.168,31.288c0.315,0,0.601,0.049,0.86,0.148
	c0.259,0.099,0.48,0.24,0.664,0.424c0.187,0.184,0.331,0.408,0.432,0.672c0.104,0.261,0.156,0.556,0.156,0.884
	c0,0.331-0.052,0.629-0.156,0.896c-0.101,0.264-0.245,0.489-0.432,0.676c-0.184,0.184-0.405,0.327-0.664,0.428
	c-0.259,0.099-0.545,0.148-0.86,0.148c-0.317,0-0.607-0.049-0.868-0.148c-0.259-0.101-0.483-0.244-0.672-0.428
	c-0.187-0.187-0.332-0.412-0.436-0.676c-0.101-0.267-0.152-0.565-0.152-0.896c0-0.328,0.051-0.623,0.152-0.884
	c0.104-0.264,0.249-0.488,0.436-0.672c0.189-0.184,0.413-0.325,0.672-0.424C30.561,31.337,30.85,31.288,31.168,31.288z
	 M31.168,34.644c0.285,0,0.495-0.1,0.628-0.3C31.932,34.141,32,33.835,32,33.424c0-0.411-0.068-0.716-0.204-0.916
	c-0.133-0.2-0.343-0.3-0.628-0.3c-0.293,0-0.508,0.1-0.644,0.3s-0.204,0.505-0.204,0.916c0,0.411,0.068,0.717,0.204,0.92
	C30.66,34.544,30.874,34.644,31.168,34.644z M33.784,35.5v-4.148h0.768c0.155,0,0.256,0.069,0.304,0.208l0.068,0.224
	c0.069-0.072,0.141-0.137,0.216-0.196c0.075-0.061,0.155-0.113,0.24-0.156c0.088-0.045,0.181-0.08,0.28-0.104
	c0.101-0.027,0.212-0.04,0.332-0.04c0.251,0,0.457,0.065,0.62,0.196c0.165,0.128,0.291,0.3,0.376,0.516
	c0.069-0.128,0.153-0.237,0.252-0.328c0.101-0.091,0.209-0.164,0.324-0.22c0.117-0.056,0.24-0.097,0.368-0.124
	c0.131-0.027,0.26-0.04,0.388-0.04c0.237,0,0.448,0.036,0.632,0.108c0.184,0.069,0.337,0.172,0.46,0.308
	c0.125,0.133,0.22,0.299,0.284,0.496c0.064,0.195,0.096,0.416,0.096,0.664V35.5h-1.24v-2.636c0-0.429-0.184-0.644-0.552-0.644
	c-0.168,0-0.308,0.056-0.42,0.168c-0.109,0.109-0.164,0.268-0.164,0.476V35.5h-1.24v-2.636c0-0.237-0.047-0.404-0.14-0.5
	c-0.093-0.096-0.231-0.144-0.412-0.144c-0.112,0-0.219,0.025-0.32,0.076c-0.099,0.051-0.192,0.119-0.28,0.204v3H33.784z"/>
<path d="M2.5,1h46V0h-46V1z M50,2.5v34h1v-34H50z M48.5,38h-46v1h46V38z M1,36.5v-34H0v34H1z M2.5,38C1.672,38,1,37.328,1,36.5H0
	C0,37.881,1.119,39,2.5,39V38z M50,36.5c0,0.828-0.672,1.5-1.5,1.5v1c1.381,0,2.5-1.119,2.5-2.5H50z M48.5,1
	C49.328,1,50,1.672,50,2.5h1C51,1.119,49.881,0,48.5,0V1z M2.5,0C1.119,0,0,1.119,0,2.5h1C1,1.672,1.672,1,2.5,1V0z"/>
<path class="st0" d="M0.5,41.5c0-1.105,0.895-2,2-2h46c1.105,0,2,0.895,2,2v34c0,1.105-0.895,2-2,2h-46c-1.105,0-2-0.895-2-2V41.5z"
	/>
<path class="st4" d="M13.776,44.712v1.476h1.992v1.044h-1.992V49.5h-1.36v-5.828h3.752v1.04H13.776z M17.539,45.992
	c0.128-0.224,0.275-0.4,0.44-0.528c0.168-0.128,0.36-0.192,0.576-0.192c0.187,0,0.339,0.044,0.456,0.132l-0.08,0.912
	c-0.013,0.059-0.036,0.099-0.068,0.12c-0.029,0.021-0.071,0.032-0.124,0.032c-0.021,0-0.049-0.001-0.084-0.004
	c-0.035-0.003-0.071-0.005-0.108-0.008c-0.037-0.005-0.076-0.009-0.116-0.012c-0.037-0.005-0.072-0.008-0.104-0.008
	c-0.181,0-0.327,0.048-0.436,0.144c-0.107,0.096-0.197,0.229-0.272,0.4v2.52h-1.24v-4.148h0.736c0.061,0,0.112,0.005,0.152,0.016
	c0.043,0.011,0.077,0.028,0.104,0.052c0.029,0.021,0.051,0.051,0.064,0.088c0.016,0.037,0.029,0.083,0.04,0.136L17.539,45.992z
	 M21.823,46.928c0-0.099-0.013-0.195-0.04-0.288c-0.024-0.093-0.065-0.176-0.124-0.248c-0.056-0.075-0.131-0.135-0.224-0.18
	c-0.093-0.045-0.207-0.068-0.34-0.068c-0.235,0-0.419,0.068-0.552,0.204c-0.133,0.133-0.221,0.327-0.264,0.58H21.823z
	 M20.263,47.648c0.04,0.347,0.145,0.599,0.316,0.756c0.171,0.155,0.391,0.232,0.66,0.232c0.144,0,0.268-0.017,0.372-0.052
	s0.196-0.073,0.276-0.116c0.083-0.043,0.157-0.081,0.224-0.116c0.069-0.035,0.141-0.052,0.216-0.052
	c0.099,0,0.173,0.036,0.224,0.108l0.36,0.444c-0.128,0.147-0.267,0.267-0.416,0.36c-0.147,0.091-0.299,0.163-0.456,0.216
	c-0.155,0.051-0.311,0.085-0.468,0.104c-0.155,0.021-0.303,0.032-0.444,0.032c-0.291,0-0.564-0.047-0.82-0.14
	c-0.253-0.096-0.476-0.237-0.668-0.424c-0.189-0.187-0.34-0.419-0.452-0.696c-0.109-0.277-0.164-0.6-0.164-0.968
	c0-0.277,0.047-0.54,0.14-0.788c0.096-0.248,0.232-0.465,0.408-0.652c0.179-0.187,0.393-0.335,0.644-0.444
	c0.253-0.109,0.539-0.164,0.856-0.164c0.275,0,0.525,0.043,0.752,0.128c0.229,0.085,0.425,0.209,0.588,0.372
	c0.165,0.163,0.293,0.363,0.384,0.6c0.093,0.235,0.14,0.501,0.14,0.8c0,0.093-0.004,0.169-0.012,0.228
	c-0.008,0.059-0.023,0.105-0.044,0.14c-0.021,0.035-0.051,0.059-0.088,0.072c-0.035,0.013-0.08,0.02-0.136,0.02H20.263z
	 M26.016,46.928c0-0.099-0.013-0.195-0.04-0.288c-0.024-0.093-0.065-0.176-0.124-0.248c-0.056-0.075-0.131-0.135-0.224-0.18
	c-0.093-0.045-0.207-0.068-0.34-0.068c-0.235,0-0.419,0.068-0.552,0.204c-0.133,0.133-0.221,0.327-0.264,0.58H26.016z
	 M24.456,47.648c0.04,0.347,0.145,0.599,0.316,0.756c0.171,0.155,0.391,0.232,0.66,0.232c0.144,0,0.268-0.017,0.372-0.052
	S26,48.511,26.08,48.468c0.083-0.043,0.157-0.081,0.224-0.116c0.069-0.035,0.141-0.052,0.216-0.052c0.099,0,0.173,0.036,0.224,0.108
	l0.36,0.444c-0.128,0.147-0.267,0.267-0.416,0.36c-0.147,0.091-0.299,0.163-0.456,0.216c-0.155,0.051-0.311,0.085-0.468,0.104
	c-0.155,0.021-0.303,0.032-0.444,0.032c-0.291,0-0.564-0.047-0.82-0.14c-0.253-0.096-0.476-0.237-0.668-0.424
	c-0.189-0.187-0.34-0.419-0.452-0.696c-0.109-0.277-0.164-0.6-0.164-0.968c0-0.277,0.047-0.54,0.14-0.788
	c0.096-0.248,0.232-0.465,0.408-0.652c0.179-0.187,0.393-0.335,0.644-0.444c0.253-0.109,0.539-0.164,0.856-0.164
	c0.275,0,0.525,0.043,0.752,0.128c0.229,0.085,0.425,0.209,0.588,0.372c0.165,0.163,0.293,0.363,0.384,0.6
	c0.093,0.235,0.14,0.501,0.14,0.8c0,0.093-0.004,0.169-0.012,0.228c-0.008,0.059-0.023,0.105-0.044,0.14
	c-0.021,0.035-0.051,0.059-0.088,0.072c-0.035,0.013-0.08,0.02-0.136,0.02H24.456z M28.788,45.992c0.128-0.224,0.275-0.4,0.44-0.528
	c0.168-0.128,0.36-0.192,0.576-0.192c0.187,0,0.339,0.044,0.456,0.132l-0.08,0.912c-0.013,0.059-0.036,0.099-0.068,0.12
	c-0.029,0.021-0.071,0.032-0.124,0.032c-0.021,0-0.049-0.001-0.084-0.004c-0.035-0.003-0.071-0.005-0.108-0.008
	c-0.037-0.005-0.076-0.009-0.116-0.012c-0.037-0.005-0.072-0.008-0.104-0.008c-0.181,0-0.327,0.048-0.436,0.144
	c-0.107,0.096-0.197,0.229-0.272,0.4v2.52h-1.24v-4.148h0.736c0.061,0,0.112,0.005,0.152,0.016c0.043,0.011,0.077,0.028,0.104,0.052
	c0.029,0.021,0.051,0.051,0.064,0.088c0.016,0.037,0.029,0.083,0.04,0.136L28.788,45.992z M34.283,45.352V49.5h-0.768
	c-0.155,0-0.256-0.069-0.304-0.208l-0.072-0.24c-0.08,0.077-0.163,0.148-0.248,0.212c-0.085,0.061-0.177,0.115-0.276,0.16
	c-0.096,0.043-0.201,0.076-0.316,0.1c-0.112,0.027-0.235,0.04-0.368,0.04c-0.227,0-0.428-0.039-0.604-0.116
	c-0.173-0.08-0.32-0.191-0.44-0.332c-0.12-0.141-0.211-0.308-0.272-0.5c-0.061-0.192-0.092-0.403-0.092-0.632v-2.632h1.24v2.632
	c0,0.205,0.047,0.364,0.14,0.476s0.231,0.168,0.412,0.168c0.136,0,0.263-0.028,0.38-0.084c0.12-0.059,0.236-0.137,0.348-0.236
	v-2.956H34.283z M36.149,45.8c0.08-0.075,0.163-0.144,0.248-0.208s0.176-0.117,0.272-0.16c0.099-0.045,0.204-0.08,0.316-0.104
	c0.115-0.027,0.239-0.04,0.372-0.04c0.227,0,0.427,0.04,0.6,0.12c0.176,0.077,0.324,0.187,0.444,0.328
	c0.12,0.139,0.211,0.305,0.272,0.5c0.061,0.192,0.092,0.401,0.092,0.628V49.5h-1.24v-2.636c0-0.203-0.047-0.36-0.14-0.472
	c-0.093-0.115-0.231-0.172-0.412-0.172c-0.136,0-0.264,0.029-0.384,0.088c-0.117,0.056-0.232,0.133-0.344,0.232v2.96h-1.24v-4.148
	h0.768c0.155,0,0.256,0.069,0.304,0.208L36.149,45.8z"/>
<g class="st3">
	<rect x="3" y="51.75" width="45" height="1"/>
</g>
<path class="st1" d="M2.5,54.5c0-0.552,0.448-1,1-1h44c0.552,0,1,0.448,1,1v8c0,0.552-0.448,1-1,1h-44c-0.552,0-1-0.448-1-1V54.5z"
	/>
<path class="st1" d="M3.5,53.5h44c0.552,0,1,0.448,1,1v8c0,0.552-0.448,1-1,1h-44c-0.552,0-1-0.448-1-1v-8
	C2.5,53.948,2.948,53.5,3.5,53.5z"/>
<path class="st2" d="M3.5,53.5h44c0.552,0,1,0.448,1,1v8c0,0.552-0.448,1-1,1h-44c-0.552,0-1-0.448-1-1v-8
	C2.5,53.948,2.948,53.5,3.5,53.5z"/>
<path d="M8.979,58.532h0.216c0.2,0,0.344-0.063,0.432-0.188l1.312-1.904c0.077-0.101,0.16-0.171,0.248-0.208
	c0.091-0.04,0.203-0.06,0.336-0.06h1.176l-1.728,2.356c-0.123,0.163-0.255,0.28-0.396,0.352c0.101,0.037,0.193,0.089,0.276,0.156
	c0.083,0.067,0.16,0.153,0.232,0.26L12.843,62h-1.208c-0.077,0-0.144-0.005-0.2-0.016c-0.053-0.011-0.1-0.027-0.14-0.048
	c-0.04-0.021-0.075-0.047-0.104-0.076c-0.029-0.032-0.057-0.068-0.084-0.108l-1.32-2.028c-0.048-0.075-0.109-0.127-0.184-0.156
	c-0.072-0.032-0.171-0.048-0.296-0.048H8.979V62H7.627v-5.828h1.352V58.532z M15.303,59.428c0-0.099-0.013-0.195-0.04-0.288
	c-0.024-0.093-0.065-0.176-0.124-0.248c-0.056-0.075-0.131-0.135-0.224-0.18c-0.093-0.045-0.207-0.068-0.34-0.068
	c-0.235,0-0.419,0.068-0.552,0.204c-0.133,0.133-0.221,0.327-0.264,0.58H15.303z M13.743,60.148c0.04,0.347,0.145,0.599,0.316,0.756
	c0.171,0.155,0.391,0.232,0.66,0.232c0.144,0,0.268-0.017,0.372-0.052s0.196-0.073,0.276-0.116c0.083-0.043,0.157-0.081,0.224-0.116
	c0.069-0.035,0.141-0.052,0.216-0.052c0.099,0,0.173,0.036,0.224,0.108l0.36,0.444c-0.128,0.147-0.267,0.267-0.416,0.36
	c-0.147,0.091-0.299,0.163-0.456,0.216c-0.155,0.051-0.311,0.085-0.468,0.104c-0.155,0.021-0.303,0.032-0.444,0.032
	c-0.291,0-0.564-0.047-0.82-0.14c-0.253-0.096-0.476-0.237-0.668-0.424c-0.189-0.187-0.34-0.419-0.452-0.696
	c-0.109-0.277-0.164-0.6-0.164-0.968c0-0.277,0.047-0.54,0.14-0.788c0.096-0.248,0.232-0.465,0.408-0.652
	c0.179-0.187,0.393-0.335,0.644-0.444c0.253-0.109,0.539-0.164,0.856-0.164c0.275,0,0.525,0.043,0.752,0.128
	c0.229,0.085,0.425,0.209,0.588,0.372c0.165,0.163,0.293,0.363,0.384,0.6c0.093,0.235,0.14,0.501,0.14,0.8
	c0,0.093-0.004,0.169-0.012,0.228c-0.008,0.059-0.023,0.105-0.044,0.14c-0.021,0.035-0.051,0.059-0.088,0.072
	c-0.035,0.013-0.08,0.02-0.136,0.02H13.743z M20.722,57.852l-2.216,5.224c-0.037,0.083-0.083,0.143-0.136,0.18
	c-0.053,0.04-0.139,0.06-0.256,0.06h-0.928l0.8-1.68l-1.656-3.784h1.096c0.096,0,0.169,0.021,0.22,0.064
	c0.053,0.043,0.092,0.093,0.116,0.152l0.68,1.788c0.064,0.163,0.116,0.329,0.156,0.5c0.029-0.085,0.059-0.171,0.088-0.256
	c0.029-0.085,0.06-0.169,0.092-0.252l0.616-1.78c0.024-0.061,0.067-0.112,0.128-0.152c0.061-0.043,0.128-0.064,0.2-0.064H20.722z
	 M22.451,62.064c-0.197,0-0.372-0.028-0.524-0.084c-0.149-0.059-0.276-0.14-0.38-0.244c-0.101-0.107-0.179-0.235-0.232-0.384
	c-0.053-0.149-0.08-0.316-0.08-0.5v-2.144h-0.352c-0.064,0-0.119-0.02-0.164-0.06c-0.045-0.043-0.068-0.104-0.068-0.184V57.98
	l0.66-0.128l0.244-1.012c0.032-0.128,0.123-0.192,0.272-0.192h0.648v1.212h1.028v0.848h-1.028v2.06c0,0.096,0.023,0.176,0.068,0.24
	c0.048,0.061,0.116,0.092,0.204,0.092c0.045,0,0.083-0.004,0.112-0.012c0.032-0.011,0.059-0.021,0.08-0.032
	c0.024-0.013,0.045-0.024,0.064-0.032c0.021-0.011,0.045-0.016,0.072-0.016c0.037,0,0.067,0.009,0.088,0.028
	c0.024,0.016,0.048,0.043,0.072,0.08l0.376,0.588c-0.16,0.12-0.34,0.211-0.54,0.272C22.871,62.035,22.664,62.064,22.451,62.064z
	 M25.077,58.492c0.128-0.224,0.275-0.4,0.44-0.528c0.168-0.128,0.36-0.192,0.576-0.192c0.187,0,0.339,0.044,0.456,0.132l-0.08,0.912
	c-0.013,0.059-0.036,0.099-0.068,0.12c-0.029,0.021-0.071,0.032-0.124,0.032c-0.021,0-0.049-0.001-0.084-0.004
	s-0.071-0.005-0.108-0.008c-0.037-0.005-0.076-0.009-0.116-0.012c-0.037-0.005-0.072-0.008-0.104-0.008
	c-0.181,0-0.327,0.048-0.436,0.144c-0.107,0.096-0.197,0.229-0.272,0.4V62h-1.24v-4.148h0.736c0.061,0,0.112,0.005,0.152,0.016
	c0.043,0.011,0.077,0.028,0.104,0.052c0.029,0.021,0.051,0.051,0.064,0.088c0.016,0.037,0.029,0.083,0.04,0.136L25.077,58.492z
	 M28.12,57.852V62h-1.24v-4.148H28.12z M28.248,56.716c0,0.099-0.02,0.192-0.06,0.28c-0.04,0.085-0.095,0.161-0.164,0.228
	c-0.069,0.064-0.151,0.116-0.244,0.156c-0.091,0.037-0.188,0.056-0.292,0.056c-0.101,0-0.196-0.019-0.284-0.056
	c-0.088-0.04-0.167-0.092-0.236-0.156c-0.067-0.067-0.12-0.143-0.16-0.228c-0.037-0.088-0.056-0.181-0.056-0.28
	c0-0.101,0.019-0.196,0.056-0.284c0.04-0.088,0.093-0.165,0.16-0.232c0.069-0.067,0.148-0.119,0.236-0.156
	c0.088-0.037,0.183-0.056,0.284-0.056c0.104,0,0.201,0.019,0.292,0.056c0.093,0.037,0.175,0.089,0.244,0.156
	s0.124,0.144,0.164,0.232C28.228,56.52,28.248,56.615,28.248,56.716z M30.445,59.708c0.205,0,0.353-0.051,0.444-0.152
	c0.093-0.104,0.14-0.237,0.14-0.4c0-0.168-0.047-0.3-0.14-0.396c-0.091-0.096-0.239-0.144-0.444-0.144s-0.355,0.048-0.448,0.144
	c-0.091,0.096-0.136,0.228-0.136,0.396c0,0.08,0.011,0.153,0.032,0.22c0.024,0.067,0.06,0.125,0.108,0.176
	c0.048,0.048,0.108,0.087,0.18,0.116C30.256,59.695,30.344,59.708,30.445,59.708z M31.405,62.152c0-0.099-0.044-0.169-0.132-0.212
	c-0.088-0.045-0.203-0.077-0.344-0.096c-0.141-0.019-0.3-0.029-0.476-0.032c-0.173-0.005-0.347-0.016-0.52-0.032
	c-0.077,0.053-0.141,0.113-0.192,0.18c-0.048,0.064-0.072,0.137-0.072,0.22c0,0.059,0.012,0.112,0.036,0.16
	c0.027,0.048,0.072,0.089,0.136,0.124c0.064,0.035,0.149,0.061,0.256,0.08c0.109,0.021,0.247,0.032,0.412,0.032
	c0.179,0,0.325-0.011,0.44-0.032c0.115-0.021,0.205-0.051,0.272-0.088c0.069-0.037,0.117-0.083,0.144-0.136
	C31.392,62.269,31.405,62.213,31.405,62.152z M32.629,57.98v0.452c0,0.069-0.02,0.124-0.06,0.164
	c-0.037,0.04-0.103,0.071-0.196,0.092l-0.3,0.068c0.016,0.059,0.028,0.119,0.036,0.18c0.011,0.061,0.016,0.125,0.016,0.192
	c0,0.208-0.044,0.395-0.132,0.56c-0.085,0.165-0.204,0.307-0.356,0.424c-0.149,0.115-0.327,0.204-0.532,0.268
	c-0.205,0.061-0.425,0.092-0.66,0.092c-0.064,0-0.127-0.001-0.188-0.004c-0.061-0.005-0.121-0.013-0.18-0.024
	c-0.091,0.056-0.136,0.119-0.136,0.188s0.037,0.12,0.112,0.152c0.075,0.029,0.173,0.051,0.296,0.064
	c0.123,0.011,0.261,0.019,0.416,0.024c0.157,0.003,0.317,0.012,0.48,0.028c0.163,0.013,0.321,0.037,0.476,0.072
	c0.157,0.035,0.297,0.091,0.42,0.168s0.221,0.181,0.296,0.312c0.075,0.128,0.112,0.292,0.112,0.492c0,0.187-0.045,0.369-0.136,0.548
	c-0.091,0.179-0.224,0.337-0.4,0.476c-0.176,0.139-0.392,0.249-0.648,0.332c-0.256,0.085-0.549,0.128-0.88,0.128
	c-0.325,0-0.607-0.031-0.844-0.092c-0.235-0.061-0.431-0.143-0.588-0.244c-0.155-0.099-0.269-0.213-0.344-0.344
	c-0.075-0.131-0.112-0.267-0.112-0.408c0-0.184,0.053-0.337,0.16-0.46s0.256-0.221,0.448-0.296c-0.101-0.061-0.181-0.14-0.24-0.236
	s-0.088-0.22-0.088-0.372c0-0.061,0.011-0.125,0.032-0.192c0.021-0.069,0.055-0.136,0.1-0.2c0.048-0.067,0.107-0.129,0.176-0.188
	s0.152-0.111,0.248-0.156c-0.216-0.115-0.387-0.265-0.512-0.452c-0.125-0.189-0.188-0.409-0.188-0.66
	c0-0.208,0.044-0.395,0.132-0.56c0.088-0.168,0.208-0.309,0.36-0.424c0.155-0.117,0.336-0.207,0.544-0.268
	c0.208-0.064,0.433-0.096,0.676-0.096c0.352,0,0.664,0.067,0.936,0.2H32.629z M34.606,59.708c0.205,0,0.353-0.051,0.444-0.152
	c0.093-0.104,0.14-0.237,0.14-0.4c0-0.168-0.047-0.3-0.14-0.396c-0.091-0.096-0.239-0.144-0.444-0.144
	c-0.205,0-0.355,0.048-0.448,0.144c-0.091,0.096-0.136,0.228-0.136,0.396c0,0.08,0.011,0.153,0.032,0.22
	c0.024,0.067,0.06,0.125,0.108,0.176c0.048,0.048,0.108,0.087,0.18,0.116C34.417,59.695,34.505,59.708,34.606,59.708z
	 M35.566,62.152c0-0.099-0.044-0.169-0.132-0.212c-0.088-0.045-0.203-0.077-0.344-0.096c-0.141-0.019-0.3-0.029-0.476-0.032
	c-0.173-0.005-0.347-0.016-0.52-0.032c-0.077,0.053-0.141,0.113-0.192,0.18c-0.048,0.064-0.072,0.137-0.072,0.22
	c0,0.059,0.012,0.112,0.036,0.16c0.027,0.048,0.072,0.089,0.136,0.124c0.064,0.035,0.149,0.061,0.256,0.08
	c0.109,0.021,0.247,0.032,0.412,0.032c0.179,0,0.325-0.011,0.44-0.032c0.115-0.021,0.205-0.051,0.272-0.088
	c0.069-0.037,0.117-0.083,0.144-0.136C35.553,62.269,35.566,62.213,35.566,62.152z M36.79,57.98v0.452
	c0,0.069-0.02,0.124-0.06,0.164c-0.037,0.04-0.103,0.071-0.196,0.092l-0.3,0.068c0.016,0.059,0.028,0.119,0.036,0.18
	c0.011,0.061,0.016,0.125,0.016,0.192c0,0.208-0.044,0.395-0.132,0.56c-0.085,0.165-0.204,0.307-0.356,0.424
	c-0.149,0.115-0.327,0.204-0.532,0.268c-0.205,0.061-0.425,0.092-0.66,0.092c-0.064,0-0.127-0.001-0.188-0.004
	c-0.061-0.005-0.121-0.013-0.18-0.024c-0.091,0.056-0.136,0.119-0.136,0.188s0.037,0.12,0.112,0.152
	c0.075,0.029,0.173,0.051,0.296,0.064c0.123,0.011,0.261,0.019,0.416,0.024c0.157,0.003,0.317,0.012,0.48,0.028
	c0.163,0.013,0.321,0.037,0.476,0.072c0.157,0.035,0.297,0.091,0.42,0.168c0.123,0.077,0.221,0.181,0.296,0.312
	c0.075,0.128,0.112,0.292,0.112,0.492c0,0.187-0.045,0.369-0.136,0.548c-0.091,0.179-0.224,0.337-0.4,0.476
	c-0.176,0.139-0.392,0.249-0.648,0.332c-0.256,0.085-0.549,0.128-0.88,0.128c-0.325,0-0.607-0.031-0.844-0.092
	c-0.235-0.061-0.431-0.143-0.588-0.244c-0.155-0.099-0.269-0.213-0.344-0.344c-0.075-0.131-0.112-0.267-0.112-0.408
	c0-0.184,0.053-0.337,0.16-0.46c0.107-0.123,0.256-0.221,0.448-0.296c-0.101-0.061-0.181-0.14-0.24-0.236
	c-0.059-0.096-0.088-0.22-0.088-0.372c0-0.061,0.011-0.125,0.032-0.192c0.021-0.069,0.055-0.136,0.1-0.2
	c0.048-0.067,0.107-0.129,0.176-0.188c0.069-0.059,0.152-0.111,0.248-0.156c-0.216-0.115-0.387-0.265-0.512-0.452
	c-0.125-0.189-0.188-0.409-0.188-0.66c0-0.208,0.044-0.395,0.132-0.56c0.088-0.168,0.208-0.309,0.36-0.424
	c0.155-0.117,0.336-0.207,0.544-0.268c0.208-0.064,0.433-0.096,0.676-0.096c0.352,0,0.664,0.067,0.936,0.2H36.79z M39.689,59.428
	c0-0.099-0.013-0.195-0.04-0.288c-0.024-0.093-0.065-0.176-0.124-0.248c-0.056-0.075-0.131-0.135-0.224-0.18
	c-0.093-0.045-0.207-0.068-0.34-0.068c-0.235,0-0.419,0.068-0.552,0.204c-0.133,0.133-0.221,0.327-0.264,0.58H39.689z
	 M38.129,60.148c0.04,0.347,0.145,0.599,0.316,0.756c0.171,0.155,0.391,0.232,0.66,0.232c0.144,0,0.268-0.017,0.372-0.052
	s0.196-0.073,0.276-0.116c0.083-0.043,0.157-0.081,0.224-0.116c0.069-0.035,0.141-0.052,0.216-0.052
	c0.099,0,0.173,0.036,0.224,0.108l0.36,0.444c-0.128,0.147-0.267,0.267-0.416,0.36c-0.147,0.091-0.299,0.163-0.456,0.216
	c-0.155,0.051-0.311,0.085-0.468,0.104c-0.155,0.021-0.303,0.032-0.444,0.032c-0.291,0-0.564-0.047-0.82-0.14
	c-0.253-0.096-0.476-0.237-0.668-0.424c-0.189-0.187-0.34-0.419-0.452-0.696c-0.109-0.277-0.164-0.6-0.164-0.968
	c0-0.277,0.047-0.54,0.14-0.788c0.096-0.248,0.232-0.465,0.408-0.652c0.179-0.187,0.393-0.335,0.644-0.444
	c0.253-0.109,0.539-0.164,0.856-0.164c0.275,0,0.525,0.043,0.752,0.128c0.229,0.085,0.425,0.209,0.588,0.372
	c0.165,0.163,0.293,0.363,0.384,0.6c0.093,0.235,0.14,0.501,0.14,0.8c0,0.093-0.004,0.169-0.012,0.228
	c-0.008,0.059-0.023,0.105-0.044,0.14c-0.021,0.035-0.051,0.059-0.088,0.072c-0.035,0.013-0.08,0.02-0.136,0.02H38.129z
	 M42.462,58.492c0.128-0.224,0.275-0.4,0.44-0.528c0.168-0.128,0.36-0.192,0.576-0.192c0.187,0,0.339,0.044,0.456,0.132l-0.08,0.912
	c-0.013,0.059-0.036,0.099-0.068,0.12c-0.029,0.021-0.071,0.032-0.124,0.032c-0.021,0-0.049-0.001-0.084-0.004
	c-0.035-0.003-0.071-0.005-0.108-0.008c-0.037-0.005-0.076-0.009-0.116-0.012c-0.037-0.005-0.072-0.008-0.104-0.008
	c-0.181,0-0.327,0.048-0.436,0.144c-0.107,0.096-0.197,0.229-0.272,0.4V62h-1.24v-4.148h0.736c0.061,0,0.112,0.005,0.152,0.016
	c0.043,0.011,0.077,0.028,0.104,0.052c0.029,0.021,0.051,0.051,0.064,0.088c0.016,0.037,0.029,0.083,0.04,0.136L42.462,58.492z"/>
<g class="st3">
	<rect x="3" y="64.25" width="45" height="1"/>
</g>
<path class="st4" d="M13.291,71.412c0.184,0,0.34-0.023,0.468-0.068c0.131-0.048,0.237-0.113,0.32-0.196
	c0.083-0.083,0.143-0.179,0.18-0.288c0.037-0.112,0.056-0.232,0.056-0.36c0-0.256-0.084-0.456-0.252-0.6
	c-0.165-0.144-0.423-0.216-0.772-0.216h-0.544v1.728H13.291z M16.163,74.5h-1.224c-0.227,0-0.389-0.085-0.488-0.256l-0.968-1.692
	c-0.045-0.072-0.096-0.124-0.152-0.156c-0.056-0.035-0.136-0.052-0.24-0.052h-0.344V74.5h-1.352v-5.828h1.896
	c0.421,0,0.78,0.044,1.076,0.132c0.299,0.085,0.541,0.205,0.728,0.36c0.189,0.155,0.327,0.337,0.412,0.548
	c0.085,0.211,0.128,0.44,0.128,0.688c0,0.189-0.025,0.368-0.076,0.536c-0.051,0.168-0.125,0.324-0.224,0.468
	c-0.099,0.141-0.221,0.268-0.368,0.38c-0.144,0.112-0.311,0.204-0.5,0.276c0.088,0.045,0.171,0.103,0.248,0.172
	c0.077,0.067,0.147,0.147,0.208,0.24L16.163,74.5z M18.459,72.812c-0.248,0.011-0.452,0.032-0.612,0.064s-0.287,0.072-0.38,0.12
	c-0.093,0.048-0.159,0.103-0.196,0.164c-0.035,0.061-0.052,0.128-0.052,0.2c0,0.141,0.039,0.241,0.116,0.3
	c0.077,0.056,0.191,0.084,0.34,0.084c0.16,0,0.3-0.028,0.42-0.084c0.12-0.056,0.241-0.147,0.364-0.272V72.812z M16.227,70.928
	c0.251-0.221,0.528-0.385,0.832-0.492c0.307-0.109,0.635-0.164,0.984-0.164c0.251,0,0.476,0.041,0.676,0.124
	c0.203,0.08,0.373,0.193,0.512,0.34c0.141,0.144,0.249,0.316,0.324,0.516c0.075,0.2,0.112,0.419,0.112,0.656V74.5h-0.568
	c-0.117,0-0.207-0.016-0.268-0.048c-0.059-0.032-0.108-0.099-0.148-0.2l-0.088-0.228c-0.104,0.088-0.204,0.165-0.3,0.232
	c-0.096,0.067-0.196,0.124-0.3,0.172c-0.101,0.045-0.211,0.079-0.328,0.1c-0.115,0.024-0.243,0.036-0.384,0.036
	c-0.189,0-0.361-0.024-0.516-0.072c-0.155-0.051-0.287-0.124-0.396-0.22c-0.107-0.096-0.189-0.215-0.248-0.356
	c-0.059-0.144-0.088-0.309-0.088-0.496c0-0.149,0.037-0.3,0.112-0.452c0.075-0.155,0.204-0.295,0.388-0.42
	c0.184-0.128,0.432-0.235,0.744-0.32c0.312-0.085,0.705-0.133,1.18-0.144v-0.176c0-0.243-0.051-0.417-0.152-0.524
	c-0.099-0.109-0.24-0.164-0.424-0.164c-0.147,0-0.267,0.016-0.36,0.048c-0.093,0.032-0.177,0.068-0.252,0.108
	c-0.072,0.04-0.143,0.076-0.212,0.108c-0.069,0.032-0.152,0.048-0.248,0.048c-0.085,0-0.157-0.021-0.216-0.064
	c-0.059-0.043-0.107-0.093-0.144-0.152L16.227,70.928z M21.483,70.8c0.08-0.075,0.163-0.144,0.248-0.208
	c0.085-0.064,0.176-0.117,0.272-0.16c0.099-0.045,0.204-0.08,0.316-0.104c0.115-0.027,0.239-0.04,0.372-0.04
	c0.227,0,0.427,0.04,0.6,0.12c0.176,0.077,0.324,0.187,0.444,0.328c0.12,0.139,0.211,0.305,0.272,0.5
	c0.061,0.192,0.092,0.401,0.092,0.628V74.5h-1.24v-2.636c0-0.203-0.047-0.36-0.14-0.472c-0.093-0.115-0.231-0.172-0.412-0.172
	c-0.136,0-0.264,0.029-0.384,0.088c-0.117,0.056-0.232,0.133-0.344,0.232v2.96h-1.24v-4.148h0.768c0.155,0,0.256,0.069,0.304,0.208
	L21.483,70.8z M27.298,71.464c-0.093-0.104-0.195-0.176-0.304-0.216c-0.109-0.043-0.224-0.064-0.344-0.064
	c-0.115,0-0.22,0.023-0.316,0.068c-0.096,0.045-0.18,0.119-0.252,0.22c-0.069,0.099-0.124,0.228-0.164,0.388
	c-0.04,0.16-0.06,0.353-0.06,0.58c0,0.219,0.016,0.403,0.048,0.552c0.032,0.149,0.076,0.271,0.132,0.364
	c0.059,0.091,0.128,0.156,0.208,0.196s0.169,0.06,0.268,0.06c0.091,0,0.172-0.008,0.244-0.024c0.075-0.019,0.143-0.044,0.204-0.076
	c0.061-0.032,0.119-0.072,0.172-0.12c0.056-0.051,0.111-0.108,0.164-0.172V71.464z M28.538,68.512V74.5H27.77
	c-0.155,0-0.256-0.069-0.304-0.208l-0.096-0.316c-0.083,0.088-0.169,0.168-0.26,0.24c-0.091,0.072-0.189,0.135-0.296,0.188
	c-0.104,0.051-0.217,0.089-0.34,0.116c-0.12,0.029-0.251,0.044-0.392,0.044c-0.216,0-0.416-0.048-0.6-0.144
	s-0.343-0.235-0.476-0.416c-0.133-0.181-0.239-0.403-0.316-0.664c-0.075-0.264-0.112-0.564-0.112-0.9
	c0-0.309,0.043-0.596,0.128-0.86c0.085-0.267,0.205-0.496,0.36-0.688c0.157-0.195,0.345-0.347,0.564-0.456
	c0.219-0.109,0.46-0.164,0.724-0.164c0.216,0,0.397,0.031,0.544,0.092c0.147,0.061,0.28,0.144,0.4,0.248v-2.1H28.538z
	 M31.168,70.288c0.315,0,0.601,0.049,0.86,0.148c0.259,0.099,0.48,0.24,0.664,0.424c0.187,0.184,0.331,0.408,0.432,0.672
	c0.104,0.261,0.156,0.556,0.156,0.884c0,0.331-0.052,0.629-0.156,0.896c-0.101,0.264-0.245,0.489-0.432,0.676
	c-0.184,0.184-0.405,0.327-0.664,0.428c-0.259,0.099-0.545,0.148-0.86,0.148c-0.317,0-0.607-0.049-0.868-0.148
	c-0.259-0.101-0.483-0.244-0.672-0.428c-0.187-0.187-0.332-0.412-0.436-0.676c-0.101-0.267-0.152-0.565-0.152-0.896
	c0-0.328,0.051-0.623,0.152-0.884c0.104-0.264,0.249-0.488,0.436-0.672c0.189-0.184,0.413-0.325,0.672-0.424
	C30.561,70.337,30.85,70.288,31.168,70.288z M31.168,73.644c0.285,0,0.495-0.1,0.628-0.3C31.932,73.141,32,72.835,32,72.424
	c0-0.411-0.068-0.716-0.204-0.916c-0.133-0.2-0.343-0.3-0.628-0.3c-0.293,0-0.508,0.1-0.644,0.3c-0.136,0.2-0.204,0.505-0.204,0.916
	c0,0.411,0.068,0.717,0.204,0.92C30.66,73.544,30.874,73.644,31.168,73.644z M33.784,74.5v-4.148h0.768
	c0.155,0,0.256,0.069,0.304,0.208l0.068,0.224c0.069-0.072,0.141-0.137,0.216-0.196c0.075-0.061,0.155-0.113,0.24-0.156
	c0.088-0.045,0.181-0.08,0.28-0.104c0.101-0.027,0.212-0.04,0.332-0.04c0.251,0,0.457,0.065,0.62,0.196
	c0.165,0.128,0.291,0.3,0.376,0.516c0.069-0.128,0.153-0.237,0.252-0.328c0.101-0.091,0.209-0.164,0.324-0.22
	c0.117-0.056,0.24-0.097,0.368-0.124c0.131-0.027,0.26-0.04,0.388-0.04c0.237,0,0.448,0.036,0.632,0.108
	c0.184,0.069,0.337,0.172,0.46,0.308c0.125,0.133,0.22,0.299,0.284,0.496c0.064,0.195,0.096,0.416,0.096,0.664V74.5h-1.24v-2.636
	c0-0.429-0.184-0.644-0.552-0.644c-0.168,0-0.308,0.056-0.42,0.168c-0.109,0.109-0.164,0.268-0.164,0.476V74.5h-1.24v-2.636
	c0-0.237-0.047-0.404-0.14-0.5c-0.093-0.096-0.231-0.144-0.412-0.144c-0.112,0-0.219,0.025-0.32,0.076
	c-0.099,0.051-0.192,0.119-0.28,0.204v3H33.784z"/>
<path d="M2.5,40h46v-1h-46V40z M50,41.5v34h1v-34H50z M48.5,77h-46v1h46V77z M1,75.5v-34H0v34H1z M2.5,77C1.672,77,1,76.328,1,75.5
	H0C0,76.881,1.119,78,2.5,78V77z M50,75.5c0,0.828-0.672,1.5-1.5,1.5v1c1.381,0,2.5-1.119,2.5-2.5H50z M48.5,40
	c0.828,0,1.5,0.672,1.5,1.5h1c0-1.381-1.119-2.5-2.5-2.5V40z M2.5,39C1.119,39,0,40.119,0,41.5h1C1,40.672,1.672,40,2.5,40V39z"/>
<path class="st0" d="M0.5,80.5c0-1.105,0.895-2,2-2h46c1.105,0,2,0.895,2,2v34c0,1.105-0.895,2-2,2h-46c-1.105,0-2-0.895-2-2V80.5z"
	/>
<path class="st4" d="M13.776,83.712v1.476h1.992v1.044h-1.992V88.5h-1.36v-5.828h3.752v1.04H13.776z M17.539,84.992
	c0.128-0.224,0.275-0.4,0.44-0.528c0.168-0.128,0.36-0.192,0.576-0.192c0.187,0,0.339,0.044,0.456,0.132l-0.08,0.912
	c-0.013,0.059-0.036,0.099-0.068,0.12c-0.029,0.021-0.071,0.032-0.124,0.032c-0.021,0-0.049-0.001-0.084-0.004
	c-0.035-0.003-0.071-0.005-0.108-0.008c-0.037-0.005-0.076-0.009-0.116-0.012c-0.037-0.005-0.072-0.008-0.104-0.008
	c-0.181,0-0.327,0.048-0.436,0.144c-0.107,0.096-0.197,0.229-0.272,0.4v2.52h-1.24v-4.148h0.736c0.061,0,0.112,0.005,0.152,0.016
	c0.043,0.011,0.077,0.028,0.104,0.052c0.029,0.021,0.051,0.051,0.064,0.088c0.016,0.037,0.029,0.083,0.04,0.136L17.539,84.992z
	 M21.823,85.928c0-0.099-0.013-0.195-0.04-0.288c-0.024-0.093-0.065-0.176-0.124-0.248c-0.056-0.075-0.131-0.135-0.224-0.18
	c-0.093-0.045-0.207-0.068-0.34-0.068c-0.235,0-0.419,0.068-0.552,0.204c-0.133,0.133-0.221,0.327-0.264,0.58H21.823z
	 M20.263,86.648c0.04,0.347,0.145,0.599,0.316,0.756c0.171,0.155,0.391,0.232,0.66,0.232c0.144,0,0.268-0.017,0.372-0.052
	s0.196-0.073,0.276-0.116c0.083-0.043,0.157-0.081,0.224-0.116c0.069-0.035,0.141-0.052,0.216-0.052
	c0.099,0,0.173,0.036,0.224,0.108l0.36,0.444c-0.128,0.147-0.267,0.267-0.416,0.36c-0.147,0.091-0.299,0.163-0.456,0.216
	c-0.155,0.051-0.311,0.085-0.468,0.104c-0.155,0.021-0.303,0.032-0.444,0.032c-0.291,0-0.564-0.047-0.82-0.14
	c-0.253-0.096-0.476-0.237-0.668-0.424c-0.189-0.187-0.34-0.419-0.452-0.696c-0.109-0.277-0.164-0.6-0.164-0.968
	c0-0.277,0.047-0.54,0.14-0.788c0.096-0.248,0.232-0.465,0.408-0.652c0.179-0.187,0.393-0.335,0.644-0.444
	c0.253-0.109,0.539-0.164,0.856-0.164c0.275,0,0.525,0.043,0.752,0.128c0.229,0.085,0.425,0.209,0.588,0.372
	c0.165,0.163,0.293,0.363,0.384,0.6c0.093,0.235,0.14,0.501,0.14,0.8c0,0.093-0.004,0.169-0.012,0.228
	c-0.008,0.059-0.023,0.105-0.044,0.14c-0.021,0.035-0.051,0.059-0.088,0.072c-0.035,0.013-0.08,0.02-0.136,0.02H20.263z
	 M26.016,85.928c0-0.099-0.013-0.195-0.04-0.288c-0.024-0.093-0.065-0.176-0.124-0.248c-0.056-0.075-0.131-0.135-0.224-0.18
	c-0.093-0.045-0.207-0.068-0.34-0.068c-0.235,0-0.419,0.068-0.552,0.204c-0.133,0.133-0.221,0.327-0.264,0.58H26.016z
	 M24.456,86.648c0.04,0.347,0.145,0.599,0.316,0.756c0.171,0.155,0.391,0.232,0.66,0.232c0.144,0,0.268-0.017,0.372-0.052
	S26,87.511,26.08,87.468c0.083-0.043,0.157-0.081,0.224-0.116c0.069-0.035,0.141-0.052,0.216-0.052c0.099,0,0.173,0.036,0.224,0.108
	l0.36,0.444c-0.128,0.147-0.267,0.267-0.416,0.36c-0.147,0.091-0.299,0.163-0.456,0.216c-0.155,0.051-0.311,0.085-0.468,0.104
	c-0.155,0.021-0.303,0.032-0.444,0.032c-0.291,0-0.564-0.047-0.82-0.14c-0.253-0.096-0.476-0.237-0.668-0.424
	c-0.189-0.187-0.34-0.419-0.452-0.696c-0.109-0.277-0.164-0.6-0.164-0.968c0-0.277,0.047-0.54,0.14-0.788
	c0.096-0.248,0.232-0.465,0.408-0.652c0.179-0.187,0.393-0.335,0.644-0.444c0.253-0.109,0.539-0.164,0.856-0.164
	c0.275,0,0.525,0.043,0.752,0.128c0.229,0.085,0.425,0.209,0.588,0.372c0.165,0.163,0.293,0.363,0.384,0.6
	c0.093,0.235,0.14,0.501,0.14,0.8c0,0.093-0.004,0.169-0.012,0.228c-0.008,0.059-0.023,0.105-0.044,0.14
	c-0.021,0.035-0.051,0.059-0.088,0.072c-0.035,0.013-0.08,0.02-0.136,0.02H24.456z M28.788,84.992c0.128-0.224,0.275-0.4,0.44-0.528
	c0.168-0.128,0.36-0.192,0.576-0.192c0.187,0,0.339,0.044,0.456,0.132l-0.08,0.912c-0.013,0.059-0.036,0.099-0.068,0.12
	c-0.029,0.021-0.071,0.032-0.124,0.032c-0.021,0-0.049-0.001-0.084-0.004c-0.035-0.003-0.071-0.005-0.108-0.008
	c-0.037-0.005-0.076-0.009-0.116-0.012c-0.037-0.005-0.072-0.008-0.104-0.008c-0.181,0-0.327,0.048-0.436,0.144
	c-0.107,0.096-0.197,0.229-0.272,0.4v2.52h-1.24v-4.148h0.736c0.061,0,0.112,0.005,0.152,0.016c0.043,0.011,0.077,0.028,0.104,0.052
	c0.029,0.021,0.051,0.051,0.064,0.088c0.016,0.037,0.029,0.083,0.04,0.136L28.788,84.992z M34.283,84.352V88.5h-0.768
	c-0.155,0-0.256-0.069-0.304-0.208l-0.072-0.24c-0.08,0.077-0.163,0.148-0.248,0.212c-0.085,0.061-0.177,0.115-0.276,0.16
	c-0.096,0.043-0.201,0.076-0.316,0.1c-0.112,0.027-0.235,0.04-0.368,0.04c-0.227,0-0.428-0.039-0.604-0.116
	c-0.173-0.08-0.32-0.191-0.44-0.332c-0.12-0.141-0.211-0.308-0.272-0.5c-0.061-0.192-0.092-0.403-0.092-0.632v-2.632h1.24v2.632
	c0,0.205,0.047,0.364,0.14,0.476s0.231,0.168,0.412,0.168c0.136,0,0.263-0.028,0.38-0.084c0.12-0.059,0.236-0.137,0.348-0.236
	v-2.956H34.283z M36.149,84.8c0.08-0.075,0.163-0.144,0.248-0.208c0.085-0.064,0.176-0.117,0.272-0.16
	c0.099-0.045,0.204-0.08,0.316-0.104c0.115-0.027,0.239-0.04,0.372-0.04c0.227,0,0.427,0.04,0.6,0.12
	c0.176,0.077,0.324,0.187,0.444,0.328c0.12,0.139,0.211,0.305,0.272,0.5c0.061,0.192,0.092,0.401,0.092,0.628V88.5h-1.24v-2.636
	c0-0.203-0.047-0.36-0.14-0.472c-0.093-0.115-0.231-0.172-0.412-0.172c-0.136,0-0.264,0.029-0.384,0.088
	c-0.117,0.056-0.232,0.133-0.344,0.232v2.96h-1.24v-4.148h0.768c0.155,0,0.256,0.069,0.304,0.208L36.149,84.8z"/>
<g class="st3">
	<rect x="3" y="90.75" width="45" height="1"/>
</g>
<path class="st4" d="M8.979,97.532h0.216c0.2,0,0.344-0.063,0.432-0.188l1.312-1.904c0.077-0.101,0.16-0.171,0.248-0.208
	c0.091-0.04,0.203-0.06,0.336-0.06h1.176l-1.728,2.356c-0.123,0.163-0.255,0.28-0.396,0.352c0.101,0.037,0.193,0.089,0.276,0.156
	c0.083,0.067,0.16,0.153,0.232,0.26l1.76,2.704h-1.208c-0.077,0-0.144-0.005-0.2-0.016c-0.053-0.011-0.1-0.027-0.14-0.048
	c-0.04-0.021-0.075-0.047-0.104-0.076c-0.029-0.032-0.057-0.068-0.084-0.108l-1.32-2.028c-0.048-0.075-0.109-0.127-0.184-0.156
	c-0.072-0.032-0.171-0.048-0.296-0.048H8.979V101H7.627v-5.828h1.352V97.532z M15.303,98.428c0-0.099-0.013-0.195-0.04-0.288
	c-0.024-0.093-0.065-0.176-0.124-0.248c-0.056-0.075-0.131-0.135-0.224-0.18c-0.093-0.045-0.207-0.068-0.34-0.068
	c-0.235,0-0.419,0.068-0.552,0.204c-0.133,0.133-0.221,0.327-0.264,0.58H15.303z M13.743,99.148c0.04,0.347,0.145,0.599,0.316,0.756
	c0.171,0.155,0.391,0.232,0.66,0.232c0.144,0,0.268-0.017,0.372-0.052c0.104-0.035,0.196-0.073,0.276-0.116
	c0.083-0.043,0.157-0.081,0.224-0.116c0.069-0.035,0.141-0.052,0.216-0.052c0.099,0,0.173,0.036,0.224,0.108l0.36,0.444
	c-0.128,0.147-0.267,0.267-0.416,0.36c-0.147,0.091-0.299,0.163-0.456,0.216c-0.155,0.051-0.311,0.085-0.468,0.104
	c-0.155,0.021-0.303,0.032-0.444,0.032c-0.291,0-0.564-0.047-0.82-0.14c-0.253-0.096-0.476-0.237-0.668-0.424
	c-0.189-0.187-0.34-0.419-0.452-0.696c-0.109-0.277-0.164-0.6-0.164-0.968c0-0.277,0.047-0.54,0.14-0.788
	c0.096-0.248,0.232-0.465,0.408-0.652c0.179-0.187,0.393-0.335,0.644-0.444c0.253-0.109,0.539-0.164,0.856-0.164
	c0.275,0,0.525,0.043,0.752,0.128c0.229,0.085,0.425,0.209,0.588,0.372c0.165,0.163,0.293,0.363,0.384,0.6
	c0.093,0.235,0.14,0.501,0.14,0.8c0,0.093-0.004,0.169-0.012,0.228c-0.008,0.059-0.023,0.105-0.044,0.14
	c-0.021,0.035-0.051,0.059-0.088,0.072c-0.035,0.013-0.08,0.02-0.136,0.02H13.743z M20.722,96.852l-2.216,5.224
	c-0.037,0.083-0.083,0.143-0.136,0.18c-0.053,0.04-0.139,0.06-0.256,0.06h-0.928l0.8-1.68l-1.656-3.784h1.096
	c0.096,0,0.169,0.021,0.22,0.064c0.053,0.043,0.092,0.093,0.116,0.152l0.68,1.788c0.064,0.163,0.116,0.329,0.156,0.5
	c0.029-0.085,0.059-0.171,0.088-0.256c0.029-0.085,0.06-0.169,0.092-0.252l0.616-1.78c0.024-0.061,0.067-0.112,0.128-0.152
	c0.061-0.043,0.128-0.064,0.2-0.064H20.722z M22.451,101.064c-0.197,0-0.372-0.028-0.524-0.084c-0.149-0.059-0.276-0.14-0.38-0.244
	c-0.101-0.107-0.179-0.235-0.232-0.384c-0.053-0.149-0.08-0.316-0.08-0.5v-2.144h-0.352c-0.064,0-0.119-0.02-0.164-0.06
	c-0.045-0.043-0.068-0.104-0.068-0.184V96.98l0.66-0.128l0.244-1.012c0.032-0.128,0.123-0.192,0.272-0.192h0.648v1.212h1.028v0.848
	h-1.028v2.06c0,0.096,0.023,0.176,0.068,0.24c0.048,0.061,0.116,0.092,0.204,0.092c0.045,0,0.083-0.004,0.112-0.012
	c0.032-0.011,0.059-0.021,0.08-0.032c0.024-0.013,0.045-0.024,0.064-0.032c0.021-0.011,0.045-0.016,0.072-0.016
	c0.037,0,0.067,0.009,0.088,0.028c0.024,0.016,0.048,0.043,0.072,0.08l0.376,0.588c-0.16,0.12-0.34,0.211-0.54,0.272
	C22.871,101.035,22.664,101.064,22.451,101.064z M25.077,97.492c0.128-0.224,0.275-0.4,0.44-0.528
	c0.168-0.128,0.36-0.192,0.576-0.192c0.187,0,0.339,0.044,0.456,0.132l-0.08,0.912c-0.013,0.059-0.036,0.099-0.068,0.12
	c-0.029,0.021-0.071,0.032-0.124,0.032c-0.021,0-0.049-0.001-0.084-0.004c-0.035-0.003-0.071-0.005-0.108-0.008
	c-0.037-0.005-0.076-0.009-0.116-0.012c-0.037-0.005-0.072-0.008-0.104-0.008c-0.181,0-0.327,0.048-0.436,0.144
	c-0.107,0.096-0.197,0.229-0.272,0.4V101h-1.24v-4.148h0.736c0.061,0,0.112,0.005,0.152,0.016c0.043,0.011,0.077,0.028,0.104,0.052
	c0.029,0.021,0.051,0.051,0.064,0.088c0.016,0.037,0.029,0.083,0.04,0.136L25.077,97.492z M28.12,96.852V101h-1.24v-4.148H28.12z
	 M28.248,95.716c0,0.099-0.02,0.192-0.06,0.28c-0.04,0.085-0.095,0.161-0.164,0.228c-0.069,0.064-0.151,0.116-0.244,0.156
	c-0.091,0.037-0.188,0.056-0.292,0.056c-0.101,0-0.196-0.019-0.284-0.056c-0.088-0.04-0.167-0.092-0.236-0.156
	c-0.067-0.067-0.12-0.143-0.16-0.228c-0.037-0.088-0.056-0.181-0.056-0.28c0-0.101,0.019-0.196,0.056-0.284
	c0.04-0.088,0.093-0.165,0.16-0.232c0.069-0.067,0.148-0.119,0.236-0.156c0.088-0.037,0.183-0.056,0.284-0.056
	c0.104,0,0.201,0.019,0.292,0.056c0.093,0.037,0.175,0.089,0.244,0.156c0.069,0.067,0.124,0.144,0.164,0.232
	S28.248,95.615,28.248,95.716z M30.445,98.708c0.205,0,0.353-0.051,0.444-0.152c0.093-0.104,0.14-0.237,0.14-0.4
	c0-0.168-0.047-0.3-0.14-0.396c-0.091-0.096-0.239-0.144-0.444-0.144s-0.355,0.048-0.448,0.144
	c-0.091,0.096-0.136,0.228-0.136,0.396c0,0.08,0.011,0.153,0.032,0.22c0.024,0.067,0.06,0.125,0.108,0.176
	c0.048,0.048,0.108,0.087,0.18,0.116C30.256,98.695,30.344,98.708,30.445,98.708z M31.405,101.152c0-0.099-0.044-0.169-0.132-0.212
	c-0.088-0.045-0.203-0.077-0.344-0.096c-0.141-0.019-0.3-0.029-0.476-0.032c-0.173-0.005-0.347-0.016-0.52-0.032
	c-0.077,0.053-0.141,0.113-0.192,0.18c-0.048,0.064-0.072,0.137-0.072,0.22c0,0.059,0.012,0.112,0.036,0.16
	c0.027,0.048,0.072,0.089,0.136,0.124c0.064,0.035,0.149,0.061,0.256,0.08c0.109,0.021,0.247,0.032,0.412,0.032
	c0.179,0,0.325-0.011,0.44-0.032c0.115-0.021,0.205-0.051,0.272-0.088c0.069-0.037,0.117-0.083,0.144-0.136
	C31.392,101.269,31.405,101.213,31.405,101.152z M32.629,96.98v0.452c0,0.069-0.02,0.124-0.06,0.164
	c-0.037,0.04-0.103,0.071-0.196,0.092l-0.3,0.068c0.016,0.059,0.028,0.119,0.036,0.18c0.011,0.061,0.016,0.125,0.016,0.192
	c0,0.208-0.044,0.395-0.132,0.56c-0.085,0.165-0.204,0.307-0.356,0.424c-0.149,0.115-0.327,0.204-0.532,0.268
	c-0.205,0.061-0.425,0.092-0.66,0.092c-0.064,0-0.127-0.001-0.188-0.004c-0.061-0.005-0.121-0.013-0.18-0.024
	c-0.091,0.056-0.136,0.119-0.136,0.188c0,0.069,0.037,0.12,0.112,0.152c0.075,0.029,0.173,0.051,0.296,0.064
	c0.123,0.011,0.261,0.019,0.416,0.024c0.157,0.003,0.317,0.012,0.48,0.028c0.163,0.013,0.321,0.037,0.476,0.072
	c0.157,0.035,0.297,0.091,0.42,0.168c0.123,0.077,0.221,0.181,0.296,0.312c0.075,0.128,0.112,0.292,0.112,0.492
	c0,0.187-0.045,0.369-0.136,0.548c-0.091,0.179-0.224,0.337-0.4,0.476c-0.176,0.139-0.392,0.249-0.648,0.332
	c-0.256,0.085-0.549,0.128-0.88,0.128c-0.325,0-0.607-0.031-0.844-0.092c-0.235-0.061-0.431-0.143-0.588-0.244
	c-0.155-0.099-0.269-0.213-0.344-0.344c-0.075-0.131-0.112-0.267-0.112-0.408c0-0.184,0.053-0.337,0.16-0.46
	c0.107-0.123,0.256-0.221,0.448-0.296c-0.101-0.061-0.181-0.14-0.24-0.236s-0.088-0.22-0.088-0.372c0-0.061,0.011-0.125,0.032-0.192
	c0.021-0.069,0.055-0.136,0.1-0.2c0.048-0.067,0.107-0.129,0.176-0.188c0.069-0.059,0.152-0.111,0.248-0.156
	c-0.216-0.115-0.387-0.265-0.512-0.452c-0.125-0.189-0.188-0.409-0.188-0.66c0-0.208,0.044-0.395,0.132-0.56
	c0.088-0.168,0.208-0.309,0.36-0.424c0.155-0.117,0.336-0.207,0.544-0.268c0.208-0.064,0.433-0.096,0.676-0.096
	c0.352,0,0.664,0.067,0.936,0.2H32.629z M34.606,98.708c0.205,0,0.353-0.051,0.444-0.152c0.093-0.104,0.14-0.237,0.14-0.4
	c0-0.168-0.047-0.3-0.14-0.396c-0.091-0.096-0.239-0.144-0.444-0.144c-0.205,0-0.355,0.048-0.448,0.144
	c-0.091,0.096-0.136,0.228-0.136,0.396c0,0.08,0.011,0.153,0.032,0.22c0.024,0.067,0.06,0.125,0.108,0.176
	c0.048,0.048,0.108,0.087,0.18,0.116C34.417,98.695,34.505,98.708,34.606,98.708z M35.566,101.152c0-0.099-0.044-0.169-0.132-0.212
	c-0.088-0.045-0.203-0.077-0.344-0.096c-0.141-0.019-0.3-0.029-0.476-0.032c-0.173-0.005-0.347-0.016-0.52-0.032
	c-0.077,0.053-0.141,0.113-0.192,0.18c-0.048,0.064-0.072,0.137-0.072,0.22c0,0.059,0.012,0.112,0.036,0.16
	c0.027,0.048,0.072,0.089,0.136,0.124c0.064,0.035,0.149,0.061,0.256,0.08c0.109,0.021,0.247,0.032,0.412,0.032
	c0.179,0,0.325-0.011,0.44-0.032c0.115-0.021,0.205-0.051,0.272-0.088c0.069-0.037,0.117-0.083,0.144-0.136
	C35.553,101.269,35.566,101.213,35.566,101.152z M36.79,96.98v0.452c0,0.069-0.02,0.124-0.06,0.164
	c-0.037,0.04-0.103,0.071-0.196,0.092l-0.3,0.068c0.016,0.059,0.028,0.119,0.036,0.18c0.011,0.061,0.016,0.125,0.016,0.192
	c0,0.208-0.044,0.395-0.132,0.56c-0.085,0.165-0.204,0.307-0.356,0.424c-0.149,0.115-0.327,0.204-0.532,0.268
	c-0.205,0.061-0.425,0.092-0.66,0.092c-0.064,0-0.127-0.001-0.188-0.004c-0.061-0.005-0.121-0.013-0.18-0.024
	c-0.091,0.056-0.136,0.119-0.136,0.188c0,0.069,0.037,0.12,0.112,0.152c0.075,0.029,0.173,0.051,0.296,0.064
	c0.123,0.011,0.261,0.019,0.416,0.024c0.157,0.003,0.317,0.012,0.48,0.028c0.163,0.013,0.321,0.037,0.476,0.072
	c0.157,0.035,0.297,0.091,0.42,0.168c0.123,0.077,0.221,0.181,0.296,0.312c0.075,0.128,0.112,0.292,0.112,0.492
	c0,0.187-0.045,0.369-0.136,0.548c-0.091,0.179-0.224,0.337-0.4,0.476c-0.176,0.139-0.392,0.249-0.648,0.332
	c-0.256,0.085-0.549,0.128-0.88,0.128c-0.325,0-0.607-0.031-0.844-0.092c-0.235-0.061-0.431-0.143-0.588-0.244
	c-0.155-0.099-0.269-0.213-0.344-0.344c-0.075-0.131-0.112-0.267-0.112-0.408c0-0.184,0.053-0.337,0.16-0.46
	c0.107-0.123,0.256-0.221,0.448-0.296c-0.101-0.061-0.181-0.14-0.24-0.236c-0.059-0.096-0.088-0.22-0.088-0.372
	c0-0.061,0.011-0.125,0.032-0.192c0.021-0.069,0.055-0.136,0.1-0.2c0.048-0.067,0.107-0.129,0.176-0.188
	c0.069-0.059,0.152-0.111,0.248-0.156c-0.216-0.115-0.387-0.265-0.512-0.452c-0.125-0.189-0.188-0.409-0.188-0.66
	c0-0.208,0.044-0.395,0.132-0.56c0.088-0.168,0.208-0.309,0.36-0.424c0.155-0.117,0.336-0.207,0.544-0.268
	c0.208-0.064,0.433-0.096,0.676-0.096c0.352,0,0.664,0.067,0.936,0.2H36.79z M39.689,98.428c0-0.099-0.013-0.195-0.04-0.288
	c-0.024-0.093-0.065-0.176-0.124-0.248c-0.056-0.075-0.131-0.135-0.224-0.18c-0.093-0.045-0.207-0.068-0.34-0.068
	c-0.235,0-0.419,0.068-0.552,0.204c-0.133,0.133-0.221,0.327-0.264,0.58H39.689z M38.129,99.148c0.04,0.347,0.145,0.599,0.316,0.756
	c0.171,0.155,0.391,0.232,0.66,0.232c0.144,0,0.268-0.017,0.372-0.052c0.104-0.035,0.196-0.073,0.276-0.116
	c0.083-0.043,0.157-0.081,0.224-0.116c0.069-0.035,0.141-0.052,0.216-0.052c0.099,0,0.173,0.036,0.224,0.108l0.36,0.444
	c-0.128,0.147-0.267,0.267-0.416,0.36c-0.147,0.091-0.299,0.163-0.456,0.216c-0.155,0.051-0.311,0.085-0.468,0.104
	c-0.155,0.021-0.303,0.032-0.444,0.032c-0.291,0-0.564-0.047-0.82-0.14c-0.253-0.096-0.476-0.237-0.668-0.424
	c-0.189-0.187-0.34-0.419-0.452-0.696c-0.109-0.277-0.164-0.6-0.164-0.968c0-0.277,0.047-0.54,0.14-0.788
	c0.096-0.248,0.232-0.465,0.408-0.652c0.179-0.187,0.393-0.335,0.644-0.444c0.253-0.109,0.539-0.164,0.856-0.164
	c0.275,0,0.525,0.043,0.752,0.128c0.229,0.085,0.425,0.209,0.588,0.372c0.165,0.163,0.293,0.363,0.384,0.6
	c0.093,0.235,0.14,0.501,0.14,0.8c0,0.093-0.004,0.169-0.012,0.228c-0.008,0.059-0.023,0.105-0.044,0.14
	c-0.021,0.035-0.051,0.059-0.088,0.072c-0.035,0.013-0.08,0.02-0.136,0.02H38.129z M42.462,97.492c0.128-0.224,0.275-0.4,0.44-0.528
	c0.168-0.128,0.36-0.192,0.576-0.192c0.187,0,0.339,0.044,0.456,0.132l-0.08,0.912c-0.013,0.059-0.036,0.099-0.068,0.12
	c-0.029,0.021-0.071,0.032-0.124,0.032c-0.021,0-0.049-0.001-0.084-0.004c-0.035-0.003-0.071-0.005-0.108-0.008
	c-0.037-0.005-0.076-0.009-0.116-0.012c-0.037-0.005-0.072-0.008-0.104-0.008c-0.181,0-0.327,0.048-0.436,0.144
	c-0.107,0.096-0.197,0.229-0.272,0.4V101h-1.24v-4.148h0.736c0.061,0,0.112,0.005,0.152,0.016c0.043,0.011,0.077,0.028,0.104,0.052
	c0.029,0.021,0.051,0.051,0.064,0.088c0.016,0.037,0.029,0.083,0.04,0.136L42.462,97.492z"/>
<g class="st3">
	<rect x="3" y="103.25" width="45" height="1"/>
</g>
<path class="st1" d="M2.5,106c0-0.552,0.448-1,1-1h44c0.552,0,1,0.448,1,1v8c0,0.552-0.448,1-1,1h-44c-0.552,0-1-0.448-1-1V106z"/>
<path class="st1" d="M3.5,105h44c0.552,0,1,0.448,1,1v8c0,0.552-0.448,1-1,1h-44c-0.552,0-1-0.448-1-1v-8
	C2.5,105.448,2.948,105,3.5,105z"/>
<path class="st2" d="M3.5,105h44c0.552,0,1,0.448,1,1v8c0,0.552-0.448,1-1,1h-44c-0.552,0-1-0.448-1-1v-8
	C2.5,105.448,2.948,105,3.5,105z"/>
<path d="M13.291,110.412c0.184,0,0.34-0.023,0.468-0.068c0.131-0.048,0.237-0.113,0.32-0.196c0.083-0.083,0.143-0.179,0.18-0.288
	c0.037-0.112,0.056-0.232,0.056-0.36c0-0.256-0.084-0.456-0.252-0.6c-0.165-0.144-0.423-0.216-0.772-0.216h-0.544v1.728H13.291z
	 M16.163,113.5h-1.224c-0.227,0-0.389-0.085-0.488-0.256l-0.968-1.692c-0.045-0.072-0.096-0.124-0.152-0.156
	c-0.056-0.035-0.136-0.052-0.24-0.052h-0.344v2.156h-1.352v-5.828h1.896c0.421,0,0.78,0.044,1.076,0.132
	c0.299,0.085,0.541,0.205,0.728,0.36c0.189,0.155,0.327,0.337,0.412,0.548c0.085,0.211,0.128,0.44,0.128,0.688
	c0,0.189-0.025,0.368-0.076,0.536c-0.051,0.168-0.125,0.324-0.224,0.468c-0.099,0.141-0.221,0.268-0.368,0.38
	c-0.144,0.112-0.311,0.204-0.5,0.276c0.088,0.045,0.171,0.103,0.248,0.172c0.077,0.067,0.147,0.147,0.208,0.24L16.163,113.5z
	 M18.459,111.812c-0.248,0.011-0.452,0.032-0.612,0.064s-0.287,0.072-0.38,0.12c-0.093,0.048-0.159,0.103-0.196,0.164
	c-0.035,0.061-0.052,0.128-0.052,0.2c0,0.141,0.039,0.241,0.116,0.3c0.077,0.056,0.191,0.084,0.34,0.084
	c0.16,0,0.3-0.028,0.42-0.084c0.12-0.056,0.241-0.147,0.364-0.272V111.812z M16.227,109.928c0.251-0.221,0.528-0.385,0.832-0.492
	c0.307-0.109,0.635-0.164,0.984-0.164c0.251,0,0.476,0.041,0.676,0.124c0.203,0.08,0.373,0.193,0.512,0.34
	c0.141,0.144,0.249,0.316,0.324,0.516c0.075,0.2,0.112,0.419,0.112,0.656v2.592h-0.568c-0.117,0-0.207-0.016-0.268-0.048
	c-0.059-0.032-0.108-0.099-0.148-0.2l-0.088-0.228c-0.104,0.088-0.204,0.165-0.3,0.232c-0.096,0.067-0.196,0.124-0.3,0.172
	c-0.101,0.045-0.211,0.079-0.328,0.1c-0.115,0.024-0.243,0.036-0.384,0.036c-0.189,0-0.361-0.024-0.516-0.072
	c-0.155-0.051-0.287-0.124-0.396-0.22c-0.107-0.096-0.189-0.215-0.248-0.356c-0.059-0.144-0.088-0.309-0.088-0.496
	c0-0.149,0.037-0.3,0.112-0.452c0.075-0.155,0.204-0.295,0.388-0.42c0.184-0.128,0.432-0.235,0.744-0.32
	c0.312-0.085,0.705-0.133,1.18-0.144v-0.176c0-0.243-0.051-0.417-0.152-0.524c-0.099-0.109-0.24-0.164-0.424-0.164
	c-0.147,0-0.267,0.016-0.36,0.048c-0.093,0.032-0.177,0.068-0.252,0.108c-0.072,0.04-0.143,0.076-0.212,0.108
	c-0.069,0.032-0.152,0.048-0.248,0.048c-0.085,0-0.157-0.021-0.216-0.064c-0.059-0.043-0.107-0.093-0.144-0.152L16.227,109.928z
	 M21.483,109.8c0.08-0.075,0.163-0.144,0.248-0.208c0.085-0.064,0.176-0.117,0.272-0.16c0.099-0.045,0.204-0.08,0.316-0.104
	c0.115-0.027,0.239-0.04,0.372-0.04c0.227,0,0.427,0.04,0.6,0.12c0.176,0.077,0.324,0.187,0.444,0.328
	c0.12,0.139,0.211,0.305,0.272,0.5c0.061,0.192,0.092,0.401,0.092,0.628v2.636h-1.24v-2.636c0-0.203-0.047-0.36-0.14-0.472
	c-0.093-0.115-0.231-0.172-0.412-0.172c-0.136,0-0.264,0.029-0.384,0.088c-0.117,0.056-0.232,0.133-0.344,0.232v2.96h-1.24v-4.148
	h0.768c0.155,0,0.256,0.069,0.304,0.208L21.483,109.8z M27.298,110.464c-0.093-0.104-0.195-0.176-0.304-0.216
	c-0.109-0.043-0.224-0.064-0.344-0.064c-0.115,0-0.22,0.023-0.316,0.068c-0.096,0.045-0.18,0.119-0.252,0.22
	c-0.069,0.099-0.124,0.228-0.164,0.388c-0.04,0.16-0.06,0.353-0.06,0.58c0,0.219,0.016,0.403,0.048,0.552
	c0.032,0.149,0.076,0.271,0.132,0.364c0.059,0.091,0.128,0.156,0.208,0.196s0.169,0.06,0.268,0.06c0.091,0,0.172-0.008,0.244-0.024
	c0.075-0.019,0.143-0.044,0.204-0.076c0.061-0.032,0.119-0.072,0.172-0.12c0.056-0.051,0.111-0.108,0.164-0.172V110.464z
	 M28.538,107.512v5.988H27.77c-0.155,0-0.256-0.069-0.304-0.208l-0.096-0.316c-0.083,0.088-0.169,0.168-0.26,0.24
	c-0.091,0.072-0.189,0.135-0.296,0.188c-0.104,0.051-0.217,0.089-0.34,0.116c-0.12,0.029-0.251,0.044-0.392,0.044
	c-0.216,0-0.416-0.048-0.6-0.144s-0.343-0.235-0.476-0.416c-0.133-0.181-0.239-0.403-0.316-0.664
	c-0.075-0.264-0.112-0.564-0.112-0.9c0-0.309,0.043-0.596,0.128-0.86c0.085-0.267,0.205-0.496,0.36-0.688
	c0.157-0.195,0.345-0.347,0.564-0.456c0.219-0.109,0.46-0.164,0.724-0.164c0.216,0,0.397,0.031,0.544,0.092
	c0.147,0.061,0.28,0.144,0.4,0.248v-2.1H28.538z M31.168,109.288c0.315,0,0.601,0.049,0.86,0.148c0.259,0.099,0.48,0.24,0.664,0.424
	c0.187,0.184,0.331,0.408,0.432,0.672c0.104,0.261,0.156,0.556,0.156,0.884c0,0.331-0.052,0.629-0.156,0.896
	c-0.101,0.264-0.245,0.489-0.432,0.676c-0.184,0.184-0.405,0.327-0.664,0.428c-0.259,0.099-0.545,0.148-0.86,0.148
	c-0.317,0-0.607-0.049-0.868-0.148c-0.259-0.101-0.483-0.244-0.672-0.428c-0.187-0.187-0.332-0.412-0.436-0.676
	c-0.101-0.267-0.152-0.565-0.152-0.896c0-0.328,0.051-0.623,0.152-0.884c0.104-0.264,0.249-0.488,0.436-0.672
	c0.189-0.184,0.413-0.325,0.672-0.424C30.561,109.337,30.85,109.288,31.168,109.288z M31.168,112.644c0.285,0,0.495-0.1,0.628-0.3
	c0.136-0.203,0.204-0.509,0.204-0.92c0-0.411-0.068-0.716-0.204-0.916c-0.133-0.2-0.343-0.3-0.628-0.3c-0.293,0-0.508,0.1-0.644,0.3
	c-0.136,0.2-0.204,0.505-0.204,0.916c0,0.411,0.068,0.717,0.204,0.92C30.66,112.544,30.874,112.644,31.168,112.644z M33.784,113.5
	v-4.148h0.768c0.155,0,0.256,0.069,0.304,0.208l0.068,0.224c0.069-0.072,0.141-0.137,0.216-0.196
	c0.075-0.061,0.155-0.113,0.24-0.156c0.088-0.045,0.181-0.08,0.28-0.104c0.101-0.027,0.212-0.04,0.332-0.04
	c0.251,0,0.457,0.065,0.62,0.196c0.165,0.128,0.291,0.3,0.376,0.516c0.069-0.128,0.153-0.237,0.252-0.328
	c0.101-0.091,0.209-0.164,0.324-0.22c0.117-0.056,0.24-0.097,0.368-0.124c0.131-0.027,0.26-0.04,0.388-0.04
	c0.237,0,0.448,0.036,0.632,0.108c0.184,0.069,0.337,0.172,0.46,0.308c0.125,0.133,0.22,0.299,0.284,0.496
	c0.064,0.195,0.096,0.416,0.096,0.664v2.636h-1.24v-2.636c0-0.429-0.184-0.644-0.552-0.644c-0.168,0-0.308,0.056-0.42,0.168
	c-0.109,0.109-0.164,0.268-0.164,0.476v2.636h-1.24v-2.636c0-0.237-0.047-0.404-0.14-0.5c-0.093-0.096-0.231-0.144-0.412-0.144
	c-0.112,0-0.219,0.025-0.32,0.076c-0.099,0.051-0.192,0.119-0.28,0.204v3H33.784z"/>
<path d="M2.5,79h46v-1h-46V79z M50,80.5v34h1v-34H50z M48.5,116h-46v1h46V116z M1,114.5v-34H0v34H1z M2.5,116
	c-0.828,0-1.5-0.672-1.5-1.5H0c0,1.381,1.119,2.5,2.5,2.5V116z M50,114.5c0,0.828-0.672,1.5-1.5,1.5v1c1.381,0,2.5-1.119,2.5-2.5H50
	z M48.5,79c0.828,0,1.5,0.672,1.5,1.5h1c0-1.381-1.119-2.5-2.5-2.5V79z M2.5,78C1.119,78,0,79.119,0,80.5h1
	C1,79.672,1.672,79,2.5,79V78z"/>
</svg>
