<?xml version="1.0" encoding="utf-8"?>
<!-- Generator: Adobe Illustrator 22.0.0, SVG Export Plug-In . SVG Version: 6.00 Build 0)  -->
<svg version="1.1" baseProfile="basic" id="Layer_1"
	 xmlns="http://www.w3.org/2000/svg" xmlns:xlink="http://www.w3.org/1999/xlink" x="0px" y="0px" width="48px" height="282px"
	 viewBox="0 0 48 282" xml:space="preserve">
<style type="text/css">
	.st0{opacity:0.1;}
	.st1{fill:#EEEEEE;}
	.st2{fill:none;stroke:#EEEEEE;}
	.st3{fill:#1F1F1F;}
	.st4{fill:none;stroke:#000000;}
	.st5{fill:#737373;}
	.st6{fill:#2471DB;}
	.st7{fill:none;stroke:#001E3C;stroke-opacity:0.5;}
</style>
<g class="st0">
	<path class="st1" d="M5,273.5v1h2v-1H5z"/>
	<path class="st1" d="M10,273.5v1h2v-1H10z"/>
	<path class="st1" d="M5,234.5v1h2v-1H5z"/>
	<path class="st1" d="M10,234.5v1h2v-1H10z"/>
	<path class="st1" d="M8.5,230.5c0.3,0,0.5,0.2,0.5,0.5v47c0,0.3-0.2,0.5-0.5,0.5S8,278.3,8,278v-47C8,230.7,8.2,230.5,8.5,230.5z"
		/>
	<path class="st2" d="M8.5,230c0.6,0,1,0.4,1,1v47c0,0.6-0.4,1-1,1l0,0c-0.6,0-1-0.4-1-1v-47C7.5,230.4,7.9,230,8.5,230L8.5,230z"/>
</g>
<path d="M4.5,273v1h2v-1H4.5z"/>
<path d="M9.5,273v1h2v-1H9.5z"/>
<path d="M4.5,234v1h2v-1H4.5z"/>
<path d="M9.5,234v1h2v-1H9.5z"/>
<path class="st3" d="M8,230c0.3,0,0.5,0.2,0.5,0.5v47c0,0.3-0.2,0.5-0.5,0.5s-0.5-0.2-0.5-0.5v-47C7.5,230.2,7.7,230,8,230z"/>
<path class="st4" d="M8,229.5c0.6,0,1,0.4,1,1v47c0,0.6-0.4,1-1,1l0,0c-0.6,0-1-0.4-1-1v-47C7,229.9,7.4,229.5,8,229.5L8,229.5z"/>
<g class="st0">
	<path class="st1" d="M21,273.5v1h2v-1H21z"/>
	<path class="st1" d="M26,273.5v1h2v-1H26z"/>
	<path class="st1" d="M21,234.5v1h2v-1H21z"/>
	<path class="st1" d="M26,234.5v1h2v-1H26z"/>
	<path class="st1" d="M24.5,230.5c0.3,0,0.5,0.2,0.5,0.5v47c0,0.3-0.2,0.5-0.5,0.5S24,278.3,24,278v-47
		C24,230.7,24.2,230.5,24.5,230.5z"/>
	<path class="st2" d="M24.5,230c0.6,0,1,0.4,1,1v47c0,0.6-0.4,1-1,1l0,0c-0.6,0-1-0.4-1-1v-47C23.5,230.4,23.9,230,24.5,230
		L24.5,230z"/>
</g>
<path d="M20.5,273v1h2v-1H20.5z"/>
<path d="M25.5,273v1h2v-1H25.5z"/>
<path d="M20.5,234v1h2v-1H20.5z"/>
<path d="M25.5,234v1h2v-1H25.5z"/>
<path class="st5" d="M24,230c0.3,0,0.5,0.2,0.5,0.5v47c0,0.3-0.2,0.5-0.5,0.5s-0.5-0.2-0.5-0.5v-47C23.5,230.2,23.7,230,24,230z"/>
<path class="st4" d="M24,229.5c0.6,0,1,0.4,1,1v47c0,0.6-0.4,1-1,1l0,0c-0.6,0-1-0.4-1-1v-47C23,229.9,23.4,229.5,24,229.5L24,229.5
	z"/>
<g class="st0">
	<path class="st1" d="M37,273.5v1h2v-1H37z"/>
	<path class="st1" d="M42,273.5v1h2v-1H42z"/>
	<path class="st1" d="M37,234.5v1h2v-1H37z"/>
	<path class="st1" d="M42,234.5v1h2v-1H42z"/>
	<path class="st1" d="M40.5,230.5c0.3,0,0.5,0.2,0.5,0.5v47c0,0.3-0.2,0.5-0.5,0.5S40,278.3,40,278v-47
		C40,230.7,40.2,230.5,40.5,230.5z"/>
	<path class="st2" d="M40.5,230c0.6,0,1,0.4,1,1v47c0,0.6-0.4,1-1,1l0,0c-0.6,0-1-0.4-1-1v-47C39.5,230.4,39.9,230,40.5,230
		L40.5,230z"/>
</g>
<path d="M36.5,273v1h2v-1H36.5z"/>
<path d="M41.5,273v1h2v-1H41.5z"/>
<path d="M36.5,234v1h2v-1H36.5z"/>
<path d="M41.5,234v1h2v-1H41.5z"/>
<path class="st6" d="M40,230c0.3,0,0.5,0.2,0.5,0.5v47c0,0.3-0.2,0.5-0.5,0.5s-0.5-0.2-0.5-0.5v-47C39.5,230.2,39.7,230,40,230z"/>
<path class="st4" d="M40,229.5c0.6,0,1,0.4,1,1v47c0,0.6-0.4,1-1,1l0,0c-0.6,0-1-0.4-1-1v-47C39,229.9,39.4,229.5,40,229.5L40,229.5
	z"/>
<path class="st7" d="M40,229.5c1.1,0,2,0.9,2,2v45c0,1.1-0.9,2-2,2l0,0c-1.1,0-2-0.9-2-2v-45C38,230.4,38.9,229.5,40,229.5L40,229.5
	z"/>
<g class="st0">
	<path class="st1" d="M5,198.5v1h2v-1H5z"/>
	<path class="st1" d="M10,198.5v1h2v-1H10z"/>
	<path class="st1" d="M5,159.5v1h2v-1H5z"/>
	<path class="st1" d="M10,159.5v1h2v-1H10z"/>
	<path class="st1" d="M8.5,155.5c0.3,0,0.5,0.2,0.5,0.5v47c0,0.3-0.2,0.5-0.5,0.5S8,203.3,8,203v-47C8,155.7,8.2,155.5,8.5,155.5z"
		/>
	<path class="st2" d="M8.5,155c0.6,0,1,0.4,1,1v47c0,0.6-0.4,1-1,1l0,0c-0.6,0-1-0.4-1-1v-47C7.5,155.4,7.9,155,8.5,155L8.5,155z"/>
</g>
<path d="M4.5,198v1h2v-1H4.5z"/>
<path d="M9.5,198v1h2v-1H9.5z"/>
<path d="M4.5,159v1h2v-1H4.5z"/>
<path d="M9.5,159v1h2v-1H9.5z"/>
<path class="st3" d="M8,155c0.3,0,0.5,0.2,0.5,0.5v47c0,0.3-0.2,0.5-0.5,0.5s-0.5-0.2-0.5-0.5v-47C7.5,155.2,7.7,155,8,155z"/>
<path class="st4" d="M8,154.5c0.6,0,1,0.4,1,1v47c0,0.6-0.4,1-1,1l0,0c-0.6,0-1-0.4-1-1v-47C7,154.9,7.4,154.5,8,154.5L8,154.5z"/>
<g class="st0">
	<path class="st1" d="M21,198.5v1h2v-1H21z"/>
	<path class="st1" d="M26,198.5v1h2v-1H26z"/>
	<path class="st1" d="M21,159.5v1h2v-1H21z"/>
	<path class="st1" d="M26,159.5v1h2v-1H26z"/>
	<path class="st1" d="M24.5,155.5c0.3,0,0.5,0.2,0.5,0.5v47c0,0.3-0.2,0.5-0.5,0.5S24,203.3,24,203v-47
		C24,155.7,24.2,155.5,24.5,155.5z"/>
	<path class="st2" d="M24.5,155c0.6,0,1,0.4,1,1v47c0,0.6-0.4,1-1,1l0,0c-0.6,0-1-0.4-1-1v-47C23.5,155.4,23.9,155,24.5,155
		L24.5,155z"/>
</g>
<path d="M20.5,198v1h2v-1H20.5z"/>
<path d="M25.5,198v1h2v-1H25.5z"/>
<path d="M20.5,159v1h2v-1H20.5z"/>
<path d="M25.5,159v1h2v-1H25.5z"/>
<path class="st5" d="M24,155c0.3,0,0.5,0.2,0.5,0.5v47c0,0.3-0.2,0.5-0.5,0.5s-0.5-0.2-0.5-0.5v-47C23.5,155.2,23.7,155,24,155z"/>
<path class="st4" d="M24,154.5c0.6,0,1,0.4,1,1v47c0,0.6-0.4,1-1,1l0,0c-0.6,0-1-0.4-1-1v-47C23,154.9,23.4,154.5,24,154.5L24,154.5
	z"/>
<g class="st0">
	<path class="st1" d="M37,198.5v1h2v-1H37z"/>
	<path class="st1" d="M42,198.5v1h2v-1H42z"/>
	<path class="st1" d="M37,159.5v1h2v-1H37z"/>
	<path class="st1" d="M42,159.5v1h2v-1H42z"/>
	<path class="st1" d="M40.5,155.5c0.3,0,0.5,0.2,0.5,0.5v47c0,0.3-0.2,0.5-0.5,0.5S40,203.3,40,203v-47
		C40,155.7,40.2,155.5,40.5,155.5z"/>
	<path class="st2" d="M40.5,155c0.6,0,1,0.4,1,1v47c0,0.6-0.4,1-1,1l0,0c-0.6,0-1-0.4-1-1v-47C39.5,155.4,39.9,155,40.5,155
		L40.5,155z"/>
</g>
<path d="M36.5,198v1h2v-1H36.5z"/>
<path d="M41.5,198v1h2v-1H41.5z"/>
<path d="M36.5,159v1h2v-1H36.5z"/>
<path d="M41.5,159v1h2v-1H41.5z"/>
<path class="st6" d="M40,155c0.3,0,0.5,0.2,0.5,0.5v47c0,0.3-0.2,0.5-0.5,0.5s-0.5-0.2-0.5-0.5v-47C39.5,155.2,39.7,155,40,155z"/>
<path class="st4" d="M40,154.5c0.6,0,1,0.4,1,1v47c0,0.6-0.4,1-1,1l0,0c-0.6,0-1-0.4-1-1v-47C39,154.9,39.4,154.5,40,154.5L40,154.5
	z"/>
<path class="st7" d="M40,154.5c1.1,0,2,0.9,2,2v45c0,1.1-0.9,2-2,2l0,0c-1.1,0-2-0.9-2-2v-45C38,155.4,38.9,154.5,40,154.5L40,154.5
	z"/>
<g class="st0">
	<path class="st1" d="M5,65.5v1h2v-1H5z"/>
	<path class="st1" d="M10,65.5v1h2v-1H10z"/>
	<path class="st1" d="M5,9.5v1h2v-1H5z"/>
	<path class="st1" d="M10,9.5v1h2v-1H10z"/>
	<path class="st1" d="M8.5,5.5C8.8,5.5,9,5.7,9,6v64c0,0.3-0.2,0.5-0.5,0.5S8,70.3,8,70V6C8,5.7,8.2,5.5,8.5,5.5z"/>
	<path class="st2" d="M8.5,5c0.6,0,1,0.4,1,1v64c0,0.6-0.4,1-1,1l0,0c-0.6,0-1-0.4-1-1V6C7.5,5.4,7.9,5,8.5,5L8.5,5z"/>
</g>
<path d="M4.5,65v1h2v-1H4.5z"/>
<path d="M9.5,65v1h2v-1H9.5z"/>
<path d="M4.5,9v1h2V9H4.5z"/>
<path d="M9.5,9v1h2V9H9.5z"/>
<path class="st3" d="M8,5c0.3,0,0.5,0.2,0.5,0.5v64C8.5,69.8,8.3,70,8,70s-0.5-0.2-0.5-0.5v-64C7.5,5.2,7.7,5,8,5z"/>
<path class="st4" d="M8,4.5c0.6,0,1,0.4,1,1v64c0,0.6-0.4,1-1,1l0,0c-0.6,0-1-0.4-1-1v-64C7,4.9,7.4,4.5,8,4.5L8,4.5z"/>
<g class="st0">
	<path class="st1" d="M21,65.5v1h2v-1H21z"/>
	<path class="st1" d="M26,65.5v1h2v-1H26z"/>
	<path class="st1" d="M21,9.5v1h2v-1H21z"/>
	<path class="st1" d="M26,9.5v1h2v-1H26z"/>
	<path class="st1" d="M24.5,5.5C24.8,5.5,25,5.7,25,6v64c0,0.3-0.2,0.5-0.5,0.5S24,70.3,24,70V6C24,5.7,24.2,5.5,24.5,5.5z"/>
	<path class="st2" d="M24.5,5c0.6,0,1,0.4,1,1v64c0,0.6-0.4,1-1,1l0,0c-0.6,0-1-0.4-1-1V6C23.5,5.4,23.9,5,24.5,5L24.5,5z"/>
</g>
<path d="M20.5,65v1h2v-1H20.5z"/>
<path d="M25.5,65v1h2v-1H25.5z"/>
<path d="M20.5,9v1h2V9H20.5z"/>
<path d="M25.5,9v1h2V9H25.5z"/>
<path class="st5" d="M24,5c0.3,0,0.5,0.2,0.5,0.5v64c0,0.3-0.2,0.5-0.5,0.5s-0.5-0.2-0.5-0.5v-64C23.5,5.2,23.7,5,24,5z"/>
<path class="st4" d="M24,4.5c0.6,0,1,0.4,1,1v64c0,0.6-0.4,1-1,1l0,0c-0.6,0-1-0.4-1-1v-64C23,4.9,23.4,4.5,24,4.5L24,4.5z"/>
<g class="st0">
	<path class="st1" d="M37,65.5v1h2v-1H37z"/>
	<path class="st1" d="M42,65.5v1h2v-1H42z"/>
	<path class="st1" d="M37,9.5v1h2v-1H37z"/>
	<path class="st1" d="M42,9.5v1h2v-1H42z"/>
	<path class="st1" d="M40.5,5.5C40.8,5.5,41,5.7,41,6v64c0,0.3-0.2,0.5-0.5,0.5S40,70.3,40,70V6C40,5.7,40.2,5.5,40.5,5.5z"/>
	<path class="st2" d="M40.5,5c0.6,0,1,0.4,1,1v64c0,0.6-0.4,1-1,1l0,0c-0.6,0-1-0.4-1-1V6C39.5,5.4,39.9,5,40.5,5L40.5,5z"/>
</g>
<path d="M36.5,65v1h2v-1H36.5z"/>
<path d="M41.5,65v1h2v-1H41.5z"/>
<path d="M36.5,9v1h2V9H36.5z"/>
<path d="M41.5,9v1h2V9H41.5z"/>
<path class="st6" d="M40,5c0.3,0,0.5,0.2,0.5,0.5v64c0,0.3-0.2,0.5-0.5,0.5s-0.5-0.2-0.5-0.5v-64C39.5,5.2,39.7,5,40,5z"/>
<path class="st4" d="M40,4.5c0.6,0,1,0.4,1,1v64c0,0.6-0.4,1-1,1l0,0c-0.6,0-1-0.4-1-1v-64C39,4.9,39.4,4.5,40,4.5L40,4.5z"/>
<path class="st7" d="M40,4.5c1.1,0,2,0.9,2,2v62c0,1.1-0.9,2-2,2l0,0c-1.1,0-2-0.9-2-2v-62C38,5.4,38.9,4.5,40,4.5L40,4.5z"/>
<g class="st0">
	<path class="st1" d="M5,140.5v1h2v-1H5z"/>
	<path class="st1" d="M10,140.5v1h2v-1H10z"/>
	<path class="st1" d="M5,84.5v1h2v-1H5z"/>
	<path class="st1" d="M10,84.5v1h2v-1H10z"/>
	<path class="st1" d="M8.5,80.5C8.8,80.5,9,80.7,9,81v64c0,0.3-0.2,0.5-0.5,0.5S8,145.3,8,145V81C8,80.7,8.2,80.5,8.5,80.5z"/>
	<path class="st2" d="M8.5,80c0.6,0,1,0.4,1,1v64c0,0.6-0.4,1-1,1l0,0c-0.6,0-1-0.4-1-1V81C7.5,80.4,7.9,80,8.5,80L8.5,80z"/>
</g>
<g class="st0">
	<path class="st1" d="M5.5,113.5v-1H7v1H5.5z"/>
	<path class="st1" d="M10,113.5v-1h1.5v1H10z"/>
	<path class="st1" d="M3,85.5v-1h2v1H3z"/>
	<path class="st1" d="M12,85.5v-1h2v1H12z"/>
	<path class="st1" d="M3,141.5v-1h2v1H3z"/>
	<path class="st1" d="M12,141.5v-1h2v1H12z"/>
</g>
<path d="M5,113v-1h1.5v1H5z"/>
<path d="M9.5,113v-1H11v1H9.5z"/>
<path d="M2.5,85v-1h2v1H2.5z"/>
<path d="M11.5,85v-1h2v1H11.5z"/>
<path d="M2.5,141v-1h2v1H2.5z"/>
<path d="M11.5,141v-1h2v1H11.5z"/>
<path d="M4.5,140v1h2v-1H4.5z"/>
<path d="M9.5,140v1h2v-1H9.5z"/>
<path d="M4.5,84v1h2v-1H4.5z"/>
<path d="M9.5,84v1h2v-1H9.5z"/>
<path class="st3" d="M8,80c0.3,0,0.5,0.2,0.5,0.5v64c0,0.3-0.2,0.5-0.5,0.5s-0.5-0.2-0.5-0.5v-64C7.5,80.2,7.7,80,8,80z"/>
<path class="st4" d="M8,79.5c0.6,0,1,0.4,1,1v64c0,0.6-0.4,1-1,1l0,0c-0.6,0-1-0.4-1-1v-64C7,79.9,7.4,79.5,8,79.5L8,79.5z"/>
<g class="st0">
	<path class="st1" d="M21,140.5v1h2v-1H21z"/>
	<path class="st1" d="M26,140.5v1h2v-1H26z"/>
	<path class="st1" d="M21,84.5v1h2v-1H21z"/>
	<path class="st1" d="M26,84.5v1h2v-1H26z"/>
	<path class="st1" d="M24.5,80.5c0.3,0,0.5,0.2,0.5,0.5v64c0,0.3-0.2,0.5-0.5,0.5S24,145.3,24,145V81C24,80.7,24.2,80.5,24.5,80.5z"
		/>
	<path class="st2" d="M24.5,80c0.6,0,1,0.4,1,1v64c0,0.6-0.4,1-1,1l0,0c-0.6,0-1-0.4-1-1V81C23.5,80.4,23.9,80,24.5,80L24.5,80z"/>
</g>
<g class="st0">
	<path class="st1" d="M21.5,113.5v-1H23v1H21.5z"/>
	<path class="st1" d="M26,113.5v-1h1.5v1H26z"/>
	<path class="st1" d="M19,85.5v-1h2v1H19z"/>
	<path class="st1" d="M28,85.5v-1h2v1H28z"/>
	<path class="st1" d="M19,141.5v-1h2v1H19z"/>
	<path class="st1" d="M28,141.5v-1h2v1H28z"/>
</g>
<path d="M21,113v-1h1.5v1H21z"/>
<path d="M25.5,113v-1H27v1H25.5z"/>
<path d="M18.5,85v-1h2v1H18.5z"/>
<path d="M27.5,85v-1h2v1H27.5z"/>
<path d="M18.5,141v-1h2v1H18.5z"/>
<path d="M27.5,141v-1h2v1H27.5z"/>
<path d="M20.5,140v1h2v-1H20.5z"/>
<path d="M25.5,140v1h2v-1H25.5z"/>
<path d="M20.5,84v1h2v-1H20.5z"/>
<path d="M25.5,84v1h2v-1H25.5z"/>
<path class="st5" d="M24,80c0.3,0,0.5,0.2,0.5,0.5v64c0,0.3-0.2,0.5-0.5,0.5s-0.5-0.2-0.5-0.5v-64C23.5,80.2,23.7,80,24,80z"/>
<path class="st4" d="M24,79.5c0.6,0,1,0.4,1,1v64c0,0.6-0.4,1-1,1l0,0c-0.6,0-1-0.4-1-1v-64C23,79.9,23.4,79.5,24,79.5L24,79.5z"/>
<g class="st0">
	<path class="st1" d="M37,140.5v1h2v-1H37z"/>
	<path class="st1" d="M42,140.5v1h2v-1H42z"/>
	<path class="st1" d="M37,84.5v1h2v-1H37z"/>
	<path class="st1" d="M42,84.5v1h2v-1H42z"/>
	<path class="st1" d="M40.5,80.5c0.3,0,0.5,0.2,0.5,0.5v64c0,0.3-0.2,0.5-0.5,0.5S40,145.3,40,145V81C40,80.7,40.2,80.5,40.5,80.5z"
		/>
	<path class="st2" d="M40.5,80c0.6,0,1,0.4,1,1v64c0,0.6-0.4,1-1,1l0,0c-0.6,0-1-0.4-1-1V81C39.5,80.4,39.9,80,40.5,80L40.5,80z"/>
</g>
<g class="st0">
	<path class="st1" d="M37.5,113.5v-1H39v1H37.5z"/>
	<path class="st1" d="M42,113.5v-1h1.5v1H42z"/>
	<path class="st1" d="M35,85.5v-1h2v1H35z"/>
	<path class="st1" d="M44,85.5v-1h2v1H44z"/>
	<path class="st1" d="M35,141.5v-1h2v1H35z"/>
	<path class="st1" d="M44,141.5v-1h2v1H44z"/>
</g>
<path d="M37,113v-1h1.5v1H37z"/>
<path d="M41.5,113v-1H43v1H41.5z"/>
<path d="M34.5,85v-1h2v1H34.5z"/>
<path d="M43.5,85v-1h2v1H43.5z"/>
<path d="M34.5,141v-1h2v1H34.5z"/>
<path d="M43.5,141v-1h2v1H43.5z"/>
<path d="M36.5,140v1h2v-1H36.5z"/>
<path d="M41.5,140v1h2v-1H41.5z"/>
<path d="M36.5,84v1h2v-1H36.5z"/>
<path d="M41.5,84v1h2v-1H41.5z"/>
<path class="st6" d="M40,80c0.3,0,0.5,0.2,0.5,0.5v64c0,0.3-0.2,0.5-0.5,0.5s-0.5-0.2-0.5-0.5v-64C39.5,80.2,39.7,80,40,80z"/>
<path class="st4" d="M40,79.5c0.6,0,1,0.4,1,1v64c0,0.6-0.4,1-1,1l0,0c-0.6,0-1-0.4-1-1v-64C39,79.9,39.4,79.5,40,79.5L40,79.5z"/>
<path class="st7" d="M40,79.5c1.1,0,2,0.9,2,2v62c0,1.1-0.9,2-2,2l0,0c-1.1,0-2-0.9-2-2v-62C38,80.4,38.9,79.5,40,79.5L40,79.5z"/>
</svg>
