<?xml version="1.0" encoding="utf-8"?>
<!-- Generator: Adobe Illustrator 22.0.0, SVG Export Plug-In . SVG Version: 6.00 Build 0)  -->
<svg version="1.1" baseProfile="basic"
	 id="svg8" inkscape:version="1.1 (c68e22c387, 2021-05-23)" sodipodi:docname="bmp00178.svg" xmlns:inkscape="http://www.inkscape.org/namespaces/inkscape" xmlns:sodipodi="http://sodipodi.sourceforge.net/DTD/sodipodi-0.dtd" xmlns:svg="http://www.w3.org/2000/svg"
	 xmlns="http://www.w3.org/2000/svg" xmlns:xlink="http://www.w3.org/1999/xlink" x="0px" y="0px" width="11px" height="11px"
	 viewBox="0 0 11 11" xml:space="preserve">
<style type="text/css">
	.st0{fill:#595959;}
	.st1{fill:#B4B4B4;}
</style>
<sodipodi:namedview  bordercolor="#666666" borderopacity="1.0" id="namedview10" inkscape:current-layer="svg8" inkscape:cx="5.4933894" inkscape:cy="5.4933894" inkscape:pagecheckerboard="0" inkscape:pageopacity="0.0" inkscape:pageshadow="2" inkscape:window-height="1017" inkscape:window-maximized="1" inkscape:window-width="1920" inkscape:window-x="-8" inkscape:window-y="-8" inkscape:zoom="75.636364" pagecolor="#ffffff" showgrid="false">
	</sodipodi:namedview>
<path id="path2" class="st0" d="M0.5,2.5c0-1.1,0.9-2,2-2h6c1.1,0,2,0.9,2,2v6c0,1.1-0.9,2-2,2h-6c-1.1,0-2-0.9-2-2V2.5z"/>
<path id="path4" d="M2.5,1h6V0h-6V1z M10,2.5v6h1v-6H10z M8.5,10h-6v1h6V10z M1,8.5v-6H0v6H1z M2.5,10C1.7,10,1,9.3,1,8.5H0
	C0,9.9,1.1,11,2.5,11V10z M10,8.5C10,9.3,9.3,10,8.5,10v1C9.9,11,11,9.9,11,8.5H10z M8.5,1C9.3,1,10,1.7,10,2.5h1
	C11,1.1,9.9,0,8.5,0V1z M2.5,0C1.1,0,0,1.1,0,2.5h1C1,1.7,1.7,1,2.5,1V0z"/>
<path id="path6" class="st1" d="M3,3l5,0l0,1L3,4L3,3z M8,5L3,5l0,1l5,0L8,5z M3,7l5,0l0,1L3,8L3,7z"/>
</svg>
