<?xml version="1.0" encoding="utf-8"?>
<!-- Generator: Adobe Illustrator 22.0.0, SVG Export Plug-In . SVG Version: 6.00 Build 0)  -->
<svg version="1.1"
	 id="svg48" inkscape:version="1.1 (c68e22c387, 2021-05-23)" sodipodi:docname="bmp00149.svg" xmlns:inkscape="http://www.inkscape.org/namespaces/inkscape" xmlns:sodipodi="http://sodipodi.sourceforge.net/DTD/sodipodi-0.dtd" xmlns:svg="http://www.w3.org/2000/svg"
	 xmlns="http://www.w3.org/2000/svg" xmlns:xlink="http://www.w3.org/1999/xlink" x="0px" y="0px" width="32px" height="24px"
	 viewBox="0 0 32 24" style="enable-background:new 0 0 32 24;" xml:space="preserve">
<style type="text/css">
	.st0{fill:#595959;}
	.st1{clip-path:url(#SVGID_2_);}
	.st2{fill:#B4B4B4;}
	.st3{opacity:0.75;}
	.st4{clip-path:url(#SVGID_4_);}
	.st5{clip-path:url(#SVGID_6_);}
	.st6{clip-path:url(#SVGID_8_);}
</style>
<sodipodi:namedview  bordercolor="#666666" borderopacity="1.0" id="namedview50" inkscape:current-layer="svg48" inkscape:cx="15.984877" inkscape:cy="11.992439" inkscape:pagecheckerboard="0" inkscape:pageopacity="0.0" inkscape:pageshadow="2" inkscape:window-height="1017" inkscape:window-maximized="1" inkscape:window-width="1920" inkscape:window-x="-8" inkscape:window-y="-8" inkscape:zoom="33.0625" pagecolor="#ffffff" showgrid="false">
	</sodipodi:namedview>
<path id="path2" class="st0" d="M0.5,2.5c0-1.1,0.9-2,2-2h27c1.1,0,2,0.9,2,2v7c0,1.1-0.9,2-2,2h-27c-1.1,0-2-0.9-2-2V2.5z"/>
<path id="path4" d="M2.5,1h27V0h-27V1z M31,2.5v7h1v-7H31z M29.5,11h-27v1h27V11z M1,9.5v-7H0v7H1z M2.5,11C1.7,11,1,10.3,1,9.5H0
	C0,10.9,1.1,12,2.5,12V11z M31,9.5c0,0.8-0.7,1.5-1.5,1.5v1c1.4,0,2.5-1.1,2.5-2.5H31z M29.5,1C30.3,1,31,1.7,31,2.5h1
	C32,1.1,30.9,0,29.5,0V1z M2.5,0C1.1,0,0,1.1,0,2.5h1C1,1.7,1.7,1,2.5,1V0z"/>
<g>
	<defs>
		<path id="SVGID_1_" d="M14,2H4C2.9,2,2,2.9,2,4v4c0,1.1,0.9,2,2,2h10V2z"/>
	</defs>
	<clipPath id="SVGID_2_">
		<use xlink:href="#SVGID_1_"  style="overflow:visible;"/>
	</clipPath>
	<g id="g8" class="st1">
		<path id="path6" class="st2" d="M8,3L4,6l4,3V7h4V5H8V3z"/>
	</g>
</g>
<g id="g12" class="st3">
	<rect id="rect10" x="15.5" y="2" width="1" height="8"/>
</g>
<g>
	<defs>
		<path id="SVGID_3_" d="M18,10h10c1.1,0,2-0.9,2-2V4c0-1.1-0.9-2-2-2H18V10z"/>
	</defs>
	<clipPath id="SVGID_4_">
		<use xlink:href="#SVGID_3_"  style="overflow:visible;"/>
	</clipPath>
	<g id="g16" class="st4">
		<path id="path14" class="st2" d="M24,9l4-3l-4-3v2h-4v2h4V9z"/>
	</g>
</g>
<path id="path18" class="st0" d="M0.5,14.5c0-1.1,0.9-2,2-2h27c1.1,0,2,0.9,2,2v7c0,1.1-0.9,2-2,2h-27c-1.1,0-2-0.9-2-2V14.5z"/>
<path id="path20" d="M2.5,13h27v-1h-27V13z M31,14.5v7h1v-7H31z M29.5,23h-27v1h27V23z M1,21.5v-7H0v7H1z M2.5,23
	C1.7,23,1,22.3,1,21.5H0C0,22.9,1.1,24,2.5,24V23z M31,21.5c0,0.8-0.7,1.5-1.5,1.5v1c1.4,0,2.5-1.1,2.5-2.5H31z M29.5,13
	c0.8,0,1.5,0.7,1.5,1.5h1c0-1.4-1.1-2.5-2.5-2.5V13z M2.5,12C1.1,12,0,13.1,0,14.5h1C1,13.7,1.7,13,2.5,13V12z"/>
<g>
	<defs>
		<path id="SVGID_5_" d="M14,14H4c-1.1,0-2,0.9-2,2v4c0,1.1,0.9,2,2,2h10V14z"/>
	</defs>
	<clipPath id="SVGID_6_">
		<use xlink:href="#SVGID_5_"  style="overflow:visible;"/>
	</clipPath>
	<g id="g24" class="st5">
		<path id="path22" class="st2" d="M8,15l-4,3l4,3v-2h4v-2H8V15z"/>
	</g>
</g>
<g id="g28" class="st3">
	<rect id="rect26" x="15.5" y="14" width="1" height="8"/>
</g>
<g>
	<defs>
		<path id="SVGID_7_" d="M18,22h10c1.1,0,2-0.9,2-2v-4c0-1.1-0.9-2-2-2H18V22z"/>
	</defs>
	<clipPath id="SVGID_8_">
		<use xlink:href="#SVGID_7_"  style="overflow:visible;"/>
	</clipPath>
	<g id="g32" class="st6">
		<path id="path30" class="st2" d="M24,21l4-3l-4-3v2h-4v2h4V21z"/>
	</g>
</g>
</svg>
