<?xml version="1.0" encoding="utf-8"?>
<!-- Generator: Adobe Illustrator 22.0.0, SVG Export Plug-In . SVG Version: 6.00 Build 0)  -->
<svg version="1.1" baseProfile="basic"
	 id="svg34" inkscape:version="1.1 (c68e22c387, 2021-05-23)" sodipodi:docname="bmp00307.svg" xmlns:inkscape="http://www.inkscape.org/namespaces/inkscape" xmlns:sodipodi="http://sodipodi.sourceforge.net/DTD/sodipodi-0.dtd" xmlns:svg="http://www.w3.org/2000/svg"
	 xmlns="http://www.w3.org/2000/svg" xmlns:xlink="http://www.w3.org/1999/xlink" x="0px" y="0px" width="90px" height="28px"
	 viewBox="0 0 90 28" xml:space="preserve">
<style type="text/css">
	.st0{fill:#595959;}
	.st1{fill:#FF9300;}
	.st2{fill:none;stroke:#FF9300;}
	.st3{fill:#000001;}
	.st4{opacity:0.75;}
	.st5{fill:#B4B4B4;}
</style>
<sodipodi:namedview  bordercolor="#666666" borderopacity="1.0" id="namedview36" inkscape:current-layer="svg34" inkscape:cx="44.957465" inkscape:cy="13.993383" inkscape:pagecheckerboard="0" inkscape:pageopacity="0.0" inkscape:pageshadow="2" inkscape:window-height="1017" inkscape:window-maximized="1" inkscape:window-width="1920" inkscape:window-x="-8" inkscape:window-y="-8" inkscape:zoom="11.755556" pagecolor="#ffffff" showgrid="false">
	</sodipodi:namedview>
<path id="path2" class="st0" d="M0.5,2.5c0-1.1,0.9-2,2-2h85c1.1,0,2,0.9,2,2v9c0,1.1-0.9,2-2,2h-85c-1.1,0-2-0.9-2-2V2.5z"/>
<path id="rect4" class="st1" d="M3.5,2.5h39c0.6,0,1,0.4,1,1v7c0,0.6-0.4,1-1,1h-39c-0.6,0-1-0.4-1-1v-7C2.5,2.9,2.9,2.5,3.5,2.5z"
	/>
<path id="rect6" class="st2" d="M3.5,2.5h39c0.6,0,1,0.4,1,1v7c0,0.6-0.4,1-1,1h-39c-0.6,0-1-0.4-1-1v-7C2.5,2.9,2.9,2.5,3.5,2.5z"
	/>
<path id="path8" class="st3" d="M8.8,5.2v1.4h1.8v1H8.8V9h2.4v1H7.4V4.2h3.8v1H8.8z M12.8,6.3c0.1-0.1,0.2-0.1,0.2-0.2
	C13.2,6,13.3,6,13.4,5.9c0.1,0,0.2-0.1,0.3-0.1c0.1,0,0.2,0,0.4,0c0.2,0,0.4,0,0.6,0.1C14.8,6,15,6.1,15.1,6.2
	c0.1,0.1,0.2,0.3,0.3,0.5c0.1,0.2,0.1,0.4,0.1,0.6V10h-1.2V7.4c0-0.2,0-0.4-0.1-0.5c-0.1-0.1-0.2-0.2-0.4-0.2c-0.1,0-0.3,0-0.4,0.1
	C13.2,6.9,13,6.9,12.9,7v3h-1.2V5.9h0.8c0.2,0,0.3,0.1,0.3,0.2L12.8,6.3z M19.9,5.9L18.3,10h-1.1l-1.6-4.1h1c0.1,0,0.2,0,0.2,0.1
	C16.9,6,16.9,6,17,6.1l0.6,1.9c0.1,0.2,0.1,0.3,0.1,0.4c0,0.1,0.1,0.3,0.1,0.4c0.1-0.3,0.1-0.6,0.2-0.9l0.6-1.9
	c0-0.1,0.1-0.1,0.1-0.2c0.1,0,0.1-0.1,0.2-0.1H19.9z M22.7,7.4c0-0.1,0-0.2,0-0.3c0-0.1-0.1-0.2-0.1-0.2c-0.1-0.1-0.1-0.1-0.2-0.2
	c-0.1,0-0.2-0.1-0.3-0.1c-0.2,0-0.4,0.1-0.6,0.2c-0.1,0.1-0.2,0.3-0.3,0.6H22.7z M21.1,8.1c0,0.3,0.1,0.6,0.3,0.8
	c0.2,0.2,0.4,0.2,0.7,0.2c0.1,0,0.3,0,0.4-0.1C22.6,9,22.6,9,22.7,9c0.1,0,0.2-0.1,0.2-0.1c0.1,0,0.1-0.1,0.2-0.1
	c0.1,0,0.2,0,0.2,0.1l0.4,0.4c-0.1,0.1-0.3,0.3-0.4,0.4c-0.1,0.1-0.3,0.2-0.5,0.2C22.7,10,22.6,10,22.4,10c-0.2,0-0.3,0-0.4,0
	c-0.3,0-0.6,0-0.8-0.1c-0.3-0.1-0.5-0.2-0.7-0.4c-0.2-0.2-0.3-0.4-0.5-0.7c-0.1-0.3-0.2-0.6-0.2-1c0-0.3,0-0.5,0.1-0.8
	c0.1-0.2,0.2-0.5,0.4-0.7c0.2-0.2,0.4-0.3,0.6-0.4c0.3-0.1,0.5-0.2,0.9-0.2c0.3,0,0.5,0,0.8,0.1c0.2,0.1,0.4,0.2,0.6,0.4
	c0.2,0.2,0.3,0.4,0.4,0.6c0.1,0.2,0.1,0.5,0.1,0.8c0,0.1,0,0.2,0,0.2c0,0.1,0,0.1,0,0.1c0,0-0.1,0.1-0.1,0.1c0,0-0.1,0-0.1,0H21.1z
	 M25.5,4v6h-1.2V4H25.5z M28.1,5.8c0.3,0,0.6,0,0.9,0.1s0.5,0.2,0.7,0.4C29.9,6.5,30,6.8,30.1,7c0.1,0.3,0.2,0.6,0.2,0.9
	c0,0.3-0.1,0.6-0.2,0.9c-0.1,0.3-0.2,0.5-0.4,0.7c-0.2,0.2-0.4,0.3-0.7,0.4c-0.3,0.1-0.5,0.1-0.9,0.1c-0.3,0-0.6,0-0.9-0.1
	c-0.3-0.1-0.5-0.2-0.7-0.4c-0.2-0.2-0.3-0.4-0.4-0.7C26.1,8.5,26,8.2,26,7.9c0-0.3,0.1-0.6,0.2-0.9c0.1-0.3,0.2-0.5,0.4-0.7
	C26.8,6.2,27,6,27.3,5.9C27.5,5.8,27.8,5.8,28.1,5.8z M28.1,9.1c0.3,0,0.5-0.1,0.6-0.3C28.9,8.6,29,8.3,29,7.9
	c0-0.4-0.1-0.7-0.2-0.9c-0.1-0.2-0.3-0.3-0.6-0.3c-0.3,0-0.5,0.1-0.6,0.3c-0.1,0.2-0.2,0.5-0.2,0.9c0,0.4,0.1,0.7,0.2,0.9
	C27.6,9,27.9,9.1,28.1,9.1z M32,8.9C32.1,9,32.2,9,32.3,9.1c0.1,0,0.2,0.1,0.3,0.1c0.1,0,0.2,0,0.3-0.1s0.2-0.1,0.2-0.2
	c0.1-0.1,0.1-0.2,0.2-0.4s0.1-0.4,0.1-0.6c0-0.2,0-0.4,0-0.6c0-0.1-0.1-0.3-0.1-0.4c-0.1-0.1-0.1-0.2-0.2-0.2
	c-0.1,0-0.2-0.1-0.3-0.1c-0.2,0-0.3,0-0.4,0.1C32.2,6.9,32.1,7,32,7.1V8.9z M31.9,6.4c0.2-0.2,0.3-0.3,0.6-0.4
	c0.2-0.1,0.5-0.2,0.7-0.2c0.2,0,0.4,0,0.6,0.1C34,6,34.2,6.2,34.3,6.3c0.1,0.2,0.2,0.4,0.3,0.7c0.1,0.3,0.1,0.6,0.1,0.9
	c0,0.3,0,0.6-0.1,0.9c-0.1,0.3-0.2,0.5-0.4,0.7c-0.2,0.2-0.3,0.3-0.6,0.5c-0.2,0.1-0.5,0.2-0.7,0.2c-0.2,0-0.4,0-0.5-0.1
	c-0.1-0.1-0.3-0.1-0.4-0.2v1.6h-1.2V5.9h0.8c0.2,0,0.3,0.1,0.3,0.2L31.9,6.4z M37.8,7.4c0-0.1,0-0.2,0-0.3c0-0.1-0.1-0.2-0.1-0.2
	c-0.1-0.1-0.1-0.1-0.2-0.2s-0.2-0.1-0.3-0.1c-0.2,0-0.4,0.1-0.6,0.2c-0.1,0.1-0.2,0.3-0.3,0.6H37.8z M36.3,8.1
	c0,0.3,0.1,0.6,0.3,0.8c0.2,0.2,0.4,0.2,0.7,0.2c0.1,0,0.3,0,0.4-0.1C37.7,9,37.8,9,37.9,9c0.1,0,0.2-0.1,0.2-0.1
	c0.1,0,0.1-0.1,0.2-0.1c0.1,0,0.2,0,0.2,0.1l0.4,0.4c-0.1,0.1-0.3,0.3-0.4,0.4c-0.1,0.1-0.3,0.2-0.5,0.2C37.9,10,37.7,10,37.6,10
	c-0.2,0-0.3,0-0.4,0c-0.3,0-0.6,0-0.8-0.1c-0.3-0.1-0.5-0.2-0.7-0.4c-0.2-0.2-0.3-0.4-0.5-0.7c-0.1-0.3-0.2-0.6-0.2-1
	c0-0.3,0-0.5,0.1-0.8c0.1-0.2,0.2-0.5,0.4-0.7C35.7,6.2,36,6.1,36.2,6c0.3-0.1,0.5-0.2,0.9-0.2c0.3,0,0.5,0,0.8,0.1
	c0.2,0.1,0.4,0.2,0.6,0.4c0.2,0.2,0.3,0.4,0.4,0.6c0.1,0.2,0.1,0.5,0.1,0.8c0,0.1,0,0.2,0,0.2s0,0.1,0,0.1s-0.1,0.1-0.1,0.1
	c0,0-0.1,0-0.1,0H36.3z"/>
<g id="g12" class="st4">
	<rect id="rect10" x="44.5" y="2" width="1" height="10"/>
</g>
<path id="path14" class="st5" d="M63.6,8.9V10h-3.5V4.2h1.4v4.7H63.6z M65.5,5.2v1.5h2v1h-2V10h-1.4V4.2h3.8v1H65.5z M74.2,7.1
	c0,0.4-0.1,0.8-0.2,1.2c-0.1,0.4-0.3,0.7-0.6,0.9c-0.3,0.3-0.6,0.5-1,0.6c-0.4,0.2-0.8,0.2-1.2,0.2c-0.5,0-0.9-0.1-1.2-0.2
	c-0.4-0.2-0.7-0.4-1-0.6c-0.3-0.3-0.5-0.6-0.6-0.9c-0.1-0.4-0.2-0.8-0.2-1.2s0.1-0.8,0.2-1.2C68.6,5.5,68.8,5.2,69,5
	c0.3-0.3,0.6-0.5,1-0.6c0.4-0.2,0.8-0.2,1.2-0.2c0.5,0,0.9,0.1,1.2,0.2c0.4,0.2,0.7,0.4,1,0.6c0.3,0.3,0.5,0.6,0.6,0.9
	C74.2,6.3,74.2,6.7,74.2,7.1z M72.9,7.1c0-0.3,0-0.5-0.1-0.8c-0.1-0.2-0.2-0.4-0.3-0.6c-0.1-0.2-0.3-0.3-0.5-0.4
	c-0.2-0.1-0.4-0.1-0.7-0.1c-0.3,0-0.5,0-0.7,0.1c-0.2,0.1-0.4,0.2-0.5,0.4c-0.1,0.2-0.2,0.4-0.3,0.6c-0.1,0.2-0.1,0.5-0.1,0.8
	c0,0.3,0,0.6,0.1,0.8c0.1,0.2,0.2,0.4,0.3,0.6c0.1,0.2,0.3,0.3,0.5,0.4c0.2,0.1,0.4,0.1,0.7,0.1c0.3,0,0.5,0,0.7-0.1
	c0.2-0.1,0.4-0.2,0.5-0.4c0.1-0.2,0.2-0.4,0.3-0.6C72.8,7.6,72.9,7.4,72.9,7.1z"/>
<path id="path16" d="M2.5,1h85V0h-85V1z M89,2.5v9h1v-9H89z M87.5,13h-85v1h85V13z M1,11.5v-9H0v9H1z M2.5,13C1.7,13,1,12.3,1,11.5
	H0C0,12.9,1.1,14,2.5,14V13z M89,11.5c0,0.8-0.7,1.5-1.5,1.5v1c1.4,0,2.5-1.1,2.5-2.5H89z M87.5,1C88.3,1,89,1.7,89,2.5h1
	C90,1.1,88.9,0,87.5,0V1z M2.5,0C1.1,0,0,1.1,0,2.5h1C1,1.7,1.7,1,2.5,1V0z"/>
<path id="path18" class="st0" d="M0.5,16.5c0-1.1,0.9-2,2-2h85c1.1,0,2,0.9,2,2v9c0,1.1-0.9,2-2,2h-85c-1.1,0-2-0.9-2-2V16.5z"/>
<path id="path20" class="st5" d="M8.8,19.2v1.4h1.8v1H8.8V23h2.4v1H7.4v-5.8h3.8v1H8.8z M12.8,20.3c0.1-0.1,0.2-0.1,0.2-0.2
	c0.1-0.1,0.2-0.1,0.3-0.2c0.1,0,0.2-0.1,0.3-0.1c0.1,0,0.2,0,0.4,0c0.2,0,0.4,0,0.6,0.1c0.2,0.1,0.3,0.2,0.4,0.3
	c0.1,0.1,0.2,0.3,0.3,0.5c0.1,0.2,0.1,0.4,0.1,0.6V24h-1.2v-2.6c0-0.2,0-0.4-0.1-0.5c-0.1-0.1-0.2-0.2-0.4-0.2c-0.1,0-0.3,0-0.4,0.1
	c-0.1,0.1-0.2,0.1-0.3,0.2v3h-1.2v-4.1h0.8c0.2,0,0.3,0.1,0.3,0.2L12.8,20.3z M19.9,19.9L18.3,24h-1.1l-1.6-4.1h1
	c0.1,0,0.2,0,0.2,0.1c0.1,0,0.1,0.1,0.1,0.2l0.6,1.9c0.1,0.2,0.1,0.3,0.1,0.4c0,0.1,0.1,0.3,0.1,0.4c0.1-0.3,0.1-0.6,0.2-0.9
	l0.6-1.9c0-0.1,0.1-0.1,0.1-0.2c0.1,0,0.1-0.1,0.2-0.1H19.9z M22.7,21.4c0-0.1,0-0.2,0-0.3c0-0.1-0.1-0.2-0.1-0.2
	c-0.1-0.1-0.1-0.1-0.2-0.2c-0.1,0-0.2-0.1-0.3-0.1c-0.2,0-0.4,0.1-0.6,0.2c-0.1,0.1-0.2,0.3-0.3,0.6H22.7z M21.1,22.1
	c0,0.3,0.1,0.6,0.3,0.8c0.2,0.2,0.4,0.2,0.7,0.2c0.1,0,0.3,0,0.4-0.1s0.2-0.1,0.3-0.1c0.1,0,0.2-0.1,0.2-0.1c0.1,0,0.1-0.1,0.2-0.1
	c0.1,0,0.2,0,0.2,0.1l0.4,0.4c-0.1,0.1-0.3,0.3-0.4,0.4c-0.1,0.1-0.3,0.2-0.5,0.2C22.7,24,22.6,24,22.4,24c-0.2,0-0.3,0-0.4,0
	c-0.3,0-0.6,0-0.8-0.1c-0.3-0.1-0.5-0.2-0.7-0.4c-0.2-0.2-0.3-0.4-0.5-0.7c-0.1-0.3-0.2-0.6-0.2-1c0-0.3,0-0.5,0.1-0.8
	c0.1-0.2,0.2-0.5,0.4-0.7c0.2-0.2,0.4-0.3,0.6-0.4c0.3-0.1,0.5-0.2,0.9-0.2c0.3,0,0.5,0,0.8,0.1c0.2,0.1,0.4,0.2,0.6,0.4
	c0.2,0.2,0.3,0.4,0.4,0.6c0.1,0.2,0.1,0.5,0.1,0.8c0,0.1,0,0.2,0,0.2c0,0.1,0,0.1,0,0.1c0,0-0.1,0.1-0.1,0.1c0,0-0.1,0-0.1,0H21.1z
	 M25.5,18v6h-1.2v-6H25.5z M28.1,19.8c0.3,0,0.6,0,0.9,0.1c0.3,0.1,0.5,0.2,0.7,0.4c0.2,0.2,0.3,0.4,0.4,0.7
	c0.1,0.3,0.2,0.6,0.2,0.9c0,0.3-0.1,0.6-0.2,0.9c-0.1,0.3-0.2,0.5-0.4,0.7c-0.2,0.2-0.4,0.3-0.7,0.4c-0.3,0.1-0.5,0.1-0.9,0.1
	c-0.3,0-0.6,0-0.9-0.1c-0.3-0.1-0.5-0.2-0.7-0.4c-0.2-0.2-0.3-0.4-0.4-0.7c-0.1-0.3-0.2-0.6-0.2-0.9c0-0.3,0.1-0.6,0.2-0.9
	c0.1-0.3,0.2-0.5,0.4-0.7c0.2-0.2,0.4-0.3,0.7-0.4C27.5,19.8,27.8,19.8,28.1,19.8z M28.1,23.1c0.3,0,0.5-0.1,0.6-0.3
	c0.1-0.2,0.2-0.5,0.2-0.9s-0.1-0.7-0.2-0.9c-0.1-0.2-0.3-0.3-0.6-0.3c-0.3,0-0.5,0.1-0.6,0.3c-0.1,0.2-0.2,0.5-0.2,0.9
	s0.1,0.7,0.2,0.9C27.6,23,27.9,23.1,28.1,23.1z M32,22.9c0.1,0.1,0.2,0.2,0.3,0.2c0.1,0,0.2,0.1,0.3,0.1c0.1,0,0.2,0,0.3-0.1
	s0.2-0.1,0.2-0.2c0.1-0.1,0.1-0.2,0.2-0.4s0.1-0.4,0.1-0.6c0-0.2,0-0.4,0-0.6c0-0.1-0.1-0.3-0.1-0.4c-0.1-0.1-0.1-0.2-0.2-0.2
	c-0.1,0-0.2-0.1-0.3-0.1c-0.2,0-0.3,0-0.4,0.1c-0.1,0.1-0.2,0.2-0.3,0.3V22.9z M31.9,20.4c0.2-0.2,0.3-0.3,0.6-0.4
	c0.2-0.1,0.5-0.2,0.7-0.2c0.2,0,0.4,0,0.6,0.1c0.2,0.1,0.3,0.2,0.5,0.4c0.1,0.2,0.2,0.4,0.3,0.7c0.1,0.3,0.1,0.6,0.1,0.9
	c0,0.3,0,0.6-0.1,0.9c-0.1,0.3-0.2,0.5-0.4,0.7c-0.2,0.2-0.3,0.3-0.6,0.5c-0.2,0.1-0.5,0.2-0.7,0.2c-0.2,0-0.4,0-0.5-0.1
	c-0.1-0.1-0.3-0.1-0.4-0.2v1.6h-1.2v-5.5h0.8c0.2,0,0.3,0.1,0.3,0.2L31.9,20.4z M37.8,21.4c0-0.1,0-0.2,0-0.3c0-0.1-0.1-0.2-0.1-0.2
	c-0.1-0.1-0.1-0.1-0.2-0.2s-0.2-0.1-0.3-0.1c-0.2,0-0.4,0.1-0.6,0.2c-0.1,0.1-0.2,0.3-0.3,0.6H37.8z M36.3,22.1
	c0,0.3,0.1,0.6,0.3,0.8c0.2,0.2,0.4,0.2,0.7,0.2c0.1,0,0.3,0,0.4-0.1s0.2-0.1,0.3-0.1c0.1,0,0.2-0.1,0.2-0.1c0.1,0,0.1-0.1,0.2-0.1
	c0.1,0,0.2,0,0.2,0.1l0.4,0.4c-0.1,0.1-0.3,0.3-0.4,0.4c-0.1,0.1-0.3,0.2-0.5,0.2C37.9,24,37.7,24,37.6,24c-0.2,0-0.3,0-0.4,0
	c-0.3,0-0.6,0-0.8-0.1c-0.3-0.1-0.5-0.2-0.7-0.4c-0.2-0.2-0.3-0.4-0.5-0.7c-0.1-0.3-0.2-0.6-0.2-1c0-0.3,0-0.5,0.1-0.8
	c0.1-0.2,0.2-0.5,0.4-0.7c0.2-0.2,0.4-0.3,0.6-0.4c0.3-0.1,0.5-0.2,0.9-0.2c0.3,0,0.5,0,0.8,0.1c0.2,0.1,0.4,0.2,0.6,0.4
	c0.2,0.2,0.3,0.4,0.4,0.6c0.1,0.2,0.1,0.5,0.1,0.8c0,0.1,0,0.2,0,0.2s0,0.1,0,0.1s-0.1,0.1-0.1,0.1c0,0-0.1,0-0.1,0H36.3z"/>
<g id="g24" class="st4">
	<rect id="rect22" x="44.5" y="16" width="1" height="10"/>
</g>
<path id="rect26" class="st1" d="M47.5,16.5h39c0.6,0,1,0.4,1,1v7c0,0.6-0.4,1-1,1h-39c-0.6,0-1-0.4-1-1v-7
	C46.5,16.9,46.9,16.5,47.5,16.5z"/>
<path id="rect28" class="st2" d="M47.5,16.5h39c0.6,0,1,0.4,1,1v7c0,0.6-0.4,1-1,1h-39c-0.6,0-1-0.4-1-1v-7
	C46.5,16.9,46.9,16.5,47.5,16.5z"/>
<path id="path30" class="st3" d="M63.6,22.9V24h-3.5v-5.8h1.4v4.7H63.6z M65.5,19.2v1.5h2v1h-2V24h-1.4v-5.8h3.8v1H65.5z M74.2,21.1
	c0,0.4-0.1,0.8-0.2,1.2c-0.1,0.4-0.3,0.7-0.6,0.9c-0.3,0.3-0.6,0.5-1,0.6c-0.4,0.2-0.8,0.2-1.2,0.2c-0.5,0-0.9-0.1-1.2-0.2
	c-0.4-0.2-0.7-0.4-1-0.6c-0.3-0.3-0.5-0.6-0.6-0.9c-0.1-0.4-0.2-0.8-0.2-1.2c0-0.4,0.1-0.8,0.2-1.2c0.1-0.4,0.4-0.7,0.6-0.9
	c0.3-0.3,0.6-0.5,1-0.6c0.4-0.2,0.8-0.2,1.2-0.2c0.5,0,0.9,0.1,1.2,0.2c0.4,0.2,0.7,0.4,1,0.6c0.3,0.3,0.5,0.6,0.6,0.9
	C74.2,20.3,74.2,20.7,74.2,21.1z M72.9,21.1c0-0.3,0-0.5-0.1-0.8c-0.1-0.2-0.2-0.4-0.3-0.6c-0.1-0.2-0.3-0.3-0.5-0.4
	c-0.2-0.1-0.4-0.1-0.7-0.1c-0.3,0-0.5,0-0.7,0.1c-0.2,0.1-0.4,0.2-0.5,0.4c-0.1,0.2-0.2,0.4-0.3,0.6c-0.1,0.2-0.1,0.5-0.1,0.8
	c0,0.3,0,0.6,0.1,0.8c0.1,0.2,0.2,0.4,0.3,0.6c0.1,0.2,0.3,0.3,0.5,0.4c0.2,0.1,0.4,0.1,0.7,0.1c0.3,0,0.5,0,0.7-0.1
	c0.2-0.1,0.4-0.2,0.5-0.4c0.1-0.2,0.2-0.4,0.3-0.6C72.8,21.6,72.9,21.4,72.9,21.1z"/>
<path id="path32" d="M2.5,15h85v-1h-85V15z M89,16.5v9h1v-9H89z M87.5,27h-85v1h85V27z M1,25.5v-9H0v9H1z M2.5,27
	C1.7,27,1,26.3,1,25.5H0C0,26.9,1.1,28,2.5,28V27z M89,25.5c0,0.8-0.7,1.5-1.5,1.5v1c1.4,0,2.5-1.1,2.5-2.5H89z M87.5,15
	c0.8,0,1.5,0.7,1.5,1.5h1c0-1.4-1.1-2.5-2.5-2.5V15z M2.5,14C1.1,14,0,15.1,0,16.5h1C1,15.7,1.7,15,2.5,15V14z"/>
</svg>
