<?xml version="1.0" encoding="utf-8"?>
<!-- Generator: Adobe Illustrator 22.0.0, SVG Export Plug-In . SVG Version: 6.00 Build 0)  -->
<svg version="1.1" baseProfile="basic" id="Layer_1"
	 xmlns="http://www.w3.org/2000/svg" xmlns:xlink="http://www.w3.org/1999/xlink" x="0px" y="0px" width="43px" height="14px"
	 viewBox="0 0 43 14" xml:space="preserve">
<style type="text/css">
	.st0{fill:#399DFF;}
	.st1{fill:none;stroke:#399DFF;}
</style>
<path class="st0" d="M4.5,3.5h34c0.6,0,1,0.4,1,1v5c0,0.6-0.4,1-1,1h-34c-0.6,0-1-0.4-1-1v-5C3.5,3.9,3.9,3.5,4.5,3.5z"/>
<path class="st1" d="M4.5,3.5h34c0.6,0,1,0.4,1,1v5c0,0.6-0.4,1-1,1h-34c-0.6,0-1-0.4-1-1v-5C3.5,3.9,3.9,3.5,4.5,3.5z"/>
</svg>
