<?xml version="1.0" encoding="utf-8"?>
<!-- Generator: Adobe Illustrator 22.0.0, SVG Export Plug-In . SVG Version: 6.00 Build 0)  -->
<svg version="1.1" baseProfile="basic" id="Layer_1"
	 xmlns="http://www.w3.org/2000/svg" xmlns:xlink="http://www.w3.org/1999/xlink" x="0px" y="0px" width="50px" height="15px"
	 viewBox="0 0 50 15" xml:space="preserve">
<style type="text/css">
	.st0{fill:#399DFF;}
	.st1{fill:none;stroke:#399DFF;}
	.st2{fill:#FFFFFF;}
	.st3{fill:#FF9000;}
</style>
<path class="st0" d="M3.5,2.5h43c0.6,0,1,0.4,1,1v8c0,0.6-0.4,1-1,1h-43c-0.6,0-1-0.4-1-1v-8C2.5,2.9,2.9,2.5,3.5,2.5z"/>
<path class="st1" d="M3.5,2.5h43c0.6,0,1,0.4,1,1v8c0,0.6-0.4,1-1,1h-43c-0.6,0-1-0.4-1-1v-8C2.5,2.9,2.9,2.5,3.5,2.5z"/>
<path class="st2" d="M25.4,3.7V11h-1.5V6.8c0-0.1,0-0.2,0-0.3c0-0.1,0-0.2,0-0.3L22,9.9c-0.1,0.1-0.1,0.2-0.2,0.3
	c-0.1,0.1-0.2,0.1-0.3,0.1h-0.2c-0.1,0-0.2,0-0.4-0.1c-0.1-0.1-0.2-0.1-0.2-0.3l-1.9-3.8c0,0.1,0,0.2,0,0.4c0,0.1,0,0.2,0,0.3V11
	h-1.5V3.7h1.3c0.1,0,0.1,0,0.2,0c0.1,0,0.1,0,0.1,0c0,0,0.1,0,0.1,0.1c0,0,0.1,0.1,0.1,0.1l1.9,3.7c0.1,0.1,0.1,0.3,0.2,0.4
	c0.1,0.1,0.1,0.3,0.2,0.4c0.1-0.1,0.1-0.3,0.2-0.4c0.1-0.1,0.1-0.3,0.2-0.4L23.6,4c0-0.1,0.1-0.1,0.1-0.1c0,0,0.1-0.1,0.1-0.1
	s0.1,0,0.1,0c0.1,0,0.1,0,0.2,0H25.4z M29.7,7.8c0-0.1,0-0.2-0.1-0.4c0-0.1-0.1-0.2-0.2-0.3c-0.1-0.1-0.2-0.2-0.3-0.2
	c-0.1-0.1-0.3-0.1-0.4-0.1c-0.3,0-0.5,0.1-0.7,0.3c-0.2,0.2-0.3,0.4-0.3,0.7H29.7z M27.8,8.7c0,0.4,0.2,0.7,0.4,0.9
	c0.2,0.2,0.5,0.3,0.8,0.3c0.2,0,0.3,0,0.5-0.1c0.1,0,0.2-0.1,0.3-0.1c0.1-0.1,0.2-0.1,0.3-0.1c0.1,0,0.2-0.1,0.3-0.1
	c0.1,0,0.2,0,0.3,0.1l0.4,0.6c-0.2,0.2-0.3,0.3-0.5,0.5c-0.2,0.1-0.4,0.2-0.6,0.3C29.8,11,29.6,11,29.4,11c-0.2,0-0.4,0-0.6,0
	c-0.4,0-0.7-0.1-1-0.2c-0.3-0.1-0.6-0.3-0.8-0.5c-0.2-0.2-0.4-0.5-0.6-0.9c-0.1-0.3-0.2-0.8-0.2-1.2c0-0.3,0.1-0.7,0.2-1
	c0.1-0.3,0.3-0.6,0.5-0.8c0.2-0.2,0.5-0.4,0.8-0.6c0.3-0.1,0.7-0.2,1.1-0.2c0.3,0,0.7,0.1,0.9,0.2C30,6,30.2,6.2,30.4,6.4
	c0.2,0.2,0.4,0.5,0.5,0.8c0.1,0.3,0.2,0.6,0.2,1c0,0.1,0,0.2,0,0.3c0,0.1,0,0.1-0.1,0.2c0,0-0.1,0.1-0.1,0.1c0,0-0.1,0-0.2,0H27.8z
	 M33.3,6.4c0.1-0.1,0.2-0.2,0.3-0.3C33.7,6,33.8,6,33.9,5.9c0.1-0.1,0.3-0.1,0.4-0.1c0.1,0,0.3,0,0.5,0c0.3,0,0.5,0,0.8,0.2
	C35.8,6,36,6.1,36.1,6.3c0.1,0.2,0.3,0.4,0.3,0.6c0.1,0.2,0.1,0.5,0.1,0.8V11H35V7.7c0-0.3-0.1-0.4-0.2-0.6
	c-0.1-0.1-0.3-0.2-0.5-0.2c-0.2,0-0.3,0-0.5,0.1c-0.1,0.1-0.3,0.2-0.4,0.3V11h-1.6V5.8h1c0.2,0,0.3,0.1,0.4,0.3L33.3,6.4z M42.2,5.8
	V11h-1c-0.2,0-0.3-0.1-0.4-0.3l-0.1-0.3c-0.1,0.1-0.2,0.2-0.3,0.3c-0.1,0.1-0.2,0.1-0.3,0.2C40,11,39.9,11,39.7,11
	c-0.1,0-0.3,0.1-0.5,0.1c-0.3,0-0.5,0-0.8-0.1c-0.2-0.1-0.4-0.2-0.6-0.4c-0.1-0.2-0.3-0.4-0.3-0.6c-0.1-0.2-0.1-0.5-0.1-0.8V5.8h1.5
	v3.3c0,0.3,0.1,0.5,0.2,0.6c0.1,0.1,0.3,0.2,0.5,0.2c0.2,0,0.3,0,0.5-0.1c0.1-0.1,0.3-0.2,0.4-0.3V5.8H42.2z"/>
<path class="st3" d="M11.1,4.8l2.1,1.1V3.8H6.2c-0.3,0-0.6,0.2-0.6,0.4v4.2L7,8.7c0.1,0,0.1,0,0.2-0.1l0.4-1c0-0.1,0.1-0.1,0.2-0.1
	l3.4,1.8c0.1,0.1,0,0.2-0.1,0.2L8.4,9C8.4,9,8.3,9,8.3,9l-0.3,1c0,0.1-0.1,0.1-0.2,0.1L5.6,9v2.3h6.9c0.3,0,0.6-0.2,0.6-0.5V6.5
	l-1.4-0.3c-0.1,0-0.1,0-0.2,0.1l-0.4,1c0,0.1-0.1,0.1-0.2,0.1L7.6,5.6c-0.1-0.1,0-0.2,0.1-0.2l2.6,0.6c0.1,0,0.1,0,0.2-0.1l0.4-1
	C10.9,4.8,11,4.8,11.1,4.8z"/>
</svg>
