<?xml version="1.0" encoding="utf-8"?>
<!-- Generator: Adobe Illustrator 22.0.0, SVG Export Plug-In . SVG Version: 6.00 Build 0)  -->
<svg version="1.1" baseProfile="basic" id="Layer_1"
	 xmlns="http://www.w3.org/2000/svg" xmlns:xlink="http://www.w3.org/1999/xlink" x="0px" y="0px" width="45px" height="18px"
	 viewBox="0 0 45 18" xml:space="preserve">
<style type="text/css">
	.st0{fill:#399DFF;}
	.st1{fill:none;stroke:#399DFF;}
	.st2{fill:#FFFFFF;}
	.st3{fill:#FF9300;}
	.st4{fill:none;stroke:#FFFFFF;}
</style>
<path class="st0" d="M1.5,0.5h42c0.6,0,1,0.4,1,1v6c0,0.6-0.4,1-1,1h-42c-0.6,0-1-0.4-1-1v-6C0.5,0.9,0.9,0.5,1.5,0.5z"/>
<path class="st1" d="M1.5,0.5h42c0.6,0,1,0.4,1,1v6c0,0.6-0.4,1-1,1h-42c-0.6,0-1-0.4-1-1v-6C0.5,0.9,0.9,0.5,1.5,0.5z"/>
<path class="st2" d="M3.5,4.9c0.2,0,0.3,0,0.5-0.1c0.1,0,0.2-0.1,0.3-0.2c0.1-0.1,0.1-0.2,0.2-0.3c0-0.1,0.1-0.2,0.1-0.4
	c0-0.3-0.1-0.5-0.3-0.6C4.1,3.3,3.9,3.2,3.5,3.2H3v1.7H3.5z M6.4,8H5.2C4.9,8,4.8,7.9,4.7,7.7l-1-1.7c0-0.1-0.1-0.1-0.2-0.2
	c-0.1,0-0.1-0.1-0.2-0.1H3V8H1.6V2.2h1.9c0.4,0,0.8,0,1.1,0.1c0.3,0.1,0.5,0.2,0.7,0.4C5.5,2.8,5.6,3,5.7,3.2
	c0.1,0.2,0.1,0.4,0.1,0.7c0,0.2,0,0.4-0.1,0.5C5.7,4.6,5.6,4.8,5.6,4.9C5.5,5,5.3,5.2,5.2,5.3C5,5.4,4.9,5.5,4.7,5.6
	c0.1,0,0.2,0.1,0.2,0.2C5,5.8,5.1,5.9,5.1,6L6.4,8z M8.1,3.2v1.4h1.8v1H8.1V7h2.4v1H6.7V2.2h3.8v1H8.1z M15.4,3.2h-1.6V8h-1.4V3.2
	h-1.6V2.2h4.6V3.2z M17.9,4.9c0.2,0,0.3,0,0.5-0.1c0.1,0,0.2-0.1,0.3-0.2c0.1-0.1,0.1-0.2,0.2-0.3c0-0.1,0.1-0.2,0.1-0.4
	c0-0.3-0.1-0.5-0.3-0.6c-0.2-0.1-0.4-0.2-0.8-0.2h-0.5v1.7H17.9z M20.7,8h-1.2c-0.2,0-0.4-0.1-0.5-0.3l-1-1.7C18,6,18,5.9,17.9,5.9
	c-0.1,0-0.1-0.1-0.2-0.1h-0.3V8H16V2.2h1.9c0.4,0,0.8,0,1.1,0.1c0.3,0.1,0.5,0.2,0.7,0.4C19.9,2.8,20,3,20.1,3.2
	c0.1,0.2,0.1,0.4,0.1,0.7c0,0.2,0,0.4-0.1,0.5c-0.1,0.2-0.1,0.3-0.2,0.5c-0.1,0.1-0.2,0.3-0.4,0.4c-0.1,0.1-0.3,0.2-0.5,0.3
	c0.1,0,0.2,0.1,0.2,0.2c0.1,0.1,0.1,0.1,0.2,0.2L20.7,8z M22.5,8h-1.4V2.2h1.4V8z M26.3,5h2.1v2.5c-0.3,0.2-0.6,0.4-1,0.5
	c-0.3,0.1-0.7,0.1-1.1,0.1c-0.5,0-0.9-0.1-1.3-0.2c-0.4-0.2-0.7-0.4-1-0.6c-0.3-0.3-0.5-0.6-0.6-0.9c-0.2-0.4-0.2-0.8-0.2-1.2
	c0-0.4,0.1-0.8,0.2-1.2c0.1-0.4,0.3-0.7,0.6-0.9c0.3-0.3,0.6-0.5,1-0.6c0.4-0.1,0.8-0.2,1.3-0.2c0.2,0,0.5,0,0.7,0.1
	c0.2,0,0.4,0.1,0.6,0.2c0.2,0.1,0.3,0.2,0.5,0.2c0.1,0.1,0.3,0.2,0.4,0.3L28,3.5c-0.1,0.1-0.1,0.2-0.2,0.2c-0.1,0-0.2,0-0.3-0.1
	c-0.1-0.1-0.2-0.1-0.3-0.2c-0.1,0-0.2-0.1-0.3-0.1c-0.1,0-0.2-0.1-0.3-0.1c-0.1,0-0.2,0-0.4,0c-0.3,0-0.5,0-0.7,0.1
	c-0.2,0.1-0.4,0.2-0.5,0.4c-0.1,0.2-0.3,0.4-0.3,0.6c-0.1,0.2-0.1,0.5-0.1,0.8c0,0.3,0,0.6,0.1,0.8c0.1,0.2,0.2,0.4,0.4,0.6
	c0.2,0.2,0.3,0.3,0.6,0.4C25.8,7,26,7,26.3,7c0.2,0,0.3,0,0.4,0c0.1,0,0.3-0.1,0.4-0.1V6h-0.6c-0.1,0-0.2,0-0.2-0.1
	s-0.1-0.1-0.1-0.2V5z M31.9,5H34v2.5c-0.3,0.2-0.6,0.4-1,0.5C32.7,8,32.4,8.1,32,8.1c-0.5,0-0.9-0.1-1.3-0.2c-0.4-0.2-0.7-0.4-1-0.6
	c-0.3-0.3-0.5-0.6-0.6-0.9c-0.2-0.4-0.2-0.8-0.2-1.2c0-0.4,0.1-0.8,0.2-1.2c0.1-0.4,0.3-0.7,0.6-0.9c0.3-0.3,0.6-0.5,1-0.6
	c0.4-0.1,0.8-0.2,1.3-0.2c0.2,0,0.5,0,0.7,0.1s0.4,0.1,0.6,0.2c0.2,0.1,0.3,0.2,0.5,0.2c0.1,0.1,0.3,0.2,0.4,0.3l-0.4,0.6
	c-0.1,0.1-0.1,0.2-0.2,0.2c-0.1,0-0.2,0-0.3-0.1c-0.1-0.1-0.2-0.1-0.3-0.2c-0.1,0-0.2-0.1-0.3-0.1c-0.1,0-0.2-0.1-0.3-0.1
	c-0.1,0-0.2,0-0.4,0c-0.3,0-0.5,0-0.7,0.1c-0.2,0.1-0.4,0.2-0.5,0.4c-0.1,0.2-0.3,0.4-0.3,0.6c-0.1,0.2-0.1,0.5-0.1,0.8
	c0,0.3,0,0.6,0.1,0.8c0.1,0.2,0.2,0.4,0.4,0.6c0.2,0.2,0.3,0.3,0.6,0.4C31.4,7,31.7,7,32,7c0.2,0,0.3,0,0.4,0c0.1,0,0.3-0.1,0.4-0.1
	V6h-0.6c-0.1,0-0.2,0-0.2-0.1s-0.1-0.1-0.1-0.2V5z M36.2,3.2v1.4H38v1h-1.8V7h2.4v1h-3.8V2.2h3.8v1H36.2z M41.2,4.9
	c0.2,0,0.3,0,0.5-0.1c0.1,0,0.2-0.1,0.3-0.2c0.1-0.1,0.1-0.2,0.2-0.3c0-0.1,0.1-0.2,0.1-0.4c0-0.3-0.1-0.5-0.3-0.6
	c-0.2-0.1-0.4-0.2-0.8-0.2h-0.5v1.7H41.2z M44,8h-1.2c-0.2,0-0.4-0.1-0.5-0.3l-1-1.7c0-0.1-0.1-0.1-0.2-0.2c-0.1,0-0.1-0.1-0.2-0.1
	h-0.3V8h-1.4V2.2h1.9c0.4,0,0.8,0,1.1,0.1c0.3,0.1,0.5,0.2,0.7,0.4c0.2,0.2,0.3,0.3,0.4,0.5c0.1,0.2,0.1,0.4,0.1,0.7
	c0,0.2,0,0.4-0.1,0.5c-0.1,0.2-0.1,0.3-0.2,0.5C43.1,5,43,5.2,42.8,5.3c-0.1,0.1-0.3,0.2-0.5,0.3c0.1,0,0.2,0.1,0.2,0.2
	c0.1,0.1,0.1,0.1,0.2,0.2L44,8z"/>
<path class="st3" d="M1.5,9.5h42c0.6,0,1,0.4,1,1v6c0,0.6-0.4,1-1,1h-42c-0.6,0-1-0.4-1-1v-6C0.5,9.9,0.9,9.5,1.5,9.5z"/>
<path class="st4" d="M1.5,9.5h42c0.6,0,1,0.4,1,1v6c0,0.6-0.4,1-1,1h-42c-0.6,0-1-0.4-1-1v-6C0.5,9.9,0.9,9.5,1.5,9.5z"/>
<path d="M3.5,13.9c0.2,0,0.3,0,0.5-0.1c0.1,0,0.2-0.1,0.3-0.2c0.1-0.1,0.1-0.2,0.2-0.3c0-0.1,0.1-0.2,0.1-0.4c0-0.3-0.1-0.5-0.3-0.6
	c-0.2-0.1-0.4-0.2-0.8-0.2H3v1.7H3.5z M6.4,17H5.2c-0.2,0-0.4-0.1-0.5-0.3l-1-1.7c0-0.1-0.1-0.1-0.2-0.2c-0.1,0-0.1-0.1-0.2-0.1H3
	V17H1.6v-5.8h1.9c0.4,0,0.8,0,1.1,0.1c0.3,0.1,0.5,0.2,0.7,0.4c0.2,0.2,0.3,0.3,0.4,0.5c0.1,0.2,0.1,0.4,0.1,0.7
	c0,0.2,0,0.4-0.1,0.5c-0.1,0.2-0.1,0.3-0.2,0.5c-0.1,0.1-0.2,0.3-0.4,0.4c-0.1,0.1-0.3,0.2-0.5,0.3c0.1,0,0.2,0.1,0.2,0.2
	C5,14.8,5.1,14.9,5.1,15L6.4,17z M8.1,12.2v1.4h1.8v1H8.1V16h2.4v1H6.7v-5.8h3.8v1H8.1z M15.4,12.2h-1.6V17h-1.4v-4.8h-1.6v-1.1h4.6
	V12.2z M17.9,13.9c0.2,0,0.3,0,0.5-0.1c0.1,0,0.2-0.1,0.3-0.2c0.1-0.1,0.1-0.2,0.2-0.3c0-0.1,0.1-0.2,0.1-0.4c0-0.3-0.1-0.5-0.3-0.6
	c-0.2-0.1-0.4-0.2-0.8-0.2h-0.5v1.7H17.9z M20.7,17h-1.2c-0.2,0-0.4-0.1-0.5-0.3l-1-1.7c0-0.1-0.1-0.1-0.2-0.2
	c-0.1,0-0.1-0.1-0.2-0.1h-0.3V17H16v-5.8h1.9c0.4,0,0.8,0,1.1,0.1c0.3,0.1,0.5,0.2,0.7,0.4c0.2,0.2,0.3,0.3,0.4,0.5
	c0.1,0.2,0.1,0.4,0.1,0.7c0,0.2,0,0.4-0.1,0.5c-0.1,0.2-0.1,0.3-0.2,0.5c-0.1,0.1-0.2,0.3-0.4,0.4c-0.1,0.1-0.3,0.2-0.5,0.3
	c0.1,0,0.2,0.1,0.2,0.2c0.1,0.1,0.1,0.1,0.2,0.2L20.7,17z M22.5,17h-1.4v-5.8h1.4V17z M26.3,14h2.1v2.5c-0.3,0.2-0.6,0.4-1,0.5
	c-0.3,0.1-0.7,0.1-1.1,0.1c-0.5,0-0.9-0.1-1.3-0.2c-0.4-0.2-0.7-0.4-1-0.6c-0.3-0.3-0.5-0.6-0.6-0.9c-0.2-0.4-0.2-0.8-0.2-1.2
	c0-0.4,0.1-0.8,0.2-1.2c0.1-0.4,0.3-0.7,0.6-0.9c0.3-0.3,0.6-0.5,1-0.6c0.4-0.1,0.8-0.2,1.3-0.2c0.2,0,0.5,0,0.7,0.1
	c0.2,0,0.4,0.1,0.6,0.2c0.2,0.1,0.3,0.2,0.5,0.2c0.1,0.1,0.3,0.2,0.4,0.3L28,12.5c-0.1,0.1-0.1,0.2-0.2,0.2c-0.1,0-0.2,0-0.3-0.1
	c-0.1-0.1-0.2-0.1-0.3-0.2c-0.1,0-0.2-0.1-0.3-0.1c-0.1,0-0.2-0.1-0.3-0.1c-0.1,0-0.2,0-0.4,0c-0.3,0-0.5,0-0.7,0.1
	c-0.2,0.1-0.4,0.2-0.5,0.4c-0.1,0.2-0.3,0.4-0.3,0.6c-0.1,0.2-0.1,0.5-0.1,0.8c0,0.3,0,0.6,0.1,0.8c0.1,0.2,0.2,0.4,0.4,0.6
	c0.2,0.2,0.3,0.3,0.6,0.4C25.8,16,26,16,26.3,16c0.2,0,0.3,0,0.4,0c0.1,0,0.3-0.1,0.4-0.1V15h-0.6c-0.1,0-0.2,0-0.2-0.1
	c0,0-0.1-0.1-0.1-0.2V14z M31.9,14H34v2.5c-0.3,0.2-0.6,0.4-1,0.5c-0.3,0.1-0.7,0.1-1.1,0.1c-0.5,0-0.9-0.1-1.3-0.2
	c-0.4-0.2-0.7-0.4-1-0.6c-0.3-0.3-0.5-0.6-0.6-0.9c-0.2-0.4-0.2-0.8-0.2-1.2c0-0.4,0.1-0.8,0.2-1.2c0.1-0.4,0.3-0.7,0.6-0.9
	c0.3-0.3,0.6-0.5,1-0.6c0.4-0.1,0.8-0.2,1.3-0.2c0.2,0,0.5,0,0.7,0.1s0.4,0.1,0.6,0.2c0.2,0.1,0.3,0.2,0.5,0.2s0.3,0.2,0.4,0.3
	l-0.4,0.6c-0.1,0.1-0.1,0.2-0.2,0.2c-0.1,0-0.2,0-0.3-0.1c-0.1-0.1-0.2-0.1-0.3-0.2c-0.1,0-0.2-0.1-0.3-0.1c-0.1,0-0.2-0.1-0.3-0.1
	c-0.1,0-0.2,0-0.4,0c-0.3,0-0.5,0-0.7,0.1c-0.2,0.1-0.4,0.2-0.5,0.4c-0.1,0.2-0.3,0.4-0.3,0.6c-0.1,0.2-0.1,0.5-0.1,0.8
	c0,0.3,0,0.6,0.1,0.8c0.1,0.2,0.2,0.4,0.4,0.6c0.2,0.2,0.3,0.3,0.6,0.4C31.4,16,31.7,16,32,16c0.2,0,0.3,0,0.4,0
	c0.1,0,0.3-0.1,0.4-0.1V15h-0.6c-0.1,0-0.2,0-0.2-0.1c0,0-0.1-0.1-0.1-0.2V14z M36.2,12.2v1.4H38v1h-1.8V16h2.4v1h-3.8v-5.8h3.8v1
	H36.2z M41.2,13.9c0.2,0,0.3,0,0.5-0.1c0.1,0,0.2-0.1,0.3-0.2c0.1-0.1,0.1-0.2,0.2-0.3c0-0.1,0.1-0.2,0.1-0.4c0-0.3-0.1-0.5-0.3-0.6
	c-0.2-0.1-0.4-0.2-0.8-0.2h-0.5v1.7H41.2z M44,17h-1.2c-0.2,0-0.4-0.1-0.5-0.3l-1-1.7c0-0.1-0.1-0.1-0.2-0.2c-0.1,0-0.1-0.1-0.2-0.1
	h-0.3V17h-1.4v-5.8h1.9c0.4,0,0.8,0,1.1,0.1c0.3,0.1,0.5,0.2,0.7,0.4c0.2,0.2,0.3,0.3,0.4,0.5c0.1,0.2,0.1,0.4,0.1,0.7
	c0,0.2,0,0.4-0.1,0.5c-0.1,0.2-0.1,0.3-0.2,0.5c-0.1,0.1-0.2,0.3-0.4,0.4c-0.1,0.1-0.3,0.2-0.5,0.3c0.1,0,0.2,0.1,0.2,0.2
	c0.1,0.1,0.1,0.1,0.2,0.2L44,17z"/>
</svg>
