<?xml version="1.0" encoding="utf-8"?>
<!-- Generator: Adobe Illustrator 22.0.0, SVG Export Plug-In . SVG Version: 6.00 Build 0)  -->
<svg version="1.1" baseProfile="basic" id="Layer_1"
	 xmlns="http://www.w3.org/2000/svg" xmlns:xlink="http://www.w3.org/1999/xlink" x="0px" y="0px" width="31px" height="24px"
	 viewBox="0 0 31 24" xml:space="preserve">
<style type="text/css">
	.st0{fill:#399DFF;}
	.st1{fill:none;stroke:#399DFF;}
	.st2{fill:#FFFFFF;}
	.st3{fill:#FF9300;}
	.st4{fill:none;stroke:#FFFFFF;}
</style>
<path class="st0" d="M3.5,2.5h24c0.6,0,1,0.4,1,1v5c0,0.6-0.4,1-1,1h-24c-0.6,0-1-0.4-1-1v-5C2.5,2.9,2.9,2.5,3.5,2.5z"/>
<path class="st1" d="M3.5,2.5h24c0.6,0,1,0.4,1,1v5c0,0.6-0.4,1-1,1h-24c-0.6,0-1-0.4-1-1v-5C2.5,2.9,2.9,2.5,3.5,2.5z"/>
<path class="st2" d="M11.6,4.2H10V9H8.6V4.2H7V3.2h4.6V4.2z M15.1,4.9V9h-0.8c-0.2,0-0.3-0.1-0.3-0.2l-0.1-0.2
	c-0.1,0.1-0.2,0.1-0.2,0.2c-0.1,0.1-0.2,0.1-0.3,0.2C13.3,9,13.2,9,13.1,9c-0.1,0-0.2,0-0.4,0c-0.2,0-0.4,0-0.6-0.1
	c-0.2-0.1-0.3-0.2-0.4-0.3c-0.1-0.1-0.2-0.3-0.3-0.5c-0.1-0.2-0.1-0.4-0.1-0.6V4.9h1.2v2.6c0,0.2,0,0.4,0.1,0.5
	c0.1,0.1,0.2,0.2,0.4,0.2c0.1,0,0.3,0,0.4-0.1c0.1-0.1,0.2-0.1,0.3-0.2v-3H15.1z M17,5.3c0.1-0.1,0.2-0.1,0.2-0.2
	C17.3,5,17.4,5,17.5,4.9c0.1,0,0.2-0.1,0.3-0.1c0.1,0,0.2,0,0.4,0c0.2,0,0.4,0,0.6,0.1c0.2,0.1,0.3,0.2,0.4,0.3
	c0.1,0.1,0.2,0.3,0.3,0.5c0.1,0.2,0.1,0.4,0.1,0.6V9h-1.2V6.4c0-0.2,0-0.4-0.1-0.5c-0.1-0.1-0.2-0.2-0.4-0.2c-0.1,0-0.3,0-0.4,0.1
	C17.3,5.9,17.2,5.9,17,6v3h-1.2V4.9h0.8c0.2,0,0.3,0.1,0.3,0.2L17,5.3z M22.8,6.4c0-0.1,0-0.2,0-0.3c0-0.1-0.1-0.2-0.1-0.2
	c-0.1-0.1-0.1-0.1-0.2-0.2c-0.1,0-0.2-0.1-0.3-0.1c-0.2,0-0.4,0.1-0.6,0.2c-0.1,0.1-0.2,0.3-0.3,0.6H22.8z M21.3,7.1
	c0,0.3,0.1,0.6,0.3,0.8c0.2,0.2,0.4,0.2,0.7,0.2c0.1,0,0.3,0,0.4-0.1C22.7,8,22.8,8,22.9,8c0.1,0,0.2-0.1,0.2-0.1
	c0.1,0,0.1-0.1,0.2-0.1c0.1,0,0.2,0,0.2,0.1l0.4,0.4c-0.1,0.1-0.3,0.3-0.4,0.4c-0.1,0.1-0.3,0.2-0.5,0.2C22.9,9,22.7,9,22.6,9
	c-0.2,0-0.3,0-0.4,0c-0.3,0-0.6,0-0.8-0.1c-0.3-0.1-0.5-0.2-0.7-0.4c-0.2-0.2-0.3-0.4-0.5-0.7c-0.1-0.3-0.2-0.6-0.2-1
	c0-0.3,0-0.5,0.1-0.8c0.1-0.2,0.2-0.5,0.4-0.7C20.8,5.2,21,5.1,21.2,5c0.3-0.1,0.5-0.2,0.9-0.2c0.3,0,0.5,0,0.8,0.1
	c0.2,0.1,0.4,0.2,0.6,0.4c0.2,0.2,0.3,0.4,0.4,0.6c0.1,0.2,0.1,0.5,0.1,0.8c0,0.1,0,0.2,0,0.2s0,0.1,0,0.1c0,0-0.1,0.1-0.1,0.1
	c0,0-0.1,0-0.1,0H21.3z"/>
<path class="st3" d="M2.5,13.5h26c0.6,0,1,0.4,1,1v7c0,0.6-0.4,1-1,1h-26c-0.6,0-1-0.4-1-1v-7C1.5,13.9,1.9,13.5,2.5,13.5z"/>
<path class="st4" d="M2.5,13.5h26c0.6,0,1,0.4,1,1v7c0,0.6-0.4,1-1,1h-26c-0.6,0-1-0.4-1-1v-7C1.5,13.9,1.9,13.5,2.5,13.5z"/>
<path d="M11.6,16.2H10V21H8.6v-4.8H7v-1.1h4.6V16.2z M15.1,16.9V21h-0.8c-0.2,0-0.3-0.1-0.3-0.2l-0.1-0.2c-0.1,0.1-0.2,0.1-0.2,0.2
	c-0.1,0.1-0.2,0.1-0.3,0.2c-0.1,0-0.2,0.1-0.3,0.1c-0.1,0-0.2,0-0.4,0c-0.2,0-0.4,0-0.6-0.1c-0.2-0.1-0.3-0.2-0.4-0.3
	c-0.1-0.1-0.2-0.3-0.3-0.5c-0.1-0.2-0.1-0.4-0.1-0.6v-2.6h1.2v2.6c0,0.2,0,0.4,0.1,0.5c0.1,0.1,0.2,0.2,0.4,0.2c0.1,0,0.3,0,0.4-0.1
	c0.1-0.1,0.2-0.1,0.3-0.2v-3H15.1z M17,17.3c0.1-0.1,0.2-0.1,0.2-0.2c0.1-0.1,0.2-0.1,0.3-0.2c0.1,0,0.2-0.1,0.3-0.1
	c0.1,0,0.2,0,0.4,0c0.2,0,0.4,0,0.6,0.1c0.2,0.1,0.3,0.2,0.4,0.3c0.1,0.1,0.2,0.3,0.3,0.5c0.1,0.2,0.1,0.4,0.1,0.6V21h-1.2v-2.6
	c0-0.2,0-0.4-0.1-0.5c-0.1-0.1-0.2-0.2-0.4-0.2c-0.1,0-0.3,0-0.4,0.1c-0.1,0.1-0.2,0.1-0.3,0.2v3h-1.2v-4.1h0.8
	c0.2,0,0.3,0.1,0.3,0.2L17,17.3z M22.8,18.4c0-0.1,0-0.2,0-0.3c0-0.1-0.1-0.2-0.1-0.2c-0.1-0.1-0.1-0.1-0.2-0.2
	c-0.1,0-0.2-0.1-0.3-0.1c-0.2,0-0.4,0.1-0.6,0.2c-0.1,0.1-0.2,0.3-0.3,0.6H22.8z M21.3,19.1c0,0.3,0.1,0.6,0.3,0.8
	c0.2,0.2,0.4,0.2,0.7,0.2c0.1,0,0.3,0,0.4-0.1s0.2-0.1,0.3-0.1c0.1,0,0.2-0.1,0.2-0.1c0.1,0,0.1-0.1,0.2-0.1c0.1,0,0.2,0,0.2,0.1
	l0.4,0.4c-0.1,0.1-0.3,0.3-0.4,0.4c-0.1,0.1-0.3,0.2-0.5,0.2C22.9,21,22.7,21,22.6,21c-0.2,0-0.3,0-0.4,0c-0.3,0-0.6,0-0.8-0.1
	c-0.3-0.1-0.5-0.2-0.7-0.4c-0.2-0.2-0.3-0.4-0.5-0.7c-0.1-0.3-0.2-0.6-0.2-1c0-0.3,0-0.5,0.1-0.8c0.1-0.2,0.2-0.5,0.4-0.7
	c0.2-0.2,0.4-0.3,0.6-0.4c0.3-0.1,0.5-0.2,0.9-0.2c0.3,0,0.5,0,0.8,0.1c0.2,0.1,0.4,0.2,0.6,0.4c0.2,0.2,0.3,0.4,0.4,0.6
	c0.1,0.2,0.1,0.5,0.1,0.8c0,0.1,0,0.2,0,0.2s0,0.1,0,0.1c0,0-0.1,0.1-0.1,0.1c0,0-0.1,0-0.1,0H21.3z"/>
</svg>
