<?xml version="1.0" encoding="utf-8"?>
<!-- Generator: Adobe Illustrator 22.0.0, SVG Export Plug-In . SVG Version: 6.00 Build 0)  -->
<svg version="1.1" baseProfile="basic" id="Layer_1"
	 xmlns="http://www.w3.org/2000/svg" xmlns:xlink="http://www.w3.org/1999/xlink" x="0px" y="0px" width="134px" height="416px"
	 viewBox="0 0 134 416" xml:space="preserve">
<style type="text/css">
	.st0{fill:#FF9300;}
	.st1{fill:none;stroke:#FFFFFF;}
</style>
<path class="st0" d="M3,44h13c0.6,0,1,0.4,1,1v4c0,0.6-0.4,1-1,1H3c-0.6,0-1-0.4-1-1v-4C2,44.4,2.4,44,3,44z"/>
<path class="st1" d="M3,44h13c0.6,0,1,0.4,1,1v4c0,0.6-0.4,1-1,1H3c-0.6,0-1-0.4-1-1v-4C2,44.4,2.4,44,3,44z"/>
<path d="M8.9,45.4c0,0.1-0.1,0.1-0.1,0.1c0,0-0.1,0-0.1,0c-0.1,0-0.1,0-0.2,0c-0.1,0-0.1-0.1-0.2-0.1c-0.1,0-0.2-0.1-0.3-0.1
	c-0.1,0-0.2-0.1-0.3-0.1c-0.2,0-0.4,0-0.5,0.1C7,45.5,7,45.6,7,45.8c0,0.1,0,0.2,0.1,0.3s0.2,0.1,0.3,0.2c0.1,0,0.2,0.1,0.4,0.1
	c0.1,0,0.3,0.1,0.4,0.1c0.1,0,0.3,0.1,0.4,0.2c0.1,0.1,0.3,0.2,0.4,0.3C9,47,9.1,47.2,9.2,47.3c0.1,0.1,0.1,0.3,0.1,0.5
	c0,0.2,0,0.5-0.1,0.7s-0.2,0.4-0.4,0.5c-0.2,0.2-0.3,0.3-0.6,0.4c-0.2,0.1-0.5,0.1-0.8,0.1c-0.2,0-0.3,0-0.5,0
	c-0.2,0-0.3-0.1-0.5-0.1c-0.2-0.1-0.3-0.1-0.4-0.2c-0.1-0.1-0.3-0.2-0.4-0.3L6,48.3c0,0,0.1-0.1,0.1-0.1c0,0,0.1,0,0.2,0
	c0.1,0,0.1,0,0.2,0.1c0.1,0,0.2,0.1,0.2,0.1c0.1,0.1,0.2,0.1,0.3,0.1c0.1,0,0.3,0.1,0.4,0.1c0.2,0,0.4,0,0.5-0.1
	c0.1-0.1,0.2-0.2,0.2-0.5c0-0.1,0-0.2-0.1-0.3c-0.1-0.1-0.2-0.1-0.3-0.2c-0.1,0-0.2-0.1-0.4-0.1c-0.1,0-0.3-0.1-0.4-0.1
	c-0.1,0-0.3-0.1-0.4-0.2c-0.1-0.1-0.3-0.2-0.4-0.3C6.1,46.8,6,46.6,6,46.5c-0.1-0.2-0.1-0.4-0.1-0.6c0-0.2,0-0.4,0.1-0.6
	s0.2-0.3,0.3-0.5c0.1-0.1,0.3-0.3,0.5-0.3c0.2-0.1,0.5-0.1,0.7-0.1c0.2,0,0.3,0,0.5,0c0.1,0,0.3,0.1,0.4,0.1c0.1,0,0.3,0.1,0.4,0.2
	c0.1,0.1,0.2,0.1,0.3,0.2L8.9,45.4z M13,48.7v0.8h-2.9v-0.8h1v-2.6c0-0.1,0-0.1,0-0.2c0-0.1,0-0.1,0-0.2l-0.6,0.5
	c-0.1,0-0.1,0.1-0.2,0.1c0,0-0.1,0-0.1,0c0,0-0.1,0-0.1,0c0,0-0.1,0-0.1-0.1l-0.3-0.5l1.6-1.3h0.9v4.3H13z"/>
<path class="st0" d="M19.5,96h13c0.6,0,1,0.4,1,1v4c0,0.6-0.4,1-1,1h-13c-0.6,0-1-0.4-1-1v-4C18.5,96.4,18.9,96,19.5,96z"/>
<path class="st1" d="M19.5,96h13c0.6,0,1,0.4,1,1v4c0,0.6-0.4,1-1,1h-13c-0.6,0-1-0.4-1-1v-4C18.5,96.4,18.9,96,19.5,96z"/>
<path d="M25.4,97.4c0,0.1-0.1,0.1-0.1,0.1c0,0-0.1,0-0.1,0c-0.1,0-0.1,0-0.2,0c-0.1,0-0.1-0.1-0.2-0.1c-0.1,0-0.2-0.1-0.3-0.1
	c-0.1,0-0.2-0.1-0.3-0.1c-0.2,0-0.4,0-0.5,0.1c-0.1,0.1-0.2,0.2-0.2,0.4c0,0.1,0,0.2,0.1,0.3c0.1,0.1,0.2,0.1,0.3,0.2
	c0.1,0,0.2,0.1,0.4,0.1c0.1,0,0.3,0.1,0.4,0.1c0.1,0,0.3,0.1,0.4,0.2c0.1,0.1,0.3,0.2,0.4,0.3c0.1,0.1,0.2,0.2,0.3,0.4
	c0.1,0.1,0.1,0.3,0.1,0.5c0,0.2,0,0.5-0.1,0.7c-0.1,0.2-0.2,0.4-0.4,0.5c-0.2,0.2-0.3,0.3-0.6,0.4c-0.2,0.1-0.5,0.1-0.8,0.1
	c-0.2,0-0.3,0-0.5,0c-0.2,0-0.3-0.1-0.5-0.1c-0.2-0.1-0.3-0.1-0.4-0.2c-0.1-0.1-0.3-0.2-0.4-0.3l0.4-0.6c0,0,0.1-0.1,0.1-0.1
	c0,0,0.1,0,0.2,0c0.1,0,0.1,0,0.2,0.1c0.1,0,0.2,0.1,0.2,0.1c0.1,0.1,0.2,0.1,0.3,0.1c0.1,0,0.3,0.1,0.4,0.1c0.2,0,0.4,0,0.5-0.1
	c0.1-0.1,0.2-0.2,0.2-0.5c0-0.1,0-0.2-0.1-0.3c-0.1-0.1-0.2-0.1-0.3-0.2c-0.1,0-0.2-0.1-0.4-0.1c-0.1,0-0.3-0.1-0.4-0.1
	c-0.1,0-0.3-0.1-0.4-0.2c-0.1-0.1-0.3-0.2-0.4-0.3c-0.1-0.1-0.2-0.2-0.3-0.4c-0.1-0.2-0.1-0.4-0.1-0.6c0-0.2,0-0.4,0.1-0.6
	c0.1-0.2,0.2-0.3,0.3-0.5c0.1-0.1,0.3-0.3,0.5-0.3c0.2-0.1,0.5-0.1,0.7-0.1c0.2,0,0.3,0,0.5,0c0.1,0,0.3,0.1,0.4,0.1
	c0.1,0,0.3,0.1,0.4,0.2c0.1,0.1,0.2,0.1,0.3,0.2L25.4,97.4z M29.3,100.5c0.1,0,0.2,0,0.3,0.1c0.1,0.1,0.1,0.1,0.1,0.3v0.6h-3.6v-0.3
	c0-0.1,0-0.1,0-0.2c0-0.1,0.1-0.1,0.1-0.2l1.5-1.5c0.1-0.1,0.2-0.2,0.3-0.4c0.1-0.1,0.2-0.2,0.2-0.3c0.1-0.1,0.1-0.2,0.1-0.3
	c0-0.1,0-0.2,0-0.4c0-0.2,0-0.4-0.1-0.5c-0.1-0.1-0.2-0.2-0.4-0.2c-0.2,0-0.3,0-0.4,0.1c-0.1,0.1-0.2,0.2-0.2,0.3
	c0,0.1-0.1,0.2-0.2,0.3s-0.2,0.1-0.3,0l-0.6-0.1c0-0.3,0.1-0.5,0.2-0.7c0.1-0.2,0.2-0.3,0.4-0.5c0.2-0.1,0.3-0.2,0.5-0.3
	c0.2-0.1,0.4-0.1,0.7-0.1c0.3,0,0.5,0,0.7,0.1c0.2,0.1,0.4,0.2,0.5,0.3c0.1,0.1,0.3,0.3,0.3,0.5c0.1,0.2,0.1,0.4,0.1,0.6
	c0,0.2,0,0.4-0.1,0.5c-0.1,0.2-0.1,0.3-0.2,0.5c-0.1,0.1-0.2,0.3-0.3,0.4c-0.1,0.1-0.2,0.3-0.4,0.4l-1,1c0.1,0,0.3-0.1,0.4-0.1
	c0.1,0,0.2,0,0.4,0H29.3z"/>
<path class="st0" d="M36,148h13c0.6,0,1,0.4,1,1v4c0,0.6-0.4,1-1,1H36c-0.6,0-1-0.4-1-1v-4C35,148.4,35.4,148,36,148z"/>
<path class="st1" d="M36,148h13c0.6,0,1,0.4,1,1v4c0,0.6-0.4,1-1,1H36c-0.6,0-1-0.4-1-1v-4C35,148.4,35.4,148,36,148z"/>
<path d="M41.9,149.4c0,0.1-0.1,0.1-0.1,0.1c0,0-0.1,0-0.1,0c-0.1,0-0.1,0-0.2,0c-0.1,0-0.1-0.1-0.2-0.1c-0.1,0-0.2-0.1-0.3-0.1
	c-0.1,0-0.2-0.1-0.3-0.1c-0.2,0-0.4,0-0.5,0.1c-0.1,0.1-0.2,0.2-0.2,0.4c0,0.1,0,0.2,0.1,0.3c0.1,0.1,0.2,0.1,0.3,0.2
	c0.1,0,0.2,0.1,0.4,0.1c0.1,0,0.3,0.1,0.4,0.1c0.1,0,0.3,0.1,0.4,0.2c0.1,0.1,0.3,0.2,0.4,0.3c0.1,0.1,0.2,0.2,0.3,0.4
	c0.1,0.1,0.1,0.3,0.1,0.5c0,0.2,0,0.5-0.1,0.7c-0.1,0.2-0.2,0.4-0.4,0.5c-0.2,0.2-0.3,0.3-0.6,0.4c-0.2,0.1-0.5,0.1-0.8,0.1
	c-0.2,0-0.3,0-0.5,0c-0.2,0-0.3-0.1-0.5-0.1c-0.2-0.1-0.3-0.1-0.4-0.2c-0.1-0.1-0.3-0.2-0.4-0.3l0.3-0.6c0,0,0.1-0.1,0.1-0.1
	c0,0,0.1,0,0.2,0c0.1,0,0.1,0,0.2,0.1c0.1,0,0.2,0.1,0.2,0.1c0.1,0.1,0.2,0.1,0.3,0.1c0.1,0,0.3,0.1,0.4,0.1c0.2,0,0.4,0,0.5-0.1
	c0.1-0.1,0.2-0.2,0.2-0.5c0-0.1,0-0.2-0.1-0.3c-0.1-0.1-0.2-0.1-0.3-0.2c-0.1,0-0.2-0.1-0.4-0.1c-0.1,0-0.3-0.1-0.4-0.1
	c-0.1,0-0.3-0.1-0.4-0.2c-0.1-0.1-0.3-0.2-0.4-0.3c-0.1-0.1-0.2-0.2-0.3-0.4c-0.1-0.2-0.1-0.4-0.1-0.6c0-0.2,0-0.4,0.1-0.6
	c0.1-0.2,0.2-0.3,0.3-0.5c0.1-0.1,0.3-0.3,0.5-0.3c0.2-0.1,0.5-0.1,0.7-0.1c0.2,0,0.3,0,0.5,0c0.1,0,0.3,0.1,0.4,0.1
	c0.1,0,0.3,0.1,0.4,0.2c0.1,0.1,0.2,0.1,0.3,0.2L41.9,149.4z M42.7,149.9c0-0.3,0.1-0.5,0.2-0.7c0.1-0.2,0.2-0.3,0.4-0.5
	c0.2-0.1,0.3-0.2,0.5-0.3c0.2-0.1,0.4-0.1,0.7-0.1c0.3,0,0.5,0,0.7,0.1c0.2,0.1,0.4,0.2,0.5,0.3c0.1,0.1,0.2,0.3,0.3,0.4
	c0.1,0.2,0.1,0.3,0.1,0.5c0,0.2,0,0.3,0,0.4c0,0.1-0.1,0.2-0.1,0.3c-0.1,0.1-0.1,0.2-0.2,0.2c-0.1,0.1-0.2,0.1-0.3,0.2
	c0.6,0.2,0.8,0.6,0.8,1.2c0,0.3,0,0.5-0.1,0.7c-0.1,0.2-0.2,0.4-0.4,0.5c-0.2,0.1-0.4,0.2-0.6,0.3c-0.2,0.1-0.4,0.1-0.7,0.1
	c-0.2,0-0.5,0-0.6-0.1c-0.2-0.1-0.4-0.1-0.5-0.2c-0.1-0.1-0.3-0.3-0.4-0.4c-0.1-0.2-0.2-0.4-0.3-0.6L43,152c0.1,0,0.2-0.1,0.4,0
	c0.1,0,0.2,0.1,0.2,0.2c0.1,0.2,0.2,0.3,0.3,0.4c0.1,0.1,0.3,0.1,0.4,0.1c0.1,0,0.2,0,0.3-0.1c0.1,0,0.2-0.1,0.2-0.2
	c0.1-0.1,0.1-0.1,0.1-0.2s0-0.2,0-0.2c0-0.1,0-0.2,0-0.3c0-0.1-0.1-0.2-0.1-0.2s-0.2-0.1-0.3-0.1c-0.1,0-0.3-0.1-0.6-0.1v-0.7
	c0.2,0,0.4,0,0.5,0c0.1,0,0.2-0.1,0.3-0.1c0.1-0.1,0.1-0.1,0.1-0.2c0-0.1,0-0.2,0-0.3c0-0.2,0-0.4-0.1-0.5c-0.1-0.1-0.2-0.2-0.4-0.2
	c-0.2,0-0.3,0-0.4,0.1c-0.1,0.1-0.2,0.2-0.2,0.3c0,0.1-0.1,0.2-0.2,0.3c-0.1,0-0.2,0.1-0.3,0L42.7,149.9z"/>
<path class="st0" d="M52.5,200h13c0.6,0,1,0.4,1,1v4c0,0.6-0.4,1-1,1h-13c-0.6,0-1-0.4-1-1v-4C51.5,200.4,51.9,200,52.5,200z"/>
<path class="st1" d="M52.5,200h13c0.6,0,1,0.4,1,1v4c0,0.6-0.4,1-1,1h-13c-0.6,0-1-0.4-1-1v-4C51.5,200.4,51.9,200,52.5,200z"/>
<path d="M59.5,202.9c0,0.4-0.1,0.7-0.2,1c-0.1,0.3-0.3,0.6-0.5,0.8c-0.2,0.2-0.5,0.4-0.8,0.5c-0.3,0.1-0.7,0.2-1.1,0.2h-2v-5.1h2
	c0.4,0,0.8,0.1,1.1,0.2c0.3,0.1,0.6,0.3,0.8,0.5c0.2,0.2,0.4,0.5,0.5,0.8C59.4,202.2,59.5,202.6,59.5,202.9z M58.3,202.9
	c0-0.3,0-0.5-0.1-0.7c-0.1-0.2-0.2-0.4-0.3-0.5c-0.1-0.1-0.3-0.3-0.4-0.3c-0.2-0.1-0.4-0.1-0.6-0.1H56v3.3h0.8c0.2,0,0.4,0,0.6-0.1
	c0.2-0.1,0.3-0.2,0.4-0.3c0.1-0.1,0.2-0.3,0.3-0.5C58.2,203.4,58.3,203.2,58.3,202.9z M63.3,204.7v0.8h-2.9v-0.8h1v-2.6
	c0-0.1,0-0.1,0-0.2c0-0.1,0-0.1,0-0.2l-0.6,0.5c-0.1,0-0.1,0.1-0.2,0.1c0,0-0.1,0-0.1,0c0,0-0.1,0-0.1,0c0,0-0.1,0-0.1-0.1l-0.3-0.5
	l1.6-1.3h0.9v4.3H63.3z"/>
<path class="st0" d="M69,252h13c0.6,0,1,0.4,1,1v4c0,0.6-0.4,1-1,1H69c-0.6,0-1-0.4-1-1v-4C68,252.4,68.4,252,69,252z"/>
<path class="st1" d="M69,252h13c0.6,0,1,0.4,1,1v4c0,0.6-0.4,1-1,1H69c-0.6,0-1-0.4-1-1v-4C68,252.4,68.4,252,69,252z"/>
<path d="M76,254.9c0,0.4-0.1,0.7-0.2,1c-0.1,0.3-0.3,0.6-0.5,0.8c-0.2,0.2-0.5,0.4-0.8,0.5c-0.3,0.1-0.7,0.2-1.1,0.2h-2v-5.1h2
	c0.4,0,0.8,0.1,1.1,0.2c0.3,0.1,0.6,0.3,0.8,0.5c0.2,0.2,0.4,0.5,0.5,0.8C75.9,254.2,76,254.6,76,254.9z M74.8,254.9
	c0-0.3,0-0.5-0.1-0.7c-0.1-0.2-0.2-0.4-0.3-0.5c-0.1-0.1-0.3-0.3-0.4-0.3c-0.2-0.1-0.4-0.1-0.6-0.1h-0.8v3.3h0.8
	c0.2,0,0.4,0,0.6-0.1c0.2-0.1,0.3-0.2,0.4-0.3c0.1-0.1,0.2-0.3,0.3-0.5C74.7,255.4,74.8,255.2,74.8,254.9z M79.5,256.5
	c0.1,0,0.2,0,0.3,0.1c0.1,0.1,0.1,0.1,0.1,0.3v0.6h-3.6v-0.4c0-0.1,0-0.1,0-0.2c0-0.1,0.1-0.1,0.1-0.2l1.5-1.5
	c0.1-0.1,0.2-0.2,0.3-0.4c0.1-0.1,0.2-0.2,0.2-0.3c0.1-0.1,0.1-0.2,0.1-0.3c0-0.1,0-0.2,0-0.4c0-0.2,0-0.4-0.1-0.5
	c-0.1-0.1-0.2-0.2-0.4-0.2c-0.2,0-0.3,0-0.4,0.1c-0.1,0.1-0.2,0.2-0.2,0.3c0,0.1-0.1,0.2-0.2,0.3c-0.1,0-0.2,0.1-0.3,0l-0.6-0.1
	c0-0.3,0.1-0.5,0.2-0.7c0.1-0.2,0.2-0.3,0.4-0.5c0.2-0.1,0.3-0.2,0.5-0.3c0.2-0.1,0.4-0.1,0.7-0.1c0.3,0,0.5,0,0.7,0.1
	c0.2,0.1,0.4,0.2,0.5,0.3c0.1,0.1,0.3,0.3,0.3,0.5c0.1,0.2,0.1,0.4,0.1,0.6c0,0.2,0,0.4-0.1,0.5c-0.1,0.2-0.1,0.3-0.2,0.5
	c-0.1,0.1-0.2,0.3-0.3,0.4c-0.1,0.1-0.2,0.3-0.4,0.4l-1,1c0.1,0,0.3-0.1,0.4-0.1s0.2,0,0.3,0H79.5z"/>
<path class="st0" d="M85.5,304h13c0.6,0,1,0.4,1,1v4c0,0.6-0.4,1-1,1h-13c-0.6,0-1-0.4-1-1v-4C84.5,304.4,84.9,304,85.5,304z"/>
<path class="st1" d="M85.5,304h13c0.6,0,1,0.4,1,1v4c0,0.6-0.4,1-1,1h-13c-0.6,0-1-0.4-1-1v-4C84.5,304.4,84.9,304,85.5,304z"/>
<path d="M90.4,308.6v0.9h-3.1v-5.1h1.2v4.2H90.4z M90.4,306.9h1.9v0.9h-1.9V306.9z M94.7,306.8c0.2,0,0.3,0,0.4-0.1
	c0.1,0,0.2-0.1,0.3-0.2c0.1-0.1,0.1-0.2,0.2-0.3c0-0.1,0-0.2,0-0.3c0-0.2-0.1-0.4-0.2-0.5c-0.1-0.1-0.4-0.2-0.7-0.2h-0.5v1.5H94.7z
	 M97.2,309.5h-1.1c-0.2,0-0.3-0.1-0.4-0.2l-0.8-1.5c0-0.1-0.1-0.1-0.1-0.1c0,0-0.1,0-0.2,0h-0.3v1.9H93v-5.1h1.7
	c0.4,0,0.7,0,0.9,0.1c0.3,0.1,0.5,0.2,0.6,0.3c0.2,0.1,0.3,0.3,0.4,0.5c0.1,0.2,0.1,0.4,0.1,0.6c0,0.2,0,0.3-0.1,0.5
	c0,0.1-0.1,0.3-0.2,0.4c-0.1,0.1-0.2,0.2-0.3,0.3c-0.1,0.1-0.3,0.2-0.4,0.2c0.1,0,0.1,0.1,0.2,0.2c0.1,0.1,0.1,0.1,0.2,0.2
	L97.2,309.5z"/>
<path class="st0" d="M102,356h16c0.6,0,1,0.4,1,1v4c0,0.6-0.4,1-1,1h-16c-0.6,0-1-0.4-1-1v-4C101,356.4,101.4,356,102,356z"/>
<path class="st1" d="M102,356h16c0.6,0,1,0.4,1,1v4c0,0.6-0.4,1-1,1h-16c-0.6,0-1-0.4-1-1v-4C101,356.4,101.4,356,102,356z"/>
<path d="M103.7,358.8c0.2,0,0.3,0,0.4-0.1c0.1,0,0.2-0.1,0.3-0.2c0.1-0.1,0.1-0.2,0.2-0.3c0-0.1,0-0.2,0-0.3c0-0.2-0.1-0.4-0.2-0.5
	c-0.1-0.1-0.4-0.2-0.7-0.2h-0.5v1.5H103.7z M106.2,361.5h-1.1c-0.2,0-0.3-0.1-0.4-0.2l-0.8-1.5c0-0.1-0.1-0.1-0.1-0.1
	c0,0-0.1,0-0.2,0h-0.3v1.9H102v-5.1h1.7c0.4,0,0.7,0,0.9,0.1c0.3,0.1,0.5,0.2,0.6,0.3c0.2,0.1,0.3,0.3,0.4,0.5
	c0.1,0.2,0.1,0.4,0.1,0.6c0,0.2,0,0.3-0.1,0.5c0,0.1-0.1,0.3-0.2,0.4c-0.1,0.1-0.2,0.2-0.3,0.3c-0.1,0.1-0.3,0.2-0.4,0.2
	c0.1,0,0.1,0.1,0.2,0.2c0.1,0.1,0.1,0.1,0.2,0.2L106.2,361.5z M107.7,361.5h-1.2v-5.1h1.2V361.5z M113,356.4v5.1h-0.6
	c-0.1,0-0.2,0-0.2,0c-0.1,0-0.1-0.1-0.2-0.2l-2.4-3c0,0.1,0,0.2,0,0.3c0,0.1,0,0.2,0,0.2v2.7h-1v-5.1h0.6c0.1,0,0.1,0,0.1,0
	c0,0,0.1,0,0.1,0c0,0,0.1,0,0.1,0.1c0,0,0.1,0.1,0.1,0.1l2.4,3.1c0-0.1,0-0.2,0-0.3c0-0.1,0-0.2,0-0.3v-2.7H113z M116.4,358.9h1.8
	v2.2c-0.3,0.2-0.5,0.3-0.8,0.4c-0.3,0.1-0.6,0.1-0.9,0.1c-0.4,0-0.8-0.1-1.1-0.2c-0.3-0.1-0.6-0.3-0.9-0.5c-0.2-0.2-0.4-0.5-0.6-0.8
	c-0.1-0.3-0.2-0.7-0.2-1c0-0.4,0.1-0.7,0.2-1c0.1-0.3,0.3-0.6,0.5-0.8c0.2-0.2,0.5-0.4,0.8-0.5c0.3-0.1,0.7-0.2,1.1-0.2
	c0.2,0,0.4,0,0.6,0.1c0.2,0,0.4,0.1,0.5,0.1c0.2,0.1,0.3,0.1,0.4,0.2c0.1,0.1,0.2,0.2,0.3,0.3l-0.3,0.5c-0.1,0.1-0.1,0.1-0.2,0.1
	c-0.1,0-0.2,0-0.3-0.1c-0.1-0.1-0.2-0.1-0.3-0.1c-0.1,0-0.2-0.1-0.3-0.1c-0.1,0-0.2,0-0.3-0.1c-0.1,0-0.2,0-0.3,0
	c-0.2,0-0.4,0-0.6,0.1c-0.2,0.1-0.3,0.2-0.5,0.3c-0.1,0.1-0.2,0.3-0.3,0.5c-0.1,0.2-0.1,0.4-0.1,0.7c0,0.3,0,0.5,0.1,0.7
	c0.1,0.2,0.2,0.4,0.3,0.5c0.1,0.1,0.3,0.3,0.5,0.3c0.2,0.1,0.4,0.1,0.6,0.1c0.1,0,0.3,0,0.4,0c0.1,0,0.2-0.1,0.3-0.1v-0.8h-0.5
	c-0.1,0-0.1,0-0.2-0.1s-0.1-0.1-0.1-0.2V358.9z"/>
<path class="st0" d="M122.5,408h8c0.6,0,1,0.4,1,1v4c0,0.6-0.4,1-1,1h-8c-0.6,0-1-0.4-1-1v-4C121.5,408.4,121.9,408,122.5,408z"/>
<path class="st1" d="M122.5,408h8c0.6,0,1,0.4,1,1v4c0,0.6-0.4,1-1,1h-8c-0.6,0-1-0.4-1-1v-4C121.5,408.4,121.9,408,122.5,408z"/>
<path d="M125,411.5v2l-3-2.5l3-2.5v2h3v-2l3,2.5l-3,2.5v-2H125z"/>
</svg>
