<?xml version="1.0" encoding="utf-8"?>
<!-- Generator: Adobe Illustrator 22.0.0, SVG Export Plug-In . SVG Version: 6.00 Build 0)  -->
<svg version="1.1"
	 id="svg39713" inkscape:version="1.1 (c68e22c387, 2021-05-23)" sodipodi:docname="hover00157.svg" xmlns:inkscape="http://www.inkscape.org/namespaces/inkscape" xmlns:sodipodi="http://sodipodi.sourceforge.net/DTD/sodipodi-0.dtd" xmlns:svg="http://www.w3.org/2000/svg"
	 xmlns="http://www.w3.org/2000/svg" xmlns:xlink="http://www.w3.org/1999/xlink" x="0px" y="0px" width="48px" height="56px"
	 viewBox="0 0 48 56" style="enable-background:new 0 0 48 56;" xml:space="preserve">
<style type="text/css">
	.st0{opacity:0.5;fill:#EEEEEE;enable-background:new    ;}
	.st1{fill:#1F1F1F;}
	.st2{opacity:0.2;fill:#EEEEEE;enable-background:new    ;}
	.st3{fill:#6B6B6B;}
	.st4{fill:#808080;stroke:#000000;stroke-width:0.3017;}
	.st5{fill:#FF9300;fill-opacity:0.7765;}
	.st6{fill:#FFFFFF;stroke:#4D4D4D;stroke-width:0.1588;stroke-opacity:0.828;}
	.st7{fill:#7EB94E;stroke:#333333;stroke-width:0.3017;stroke-opacity:0.828;}
</style>
<sodipodi:namedview  bordercolor="#666666" borderopacity="1.0" id="namedview39715" inkscape:current-layer="svg39713" inkscape:cx="23.983127" inkscape:cy="25.7987" inkscape:guide-bbox="true" inkscape:pagecheckerboard="0" inkscape:pageopacity="0.0" inkscape:pageshadow="2" inkscape:window-height="1017" inkscape:window-maximized="1" inkscape:window-width="1920" inkscape:window-x="-8" inkscape:window-y="-8" inkscape:zoom="17.074504" pagecolor="#ffffff" showgrid="false" showguides="true">
	<sodipodi:guide  id="guide39811" orientation="0,-1" position="22.362341,33.827977"></sodipodi:guide>
	<sodipodi:guide  id="guide40259" orientation="1,0" position="33.031707,56.292834"></sodipodi:guide>
</sodipodi:namedview>
<g>
	<path id="path39659" class="st0" d="M10.05,39.2h-2c-0.3,0-0.5,0.2-0.5,0.5c0,0.3,0.2,0.5,0.5,0.5h2c0.3,0,0.5-0.2,0.5-0.5
		C10.55,39.4,10.35,39.2,10.05,39.2z"/>
	<path id="path39661" class="st1" d="M10.05,38.9h-2c-0.3,0-0.5,0.2-0.5,0.5c0,0.3,0.2,0.5,0.5,0.5h2c0.3,0,0.5-0.2,0.5-0.5
		C10.55,39.1,10.35,38.9,10.05,38.9z"/>
	<path id="path14" class="st2" d="M8.55,38.6v2c0,0.3,0.2,0.5,0.5,0.5s0.5-0.2,0.5-0.5v-2c0-0.3-0.2-0.5-0.5-0.5
		S8.55,38.4,8.55,38.6z"/>
	<path id="path16" class="st3" d="M8.55,38.4v2c0,0.3,0.2,0.5,0.5,0.5s0.5-0.2,0.5-0.5v-2c0-0.3-0.2-0.5-0.5-0.5
		S8.55,38.1,8.55,38.4z"/>
	<path id="rect846" class="st4" d="M5.85,33h6.3c0.6,0,1.2,0.5,1.2,1.2v10.6c0,0.6-0.5,1.2-1.2,1.2h-6.3c-0.6,0-1.2-0.5-1.2-1.2
		V34.1C4.75,33.5,5.25,33,5.85,33z"/>
	<rect id="rect29386" x="5.65" y="33.8" class="st5" width="6.7" height="11.4"/>
	<rect id="rect33470" x="4.65" y="38.6" class="st6" width="8.7" height="1.6"/>
</g>
<g>
	<path id="path39667" class="st0" d="M34.05,39.2h-2c-0.3,0-0.5,0.2-0.5,0.5c0,0.3,0.2,0.5,0.5,0.5h2c0.3,0,0.5-0.2,0.5-0.5
		C34.55,39.4,34.35,39.2,34.05,39.2z"/>
	<path id="path39669" class="st1" d="M34.05,38.9h-2c-0.3,0-0.5,0.2-0.5,0.5c0,0.3,0.2,0.5,0.5,0.5h2c0.3,0,0.5-0.2,0.5-0.5
		C34.55,39.1,34.35,38.9,34.05,38.9z"/>
	<path id="path874" class="st0" d="M34.05,39.2h-2c-0.3,0-0.5,0.2-0.5,0.5c0,0.3,0.2,0.5,0.5,0.5h2c0.3,0,0.5-0.2,0.5-0.5
		C34.55,39.4,34.35,39.2,34.05,39.2z"/>
	<path id="path876" class="st1" d="M34.05,38.9h-2c-0.3,0-0.5,0.2-0.5,0.5c0,0.3,0.2,0.5,0.5,0.5h2c0.3,0,0.5-0.2,0.5-0.5
		C34.55,39.1,34.35,38.9,34.05,38.9z"/>
	<path id="path878" class="st2" d="M32.55,38.6v2c0,0.3,0.2,0.5,0.5,0.5c0.3,0,0.5-0.2,0.5-0.5v-2c0-0.3-0.2-0.5-0.5-0.5
		C32.75,38.1,32.55,38.4,32.55,38.6z"/>
	<path id="path880" class="st3" d="M32.55,38.4v2c0,0.3,0.2,0.5,0.5,0.5c0.3,0,0.5-0.2,0.5-0.5v-2c0-0.3-0.2-0.5-0.5-0.5
		C32.75,37.9,32.55,38.1,32.55,38.4z"/>
	<path id="rect882" class="st7" d="M29.85,33h6.3c0.6,0,1.2,0.5,1.2,1.2v10.6c0,0.6-0.5,1.2-1.2,1.2h-6.3c-0.6,0-1.2-0.5-1.2-1.2
		V34.1C28.75,33.5,29.25,33,29.85,33z"/>
	<rect id="rect888" x="28.65" y="38.6" class="st6" width="8.7" height="1.6"/>
</g>
<g>
	<path id="path39651" class="st0" d="M33.95,11.3h-2c-0.3,0-0.5,0.2-0.5,0.5s0.2,0.5,0.5,0.5h2c0.3,0,0.5-0.2,0.5-0.5
		S34.25,11.3,33.95,11.3z"/>
	<path id="path39653" class="st1" d="M33.95,11h-2c-0.3,0-0.5,0.2-0.5,0.5s0.2,0.5,0.5,0.5h2c0.3,0,0.5-0.2,0.5-0.5
		S34.25,11,33.95,11z"/>
	<path id="path870" class="st0" d="M33.95,11.3h-2c-0.3,0-0.5,0.2-0.5,0.5s0.2,0.5,0.5,0.5h2c0.3,0,0.5-0.2,0.5-0.5
		S34.25,11.3,33.95,11.3z"/>
	<path id="path872" class="st1" d="M33.95,11h-2c-0.3,0-0.5,0.2-0.5,0.5s0.2,0.5,0.5,0.5h2c0.3,0,0.5-0.2,0.5-0.5S34.25,11,33.95,11
		z"/>
	<path id="path890" class="st2" d="M32.45,10.7v2c0,0.3,0.2,0.5,0.5,0.5c0.3,0,0.5-0.2,0.5-0.5v-2c0-0.3-0.2-0.5-0.5-0.5
		C32.65,10.2,32.45,10.4,32.45,10.7z"/>
	<path id="path892" class="st3" d="M32.45,10.4v2c0,0.3,0.2,0.5,0.5,0.5c0.3,0,0.5-0.2,0.5-0.5v-2c0-0.3-0.2-0.5-0.5-0.5
		C32.65,9.9,32.45,10.1,32.45,10.4z"/>
	<path id="rect894" class="st7" d="M29.85,5h6.3c0.6,0,1.2,0.5,1.2,1.2v10.6c0,0.6-0.5,1.2-1.2,1.2h-6.3c-0.6,0-1.2-0.5-1.2-1.2V6.2
		C28.65,5.5,29.15,5,29.85,5z"/>
	<rect id="rect900" x="28.65" y="10.7" class="st6" width="8.7" height="1.6"/>
</g>
<g>
	<path id="path39659_1_" class="st0" d="M10.05,11.2h-2c-0.3,0-0.5,0.2-0.5,0.5s0.2,0.5,0.5,0.5h2c0.3,0,0.5-0.2,0.5-0.5
		S10.35,11.2,10.05,11.2z"/>
	<path id="path39661_1_" class="st1" d="M10.05,10.9h-2c-0.3,0-0.5,0.2-0.5,0.5s0.2,0.5,0.5,0.5h2c0.3,0,0.5-0.2,0.5-0.5
		S10.35,10.9,10.05,10.9z"/>
	<path id="path14_1_" class="st2" d="M8.55,10.6v2c0,0.3,0.2,0.5,0.5,0.5s0.5-0.2,0.5-0.5v-2c0-0.3-0.2-0.5-0.5-0.5
		S8.55,10.4,8.55,10.6z"/>
	<path id="path16_1_" class="st3" d="M8.55,10.4v2c0,0.3,0.2,0.5,0.5,0.5s0.5-0.2,0.5-0.5v-2c0-0.3-0.2-0.5-0.5-0.5
		S8.55,10.1,8.55,10.4z"/>
	<path id="rect846_1_" class="st4" d="M5.85,5h6.3c0.6,0,1.2,0.5,1.2,1.2v10.6c0,0.6-0.5,1.2-1.2,1.2h-6.3c-0.6,0-1.2-0.5-1.2-1.2
		V6.1C4.75,5.5,5.25,5,5.85,5z"/>
	<rect id="rect29386_1_" x="5.65" y="5.8" class="st5" width="6.7" height="11.4"/>
	<rect id="rect33470_1_" x="4.65" y="10.6" class="st6" width="8.7" height="1.6"/>
</g>
</svg>
