<?xml version="1.0" encoding="utf-8"?>
<!-- Generator: Adobe Illustrator 22.0.0, SVG Export Plug-In . SVG Version: 6.00 Build 0)  -->
<svg version="1.1" baseProfile="basic"
	 id="svg14" inkscape:version="1.1 (c68e22c387, 2021-05-23)" sodipodi:docname="hover00177.svg" xmlns:inkscape="http://www.inkscape.org/namespaces/inkscape" xmlns:sodipodi="http://sodipodi.sourceforge.net/DTD/sodipodi-0.dtd" xmlns:svg="http://www.w3.org/2000/svg"
	 xmlns="http://www.w3.org/2000/svg" xmlns:xlink="http://www.w3.org/1999/xlink" x="0px" y="0px" width="11px" height="22px"
	 viewBox="0 0 11 22" xml:space="preserve">
<style type="text/css">
	.st0{fill:#FF9000;}
	.st1{fill:#399DFF;stroke:#399DFF;}
	.st2{fill:#FFFFFF;}
	.st3{fill:#FF9300;}
	.st4{fill:none;stroke:#FFFFFF;}
	.st5{fill:#000001;}
</style>
<sodipodi:namedview  bordercolor="#666666" borderopacity="1.0" id="namedview16" inkscape:current-layer="svg14" inkscape:cx="5.4867788" inkscape:cy="11.251202" inkscape:pagecheckerboard="0" inkscape:pageopacity="0.0" inkscape:pageshadow="2" inkscape:window-height="1017" inkscape:window-maximized="1" inkscape:window-width="1920" inkscape:window-x="-8" inkscape:window-y="-8" inkscape:zoom="37.818182" pagecolor="#ffffff" showgrid="false">
	</sodipodi:namedview>
<path id="rect2" class="st0" d="M2.8,2.5h5.5c0.1,0,0.3,0.1,0.3,0.3v5.5c0,0.1-0.1,0.3-0.3,0.3H2.8c-0.1,0-0.3-0.1-0.3-0.3V2.8
	C2.5,2.6,2.6,2.5,2.8,2.5z"/>
<path id="rect4" class="st1" d="M2.8,2.5h5.5c0.1,0,0.3,0.1,0.3,0.3v5.5c0,0.1-0.1,0.3-0.3,0.3H2.8c-0.1,0-0.3-0.1-0.3-0.3V2.8
	C2.5,2.6,2.6,2.5,2.8,2.5z"/>
<path id="path6" class="st2" d="M6.3,3L3.4,5.8l1.7,1.7L8,4.7L6.3,3z M4.6,8L3,6.4V8H4.6z"/>
<path id="rect8" class="st3" d="M2.5,12.5h6c0.6,0,1,0.4,1,1v6c0,0.6-0.4,1-1,1h-6c-0.6,0-1-0.4-1-1v-6C1.5,12.9,1.9,12.5,2.5,12.5z
	"/>
<path id="rect10" class="st4" d="M2.5,12.5h6c0.6,0,1,0.4,1,1v6c0,0.6-0.4,1-1,1h-6c-0.6,0-1-0.4-1-1v-6C1.5,12.9,1.9,12.5,2.5,12.5
	z"/>
<path id="path12" class="st5" d="M6.3,14l-2.9,2.8l1.7,1.7L8,15.7L6.3,14z M4.6,19L3,17.4V19H4.6z"/>
</svg>
