<svg xmlns="http://www.w3.org/2000/svg" xmlns:xlink="http://www.w3.org/1999/xlink" width="14" height="15.999" viewBox="0 0 14 15.999"><defs><linearGradient id="a" x1="0.5" x2="0.5" y2="1" gradientUnits="objectBoundingBox"><stop offset="0" stop-color="#61585c"/><stop offset="1" stop-color="#4f4547"/></linearGradient><linearGradient id="b" x1="0.5" x2="0.5" y2="1" gradientUnits="objectBoundingBox"><stop offset="0" stop-color="#352e31"/><stop offset="1" stop-color="#292224"/></linearGradient></defs><g transform="translate(1.862 -0.113)"><g transform="translate(-1.862 0.114)"><g transform="translate(0.5 0.5)" stroke="#4e4752" stroke-width="0.5" fill="url(#a)"><path d="M0,0H13a0,0,0,0,1,0,0V6a1,1,0,0,1-1,1H1A1,1,0,0,1,0,6V0A0,0,0,0,1,0,0Z" stroke="none"/><path d="M0-.25H13a.25.25,0,0,1,.25.25V6A1.25,1.25,0,0,1,12,7.25H1A1.25,1.25,0,0,1-.25,6V0A.25.25,0,0,1,0-.25Z" fill="none"/></g><path d="M12.5.5H1.5A1.5,1.5,0,0,1,0-1v-.422A1.5,1.5,0,0,0,1.5,0h11A1.5,1.5,0,0,0,14-1.486V-1A1.5,1.5,0,0,1,12.5.5Z" transform="translate(0 7.498)" opacity="0.4"/><path d="M14,.5H0V0H14V.5Z" transform="translate(0 0)" fill="#fff" opacity="0.4"/><path d="M0,0H13a0,0,0,0,1,0,0V6a1,1,0,0,1-1,1H1A1,1,0,0,1,0,6V0A0,0,0,0,1,0,0Z" transform="translate(0.5 0.5)" fill="#fff" opacity="0"/><path d="M-1.622-1.137C-1.575-.381-.945.1-.007.1c1,0,1.629-.507,1.629-1.315C1.622-1.849,1.264-2.2.4-2.4l-.466-.114c-.551-.129-.773-.3-.773-.6,0-.381.346-.63.864-.63a.807.807,0,0,1,.894.633h.639A1.379,1.379,0,0,0,.031-4.33c-.923,0-1.538.5-1.538,1.254,0,.621.349.99,1.113,1.169l.545.132c.56.132.806.325.806.647C.957-.753.57-.48.042-.48c-.565,0-.958-.255-1.014-.656Z" transform="translate(7 6)" fill="#dccdc8"/></g><g transform="translate(-1.862 8.114)"><g transform="translate(0.5 0.5)" stroke="#4e4752" stroke-width="0.5" fill="url(#b)"><path d="M0,0H13a0,0,0,0,1,0,0V6a1,1,0,0,1-1,1H1A1,1,0,0,1,0,6V0A0,0,0,0,1,0,0Z" stroke="none"/><path d="M0-.25H13a.25.25,0,0,1,.25.25V6A1.25,1.25,0,0,1,12,7.25H1A1.25,1.25,0,0,1-.25,6V0A.25.25,0,0,1,0-.25Z" fill="none"/></g><path d="M12.5.5H1.5A1.5,1.5,0,0,1,0-1v-.422A1.5,1.5,0,0,0,1.5,0h11A1.5,1.5,0,0,0,14-1.487V-1A1.5,1.5,0,0,1,12.5.5Z" transform="translate(0.001 7.499)" opacity="0.4"/><path d="M14,.5H0V0H14V.5Z" transform="translate(0 0)" fill="#fff" opacity="0.1"/><path d="M0,0H13a0,0,0,0,1,0,0V6a1,1,0,0,1-1,1H1A1,1,0,0,1,0,6V0A0,0,0,0,1,0,0Z" transform="translate(0.501 0.5)" fill="#fff" opacity="0"/><path d="M-1.622-1.137C-1.575-.381-.945.1-.007.1c1,0,1.629-.507,1.629-1.315C1.622-1.849,1.264-2.2.4-2.4l-.466-.114c-.551-.129-.773-.3-.773-.6,0-.381.346-.63.864-.63a.807.807,0,0,1,.894.633h.639A1.379,1.379,0,0,0,.031-4.33c-.923,0-1.538.5-1.538,1.254,0,.621.349.99,1.113,1.169l.545.132c.56.132.806.325.806.647C.957-.753.57-.48.042-.48c-.565,0-.958-.255-1.014-.656Z" transform="translate(7 6)" fill="#fce237"/></g></g></svg>