<?xml version="1.0" encoding="utf-8"?>
<svg width="123px" height="232px" viewBox="0 0 123 232" version="1.1" xmlns:xlink="http://www.w3.org/1999/xlink" xmlns="http://www.w3.org/2000/svg">
  <defs>
    <rect width="123" height="232" id="artboard_1" />
    <clipPath id="clip_1">
      <use xlink:href="#artboard_1" clip-rule="evenodd" />
    </clipPath>
  </defs>
  <g id="bmp00151" clip-path="url(#clip_1)">
    <g id="Group" transform="translate(62 45)">
      <path d="M0 3L30 3L30 12L0 12L0 3Z" id="Rectangle" fill="#FFFFFF" fill-opacity="0.2" fill-rule="evenodd" stroke="none" />
      <path d="M0 0L30 0L30 2L0 2L0 0Z" id="Rectangle" fill="#FFFFFF" fill-opacity="0.2" fill-rule="evenodd" stroke="none" />
      <g id="Group" transform="translate(3.1559982 4.935608)">
        <path d="M1.203 2.87742L1.822 2.87742C2.43 2.87742 2.803 3.17742 2.803 3.65642C2.803 4.12142 2.403 4.44642 1.843 4.44642C1.283 4.44642 0.885002 4.15542 0.844002 3.69742L0 3.69742C0.0352249 4.14271 0.251419 4.5541 0.598183 4.83567C0.944946 5.11724 1.39196 5.24437 1.835 5.18742C2.908 5.18742 3.701 4.55842 3.701 3.71042C3.72591 3.08145 3.23969 2.54973 2.611 2.51842L2.611 2.46442C3.14852 2.35942 3.52803 1.87653 3.503 1.32942C3.503 0.574421 2.789 0.0134201 1.832 0.0134201C1.40355 -0.0394745 0.972511 0.0893021 0.643288 0.368561C0.314072 0.647816 0.116707 1.05208 0.098999 1.48342L0.923004 1.48342C0.934959 1.26469 1.03608 1.06044 1.20277 0.918316C1.36946 0.776192 1.58714 0.708641 1.805 0.731419C2.321 0.731419 2.653 1.01542 2.653 1.45242C2.64928 1.66726 2.55513 1.87057 2.39371 2.01239C2.23228 2.15421 2.01854 2.22139 1.80501 2.19742L1.205 2.19742L1.203 2.87742Z" id="Shape" fill="#DBD7D7" stroke="none" />
        <path d="M10.109 1.5744L10.109 1.5884L10.936 1.5884L10.936 1.5744C10.926 1.34418 11.0148 1.12065 11.18 0.960014C11.3452 0.799381 11.5712 0.71693 11.801 0.733402C12.0137 0.713982 12.225 0.783459 12.3847 0.925343C12.5444 1.06722 12.6383 1.26886 12.644 1.4824C12.644 1.8314 12.477 2.08241 11.803 2.7714L10.157 4.4524L10.157 5.0644L13.582 5.0644L13.582 4.3154L11.367 4.3154L11.367 4.2574L12.399 3.2224C13.236 2.3954 13.506 1.95741 13.506 1.4284C13.4833 1.01337 13.2906 0.626022 12.9733 0.357529C12.656 0.0890388 12.2421 -0.0368805 11.829 0.00940323C11.3886 -0.0310097 10.9515 0.11549 10.6244 0.413124C10.2972 0.710762 10.1102 1.13215 10.109 1.5744L10.109 1.5744Z" id="Shape" fill="#DBD7D7" stroke="none" />
        <path d="M21.813 5.06438L22.695 5.06438L22.695 0.132385L21.817 0.132385L20.528 1.03238L20.528 1.88039L21.755 1.01939L21.813 1.01939L21.813 5.06438Z" id="Shape" fill="#DBD7D7" stroke="none" />
        <path d="M8.844 3.06439L5.844 5.06439L5.844 1.06439L8.844 3.06439Z" id="Shape" fill="#DBD7D7" stroke="none" />
        <path d="M18.844 3.06439L15.844 5.06439L15.844 1.06439L18.844 3.06439Z" id="Shape" fill="#DBD7D7" stroke="none" />
      </g>
    </g>
    <g id="Group" transform="translate(31 45)">
      <path d="M0 3L30 3L30 12L0 12L0 3Z" id="Rectangle" fill="#FFFFFF" fill-opacity="0.2" fill-rule="evenodd" stroke="none" />
      <path d="M0 0L30 0L30 2L0 2L0 0Z" id="Rectangle" fill="#FFFFFF" fill-opacity="0.2" fill-rule="evenodd" stroke="none" />
      <g id="Group" transform="translate(9.264999 4.935608)">
        <path d="M0 1.5744L0 1.5884L0.827 1.5884L0.827 1.5744C0.817001 1.34418 0.905773 1.12065 1.07099 0.960014C1.23621 0.799381 1.46215 0.71693 1.692 0.733402C1.90473 0.713982 2.11602 0.783459 2.27571 0.925343C2.43539 1.06722 2.52925 1.26886 2.535 1.4824C2.535 1.8314 2.368 2.08241 1.694 2.7714L0.0480003 4.4524L0.0480003 5.0644L3.473 5.0644L3.473 4.3154L1.258 4.3154L1.258 4.2574L2.29 3.2224C3.127 2.3954 3.397 1.95741 3.397 1.4284C3.37428 1.01337 3.18159 0.626022 2.86428 0.357529C2.54697 0.0890388 2.13308 -0.0368805 1.72 0.00940323C1.27959 -0.0310097 0.842472 0.11549 0.515358 0.413124C0.18824 0.710762 0.00123596 1.13215 0 1.5744L0 1.5744Z" id="Shape" fill="#DBD7D7" stroke="none" />
        <path d="M11.704 5.06438L12.586 5.06438L12.586 0.132385L11.708 0.132385L10.419 1.03238L10.419 1.88039L11.646 1.01939L11.704 1.01939L11.704 5.06438Z" id="Shape" fill="#DBD7D7" stroke="none" />
        <path d="M8.735 3.06439L5.735 5.06439L5.735 1.06439L8.735 3.06439Z" id="Shape" fill="#DBD7D7" stroke="none" />
      </g>
    </g>
    <g id="Group" transform="translate(0 45)">
      <path d="M0 3L30 3L30 12L0 12L0 3Z" id="Rectangle" fill="#C89E83" fill-opacity="0.6" fill-rule="evenodd" stroke="none" />
      <path d="M0 0L30 0L30 2L0 2L0 0Z" id="Rectangle" fill="#F6D738" fill-rule="evenodd" stroke="none" />
      <g id="Group" transform="translate(4.7699995 4.944336)">
        <path d="M0.854 5.05566L0.854 1.69966L0.912 1.69966L3.33 5.05566L4.092 5.05566L4.092 0.123657L3.244 0.123657L3.244 3.47666L3.186 3.47666L0.766 0.123657L0 0.123657L0 5.05566L0.854 5.05566ZM7.094 0.000682831C6.42428 -0.0156441 5.78073 0.26083 5.33155 0.757851C4.88237 1.25487 4.67221 1.92303 4.756 2.58768C4.66882 3.25341 4.87766 3.92391 5.32746 4.42238C5.77725 4.92085 6.42285 5.19725 7.094 5.17868C7.76336 5.19431 8.40612 4.9166 8.85351 4.41846C9.30089 3.92032 9.5082 3.25153 9.421 2.58768C9.50728 1.9244 9.29951 1.25653 8.8522 0.759251C8.40489 0.261963 7.76268 -0.0151176 7.094 0.000682831L7.094 0.000682831ZM7.094 0.783691C7.969 0.783691 8.519 1.48369 8.519 2.58369C8.519 3.68369 7.972 4.39569 7.094 4.39569C6.216 4.39569 5.658 3.68769 5.658 2.58769C5.658 1.48769 6.215 0.783691 7.094 0.783691L7.094 0.783691ZM12.478 5.05566L12.478 3.05566L14.546 3.05566L14.546 2.32066L12.478 2.32066L12.478 0.885658L14.74 0.885658L14.74 0.123657L11.596 0.123657L11.596 5.05566L12.478 5.05566ZM20.458 5.05566L20.458 0.123657L19.43 0.123657L17.942 3.71566L17.88 3.71566L16.397 0.123657L15.364 0.123657L15.364 5.05566L16.184 5.05566L16.184 1.58665L16.23 1.58665L17.596 4.86465L18.23 4.86465L19.589 1.58665L19.637 1.58665L19.637 5.05566L20.458 5.05566Z" id="Shape" fill="#F6D738" fill-rule="evenodd" stroke="none" />
      </g>
    </g>
    <g id="Group" transform="translate(93 45)">
      <path d="M0 3L30 3L30 12L0 12L0 3Z" id="Rectangle" fill="#FFFFFF" fill-opacity="0.2" fill-rule="evenodd" stroke="none" />
      <path d="M0 0L30 0L30 2L0 2L0 0Z" id="Rectangle" fill="#FFFFFF" fill-opacity="0.2" fill-rule="evenodd" stroke="none" />
      <g id="Group" transform="translate(3.2649994 4.935608)">
        <path d="M0 1.5744L0 1.5884L0.827003 1.5884L0.827003 1.5744C0.817001 1.34418 0.905769 1.12065 1.07099 0.960014C1.23621 0.799381 1.46215 0.71693 1.692 0.733402C1.90473 0.713982 2.11601 0.783459 2.2757 0.925343C2.43539 1.06722 2.52925 1.26886 2.535 1.4824C2.535 1.8314 2.368 2.08241 1.694 2.7714L0.0480041 4.4524L0.0480041 5.0644L3.473 5.0644L3.473 4.3154L1.258 4.3154L1.258 4.2574L2.29 3.2224C3.127 2.3954 3.397 1.95741 3.397 1.4284C3.37427 1.01337 3.18159 0.626022 2.86428 0.357529C2.54697 0.0890388 2.13307 -0.0368805 1.72 0.00940323C1.27959 -0.0310097 0.842468 0.11549 0.515358 0.413124C0.18824 0.710762 0.00123596 1.13215 0 1.5744L0 1.5744Z" id="Shape" fill="#DBD7D7" stroke="none" />
        <path d="M11.704 5.06438L12.586 5.06438L12.586 0.132385L11.708 0.132385L10.419 1.03238L10.419 1.88039L11.646 1.01939L11.704 1.01939L11.704 5.06438Z" id="Shape" fill="#DBD7D7" stroke="none" />
        <path d="M21.094 2.87742L21.713 2.87742C22.321 2.87742 22.694 3.17742 22.694 3.65642C22.694 4.12142 22.294 4.44642 21.734 4.44642C21.174 4.44642 20.776 4.15542 20.735 3.69742L19.891 3.69742C19.9262 4.14271 20.1424 4.5541 20.4892 4.83567C20.8359 5.11724 21.283 5.24437 21.726 5.18742C22.799 5.18742 23.592 4.55842 23.592 3.71042C23.6169 3.08145 23.1307 2.54973 22.502 2.51842L22.502 2.46442C23.0395 2.35942 23.419 1.87653 23.394 1.32942C23.394 0.574421 22.68 0.0134201 21.723 0.0134201C21.2945 -0.0394745 20.8635 0.0893021 20.5343 0.368561C20.2051 0.647816 20.0077 1.05208 19.99 1.48342L20.814 1.48342C20.826 1.26469 20.9271 1.06044 21.0938 0.918316C21.2605 0.776192 21.4781 0.708641 21.696 0.731419C22.212 0.731419 22.544 1.01542 22.544 1.45242C22.5403 1.66726 22.4461 1.87057 22.2847 2.01239C22.1233 2.15421 21.9095 2.22139 21.696 2.19742L21.096 2.19742L21.094 2.87742Z" id="Shape" fill="#DBD7D7" stroke="none" />
        <path d="M8.735 3.06439L5.735 5.06439L5.735 1.06439L8.735 3.06439Z" id="Shape" fill="#DBD7D7" stroke="none" />
        <path d="M14.735 3.06439L17.735 1.06439L17.735 5.06439L14.735 3.06439Z" id="Shape" fill="#DBD7D7" stroke="none" />
      </g>
    </g>
    <g id="Group" transform="translate(62 103)">
      <path d="M0 3L30 3L30 12L0 12L0 3Z" id="Rectangle" fill="#FFFFFF" fill-opacity="0.2" fill-rule="evenodd" stroke="none" />
      <path d="M0 0L30 0L30 2L0 2L0 0Z" id="Rectangle" fill="#FFFFFF" fill-opacity="0.2" fill-rule="evenodd" stroke="none" />
      <g id="Group" transform="translate(3.1559982 4.935608)">
        <path d="M1.203 2.87743L1.822 2.87743C2.43 2.87743 2.803 3.17742 2.803 3.65643C2.803 4.12142 2.403 4.44643 1.843 4.44643C1.283 4.44643 0.885002 4.15543 0.844002 3.69743L0 3.69743C0.0352249 4.14272 0.251419 4.55411 0.598183 4.83568C0.944946 5.11724 1.39196 5.24438 1.835 5.18742C2.908 5.18742 3.701 4.55843 3.701 3.71043C3.72591 3.08146 3.23969 2.54974 2.611 2.51842L2.611 2.46442C3.14852 2.35942 3.52803 1.87653 3.503 1.32942C3.503 0.574425 2.789 0.0134201 1.832 0.0134201C1.40355 -0.0394745 0.972511 0.0893097 0.643288 0.368561C0.314072 0.64782 0.116707 1.05208 0.098999 1.48342L0.923004 1.48342C0.934959 1.26469 1.03608 1.06044 1.20277 0.91832C1.36946 0.776199 1.58714 0.708641 1.805 0.731422C2.321 0.731422 2.653 1.01543 2.653 1.45242C2.64928 1.66726 2.55513 1.87057 2.39371 2.01239C2.23228 2.15421 2.01854 2.22139 1.80501 2.19743L1.205 2.19743L1.203 2.87743Z" id="Shape" fill="#DBD7D7" stroke="none" />
        <path d="M10.109 1.57441L10.109 1.58841L10.936 1.58841L10.936 1.57441C10.926 1.34418 11.0148 1.12065 11.18 0.960014C11.3452 0.799385 11.5712 0.716934 11.801 0.733406C12.0137 0.713989 12.225 0.783463 12.3847 0.925346C12.5444 1.06723 12.6383 1.26887 12.644 1.48241C12.644 1.83141 12.477 2.08241 11.803 2.77141L10.157 4.45241L10.157 5.06441L13.582 5.06441L13.582 4.31541L11.367 4.31541L11.367 4.25741L12.399 3.2224C13.236 2.39541 13.506 1.95741 13.506 1.42841C13.4833 1.01337 13.2906 0.626022 12.9733 0.357536C12.656 0.0890427 12.2421 -0.0368805 11.829 0.00940704C11.3886 -0.0310059 10.9515 0.115494 10.6244 0.413132C10.2972 0.710762 10.1102 1.13215 10.109 1.57441L10.109 1.57441Z" id="Shape" fill="#DBD7D7" stroke="none" />
        <path d="M21.813 5.06438L22.695 5.06438L22.695 0.132385L21.817 0.132385L20.528 1.03239L20.528 1.88039L21.755 1.01939L21.813 1.01939L21.813 5.06438Z" id="Shape" fill="#DBD7D7" stroke="none" />
        <path d="M8.844 3.06439L5.844 5.06439L5.844 1.06439L8.844 3.06439Z" id="Shape" fill="#DBD7D7" stroke="none" />
        <path d="M18.844 3.06439L15.844 5.06439L15.844 1.06439L18.844 3.06439Z" id="Shape" fill="#DBD7D7" stroke="none" />
      </g>
    </g>
    <g id="Group" transform="translate(31 103)">
      <path d="M0 3L30 3L30 12L0 12L0 3Z" id="Rectangle" fill="#C89E83" fill-opacity="0.6" fill-rule="evenodd" stroke="none" />
      <path d="M0 0L30 0L30 2L0 2L0 0Z" id="Rectangle" fill="#F6D738" fill-rule="evenodd" stroke="none" />
      <g id="Group" transform="translate(9.264999 4.935608)">
        <path d="M0 1.57441L0 1.58841L0.827 1.58841L0.827 1.57441C0.817001 1.34418 0.905773 1.12065 1.07099 0.960014C1.23621 0.799385 1.46215 0.716934 1.692 0.733406C1.90473 0.713989 2.11602 0.783463 2.27571 0.925346C2.43539 1.06723 2.52925 1.26887 2.535 1.48241C2.535 1.83141 2.368 2.08241 1.694 2.77141L0.0480003 4.45241L0.0480003 5.06441L3.473 5.06441L3.473 4.31541L1.258 4.31541L1.258 4.25741L2.29 3.2224C3.127 2.39541 3.397 1.95741 3.397 1.42841C3.37428 1.01337 3.18159 0.626022 2.86428 0.357536C2.54697 0.0890427 2.13308 -0.0368805 1.72 0.00940704C1.27959 -0.0310059 0.842472 0.115494 0.515358 0.413132C0.18824 0.710762 0.00123596 1.13215 0 1.57441L0 1.57441Z" id="Shape" fill="#F6D738" stroke="none" />
        <path d="M11.704 5.06438L12.586 5.06438L12.586 0.132385L11.708 0.132385L10.419 1.03239L10.419 1.88039L11.646 1.01939L11.704 1.01939L11.704 5.06438Z" id="Shape" fill="#F6D738" stroke="none" />
        <path d="M8.735 3.06439L5.735 5.06439L5.735 1.06439L8.735 3.06439Z" id="Shape" fill="#F6D738" stroke="none" />
      </g>
    </g>
    <g id="Group" transform="translate(0 103)">
      <path d="M0 3L30 3L30 12L0 12L0 3Z" id="Rectangle" fill="#FFFFFF" fill-opacity="0.2" fill-rule="evenodd" stroke="none" />
      <path d="M0 0L30 0L30 2L0 2L0 0Z" id="Rectangle" fill="#FFFFFF" fill-opacity="0.2" fill-rule="evenodd" stroke="none" />
      <g id="Group" transform="translate(4.7699995 4.944336)">
        <path d="M0.854 5.05566L0.854 1.69965L0.912 1.69965L3.33 5.05566L4.092 5.05566L4.092 0.123657L3.244 0.123657L3.244 3.47665L3.186 3.47665L0.766 0.123657L0 0.123657L0 5.05566L0.854 5.05566ZM7.094 0.000686646C6.42428 -0.0156403 5.78073 0.260834 5.33155 0.757851C4.88237 1.25488 4.67221 1.92303 4.756 2.58768C4.66882 3.25341 4.87766 3.92391 5.32746 4.42238C5.77725 4.92085 6.42285 5.19725 7.094 5.17869C7.76336 5.19432 8.40612 4.9166 8.85351 4.41846C9.30089 3.92033 9.5082 3.25153 9.421 2.58768C9.50728 1.92441 9.29951 1.25654 8.8522 0.759254C8.40489 0.261963 7.76268 -0.0151138 7.094 0.000686646L7.094 0.000686646ZM7.094 0.783691C7.969 0.783691 8.519 1.4837 8.519 2.58369C8.519 3.68369 7.972 4.39569 7.094 4.39569C6.216 4.39569 5.658 3.6877 5.658 2.58769C5.658 1.48769 6.215 0.783691 7.094 0.783691L7.094 0.783691ZM12.478 5.05566L12.478 3.05566L14.546 3.05566L14.546 2.32066L12.478 2.32066L12.478 0.885658L14.74 0.885658L14.74 0.123657L11.596 0.123657L11.596 5.05566L12.478 5.05566ZM20.458 5.05566L20.458 0.123657L19.43 0.123657L17.942 3.71566L17.88 3.71566L16.397 0.123657L15.364 0.123657L15.364 5.05566L16.184 5.05566L16.184 1.58665L16.23 1.58665L17.596 4.86465L18.23 4.86465L19.589 1.58665L19.637 1.58665L19.637 5.05566L20.458 5.05566Z" id="Shape" fill="#DBD7D7" fill-rule="evenodd" stroke="none" />
      </g>
    </g>
    <g id="Group" transform="translate(93 103)">
      <path d="M0 3L30 3L30 12L0 12L0 3Z" id="Rectangle" fill="#FFFFFF" fill-opacity="0.2" fill-rule="evenodd" stroke="none" />
      <path d="M0 0L30 0L30 2L0 2L0 0Z" id="Rectangle" fill="#FFFFFF" fill-opacity="0.2" fill-rule="evenodd" stroke="none" />
      <g id="Group" transform="translate(3.2649994 4.935608)">
        <path d="M0 1.57441L0 1.58841L0.827003 1.58841L0.827003 1.57441C0.817001 1.34418 0.905769 1.12065 1.07099 0.960014C1.23621 0.799385 1.46215 0.716934 1.692 0.733406C1.90473 0.713989 2.11601 0.783463 2.2757 0.925346C2.43539 1.06723 2.52925 1.26887 2.535 1.48241C2.535 1.83141 2.368 2.08241 1.694 2.77141L0.0480041 4.45241L0.0480041 5.06441L3.473 5.06441L3.473 4.31541L1.258 4.31541L1.258 4.25741L2.29 3.2224C3.127 2.39541 3.397 1.95741 3.397 1.42841C3.37427 1.01337 3.18159 0.626022 2.86428 0.357536C2.54697 0.0890427 2.13307 -0.0368805 1.72 0.00940704C1.27959 -0.0310059 0.842468 0.115494 0.515358 0.413132C0.18824 0.710762 0.00123596 1.13215 0 1.57441L0 1.57441Z" id="Shape" fill="#DBD7D7" stroke="none" />
        <path d="M11.704 5.06438L12.586 5.06438L12.586 0.132385L11.708 0.132385L10.419 1.03239L10.419 1.88039L11.646 1.01939L11.704 1.01939L11.704 5.06438Z" id="Shape" fill="#DBD7D7" stroke="none" />
        <path d="M21.094 2.87743L21.713 2.87743C22.321 2.87743 22.694 3.17742 22.694 3.65643C22.694 4.12142 22.294 4.44643 21.734 4.44643C21.174 4.44643 20.776 4.15543 20.735 3.69743L19.891 3.69743C19.9262 4.14272 20.1424 4.55411 20.4892 4.83568C20.8359 5.11724 21.283 5.24438 21.726 5.18742C22.799 5.18742 23.592 4.55843 23.592 3.71043C23.6169 3.08146 23.1307 2.54974 22.502 2.51842L22.502 2.46442C23.0395 2.35942 23.419 1.87653 23.394 1.32942C23.394 0.574425 22.68 0.0134201 21.723 0.0134201C21.2945 -0.0394745 20.8635 0.0893097 20.5343 0.368561C20.2051 0.64782 20.0077 1.05208 19.99 1.48342L20.814 1.48342C20.826 1.26469 20.9271 1.06044 21.0938 0.91832C21.2605 0.776199 21.4781 0.708641 21.696 0.731422C22.212 0.731422 22.544 1.01543 22.544 1.45242C22.5403 1.66726 22.4461 1.87057 22.2847 2.01239C22.1233 2.15421 21.9095 2.22139 21.696 2.19743L21.096 2.19743L21.094 2.87743Z" id="Shape" fill="#DBD7D7" stroke="none" />
        <path d="M8.735 3.06439L5.735 5.06439L5.735 1.06439L8.735 3.06439Z" id="Shape" fill="#DBD7D7" stroke="none" />
        <path d="M14.735 3.06439L17.735 1.06439L17.735 5.06439L14.735 3.06439Z" id="Shape" fill="#DBD7D7" stroke="none" />
      </g>
    </g>
    <g id="Group" transform="translate(62 161)">
      <path d="M0 3L30 3L30 12L0 12L0 3Z" id="Rectangle" fill="#C89E83" fill-opacity="0.6" fill-rule="evenodd" stroke="none" />
      <path d="M0 0L30 0L30 2L0 2L0 0Z" id="Rectangle" fill="#F6D738" fill-rule="evenodd" stroke="none" />
      <g id="Group" transform="translate(3.1559982 4.935608)">
        <path d="M1.203 2.87743L1.822 2.87743C2.43 2.87743 2.803 3.17743 2.803 3.65642C2.803 4.12143 2.403 4.44643 1.843 4.44643C1.283 4.44643 0.885002 4.15543 0.844002 3.69742L0 3.69742C0.0352249 4.14272 0.251419 4.55411 0.598183 4.83568C0.944946 5.11725 1.39196 5.24437 1.835 5.18742C2.908 5.18742 3.701 4.55843 3.701 3.71042C3.72591 3.08145 3.23969 2.54973 2.611 2.51842L2.611 2.46442C3.14852 2.35942 3.52803 1.87653 3.503 1.32942C3.503 0.574417 2.789 0.0134277 1.832 0.0134277C1.40355 -0.0394745 0.972511 0.0893097 0.643288 0.368561C0.314072 0.647827 0.116707 1.05208 0.098999 1.48343L0.923004 1.48343C0.934959 1.26469 1.03608 1.06044 1.20277 0.91832C1.36946 0.776199 1.58714 0.708649 1.805 0.73143C2.321 0.73143 2.653 1.01543 2.653 1.45242C2.64928 1.66727 2.55513 1.87057 2.39371 2.01239C2.23228 2.15421 2.01854 2.22139 1.80501 2.19742L1.205 2.19742L1.203 2.87743Z" id="Shape" fill="#F6D738" stroke="none" />
        <path d="M10.109 1.5744L10.109 1.58841L10.936 1.58841L10.936 1.5744C10.926 1.34419 11.0148 1.12065 11.18 0.960022C11.3452 0.799377 11.5712 0.716934 11.801 0.733414C12.0137 0.713989 12.225 0.783463 12.3847 0.925339C12.5444 1.06723 12.6383 1.26888 12.644 1.48241C12.644 1.83141 12.477 2.08241 11.803 2.77141L10.157 4.45241L10.157 5.06441L13.582 5.06441L13.582 4.31541L11.367 4.31541L11.367 4.2574L12.399 3.22241C13.236 2.3954 13.506 1.95741 13.506 1.42841C13.4833 1.01337 13.2906 0.626022 12.9733 0.357529C12.656 0.089035 12.2421 -0.0368805 11.829 0.00941467C11.3886 -0.0310059 10.9515 0.115494 10.6244 0.413132C10.2972 0.71077 10.1102 1.13216 10.109 1.5744L10.109 1.5744Z" id="Shape" fill="#F6D738" stroke="none" />
        <path d="M21.813 5.06439L22.695 5.06439L22.695 0.132385L21.817 0.132385L20.528 1.03239L20.528 1.88039L21.755 1.01939L21.813 1.01939L21.813 5.06439Z" id="Shape" fill="#F6D738" stroke="none" />
        <path d="M8.844 3.06439L5.844 5.06439L5.844 1.06439L8.844 3.06439Z" id="Shape" fill="#F6D738" stroke="none" />
        <path d="M18.844 3.06439L15.844 5.06439L15.844 1.06439L18.844 3.06439Z" id="Shape" fill="#F6D738" stroke="none" />
      </g>
    </g>
    <g id="Group" transform="translate(31 161)">
      <path d="M0 3L30 3L30 12L0 12L0 3Z" id="Rectangle" fill="#FFFFFF" fill-opacity="0.2" fill-rule="evenodd" stroke="none" />
      <path d="M0 0L30 0L30 2L0 2L0 0Z" id="Rectangle" fill="#FFFFFF" fill-opacity="0.2" fill-rule="evenodd" stroke="none" />
      <g id="Group" transform="translate(9.264999 4.935608)">
        <path d="M0 1.5744L0 1.58841L0.827 1.58841L0.827 1.5744C0.817001 1.34419 0.905773 1.12065 1.07099 0.960022C1.23621 0.799377 1.46215 0.716934 1.692 0.733414C1.90473 0.713989 2.11602 0.783463 2.27571 0.925339C2.43539 1.06723 2.52925 1.26888 2.535 1.48241C2.535 1.83141 2.368 2.08241 1.694 2.77141L0.0480003 4.45241L0.0480003 5.06441L3.473 5.06441L3.473 4.31541L1.258 4.31541L1.258 4.2574L2.29 3.22241C3.127 2.3954 3.397 1.95741 3.397 1.42841C3.37428 1.01337 3.18159 0.626022 2.86428 0.357529C2.54697 0.089035 2.13308 -0.0368805 1.72 0.00941467C1.27959 -0.0310059 0.842472 0.115494 0.515358 0.413132C0.18824 0.71077 0.00123596 1.13216 0 1.5744L0 1.5744Z" id="Shape" fill="#DBD7D7" stroke="none" />
        <path d="M11.704 5.06439L12.586 5.06439L12.586 0.132385L11.708 0.132385L10.419 1.03239L10.419 1.88039L11.646 1.01939L11.704 1.01939L11.704 5.06439Z" id="Shape" fill="#DBD7D7" stroke="none" />
        <path d="M8.735 3.06439L5.735 5.06439L5.735 1.06439L8.735 3.06439Z" id="Shape" fill="#DBD7D7" stroke="none" />
      </g>
    </g>
    <g id="Group" transform="translate(0 161)">
      <path d="M0 3L30 3L30 12L0 12L0 3Z" id="Rectangle" fill="#FFFFFF" fill-opacity="0.2" fill-rule="evenodd" stroke="none" />
      <path d="M0 0L30 0L30 2L0 2L0 0Z" id="Rectangle" fill="#FFFFFF" fill-opacity="0.2" fill-rule="evenodd" stroke="none" />
      <g id="Group" transform="translate(4.7699995 4.944336)">
        <path d="M0.854 5.05566L0.854 1.69966L0.912 1.69966L3.33 5.05566L4.092 5.05566L4.092 0.123657L3.244 0.123657L3.244 3.47667L3.186 3.47667L0.766 0.123657L0 0.123657L0 5.05566L0.854 5.05566ZM7.094 0.000686646C6.42428 -0.0156555 5.78073 0.260834 5.33155 0.757843C4.88237 1.25487 4.67221 1.92302 4.756 2.58768C4.66882 3.2534 4.87766 3.9239 5.32746 4.42238C5.77725 4.92084 6.42285 5.19724 7.094 5.17868C7.76336 5.19431 8.40612 4.9166 8.85351 4.41846C9.30089 3.92032 9.5082 3.25153 9.421 2.58768C9.50728 1.92441 9.29951 1.25653 8.8522 0.759247C8.40489 0.261963 7.76268 -0.0151215 7.094 0.000686646L7.094 0.000686646ZM7.094 0.783691C7.969 0.783691 8.519 1.48369 8.519 2.58369C8.519 3.6837 7.972 4.39569 7.094 4.39569C6.216 4.39569 5.658 3.6877 5.658 2.58769C5.658 1.4877 6.215 0.783691 7.094 0.783691L7.094 0.783691ZM12.478 5.05566L12.478 3.05566L14.546 3.05566L14.546 2.32066L12.478 2.32066L12.478 0.885666L14.74 0.885666L14.74 0.123657L11.596 0.123657L11.596 5.05566L12.478 5.05566ZM20.458 5.05566L20.458 0.123657L19.43 0.123657L17.942 3.71567L17.88 3.71567L16.397 0.123657L15.364 0.123657L15.364 5.05566L16.184 5.05566L16.184 1.58667L16.23 1.58667L17.596 4.86467L18.23 4.86467L19.589 1.58667L19.637 1.58667L19.637 5.05566L20.458 5.05566Z" id="Shape" fill="#DBD7D7" fill-rule="evenodd" stroke="none" />
      </g>
    </g>
    <g id="Group" transform="translate(93 161)">
      <path d="M0 3L30 3L30 12L0 12L0 3Z" id="Rectangle" fill="#FFFFFF" fill-opacity="0.2" fill-rule="evenodd" stroke="none" />
      <path d="M0 0L30 0L30 2L0 2L0 0Z" id="Rectangle" fill="#FFFFFF" fill-opacity="0.2" fill-rule="evenodd" stroke="none" />
      <g id="Group" transform="translate(3.2649994 4.935608)">
        <path d="M0 1.5744L0 1.58841L0.827003 1.58841L0.827003 1.5744C0.817001 1.34419 0.905769 1.12065 1.07099 0.960022C1.23621 0.799377 1.46215 0.716934 1.692 0.733414C1.90473 0.713989 2.11601 0.783463 2.2757 0.925339C2.43539 1.06723 2.52925 1.26888 2.535 1.48241C2.535 1.83141 2.368 2.08241 1.694 2.77141L0.0480041 4.45241L0.0480041 5.06441L3.473 5.06441L3.473 4.31541L1.258 4.31541L1.258 4.2574L2.29 3.22241C3.127 2.3954 3.397 1.95741 3.397 1.42841C3.37427 1.01337 3.18159 0.626022 2.86428 0.357529C2.54697 0.089035 2.13307 -0.0368805 1.72 0.00941467C1.27959 -0.0310059 0.842468 0.115494 0.515358 0.413132C0.18824 0.71077 0.00123596 1.13216 0 1.5744L0 1.5744Z" id="Shape" fill="#DBD7D7" stroke="none" />
        <path d="M11.704 5.06439L12.586 5.06439L12.586 0.132385L11.708 0.132385L10.419 1.03239L10.419 1.88039L11.646 1.01939L11.704 1.01939L11.704 5.06439Z" id="Shape" fill="#DBD7D7" stroke="none" />
        <path d="M21.094 2.87743L21.713 2.87743C22.321 2.87743 22.694 3.17743 22.694 3.65642C22.694 4.12143 22.294 4.44643 21.734 4.44643C21.174 4.44643 20.776 4.15543 20.735 3.69742L19.891 3.69742C19.9262 4.14272 20.1424 4.55411 20.4892 4.83568C20.8359 5.11725 21.283 5.24437 21.726 5.18742C22.799 5.18742 23.592 4.55843 23.592 3.71042C23.6169 3.08145 23.1307 2.54973 22.502 2.51842L22.502 2.46442C23.0395 2.35942 23.419 1.87653 23.394 1.32942C23.394 0.574417 22.68 0.0134277 21.723 0.0134277C21.2945 -0.0394745 20.8635 0.0893097 20.5343 0.368561C20.2051 0.647827 20.0077 1.05208 19.99 1.48343L20.814 1.48343C20.826 1.26469 20.9271 1.06044 21.0938 0.91832C21.2605 0.776199 21.4781 0.708649 21.696 0.73143C22.212 0.73143 22.544 1.01543 22.544 1.45242C22.5403 1.66727 22.4461 1.87057 22.2847 2.01239C22.1233 2.15421 21.9095 2.22139 21.696 2.19742L21.096 2.19742L21.094 2.87743Z" id="Shape" fill="#DBD7D7" stroke="none" />
        <path d="M8.735 3.06439L5.735 5.06439L5.735 1.06439L8.735 3.06439Z" id="Shape" fill="#DBD7D7" stroke="none" />
        <path d="M14.735 3.06439L17.735 1.06439L17.735 5.06439L14.735 3.06439Z" id="Shape" fill="#DBD7D7" stroke="none" />
      </g>
    </g>
    <g id="Group" transform="translate(62 219)">
      <path d="M0 3L30 3L30 12L0 12L0 3Z" id="Rectangle" fill="#FFFFFF" fill-opacity="0.2" fill-rule="evenodd" stroke="none" />
      <path d="M0 0L30 0L30 2L0 2L0 0Z" id="Rectangle" fill="#FFFFFF" fill-opacity="0.2" fill-rule="evenodd" stroke="none" />
      <g id="Group" transform="translate(3.1559982 4.935547)">
        <path d="M1.203 2.87736L1.822 2.87736C2.43 2.87736 2.803 3.17737 2.803 3.65636C2.803 4.12137 2.403 4.44637 1.843 4.44637C1.283 4.44637 0.885002 4.15536 0.844002 3.69736L0 3.69736C0.0352249 4.14265 0.251419 4.55405 0.598183 4.83562C0.944946 5.11719 1.39196 5.24431 1.835 5.18736C2.908 5.18736 3.701 4.55836 3.701 3.71036C3.72591 3.08139 3.23969 2.54967 2.611 2.51836L2.611 2.46436C3.14852 2.35936 3.52803 1.87646 3.503 1.32936C3.503 0.574356 2.789 0.0133667 1.832 0.0133667C1.40355 -0.0395355 0.972511 0.0892487 0.643288 0.3685C0.314072 0.647766 0.116707 1.05202 0.098999 1.48337L0.923004 1.48337C0.934959 1.26463 1.03608 1.06038 1.20277 0.918259C1.36946 0.776138 1.58714 0.708588 1.805 0.731369C2.321 0.731369 2.653 1.01537 2.653 1.45236C2.64928 1.66721 2.55513 1.87051 2.39371 2.01233C2.23228 2.15414 2.01854 2.22133 1.80501 2.19736L1.205 2.19736L1.203 2.87736Z" id="Shape" fill="#DBD7D7" stroke="none" />
        <path d="M10.109 1.5744L10.109 1.58841L10.936 1.58841L10.936 1.5744C10.926 1.34419 11.0148 1.12065 11.18 0.960022C11.3452 0.799377 11.5712 0.716934 11.801 0.733414C12.0137 0.713989 12.225 0.783463 12.3847 0.925339C12.5444 1.06723 12.6383 1.26888 12.644 1.48241C12.644 1.83141 12.477 2.08241 11.803 2.77141L10.157 4.45241L10.157 5.06441L13.582 5.06441L13.582 4.31541L11.367 4.31541L11.367 4.2574L12.399 3.22241C13.236 2.3954 13.506 1.95741 13.506 1.42841C13.4833 1.01337 13.2906 0.626022 12.9733 0.357529C12.656 0.089035 12.2421 -0.0368805 11.829 0.00941467C11.3886 -0.0310059 10.9515 0.115494 10.6244 0.413132C10.2972 0.71077 10.1102 1.13216 10.109 1.5744L10.109 1.5744Z" id="Shape" fill="#DBD7D7" stroke="none" />
        <path d="M21.813 5.06445L22.695 5.06445L22.695 0.132446L21.817 0.132446L20.528 1.03246L20.528 1.88045L21.755 1.01945L21.813 1.01945L21.813 5.06445Z" id="Shape" fill="#DBD7D7" stroke="none" />
        <path d="M8.844 3.06445L5.844 5.06445L5.844 1.06445L8.844 3.06445Z" id="Shape" fill="#DBD7D7" stroke="none" />
        <path d="M18.844 3.06445L15.844 5.06445L15.844 1.06445L18.844 3.06445Z" id="Shape" fill="#DBD7D7" stroke="none" />
      </g>
    </g>
    <g id="Group" transform="translate(31 219)">
      <path d="M0 3L30 3L30 12L0 12L0 3Z" id="Rectangle" fill="#FFFFFF" fill-opacity="0.2" fill-rule="evenodd" stroke="none" />
      <path d="M0 0L30 0L30 2L0 2L0 0Z" id="Rectangle" fill="#FFFFFF" fill-opacity="0.2" fill-rule="evenodd" stroke="none" />
      <g id="Group" transform="translate(9.264999 4.935547)">
        <path d="M0 1.5744L0 1.58841L0.827 1.58841L0.827 1.5744C0.817001 1.34419 0.905773 1.12065 1.07099 0.960022C1.23621 0.799377 1.46215 0.716934 1.692 0.733414C1.90473 0.713989 2.11602 0.783463 2.27571 0.925339C2.43539 1.06723 2.52925 1.26888 2.535 1.48241C2.535 1.83141 2.368 2.08241 1.694 2.77141L0.0480003 4.45241L0.0480003 5.06441L3.473 5.06441L3.473 4.31541L1.258 4.31541L1.258 4.2574L2.29 3.22241C3.127 2.3954 3.397 1.95741 3.397 1.42841C3.37428 1.01337 3.18159 0.626022 2.86428 0.357529C2.54697 0.089035 2.13308 -0.0368805 1.72 0.00941467C1.27959 -0.0310059 0.842472 0.115494 0.515358 0.413132C0.18824 0.71077 0.00123596 1.13216 0 1.5744L0 1.5744Z" id="Shape" fill="#DBD7D7" stroke="none" />
        <path d="M11.704 5.06445L12.586 5.06445L12.586 0.132446L11.708 0.132446L10.419 1.03246L10.419 1.88045L11.646 1.01945L11.704 1.01945L11.704 5.06445Z" id="Shape" fill="#DBD7D7" stroke="none" />
        <path d="M8.735 3.06445L5.735 5.06445L5.735 1.06445L8.735 3.06445Z" id="Shape" fill="#DBD7D7" stroke="none" />
      </g>
    </g>
    <g id="Group" transform="translate(0 219)">
      <path d="M0 3L30 3L30 12L0 12L0 3Z" id="Rectangle" fill="#FFFFFF" fill-opacity="0.2" fill-rule="evenodd" stroke="none" />
      <path d="M0 0L30 0L30 2L0 2L0 0Z" id="Rectangle" fill="#FFFFFF" fill-opacity="0.2" fill-rule="evenodd" stroke="none" />
      <g id="Group" transform="translate(4.7699995 4.944336)">
        <path d="M0.854 5.05566L0.854 1.69966L0.912 1.69966L3.33 5.05566L4.092 5.05566L4.092 0.123657L3.244 0.123657L3.244 3.47667L3.186 3.47667L0.766 0.123657L0 0.123657L0 5.05566L0.854 5.05566ZM7.094 0.000686646C6.42428 -0.0156555 5.78073 0.260834 5.33155 0.757843C4.88237 1.25487 4.67221 1.92302 4.756 2.58768C4.66882 3.2534 4.87766 3.9239 5.32746 4.42238C5.77725 4.92084 6.42285 5.19724 7.094 5.17868C7.76336 5.19431 8.40612 4.9166 8.85351 4.41846C9.30089 3.92032 9.5082 3.25153 9.421 2.58768C9.50728 1.92441 9.29951 1.25653 8.8522 0.759247C8.40489 0.261963 7.76268 -0.0151215 7.094 0.000686646L7.094 0.000686646ZM7.094 0.783691C7.969 0.783691 8.519 1.48369 8.519 2.58369C8.519 3.6837 7.972 4.39569 7.094 4.39569C6.216 4.39569 5.658 3.6877 5.658 2.58769C5.658 1.4877 6.215 0.783691 7.094 0.783691L7.094 0.783691ZM12.478 5.05566L12.478 3.05566L14.546 3.05566L14.546 2.32066L12.478 2.32066L12.478 0.885666L14.74 0.885666L14.74 0.123657L11.596 0.123657L11.596 5.05566L12.478 5.05566ZM20.458 5.05566L20.458 0.123657L19.43 0.123657L17.942 3.71567L17.88 3.71567L16.397 0.123657L15.364 0.123657L15.364 5.05566L16.184 5.05566L16.184 1.58667L16.23 1.58667L17.596 4.86467L18.23 4.86467L19.589 1.58667L19.637 1.58667L19.637 5.05566L20.458 5.05566Z" id="Shape" fill="#DBD7D7" fill-rule="evenodd" stroke="none" />
      </g>
    </g>
    <g id="Group" transform="translate(93 219)">
      <path d="M0 3L30 3L30 12L0 12L0 3Z" id="Rectangle" fill="#C89E83" fill-opacity="0.6" fill-rule="evenodd" stroke="none" />
      <path d="M0 0L30 0L30 2L0 2L0 0Z" id="Rectangle" fill="#F6D738" fill-rule="evenodd" stroke="none" />
      <g id="Group" transform="translate(3.2649994 4.935547)">
        <path d="M0 1.5744L0 1.58841L0.827003 1.58841L0.827003 1.5744C0.817001 1.34419 0.905769 1.12065 1.07099 0.960022C1.23621 0.799377 1.46215 0.716934 1.692 0.733414C1.90473 0.713989 2.11601 0.783463 2.2757 0.925339C2.43539 1.06723 2.52925 1.26888 2.535 1.48241C2.535 1.83141 2.368 2.08241 1.694 2.77141L0.0480041 4.45241L0.0480041 5.06441L3.473 5.06441L3.473 4.31541L1.258 4.31541L1.258 4.2574L2.29 3.22241C3.127 2.3954 3.397 1.95741 3.397 1.42841C3.37427 1.01337 3.18159 0.626022 2.86428 0.357529C2.54697 0.089035 2.13307 -0.0368805 1.72 0.00941467C1.27959 -0.0310059 0.842468 0.115494 0.515358 0.413132C0.18824 0.71077 0.00123596 1.13216 0 1.5744L0 1.5744Z" id="Shape" fill="#F6D738" stroke="none" />
        <path d="M11.704 5.06445L12.586 5.06445L12.586 0.132446L11.708 0.132446L10.419 1.03246L10.419 1.88045L11.646 1.01945L11.704 1.01945L11.704 5.06445Z" id="Shape" fill="#F6D738" stroke="none" />
        <path d="M21.094 2.87736L21.713 2.87736C22.321 2.87736 22.694 3.17737 22.694 3.65636C22.694 4.12137 22.294 4.44637 21.734 4.44637C21.174 4.44637 20.776 4.15536 20.735 3.69736L19.891 3.69736C19.9262 4.14265 20.1424 4.55405 20.4892 4.83562C20.8359 5.11719 21.283 5.24431 21.726 5.18736C22.799 5.18736 23.592 4.55836 23.592 3.71036C23.6169 3.08139 23.1307 2.54967 22.502 2.51836L22.502 2.46436C23.0395 2.35936 23.419 1.87646 23.394 1.32936C23.394 0.574356 22.68 0.0133667 21.723 0.0133667C21.2945 -0.0395355 20.8635 0.0892487 20.5343 0.3685C20.2051 0.647766 20.0077 1.05202 19.99 1.48337L20.814 1.48337C20.826 1.26463 20.9271 1.06038 21.0938 0.918259C21.2605 0.776138 21.4781 0.708588 21.696 0.731369C22.212 0.731369 22.544 1.01537 22.544 1.45236C22.5403 1.66721 22.4461 1.87051 22.2847 2.01233C22.1233 2.15414 21.9095 2.22133 21.696 2.19736L21.096 2.19736L21.094 2.87736Z" id="Shape" fill="#F6D738" stroke="none" />
        <path d="M8.735 3.06445L5.735 5.06445L5.735 1.06445L8.735 3.06445Z" id="Shape" fill="#F6D738" stroke="none" />
        <path d="M14.735 3.06445L17.735 1.06445L17.735 5.06445L14.735 3.06445Z" id="Shape" fill="#F6D738" stroke="none" />
      </g>
    </g>
    <path d="M0 1L117 1L117 3L0 3L0 1Z" id="Rectangle" fill="#EAC997" fill-rule="evenodd" stroke="none" />
    <path d="M116 1L117 1L117 11L116 11L116 1Z" id="Rectangle" fill="#EAC997" fill-rule="evenodd" stroke="none" />
    <g id="Group" transform="translate(4 22)">
      <path d="M0 0L13 0L13 13L0 13L0 0Z" id="Rectangle" fill="none" fill-rule="evenodd" stroke="none" />
      <path d="M0.5 0.5L12.5 0.5L12.5 12.5L0.5 12.5L0.5 0.5Z" id="Rectangle" fill="none" fill-rule="evenodd" stroke="#EAC997" stroke-width="1" />
    </g>
    <path d="M8.94 31.123C10.12 31.123 10.82 30.166 10.82 28.536C10.82 26.906 10.109 25.945 8.94 25.945C7.771 25.945 7.057 26.9 7.057 28.529C7.057 30.158 7.758 31.123 8.94 31.123L8.94 31.123ZM8.94 30.392C8.315 30.392 7.949 29.743 7.949 28.529C7.949 27.315 8.322 26.68 8.94 26.68C9.558 26.68 9.928 27.323 9.928 28.529C9.928 29.735 9.566 30.392 8.94 30.392L8.94 30.392ZM12.62 31L13.5 31L13.5 26.068L12.624 26.068L11.335 26.968L11.335 27.816L12.562 26.955L12.62 26.955L12.62 31Z" id="Shape" fill="#DBD7D7" fill-rule="evenodd" stroke="none" />
    <g id="Group" transform="translate(8 4)">
      <path d="M2.5 0L5 3L0 3L2.5 0Z" id="Shape" fill="#EAC895" stroke="none" />
      <path d="M2 3L3 3L3 18L2 18L2 3Z" id="Rectangle" fill="#EAC997" fill-rule="evenodd" stroke="none" />
    </g>
    <g id="Group" transform="translate(11 13)">
      <path d="M8 2.5L5 5L5 0L8 2.5Z" id="Shape" fill="#EAC895" fill-opacity="0.5" stroke="none" />
      <path d="M5 2L5 3L0 3L0 2L5 2Z" id="Rectangle" fill="#EAC997" fill-opacity="0.5" fill-rule="evenodd" stroke="none" />
    </g>
    <g id="Group" transform="translate(34 22)">
      <path d="M0 0L13 0L13 13L0 13L0 0Z" id="Rectangle" fill="none" fill-rule="evenodd" stroke="none" />
      <path d="M0.5 0.5L12.5 0.5L12.5 12.5L0.5 12.5L0.5 0.5Z" id="Rectangle" fill="none" fill-rule="evenodd" stroke="#EAC997" stroke-width="1" />
    </g>
    <path d="M38.474 31.123C39.653 31.123 40.354 30.166 40.354 28.536C40.354 26.906 39.643 25.945 38.474 25.945C37.305 25.945 36.591 26.9 36.591 28.529C36.591 30.158 37.291 31.123 38.474 31.123L38.474 31.123ZM38.474 30.392C37.849 30.392 37.483 29.743 37.483 28.529C37.483 27.315 37.856 26.68 38.474 26.68C39.092 26.68 39.462 27.323 39.462 28.529C39.462 29.735 39.1 30.392 38.474 30.392L38.474 30.392ZM40.916 27.51L40.916 27.524L41.743 27.524L41.743 27.51C41.733 27.2798 41.8218 27.0563 41.987 26.8956C42.1522 26.735 42.3782 26.6525 42.608 26.669C42.8204 26.6502 43.0312 26.7199 43.1904 26.8617C43.3496 27.0036 43.4432 27.2049 43.449 27.418C43.449 27.767 43.282 28.018 42.608 28.707L40.964 30.388L40.964 31L44.389 31L44.389 30.251L42.174 30.251L42.174 30.193L43.206 29.158C44.043 28.331 44.313 27.893 44.313 27.364C44.2903 26.949 44.0976 26.5616 43.7803 26.2931C43.463 26.0246 43.0491 25.8987 42.636 25.945C42.1956 25.9046 41.7585 26.0511 41.4314 26.3487C41.1042 26.6464 40.9172 27.0678 40.916 27.51L40.916 27.51Z" id="Shape" fill="#DBD7D7" fill-rule="evenodd" stroke="none" />
    <g id="Group" transform="translate(38 4)">
      <path d="M2.5 0L5 3L0 3L2.5 0Z" id="Shape" fill="#EAC895" stroke="none" />
      <path d="M2 3L3 3L3 18L2 18L2 3Z" id="Rectangle" fill="#EAC997" fill-rule="evenodd" stroke="none" />
    </g>
    <g id="Group" transform="translate(41 13)">
      <path d="M8 2.5L5 5L5 0L8 2.5Z" id="Shape" fill="#EAC895" fill-opacity="0.5" stroke="none" />
      <path d="M5 2L5 3L0 3L0 2L5 2Z" id="Rectangle" fill="#EAC997" fill-opacity="0.5" fill-rule="evenodd" stroke="none" />
    </g>
    <g id="Group" transform="translate(32 13)">
      <path d="M0 2.5L3 0L3 5L0 2.5Z" id="Shape" fill="#EAC895" fill-opacity="0.5" stroke="none" />
      <path d="M3 3L3 2L8 2L8 3L3 3Z" id="Rectangle" fill="#EAC997" fill-opacity="0.5" fill-rule="evenodd" stroke="none" />
    </g>
    <g id="Group" transform="translate(64 22)">
      <path d="M0 0L13 0L13 13L0 13L0 0Z" id="Rectangle" fill="none" fill-rule="evenodd" stroke="none" />
      <path d="M0.5 0.5L12.5 0.5L12.5 12.5L0.5 12.5L0.5 0.5Z" id="Rectangle" fill="none" fill-rule="evenodd" stroke="#EAC997" stroke-width="1" />
    </g>
    <path d="M68.405 31.123C69.584 31.123 70.285 30.166 70.285 28.536C70.285 26.906 69.574 25.945 68.405 25.945C67.236 25.945 66.522 26.9 66.522 28.529C66.522 30.158 67.223 31.123 68.405 31.123L68.405 31.123ZM68.405 30.392C67.78 30.392 67.414 29.743 67.414 28.529C67.414 27.315 67.787 26.68 68.405 26.68C69.023 26.68 69.393 27.323 69.393 28.529C69.393 29.735 69.031 30.392 68.405 30.392L68.405 30.392ZM71.993 28.813L72.612 28.813C73.22 28.813 73.593 29.113 73.593 29.592C73.593 30.057 73.193 30.382 72.633 30.382C72.073 30.382 71.676 30.091 71.638 29.633L70.793 29.633C70.8283 30.0777 71.0441 30.4886 71.3901 30.77C71.7362 31.0515 72.1824 31.1791 72.625 31.123C73.7 31.123 74.492 30.494 74.492 29.646C74.5169 29.0163 74.0295 28.4842 73.4 28.454L73.4 28.4C73.9375 28.295 74.317 27.8121 74.292 27.265C74.292 26.51 73.578 25.949 72.621 25.949C72.1934 25.8964 71.7632 26.0248 71.4344 26.3032C71.1055 26.5815 70.9078 26.9846 70.889 27.415L71.713 27.415C71.725 27.1963 71.8261 26.992 71.9928 26.8499C72.1595 26.7078 72.3771 26.6402 72.595 26.663C73.111 26.663 73.443 26.947 73.443 27.384C73.4393 27.5988 73.3451 27.8021 73.1837 27.944C73.0223 28.0858 72.8085 28.153 72.595 28.129L71.995 28.129L71.993 28.813Z" id="Shape" fill="#DBD7D7" fill-rule="evenodd" stroke="none" />
    <g id="Group" transform="translate(68 4)">
      <path d="M2.5 0L5 3L0 3L2.5 0Z" id="Shape" fill="#EAC895" stroke="none" />
      <path d="M2 3L3 3L3 18L2 18L2 3Z" id="Rectangle" fill="#EAC997" fill-rule="evenodd" stroke="none" />
    </g>
    <g id="Group" transform="translate(62 13)">
      <path d="M0 2.5L3 0L3 5L0 2.5Z" id="Shape" fill="#EAC895" fill-opacity="0.5" stroke="none" />
      <path d="M3 3L3 2L8 2L8 3L3 3Z" id="Rectangle" fill="#EAC997" fill-opacity="0.5" fill-rule="evenodd" stroke="none" />
    </g>
    <g id="Group" transform="translate(94 22)">
      <path d="M0 0L13 0L13 13L0 13L0 0Z" id="Rectangle" fill="none" fill-rule="evenodd" stroke="none" />
      <path d="M0.5 0.5L12.5 0.5L12.5 12.5L0.5 12.5L0.5 0.5Z" id="Rectangle" fill="none" fill-rule="evenodd" stroke="#EAC997" stroke-width="1" />
    </g>
    <path d="M99.3 31L99.3 27.644L99.358 27.644L101.782 31L102.544 31L102.544 26.068L101.7 26.068L101.7 29.421L101.638 29.421L99.218 26.068L98.452 26.068L98.452 31L99.3 31Z" id="Shape" fill="#DBD7D7" stroke="none" />
    <g id="Group" transform="translate(98 4)">
      <path d="M2.5 0L5 3L0 3L2.5 0Z" id="Shape" fill="#EAC895" stroke="none" />
      <path d="M2 3L3 3L3 18L2 18L2 3Z" id="Rectangle" fill="#EAC997" fill-rule="evenodd" stroke="none" />
    </g>
    <g id="Group" transform="translate(116 8)">
      <path d="M7 2.5L4 5L4 0L7 2.5Z" id="Shape" fill="#EAC895" stroke="none" />
      <path d="M4 2L4 3L0 3L0 2L4 2Z" id="Rectangle" fill="#EAC997" fill-rule="evenodd" stroke="none" />
    </g>
    <g id="Group" transform="translate(21 11)">
      <g id="Group">
        <path d="M0 4.5C0 2.01472 2.01472 0 4.5 0C6.98528 0 9 2.01472 9 4.5C9 6.98528 6.98528 9 4.5 9C2.01472 9 0 6.98528 0 4.5Z" id="Circle" fill="none" fill-rule="evenodd" stroke="none" />
        <path d="M0.5 4.5C0.5 2.29086 2.29086 0.5 4.5 0.5C6.70914 0.5 8.5 2.29086 8.5 4.5C8.5 6.70914 6.70914 8.5 4.5 8.5C2.29086 8.5 0.5 6.70914 0.5 4.5Z" id="Circle" fill="none" fill-rule="evenodd" stroke="#EAC997" stroke-width="1" />
      </g>
      <path d="M5.207 4.49999L6.621 5.91399L5.913 6.62499L4.5 5.20699L3.086 6.62499L2.374 5.91399L3.792 4.49999L2.374 3.08499L3.081 2.37799L4.499 3.79199L5.913 2.37899L6.62 3.08599L5.207 4.49999Z" id="Shape" fill="#EAC896" stroke="none" />
    </g>
    <g id="Group" transform="translate(51 11)">
      <g id="Group">
        <path d="M0 4.5C0 2.01472 2.01472 0 4.5 0C6.98528 0 9 2.01472 9 4.5C9 6.98528 6.98528 9 4.5 9C2.01472 9 0 6.98528 0 4.5Z" id="Circle" fill="none" fill-rule="evenodd" stroke="none" />
        <path d="M0.5 4.5C0.5 2.29086 2.29086 0.5 4.5 0.5C6.70914 0.5 8.5 2.29086 8.5 4.5C8.5 6.70914 6.70914 8.5 4.5 8.5C2.29086 8.5 0.5 6.70914 0.5 4.5Z" id="Circle" fill="none" fill-rule="evenodd" stroke="#EAC997" stroke-width="1" />
      </g>
      <path d="M5.207 4.49999L6.621 5.91399L5.913 6.62499L4.5 5.20699L3.086 6.62499L2.374 5.91399L3.792 4.49999L2.374 3.08499L3.081 2.37799L4.499 3.79199L5.913 2.37899L6.62 3.08599L5.207 4.49999Z" id="Shape" fill="#EAC896" stroke="none" />
    </g>
    <g id="Group" transform="translate(23 4)">
      <path d="M2.5 0L5 3L0 3L2.5 0Z" id="Shape" fill="#EAC895" fill-opacity="0.5" stroke="none" />
      <path d="M2 3L3 3L3 6L2 6L2 3Z" id="Rectangle" fill="#EAC997" fill-opacity="0.5" fill-rule="evenodd" stroke="none" />
    </g>
    <g id="Group" transform="translate(53 4)">
      <path d="M2.5 0L5 3L0 3L2.5 0Z" id="Shape" fill="#EAC895" fill-opacity="0.5" stroke="none" />
      <path d="M2 3L3 3L3 6L2 6L2 3Z" id="Rectangle" fill="#EAC997" fill-opacity="0.5" fill-rule="evenodd" stroke="none" />
    </g>
    <path d="M0 59L117 59L117 61L0 61L0 59Z" id="Rectangle" fill="#EAC997" fill-rule="evenodd" stroke="none" />
    <path d="M116 59L117 59L117 69L116 69L116 59Z" id="Rectangle" fill="#EAC997" fill-rule="evenodd" stroke="none" />
    <g id="Group" transform="translate(4 80)">
      <path d="M0 0L13 0L13 13L0 13L0 0Z" id="Rectangle" fill="none" fill-rule="evenodd" stroke="none" />
      <path d="M0.5 0.5L12.5 0.5L12.5 12.5L0.5 12.5L0.5 0.5Z" id="Rectangle" fill="none" fill-rule="evenodd" stroke="#EAC997" stroke-width="1" />
    </g>
    <path d="M8.94 89.123C10.12 89.123 10.82 88.166 10.82 86.536C10.82 84.906 10.109 83.945 8.94 83.945C7.771 83.945 7.057 84.9 7.057 86.529C7.057 88.158 7.758 89.123 8.94 89.123L8.94 89.123ZM8.94 88.392C8.315 88.392 7.949 87.743 7.949 86.529C7.949 85.315 8.322 84.68 8.94 84.68C9.558 84.68 9.928 85.323 9.928 86.529C9.928 87.735 9.566 88.392 8.94 88.392L8.94 88.392ZM12.62 89L13.5 89L13.5 84.068L12.624 84.068L11.335 84.968L11.335 85.816L12.562 84.955L12.62 84.955L12.62 89Z" id="Shape" fill="#DBD7D7" fill-rule="evenodd" stroke="none" />
    <g id="Group" transform="translate(8 62)">
      <path d="M2.5 0L5 3L0 3L2.5 0Z" id="Shape" fill="#EAC895" stroke="none" />
      <path d="M2 3L3 3L3 18L2 18L2 3Z" id="Rectangle" fill="#EAC997" fill-rule="evenodd" stroke="none" />
    </g>
    <g id="Group" transform="translate(11 71)">
      <path d="M8 2.5L5 5L5 0L8 2.5Z" id="Shape" fill="#EAC895" fill-opacity="0.5" stroke="none" />
      <path d="M5 2L5 3L0 3L0 2L5 2Z" id="Rectangle" fill="#EAC997" fill-opacity="0.5" fill-rule="evenodd" stroke="none" />
    </g>
    <g id="Group" transform="translate(34 80)">
      <path d="M0 0L13 0L13 13L0 13L0 0Z" id="Rectangle" fill="none" fill-rule="evenodd" stroke="none" />
      <path d="M0.5 0.5L12.5 0.5L12.5 12.5L0.5 12.5L0.5 0.5Z" id="Rectangle" fill="none" fill-rule="evenodd" stroke="#EAC997" stroke-width="1" />
    </g>
    <path d="M38.474 89.123C39.653 89.123 40.354 88.166 40.354 86.536C40.354 84.906 39.643 83.945 38.474 83.945C37.305 83.945 36.591 84.9 36.591 86.529C36.591 88.158 37.291 89.123 38.474 89.123L38.474 89.123ZM38.474 88.392C37.849 88.392 37.483 87.743 37.483 86.529C37.483 85.315 37.856 84.68 38.474 84.68C39.092 84.68 39.462 85.323 39.462 86.529C39.462 87.735 39.1 88.392 38.474 88.392L38.474 88.392ZM40.916 85.51L40.916 85.524L41.743 85.524L41.743 85.51C41.733 85.2798 41.8218 85.0563 41.987 84.8956C42.1522 84.735 42.3782 84.6525 42.608 84.669C42.8204 84.6502 43.0312 84.7199 43.1904 84.8617C43.3496 85.0036 43.4432 85.2049 43.449 85.418C43.449 85.767 43.282 86.018 42.608 86.707L40.964 88.388L40.964 89L44.389 89L44.389 88.251L42.174 88.251L42.174 88.193L43.206 87.158C44.043 86.331 44.313 85.893 44.313 85.364C44.2903 84.949 44.0976 84.5616 43.7803 84.2931C43.463 84.0247 43.0491 83.8987 42.636 83.945C42.1956 83.9046 41.7585 84.0511 41.4314 84.3487C41.1042 84.6464 40.9172 85.0678 40.916 85.51L40.916 85.51Z" id="Shape" fill="#DBD7D7" fill-rule="evenodd" stroke="none" />
    <g id="Group" transform="translate(38 62)">
      <path d="M2.5 0L5 3L0 3L2.5 0Z" id="Shape" fill="#EAC895" stroke="none" />
      <path d="M2 3L3 3L3 18L2 18L2 3Z" id="Rectangle" fill="#EAC997" fill-rule="evenodd" stroke="none" />
    </g>
    <g id="Group" transform="translate(41 71)">
      <path d="M8 2.5L5 5L5 0L8 2.5Z" id="Shape" fill="#EAC895" fill-opacity="0.5" stroke="none" />
      <path d="M5 2L5 3L0 3L0 2L5 2Z" id="Rectangle" fill="#EAC997" fill-opacity="0.5" fill-rule="evenodd" stroke="none" />
    </g>
    <g id="Group" transform="translate(32 71)">
      <path d="M0 2.5L3 0L3 5L0 2.5Z" id="Shape" fill="#EAC895" fill-opacity="0.5" stroke="none" />
      <path d="M3 3L3 2L8 2L8 3L3 3Z" id="Rectangle" fill="#EAC997" fill-opacity="0.5" fill-rule="evenodd" stroke="none" />
    </g>
    <g id="Group" transform="translate(64 80)">
      <path d="M0 0L13 0L13 13L0 13L0 0Z" id="Rectangle" fill="none" fill-rule="evenodd" stroke="none" />
      <path d="M0.5 0.5L12.5 0.5L12.5 12.5L0.5 12.5L0.5 0.5Z" id="Rectangle" fill="none" fill-rule="evenodd" stroke="#EAC997" stroke-width="1" />
    </g>
    <path d="M68.405 89.123C69.584 89.123 70.285 88.166 70.285 86.536C70.285 84.906 69.574 83.945 68.405 83.945C67.236 83.945 66.522 84.9 66.522 86.529C66.522 88.158 67.223 89.123 68.405 89.123L68.405 89.123ZM68.405 88.392C67.78 88.392 67.414 87.743 67.414 86.529C67.414 85.315 67.787 84.68 68.405 84.68C69.023 84.68 69.393 85.323 69.393 86.529C69.393 87.735 69.031 88.392 68.405 88.392L68.405 88.392ZM71.993 86.813L72.612 86.813C73.22 86.813 73.593 87.113 73.593 87.592C73.593 88.057 73.193 88.382 72.633 88.382C72.073 88.382 71.676 88.091 71.638 87.633L70.793 87.633C70.8283 88.0777 71.0441 88.4886 71.3901 88.77C71.7362 89.0515 72.1824 89.1791 72.625 89.123C73.7 89.123 74.492 88.494 74.492 87.646C74.5169 87.0163 74.0295 86.4842 73.4 86.454L73.4 86.4C73.9375 86.295 74.317 85.8121 74.292 85.265C74.292 84.51 73.578 83.949 72.621 83.949C72.1934 83.8964 71.7632 84.0248 71.4344 84.3032C71.1055 84.5815 70.9078 84.9846 70.889 85.415L71.713 85.415C71.725 85.1963 71.8261 84.992 71.9928 84.8499C72.1595 84.7078 72.3771 84.6402 72.595 84.663C73.111 84.663 73.443 84.947 73.443 85.384C73.4393 85.5988 73.3451 85.8021 73.1837 85.944C73.0223 86.0858 72.8085 86.153 72.595 86.129L71.995 86.129L71.993 86.813Z" id="Shape" fill="#DBD7D7" fill-rule="evenodd" stroke="none" />
    <g id="Group" transform="translate(68 62)">
      <path d="M2.5 0L5 3L0 3L2.5 0Z" id="Shape" fill="#EAC895" stroke="none" />
      <path d="M2 3L3 3L3 18L2 18L2 3Z" id="Rectangle" fill="#EAC997" fill-rule="evenodd" stroke="none" />
    </g>
    <g id="Group" transform="translate(62 71)">
      <path d="M0 2.5L3 0L3 5L0 2.5Z" id="Shape" fill="#EAC895" fill-opacity="0.5" stroke="none" />
      <path d="M3 3L3 2L8 2L8 3L3 3Z" id="Rectangle" fill="#EAC997" fill-opacity="0.5" fill-rule="evenodd" stroke="none" />
    </g>
    <g id="Group" transform="translate(94 80)">
      <path d="M0 0L13 0L13 13L0 13L0 0Z" id="Rectangle" fill="none" fill-rule="evenodd" stroke="none" />
      <path d="M0.5 0.5L12.5 0.5L12.5 12.5L0.5 12.5L0.5 0.5Z" id="Rectangle" fill="none" fill-rule="evenodd" stroke="#EAC997" stroke-width="1" />
    </g>
    <path d="M99.3 89L99.3 85.644L99.358 85.644L101.782 89L102.544 89L102.544 84.068L101.7 84.068L101.7 87.421L101.638 87.421L99.218 84.068L98.452 84.068L98.452 89L99.3 89Z" id="Shape" fill="#DBD7D7" stroke="none" />
    <g id="Group" transform="translate(98 62)">
      <path d="M2.5 0L5 3L0 3L2.5 0Z" id="Shape" fill="#EAC895" stroke="none" />
      <path d="M2 3L3 3L3 18L2 18L2 3Z" id="Rectangle" fill="#EAC997" fill-rule="evenodd" stroke="none" />
    </g>
    <g id="Group" transform="translate(116 66)">
      <path d="M7 2.5L4 5L4 0L7 2.5Z" id="Shape" fill="#EAC895" stroke="none" />
      <path d="M4 2L4 3L0 3L0 2L4 2Z" id="Rectangle" fill="#EAC997" fill-rule="evenodd" stroke="none" />
    </g>
    <g id="Group" transform="translate(18 84)">
      <g id="Group">
        <path d="M0 2.5L3 0L3 5L0 2.5Z" id="Shape" fill="#EAC895" stroke="none" />
        <path d="M3 3L3 2L15 2L15 3L3 3Z" id="Rectangle" fill="#EAC997" fill-rule="evenodd" stroke="none" />
      </g>
    </g>
    <g id="Group" transform="translate(21 69)">
      <g id="Group">
        <path d="M0 4.5C0 2.01472 2.01472 0 4.5 0C6.98528 0 9 2.01472 9 4.5C9 6.98528 6.98528 9 4.5 9C2.01472 9 0 6.98528 0 4.5Z" id="Circle" fill="none" fill-rule="evenodd" stroke="none" />
        <path d="M0.5 4.5C0.5 2.29086 2.29086 0.5 4.5 0.5C6.70914 0.5 8.5 2.29086 8.5 4.5C8.5 6.70914 6.70914 8.5 4.5 8.5C2.29086 8.5 0.5 6.70914 0.5 4.5Z" id="Circle" fill="none" fill-rule="evenodd" stroke="#EAC997" stroke-width="1" />
      </g>
      <path d="M5.207 4.49998L6.621 5.91399L5.913 6.62498L4.5 5.20699L3.086 6.62498L2.374 5.91399L3.792 4.49998L2.374 3.08499L3.081 2.37799L4.499 3.79198L5.913 2.37899L6.62 3.08599L5.207 4.49998Z" id="Shape" fill="#EAC896" stroke="none" />
    </g>
    <g id="Group" transform="translate(51 69)">
      <g id="Group">
        <path d="M0 4.5C0 2.01472 2.01472 0 4.5 0C6.98528 0 9 2.01472 9 4.5C9 6.98528 6.98528 9 4.5 9C2.01472 9 0 6.98528 0 4.5Z" id="Circle" fill="none" fill-rule="evenodd" stroke="none" />
        <path d="M0.5 4.5C0.5 2.29086 2.29086 0.5 4.5 0.5C6.70914 0.5 8.5 2.29086 8.5 4.5C8.5 6.70914 6.70914 8.5 4.5 8.5C2.29086 8.5 0.5 6.70914 0.5 4.5Z" id="Circle" fill="none" fill-rule="evenodd" stroke="#EAC997" stroke-width="1" />
      </g>
      <path d="M5.207 4.49998L6.621 5.91399L5.913 6.62498L4.5 5.20699L3.086 6.62498L2.374 5.91399L3.792 4.49998L2.374 3.08499L3.081 2.37799L4.499 3.79198L5.913 2.37899L6.62 3.08599L5.207 4.49998Z" id="Shape" fill="#EAC896" stroke="none" />
    </g>
    <g id="Group" transform="translate(23 62)">
      <path d="M2.5 0L5 3L0 3L2.5 0Z" id="Shape" fill="#EAC895" fill-opacity="0.5" stroke="none" />
      <path d="M2 3L3 3L3 6L2 6L2 3Z" id="Rectangle" fill="#EAC997" fill-opacity="0.5" fill-rule="evenodd" stroke="none" />
    </g>
    <g id="Group" transform="translate(53 62)">
      <path d="M2.5 0L5 3L0 3L2.5 0Z" id="Shape" fill="#EAC895" fill-opacity="0.5" stroke="none" />
      <path d="M2 3L3 3L3 6L2 6L2 3Z" id="Rectangle" fill="#EAC997" fill-opacity="0.5" fill-rule="evenodd" stroke="none" />
    </g>
    <path d="M0 117L117 117L117 119L0 119L0 117Z" id="Rectangle" fill="#EAC997" fill-rule="evenodd" stroke="none" />
    <path d="M116 117L117 117L117 127L116 127L116 117Z" id="Rectangle" fill="#EAC997" fill-rule="evenodd" stroke="none" />
    <g id="Group" transform="translate(4 138)">
      <path d="M0 0L13 0L13 13L0 13L0 0Z" id="Rectangle" fill="none" fill-rule="evenodd" stroke="none" />
      <path d="M0.5 0.5L12.5 0.5L12.5 12.5L0.5 12.5L0.5 0.5Z" id="Rectangle" fill="none" fill-rule="evenodd" stroke="#EAC997" stroke-width="1" />
    </g>
    <path d="M8.94 147.123C10.12 147.123 10.82 146.166 10.82 144.536C10.82 142.906 10.109 141.945 8.94 141.945C7.771 141.945 7.057 142.9 7.057 144.529C7.057 146.158 7.758 147.123 8.94 147.123L8.94 147.123ZM8.94 146.392C8.315 146.392 7.949 145.743 7.949 144.529C7.949 143.315 8.322 142.68 8.94 142.68C9.558 142.68 9.928 143.323 9.928 144.529C9.928 145.735 9.566 146.392 8.94 146.392L8.94 146.392ZM12.62 147L13.5 147L13.5 142.068L12.624 142.068L11.335 142.968L11.335 143.816L12.562 142.955L12.62 142.955L12.62 147Z" id="Shape" fill="#DBD7D7" fill-rule="evenodd" stroke="none" />
    <g id="Group" transform="translate(8 120)">
      <path d="M2.5 0L5 3L0 3L2.5 0Z" id="Shape" fill="#EAC895" stroke="none" />
      <path d="M2 3L3 3L3 18L2 18L2 3Z" id="Rectangle" fill="#EAC997" fill-rule="evenodd" stroke="none" />
    </g>
    <g id="Group" transform="translate(11 129)">
      <path d="M8 2.5L5 5L5 0L8 2.5Z" id="Shape" fill="#EAC895" fill-opacity="0.5" stroke="none" />
      <path d="M5 2L5 3L0 3L0 2L5 2Z" id="Rectangle" fill="#EAC997" fill-opacity="0.5" fill-rule="evenodd" stroke="none" />
    </g>
    <g id="Group" transform="translate(34 138)">
      <path d="M0 0L13 0L13 13L0 13L0 0Z" id="Rectangle" fill="none" fill-rule="evenodd" stroke="none" />
      <path d="M0.5 0.5L12.5 0.5L12.5 12.5L0.5 12.5L0.5 0.5Z" id="Rectangle" fill="none" fill-rule="evenodd" stroke="#EAC997" stroke-width="1" />
    </g>
    <path d="M38.474 147.123C39.653 147.123 40.354 146.166 40.354 144.536C40.354 142.906 39.643 141.945 38.474 141.945C37.305 141.945 36.591 142.9 36.591 144.529C36.591 146.158 37.291 147.123 38.474 147.123L38.474 147.123ZM38.474 146.392C37.849 146.392 37.483 145.743 37.483 144.529C37.483 143.315 37.856 142.68 38.474 142.68C39.092 142.68 39.462 143.323 39.462 144.529C39.462 145.735 39.1 146.392 38.474 146.392L38.474 146.392ZM40.916 143.51L40.916 143.524L41.743 143.524L41.743 143.51C41.733 143.28 41.8218 143.056 41.987 142.896C42.1522 142.735 42.3782 142.653 42.608 142.669C42.8204 142.65 43.0312 142.72 43.1904 142.862C43.3496 143.004 43.4432 143.205 43.449 143.418C43.449 143.767 43.282 144.018 42.608 144.707L40.964 146.388L40.964 147L44.389 147L44.389 146.251L42.174 146.251L42.174 146.193L43.206 145.158C44.043 144.331 44.313 143.893 44.313 143.364C44.2903 142.949 44.0976 142.562 43.7803 142.293C43.463 142.025 43.0491 141.899 42.636 141.945C42.1956 141.905 41.7585 142.051 41.4314 142.349C41.1042 142.646 40.9172 143.068 40.916 143.51L40.916 143.51Z" id="Shape" fill="#DBD7D7" fill-rule="evenodd" stroke="none" />
    <g id="Group" transform="translate(38 120)">
      <path d="M2.5 0L5 3L0 3L2.5 0Z" id="Shape" fill="#EAC895" stroke="none" />
      <path d="M2 3L3 3L3 18L2 18L2 3Z" id="Rectangle" fill="#EAC997" fill-rule="evenodd" stroke="none" />
    </g>
    <g id="Group" transform="translate(41 129)">
      <path d="M8 2.5L5 5L5 0L8 2.5Z" id="Shape" fill="#EAC895" fill-opacity="0.5" stroke="none" />
      <path d="M5 2L5 3L0 3L0 2L5 2Z" id="Rectangle" fill="#EAC997" fill-opacity="0.5" fill-rule="evenodd" stroke="none" />
    </g>
    <g id="Group" transform="translate(32 129)">
      <path d="M0 2.5L3 0L3 5L0 2.5Z" id="Shape" fill="#EAC895" fill-opacity="0.5" stroke="none" />
      <path d="M3 3L3 2L8 2L8 3L3 3Z" id="Rectangle" fill="#EAC997" fill-opacity="0.5" fill-rule="evenodd" stroke="none" />
    </g>
    <g id="Group" transform="translate(64 138)">
      <path d="M0 0L13 0L13 13L0 13L0 0Z" id="Rectangle" fill="none" fill-rule="evenodd" stroke="none" />
      <path d="M0.5 0.5L12.5 0.5L12.5 12.5L0.5 12.5L0.5 0.5Z" id="Rectangle" fill="none" fill-rule="evenodd" stroke="#EAC997" stroke-width="1" />
    </g>
    <path d="M68.405 147.123C69.584 147.123 70.285 146.166 70.285 144.536C70.285 142.906 69.574 141.945 68.405 141.945C67.236 141.945 66.522 142.9 66.522 144.529C66.522 146.158 67.223 147.123 68.405 147.123L68.405 147.123ZM68.405 146.392C67.78 146.392 67.414 145.743 67.414 144.529C67.414 143.315 67.787 142.68 68.405 142.68C69.023 142.68 69.393 143.323 69.393 144.529C69.393 145.735 69.031 146.392 68.405 146.392L68.405 146.392ZM71.993 144.813L72.612 144.813C73.22 144.813 73.593 145.113 73.593 145.592C73.593 146.057 73.193 146.382 72.633 146.382C72.073 146.382 71.676 146.091 71.638 145.633L70.793 145.633C70.8283 146.078 71.0441 146.489 71.3901 146.77C71.7362 147.052 72.1824 147.179 72.625 147.123C73.7 147.123 74.492 146.494 74.492 145.646C74.5169 145.016 74.0295 144.484 73.4 144.454L73.4 144.4C73.9375 144.295 74.317 143.812 74.292 143.265C74.292 142.51 73.578 141.949 72.621 141.949C72.1934 141.896 71.7632 142.025 71.4344 142.303C71.1055 142.582 70.9078 142.985 70.889 143.415L71.713 143.415C71.725 143.196 71.8261 142.992 71.9928 142.85C72.1595 142.708 72.3771 142.64 72.595 142.663C73.111 142.663 73.443 142.947 73.443 143.384C73.4393 143.599 73.3451 143.802 73.1837 143.944C73.0223 144.086 72.8085 144.153 72.595 144.129L71.995 144.129L71.993 144.813Z" id="Shape" fill="#DBD7D7" fill-rule="evenodd" stroke="none" />
    <g id="Group" transform="translate(68 120)">
      <path d="M2.5 0L5 3L0 3L2.5 0Z" id="Shape" fill="#EAC895" stroke="none" />
      <path d="M2 3L3 3L3 18L2 18L2 3Z" id="Rectangle" fill="#EAC997" fill-rule="evenodd" stroke="none" />
    </g>
    <g id="Group" transform="translate(62 129)">
      <path d="M0 2.5L3 0L3 5L0 2.5Z" id="Shape" fill="#EAC895" fill-opacity="0.5" stroke="none" />
      <path d="M3 3L3 2L8 2L8 3L3 3Z" id="Rectangle" fill="#EAC997" fill-opacity="0.5" fill-rule="evenodd" stroke="none" />
    </g>
    <g id="Group" transform="translate(94 138)">
      <path d="M0 0L13 0L13 13L0 13L0 0Z" id="Rectangle" fill="none" fill-rule="evenodd" stroke="none" />
      <path d="M0.5 0.5L12.5 0.5L12.5 12.5L0.5 12.5L0.5 0.5Z" id="Rectangle" fill="none" fill-rule="evenodd" stroke="#EAC997" stroke-width="1" />
    </g>
    <path d="M99.3 147L99.3 143.644L99.358 143.644L101.782 147L102.544 147L102.544 142.068L101.7 142.068L101.7 145.421L101.638 145.421L99.218 142.068L98.452 142.068L98.452 147L99.3 147Z" id="Shape" fill="#DBD7D7" stroke="none" />
    <g id="Group" transform="translate(98 120)">
      <path d="M2.5 0L5 3L0 3L2.5 0Z" id="Shape" fill="#EAC895" stroke="none" />
      <path d="M2 3L3 3L3 18L2 18L2 3Z" id="Rectangle" fill="#EAC997" fill-rule="evenodd" stroke="none" />
    </g>
    <g id="Group" transform="translate(116 124)">
      <path d="M7 2.5L4 5L4 0L7 2.5Z" id="Shape" fill="#EAC895" stroke="none" />
      <path d="M4 2L4 3L0 3L0 2L4 2Z" id="Rectangle" fill="#EAC997" fill-rule="evenodd" stroke="none" />
    </g>
    <g id="Group" transform="translate(18 142)">
      <g id="Group">
        <path d="M0 2.5L3 0L3 5L0 2.5Z" id="Shape" fill="#EAC895" stroke="none" />
        <path d="M3 3L3 2L15 2L15 3L3 3Z" id="Rectangle" fill="#EAC997" fill-rule="evenodd" stroke="none" />
      </g>
      <g id="Group" transform="translate(30 0)">
        <path d="M0 2.5L3 0L3 5L0 2.5Z" id="Shape" fill="#EAC895" stroke="none" />
        <path d="M3 3L3 2L15 2L15 3L3 3Z" id="Rectangle" fill="#EAC997" fill-rule="evenodd" stroke="none" />
      </g>
    </g>
    <g id="Group" transform="translate(21 127)">
      <g id="Group">
        <path d="M0 4.5C0 2.01472 2.01472 0 4.5 0C6.98528 0 9 2.01472 9 4.5C9 6.98528 6.98528 9 4.5 9C2.01472 9 0 6.98528 0 4.5Z" id="Circle" fill="none" fill-rule="evenodd" stroke="none" />
        <path d="M0.5 4.5C0.5 2.29086 2.29086 0.5 4.5 0.5C6.70914 0.5 8.5 2.29086 8.5 4.5C8.5 6.70914 6.70914 8.5 4.5 8.5C2.29086 8.5 0.5 6.70914 0.5 4.5Z" id="Circle" fill="none" fill-rule="evenodd" stroke="#EAC997" stroke-width="1" />
      </g>
      <path d="M5.207 4.49998L6.621 5.91399L5.913 6.62498L4.5 5.20699L3.086 6.62498L2.374 5.91399L3.792 4.49998L2.374 3.08499L3.081 2.37799L4.499 3.79198L5.913 2.37899L6.62 3.08599L5.207 4.49998Z" id="Shape" fill="#EAC896" stroke="none" />
    </g>
    <g id="Group" transform="translate(51 127)">
      <g id="Group">
        <path d="M0 4.5C0 2.01472 2.01472 0 4.5 0C6.98528 0 9 2.01472 9 4.5C9 6.98528 6.98528 9 4.5 9C2.01472 9 0 6.98528 0 4.5Z" id="Circle" fill="none" fill-rule="evenodd" stroke="none" />
        <path d="M0.5 4.5C0.5 2.29086 2.29086 0.5 4.5 0.5C6.70914 0.5 8.5 2.29086 8.5 4.5C8.5 6.70914 6.70914 8.5 4.5 8.5C2.29086 8.5 0.5 6.70914 0.5 4.5Z" id="Circle" fill="none" fill-rule="evenodd" stroke="#EAC997" stroke-width="1" />
      </g>
      <path d="M5.207 4.49998L6.621 5.91399L5.913 6.62498L4.5 5.20699L3.086 6.62498L2.374 5.91399L3.792 4.49998L2.374 3.08499L3.081 2.37799L4.499 3.79198L5.913 2.37899L6.62 3.08599L5.207 4.49998Z" id="Shape" fill="#EAC896" stroke="none" />
    </g>
    <g id="Group" transform="translate(23 120)">
      <path d="M2.5 0L5 3L0 3L2.5 0Z" id="Shape" fill="#EAC895" fill-opacity="0.5" stroke="none" />
      <path d="M2 3L3 3L3 6L2 6L2 3Z" id="Rectangle" fill="#EAC997" fill-opacity="0.5" fill-rule="evenodd" stroke="none" />
    </g>
    <g id="Group" transform="translate(53 120)">
      <path d="M2.5 0L5 3L0 3L2.5 0Z" id="Shape" fill="#EAC895" fill-opacity="0.5" stroke="none" />
      <path d="M2 3L3 3L3 6L2 6L2 3Z" id="Rectangle" fill="#EAC997" fill-opacity="0.5" fill-rule="evenodd" stroke="none" />
    </g>
    <path d="M0 175L117 175L117 177L0 177L0 175Z" id="Rectangle" fill="#EAC997" fill-rule="evenodd" stroke="none" />
    <path d="M116 175L117 175L117 185L116 185L116 175Z" id="Rectangle" fill="#EAC997" fill-rule="evenodd" stroke="none" />
    <g id="Group" transform="translate(4 196)">
      <path d="M0 0L13 0L13 13L0 13L0 0Z" id="Rectangle" fill="none" fill-rule="evenodd" stroke="none" />
      <path d="M0.5 0.5L12.5 0.5L12.5 12.5L0.5 12.5L0.5 0.5Z" id="Rectangle" fill="none" fill-rule="evenodd" stroke="#EAC997" stroke-width="1" />
    </g>
    <path d="M8.94 205.123C10.12 205.123 10.82 204.166 10.82 202.536C10.82 200.906 10.109 199.945 8.94 199.945C7.771 199.945 7.057 200.9 7.057 202.529C7.057 204.158 7.758 205.123 8.94 205.123L8.94 205.123ZM8.94 204.392C8.315 204.392 7.949 203.743 7.949 202.529C7.949 201.315 8.322 200.68 8.94 200.68C9.558 200.68 9.928 201.323 9.928 202.529C9.928 203.735 9.566 204.392 8.94 204.392L8.94 204.392ZM12.62 205L13.5 205L13.5 200.068L12.624 200.068L11.335 200.968L11.335 201.816L12.562 200.955L12.62 200.955L12.62 205Z" id="Shape" fill="#DBD7D7" fill-rule="evenodd" stroke="none" />
    <g id="Group" transform="translate(8 178)">
      <path d="M2.5 0L5 3L0 3L2.5 0Z" id="Shape" fill="#EAC895" stroke="none" />
      <path d="M2 3L3 3L3 18L2 18L2 3Z" id="Rectangle" fill="#EAC997" fill-rule="evenodd" stroke="none" />
    </g>
    <g id="Group" transform="translate(11 187)">
      <path d="M8 2.5L5 5L5 0L8 2.5Z" id="Shape" fill="#EAC895" fill-opacity="0.5" stroke="none" />
      <path d="M5 2L5 3L0 3L0 2L5 2Z" id="Rectangle" fill="#EAC997" fill-opacity="0.5" fill-rule="evenodd" stroke="none" />
    </g>
    <g id="Group" transform="translate(34 196)">
      <path d="M0 0L13 0L13 13L0 13L0 0Z" id="Rectangle" fill="none" fill-rule="evenodd" stroke="none" />
      <path d="M0.5 0.5L12.5 0.5L12.5 12.5L0.5 12.5L0.5 0.5Z" id="Rectangle" fill="none" fill-rule="evenodd" stroke="#EAC997" stroke-width="1" />
    </g>
    <path d="M38.474 205.123C39.653 205.123 40.354 204.166 40.354 202.536C40.354 200.906 39.643 199.945 38.474 199.945C37.305 199.945 36.591 200.9 36.591 202.529C36.591 204.158 37.291 205.123 38.474 205.123L38.474 205.123ZM38.474 204.392C37.849 204.392 37.483 203.743 37.483 202.529C37.483 201.315 37.856 200.68 38.474 200.68C39.092 200.68 39.462 201.323 39.462 202.529C39.462 203.735 39.1 204.392 38.474 204.392L38.474 204.392ZM40.916 201.51L40.916 201.524L41.743 201.524L41.743 201.51C41.733 201.28 41.8218 201.056 41.987 200.896C42.1522 200.735 42.3782 200.652 42.608 200.669C42.8204 200.65 43.0312 200.72 43.1904 200.862C43.3496 201.003 43.4432 201.205 43.449 201.418C43.449 201.767 43.282 202.018 42.608 202.707L40.964 204.388L40.964 205L44.389 205L44.389 204.251L42.174 204.251L42.174 204.193L43.206 203.158C44.043 202.331 44.313 201.893 44.313 201.364C44.2903 200.949 44.0976 200.562 43.7803 200.293C43.463 200.025 43.0491 199.899 42.636 199.945C42.1956 199.905 41.7585 200.051 41.4314 200.349C41.1042 200.646 40.9172 201.068 40.916 201.51L40.916 201.51Z" id="Shape" fill="#DBD7D7" fill-rule="evenodd" stroke="none" />
    <g id="Group" transform="translate(38 178)">
      <path d="M2.5 0L5 3L0 3L2.5 0Z" id="Shape" fill="#EAC895" stroke="none" />
      <path d="M2 3L3 3L3 18L2 18L2 3Z" id="Rectangle" fill="#EAC997" fill-rule="evenodd" stroke="none" />
    </g>
    <g id="Group" transform="translate(41 187)">
      <path d="M8 2.5L5 5L5 0L8 2.5Z" id="Shape" fill="#EAC895" fill-opacity="0.5" stroke="none" />
      <path d="M5 2L5 3L0 3L0 2L5 2Z" id="Rectangle" fill="#EAC997" fill-opacity="0.5" fill-rule="evenodd" stroke="none" />
    </g>
    <g id="Group" transform="translate(32 187)">
      <path d="M0 2.5L3 0L3 5L0 2.5Z" id="Shape" fill="#EAC895" fill-opacity="0.5" stroke="none" />
      <path d="M3 3L3 2L8 2L8 3L3 3Z" id="Rectangle" fill="#EAC997" fill-opacity="0.5" fill-rule="evenodd" stroke="none" />
    </g>
    <g id="Group" transform="translate(64 196)">
      <path d="M0 0L13 0L13 13L0 13L0 0Z" id="Rectangle" fill="none" fill-rule="evenodd" stroke="none" />
      <path d="M0.5 0.5L12.5 0.5L12.5 12.5L0.5 12.5L0.5 0.5Z" id="Rectangle" fill="none" fill-rule="evenodd" stroke="#EAC997" stroke-width="1" />
    </g>
    <path d="M68.405 205.123C69.584 205.123 70.285 204.166 70.285 202.536C70.285 200.906 69.574 199.945 68.405 199.945C67.236 199.945 66.522 200.9 66.522 202.529C66.522 204.158 67.223 205.123 68.405 205.123L68.405 205.123ZM68.405 204.392C67.78 204.392 67.414 203.743 67.414 202.529C67.414 201.315 67.787 200.68 68.405 200.68C69.023 200.68 69.393 201.323 69.393 202.529C69.393 203.735 69.031 204.392 68.405 204.392L68.405 204.392ZM71.993 202.813L72.612 202.813C73.22 202.813 73.593 203.113 73.593 203.592C73.593 204.057 73.193 204.382 72.633 204.382C72.073 204.382 71.676 204.091 71.638 203.633L70.793 203.633C70.8283 204.078 71.0441 204.489 71.3901 204.77C71.7362 205.052 72.1824 205.179 72.625 205.123C73.7 205.123 74.492 204.494 74.492 203.646C74.5169 203.016 74.0295 202.484 73.4 202.454L73.4 202.4C73.9375 202.295 74.317 201.812 74.292 201.265C74.292 200.51 73.578 199.949 72.621 199.949C72.1934 199.896 71.7632 200.025 71.4344 200.303C71.1055 200.582 70.9078 200.985 70.889 201.415L71.713 201.415C71.725 201.196 71.8261 200.992 71.9928 200.85C72.1595 200.708 72.3771 200.64 72.595 200.663C73.111 200.663 73.443 200.947 73.443 201.384C73.4393 201.599 73.3451 201.802 73.1837 201.944C73.0223 202.086 72.8085 202.153 72.595 202.129L71.995 202.129L71.993 202.813Z" id="Shape" fill="#DBD7D7" fill-rule="evenodd" stroke="none" />
    <g id="Group" transform="translate(68 178)">
      <path d="M2.5 0L5 3L0 3L2.5 0Z" id="Shape" fill="#EAC895" stroke="none" />
      <path d="M2 3L3 3L3 18L2 18L2 3Z" id="Rectangle" fill="#EAC997" fill-rule="evenodd" stroke="none" />
    </g>
    <g id="Group" transform="translate(62 187)">
      <path d="M0 2.5L3 0L3 5L0 2.5Z" id="Shape" fill="#EAC895" fill-opacity="0.5" stroke="none" />
      <path d="M3 3L3 2L8 2L8 3L3 3Z" id="Rectangle" fill="#EAC997" fill-opacity="0.5" fill-rule="evenodd" stroke="none" />
    </g>
    <g id="Group" transform="translate(94 196)">
      <path d="M0 0L13 0L13 13L0 13L0 0Z" id="Rectangle" fill="none" fill-rule="evenodd" stroke="none" />
      <path d="M0.5 0.5L12.5 0.5L12.5 12.5L0.5 12.5L0.5 0.5Z" id="Rectangle" fill="none" fill-rule="evenodd" stroke="#EAC997" stroke-width="1" />
    </g>
    <path d="M99.3 205L99.3 201.644L99.358 201.644L101.782 205L102.544 205L102.544 200.068L101.7 200.068L101.7 203.421L101.638 203.421L99.218 200.068L98.452 200.068L98.452 205L99.3 205Z" id="Shape" fill="#DBD7D7" stroke="none" />
    <g id="Group" transform="translate(98 178)">
      <path d="M2.5 0L5 3L0 3L2.5 0Z" id="Shape" fill="#EAC895" stroke="none" />
      <path d="M2 3L3 3L3 18L2 18L2 3Z" id="Rectangle" fill="#EAC997" fill-rule="evenodd" stroke="none" />
    </g>
    <g id="Group" transform="translate(116 182)">
      <path d="M7 2.5L4 5L4 0L7 2.5Z" id="Shape" fill="#EAC895" stroke="none" />
      <path d="M4 2L4 3L0 3L0 2L4 2Z" id="Rectangle" fill="#EAC997" fill-rule="evenodd" stroke="none" />
    </g>
    <g id="Group" transform="translate(18 200)">
      <g id="Group">
        <path d="M0 2.5L3 0L3 5L0 2.5Z" id="Shape" fill="#EAC895" stroke="none" />
        <path d="M3 3L3 2L15 2L15 3L3 3Z" id="Rectangle" fill="#EAC997" fill-rule="evenodd" stroke="none" />
      </g>
      <path d="M7 13L7 3L8 3L8 12L52 12L52 9L53 9L53 13L7 13Z" id="Shape" fill="#EAC997" stroke="none" />
    </g>
    <g id="Group" transform="translate(21 185)">
      <g id="Group">
        <path d="M0 4.5C0 2.01472 2.01472 0 4.5 0C6.98528 0 9 2.01472 9 4.5C9 6.98528 6.98528 9 4.5 9C2.01472 9 0 6.98528 0 4.5Z" id="Circle" fill="none" fill-rule="evenodd" stroke="none" />
        <path d="M0.5 4.5C0.5 2.29086 2.29086 0.5 4.5 0.5C6.70914 0.5 8.5 2.29086 8.5 4.5C8.5 6.70914 6.70914 8.5 4.5 8.5C2.29086 8.5 0.5 6.70914 0.5 4.5Z" id="Circle" fill="none" fill-rule="evenodd" stroke="#EAC997" stroke-width="1" />
      </g>
      <path d="M5.207 4.50005L6.621 5.91405L5.913 6.62505L4.5 5.20705L3.086 6.62505L2.374 5.91405L3.792 4.50005L2.374 3.08505L3.081 2.37805L4.499 3.79205L5.913 2.37904L6.62 3.08604L5.207 4.50005Z" id="Shape" fill="#EAC896" stroke="none" />
    </g>
    <g id="Group" transform="translate(51 185)">
      <g id="Group">
        <path d="M0 4.5C0 2.01472 2.01472 0 4.5 0C6.98528 0 9 2.01472 9 4.5C9 6.98528 6.98528 9 4.5 9C2.01472 9 0 6.98528 0 4.5Z" id="Circle" fill="none" fill-rule="evenodd" stroke="none" />
        <path d="M0.5 4.5C0.5 2.29086 2.29086 0.5 4.5 0.5C6.70914 0.5 8.5 2.29086 8.5 4.5C8.5 6.70914 6.70914 8.5 4.5 8.5C2.29086 8.5 0.5 6.70914 0.5 4.5Z" id="Circle" fill="none" fill-rule="evenodd" stroke="#EAC997" stroke-width="1" />
      </g>
      <path d="M5.207 4.50005L6.621 5.91405L5.913 6.62505L4.5 5.20705L3.086 6.62505L2.374 5.91405L3.792 4.50005L2.374 3.08505L3.081 2.37805L4.499 3.79205L5.913 2.37904L6.62 3.08604L5.207 4.50005Z" id="Shape" fill="#EAC896" stroke="none" />
    </g>
    <g id="Group" transform="translate(23 178)">
      <path d="M2.5 0L5 3L0 3L2.5 0Z" id="Shape" fill="#EAC895" fill-opacity="0.5" stroke="none" />
      <path d="M2 3L3 3L3 6L2 6L2 3Z" id="Rectangle" fill="#EAC997" fill-opacity="0.5" fill-rule="evenodd" stroke="none" />
    </g>
    <g id="Group" transform="translate(53 178)">
      <path d="M2.5 0L5 3L0 3L2.5 0Z" id="Shape" fill="#EAC895" fill-opacity="0.5" stroke="none" />
      <path d="M2 3L3 3L3 6L2 6L2 3Z" id="Rectangle" fill="#EAC997" fill-opacity="0.5" fill-rule="evenodd" stroke="none" />
    </g>
  </g>
</svg>