<?xml version="1.0" encoding="UTF-8" standalone="no"?>
<svg
   xmlns:dc="http://purl.org/dc/elements/1.1/"
   xmlns:cc="http://creativecommons.org/ns#"
   xmlns:rdf="http://www.w3.org/1999/02/22-rdf-syntax-ns#"
   xmlns:svg="http://www.w3.org/2000/svg"
   xmlns="http://www.w3.org/2000/svg"
   xmlns:xlink="http://www.w3.org/1999/xlink"
   xmlns:sodipodi="http://sodipodi.sourceforge.net/DTD/sodipodi-0.dtd"
   xmlns:inkscape="http://www.inkscape.org/namespaces/inkscape"
   width="90"
   height="28"
   viewBox="0 0 90 28"
   fill="none"
   version="1.1"
   id="svg50097"
   sodipodi:docname="bmp00307.svg"
   inkscape:version="1.0.1 (3bc2e813f5, 2020-09-07)">
  <metadata
     id="metadata50103">
    <rdf:RDF>
      <cc:Work
         rdf:about="">
        <dc:format>image/svg+xml</dc:format>
        <dc:type
           rdf:resource="http://purl.org/dc/dcmitype/StillImage" />
        <dc:title></dc:title>
      </cc:Work>
    </rdf:RDF>
  </metadata>
  <defs
     id="defs50101">
    <linearGradient
       x1="0.5"
       y1="0"
       x2="0.5"
       y2="1"
       id="linearGradient10622">
      <stop
         offset="0"
         stop-color="#787477"
         id="stop10618"
         style="stop-color:#746f71;stop-opacity:1" />
      <stop
         offset="1"
         stop-color="#716B6C"
         id="stop10620"
         style="stop-color:#696466;stop-opacity:1" />
    </linearGradient>
    <linearGradient
       inkscape:collect="always"
       xlink:href="#linearGradient10622"
       id="linearGradient51662"
       gradientUnits="userSpaceOnUse"
       gradientTransform="matrix(-1,0,0,1,76,3.15e-4)"
       x1="8.953125"
       y1="0.78125"
       x2="8.9664249"
       y2="11.950889" />
    <linearGradient
       inkscape:collect="always"
       xlink:href="#linearGradient10622"
       id="linearGradient51700"
       gradientUnits="userSpaceOnUse"
       gradientTransform="translate(0,14.000315)"
       x1="8.953125"
       y1="0.78125"
       x2="8.9664249"
       y2="11.950889" />
  </defs>
  <sodipodi:namedview
     pagecolor="#373737"
     bordercolor="#ff0000"
     borderopacity="1"
     objecttolerance="10"
     gridtolerance="10"
     guidetolerance="10"
     inkscape:pageopacity="0"
     inkscape:pageshadow="2"
     inkscape:window-width="3753"
     inkscape:window-height="2137"
     id="namedview50099"
     showgrid="false"
     inkscape:showpageshadow="false"
     inkscape:zoom="22.627417"
     inkscape:cx="56.696222"
     inkscape:cy="3.4188012"
     inkscape:window-x="-8"
     inkscape:window-y="-8"
     inkscape:window-maximized="1"
     inkscape:current-layer="svg50097"
     inkscape:document-rotation="0" />
  <path
     id="path36304"
     style="opacity:0.13;fill:#ffffff;fill-opacity:1;stroke:none;stroke-width:1.17249;stroke-linecap:butt;stroke-linejoin:miter;stroke-miterlimit:4;stroke-dasharray:none;stroke-opacity:1;paint-order:stroke markers fill"
     d="M 44.993097,13.499695 1.61745,13.5 C 0.7137299,13.500006 0,12.811824 0,11.936659 V 2.0800264 C 0,1.2048603 0.7275427,0.50031178 1.6312628,0.500305 L 45.00691,0.5 44.99309,13.499695 Z"
     sodipodi:nodetypes="cssssccc" />
  <path
     id="path36306"
     style="fill:#0a090a;fill-opacity:1;stroke:none;stroke-width:1.17227;stroke-linecap:butt;stroke-linejoin:miter;stroke-miterlimit:4;stroke-dasharray:none;stroke-opacity:1;paint-order:stroke markers fill"
     d="M 44.986192,12.999695 1.6168413,13 C 0.7134613,13.000006 0,12.311824 0,11.436659 V 1.5800264 C 0,0.70486028 0.7272689,3.1177712e-4 1.6306489,3.0499935e-4 L 45,0 v 12.999695 z"
     sodipodi:nodetypes="cssssccc" />
  <path
     id="path36308"
     style="fill:#413f40;fill-opacity:1;stroke:none;stroke-width:1.11;stroke-linecap:butt;stroke-linejoin:miter;stroke-miterlimit:4;stroke-dasharray:none;stroke-opacity:1;paint-order:stroke markers fill"
     d="M 1.846436,0.414189 H 45.000002 L 44.999998,12.3 H 1.846432 C 1.055871,12.3 0.419427,11.606905 0.419427,10.816345 V 1.841193 c 0,-0.79056 0.636444,-1.427004 1.427005,-1.427004 z"
     sodipodi:nodetypes="sccsssss" />
  <path
     id="path36286"
     style="opacity:0.13;fill:#ffffff;fill-opacity:1;stroke:none;stroke-width:1.17249;stroke-linecap:butt;stroke-linejoin:miter;stroke-miterlimit:4;stroke-dasharray:none;stroke-opacity:1;paint-order:stroke markers fill"
     d="M 45.367605,13.499695 88.378644,13.5 c 0.90372,6e-6 1.61745,-0.688176 1.61745,-1.563341 V 2.0800264 c 0,-0.8751661 -0.727543,-1.57971499 -1.631263,-1.5797214 L 45.353792,0.5 l 0.01382,12.999695 z"
     sodipodi:nodetypes="cssssccc" />
  <path
     id="path36288"
     style="fill:#0a090a;fill-opacity:1;stroke:none;stroke-width:1.17236;stroke-linecap:butt;stroke-linejoin:miter;stroke-miterlimit:4;stroke-dasharray:none;stroke-opacity:1;paint-order:stroke markers fill"
     d="M 45.01381,12.999695 88.38291,13 C 89.286429,13.000006 90,12.311824 90,11.436659 V 1.5800264 C 90,0.70486028 89.272619,3.1135347e-4 88.369101,3.0499935e-4 L 45,0 45.01382,12.999695 Z"
     sodipodi:nodetypes="cssssccc" />
  <path
     id="path36290"
     style="fill:url(#linearGradient51662);fill-opacity:1;stroke:none;stroke-width:1.11;stroke-linecap:butt;stroke-linejoin:miter;stroke-miterlimit:4;stroke-dasharray:none;stroke-opacity:1;paint-order:stroke markers fill"
     d="M 88.137939,0.414189 H 45.369577 l 4e-6,11.885811 h 42.768362 c 0.790561,0 1.427005,-0.693095 1.427005,-1.483655 V 1.841193 c 0,-0.79056 -0.636444,-1.427004 -1.427005,-1.427004 z"
     sodipodi:nodetypes="sccsssss" />
  <path
     id="path36292"
     style="fill:#8d898f;fill-opacity:1;stroke:none;stroke-width:0.723173;stroke-linecap:butt;stroke-linejoin:miter;stroke-miterlimit:4;stroke-dasharray:none;stroke-opacity:1;paint-order:stroke markers fill"
     d="m 88.285157,0.423828 c 0.283472,1.77e-4 0.808811,0.234342 1.076171,0.697266 0.271973,0.470905 0.205079,0.776105 0.205079,0.822265 0,0.05338 -0.346778,-1.023437 -1.265625,-1.023437 H 45.383113 l 0.0088,-0.496094 h 42.893255 z"
     sodipodi:nodetypes="ccsccccc" />
  <path
     id="path51682"
     style="opacity:0.13;fill:#ffffff;fill-opacity:1;stroke:none;stroke-width:1.17249;stroke-linecap:butt;stroke-linejoin:miter;stroke-miterlimit:4;stroke-dasharray:none;stroke-opacity:1;paint-order:stroke markers fill"
     d="M 44.993097,27.499695 1.61745,27.5 C 0.7137299,27.500006 0,26.811824 0,25.936659 V 16.080026 C 0,15.20486 0.7275427,14.500312 1.6312628,14.500305 L 45.00691,14.5 44.99309,27.499695 Z"
     sodipodi:nodetypes="cssssccc" />
  <path
     id="path51684"
     style="fill:#0a090a;fill-opacity:1;stroke:none;stroke-width:1.17227;stroke-linecap:butt;stroke-linejoin:miter;stroke-miterlimit:4;stroke-dasharray:none;stroke-opacity:1;paint-order:stroke markers fill"
     d="M 44.986192,26.999695 1.6168413,27 C 0.7134613,27.000006 0,26.311824 0,25.436659 V 15.580026 C 0,14.70486 0.7272689,14.000312 1.6306489,14.000305 L 45,14 v 12.999695 z"
     sodipodi:nodetypes="cssssccc" />
  <path
     id="path51686"
     style="fill:url(#linearGradient51700);fill-opacity:1;stroke:none;stroke-width:1.11;stroke-linecap:butt;stroke-linejoin:miter;stroke-miterlimit:4;stroke-dasharray:none;stroke-opacity:1;paint-order:stroke markers fill"
     d="M 1.846436,14.414189 H 45.000002 L 44.999998,26.3 H 1.846432 c -0.790561,0 -1.427005,-0.693095 -1.427005,-1.483655 v -8.975152 c 0,-0.79056 0.636444,-1.427004 1.427005,-1.427004 z"
     sodipodi:nodetypes="sccsssss" />
  <path
     id="path51688"
     style="fill:#8d898f;fill-opacity:1;stroke:none;stroke-width:0.723173;stroke-linecap:butt;stroke-linejoin:miter;stroke-miterlimit:4;stroke-dasharray:none;stroke-opacity:1;paint-order:stroke markers fill"
     d="m 1.695312,14.423828 c -0.283472,1.77e-4 -0.808811,0.234342 -1.076171,0.697266 -0.271973,0.470905 -0.205079,0.776105 -0.205079,0.822265 0,0.05338 0.346778,-1.023437 1.265625,-1.023437 h 43.319879 l -0.0088,-0.496094 H 1.695301 Z"
     sodipodi:nodetypes="ccsccccc" />
  <path
     id="path51690"
     style="opacity:0.13;fill:#ffffff;fill-opacity:1;stroke:none;stroke-width:1.17249;stroke-linecap:butt;stroke-linejoin:miter;stroke-miterlimit:4;stroke-dasharray:none;stroke-opacity:1;paint-order:stroke markers fill"
     d="M 45.367605,27.499695 88.378644,27.5 c 0.90372,6e-6 1.61745,-0.688176 1.61745,-1.563341 v -9.856633 c 0,-0.875166 -0.727543,-1.579715 -1.631263,-1.579721 L 45.353792,14.5 l 0.01382,12.999695 z"
     sodipodi:nodetypes="cssssccc" />
  <path
     id="path51692"
     style="fill:#0a090a;fill-opacity:1;stroke:none;stroke-width:1.17236;stroke-linecap:butt;stroke-linejoin:miter;stroke-miterlimit:4;stroke-dasharray:none;stroke-opacity:1;paint-order:stroke markers fill"
     d="M 45.01381,26.999695 88.38291,27 C 89.286429,27.000006 90,26.311824 90,25.436659 V 15.580026 C 90,14.70486 89.272619,14.000311 88.369101,14.000305 L 45,14 45.01382,26.999695 Z"
     sodipodi:nodetypes="cssssccc" />
  <path
     id="path51694"
     style="fill:#413f40;fill-opacity:1;stroke:none;stroke-width:1.11;stroke-linecap:butt;stroke-linejoin:miter;stroke-miterlimit:4;stroke-dasharray:none;stroke-opacity:1;paint-order:stroke markers fill"
     d="M 88.137939,14.414189 H 45.369577 l 4e-6,11.885811 h 42.768362 c 0.790561,0 1.427005,-0.693095 1.427005,-1.483655 v -8.975152 c 0,-0.79056 -0.636444,-1.427004 -1.427005,-1.427004 z"
     sodipodi:nodetypes="sccsssss" />
  <g
     aria-label="Envelope"
     id="text50"
     style="font-size:8px;font-family:SFProText-Regular, 'SF Pro Text';fill:#fce237"
     class="h"
     transform="matrix(0.9542359,0,0,0.9542359,0.72750038,0.39985436)">
    <path
       d="M 9.106132,9.059309 H 5.2741008 V 3.2429028 H 9.106132 v 0.6875 H 6.0475383 v 1.59375 H 9.106132 v 0.6875 H 6.0475383 V 8.371809 H 9.106132 Z"
       id="path51732"
       style="fill:#fce237" />
    <path
       d="M 13.922538,9.059309 H 13.188163 V 6.574934 q 0,-0.3007812 -0.03516,-0.5625 Q 13.117843,5.746809 13.024097,5.5983715 12.926437,5.434309 12.742847,5.356184 12.559253,5.274153 12.266284,5.274153 q -0.300781,0 -0.628906,0.1484375 -0.328125,0.1484375 -0.628906,0.3789062 V 9.059309 H 10.274101 V 4.6960278 h 0.734375 v 0.484375 q 0.34375,-0.2851563 0.710937,-0.4453125 0.367188,-0.1601563 0.753907,-0.1601563 0.707031,0 1.078125,0.4257813 0.371093,0.4257812 0.371093,1.2265625 z"
       id="path51734"
       style="fill:#fce237" />
    <path
       d="M 19.031913,4.6960278 17.266288,9.059309 H 16.528007 L 14.774101,4.6960278 h 0.796875 l 1.351562,3.4726562 1.339844,-3.4726562 z"
       id="path51736"
       style="fill:#fce237" />
    <path
       d="m 23.574882,6.9538403 h -3.214844 q 0,0.4023437 0.121094,0.703125 0.121094,0.296875 0.332031,0.4882812 0.203125,0.1875 0.480469,0.28125 0.28125,0.09375 0.617188,0.09375 0.445312,0 0.894531,-0.1757812 0.453125,-0.1796875 0.644531,-0.3515625 h 0.03906 V 8.793684 q -0.371094,0.15625 -0.757813,0.2617188 -0.386719,0.1054687 -0.8125,0.1054687 -1.085937,0 -1.695312,-0.5859375 -0.609375,-0.5898437 -0.609375,-1.671875 0,-1.0703125 0.582031,-1.6992187 0.585937,-0.6289063 1.539062,-0.6289063 0.882813,0 1.359375,0.515625 0.480469,0.515625 0.480469,1.4648438 z m -0.714844,-0.5625 Q 22.856132,5.8132153 22.56707,5.496809 22.281913,5.1804028 21.695976,5.1804028 q -0.589844,0 -0.941406,0.3476562 -0.347657,0.3476563 -0.394532,0.8632813 z"
       id="path51738"
       style="fill:#fce237" />
    <path
       d="M 25.430351,9.059309 H 24.695976 V 2.981184 h 0.734375 z"
       id="path51740"
       style="fill:#fce237" />
    <path
       d="m 30.602226,6.8796215 q 0,1.0664063 -0.546875,1.6835938 -0.546875,0.6171875 -1.464844,0.6171875 -0.925781,0 -1.472656,-0.6171875 -0.542969,-0.6171875 -0.542969,-1.6835938 0,-1.0664062 0.542969,-1.6835937 0.546875,-0.6210938 1.472656,-0.6210938 0.917969,0 1.464844,0.6210938 0.546875,0.6171875 0.546875,1.6835937 z m -0.757813,0 q 0,-0.8476562 -0.332031,-1.2578125 -0.332031,-0.4140625 -0.921875,-0.4140625 -0.597656,0 -0.929687,0.4140625 -0.328125,0.4101563 -0.328125,1.2578125 0,0.8203125 0.332031,1.2460938 0.332031,0.421875 0.925781,0.421875 0.585938,0 0.917969,-0.4179688 0.335937,-0.421875 0.335937,-1.25 z"
       id="path51742"
       style="fill:#fce237" />
    <path
       d="m 35.578788,6.824934 q 0,0.53125 -0.152343,0.9726563 -0.152344,0.4375 -0.429688,0.7421875 -0.257812,0.2890625 -0.609375,0.4492187 -0.347656,0.15625 -0.738281,0.15625 -0.339844,0 -0.617188,-0.074219 Q 32.758476,8.996809 32.47332,8.840559 v 1.828125 H 31.738945 V 4.6960278 H 32.47332 V 5.153059 q 0.292968,-0.2460937 0.65625,-0.4101562 0.367187,-0.1679688 0.78125,-0.1679688 0.789062,0 1.226562,0.5976563 0.441406,0.59375 0.441406,1.6523437 z m -0.757812,0.019531 q 0,-0.7890625 -0.269531,-1.1796875 -0.269532,-0.390625 -0.828125,-0.390625 -0.316407,0 -0.636719,0.1367187 -0.320313,0.1367188 -0.613281,0.359375 v 2.4726563 q 0.3125,0.140625 0.535156,0.1914062 0.226562,0.050781 0.511719,0.050781 0.613281,0 0.957031,-0.4140625 0.34375,-0.4140625 0.34375,-1.2265622 z"
       id="path51744"
       style="fill:#fce237" />
    <path
       d="M 40.375663,6.9538403 H 37.16082 q 0,0.4023437 0.121093,0.703125 0.121094,0.296875 0.332032,0.4882812 0.203125,0.1875 0.480468,0.28125 0.28125,0.09375 0.617188,0.09375 0.445312,0 0.894531,-0.1757812 0.453125,-0.1796875 0.644531,-0.3515625 h 0.03906 V 8.793684 q -0.371094,0.15625 -0.757813,0.2617188 -0.386718,0.1054687 -0.8125,0.1054687 -1.085937,0 -1.695312,-0.5859375 -0.609375,-0.5898437 -0.609375,-1.671875 0,-1.0703125 0.582031,-1.6992187 0.585938,-0.6289063 1.539063,-0.6289063 0.882812,0 1.359375,0.515625 0.480468,0.515625 0.480468,1.4648438 z m -0.714843,-0.5625 Q 39.65692,5.8132153 39.367851,5.496809 39.082695,5.1804028 38.496757,5.1804028 q -0.589844,0 -0.941406,0.3476562 -0.347656,0.3476563 -0.394531,0.8632813 z"
       id="path51746"
       style="fill:#fce237" />
  </g>
  <g
     aria-label="Envelope"
     id="g51780"
     style="font-size:8px;font-family:SFProText-Regular, 'SF Pro Text';fill:#e4dcd9"
     class="h"
     transform="matrix(0.9542359,0,0,0.9542359,0.72750038,14.400247)">
    <path
       d="M 9.106132,9.059309 H 5.2741008 V 3.2429028 H 9.106132 v 0.6875 H 6.0475383 v 1.59375 H 9.106132 v 0.6875 H 6.0475383 V 8.371809 H 9.106132 Z"
       id="path51764" />
    <path
       d="M 13.922538,9.059309 H 13.188163 V 6.574934 q 0,-0.3007812 -0.03516,-0.5625 Q 13.117843,5.746809 13.024097,5.5983715 12.926437,5.434309 12.742847,5.356184 12.559253,5.274153 12.266284,5.274153 q -0.300781,0 -0.628906,0.1484375 -0.328125,0.1484375 -0.628906,0.3789062 V 9.059309 H 10.274101 V 4.6960278 h 0.734375 v 0.484375 q 0.34375,-0.2851563 0.710937,-0.4453125 0.367188,-0.1601563 0.753907,-0.1601563 0.707031,0 1.078125,0.4257813 0.371093,0.4257812 0.371093,1.2265625 z"
       id="path51766" />
    <path
       d="M 19.031913,4.6960278 17.266288,9.059309 H 16.528007 L 14.774101,4.6960278 h 0.796875 l 1.351562,3.4726562 1.339844,-3.4726562 z"
       id="path51768" />
    <path
       d="m 23.574882,6.9538403 h -3.214844 q 0,0.4023437 0.121094,0.703125 0.121094,0.296875 0.332031,0.4882812 0.203125,0.1875 0.480469,0.28125 0.28125,0.09375 0.617188,0.09375 0.445312,0 0.894531,-0.1757812 0.453125,-0.1796875 0.644531,-0.3515625 h 0.03906 V 8.793684 q -0.371094,0.15625 -0.757813,0.2617188 -0.386719,0.1054687 -0.8125,0.1054687 -1.085937,0 -1.695312,-0.5859375 -0.609375,-0.5898437 -0.609375,-1.671875 0,-1.0703125 0.582031,-1.6992187 0.585937,-0.6289063 1.539062,-0.6289063 0.882813,0 1.359375,0.515625 0.480469,0.515625 0.480469,1.4648438 z m -0.714844,-0.5625 Q 22.856132,5.8132153 22.56707,5.496809 22.281913,5.1804028 21.695976,5.1804028 q -0.589844,0 -0.941406,0.3476562 -0.347657,0.3476563 -0.394532,0.8632813 z"
       id="path51770" />
    <path
       d="M 25.430351,9.059309 H 24.695976 V 2.981184 h 0.734375 z"
       id="path51772" />
    <path
       d="m 30.602226,6.8796215 q 0,1.0664063 -0.546875,1.6835938 -0.546875,0.6171875 -1.464844,0.6171875 -0.925781,0 -1.472656,-0.6171875 -0.542969,-0.6171875 -0.542969,-1.6835938 0,-1.0664062 0.542969,-1.6835937 0.546875,-0.6210938 1.472656,-0.6210938 0.917969,0 1.464844,0.6210938 0.546875,0.6171875 0.546875,1.6835937 z m -0.757813,0 q 0,-0.8476562 -0.332031,-1.2578125 -0.332031,-0.4140625 -0.921875,-0.4140625 -0.597656,0 -0.929687,0.4140625 -0.328125,0.4101563 -0.328125,1.2578125 0,0.8203125 0.332031,1.2460938 0.332031,0.421875 0.925781,0.421875 0.585938,0 0.917969,-0.4179688 0.335937,-0.421875 0.335937,-1.25 z"
       id="path51774" />
    <path
       d="m 35.578788,6.824934 q 0,0.53125 -0.152343,0.9726563 -0.152344,0.4375 -0.429688,0.7421875 -0.257812,0.2890625 -0.609375,0.4492187 -0.347656,0.15625 -0.738281,0.15625 -0.339844,0 -0.617188,-0.074219 Q 32.758476,8.996809 32.47332,8.840559 v 1.828125 H 31.738945 V 4.6960278 H 32.47332 V 5.153059 q 0.292968,-0.2460937 0.65625,-0.4101562 0.367187,-0.1679688 0.78125,-0.1679688 0.789062,0 1.226562,0.5976563 0.441406,0.59375 0.441406,1.6523437 z m -0.757812,0.019531 q 0,-0.7890625 -0.269531,-1.1796875 -0.269532,-0.390625 -0.828125,-0.390625 -0.316407,0 -0.636719,0.1367187 -0.320313,0.1367188 -0.613281,0.359375 v 2.4726563 q 0.3125,0.140625 0.535156,0.1914062 0.226562,0.050781 0.511719,0.050781 0.613281,0 0.957031,-0.4140625 0.34375,-0.4140625 0.34375,-1.2265622 z"
       id="path51776" />
    <path
       d="M 40.375663,6.9538403 H 37.16082 q 0,0.4023437 0.121093,0.703125 0.121094,0.296875 0.332032,0.4882812 0.203125,0.1875 0.480468,0.28125 0.28125,0.09375 0.617188,0.09375 0.445312,0 0.894531,-0.1757812 0.453125,-0.1796875 0.644531,-0.3515625 h 0.03906 V 8.793684 q -0.371094,0.15625 -0.757813,0.2617188 -0.386718,0.1054687 -0.8125,0.1054687 -1.085937,0 -1.695312,-0.5859375 -0.609375,-0.5898437 -0.609375,-1.671875 0,-1.0703125 0.582031,-1.6992187 0.585938,-0.6289063 1.539063,-0.6289063 0.882812,0 1.359375,0.515625 0.480468,0.515625 0.480468,1.4648438 z m -0.714843,-0.5625 Q 39.65692,5.8132153 39.367851,5.496809 39.082695,5.1804028 38.496757,5.1804028 q -0.589844,0 -0.941406,0.3476562 -0.347656,0.3476563 -0.394531,0.8632813 z"
       id="path51778" />
  </g>
  <g
     aria-label="LFO"
     id="text8701"
     style="font-style:normal;font-variant:normal;font-weight:500;font-stretch:normal;font-size:7.59367px;line-height:125%;font-family:'SF Pro Text';-inkscape-font-specification:'SF Pro Text Medium';letter-spacing:0px;word-spacing:0px;fill:#e4dcd9;fill-opacity:1;stroke:none;stroke-width:0.189841px;stroke-linecap:butt;stroke-linejoin:miter;stroke-opacity:1"
     transform="matrix(0.98424442,0,0,0.98424442,1.6725139,0.14490699)">
    <path
       d="M 63.61425,8.303596 V 9.0674124 H 60.277188 V 3.7169897 h 0.830558 V 8.303596 Z"
       style="font-style:normal;font-variant:normal;font-weight:500;font-stretch:normal;font-family:'SF Pro Text';-inkscape-font-specification:'SF Pro Text Medium';fill:#e4dcd9;stroke-width:0.189841px"
       id="path8703" />
    <path
       d="M 65.494128,9.0674124 H 64.66357 V 3.7169897 h 3.34077 v 0.7564007 h -2.510212 v 1.6425761 h 2.298865 v 0.7341536 h -2.298865 z"
       style="font-style:normal;font-variant:normal;font-weight:500;font-stretch:normal;font-family:'SF Pro Text';-inkscape-font-specification:'SF Pro Text Medium';fill:#e4dcd9;stroke-width:0.189841px"
       id="path8705" />
    <path
       d="m 71.359941,3.5872151 q 1.156848,0 1.82426,0.7564007 0.667413,0.7526928 0.667413,2.0467313 0,1.2940385 -0.667413,2.0504392 -0.667412,0.7564007 -1.82426,0.7564007 -1.160556,0 -1.831676,-0.7526929 -0.667413,-0.7564007 -0.667413,-2.054147 0,-1.2940385 0.67112,-2.0467313 0.674829,-0.7564007 1.827969,-0.7564007 z m 0,0.7749399 q -0.756401,0 -1.20505,0.5487613 -0.444942,0.5487613 -0.444942,1.4794308 0,0.9306695 0.441234,1.4831387 0.441234,0.5487613 1.208758,0.5487613 0.760108,0 1.201342,-0.5487613 0.441234,-0.5524692 0.441234,-1.4831387 0,-0.9343773 -0.441234,-1.4794308 Q 72.120049,4.362155 71.359941,4.362155 Z"
       style="font-style:normal;font-variant:normal;font-weight:500;font-stretch:normal;font-family:'SF Pro Text';-inkscape-font-specification:'SF Pro Text Medium';fill:#e4dcd9;stroke-width:0.189841px"
       id="path8707" />
  </g>
  <g
     aria-label="LFO"
     id="g8716"
     style="font-style:normal;font-variant:normal;font-weight:500;font-stretch:normal;font-size:7.59367px;line-height:125%;font-family:'SF Pro Text';-inkscape-font-specification:'SF Pro Text Medium';letter-spacing:0px;word-spacing:0px;fill:#fce237;fill-opacity:1;stroke:none;stroke-width:0.189841px;stroke-linecap:butt;stroke-linejoin:miter;stroke-opacity:1"
     transform="matrix(0.98424442,0,0,0.98424442,1.6725139,14.145304)">
    <path
       d="M 63.61425,8.303596 V 9.0674124 H 60.277188 V 3.7169897 h 0.830558 V 8.303596 Z"
       style="font-style:normal;font-variant:normal;font-weight:500;font-stretch:normal;font-family:'SF Pro Text';-inkscape-font-specification:'SF Pro Text Medium';fill:#fce237;stroke-width:0.189841px"
       id="path8710" />
    <path
       d="M 65.494128,9.0674124 H 64.66357 V 3.7169897 h 3.34077 v 0.7564007 h -2.510212 v 1.6425761 h 2.298865 v 0.7341536 h -2.298865 z"
       style="font-style:normal;font-variant:normal;font-weight:500;font-stretch:normal;font-family:'SF Pro Text';-inkscape-font-specification:'SF Pro Text Medium';fill:#fce237;stroke-width:0.189841px"
       id="path8712" />
    <path
       d="m 71.359941,3.5872151 q 1.156848,0 1.82426,0.7564007 0.667413,0.7526928 0.667413,2.0467313 0,1.2940385 -0.667413,2.0504392 -0.667412,0.7564007 -1.82426,0.7564007 -1.160556,0 -1.831676,-0.7526929 -0.667413,-0.7564007 -0.667413,-2.054147 0,-1.2940385 0.67112,-2.0467313 0.674829,-0.7564007 1.827969,-0.7564007 z m 0,0.7749399 q -0.756401,0 -1.20505,0.5487613 -0.444942,0.5487613 -0.444942,1.4794308 0,0.9306695 0.441234,1.4831387 0.441234,0.5487613 1.208758,0.5487613 0.760108,0 1.201342,-0.5487613 0.441234,-0.5524692 0.441234,-1.4831387 0,-0.9343773 -0.441234,-1.4794308 Q 72.120049,4.362155 71.359941,4.362155 Z"
       style="font-style:normal;font-variant:normal;font-weight:500;font-stretch:normal;font-family:'SF Pro Text';-inkscape-font-specification:'SF Pro Text Medium';fill:#fce237;stroke-width:0.189841px"
       id="path8714" />
  </g>
</svg>
