<?xml version="1.0" encoding="utf-8"?>
<svg width="34px" height="22px" viewBox="0 0 34 22" version="1.1" xmlns:xlink="http://www.w3.org/1999/xlink" xmlns="http://www.w3.org/2000/svg">
  <defs>
    <linearGradient x1="8.953125" y1="0.78125" x2="8.921875" y2="9.8125" id="gradient_1">
      <stop offset="0" stop-color="#787477" />
      <stop offset="1" stop-color="#696568" />
    </linearGradient>
    <rect width="34" height="22" id="artboard_1" />
    <clipPath id="clip_1">
      <use xlink:href="#artboard_1" clip-rule="evenodd" />
    </clipPath>
  </defs>
  <g id="bmp00149" clip-path="url(#clip_1)">
    <g id="Group" transform="translate(0 -0.00030517578)">
      <path d="M1.71041 0.000305176L15.2896 0.000305176C16.2372 0.000305176 17 0.763148 17 1.71072L17 9.2899L17 11.0003L1.71041 11.0003C0.762843 11.0003 0 10.2375 0 9.2899L0 1.71072C0 0.763148 0.762843 0.000305176 1.71041 0.000305176L1.71041 0.000305176L1.71041 0.000305176Z" id="rect31774" fill="#959197" fill-opacity="0.27450982" fill-rule="evenodd" stroke="none" />
      <path d="M17 10.4926L1.63152 10.4929C0.727657 10.493 0 9.76529 0 8.86142L0 1.63183C0 0.727972 0.727657 0.000332997 1.63152 0.0003145L17 0" id="rect10608" fill="#0A090A" fill-rule="evenodd" stroke="none" />
      <path d="M1.84643 0.414185L16.5 0.414185L16.5 9.99696L1.84643 9.99696C1.05588 9.99696 0.419434 9.36051 0.419434 8.56995L0.419434 1.84118C0.419434 1.05063 1.05588 0.414185 1.84643 0.414185L1.84643 0.414185L1.84643 0.414185Z" id="rect7997" fill="url(#gradient_1)" fill-rule="evenodd" stroke="none" />
      <path d="M17 2.50031L17 1.50031C17 1.22416 17.0976 0.98846 17.2929 0.793198C17.4882 0.597936 17.7239 0.500305 18 0.500305L32 0.500305C32.2761 0.500305 32.5118 0.597936 32.7071 0.793198C32.9024 0.98846 33 1.22416 33 1.50031L33 9.50031C33 9.77645 32.9024 10.0121 32.7071 10.2074C32.5118 10.4027 32.2761 10.5003 32 10.5003L18 10.5003C17.7239 10.5003 17.4882 10.4027 17.2929 10.2074C17.0976 10.0121 17 9.77645 17 9.50031L17 2.50031L17 2.50031Z" id="Rectangle" fill="#FFFFFF" fill-opacity="0" fill-rule="evenodd" stroke="none" />
      <path d="M1.47147 3.04575L1.47147 2.22758C1.47147 2.00164 1.56334 1.80879 1.7471 1.64903C1.93085 1.48927 2.15266 1.40939 2.41253 1.40939L15.5875 1.40939C15.8473 1.40939 16.0691 1.48927 16.2529 1.64903C16.4367 1.80879 16.5286 2.00164 16.5286 2.22758L16.5286 8.77303C16.5286 8.99896 16.4367 9.1918 16.2529 9.35157C16.0691 9.51133 15.8473 9.59121 15.5875 9.59121L2.41253 9.59121C2.15266 9.59121 1.93085 9.51133 1.7471 9.35157C1.56334 9.1918 1.47147 8.99896 1.47147 8.77303L1.47147 3.04575L1.47147 3.04575Z" id="path31121" fill="#FFFFFF" fill-opacity="0" fill-rule="evenodd" stroke="none" />
      <path d="M6.2836 5.14626L10.0948 7.43299L10.0948 2.85953L6.2836 5.14626L6.2836 5.14626Z" id="path31776" fill="#DBD7D7" fill-rule="evenodd" stroke="none" />
      <path d="M0.413548 1.9428C0.413548 1.89664 0.347521 1.59218 0.61949 1.12128C0.88685 0.658359 1.41248 0.423593 1.69595 0.423416L16.5 0.414185L16.5003 0.920077C16.5003 0.920077 2.12509 0.920311 1.67955 0.920311C0.760705 0.920311 0.413548 1.99618 0.413548 1.9428L0.413548 1.9428L0.413548 1.9428Z" id="rect10605" fill="#959197" fill-rule="evenodd" stroke="none" />
      <path d="M31.8921 0.000305176L18.666 0.000305176C17.743 0.000305176 17 0.763148 17 1.71072L17 9.2899L17 11.0003L31.8921 11.0003C32.815 11.0003 33.5581 10.2375 33.5581 9.2899L33.5581 1.71072C33.5581 0.763148 32.815 0.000305176 31.8921 0.000305176L31.8921 0.000305176L31.8921 0.000305176Z" id="path10627" fill="#959197" fill-opacity="0.27450982" fill-rule="evenodd" stroke="none" />
      <path d="M16.5 10.4926L31.8685 10.4929C32.7723 10.493 33.5 9.76529 33.5 8.86142L33.5 1.63183C33.5 0.727972 32.7723 0.000332997 31.8685 0.0003145L16.5 0" id="path10629" fill="#0A090A" fill-rule="evenodd" stroke="none" />
      <path d="M31.3979 0.414185L17 0.414185L17 9.99696L31.3979 9.99696C32.1747 9.99696 32.8 9.36051 32.8 8.56995L32.8 1.84118C32.8 1.05063 32.1747 0.414185 31.3979 0.414185L31.3979 0.414185L31.3979 0.414185Z" id="path10631" fill="url(#gradient_1)" fill-rule="evenodd" stroke="none" />
      <path d="M32.0286 3.04575L32.0286 2.22758C32.0286 2.00164 31.9367 1.80879 31.7529 1.64903C31.5692 1.48927 31.3474 1.40939 31.0875 1.40939L17.9125 1.40939C17.6527 1.40939 17.4309 1.48927 17.2471 1.64903C17.0633 1.80879 16.9715 2.00164 16.9715 2.22758L16.9715 8.77303C16.9715 8.99896 17.0633 9.1918 17.2471 9.35157C17.4309 9.51133 17.6527 9.59121 17.9125 9.59121L31.0875 9.59121C31.3474 9.59121 31.5692 9.51133 31.7529 9.35157C31.9367 9.1918 32.0286 8.99896 32.0286 8.77303L32.0286 3.04575L32.0286 3.04575Z" id="path10633" fill="#FFFFFF" fill-opacity="0" fill-rule="evenodd" stroke="none" />
      <path d="M27.2164 5.14626L23.4052 7.43299L23.4052 2.85953L27.2164 5.14626L27.2164 5.14626Z" id="path10635" fill="#DBD7D7" fill-rule="evenodd" stroke="none" />
      <path d="M32.7929 1.9428C32.7929 1.89664 32.8577 1.59218 32.5907 1.12128C32.3282 0.658359 31.8122 0.423593 31.5339 0.423417L17 0.414185L16.9998 0.920077C16.9998 0.920077 31.1126 0.920311 31.55 0.920311C32.4521 0.920311 32.7929 1.99618 32.7929 1.9428L32.7929 1.9428L32.7929 1.9428Z" id="path10637" fill="#959197" fill-rule="evenodd" stroke="none" />
    </g>
    <g id="Group-Copy" transform="translate(0 11)">
      <path d="M1.71041 0.000305176L15.2896 0.000305176C16.2372 0.000305176 17 0.763148 17 1.71072L17 9.28989L17 11.0003L1.71041 11.0003C0.762843 11.0003 0 10.2375 0 9.28989L0 1.71072C0 0.763148 0.762843 0.000305176 1.71041 0.000305176L1.71041 0.000305176L1.71041 0.000305176Z" id="rect31774#1" fill="#959197" fill-opacity="0.27450982" fill-rule="evenodd" stroke="none" />
      <path d="M17 10.4926L1.63152 10.4929C0.727657 10.493 0 9.76529 0 8.86142L0 1.63183C0 0.727972 0.727657 0.000332832 1.63152 0.000314713L17 0" id="rect10608#1" fill="#0A090A" fill-rule="evenodd" stroke="none" />
      <path d="M1.84643 0.414185L16.5 0.414185L16.5 9.99696L1.84643 9.99696C1.05588 9.99696 0.419434 9.36052 0.419434 8.56995L0.419434 1.84118C0.419434 1.05063 1.05588 0.414185 1.84643 0.414185L1.84643 0.414185L1.84643 0.414185Z" id="rect7997#1" fill="url(#gradient_1)" fill-rule="evenodd" stroke="none" />
      <path d="M17 2.50031L17 1.50031C17 1.22416 17.0976 0.988461 17.2929 0.793199C17.4882 0.597937 17.7239 0.500305 18 0.500305L32 0.500305C32.2761 0.500305 32.5118 0.597937 32.7071 0.793199C32.9024 0.988461 33 1.22416 33 1.50031L33 9.50031C33 9.77645 32.9024 10.0121 32.7071 10.2074C32.5118 10.4027 32.2761 10.5003 32 10.5003L18 10.5003C17.7239 10.5003 17.4882 10.4027 17.2929 10.2074C17.0976 10.0121 17 9.77645 17 9.50031L17 2.50031L17 2.50031Z" id="Rectangle#1" fill="#FFFFFF" fill-opacity="0" fill-rule="evenodd" stroke="none" />
      <path d="M1.47147 3.04575L1.47147 2.22758C1.47147 2.00164 1.56334 1.80879 1.7471 1.64903C1.93085 1.48927 2.15266 1.40939 2.41253 1.40939L15.5875 1.40939C15.8473 1.40939 16.0691 1.48927 16.2529 1.64903C16.4367 1.80879 16.5286 2.00164 16.5286 2.22758L16.5286 8.77303C16.5286 8.99896 16.4367 9.1918 16.2529 9.35157C16.0691 9.51133 15.8473 9.59121 15.5875 9.59121L2.41253 9.59121C2.15266 9.59121 1.93085 9.51133 1.7471 9.35157C1.56334 9.1918 1.47147 8.99896 1.47147 8.77303L1.47147 3.04575L1.47147 3.04575Z" id="path31121#1" fill="#FFFFFF" fill-opacity="0" fill-rule="evenodd" stroke="none" />
      <path d="M6.2836 5.14626L10.0948 7.43299L10.0948 2.85953L6.2836 5.14626L6.2836 5.14626Z" id="path31776#1" fill="#DBD7D7" fill-rule="evenodd" stroke="none" />
      <path d="M0.413548 1.9428C0.413548 1.89664 0.347521 1.59218 0.61949 1.12128C0.88685 0.658359 1.41248 0.423593 1.69595 0.423416L16.5 0.414185L16.5003 0.920076C16.5003 0.920076 2.12509 0.920311 1.67955 0.920311C0.760705 0.920311 0.413548 1.99618 0.413548 1.9428L0.413548 1.9428L0.413548 1.9428Z" id="rect10605#1" fill="#959197" fill-rule="evenodd" stroke="none" />
      <path d="M31.8921 0.000305176L18.666 0.000305176C17.743 0.000305176 17 0.763148 17 1.71072L17 9.28989L17 11.0003L31.8921 11.0003C32.815 11.0003 33.5581 10.2375 33.5581 9.28989L33.5581 1.71072C33.5581 0.763148 32.815 0.000305176 31.8921 0.000305176L31.8921 0.000305176L31.8921 0.000305176Z" id="path10627#1" fill="#959197" fill-opacity="0.27450982" fill-rule="evenodd" stroke="none" />
      <path d="M16.5 10.4926L31.8685 10.4929C32.7723 10.493 33.5 9.76529 33.5 8.86142L33.5 1.63183C33.5 0.727972 32.7723 0.000332832 31.8685 0.000314713L16.5 0" id="path10629#1" fill="#0A090A" fill-rule="evenodd" stroke="none" />
      <path d="M31.3979 0.414185L17 0.414185L17 9.99696L31.3979 9.99696C32.1747 9.99696 32.8 9.36052 32.8 8.56995L32.8 1.84118C32.8 1.05063 32.1747 0.414185 31.3979 0.414185L31.3979 0.414185L31.3979 0.414185Z" id="path10631#1" fill="url(#gradient_1)" fill-rule="evenodd" stroke="none" />
      <path d="M32.0286 3.04575L32.0286 2.22758C32.0286 2.00164 31.9367 1.80879 31.7529 1.64903C31.5692 1.48927 31.3474 1.40939 31.0875 1.40939L17.9125 1.40939C17.6527 1.40939 17.4309 1.48927 17.2471 1.64903C17.0633 1.80879 16.9715 2.00164 16.9715 2.22758L16.9715 8.77303C16.9715 8.99896 17.0633 9.1918 17.2471 9.35157C17.4309 9.51133 17.6527 9.59121 17.9125 9.59121L31.0875 9.59121C31.3474 9.59121 31.5692 9.51133 31.7529 9.35157C31.9367 9.1918 32.0286 8.99896 32.0286 8.77303L32.0286 3.04575L32.0286 3.04575Z" id="path10633#1" fill="#FFFFFF" fill-opacity="0" fill-rule="evenodd" stroke="none" />
      <path d="M27.2164 5.14626L23.4052 7.43299L23.4052 2.85953L27.2164 5.14626L27.2164 5.14626Z" id="path10635#1" fill="#DBD7D7" fill-rule="evenodd" stroke="none" />
      <path d="M32.7929 1.9428C32.7929 1.89664 32.8577 1.59218 32.5907 1.12128C32.3282 0.658359 31.8122 0.423594 31.5339 0.423416L17 0.414185L16.9998 0.920076C16.9998 0.920076 31.1126 0.920311 31.55 0.920311C32.4521 0.920311 32.7929 1.99618 32.7929 1.9428L32.7929 1.9428L32.7929 1.9428Z" id="path10637#1" fill="#959197" fill-rule="evenodd" stroke="none" />
    </g>
  </g>
</svg>