<svg width="36" height="53" viewBox="0 0 36 53" fill="none" xmlns="http://www.w3.org/2000/svg">
<g clip-path="url(#clip0_13_159)">
<rect x="0.25" y="0.25" width="35.5031" height="52.5" rx="1.38" fill="#343033" stroke="#0A090A" stroke-width="0.5"/>
<path d="M3.05176e-05 1.63C3.05176e-05 0.729776 0.729806 0 1.63003 0H34.3731C35.2733 0 36.0031 0.729776 36.0031 1.63V13H3.05176e-05V1.63Z" fill="#0A090A"/>
<g filter="url(#filter0_d_13_159)">
<path d="M0.500031 2.13005C0.500031 1.22982 1.22981 0.500046 2.13003 0.500046H33.8523C34.7525 0.500046 35.4823 1.22982 35.4823 2.13005V12.4475H0.500031V2.13005Z" fill="#787477"/>
</g>
<path fill-rule="evenodd" clip-rule="evenodd" d="M34.2021 0.500046C34.4851 0.500223 35.0101 0.734388 35.2781 1.19731C35.5236 1.62124 35.4792 1.68559 35.4792 2.63481C35.4792 2.68819 35.1211 1.48637 34.2021 1.48637H3.33853V0.500046H34.2021Z" fill="#959197"/>
<path fill-rule="evenodd" clip-rule="evenodd" d="M1.7802 0.500046C1.4972 0.500223 0.972201 0.734388 0.704201 1.19731C0.458774 1.62124 0.503174 1.68559 0.503174 2.63481C0.503174 2.68819 0.861205 1.48637 1.7802 1.48637H32.6438V0.500046H1.7802Z" fill="#959197"/>
</g>
<defs>
<filter id="filter0_d_13_159" x="-1.49997" y="-0.499954" width="38.9823" height="15.9474" filterUnits="userSpaceOnUse" color-interpolation-filters="sRGB">
<feFlood flood-opacity="0" result="BackgroundImageFix"/>
<feColorMatrix in="SourceAlpha" type="matrix" values="0 0 0 0 0 0 0 0 0 0 0 0 0 0 0 0 0 0 127 0" result="hardAlpha"/>
<feOffset dy="1"/>
<feGaussianBlur stdDeviation="1"/>
<feComposite in2="hardAlpha" operator="out"/>
<feColorMatrix type="matrix" values="0 0 0 0 0 0 0 0 0 0 0 0 0 0 0 0 0 0 0.25 0"/>
<feBlend mode="normal" in2="BackgroundImageFix" result="effect1_dropShadow_13_159"/>
<feBlend mode="normal" in="SourceGraphic" in2="effect1_dropShadow_13_159" result="shape"/>
</filter>
<clipPath id="clip0_13_159">
<rect width="36" height="53" fill="white"/>
</clipPath>
</defs>
</svg>
