<svg xmlns="http://www.w3.org/2000/svg" width="58" height="24" viewBox="0 0 58 24"><g transform="translate(-154 -506.159)"><g transform="translate(154 506.159)"><rect width="58" height="12" fill="#625967" opacity="0.6"/><path d="M-14.263-4.228h-.656v2.771A1.541,1.541,0,0,0-13.208.1a1.544,1.544,0,0,0,1.714-1.559V-4.228h-.656v2.713a.959.959,0,0,1-1.058,1,.958.958,0,0,1-1.055-1ZM-9.787,0V-3h.047l2.171,3h.592V-4.228h-.639v3h-.047l-2.171-3h-.592V0ZM-5.26,0V-4.228h-.656V0ZM-4.2-4.228V0h.656V-1.424h.979A1.344,1.344,0,0,0-1.153-2.818,1.334,1.334,0,0,0-2.547-4.228Zm.656.58h.826c.577,0,.9.293.9.829S-2.155-2-2.72-2h-.826ZM1.493-4.33A1.955,1.955,0,0,0-.482-2.115,1.952,1.952,0,0,0,1.493.1,1.95,1.95,0,0,0,3.461-2.115,1.949,1.949,0,0,0,1.493-4.33Zm0,.612c.8,0,1.3.621,1.3,1.6S2.3-.51,1.493-.51s-1.3-.63-1.3-1.605S.7-3.718,1.493-3.718ZM6.986-.6H5.005V-4.228H4.349V0H6.986Zm3.565.6h.7L9.722-4.228H9.016L7.49,0h.674l.39-1.122h1.611ZM9.335-3.46h.05L10-1.673H8.72Zm3.3-.19h.926a.721.721,0,0,1,.817.738.7.7,0,0,1-.8.741H12.64Zm0,2.039h.926L14.427,0h.759l-.949-1.72a1.218,1.218,0,0,0,.82-1.207,1.265,1.265,0,0,0-1.4-1.3H11.984V0h.656Z" transform="translate(26.854 8.069)" fill="#beb3bf"/></g><g transform="translate(154 518.159)"><rect width="58" height="12" fill="#a17368" opacity="0.8"/><path d="M-14.263-4.228h-.656v2.771A1.541,1.541,0,0,0-13.208.1a1.544,1.544,0,0,0,1.714-1.559V-4.228h-.656v2.713a.959.959,0,0,1-1.058,1,.958.958,0,0,1-1.055-1ZM-9.787,0V-3h.047l2.171,3h.592V-4.228h-.639v3h-.047l-2.171-3h-.592V0ZM-5.26,0V-4.228h-.656V0ZM-4.2-4.228V0h.656V-1.424h.979A1.344,1.344,0,0,0-1.153-2.818,1.334,1.334,0,0,0-2.547-4.228Zm.656.58h.826c.577,0,.9.293.9.829S-2.155-2-2.72-2h-.826ZM1.493-4.33A1.955,1.955,0,0,0-.482-2.115,1.952,1.952,0,0,0,1.493.1,1.95,1.95,0,0,0,3.461-2.115,1.949,1.949,0,0,0,1.493-4.33Zm0,.612c.8,0,1.3.621,1.3,1.6S2.3-.51,1.493-.51s-1.3-.63-1.3-1.605S.7-3.718,1.493-3.718ZM6.986-.6H5.005V-4.228H4.349V0H6.986Zm3.565.6h.7L9.722-4.228H9.016L7.49,0h.674l.39-1.122h1.611ZM9.335-3.46h.05L10-1.673H8.72Zm3.3-.19h.926a.721.721,0,0,1,.817.738.7.7,0,0,1-.8.741H12.64Zm0,2.039h.926L14.427,0h.759l-.949-1.72a1.218,1.218,0,0,0,.82-1.207,1.265,1.265,0,0,0-1.4-1.3H11.984V0h.656Z" transform="translate(26.854 8.069)" fill="#f9c442"/></g></g></svg>