<svg xmlns="http://www.w3.org/2000/svg" width="12" height="24" viewBox="0 0 12 24"><g transform="translate(-2523.5 -688.5)"><rect width="12" height="12" rx="2" transform="translate(2523.5 688.5)"/><rect width="12" height="12" rx="2" transform="translate(2523.5 700.5)"/><g transform="translate(2524 688.999)"><g transform="translate(0.5 0.501)" fill="#4b3e3f" stroke="#4e4752" stroke-width="0.5"><rect width="9.999" height="10" rx="1" stroke="none"/><rect x="-0.25" y="-0.25" width="10.499" height="10.5" rx="1.25" fill="none"/></g><path d="M9.5,1.987h-8A1.5,1.5,0,0,1,0,.487V.066A1.5,1.5,0,0,0,1.5,1.488h8A1.5,1.5,0,0,0,11,0V.487A1.5,1.5,0,0,1,9.5,1.987Z" transform="translate(0 9.013)" opacity="0.4"/><path d="M11,1.993h0A1.5,1.5,0,0,0,9.5.5h-8A1.5,1.5,0,0,0,0,1.923L0,1.5A1.5,1.5,0,0,1,1.5,0h8A1.5,1.5,0,0,1,11,1.5Z" transform="translate(0 0)" fill="#fff" opacity="0.4"/><rect width="9.999" height="10" rx="1" transform="translate(0.5 0.501)" fill="#fff" opacity="0"/><path d="M4.091,0,.5,3.541,2.655,5.666,6.246,2.125ZM2.032,6.215,0,4.211v2Z" transform="translate(2.5 2.286)" fill="#c9b5b0" fill-rule="evenodd"/></g><g transform="translate(2524 700.999)"><g transform="translate(0.5 0.501)" fill="#352b2d" stroke="#4e4752" stroke-width="0.5"><rect width="10" height="10" rx="1" stroke="none"/><rect x="-0.25" y="-0.25" width="10.5" height="10.5" rx="1.25" fill="none"/></g><path d="M9.5,1.987h-8A1.5,1.5,0,0,1,0,.488V.065A1.5,1.5,0,0,0,1.5,1.488h8A1.5,1.5,0,0,0,11,0V.488A1.5,1.5,0,0,1,9.5,1.987Z" transform="translate(0 9.013)" opacity="0.4"/><path d="M11,1.993h0A1.5,1.5,0,0,0,9.5.5h-8A1.5,1.5,0,0,0,0,1.923L0,1.5A1.5,1.5,0,0,1,1.5,0h8A1.5,1.5,0,0,1,11,1.5Z" transform="translate(0 0)" fill="#fff" opacity="0.1"/><rect width="10" height="10" rx="1" transform="translate(0.5 0.501)" fill="#fff" opacity="0"/><path d="M4.091,0,.5,3.541,2.655,5.666,6.246,2.125ZM2.032,6.215,0,4.211v2Z" transform="translate(2.5 2.286)" fill="#f8db38" fill-rule="evenodd"/></g></g></svg>