<?xml version="1.0" encoding="utf-8"?>
<svg width="11px" height="22px" viewBox="0 0 11 22" version="1.1" xmlns:xlink="http://www.w3.org/1999/xlink" xmlns="http://www.w3.org/2000/svg">
  <defs>
    <rect width="11" height="22" id="artboard_1" />
    <clipPath id="clip_1">
      <use xlink:href="#artboard_1" clip-rule="evenodd" />
    </clipPath>
  </defs>
  <g id="bmp00184" clip-path="url(#clip_1)">
    <path d="M-7.15256e-06 3.26004L-7.15256e-06 1.63004C-7.15256e-06 1.17993 0.159131 0.795731 0.477409 0.477454C0.795686 0.159177 1.17988 3.8147e-05 1.62999 3.8147e-05L9.36999 3.8147e-05C9.8201 3.8147e-05 10.2043 0.159177 10.5226 0.477454C10.8409 0.795731 11 1.17993 11 1.63004L11 9.37004C11 9.82015 10.8409 10.2043 10.5226 10.5226C10.2043 10.8409 9.8201 11 9.36999 11L1.62999 11C1.17988 11 0.795686 10.8409 0.477409 10.5226C0.159131 10.2043 -7.15256e-06 9.82015 -7.15256e-06 9.37004L-7.15256e-06 3.26004Z" id="Rectangle" fill="#000000" fill-rule="evenodd" stroke="none" />
    <path d="M0.499993 3.40004L0.499993 1.95004C0.499993 1.54963 0.641558 1.20786 0.924688 0.924733C1.20782 0.641603 1.54959 0.500038 1.94999 0.500038L9.04999 0.500038C9.4504 0.500038 9.79217 0.641603 10.0753 0.924733C10.3584 1.20786 10.5 1.54963 10.5 1.95004L10.5 9.05004C10.5 9.45044 10.3584 9.79221 10.0753 10.0753C9.79217 10.3585 9.4504 10.5 9.04999 10.5L1.94999 10.5C1.54959 10.5 1.20782 10.3585 0.924688 10.0753C0.641558 9.79221 0.499993 9.45044 0.499993 9.05004L0.499993 3.40004Z" id="Rectangle" fill="#655959" fill-rule="evenodd" stroke="none" />
    <path d="M0.505325 2.013C0.506316 2.02347 0.507047 2.03118 0.507047 2.03604C0.507047 2.04357 0.513937 2.02867 0.528346 1.99754C0.616211 1.80765 0.983653 1.01354 1.77305 1.01354L5.49999 1.01334L9.22693 1.01354C10.0163 1.01354 10.3838 1.80765 10.4716 1.99754C10.4861 2.02867 10.4929 2.04357 10.4929 2.03604C10.4929 2.03118 10.4937 2.02347 10.4947 2.013C10.5031 1.92397 10.5304 1.63591 10.287 1.21454C10.0196 0.751641 9.494 0.516841 9.21053 0.516641L5.50029 0.507439L5.49999 1.01334L5.49969 0.507439L1.78945 0.516641C1.50598 0.516841 0.980349 0.751641 0.712989 1.21454C0.469626 1.63591 0.496896 1.92397 0.505325 2.013L0.505325 2.013Z" id="Shape" fill="#FFFFFF" fill-opacity="0.4" fill-rule="evenodd" stroke="none" />
    <path d="M5.12499 10L5.12499 1.00004L6.12499 1.00004L6.12499 10L5.12499 10L5.12499 10Z" id="Shape" fill="#B4B4B4" fill-opacity="0.5019608" stroke="none" />
    <path d="M0.499993 5.12504L10.5 5.12504L10.5 6.12504L0.499993 6.12504L0.499993 5.12504L0.499993 5.12504Z" id="Shape" fill="#B4B4B4" fill-opacity="0.5019608" stroke="none" />
    <path d="M8.99999 3.50004C7.69999 3.50004 6.99999 3.50004 6.99999 3.50004C5.49999 3.50004 5.49999 7.50004 3.99999 7.50004C3.99999 7.50004 3.29999 7.50004 1.99999 7.50004" id="Shape" fill="none" stroke="#DEDADA" stroke-width="1" />
    <path d="M-7.15256e-06 14.26L-7.15256e-06 12.63C-7.15256e-06 12.1799 0.159131 11.7957 0.477409 11.4775C0.795686 11.1592 1.17988 11 1.62999 11L9.36999 11C9.8201 11 10.2043 11.1592 10.5226 11.4775C10.8409 11.7957 11 12.1799 11 12.63L11 20.37C11 20.8201 10.8409 21.2043 10.5226 21.5226C10.2043 21.8409 9.8201 22 9.36999 22L1.62999 22C1.17988 22 0.795686 21.8409 0.477409 21.5226C0.159131 21.2043 -7.15256e-06 20.8201 -7.15256e-06 20.37L-7.15256e-06 14.26Z" id="Rectangle" fill="#000000" fill-rule="evenodd" stroke="none" />
    <path d="M0.499993 14.4L0.499993 12.95C0.499993 12.5496 0.641558 12.2079 0.924688 11.9247C1.20782 11.6416 1.54959 11.5 1.94999 11.5L9.04999 11.5C9.4504 11.5 9.79217 11.6416 10.0753 11.9247C10.3584 12.2079 10.5 12.5496 10.5 12.95L10.5 20.05C10.5 20.4504 10.3584 20.7922 10.0753 21.0753C9.79217 21.3585 9.4504 21.5 9.04999 21.5L1.94999 21.5C1.54959 21.5 1.20782 21.3585 0.924688 21.0753C0.641558 20.7922 0.499993 20.4504 0.499993 20.05L0.499993 14.4Z" id="Rectangle" fill="#373030" fill-rule="evenodd" stroke="none" />
    <path d="M0.505344 13.013C0.506335 13.0235 0.507066 13.0312 0.507066 13.036C0.507066 13.0436 0.513956 13.0287 0.528365 12.9975C0.61623 12.8076 0.983672 12.0135 1.77307 12.0135L5.50001 12.0133L9.22695 12.0135C10.0163 12.0135 10.3838 12.8076 10.4716 12.9975C10.4861 13.0287 10.4929 13.0436 10.4929 13.036C10.4929 13.0312 10.4937 13.0235 10.4947 13.013C10.5031 12.924 10.5304 12.6359 10.287 12.2145C10.0196 11.7516 9.49402 11.5168 9.21055 11.5166L5.50031 11.5074L5.50001 12.0133L5.49971 11.5074L1.78947 11.5166C1.506 11.5168 0.980368 11.7516 0.713008 12.2145C0.469645 12.6359 0.496915 12.924 0.505344 13.013L0.505344 13.013Z" id="Shape-Copy" fill="#FFFFFF" fill-opacity="0.101960786" fill-rule="evenodd" stroke="none" />
    <path d="M0.505363 19.995C0.506354 19.9845 0.507085 19.9768 0.507085 19.972C0.507085 19.9644 0.513975 19.9793 0.528384 20.0105C0.616249 20.2004 0.983691 20.9945 1.77309 20.9945L5.50003 20.9947L9.22697 20.9945C10.0163 20.9945 10.3838 20.2004 10.4716 20.0105C10.4861 19.9793 10.4929 19.9644 10.4929 19.972C10.4929 19.9768 10.4937 19.9845 10.4947 19.995C10.5031 20.084 10.5304 20.3721 10.287 20.7935C10.0196 21.2564 9.49404 21.4912 9.21057 21.4914L5.50033 21.5006L5.50003 20.9947L5.49973 21.5006L1.78949 21.4914C1.50602 21.4912 0.980387 21.2564 0.713027 20.7935C0.469664 20.3721 0.496934 20.084 0.505363 19.995L0.505363 19.995Z" id="Shape-Copy-2" fill="#000000" fill-opacity="0.4" fill-rule="evenodd" stroke="none" />
    <path d="M0.505325 8.99501C0.506316 8.98454 0.507047 8.97683 0.507047 8.97197C0.507047 8.96444 0.513937 8.97934 0.528346 9.01047C0.616211 9.20036 0.983653 9.99447 1.77305 9.99447L5.49999 9.99467L9.22693 9.99447C10.0163 9.99447 10.3838 9.20036 10.4716 9.01047C10.4861 8.97934 10.4929 8.96444 10.4929 8.97197C10.4929 8.97683 10.4937 8.98454 10.4947 8.99501C10.5031 9.08404 10.5304 9.3721 10.287 9.79347C10.0196 10.2564 9.494 10.4912 9.21053 10.4914L5.50029 10.5006L5.49999 9.99467L5.49969 10.5006L1.78945 10.4914C1.50598 10.4912 0.980349 10.2564 0.712989 9.79347C0.469626 9.3721 0.496896 9.08404 0.505325 8.99501L0.505325 8.99501Z" id="Shape-Copy-3" fill="#000000" fill-opacity="0.4" fill-rule="evenodd" stroke="none" />
    <path d="M5.12499 21L5.12499 12L6.12499 12L6.12499 21L5.12499 21L5.12499 21Z" id="Shape" fill="#B4B4B4" fill-opacity="0.49803922" stroke="none" />
    <path d="M0.499993 16.125L10.5 16.125L10.5 17.125L0.499993 17.125L0.499993 16.125L0.499993 16.125Z" id="Shape" fill="#B4B4B4" fill-opacity="0.49803922" stroke="none" />
    <path d="M8.99999 14.5C7.69999 14.5 6.99999 14.5 6.99999 14.5C5.49999 14.5 5.49999 18.5 3.99999 18.5C3.99999 18.5 3.29999 18.5 1.99999 18.5" id="Shape" fill="none" stroke="#F6D738" stroke-width="1" />
  </g>
</svg>