<?xml version="1.0" encoding="UTF-8" standalone="no"?>
<svg
   xmlns:dc="http://purl.org/dc/elements/1.1/"
   xmlns:cc="http://creativecommons.org/ns#"
   xmlns:rdf="http://www.w3.org/1999/02/22-rdf-syntax-ns#"
   xmlns:svg="http://www.w3.org/2000/svg"
   xmlns="http://www.w3.org/2000/svg"
   xmlns:xlink="http://www.w3.org/1999/xlink"
   xmlns:sodipodi="http://sodipodi.sourceforge.net/DTD/sodipodi-0.dtd"
   xmlns:inkscape="http://www.inkscape.org/namespaces/inkscape"
   width="94"
   height="42"
   viewBox="0 0 94 42"
   fill="none"
   version="1.1"
   id="svg29913"
   sodipodi:docname="bmp00305.svg"
   inkscape:version="1.0.1 (3bc2e813f5, 2020-09-07)">
  <metadata
     id="metadata29919">
    <rdf:RDF>
      <cc:Work
         rdf:about="">
        <dc:format>image/svg+xml</dc:format>
        <dc:type
           rdf:resource="http://purl.org/dc/dcmitype/StillImage" />
        <dc:title></dc:title>
      </cc:Work>
    </rdf:RDF>
  </metadata>
  <defs
     id="defs29917">
    <linearGradient
       x1="0.5"
       y1="0"
       x2="0.5"
       y2="1"
       id="linearGradient10622">
      <stop
         offset="0"
         stop-color="#787477"
         id="stop10618"
         style="stop-color:#746f71;stop-opacity:1" />
      <stop
         offset="1"
         stop-color="#716B6C"
         id="stop10620"
         style="stop-color:#696466;stop-opacity:1" />
    </linearGradient>
    <linearGradient
       inkscape:collect="always"
       xlink:href="#linearGradient10622-6"
       id="linearGradient19566"
       gradientUnits="userSpaceOnUse"
       gradientTransform="matrix(0.72727278,0,0,1,31.200002,0)"
       x1="8.953125"
       y1="0.78125"
       x2="8.9441519"
       y2="12.084538" />
    <linearGradient
       x1="0.5"
       y1="0"
       x2="0.5"
       y2="1"
       id="linearGradient10622-6">
      <stop
         offset="0"
         stop-color="#787477"
         id="stop10618-6"
         style="stop-color:#746f71;stop-opacity:1" />
      <stop
         offset="1"
         stop-color="#716B6C"
         id="stop10620-5"
         style="stop-color:#696466;stop-opacity:1" />
    </linearGradient>
    <linearGradient
       inkscape:collect="always"
       xlink:href="#linearGradient10622"
       id="linearGradient36296"
       gradientUnits="userSpaceOnUse"
       gradientTransform="translate(0,3.15e-4)"
       x1="8.953125"
       y1="0.78125"
       x2="8.9664249"
       y2="11.950889" />
    <linearGradient
       inkscape:collect="always"
       xlink:href="#linearGradient10622"
       id="linearGradient36334"
       gradientUnits="userSpaceOnUse"
       gradientTransform="translate(0,3.15e-4)"
       x1="8.953125"
       y1="0.78125"
       x2="8.9664249"
       y2="11.950889" />
    <linearGradient
       inkscape:collect="always"
       xlink:href="#linearGradient10622"
       id="linearGradient36338"
       gradientUnits="userSpaceOnUse"
       gradientTransform="translate(0,3.15e-4)"
       x1="8.953125"
       y1="0.78125"
       x2="8.9664249"
       y2="11.950889" />
    <linearGradient
       inkscape:collect="always"
       xlink:href="#linearGradient10622-6"
       id="linearGradient36372"
       gradientUnits="userSpaceOnUse"
       gradientTransform="matrix(0.72727278,0,0,1,31.200002,28.000315)"
       x1="8.953125"
       y1="0.78125"
       x2="8.9441519"
       y2="12.084538" />
    <linearGradient
       inkscape:collect="always"
       xlink:href="#linearGradient10622"
       id="linearGradient36374"
       gradientUnits="userSpaceOnUse"
       gradientTransform="translate(0,3.15e-4)"
       x1="8.953125"
       y1="0.78125"
       x2="8.9664249"
       y2="11.950889" />
  </defs>
  <sodipodi:namedview
     pagecolor="#393939"
     bordercolor="#ff0000"
     borderopacity="1"
     objecttolerance="10"
     gridtolerance="10"
     guidetolerance="10"
     inkscape:pageopacity="0"
     inkscape:pageshadow="2"
     inkscape:window-width="3753"
     inkscape:window-height="2137"
     id="namedview29915"
     showgrid="false"
     inkscape:showpageshadow="false"
     inkscape:zoom="22.446808"
     inkscape:cx="40.476981"
     inkscape:cy="23.657661"
     inkscape:window-x="-8"
     inkscape:window-y="-8"
     inkscape:window-maximized="1"
     inkscape:current-layer="svg29913"
     inkscape:document-rotation="0" />
  <path
     id="path36222"
     style="opacity:0.13;fill:#ffffff;fill-opacity:1;stroke:none;stroke-width:1.17249;stroke-linecap:butt;stroke-linejoin:miter;stroke-miterlimit:4;stroke-dasharray:none;stroke-opacity:1;paint-order:stroke markers fill"
     d="M 30.632395,13.499695 1.61745,13.5 C 0.7137299,13.500009 0,12.811824 0,11.936659 V 2.0800264 C 0,1.2048603 0.7275427,0.50031178 1.6312628,0.500305 L 30.646208,0.5 30.632388,13.499695 Z"
     sodipodi:nodetypes="cssssccc" />
  <path
     id="path19544"
     style="fill:#0a090a;fill-opacity:1;stroke:none;stroke-width:1.17236;stroke-linecap:butt;stroke-linejoin:miter;stroke-miterlimit:4;stroke-dasharray:none;stroke-opacity:1;paint-order:stroke markers fill"
     d="M 30.98619,12.999695 1.6170895,13 C 0.71357084,13.000009 0,12.311824 0,11.436659 V 1.5800264 C 0,0.70486028 0.72738056,3.1177712e-4 1.6308993,3.0499935e-4 L 31,0 30.986183,12.999695 Z"
     sodipodi:nodetypes="cssssccc" />
  <path
     id="path19546"
     style="fill:#413f40;fill-opacity:1;stroke:none;stroke-width:1.11;stroke-linecap:butt;stroke-linejoin:miter;stroke-miterlimit:4;stroke-dasharray:none;stroke-opacity:1;paint-order:stroke markers fill"
     d="M 1.846436,0.414189 H 30.630423 L 30.630419,12.3 H 1.846432 C 1.055871,12.3 0.419427,11.606905 0.419427,10.816345 V 1.841193 c 0,-0.79056 0.636444,-1.427004 1.427005,-1.427004 z"
     sodipodi:nodetypes="sccsssss" />
  <path
     id="path36278"
     style="opacity:0.13;fill:#ffffff;fill-opacity:1;stroke:none;stroke-width:1.01298;stroke-linecap:butt;stroke-linejoin:miter;stroke-miterlimit:4;stroke-dasharray:none;stroke-opacity:1;paint-order:stroke markers fill"
     d="M 62.990017,13.500158 31.2,13.500473 V 0.500315 L 63,0.5 62.99,13.500158 Z"
     sodipodi:nodetypes="cccccc" />
  <path
     id="path19560"
     style="fill:#0a090a;fill-opacity:1;stroke:none;stroke-width:1.01616;stroke-linecap:butt;stroke-linejoin:miter;stroke-miterlimit:4;stroke-dasharray:none;stroke-opacity:1;paint-order:stroke markers fill"
     d="M 62.989955,12.999843 31,13.000158 V 0 l 32,-3.15e-4 -0.01001,13.000158 z"
     sodipodi:nodetypes="cccccc" />
  <path
     id="path19562"
     style="fill:url(#linearGradient19566);fill-opacity:1;stroke:none;stroke-width:0.946607;stroke-linecap:butt;stroke-linejoin:miter;stroke-miterlimit:4;stroke-dasharray:none;stroke-opacity:1;paint-order:stroke markers fill"
     d="M 31.200003,0.413874 H 63.2 V 12.3 H 31.200001 L 31.2,0.413874 Z"
     sodipodi:nodetypes="sccccs" />
  <path
     id="path19564"
     style="fill:#959197;fill-opacity:1;stroke:none;stroke-width:0.616693;stroke-linecap:butt;stroke-linejoin:miter;stroke-miterlimit:4;stroke-dasharray:none;stroke-opacity:1;paint-order:stroke markers fill"
     d="m 31.200008,0.423513 -4e-6,0.496094 H 63.2 L 63.1935,0.423513 H 31.2 Z"
     sodipodi:nodetypes="cccccc" />
  <g
     id="g36294"
     transform="matrix(-1,0,0,1,93.97618,1.48e-4)">
    <path
       id="path36286"
       style="opacity:0.13;fill:#ffffff;fill-opacity:1;stroke:none;stroke-width:1.17249;stroke-linecap:butt;stroke-linejoin:miter;stroke-miterlimit:4;stroke-dasharray:none;stroke-opacity:1;paint-order:stroke markers fill"
       d="M 30.632395,13.499695 1.61745,13.5 C 0.7137299,13.500009 0,12.811824 0,11.936659 V 2.0800264 C 0,1.2048603 0.7275427,0.50031178 1.6312628,0.500305 L 30.646208,0.5 30.632388,13.499695 Z"
       sodipodi:nodetypes="cssssccc" />
    <path
       id="path36288"
       style="opacity:1;fill:#0a090a;fill-opacity:1;stroke:none;stroke-width:1.17236;stroke-linecap:butt;stroke-linejoin:miter;stroke-miterlimit:4;stroke-dasharray:none;stroke-opacity:1;paint-order:stroke markers fill"
       d="M 30.98619,12.999695 1.6170895,13 C 0.71357084,13.000009 0,12.311824 0,11.436659 V 1.5800264 C 0,0.70486028 0.72738056,3.1177712e-4 1.6308993,3.0499935e-4 L 31,0 30.986183,12.999695 Z"
       sodipodi:nodetypes="cssssccc" />
    <path
       id="path36290"
       style="opacity:1;fill:url(#linearGradient36296);fill-opacity:1;stroke:none;stroke-width:1.11;stroke-linecap:butt;stroke-linejoin:miter;stroke-miterlimit:4;stroke-dasharray:none;stroke-opacity:1;paint-order:stroke markers fill"
       d="M 1.846436,0.414189 H 30.630423 L 30.630419,12.3 H 1.846432 C 1.055871,12.3 0.419427,11.606905 0.419427,10.816345 V 1.841193 c 0,-0.79056 0.636444,-1.427004 1.427005,-1.427004 z"
       sodipodi:nodetypes="sccsssss" />
    <path
       id="path36292"
       style="opacity:1;fill:#8d898f;fill-opacity:1;stroke:none;stroke-width:0.723173;stroke-linecap:butt;stroke-linejoin:miter;stroke-miterlimit:4;stroke-dasharray:none;stroke-opacity:1;paint-order:stroke markers fill"
       d="M 1.695312,0.423828 C 1.41184,0.424005 0.886501,0.65817 0.619141,1.121094 0.347168,1.591999 0.414062,1.897199 0.414062,1.943359 c 0,0.05338 0.346778,-1.023437 1.265625,-1.023437 h 28.9372 l -0.0088,-0.496094 H 1.695301 Z"
       sodipodi:nodetypes="ccsccccc" />
  </g>
  <g
     id="g36312"
     transform="translate(0,14.000315)">
    <path
       id="path36304"
       style="opacity:0.13;fill:#ffffff;fill-opacity:1;stroke:none;stroke-width:1.17249;stroke-linecap:butt;stroke-linejoin:miter;stroke-miterlimit:4;stroke-dasharray:none;stroke-opacity:1;paint-order:stroke markers fill"
       d="M 30.632395,13.499695 1.61745,13.5 C 0.7137299,13.500009 0,12.811824 0,11.936659 V 2.0800264 C 0,1.2048603 0.7275427,0.50031178 1.6312628,0.500305 L 30.646208,0.5 30.632388,13.499695 Z"
       sodipodi:nodetypes="cssssccc" />
    <path
       id="path36306"
       style="opacity:1;fill:#0a090a;fill-opacity:1;stroke:none;stroke-width:1.17236;stroke-linecap:butt;stroke-linejoin:miter;stroke-miterlimit:4;stroke-dasharray:none;stroke-opacity:1;paint-order:stroke markers fill"
       d="M 30.98619,12.999695 1.6170895,13 C 0.71357084,13.000009 0,12.311824 0,11.436659 V 1.5800264 C 0,0.70486028 0.72738056,3.1177712e-4 1.6308993,3.0499935e-4 L 31,0 30.986183,12.999695 Z"
       sodipodi:nodetypes="cssssccc" />
    <path
       id="path36308"
       style="opacity:1;fill:url(#linearGradient36338);fill-opacity:1;stroke:none;stroke-width:1.11;stroke-linecap:butt;stroke-linejoin:miter;stroke-miterlimit:4;stroke-dasharray:none;stroke-opacity:1;paint-order:stroke markers fill"
       d="M 1.846436,0.414189 H 30.630423 L 30.630419,12.3 H 1.846432 C 1.055871,12.3 0.419427,11.606905 0.419427,10.816345 V 1.841193 c 0,-0.79056 0.636444,-1.427004 1.427005,-1.427004 z"
       sodipodi:nodetypes="sccsssss" />
    <path
       id="path36310"
       style="opacity:1;fill:#8d898f;fill-opacity:1;stroke:none;stroke-width:0.723173;stroke-linecap:butt;stroke-linejoin:miter;stroke-miterlimit:4;stroke-dasharray:none;stroke-opacity:1;paint-order:stroke markers fill"
       d="M 1.695312,0.423828 C 1.41184,0.424005 0.886501,0.65817 0.619141,1.121094 0.347168,1.591999 0.414062,1.897199 0.414062,1.943359 c 0,0.05338 0.346778,-1.023437 1.265625,-1.023437 h 28.9372 l -0.0088,-0.496094 H 1.695301 Z"
       sodipodi:nodetypes="ccsccccc" />
  </g>
  <path
     id="path36314"
     style="opacity:0.13;fill:#ffffff;fill-opacity:1;stroke:none;stroke-width:1.01298;stroke-linecap:butt;stroke-linejoin:miter;stroke-miterlimit:4;stroke-dasharray:none;stroke-opacity:1;paint-order:stroke markers fill"
     d="M 62.990017,27.500473 31.2,27.500788 V 14.50063 L 63,14.500315 62.99,27.500473 Z"
     sodipodi:nodetypes="cccccc" />
  <path
     id="path36316"
     style="fill:#0a090a;fill-opacity:1;stroke:none;stroke-width:1.01616;stroke-linecap:butt;stroke-linejoin:miter;stroke-miterlimit:4;stroke-dasharray:none;stroke-opacity:1;paint-order:stroke markers fill"
     d="M 62.989955,27.000158 31,27.000473 V 14.000315 L 63,14 62.98999,27.000158 Z"
     sodipodi:nodetypes="cccccc" />
  <path
     id="path36318"
     style="fill:#413f40;fill-opacity:1;stroke:none;stroke-width:0.946607;stroke-linecap:butt;stroke-linejoin:miter;stroke-miterlimit:4;stroke-dasharray:none;stroke-opacity:1;paint-order:stroke markers fill"
     d="M 31.200003,14.414189 H 63.2 V 26.300315 H 31.200001 L 31.2,14.414189 Z"
     sodipodi:nodetypes="sccccs" />
  <g
     id="g36332"
     transform="matrix(-1,0,0,1,94,14.000315)">
    <path
       id="path36324"
       style="opacity:0.13;fill:#ffffff;fill-opacity:1;stroke:none;stroke-width:1.17249;stroke-linecap:butt;stroke-linejoin:miter;stroke-miterlimit:4;stroke-dasharray:none;stroke-opacity:1;paint-order:stroke markers fill"
       d="M 30.632395,13.499695 1.61745,13.5 C 0.7137299,13.500009 0,12.811824 0,11.936659 V 2.0800264 C 0,1.2048603 0.7275427,0.50031178 1.6312628,0.500305 L 30.646208,0.5 30.632388,13.499695 Z"
       sodipodi:nodetypes="cssssccc" />
    <path
       id="path36326"
       style="opacity:1;fill:#0a090a;fill-opacity:1;stroke:none;stroke-width:1.17236;stroke-linecap:butt;stroke-linejoin:miter;stroke-miterlimit:4;stroke-dasharray:none;stroke-opacity:1;paint-order:stroke markers fill"
       d="M 30.98619,12.999695 1.6170895,13 C 0.71357084,13.000009 0,12.311824 0,11.436659 V 1.5800264 C 0,0.70486028 0.72738056,3.1177712e-4 1.6308993,3.0499935e-4 L 31,0 30.986183,12.999695 Z"
       sodipodi:nodetypes="cssssccc" />
    <path
       id="path36328"
       style="opacity:1;fill:url(#linearGradient36334);fill-opacity:1;stroke:none;stroke-width:1.11;stroke-linecap:butt;stroke-linejoin:miter;stroke-miterlimit:4;stroke-dasharray:none;stroke-opacity:1;paint-order:stroke markers fill"
       d="M 1.846436,0.414189 H 30.630423 L 30.630419,12.3 H 1.846432 C 1.055871,12.3 0.419427,11.606905 0.419427,10.816345 V 1.841193 c 0,-0.79056 0.636444,-1.427004 1.427005,-1.427004 z"
       sodipodi:nodetypes="sccsssss" />
    <path
       id="path36330"
       style="opacity:1;fill:#8d898f;fill-opacity:1;stroke:none;stroke-width:0.723173;stroke-linecap:butt;stroke-linejoin:miter;stroke-miterlimit:4;stroke-dasharray:none;stroke-opacity:1;paint-order:stroke markers fill"
       d="M 1.695312,0.423828 C 1.41184,0.424005 0.886501,0.65817 0.619141,1.121094 0.347168,1.591999 0.414062,1.897199 0.414062,1.943359 c 0,0.05338 0.346778,-1.023437 1.265625,-1.023437 h 28.9372 l -0.0088,-0.496094 H 1.695301 Z"
       sodipodi:nodetypes="ccsccccc" />
  </g>
  <g
     id="g36348"
     transform="translate(0,28.000315)">
    <path
       id="path36340"
       style="opacity:0.13;fill:#ffffff;fill-opacity:1;stroke:none;stroke-width:1.17249;stroke-linecap:butt;stroke-linejoin:miter;stroke-miterlimit:4;stroke-dasharray:none;stroke-opacity:1;paint-order:stroke markers fill"
       d="M 30.632395,13.499695 1.61745,13.5 C 0.7137299,13.500009 0,12.811824 0,11.936659 V 2.0800264 C 0,1.2048603 0.7275427,0.50031178 1.6312628,0.500305 L 30.646208,0.5 30.632388,13.499695 Z"
       sodipodi:nodetypes="cssssccc" />
    <path
       id="path36342"
       style="opacity:1;fill:#0a090a;fill-opacity:1;stroke:none;stroke-width:1.17236;stroke-linecap:butt;stroke-linejoin:miter;stroke-miterlimit:4;stroke-dasharray:none;stroke-opacity:1;paint-order:stroke markers fill"
       d="M 30.98619,12.999695 1.6170895,13 C 0.71357084,13.000009 0,12.311824 0,11.436659 V 1.5800264 C 0,0.70486028 0.72738056,3.1177712e-4 1.6308993,3.0499935e-4 L 31,0 30.986183,12.999695 Z"
       sodipodi:nodetypes="cssssccc" />
    <path
       id="path36344"
       style="opacity:1;fill:url(#linearGradient36374);fill-opacity:1;stroke:none;stroke-width:1.11;stroke-linecap:butt;stroke-linejoin:miter;stroke-miterlimit:4;stroke-dasharray:none;stroke-opacity:1;paint-order:stroke markers fill"
       d="M 1.846436,0.414189 H 30.630423 L 30.630419,12.3 H 1.846432 C 1.055871,12.3 0.419427,11.606905 0.419427,10.816345 V 1.841193 c 0,-0.79056 0.636444,-1.427004 1.427005,-1.427004 z"
       sodipodi:nodetypes="sccsssss" />
    <path
       id="path36346"
       style="opacity:1;fill:#8d898f;fill-opacity:1;stroke:none;stroke-width:0.723173;stroke-linecap:butt;stroke-linejoin:miter;stroke-miterlimit:4;stroke-dasharray:none;stroke-opacity:1;paint-order:stroke markers fill"
       d="M 1.695312,0.423828 C 1.41184,0.424005 0.886501,0.65817 0.619141,1.121094 0.347168,1.591999 0.414062,1.897199 0.414062,1.943359 c 0,0.05338 0.346778,-1.023437 1.265625,-1.023437 h 28.9372 l -0.0088,-0.496094 H 1.695301 Z"
       sodipodi:nodetypes="ccsccccc" />
  </g>
  <path
     id="path36350"
     style="opacity:0.13;fill:#ffffff;fill-opacity:1;stroke:none;stroke-width:1.01298;stroke-linecap:butt;stroke-linejoin:miter;stroke-miterlimit:4;stroke-dasharray:none;stroke-opacity:1;paint-order:stroke markers fill"
     d="M 62.990017,41.500473 31.2,41.500788 V 28.50063 L 63,28.500315 62.99,41.500473 Z"
     sodipodi:nodetypes="cccccc" />
  <path
     id="path36352"
     style="fill:#0a090a;fill-opacity:1;stroke:none;stroke-width:1.01616;stroke-linecap:butt;stroke-linejoin:miter;stroke-miterlimit:4;stroke-dasharray:none;stroke-opacity:1;paint-order:stroke markers fill"
     d="M 62.989955,41.000158 31,41.000473 V 28.000315 L 63,28 62.98999,41.000158 Z"
     sodipodi:nodetypes="cccccc" />
  <path
     id="path36354"
     style="fill:url(#linearGradient36372);fill-opacity:1;stroke:none;stroke-width:0.946607;stroke-linecap:butt;stroke-linejoin:miter;stroke-miterlimit:4;stroke-dasharray:none;stroke-opacity:1;paint-order:stroke markers fill"
     d="M 31.200003,28.414189 H 63.2 V 40.300315 H 31.200001 L 31.2,28.414189 Z"
     sodipodi:nodetypes="sccccs" />
  <path
     id="path36356"
     style="fill:#959197;fill-opacity:1;stroke:none;stroke-width:0.616693;stroke-linecap:butt;stroke-linejoin:miter;stroke-miterlimit:4;stroke-dasharray:none;stroke-opacity:1;paint-order:stroke markers fill"
     d="m 31.200008,28.423828 -4e-6,0.496094 H 63.2 L 63.1935,28.423828 H 31.2 Z"
     sodipodi:nodetypes="cccccc" />
  <path
     id="path36360"
     style="opacity:0.13;fill:#ffffff;fill-opacity:1;stroke:none;stroke-width:1.17249;stroke-linecap:butt;stroke-linejoin:miter;stroke-miterlimit:4;stroke-dasharray:none;stroke-opacity:1;paint-order:stroke markers fill"
     d="m 63.367605,41.50001 29.014945,3.05e-4 C 93.28627,41.500324 94,40.812139 94,39.936974 v -9.856633 c 0,-0.875166 -0.727543,-1.579714 -1.631263,-1.579721 l -29.014945,-3.05e-4 0.01382,12.999695 z"
     sodipodi:nodetypes="cssssccc" />
  <path
     id="path36362"
     style="fill:#0a090a;fill-opacity:1;stroke:none;stroke-width:1.17236;stroke-linecap:butt;stroke-linejoin:miter;stroke-miterlimit:4;stroke-dasharray:none;stroke-opacity:1;paint-order:stroke markers fill"
     d="m 63.01381,41.00001 29.3691,3.05e-4 C 93.286429,41.000324 94,40.312139 94,39.436974 V 29.580341 C 94,28.705175 93.272619,28.000627 92.369101,28.00062 L 63,28.000315 63.013817,41.00001 Z"
     sodipodi:nodetypes="cssssccc" />
  <path
     id="path36364"
     style="fill:#413f40;fill-opacity:1;stroke:none;stroke-width:1.11;stroke-linecap:butt;stroke-linejoin:miter;stroke-miterlimit:4;stroke-dasharray:none;stroke-opacity:1;paint-order:stroke markers fill"
     d="M 92.153564,28.414504 H 63.369577 l 4e-6,11.885811 h 28.783987 c 0.790561,0 1.427005,-0.693095 1.427005,-1.483655 v -8.975152 c 0,-0.79056 -0.636444,-1.427004 -1.427005,-1.427004 z"
     sodipodi:nodetypes="sccsssss" />
  <g
     aria-label="On"
     id="text32"
     style="font-size:8px;font-family:SFProText-Regular, 'SF Pro Text';fill:#e4dcd9"
     class="e"
     transform="matrix(0.94852793,0,0,0.94852793,2.6505562,0.30799103)">
    <path
       d="m 45.776848,4.1761761 q 0.355469,0.390625 0.542969,0.9570312 0.191406,0.5664063 0.191406,1.2851563 0,0.71875 -0.195313,1.2890625 -0.191406,0.5664062 -0.539062,0.9453125 -0.359375,0.3945312 -0.851563,0.59375 -0.488281,0.1992187 -1.117187,0.1992187 -0.613281,0 -1.117188,-0.203125 -0.5,-0.203125 -0.851562,-0.5898437 -0.351563,-0.3867188 -0.542969,-0.9492188 -0.1875,-0.5625 -0.1875,-1.2851562 0,-0.7109375 0.1875,-1.2734375 0.1875,-0.5664063 0.546875,-0.96875 0.34375,-0.3828125 0.851563,-0.5859375 0.511718,-0.203125 1.113281,-0.203125 0.625,0 1.121094,0.2070312 0.5,0.203125 0.847656,0.5820313 z m -0.07031,2.2421875 q 0,-1.1328125 -0.507812,-1.7460938 -0.507813,-0.6171875 -1.386719,-0.6171875 -0.886719,0 -1.394531,0.6171875 -0.503906,0.6132813 -0.503906,1.7460938 0,1.1445312 0.515625,1.7539062 0.515625,0.6054688 1.382812,0.6054688 0.867188,0 1.378906,-0.6054688 0.515625,-0.609375 0.515625,-1.7539062 z"
       id="path39886"
       style="fill:#e4dcd9" />
    <path
       d="m 51.327629,9.3246136 h -0.734375 v -2.484375 q 0,-0.3007813 -0.03516,-0.5625 -0.03516,-0.265625 -0.128906,-0.4140625 -0.09766,-0.1640625 -0.28125,-0.2421875 -0.183594,-0.082031 -0.476563,-0.082031 -0.300781,0 -0.628906,0.1484375 -0.328125,0.1484375 -0.628906,0.3789063 V 9.3246136 H 47.679192 V 4.9613323 h 0.734375 v 0.484375 q 0.34375,-0.2851562 0.710937,-0.4453125 0.367188,-0.1601562 0.753906,-0.1601562 0.707032,0 1.078125,0.4257812 0.371094,0.4257813 0.371094,1.2265625 z"
       id="path39888"
       style="fill:#e4dcd9" />
  </g>
  <g
     aria-label="Gate"
     id="text50"
     style="font-size:8px;font-family:SFProText-Regular, 'SF Pro Text';fill:#e4dcd9"
     class="h"
     transform="matrix(0.94839484,0,0,0.94839484,4.1881172,0.17100089)">
    <path
       d="m 74.254608,8.8058271 q -0.476562,0.21875 -1.042969,0.3828125 -0.5625,0.1601563 -1.089843,0.1601563 -0.679688,0 -1.246094,-0.1875 -0.566406,-0.1875 -0.964844,-0.5625 -0.402344,-0.3789063 -0.621094,-0.9453125 -0.21875,-0.5703125 -0.21875,-1.3320313 0,-1.3945312 0.8125,-2.1992187 0.816407,-0.8085938 2.238282,-0.8085938 0.496093,0 1.011718,0.1210938 0.519532,0.1171875 1.117188,0.4023437 v 0.9179688 h -0.07031 Q 74.059296,4.6612959 73.828827,4.5089521 73.598358,4.3566084 73.375702,4.2550459 73.106171,4.1339521 72.762421,4.0558271 q -0.339844,-0.082031 -0.773438,-0.082031 -0.976562,0 -1.546875,0.6289062 -0.566406,0.625 -0.566406,1.6953125 0,1.1289063 0.59375,1.7578125 0.59375,0.625 1.617187,0.625 0.375,0 0.746094,-0.074219 0.375,-0.074219 0.65625,-0.1914063 V 6.9894209 H 71.930389 V 6.3097334 h 2.324219 z"
       id="path39891" />
    <path
       d="M 78.938202,9.2355146 H 78.207733 V 8.7706709 q -0.09766,0.066406 -0.265625,0.1875 -0.164062,0.1171875 -0.320312,0.1875 -0.183594,0.089844 -0.421875,0.1484375 -0.238282,0.0625 -0.558594,0.0625 -0.589844,0 -1,-0.390625 -0.410156,-0.390625 -0.410156,-0.9960938 0,-0.4960937 0.210937,-0.8007812 0.214844,-0.3085938 0.609375,-0.484375 0.398438,-0.1757813 0.957031,-0.2382813 0.558594,-0.0625 1.199219,-0.09375 V 6.2394209 q 0,-0.25 -0.08984,-0.4140625 -0.08594,-0.1640625 -0.25,-0.2578125 -0.15625,-0.089844 -0.375,-0.1210938 -0.21875,-0.03125 -0.457031,-0.03125 -0.289062,0 -0.644531,0.078125 -0.355469,0.074219 -0.734375,0.21875 h -0.03906 V 4.9659834 q 0.214844,-0.058594 0.621094,-0.1289063 0.40625,-0.070312 0.800781,-0.070312 0.460938,0 0.800782,0.078125 0.34375,0.074219 0.59375,0.2578125 0.246093,0.1796875 0.375,0.4648438 0.128906,0.2851562 0.128906,0.7070312 z M 78.207733,8.1612959 V 6.9464521 q -0.335937,0.019531 -0.792969,0.058594 -0.453125,0.039063 -0.71875,0.1132812 -0.316406,0.089844 -0.511718,0.28125 -0.195313,0.1875 -0.195313,0.5195313 0,0.375 0.226563,0.5664062 0.226562,0.1875 0.691406,0.1875 0.386719,0 0.707031,-0.1484375 0.320313,-0.1523437 0.59375,-0.3632814 z"
       id="path39893" />
    <path
       d="m 82.617889,9.1964521 q -0.207031,0.054687 -0.453125,0.089844 -0.242187,0.035156 -0.433593,0.035156 -0.667969,0 -1.015625,-0.359375 -0.347657,-0.359375 -0.347657,-1.1523437 V 5.4894209 H 79.871796 V 4.8722334 h 0.496093 V 3.6183271 h 0.734375 v 1.2539063 h 1.515625 v 0.6171875 h -1.515625 v 1.9882812 q 0,0.34375 0.01563,0.5390625 0.01563,0.1914063 0.109375,0.359375 0.08594,0.15625 0.234375,0.2304688 0.152344,0.070312 0.460938,0.070312 0.179687,0 0.375,-0.050781 0.195312,-0.054687 0.28125,-0.089844 h 0.03906 z"
       id="path39895" />
    <path
       d="m 87.156952,7.1300459 h -3.214844 q 0,0.4023437 0.121094,0.703125 0.121094,0.296875 0.332031,0.4882812 0.203125,0.1875 0.480469,0.28125 0.28125,0.09375 0.617187,0.09375 0.445313,0 0.894532,-0.1757812 0.453125,-0.1796875 0.644531,-0.3515625 h 0.03906 v 0.8007812 q -0.371093,0.15625 -0.757812,0.2617188 -0.386719,0.1054687 -0.8125,0.1054687 -1.085938,0 -1.695313,-0.5859375 -0.609375,-0.5898437 -0.609375,-1.671875 0,-1.0703125 0.582032,-1.6992187 0.585937,-0.6289063 1.539062,-0.6289063 0.882813,0 1.359375,0.515625 0.480469,0.515625 0.480469,1.4648438 z m -0.714844,-0.5625 q -0.0039,-0.578125 -0.292969,-0.8945313 -0.285156,-0.3164062 -0.871093,-0.3164062 -0.589844,0 -0.941407,0.3476562 -0.347656,0.3476563 -0.394531,0.8632813 z"
       id="path39897" />
  </g>
  <g
     aria-label="Off"
     id="text68"
     style="font-size:8px;font-family:SFProText-Regular, 'SF Pro Text';fill:#fce237"
     class="h"
     transform="matrix(0.96202218,0,0,0.96202218,0.35970619,0.03436545)">
    <path
       d="m 14.139449,4.2197256 q 0.355469,0.390625 0.542969,0.9570313 0.191406,0.5664062 0.191406,1.2851562 0,0.71875 -0.195312,1.2890625 -0.191407,0.5664063 -0.539063,0.9453125 -0.359375,0.3945313 -0.851562,0.59375 -0.488282,0.1992188 -1.117188,0.1992188 -0.613281,0 -1.117187,-0.203125 -0.5,-0.203125 -0.851563,-0.5898438 -0.3515624,-0.3867187 -0.5429686,-0.9492187 -0.1875,-0.5625 -0.1875,-1.2851563 0,-0.7109375 0.1875,-1.2734375 0.1875,-0.5664062 0.5468746,-0.96875 0.34375,-0.3828125 0.851563,-0.5859375 0.511719,-0.203125 1.113281,-0.203125 0.625,0 1.121094,0.2070313 0.5,0.203125 0.847656,0.5820312 z m -0.07031,2.2421875 q 0,-1.1328125 -0.507813,-1.7460937 -0.507812,-0.6171875 -1.386719,-0.6171875 -0.886718,0 -1.394531,0.6171875 -0.503906,0.6132812 -0.503906,1.7460937 0,1.1445313 0.515625,1.7539063 0.515625,0.6054687 1.382812,0.6054687 0.867188,0 1.378907,-0.6054687 0.515625,-0.609375 0.515625,-1.7539063 z"
       id="path39879"
       style="fill:#fce237" />
    <path
       d="m 18.389449,4.0009756 h -0.03906 q -0.121094,-0.035156 -0.316407,-0.070313 -0.195312,-0.039063 -0.34375,-0.039063 -0.472656,0 -0.6875,0.2109375 -0.210937,0.2070313 -0.210937,0.7539063 v 0.1484375 h 1.324219 V 5.6220694 H 16.81523 V 9.3681631 H 16.080855 V 5.6220694 H 15.584762 V 5.0048819 h 0.496093 V 4.8603506 q 0,-0.7773437 0.386719,-1.1914062 0.386719,-0.4179688 1.117188,-0.4179688 0.246093,0 0.441406,0.023437 0.199219,0.023437 0.363281,0.054687 z"
       id="path39881"
       style="fill:#fce237" />
    <path
       d="m 21.201949,4.0009756 h -0.03906 q -0.121094,-0.035156 -0.316407,-0.070313 -0.195312,-0.039063 -0.34375,-0.039063 -0.472656,0 -0.6875,0.2109375 -0.210937,0.2070313 -0.210937,0.7539063 v 0.1484375 h 1.324219 V 5.6220694 H 19.62773 V 9.3681631 H 18.893355 V 5.6220694 H 18.397262 V 5.0048819 h 0.496093 V 4.8603506 q 0,-0.7773437 0.386719,-1.1914062 0.386719,-0.4179688 1.117188,-0.4179688 0.246093,0 0.441406,0.023437 0.199219,0.023437 0.363281,0.054687 z"
       id="path39883"
       style="fill:#fce237" />
  </g>
  <g
     aria-label="On"
     id="g39904"
     style="font-size:8px;font-family:SFProText-Regular, 'SF Pro Text';fill:#fce237"
     class="e"
     transform="matrix(0.94852793,0,0,0.94852793,2.6505562,14.308115)">
    <path
       d="m 45.776848,4.1761761 q 0.355469,0.390625 0.542969,0.9570312 0.191406,0.5664063 0.191406,1.2851563 0,0.71875 -0.195313,1.2890625 -0.191406,0.5664062 -0.539062,0.9453125 -0.359375,0.3945312 -0.851563,0.59375 -0.488281,0.1992187 -1.117187,0.1992187 -0.613281,0 -1.117188,-0.203125 -0.5,-0.203125 -0.851562,-0.5898437 -0.351563,-0.3867188 -0.542969,-0.9492188 -0.1875,-0.5625 -0.1875,-1.2851562 0,-0.7109375 0.1875,-1.2734375 0.1875,-0.5664063 0.546875,-0.96875 0.34375,-0.3828125 0.851563,-0.5859375 0.511718,-0.203125 1.113281,-0.203125 0.625,0 1.121094,0.2070312 0.5,0.203125 0.847656,0.5820313 z m -0.07031,2.2421875 q 0,-1.1328125 -0.507812,-1.7460938 -0.507813,-0.6171875 -1.386719,-0.6171875 -0.886719,0 -1.394531,0.6171875 -0.503906,0.6132813 -0.503906,1.7460938 0,1.1445312 0.515625,1.7539062 0.515625,0.6054688 1.382812,0.6054688 0.867188,0 1.378906,-0.6054688 0.515625,-0.609375 0.515625,-1.7539062 z"
       id="path39900"
       style="fill:#fce237" />
    <path
       d="m 51.327629,9.3246136 h -0.734375 v -2.484375 q 0,-0.3007813 -0.03516,-0.5625 -0.03516,-0.265625 -0.128906,-0.4140625 -0.09766,-0.1640625 -0.28125,-0.2421875 -0.183594,-0.082031 -0.476563,-0.082031 -0.300781,0 -0.628906,0.1484375 -0.328125,0.1484375 -0.628906,0.3789063 V 9.3246136 H 47.679192 V 4.9613323 h 0.734375 v 0.484375 q 0.34375,-0.2851562 0.710937,-0.4453125 0.367188,-0.1601562 0.753906,-0.1601562 0.707032,0 1.078125,0.4257812 0.371094,0.4257813 0.371094,1.2265625 z"
       id="path39902"
       style="fill:#fce237" />
  </g>
  <g
     aria-label="Gate"
     id="g39914"
     style="font-size:8px;font-family:SFProText-Regular, 'SF Pro Text';fill:#e4dcd9"
     class="h"
     transform="matrix(0.94839484,0,0,0.94839484,4.1881172,14.171125)">
    <path
       d="m 74.254608,8.8058271 q -0.476562,0.21875 -1.042969,0.3828125 -0.5625,0.1601563 -1.089843,0.1601563 -0.679688,0 -1.246094,-0.1875 -0.566406,-0.1875 -0.964844,-0.5625 -0.402344,-0.3789063 -0.621094,-0.9453125 -0.21875,-0.5703125 -0.21875,-1.3320313 0,-1.3945312 0.8125,-2.1992187 0.816407,-0.8085938 2.238282,-0.8085938 0.496093,0 1.011718,0.1210938 0.519532,0.1171875 1.117188,0.4023437 v 0.9179688 h -0.07031 Q 74.059296,4.6612959 73.828827,4.5089521 73.598358,4.3566084 73.375702,4.2550459 73.106171,4.1339521 72.762421,4.0558271 q -0.339844,-0.082031 -0.773438,-0.082031 -0.976562,0 -1.546875,0.6289062 -0.566406,0.625 -0.566406,1.6953125 0,1.1289063 0.59375,1.7578125 0.59375,0.625 1.617187,0.625 0.375,0 0.746094,-0.074219 0.375,-0.074219 0.65625,-0.1914063 V 6.9894209 H 71.930389 V 6.3097334 h 2.324219 z"
       id="path39906" />
    <path
       d="M 78.938202,9.2355146 H 78.207733 V 8.7706709 q -0.09766,0.066406 -0.265625,0.1875 -0.164062,0.1171875 -0.320312,0.1875 -0.183594,0.089844 -0.421875,0.1484375 -0.238282,0.0625 -0.558594,0.0625 -0.589844,0 -1,-0.390625 -0.410156,-0.390625 -0.410156,-0.9960938 0,-0.4960937 0.210937,-0.8007812 0.214844,-0.3085938 0.609375,-0.484375 0.398438,-0.1757813 0.957031,-0.2382813 0.558594,-0.0625 1.199219,-0.09375 V 6.2394209 q 0,-0.25 -0.08984,-0.4140625 -0.08594,-0.1640625 -0.25,-0.2578125 -0.15625,-0.089844 -0.375,-0.1210938 -0.21875,-0.03125 -0.457031,-0.03125 -0.289062,0 -0.644531,0.078125 -0.355469,0.074219 -0.734375,0.21875 h -0.03906 V 4.9659834 q 0.214844,-0.058594 0.621094,-0.1289063 0.40625,-0.070312 0.800781,-0.070312 0.460938,0 0.800782,0.078125 0.34375,0.074219 0.59375,0.2578125 0.246093,0.1796875 0.375,0.4648438 0.128906,0.2851562 0.128906,0.7070312 z M 78.207733,8.1612959 V 6.9464521 q -0.335937,0.019531 -0.792969,0.058594 -0.453125,0.039063 -0.71875,0.1132812 -0.316406,0.089844 -0.511718,0.28125 -0.195313,0.1875 -0.195313,0.5195313 0,0.375 0.226563,0.5664062 0.226562,0.1875 0.691406,0.1875 0.386719,0 0.707031,-0.1484375 0.320313,-0.1523437 0.59375,-0.3632814 z"
       id="path39908" />
    <path
       d="m 82.617889,9.1964521 q -0.207031,0.054687 -0.453125,0.089844 -0.242187,0.035156 -0.433593,0.035156 -0.667969,0 -1.015625,-0.359375 -0.347657,-0.359375 -0.347657,-1.1523437 V 5.4894209 H 79.871796 V 4.8722334 h 0.496093 V 3.6183271 h 0.734375 v 1.2539063 h 1.515625 v 0.6171875 h -1.515625 v 1.9882812 q 0,0.34375 0.01563,0.5390625 0.01563,0.1914063 0.109375,0.359375 0.08594,0.15625 0.234375,0.2304688 0.152344,0.070312 0.460938,0.070312 0.179687,0 0.375,-0.050781 0.195312,-0.054687 0.28125,-0.089844 h 0.03906 z"
       id="path39910" />
    <path
       d="m 87.156952,7.1300459 h -3.214844 q 0,0.4023437 0.121094,0.703125 0.121094,0.296875 0.332031,0.4882812 0.203125,0.1875 0.480469,0.28125 0.28125,0.09375 0.617187,0.09375 0.445313,0 0.894532,-0.1757812 0.453125,-0.1796875 0.644531,-0.3515625 h 0.03906 v 0.8007812 q -0.371093,0.15625 -0.757812,0.2617188 -0.386719,0.1054687 -0.8125,0.1054687 -1.085938,0 -1.695313,-0.5859375 -0.609375,-0.5898437 -0.609375,-1.671875 0,-1.0703125 0.582032,-1.6992187 0.585937,-0.6289063 1.539062,-0.6289063 0.882813,0 1.359375,0.515625 0.480469,0.515625 0.480469,1.4648438 z m -0.714844,-0.5625 q -0.0039,-0.578125 -0.292969,-0.8945313 -0.285156,-0.3164062 -0.871093,-0.3164062 -0.589844,0 -0.941407,0.3476562 -0.347656,0.3476563 -0.394531,0.8632813 z"
       id="path39912" />
  </g>
  <g
     aria-label="Off"
     id="g39922"
     style="font-size:8px;font-family:SFProText-Regular, 'SF Pro Text';fill:#e4dcd9"
     class="h"
     transform="matrix(0.96202218,0,0,0.96202218,0.35970619,14.034489)">
    <path
       d="m 14.139449,4.2197256 q 0.355469,0.390625 0.542969,0.9570313 0.191406,0.5664062 0.191406,1.2851562 0,0.71875 -0.195312,1.2890625 -0.191407,0.5664063 -0.539063,0.9453125 -0.359375,0.3945313 -0.851562,0.59375 -0.488282,0.1992188 -1.117188,0.1992188 -0.613281,0 -1.117187,-0.203125 -0.5,-0.203125 -0.851563,-0.5898438 -0.3515624,-0.3867187 -0.5429686,-0.9492187 -0.1875,-0.5625 -0.1875,-1.2851563 0,-0.7109375 0.1875,-1.2734375 0.1875,-0.5664062 0.5468746,-0.96875 0.34375,-0.3828125 0.851563,-0.5859375 0.511719,-0.203125 1.113281,-0.203125 0.625,0 1.121094,0.2070313 0.5,0.203125 0.847656,0.5820312 z m -0.07031,2.2421875 q 0,-1.1328125 -0.507813,-1.7460937 -0.507812,-0.6171875 -1.386719,-0.6171875 -0.886718,0 -1.394531,0.6171875 -0.503906,0.6132812 -0.503906,1.7460937 0,1.1445313 0.515625,1.7539063 0.515625,0.6054687 1.382812,0.6054687 0.867188,0 1.378907,-0.6054687 0.515625,-0.609375 0.515625,-1.7539063 z"
       id="path39916"
       style="fill:#e4dcd9" />
    <path
       d="m 18.389449,4.0009756 h -0.03906 q -0.121094,-0.035156 -0.316407,-0.070313 -0.195312,-0.039063 -0.34375,-0.039063 -0.472656,0 -0.6875,0.2109375 -0.210937,0.2070313 -0.210937,0.7539063 v 0.1484375 h 1.324219 V 5.6220694 H 16.81523 V 9.3681631 H 16.080855 V 5.6220694 H 15.584762 V 5.0048819 h 0.496093 V 4.8603506 q 0,-0.7773437 0.386719,-1.1914062 0.386719,-0.4179688 1.117188,-0.4179688 0.246093,0 0.441406,0.023437 0.199219,0.023437 0.363281,0.054687 z"
       id="path39918"
       style="fill:#e4dcd9" />
    <path
       d="m 21.201949,4.0009756 h -0.03906 q -0.121094,-0.035156 -0.316407,-0.070313 -0.195312,-0.039063 -0.34375,-0.039063 -0.472656,0 -0.6875,0.2109375 -0.210937,0.2070313 -0.210937,0.7539063 v 0.1484375 h 1.324219 V 5.6220694 H 19.62773 V 9.3681631 H 18.893355 V 5.6220694 H 18.397262 V 5.0048819 h 0.496093 V 4.8603506 q 0,-0.7773437 0.386719,-1.1914062 0.386719,-0.4179688 1.117188,-0.4179688 0.246093,0 0.441406,0.023437 0.199219,0.023437 0.363281,0.054687 z"
       id="path39920"
       style="fill:#e4dcd9" />
  </g>
  <g
     aria-label="On"
     id="g39928"
     style="font-size:8px;font-family:SFProText-Regular, 'SF Pro Text';fill:#e4dcd9"
     class="e"
     transform="matrix(0.94852793,0,0,0.94852793,2.6505562,28.308115)">
    <path
       d="m 45.776848,4.1761761 q 0.355469,0.390625 0.542969,0.9570312 0.191406,0.5664063 0.191406,1.2851563 0,0.71875 -0.195313,1.2890625 -0.191406,0.5664062 -0.539062,0.9453125 -0.359375,0.3945312 -0.851563,0.59375 -0.488281,0.1992187 -1.117187,0.1992187 -0.613281,0 -1.117188,-0.203125 -0.5,-0.203125 -0.851562,-0.5898437 -0.351563,-0.3867188 -0.542969,-0.9492188 -0.1875,-0.5625 -0.1875,-1.2851562 0,-0.7109375 0.1875,-1.2734375 0.1875,-0.5664063 0.546875,-0.96875 0.34375,-0.3828125 0.851563,-0.5859375 0.511718,-0.203125 1.113281,-0.203125 0.625,0 1.121094,0.2070312 0.5,0.203125 0.847656,0.5820313 z m -0.07031,2.2421875 q 0,-1.1328125 -0.507812,-1.7460938 -0.507813,-0.6171875 -1.386719,-0.6171875 -0.886719,0 -1.394531,0.6171875 -0.503906,0.6132813 -0.503906,1.7460938 0,1.1445312 0.515625,1.7539062 0.515625,0.6054688 1.382812,0.6054688 0.867188,0 1.378906,-0.6054688 0.515625,-0.609375 0.515625,-1.7539062 z"
       id="path39924"
       style="fill:#e4dcd9" />
    <path
       d="m 51.327629,9.3246136 h -0.734375 v -2.484375 q 0,-0.3007813 -0.03516,-0.5625 -0.03516,-0.265625 -0.128906,-0.4140625 -0.09766,-0.1640625 -0.28125,-0.2421875 -0.183594,-0.082031 -0.476563,-0.082031 -0.300781,0 -0.628906,0.1484375 -0.328125,0.1484375 -0.628906,0.3789063 V 9.3246136 H 47.679192 V 4.9613323 h 0.734375 v 0.484375 q 0.34375,-0.2851562 0.710937,-0.4453125 0.367188,-0.1601562 0.753906,-0.1601562 0.707032,0 1.078125,0.4257812 0.371094,0.4257813 0.371094,1.2265625 z"
       id="path39926"
       style="fill:#e4dcd9" />
  </g>
  <g
     aria-label="Gate"
     id="g39938"
     style="font-size:8px;font-family:SFProText-Regular, 'SF Pro Text';fill:#fce237"
     class="h"
     transform="matrix(0.94839484,0,0,0.94839484,4.1881172,28.171125)">
    <path
       d="m 74.254608,8.8058271 q -0.476562,0.21875 -1.042969,0.3828125 -0.5625,0.1601563 -1.089843,0.1601563 -0.679688,0 -1.246094,-0.1875 -0.566406,-0.1875 -0.964844,-0.5625 -0.402344,-0.3789063 -0.621094,-0.9453125 -0.21875,-0.5703125 -0.21875,-1.3320313 0,-1.3945312 0.8125,-2.1992187 0.816407,-0.8085938 2.238282,-0.8085938 0.496093,0 1.011718,0.1210938 0.519532,0.1171875 1.117188,0.4023437 v 0.9179688 h -0.07031 Q 74.059296,4.6612959 73.828827,4.5089521 73.598358,4.3566084 73.375702,4.2550459 73.106171,4.1339521 72.762421,4.0558271 q -0.339844,-0.082031 -0.773438,-0.082031 -0.976562,0 -1.546875,0.6289062 -0.566406,0.625 -0.566406,1.6953125 0,1.1289063 0.59375,1.7578125 0.59375,0.625 1.617187,0.625 0.375,0 0.746094,-0.074219 0.375,-0.074219 0.65625,-0.1914063 V 6.9894209 H 71.930389 V 6.3097334 h 2.324219 z"
       id="path39930"
       style="fill:#fce237" />
    <path
       d="M 78.938202,9.2355146 H 78.207733 V 8.7706709 q -0.09766,0.066406 -0.265625,0.1875 -0.164062,0.1171875 -0.320312,0.1875 -0.183594,0.089844 -0.421875,0.1484375 -0.238282,0.0625 -0.558594,0.0625 -0.589844,0 -1,-0.390625 -0.410156,-0.390625 -0.410156,-0.9960938 0,-0.4960937 0.210937,-0.8007812 0.214844,-0.3085938 0.609375,-0.484375 0.398438,-0.1757813 0.957031,-0.2382813 0.558594,-0.0625 1.199219,-0.09375 V 6.2394209 q 0,-0.25 -0.08984,-0.4140625 -0.08594,-0.1640625 -0.25,-0.2578125 -0.15625,-0.089844 -0.375,-0.1210938 -0.21875,-0.03125 -0.457031,-0.03125 -0.289062,0 -0.644531,0.078125 -0.355469,0.074219 -0.734375,0.21875 h -0.03906 V 4.9659834 q 0.214844,-0.058594 0.621094,-0.1289063 0.40625,-0.070312 0.800781,-0.070312 0.460938,0 0.800782,0.078125 0.34375,0.074219 0.59375,0.2578125 0.246093,0.1796875 0.375,0.4648438 0.128906,0.2851562 0.128906,0.7070312 z M 78.207733,8.1612959 V 6.9464521 q -0.335937,0.019531 -0.792969,0.058594 -0.453125,0.039063 -0.71875,0.1132812 -0.316406,0.089844 -0.511718,0.28125 -0.195313,0.1875 -0.195313,0.5195313 0,0.375 0.226563,0.5664062 0.226562,0.1875 0.691406,0.1875 0.386719,0 0.707031,-0.1484375 0.320313,-0.1523437 0.59375,-0.3632814 z"
       id="path39932"
       style="fill:#fce237" />
    <path
       d="m 82.617889,9.1964521 q -0.207031,0.054687 -0.453125,0.089844 -0.242187,0.035156 -0.433593,0.035156 -0.667969,0 -1.015625,-0.359375 -0.347657,-0.359375 -0.347657,-1.1523437 V 5.4894209 H 79.871796 V 4.8722334 h 0.496093 V 3.6183271 h 0.734375 v 1.2539063 h 1.515625 v 0.6171875 h -1.515625 v 1.9882812 q 0,0.34375 0.01563,0.5390625 0.01563,0.1914063 0.109375,0.359375 0.08594,0.15625 0.234375,0.2304688 0.152344,0.070312 0.460938,0.070312 0.179687,0 0.375,-0.050781 0.195312,-0.054687 0.28125,-0.089844 h 0.03906 z"
       id="path39934"
       style="fill:#fce237" />
    <path
       d="m 87.156952,7.1300459 h -3.214844 q 0,0.4023437 0.121094,0.703125 0.121094,0.296875 0.332031,0.4882812 0.203125,0.1875 0.480469,0.28125 0.28125,0.09375 0.617187,0.09375 0.445313,0 0.894532,-0.1757812 0.453125,-0.1796875 0.644531,-0.3515625 h 0.03906 v 0.8007812 q -0.371093,0.15625 -0.757812,0.2617188 -0.386719,0.1054687 -0.8125,0.1054687 -1.085938,0 -1.695313,-0.5859375 -0.609375,-0.5898437 -0.609375,-1.671875 0,-1.0703125 0.582032,-1.6992187 0.585937,-0.6289063 1.539062,-0.6289063 0.882813,0 1.359375,0.515625 0.480469,0.515625 0.480469,1.4648438 z m -0.714844,-0.5625 q -0.0039,-0.578125 -0.292969,-0.8945313 -0.285156,-0.3164062 -0.871093,-0.3164062 -0.589844,0 -0.941407,0.3476562 -0.347656,0.3476563 -0.394531,0.8632813 z"
       id="path39936"
       style="fill:#fce237" />
  </g>
  <g
     aria-label="Off"
     id="g39946"
     style="font-size:8px;font-family:SFProText-Regular, 'SF Pro Text';fill:#e4dcd9"
     class="h"
     transform="matrix(0.96202218,0,0,0.96202218,0.35970619,28.034489)">
    <path
       d="m 14.139449,4.2197256 q 0.355469,0.390625 0.542969,0.9570313 0.191406,0.5664062 0.191406,1.2851562 0,0.71875 -0.195312,1.2890625 -0.191407,0.5664063 -0.539063,0.9453125 -0.359375,0.3945313 -0.851562,0.59375 -0.488282,0.1992188 -1.117188,0.1992188 -0.613281,0 -1.117187,-0.203125 -0.5,-0.203125 -0.851563,-0.5898438 -0.3515624,-0.3867187 -0.5429686,-0.9492187 -0.1875,-0.5625 -0.1875,-1.2851563 0,-0.7109375 0.1875,-1.2734375 0.1875,-0.5664062 0.5468746,-0.96875 0.34375,-0.3828125 0.851563,-0.5859375 0.511719,-0.203125 1.113281,-0.203125 0.625,0 1.121094,0.2070313 0.5,0.203125 0.847656,0.5820312 z m -0.07031,2.2421875 q 0,-1.1328125 -0.507813,-1.7460937 -0.507812,-0.6171875 -1.386719,-0.6171875 -0.886718,0 -1.394531,0.6171875 -0.503906,0.6132812 -0.503906,1.7460937 0,1.1445313 0.515625,1.7539063 0.515625,0.6054687 1.382812,0.6054687 0.867188,0 1.378907,-0.6054687 0.515625,-0.609375 0.515625,-1.7539063 z"
       id="path39940"
       style="fill:#e4dcd9" />
    <path
       d="m 18.389449,4.0009756 h -0.03906 q -0.121094,-0.035156 -0.316407,-0.070313 -0.195312,-0.039063 -0.34375,-0.039063 -0.472656,0 -0.6875,0.2109375 -0.210937,0.2070313 -0.210937,0.7539063 v 0.1484375 h 1.324219 V 5.6220694 H 16.81523 V 9.3681631 H 16.080855 V 5.6220694 H 15.584762 V 5.0048819 h 0.496093 V 4.8603506 q 0,-0.7773437 0.386719,-1.1914062 0.386719,-0.4179688 1.117188,-0.4179688 0.246093,0 0.441406,0.023437 0.199219,0.023437 0.363281,0.054687 z"
       id="path39942"
       style="fill:#e4dcd9" />
    <path
       d="m 21.201949,4.0009756 h -0.03906 q -0.121094,-0.035156 -0.316407,-0.070313 -0.195312,-0.039063 -0.34375,-0.039063 -0.472656,0 -0.6875,0.2109375 -0.210937,0.2070313 -0.210937,0.7539063 v 0.1484375 h 1.324219 V 5.6220694 H 19.62773 V 9.3681631 H 18.893355 V 5.6220694 H 18.397262 V 5.0048819 h 0.496093 V 4.8603506 q 0,-0.7773437 0.386719,-1.1914062 0.386719,-0.4179688 1.117188,-0.4179688 0.246093,0 0.441406,0.023437 0.199219,0.023437 0.363281,0.054687 z"
       id="path39944"
       style="fill:#e4dcd9" />
  </g>
</svg>
