<svg xmlns="http://www.w3.org/2000/svg" width="70" height="24" viewBox="0 0 70 24"><g transform="translate(-0.024 0.009)"><g transform="translate(0.024 -0.009)"><rect width="70" height="12" fill="#746664"/><path d="M-17.276,0V-1.62l.554-.619L-15.068,0h.957l-2.071-2.789,1.907-2.143h-.906l-2.041,2.311h-.055V-4.932h-.766V0Zm7.1-.7h-2.365v-1.48H-10.3V-2.84h-2.239V-4.235h2.365v-.7H-13.3V0h3.131Zm3.23.7V-1.989L-5.2-4.932h-.851L-7.3-2.8h-.058L-8.594-4.932h-.851l1.736,2.943V0Zm4.618,0V-4.235H-.778v-.7H-4.643v.7h1.552V0ZM.925-4.259H2a.841.841,0,0,1,.954.861.82.82,0,0,1-.933.865H.925Zm0,2.379H2L3.01,0h.885L2.787-2.006a1.421,1.421,0,0,0,.957-1.408A1.476,1.476,0,0,0,2.111-4.932H.159V0H.925ZM8.027,0h.813L7.06-4.932H6.236L4.455,0h.786L5.7-1.309h1.88ZM6.609-4.037h.058l.714,2.085H5.891ZM11.49.12A1.924,1.924,0,0,0,13.537-1.5h-.762a1.236,1.236,0,0,1-1.285.909c-.889,0-1.442-.721-1.442-1.87s.554-1.873,1.439-1.873a1.268,1.268,0,0,1,1.289.995h.762a1.97,1.97,0,0,0-2.051-1.709c-1.371,0-2.222.988-2.222,2.587S10.119.12,11.49.12ZM15.307,0V-1.62l.554-.619L17.515,0h.957L16.4-2.789l1.907-2.143H17.4L15.362-2.622h-.055V-4.932h-.766V0Z" transform="translate(35 8.5)" fill="#dbd7d7"/></g><g transform="translate(0.024 11.991)"><rect width="70" height="12" fill="#956e57"/><path d="M-17.276,0V-1.62l.554-.619L-15.068,0h.957l-2.071-2.789,1.907-2.143h-.906l-2.041,2.311h-.055V-4.932h-.766V0Zm7.1-.7h-2.365v-1.48H-10.3V-2.84h-2.239V-4.235h2.365v-.7H-13.3V0h3.131Zm3.23.7V-1.989L-5.2-4.932h-.851L-7.3-2.8h-.058L-8.594-4.932h-.851l1.736,2.943V0Zm4.618,0V-4.235H-.778v-.7H-4.643v.7h1.552V0ZM.925-4.259H2a.841.841,0,0,1,.954.861.82.82,0,0,1-.933.865H.925Zm0,2.379H2L3.01,0h.885L2.787-2.006a1.421,1.421,0,0,0,.957-1.408A1.476,1.476,0,0,0,2.111-4.932H.159V0H.925ZM8.027,0h.813L7.06-4.932H6.236L4.455,0h.786L5.7-1.309h1.88ZM6.609-4.037h.058l.714,2.085H5.891ZM11.49.12A1.924,1.924,0,0,0,13.537-1.5h-.762a1.236,1.236,0,0,1-1.285.909c-.889,0-1.442-.721-1.442-1.87s.554-1.873,1.439-1.873a1.268,1.268,0,0,1,1.289.995h.762a1.97,1.97,0,0,0-2.051-1.709c-1.371,0-2.222.988-2.222,2.587S10.119.12,11.49.12ZM15.307,0V-1.62l.554-.619L17.515,0h.957L16.4-2.789l1.907-2.143H17.4L15.362-2.622h-.055V-4.932h-.766V0Z" transform="translate(35 8.5)" fill="#f6d738"/></g></g></svg>