<svg width="15" height="23" viewBox="0 0 15 23" fill="none" xmlns="http://www.w3.org/2000/svg">
<path fill-rule="evenodd" clip-rule="evenodd" d="M1.71041 11.6619L13.2896 11.6619C14.2372 11.6619 15 12.4247 15 13.3723V20.9515V22.6619L1.71041 22.6619C0.762843 22.6619 0 21.8991 0 20.9515V13.3723C0 12.4247 0.762843 11.6619 1.71041 11.6619Z" fill="#959197" fill-opacity="0.27451"/>
<path fill-rule="evenodd" clip-rule="evenodd" d="M15 22.1545L1.63152 22.1545C0.727657 22.1546 0 21.4269 0 20.523V13.2934C0 12.3896 0.727657 11.6619 1.63152 11.6619H15" fill="#0A090A"/>
<path fill-rule="evenodd" clip-rule="evenodd" d="M1.79389 12.0758H14.2223V21.6586H1.79389C1.03245 21.6586 0.419434 21.0221 0.419434 20.2316V13.5028C0.419434 12.7122 1.03245 12.0758 1.79389 12.0758Z" fill="#787477"/>
<path fill-rule="evenodd" clip-rule="evenodd" d="M0.413288 13.6044C0.413288 13.5582 0.349691 13.2538 0.61165 12.7829C0.869169 12.32 1.37545 12.0852 1.64849 12.085L14.222 12.0758L14.2223 12.5817C14.2223 12.5817 2.06183 12.5819 1.63269 12.5819C0.747667 12.5819 0.413288 13.6578 0.413288 13.6044Z" fill="#959197"/>
<path d="M8.08472 14.8673C7.51097 14.8629 6.94361 14.9878 6.42477 15.2328C5.90593 15.4778 5.44893 15.8365 5.08772 16.2823L3.83472 15.1023V18.8673H7.83472L6.47472 17.5873C6.83472 16.5533 7.86572 15.8073 9.08472 15.8073C10.6047 15.8073 11.8347 16.9673 11.8347 18.3953C11.8347 16.4473 10.1557 14.8673 8.08472 14.8673Z" fill="#DBD7D7"/>
<path fill-rule="evenodd" clip-rule="evenodd" d="M1.71041 0.661897L13.2896 0.661896C14.2372 0.661896 15 1.4247 15 2.3723V9.9515V11.6619L1.71041 11.6619C0.762843 11.6619 0 10.8991 0 9.9515V2.3723C0 1.4247 0.762843 0.661897 1.71041 0.661897Z" fill="#959197" fill-opacity="0.27451"/>
<path fill-rule="evenodd" clip-rule="evenodd" d="M15 11.1545L1.63152 11.1545C0.727657 11.1546 0 10.4269 0 9.523V2.2934C0 1.3896 0.727657 0.661896 1.63152 0.661896H15" fill="#0A090A"/>
<path fill-rule="evenodd" clip-rule="evenodd" d="M1.79389 1.07579H14.2223V10.6586H1.79389C1.03245 10.6586 0.419434 10.0221 0.419434 9.23159V2.50279C0.419434 1.71219 1.03245 1.07579 1.79389 1.07579Z" fill="#787477"/>
<path fill-rule="evenodd" clip-rule="evenodd" d="M0.413288 2.60439C0.413288 2.55819 0.349691 2.25379 0.61165 1.78289C0.869169 1.31999 1.37545 1.08519 1.64849 1.08499L14.222 1.07579L14.2223 1.58169C14.2223 1.58169 2.06183 1.58189 1.63269 1.58189C0.747667 1.58189 0.413288 2.65779 0.413288 2.60439Z" fill="#959197"/>
<path d="M8.08472 3.86725C7.51097 3.86289 6.94361 3.98784 6.42477 4.2328C5.90593 4.47777 5.44893 4.83646 5.08772 5.28225L3.83472 4.10225V7.86725H7.83472L6.47472 6.58725C6.83472 5.55325 7.86572 4.80725 9.08472 4.80725C10.6047 4.80725 11.8347 5.96725 11.8347 7.39525C11.8347 5.44725 10.1557 3.86725 8.08472 3.86725Z" fill="#DBD7D7"/>
</svg>
