<svg width="40" height="120" viewBox="0 0 40 120" fill="none" xmlns="http://www.w3.org/2000/svg">
<path fill-rule="evenodd" clip-rule="evenodd" d="M32.4797 2.0397L23.2808 11.1105L28.8012 16.554L38 7.48319L32.4797 2.0397ZM27.2053 17.9603L22 12.8268V17.95L27.2053 17.9603Z" fill="#E1CECA"/>
<path fill-rule="evenodd" clip-rule="evenodd" d="M12.4797 2.0397L3.28082 11.1105L8.80115 16.554L18 7.48319L12.4797 2.0397ZM7.20525 17.9603L2 12.8268V17.95L7.20525 17.9603Z" fill="#C9B5B0"/>
<path d="M2 35.9977L8.00199 29.9985L2 23.9996L4.0025 21.9998L10.0017 27.9991L16.0003 21.9998L18 23.9996L12.0008 29.9985L18 35.9977L16.0003 37.9971L10.0017 31.9982L4.0025 38.0002L2 35.9977Z" fill="#C9B5B0"/>
<path d="M22.0002 35.9975L28.002 29.9984L22.0002 23.9997L24.0026 22L30.0017 27.9991L36.0001 22L37.9998 23.9997L32.0007 29.9984L37.9998 35.9975L36.0001 37.9969L30.0017 31.9981L24.0026 38L22.0002 35.9975Z" fill="#E1CECA"/>
<path d="M27.8937 66.0031H24.7494V72.6025H27.8937V66.0031Z" fill="#E1CECA"/>
<path d="M28.5838 73.1302L34.7491 77.8109V74.8463L37.2492 77.3468L38.2678 76.3284L23.5596 61.6187L22.5414 62.6374L28.5838 68.6804V73.1302V73.1302ZM34.7491 70.9995V60.8091L28.9569 65.2067L34.7491 70.9995Z" fill="#E1CECA"/>
<path d="M8.14189 66.0031H4.99767V72.6025H8.14189V66.0031Z" fill="#C9B5B0"/>
<path d="M8.83204 73.1302L14.9973 77.8109V74.8463L17.4975 77.3468L18.5161 76.3284L3.80785 61.6187L2.78963 62.6374L8.83204 68.6804V73.1302V73.1302ZM14.9973 70.9995V60.8091L9.20508 65.2067L14.9973 70.9995Z" fill="#C9B5B0"/>
<path d="M27.8906 46.7122H24.7464V53.3116H27.8906V46.7122Z" fill="#E1CECA"/>
<path d="M28.5808 53.8393L34.746 58.52V41.5181L28.5808 46.1988V53.8393Z" fill="#E1CECA"/>
<path d="M8.09923 46.7122H4.955V53.3116H8.09923V46.7122Z" fill="#C9B5B0"/>
<path d="M8.78938 53.8393L14.9546 58.52V41.5181L8.78938 46.1988V53.8393Z" fill="#C9B5B0"/>
<path d="M7.37313 92.7031V92.4375C7.37834 91.526 7.45907 90.7995 7.61532 90.2578C7.77678 89.7161 8.01115 89.2786 8.31844 88.9453C8.62574 88.612 8.99553 88.3099 9.42782 88.0391C9.75074 87.8307 10.0398 87.6146 10.295 87.3906C10.5502 87.1667 10.7533 86.9193 10.9044 86.6484C11.0554 86.3724 11.1309 86.0651 11.1309 85.7266C11.1309 85.3672 11.045 85.0521 10.8731 84.7812C10.7013 84.5104 10.4695 84.3021 10.1778 84.1562C9.89136 84.0104 9.57365 83.9375 9.22469 83.9375C8.88615 83.9375 8.56584 84.013 8.26376 84.1641C7.96167 84.3099 7.71428 84.5286 7.52157 84.8203C7.32886 85.1068 7.22469 85.4635 7.20907 85.8906H4.02157C4.04761 84.849 4.29761 83.9896 4.77157 83.3125C5.24553 82.6302 5.87313 82.1224 6.65438 81.7891C7.43563 81.4505 8.29761 81.2812 9.24032 81.2812C10.2768 81.2812 11.1934 81.4531 11.9903 81.7969C12.7872 82.1354 13.4122 82.6276 13.8653 83.2734C14.3184 83.9193 14.545 84.6979 14.545 85.6094C14.545 86.2187 14.4434 86.7604 14.2403 87.2344C14.0424 87.7031 13.7638 88.1198 13.4044 88.4844C13.045 88.8437 12.6205 89.1693 12.1309 89.4609C11.7195 89.7057 11.3809 89.9609 11.1153 90.2266C10.8549 90.4922 10.6596 90.7995 10.5294 91.1484C10.4044 91.4974 10.3393 91.9271 10.3341 92.4375V92.7031H7.37313ZM8.92001 97.7031C8.39917 97.7031 7.95386 97.5208 7.58407 97.1562C7.21949 96.7865 7.0398 96.3437 7.04501 95.8281C7.0398 95.3177 7.21949 94.8802 7.58407 94.5156C7.95386 94.151 8.39917 93.9687 8.92001 93.9687C9.4148 93.9687 9.84969 94.151 10.2247 94.5156C10.5997 94.8802 10.7898 95.3177 10.795 95.8281C10.7898 96.1719 10.6987 96.487 10.5216 96.7734C10.3497 97.0547 10.1231 97.2812 9.84188 97.4531C9.56063 97.6198 9.25334 97.7031 8.92001 97.7031Z" fill="#F6D738"/>
<path d="M27.3711 92.7031V92.4375C27.3763 91.526 27.457 90.7995 27.6133 90.2578C27.7747 89.7161 28.0091 89.2786 28.3164 88.9453C28.6237 88.612 28.9935 88.3099 29.4258 88.0391C29.7487 87.8307 30.0377 87.6146 30.2929 87.3906C30.5481 87.1667 30.7513 86.9193 30.9023 86.6484C31.0534 86.3724 31.1289 86.0651 31.1289 85.7266C31.1289 85.3672 31.0429 85.0521 30.8711 84.7812C30.6992 84.5104 30.4674 84.3021 30.1758 84.1562C29.8893 84.0104 29.5716 83.9375 29.2226 83.9375C28.8841 83.9375 28.5638 84.013 28.2617 84.1641C27.9596 84.3099 27.7122 84.5286 27.5195 84.8203C27.3268 85.1068 27.2226 85.4635 27.207 85.8906H24.0195C24.0455 84.849 24.2955 83.9896 24.7695 83.3125C25.2435 82.6302 25.8711 82.1224 26.6523 81.7891C27.4336 81.4505 28.2955 81.2812 29.2383 81.2812C30.2747 81.2812 31.1914 81.4531 31.9883 81.7969C32.7851 82.1354 33.4101 82.6276 33.8633 83.2734C34.3164 83.9193 34.5429 84.6979 34.5429 85.6094C34.5429 86.2187 34.4414 86.7604 34.2383 87.2344C34.0403 87.7031 33.7617 88.1198 33.4023 88.4844C33.0429 88.8437 32.6185 89.1693 32.1289 89.4609C31.7174 89.7057 31.3789 89.9609 31.1133 90.2266C30.8528 90.4922 30.6575 90.7995 30.5273 91.1484C30.4023 91.4974 30.3372 91.9271 30.332 92.4375V92.7031H27.3711ZM28.9179 97.7031C28.3971 97.7031 27.9518 97.5208 27.582 97.1562C27.2174 96.7865 27.0377 96.3437 27.0429 95.8281C27.0377 95.3177 27.2174 94.8802 27.582 94.5156C27.9518 94.151 28.3971 93.9687 28.9179 93.9687C29.4127 93.9687 29.8476 94.151 30.2226 94.5156C30.5976 94.8802 30.7877 95.3177 30.7929 95.8281C30.7877 96.1719 30.6966 96.487 30.5195 96.7734C30.3476 97.0547 30.1211 97.2812 29.8398 97.4531C29.5586 97.6198 29.2513 97.7031 28.9179 97.7031Z" fill="#FFE873"/>
</svg>
