<?xml version="1.0" encoding="utf-8"?>
<svg width="90px" height="112px" viewBox="0 0 90 112" version="1.1" xmlns:xlink="http://www.w3.org/1999/xlink" xmlns="http://www.w3.org/2000/svg">
  <defs>
    <rect width="90" height="112" id="artboard_1" />
    <clipPath id="clip_1">
      <use xlink:href="#artboard_1" clip-rule="evenodd" />
    </clipPath>
  </defs>
  <g id="bmp00117" clip-path="url(#clip_1)">
    <path d="M39 5L39 4C39 3.72386 39.0976 3.48816 39.2929 3.29289C39.4882 3.09763 39.7239 3 40 3L50 3C50.2761 3 50.5118 3.09763 50.7071 3.29289C50.9024 3.48816 51 3.72386 51 4L51 14C51 14.2761 50.9024 14.5118 50.7071 14.7071C50.5118 14.9024 50.2761 15 50 15L40 15C39.7239 15 39.4882 14.9024 39.2929 14.7071C39.0976 14.5118 39 14.2761 39 14L39 5Z" id="Rectangle" fill="#E6E6FF" fill-opacity="0.2" fill-rule="evenodd" stroke="none" />
    <path d="M39 1.5C39 1.36193 39.0488 1.24408 39.1464 1.14645C39.2441 1.04882 39.3619 1 39.5 1L50.5 1C50.6381 1 50.7559 1.04882 50.8536 1.14645C50.9512 1.24408 51 1.36193 51 1.5C51 1.63807 50.9512 1.75592 50.8536 1.85355C50.7559 1.95118 50.6381 2 50.5 2L39.5 2C39.3619 2 39.2441 1.95118 39.1464 1.85355C39.0488 1.75592 39 1.63807 39 1.5L39 1.5Z" id="Rectangle" fill="#E6E6FF" fill-opacity="0.2" fill-rule="evenodd" stroke="none" />
    <path d="M39 1.5C39 1.36193 39.0488 1.24408 39.1464 1.14645C39.2441 1.04882 39.3619 1 39.5 1L50.5 1C50.6381 1 50.7559 1.04882 50.8536 1.14645C50.9512 1.24408 51 1.36193 51 1.5C51 1.63807 50.9512 1.75592 50.8536 1.85355C50.7559 1.95118 50.6381 2 50.5 2L39.5 2C39.3619 2 39.2441 1.95118 39.1464 1.85355C39.0488 1.75592 39 1.63807 39 1.5L39 1.5Z" id="Rectangle" fill="#FFE97E" fill-opacity="0" fill-rule="evenodd" stroke="none" />
    <path d="M45 12.137C46.313 12.137 47.078 11.055 47.078 9.184C47.078 7.313 46.3 6.227 45 6.227C43.7 6.227 42.918 7.313 42.918 9.176C42.918 11.039 43.688 12.137 45 12.137L45 12.137ZM45 11.371C44.234 11.371 43.8 10.601 43.8 9.171C43.8 7.761 44.245 6.987 45 6.987C45.755 6.987 46.2 7.757 46.2 9.171C46.2 10.605 45.77 11.371 45 11.371L45 11.371Z" id="Shape" fill="#DBD7D7" fill-rule="evenodd" stroke="none" />
    <path d="M52 5L52 4C52 3.72386 52.0976 3.48816 52.2929 3.29289C52.4882 3.09763 52.7239 3 53 3L63 3C63.2761 3 63.5118 3.09763 63.7071 3.29289C63.9024 3.48816 64 3.72386 64 4L64 14C64 14.2761 63.9024 14.5118 63.7071 14.7071C63.5118 14.9024 63.2761 15 63 15L53 15C52.7239 15 52.4882 14.9024 52.2929 14.7071C52.0976 14.5118 52 14.2761 52 14L52 5Z" id="Rectangle" fill="#E6E6FF" fill-opacity="0.2" fill-rule="evenodd" stroke="none" />
    <path d="M52 1.5C52 1.36193 52.0488 1.24408 52.1464 1.14645C52.2441 1.04882 52.3619 1 52.5 1L63.5 1C63.6381 1 63.7559 1.04882 63.8536 1.14645C63.9512 1.24408 64 1.36193 64 1.5C64 1.63807 63.9512 1.75592 63.8536 1.85355C63.7559 1.95118 63.6381 2 63.5 2L52.5 2C52.3619 2 52.2441 1.95118 52.1464 1.85355C52.0488 1.75592 52 1.63807 52 1.5L52 1.5Z" id="Rectangle" fill="#E6E6FF" fill-opacity="0.2" fill-rule="evenodd" stroke="none" />
    <path d="M52 1.5C52 1.36193 52.0488 1.24408 52.1464 1.14645C52.2441 1.04882 52.3619 1 52.5 1L63.5 1C63.6381 1 63.7559 1.04882 63.8536 1.14645C63.9512 1.24408 64 1.36193 64 1.5C64 1.63807 63.9512 1.75592 63.8536 1.85355C63.7559 1.95118 63.6381 2 63.5 2L52.5 2C52.3619 2 52.2441 1.95118 52.1464 1.85355C52.0488 1.75592 52 1.63807 52 1.5L52 1.5Z" id="Rectangle" fill="#FFE97E" fill-opacity="0" fill-rule="evenodd" stroke="none" />
    <path d="M58.029 12L58.9 12L58.9 6.363L58.033 6.363L56.549 7.41L56.549 8.3L57.963 7.3L58.029 7.3L58.029 12Z" id="Shape" fill="#DBD7D7" stroke="none" />
    <path d="M65 5L65 4C65 3.72386 65.0976 3.48816 65.2929 3.29289C65.4882 3.09763 65.7239 3 66 3L76 3C76.2761 3 76.5118 3.09763 76.7071 3.29289C76.9024 3.48816 77 3.72386 77 4L77 14C77 14.2761 76.9024 14.5118 76.7071 14.7071C76.5118 14.9024 76.2761 15 76 15L66 15C65.7239 15 65.4882 14.9024 65.2929 14.7071C65.0976 14.5118 65 14.2761 65 14L65 5Z" id="Rectangle" fill="#E6E6FF" fill-opacity="0.2" fill-rule="evenodd" stroke="none" />
    <path d="M65 1.5C65 1.36193 65.0488 1.24408 65.1464 1.14645C65.2441 1.04882 65.3619 1 65.5 1L76.5 1C76.6381 1 76.7559 1.04882 76.8536 1.14645C76.9512 1.24408 77 1.36193 77 1.5C77 1.63807 76.9512 1.75592 76.8536 1.85355C76.7559 1.95118 76.6381 2 76.5 2L65.5 2C65.3619 2 65.2441 1.95118 65.1464 1.85355C65.0488 1.75592 65 1.63807 65 1.5L65 1.5Z" id="Rectangle" fill="#E6E6FF" fill-opacity="0.2" fill-rule="evenodd" stroke="none" />
    <path d="M65 1.5C65 1.36193 65.0488 1.24408 65.1464 1.14645C65.2441 1.04882 65.3619 1 65.5 1L76.5 1C76.6381 1 76.7559 1.04882 76.8536 1.14645C76.9512 1.24408 77 1.36193 77 1.5C77 1.63807 76.9512 1.75592 76.8536 1.85355C76.7559 1.95118 76.6381 2 76.5 2L65.5 2C65.3619 2 65.2441 1.95118 65.1464 1.85355C65.0488 1.75592 65 1.63807 65 1.5L65 1.5Z" id="Rectangle" fill="#FFE97E" fill-opacity="0" fill-rule="evenodd" stroke="none" />
    <path d="M69.09 7.992L69.09 8L69.918 8L69.918 7.988C69.9076 7.71247 70.015 7.44555 70.2133 7.25395C70.4115 7.06236 70.682 6.96419 70.957 6.984C71.2131 6.96311 71.4666 7.04715 71.6595 7.21685C71.8524 7.38656 71.9681 7.62735 71.98 7.884C71.98 8.3 71.8 8.6 71.043 9.383L69.137 11.367L69.137 12L72.937 12L72.937 11.215L70.355 11.215L70.355 11.148L71.609 9.879C72.554 8.922 72.843 8.434 72.843 7.836C72.8202 7.37218 72.6087 6.93786 72.2576 6.63395C71.9065 6.33005 71.4463 6.18301 70.984 6.227C70.4934 6.18892 70.0094 6.35817 69.6494 6.69361C69.2895 7.02905 69.0866 7.49999 69.09 7.992L69.09 7.992Z" id="Shape" fill="#DBD7D7" stroke="none" />
    <path d="M78 5L78 4C78 3.72386 78.0976 3.48816 78.2929 3.29289C78.4882 3.09763 78.7239 3 79 3L89 3C89.2761 3 89.5118 3.09763 89.7071 3.29289C89.9024 3.48816 90 3.72386 90 4L90 14C90 14.2761 89.9024 14.5118 89.7071 14.7071C89.5118 14.9024 89.2761 15 89 15L79 15C78.7239 15 78.4882 14.9024 78.2929 14.7071C78.0976 14.5118 78 14.2761 78 14L78 5Z" id="Rectangle" fill="#E6E6FF" fill-opacity="0.2" fill-rule="evenodd" stroke="none" />
    <path d="M78 1.5C78 1.36193 78.0488 1.24408 78.1464 1.14645C78.2441 1.04882 78.3619 1 78.5 1L89.5 1C89.6381 1 89.7559 1.04882 89.8536 1.14645C89.9512 1.24408 90 1.36193 90 1.5C90 1.63807 89.9512 1.75592 89.8536 1.85355C89.7559 1.95118 89.6381 2 89.5 2L78.5 2C78.3619 2 78.2441 1.95118 78.1464 1.85355C78.0488 1.75592 78 1.63807 78 1.5L78 1.5Z" id="Rectangle" fill="#E6E6FF" fill-opacity="0.2" fill-rule="evenodd" stroke="none" />
    <path d="M78 1.5C78 1.36193 78.0488 1.24408 78.1464 1.14645C78.2441 1.04882 78.3619 1 78.5 1L89.5 1C89.6381 1 89.7559 1.04882 89.8536 1.14645C89.9512 1.24408 90 1.36193 90 1.5C90 1.63807 89.9512 1.75592 89.8536 1.85355C89.7559 1.95118 89.6381 2 89.5 2L78.5 2C78.3619 2 78.2441 1.95118 78.1464 1.85355C78.0488 1.75592 78 1.63807 78 1.5L78 1.5Z" id="Rectangle" fill="#FFE97E" fill-opacity="0" fill-rule="evenodd" stroke="none" />
    <path d="M83.271 9.469L83.982 9.469C84.72 9.469 85.182 9.832 85.182 10.414C85.182 10.969 84.698 11.363 84.01 11.363C83.322 11.363 82.854 11.016 82.8 10.469L81.96 10.469C81.9999 10.9658 82.2408 11.4247 82.6271 11.7396C83.0133 12.0545 83.5114 12.198 84.006 12.137C84.5033 12.1946 85.0029 12.0492 85.3917 11.7338C85.7806 11.4184 86.0258 10.9595 86.072 10.461C86.1066 9.74131 85.5535 9.12877 84.834 9.09L84.834 9.024C85.4436 8.89698 85.8708 8.34606 85.842 7.724C85.7985 7.27837 85.5779 6.86887 85.2297 6.5874C84.8815 6.30594 84.4348 6.17609 83.99 6.227C83.5127 6.17239 83.0342 6.31905 82.6695 6.63176C82.3048 6.94447 82.0869 7.39496 82.068 7.875L82.9 7.875C82.9168 7.61317 83.0397 7.36955 83.2404 7.20058C83.4411 7.0316 83.7021 6.95192 83.963 6.98C84.576 6.98 84.979 7.324 84.979 7.847C84.9744 8.10623 84.8608 8.35154 84.6662 8.5228C84.4715 8.69406 84.2137 8.77544 83.956 8.747L83.271 8.747L83.271 9.469Z" id="Shape" fill="#DBD7D7" stroke="none" />
    <path d="M26 5L26 4C26 3.72386 26.0976 3.48816 26.2929 3.29289C26.4882 3.09763 26.7239 3 27 3L37 3C37.2761 3 37.5118 3.09763 37.7071 3.29289C37.9024 3.48816 38 3.72386 38 4L38 14C38 14.2761 37.9024 14.5118 37.7071 14.7071C37.5118 14.9024 37.2761 15 37 15L27 15C26.7239 15 26.4882 14.9024 26.2929 14.7071C26.0976 14.5118 26 14.2761 26 14L26 5Z" id="Rectangle" fill="#E6E6FF" fill-opacity="0.2" fill-rule="evenodd" stroke="none" />
    <path d="M26 1.5C26 1.36193 26.0488 1.24408 26.1464 1.14645C26.2441 1.04882 26.3619 1 26.5 1L37.5 1C37.6381 1 37.7559 1.04882 37.8536 1.14645C37.9512 1.24408 38 1.36193 38 1.5C38 1.63807 37.9512 1.75592 37.8536 1.85355C37.7559 1.95118 37.6381 2 37.5 2L26.5 2C26.3619 2 26.2441 1.95118 26.1464 1.85355C26.0488 1.75592 26 1.63807 26 1.5L26 1.5Z" id="Rectangle" fill="#E6E6FF" fill-opacity="0.2" fill-rule="evenodd" stroke="none" />
    <path d="M26 1.5C26 1.36193 26.0488 1.24408 26.1464 1.14645C26.2441 1.04882 26.3619 1 26.5 1L37.5 1C37.6381 1 37.7559 1.04882 37.8536 1.14645C37.9512 1.24408 38 1.36193 38 1.5C38 1.63807 37.9512 1.75592 37.8536 1.85355C37.7559 1.95118 37.6381 2 37.5 2L26.5 2C26.3619 2 26.2441 1.95118 26.1464 1.85355C26.0488 1.75592 26 1.63807 26 1.5L26 1.5Z" id="Rectangle" fill="#FFE97E" fill-opacity="0" fill-rule="evenodd" stroke="none" />
    <path d="M31.352 10.317L31.352 9.317L28.789 9.317L28.789 10.317L31.352 10.317ZM33.934 12L34.809 12L34.809 6.363L33.938 6.363L32.453 7.41L32.453 8.3L33.867 7.3L33.933 7.3L33.934 12Z" id="Shape" fill="#DBD7D7" fill-rule="evenodd" stroke="none" />
    <path d="M13 5L13 4C13 3.72386 13.0976 3.48816 13.2929 3.29289C13.4882 3.09763 13.7239 3 14 3L24 3C24.2761 3 24.5118 3.09763 24.7071 3.29289C24.9024 3.48816 25 3.72386 25 4L25 14C25 14.2761 24.9024 14.5118 24.7071 14.7071C24.5118 14.9024 24.2761 15 24 15L14 15C13.7239 15 13.4882 14.9024 13.2929 14.7071C13.0976 14.5118 13 14.2761 13 14L13 5Z" id="Rectangle" fill="#E6E6FF" fill-opacity="0.2" fill-rule="evenodd" stroke="none" />
    <path d="M13 1.5C13 1.36193 13.0488 1.24408 13.1464 1.14645C13.2441 1.04882 13.3619 1 13.5 1L24.5 1C24.6381 1 24.7559 1.04882 24.8536 1.14645C24.9512 1.24408 25 1.36193 25 1.5C25 1.63807 24.9512 1.75592 24.8536 1.85355C24.7559 1.95118 24.6381 2 24.5 2L13.5 2C13.3619 2 13.2441 1.95118 13.1464 1.85355C13.0488 1.75592 13 1.63807 13 1.5L13 1.5Z" id="Rectangle" fill="#E6E6FF" fill-opacity="0.2" fill-rule="evenodd" stroke="none" />
    <path d="M13 1.5C13 1.36193 13.0488 1.24408 13.1464 1.14645C13.2441 1.04882 13.3619 1 13.5 1L24.5 1C24.6381 1 24.7559 1.04882 24.8536 1.14645C24.9512 1.24408 25 1.36193 25 1.5C25 1.63807 24.9512 1.75592 24.8536 1.85355C24.7559 1.95118 24.6381 2 24.5 2L13.5 2C13.3619 2 13.2441 1.95118 13.1464 1.85355C13.0488 1.75592 13 1.63807 13 1.5L13 1.5Z" id="Rectangle" fill="#FFE97E" fill-opacity="0" fill-rule="evenodd" stroke="none" />
    <path d="M17.811 10.317L17.811 9.317L15.248 9.317L15.248 10.317L17.811 10.317ZM18.994 7.992L18.994 8L19.822 8L19.822 7.988C19.8116 7.71247 19.919 7.44555 20.1173 7.25395C20.3155 7.06236 20.586 6.96419 20.861 6.984C21.1171 6.96311 21.3706 7.04715 21.5635 7.21685C21.7564 7.38656 21.8721 7.62735 21.884 7.884C21.884 8.298 21.7 8.595 20.947 9.384L19.041 11.367L19.041 12L22.841 12L22.841 11.215L20.26 11.215L20.26 11.148L21.514 9.878C22.459 8.921 22.748 8.433 22.748 7.835C22.725 7.37135 22.5133 6.9373 22.1622 6.63361C21.8111 6.32991 21.3511 6.18301 20.889 6.227C20.3983 6.18863 19.914 6.35774 19.5538 6.69321C19.1936 7.02869 18.9905 7.4998 18.994 7.992L18.994 7.992Z" id="Shape" fill="#DBD7D7" fill-rule="evenodd" stroke="none" />
    <path d="M0 5L0 4C0 3.72386 0.0976311 3.48816 0.292893 3.29289C0.488155 3.09763 0.723858 3 1 3L11 3C11.2761 3 11.5118 3.09763 11.7071 3.29289C11.9024 3.48816 12 3.72386 12 4L12 14C12 14.2761 11.9024 14.5118 11.7071 14.7071C11.5118 14.9024 11.2761 15 11 15L1 15C0.723858 15 0.488155 14.9024 0.292893 14.7071C0.0976311 14.5118 0 14.2761 0 14L0 5Z" id="Rectangle" fill="#956E57" fill-rule="evenodd" stroke="none" />
    <path d="M0 1.5C0 1.36193 0.0488155 1.24408 0.146447 1.14645C0.244078 1.04882 0.361929 1 0.5 1L11.5 1C11.6381 1 11.7559 1.04882 11.8536 1.14645C11.9512 1.24408 12 1.36193 12 1.5C12 1.63807 11.9512 1.75592 11.8536 1.85355C11.7559 1.95118 11.6381 2 11.5 2L0.5 2C0.361929 2 0.244078 1.95118 0.146447 1.85355C0.0488155 1.75592 0 1.63807 0 1.5L0 1.5Z" id="Rectangle" fill="#FFE97E" fill-rule="evenodd" stroke="none" />
    <path d="M4.715 10.317L4.715 9.317L2.152 9.317L2.152 10.317L4.715 10.317ZM7.176 9.469L7.887 9.469C8.625 9.469 9.087 9.832 9.087 10.414C9.087 10.969 8.603 11.363 7.915 11.363C7.227 11.363 6.758 11.016 6.7 10.469L5.86 10.469C5.8998 10.9665 6.14131 11.4262 6.52847 11.7412C6.91563 12.0562 7.41476 12.1992 7.91 12.137C8.40751 12.1949 8.90734 12.0497 9.29638 11.7342C9.68543 11.4188 9.93081 10.9597 9.977 10.461C10.0116 9.74093 9.45788 9.12824 8.738 9.09L8.738 9.024C9.34764 8.89698 9.77481 8.34606 9.746 7.724C9.70251 7.27857 9.48205 6.86923 9.13406 6.58779C8.78607 6.30636 8.33968 6.17638 7.895 6.227C7.4177 6.17239 6.93923 6.31905 6.57453 6.63176C6.20983 6.94447 5.99186 7.39496 5.973 7.875L6.8 7.875C6.8167 7.6124 6.94023 7.3681 7.14183 7.19899C7.34343 7.02989 7.6055 6.95075 7.867 6.98C8.48 6.98 8.883 7.324 8.883 7.847C8.87838 8.10623 8.76482 8.35154 8.57016 8.5228C8.37549 8.69406 8.11771 8.77544 7.86 8.747L7.176 8.747L7.176 9.469Z" id="Shape" fill="#FFE97E" fill-rule="evenodd" stroke="none" />
    <path d="M39 21L39 20C39 19.7239 39.0976 19.4882 39.2929 19.2929C39.4882 19.0976 39.7239 19 40 19L50 19C50.2761 19 50.5118 19.0976 50.7071 19.2929C50.9024 19.4882 51 19.7239 51 20L51 30C51 30.2761 50.9024 30.5118 50.7071 30.7071C50.5118 30.9024 50.2761 31 50 31L40 31C39.7239 31 39.4882 30.9024 39.2929 30.7071C39.0976 30.5118 39 30.2761 39 30L39 21Z" id="Rectangle" fill="#E6E6FF" fill-opacity="0.2" fill-rule="evenodd" stroke="none" />
    <path d="M39 17.5C39 17.3619 39.0488 17.2441 39.1464 17.1464C39.2441 17.0488 39.3619 17 39.5 17L50.5 17C50.6381 17 50.7559 17.0488 50.8536 17.1464C50.9512 17.2441 51 17.3619 51 17.5C51 17.6381 50.9512 17.7559 50.8536 17.8536C50.7559 17.9512 50.6381 18 50.5 18L39.5 18C39.3619 18 39.2441 17.9512 39.1464 17.8536C39.0488 17.7559 39 17.6381 39 17.5L39 17.5Z" id="Rectangle" fill="#E6E6FF" fill-opacity="0.2" fill-rule="evenodd" stroke="none" />
    <path d="M39 17.5C39 17.3619 39.0488 17.2441 39.1464 17.1464C39.2441 17.0488 39.3619 17 39.5 17L50.5 17C50.6381 17 50.7559 17.0488 50.8536 17.1464C50.9512 17.2441 51 17.3619 51 17.5C51 17.6381 50.9512 17.7559 50.8536 17.8536C50.7559 17.9512 50.6381 18 50.5 18L39.5 18C39.3619 18 39.2441 17.9512 39.1464 17.8536C39.0488 17.7559 39 17.6381 39 17.5L39 17.5Z" id="Rectangle" fill="#FFE97E" fill-opacity="0" fill-rule="evenodd" stroke="none" />
    <path d="M45 28.137C46.313 28.137 47.078 27.055 47.078 25.184C47.078 23.313 46.3 22.227 45 22.227C43.7 22.227 42.918 23.313 42.918 25.176C42.918 27.039 43.688 28.137 45 28.137L45 28.137ZM45 27.371C44.234 27.371 43.8 26.601 43.8 25.171C43.8 23.761 44.245 22.987 45 22.987C45.755 22.987 46.2 23.757 46.2 25.171C46.2 26.605 45.77 27.371 45 27.371L45 27.371Z" id="Shape" fill="#DBD7D7" fill-rule="evenodd" stroke="none" />
    <path d="M52 21L52 20C52 19.7239 52.0976 19.4882 52.2929 19.2929C52.4882 19.0976 52.7239 19 53 19L63 19C63.2761 19 63.5118 19.0976 63.7071 19.2929C63.9024 19.4882 64 19.7239 64 20L64 30C64 30.2761 63.9024 30.5118 63.7071 30.7071C63.5118 30.9024 63.2761 31 63 31L53 31C52.7239 31 52.4882 30.9024 52.2929 30.7071C52.0976 30.5118 52 30.2761 52 30L52 21Z" id="Rectangle" fill="#E6E6FF" fill-opacity="0.2" fill-rule="evenodd" stroke="none" />
    <path d="M52 17.5C52 17.3619 52.0488 17.2441 52.1464 17.1464C52.2441 17.0488 52.3619 17 52.5 17L63.5 17C63.6381 17 63.7559 17.0488 63.8536 17.1464C63.9512 17.2441 64 17.3619 64 17.5C64 17.6381 63.9512 17.7559 63.8536 17.8536C63.7559 17.9512 63.6381 18 63.5 18L52.5 18C52.3619 18 52.2441 17.9512 52.1464 17.8536C52.0488 17.7559 52 17.6381 52 17.5L52 17.5Z" id="Rectangle" fill="#E6E6FF" fill-opacity="0.2" fill-rule="evenodd" stroke="none" />
    <path d="M52 17.5C52 17.3619 52.0488 17.2441 52.1464 17.1464C52.2441 17.0488 52.3619 17 52.5 17L63.5 17C63.6381 17 63.7559 17.0488 63.8536 17.1464C63.9512 17.2441 64 17.3619 64 17.5C64 17.6381 63.9512 17.7559 63.8536 17.8536C63.7559 17.9512 63.6381 18 63.5 18L52.5 18C52.3619 18 52.2441 17.9512 52.1464 17.8536C52.0488 17.7559 52 17.6381 52 17.5L52 17.5Z" id="Rectangle" fill="#FFE97E" fill-opacity="0" fill-rule="evenodd" stroke="none" />
    <path d="M58.029 28L58.9 28L58.9 22.363L58.033 22.363L56.549 23.41L56.549 24.3L57.963 23.3L58.029 23.3L58.029 28Z" id="Shape" fill="#DBD7D7" stroke="none" />
    <path d="M65 21L65 20C65 19.7239 65.0976 19.4882 65.2929 19.2929C65.4882 19.0976 65.7239 19 66 19L76 19C76.2761 19 76.5118 19.0976 76.7071 19.2929C76.9024 19.4882 77 19.7239 77 20L77 30C77 30.2761 76.9024 30.5118 76.7071 30.7071C76.5118 30.9024 76.2761 31 76 31L66 31C65.7239 31 65.4882 30.9024 65.2929 30.7071C65.0976 30.5118 65 30.2761 65 30L65 21Z" id="Rectangle" fill="#E6E6FF" fill-opacity="0.2" fill-rule="evenodd" stroke="none" />
    <path d="M65 17.5C65 17.3619 65.0488 17.2441 65.1464 17.1464C65.2441 17.0488 65.3619 17 65.5 17L76.5 17C76.6381 17 76.7559 17.0488 76.8536 17.1464C76.9512 17.2441 77 17.3619 77 17.5C77 17.6381 76.9512 17.7559 76.8536 17.8536C76.7559 17.9512 76.6381 18 76.5 18L65.5 18C65.3619 18 65.2441 17.9512 65.1464 17.8536C65.0488 17.7559 65 17.6381 65 17.5L65 17.5Z" id="Rectangle" fill="#E6E6FF" fill-opacity="0.2" fill-rule="evenodd" stroke="none" />
    <path d="M65 17.5C65 17.3619 65.0488 17.2441 65.1464 17.1464C65.2441 17.0488 65.3619 17 65.5 17L76.5 17C76.6381 17 76.7559 17.0488 76.8536 17.1464C76.9512 17.2441 77 17.3619 77 17.5C77 17.6381 76.9512 17.7559 76.8536 17.8536C76.7559 17.9512 76.6381 18 76.5 18L65.5 18C65.3619 18 65.2441 17.9512 65.1464 17.8536C65.0488 17.7559 65 17.6381 65 17.5L65 17.5Z" id="Rectangle" fill="#FFE97E" fill-opacity="0" fill-rule="evenodd" stroke="none" />
    <path d="M69.09 23.992L69.09 24L69.918 24L69.918 23.988C69.9076 23.7125 70.015 23.4455 70.2133 23.254C70.4115 23.0624 70.682 22.9642 70.957 22.984C71.2131 22.9631 71.4666 23.0471 71.6595 23.2169C71.8524 23.3866 71.9681 23.6274 71.98 23.884C71.98 24.3 71.8 24.6 71.043 25.383L69.137 27.367L69.137 28L72.937 28L72.937 27.215L70.355 27.215L70.355 27.148L71.609 25.879C72.554 24.922 72.843 24.434 72.843 23.836C72.8202 23.3722 72.6087 22.9379 72.2576 22.634C71.9065 22.33 71.4463 22.183 70.984 22.227C70.4934 22.1889 70.0094 22.3582 69.6494 22.6936C69.2895 23.029 69.0866 23.5 69.09 23.992L69.09 23.992Z" id="Shape" fill="#DBD7D7" stroke="none" />
    <path d="M78 21L78 20C78 19.7239 78.0976 19.4882 78.2929 19.2929C78.4882 19.0976 78.7239 19 79 19L89 19C89.2761 19 89.5118 19.0976 89.7071 19.2929C89.9024 19.4882 90 19.7239 90 20L90 30C90 30.2761 89.9024 30.5118 89.7071 30.7071C89.5118 30.9024 89.2761 31 89 31L79 31C78.7239 31 78.4882 30.9024 78.2929 30.7071C78.0976 30.5118 78 30.2761 78 30L78 21Z" id="Rectangle" fill="#E6E6FF" fill-opacity="0.2" fill-rule="evenodd" stroke="none" />
    <path d="M78 17.5C78 17.3619 78.0488 17.2441 78.1464 17.1464C78.2441 17.0488 78.3619 17 78.5 17L89.5 17C89.6381 17 89.7559 17.0488 89.8536 17.1464C89.9512 17.2441 90 17.3619 90 17.5C90 17.6381 89.9512 17.7559 89.8536 17.8536C89.7559 17.9512 89.6381 18 89.5 18L78.5 18C78.3619 18 78.2441 17.9512 78.1464 17.8536C78.0488 17.7559 78 17.6381 78 17.5L78 17.5Z" id="Rectangle" fill="#E6E6FF" fill-opacity="0.2" fill-rule="evenodd" stroke="none" />
    <path d="M78 17.5C78 17.3619 78.0488 17.2441 78.1464 17.1464C78.2441 17.0488 78.3619 17 78.5 17L89.5 17C89.6381 17 89.7559 17.0488 89.8536 17.1464C89.9512 17.2441 90 17.3619 90 17.5C90 17.6381 89.9512 17.7559 89.8536 17.8536C89.7559 17.9512 89.6381 18 89.5 18L78.5 18C78.3619 18 78.2441 17.9512 78.1464 17.8536C78.0488 17.7559 78 17.6381 78 17.5L78 17.5Z" id="Rectangle" fill="#FFE97E" fill-opacity="0" fill-rule="evenodd" stroke="none" />
    <path d="M83.271 25.469L83.982 25.469C84.72 25.469 85.182 25.832 85.182 26.414C85.182 26.969 84.698 27.363 84.01 27.363C83.322 27.363 82.854 27.016 82.8 26.469L81.96 26.469C81.9999 26.9658 82.2408 27.4247 82.6271 27.7396C83.0133 28.0545 83.5114 28.198 84.006 28.137C84.5033 28.1946 85.0029 28.0492 85.3917 27.7338C85.7806 27.4184 86.0258 26.9595 86.072 26.461C86.1066 25.7413 85.5535 25.1288 84.834 25.09L84.834 25.024C85.4436 24.897 85.8708 24.3461 85.842 23.724C85.7985 23.2784 85.5779 22.8689 85.2297 22.5874C84.8815 22.3059 84.4348 22.1761 83.99 22.227C83.5127 22.1724 83.0342 22.3191 82.6695 22.6318C82.3048 22.9445 82.0869 23.395 82.068 23.875L82.9 23.875C82.9168 23.6132 83.0397 23.3696 83.2404 23.2006C83.4411 23.0316 83.7021 22.9519 83.963 22.98C84.576 22.98 84.979 23.324 84.979 23.847C84.9744 24.1062 84.8608 24.3515 84.6662 24.5228C84.4715 24.6941 84.2137 24.7754 83.956 24.747L83.271 24.747L83.271 25.469Z" id="Shape" fill="#DBD7D7" stroke="none" />
    <path d="M26 21L26 20C26 19.7239 26.0976 19.4882 26.2929 19.2929C26.4882 19.0976 26.7239 19 27 19L37 19C37.2761 19 37.5118 19.0976 37.7071 19.2929C37.9024 19.4882 38 19.7239 38 20L38 30C38 30.2761 37.9024 30.5118 37.7071 30.7071C37.5118 30.9024 37.2761 31 37 31L27 31C26.7239 31 26.4882 30.9024 26.2929 30.7071C26.0976 30.5118 26 30.2761 26 30L26 21Z" id="Rectangle" fill="#E6E6FF" fill-opacity="0.2" fill-rule="evenodd" stroke="none" />
    <path d="M26 17.5C26 17.3619 26.0488 17.2441 26.1464 17.1464C26.2441 17.0488 26.3619 17 26.5 17L37.5 17C37.6381 17 37.7559 17.0488 37.8536 17.1464C37.9512 17.2441 38 17.3619 38 17.5C38 17.6381 37.9512 17.7559 37.8536 17.8536C37.7559 17.9512 37.6381 18 37.5 18L26.5 18C26.3619 18 26.2441 17.9512 26.1464 17.8536C26.0488 17.7559 26 17.6381 26 17.5L26 17.5Z" id="Rectangle" fill="#E6E6FF" fill-opacity="0.2" fill-rule="evenodd" stroke="none" />
    <path d="M26 17.5C26 17.3619 26.0488 17.2441 26.1464 17.1464C26.2441 17.0488 26.3619 17 26.5 17L37.5 17C37.6381 17 37.7559 17.0488 37.8536 17.1464C37.9512 17.2441 38 17.3619 38 17.5C38 17.6381 37.9512 17.7559 37.8536 17.8536C37.7559 17.9512 37.6381 18 37.5 18L26.5 18C26.3619 18 26.2441 17.9512 26.1464 17.8536C26.0488 17.7559 26 17.6381 26 17.5L26 17.5Z" id="Rectangle" fill="#FFE97E" fill-opacity="0" fill-rule="evenodd" stroke="none" />
    <path d="M31.352 26.317L31.352 25.317L28.789 25.317L28.789 26.317L31.352 26.317ZM33.934 28L34.809 28L34.809 22.363L33.938 22.363L32.453 23.41L32.453 24.3L33.867 23.3L33.933 23.3L33.934 28Z" id="Shape" fill="#DBD7D7" fill-rule="evenodd" stroke="none" />
    <path d="M13 21L13 20C13 19.7239 13.0976 19.4882 13.2929 19.2929C13.4882 19.0976 13.7239 19 14 19L24 19C24.2761 19 24.5118 19.0976 24.7071 19.2929C24.9024 19.4882 25 19.7239 25 20L25 30C25 30.2761 24.9024 30.5118 24.7071 30.7071C24.5118 30.9024 24.2761 31 24 31L14 31C13.7239 31 13.4882 30.9024 13.2929 30.7071C13.0976 30.5118 13 30.2761 13 30L13 21Z" id="Rectangle" fill="#956E57" fill-rule="evenodd" stroke="none" />
    <path d="M13 17.5C13 17.3619 13.0488 17.2441 13.1464 17.1464C13.2441 17.0488 13.3619 17 13.5 17L24.5 17C24.6381 17 24.7559 17.0488 24.8536 17.1464C24.9512 17.2441 25 17.3619 25 17.5C25 17.6381 24.9512 17.7559 24.8536 17.8536C24.7559 17.9512 24.6381 18 24.5 18L13.5 18C13.3619 18 13.2441 17.9512 13.1464 17.8536C13.0488 17.7559 13 17.6381 13 17.5L13 17.5Z" id="Rectangle" fill="#FFE97E" fill-rule="evenodd" stroke="none" />
    <path d="M17.811 26.317L17.811 25.317L15.248 25.317L15.248 26.317L17.811 26.317ZM18.994 23.992L18.994 24L19.822 24L19.822 23.988C19.8116 23.7125 19.919 23.4456 20.1173 23.254C20.3155 23.0624 20.586 22.9642 20.861 22.984C21.1171 22.9631 21.3706 23.0471 21.5635 23.2169C21.7564 23.3866 21.8721 23.6274 21.884 23.884C21.884 24.298 21.7 24.595 20.947 25.384L19.041 27.367L19.041 28L22.841 28L22.841 27.215L20.26 27.215L20.26 27.148L21.514 25.878C22.459 24.921 22.748 24.433 22.748 23.835C22.725 23.3714 22.5133 22.9373 22.1622 22.6336C21.8111 22.3299 21.3511 22.183 20.889 22.227C20.3983 22.1886 19.914 22.3577 19.5538 22.6932C19.1936 23.0287 18.9905 23.4998 18.994 23.992L18.994 23.992Z" id="Shape" fill="#FFE97E" fill-rule="evenodd" stroke="none" />
    <path d="M0 21L0 20C0 19.7239 0.0976311 19.4882 0.292893 19.2929C0.488155 19.0976 0.723858 19 1 19L11 19C11.2761 19 11.5118 19.0976 11.7071 19.2929C11.9024 19.4882 12 19.7239 12 20L12 30C12 30.2761 11.9024 30.5118 11.7071 30.7071C11.5118 30.9024 11.2761 31 11 31L1 31C0.723858 31 0.488155 30.9024 0.292893 30.7071C0.0976311 30.5118 0 30.2761 0 30L0 21Z" id="Rectangle" fill="#E6E6FF" fill-opacity="0.2" fill-rule="evenodd" stroke="none" />
    <path d="M0 17.5C0 17.3619 0.0488155 17.2441 0.146447 17.1464C0.244078 17.0488 0.361929 17 0.5 17L11.5 17C11.6381 17 11.7559 17.0488 11.8536 17.1464C11.9512 17.2441 12 17.3619 12 17.5C12 17.6381 11.9512 17.7559 11.8536 17.8536C11.7559 17.9512 11.6381 18 11.5 18L0.5 18C0.361929 18 0.244078 17.9512 0.146447 17.8536C0.0488155 17.7559 0 17.6381 0 17.5L0 17.5Z" id="Rectangle" fill="#E6E6FF" fill-opacity="0.2" fill-rule="evenodd" stroke="none" />
    <path d="M0 17.5C0 17.3619 0.0488155 17.2441 0.146447 17.1464C0.244078 17.0488 0.361929 17 0.5 17L11.5 17C11.6381 17 11.7559 17.0488 11.8536 17.1464C11.9512 17.2441 12 17.3619 12 17.5C12 17.6381 11.9512 17.7559 11.8536 17.8536C11.7559 17.9512 11.6381 18 11.5 18L0.5 18C0.361929 18 0.244078 17.9512 0.146447 17.8536C0.0488155 17.7559 0 17.6381 0 17.5L0 17.5Z" id="Rectangle" fill="#FFE97E" fill-opacity="0" fill-rule="evenodd" stroke="none" />
    <path d="M4.715 26.317L4.715 25.317L2.152 25.317L2.152 26.317L4.715 26.317ZM7.176 25.469L7.887 25.469C8.625 25.469 9.087 25.832 9.087 26.414C9.087 26.969 8.603 27.363 7.915 27.363C7.227 27.363 6.758 27.016 6.7 26.469L5.86 26.469C5.8998 26.9665 6.14131 27.4262 6.52847 27.7412C6.91563 28.0562 7.41476 28.1992 7.91 28.137C8.40751 28.1949 8.90734 28.0497 9.29638 27.7342C9.68543 27.4188 9.93081 26.9597 9.977 26.461C10.0116 25.7409 9.45788 25.1282 8.738 25.09L8.738 25.024C9.34764 24.897 9.77481 24.3461 9.746 23.724C9.70251 23.2786 9.48205 22.8692 9.13406 22.5878C8.78607 22.3064 8.33968 22.1764 7.895 22.227C7.4177 22.1724 6.93923 22.3191 6.57453 22.6318C6.20983 22.9445 5.99186 23.395 5.973 23.875L6.8 23.875C6.8167 23.6124 6.94023 23.3681 7.14183 23.199C7.34343 23.0299 7.6055 22.9507 7.867 22.98C8.48 22.98 8.883 23.324 8.883 23.847C8.87838 24.1062 8.76482 24.3515 8.57016 24.5228C8.37549 24.6941 8.11771 24.7754 7.86 24.747L7.176 24.747L7.176 25.469Z" id="Shape" fill="#DBD7D7" fill-rule="evenodd" stroke="none" />
    <path d="M39 37L39 36C39 35.7239 39.0976 35.4882 39.2929 35.2929C39.4882 35.0976 39.7239 35 40 35L50 35C50.2761 35 50.5118 35.0976 50.7071 35.2929C50.9024 35.4882 51 35.7239 51 36L51 46C51 46.2761 50.9024 46.5118 50.7071 46.7071C50.5118 46.9024 50.2761 47 50 47L40 47C39.7239 47 39.4882 46.9024 39.2929 46.7071C39.0976 46.5118 39 46.2761 39 46L39 37Z" id="Rectangle" fill="#E6E6FF" fill-opacity="0.2" fill-rule="evenodd" stroke="none" />
    <path d="M39 33.5C39 33.3619 39.0488 33.2441 39.1464 33.1464C39.2441 33.0488 39.3619 33 39.5 33L50.5 33C50.6381 33 50.7559 33.0488 50.8536 33.1464C50.9512 33.2441 51 33.3619 51 33.5C51 33.6381 50.9512 33.7559 50.8536 33.8536C50.7559 33.9512 50.6381 34 50.5 34L39.5 34C39.3619 34 39.2441 33.9512 39.1464 33.8536C39.0488 33.7559 39 33.6381 39 33.5L39 33.5Z" id="Rectangle" fill="#E6E6FF" fill-opacity="0.2" fill-rule="evenodd" stroke="none" />
    <path d="M39 33.5C39 33.3619 39.0488 33.2441 39.1464 33.1464C39.2441 33.0488 39.3619 33 39.5 33L50.5 33C50.6381 33 50.7559 33.0488 50.8536 33.1464C50.9512 33.2441 51 33.3619 51 33.5C51 33.6381 50.9512 33.7559 50.8536 33.8536C50.7559 33.9512 50.6381 34 50.5 34L39.5 34C39.3619 34 39.2441 33.9512 39.1464 33.8536C39.0488 33.7559 39 33.6381 39 33.5L39 33.5Z" id="Rectangle" fill="#FFE97E" fill-opacity="0" fill-rule="evenodd" stroke="none" />
    <path d="M45 44.137C46.313 44.137 47.078 43.055 47.078 41.184C47.078 39.313 46.3 38.227 45 38.227C43.7 38.227 42.918 39.313 42.918 41.176C42.918 43.039 43.688 44.137 45 44.137L45 44.137ZM45 43.371C44.234 43.371 43.8 42.601 43.8 41.171C43.8 39.761 44.245 38.987 45 38.987C45.755 38.987 46.2 39.757 46.2 41.171C46.2 42.605 45.77 43.371 45 43.371L45 43.371Z" id="Shape" fill="#DBD7D7" fill-rule="evenodd" stroke="none" />
    <path d="M52 37L52 36C52 35.7239 52.0976 35.4882 52.2929 35.2929C52.4882 35.0976 52.7239 35 53 35L63 35C63.2761 35 63.5118 35.0976 63.7071 35.2929C63.9024 35.4882 64 35.7239 64 36L64 46C64 46.2761 63.9024 46.5118 63.7071 46.7071C63.5118 46.9024 63.2761 47 63 47L53 47C52.7239 47 52.4882 46.9024 52.2929 46.7071C52.0976 46.5118 52 46.2761 52 46L52 37Z" id="Rectangle" fill="#E6E6FF" fill-opacity="0.2" fill-rule="evenodd" stroke="none" />
    <path d="M52 33.5C52 33.3619 52.0488 33.2441 52.1464 33.1464C52.2441 33.0488 52.3619 33 52.5 33L63.5 33C63.6381 33 63.7559 33.0488 63.8536 33.1464C63.9512 33.2441 64 33.3619 64 33.5C64 33.6381 63.9512 33.7559 63.8536 33.8536C63.7559 33.9512 63.6381 34 63.5 34L52.5 34C52.3619 34 52.2441 33.9512 52.1464 33.8536C52.0488 33.7559 52 33.6381 52 33.5L52 33.5Z" id="Rectangle" fill="#E6E6FF" fill-opacity="0.2" fill-rule="evenodd" stroke="none" />
    <path d="M52 33.5C52 33.3619 52.0488 33.2441 52.1464 33.1464C52.2441 33.0488 52.3619 33 52.5 33L63.5 33C63.6381 33 63.7559 33.0488 63.8536 33.1464C63.9512 33.2441 64 33.3619 64 33.5C64 33.6381 63.9512 33.7559 63.8536 33.8536C63.7559 33.9512 63.6381 34 63.5 34L52.5 34C52.3619 34 52.2441 33.9512 52.1464 33.8536C52.0488 33.7559 52 33.6381 52 33.5L52 33.5Z" id="Rectangle" fill="#FFE97E" fill-opacity="0" fill-rule="evenodd" stroke="none" />
    <path d="M58.029 44L58.9 44L58.9 38.363L58.033 38.363L56.549 39.41L56.549 40.3L57.963 39.3L58.029 39.3L58.029 44Z" id="Shape" fill="#DBD7D7" stroke="none" />
    <path d="M65 37L65 36C65 35.7239 65.0976 35.4882 65.2929 35.2929C65.4882 35.0976 65.7239 35 66 35L76 35C76.2761 35 76.5118 35.0976 76.7071 35.2929C76.9024 35.4882 77 35.7239 77 36L77 46C77 46.2761 76.9024 46.5118 76.7071 46.7071C76.5118 46.9024 76.2761 47 76 47L66 47C65.7239 47 65.4882 46.9024 65.2929 46.7071C65.0976 46.5118 65 46.2761 65 46L65 37Z" id="Rectangle" fill="#E6E6FF" fill-opacity="0.2" fill-rule="evenodd" stroke="none" />
    <path d="M65 33.5C65 33.3619 65.0488 33.2441 65.1464 33.1464C65.2441 33.0488 65.3619 33 65.5 33L76.5 33C76.6381 33 76.7559 33.0488 76.8536 33.1464C76.9512 33.2441 77 33.3619 77 33.5C77 33.6381 76.9512 33.7559 76.8536 33.8536C76.7559 33.9512 76.6381 34 76.5 34L65.5 34C65.3619 34 65.2441 33.9512 65.1464 33.8536C65.0488 33.7559 65 33.6381 65 33.5L65 33.5Z" id="Rectangle" fill="#E6E6FF" fill-opacity="0.2" fill-rule="evenodd" stroke="none" />
    <path d="M65 33.5C65 33.3619 65.0488 33.2441 65.1464 33.1464C65.2441 33.0488 65.3619 33 65.5 33L76.5 33C76.6381 33 76.7559 33.0488 76.8536 33.1464C76.9512 33.2441 77 33.3619 77 33.5C77 33.6381 76.9512 33.7559 76.8536 33.8536C76.7559 33.9512 76.6381 34 76.5 34L65.5 34C65.3619 34 65.2441 33.9512 65.1464 33.8536C65.0488 33.7559 65 33.6381 65 33.5L65 33.5Z" id="Rectangle" fill="#FFE97E" fill-opacity="0" fill-rule="evenodd" stroke="none" />
    <path d="M69.09 39.992L69.09 40L69.918 40L69.918 39.988C69.9076 39.7125 70.015 39.4455 70.2133 39.254C70.4115 39.0624 70.682 38.9642 70.957 38.984C71.2131 38.9631 71.4666 39.0471 71.6595 39.2169C71.8524 39.3866 71.9681 39.6274 71.98 39.884C71.98 40.3 71.8 40.6 71.043 41.383L69.137 43.367L69.137 44L72.937 44L72.937 43.215L70.355 43.215L70.355 43.148L71.609 41.879C72.554 40.922 72.843 40.434 72.843 39.836C72.8202 39.3722 72.6087 38.9379 72.2576 38.634C71.9065 38.33 71.4463 38.183 70.984 38.227C70.4934 38.1889 70.0094 38.3582 69.6494 38.6936C69.2895 39.029 69.0866 39.5 69.09 39.992L69.09 39.992Z" id="Shape" fill="#DBD7D7" stroke="none" />
    <path d="M78 37L78 36C78 35.7239 78.0976 35.4882 78.2929 35.2929C78.4882 35.0976 78.7239 35 79 35L89 35C89.2761 35 89.5118 35.0976 89.7071 35.2929C89.9024 35.4882 90 35.7239 90 36L90 46C90 46.2761 89.9024 46.5118 89.7071 46.7071C89.5118 46.9024 89.2761 47 89 47L79 47C78.7239 47 78.4882 46.9024 78.2929 46.7071C78.0976 46.5118 78 46.2761 78 46L78 37Z" id="Rectangle" fill="#E6E6FF" fill-opacity="0.2" fill-rule="evenodd" stroke="none" />
    <path d="M78 33.5C78 33.3619 78.0488 33.2441 78.1464 33.1464C78.2441 33.0488 78.3619 33 78.5 33L89.5 33C89.6381 33 89.7559 33.0488 89.8536 33.1464C89.9512 33.2441 90 33.3619 90 33.5C90 33.6381 89.9512 33.7559 89.8536 33.8536C89.7559 33.9512 89.6381 34 89.5 34L78.5 34C78.3619 34 78.2441 33.9512 78.1464 33.8536C78.0488 33.7559 78 33.6381 78 33.5L78 33.5Z" id="Rectangle" fill="#E6E6FF" fill-opacity="0.2" fill-rule="evenodd" stroke="none" />
    <path d="M78 33.5C78 33.3619 78.0488 33.2441 78.1464 33.1464C78.2441 33.0488 78.3619 33 78.5 33L89.5 33C89.6381 33 89.7559 33.0488 89.8536 33.1464C89.9512 33.2441 90 33.3619 90 33.5C90 33.6381 89.9512 33.7559 89.8536 33.8536C89.7559 33.9512 89.6381 34 89.5 34L78.5 34C78.3619 34 78.2441 33.9512 78.1464 33.8536C78.0488 33.7559 78 33.6381 78 33.5L78 33.5Z" id="Rectangle" fill="#FFE97E" fill-opacity="0" fill-rule="evenodd" stroke="none" />
    <path d="M83.271 41.469L83.982 41.469C84.72 41.469 85.182 41.832 85.182 42.414C85.182 42.969 84.698 43.363 84.01 43.363C83.322 43.363 82.854 43.016 82.8 42.469L81.96 42.469C81.9999 42.9658 82.2408 43.4247 82.6271 43.7396C83.0133 44.0545 83.5114 44.198 84.006 44.137C84.5033 44.1946 85.0029 44.0492 85.3917 43.7338C85.7806 43.4184 86.0258 42.9595 86.072 42.461C86.1066 41.7413 85.5535 41.1288 84.834 41.09L84.834 41.024C85.4436 40.897 85.8708 40.3461 85.842 39.724C85.7985 39.2784 85.5779 38.8689 85.2297 38.5874C84.8815 38.3059 84.4348 38.1761 83.99 38.227C83.5127 38.1724 83.0342 38.319 82.6695 38.6318C82.3048 38.9445 82.0869 39.395 82.068 39.875L82.9 39.875C82.9168 39.6132 83.0397 39.3696 83.2404 39.2006C83.4411 39.0316 83.7021 38.9519 83.963 38.98C84.576 38.98 84.979 39.324 84.979 39.847C84.9744 40.1062 84.8608 40.3515 84.6662 40.5228C84.4715 40.6941 84.2137 40.7754 83.956 40.747L83.271 40.747L83.271 41.469Z" id="Shape" fill="#DBD7D7" stroke="none" />
    <path d="M26 37L26 36C26 35.7239 26.0976 35.4882 26.2929 35.2929C26.4882 35.0976 26.7239 35 27 35L37 35C37.2761 35 37.5118 35.0976 37.7071 35.2929C37.9024 35.4882 38 35.7239 38 36L38 46C38 46.2761 37.9024 46.5118 37.7071 46.7071C37.5118 46.9024 37.2761 47 37 47L27 47C26.7239 47 26.4882 46.9024 26.2929 46.7071C26.0976 46.5118 26 46.2761 26 46L26 37Z" id="Rectangle" fill="#956E57" fill-rule="evenodd" stroke="none" />
    <path d="M26 33.5C26 33.3619 26.0488 33.2441 26.1464 33.1464C26.2441 33.0488 26.3619 33 26.5 33L37.5 33C37.6381 33 37.7559 33.0488 37.8536 33.1464C37.9512 33.2441 38 33.3619 38 33.5C38 33.6381 37.9512 33.7559 37.8536 33.8536C37.7559 33.9512 37.6381 34 37.5 34L26.5 34C26.3619 34 26.2441 33.9512 26.1464 33.8536C26.0488 33.7559 26 33.6381 26 33.5L26 33.5Z" id="Rectangle" fill="#FFE97E" fill-rule="evenodd" stroke="none" />
    <path d="M31.352 42.317L31.352 41.317L28.789 41.317L28.789 42.317L31.352 42.317ZM33.934 44L34.809 44L34.809 38.363L33.938 38.363L32.453 39.41L32.453 40.3L33.867 39.3L33.933 39.3L33.934 44Z" id="Shape" fill="#FFE97E" fill-rule="evenodd" stroke="none" />
    <path d="M13 37L13 36C13 35.7239 13.0976 35.4882 13.2929 35.2929C13.4882 35.0976 13.7239 35 14 35L24 35C24.2761 35 24.5118 35.0976 24.7071 35.2929C24.9024 35.4882 25 35.7239 25 36L25 46C25 46.2761 24.9024 46.5118 24.7071 46.7071C24.5118 46.9024 24.2761 47 24 47L14 47C13.7239 47 13.4882 46.9024 13.2929 46.7071C13.0976 46.5118 13 46.2761 13 46L13 37Z" id="Rectangle" fill="#E6E6FF" fill-opacity="0.2" fill-rule="evenodd" stroke="none" />
    <path d="M13 33.5C13 33.3619 13.0488 33.2441 13.1464 33.1464C13.2441 33.0488 13.3619 33 13.5 33L24.5 33C24.6381 33 24.7559 33.0488 24.8536 33.1464C24.9512 33.2441 25 33.3619 25 33.5C25 33.6381 24.9512 33.7559 24.8536 33.8536C24.7559 33.9512 24.6381 34 24.5 34L13.5 34C13.3619 34 13.2441 33.9512 13.1464 33.8536C13.0488 33.7559 13 33.6381 13 33.5L13 33.5Z" id="Rectangle" fill="#E6E6FF" fill-opacity="0.2" fill-rule="evenodd" stroke="none" />
    <path d="M13 33.5C13 33.3619 13.0488 33.2441 13.1464 33.1464C13.2441 33.0488 13.3619 33 13.5 33L24.5 33C24.6381 33 24.7559 33.0488 24.8536 33.1464C24.9512 33.2441 25 33.3619 25 33.5C25 33.6381 24.9512 33.7559 24.8536 33.8536C24.7559 33.9512 24.6381 34 24.5 34L13.5 34C13.3619 34 13.2441 33.9512 13.1464 33.8536C13.0488 33.7559 13 33.6381 13 33.5L13 33.5Z" id="Rectangle" fill="#FFE97E" fill-opacity="0" fill-rule="evenodd" stroke="none" />
    <path d="M17.811 42.317L17.811 41.317L15.248 41.317L15.248 42.317L17.811 42.317ZM18.994 39.992L18.994 40L19.822 40L19.822 39.988C19.8116 39.7125 19.919 39.4455 20.1173 39.254C20.3155 39.0624 20.586 38.9642 20.861 38.984C21.1171 38.9631 21.3706 39.0471 21.5635 39.2169C21.7564 39.3866 21.8721 39.6274 21.884 39.884C21.884 40.298 21.7 40.595 20.947 41.384L19.041 43.367L19.041 44L22.841 44L22.841 43.215L20.26 43.215L20.26 43.148L21.514 41.878C22.459 40.921 22.748 40.433 22.748 39.835C22.725 39.3714 22.5133 38.9373 22.1622 38.6336C21.8111 38.3299 21.3511 38.183 20.889 38.227C20.3983 38.1886 19.914 38.3577 19.5538 38.6932C19.1936 39.0287 18.9905 39.4998 18.994 39.992L18.994 39.992Z" id="Shape" fill="#DBD7D7" fill-rule="evenodd" stroke="none" />
    <path d="M0 37L0 36C0 35.7239 0.0976311 35.4882 0.292893 35.2929C0.488155 35.0976 0.723858 35 1 35L11 35C11.2761 35 11.5118 35.0976 11.7071 35.2929C11.9024 35.4882 12 35.7239 12 36L12 46C12 46.2761 11.9024 46.5118 11.7071 46.7071C11.5118 46.9024 11.2761 47 11 47L1 47C0.723858 47 0.488155 46.9024 0.292893 46.7071C0.0976311 46.5118 0 46.2761 0 46L0 37Z" id="Rectangle" fill="#E6E6FF" fill-opacity="0.2" fill-rule="evenodd" stroke="none" />
    <path d="M0 33.5C0 33.3619 0.0488155 33.2441 0.146447 33.1464C0.244078 33.0488 0.361929 33 0.5 33L11.5 33C11.6381 33 11.7559 33.0488 11.8536 33.1464C11.9512 33.2441 12 33.3619 12 33.5C12 33.6381 11.9512 33.7559 11.8536 33.8536C11.7559 33.9512 11.6381 34 11.5 34L0.5 34C0.361929 34 0.244078 33.9512 0.146447 33.8536C0.0488155 33.7559 0 33.6381 0 33.5L0 33.5Z" id="Rectangle" fill="#E6E6FF" fill-opacity="0.2" fill-rule="evenodd" stroke="none" />
    <path d="M0 33.5C0 33.3619 0.0488155 33.2441 0.146447 33.1464C0.244078 33.0488 0.361929 33 0.5 33L11.5 33C11.6381 33 11.7559 33.0488 11.8536 33.1464C11.9512 33.2441 12 33.3619 12 33.5C12 33.6381 11.9512 33.7559 11.8536 33.8536C11.7559 33.9512 11.6381 34 11.5 34L0.5 34C0.361929 34 0.244078 33.9512 0.146447 33.8536C0.0488155 33.7559 0 33.6381 0 33.5L0 33.5Z" id="Rectangle" fill="#FFE97E" fill-opacity="0" fill-rule="evenodd" stroke="none" />
    <path d="M4.715 42.317L4.715 41.317L2.152 41.317L2.152 42.317L4.715 42.317ZM7.176 41.469L7.887 41.469C8.625 41.469 9.087 41.832 9.087 42.414C9.087 42.969 8.603 43.363 7.915 43.363C7.227 43.363 6.758 43.016 6.7 42.469L5.86 42.469C5.8998 42.9665 6.14131 43.4262 6.52847 43.7412C6.91563 44.0562 7.41476 44.1992 7.91 44.137C8.40751 44.1949 8.90734 44.0497 9.29638 43.7342C9.68543 43.4188 9.93081 42.9597 9.977 42.461C10.0116 41.7409 9.45788 41.1282 8.738 41.09L8.738 41.024C9.34764 40.897 9.77481 40.3461 9.746 39.724C9.70251 39.2786 9.48205 38.8692 9.13406 38.5878C8.78607 38.3064 8.33968 38.1764 7.895 38.227C7.4177 38.1724 6.93923 38.319 6.57453 38.6318C6.20983 38.9445 5.99186 39.395 5.973 39.875L6.8 39.875C6.8167 39.6124 6.94023 39.3681 7.14183 39.199C7.34343 39.0299 7.6055 38.9507 7.867 38.98C8.48 38.98 8.883 39.324 8.883 39.847C8.87838 40.1062 8.76482 40.3515 8.57016 40.5228C8.37549 40.6941 8.11771 40.7754 7.86 40.747L7.176 40.747L7.176 41.469Z" id="Shape" fill="#DBD7D7" fill-rule="evenodd" stroke="none" />
    <path d="M39 53L39 52C39 51.7239 39.0976 51.4882 39.2929 51.2929C39.4882 51.0976 39.7239 51 40 51L50 51C50.2761 51 50.5118 51.0976 50.7071 51.2929C50.9024 51.4882 51 51.7239 51 52L51 62C51 62.2761 50.9024 62.5118 50.7071 62.7071C50.5118 62.9024 50.2761 63 50 63L40 63C39.7239 63 39.4882 62.9024 39.2929 62.7071C39.0976 62.5118 39 62.2761 39 62L39 53Z" id="Rectangle" fill="#956E57" fill-rule="evenodd" stroke="none" />
    <path d="M39 49.5C39 49.3619 39.0488 49.2441 39.1464 49.1464C39.2441 49.0488 39.3619 49 39.5 49L50.5 49C50.6381 49 50.7559 49.0488 50.8536 49.1464C50.9512 49.2441 51 49.3619 51 49.5C51 49.6381 50.9512 49.7559 50.8536 49.8536C50.7559 49.9512 50.6381 50 50.5 50L39.5 50C39.3619 50 39.2441 49.9512 39.1464 49.8536C39.0488 49.7559 39 49.6381 39 49.5L39 49.5Z" id="Rectangle" fill="#FFE97E" fill-rule="evenodd" stroke="none" />
    <path d="M45 60.137C46.313 60.137 47.078 59.055 47.078 57.184C47.078 55.313 46.3 54.227 45 54.227C43.7 54.227 42.918 55.313 42.918 57.176C42.918 59.039 43.688 60.137 45 60.137L45 60.137ZM45 59.371C44.234 59.371 43.8 58.601 43.8 57.171C43.8 55.761 44.245 54.987 45 54.987C45.755 54.987 46.2 55.757 46.2 57.171C46.2 58.605 45.77 59.371 45 59.371L45 59.371Z" id="Shape" fill="#FFE97E" fill-rule="evenodd" stroke="none" />
    <path d="M52 53L52 52C52 51.7239 52.0976 51.4882 52.2929 51.2929C52.4882 51.0976 52.7239 51 53 51L63 51C63.2761 51 63.5118 51.0976 63.7071 51.2929C63.9024 51.4882 64 51.7239 64 52L64 62C64 62.2761 63.9024 62.5118 63.7071 62.7071C63.5118 62.9024 63.2761 63 63 63L53 63C52.7239 63 52.4882 62.9024 52.2929 62.7071C52.0976 62.5118 52 62.2761 52 62L52 53Z" id="Rectangle" fill="#E6E6FF" fill-opacity="0.2" fill-rule="evenodd" stroke="none" />
    <path d="M52 49.5C52 49.3619 52.0488 49.2441 52.1464 49.1464C52.2441 49.0488 52.3619 49 52.5 49L63.5 49C63.6381 49 63.7559 49.0488 63.8536 49.1464C63.9512 49.2441 64 49.3619 64 49.5C64 49.6381 63.9512 49.7559 63.8536 49.8536C63.7559 49.9512 63.6381 50 63.5 50L52.5 50C52.3619 50 52.2441 49.9512 52.1464 49.8536C52.0488 49.7559 52 49.6381 52 49.5L52 49.5Z" id="Rectangle" fill="#E6E6FF" fill-opacity="0.2" fill-rule="evenodd" stroke="none" />
    <path d="M52 49.5C52 49.3619 52.0488 49.2441 52.1464 49.1464C52.2441 49.0488 52.3619 49 52.5 49L63.5 49C63.6381 49 63.7559 49.0488 63.8536 49.1464C63.9512 49.2441 64 49.3619 64 49.5C64 49.6381 63.9512 49.7559 63.8536 49.8536C63.7559 49.9512 63.6381 50 63.5 50L52.5 50C52.3619 50 52.2441 49.9512 52.1464 49.8536C52.0488 49.7559 52 49.6381 52 49.5L52 49.5Z" id="Rectangle" fill="#FFE97E" fill-opacity="0" fill-rule="evenodd" stroke="none" />
    <path d="M58.029 60L58.9 60L58.9 54.363L58.033 54.363L56.549 55.41L56.549 56.3L57.963 55.3L58.029 55.3L58.029 60Z" id="Shape" fill="#DBD7D7" stroke="none" />
    <path d="M65 53L65 52C65 51.7239 65.0976 51.4882 65.2929 51.2929C65.4882 51.0976 65.7239 51 66 51L76 51C76.2761 51 76.5118 51.0976 76.7071 51.2929C76.9024 51.4882 77 51.7239 77 52L77 62C77 62.2761 76.9024 62.5118 76.7071 62.7071C76.5118 62.9024 76.2761 63 76 63L66 63C65.7239 63 65.4882 62.9024 65.2929 62.7071C65.0976 62.5118 65 62.2761 65 62L65 53Z" id="Rectangle" fill="#E6E6FF" fill-opacity="0.2" fill-rule="evenodd" stroke="none" />
    <path d="M65 49.5C65 49.3619 65.0488 49.2441 65.1464 49.1464C65.2441 49.0488 65.3619 49 65.5 49L76.5 49C76.6381 49 76.7559 49.0488 76.8536 49.1464C76.9512 49.2441 77 49.3619 77 49.5C77 49.6381 76.9512 49.7559 76.8536 49.8536C76.7559 49.9512 76.6381 50 76.5 50L65.5 50C65.3619 50 65.2441 49.9512 65.1464 49.8536C65.0488 49.7559 65 49.6381 65 49.5L65 49.5Z" id="Rectangle" fill="#E6E6FF" fill-opacity="0.2" fill-rule="evenodd" stroke="none" />
    <path d="M65 49.5C65 49.3619 65.0488 49.2441 65.1464 49.1464C65.2441 49.0488 65.3619 49 65.5 49L76.5 49C76.6381 49 76.7559 49.0488 76.8536 49.1464C76.9512 49.2441 77 49.3619 77 49.5C77 49.6381 76.9512 49.7559 76.8536 49.8536C76.7559 49.9512 76.6381 50 76.5 50L65.5 50C65.3619 50 65.2441 49.9512 65.1464 49.8536C65.0488 49.7559 65 49.6381 65 49.5L65 49.5Z" id="Rectangle" fill="#FFE97E" fill-opacity="0" fill-rule="evenodd" stroke="none" />
    <path d="M69.09 55.992L69.09 56L69.918 56L69.918 55.988C69.9076 55.7125 70.015 55.4455 70.2133 55.254C70.4115 55.0624 70.682 54.9642 70.957 54.984C71.2131 54.9631 71.4666 55.0471 71.6595 55.2169C71.8524 55.3866 71.9681 55.6274 71.98 55.884C71.98 56.3 71.8 56.6 71.043 57.383L69.137 59.367L69.137 60L72.937 60L72.937 59.215L70.355 59.215L70.355 59.148L71.609 57.879C72.554 56.922 72.843 56.434 72.843 55.836C72.8202 55.3722 72.6087 54.9379 72.2576 54.634C71.9065 54.33 71.4463 54.183 70.984 54.227C70.4934 54.1889 70.0094 54.3582 69.6494 54.6936C69.2895 55.029 69.0866 55.5 69.09 55.992L69.09 55.992Z" id="Shape" fill="#DBD7D7" stroke="none" />
    <path d="M78 53L78 52C78 51.7239 78.0976 51.4882 78.2929 51.2929C78.4882 51.0976 78.7239 51 79 51L89 51C89.2761 51 89.5118 51.0976 89.7071 51.2929C89.9024 51.4882 90 51.7239 90 52L90 62C90 62.2761 89.9024 62.5118 89.7071 62.7071C89.5118 62.9024 89.2761 63 89 63L79 63C78.7239 63 78.4882 62.9024 78.2929 62.7071C78.0976 62.5118 78 62.2761 78 62L78 53Z" id="Rectangle" fill="#E6E6FF" fill-opacity="0.2" fill-rule="evenodd" stroke="none" />
    <path d="M78 49.5C78 49.3619 78.0488 49.2441 78.1464 49.1464C78.2441 49.0488 78.3619 49 78.5 49L89.5 49C89.6381 49 89.7559 49.0488 89.8536 49.1464C89.9512 49.2441 90 49.3619 90 49.5C90 49.6381 89.9512 49.7559 89.8536 49.8536C89.7559 49.9512 89.6381 50 89.5 50L78.5 50C78.3619 50 78.2441 49.9512 78.1464 49.8536C78.0488 49.7559 78 49.6381 78 49.5L78 49.5Z" id="Rectangle" fill="#E6E6FF" fill-opacity="0.2" fill-rule="evenodd" stroke="none" />
    <path d="M78 49.5C78 49.3619 78.0488 49.2441 78.1464 49.1464C78.2441 49.0488 78.3619 49 78.5 49L89.5 49C89.6381 49 89.7559 49.0488 89.8536 49.1464C89.9512 49.2441 90 49.3619 90 49.5C90 49.6381 89.9512 49.7559 89.8536 49.8536C89.7559 49.9512 89.6381 50 89.5 50L78.5 50C78.3619 50 78.2441 49.9512 78.1464 49.8536C78.0488 49.7559 78 49.6381 78 49.5L78 49.5Z" id="Rectangle" fill="#FFE97E" fill-opacity="0" fill-rule="evenodd" stroke="none" />
    <path d="M83.271 57.469L83.982 57.469C84.72 57.469 85.182 57.832 85.182 58.414C85.182 58.969 84.698 59.363 84.01 59.363C83.322 59.363 82.854 59.016 82.8 58.469L81.96 58.469C81.9999 58.9658 82.2408 59.4247 82.6271 59.7396C83.0133 60.0545 83.5114 60.198 84.006 60.137C84.5033 60.1946 85.0029 60.0492 85.3917 59.7338C85.7806 59.4184 86.0258 58.9595 86.072 58.461C86.1066 57.7413 85.5535 57.1288 84.834 57.09L84.834 57.024C85.4436 56.897 85.8708 56.3461 85.842 55.724C85.7985 55.2784 85.5779 54.8689 85.2297 54.5874C84.8815 54.3059 84.4348 54.1761 83.99 54.227C83.5127 54.1724 83.0342 54.319 82.6695 54.6318C82.3048 54.9445 82.0869 55.395 82.068 55.875L82.9 55.875C82.9168 55.6132 83.0397 55.3696 83.2404 55.2006C83.4411 55.0316 83.7021 54.9519 83.963 54.98C84.576 54.98 84.979 55.324 84.979 55.847C84.9744 56.1062 84.8608 56.3515 84.6662 56.5228C84.4715 56.6941 84.2137 56.7754 83.956 56.747L83.271 56.747L83.271 57.469Z" id="Shape" fill="#DBD7D7" stroke="none" />
    <path d="M26 53L26 52C26 51.7239 26.0976 51.4882 26.2929 51.2929C26.4882 51.0976 26.7239 51 27 51L37 51C37.2761 51 37.5118 51.0976 37.7071 51.2929C37.9024 51.4882 38 51.7239 38 52L38 62C38 62.2761 37.9024 62.5118 37.7071 62.7071C37.5118 62.9024 37.2761 63 37 63L27 63C26.7239 63 26.4882 62.9024 26.2929 62.7071C26.0976 62.5118 26 62.2761 26 62L26 53Z" id="Rectangle" fill="#E6E6FF" fill-opacity="0.2" fill-rule="evenodd" stroke="none" />
    <path d="M26 49.5C26 49.3619 26.0488 49.2441 26.1464 49.1464C26.2441 49.0488 26.3619 49 26.5 49L37.5 49C37.6381 49 37.7559 49.0488 37.8536 49.1464C37.9512 49.2441 38 49.3619 38 49.5C38 49.6381 37.9512 49.7559 37.8536 49.8536C37.7559 49.9512 37.6381 50 37.5 50L26.5 50C26.3619 50 26.2441 49.9512 26.1464 49.8536C26.0488 49.7559 26 49.6381 26 49.5L26 49.5Z" id="Rectangle" fill="#E6E6FF" fill-opacity="0.2" fill-rule="evenodd" stroke="none" />
    <path d="M26 49.5C26 49.3619 26.0488 49.2441 26.1464 49.1464C26.2441 49.0488 26.3619 49 26.5 49L37.5 49C37.6381 49 37.7559 49.0488 37.8536 49.1464C37.9512 49.2441 38 49.3619 38 49.5C38 49.6381 37.9512 49.7559 37.8536 49.8536C37.7559 49.9512 37.6381 50 37.5 50L26.5 50C26.3619 50 26.2441 49.9512 26.1464 49.8536C26.0488 49.7559 26 49.6381 26 49.5L26 49.5Z" id="Rectangle" fill="#FFE97E" fill-opacity="0" fill-rule="evenodd" stroke="none" />
    <path d="M31.352 58.317L31.352 57.317L28.789 57.317L28.789 58.317L31.352 58.317ZM33.934 60L34.809 60L34.809 54.363L33.938 54.363L32.453 55.41L32.453 56.3L33.867 55.3L33.933 55.3L33.934 60Z" id="Shape" fill="#DBD7D7" fill-rule="evenodd" stroke="none" />
    <path d="M13 53L13 52C13 51.7239 13.0976 51.4882 13.2929 51.2929C13.4882 51.0976 13.7239 51 14 51L24 51C24.2761 51 24.5118 51.0976 24.7071 51.2929C24.9024 51.4882 25 51.7239 25 52L25 62C25 62.2761 24.9024 62.5118 24.7071 62.7071C24.5118 62.9024 24.2761 63 24 63L14 63C13.7239 63 13.4882 62.9024 13.2929 62.7071C13.0976 62.5118 13 62.2761 13 62L13 53Z" id="Rectangle" fill="#E6E6FF" fill-opacity="0.2" fill-rule="evenodd" stroke="none" />
    <path d="M13 49.5C13 49.3619 13.0488 49.2441 13.1464 49.1464C13.2441 49.0488 13.3619 49 13.5 49L24.5 49C24.6381 49 24.7559 49.0488 24.8536 49.1464C24.9512 49.2441 25 49.3619 25 49.5C25 49.6381 24.9512 49.7559 24.8536 49.8536C24.7559 49.9512 24.6381 50 24.5 50L13.5 50C13.3619 50 13.2441 49.9512 13.1464 49.8536C13.0488 49.7559 13 49.6381 13 49.5L13 49.5Z" id="Rectangle" fill="#E6E6FF" fill-opacity="0.2" fill-rule="evenodd" stroke="none" />
    <path d="M13 49.5C13 49.3619 13.0488 49.2441 13.1464 49.1464C13.2441 49.0488 13.3619 49 13.5 49L24.5 49C24.6381 49 24.7559 49.0488 24.8536 49.1464C24.9512 49.2441 25 49.3619 25 49.5C25 49.6381 24.9512 49.7559 24.8536 49.8536C24.7559 49.9512 24.6381 50 24.5 50L13.5 50C13.3619 50 13.2441 49.9512 13.1464 49.8536C13.0488 49.7559 13 49.6381 13 49.5L13 49.5Z" id="Rectangle" fill="#FFE97E" fill-opacity="0" fill-rule="evenodd" stroke="none" />
    <path d="M17.811 58.317L17.811 57.317L15.248 57.317L15.248 58.317L17.811 58.317ZM18.994 55.992L18.994 56L19.822 56L19.822 55.988C19.8116 55.7125 19.919 55.4455 20.1173 55.254C20.3155 55.0624 20.586 54.9642 20.861 54.984C21.1171 54.9631 21.3706 55.0471 21.5635 55.2169C21.7564 55.3866 21.8721 55.6274 21.884 55.884C21.884 56.298 21.7 56.595 20.947 57.384L19.041 59.367L19.041 60L22.841 60L22.841 59.215L20.26 59.215L20.26 59.148L21.514 57.878C22.459 56.921 22.748 56.433 22.748 55.835C22.725 55.3714 22.5133 54.9373 22.1622 54.6336C21.8111 54.3299 21.3511 54.183 20.889 54.227C20.3983 54.1886 19.914 54.3577 19.5538 54.6932C19.1936 55.0287 18.9905 55.4998 18.994 55.992L18.994 55.992Z" id="Shape" fill="#DBD7D7" fill-rule="evenodd" stroke="none" />
    <path d="M0 53L0 52C0 51.7239 0.0976311 51.4882 0.292893 51.2929C0.488155 51.0976 0.723858 51 1 51L11 51C11.2761 51 11.5118 51.0976 11.7071 51.2929C11.9024 51.4882 12 51.7239 12 52L12 62C12 62.2761 11.9024 62.5118 11.7071 62.7071C11.5118 62.9024 11.2761 63 11 63L1 63C0.723858 63 0.488155 62.9024 0.292893 62.7071C0.0976311 62.5118 0 62.2761 0 62L0 53Z" id="Rectangle" fill="#E6E6FF" fill-opacity="0.2" fill-rule="evenodd" stroke="none" />
    <path d="M0 49.5C0 49.3619 0.0488155 49.2441 0.146447 49.1464C0.244078 49.0488 0.361929 49 0.5 49L11.5 49C11.6381 49 11.7559 49.0488 11.8536 49.1464C11.9512 49.2441 12 49.3619 12 49.5C12 49.6381 11.9512 49.7559 11.8536 49.8536C11.7559 49.9512 11.6381 50 11.5 50L0.5 50C0.361929 50 0.244078 49.9512 0.146447 49.8536C0.0488155 49.7559 0 49.6381 0 49.5L0 49.5Z" id="Rectangle" fill="#E6E6FF" fill-opacity="0.2" fill-rule="evenodd" stroke="none" />
    <path d="M0 49.5C0 49.3619 0.0488155 49.2441 0.146447 49.1464C0.244078 49.0488 0.361929 49 0.5 49L11.5 49C11.6381 49 11.7559 49.0488 11.8536 49.1464C11.9512 49.2441 12 49.3619 12 49.5C12 49.6381 11.9512 49.7559 11.8536 49.8536C11.7559 49.9512 11.6381 50 11.5 50L0.5 50C0.361929 50 0.244078 49.9512 0.146447 49.8536C0.0488155 49.7559 0 49.6381 0 49.5L0 49.5Z" id="Rectangle" fill="#FFE97E" fill-opacity="0" fill-rule="evenodd" stroke="none" />
    <path d="M4.715 58.317L4.715 57.317L2.152 57.317L2.152 58.317L4.715 58.317ZM7.176 57.469L7.887 57.469C8.625 57.469 9.087 57.832 9.087 58.414C9.087 58.969 8.603 59.363 7.915 59.363C7.227 59.363 6.758 59.016 6.7 58.469L5.86 58.469C5.8998 58.9665 6.14131 59.4262 6.52847 59.7412C6.91563 60.0562 7.41476 60.1992 7.91 60.137C8.40751 60.1949 8.90734 60.0497 9.29638 59.7342C9.68543 59.4188 9.93081 58.9597 9.977 58.461C10.0116 57.7409 9.45788 57.1282 8.738 57.09L8.738 57.024C9.34764 56.897 9.77481 56.3461 9.746 55.724C9.70251 55.2786 9.48205 54.8692 9.13406 54.5878C8.78607 54.3064 8.33968 54.1764 7.895 54.227C7.4177 54.1724 6.93923 54.319 6.57453 54.6318C6.20983 54.9445 5.99186 55.395 5.973 55.875L6.8 55.875C6.8167 55.6124 6.94023 55.3681 7.14183 55.199C7.34343 55.0299 7.6055 54.9507 7.867 54.98C8.48 54.98 8.883 55.324 8.883 55.847C8.87838 56.1062 8.76482 56.3515 8.57016 56.5228C8.37549 56.6941 8.11771 56.7754 7.86 56.747L7.176 56.747L7.176 57.469Z" id="Shape" fill="#DBD7D7" fill-rule="evenodd" stroke="none" />
    <path d="M39 69L39 68C39 67.7239 39.0976 67.4882 39.2929 67.2929C39.4882 67.0976 39.7239 67 40 67L50 67C50.2761 67 50.5118 67.0976 50.7071 67.2929C50.9024 67.4882 51 67.7239 51 68L51 78C51 78.2761 50.9024 78.5118 50.7071 78.7071C50.5118 78.9024 50.2761 79 50 79L40 79C39.7239 79 39.4882 78.9024 39.2929 78.7071C39.0976 78.5118 39 78.2761 39 78L39 69Z" id="Rectangle" fill="#E6E6FF" fill-opacity="0.2" fill-rule="evenodd" stroke="none" />
    <path d="M39 65.5C39 65.3619 39.0488 65.2441 39.1464 65.1464C39.2441 65.0488 39.3619 65 39.5 65L50.5 65C50.6381 65 50.7559 65.0488 50.8536 65.1464C50.9512 65.2441 51 65.3619 51 65.5C51 65.6381 50.9512 65.7559 50.8536 65.8536C50.7559 65.9512 50.6381 66 50.5 66L39.5 66C39.3619 66 39.2441 65.9512 39.1464 65.8536C39.0488 65.7559 39 65.6381 39 65.5L39 65.5Z" id="Rectangle" fill="#E6E6FF" fill-opacity="0.2" fill-rule="evenodd" stroke="none" />
    <path d="M39 65.5C39 65.3619 39.0488 65.2441 39.1464 65.1464C39.2441 65.0488 39.3619 65 39.5 65L50.5 65C50.6381 65 50.7559 65.0488 50.8536 65.1464C50.9512 65.2441 51 65.3619 51 65.5C51 65.6381 50.9512 65.7559 50.8536 65.8536C50.7559 65.9512 50.6381 66 50.5 66L39.5 66C39.3619 66 39.2441 65.9512 39.1464 65.8536C39.0488 65.7559 39 65.6381 39 65.5L39 65.5Z" id="Rectangle" fill="#FFE97E" fill-opacity="0" fill-rule="evenodd" stroke="none" />
    <path d="M45 76.137C46.313 76.137 47.078 75.055 47.078 73.184C47.078 71.313 46.3 70.227 45 70.227C43.7 70.227 42.918 71.313 42.918 73.176C42.918 75.039 43.688 76.137 45 76.137L45 76.137ZM45 75.371C44.234 75.371 43.8 74.601 43.8 73.171C43.8 71.761 44.245 70.987 45 70.987C45.755 70.987 46.2 71.757 46.2 73.171C46.2 74.605 45.77 75.371 45 75.371L45 75.371Z" id="Shape" fill="#DBD7D7" fill-rule="evenodd" stroke="none" />
    <path d="M52 69L52 68C52 67.7239 52.0976 67.4882 52.2929 67.2929C52.4882 67.0976 52.7239 67 53 67L63 67C63.2761 67 63.5118 67.0976 63.7071 67.2929C63.9024 67.4882 64 67.7239 64 68L64 78C64 78.2761 63.9024 78.5118 63.7071 78.7071C63.5118 78.9024 63.2761 79 63 79L53 79C52.7239 79 52.4882 78.9024 52.2929 78.7071C52.0976 78.5118 52 78.2761 52 78L52 69Z" id="Rectangle" fill="#956E57" fill-rule="evenodd" stroke="none" />
    <path d="M52 65.5C52 65.3619 52.0488 65.2441 52.1464 65.1464C52.2441 65.0488 52.3619 65 52.5 65L63.5 65C63.6381 65 63.7559 65.0488 63.8536 65.1464C63.9512 65.2441 64 65.3619 64 65.5C64 65.6381 63.9512 65.7559 63.8536 65.8536C63.7559 65.9512 63.6381 66 63.5 66L52.5 66C52.3619 66 52.2441 65.9512 52.1464 65.8536C52.0488 65.7559 52 65.6381 52 65.5L52 65.5Z" id="Rectangle" fill="#FFE97E" fill-rule="evenodd" stroke="none" />
    <path d="M58.029 76L58.9 76L58.9 70.363L58.033 70.363L56.549 71.41L56.549 72.3L57.963 71.3L58.029 71.3L58.029 76Z" id="Shape" fill="#FFE97E" stroke="none" />
    <path d="M65 69L65 68C65 67.7239 65.0976 67.4882 65.2929 67.2929C65.4882 67.0976 65.7239 67 66 67L76 67C76.2761 67 76.5118 67.0976 76.7071 67.2929C76.9024 67.4882 77 67.7239 77 68L77 78C77 78.2761 76.9024 78.5118 76.7071 78.7071C76.5118 78.9024 76.2761 79 76 79L66 79C65.7239 79 65.4882 78.9024 65.2929 78.7071C65.0976 78.5118 65 78.2761 65 78L65 69Z" id="Rectangle" fill="#E6E6FF" fill-opacity="0.2" fill-rule="evenodd" stroke="none" />
    <path d="M65 65.5C65 65.3619 65.0488 65.2441 65.1464 65.1464C65.2441 65.0488 65.3619 65 65.5 65L76.5 65C76.6381 65 76.7559 65.0488 76.8536 65.1464C76.9512 65.2441 77 65.3619 77 65.5C77 65.6381 76.9512 65.7559 76.8536 65.8536C76.7559 65.9512 76.6381 66 76.5 66L65.5 66C65.3619 66 65.2441 65.9512 65.1464 65.8536C65.0488 65.7559 65 65.6381 65 65.5L65 65.5Z" id="Rectangle" fill="#E6E6FF" fill-opacity="0.2" fill-rule="evenodd" stroke="none" />
    <path d="M65 65.5C65 65.3619 65.0488 65.2441 65.1464 65.1464C65.2441 65.0488 65.3619 65 65.5 65L76.5 65C76.6381 65 76.7559 65.0488 76.8536 65.1464C76.9512 65.2441 77 65.3619 77 65.5C77 65.6381 76.9512 65.7559 76.8536 65.8536C76.7559 65.9512 76.6381 66 76.5 66L65.5 66C65.3619 66 65.2441 65.9512 65.1464 65.8536C65.0488 65.7559 65 65.6381 65 65.5L65 65.5Z" id="Rectangle" fill="#FFE97E" fill-opacity="0" fill-rule="evenodd" stroke="none" />
    <path d="M69.09 71.992L69.09 72L69.918 72L69.918 71.988C69.9076 71.7125 70.015 71.4455 70.2133 71.254C70.4115 71.0623 70.682 70.9642 70.957 70.984C71.2131 70.9631 71.4666 71.0471 71.6595 71.2169C71.8524 71.3866 71.9681 71.6273 71.98 71.884C71.98 72.3 71.8 72.6 71.043 73.383L69.137 75.367L69.137 76L72.937 76L72.937 75.215L70.355 75.215L70.355 75.148L71.609 73.879C72.554 72.922 72.843 72.434 72.843 71.836C72.8202 71.3722 72.6087 70.9379 72.2576 70.6339C71.9065 70.33 71.4463 70.183 70.984 70.227C70.4934 70.1889 70.0094 70.3582 69.6494 70.6936C69.2895 71.029 69.0866 71.5 69.09 71.992L69.09 71.992Z" id="Shape" fill="#DBD7D7" stroke="none" />
    <path d="M78 69L78 68C78 67.7239 78.0976 67.4882 78.2929 67.2929C78.4882 67.0976 78.7239 67 79 67L89 67C89.2761 67 89.5118 67.0976 89.7071 67.2929C89.9024 67.4882 90 67.7239 90 68L90 78C90 78.2761 89.9024 78.5118 89.7071 78.7071C89.5118 78.9024 89.2761 79 89 79L79 79C78.7239 79 78.4882 78.9024 78.2929 78.7071C78.0976 78.5118 78 78.2761 78 78L78 69Z" id="Rectangle" fill="#E6E6FF" fill-opacity="0.2" fill-rule="evenodd" stroke="none" />
    <path d="M78 65.5C78 65.3619 78.0488 65.2441 78.1464 65.1464C78.2441 65.0488 78.3619 65 78.5 65L89.5 65C89.6381 65 89.7559 65.0488 89.8536 65.1464C89.9512 65.2441 90 65.3619 90 65.5C90 65.6381 89.9512 65.7559 89.8536 65.8536C89.7559 65.9512 89.6381 66 89.5 66L78.5 66C78.3619 66 78.2441 65.9512 78.1464 65.8536C78.0488 65.7559 78 65.6381 78 65.5L78 65.5Z" id="Rectangle" fill="#E6E6FF" fill-opacity="0.2" fill-rule="evenodd" stroke="none" />
    <path d="M78 65.5C78 65.3619 78.0488 65.2441 78.1464 65.1464C78.2441 65.0488 78.3619 65 78.5 65L89.5 65C89.6381 65 89.7559 65.0488 89.8536 65.1464C89.9512 65.2441 90 65.3619 90 65.5C90 65.6381 89.9512 65.7559 89.8536 65.8536C89.7559 65.9512 89.6381 66 89.5 66L78.5 66C78.3619 66 78.2441 65.9512 78.1464 65.8536C78.0488 65.7559 78 65.6381 78 65.5L78 65.5Z" id="Rectangle" fill="#FFE97E" fill-opacity="0" fill-rule="evenodd" stroke="none" />
    <path d="M83.271 73.469L83.982 73.469C84.72 73.469 85.182 73.832 85.182 74.414C85.182 74.969 84.698 75.363 84.01 75.363C83.322 75.363 82.854 75.016 82.8 74.469L81.96 74.469C81.9999 74.9658 82.2408 75.4247 82.6271 75.7396C83.0133 76.0545 83.5114 76.198 84.006 76.137C84.5033 76.1946 85.0029 76.0492 85.3917 75.7338C85.7806 75.4184 86.0258 74.9595 86.072 74.461C86.1066 73.7413 85.5535 73.1288 84.834 73.09L84.834 73.024C85.4436 72.897 85.8708 72.3461 85.842 71.724C85.7985 71.2784 85.5779 70.8689 85.2297 70.5874C84.8815 70.3059 84.4348 70.1761 83.99 70.227C83.5127 70.1724 83.0342 70.319 82.6695 70.6318C82.3048 70.9445 82.0869 71.395 82.068 71.875L82.9 71.875C82.9168 71.6132 83.0397 71.3696 83.2404 71.2006C83.4411 71.0316 83.7021 70.9519 83.963 70.98C84.576 70.98 84.979 71.324 84.979 71.847C84.9744 72.1062 84.8608 72.3515 84.6662 72.5228C84.4715 72.6941 84.2137 72.7754 83.956 72.747L83.271 72.747L83.271 73.469Z" id="Shape" fill="#DBD7D7" stroke="none" />
    <path d="M26 69L26 68C26 67.7239 26.0976 67.4882 26.2929 67.2929C26.4882 67.0976 26.7239 67 27 67L37 67C37.2761 67 37.5118 67.0976 37.7071 67.2929C37.9024 67.4882 38 67.7239 38 68L38 78C38 78.2761 37.9024 78.5118 37.7071 78.7071C37.5118 78.9024 37.2761 79 37 79L27 79C26.7239 79 26.4882 78.9024 26.2929 78.7071C26.0976 78.5118 26 78.2761 26 78L26 69Z" id="Rectangle" fill="#E6E6FF" fill-opacity="0.2" fill-rule="evenodd" stroke="none" />
    <path d="M26 65.5C26 65.3619 26.0488 65.2441 26.1464 65.1464C26.2441 65.0488 26.3619 65 26.5 65L37.5 65C37.6381 65 37.7559 65.0488 37.8536 65.1464C37.9512 65.2441 38 65.3619 38 65.5C38 65.6381 37.9512 65.7559 37.8536 65.8536C37.7559 65.9512 37.6381 66 37.5 66L26.5 66C26.3619 66 26.2441 65.9512 26.1464 65.8536C26.0488 65.7559 26 65.6381 26 65.5L26 65.5Z" id="Rectangle" fill="#E6E6FF" fill-opacity="0.2" fill-rule="evenodd" stroke="none" />
    <path d="M26 65.5C26 65.3619 26.0488 65.2441 26.1464 65.1464C26.2441 65.0488 26.3619 65 26.5 65L37.5 65C37.6381 65 37.7559 65.0488 37.8536 65.1464C37.9512 65.2441 38 65.3619 38 65.5C38 65.6381 37.9512 65.7559 37.8536 65.8536C37.7559 65.9512 37.6381 66 37.5 66L26.5 66C26.3619 66 26.2441 65.9512 26.1464 65.8536C26.0488 65.7559 26 65.6381 26 65.5L26 65.5Z" id="Rectangle" fill="#FFE97E" fill-opacity="0" fill-rule="evenodd" stroke="none" />
    <path d="M31.352 74.317L31.352 73.317L28.789 73.317L28.789 74.317L31.352 74.317ZM33.934 76L34.809 76L34.809 70.363L33.938 70.363L32.453 71.41L32.453 72.3L33.867 71.3L33.933 71.3L33.934 76Z" id="Shape" fill="#DBD7D7" fill-rule="evenodd" stroke="none" />
    <path d="M13 69L13 68C13 67.7239 13.0976 67.4882 13.2929 67.2929C13.4882 67.0976 13.7239 67 14 67L24 67C24.2761 67 24.5118 67.0976 24.7071 67.2929C24.9024 67.4882 25 67.7239 25 68L25 78C25 78.2761 24.9024 78.5118 24.7071 78.7071C24.5118 78.9024 24.2761 79 24 79L14 79C13.7239 79 13.4882 78.9024 13.2929 78.7071C13.0976 78.5118 13 78.2761 13 78L13 69Z" id="Rectangle" fill="#E6E6FF" fill-opacity="0.2" fill-rule="evenodd" stroke="none" />
    <path d="M13 65.5C13 65.3619 13.0488 65.2441 13.1464 65.1464C13.2441 65.0488 13.3619 65 13.5 65L24.5 65C24.6381 65 24.7559 65.0488 24.8536 65.1464C24.9512 65.2441 25 65.3619 25 65.5C25 65.6381 24.9512 65.7559 24.8536 65.8536C24.7559 65.9512 24.6381 66 24.5 66L13.5 66C13.3619 66 13.2441 65.9512 13.1464 65.8536C13.0488 65.7559 13 65.6381 13 65.5L13 65.5Z" id="Rectangle" fill="#E6E6FF" fill-opacity="0.2" fill-rule="evenodd" stroke="none" />
    <path d="M13 65.5C13 65.3619 13.0488 65.2441 13.1464 65.1464C13.2441 65.0488 13.3619 65 13.5 65L24.5 65C24.6381 65 24.7559 65.0488 24.8536 65.1464C24.9512 65.2441 25 65.3619 25 65.5C25 65.6381 24.9512 65.7559 24.8536 65.8536C24.7559 65.9512 24.6381 66 24.5 66L13.5 66C13.3619 66 13.2441 65.9512 13.1464 65.8536C13.0488 65.7559 13 65.6381 13 65.5L13 65.5Z" id="Rectangle" fill="#FFE97E" fill-opacity="0" fill-rule="evenodd" stroke="none" />
    <path d="M17.811 74.317L17.811 73.317L15.248 73.317L15.248 74.317L17.811 74.317ZM18.994 71.992L18.994 72L19.822 72L19.822 71.988C19.8116 71.7125 19.919 71.4455 20.1173 71.254C20.3155 71.0624 20.586 70.9642 20.861 70.984C21.1171 70.9631 21.3706 71.0471 21.5635 71.2169C21.7564 71.3866 21.8721 71.6273 21.884 71.884C21.884 72.298 21.7 72.595 20.947 73.384L19.041 75.367L19.041 76L22.841 76L22.841 75.215L20.26 75.215L20.26 75.148L21.514 73.878C22.459 72.921 22.748 72.433 22.748 71.835C22.725 71.3714 22.5133 70.9373 22.1622 70.6336C21.8111 70.3299 21.3511 70.183 20.889 70.227C20.3983 70.1886 19.914 70.3577 19.5538 70.6932C19.1936 71.0287 18.9905 71.4998 18.994 71.992L18.994 71.992Z" id="Shape" fill="#DBD7D7" fill-rule="evenodd" stroke="none" />
    <path d="M0 69L0 68C0 67.7239 0.0976311 67.4882 0.292893 67.2929C0.488155 67.0976 0.723858 67 1 67L11 67C11.2761 67 11.5118 67.0976 11.7071 67.2929C11.9024 67.4882 12 67.7239 12 68L12 78C12 78.2761 11.9024 78.5118 11.7071 78.7071C11.5118 78.9024 11.2761 79 11 79L1 79C0.723858 79 0.488155 78.9024 0.292893 78.7071C0.0976311 78.5118 0 78.2761 0 78L0 69Z" id="Rectangle" fill="#E6E6FF" fill-opacity="0.2" fill-rule="evenodd" stroke="none" />
    <path d="M0 65.5C0 65.3619 0.0488155 65.2441 0.146447 65.1464C0.244078 65.0488 0.361929 65 0.5 65L11.5 65C11.6381 65 11.7559 65.0488 11.8536 65.1464C11.9512 65.2441 12 65.3619 12 65.5C12 65.6381 11.9512 65.7559 11.8536 65.8536C11.7559 65.9512 11.6381 66 11.5 66L0.5 66C0.361929 66 0.244078 65.9512 0.146447 65.8536C0.0488155 65.7559 0 65.6381 0 65.5L0 65.5Z" id="Rectangle" fill="#E6E6FF" fill-opacity="0.2" fill-rule="evenodd" stroke="none" />
    <path d="M0 65.5C0 65.3619 0.0488155 65.2441 0.146447 65.1464C0.244078 65.0488 0.361929 65 0.5 65L11.5 65C11.6381 65 11.7559 65.0488 11.8536 65.1464C11.9512 65.2441 12 65.3619 12 65.5C12 65.6381 11.9512 65.7559 11.8536 65.8536C11.7559 65.9512 11.6381 66 11.5 66L0.5 66C0.361929 66 0.244078 65.9512 0.146447 65.8536C0.0488155 65.7559 0 65.6381 0 65.5L0 65.5Z" id="Rectangle" fill="#FFE97E" fill-opacity="0" fill-rule="evenodd" stroke="none" />
    <path d="M4.715 74.317L4.715 73.317L2.152 73.317L2.152 74.317L4.715 74.317ZM7.176 73.469L7.887 73.469C8.625 73.469 9.087 73.832 9.087 74.414C9.087 74.969 8.603 75.363 7.915 75.363C7.227 75.363 6.758 75.016 6.7 74.469L5.86 74.469C5.8998 74.9665 6.14131 75.4262 6.52847 75.7412C6.91563 76.0562 7.41476 76.1992 7.91 76.137C8.40751 76.1949 8.90734 76.0497 9.29638 75.7342C9.68543 75.4188 9.93081 74.9597 9.977 74.461C10.0116 73.7409 9.45788 73.1282 8.738 73.09L8.738 73.024C9.34764 72.897 9.77481 72.3461 9.746 71.724C9.70251 71.2786 9.48205 70.8692 9.13406 70.5878C8.78607 70.3064 8.33968 70.1764 7.895 70.227C7.4177 70.1724 6.93923 70.319 6.57453 70.6318C6.20983 70.9445 5.99186 71.395 5.973 71.875L6.8 71.875C6.8167 71.6124 6.94023 71.3681 7.14183 71.199C7.34343 71.0299 7.6055 70.9507 7.867 70.98C8.48 70.98 8.883 71.324 8.883 71.847C8.87838 72.1062 8.76482 72.3515 8.57016 72.5228C8.37549 72.6941 8.11771 72.7754 7.86 72.747L7.176 72.747L7.176 73.469Z" id="Shape" fill="#DBD7D7" fill-rule="evenodd" stroke="none" />
    <path d="M39 85L39 84C39 83.7239 39.0976 83.4882 39.2929 83.2929C39.4882 83.0976 39.7239 83 40 83L50 83C50.2761 83 50.5118 83.0976 50.7071 83.2929C50.9024 83.4882 51 83.7239 51 84L51 94C51 94.2761 50.9024 94.5118 50.7071 94.7071C50.5118 94.9024 50.2761 95 50 95L40 95C39.7239 95 39.4882 94.9024 39.2929 94.7071C39.0976 94.5118 39 94.2761 39 94L39 85Z" id="Rectangle" fill="#E6E6FF" fill-opacity="0.2" fill-rule="evenodd" stroke="none" />
    <path d="M39 81.5C39 81.3619 39.0488 81.2441 39.1464 81.1464C39.2441 81.0488 39.3619 81 39.5 81L50.5 81C50.6381 81 50.7559 81.0488 50.8536 81.1464C50.9512 81.2441 51 81.3619 51 81.5C51 81.6381 50.9512 81.7559 50.8536 81.8536C50.7559 81.9512 50.6381 82 50.5 82L39.5 82C39.3619 82 39.2441 81.9512 39.1464 81.8536C39.0488 81.7559 39 81.6381 39 81.5L39 81.5Z" id="Rectangle" fill="#E6E6FF" fill-opacity="0.2" fill-rule="evenodd" stroke="none" />
    <path d="M39 81.5C39 81.3619 39.0488 81.2441 39.1464 81.1464C39.2441 81.0488 39.3619 81 39.5 81L50.5 81C50.6381 81 50.7559 81.0488 50.8536 81.1464C50.9512 81.2441 51 81.3619 51 81.5C51 81.6381 50.9512 81.7559 50.8536 81.8536C50.7559 81.9512 50.6381 82 50.5 82L39.5 82C39.3619 82 39.2441 81.9512 39.1464 81.8536C39.0488 81.7559 39 81.6381 39 81.5L39 81.5Z" id="Rectangle" fill="#FFE97E" fill-opacity="0" fill-rule="evenodd" stroke="none" />
    <path d="M45 92.137C46.313 92.137 47.078 91.055 47.078 89.184C47.078 87.313 46.3 86.227 45 86.227C43.7 86.227 42.918 87.313 42.918 89.176C42.918 91.039 43.688 92.137 45 92.137L45 92.137ZM45 91.371C44.234 91.371 43.8 90.601 43.8 89.171C43.8 87.761 44.245 86.987 45 86.987C45.755 86.987 46.2 87.757 46.2 89.171C46.2 90.605 45.77 91.371 45 91.371L45 91.371Z" id="Shape" fill="#DBD7D7" fill-rule="evenodd" stroke="none" />
    <path d="M52 85L52 84C52 83.7239 52.0976 83.4882 52.2929 83.2929C52.4882 83.0976 52.7239 83 53 83L63 83C63.2761 83 63.5118 83.0976 63.7071 83.2929C63.9024 83.4882 64 83.7239 64 84L64 94C64 94.2761 63.9024 94.5118 63.7071 94.7071C63.5118 94.9024 63.2761 95 63 95L53 95C52.7239 95 52.4882 94.9024 52.2929 94.7071C52.0976 94.5118 52 94.2761 52 94L52 85Z" id="Rectangle" fill="#E6E6FF" fill-opacity="0.2" fill-rule="evenodd" stroke="none" />
    <path d="M52 81.5C52 81.3619 52.0488 81.2441 52.1464 81.1464C52.2441 81.0488 52.3619 81 52.5 81L63.5 81C63.6381 81 63.7559 81.0488 63.8536 81.1464C63.9512 81.2441 64 81.3619 64 81.5C64 81.6381 63.9512 81.7559 63.8536 81.8536C63.7559 81.9512 63.6381 82 63.5 82L52.5 82C52.3619 82 52.2441 81.9512 52.1464 81.8536C52.0488 81.7559 52 81.6381 52 81.5L52 81.5Z" id="Rectangle" fill="#E6E6FF" fill-opacity="0.2" fill-rule="evenodd" stroke="none" />
    <path d="M52 81.5C52 81.3619 52.0488 81.2441 52.1464 81.1464C52.2441 81.0488 52.3619 81 52.5 81L63.5 81C63.6381 81 63.7559 81.0488 63.8536 81.1464C63.9512 81.2441 64 81.3619 64 81.5C64 81.6381 63.9512 81.7559 63.8536 81.8536C63.7559 81.9512 63.6381 82 63.5 82L52.5 82C52.3619 82 52.2441 81.9512 52.1464 81.8536C52.0488 81.7559 52 81.6381 52 81.5L52 81.5Z" id="Rectangle" fill="#FFE97E" fill-opacity="0" fill-rule="evenodd" stroke="none" />
    <path d="M58.029 92L58.9 92L58.9 86.363L58.033 86.363L56.549 87.41L56.549 88.3L57.963 87.3L58.029 87.3L58.029 92Z" id="Shape" fill="#DBD7D7" stroke="none" />
    <path d="M65 85L65 84C65 83.7239 65.0976 83.4882 65.2929 83.2929C65.4882 83.0976 65.7239 83 66 83L76 83C76.2761 83 76.5118 83.0976 76.7071 83.2929C76.9024 83.4882 77 83.7239 77 84L77 94C77 94.2761 76.9024 94.5118 76.7071 94.7071C76.5118 94.9024 76.2761 95 76 95L66 95C65.7239 95 65.4882 94.9024 65.2929 94.7071C65.0976 94.5118 65 94.2761 65 94L65 85Z" id="Rectangle" fill="#956E57" fill-rule="evenodd" stroke="none" />
    <path d="M65 81.5C65 81.3619 65.0488 81.2441 65.1464 81.1464C65.2441 81.0488 65.3619 81 65.5 81L76.5 81C76.6381 81 76.7559 81.0488 76.8536 81.1464C76.9512 81.2441 77 81.3619 77 81.5C77 81.6381 76.9512 81.7559 76.8536 81.8536C76.7559 81.9512 76.6381 82 76.5 82L65.5 82C65.3619 82 65.2441 81.9512 65.1464 81.8536C65.0488 81.7559 65 81.6381 65 81.5L65 81.5Z" id="Rectangle" fill="#FFE97E" fill-rule="evenodd" stroke="none" />
    <path d="M69.09 87.992L69.09 88L69.918 88L69.918 87.988C69.9076 87.7125 70.015 87.4455 70.2133 87.254C70.4115 87.0624 70.682 86.9642 70.957 86.984C71.2131 86.9631 71.4666 87.0471 71.6595 87.2169C71.8524 87.3866 71.9681 87.6274 71.98 87.884C71.98 88.3 71.8 88.6 71.043 89.383L69.137 91.367L69.137 92L72.937 92L72.937 91.215L70.355 91.215L70.355 91.148L71.609 89.879C72.554 88.922 72.843 88.434 72.843 87.836C72.8202 87.3722 72.6087 86.9379 72.2576 86.634C71.9065 86.33 71.4463 86.183 70.984 86.227C70.4934 86.1889 70.0094 86.3582 69.6494 86.6936C69.2895 87.0291 69.0866 87.5 69.09 87.992L69.09 87.992Z" id="Shape" fill="#FFE97E" stroke="none" />
    <path d="M78 85L78 84C78 83.7239 78.0976 83.4882 78.2929 83.2929C78.4882 83.0976 78.7239 83 79 83L89 83C89.2761 83 89.5118 83.0976 89.7071 83.2929C89.9024 83.4882 90 83.7239 90 84L90 94C90 94.2761 89.9024 94.5118 89.7071 94.7071C89.5118 94.9024 89.2761 95 89 95L79 95C78.7239 95 78.4882 94.9024 78.2929 94.7071C78.0976 94.5118 78 94.2761 78 94L78 85Z" id="Rectangle" fill="#E6E6FF" fill-opacity="0.2" fill-rule="evenodd" stroke="none" />
    <path d="M78 81.5C78 81.3619 78.0488 81.2441 78.1464 81.1464C78.2441 81.0488 78.3619 81 78.5 81L89.5 81C89.6381 81 89.7559 81.0488 89.8536 81.1464C89.9512 81.2441 90 81.3619 90 81.5C90 81.6381 89.9512 81.7559 89.8536 81.8536C89.7559 81.9512 89.6381 82 89.5 82L78.5 82C78.3619 82 78.2441 81.9512 78.1464 81.8536C78.0488 81.7559 78 81.6381 78 81.5L78 81.5Z" id="Rectangle" fill="#E6E6FF" fill-opacity="0.2" fill-rule="evenodd" stroke="none" />
    <path d="M78 81.5C78 81.3619 78.0488 81.2441 78.1464 81.1464C78.2441 81.0488 78.3619 81 78.5 81L89.5 81C89.6381 81 89.7559 81.0488 89.8536 81.1464C89.9512 81.2441 90 81.3619 90 81.5C90 81.6381 89.9512 81.7559 89.8536 81.8536C89.7559 81.9512 89.6381 82 89.5 82L78.5 82C78.3619 82 78.2441 81.9512 78.1464 81.8536C78.0488 81.7559 78 81.6381 78 81.5L78 81.5Z" id="Rectangle" fill="#FFE97E" fill-opacity="0" fill-rule="evenodd" stroke="none" />
    <path d="M83.271 89.469L83.982 89.469C84.72 89.469 85.182 89.832 85.182 90.414C85.182 90.969 84.698 91.363 84.01 91.363C83.322 91.363 82.854 91.016 82.8 90.469L81.96 90.469C81.9999 90.9658 82.2408 91.4247 82.6271 91.7396C83.0133 92.0545 83.5114 92.198 84.006 92.137C84.5033 92.1946 85.0029 92.0492 85.3917 91.7338C85.7806 91.4184 86.0258 90.9595 86.072 90.461C86.1066 89.7413 85.5535 89.1288 84.834 89.09L84.834 89.024C85.4436 88.897 85.8708 88.3461 85.842 87.724C85.7985 87.2784 85.5779 86.8689 85.2297 86.5874C84.8815 86.3059 84.4348 86.1761 83.99 86.227C83.5127 86.1724 83.0342 86.3191 82.6695 86.6318C82.3048 86.9445 82.0869 87.395 82.068 87.875L82.9 87.875C82.9168 87.6132 83.0397 87.3696 83.2404 87.2006C83.4411 87.0316 83.7021 86.9519 83.963 86.98C84.576 86.98 84.979 87.324 84.979 87.847C84.9744 88.1062 84.8608 88.3515 84.6662 88.5228C84.4715 88.6941 84.2137 88.7754 83.956 88.747L83.271 88.747L83.271 89.469Z" id="Shape" fill="#DBD7D7" stroke="none" />
    <path d="M26 85L26 84C26 83.7239 26.0976 83.4882 26.2929 83.2929C26.4882 83.0976 26.7239 83 27 83L37 83C37.2761 83 37.5118 83.0976 37.7071 83.2929C37.9024 83.4882 38 83.7239 38 84L38 94C38 94.2761 37.9024 94.5118 37.7071 94.7071C37.5118 94.9024 37.2761 95 37 95L27 95C26.7239 95 26.4882 94.9024 26.2929 94.7071C26.0976 94.5118 26 94.2761 26 94L26 85Z" id="Rectangle" fill="#E6E6FF" fill-opacity="0.2" fill-rule="evenodd" stroke="none" />
    <path d="M26 81.5C26 81.3619 26.0488 81.2441 26.1464 81.1464C26.2441 81.0488 26.3619 81 26.5 81L37.5 81C37.6381 81 37.7559 81.0488 37.8536 81.1464C37.9512 81.2441 38 81.3619 38 81.5C38 81.6381 37.9512 81.7559 37.8536 81.8536C37.7559 81.9512 37.6381 82 37.5 82L26.5 82C26.3619 82 26.2441 81.9512 26.1464 81.8536C26.0488 81.7559 26 81.6381 26 81.5L26 81.5Z" id="Rectangle" fill="#E6E6FF" fill-opacity="0.2" fill-rule="evenodd" stroke="none" />
    <path d="M26 81.5C26 81.3619 26.0488 81.2441 26.1464 81.1464C26.2441 81.0488 26.3619 81 26.5 81L37.5 81C37.6381 81 37.7559 81.0488 37.8536 81.1464C37.9512 81.2441 38 81.3619 38 81.5C38 81.6381 37.9512 81.7559 37.8536 81.8536C37.7559 81.9512 37.6381 82 37.5 82L26.5 82C26.3619 82 26.2441 81.9512 26.1464 81.8536C26.0488 81.7559 26 81.6381 26 81.5L26 81.5Z" id="Rectangle" fill="#FFE97E" fill-opacity="0" fill-rule="evenodd" stroke="none" />
    <path d="M31.352 90.317L31.352 89.317L28.789 89.317L28.789 90.317L31.352 90.317ZM33.934 92L34.809 92L34.809 86.363L33.938 86.363L32.453 87.41L32.453 88.3L33.867 87.3L33.933 87.3L33.934 92Z" id="Shape" fill="#DBD7D7" fill-rule="evenodd" stroke="none" />
    <path d="M13 85L13 84C13 83.7239 13.0976 83.4882 13.2929 83.2929C13.4882 83.0976 13.7239 83 14 83L24 83C24.2761 83 24.5118 83.0976 24.7071 83.2929C24.9024 83.4882 25 83.7239 25 84L25 94C25 94.2761 24.9024 94.5118 24.7071 94.7071C24.5118 94.9024 24.2761 95 24 95L14 95C13.7239 95 13.4882 94.9024 13.2929 94.7071C13.0976 94.5118 13 94.2761 13 94L13 85Z" id="Rectangle" fill="#E6E6FF" fill-opacity="0.2" fill-rule="evenodd" stroke="none" />
    <path d="M13 81.5C13 81.3619 13.0488 81.2441 13.1464 81.1464C13.2441 81.0488 13.3619 81 13.5 81L24.5 81C24.6381 81 24.7559 81.0488 24.8536 81.1464C24.9512 81.2441 25 81.3619 25 81.5C25 81.6381 24.9512 81.7559 24.8536 81.8536C24.7559 81.9512 24.6381 82 24.5 82L13.5 82C13.3619 82 13.2441 81.9512 13.1464 81.8536C13.0488 81.7559 13 81.6381 13 81.5L13 81.5Z" id="Rectangle" fill="#E6E6FF" fill-opacity="0.2" fill-rule="evenodd" stroke="none" />
    <path d="M13 81.5C13 81.3619 13.0488 81.2441 13.1464 81.1464C13.2441 81.0488 13.3619 81 13.5 81L24.5 81C24.6381 81 24.7559 81.0488 24.8536 81.1464C24.9512 81.2441 25 81.3619 25 81.5C25 81.6381 24.9512 81.7559 24.8536 81.8536C24.7559 81.9512 24.6381 82 24.5 82L13.5 82C13.3619 82 13.2441 81.9512 13.1464 81.8536C13.0488 81.7559 13 81.6381 13 81.5L13 81.5Z" id="Rectangle" fill="#FFE97E" fill-opacity="0" fill-rule="evenodd" stroke="none" />
    <path d="M17.811 90.317L17.811 89.317L15.248 89.317L15.248 90.317L17.811 90.317ZM18.994 87.992L18.994 88L19.822 88L19.822 87.988C19.8116 87.7125 19.919 87.4455 20.1173 87.254C20.3155 87.0624 20.586 86.9642 20.861 86.984C21.1171 86.9631 21.3706 87.0471 21.5635 87.2169C21.7564 87.3866 21.8721 87.6274 21.884 87.884C21.884 88.298 21.7 88.595 20.947 89.384L19.041 91.367L19.041 92L22.841 92L22.841 91.215L20.26 91.215L20.26 91.148L21.514 89.878C22.459 88.921 22.748 88.433 22.748 87.835C22.725 87.3714 22.5133 86.9373 22.1622 86.6336C21.8111 86.3299 21.3511 86.183 20.889 86.227C20.3983 86.1886 19.914 86.3577 19.5538 86.6932C19.1936 87.0287 18.9905 87.4998 18.994 87.992L18.994 87.992Z" id="Shape" fill="#DBD7D7" fill-rule="evenodd" stroke="none" />
    <path d="M0 85L0 84C0 83.7239 0.0976311 83.4882 0.292893 83.2929C0.488155 83.0976 0.723858 83 1 83L11 83C11.2761 83 11.5118 83.0976 11.7071 83.2929C11.9024 83.4882 12 83.7239 12 84L12 94C12 94.2761 11.9024 94.5118 11.7071 94.7071C11.5118 94.9024 11.2761 95 11 95L1 95C0.723858 95 0.488155 94.9024 0.292893 94.7071C0.0976311 94.5118 0 94.2761 0 94L0 85Z" id="Rectangle" fill="#E6E6FF" fill-opacity="0.2" fill-rule="evenodd" stroke="none" />
    <path d="M0 81.5C0 81.3619 0.0488155 81.2441 0.146447 81.1464C0.244078 81.0488 0.361929 81 0.5 81L11.5 81C11.6381 81 11.7559 81.0488 11.8536 81.1464C11.9512 81.2441 12 81.3619 12 81.5C12 81.6381 11.9512 81.7559 11.8536 81.8536C11.7559 81.9512 11.6381 82 11.5 82L0.5 82C0.361929 82 0.244078 81.9512 0.146447 81.8536C0.0488155 81.7559 0 81.6381 0 81.5L0 81.5Z" id="Rectangle" fill="#E6E6FF" fill-opacity="0.2" fill-rule="evenodd" stroke="none" />
    <path d="M0 81.5C0 81.3619 0.0488155 81.2441 0.146447 81.1464C0.244078 81.0488 0.361929 81 0.5 81L11.5 81C11.6381 81 11.7559 81.0488 11.8536 81.1464C11.9512 81.2441 12 81.3619 12 81.5C12 81.6381 11.9512 81.7559 11.8536 81.8536C11.7559 81.9512 11.6381 82 11.5 82L0.5 82C0.361929 82 0.244078 81.9512 0.146447 81.8536C0.0488155 81.7559 0 81.6381 0 81.5L0 81.5Z" id="Rectangle" fill="#FFE97E" fill-opacity="0" fill-rule="evenodd" stroke="none" />
    <path d="M4.715 90.317L4.715 89.317L2.152 89.317L2.152 90.317L4.715 90.317ZM7.176 89.469L7.887 89.469C8.625 89.469 9.087 89.832 9.087 90.414C9.087 90.969 8.603 91.363 7.915 91.363C7.227 91.363 6.758 91.016 6.7 90.469L5.86 90.469C5.8998 90.9665 6.14131 91.4262 6.52847 91.7412C6.91563 92.0562 7.41476 92.1992 7.91 92.137C8.40751 92.1949 8.90734 92.0497 9.29638 91.7342C9.68543 91.4188 9.93081 90.9597 9.977 90.461C10.0116 89.7409 9.45788 89.1282 8.738 89.09L8.738 89.024C9.34764 88.897 9.77481 88.3461 9.746 87.724C9.70251 87.2786 9.48205 86.8692 9.13406 86.5878C8.78607 86.3064 8.33968 86.1764 7.895 86.227C7.4177 86.1724 6.93923 86.3191 6.57453 86.6318C6.20983 86.9445 5.99186 87.395 5.973 87.875L6.8 87.875C6.8167 87.6124 6.94023 87.3681 7.14183 87.199C7.34343 87.0299 7.6055 86.9508 7.867 86.98C8.48 86.98 8.883 87.324 8.883 87.847C8.87838 88.1062 8.76482 88.3515 8.57016 88.5228C8.37549 88.6941 8.11771 88.7754 7.86 88.747L7.176 88.747L7.176 89.469Z" id="Shape" fill="#DBD7D7" fill-rule="evenodd" stroke="none" />
    <path d="M39 101L39 100C39 99.7239 39.0976 99.4882 39.2929 99.2929C39.4882 99.0976 39.7239 99 40 99L50 99C50.2761 99 50.5118 99.0976 50.7071 99.2929C50.9024 99.4882 51 99.7239 51 100L51 110C51 110.276 50.9024 110.512 50.7071 110.707C50.5118 110.902 50.2761 111 50 111L40 111C39.7239 111 39.4882 110.902 39.2929 110.707C39.0976 110.512 39 110.276 39 110L39 101Z" id="Rectangle" fill="#E6E6FF" fill-opacity="0.2" fill-rule="evenodd" stroke="none" />
    <path d="M39 97.5C39 97.3619 39.0488 97.2441 39.1464 97.1464C39.2441 97.0488 39.3619 97 39.5 97L50.5 97C50.6381 97 50.7559 97.0488 50.8536 97.1464C50.9512 97.2441 51 97.3619 51 97.5C51 97.6381 50.9512 97.7559 50.8536 97.8536C50.7559 97.9512 50.6381 98 50.5 98L39.5 98C39.3619 98 39.2441 97.9512 39.1464 97.8536C39.0488 97.7559 39 97.6381 39 97.5L39 97.5Z" id="Rectangle" fill="#E6E6FF" fill-opacity="0.2" fill-rule="evenodd" stroke="none" />
    <path d="M39 97.5C39 97.3619 39.0488 97.2441 39.1464 97.1464C39.2441 97.0488 39.3619 97 39.5 97L50.5 97C50.6381 97 50.7559 97.0488 50.8536 97.1464C50.9512 97.2441 51 97.3619 51 97.5C51 97.6381 50.9512 97.7559 50.8536 97.8536C50.7559 97.9512 50.6381 98 50.5 98L39.5 98C39.3619 98 39.2441 97.9512 39.1464 97.8536C39.0488 97.7559 39 97.6381 39 97.5L39 97.5Z" id="Rectangle" fill="#FFE97E" fill-opacity="0" fill-rule="evenodd" stroke="none" />
    <path d="M45 108.137C46.313 108.137 47.078 107.055 47.078 105.184C47.078 103.313 46.3 102.227 45 102.227C43.7 102.227 42.918 103.313 42.918 105.176C42.918 107.039 43.688 108.137 45 108.137L45 108.137ZM45 107.371C44.234 107.371 43.8 106.601 43.8 105.171C43.8 103.761 44.245 102.987 45 102.987C45.755 102.987 46.2 103.757 46.2 105.171C46.2 106.605 45.77 107.371 45 107.371L45 107.371Z" id="Shape" fill="#DBD7D7" fill-rule="evenodd" stroke="none" />
    <path d="M52 101L52 100C52 99.7239 52.0976 99.4882 52.2929 99.2929C52.4882 99.0976 52.7239 99 53 99L63 99C63.2761 99 63.5118 99.0976 63.7071 99.2929C63.9024 99.4882 64 99.7239 64 100L64 110C64 110.276 63.9024 110.512 63.7071 110.707C63.5118 110.902 63.2761 111 63 111L53 111C52.7239 111 52.4882 110.902 52.2929 110.707C52.0976 110.512 52 110.276 52 110L52 101Z" id="Rectangle" fill="#E6E6FF" fill-opacity="0.2" fill-rule="evenodd" stroke="none" />
    <path d="M52 97.5C52 97.3619 52.0488 97.2441 52.1464 97.1464C52.2441 97.0488 52.3619 97 52.5 97L63.5 97C63.6381 97 63.7559 97.0488 63.8536 97.1464C63.9512 97.2441 64 97.3619 64 97.5C64 97.6381 63.9512 97.7559 63.8536 97.8536C63.7559 97.9512 63.6381 98 63.5 98L52.5 98C52.3619 98 52.2441 97.9512 52.1464 97.8536C52.0488 97.7559 52 97.6381 52 97.5L52 97.5Z" id="Rectangle" fill="#E6E6FF" fill-opacity="0.2" fill-rule="evenodd" stroke="none" />
    <path d="M52 97.5C52 97.3619 52.0488 97.2441 52.1464 97.1464C52.2441 97.0488 52.3619 97 52.5 97L63.5 97C63.6381 97 63.7559 97.0488 63.8536 97.1464C63.9512 97.2441 64 97.3619 64 97.5C64 97.6381 63.9512 97.7559 63.8536 97.8536C63.7559 97.9512 63.6381 98 63.5 98L52.5 98C52.3619 98 52.2441 97.9512 52.1464 97.8536C52.0488 97.7559 52 97.6381 52 97.5L52 97.5Z" id="Rectangle" fill="#FFE97E" fill-opacity="0" fill-rule="evenodd" stroke="none" />
    <path d="M58.029 108L58.9 108L58.9 102.363L58.033 102.363L56.549 103.41L56.549 104.3L57.963 103.3L58.029 103.3L58.029 108Z" id="Shape" fill="#DBD7D7" stroke="none" />
    <path d="M65 101L65 100C65 99.7239 65.0976 99.4882 65.2929 99.2929C65.4882 99.0976 65.7239 99 66 99L76 99C76.2761 99 76.5118 99.0976 76.7071 99.2929C76.9024 99.4882 77 99.7239 77 100L77 110C77 110.276 76.9024 110.512 76.7071 110.707C76.5118 110.902 76.2761 111 76 111L66 111C65.7239 111 65.4882 110.902 65.2929 110.707C65.0976 110.512 65 110.276 65 110L65 101Z" id="Rectangle" fill="#E6E6FF" fill-opacity="0.2" fill-rule="evenodd" stroke="none" />
    <path d="M65 97.5C65 97.3619 65.0488 97.2441 65.1464 97.1464C65.2441 97.0488 65.3619 97 65.5 97L76.5 97C76.6381 97 76.7559 97.0488 76.8536 97.1464C76.9512 97.2441 77 97.3619 77 97.5C77 97.6381 76.9512 97.7559 76.8536 97.8536C76.7559 97.9512 76.6381 98 76.5 98L65.5 98C65.3619 98 65.2441 97.9512 65.1464 97.8536C65.0488 97.7559 65 97.6381 65 97.5L65 97.5Z" id="Rectangle" fill="#E6E6FF" fill-opacity="0.2" fill-rule="evenodd" stroke="none" />
    <path d="M65 97.5C65 97.3619 65.0488 97.2441 65.1464 97.1464C65.2441 97.0488 65.3619 97 65.5 97L76.5 97C76.6381 97 76.7559 97.0488 76.8536 97.1464C76.9512 97.2441 77 97.3619 77 97.5C77 97.6381 76.9512 97.7559 76.8536 97.8536C76.7559 97.9512 76.6381 98 76.5 98L65.5 98C65.3619 98 65.2441 97.9512 65.1464 97.8536C65.0488 97.7559 65 97.6381 65 97.5L65 97.5Z" id="Rectangle" fill="#FFE97E" fill-opacity="0" fill-rule="evenodd" stroke="none" />
    <path d="M69.09 103.992L69.09 104L69.918 104L69.918 103.988C69.9076 103.712 70.015 103.446 70.2133 103.254C70.4115 103.062 70.682 102.964 70.957 102.984C71.2131 102.963 71.4666 103.047 71.6595 103.217C71.8524 103.387 71.9681 103.627 71.98 103.884C71.98 104.3 71.8 104.6 71.043 105.383L69.137 107.367L69.137 108L72.937 108L72.937 107.215L70.355 107.215L70.355 107.148L71.609 105.879C72.554 104.922 72.843 104.434 72.843 103.836C72.8202 103.372 72.6087 102.938 72.2576 102.634C71.9065 102.33 71.4463 102.183 70.984 102.227C70.4934 102.189 70.0094 102.358 69.6494 102.694C69.2895 103.029 69.0866 103.5 69.09 103.992L69.09 103.992Z" id="Shape" fill="#DBD7D7" stroke="none" />
    <path d="M78 101L78 100C78 99.7239 78.0976 99.4882 78.2929 99.2929C78.4882 99.0976 78.7239 99 79 99L89 99C89.2761 99 89.5118 99.0976 89.7071 99.2929C89.9024 99.4882 90 99.7239 90 100L90 110C90 110.276 89.9024 110.512 89.7071 110.707C89.5118 110.902 89.2761 111 89 111L79 111C78.7239 111 78.4882 110.902 78.2929 110.707C78.0976 110.512 78 110.276 78 110L78 101Z" id="Rectangle" fill="#956E57" fill-rule="evenodd" stroke="none" />
    <path d="M78 97.5C78 97.3619 78.0488 97.2441 78.1464 97.1464C78.2441 97.0488 78.3619 97 78.5 97L89.5 97C89.6381 97 89.7559 97.0488 89.8536 97.1464C89.9512 97.2441 90 97.3619 90 97.5C90 97.6381 89.9512 97.7559 89.8536 97.8536C89.7559 97.9512 89.6381 98 89.5 98L78.5 98C78.3619 98 78.2441 97.9512 78.1464 97.8536C78.0488 97.7559 78 97.6381 78 97.5L78 97.5Z" id="Rectangle" fill="#FFE97E" fill-rule="evenodd" stroke="none" />
    <path d="M83.271 105.469L83.982 105.469C84.72 105.469 85.182 105.832 85.182 106.414C85.182 106.969 84.698 107.363 84.01 107.363C83.322 107.363 82.854 107.016 82.8 106.469L81.96 106.469C81.9999 106.966 82.2408 107.425 82.6271 107.74C83.0133 108.054 83.5114 108.198 84.006 108.137C84.5033 108.195 85.0029 108.049 85.3917 107.734C85.7806 107.418 86.0258 106.96 86.072 106.461C86.1066 105.741 85.5535 105.129 84.834 105.09L84.834 105.024C85.4436 104.897 85.8708 104.346 85.842 103.724C85.7985 103.278 85.5779 102.869 85.2297 102.587C84.8815 102.306 84.4348 102.176 83.99 102.227C83.5127 102.172 83.0342 102.319 82.6695 102.632C82.3048 102.944 82.0869 103.395 82.068 103.875L82.9 103.875C82.9168 103.613 83.0397 103.37 83.2404 103.201C83.4411 103.032 83.7021 102.952 83.963 102.98C84.576 102.98 84.979 103.324 84.979 103.847C84.9744 104.106 84.8608 104.352 84.6662 104.523C84.4715 104.694 84.2137 104.775 83.956 104.747L83.271 104.747L83.271 105.469Z" id="Shape" fill="#FFE97E" stroke="none" />
    <path d="M26 101L26 100C26 99.7239 26.0976 99.4882 26.2929 99.2929C26.4882 99.0976 26.7239 99 27 99L37 99C37.2761 99 37.5118 99.0976 37.7071 99.2929C37.9024 99.4882 38 99.7239 38 100L38 110C38 110.276 37.9024 110.512 37.7071 110.707C37.5118 110.902 37.2761 111 37 111L27 111C26.7239 111 26.4882 110.902 26.2929 110.707C26.0976 110.512 26 110.276 26 110L26 101Z" id="Rectangle" fill="#E6E6FF" fill-opacity="0.2" fill-rule="evenodd" stroke="none" />
    <path d="M26 97.5C26 97.3619 26.0488 97.2441 26.1464 97.1464C26.2441 97.0488 26.3619 97 26.5 97L37.5 97C37.6381 97 37.7559 97.0488 37.8536 97.1464C37.9512 97.2441 38 97.3619 38 97.5C38 97.6381 37.9512 97.7559 37.8536 97.8536C37.7559 97.9512 37.6381 98 37.5 98L26.5 98C26.3619 98 26.2441 97.9512 26.1464 97.8536C26.0488 97.7559 26 97.6381 26 97.5L26 97.5Z" id="Rectangle" fill="#E6E6FF" fill-opacity="0.2" fill-rule="evenodd" stroke="none" />
    <path d="M26 97.5C26 97.3619 26.0488 97.2441 26.1464 97.1464C26.2441 97.0488 26.3619 97 26.5 97L37.5 97C37.6381 97 37.7559 97.0488 37.8536 97.1464C37.9512 97.2441 38 97.3619 38 97.5C38 97.6381 37.9512 97.7559 37.8536 97.8536C37.7559 97.9512 37.6381 98 37.5 98L26.5 98C26.3619 98 26.2441 97.9512 26.1464 97.8536C26.0488 97.7559 26 97.6381 26 97.5L26 97.5Z" id="Rectangle" fill="#FFE97E" fill-opacity="0" fill-rule="evenodd" stroke="none" />
    <path d="M31.352 106.317L31.352 105.317L28.789 105.317L28.789 106.317L31.352 106.317ZM33.934 108L34.809 108L34.809 102.363L33.938 102.363L32.453 103.41L32.453 104.3L33.867 103.3L33.933 103.3L33.934 108Z" id="Shape" fill="#DBD7D7" fill-rule="evenodd" stroke="none" />
    <path d="M13 101L13 100C13 99.7239 13.0976 99.4882 13.2929 99.2929C13.4882 99.0976 13.7239 99 14 99L24 99C24.2761 99 24.5118 99.0976 24.7071 99.2929C24.9024 99.4882 25 99.7239 25 100L25 110C25 110.276 24.9024 110.512 24.7071 110.707C24.5118 110.902 24.2761 111 24 111L14 111C13.7239 111 13.4882 110.902 13.2929 110.707C13.0976 110.512 13 110.276 13 110L13 101Z" id="Rectangle" fill="#E6E6FF" fill-opacity="0.2" fill-rule="evenodd" stroke="none" />
    <path d="M13 97.5C13 97.3619 13.0488 97.2441 13.1464 97.1464C13.2441 97.0488 13.3619 97 13.5 97L24.5 97C24.6381 97 24.7559 97.0488 24.8536 97.1464C24.9512 97.2441 25 97.3619 25 97.5C25 97.6381 24.9512 97.7559 24.8536 97.8536C24.7559 97.9512 24.6381 98 24.5 98L13.5 98C13.3619 98 13.2441 97.9512 13.1464 97.8536C13.0488 97.7559 13 97.6381 13 97.5L13 97.5Z" id="Rectangle" fill="#E6E6FF" fill-opacity="0.2" fill-rule="evenodd" stroke="none" />
    <path d="M13 97.5C13 97.3619 13.0488 97.2441 13.1464 97.1464C13.2441 97.0488 13.3619 97 13.5 97L24.5 97C24.6381 97 24.7559 97.0488 24.8536 97.1464C24.9512 97.2441 25 97.3619 25 97.5C25 97.6381 24.9512 97.7559 24.8536 97.8536C24.7559 97.9512 24.6381 98 24.5 98L13.5 98C13.3619 98 13.2441 97.9512 13.1464 97.8536C13.0488 97.7559 13 97.6381 13 97.5L13 97.5Z" id="Rectangle" fill="#FFE97E" fill-opacity="0" fill-rule="evenodd" stroke="none" />
    <path d="M17.811 106.317L17.811 105.317L15.248 105.317L15.248 106.317L17.811 106.317ZM18.994 103.992L18.994 104L19.822 104L19.822 103.988C19.8116 103.712 19.919 103.446 20.1173 103.254C20.3155 103.062 20.586 102.964 20.861 102.984C21.1171 102.963 21.3706 103.047 21.5635 103.217C21.7564 103.387 21.8721 103.627 21.884 103.884C21.884 104.298 21.7 104.595 20.947 105.384L19.041 107.367L19.041 108L22.841 108L22.841 107.215L20.26 107.215L20.26 107.148L21.514 105.878C22.459 104.921 22.748 104.433 22.748 103.835C22.725 103.371 22.5133 102.937 22.1622 102.634C21.8111 102.33 21.3511 102.183 20.889 102.227C20.3983 102.189 19.914 102.358 19.5538 102.693C19.1936 103.029 18.9905 103.5 18.994 103.992L18.994 103.992Z" id="Shape" fill="#DBD7D7" fill-rule="evenodd" stroke="none" />
    <path d="M0 101L0 100C0 99.7239 0.0976311 99.4882 0.292893 99.2929C0.488155 99.0976 0.723858 99 1 99L11 99C11.2761 99 11.5118 99.0976 11.7071 99.2929C11.9024 99.4882 12 99.7239 12 100L12 110C12 110.276 11.9024 110.512 11.7071 110.707C11.5118 110.902 11.2761 111 11 111L1 111C0.723858 111 0.488155 110.902 0.292893 110.707C0.0976311 110.512 0 110.276 0 110L0 101Z" id="Rectangle" fill="#E6E6FF" fill-opacity="0.2" fill-rule="evenodd" stroke="none" />
    <path d="M0 97.5C0 97.3619 0.0488155 97.2441 0.146447 97.1464C0.244078 97.0488 0.361929 97 0.5 97L11.5 97C11.6381 97 11.7559 97.0488 11.8536 97.1464C11.9512 97.2441 12 97.3619 12 97.5C12 97.6381 11.9512 97.7559 11.8536 97.8536C11.7559 97.9512 11.6381 98 11.5 98L0.5 98C0.361929 98 0.244078 97.9512 0.146447 97.8536C0.0488155 97.7559 0 97.6381 0 97.5L0 97.5Z" id="Rectangle" fill="#E6E6FF" fill-opacity="0.2" fill-rule="evenodd" stroke="none" />
    <path d="M0 97.5C0 97.3619 0.0488155 97.2441 0.146447 97.1464C0.244078 97.0488 0.361929 97 0.5 97L11.5 97C11.6381 97 11.7559 97.0488 11.8536 97.1464C11.9512 97.2441 12 97.3619 12 97.5C12 97.6381 11.9512 97.7559 11.8536 97.8536C11.7559 97.9512 11.6381 98 11.5 98L0.5 98C0.361929 98 0.244078 97.9512 0.146447 97.8536C0.0488155 97.7559 0 97.6381 0 97.5L0 97.5Z" id="Rectangle" fill="#FFE97E" fill-opacity="0" fill-rule="evenodd" stroke="none" />
    <path d="M4.715 106.317L4.715 105.317L2.152 105.317L2.152 106.317L4.715 106.317ZM7.176 105.469L7.887 105.469C8.625 105.469 9.087 105.832 9.087 106.414C9.087 106.969 8.603 107.363 7.915 107.363C7.227 107.363 6.758 107.016 6.7 106.469L5.86 106.469C5.8998 106.967 6.14131 107.426 6.52847 107.741C6.91563 108.056 7.41476 108.199 7.91 108.137C8.40751 108.195 8.90734 108.05 9.29638 107.734C9.68543 107.419 9.93081 106.96 9.977 106.461C10.0116 105.741 9.45788 105.128 8.738 105.09L8.738 105.024C9.34764 104.897 9.77481 104.346 9.746 103.724C9.70251 103.279 9.48205 102.869 9.13406 102.588C8.78607 102.306 8.33968 102.176 7.895 102.227C7.4177 102.172 6.93923 102.319 6.57453 102.632C6.20983 102.944 5.99186 103.395 5.973 103.875L6.8 103.875C6.8167 103.612 6.94023 103.368 7.14183 103.199C7.34343 103.03 7.6055 102.951 7.867 102.98C8.48 102.98 8.883 103.324 8.883 103.847C8.87838 104.106 8.76482 104.352 8.57016 104.523C8.37549 104.694 8.11771 104.775 7.86 104.747L7.176 104.747L7.176 105.469Z" id="Shape" fill="#DBD7D7" fill-rule="evenodd" stroke="none" />
  </g>
</svg>