<?xml version="1.0" encoding="utf-8"?>
<svg width="22px" height="306px" viewBox="0 0 22 306" version="1.1" xmlns:xlink="http://www.w3.org/1999/xlink" xmlns="http://www.w3.org/2000/svg">
  <defs>
    <linearGradient x1="10.836073" y1="13.985309" x2="11.046721" y2="0.22037914" id="gradient_1">
      <stop offset="0" stop-color="#FFFFFF" stop-opacity="0.19215687" />
      <stop offset="1" stop-color="#000000" stop-opacity="0" />
    </linearGradient>
    <linearGradient x1="0.55891436" y1="-0.025118485" x2="0.5563919" y2="0.9988693" id="gradient_2">
      <stop offset="0" stop-color="#372E2C" />
      <stop offset="0.176" stop-color="#5B4A45" />
      <stop offset="1" stop-color="#5B4A44" />
    </linearGradient>
    <linearGradient x1="0.54009783" y1="0.9944823" x2="0.5396201" y2="0.34408063" id="gradient_3">
      <stop offset="0" stop-color="#E3DEDB" stop-opacity="0.21568628" />
      <stop offset="1" stop-color="#2A2A2A" stop-opacity="0.6392157" />
    </linearGradient>
    <path d="M0 0L22 0L22 306L0 306L0 0Z" id="path_1" />
    <rect width="22" height="306" id="artboard_1" />
    <clipPath id="clip_1">
      <use xlink:href="#artboard_1" clip-rule="evenodd" />
    </clipPath>
    <clipPath id="mask_1">
      <use xlink:href="#path_1" />
    </clipPath>
  </defs>
  <g id="bmp00160" clip-path="url(#clip_1)">
    <path d="M0 0L22 0L22 306L0 306L0 0Z" id="Background" fill="none" fill-rule="evenodd" stroke="none" />
    <g clip-path="url(#mask_1)">
      <path d="M0.727016 95.6131L0.727016 93.8065C0.727016 93.3077 0.861413 92.8819 1.1302 92.5291C1.399 92.1764 1.72346 92 2.10358 92L19.8449 92C20.2241 92 20.5494 92.1764 20.8179 92.5291C21.0863 92.8819 21.221 93.3077 21.221 93.8066L21.221 104.748C21.158 105.825 20.6543 106.234 19.8449 106.554L2.10358 106.554C1.07156 106.359 0.899189 105.587 0.727017 104.748L0.727016 95.6131Z" id="path1070" fill="url(#gradient_1)" fill-rule="evenodd" stroke="none" />
      <path d="M0.727016 77.6131L0.727016 75.8065C0.727016 75.3077 0.861413 74.8819 1.1302 74.5291C1.399 74.1764 1.72346 74 2.10358 74L19.8449 74C20.2241 74 20.5494 74.1764 20.8179 74.5291C21.0863 74.8819 21.221 75.3077 21.221 75.8066L21.221 86.7477C21.158 87.8255 20.6543 88.2337 19.8449 88.5542L2.10358 88.5542C1.07156 88.3586 0.899189 87.5867 0.727016 86.7476L0.727016 77.6131Z" id="path1066" fill="url(#gradient_1)" fill-rule="evenodd" stroke="none" />
      <path d="M0.727016 59.6131L0.727016 57.8065C0.727016 57.3077 0.861413 56.8819 1.1302 56.5291C1.399 56.1764 1.72346 56 2.10358 56L19.8449 56C20.2241 56 20.5494 56.1764 20.8179 56.5291C21.0863 56.8819 21.221 57.3077 21.221 57.8066L21.221 68.7476C21.158 69.8255 20.6543 70.2337 19.8449 70.5542L2.10358 70.5542C1.07156 70.3586 0.899189 69.5867 0.727016 68.7476L0.727016 59.6131Z" id="path1062" fill="url(#gradient_1)" fill-rule="evenodd" stroke="none" />
      <path d="M0.727016 41.6131L0.727016 39.8065C0.727016 39.3077 0.861413 38.8819 1.1302 38.5291C1.399 38.1764 1.72346 38 2.10358 38L19.8449 38C20.2241 38 20.5494 38.1764 20.8179 38.5291C21.0863 38.8819 21.221 39.3077 21.221 39.8066L21.221 50.7476C21.158 51.8255 20.6543 52.2337 19.8449 52.5542L2.10358 52.5542C1.07156 52.3586 0.899189 51.5867 0.727016 50.7476L0.727016 41.6131Z" id="path1058" fill="url(#gradient_1)" fill-rule="evenodd" stroke="none" />
      <path d="M0.727016 23.6131L0.727016 21.8066C0.727016 21.3077 0.861413 20.8819 1.1302 20.5291C1.399 20.1764 1.72346 20 2.10358 20L19.8449 20C20.2241 20 20.5494 20.1764 20.8179 20.5291C21.0863 20.8819 21.221 21.3077 21.221 21.8066L21.221 32.7476C21.158 33.8255 20.6543 34.2337 19.8449 34.5542L2.10358 34.5542C1.07156 34.3586 0.899189 33.5867 0.727016 32.7476L0.727016 23.6131Z" id="path1054" fill="url(#gradient_1)" fill-rule="evenodd" stroke="none" />
      <path d="M1 96.5609L1 94.2805C1 93.6507 1.17951 93.1132 1.53853 92.6679C1.89755 92.2226 2.33093 92 2.83866 92L19.1613 92C19.6687 92 20.1024 92.2226 20.4614 92.6679C20.8205 93.1132 21 93.6507 21 94.2805L21 103.72C21 104.349 20.8205 104.887 20.4614 105.332C20.1024 105.777 19.6687 106 19.1613 106L2.83866 106C2.33093 106 1.89755 105.777 1.53853 105.332C1.17951 104.887 1 104.349 1 103.72L1 96.5609Z" id="path1046" fill="url(#gradient_2)" fill-rule="evenodd" stroke="none" />
      <path d="M1 78.5609L1 76.2805C1 75.6507 1.17951 75.1132 1.53853 74.6679C1.89755 74.2226 2.33093 74 2.83866 74L19.1613 74C19.6687 74 20.1024 74.2226 20.4614 74.6679C20.8205 75.1132 21 75.6507 21 76.2805L21 85.7195C21 86.3492 20.8205 86.8868 20.4614 87.3321C20.1024 87.7774 19.6687 88 19.1613 88L2.83866 88C2.33093 88 1.89755 87.7774 1.53853 87.3321C1.17951 86.8867 1 86.3492 1 85.7195L1 78.5609Z" id="path1042" fill="url(#gradient_2)" fill-rule="evenodd" stroke="none" />
      <path d="M1 60.5609L1 58.2805C1 57.6507 1.17951 57.1132 1.53853 56.6679C1.89755 56.2226 2.33093 56 2.83866 56L19.1613 56C19.6687 56 20.1024 56.2226 20.4614 56.6679C20.8205 57.1132 21 57.6507 21 58.2805L21 67.7195C21 68.3492 20.8205 68.8867 20.4614 69.3321C20.1024 69.7774 19.6687 70 19.1613 70L2.83866 70C2.33093 70 1.89755 69.7774 1.53853 69.3321C1.17951 68.8867 1 68.3492 1 67.7195L1 60.5609Z" id="path1038" fill="url(#gradient_2)" fill-rule="evenodd" stroke="none" />
      <path d="M1 42.5609L1 40.2805C1 39.6507 1.17951 39.1132 1.53853 38.6679C1.89755 38.2226 2.33093 38 2.83866 38L19.1613 38C19.6687 38 20.1024 38.2226 20.4614 38.6679C20.8205 39.1132 21 39.6507 21 40.2805L21 49.7195C21 50.3492 20.8205 50.8867 20.4614 51.3321C20.1024 51.7774 19.6687 52 19.1613 52L2.83866 52C2.33093 52 1.89755 51.7774 1.53853 51.3321C1.17951 50.8867 1 50.3492 1 49.7195L1 42.5609Z" id="path1034" fill="url(#gradient_2)" fill-rule="evenodd" stroke="none" />
      <path d="M1 24.5609L1 22.2805C1 21.6507 1.17951 21.1132 1.53853 20.6679C1.89755 20.2226 2.33093 20 2.83866 20L19.1613 20C19.6687 20 20.1024 20.2226 20.4614 20.6679C20.8205 21.1132 21 21.6507 21 22.2805L21 31.7195C21 32.3492 20.8205 32.8867 20.4614 33.3321C20.1024 33.7774 19.6687 34 19.1613 34L2.83866 34C2.33093 34 1.89755 33.7774 1.53853 33.3321C1.17951 32.8867 1 32.3492 1 31.7195L1 24.5609Z" id="path1030" fill="url(#gradient_2)" fill-rule="evenodd" stroke="none" />
      <path d="M0.39998 7.42857L0.39998 4.21429C0.39998 3.32669 0.270183 2.56907 0.809291 1.94144C1.3484 1.31381 1.99916 1 2.76158 1L103.076 1C103.838 1 104.489 1.31381 105.028 1.94144C105.567 2.56907 105.338 3.32669 105.338 4.21429L105.338 12.3858C105.338 13.2734 105.567 14.4309 105.028 15.0586C104.489 15.6862 103.838 15.6001 103.076 15.6001L2.76158 15.6001C1.99916 15.6001 1.3484 15.6862 0.809291 15.0586C0.270183 14.4309 0.39998 13.2734 0.39998 12.3858L0.39998 7.42857Z" id="Rectangle" fill="url(#gradient_3)" fill-opacity="0" fill-rule="evenodd" stroke="none" />
      <path d="M1.50127 23.8235L1.50127 22.1624C1.50127 21.7037 1.63462 21.3121 1.90131 20.9878C2.16801 20.6634 2.48993 20.5013 2.86709 20.5013L19.1334 20.5013C19.5096 20.5013 19.8324 20.6634 20.0987 20.9878C20.3651 21.3121 20.4987 21.7037 20.4987 22.1624L20.4987 31.8376C20.4987 32.2963 20.3651 32.6878 20.0987 33.0122C19.8324 33.3365 19.5096 33.4987 19.1334 33.4987L2.86709 33.4987C2.48993 33.4987 2.16801 33.3365 1.90131 33.0122C1.63462 32.6878 1.50127 32.2963 1.50127 31.8376L1.50127 23.8235Z" id="path1011" fill="none" fill-rule="evenodd" stroke="#0C0706" stroke-width="1.00254" />
      <path d="M1.50127 41.8235L1.50127 40.1624C1.50127 39.7037 1.63462 39.3121 1.90131 38.9878C2.16801 38.6634 2.48993 38.5013 2.86709 38.5013L19.1334 38.5013C19.5096 38.5013 19.8324 38.6634 20.0987 38.9878C20.3651 39.3121 20.4987 39.7037 20.4987 40.1624L20.4987 49.8376C20.4987 50.2963 20.3651 50.6878 20.0987 51.0122C19.8324 51.3365 19.5096 51.4987 19.1334 51.4987L2.86709 51.4987C2.48993 51.4987 2.16801 51.3365 1.90131 51.0122C1.63462 50.6878 1.50127 50.2963 1.50127 49.8376L1.50127 41.8235Z" id="path1020" fill="none" fill-rule="evenodd" stroke="#0C0706" stroke-width="1.00254" />
      <path d="M1.50127 59.8235L1.50127 58.1624C1.50127 57.7037 1.63462 57.3121 1.90131 56.9878C2.16801 56.6634 2.48993 56.5013 2.86709 56.5013L19.1334 56.5013C19.5096 56.5013 19.8324 56.6634 20.0987 56.9878C20.3651 57.3121 20.4987 57.7037 20.4987 58.1624L20.4987 67.8376C20.4987 68.2963 20.3651 68.6879 20.0987 69.0122C19.8324 69.3365 19.5096 69.4987 19.1334 69.4987L2.86709 69.4987C2.48993 69.4987 2.16801 69.3365 1.90131 69.0122C1.63462 68.6878 1.50127 68.2963 1.50127 67.8376L1.50127 59.8235Z" id="path1022" fill="none" fill-rule="evenodd" stroke="#0C0706" stroke-width="1.00254" />
      <path d="M1.50127 77.8235L1.50127 76.1624C1.50127 75.7037 1.63462 75.3122 1.90131 74.9878C2.16801 74.6634 2.48993 74.5013 2.86709 74.5013L19.1334 74.5013C19.5096 74.5013 19.8324 74.6634 20.0987 74.9878C20.3651 75.3121 20.4987 75.7037 20.4987 76.1624L20.4987 85.8376C20.4987 86.2963 20.3651 86.6878 20.0987 87.0122C19.8324 87.3365 19.5096 87.4987 19.1334 87.4987L2.86709 87.4987C2.48993 87.4987 2.16801 87.3365 1.90131 87.0122C1.63462 86.6878 1.50127 86.2963 1.50127 85.8376L1.50127 77.8235Z" id="path1024" fill="none" fill-rule="evenodd" stroke="#0C0706" stroke-width="1.00254" />
      <path d="M1.50127 95.8235L1.50127 94.1624C1.50127 93.7037 1.63462 93.3122 1.90131 92.9878C2.16801 92.6634 2.48993 92.5013 2.86709 92.5013L19.1334 92.5013C19.5096 92.5013 19.8324 92.6634 20.0987 92.9878C20.3651 93.3121 20.4987 93.7037 20.4987 94.1624L20.4987 103.838C20.4987 104.296 20.3651 104.688 20.0987 105.012C19.8324 105.337 19.5096 105.499 19.1334 105.499L2.86709 105.499C2.48993 105.499 2.16801 105.337 1.90131 105.012C1.63462 104.688 1.50127 104.296 1.50127 103.838L1.50127 95.8235Z" id="path1026" fill="none" fill-rule="evenodd" stroke="#0C0706" stroke-width="1.00254" />
      <path d="M10.9273 30.1879L11.8883 30.1879L11.8883 24L10.931 24L9.3 25.1493L9.3 26.1316L10.852 25.0338L10.9248 25.0338L10.9273 30.1879Z" id="path30" fill="#DBD7D7" fill-rule="evenodd" stroke="none" />
      <path d="M9.10005 43.699L9.10005 43.7106L9.94023 43.7106L9.94023 43.699C9.92862 43.419 10.037 43.1473 10.2381 42.9521C10.4393 42.7569 10.7141 42.6568 10.9936 42.6769C11.2547 42.6542 11.5137 42.7391 11.7106 42.9119C11.9075 43.0848 12.0253 43.3306 12.0366 43.5924C12.0366 44.0119 11.8501 44.3132 11.0864 45.1093L9.14756 47.1211L9.14756 47.7631L12.9973 47.7631L12.9973 46.967L10.3841 46.967L10.3841 46.8998L11.6588 45.6123C12.6172 44.6423 12.9104 44.1463 12.9104 43.5402C12.8886 43.0687 12.6739 42.6269 12.3167 42.3183C11.9595 42.0098 11.4911 41.8616 11.0215 41.9085C10.5237 41.8696 10.0325 42.0411 9.66725 42.3815C9.30201 42.7218 9.09625 43.1998 9.10005 43.699L9.10005 43.699Z" id="path42" fill="#DBD7D7" fill-rule="evenodd" stroke="none" />
      <path d="M10.3436 63.2245L11.071 63.2245C11.8264 63.2245 12.2942 63.5964 12.2942 64.1916C12.2942 64.7588 11.7984 65.1634 11.0955 65.1634C10.3927 65.1634 9.91563 64.8079 9.86418 64.2477L9 64.2477C9.04079 64.7562 9.28744 65.226 9.68283 65.5484C10.0782 65.8707 10.5881 66.0176 11.0944 65.9551C11.6036 66.0146 12.1154 65.866 12.5136 65.5431C12.9118 65.2201 13.1629 64.7501 13.2098 64.2396C13.2456 63.503 12.6797 62.876 11.9434 62.8363L11.9434 62.7743C12.5691 62.6438 13.0066 62.0772 12.9748 61.4389C12.9292 60.9838 12.7031 60.566 12.3471 60.2789C11.991 59.9919 11.5347 59.8596 11.0803 59.9116C10.5923 59.8553 10.1028 60.0047 9.72945 60.324C9.35605 60.6432 9.13243 61.1035 9.11226 61.5944L9.96358 61.5944C9.98085 61.3266 10.1067 61.0774 10.312 60.9046C10.5173 60.7317 10.7843 60.6502 11.0511 60.6788C11.6791 60.6788 12.0907 61.0296 12.0907 61.5663C12.0856 61.8324 11.9683 62.0839 11.7679 62.2589C11.5675 62.4339 11.3025 62.5162 11.0383 62.4855L10.3366 62.4855L10.3436 63.2245Z" id="path54" fill="#DBD7D7" fill-rule="evenodd" stroke="none" />
      <path d="M11.6354 83.9268L12.5073 83.9268L12.5073 82.7997L13.3107 82.7997L13.3107 81.9916L12.5073 81.9916L12.5073 78.1L11.2231 78.1C10.1846 79.6548 9.31628 81.0075 8.8 81.9597L8.8 82.7997L11.6354 82.7997L11.6354 83.9268ZM9.66362 81.9562C10.35 80.7653 11.0211 79.7315 11.5988 78.8951L11.6508 78.8951L11.6508 82.0129L9.66362 82.0129L9.66362 81.9562Z" id="path66" fill="#DBD7D7" fill-rule="evenodd" stroke="none" />
      <path d="M11.301 101.978C11.8501 102.019 12.3907 101.824 12.7871 101.442C13.1835 101.06 13.3983 100.526 13.3776 99.9762C13.4074 99.4692 13.2234 98.973 12.8703 98.608C12.5173 98.243 12.0274 98.0426 11.5198 98.0555C11.0548 98.0252 10.6036 98.2201 10.3069 98.5794L10.2394 98.5794L10.3907 96.8962L13.0446 96.8962L13.0446 96.1L9.69344 96.1L9.38963 99.3837L10.2044 99.3837C10.4424 99.0009 10.8681 98.7758 11.3184 98.7947C11.6414 98.7806 11.9553 98.9042 12.1819 99.1348C12.4085 99.3654 12.5267 99.6814 12.5069 100.004C12.5252 100.326 12.4046 100.641 12.1756 100.868C11.9466 101.096 11.6312 101.214 11.3091 101.194C10.7353 101.242 10.2241 100.833 10.1451 100.263L9.3 100.263C9.33192 100.758 9.56231 101.219 9.93898 101.542C10.3157 101.865 10.8067 102.022 11.301 101.978L11.301 101.978Z" id="path78" fill="#DBD7D7" fill-rule="evenodd" stroke="none" />
      <g id="g10362" transform="translate(0.72701645 110)">
        <path d="M0 3.61311L0 1.80656C0 1.30769 0.134396 0.881889 0.403188 0.529137C0.671979 0.176376 0.99644 0 1.37656 0L19.1179 0C19.4971 0 19.8224 0.176376 20.0908 0.529129C20.3593 0.881882 20.494 1.30769 20.494 1.80655L20.494 12.7476C20.431 13.8255 19.9273 14.2337 19.1179 14.5542L1.37656 14.5542C0.344544 14.3586 0.172173 13.5867 1.19209e-07 12.7476L0 3.61311Z" id="path1074" fill="url(#gradient_1)" fill-rule="evenodd" stroke="none" />
        <path d="M0.272984 4.56091L0.272984 2.28046C0.272984 1.65073 0.452493 1.11323 0.811514 0.667931C1.17053 0.222641 1.60391 0 2.11164 0L18.4343 0C18.9416 0 19.3753 0.222641 19.7344 0.667931C20.0934 1.11322 20.273 1.65073 20.273 2.28046L20.273 11.7195C20.273 12.3492 20.0934 12.8867 19.7344 13.3321C19.3753 13.7774 18.9416 14 18.4343 14L2.11164 14C1.60391 14 1.17053 13.7774 0.811514 13.3321C0.452493 12.8868 0.272984 12.3492 0.272984 11.7195L0.272984 4.56091Z" id="path1050" fill="url(#gradient_2)" fill-rule="evenodd" stroke="none" />
        <path d="M0.774254 3.8235L0.774254 2.16238C0.774254 1.70368 0.907601 1.31216 1.1743 0.987801C1.44099 0.663452 1.76292 0.501274 2.14008 0.501274L18.4063 0.501274C18.7826 0.501274 19.1054 0.663452 19.3717 0.987801C19.638 1.31215 19.7717 1.70368 19.7717 2.16238L19.7717 11.8376C19.7717 12.2963 19.638 12.6879 19.3717 13.0122C19.1054 13.3365 18.7826 13.4987 18.4063 13.4987L2.14008 13.4987C1.76292 13.4987 1.44099 13.3365 1.1743 13.0122C0.907601 12.6879 0.774254 12.2963 0.774254 11.8376L0.774254 3.8235Z" id="path1028" fill="none" fill-rule="evenodd" stroke="#0C0706" stroke-width="1.00254" />
        <path d="M10.5393 9.8975C11.0934 9.93015 11.6361 9.72987 12.0361 9.34501C12.4362 8.96014 12.6574 8.42569 12.6462 7.87066C12.6676 7.35554 12.4744 6.85463 12.1125 6.4874C11.7506 6.12018 11.2526 5.91956 10.7372 5.93339C10.0986 5.90011 9.49948 6.24344 9.20532 6.81129L9.14169 6.81129C9.16172 5.41371 9.67786 4.60416 10.5711 4.60416C11.0648 4.58041 11.5113 4.89573 11.654 5.36894L12.5602 5.36894C12.3898 4.42181 11.5402 3.75017 10.5793 3.80285C9.12519 3.80285 8.27557 4.95532 8.27557 6.92795C8.25334 7.5367 8.37444 8.14215 8.62909 8.69553C8.96323 9.44641 9.71774 9.92117 10.5393 9.89749L10.5393 9.8975ZM10.5311 9.10327C10.2052 9.10845 9.89125 8.98096 9.66126 8.75008C9.43126 8.5192 9.30499 8.20475 9.31143 7.87892C9.30583 7.55589 9.43431 7.24498 9.6663 7.02013C9.89829 6.79528 10.2131 6.67658 10.5358 6.69228C10.8605 6.6769 11.1768 6.79826 11.4079 7.0269C11.639 7.25554 11.7638 7.57055 11.7519 7.89542C11.7561 8.21931 11.6284 8.53099 11.3982 8.7588C11.1679 8.98663 10.8549 9.11098 10.5311 9.10326L10.5311 9.10327Z" id="path90" fill="#DBD7D7" fill-rule="evenodd" stroke="none" />
      </g>
      <path d="M0.727016 131.613L0.727016 129.807C0.727016 129.308 0.861413 128.882 1.1302 128.529C1.399 128.176 1.72346 128 2.10358 128L19.8449 128C20.2241 128 20.5494 128.176 20.8179 128.529C21.0863 128.882 21.221 129.308 21.221 129.807L21.221 140.748C21.158 141.825 20.6543 142.234 19.8449 142.554L2.10358 142.554C1.07156 142.359 0.899189 141.587 0.727017 140.748L0.727016 131.613Z" id="path10364" fill="url(#gradient_1)" fill-rule="evenodd" stroke="none" />
      <path d="M1 132.561L1 130.28C1 129.651 1.17951 129.113 1.53853 128.668C1.89755 128.223 2.33093 128 2.83866 128L19.1613 128C19.6687 128 20.1024 128.223 20.4614 128.668C20.8205 129.113 21 129.651 21 130.28L21 139.72C21 140.349 20.8205 140.887 20.4614 141.332C20.1024 141.777 19.6687 142 19.1613 142L2.83866 142C2.33093 142 1.89755 141.777 1.53853 141.332C1.17951 140.887 1 140.349 1 139.72L1 132.561Z" id="path10366" fill="url(#gradient_2)" fill-rule="evenodd" stroke="none" />
      <path d="M1.50127 131.824L1.50127 130.162C1.50127 129.704 1.63462 129.312 1.90131 128.988C2.16801 128.663 2.48993 128.501 2.86709 128.501L19.1334 128.501C19.5096 128.501 19.8324 128.663 20.0987 128.988C20.3651 129.312 20.4987 129.704 20.4987 130.162L20.4987 139.838C20.4987 140.296 20.3651 140.688 20.0987 141.012C19.8324 141.337 19.5096 141.499 19.1334 141.499L2.86709 141.499C2.48993 141.499 2.16801 141.337 1.90131 141.012C1.63462 140.688 1.50127 140.296 1.50127 139.838L1.50127 131.824Z" id="path10368" fill="none" fill-rule="evenodd" stroke="#0C0706" stroke-width="1.00254" />
      <path d="M0.727016 149.613L0.727016 147.807C0.727016 147.308 0.861413 146.882 1.1302 146.529C1.399 146.176 1.72346 146 2.10358 146L19.8449 146C20.2241 146 20.5494 146.176 20.8179 146.529C21.0863 146.882 21.221 147.308 21.221 147.807L21.221 158.748C21.158 159.825 20.6543 160.234 19.8449 160.554L2.10358 160.554C1.07156 160.359 0.899189 159.587 0.727017 158.748L0.727016 149.613Z" id="path10378" fill="url(#gradient_1)" fill-rule="evenodd" stroke="none" />
      <path d="M1 150.561L1 148.28C1 147.651 1.17951 147.113 1.53853 146.668C1.89755 146.223 2.33093 146 2.83866 146L19.1613 146C19.6687 146 20.1024 146.223 20.4614 146.668C20.8205 147.113 21 147.651 21 148.28L21 157.72C21 158.349 20.8205 158.887 20.4614 159.332C20.1024 159.777 19.6687 160 19.1613 160L2.83866 160C2.33093 160 1.89755 159.777 1.53853 159.332C1.17951 158.887 1 158.349 1 157.72L1 150.561Z" id="path10380" fill="url(#gradient_2)" fill-rule="evenodd" stroke="none" />
      <path d="M1.50127 149.824L1.50127 148.162C1.50127 147.704 1.63462 147.312 1.90131 146.988C2.16801 146.663 2.48993 146.501 2.86709 146.501L19.1334 146.501C19.5096 146.501 19.8324 146.663 20.0987 146.988C20.3651 147.312 20.4987 147.704 20.4987 148.162L20.4987 157.838C20.4987 158.296 20.3651 158.688 20.0987 159.012C19.8324 159.337 19.5096 159.499 19.1334 159.499L2.86709 159.499C2.48993 159.499 2.16801 159.337 1.90131 159.012C1.63462 158.688 1.50127 158.296 1.50127 157.838L1.50127 149.824Z" id="path10382" fill="none" fill-rule="evenodd" stroke="#0C0706" stroke-width="1.00254" />
      <path d="M0.727016 167.613L0.727016 165.807C0.727016 165.308 0.861413 164.882 1.1302 164.529C1.399 164.176 1.72346 164 2.10358 164L19.8449 164C20.2241 164 20.5494 164.176 20.8179 164.529C21.0863 164.882 21.221 165.308 21.221 165.807L21.221 176.748C21.158 177.825 20.6543 178.234 19.8449 178.554L2.10358 178.554C1.07156 178.359 0.899189 177.587 0.727017 176.748L0.727016 167.613Z" id="path10392" fill="url(#gradient_1)" fill-rule="evenodd" stroke="none" />
      <path d="M1 168.561L1 166.28C1 165.651 1.17951 165.113 1.53853 164.668C1.89755 164.223 2.33093 164 2.83866 164L19.1613 164C19.6687 164 20.1024 164.223 20.4614 164.668C20.8205 165.113 21 165.651 21 166.28L21 175.72C21 176.349 20.8205 176.887 20.4614 177.332C20.1024 177.777 19.6687 178 19.1613 178L2.83866 178C2.33093 178 1.89755 177.777 1.53853 177.332C1.17951 176.887 1 176.349 1 175.72L1 168.561Z" id="path10394" fill="url(#gradient_2)" fill-rule="evenodd" stroke="none" />
      <path d="M1.50127 167.824L1.50127 166.162C1.50127 165.704 1.63462 165.312 1.90131 164.988C2.16801 164.663 2.48993 164.501 2.86709 164.501L19.1334 164.501C19.5096 164.501 19.8324 164.663 20.0987 164.988C20.3651 165.312 20.4987 165.704 20.4987 166.162L20.4987 175.838C20.4987 176.296 20.3651 176.688 20.0987 177.012C19.8324 177.337 19.5096 177.499 19.1334 177.499L2.86709 177.499C2.48993 177.499 2.16801 177.337 1.90131 177.012C1.63462 176.688 1.50127 176.296 1.50127 175.838L1.50127 167.824Z" id="path10396" fill="none" fill-rule="evenodd" stroke="#0C0706" stroke-width="1.00254" />
      <path d="M0.727016 185.613L0.727016 183.807C0.727016 183.308 0.861413 182.882 1.1302 182.529C1.399 182.176 1.72346 182 2.10358 182L19.8449 182C20.2241 182 20.5494 182.176 20.8179 182.529C21.0863 182.882 21.221 183.308 21.221 183.807L21.221 194.748C21.158 195.825 20.6543 196.234 19.8449 196.554L2.10358 196.554C1.07156 196.359 0.899189 195.587 0.727017 194.748L0.727016 185.613Z" id="path10406" fill="url(#gradient_1)" fill-rule="evenodd" stroke="none" />
      <path d="M1 186.561L1 184.28C1 183.651 1.17951 183.113 1.53853 182.668C1.89755 182.223 2.33093 182 2.83866 182L19.1613 182C19.6687 182 20.1024 182.223 20.4614 182.668C20.8205 183.113 21 183.651 21 184.28L21 193.72C21 194.349 20.8205 194.887 20.4614 195.332C20.1024 195.777 19.6687 196 19.1613 196L2.83866 196C2.33093 196 1.89755 195.777 1.53853 195.332C1.17951 194.887 1 194.349 1 193.72L1 186.561Z" id="path10408" fill="url(#gradient_2)" fill-rule="evenodd" stroke="none" />
      <path d="M1.50127 185.824L1.50127 184.162C1.50127 183.704 1.63462 183.312 1.90131 182.988C2.16801 182.663 2.48993 182.501 2.86709 182.501L19.1334 182.501C19.5096 182.501 19.8324 182.663 20.0987 182.988C20.3651 183.312 20.4987 183.704 20.4987 184.162L20.4987 193.838C20.4987 194.296 20.3651 194.688 20.0987 195.012C19.8324 195.337 19.5096 195.499 19.1334 195.499L2.86709 195.499C2.48993 195.499 2.16801 195.337 1.90131 195.012C1.63462 194.688 1.50127 194.296 1.50127 193.838L1.50127 185.824Z" id="path10410" fill="none" fill-rule="evenodd" stroke="#0C0706" stroke-width="1.00254" />
      <g id="text10618" transform="translate(6.7032394 185.81487)">
        <path d="M1.55449 6.0621L1.55449 1.13202L1.48477 1.13202L0 2.18202L0 1.24277L1.55859 0.143555L2.47324 0.143555L2.47324 6.06212L1.55449 6.0621Z" id="path10681" fill="#DBD7D7" fill-rule="evenodd" stroke="none" />
        <path d="M6.28359 6.20566C5.5918 6.20566 5.05312 5.93359 4.66758 5.38945C4.28476 4.84531 4.09336 4.08105 4.09336 3.09668C4.09336 2.1205 4.28613 1.36035 4.67168 0.816208C5.05723 0.272064 5.59453 0 6.28359 0C6.96719 0 7.50176 0.273438 7.8873 0.820313C8.27285 1.36446 8.46562 2.12598 8.46562 3.10489C8.46562 4.08653 8.27422 4.84941 7.89141 5.39356C7.50859 5.93495 6.97266 6.20566 6.28359 6.20566L6.28359 6.20566ZM5.34844 4.80702C5.56719 5.20351 5.87891 5.40175 6.28359 5.40175C6.68828 5.40175 6.99863 5.20486 7.21465 4.81111C7.43066 4.41463 7.53867 3.84314 7.53867 3.09666C7.53867 2.35838 7.4293 1.79237 7.21055 1.39862C6.9918 1.00214 6.68281 0.803894 6.28359 0.803894C5.88437 0.803894 5.57402 1.00214 5.35254 1.39862C5.13105 1.7951 5.02031 2.36111 5.02031 3.09666C5.02031 3.84041 5.12969 4.41052 5.34844 4.80702L5.34844 4.80702Z" id="path10683" fill="#DBD7D7" fill-rule="evenodd" stroke="none" />
      </g>
      <path d="M0.727016 203.613L0.727016 201.807C0.727016 201.308 0.861413 200.882 1.1302 200.529C1.399 200.176 1.72346 200 2.10358 200L19.8449 200C20.2241 200 20.5494 200.176 20.8179 200.529C21.0863 200.882 21.221 201.308 21.221 201.807L21.221 212.748C21.158 213.825 20.6543 214.234 19.8449 214.554L2.10358 214.554C1.07156 214.359 0.899189 213.587 0.727017 212.748L0.727016 203.613Z" id="path10420" fill="url(#gradient_1)" fill-rule="evenodd" stroke="none" />
      <path d="M1 204.561L1 202.28C1 201.651 1.17951 201.113 1.53853 200.668C1.89755 200.223 2.33093 200 2.83866 200L19.1613 200C19.6687 200 20.1024 200.223 20.4614 200.668C20.8205 201.113 21 201.651 21 202.28L21 211.72C21 212.349 20.8205 212.887 20.4614 213.332C20.1024 213.777 19.6687 214 19.1613 214L2.83866 214C2.33093 214 1.89755 213.777 1.53853 213.332C1.17951 212.887 1 212.349 1 211.72L1 204.561Z" id="path10422" fill="url(#gradient_2)" fill-rule="evenodd" stroke="none" />
      <path d="M1.50127 203.824L1.50127 202.162C1.50127 201.704 1.63462 201.312 1.90131 200.988C2.16801 200.663 2.48993 200.501 2.86709 200.501L19.1334 200.501C19.5096 200.501 19.8324 200.663 20.0987 200.988C20.3651 201.312 20.4987 201.704 20.4987 202.162L20.4987 211.838C20.4987 212.296 20.3651 212.688 20.0987 213.012C19.8324 213.337 19.5096 213.499 19.1334 213.499L2.86709 213.499C2.48993 213.499 2.16801 213.337 1.90131 213.012C1.63462 212.688 1.50127 212.296 1.50127 211.838L1.50127 203.824Z" id="path10424" fill="none" fill-rule="evenodd" stroke="#0C0706" stroke-width="1.00254" />
      <g id="text10626" transform="translate(7.2716064 203.86195)">
        <path d="M1.55449 5.91856L1.55449 0.98848L1.48477 0.98848L0 2.03848L0 1.09923L1.55859 0L2.47324 0L2.47324 5.91856L1.55449 5.91856Z" id="path10686" fill="#DBD7D7" fill-rule="evenodd" stroke="none" />
        <path d="M5.61094 5.91856L5.61094 0.98848L5.54121 0.98848L4.05644 2.03848L4.05644 1.09923L5.61503 1.52588e-05L6.52968 1.52588e-05L6.52968 5.91858L5.61094 5.91856Z" id="path10688" fill="#DBD7D7" fill-rule="evenodd" stroke="none" />
      </g>
      <path d="M0.727016 221.613L0.727016 219.807C0.727016 219.308 0.861413 218.882 1.1302 218.529C1.399 218.176 1.72346 218 2.10358 218L19.8449 218C20.2241 218 20.5494 218.176 20.8179 218.529C21.0863 218.882 21.221 219.308 21.221 219.807L21.221 230.748C21.158 231.825 20.6543 232.234 19.8449 232.554L2.10358 232.554C1.07156 232.359 0.899189 231.587 0.727017 230.748L0.727016 221.613Z" id="path10434" fill="url(#gradient_1)" fill-rule="evenodd" stroke="none" />
      <path d="M1 222.561L1 220.28C1 219.651 1.17951 219.113 1.53853 218.668C1.89755 218.223 2.33093 218 2.83866 218L19.1613 218C19.6687 218 20.1024 218.223 20.4614 218.668C20.8205 219.113 21 219.651 21 220.28L21 229.72C21 230.349 20.8205 230.887 20.4614 231.332C20.1024 231.777 19.6687 232 19.1613 232L2.83866 232C2.33093 232 1.89755 231.777 1.53853 231.332C1.17951 230.887 1 230.349 1 229.72L1 222.561Z" id="path10436" fill="url(#gradient_2)" fill-rule="evenodd" stroke="none" />
      <path d="M1.50127 221.824L1.50127 220.162C1.50127 219.704 1.63462 219.312 1.90131 218.988C2.16801 218.663 2.48993 218.501 2.86709 218.501L19.1334 218.501C19.5096 218.501 19.8324 218.663 20.0987 218.988C20.3651 219.312 20.4987 219.704 20.4987 220.162L20.4987 229.838C20.4987 230.296 20.3651 230.688 20.0987 231.012C19.8324 231.337 19.5096 231.499 19.1334 231.499L2.86709 231.499C2.48993 231.499 2.16801 231.337 1.90131 231.012C1.63462 230.688 1.50127 230.296 1.50127 229.838L1.50127 221.824Z" id="path10438" fill="none" fill-rule="evenodd" stroke="#0C0706" stroke-width="1.00254" />
      <g id="text10634" transform="translate(6.8630924 221.78181)">
        <path d="M1.55449 6.0621L1.55449 1.13202L1.48477 1.13202L0 2.18202L0 1.24277L1.55859 0.143555L2.47324 0.143555L2.47324 6.06212L1.55449 6.0621Z" id="path10691" fill="#DBD7D7" fill-rule="evenodd" stroke="none" />
        <path d="M4.14258 1.8539C4.14258 1.30975 4.32851 0.865433 4.70039 0.520905C5.07226 0.17363 5.54941 0 6.13183 0C6.69512 0 7.16133 0.159958 7.53047 0.479874C7.89961 0.799789 8.08418 1.20311 8.08418 1.68983C8.08418 2.00429 7.99121 2.31601 7.80527 2.625C7.62207 2.93124 7.28301 3.33456 6.78808 3.83496L5.47148 5.16797L5.47148 5.23767L8.17851 5.23767L8.17851 6.06209L4.1918 6.06209L4.1918 5.39763L6.19336 3.31404C6.58711 2.90389 6.84961 2.59489 6.98086 2.38708C7.11211 2.17653 7.17773 1.96188 7.17773 1.74313C7.17773 1.47243 7.07519 1.24684 6.87012 1.06638C6.66504 0.88591 6.40937 0.79567 6.10312 0.79567C5.77773 0.79567 5.51387 0.892746 5.31152 1.08688C5.11191 1.28102 5.01211 1.53668 5.01211 1.85387L5.01211 1.86617L4.14258 1.86617L4.14258 1.8539Z" id="path10693" fill="#DBD7D7" fill-rule="evenodd" stroke="none" />
      </g>
      <path d="M0.727016 239.613L0.727016 237.807C0.727016 237.308 0.861413 236.882 1.1302 236.529C1.399 236.176 1.72346 236 2.10358 236L19.8449 236C20.2241 236 20.5494 236.176 20.8179 236.529C21.0863 236.882 21.221 237.308 21.221 237.807L21.221 248.748C21.158 249.825 20.6543 250.234 19.8449 250.554L2.10358 250.554C1.07156 250.359 0.899189 249.587 0.727017 248.748L0.727016 239.613Z" id="path10448" fill="url(#gradient_1)" fill-rule="evenodd" stroke="none" />
      <path d="M1 240.561L1 238.28C1 237.651 1.17951 237.113 1.53853 236.668C1.89755 236.223 2.33093 236 2.83866 236L19.1613 236C19.6687 236 20.1024 236.223 20.4614 236.668C20.8205 237.113 21 237.651 21 238.28L21 247.72C21 248.349 20.8205 248.887 20.4614 249.332C20.1024 249.777 19.6687 250 19.1613 250L2.83866 250C2.33093 250 1.89755 249.777 1.53853 249.332C1.17951 248.887 1 248.349 1 247.72L1 240.561Z" id="path10450" fill="url(#gradient_2)" fill-rule="evenodd" stroke="none" />
      <path d="M1.50127 239.824L1.50127 238.162C1.50127 237.704 1.63462 237.312 1.90131 236.988C2.16801 236.663 2.48993 236.501 2.86709 236.501L19.1334 236.501C19.5096 236.501 19.8324 236.663 20.0987 236.988C20.3651 237.312 20.4987 237.704 20.4987 238.162L20.4987 247.838C20.4987 248.296 20.3651 248.688 20.0987 249.012C19.8324 249.337 19.5096 249.499 19.1334 249.499L2.86709 249.499C2.48993 249.499 2.16801 249.337 1.90131 249.012C1.63462 248.688 1.50127 248.296 1.50127 247.838L1.50127 239.824Z" id="path10452" fill="none" fill-rule="evenodd" stroke="#0C0706" stroke-width="1.00254" />
      <g id="text10642" transform="translate(6.7210007 239.82747)">
        <path d="M1.55449 6.0621L1.55449 1.13202L1.48477 1.13202L0 2.18202L0 1.24277L1.55859 0.143539L2.47324 0.143539L2.47324 6.0621L1.55449 6.0621Z" id="path10696" fill="#DBD7D7" fill-rule="evenodd" stroke="none" />
        <path d="M5.48379 3.40428L5.48379 2.64551L6.20156 2.64551C6.51875 2.64551 6.77715 2.55801 6.97676 2.38301C7.17637 2.20801 7.27617 1.98106 7.27617 1.70215C7.27617 1.42598 7.1791 1.20586 6.98496 1.04179C6.79082 0.875 6.53242 0.791611 6.20976 0.791611C5.88711 0.791611 5.62598 0.875 5.42637 1.04179C5.22949 1.20859 5.11875 1.43828 5.09414 1.73087L4.22051 1.73087C4.25059 1.19493 4.4461 0.772461 4.80703 0.46347C5.16797 0.154495 5.64512 0 6.23848 0C6.78809 0 7.24883 0.150391 7.6207 0.451172C7.99531 0.749222 8.18262 1.12109 8.18262 1.56679C8.18262 1.91406 8.08692 2.21074 7.89551 2.45683C7.70684 2.70293 7.44981 2.86288 7.12441 2.93672L7.12441 3.00642C7.52637 3.05289 7.84355 3.20602 8.07598 3.46581C8.3084 3.72284 8.42461 4.04959 8.42461 4.44608C8.42461 4.77693 8.33027 5.07635 8.1416 5.34431C7.95293 5.61229 7.6918 5.82283 7.3582 5.97595C7.02734 6.12907 6.65957 6.20564 6.25488 6.20564C5.63418 6.20564 5.12695 6.04568 4.7332 5.72577C4.34219 5.40585 4.13301 4.98203 4.10566 4.45428L4.9875 4.45428C5.01758 4.74139 5.1461 4.96971 5.37305 5.13925C5.60274 5.30878 5.89668 5.39354 6.25488 5.39354C6.61582 5.39354 6.91113 5.30057 7.14082 5.11464C7.37051 4.9287 7.48535 4.68944 7.48535 4.39687C7.48535 4.09062 7.37324 3.84863 7.14902 3.6709C6.92481 3.49315 6.61856 3.40428 6.23027 3.40428L5.48379 3.40428Z" id="path10698" fill="#DBD7D7" fill-rule="evenodd" stroke="none" />
      </g>
      <path d="M0.727016 257.613L0.727016 255.807C0.727016 255.308 0.861413 254.882 1.1302 254.529C1.399 254.176 1.72346 254 2.10358 254L19.8449 254C20.2241 254 20.5494 254.176 20.8179 254.529C21.0863 254.882 21.221 255.308 21.221 255.807L21.221 266.748C21.158 267.826 20.6543 268.234 19.8449 268.554L2.10358 268.554C1.07156 268.359 0.899189 267.587 0.727017 266.748L0.727016 257.613Z" id="path10462" fill="url(#gradient_1)" fill-rule="evenodd" stroke="none" />
      <path d="M1 258.561L1 256.28C1 255.651 1.17951 255.113 1.53853 254.668C1.89755 254.223 2.33093 254 2.83866 254L19.1613 254C19.6687 254 20.1024 254.223 20.4614 254.668C20.8205 255.113 21 255.651 21 256.28L21 265.72C21 266.349 20.8205 266.887 20.4614 267.332C20.1024 267.777 19.6687 268 19.1613 268L2.83866 268C2.33093 268 1.89755 267.777 1.53853 267.332C1.17951 266.887 1 266.349 1 265.72L1 258.561Z" id="path10464" fill="url(#gradient_2)" fill-rule="evenodd" stroke="none" />
      <path d="M1.50127 257.823L1.50127 256.162C1.50127 255.704 1.63462 255.312 1.90131 254.988C2.16801 254.663 2.48993 254.501 2.86709 254.501L19.1334 254.501C19.5096 254.501 19.8324 254.663 20.0987 254.988C20.3651 255.312 20.4987 255.704 20.4987 256.162L20.4987 265.838C20.4987 266.296 20.3651 266.688 20.0987 267.012C19.8324 267.336 19.5096 267.499 19.1334 267.499L2.86709 267.499C2.48993 267.499 2.16801 267.336 1.90131 267.012C1.63462 266.688 1.50127 266.296 1.50127 265.838L1.50127 257.823Z" id="path10466" fill="none" fill-rule="evenodd" stroke="#0C0706" stroke-width="1.00254" />
      <g id="text10650" transform="translate(6.6144333 257.89227)">
        <path d="M1.55449 5.91855L1.55449 0.988464L1.48477 0.988464L0 2.03845L0 1.09921L1.55859 0L2.47324 0L2.47324 5.91855L1.55449 5.91855Z" id="path10701" fill="#DBD7D7" fill-rule="evenodd" stroke="none" />
        <path d="M6.91523 5.91855L6.91523 4.77423L4.02773 4.77423L4.02773 3.92111C4.48711 3.08167 5.30879 1.77463 6.49277 3.05176e-05L7.80117 3.05176e-05L7.80117 3.95392L8.61738 3.95392L8.61738 4.77423L7.80117 4.77423L7.80117 5.91855L6.91523 5.91855ZM4.90957 3.91699L4.90957 3.9744L6.92754 3.9744L6.92754 0.807983L6.87422 0.807983C6.17969 1.81424 5.5248 2.85056 4.90957 3.91696L4.90957 3.91699Z" id="path10703" fill="#DBD7D7" fill-rule="evenodd" stroke="none" />
      </g>
      <path d="M0.727016 275.613L0.727016 273.807C0.727016 273.308 0.861413 272.882 1.1302 272.529C1.399 272.176 1.72346 272 2.10358 272L19.8449 272C20.2241 272 20.5494 272.176 20.8179 272.529C21.0863 272.882 21.221 273.308 21.221 273.807L21.221 284.748C21.158 285.826 20.6543 286.234 19.8449 286.554L2.10358 286.554C1.07156 286.359 0.899189 285.587 0.727017 284.748L0.727016 275.613Z" id="path10476" fill="url(#gradient_1)" fill-rule="evenodd" stroke="none" />
      <path d="M1 276.561L1 274.28C1 273.651 1.17951 273.113 1.53853 272.668C1.89755 272.223 2.33093 272 2.83866 272L19.1613 272C19.6687 272 20.1024 272.223 20.4614 272.668C20.8205 273.113 21 273.651 21 274.28L21 283.72C21 284.349 20.8205 284.887 20.4614 285.332C20.1024 285.777 19.6687 286 19.1613 286L2.83866 286C2.33093 286 1.89755 285.777 1.53853 285.332C1.17951 284.887 1 284.349 1 283.72L1 276.561Z" id="path10478" fill="url(#gradient_2)" fill-rule="evenodd" stroke="none" />
      <path d="M1.50127 275.823L1.50127 274.162C1.50127 273.704 1.63462 273.312 1.90131 272.988C2.16801 272.663 2.48993 272.501 2.86709 272.501L19.1334 272.501C19.5096 272.501 19.8324 272.663 20.0987 272.988C20.3651 273.312 20.4987 273.704 20.4987 274.162L20.4987 283.838C20.4987 284.296 20.3651 284.688 20.0987 285.012C19.8324 285.336 19.5096 285.499 19.1334 285.499L2.86709 285.499C2.48993 285.499 2.16801 285.336 1.90131 285.012C1.63462 284.688 1.50127 284.296 1.50127 283.838L1.50127 275.823Z" id="path10480" fill="none" fill-rule="evenodd" stroke="#0C0706" stroke-width="1.00254" />
      <g id="text10658" transform="translate(6.7032394 275.88464)">
        <path d="M1.55449 5.91855L1.55449 0.988464L1.48477 0.988464L0 2.03845L0 1.09921L1.55859 0L2.47324 0L2.47324 5.91855L1.55449 5.91855Z" id="path10706" fill="#DBD7D7" fill-rule="evenodd" stroke="none" />
        <path d="M6.24258 6.0621C5.65469 6.0621 5.1707 5.89804 4.79063 5.56992C4.41055 5.24179 4.20684 4.81796 4.17949 4.29843L5.05313 4.29843C5.08867 4.58554 5.21582 4.81659 5.43457 4.99158C5.65332 5.1666 5.92539 5.25409 6.25078 5.25409C6.61992 5.25409 6.91797 5.14197 7.14492 4.91776C7.37188 4.69354 7.48535 4.39685 7.48535 4.02771C7.48535 3.65857 7.37188 3.35916 7.14492 3.12946C6.91797 2.89703 6.62402 2.78082 6.26309 2.78082C6.01152 2.78082 5.78594 2.83414 5.58633 2.9408C5.38672 3.04745 5.22949 3.19647 5.11465 3.38788L4.27383 3.38788L4.58555 0L8.03906 0L8.03906 0.820313L5.30332 0.820313L5.14746 2.55527L5.21719 2.55527C5.4961 2.19708 5.91309 2.01797 6.46817 2.01797C7.03145 2.01797 7.49082 2.20392 7.84629 2.57578C8.20449 2.94492 8.3836 3.42068 8.3836 4.00311C8.3836 4.61563 8.18535 5.11191 7.78887 5.49197C7.39512 5.87207 6.87969 6.0621 6.24258 6.0621L6.24258 6.0621Z" id="path10708" fill="#DBD7D7" fill-rule="evenodd" stroke="none" />
      </g>
      <path d="M0.727016 293.613L0.727016 291.807C0.727016 291.308 0.861413 290.882 1.1302 290.529C1.399 290.176 1.72346 290 2.10358 290L19.8449 290C20.2241 290 20.5494 290.176 20.8179 290.529C21.0863 290.882 21.221 291.308 21.221 291.807L21.221 302.748C21.158 303.826 20.6543 304.234 19.8449 304.554L2.10358 304.554C1.07156 304.359 0.899189 303.587 0.727017 302.748L0.727016 293.613Z" id="path10490" fill="url(#gradient_1)" fill-rule="evenodd" stroke="none" />
      <path d="M1 294.561L1 292.28C1 291.651 1.17951 291.113 1.53853 290.668C1.89755 290.223 2.33093 290 2.83866 290L19.1613 290C19.6687 290 20.1024 290.223 20.4614 290.668C20.8205 291.113 21 291.651 21 292.28L21 301.72C21 302.349 20.8205 302.887 20.4614 303.332C20.1024 303.777 19.6687 304 19.1613 304L2.83866 304C2.33093 304 1.89755 303.777 1.53853 303.332C1.17951 302.887 1 302.349 1 301.72L1 294.561Z" id="path10492" fill="url(#gradient_2)" fill-rule="evenodd" stroke="none" />
      <path d="M1.50127 293.823L1.50127 292.162C1.50127 291.704 1.63462 291.312 1.90131 290.988C2.16801 290.663 2.48993 290.501 2.86709 290.501L19.1334 290.501C19.5096 290.501 19.8324 290.663 20.0987 290.988C20.3651 291.312 20.4987 291.704 20.4987 292.162L20.4987 301.838C20.4987 302.296 20.3651 302.688 20.0987 303.012C19.8324 303.336 19.5096 303.499 19.1334 303.499L2.86709 303.499C2.48993 303.499 2.16801 303.336 1.90131 303.012C1.63462 302.688 1.50127 302.296 1.50127 301.838L1.50127 293.823Z" id="path10494" fill="none" fill-rule="evenodd" stroke="#0C0706" stroke-width="1.00254" />
      <g id="text10666" transform="translate(6.738764 293.76892)">
        <path d="M1.55449 6.0621L1.55449 1.13202L1.48477 1.13202L0 2.18201L0 1.24274L1.55859 0.143524L2.47324 0.143524L2.47324 6.06207L1.55449 6.0621Z" id="path10711" fill="#DBD7D7" fill-rule="evenodd" stroke="none" />
        <path d="M6.37793 6.20566C5.94043 6.20566 5.55488 6.10037 5.22129 5.88983C4.89043 5.67929 4.62793 5.37576 4.43379 4.97928C4.19316 4.50623 4.07285 3.90604 4.07285 3.17871C4.07285 2.1752 4.27793 1.39453 4.68809 0.8367C5.10098 0.2789 5.67793 0 6.41894 0C6.94121 0 7.38555 0.144928 7.75195 0.434753C8.11836 0.721863 8.34668 1.10742 8.43691 1.5914L7.51406 1.5914C7.44023 1.35077 7.30488 1.16074 7.10801 1.02127C6.91113 0.881836 6.67871 0.812103 6.41074 0.812103C5.95684 0.812103 5.60274 1.00897 5.34844 1.40274C5.09687 1.79376 4.96562 2.3461 4.95469 3.05978L5.02442 3.05978C5.1666 2.77539 5.37305 2.5553 5.64375 2.39944C5.91719 2.24359 6.22891 2.16565 6.57891 2.16565C7.14219 2.16565 7.60703 2.35159 7.97344 2.72345C8.33985 3.09534 8.52305 3.56702 8.52305 4.13849C8.52305 4.7428 8.32207 5.23907 7.92012 5.62735C7.51817 6.01288 7.0041 6.20566 6.37793 6.20566L6.37793 6.20566ZM5.48379 5.04083C5.72168 5.27872 6.01699 5.39767 6.36972 5.39767C6.72246 5.39767 7.01777 5.28009 7.25566 5.04495C7.49355 4.80978 7.6125 4.51721 7.6125 4.16721C7.6125 3.80902 7.49629 3.51508 7.26387 3.28537C7.03418 3.05566 6.7375 2.94083 6.37383 2.94083C6.01289 2.94083 5.71484 3.05566 5.47969 3.28537C5.24453 3.51233 5.12695 3.80078 5.12695 4.15079C5.12695 4.50354 5.2459 4.8002 5.48379 5.04083L5.48379 5.04083Z" id="path10713" fill="#DBD7D7" fill-rule="evenodd" stroke="none" />
      </g>
      <g id="text10506" transform="translate(9.231607 132.01172)">
        <path d="M0.5 6.01251L3.15 0.895859L3.15 0.829163L0 0.829163L0 0L4.09583 0L4.09583 0.845841L1.47917 6.0125L0.5 6.01251Z" id="path10672" fill="#DBD7D7" fill-rule="evenodd" stroke="none" />
      </g>
      <g id="text10594" transform="translate(8.995857 149.77687)">
        <path d="M3.83086 5.72578C3.41797 6.0457 2.88203 6.20566 2.22305 6.20566C1.56406 6.20566 1.02812 6.0457 0.615234 5.72578C0.205078 5.40585 0 4.99023 0 4.4789C0 4.10156 0.113477 3.7748 0.340429 3.49863C0.570117 3.22246 0.874999 3.04608 1.25508 2.96953L1.25508 2.89983C0.946093 2.82053 0.698631 2.6633 0.512694 2.42815C0.329491 2.19025 0.237889 1.9127 0.237889 1.59552C0.237889 1.12794 0.423827 0.745132 0.795702 0.447083C1.16758 0.149033 1.64336 0 2.22305 0C2.80273 0 3.27851 0.149033 3.65039 0.447083C4.02226 0.745132 4.2082 1.12794 4.2082 1.59552C4.2082 1.91545 4.1166 2.19299 3.9334 2.42815C3.75019 2.6633 3.50273 2.82053 3.19101 2.89983L3.19101 2.96953C3.57109 3.04062 3.87598 3.21425 4.10566 3.49042C4.33535 3.76386 4.45019 4.09198 4.45019 4.47479C4.45019 4.98611 4.24375 5.40311 3.83086 5.72577L3.83086 5.72578ZM1.29609 5.15567C1.53398 5.34708 1.84297 5.44278 2.22305 5.44278C2.60313 5.44278 2.91211 5.34708 3.15 5.15567C3.38789 4.96153 3.50684 4.70996 3.50684 4.40099C3.50684 4.092 3.38789 3.84044 3.15 3.6463C2.91211 3.45216 2.60313 3.35509 2.22305 3.35509C1.84297 3.35509 1.53398 3.45216 1.29609 3.6463C1.0582 3.84044 0.939258 4.09201 0.939258 4.40099C0.939258 4.70998 1.0582 4.96153 1.29609 5.15567L1.29609 5.15567ZM1.43965 2.3502C1.63926 2.51974 1.90039 2.60451 2.22305 2.60451C2.5457 2.60451 2.80684 2.51974 3.00644 2.3502C3.20605 2.18066 3.30586 1.95918 3.30586 1.68576C3.30586 1.40959 3.20605 1.18536 3.00644 1.01311C2.80684 0.840836 2.5457 0.7547 2.22305 0.7547C1.90039 0.7547 1.63926 0.840836 1.43965 1.01311C1.24277 1.18538 1.14434 1.40959 1.14434 1.68576C1.14434 1.9592 1.24277 2.18068 1.43965 2.3502L1.43965 2.3502Z" id="path10675" fill="#DBD7D7" fill-rule="evenodd" stroke="none" />
      </g>
      <g id="text10602" transform="translate(9.046391 167.8225)">
        <path d="M2.10821 6.20567C1.58321 6.20567 1.1375 6.06075 0.771098 5.7709C0.404692 5.48106 0.176372 5.09416 0.0861368 4.61017L1.01309 4.61017C1.08418 4.8508 1.21817 5.04083 1.41504 5.18028C1.61192 5.31973 1.84571 5.38947 2.11641 5.38947C2.57032 5.38947 2.92305 5.19395 3.17461 4.80293C3.42891 4.40918 3.56016 3.85547 3.56836 3.1418L3.53555 3.1418L3.51504 3.1418L3.49863 3.1418C3.35645 3.42618 3.15 3.64766 2.8793 3.80624C2.60859 3.96211 2.29824 4.04004 1.94824 4.04004C1.38496 4.04004 0.91875 3.8541 0.549609 3.48222C0.183203 3.11035 0 2.63867 0 2.06718C0 1.46289 0.19961 0.967972 0.598828 0.582428C1.00078 0.194138 1.51621 0 2.14512 0C2.58262 0 2.96816 0.10527 3.30176 0.315826C3.63535 0.523636 3.89785 0.82579 4.08926 1.22227C4.33262 1.70079 4.4543 2.30098 4.4543 3.02286C4.4543 4.02637 4.24785 4.8084 3.83496 5.36894C3.4248 5.92676 2.84922 6.20566 2.1082 6.20566L2.10821 6.20567ZM2.14923 3.26076C2.51017 3.26076 2.80821 3.14728 3.04337 2.92033C3.27852 2.69339 3.3961 2.40491 3.3961 2.0549C3.3961 1.69943 3.27716 1.40276 3.03927 1.16486C2.80138 0.926956 2.50743 0.808014 2.15743 0.808014C1.8047 0.808014 1.50938 0.925598 1.27149 1.16075C1.0336 1.3959 0.914658 1.68712 0.914658 2.03438C0.914658 2.39258 1.0295 2.68652 1.25919 2.91621C1.48888 3.1459 1.78556 3.26076 2.14923 3.26076L2.14923 3.26076Z" id="path10678" fill="#DBD7D7" fill-rule="evenodd" stroke="none" />
      </g>
    </g>
  </g>
</svg>