<svg xmlns="http://www.w3.org/2000/svg" width="36" height="318" viewBox="0 0 36 318"><g transform="translate(-2.803 0.44)"><rect width="33" height="8" transform="translate(5.803 8.56)" fill="#706974" opacity="0.6"/><rect width="2" height="8" transform="translate(2.803 8.56)" fill="#706974" opacity="0.6"/><path d="M.331-1.137C.378-.381,1.008.1,1.945.1c1,0,1.629-.507,1.629-1.315,0-.636-.357-.987-1.225-1.189l-.466-.114c-.551-.129-.773-.3-.773-.6,0-.381.346-.63.864-.63a.807.807,0,0,1,.894.633h.639A1.379,1.379,0,0,0,1.983-4.33c-.923,0-1.538.5-1.538,1.254,0,.621.349.99,1.113,1.169l.545.132c.56.132.806.325.806.647,0,.375-.387.647-.914.647-.565,0-.958-.255-1.014-.656ZM6.237-4.33A1.955,1.955,0,0,0,4.263-2.115,1.952,1.952,0,0,0,6.237.1,1.95,1.95,0,0,0,8.206-2.115,1.949,1.949,0,0,0,6.237-4.33Zm0,.612c.8,0,1.3.621,1.3,1.6S7.04-.51,6.237-.51s-1.3-.63-1.3-1.605S5.44-3.718,6.237-3.718ZM9.75,0V-1.752h1.816v-.58H9.75v-1.3h1.983v-.6H9.094V0Zm4.562,0V-3.63h1.327v-.6H12.325v.6h1.33V0Z" transform="translate(7.803 14.56)" fill="#d0c9d2"/><rect width="33" height="8" transform="translate(5.803 17.56)" fill="#706974" opacity="0.6"/><rect width="2" height="8" transform="translate(2.803 17.56)" fill="#706974" opacity="0.6"/><path d="M4.011,0V-4.228H3.357v1.775H1.187V-4.228H.53V0h.656V-1.854H3.357V0Zm3.8,0h.7L6.979-4.228H6.272L4.746,0H5.42l.39-1.122H7.421ZM6.592-3.46h.05l.612,1.787H5.977Zm3.3-.19h.926a.721.721,0,0,1,.817.738.7.7,0,0,1-.8.741H9.9Zm0,2.039h.926L11.684,0h.759l-.949-1.72a1.218,1.218,0,0,0,.82-1.207,1.265,1.265,0,0,0-1.4-1.3H9.24V0H9.9Zm3.352-2.616V0h1.526a1.879,1.879,0,0,0,1.989-2.127,1.87,1.87,0,0,0-1.989-2.1Zm.656.6h.8A1.333,1.333,0,0,1,16.1-2.118,1.329,1.329,0,0,1,14.7-.6h-.8Z" transform="translate(7.803 23.56)" fill="#d0c9d2"/><rect width="33" height="8" transform="translate(5.803 26.56)" fill="#706974" opacity="0.6"/><rect width="2" height="8" transform="translate(2.803 26.56)" fill="#706974" opacity="0.6"/><path d="M3.267,0h.7L2.438-4.228H1.731L.205,0H.879l.39-1.122H2.88ZM2.051-3.46H2.1l.612,1.787H1.436ZM4.5-1.137C4.547-.381,5.177.1,6.114.1c1,0,1.629-.507,1.629-1.315,0-.636-.357-.987-1.225-1.189l-.466-.114c-.551-.129-.773-.3-.773-.6,0-.381.346-.63.864-.63a.807.807,0,0,1,.894.633h.639A1.379,1.379,0,0,0,6.152-4.33c-.923,0-1.538.5-1.538,1.254,0,.621.349.99,1.113,1.169l.545.132c.56.132.806.325.806.647,0,.375-.387.647-.914.647-.565,0-.958-.255-1.014-.656ZM10.336,0V-1.705l1.491-2.522H11.1L10.034-2.4h-.05L8.921-4.228H8.191L9.68-1.705V0Zm6.507,0V-4.228h-.768L14.728-1.017h-.05L13.333-4.228h-.768V0h.609V-3.053h.041l1.239,2.93h.5l1.239-2.93h.041V0Z" transform="translate(7.803 32.56)" fill="#d0c9d2"/><rect width="33" height="8" transform="translate(5.803 35.56)" fill="#706974" opacity="0.6"/><rect width="2" height="8" transform="translate(2.803 35.56)" fill="#706974" opacity="0.6"/><path d="M.331-1.137C.378-.381,1.008.1,1.945.1c1,0,1.629-.507,1.629-1.315,0-.636-.357-.987-1.225-1.189l-.466-.114c-.551-.129-.773-.3-.773-.6,0-.381.346-.63.864-.63a.807.807,0,0,1,.894.633h.639A1.379,1.379,0,0,0,1.983-4.33c-.923,0-1.538.5-1.538,1.254,0,.621.349.99,1.113,1.169l.545.132c.56.132.806.325.806.647,0,.375-.387.647-.914.647-.565,0-.958-.255-1.014-.656ZM5.092,0V-4.228H4.436V0Zm1.7,0V-3h.047L9.006,0H9.6V-4.228H8.959v3H8.912l-2.171-3H6.149V0Zm6.554-.6H11.314V-1.866h1.919v-.568H11.314v-1.2h2.027v-.6H10.658V0h2.684Z" transform="translate(7.803 41.56)" fill="#d0c9d2"/><rect width="33" height="8" transform="translate(5.803 44.56)" fill="#706974" opacity="0.6"/><rect width="2" height="8" transform="translate(2.803 44.56)" fill="#706974" opacity="0.6"/><path d="M.53-4.228V0H2.057A1.879,1.879,0,0,0,4.046-2.127a1.87,1.87,0,0,0-1.989-2.1Zm.656.6h.8A1.333,1.333,0,0,1,3.378-2.118,1.329,1.329,0,0,1,1.983-.6h-.8ZM5.587,0V-4.228H4.931V0Zm4.664-1.673V-2.2H8.517v.551h1.09v.091A1.064,1.064,0,0,1,8.435-.51c-.794,0-1.292-.615-1.292-1.611,0-.979.5-1.6,1.277-1.6a1.1,1.1,0,0,1,1.143.788h.659a1.694,1.694,0,0,0-1.8-1.4A1.96,1.96,0,0,0,6.472-2.115,1.951,1.951,0,0,0,8.426.1,1.687,1.687,0,0,0,10.251-1.673ZM11.81,0V-4.228h-.656V0Z" transform="translate(7.803 50.56)" fill="#d0c9d2"/><rect width="33" height="8" transform="translate(5.803 -0.44)" fill="#b48b75" opacity="0.6"/><rect width="2" height="8" transform="translate(2.803 -0.44)" fill="#f6d537"/><path d="M2.332-4.33A1.955,1.955,0,0,0,.357-2.115,1.952,1.952,0,0,0,2.332.1,1.95,1.95,0,0,0,4.3-2.115,1.949,1.949,0,0,0,2.332-4.33Zm0,.612c.8,0,1.3.621,1.3,1.6S3.135-.51,2.332-.51s-1.3-.63-1.3-1.605S1.535-3.718,2.332-3.718ZM5.845,0V-1.752H7.661v-.58H5.845v-1.3H7.828v-.6H5.188V0ZM9.334,0V-1.752H11.15v-.58H9.334v-1.3h1.983v-.6H8.678V0Z" transform="translate(7.803 5.56)" fill="#f9c442"/><rect width="33" height="8" transform="translate(5.803 61.56)" fill="#b48b75" opacity="0.6"/><rect width="2" height="8" transform="translate(2.803 61.56)" fill="#f6d537"/><path d="M.331-1.137C.378-.381,1.008.1,1.945.1c1,0,1.629-.507,1.629-1.315,0-.636-.357-.987-1.225-1.189l-.466-.114c-.551-.129-.773-.3-.773-.6,0-.381.346-.63.864-.63a.807.807,0,0,1,.894.633h.639A1.379,1.379,0,0,0,1.983-4.33c-.923,0-1.538.5-1.538,1.254,0,.621.349.99,1.113,1.169l.545.132c.56.132.806.325.806.647,0,.375-.387.647-.914.647-.565,0-.958-.255-1.014-.656ZM6.237-4.33A1.955,1.955,0,0,0,4.263-2.115,1.952,1.952,0,0,0,6.237.1,1.95,1.95,0,0,0,8.206-2.115,1.949,1.949,0,0,0,6.237-4.33Zm0,.612c.8,0,1.3.621,1.3,1.6S7.04-.51,6.237-.51s-1.3-.63-1.3-1.605S5.44-3.718,6.237-3.718ZM9.75,0V-1.752h1.816v-.58H9.75v-1.3h1.983v-.6H9.094V0Zm4.562,0V-3.63h1.327v-.6H12.325v.6h1.33V0Z" transform="translate(7.803 67.56)" fill="#f9c442"/><rect width="33" height="8" transform="translate(5.803 70.56)" fill="#706974" opacity="0.6"/><rect width="2" height="8" transform="translate(2.803 70.56)" fill="#706974" opacity="0.6"/><path d="M4.011,0V-4.228H3.357v1.775H1.187V-4.228H.53V0h.656V-1.854H3.357V0Zm3.8,0h.7L6.979-4.228H6.272L4.746,0H5.42l.39-1.122H7.421ZM6.592-3.46h.05l.612,1.787H5.977Zm3.3-.19h.926a.721.721,0,0,1,.817.738.7.7,0,0,1-.8.741H9.9Zm0,2.039h.926L11.684,0h.759l-.949-1.72a1.218,1.218,0,0,0,.82-1.207,1.265,1.265,0,0,0-1.4-1.3H9.24V0H9.9Zm3.352-2.616V0h1.526a1.879,1.879,0,0,0,1.989-2.127,1.87,1.87,0,0,0-1.989-2.1Zm.656.6h.8A1.333,1.333,0,0,1,16.1-2.118,1.329,1.329,0,0,1,14.7-.6h-.8Z" transform="translate(7.803 76.56)" fill="#d0c9d2"/><rect width="33" height="8" transform="translate(5.803 79.56)" fill="#706974" opacity="0.6"/><rect width="2" height="8" transform="translate(2.803 79.56)" fill="#706974" opacity="0.6"/><path d="M3.267,0h.7L2.438-4.228H1.731L.205,0H.879l.39-1.122H2.88ZM2.051-3.46H2.1l.612,1.787H1.436ZM4.5-1.137C4.547-.381,5.177.1,6.114.1c1,0,1.629-.507,1.629-1.315,0-.636-.357-.987-1.225-1.189l-.466-.114c-.551-.129-.773-.3-.773-.6,0-.381.346-.63.864-.63a.807.807,0,0,1,.894.633h.639A1.379,1.379,0,0,0,6.152-4.33c-.923,0-1.538.5-1.538,1.254,0,.621.349.99,1.113,1.169l.545.132c.56.132.806.325.806.647,0,.375-.387.647-.914.647-.565,0-.958-.255-1.014-.656ZM10.336,0V-1.705l1.491-2.522H11.1L10.034-2.4h-.05L8.921-4.228H8.191L9.68-1.705V0Zm6.507,0V-4.228h-.768L14.728-1.017h-.05L13.333-4.228h-.768V0h.609V-3.053h.041l1.239,2.93h.5l1.239-2.93h.041V0Z" transform="translate(7.803 85.56)" fill="#d0c9d2"/><rect width="33" height="8" transform="translate(5.803 88.56)" fill="#706974" opacity="0.6"/><rect width="2" height="8" transform="translate(2.803 88.56)" fill="#706974" opacity="0.6"/><path d="M.331-1.137C.378-.381,1.008.1,1.945.1c1,0,1.629-.507,1.629-1.315,0-.636-.357-.987-1.225-1.189l-.466-.114c-.551-.129-.773-.3-.773-.6,0-.381.346-.63.864-.63a.807.807,0,0,1,.894.633h.639A1.379,1.379,0,0,0,1.983-4.33c-.923,0-1.538.5-1.538,1.254,0,.621.349.99,1.113,1.169l.545.132c.56.132.806.325.806.647,0,.375-.387.647-.914.647-.565,0-.958-.255-1.014-.656ZM5.092,0V-4.228H4.436V0Zm1.7,0V-3h.047L9.006,0H9.6V-4.228H8.959v3H8.912l-2.171-3H6.149V0Zm6.554-.6H11.314V-1.866h1.919v-.568H11.314v-1.2h2.027v-.6H10.658V0h2.684Z" transform="translate(7.803 94.56)" fill="#d0c9d2"/><rect width="33" height="8" transform="translate(5.803 97.56)" fill="#706974" opacity="0.6"/><rect width="2" height="8" transform="translate(2.803 97.56)" fill="#706974" opacity="0.6"/><path d="M.53-4.228V0H2.057A1.879,1.879,0,0,0,4.046-2.127a1.87,1.87,0,0,0-1.989-2.1Zm.656.6h.8A1.333,1.333,0,0,1,3.378-2.118,1.329,1.329,0,0,1,1.983-.6h-.8ZM5.587,0V-4.228H4.931V0Zm4.664-1.673V-2.2H8.517v.551h1.09v.091A1.064,1.064,0,0,1,8.435-.51c-.794,0-1.292-.615-1.292-1.611,0-.979.5-1.6,1.277-1.6a1.1,1.1,0,0,1,1.143.788h.659a1.694,1.694,0,0,0-1.8-1.4A1.96,1.96,0,0,0,6.472-2.115,1.951,1.951,0,0,0,8.426.1,1.687,1.687,0,0,0,10.251-1.673ZM11.81,0V-4.228h-.656V0Z" transform="translate(7.803 103.56)" fill="#d0c9d2"/><rect width="33" height="8" transform="translate(5.803 52.56)" fill="#706974" opacity="0.6"/><rect width="2" height="8" transform="translate(2.803 52.56)" fill="#706974" opacity="0.6"/><path d="M2.332-4.33A1.955,1.955,0,0,0,.357-2.115,1.952,1.952,0,0,0,2.332.1,1.95,1.95,0,0,0,4.3-2.115,1.949,1.949,0,0,0,2.332-4.33Zm0,.612c.8,0,1.3.621,1.3,1.6S3.135-.51,2.332-.51s-1.3-.63-1.3-1.605S1.535-3.718,2.332-3.718ZM5.845,0V-1.752H7.661v-.58H5.845v-1.3H7.828v-.6H5.188V0ZM9.334,0V-1.752H11.15v-.58H9.334v-1.3h1.983v-.6H8.678V0Z" transform="translate(7.803 58.56)" fill="#d0c9d2"/><rect width="33" height="8" transform="translate(5.803 114.56)" fill="#706974" opacity="0.6"/><rect width="2" height="8" transform="translate(2.803 114.56)" fill="#706974" opacity="0.6"/><path d="M.331-1.137C.378-.381,1.008.1,1.945.1c1,0,1.629-.507,1.629-1.315,0-.636-.357-.987-1.225-1.189l-.466-.114c-.551-.129-.773-.3-.773-.6,0-.381.346-.63.864-.63a.807.807,0,0,1,.894.633h.639A1.379,1.379,0,0,0,1.983-4.33c-.923,0-1.538.5-1.538,1.254,0,.621.349.99,1.113,1.169l.545.132c.56.132.806.325.806.647,0,.375-.387.647-.914.647-.565,0-.958-.255-1.014-.656ZM6.237-4.33A1.955,1.955,0,0,0,4.263-2.115,1.952,1.952,0,0,0,6.237.1,1.95,1.95,0,0,0,8.206-2.115,1.949,1.949,0,0,0,6.237-4.33Zm0,.612c.8,0,1.3.621,1.3,1.6S7.04-.51,6.237-.51s-1.3-.63-1.3-1.605S5.44-3.718,6.237-3.718ZM9.75,0V-1.752h1.816v-.58H9.75v-1.3h1.983v-.6H9.094V0Zm4.562,0V-3.63h1.327v-.6H12.325v.6h1.33V0Z" transform="translate(7.803 120.56)" fill="#d0c9d2"/><rect width="33" height="8" transform="translate(5.803 123.56)" fill="#b48b75" opacity="0.6"/><rect width="2" height="8" transform="translate(2.803 123.56)" fill="#f6d537"/><path d="M4.011,0V-4.228H3.357v1.775H1.187V-4.228H.53V0h.656V-1.854H3.357V0Zm3.8,0h.7L6.979-4.228H6.272L4.746,0H5.42l.39-1.122H7.421ZM6.592-3.46h.05l.612,1.787H5.977Zm3.3-.19h.926a.721.721,0,0,1,.817.738.7.7,0,0,1-.8.741H9.9Zm0,2.039h.926L11.684,0h.759l-.949-1.72a1.218,1.218,0,0,0,.82-1.207,1.265,1.265,0,0,0-1.4-1.3H9.24V0H9.9Zm3.352-2.616V0h1.526a1.879,1.879,0,0,0,1.989-2.127,1.87,1.87,0,0,0-1.989-2.1Zm.656.6h.8A1.333,1.333,0,0,1,16.1-2.118,1.329,1.329,0,0,1,14.7-.6h-.8Z" transform="translate(7.803 129.56)" fill="#f9c442"/><rect width="33" height="8" transform="translate(5.803 132.56)" fill="#706974" opacity="0.6"/><rect width="2" height="8" transform="translate(2.803 132.56)" fill="#706974" opacity="0.6"/><path d="M3.267,0h.7L2.438-4.228H1.731L.205,0H.879l.39-1.122H2.88ZM2.051-3.46H2.1l.612,1.787H1.436ZM4.5-1.137C4.547-.381,5.177.1,6.114.1c1,0,1.629-.507,1.629-1.315,0-.636-.357-.987-1.225-1.189l-.466-.114c-.551-.129-.773-.3-.773-.6,0-.381.346-.63.864-.63a.807.807,0,0,1,.894.633h.639A1.379,1.379,0,0,0,6.152-4.33c-.923,0-1.538.5-1.538,1.254,0,.621.349.99,1.113,1.169l.545.132c.56.132.806.325.806.647,0,.375-.387.647-.914.647-.565,0-.958-.255-1.014-.656ZM10.336,0V-1.705l1.491-2.522H11.1L10.034-2.4h-.05L8.921-4.228H8.191L9.68-1.705V0Zm6.507,0V-4.228h-.768L14.728-1.017h-.05L13.333-4.228h-.768V0h.609V-3.053h.041l1.239,2.93h.5l1.239-2.93h.041V0Z" transform="translate(7.803 138.56)" fill="#d0c9d2"/><rect width="33" height="8" transform="translate(5.803 141.56)" fill="#706974" opacity="0.6"/><rect width="2" height="8" transform="translate(2.803 141.56)" fill="#706974" opacity="0.6"/><path d="M.331-1.137C.378-.381,1.008.1,1.945.1c1,0,1.629-.507,1.629-1.315,0-.636-.357-.987-1.225-1.189l-.466-.114c-.551-.129-.773-.3-.773-.6,0-.381.346-.63.864-.63a.807.807,0,0,1,.894.633h.639A1.379,1.379,0,0,0,1.983-4.33c-.923,0-1.538.5-1.538,1.254,0,.621.349.99,1.113,1.169l.545.132c.56.132.806.325.806.647,0,.375-.387.647-.914.647-.565,0-.958-.255-1.014-.656ZM5.092,0V-4.228H4.436V0Zm1.7,0V-3h.047L9.006,0H9.6V-4.228H8.959v3H8.912l-2.171-3H6.149V0Zm6.554-.6H11.314V-1.866h1.919v-.568H11.314v-1.2h2.027v-.6H10.658V0h2.684Z" transform="translate(7.803 147.56)" fill="#d0c9d2"/><rect width="33" height="8" transform="translate(5.803 150.56)" fill="#706974" opacity="0.6"/><rect width="2" height="8" transform="translate(2.803 150.56)" fill="#706974" opacity="0.6"/><path d="M.53-4.228V0H2.057A1.879,1.879,0,0,0,4.046-2.127a1.87,1.87,0,0,0-1.989-2.1Zm.656.6h.8A1.333,1.333,0,0,1,3.378-2.118,1.329,1.329,0,0,1,1.983-.6h-.8ZM5.587,0V-4.228H4.931V0Zm4.664-1.673V-2.2H8.517v.551h1.09v.091A1.064,1.064,0,0,1,8.435-.51c-.794,0-1.292-.615-1.292-1.611,0-.979.5-1.6,1.277-1.6a1.1,1.1,0,0,1,1.143.788h.659a1.694,1.694,0,0,0-1.8-1.4A1.96,1.96,0,0,0,6.472-2.115,1.951,1.951,0,0,0,8.426.1,1.687,1.687,0,0,0,10.251-1.673ZM11.81,0V-4.228h-.656V0Z" transform="translate(7.803 156.56)" fill="#d0c9d2"/><rect width="33" height="8" transform="translate(5.803 105.56)" fill="#706974" opacity="0.6"/><rect width="2" height="8" transform="translate(2.803 105.56)" fill="#706974" opacity="0.6"/><path d="M2.332-4.33A1.955,1.955,0,0,0,.357-2.115,1.952,1.952,0,0,0,2.332.1,1.95,1.95,0,0,0,4.3-2.115,1.949,1.949,0,0,0,2.332-4.33Zm0,.612c.8,0,1.3.621,1.3,1.6S3.135-.51,2.332-.51s-1.3-.63-1.3-1.605S1.535-3.718,2.332-3.718ZM5.845,0V-1.752H7.661v-.58H5.845v-1.3H7.828v-.6H5.188V0ZM9.334,0V-1.752H11.15v-.58H9.334v-1.3h1.983v-.6H8.678V0Z" transform="translate(7.803 111.56)" fill="#d0c9d2"/><rect width="33" height="8" transform="translate(5.803 167.56)" fill="#706974" opacity="0.6"/><rect width="2" height="8" transform="translate(2.803 167.56)" fill="#706974" opacity="0.6"/><path d="M.331-1.137C.378-.381,1.008.1,1.945.1c1,0,1.629-.507,1.629-1.315,0-.636-.357-.987-1.225-1.189l-.466-.114c-.551-.129-.773-.3-.773-.6,0-.381.346-.63.864-.63a.807.807,0,0,1,.894.633h.639A1.379,1.379,0,0,0,1.983-4.33c-.923,0-1.538.5-1.538,1.254,0,.621.349.99,1.113,1.169l.545.132c.56.132.806.325.806.647,0,.375-.387.647-.914.647-.565,0-.958-.255-1.014-.656ZM6.237-4.33A1.955,1.955,0,0,0,4.263-2.115,1.952,1.952,0,0,0,6.237.1,1.95,1.95,0,0,0,8.206-2.115,1.949,1.949,0,0,0,6.237-4.33Zm0,.612c.8,0,1.3.621,1.3,1.6S7.04-.51,6.237-.51s-1.3-.63-1.3-1.605S5.44-3.718,6.237-3.718ZM9.75,0V-1.752h1.816v-.58H9.75v-1.3h1.983v-.6H9.094V0Zm4.562,0V-3.63h1.327v-.6H12.325v.6h1.33V0Z" transform="translate(7.803 173.56)" fill="#d0c9d2"/><rect width="33" height="8" transform="translate(5.803 176.56)" fill="#706974" opacity="0.6"/><rect width="2" height="8" transform="translate(2.803 176.56)" fill="#706974" opacity="0.6"/><path d="M4.011,0V-4.228H3.357v1.775H1.187V-4.228H.53V0h.656V-1.854H3.357V0Zm3.8,0h.7L6.979-4.228H6.272L4.746,0H5.42l.39-1.122H7.421ZM6.592-3.46h.05l.612,1.787H5.977Zm3.3-.19h.926a.721.721,0,0,1,.817.738.7.7,0,0,1-.8.741H9.9Zm0,2.039h.926L11.684,0h.759l-.949-1.72a1.218,1.218,0,0,0,.82-1.207,1.265,1.265,0,0,0-1.4-1.3H9.24V0H9.9Zm3.352-2.616V0h1.526a1.879,1.879,0,0,0,1.989-2.127,1.87,1.87,0,0,0-1.989-2.1Zm.656.6h.8A1.333,1.333,0,0,1,16.1-2.118,1.329,1.329,0,0,1,14.7-.6h-.8Z" transform="translate(7.803 182.56)" fill="#d0c9d2"/><rect width="33" height="8" transform="translate(5.803 185.56)" fill="#b48b75" opacity="0.6"/><rect width="2" height="8" transform="translate(2.803 185.56)" fill="#f6d537"/><path d="M3.267,0h.7L2.438-4.228H1.731L.205,0H.879l.39-1.122H2.88ZM2.051-3.46H2.1l.612,1.787H1.436ZM4.5-1.137C4.547-.381,5.177.1,6.114.1c1,0,1.629-.507,1.629-1.315,0-.636-.357-.987-1.225-1.189l-.466-.114c-.551-.129-.773-.3-.773-.6,0-.381.346-.63.864-.63a.807.807,0,0,1,.894.633h.639A1.379,1.379,0,0,0,6.152-4.33c-.923,0-1.538.5-1.538,1.254,0,.621.349.99,1.113,1.169l.545.132c.56.132.806.325.806.647,0,.375-.387.647-.914.647-.565,0-.958-.255-1.014-.656ZM10.336,0V-1.705l1.491-2.522H11.1L10.034-2.4h-.05L8.921-4.228H8.191L9.68-1.705V0Zm6.507,0V-4.228h-.768L14.728-1.017h-.05L13.333-4.228h-.768V0h.609V-3.053h.041l1.239,2.93h.5l1.239-2.93h.041V0Z" transform="translate(7.803 191.56)" fill="#f9c442"/><rect width="33" height="8" transform="translate(5.803 194.56)" fill="#706974" opacity="0.6"/><rect width="2" height="8" transform="translate(2.803 194.56)" fill="#706974" opacity="0.6"/><path d="M.331-1.137C.378-.381,1.008.1,1.945.1c1,0,1.629-.507,1.629-1.315,0-.636-.357-.987-1.225-1.189l-.466-.114c-.551-.129-.773-.3-.773-.6,0-.381.346-.63.864-.63a.807.807,0,0,1,.894.633h.639A1.379,1.379,0,0,0,1.983-4.33c-.923,0-1.538.5-1.538,1.254,0,.621.349.99,1.113,1.169l.545.132c.56.132.806.325.806.647,0,.375-.387.647-.914.647-.565,0-.958-.255-1.014-.656ZM5.092,0V-4.228H4.436V0Zm1.7,0V-3h.047L9.006,0H9.6V-4.228H8.959v3H8.912l-2.171-3H6.149V0Zm6.554-.6H11.314V-1.866h1.919v-.568H11.314v-1.2h2.027v-.6H10.658V0h2.684Z" transform="translate(7.803 200.56)" fill="#d0c9d2"/><rect width="33" height="8" transform="translate(5.803 203.56)" fill="#706974" opacity="0.6"/><rect width="2" height="8" transform="translate(2.803 203.56)" fill="#706974" opacity="0.6"/><path d="M.53-4.228V0H2.057A1.879,1.879,0,0,0,4.046-2.127a1.87,1.87,0,0,0-1.989-2.1Zm.656.6h.8A1.333,1.333,0,0,1,3.378-2.118,1.329,1.329,0,0,1,1.983-.6h-.8ZM5.587,0V-4.228H4.931V0Zm4.664-1.673V-2.2H8.517v.551h1.09v.091A1.064,1.064,0,0,1,8.435-.51c-.794,0-1.292-.615-1.292-1.611,0-.979.5-1.6,1.277-1.6a1.1,1.1,0,0,1,1.143.788h.659a1.694,1.694,0,0,0-1.8-1.4A1.96,1.96,0,0,0,6.472-2.115,1.951,1.951,0,0,0,8.426.1,1.687,1.687,0,0,0,10.251-1.673ZM11.81,0V-4.228h-.656V0Z" transform="translate(7.803 209.56)" fill="#d0c9d2"/><rect width="33" height="8" transform="translate(5.803 158.56)" fill="#706974" opacity="0.6"/><rect width="2" height="8" transform="translate(2.803 158.56)" fill="#706974" opacity="0.6"/><path d="M2.332-4.33A1.955,1.955,0,0,0,.357-2.115,1.952,1.952,0,0,0,2.332.1,1.95,1.95,0,0,0,4.3-2.115,1.949,1.949,0,0,0,2.332-4.33Zm0,.612c.8,0,1.3.621,1.3,1.6S3.135-.51,2.332-.51s-1.3-.63-1.3-1.605S1.535-3.718,2.332-3.718ZM5.845,0V-1.752H7.661v-.58H5.845v-1.3H7.828v-.6H5.188V0ZM9.334,0V-1.752H11.15v-.58H9.334v-1.3h1.983v-.6H8.678V0Z" transform="translate(7.803 164.56)" fill="#d0c9d2"/><rect width="33" height="8" transform="translate(5.803 220.56)" fill="#706974" opacity="0.6"/><rect width="2" height="8" transform="translate(2.803 220.56)" fill="#706974" opacity="0.6"/><path d="M.331-1.137C.378-.381,1.008.1,1.945.1c1,0,1.629-.507,1.629-1.315,0-.636-.357-.987-1.225-1.189l-.466-.114c-.551-.129-.773-.3-.773-.6,0-.381.346-.63.864-.63a.807.807,0,0,1,.894.633h.639A1.379,1.379,0,0,0,1.983-4.33c-.923,0-1.538.5-1.538,1.254,0,.621.349.99,1.113,1.169l.545.132c.56.132.806.325.806.647,0,.375-.387.647-.914.647-.565,0-.958-.255-1.014-.656ZM6.237-4.33A1.955,1.955,0,0,0,4.263-2.115,1.952,1.952,0,0,0,6.237.1,1.95,1.95,0,0,0,8.206-2.115,1.949,1.949,0,0,0,6.237-4.33Zm0,.612c.8,0,1.3.621,1.3,1.6S7.04-.51,6.237-.51s-1.3-.63-1.3-1.605S5.44-3.718,6.237-3.718ZM9.75,0V-1.752h1.816v-.58H9.75v-1.3h1.983v-.6H9.094V0Zm4.562,0V-3.63h1.327v-.6H12.325v.6h1.33V0Z" transform="translate(7.803 226.56)" fill="#d0c9d2"/><rect width="33" height="8" transform="translate(5.803 229.56)" fill="#706974" opacity="0.6"/><rect width="2" height="8" transform="translate(2.803 229.56)" fill="#706974" opacity="0.6"/><path d="M4.011,0V-4.228H3.357v1.775H1.187V-4.228H.53V0h.656V-1.854H3.357V0Zm3.8,0h.7L6.979-4.228H6.272L4.746,0H5.42l.39-1.122H7.421ZM6.592-3.46h.05l.612,1.787H5.977Zm3.3-.19h.926a.721.721,0,0,1,.817.738.7.7,0,0,1-.8.741H9.9Zm0,2.039h.926L11.684,0h.759l-.949-1.72a1.218,1.218,0,0,0,.82-1.207,1.265,1.265,0,0,0-1.4-1.3H9.24V0H9.9Zm3.352-2.616V0h1.526a1.879,1.879,0,0,0,1.989-2.127,1.87,1.87,0,0,0-1.989-2.1Zm.656.6h.8A1.333,1.333,0,0,1,16.1-2.118,1.329,1.329,0,0,1,14.7-.6h-.8Z" transform="translate(7.803 235.56)" fill="#d0c9d2"/><rect width="33" height="8" transform="translate(5.803 238.56)" fill="#706974" opacity="0.6"/><rect width="2" height="8" transform="translate(2.803 238.56)" fill="#706974" opacity="0.6"/><path d="M3.267,0h.7L2.438-4.228H1.731L.205,0H.879l.39-1.122H2.88ZM2.051-3.46H2.1l.612,1.787H1.436ZM4.5-1.137C4.547-.381,5.177.1,6.114.1c1,0,1.629-.507,1.629-1.315,0-.636-.357-.987-1.225-1.189l-.466-.114c-.551-.129-.773-.3-.773-.6,0-.381.346-.63.864-.63a.807.807,0,0,1,.894.633h.639A1.379,1.379,0,0,0,6.152-4.33c-.923,0-1.538.5-1.538,1.254,0,.621.349.99,1.113,1.169l.545.132c.56.132.806.325.806.647,0,.375-.387.647-.914.647-.565,0-.958-.255-1.014-.656ZM10.336,0V-1.705l1.491-2.522H11.1L10.034-2.4h-.05L8.921-4.228H8.191L9.68-1.705V0Zm6.507,0V-4.228h-.768L14.728-1.017h-.05L13.333-4.228h-.768V0h.609V-3.053h.041l1.239,2.93h.5l1.239-2.93h.041V0Z" transform="translate(7.803 244.56)" fill="#d0c9d2"/><rect width="33" height="8" transform="translate(5.803 247.56)" fill="#b48b75" opacity="0.6"/><rect width="2" height="8" transform="translate(2.803 247.56)" fill="#f6d537"/><path d="M.331-1.137C.378-.381,1.008.1,1.945.1c1,0,1.629-.507,1.629-1.315,0-.636-.357-.987-1.225-1.189l-.466-.114c-.551-.129-.773-.3-.773-.6,0-.381.346-.63.864-.63a.807.807,0,0,1,.894.633h.639A1.379,1.379,0,0,0,1.983-4.33c-.923,0-1.538.5-1.538,1.254,0,.621.349.99,1.113,1.169l.545.132c.56.132.806.325.806.647,0,.375-.387.647-.914.647-.565,0-.958-.255-1.014-.656ZM5.092,0V-4.228H4.436V0Zm1.7,0V-3h.047L9.006,0H9.6V-4.228H8.959v3H8.912l-2.171-3H6.149V0Zm6.554-.6H11.314V-1.866h1.919v-.568H11.314v-1.2h2.027v-.6H10.658V0h2.684Z" transform="translate(7.803 253.56)" fill="#f9c442"/><rect width="33" height="8" transform="translate(5.803 256.56)" fill="#706974" opacity="0.6"/><rect width="2" height="8" transform="translate(2.803 256.56)" fill="#706974" opacity="0.6"/><path d="M.53-4.228V0H2.057A1.879,1.879,0,0,0,4.046-2.127a1.87,1.87,0,0,0-1.989-2.1Zm.656.6h.8A1.333,1.333,0,0,1,3.378-2.118,1.329,1.329,0,0,1,1.983-.6h-.8ZM5.587,0V-4.228H4.931V0Zm4.664-1.673V-2.2H8.517v.551h1.09v.091A1.064,1.064,0,0,1,8.435-.51c-.794,0-1.292-.615-1.292-1.611,0-.979.5-1.6,1.277-1.6a1.1,1.1,0,0,1,1.143.788h.659a1.694,1.694,0,0,0-1.8-1.4A1.96,1.96,0,0,0,6.472-2.115,1.951,1.951,0,0,0,8.426.1,1.687,1.687,0,0,0,10.251-1.673ZM11.81,0V-4.228h-.656V0Z" transform="translate(7.803 262.56)" fill="#d0c9d2"/><rect width="33" height="8" transform="translate(5.803 211.56)" fill="#706974" opacity="0.6"/><rect width="2" height="8" transform="translate(2.803 211.56)" fill="#706974" opacity="0.6"/><path d="M2.332-4.33A1.955,1.955,0,0,0,.357-2.115,1.952,1.952,0,0,0,2.332.1,1.95,1.95,0,0,0,4.3-2.115,1.949,1.949,0,0,0,2.332-4.33Zm0,.612c.8,0,1.3.621,1.3,1.6S3.135-.51,2.332-.51s-1.3-.63-1.3-1.605S1.535-3.718,2.332-3.718ZM5.845,0V-1.752H7.661v-.58H5.845v-1.3H7.828v-.6H5.188V0ZM9.334,0V-1.752H11.15v-.58H9.334v-1.3h1.983v-.6H8.678V0Z" transform="translate(7.803 217.56)" fill="#d0c9d2"/><rect width="33" height="8" transform="translate(5.803 273.56)" fill="#706974" opacity="0.6"/><rect width="2" height="8" transform="translate(2.803 273.56)" fill="#706974" opacity="0.6"/><path d="M.331-1.137C.378-.381,1.008.1,1.945.1c1,0,1.629-.507,1.629-1.315,0-.636-.357-.987-1.225-1.189l-.466-.114c-.551-.129-.773-.3-.773-.6,0-.381.346-.63.864-.63a.807.807,0,0,1,.894.633h.639A1.379,1.379,0,0,0,1.983-4.33c-.923,0-1.538.5-1.538,1.254,0,.621.349.99,1.113,1.169l.545.132c.56.132.806.325.806.647,0,.375-.387.647-.914.647-.565,0-.958-.255-1.014-.656ZM6.237-4.33A1.955,1.955,0,0,0,4.263-2.115,1.952,1.952,0,0,0,6.237.1,1.95,1.95,0,0,0,8.206-2.115,1.949,1.949,0,0,0,6.237-4.33Zm0,.612c.8,0,1.3.621,1.3,1.6S7.04-.51,6.237-.51s-1.3-.63-1.3-1.605S5.44-3.718,6.237-3.718ZM9.75,0V-1.752h1.816v-.58H9.75v-1.3h1.983v-.6H9.094V0Zm4.562,0V-3.63h1.327v-.6H12.325v.6h1.33V0Z" transform="translate(7.803 279.56)" fill="#d0c9d2"/><rect width="33" height="8" transform="translate(5.803 282.56)" fill="#706974" opacity="0.6"/><rect width="2" height="8" transform="translate(2.803 282.56)" fill="#706974" opacity="0.6"/><path d="M4.011,0V-4.228H3.357v1.775H1.187V-4.228H.53V0h.656V-1.854H3.357V0Zm3.8,0h.7L6.979-4.228H6.272L4.746,0H5.42l.39-1.122H7.421ZM6.592-3.46h.05l.612,1.787H5.977Zm3.3-.19h.926a.721.721,0,0,1,.817.738.7.7,0,0,1-.8.741H9.9Zm0,2.039h.926L11.684,0h.759l-.949-1.72a1.218,1.218,0,0,0,.82-1.207,1.265,1.265,0,0,0-1.4-1.3H9.24V0H9.9Zm3.352-2.616V0h1.526a1.879,1.879,0,0,0,1.989-2.127,1.87,1.87,0,0,0-1.989-2.1Zm.656.6h.8A1.333,1.333,0,0,1,16.1-2.118,1.329,1.329,0,0,1,14.7-.6h-.8Z" transform="translate(7.803 288.56)" fill="#d0c9d2"/><rect width="33" height="8" transform="translate(5.803 291.56)" fill="#706974" opacity="0.6"/><rect width="2" height="8" transform="translate(2.803 291.56)" fill="#706974" opacity="0.6"/><path d="M3.267,0h.7L2.438-4.228H1.731L.205,0H.879l.39-1.122H2.88ZM2.051-3.46H2.1l.612,1.787H1.436ZM4.5-1.137C4.547-.381,5.177.1,6.114.1c1,0,1.629-.507,1.629-1.315,0-.636-.357-.987-1.225-1.189l-.466-.114c-.551-.129-.773-.3-.773-.6,0-.381.346-.63.864-.63a.807.807,0,0,1,.894.633h.639A1.379,1.379,0,0,0,6.152-4.33c-.923,0-1.538.5-1.538,1.254,0,.621.349.99,1.113,1.169l.545.132c.56.132.806.325.806.647,0,.375-.387.647-.914.647-.565,0-.958-.255-1.014-.656ZM10.336,0V-1.705l1.491-2.522H11.1L10.034-2.4h-.05L8.921-4.228H8.191L9.68-1.705V0Zm6.507,0V-4.228h-.768L14.728-1.017h-.05L13.333-4.228h-.768V0h.609V-3.053h.041l1.239,2.93h.5l1.239-2.93h.041V0Z" transform="translate(7.803 297.56)" fill="#d0c9d2"/><rect width="33" height="8" transform="translate(5.803 300.56)" fill="#706974" opacity="0.6"/><rect width="2" height="8" transform="translate(2.803 300.56)" fill="#706974" opacity="0.6"/><path d="M.331-1.137C.378-.381,1.008.1,1.945.1c1,0,1.629-.507,1.629-1.315,0-.636-.357-.987-1.225-1.189l-.466-.114c-.551-.129-.773-.3-.773-.6,0-.381.346-.63.864-.63a.807.807,0,0,1,.894.633h.639A1.379,1.379,0,0,0,1.983-4.33c-.923,0-1.538.5-1.538,1.254,0,.621.349.99,1.113,1.169l.545.132c.56.132.806.325.806.647,0,.375-.387.647-.914.647-.565,0-.958-.255-1.014-.656ZM5.092,0V-4.228H4.436V0Zm1.7,0V-3h.047L9.006,0H9.6V-4.228H8.959v3H8.912l-2.171-3H6.149V0Zm6.554-.6H11.314V-1.866h1.919v-.568H11.314v-1.2h2.027v-.6H10.658V0h2.684Z" transform="translate(7.803 306.56)" fill="#d0c9d2"/><rect width="33" height="8" transform="translate(5.803 309.56)" fill="#b48b75" opacity="0.6"/><rect width="2" height="8" transform="translate(2.803 309.56)" fill="#f6d537"/><path d="M.53-4.228V0H2.057A1.879,1.879,0,0,0,4.046-2.127a1.87,1.87,0,0,0-1.989-2.1Zm.656.6h.8A1.333,1.333,0,0,1,3.378-2.118,1.329,1.329,0,0,1,1.983-.6h-.8ZM5.587,0V-4.228H4.931V0Zm4.664-1.673V-2.2H8.517v.551h1.09v.091A1.064,1.064,0,0,1,8.435-.51c-.794,0-1.292-.615-1.292-1.611,0-.979.5-1.6,1.277-1.6a1.1,1.1,0,0,1,1.143.788h.659a1.694,1.694,0,0,0-1.8-1.4A1.96,1.96,0,0,0,6.472-2.115,1.951,1.951,0,0,0,8.426.1,1.687,1.687,0,0,0,10.251-1.673ZM11.81,0V-4.228h-.656V0Z" transform="translate(7.803 315.56)" fill="#f9c442"/><rect width="33" height="8" transform="translate(5.803 264.56)" fill="#706974" opacity="0.6"/><rect width="2" height="8" transform="translate(2.803 264.56)" fill="#706974" opacity="0.6"/><path d="M2.332-4.33A1.955,1.955,0,0,0,.357-2.115,1.952,1.952,0,0,0,2.332.1,1.95,1.95,0,0,0,4.3-2.115,1.949,1.949,0,0,0,2.332-4.33Zm0,.612c.8,0,1.3.621,1.3,1.6S3.135-.51,2.332-.51s-1.3-.63-1.3-1.605S1.535-3.718,2.332-3.718ZM5.845,0V-1.752H7.661v-.58H5.845v-1.3H7.828v-.6H5.188V0ZM9.334,0V-1.752H11.15v-.58H9.334v-1.3h1.983v-.6H8.678V0Z" transform="translate(7.803 270.56)" fill="#d0c9d2"/></g></svg>