<?xml version="1.0" encoding="utf-8"?>
<svg width="36px" height="14px" viewBox="0 0 36 14" version="1.1" xmlns:xlink="http://www.w3.org/1999/xlink" xmlns="http://www.w3.org/2000/svg">
  <defs>
    <rect width="36" height="14" id="artboard_1" />
    <clipPath id="clip_1">
      <use xlink:href="#artboard_1" clip-rule="evenodd" />
    </clipPath>
  </defs>
  <g id="bmp00174" clip-path="url(#clip_1)">
    <path d="M0.600008 3.4C0.600008 2.29543 1.49544 1.4 2.60001 1.4L33.6 1.4C34.7046 1.4 35.6 2.29543 35.6 3.4L35.6 10.5C35.6 11.6046 34.7046 12.5 33.6 12.5L2.60001 12.5C1.49544 12.5 0.600006 11.6046 0.600006 10.5L0.600008 3.4Z" id="path55" fill="#544C4B" stroke="none" />
    <path d="M2.5 0.950001C1.11929 0.950001 0 2.06929 0 3.45L0 10.5C0 11.8807 1.11929 13 2.5 13L33.55 13L33.55 12L2.5 12C1.67157 12 1 11.3284 1 10.5L1 3.45C1 2.62157 1.67157 1.95 2.5 1.95L33.55 1.95L33.55 0.950001L2.5 0.950001L2.5 0.950001ZM33.55 1.95C34.3784 1.95 35.05 2.62157 35.05 3.45L35.05 10.5C35.05 11.3284 34.3784 12 33.55 12L33.55 13C34.9307 13 36.05 11.8807 36.05 10.5L36.05 3.45C36.05 2.06929 34.9307 0.950001 33.55 0.950001L33.55 1.95L33.55 1.95Z" id="Vector" fill="#221A17" fill-rule="evenodd" stroke="none" />
  </g>
</svg>