<?xml version="1.0" encoding="utf-8"?>
<svg width="70px" height="24px" viewbox="0 0 70 24" version="1.1" xmlns:xlink="http://www.w3.org/1999/xlink" xmlns="http://www.w3.org/2000/svg">
  <defs>
    <rect width="70" height="24" id="artboard_1" />
    <clipPath id="clip_1">
      <use xlink:href="#artboard_1" clip-rule="evenodd" />
    </clipPath>
  </defs>
  <g id="hover00126" clip-path="url(#clip_1)">
    <g id="Group" transform="translate(0 4.7683716E-05)">
      <path d="M0 0L70 0L70 12L0 12L0 0Z" id="Rectangle" fill="#91807E" fill-rule="evenodd" stroke="none" />
      <path d="M0.771 0.799992L1.851 0.799992C2.0964 0.766579 2.34406 0.843037 2.52792 1.00897C2.71178 1.17491 2.81315 1.41346 2.805 1.66099C2.82097 1.90725 2.72518 2.1476 2.54422 2.31538C2.36325 2.48316 2.11635 2.56051 1.872 2.52599L0.771999 2.52599L0.771 0.799992ZM0.771 3.17899L1.851 3.17899L2.851 5.05899L3.736 5.05899L2.629 3.05299C3.22496 2.84783 3.61456 2.27462 3.586 1.64499C3.60067 1.21731 3.42899 0.80431 3.11547 0.513048C2.80195 0.221785 2.37745 0.0809298 1.952 0.126989L0 0.12699L0 5.05899L0.766001 5.05899L0.771 3.17899ZM7.812 4.35899L5.446 4.35899L5.446 2.87899L7.685 2.87899L7.685 2.21899L5.446 2.21899L5.446 0.82399L7.811 0.82399L7.811 0.123991L4.68 0.123991L4.68 5.05899L7.811 5.05899L7.812 4.35899ZM10.933 5.05899L10.933 0.82399L12.481 0.82399L12.481 0.123991L8.615 0.123991L8.615 0.82399L10.167 0.82399L10.167 5.05899L10.933 5.05899ZM14.183 0.799992L15.263 0.799992C15.5084 0.766579 15.7561 0.843037 15.9399 1.00897C16.1238 1.17491 16.2252 1.41346 16.217 1.66099C16.233 1.90725 16.1372 2.1476 15.9562 2.31538C15.7753 2.48316 15.5283 2.56051 15.284 2.52599L14.184 2.52599L14.183 0.799992ZM14.183 3.17899L15.263 3.17899L16.263 5.05899L17.148 5.05899L16.046 3.05299C16.642 2.84783 17.0316 2.27462 17.003 1.64499C17.0177 1.21731 16.846 0.804312 16.5325 0.513048C16.2189 0.221786 15.7945 0.0809307 15.369 0.12699L13.417 0.12699L13.417 5.05899L14.183 5.05899L14.183 3.17899ZM19.093 5.05899L19.093 0.12699L18.093 0.12699L18.093 5.05899L19.093 5.05899ZM24.3 3.10699L24.3 2.49199L22.277 2.49199L22.277 3.13499L23.546 3.13499L23.546 3.24099C23.5427 3.58964 23.3929 3.92081 23.1332 4.15348C22.8735 4.38615 22.5279 4.49884 22.181 4.46399C21.255 4.46399 20.674 3.74599 20.674 2.58399C20.674 1.44199 21.252 0.720991 22.164 0.720991C22.7694 0.67485 23.3248 1.05776 23.497 1.63999L24.266 1.63999C24.0925 0.635017 23.1828 -0.0728655 22.166 0.00599098C21.5062 0.00382709 20.8776 0.286736 20.4417 0.782047C20.0058 1.27736 19.805 1.9368 19.891 2.59099C19.891 4.18399 20.773 5.17899 22.171 5.17899C22.7388 5.22651 23.2994 5.02559 23.7077 4.62818C24.116 4.23077 24.3321 3.67589 24.3 3.10699L24.3 3.10699ZM29.56 3.10699L29.56 2.49199L27.537 2.49199L27.537 3.13499L28.809 3.13499L28.809 3.24099C28.8056 3.58926 28.6561 3.92008 28.3969 4.15268C28.1376 4.38528 27.7926 4.49825 27.446 4.46399C26.52 4.46399 25.939 3.74599 25.939 2.58399C25.939 1.44199 26.517 0.720991 27.429 0.720991C28.0344 0.67485 28.5898 1.05776 28.762 1.63999L29.531 1.63999C29.3575 0.635017 28.4478 -0.0728664 27.431 0.00599098C26.7703 0.00237942 26.1404 0.284664 25.7033 0.780157C25.2663 1.27565 25.0649 1.93593 25.151 2.59099C25.151 4.18399 26.033 5.17899 27.431 5.17899C27.999 5.22682 28.5598 5.02604 28.9684 4.62859C29.3769 4.23114 29.5931 3.67608 29.561 3.10699L29.56 3.10699ZM33.746 4.35899L31.379 4.35899L31.379 2.87899L33.618 2.87899L33.618 2.21899L31.379 2.21899L31.379 0.82399L33.746 0.82399L33.746 0.123991L30.613 0.123991L30.613 5.05899L33.746 5.05899L33.746 4.35899ZM35.616 0.796989L36.696 0.796989C36.9409 0.764833 37.1876 0.842003 37.3706 1.00801C37.5536 1.17402 37.6543 1.41208 37.646 1.65899C37.662 1.90525 37.5662 2.1456 37.3852 2.31338C37.2043 2.48116 36.9573 2.55851 36.713 2.52399L35.613 2.52399L35.616 0.796989ZM35.616 3.17599L36.696 3.17599L37.696 5.05599L38.581 5.05599L37.477 3.05299C38.073 2.84783 38.4626 2.27462 38.434 1.64499C38.4487 1.21731 38.277 0.80431 37.9635 0.513048C37.6499 0.221785 37.2255 0.0809298 36.8 0.126989L34.846 0.12699L34.846 5.05899L35.612 5.05899L35.616 3.17599Z" transform="translate(15.854004 3.4410095)" id="Shape" fill="#DBD7D7" fill-rule="evenodd" stroke="none" />
    </g>
    <g id="Group" transform="translate(0 12.000048)">
      <path d="M0 0L70 0L70 12L0 12L0 0Z" id="Rectangle" fill="#A58470" fill-rule="evenodd" stroke="none" />
      <path d="M0.771 0.799992L1.851 0.799992C2.0964 0.766579 2.34406 0.843037 2.52792 1.00897C2.71178 1.17491 2.81315 1.41346 2.805 1.66099C2.82097 1.90725 2.72518 2.1476 2.54422 2.31538C2.36325 2.48316 2.11635 2.56051 1.872 2.52599L0.771999 2.52599L0.771 0.799992ZM0.771 3.17899L1.851 3.17899L2.851 5.05899L3.736 5.05899L2.629 3.05299C3.22496 2.84783 3.61456 2.27462 3.586 1.64499C3.60067 1.21731 3.42899 0.80431 3.11547 0.513048C2.80195 0.221785 2.37745 0.0809298 1.952 0.126989L0 0.12699L0 5.05899L0.766001 5.05899L0.771 3.17899ZM7.812 4.35899L5.446 4.35899L5.446 2.87899L7.685 2.87899L7.685 2.21899L5.446 2.21899L5.446 0.82399L7.811 0.82399L7.811 0.123991L4.68 0.123991L4.68 5.05899L7.811 5.05899L7.812 4.35899ZM10.933 5.05899L10.933 0.82399L12.481 0.82399L12.481 0.123991L8.615 0.123991L8.615 0.82399L10.167 0.82399L10.167 5.05899L10.933 5.05899ZM14.183 0.799992L15.263 0.799992C15.5084 0.766579 15.7561 0.843037 15.9399 1.00897C16.1238 1.17491 16.2252 1.41346 16.217 1.66099C16.233 1.90725 16.1372 2.1476 15.9562 2.31538C15.7753 2.48316 15.5283 2.56051 15.284 2.52599L14.184 2.52599L14.183 0.799992ZM14.183 3.17899L15.263 3.17899L16.263 5.05899L17.148 5.05899L16.046 3.05299C16.642 2.84783 17.0316 2.27462 17.003 1.64499C17.0177 1.21731 16.846 0.804312 16.5325 0.513048C16.2189 0.221786 15.7945 0.0809307 15.369 0.12699L13.417 0.12699L13.417 5.05899L14.183 5.05899L14.183 3.17899ZM19.093 5.05899L19.093 0.12699L18.093 0.12699L18.093 5.05899L19.093 5.05899ZM24.3 3.10699L24.3 2.49199L22.277 2.49199L22.277 3.13499L23.546 3.13499L23.546 3.24099C23.5427 3.58964 23.3929 3.92081 23.1332 4.15348C22.8735 4.38615 22.5279 4.49884 22.181 4.46399C21.255 4.46399 20.674 3.74599 20.674 2.58399C20.674 1.44199 21.252 0.720991 22.164 0.720991C22.7694 0.67485 23.3248 1.05776 23.497 1.63999L24.266 1.63999C24.0925 0.635017 23.1828 -0.0728655 22.166 0.00599098C21.5062 0.00382709 20.8776 0.286736 20.4417 0.782047C20.0058 1.27736 19.805 1.9368 19.891 2.59099C19.891 4.18399 20.773 5.17899 22.171 5.17899C22.7388 5.22651 23.2994 5.02559 23.7077 4.62818C24.116 4.23077 24.3321 3.67589 24.3 3.10699L24.3 3.10699ZM29.56 3.10699L29.56 2.49199L27.537 2.49199L27.537 3.13499L28.809 3.13499L28.809 3.24099C28.8056 3.58926 28.6561 3.92008 28.3969 4.15268C28.1376 4.38528 27.7926 4.49825 27.446 4.46399C26.52 4.46399 25.939 3.74599 25.939 2.58399C25.939 1.44199 26.517 0.720991 27.429 0.720991C28.0344 0.67485 28.5898 1.05776 28.762 1.63999L29.531 1.63999C29.3575 0.635017 28.4478 -0.0728664 27.431 0.00599098C26.7703 0.00237942 26.1404 0.284664 25.7033 0.780157C25.2663 1.27565 25.0649 1.93593 25.151 2.59099C25.151 4.18399 26.033 5.17899 27.431 5.17899C27.999 5.22682 28.5598 5.02604 28.9684 4.62859C29.3769 4.23114 29.5931 3.67608 29.561 3.10699L29.56 3.10699ZM33.746 4.35899L31.379 4.35899L31.379 2.87899L33.618 2.87899L33.618 2.21899L31.379 2.21899L31.379 0.82399L33.746 0.82399L33.746 0.123991L30.613 0.123991L30.613 5.05899L33.746 5.05899L33.746 4.35899ZM35.616 0.796989L36.696 0.796989C36.9409 0.764833 37.1876 0.842003 37.3706 1.00801C37.5536 1.17402 37.6543 1.41208 37.646 1.65899C37.662 1.90525 37.5662 2.1456 37.3852 2.31338C37.2043 2.48116 36.9573 2.55851 36.713 2.52399L35.613 2.52399L35.616 0.796989ZM35.616 3.17599L36.696 3.17599L37.696 5.05599L38.581 5.05599L37.477 3.05299C38.073 2.84783 38.4626 2.27462 38.434 1.64499C38.4487 1.21731 38.277 0.80431 37.9635 0.513048C37.6499 0.221785 37.2255 0.0809298 36.8 0.126989L34.846 0.12699L34.846 5.05899L35.612 5.05899L35.616 3.17599Z" transform="translate(15.854004 3.4410095)" id="Shape" fill="#F6D738" fill-rule="evenodd" stroke="none" />
    </g>
  </g>
</svg>