<?xml version="1.0" encoding="utf-8"?>
<svg width="31px" height="34px" viewbox="0 0 31 34" version="1.1" xmlns:xlink="http://www.w3.org/1999/xlink" xmlns="http://www.w3.org/2000/svg">
  <defs>
    <rect width="31" height="34" id="artboard_1" />
    <clipPath id="clip_1">
      <use xlink:href="#artboard_1" clip-rule="evenodd" />
    </clipPath>
  </defs>
  <g id="hover00162" clip-path="url(#clip_1)">
    <g id="Group">
      <path d="M0 0L28 0L28 8L0 8L0 0Z" transform="translate(3 0)" id="Shape" fill="#7E7781" fill-rule="evenodd" stroke="none" />
      <path d="M0 0L2 0L2 8L0 8L0 0Z" id="Rectangle" fill="#7E7781" fill-rule="evenodd" stroke="none" />
      <path d="M0 0.110123L0 4.33812L1.527 4.33812C2.09027 4.37629 2.64084 4.15916 3.02644 3.74681C3.41205 3.33445 3.5918 2.77057 3.516 2.21112C3.58635 1.65528 3.40376 1.09719 3.01848 0.690409C2.63321 0.283631 2.08584 0.0710351 1.527 0.111123L0 0.110123ZM0.656 0.710123L1.456 0.710123C1.85259 0.688952 2.23796 0.845721 2.50715 1.13773C2.77634 1.42973 2.9013 1.82656 2.848 2.22012C2.90559 2.6158 2.78196 3.01638 2.51141 3.31079C2.24085 3.6052 1.85212 3.76215 1.453 3.73812L0.653 3.73812L0.656 0.710123ZM5.401 4.33812L5.401 0.110123L4.401 0.110123L4.401 4.33812L5.401 4.33812ZM9.721 2.66512L9.721 2.13812L7.987 2.13812L7.987 2.68912L9.077 2.68912L9.077 2.78012C9.07405 3.07928 8.94529 3.36336 8.72228 3.56278C8.49927 3.76219 8.20261 3.85851 7.90499 3.82812C7.111 3.82812 6.613 3.21312 6.613 2.21712C6.613 1.23812 7.113 0.617123 7.89 0.617123C8.40957 0.575826 8.8868 0.904836 9.033 1.40512L9.692 1.40512C9.54294 0.544022 8.7633 -0.0623667 7.892 0.00512338C7.32596 0.00308537 6.78668 0.245859 6.41294 0.670968C6.0392 1.09608 5.86749 1.66201 5.942 2.22312C5.86522 2.78506 6.03677 3.35259 6.41197 3.77791C6.78717 4.20322 7.32888 4.44422 7.896 4.43812C8.38216 4.47875 8.86211 4.30693 9.21203 3.96699C9.56195 3.62704 9.74757 3.15226 9.721 2.66512L9.721 2.66512ZM11.624 4.33812L11.624 0.110123L10.624 0.110123L10.624 4.33812L11.624 4.33812ZM14.07 4.33812L14.07 0.708123L15.397 0.708123L15.397 0.108123L12.079 0.108123L12.079 0.708123L13.409 0.708123L13.409 4.33812L14.07 4.33812ZM18.453 4.33812L19.153 4.33812L17.619 0.110123L16.913 0.110123L15.387 4.33812L16.061 4.33812L16.451 3.21612L18.062 3.21612L18.453 4.33812ZM17.233 0.878123L17.283 0.878123L17.895 2.66512L16.617 2.66512L17.233 0.878123ZM22.518 3.73812L20.538 3.73812L20.538 0.110123L19.882 0.110123L19.882 4.33812L22.519 4.33812L22.518 3.73812Z" transform="translate(5.529999 1.6618769)" id="Shape" fill="#D0C9D2" fill-rule="evenodd" stroke="none" />
      <path d="M0 0L28 0L28 8L0 8L0 0Z" transform="translate(3 26)" id="Shape" fill="#7E7781" fill-rule="evenodd" stroke="none" />
      <path d="M0 0L2 0L2 8L0 8L0 0Z" transform="translate(0 26)" id="Rectangle" fill="#7E7781" fill-rule="evenodd" stroke="none" />
      <path d="M3.062 4.33812L3.762 4.33812L2.233 0.110123L1.526 0.110123L0 4.33812L0.674 4.33812L1.064 3.21612L2.675 3.21612L3.062 4.33812ZM1.846 0.878124L1.895 0.878124L2.507 2.66512L1.231 2.66512L1.846 0.878124ZM5.133 4.33812L5.133 1.33812L5.18 1.33812L7.351 4.33812L7.943 4.33812L7.943 0.110123L7.304 0.110123L7.304 3.11012L7.257 3.11012L5.086 0.110123L4.495 0.110123L4.495 4.33812L5.133 4.33812ZM11.739 4.33812L12.439 4.33812L10.91 0.110123L10.204 0.110123L8.678 4.33812L9.352 4.33812L9.742 3.21612L11.353 3.21612L11.739 4.33812ZM10.524 0.878124L10.574 0.878124L11.186 2.66512L9.908 2.66512L10.524 0.878124ZM15.809 3.73812L13.829 3.73812L13.829 0.110123L13.173 0.110123L13.173 4.33812L15.81 4.33812L15.809 3.73812ZM18.284 0.0081234C17.7137 -0.00279236 17.167 0.235928 16.7874 0.661686C16.4078 1.08745 16.233 1.65778 16.309 2.22312C16.232 2.78868 16.4063 3.35962 16.7862 3.78563C17.1661 4.21165 17.7133 4.45007 18.284 4.43812C18.8544 4.44911 19.4011 4.20973 19.7798 3.78306C20.1586 3.35638 20.3315 2.78523 20.253 2.22012C20.33 1.6559 20.1563 1.08624 19.7777 0.660889C19.399 0.235542 18.8533 -0.00294304 18.284 0.0081234L18.284 0.0081234ZM18.284 0.620123C19.084 0.620123 19.584 1.24112 19.584 2.22012C19.584 3.19912 19.084 3.82512 18.284 3.82512C17.484 3.82512 16.984 3.19512 16.984 2.22012C16.984 1.24512 17.487 0.620123 18.284 0.620123L18.284 0.620123ZM24.747 2.66512L24.747 2.13812L23.013 2.13812L23.013 2.68912L24.103 2.68912L24.103 2.78012C24.1 3.07927 23.9713 3.36335 23.7483 3.56277C23.5253 3.76219 23.2286 3.8585 22.931 3.82812C22.137 3.82812 21.639 3.21312 21.639 2.21712C21.639 1.23812 22.139 0.617123 22.916 0.617123C23.4356 0.575827 23.9128 0.904837 24.059 1.40512L24.718 1.40512C24.5689 0.544024 23.7893 -0.0623665 22.918 0.00512314C22.3529 0.00378036 21.8147 0.246399 21.4415 0.670736C21.0684 1.09507 20.8965 1.65983 20.97 2.22012C20.8923 2.78219 21.0632 3.35022 21.438 3.77616C21.8129 4.20211 22.3546 4.44376 22.922 4.43812C23.4082 4.47876 23.8881 4.30693 24.238 3.96699C24.5879 3.62704 24.7736 3.15226 24.747 2.66512L24.747 2.66512Z" transform="translate(5.2049866 27.661877)" id="Shape" fill="#D0C9D2" fill-rule="evenodd" stroke="none" />
    </g>
  </g>
</svg>