<?xml version="1.0" encoding="utf-8"?>
<svg width="11px" height="22px" viewBox="0 0 11 22" version="1.1" xmlns:xlink="http://www.w3.org/1999/xlink" xmlns="http://www.w3.org/2000/svg">
  <defs>
    <rect width="11" height="22" id="artboard_1" />
    <clipPath id="clip_1">
      <use xlink:href="#artboard_1" clip-rule="evenodd" />
    </clipPath>
  </defs>
  <g id="hover00121" clip-path="url(#clip_1)">
    <path d="M0.500004 2.50019L0.500004 1.50008C0.500004 1.22391 0.597645 0.988185 0.792927 0.792907C0.988204 0.597626 1.22393 0.499985 1.5001 0.499985L9.49991 0.499985C9.7761 0.499985 10.0118 0.597626 10.2071 0.792907C10.4024 0.988185 10.5 1.22391 10.5 1.50008L10.5 9.49989C10.5 9.77608 10.4024 10.0118 10.2071 10.2071C10.0118 10.4023 9.7761 10.5 9.49991 10.5L1.5001 10.5C1.22393 10.5 0.988204 10.4023 0.792927 10.2071C0.597645 10.0118 0.500004 9.77608 0.500004 9.49989L0.500004 2.50019L0.500004 2.50019Z" id="rect36680" fill="#FFFFFF" fill-opacity="0.14117648" fill-rule="evenodd" stroke="none" />
    <path d="M0.500004 13.5L0.500004 12.5C0.500004 12.2238 0.597635 11.9882 0.792897 11.7929C0.988158 11.5976 1.22386 11.5 1.5 11.5L9.5 11.5C9.77619 11.5 10.0118 11.5976 10.2071 11.7929C10.4024 11.9882 10.5 12.2238 10.5 12.5L10.5 20.5C10.5 20.7762 10.4024 21.0118 10.2071 21.2071C10.0118 21.4023 9.77619 21.5 9.5 21.5L1.5 21.5C1.22386 21.5 0.988158 21.4023 0.792897 21.2071C0.597635 21.0118 0.500004 20.7762 0.500004 20.5L0.500004 13.5L0.500004 13.5Z" id="rect36696" fill="#FFFFFF" fill-opacity="0.14117648" fill-rule="evenodd" stroke="none" />
  </g>
</svg>