<?xml version="1.0" encoding="utf-8"?>
<svg width="36px" height="256px" viewbox="0 0 36 256" version="1.1" xmlns:xlink="http://www.w3.org/1999/xlink" xmlns="http://www.w3.org/2000/svg">
  <defs>
    <rect width="36" height="256" id="artboard_1" />
    <clipPath id="clip_1">
      <use xlink:href="#artboard_1" clip-rule="evenodd" />
    </clipPath>
  </defs>
  <g id="hoverOn00120" clip-path="url(#clip_1)">
    <g id="Group" transform="translate(-6.1035156E-05 1.9073486E-05)">
      <path d="M0 0L33 0L33 8L0 8L0 0Z" transform="translate(3 0)" id="Rectangle" fill="#B48B75" fill-opacity="0.8" fill-rule="evenodd" stroke="none" />
      <path d="M0 0L2 0L2 8L0 8L0 0Z" id="Rectangle" fill="#F7DF5F" fill-rule="evenodd" stroke="none" />
      <path d="M1.99287 0.000358701C1.42254 -0.010558 0.875899 0.228162 0.496271 0.653922C0.116643 1.07968 -0.0580978 1.65001 0.0178695 2.21536C-0.0591583 2.78091 0.115209 3.35185 0.495068 3.77787C0.874928 4.20389 1.42222 4.44231 1.99287 4.43036C2.56253 4.44092 3.10831 4.2018 3.48674 3.77588C3.86518 3.34995 4.0384 2.77982 3.96087 2.21536C4.03875 1.65083 3.86566 1.0805 3.48715 0.654483C3.10864 0.228469 2.56264 -0.0105437 1.99287 0.000358701L1.99287 0.000358701ZM1.99287 0.612359C2.79287 0.612359 3.29287 1.23336 3.29287 2.21236C3.29287 3.19136 2.79587 3.82036 1.99287 3.82036C1.18987 3.82036 0.69287 3.19036 0.69287 2.21536C0.69287 1.24036 1.19587 0.612359 1.99287 0.612359L1.99287 0.612359ZM5.50587 4.33036L5.50587 2.57836L7.32187 2.57836L7.32187 1.99836L5.50587 1.99836L5.50587 0.698359L7.48887 0.698359L7.48887 0.0983588L4.84887 0.0983588L4.84887 4.33036L5.50587 4.33036ZM8.99487 4.33036L8.99487 2.57836L10.8109 2.57836L10.8109 1.99836L8.99487 1.99836L8.99487 0.698359L10.9779 0.698359L10.9779 0.0983588L8.33887 0.0983588L8.33887 4.33036L8.99487 4.33036Z" transform="translate(5.339142 1.6696414)" id="Shape" fill="#F9C442" fill-rule="evenodd" stroke="none" />
      <path d="M0 0L33 0L33 8L0 8L0 0Z" transform="translate(3 62)" id="Rectangle" fill="#B48B75" fill-opacity="0.8" fill-rule="evenodd" stroke="none" />
      <path d="M0 0L2 0L2 8L0 8L0 0Z" transform="translate(0 62)" id="Rectangle" fill="#F7DF5F" fill-rule="evenodd" stroke="none" />
      <path d="M0 3.20173C0.0469999 3.95773 0.677 4.43872 1.614 4.43872C2.614 4.43872 3.243 3.93173 3.243 3.12373C3.243 2.48773 2.886 2.13672 2.018 1.93473L1.552 1.82073C1.001 1.69172 0.779 1.52073 0.779 1.22073C0.779 0.839725 1.125 0.590725 1.643 0.590725C2.0605 0.536198 2.44976 0.811817 2.537 1.22373L3.176 1.22373C3.09025 0.467609 2.40822 -0.0761375 1.652 0.00872421C0.729 0.00872421 0.114 0.508724 0.114 1.26273C0.114 1.88372 0.463 2.25273 1.227 2.43173L1.772 2.56372C2.332 2.69573 2.578 2.88873 2.578 3.21073C2.578 3.58573 2.191 3.85772 1.664 3.85772C1.099 3.85772 0.706 3.60273 0.65 3.20173L0 3.20173ZM5.906 0.00872421C5.33585 -0.0018959 4.78948 0.236954 4.41008 0.662678C4.03067 1.0884 3.85606 1.65856 3.932 2.22373C3.855 2.7891 4.02924 3.35987 4.40887 3.78585C4.78851 4.21183 5.33552 4.45037 5.906 4.43872C6.47583 4.44958 7.02189 4.2106 7.40055 3.78463C7.77921 3.35866 7.95256 2.78836 7.875 2.22373C7.95291 1.65902 7.77969 1.08851 7.40095 0.662464C7.02222 0.236412 6.47594 -0.00247192 5.906 0.00872421L5.906 0.00872421ZM5.906 0.620724C6.706 0.620724 7.206 1.24173 7.206 2.22073C7.206 3.19973 6.709 3.82872 5.906 3.82872C5.103 3.82872 4.606 3.19873 4.606 2.22373C4.606 1.24873 5.109 0.620724 5.906 0.620724L5.906 0.620724ZM9.419 4.33873L9.419 2.58673L11.235 2.58673L11.235 2.00673L9.419 2.00673L9.419 0.706722L11.402 0.706722L11.402 0.106728L8.763 0.106728L8.763 4.33873L9.419 4.33873ZM13.981 4.33873L13.981 0.708729L15.308 0.708729L15.308 0.108727L11.994 0.108727L11.994 0.708729L13.324 0.708729L13.324 4.33873L13.981 4.33873Z" transform="translate(5.3309937 63.661274)" id="Shape" fill="#F9C442" fill-rule="evenodd" stroke="none" />
      <path d="M0 0L33 0L33 8L0 8L0 0Z" transform="translate(3 124)" id="Rectangle" fill="#B48B75" fill-opacity="0.8" fill-rule="evenodd" stroke="none" />
      <path d="M0 0L2 0L2 8L0 8L0 0Z" transform="translate(0 124)" id="Rectangle" fill="#F7DF5F" fill-rule="evenodd" stroke="none" />
      <path d="M3.481 4.23431L3.481 0.00630951L2.827 0.00630951L2.827 1.7813L0.657 1.7813L0.657 0.00630951L0 0.00630951L0 4.23431L0.656 4.23431L0.656 2.3803L2.827 2.3803L2.827 4.23431L3.481 4.23431ZM7.281 4.23431L7.981 4.23431L6.449 0.00630951L5.742 0.00630951L4.216 4.23431L4.89 4.23431L5.28 3.11231L6.891 3.11231L7.281 4.23431ZM6.062 0.774307L6.112 0.774307L6.724 2.5613L5.447 2.5613L6.062 0.774307ZM9.362 0.584305L10.288 0.584305C10.4982 0.555946 10.7103 0.621605 10.8677 0.763802C11.0251 0.905991 11.1119 1.11029 11.105 1.3223C11.1197 1.53368 11.0378 1.7403 10.8824 1.88428C10.7269 2.02825 10.5146 2.09408 10.305 2.06331L9.37 2.06331L9.362 0.584305ZM9.362 2.62331L10.288 2.62331L11.154 4.23431L11.913 4.23431L10.964 2.51431C11.4748 2.33834 11.8086 1.84697 11.784 1.3073C11.7963 0.941017 11.649 0.58741 11.3805 0.33802C11.1119 0.0886383 10.7484 -0.0320129 10.384 0.00730896L8.71 0.00730896L8.71 4.23431L9.37 4.23431L9.362 2.62331ZM12.714 0.00730896L12.714 4.23431L14.24 4.23431C14.8033 4.27247 15.3538 4.05535 15.7394 3.643C16.125 3.23063 16.3048 2.66676 16.229 2.10731C16.2993 1.55147 16.1168 0.99337 15.7315 0.586594C15.3462 0.179817 14.7988 -0.0327835 14.24 0.00730896L12.714 0.00730896ZM13.37 0.607307L14.17 0.607307C14.5677 0.583694 14.9552 0.73925 15.2262 1.03135C15.4972 1.32344 15.6233 1.72144 15.57 2.11631C15.6278 2.5129 15.5036 2.91441 15.2318 3.20902C14.9601 3.50364 14.57 3.6599 14.17 3.6343L13.37 3.6343L13.37 0.607307Z" transform="translate(5.529999 125.7657)" id="Shape" fill="#F9C442" fill-rule="evenodd" stroke="none" />
      <path d="M0 0L33 0L33 8L0 8L0 0Z" transform="translate(3 186)" id="Rectangle" fill="#B48B75" fill-opacity="0.8" fill-rule="evenodd" stroke="none" />
      <path d="M0 0L2 0L2 8L0 8L0 0Z" transform="translate(0 186)" id="Rectangle" fill="#F7DF5F" fill-rule="evenodd" stroke="none" />
      <path d="M3.062 4.33873L3.762 4.33873L2.233 0.110733L1.526 0.110733L0 4.33873L0.674 4.33873L1.064 3.21674L2.675 3.21674L3.062 4.33873ZM1.846 0.878723L1.895 0.878723L2.507 2.66573L1.231 2.66573L1.846 0.878723ZM4.295 3.20174C4.342 3.95773 4.972 4.43874 5.909 4.43874C6.909 4.43874 7.538 3.93173 7.538 3.12373C7.538 2.48773 7.181 2.13673 6.313 1.93472L5.847 1.82072C5.296 1.69173 5.074 1.52074 5.074 1.22073C5.074 0.839737 5.42 0.590729 5.938 0.590729C6.3555 0.536194 6.74476 0.811813 6.832 1.22372L7.471 1.22372C7.38525 0.467606 6.70322 -0.0761261 5.947 0.00872803C5.024 0.00872803 4.409 0.508728 4.409 1.26273C4.409 1.88373 4.758 2.25273 5.522 2.43173L6.067 2.56374C6.627 2.69572 6.873 2.88873 6.873 3.21072C6.873 3.58572 6.486 3.85773 5.959 3.85773C5.394 3.85773 5.001 3.60274 4.945 3.20174L4.295 3.20174ZM10.131 4.33873L10.131 2.63373L11.622 0.111725L10.895 0.111725L9.829 1.93874L9.779 1.93874L8.716 0.110733L7.986 0.110733L9.475 2.63373L9.475 4.33873L10.131 4.33873ZM16.638 4.33873L16.638 0.110733L15.87 0.110733L14.523 3.32173L14.473 3.32173L13.128 0.110733L12.36 0.110733L12.36 4.33873L12.969 4.33873L12.969 1.28574L13.01 1.28574L14.249 4.21573L14.749 4.21573L15.988 1.28574L16.029 1.28574L16.029 4.33873L16.638 4.33873Z" transform="translate(5.2049866 187.66127)" id="Shape" fill="#F9C442" fill-rule="evenodd" stroke="none" />
      <path d="M0 0L33 0L33 8L0 8L0 0Z" transform="translate(3 248)" id="Rectangle" fill="#B48B75" fill-opacity="0.8" fill-rule="evenodd" stroke="none" />
      <path d="M0 0L2 0L2 8L0 8L0 0Z" transform="translate(0 248)" id="Rectangle" fill="#F7DF5F" fill-rule="evenodd" stroke="none" />
      <path d="M0 3.20174C0.0469999 3.95773 0.677 4.43874 1.614 4.43874C2.614 4.43874 3.243 3.93173 3.243 3.12373C3.243 2.48773 2.886 2.13673 2.018 1.93472L1.552 1.82072C1.001 1.69173 0.779 1.52074 0.779 1.22073C0.779 0.839737 1.125 0.590729 1.643 0.590729C2.0605 0.536194 2.44976 0.811813 2.537 1.22372L3.176 1.22372C3.09025 0.467606 2.40822 -0.0761261 1.652 0.00872803C0.729 0.00872803 0.114 0.508728 0.114 1.26273C0.114 1.88373 0.463 2.25273 1.227 2.43173L1.772 2.56374C2.332 2.69572 2.578 2.88873 2.578 3.21072C2.578 3.58572 2.191 3.85773 1.664 3.85773C1.099 3.85773 0.706 3.60274 0.65 3.20174L0 3.20174ZM5.105 4.33873L5.105 0.110733L4.105 0.110733L4.105 4.33873L5.105 4.33873ZM6.461 4.33873L6.461 1.33873L6.508 1.33873L8.675 4.33873L9.269 4.33873L9.269 0.110733L8.628 0.110733L8.628 3.11073L8.581 3.11073L6.41 0.110733L5.818 0.110733L5.818 4.33873L6.461 4.33873ZM13.015 3.73872L10.983 3.73872L10.983 2.47273L12.902 2.47273L12.902 1.90472L10.983 1.90472L10.983 0.704727L13.01 0.704727L13.01 0.104736L10.327 0.104736L10.327 4.33873L13.011 4.33873L13.015 3.73872Z" transform="translate(5.3309937 249.66127)" id="Shape" fill="#F9C442" fill-rule="evenodd" stroke="none" />
    </g>
  </g>
</svg>