<?xml version="1.0" encoding="utf-8"?>
<svg width="90px" height="112px" viewBox="0 0 90 112" version="1.1" xmlns:xlink="http://www.w3.org/1999/xlink" xmlns="http://www.w3.org/2000/svg">
  <defs>
    <rect width="90" height="112" id="artboard_1" />
    <clipPath id="clip_1">
      <use xlink:href="#artboard_1" clip-rule="evenodd" />
    </clipPath>
  </defs>
  <g id="hover00117" clip-path="url(#clip_1)">
    <path d="M-3.05176e-05 4.99995L-3.05176e-05 3.99995C-3.05176e-05 3.72381 0.0976006 3.48811 0.292862 3.29285C0.488124 3.09759 0.723827 2.99995 0.999969 2.99995L11 2.99995C11.2761 2.99995 11.5118 3.09759 11.7071 3.29285C11.9024 3.48811 12 3.72381 12 3.99995L12 14C12 14.2761 11.9024 14.5118 11.7071 14.7071C11.5118 14.9024 11.2761 15 11 15L0.999969 15C0.723827 15 0.488124 14.9024 0.292862 14.7071C0.0976006 14.5118 -3.05176e-05 14.2761 -3.05176e-05 14L-3.05176e-05 4.99995L-3.05176e-05 4.99995L-3.05176e-05 4.99995Z" id="Rectangle" fill="#FFFFFF" fill-opacity="0.4" fill-rule="evenodd" stroke="none" />
    <path d="M-3.05176e-05 1.49995C-3.05176e-05 1.36188 0.048785 1.24403 0.146416 1.1464C0.244047 1.04877 0.361898 0.999954 0.499969 0.999954L11.5 0.999954C11.6381 0.999954 11.7559 1.04877 11.8536 1.1464C11.9512 1.24403 12 1.36188 12 1.49995C12 1.63803 11.9512 1.75588 11.8536 1.85351C11.7559 1.95114 11.6381 1.99995 11.5 1.99995L0.499969 1.99995C0.361898 1.99995 0.244047 1.95114 0.146416 1.85351C0.048785 1.75588 -3.05176e-05 1.63803 -3.05176e-05 1.49995L-3.05176e-05 1.49995L-3.05176e-05 1.49995L-3.05176e-05 1.49995Z" id="Rectangle#1" fill="#FFFFFF" fill-opacity="0.5019608" fill-rule="evenodd" stroke="none" />
    <path d="M4.71498 10.3169L4.71498 9.31694L2.15198 9.31694L2.15198 10.3169L4.71498 10.3169L4.71498 10.3169L4.71498 10.3169ZM7.17599 9.46894L7.88699 9.46894C8.62499 9.46894 9.08699 9.83194 9.08699 10.4139C9.08699 10.9689 8.60299 11.3629 7.91499 11.3629C7.22699 11.3629 6.75799 11.0159 6.69999 10.4689L5.85999 10.4689C5.89979 10.9665 6.1413 11.4261 6.52846 11.7411C6.91562 12.0561 7.41475 12.1992 7.90999 12.1369C8.4075 12.1948 8.90733 12.0496 9.29637 11.7342C9.68542 11.4187 9.9308 10.9597 9.97699 10.4609C10.0116 9.74088 9.45787 9.12818 8.73799 9.08994L8.73799 9.02394C9.34763 8.89692 9.7748 8.34601 9.74599 7.72394C9.7025 7.27851 9.48204 6.86918 9.13405 6.58774C8.78606 6.3063 8.33967 6.17632 7.89499 6.22695C7.41769 6.17233 6.93922 6.319 6.57452 6.63171C6.20982 6.94442 5.99185 7.3949 5.97299 7.87494L6.79999 7.87494C6.81669 7.61234 6.94022 7.36804 7.14182 7.19894C7.34342 7.02984 7.60549 6.9507 7.86699 6.97995C8.47999 6.97995 8.88299 7.32394 8.88299 7.84694C8.87837 8.10618 8.76481 8.35149 8.57015 8.52275C8.37547 8.69401 8.1177 8.77539 7.85999 8.74694L7.17599 8.74694L7.17599 9.46894L7.17599 9.46894L7.17599 9.46894Z" id="Shape" fill="#DBD7D7" fill-rule="evenodd" stroke="none" />
    <path d="M13 21L13 20C13 19.7238 13.0976 19.4881 13.2929 19.2928C13.4882 19.0976 13.7239 19 14 19L24 19C24.2761 19 24.5118 19.0976 24.7071 19.2928C24.9024 19.4881 25 19.7238 25 20L25 30C25 30.2761 24.9024 30.5118 24.7071 30.7071C24.5118 30.9024 24.2761 31 24 31L14 31C13.7239 31 13.4882 30.9024 13.2929 30.7071C13.0976 30.5118 13 30.2761 13 30L13 21L13 21L13 21Z" id="Rectangle#2" fill="#FFFFFF" fill-opacity="0.4" fill-rule="evenodd" stroke="none" />
    <path d="M13 17.5C13 17.3619 13.0488 17.244 13.1464 17.1464C13.2441 17.0488 13.3619 17 13.5 17L24.5 17C24.6381 17 24.7559 17.0488 24.8536 17.1464C24.9512 17.244 25 17.3619 25 17.5C25 17.638 24.9512 17.7559 24.8536 17.8535C24.7559 17.9511 24.6381 18 24.5 18L13.5 18C13.3619 18 13.2441 17.9511 13.1464 17.8535C13.0488 17.7559 13 17.638 13 17.5L13 17.5L13 17.5L13 17.5Z" id="Rectangle#3" fill="#FFFFFF" fill-opacity="0.5019608" fill-rule="evenodd" stroke="none" />
    <path d="M17.8109 26.317L17.8109 25.317L15.2479 25.317L15.2479 26.317L17.8109 26.317L17.8109 26.317L17.8109 26.317ZM18.9939 23.992L18.9939 24L19.8219 24L19.8219 23.9879C19.8116 23.7124 19.9189 23.4455 20.1172 23.2539C20.3155 23.0623 20.5859 22.9641 20.8609 22.984C21.117 22.9631 21.3706 23.0471 21.5635 23.2168C21.7564 23.3865 21.872 23.6273 21.8839 23.884C21.8839 24.298 21.6999 24.595 20.9469 25.384L19.0409 27.367L19.0409 28L22.8409 28L22.8409 27.215L20.2599 27.215L20.2599 27.148L21.5139 25.878C22.4589 24.9209 22.7479 24.433 22.7479 23.8349C22.7249 23.3713 22.5133 22.9373 22.1622 22.6336C21.8111 22.3299 21.3511 22.183 20.8889 22.227C20.3982 22.1886 19.9139 22.3577 19.5537 22.6932C19.1935 23.0286 18.9905 23.4998 18.9939 23.992L18.9939 23.992L18.9939 23.992L18.9939 23.992Z" id="Shape#1" fill="#DBD7D7" fill-rule="evenodd" stroke="none" />
    <path d="M26 37L26 36C26 35.7238 26.0976 35.4881 26.2929 35.2928C26.4882 35.0976 26.7239 35 27 35L37 35C37.2761 35 37.5118 35.0976 37.7071 35.2928C37.9024 35.4881 38 35.7238 38 36L38 46C38 46.2761 37.9024 46.5118 37.7071 46.7071C37.5118 46.9024 37.2761 47 37 47L27 47C26.7239 47 26.4882 46.9024 26.2929 46.7071C26.0976 46.5118 26 46.2761 26 46L26 37L26 37L26 37Z" id="Rectangle#4" fill="#FFFFFF" fill-opacity="0.4" fill-rule="evenodd" stroke="none" />
    <path d="M26 33.5C26 33.3619 26.0488 33.244 26.1464 33.1464C26.2441 33.0488 26.3619 33 26.5 33L37.5 33C37.6381 33 37.7559 33.0488 37.8536 33.1464C37.9512 33.244 38 33.3619 38 33.5C38 33.638 37.9512 33.7559 37.8536 33.8535C37.7559 33.9511 37.6381 34 37.5 34L26.5 34C26.3619 34 26.2441 33.9511 26.1464 33.8535C26.0488 33.7559 26 33.638 26 33.5L26 33.5L26 33.5L26 33.5Z" id="Rectangle#5" fill="#FFFFFF" fill-opacity="0.5019608" fill-rule="evenodd" stroke="none" />
    <path d="M31.3519 42.3169L31.3519 41.3169L28.7889 41.3169L28.7889 42.3169L31.3519 42.3169L31.3519 42.3169L31.3519 42.3169ZM33.9339 43.9999L34.8089 43.9999L34.8089 38.3629L33.9379 38.3629L32.4529 39.4099L32.4529 40.2999L33.8669 39.2999L33.9329 39.2999L33.9339 43.9999L33.9339 43.9999L33.9339 43.9999Z" id="Shape#2" fill="#DBD7D7" fill-rule="evenodd" stroke="none" />
    <path d="M39 53L39 52C39 51.7238 39.0976 51.4881 39.2929 51.2928C39.4882 51.0976 39.7239 51 40 51L50 51C50.2761 51 50.5118 51.0976 50.7071 51.2928C50.9024 51.4881 51 51.7238 51 52L51 62C51 62.2761 50.9024 62.5118 50.7071 62.7071C50.5118 62.9024 50.2761 63 50 63L40 63C39.7239 63 39.4882 62.9024 39.2929 62.7071C39.0976 62.5118 39 62.2761 39 62L39 53L39 53L39 53Z" id="Rectangle#6" fill="#FFFFFF" fill-opacity="0.4" fill-rule="evenodd" stroke="none" />
    <path d="M39 49.5C39 49.3619 39.0488 49.244 39.1464 49.1464C39.2441 49.0488 39.3619 49 39.5 49L50.5 49C50.6381 49 50.7559 49.0488 50.8536 49.1464C50.9512 49.244 51 49.3619 51 49.5C51 49.638 50.9512 49.7559 50.8536 49.8535C50.7559 49.9511 50.6381 50 50.5 50L39.5 50C39.3619 50 39.2441 49.9511 39.1464 49.8535C39.0488 49.7559 39 49.638 39 49.5L39 49.5L39 49.5L39 49.5Z" id="Rectangle#7" fill="#FFFFFF" fill-opacity="0.5019608" fill-rule="evenodd" stroke="none" />
    <path d="M45 60.137C46.313 60.137 47.078 59.055 47.078 57.184C47.078 55.313 46.3 54.227 45 54.227C43.7 54.227 42.918 55.313 42.918 57.176C42.918 59.039 43.688 60.137 45 60.137L45 60.137L45 60.137L45 60.137ZM45 59.371C44.234 59.371 43.8 58.601 43.8 57.171C43.8 55.761 44.245 54.987 45 54.987C45.755 54.987 46.2 55.757 46.2 57.171C46.2 58.6049 45.77 59.371 45 59.371L45 59.371L45 59.371L45 59.371Z" id="Shape#3" fill="#DBD7D7" fill-rule="evenodd" stroke="none" />
    <path d="M52 69L52 68C52 67.7238 52.0976 67.4881 52.2929 67.2928C52.4882 67.0976 52.7239 67 53 67L63 67C63.2761 67 63.5118 67.0976 63.7071 67.2928C63.9024 67.4881 64 67.7238 64 68L64 78C64 78.2761 63.9024 78.5118 63.7071 78.7071C63.5118 78.9024 63.2761 79 63 79L53 79C52.7239 79 52.4882 78.9024 52.2929 78.7071C52.0976 78.5118 52 78.2761 52 78L52 69L52 69L52 69Z" id="Rectangle#8" fill="#FFFFFF" fill-opacity="0.4" fill-rule="evenodd" stroke="none" />
    <path d="M52 65.5C52 65.3619 52.0488 65.244 52.1464 65.1464C52.2441 65.0488 52.3619 65 52.5 65L63.5 65C63.6381 65 63.7559 65.0488 63.8536 65.1464C63.9512 65.244 64 65.3619 64 65.5C64 65.638 63.9512 65.7559 63.8536 65.8535C63.7559 65.9511 63.6381 66 63.5 66L52.5 66C52.3619 66 52.2441 65.9511 52.1464 65.8535C52.0488 65.7559 52 65.638 52 65.5L52 65.5L52 65.5L52 65.5Z" id="Rectangle#9" fill="#FFFFFF" fill-opacity="0.5019608" fill-rule="evenodd" stroke="none" />
    <path d="M58.0289 75.9999L58.9 75.9999L58.9 70.3629L58.033 70.3629L56.549 71.4099L56.549 72.2999L57.963 71.2999L58.0289 71.2999L58.0289 75.9999L58.0289 75.9999L58.0289 75.9999Z" id="Shape#4" fill="#DBD7D7" fill-rule="evenodd" stroke="none" />
    <path d="M65 85L65 84C65 83.7238 65.0976 83.4881 65.2929 83.2928C65.4882 83.0976 65.7239 83 66 83L76 83C76.2761 83 76.5118 83.0976 76.7071 83.2928C76.9024 83.4881 77 83.7238 77 84L77 94C77 94.2761 76.9024 94.5118 76.7071 94.7071C76.5118 94.9024 76.2761 95 76 95L66 95C65.7239 95 65.4882 94.9024 65.2929 94.7071C65.0976 94.5118 65 94.2761 65 94L65 85L65 85L65 85Z" id="Rectangle#10" fill="#FFFFFF" fill-opacity="0.4" fill-rule="evenodd" stroke="none" />
    <path d="M65 81.5C65 81.3619 65.0488 81.244 65.1464 81.1464C65.2441 81.0488 65.3619 81 65.5 81L76.5 81C76.6381 81 76.7559 81.0488 76.8536 81.1464C76.9512 81.244 77 81.3619 77 81.5C77 81.638 76.9512 81.7559 76.8536 81.8535C76.7559 81.9511 76.6381 82 76.5 82L65.5 82C65.3619 82 65.2441 81.9511 65.1464 81.8535C65.0488 81.7559 65 81.638 65 81.5L65 81.5L65 81.5L65 81.5Z" id="Rectangle#11" fill="#FFFFFF" fill-opacity="0.5019608" fill-rule="evenodd" stroke="none" />
    <path d="M69.09 87.992L69.09 88L69.918 88L69.918 87.9879C69.9076 87.7124 70.015 87.4455 70.2133 87.2539C70.4116 87.0623 70.682 86.9641 70.957 86.984C71.2131 86.9631 71.4667 87.0471 71.6596 87.2168C71.8524 87.3865 71.9681 87.6273 71.98 87.884C71.98 88.3 71.8 88.6 71.043 89.383L69.137 91.367L69.137 91.9999L72.937 91.9999L72.937 91.215L70.355 91.215L70.355 91.148L71.609 89.879C72.554 88.922 72.843 88.434 72.843 87.836C72.8202 87.3721 72.6087 86.9378 72.2576 86.6339C71.9065 86.33 71.4463 86.183 70.984 86.227C70.4935 86.1889 70.0094 86.3581 69.6495 86.6936C69.2895 87.029 69.0866 87.4999 69.09 87.992L69.09 87.992L69.09 87.992L69.09 87.992Z" id="Shape#5" fill="#DBD7D7" fill-rule="evenodd" stroke="none" />
    <path d="M78 101L78 100C78 99.7238 78.0976 99.4881 78.2929 99.2928C78.4882 99.0976 78.7239 99 79 99L89 99C89.2761 99 89.5118 99.0976 89.7071 99.2928C89.9024 99.4881 90 99.7238 90 100L90 110C90 110.276 89.9024 110.512 89.7071 110.707C89.5118 110.902 89.2761 111 89 111L79 111C78.7239 111 78.4882 110.902 78.2929 110.707C78.0976 110.512 78 110.276 78 110L78 101L78 101L78 101Z" id="Rectangle#12" fill="#FFFFFF" fill-opacity="0.4" fill-rule="evenodd" stroke="none" />
    <path d="M78 97.5C78 97.3619 78.0488 97.244 78.1464 97.1464C78.2441 97.0488 78.3619 97 78.5 97L89.5 97C89.6381 97 89.7559 97.0488 89.8536 97.1464C89.9512 97.244 90 97.3619 90 97.5C90 97.638 89.9512 97.7559 89.8536 97.8535C89.7559 97.9511 89.6381 98 89.5 98L78.5 98C78.3619 98 78.2441 97.9511 78.1464 97.8535C78.0488 97.7559 78 97.638 78 97.5L78 97.5L78 97.5L78 97.5Z" id="Rectangle#13" fill="#FFFFFF" fill-opacity="0.5019608" fill-rule="evenodd" stroke="none" />
    <path d="M83.271 105.469L83.982 105.469C84.72 105.469 85.182 105.832 85.182 106.414C85.182 106.969 84.698 107.363 84.01 107.363C83.322 107.363 82.854 107.016 82.8 106.469L81.96 106.469C81.9998 106.966 82.2408 107.425 82.627 107.74C83.0133 108.054 83.5114 108.198 84.006 108.137C84.5033 108.195 85.0029 108.049 85.3917 107.734C85.7805 107.418 86.0258 106.96 86.072 106.461C86.1066 105.741 85.5534 105.129 84.834 105.09L84.834 105.024C85.4436 104.897 85.8708 104.346 85.842 103.724C85.7985 103.278 85.5779 102.869 85.2297 102.587C84.8815 102.306 84.4348 102.176 83.99 102.227C83.5127 102.172 83.0342 102.319 82.6695 102.632C82.3048 102.944 82.0868 103.395 82.068 103.875L82.9 103.875C82.9167 103.613 83.0397 103.37 83.2404 103.201C83.4411 103.032 83.7021 102.952 83.963 102.98C84.576 102.98 84.979 103.324 84.979 103.847C84.9743 104.106 84.8608 104.352 84.6661 104.523C84.4715 104.694 84.2137 104.775 83.956 104.747L83.271 104.747L83.271 105.469L83.271 105.469L83.271 105.469Z" id="Shape#6" fill="#DBD7D7" fill-rule="evenodd" stroke="none" />
  </g>
</svg>