<?xml version="1.0" encoding="utf-8"?>
<svg width="36px" height="53px" viewBox="0 0 36 53" version="1.1" xmlns:xlink="http://www.w3.org/1999/xlink" xmlns="http://www.w3.org/2000/svg">
  <defs>
    <rect width="36" height="53" id="artboard_1" />
    <clipPath id="clip_1">
      <use xlink:href="#artboard_1" clip-rule="evenodd" />
    </clipPath>
  </defs>
  <g id="hover00183" clip-path="url(#clip_1)">
    <path d="M1.999 1.5L34.001 1.5Q34.0746 1.5 34.1479 1.50722Q34.2212 1.51444 34.2934 1.5288Q34.3657 1.54317 34.4361 1.56455Q34.5066 1.58592 34.5746 1.6141Q34.6427 1.64229 34.7076 1.677Q34.7726 1.71171 34.8338 1.75263Q34.895 1.79354 34.952 1.84026Q35.0089 1.88697 35.061 1.93905Q35.113 1.99112 35.1597 2.04804Q35.2065 2.10497 35.2474 2.1662Q35.2883 2.22743 35.323 2.29238Q35.3577 2.35732 35.3859 2.42536Q35.4141 2.49339 35.4355 2.56386Q35.4568 2.63433 35.4712 2.70656Q35.4856 2.77879 35.4928 2.85207Q35.5 2.92536 35.5 2.999L35.5 12.45L0.5 12.45L0.5 2.999Q0.5 2.92536 0.507218 2.85207Q0.514436 2.77879 0.528803 2.70656Q0.543169 2.63433 0.564546 2.56386Q0.585923 2.49339 0.614105 2.42536Q0.642286 2.35732 0.677 2.29238Q0.711714 2.22743 0.752627 2.1662Q0.79354 2.10497 0.840257 2.04804Q0.886975 1.99112 0.939047 1.93905Q0.991119 1.88697 1.04804 1.84026Q1.10497 1.79354 1.1662 1.75263Q1.22743 1.71171 1.29238 1.677Q1.35732 1.64229 1.42536 1.6141Q1.49339 1.58592 1.56386 1.56455Q1.63433 1.54317 1.70656 1.5288Q1.77879 1.51444 1.85207 1.50722Q1.92536 1.5 1.999 1.5L1.999 1.5Z" id="Rectangle" fill="#FFFFFF" fill-opacity="0.4" fill-rule="evenodd" stroke="none" />
  </g>
</svg>