<?xml version="1.0" encoding="utf-8"?>
<svg width="33px" height="26px" viewBox="0 0 33 26" version="1.1" xmlns:xlink="http://www.w3.org/1999/xlink" xmlns="http://www.w3.org/2000/svg">
  <defs>
    <rect width="33" height="26" id="artboard_1" />
    <clipPath id="clip_1">
      <use xlink:href="#artboard_1" clip-rule="evenodd" />
    </clipPath>
  </defs>
  <g id="wstypearrows" clip-path="url(#clip_1)">
    <path d="M2.71041 14.0003L16.2896 14.0003C17.2372 14.0003 18 14.7631 18 15.7107L18 23.2899L18 25.0003L2.71041 25.0003C1.76284 25.0003 1 24.2375 1 23.2899L1 15.7107C1 14.7631 1.76284 14.0003 2.71041 14.0003L2.71041 14.0003Z" id="Shape" fill="#959197" fill-opacity="0.27450982" fill-rule="evenodd" stroke="none" />
    <path d="M16.75 24.4926L2.63152 24.4929C1.72766 24.493 1 23.7653 1 22.8614L1 15.6318C1 14.728 1.72766 14.0003 2.63152 14.0003L16.75 14" id="Shape" fill="#0A090A" fill-rule="evenodd" stroke="none" />
    <path d="M2.84643 14.4142L16.25 14.4142L16.25 23.997L2.84643 23.997C2.05588 23.997 1.41943 23.3605 1.41943 22.57L1.41943 15.8412C1.41943 15.0506 2.05588 14.4142 2.84643 14.4142L2.84643 14.4142Z" id="Shape" fill="#655959" fill-rule="evenodd" stroke="none" />
    <path d="M6.92914 19.1463L10.7403 21.433L10.7403 16.8595L6.92914 19.1463L6.92914 19.1463Z" id="Shape" fill="#DBD7D7" fill-rule="evenodd" stroke="none" />
    <path d="M1.41355 15.9428C1.41355 15.8966 1.34752 15.5922 1.61949 15.1213C1.88685 14.6584 2.41248 14.4236 2.69595 14.4234L16.25 14.4142L16.2503 14.9201C16.2503 14.9201 3.12509 14.9203 2.67955 14.9203C1.7607 14.9203 1.41355 15.9962 1.41355 15.9428L1.41355 15.9428Z" id="Shape" fill="#959197" fill-rule="evenodd" stroke="none" />
    <path d="M30.2896 14.0003L19.7113 14.0003C18.7637 14.0003 18.0009 14.7631 18.0009 15.7107L18.0009 23.2899L18.0009 25.0003L30.2896 25.0003C31.2372 25.0003 32 24.2375 32 23.2899L32 15.7107C32 14.7631 31.2372 14.0003 30.2896 14.0003L30.2896 14.0003Z" id="Shape" fill="#959197" fill-opacity="0.27450982" fill-rule="evenodd" stroke="none" />
    <path d="M16.25 24.4926L30.3685 24.4929C31.2723 24.493 32 23.7653 32 22.8614L32 15.6318C32 14.728 31.2723 14.0003 30.3685 14.0003L16.25 14" id="Shape" fill="#0A090A" fill-rule="evenodd" stroke="none" />
    <path d="M30.1536 14.4142L16.75 14.4142L16.75 23.997L30.1536 23.997C30.9441 23.997 31.5806 23.3605 31.5806 22.57L31.5806 15.8412C31.5806 15.0506 30.9441 14.4142 30.1536 14.4142L30.1536 14.4142Z" id="Shape" fill="#655959" fill-rule="evenodd" stroke="none" />
    <path d="M26.0709 19.1463L22.2597 21.433L22.2597 16.8595L26.0709 19.1463L26.0709 19.1463Z" id="Shape" fill="#DBD7D7" fill-rule="evenodd" stroke="none" />
    <path d="M31.5865 15.9428C31.5865 15.8966 31.6525 15.5922 31.3805 15.1213C31.1132 14.6584 30.5875 14.4236 30.3041 14.4234L16.75 14.4142L16.7497 14.9201C16.7497 14.9201 29.8749 14.9203 30.3205 14.9203C31.2393 14.9203 31.5865 15.9962 31.5865 15.9428L31.5865 15.9428Z" id="Shape" fill="#959197" fill-rule="evenodd" stroke="none" />
    <path d="M2.71041 1.00031L16.2896 1.00031C17.2372 1.00031 18 1.7631 18 2.7107L18 10.2899L18 12.0003L2.71041 12.0003C1.76284 12.0003 1 11.2375 1 10.2899L1 2.7107C1 1.7631 1.76284 1.00031 2.71041 1.00031L2.71041 1.00031Z" id="Shape" fill="#959197" fill-opacity="0.27450982" fill-rule="evenodd" stroke="none" />
    <path d="M16.75 11.4926L2.63152 11.4929C1.72766 11.493 1 10.7653 1 9.86141L1 2.6318C1 1.728 1.72766 1.00031 2.63152 1.00031L16.75 1" id="Shape" fill="#0A090A" fill-rule="evenodd" stroke="none" />
    <path d="M2.84643 1.41418L16.25 1.41418L16.25 10.997L2.84643 10.997C2.05588 10.997 1.41943 10.3605 1.41943 9.56998L1.41943 2.84118C1.41943 2.05058 2.05588 1.41418 2.84643 1.41418L2.84643 1.41418Z" id="Shape" fill="#655959" fill-rule="evenodd" stroke="none" />
    <path d="M6.92914 6.1463L10.7403 8.433L10.7403 3.8595L6.92914 6.1463L6.92914 6.1463Z" id="Shape" fill="#DBD7D7" fill-rule="evenodd" stroke="none" />
    <path d="M1.41355 2.94278C1.41355 2.89658 1.34752 2.59218 1.61949 2.12128C1.88685 1.65838 2.41248 1.42358 2.69595 1.42338L16.25 1.41418L16.2503 1.92008C16.2503 1.92008 3.12509 1.92028 2.67955 1.92028C1.7607 1.92028 1.41355 2.99618 1.41355 2.94278L1.41355 2.94278Z" id="Shape" fill="#959197" fill-rule="evenodd" stroke="none" />
    <path d="M30.2896 1.00031L19.7113 1.00031C18.7637 1.00031 18.0009 1.7631 18.0009 2.7107L18.0009 10.2899L18.0009 12.0003L30.2896 12.0003C31.2372 12.0003 32 11.2375 32 10.2899L32 2.7107C32 1.7631 31.2372 1.00031 30.2896 1.00031L30.2896 1.00031Z" id="Shape" fill="#959197" fill-opacity="0.27450982" fill-rule="evenodd" stroke="none" />
    <path d="M16.25 11.4926L30.3685 11.4929C31.2723 11.493 32 10.7653 32 9.86141L32 2.6318C32 1.728 31.2723 1.00031 30.3685 1.00031L16.25 1" id="Shape" fill="#0A090A" fill-rule="evenodd" stroke="none" />
    <path d="M30.1536 1.41418L16.75 1.41418L16.75 10.997L30.1536 10.997C30.9441 10.997 31.5806 10.3605 31.5806 9.56998L31.5806 2.84118C31.5806 2.05058 30.9441 1.41418 30.1536 1.41418L30.1536 1.41418Z" id="Shape" fill="#655959" fill-rule="evenodd" stroke="none" />
    <path d="M26.0709 6.1463L22.2597 8.433L22.2597 3.8595L26.0709 6.1463L26.0709 6.1463Z" id="Shape" fill="#DBD7D7" fill-rule="evenodd" stroke="none" />
    <path d="M31.5865 2.94278C31.5865 2.89658 31.6525 2.59218 31.3805 2.12128C31.1132 1.65838 30.5875 1.42358 30.3041 1.42338L16.75 1.41418L16.7497 1.92008C16.7497 1.92008 29.8749 1.92028 30.3205 1.92028C31.2393 1.92028 31.5865 2.99618 31.5865 2.94278L31.5865 2.94278Z" id="Shape" fill="#959197" fill-rule="evenodd" stroke="none" />
  </g>
</svg>