<?xml version="1.0" encoding="utf-8"?>
<!-- Generator: Adobe Illustrator 23.0.0, SVG Export Plug-In . SVG Version: 6.00 Build 0)  -->
<svg version="1.1" id="Layer_1" xmlns="http://www.w3.org/2000/svg" xmlns:xlink="http://www.w3.org/1999/xlink" x="0px" y="0px"
	 viewBox="0 0 40 84" style="enable-background:new 0 0 40 84;" xml:space="preserve">
<style type="text/css">
	.st0{opacity:0.5;}
	.st1{opacity:0.5;fill:#FFFFFF;}
	.st2{fill:#B4B4B4;}
</style>
<path class="st0" d="M0.5,2.5c0-1.1,0.9-2,2-2h35c1.1,0,2,0.9,2,2v37c0,1.1-0.9,2-2,2h-35c-1.1,0-2-0.9-2-2V2.5z"/>
<path class="st1" d="M3.5,2.5h33c0.6,0,1,0.4,1,1v14c0,0.6-0.4,1-1,1h-33c-0.6,0-1-0.4-1-1v-14C2.5,2.9,2.9,2.5,3.5,2.5z"/>
<path class="st1" d="M3.5,2.5h33c0.6,0,1,0.4,1,1v14c0,0.6-0.4,1-1,1h-33c-0.6,0-1-0.4-1-1v-14C2.5,2.9,2.9,2.5,3.5,2.5z"/>
<path d="M21.8,12.6l-1.4-3.8c-0.1-0.2-0.1-0.4-0.2-0.6c-0.1-0.2-0.1-0.5-0.2-0.8c-0.1,0.3-0.1,0.5-0.2,0.8c-0.1,0.2-0.1,0.4-0.2,0.6
	l-1.4,3.8H21.8z M25.6,17H24c-0.2,0-0.3,0-0.5-0.1c-0.1-0.1-0.2-0.2-0.3-0.4l-0.9-2.4h-4.8l-0.9,2.4c0,0.1-0.1,0.2-0.2,0.3
	C16.4,16.9,16.2,17,16,17h-1.7l4.6-11.6h2.2L25.6,17z"/>
<path class="st2" d="M20.4,36.3c0.4,0,0.7,0,1-0.1c0.3-0.1,0.5-0.2,0.6-0.4c0.2-0.2,0.3-0.3,0.4-0.6c0.1-0.2,0.1-0.4,0.1-0.7
	c0-0.3,0-0.5-0.1-0.7c-0.1-0.2-0.2-0.4-0.4-0.5c-0.2-0.1-0.4-0.3-0.7-0.3c-0.3-0.1-0.6-0.1-1-0.1h-2.2v3.4H20.4z M18.2,28.1v3.3h1.7
	c0.7,0,1.3-0.1,1.7-0.4c0.4-0.3,0.6-0.7,0.6-1.3c0-0.6-0.2-1-0.5-1.3c-0.3-0.3-0.9-0.4-1.6-0.4H18.2z M20,26.4
	c0.8,0,1.4,0.1,1.9,0.2c0.5,0.1,1,0.3,1.3,0.6c0.3,0.3,0.6,0.6,0.8,1s0.2,0.8,0.2,1.3c0,0.3,0,0.5-0.1,0.8c-0.1,0.2-0.2,0.5-0.4,0.7
	c-0.2,0.2-0.4,0.4-0.6,0.6c-0.3,0.2-0.6,0.3-0.9,0.4c1.6,0.4,2.4,1.2,2.4,2.6c0,0.5-0.1,0.9-0.3,1.4c-0.2,0.4-0.5,0.8-0.8,1.1
	c-0.4,0.3-0.8,0.5-1.3,0.7c-0.5,0.2-1.1,0.3-1.8,0.3H16V26.4H20z"/>
<path class="st0" d="M0.5,44.5c0-1.1,0.9-2,2-2h35c1.1,0,2,0.9,2,2v37c0,1.1-0.9,2-2,2h-35c-1.1,0-2-0.9-2-2V44.5z"/>
<path class="st2" d="M21.8,54.6l-1.4-3.8c-0.1-0.2-0.1-0.4-0.2-0.6c-0.1-0.2-0.1-0.5-0.2-0.8c-0.1,0.3-0.1,0.5-0.2,0.8
	c-0.1,0.2-0.1,0.4-0.2,0.6l-1.4,3.8H21.8z M25.6,59H24c-0.2,0-0.3,0-0.5-0.1c-0.1-0.1-0.2-0.2-0.3-0.4l-0.9-2.4h-4.8l-0.9,2.4
	c0,0.1-0.1,0.2-0.2,0.3S16.2,59,16,59h-1.7l4.6-11.6h2.2L25.6,59z"/>
<path class="st1" d="M3.5,65.5h33c0.6,0,1,0.4,1,1v14c0,0.6-0.4,1-1,1h-33c-0.6,0-1-0.4-1-1v-14C2.5,65.9,2.9,65.5,3.5,65.5z"/>
<path class="st1" d="M3.5,65.5h33c0.6,0,1,0.4,1,1v14c0,0.6-0.4,1-1,1h-33c-0.6,0-1-0.4-1-1v-14C2.5,65.9,2.9,65.5,3.5,65.5z"/>
<path d="M20.4,78.3c0.4,0,0.7,0,1-0.1c0.3-0.1,0.5-0.2,0.6-0.4c0.2-0.2,0.3-0.3,0.4-0.6c0.1-0.2,0.1-0.4,0.1-0.7
	c0-0.3,0-0.5-0.1-0.7c-0.1-0.2-0.2-0.4-0.4-0.5c-0.2-0.1-0.4-0.3-0.7-0.3c-0.3-0.1-0.6-0.1-1-0.1h-2.2v3.4H20.4z M18.2,70.1v3.3h1.7
	c0.7,0,1.3-0.1,1.7-0.4c0.4-0.3,0.6-0.7,0.6-1.3c0-0.6-0.2-1-0.5-1.3c-0.3-0.3-0.9-0.4-1.6-0.4H18.2z M20,68.4
	c0.8,0,1.4,0.1,1.9,0.2c0.5,0.1,1,0.3,1.3,0.6c0.3,0.3,0.6,0.6,0.8,1s0.2,0.8,0.2,1.3c0,0.3,0,0.5-0.1,0.8c-0.1,0.2-0.2,0.5-0.4,0.7
	c-0.2,0.2-0.4,0.4-0.6,0.6c-0.3,0.2-0.6,0.3-0.9,0.4c1.6,0.4,2.4,1.2,2.4,2.6c0,0.5-0.1,0.9-0.3,1.4c-0.2,0.4-0.5,0.8-0.8,1.1
	c-0.4,0.3-0.8,0.5-1.3,0.7c-0.5,0.2-1.1,0.3-1.8,0.3H16V68.4H20z"/>
</svg>
