<?xml version="1.0" encoding="utf-8"?>
<!-- Generator: Adobe Illustrator 23.0.0, SVG Export Plug-In . SVG Version: 6.00 Build 0)  -->
<svg version="1.1" id="Layer_1" xmlns="http://www.w3.org/2000/svg" xmlns:xlink="http://www.w3.org/1999/xlink" x="0px" y="0px"
	 viewBox="0 0 399 84" style="enable-background:new 0 0 399 84;" xml:space="preserve">
<style type="text/css">
	.st0{opacity:0.4;fill:none;stroke:#000000;enable-background:new    ;}
	.st1{display:none;}
	.st2{opacity:0.4;fill:#383838;enable-background:new    ;}
	.st3{display:none;opacity:0.4;fill:#020202;enable-background:new    ;}
	.st4{opacity:0.4;fill:#020202;enable-background:new    ;}
	.st5{fill:#2B76BF;}
	.st6{display:none;fill:#2B76BF;}
	.st7{opacity:0.4;enable-background:new    ;}
	.st8{display:none;opacity:0.4;fill:#383838;enable-background:new    ;}
	.st9{display:none;opacity:0.1;}
	.st10{display:inline;fill-rule:evenodd;clip-rule:evenodd;fill:#EEEEEE;}
	.st11{display:inline;fill:none;stroke:#EEEEEE;}
	.st12{display:inline;fill:#EEEEEE;}
</style>
<path class="st0" d="M260.5,7c0,0.6-0.4,1-1,1h-120c-0.6,0-1-0.4-1-1l0,0c0-0.6,0.4-1,1-1h120C260.1,6,260.5,6.4,260.5,7L260.5,7z"
	/>
<path class="st1" d="M144,3.5h-1v2h1V3.5z"/>
<path class="st1" d="M144,8.5h-1v2h1V8.5z"/>
<path class="st1" d="M256,3.5h-1v2h1V3.5z"/>
<path class="st1" d="M256,8.5h-1v2h1V8.5z"/>
<path class="st0" d="M260.5,21c0,0.6-0.4,1-1,1h-120c-0.6,0-1-0.4-1-1l0,0c0-0.6,0.4-1,1-1h120C260.1,20,260.5,20.4,260.5,21
	L260.5,21z"/>
<path class="st1" d="M144,17.5h-1v2h1V17.5z"/>
<path class="st1" d="M144,22.5h-1v2h1V22.5z"/>
<path class="st1" d="M256,17.5h-1v2h1V17.5z"/>
<path class="st1" d="M256,22.5h-1v2h1V22.5z"/>
<path class="st2" d="M200,18h-1v1.5h1V18z"/>
<path class="st2" d="M200,22.5h-1V24h1V22.5z"/>
<path class="st1" d="M144,15.5h-1v2h1V15.5z"/>
<path class="st1" d="M144,24.5h-1v2h1V24.5z"/>
<path class="st1" d="M256,15.5h-1v2h1V15.5z"/>
<path class="st1" d="M256,24.5h-1v2h1V24.5z"/>
<path class="st0" d="M260.5,35c0,0.6-0.4,1-1,1h-120c-0.6,0-1-0.4-1-1l0,0c0-0.6,0.4-1,1-1h120C260.1,34,260.5,34.4,260.5,35
	L260.5,35z"/>
<path class="st3" d="M144,36.5h-1v3h1V36.5z"/>
<path class="st3" d="M152,36.5h-1v2.6h1V36.5z"/>
<path class="st3" d="M160,36.5h-1v2.1h1V36.5z"/>
<path class="st3" d="M168,36.5h-1v1.7h1V36.5z"/>
<path class="st3" d="M176,36.5h-1v1.3h1V36.5z"/>
<path class="st3" d="M184,36.5h-1v0.8h1V36.5z"/>
<path class="st3" d="M192,36.5h-1v0.4h1V36.5z"/>
<path class="st4" d="M200,30.5h-1v3h1V30.5z"/>
<path class="st4" d="M200,36.5h-1v3h1V36.5z"/>
<path class="st3" d="M208,33.1h-1v0.4h1V33.1z"/>
<path class="st3" d="M216,32.6h-1v0.9h1V32.6z"/>
<path class="st3" d="M224,32.2h-1v1.3h1V32.2z"/>
<path class="st3" d="M232,31.8h-1v1.7h1V31.8z"/>
<path class="st3" d="M240,31.4h-1v2.1h1V31.4z"/>
<path class="st3" d="M248,30.9h-1v2.6h1V30.9z"/>
<path class="st3" d="M256,30.5h-1v3h1V30.5z"/>
<path class="st5" d="M393.5,7c0,0.6-0.4,1-1,1h-120c-0.6,0-1-0.4-1-1l0,0c0-0.6,0.4-1,1-1h120C393.1,6,393.5,6.4,393.5,7L393.5,7z"
	/>
<path class="st1" d="M277,3.5h-1v2h1V3.5z"/>
<path class="st1" d="M277,8.5h-1v2h1V8.5z"/>
<path class="st1" d="M389,3.5h-1v2h1V3.5z"/>
<path class="st1" d="M389,8.5h-1v2h1V8.5z"/>
<path class="st5" d="M393.5,21c0,0.6-0.4,1-1,1h-120c-0.6,0-1-0.4-1-1l0,0c0-0.6,0.4-1,1-1h120C393.1,20,393.5,20.4,393.5,21
	L393.5,21z"/>
<path class="st1" d="M277,17.5h-1v2h1V17.5z"/>
<path class="st1" d="M277,22.5h-1v2h1V22.5z"/>
<path class="st1" d="M389,17.5h-1v2h1V17.5z"/>
<path class="st1" d="M389,22.5h-1v2h1V22.5z"/>
<path class="st5" d="M333,18.5h-1V20h1V18.5z"/>
<path class="st5" d="M333,22h-1v1.5h1V22z"/>
<path class="st1" d="M277,15.5h-1v2h1V15.5z"/>
<path class="st1" d="M277,24.5h-1v2h1V24.5z"/>
<path class="st1" d="M389,15.5h-1v2h1V15.5z"/>
<path class="st1" d="M389,24.5h-1v2h1V24.5z"/>
<path class="st5" d="M393.5,35c0,0.6-0.4,1-1,1h-120c-0.6,0-1-0.4-1-1l0,0c0-0.6,0.4-1,1-1h120C393.1,34,393.5,34.4,393.5,35
	L393.5,35z"/>
<path class="st6" d="M277,35.9h-1v3h1V35.9z"/>
<path class="st6" d="M285,35.9h-1v2.6h1V35.9z"/>
<path class="st6" d="M293,35.9h-1V38h1V35.9z"/>
<path class="st6" d="M301,35.9h-1v1.7h1V35.9z"/>
<path class="st6" d="M309,35.9h-1v1.3h1V35.9z"/>
<path class="st6" d="M317,35.9h-1v0.8h1V35.9z"/>
<path class="st6" d="M325,35.9h-1v0.4h1V35.9z"/>
<path class="st5" d="M333,31h-1v3h1V31z"/>
<path class="st5" d="M333,35.9h-1v3h1V35.9z"/>
<path class="st6" d="M341,33.6h-1V34h1V33.6z"/>
<path class="st6" d="M349,33.1h-1V34h1V33.1z"/>
<path class="st6" d="M357,32.7h-1V34h1V32.7z"/>
<path class="st6" d="M365,32.3h-1V34h1V32.3z"/>
<path class="st6" d="M373,31.9h-1V34h1V31.9z"/>
<path class="st6" d="M381,31.4h-1V34h1V31.4z"/>
<path class="st6" d="M389,31h-1v3h1V31z"/>
<path class="st4" d="M127.5,49c0,0.6-0.4,1-1,1H6.5c-0.6,0-1-0.4-1-1l0,0c0-0.6,0.4-1,1-1h120C127.1,48,127.5,48.4,127.5,49
	L127.5,49z"/>
<path class="st3" d="M11,46h-1v2h1V46z"/>
<path class="st3" d="M11,50h-1v2h1V50z"/>
<path class="st3" d="M123,46h-1v2h1V46z"/>
<path class="st3" d="M123,50h-1v2h1V50z"/>
<path class="st7" d="M127.5,63c0,0.6-0.4,1-1,1H6.5c-0.6,0-1-0.4-1-1l0,0c0-0.6,0.4-1,1-1h120C127.1,62,127.5,62.4,127.5,63
	L127.5,63z"/>
<path class="st8" d="M11,60h-1v2h1V60z"/>
<path class="st8" d="M11,64h-1v2h1V64z"/>
<path class="st8" d="M123,60h-1v2h1V60z"/>
<path class="st8" d="M123,64h-1v2h1V64z"/>
<path class="st2" d="M67,60.5h-1V62h1V60.5z"/>
<path class="st2" d="M67,64h-1v1.5h1V64z"/>
<path class="st7" d="M127.5,77c0,0.6-0.4,1-1,1H6.5c-0.6,0-1-0.4-1-1l0,0c0-0.6,0.4-1,1-1h120C127.1,76,127.5,76.4,127.5,77
	L127.5,77z"/>
<path class="st8" d="M11,78h-1v3h1V78z"/>
<path class="st8" d="M19,78h-1v2.6h1V78z"/>
<path class="st8" d="M27,78h-1v2.1h1V78z"/>
<path class="st8" d="M35,78h-1v1.7h1V78z"/>
<path class="st8" d="M43,78h-1v1.3h1V78z"/>
<path class="st8" d="M51,78h-1v0.8h1V78z"/>
<path class="st8" d="M59,78h-1v0.4h1V78z"/>
<path class="st2" d="M67,73h-1v3h1V73z"/>
<path class="st2" d="M67,78h-1v3h1V78z"/>
<path class="st8" d="M75,75.6h-1V76h1V75.6z"/>
<path class="st8" d="M83,75.1h-1V76h1V75.1z"/>
<path class="st8" d="M91,74.7h-1V76h1V74.7z"/>
<path class="st8" d="M99,74.3h-1V76h1V74.3z"/>
<path class="st8" d="M107,73.8h-1V76h1V73.8z"/>
<path class="st8" d="M115,73.4h-1V76h1V73.4z"/>
<path class="st8" d="M123,73h-1v3h1V73z"/>
<path class="st0" d="M260.5,49c0,0.6-0.4,1-1,1h-120c-0.6,0-1-0.4-1-1l0,0c0-0.6,0.4-1,1-1h120C260.1,48,260.5,48.4,260.5,49
	L260.5,49z"/>
<path class="st1" d="M144,45.5h-1v2h1V45.5z"/>
<path class="st1" d="M144,50.5h-1v2h1V50.5z"/>
<path class="st1" d="M256,45.5h-1v2h1V45.5z"/>
<path class="st1" d="M256,50.5h-1v2h1V50.5z"/>
<path class="st0" d="M260.5,63c0,0.6-0.4,1-1,1h-120c-0.6,0-1-0.4-1-1l0,0c0-0.6,0.4-1,1-1h120C260.1,62,260.5,62.4,260.5,63
	L260.5,63z"/>
<path class="st1" d="M144,59.5h-1v2h1V59.5z"/>
<path class="st1" d="M144,64.5h-1v2h1V64.5z"/>
<path class="st1" d="M256,59.5h-1v2h1V59.5z"/>
<path class="st1" d="M256,64.5h-1v2h1V64.5z"/>
<path class="st4" d="M200,60h-1v1.5h1V60z"/>
<path class="st4" d="M200,64.5h-1V66h1V64.5z"/>
<path class="st1" d="M144,57.5h-1v2h1V57.5z"/>
<path class="st1" d="M144,66.5h-1v2h1V66.5z"/>
<path class="st1" d="M256,57.5h-1v2h1V57.5z"/>
<path class="st1" d="M256,66.5h-1v2h1V66.5z"/>
<path class="st0" d="M260.5,77c0,0.6-0.4,1-1,1h-120c-0.6,0-1-0.4-1-1l0,0c0-0.6,0.4-1,1-1h120C260.1,76,260.5,76.4,260.5,77
	L260.5,77z"/>
<path class="st8" d="M144,78.5h-1v3h1V78.5z"/>
<path class="st8" d="M152,78.5h-1v2.6h1V78.5z"/>
<path class="st8" d="M160,78.5h-1v2.1h1V78.5z"/>
<path class="st8" d="M168,78.5h-1v1.7h1V78.5z"/>
<path class="st8" d="M176,78.5h-1v1.3h1V78.5z"/>
<path class="st8" d="M184,78.5h-1v0.8h1V78.5z"/>
<path class="st8" d="M192,78.5h-1v0.4h1V78.5z"/>
<path class="st2" d="M200,72.5h-1v3h1V72.5z"/>
<path class="st2" d="M200,78.5h-1v3h1V78.5z"/>
<path class="st8" d="M208,75.1h-1v0.4h1V75.1z"/>
<path class="st8" d="M216,74.6h-1v0.8h1V74.6z"/>
<path class="st8" d="M224,74.2h-1v1.3h1V74.2z"/>
<path class="st8" d="M232,73.8h-1v1.7h1V73.8z"/>
<path class="st8" d="M240,73.3h-1v2.1h1V73.3z"/>
<path class="st8" d="M248,72.9h-1v2.6h1V72.9z"/>
<path class="st8" d="M256,72.5h-1v3h1V72.5z"/>
<path class="st5" d="M393.5,49c0,0.6-0.4,1-1,1h-120c-0.6,0-1-0.4-1-1l0,0c0-0.6,0.4-1,1-1h120C393.1,48,393.5,48.4,393.5,49
	L393.5,49z"/>
<path class="st1" d="M277,45.5h-1v2h1V45.5z"/>
<path class="st1" d="M277,50.5h-1v2h1V50.5z"/>
<path class="st1" d="M389,45.5h-1v2h1V45.5z"/>
<path class="st1" d="M389,50.5h-1v2h1V50.5z"/>
<path class="st5" d="M393.5,63c0,0.6-0.4,1-1,1h-120c-0.6,0-1-0.4-1-1l0,0c0-0.6,0.4-1,1-1h120C393.1,62,393.5,62.4,393.5,63
	L393.5,63z"/>
<path class="st1" d="M277,59.5h-1v2h1V59.5z"/>
<path class="st1" d="M277,64.5h-1v2h1V64.5z"/>
<path class="st1" d="M389,59.5h-1v2h1V59.5z"/>
<path class="st1" d="M389,64.5h-1v2h1V64.5z"/>
<path class="st5" d="M333,60.5h-1V62h1V60.5z"/>
<path class="st5" d="M333,64h-1v1.5h1V64z"/>
<path class="st1" d="M277,57.5h-1v2h1V57.5z"/>
<path class="st1" d="M277,66.5h-1v2h1V66.5z"/>
<path class="st1" d="M389,57.5h-1v2h1V57.5z"/>
<path class="st1" d="M389,66.5h-1v2h1V66.5z"/>
<path class="st5" d="M393.5,77c0,0.6-0.4,1-1,1h-120c-0.6,0-1-0.4-1-1l0,0c0-0.6,0.4-1,1-1h120C393.1,76,393.5,76.4,393.5,77
	L393.5,77z"/>
<path class="st6" d="M277,78h-1v3h1V78z"/>
<path class="st6" d="M285,78h-1v2.6h1V78z"/>
<path class="st6" d="M293,78h-1v2.1h1V78z"/>
<path class="st6" d="M301,78h-1v1.7h1V78z"/>
<path class="st6" d="M309,78h-1v1.3h1V78z"/>
<path class="st6" d="M317,78h-1v0.8h1V78z"/>
<path class="st6" d="M325,78h-1v0.4h1V78z"/>
<path class="st5" d="M333.1,73h-1v3h1V73z"/>
<path class="st5" d="M333,78h-1v3h1V78z"/>
<path class="st6" d="M341.1,75.5h-1V76h1V75.5z"/>
<path class="st6" d="M349.1,75.1h-1V76h1V75.1z"/>
<path class="st6" d="M357.1,74.7h-1V76h1V74.7z"/>
<path class="st6" d="M365.1,74.3h-1V76h1V74.3z"/>
<path class="st6" d="M373.1,73.8h-1V76h1V73.8z"/>
<path class="st6" d="M381.1,73.4h-1V76h1V73.4z"/>
<path class="st6" d="M389.1,73h-1v3h1V73z"/>
<g class="st9">
	<path class="st10" d="M127.5,7.5c0,0.3-0.2,0.5-0.5,0.5H7C6.7,8,6.5,7.8,6.5,7.5S6.7,7,7,7h120C127.3,7,127.5,7.2,127.5,7.5z"/>
	<path class="st11" d="M128,7.5c0,0.6-0.4,1-1,1H7c-0.6,0-1-0.4-1-1l0,0c0-0.6,0.4-1,1-1h120C127.6,6.5,128,6.9,128,7.5L128,7.5z"/>
	<path class="st12" d="M11.5,4h-1v2h1V4z"/>
	<path class="st12" d="M11.5,9h-1v2h1V9z"/>
	<path class="st12" d="M123.5,4h-1v2h1V4z"/>
	<path class="st12" d="M123.5,9h-1v2h1V9z"/>
</g>
<path class="st4" d="M127.5,7c0,0.6-0.4,1-1,1H6.5c-0.6,0-1-0.4-1-1l0,0c0-0.6,0.4-1,1-1h120C127.1,6,127.5,6.4,127.5,7L127.5,7z"/>
<path class="st3" d="M11,4h-1v2h1V4z"/>
<path class="st3" d="M11,8h-1v2h1V8z"/>
<path class="st3" d="M123,4h-1v2h1V4z"/>
<path class="st3" d="M123,8h-1v2h1V8z"/>
<g class="st9">
	<path class="st12" d="M67.5,18.5h-1V20h1V18.5z"/>
	<path class="st12" d="M67.5,23h-1v1.5h1V23z"/>
	<path class="st12" d="M11.5,16h-1v2h1V16z"/>
	<path class="st12" d="M11.5,25h-1v2h1V25z"/>
	<path class="st12" d="M123.5,16h-1v2h1V16z"/>
	<path class="st12" d="M123.5,25h-1v2h1V25z"/>
</g>
<g class="st9">
	<path class="st10" d="M127.5,21.5c0,0.3-0.2,0.5-0.5,0.5H7c-0.3,0-0.5-0.2-0.5-0.5S6.7,21,7,21h120C127.3,21,127.5,21.2,127.5,21.5
		z"/>
	<path class="st11" d="M128,21.5c0,0.6-0.4,1-1,1H7c-0.6,0-1-0.4-1-1l0,0c0-0.6,0.4-1,1-1h120C127.6,20.5,128,20.9,128,21.5
		L128,21.5z"/>
	<path class="st12" d="M11.5,18h-1v2h1V18z"/>
	<path class="st12" d="M11.5,23h-1v2h1V23z"/>
	<path class="st12" d="M123.5,18h-1v2h1V18z"/>
	<path class="st12" d="M123.5,23h-1v2h1V23z"/>
</g>
<path class="st4" d="M127.5,21c0,0.6-0.4,1-1,1H6.5c-0.6,0-1-0.4-1-1l0,0c0-0.6,0.4-1,1-1h120C127.1,20,127.5,20.4,127.5,21
	L127.5,21z"/>
<path class="st3" d="M11,18h-1v2h1V18z"/>
<path class="st3" d="M11,22h-1v2h1V22z"/>
<path class="st3" d="M123,18h-1v2h1V18z"/>
<path class="st3" d="M123,22h-1v2h1V22z"/>
<path class="st4" d="M67,18.5h-1V20h1V18.5z"/>
<path class="st4" d="M67,22h-1v1.5h1V22z"/>
<path class="st4" d="M127.5,35c0,0.6-0.4,1-1,1H6.5c-0.6,0-1-0.4-1-1l0,0c0-0.6,0.4-1,1-1h120C127.1,34,127.5,34.4,127.5,35
	L127.5,35z"/>
<path class="st3" d="M11,36h-1v3h1V36z"/>
<path class="st3" d="M19,36h-1v2.6h1V36z"/>
<path class="st3" d="M27,36h-1v2.1h1V36z"/>
<path class="st3" d="M35,36h-1v1.7h1V36z"/>
<path class="st3" d="M43,36h-1v1.3h1V36z"/>
<path class="st3" d="M51,36h-1v0.8h1V36z"/>
<path class="st3" d="M59,36h-1v0.4h1V36z"/>
<path class="st4" d="M67,31h-1v3h1V31z"/>
<path class="st4" d="M67,36h-1v3h1V36z"/>
<path class="st3" d="M75,33.6h-1V34h1V33.6z"/>
<path class="st3" d="M83,33.1h-1V34h1V33.1z"/>
<path class="st3" d="M91,32.7h-1V34h1V32.7z"/>
<path class="st3" d="M99,32.3h-1V34h1V32.3z"/>
<path class="st3" d="M107,31.8h-1V34h1V31.8z"/>
<path class="st3" d="M115,31.4h-1V34h1V31.4z"/>
<path class="st3" d="M123,31h-1v3h1V31z"/>
</svg>
