<?xml version="1.0" encoding="utf-8"?>
<!-- Generator: Adobe Illustrator 23.0.0, SVG Export Plug-In . SVG Version: 6.00 Build 0)  -->
<svg version="1.1" id="Layer_1" xmlns="http://www.w3.org/2000/svg" xmlns:xlink="http://www.w3.org/1999/xlink" x="0px" y="0px"
	 viewBox="0 0 16 24" style="enable-background:new 0 0 16 24;" xml:space="preserve">
<style type="text/css">
	.st0{opacity:0.5;}
	.st1{fill:#B4B4B4;}
</style>
<path class="st0" d="M0.5,2.5c0-1.1,0.9-2,2-2h13v11h-13c-1.1,0-2-0.9-2-2V2.5z"/>
<path class="st1" d="M8.2,4C7,4,5.9,4.6,5.3,5.4L4,4.2V8h4L6.6,6.7C7,5.7,8,4.9,9.2,4.9c1.5,0,2.8,1.2,2.8,2.6C12,5.6,10.3,4,8.2,4z
	"/>
<path class="st0" d="M0.5,14.5c0-1.1,0.9-2,2-2h13v11h-13c-1.1,0-2-0.9-2-2V14.5z"/>
<path class="st1" d="M8.2,16c-1.2,0-2.3,0.6-3,1.4L4,16.2V20h4l-1.4-1.3c0.4-1,1.4-1.8,2.6-1.8c1.5,0,2.8,1.2,2.8,2.6
	C12,17.6,10.3,16,8.2,16z"/>
</svg>
