<?xml version="1.0" encoding="utf-8"?>
<!-- Generator: Adobe Illustrator 23.0.0, SVG Export Plug-In . SVG Version: 6.00 Build 0)  -->
<svg version="1.1" id="Layer_1" xmlns="http://www.w3.org/2000/svg" xmlns:xlink="http://www.w3.org/1999/xlink" x="0px" y="0px"
	 viewBox="0 0 49 28" style="enable-background:new 0 0 49 28;" xml:space="preserve">
<style type="text/css">
	.st0{opacity:0.5;}
	.st1{fill:#B4B4B4;}
	.st2{fill:#399DFF;}
	.st3{fill:none;stroke:#399DFF;}
	.st4{fill:#FFFFFF;}
</style>
<path class="st0" d="M0.5,2.5c0-1.1,0.9-2,2-2h44c1.1,0,2,0.9,2,2v9c0,1.1-0.9,2-2,2h-44c-1.1,0-2-0.9-2-2V2.5z"/>
<path class="st1" d="M16.7,4.2L14.4,10h-1.2l-2.3-5.8h1.1c0.1,0,0.2,0,0.3,0.1c0.1,0.1,0.1,0.1,0.2,0.2l1.1,3.1
	c0.1,0.1,0.1,0.3,0.2,0.4c0.1,0.2,0.1,0.3,0.1,0.5c0-0.2,0.1-0.3,0.1-0.5c0-0.2,0.1-0.3,0.2-0.4l1.1-3.1c0-0.1,0.1-0.1,0.2-0.2
	c0.1-0.1,0.2-0.1,0.3-0.1H16.7z M18.8,7.4c0-0.1,0-0.2,0-0.3c0-0.1-0.1-0.2-0.1-0.2c-0.1-0.1-0.1-0.1-0.2-0.2
	c-0.1,0-0.2-0.1-0.3-0.1c-0.2,0-0.4,0.1-0.6,0.2c-0.1,0.1-0.2,0.3-0.3,0.6H18.8z M17.3,8.1c0,0.3,0.1,0.6,0.3,0.8
	c0.2,0.2,0.4,0.2,0.7,0.2c0.1,0,0.3,0,0.4-0.1C18.7,9,18.8,9,18.9,9c0.1,0,0.2-0.1,0.2-0.1c0.1,0,0.1-0.1,0.2-0.1
	c0.1,0,0.2,0,0.2,0.1l0.4,0.4c-0.1,0.1-0.3,0.3-0.4,0.4c-0.1,0.1-0.3,0.2-0.5,0.2C18.9,10,18.7,10,18.6,10c-0.2,0-0.3,0-0.4,0
	c-0.3,0-0.6,0-0.8-0.1c-0.3-0.1-0.5-0.2-0.7-0.4c-0.2-0.2-0.3-0.4-0.5-0.7c-0.1-0.3-0.2-0.6-0.2-1c0-0.3,0-0.5,0.1-0.8
	c0.1-0.2,0.2-0.5,0.4-0.7C16.8,6.2,17,6.1,17.2,6c0.3-0.1,0.5-0.2,0.9-0.2c0.3,0,0.5,0,0.8,0.1c0.2,0.1,0.4,0.2,0.6,0.4
	c0.2,0.2,0.3,0.4,0.4,0.6c0.1,0.2,0.1,0.5,0.1,0.8c0,0.1,0,0.2,0,0.2c0,0.1,0,0.1,0,0.1c0,0-0.1,0.1-0.1,0.1c0,0-0.1,0-0.1,0H17.3z
	 M21.6,6.5C21.7,6.3,21.9,6.1,22,6c0.2-0.1,0.4-0.2,0.6-0.2c0.2,0,0.3,0,0.5,0.1L23,6.8c0,0.1,0,0.1-0.1,0.1c0,0-0.1,0-0.1,0
	c0,0,0,0-0.1,0c0,0-0.1,0-0.1,0c0,0-0.1,0-0.1,0c0,0-0.1,0-0.1,0c-0.2,0-0.3,0-0.4,0.1c-0.1,0.1-0.2,0.2-0.3,0.4V10h-1.2V5.9h0.7
	c0.1,0,0.1,0,0.2,0c0,0,0.1,0,0.1,0.1c0,0,0.1,0.1,0.1,0.1c0,0,0,0.1,0,0.1L21.6,6.5z M27.9,10h-1.2V6.7h-1.7v2.1
	c0,0.1,0,0.2,0.1,0.2c0,0.1,0.1,0.1,0.2,0.1c0,0,0.1,0,0.1,0c0,0,0.1,0,0.1,0c0,0,0,0,0.1,0c0,0,0,0,0.1,0c0,0,0.1,0,0.1,0
	c0,0,0,0,0.1,0.1L26,9.7c-0.2,0.1-0.3,0.2-0.5,0.3c-0.2,0.1-0.4,0.1-0.6,0.1c-0.2,0-0.4,0-0.5-0.1c-0.1-0.1-0.3-0.1-0.4-0.2
	c-0.1-0.1-0.2-0.2-0.2-0.4c-0.1-0.1-0.1-0.3-0.1-0.5V6.7h-0.4c-0.1,0-0.1,0-0.2-0.1c0,0-0.1-0.1-0.1-0.2V6l0.7-0.1l0.2-1
	c0-0.1,0.1-0.2,0.3-0.2h0.6v1.2h3V10z M28,4.7C28,4.8,28,4.9,28,5c0,0.1-0.1,0.2-0.2,0.2c-0.1,0.1-0.2,0.1-0.2,0.2
	c-0.1,0-0.2,0.1-0.3,0.1c-0.1,0-0.2,0-0.3-0.1c-0.1,0-0.2-0.1-0.2-0.2c-0.1-0.1-0.1-0.1-0.2-0.2c0-0.1-0.1-0.2-0.1-0.3
	s0-0.2,0.1-0.3c0-0.1,0.1-0.2,0.2-0.2C26.8,4.1,26.9,4.1,27,4C27.1,4,27.2,4,27.3,4c0.1,0,0.2,0,0.3,0.1c0.1,0,0.2,0.1,0.2,0.2
	c0.1,0.1,0.1,0.1,0.2,0.2C28,4.5,28,4.6,28,4.7z M31.7,6.8c0,0-0.1,0.1-0.1,0.1c0,0-0.1,0-0.1,0c-0.1,0-0.1,0-0.2,0
	c0,0-0.1-0.1-0.2-0.1c-0.1,0-0.1-0.1-0.2-0.1c-0.1,0-0.2,0-0.3,0c-0.2,0-0.3,0-0.4,0.1C30,6.8,30,6.9,29.9,7
	c-0.1,0.1-0.1,0.2-0.2,0.4c0,0.1-0.1,0.3-0.1,0.5c0,0.4,0.1,0.7,0.2,0.9c0.2,0.2,0.4,0.3,0.6,0.3c0.1,0,0.3,0,0.3-0.1
	C31,9.1,31,9,31.1,9c0.1,0,0.1-0.1,0.2-0.1c0.1,0,0.1-0.1,0.2-0.1c0.1,0,0.2,0,0.2,0.1L32,9.4c-0.1,0.1-0.3,0.3-0.4,0.4
	c-0.1,0.1-0.3,0.2-0.4,0.2C31,10,30.9,10,30.7,10c-0.1,0-0.3,0-0.4,0c-0.3,0-0.5,0-0.7-0.1c-0.2-0.1-0.4-0.2-0.6-0.4
	c-0.2-0.2-0.3-0.4-0.4-0.7c-0.1-0.3-0.2-0.6-0.2-0.9c0-0.3,0-0.6,0.1-0.8c0.1-0.3,0.2-0.5,0.4-0.7c0.2-0.2,0.4-0.3,0.6-0.5
	c0.3-0.1,0.6-0.2,0.9-0.2c0.3,0,0.6,0.1,0.9,0.2C31.6,6,31.8,6.2,32,6.4L31.7,6.8z M34.5,8.3c-0.2,0-0.5,0-0.6,0.1
	c-0.2,0-0.3,0.1-0.4,0.1c-0.1,0-0.2,0.1-0.2,0.2c0,0.1-0.1,0.1-0.1,0.2c0,0.1,0,0.2,0.1,0.3c0.1,0.1,0.2,0.1,0.3,0.1
	c0.2,0,0.3,0,0.4-0.1s0.2-0.1,0.4-0.3V8.3z M32.3,6.4c0.3-0.2,0.5-0.4,0.8-0.5c0.3-0.1,0.6-0.2,1-0.2c0.3,0,0.5,0,0.7,0.1
	C35,6,35.2,6.1,35.3,6.2c0.1,0.1,0.2,0.3,0.3,0.5c0.1,0.2,0.1,0.4,0.1,0.7V10h-0.6c-0.1,0-0.2,0-0.3,0c-0.1,0-0.1-0.1-0.1-0.2
	l-0.1-0.2c-0.1,0.1-0.2,0.2-0.3,0.2c-0.1,0.1-0.2,0.1-0.3,0.2C34,10,33.8,10,33.7,10c-0.1,0-0.2,0-0.4,0c-0.2,0-0.4,0-0.5-0.1
	c-0.2-0.1-0.3-0.1-0.4-0.2c-0.1-0.1-0.2-0.2-0.2-0.4c-0.1-0.1-0.1-0.3-0.1-0.5c0-0.1,0-0.3,0.1-0.5c0.1-0.2,0.2-0.3,0.4-0.4
	c0.2-0.1,0.4-0.2,0.7-0.3s0.7-0.1,1.2-0.1V7.4c0-0.2-0.1-0.4-0.2-0.5c-0.1-0.1-0.2-0.2-0.4-0.2c-0.1,0-0.3,0-0.4,0
	c-0.1,0-0.2,0.1-0.3,0.1c-0.1,0-0.1,0.1-0.2,0.1c-0.1,0-0.2,0-0.2,0c-0.1,0-0.2,0-0.2-0.1c-0.1,0-0.1-0.1-0.1-0.2L32.3,6.4z M37.6,4
	v6h-1.2V4H37.6z"/>
<path class="st2" d="M0.5,16.5c0-1.1,0.9-2,2-2h44c1.1,0,2,0.9,2,2v9c0,1.1-0.9,2-2,2h-44c-1.1,0-2-0.9-2-2V16.5z"/>
<path class="st2" d="M3.5,16.5h42c0.6,0,1,0.4,1,1v7c0,0.6-0.4,1-1,1h-42c-0.6,0-1-0.4-1-1v-7C2.5,16.9,2.9,16.5,3.5,16.5z"/>
<path class="st3" d="M3.5,16.5h42c0.6,0,1,0.4,1,1v7c0,0.6-0.4,1-1,1h-42c-0.6,0-1-0.4-1-1v-7C2.5,16.9,2.9,16.5,3.5,16.5z"/>
<path class="st4" d="M16.7,18.2L14.4,24h-1.2l-2.3-5.8h1.1c0.1,0,0.2,0,0.3,0.1c0.1,0.1,0.1,0.1,0.2,0.2l1.1,3.1
	c0.1,0.1,0.1,0.3,0.2,0.4c0.1,0.2,0.1,0.3,0.1,0.5c0-0.2,0.1-0.3,0.1-0.5c0-0.2,0.1-0.3,0.2-0.4l1.1-3.1c0-0.1,0.1-0.1,0.2-0.2
	c0.1-0.1,0.2-0.1,0.3-0.1H16.7z M18.8,21.4c0-0.1,0-0.2,0-0.3c0-0.1-0.1-0.2-0.1-0.2c-0.1-0.1-0.1-0.1-0.2-0.2
	c-0.1,0-0.2-0.1-0.3-0.1c-0.2,0-0.4,0.1-0.6,0.2c-0.1,0.1-0.2,0.3-0.3,0.6H18.8z M17.3,22.1c0,0.3,0.1,0.6,0.3,0.8
	c0.2,0.2,0.4,0.2,0.7,0.2c0.1,0,0.3,0,0.4-0.1s0.2-0.1,0.3-0.1c0.1,0,0.2-0.1,0.2-0.1c0.1,0,0.1-0.1,0.2-0.1c0.1,0,0.2,0,0.2,0.1
	l0.4,0.4c-0.1,0.1-0.3,0.3-0.4,0.4c-0.1,0.1-0.3,0.2-0.5,0.2C18.9,24,18.7,24,18.6,24c-0.2,0-0.3,0-0.4,0c-0.3,0-0.6,0-0.8-0.1
	c-0.3-0.1-0.5-0.2-0.7-0.4c-0.2-0.2-0.3-0.4-0.5-0.7c-0.1-0.3-0.2-0.6-0.2-1c0-0.3,0-0.5,0.1-0.8c0.1-0.2,0.2-0.5,0.4-0.7
	c0.2-0.2,0.4-0.3,0.6-0.4c0.3-0.1,0.5-0.2,0.9-0.2c0.3,0,0.5,0,0.8,0.1c0.2,0.1,0.4,0.2,0.6,0.4c0.2,0.2,0.3,0.4,0.4,0.6
	c0.1,0.2,0.1,0.5,0.1,0.8c0,0.1,0,0.2,0,0.2c0,0.1,0,0.1,0,0.1c0,0-0.1,0.1-0.1,0.1c0,0-0.1,0-0.1,0H17.3z M21.6,20.5
	c0.1-0.2,0.3-0.4,0.4-0.5c0.2-0.1,0.4-0.2,0.6-0.2c0.2,0,0.3,0,0.5,0.1L23,20.8c0,0.1,0,0.1-0.1,0.1c0,0-0.1,0-0.1,0c0,0,0,0-0.1,0
	c0,0-0.1,0-0.1,0c0,0-0.1,0-0.1,0c0,0-0.1,0-0.1,0c-0.2,0-0.3,0-0.4,0.1c-0.1,0.1-0.2,0.2-0.3,0.4V24h-1.2v-4.1h0.7
	c0.1,0,0.1,0,0.2,0c0,0,0.1,0,0.1,0.1c0,0,0.1,0.1,0.1,0.1c0,0,0,0.1,0,0.1L21.6,20.5z M27.9,24h-1.2v-3.3h-1.7v2.1
	c0,0.1,0,0.2,0.1,0.2c0,0.1,0.1,0.1,0.2,0.1c0,0,0.1,0,0.1,0c0,0,0.1,0,0.1,0c0,0,0,0,0.1,0c0,0,0,0,0.1,0c0,0,0.1,0,0.1,0
	c0,0,0,0,0.1,0.1l0.4,0.6c-0.2,0.1-0.3,0.2-0.5,0.3c-0.2,0.1-0.4,0.1-0.6,0.1c-0.2,0-0.4,0-0.5-0.1c-0.1-0.1-0.3-0.1-0.4-0.2
	c-0.1-0.1-0.2-0.2-0.2-0.4c-0.1-0.1-0.1-0.3-0.1-0.5v-2.1h-0.4c-0.1,0-0.1,0-0.2-0.1c0,0-0.1-0.1-0.1-0.2V20l0.7-0.1l0.2-1
	c0-0.1,0.1-0.2,0.3-0.2h0.6v1.2h3V24z M28,18.7c0,0.1,0,0.2-0.1,0.3c0,0.1-0.1,0.2-0.2,0.2c-0.1,0.1-0.2,0.1-0.2,0.2
	c-0.1,0-0.2,0.1-0.3,0.1c-0.1,0-0.2,0-0.3-0.1c-0.1,0-0.2-0.1-0.2-0.2c-0.1-0.1-0.1-0.1-0.2-0.2c0-0.1-0.1-0.2-0.1-0.3
	s0-0.2,0.1-0.3c0-0.1,0.1-0.2,0.2-0.2c0.1-0.1,0.1-0.1,0.2-0.2c0.1,0,0.2-0.1,0.3-0.1c0.1,0,0.2,0,0.3,0.1c0.1,0,0.2,0.1,0.2,0.2
	c0.1,0.1,0.1,0.1,0.2,0.2C28,18.5,28,18.6,28,18.7z M31.7,20.8c0,0-0.1,0.1-0.1,0.1c0,0-0.1,0-0.1,0c-0.1,0-0.1,0-0.2,0
	c0,0-0.1-0.1-0.2-0.1c-0.1,0-0.1-0.1-0.2-0.1c-0.1,0-0.2,0-0.3,0c-0.2,0-0.3,0-0.4,0.1C30,20.8,30,20.9,29.9,21
	c-0.1,0.1-0.1,0.2-0.2,0.4c0,0.1-0.1,0.3-0.1,0.5c0,0.4,0.1,0.7,0.2,0.9c0.2,0.2,0.4,0.3,0.6,0.3c0.1,0,0.3,0,0.3-0.1
	c0.1,0,0.2-0.1,0.2-0.1c0.1,0,0.1-0.1,0.2-0.1c0.1,0,0.1-0.1,0.2-0.1c0.1,0,0.2,0,0.2,0.1l0.4,0.4c-0.1,0.1-0.3,0.3-0.4,0.4
	c-0.1,0.1-0.3,0.2-0.4,0.2C31,24,30.9,24,30.7,24c-0.1,0-0.3,0-0.4,0c-0.3,0-0.5,0-0.7-0.1c-0.2-0.1-0.4-0.2-0.6-0.4
	c-0.2-0.2-0.3-0.4-0.4-0.7c-0.1-0.3-0.2-0.6-0.2-0.9c0-0.3,0-0.6,0.1-0.8c0.1-0.3,0.2-0.5,0.4-0.7c0.2-0.2,0.4-0.3,0.6-0.5
	c0.3-0.1,0.6-0.2,0.9-0.2c0.3,0,0.6,0.1,0.9,0.2c0.2,0.1,0.5,0.3,0.7,0.5L31.7,20.8z M34.5,22.3c-0.2,0-0.5,0-0.6,0.1
	c-0.2,0-0.3,0.1-0.4,0.1c-0.1,0-0.2,0.1-0.2,0.2c0,0.1-0.1,0.1-0.1,0.2c0,0.1,0,0.2,0.1,0.3c0.1,0.1,0.2,0.1,0.3,0.1
	c0.2,0,0.3,0,0.4-0.1s0.2-0.1,0.4-0.3V22.3z M32.3,20.4c0.3-0.2,0.5-0.4,0.8-0.5c0.3-0.1,0.6-0.2,1-0.2c0.3,0,0.5,0,0.7,0.1
	c0.2,0.1,0.4,0.2,0.5,0.3c0.1,0.1,0.2,0.3,0.3,0.5c0.1,0.2,0.1,0.4,0.1,0.7V24h-0.6c-0.1,0-0.2,0-0.3,0c-0.1,0-0.1-0.1-0.1-0.2
	l-0.1-0.2c-0.1,0.1-0.2,0.2-0.3,0.2s-0.2,0.1-0.3,0.2C34,24,33.8,24,33.7,24c-0.1,0-0.2,0-0.4,0c-0.2,0-0.4,0-0.5-0.1
	c-0.2-0.1-0.3-0.1-0.4-0.2c-0.1-0.1-0.2-0.2-0.2-0.4c-0.1-0.1-0.1-0.3-0.1-0.5c0-0.1,0-0.3,0.1-0.5c0.1-0.2,0.2-0.3,0.4-0.4
	c0.2-0.1,0.4-0.2,0.7-0.3c0.3-0.1,0.7-0.1,1.2-0.1v-0.2c0-0.2-0.1-0.4-0.2-0.5c-0.1-0.1-0.2-0.2-0.4-0.2c-0.1,0-0.3,0-0.4,0
	c-0.1,0-0.2,0.1-0.3,0.1c-0.1,0-0.1,0.1-0.2,0.1c-0.1,0-0.2,0-0.2,0c-0.1,0-0.2,0-0.2-0.1c-0.1,0-0.1-0.1-0.1-0.2L32.3,20.4z
	 M37.6,18v6h-1.2v-6H37.6z"/>
</svg>
