<?xml version="1.0" encoding="utf-8"?>
<!-- Generator: Adobe Illustrator 23.0.0, SVG Export Plug-In . SVG Version: 6.00 Build 0)  -->
<svg version="1.1" id="Layer_1" xmlns="http://www.w3.org/2000/svg" xmlns:xlink="http://www.w3.org/1999/xlink" x="0px" y="0px"
	 viewBox="0 0 48 56" style="enable-background:new 0 0 48 56;" xml:space="preserve">
<style type="text/css">
	.st0{fill:#9FA9B3;}
	.st1{fill:#1F1F1F;}
	.st2{fill:#8BCC56;}
</style>
<path class="st0" d="M9,17c3,0,5.5-2.5,5.5-5.5S12,6,9,6s-5.5,2.5-5.5,5.5S6,17,9,17z"/>
<path class="st1" d="M10,11H8c-0.3,0-0.5,0.2-0.5,0.5S7.7,12,8,12h2c0.3,0,0.5-0.2,0.5-0.5S10.3,11,10,11z"/>
<path class="st2" d="M33,17c3,0,5.5-2.5,5.5-5.5S36,6,33,6s-5.5,2.5-5.5,5.5S30,17,33,17z"/>
<path class="st1" d="M34,11h-2c-0.3,0-0.5,0.2-0.5,0.5S31.7,12,32,12h2c0.3,0,0.5-0.2,0.5-0.5S34.3,11,34,11z"/>
<path class="st0" d="M9,45c3,0,5.5-2.5,5.5-5.5S12,34,9,34s-5.5,2.5-5.5,5.5S6,45,9,45z"/>
<path class="st1" d="M10,39H8c-0.3,0-0.5,0.2-0.5,0.5S7.7,40,8,40h2c0.3,0,0.5-0.2,0.5-0.5S10.3,39,10,39z"/>
<path class="st2" d="M33,45c3,0,5.5-2.5,5.5-5.5S36,34,33,34s-5.5,2.5-5.5,5.5S30,45,33,45z"/>
<path class="st1" d="M34,39h-2c-0.3,0-0.5,0.2-0.5,0.5S31.7,40,32,40h2c0.3,0,0.5-0.2,0.5-0.5S34.3,39,34,39z"/>
</svg>
