<?xml version="1.0" encoding="utf-8"?>
<!-- Generator: Adobe Illustrator 23.0.0, SVG Export Plug-In . SVG Version: 6.00 Build 0)  -->
<svg version="1.1" id="Layer_1" xmlns="http://www.w3.org/2000/svg" xmlns:xlink="http://www.w3.org/1999/xlink" x="0px" y="0px"
	 viewBox="0 0 96 126" style="enable-background:new 0 0 96 126;" xml:space="preserve">
<style type="text/css">
	.st0{fill:#999999;}
	.st1{fill:none;stroke:#999999;}
</style>
<path class="st0" d="M5.5,2h9c0.6,0,1,0.4,1,1v9c0,0.6-0.4,1-1,1h-9c-0.6,0-1-0.4-1-1V3C4.5,2.4,4.9,2,5.5,2z"/>
<path class="st1" d="M5.5,2h9c0.6,0,1,0.4,1,1v9c0,0.6-0.4,1-1,1h-9c-0.6,0-1-0.4-1-1V3C4.5,2.4,4.9,2,5.5,2z"/>
<path d="M6.7,7.6h2.2v1H6.7V7.6z M9.5,6.3c0-0.3,0.1-0.5,0.2-0.8C9.8,5.4,10,5.2,10.2,5c0.2-0.1,0.4-0.3,0.6-0.3
	c0.2-0.1,0.5-0.1,0.7-0.1c0.3,0,0.5,0,0.8,0.1c0.2,0.1,0.4,0.2,0.6,0.3c0.2,0.1,0.3,0.3,0.4,0.5c0.1,0.2,0.1,0.4,0.1,0.6
	c0,0.2,0,0.3-0.1,0.5c0,0.1-0.1,0.3-0.2,0.4C13,7.1,13,7.2,12.8,7.2c-0.1,0.1-0.2,0.1-0.4,0.2c0.6,0.2,1,0.7,1,1.3
	c0,0.3-0.1,0.6-0.2,0.8c-0.1,0.2-0.3,0.4-0.5,0.6c-0.2,0.2-0.4,0.3-0.7,0.3c-0.2,0.1-0.5,0.1-0.8,0.1c-0.3,0-0.5,0-0.7-0.1
	c-0.2-0.1-0.4-0.2-0.6-0.3c-0.2-0.1-0.3-0.3-0.4-0.5C9.5,9.5,9.4,9.3,9.3,9l0.6-0.2c0.1-0.1,0.3-0.1,0.4,0c0.1,0,0.2,0.1,0.3,0.2
	c0.1,0.2,0.2,0.4,0.4,0.5c0.1,0.1,0.3,0.1,0.5,0.1c0.1,0,0.3,0,0.4-0.1c0.1,0,0.2-0.1,0.3-0.2c0.1-0.1,0.1-0.2,0.2-0.3
	c0-0.1,0.1-0.2,0.1-0.3c0-0.1,0-0.2,0-0.3c0-0.1-0.1-0.2-0.1-0.3C12,8.1,11.8,8,11.7,8c-0.2,0-0.4-0.1-0.7-0.1V7.1
	c0.2,0,0.4,0,0.6-0.1c0.1,0,0.3-0.1,0.3-0.2c0.1-0.1,0.1-0.1,0.2-0.2c0-0.1,0-0.2,0-0.3c0-0.2-0.1-0.4-0.2-0.5
	c-0.1-0.1-0.3-0.2-0.5-0.2c-0.2,0-0.3,0-0.5,0.1c-0.1,0.1-0.2,0.2-0.3,0.4c-0.1,0.1-0.1,0.2-0.2,0.3c-0.1,0-0.2,0.1-0.4,0L9.5,6.3z"
	/>
<path class="st0" d="M19.7,7.6h2.2v1h-2.2V7.6z M26,9.4c0.1,0,0.2,0,0.3,0.1c0.1,0.1,0.1,0.2,0.1,0.3v0.7h-4.1v-0.4
	c0-0.1,0-0.2,0-0.2c0-0.1,0.1-0.2,0.2-0.2l1.7-1.7c0.1-0.1,0.3-0.3,0.4-0.4c0.1-0.1,0.2-0.3,0.3-0.4C25,7,25,6.9,25,6.7
	c0-0.1,0.1-0.3,0.1-0.4c0-0.2-0.1-0.4-0.2-0.5c-0.1-0.1-0.3-0.2-0.5-0.2c-0.2,0-0.3,0-0.5,0.1c-0.1,0.1-0.2,0.2-0.3,0.4
	c-0.1,0.1-0.1,0.2-0.2,0.3c-0.1,0-0.2,0.1-0.4,0l-0.7-0.1c0-0.3,0.1-0.5,0.2-0.8C22.8,5.4,23,5.2,23.1,5c0.2-0.1,0.4-0.3,0.6-0.3
	c0.2-0.1,0.5-0.1,0.7-0.1c0.3,0,0.5,0,0.8,0.1c0.2,0.1,0.4,0.2,0.6,0.3c0.2,0.1,0.3,0.3,0.4,0.5c0.1,0.2,0.1,0.4,0.1,0.7
	c0,0.2,0,0.4-0.1,0.6c-0.1,0.2-0.1,0.4-0.2,0.5c-0.1,0.2-0.2,0.3-0.4,0.5c-0.1,0.2-0.3,0.3-0.4,0.5l-1.1,1.2c0.1,0,0.3-0.1,0.4-0.1
	c0.1,0,0.3,0,0.4,0H26z"/>
<path class="st0" d="M32.7,7.6h2.2v1h-2.2V7.6z M39.3,9.6v0.9H36V9.6h1.1V6.7c0-0.1,0-0.1,0-0.2c0-0.1,0-0.2,0-0.2l-0.7,0.6
	c-0.1,0-0.1,0.1-0.2,0.1c-0.1,0-0.1,0-0.2,0c-0.1,0-0.1,0-0.1-0.1c0,0-0.1-0.1-0.1-0.1l-0.4-0.5l1.8-1.5h1v4.9H39.3z"/>
<path class="st0" d="M51.2,7.6c0,0.5-0.1,1-0.2,1.3c-0.1,0.4-0.3,0.7-0.5,0.9c-0.2,0.2-0.4,0.4-0.7,0.5c-0.3,0.1-0.6,0.2-0.9,0.2
	s-0.6-0.1-0.9-0.2c-0.3-0.1-0.5-0.3-0.7-0.5c-0.2-0.2-0.3-0.6-0.5-0.9c-0.1-0.4-0.2-0.8-0.2-1.3s0.1-1,0.2-1.3
	c0.1-0.4,0.3-0.7,0.5-0.9c0.2-0.2,0.4-0.4,0.7-0.5c0.3-0.1,0.6-0.2,0.9-0.2s0.6,0.1,0.9,0.2c0.3,0.1,0.5,0.3,0.7,0.5
	c0.2,0.2,0.3,0.6,0.5,0.9C51.1,6.6,51.2,7.1,51.2,7.6z M49.9,7.6c0-0.4,0-0.7-0.1-1c-0.1-0.3-0.1-0.5-0.2-0.6
	c-0.1-0.1-0.2-0.2-0.3-0.3c-0.1-0.1-0.2-0.1-0.3-0.1c-0.1,0-0.2,0-0.3,0.1c-0.1,0.1-0.2,0.2-0.3,0.3c-0.1,0.1-0.1,0.3-0.2,0.6
	c0,0.3-0.1,0.6-0.1,1c0,0.4,0,0.7,0.1,1c0.1,0.3,0.1,0.5,0.2,0.6c0.1,0.1,0.2,0.2,0.3,0.3c0.1,0.1,0.2,0.1,0.3,0.1
	c0.1,0,0.2,0,0.3-0.1c0.1-0.1,0.2-0.2,0.3-0.3c0.1-0.1,0.2-0.4,0.2-0.6C49.9,8.3,49.9,8,49.9,7.6z"/>
<path class="st0" d="M61.7,8.3h-1.5v1.6h-1V8.3h-1.5V7.4h1.5V5.8h1v1.6h1.5V8.3z M66.1,9.6v0.9h-3.3V9.6h1.1V6.7c0-0.1,0-0.1,0-0.2
	c0-0.1,0-0.2,0-0.2l-0.7,0.6c-0.1,0-0.1,0.1-0.2,0.1c-0.1,0-0.1,0-0.2,0c-0.1,0-0.1,0-0.1-0.1c0,0-0.1-0.1-0.1-0.1l-0.4-0.5l1.8-1.5
	h1v4.9H66.1z"/>
<path class="st0" d="M74.7,8.3h-1.5v1.6h-1V8.3h-1.5V7.4h1.5V5.8h1v1.6h1.5V8.3z M78.8,9.4c0.1,0,0.2,0,0.3,0.1
	c0.1,0.1,0.1,0.2,0.1,0.3v0.7h-4.1v-0.4c0-0.1,0-0.2,0-0.2c0-0.1,0.1-0.2,0.2-0.2l1.7-1.7c0.1-0.1,0.3-0.3,0.4-0.4
	c0.1-0.1,0.2-0.3,0.3-0.4c0.1-0.1,0.1-0.3,0.2-0.4c0-0.1,0.1-0.3,0.1-0.4c0-0.2-0.1-0.4-0.2-0.5c-0.1-0.1-0.3-0.2-0.5-0.2
	c-0.2,0-0.3,0-0.5,0.1c-0.1,0.1-0.2,0.2-0.3,0.4c-0.1,0.1-0.1,0.2-0.2,0.3s-0.2,0.1-0.4,0l-0.7-0.1c0-0.3,0.1-0.5,0.2-0.8
	C75.6,5.4,75.8,5.2,76,5c0.2-0.1,0.4-0.3,0.6-0.3c0.2-0.1,0.5-0.1,0.7-0.1c0.3,0,0.5,0,0.8,0.1c0.2,0.1,0.4,0.2,0.6,0.3
	c0.2,0.1,0.3,0.3,0.4,0.5c0.1,0.2,0.1,0.4,0.1,0.7c0,0.2,0,0.4-0.1,0.6C79,7.1,79,7.2,78.9,7.4c-0.1,0.2-0.2,0.3-0.4,0.5
	c-0.1,0.2-0.3,0.3-0.4,0.5l-1.1,1.2c0.1,0,0.3-0.1,0.4-0.1c0.1,0,0.3,0,0.4,0H78.8z"/>
<path class="st0" d="M87.7,8.3h-1.5v1.6h-1V8.3h-1.5V7.4h1.5V5.8h1v1.6h1.5V8.3z M88.3,6.3c0-0.3,0.1-0.5,0.2-0.8
	C88.7,5.4,88.8,5.2,89,5c0.2-0.1,0.4-0.3,0.6-0.3c0.2-0.1,0.5-0.1,0.7-0.1c0.3,0,0.5,0,0.8,0.1c0.2,0.1,0.4,0.2,0.6,0.3
	S92,5.4,92,5.5c0.1,0.2,0.1,0.4,0.1,0.6c0,0.2,0,0.3-0.1,0.5c0,0.1-0.1,0.3-0.2,0.4c-0.1,0.1-0.2,0.2-0.3,0.3
	c-0.1,0.1-0.2,0.1-0.4,0.2c0.6,0.2,1,0.7,1,1.3c0,0.3-0.1,0.6-0.2,0.8s-0.3,0.4-0.5,0.6c-0.2,0.2-0.4,0.3-0.7,0.3
	c-0.2,0.1-0.5,0.1-0.8,0.1c-0.3,0-0.5,0-0.7-0.1c-0.2-0.1-0.4-0.2-0.6-0.3c-0.2-0.1-0.3-0.3-0.4-0.5c-0.1-0.2-0.2-0.4-0.3-0.7
	l0.6-0.2c0.1-0.1,0.3-0.1,0.4,0c0.1,0,0.2,0.1,0.3,0.2c0.1,0.2,0.2,0.4,0.4,0.5c0.1,0.1,0.3,0.1,0.5,0.1c0.1,0,0.3,0,0.4-0.1
	c0.1,0,0.2-0.1,0.3-0.2c0.1-0.1,0.1-0.2,0.2-0.3S91,8.9,91,8.8c0-0.1,0-0.2,0-0.3c0-0.1-0.1-0.2-0.1-0.3C90.8,8.1,90.7,8,90.5,8
	c-0.2,0-0.4-0.1-0.7-0.1V7.1c0.2,0,0.4,0,0.6-0.1c0.1,0,0.3-0.1,0.3-0.2c0.1-0.1,0.1-0.1,0.2-0.2s0-0.2,0-0.3c0-0.2-0.1-0.4-0.2-0.5
	c-0.1-0.1-0.3-0.2-0.5-0.2c-0.2,0-0.3,0-0.5,0.1c-0.1,0.1-0.2,0.2-0.3,0.4c-0.1,0.1-0.1,0.2-0.2,0.3s-0.2,0.1-0.4,0L88.3,6.3z"/>
<path class="st0" d="M6.7,25.6h2.2v1H6.7V25.6z M9.5,24.3c0-0.3,0.1-0.5,0.2-0.8c0.1-0.2,0.3-0.4,0.5-0.5c0.2-0.1,0.4-0.3,0.6-0.3
	c0.2-0.1,0.5-0.1,0.7-0.1c0.3,0,0.5,0,0.8,0.1c0.2,0.1,0.4,0.2,0.6,0.3c0.2,0.1,0.3,0.3,0.4,0.5c0.1,0.2,0.1,0.4,0.1,0.6
	c0,0.2,0,0.3-0.1,0.5c0,0.1-0.1,0.3-0.2,0.4c-0.1,0.1-0.2,0.2-0.3,0.3c-0.1,0.1-0.2,0.1-0.4,0.2c0.6,0.2,1,0.7,1,1.3
	c0,0.3-0.1,0.6-0.2,0.8c-0.1,0.2-0.3,0.4-0.5,0.6c-0.2,0.2-0.4,0.3-0.7,0.3c-0.2,0.1-0.5,0.1-0.8,0.1c-0.3,0-0.5,0-0.7-0.1
	c-0.2-0.1-0.4-0.2-0.6-0.3c-0.2-0.1-0.3-0.3-0.4-0.5c-0.1-0.2-0.2-0.4-0.3-0.7l0.6-0.2c0.1-0.1,0.3-0.1,0.4,0c0.1,0,0.2,0.1,0.3,0.2
	c0.1,0.2,0.2,0.4,0.4,0.5c0.1,0.1,0.3,0.1,0.5,0.1c0.1,0,0.3,0,0.4-0.1c0.1,0,0.2-0.1,0.3-0.2c0.1-0.1,0.1-0.2,0.2-0.3
	c0-0.1,0.1-0.2,0.1-0.3c0-0.1,0-0.2,0-0.3c0-0.1-0.1-0.2-0.1-0.3C12,26.1,11.8,26,11.7,26c-0.2,0-0.4-0.1-0.7-0.1v-0.9
	c0.2,0,0.4,0,0.6-0.1c0.1,0,0.3-0.1,0.3-0.2c0.1-0.1,0.1-0.1,0.2-0.2c0-0.1,0-0.2,0-0.3c0-0.2-0.1-0.4-0.2-0.5
	c-0.1-0.1-0.3-0.2-0.5-0.2c-0.2,0-0.3,0-0.5,0.1c-0.1,0.1-0.2,0.2-0.3,0.4c-0.1,0.1-0.1,0.2-0.2,0.3c-0.1,0-0.2,0.1-0.4,0L9.5,24.3z
	"/>
<path class="st0" d="M18.5,20h9c0.6,0,1,0.4,1,1v9c0,0.6-0.4,1-1,1h-9c-0.6,0-1-0.4-1-1v-9C17.5,20.4,17.9,20,18.5,20z"/>
<path class="st1" d="M18.5,20h9c0.6,0,1,0.4,1,1v9c0,0.6-0.4,1-1,1h-9c-0.6,0-1-0.4-1-1v-9C17.5,20.4,17.9,20,18.5,20z"/>
<path d="M19.7,25.6h2.2v1h-2.2V25.6z M26,27.4c0.1,0,0.2,0,0.3,0.1c0.1,0.1,0.1,0.2,0.1,0.3v0.7h-4.1v-0.4c0-0.1,0-0.2,0-0.2
	c0-0.1,0.1-0.2,0.2-0.2l1.7-1.7c0.1-0.1,0.3-0.3,0.4-0.4c0.1-0.1,0.2-0.3,0.3-0.4C25,25,25,24.9,25,24.7c0-0.1,0.1-0.3,0.1-0.4
	c0-0.2-0.1-0.4-0.2-0.5c-0.1-0.1-0.3-0.2-0.5-0.2c-0.2,0-0.3,0-0.5,0.1c-0.1,0.1-0.2,0.2-0.3,0.4c-0.1,0.1-0.1,0.2-0.2,0.3
	c-0.1,0-0.2,0.1-0.4,0l-0.7-0.1c0-0.3,0.1-0.5,0.2-0.8c0.1-0.2,0.3-0.4,0.5-0.5c0.2-0.1,0.4-0.3,0.6-0.3c0.2-0.1,0.5-0.1,0.7-0.1
	c0.3,0,0.5,0,0.8,0.1c0.2,0.1,0.4,0.2,0.6,0.3c0.2,0.1,0.3,0.3,0.4,0.5c0.1,0.2,0.1,0.4,0.1,0.7c0,0.2,0,0.4-0.1,0.6
	c-0.1,0.2-0.1,0.4-0.2,0.5c-0.1,0.2-0.2,0.3-0.4,0.5c-0.1,0.2-0.3,0.3-0.4,0.5l-1.1,1.2c0.1,0,0.3-0.1,0.4-0.1c0.1,0,0.3,0,0.4,0H26
	z"/>
<path class="st0" d="M32.7,25.6h2.2v1h-2.2V25.6z M39.3,27.6v0.9H36v-0.9h1.1v-2.9c0-0.1,0-0.1,0-0.2c0-0.1,0-0.2,0-0.2l-0.7,0.6
	c-0.1,0-0.1,0.1-0.2,0.1c-0.1,0-0.1,0-0.2,0c-0.1,0-0.1,0-0.1-0.1c0,0-0.1-0.1-0.1-0.1l-0.4-0.5l1.8-1.5h1v4.9H39.3z"/>
<path class="st0" d="M51.2,25.6c0,0.5-0.1,1-0.2,1.3c-0.1,0.4-0.3,0.7-0.5,0.9c-0.2,0.2-0.4,0.4-0.7,0.5c-0.3,0.1-0.6,0.2-0.9,0.2
	s-0.6-0.1-0.9-0.2c-0.3-0.1-0.5-0.3-0.7-0.5c-0.2-0.2-0.3-0.6-0.5-0.9c-0.1-0.4-0.2-0.8-0.2-1.3s0.1-1,0.2-1.3
	c0.1-0.4,0.3-0.7,0.5-0.9c0.2-0.2,0.4-0.4,0.7-0.5c0.3-0.1,0.6-0.2,0.9-0.2s0.6,0.1,0.9,0.2c0.3,0.1,0.5,0.3,0.7,0.5
	c0.2,0.2,0.3,0.6,0.5,0.9C51.1,24.6,51.2,25.1,51.2,25.6z M49.9,25.6c0-0.4,0-0.7-0.1-1c-0.1-0.3-0.1-0.5-0.2-0.6
	c-0.1-0.1-0.2-0.2-0.3-0.3c-0.1-0.1-0.2-0.1-0.3-0.1c-0.1,0-0.2,0-0.3,0.1c-0.1,0.1-0.2,0.2-0.3,0.3c-0.1,0.1-0.1,0.3-0.2,0.6
	c0,0.3-0.1,0.6-0.1,1c0,0.4,0,0.7,0.1,1c0.1,0.3,0.1,0.5,0.2,0.6c0.1,0.1,0.2,0.2,0.3,0.3c0.1,0.1,0.2,0.1,0.3,0.1
	c0.1,0,0.2,0,0.3-0.1c0.1-0.1,0.2-0.2,0.3-0.3c0.1-0.1,0.2-0.4,0.2-0.6S49.9,26,49.9,25.6z"/>
<path class="st0" d="M61.7,26.3h-1.5v1.6h-1v-1.6h-1.5v-0.9h1.5v-1.6h1v1.6h1.5V26.3z M66.1,27.6v0.9h-3.3v-0.9h1.1v-2.9
	c0-0.1,0-0.1,0-0.2c0-0.1,0-0.2,0-0.2l-0.7,0.6c-0.1,0-0.1,0.1-0.2,0.1c-0.1,0-0.1,0-0.2,0c-0.1,0-0.1,0-0.1-0.1
	c0,0-0.1-0.1-0.1-0.1l-0.4-0.5l1.8-1.5h1v4.9H66.1z"/>
<path class="st0" d="M74.7,26.3h-1.5v1.6h-1v-1.6h-1.5v-0.9h1.5v-1.6h1v1.6h1.5V26.3z M78.8,27.4c0.1,0,0.2,0,0.3,0.1
	c0.1,0.1,0.1,0.2,0.1,0.3v0.7h-4.1v-0.4c0-0.1,0-0.2,0-0.2c0-0.1,0.1-0.2,0.2-0.2l1.7-1.7c0.1-0.1,0.3-0.3,0.4-0.4
	c0.1-0.1,0.2-0.3,0.3-0.4c0.1-0.1,0.1-0.3,0.2-0.4c0-0.1,0.1-0.3,0.1-0.4c0-0.2-0.1-0.4-0.2-0.5c-0.1-0.1-0.3-0.2-0.5-0.2
	c-0.2,0-0.3,0-0.5,0.1c-0.1,0.1-0.2,0.2-0.3,0.4c-0.1,0.1-0.1,0.2-0.2,0.3s-0.2,0.1-0.4,0l-0.7-0.1c0-0.3,0.1-0.5,0.2-0.8
	c0.1-0.2,0.3-0.4,0.5-0.5c0.2-0.1,0.4-0.3,0.6-0.3c0.2-0.1,0.5-0.1,0.7-0.1c0.3,0,0.5,0,0.8,0.1c0.2,0.1,0.4,0.2,0.6,0.3
	c0.2,0.1,0.3,0.3,0.4,0.5c0.1,0.2,0.1,0.4,0.1,0.7c0,0.2,0,0.4-0.1,0.6c-0.1,0.2-0.1,0.4-0.2,0.5c-0.1,0.2-0.2,0.3-0.4,0.5
	c-0.1,0.2-0.3,0.3-0.4,0.5l-1.1,1.2c0.1,0,0.3-0.1,0.4-0.1c0.1,0,0.3,0,0.4,0H78.8z"/>
<path class="st0" d="M87.7,26.3h-1.5v1.6h-1v-1.6h-1.5v-0.9h1.5v-1.6h1v1.6h1.5V26.3z M88.3,24.3c0-0.3,0.1-0.5,0.2-0.8
	c0.1-0.2,0.3-0.4,0.5-0.5c0.2-0.1,0.4-0.3,0.6-0.3c0.2-0.1,0.5-0.1,0.7-0.1c0.3,0,0.5,0,0.8,0.1c0.2,0.1,0.4,0.2,0.6,0.3
	c0.2,0.1,0.3,0.3,0.4,0.5c0.1,0.2,0.1,0.4,0.1,0.6c0,0.2,0,0.3-0.1,0.5c0,0.1-0.1,0.3-0.2,0.4c-0.1,0.1-0.2,0.2-0.3,0.3
	c-0.1,0.1-0.2,0.1-0.4,0.2c0.6,0.2,1,0.7,1,1.3c0,0.3-0.1,0.6-0.2,0.8c-0.1,0.2-0.3,0.4-0.5,0.6c-0.2,0.2-0.4,0.3-0.7,0.3
	c-0.2,0.1-0.5,0.1-0.8,0.1c-0.3,0-0.5,0-0.7-0.1c-0.2-0.1-0.4-0.2-0.6-0.3c-0.2-0.1-0.3-0.3-0.4-0.5c-0.1-0.2-0.2-0.4-0.3-0.7
	l0.6-0.2c0.1-0.1,0.3-0.1,0.4,0c0.1,0,0.2,0.1,0.3,0.2c0.1,0.2,0.2,0.4,0.4,0.5c0.1,0.1,0.3,0.1,0.5,0.1c0.1,0,0.3,0,0.4-0.1
	c0.1,0,0.2-0.1,0.3-0.2c0.1-0.1,0.1-0.2,0.2-0.3s0.1-0.2,0.1-0.3c0-0.1,0-0.2,0-0.3c0-0.1-0.1-0.2-0.1-0.3c-0.1-0.1-0.2-0.1-0.4-0.2
	c-0.2,0-0.4-0.1-0.7-0.1v-0.9c0.2,0,0.4,0,0.6-0.1s0.3-0.1,0.3-0.2c0.1-0.1,0.1-0.1,0.2-0.2c0-0.1,0-0.2,0-0.3
	c0-0.2-0.1-0.4-0.2-0.5c-0.1-0.1-0.3-0.2-0.5-0.2c-0.2,0-0.3,0-0.5,0.1c-0.1,0.1-0.2,0.2-0.3,0.4c-0.1,0.1-0.1,0.2-0.2,0.3
	s-0.2,0.1-0.4,0L88.3,24.3z"/>
<path class="st0" d="M6.7,43.6h2.2v1H6.7V43.6z M9.5,42.3c0-0.3,0.1-0.5,0.2-0.8c0.1-0.2,0.3-0.4,0.5-0.5c0.2-0.1,0.4-0.3,0.6-0.3
	c0.2-0.1,0.5-0.1,0.7-0.1c0.3,0,0.5,0,0.8,0.1c0.2,0.1,0.4,0.2,0.6,0.3c0.2,0.1,0.3,0.3,0.4,0.5c0.1,0.2,0.1,0.4,0.1,0.6
	c0,0.2,0,0.3-0.1,0.5c0,0.1-0.1,0.3-0.2,0.4c-0.1,0.1-0.2,0.2-0.3,0.3c-0.1,0.1-0.2,0.1-0.4,0.2c0.6,0.2,1,0.7,1,1.3
	c0,0.3-0.1,0.6-0.2,0.8c-0.1,0.2-0.3,0.4-0.5,0.6c-0.2,0.2-0.4,0.3-0.7,0.3c-0.2,0.1-0.5,0.1-0.8,0.1c-0.3,0-0.5,0-0.7-0.1
	c-0.2-0.1-0.4-0.2-0.6-0.3c-0.2-0.1-0.3-0.3-0.4-0.5c-0.1-0.2-0.2-0.4-0.3-0.7l0.6-0.2c0.1-0.1,0.3-0.1,0.4,0c0.1,0,0.2,0.1,0.3,0.2
	c0.1,0.2,0.2,0.4,0.4,0.5c0.1,0.1,0.3,0.1,0.5,0.1c0.1,0,0.3,0,0.4-0.1c0.1,0,0.2-0.1,0.3-0.2c0.1-0.1,0.1-0.2,0.2-0.3
	c0-0.1,0.1-0.2,0.1-0.3c0-0.1,0-0.2,0-0.3c0-0.1-0.1-0.2-0.1-0.3C12,44.1,11.8,44,11.7,44c-0.2,0-0.4-0.1-0.7-0.1v-0.9
	c0.2,0,0.4,0,0.6-0.1c0.1,0,0.3-0.1,0.3-0.2c0.1-0.1,0.1-0.1,0.2-0.2c0-0.1,0-0.2,0-0.3c0-0.2-0.1-0.4-0.2-0.5
	c-0.1-0.1-0.3-0.2-0.5-0.2c-0.2,0-0.3,0-0.5,0.1c-0.1,0.1-0.2,0.2-0.3,0.4c-0.1,0.1-0.1,0.2-0.2,0.3c-0.1,0-0.2,0.1-0.4,0L9.5,42.3z
	"/>
<path class="st0" d="M19.7,43.6h2.2v1h-2.2V43.6z M26,45.4c0.1,0,0.2,0,0.3,0.1c0.1,0.1,0.1,0.2,0.1,0.3v0.7h-4.1v-0.4
	c0-0.1,0-0.2,0-0.2c0-0.1,0.1-0.2,0.2-0.2l1.7-1.7c0.1-0.1,0.3-0.3,0.4-0.4c0.1-0.1,0.2-0.3,0.3-0.4C25,43,25,42.9,25,42.7
	c0-0.1,0.1-0.3,0.1-0.4c0-0.2-0.1-0.4-0.2-0.5c-0.1-0.1-0.3-0.2-0.5-0.2c-0.2,0-0.3,0-0.5,0.1c-0.1,0.1-0.2,0.2-0.3,0.4
	c-0.1,0.1-0.1,0.2-0.2,0.3c-0.1,0-0.2,0.1-0.4,0l-0.7-0.1c0-0.3,0.1-0.5,0.2-0.8c0.1-0.2,0.3-0.4,0.5-0.5c0.2-0.1,0.4-0.3,0.6-0.3
	c0.2-0.1,0.5-0.1,0.7-0.1c0.3,0,0.5,0,0.8,0.1c0.2,0.1,0.4,0.2,0.6,0.3c0.2,0.1,0.3,0.3,0.4,0.5c0.1,0.2,0.1,0.4,0.1,0.7
	c0,0.2,0,0.4-0.1,0.6c-0.1,0.2-0.1,0.4-0.2,0.5c-0.1,0.2-0.2,0.3-0.4,0.5c-0.1,0.2-0.3,0.3-0.4,0.5l-1.1,1.2c0.1,0,0.3-0.1,0.4-0.1
	c0.1,0,0.3,0,0.4,0H26z"/>
<path class="st0" d="M31.5,38h9c0.6,0,1,0.4,1,1v9c0,0.6-0.4,1-1,1h-9c-0.6,0-1-0.4-1-1v-9C30.5,38.4,30.9,38,31.5,38z"/>
<path class="st1" d="M31.5,38h9c0.6,0,1,0.4,1,1v9c0,0.6-0.4,1-1,1h-9c-0.6,0-1-0.4-1-1v-9C30.5,38.4,30.9,38,31.5,38z"/>
<path d="M32.7,43.6h2.2v1h-2.2V43.6z M39.3,45.6v0.9H36v-0.9h1.1v-2.9c0-0.1,0-0.1,0-0.2c0-0.1,0-0.2,0-0.2l-0.7,0.6
	c-0.1,0-0.1,0.1-0.2,0.1c-0.1,0-0.1,0-0.2,0c-0.1,0-0.1,0-0.1-0.1c0,0-0.1-0.1-0.1-0.1l-0.4-0.5l1.8-1.5h1v4.9H39.3z"/>
<path class="st0" d="M51.2,43.6c0,0.5-0.1,1-0.2,1.3c-0.1,0.4-0.3,0.7-0.5,0.9c-0.2,0.2-0.4,0.4-0.7,0.5c-0.3,0.1-0.6,0.2-0.9,0.2
	s-0.6-0.1-0.9-0.2c-0.3-0.1-0.5-0.3-0.7-0.5c-0.2-0.2-0.3-0.6-0.5-0.9c-0.1-0.4-0.2-0.8-0.2-1.3s0.1-1,0.2-1.3
	c0.1-0.4,0.3-0.7,0.5-0.9c0.2-0.2,0.4-0.4,0.7-0.5c0.3-0.1,0.6-0.2,0.9-0.2s0.6,0.1,0.9,0.2c0.3,0.1,0.5,0.3,0.7,0.5
	c0.2,0.2,0.3,0.6,0.5,0.9C51.1,42.6,51.2,43.1,51.2,43.6z M49.9,43.6c0-0.4,0-0.7-0.1-1c-0.1-0.3-0.1-0.5-0.2-0.6
	c-0.1-0.1-0.2-0.2-0.3-0.3c-0.1-0.1-0.2-0.1-0.3-0.1c-0.1,0-0.2,0-0.3,0.1c-0.1,0.1-0.2,0.2-0.3,0.3c-0.1,0.1-0.1,0.3-0.2,0.6
	c0,0.3-0.1,0.6-0.1,1c0,0.4,0,0.7,0.1,1c0.1,0.3,0.1,0.5,0.2,0.6c0.1,0.1,0.2,0.2,0.3,0.3c0.1,0.1,0.2,0.1,0.3,0.1
	c0.1,0,0.2,0,0.3-0.1c0.1-0.1,0.2-0.2,0.3-0.3c0.1-0.1,0.2-0.4,0.2-0.6S49.9,44,49.9,43.6z"/>
<path class="st0" d="M61.7,44.3h-1.5v1.6h-1v-1.6h-1.5v-0.9h1.5v-1.6h1v1.6h1.5V44.3z M66.1,45.6v0.9h-3.3v-0.9h1.1v-2.9
	c0-0.1,0-0.1,0-0.2c0-0.1,0-0.2,0-0.2l-0.7,0.6c-0.1,0-0.1,0.1-0.2,0.1c-0.1,0-0.1,0-0.2,0c-0.1,0-0.1,0-0.1-0.1
	c0,0-0.1-0.1-0.1-0.1l-0.4-0.5l1.8-1.5h1v4.9H66.1z"/>
<path class="st0" d="M74.7,44.3h-1.5v1.6h-1v-1.6h-1.5v-0.9h1.5v-1.6h1v1.6h1.5V44.3z M78.8,45.4c0.1,0,0.2,0,0.3,0.1
	c0.1,0.1,0.1,0.2,0.1,0.3v0.7h-4.1v-0.4c0-0.1,0-0.2,0-0.2c0-0.1,0.1-0.2,0.2-0.2l1.7-1.7c0.1-0.1,0.3-0.3,0.4-0.4
	c0.1-0.1,0.2-0.3,0.3-0.4c0.1-0.1,0.1-0.3,0.2-0.4c0-0.1,0.1-0.3,0.1-0.4c0-0.2-0.1-0.4-0.2-0.5c-0.1-0.1-0.3-0.2-0.5-0.2
	c-0.2,0-0.3,0-0.5,0.1c-0.1,0.1-0.2,0.2-0.3,0.4c-0.1,0.1-0.1,0.2-0.2,0.3c-0.1,0-0.2,0.1-0.4,0l-0.7-0.1c0-0.3,0.1-0.5,0.2-0.8
	c0.1-0.2,0.3-0.4,0.5-0.5c0.2-0.1,0.4-0.3,0.6-0.3c0.2-0.1,0.5-0.1,0.7-0.1c0.3,0,0.5,0,0.8,0.1c0.2,0.1,0.4,0.2,0.6,0.3
	c0.2,0.1,0.3,0.3,0.4,0.5c0.1,0.2,0.1,0.4,0.1,0.7c0,0.2,0,0.4-0.1,0.6c-0.1,0.2-0.1,0.4-0.2,0.5c-0.1,0.2-0.2,0.3-0.4,0.5
	c-0.1,0.2-0.3,0.3-0.4,0.5l-1.1,1.2c0.1,0,0.3-0.1,0.4-0.1c0.1,0,0.3,0,0.4,0H78.8z"/>
<path class="st0" d="M87.7,44.3h-1.5v1.6h-1v-1.6h-1.5v-0.9h1.5v-1.6h1v1.6h1.5V44.3z M88.3,42.3c0-0.3,0.1-0.5,0.2-0.8
	c0.1-0.2,0.3-0.4,0.5-0.5c0.2-0.1,0.4-0.3,0.6-0.3c0.2-0.1,0.5-0.1,0.7-0.1c0.3,0,0.5,0,0.8,0.1c0.2,0.1,0.4,0.2,0.6,0.3
	c0.2,0.1,0.3,0.3,0.4,0.5c0.1,0.2,0.1,0.4,0.1,0.6c0,0.2,0,0.3-0.1,0.5c0,0.1-0.1,0.3-0.2,0.4c-0.1,0.1-0.2,0.2-0.3,0.3
	c-0.1,0.1-0.2,0.1-0.4,0.2c0.6,0.2,1,0.7,1,1.3c0,0.3-0.1,0.6-0.2,0.8c-0.1,0.2-0.3,0.4-0.5,0.6c-0.2,0.2-0.4,0.3-0.7,0.3
	c-0.2,0.1-0.5,0.1-0.8,0.1c-0.3,0-0.5,0-0.7-0.1c-0.2-0.1-0.4-0.2-0.6-0.3c-0.2-0.1-0.3-0.3-0.4-0.5c-0.1-0.2-0.2-0.4-0.3-0.7
	l0.6-0.2c0.1-0.1,0.3-0.1,0.4,0c0.1,0,0.2,0.1,0.3,0.2c0.1,0.2,0.2,0.4,0.4,0.5c0.1,0.1,0.3,0.1,0.5,0.1c0.1,0,0.3,0,0.4-0.1
	c0.1,0,0.2-0.1,0.3-0.2c0.1-0.1,0.1-0.2,0.2-0.3c0-0.1,0.1-0.2,0.1-0.3c0-0.1,0-0.2,0-0.3c0-0.1-0.1-0.2-0.1-0.3
	c-0.1-0.1-0.2-0.1-0.4-0.2c-0.2,0-0.4-0.1-0.7-0.1v-0.9c0.2,0,0.4,0,0.6-0.1s0.3-0.1,0.3-0.2c0.1-0.1,0.1-0.1,0.2-0.2s0-0.2,0-0.3
	c0-0.2-0.1-0.4-0.2-0.5c-0.1-0.1-0.3-0.2-0.5-0.2c-0.2,0-0.3,0-0.5,0.1c-0.1,0.1-0.2,0.2-0.3,0.4c-0.1,0.1-0.1,0.2-0.2,0.3
	c-0.1,0-0.2,0.1-0.4,0L88.3,42.3z"/>
<path class="st0" d="M6.7,61.6h2.2v1H6.7V61.6z M9.5,60.3c0-0.3,0.1-0.5,0.2-0.8c0.1-0.2,0.3-0.4,0.5-0.5c0.2-0.1,0.4-0.3,0.6-0.3
	c0.2-0.1,0.5-0.1,0.7-0.1c0.3,0,0.5,0,0.8,0.1c0.2,0.1,0.4,0.2,0.6,0.3c0.2,0.1,0.3,0.3,0.4,0.5c0.1,0.2,0.1,0.4,0.1,0.6
	c0,0.2,0,0.3-0.1,0.5c0,0.1-0.1,0.3-0.2,0.4c-0.1,0.1-0.2,0.2-0.3,0.3c-0.1,0.1-0.2,0.1-0.4,0.2c0.6,0.2,1,0.7,1,1.3
	c0,0.3-0.1,0.6-0.2,0.8c-0.1,0.2-0.3,0.4-0.5,0.6c-0.2,0.2-0.4,0.3-0.7,0.3c-0.2,0.1-0.5,0.1-0.8,0.1c-0.3,0-0.5,0-0.7-0.1
	c-0.2-0.1-0.4-0.2-0.6-0.3c-0.2-0.1-0.3-0.3-0.4-0.5c-0.1-0.2-0.2-0.4-0.3-0.7l0.6-0.2c0.1-0.1,0.3-0.1,0.4,0c0.1,0,0.2,0.1,0.3,0.2
	c0.1,0.2,0.2,0.4,0.4,0.5c0.1,0.1,0.3,0.1,0.5,0.1c0.1,0,0.3,0,0.4-0.1c0.1,0,0.2-0.1,0.3-0.2c0.1-0.1,0.1-0.2,0.2-0.3
	c0-0.1,0.1-0.2,0.1-0.3c0-0.1,0-0.2,0-0.3c0-0.1-0.1-0.2-0.1-0.3C12,62.1,11.8,62,11.7,62c-0.2,0-0.4-0.1-0.7-0.1v-0.9
	c0.2,0,0.4,0,0.6-0.1c0.1,0,0.3-0.1,0.3-0.2c0.1-0.1,0.1-0.1,0.2-0.2c0-0.1,0-0.2,0-0.3c0-0.2-0.1-0.4-0.2-0.5
	c-0.1-0.1-0.3-0.2-0.5-0.2c-0.2,0-0.3,0-0.5,0.1c-0.1,0.1-0.2,0.2-0.3,0.4c-0.1,0.1-0.1,0.2-0.2,0.3c-0.1,0-0.2,0.1-0.4,0L9.5,60.3z
	"/>
<path class="st0" d="M19.7,61.6h2.2v1h-2.2V61.6z M26,63.4c0.1,0,0.2,0,0.3,0.1c0.1,0.1,0.1,0.2,0.1,0.3v0.7h-4.1v-0.4
	c0-0.1,0-0.2,0-0.2c0-0.1,0.1-0.2,0.2-0.2l1.7-1.7c0.1-0.1,0.3-0.3,0.4-0.4c0.1-0.1,0.2-0.3,0.3-0.4C25,61,25,60.9,25,60.7
	c0-0.1,0.1-0.3,0.1-0.4c0-0.2-0.1-0.4-0.2-0.5c-0.1-0.1-0.3-0.2-0.5-0.2c-0.2,0-0.3,0-0.5,0.1c-0.1,0.1-0.2,0.2-0.3,0.4
	c-0.1,0.1-0.1,0.2-0.2,0.3c-0.1,0-0.2,0.1-0.4,0l-0.7-0.1c0-0.3,0.1-0.5,0.2-0.8c0.1-0.2,0.3-0.4,0.5-0.5c0.2-0.1,0.4-0.3,0.6-0.3
	c0.2-0.1,0.5-0.1,0.7-0.1c0.3,0,0.5,0,0.8,0.1c0.2,0.1,0.4,0.2,0.6,0.3c0.2,0.1,0.3,0.3,0.4,0.5c0.1,0.2,0.1,0.4,0.1,0.7
	c0,0.2,0,0.4-0.1,0.6c-0.1,0.2-0.1,0.4-0.2,0.5c-0.1,0.2-0.2,0.3-0.4,0.5c-0.1,0.2-0.3,0.3-0.4,0.5l-1.1,1.2c0.1,0,0.3-0.1,0.4-0.1
	c0.1,0,0.3,0,0.4,0H26z"/>
<path class="st0" d="M32.7,61.6h2.2v1h-2.2V61.6z M39.3,63.6v0.9H36v-0.9h1.1v-2.9c0-0.1,0-0.1,0-0.2c0-0.1,0-0.2,0-0.2l-0.7,0.6
	c-0.1,0-0.1,0.1-0.2,0.1c-0.1,0-0.1,0-0.2,0c-0.1,0-0.1,0-0.1-0.1c0,0-0.1-0.1-0.1-0.1l-0.4-0.5l1.8-1.5h1v4.9H39.3z"/>
<path class="st0" d="M44.5,56h9c0.6,0,1,0.4,1,1v9c0,0.6-0.4,1-1,1h-9c-0.6,0-1-0.4-1-1v-9C43.5,56.4,43.9,56,44.5,56z"/>
<path class="st1" d="M44.5,56h9c0.6,0,1,0.4,1,1v9c0,0.6-0.4,1-1,1h-9c-0.6,0-1-0.4-1-1v-9C43.5,56.4,43.9,56,44.5,56z"/>
<path d="M51.2,61.6c0,0.5-0.1,1-0.2,1.3c-0.1,0.4-0.3,0.7-0.5,0.9c-0.2,0.2-0.4,0.4-0.7,0.5c-0.3,0.1-0.6,0.2-0.9,0.2
	s-0.6-0.1-0.9-0.2c-0.3-0.1-0.5-0.3-0.7-0.5c-0.2-0.2-0.3-0.6-0.5-0.9c-0.1-0.4-0.2-0.8-0.2-1.3s0.1-1,0.2-1.3
	c0.1-0.4,0.3-0.7,0.5-0.9c0.2-0.2,0.4-0.4,0.7-0.5c0.3-0.1,0.6-0.2,0.9-0.2s0.6,0.1,0.9,0.2c0.3,0.1,0.5,0.3,0.7,0.5
	c0.2,0.2,0.3,0.6,0.5,0.9C51.1,60.6,51.2,61.1,51.2,61.6z M49.9,61.6c0-0.4,0-0.7-0.1-1c-0.1-0.3-0.1-0.5-0.2-0.6
	c-0.1-0.1-0.2-0.2-0.3-0.3c-0.1-0.1-0.2-0.1-0.3-0.1c-0.1,0-0.2,0-0.3,0.1c-0.1,0.1-0.2,0.2-0.3,0.3c-0.1,0.1-0.1,0.3-0.2,0.6
	c0,0.3-0.1,0.6-0.1,1c0,0.4,0,0.7,0.1,1c0.1,0.3,0.1,0.5,0.2,0.6c0.1,0.1,0.2,0.2,0.3,0.3c0.1,0.1,0.2,0.1,0.3,0.1
	c0.1,0,0.2,0,0.3-0.1c0.1-0.1,0.2-0.2,0.3-0.3c0.1-0.1,0.2-0.4,0.2-0.6S49.9,62,49.9,61.6z"/>
<path class="st0" d="M61.7,62.3h-1.5v1.6h-1v-1.6h-1.5v-0.9h1.5v-1.6h1v1.6h1.5V62.3z M66.1,63.6v0.9h-3.3v-0.9h1.1v-2.9
	c0-0.1,0-0.1,0-0.2c0-0.1,0-0.2,0-0.2l-0.7,0.6c-0.1,0-0.1,0.1-0.2,0.1c-0.1,0-0.1,0-0.2,0c-0.1,0-0.1,0-0.1-0.1
	c0,0-0.1-0.1-0.1-0.1l-0.4-0.5l1.8-1.5h1v4.9H66.1z"/>
<path class="st0" d="M74.7,62.3h-1.5v1.6h-1v-1.6h-1.5v-0.9h1.5v-1.6h1v1.6h1.5V62.3z M78.8,63.4c0.1,0,0.2,0,0.3,0.1
	c0.1,0.1,0.1,0.2,0.1,0.3v0.7h-4.1v-0.4c0-0.1,0-0.2,0-0.2c0-0.1,0.1-0.2,0.2-0.2l1.7-1.7c0.1-0.1,0.3-0.3,0.4-0.4
	c0.1-0.1,0.2-0.3,0.3-0.4c0.1-0.1,0.1-0.3,0.2-0.4c0-0.1,0.1-0.3,0.1-0.4c0-0.2-0.1-0.4-0.2-0.5c-0.1-0.1-0.3-0.2-0.5-0.2
	c-0.2,0-0.3,0-0.5,0.1c-0.1,0.1-0.2,0.2-0.3,0.4c-0.1,0.1-0.1,0.2-0.2,0.3c-0.1,0-0.2,0.1-0.4,0l-0.7-0.1c0-0.3,0.1-0.5,0.2-0.8
	c0.1-0.2,0.3-0.4,0.5-0.5c0.2-0.1,0.4-0.3,0.6-0.3c0.2-0.1,0.5-0.1,0.7-0.1c0.3,0,0.5,0,0.8,0.1c0.2,0.1,0.4,0.2,0.6,0.3
	c0.2,0.1,0.3,0.3,0.4,0.5c0.1,0.2,0.1,0.4,0.1,0.7c0,0.2,0,0.4-0.1,0.6c-0.1,0.2-0.1,0.4-0.2,0.5c-0.1,0.2-0.2,0.3-0.4,0.5
	c-0.1,0.2-0.3,0.3-0.4,0.5l-1.1,1.2c0.1,0,0.3-0.1,0.4-0.1c0.1,0,0.3,0,0.4,0H78.8z"/>
<path class="st0" d="M87.7,62.3h-1.5v1.6h-1v-1.6h-1.5v-0.9h1.5v-1.6h1v1.6h1.5V62.3z M88.3,60.3c0-0.3,0.1-0.5,0.2-0.8
	c0.1-0.2,0.3-0.4,0.5-0.5c0.2-0.1,0.4-0.3,0.6-0.3c0.2-0.1,0.5-0.1,0.7-0.1c0.3,0,0.5,0,0.8,0.1c0.2,0.1,0.4,0.2,0.6,0.3
	c0.2,0.1,0.3,0.3,0.4,0.5c0.1,0.2,0.1,0.4,0.1,0.6c0,0.2,0,0.3-0.1,0.5c0,0.1-0.1,0.3-0.2,0.4c-0.1,0.1-0.2,0.2-0.3,0.3
	c-0.1,0.1-0.2,0.1-0.4,0.2c0.6,0.2,1,0.7,1,1.3c0,0.3-0.1,0.6-0.2,0.8c-0.1,0.2-0.3,0.4-0.5,0.6c-0.2,0.2-0.4,0.3-0.7,0.3
	c-0.2,0.1-0.5,0.1-0.8,0.1c-0.3,0-0.5,0-0.7-0.1c-0.2-0.1-0.4-0.2-0.6-0.3c-0.2-0.1-0.3-0.3-0.4-0.5c-0.1-0.2-0.2-0.4-0.3-0.7
	l0.6-0.2c0.1-0.1,0.3-0.1,0.4,0c0.1,0,0.2,0.1,0.3,0.2c0.1,0.2,0.2,0.4,0.4,0.5c0.1,0.1,0.3,0.1,0.5,0.1c0.1,0,0.3,0,0.4-0.1
	c0.1,0,0.2-0.1,0.3-0.2c0.1-0.1,0.1-0.2,0.2-0.3c0-0.1,0.1-0.2,0.1-0.3c0-0.1,0-0.2,0-0.3c0-0.1-0.1-0.2-0.1-0.3
	c-0.1-0.1-0.2-0.1-0.4-0.2c-0.2,0-0.4-0.1-0.7-0.1v-0.9c0.2,0,0.4,0,0.6-0.1s0.3-0.1,0.3-0.2c0.1-0.1,0.1-0.1,0.2-0.2s0-0.2,0-0.3
	c0-0.2-0.1-0.4-0.2-0.5c-0.1-0.1-0.3-0.2-0.5-0.2c-0.2,0-0.3,0-0.5,0.1c-0.1,0.1-0.2,0.2-0.3,0.4c-0.1,0.1-0.1,0.2-0.2,0.3
	c-0.1,0-0.2,0.1-0.4,0L88.3,60.3z"/>
<path class="st0" d="M6.7,79.6h2.2v1H6.7V79.6z M9.5,78.3c0-0.3,0.1-0.5,0.2-0.8c0.1-0.2,0.3-0.4,0.5-0.5c0.2-0.1,0.4-0.3,0.6-0.3
	c0.2-0.1,0.5-0.1,0.7-0.1c0.3,0,0.5,0,0.8,0.1c0.2,0.1,0.4,0.2,0.6,0.3c0.2,0.1,0.3,0.3,0.4,0.5c0.1,0.2,0.1,0.4,0.1,0.6
	c0,0.2,0,0.3-0.1,0.5c0,0.1-0.1,0.3-0.2,0.4c-0.1,0.1-0.2,0.2-0.3,0.3c-0.1,0.1-0.2,0.1-0.4,0.2c0.6,0.2,1,0.7,1,1.3
	c0,0.3-0.1,0.6-0.2,0.8c-0.1,0.2-0.3,0.4-0.5,0.6c-0.2,0.2-0.4,0.3-0.7,0.3c-0.2,0.1-0.5,0.1-0.8,0.1c-0.3,0-0.5,0-0.7-0.1
	c-0.2-0.1-0.4-0.2-0.6-0.3c-0.2-0.1-0.3-0.3-0.4-0.5c-0.1-0.2-0.2-0.4-0.3-0.7l0.6-0.2c0.1-0.1,0.3-0.1,0.4,0c0.1,0,0.2,0.1,0.3,0.2
	c0.1,0.2,0.2,0.4,0.4,0.5c0.1,0.1,0.3,0.1,0.5,0.1c0.1,0,0.3,0,0.4-0.1c0.1,0,0.2-0.1,0.3-0.2c0.1-0.1,0.1-0.2,0.2-0.3
	c0-0.1,0.1-0.2,0.1-0.3c0-0.1,0-0.2,0-0.3c0-0.1-0.1-0.2-0.1-0.3C12,80.1,11.8,80,11.7,80c-0.2,0-0.4-0.1-0.7-0.1v-0.9
	c0.2,0,0.4,0,0.6-0.1c0.1,0,0.3-0.1,0.3-0.2c0.1-0.1,0.1-0.1,0.2-0.2c0-0.1,0-0.2,0-0.3c0-0.2-0.1-0.4-0.2-0.5
	c-0.1-0.1-0.3-0.2-0.5-0.2c-0.2,0-0.3,0-0.5,0.1c-0.1,0.1-0.2,0.2-0.3,0.4c-0.1,0.1-0.1,0.2-0.2,0.3c-0.1,0-0.2,0.1-0.4,0L9.5,78.3z
	"/>
<path class="st0" d="M19.7,79.6h2.2v1h-2.2V79.6z M26,81.4c0.1,0,0.2,0,0.3,0.1c0.1,0.1,0.1,0.2,0.1,0.3v0.7h-4.1v-0.4
	c0-0.1,0-0.2,0-0.2c0-0.1,0.1-0.2,0.2-0.2l1.7-1.7c0.1-0.1,0.3-0.3,0.4-0.4c0.1-0.1,0.2-0.3,0.3-0.4C25,79,25,78.9,25,78.7
	c0-0.1,0.1-0.3,0.1-0.4c0-0.2-0.1-0.4-0.2-0.5c-0.1-0.1-0.3-0.2-0.5-0.2c-0.2,0-0.3,0-0.5,0.1c-0.1,0.1-0.2,0.2-0.3,0.4
	c-0.1,0.1-0.1,0.2-0.2,0.3c-0.1,0-0.2,0.1-0.4,0l-0.7-0.1c0-0.3,0.1-0.5,0.2-0.8c0.1-0.2,0.3-0.4,0.5-0.5c0.2-0.1,0.4-0.3,0.6-0.3
	c0.2-0.1,0.5-0.1,0.7-0.1c0.3,0,0.5,0,0.8,0.1c0.2,0.1,0.4,0.2,0.6,0.3c0.2,0.1,0.3,0.3,0.4,0.5c0.1,0.2,0.1,0.4,0.1,0.7
	c0,0.2,0,0.4-0.1,0.6c-0.1,0.2-0.1,0.4-0.2,0.5c-0.1,0.2-0.2,0.3-0.4,0.5c-0.1,0.2-0.3,0.3-0.4,0.5l-1.1,1.2c0.1,0,0.3-0.1,0.4-0.1
	c0.1,0,0.3,0,0.4,0H26z"/>
<path class="st0" d="M32.7,79.6h2.2v1h-2.2V79.6z M39.3,81.6v0.9H36v-0.9h1.1v-2.9c0-0.1,0-0.1,0-0.2c0-0.1,0-0.2,0-0.2l-0.7,0.6
	c-0.1,0-0.1,0.1-0.2,0.1c-0.1,0-0.1,0-0.2,0c-0.1,0-0.1,0-0.1-0.1c0,0-0.1-0.1-0.1-0.1l-0.4-0.5l1.8-1.5h1v4.9H39.3z"/>
<path class="st0" d="M51.2,79.6c0,0.5-0.1,1-0.2,1.3c-0.1,0.4-0.3,0.7-0.5,0.9c-0.2,0.2-0.4,0.4-0.7,0.5c-0.3,0.1-0.6,0.2-0.9,0.2
	s-0.6-0.1-0.9-0.2c-0.3-0.1-0.5-0.3-0.7-0.5c-0.2-0.2-0.3-0.6-0.5-0.9c-0.1-0.4-0.2-0.8-0.2-1.3s0.1-1,0.2-1.3
	c0.1-0.4,0.3-0.7,0.5-0.9c0.2-0.2,0.4-0.4,0.7-0.5c0.3-0.1,0.6-0.2,0.9-0.2s0.6,0.1,0.9,0.2c0.3,0.1,0.5,0.3,0.7,0.5
	c0.2,0.2,0.3,0.6,0.5,0.9C51.1,78.6,51.2,79.1,51.2,79.6z M49.9,79.6c0-0.4,0-0.7-0.1-1c-0.1-0.3-0.1-0.5-0.2-0.6
	c-0.1-0.1-0.2-0.2-0.3-0.3c-0.1-0.1-0.2-0.1-0.3-0.1c-0.1,0-0.2,0-0.3,0.1c-0.1,0.1-0.2,0.2-0.3,0.3c-0.1,0.1-0.1,0.3-0.2,0.6
	c0,0.3-0.1,0.6-0.1,1c0,0.4,0,0.7,0.1,1c0.1,0.3,0.1,0.5,0.2,0.6c0.1,0.1,0.2,0.2,0.3,0.3c0.1,0.1,0.2,0.1,0.3,0.1
	c0.1,0,0.2,0,0.3-0.1c0.1-0.1,0.2-0.2,0.3-0.3c0.1-0.1,0.2-0.4,0.2-0.6C49.9,80.3,49.9,80,49.9,79.6z"/>
<path class="st0" d="M57.5,74h9c0.6,0,1,0.4,1,1v9c0,0.6-0.4,1-1,1h-9c-0.6,0-1-0.4-1-1v-9C56.5,74.4,56.9,74,57.5,74z"/>
<path class="st1" d="M57.5,74h9c0.6,0,1,0.4,1,1v9c0,0.6-0.4,1-1,1h-9c-0.6,0-1-0.4-1-1v-9C56.5,74.4,56.9,74,57.5,74z"/>
<path d="M61.7,80.3h-1.5v1.6h-1v-1.6h-1.5v-0.9h1.5v-1.6h1v1.6h1.5V80.3z M66.1,81.6v0.9h-3.3v-0.9h1.1v-2.9c0-0.1,0-0.1,0-0.2
	c0-0.1,0-0.2,0-0.2l-0.7,0.6c-0.1,0-0.1,0.1-0.2,0.1c-0.1,0-0.1,0-0.2,0c-0.1,0-0.1,0-0.1-0.1c0,0-0.1-0.1-0.1-0.1l-0.4-0.5l1.8-1.5
	h1v4.9H66.1z"/>
<path class="st0" d="M74.7,80.3h-1.5v1.6h-1v-1.6h-1.5v-0.9h1.5v-1.6h1v1.6h1.5V80.3z M78.8,81.4c0.1,0,0.2,0,0.3,0.1
	c0.1,0.1,0.1,0.2,0.1,0.3v0.7h-4.1v-0.4c0-0.1,0-0.2,0-0.2c0-0.1,0.1-0.2,0.2-0.2l1.7-1.7c0.1-0.1,0.3-0.3,0.4-0.4
	c0.1-0.1,0.2-0.3,0.3-0.4c0.1-0.1,0.1-0.3,0.2-0.4c0-0.1,0.1-0.3,0.1-0.4c0-0.2-0.1-0.4-0.2-0.5c-0.1-0.1-0.3-0.2-0.5-0.2
	c-0.2,0-0.3,0-0.5,0.1c-0.1,0.1-0.2,0.2-0.3,0.4c-0.1,0.1-0.1,0.2-0.2,0.3c-0.1,0-0.2,0.1-0.4,0l-0.7-0.1c0-0.3,0.1-0.5,0.2-0.8
	c0.1-0.2,0.3-0.4,0.5-0.5c0.2-0.1,0.4-0.3,0.6-0.3c0.2-0.1,0.5-0.1,0.7-0.1c0.3,0,0.5,0,0.8,0.1c0.2,0.1,0.4,0.2,0.6,0.3
	c0.2,0.1,0.3,0.3,0.4,0.5c0.1,0.2,0.1,0.4,0.1,0.7c0,0.2,0,0.4-0.1,0.6c-0.1,0.2-0.1,0.4-0.2,0.5c-0.1,0.2-0.2,0.3-0.4,0.5
	c-0.1,0.2-0.3,0.3-0.4,0.5l-1.1,1.2c0.1,0,0.3-0.1,0.4-0.1c0.1,0,0.3,0,0.4,0H78.8z"/>
<path class="st0" d="M87.7,80.3h-1.5v1.6h-1v-1.6h-1.5v-0.9h1.5v-1.6h1v1.6h1.5V80.3z M88.3,78.3c0-0.3,0.1-0.5,0.2-0.8
	c0.1-0.2,0.3-0.4,0.5-0.5c0.2-0.1,0.4-0.3,0.6-0.3c0.2-0.1,0.5-0.1,0.7-0.1c0.3,0,0.5,0,0.8,0.1c0.2,0.1,0.4,0.2,0.6,0.3
	c0.2,0.1,0.3,0.3,0.4,0.5c0.1,0.2,0.1,0.4,0.1,0.6c0,0.2,0,0.3-0.1,0.5c0,0.1-0.1,0.3-0.2,0.4c-0.1,0.1-0.2,0.2-0.3,0.3
	c-0.1,0.1-0.2,0.1-0.4,0.2c0.6,0.2,1,0.7,1,1.3c0,0.3-0.1,0.6-0.2,0.8c-0.1,0.2-0.3,0.4-0.5,0.6c-0.2,0.2-0.4,0.3-0.7,0.3
	c-0.2,0.1-0.5,0.1-0.8,0.1c-0.3,0-0.5,0-0.7-0.1c-0.2-0.1-0.4-0.2-0.6-0.3c-0.2-0.1-0.3-0.3-0.4-0.5c-0.1-0.2-0.2-0.4-0.3-0.7
	l0.6-0.2c0.1-0.1,0.3-0.1,0.4,0c0.1,0,0.2,0.1,0.3,0.2c0.1,0.2,0.2,0.4,0.4,0.5c0.1,0.1,0.3,0.1,0.5,0.1c0.1,0,0.3,0,0.4-0.1
	c0.1,0,0.2-0.1,0.3-0.2c0.1-0.1,0.1-0.2,0.2-0.3s0.1-0.2,0.1-0.3c0-0.1,0-0.2,0-0.3c0-0.1-0.1-0.2-0.1-0.3c-0.1-0.1-0.2-0.1-0.4-0.2
	c-0.2,0-0.4-0.1-0.7-0.1v-0.9c0.2,0,0.4,0,0.6-0.1s0.3-0.1,0.3-0.2c0.1-0.1,0.1-0.1,0.2-0.2s0-0.2,0-0.3c0-0.2-0.1-0.4-0.2-0.5
	c-0.1-0.1-0.3-0.2-0.5-0.2c-0.2,0-0.3,0-0.5,0.1c-0.1,0.1-0.2,0.2-0.3,0.4c-0.1,0.1-0.1,0.2-0.2,0.3c-0.1,0-0.2,0.1-0.4,0L88.3,78.3
	z"/>
<path class="st0" d="M6.7,97.6h2.2v1H6.7V97.6z M9.5,96.3c0-0.3,0.1-0.5,0.2-0.8c0.1-0.2,0.3-0.4,0.5-0.5c0.2-0.1,0.4-0.3,0.6-0.3
	c0.2-0.1,0.5-0.1,0.7-0.1c0.3,0,0.5,0,0.8,0.1c0.2,0.1,0.4,0.2,0.6,0.3c0.2,0.1,0.3,0.3,0.4,0.5c0.1,0.2,0.1,0.4,0.1,0.6
	c0,0.2,0,0.3-0.1,0.5c0,0.1-0.1,0.3-0.2,0.4c-0.1,0.1-0.2,0.2-0.3,0.3c-0.1,0.1-0.2,0.1-0.4,0.2c0.6,0.2,1,0.7,1,1.3
	c0,0.3-0.1,0.6-0.2,0.8c-0.1,0.2-0.3,0.4-0.5,0.6c-0.2,0.2-0.4,0.3-0.7,0.3c-0.2,0.1-0.5,0.1-0.8,0.1c-0.3,0-0.5,0-0.7-0.1
	c-0.2-0.1-0.4-0.2-0.6-0.3c-0.2-0.1-0.3-0.3-0.4-0.5c-0.1-0.2-0.2-0.4-0.3-0.7l0.6-0.2c0.1-0.1,0.3-0.1,0.4,0c0.1,0,0.2,0.1,0.3,0.2
	c0.1,0.2,0.2,0.4,0.4,0.5c0.1,0.1,0.3,0.1,0.5,0.1c0.1,0,0.3,0,0.4-0.1c0.1,0,0.2-0.1,0.3-0.2c0.1-0.1,0.1-0.2,0.2-0.3
	c0-0.1,0.1-0.2,0.1-0.3c0-0.1,0-0.2,0-0.3c0-0.1-0.1-0.2-0.1-0.3C12,98.1,11.8,98,11.7,98c-0.2,0-0.4-0.1-0.7-0.1v-0.9
	c0.2,0,0.4,0,0.6-0.1c0.1,0,0.3-0.1,0.3-0.2c0.1-0.1,0.1-0.1,0.2-0.2c0-0.1,0-0.2,0-0.3c0-0.2-0.1-0.4-0.2-0.5
	c-0.1-0.1-0.3-0.2-0.5-0.2c-0.2,0-0.3,0-0.5,0.1c-0.1,0.1-0.2,0.2-0.3,0.4c-0.1,0.1-0.1,0.2-0.2,0.3c-0.1,0-0.2,0.1-0.4,0L9.5,96.3z
	"/>
<path class="st0" d="M19.7,97.6h2.2v1h-2.2V97.6z M26,99.4c0.1,0,0.2,0,0.3,0.1c0.1,0.1,0.1,0.2,0.1,0.3v0.7h-4.1v-0.4
	c0-0.1,0-0.2,0-0.2c0-0.1,0.1-0.2,0.2-0.2l1.7-1.7c0.1-0.1,0.3-0.3,0.4-0.4c0.1-0.1,0.2-0.3,0.3-0.4C25,97,25,96.9,25,96.7
	c0-0.1,0.1-0.3,0.1-0.4c0-0.2-0.1-0.4-0.2-0.5c-0.1-0.1-0.3-0.2-0.5-0.2c-0.2,0-0.3,0-0.5,0.1c-0.1,0.1-0.2,0.2-0.3,0.4
	c-0.1,0.1-0.1,0.2-0.2,0.3c-0.1,0-0.2,0.1-0.4,0l-0.7-0.1c0-0.3,0.1-0.5,0.2-0.8c0.1-0.2,0.3-0.4,0.5-0.5c0.2-0.1,0.4-0.3,0.6-0.3
	c0.2-0.1,0.5-0.1,0.7-0.1c0.3,0,0.5,0,0.8,0.1c0.2,0.1,0.4,0.2,0.6,0.3c0.2,0.1,0.3,0.3,0.4,0.5c0.1,0.2,0.1,0.4,0.1,0.7
	c0,0.2,0,0.4-0.1,0.6c-0.1,0.2-0.1,0.4-0.2,0.5c-0.1,0.2-0.2,0.3-0.4,0.5c-0.1,0.2-0.3,0.3-0.4,0.5l-1.1,1.2c0.1,0,0.3-0.1,0.4-0.1
	c0.1,0,0.3,0,0.4,0H26z"/>
<path class="st0" d="M32.7,97.6h2.2v1h-2.2V97.6z M39.3,99.6v0.9H36v-0.9h1.1v-2.9c0-0.1,0-0.1,0-0.2c0-0.1,0-0.2,0-0.2l-0.7,0.6
	c-0.1,0-0.1,0.1-0.2,0.1c-0.1,0-0.1,0-0.2,0c-0.1,0-0.1,0-0.1-0.1c0,0-0.1-0.1-0.1-0.1l-0.4-0.5l1.8-1.5h1v4.9H39.3z"/>
<path class="st0" d="M51.2,97.6c0,0.5-0.1,1-0.2,1.3c-0.1,0.4-0.3,0.7-0.5,0.9c-0.2,0.2-0.4,0.4-0.7,0.5c-0.3,0.1-0.6,0.2-0.9,0.2
	s-0.6-0.1-0.9-0.2c-0.3-0.1-0.5-0.3-0.7-0.5c-0.2-0.2-0.3-0.6-0.5-0.9c-0.1-0.4-0.2-0.8-0.2-1.3s0.1-1,0.2-1.3
	c0.1-0.4,0.3-0.7,0.5-0.9c0.2-0.2,0.4-0.4,0.7-0.5c0.3-0.1,0.6-0.2,0.9-0.2s0.6,0.1,0.9,0.2c0.3,0.1,0.5,0.3,0.7,0.5
	c0.2,0.2,0.3,0.6,0.5,0.9C51.1,96.6,51.2,97.1,51.2,97.6z M49.9,97.6c0-0.4,0-0.7-0.1-1c-0.1-0.3-0.1-0.5-0.2-0.6
	c-0.1-0.1-0.2-0.2-0.3-0.3c-0.1-0.1-0.2-0.1-0.3-0.1c-0.1,0-0.2,0-0.3,0.1c-0.1,0.1-0.2,0.2-0.3,0.3c-0.1,0.1-0.1,0.3-0.2,0.6
	c0,0.3-0.1,0.6-0.1,1c0,0.4,0,0.7,0.1,1c0.1,0.3,0.1,0.5,0.2,0.6c0.1,0.1,0.2,0.2,0.3,0.3c0.1,0.1,0.2,0.1,0.3,0.1
	c0.1,0,0.2,0,0.3-0.1c0.1-0.1,0.2-0.2,0.3-0.3c0.1-0.1,0.2-0.4,0.2-0.6C49.9,98.3,49.9,98,49.9,97.6z"/>
<path class="st0" d="M61.7,98.3h-1.5v1.6h-1v-1.6h-1.5v-0.9h1.5v-1.6h1v1.6h1.5V98.3z M66.1,99.6v0.9h-3.3v-0.9h1.1v-2.9
	c0-0.1,0-0.1,0-0.2c0-0.1,0-0.2,0-0.2l-0.7,0.6c-0.1,0-0.1,0.1-0.2,0.1c-0.1,0-0.1,0-0.2,0c-0.1,0-0.1,0-0.1-0.1
	c0,0-0.1-0.1-0.1-0.1l-0.4-0.5l1.8-1.5h1v4.9H66.1z"/>
<path class="st0" d="M70.5,92h9c0.6,0,1,0.4,1,1v9c0,0.6-0.4,1-1,1h-9c-0.6,0-1-0.4-1-1v-9C69.5,92.4,69.9,92,70.5,92z"/>
<path class="st1" d="M70.5,92h9c0.6,0,1,0.4,1,1v9c0,0.6-0.4,1-1,1h-9c-0.6,0-1-0.4-1-1v-9C69.5,92.4,69.9,92,70.5,92z"/>
<path d="M74.7,98.3h-1.5v1.6h-1v-1.6h-1.5v-0.9h1.5v-1.6h1v1.6h1.5V98.3z M78.8,99.4c0.1,0,0.2,0,0.3,0.1c0.1,0.1,0.1,0.2,0.1,0.3
	v0.7h-4.1v-0.4c0-0.1,0-0.2,0-0.2c0-0.1,0.1-0.2,0.2-0.2l1.7-1.7c0.1-0.1,0.3-0.3,0.4-0.4c0.1-0.1,0.2-0.3,0.3-0.4
	c0.1-0.1,0.1-0.3,0.2-0.4c0-0.1,0.1-0.3,0.1-0.4c0-0.2-0.1-0.4-0.2-0.5c-0.1-0.1-0.3-0.2-0.5-0.2c-0.2,0-0.3,0-0.5,0.1
	c-0.1,0.1-0.2,0.2-0.3,0.4c-0.1,0.1-0.1,0.2-0.2,0.3c-0.1,0-0.2,0.1-0.4,0l-0.7-0.1c0-0.3,0.1-0.5,0.2-0.8c0.1-0.2,0.3-0.4,0.5-0.5
	c0.2-0.1,0.4-0.3,0.6-0.3c0.2-0.1,0.5-0.1,0.7-0.1c0.3,0,0.5,0,0.8,0.1c0.2,0.1,0.4,0.2,0.6,0.3c0.2,0.1,0.3,0.3,0.4,0.5
	c0.1,0.2,0.1,0.4,0.1,0.7c0,0.2,0,0.4-0.1,0.6c-0.1,0.2-0.1,0.4-0.2,0.5c-0.1,0.2-0.2,0.3-0.4,0.5c-0.1,0.2-0.3,0.3-0.4,0.5
	l-1.1,1.2c0.1,0,0.3-0.1,0.4-0.1c0.1,0,0.3,0,0.4,0H78.8z"/>
<path class="st0" d="M87.7,98.3h-1.5v1.6h-1v-1.6h-1.5v-0.9h1.5v-1.6h1v1.6h1.5V98.3z M88.3,96.3c0-0.3,0.1-0.5,0.2-0.8
	c0.1-0.2,0.3-0.4,0.5-0.5c0.2-0.1,0.4-0.3,0.6-0.3c0.2-0.1,0.5-0.1,0.7-0.1c0.3,0,0.5,0,0.8,0.1c0.2,0.1,0.4,0.2,0.6,0.3
	c0.2,0.1,0.3,0.3,0.4,0.5c0.1,0.2,0.1,0.4,0.1,0.6c0,0.2,0,0.3-0.1,0.5c0,0.1-0.1,0.3-0.2,0.4c-0.1,0.1-0.2,0.2-0.3,0.3
	c-0.1,0.1-0.2,0.1-0.4,0.2c0.6,0.2,1,0.7,1,1.3c0,0.3-0.1,0.6-0.2,0.8c-0.1,0.2-0.3,0.4-0.5,0.6c-0.2,0.2-0.4,0.3-0.7,0.3
	c-0.2,0.1-0.5,0.1-0.8,0.1c-0.3,0-0.5,0-0.7-0.1c-0.2-0.1-0.4-0.2-0.6-0.3c-0.2-0.1-0.3-0.3-0.4-0.5c-0.1-0.2-0.2-0.4-0.3-0.7
	l0.6-0.2c0.1-0.1,0.3-0.1,0.4,0c0.1,0,0.2,0.1,0.3,0.2c0.1,0.2,0.2,0.4,0.4,0.5c0.1,0.1,0.3,0.1,0.5,0.1c0.1,0,0.3,0,0.4-0.1
	c0.1,0,0.2-0.1,0.3-0.2c0.1-0.1,0.1-0.2,0.2-0.3s0.1-0.2,0.1-0.3c0-0.1,0-0.2,0-0.3c0-0.1-0.1-0.2-0.1-0.3c-0.1-0.1-0.2-0.1-0.4-0.2
	c-0.2,0-0.4-0.1-0.7-0.1v-0.9c0.2,0,0.4,0,0.6-0.1s0.3-0.1,0.3-0.2c0.1-0.1,0.1-0.1,0.2-0.2s0-0.2,0-0.3c0-0.2-0.1-0.4-0.2-0.5
	c-0.1-0.1-0.3-0.2-0.5-0.2c-0.2,0-0.3,0-0.5,0.1c-0.1,0.1-0.2,0.2-0.3,0.4c-0.1,0.1-0.1,0.2-0.2,0.3c-0.1,0-0.2,0.1-0.4,0L88.3,96.3
	z"/>
<path class="st0" d="M6.7,115.6h2.2v1H6.7V115.6z M9.5,114.3c0-0.3,0.1-0.5,0.2-0.8c0.1-0.2,0.3-0.4,0.5-0.5
	c0.2-0.1,0.4-0.3,0.6-0.3c0.2-0.1,0.5-0.1,0.7-0.1c0.3,0,0.5,0,0.8,0.1c0.2,0.1,0.4,0.2,0.6,0.3c0.2,0.1,0.3,0.3,0.4,0.5
	c0.1,0.2,0.1,0.4,0.1,0.6c0,0.2,0,0.3-0.1,0.5c0,0.1-0.1,0.3-0.2,0.4c-0.1,0.1-0.2,0.2-0.3,0.3c-0.1,0.1-0.2,0.1-0.4,0.2
	c0.6,0.2,1,0.7,1,1.3c0,0.3-0.1,0.6-0.2,0.8c-0.1,0.2-0.3,0.4-0.5,0.6c-0.2,0.2-0.4,0.3-0.7,0.3c-0.2,0.1-0.5,0.1-0.8,0.1
	c-0.3,0-0.5,0-0.7-0.1c-0.2-0.1-0.4-0.2-0.6-0.3c-0.2-0.1-0.3-0.3-0.4-0.5c-0.1-0.2-0.2-0.4-0.3-0.7l0.6-0.2c0.1-0.1,0.3-0.1,0.4,0
	c0.1,0,0.2,0.1,0.3,0.2c0.1,0.2,0.2,0.4,0.4,0.5c0.1,0.1,0.3,0.1,0.5,0.1c0.1,0,0.3,0,0.4-0.1c0.1,0,0.2-0.1,0.3-0.2
	c0.1-0.1,0.1-0.2,0.2-0.3c0-0.1,0.1-0.2,0.1-0.3c0-0.1,0-0.2,0-0.3c0-0.1-0.1-0.2-0.1-0.3c-0.1-0.1-0.2-0.1-0.4-0.2
	c-0.2,0-0.4-0.1-0.7-0.1v-0.9c0.2,0,0.4,0,0.6-0.1c0.1,0,0.3-0.1,0.3-0.2c0.1-0.1,0.1-0.1,0.2-0.2c0-0.1,0-0.2,0-0.3
	c0-0.2-0.1-0.4-0.2-0.5c-0.1-0.1-0.3-0.2-0.5-0.2c-0.2,0-0.3,0-0.5,0.1c-0.1,0.1-0.2,0.2-0.3,0.4c-0.1,0.1-0.1,0.2-0.2,0.3
	c-0.1,0-0.2,0.1-0.4,0L9.5,114.3z"/>
<path class="st0" d="M19.7,115.6h2.2v1h-2.2V115.6z M26,117.4c0.1,0,0.2,0,0.3,0.1c0.1,0.1,0.1,0.2,0.1,0.3v0.7h-4.1v-0.4
	c0-0.1,0-0.2,0-0.2c0-0.1,0.1-0.2,0.2-0.2l1.7-1.7c0.1-0.1,0.3-0.3,0.4-0.4c0.1-0.1,0.2-0.3,0.3-0.4c0.1-0.1,0.1-0.3,0.2-0.4
	c0-0.1,0.1-0.3,0.1-0.4c0-0.2-0.1-0.4-0.2-0.5c-0.1-0.1-0.3-0.2-0.5-0.2c-0.2,0-0.3,0-0.5,0.1c-0.1,0.1-0.2,0.2-0.3,0.4
	c-0.1,0.1-0.1,0.2-0.2,0.3c-0.1,0-0.2,0.1-0.4,0l-0.7-0.1c0-0.3,0.1-0.5,0.2-0.8c0.1-0.2,0.3-0.4,0.5-0.5c0.2-0.1,0.4-0.3,0.6-0.3
	c0.2-0.1,0.5-0.1,0.7-0.1c0.3,0,0.5,0,0.8,0.1c0.2,0.1,0.4,0.2,0.6,0.3c0.2,0.1,0.3,0.3,0.4,0.5c0.1,0.2,0.1,0.4,0.1,0.7
	c0,0.2,0,0.4-0.1,0.6c-0.1,0.2-0.1,0.4-0.2,0.5c-0.1,0.2-0.2,0.3-0.4,0.5c-0.1,0.2-0.3,0.3-0.4,0.5l-1.1,1.2c0.1,0,0.3-0.1,0.4-0.1
	c0.1,0,0.3,0,0.4,0H26z"/>
<path class="st0" d="M32.7,115.6h2.2v1h-2.2V115.6z M39.3,117.6v0.9H36v-0.9h1.1v-2.9c0-0.1,0-0.1,0-0.2c0-0.1,0-0.2,0-0.2l-0.7,0.6
	c-0.1,0-0.1,0.1-0.2,0.1c-0.1,0-0.1,0-0.2,0c-0.1,0-0.1,0-0.1-0.1c0,0-0.1-0.1-0.1-0.1l-0.4-0.5l1.8-1.5h1v4.9H39.3z"/>
<path class="st0" d="M51.2,115.6c0,0.5-0.1,1-0.2,1.3c-0.1,0.4-0.3,0.7-0.5,0.9c-0.2,0.2-0.4,0.4-0.7,0.5c-0.3,0.1-0.6,0.2-0.9,0.2
	s-0.6-0.1-0.9-0.2c-0.3-0.1-0.5-0.3-0.7-0.5c-0.2-0.2-0.3-0.6-0.5-0.9c-0.1-0.4-0.2-0.8-0.2-1.3s0.1-1,0.2-1.3
	c0.1-0.4,0.3-0.7,0.5-0.9c0.2-0.2,0.4-0.4,0.7-0.5c0.3-0.1,0.6-0.2,0.9-0.2s0.6,0.1,0.9,0.2c0.3,0.1,0.5,0.3,0.7,0.5
	c0.2,0.2,0.3,0.6,0.5,0.9C51.1,114.6,51.2,115.1,51.2,115.6z M49.9,115.6c0-0.4,0-0.7-0.1-1c-0.1-0.3-0.1-0.5-0.2-0.6
	c-0.1-0.1-0.2-0.2-0.3-0.3c-0.1-0.1-0.2-0.1-0.3-0.1c-0.1,0-0.2,0-0.3,0.1c-0.1,0.1-0.2,0.2-0.3,0.3c-0.1,0.1-0.1,0.3-0.2,0.6
	c0,0.3-0.1,0.6-0.1,1c0,0.4,0,0.7,0.1,1c0.1,0.3,0.1,0.5,0.2,0.6c0.1,0.1,0.2,0.2,0.3,0.3c0.1,0.1,0.2,0.1,0.3,0.1
	c0.1,0,0.2,0,0.3-0.1c0.1-0.1,0.2-0.2,0.3-0.3c0.1-0.1,0.2-0.4,0.2-0.6C49.9,116.3,49.9,116,49.9,115.6z"/>
<path class="st0" d="M61.7,116.3h-1.5v1.6h-1v-1.6h-1.5v-0.9h1.5v-1.6h1v1.6h1.5V116.3z M66.1,117.6v0.9h-3.3v-0.9h1.1v-2.9
	c0-0.1,0-0.1,0-0.2c0-0.1,0-0.2,0-0.2l-0.7,0.6c-0.1,0-0.1,0.1-0.2,0.1c-0.1,0-0.1,0-0.2,0c-0.1,0-0.1,0-0.1-0.1
	c0,0-0.1-0.1-0.1-0.1l-0.4-0.5l1.8-1.5h1v4.9H66.1z"/>
<path class="st0" d="M74.7,116.3h-1.5v1.6h-1v-1.6h-1.5v-0.9h1.5v-1.6h1v1.6h1.5V116.3z M78.8,117.4c0.1,0,0.2,0,0.3,0.1
	c0.1,0.1,0.1,0.2,0.1,0.3v0.7h-4.1v-0.4c0-0.1,0-0.2,0-0.2c0-0.1,0.1-0.2,0.2-0.2l1.7-1.7c0.1-0.1,0.3-0.3,0.4-0.4
	c0.1-0.1,0.2-0.3,0.3-0.4c0.1-0.1,0.1-0.3,0.2-0.4c0-0.1,0.1-0.3,0.1-0.4c0-0.2-0.1-0.4-0.2-0.5c-0.1-0.1-0.3-0.2-0.5-0.2
	c-0.2,0-0.3,0-0.5,0.1c-0.1,0.1-0.2,0.2-0.3,0.4c-0.1,0.1-0.1,0.2-0.2,0.3c-0.1,0-0.2,0.1-0.4,0l-0.7-0.1c0-0.3,0.1-0.5,0.2-0.8
	c0.1-0.2,0.3-0.4,0.5-0.5c0.2-0.1,0.4-0.3,0.6-0.3c0.2-0.1,0.5-0.1,0.7-0.1c0.3,0,0.5,0,0.8,0.1c0.2,0.1,0.4,0.2,0.6,0.3
	c0.2,0.1,0.3,0.3,0.4,0.5c0.1,0.2,0.1,0.4,0.1,0.7c0,0.2,0,0.4-0.1,0.6c-0.1,0.2-0.1,0.4-0.2,0.5c-0.1,0.2-0.2,0.3-0.4,0.5
	c-0.1,0.2-0.3,0.3-0.4,0.5l-1.1,1.2c0.1,0,0.3-0.1,0.4-0.1c0.1,0,0.3,0,0.4,0H78.8z"/>
<path class="st0" d="M83.5,110h9c0.6,0,1,0.4,1,1v9c0,0.6-0.4,1-1,1h-9c-0.6,0-1-0.4-1-1v-9C82.5,110.4,82.9,110,83.5,110z"/>
<path class="st1" d="M83.5,110h9c0.6,0,1,0.4,1,1v9c0,0.6-0.4,1-1,1h-9c-0.6,0-1-0.4-1-1v-9C82.5,110.4,82.9,110,83.5,110z"/>
<path d="M87.7,116.3h-1.5v1.6h-1v-1.6h-1.5v-0.9h1.5v-1.6h1v1.6h1.5V116.3z M88.3,114.3c0-0.3,0.1-0.5,0.2-0.8
	c0.1-0.2,0.3-0.4,0.5-0.5c0.2-0.1,0.4-0.3,0.6-0.3c0.2-0.1,0.5-0.1,0.7-0.1c0.3,0,0.5,0,0.8,0.1c0.2,0.1,0.4,0.2,0.6,0.3
	s0.3,0.3,0.4,0.5c0.1,0.2,0.1,0.4,0.1,0.6c0,0.2,0,0.3-0.1,0.5c0,0.1-0.1,0.3-0.2,0.4c-0.1,0.1-0.2,0.2-0.3,0.3
	c-0.1,0.1-0.2,0.1-0.4,0.2c0.6,0.2,1,0.7,1,1.3c0,0.3-0.1,0.6-0.2,0.8c-0.1,0.2-0.3,0.4-0.5,0.6c-0.2,0.2-0.4,0.3-0.7,0.3
	c-0.2,0.1-0.5,0.1-0.8,0.1c-0.3,0-0.5,0-0.7-0.1c-0.2-0.1-0.4-0.2-0.6-0.3c-0.2-0.1-0.3-0.3-0.4-0.5c-0.1-0.2-0.2-0.4-0.3-0.7
	l0.6-0.2c0.1-0.1,0.3-0.1,0.4,0c0.1,0,0.2,0.1,0.3,0.2c0.1,0.2,0.2,0.4,0.4,0.5c0.1,0.1,0.3,0.1,0.5,0.1c0.1,0,0.3,0,0.4-0.1
	c0.1,0,0.2-0.1,0.3-0.2c0.1-0.1,0.1-0.2,0.2-0.3c0-0.1,0.1-0.2,0.1-0.3c0-0.1,0-0.2,0-0.3c0-0.1-0.1-0.2-0.1-0.3
	c-0.1-0.1-0.2-0.1-0.4-0.2c-0.2,0-0.4-0.1-0.7-0.1v-0.9c0.2,0,0.4,0,0.6-0.1c0.1,0,0.3-0.1,0.3-0.2c0.1-0.1,0.1-0.1,0.2-0.2
	c0-0.1,0-0.2,0-0.3c0-0.2-0.1-0.4-0.2-0.5c-0.1-0.1-0.3-0.2-0.5-0.2c-0.2,0-0.3,0-0.5,0.1c-0.1,0.1-0.2,0.2-0.3,0.4
	c-0.1,0.1-0.1,0.2-0.2,0.3c-0.1,0-0.2,0.1-0.4,0L88.3,114.3z"/>
</svg>
