<?xml version="1.0" encoding="utf-8"?>
<!-- Generator: Adobe Illustrator 23.0.0, SVG Export Plug-In . SVG Version: 6.00 Build 0)  -->
<svg version="1.1" id="Layer_1" xmlns="http://www.w3.org/2000/svg" xmlns:xlink="http://www.w3.org/1999/xlink" x="0px" y="0px"
	 viewBox="0 0 34 36" style="enable-background:new 0 0 34 36;" xml:space="preserve">
<style type="text/css">
	.st0{fill:#242424;}
	.st1{fill:#2B76BF;}
	.st2{fill:none;stroke:#2B76BF;}
	.st3{fill:#FFFFFF;}
	.st4{fill:#B4B4B4;}
	.st5{fill:#FF9000;}
	.st6{fill:#2B76BF;stroke:#2B76BF;}
</style>
<path class="st0" d="M0.5,2.5c0-1.1,0.9-2,2-2h29c1.1,0,2,0.9,2,2v13c0,1.1-0.9,2-2,2h-29c-1.1,0-2-0.9-2-2V2.5z"/>
<path class="st1" d="M2.5,1.5h29c0.6,0,1,0.4,1,1v5c0,0.6-0.4,1-1,1h-29c-0.6,0-1-0.4-1-1v-5C1.5,1.9,1.9,1.5,2.5,1.5z"/>
<path class="st2" d="M2.5,1.5h29c0.6,0,1,0.4,1,1v5c0,0.6-0.4,1-1,1h-29c-0.6,0-1-0.4-1-1v-5C1.5,1.9,1.9,1.5,2.5,1.5z"/>
<path class="st3" d="M8.9,5.4c0,0.4-0.1,0.7-0.2,1C8.5,6.8,8.4,7.1,8.1,7.3C7.9,7.5,7.6,7.7,7.3,7.8C7,7.9,6.6,8,6.2,8h-2V2.9h2
	C6.6,2.9,7,3,7.3,3.1c0.3,0.1,0.6,0.3,0.8,0.5c0.2,0.2,0.4,0.5,0.5,0.8C8.8,4.7,8.9,5.1,8.9,5.4z M7.6,5.4c0-0.3,0-0.5-0.1-0.7
	C7.5,4.6,7.4,4.4,7.3,4.3C7.1,4.1,7,4,6.8,3.9C6.6,3.8,6.4,3.8,6.2,3.8H5.4v3.3h0.8c0.2,0,0.4,0,0.6-0.1C7,6.9,7.1,6.8,7.3,6.7
	c0.1-0.1,0.2-0.3,0.3-0.5C7.6,5.9,7.6,5.7,7.6,5.4z M10.6,8H9.5V2.9h1.2V8z M14,5.4h1.8v2.2c-0.3,0.2-0.5,0.3-0.8,0.4
	C14.7,8,14.3,8.1,14,8.1c-0.4,0-0.8-0.1-1.1-0.2c-0.3-0.1-0.6-0.3-0.9-0.5c-0.2-0.2-0.4-0.5-0.6-0.8c-0.1-0.3-0.2-0.7-0.2-1
	c0-0.4,0.1-0.7,0.2-1c0.1-0.3,0.3-0.6,0.5-0.8c0.2-0.2,0.5-0.4,0.9-0.5c0.3-0.1,0.7-0.2,1.1-0.2c0.2,0,0.4,0,0.6,0.1
	C14.7,2.9,14.9,3,15,3c0.2,0.1,0.3,0.1,0.4,0.2c0.1,0.1,0.2,0.2,0.3,0.3l-0.3,0.5c-0.1,0.1-0.1,0.1-0.2,0.2c-0.1,0-0.2,0-0.3-0.1
	C14.9,4.1,14.8,4,14.7,4c-0.1,0-0.2-0.1-0.3-0.1c-0.1,0-0.2,0-0.3-0.1c-0.1,0-0.2,0-0.3,0c-0.2,0-0.4,0-0.6,0.1
	C13.1,4,13,4.1,12.8,4.3c-0.1,0.1-0.2,0.3-0.3,0.5c-0.1,0.2-0.1,0.4-0.1,0.7c0,0.3,0,0.5,0.1,0.7c0.1,0.2,0.2,0.4,0.3,0.5
	C13,6.8,13.2,7,13.4,7c0.2,0.1,0.4,0.1,0.6,0.1c0.1,0,0.3,0,0.4,0c0.1,0,0.2-0.1,0.3-0.1V6.2h-0.5c-0.1,0-0.1,0-0.2-0.1S14,6.1,14,6
	V5.4z M17.7,8h-1.2V2.9h1.2V8z M22.2,3.8h-1.4V8h-1.2V3.8h-1.4V2.9h4.1V3.8z M24.9,6.1l-0.5-1.4c0-0.1-0.1-0.2-0.1-0.3
	c0-0.1-0.1-0.3-0.1-0.4c0,0.1-0.1,0.3-0.1,0.4C24,4.5,24,4.6,24,4.7l-0.5,1.4H24.9z M26.8,8h-0.9c-0.1,0-0.2,0-0.2-0.1
	c-0.1,0-0.1-0.1-0.1-0.2l-0.3-0.9h-1.9l-0.3,0.9c0,0.1-0.1,0.1-0.1,0.2C22.7,8,22.6,8,22.5,8h-0.9l2-5.1h1.2L26.8,8z M30.1,7.1V8
	h-3.1V2.9h1.2v4.2H30.1z"/>
<path class="st4" d="M5.6,14.1l-0.5-1.4c0-0.1-0.1-0.2-0.1-0.3c0-0.1-0.1-0.3-0.1-0.4c0,0.1-0.1,0.3-0.1,0.4c0,0.1-0.1,0.2-0.1,0.3
	l-0.5,1.4H5.6z M7.5,16H6.6c-0.1,0-0.2,0-0.2-0.1c-0.1,0-0.1-0.1-0.1-0.2l-0.3-0.9H3.9l-0.3,0.9c0,0.1-0.1,0.1-0.1,0.2
	C3.4,16,3.3,16,3.2,16H2.3l2-5.1h1.2L7.5,16z M12.2,10.9V16h-0.6c-0.1,0-0.2,0-0.2,0c-0.1,0-0.1-0.1-0.2-0.2l-2.4-3
	c0,0.1,0,0.2,0,0.3c0,0.1,0,0.2,0,0.2V16h-1v-5.1h0.6c0.1,0,0.1,0,0.1,0c0,0,0.1,0,0.1,0c0,0,0.1,0,0.1,0.1s0.1,0.1,0.1,0.1l2.4,3.1
	c0-0.1,0-0.2,0-0.3c0-0.1,0-0.2,0-0.3v-2.7H12.2z M15.8,14.1l-0.5-1.4c0-0.1-0.1-0.2-0.1-0.3c0-0.1-0.1-0.3-0.1-0.4
	c0,0.1-0.1,0.3-0.1,0.4c0,0.1-0.1,0.2-0.1,0.3l-0.5,1.4H15.8z M17.7,16h-0.9c-0.1,0-0.2,0-0.2-0.1c-0.1,0-0.1-0.1-0.1-0.2l-0.3-0.9
	h-1.9l-0.3,0.9c0,0.1-0.1,0.1-0.1,0.2C13.6,16,13.5,16,13.4,16h-0.9l2-5.1h1.2L17.7,16z M21.1,15.1V16H18v-5.1h1.2v4.2H21.1z
	 M26.4,13.4c0,0.4-0.1,0.7-0.2,1c-0.1,0.3-0.3,0.6-0.5,0.8c-0.2,0.2-0.5,0.4-0.8,0.5c-0.3,0.1-0.7,0.2-1.1,0.2
	c-0.4,0-0.8-0.1-1.1-0.2c-0.3-0.1-0.6-0.3-0.8-0.5c-0.2-0.2-0.4-0.5-0.5-0.8c-0.1-0.3-0.2-0.7-0.2-1s0.1-0.7,0.2-1
	c0.1-0.3,0.3-0.6,0.5-0.8c0.2-0.2,0.5-0.4,0.8-0.5c0.3-0.1,0.7-0.2,1.1-0.2c0.4,0,0.8,0.1,1.1,0.2c0.3,0.1,0.6,0.3,0.8,0.5
	c0.2,0.2,0.4,0.5,0.5,0.8C26.4,12.7,26.4,13.1,26.4,13.4z M25.2,13.4c0-0.3,0-0.5-0.1-0.7c-0.1-0.2-0.2-0.4-0.3-0.5
	c-0.1-0.1-0.3-0.2-0.4-0.3c-0.2-0.1-0.4-0.1-0.6-0.1c-0.2,0-0.4,0-0.6,0.1c-0.2,0.1-0.3,0.2-0.5,0.3c-0.1,0.1-0.2,0.3-0.3,0.5
	c-0.1,0.2-0.1,0.4-0.1,0.7c0,0.3,0,0.5,0.1,0.7c0.1,0.2,0.2,0.4,0.3,0.5c0.1,0.1,0.3,0.2,0.5,0.3c0.2,0.1,0.4,0.1,0.6,0.1
	c0.2,0,0.4,0,0.6-0.1c0.2-0.1,0.3-0.2,0.4-0.3c0.1-0.1,0.2-0.3,0.3-0.5C25.2,13.9,25.2,13.7,25.2,13.4z M29.5,13.4h1.8v2.2
	c-0.3,0.2-0.5,0.3-0.8,0.4c-0.3,0.1-0.6,0.1-0.9,0.1c-0.4,0-0.8-0.1-1.1-0.2c-0.3-0.1-0.6-0.3-0.9-0.5c-0.2-0.2-0.4-0.5-0.6-0.8
	c-0.1-0.3-0.2-0.7-0.2-1c0-0.4,0.1-0.7,0.2-1c0.1-0.3,0.3-0.6,0.5-0.8c0.2-0.2,0.5-0.4,0.9-0.5c0.3-0.1,0.7-0.2,1.1-0.2
	c0.2,0,0.4,0,0.6,0.1c0.2,0,0.4,0.1,0.5,0.1c0.2,0.1,0.3,0.1,0.4,0.2c0.1,0.1,0.2,0.2,0.4,0.3L31,12.1c-0.1,0.1-0.1,0.1-0.2,0.2
	c-0.1,0-0.2,0-0.3-0.1c-0.1-0.1-0.2-0.1-0.3-0.1c-0.1,0-0.2-0.1-0.3-0.1c-0.1,0-0.2,0-0.3-0.1c-0.1,0-0.2,0-0.3,0
	c-0.2,0-0.4,0-0.6,0.1c-0.2,0.1-0.3,0.2-0.5,0.3c-0.1,0.1-0.2,0.3-0.3,0.5c-0.1,0.2-0.1,0.4-0.1,0.7c0,0.3,0,0.5,0.1,0.7
	c0.1,0.2,0.2,0.4,0.3,0.5c0.1,0.1,0.3,0.3,0.5,0.3c0.2,0.1,0.4,0.1,0.6,0.1c0.1,0,0.3,0,0.4,0c0.1,0,0.2-0.1,0.3-0.1v-0.8h-0.5
	c-0.1,0-0.1,0-0.2-0.1c0,0-0.1-0.1-0.1-0.2V13.4z"/>
<path class="st0" d="M0.5,20.5c0-1.1,0.9-2,2-2h29c1.1,0,2,0.9,2,2v13c0,1.1-0.9,2-2,2h-29c-1.1,0-2-0.9-2-2V20.5z"/>
<path class="st4" d="M8.9,23.4c0,0.4-0.1,0.7-0.2,1c-0.1,0.3-0.3,0.6-0.5,0.8c-0.2,0.2-0.5,0.4-0.8,0.5C7,25.9,6.6,26,6.2,26h-2
	v-5.1h2c0.4,0,0.8,0.1,1.1,0.2c0.3,0.1,0.6,0.3,0.8,0.5c0.2,0.2,0.4,0.5,0.5,0.8C8.8,22.7,8.9,23.1,8.9,23.4z M7.6,23.4
	c0-0.3,0-0.5-0.1-0.7c-0.1-0.2-0.2-0.4-0.3-0.5C7.1,22.1,7,22,6.8,21.9c-0.2-0.1-0.4-0.1-0.6-0.1H5.4v3.3h0.8c0.2,0,0.4,0,0.6-0.1
	c0.2-0.1,0.3-0.2,0.4-0.3c0.1-0.1,0.2-0.3,0.3-0.5C7.6,23.9,7.6,23.7,7.6,23.4z M10.6,26H9.5v-5.1h1.2V26z M14,23.4h1.8v2.2
	c-0.3,0.2-0.5,0.3-0.8,0.4c-0.3,0.1-0.6,0.1-0.9,0.1c-0.4,0-0.8-0.1-1.1-0.2c-0.3-0.1-0.6-0.3-0.9-0.5c-0.2-0.2-0.4-0.5-0.6-0.8
	c-0.1-0.3-0.2-0.7-0.2-1c0-0.4,0.1-0.7,0.2-1c0.1-0.3,0.3-0.6,0.5-0.8c0.2-0.2,0.5-0.4,0.9-0.5c0.3-0.1,0.7-0.2,1.1-0.2
	c0.2,0,0.4,0,0.6,0.1c0.2,0,0.4,0.1,0.5,0.1c0.2,0.1,0.3,0.1,0.4,0.2c0.1,0.1,0.2,0.2,0.3,0.3l-0.3,0.5c-0.1,0.1-0.1,0.1-0.2,0.2
	c-0.1,0-0.2,0-0.3-0.1c-0.1-0.1-0.2-0.1-0.3-0.1c-0.1,0-0.2-0.1-0.3-0.1c-0.1,0-0.2,0-0.3-0.1c-0.1,0-0.2,0-0.3,0
	c-0.2,0-0.4,0-0.6,0.1c-0.2,0.1-0.3,0.2-0.5,0.3c-0.1,0.1-0.2,0.3-0.3,0.5c-0.1,0.2-0.1,0.4-0.1,0.7c0,0.3,0,0.5,0.1,0.7
	c0.1,0.2,0.2,0.4,0.3,0.5c0.1,0.1,0.3,0.3,0.5,0.3c0.2,0.1,0.4,0.1,0.6,0.1c0.1,0,0.3,0,0.4,0c0.1,0,0.2-0.1,0.3-0.1v-0.8h-0.5
	c-0.1,0-0.1,0-0.2-0.1S14,24.1,14,24V23.4z M17.7,26h-1.2v-5.1h1.2V26z M22.2,21.8h-1.4V26h-1.2v-4.2h-1.4v-0.9h4.1V21.8z
	 M24.9,24.1l-0.5-1.4c0-0.1-0.1-0.2-0.1-0.3c0-0.1-0.1-0.3-0.1-0.4c0,0.1-0.1,0.3-0.1,0.4c0,0.1-0.1,0.2-0.1,0.3l-0.5,1.4H24.9z
	 M26.8,26h-0.9c-0.1,0-0.2,0-0.2-0.1c-0.1,0-0.1-0.1-0.1-0.2l-0.3-0.9h-1.9l-0.3,0.9c0,0.1-0.1,0.1-0.1,0.2C22.7,26,22.6,26,22.5,26
	h-0.9l2-5.1h1.2L26.8,26z M30.1,25.1V26h-3.1v-5.1h1.2v4.2H30.1z"/>
<path class="st5" d="M2.5,27.5h29c0.6,0,1,0.4,1,1v5c0,0.6-0.4,1-1,1h-29c-0.6,0-1-0.4-1-1v-5C1.5,27.9,1.9,27.5,2.5,27.5z"/>
<path class="st6" d="M2.5,27.5h29c0.6,0,1,0.4,1,1v5c0,0.6-0.4,1-1,1h-29c-0.6,0-1-0.4-1-1v-5C1.5,27.9,1.9,27.5,2.5,27.5z"/>
<path class="st3" d="M5.6,32.1l-0.5-1.4c0-0.1-0.1-0.2-0.1-0.3c0-0.1-0.1-0.3-0.1-0.4c0,0.1-0.1,0.3-0.1,0.4c0,0.1-0.1,0.2-0.1,0.3
	l-0.5,1.4H5.6z M7.5,34H6.6c-0.1,0-0.2,0-0.2-0.1c-0.1,0-0.1-0.1-0.1-0.2l-0.3-0.9H3.9l-0.3,0.9c0,0.1-0.1,0.1-0.1,0.2
	C3.4,34,3.3,34,3.2,34H2.3l2-5.1h1.2L7.5,34z M12.2,28.9V34h-0.6c-0.1,0-0.2,0-0.2,0c-0.1,0-0.1-0.1-0.2-0.2l-2.4-3
	c0,0.1,0,0.2,0,0.3c0,0.1,0,0.2,0,0.2V34h-1v-5.1h0.6c0.1,0,0.1,0,0.1,0c0,0,0.1,0,0.1,0c0,0,0.1,0,0.1,0.1c0,0,0.1,0.1,0.1,0.1
	l2.4,3.1c0-0.1,0-0.2,0-0.3c0-0.1,0-0.2,0-0.3v-2.7H12.2z M15.8,32.1l-0.5-1.4c0-0.1-0.1-0.2-0.1-0.3c0-0.1-0.1-0.3-0.1-0.4
	c0,0.1-0.1,0.3-0.1,0.4c0,0.1-0.1,0.2-0.1,0.3l-0.5,1.4H15.8z M17.7,34h-0.9c-0.1,0-0.2,0-0.2-0.1c-0.1,0-0.1-0.1-0.1-0.2l-0.3-0.9
	h-1.9l-0.3,0.9c0,0.1-0.1,0.1-0.1,0.2C13.6,34,13.5,34,13.4,34h-0.9l2-5.1h1.2L17.7,34z M21.1,33.1V34H18v-5.1h1.2v4.2H21.1z
	 M26.4,31.4c0,0.4-0.1,0.7-0.2,1c-0.1,0.3-0.3,0.6-0.5,0.8c-0.2,0.2-0.5,0.4-0.8,0.5c-0.3,0.1-0.7,0.2-1.1,0.2
	c-0.4,0-0.8-0.1-1.1-0.2c-0.3-0.1-0.6-0.3-0.8-0.5c-0.2-0.2-0.4-0.5-0.5-0.8c-0.1-0.3-0.2-0.7-0.2-1s0.1-0.7,0.2-1
	c0.1-0.3,0.3-0.6,0.5-0.8c0.2-0.2,0.5-0.4,0.8-0.5c0.3-0.1,0.7-0.2,1.1-0.2c0.4,0,0.8,0.1,1.1,0.2c0.3,0.1,0.6,0.3,0.8,0.5
	c0.2,0.2,0.4,0.5,0.5,0.8C26.4,30.7,26.4,31.1,26.4,31.4z M25.2,31.4c0-0.3,0-0.5-0.1-0.7c-0.1-0.2-0.2-0.4-0.3-0.5
	c-0.1-0.1-0.3-0.2-0.4-0.3c-0.2-0.1-0.4-0.1-0.6-0.1c-0.2,0-0.4,0-0.6,0.1c-0.2,0.1-0.3,0.2-0.5,0.3c-0.1,0.1-0.2,0.3-0.3,0.5
	c-0.1,0.2-0.1,0.4-0.1,0.7c0,0.3,0,0.5,0.1,0.7c0.1,0.2,0.2,0.4,0.3,0.5c0.1,0.1,0.3,0.2,0.5,0.3c0.2,0.1,0.4,0.1,0.6,0.1
	c0.2,0,0.4,0,0.6-0.1c0.2-0.1,0.3-0.2,0.4-0.3c0.1-0.1,0.2-0.3,0.3-0.5C25.2,31.9,25.2,31.7,25.2,31.4z M29.5,31.4h1.8v2.2
	c-0.3,0.2-0.5,0.3-0.8,0.4c-0.3,0.1-0.6,0.1-0.9,0.1c-0.4,0-0.8-0.1-1.1-0.2c-0.3-0.1-0.6-0.3-0.9-0.5c-0.2-0.2-0.4-0.5-0.6-0.8
	c-0.1-0.3-0.2-0.7-0.2-1c0-0.4,0.1-0.7,0.2-1c0.1-0.3,0.3-0.6,0.5-0.8c0.2-0.2,0.5-0.4,0.9-0.5c0.3-0.1,0.7-0.2,1.1-0.2
	c0.2,0,0.4,0,0.6,0.1c0.2,0,0.4,0.1,0.5,0.1c0.2,0.1,0.3,0.1,0.4,0.2c0.1,0.1,0.2,0.2,0.4,0.3L31,30.1c-0.1,0.1-0.1,0.1-0.2,0.2
	c-0.1,0-0.2,0-0.3-0.1c-0.1-0.1-0.2-0.1-0.3-0.1c-0.1,0-0.2-0.1-0.3-0.1c-0.1,0-0.2,0-0.3-0.1c-0.1,0-0.2,0-0.3,0
	c-0.2,0-0.4,0-0.6,0.1c-0.2,0.1-0.3,0.2-0.5,0.3c-0.1,0.1-0.2,0.3-0.3,0.5c-0.1,0.2-0.1,0.4-0.1,0.7c0,0.3,0,0.5,0.1,0.7
	c0.1,0.2,0.2,0.4,0.3,0.5c0.1,0.1,0.3,0.3,0.5,0.3c0.2,0.1,0.4,0.1,0.6,0.1c0.1,0,0.3,0,0.4,0c0.1,0,0.2-0.1,0.3-0.1v-0.8h-0.5
	c-0.1,0-0.1,0-0.2-0.1s-0.1-0.1-0.1-0.2V31.4z"/>
</svg>
