<?xml version="1.0" encoding="utf-8"?>
<!-- Generator: Adobe Illustrator 23.0.0, SVG Export Plug-In . SVG Version: 6.00 Build 0)  -->
<svg version="1.1" id="Layer_1" xmlns="http://www.w3.org/2000/svg" xmlns:xlink="http://www.w3.org/1999/xlink" x="0px" y="0px"
	 viewBox="0 0 134 208" style="enable-background:new 0 0 134 208;" xml:space="preserve">
<style type="text/css">
	.st0{opacity:0.2;fill-rule:evenodd;clip-rule:evenodd;fill:#FFFFFF;}
	.st1{opacity:0.3;fill:none;stroke:#FFFFFF;}
	.st2{opacity:0.3;fill:none;stroke:#FFFFFF;enable-background:new    ;}
	.st3{opacity:0.2;fill:#FFFFFF;}
	.st4{fill:#FFFFFF;}
	.st5{opacity:0.5;}
	.st6{fill:#EEEEEE;}
	.st7{fill:#242424;}
	.st8{fill:#B4B4B4;}
	.st9{display:none;fill:none;stroke:#666666;}
	.st10{display:none;}
</style>
<path class="st0" d="M1,160v3h120v8h7v2l4-2.5l-4-2.5v2h-5v-10H1z"/>
<path class="st1" d="M15.5,182.5h6c1.1,0,2,0.9,2,2v6c0,1.1-0.9,2-2,2h-6c-1.1,0-2-0.9-2-2v-6C13.5,183.4,14.4,182.5,15.5,182.5z"/>
<path class="st1" d="M47.5,182.5h6c1.1,0,2,0.9,2,2v6c0,1.1-0.9,2-2,2h-6c-1.1,0-2-0.9-2-2v-6C45.5,183.4,46.4,182.5,47.5,182.5z"/>
<path class="st1" d="M79.5,182.5h6c1.1,0,2,0.9,2,2v6c0,1.1-0.9,2-2,2h-6c-1.1,0-2-0.9-2-2v-6C77.5,183.4,78.4,182.5,79.5,182.5z"/>
<path class="st2" d="M117,182.5h-6c-1.1,0-2,0.9-2,2v6c0,1.1,0.9,2,2,2h6c1.1,0,2-0.9,2-2v-6C119,183.4,118.1,182.5,117,182.5z"/>
<path class="st3" d="M38,188h-1v9h46v-4h-1v3H38V188z"/>
<path class="st4" d="M20.1,189.4v0.6h-2.8v-0.6h1v-3c0-0.1,0-0.2,0-0.4l-0.7,0.6l-0.1,0.1h-0.1h-0.1c0,0,0,0-0.1-0.1l-0.3-0.4
	l1.5-1.3h0.7v4.4L20.1,189.4L20.1,189.4z"/>
<path class="st4" d="M51.9,189.2c0.1,0,0.2,0,0.2,0.1c0.1,0.1,0.1,0.1,0.1,0.2v0.5h-3.5v-0.3c0-0.1,0-0.1,0-0.2
	c0-0.1,0.1-0.1,0.1-0.2l1.5-1.5c0.1-0.1,0.2-0.3,0.3-0.4c0.1-0.1,0.2-0.2,0.3-0.4c0.1-0.1,0.1-0.2,0.2-0.4c0-0.1,0.1-0.2,0.1-0.4
	c0-0.1,0-0.2-0.1-0.3c0-0.1-0.1-0.2-0.2-0.2c-0.1-0.1-0.1-0.1-0.2-0.1c-0.1,0-0.2,0-0.3,0s-0.2,0-0.3,0s-0.2,0.1-0.2,0.1
	c-0.1,0.1-0.1,0.1-0.2,0.2c0,0.1-0.1,0.1-0.1,0.2c0,0.1-0.1,0.2-0.2,0.2s-0.2,0-0.3,0l-0.5-0.1c0-0.2,0.1-0.5,0.2-0.6
	c0.1-0.2,0.2-0.3,0.4-0.5c0.2-0.1,0.3-0.2,0.5-0.3s0.4-0.1,0.6-0.1c0.2,0,0.4,0,0.6,0.1c0.2,0.1,0.4,0.2,0.5,0.3s0.2,0.3,0.3,0.5
	s0.1,0.4,0.1,0.6c0,0.2,0,0.4-0.1,0.5c-0.1,0.2-0.1,0.3-0.2,0.5c-0.1,0.1-0.2,0.3-0.3,0.4c-0.1,0.1-0.3,0.3-0.4,0.4l-1.1,1.2
	c0.1,0,0.2-0.1,0.3-0.1s0.2,0,0.3,0h1.6C51.9,189.1,51.9,189.2,51.9,189.2z"/>
<path class="st4" d="M80.8,186.3c0-0.2,0.1-0.5,0.2-0.6c0.1-0.2,0.2-0.3,0.4-0.5c0.2-0.1,0.3-0.2,0.5-0.3s0.4-0.1,0.6-0.1
	s0.4,0,0.6,0.1s0.3,0.2,0.5,0.3c0.1,0.1,0.2,0.3,0.3,0.4c0.1,0.2,0.1,0.3,0.1,0.5s0,0.3-0.1,0.4c0,0.1-0.1,0.2-0.2,0.3
	s-0.2,0.2-0.3,0.2c-0.1,0.1-0.2,0.1-0.3,0.2c0.3,0.1,0.5,0.2,0.7,0.4c0.1,0.2,0.2,0.4,0.2,0.7s0,0.5-0.1,0.7s-0.2,0.4-0.4,0.5
	c-0.2,0.1-0.3,0.2-0.6,0.3c-0.2,0.1-0.4,0.1-0.7,0.1c-0.3,0-0.5,0-0.7-0.1s-0.4-0.1-0.5-0.3c-0.1-0.1-0.3-0.3-0.4-0.4
	c-0.1-0.2-0.2-0.4-0.3-0.6l0.4-0.2c0.1,0,0.2-0.1,0.3,0c0.1,0,0.2,0.1,0.2,0.1c0,0.1,0.1,0.2,0.1,0.2c0.1,0.1,0.1,0.1,0.2,0.2
	c0.1,0.1,0.2,0.1,0.2,0.2c0.1,0,0.2,0.1,0.3,0.1c0.1,0,0.3,0,0.4-0.1c0.1,0,0.2-0.1,0.3-0.2c0.1-0.1,0.1-0.2,0.2-0.3
	c0-0.1,0.1-0.2,0.1-0.3s0-0.2,0-0.3s-0.1-0.2-0.2-0.3s-0.2-0.1-0.4-0.2c-0.2,0-0.4-0.1-0.6-0.1v-0.6c0.2,0,0.4,0,0.5-0.1
	c0.1,0,0.3-0.1,0.3-0.2c0.1-0.1,0.1-0.1,0.2-0.2c0-0.1,0-0.2,0-0.3c0-0.2-0.1-0.4-0.2-0.5s-0.3-0.2-0.5-0.2c-0.1,0-0.2,0-0.3,0
	c-0.1,0-0.2,0.1-0.2,0.1c-0.1,0.1-0.1,0.1-0.2,0.2c0,0.1-0.1,0.1-0.1,0.2c0,0.1-0.1,0.2-0.2,0.2s-0.2,0-0.3,0V186.3z"/>
<path class="st4" d="M116.1,184.9v5.1h-0.5c-0.1,0-0.1,0-0.2,0l-0.1-0.1l-2.6-3.4c0,0.2,0,0.3,0,0.4v3.1h-0.8v-5.1h0.5h0.1h0.1
	c0,0,0,0,0.1,0c0,0,0,0,0.1,0.1l2.7,3.4c0-0.1,0-0.2,0-0.2c0-0.1,0-0.2,0-0.2v-3.1H116.1z"/>
<g class="st5">
	<path class="st1" d="M34.5,180.5c2.8,0,5-2.2,5-5s-2.2-5-5-5s-5,2.2-5,5S31.7,180.5,34.5,180.5z"/>
	<path class="st6" d="M36.4,172.5l1.1,1.1l-1.9,1.9l1.9,1.9l-1.1,1.1l-1.9-1.9l-1.9,1.9l-1.1-1.1l1.9-1.9l-1.9-1.9l1.1-1.1l1.9,1.9
		L36.4,172.5z"/>
</g>
<g class="st5">
	<path class="st1" d="M66.5,180.5c2.8,0,5-2.2,5-5s-2.2-5-5-5s-5,2.2-5,5S63.7,180.5,66.5,180.5z"/>
	<path class="st6" d="M68.4,172.5l1.1,1.1l-1.9,1.9l1.9,1.9l-1.1,1.1l-1.9-1.9l-1.9,1.9l-1.1-1.1l1.9-1.9l-1.9-1.9l1.1-1.1l1.9,1.9
		L68.4,172.5z"/>
</g>
<path class="st0" d="M82,168h-2l2.5-4l2.5,4h-2H82z"/>
<path class="st3" d="M82,182v-14.5h1V182H82z"/>
<g class="st5">
	<path class="st0" d="M113.5,168h-2l2.5-4l2.5,4h-2H113.5z"/>
	<path class="st3" d="M113.5,182v-14.5h1V182H113.5z"/>
</g>
<path class="st0" d="M50,168h-2l2.5-4l2.5,4h-2H50z"/>
<path class="st3" d="M50,182v-14.5h1V182H50z"/>
<path class="st0" d="M18,168h-2l2.5-4l2.5,4h-2H18z"/>
<path class="st3" d="M18,182v-14.5h1V182H18z"/>
<g class="st5">
	<path class="st0" d="M34,168h-2l2.5-4l2.5,4h-2H34z"/>
	<path class="st3" d="M34,170v-2.5h1v2.5H34z"/>
</g>
<g class="st5">
	<path class="st0" d="M66,168h-2l2.5-4l2.5,4h-2H66z"/>
	<path class="st3" d="M66,170v-2.5h1v2.5H66z"/>
</g>
<g class="st5">
	<path class="st0" d="M45,176v2l-4-2.5l4-2.5v2V176z"/>
	<path class="st3" d="M50,176h-5.5v-1H50V176z"/>
</g>
<g class="st5">
	<path class="st0" d="M77,176v2l-4-2.5l4-2.5v2V176z"/>
	<path class="st3" d="M82,176h-5.5v-1H82V176z"/>
</g>
<path class="st0" d="M29,188v2l-4-2.5l4-2.5v2V188z"/>
<path class="st3" d="M45,188H28.5v-1H45V188z"/>
<g class="st5">
	<path class="st0" d="M24,175v-2l4,2.5l-4,2.5v-2V175z"/>
	<path class="st3" d="M19,175h5.5v1H19V175z"/>
</g>
<g class="st5">
	<path class="st0" d="M56,175v-2l4,2.5l-4,2.5v-2V175z"/>
	<path class="st3" d="M51,175h5.5v1H51V175z"/>
</g>
<path class="st7" d="M1.5,200.5c0-1.1,0.9-2,2-2h126c1.1,0,2,0.9,2,2v5c0,1.1-0.9,2-2,2H3.5c-1.1,0-2-0.9-2-2V200.5z"/>
<path class="st8" d="M11.9,200.4v5.1h-0.6c-0.1,0-0.2,0-0.2,0c-0.1,0-0.1-0.1-0.2-0.2l-2.4-3c0,0.1,0,0.2,0,0.3s0,0.2,0,0.2v2.7h-1
	v-5.1h0.6c0.1,0,0.1,0,0.1,0h0.1c0,0,0.1,0,0.1,0.1l0.1,0.1l2.4,3.1c0-0.1,0-0.2,0-0.3s0-0.2,0-0.3v-2.7L11.9,200.4L11.9,200.4z
	 M17.8,202.9c0,0.4-0.1,0.7-0.2,1s-0.3,0.6-0.5,0.8s-0.5,0.4-0.8,0.5c-0.3,0.1-0.7,0.2-1.1,0.2c-0.4,0-0.8-0.1-1.1-0.2
	c-0.3-0.1-0.6-0.3-0.8-0.5s-0.4-0.5-0.5-0.8s-0.2-0.7-0.2-1c0-0.4,0.1-0.7,0.2-1c0.1-0.3,0.3-0.6,0.5-0.8s0.5-0.4,0.8-0.5
	s0.7-0.2,1.1-0.2c0.4,0,0.8,0.1,1.1,0.2c0.3,0.1,0.6,0.3,0.8,0.6c0.2,0.2,0.4,0.5,0.5,0.8C17.8,202.2,17.8,202.6,17.8,202.9z
	 M16.6,202.9c0-0.3,0-0.5-0.1-0.7s-0.2-0.4-0.3-0.5c-0.1-0.1-0.3-0.2-0.4-0.3c-0.2-0.1-0.4-0.1-0.6-0.1c-0.2,0-0.4,0-0.6,0.1
	c-0.2,0.1-0.3,0.2-0.5,0.3c-0.1,0.1-0.2,0.3-0.3,0.5s-0.1,0.4-0.1,0.7s0,0.5,0.1,0.7s0.2,0.4,0.3,0.5s0.3,0.2,0.5,0.3
	s0.4,0.1,0.6,0.1c0.2,0,0.4,0,0.6-0.1s0.3-0.2,0.4-0.3s0.2-0.3,0.3-0.5C16.6,203.4,16.6,203.2,16.6,202.9z M21.1,201.3v1.3h1.7v0.9
	h-1.7v2h-1.2v-5.1h3.3v0.9L21.1,201.3L21.1,201.3z M29.5,200.4v5.1h-1v-2.9c0-0.1,0-0.1,0-0.2c0-0.1,0-0.2,0-0.2l-1.4,2.6
	c0,0.1-0.1,0.1-0.2,0.2c-0.1,0-0.2,0.1-0.2,0.1h-0.2c-0.1,0-0.2,0-0.2-0.1c-0.1,0-0.1-0.1-0.2-0.2l-1.4-2.6c0,0.1,0,0.2,0,0.2
	c0,0.1,0,0.2,0,0.2v2.9h-1v-5.1h0.9c0.1,0,0.1,0,0.1,0h0.1c0,0,0.1,0,0.1,0.1l0.1,0.1l1.3,2.6c0,0.1,0.1,0.2,0.1,0.3
	s0.1,0.2,0.1,0.3c0-0.1,0.1-0.2,0.1-0.3s0.1-0.2,0.1-0.3l1.3-2.6c0,0,0-0.1,0.1-0.1c0,0,0.1,0,0.1-0.1h0.1h0.1H29.5z"/>
<path class="st8" d="M47.6,204.5c0.1,0,0.2,0,0.3,0.1s0.1,0.1,0.1,0.3v0.6h-3.6v-0.4c0-0.1,0-0.1,0-0.2s0.1-0.1,0.1-0.2l1.5-1.5
	c0.1-0.1,0.2-0.2,0.3-0.4c0.1-0.1,0.2-0.2,0.2-0.3c0.1-0.1,0.1-0.2,0.1-0.3s0-0.2,0-0.4s0-0.4-0.1-0.5s-0.2-0.2-0.4-0.2
	s-0.3,0-0.4,0.1c-0.1,0.1-0.2,0.2-0.2,0.3s-0.1,0.2-0.2,0.3c-0.1,0-0.2,0.1-0.3,0l-0.6-0.1c0-0.3,0.1-0.5,0.2-0.7
	c0.1-0.2,0.2-0.3,0.4-0.5c0.2-0.1,0.3-0.2,0.5-0.3s0.4-0.1,0.7-0.1s0.5,0,0.7,0.1s0.4,0.2,0.5,0.3s0.3,0.3,0.3,0.5
	c0.1,0.2,0.1,0.4,0.1,0.6c0,0.2,0,0.4-0.1,0.5c-0.1,0.2-0.1,0.3-0.2,0.5c-0.1,0.1-0.2,0.3-0.3,0.4c-0.1,0.1-0.2,0.3-0.4,0.4l-1,1
	c0.1,0,0.3-0.1,0.4-0.1c0.1,0,0.2,0,0.4,0h1V204.5z M56.4,204.7v0.8h-2.9v-0.8h1v-2.6c0-0.1,0-0.1,0-0.2c0-0.1,0-0.1,0-0.2l-0.6,0.5
	c-0.1,0-0.1,0.1-0.2,0.1h-0.1h-0.1c0,0-0.1,0-0.1-0.1l-0.3-0.5l1.6-1.3h0.9v4.3H56.4z"/>
<path class="st8" d="M52.4,203l-2.8,2.1v-4.3L52.4,203z"/>
<path class="st8" d="M70.8,201.9c0-0.3,0.1-0.5,0.2-0.7s0.2-0.3,0.4-0.5c0.2-0.1,0.3-0.2,0.5-0.3s0.4-0.1,0.7-0.1
	c0.3,0,0.5,0,0.7,0.1s0.4,0.2,0.5,0.3s0.2,0.3,0.3,0.4c0.1,0.2,0.1,0.3,0.1,0.5s0,0.3,0,0.4c0,0.1-0.1,0.2-0.1,0.3
	c-0.1,0.1-0.1,0.2-0.2,0.2c-0.1,0.1-0.2,0.1-0.3,0.2c0.6,0.2,0.8,0.6,0.8,1.2c0,0.3,0,0.5-0.1,0.7s-0.2,0.4-0.4,0.5
	c-0.2,0.1-0.4,0.2-0.6,0.3s-0.4,0.1-0.7,0.1c-0.2,0-0.5,0-0.6-0.1c-0.2-0.1-0.4-0.1-0.5-0.2c-0.1-0.1-0.3-0.3-0.4-0.4
	c-0.1-0.2-0.2-0.4-0.3-0.6l0.5-0.2c0.1,0,0.2-0.1,0.3,0c0.1,0,0.2,0.1,0.2,0.2c0.1,0.2,0.2,0.3,0.3,0.4c0.1,0.1,0.3,0.1,0.4,0.1
	s0.2,0,0.3-0.1c0.1,0,0.2-0.1,0.2-0.2c0.1-0.1,0.1-0.1,0.1-0.2c0-0.1,0-0.2,0-0.2c0-0.1,0-0.2,0-0.3s-0.1-0.2-0.1-0.2
	s-0.2-0.1-0.3-0.1c-0.1,0-0.3-0.1-0.6-0.1v-0.7c0.2,0,0.4,0,0.5,0s0.2-0.1,0.3-0.1c0.1-0.1,0.1-0.1,0.1-0.2c0-0.1,0-0.2,0-0.3
	c0-0.2,0-0.4-0.1-0.5s-0.2-0.2-0.4-0.2c-0.2,0-0.3,0-0.4,0.1s-0.2,0.2-0.2,0.3s-0.1,0.2-0.2,0.3c-0.1,0-0.2,0.1-0.3,0L70.8,201.9z
	 M83.9,204.5c0.1,0,0.2,0,0.3,0.1c0.1,0.1,0.1,0.1,0.1,0.3v0.6h-3.6v-0.4c0-0.1,0-0.1,0-0.2s0.1-0.1,0.1-0.2l1.5-1.5
	c0.1-0.1,0.2-0.2,0.3-0.4s0.2-0.2,0.2-0.3c0.1-0.1,0.1-0.2,0.1-0.3s0-0.2,0-0.4s0-0.4-0.1-0.5s-0.2-0.2-0.4-0.2
	c-0.2,0-0.3,0-0.4,0.1s-0.2,0.2-0.2,0.3s-0.1,0.2-0.2,0.3c-0.1,0-0.2,0.1-0.3,0l-0.6-0.1c0-0.3,0.1-0.5,0.2-0.7s0.2-0.3,0.4-0.5
	c0.2-0.1,0.3-0.2,0.5-0.3s0.4-0.1,0.7-0.1c0.3,0,0.5,0,0.7,0.1s0.4,0.2,0.5,0.3s0.3,0.3,0.3,0.5c0.1,0.2,0.1,0.4,0.1,0.6
	c0,0.2,0,0.4-0.1,0.5c-0.1,0.2-0.1,0.3-0.2,0.5c-0.1,0.1-0.2,0.3-0.3,0.4c-0.1,0.1-0.2,0.3-0.4,0.4l-1,1c0.1,0,0.3-0.1,0.4-0.1
	s0.2,0,0.3,0h1.1V204.5z M94.2,204.7v0.8h-2.9v-0.8h1v-2.6c0-0.1,0-0.1,0-0.2c0-0.1,0-0.1,0-0.2l-0.6,0.5c-0.1,0-0.1,0.1-0.2,0.1
	h-0.1h-0.1c0,0-0.1,0-0.1-0.1l-0.3-0.5l1.6-1.3h0.9v4.3H94.2z"/>
<path class="st8" d="M78.8,203l-2.8,2.1v-4.3L78.8,203z"/>
<path class="st8" d="M89.1,203l-2.8,2.1v-4.3L89.1,203z"/>
<path class="st8" d="M100.5,199.3h28c0.6,0,1,0.5,1,1.2v4.9c0,0.7-0.4,1.2-1,1.2h-28c-0.6,0-1-0.5-1-1.2v-4.9
	C99.5,199.8,100,199.3,100.5,199.3z"/>
<path class="st9" d="M100.5,200h28c0.6,0,1,0.4,1,1v4c0,0.6-0.4,1-1,1h-28c-0.6,0-1-0.4-1-1v-4C99.5,200.4,100,200,100.5,200z"/>
<path d="M105.9,204.5c0.1,0,0.2,0,0.3,0.1c0.1,0.1,0.1,0.1,0.1,0.3v0.6h-3.6v-0.4c0-0.1,0-0.1,0-0.2s0.1-0.1,0.1-0.2l1.5-1.5
	c0.1-0.1,0.2-0.2,0.3-0.4c0.1-0.1,0.2-0.2,0.2-0.3c0.1-0.1,0.1-0.2,0.1-0.3s0-0.2,0-0.4s0-0.4-0.1-0.5s-0.2-0.2-0.4-0.2
	c-0.2,0-0.3,0-0.4,0.1s-0.2,0.2-0.2,0.3s-0.1,0.2-0.2,0.3c-0.1,0-0.2,0.1-0.3,0l-0.6-0.1c0-0.3,0.1-0.5,0.2-0.7s0.2-0.3,0.4-0.5
	c0.2-0.1,0.3-0.2,0.5-0.3s0.4-0.1,0.7-0.1c0.3,0,0.5,0,0.7,0.1s0.4,0.2,0.5,0.3s0.3,0.3,0.3,0.5c0.1,0.2,0.1,0.4,0.1,0.6
	c0,0.2,0,0.4-0.1,0.5c-0.1,0.2-0.1,0.3-0.2,0.5c-0.1,0.1-0.2,0.3-0.3,0.4c-0.1,0.1-0.2,0.3-0.4,0.4l-1,1c0.1,0,0.3-0.1,0.4-0.1
	s0.2,0,0.3,0h1.1V204.5z M116.2,204.7v0.8h-2.9v-0.8h1v-2.6c0-0.1,0-0.1,0-0.2c0-0.1,0-0.1,0-0.2l-0.6,0.5c-0.1,0-0.1,0.1-0.2,0.1
	h-0.1h-0.1c0,0-0.1,0-0.1-0.1l-0.3-0.5l1.6-1.3h0.9v4.3H116.2z M122.8,201.9c0-0.3,0.1-0.5,0.2-0.7s0.2-0.3,0.4-0.5
	c0.2-0.1,0.3-0.2,0.5-0.3s0.4-0.1,0.7-0.1c0.3,0,0.5,0,0.7,0.1s0.4,0.2,0.5,0.3s0.2,0.3,0.3,0.4c0.1,0.2,0.1,0.3,0.1,0.5
	s0,0.3,0,0.4c0,0.1-0.1,0.2-0.1,0.3c-0.1,0.1-0.1,0.2-0.2,0.2c-0.1,0.1-0.2,0.1-0.3,0.2c0.6,0.2,0.8,0.6,0.8,1.2
	c0,0.3,0,0.5-0.1,0.7s-0.2,0.4-0.4,0.5c-0.2,0.1-0.4,0.2-0.6,0.3s-0.4,0.1-0.7,0.1c-0.2,0-0.5,0-0.6-0.1c-0.2-0.1-0.4-0.1-0.5-0.2
	c-0.1-0.1-0.3-0.3-0.4-0.4c-0.1-0.2-0.2-0.4-0.3-0.6l0.5-0.2c0.1,0,0.2-0.1,0.3,0c0.1,0,0.2,0.1,0.2,0.2c0.1,0.2,0.2,0.3,0.3,0.4
	c0.1,0.1,0.3,0.1,0.4,0.1s0.2,0,0.3-0.1c0.1,0,0.2-0.1,0.2-0.2c0.1-0.1,0.1-0.1,0.1-0.2c0-0.1,0-0.2,0-0.2c0-0.1,0-0.2,0-0.3
	s-0.1-0.2-0.1-0.2c-0.1-0.1-0.2-0.1-0.3-0.1c-0.1,0-0.3-0.1-0.6-0.1v-0.7c0.2,0,0.4,0,0.5,0s0.2-0.1,0.3-0.1
	c0.1-0.1,0.1-0.1,0.1-0.2c0-0.1,0-0.2,0-0.3c0-0.2,0-0.4-0.1-0.5s-0.2-0.2-0.4-0.2c-0.2,0-0.3,0-0.4,0.1s-0.2,0.2-0.2,0.3
	s-0.1,0.2-0.2,0.3c-0.1,0-0.2,0.1-0.3,0L122.8,201.9z"/>
<path d="M110.8,203l-2.8,2.1v-4.3L110.8,203z"/>
<path d="M118.3,203l2.8-2.1v4.3L118.3,203z"/>
<path class="st10" d="M3.5,199h126v-1H3.5V199z M131,200.5v5h1v-5H131z M129.5,207H3.5v1h126V207z M2,205.5v-5H1v5H2z M3.5,207
	c-0.8,0-1.5-0.7-1.5-1.5H1c0,1.4,1.1,2.5,2.5,2.5V207z M131,205.5c0,0.8-0.7,1.5-1.5,1.5v1c1.4,0,2.5-1.1,2.5-2.5H131z M129.5,199
	c0.8,0,1.5,0.7,1.5,1.5h1c0-1.4-1.1-2.5-2.5-2.5V199z M3.5,198c-1.4,0-2.5,1.1-2.5,2.5h1c0-0.8,0.7-1.5,1.5-1.5V198z"/>
<path class="st0" d="M1,108v3h120v8h7v2l4-2.5l-4-2.5v2h-5v-10H1z"/>
<path class="st1" d="M15.5,130.5h6c1.1,0,2,0.9,2,2v6c0,1.1-0.9,2-2,2h-6c-1.1,0-2-0.9-2-2v-6C13.5,131.4,14.4,130.5,15.5,130.5z"/>
<path class="st1" d="M47.5,130.5h6c1.1,0,2,0.9,2,2v6c0,1.1-0.9,2-2,2h-6c-1.1,0-2-0.9-2-2v-6C45.5,131.4,46.4,130.5,47.5,130.5z"/>
<path class="st1" d="M79.5,130.5h6c1.1,0,2,0.9,2,2v6c0,1.1-0.9,2-2,2h-6c-1.1,0-2-0.9-2-2v-6C77.5,131.4,78.4,130.5,79.5,130.5z"/>
<path class="st2" d="M117,130.5h-6c-1.1,0-2,0.9-2,2v6c0,1.1,0.9,2,2,2h6c1.1,0,2-0.9,2-2v-6C119,131.4,118.1,130.5,117,130.5z"/>
<path class="st4" d="M20.1,137.4v0.6h-2.8v-0.6h1v-3c0-0.1,0-0.2,0-0.4l-0.7,0.6l-0.1,0.1h-0.1h-0.1c0,0,0,0-0.1-0.1l-0.3-0.4
	l1.5-1.3h0.7v4.4L20.1,137.4L20.1,137.4z"/>
<path class="st4" d="M51.9,137.2c0.1,0,0.2,0,0.2,0.1c0.1,0.1,0.1,0.1,0.1,0.2v0.5h-3.5v-0.3c0-0.1,0-0.1,0-0.2
	c0-0.1,0.1-0.1,0.1-0.2l1.5-1.5c0.1-0.1,0.2-0.3,0.3-0.4c0.1-0.1,0.2-0.2,0.3-0.4c0.1-0.1,0.1-0.2,0.2-0.4c0-0.1,0.1-0.2,0.1-0.4
	c0-0.1,0-0.2-0.1-0.3c0-0.1-0.1-0.2-0.2-0.2c-0.1-0.1-0.1-0.1-0.2-0.1c-0.1,0-0.2,0-0.3,0s-0.2,0-0.3,0s-0.2,0.1-0.2,0.1
	c-0.1,0.1-0.1,0.1-0.2,0.2c0,0.1-0.1,0.1-0.1,0.2c0,0.1-0.1,0.2-0.2,0.2s-0.2,0-0.3,0l-0.5-0.1c0-0.2,0.1-0.5,0.2-0.6
	c0.1-0.2,0.2-0.3,0.4-0.5c0.2-0.1,0.3-0.2,0.5-0.3s0.4-0.1,0.6-0.1c0.2,0,0.4,0,0.6,0.1c0.2,0.1,0.4,0.2,0.5,0.3s0.2,0.3,0.3,0.5
	s0.1,0.4,0.1,0.6c0,0.2,0,0.4-0.1,0.5c-0.1,0.2-0.1,0.3-0.2,0.5c-0.1,0.1-0.2,0.3-0.3,0.4c-0.1,0.1-0.3,0.3-0.4,0.4l-1.1,1.2
	c0.1,0,0.2-0.1,0.3-0.1s0.2,0,0.3,0h1.6C51.9,137.1,51.9,137.2,51.9,137.2z"/>
<path class="st4" d="M80.8,134.3c0-0.2,0.1-0.5,0.2-0.6c0.1-0.2,0.2-0.3,0.4-0.5c0.2-0.1,0.3-0.2,0.5-0.3s0.4-0.1,0.6-0.1
	s0.4,0,0.6,0.1s0.3,0.2,0.5,0.3c0.1,0.1,0.2,0.3,0.3,0.4c0.1,0.2,0.1,0.3,0.1,0.5s0,0.3-0.1,0.4c0,0.1-0.1,0.2-0.2,0.3
	s-0.2,0.2-0.3,0.2c-0.1,0.1-0.2,0.1-0.3,0.2c0.3,0.1,0.5,0.2,0.7,0.4c0.1,0.2,0.2,0.4,0.2,0.7s0,0.5-0.1,0.7s-0.2,0.4-0.4,0.5
	c-0.2,0.1-0.3,0.2-0.6,0.3c-0.2,0.1-0.4,0.1-0.7,0.1c-0.3,0-0.5,0-0.7-0.1s-0.4-0.1-0.5-0.3c-0.1-0.1-0.3-0.3-0.4-0.4
	c-0.1-0.2-0.2-0.4-0.3-0.6l0.4-0.2c0.1,0,0.2-0.1,0.3,0c0.1,0,0.2,0.1,0.2,0.1c0,0.1,0.1,0.2,0.1,0.2c0.1,0.1,0.1,0.1,0.2,0.2
	c0.1,0.1,0.2,0.1,0.2,0.2c0.1,0,0.2,0.1,0.3,0.1c0.1,0,0.3,0,0.4-0.1c0.1,0,0.2-0.1,0.3-0.2c0.1-0.1,0.1-0.2,0.2-0.3
	c0-0.1,0.1-0.2,0.1-0.3s0-0.2,0-0.3s-0.1-0.2-0.2-0.3s-0.2-0.1-0.4-0.2c-0.2,0-0.4-0.1-0.6-0.1v-0.6c0.2,0,0.4,0,0.5-0.1
	c0.1,0,0.3-0.1,0.3-0.2c0.1-0.1,0.1-0.1,0.2-0.2c0-0.1,0-0.2,0-0.3c0-0.2-0.1-0.4-0.2-0.5s-0.3-0.2-0.5-0.2c-0.1,0-0.2,0-0.3,0
	c-0.1,0-0.2,0.1-0.2,0.1c-0.1,0.1-0.1,0.1-0.2,0.2c0,0.1-0.1,0.1-0.1,0.2c0,0.1-0.1,0.2-0.2,0.2s-0.2,0-0.3,0V134.3z"/>
<path class="st4" d="M116.1,132.9v5.1h-0.5c-0.1,0-0.1,0-0.2,0l-0.1-0.1l-2.6-3.4c0,0.2,0,0.3,0,0.4v3.1h-0.8v-5.1h0.5h0.1h0.1
	c0,0,0,0,0.1,0c0,0,0,0,0.1,0.1l2.7,3.4c0-0.1,0-0.2,0-0.2c0-0.1,0-0.2,0-0.2v-3.1H116.1z"/>
<g class="st5">
	<path class="st1" d="M34.5,128.5c2.8,0,5-2.2,5-5s-2.2-5-5-5s-5,2.2-5,5S31.7,128.5,34.5,128.5z"/>
	<path class="st6" d="M36.4,120.5l1.1,1.1l-1.9,1.9l1.9,1.9l-1.1,1.1l-1.9-1.9l-1.9,1.9l-1.1-1.1l1.9-1.9l-1.9-1.9l1.1-1.1l1.9,1.9
		L36.4,120.5z"/>
</g>
<g class="st5">
	<path class="st1" d="M66.5,128.5c2.8,0,5-2.2,5-5s-2.2-5-5-5s-5,2.2-5,5S63.7,128.5,66.5,128.5z"/>
	<path class="st6" d="M68.4,120.5l1.1,1.1l-1.9,1.9l1.9,1.9l-1.1,1.1l-1.9-1.9l-1.9,1.9l-1.1-1.1l1.9-1.9l-1.9-1.9l1.1-1.1l1.9,1.9
		L68.4,120.5z"/>
</g>
<path class="st0" d="M82,116h-2l2.5-4l2.5,4h-2H82z"/>
<path class="st3" d="M82,130v-14.5h1V130H82z"/>
<g class="st5">
	<path class="st0" d="M113.5,116h-2l2.5-4l2.5,4h-2H113.5z"/>
	<path class="st3" d="M113.5,130v-14.5h1V130H113.5z"/>
</g>
<path class="st0" d="M50,116h-2l2.5-4l2.5,4h-2H50z"/>
<path class="st3" d="M50,130v-14.5h1V130H50z"/>
<path class="st0" d="M18,116h-2l2.5-4l2.5,4h-2H18z"/>
<path class="st3" d="M18,130v-14.5h1V130H18z"/>
<g class="st5">
	<path class="st0" d="M34,116h-2l2.5-4l2.5,4h-2H34z"/>
	<path class="st3" d="M34,118v-2.5h1v2.5H34z"/>
</g>
<g class="st5">
	<path class="st0" d="M66,116h-2l2.5-4l2.5,4h-2H66z"/>
	<path class="st3" d="M66,118v-2.5h1v2.5H66z"/>
</g>
<g class="st5">
	<path class="st0" d="M45,124v2l-4-2.5l4-2.5v2V124z"/>
	<path class="st3" d="M50,124h-5.5v-1H50V124z"/>
</g>
<g class="st5">
	<path class="st0" d="M77,124v2l-4-2.5l4-2.5v2V124z"/>
	<path class="st3" d="M82,124h-5.5v-1H82V124z"/>
</g>
<path class="st0" d="M61,136v2l-4-2.5l4-2.5v2V136z"/>
<path class="st3" d="M77,136H60.5v-1H77V136z"/>
<path class="st0" d="M29,136v2l-4-2.5l4-2.5v2V136z"/>
<path class="st3" d="M45,136H28.5v-1H45V136z"/>
<g class="st5">
	<path class="st0" d="M24,123v-2l4,2.5l-4,2.5v-2V123z"/>
	<path class="st3" d="M19,123h5.5v1H19V123z"/>
</g>
<g class="st5">
	<path class="st0" d="M56,123v-2l4,2.5l-4,2.5v-2V123z"/>
	<path class="st3" d="M51,123h5.5v1H51V123z"/>
</g>
<path class="st7" d="M1.5,148.5c0-1.1,0.9-2,2-2h126c1.1,0,2,0.9,2,2v5c0,1.1-0.9,2-2,2H3.5c-1.1,0-2-0.9-2-2V148.5z"/>
<path class="st8" d="M11.9,148.4v5.1h-0.6c-0.1,0-0.2,0-0.2,0c-0.1,0-0.1-0.1-0.2-0.2l-2.4-3c0,0.1,0,0.2,0,0.3s0,0.2,0,0.2v2.7h-1
	v-5.1h0.6c0.1,0,0.1,0,0.1,0h0.1c0,0,0.1,0,0.1,0.1l0.1,0.1l2.4,3.1c0-0.1,0-0.2,0-0.3s0-0.2,0-0.3v-2.7L11.9,148.4L11.9,148.4z
	 M17.8,150.9c0,0.4-0.1,0.7-0.2,1s-0.3,0.6-0.5,0.8s-0.5,0.4-0.8,0.5c-0.3,0.1-0.7,0.2-1.1,0.2c-0.4,0-0.8-0.1-1.1-0.2
	c-0.3-0.1-0.6-0.3-0.8-0.5s-0.4-0.5-0.5-0.8s-0.2-0.7-0.2-1c0-0.4,0.1-0.7,0.2-1c0.1-0.3,0.3-0.6,0.5-0.8s0.5-0.4,0.8-0.5
	s0.7-0.2,1.1-0.2c0.4,0,0.8,0.1,1.1,0.2c0.3,0.1,0.6,0.3,0.8,0.6c0.2,0.2,0.4,0.5,0.5,0.8C17.8,150.2,17.8,150.6,17.8,150.9z
	 M16.6,150.9c0-0.3,0-0.5-0.1-0.7s-0.2-0.4-0.3-0.5c-0.1-0.1-0.3-0.2-0.4-0.3c-0.2-0.1-0.4-0.1-0.6-0.1c-0.2,0-0.4,0-0.6,0.1
	c-0.2,0.1-0.3,0.2-0.5,0.3c-0.1,0.1-0.2,0.3-0.3,0.5s-0.1,0.4-0.1,0.7s0,0.5,0.1,0.7s0.2,0.4,0.3,0.5s0.3,0.2,0.5,0.3
	s0.4,0.1,0.6,0.1c0.2,0,0.4,0,0.6-0.1s0.3-0.2,0.4-0.3s0.2-0.3,0.3-0.5C16.6,151.4,16.6,151.2,16.6,150.9z M21.1,149.3v1.3h1.7v0.9
	h-1.7v2h-1.2v-5.1h3.3v0.9L21.1,149.3L21.1,149.3z M29.5,148.4v5.1h-1v-2.9c0-0.1,0-0.1,0-0.2c0-0.1,0-0.2,0-0.2l-1.4,2.6
	c0,0.1-0.1,0.1-0.2,0.2c-0.1,0-0.2,0.1-0.2,0.1h-0.2c-0.1,0-0.2,0-0.2-0.1c-0.1,0-0.1-0.1-0.2-0.2l-1.4-2.6c0,0.1,0,0.2,0,0.2
	c0,0.1,0,0.2,0,0.2v2.9h-1v-5.1h0.9c0.1,0,0.1,0,0.1,0h0.1c0,0,0.1,0,0.1,0.1l0.1,0.1l1.3,2.6c0,0.1,0.1,0.2,0.1,0.3
	s0.1,0.2,0.1,0.3c0-0.1,0.1-0.2,0.1-0.3s0.1-0.2,0.1-0.3l1.3-2.6c0,0,0-0.1,0.1-0.1c0,0,0.1,0,0.1-0.1h0.1h0.1H29.5z"/>
<path class="st8" d="M47.6,152.5c0.1,0,0.2,0,0.3,0.1s0.1,0.1,0.1,0.3v0.6h-3.6v-0.4c0-0.1,0-0.1,0-0.2s0.1-0.1,0.1-0.2l1.5-1.5
	c0.1-0.1,0.2-0.2,0.3-0.4c0.1-0.1,0.2-0.2,0.2-0.3c0.1-0.1,0.1-0.2,0.1-0.3s0-0.2,0-0.4s0-0.4-0.1-0.5s-0.2-0.2-0.4-0.2
	s-0.3,0-0.4,0.1c-0.1,0.1-0.2,0.2-0.2,0.3s-0.1,0.2-0.2,0.3c-0.1,0-0.2,0.1-0.3,0l-0.6-0.1c0-0.3,0.1-0.5,0.2-0.7
	c0.1-0.2,0.2-0.3,0.4-0.5c0.2-0.1,0.3-0.2,0.5-0.3s0.4-0.1,0.7-0.1s0.5,0,0.7,0.1s0.4,0.2,0.5,0.3s0.3,0.3,0.3,0.5
	c0.1,0.2,0.1,0.4,0.1,0.6c0,0.2,0,0.4-0.1,0.5c-0.1,0.2-0.1,0.3-0.2,0.5c-0.1,0.1-0.2,0.3-0.3,0.4c-0.1,0.1-0.2,0.3-0.4,0.4l-1,1
	c0.1,0,0.3-0.1,0.4-0.1c0.1,0,0.2,0,0.4,0h1V152.5z M56.4,152.7v0.8h-2.9v-0.8h1v-2.6c0-0.1,0-0.1,0-0.2c0-0.1,0-0.1,0-0.2l-0.6,0.5
	c-0.1,0-0.1,0.1-0.2,0.1h-0.1h-0.1c0,0-0.1,0-0.1-0.1l-0.3-0.5l1.6-1.3h0.9v4.3H56.4z"/>
<path class="st8" d="M52.4,151l-2.8,2.1v-4.3L52.4,151z"/>
<path class="st8" d="M68.5,147.2h28c0.6,0,1,0.5,1,1.3v5.1c0,0.8-0.4,1.3-1,1.3h-28c-0.6,0-1-0.5-1-1.3v-5.1
	C67.5,147.7,68,147.2,68.5,147.2z"/>
<path class="st9" d="M68.5,148h28c0.6,0,1,0.4,1,1v4c0,0.6-0.4,1-1,1h-28c-0.6,0-1-0.4-1-1v-4C67.5,148.4,68,148,68.5,148z"/>
<path d="M70.8,149.9c0-0.3,0.1-0.5,0.2-0.7s0.2-0.3,0.4-0.5c0.2-0.1,0.3-0.2,0.5-0.3s0.4-0.1,0.7-0.1c0.3,0,0.5,0,0.7,0.1
	s0.4,0.2,0.5,0.3s0.2,0.3,0.3,0.4c0.1,0.2,0.1,0.3,0.1,0.5s0,0.3,0,0.4c0,0.1-0.1,0.2-0.1,0.3c-0.1,0.1-0.1,0.2-0.2,0.2
	c-0.1,0.1-0.2,0.1-0.3,0.2c0.6,0.2,0.8,0.6,0.8,1.2c0,0.3,0,0.5-0.1,0.7s-0.2,0.4-0.4,0.5c-0.2,0.1-0.4,0.2-0.6,0.3
	s-0.4,0.1-0.7,0.1c-0.2,0-0.5,0-0.6-0.1c-0.2-0.1-0.4-0.1-0.5-0.2c-0.1-0.1-0.3-0.3-0.4-0.4c-0.1-0.2-0.2-0.4-0.3-0.6l0.5-0.2
	c0.1,0,0.2-0.1,0.3,0c0.1,0,0.2,0.1,0.2,0.2c0.1,0.2,0.2,0.3,0.3,0.4c0.1,0.1,0.3,0.1,0.4,0.1s0.2,0,0.3-0.1c0.1,0,0.2-0.1,0.2-0.2
	c0.1-0.1,0.1-0.1,0.1-0.2c0-0.1,0-0.2,0-0.2c0-0.1,0-0.2,0-0.3s-0.1-0.2-0.1-0.2s-0.2-0.1-0.3-0.1c-0.1,0-0.3-0.1-0.6-0.1v-0.7
	c0.2,0,0.4,0,0.5,0s0.2-0.1,0.3-0.1c0.1-0.1,0.1-0.1,0.1-0.2c0-0.1,0-0.2,0-0.3c0-0.2,0-0.4-0.1-0.5s-0.2-0.2-0.4-0.2
	c-0.2,0-0.3,0-0.4,0.1s-0.2,0.2-0.2,0.3s-0.1,0.2-0.2,0.3c-0.1,0-0.2,0.1-0.3,0L70.8,149.9z M83.9,152.5c0.1,0,0.2,0,0.3,0.1
	c0.1,0.1,0.1,0.1,0.1,0.3v0.6h-3.6v-0.4c0-0.1,0-0.1,0-0.2s0.1-0.1,0.1-0.2l1.5-1.5c0.1-0.1,0.2-0.2,0.3-0.4s0.2-0.2,0.2-0.3
	c0.1-0.1,0.1-0.2,0.1-0.3s0-0.2,0-0.4s0-0.4-0.1-0.5s-0.2-0.2-0.4-0.2c-0.2,0-0.3,0-0.4,0.1s-0.2,0.2-0.2,0.3s-0.1,0.2-0.2,0.3
	c-0.1,0-0.2,0.1-0.3,0l-0.6-0.1c0-0.3,0.1-0.5,0.2-0.7s0.2-0.3,0.4-0.5c0.2-0.1,0.3-0.2,0.5-0.3s0.4-0.1,0.7-0.1
	c0.3,0,0.5,0,0.7,0.1s0.4,0.2,0.5,0.3s0.3,0.3,0.3,0.5c0.1,0.2,0.1,0.4,0.1,0.6c0,0.2,0,0.4-0.1,0.5c-0.1,0.2-0.1,0.3-0.2,0.5
	c-0.1,0.1-0.2,0.3-0.3,0.4c-0.1,0.1-0.2,0.3-0.4,0.4l-1,1c0.1,0,0.3-0.1,0.4-0.1s0.2,0,0.3,0h1.1V152.5z M94.2,152.7v0.8h-2.9v-0.8
	h1v-2.6c0-0.1,0-0.1,0-0.2c0-0.1,0-0.1,0-0.2l-0.6,0.5c-0.1,0-0.1,0.1-0.2,0.1h-0.1h-0.1c0,0-0.1,0-0.1-0.1l-0.3-0.5l1.6-1.3h0.9
	v4.3H94.2z"/>
<path d="M78.8,151l-2.8,2.1v-4.3L78.8,151z"/>
<path d="M89.1,151l-2.8,2.1v-4.3L89.1,151z"/>
<path class="st8" d="M105.9,152.5c0.1,0,0.2,0,0.3,0.1c0.1,0.1,0.1,0.1,0.1,0.3v0.6h-3.6v-0.4c0-0.1,0-0.1,0-0.2s0.1-0.1,0.1-0.2
	l1.5-1.5c0.1-0.1,0.2-0.2,0.3-0.4c0.1-0.1,0.2-0.2,0.2-0.3c0.1-0.1,0.1-0.2,0.1-0.3s0-0.2,0-0.4s0-0.4-0.1-0.5s-0.2-0.2-0.4-0.2
	c-0.2,0-0.3,0-0.4,0.1s-0.2,0.2-0.2,0.3s-0.1,0.2-0.2,0.3c-0.1,0-0.2,0.1-0.3,0l-0.6-0.1c0-0.3,0.1-0.5,0.2-0.7s0.2-0.3,0.4-0.5
	c0.2-0.1,0.3-0.2,0.5-0.3s0.4-0.1,0.7-0.1c0.3,0,0.5,0,0.7,0.1s0.4,0.2,0.5,0.3s0.3,0.3,0.3,0.5c0.1,0.2,0.1,0.4,0.1,0.6
	c0,0.2,0,0.4-0.1,0.5c-0.1,0.2-0.1,0.3-0.2,0.5c-0.1,0.1-0.2,0.3-0.3,0.4c-0.1,0.1-0.2,0.3-0.4,0.4l-1,1c0.1,0,0.3-0.1,0.4-0.1
	s0.2,0,0.3,0h1.1V152.5z M116.2,152.7v0.8h-2.9v-0.8h1v-2.6c0-0.1,0-0.1,0-0.2c0-0.1,0-0.1,0-0.2l-0.6,0.5c-0.1,0-0.1,0.1-0.2,0.1
	h-0.1h-0.1c0,0-0.1,0-0.1-0.1l-0.3-0.5l1.6-1.3h0.9v4.3H116.2z M122.8,149.9c0-0.3,0.1-0.5,0.2-0.7s0.2-0.3,0.4-0.5
	c0.2-0.1,0.3-0.2,0.5-0.3s0.4-0.1,0.7-0.1c0.3,0,0.5,0,0.7,0.1s0.4,0.2,0.5,0.3s0.2,0.3,0.3,0.4c0.1,0.2,0.1,0.3,0.1,0.5
	s0,0.3,0,0.4c0,0.1-0.1,0.2-0.1,0.3c-0.1,0.1-0.1,0.2-0.2,0.2c-0.1,0.1-0.2,0.1-0.3,0.2c0.6,0.2,0.8,0.6,0.8,1.2
	c0,0.3,0,0.5-0.1,0.7s-0.2,0.4-0.4,0.5c-0.2,0.1-0.4,0.2-0.6,0.3s-0.4,0.1-0.7,0.1c-0.2,0-0.5,0-0.6-0.1c-0.2-0.1-0.4-0.1-0.5-0.2
	c-0.1-0.1-0.3-0.3-0.4-0.4c-0.1-0.2-0.2-0.4-0.3-0.6l0.5-0.2c0.1,0,0.2-0.1,0.3,0c0.1,0,0.2,0.1,0.2,0.2c0.1,0.2,0.2,0.3,0.3,0.4
	c0.1,0.1,0.3,0.1,0.4,0.1s0.2,0,0.3-0.1c0.1,0,0.2-0.1,0.2-0.2c0.1-0.1,0.1-0.1,0.1-0.2c0-0.1,0-0.2,0-0.2c0-0.1,0-0.2,0-0.3
	s-0.1-0.2-0.1-0.2c-0.1-0.1-0.2-0.1-0.3-0.1c-0.1,0-0.3-0.1-0.6-0.1v-0.7c0.2,0,0.4,0,0.5,0s0.2-0.1,0.3-0.1
	c0.1-0.1,0.1-0.1,0.1-0.2c0-0.1,0-0.2,0-0.3c0-0.2,0-0.4-0.1-0.5s-0.2-0.2-0.4-0.2c-0.2,0-0.3,0-0.4,0.1s-0.2,0.2-0.2,0.3
	s-0.1,0.2-0.2,0.3c-0.1,0-0.2,0.1-0.3,0L122.8,149.9z"/>
<path class="st8" d="M110.8,151l-2.8,2.1v-4.3L110.8,151z"/>
<path class="st8" d="M118.3,151l2.8-2.1v4.3L118.3,151z"/>
<path class="st10" d="M3.5,147h126v-1H3.5V147z M131,148.5v5h1v-5H131z M129.5,155H3.5v1h126V155z M2,153.5v-5H1v5H2z M3.5,155
	c-0.8,0-1.5-0.7-1.5-1.5H1c0,1.4,1.1,2.5,2.5,2.5V155z M131,153.5c0,0.8-0.7,1.5-1.5,1.5v1c1.4,0,2.5-1.1,2.5-2.5H131z M129.5,147
	c0.8,0,1.5,0.7,1.5,1.5h1c0-1.4-1.1-2.5-2.5-2.5V147z M3.5,146c-1.4,0-2.5,1.1-2.5,2.5h1c0-0.8,0.7-1.5,1.5-1.5V146z"/>
<path class="st0" d="M1,56v3h120v8h7v2l4-2.5l-4-2.5v2h-5V56H1z"/>
<path class="st1" d="M15.5,78.5h6c1.1,0,2,0.9,2,2v6c0,1.1-0.9,2-2,2h-6c-1.1,0-2-0.9-2-2v-6C13.5,79.4,14.4,78.5,15.5,78.5z"/>
<path class="st1" d="M47.5,78.5h6c1.1,0,2,0.9,2,2v6c0,1.1-0.9,2-2,2h-6c-1.1,0-2-0.9-2-2v-6C45.5,79.4,46.4,78.5,47.5,78.5z"/>
<path class="st1" d="M79.5,78.5h6c1.1,0,2,0.9,2,2v6c0,1.1-0.9,2-2,2h-6c-1.1,0-2-0.9-2-2v-6C77.5,79.4,78.4,78.5,79.5,78.5z"/>
<path class="st2" d="M117,78.5h-6c-1.1,0-2,0.9-2,2v6c0,1.1,0.9,2,2,2h6c1.1,0,2-0.9,2-2v-6C119,79.4,118.1,78.5,117,78.5z"/>
<path class="st4" d="M20.1,85.4V86h-2.8v-0.6h1v-3c0-0.1,0-0.2,0-0.4l-0.7,0.6l-0.1,0.1h-0.1h-0.1c0,0,0,0-0.1-0.1l-0.3-0.4l1.5-1.3
	h0.7v4.4h1V85.4z"/>
<path class="st4" d="M51.9,85.2c0.1,0,0.2,0,0.2,0.1c0.1,0.1,0.1,0.1,0.1,0.2V86h-3.5v-0.3c0-0.1,0-0.1,0-0.2s0.1-0.1,0.1-0.2
	l1.5-1.5c0.1-0.1,0.2-0.3,0.3-0.4s0.2-0.2,0.3-0.4c0.1-0.1,0.1-0.2,0.2-0.4c0-0.1,0.1-0.2,0.1-0.4c0-0.1,0-0.2-0.1-0.3
	c0-0.1-0.1-0.2-0.2-0.2c-0.1-0.1-0.1-0.1-0.2-0.1c-0.1,0-0.2,0-0.3,0s-0.2,0-0.3,0s-0.2,0.1-0.2,0.1c-0.1,0.1-0.1,0.1-0.2,0.2
	c0,0.1-0.1,0.1-0.1,0.2s-0.1,0.2-0.2,0.2c-0.1,0-0.2,0-0.3,0l-0.5-0.1c0-0.2,0.1-0.5,0.2-0.6c0.1-0.2,0.2-0.3,0.4-0.5
	c0.2-0.1,0.3-0.2,0.5-0.3c0.2-0.1,0.4-0.1,0.6-0.1c0.2,0,0.4,0,0.6,0.1c0.2,0.1,0.4,0.2,0.5,0.3c0.1,0.1,0.2,0.3,0.3,0.5
	s0.1,0.4,0.1,0.6s0,0.4-0.1,0.5c-0.1,0.2-0.1,0.3-0.2,0.5c-0.1,0.1-0.2,0.3-0.3,0.4s-0.3,0.3-0.4,0.4L50,85.3c0.1,0,0.2-0.1,0.3-0.1
	s0.2,0,0.3,0C50.6,85.2,51.9,85.2,51.9,85.2z"/>
<path class="st4" d="M80.8,82.3c0-0.2,0.1-0.5,0.2-0.6c0.1-0.2,0.2-0.3,0.4-0.5c0.2-0.1,0.3-0.2,0.5-0.3c0.2-0.1,0.4-0.1,0.6-0.1
	s0.4,0,0.6,0.1s0.3,0.2,0.5,0.3c0.1,0.1,0.2,0.3,0.3,0.4c0.1,0.2,0.1,0.3,0.1,0.5s0,0.3-0.1,0.4c0,0.1-0.1,0.2-0.2,0.3
	c-0.1,0.1-0.2,0.2-0.3,0.2c-0.1,0.1-0.2,0.1-0.3,0.2c0.3,0.1,0.5,0.2,0.7,0.4c0.1,0.2,0.2,0.4,0.2,0.7c0,0.3,0,0.5-0.1,0.7
	s-0.2,0.4-0.4,0.5c-0.2,0.1-0.3,0.2-0.6,0.3c-0.2,0.1-0.4,0.1-0.7,0.1c-0.3,0-0.5,0-0.7-0.1s-0.4-0.1-0.5-0.3
	c-0.1-0.1-0.3-0.3-0.4-0.4c-0.1-0.2-0.2-0.4-0.3-0.6l0.4-0.2c0.1,0,0.2-0.1,0.3,0c0.1,0,0.2,0.1,0.2,0.1c0,0.1,0.1,0.2,0.1,0.2
	c0.1,0.1,0.1,0.2,0.2,0.2c0.1,0.1,0.2,0.1,0.2,0.2c0.1,0,0.2,0.1,0.3,0.1c0.1,0,0.3,0,0.4-0.1c0.1,0,0.2-0.1,0.3-0.2
	c0.1-0.1,0.1-0.2,0.2-0.3c0-0.1,0.1-0.2,0.1-0.3c0-0.1,0-0.2,0-0.3c0-0.1-0.1-0.2-0.2-0.3c-0.1-0.1-0.2-0.1-0.4-0.2
	c-0.2,0-0.4-0.1-0.6-0.1v-0.6c0.2,0,0.4,0,0.5-0.1c0.1,0,0.3-0.1,0.3-0.2c0.1-0.1,0.1-0.1,0.2-0.2c0-0.1,0-0.2,0-0.3
	c0-0.2-0.1-0.4-0.2-0.5s-0.3-0.2-0.5-0.2c-0.1,0-0.2,0-0.3,0c-0.1,0-0.2,0.1-0.2,0.1c-0.1,0.1-0.1,0.1-0.2,0.2
	c0,0.1-0.1,0.1-0.1,0.2s-0.1,0.2-0.2,0.2s-0.2,0-0.3,0V82.3z"/>
<path class="st4" d="M116.1,80.9V86h-0.5c-0.1,0-0.1,0-0.2,0l-0.1-0.1l-2.6-3.4c0,0.2,0,0.3,0,0.4V86h-0.8v-5.1h0.5h0.1h0.1
	c0,0,0,0,0.1,0c0,0,0,0,0.1,0.1l2.7,3.4c0-0.1,0-0.2,0-0.2c0-0.1,0-0.2,0-0.2v-3.1C115.5,80.9,116.1,80.9,116.1,80.9z"/>
<g class="st5">
	<path class="st1" d="M34.5,76.5c2.8,0,5-2.2,5-5s-2.2-5-5-5s-5,2.2-5,5S31.7,76.5,34.5,76.5z"/>
	<path class="st6" d="M36.4,68.5l1.1,1.1l-1.9,1.9l1.9,1.9l-1.1,1.1l-1.9-1.9l-1.9,1.9l-1.1-1.1l1.9-1.9l-1.9-1.9l1.1-1.1l1.9,1.9
		L36.4,68.5z"/>
</g>
<g class="st5">
	<path class="st1" d="M66.5,76.5c2.8,0,5-2.2,5-5s-2.2-5-5-5s-5,2.2-5,5S63.7,76.5,66.5,76.5z"/>
	<path class="st6" d="M68.4,68.5l1.1,1.1l-1.9,1.9l1.9,1.9l-1.1,1.1l-1.9-1.9l-1.9,1.9l-1.1-1.1l1.9-1.9l-1.9-1.9l1.1-1.1l1.9,1.9
		L68.4,68.5z"/>
</g>
<path class="st0" d="M82,64h-2l2.5-4l2.5,4h-2H82z"/>
<path class="st3" d="M82,78V63.5h1V78H82z"/>
<g class="st5">
	<path class="st0" d="M113.5,64h-2l2.5-4l2.5,4h-2H113.5z"/>
	<path class="st3" d="M113.5,78V63.5h1V78H113.5z"/>
</g>
<path class="st0" d="M50,64h-2l2.5-4l2.5,4h-2H50z"/>
<path class="st3" d="M50,78V63.5h1V78H50z"/>
<path class="st0" d="M18,64h-2l2.5-4l2.5,4h-2H18z"/>
<path class="st3" d="M18,78V63.5h1V78H18z"/>
<g class="st5">
	<path class="st0" d="M34,64h-2l2.5-4l2.5,4h-2H34z"/>
	<path class="st3" d="M34,66v-2.5h1V66H34z"/>
</g>
<g class="st5">
	<path class="st0" d="M66,64h-2l2.5-4l2.5,4h-2H66z"/>
	<path class="st3" d="M66,66v-2.5h1V66H66z"/>
</g>
<g class="st5">
	<path class="st0" d="M45,72v2l-4-2.5l4-2.5v2V72z"/>
	<path class="st3" d="M50,72h-5.5v-1H50V72z"/>
</g>
<g class="st5">
	<path class="st0" d="M77,72v2l-4-2.5l4-2.5v2V72z"/>
	<path class="st3" d="M82,72h-5.5v-1H82V72z"/>
</g>
<path class="st0" d="M29,84v2l-4-2.5l4-2.5v2V84z"/>
<path class="st3" d="M45,84H28.5v-1H45V84z"/>
<g class="st5">
	<path class="st0" d="M24,71v-2l4,2.5L24,74v-2V71z"/>
	<path class="st3" d="M19,71h5.5v1H19V71z"/>
</g>
<g class="st5">
	<path class="st0" d="M56,71v-2l4,2.5L56,74v-2V71z"/>
	<path class="st3" d="M51,71h5.5v1H51V71z"/>
</g>
<path class="st7" d="M1.5,96.5c0-1.1,0.9-2,2-2h126c1.1,0,2,0.9,2,2v5c0,1.1-0.9,2-2,2H3.5c-1.1,0-2-0.9-2-2V96.5z"/>
<path class="st8" d="M11.9,96.4v5.1h-0.6c-0.1,0-0.2,0-0.2,0c-0.1,0-0.1-0.1-0.2-0.2l-2.4-3c0,0.1,0,0.2,0,0.3c0,0.1,0,0.2,0,0.2
	v2.7h-1v-5.1h0.6c0.1,0,0.1,0,0.1,0h0.1c0,0,0.1,0,0.1,0.1l0.1,0.1l2.4,3.1c0-0.1,0-0.2,0-0.3c0-0.1,0-0.2,0-0.3v-2.7
	C10.9,96.4,11.9,96.4,11.9,96.4z M17.8,98.9c0,0.4-0.1,0.7-0.2,1s-0.3,0.6-0.5,0.8c-0.2,0.2-0.5,0.4-0.8,0.5
	c-0.3,0.1-0.7,0.2-1.1,0.2c-0.4,0-0.8-0.1-1.1-0.2s-0.6-0.3-0.8-0.5s-0.4-0.5-0.5-0.8s-0.2-0.7-0.2-1s0.1-0.7,0.2-1
	c0.1-0.3,0.3-0.6,0.5-0.8c0.2-0.2,0.5-0.4,0.8-0.5s0.7-0.2,1.1-0.2c0.4,0,0.8,0.1,1.1,0.2c0.3,0.1,0.6,0.3,0.8,0.5
	c0.2,0.2,0.4,0.5,0.5,0.8C17.8,98.2,17.8,98.6,17.8,98.9z M16.6,98.9c0-0.3,0-0.5-0.1-0.7s-0.2-0.4-0.3-0.5
	c-0.1-0.1-0.3-0.2-0.4-0.3c-0.2-0.1-0.4-0.1-0.6-0.1c-0.2,0-0.4,0-0.6,0.1c-0.2,0.1-0.3,0.2-0.5,0.3c-0.1,0.1-0.2,0.3-0.3,0.5
	s-0.1,0.4-0.1,0.7c0,0.3,0,0.5,0.1,0.7s0.2,0.4,0.3,0.5s0.3,0.2,0.5,0.3c0.2,0.1,0.4,0.1,0.6,0.1c0.2,0,0.4,0,0.6-0.1
	s0.3-0.2,0.4-0.3c0.1-0.1,0.2-0.3,0.3-0.5C16.6,99.4,16.6,99.2,16.6,98.9z M21.1,97.3v1.3h1.7v0.9h-1.7v2h-1.2v-5.1h3.3v0.9
	C23.2,97.3,21.1,97.3,21.1,97.3z M29.5,96.4v5.1h-1v-2.9c0-0.1,0-0.1,0-0.2s0-0.2,0-0.2l-1.4,2.6c0,0.1-0.1,0.1-0.2,0.2
	c-0.1,0-0.2,0.1-0.2,0.1h-0.2c-0.1,0-0.2,0-0.2-0.1c-0.1,0-0.1-0.1-0.2-0.2l-1.4-2.6c0,0.1,0,0.2,0,0.2c0,0.1,0,0.2,0,0.2v2.9h-1
	v-5.1h0.9c0.1,0,0.1,0,0.1,0h0.1c0,0,0.1,0,0.1,0.1l0.1,0.1l1.3,2.6c0,0.1,0.1,0.2,0.1,0.3c0,0.1,0.1,0.2,0.1,0.3
	c0-0.1,0.1-0.2,0.1-0.3c0-0.1,0.1-0.2,0.1-0.3l1.3-2.6c0,0,0-0.1,0.1-0.1c0,0,0.1,0,0.1-0.1h0.1h0.1H29.5z"/>
<path class="st8" d="M36.5,95.2h28c0.6,0,1,0.5,1,1.3v5c0,0.8-0.4,1.3-1,1.3h-28c-0.6,0-1-0.5-1-1.3v-5C35.5,95.7,36,95.2,36.5,95.2
	z"/>
<path class="st9" d="M36.5,96h28c0.6,0,1,0.4,1,1v4c0,0.6-0.4,1-1,1h-28c-0.6,0-1-0.4-1-1v-4C35.5,96.4,36,96,36.5,96z"/>
<path d="M47.6,100.5c0.1,0,0.2,0,0.3,0.1s0.1,0.1,0.1,0.3v0.6h-3.6v-0.3c0-0.1,0-0.1,0-0.2s0.1-0.1,0.1-0.2l1.5-1.5
	c0.1-0.1,0.2-0.2,0.3-0.4c0.1-0.1,0.2-0.2,0.2-0.3c0.1-0.1,0.1-0.2,0.1-0.3c0-0.1,0-0.2,0-0.4c0-0.2,0-0.4-0.1-0.5s-0.2-0.2-0.4-0.2
	s-0.3,0-0.4,0.1c-0.1,0.1-0.2,0.2-0.2,0.3c0,0.1-0.1,0.2-0.2,0.3c-0.1,0-0.2,0.1-0.3,0l-0.6-0.1c0-0.3,0.1-0.5,0.2-0.7
	c0.1-0.2,0.2-0.3,0.4-0.5c0.2-0.1,0.3-0.2,0.5-0.3c0.2-0.1,0.4-0.1,0.7-0.1s0.5,0,0.7,0.1s0.4,0.2,0.5,0.3c0.1,0.1,0.3,0.3,0.3,0.5
	c0.1,0.2,0.1,0.4,0.1,0.6s0,0.4-0.1,0.5c-0.1,0.2-0.1,0.3-0.2,0.5c-0.1,0.1-0.2,0.3-0.3,0.4s-0.2,0.3-0.4,0.4l-1,1
	c0.1,0,0.3-0.1,0.4-0.1c0.1,0,0.2,0,0.4,0L47.6,100.5L47.6,100.5z M56.4,100.7v0.8h-2.9v-0.8h1v-2.6c0-0.1,0-0.1,0-0.2s0-0.1,0-0.2
	l-0.6,0.5c-0.1,0-0.1,0.1-0.2,0.1h-0.1h-0.1c0,0-0.1,0-0.1-0.1l-0.3-0.5l1.6-1.3h0.9v4.3C55.6,100.7,56.4,100.7,56.4,100.7z"/>
<path d="M52.4,99l-2.8,2.1v-4.3L52.4,99z"/>
<path class="st8" d="M70.8,97.9c0-0.3,0.1-0.5,0.2-0.7s0.2-0.3,0.4-0.5c0.2-0.1,0.3-0.2,0.5-0.3c0.2-0.1,0.4-0.1,0.7-0.1
	c0.3,0,0.5,0,0.7,0.1s0.4,0.2,0.5,0.3s0.2,0.3,0.3,0.4c0.1,0.2,0.1,0.3,0.1,0.5s0,0.3,0,0.4s-0.1,0.2-0.1,0.3
	c-0.1,0.1-0.1,0.2-0.2,0.2c-0.1,0.1-0.2,0.1-0.3,0.2c0.6,0.2,0.8,0.6,0.8,1.2c0,0.3,0,0.5-0.1,0.7s-0.2,0.4-0.4,0.5
	c-0.2,0.1-0.4,0.2-0.6,0.3c-0.2,0.1-0.4,0.1-0.7,0.1c-0.2,0-0.5,0-0.6-0.1c-0.2-0.1-0.4-0.1-0.5-0.2s-0.3-0.3-0.4-0.4
	c-0.1-0.2-0.2-0.4-0.3-0.6l0.5-0.2c0.1,0,0.2-0.1,0.3,0s0.2,0.1,0.2,0.2c0.1,0.2,0.2,0.3,0.3,0.4c0.1,0.1,0.3,0.1,0.4,0.1
	s0.2,0,0.3-0.1c0.1,0,0.2-0.1,0.2-0.2c0.1-0.1,0.1-0.1,0.1-0.2s0-0.2,0-0.2c0-0.1,0-0.2,0-0.3c0-0.1-0.1-0.2-0.1-0.2
	c-0.1-0.1-0.2-0.1-0.3-0.1c-0.1,0-0.3-0.1-0.6-0.1v-0.7c0.2,0,0.4,0,0.5,0s0.2-0.1,0.3-0.1c0.1-0.1,0.1-0.1,0.1-0.2s0-0.2,0-0.3
	c0-0.2,0-0.4-0.1-0.5s-0.2-0.2-0.4-0.2c-0.2,0-0.3,0-0.4,0.1s-0.2,0.2-0.2,0.3c0,0.1-0.1,0.2-0.2,0.3s-0.2,0.1-0.3,0L70.8,97.9z
	 M83.9,100.5c0.1,0,0.2,0,0.3,0.1c0.1,0.1,0.1,0.1,0.1,0.3v0.6h-3.6v-0.3c0-0.1,0-0.1,0-0.2s0.1-0.1,0.1-0.2l1.5-1.5
	c0.1-0.1,0.2-0.2,0.3-0.4c0.1-0.1,0.2-0.2,0.2-0.3c0.1-0.1,0.1-0.2,0.1-0.3c0-0.1,0-0.2,0-0.4c0-0.2,0-0.4-0.1-0.5s-0.2-0.2-0.4-0.2
	c-0.2,0-0.3,0-0.4,0.1s-0.2,0.2-0.2,0.3c0,0.1-0.1,0.2-0.2,0.3s-0.2,0.1-0.3,0l-0.6-0.1c0-0.3,0.1-0.5,0.2-0.7s0.2-0.3,0.4-0.5
	c0.2-0.1,0.3-0.2,0.5-0.3c0.2-0.1,0.4-0.1,0.7-0.1c0.3,0,0.5,0,0.7,0.1s0.4,0.2,0.5,0.3c0.1,0.1,0.3,0.3,0.3,0.5
	c0.1,0.2,0.1,0.4,0.1,0.6s0,0.4-0.1,0.5c-0.1,0.2-0.1,0.3-0.2,0.5c-0.1,0.1-0.2,0.3-0.3,0.4c-0.1,0.1-0.2,0.3-0.4,0.4l-1,1
	c0.1,0,0.3-0.1,0.4-0.1s0.2,0,0.3,0L83.9,100.5L83.9,100.5z M94.2,100.7v0.8h-2.9v-0.8h1v-2.6c0-0.1,0-0.1,0-0.2s0-0.1,0-0.2
	l-0.6,0.5c-0.1,0-0.1,0.1-0.2,0.1h-0.1h-0.1c0,0-0.1,0-0.1-0.1l-0.3-0.5l1.6-1.3h0.9v4.3C93.4,100.7,94.2,100.7,94.2,100.7z"/>
<path class="st8" d="M78.8,99l-2.8,2.1v-4.3L78.8,99z"/>
<path class="st8" d="M89.1,99l-2.8,2.1v-4.3L89.1,99z"/>
<path class="st8" d="M105.9,100.5c0.1,0,0.2,0,0.3,0.1c0.1,0.1,0.1,0.1,0.1,0.3v0.6h-3.6v-0.3c0-0.1,0-0.1,0-0.2s0.1-0.1,0.1-0.2
	l1.5-1.5c0.1-0.1,0.2-0.2,0.3-0.4c0.1-0.1,0.2-0.2,0.2-0.3c0.1-0.1,0.1-0.2,0.1-0.3c0-0.1,0-0.2,0-0.4c0-0.2,0-0.4-0.1-0.5
	s-0.2-0.2-0.4-0.2c-0.2,0-0.3,0-0.4,0.1s-0.2,0.2-0.2,0.3c0,0.1-0.1,0.2-0.2,0.3c-0.1,0-0.2,0.1-0.3,0l-0.6-0.1
	c0-0.3,0.1-0.5,0.2-0.7s0.2-0.3,0.4-0.5c0.2-0.1,0.3-0.2,0.5-0.3c0.2-0.1,0.4-0.1,0.7-0.1c0.3,0,0.5,0,0.7,0.1s0.4,0.2,0.5,0.3
	c0.1,0.1,0.3,0.3,0.3,0.5c0.1,0.2,0.1,0.4,0.1,0.6s0,0.4-0.1,0.5c-0.1,0.2-0.1,0.3-0.2,0.5c-0.1,0.1-0.2,0.3-0.3,0.4
	c-0.1,0.1-0.2,0.3-0.4,0.4l-1,1c0.1,0,0.3-0.1,0.4-0.1s0.2,0,0.3,0L105.9,100.5L105.9,100.5z M116.2,100.7v0.8h-2.9v-0.8h1v-2.6
	c0-0.1,0-0.1,0-0.2s0-0.1,0-0.2l-0.6,0.5c-0.1,0-0.1,0.1-0.2,0.1h-0.1h-0.1c0,0-0.1,0-0.1-0.1l-0.3-0.5l1.6-1.3h0.9v4.3
	C115.4,100.7,116.2,100.7,116.2,100.7z M122.8,97.9c0-0.3,0.1-0.5,0.2-0.7s0.2-0.3,0.4-0.5c0.2-0.1,0.3-0.2,0.5-0.3
	c0.2-0.1,0.4-0.1,0.7-0.1c0.3,0,0.5,0,0.7,0.1s0.4,0.2,0.5,0.3c0.1,0.1,0.2,0.3,0.3,0.4c0.1,0.2,0.1,0.3,0.1,0.5s0,0.3,0,0.4
	s-0.1,0.2-0.1,0.3c-0.1,0.1-0.1,0.2-0.2,0.2c-0.1,0.1-0.2,0.1-0.3,0.2c0.6,0.2,0.8,0.6,0.8,1.2c0,0.3,0,0.5-0.1,0.7
	s-0.2,0.4-0.4,0.5c-0.2,0.1-0.4,0.2-0.6,0.3c-0.2,0.1-0.4,0.1-0.7,0.1c-0.2,0-0.5,0-0.6-0.1c-0.2-0.1-0.4-0.1-0.5-0.2
	s-0.3-0.3-0.4-0.4c-0.1-0.2-0.2-0.4-0.3-0.6l0.5-0.2c0.1,0,0.2-0.1,0.3,0c0.1,0,0.2,0.1,0.2,0.2c0.1,0.2,0.2,0.3,0.3,0.4
	c0.1,0.1,0.3,0.1,0.4,0.1s0.2,0,0.3-0.1c0.1,0,0.2-0.1,0.2-0.2c0.1-0.1,0.1-0.1,0.1-0.2s0-0.2,0-0.2c0-0.1,0-0.2,0-0.3
	c0-0.1-0.1-0.2-0.1-0.2c-0.1-0.1-0.2-0.1-0.3-0.1c-0.1,0-0.3-0.1-0.6-0.1v-0.7c0.2,0,0.4,0,0.5,0s0.2-0.1,0.3-0.1
	c0.1-0.1,0.1-0.1,0.1-0.2s0-0.2,0-0.3c0-0.2,0-0.4-0.1-0.5s-0.2-0.2-0.4-0.2c-0.2,0-0.3,0-0.4,0.1s-0.2,0.2-0.2,0.3
	c0,0.1-0.1,0.2-0.2,0.3c-0.1,0-0.2,0.1-0.3,0L122.8,97.9z"/>
<path class="st8" d="M110.8,99l-2.8,2.1v-4.3L110.8,99z"/>
<path class="st8" d="M118.3,99l2.8-2.1v4.3L118.3,99z"/>
<path class="st10" d="M3.5,95h126v-1H3.5V95z M131,96.5v5h1v-5H131z M129.5,103H3.5v1h126V103z M2,101.5v-5H1v5H2z M3.5,103
	c-0.8,0-1.5-0.7-1.5-1.5H1c0,1.4,1.1,2.5,2.5,2.5V103z M131,101.5c0,0.8-0.7,1.5-1.5,1.5v1c1.4,0,2.5-1.1,2.5-2.5H131z M129.5,95
	c0.8,0,1.5,0.7,1.5,1.5h1c0-1.4-1.1-2.5-2.5-2.5V95z M3.5,94C2.1,94,1,95.1,1,96.5h1C2,95.7,2.7,95,3.5,95V94z"/>
<path class="st0" d="M1,4v3h120v8h7v2l4-2.5l-4-2.5v2h-5V4H1z"/>
<path class="st1" d="M15.5,26.5h6c1.1,0,2,0.9,2,2v6c0,1.1-0.9,2-2,2h-6c-1.1,0-2-0.9-2-2v-6C13.5,27.4,14.4,26.5,15.5,26.5z"/>
<path class="st1" d="M47.5,26.5h6c1.1,0,2,0.9,2,2v6c0,1.1-0.9,2-2,2h-6c-1.1,0-2-0.9-2-2v-6C45.5,27.4,46.4,26.5,47.5,26.5z"/>
<path class="st1" d="M79.5,26.5h6c1.1,0,2,0.9,2,2v6c0,1.1-0.9,2-2,2h-6c-1.1,0-2-0.9-2-2v-6C77.5,27.4,78.4,26.5,79.5,26.5z"/>
<path class="st2" d="M117,26.5h-6c-1.1,0-2,0.9-2,2v6c0,1.1,0.9,2,2,2h6c1.1,0,2-0.9,2-2v-6C119,27.4,118.1,26.5,117,26.5z"/>
<path class="st4" d="M20.1,33.4V34h-2.8v-0.6h1v-3c0-0.1,0-0.2,0-0.4l-0.7,0.6l-0.1,0.1h-0.1h-0.1c0,0,0,0-0.1-0.1l-0.3-0.4l1.5-1.3
	h0.7v4.4L20.1,33.4L20.1,33.4z"/>
<path class="st4" d="M51.9,33.2c0.1,0,0.2,0,0.2,0.1c0.1,0.1,0.1,0.1,0.1,0.2V34h-3.5v-0.3c0-0.1,0-0.1,0-0.2c0-0.1,0.1-0.1,0.1-0.2
	l1.5-1.5c0.1-0.1,0.2-0.3,0.3-0.4s0.2-0.2,0.3-0.4c0.1-0.1,0.1-0.2,0.2-0.4c0-0.1,0.1-0.2,0.1-0.4c0-0.1,0-0.2-0.1-0.3
	c0-0.1-0.1-0.2-0.2-0.2c-0.1-0.1-0.1-0.1-0.2-0.1c-0.1,0-0.2,0-0.3,0s-0.2,0-0.3,0s-0.2,0.1-0.2,0.1c-0.1,0.1-0.1,0.1-0.2,0.2
	c0,0.1-0.1,0.1-0.1,0.2s-0.1,0.2-0.2,0.2s-0.2,0-0.3,0l-0.5-0.1c0-0.2,0.1-0.5,0.2-0.6c0.1-0.2,0.2-0.3,0.4-0.5
	c0.2-0.1,0.3-0.2,0.5-0.3c0.2-0.1,0.4-0.1,0.6-0.1c0.2,0,0.4,0,0.6,0.1c0.2,0.1,0.4,0.2,0.5,0.3c0.1,0.1,0.2,0.3,0.3,0.5
	s0.1,0.4,0.1,0.6s0,0.4-0.1,0.5c-0.1,0.2-0.1,0.3-0.2,0.5c-0.1,0.1-0.2,0.3-0.3,0.4s-0.3,0.3-0.4,0.4L50,33.3c0.1,0,0.2-0.1,0.3-0.1
	s0.2,0,0.3,0H51.9z"/>
<path class="st4" d="M80.8,30.3c0-0.2,0.1-0.5,0.2-0.6c0.1-0.2,0.2-0.3,0.4-0.5c0.2-0.1,0.3-0.2,0.5-0.3c0.2-0.1,0.4-0.1,0.6-0.1
	s0.4,0,0.6,0.1s0.3,0.2,0.5,0.3c0.1,0.1,0.2,0.3,0.3,0.4c0.1,0.2,0.1,0.3,0.1,0.5s0,0.3-0.1,0.4c0,0.1-0.1,0.2-0.2,0.3
	c-0.1,0.1-0.2,0.2-0.3,0.2c-0.1,0.1-0.2,0.1-0.3,0.2c0.3,0.1,0.5,0.2,0.7,0.4c0.1,0.2,0.2,0.4,0.2,0.7c0,0.3,0,0.5-0.1,0.7
	s-0.2,0.4-0.4,0.5c-0.2,0.1-0.3,0.2-0.6,0.3c-0.2,0.1-0.4,0.1-0.7,0.1c-0.3,0-0.5,0-0.7-0.1s-0.4-0.1-0.5-0.3s-0.3-0.3-0.4-0.4
	c-0.1-0.2-0.2-0.4-0.3-0.6l0.4-0.2c0.1,0,0.2-0.1,0.3,0c0.1,0,0.2,0.1,0.2,0.1c0,0.1,0.1,0.2,0.1,0.2c0.1,0.1,0.1,0.2,0.2,0.2
	c0.1,0.1,0.2,0.1,0.2,0.2c0.1,0,0.2,0.1,0.3,0.1c0.1,0,0.3,0,0.4-0.1c0.1,0,0.2-0.1,0.3-0.2c0.1-0.1,0.1-0.2,0.2-0.3
	c0-0.1,0.1-0.2,0.1-0.3s0-0.2,0-0.3c0-0.1-0.1-0.2-0.2-0.3c-0.1-0.1-0.2-0.1-0.4-0.2c-0.2,0-0.4-0.1-0.6-0.1v-0.6
	c0.2,0,0.4,0,0.5-0.1c0.1,0,0.3-0.1,0.3-0.2c0.1-0.1,0.1-0.1,0.2-0.2c0-0.1,0-0.2,0-0.3c0-0.2-0.1-0.4-0.2-0.5s-0.3-0.2-0.5-0.2
	c-0.1,0-0.2,0-0.3,0c-0.1,0-0.2,0.1-0.2,0.1c-0.1,0.1-0.1,0.1-0.2,0.2c0,0.1-0.1,0.1-0.1,0.2s-0.1,0.2-0.2,0.2s-0.2,0-0.3,0V30.3z"
	/>
<path class="st4" d="M116.1,28.9V34h-0.5c-0.1,0-0.1,0-0.2,0l-0.1-0.1l-2.6-3.4c0,0.2,0,0.3,0,0.4V34h-0.8v-5.1h0.5h0.1h0.1
	c0,0,0,0,0.1,0c0,0,0,0,0.1,0.1l2.7,3.4c0-0.1,0-0.2,0-0.2c0-0.1,0-0.2,0-0.2v-3.1H116.1z"/>
<g class="st5">
	<path class="st1" d="M34.5,24.5c2.8,0,5-2.2,5-5s-2.2-5-5-5s-5,2.2-5,5S31.7,24.5,34.5,24.5z"/>
	<path class="st6" d="M36.4,16.5l1.1,1.1l-1.9,1.9l1.9,1.9l-1.1,1.1l-1.9-1.9l-1.9,1.9l-1.1-1.1l1.9-1.9l-1.9-1.9l1.1-1.1l1.9,1.9
		L36.4,16.5z"/>
</g>
<g class="st5">
	<path class="st1" d="M66.5,24.5c2.8,0,5-2.2,5-5s-2.2-5-5-5s-5,2.2-5,5S63.7,24.5,66.5,24.5z"/>
	<path class="st6" d="M68.4,16.5l1.1,1.1l-1.9,1.9l1.9,1.9l-1.1,1.1l-1.9-1.9l-1.9,1.9l-1.1-1.1l1.9-1.9l-1.9-1.9l1.1-1.1l1.9,1.9
		L68.4,16.5z"/>
</g>
<path class="st0" d="M82,12h-2l2.5-4l2.5,4h-2H82z"/>
<path class="st3" d="M82,26V11.5h1V26H82z"/>
<g class="st5">
	<path class="st0" d="M113.5,12h-2l2.5-4l2.5,4h-2H113.5z"/>
	<path class="st3" d="M113.5,26V11.5h1V26H113.5z"/>
</g>
<path class="st0" d="M50,12h-2l2.5-4l2.5,4h-2H50z"/>
<path class="st3" d="M50,26V11.5h1V26H50z"/>
<path class="st0" d="M18,12h-2l2.5-4l2.5,4h-2H18z"/>
<path class="st3" d="M18,26V11.5h1V26H18z"/>
<g class="st5">
	<path class="st0" d="M34,12h-2l2.5-4l2.5,4h-2H34z"/>
	<path class="st3" d="M34,14v-2.5h1V14H34z"/>
</g>
<g class="st5">
	<path class="st0" d="M66,12h-2l2.5-4l2.5,4h-2H66z"/>
	<path class="st3" d="M66,14v-2.5h1V14H66z"/>
</g>
<g class="st5">
	<path class="st0" d="M45,20v2l-4-2.5l4-2.5v2V20z"/>
	<path class="st3" d="M50,20h-5.5v-1H50V20z"/>
</g>
<g class="st5">
	<path class="st0" d="M77,20v2l-4-2.5l4-2.5v2V20z"/>
	<path class="st3" d="M82,20h-5.5v-1H82V20z"/>
</g>
<g class="st5">
	<path class="st0" d="M24,19v-2l4,2.5L24,22v-2V19z"/>
	<path class="st3" d="M19,19h5.5v1H19V19z"/>
</g>
<g class="st5">
	<path class="st0" d="M56,19v-2l4,2.5L56,22v-2V19z"/>
	<path class="st3" d="M51,19h5.5v1H51V19z"/>
</g>
<path class="st7" d="M1.5,44.5c0-1.1,0.9-2,2-2h126c1.1,0,2,0.9,2,2v5c0,1.1-0.9,2-2,2H3.5c-1.1,0-2-0.9-2-2V44.5z"/>
<path class="st8" d="M4.5,43.2h28c0.6,0,1,0.5,1,1.3v5c0,0.8-0.4,1.3-1,1.3h-28c-0.6,0-1-0.5-1-1.3v-5C3.5,43.7,3.9,43.2,4.5,43.2z"
	/>
<path class="st9" d="M4.5,44h28c0.6,0,1,0.4,1,1v4c0,0.6-0.4,1-1,1h-28c-0.6,0-1-0.4-1-1v-4C3.5,44.4,3.9,44,4.5,44z"/>
<path d="M11.9,44.4v5.1h-0.6c-0.1,0-0.2,0-0.2,0c-0.1,0-0.1-0.1-0.2-0.2l-2.4-3c0,0.1,0,0.2,0,0.3s0,0.2,0,0.2v2.7h-1v-5.1h0.6
	c0.1,0,0.1,0,0.1,0h0.1c0,0,0.1,0,0.1,0.1l0.1,0.1l2.4,3.1c0-0.1,0-0.2,0-0.3s0-0.2,0-0.3v-2.7C10.9,44.4,11.9,44.4,11.9,44.4z
	 M17.8,46.9c0,0.4-0.1,0.7-0.2,1s-0.3,0.6-0.5,0.8s-0.5,0.4-0.8,0.5c-0.3,0.1-0.7,0.2-1.1,0.2c-0.4,0-0.8-0.1-1.1-0.2
	c-0.3-0.1-0.6-0.3-0.8-0.5s-0.4-0.5-0.5-0.8s-0.2-0.7-0.2-1c0-0.4,0.1-0.7,0.2-1c0.1-0.3,0.3-0.6,0.5-0.8s0.5-0.4,0.8-0.5
	s0.7-0.2,1.1-0.2c0.4,0,0.8,0.1,1.1,0.2c0.3,0.1,0.6,0.3,0.8,0.5c0.2,0.2,0.4,0.5,0.5,0.8C17.8,46.2,17.8,46.6,17.8,46.9z
	 M16.6,46.9c0-0.3,0-0.5-0.1-0.7s-0.2-0.4-0.3-0.5c-0.1-0.1-0.3-0.2-0.4-0.3c-0.2-0.1-0.4-0.1-0.6-0.1c-0.2,0-0.4,0-0.6,0.1
	c-0.2,0.1-0.3,0.2-0.5,0.3c-0.1,0.1-0.2,0.3-0.3,0.5s-0.1,0.4-0.1,0.7s0,0.5,0.1,0.7s0.2,0.4,0.3,0.5s0.3,0.2,0.5,0.3
	s0.4,0.1,0.6,0.1c0.2,0,0.4,0,0.6-0.1s0.3-0.2,0.4-0.3s0.2-0.3,0.3-0.5C16.6,47.4,16.6,47.2,16.6,46.9z M21.1,45.3v1.3h1.7v0.9h-1.7
	v2h-1.2v-5.1h3.3v0.9C23.2,45.3,21.1,45.3,21.1,45.3z M29.5,44.4v5.1h-1v-2.9c0-0.1,0-0.1,0-0.2c0-0.1,0-0.2,0-0.2l-1.4,2.6
	c0,0.1-0.1,0.1-0.2,0.2c-0.1,0-0.2,0.1-0.2,0.1h-0.2c-0.1,0-0.2,0-0.2-0.1c-0.1,0-0.1-0.1-0.2-0.2l-1.4-2.6c0,0.1,0,0.2,0,0.2
	c0,0.1,0,0.2,0,0.2v2.9h-1v-5.1h0.9c0.1,0,0.1,0,0.1,0h0.1c0,0,0.1,0,0.1,0.1l0.1,0.1l1.3,2.6c0,0.1,0.1,0.2,0.1,0.3
	s0.1,0.2,0.1,0.3c0-0.1,0.1-0.2,0.1-0.3s0.1-0.2,0.1-0.3l1.3-2.6c0,0,0-0.1,0.1-0.1c0,0,0.1,0,0.1-0.1s0.1,0,0.1,0h0.1H29.5z"/>
<path class="st8" d="M47.6,48.5c0.1,0,0.2,0,0.3,0.1s0.1,0.1,0.1,0.3v0.6h-3.6v-0.3c0-0.1,0-0.1,0-0.2s0.1-0.1,0.1-0.2l1.5-1.5
	c0.1-0.1,0.2-0.2,0.3-0.4c0.1-0.1,0.2-0.2,0.2-0.3c0.1-0.1,0.1-0.2,0.1-0.3s0-0.2,0-0.4s0-0.4-0.1-0.5s-0.2-0.2-0.4-0.2
	s-0.3,0-0.4,0.1c-0.1,0.1-0.2,0.2-0.2,0.3s-0.1,0.2-0.2,0.3c-0.1,0-0.2,0.1-0.3,0l-0.6-0.1c0-0.3,0.1-0.5,0.2-0.7
	c0.1-0.2,0.2-0.3,0.4-0.5c0.2-0.1,0.3-0.2,0.5-0.3s0.4-0.1,0.7-0.1s0.5,0,0.7,0.1s0.4,0.2,0.5,0.3s0.3,0.3,0.3,0.5
	c0.1,0.2,0.1,0.4,0.1,0.6c0,0.2,0,0.4-0.1,0.5c-0.1,0.2-0.1,0.3-0.2,0.5c-0.1,0.1-0.2,0.3-0.3,0.4c-0.1,0.1-0.2,0.3-0.4,0.4l-1,1
	c0.1,0,0.3-0.1,0.4-0.1s0.2,0,0.4,0h1V48.5z M56.4,48.7v0.8h-2.9v-0.8h1v-2.6c0-0.1,0-0.1,0-0.2c0-0.1,0-0.1,0-0.2l-0.6,0.5
	c-0.1,0-0.1,0.1-0.2,0.1h-0.1h-0.1c0,0-0.1,0-0.1-0.1l-0.3-0.5l1.6-1.3h0.9v4.3H56.4z"/>
<path class="st8" d="M52.4,47l-2.8,2.1v-4.3L52.4,47z"/>
<path class="st8" d="M70.8,45.9c0-0.3,0.1-0.5,0.2-0.7s0.2-0.3,0.4-0.5c0.2-0.1,0.3-0.2,0.5-0.3s0.4-0.1,0.7-0.1
	c0.3,0,0.5,0,0.7,0.1s0.4,0.2,0.5,0.3s0.2,0.3,0.3,0.4c0.1,0.2,0.1,0.3,0.1,0.5s0,0.3,0,0.4c0,0.1-0.1,0.2-0.1,0.3
	c-0.1,0.1-0.1,0.2-0.2,0.2c-0.1,0.1-0.2,0.1-0.3,0.2c0.6,0.2,0.8,0.6,0.8,1.2c0,0.3,0,0.5-0.1,0.7s-0.2,0.4-0.4,0.5
	c-0.2,0.1-0.4,0.2-0.6,0.3s-0.4,0.1-0.7,0.1c-0.2,0-0.5,0-0.6-0.1c-0.2-0.1-0.4-0.1-0.5-0.2c-0.1-0.1-0.3-0.3-0.4-0.4
	c-0.1-0.2-0.2-0.4-0.3-0.6l0.5-0.2c0.1,0,0.2-0.1,0.3,0s0.2,0.1,0.2,0.2c0.1,0.2,0.2,0.3,0.3,0.4c0.1,0.1,0.3,0.1,0.4,0.1
	s0.2,0,0.3-0.1c0.1,0,0.2-0.1,0.2-0.2c0.1-0.1,0.1-0.1,0.1-0.2c0-0.1,0-0.2,0-0.2c0-0.1,0-0.2,0-0.3S73,47.5,73,47.5
	s-0.2-0.1-0.3-0.1c-0.1,0-0.3-0.1-0.6-0.1v-0.7c0.2,0,0.4,0,0.5,0s0.2-0.1,0.3-0.1c0.1-0.1,0.1-0.1,0.1-0.2s0-0.2,0-0.3
	c0-0.2,0-0.4-0.1-0.5s-0.2-0.2-0.4-0.2c-0.2,0-0.3,0-0.4,0.1s-0.2,0.2-0.2,0.3s-0.1,0.2-0.2,0.3s-0.2,0.1-0.3,0L70.8,45.9z
	 M83.9,48.5c0.1,0,0.2,0,0.3,0.1c0.1,0.1,0.1,0.1,0.1,0.3v0.6h-3.6v-0.3c0-0.1,0-0.1,0-0.2s0.1-0.1,0.1-0.2l1.5-1.5
	c0.1-0.1,0.2-0.2,0.3-0.4s0.2-0.2,0.2-0.3c0.1-0.1,0.1-0.2,0.1-0.3s0-0.2,0-0.4s0-0.4-0.1-0.5s-0.2-0.2-0.4-0.2
	c-0.2,0-0.3,0-0.4,0.1s-0.2,0.2-0.2,0.3s-0.1,0.2-0.2,0.3s-0.2,0.1-0.3,0l-0.6-0.1c0-0.3,0.1-0.5,0.2-0.7s0.2-0.3,0.4-0.5
	c0.2-0.1,0.3-0.2,0.5-0.3s0.4-0.1,0.7-0.1c0.3,0,0.5,0,0.7,0.1s0.4,0.2,0.5,0.3s0.3,0.3,0.3,0.5c0.1,0.2,0.1,0.4,0.1,0.6
	c0,0.2,0,0.4-0.1,0.5c-0.1,0.2-0.1,0.3-0.2,0.5c-0.1,0.1-0.2,0.3-0.3,0.4c-0.1,0.1-0.2,0.3-0.4,0.4l-1,1c0.1,0,0.3-0.1,0.4-0.1
	s0.2,0,0.3,0h1.1V48.5z M94.2,48.7v0.8h-2.9v-0.8h1v-2.6c0-0.1,0-0.1,0-0.2c0-0.1,0-0.1,0-0.2l-0.6,0.5c-0.1,0-0.1,0.1-0.2,0.1h-0.1
	h-0.1c0,0-0.1,0-0.1-0.1l-0.3-0.5l1.6-1.3h0.9v4.3H94.2z"/>
<path class="st8" d="M78.8,47L76,49.1v-4.3L78.8,47z"/>
<path class="st8" d="M89.1,47l-2.8,2.1v-4.3L89.1,47z"/>
<path class="st8" d="M105.9,48.5c0.1,0,0.2,0,0.3,0.1c0.1,0.1,0.1,0.1,0.1,0.3v0.6h-3.6v-0.3c0-0.1,0-0.1,0-0.2s0.1-0.1,0.1-0.2
	l1.5-1.5c0.1-0.1,0.2-0.2,0.3-0.4c0.1-0.1,0.2-0.2,0.2-0.3c0.1-0.1,0.1-0.2,0.1-0.3s0-0.2,0-0.4s0-0.4-0.1-0.5s-0.2-0.2-0.4-0.2
	c-0.2,0-0.3,0-0.4,0.1s-0.2,0.2-0.2,0.3s-0.1,0.2-0.2,0.3c-0.1,0-0.2,0.1-0.3,0l-0.6-0.1c0-0.3,0.1-0.5,0.2-0.7s0.2-0.3,0.4-0.5
	c0.2-0.1,0.3-0.2,0.5-0.3s0.4-0.1,0.7-0.1c0.3,0,0.5,0,0.7,0.1s0.4,0.2,0.5,0.3s0.3,0.3,0.3,0.5c0.1,0.2,0.1,0.4,0.1,0.6
	c0,0.2,0,0.4-0.1,0.5c-0.1,0.2-0.1,0.3-0.2,0.5c-0.1,0.1-0.2,0.3-0.3,0.4c-0.1,0.1-0.2,0.3-0.4,0.4l-1,1c0.1,0,0.3-0.1,0.4-0.1
	s0.2,0,0.3,0h1.1V48.5z M116.2,48.7v0.8h-2.9v-0.8h1v-2.6c0-0.1,0-0.1,0-0.2c0-0.1,0-0.1,0-0.2l-0.6,0.5c-0.1,0-0.1,0.1-0.2,0.1
	h-0.1h-0.1c0,0-0.1,0-0.1-0.1l-0.3-0.5l1.6-1.3h0.9v4.3H116.2z M122.8,45.9c0-0.3,0.1-0.5,0.2-0.7s0.2-0.3,0.4-0.5
	c0.2-0.1,0.3-0.2,0.5-0.3s0.4-0.1,0.7-0.1c0.3,0,0.5,0,0.7,0.1s0.4,0.2,0.5,0.3s0.2,0.3,0.3,0.4c0.1,0.2,0.1,0.3,0.1,0.5
	s0,0.3,0,0.4c0,0.1-0.1,0.2-0.1,0.3c-0.1,0.1-0.1,0.2-0.2,0.2c-0.1,0.1-0.2,0.1-0.3,0.2c0.6,0.2,0.8,0.6,0.8,1.2
	c0,0.3,0,0.5-0.1,0.7s-0.2,0.4-0.4,0.5c-0.2,0.1-0.4,0.2-0.6,0.3s-0.4,0.1-0.7,0.1c-0.2,0-0.5,0-0.6-0.1c-0.2-0.1-0.4-0.1-0.5-0.2
	c-0.1-0.1-0.3-0.3-0.4-0.4c-0.1-0.2-0.2-0.4-0.3-0.6l0.5-0.2c0.1,0,0.2-0.1,0.3,0c0.1,0,0.2,0.1,0.2,0.2c0.1,0.2,0.2,0.3,0.3,0.4
	c0.1,0.1,0.3,0.1,0.4,0.1s0.2,0,0.3-0.1c0.1,0,0.2-0.1,0.2-0.2c0.1-0.1,0.1-0.1,0.1-0.2c0-0.1,0-0.2,0-0.2c0-0.1,0-0.2,0-0.3
	s-0.1-0.2-0.1-0.2c-0.1-0.1-0.2-0.1-0.3-0.1c-0.1,0-0.3-0.1-0.6-0.1v-0.7c0.2,0,0.4,0,0.5,0s0.2-0.1,0.3-0.1
	c0.1-0.1,0.1-0.1,0.1-0.2c0-0.1,0-0.2,0-0.3c0-0.2,0-0.4-0.1-0.5s-0.2-0.2-0.4-0.2c-0.2,0-0.3,0-0.4,0.1s-0.2,0.2-0.2,0.3
	s-0.1,0.2-0.2,0.3c-0.1,0-0.2,0.1-0.3,0L122.8,45.9z"/>
<path class="st8" d="M110.8,47l-2.8,2.1v-4.3L110.8,47z"/>
<path class="st8" d="M118.3,47l2.8-2.1v4.3L118.3,47z"/>
<path class="st10" d="M3.5,43h126v-1H3.5V43z M131,44.5v5h1v-5H131z M129.5,51H3.5v1h126V51z M2,49.5v-5H1v5H2z M3.5,51
	C2.7,51,2,50.3,2,49.5H1C1,50.9,2.1,52,3.5,52V51z M131,49.5c0,0.8-0.7,1.5-1.5,1.5v1c1.4,0,2.5-1.1,2.5-2.5H131z M129.5,43
	c0.8,0,1.5,0.7,1.5,1.5h1c0-1.4-1.1-2.5-2.5-2.5V43z M3.5,42C2.1,42,1,43.1,1,44.5h1C2,43.7,2.7,43,3.5,43V42z"/>
</svg>
