<?xml version="1.0" encoding="utf-8"?>
<!-- Generator: Adobe Illustrator 23.0.0, SVG Export Plug-In . SVG Version: 6.00 Build 0)  -->
<svg version="1.1" id="Layer_1" xmlns="http://www.w3.org/2000/svg" xmlns:xlink="http://www.w3.org/1999/xlink" x="0px" y="0px"
	 viewBox="0 0 74 39" style="enable-background:new 0 0 74 39;" xml:space="preserve">
<style type="text/css">
	.st0{fill:#FFFFFF;}
	.st1{display:none;fill:none;stroke:#FFFFFF;}
	.st2{display:none;fill:#FFFFFF;stroke:#999999;stroke-miterlimit:10;}
	.st3{display:none;fill:none;stroke:#999999;}
</style>
<path class="st0" d="M2,1h21c0.6,0,1,0.4,1,1v9c0,0.6-0.4,1-1,1H2c-0.6,0-1-0.4-1-1V2C1,1.4,1.4,1,2,1z"/>
<path class="st1" d="M2,1h21c0.6,0,1,0.4,1,1v9c0,0.6-0.4,1-1,1H2c-0.6,0-1-0.4-1-1V2C1,1.4,1.4,1,2,1z"/>
<path d="M14.4,8.6v0.9h-3.3V8.6h1.1V5.7c0-0.1,0-0.1,0-0.2s0-0.2,0-0.2l-0.7,0.6c-0.1,0-0.1,0.1-0.2,0.1c-0.1,0-0.1,0-0.2,0
	C11,6,11,6,11,5.9l-0.1-0.1l-0.4-0.5l1.8-1.5h1v4.9h1.1C14.4,8.7,14.4,8.6,14.4,8.6z"/>
<path class="st0" d="M38.8,8.4c0.1,0,0.2,0,0.3,0.1s0.1,0.2,0.1,0.3v0.7h-4.1V9.1c0-0.1,0-0.2,0-0.2c0-0.1,0.1-0.2,0.2-0.2L37,7
	c0.1-0.1,0.3-0.3,0.4-0.4s0.2-0.3,0.3-0.4s0.1-0.3,0.2-0.4c0-0.1,0.1-0.3,0.1-0.4c0-0.2-0.1-0.4-0.2-0.5c-0.1-0.1-0.3-0.2-0.5-0.2
	s-0.3,0-0.5,0.1c-0.1,0.1-0.2,0.2-0.3,0.4c-0.1,0.1-0.1,0.2-0.2,0.3c-0.1,0-0.2,0.1-0.4,0l-0.7-0.1c0-0.3,0.1-0.5,0.2-0.8
	c0.1-0.2,0.3-0.4,0.5-0.5s0.4-0.3,0.6-0.3c0.2-0.1,0.5-0.1,0.7-0.1c0.3,0,0.5,0,0.8,0.1c0.2,0.1,0.4,0.2,0.6,0.3
	c0.2,0.1,0.3,0.3,0.4,0.5c0.1,0.2,0.1,0.4,0.1,0.7c0,0.2,0,0.4-0.1,0.6c0,0.2,0,0.3-0.2,0.5c-0.1,0.2-0.2,0.3-0.4,0.5
	C38.3,7,38.2,7.2,38,7.4l-1.1,1.2c0.1,0,0.3-0.1,0.4-0.1c0.1,0,0.3,0,0.4,0h1.1C38.8,8.5,38.8,8.4,38.8,8.4z"/>
<path class="st0" d="M60,5.3c0-0.3,0.1-0.5,0.2-0.8c0.1-0.2,0.3-0.4,0.5-0.5s0.4-0.3,0.6-0.3c0.2-0.1,0.5-0.1,0.7-0.1
	c0.3,0,0.5,0,0.8,0.1C63,3.8,63.2,3.9,63.4,4s0.3,0.3,0.4,0.5c0.1,0.2,0.1,0.4,0.1,0.6s0,0.3-0.1,0.5c0,0.1-0.1,0.3-0.2,0.4
	c-0.1,0.1-0.2,0.2-0.3,0.3c-0.1,0.1-0.2,0.1-0.4,0.2c0.6,0.2,1,0.7,1,1.3C64,8,64,8.3,63.8,8.5S63.6,9,63.4,9.1
	c-0.2,0.2-0.4,0.3-0.7,0.3c-0.2,0.1-0.5,0.1-0.8,0.1s-0.5,0-0.7-0.1s-0.4-0.2-0.6-0.3c-0.2-0.1-0.3-0.3-0.4-0.5
	C60.1,8.5,60,8.3,59.9,8l0.6-0.2c0.1-0.1,0.3-0.1,0.4,0s0.2,0.1,0.3,0.2c0.1,0.2,0.2,0.4,0.4,0.5c0.1,0.1,0.3,0.1,0.5,0.1
	c0.1,0,0.3,0,0.4-0.1c0.1,0,0.2-0.1,0.3-0.2C62.9,8.2,62.9,8.1,63,8c0-0.1,0.1-0.2,0.1-0.3c0-0.1,0-0.2,0-0.3c0-0.1-0.1-0.2-0.1-0.3
	c-0.5,0-0.6-0.1-0.8-0.1s-0.4-0.1-0.7-0.1V6.1c0.2,0,0.4,0,0.6-0.1c0.1,0,0.3-0.1,0.3-0.2c0.1-0.1,0.1-0.1,0.2-0.2s0-0.2,0-0.3
	c0-0.2-0.1-0.4-0.2-0.5c-0.1-0.1-0.3-0.2-0.5-0.2s-0.3,0-0.5,0.1c-0.1,0.1-0.2,0.2-0.3,0.4C61,5.2,61,5.3,60.9,5.4
	c-0.1,0-0.2,0.1-0.4,0L60,5.3z"/>
<path class="st0" d="M14.4,21.6v0.9h-3.3v-0.9h1.1v-2.9c0-0.1,0-0.1,0-0.2s0-0.2,0-0.2l-0.7,0.6c-0.1,0-0.1,0.1-0.2,0.1
	c-0.1,0-0.1,0-0.2,0C11,19,11,19,11,18.9l-0.1-0.1l-0.4-0.5l1.8-1.5h1v4.9L14.4,21.6L14.4,21.6z"/>
<path class="st2" d="M26.8,14h21c0.6,0,1,0.4,1,1v9c0,0.6-0.4,1-1,1h-21c-0.6,0-1-0.4-1-1v-9C25.8,14.4,26.2,14,26.8,14z"/>
<path class="st0" d="M26.8,14h21c0.6,0,1,0.4,1,1v9c0,0.6-0.4,1-1,1h-21c-0.6,0-1-0.4-1-1v-9C25.8,14.4,26.2,14,26.8,14z"/>
<path d="M38.8,21.4c0.1,0,0.2,0,0.3,0.1s0.1,0.2,0.1,0.3v0.7h-4.1v-0.4c0-0.1,0-0.2,0-0.2c0-0.1,0.1-0.2,0.2-0.2L37,20
	c0.1-0.1,0.3-0.3,0.4-0.4c0.1-0.1,0.2-0.3,0.3-0.4s0.1-0.3,0.2-0.4c0-0.1,0.1-0.3,0.1-0.4c0-0.2-0.1-0.4-0.2-0.5
	c-0.1-0.1-0.3-0.2-0.5-0.2s-0.3,0-0.5,0.1c-0.1,0.1-0.2,0.2-0.3,0.4c-0.1,0.1-0.1,0.2-0.2,0.3c-0.1,0-0.2,0.1-0.4,0l-0.7-0.1
	c0-0.3,0.1-0.5,0.2-0.8c0.1-0.2,0.3-0.4,0.5-0.5s0.4-0.3,0.6-0.3c0.2-0.1,0.5-0.1,0.7-0.1c0.3,0,0.5,0,0.8,0.1
	c0.2,0.1,0.4,0.2,0.6,0.3c0.2,0.1,0.3,0.3,0.4,0.5c0.1,0.2,0.1,0.4,0.1,0.7c0,0.2,0,0.4-0.1,0.6s-0.1,0.4-0.2,0.5
	c-0.1,0.2-0.2,0.3-0.4,0.5c-0.1,0.2-0.3,0.3-0.4,0.5l-1.1,1.2c0.1,0,0.3-0.1,0.4-0.1s0.3,0,0.4,0h1.1C38.8,21.5,38.8,21.4,38.8,21.4
	z"/>
<path class="st0" d="M60,18.3c0-0.3,0.1-0.5,0.2-0.8c0.1-0.2,0.3-0.4,0.5-0.5s0.4-0.3,0.6-0.3c0.2-0.1,0.5-0.1,0.7-0.1
	c0.3,0,0.5,0,0.8,0.1c0.2,0.1,0.4,0.2,0.6,0.3c0.2,0.1,0.3,0.3,0.4,0.5c0.1,0.2,0.1,0.4,0.1,0.6s0,0.3-0.1,0.5
	c0,0.1-0.1,0.3-0.2,0.4c-0.1,0.1-0.2,0.2-0.3,0.3c-0.1,0.1-0.2,0.1-0.4,0.2c0.6,0.2,1,0.7,1,1.3c0,0.3-0.1,0.6-0.2,0.8
	c-0.1,0.2-0.3,0.4-0.5,0.6s-0.4,0.3-0.7,0.3c-0.2,0.1-0.5,0.1-0.8,0.1s-0.5,0-0.7-0.1s-0.4-0.2-0.6-0.3c-0.2-0.1-0.3-0.3-0.4-0.5
	c-0.1-0.2-0.2-0.4-0.3-0.7l0.6-0.2c0.1-0.1,0.3-0.1,0.4,0c0.1,0,0.2,0.1,0.3,0.2c0.1,0.2,0.2,0.4,0.4,0.5c0.1,0.1,0.3,0.1,0.5,0.1
	c0.1,0,0.3,0,0.4-0.1c0.1,0,0.2-0.1,0.3-0.2s0.1-0.2,0.2-0.3c0-0.1,0.1-0.2,0.1-0.3c0-0.1,0-0.2,0-0.3c0-0.1-0.1-0.2-0.1-0.3
	c-0.1-0.1-0.2-0.1-0.4-0.2c-0.2,0-0.4-0.1-0.7-0.1v-0.9c0.2,0,0.4,0,0.6-0.1s0.3-0.1,0.3-0.2c0.1-0.1,0.1-0.1,0.2-0.2
	c0-0.1,0-0.2,0-0.3c0-0.2-0.1-0.4-0.2-0.5c-0.1-0.1-0.3-0.2-0.5-0.2s-0.3,0-0.5,0.1c-0.1,0.1-0.2,0.2-0.3,0.4
	c-0.1,0.1-0.1,0.2-0.2,0.3c-0.1,0-0.2,0.1-0.4,0L60,18.3z"/>
<path class="st0" d="M14.4,34.6v0.9h-3.3v-0.9h1.1v-2.9c0-0.1,0-0.1,0-0.2s0-0.2,0-0.2l-0.7,0.6c-0.1,0-0.1,0.1-0.2,0.1
	c-0.1,0-0.1,0-0.2,0C11,32,11,32,11,31.9l-0.1-0.1l-0.4-0.5l1.8-1.5h1v4.9L14.4,34.6L14.4,34.6z"/>
<path class="st0" d="M38.8,34.4c0.1,0,0.2,0,0.3,0.1s0.1,0.2,0.1,0.3v0.7h-4.1v-0.4c0-0.1,0-0.2,0-0.2c0-0.1,0.1-0.2,0.2-0.2L37,33
	c0.1-0.1,0.3-0.3,0.4-0.4s0.2-0.3,0.3-0.4c0.1-0.1,0.1-0.3,0.2-0.4c0-0.1,0.1-0.3,0.1-0.4c0-0.2-0.1-0.4-0.2-0.5
	c-0.1-0.1-0.3-0.2-0.5-0.2s-0.3,0-0.5,0.1c-0.1,0.1-0.2,0.2-0.3,0.4c-0.1,0.1-0.1,0.2-0.2,0.3c-0.1,0-0.2,0.1-0.4,0l-0.7-0.1
	c0-0.3,0.1-0.5,0.2-0.8c0.1-0.2,0.3-0.4,0.5-0.5s0.4-0.3,0.6-0.3c0.2-0.1,0.5-0.1,0.7-0.1c0.3,0,0.5,0,0.8,0.1
	c0.2,0.1,0.4,0.2,0.6,0.3c0.2,0.1,0.3,0.3,0.4,0.5c0.1,0.2,0.1,0.4,0.1,0.7c0,0.2,0,0.4-0.1,0.6s-0.1,0.4-0.2,0.5
	c-0.1,0.2-0.2,0.3-0.4,0.5c-0.1,0.2-0.3,0.3-0.4,0.5l-1.1,1.2c0.1,0,0.3-0.1,0.4-0.1c0.1,0,0.3,0,0.4,0L38.8,34.4L38.8,34.4z"/>
<path class="st0" d="M51.5,27h21c0.6,0,1,0.4,1,1v9c0,0.6-0.4,1-1,1h-21c-0.6,0-1-0.4-1-1v-9C50.5,27.4,50.9,27,51.5,27z"/>
<path class="st3" d="M51.5,27h21c0.6,0,1,0.4,1,1v9c0,0.6-0.4,1-1,1h-21c-0.6,0-1-0.4-1-1v-9C50.5,27.4,50.9,27,51.5,27z"/>
<path d="M60,31.3c0-0.3,0.1-0.5,0.2-0.8c0.1-0.2,0.3-0.4,0.5-0.5s0.4-0.3,0.6-0.3c0.2-0.1,0.5-0.1,0.7-0.1c0.3,0,0.5,0,0.8,0.1
	c0.2,0.1,0.4,0.2,0.6,0.3c0.2,0.1,0.3,0.3,0.4,0.5c0.1,0.2,0.1,0.4,0.1,0.6s0,0.3-0.1,0.5c0,0.1-0.1,0.3-0.2,0.4
	c-0.1,0.1-0.2,0.2-0.3,0.3s-0.2,0.1-0.4,0.2c0.6,0.2,1,0.7,1,1.3c0,0.3-0.1,0.6-0.2,0.8c-0.1,0.2-0.3,0.4-0.5,0.6
	c-0.2,0.2-0.4,0.3-0.7,0.3c-0.2,0.1-0.5,0.1-0.8,0.1s-0.5,0-0.7-0.1s-0.4-0.2-0.6-0.3c-0.2-0.1-0.3-0.3-0.4-0.5
	c-0.1-0.2-0.2-0.4-0.3-0.7l0.6-0.2c0.1-0.1,0.3-0.1,0.4,0s0.2,0.1,0.3,0.2c0.1,0.2,0.2,0.4,0.4,0.5c0.1,0.1,0.3,0.1,0.5,0.1
	c0.1,0,0.3,0,0.4-0.1c0.1,0,0.2-0.1,0.3-0.2c0.1-0.1,0.1-0.2,0.2-0.3c0-0.1,0.1-0.2,0.1-0.3s0-0.2,0-0.3s-0.1-0.2-0.1-0.3
	c-0.1-0.1-0.2-0.1-0.4-0.2c-0.2,0-0.4-0.1-0.7-0.1v-0.9c0.2,0,0.4,0,0.6-0.1s0.3-0.1,0.3-0.2c0.1-0.1,0.1-0.1,0.2-0.2
	c0-0.1,0-0.2,0-0.3c0-0.2-0.1-0.4-0.2-0.5c-0.1-0.1-0.3-0.2-0.5-0.2s-0.3,0-0.5,0.1c-0.1,0.1-0.2,0.2-0.3,0.4
	c-0.1,0.1-0.1,0.2-0.2,0.3c-0.1,0-0.2,0.1-0.4,0L60,31.3z"/>
</svg>
