<?xml version="1.0" encoding="utf-8"?>
<!-- Generator: Adobe Illustrator 23.0.0, SVG Export Plug-In . SVG Version: 6.00 Build 0)  -->
<svg version="1.1" id="Layer_1" xmlns="http://www.w3.org/2000/svg" xmlns:xlink="http://www.w3.org/1999/xlink" x="0px" y="0px"
	 viewBox="0 0 12 306" style="enable-background:new 0 0 12 306;" xml:space="preserve">
<style type="text/css">
	.st0{opacity:0.7;fill:#FFFFFF;enable-background:new    ;}
</style>
<path class="st0" d="M1.5,20.4h9c0.6,0,1,0.4,1,1v9c0,0.6-0.4,1-1,1h-9c-0.6,0-1-0.4-1-1v-9C0.5,20.8,0.9,20.4,1.5,20.4z"/>
<path d="M7.6,27.7v0.8H4.7v-0.8h1v-2.6c0-0.1,0-0.1,0-0.2s0-0.1,0-0.2l-0.6,0.5c-0.1,0-0.1,0.1-0.2,0.1H4.8H4.7c0,0-0.1,0-0.1-0.1
	l-0.3-0.5l1.6-1.3h0.9v4.3H7.6z"/>
<path class="st0" d="M1.5,38.4h9c0.6,0,1,0.4,1,1v9c0,0.6-0.4,1-1,1h-9c-0.6,0-1-0.4-1-1v-9C0.5,38.8,0.9,38.4,1.5,38.4z"/>
<path d="M7.4,45.5c0.1,0,0.2,0,0.3,0.1c0.1,0.1,0.1,0.1,0.1,0.3v0.6H4.2v-0.3c0-0.1,0-0.1,0-0.2c0-0.1,0.1-0.1,0.1-0.2l1.5-1.5
	C6,44.1,6.1,44,6.2,43.9s0.2-0.2,0.2-0.3c0.1-0.1,0.1-0.2,0.1-0.3s0-0.2,0-0.4s0-0.4-0.1-0.5S6.2,42.2,6,42.2c-0.2,0-0.3,0-0.4,0.1
	s-0.2,0.2-0.2,0.3s-0.1,0.2-0.2,0.3C5.1,43,5,43,4.8,43l-0.6-0.1c0-0.3,0.1-0.5,0.2-0.7s0.2-0.3,0.4-0.5c0.2-0.1,0.3-0.2,0.5-0.3
	s0.4-0.1,0.7-0.1c0.3,0,0.5,0,0.7,0.1s0.4,0.2,0.5,0.3s0.3,0.3,0.3,0.5c0.1,0.2,0.1,0.4,0.1,0.6c0,0.2,0,0.4-0.1,0.5
	c-0.1,0.2-0.1,0.3-0.2,0.5c-0.1,0.1-0.2,0.3-0.3,0.4c-0.1,0.1-0.2,0.3-0.4,0.4l-1,1c0.1,0,0.3-0.1,0.4-0.1s0.2,0,0.3,0
	C6.3,45.5,7.4,45.5,7.4,45.5z"/>
<path class="st0" d="M1.5,56.4h9c0.6,0,1,0.4,1,1v9c0,0.6-0.4,1-1,1h-9c-0.6,0-1-0.4-1-1v-9C0.5,56.8,0.9,56.4,1.5,56.4z"/>
<path d="M4.3,60.9c0-0.3,0.1-0.5,0.2-0.7s0.2-0.3,0.4-0.5c0.2-0.1,0.3-0.2,0.5-0.3s0.4-0.1,0.7-0.1c0.3,0,0.5,0,0.7,0.1
	s0.4,0.2,0.5,0.3s0.2,0.3,0.3,0.4c0.1,0.2,0.1,0.3,0.1,0.5s0,0.3,0,0.4c0,0.1-0.1,0.2-0.1,0.3c-0.1,0.1-0.1,0.2-0.2,0.2
	c-0.1,0.1-0.2,0.1-0.3,0.2c0.6,0.2,0.8,0.6,0.8,1.2c0,0.3,0,0.5-0.1,0.7S7.6,64,7.4,64.1c-0.2,0.1-0.4,0.2-0.6,0.3
	c-0.2,0.1-0.4,0.1-0.7,0.1c-0.2,0-0.5,0-0.6-0.1c-0.2-0.1-0.4-0.1-0.5-0.2s-0.3-0.3-0.4-0.4c-0.1-0.2-0.2-0.4-0.3-0.6L4.6,63
	c0.1,0,0.2-0.1,0.3,0c0.1,0,0.2,0.1,0.2,0.2c0.1,0.2,0.2,0.3,0.3,0.4c0.1,0.1,0.3,0.1,0.4,0.1s0.2,0,0.3-0.1c0.1,0,0.2-0.1,0.2-0.2
	c0.1-0.1,0.1-0.1,0.1-0.2c0-0.1,0-0.2,0-0.2c0-0.1,0-0.2,0-0.3s-0.1-0.2-0.1-0.2c-0.1-0.1-0.2-0.1-0.3-0.1c-0.1,0-0.3-0.1-0.6-0.1
	v-0.7c0.2,0,0.4,0,0.5,0s0.2-0.1,0.3-0.1c0.1-0.1,0.1-0.1,0.1-0.2c0-0.1,0-0.2,0-0.3c0-0.2,0-0.4-0.1-0.5S6,60.3,5.8,60.3
	c-0.2,0-0.3,0-0.4,0.1s-0.2,0.2-0.2,0.3S5.1,60.9,5,61c0.1,0,0,0-0.1,0L4.3,60.9z"/>
<path class="st0" d="M1.5,74.4h9c0.6,0,1,0.4,1,1v9c0,0.6-0.4,1-1,1h-9c-0.6,0-1-0.4-1-1v-9C0.5,74.8,0.9,74.4,1.5,74.4z"/>
<path d="M6.4,80.5v-1.3c0-0.1,0-0.2,0-0.3c0-0.1,0-0.2,0-0.3l-1.3,1.9C5.1,80.5,6.4,80.5,6.4,80.5z M7.9,80.5v0.6
	c0,0.1,0,0.1-0.1,0.1c0,0-0.1,0.1-0.2,0.1H7.3v1.2H6.4v-1.2h-2c-0.1,0-0.1,0-0.2-0.1c-0.1,0-0.1-0.1-0.1-0.2L4,80.6l2.4-3.2h1v3.1
	H7.9z"/>
<path class="st0" d="M1.5,92.4h9c0.6,0,1,0.4,1,1v9c0,0.6-0.4,1-1,1h-9c-0.6,0-1-0.4-1-1v-9C0.5,92.8,0.9,92.4,1.5,92.4z"/>
<path d="M5.5,97.2c0.1,0,0.2,0,0.3,0c0.1,0,0.2,0,0.3,0c0.3,0,0.5,0,0.7,0.1s0.4,0.2,0.5,0.3c0.1,0.1,0.2,0.3,0.3,0.5
	c0.1,0.2,0.1,0.4,0.1,0.6c0,0.3,0,0.5-0.1,0.7s-0.2,0.4-0.4,0.6c-0.2,0.2-0.4,0.3-0.6,0.4s-0.5,0.1-0.8,0.1c-0.2,0-0.3,0-0.5-0.1
	c-0.1,0-0.3-0.1-0.4-0.1c-0.1-0.1-0.3-0.1-0.4-0.2s-0.2-0.2-0.3-0.3l0.3-0.4l0.1-0.1c0,0,0.1,0,0.2,0s0.1,0,0.2,0.1
	c0.1,0,0.1,0.1,0.2,0.1s0.2,0.1,0.3,0.1s0.2,0.1,0.4,0.1c0.1,0,0.3,0,0.4-0.1c0.1,0,0.2-0.1,0.2-0.2c0.1-0.1,0.1-0.2,0.1-0.3
	c0-0.1,0-0.2,0-0.4c0-0.2-0.1-0.4-0.2-0.6c-0.1,0-0.3-0.1-0.6-0.1c-0.2,0-0.5,0-0.7,0.1L4.5,98l0.4-2.6h2.6v0.4c0,0.1,0,0.1,0,0.2
	s-0.1,0.1-0.1,0.2c0,0-0.1,0.1-0.2,0.1s-0.2,0-0.3,0H5.7L5.5,97.2z"/>
<path class="st0" d="M1.5,110.4h9c0.6,0,1,0.4,1,1v9c0,0.6-0.4,1-1,1h-9c-0.6,0-1-0.4-1-1v-9C0.5,110.8,0.9,110.4,1.5,110.4z"/>
<path d="M6,117.7c0.1,0,0.2,0,0.3-0.1c0.1,0,0.2-0.1,0.3-0.2c0.1-0.1,0.1-0.2,0.2-0.3c0-0.1,0.1-0.2,0.1-0.3c0-0.1,0-0.2-0.1-0.3
	c0-0.1-0.1-0.2-0.2-0.3s-0.2-0.1-0.3-0.2c-0.1,0-0.2-0.1-0.3-0.1c-0.1,0-0.2,0-0.3,0.1c-0.1,0-0.2,0.1-0.2,0.2
	c-0.1,0.1-0.1,0.2-0.2,0.3c0,0.1-0.1,0.2-0.1,0.3s0,0.2,0,0.3c0,0.1,0.1,0.2,0.1,0.3c0.1,0.1,0.1,0.1,0.2,0.2
	C5.7,117.7,5.9,117.7,6,117.7z M5.8,115.4c0.2-0.1,0.3-0.1,0.5-0.1s0.4,0,0.5,0.1c0.2,0.1,0.3,0.2,0.5,0.3c0.1,0.1,0.3,0.3,0.3,0.5
	c0.1,0.2,0.1,0.4,0.1,0.7c0,0.2,0,0.5-0.1,0.7s-0.2,0.4-0.4,0.6c-0.2,0.2-0.4,0.3-0.6,0.4s-0.5,0.1-0.8,0.1s-0.5,0-0.8-0.1
	c-0.2-0.1-0.4-0.2-0.6-0.4c-0.2-0.2-0.3-0.4-0.4-0.6s-0.1-0.5-0.1-0.7c0-0.5,0.2-1,0.6-1.5l1.1-1.5c0.1-0.1,0.1-0.1,0.2-0.2
	c0.1,0,0.2-0.1,0.3-0.1h1L6,115.2L5.8,115.4z"/>
<path class="st0" d="M1.5,128.4h9c0.6,0,1,0.4,1,1v9c0,0.6-0.4,1-1,1h-9c-0.6,0-1-0.4-1-1v-9C0.5,128.8,0.9,128.4,1.5,128.4z"/>
<path d="M7.8,131.4v0.5c0,0.1,0,0.2,0,0.3s-0.1,0.2-0.1,0.2l-1.8,3.8c0,0.1-0.1,0.2-0.2,0.3s-0.2,0.1-0.4,0.1H4.6l1.8-3.7
	c0.1-0.1,0.1-0.2,0.2-0.3s0.1-0.2,0.2-0.2H4.5H4.4c0,0-0.1,0-0.1-0.1c0,0,0,0-0.1-0.1v-0.1v-0.7H7.8z"/>
<path class="st0" d="M1.5,146.4h9c0.6,0,1,0.4,1,1v9c0,0.6-0.4,1-1,1h-9c-0.6,0-1-0.4-1-1v-9C0.5,146.8,0.9,146.4,1.5,146.4z"/>
<path d="M6,153.7c0.1,0,0.2,0,0.3-0.1c0.1,0,0.2-0.1,0.2-0.2c0.1-0.1,0.1-0.1,0.1-0.2c0-0.1,0-0.2,0-0.3s0-0.2,0-0.3
	s-0.1-0.2-0.1-0.2c-0.1-0.1-0.1-0.1-0.2-0.1s-0.2-0.1-0.3-0.1s-0.2,0-0.3,0.1c-0.1,0-0.2,0.1-0.2,0.1c-0.1,0.1-0.1,0.1-0.1,0.2
	c0,0.1,0,0.2,0,0.3s0,0.2,0,0.3s0.1,0.2,0.1,0.2c0.1,0.1,0.1,0.1,0.2,0.2C5.8,153.7,5.9,153.7,6,153.7z M6,150.1
	c-0.1,0-0.2,0-0.3,0.1c-0.1,0-0.1,0.1-0.2,0.1c0,0.1-0.1,0.1-0.1,0.2c0,0.1,0,0.2,0,0.2c0,0.1,0,0.2,0,0.3s0,0.2,0.1,0.2
	c0,0.1,0.1,0.1,0.2,0.2c0.1,0,0.2,0.1,0.3,0.1c0.1,0,0.2,0,0.3-0.1c0.1,0,0.1-0.1,0.2-0.2c0-0.1,0.1-0.1,0.1-0.2c0-0.1,0-0.2,0-0.3
	s0-0.2,0-0.2s-0.1-0.1-0.1-0.2c0-0.1-0.1-0.1-0.2-0.1C6.2,150.2,6.1,150.1,6,150.1z M7,151.8c0.2,0.1,0.3,0.1,0.4,0.2
	c0.1,0.1,0.2,0.2,0.3,0.3c0.1,0.1,0.1,0.2,0.2,0.3c0,0.1,0,0.3,0,0.4c0,0.2,0,0.4-0.1,0.6c-0.1,0.2-0.2,0.3-0.4,0.5
	c-0.2,0.1-0.3,0.2-0.6,0.3c-0.2,0.1-0.5,0.1-0.7,0.1c-0.3,0-0.5,0-0.7-0.1s-0.4-0.2-0.6-0.3s-0.3-0.3-0.4-0.5s-0.1-0.4-0.1-0.6
	c0-0.1,0-0.3,0-0.4c0-0.1,0.1-0.2,0.2-0.3s0.2-0.2,0.3-0.3c0.1-0.1,0.2-0.1,0.4-0.2c-0.2-0.1-0.4-0.3-0.5-0.4
	c-0.1-0.2-0.2-0.4-0.2-0.7c0-0.2,0-0.4,0.1-0.5c0.1-0.2,0.2-0.3,0.3-0.4c0.1-0.1,0.3-0.2,0.5-0.3s0.4-0.1,0.7-0.1
	c0.2,0,0.5,0,0.7,0.1s0.4,0.2,0.5,0.3s0.3,0.3,0.3,0.4c0.1,0.2,0.1,0.4,0.1,0.5c0,0.3-0.1,0.5-0.2,0.7C7.4,151.6,7.2,151.7,7,151.8z
	"/>
<path class="st0" d="M1.5,164.4h9c0.6,0,1,0.4,1,1v9c0,0.6-0.4,1-1,1h-9c-0.6,0-1-0.4-1-1v-9C0.5,164.8,0.9,164.4,1.5,164.4z"/>
<path d="M5.3,169c0,0.5,0.2,0.8,0.7,0.8c0.2,0,0.4-0.1,0.5-0.2c0.1-0.1,0.2-0.3,0.2-0.6c0-0.1,0-0.2-0.1-0.3c0-0.1-0.1-0.2-0.2-0.2
	c-0.1-0.1-0.1-0.1-0.2-0.1s-0.2,0-0.3,0c-0.1,0-0.2,0-0.3,0.1c-0.1,0-0.2,0.1-0.2,0.2c-0.1,0.1-0.1,0.1-0.1,0.2
	C5.3,168.8,5.3,168.9,5.3,169z M6.1,170.6l0.1-0.1l0.1-0.1c-0.2,0.1-0.5,0.2-0.7,0.2s-0.3,0-0.5-0.1s-0.3-0.2-0.5-0.3
	c-0.1-0.1-0.2-0.3-0.3-0.5c-0.1-0.2-0.1-0.4-0.1-0.7c0-0.2,0-0.4,0.1-0.7c0.1-0.2,0.2-0.4,0.4-0.5c0.2-0.2,0.3-0.3,0.6-0.4
	c0.2-0.1,0.5-0.1,0.7-0.1c0.3,0,0.5,0,0.7,0.1s0.4,0.2,0.5,0.4c0.2,0.2,0.3,0.3,0.3,0.5c0.1,0.2,0.1,0.4,0.1,0.7s-0.1,0.6-0.2,0.9
	c-0.1,0.3-0.2,0.5-0.4,0.7l-1.1,1.6c0,0.1-0.1,0.1-0.2,0.2c-0.1,0-0.2,0.1-0.3,0.1h-1L6.1,170.6z"/>
<path class="st0" d="M1.5,182.4h9c0.6,0,1,0.4,1,1v9c0,0.6-0.4,1-1,1h-9c-0.6,0-1-0.4-1-1v-9C0.5,182.8,0.9,182.4,1.5,182.4z"/>
<path d="M5.7,189.7v0.8H2.8v-0.8h1v-2.6c0-0.1,0-0.1,0-0.2c0-0.1,0-0.1,0-0.2l-0.6,0.5c-0.1,0-0.1,0.1-0.2,0.1H2.9H2.8
	c0,0-0.1,0-0.1-0.1l-0.3-0.5l1.6-1.3h0.9v4.3H5.7z M9.9,187.9c0,0.4,0,0.8-0.1,1.2c-0.1,0.3-0.2,0.6-0.4,0.8s-0.4,0.4-0.6,0.5
	c-0.2,0.1-0.5,0.2-0.8,0.2s-0.5-0.1-0.8-0.2c-0.2-0.1-0.4-0.3-0.6-0.5s-0.3-0.5-0.4-0.8s-0.1-0.7-0.1-1.2c0-0.4,0-0.8,0.1-1.2
	c0.1-0.3,0.2-0.6,0.4-0.8c0.2-0.2,0.4-0.4,0.6-0.5s0.5-0.2,0.8-0.2s0.5,0.1,0.8,0.2c0.2,0.1,0.4,0.3,0.6,0.5
	c0.2,0.2,0.3,0.5,0.4,0.8C9.8,187.1,9.9,187.5,9.9,187.9z M8.7,187.9c0-0.4,0-0.6-0.1-0.9c0-0.2-0.1-0.4-0.2-0.5
	c-0.1-0.1-0.2-0.2-0.2-0.3c-0.1,0-0.2-0.1-0.3-0.1c-0.1,0-0.2,0-0.3,0.1c-0.1,0-0.2,0.1-0.2,0.3c-0.1,0.1-0.1,0.3-0.2,0.5
	c0,0.2-0.1,0.5-0.1,0.9s0,0.6,0.1,0.9c0,0.2,0.1,0.4,0.2,0.5s0.2,0.2,0.2,0.3c0.1,0,0.2,0.1,0.3,0.1c0.1,0,0.2,0,0.3-0.1
	c0.1,0,0.2-0.1,0.2-0.3c0.1-0.1,0.1-0.3,0.2-0.5C8.7,188.6,8.7,188.3,8.7,187.9z"/>
<path class="st0" d="M1.5,200.4h9c0.6,0,1,0.4,1,1v9c0,0.6-0.4,1-1,1h-9c-0.6,0-1-0.4-1-1v-9C0.5,200.8,0.9,200.4,1.5,200.4z"/>
<path d="M5.7,207.7v0.8H2.8v-0.8h1v-2.6c0-0.1,0-0.1,0-0.2c0-0.1,0-0.1,0-0.2l-0.6,0.5c-0.1,0-0.1,0.1-0.2,0.1H2.9H2.8
	c0,0-0.1,0-0.1-0.1l-0.3-0.5l1.6-1.3h0.9v4.3H5.7z M9.6,207.7v0.8H6.7v-0.8h1v-2.6c0-0.1,0-0.1,0-0.2c0-0.1,0-0.1,0-0.2l-0.6,0.5
	c-0.1,0-0.1,0.1-0.2,0.1H6.8H6.7c0,0-0.1,0-0.1-0.1l-0.3-0.5l1.6-1.3h0.9v4.3H9.6z"/>
<path class="st0" d="M1.5,218.4h9c0.6,0,1,0.4,1,1v9c0,0.6-0.4,1-1,1h-9c-0.6,0-1-0.4-1-1v-9C0.5,218.8,0.9,218.4,1.5,218.4z"/>
<path d="M5.7,225.7v0.8H2.8v-0.8h1v-2.6c0-0.1,0-0.1,0-0.2c0-0.1,0-0.1,0-0.2l-0.6,0.5c-0.1,0-0.1,0.1-0.2,0.1H2.9H2.8
	c0,0-0.1,0-0.1-0.1l-0.3-0.5l1.6-1.3h0.9v4.3H5.7z M9.4,225.5c0.1,0,0.2,0,0.3,0.1s0.1,0.1,0.1,0.3v0.6H6.2v-0.4c0-0.1,0-0.1,0-0.2
	s0.1-0.1,0.1-0.2l1.5-1.5c0.1-0.1,0.2-0.2,0.3-0.4c0.1-0.1,0.2-0.2,0.2-0.3c0.1-0.1,0.1-0.2,0.1-0.3s0-0.2,0-0.4s0-0.4-0.1-0.5
	s-0.2-0.2-0.4-0.2c-0.2,0-0.3,0-0.4,0.1s-0.2,0.2-0.2,0.3s-0.1,0.2-0.2,0.3c-0.1,0-0.2,0.1-0.3,0l-0.6-0.1c0-0.3,0.1-0.5,0.2-0.7
	s0.2-0.3,0.4-0.5c0.2-0.1,0.3-0.2,0.5-0.3s0.4-0.1,0.7-0.1c0.3,0,0.5,0,0.7,0.1s0.4,0.2,0.5,0.3s0.3,0.3,0.3,0.5
	c0.1,0.2,0.1,0.4,0.1,0.6c0,0.2,0,0.4-0.1,0.5c-0.1,0.2-0.1,0.3-0.2,0.5c-0.1,0.1-0.2,0.3-0.3,0.4c-0.1,0.1-0.2,0.3-0.4,0.4l-1,1
	c0.1,0,0.3-0.1,0.4-0.1s0.2,0,0.4,0h1V225.5z"/>
<path class="st0" d="M1.5,236.4h9c0.6,0,1,0.4,1,1v9c0,0.6-0.4,1-1,1h-9c-0.6,0-1-0.4-1-1v-9C0.5,236.8,0.9,236.4,1.5,236.4z"/>
<path d="M5.7,243.7v0.8H2.8v-0.8h1v-2.6c0-0.1,0-0.1,0-0.2c0-0.1,0-0.1,0-0.2l-0.6,0.5c-0.1,0-0.1,0.1-0.2,0.1H2.9H2.8
	c0,0-0.1,0-0.1-0.1l-0.3-0.5l1.6-1.3h0.9v4.3H5.7z M6.3,240.9c0-0.3,0.1-0.5,0.2-0.7s0.2-0.3,0.4-0.5c0.2-0.1,0.3-0.2,0.5-0.3
	s0.4-0.1,0.7-0.1s0.5,0,0.7,0.1s0.4,0.2,0.5,0.3s0.2,0.3,0.3,0.4c0.1,0.2,0.1,0.3,0.1,0.5s0,0.3,0,0.4c0,0.1-0.1,0.2-0.1,0.3
	c-0.1,0.1-0.1,0.2-0.2,0.2c-0.1,0.1-0.2,0.1-0.3,0.2c0.6,0.2,0.8,0.6,0.8,1.2c0,0.3,0,0.5-0.1,0.7s-0.2,0.4-0.4,0.5
	s-0.4,0.2-0.6,0.3c-0.2,0.1-0.4,0.1-0.7,0.1c-0.2,0-0.5,0-0.6-0.1c-0.2-0.1-0.4-0.1-0.5-0.2c-0.1-0.1-0.3-0.3-0.4-0.4
	c-0.1-0.2-0.2-0.4-0.3-0.6l0.5-0.2c0.1,0,0.2-0.1,0.4,0c0.1,0,0.2,0.1,0.2,0.2c0.1,0.2,0.2,0.3,0.3,0.4c0.1,0.1,0.3,0.1,0.4,0.1
	s0.2,0,0.3-0.1c0.1,0,0.2-0.1,0.2-0.2c0.1-0.1,0.1-0.1,0.1-0.2s0-0.2,0-0.2c0-0.1,0-0.2,0-0.3s-0.1-0.2-0.1-0.2
	c-0.1-0.1-0.2-0.1-0.3-0.1s-0.3-0.1-0.6-0.1v-0.7c0.2,0,0.4,0,0.5,0s0.2-0.1,0.3-0.1c0.1-0.1,0.1-0.1,0.1-0.2c0-0.1,0-0.2,0-0.3
	c0-0.2,0-0.4-0.1-0.5s-0.2-0.2-0.4-0.2s-0.3,0-0.4,0.1s-0.2,0.2-0.2,0.3s-0.1,0.2-0.2,0.3c-0.1,0-0.2,0.1-0.3,0L6.3,240.9z"/>
<path class="st0" d="M1.5,254.4h9c0.6,0,1,0.4,1,1v9c0,0.6-0.4,1-1,1h-9c-0.6,0-1-0.4-1-1v-9C0.5,254.8,0.9,254.4,1.5,254.4z"/>
<path d="M5.7,261.7v0.8H2.8v-0.8h1v-2.6c0-0.1,0-0.1,0-0.2s0-0.1,0-0.2l-0.6,0.5c-0.1,0-0.1,0.1-0.2,0.1H2.9H2.8c0,0-0.1,0-0.1-0.1
	l-0.3-0.5l1.6-1.3h0.9v4.3L5.7,261.7L5.7,261.7z M8.4,260.5v-1.3c0-0.1,0-0.2,0-0.3c0-0.1,0-0.2,0-0.3l-1.3,1.9L8.4,260.5L8.4,260.5
	z M9.9,260.5v0.6c0,0.1,0,0.1-0.1,0.1c0,0-0.1,0.1-0.2,0.1H9.3v1.2H8.4v-1.2H6.3c-0.1,0-0.1,0-0.2-0.1C6,261.2,6,261.1,6,261
	l-0.1-0.5l2.4-3.2h1v3.1h0.6V260.5z"/>
<path class="st0" d="M1.5,272.4h9c0.6,0,1,0.4,1,1v9c0,0.6-0.4,1-1,1h-9c-0.6,0-1-0.4-1-1v-9C0.5,272.8,0.9,272.4,1.5,272.4z"/>
<path d="M5.7,279.7v0.8H2.8v-0.8h1v-2.6c0-0.1,0-0.1,0-0.2s0-0.1,0-0.2l-0.6,0.5c-0.1,0-0.1,0.1-0.2,0.1H2.9H2.8c0,0-0.1,0-0.1-0.1
	l-0.3-0.5l1.6-1.3h0.9v4.3L5.7,279.7L5.7,279.7z M7.5,277.2c0.1,0,0.2,0,0.3,0c0.1,0,0.2,0,0.3,0c0.3,0,0.5,0,0.7,0.1
	s0.4,0.2,0.5,0.3c0.1,0.1,0.2,0.3,0.3,0.5s0.1,0.4,0.1,0.6c0,0.3,0,0.5-0.1,0.7s-0.2,0.4-0.4,0.6s-0.4,0.3-0.6,0.4
	c-0.2,0.1-0.5,0.1-0.8,0.1c-0.2,0-0.3,0-0.5-0.1c-0.1,0-0.3-0.1-0.4-0.1c-0.1-0.1-0.3-0.1-0.4-0.2s-0.2-0.2-0.3-0.3l0.3-0.4l0.1-0.1
	c0,0,0.1,0,0.2,0s0.1,0,0.2,0.1c0.1,0,0.1,0.1,0.2,0.1s0.2,0.1,0.3,0.1c0.1,0,0.2,0.1,0.4,0.1c0.2,0,0.3,0,0.4-0.1
	c0.1,0,0.2-0.1,0.2-0.2c0.1-0.1,0.1-0.2,0.1-0.3c0-0.1,0-0.2,0-0.4c0-0.2-0.1-0.4-0.2-0.6c-0.1-0.1-0.3-0.2-0.6-0.2
	c-0.2,0-0.5,0-0.7,0.1l-0.6,0l0.4-2.6h2.6v0.4c0,0.1,0,0.1,0,0.2s-0.1,0.1-0.1,0.2c0,0-0.1,0.1-0.2,0.1c-0.1,0-0.2,0-0.3,0H7.6
	L7.5,277.2z"/>
<path class="st0" d="M1.5,290.4h9c0.6,0,1,0.4,1,1v9c0,0.6-0.4,1-1,1h-9c-0.6,0-1-0.4-1-1v-9C0.5,290.8,0.9,290.4,1.5,290.4z"/>
<path d="M5.7,297.7v0.8H2.8v-0.8h1v-2.6c0-0.1,0-0.1,0-0.2s0-0.1,0-0.2l-0.6,0.5c-0.1,0-0.1,0.1-0.2,0.1H2.9H2.8c0,0-0.1,0-0.1-0.1
	l-0.3-0.5l1.6-1.3h0.9v4.3L5.7,297.7L5.7,297.7z M8,297.7c0.1,0,0.2,0,0.3-0.1c0.1,0,0.2-0.1,0.3-0.2s0.1-0.2,0.2-0.3
	c0-0.1,0.1-0.2,0.1-0.3c0-0.1,0-0.2-0.1-0.4c0-0.1-0.1-0.2-0.2-0.3c-0.1-0.1-0.2-0.1-0.3-0.2c-0.1,0-0.2-0.1-0.3-0.1
	c-0.1,0-0.2,0-0.3,0.1c-0.1,0-0.2,0.1-0.2,0.2c-0.1,0.1-0.1,0.2-0.2,0.3c0,0.1-0.1,0.2-0.1,0.3s0,0.2,0,0.3c0,0.1,0.1,0.2,0.1,0.3
	c0.1,0.1,0.1,0.1,0.2,0.2C7.7,297.7,7.8,297.7,8,297.7z M7.8,295.4c0.2-0.1,0.3-0.1,0.5-0.1s0.4,0,0.5,0.1c0.2,0.1,0.3,0.2,0.5,0.3
	c0.1,0.1,0.3,0.3,0.3,0.5c0.1,0.2,0.1,0.4,0.1,0.7c0,0.2,0,0.5-0.1,0.7s-0.2,0.4-0.4,0.6s-0.4,0.3-0.6,0.4c-0.2,0.1-0.5,0.1-0.8,0.1
	s-0.5,0-0.8-0.1c-0.2-0.1-0.4-0.2-0.6-0.4c-0.2-0.2-0.3-0.4-0.4-0.6s-0.1-0.5-0.1-0.7c0-0.5,0.2-1,0.6-1.5l1.1-1.6
	c0.1-0.1,0.1-0.1,0.2-0.2c0.1,0,0.2-0.1,0.3-0.1h1l-1.5,1.8L7.8,295.4z"/>
</svg>
