<?xml version="1.0" encoding="utf-8"?>
<!-- Generator: Adobe Illustrator 23.0.0, SVG Export Plug-In . SVG Version: 6.00 Build 0)  -->
<svg version="1.1" id="Layer_1" xmlns="http://www.w3.org/2000/svg" xmlns:xlink="http://www.w3.org/1999/xlink" x="0px" y="0px"
	 viewBox="0 0 48 282" style="enable-background:new 0 0 48 282;" xml:space="preserve">
<style type="text/css">
	.st0{opacity:0.35;}
	.st1{opacity:0.33;fill:none;stroke:#000000;}
	.st2{fill:#2B76BF;}
	.st3{opacity:0.1;}
	.st4{display:none;fill:#EEEEEE;}
	.st5{display:none;fill-rule:evenodd;clip-rule:evenodd;fill:#EEEEEE;}
	.st6{display:none;fill:none;stroke:#EEEEEE;}
	.st7{display:none;}
	.st8{display:none;fill-rule:evenodd;clip-rule:evenodd;fill:#1F1F1F;}
	.st9{display:none;opacity:0.1;}
	.st10{display:inline;fill:#333333;stroke:#333333;stroke-miterlimit:10;}
	.st11{display:inline;fill-rule:evenodd;clip-rule:evenodd;fill:#333333;stroke:#333333;stroke-miterlimit:10;}
	.st12{display:inline;fill:#333333;stroke:#333333;}
</style>
<path class="st0" d="M8,229.5c0.6,0,1,0.4,1,1v47c0,0.6-0.4,1-1,1l0,0c-0.6,0-1-0.4-1-1v-47C7,229.9,7.4,229.5,8,229.5L8,229.5z"/>
<path class="st1" d="M24,229.5c0.6,0,1,0.4,1,1v47c0,0.6-0.4,1-1,1l0,0c-0.6,0-1-0.4-1-1v-47C23,229.9,23.4,229.5,24,229.5L24,229.5
	z"/>
<path class="st2" d="M40,229.5c0.6,0,1,0.4,1,1v47c0,0.6-0.4,1-1,1l0,0c-0.6,0-1-0.4-1-1v-47C39,229.9,39.4,229.5,40,229.5L40,229.5
	z"/>
<g class="st3">
	<path class="st4" d="M5,198.5v1h2v-1H5z"/>
	<path class="st4" d="M10,198.5v1h2v-1H10z"/>
	<path class="st4" d="M5,159.5v1h2v-1H5z"/>
	<path class="st4" d="M10,159.5v1h2v-1H10z"/>
	<path class="st5" d="M8.5,155.5c0.3,0,0.5,0.2,0.5,0.5v47c0,0.3-0.2,0.5-0.5,0.5S8,203.3,8,203v-47C8,155.7,8.2,155.5,8.5,155.5z"
		/>
	<path class="st6" d="M8.5,155c0.6,0,1,0.4,1,1v47c0,0.6-0.4,1-1,1l0,0c-0.6,0-1-0.4-1-1v-47C7.5,155.4,7.9,155,8.5,155L8.5,155z"/>
</g>
<path class="st7" d="M4.5,198v1h2v-1H4.5z"/>
<path class="st7" d="M9.4,197.6v0.7H11v-0.7H9.4z"/>
<path class="st7" d="M4.5,159v1h2v-1H4.5z"/>
<path class="st7" d="M9.5,159v1h2v-1H9.5z"/>
<path class="st8" d="M8,155c0.3,0,0.5,0.2,0.5,0.5v47c0,0.3-0.2,0.5-0.5,0.5s-0.5-0.2-0.5-0.5v-47C7.5,155.2,7.7,155,8,155z"/>
<path class="st0" d="M8,154.5c0.6,0,1,0.4,1,1v47c0,0.6-0.4,1-1,1l0,0c-0.6,0-1-0.4-1-1v-47C7,154.9,7.4,154.5,8,154.5L8,154.5z"/>
<path class="st1" d="M24,154.5c0.6,0,1,0.4,1,1v47c0,0.6-0.4,1-1,1l0,0c-0.6,0-1-0.4-1-1v-47C23,154.9,23.4,154.5,24,154.5L24,154.5
	z"/>
<path class="st2" d="M40,154.5c0.6,0,1,0.4,1,1v47c0,0.6-0.4,1-1,1l0,0c-0.6,0-1-0.4-1-1v-47C39,154.9,39.4,154.5,40,154.5L40,154.5
	z"/>
<g class="st9">
	<path class="st10" d="M5,65.5v1h2v-1H5z"/>
	<path class="st10" d="M10,65.5v1h2v-1H10z"/>
	<path class="st10" d="M5,9.5v1h2v-1H5z"/>
	<path class="st10" d="M10,9.5v1h2v-1H10z"/>
	<path class="st11" d="M8.5,5.5C8.8,5.5,9,5.7,9,6v64c0,0.3-0.2,0.5-0.5,0.5S8,70.3,8,70V6C8,5.7,8.2,5.5,8.5,5.5z"/>
	<path class="st12" d="M8.5,5c0.6,0,1,0.4,1,1v64c0,0.6-0.4,1-1,1l0,0c-0.6,0-1-0.4-1-1V6C7.5,5.4,7.9,5,8.5,5L8.5,5z"/>
</g>
<path class="st7" d="M4.5,65v1h2v-1H4.5z"/>
<path class="st7" d="M9.5,65v1h2v-1H9.5z"/>
<path class="st7" d="M4.5,9v1h2V9H4.5z"/>
<path class="st7" d="M9.5,9v1h2V9H9.5z"/>
<path class="st8" d="M8,5c0.3,0,0.5,0.2,0.5,0.5v64C8.5,69.8,8.3,70,8,70s-0.5-0.2-0.5-0.5v-64C7.5,5.2,7.7,5,8,5z"/>
<path class="st0" d="M8,4.5c0.6,0,1,0.4,1,1v64c0,0.6-0.4,1-1,1l0,0c-0.6,0-1-0.4-1-1v-64C7,4.9,7.4,4.5,8,4.5L8,4.5z"/>
<path class="st1" d="M24,4.5c0.6,0,1,0.4,1,1v64c0,0.6-0.4,1-1,1l0,0c-0.6,0-1-0.4-1-1v-64C23,4.9,23.4,4.5,24,4.5L24,4.5z"/>
<path class="st2" d="M40,4.5c0.6,0,1,0.4,1,1v64c0,0.6-0.4,1-1,1l0,0c-0.6,0-1-0.4-1-1v-64C39,4.9,39.4,4.5,40,4.5L40,4.5z"/>
<g class="st3">
	<path class="st4" d="M5,140.5v1h2v-1H5z"/>
	<path class="st4" d="M10,140.5v1h2v-1H10z"/>
	<path class="st4" d="M5,84.5v1h2v-1H5z"/>
	<path class="st4" d="M10,84.5v1h2v-1H10z"/>
	<path class="st5" d="M8.5,80.5C8.8,80.5,9,80.7,9,81v64c0,0.3-0.2,0.5-0.5,0.5S8,145.3,8,145V81C8,80.7,8.2,80.5,8.5,80.5z"/>
	<path class="st6" d="M8.5,80c0.6,0,1,0.4,1,1v64c0,0.6-0.4,1-1,1l0,0c-0.6,0-1-0.4-1-1V81C7.5,80.4,7.9,80,8.5,80L8.5,80z"/>
</g>
<path class="st7" d="M5,113v-1h1.5v1H5z"/>
<path class="st7" d="M9.5,113v-1H11v1H9.5z"/>
<path class="st7" d="M2.5,85v-1h2v1H2.5z"/>
<path class="st7" d="M11.5,85v-1h2v1H11.5z"/>
<path class="st7" d="M2.5,141v-1h2v1H2.5z"/>
<path class="st7" d="M11.5,141v-1h2v1H11.5z"/>
<path class="st7" d="M4.5,140v1h2v-1H4.5z"/>
<path class="st7" d="M9.5,140v1h2v-1H9.5z"/>
<path class="st7" d="M5,83.6v0.7h1.6v-0.7H5z"/>
<path class="st7" d="M9.4,83.6v0.7H11v-0.7H9.4z"/>
<path class="st8" d="M8,80c0.3,0,0.5,0.2,0.5,0.5v64c0,0.3-0.2,0.5-0.5,0.5s-0.5-0.2-0.5-0.5v-64C7.5,80.2,7.7,80,8,80z"/>
<path class="st0" d="M8,79.5c0.6,0,1,0.4,1,1v64c0,0.6-0.4,1-1,1l0,0c-0.6,0-1-0.4-1-1v-64C7,79.9,7.4,79.5,8,79.5L8,79.5z"/>
<path class="st1" d="M24,79.5c0.6,0,1,0.4,1,1v64c0,0.6-0.4,1-1,1l0,0c-0.6,0-1-0.4-1-1v-64C23,79.9,23.4,79.5,24,79.5L24,79.5z"/>
<path class="st2" d="M40,79.5c0.6,0,1,0.4,1,1v64c0,0.6-0.4,1-1,1l0,0c-0.6,0-1-0.4-1-1v-64C39,79.9,39.4,79.5,40,79.5L40,79.5z"/>
</svg>
