<?xml version="1.0" encoding="utf-8"?>
<!-- Generator: Adobe Illustrator 23.0.0, SVG Export Plug-In . SVG Version: 6.00 Build 0)  -->
<svg version="1.1" id="Layer_1" xmlns="http://www.w3.org/2000/svg" xmlns:xlink="http://www.w3.org/1999/xlink" x="0px" y="0px"
	 viewBox="0 0 12 34" style="enable-background:new 0 0 12 34;" xml:space="preserve">
<style type="text/css">
	.st0{fill:#FF9300;}
	.st1{fill:none;stroke:#FF9300;}
	.st2{opacity:0.66;}
	.st3{fill:#B4B4B4;}
</style>
<path class="st0" d="M1.5,21.5c0-1.1,0.9-2,2-2h5c1.1,0,2,0.9,2,2v8c0,1.1-0.9,2-2,2h-5c-1.1,0-2-0.9-2-2V21.5z"/>
<path class="st0" d="M4,21.5h4c0.3,0,0.5,0.2,0.5,0.5v7c0,0.3-0.2,0.5-0.5,0.5H4c-0.3,0-0.5-0.2-0.5-0.5v-7
	C3.5,21.7,3.7,21.5,4,21.5z"/>
<path class="st1" d="M4,21.5h4c0.3,0,0.5,0.2,0.5,0.5v7c0,0.3-0.2,0.5-0.5,0.5H4c-0.3,0-0.5-0.2-0.5-0.5v-7
	C3.5,21.7,3.7,21.5,4,21.5z"/>
<path d="M6.5,28h-1v-2h-2v-1h2v-2h1v2h2v1h-2V28z"/>
<path class="st2" d="M1.5,3.5c0-1.1,0.9-2,2-2h5c1.1,0,2,0.9,2,2v8c0,1.1-0.9,2-2,2h-5c-1.1,0-2-0.9-2-2V3.5z"/>
<path class="st3" d="M6.5,10h-1V8h-2V7h2V5h1v2h2v1h-2V10z"/>
</svg>
