<?xml version="1.0" encoding="utf-8"?>
<!-- Generator: Adobe Illustrator 23.0.0, SVG Export Plug-In . SVG Version: 6.00 Build 0)  -->
<svg version="1.1" id="Layer_1" xmlns="http://www.w3.org/2000/svg" xmlns:xlink="http://www.w3.org/1999/xlink" x="0px" y="0px"
	 viewBox="0 0 11 11" style="enable-background:new 0 0 11 11;" xml:space="preserve">
<style type="text/css">
	.st0{opacity:0.5;}
	.st1{fill-rule:evenodd;clip-rule:evenodd;fill:#B4B4B4;}
</style>
<path class="st0" d="M0,2.2C0,1,1,0,2.2,0h6.6C10,0,11,1,11,2.2v6.6C11,10,10,11,8.8,11H2.2C1,11,0,10,0,8.8V2.2z"/>
<path class="st1" d="M3,3l5,0l0,1L3,4L3,3z M8,5L3,5l0,1l5,0L8,5z M3,7l5,0l0,1L3,8L3,7z"/>
</svg>
