<?xml version="1.0" encoding="utf-8"?>
<!-- Generator: Adobe Illustrator 23.0.0, SVG Export Plug-In . SVG Version: 6.00 Build 0)  -->
<svg version="1.1" id="Layer_1" xmlns="http://www.w3.org/2000/svg" xmlns:xlink="http://www.w3.org/1999/xlink" x="0px" y="0px"
	 viewBox="0 0 11 22" style="enable-background:new 0 0 11 22;" xml:space="preserve">
<style type="text/css">
	.st0{opacity:0.5;}
	.st1{fill-rule:evenodd;clip-rule:evenodd;fill:#B4B4B4;}
	.st2{fill:#399DFF;}
	.st3{fill:none;stroke:#399DFF;}
	.st4{fill-rule:evenodd;clip-rule:evenodd;fill:#FFFFFF;}
</style>
<path class="st0" d="M0,2.2C0,1,1,0,2.2,0h6.6C10,0,11,1,11,2.2v6.6C11,10,10,11,8.8,11H2.2C1,11,0,10,0,8.8V2.2z"/>
<path class="st1" d="M6.3,3L3.4,5.8l1.7,1.7L8,4.7L6.3,3z M4.6,8L3,6.4V8H4.6z"/>
<path class="st2" d="M0,13.2C0,12,1,11,2.2,11h6.6c1.2,0,2.2,1,2.2,2.2v6.6C11,21,10,22,8.8,22H2.2C1,22,0,21,0,19.8V13.2z"/>
<path class="st2" d="M2.8,13.5h5.5c0.1,0,0.3,0.1,0.3,0.3v5.5c0,0.1-0.1,0.3-0.3,0.3H2.8c-0.1,0-0.3-0.1-0.3-0.3v-5.5
	C2.5,13.6,2.6,13.5,2.8,13.5z"/>
<path class="st3" d="M2.8,13.5h5.5c0.1,0,0.3,0.1,0.3,0.3v5.5c0,0.1-0.1,0.3-0.3,0.3H2.8c-0.1,0-0.3-0.1-0.3-0.3v-5.5
	C2.5,13.6,2.6,13.5,2.8,13.5z"/>
<path class="st4" d="M6.3,14l-2.9,2.8l1.7,1.7L8,15.7L6.3,14z M4.6,19L3,17.4V19H4.6z"/>
</svg>
