<?xml version="1.0" encoding="utf-8"?>
<!-- Generator: Adobe Illustrator 23.0.0, SVG Export Plug-In . SVG Version: 6.00 Build 0)  -->
<svg version="1.1" id="Layer_1" xmlns="http://www.w3.org/2000/svg" xmlns:xlink="http://www.w3.org/1999/xlink" x="0px" y="0px"
	 viewBox="0 0 40 168" style="enable-background:new 0 0 40 168;" xml:space="preserve">
<style type="text/css">
	.st0{opacity:0.5;}
	.st1{opacity:0.66;fill:#FFFFFF;}
	.st2{opacity:0.75;}
	.st3{fill:none;}
	.st4{display:none;opacity:0.75;}
	.st5{display:inline;}
	.st6{display:none;}
</style>
<path class="st0" d="M0.5,2.5c0-1.1,0.9-2,2-2h35c1.1,0,2,0.9,2,2v37c0,1.1-0.9,2-2,2h-35c-1.1,0-2-0.9-2-2V2.5z"/>
<path class="st1" d="M3.5,2h33c0.6,0,1,0.4,1,1v6c0,0.6-0.4,1-1,1h-33c-0.6,0-1-0.4-1-1V3C2.5,2.4,2.9,2,3.5,2z"/>
<path class="st1" d="M3.5,2h33c0.6,0,1,0.4,1,1v6c0,0.6-0.4,1-1,1h-33c-0.6,0-1-0.4-1-1V3C2.5,2.4,2.9,2,3.5,2z"/>
<path d="M14,4.4c0,0.1-0.1,0.1-0.1,0.1h-0.1c-0.1,0-0.1,0-0.2,0c-0.1,0-0.1-0.1-0.2-0.1c-0.1,0-0.2-0.1-0.3-0.1s-0.2-0.1-0.3-0.1
	c-0.2,0-0.4,0-0.5,0.1s-0.2,0.2-0.2,0.4c0,0.1,0,0.2,0.1,0.3c0.1,0.1,0.2,0.1,0.3,0.2c0.1,0,0.2,0.1,0.4,0.1c0.1,0,0.3,0.1,0.4,0.1
	c0.1,0,0.3,0.1,0.4,0.2c0.1,0.1,0.3,0.2,0.4,0.3c0.1,0.1,0.2,0.2,0.3,0.4c0.1,0.1,0.1,0.3,0.1,0.5s0,0.5-0.1,0.7S14.2,7.9,14,8
	c-0.2,0.2-0.3,0.3-0.6,0.4c-0.2,0.1-0.5,0.1-0.8,0.1c-0.2,0-0.3,0-0.5,0s-0.3-0.1-0.5-0.1c-0.2-0.1-0.3-0.1-0.4-0.2
	C11,8.1,10.9,8,10.8,7.9l0.4-0.6l0.1-0.1c0,0,0.1,0,0.2,0c0.1,0,0.1,0,0.2,0.1c0.1,0,0.2,0.1,0.2,0.1c0.1,0.1,0.2,0.1,0.3,0.1
	s0.3,0.1,0.4,0.1c0.2,0,0.4,0,0.5-0.1s0.2-0.2,0.2-0.5c0-0.1,0-0.2-0.1-0.3c-0.1-0.1-0.2-0.1-0.3-0.2c-0.1,0-0.2-0.1-0.4-0.1
	c-0.1,0-0.3-0.1-0.4-0.1c-0.1,0-0.3-0.1-0.4-0.2c-0.1-0.1-0.3-0.2-0.4-0.3c-0.1-0.1-0.2-0.2-0.3-0.4c0.1-0.1,0-0.3,0-0.5
	s0-0.4,0.1-0.6s0.2-0.3,0.3-0.5c0.1-0.1,0.3-0.3,0.5-0.3c0.2-0.1,0.5-0.1,0.7-0.1s0.3,0,0.5,0c0.1,0,0.3,0.1,0.4,0.1
	c0.1,0,0.3,0.1,0.4,0.2c0.1,0.1,0.2,0.1,0.3,0.2L14,4.4z M16,4.9v3.6h-1.1V4.9H16z M16.1,3.9c0,0.1,0,0.2-0.1,0.2
	c0,0.1-0.1,0.1-0.1,0.2c-0.1,0.1-0.1,0.1-0.2,0.1c-0.1,0-0.2,0-0.3,0s-0.2,0-0.2,0c-0.1,0-0.1-0.1-0.2-0.1c-0.1-0.1-0.1-0.1-0.1-0.2
	s0-0.2,0-0.2c0-0.1,0-0.2,0-0.2c0-0.1,0.1-0.1,0.1-0.2c0.1-0.1,0.1-0.1,0.2-0.1s0.2,0,0.2,0c0.1,0,0.2,0,0.3,0s0.2,0.1,0.2,0.1
	C16,3.5,16,3.6,16,3.6S16.1,3.8,16.1,3.9z M17.6,5.3c0.1-0.1,0.1-0.1,0.2-0.2C17.9,5,18,5,18.1,4.9c0.1,0,0.2-0.1,0.3-0.1
	c0.1,0,0.2,0,0.3,0c0.2,0,0.4,0,0.5,0.1c0.2,0.1,0.3,0.2,0.4,0.3c0.1,0.1,0.2,0.3,0.2,0.4c0.1,0.2,0.1,0.4,0.1,0.5v2.3h-1.1V6.2
	c0-0.2,0-0.3-0.1-0.4s-0.2-0.2-0.4-0.2c-0.1,0-0.2,0-0.3,0.1c-0.1,0-0.2,0.1-0.3,0.2v2.6h-1.1V4.9h0.7c0.1,0,0.2,0.1,0.3,0.2V5.3z
	 M21.9,6.5c0.2,0,0.3,0,0.4-0.1s0.1-0.2,0.1-0.3c0-0.1,0-0.3-0.1-0.3c-0.1-0.1-0.2-0.1-0.4-0.1c-0.2,0-0.3,0-0.4,0.1
	S21.4,6,21.4,6.1s0,0.1,0,0.2s0.1,0.1,0.1,0.2c0,0,0.1,0.1,0.2,0.1C21.7,6.5,21.8,6.5,21.9,6.5z M22.7,8.6c0-0.1,0-0.1-0.1-0.2
	c-0.1,0-0.2-0.1-0.3-0.1c-0.1,0-0.3,0-0.4,0c-0.2,0-0.3,0-0.5,0c-0.1,0-0.1,0.1-0.2,0.2c0,0.1-0.1,0.1-0.1,0.2c0,0.1,0,0.1,0,0.1
	l0.1,0.1c0.1,0,0.1,0.1,0.2,0.1s0.2,0,0.4,0c0.2,0,0.3,0,0.4,0s0.2,0,0.2-0.1c0.1,0,0.1-0.1,0.1-0.1C22.7,8.7,22.7,8.7,22.7,8.6z
	 M23.8,5v0.4c0,0.1,0,0.1-0.1,0.1c0,0-0.1,0.1-0.2,0.1l-0.3,0.1c0,0.1,0,0.1,0,0.2s0,0.1,0,0.2c0,0.2,0,0.3-0.1,0.5
	C23,6.7,22.9,6.9,22.8,7s-0.3,0.2-0.5,0.2c-0.2,0.1-0.4,0.1-0.6,0.1c-0.1,0-0.1,0-0.2,0s-0.1,0-0.2,0s-0.1,0.1-0.1,0.2
	s0,0.1,0.1,0.1s0.2,0,0.3,0.1c0.1,0,0.2,0,0.4,0c0.1,0,0.3,0,0.4,0s0.3,0,0.4,0.1c0.1,0,0.3,0.1,0.4,0.1c0.1,0.1,0.2,0.2,0.3,0.3
	c0.1,0.1,0.1,0.3,0.1,0.4c0,0.2,0,0.3-0.1,0.5s-0.2,0.3-0.4,0.4s-0.3,0.2-0.6,0.3c-0.2,0.1-0.5,0.1-0.8,0.1s-0.5,0-0.7-0.1
	s-0.4-0.1-0.5-0.2c-0.1-0.1-0.2-0.2-0.3-0.3c-0.1-0.1-0.1-0.2-0.1-0.4s0-0.3,0.1-0.4c0.1-0.1,0.2-0.2,0.4-0.3
	c-0.1-0.1-0.2-0.1-0.2-0.2c-0.1-0.1-0.1-0.2-0.1-0.3c0-0.1,0-0.1,0-0.2s0-0.1,0.1-0.2c0-0.1,0.1-0.1,0.2-0.2C20.9,7,20.9,7,21,7
	c-0.2-0.1-0.3-0.2-0.4-0.4c-0.1-0.2-0.2-0.4-0.2-0.6s0-0.3,0.1-0.5c0.1-0.1,0.2-0.3,0.3-0.4C21,5,21.1,4.9,21.3,4.9
	c0.2-0.1,0.4-0.1,0.6-0.1c0.3,0,0.6,0.1,0.8,0.2H23.8z M25.2,3.3v5.2h-1.1V3.3H25.2z M28.1,6.2c0-0.1,0-0.2,0-0.3
	c0-0.1-0.1-0.2-0.1-0.2c0-0.1-0.1-0.1-0.2-0.2s-0.2-0.1-0.3-0.1c-0.2,0-0.4,0.1-0.5,0.2s-0.2,0.3-0.2,0.5L28.1,6.2L28.1,6.2z
	 M26.8,6.9c0,0.3,0.1,0.5,0.3,0.7c0.1,0.1,0.3,0.2,0.6,0.2c0.1,0,0.2,0,0.3,0c0.1,0,0.2-0.1,0.2-0.1c0.1,0,0.1-0.1,0.2-0.1
	s0.1,0,0.2,0s0.2,0,0.2,0.1l0.3,0.4c-0.1,0.1-0.2,0.2-0.4,0.3c-0.1,0.1-0.3,0.1-0.4,0.2c-0.1,0-0.3,0.1-0.4,0.1s-0.3,0-0.4,0
	c-0.3,0-0.5,0-0.7-0.1s-0.4-0.2-0.6-0.4s-0.3-0.4-0.4-0.6s-0.1-0.5-0.1-0.8c0-0.2,0-0.5,0.1-0.7s0.2-0.4,0.4-0.6
	c0.2-0.2,0.3-0.3,0.6-0.4C27,5,27.3,5,27.5,5s0.5,0,0.7,0.1s0.4,0.2,0.5,0.3C28.8,5.5,29,5.7,29,5.9c0.1,0.2,0.1,0.4,0.1,0.7
	c0,0.1,0,0.1,0,0.2s0,0.1,0,0.1S29.1,7,29,7h-0.1L26.8,6.9L26.8,6.9z"/>
<g class="st2">
	<rect x="2" y="10.5" class="st3" width="36" height="1"/>
</g>
<path class="st1" d="M8.2,15.5h0.2c0.2,0,0.3-0.1,0.4-0.2l1.1-1.7c0.1-0.1,0.1-0.1,0.2-0.2c0.1,0,0.2-0.1,0.3-0.1h1L10,15.5
	c-0.1,0.1-0.2,0.2-0.3,0.3c0.1,0,0.2,0.1,0.2,0.1c0,0.1,0.1,0.1,0.2,0.2l1.5,2.4h-1.1c-0.1,0-0.1,0-0.2,0h-0.1c0,0-0.1,0-0.1-0.1
	L10,18.3l-1.2-1.8c0-0.1-0.1-0.1-0.2-0.1c-0.1,0-0.1,0-0.3,0H8.2v2.2H7v-5.1h1.2V15.5z M13.7,16.2c0-0.1,0-0.2,0-0.3
	c0-0.1-0.1-0.2-0.1-0.2c0-0.1-0.1-0.1-0.2-0.2c-0.1,0-0.2-0.1-0.3-0.1c-0.2,0-0.4,0.1-0.5,0.2c-0.1,0.1-0.2,0.3-0.2,0.5h1.3V16.2z
	 M12.4,16.9c0,0.3,0.1,0.5,0.3,0.7c0.1,0.1,0.3,0.2,0.6,0.2c0.1,0,0.2,0,0.3,0s0.2-0.1,0.2-0.1c0.1,0,0.1-0.1,0.2-0.1
	c0.1,0,0.1,0,0.2,0c0.1,0,0.2,0,0.2,0.1l0.3,0.4c-0.1,0.1-0.2,0.2-0.4,0.3c-0.1,0.1-0.3,0.1-0.4,0.2c-0.1,0-0.3,0.1-0.4,0.1
	c-0.1,0-0.3,0-0.4,0c-0.3,0-0.5,0-0.7-0.1s-0.4-0.2-0.6-0.4c-0.2-0.2-0.3-0.4-0.4-0.6c-0.1-0.2-0.1-0.5-0.1-0.8c0-0.2,0-0.5,0.1-0.7
	c0.1-0.2,0.2-0.4,0.4-0.6c0.2-0.2,0.3-0.3,0.6-0.4c0.2-0.1,0.5-0.1,0.7-0.1s0.5,0,0.7,0.1s0.4,0.2,0.5,0.3s0.3,0.3,0.3,0.5
	c0.1,0.2,0.1,0.4,0.1,0.7c0,0.1,0,0.1,0,0.2s0,0.1,0,0.1s0,0.1-0.1,0.1h-0.1h-2.1C12.4,17,12.4,16.9,12.4,16.9z M18.5,14.9l-1.9,4.6
	c0,0.1-0.1,0.1-0.1,0.2c0,0-0.1,0.1-0.2,0.1h-0.8l0.7-1.5L14.8,15h1c0.1,0,0.1,0,0.2,0.1l0.1,0.1l0.6,1.6c0.1,0.1,0.1,0.3,0.1,0.4
	c0-0.1,0.1-0.1,0.1-0.2s0.1-0.1,0.1-0.2l0.5-1.6c0-0.1,0.1-0.1,0.1-0.1c0.1,0,0.1-0.1,0.2-0.1L18.5,14.9L18.5,14.9z M23,14.4
	c0,0.1-0.1,0.1-0.1,0.1h-0.1c-0.1,0-0.1,0-0.2,0s-0.1-0.1-0.2-0.1s-0.2-0.1-0.3-0.1c-0.1,0-0.2-0.1-0.3-0.1c-0.2,0-0.4,0-0.5,0.1
	s-0.2,0.2-0.2,0.4c0,0.1,0,0.2,0.1,0.3s0.2,0.1,0.3,0.2c0.1,0,0.2,0.1,0.4,0.1c0.1,0,0.3,0.1,0.4,0.1s0.3,0.1,0.4,0.2
	c0.1,0.1,0.3,0.2,0.4,0.3s0.2,0.2,0.3,0.4c0.1,0.1,0.1,0.3,0.1,0.5s0,0.5-0.1,0.7S23.2,17.9,23,18c-0.2,0.2-0.3,0.3-0.6,0.4
	c-0.2,0.1-0.5,0.1-0.8,0.1c-0.2,0-0.3,0-0.5,0s-0.3-0.1-0.5-0.1c-0.2-0.1-0.3-0.1-0.4-0.2s-0.3-0.2-0.4-0.3l0.4-0.6l0.1-0.1
	c0,0,0.1,0,0.2,0s0.1,0,0.2,0.1c0.1,0,0.2,0.1,0.2,0.1c0.1,0.1,0.2,0.1,0.3,0.1c0.1,0,0.3,0.1,0.4,0.1c0.2,0,0.4,0,0.5-0.1
	s0.2-0.2,0.2-0.5c0-0.1,0-0.2-0.1-0.3c-0.1-0.1-0.2-0.1-0.3-0.2c-0.1,0-0.2-0.1-0.4-0.1c-0.1,0-0.3-0.1-0.4-0.1s-0.3-0.1-0.4-0.2
	s-0.3-0.2-0.4-0.3s-0.2-0.2-0.3-0.4c0-0.1,0-0.3,0-0.5s0-0.4,0.1-0.6s0.2-0.3,0.3-0.5c0.1-0.1,0.3-0.3,0.5-0.3
	c0.2-0.1,0.5-0.1,0.7-0.1s0.3,0,0.5,0c0.1,0,0.3,0.1,0.4,0.1s0.3,0.1,0.4,0.2c0.1,0.1,0.2,0.1,0.3,0.2L23,14.4z M24.8,17.5
	c0.1,0.1,0.2,0.2,0.3,0.2c0.1,0,0.2,0.1,0.3,0.1c0.1,0,0.2,0,0.3-0.1s0.2-0.1,0.2-0.2c0.1-0.1,0.1-0.2,0.1-0.3s0.1-0.3,0.1-0.5
	s0-0.4,0-0.5S26,16,26,15.9s-0.1-0.1-0.2-0.2c-0.1,0-0.1-0.1-0.2-0.1c-0.2,0-0.3,0-0.4,0.1S25,15.8,24.9,16L24.8,17.5L24.8,17.5z
	 M24.8,15.3c0.1-0.2,0.3-0.3,0.5-0.4c0.2-0.1,0.4-0.1,0.6-0.1s0.4,0,0.5,0.1c0.2,0.1,0.3,0.2,0.4,0.4s0.2,0.4,0.3,0.6
	c0.1,0.2,0.1,0.5,0.1,0.8s0,0.5-0.1,0.8c-0.1,0.2-0.2,0.4-0.3,0.6c-0.1,0.2-0.3,0.3-0.5,0.4s-0.4,0.1-0.6,0.1s-0.3,0-0.5-0.1
	c-0.1-0.1-0.2-0.1-0.4-0.2v1.4h-1.1v-4.8h0.7c0.1,0,0.2,0.1,0.3,0.2L24.8,15.3z M28.8,13.3v5.2h-1.1v-5.2H28.8z M30.5,14.9v3.6h-1.1
	v-3.6H30.5z M30.6,13.9c0,0.1,0,0.2-0.1,0.2c0,0.1-0.1,0.1-0.1,0.2c-0.1,0.1-0.1,0.1-0.2,0.1s-0.2,0-0.3,0c-0.1,0-0.2,0-0.2,0
	c-0.1,0-0.1-0.1-0.2-0.1c-0.1-0.1-0.1-0.1-0.1-0.2c0-0.1,0-0.2,0-0.2c0-0.1,0-0.2,0-0.2c0-0.1,0.1-0.1,0.1-0.2
	c0.1-0.1,0.1-0.1,0.2-0.1s0.2,0,0.2,0c0.1,0,0.2,0,0.3,0c0.1,0,0.2,0.1,0.2,0.1c0.1,0.1,0.1,0.1,0.1,0.2
	C30.6,13.7,30.6,13.8,30.6,13.9z M32.4,18.6c-0.2,0-0.3,0-0.5-0.1c-0.1-0.1-0.2-0.1-0.3-0.2c-0.1-0.1-0.2-0.2-0.2-0.3
	c0-0.1-0.1-0.3-0.1-0.4v-1.9H31c-0.1,0-0.1,0-0.1-0.1c0,0-0.1-0.1-0.1-0.2V15l0.6-0.1l0.2-0.9c0-0.1,0.1-0.2,0.2-0.2h0.6v1.1h0.9
	v0.7h-0.9v1.8c0,0.1,0,0.2,0.1,0.2c0,0.1,0.1,0.1,0.2,0.1h0.1h0.1c0,0,0,0,0.1,0c0,0,0,0,0.1,0h0.1c0,0,0,0,0.1,0.1l0.3,0.5
	c-0.1,0.1-0.3,0.2-0.5,0.2C32.8,18.5,32.6,18.6,32.4,18.6z"/>
<g class="st2">
	<rect x="2" y="20.5" class="st3" width="36" height="1"/>
</g>
<path class="st1" d="M8.4,27.2L8.4,27.2c0.1,0,0.1,0,0.2,0.1L9,27.7c-0.2,0.3-0.5,0.5-0.8,0.6s-0.7,0.2-1.1,0.2s-0.7-0.1-1-0.2
	S5.5,28,5.3,27.8C5.1,27.6,5,27.3,4.8,27c-0.1-0.3-0.2-0.7-0.2-1c0-0.4,0.1-0.7,0.2-1s0.3-0.6,0.5-0.8c0.2-0.2,0.5-0.4,0.8-0.5
	s0.7-0.2,1-0.2c0.2,0,0.4,0,0.5,0.1c0.2,0,0.3,0.1,0.5,0.1c0.1,0.1,0.3,0.1,0.4,0.2c0.3-0.1,0.4,0,0.5,0.1l-0.4,0.5l-0.1,0.1H8.4
	H8.3c0,0-0.1,0-0.1-0.1l-0.1-0.1c0,0-0.1-0.1-0.2-0.1s-0.1-0.1-0.2-0.1s-0.2,0-0.3,0c-0.2,0-0.4,0-0.5,0.1c-0.2,0.1-0.3,0.2-0.4,0.3
	C6.1,24.9,6,25.1,6,25.3c-0.1,0.2-0.1,0.4-0.1,0.7c0,0.3,0,0.5,0.1,0.7s0.2,0.4,0.3,0.5c0.1,0.1,0.3,0.2,0.4,0.3
	c0.2,0.1,0.3,0.1,0.5,0.1c0.1,0,0.2,0,0.3,0c0.1,0,0.2,0,0.2-0.1c0.1,0,0.1-0.1,0.2-0.1s0.1-0.1,0.2-0.2c0,0,0.1,0,0.1-0.1
	C8.3,27.2,8.4,27.2,8.4,27.2z M10.4,25.2c0.1-0.1,0.3-0.2,0.4-0.3c0.2-0.1,0.3-0.1,0.5-0.1s0.4,0,0.5,0.1c0.2,0.1,0.3,0.2,0.4,0.3
	c0.1,0.1,0.2,0.3,0.2,0.4c0.1,0.2,0.1,0.4,0.1,0.5v2.3h-1.1v-2.3c0-0.2,0-0.3-0.1-0.4s-0.2-0.2-0.4-0.2c-0.1,0-0.2,0-0.3,0.1
	c-0.1,0-0.2,0.1-0.3,0.2v2.6h-1v-5.2h1.1C10.4,23.2,10.4,25.2,10.4,25.2z M15.1,27c-0.2,0-0.4,0-0.5,0.1c-0.1,0-0.3,0.1-0.3,0.1
	c-0.1,0-0.1,0.1-0.2,0.1c0,0.1,0,0.1,0,0.2s0,0.2,0.1,0.3c0.1,0,0.2,0.1,0.3,0.1s0.3,0,0.4-0.1c0.1,0,0.2-0.1,0.3-0.2V27H15.1z
	 M13.1,25.4c0.2-0.2,0.5-0.3,0.7-0.4c0.3-0.1,0.6-0.1,0.9-0.1c0.2,0,0.4,0,0.6,0.1c0.2,0.1,0.3,0.2,0.4,0.3c0.1,0.1,0.2,0.3,0.3,0.5
	s0.1,0.4,0.1,0.6v2.3h-0.5c-0.1,0-0.2,0-0.2,0c-0.1,0-0.1-0.1-0.1-0.2l-0.1-0.2c-0.1,0.1-0.2,0.1-0.3,0.2s-0.2,0.1-0.3,0.2
	c-0.1,0-0.2,0.1-0.3,0.1s-0.2,0-0.3,0c-0.2,0-0.3,0-0.5-0.1c-0.1,0-0.3-0.1-0.3-0.2c-0.1-0.1-0.2-0.2-0.2-0.3
	c-0.1-0.1-0.1-0.3-0.1-0.4s0-0.3,0.1-0.4s0.2-0.3,0.3-0.4c0.2-0.1,0.4-0.2,0.7-0.3c0.3-0.1,0.6-0.1,1-0.1v-0.2c0-0.2,0-0.4-0.1-0.5
	s-0.2-0.1-0.4-0.1c-0.1,0-0.2,0-0.3,0S14,25.9,14,25.9c-0.1,0-0.1,0.1-0.2,0.1c-0.1,0-0.1,0-0.2,0c-0.1,0-0.1,0-0.2-0.1
	c-0.1,0-0.1-0.1-0.1-0.1L13.1,25.4z M17.7,25.3c0.1-0.1,0.1-0.1,0.2-0.2s0.2-0.1,0.2-0.1c0.1,0,0.2-0.1,0.3-0.1c0.1,0,0.2,0,0.3,0
	c0.2,0,0.4,0,0.5,0.1c0.2,0.1,0.3,0.2,0.4,0.3c0.1,0.1,0.2,0.3,0.2,0.4C20,25.8,20,26,20,26.2v2.3h-1.1v-2.3c0-0.2,0-0.3-0.1-0.4
	s-0.2-0.2-0.4-0.2c-0.1,0-0.2,0-0.3,0.1c-0.1,0-0.2,0.1-0.3,0.2v2.6h-1.1v-3.6h0.7c0.1,0,0.2,0.1,0.3,0.2V25.3z M25.1,24.4
	c0,0.1-0.1,0.1-0.1,0.1h-0.1c-0.1,0-0.1,0-0.2,0s-0.1-0.1-0.2-0.1s-0.2-0.1-0.3-0.1c-0.1,0-0.2-0.1-0.3-0.1c-0.2,0-0.4,0-0.5,0.1
	s-0.2,0.2-0.2,0.4c0,0.1,0,0.2,0.1,0.3c0.1,0.1,0.2,0.1,0.3,0.2c0.1,0,0.2,0.1,0.4,0.1c0.1,0,0.3,0.1,0.4,0.1s0.3,0.1,0.4,0.2
	s0.3,0.2,0.4,0.3c0.1,0.1,0.2,0.2,0.3,0.4c0.1,0.1,0.1,0.3,0.1,0.5s0,0.5-0.1,0.7s-0.2,0.4-0.4,0.5c-0.2,0.2-0.3,0.3-0.6,0.4
	c-0.2,0.1-0.5,0.1-0.8,0.1c-0.2,0-0.3,0-0.5,0s-0.3-0.1-0.5-0.1c-0.2-0.1-0.3-0.1-0.4-0.2S22,28,21.9,27.9l0.4-0.6l0.1-0.1
	c0,0,0.1,0,0.2,0s0.1,0,0.2,0.1c0.1,0,0.2,0.1,0.2,0.1c0.1,0.1,0.2,0.1,0.3,0.1c0.1,0,0.3,0.1,0.4,0.1c0.2,0,0.4,0,0.5-0.1
	s0.2-0.2,0.2-0.5c0-0.1,0-0.2-0.1-0.3c-0.1-0.1-0.2-0.1-0.3-0.2c-0.1,0-0.2-0.1-0.4-0.1c-0.1,0-0.3-0.1-0.4-0.1s-0.3-0.1-0.4-0.2
	s-0.3-0.2-0.4-0.3c-0.1-0.1-0.2-0.2-0.3-0.4C22,25.2,22,25,22,24.8s0-0.4,0.1-0.6s0.2-0.3,0.3-0.5c0.1-0.1,0.3-0.3,0.5-0.3
	c0.2-0.1,0.5-0.1,0.7-0.1s0.3,0,0.5,0c0.1,0,0.3,0.1,0.4,0.1s0.3,0.1,0.4,0.2s0.2,0.1,0.3,0.2L25.1,24.4z M26.9,27.5
	c0.1,0.1,0.2,0.2,0.3,0.2c0.1,0,0.2,0.1,0.3,0.1c0.1,0,0.2,0,0.3-0.1s0.2-0.1,0.2-0.2c0.1-0.1,0.1-0.2,0.1-0.3s0.1-0.3,0.1-0.5
	s0-0.4,0-0.5s-0.1-0.2-0.1-0.3c0-0.1-0.1-0.1-0.2-0.2c-0.1,0-0.1-0.1-0.2-0.1c-0.2,0-0.3,0-0.4,0.1S27.1,25.8,27,26L26.9,27.5
	L26.9,27.5z M26.8,25.3c0.1-0.2,0.3-0.3,0.5-0.4s0.4-0.1,0.6-0.1s0.4,0,0.5,0.1c0.2,0.1,0.3,0.2,0.4,0.4c0.1,0.2,0.2,0.4,0.3,0.6
	c0.1,0.2,0.1,0.5,0.1,0.8s0,0.5-0.1,0.8c-0.1,0.2-0.2,0.4-0.3,0.6c-0.1,0.2-0.3,0.3-0.5,0.4s-0.4,0.1-0.6,0.1s-0.3,0-0.5-0.1
	c-0.1-0.1-0.2-0.1-0.4-0.2v1.4h-1.1v-4.8h0.7c0.1,0,0.2,0.1,0.3,0.2L26.8,25.3z M30.8,23.3v5.2h-1.1v-5.2H30.8z M32.6,24.9v3.6h-1.1
	v-3.6H32.6z M32.7,23.9c0,0.1,0,0.2-0.1,0.2c0,0.1-0.1,0.1-0.1,0.2c-0.1,0.1-0.1,0.1-0.2,0.1c-0.1,0-0.2,0-0.3,0c-0.1,0-0.2,0-0.2,0
	c-0.1,0-0.1-0.1-0.2-0.1c-0.1-0.1-0.1-0.1-0.1-0.2s0-0.2,0-0.2c0-0.1,0-0.2,0-0.2c0-0.1,0.1-0.1,0.1-0.2c0.1-0.1,0.1-0.1,0.2-0.1
	s0.2,0,0.2,0c0.1,0,0.2,0,0.3,0s0.2,0.1,0.2,0.1c0.1,0.1,0.1,0.1,0.1,0.2S32.7,23.8,32.7,23.9z M34.5,28.6c-0.2,0-0.3,0-0.5-0.1
	c-0.1-0.1-0.2-0.1-0.3-0.2s-0.2-0.2-0.2-0.3c0-0.1-0.1-0.3-0.1-0.4v-1.9h-0.3c-0.1,0-0.1,0-0.1-0.1c0,0-0.1-0.1-0.1-0.2V25l0.6-0.1
	l0.2-0.9c0-0.1,0.1-0.2,0.2-0.2h0.6v1.1h0.9v0.7h-0.9v1.8c0,0.1,0,0.2,0.1,0.2c0,0.1,0.1,0.1,0.2,0.1h0.1H35c0,0,0,0,0.1,0
	c0,0,0,0,0.1,0h0.1c0,0,0,0,0.1,0.1l0.3,0.5c-0.1,0.1-0.3,0.2-0.5,0.2C34.9,28.5,34.7,28.6,34.5,28.6z"/>
<g class="st2">
	<rect x="2" y="30.5" class="st3" width="36" height="1"/>
</g>
<path class="st1" d="M17.9,35.9c0,0.4-0.1,0.7-0.2,1s-0.3,0.6-0.5,0.8s-0.5,0.4-0.8,0.5s-0.7,0.2-1.1,0.2h-2v-5.1h2
	c0.4,0,0.8,0.1,1.1,0.2c0.3,0.1,0.6,0.3,0.8,0.5c0.2,0.2,0.4,0.5,0.5,0.8C17.9,35.2,17.9,35.6,17.9,35.9z M16.7,35.9
	c0-0.3,0-0.5-0.1-0.7s-0.2-0.4-0.3-0.5c-0.1-0.1-0.3-0.3-0.4-0.3c-0.2-0.1-0.4-0.1-0.6-0.1h-0.8v3.3h0.8c0.2,0,0.4,0,0.6-0.1
	s0.3-0.2,0.4-0.3s0.2-0.3,0.3-0.5C16.7,36.4,16.7,36.2,16.7,35.9z M21.6,34.9v3.6h-0.7c-0.1,0-0.2-0.1-0.3-0.2l-0.1-0.2
	c-0.1,0.1-0.1,0.1-0.2,0.2c-0.1,0.1-0.2,0.1-0.2,0.1c-0.1,0-0.2,0.1-0.3,0.1c-0.1,0-0.2,0-0.3,0c-0.2,0-0.4,0-0.5-0.1
	c-0.2-0.1-0.3-0.2-0.4-0.3s-0.2-0.3-0.2-0.4c-0.1-0.2-0.1-0.4-0.1-0.6v-2.3h1.1v2.3c0,0.2,0,0.3,0.1,0.4c0.1,0.1,0.2,0.1,0.4,0.1
	c0.1,0,0.2,0,0.3-0.1c0.1-0.1,0.2-0.1,0.3-0.2v-2.6h1.1C21.6,34.7,21.6,34.9,21.6,34.9z M24.1,37c-0.2,0-0.4,0-0.5,0.1
	s-0.3,0.1-0.3,0.1c-0.1,0-0.1,0.1-0.2,0.1c0,0.1,0,0.1,0,0.2c0,0.1,0,0.2,0.1,0.3c0.1,0,0.2,0.1,0.3,0.1c0.1,0,0.3,0,0.4-0.1
	c0.1,0,0.2-0.1,0.3-0.2L24.1,37L24.1,37z M22.2,35.4c0.2-0.2,0.5-0.3,0.7-0.4c0.3-0.1,0.6-0.1,0.9-0.1c0.2,0,0.4,0,0.6,0.1
	s0.3,0.2,0.4,0.3s0.2,0.3,0.3,0.5c0.1,0.2,0.1,0.4,0.1,0.6v2.3h-0.5c-0.1,0-0.2,0-0.2,0c-0.1,0-0.1-0.1-0.1-0.2l-0.1-0.2
	c-0.1,0.1-0.2,0.1-0.3,0.2s-0.2,0.1-0.3,0.2c-0.1,0-0.2,0.1-0.3,0.1c-0.1,0-0.2,0-0.3,0c-0.2,0-0.3,0-0.5-0.1
	c-0.1,0-0.3-0.1-0.3-0.2c-0.1-0.1-0.2-0.2-0.2-0.3C22,37.9,22,37.7,22,37.6c0-0.1,0-0.3,0.1-0.4c0.1-0.1,0.2-0.3,0.3-0.4
	c0.2-0.1,0.4-0.2,0.7-0.3s0.6-0.1,1-0.1v-0.2c0-0.2,0-0.4-0.1-0.5s-0.2-0.1-0.4-0.1c-0.1,0-0.2,0-0.3,0c-0.1,0-0.2,0.1-0.2,0.1
	c-0.1,0-0.1,0.1-0.2,0.1s-0.1,0-0.2,0s-0.1,0-0.2-0.1c-0.1,0-0.1-0.1-0.1-0.1L22.2,35.4z M26.8,33.3v5.2h-1.1v-5.2H26.8z"/>
<path class="st3" d="M2.5,1h35V0h-35V1z M39,2.5v37h1v-37H39z M37.5,41h-35v1h35V41z M1,39.5v-37H0v37H1z M2.5,41
	C1.7,41,1,40.3,1,39.5H0C0,40.9,1.1,42,2.5,42V41z M39,39.5c0,0.8-0.7,1.5-1.5,1.5v1c1.4,0,2.5-1.1,2.5-2.5H39z M37.5,1
	C38.3,1,39,1.7,39,2.5h1C40,1.1,38.9,0,37.5,0V1z M2.5,0C1.1,0,0,1.1,0,2.5h1C1,1.7,1.7,1,2.5,1V0z"/>
<path class="st0" d="M0.5,44.5c0-1.1,0.9-2,2-2h35c1.1,0,2,0.9,2,2v37c0,1.1-0.9,2-2,2h-35c-1.1,0-2-0.9-2-2V44.5z"/>
<path class="st1" d="M14,46.4c0,0.1-0.1,0.1-0.1,0.1h-0.1c-0.1,0-0.1,0-0.2,0c-0.1,0-0.1-0.1-0.2-0.1c-0.1,0-0.2-0.1-0.3-0.1
	s-0.2-0.1-0.3-0.1c-0.2,0-0.4,0-0.5,0.1s-0.2,0.2-0.2,0.4c0,0.1,0,0.2,0.1,0.3s0.2,0.1,0.3,0.2c0.1,0,0.2,0.1,0.4,0.1
	c0.1,0,0.3,0.1,0.4,0.1c0.1,0,0.3,0.1,0.4,0.2c0.1,0.1,0.3,0.2,0.4,0.3c0.1,0.1,0.2,0.2,0.3,0.4c0.1,0.1,0.1,0.3,0.1,0.5
	s0,0.5-0.1,0.7S14.2,49.9,14,50c-0.2,0.2-0.3,0.3-0.6,0.4c-0.2,0.1-0.5,0.1-0.8,0.1c-0.2,0-0.3,0-0.5,0s-0.3-0.1-0.5-0.1
	c-0.2-0.1-0.3-0.1-0.4-0.2c-0.1-0.1-0.3-0.2-0.4-0.3l0.4-0.6l0.1-0.1c0,0,0.1,0,0.2,0c0.1,0,0.1,0,0.2,0.1c0.1,0,0.2,0.1,0.2,0.1
	c0.1,0.1,0.2,0.1,0.3,0.1s0.3,0.1,0.4,0.1c0.2,0,0.4,0,0.5-0.1s0.2-0.2,0.2-0.5c0-0.1,0-0.2-0.1-0.3s-0.2-0.1-0.3-0.2
	c-0.1,0-0.2-0.1-0.4-0.1c-0.1,0-0.3-0.1-0.4-0.1c-0.1,0-0.3-0.1-0.4-0.2c-0.1-0.1-0.3-0.2-0.4-0.3c-0.1-0.1-0.2-0.2-0.3-0.4
	s-0.1-0.4-0.1-0.6c0-0.2,0-0.4,0.1-0.6c0.1-0.2,0.2-0.3,0.3-0.5c0.1-0.1,0.3-0.3,0.5-0.3c0.2-0.1,0.5-0.1,0.7-0.1s0.3,0,0.5,0
	c0.1,0,0.3,0.1,0.4,0.1c0.1,0,0.3,0.1,0.4,0.2c0.1,0.1,0.2,0.1,0.3,0.2L14,46.4z M16,46.9v3.6h-1.1v-3.6H16z M16.1,45.9
	c0,0.1,0,0.2-0.1,0.2c0,0.1-0.1,0.1-0.1,0.2c-0.1,0.1-0.1,0.1-0.2,0.1c-0.1,0-0.2,0-0.3,0s-0.2,0-0.2,0c-0.1,0-0.1-0.1-0.2-0.1
	c-0.1-0.1-0.1-0.1-0.1-0.2c0-0.1,0-0.2,0-0.2c0-0.1,0-0.2,0-0.2c0-0.1,0.1-0.1,0.1-0.2c0.1-0.1,0.1-0.1,0.2-0.1c0.1,0,0.2,0,0.2,0
	c0.1,0,0.2,0,0.3,0s0.2,0.1,0.2,0.1c0.1,0.1,0.1,0.1,0.1,0.2C16.1,45.7,16.1,45.8,16.1,45.9z M17.6,47.3c0.1-0.1,0.1-0.1,0.2-0.2
	C17.9,47,18,47,18,47c0.1,0,0.2-0.1,0.3-0.1c0.1,0,0.2,0,0.3,0c0.2,0,0.4,0,0.5,0.1c0.2,0.1,0.3,0.2,0.4,0.3s0.2,0.3,0.2,0.4
	c0.1,0.2,0.1,0.4,0.1,0.5v2.3h-1.1v-2.3c0-0.2,0-0.3-0.1-0.4c-0.1-0.1-0.2-0.2-0.4-0.2c-0.1,0-0.2,0-0.3,0.1c-0.1,0-0.2,0.1-0.3,0.2
	v2.6h-1.1v-3.6h0.7c0.1,0,0.2,0.1,0.3,0.2L17.6,47.3z M21.9,48.5c0.2,0,0.3,0,0.4-0.1s0.1-0.2,0.1-0.3s0-0.3-0.1-0.3
	c-0.1-0.1-0.2-0.1-0.4-0.1c-0.2,0-0.3,0-0.4,0.1s-0.1,0.2-0.1,0.3s0,0.1,0,0.2c0,0.1,0.1,0.1,0.1,0.2c0,0,0.1,0.1,0.2,0.1
	C21.7,48.5,21.8,48.5,21.9,48.5z M22.7,50.6c0-0.1,0-0.1-0.1-0.2c-0.1,0-0.2-0.1-0.3-0.1c-0.1,0-0.3,0-0.4,0c-0.2,0-0.3,0-0.5,0
	c-0.1,0-0.1,0.1-0.2,0.2c0,0.1-0.1,0.1-0.1,0.2c0,0.1,0,0.1,0,0.1l0.1,0.1c0.1,0,0.1,0.1,0.2,0.1s0.2,0,0.4,0c0.2,0,0.3,0,0.4,0
	s0.2,0,0.2-0.1c0.1,0,0.1-0.1,0.1-0.1C22.7,50.7,22.7,50.7,22.7,50.6z M23.8,47v0.4c0,0.1,0,0.1-0.1,0.1c0,0-0.1,0.1-0.2,0.1
	l-0.3,0.1c0,0.1,0,0.1,0,0.2c0,0.1,0,0.1,0,0.2c0,0.2,0,0.3-0.1,0.5c-0.1,0.1-0.2,0.3-0.3,0.4c-0.1,0.1-0.3,0.2-0.5,0.2
	c-0.2,0.1-0.4,0.1-0.6,0.1c-0.1,0-0.1,0-0.2,0s-0.1,0-0.2,0s-0.1,0.1-0.1,0.2c0,0.1,0,0.1,0.1,0.1s0.2,0,0.3,0.1c0.1,0,0.2,0,0.4,0
	c0.1,0,0.3,0,0.4,0s0.3,0,0.4,0.1c0.1,0,0.3,0.1,0.4,0.1c0.1,0.1,0.2,0.2,0.3,0.3c0.1,0.1,0.1,0.3,0.1,0.4c0,0.2,0,0.3-0.1,0.5
	s-0.2,0.3-0.4,0.4s-0.3,0.2-0.6,0.3c-0.2,0.1-0.5,0.1-0.8,0.1s-0.5,0-0.7-0.1s-0.4-0.1-0.5-0.2c-0.1-0.1-0.2-0.2-0.3-0.3
	c-0.1-0.1-0.1-0.2-0.1-0.4s0-0.3,0.1-0.4c0.1-0.1,0.2-0.2,0.4-0.3c-0.1-0.1-0.2-0.1-0.2-0.2c-0.1-0.1-0.1-0.2-0.1-0.3s0-0.1,0-0.2
	c0-0.1,0-0.1,0.1-0.2c0-0.1,0.1-0.1,0.2-0.2C20.9,49,20.9,49,21,49c-0.2-0.1-0.3-0.2-0.4-0.4s-0.2-0.4-0.2-0.6c0-0.2,0-0.3,0.1-0.5
	c0.1-0.1,0.2-0.3,0.3-0.4c0.1-0.1,0.3-0.2,0.5-0.2c0.2-0.1,0.4-0.1,0.6-0.1c0.3,0,0.6,0.1,0.8,0.2H23.8z M25.2,45.3v5.2h-1.1v-5.2
	H25.2z M28.1,48.2c0-0.1,0-0.2,0-0.3S28,47.7,28,47.7c0-0.1-0.1-0.1-0.2-0.2s-0.2-0.1-0.3-0.1c-0.2,0-0.4,0.1-0.5,0.2
	c-0.1,0.1-0.2,0.3-0.2,0.5L28.1,48.2L28.1,48.2z M26.8,48.9c0,0.3,0.1,0.5,0.3,0.7c0.1,0.1,0.3,0.2,0.6,0.2c0.1,0,0.2,0,0.3,0
	c0.1,0,0.2-0.1,0.2-0.1c0.1,0,0.1-0.1,0.2-0.1s0.1,0,0.2,0s0.2,0,0.2,0.1l0.3,0.4c-0.1,0.1-0.2,0.2-0.4,0.3
	c-0.1,0.1-0.3,0.1-0.4,0.2c-0.1,0-0.3,0.1-0.4,0.1s-0.3,0-0.4,0c-0.3,0-0.5,0-0.7-0.1s-0.4-0.2-0.6-0.4s-0.3-0.4-0.4-0.6
	c-0.1-0.2-0.1-0.5-0.1-0.8c0-0.2,0-0.5,0.1-0.7s0.2-0.4,0.4-0.6c0.2-0.2,0.3-0.3,0.6-0.4C27,47,27.3,47,27.5,47s0.5,0,0.7,0.1
	s0.4,0.2,0.5,0.3s0.3,0.3,0.3,0.5c0.1,0.2,0.1,0.4,0.1,0.7c0,0.1,0,0.1,0,0.2s0,0.1,0,0.1s0,0.1-0.1,0.1h-0.1L26.8,48.9L26.8,48.9z"
	/>
<g class="st2">
	<rect x="2" y="52.5" class="st3" width="36" height="1"/>
</g>
<path class="st1" d="M3.5,54h33c0.6,0,1,0.4,1,1v6c0,0.6-0.4,1-1,1h-33c-0.6,0-1-0.4-1-1v-6C2.5,54.4,2.9,54,3.5,54z"/>
<path class="st1" d="M3.5,54h33c0.6,0,1,0.4,1,1v6c0,0.6-0.4,1-1,1h-33c-0.6,0-1-0.4-1-1v-6C2.5,54.4,2.9,54,3.5,54z"/>
<path d="M8.2,57.5h0.2c0.2,0,0.3-0.1,0.4-0.2l1.1-1.7c0.1-0.1,0.1-0.1,0.2-0.2c0.1,0,0.2-0.1,0.3-0.1h1L10,57.5
	c-0.1,0.1-0.2,0.2-0.3,0.3c0.1,0,0.2,0.1,0.2,0.1c0,0.1,0.1,0.1,0.2,0.2l1.5,2.4h-1.1c-0.1,0-0.1,0-0.2,0h-0.1c0,0-0.1,0-0.1-0.1
	L10,60.3l-1.2-1.8c0-0.1-0.1-0.1-0.2-0.1c-0.1,0-0.1,0-0.3,0H8.2v2.2H7v-5.1h1.2V57.5z M13.7,58.2c0-0.1,0-0.2,0-0.3
	s-0.1-0.2-0.1-0.2c0-0.1-0.1-0.1-0.2-0.2c-0.1,0-0.2-0.1-0.3-0.1c-0.2,0-0.4,0.1-0.5,0.2c-0.1,0.1-0.2,0.3-0.2,0.5L13.7,58.2
	L13.7,58.2z M12.4,58.9c0,0.3,0.1,0.5,0.3,0.7c0.1,0.1,0.3,0.2,0.6,0.2c0.1,0,0.2,0,0.3,0s0.2-0.1,0.2-0.1c0.1,0,0.1-0.1,0.2-0.1
	c0.1,0,0.1,0,0.2,0c0.1,0,0.2,0,0.2,0.1l0.3,0.4c-0.1,0.1-0.2,0.2-0.4,0.3c-0.1,0.1-0.3,0.1-0.4,0.2c-0.1,0-0.3,0.1-0.4,0.1
	c-0.1,0-0.3,0-0.4,0c-0.3,0-0.5,0-0.7-0.1s-0.4-0.2-0.6-0.4c-0.2-0.2-0.3-0.4-0.4-0.6c-0.1-0.2-0.1-0.5-0.1-0.8c0-0.2,0-0.5,0.1-0.7
	s0.2-0.4,0.4-0.6c0.2-0.2,0.3-0.3,0.6-0.4c0.2-0.1,0.5-0.1,0.7-0.1s0.5,0,0.7,0.1s0.4,0.2,0.5,0.3s0.3,0.3,0.3,0.5
	c0.1,0.2,0.1,0.4,0.1,0.7c0,0.1,0,0.1,0,0.2c0,0.1,0,0.1,0,0.1s0,0.1-0.1,0.1h-0.1h-2.1C12.4,59,12.4,58.9,12.4,58.9z M18.5,56.9
	l-1.9,4.6c0,0.1-0.1,0.1-0.1,0.2c0,0-0.1,0.1-0.2,0.1h-0.8l0.7-1.5L14.8,57h1c0.1,0,0.1,0,0.2,0.1l0.1,0.1l0.6,1.6
	c0.1,0.1,0.1,0.3,0.1,0.4c0-0.1,0.1-0.1,0.1-0.2c0-0.1,0.1-0.1,0.1-0.2l0.5-1.6c0-0.1,0.1-0.1,0.1-0.1c0.1,0,0.1-0.1,0.2-0.1
	L18.5,56.9L18.5,56.9z M23,56.4c0,0.1-0.1,0.1-0.1,0.1h-0.1c-0.1,0-0.1,0-0.2,0s-0.1-0.1-0.2-0.1s-0.2-0.1-0.3-0.1
	c-0.1,0-0.2-0.1-0.3-0.1c-0.2,0-0.4,0-0.5,0.1s-0.2,0.2-0.2,0.4c0,0.1,0,0.2,0.1,0.3s0.2,0.1,0.3,0.2c0.1,0,0.2,0.1,0.4,0.1
	c0.1,0,0.3,0.1,0.4,0.1s0.3,0.1,0.4,0.2c0.1,0.1,0.3,0.2,0.4,0.3s0.2,0.2,0.3,0.4c0.1,0.1,0.1,0.3,0.1,0.5s0,0.5-0.1,0.7
	S23.2,59.9,23,60c-0.2,0.2-0.3,0.3-0.6,0.4c-0.2,0.1-0.5,0.1-0.8,0.1c-0.2,0-0.3,0-0.5,0s-0.3-0.1-0.5-0.1c-0.2-0.1-0.3-0.1-0.4-0.2
	c-0.1-0.1-0.3-0.2-0.4-0.3l0.4-0.6l0.1-0.1c0,0,0.1,0,0.2,0s0.1,0,0.2,0.1c0.1,0,0.2,0.1,0.2,0.1c0.1,0.1,0.2,0.1,0.3,0.1
	c0.1,0,0.3,0.1,0.4,0.1c0.2,0,0.4,0,0.5-0.1s0.2-0.2,0.2-0.5c0-0.1,0-0.2-0.1-0.3s-0.2-0.1-0.3-0.2c-0.1,0-0.2-0.1-0.4-0.1
	c-0.1,0-0.3-0.1-0.4-0.1s-0.3-0.1-0.4-0.2c-0.1-0.1-0.3-0.2-0.4-0.3s-0.2-0.2-0.3-0.4c0-0.1,0-0.3,0-0.5s0-0.4,0.1-0.6
	s0.2-0.3,0.3-0.5c0.1-0.1,0.3-0.3,0.5-0.3c0.2-0.1,0.5-0.1,0.7-0.1s0.3,0,0.5,0c0.1,0,0.3,0.1,0.4,0.1s0.3,0.1,0.4,0.2
	c0.1,0.1,0.2,0.1,0.3,0.2L23,56.4z M24.8,59.5c0.1,0.1,0.2,0.2,0.3,0.2c0.1,0,0.2,0.1,0.3,0.1c0.1,0,0.2,0,0.3-0.1
	c0.1,0,0.2-0.1,0.2-0.2c0.1-0.1,0.1-0.2,0.1-0.3s0.1-0.3,0.1-0.5s0-0.4,0-0.5S26,58,26,57.9s-0.1-0.1-0.2-0.2
	c-0.1,0-0.1-0.1-0.2-0.1c-0.2,0-0.3,0-0.4,0.1S25,57.8,24.9,58L24.8,59.5L24.8,59.5z M24.8,57.3c0.1-0.2,0.3-0.3,0.5-0.4
	c0.2-0.1,0.4-0.1,0.6-0.1s0.4,0,0.5,0.1c0.2,0.1,0.3,0.2,0.4,0.4s0.2,0.4,0.3,0.6c0.1,0.2,0.1,0.5,0.1,0.8s0,0.5-0.1,0.8
	c-0.1,0.2-0.2,0.4-0.3,0.6c-0.1,0.2-0.3,0.3-0.5,0.4c-0.2,0.1-0.4,0.1-0.6,0.1s-0.3,0-0.5-0.1c-0.1-0.1-0.2-0.1-0.4-0.2v1.4h-1.1
	v-4.8h0.7c0.1,0,0.2,0.1,0.3,0.2L24.8,57.3z M28.8,55.3v5.2h-1.1v-5.2H28.8z M30.5,56.9v3.6h-1.1v-3.6H30.5z M30.6,55.9
	c0,0.1,0,0.2-0.1,0.2c0,0.1-0.1,0.1-0.1,0.2c-0.1,0.1-0.1,0.1-0.2,0.1s-0.2,0-0.3,0c-0.1,0-0.2,0-0.2,0c-0.1,0-0.1-0.1-0.2-0.1
	c-0.1-0.1-0.1-0.1-0.1-0.2c0-0.1,0-0.2,0-0.2c0-0.1,0-0.2,0-0.2c0-0.1,0.1-0.1,0.1-0.2c0.1-0.1,0.1-0.1,0.2-0.1s0.2,0,0.2,0
	c0.1,0,0.2,0,0.3,0c0.1,0,0.2,0.1,0.2,0.1c0.1,0.1,0.1,0.1,0.1,0.2C30.6,55.7,30.6,55.8,30.6,55.9z M32.4,60.6c-0.2,0-0.3,0-0.5-0.1
	c-0.1-0.1-0.2-0.1-0.3-0.2c-0.1-0.1-0.2-0.2-0.2-0.3s-0.1-0.3-0.1-0.4v-1.9H31c-0.1,0-0.1,0-0.1-0.1c0,0-0.1-0.1-0.1-0.2V57l0.6-0.1
	l0.2-0.9c0-0.1,0.1-0.2,0.2-0.2h0.6v1.1h0.9v0.7h-0.9v1.8c0,0.1,0,0.2,0.1,0.2c0,0.1,0.1,0.1,0.2,0.1h0.1h0.1c0,0,0,0,0.1,0
	c0,0,0,0,0.1,0h0.1c0,0,0,0,0.1,0.1l0.3,0.5c-0.1,0.1-0.3,0.2-0.5,0.2C32.8,60.5,32.6,60.6,32.4,60.6z"/>
<g class="st2">
	<rect x="2" y="62.5" class="st3" width="36" height="1"/>
</g>
<path class="st1" d="M8.4,69.2L8.4,69.2c0.1,0,0.1,0,0.2,0.1L9,69.7c-0.2,0.3-0.5,0.5-0.8,0.6s-0.7,0.2-1.1,0.2s-0.7-0.1-1-0.2
	S5.5,70,5.3,69.8C5.1,69.6,5,69.3,4.8,69c-0.1-0.3-0.2-0.7-0.2-1c0-0.4,0.1-0.7,0.2-1s0.3-0.6,0.5-0.8c0.2-0.2,0.5-0.4,0.8-0.5
	s0.7-0.2,1-0.2c0.2,0,0.4,0,0.5,0.1c0.2,0,0.3,0.1,0.5,0.1c0.1,0.1,0.3,0.1,0.4,0.2c0.3-0.1,0.4,0,0.5,0.1l-0.4,0.5l-0.1,0.1H8.4
	H8.3c0,0-0.1,0-0.1-0.1l-0.1-0.1c0,0-0.1-0.1-0.2-0.1s-0.1-0.1-0.2-0.1s-0.2,0-0.3,0c-0.2,0-0.4,0-0.5,0.1c-0.2,0.1-0.3,0.2-0.4,0.3
	C6.1,66.9,6,67.1,6,67.3c-0.1,0.2-0.1,0.4-0.1,0.7c0,0.3,0,0.5,0.1,0.7s0.2,0.4,0.3,0.5c0.1,0.1,0.3,0.2,0.4,0.3
	c0.2,0.1,0.3,0.1,0.5,0.1c0.1,0,0.2,0,0.3,0c0.1,0,0.2,0,0.2-0.1c0.1,0,0.1-0.1,0.2-0.1s0.1-0.1,0.2-0.2c0,0,0.1,0,0.1-0.1
	C8.3,69.2,8.4,69.2,8.4,69.2z M10.4,67.2c0.1-0.1,0.3-0.2,0.4-0.3c0.2-0.1,0.3-0.1,0.5-0.1s0.4,0,0.5,0.1c0.2,0.1,0.3,0.2,0.4,0.3
	c0.1,0.1,0.2,0.3,0.2,0.4c0.1,0.2,0.1,0.4,0.1,0.5v2.3h-1.1v-2.3c0-0.2,0-0.3-0.1-0.4s-0.2-0.2-0.4-0.2c-0.1,0-0.2,0-0.3,0.1
	c-0.1,0-0.2,0.1-0.3,0.2v2.6h-1v-5.2h1.1C10.4,65.2,10.4,67.2,10.4,67.2z M15.1,69c-0.2,0-0.4,0-0.5,0.1c-0.1,0-0.3,0.1-0.3,0.1
	c-0.1,0-0.1,0.1-0.2,0.1c0,0.1,0,0.1,0,0.2s0,0.2,0.1,0.3c0.1,0,0.2,0.1,0.3,0.1s0.3,0,0.4-0.1c0.1,0,0.2-0.1,0.3-0.2V69H15.1z
	 M13.1,67.4c0.2-0.2,0.5-0.3,0.7-0.4c0.3-0.1,0.6-0.1,0.9-0.1c0.2,0,0.4,0,0.6,0.1c0.2,0.1,0.3,0.2,0.4,0.3c0.1,0.1,0.2,0.3,0.3,0.5
	s0.1,0.4,0.1,0.6v2.3h-0.5c-0.1,0-0.2,0-0.2,0c-0.1,0-0.1-0.1-0.1-0.2l-0.1-0.2c-0.1,0.1-0.2,0.1-0.3,0.2s-0.2,0.1-0.3,0.2
	c-0.1,0-0.2,0.1-0.3,0.1s-0.2,0-0.3,0c-0.2,0-0.3,0-0.5-0.1c-0.1,0-0.3-0.1-0.3-0.2c-0.1-0.1-0.2-0.2-0.2-0.3
	c-0.1-0.1-0.1-0.3-0.1-0.4s0-0.3,0.1-0.4s0.2-0.3,0.3-0.4c0.2-0.1,0.4-0.2,0.7-0.3s0.6-0.1,1-0.1v-0.2c0-0.2,0-0.4-0.1-0.5
	s-0.2-0.1-0.4-0.1c-0.1,0-0.2,0-0.3,0S14,67.9,14,67.9c-0.1,0-0.1,0.1-0.2,0.1c-0.1,0-0.1,0-0.2,0c-0.1,0-0.1,0-0.2-0.1
	c-0.1,0-0.1-0.1-0.1-0.1L13.1,67.4z M17.7,67.3c0.1-0.1,0.1-0.1,0.2-0.2s0.2-0.1,0.2-0.1c0.1,0,0.2-0.1,0.3-0.1c0.1,0,0.2,0,0.3,0
	c0.2,0,0.4,0,0.5,0.1c0.2,0.1,0.3,0.2,0.4,0.3c0.1,0.1,0.2,0.3,0.2,0.4C20,67.8,20,68,20,68.2v2.3h-1.1v-2.3c0-0.2,0-0.3-0.1-0.4
	s-0.2-0.2-0.4-0.2c-0.1,0-0.2,0-0.3,0.1c-0.1,0-0.2,0.1-0.3,0.2v2.6h-1.1v-3.6h0.7c0.1,0,0.2,0.1,0.3,0.2V67.3z M25.1,66.4
	c0,0.1-0.1,0.1-0.1,0.1h-0.1c-0.1,0-0.1,0-0.2,0s-0.1-0.1-0.2-0.1s-0.2-0.1-0.3-0.1c-0.1,0-0.2-0.1-0.3-0.1c-0.2,0-0.4,0-0.5,0.1
	s-0.2,0.2-0.2,0.4c0,0.1,0,0.2,0.1,0.3c0.1,0.1,0.2,0.1,0.3,0.2c0.1,0,0.2,0.1,0.4,0.1c0.1,0,0.3,0.1,0.4,0.1s0.3,0.1,0.4,0.2
	s0.3,0.2,0.4,0.3c0.1,0.1,0.2,0.2,0.3,0.4c0.1,0.1,0.1,0.3,0.1,0.5s0,0.5-0.1,0.7s-0.2,0.4-0.4,0.5c-0.2,0.2-0.3,0.3-0.6,0.4
	c-0.2,0.1-0.5,0.1-0.8,0.1c-0.2,0-0.3,0-0.5,0s-0.3-0.1-0.5-0.1c-0.2-0.1-0.3-0.1-0.4-0.2S22,70,21.9,69.9l0.4-0.6l0.1-0.1
	c0,0,0.1,0,0.2,0s0.1,0,0.2,0.1c0.1,0,0.2,0.1,0.2,0.1c0.1,0.1,0.2,0.1,0.3,0.1c0.1,0,0.3,0.1,0.4,0.1c0.2,0,0.4,0,0.5-0.1
	s0.2-0.2,0.2-0.5c0-0.1,0-0.2-0.1-0.3c-0.1-0.1-0.2-0.1-0.3-0.2c-0.1,0-0.2-0.1-0.4-0.1c-0.1,0-0.3-0.1-0.4-0.1s-0.3-0.1-0.4-0.2
	s-0.3-0.2-0.4-0.3c-0.1-0.1-0.2-0.2-0.3-0.4C22,67.2,22,67,22,66.8s0-0.4,0.1-0.6s0.2-0.3,0.3-0.5c0.1-0.1,0.3-0.3,0.5-0.3
	c0.2-0.1,0.5-0.1,0.7-0.1s0.3,0,0.5,0c0.1,0,0.3,0.1,0.4,0.1s0.3,0.1,0.4,0.2s0.2,0.1,0.3,0.2L25.1,66.4z M26.9,69.5
	c0.1,0.1,0.2,0.2,0.3,0.2c0.1,0,0.2,0.1,0.3,0.1c0.1,0,0.2,0,0.3-0.1c0.1,0,0.2-0.1,0.2-0.2c0.1-0.1,0.1-0.2,0.1-0.3
	c0-0.1,0.1-0.3,0.1-0.5s0-0.4,0-0.5s-0.1-0.2-0.1-0.3c0-0.1-0.1-0.1-0.2-0.2c-0.1,0-0.1-0.1-0.2-0.1c-0.2,0-0.3,0-0.4,0.1
	S27.1,67.8,27,68L26.9,69.5L26.9,69.5z M26.8,67.3c0.1-0.2,0.3-0.3,0.5-0.4s0.4-0.1,0.6-0.1s0.4,0,0.5,0.1c0.2,0.1,0.3,0.2,0.4,0.4
	c0.1,0.2,0.2,0.4,0.3,0.6c0.1,0.2,0.1,0.5,0.1,0.8s0,0.5-0.1,0.8c-0.1,0.2-0.2,0.4-0.3,0.6c-0.1,0.2-0.3,0.3-0.5,0.4
	s-0.4,0.1-0.6,0.1s-0.3,0-0.5-0.1c-0.1-0.1-0.2-0.1-0.4-0.2v1.4h-1.1v-4.8h0.7c0.1,0,0.2,0.1,0.3,0.2L26.8,67.3z M30.8,65.3v5.2
	h-1.1v-5.2H30.8z M32.6,66.9v3.6h-1.1v-3.6H32.6z M32.7,65.9c0,0.1,0,0.2-0.1,0.2c0,0.1-0.1,0.1-0.1,0.2c-0.1,0.1-0.1,0.1-0.2,0.1
	c-0.1,0-0.2,0-0.3,0c-0.1,0-0.2,0-0.2,0c-0.1,0-0.1-0.1-0.2-0.1c-0.1-0.1-0.1-0.1-0.1-0.2s0-0.2,0-0.2c0-0.1,0-0.2,0-0.2
	c0-0.1,0.1-0.1,0.1-0.2c0.1-0.1,0.1-0.1,0.2-0.1s0.2,0,0.2,0c0.1,0,0.2,0,0.3,0s0.2,0.1,0.2,0.1c0.1,0.1,0.1,0.1,0.1,0.2
	C32.7,65.7,32.7,65.8,32.7,65.9z M34.5,70.6c-0.2,0-0.3,0-0.5-0.1c-0.1-0.1-0.2-0.1-0.3-0.2s-0.2-0.2-0.2-0.3c0-0.1-0.1-0.3-0.1-0.4
	v-1.9h-0.3c-0.1,0-0.1,0-0.1-0.1c0,0-0.1-0.1-0.1-0.2V67l0.6-0.1l0.2-0.9c0-0.1,0.1-0.2,0.2-0.2h0.6v1.1h0.9v0.7h-0.9v1.8
	c0,0.1,0,0.2,0.1,0.2c0,0.1,0.1,0.1,0.2,0.1h0.1H35c0,0,0,0,0.1,0c0,0,0,0,0.1,0h0.1c0,0,0,0,0.1,0.1l0.3,0.5
	c-0.1,0.1-0.3,0.2-0.5,0.2C34.9,70.5,34.7,70.6,34.5,70.6z"/>
<g class="st2">
	<rect x="2" y="72.5" class="st3" width="36" height="1"/>
</g>
<path class="st1" d="M17.9,77.9c0,0.4-0.1,0.7-0.2,1s-0.3,0.6-0.5,0.8c-0.2,0.2-0.5,0.4-0.8,0.5s-0.7,0.2-1.1,0.2h-2v-5.1h2
	c0.4,0,0.8,0.1,1.1,0.2c0.3,0.1,0.6,0.3,0.8,0.5c0.2,0.2,0.4,0.5,0.5,0.8C17.9,77.2,17.9,77.6,17.9,77.9z M16.7,77.9
	c0-0.3,0-0.5-0.1-0.7s-0.2-0.4-0.3-0.5c-0.1-0.1-0.3-0.3-0.4-0.3c-0.2-0.1-0.4-0.1-0.6-0.1h-0.8v3.3h0.8c0.2,0,0.4,0,0.6-0.1
	s0.3-0.2,0.4-0.3c0.1-0.1,0.2-0.3,0.3-0.5C16.7,78.4,16.7,78.2,16.7,77.9z M21.6,76.9v3.6h-0.7c-0.1,0-0.2-0.1-0.3-0.2l-0.1-0.2
	c-0.1,0.1-0.1,0.1-0.2,0.2s-0.2,0.1-0.2,0.1c-0.1,0-0.2,0.1-0.3,0.1c-0.1,0-0.2,0-0.3,0c-0.2,0-0.4,0-0.5-0.1
	c-0.2-0.1-0.3-0.2-0.4-0.3c-0.1-0.1-0.2-0.3-0.2-0.4c-0.1-0.2-0.1-0.4-0.1-0.6v-2.3h1.1v2.3c0,0.2,0,0.3,0.1,0.4s0.2,0.1,0.4,0.1
	c0.1,0,0.2,0,0.3-0.1c0.1-0.1,0.2-0.1,0.3-0.2v-2.6h1.1C21.6,76.7,21.6,76.9,21.6,76.9z M24.1,79c-0.2,0-0.4,0-0.5,0.1
	s-0.3,0.1-0.3,0.1c-0.1,0-0.1,0.1-0.2,0.1c0,0.1,0,0.1,0,0.2s0,0.2,0.1,0.3c0.1,0,0.2,0.1,0.3,0.1c0.1,0,0.3,0,0.4-0.1
	c0.1,0,0.2-0.1,0.3-0.2L24.1,79L24.1,79z M22.2,77.4c0.2-0.2,0.5-0.3,0.7-0.4c0.3-0.1,0.6-0.1,0.9-0.1c0.2,0,0.4,0,0.6,0.1
	s0.3,0.2,0.4,0.3c0.1,0.1,0.2,0.3,0.3,0.5c0.1,0.2,0.1,0.4,0.1,0.6v2.3h-0.5c-0.1,0-0.2,0-0.2,0c-0.1,0-0.1-0.1-0.1-0.2l-0.1-0.2
	c-0.1,0.1-0.2,0.1-0.3,0.2c-0.1,0.1-0.2,0.1-0.3,0.2c-0.1,0-0.2,0.1-0.3,0.1c-0.1,0-0.2,0-0.3,0c-0.2,0-0.3,0-0.5-0.1
	c-0.1,0-0.3-0.1-0.3-0.2c-0.1-0.1-0.2-0.2-0.2-0.3C22,79.9,22,79.7,22,79.6s0-0.3,0.1-0.4s0.2-0.3,0.3-0.4c0.2-0.1,0.4-0.2,0.7-0.3
	s0.6-0.1,1-0.1v-0.2c0-0.2,0-0.4-0.1-0.5s-0.2-0.1-0.4-0.1c-0.1,0-0.2,0-0.3,0c-0.1,0-0.2,0.1-0.2,0.1c-0.1,0-0.1,0.1-0.2,0.1
	s-0.1,0-0.2,0s-0.1,0-0.2-0.1c-0.1,0-0.1-0.1-0.1-0.1L22.2,77.4z M26.8,75.3v5.2h-1.1v-5.2H26.8z"/>
<path class="st3" d="M2.5,43h35v-1h-35V43z M39,44.5v37h1v-37H39z M37.5,83h-35v1h35V83z M1,81.5v-37H0v37H1z M2.5,83
	C1.7,83,1,82.3,1,81.5H0C0,82.9,1.1,84,2.5,84V83z M39,81.5c0,0.8-0.7,1.5-1.5,1.5v1c1.4,0,2.5-1.1,2.5-2.5H39z M37.5,43
	c0.8,0,1.5,0.7,1.5,1.5h1c0-1.4-1.1-2.5-2.5-2.5V43z M2.5,42C1.1,42,0,43.1,0,44.5h1C1,43.7,1.7,43,2.5,43V42z"/>
<path class="st0" d="M0.5,86.5c0-1.1,0.9-2,2-2h35c1.1,0,2,0.9,2,2v37c0,1.1-0.9,2-2,2h-35c-1.1,0-2-0.9-2-2V86.5z"/>
<path class="st1" d="M14,88.4c0,0.1-0.1,0.1-0.1,0.1h-0.1c-0.1,0-0.1,0-0.2,0c-0.1,0-0.1-0.1-0.2-0.1c-0.1,0-0.2-0.1-0.3-0.1
	s-0.2-0.1-0.3-0.1c-0.2,0-0.4,0-0.5,0.1s-0.2,0.2-0.2,0.4c0,0.1,0,0.2,0.1,0.3c0.1,0.1,0.2,0.1,0.3,0.2c0.1,0,0.2,0.1,0.4,0.1
	c0.1,0,0.3,0.1,0.4,0.1c0.1,0,0.3,0.1,0.4,0.2c0.1,0.1,0.3,0.2,0.4,0.3c0.1,0.1,0.2,0.2,0.3,0.4c0.1,0.1,0.1,0.3,0.1,0.5
	s0,0.5-0.1,0.7S14.2,91.9,14,92c-0.2,0.2-0.3,0.3-0.6,0.4c-0.2,0.1-0.5,0.1-0.8,0.1c-0.2,0-0.3,0-0.5,0s-0.3-0.1-0.5-0.1
	c-0.2-0.1-0.3-0.1-0.4-0.2c-0.1-0.1-0.3-0.2-0.4-0.3l0.4-0.6l0.1-0.1c0,0,0.1,0,0.2,0c0.1,0,0.1,0,0.2,0.1c0.1,0,0.2,0.1,0.2,0.1
	c0.1,0.1,0.2,0.1,0.3,0.1s0.3,0.1,0.4,0.1c0.2,0,0.4,0,0.5-0.1s0.2-0.2,0.2-0.5c0-0.1,0-0.2-0.1-0.3c-0.1-0.1-0.2-0.1-0.3-0.2
	c-0.1,0-0.2-0.1-0.4-0.1c-0.1,0-0.3-0.1-0.4-0.1c-0.1,0-0.3-0.1-0.4-0.2c-0.1-0.1-0.3-0.2-0.4-0.3c-0.1-0.1-0.2-0.2-0.3-0.4
	c-0.1-0.2-0.1-0.4-0.1-0.6s0-0.4,0.1-0.6s0.2-0.3,0.3-0.5c0.1-0.1,0.3-0.3,0.5-0.3c0.2-0.1,0.5-0.1,0.7-0.1s0.3,0,0.5,0
	c0.1,0,0.3,0.1,0.4,0.1c0.1,0,0.3,0.1,0.4,0.2c0.1,0.1,0.2,0.1,0.3,0.2L14,88.4z M16,88.9v3.6h-1.1v-3.6H16z M16.1,87.9
	c0,0.1,0,0.2-0.1,0.2c0,0.1-0.1,0.1-0.1,0.2c-0.1,0.1-0.1,0.1-0.2,0.1c-0.1,0-0.2,0-0.3,0s-0.2,0-0.2,0c-0.1,0-0.1-0.1-0.2-0.1
	c-0.1-0.1-0.1-0.1-0.1-0.2s0-0.2,0-0.2c0-0.1,0-0.2,0-0.2c0-0.1,0.1-0.1,0.1-0.2c0.1-0.1,0.1-0.1,0.2-0.1s0.2,0,0.2,0
	c0.1,0,0.2,0,0.3,0s0.2,0.1,0.2,0.1c0.1,0.1,0.1,0.1,0.1,0.2C16.1,87.7,16.1,87.8,16.1,87.9z M17.6,89.3c0.1-0.1,0.1-0.1,0.2-0.2
	S18,89,18,89c0.1,0,0.2-0.1,0.3-0.1c0.1,0,0.2,0,0.3,0c0.2,0,0.4,0,0.5,0.1c0.2,0.1,0.3,0.2,0.4,0.3c0.1,0.1,0.2,0.3,0.2,0.4
	c0.1,0.2,0.1,0.4,0.1,0.5v2.3h-1.1v-2.3c0-0.2,0-0.3-0.1-0.4s-0.2-0.2-0.4-0.2c-0.1,0-0.2,0-0.3,0.1c-0.1,0-0.2,0.1-0.3,0.2v2.6
	h-1.1v-3.6h0.7c0.1,0,0.2,0.1,0.3,0.2L17.6,89.3z M21.9,90.5c0.2,0,0.3,0,0.4-0.1s0.1-0.2,0.1-0.4c0-0.1,0-0.3-0.1-0.3
	c-0.1-0.1-0.2-0.1-0.4-0.1c-0.2,0-0.3,0-0.4,0.1s-0.1,0.2-0.1,0.3c0,0.1,0,0.1,0,0.2s0.1,0.1,0.1,0.2c0,0,0.1,0.1,0.2,0.1
	C21.7,90.5,21.8,90.5,21.9,90.5z M22.7,92.6c0-0.1,0-0.1-0.1-0.2c-0.1,0-0.2-0.1-0.3-0.1c-0.1,0-0.3,0-0.4,0c-0.2,0-0.3,0-0.5,0
	c-0.1,0-0.1,0.1-0.2,0.2c0,0.1-0.1,0.1-0.1,0.2s0,0.1,0,0.1l0.1,0.1c0.1,0,0.1,0.1,0.2,0.1s0.2,0,0.4,0c0.2,0,0.3,0,0.4,0
	s0.2,0,0.2-0.1c0.1,0,0.1-0.1,0.1-0.1C22.7,92.7,22.7,92.7,22.7,92.6z M23.8,89v0.4c0,0.1,0,0.1-0.1,0.1c0,0-0.1,0.1-0.2,0.1
	l-0.3,0.1c0,0.1,0,0.1,0,0.2s0,0.1,0,0.2c0,0.2,0,0.3-0.1,0.5c-0.1,0.1-0.2,0.3-0.3,0.4c-0.1,0.1-0.3,0.2-0.5,0.2
	c-0.2,0.1-0.4,0.1-0.6,0.1c-0.1,0-0.1,0-0.2,0s-0.1,0-0.2,0s-0.1,0.1-0.1,0.2s0,0.1,0.1,0.1s0.2,0,0.3,0.1c0.1,0,0.2,0,0.4,0
	c0.1,0,0.3,0,0.4,0s0.3,0,0.4,0.1c0.1,0,0.3,0.1,0.4,0.1c0.1,0.1,0.2,0.2,0.3,0.3c0.1,0.1,0.1,0.3,0.1,0.4c0,0.2,0,0.3-0.1,0.5
	s-0.2,0.3-0.4,0.4s-0.3,0.2-0.6,0.3c-0.2,0.1-0.5,0.1-0.8,0.1s-0.5,0-0.7-0.1s-0.4-0.1-0.5-0.2s-0.2-0.2-0.3-0.3
	c-0.1-0.1-0.1-0.2-0.1-0.4c0-0.2,0-0.3,0.1-0.4s0.2-0.2,0.4-0.3c-0.1-0.1-0.2-0.1-0.2-0.2c-0.1-0.1-0.1-0.2-0.1-0.3
	c0-0.1,0-0.1,0-0.2s0-0.1,0.1-0.2c0-0.1,0.1-0.1,0.2-0.2C20.9,91,20.9,91,21,91c-0.2-0.1-0.3-0.2-0.4-0.4c-0.1-0.2-0.2-0.4-0.2-0.6
	s0-0.3,0.1-0.5c0.1-0.1,0.2-0.3,0.3-0.4c0.1-0.1,0.3-0.2,0.5-0.2c0.2-0.1,0.4-0.1,0.6-0.1c0.3,0,0.6,0.1,0.8,0.2H23.8z M25.2,87.3
	v5.2h-1.1v-5.2H25.2z M28.1,90.2c0-0.1,0-0.2,0-0.3c0-0.1-0.1-0.2-0.1-0.2c0-0.1-0.1-0.1-0.2-0.2c-0.1,0-0.2-0.1-0.3-0.1
	c-0.2,0-0.4,0.1-0.5,0.2s-0.2,0.3-0.2,0.5L28.1,90.2L28.1,90.2z M26.8,90.9c0,0.3,0.1,0.5,0.3,0.7c0.1,0.1,0.3,0.2,0.6,0.2
	c0.1,0,0.2,0,0.3,0c0.1,0,0.2-0.1,0.2-0.1c0.1,0,0.1-0.1,0.2-0.1s0.1,0,0.2,0s0.2,0,0.2,0.1l0.3,0.4c-0.1,0.1-0.2,0.2-0.4,0.3
	c-0.1,0.1-0.3,0.1-0.4,0.2c-0.1,0-0.3,0.1-0.4,0.1s-0.3,0-0.4,0c-0.3,0-0.5,0-0.7-0.1s-0.4-0.2-0.6-0.4c-0.2-0.2-0.3-0.4-0.4-0.6
	s-0.1-0.5-0.1-0.8c0-0.2,0-0.5,0.1-0.7s0.2-0.4,0.4-0.6c0.2-0.2,0.3-0.3,0.6-0.4C27,89,27.3,89,27.5,89s0.5,0,0.7,0.1
	s0.4,0.2,0.5,0.3c0.1,0.1,0.3,0.3,0.3,0.5c0.1,0.2,0.1,0.4,0.1,0.7c0,0.1,0,0.1,0,0.2s0,0.1,0,0.1s0,0.1-0.1,0.1h-0.1L26.8,90.9
	L26.8,90.9z"/>
<g class="st2">
	<rect x="2" y="94.5" class="st3" width="36" height="1"/>
</g>
<path class="st1" d="M8.2,99.5h0.2c0.2,0,0.3-0.1,0.4-0.2l1.1-1.7c0.1-0.1,0.1-0.1,0.2-0.2c0.1,0,0.2-0.1,0.3-0.1h1L10,99.5
	c-0.1,0.1-0.2,0.2-0.3,0.3c0.1,0,0.2,0.1,0.2,0.1c0.1,0.1,0.1,0.1,0.2,0.2l1.5,2.4h-1.1c-0.1,0-0.1,0-0.2,0h-0.1c0,0-0.1,0-0.1-0.1
	l-0.1-0.1l-1.2-1.8c0-0.1-0.1-0.1-0.2-0.1c-0.1,0-0.1,0-0.3,0H8.2v2.2H7v-5.1h1.2V99.5z M13.7,100.2c0-0.1,0-0.2,0-0.3
	c0-0.1-0.1-0.2-0.1-0.2c0-0.1-0.1-0.1-0.2-0.2c-0.1,0-0.2-0.1-0.3-0.1c-0.2,0-0.4,0.1-0.5,0.2s-0.2,0.3-0.2,0.5L13.7,100.2
	L13.7,100.2z M12.4,100.9c0,0.3,0.1,0.5,0.3,0.7c0.1,0.1,0.3,0.2,0.6,0.2c0.1,0,0.2,0,0.3,0s0.2-0.1,0.2-0.1c0.1,0,0.1-0.1,0.2-0.1
	c0.1,0,0.1,0,0.2,0c0.1,0,0.2,0,0.2,0.1l0.3,0.4c-0.1,0.1-0.2,0.2-0.4,0.3c-0.1,0.1-0.3,0.1-0.4,0.2c-0.1,0-0.3,0.1-0.4,0.1
	c-0.1,0-0.3,0-0.4,0c-0.3,0-0.5,0-0.7-0.1s-0.4-0.2-0.6-0.4c-0.2-0.2-0.3-0.4-0.4-0.6c-0.1-0.2-0.1-0.5-0.1-0.8c0-0.2,0-0.5,0.1-0.7
	s0.2-0.4,0.4-0.6s0.3-0.3,0.6-0.4c0.2-0.1,0.5-0.1,0.7-0.1s0.5,0,0.7,0.1s0.4,0.2,0.5,0.3c0.1,0.1,0.3,0.3,0.3,0.5
	c0.1,0.2,0.1,0.4,0.1,0.7c0,0.1,0,0.1,0,0.2s0,0.1,0,0.1s0,0.1-0.1,0.1h-0.1L12.4,100.9L12.4,100.9z M18.5,98.9l-1.9,4.6
	c0,0.1-0.1,0.1-0.1,0.2c0,0-0.1,0.1-0.2,0.1h-0.8l0.7-1.5L14.8,99h1c0.1,0,0.1,0,0.2,0.1l0.1,0.1l0.6,1.6c0.1,0.1,0.1,0.3,0.1,0.4
	c0-0.1,0.1-0.1,0.1-0.2s0.1-0.1,0.1-0.2l0.5-1.6c0-0.1,0.1-0.1,0.1-0.1c0.1,0,0.1-0.1,0.2-0.1L18.5,98.9L18.5,98.9z M23,98.4
	c0,0.1-0.1,0.1-0.1,0.1h-0.1c-0.1,0-0.1,0-0.2,0s-0.1-0.1-0.2-0.1s-0.2-0.1-0.3-0.1c-0.1,0-0.2-0.1-0.3-0.1c-0.2,0-0.4,0-0.5,0.1
	s-0.2,0.2-0.2,0.4c0,0.1,0,0.2,0.1,0.3c0.1,0.1,0.2,0.1,0.3,0.2c0.1,0,0.2,0.1,0.4,0.1c0.1,0,0.3,0.1,0.4,0.1s0.3,0.1,0.4,0.2
	s0.3,0.2,0.4,0.3c0.1,0.1,0.2,0.2,0.3,0.4c0.1,0.1,0.1,0.3,0.1,0.5s0,0.5-0.1,0.7s-0.2,0.4-0.4,0.5c-0.2,0.2-0.3,0.3-0.6,0.4
	c-0.2,0.1-0.5,0.1-0.8,0.1c-0.2,0-0.3,0-0.5,0s-0.3-0.1-0.5-0.1c-0.2-0.1-0.3-0.1-0.4-0.2s-0.3-0.2-0.4-0.3l0.4-0.6l0.1-0.1
	c0,0,0.1,0,0.2,0s0.1,0,0.2,0.1c0.1,0,0.2,0.1,0.2,0.1c0.1,0.1,0.2,0.1,0.3,0.1c0.1,0,0.3,0.1,0.4,0.1c0.2,0,0.4,0,0.5-0.1
	s0.2-0.2,0.2-0.5c0-0.1,0-0.2-0.1-0.3c-0.1-0.1-0.2-0.1-0.3-0.2c-0.1,0-0.2-0.1-0.4-0.1c-0.1,0-0.3-0.1-0.4-0.1s-0.3-0.1-0.4-0.2
	s-0.3-0.2-0.4-0.3c-0.1-0.1-0.2-0.2-0.3-0.4c0-0.1,0-0.3,0-0.5s0-0.4,0.1-0.6s0.2-0.3,0.3-0.5c0.1-0.1,0.3-0.3,0.5-0.3
	c0.2-0.1,0.5-0.1,0.7-0.1s0.3,0,0.5,0c0.1,0,0.3,0.1,0.4,0.1s0.3,0.1,0.4,0.2s0.2,0.1,0.3,0.2L23,98.4z M24.8,101.5
	c0.1,0.1,0.2,0.2,0.3,0.2c0.1,0,0.2,0.1,0.3,0.1c0.1,0,0.2,0,0.3-0.1c0.1,0,0.2-0.1,0.2-0.2c0.1-0.1,0.1-0.2,0.1-0.3
	s0.1-0.3,0.1-0.5s0-0.4,0-0.5S26,100,26,99.9s-0.1-0.1-0.2-0.2c-0.1,0-0.1-0.1-0.2-0.1c-0.2,0-0.3,0-0.4,0.1s-0.2,0.1-0.3,0.3
	L24.8,101.5L24.8,101.5z M24.8,99.3c0.1-0.2,0.3-0.3,0.5-0.4s0.4-0.1,0.6-0.1s0.4,0,0.5,0.1s0.3,0.2,0.4,0.4
	c0.1,0.2,0.2,0.4,0.3,0.6c0.1,0.2,0.1,0.5,0.1,0.8s0,0.5-0.1,0.8c-0.1,0.2-0.2,0.4-0.3,0.6c-0.1,0.2-0.3,0.3-0.5,0.4
	s-0.4,0.1-0.6,0.1s-0.3,0-0.5-0.1c-0.1-0.1-0.2-0.1-0.4-0.2v1.4h-1.1v-4.8h0.7c0.1,0,0.2,0.1,0.3,0.2L24.8,99.3z M28.8,97.3v5.2
	h-1.1v-5.2H28.8z M30.5,98.9v3.6h-1.1v-3.6H30.5z M30.6,97.9c0,0.1,0,0.2-0.1,0.2c0,0.1-0.1,0.1-0.1,0.2c-0.1,0.1-0.1,0.1-0.2,0.1
	s-0.2,0-0.3,0c-0.1,0-0.2,0-0.2,0c-0.1,0-0.1-0.1-0.2-0.1c-0.1-0.1-0.1-0.1-0.1-0.2s0-0.2,0-0.2c0-0.1,0-0.2,0-0.2
	c0-0.1,0.1-0.1,0.1-0.2c0.1-0.1,0.1-0.1,0.2-0.1s0.2,0,0.2,0c0.1,0,0.2,0,0.3,0c0.1,0,0.2,0.1,0.2,0.1c0.1,0.1,0.1,0.1,0.1,0.2
	C30.6,97.7,30.6,97.8,30.6,97.9z M32.4,102.6c-0.2,0-0.3,0-0.5-0.1c-0.1-0.1-0.2-0.1-0.3-0.2c-0.1-0.1-0.2-0.2-0.2-0.3
	c0-0.1-0.1-0.3-0.1-0.4v-1.9H31c-0.1,0-0.1,0-0.1-0.1c0,0-0.1-0.1-0.1-0.2V99l0.6-0.1l0.2-0.9c0-0.1,0.1-0.2,0.2-0.2h0.6v1.1h0.9
	v0.7h-0.9v1.8c0,0.1,0,0.2,0.1,0.2c0,0.1,0.1,0.1,0.2,0.1h0.1h0.1c0,0,0,0,0.1,0c0,0,0,0,0.1,0h0.1c0,0,0,0,0.1,0.1l0.3,0.5
	c-0.1,0.1-0.3,0.2-0.5,0.2C32.8,102.5,32.6,102.6,32.4,102.6z"/>
<g class="st2">
	<rect x="2" y="104.5" class="st3" width="36" height="1"/>
</g>
<path class="st1" d="M3.5,106h33c0.6,0,1,0.4,1,1v6c0,0.6-0.4,1-1,1h-33c-0.6,0-1-0.4-1-1v-6C2.5,106.4,2.9,106,3.5,106z"/>
<path class="st1" d="M3.5,106h33c0.6,0,1,0.4,1,1v6c0,0.6-0.4,1-1,1h-33c-0.6,0-1-0.4-1-1v-6C2.5,106.4,2.9,106,3.5,106z"/>
<path d="M8.4,111.2L8.4,111.2c0.1,0,0.1,0,0.2,0.1l0.5,0.5c-0.2,0.3-0.5,0.5-0.8,0.6s-0.7,0.2-1.1,0.2s-0.7-0.1-1-0.2
	s-0.6-0.3-0.8-0.5c-0.2-0.2-0.4-0.5-0.5-0.8s-0.2-0.7-0.2-1c0-0.4,0.1-0.7,0.2-1s0.3-0.6,0.5-0.8c0.2-0.2,0.5-0.4,0.8-0.5
	s0.7-0.2,1-0.2c0.2,0,0.4,0,0.5,0.1c0.2,0,0.3,0.1,0.5,0.1c0.1,0.1,0.3,0.1,0.4,0.2c0.1,0.1,0.2,0.2,0.3,0.3l-0.4,0.5l-0.1,0.1H8.3
	H8.2c0,0-0.1,0-0.1-0.1L8,108.7c0,0-0.1-0.1-0.2-0.1s-0.1-0.1-0.2-0.1s-0.2,0-0.3,0c-0.2,0-0.4,0-0.5,0.1c-0.2,0.1-0.3,0.2-0.4,0.3
	c-0.1,0.1-0.2,0.3-0.3,0.5C6,109.6,6,109.8,6,110.1c0,0.3,0,0.5,0.1,0.7s0.2,0.4,0.3,0.5c0.1,0.1,0.3,0.2,0.4,0.3
	c0.2,0.1,0.3,0.1,0.5,0.1c0.1,0,0.2,0,0.3,0c0.1,0,0.2,0,0.2-0.1c0.1,0,0.1-0.1,0.2-0.1c0.1,0,0.1-0.1,0.2-0.2
	C8.2,111.3,8.3,111.3,8.4,111.2C8.3,111.2,8.4,111.2,8.4,111.2z M10.4,109.2c0.1-0.1,0.3-0.2,0.4-0.3c0.2-0.1,0.3-0.1,0.5-0.1
	s0.4,0,0.5,0.1c0.2,0.1,0.3,0.2,0.4,0.3c0.1,0.1,0.2,0.3,0.2,0.4c0.1,0.2,0.1,0.4,0.1,0.5v2.3h-1.1v-2.3c0-0.2,0-0.3-0.1-0.4
	s-0.2-0.2-0.4-0.2c-0.1,0-0.2,0-0.3,0.1c-0.1,0-0.2,0.1-0.3,0.2v2.6h-1v-5.2h1.1C10.4,107.2,10.4,109.2,10.4,109.2z M15.1,111
	c-0.2,0-0.4,0-0.5,0.1c-0.1,0-0.3,0.1-0.3,0.1c-0.1,0-0.1,0.1-0.2,0.1c0,0.1,0,0.1,0,0.2s0,0.2,0.1,0.3c0.1,0,0.2,0.1,0.3,0.1
	s0.3,0,0.4-0.1c0.1,0,0.2-0.1,0.3-0.2V111H15.1z M13.1,109.4c0.2-0.2,0.5-0.3,0.7-0.4c0.3-0.1,0.6-0.1,0.9-0.1c0.2,0,0.4,0,0.6,0.1
	c0.2,0.1,0.3,0.2,0.4,0.3c0.1,0.1,0.2,0.3,0.3,0.5s0.1,0.4,0.1,0.6v2.3h-0.5c-0.1,0-0.2,0-0.2,0c-0.1,0-0.1-0.1-0.1-0.2l-0.1-0.2
	c-0.1,0.1-0.2,0.1-0.3,0.2s-0.2,0.1-0.3,0.2c-0.1,0-0.2,0.1-0.3,0.1s-0.2,0-0.3,0c-0.2,0-0.3,0-0.5-0.1c-0.1,0-0.3-0.1-0.3-0.2
	c-0.1-0.1-0.2-0.2-0.2-0.3c-0.1-0.1-0.1-0.3-0.1-0.4s0-0.3,0.1-0.4s0.2-0.3,0.3-0.4c0.2-0.1,0.4-0.2,0.7-0.3c0.3-0.1,0.6-0.1,1-0.1
	v-0.2c0-0.2,0-0.4-0.1-0.5s-0.2-0.1-0.4-0.1c-0.1,0-0.2,0-0.3,0s-0.2,0.1-0.2,0.1c-0.1,0-0.1,0.1-0.2,0.1c-0.1,0-0.1,0-0.2,0
	c-0.1,0-0.1,0-0.2-0.1c-0.1,0-0.1-0.1-0.1-0.1L13.1,109.4z M17.7,109.3c0.1-0.1,0.1-0.1,0.2-0.2s0.2-0.1,0.2-0.1
	c0.1,0,0.2-0.1,0.3-0.1c0.1,0,0.2,0,0.3,0c0.2,0,0.4,0,0.5,0.1c0.2,0.1,0.3,0.2,0.4,0.3c0.1,0.1,0.2,0.3,0.2,0.4
	c0.1,0.2,0.1,0.4,0.1,0.5v2.3h-1.1v-2.3c0-0.2,0-0.3-0.1-0.4s-0.2-0.2-0.4-0.2c-0.1,0-0.2,0-0.3,0.1c-0.1,0-0.2,0.1-0.3,0.2v2.6
	h-1.1v-3.6h0.7c0.1,0,0.2,0.1,0.3,0.2L17.7,109.3z M25.1,108.4c0,0.1-0.1,0.1-0.1,0.1h-0.1c-0.1,0-0.1,0-0.2,0s-0.1-0.1-0.2-0.1
	s-0.2-0.1-0.3-0.1c-0.1,0-0.2-0.1-0.3-0.1c-0.2,0-0.4,0-0.5,0.1s-0.2,0.2-0.2,0.4c0,0.1,0,0.2,0.1,0.3c0.1,0.1,0.2,0.1,0.3,0.2
	c0.1,0,0.2,0.1,0.4,0.1c0.1,0,0.3,0.1,0.4,0.1s0.3,0.1,0.4,0.2s0.3,0.2,0.4,0.3c0.1,0.1,0.2,0.2,0.3,0.4c0.1,0.1,0.1,0.3,0.1,0.5
	s0,0.5-0.1,0.7s-0.2,0.4-0.4,0.5c-0.2,0.2-0.3,0.3-0.6,0.4c-0.2,0.1-0.5,0.1-0.8,0.1c-0.2,0-0.3,0-0.5,0s-0.3-0.1-0.5-0.1
	c-0.2-0.1-0.3-0.1-0.4-0.2s-0.3-0.2-0.4-0.3l0.4-0.6l0.1-0.1c0,0,0.1,0,0.2,0s0.1,0,0.2,0.1c0.1,0,0.2,0.1,0.2,0.1
	c0.1,0.1,0.2,0.1,0.3,0.1c0.1,0,0.3,0.1,0.4,0.1c0.2,0,0.4,0,0.5-0.1s0.2-0.2,0.2-0.5c0-0.1,0-0.2-0.1-0.3c-0.1-0.1-0.2-0.1-0.3-0.2
	c-0.1,0-0.2-0.1-0.4-0.1c-0.1,0-0.3-0.1-0.4-0.1s-0.3-0.1-0.4-0.2s-0.3-0.2-0.4-0.3c-0.1-0.1-0.2-0.2-0.3-0.4
	c-0.1-0.2-0.1-0.4-0.1-0.6s0-0.4,0.1-0.6s0.2-0.3,0.3-0.5c0.1-0.1,0.3-0.3,0.5-0.3c0.2-0.1,0.5-0.1,0.7-0.1s0.3,0,0.5,0
	c0.1,0,0.3,0.1,0.4,0.1s0.3,0.1,0.4,0.2s0.2,0.1,0.3,0.2L25.1,108.4z M26.9,111.5c0.1,0.1,0.2,0.2,0.3,0.2c0.1,0,0.2,0.1,0.3,0.1
	c0.1,0,0.2,0,0.3-0.1c0.1,0,0.2-0.1,0.2-0.2c0.1-0.1,0.1-0.2,0.1-0.3s0.1-0.3,0.1-0.5s0-0.4,0-0.5s-0.1-0.2-0.1-0.3
	c0-0.1-0.1-0.1-0.2-0.2c-0.1,0-0.1-0.1-0.2-0.1c-0.2,0-0.3,0-0.4,0.1s-0.2,0.1-0.3,0.3L26.9,111.5L26.9,111.5z M26.8,109.3
	c0.1-0.2,0.3-0.3,0.5-0.4s0.4-0.1,0.6-0.1s0.4,0,0.5,0.1c0.2,0.1,0.3,0.2,0.4,0.4c0.1,0.2,0.2,0.4,0.3,0.6c0.1,0.2,0.1,0.5,0.1,0.8
	s0,0.5-0.1,0.8c-0.1,0.2-0.2,0.4-0.3,0.6c-0.1,0.2-0.3,0.3-0.5,0.4s-0.4,0.1-0.6,0.1s-0.3,0-0.5-0.1c-0.1-0.1-0.2-0.1-0.4-0.2v1.4
	h-1.1v-4.8h0.7c0.1,0,0.2,0.1,0.3,0.2L26.8,109.3z M30.8,107.3v5.2h-1.1v-5.2H30.8z M32.6,108.9v3.6h-1.1v-3.6H32.6z M32.7,107.9
	c0,0.1,0,0.2-0.1,0.2c0,0.1-0.1,0.1-0.1,0.2c-0.1,0.1-0.1,0.1-0.2,0.1c-0.1,0-0.2,0-0.3,0c-0.1,0-0.2,0-0.2,0
	c-0.1,0-0.1-0.1-0.2-0.1c-0.1-0.1-0.1-0.1-0.1-0.2s0-0.2,0-0.2c0-0.1,0-0.2,0-0.2c0-0.1,0.1-0.1,0.1-0.2c0.1-0.1,0.1-0.1,0.2-0.1
	s0.2,0,0.2,0c0.1,0,0.2,0,0.3,0s0.2,0.1,0.2,0.1c0.1,0.1,0.1,0.1,0.1,0.2C32.7,107.7,32.7,107.8,32.7,107.9z M34.5,112.6
	c-0.2,0-0.3,0-0.5-0.1c-0.1-0.1-0.2-0.1-0.3-0.2s-0.2-0.2-0.2-0.3c0-0.1-0.1-0.3-0.1-0.4v-1.9h-0.3c-0.1,0-0.1,0-0.1-0.1
	c0,0-0.1-0.1-0.1-0.2V109l0.6-0.1l0.2-0.9c0-0.1,0.1-0.2,0.2-0.2h0.6v1.1h0.9v0.7h-0.9v1.8c0,0.1,0,0.2,0.1,0.2
	c0,0.1,0.1,0.1,0.2,0.1h0.1H35c0,0,0,0,0.1,0c0,0,0,0,0.1,0h0.1c0,0,0,0,0.1,0.1l0.3,0.5c-0.1,0.1-0.3,0.2-0.5,0.2
	C34.9,112.5,34.7,112.6,34.5,112.6z"/>
<g class="st2">
	<rect x="2" y="114.5" class="st3" width="36" height="1"/>
</g>
<path class="st1" d="M17.9,119.9c0,0.4-0.1,0.7-0.2,1s-0.3,0.6-0.5,0.8c-0.2,0.2-0.5,0.4-0.8,0.5s-0.7,0.2-1.1,0.2h-2v-5.1h2
	c0.4,0,0.8,0.1,1.1,0.2c0.3,0.1,0.6,0.3,0.8,0.5c0.2,0.2,0.4,0.5,0.5,0.8C17.9,119.2,17.9,119.6,17.9,119.9z M16.7,119.9
	c0-0.3,0-0.5-0.1-0.7s-0.2-0.4-0.3-0.5c-0.1-0.1-0.3-0.3-0.4-0.3c-0.2-0.1-0.4-0.1-0.6-0.1h-0.8v3.3h0.8c0.2,0,0.4,0,0.6-0.1
	s0.3-0.2,0.4-0.3c0.1-0.1,0.2-0.3,0.3-0.5C16.7,120.4,16.7,120.2,16.7,119.9z M21.6,118.9v3.6h-0.7c-0.1,0-0.2-0.1-0.3-0.2l-0.1-0.2
	c-0.1,0.1-0.1,0.1-0.2,0.2s-0.2,0.1-0.2,0.1c-0.1,0-0.2,0.1-0.3,0.1c-0.1,0-0.2,0-0.3,0c-0.2,0-0.4,0-0.5-0.1
	c-0.2-0.1-0.3-0.2-0.4-0.3c-0.1-0.1-0.2-0.3-0.2-0.4c-0.1-0.2-0.1-0.4-0.1-0.6v-2.3h1.1v2.3c0,0.2,0,0.3,0.1,0.4s0.2,0.1,0.4,0.1
	c0.1,0,0.2,0,0.3-0.1c0.1-0.1,0.2-0.1,0.3-0.2v-2.6h1.1C21.6,118.7,21.6,118.9,21.6,118.9z M24.1,121c-0.2,0-0.4,0-0.5,0.1
	s-0.3,0.1-0.3,0.1c-0.1,0-0.1,0.1-0.2,0.1c0,0.1,0,0.1,0,0.2s0,0.2,0.1,0.3c0.1,0,0.2,0.1,0.3,0.1c0.1,0,0.3,0,0.4-0.1
	c0.1,0,0.2-0.1,0.3-0.2L24.1,121L24.1,121z M22.2,119.4c0.2-0.2,0.5-0.3,0.7-0.4c0.3-0.1,0.6-0.1,0.9-0.1c0.2,0,0.4,0,0.6,0.1
	s0.3,0.2,0.4,0.3c0.1,0.1,0.2,0.3,0.3,0.5c0.1,0.2,0.1,0.4,0.1,0.6v2.3h-0.5c-0.1,0-0.2,0-0.2,0c-0.1,0-0.1-0.1-0.1-0.2l-0.1-0.2
	c-0.1,0.1-0.2,0.1-0.3,0.2c-0.1,0.1-0.2,0.1-0.3,0.2c-0.1,0-0.2,0.1-0.3,0.1c-0.1,0-0.2,0-0.3,0c-0.2,0-0.3,0-0.5-0.1
	c-0.1,0-0.3-0.1-0.3-0.2c-0.1-0.1-0.2-0.2-0.2-0.3c-0.1-0.1-0.1-0.3-0.1-0.4s0-0.3,0.1-0.4s0.2-0.3,0.3-0.4c0.2-0.1,0.4-0.2,0.7-0.3
	c0.3-0.1,0.6-0.1,1-0.1v-0.2c0-0.2,0-0.4-0.1-0.5s-0.2-0.1-0.4-0.1c-0.1,0-0.2,0-0.3,0c-0.1,0-0.2,0.1-0.2,0.1
	c-0.1,0-0.1,0.1-0.2,0.1s-0.1,0-0.2,0s-0.1,0-0.2-0.1c-0.1,0-0.1-0.1-0.1-0.1L22.2,119.4z M26.8,117.3v5.2h-1.1v-5.2H26.8z"/>
<path class="st3" d="M2.5,85h35v-1h-35V85z M39,86.5v37h1v-37H39z M37.5,125h-35v1h35V125z M1,123.5v-37H0v37H1z M2.5,125
	c-0.8,0-1.5-0.7-1.5-1.5H0c0,1.4,1.1,2.5,2.5,2.5V125z M39,123.5c0,0.8-0.7,1.5-1.5,1.5v1c1.4,0,2.5-1.1,2.5-2.5H39z M37.5,85
	c0.8,0,1.5,0.7,1.5,1.5h1c0-1.4-1.1-2.5-2.5-2.5V85z M2.5,84C1.1,84,0,85.1,0,86.5h1C1,85.7,1.7,85,2.5,85V84z"/>
<path class="st0" d="M0.5,128.5c0-1.1,0.9-2,2-2h35c1.1,0,2,0.9,2,2v37c0,1.1-0.9,2-2,2h-35c-1.1,0-2-0.9-2-2V128.5z"/>
<path class="st1" d="M14,130.4c0,0.1-0.1,0.1-0.1,0.1h-0.1c-0.1,0-0.1,0-0.2,0c-0.1,0-0.1-0.1-0.2-0.1c-0.1,0-0.2-0.1-0.3-0.1
	s-0.2-0.1-0.3-0.1c-0.2,0-0.4,0-0.5,0.1s-0.2,0.2-0.2,0.4c0,0.1,0,0.2,0.1,0.3s0.2,0.1,0.3,0.2c0.1,0,0.2,0.1,0.4,0.1
	c0.1,0,0.3,0.1,0.4,0.1c0.1,0,0.3,0.1,0.4,0.2c0.1,0.1,0.3,0.2,0.4,0.3c0.1,0.1,0.2,0.2,0.3,0.4c0.1,0.1,0.1,0.3,0.1,0.5
	s0,0.5-0.1,0.7s-0.2,0.4-0.4,0.5c-0.2,0.2-0.3,0.3-0.6,0.4c-0.2,0.1-0.5,0.1-0.8,0.1c-0.2,0-0.3,0-0.5,0s-0.3-0.1-0.5-0.1
	c-0.2-0.1-0.3-0.1-0.4-0.2c-0.1-0.1-0.3-0.2-0.4-0.3l0.4-0.6l0.1-0.1c0,0,0.1,0,0.2,0c0.1,0,0.1,0,0.2,0.1c0.1,0,0.2,0.1,0.2,0.1
	c0.1,0.1,0.2,0.1,0.3,0.1s0.3,0.1,0.4,0.1c0.2,0,0.4,0,0.5-0.1s0.2-0.2,0.2-0.5c0-0.1,0-0.2-0.1-0.3s-0.2-0.1-0.3-0.2
	c-0.1,0-0.2-0.1-0.4-0.1c-0.1,0-0.3-0.1-0.4-0.1c-0.1,0-0.3-0.1-0.4-0.2c-0.1-0.1-0.3-0.2-0.4-0.3c-0.1-0.1-0.2-0.2-0.3-0.4
	s-0.1-0.4-0.1-0.6c0-0.2,0-0.4,0.1-0.6c0.1-0.2,0.2-0.3,0.3-0.5c0.1-0.1,0.3-0.3,0.5-0.3c0.2-0.1,0.5-0.1,0.7-0.1s0.3,0,0.5,0
	c0.1,0,0.3,0.1,0.4,0.1c0.1,0,0.3,0.1,0.4,0.2c0.1,0.1,0.2,0.1,0.3,0.2L14,130.4z M16,130.9v3.6h-1.1v-3.6H16z M16.1,129.9
	c0,0.1,0,0.2-0.1,0.2c0,0.1-0.1,0.1-0.1,0.2c-0.1,0.1-0.1,0.1-0.2,0.1c-0.1,0-0.2,0-0.3,0s-0.2,0-0.2,0c-0.1,0-0.1-0.1-0.2-0.1
	c-0.1-0.1-0.1-0.1-0.1-0.2c0-0.1,0-0.2,0-0.2c0-0.1,0-0.2,0-0.2c0-0.1,0.1-0.1,0.1-0.2c0.1-0.1,0.1-0.1,0.2-0.1c0.1,0,0.2,0,0.2,0
	c0.1,0,0.2,0,0.3,0s0.2,0.1,0.2,0.1c0.1,0.1,0.1,0.1,0.1,0.2C16.1,129.7,16.1,129.8,16.1,129.9z M17.6,131.3
	c0.1-0.1,0.1-0.1,0.2-0.2C17.9,131,18,131,18,131c0.1,0,0.2-0.1,0.3-0.1c0.1,0,0.2,0,0.3,0c0.2,0,0.4,0,0.5,0.1
	c0.2,0.1,0.3,0.2,0.4,0.3s0.2,0.3,0.2,0.4c0.1,0.2,0.1,0.4,0.1,0.5v2.3h-1.1v-2.3c0-0.2,0-0.3-0.1-0.4c-0.1-0.1-0.2-0.1-0.4-0.1
	c-0.1,0-0.2,0-0.3,0.1c-0.1,0-0.2,0.1-0.3,0.2v2.6h-1.1V131h0.7c0.1,0,0.2,0.1,0.3,0.2L17.6,131.3z M21.9,132.5c0.2,0,0.3,0,0.4-0.1
	s0.1-0.2,0.1-0.3s0-0.3-0.1-0.3c-0.1-0.1-0.2-0.1-0.4-0.1c-0.2,0-0.3,0-0.4,0.1s-0.1,0.2-0.1,0.3s0,0.1,0,0.2c0,0.1,0.1,0.1,0.1,0.2
	c0,0,0.1,0.1,0.2,0.1C21.7,132.5,21.8,132.5,21.9,132.5z M22.7,134.6c0-0.1,0-0.1-0.1-0.2c-0.1,0-0.2-0.1-0.3-0.1
	c-0.1,0-0.3,0-0.4,0c-0.2,0-0.3,0-0.5,0c-0.1,0-0.1,0.1-0.2,0.2c0,0.1-0.1,0.1-0.1,0.2c0,0.1,0,0.1,0,0.1l0.1,0.1
	c0.1,0,0.1,0.1,0.2,0.1s0.2,0,0.4,0c0.2,0,0.3,0,0.4,0s0.2,0,0.2-0.1c0.1,0,0.1-0.1,0.1-0.1C22.7,134.7,22.7,134.7,22.7,134.6z
	 M23.8,131v0.4c0,0.1,0,0.1-0.1,0.1c0,0-0.1,0.1-0.2,0.1l-0.3,0.1c0,0.1,0,0.1,0,0.2c0,0.1,0,0.1,0,0.2c0,0.2,0,0.3-0.1,0.5
	c-0.1,0.1-0.2,0.3-0.3,0.4c-0.1,0.1-0.3,0.2-0.5,0.2c-0.2,0.1-0.4,0.1-0.6,0.1c-0.1,0-0.1,0-0.2,0s-0.1,0-0.2,0s-0.1,0.1-0.1,0.2
	c0,0.1,0,0.1,0.1,0.1s0.2,0,0.3,0.1c0.1,0,0.2,0,0.4,0c0.1,0,0.3,0,0.4,0s0.3,0,0.4,0.1c0.1,0,0.3,0.1,0.4,0.1
	c0.1,0.1,0.2,0.2,0.3,0.3c0.1,0.1,0.1,0.3,0.1,0.4c0,0.2,0,0.3-0.1,0.5s-0.2,0.3-0.4,0.4s-0.3,0.2-0.6,0.3c-0.2,0.1-0.5,0.1-0.8,0.1
	s-0.5,0-0.7-0.1s-0.4-0.1-0.5-0.2c-0.1-0.1-0.2-0.2-0.3-0.3c-0.1-0.1-0.1-0.2-0.1-0.4s0-0.3,0.1-0.4c0.1-0.1,0.2-0.2,0.4-0.3
	c-0.1-0.1-0.2-0.1-0.2-0.2c-0.1-0.1-0.1-0.2-0.1-0.3s0-0.1,0-0.2c0-0.1,0-0.1,0.1-0.2c0-0.1,0.1-0.1,0.2-0.2
	c0.1-0.1,0.1-0.1,0.2-0.1c-0.2-0.1-0.3-0.2-0.4-0.4s-0.2-0.4-0.2-0.6c0-0.2,0-0.3,0.1-0.5c0.1-0.1,0.2-0.3,0.3-0.4
	c0.1-0.1,0.3-0.2,0.5-0.2c0.2-0.1,0.4-0.1,0.6-0.1c0.3,0,0.6,0.1,0.8,0.2L23.8,131L23.8,131z M25.2,129.3v5.2h-1.1v-5.2H25.2z
	 M28.1,132.2c0-0.1,0-0.2,0-0.3s-0.1-0.2-0.1-0.2c0-0.1-0.1-0.1-0.2-0.2c-0.1,0-0.2-0.1-0.3-0.1c-0.2,0-0.4,0.1-0.5,0.2
	c-0.1,0.1-0.2,0.3-0.2,0.5h1.3C28.1,132.1,28.1,132.2,28.1,132.2z M26.8,132.9c0,0.3,0.1,0.5,0.3,0.7c0.1,0.1,0.3,0.2,0.6,0.2
	c0.1,0,0.2,0,0.3,0c0.1,0,0.2-0.1,0.2-0.1c0.1,0,0.1-0.1,0.2-0.1s0.1,0,0.2,0s0.2,0,0.2,0.1l0.3,0.4c-0.1,0.1-0.2,0.2-0.4,0.3
	c-0.1,0.1-0.3,0.1-0.4,0.2c-0.1,0-0.3,0.1-0.4,0.1s-0.3,0-0.4,0c-0.3,0-0.5,0-0.7-0.1s-0.4-0.2-0.6-0.4s-0.3-0.4-0.4-0.6
	c-0.1-0.2-0.1-0.5-0.1-0.8c0-0.2,0-0.5,0.1-0.7s0.2-0.4,0.4-0.6c0.2-0.2,0.3-0.3,0.6-0.4c0.2-0.1,0.5-0.1,0.7-0.1s0.5,0,0.7,0.1
	s0.4,0.2,0.5,0.3s0.3,0.3,0.3,0.5c0.1,0.2,0.1,0.4,0.1,0.7c0,0.1,0,0.1,0,0.2c0,0.1,0,0.1,0,0.1s0,0.1-0.1,0.1h-0.1L26.8,132.9
	L26.8,132.9z"/>
<g class="st4">
	<rect x="2" y="136.5" class="st5" width="36" height="1"/>
</g>
<path class="st1" d="M8.2,141.5h0.2c0.2,0,0.3-0.1,0.4-0.2l1.1-1.7c0.1-0.1,0.1-0.1,0.2-0.2c0.1,0,0.2-0.1,0.3-0.1h1l-1.5,2.1
	c-0.1,0.1-0.2,0.2-0.3,0.3c0.1,0,0.2,0.1,0.2,0.1c0.1,0.1,0.1,0.1,0.2,0.2l1.5,2.4h-1.1c-0.1,0-0.1,0-0.2,0h-0.1c0,0-0.1,0-0.1-0.1
	l-0.1-0.1l-1.2-1.8c0-0.1-0.1-0.1-0.2-0.1c-0.1,0-0.1,0-0.3,0l0,0v2.2H7v-5.1h1.2V141.5z M13.7,142.2c0-0.1,0-0.2,0-0.3
	s-0.1-0.2-0.1-0.2c0-0.1-0.1-0.1-0.2-0.2c-0.1,0-0.2-0.1-0.3-0.1c-0.2,0-0.4,0.1-0.5,0.2c-0.1,0.1-0.2,0.3-0.2,0.5h1.3V142.2z
	 M12.4,142.9c0,0.3,0.1,0.5,0.3,0.7c0.1,0.1,0.3,0.2,0.6,0.2c0.1,0,0.2,0,0.3,0s0.2-0.1,0.2-0.1c0.1,0,0.1-0.1,0.2-0.1
	c0.1,0,0.1,0,0.2,0c0.1,0,0.2,0,0.2,0.1l0.3,0.4c-0.1,0.1-0.2,0.2-0.4,0.3c-0.1,0.1-0.3,0.1-0.4,0.2c-0.1,0-0.3,0.1-0.4,0.1
	c-0.1,0-0.3,0-0.4,0c-0.3,0-0.5,0-0.7-0.1s-0.4-0.2-0.6-0.4c-0.2-0.2-0.3-0.4-0.4-0.6c-0.1-0.2-0.1-0.5-0.1-0.8c0-0.2,0-0.5,0.1-0.7
	s0.2-0.4,0.4-0.6c0.2-0.2,0.3-0.3,0.6-0.4c0.2-0.1,0.5-0.1,0.7-0.1s0.5,0,0.7,0.1s0.4,0.2,0.5,0.3s0.3,0.3,0.3,0.5
	c0.1,0.2,0.1,0.4,0.1,0.7c0,0.1,0,0.1,0,0.2c0,0.1,0,0.1,0,0.1s0,0.1-0.1,0.1h-0.1L12.4,142.9L12.4,142.9z M18.5,140.9l-1.9,4.6
	c0,0.1-0.1,0.1-0.1,0.2c0,0-0.1,0.1-0.2,0.1h-0.8l0.7-1.5l-1.4-3.3h1c0.1,0,0.1,0,0.2,0.1l0.1,0.1l0.6,1.6c0.1,0.1,0.1,0.3,0.1,0.4
	c0-0.1,0.1-0.1,0.1-0.2c0-0.1,0.1-0.1,0.1-0.2l0.5-1.6c0-0.1,0.1-0.1,0.1-0.1c0.1,0,0.1-0.1,0.2-0.1h0.7
	C18.5,141,18.5,140.9,18.5,140.9z M23,140.4c0,0.1-0.1,0.1-0.1,0.1h-0.1c-0.1,0-0.1,0-0.2,0s-0.1-0.1-0.2-0.1s-0.2-0.1-0.3-0.1
	c-0.1,0-0.2-0.1-0.3-0.1c-0.2,0-0.4,0-0.5,0.1s-0.2,0.2-0.2,0.4c0,0.1,0,0.2,0.1,0.3s0.2,0.1,0.3,0.2c0.1,0,0.2,0.1,0.4,0.1
	c0.1,0,0.3,0.1,0.4,0.1s0.3,0.1,0.4,0.2c0.1,0.1,0.3,0.2,0.4,0.3s0.2,0.2,0.3,0.4c0.1,0.1,0.1,0.3,0.1,0.5s0,0.5-0.1,0.7
	s-0.2,0.4-0.4,0.5c-0.2,0.2-0.3,0.3-0.6,0.4c-0.2,0.1-0.5,0.1-0.8,0.1c-0.2,0-0.3,0-0.5,0s-0.3-0.1-0.5-0.1
	c-0.2-0.1-0.3-0.1-0.4-0.2c-0.1-0.1-0.3-0.2-0.4-0.3l0.4-0.6l0.1-0.1c0,0,0.1,0,0.2,0s0.1,0,0.2,0.1c0.1,0,0.2,0.1,0.2,0.1
	c0.1,0.1,0.2,0.1,0.3,0.1c0.1,0,0.3,0.1,0.4,0.1c0.2,0,0.4,0,0.5-0.1s0.2-0.2,0.2-0.5c0-0.1,0-0.2-0.1-0.3s-0.2-0.1-0.3-0.2
	c-0.1,0-0.2-0.1-0.4-0.1c-0.1,0-0.3-0.1-0.4-0.1s-0.3-0.1-0.4-0.2c-0.1-0.1-0.3-0.2-0.4-0.3s-0.2-0.2-0.3-0.4
	c-0.1-0.2-0.1-0.4-0.1-0.6c0-0.2,0-0.4,0.1-0.6c0.1-0.2,0.2-0.3,0.3-0.5c0.1-0.1,0.3-0.3,0.5-0.3c0.2-0.1,0.5-0.1,0.7-0.1
	s0.3,0,0.5,0c0.1,0,0.3,0.1,0.4,0.1s0.3,0.1,0.4,0.2c0.1,0.1,0.2,0.1,0.3,0.2L23,140.4z M24.8,143.5c0.1,0.1,0.2,0.2,0.3,0.2
	c0.1,0,0.2,0.1,0.3,0.1c0.1,0,0.2,0,0.3-0.1c0.1,0,0.2-0.1,0.2-0.2c0.1-0.1,0.1-0.2,0.1-0.3s0.1-0.3,0.1-0.5s0-0.4,0-0.5
	S26,142,26,141.9s-0.1-0.1-0.2-0.2c-0.1,0-0.1-0.1-0.2-0.1c-0.2,0-0.3,0-0.4,0.1s-0.2,0.1-0.3,0.3L24.8,143.5L24.8,143.5z
	 M24.8,141.3c0.1-0.2,0.3-0.3,0.5-0.4c0.2-0.1,0.4-0.1,0.6-0.1s0.4,0,0.5,0.1s0.3,0.2,0.4,0.4s0.2,0.4,0.3,0.6
	c0.1,0.2,0.1,0.5,0.1,0.8s0,0.5-0.1,0.8c-0.1,0.2-0.2,0.4-0.3,0.6c-0.1,0.2-0.3,0.3-0.5,0.4c-0.2,0.1-0.4,0.1-0.6,0.1
	s-0.3,0-0.5-0.1c-0.1-0.1-0.2-0.1-0.4-0.2v1.4h-1.1v-4.8h0.7c0.1,0,0.2,0.1,0.3,0.2L24.8,141.3z M28.8,139.3v5.2h-1.1v-5.2H28.8z
	 M30.5,140.9v3.6h-1.1v-3.6H30.5z M30.6,139.9c0,0.1,0,0.2-0.1,0.2c0,0.1-0.1,0.1-0.1,0.2c-0.1,0.1-0.1,0.1-0.2,0.1s-0.2,0-0.3,0
	c-0.1,0-0.2,0-0.2,0c-0.1,0-0.1-0.1-0.2-0.1c-0.1-0.1-0.1-0.1-0.1-0.2c0-0.1,0-0.2,0-0.2c0-0.1,0-0.2,0-0.2c0-0.1,0.1-0.1,0.1-0.2
	c0.1-0.1,0.1-0.1,0.2-0.1s0.2,0,0.2,0c0.1,0,0.2,0,0.3,0c0.1,0,0.2,0.1,0.2,0.1c0.1,0.1,0.1,0.1,0.1,0.2
	C30.6,139.7,30.6,139.8,30.6,139.9z M32.4,144.6c-0.2,0-0.3,0-0.5-0.1c-0.1-0.1-0.2-0.1-0.3-0.2c-0.1-0.1-0.2-0.2-0.2-0.3
	s-0.1-0.3-0.1-0.4v-1.9H31c-0.1,0-0.1,0-0.1-0.1c0,0-0.1-0.1-0.1-0.2V141l0.6-0.1l0.2-0.9c0-0.1,0.1-0.2,0.2-0.2h0.6v1.1h0.9v0.7
	h-0.9v1.8c0,0.1,0,0.2,0.1,0.2c0,0.1,0.1,0.1,0.2,0.1h0.1h0.1c0,0,0,0,0.1,0c0,0,0,0,0.1,0h0.1c0,0,0,0,0.1,0.1l0.3,0.5
	c-0.1,0.1-0.3,0.2-0.5,0.2C32.8,144.5,32.6,144.6,32.4,144.6z"/>
<g class="st4">
	<rect x="2" y="146.5" class="st5" width="36" height="1"/>
</g>
<path class="st1" d="M8.4,153.2L8.4,153.2c0.1,0,0.1,0,0.2,0.1l0.5,0.5c-0.2,0.3-0.5,0.5-0.8,0.6s-0.7,0.2-1.1,0.2s-0.7-0.1-1-0.2
	c-0.3-0.1-0.6-0.3-0.8-0.5c-0.2-0.2-0.4-0.5-0.5-0.8s-0.2-0.7-0.2-1c0-0.4,0.1-0.7,0.2-1s0.3-0.6,0.5-0.8s0.5-0.4,0.8-0.5
	s0.7-0.2,1-0.2c0.2,0,0.4,0,0.5,0.1c0.2,0,0.3,0.1,0.5,0.1c0.1,0.1,0.3,0.1,0.4,0.2c0.1,0.1,0.2,0.2,0.3,0.3l-0.4,0.5l-0.1,0.1H8.3
	H8.2c0,0-0.1,0-0.1-0.1L8,150.7c0,0-0.1-0.1-0.2-0.1s-0.1-0.1-0.2-0.1s-0.2,0-0.3,0c-0.2,0-0.4,0-0.5,0.1c-0.2,0.1-0.3,0.2-0.4,0.3
	s-0.2,0.3-0.3,0.5C6,151.6,6,151.8,6,152.1s0,0.5,0.1,0.7s0.2,0.4,0.3,0.5c0.1,0.1,0.3,0.2,0.4,0.3c0.2,0.1,0.3,0.1,0.5,0.1
	c0.1,0,0.2,0,0.3,0c0.1,0,0.2,0,0.2-0.1c0.1,0,0.1-0.1,0.2-0.1c0.1,0,0.1-0.1,0.2-0.2C8.2,153.3,8.3,153.3,8.4,153.2L8.4,153.2z
	 M10.4,151.2c0.1-0.1,0.3-0.2,0.4-0.3c0.2-0.1,0.3-0.1,0.5-0.1s0.4,0,0.5,0.1c0.2,0.1,0.3,0.2,0.4,0.3c0.1,0.1,0.2,0.3,0.2,0.4
	c0.1,0.2,0.1,0.4,0.1,0.5v2.3h-1.1v-2.3c0-0.2,0-0.3-0.1-0.4c-0.1-0.1-0.2-0.1-0.4-0.1c-0.1,0-0.2,0-0.3,0.1c-0.1,0-0.2,0.1-0.3,0.2
	v2.6h-1v-5.2h1.1C10.4,149.3,10.4,151.2,10.4,151.2z M15.1,153c-0.2,0-0.4,0-0.5,0.1c-0.1,0-0.3,0.1-0.3,0.1c-0.1,0-0.1,0.1-0.2,0.1
	c0,0.1,0,0.1,0,0.2c0,0.1,0,0.2,0.1,0.3c0.1,0,0.2,0.1,0.3,0.1s0.3,0,0.4-0.1c0.1,0,0.2-0.1,0.3-0.2V153H15.1z M13.1,151.4
	c0.2-0.2,0.5-0.3,0.7-0.4c0.3-0.1,0.6-0.1,0.9-0.1c0.2,0,0.4,0,0.6,0.1c0.2,0.1,0.3,0.2,0.4,0.3c0.1,0.1,0.2,0.3,0.3,0.5
	s0.1,0.4,0.1,0.6v2.3h-0.5c-0.1,0-0.2,0-0.2,0c-0.1,0-0.1-0.1-0.1-0.2l-0.1-0.2c-0.1,0.1-0.2,0.1-0.3,0.2c-0.1,0.1-0.2,0.1-0.3,0.2
	c-0.1,0-0.2,0.1-0.3,0.1s-0.2,0-0.3,0c-0.2,0-0.3,0-0.5-0.1c-0.1,0-0.3-0.1-0.3-0.2c-0.1-0.1-0.2-0.2-0.2-0.3
	c-0.1-0.1-0.1-0.3-0.1-0.4c0-0.1,0-0.3,0.1-0.4c0.1-0.1,0.2-0.3,0.3-0.4c0.2-0.1,0.4-0.2,0.7-0.3s0.6-0.1,1-0.1v-0.2
	c0-0.2,0-0.4-0.1-0.5s-0.2-0.1-0.4-0.1c-0.1,0-0.2,0-0.3,0s-0.2,0.1-0.2,0.1c-0.1,0-0.1,0.1-0.2,0.1c-0.1,0-0.1,0-0.2,0
	c-0.1,0-0.1,0-0.2-0.1c-0.1,0-0.1-0.1-0.1-0.1L13.1,151.4z M17.7,151.3c0.1-0.1,0.1-0.1,0.2-0.2c0.1-0.1,0.2-0.1,0.2-0.1
	c0.1,0,0.2-0.1,0.3-0.1c0.1,0,0.2,0,0.3,0c0.2,0,0.4,0,0.5,0.1c0.2,0.1,0.3,0.2,0.4,0.3s0.2,0.3,0.2,0.4c0.1,0.2,0.1,0.4,0.1,0.5
	v2.3h-1.1v-2.3c0-0.2,0-0.3-0.1-0.4c-0.1-0.1-0.2-0.1-0.4-0.1c-0.1,0-0.2,0-0.3,0.1c-0.1,0-0.2,0.1-0.3,0.2v2.6h-1.1V151h0.7
	c0.1,0,0.2,0.1,0.3,0.2L17.7,151.3z M25.1,150.4c0,0.1-0.1,0.1-0.1,0.1h-0.1c-0.1,0-0.1,0-0.2,0s-0.1-0.1-0.2-0.1s-0.2-0.1-0.3-0.1
	c-0.1,0-0.2-0.1-0.3-0.1c-0.2,0-0.4,0-0.5,0.1s-0.2,0.2-0.2,0.4c0,0.1,0,0.2,0.1,0.3s0.2,0.1,0.3,0.2c0.1,0,0.2,0.1,0.4,0.1
	c0.1,0,0.3,0.1,0.4,0.1s0.3,0.1,0.4,0.2c0.1,0.1,0.3,0.2,0.4,0.3s0.2,0.2,0.3,0.4c0.1,0.1,0.1,0.3,0.1,0.5s0,0.5-0.1,0.7
	s-0.2,0.4-0.4,0.5c-0.2,0.2-0.3,0.3-0.6,0.4c-0.2,0.1-0.5,0.1-0.8,0.1c-0.2,0-0.3,0-0.5,0s-0.3-0.1-0.5-0.1
	c-0.2-0.1-0.3-0.1-0.4-0.2c-0.1-0.1-0.3-0.2-0.4-0.3l0.4-0.6l0.1-0.1c0,0,0.1,0,0.2,0s0.1,0,0.2,0.1c0.1,0,0.2,0.1,0.2,0.1
	c0.1,0.1,0.2,0.1,0.3,0.1c0.1,0,0.3,0.1,0.4,0.1c0.2,0,0.4,0,0.5-0.1s0.2-0.2,0.2-0.5c0-0.1,0-0.2-0.1-0.3s-0.2-0.1-0.3-0.2
	c-0.1,0-0.2-0.1-0.4-0.1c-0.1,0-0.3-0.1-0.4-0.1s-0.3-0.1-0.4-0.2c-0.1-0.1-0.3-0.2-0.4-0.3s-0.2-0.2-0.3-0.4
	c-0.1-0.2-0.1-0.4-0.1-0.6c0-0.2,0-0.4,0.1-0.6c0.1-0.2,0.2-0.3,0.3-0.5c0.1-0.1,0.3-0.3,0.5-0.3c0.2-0.1,0.5-0.1,0.7-0.1
	s0.3,0,0.5,0c0.1,0,0.3,0.1,0.4,0.1s0.3,0.1,0.4,0.2c0.1,0.1,0.2,0.1,0.3,0.2L25.1,150.4z M26.9,153.5c0.1,0.1,0.2,0.2,0.3,0.2
	c0.1,0,0.2,0.1,0.3,0.1c0.1,0,0.2,0,0.3-0.1c0.1,0,0.2-0.1,0.2-0.2c0.1-0.1,0.1-0.2,0.1-0.3s0.1-0.3,0.1-0.5s0-0.4,0-0.5
	s-0.1-0.2-0.1-0.3s-0.1-0.1-0.2-0.2c-0.1,0-0.1-0.1-0.2-0.1c-0.2,0-0.3,0-0.4,0.1s-0.2,0.1-0.3,0.3L26.9,153.5L26.9,153.5z
	 M26.8,151.3c0.1-0.2,0.3-0.3,0.5-0.4c0.2-0.1,0.4-0.1,0.6-0.1s0.4,0,0.5,0.1c0.2,0.1,0.3,0.2,0.4,0.4s0.2,0.4,0.3,0.6
	c0.1,0.2,0.1,0.5,0.1,0.8s0,0.5-0.1,0.8c-0.1,0.2-0.2,0.4-0.3,0.6c-0.1,0.2-0.3,0.3-0.5,0.4c-0.2,0.1-0.4,0.1-0.6,0.1
	s-0.3,0-0.5-0.1c-0.1-0.1-0.2-0.1-0.4-0.2v1.4h-1.1v-4.8h0.7c0.1,0,0.2,0.1,0.3,0.2L26.8,151.3z M30.8,149.3v5.2h-1.1v-5.2H30.8z
	 M32.6,150.9v3.6h-1.1v-3.6H32.6z M32.7,149.9c0,0.1,0,0.2-0.1,0.2c0,0.1-0.1,0.1-0.1,0.2c-0.1,0.1-0.1,0.1-0.2,0.1
	c-0.1,0-0.2,0-0.3,0c-0.1,0-0.2,0-0.2,0c-0.1,0-0.1-0.1-0.2-0.1c-0.1-0.1-0.1-0.1-0.1-0.2c0-0.1,0-0.2,0-0.2c0-0.1,0-0.2,0-0.2
	c0-0.1,0.1-0.1,0.1-0.2c0.1-0.1,0.1-0.1,0.2-0.1s0.2,0,0.2,0c0.1,0,0.2,0,0.3,0s0.2,0.1,0.2,0.1c0.1,0.1,0.1,0.1,0.1,0.2
	C32.7,149.7,32.7,149.8,32.7,149.9z M34.5,154.6c-0.2,0-0.3,0-0.5-0.1c-0.1-0.1-0.2-0.1-0.3-0.2c-0.1-0.1-0.2-0.2-0.2-0.3
	s-0.1-0.3-0.1-0.4v-1.9h-0.3c-0.1,0-0.1,0-0.1-0.1c0,0-0.1-0.1-0.1-0.2V151l0.6-0.1l0.2-0.9c0-0.1,0.1-0.2,0.2-0.2h0.6v1.1h0.9v0.7
	h-0.9v1.8c0,0.1,0,0.2,0.1,0.2c0,0.1,0.1,0.1,0.2,0.1h0.1H35c0,0,0,0,0.1,0c0,0,0,0,0.1,0h0.1c0,0,0,0,0.1,0.1l0.3,0.5
	c-0.1,0.1-0.3,0.2-0.5,0.2C34.9,154.5,34.7,154.6,34.5,154.6z"/>
<g class="st2">
	<rect x="2" y="156.5" class="st6" width="36" height="1"/>
</g>
<path class="st1" d="M3.5,158h33c0.6,0,1,0.4,1,1v6c0,0.6-0.4,1-1,1h-33c-0.6,0-1-0.4-1-1v-6C2.5,158.4,2.9,158,3.5,158z"/>
<path class="st1" d="M3.5,158h33c0.6,0,1,0.4,1,1v6c0,0.6-0.4,1-1,1h-33c-0.6,0-1-0.4-1-1v-6C2.5,158.4,2.9,158,3.5,158z"/>
<path d="M17.9,161.9c0,0.4-0.1,0.7-0.2,1s-0.3,0.6-0.5,0.8s-0.5,0.4-0.8,0.5s-0.7,0.2-1.1,0.2h-2v-5.1h2c0.4,0,0.8,0.1,1.1,0.2
	c0.3,0.1,0.6,0.3,0.8,0.5c0.2,0.2,0.4,0.5,0.5,0.8C17.9,161.2,17.9,161.6,17.9,161.9z M16.7,161.9c0-0.3,0-0.5-0.1-0.7
	s-0.2-0.4-0.3-0.5c-0.1-0.1-0.3-0.3-0.4-0.3c-0.2-0.1-0.4-0.1-0.6-0.1h-0.8v3.3h0.8c0.2,0,0.4,0,0.6-0.1s0.3-0.2,0.4-0.3
	s0.2-0.3,0.3-0.5S16.7,162.2,16.7,161.9z M21.6,160.9v3.6h-0.7c-0.1,0-0.2-0.1-0.3-0.2l-0.1-0.2c-0.1,0.1-0.1,0.1-0.2,0.2
	c-0.1,0.1-0.2,0.1-0.2,0.1c-0.1,0-0.2,0.1-0.3,0.1c-0.1,0-0.2,0-0.3,0c-0.2,0-0.4,0-0.5-0.1c-0.2-0.1-0.3-0.2-0.4-0.3
	s-0.2-0.3-0.2-0.4c-0.1-0.2-0.1-0.4-0.1-0.6v-2.3h1.1v2.3c0,0.2,0,0.3,0.1,0.4c0.1,0.1,0.2,0.1,0.4,0.1c0.1,0,0.2,0,0.3-0.1
	c0.1-0.1,0.2-0.1,0.3-0.2v-2.6h1.1C21.6,160.7,21.6,160.9,21.6,160.9z M24.1,163c-0.2,0-0.4,0-0.5,0.1s-0.3,0.1-0.3,0.1
	c-0.1,0-0.1,0.1-0.2,0.1c0,0.1,0,0.1,0,0.2c0,0.1,0,0.2,0.1,0.3c0.1,0,0.2,0.1,0.3,0.1c0.1,0,0.3,0,0.4-0.1c0.1,0,0.2-0.1,0.3-0.2
	L24.1,163L24.1,163z M22.2,161.4c0.2-0.2,0.5-0.3,0.7-0.4c0.3-0.1,0.6-0.1,0.9-0.1c0.2,0,0.4,0,0.6,0.1s0.3,0.2,0.4,0.3
	s0.2,0.3,0.3,0.5c0.1,0.2,0.1,0.4,0.1,0.6v2.3h-0.5c-0.1,0-0.2,0-0.2,0c-0.1,0-0.1-0.1-0.1-0.2l-0.1-0.2c-0.1,0.1-0.2,0.1-0.3,0.2
	c-0.1,0.1-0.2,0.1-0.3,0.2c-0.1,0-0.2,0.1-0.3,0.1c-0.1,0-0.2,0-0.3,0c-0.2,0-0.3,0-0.5-0.1c-0.1,0-0.3-0.1-0.3-0.2
	c-0.1-0.1-0.2-0.2-0.2-0.3c-0.1-0.1-0.1-0.3-0.1-0.4c0-0.1,0-0.3,0.1-0.4c0.1-0.1,0.2-0.3,0.3-0.4c0.2-0.1,0.4-0.2,0.7-0.3
	c0.3-0.1,0.6-0.1,1-0.1v-0.2c0-0.2,0-0.4-0.1-0.5s-0.2-0.1-0.4-0.1c-0.1,0-0.2,0-0.3,0c-0.1,0-0.2,0.1-0.2,0.1
	c-0.1,0-0.1,0.1-0.2,0.1s-0.1,0-0.2,0s-0.1,0-0.2-0.1c-0.1,0-0.1-0.1-0.1-0.1L22.2,161.4z M26.8,159.3v5.2h-1.1v-5.2H26.8z"/>
<path class="st6" d="M2.5,127h35v-1h-35V127z M39,128.5v37h1v-37H39z M37.5,167h-35v1h35V167z M1,165.5v-37H0v37H1z M2.5,167
	c-0.8,0-1.5-0.7-1.5-1.5H0c0,1.4,1.1,2.5,2.5,2.5V167z M39,165.5c0,0.8-0.7,1.5-1.5,1.5v1c1.4,0,2.5-1.1,2.5-2.5H39z M37.5,127
	c0.8,0,1.5,0.7,1.5,1.5h1c0-1.4-1.1-2.5-2.5-2.5V127z M2.5,126c-1.4,0-2.5,1.1-2.5,2.5h1c0-0.8,0.7-1.5,1.5-1.5V126z"/>
</svg>
