<?xml version="1.0" encoding="utf-8"?>
<!-- Generator: Adobe Illustrator 23.0.0, SVG Export Plug-In . SVG Version: 6.00 Build 0)  -->
<svg version="1.1" id="Layer_1" xmlns="http://www.w3.org/2000/svg" xmlns:xlink="http://www.w3.org/1999/xlink" x="0px" y="0px"
	 viewBox="0 0 135 36" style="enable-background:new 0 0 135 36;" xml:space="preserve">
<style type="text/css">
	.st0{opacity:0.33;}
	.st1{display:none;fill:#B4B4B4;}
	.st2{opacity:0.66;fill:#FFFFFF;}
	.st3{opacity:0.5;fill:#FFFFFF;}
</style>
<path class="st0" d="M0.5,2.5c0-1.1,0.9-2,2-2h130c1.1,0,2,0.9,2,2v7c0,1.1-0.9,2-2,2H2.5c-1.1,0-2-0.9-2-2V2.5z"/>
<path class="st1" d="M3.5,2.5h40c0.6,0,1,0.4,1,1v5c0,0.6-0.4,1-1,1h-40c-0.6,0-1-0.4-1-1v-5C2.5,2.9,2.9,2.5,3.5,2.5z"/>
<path class="st2" d="M1.6,0.5h43c0.6,0,1.1,0.7,1.1,1.6v7.8c0,0.9-0.5,1.6-1.1,1.6h-43c-0.6,0-1.1-0.7-1.1-1.6V2.1
	C0.5,1.3,0.9,0.5,1.6,0.5z"/>
<path d="M21.2,3.2L19.4,9h-1.2l-1.1-3.6c0-0.1,0-0.1-0.1-0.2c0-0.1,0-0.1,0-0.2c0,0.1,0,0.1-0.1,0.2c0,0.1,0,0.1-0.1,0.2L15.7,9
	h-1.2l-1.8-5.8h1.1c0.1,0,0.2,0,0.3,0.1s0.1,0.1,0.2,0.2l0.8,3c0,0.1,0,0.2,0.1,0.3c0,0.1,0,0.2,0.1,0.4c0-0.3,0.1-0.5,0.2-0.7
	l0.9-3c0-0.1,0.1-0.1,0.2-0.2c0.1-0.1,0.2-0.1,0.3-0.1h0.4c0.1,0,0.2,0,0.3,0.1c0.1,0.1,0.1,0.1,0.2,0.2l0.9,3
	c0.1,0.2,0.1,0.4,0.2,0.6c0-0.1,0-0.2,0.1-0.3c0-0.1,0-0.2,0.1-0.3l0.8-3c0-0.1,0.1-0.1,0.2-0.2s0.2-0.1,0.3-0.1H21.2z M23.1,7.3
	c-0.2,0-0.5,0-0.6,0.1s-0.3,0.1-0.4,0.1s-0.2,0.1-0.2,0.2s-0.1,0.1-0.1,0.2s0,0.2,0.1,0.3s0.2,0.1,0.3,0.1c0.2,0,0.3,0,0.4-0.1
	S23,8,23.1,7.9V7.3z M20.9,5.4c0.3-0.2,0.5-0.4,0.8-0.5s0.6-0.2,1-0.2c0.3,0,0.5,0,0.7,0.1s0.4,0.2,0.5,0.3c0.1,0.1,0.2,0.3,0.3,0.5
	c0.1,0.2,0.1,0.4,0.1,0.7V9h-0.6c-0.1,0-0.2,0-0.3,0c-0.1,0-0.1-0.1-0.1-0.2l-0.1-0.2c-0.1,0-0.2,0.1-0.2,0.2
	c-0.1,0.1-0.2,0.1-0.3,0.2c-0.1,0-0.3,0-0.4,0s-0.2,0-0.4,0c-0.2,0-0.4,0-0.5-0.1c-0.2-0.1-0.3-0.1-0.4-0.2
	c-0.1-0.1-0.2-0.2-0.2-0.4c-0.1-0.1-0.1-0.3-0.1-0.5c0-0.1,0-0.3,0.1-0.5c0.1,0,0.2-0.1,0.4-0.3c0.2-0.1,0.4-0.2,0.7-0.3
	s0.7-0.1,1.2-0.1V6.4c0-0.2-0.1-0.4-0.2-0.5s-0.2-0.2-0.4-0.2c-0.1,0-0.3,0-0.4,0S22,5.8,21.9,5.9c-0.1,0-0.1,0.1-0.2,0.1
	s-0.2,0-0.2,0c-0.1,0-0.2,0-0.2-0.1c-0.1,0-0.1-0.1-0.1-0.2L20.9,5.4z M26.2,5.5c0.1-0.2,0.3-0.4,0.4-0.5c0.2-0.1,0.4-0.2,0.6-0.2
	s0.3,0,0.5,0.1l-0.1,0.9c0,0.1,0,0.1-0.1,0.1h-0.1c0,0,0,0-0.1,0h-0.1h-0.1H27c-0.2,0-0.3,0-0.4,0.1s-0.2,0.2-0.3,0.4V9H25V4.9h0.7
	c0.1,0,0.1,0,0.2,0c0,0,0.1,0,0.1,0.1c0-0.1,0,0,0.1,0v0.1L26.2,5.5z M27.9,9V4.9h0.8C28.9,4.9,29,5,29,5.1l0.1,0.2
	c0.1-0.1,0.1-0.1,0.2-0.2s0.1-0.1,0.2-0.2c0.1,0,0.2-0.1,0.3-0.1c0.1,0,0.2,0,0.3,0c0.3,0,0.5,0.1,0.6,0.2c0.2,0.1,0.3,0.3,0.4,0.5
	c0.1-0.1,0.2-0.2,0.3-0.3C31.5,5.1,31.6,5,31.7,5c0.1-0.1,0.2-0.1,0.4-0.1c0.1,0,0.3,0,0.4,0c0.2,0,0.4,0,0.6,0.1
	c0.2,0.1,0.3,0.2,0.5,0.3c0.1,0.1,0.2,0.3,0.3,0.5S34,6.2,34,6.5V9h-1.2V6.4c0-0.4-0.2-0.6-0.6-0.6c-0.2,0-0.3,0.1-0.4,0.2
	s-0.2,0.3-0.2,0.5V9h-1.2V6.4c0-0.2,0-0.4-0.1-0.5s-0.2-0.1-0.4-0.1c-0.1,0-0.2,0-0.3,0.1C29.5,6,29.4,6,29.3,6.1v3h-1.4V9z"/>
<path class="st3" d="M59.9,3.2V9h-0.7c-0.1,0-0.2,0-0.3,0s-0.1-0.1-0.2-0.2L56,5.3c0,0.1,0,0.2,0,0.3c0,0.1,0,0.2,0,0.3V9h-1.2V3.2
	h0.7c0.1,0,0.1,0,0.1,0h0.1c0,0,0.1,0,0.1,0.1l0.1,0.1l2.8,3.5c0-0.1,0-0.2,0-0.3c0-0.1,0-0.2,0-0.3V3.2H59.9z M63.2,6.4
	c0-0.1,0-0.2,0-0.3C63.1,6,63.1,6,63,5.9s-0.1-0.1-0.2-0.2c-0.1,0-0.2-0.1-0.3-0.1c-0.2,0-0.4,0.1-0.6,0.2c-0.1,0.1-0.2,0.3-0.3,0.6
	H63.2z M61.6,7.1c0,0.3,0.1,0.6,0.3,0.8s0.4,0.2,0.7,0.2c0.1,0,0.3,0,0.4-0.1c0.1,0,0.2,0,0.3,0s0.2-0.1,0.2-0.1
	c0.1,0,0.1-0.1,0.2-0.1c0.1,0,0.2,0,0.2,0.1l0.4,0.4c-0.1,0.1-0.3,0.3-0.4,0.4c-0.1,0.1-0.3,0.2-0.5,0.2C63.3,9,63.1,9,62.9,9
	c-0.2,0-0.3,0-0.4,0c-0.3,0-0.6,0-0.8-0.1c-0.3-0.1-0.5-0.2-0.7-0.4s-0.3-0.4-0.5-0.7c-0.1-0.3-0.2-0.6-0.2-1c0-0.3,0-0.5,0.1-0.8
	c0.1-0.2,0.2-0.5,0.4-0.7s0.4-0.3,0.6-0.4c0.3-0.1,0.5-0.2,0.9-0.2c0.3,0,0.5,0,0.8,0.1c0.2,0.1,0.4,0.2,0.6,0.4
	c0.2,0.2,0.3,0.4,0.4,0.6c0.1,0.2,0.1,0.5,0.1,0.8c0,0.1,0,0.2,0,0.2c0,0.1,0,0.1,0,0.1L64.1,7H64L61.6,7.1L61.6,7.1z M68.5,4.9V9
	h-0.8c-0.2,0-0.3-0.1-0.3-0.2l-0.1-0.2c-0.1,0.1-0.2,0.1-0.2,0.2C67,8.9,66.9,8.9,66.8,9c0,0-0.1,0-0.3,0c-0.1,0-0.2,0-0.4,0
	c-0.2,0-0.4,0-0.6-0.1s-0.3-0.2-0.4-0.3s-0.2-0.3-0.3-0.5c-0.1-0.2-0.1-0.4-0.1-0.6V4.9H66v2.6c0,0.2,0,0.4,0.1,0.5
	c0.1,0.1,0.2,0.2,0.4,0.2c0.1,0,0.3,0,0.4-0.1C67,8,67.1,8,67.2,7.9v-3C67.2,4.9,68.5,4.9,68.5,4.9z M70.7,9.1c-0.2,0-0.4,0-0.5-0.1
	s-0.3-0.1-0.4-0.2c-0.1-0.1-0.2-0.2-0.2-0.4c-0.1-0.1-0.1-0.3-0.1-0.5V5.7h-0.4c-0.1,0-0.1,0-0.2-0.1c0,0-0.1-0.1-0.1-0.2V5l0.7-0.1
	l0.2-1c0-0.1,0.1-0.2,0.3-0.2h0.6v1.2h1v0.8h-1v2.1c0,0.1,0,0.2,0.1,0.2c0,0.1,0.1,0.1,0.2,0.1H71h0.1c0,0,0,0,0.1,0c0,0,0,0,0.1,0
	h0.1c0,0,0,0,0.1,0.1l0.4,0.6c-0.2,0.1-0.3,0.2-0.5,0.3C71.2,9,70.9,9.1,70.7,9.1z M73.4,5.5c0.1-0.2,0.3-0.4,0.4-0.5
	c0.2-0.1,0.4-0.2,0.6-0.2s0.3,0,0.5,0.1l-0.1,0.9c0,0.1,0,0.1-0.1,0.1h-0.1c0,0,0,0-0.1,0h-0.1h-0.1h-0.1c-0.2,0-0.3,0-0.4,0.1
	s-0.2,0.2-0.3,0.4V9h-1.2V4.9H73c0.1,0,0.1,0,0.2,0c0,0,0.1,0,0.1,0.1l0.1,0.1v0.1V5.5z M77.2,7.3c-0.2,0-0.5,0-0.6,0.1
	c-0.2,0-0.3,0.1-0.4,0.1S76,7.6,76,7.7c0,0,0,0.1,0,0.2s0,0.2,0.1,0.3c0.1,0.1,0.2,0.1,0.3,0.1c0.2,0,0.3,0,0.4-0.1s0.2-0.1,0.4-0.3
	C77.2,7.9,77.2,7.3,77.2,7.3z M75,5.4c0.3-0.2,0.5-0.4,0.8-0.5s0.6-0.2,1-0.2c0.3,0,0.5,0,0.7,0.1C77.7,5,77.9,5.1,78,5.2
	s0.2,0.3,0.3,0.5c0.1,0.2,0.1,0.4,0.1,0.7V9h-0.6c-0.1,0-0.2,0-0.3,0c-0.1,0-0.1-0.1-0.1-0.2l-0.1-0.2c-0.1,0.1-0.2,0.2-0.3,0.2
	c-0.1,0.1-0.2,0.1-0.3,0.2c0,0-0.1,0-0.3,0c-0.1,0-0.2,0-0.4,0c-0.2,0-0.4,0-0.5-0.1c-0.2-0.1-0.3-0.1-0.4-0.2
	c-0.1,0-0.1-0.1-0.2-0.3c-0.1-0.1-0.1-0.3-0.1-0.5c0-0.1,0-0.3,0.1-0.5C75,7.3,75.1,7.2,75.3,7c0.2-0.1,0.4-0.2,0.7-0.3
	c0.3-0.1,0.7-0.1,1.2-0.1V6.4c0-0.2-0.1-0.4-0.2-0.5s-0.2-0.2-0.4-0.2c-0.1,0-0.3,0-0.4,0S76,5.8,75.9,5.8C76,5.9,75.9,6,75.8,6
	s-0.2,0-0.2,0c-0.1,0-0.2,0-0.2-0.1c-0.1,0-0.1-0.1-0.1-0.2L75,5.4z M80.4,3v6h-1.2V3H80.4z"/>
<path class="st3" d="M103.5,8c0.2,0,0.3,0,0.4-0.1c0.1,0,0.2-0.1,0.3-0.2c0.1-0.1,0.1-0.2,0.1-0.2s0-0.2,0-0.3c0-0.1,0-0.2,0-0.3
	c0-0.1-0.1-0.2-0.1-0.2c-0.1-0.1-0.2-0.1-0.3-0.1c-0.1,0-0.3,0-0.4,0h-0.9V8H103.5z M102.5,4.2v1.4h0.7c0.1,0,0.3,0,0.4,0
	s0.2-0.1,0.3-0.1c0.1-0.1,0.1-0.1,0.2-0.2c0-0.1,0.1-0.2,0.1-0.4c0-0.1,0-0.3-0.1-0.3c0-0.1-0.1-0.2-0.2-0.2
	c-0.1-0.1-0.2-0.1-0.3-0.1c-0.1,0-0.2,0-0.4,0h-0.7V4.2z M103.3,3.2c0.4,0,0.7,0,1,0.1s0.5,0.2,0.7,0.3s0.3,0.3,0.4,0.5
	c0.1,0.2,0.1,0.4,0.1,0.7c0,0.1,0,0.3-0.1,0.4c0,0.1-0.1,0.2-0.2,0.3c-0.1,0.1-0.2,0.2-0.3,0.3S104.6,6,104.4,6
	c0.4,0.1,0.7,0.2,0.9,0.5c0.2,0.2,0.3,0.5,0.3,0.8c0,0.2,0,0.5-0.1,0.7s-0.2,0.4-0.4,0.6c-0.2,0.2-0.4,0.3-0.7,0.4
	c-0.2,0-0.5,0-0.9,0h-2.3V3.2H103.3z M107.4,5.5c0.1-0.2,0.3-0.4,0.4-0.5c0.2-0.1,0.4-0.2,0.6-0.2s0.3,0,0.5,0.1l-0.1,0.9
	c0,0.1,0,0.1-0.1,0.1h-0.1c0,0,0,0-0.1,0h-0.1h-0.1h-0.1c-0.2,0-0.3,0-0.4,0.1s-0.2,0.2-0.3,0.4V9h-1.2V4.9h0.7c0.1,0,0.1,0,0.2,0
	c0,0,0.1,0,0.1,0.1l0.1,0.1v0.1V5.5z M110.4,4.9V9h-1.2V4.9H110.4z M110.6,3.7c0,0.1,0,0.2-0.1,0.3c0,0.1-0.1,0.2-0.2,0.2
	c-0.1,0.1-0.2,0.1-0.2,0.2c-0.1,0-0.2,0.1-0.3,0.1c-0.1,0-0.2,0-0.3-0.1c-0.1,0-0.2-0.1-0.2-0.2c-0.1-0.1-0.1-0.1-0.2-0.2
	c0-0.1-0.1-0.2-0.1-0.3s0-0.2,0.1-0.3c0-0.1,0.1-0.2,0.2-0.2c0.1-0.1,0.1-0.1,0.2-0.2c0.1,0,0.2-0.1,0.3-0.1c0.1,0,0.2,0,0.3,0.1
	c0.1,0,0.2,0.1,0.2,0.2c0.1,0.1,0.1,0.1,0.2,0.2C110.5,3.5,110.6,3.6,110.6,3.7z M112.7,6.7c0.2,0,0.4-0.1,0.4-0.2
	c0.1-0.1,0.1-0.2,0.1-0.4c0-0.2,0-0.3-0.1-0.4s-0.2-0.1-0.4-0.1c-0.2,0-0.4,0-0.4,0.1c-0.1,0.1-0.1,0.2-0.1,0.4c0,0.1,0,0.2,0,0.2
	c0,0.1,0.1,0.1,0.1,0.2c0,0,0.1,0.1,0.2,0.1C112.6,6.7,112.6,6.7,112.7,6.7z M113.7,9.2c0-0.1,0-0.2-0.1-0.2s-0.2-0.1-0.3-0.1
	c-0.1,0-0.3,0-0.5,0s-0.3,0-0.5,0c-0.1,0.1-0.1,0.1-0.2,0.2c0,0.1-0.1,0.1-0.1,0.2c0,0.1,0,0.1,0,0.2l0.1,0.1c0.1,0,0.1,0.1,0.3,0.1
	c0.1,0,0.2,0,0.4,0c0.2,0,0.3,0,0.4,0s0.2-0.1,0.3-0.1c0.1,0,0.1-0.1,0.1-0.1C113.7,9.3,113.7,9.2,113.7,9.2z M114.9,5v0.5
	c0,0.1,0,0.1-0.1,0.2c0,0-0.1,0.1-0.2,0.1l-0.3,0.1c0,0.1,0,0.1,0,0.2s0,0.1,0,0.2c0,0.2,0,0.4-0.1,0.6s-0.2,0.3-0.4,0.4
	c-0.2,0.1-0.3,0.2-0.5,0.3c-0.2,0.1-0.4,0.1-0.7,0.1c-0.1,0-0.1,0-0.2,0s-0.1,0-0.2,0c-0.1,0.1-0.1,0.1-0.1,0.2s0,0.1,0.1,0.2
	c0.1,0,0.2,0.1,0.3,0.1c0.1,0,0.3,0,0.4,0c0.2,0,0.3,0,0.5,0s0.3,0,0.5,0.1c0.2,0,0.3,0.1,0.4,0.2c0.1,0.1,0.2,0.2,0.3,0.3
	c0.1,0.1,0.1,0.3,0.1,0.5s0,0.4-0.1,0.5c-0.1,0.2-0.2,0.3-0.4,0.5c-0.2,0.1-0.4,0.2-0.6,0.3c-0.3,0.1-0.5,0.1-0.9,0.1
	c-0.3,0-0.6,0-0.8-0.1c-0.2-0.1-0.4-0.1-0.6-0.2c-0.2-0.1-0.3-0.2-0.3-0.3c-0.1-0.1-0.1-0.3-0.1-0.4c0-0.2,0.1-0.3,0.2-0.5
	c0.1-0.1,0.3-0.2,0.4-0.3c-0.1-0.1-0.2-0.1-0.2-0.2c-0.1-0.1-0.1-0.2-0.1-0.4c0-0.1,0-0.1,0-0.2c0-0.1,0.1-0.1,0.1-0.2
	c0-0.1,0.1-0.1,0.2-0.2s0.2-0.1,0.2-0.2c-0.2-0.1-0.4-0.3-0.5-0.5S111,6.6,111,6.3c0-0.2,0-0.4,0.1-0.6s0.2-0.3,0.4-0.4
	c0.2-0.1,0.3-0.2,0.5-0.3c0.2-0.1,0.4-0.1,0.7-0.1c0.4,0,0.7,0.1,0.9,0.2h1.3V5z M116.6,5.2c0.1-0.1,0.3-0.2,0.5-0.3
	c0.2-0.1,0.4-0.1,0.6-0.1s0.4,0,0.6,0.1s0.3,0.2,0.4,0.3c0.1,0.1,0.2,0.3,0.3,0.5c0.1,0.2,0.1,0.4,0.1,0.6V9h-1.2V6.4
	c0-0.2,0-0.4-0.1-0.5s-0.2-0.2-0.4-0.2c-0.1,0-0.3,0-0.4,0.1s-0.2,0.1-0.3,0.2v3h-1.2V3h1.2L116.6,5.2L116.6,5.2z M121.2,9.1
	c-0.2,0-0.4,0-0.5-0.1c-0.2-0.1-0.3-0.1-0.4-0.2c-0.1-0.1-0.2-0.2-0.2-0.4C120,8.2,120,8,120,7.9V5.7h-0.4c-0.1,0-0.1,0-0.2-0.1
	c0,0-0.1-0.1-0.1-0.2V5l0.7-0.1l0.2-1c0-0.1,0.1-0.2,0.3-0.2h0.6v1.2h1v0.8h-1v2.1c0,0.1,0,0.2,0.1,0.2c0,0.1,0.1,0.1,0.2,0.1h0.1
	h0.1c0,0,0,0,0.1,0c0,0,0,0,0.1,0h0.1c0,0,0,0,0.1,0.1l0.4,0.6c-0.2,0.1-0.3,0.2-0.5,0.3C121.6,9,121.4,9.1,121.2,9.1z"/>
<path class="st0" d="M0.5,14.5c0-1.1,0.9-2,2-2h130c1.1,0,2,0.9,2,2v7c0,1.1-0.9,2-2,2H2.5c-1.1,0-2-0.9-2-2V14.5z"/>
<path class="st3" d="M21.2,15.2L19.4,21h-1.2l-1.1-3.6c0-0.1,0-0.1-0.1-0.2c0-0.1,0-0.1-0.1-0.2c0,0.1,0,0.1-0.1,0.2
	c0,0.1,0,0.1-0.1,0.2l-1,3.6h-1.2l-1.8-5.8h1.1c0.1,0,0.2,0,0.3,0.1s0.1,0.1,0.2,0.2l0.8,3c0,0.1,0,0.2,0.1,0.3c0,0.1,0,0.2,0.1,0.4
	c0-0.3,0.1-0.5,0.2-0.7l0.9-3c0-0.1,0.1-0.1,0.2-0.2c0.1-0.1,0.2-0.1,0.3-0.1h0.4c0.1,0,0.2,0,0.3,0.1c0.1,0.1,0.1,0.1,0.2,0.2
	l0.9,3c0.1,0.2,0.1,0.4,0.2,0.6c0-0.1,0-0.2,0.1-0.3c0-0.1,0-0.2,0.1-0.3l0.8-3c0-0.1,0.1-0.1,0.2-0.2c0.1-0.1,0.2-0.1,0.3-0.1H21.2
	z M23.1,19.3c-0.2,0-0.5,0-0.6,0.1c-0.2,0-0.3,0.1-0.4,0.1s-0.2,0.1-0.2,0.2s-0.1,0.1-0.1,0.2s0,0.2,0.1,0.3
	c0.1,0.1,0.2,0.1,0.3,0.1c0.2,0,0.3,0,0.4-0.1s0.2-0.1,0.4-0.3v-0.6H23.1z M20.9,17.4c0.3-0.2,0.5-0.4,0.8-0.5s0.6-0.2,1-0.2
	c0.3,0,0.5,0,0.7,0.1s0.4,0.2,0.5,0.3c0.1,0.1,0.2,0.3,0.3,0.5c0.1,0.2,0.1,0.4,0.1,0.7V21h-0.6c-0.1,0-0.2,0-0.3,0
	c-0.1,0-0.1-0.1-0.1-0.2l-0.1-0.2c-0.1,0.1-0.2,0.2-0.3,0.2c-0.1,0.1-0.2,0.1-0.3,0.2c-0.1,0-0.2,0.1-0.3,0.1c-0.1,0-0.2,0-0.4,0
	c-0.2,0-0.4,0-0.5-0.1c-0.2-0.1-0.3-0.1-0.4-0.2s-0.2-0.2-0.2-0.4c-0.1-0.1-0.1-0.3-0.1-0.5c0-0.1,0-0.3,0.1-0.5s0.2-0.3,0.4-0.4
	c0.2-0.1,0.4-0.2,0.7-0.3c0.3-0.1,0.7-0.1,1.2-0.1v-0.2c0-0.2-0.1-0.4-0.2-0.5s-0.2-0.2-0.4-0.2c-0.1,0-0.3,0-0.4,0
	s-0.2,0.1-0.3,0.1c-0.1,0-0.1,0.1-0.2,0.1s-0.2,0-0.2,0c-0.1,0-0.2,0-0.2-0.1s-0.1-0.1-0.1-0.2L20.9,17.4z M26.2,17.5
	c0.1-0.2,0.3-0.4,0.4-0.5c0.2-0.1,0.4-0.2,0.6-0.2s0.3,0,0.5,0.1l-0.1,0.9c0,0.1,0,0.1-0.1,0.1h-0.1c0,0,0,0-0.1,0h-0.1h-0.1H27
	c-0.2,0-0.3,0-0.4,0.1s-0.2,0.2-0.3,0.4V21H25v-4.1h0.7c0.1,0,0.1,0,0.2,0c0,0,0.1,0,0.1,0.1l0.1,0.1v0.1L26.2,17.5z M27.9,21v-4.1
	h0.8c0.2,0,0.3,0.1,0.3,0.2l0.1,0.2c0.1-0.1,0.1-0.1,0.2-0.2s0.2-0.1,0.2-0.2c0.1,0,0.2-0.1,0.3-0.1c0.1,0,0.2,0,0.3,0
	c0.3,0,0.5,0.1,0.6,0.2c0.2,0.1,0.3,0.3,0.4,0.5c0.1-0.1,0.2-0.2,0.3-0.3c0.1-0.1,0.2-0.2,0.3-0.2c0.1-0.1,0.2-0.1,0.4-0.1
	c0.1,0,0.3,0,0.4,0c0.2,0,0.4,0,0.6,0.1c0.2,0.1,0.3,0.2,0.5,0.3c0.1,0.1,0.2,0.3,0.3,0.5s0.1,0.4,0.1,0.7V21h-1.2v-2.6
	c0-0.4-0.2-0.6-0.6-0.6c-0.2,0-0.3,0.1-0.4,0.2s-0.2,0.3-0.2,0.5V21h-1.2v-2.6c0-0.2,0-0.4-0.1-0.5s-0.2-0.1-0.4-0.1
	c-0.1,0-0.2,0-0.3,0.1c-0.1,0.1-0.2,0.1-0.3,0.2v3h-1.4V21z"/>
<path class="st1" d="M48.5,14.5h38c0.6,0,1,0.4,1,1v5c0,0.6-0.4,1-1,1h-38c-0.6,0-1-0.4-1-1v-5C47.5,14.9,47.9,14.5,48.5,14.5z"/>
<path class="st2" d="M47.1,12.5h40.8c0.6,0,1.1,0.7,1.1,1.6v7.8c0,0.9-0.4,1.6-1.1,1.6H47.1c-0.6,0-1.1-0.7-1.1-1.6v-7.8
	C46,13.3,46.5,12.5,47.1,12.5z"/>
<path d="M59.9,15.2V21h-0.7c-0.1,0-0.2,0-0.3,0s-0.1-0.1-0.2-0.2L56,17.3c0,0.1,0,0.2,0,0.3c0,0.1,0,0.2,0,0.3V21h-1.2v-5.8h0.7
	c0.1,0,0.1,0,0.1,0h0.1c0,0,0.1,0,0.1,0.1l0.1,0.1l2.8,3.5c0-0.1,0-0.2,0-0.3c0-0.1,0-0.2,0-0.3v-3.1C58.7,15.2,59.9,15.2,59.9,15.2
	z M63.2,18.4c0-0.1,0-0.2,0-0.3c0-0.1-0.1-0.2-0.1-0.2c-0.1-0.1-0.1-0.1-0.2-0.2c-0.1,0-0.2-0.1-0.3-0.1c-0.2,0-0.4,0.1-0.6,0.2
	c-0.1,0.1-0.2,0.3-0.3,0.6H63.2z M61.6,19.1c0,0.3,0.1,0.6,0.3,0.8c0.2,0.2,0.4,0.2,0.7,0.2c0.1,0,0.3,0,0.4-0.1s0.2-0.1,0.3-0.1
	s0.2-0.1,0.2-0.1c0.1,0,0.1-0.1,0.2-0.1c0.1,0,0.2,0,0.2,0.1l0.4,0.4c-0.1,0.1-0.3,0.3-0.4,0.4s-0.3,0.2-0.5,0.2
	C63.3,21,63.1,21,62.9,21c-0.2,0-0.3,0-0.4,0c-0.3,0-0.6,0-0.8-0.1c-0.3-0.1-0.5-0.2-0.7-0.4c-0.2-0.2-0.3-0.4-0.5-0.7
	c-0.1-0.3-0.2-0.6-0.2-1c0-0.3,0-0.5,0.1-0.8c0.1-0.2,0.2-0.5,0.4-0.7s0.4-0.3,0.6-0.4c0.3-0.1,0.5-0.2,0.9-0.2c0.3,0,0.5,0,0.8,0.1
	c0.2,0.1,0.4,0.2,0.6,0.4c0.2,0.2,0.3,0.4,0.4,0.6c0.1,0.2,0.1,0.5,0.1,0.8c0,0.1,0,0.2,0,0.2c0,0.1,0,0.1,0,0.1L64.1,19H64h-2.4
	V19.1z M68.5,16.9V21h-0.8c-0.2,0-0.3-0.1-0.3-0.2l-0.1-0.2c-0.1,0.1-0.2,0.1-0.2,0.2c-0.1,0.1-0.2,0.1-0.3,0.2
	c-0.1,0-0.2,0.1-0.3,0.1c-0.1,0-0.2,0-0.4,0c-0.2,0-0.4,0-0.6-0.1s-0.3-0.2-0.4-0.3c-0.1-0.1-0.2-0.3-0.3-0.5
	c-0.1-0.2-0.1-0.4-0.1-0.6V17H66v2.6c0,0.2,0,0.4,0.1,0.5s0.2,0.2,0.4,0.2c0.1,0,0.3,0,0.4-0.1s0.2-0.1,0.3-0.2v-3h1.3V16.9z
	 M70.7,21.1c-0.2,0-0.4,0-0.5-0.1s-0.3-0.1-0.4-0.2s-0.2-0.2-0.2-0.4c-0.1-0.1-0.1-0.3-0.1-0.5v-2.1h-0.4c-0.1,0-0.1,0-0.2-0.1
	c0,0-0.1-0.1-0.1-0.2V17l0.7-0.1l0.2-1c0-0.1,0.1-0.2,0.3-0.2h0.6v1.2h1v0.8h-1v2.1c0,0.1,0,0.2,0.1,0.2c0,0.1,0.1,0.1,0.2,0.1H71
	h0.1c0,0,0,0,0.1,0c0,0,0,0,0.1,0h0.1c0,0,0,0,0.1,0.1l0.4,0.6c-0.2,0.1-0.3,0.2-0.5,0.3C71.2,21,70.9,21.1,70.7,21.1z M73.4,17.5
	c0.1-0.2,0.3-0.4,0.4-0.5c0.2-0.1,0.4-0.2,0.6-0.2s0.3,0,0.5,0.1l-0.1,0.9c0,0.1,0,0.1-0.1,0.1h-0.1c0,0,0,0-0.1,0h-0.1h-0.1h-0.1
	c-0.2,0-0.3,0-0.4,0.1s-0.2,0.2-0.3,0.4V21h-1.2v-4.1H73c0.1,0,0.1,0,0.2,0c0,0,0.1,0,0.1,0.1l0.1,0.1v0.1V17.5z M77.2,19.3
	c-0.2,0-0.5,0-0.6,0.1c-0.2,0-0.3,0.1-0.4,0.1S76,19.6,76,19.7s-0.1,0.1-0.1,0.2s0,0.2,0.1,0.3c0.1,0.1,0.2,0.1,0.3,0.1
	c0.2,0,0.3,0,0.4-0.1s0.2-0.1,0.4-0.3L77.2,19.3L77.2,19.3z M75,17.4c0.3-0.2,0.5-0.4,0.8-0.5s0.6-0.2,1-0.2c0.3,0,0.5,0,0.7,0.1
	s0.4,0.2,0.5,0.3c0.1,0.1,0.2,0.3,0.3,0.5c0.1,0.2,0.1,0.4,0.1,0.7V21h-0.6c-0.1,0-0.2,0-0.3,0c-0.1,0-0.1-0.1-0.1-0.2l-0.1-0.2
	c-0.1,0.1-0.2,0.2-0.3,0.2s-0.2,0.1-0.3,0.2c-0.1,0-0.2,0.1-0.3,0.1c-0.1,0-0.2,0-0.4,0c-0.2,0-0.4,0-0.5-0.1
	c-0.2-0.1-0.3-0.1-0.4-0.2s-0.2-0.2-0.2-0.4c-0.1-0.1-0.1-0.3-0.1-0.5c0-0.1,0-0.3,0.1-0.5s0.2-0.3,0.4-0.4c0.2-0.1,0.4-0.2,0.7-0.3
	c0.3-0.1,0.7-0.1,1.2-0.1v-0.2c0-0.2-0.1-0.4-0.2-0.5s-0.2-0.2-0.4-0.2c-0.1,0-0.3,0-0.4,0s-0.2,0.1-0.3,0.1c-0.1,0-0.1,0.1-0.2,0.1
	s-0.2,0-0.2,0c-0.1,0-0.2,0-0.2-0.1c-0.1,0-0.1-0.1-0.1-0.2L75,17.4z M80.4,15v6h-1.2v-6H80.4z"/>
<path class="st3" d="M103.5,20c0.2,0,0.3,0,0.4-0.1c0.1,0,0.2-0.1,0.3-0.2c0.1-0.1,0.1-0.2,0.1-0.2s0-0.2,0-0.3c0-0.1,0-0.2,0-0.3
	c0-0.1-0.1-0.2-0.1-0.2c-0.1-0.1-0.2-0.1-0.3-0.1s-0.3,0-0.4,0h-0.9V20H103.5z M102.5,16.2v1.4h0.7c0.1,0,0.3,0,0.4,0
	s0.2-0.1,0.3-0.1c0.1-0.1,0.1-0.1,0.2-0.2c0-0.1,0.1-0.2,0.1-0.4c0-0.1,0-0.3-0.1-0.3c0-0.1-0.1-0.2-0.2-0.2
	c-0.1-0.1-0.2-0.1-0.3-0.1c-0.1,0-0.2,0-0.4,0L102.5,16.2L102.5,16.2z M103.3,15.2c0.4,0,0.7,0,1,0.1s0.5,0.2,0.7,0.3
	s0.3,0.3,0.4,0.5c0.1,0.2,0.1,0.4,0.1,0.7c0,0.1,0,0.3-0.1,0.4c0,0.1-0.1,0.2-0.2,0.3c-0.1,0.1-0.2,0.2-0.3,0.3
	c-0.1,0.1-0.3,0.2-0.5,0.2c0.4,0.1,0.7,0.2,0.9,0.5c0.2,0.2,0.3,0.5,0.3,0.8c0,0.2,0,0.5-0.1,0.7s-0.2,0.4-0.4,0.6
	c-0.2,0.2-0.4,0.3-0.7,0.4c-0.3,0.1-0.6,0.1-0.9,0.1h-2.3v-5.8h2.1V15.2z M107.4,17.5c0.1-0.2,0.3-0.4,0.4-0.5
	c0.2-0.1,0.4-0.2,0.6-0.2s0.3,0,0.5,0.1l-0.1,0.9c0,0.1,0,0.1-0.1,0.1h-0.1c0,0,0,0-0.1,0h-0.1h-0.1h-0.1c-0.2,0-0.3,0-0.4,0.1
	s-0.2,0.2-0.3,0.4V21h-1.2v-4.1h0.7c0.1,0,0.1,0,0.2,0c0,0,0.1,0,0.1,0.1l0.1,0.1v0.1V17.5z M110.4,16.9V21h-1.2v-4.1H110.4z
	 M110.6,15.7c0,0.1,0,0.2-0.1,0.3c0,0.1-0.1,0.2-0.2,0.2c-0.1,0.1-0.2,0.1-0.2,0.2c-0.1,0-0.2,0.1-0.3,0.1c-0.1,0-0.2,0-0.3-0.1
	c-0.1,0-0.2-0.1-0.2-0.2c-0.1-0.1-0.1-0.1-0.2-0.2c0-0.1-0.1-0.2-0.1-0.3s0-0.2,0.1-0.3c0-0.1,0.1-0.2,0.2-0.2
	c0.1-0.1,0.1-0.1,0.2-0.2c0.1,0,0.2-0.1,0.3-0.1c0.1,0,0.2,0,0.3,0.1c0.1,0,0.2,0.1,0.2,0.2c0.1,0.1,0.1,0.1,0.2,0.2
	C110.5,15.5,110.6,15.6,110.6,15.7z M112.7,18.7c0.2,0,0.4-0.1,0.4-0.2c0.1-0.1,0.1-0.2,0.1-0.4c0-0.2,0-0.3-0.1-0.4
	s-0.2-0.1-0.4-0.1c-0.2,0-0.4,0-0.4,0.1c-0.1,0.1-0.1,0.2-0.1,0.4c0,0.1,0,0.2,0,0.2c0,0.1,0.1,0.1,0.1,0.2c0,0,0.1,0.1,0.2,0.1
	C112.6,18.7,112.6,18.7,112.7,18.7z M113.7,21.2c0-0.1,0-0.2-0.1-0.2s-0.2-0.1-0.3-0.1c-0.1,0-0.3,0-0.5,0s-0.3,0-0.5,0
	c-0.1,0.1-0.1,0.1-0.2,0.2c0,0.1-0.1,0.1-0.1,0.2s0,0.1,0,0.2l0.1,0.1c0.1,0,0.1,0.1,0.3,0.1c0.1,0,0.2,0,0.4,0c0.2,0,0.3,0,0.4,0
	s0.2-0.1,0.3-0.1c0.1,0,0.1-0.1,0.1-0.1C113.7,21.3,113.7,21.2,113.7,21.2z M114.9,17v0.5c0,0.1,0,0.1-0.1,0.2c0,0-0.1,0.1-0.2,0.1
	l-0.3,0.1c0,0.1,0,0.1,0,0.2s0,0.1,0,0.2c0,0.2,0,0.4-0.1,0.6s-0.2,0.3-0.4,0.4c-0.2,0.1-0.3,0.2-0.5,0.3c-0.2,0.1-0.4,0.1-0.7,0.1
	c-0.1,0-0.1,0-0.2,0s-0.1,0-0.2,0c-0.1,0.1-0.1,0.1-0.1,0.2s0,0.1,0.1,0.2c0.1,0,0.2,0.1,0.3,0.1c0.1,0,0.3,0,0.4,0
	c0.2,0,0.3,0,0.5,0s0.3,0,0.5,0.1c0.2,0,0.3,0.1,0.4,0.2s0.2,0.2,0.3,0.3c0.1,0.1,0.1,0.3,0.1,0.5s0,0.4-0.1,0.5
	c-0.1,0.2-0.2,0.3-0.4,0.5c-0.2,0.1-0.4,0.2-0.6,0.3c-0.3,0.1-0.5,0.1-0.9,0.1c-0.3,0-0.6,0-0.8-0.1c-0.2-0.1-0.4-0.1-0.6-0.2
	s-0.3-0.2-0.3-0.3c-0.1-0.1-0.1-0.3-0.1-0.4c0-0.2,0.1-0.3,0.2-0.5c0.1-0.1,0.3-0.2,0.4-0.3c-0.1-0.1-0.2-0.1-0.2-0.2
	c-0.1-0.1-0.1-0.2-0.1-0.4c0-0.1,0-0.1,0-0.2s0.1-0.1,0.1-0.2s0.1-0.1,0.2-0.2s0.2-0.1,0.2-0.2c-0.2-0.1-0.4-0.3-0.5-0.5
	s-0.2-0.4-0.2-0.7c0-0.2,0-0.4,0.1-0.6s0.2-0.3,0.4-0.4c0.2-0.1,0.3-0.2,0.5-0.3c0.2-0.1,0.4-0.1,0.7-0.1c0.4,0,0.7,0.1,0.9,0.2h1.3
	V17z M116.6,17.2c0.1-0.1,0.3-0.2,0.5-0.3c0.2-0.1,0.4-0.1,0.6-0.1s0.4,0,0.6,0.1s0.3,0.2,0.4,0.3c0.1,0.1,0.2,0.3,0.3,0.5
	c0.1,0.2,0.1,0.4,0.1,0.6V21h-1.2v-2.6c0-0.2,0-0.4-0.1-0.5s-0.2-0.2-0.4-0.2c-0.1,0-0.3,0-0.4,0.1s-0.2,0.1-0.3,0.2v3h-1.2v-6h1.2
	L116.6,17.2L116.6,17.2z M121.2,21.1c-0.2,0-0.4,0-0.5-0.1c-0.2-0.1-0.3-0.1-0.4-0.2s-0.2-0.2-0.2-0.4c-0.1-0.1-0.1-0.3-0.1-0.5
	v-2.1h-0.4c-0.1,0-0.1,0-0.2-0.1c0,0-0.1-0.1-0.1-0.2V17l0.7-0.1l0.2-1c0-0.1,0.1-0.2,0.3-0.2h0.6v1.2h1v0.8h-1v2.1
	c0,0.1,0,0.2,0.1,0.2c0,0.1,0.1,0.1,0.2,0.1h0.1h0.1c0,0,0,0,0.1,0c0,0,0,0,0.1,0h0.1c0,0,0,0,0.1,0.1l0.4,0.6
	c-0.2,0.1-0.3,0.2-0.5,0.3C121.6,21,121.4,21.1,121.2,21.1z"/>
<path class="st0" d="M0.5,26.5c0-1.1,0.9-2,2-2h130c1.1,0,2,0.9,2,2v7c0,1.1-0.9,2-2,2H2.5c-1.1,0-2-0.9-2-2V26.5z"/>
<path class="st3" d="M21.2,27.2L19.4,33h-1.2l-1.1-3.6c0-0.1,0-0.1-0.1-0.2c0-0.1,0-0.1-0.1-0.2c0,0.1,0,0.1-0.1,0.2
	c0,0.1,0,0.1-0.1,0.2l-1,3.6h-1.2l-1.8-5.8h1.1c0.1,0,0.2,0,0.3,0.1s0.1,0.1,0.2,0.2l0.8,3c0,0.1,0,0.2,0.1,0.3c0,0.1,0,0.2,0.1,0.4
	c0-0.3,0.1-0.5,0.2-0.7l0.9-3c0-0.1,0.1-0.1,0.2-0.2s0.2-0.1,0.3-0.1h0.4c0.1,0,0.2,0,0.3,0.1c0.1,0.1,0.1,0.1,0.2,0.2l0.9,3
	c0.1,0.2,0.1,0.4,0.2,0.6c0-0.1,0-0.2,0.1-0.3c0-0.1,0-0.2,0.1-0.3l0.8-3c0-0.1,0.1-0.1,0.2-0.2s0.2-0.1,0.3-0.1H21.2z M23.1,31.3
	c-0.2,0-0.5,0-0.6,0.1c-0.2,0-0.3,0.1-0.4,0.1s-0.2,0.1-0.2,0.2s-0.1,0.1-0.1,0.2c0,0.1,0,0.2,0.1,0.3s0.2,0.1,0.3,0.1
	c0.2,0,0.3,0,0.4-0.1s0.2-0.1,0.4-0.3v-0.6H23.1z M20.9,29.4c0.3-0.2,0.5-0.4,0.8-0.5s0.6-0.2,1-0.2c0.3,0,0.5,0,0.7,0.1
	s0.4,0.2,0.5,0.3c0.1,0.1,0.2,0.3,0.3,0.5c0.1,0.2,0.1,0.4,0.1,0.7V33h-0.6c-0.1,0-0.2,0-0.3,0c-0.1,0-0.1-0.1-0.1-0.2l-0.1-0.2
	c-0.1,0.1-0.2,0.2-0.3,0.2c-0.1,0.1-0.2,0.1-0.3,0.2c-0.1,0-0.2,0.1-0.3,0.1c-0.1,0-0.2,0-0.4,0c-0.2,0-0.4,0-0.5-0.1
	c-0.2-0.1-0.3-0.1-0.4-0.2c-0.1-0.1-0.2-0.2-0.2-0.4c-0.1-0.1-0.1-0.3-0.1-0.5c0-0.1,0-0.3,0.1-0.5s0.2-0.3,0.4-0.4
	c0.2-0.1,0.4-0.2,0.7-0.3c0.3-0.1,0.7-0.1,1.2-0.1v-0.2c0-0.2-0.1-0.4-0.2-0.5s-0.2-0.2-0.4-0.2c-0.1,0-0.3,0-0.4,0
	s-0.2,0.1-0.3,0.1c-0.1,0-0.1,0.1-0.2,0.1s-0.2,0-0.2,0c-0.1,0-0.2,0-0.2-0.1s-0.1-0.1-0.1-0.2L20.9,29.4z M26.2,29.5
	c0.1-0.2,0.3-0.4,0.4-0.5c0.2-0.1,0.4-0.2,0.6-0.2s0.3,0,0.5,0.1l-0.1,0.9c0,0.1,0,0.1-0.1,0.1h-0.1c0,0,0,0-0.1,0h-0.1h-0.1H27
	c-0.2,0-0.3,0-0.4,0.1s-0.2,0.2-0.3,0.4V33H25v-4.1h0.7c0.1,0,0.1,0,0.2,0c0,0,0.1,0,0.1,0.1l0.1,0.1v0.1L26.2,29.5z M27.9,33v-4.1
	h0.8c0.2,0,0.3,0.1,0.3,0.2l0.1,0.2c0.1-0.1,0.1-0.1,0.2-0.2s0.2-0.1,0.2-0.2c0.1,0,0.2-0.1,0.3-0.1c0.1,0,0.2,0,0.3,0
	c0.3,0,0.5,0.1,0.6,0.2c0.2,0.1,0.3,0.3,0.4,0.5c0.1-0.1,0.2-0.2,0.3-0.3c0.1-0.1,0.2-0.2,0.3-0.2c0.1-0.1,0.2-0.1,0.4-0.1
	c0.1,0,0.3,0,0.4,0c0.2,0,0.4,0,0.6,0.1c0.2,0.1,0.3,0.2,0.5,0.3c0.1,0.1,0.2,0.3,0.3,0.5s0.1,0.4,0.1,0.7V33h-1.2v-2.6
	c0-0.4-0.2-0.6-0.6-0.6c-0.2,0-0.3,0.1-0.4,0.2s-0.2,0.3-0.2,0.5V33h-1.2v-2.6c0-0.2,0-0.4-0.1-0.5s-0.2-0.1-0.4-0.1
	c-0.1,0-0.2,0-0.3,0.1c-0.1,0.1-0.2,0.1-0.3,0.2v3L27.9,33L27.9,33z"/>
<path class="st3" d="M59.9,27.2V33h-0.7c-0.1,0-0.2,0-0.3,0s-0.1-0.1-0.2-0.2L56,29.3c0,0.1,0,0.2,0,0.3c0,0.1,0,0.2,0,0.3V33h-1.2
	v-5.8h0.7c0.1,0,0.1,0,0.1,0h0.1c0,0,0.1,0,0.1,0.1l0.1,0.1l2.8,3.5c0-0.1,0-0.2,0-0.3c0-0.1,0-0.2,0-0.3v-3.1
	C58.7,27.2,59.9,27.2,59.9,27.2z M63.2,30.4c0-0.1,0-0.2,0-0.3c0-0.1-0.1-0.2-0.1-0.2c-0.1-0.1-0.1-0.1-0.2-0.2
	c-0.1,0-0.2-0.1-0.3-0.1c-0.2,0-0.4,0.1-0.6,0.2c-0.1,0.1-0.2,0.3-0.3,0.6H63.2z M61.6,31.1c0,0.3,0.1,0.6,0.3,0.8s0.4,0.2,0.7,0.2
	c0.1,0,0.3,0,0.4-0.1s0.2-0.1,0.3-0.1s0.2-0.1,0.2-0.1c0.1,0,0.1-0.1,0.2-0.1c0.1,0,0.2,0,0.2,0.1l0.4,0.4c-0.1,0.1-0.3,0.3-0.4,0.4
	c-0.1,0.1-0.3,0.2-0.5,0.2C63.3,33,63.1,33,62.9,33c-0.2,0-0.3,0-0.4,0c-0.3,0-0.6,0-0.8-0.1c-0.3-0.1-0.5-0.2-0.7-0.4
	s-0.3-0.4-0.5-0.7c-0.1-0.3-0.2-0.6-0.2-1c0-0.3,0-0.5,0.1-0.8c0.1-0.2,0.2-0.5,0.4-0.7s0.4-0.3,0.6-0.4c0.3-0.1,0.5-0.2,0.9-0.2
	c0.3,0,0.5,0,0.8,0.1c0.2,0.1,0.4,0.2,0.6,0.4c0.2,0.2,0.3,0.4,0.4,0.6c0.1,0.2,0.1,0.5,0.1,0.8c0,0.1,0,0.2,0,0.2
	c0,0.1,0,0.1,0,0.1L64.1,31H64h-2.4V31.1z M68.5,28.9V33h-0.8c-0.2,0-0.3-0.1-0.3-0.2l-0.1-0.2c-0.1,0.1-0.2,0.1-0.2,0.2
	c-0.1,0.1-0.2,0.1-0.3,0.2c-0.1,0-0.2,0.1-0.3,0.1c-0.1,0-0.2,0-0.4,0c-0.2,0-0.4,0-0.6-0.1s-0.3-0.2-0.4-0.3s-0.2-0.3-0.3-0.5
	c-0.1-0.2-0.1-0.4-0.1-0.6V29H66v2.6c0,0.2,0,0.4,0.1,0.5s0.2,0.2,0.4,0.2c0.1,0,0.3,0,0.4-0.1s0.2-0.1,0.3-0.2v-3h1.3V28.9z
	 M70.7,33.1c-0.2,0-0.4,0-0.5-0.1s-0.3-0.1-0.4-0.2c-0.1-0.1-0.2-0.2-0.2-0.4c-0.1-0.1-0.1-0.3-0.1-0.5v-2.1h-0.4
	c-0.1,0-0.1,0-0.2-0.1c0,0-0.1-0.1-0.1-0.2V29l0.7-0.1l0.2-1c0-0.1,0.1-0.2,0.3-0.2h0.6v1.2h1v0.8h-1v2.1c0,0.1,0,0.2,0.1,0.2
	c0,0.1,0.1,0.1,0.2,0.1H71h0.1c0,0,0,0,0.1,0c0,0,0,0,0.1,0h0.1c0,0,0,0,0.1,0.1l0.4,0.6c-0.2,0.1-0.3,0.2-0.5,0.3
	C71.2,33,70.9,33.1,70.7,33.1z M73.4,29.5c0.1-0.2,0.3-0.4,0.4-0.5c0.2-0.1,0.4-0.2,0.6-0.2s0.3,0,0.5,0.1l-0.1,0.9
	c0,0.1,0,0.1-0.1,0.1h-0.1c0,0,0,0-0.1,0h-0.1h-0.1h-0.1c-0.2,0-0.3,0-0.4,0.1s-0.2,0.2-0.3,0.4V33h-1.2v-4.1H73c0.1,0,0.1,0,0.2,0
	c0,0,0.1,0,0.1,0.1l0.1,0.1v0.1V29.5z M77.2,31.3c-0.2,0-0.5,0-0.6,0.1c-0.2,0-0.3,0.1-0.4,0.1S76,31.6,76,31.7s-0.1,0.1-0.1,0.2
	c0,0.1,0,0.2,0.1,0.3s0.2,0.1,0.3,0.1c0.2,0,0.3,0,0.4-0.1s0.2-0.1,0.4-0.3L77.2,31.3L77.2,31.3z M75,29.4c0.3-0.2,0.5-0.4,0.8-0.5
	s0.6-0.2,1-0.2c0.3,0,0.5,0,0.7,0.1s0.4,0.2,0.5,0.3c0.1,0.1,0.2,0.3,0.3,0.5c0.1,0.2,0.1,0.4,0.1,0.7V33h-0.6c-0.1,0-0.2,0-0.3,0
	c-0.1,0-0.1-0.1-0.1-0.2l-0.1-0.2c-0.1,0.1-0.2,0.2-0.3,0.2s-0.2,0.1-0.3,0.2c-0.1,0-0.2,0.1-0.3,0.1c-0.1,0-0.2,0-0.4,0
	c-0.2,0-0.4,0-0.5-0.1c-0.2-0.1-0.3-0.1-0.4-0.2c-0.1-0.1-0.2-0.2-0.2-0.4c-0.1-0.1-0.1-0.3-0.1-0.5c0-0.1,0-0.3,0.1-0.5
	s0.2-0.3,0.4-0.4c0.2-0.1,0.4-0.2,0.7-0.3c0.3-0.1,0.7-0.1,1.2-0.1v-0.2c0-0.2-0.1-0.4-0.2-0.5s-0.2-0.2-0.4-0.2c-0.1,0-0.3,0-0.4,0
	s-0.2,0.1-0.3,0.1c-0.1,0-0.1,0.1-0.2,0.1s-0.2,0-0.2,0c-0.1,0-0.2,0-0.2-0.1c-0.1,0-0.1-0.1-0.1-0.2L75,29.4z M80.4,27v6h-1.2v-6
	H80.4z"/>
<path class="st1" d="M91.5,26.5h40c0.6,0,1,0.4,1,1v5c0,0.6-0.4,1-1,1h-40c-0.6,0-1-0.4-1-1v-5C90.5,26.9,90.9,26.5,91.5,26.5z"/>
<path class="st2" d="M90.5,24.5h43c0.6,0,1.1,0.7,1.1,1.5v7.9c0,0.8-0.5,1.5-1.1,1.5h-43c-0.6,0-1.1-0.7-1.1-1.5V26
	C89.4,25.2,89.9,24.5,90.5,24.5z"/>
<path d="M103.5,32c0.2,0,0.3,0,0.4-0.1c0.1,0,0.2-0.1,0.3-0.2c0.1-0.1,0.1-0.2,0.1-0.2s0-0.2,0-0.3c0-0.1,0-0.2,0-0.3
	c0-0.1-0.1-0.2-0.1-0.2c-0.1-0.1-0.2-0.1-0.3-0.1s-0.3,0-0.4,0h-0.9V32H103.5z M102.5,28.2v1.4h0.7c0.1,0,0.3,0,0.4,0
	s0.2-0.1,0.3-0.1c0.1-0.1,0.1-0.1,0.2-0.2c0-0.1,0.1-0.2,0.1-0.4c0-0.1,0-0.3-0.1-0.3c0-0.1-0.1-0.2-0.2-0.2
	c-0.1-0.1-0.2-0.1-0.3-0.1c-0.1,0-0.2,0-0.4,0L102.5,28.2L102.5,28.2z M103.3,27.2c0.4,0,0.7,0,1,0.1s0.5,0.2,0.7,0.3
	s0.3,0.3,0.4,0.5s0.1,0.4,0.1,0.7c0,0.1,0,0.3-0.1,0.4c0,0.1-0.1,0.2-0.2,0.3c-0.1,0.1-0.2,0.2-0.3,0.3c-0.1,0.1-0.3,0.2-0.5,0.2
	c0.4,0.1,0.7,0.2,0.9,0.5c0.2,0.2,0.3,0.5,0.3,0.8c0,0.2,0,0.5-0.1,0.7s-0.2,0.4-0.4,0.6c-0.2,0.2-0.4,0.3-0.7,0.4
	c-0.3,0.1-0.6,0.1-0.9,0.1h-2.3v-5.8L103.3,27.2L103.3,27.2z M107.4,29.5c0.1-0.2,0.3-0.4,0.4-0.5c0.2-0.1,0.4-0.2,0.6-0.2
	s0.3,0,0.5,0.1l-0.1,0.9c0,0.1,0,0.1-0.1,0.1h-0.1c0,0,0,0-0.1,0h-0.1h-0.1h-0.1c-0.2,0-0.3,0-0.4,0.1s-0.2,0.2-0.3,0.4V33h-1.2
	v-4.1h0.7c0.1,0,0.1,0,0.2,0c0,0,0.1,0,0.1,0.1l0.1,0.1v0.1V29.5z M110.4,28.9V33h-1.2v-4.1H110.4z M110.6,27.7c0,0.1,0,0.2-0.1,0.3
	c0,0.1-0.1,0.2-0.2,0.2c-0.1,0.1-0.2,0.1-0.2,0.2c-0.1,0-0.2,0.1-0.3,0.1c-0.1,0-0.2,0-0.3-0.1c-0.1,0-0.2-0.1-0.2-0.2
	c-0.1-0.1-0.1-0.1-0.2-0.2c0-0.1-0.1-0.2-0.1-0.3c0-0.1,0-0.2,0.1-0.3c0-0.1,0.1-0.2,0.2-0.2c0.1-0.1,0.1-0.1,0.2-0.2
	c0.1,0,0.2-0.1,0.3-0.1c0.1,0,0.2,0,0.3,0.1c0.1,0,0.2,0.1,0.2,0.2c0.1,0.1,0.1,0.1,0.2,0.2C110.5,27.5,110.6,27.6,110.6,27.7z
	 M112.7,30.7c0.2,0,0.4-0.1,0.4-0.2c0.1-0.1,0.1-0.2,0.1-0.4c0-0.2,0-0.3-0.1-0.4s-0.2-0.1-0.4-0.1c-0.2,0-0.4,0-0.4,0.1
	c-0.1,0.1-0.1,0.2-0.1,0.4c0,0.1,0,0.2,0,0.2c0,0.1,0.1,0.1,0.1,0.2c0,0,0.1,0.1,0.2,0.1C112.6,30.7,112.6,30.7,112.7,30.7z
	 M113.7,33.2c0-0.1,0-0.2-0.1-0.2s-0.2-0.1-0.3-0.1c-0.1,0-0.3,0-0.5,0s-0.3,0-0.5,0c-0.1,0.1-0.1,0.1-0.2,0.2
	c0,0.1-0.1,0.1-0.1,0.2c0,0.1,0,0.1,0,0.2l0.1,0.1c0.1,0,0.1,0.1,0.3,0.1c0.1,0,0.2,0,0.4,0c0.2,0,0.3,0,0.4,0s0.2-0.1,0.3-0.1
	c0.1,0,0.1-0.1,0.1-0.1C113.7,33.3,113.7,33.2,113.7,33.2z M114.9,29v0.5c0,0.1,0,0.1-0.1,0.2c0,0-0.1,0.1-0.2,0.1l-0.3,0.1
	c0,0.1,0,0.1,0,0.2s0,0.1,0,0.2c0,0.2,0,0.4-0.1,0.6s-0.2,0.3-0.4,0.4c-0.2,0.1-0.3,0.2-0.5,0.3c-0.2,0.1-0.4,0.1-0.7,0.1
	c-0.1,0-0.1,0-0.2,0s-0.1,0-0.2,0c-0.1,0.1-0.1,0.1-0.1,0.2s0,0.1,0.1,0.2c0.1,0,0.2,0.1,0.3,0.1c0.1,0,0.3,0,0.4,0
	c0.2,0,0.3,0,0.5,0s0.3,0,0.5,0.1c0.2,0,0.3,0.1,0.4,0.2c0.1,0.1,0.2,0.2,0.3,0.3c0.1,0.1,0.1,0.3,0.1,0.5s0,0.4-0.1,0.5
	c-0.1,0.2-0.2,0.3-0.4,0.5c-0.2,0.1-0.4,0.2-0.6,0.3c-0.3,0.1-0.5,0.1-0.9,0.1c-0.3,0-0.6,0-0.8-0.1c-0.2-0.1-0.4-0.1-0.6-0.2
	c-0.2-0.1-0.3-0.2-0.3-0.3c-0.1-0.1-0.1-0.3-0.1-0.4c0-0.2,0.1-0.3,0.2-0.5c0.1-0.1,0.3-0.2,0.4-0.3c-0.1-0.1-0.2-0.1-0.2-0.2
	c-0.1-0.1-0.1-0.2-0.1-0.4c0-0.1,0-0.1,0-0.2c0-0.1,0.1-0.1,0.1-0.2s0.1-0.1,0.2-0.2s0.2-0.1,0.2-0.2c-0.2-0.1-0.4-0.3-0.5-0.5
	s-0.2-0.4-0.2-0.7c0-0.2,0-0.4,0.1-0.6s0.2-0.3,0.4-0.4c0.2-0.1,0.3-0.2,0.5-0.3c0.2-0.1,0.4-0.1,0.7-0.1c0.4,0,0.7,0.1,0.9,0.2
	L114.9,29L114.9,29z M116.6,29.2c0.1-0.1,0.3-0.2,0.5-0.3c0.2-0.1,0.4-0.1,0.6-0.1s0.4,0,0.6,0.1s0.3,0.2,0.4,0.3
	c0.1,0.1,0.2,0.3,0.3,0.5c0.1,0.2,0.1,0.4,0.1,0.6V33h-1.2v-2.6c0-0.2,0-0.4-0.1-0.5s-0.2-0.2-0.4-0.2c-0.1,0-0.3,0-0.4,0.1
	s-0.2,0.1-0.3,0.2v3h-1.2v-6h1.2L116.6,29.2L116.6,29.2z M121.2,33.1c-0.2,0-0.4,0-0.5-0.1c-0.2-0.1-0.3-0.1-0.4-0.2
	c-0.1-0.1-0.2-0.2-0.2-0.4c-0.1-0.1-0.1-0.3-0.1-0.5v-2.1h-0.4c-0.1,0-0.1,0-0.2-0.1c0,0-0.1-0.1-0.1-0.2V29l0.7-0.1l0.2-1
	c0-0.1,0.1-0.2,0.3-0.2h0.6v1.2h1v0.8h-1v2.1c0,0.1,0,0.2,0.1,0.2c0,0.1,0.1,0.1,0.2,0.1h0.1h0.1c0,0,0,0,0.1,0c0,0,0,0,0.1,0h0.1
	c0,0,0,0,0.1,0.1l0.4,0.6c-0.2,0.1-0.3,0.2-0.5,0.3C121.6,33,121.4,33.1,121.2,33.1z"/>
</svg>
