<?xml version="1.0" encoding="utf-8"?>
<!-- Generator: Adobe Illustrator 23.0.0, SVG Export Plug-In . SVG Version: 6.00 Build 0)  -->
<svg version="1.1" id="Layer_1" xmlns="http://www.w3.org/2000/svg" xmlns:xlink="http://www.w3.org/1999/xlink" x="0px" y="0px"
	 viewBox="0 0 32 24" style="enable-background:new 0 0 32 24;" xml:space="preserve">
<style type="text/css">
	.st0{opacity:0.3;}
	.st1{clip-path:url(#SVGID_2_);}
	.st2{fill-rule:evenodd;clip-rule:evenodd;fill:#B4B4B4;}
	.st3{clip-path:url(#SVGID_4_);}
	.st4{clip-path:url(#SVGID_6_);}
	.st5{clip-path:url(#SVGID_8_);}
</style>
<path class="st0" d="M0,2.2C0,1,0.9,0,2.1,0h27.9C31.1,0,32,1,32,2.2v7.6c0,1.2-0.9,2.2-2.1,2.2H2.1C0.9,12,0,11,0,9.8V2.2z"/>
<g>
	<defs>
		<path id="SVGID_1_" d="M14,2H4C2.9,2,2,2.9,2,4v4c0,1.1,0.9,2,2,2h10V2z"/>
	</defs>
	<clipPath id="SVGID_2_">
		<use xlink:href="#SVGID_1_"  style="overflow:visible;"/>
	</clipPath>
	<g class="st1">
		<path class="st2" d="M8,3L4,6l4,3V7h4V5H8V3z"/>
	</g>
</g>
<g>
	<defs>
		<path id="SVGID_3_" d="M18,10h10c1.1,0,2-0.9,2-2V4c0-1.1-0.9-2-2-2H18V10z"/>
	</defs>
	<clipPath id="SVGID_4_">
		<use xlink:href="#SVGID_3_"  style="overflow:visible;"/>
	</clipPath>
	<g class="st3">
		<path class="st2" d="M24,9l4-3l-4-3v2h-4v2h4V9z"/>
	</g>
</g>
<path class="st0" d="M0,14.2C0,13,0.9,12,2.1,12h27.9c1.1,0,2.1,1,2.1,2.2v7.6c0,1.2-0.9,2.2-2.1,2.2H2.1C0.9,24,0,23,0,21.8V14.2z"
	/>
<g>
	<defs>
		<path id="SVGID_5_" d="M14,14H4c-1.1,0-2,0.9-2,2v4c0,1.1,0.9,2,2,2h10V14z"/>
	</defs>
	<clipPath id="SVGID_6_">
		<use xlink:href="#SVGID_5_"  style="overflow:visible;"/>
	</clipPath>
	<g class="st4">
		<path class="st2" d="M8,15l-4,3l4,3v-2h4v-2H8V15z"/>
	</g>
</g>
<g>
	<defs>
		<path id="SVGID_7_" d="M18,22h10c1.1,0,2-0.9,2-2v-4c0-1.1-0.9-2-2-2H18V22z"/>
	</defs>
	<clipPath id="SVGID_8_">
		<use xlink:href="#SVGID_7_"  style="overflow:visible;"/>
	</clipPath>
	<g class="st5">
		<path class="st2" d="M24,21l4-3l-4-3v2h-4v2h4V21z"/>
	</g>
</g>
</svg>
