<?xml version="1.0" encoding="utf-8"?>
<!-- Generator: Adobe Illustrator 23.0.0, SVG Export Plug-In . SVG Version: 6.00 Build 0)  -->
<svg version="1.1" id="Layer_1" xmlns="http://www.w3.org/2000/svg" xmlns:xlink="http://www.w3.org/1999/xlink" x="0px" y="0px"
	 viewBox="0 0 94 42" style="enable-background:new 0 0 94 42;" xml:space="preserve">
<style type="text/css">
	.st0{opacity:0.5;}
	.st1{fill:#399DFF;}
	.st2{fill:none;stroke:#399DFF;}
	.st3{fill:#FFFFFF;}
	.st4{fill:#B4B4B4;}
</style>
<path class="st0" d="M0.5,2.5c0-1.1,0.9-2,2-2h89c1.1,0,2,0.9,2,2v9c0,1.1-0.9,2-2,2h-89c-1.1,0-2-0.9-2-2V2.5z"/>
<path class="st1" d="M3.5,2.5h26c0.6,0,1,0.4,1,1v7c0,0.6-0.4,1-1,1h-26c-0.6,0-1-0.4-1-1v-7C2.5,2.9,2.9,2.5,3.5,2.5z"/>
<path class="st2" d="M3.5,2.5h26c0.6,0,1,0.4,1,1v7c0,0.6-0.4,1-1,1h-26c-0.6,0-1-0.4-1-1v-7C2.5,2.9,2.9,2.5,3.5,2.5z"/>
<path class="st3" d="M16.8,7.1c0,0.4-0.1,0.8-0.2,1.2c-0.1,0.4-0.3,0.7-0.6,0.9c-0.3,0.3-0.6,0.5-1,0.6c-0.4,0.2-0.8,0.2-1.2,0.2
	c-0.5,0-0.9-0.1-1.2-0.2c-0.4-0.2-0.7-0.4-1-0.6c-0.3-0.3-0.5-0.6-0.6-0.9c-0.1-0.4-0.2-0.8-0.2-1.2s0.1-0.8,0.2-1.2
	c0.1-0.4,0.4-0.7,0.6-0.9c0.3-0.3,0.6-0.5,1-0.6c0.4-0.2,0.8-0.2,1.2-0.2c0.5,0,0.9,0.1,1.2,0.2c0.4,0.2,0.7,0.4,1,0.6
	c0.3,0.3,0.5,0.6,0.6,0.9C16.7,6.3,16.8,6.7,16.8,7.1z M15.4,7.1c0-0.3,0-0.5-0.1-0.8c-0.1-0.2-0.2-0.4-0.3-0.6
	c-0.1-0.2-0.3-0.3-0.5-0.4c-0.2-0.1-0.4-0.1-0.7-0.1c-0.3,0-0.5,0-0.7,0.1c-0.2,0.1-0.4,0.2-0.5,0.4c-0.1,0.2-0.2,0.4-0.3,0.6
	c-0.1,0.2-0.1,0.5-0.1,0.8c0,0.3,0,0.6,0.1,0.8c0.1,0.2,0.2,0.4,0.3,0.6c0.1,0.2,0.3,0.3,0.5,0.4c0.2,0.1,0.4,0.1,0.7,0.1
	c0.3,0,0.5,0,0.7-0.1c0.2-0.1,0.4-0.2,0.5-0.4c0.1-0.2,0.2-0.4,0.3-0.6C15.4,7.6,15.4,7.4,15.4,7.1z M17.6,10V6.7l-0.3-0.1
	c-0.1,0-0.2-0.1-0.2-0.1C17,6.5,17,6.4,17,6.3V5.9h0.6V5.7c0-0.2,0-0.5,0.1-0.6c0.1-0.2,0.2-0.4,0.3-0.5c0.1-0.1,0.3-0.2,0.5-0.3
	c0.2-0.1,0.4-0.1,0.7-0.1c0.1,0,0.2,0,0.3,0c0.1,0,0.2,0,0.3,0.1l0,0.6c0,0.1,0,0.1-0.1,0.2c-0.1,0-0.1,0-0.2,0c-0.1,0-0.2,0-0.3,0
	c-0.1,0-0.2,0.1-0.2,0.1c-0.1,0.1-0.1,0.1-0.1,0.2c0,0.1,0,0.2,0,0.3v0.1h1.5V5.5c0-0.2,0-0.5,0.1-0.6c0.1-0.2,0.2-0.4,0.3-0.5
	c0.1-0.1,0.3-0.2,0.5-0.3C21.4,4,21.7,4,21.9,4c0.1,0,0.2,0,0.3,0c0.1,0,0.2,0,0.3,0.1l0,0.6c0,0,0,0.1,0,0.1c0,0,0,0-0.1,0.1
	c0,0-0.1,0-0.1,0c0,0-0.1,0-0.1,0c-0.1,0-0.2,0-0.3,0c-0.1,0-0.2,0.1-0.2,0.1c-0.1,0.1-0.1,0.1-0.1,0.2c0,0.1,0,0.2,0,0.3v0.3h1v0.8
	h-0.9V10h-1.2V6.7h-1.4V10H17.6z"/>
<path class="st4" d="M47.8,7.1c0,0.4-0.1,0.8-0.2,1.2c-0.1,0.4-0.3,0.7-0.6,0.9c-0.3,0.3-0.6,0.5-1,0.6c-0.4,0.2-0.8,0.2-1.2,0.2
	s-0.9-0.1-1.2-0.2c-0.4-0.2-0.7-0.4-1-0.6c-0.3-0.3-0.5-0.6-0.6-0.9c-0.1-0.4-0.2-0.8-0.2-1.2s0.1-0.8,0.2-1.2
	c0.1-0.4,0.4-0.7,0.6-0.9c0.3-0.3,0.6-0.5,1-0.6c0.4-0.2,0.8-0.2,1.2-0.2s0.9,0.1,1.2,0.2c0.4,0.2,0.7,0.4,1,0.6
	c0.3,0.3,0.5,0.6,0.6,0.9C47.8,6.3,47.8,6.7,47.8,7.1z M46.5,7.1c0-0.3,0-0.5-0.1-0.8c-0.1-0.2-0.2-0.4-0.3-0.6
	c-0.1-0.2-0.3-0.3-0.5-0.4c-0.2-0.1-0.4-0.1-0.7-0.1c-0.3,0-0.5,0-0.7,0.1c-0.2,0.1-0.4,0.2-0.5,0.4c-0.1,0.2-0.2,0.4-0.3,0.6
	c-0.1,0.2-0.1,0.5-0.1,0.8c0,0.3,0,0.6,0.1,0.8c0.1,0.2,0.2,0.4,0.3,0.6c0.1,0.2,0.3,0.3,0.5,0.4c0.2,0.1,0.4,0.1,0.7,0.1
	c0.3,0,0.5,0,0.7-0.1c0.2-0.1,0.4-0.2,0.5-0.4c0.1-0.2,0.2-0.4,0.3-0.6C46.4,7.6,46.5,7.4,46.5,7.1z M49.4,6.3
	c0.1-0.1,0.2-0.1,0.2-0.2S49.9,6,50,5.9c0.1,0,0.2-0.1,0.3-0.1c0.1,0,0.2,0,0.4,0c0.2,0,0.4,0,0.6,0.1c0.2,0.1,0.3,0.2,0.4,0.3
	c0.1,0.1,0.2,0.3,0.3,0.5c0.1,0.2,0.1,0.4,0.1,0.6V10h-1.2V7.4c0-0.2,0-0.4-0.1-0.5c-0.1-0.1-0.2-0.2-0.4-0.2c-0.1,0-0.3,0-0.4,0.1
	c-0.1,0.1-0.2,0.1-0.3,0.2v3h-1.2V5.9h0.8c0.2,0,0.3,0.1,0.3,0.2L49.4,6.3z"/>
<path class="st4" d="M72.4,7h2.1v2.5c-0.3,0.2-0.6,0.4-1,0.5c-0.3,0.1-0.7,0.1-1.1,0.1c-0.5,0-0.9-0.1-1.3-0.2
	c-0.4-0.2-0.7-0.4-1-0.6c-0.3-0.3-0.5-0.6-0.6-0.9c-0.2-0.4-0.2-0.8-0.2-1.2c0-0.4,0.1-0.8,0.2-1.2c0.1-0.4,0.3-0.7,0.6-0.9
	c0.3-0.3,0.6-0.5,1-0.6c0.4-0.1,0.8-0.2,1.3-0.2c0.2,0,0.5,0,0.7,0.1c0.2,0,0.4,0.1,0.6,0.2c0.2,0.1,0.3,0.2,0.5,0.2
	c0.1,0.1,0.3,0.2,0.4,0.3l-0.4,0.6c-0.1,0.1-0.1,0.2-0.2,0.2c-0.1,0-0.2,0-0.3-0.1c-0.1-0.1-0.2-0.1-0.3-0.2c-0.1,0-0.2-0.1-0.3-0.1
	c-0.1,0-0.2-0.1-0.3-0.1c-0.1,0-0.2,0-0.4,0c-0.3,0-0.5,0-0.7,0.1c-0.2,0.1-0.4,0.2-0.5,0.4c-0.1,0.2-0.3,0.4-0.3,0.6
	c-0.1,0.2-0.1,0.5-0.1,0.8c0,0.3,0,0.6,0.1,0.8c0.1,0.2,0.2,0.4,0.4,0.6c0.2,0.2,0.3,0.3,0.6,0.4C72,9,72.2,9,72.5,9
	c0.2,0,0.3,0,0.4,0c0.1,0,0.3-0.1,0.4-0.1V8h-0.6c-0.1,0-0.2,0-0.2-0.1c0,0-0.1-0.1-0.1-0.2V7z M77.3,8.3c-0.2,0-0.5,0-0.6,0.1
	c-0.2,0-0.3,0.1-0.4,0.1c-0.1,0-0.2,0.1-0.2,0.2c0,0.1-0.1,0.1-0.1,0.2c0,0.1,0,0.2,0.1,0.3c0.1,0.1,0.2,0.1,0.3,0.1
	c0.2,0,0.3,0,0.4-0.1s0.2-0.1,0.4-0.3V8.3z M75.1,6.4c0.3-0.2,0.5-0.4,0.8-0.5c0.3-0.1,0.6-0.2,1-0.2c0.3,0,0.5,0,0.7,0.1
	c0.2,0.1,0.4,0.2,0.5,0.3c0.1,0.1,0.2,0.3,0.3,0.5c0.1,0.2,0.1,0.4,0.1,0.7V10h-0.6c-0.1,0-0.2,0-0.3,0c-0.1,0-0.1-0.1-0.1-0.2
	l-0.1-0.2c-0.1,0.1-0.2,0.2-0.3,0.2c-0.1,0.1-0.2,0.1-0.3,0.2c-0.1,0-0.2,0.1-0.3,0.1c-0.1,0-0.2,0-0.4,0c-0.2,0-0.4,0-0.5-0.1
	c-0.2-0.1-0.3-0.1-0.4-0.2C75.1,9.7,75,9.6,75,9.4c-0.1-0.1-0.1-0.3-0.1-0.5c0-0.1,0-0.3,0.1-0.5c0.1-0.2,0.2-0.3,0.4-0.4
	c0.2-0.1,0.4-0.2,0.7-0.3c0.3-0.1,0.7-0.1,1.2-0.1V7.4c0-0.2-0.1-0.4-0.2-0.5c-0.1-0.1-0.2-0.2-0.4-0.2c-0.1,0-0.3,0-0.4,0
	s-0.2,0.1-0.3,0.1C76,6.9,76,7,75.9,7c-0.1,0-0.2,0-0.2,0c-0.1,0-0.2,0-0.2-0.1c-0.1,0-0.1-0.1-0.1-0.2L75.1,6.4z M80.6,10.1
	c-0.2,0-0.4,0-0.5-0.1c-0.1-0.1-0.3-0.1-0.4-0.2c-0.1-0.1-0.2-0.2-0.2-0.4S79.4,9,79.4,8.9V6.7H79c-0.1,0-0.1,0-0.2-0.1
	c0,0-0.1-0.1-0.1-0.2V6l0.7-0.1l0.2-1c0-0.1,0.1-0.2,0.3-0.2h0.6v1.2h1v0.8h-1v2.1c0,0.1,0,0.2,0.1,0.2c0,0.1,0.1,0.1,0.2,0.1
	c0,0,0.1,0,0.1,0c0,0,0.1,0,0.1,0c0,0,0,0,0.1,0c0,0,0,0,0.1,0c0,0,0.1,0,0.1,0c0,0,0,0,0.1,0.1l0.4,0.6c-0.2,0.1-0.3,0.2-0.5,0.3
	C81,10,80.8,10.1,80.6,10.1z M84.6,7.4c0-0.1,0-0.2,0-0.3c0-0.1-0.1-0.2-0.1-0.2c-0.1-0.1-0.1-0.1-0.2-0.2c-0.1,0-0.2-0.1-0.3-0.1
	c-0.2,0-0.4,0.1-0.6,0.2c-0.1,0.1-0.2,0.3-0.3,0.6H84.6z M83,8.1c0,0.3,0.1,0.6,0.3,0.8c0.2,0.2,0.4,0.2,0.7,0.2
	c0.1,0,0.3,0,0.4-0.1C84.5,9,84.6,9,84.7,9c0.1,0,0.2-0.1,0.2-0.1c0.1,0,0.1-0.1,0.2-0.1c0.1,0,0.2,0,0.2,0.1l0.4,0.4
	c-0.1,0.1-0.3,0.3-0.4,0.4c-0.1,0.1-0.3,0.2-0.5,0.2C84.7,10,84.5,10,84.4,10c-0.2,0-0.3,0-0.4,0c-0.3,0-0.6,0-0.8-0.1
	c-0.3-0.1-0.5-0.2-0.7-0.4c-0.2-0.2-0.3-0.4-0.5-0.7c-0.1-0.3-0.2-0.6-0.2-1c0-0.3,0-0.5,0.1-0.8c0.1-0.2,0.2-0.5,0.4-0.7
	C82.5,6.2,82.8,6.1,83,6c0.3-0.1,0.5-0.2,0.9-0.2c0.3,0,0.5,0,0.8,0.1C84.8,6,85,6.1,85.2,6.3c0.2,0.2,0.3,0.4,0.4,0.6
	c0.1,0.2,0.1,0.5,0.1,0.8c0,0.1,0,0.2,0,0.2c0,0.1,0,0.1,0,0.1c0,0-0.1,0.1-0.1,0.1c0,0-0.1,0-0.1,0H83z"/>
<path class="st0" d="M0.5,16.5c0-1.1,0.9-2,2-2h89c1.1,0,2,0.9,2,2v9c0,1.1-0.9,2-2,2h-89c-1.1,0-2-0.9-2-2V16.5z"/>
<path class="st4" d="M16.8,21.1c0,0.4-0.1,0.8-0.2,1.2c-0.1,0.4-0.3,0.7-0.6,0.9c-0.3,0.3-0.6,0.5-1,0.6c-0.4,0.2-0.8,0.2-1.2,0.2
	c-0.5,0-0.9-0.1-1.2-0.2c-0.4-0.2-0.7-0.4-1-0.6c-0.3-0.3-0.5-0.6-0.6-0.9c-0.1-0.4-0.2-0.8-0.2-1.2c0-0.4,0.1-0.8,0.2-1.2
	c0.1-0.4,0.4-0.7,0.6-0.9c0.3-0.3,0.6-0.5,1-0.6c0.4-0.2,0.8-0.2,1.2-0.2c0.5,0,0.9,0.1,1.2,0.2c0.4,0.2,0.7,0.4,1,0.6
	c0.3,0.3,0.5,0.6,0.6,0.9C16.7,20.3,16.8,20.7,16.8,21.1z M15.4,21.1c0-0.3,0-0.5-0.1-0.8c-0.1-0.2-0.2-0.4-0.3-0.6
	c-0.1-0.2-0.3-0.3-0.5-0.4c-0.2-0.1-0.4-0.1-0.7-0.1c-0.3,0-0.5,0-0.7,0.1c-0.2,0.1-0.4,0.2-0.5,0.4c-0.1,0.2-0.2,0.4-0.3,0.6
	c-0.1,0.2-0.1,0.5-0.1,0.8c0,0.3,0,0.6,0.1,0.8c0.1,0.2,0.2,0.4,0.3,0.6c0.1,0.2,0.3,0.3,0.5,0.4c0.2,0.1,0.4,0.1,0.7,0.1
	c0.3,0,0.5,0,0.7-0.1c0.2-0.1,0.4-0.2,0.5-0.4c0.1-0.2,0.2-0.4,0.3-0.6C15.4,21.6,15.4,21.4,15.4,21.1z M17.6,24v-3.3l-0.3-0.1
	c-0.1,0-0.2-0.1-0.2-0.1c-0.1,0-0.1-0.1-0.1-0.2v-0.5h0.6v-0.2c0-0.2,0-0.5,0.1-0.6c0.1-0.2,0.2-0.4,0.3-0.5
	c0.1-0.1,0.3-0.2,0.5-0.3c0.2-0.1,0.4-0.1,0.7-0.1c0.1,0,0.2,0,0.3,0c0.1,0,0.2,0,0.3,0.1l0,0.6c0,0.1,0,0.1-0.1,0.2
	c-0.1,0-0.1,0-0.2,0c-0.1,0-0.2,0-0.3,0c-0.1,0-0.2,0.1-0.2,0.1c-0.1,0.1-0.1,0.1-0.1,0.2c0,0.1,0,0.2,0,0.3v0.1h1.5v-0.3
	c0-0.2,0-0.5,0.1-0.6c0.1-0.2,0.2-0.4,0.3-0.5c0.1-0.1,0.3-0.2,0.5-0.3c0.2-0.1,0.4-0.1,0.7-0.1c0.1,0,0.2,0,0.3,0
	c0.1,0,0.2,0,0.3,0.1l0,0.6c0,0,0,0.1,0,0.1c0,0,0,0-0.1,0.1c0,0-0.1,0-0.1,0c0,0-0.1,0-0.1,0c-0.1,0-0.2,0-0.3,0
	c-0.1,0-0.2,0.1-0.2,0.1c-0.1,0.1-0.1,0.1-0.1,0.2c0,0.1,0,0.2,0,0.3v0.3h1v0.8h-0.9V24h-1.2v-3.3h-1.4V24H17.6z"/>
<path class="st1" d="M34.5,16.5h25c0.6,0,1,0.4,1,1v7c0,0.6-0.4,1-1,1h-25c-0.6,0-1-0.4-1-1v-7C33.5,16.9,33.9,16.5,34.5,16.5z"/>
<path class="st2" d="M34.5,16.5h25c0.6,0,1,0.4,1,1v7c0,0.6-0.4,1-1,1h-25c-0.6,0-1-0.4-1-1v-7C33.5,16.9,33.9,16.5,34.5,16.5z"/>
<path class="st3" d="M47.8,21.1c0,0.4-0.1,0.8-0.2,1.2c-0.1,0.4-0.3,0.7-0.6,0.9c-0.3,0.3-0.6,0.5-1,0.6c-0.4,0.2-0.8,0.2-1.2,0.2
	s-0.9-0.1-1.2-0.2c-0.4-0.2-0.7-0.4-1-0.6c-0.3-0.3-0.5-0.6-0.6-0.9c-0.1-0.4-0.2-0.8-0.2-1.2c0-0.4,0.1-0.8,0.2-1.2
	c0.1-0.4,0.4-0.7,0.6-0.9c0.3-0.3,0.6-0.5,1-0.6c0.4-0.2,0.8-0.2,1.2-0.2s0.9,0.1,1.2,0.2c0.4,0.2,0.7,0.4,1,0.6
	c0.3,0.3,0.5,0.6,0.6,0.9C47.8,20.3,47.8,20.7,47.8,21.1z M46.5,21.1c0-0.3,0-0.5-0.1-0.8c-0.1-0.2-0.2-0.4-0.3-0.6
	c-0.1-0.2-0.3-0.3-0.5-0.4c-0.2-0.1-0.4-0.1-0.7-0.1c-0.3,0-0.5,0-0.7,0.1c-0.2,0.1-0.4,0.2-0.5,0.4c-0.1,0.2-0.2,0.4-0.3,0.6
	c-0.1,0.2-0.1,0.5-0.1,0.8c0,0.3,0,0.6,0.1,0.8c0.1,0.2,0.2,0.4,0.3,0.6c0.1,0.2,0.3,0.3,0.5,0.4c0.2,0.1,0.4,0.1,0.7,0.1
	c0.3,0,0.5,0,0.7-0.1c0.2-0.1,0.4-0.2,0.5-0.4c0.1-0.2,0.2-0.4,0.3-0.6C46.4,21.6,46.5,21.4,46.5,21.1z M49.4,20.3
	c0.1-0.1,0.2-0.1,0.2-0.2c0.1-0.1,0.2-0.1,0.3-0.2c0.1,0,0.2-0.1,0.3-0.1c0.1,0,0.2,0,0.4,0c0.2,0,0.4,0,0.6,0.1
	c0.2,0.1,0.3,0.2,0.4,0.3c0.1,0.1,0.2,0.3,0.3,0.5c0.1,0.2,0.1,0.4,0.1,0.6V24h-1.2v-2.6c0-0.2,0-0.4-0.1-0.5
	c-0.1-0.1-0.2-0.2-0.4-0.2c-0.1,0-0.3,0-0.4,0.1c-0.1,0.1-0.2,0.1-0.3,0.2v3h-1.2v-4.1h0.8c0.2,0,0.3,0.1,0.3,0.2L49.4,20.3z"/>
<path class="st4" d="M72.4,21h2.1v2.5c-0.3,0.2-0.6,0.4-1,0.5c-0.3,0.1-0.7,0.1-1.1,0.1c-0.5,0-0.9-0.1-1.3-0.2
	c-0.4-0.2-0.7-0.4-1-0.6c-0.3-0.3-0.5-0.6-0.6-0.9c-0.2-0.4-0.2-0.8-0.2-1.2c0-0.4,0.1-0.8,0.2-1.2c0.1-0.4,0.3-0.7,0.6-0.9
	c0.3-0.3,0.6-0.5,1-0.6c0.4-0.1,0.8-0.2,1.3-0.2c0.2,0,0.5,0,0.7,0.1c0.2,0,0.4,0.1,0.6,0.2c0.2,0.1,0.3,0.2,0.5,0.2
	c0.1,0.1,0.3,0.2,0.4,0.3l-0.4,0.6c-0.1,0.1-0.1,0.2-0.2,0.2c-0.1,0-0.2,0-0.3-0.1c-0.1-0.1-0.2-0.1-0.3-0.2c-0.1,0-0.2-0.1-0.3-0.1
	c-0.1,0-0.2-0.1-0.3-0.1c-0.1,0-0.2,0-0.4,0c-0.3,0-0.5,0-0.7,0.1c-0.2,0.1-0.4,0.2-0.5,0.4c-0.1,0.2-0.3,0.4-0.3,0.6
	c-0.1,0.2-0.1,0.5-0.1,0.8c0,0.3,0,0.6,0.1,0.8c0.1,0.2,0.2,0.4,0.4,0.6c0.2,0.2,0.3,0.3,0.6,0.4C72,23,72.2,23,72.5,23
	c0.2,0,0.3,0,0.4,0c0.1,0,0.3-0.1,0.4-0.1V22h-0.6c-0.1,0-0.2,0-0.2-0.1c0,0-0.1-0.1-0.1-0.2V21z M77.3,22.3c-0.2,0-0.5,0-0.6,0.1
	c-0.2,0-0.3,0.1-0.4,0.1s-0.2,0.1-0.2,0.2c0,0.1-0.1,0.1-0.1,0.2c0,0.1,0,0.2,0.1,0.3c0.1,0.1,0.2,0.1,0.3,0.1c0.2,0,0.3,0,0.4-0.1
	s0.2-0.1,0.4-0.3V22.3z M75.1,20.4c0.3-0.2,0.5-0.4,0.8-0.5c0.3-0.1,0.6-0.2,1-0.2c0.3,0,0.5,0,0.7,0.1c0.2,0.1,0.4,0.2,0.5,0.3
	c0.1,0.1,0.2,0.3,0.3,0.5c0.1,0.2,0.1,0.4,0.1,0.7V24h-0.6c-0.1,0-0.2,0-0.3,0c-0.1,0-0.1-0.1-0.1-0.2l-0.1-0.2
	c-0.1,0.1-0.2,0.2-0.3,0.2c-0.1,0.1-0.2,0.1-0.3,0.2c-0.1,0-0.2,0.1-0.3,0.1c-0.1,0-0.2,0-0.4,0c-0.2,0-0.4,0-0.5-0.1
	c-0.2-0.1-0.3-0.1-0.4-0.2c-0.1-0.1-0.2-0.2-0.2-0.4c-0.1-0.1-0.1-0.3-0.1-0.5c0-0.1,0-0.3,0.1-0.5c0.1-0.2,0.2-0.3,0.4-0.4
	c0.2-0.1,0.4-0.2,0.7-0.3c0.3-0.1,0.7-0.1,1.2-0.1v-0.2c0-0.2-0.1-0.4-0.2-0.5c-0.1-0.1-0.2-0.2-0.4-0.2c-0.1,0-0.3,0-0.4,0
	s-0.2,0.1-0.3,0.1C76,20.9,76,21,75.9,21c-0.1,0-0.2,0-0.2,0c-0.1,0-0.2,0-0.2-0.1s-0.1-0.1-0.1-0.2L75.1,20.4z M80.6,24.1
	c-0.2,0-0.4,0-0.5-0.1c-0.1-0.1-0.3-0.1-0.4-0.2c-0.1-0.1-0.2-0.2-0.2-0.4c-0.1-0.1-0.1-0.3-0.1-0.5v-2.1H79c-0.1,0-0.1,0-0.2-0.1
	c0,0-0.1-0.1-0.1-0.2V20l0.7-0.1l0.2-1c0-0.1,0.1-0.2,0.3-0.2h0.6v1.2h1v0.8h-1v2.1c0,0.1,0,0.2,0.1,0.2c0,0.1,0.1,0.1,0.2,0.1
	c0,0,0.1,0,0.1,0c0,0,0.1,0,0.1,0c0,0,0,0,0.1,0c0,0,0,0,0.1,0c0,0,0.1,0,0.1,0c0,0,0,0,0.1,0.1l0.4,0.6c-0.2,0.1-0.3,0.2-0.5,0.3
	C81,24,80.8,24.1,80.6,24.1z M84.6,21.4c0-0.1,0-0.2,0-0.3c0-0.1-0.1-0.2-0.1-0.2c-0.1-0.1-0.1-0.1-0.2-0.2c-0.1,0-0.2-0.1-0.3-0.1
	c-0.2,0-0.4,0.1-0.6,0.2c-0.1,0.1-0.2,0.3-0.3,0.6H84.6z M83,22.1c0,0.3,0.1,0.6,0.3,0.8c0.2,0.2,0.4,0.2,0.7,0.2
	c0.1,0,0.3,0,0.4-0.1c0.1,0,0.2-0.1,0.3-0.1c0.1,0,0.2-0.1,0.2-0.1c0.1,0,0.1-0.1,0.2-0.1c0.1,0,0.2,0,0.2,0.1l0.4,0.4
	c-0.1,0.1-0.3,0.3-0.4,0.4c-0.1,0.1-0.3,0.2-0.5,0.2C84.7,24,84.5,24,84.4,24c-0.2,0-0.3,0-0.4,0c-0.3,0-0.6,0-0.8-0.1
	c-0.3-0.1-0.5-0.2-0.7-0.4c-0.2-0.2-0.3-0.4-0.5-0.7c-0.1-0.3-0.2-0.6-0.2-1c0-0.3,0-0.5,0.1-0.8c0.1-0.2,0.2-0.5,0.4-0.7
	c0.2-0.2,0.4-0.3,0.6-0.4c0.3-0.1,0.5-0.2,0.9-0.2c0.3,0,0.5,0,0.8,0.1c0.2,0.1,0.4,0.2,0.6,0.4c0.2,0.2,0.3,0.4,0.4,0.6
	c0.1,0.2,0.1,0.5,0.1,0.8c0,0.1,0,0.2,0,0.2c0,0.1,0,0.1,0,0.1c0,0-0.1,0.1-0.1,0.1c0,0-0.1,0-0.1,0H83z"/>
<path class="st0" d="M0.5,30.5c0-1.1,0.9-2,2-2h89c1.1,0,2,0.9,2,2v9c0,1.1-0.9,2-2,2h-89c-1.1,0-2-0.9-2-2V30.5z"/>
<path class="st4" d="M16.8,35.1c0,0.4-0.1,0.8-0.2,1.2c-0.1,0.4-0.3,0.7-0.6,0.9c-0.3,0.3-0.6,0.5-1,0.6c-0.4,0.2-0.8,0.2-1.2,0.2
	c-0.5,0-0.9-0.1-1.2-0.2c-0.4-0.2-0.7-0.4-1-0.6c-0.3-0.3-0.5-0.6-0.6-0.9c-0.1-0.4-0.2-0.8-0.2-1.2s0.1-0.8,0.2-1.2
	c0.1-0.4,0.4-0.7,0.6-0.9c0.3-0.3,0.6-0.5,1-0.6c0.4-0.2,0.8-0.2,1.2-0.2c0.5,0,0.9,0.1,1.2,0.2c0.4,0.2,0.7,0.4,1,0.6
	c0.3,0.3,0.5,0.6,0.6,0.9C16.7,34.3,16.8,34.7,16.8,35.1z M15.4,35.1c0-0.3,0-0.5-0.1-0.8c-0.1-0.2-0.2-0.4-0.3-0.6
	c-0.1-0.2-0.3-0.3-0.5-0.4c-0.2-0.1-0.4-0.1-0.7-0.1c-0.3,0-0.5,0-0.7,0.1c-0.2,0.1-0.4,0.2-0.5,0.4c-0.1,0.2-0.2,0.4-0.3,0.6
	c-0.1,0.2-0.1,0.5-0.1,0.8c0,0.3,0,0.6,0.1,0.8c0.1,0.2,0.2,0.4,0.3,0.6c0.1,0.2,0.3,0.3,0.5,0.4c0.2,0.1,0.4,0.1,0.7,0.1
	c0.3,0,0.5,0,0.7-0.1c0.2-0.1,0.4-0.2,0.5-0.4c0.1-0.2,0.2-0.4,0.3-0.6C15.4,35.6,15.4,35.4,15.4,35.1z M17.6,38v-3.3l-0.3-0.1
	c-0.1,0-0.2-0.1-0.2-0.1c-0.1,0-0.1-0.1-0.1-0.2v-0.5h0.6v-0.2c0-0.2,0-0.5,0.1-0.6c0.1-0.2,0.2-0.4,0.3-0.5
	c0.1-0.1,0.3-0.2,0.5-0.3c0.2-0.1,0.4-0.1,0.7-0.1c0.1,0,0.2,0,0.3,0c0.1,0,0.2,0,0.3,0.1l0,0.6c0,0.1,0,0.1-0.1,0.2
	c-0.1,0-0.1,0-0.2,0c-0.1,0-0.2,0-0.3,0c-0.1,0-0.2,0.1-0.2,0.1c-0.1,0.1-0.1,0.1-0.1,0.2c0,0.1,0,0.2,0,0.3v0.1h1.5v-0.3
	c0-0.2,0-0.5,0.1-0.6c0.1-0.2,0.2-0.4,0.3-0.5c0.1-0.1,0.3-0.2,0.5-0.3s0.4-0.1,0.7-0.1c0.1,0,0.2,0,0.3,0c0.1,0,0.2,0,0.3,0.1
	l0,0.6c0,0,0,0.1,0,0.1c0,0,0,0-0.1,0.1c0,0-0.1,0-0.1,0c0,0-0.1,0-0.1,0c-0.1,0-0.2,0-0.3,0c-0.1,0-0.2,0.1-0.2,0.1
	c-0.1,0.1-0.1,0.1-0.1,0.2c0,0.1,0,0.2,0,0.3v0.3h1v0.8h-0.9V38h-1.2v-3.3h-1.4V38H17.6z"/>
<path class="st4" d="M47.8,35.1c0,0.4-0.1,0.8-0.2,1.2c-0.1,0.4-0.3,0.7-0.6,0.9c-0.3,0.3-0.6,0.5-1,0.6c-0.4,0.2-0.8,0.2-1.2,0.2
	s-0.9-0.1-1.2-0.2c-0.4-0.2-0.7-0.4-1-0.6c-0.3-0.3-0.5-0.6-0.6-0.9c-0.1-0.4-0.2-0.8-0.2-1.2s0.1-0.8,0.2-1.2
	c0.1-0.4,0.4-0.7,0.6-0.9c0.3-0.3,0.6-0.5,1-0.6c0.4-0.2,0.8-0.2,1.2-0.2s0.9,0.1,1.2,0.2c0.4,0.2,0.7,0.4,1,0.6
	c0.3,0.3,0.5,0.6,0.6,0.9C47.8,34.3,47.8,34.7,47.8,35.1z M46.5,35.1c0-0.3,0-0.5-0.1-0.8c-0.1-0.2-0.2-0.4-0.3-0.6
	c-0.1-0.2-0.3-0.3-0.5-0.4s-0.4-0.1-0.7-0.1c-0.3,0-0.5,0-0.7,0.1c-0.2,0.1-0.4,0.2-0.5,0.4c-0.1,0.2-0.2,0.4-0.3,0.6
	c-0.1,0.2-0.1,0.5-0.1,0.8c0,0.3,0,0.6,0.1,0.8c0.1,0.2,0.2,0.4,0.3,0.6c0.1,0.2,0.3,0.3,0.5,0.4c0.2,0.1,0.4,0.1,0.7,0.1
	c0.3,0,0.5,0,0.7-0.1c0.2-0.1,0.4-0.2,0.5-0.4c0.1-0.2,0.2-0.4,0.3-0.6C46.4,35.6,46.5,35.4,46.5,35.1z M49.4,34.3
	c0.1-0.1,0.2-0.1,0.2-0.2s0.2-0.1,0.3-0.2c0.1,0,0.2-0.1,0.3-0.1c0.1,0,0.2,0,0.4,0c0.2,0,0.4,0,0.6,0.1c0.2,0.1,0.3,0.2,0.4,0.3
	c0.1,0.1,0.2,0.3,0.3,0.5c0.1,0.2,0.1,0.4,0.1,0.6V38h-1.2v-2.6c0-0.2,0-0.4-0.1-0.5c-0.1-0.1-0.2-0.2-0.4-0.2c-0.1,0-0.3,0-0.4,0.1
	c-0.1,0.1-0.2,0.1-0.3,0.2v3h-1.2v-4.1h0.8c0.2,0,0.3,0.1,0.3,0.2L49.4,34.3z"/>
<path class="st1" d="M64.5,30.5h26c0.6,0,1,0.4,1,1v7c0,0.6-0.4,1-1,1h-26c-0.6,0-1-0.4-1-1v-7C63.5,30.9,63.9,30.5,64.5,30.5z"/>
<path class="st2" d="M64.5,30.5h26c0.6,0,1,0.4,1,1v7c0,0.6-0.4,1-1,1h-26c-0.6,0-1-0.4-1-1v-7C63.5,30.9,63.9,30.5,64.5,30.5z"/>
<path class="st3" d="M72.4,35h2.1v2.5c-0.3,0.2-0.6,0.4-1,0.5c-0.3,0.1-0.7,0.1-1.1,0.1c-0.5,0-0.9-0.1-1.3-0.2
	c-0.4-0.2-0.7-0.4-1-0.6c-0.3-0.3-0.5-0.6-0.6-0.9c-0.2-0.4-0.2-0.8-0.2-1.2c0-0.4,0.1-0.8,0.2-1.2c0.1-0.4,0.3-0.7,0.6-0.9
	c0.3-0.3,0.6-0.5,1-0.6c0.4-0.1,0.8-0.2,1.3-0.2c0.2,0,0.5,0,0.7,0.1c0.2,0,0.4,0.1,0.6,0.2c0.2,0.1,0.3,0.2,0.5,0.2
	c0.1,0.1,0.3,0.2,0.4,0.3l-0.4,0.6c-0.1,0.1-0.1,0.2-0.2,0.2c-0.1,0-0.2,0-0.3-0.1c-0.1-0.1-0.2-0.1-0.3-0.2c-0.1,0-0.2-0.1-0.3-0.1
	c-0.1,0-0.2-0.1-0.3-0.1c-0.1,0-0.2,0-0.4,0c-0.3,0-0.5,0-0.7,0.1c-0.2,0.1-0.4,0.2-0.5,0.4c-0.1,0.2-0.3,0.4-0.3,0.6
	c-0.1,0.2-0.1,0.5-0.1,0.8c0,0.3,0,0.6,0.1,0.8c0.1,0.2,0.2,0.4,0.4,0.6c0.2,0.2,0.3,0.3,0.6,0.4C72,37,72.2,37,72.5,37
	c0.2,0,0.3,0,0.4,0c0.1,0,0.3-0.1,0.4-0.1V36h-0.6c-0.1,0-0.2,0-0.2-0.1c0,0-0.1-0.1-0.1-0.2V35z M77.3,36.3c-0.2,0-0.5,0-0.6,0.1
	c-0.2,0-0.3,0.1-0.4,0.1c-0.1,0-0.2,0.1-0.2,0.2c0,0.1-0.1,0.1-0.1,0.2c0,0.1,0,0.2,0.1,0.3c0.1,0.1,0.2,0.1,0.3,0.1
	c0.2,0,0.3,0,0.4-0.1s0.2-0.1,0.4-0.3V36.3z M75.1,34.4c0.3-0.2,0.5-0.4,0.8-0.5c0.3-0.1,0.6-0.2,1-0.2c0.3,0,0.5,0,0.7,0.1
	c0.2,0.1,0.4,0.2,0.5,0.3c0.1,0.1,0.2,0.3,0.3,0.5s0.1,0.4,0.1,0.7V38h-0.6c-0.1,0-0.2,0-0.3,0c-0.1,0-0.1-0.1-0.1-0.2l-0.1-0.2
	c-0.1,0.1-0.2,0.2-0.3,0.2c-0.1,0.1-0.2,0.1-0.3,0.2c-0.1,0-0.2,0.1-0.3,0.1c-0.1,0-0.2,0-0.4,0c-0.2,0-0.4,0-0.5-0.1
	c-0.2-0.1-0.3-0.1-0.4-0.2c-0.1-0.1-0.2-0.2-0.2-0.4c-0.1-0.1-0.1-0.3-0.1-0.5c0-0.1,0-0.3,0.1-0.5c0.1-0.2,0.2-0.3,0.4-0.4
	c0.2-0.1,0.4-0.2,0.7-0.3c0.3-0.1,0.7-0.1,1.2-0.1v-0.2c0-0.2-0.1-0.4-0.2-0.5c-0.1-0.1-0.2-0.2-0.4-0.2c-0.1,0-0.3,0-0.4,0
	c-0.1,0-0.2,0.1-0.3,0.1C76,34.9,76,35,75.9,35c-0.1,0-0.2,0-0.2,0c-0.1,0-0.2,0-0.2-0.1c-0.1,0-0.1-0.1-0.1-0.2L75.1,34.4z
	 M80.6,38.1c-0.2,0-0.4,0-0.5-0.1c-0.1-0.1-0.3-0.1-0.4-0.2c-0.1-0.1-0.2-0.2-0.2-0.4s-0.1-0.3-0.1-0.5v-2.1H79
	c-0.1,0-0.1,0-0.2-0.1c0,0-0.1-0.1-0.1-0.2V34l0.7-0.1l0.2-1c0-0.1,0.1-0.2,0.3-0.2h0.6v1.2h1v0.8h-1v2.1c0,0.1,0,0.2,0.1,0.2
	c0,0.1,0.1,0.1,0.2,0.1c0,0,0.1,0,0.1,0c0,0,0.1,0,0.1,0c0,0,0,0,0.1,0c0,0,0,0,0.1,0c0,0,0.1,0,0.1,0c0,0,0,0,0.1,0.1l0.4,0.6
	c-0.2,0.1-0.3,0.2-0.5,0.3C81,38,80.8,38.1,80.6,38.1z M84.6,35.4c0-0.1,0-0.2,0-0.3c0-0.1-0.1-0.2-0.1-0.2
	c-0.1-0.1-0.1-0.1-0.2-0.2c-0.1,0-0.2-0.1-0.3-0.1c-0.2,0-0.4,0.1-0.6,0.2c-0.1,0.1-0.2,0.3-0.3,0.6H84.6z M83,36.1
	c0,0.3,0.1,0.6,0.3,0.8c0.2,0.2,0.4,0.2,0.7,0.2c0.1,0,0.3,0,0.4-0.1c0.1,0,0.2-0.1,0.3-0.1c0.1,0,0.2-0.1,0.2-0.1
	c0.1,0,0.1-0.1,0.2-0.1c0.1,0,0.2,0,0.2,0.1l0.4,0.4c-0.1,0.1-0.3,0.3-0.4,0.4c-0.1,0.1-0.3,0.2-0.5,0.2C84.7,38,84.5,38,84.4,38
	c-0.2,0-0.3,0-0.4,0c-0.3,0-0.6,0-0.8-0.1c-0.3-0.1-0.5-0.2-0.7-0.4c-0.2-0.2-0.3-0.4-0.5-0.7c-0.1-0.3-0.2-0.6-0.2-1
	c0-0.3,0-0.5,0.1-0.8c0.1-0.2,0.2-0.5,0.4-0.7c0.2-0.2,0.4-0.3,0.6-0.4c0.3-0.1,0.5-0.2,0.9-0.2c0.3,0,0.5,0,0.8,0.1
	c0.2,0.1,0.4,0.2,0.6,0.4c0.2,0.2,0.3,0.4,0.4,0.6c0.1,0.2,0.1,0.5,0.1,0.8c0,0.1,0,0.2,0,0.2c0,0.1,0,0.1,0,0.1
	c0,0-0.1,0.1-0.1,0.1c0,0-0.1,0-0.1,0H83z"/>
</svg>
