<?xml version="1.0" encoding="utf-8"?>
<!-- Generator: Adobe Illustrator 23.0.0, SVG Export Plug-In . SVG Version: 6.00 Build 0)  -->
<svg version="1.1" id="Layer_1" xmlns="http://www.w3.org/2000/svg" xmlns:xlink="http://www.w3.org/1999/xlink" x="0px" y="0px"
	 viewBox="0 0 135 108" style="enable-background:new 0 0 135 108;" xml:space="preserve">
<style type="text/css">
	.st0{opacity:0.3;enable-background:new    ;}
	.st1{opacity:0.5;fill:#FFFFFF;enable-background:new    ;}
</style>
<path class="st0" d="M0.5,2.5c0-1.1,0.9-2,2-2h130c1.1,0,2,0.9,2,2v22c0,1.1-0.9,2-2,2H2.5c-1.1,0-2-0.9-2-2V2.5z"/>
<path class="st1" d="M3.5,2.5h28c0.6,0,1,0.4,1,1v20c0,0.6-0.4,1-1,1h-28c-0.6,0-1-0.4-1-1v-20C2.5,2.9,2.9,2.5,3.5,2.5z"/>
<path class="st1" d="M3.5,2.5h28c0.6,0,1,0.4,1,1v20c0,0.6-0.4,1-1,1h-28c-0.6,0-1-0.4-1-1v-20C2.5,2.9,2.9,2.5,3.5,2.5z"/>
<path d="M17.8,14.1c0,0.4-0.1,0.8-0.2,1.2S17.3,16,17,16.2c-0.3,0.3-0.6,0.5-1,0.6C15.6,17,15.2,17,14.8,17c-0.5,0-0.9-0.1-1.2-0.2
	c-0.4-0.2-0.7-0.4-1-0.6c-0.3-0.3-0.5-0.6-0.6-0.9c-0.1-0.4-0.2-0.8-0.2-1.2s0.1-0.8,0.2-1.2c0.1-0.4,0.4-0.7,0.6-0.9
	c0.3-0.3,0.6-0.5,1-0.6c0.4-0.2,0.8-0.2,1.2-0.2c0.5,0,0.9,0.1,1.2,0.2c0.4,0.2,0.7,0.4,1,0.6c0.3,0.3,0.5,0.6,0.6,0.9
	C17.7,13.3,17.8,13.7,17.8,14.1z M16.4,14.1c0-0.3,0-0.5-0.1-0.8c-0.1-0.2-0.2-0.4-0.3-0.6c-0.1-0.2-0.3-0.3-0.5-0.4
	c-0.2-0.1-0.4-0.1-0.7-0.1s-0.5,0-0.7,0.1s-0.4,0.2-0.5,0.4s-0.2,0.4-0.3,0.6c-0.1,0.2-0.1,0.5-0.1,0.8s0,0.6,0.1,0.8
	s0.2,0.4,0.3,0.6c0.1,0.2,0.3,0.3,0.5,0.4s0.4,0.1,0.7,0.1s0.5,0,0.7-0.1s0.4-0.2,0.5-0.4c0.1-0.2,0.2-0.4,0.3-0.6
	C16.4,14.6,16.4,14.4,16.4,14.1z M18.6,17v-3.3l-0.3-0.1c-0.1,0-0.2-0.1-0.2-0.1c-0.1,0-0.1-0.1-0.1-0.2v-0.5h0.6v-0.2
	c0-0.2,0-0.5,0.1-0.6c0.1-0.2,0.2-0.4,0.3-0.5c0.1-0.1,0.3-0.2,0.5-0.3s0.4-0.1,0.7-0.1c0.1,0,0.2,0,0.3,0c0.1,0,0.2,0,0.3,0.1v0.6
	c0,0.1,0,0.1-0.1,0.2c-0.1,0-0.1,0-0.2,0s-0.2,0-0.3,0c-0.1,0-0.2,0.1-0.2,0.1c-0.1,0.1-0.1,0.1-0.1,0.2c0,0.1,0,0.2,0,0.3v0.1h1.5
	v-0.3c0-0.2,0-0.5,0.1-0.6c0.1-0.2,0.2-0.4,0.3-0.5c0.1-0.1,0.3-0.2,0.5-0.3s0.4-0.1,0.7-0.1c0.1,0,0.2,0,0.3,0c0.1,0,0.2,0,0.3,0.1
	v0.6v0.1c0,0,0,0-0.1,0.1h-0.1h-0.1c-0.1,0-0.2,0-0.3,0c-0.1,0-0.2,0.1-0.2,0.1c-0.1,0.1-0.1,0.1-0.1,0.2c0,0.1,0,0.2,0,0.3v0.3h1
	v0.8h-0.9V17h-1.2v-3.3h-1.4V17H18.6z"/>
<path class="st1" d="M46,12.4c0,0.1-0.1,0.1-0.1,0.1s-0.1,0-0.2,0c-0.1,0-0.1,0-0.2-0.1c-0.1,0-0.1-0.1-0.2-0.1
	c-0.1,0-0.2-0.1-0.3-0.1s-0.2-0.1-0.4-0.1c-0.3,0-0.4,0.1-0.6,0.2c-0.1,0.1-0.2,0.3-0.2,0.4c0,0.1,0,0.2,0.1,0.3s0.2,0.1,0.3,0.2
	c0.1,0.1,0.3,0.1,0.4,0.2c0.2,0,0.3,0.1,0.5,0.2c0.2,0.1,0.3,0.1,0.5,0.2c0.2,0.1,0.3,0.2,0.4,0.3c0.1,0.1,0.2,0.3,0.3,0.4
	c0.1,0.2,0.1,0.4,0.1,0.6c0,0.3,0,0.5-0.1,0.8c-0.1,0.2-0.2,0.4-0.4,0.6s-0.4,0.3-0.7,0.4S44.6,17,44.3,17c-0.2,0-0.4,0-0.6-0.1
	c-0.2,0-0.4-0.1-0.5-0.2c-0.2-0.1-0.3-0.2-0.5-0.2c-0.2-0.1-0.3-0.2-0.4-0.3l0.4-0.6l0.1-0.1c0.1,0,0.1,0,0.2,0c0.1,0,0.2,0,0.2,0.1
	c0.1,0.1,0.2,0.1,0.3,0.2c0.1,0.1,0.2,0.1,0.4,0.2c0.1,0,0.3,0,0.5,0s0.4-0.1,0.6-0.2c0.1-0.1,0.2-0.3,0.2-0.5c0-0.1,0-0.2-0.1-0.3
	s-0.2-0.2-0.3-0.2c-0.1-0.1-0.3-0.1-0.4-0.1c-0.2,0-0.3-0.1-0.5-0.1c-0.2-0.1-0.3-0.1-0.5-0.2c-0.2-0.1-0.3-0.2-0.4-0.3
	c-0.1-0.1-0.2-0.3-0.3-0.5s-0.1-0.4-0.1-0.7c0-0.2,0-0.4,0.1-0.6c0.1-0.2,0.2-0.4,0.4-0.6c0.2-0.2,0.4-0.3,0.6-0.4
	c0.2-0.1,0.5-0.1,0.9-0.1c0.2,0,0.4,0,0.5,0c0.2,0,0.3,0.1,0.5,0.1c0.2,0.1,0.3,0.1,0.4,0.2c0.1,0.1,0.3,0.2,0.4,0.3L46,12.4z
	 M49.5,14.4c0-0.1,0-0.2,0-0.3s-0.1-0.2-0.1-0.2c-0.1-0.1-0.1-0.1-0.2-0.2c-0.1,0-0.2-0.1-0.3-0.1c-0.2,0-0.4,0.1-0.6,0.2
	C48.1,14,48,14.2,48,14.4H49.5z M48,15.1c0,0.3,0.1,0.6,0.3,0.8s0.4,0.2,0.7,0.2c0.1,0,0.3,0,0.4-0.1s0.2-0.1,0.3-0.1
	s0.2-0.1,0.2-0.1c0.1,0,0.1-0.1,0.2-0.1c0.1,0,0.2,0,0.2,0.1l0.4,0.4c-0.1,0.1-0.3,0.3-0.4,0.4c-0.1,0.1-0.3,0.2-0.5,0.2
	C49.6,17,49.4,17,49.3,17c-0.2,0-0.3,0-0.4,0c-0.3,0-0.6,0-0.8-0.1c-0.3-0.1-0.5-0.2-0.7-0.4c-0.2-0.2-0.3-0.4-0.5-0.7
	c-0.1-0.3-0.2-0.6-0.2-1c0-0.3,0-0.5,0.1-0.8c0.1-0.2,0.2-0.5,0.4-0.7s0.4-0.3,0.6-0.4c0.3-0.1,0.5-0.2,0.9-0.2c0.3,0,0.5,0,0.8,0.1
	c0.2,0.1,0.4,0.2,0.6,0.4c0.2,0.2,0.3,0.4,0.4,0.6c0.1,0.2,0.1,0.5,0.1,0.8c0,0.1,0,0.2,0,0.2c0,0.1,0,0.1,0,0.1L50.5,15h-0.1
	L48,15.1L48,15.1z M52.3,13.3c0.1-0.1,0.2-0.1,0.2-0.2c0.1-0.1,0.2-0.1,0.3-0.2c0.1,0,0.2-0.1,0.3-0.1s0.2,0,0.4,0s0.4,0,0.6,0.1
	c0.2,0.1,0.3,0.2,0.4,0.3c0.1,0.1,0.2,0.3,0.3,0.5s0.1,0.4,0.1,0.6V17h-1.2v-2.6c0-0.2,0-0.4-0.1-0.5s-0.2-0.2-0.4-0.2
	c-0.1,0-0.3,0-0.4,0.1c-0.1,0.1-0.2,0.1-0.3,0.2v3h-1.2v-4.1h0.8c0.2,0,0.3,0.1,0.3,0.2L52.3,13.3z M58.1,14
	c-0.1-0.1-0.2-0.2-0.3-0.2s-0.2-0.1-0.3-0.1s-0.2,0-0.3,0.1c-0.1,0-0.2,0.1-0.3,0.2c-0.1,0.1-0.1,0.2-0.2,0.4c0,0.2-0.1,0.4-0.1,0.6
	c0,0.2,0,0.4,0,0.6c0,0.1,0.1,0.3,0.1,0.4c0.1,0.1,0.1,0.2,0.2,0.2c0.1,0,0.2,0.1,0.3,0.1s0.2,0,0.2,0c0.1,0,0.1,0,0.2-0.1
	c0.1,0,0.1-0.1,0.2-0.1c0.1-0.1,0.1-0.1,0.2-0.2L58.1,14L58.1,14z M59.4,11v6h-0.8c-0.2,0-0.3-0.1-0.3-0.2l-0.1-0.3
	c-0.1,0.1-0.2,0.2-0.3,0.2c-0.1,0.1-0.2,0.1-0.3,0.2C57.5,17,57.4,17,57.3,17c-0.1,0-0.3,0-0.4,0c-0.2,0-0.4,0-0.6-0.1
	c-0.2-0.1-0.3-0.2-0.5-0.4c-0.1-0.2-0.2-0.4-0.3-0.7s-0.1-0.6-0.1-0.9c0-0.3,0-0.6,0.1-0.9c0.1-0.3,0.2-0.5,0.4-0.7s0.3-0.3,0.6-0.5
	c0.2-0.1,0.5-0.2,0.7-0.2s0.4,0,0.5,0.1s0.3,0.1,0.4,0.2V11H59.4z"/>
<path class="st1" d="M75.8,8.4c0,0.1-0.1,0.1-0.1,0.1s-0.1,0-0.2,0s-0.1,0-0.2-0.1c-0.1,0-0.1-0.1-0.2-0.1s-0.2-0.1-0.3-0.1
	c-0.1,0-0.2-0.1-0.4-0.1c-0.3,0-0.4,0.1-0.6,0.2c-0.1,0.1-0.2,0.3-0.2,0.4c0,0.1,0,0.2,0.1,0.3s0.2,0.1,0.3,0.2
	c0.1,0.1,0.3,0.1,0.4,0.2c0.2,0,0.3,0.1,0.5,0.2c0.2,0.1,0.3,0.1,0.5,0.2c0.2,0.1,0.3,0.2,0.4,0.3s0.2,0.3,0.3,0.4
	c0.1,0.2,0.1,0.4,0.1,0.6c0,0.3,0,0.5-0.1,0.8c-0.1,0.2-0.2,0.4-0.4,0.6c-0.2,0.2-0.4,0.3-0.7,0.4C74.7,13,74.4,13,74.1,13
	c-0.2,0-0.4,0-0.6-0.1c-0.2,0-0.4-0.1-0.5-0.2c-0.2-0.1-0.3-0.2-0.5-0.2s-0.3-0.2-0.4-0.3l0.4-0.6l0.1-0.1c0.1,0,0.1,0,0.2,0
	s0.2,0,0.2,0.1c0.1,0.1,0.2,0.1,0.3,0.2c0.1,0.1,0.2,0.1,0.4,0.2c0.2,0,0.3,0,0.5,0s0.4-0.1,0.6-0.2c0.1-0.1,0.2-0.3,0.2-0.5
	c0-0.1,0-0.2-0.1-0.3s-0.2-0.2-0.3-0.2c-0.1-0.1-0.3-0.1-0.4-0.1c-0.2,0-0.3-0.1-0.5-0.1c-0.2-0.1-0.3-0.1-0.5-0.2
	c-0.2-0.1-0.3-0.2-0.4-0.3s-0.2-0.3-0.3-0.5c-0.1-0.2-0.1-0.4-0.1-0.7c0-0.2,0-0.4,0.1-0.6c0.1-0.2,0.2-0.4,0.4-0.6s0.4-0.3,0.6-0.4
	s0.5-0.1,0.9-0.1c0.2,0,0.4,0,0.5,0c0.2,0,0.3,0.1,0.5,0.1c0.2,0.1,0.3,0.1,0.4,0.2s0.3,0.2,0.4,0.3L75.8,8.4z M79.4,10.4
	c0-0.1,0-0.2,0-0.3s-0.1-0.2-0.1-0.2c-0.1-0.1-0.1-0.1-0.2-0.2s-0.2-0.1-0.3-0.1c-0.2,0-0.4,0.1-0.6,0.2c-0.1,0.1-0.2,0.3-0.3,0.6
	H79.4z M77.8,11.1c0,0.3,0.1,0.6,0.3,0.8c0.2,0.2,0.4,0.2,0.7,0.2c0.1,0,0.3,0,0.4-0.1c0.1,0,0.2-0.1,0.3-0.1c0.1,0,0.2-0.1,0.2-0.1
	c0.1,0,0.1-0.1,0.2-0.1s0.2,0,0.2,0.1l0.4,0.4c-0.1,0.1-0.3,0.3-0.4,0.4c-0.1,0.1-0.3,0.2-0.5,0.2C79.4,13,79.3,13,79.1,13
	c-0.2,0-0.3,0-0.4,0c-0.3,0-0.6,0-0.8-0.1c-0.3-0.1-0.5-0.2-0.7-0.4s-0.3-0.4-0.5-0.7c-0.1-0.3-0.2-0.6-0.2-1c0-0.3,0-0.5,0.1-0.8
	c0.1-0.2,0.2-0.5,0.4-0.7c0.2-0.2,0.4-0.3,0.6-0.4c0.3-0.1,0.5-0.2,0.9-0.2c0.3,0,0.5,0,0.8,0.1c0.2,0.1,0.4,0.2,0.6,0.4
	s0.3,0.4,0.4,0.6c0.1,0.2,0.1,0.5,0.1,0.8c0,0.1,0,0.2,0,0.2c0,0.1,0,0.1,0,0.1L80.3,11h-0.1L77.8,11.1L77.8,11.1z M82.1,9.3
	c0.1-0.1,0.2-0.1,0.2-0.2C82.5,9,82.5,9,82.6,8.9c0.1,0,0.2-0.1,0.3-0.1c0.1,0,0.2,0,0.4,0c0.2,0,0.4,0,0.6,0.1s0.3,0.2,0.4,0.3
	s0.2,0.3,0.3,0.5c0.1,0.2,0.1,0.4,0.1,0.6V13h-1.2v-2.6c0-0.2,0-0.4-0.1-0.5S83.2,9.7,83,9.7c-0.1,0-0.3,0-0.4,0.1s-0.2,0.1-0.3,0.2
	v3H81V8.9h0.8c0.2,0,0.3,0.1,0.3,0.2L82.1,9.3z M87.9,10c-0.1-0.1-0.2-0.2-0.3-0.2c-0.1,0-0.2-0.1-0.3-0.1c-0.1,0-0.2,0-0.3,0.1
	s-0.2,0.1-0.3,0.2c-0.1,0.1-0.1,0.2-0.2,0.4c0,0.2-0.1,0.4-0.1,0.6c0,0.2,0,0.4,0,0.6c0,0.1,0.1,0.3,0.1,0.4
	c0.1,0.1,0.1,0.2,0.2,0.2s0.2,0.1,0.3,0.1c0.1,0,0.2,0,0.2,0c0.1,0,0.1,0,0.2-0.1c0.1,0,0.1-0.1,0.2-0.1c0.1-0.1,0.1-0.1,0.2-0.2V10
	H87.9z M89.2,7v6h-0.8c-0.2,0-0.3-0.1-0.3-0.2L88,12.5c-0.1,0.1-0.2,0.2-0.3,0.2c-0.1,0.1-0.2,0.1-0.3,0.2C87.3,13,87.2,13,87.1,13
	s-0.3,0-0.4,0c-0.2,0-0.4,0-0.6-0.1s-0.3-0.2-0.5-0.4s-0.2-0.4-0.3-0.7c-0.1-0.3-0.1-0.6-0.1-0.9c0-0.3,0-0.6,0.1-0.9
	c0.1-0.3,0.2-0.5,0.4-0.7C85.9,9.2,86,9,86.3,8.9c0.2-0.1,0.5-0.2,0.7-0.2s0.4,0,0.5,0.1s0.3,0.1,0.4,0.2V7H89.2z M93.1,10.4
	c-0.1,0.1-0.3,0.3-0.3,0.4c-0.1,0.1-0.1,0.3-0.1,0.4c0,0.1,0,0.2,0.1,0.3c0,0.1,0.1,0.2,0.2,0.3s0.2,0.1,0.3,0.2
	c0.1,0,0.2,0.1,0.3,0.1c0.2,0,0.3,0,0.5-0.1c0.2,0,0.3-0.1,0.4-0.2L93.1,10.4z M97.1,13h-1.2c-0.1,0-0.1,0-0.2,0h-0.1
	c0,0-0.1,0-0.1-0.1l-0.1-0.1l-0.3-0.3c-0.3,0.2-0.5,0.3-0.8,0.4C94,13,93.7,13,93.3,13c-0.2,0-0.5,0-0.7-0.1s-0.4-0.2-0.6-0.3
	s-0.3-0.3-0.4-0.5s-0.2-0.4-0.2-0.7c0-0.2,0-0.3,0.1-0.5s0.1-0.3,0.2-0.4c0.1-0.1,0.2-0.3,0.4-0.4c0.1-0.1,0.3-0.2,0.5-0.3
	c-0.1-0.2-0.2-0.4-0.3-0.6c-0.1-0.2-0.1-0.4-0.1-0.5c0-0.2,0-0.4,0.1-0.6c0.1-0.2,0.2-0.3,0.3-0.5c0.1-0.1,0.3-0.3,0.5-0.3
	c0.2-0.1,0.5-0.1,0.7-0.1c0.3,0,0.5,0,0.7,0.1s0.4,0.2,0.5,0.3c0.1,0.1,0.2,0.3,0.3,0.4c0.1,0.2,0.1,0.3,0.1,0.5l-0.8,0.2
	c-0.1,0-0.2,0-0.3-0.2c-0.1-0.1-0.1-0.2-0.2-0.3C94.1,8.1,94,8,93.9,8s-0.2,0-0.2,0.1c-0.1,0-0.1,0.1-0.2,0.1c0,0.1-0.1,0.1-0.1,0.2
	s0,0.2,0,0.2c0,0.1,0,0.1,0,0.2c0,0.1,0,0.1,0.1,0.2c0,0.1,0.1,0.1,0.1,0.2c0.1,0.1,0.1,0.1,0.2,0.2l1.4,1.5
	c0.1-0.2,0.1-0.3,0.2-0.5c0-0.2,0.1-0.4,0.1-0.5s0-0.1,0.1-0.2c0,0,0.1-0.1,0.2-0.1h0.8c0,0.4-0.1,0.7-0.2,1.1
	c-0.1,0.3-0.3,0.6-0.4,0.9L97.1,13z M76.5,18h2.1v2.5c-0.3,0.2-0.6,0.4-1,0.5c-0.3,0.1-0.7,0.1-1.1,0.1c-0.5,0-0.9-0.1-1.3-0.2
	c-0.4-0.2-0.7-0.4-1-0.6c-0.3-0.3-0.5-0.6-0.6-0.9c-0.2-0.4-0.2-0.8-0.2-1.2c0-0.4,0.1-0.8,0.2-1.2c0.1-0.4,0.3-0.7,0.6-0.9
	c0.3-0.3,0.6-0.5,1-0.6s0.8-0.2,1.3-0.2c0.2,0,0.5,0,0.7,0.1c0.2,0,0.4,0.1,0.6,0.2c0.2,0.1,0.3,0.2,0.5,0.2
	c0.1,0.1,0.3,0.2,0.4,0.3l-0.4,0.6c-0.1,0.1-0.1,0.2-0.2,0.2s-0.2,0-0.3-0.1c-0.1-0.1-0.2-0.1-0.3-0.2c-0.1,0-0.2-0.1-0.3-0.1
	c-0.1,0-0.2-0.1-0.3-0.1c-0.1,0-0.2,0-0.4,0c-0.3,0-0.5,0-0.7,0.1s-0.4,0.2-0.5,0.4c-0.1,0.2-0.3,0.4-0.3,0.6
	c-0.1,0.2-0.1,0.5-0.1,0.8s0,0.6,0.1,0.8c0.1,0.2,0.2,0.4,0.4,0.6c0.2,0.2,0.3,0.3,0.6,0.4c0-0.1,0.3-0.1,0.5-0.1s0.3,0,0.4,0
	s0.3-0.1,0.4-0.1V19h-0.6c-0.1,0-0.2,0-0.2-0.1c0,0-0.1-0.1-0.1-0.2L76.5,18L76.5,18z M80.5,15v6h-1.2v-6H80.5z M83.1,16.8
	c0.3,0,0.6,0,0.9,0.1s0.5,0.2,0.7,0.4c0.2,0.2,0.3,0.4,0.4,0.7c0.1,0.3,0.2,0.6,0.2,0.9s-0.1,0.6-0.2,0.9s-0.2,0.5-0.4,0.7
	c-0.2,0.2-0.4,0.3-0.7,0.4C83.7,21,83.5,21,83.1,21c-0.3,0-0.6,0-0.9-0.1s-0.5-0.2-0.7-0.4c-0.2-0.2-0.3-0.4-0.4-0.7
	C81,19.5,81,19.2,81,18.9c0-0.3,0.1-0.6,0.2-0.9s0.2-0.5,0.4-0.7c0.2-0.2,0.4-0.3,0.7-0.4C82.5,16.8,82.8,16.8,83.1,16.8z
	 M83.1,20.1c0.3,0,0.5-0.1,0.6-0.3c0.1-0.2,0.2-0.5,0.2-0.9s-0.1-0.7-0.2-0.9c-0.1-0.2-0.3-0.3-0.6-0.3c-0.3,0-0.5,0.1-0.6,0.3
	c-0.1,0.2-0.2,0.5-0.2,0.9s0.1,0.7,0.2,0.9S82.8,20.1,83.1,20.1z M86.9,19.9c0.1,0.1,0.2,0.2,0.3,0.2c0.1,0,0.2,0.1,0.3,0.1
	c0.1,0,0.2,0,0.3-0.1c0.1,0,0.2-0.1,0.3-0.2c0.1-0.1,0.1-0.2,0.2-0.4c0-0.2,0.1-0.4,0.1-0.6s0-0.4,0-0.5s-0.1-0.3-0.1-0.4
	c-0.1-0.1-0.1-0.2-0.2-0.2s-0.2-0.1-0.3-0.1c-0.2,0-0.3,0-0.4,0.1s-0.2,0.2-0.3,0.3v1.8C87.1,19.9,86.9,19.9,86.9,19.9z M86.9,17.3
	c0.2-0.2,0.3-0.3,0.5-0.4s0.4-0.1,0.6-0.1s0.4,0,0.6,0.1s0.4,0.2,0.5,0.4c0.1,0.2,0.2,0.4,0.3,0.6c0.1,0.3,0.1,0.5,0.1,0.8
	s0,0.6-0.1,0.9s-0.2,0.5-0.4,0.7c-0.2,0.2-0.3,0.3-0.6,0.5c-0.2,0.1-0.5,0.2-0.7,0.2c-0.1,0-0.2,0-0.3,0c-0.1,0-0.2-0.1-0.3-0.1
	c-0.1,0-0.2-0.1-0.2-0.2c-0.1-0.1-0.1-0.1-0.2-0.2v0.2c0,0.1-0.1,0.1-0.1,0.2c0,0-0.1,0-0.2,0h-0.8v-6h1.2L86.9,17.3L86.9,17.3z
	 M92.3,19.3c-0.2,0-0.5,0-0.6,0.1c-0.2,0-0.3,0.1-0.4,0.1s-0.2,0.1-0.2,0.2S91,19.8,91,19.9s0,0.2,0.1,0.3c0.1,0.1,0.2,0.1,0.3,0.1
	c0.2,0,0.3,0,0.4-0.1s0.2-0.1,0.4-0.3L92.3,19.3L92.3,19.3z M90.1,17.4c0.3-0.2,0.5-0.4,0.8-0.5s0.6-0.2,1-0.2c0.3,0,0.5,0,0.7,0.1
	s0.4,0.2,0.5,0.3c0.1,0.1,0.2,0.3,0.3,0.5c0.1,0.2,0.1,0.4,0.1,0.7V21H93c-0.1,0-0.2,0-0.3,0c-0.1,0-0.1-0.1-0.1-0.2l-0.1-0.2
	c-0.1,0.1-0.2,0.2-0.3,0.2S92,20.9,91.9,21c-0.1,0-0.2,0.1-0.3,0.1c-0.1,0-0.2,0-0.4,0c-0.2,0-0.4,0-0.5-0.1
	c-0.2-0.1-0.3-0.1-0.4-0.2s-0.2-0.2-0.2-0.4C90,20.3,90,20.1,90,19.9c0-0.1,0-0.3,0.1-0.5s0.2-0.3,0.4-0.4c0.2-0.1,0.4-0.2,0.7-0.3
	c0.3-0.1,0.7-0.1,1.2-0.1v-0.2c0-0.2-0.1-0.4-0.2-0.5s-0.2-0.2-0.4-0.2c-0.1,0-0.3,0-0.4,0s-0.2,0.1-0.3,0.1c-0.1,0-0.1,0.1-0.2,0.1
	s-0.2,0-0.2,0c-0.1,0-0.2,0-0.2-0.1s-0.1-0.1-0.1-0.2L90.1,17.4z M95.4,15v6h-1.2v-6H95.4z"/>
<path class="st1" d="M116.8,14.8l-0.5-1.6c0-0.1-0.1-0.2-0.1-0.4c0-0.1-0.1-0.3-0.1-0.4c0,0.2-0.1,0.3-0.1,0.5
	c0,0.1-0.1,0.3-0.1,0.4l-0.5,1.6h1.4C116.8,14.9,116.8,14.8,116.8,14.8z M119,17h-1c-0.1,0-0.2,0-0.3-0.1c-0.1-0.1-0.1-0.1-0.2-0.2
	l-0.3-1H115l-0.3,1c0,0.1-0.1,0.1-0.2,0.2s-0.2,0.1-0.3,0.1h-1.1l2.3-5.8h1.4L119,17z M120.4,11v6h-1.2v-6H120.4z M122.4,11v6h-1.2
	v-6H122.4z"/>
<path class="st0" d="M0.5,29.5c0-1.1,0.9-2,2-2h130c1.1,0,2,0.9,2,2v22c0,1.1-0.9,2-2,2H2.5c-1.1,0-2-0.9-2-2V29.5z"/>
<path class="st1" d="M17.8,41.1c0,0.4-0.1,0.8-0.2,1.2S17.3,43,17,43.2c-0.3,0.3-0.6,0.5-1,0.6C15.6,44,15.2,44,14.8,44
	c-0.5,0-0.9-0.1-1.2-0.2c-0.4-0.2-0.7-0.4-1-0.6c-0.3-0.3-0.5-0.6-0.6-0.9c-0.1-0.4-0.2-0.8-0.2-1.2s0.1-0.8,0.2-1.2
	c0.1-0.4,0.4-0.7,0.6-0.9c0.3-0.3,0.6-0.5,1-0.6c0.4-0.2,0.8-0.2,1.2-0.2c0.5,0,0.9,0.1,1.2,0.2c0.4,0.2,0.7,0.4,1,0.6
	c0.3,0.3,0.5,0.6,0.6,0.9C17.7,40.3,17.8,40.7,17.8,41.1z M16.4,41.1c0-0.3,0-0.5-0.1-0.8c-0.1-0.2-0.2-0.4-0.3-0.6
	c-0.1-0.2-0.3-0.3-0.5-0.4c-0.2-0.1-0.4-0.1-0.7-0.1s-0.5,0-0.7,0.1s-0.4,0.2-0.5,0.4s-0.2,0.4-0.3,0.6c-0.1,0.2-0.1,0.5-0.1,0.8
	s0,0.6,0.1,0.8s0.2,0.4,0.3,0.6c0.1,0.2,0.3,0.3,0.5,0.4c0.2,0.1,0.4,0.1,0.7,0.1s0.5,0,0.7-0.1s0.4-0.2,0.5-0.4
	c0.1-0.2,0.2-0.4,0.3-0.6C16.4,41.6,16.4,41.4,16.4,41.1z M18.6,44v-3.3l-0.3-0.1c-0.1,0-0.2-0.1-0.2-0.1c-0.1,0-0.1-0.1-0.1-0.2
	v-0.5h0.6v-0.2c0-0.2,0-0.5,0.1-0.6c0.1-0.2,0.2-0.4,0.3-0.5c0.1-0.1,0.3-0.2,0.5-0.3s0.4-0.1,0.7-0.1c0.1,0,0.2,0,0.3,0
	c0.1,0,0.2,0,0.3,0.1v0.6c0,0.1,0,0.1-0.1,0.2c-0.1,0-0.1,0-0.2,0s-0.2,0-0.3,0c-0.1,0-0.2,0.1-0.2,0.1c-0.1,0.1-0.1,0.1-0.1,0.2
	c0,0.1,0,0.2,0,0.3v0.1h1.5v-0.3c0-0.2,0-0.5,0.1-0.6c0.1-0.2,0.2-0.4,0.3-0.5c0.1-0.1,0.3-0.2,0.5-0.3s0.4-0.1,0.7-0.1
	c0.1,0,0.2,0,0.3,0c0.1,0,0.2,0,0.3,0.1v0.6v0.1c0,0,0,0-0.1,0.1h-0.1h-0.1c-0.1,0-0.2,0-0.3,0c-0.1,0-0.2,0.1-0.2,0.1
	c-0.1,0.1-0.1,0.1-0.1,0.2c0,0.1,0,0.2,0,0.3v0.3h1v0.8h-0.9V44h-1.2v-3.3h-1.4V44H18.6z"/>
<path class="st1" d="M37,29.5h28c0.6,0,1,0.4,1,1v20c0,0.6-0.4,1-1,1H37c-0.6,0-1-0.4-1-1v-20C36,29.9,36.4,29.5,37,29.5z"/>
<path class="st1" d="M37,29.5h28c0.6,0,1,0.4,1,1v20c0,0.6-0.4,1-1,1H37c-0.6,0-1-0.4-1-1v-20C36,29.9,36.4,29.5,37,29.5z"/>
<path d="M46,39.4C46,39.5,45.9,39.5,46,39.4c-0.1,0.1-0.2,0.1-0.3,0.1s-0.1,0-0.2-0.1c-0.1,0-0.1-0.1-0.2-0.1
	c-0.1,0-0.2-0.1-0.3-0.1s-0.2-0.1-0.4-0.1c-0.3,0-0.4,0.1-0.6,0.2c-0.1,0.1-0.2,0.3-0.2,0.4c0,0.1,0,0.2,0.1,0.3s0.2,0.1,0.3,0.2
	c0.1,0.1,0.3,0.1,0.4,0.2c0.2,0,0.3,0.1,0.5,0.2c0.2,0.1,0.3,0.1,0.5,0.2c0.2,0.1,0.3,0.2,0.4,0.3c0.1,0.1,0.2,0.3,0.3,0.4
	c0.1,0.2,0.1,0.4,0.1,0.6c0,0.3,0,0.5-0.1,0.8c-0.1,0.2-0.2,0.4-0.4,0.6c-0.2,0.2-0.4,0.3-0.7,0.4C44.9,44,44.6,44,44.3,44
	c-0.2,0-0.4,0-0.6-0.1c-0.2,0-0.4-0.1-0.5-0.2c-0.2-0.1-0.3-0.2-0.5-0.2c-0.2-0.1-0.3-0.2-0.4-0.3l0.4-0.6l0.1-0.1
	c0.1,0,0.1,0,0.2,0c0.1,0,0.2,0,0.2,0.1c0.1,0.1,0.2,0.1,0.3,0.2c0.1,0.1,0.2,0.1,0.4,0.2c0.1,0,0.3,0,0.5,0s0.4-0.1,0.6-0.2
	c0.1-0.1,0.2-0.3,0.2-0.5c0-0.1,0-0.2-0.1-0.3s-0.2-0.2-0.3-0.2c-0.1-0.1-0.3-0.1-0.4-0.1c-0.2,0-0.3-0.1-0.5-0.1
	c-0.2-0.1-0.3-0.1-0.5-0.2c-0.2-0.1-0.3-0.2-0.4-0.3c-0.1-0.1-0.2-0.3-0.3-0.5s-0.1-0.4-0.1-0.7c0-0.2,0-0.4,0.1-0.6
	c0.1-0.2,0.2-0.4,0.4-0.6c0.2-0.2,0.4-0.3,0.6-0.4c0.2-0.1,0.5-0.1,0.9-0.1c0.2,0,0.4,0,0.5,0c0.2,0,0.3,0.1,0.5,0.1
	c0.2,0.1,0.3,0.1,0.4,0.2c0.1,0.1,0.3,0.2,0.4,0.3L46,39.4z M49.5,41.4c0-0.1,0-0.2,0-0.3s-0.1-0.2-0.1-0.2
	c-0.1-0.1-0.1-0.1-0.2-0.2c-0.1,0-0.2-0.1-0.3-0.1c-0.2,0-0.4,0.1-0.6,0.2C48.1,41,48,41.2,48,41.4H49.5z M48,42.1
	c0,0.3,0.1,0.6,0.3,0.8s0.4,0.2,0.7,0.2c0.1,0,0.3,0,0.4-0.1s0.2-0.1,0.3-0.1s0.2-0.1,0.2-0.1c0.1,0,0.1-0.1,0.2-0.1
	c0.1,0,0.2,0,0.2,0.1l0.4,0.4c-0.1,0.1-0.3,0.3-0.4,0.4c-0.1,0.1-0.3,0.2-0.5,0.2C49.6,44,49.4,44,49.3,44c-0.2,0-0.3,0-0.4,0
	c-0.3,0-0.6,0-0.8-0.1c-0.3-0.1-0.5-0.2-0.7-0.4s-0.3-0.4-0.5-0.7c-0.1-0.3-0.2-0.6-0.2-1c0-0.3,0-0.5,0.1-0.8
	c0.1-0.2,0.2-0.5,0.4-0.7s0.4-0.3,0.6-0.4c0.3-0.1,0.5-0.2,0.9-0.2c0.3,0,0.5,0,0.8,0.1c0.2,0.1,0.4,0.2,0.6,0.4
	c0.2,0.2,0.3,0.4,0.4,0.6c0.1,0.2,0.1,0.5,0.1,0.8c0,0.1,0,0.2,0,0.2v0.1L50.5,42h-0.1L48,42.1L48,42.1z M52.3,40.3
	c0.1-0.1,0.2-0.1,0.2-0.2c0.1-0.1,0.2-0.1,0.3-0.2c0.1,0,0.2-0.1,0.3-0.1s0.2,0,0.4,0s0.4,0,0.6,0.1c0.2,0.1,0.3,0.2,0.4,0.3
	c0.1,0.1,0.2,0.3,0.3,0.5s0.1,0.4,0.1,0.6V44h-1.2v-2.6c0-0.2,0-0.4-0.1-0.5s-0.2-0.2-0.4-0.2c-0.1,0-0.3,0-0.4,0.1
	c-0.1,0.1-0.2,0.1-0.3,0.2v3h-1.2v-4.1h0.8c0.2,0,0.3,0.1,0.3,0.2L52.3,40.3z M58.1,41c-0.1-0.1-0.2-0.2-0.3-0.2s-0.2-0.1-0.3-0.1
	s-0.2,0-0.3,0.1S57,40.9,56.9,41s-0.1,0.2-0.2,0.4c0,0.2-0.1,0.4-0.1,0.6c0,0.2,0,0.4,0,0.6c0,0.1,0.1,0.3,0.1,0.4
	c0.1,0.1,0.1,0.2,0.2,0.2c0.1,0,0.2,0.1,0.3,0.1s0.2,0,0.2,0c0.1,0,0.1,0,0.2-0.1c0.1,0,0.1-0.1,0.2-0.1c0.1-0.1,0.1-0.1,0.2-0.2
	L58.1,41L58.1,41z M59.4,38v6h-0.8c-0.2,0-0.3-0.1-0.3-0.2l-0.1-0.3c-0.1,0.1-0.2,0.2-0.3,0.2c-0.1,0.1-0.2,0.1-0.3,0.2
	C57.5,44,57.4,44,57.3,44c-0.1,0-0.3,0-0.4,0c-0.2,0-0.4,0-0.6-0.1c-0.2-0.1-0.3-0.2-0.5-0.4c-0.1-0.2-0.2-0.4-0.3-0.7
	s-0.1-0.6-0.1-0.9c0-0.3,0-0.6,0.1-0.9c0.1-0.3,0.2-0.5,0.4-0.7s0.3-0.3,0.6-0.5c0.2-0.1,0.5-0.2,0.7-0.2s0.4,0,0.5,0.1
	s0.3,0.1,0.4,0.2V38H59.4z"/>
<path class="st1" d="M75.8,35.4C75.8,35.5,75.7,35.5,75.8,35.4c-0.1,0.1-0.2,0.1-0.3,0.1s-0.1,0-0.2-0.1c-0.1,0-0.1-0.1-0.2-0.1
	s-0.2-0.1-0.3-0.1c-0.1,0-0.2-0.1-0.4-0.1c-0.3,0-0.4,0.1-0.6,0.2c-0.1,0.1-0.2,0.3-0.2,0.4c0,0.1,0,0.2,0.1,0.3s0.2,0.1,0.3,0.2
	c0.1,0.1,0.3,0.1,0.4,0.2c0.2,0,0.3,0.1,0.5,0.2c0.2,0.1,0.3,0.1,0.5,0.2c0.2,0.1,0.3,0.2,0.4,0.3s0.2,0.3,0.3,0.4
	c0.1,0.2,0.1,0.4,0.1,0.6c0,0.3,0,0.5-0.1,0.8s-0.2,0.4-0.4,0.6c-0.2,0.2-0.4,0.3-0.7,0.4C74.7,40,74.4,40,74.1,40
	c-0.2,0-0.4,0-0.6-0.1c-0.2,0-0.4-0.1-0.5-0.2c-0.2-0.1-0.3-0.2-0.5-0.2s-0.3-0.2-0.4-0.3l0.4-0.6l0.1-0.1c0.1,0,0.1,0,0.2,0
	s0.2,0,0.2,0.1c0.1,0.1,0.2,0.1,0.3,0.2c0.1,0.1,0.2,0.1,0.4,0.2s0.3,0,0.5,0s0.4-0.1,0.6-0.2c0.1-0.1,0.2-0.3,0.2-0.5
	c0-0.1,0-0.2-0.1-0.3s-0.2-0.2-0.3-0.2c-0.1-0.1-0.3-0.1-0.4-0.1c-0.2,0-0.3-0.1-0.5-0.1c-0.2-0.1-0.3-0.1-0.5-0.2
	c-0.2-0.1-0.3-0.2-0.4-0.3s-0.2-0.3-0.3-0.5c-0.1-0.2-0.1-0.4-0.1-0.7c0-0.2,0-0.4,0.1-0.6c0.1-0.2,0.2-0.4,0.4-0.6s0.4-0.3,0.6-0.4
	c0.2-0.1,0.5-0.1,0.9-0.1c0.2,0,0.4,0,0.5,0c0.2,0,0.3,0.1,0.5,0.1c0.2,0.1,0.3,0.1,0.4,0.2c0.1,0.1,0.3,0.2,0.4,0.3L75.8,35.4z
	 M79.4,37.4c0-0.1,0-0.2,0-0.3s-0.1-0.2-0.1-0.2c-0.1-0.1-0.1-0.1-0.2-0.2c-0.1,0-0.2-0.1-0.3-0.1c-0.2,0-0.4,0.1-0.6,0.2
	c-0.1,0.1-0.2,0.3-0.3,0.6H79.4z M77.8,38.1c0,0.3,0.1,0.6,0.3,0.8c0.2,0.2,0.4,0.2,0.7,0.2c0.1,0,0.3,0,0.4-0.1
	c0.1,0,0.2-0.1,0.3-0.1c0.1,0,0.2-0.1,0.2-0.1c0.1,0,0.1-0.1,0.2-0.1s0.2,0,0.2,0.1l0.4,0.4c-0.1,0.1-0.3,0.3-0.4,0.4
	c-0.1,0.1-0.3,0.2-0.5,0.2C79.4,40,79.3,40,79.1,40c-0.2,0-0.3,0-0.4,0c-0.3,0-0.6,0-0.8-0.1c-0.3-0.1-0.5-0.2-0.7-0.4
	s-0.3-0.4-0.5-0.7c-0.1-0.3-0.2-0.6-0.2-1c0-0.3,0-0.5,0.1-0.8c0.1-0.2,0.2-0.5,0.4-0.7c0.2-0.2,0.4-0.3,0.6-0.4
	c0.3-0.1,0.5-0.2,0.9-0.2c0.3,0,0.5,0,0.8,0.1c0.2,0.1,0.4,0.2,0.6,0.4s0.3,0.4,0.4,0.6c0.1,0.2,0.1,0.5,0.1,0.8c0,0.1,0,0.2,0,0.2
	c0,0.1,0,0.1,0,0.1L80.3,38h-0.1L77.8,38.1L77.8,38.1z M82.1,36.3c0.1-0.1,0.2-0.1,0.2-0.2c0.1-0.1,0.2-0.1,0.3-0.2
	c0.1,0,0.2-0.1,0.3-0.1c0.1,0,0.2,0,0.4,0c0.2,0,0.4,0,0.6,0.1s0.3,0.2,0.4,0.3s0.2,0.3,0.3,0.5c0.1,0.2,0.1,0.4,0.1,0.6V40h-1.2
	v-2.6c0-0.2,0-0.4-0.1-0.5s-0.2-0.2-0.4-0.2c-0.1,0-0.3,0-0.4,0.1s-0.2,0.1-0.3,0.2v3H81v-4.1h0.8c0.2,0,0.3,0.1,0.3,0.2L82.1,36.3z
	 M87.9,37c-0.1-0.1-0.2-0.2-0.3-0.2c-0.1,0-0.2-0.1-0.3-0.1c-0.1,0-0.2,0-0.3,0.1s-0.2,0.1-0.3,0.2c-0.1,0.1-0.1,0.2-0.2,0.4
	s-0.1,0.4-0.1,0.6c0,0.2,0,0.4,0,0.6s0.1,0.3,0.1,0.4c0.1,0.1,0.1,0.2,0.2,0.2s0.2,0.1,0.3,0.1c0.1,0,0.2,0,0.2,0
	c0.1,0,0.1,0,0.2-0.1c0.1,0,0.1-0.1,0.2-0.1c0.1-0.1,0.1-0.1,0.2-0.2V37H87.9z M89.2,34v6h-0.8c-0.2,0-0.3-0.1-0.3-0.2L88,39.5
	c-0.1,0.1-0.2,0.2-0.3,0.2c-0.1,0.1-0.2,0.1-0.3,0.2C87.3,40,87.2,40,87.1,40s-0.3,0-0.4,0c-0.2,0-0.4,0-0.6-0.1s-0.3-0.2-0.5-0.4
	c-0.1-0.2-0.2-0.4-0.3-0.7c-0.1-0.3-0.1-0.6-0.1-0.9c0-0.3,0-0.6,0.1-0.9c0.1-0.3,0.2-0.5,0.4-0.7c0.2-0.2,0.3-0.3,0.6-0.5
	c0.2-0.1,0.5-0.2,0.7-0.2s0.4,0,0.5,0.1s0.3,0.1,0.4,0.2V34H89.2z M93.1,37.4c-0.1,0.1-0.3,0.3-0.3,0.4c-0.1,0.1-0.1,0.3-0.1,0.4
	c0,0.1,0,0.2,0.1,0.3c0,0.1,0.1,0.2,0.2,0.3s0.2,0.1,0.3,0.2c0.1,0,0.2,0.1,0.3,0.1c0.2,0,0.3,0,0.5-0.1c0.2,0,0.3-0.1,0.4-0.2
	L93.1,37.4z M97.1,40h-1.2c-0.1,0-0.1,0-0.2,0h-0.1c0,0-0.1,0-0.1-0.1s-0.1-0.1-0.1-0.1l-0.3-0.3c-0.3,0.2-0.5,0.3-0.8,0.4
	C94,40,93.7,40,93.3,40c-0.2,0-0.5,0-0.7-0.1s-0.4-0.2-0.6-0.3s-0.3-0.3-0.4-0.5s-0.2-0.4-0.2-0.7c0-0.2,0-0.3,0.1-0.5
	s0.1-0.3,0.2-0.4c0.1-0.1,0.2-0.3,0.4-0.4c0.1-0.1,0.3-0.2,0.5-0.3c-0.1-0.2-0.2-0.4-0.3-0.6s-0.1-0.4-0.1-0.5c0-0.2,0-0.4,0.1-0.6
	c0.1-0.2,0.2-0.3,0.3-0.5c0.1-0.1,0.3-0.3,0.5-0.3c0.2-0.1,0.5-0.1,0.7-0.1c0.3,0,0.5,0,0.7,0.1s0.4,0.2,0.5,0.3s0.2,0.3,0.3,0.4
	s0.1,0.3,0.1,0.5l-0.8,0.2c-0.1,0-0.2,0-0.3-0.2c-0.1-0.1-0.1-0.2-0.2-0.3c0-0.1-0.1-0.2-0.2-0.2s-0.2,0-0.2,0.1
	c-0.1,0-0.1,0.1-0.2,0.1c0,0.1-0.1,0.1-0.1,0.2s0,0.2,0,0.2c0,0.1,0,0.1,0,0.2c0,0.1,0,0.1,0.1,0.2c0,0.1,0.1,0.1,0.1,0.2
	c0.1,0.1,0.1,0.1,0.2,0.2l1.4,1.5c0.1-0.2,0.1-0.3,0.2-0.5c0-0.2,0.1-0.4,0.1-0.5s0-0.1,0.1-0.2c0,0,0.1-0.1,0.2-0.1h0.8
	c0,0.4-0.1,0.7-0.2,1.1c-0.1,0.3-0.3,0.6-0.4,0.9L97.1,40z M76.5,45h2.1v2.5c-0.3,0.2-0.6,0.4-1,0.5c-0.3,0.1-0.7,0.1-1.1,0.1
	c-0.5,0-0.9-0.1-1.3-0.2c-0.4-0.2-0.7-0.4-1-0.6c-0.3-0.3-0.5-0.6-0.6-0.9c-0.2-0.4-0.2-0.8-0.2-1.2s0.1-0.8,0.2-1.2
	s0.3-0.7,0.6-0.9c0.3-0.3,0.6-0.5,1-0.6s0.8-0.2,1.3-0.2c0.2,0,0.5,0,0.7,0.1c0.2,0,0.4,0.1,0.6,0.2c0.2,0.1,0.3,0.2,0.5,0.2
	c0.1,0.1,0.3,0.2,0.4,0.3l-0.4,0.6c-0.1,0.1-0.1,0.2-0.2,0.2s-0.2,0-0.3-0.1c-0.1-0.1-0.2-0.1-0.3-0.2c-0.1,0-0.2-0.1-0.3-0.1
	c-0.1,0-0.2-0.1-0.3-0.1c-0.1,0-0.2,0-0.4,0c-0.3,0-0.5,0-0.7,0.1s-0.4,0.2-0.5,0.4S75,44.3,75,44.5c-0.1,0.2-0.1,0.5-0.1,0.8
	s0,0.6,0.1,0.8s0.2,0.4,0.4,0.6c0.2,0.2,0.3,0.3,0.6,0.4c0-0.1,0.3-0.1,0.5-0.1s0.3,0,0.4,0s0.3-0.1,0.4-0.1V46h-0.6
	c-0.1,0-0.2,0-0.2-0.1c0,0-0.1-0.1-0.1-0.2L76.5,45L76.5,45z M80.5,42v6h-1.2v-6H80.5z M83.1,43.8c0.3,0,0.6,0,0.9,0.1
	s0.5,0.2,0.7,0.4s0.3,0.4,0.4,0.7s0.2,0.6,0.2,0.9c0,0.3-0.1,0.6-0.2,0.9c-0.1,0.3-0.2,0.5-0.4,0.7c-0.2,0.2-0.4,0.3-0.7,0.4
	C83.7,48,83.5,48,83.1,48c-0.3,0-0.6,0-0.9-0.1s-0.5-0.2-0.7-0.4s-0.3-0.4-0.4-0.7S81,46.2,81,45.9s0.1-0.6,0.2-0.9
	c0.1-0.3,0.2-0.5,0.4-0.7c0.2-0.2,0.4-0.3,0.7-0.4C82.5,43.8,82.8,43.8,83.1,43.8z M83.1,47.1c0.3,0,0.5-0.1,0.6-0.3
	s0.2-0.5,0.2-0.9s-0.1-0.7-0.2-0.9s-0.3-0.3-0.6-0.3c-0.3,0-0.5,0.1-0.6,0.3s-0.2,0.5-0.2,0.9s0.1,0.7,0.2,0.9S82.8,47.1,83.1,47.1z
	 M86.9,46.9c0.1,0.1,0.2,0.2,0.3,0.2c0.1,0,0.2,0.1,0.3,0.1c0.1,0,0.2,0,0.3-0.1c0.1,0,0.2-0.1,0.3-0.2c0.1-0.1,0.1-0.2,0.2-0.4
	c0-0.2,0.1-0.4,0.1-0.6c0-0.2,0-0.4,0-0.5s-0.1-0.3-0.1-0.4c-0.1-0.1-0.1-0.2-0.2-0.2s-0.2-0.1-0.3-0.1c-0.2,0-0.3,0-0.4,0.1
	s-0.2,0.2-0.3,0.3v1.8C87.1,46.9,86.9,46.9,86.9,46.9z M86.9,44.3c0.2-0.2,0.3-0.3,0.5-0.4c0.2-0.1,0.4-0.1,0.6-0.1s0.4,0,0.6,0.1
	s0.4,0.2,0.5,0.4s0.2,0.4,0.3,0.6c0.1,0.3,0.1,0.5,0.1,0.8s0,0.6-0.1,0.9c-0.1,0.3-0.2,0.5-0.4,0.7c-0.2,0.2-0.3,0.3-0.6,0.5
	c-0.2,0.1-0.5,0.2-0.7,0.2c-0.1,0-0.2,0-0.3,0c-0.1,0-0.2-0.1-0.3-0.1c-0.1,0-0.2-0.1-0.2-0.2c-0.1-0.1-0.1-0.1-0.2-0.2v0.2
	c0,0.1-0.1,0.1-0.1,0.2c0,0-0.1,0-0.2,0h-0.8v-6h1.2L86.9,44.3L86.9,44.3z M92.3,46.3c-0.2,0-0.5,0-0.6,0.1c-0.2,0-0.3,0.1-0.4,0.1
	s-0.2,0.1-0.2,0.2c0,0.1-0.1,0.1-0.1,0.2c0,0.1,0,0.2,0.1,0.3s0.2,0.1,0.3,0.1c0.2,0,0.3,0,0.4-0.1s0.2-0.1,0.4-0.3L92.3,46.3
	L92.3,46.3z M90.1,44.4c0.3-0.2,0.5-0.4,0.8-0.5s0.6-0.2,1-0.2c0.3,0,0.5,0,0.7,0.1s0.4,0.2,0.5,0.3s0.2,0.3,0.3,0.5
	c0.1,0.2,0.1,0.4,0.1,0.7V48H93c-0.1,0-0.2,0-0.3,0c-0.1,0-0.1-0.1-0.1-0.2l-0.1-0.2c-0.1,0.1-0.2,0.2-0.3,0.2S92,47.9,91.9,48
	c-0.1,0-0.2,0.1-0.3,0.1c-0.1,0-0.2,0-0.4,0c-0.2,0-0.4,0-0.5-0.1c-0.2-0.1-0.3-0.1-0.4-0.2c-0.1-0.1-0.2-0.2-0.2-0.4
	C90,47.3,90,47.1,90,46.9c0-0.1,0-0.3,0.1-0.5s0.2-0.3,0.4-0.4c0.2-0.1,0.4-0.2,0.7-0.3c0.3-0.1,0.7-0.1,1.2-0.1v-0.2
	c0-0.2-0.1-0.4-0.2-0.5s-0.2-0.2-0.4-0.2c-0.1,0-0.3,0-0.4,0s-0.2,0.1-0.3,0.1c-0.1,0-0.1,0.1-0.2,0.1s-0.2,0-0.2,0
	c-0.1,0-0.2,0-0.2-0.1c-0.1,0-0.1-0.1-0.1-0.2L90.1,44.4z M95.4,42v6h-1.2v-6H95.4z"/>
<path class="st1" d="M116.8,41.8l-0.5-1.6c0-0.1-0.1-0.2-0.1-0.4c0-0.1-0.1-0.3-0.1-0.4c0,0.2-0.1,0.3-0.1,0.5
	c0,0.1-0.1,0.3-0.1,0.4l-0.5,1.6L116.8,41.8L116.8,41.8z M119,44h-1c-0.1,0-0.2,0-0.3-0.1c-0.1-0.1-0.1-0.1-0.2-0.2l-0.3-1H115
	l-0.3,1c0,0.1-0.1,0.1-0.2,0.2c-0.1,0.1-0.2,0.1-0.3,0.1h-1.1l2.3-5.8h1.4L119,44z M120.4,38v6h-1.2v-6H120.4z M122.4,38v6h-1.2v-6
	H122.4z"/>
<path class="st0" d="M0.5,56.5c0-1.1,0.9-2,2-2h130c1.1,0,2,0.9,2,2v22c0,1.1-0.9,2-2,2H2.5c-1.1,0-2-0.9-2-2V56.5z"/>
<path class="st1" d="M17.8,68.1c0,0.4-0.1,0.8-0.2,1.2c-0.1,0.4-0.3,0.7-0.6,0.9c-0.3,0.3-0.6,0.5-1,0.6C15.6,71,15.2,71,14.8,71
	c-0.5,0-0.9-0.1-1.2-0.2c-0.4-0.2-0.7-0.4-1-0.6c-0.3-0.3-0.5-0.6-0.6-0.9c-0.1-0.4-0.2-0.8-0.2-1.2s0.1-0.8,0.2-1.2
	c0.1-0.4,0.4-0.7,0.6-0.9c0.3-0.3,0.6-0.5,1-0.6c0.4-0.2,0.8-0.2,1.2-0.2c0.5,0,0.9,0.1,1.2,0.2c0.4,0.2,0.7,0.4,1,0.6
	s0.5,0.6,0.6,0.9C17.7,67.3,17.8,67.7,17.8,68.1z M16.4,68.1c0-0.3,0-0.5-0.1-0.8c-0.1-0.2-0.2-0.4-0.3-0.6
	c-0.1-0.2-0.3-0.3-0.5-0.4s-0.4-0.1-0.7-0.1s-0.5,0-0.7,0.1s-0.4,0.2-0.5,0.4c-0.1,0.2-0.2,0.4-0.3,0.6s-0.1,0.5-0.1,0.8
	s0,0.6,0.1,0.8c0.1,0.2,0.2,0.4,0.3,0.6s0.3,0.3,0.5,0.4s0.4,0.1,0.7,0.1s0.5,0,0.7-0.1s0.4-0.2,0.5-0.4c0.1-0.2,0.2-0.4,0.3-0.6
	C16.4,68.6,16.4,68.4,16.4,68.1z M18.6,71v-3.3l-0.3-0.1c-0.1,0-0.2-0.1-0.2-0.1c-0.1,0-0.1-0.1-0.1-0.2v-0.5h0.6v-0.2
	c0-0.2,0-0.5,0.1-0.6c0.1-0.2,0.2-0.4,0.3-0.5c0.1-0.1,0.3-0.2,0.5-0.3c0.2-0.1,0.4-0.1,0.7-0.1c0.1,0,0.2,0,0.3,0
	c0.1,0,0.2,0,0.3,0.1v0.6c0,0.1,0,0.1-0.1,0.2c-0.1,0-0.1,0-0.2,0s-0.2,0-0.3,0c-0.1,0-0.2,0.1-0.2,0.1c-0.1,0.1-0.1,0.1-0.1,0.2
	s0,0.2,0,0.3v0.1h1.5v-0.3c0-0.2,0-0.5,0.1-0.6c0.1-0.2,0.2-0.4,0.3-0.5c0.1-0.1,0.3-0.2,0.5-0.3s0.4-0.1,0.7-0.1c0.1,0,0.2,0,0.3,0
	c0.1,0,0.2,0,0.3,0.1v0.6v0.1c0,0,0,0-0.1,0.1h-0.1h-0.1c-0.1,0-0.2,0-0.3,0c-0.1,0-0.2,0.1-0.2,0.1c-0.1,0.1-0.1,0.1-0.1,0.2
	s0,0.2,0,0.3v0.3h1v0.8h-0.9V71h-1.2v-3.3h-1.4V71H18.6z"/>
<path class="st1" d="M46,66.4C46,66.5,45.9,66.5,46,66.4c-0.1,0.1-0.2,0.1-0.3,0.1s-0.1,0-0.2-0.1c-0.1,0-0.1-0.1-0.2-0.1
	c-0.1,0-0.2-0.1-0.3-0.1s-0.2-0.1-0.4-0.1c-0.3,0-0.4,0.1-0.6,0.2c-0.1,0.1-0.2,0.3-0.2,0.4s0,0.2,0.1,0.3c0.1,0.1,0.2,0.1,0.3,0.2
	s0.3,0.1,0.4,0.2c0.2,0,0.3,0.1,0.5,0.2s0.3,0.1,0.5,0.2s0.3,0.2,0.4,0.3c0.1,0.1,0.2,0.3,0.3,0.4c0.1,0.2,0.1,0.4,0.1,0.6
	c0,0.3,0,0.5-0.1,0.8c-0.1,0.2-0.2,0.4-0.4,0.6s-0.4,0.3-0.7,0.4S44.6,71,44.3,71c-0.2,0-0.4,0-0.6-0.1c-0.2,0-0.4-0.1-0.5-0.2
	c-0.2-0.1-0.3-0.2-0.5-0.2c-0.2-0.1-0.3-0.2-0.4-0.3l0.4-0.6l0.1-0.1c0.1,0,0.1,0,0.2,0c0.1,0,0.2,0,0.2,0.1
	c0.1,0.1,0.2,0.1,0.3,0.2s0.2,0.1,0.4,0.2c0.1,0,0.3,0,0.5,0s0.4-0.1,0.6-0.2c0.1-0.1,0.2-0.3,0.2-0.5c0-0.1,0-0.2-0.1-0.3
	c-0.1-0.1-0.2-0.2-0.3-0.2c-0.1-0.1-0.3-0.1-0.4-0.1c-0.2,0-0.3-0.1-0.5-0.1c-0.2-0.1-0.3-0.1-0.5-0.2s-0.3-0.2-0.4-0.3
	c-0.1-0.1-0.2-0.3-0.3-0.5s-0.1-0.4-0.1-0.7c0-0.2,0-0.4,0.1-0.6s0.2-0.4,0.4-0.6s0.4-0.3,0.6-0.4c0.2-0.1,0.5-0.1,0.9-0.1
	c0.2,0,0.4,0,0.5,0c0.2,0,0.3,0.1,0.5,0.1c0.2,0.1,0.3,0.1,0.4,0.2c0.1,0.1,0.3,0.2,0.4,0.3L46,66.4z M49.5,68.4c0-0.1,0-0.2,0-0.3
	c0-0.1-0.1-0.2-0.1-0.2c-0.1-0.1-0.1-0.1-0.2-0.2c-0.1,0-0.2-0.1-0.3-0.1c-0.2,0-0.4,0.1-0.6,0.2C48.1,68,48,68.2,48,68.4H49.5z
	 M48,69.1c0,0.3,0.1,0.6,0.3,0.8c0.2,0.2,0.4,0.2,0.7,0.2c0.1,0,0.3,0,0.4-0.1s0.2-0.1,0.3-0.1s0.2-0.1,0.2-0.1
	c0.1,0,0.1-0.1,0.2-0.1c0.1,0,0.2,0,0.2,0.1l0.4,0.4c-0.1,0.1-0.3,0.3-0.4,0.4c-0.1,0.1-0.3,0.2-0.5,0.2C49.6,71,49.4,71,49.3,71
	c-0.2,0-0.3,0-0.4,0c-0.3,0-0.6,0-0.8-0.1c-0.3-0.1-0.5-0.2-0.7-0.4c-0.2-0.2-0.3-0.4-0.5-0.7c-0.1-0.3-0.2-0.6-0.2-1
	c0-0.3,0-0.5,0.1-0.8c0.1-0.2,0.2-0.5,0.4-0.7s0.4-0.3,0.6-0.4c0.3-0.1,0.5-0.2,0.9-0.2c0.3,0,0.5,0,0.8,0.1
	c0.2,0.1,0.4,0.2,0.6,0.4c0.2,0.2,0.3,0.4,0.4,0.6c0.1,0.2,0.1,0.5,0.1,0.8c0,0.1,0,0.2,0,0.2v0.1L50.5,69h-0.1L48,69.1L48,69.1z
	 M52.3,67.3c0.1-0.1,0.2-0.1,0.2-0.2c0.1-0.1,0.2-0.1,0.3-0.2c0.1,0,0.2-0.1,0.3-0.1s0.2,0,0.4,0s0.4,0,0.6,0.1
	c0.2,0.1,0.3,0.2,0.4,0.3c0.1,0.1,0.2,0.3,0.3,0.5s0.1,0.4,0.1,0.6V71h-1.2v-2.6c0-0.2,0-0.4-0.1-0.5s-0.2-0.2-0.4-0.2
	c-0.1,0-0.3,0-0.4,0.1c-0.1,0.1-0.2,0.1-0.3,0.2v3h-1.2v-4.1h0.8c0.2,0,0.3,0.1,0.3,0.2L52.3,67.3z M58.1,68
	c-0.1-0.1-0.2-0.2-0.3-0.2s-0.2-0.1-0.3-0.1s-0.2,0-0.3,0.1c-0.1,0-0.2,0.1-0.3,0.2s-0.1,0.2-0.2,0.4c0,0.2-0.1,0.4-0.1,0.6
	s0,0.4,0,0.6c0,0.1,0.1,0.3,0.1,0.4c0.1,0.1,0.1,0.2,0.2,0.2c0.1,0,0.2,0.1,0.3,0.1s0.2,0,0.2,0c0.1,0,0.1,0,0.2-0.1
	c0.1,0,0.1-0.1,0.2-0.1c0.1-0.1,0.1-0.1,0.2-0.2L58.1,68L58.1,68z M59.4,65v6h-0.8c-0.2,0-0.3-0.1-0.3-0.2l-0.1-0.3
	c-0.1,0.1-0.2,0.2-0.3,0.2c-0.1,0.1-0.2,0.1-0.3,0.2C57.5,71,57.4,71,57.3,71c-0.1,0-0.3,0-0.4,0c-0.2,0-0.4,0-0.6-0.1
	c-0.2-0.1-0.3-0.2-0.5-0.4c-0.1-0.2-0.2-0.4-0.3-0.7c-0.1-0.3-0.1-0.6-0.1-0.9s0-0.6,0.1-0.9s0.2-0.5,0.4-0.7s0.3-0.3,0.6-0.5
	c0.2-0.1,0.5-0.2,0.7-0.2s0.4,0,0.5,0.1s0.3,0.1,0.4,0.2V65H59.4z"/>
<path class="st1" d="M70.5,56.5h28c0.6,0,1,0.4,1,1v20c0,0.6-0.4,1-1,1h-28c-0.6,0-1-0.4-1-1v-20C69.5,56.9,69.9,56.5,70.5,56.5z"/>
<path class="st1" d="M70.5,56.5h28c0.6,0,1,0.4,1,1v20c0,0.6-0.4,1-1,1h-28c-0.6,0-1-0.4-1-1v-20C69.5,56.9,69.9,56.5,70.5,56.5z"/>
<path d="M75.8,62.4C75.8,62.5,75.7,62.5,75.8,62.4c-0.1,0.1-0.2,0.1-0.3,0.1s-0.1,0-0.2-0.1c-0.1,0-0.1-0.1-0.2-0.1
	s-0.2-0.1-0.3-0.1c-0.1,0-0.2-0.1-0.4-0.1c-0.3,0-0.4,0.1-0.6,0.2c-0.1,0.1-0.2,0.3-0.2,0.4c0,0.1,0,0.2,0.1,0.3s0.2,0.1,0.3,0.2
	c0.1,0.1,0.3,0.1,0.4,0.2c0.2,0,0.3,0.1,0.5,0.2c0.2,0.1,0.3,0.1,0.5,0.2c0.2,0.1,0.3,0.2,0.4,0.3c0.1,0.1,0.2,0.3,0.3,0.4
	c0.1,0.2,0.1,0.4,0.1,0.6c0,0.3,0,0.5-0.1,0.8s-0.2,0.4-0.4,0.6c-0.2,0.2-0.4,0.3-0.7,0.4C74.7,67,74.4,67,74.1,67
	c-0.2,0-0.4,0-0.6-0.1c-0.2,0-0.4-0.1-0.5-0.2c-0.2-0.1-0.3-0.2-0.5-0.2s-0.3-0.2-0.4-0.3l0.4-0.6l0.1-0.1c0.1,0,0.1,0,0.2,0
	s0.2,0,0.2,0.1c0.1,0.1,0.2,0.1,0.3,0.2c0.1,0.1,0.2,0.1,0.4,0.2s0.3,0,0.5,0s0.4-0.1,0.6-0.2c0.1-0.1,0.2-0.3,0.2-0.5
	c0-0.1,0-0.2-0.1-0.3c-0.1-0.1-0.2-0.2-0.3-0.2c-0.1-0.1-0.3-0.1-0.4-0.1s-0.3-0.1-0.5-0.1c-0.2-0.1-0.3-0.1-0.5-0.2
	s-0.3-0.2-0.4-0.3c-0.1-0.1-0.2-0.3-0.3-0.5c-0.1-0.2-0.1-0.4-0.1-0.7c0-0.2,0-0.4,0.1-0.6c0.1-0.2,0.2-0.4,0.4-0.6s0.4-0.3,0.6-0.4
	c0.2-0.1,0.5-0.1,0.9-0.1c0.2,0,0.4,0,0.5,0c0.2,0,0.3,0.1,0.5,0.1c0.2,0.1,0.3,0.1,0.4,0.2c0.1,0.1,0.3,0.2,0.4,0.3L75.8,62.4z
	 M79.4,64.4c0-0.1,0-0.2,0-0.3c0-0.1-0.1-0.2-0.1-0.2c-0.1-0.1-0.1-0.1-0.2-0.2c-0.1,0-0.2-0.1-0.3-0.1c-0.2,0-0.4,0.1-0.6,0.2
	c-0.1,0.1-0.2,0.3-0.3,0.6H79.4z M77.8,65.1c0,0.3,0.1,0.6,0.3,0.8c0.2,0.2,0.4,0.2,0.7,0.2c0.1,0,0.3,0,0.4-0.1
	c0.1,0,0.2-0.1,0.3-0.1c0.1,0,0.2-0.1,0.2-0.1c0.1,0,0.1-0.1,0.2-0.1s0.2,0,0.2,0.1l0.4,0.4c-0.1,0.1-0.3,0.3-0.4,0.4
	s-0.3,0.2-0.5,0.2C79.4,67,79.3,67,79.1,67c-0.2,0-0.3,0-0.4,0c-0.3,0-0.6,0-0.8-0.1c-0.3-0.1-0.5-0.2-0.7-0.4
	c-0.2-0.2-0.3-0.4-0.5-0.7c-0.1-0.3-0.2-0.6-0.2-1c0-0.3,0-0.5,0.1-0.8c0.1-0.2,0.2-0.5,0.4-0.7c0.2-0.2,0.4-0.3,0.6-0.4
	c0.3-0.1,0.5-0.2,0.9-0.2c0.3,0,0.5,0,0.8,0.1c0.2,0.1,0.4,0.2,0.6,0.4s0.3,0.4,0.4,0.6c0.1,0.2,0.1,0.5,0.1,0.8c0,0.1,0,0.2,0,0.2
	c0,0.1,0,0.1,0,0.1L80.3,65h-0.1L77.8,65.1L77.8,65.1z M82.1,63.3c0.1-0.1,0.2-0.1,0.2-0.2c0.1-0.1,0.2-0.1,0.3-0.2
	c0.1,0,0.2-0.1,0.3-0.1c0.1,0,0.2,0,0.4,0c0.2,0,0.4,0,0.6,0.1s0.3,0.2,0.4,0.3s0.2,0.3,0.3,0.5c0.1,0.2,0.1,0.4,0.1,0.6V67h-1.2
	v-2.6c0-0.2,0-0.4-0.1-0.5s-0.2-0.2-0.4-0.2c-0.1,0-0.3,0-0.4,0.1s-0.2,0.1-0.3,0.2v3H81v-4.1h0.8c0.2,0,0.3,0.1,0.3,0.2L82.1,63.3z
	 M87.9,64c-0.1-0.1-0.2-0.2-0.3-0.2c-0.1,0-0.2-0.1-0.3-0.1c-0.1,0-0.2,0-0.3,0.1s-0.2,0.1-0.3,0.2c-0.1,0.1-0.1,0.2-0.2,0.4
	c0,0.2-0.1,0.4-0.1,0.6s0,0.4,0,0.6s0.1,0.3,0.1,0.4c0.1,0.1,0.1,0.2,0.2,0.2s0.2,0.1,0.3,0.1c0.1,0,0.2,0,0.2,0
	c0.1,0,0.1,0,0.2-0.1s0.1-0.1,0.2-0.1c0.1-0.1,0.1-0.1,0.2-0.2V64H87.9z M89.2,61v6h-0.8c-0.2,0-0.3-0.1-0.3-0.2L88,66.5
	c-0.1,0.1-0.2,0.2-0.3,0.2c-0.1,0.1-0.2,0.1-0.3,0.2C87.3,67,87.2,67,87.1,67s-0.3,0-0.4,0c-0.2,0-0.4,0-0.6-0.1s-0.3-0.2-0.5-0.4
	c-0.1-0.2-0.2-0.4-0.3-0.7c-0.1-0.3-0.1-0.6-0.1-0.9s0-0.6,0.1-0.9c0.1-0.3,0.2-0.5,0.4-0.7c0.2-0.2,0.3-0.3,0.6-0.5
	c0.2-0.1,0.5-0.2,0.7-0.2s0.4,0,0.5,0.1s0.3,0.1,0.4,0.2V61H89.2z M93.1,64.4c-0.1,0.1-0.3,0.3-0.3,0.4c-0.1,0.1-0.1,0.3-0.1,0.4
	s0,0.2,0.1,0.3c0,0.1,0.1,0.2,0.2,0.3s0.2,0.1,0.3,0.2c0.1,0,0.2,0.1,0.3,0.1c0.2,0,0.3,0,0.5-0.1c0.2,0,0.3-0.1,0.4-0.2L93.1,64.4z
	 M97.1,67h-1.2c-0.1,0-0.1,0-0.2,0h-0.1c0,0-0.1,0-0.1-0.1s-0.1-0.1-0.1-0.1l-0.3-0.3c-0.3,0.2-0.5,0.3-0.8,0.4s-0.6,0.1-1,0.1
	c-0.2,0-0.5,0-0.7-0.1s-0.4-0.2-0.6-0.3c-0.2-0.1-0.3-0.3-0.4-0.5s-0.2-0.4-0.2-0.7c0-0.2,0-0.3,0.1-0.5s0.1-0.3,0.2-0.4
	s0.2-0.3,0.4-0.4c0.1-0.1,0.3-0.2,0.5-0.3c-0.1-0.2-0.2-0.4-0.3-0.6s-0.1-0.4-0.1-0.5c0-0.2,0-0.4,0.1-0.6c0.1-0.2,0.2-0.3,0.3-0.5
	c0.1-0.1,0.3-0.3,0.5-0.3c0.2-0.1,0.5-0.1,0.7-0.1c0.3,0,0.5,0,0.7,0.1s0.4,0.2,0.5,0.3s0.2,0.3,0.3,0.4s0.1,0.3,0.1,0.5l-0.8,0.2
	c-0.1,0-0.2,0-0.3-0.2c-0.1-0.1-0.1-0.2-0.2-0.3c0-0.1-0.1-0.2-0.2-0.2s-0.2,0-0.2,0.1c-0.1,0-0.1,0.1-0.2,0.1
	c0,0.1-0.1,0.1-0.1,0.2s0,0.2,0,0.2c0,0.1,0,0.1,0,0.2c0,0.1,0,0.1,0.1,0.2c0,0.1,0.1,0.1,0.1,0.2c0.1,0.1,0.1,0.1,0.2,0.2l1.4,1.5
	c0.1-0.2,0.1-0.3,0.2-0.5c0-0.2,0.1-0.4,0.1-0.5s0-0.1,0.1-0.2c0,0,0.1-0.1,0.2-0.1h0.8c0,0.4-0.1,0.7-0.2,1.1
	c-0.1,0.3-0.3,0.6-0.4,0.9L97.1,67z M76.5,72h2.1v2.5c-0.3,0.2-0.6,0.4-1,0.5c-0.3,0.1-0.7,0.1-1.1,0.1c-0.5,0-0.9-0.1-1.3-0.2
	c-0.4-0.2-0.7-0.4-1-0.6c-0.3-0.3-0.5-0.6-0.6-0.9c-0.2-0.4-0.2-0.8-0.2-1.2c0-0.4,0.1-0.8,0.2-1.2c0.1-0.4,0.3-0.7,0.6-0.9
	c0.3-0.3,0.6-0.5,1-0.6s0.8-0.2,1.3-0.2c0.2,0,0.5,0,0.7,0.1c0.2,0,0.4,0.1,0.6,0.2s0.3,0.2,0.5,0.2c0.1,0.1,0.3,0.2,0.4,0.3
	l-0.4,0.6c-0.1,0.1-0.1,0.2-0.2,0.2s-0.2,0-0.3-0.1c-0.1-0.1-0.2-0.1-0.3-0.2c-0.1,0-0.2-0.1-0.3-0.1c-0.1,0-0.2-0.1-0.3-0.1
	c-0.1,0-0.2,0-0.4,0c-0.3,0-0.5,0-0.7,0.1s-0.4,0.2-0.5,0.4c-0.1,0.2-0.3,0.4-0.3,0.6c-0.1,0.2-0.1,0.5-0.1,0.8s0,0.6,0.1,0.8
	c0.1,0.2,0.2,0.4,0.4,0.6c0.2,0.2,0.3,0.3,0.6,0.4c0-0.1,0.3-0.1,0.5-0.1s0.3,0,0.4,0s0.3-0.1,0.4-0.1V73h-0.6c-0.1,0-0.2,0-0.2-0.1
	c0,0-0.1-0.1-0.1-0.2L76.5,72L76.5,72z M80.5,69v6h-1.2v-6H80.5z M83.1,70.8c0.3,0,0.6,0,0.9,0.1s0.5,0.2,0.7,0.4
	c0.2,0.2,0.3,0.4,0.4,0.7c0.1,0.3,0.2,0.6,0.2,0.9s-0.1,0.6-0.2,0.9s-0.2,0.5-0.4,0.7c-0.2,0.2-0.4,0.3-0.7,0.4
	C83.7,75,83.5,75,83.1,75c-0.3,0-0.6,0-0.9-0.1s-0.5-0.2-0.7-0.4c-0.2-0.2-0.3-0.4-0.4-0.7C81,73.5,81,73.2,81,72.9
	c0-0.3,0.1-0.6,0.2-0.9s0.2-0.5,0.4-0.7c0.2-0.2,0.4-0.3,0.7-0.4C82.5,70.8,82.8,70.8,83.1,70.8z M83.1,74.1c0.3,0,0.5-0.1,0.6-0.3
	c0.1-0.2,0.2-0.5,0.2-0.9s-0.1-0.7-0.2-0.9c-0.1-0.2-0.3-0.3-0.6-0.3c-0.3,0-0.5,0.1-0.6,0.3c-0.1,0.2-0.2,0.5-0.2,0.9
	s0.1,0.7,0.2,0.9S82.8,74.1,83.1,74.1z M86.9,73.9c0.1,0.1,0.2,0.2,0.3,0.2c0.1,0,0.2,0.1,0.3,0.1c0.1,0,0.2,0,0.3-0.1
	c0.1,0,0.2-0.1,0.3-0.2c0.1-0.1,0.1-0.2,0.2-0.4c0-0.2,0.1-0.4,0.1-0.6s0-0.4,0-0.5s-0.1-0.3-0.1-0.4c-0.1-0.1-0.1-0.2-0.2-0.2
	s-0.2-0.1-0.3-0.1c-0.2,0-0.3,0-0.4,0.1s-0.2,0.2-0.3,0.3v1.8C87.1,73.9,86.9,73.9,86.9,73.9z M86.9,71.3c0.2-0.2,0.3-0.3,0.5-0.4
	s0.4-0.1,0.6-0.1s0.4,0,0.6,0.1s0.4,0.2,0.5,0.4c0.1,0.2,0.2,0.4,0.3,0.6c0.1,0.3,0.1,0.5,0.1,0.8s0,0.6-0.1,0.9s-0.2,0.5-0.4,0.7
	c-0.2,0.2-0.3,0.3-0.6,0.5c-0.2,0.1-0.5,0.2-0.7,0.2c-0.1,0-0.2,0-0.3,0c-0.1,0-0.2-0.1-0.3-0.1c-0.1,0-0.2-0.1-0.2-0.2
	c-0.1-0.1-0.1-0.1-0.2-0.2v0.2c0,0.1-0.1,0.1-0.1,0.2c0,0-0.1,0-0.2,0h-0.8v-6h1.2L86.9,71.3L86.9,71.3z M92.3,73.3
	c-0.2,0-0.5,0-0.6,0.1c-0.2,0-0.3,0.1-0.4,0.1s-0.2,0.1-0.2,0.2S91,73.8,91,73.9s0,0.2,0.1,0.3c0.1,0.1,0.2,0.1,0.3,0.1
	c0.2,0,0.3,0,0.4-0.1s0.2-0.1,0.4-0.3L92.3,73.3L92.3,73.3z M90.1,71.4c0.3-0.2,0.5-0.4,0.8-0.5s0.6-0.2,1-0.2c0.3,0,0.5,0,0.7,0.1
	s0.4,0.2,0.5,0.3c0.1,0.1,0.2,0.3,0.3,0.5c0.1,0.2,0.1,0.4,0.1,0.7V75H93c-0.1,0-0.2,0-0.3,0c-0.1,0-0.1-0.1-0.1-0.2l-0.1-0.2
	c-0.1,0.1-0.2,0.2-0.3,0.2c-0.1,0.1-0.2,0.1-0.3,0.2c-0.1,0-0.2,0.1-0.3,0.1c-0.1,0-0.2,0-0.4,0c-0.2,0-0.4,0-0.5-0.1
	c-0.2-0.1-0.3-0.1-0.4-0.2s-0.2-0.2-0.2-0.4C90,74.3,90,74.1,90,73.9c0-0.1,0-0.3,0.1-0.5s0.2-0.3,0.4-0.4c0.2-0.1,0.4-0.2,0.7-0.3
	c0.3-0.1,0.7-0.1,1.2-0.1v-0.2c0-0.2-0.1-0.4-0.2-0.5s-0.2-0.2-0.4-0.2c-0.1,0-0.3,0-0.4,0s-0.2,0.1-0.3,0.1c-0.1,0-0.1,0.1-0.2,0.1
	s-0.2,0-0.2,0c-0.1,0-0.2,0-0.2-0.1c-0.1,0-0.1-0.1-0.1-0.2L90.1,71.4z M95.4,69v6h-1.2v-6H95.4z"/>
<path class="st1" d="M116.8,68.8l-0.5-1.6c0-0.1-0.1-0.2-0.1-0.4c0-0.1-0.1-0.3-0.1-0.4c0,0.2-0.1,0.3-0.1,0.5
	c0,0.1-0.1,0.3-0.1,0.4l-0.5,1.6L116.8,68.8L116.8,68.8z M119,71h-1c-0.1,0-0.2,0-0.3-0.1c-0.1-0.1-0.1-0.1-0.2-0.2l-0.3-1H115
	l-0.3,1c0,0.1-0.1,0.1-0.2,0.2s-0.2,0.1-0.3,0.1h-1.1l2.3-5.8h1.4L119,71z M120.4,65v6h-1.2v-6H120.4z M122.4,65v6h-1.2v-6H122.4z"
	/>
<path class="st0" d="M0.5,83.5c0-1.1,0.9-2,2-2h130c1.1,0,2,0.9,2,2v22c0,1.1-0.9,2-2,2H2.5c-1.1,0-2-0.9-2-2V83.5z"/>
<path class="st1" d="M17.8,95.1c0,0.4-0.1,0.8-0.2,1.2c-0.1,0.4-0.3,0.7-0.6,0.9c-0.3,0.3-0.6,0.5-1,0.6C15.6,98,15.2,98,14.8,98
	c-0.5,0-0.9-0.1-1.2-0.2c-0.4-0.2-0.7-0.4-1-0.6c-0.3-0.3-0.5-0.6-0.6-0.9c-0.1-0.4-0.2-0.8-0.2-1.2s0.1-0.8,0.2-1.2
	c0.1-0.4,0.4-0.7,0.6-0.9c0.3-0.3,0.6-0.5,1-0.6c0.4-0.2,0.8-0.2,1.2-0.2c0.5,0,0.9,0.1,1.2,0.2c0.4,0.2,0.7,0.4,1,0.6
	s0.5,0.6,0.6,0.9C17.7,94.3,17.8,94.7,17.8,95.1z M16.4,95.1c0-0.3,0-0.5-0.1-0.8c-0.1-0.2-0.2-0.4-0.3-0.6
	c-0.1-0.2-0.3-0.3-0.5-0.4s-0.4-0.1-0.7-0.1s-0.5,0-0.7,0.1s-0.4,0.2-0.5,0.4c-0.1,0.2-0.2,0.4-0.3,0.6s-0.1,0.5-0.1,0.8
	s0,0.6,0.1,0.8c0.1,0.2,0.2,0.4,0.3,0.6s0.3,0.3,0.5,0.4s0.4,0.1,0.7,0.1s0.5,0,0.7-0.1s0.4-0.2,0.5-0.4c0.1-0.2,0.2-0.4,0.3-0.6
	C16.4,95.6,16.4,95.4,16.4,95.1z M18.6,98v-3.3l-0.3-0.1c-0.1,0-0.2-0.1-0.2-0.1c-0.1,0-0.1-0.1-0.1-0.2v-0.5h0.6v-0.2
	c0-0.2,0-0.5,0.1-0.6c0.1-0.2,0.2-0.4,0.3-0.5c0.1-0.1,0.3-0.2,0.5-0.3c0.2-0.1,0.4-0.1,0.7-0.1c0.1,0,0.2,0,0.3,0
	c0.1,0,0.2,0,0.3,0.1v0.6c0,0.1,0,0.1-0.1,0.2c-0.1,0-0.1,0-0.2,0s-0.2,0-0.3,0c-0.1,0-0.2,0.1-0.2,0.1c-0.1,0.1-0.1,0.1-0.1,0.2
	s0,0.2,0,0.3v0.1h1.5v-0.3c0-0.2,0-0.5,0.1-0.6c0.1-0.2,0.2-0.4,0.3-0.5c0.1-0.1,0.3-0.2,0.5-0.3s0.4-0.1,0.7-0.1c0.1,0,0.2,0,0.3,0
	c0.1,0,0.2,0,0.3,0.1v0.6v0.1c0,0,0,0-0.1,0.1h-0.1h-0.1c-0.1,0-0.2,0-0.3,0c-0.1,0-0.2,0.1-0.2,0.1c-0.1,0.1-0.1,0.1-0.1,0.2
	s0,0.2,0,0.3v0.3h1v0.8h-0.9V98h-1.2v-3.3h-1.4V98H18.6z"/>
<path class="st1" d="M46,93.4C46,93.5,45.9,93.5,46,93.4c-0.1,0.1-0.2,0.1-0.3,0.1s-0.1,0-0.2-0.1c-0.1,0-0.1-0.1-0.2-0.1
	c-0.1,0-0.2-0.1-0.3-0.1s-0.2-0.1-0.4-0.1c-0.3,0-0.4,0.1-0.6,0.2c-0.1,0.1-0.2,0.3-0.2,0.4s0,0.2,0.1,0.3c0.1,0.1,0.2,0.1,0.3,0.2
	s0.3,0.1,0.4,0.2c0.2,0,0.3,0.1,0.5,0.2s0.3,0.1,0.5,0.2s0.3,0.2,0.4,0.3c0.1,0.1,0.2,0.3,0.3,0.4c0.1,0.2,0.1,0.4,0.1,0.6
	c0,0.3,0,0.5-0.1,0.8c-0.1,0.2-0.2,0.4-0.4,0.6s-0.4,0.3-0.7,0.4S44.6,98,44.3,98c-0.2,0-0.4,0-0.6-0.1c-0.2,0-0.4-0.1-0.5-0.2
	c-0.2-0.1-0.3-0.2-0.5-0.2c-0.2-0.1-0.3-0.2-0.4-0.3l0.4-0.6l0.1-0.1c0.1,0,0.1,0,0.2,0c0.1,0,0.2,0,0.2,0.1
	c0.1,0.1,0.2,0.1,0.3,0.2s0.2,0.1,0.4,0.2c0.1,0,0.3,0,0.5,0s0.4-0.1,0.6-0.2c0.1-0.1,0.2-0.3,0.2-0.5c0-0.1,0-0.2-0.1-0.3
	c-0.1-0.1-0.2-0.2-0.3-0.2c-0.1-0.1-0.3-0.1-0.4-0.1c-0.2,0-0.3-0.1-0.5-0.1c-0.2-0.1-0.3-0.1-0.5-0.2s-0.3-0.2-0.4-0.3
	c-0.1-0.1-0.2-0.3-0.3-0.5s-0.1-0.4-0.1-0.7c0-0.2,0-0.4,0.1-0.6s0.2-0.4,0.4-0.6s0.4-0.3,0.6-0.4c0.2-0.1,0.5-0.1,0.9-0.1
	c0.2,0,0.4,0,0.5,0c0.2,0,0.3,0.1,0.5,0.1c0.2,0.1,0.3,0.1,0.4,0.2c0.1,0.1,0.3,0.2,0.4,0.3L46,93.4z M49.5,95.4c0-0.1,0-0.2,0-0.3
	c0-0.1-0.1-0.2-0.1-0.2c-0.1-0.1-0.1-0.1-0.2-0.2c-0.1,0-0.2-0.1-0.3-0.1c-0.2,0-0.4,0.1-0.6,0.2C48.1,95,48,95.2,48,95.4H49.5z
	 M48,96.1c0,0.3,0.1,0.6,0.3,0.8c0.2,0.2,0.4,0.2,0.7,0.2c0.1,0,0.3,0,0.4-0.1s0.2-0.1,0.3-0.1s0.2-0.1,0.2-0.1
	c0.1,0,0.1-0.1,0.2-0.1c0.1,0,0.2,0,0.2,0.1l0.4,0.4c-0.1,0.1-0.3,0.3-0.4,0.4c-0.1,0.1-0.3,0.2-0.5,0.2C49.6,98,49.4,98,49.3,98
	c-0.2,0-0.3,0-0.4,0c-0.3,0-0.6,0-0.8-0.1c-0.3-0.1-0.5-0.2-0.7-0.4c-0.2-0.2-0.3-0.4-0.5-0.7c-0.1-0.3-0.2-0.6-0.2-1
	c0-0.3,0-0.5,0.1-0.8c0.1-0.2,0.2-0.5,0.4-0.7s0.4-0.3,0.6-0.4c0.3-0.1,0.5-0.2,0.9-0.2c0.3,0,0.5,0,0.8,0.1
	c0.2,0.1,0.4,0.2,0.6,0.4c0.2,0.2,0.3,0.4,0.4,0.6c0.1,0.2,0.1,0.5,0.1,0.8c0,0.1,0,0.2,0,0.2v0.1L50.5,96h-0.1L48,96.1L48,96.1z
	 M52.3,94.3c0.1-0.1,0.2-0.1,0.2-0.2c0.1-0.1,0.2-0.1,0.3-0.2c0.1,0,0.2-0.1,0.3-0.1s0.2,0,0.4,0s0.4,0,0.6,0.1
	c0.2,0.1,0.3,0.2,0.4,0.3c0.1,0.1,0.2,0.3,0.3,0.5s0.1,0.4,0.1,0.6V98h-1.2v-2.6c0-0.2,0-0.4-0.1-0.5s-0.2-0.2-0.4-0.2
	c-0.1,0-0.3,0-0.4,0.1c-0.1,0.1-0.2,0.1-0.3,0.2v3h-1.2v-4.1h0.8c0.2,0,0.3,0.1,0.3,0.2L52.3,94.3z M58.1,95
	c-0.1-0.1-0.2-0.2-0.3-0.2s-0.2-0.1-0.3-0.1s-0.2,0-0.3,0.1c-0.1,0-0.2,0.1-0.3,0.2s-0.1,0.2-0.2,0.4c0,0.2-0.1,0.4-0.1,0.6
	s0,0.4,0,0.6c0,0.1,0.1,0.3,0.1,0.4c0.1,0.1,0.1,0.2,0.2,0.2c0.1,0,0.2,0.1,0.3,0.1s0.2,0,0.2,0c0.1,0,0.1,0,0.2-0.1
	c0.1,0,0.1-0.1,0.2-0.1c0.1-0.1,0.1-0.1,0.2-0.2L58.1,95L58.1,95z M59.4,92v6h-0.8c-0.2,0-0.3-0.1-0.3-0.2l-0.1-0.3
	c-0.1,0.1-0.2,0.2-0.3,0.2c-0.1,0.1-0.2,0.1-0.3,0.2C57.5,98,57.4,98,57.3,98c-0.1,0-0.3,0-0.4,0c-0.2,0-0.4,0-0.6-0.1
	c-0.2-0.1-0.3-0.2-0.5-0.4c-0.1-0.2-0.2-0.4-0.3-0.7c-0.1-0.3-0.1-0.6-0.1-0.9s0-0.6,0.1-0.9s0.2-0.5,0.4-0.7s0.3-0.3,0.6-0.5
	c0.2-0.1,0.5-0.2,0.7-0.2s0.4,0,0.5,0.1s0.3,0.1,0.4,0.2V92H59.4z"/>
<path class="st1" d="M75.8,89.4C75.8,89.5,75.7,89.5,75.8,89.4c-0.1,0.1-0.2,0.1-0.3,0.1s-0.1,0-0.2-0.1c-0.1,0-0.1-0.1-0.2-0.1
	s-0.2-0.1-0.3-0.1c-0.1,0-0.2-0.1-0.4-0.1c-0.3,0-0.4,0.1-0.6,0.2c-0.1,0.1-0.2,0.3-0.2,0.4s0,0.2,0.1,0.3c0.1,0.1,0.2,0.1,0.3,0.2
	c0.1,0.1,0.3,0.1,0.4,0.2c0.2,0,0.3,0.1,0.5,0.2s0.3,0.1,0.5,0.2s0.3,0.2,0.4,0.3c0.1,0.1,0.2,0.3,0.3,0.4c0.1,0.2,0.1,0.4,0.1,0.6
	c0,0.3,0,0.5-0.1,0.8s-0.2,0.4-0.4,0.6c-0.2,0.2-0.4,0.3-0.7,0.4C74.7,94,74.4,94,74.1,94c-0.2,0-0.4,0-0.6-0.1
	c-0.2,0-0.4-0.1-0.5-0.2c-0.2-0.1-0.3-0.2-0.5-0.2s-0.3-0.2-0.4-0.3l0.4-0.6l0.1-0.1c0.1,0,0.1,0,0.2,0s0.2,0,0.2,0.1
	c0.1,0.1,0.2,0.1,0.3,0.2c0.1,0.1,0.2,0.1,0.4,0.2s0.3,0,0.5,0s0.4-0.1,0.6-0.2c0.1-0.1,0.2-0.3,0.2-0.5c0-0.1,0-0.2-0.1-0.3
	c-0.1-0.1-0.2-0.2-0.3-0.2c-0.1-0.1-0.3-0.1-0.4-0.1s-0.3-0.1-0.5-0.1c-0.2-0.1-0.3-0.1-0.5-0.2s-0.3-0.2-0.4-0.3
	c-0.1-0.1-0.2-0.3-0.3-0.5c-0.1-0.2-0.1-0.4-0.1-0.7c0-0.2,0-0.4,0.1-0.6s0.2-0.4,0.4-0.6c0.2-0.2,0.4-0.3,0.6-0.4s0.5-0.1,0.9-0.1
	c0.2,0,0.4,0,0.5,0c0.2,0,0.3,0.1,0.5,0.1c0.2,0.1,0.3,0.1,0.4,0.2s0.3,0.2,0.4,0.3L75.8,89.4z M79.4,91.4c0-0.1,0-0.2,0-0.3
	c0-0.1-0.1-0.2-0.1-0.2c-0.1-0.1-0.1-0.1-0.2-0.2c-0.1,0-0.2-0.1-0.3-0.1c-0.2,0-0.4,0.1-0.6,0.2c-0.1,0.1-0.2,0.3-0.3,0.6H79.4z
	 M77.8,92.1c0,0.3,0.1,0.6,0.3,0.8c0.2,0.2,0.4,0.2,0.7,0.2c0.1,0,0.3,0,0.4-0.1c0.1,0,0.2-0.1,0.3-0.1c0.1,0,0.2-0.1,0.2-0.1
	c0.1,0,0.1-0.1,0.2-0.1s0.2,0,0.2,0.1l0.4,0.4c-0.1,0.1-0.3,0.3-0.4,0.4s-0.3,0.2-0.5,0.2C79.4,94,79.3,94,79.1,94
	c-0.2,0-0.3,0-0.4,0c-0.3,0-0.6,0-0.8-0.1c-0.3-0.1-0.5-0.2-0.7-0.4c-0.2-0.2-0.3-0.4-0.5-0.7c-0.1-0.3-0.2-0.6-0.2-1
	c0-0.3,0-0.5,0.1-0.8c0.1-0.2,0.2-0.5,0.4-0.7c0.2-0.2,0.4-0.3,0.6-0.4c0.3-0.1,0.5-0.2,0.9-0.2c0.3,0,0.5,0,0.8,0.1
	c0.2,0.1,0.4,0.2,0.6,0.4c0.2,0.2,0.3,0.4,0.4,0.6s0.1,0.5,0.1,0.8c0,0.1,0,0.2,0,0.2c0,0.1,0,0.1,0,0.1L80.3,92h-0.1L77.8,92.1
	L77.8,92.1z M82.1,90.3c0.1-0.1,0.2-0.1,0.2-0.2c0.1-0.1,0.2-0.1,0.3-0.2c0.1,0,0.2-0.1,0.3-0.1c0.1,0,0.2,0,0.4,0
	c0.2,0,0.4,0,0.6,0.1s0.3,0.2,0.4,0.3c0.1,0.1,0.2,0.3,0.3,0.5c0.1,0.2,0.1,0.4,0.1,0.6V94h-1.2v-2.6c0-0.2,0-0.4-0.1-0.5
	s-0.2-0.2-0.4-0.2c-0.1,0-0.3,0-0.4,0.1s-0.2,0.1-0.3,0.2v3H81v-4.1h0.8c0.2,0,0.3,0.1,0.3,0.2L82.1,90.3z M87.9,91
	c-0.1-0.1-0.2-0.2-0.3-0.2c-0.1,0-0.2-0.1-0.3-0.1c-0.1,0-0.2,0-0.3,0.1c-0.1,0-0.2,0.1-0.3,0.2c-0.1,0.1-0.1,0.2-0.2,0.4
	c0,0.2-0.1,0.4-0.1,0.6s0,0.4,0,0.6s0.1,0.3,0.1,0.4c0.1,0.1,0.1,0.2,0.2,0.2s0.2,0.1,0.3,0.1c0.1,0,0.2,0,0.2,0
	c0.1,0,0.1,0,0.2-0.1s0.1-0.1,0.2-0.1c0.1-0.1,0.1-0.1,0.2-0.2V91H87.9z M89.2,88v6h-0.8c-0.2,0-0.3-0.1-0.3-0.2L88,93.5
	c-0.1,0.1-0.2,0.2-0.3,0.2c-0.1,0.1-0.2,0.1-0.3,0.2C87.3,94,87.2,94,87.1,94s-0.3,0-0.4,0c-0.2,0-0.4,0-0.6-0.1s-0.3-0.2-0.5-0.4
	c-0.1-0.2-0.2-0.4-0.3-0.7c-0.1-0.3-0.1-0.6-0.1-0.9s0-0.6,0.1-0.9s0.2-0.5,0.4-0.7c0.2-0.2,0.3-0.3,0.6-0.5
	c0.2-0.1,0.5-0.2,0.7-0.2s0.4,0,0.5,0.1s0.3,0.1,0.4,0.2V88H89.2z M93.1,91.4c-0.1,0.1-0.3,0.3-0.3,0.4c-0.1,0.1-0.1,0.3-0.1,0.4
	s0,0.2,0.1,0.3c0,0.1,0.1,0.2,0.2,0.3s0.2,0.1,0.3,0.2c0.1,0,0.2,0.1,0.3,0.1c0.2,0,0.3,0,0.5-0.1c0.2,0,0.3-0.1,0.4-0.2L93.1,91.4z
	 M97.1,94h-1.2c-0.1,0-0.1,0-0.2,0h-0.1c0,0-0.1,0-0.1-0.1s-0.1-0.1-0.1-0.1l-0.3-0.3c-0.3,0.2-0.5,0.3-0.8,0.4s-0.6,0.1-1,0.1
	c-0.2,0-0.5,0-0.7-0.1s-0.4-0.2-0.6-0.3c-0.2-0.1-0.3-0.3-0.4-0.5s-0.2-0.4-0.2-0.7c0-0.2,0-0.3,0.1-0.5s0.1-0.3,0.2-0.4
	s0.2-0.3,0.4-0.4c0.1-0.1,0.3-0.2,0.5-0.3c-0.1-0.2-0.2-0.4-0.3-0.6c-0.1-0.2-0.1-0.4-0.1-0.5c0-0.2,0-0.4,0.1-0.6s0.2-0.3,0.3-0.5
	c0.1-0.1,0.3-0.3,0.5-0.3c0.2-0.1,0.5-0.1,0.7-0.1c0.3,0,0.5,0,0.7,0.1s0.4,0.2,0.5,0.3c0.1,0.1,0.2,0.3,0.3,0.4
	c0.1,0.2,0.1,0.3,0.1,0.5l-0.8,0.2c-0.1,0-0.2,0-0.3-0.2c-0.1-0.1-0.1-0.2-0.2-0.3c0-0.1-0.1-0.2-0.2-0.2s-0.2,0-0.2,0.1
	c-0.1,0-0.1,0.1-0.2,0.1c0,0.1-0.1,0.1-0.1,0.2s0,0.2,0,0.2c0,0.1,0,0.1,0,0.2s0,0.1,0.1,0.2c0,0.1,0.1,0.1,0.1,0.2
	c0.1,0.1,0.1,0.1,0.2,0.2l1.4,1.5c0.1-0.2,0.1-0.3,0.2-0.5c0-0.2,0.1-0.4,0.1-0.5s0-0.1,0.1-0.2c0,0,0.1-0.1,0.2-0.1h0.8
	c0,0.4-0.1,0.7-0.2,1.1c-0.1,0.3-0.3,0.6-0.4,0.9L97.1,94z M76.5,99h2.1v2.5c-0.3,0.2-0.6,0.4-1,0.5c-0.3,0.1-0.7,0.1-1.1,0.1
	c-0.5,0-0.9-0.1-1.3-0.2c-0.4-0.2-0.7-0.4-1-0.6c-0.3-0.3-0.5-0.6-0.6-0.9c-0.2-0.4-0.2-0.8-0.2-1.2c0-0.4,0.1-0.8,0.2-1.2
	c0.1-0.4,0.3-0.7,0.6-0.9c0.3-0.3,0.6-0.5,1-0.6s0.8-0.2,1.3-0.2c0.2,0,0.5,0,0.7,0.1c0.2,0,0.4,0.1,0.6,0.2s0.3,0.2,0.5,0.2
	c0.1,0.1,0.3,0.2,0.4,0.3l-0.4,0.6c-0.1,0.1-0.1,0.2-0.2,0.2s-0.2,0-0.3-0.1c-0.1-0.1-0.2-0.1-0.3-0.2c-0.1,0-0.2-0.1-0.3-0.1
	c-0.1,0-0.2-0.1-0.3-0.1c-0.1,0-0.2,0-0.4,0c-0.3,0-0.5,0-0.7,0.1s-0.4,0.2-0.5,0.4c-0.1,0.2-0.3,0.4-0.3,0.6
	c-0.1,0.2-0.1,0.5-0.1,0.8s0,0.6,0.1,0.8c0.1,0.2,0.2,0.4,0.4,0.6c0.2,0.2,0.3,0.3,0.6,0.4c0.2,0.1,0.5,0.1,0.7,0.1s0.3,0,0.4,0
	s0.3-0.1,0.4-0.1V100h-0.6c-0.1,0-0.2,0-0.2-0.1c0,0-0.1-0.1-0.1-0.2L76.5,99L76.5,99z M80.5,96v6h-1.2v-6H80.5z M83.1,97.8
	c0.3,0,0.6,0,0.9,0.1s0.5,0.2,0.7,0.4c0.2,0.2,0.3,0.4,0.4,0.7c0.1,0.3,0.2,0.6,0.2,0.9s-0.1,0.6-0.2,0.9s-0.2,0.5-0.4,0.7
	c-0.2,0.2-0.4,0.3-0.7,0.4c-0.3,0.1-0.5,0.1-0.9,0.1c-0.3,0-0.6,0-0.9-0.1s-0.5-0.2-0.7-0.4c-0.2-0.2-0.3-0.4-0.4-0.7
	c-0.1-0.3-0.2-0.6-0.2-0.9s0.1-0.6,0.2-0.9s0.2-0.5,0.4-0.7c0.2-0.2,0.4-0.3,0.7-0.4C82.5,97.8,82.8,97.8,83.1,97.8z M83.1,101.1
	c0.3,0,0.5-0.1,0.6-0.3c0.1-0.2,0.2-0.5,0.2-0.9s-0.1-0.7-0.2-0.9c-0.1-0.2-0.3-0.3-0.6-0.3c-0.3,0-0.5,0.1-0.6,0.3
	c-0.1,0.2-0.2,0.5-0.2,0.9s0.1,0.7,0.2,0.9S82.8,101.1,83.1,101.1z M86.9,100.9c0.1,0.1,0.2,0.2,0.3,0.2c0.1,0,0.2,0.1,0.3,0.1
	c0.1,0,0.2,0,0.3-0.1c0.1,0,0.2-0.1,0.3-0.2c0.1-0.1,0.1-0.2,0.2-0.4c0-0.2,0.1-0.4,0.1-0.6s0-0.4,0-0.5s-0.1-0.3-0.1-0.4
	c-0.1-0.1-0.1-0.2-0.2-0.2s-0.2-0.1-0.3-0.1c-0.2,0-0.3,0-0.4,0.1s-0.2,0.2-0.3,0.3v1.8C87.1,100.9,86.9,100.9,86.9,100.9z
	 M86.9,98.3c0.2-0.2,0.3-0.3,0.5-0.4s0.4-0.1,0.6-0.1s0.4,0,0.6,0.1s0.4,0.2,0.5,0.4c0.1,0.2,0.2,0.4,0.3,0.6
	c0.1,0.3,0.1,0.5,0.1,0.8s0,0.6-0.1,0.9s-0.2,0.5-0.4,0.7c-0.2,0.2-0.3,0.3-0.6,0.5c-0.2,0.1-0.5,0.2-0.7,0.2c-0.1,0-0.2,0-0.3,0
	c-0.1,0-0.2-0.1-0.3-0.1c-0.1,0-0.2-0.1-0.2-0.2c-0.1-0.1-0.1-0.1-0.2-0.2v0.2c0,0.1-0.1,0.1-0.1,0.2c0,0-0.1,0-0.2,0h-0.8v-6h1.2
	L86.9,98.3L86.9,98.3z M92.3,100.3c-0.2,0-0.5,0-0.6,0.1c-0.2,0-0.3,0.1-0.4,0.1s-0.2,0.1-0.2,0.2s-0.1,0.1-0.1,0.2s0,0.2,0.1,0.3
	c0.1,0.1,0.2,0.1,0.3,0.1c0.2,0,0.3,0,0.4-0.1s0.2-0.1,0.4-0.3L92.3,100.3L92.3,100.3z M90.1,98.4c0.3-0.2,0.5-0.4,0.8-0.5
	s0.6-0.2,1-0.2c0.3,0,0.5,0,0.7,0.1s0.4,0.2,0.5,0.3c0.1,0.1,0.2,0.3,0.3,0.5c0.1,0.2,0.1,0.4,0.1,0.7v2.6H93c-0.1,0-0.2,0-0.3,0
	c-0.1,0-0.1-0.1-0.1-0.2l-0.1-0.2c-0.1,0.1-0.2,0.2-0.3,0.2c-0.1,0.1-0.2,0.1-0.3,0.2c-0.1,0-0.2,0.1-0.3,0.1c-0.1,0-0.2,0-0.4,0
	c-0.2,0-0.4,0-0.5-0.1c-0.2-0.1-0.3-0.1-0.4-0.2s-0.2-0.2-0.2-0.4c-0.1-0.1-0.1-0.3-0.1-0.5c0-0.1,0-0.3,0.1-0.5s0.2-0.3,0.4-0.4
	c0.2-0.1,0.4-0.2,0.7-0.3c0.3-0.1,0.7-0.1,1.2-0.1v-0.2c0-0.2-0.1-0.4-0.2-0.5s-0.2-0.2-0.4-0.2c-0.1,0-0.3,0-0.4,0
	s-0.2,0.1-0.3,0.1c-0.1,0-0.1,0.1-0.2,0.1s-0.2,0-0.2,0c-0.1,0-0.2,0-0.2-0.1c-0.1,0-0.1-0.1-0.1-0.2L90.1,98.4z M95.4,96v6h-1.2v-6
	H95.4z"/>
<path class="st1" d="M104,83.5h28c0.6,0,1,0.4,1,1v20c0,0.6-0.4,1-1,1h-28c-0.6,0-1-0.4-1-1v-20C103,83.9,103.4,83.5,104,83.5z"/>
<path class="st1" d="M104,83.5h28c0.6,0,1,0.4,1,1v20c0,0.6-0.4,1-1,1h-28c-0.6,0-1-0.4-1-1v-20C103,83.9,103.4,83.5,104,83.5z"/>
<path d="M116.8,95.8l-0.5-1.6c0-0.1-0.1-0.2-0.1-0.4c0-0.1-0.1-0.3-0.1-0.4c0,0.2-0.1,0.3-0.1,0.5c0,0.1-0.1,0.3-0.1,0.4l-0.5,1.6
	L116.8,95.8L116.8,95.8z M119,98h-1c-0.1,0-0.2,0-0.3-0.1c-0.1-0.1-0.1-0.1-0.2-0.2l-0.3-1H115l-0.3,1c0,0.1-0.1,0.1-0.2,0.2
	s-0.2,0.1-0.3,0.1h-1.1l2.3-5.8h1.4L119,98z M120.4,92v6h-1.2v-6H120.4z M122.4,92v6h-1.2v-6H122.4z"/>
</svg>
