<?xml version="1.0" encoding="utf-8"?>
<!-- Generator: Adobe Illustrator 23.0.0, SVG Export Plug-In . SVG Version: 6.00 Build 0)  -->
<svg version="1.1" id="Layer_1" xmlns="http://www.w3.org/2000/svg" xmlns:xlink="http://www.w3.org/1999/xlink" x="0px" y="0px"
	 viewBox="0 0 28 306" style="enable-background:new 0 0 28 306;" xml:space="preserve">
<style type="text/css">
	.st0{opacity:0.5;}
	.st1{fill:#B4B4B4;}
</style>
<path class="st0" d="M0.5,2.5c0-1.1,0.9-2,2-2h23c1.1,0,2,0.9,2,2v46c0,1.1-0.9,2-2,2h-23c-1.1,0-2-0.9-2-2V2.5z"/>
<path class="st1" d="M2.8,2h23c0.6,0,1,0.4,1,1v5c0,0.6-0.4,1-1,1h-23c-0.6,0-1-0.4-1-1V3C1.8,2.4,2.2,2,2.8,2z"/>
<path class="st1" d="M2.8,2h23c0.6,0,1,0.4,1,1v5c0,0.6-0.4,1-1,1h-23c-0.6,0-1-0.4-1-1V3C1.8,2.4,2.2,2,2.8,2z"/>
<path d="M13,5.9c0,0.4-0.1,0.7-0.2,1c-0.1,0.3-0.3,0.6-0.5,0.8c-0.2,0.2-0.5,0.4-0.8,0.5s-0.7,0.2-1.1,0.2c-0.4,0-0.8-0.1-1.1-0.2
	C9,8.2,8.7,8,8.5,7.8C8.2,7.6,8.1,7.3,7.9,7C7.8,6.7,7.7,6.3,7.7,6s0.1-0.7,0.2-1s0.3-0.6,0.5-0.8C8.7,3.9,9,3.7,9.3,3.5
	c0.3-0.1,0.7-0.2,1.1-0.2c0.4,0,0.8,0.1,1.1,0.2c0.3,0.1,0.6,0.3,0.8,0.5c0.2,0.2,0.4,0.5,0.5,0.8C13,5.2,13,5.6,13,5.9z M11.8,5.9
	c0-0.3,0-0.5-0.1-0.7s-0.2-0.4-0.3-0.5S11.1,4.5,11,4.4c-0.2-0.1-0.4-0.1-0.6-0.1c-0.2,0-0.4,0-0.6,0.1C9.6,4.5,9.5,4.6,9.3,4.8
	C9.2,4.9,9.1,5.1,9,5.3c0,0.2,0,0.4,0,0.6c0,0.3,0,0.5,0,0.7C9.1,6.8,9.2,7,9.3,7.1s0.3,0.2,0.5,0.3c0.2,0.1,0.4,0.1,0.6,0.1
	c0.2,0,0.4,0,0.6-0.1c0.2-0.1,0.3-0.2,0.4-0.3c0.1-0.1,0.2-0.3,0.3-0.5C11.8,6.4,11.8,6.2,11.8,5.9z M14.8,4.3v1.3h1.7v0.9h-1.7v2
	h-1.2V3.4h3.3v0.9H14.8z M18.7,4.3v1.3h1.7v0.9h-1.7v2h-1.2V3.4h3.3v0.9H18.7z"/>
<path class="st1" d="M8.8,12.4c0,0.1-0.1,0.1-0.1,0.1H8.6c-0.1,0-0.1,0-0.2,0c-0.1,0-0.1-0.1-0.2-0.1c-0.1,0-0.2-0.1-0.3-0.1
	c-0.1,0-0.2-0.1-0.3-0.1c-0.2,0-0.4,0-0.5,0.1s-0.2,0.2-0.2,0.4c0,0.1,0,0.2,0.1,0.3s0.2,0.1,0.3,0.2c0.1,0,0.2,0.1,0.4,0.1
	c0.1,0,0.3,0.1,0.4,0.1c0.1,0,0.3,0.1,0.4,0.2c0.1,0.1,0.3,0.2,0.4,0.3c0,0.1,0.1,0.3,0.2,0.4s0.1,0.3,0.1,0.5s0,0.5-0.1,0.7
	S8.9,15.9,8.7,16c-0.2,0.2-0.3,0.3-0.6,0.4c-0.2,0.1-0.5,0.1-0.8,0.1c-0.2,0-0.3,0-0.5,0s-0.3-0.1-0.5-0.1c-0.2-0.1-0.3-0.1-0.4-0.2
	S5.6,16,5.5,15.9L6,15.3l0.1-0.1c0,0,0.1,0,0.2,0s0.1,0,0.2,0.1c0.1,0,0.2,0.1,0.2,0.1c0.1,0.1,0.2,0.1,0.3,0.1
	c0.1,0,0.3,0.1,0.4,0.1c0.2,0,0.4,0,0.5-0.1C8,15.4,8.1,15.2,8.1,15c0-0.1,0-0.2-0.1-0.3c-0.1-0.1-0.2-0.1-0.3-0.2
	c-0.1,0-0.2-0.1-0.4-0.1c-0.1,0-0.3-0.1-0.4-0.1s-0.3-0.1-0.4-0.2c-0.1-0.1-0.3-0.2-0.4-0.3c-0.1,0-0.1-0.2-0.2-0.3
	c-0.1-0.2-0.1-0.4-0.1-0.6c0-0.2,0-0.4,0.1-0.6C6,12.1,6.1,12,6.3,11.8c0.1-0.1,0.3-0.3,0.5-0.3c0.2-0.1,0.5-0.1,0.7-0.1
	s0.3,0,0.5,0c0.1,0,0.3,0.1,0.4,0.1c0.1,0,0.3,0.1,0.4,0.2c0.1,0.1,0.2,0.1,0.3,0.2L8.8,12.4z M14.8,13.9c0,0.4-0.1,0.7-0.2,1
	c-0.1,0.3-0.3,0.6-0.5,0.8s-0.5,0.4-0.8,0.5s-0.7,0.2-1.1,0.2c-0.4,0-0.8-0.1-1.1-0.2s-0.6-0.3-0.8-0.5C10,15.6,9.8,15.3,9.7,15
	s-0.2-0.7-0.2-1s0.1-0.7,0.2-1c0.1-0.3,0.3-0.6,0.5-0.8s0.5-0.4,0.8-0.5s0.7-0.2,1.1-0.2c0.4,0,0.8,0.1,1.1,0.2
	c0.3,0.1,0.6,0.3,0.8,0.5s0.4,0.5,0.5,0.8C14.7,13.2,14.8,13.6,14.8,13.9z M13.6,13.9c0-0.3,0-0.5-0.1-0.7s-0.2-0.4-0.3-0.5
	s-0.3-0.2-0.4-0.3c-0.2-0.1-0.4-0.1-0.6-0.1c-0.2,0-0.4,0-0.6,0.1c-0.2,0.1-0.3,0.2-0.5,0.3c-0.1,0.1-0.2,0.3-0.3,0.5
	s-0.1,0.4-0.1,0.7s0,0.5,0.1,0.7s0.2,0.4,0.3,0.5s0.3,0.2,0.5,0.3s0.4,0.1,0.6,0.1c0.2,0,0.4,0,0.6-0.1c0.2-0.1,0.3-0.2,0.4-0.3
	c0.1-0.1,0.2-0.3,0.3-0.5C13.5,14.4,13.6,14.2,13.6,13.9z M16.6,12.3v1.3h1.7v0.9h-1.7v2h-1.2v-5.1h3.3v0.9
	C18.7,12.3,16.6,12.3,16.6,12.3z M22.9,12.3h-1.4v4.2h-1.2v-4.2h-1.4v-0.9H23v0.9H22.9z"/>
<path class="st1" d="M9.2,19.4v5.1H8v-2.2H5.9v2.2H4.7v-5.1h1.2v2.1H8v-2.1H9.2z M12.8,22.6l-0.5-1.4c0-0.1-0.1-0.2-0.1-0.3
	c0-0.1-0.1-0.3-0.1-0.4c0,0.1-0.1,0.3-0.1,0.4s-0.1,0.2-0.1,0.3l-0.5,1.4H12.8z M14.6,24.5h-0.9c-0.1,0-0.2,0-0.2-0.1
	c-0.1,0-0.1-0.1-0.1-0.2L13,23.4h-1.9l-0.3,0.9c0,0.1-0.1,0.1-0.1,0.2c-0.1,0.1-0.1,0.1-0.2,0.1h-1l2-5.1h1.2L14.6,24.5z M16.6,21.8
	c0.2,0,0.3,0,0.4-0.1c0.1,0,0.2-0.1,0.3-0.2s0.1-0.2,0.2-0.3c0-0.1,0-0.2,0-0.3c0-0.2-0.1-0.4-0.2-0.5s-0.4-0.2-0.7-0.2h-0.5v1.5
	h0.5V21.8z M19.1,24.5H18c-0.2,0-0.3-0.1-0.4-0.2l-0.8-1.5c0-0.1-0.1-0.1-0.1-0.1s-0.1,0-0.2,0h-0.3v1.9H15v-5.1h1.7
	c0.4,0,0.7,0,0.9,0.1c0.3,0.1,0.5,0.2,0.6,0.3c0.2,0.1,0.3,0.3,0.4,0.5s0.1,0.4,0.1,0.6s0,0.3-0.1,0.5s-0.1,0.3-0.2,0.4
	s-0.2,0.2-0.3,0.3c-0.1,0.1-0.3,0.2-0.4,0.2c0.1,0,0.1,0.1,0.2,0.2s0.1,0.1,0.2,0.2L19.1,24.5z M24.1,21.9c0,0.4-0.1,0.7-0.2,1
	s-0.3,0.6-0.5,0.8c-0.2,0.2-0.5,0.4-0.8,0.5s-0.7,0.2-1.1,0.2h-2v-5.1h2c0.4,0,0.8,0.1,1.1,0.2c0.3,0.1,0.6,0.3,0.8,0.5
	c0.2,0.2,0.4,0.5,0.5,0.8C24,21.2,24.1,21.6,24.1,21.9z M22.8,21.9c0-0.3,0-0.5-0.1-0.7s-0.2-0.4-0.3-0.5c-0.1-0.1-0.3-0.3-0.4-0.3
	c-0.2-0.1-0.4-0.1-0.6-0.1h-0.8v3.3h0.8c0.2,0,0.4,0,0.6-0.1s0.3-0.2,0.4-0.3c0.1-0.1,0.2-0.3,0.3-0.5
	C22.8,22.4,22.8,22.2,22.8,21.9z"/>
<path class="st1" d="M7.5,30.6L7,29.2c0-0.1,0-0.2-0.1-0.4c0-0.1-0.1-0.3-0.1-0.4c0,0.1-0.1,0.3-0.1,0.4S6.6,29,6.6,29.1l-0.5,1.4
	h1.4V30.6z M9.4,32.5H8.5c-0.1,0-0.2,0-0.2-0.1c-0.1,0-0.1-0.1-0.1-0.2l-0.3-0.9h-2l-0.3,0.9c0,0.1-0.1,0.1-0.1,0.2
	c-0.1,0.1-0.1,0.1-0.2,0.1h-1l2-5.1h1.2L9.4,32.5z M12.5,28.4c0,0.1-0.1,0.1-0.1,0.1h-0.1c-0.1,0-0.1,0-0.2,0
	c-0.1,0-0.1-0.1-0.2-0.1c-0.1,0-0.2-0.1-0.3-0.1s-0.2-0.1-0.3-0.1c-0.2,0-0.4,0-0.5,0.1s-0.2,0.2-0.2,0.4c0,0.1,0,0.2,0.1,0.3
	c0.1,0.1,0.2,0.1,0.3,0.2c0.1,0,0.2,0.1,0.4,0.1c0.1,0,0.3,0.1,0.4,0.1c0.1,0,0.3,0.1,0.4,0.2c0.1,0.1,0.3,0.2,0.4,0.3
	c0.1,0.1,0.2,0.2,0.3,0.4c0.1,0.1,0.1,0.3,0.1,0.5s0,0.5-0.1,0.7s-0.2,0.4-0.4,0.5c-0.2,0.2-0.3,0.3-0.6,0.4
	c-0.2,0.1-0.5,0.1-0.8,0.1c-0.2,0-0.3,0-0.5,0s-0.3-0.1-0.5-0.1c-0.2-0.1-0.3-0.1-0.4-0.2c-0.1-0.1-0.3-0.2-0.4-0.3l0.4-0.6l0.1-0.1
	c0,0,0.1,0,0.2,0c0.1,0,0.1,0,0.2,0.1c0.1,0,0.2,0.1,0.2,0.1c0.1,0.1,0.2,0.1,0.3,0.1s0.3,0.1,0.4,0.1c0.2,0,0.4,0,0.5-0.1
	s0.2-0.2,0.2-0.5c0-0.1,0-0.2-0.1-0.3c-0.1-0.1-0.2-0.1-0.3-0.2c-0.1,0-0.2-0.1-0.4-0.1c-0.1,0-0.3-0.1-0.4-0.1
	c-0.1,0-0.3-0.1-0.4-0.2c-0.1-0.1-0.3-0.2-0.4-0.3c-0.1-0.1-0.2-0.2-0.3-0.4c-0.1-0.2-0.1-0.4-0.1-0.6s0-0.4,0.1-0.6
	s0.2-0.3,0.3-0.5c0.1-0.1,0.3-0.3,0.5-0.3c0.2-0.1,0.5-0.1,0.7-0.1s0.3,0,0.5,0c0.1,0,0.3,0.1,0.4,0.1c0.1,0,0.3,0.1,0.4,0.2
	c0.1,0.1,0.2,0.1,0.3,0.2L12.5,28.4z M15.8,30.6v1.9h-1.2v-1.9l-1.8-3.2h1c0.1,0,0.2,0,0.2,0.1c0.1,0,0.1,0.1,0.2,0.2l0.7,1.5
	c0.1,0.1,0.1,0.2,0.2,0.3c0,0.1,0.1,0.2,0.1,0.3c0-0.1,0.1-0.2,0.1-0.3c0-0.1,0.1-0.2,0.2-0.3l0.7-1.5c0,0,0-0.1,0.1-0.1l0.1-0.1
	c0,0,0.1,0,0.1-0.1h0.1h1.1L15.8,30.6z M23.7,27.4v5.1h-1v-2.9c0-0.1,0-0.1,0-0.2s0-0.2,0-0.2l-1.4,2.6c0,0.1-0.1,0.1-0.2,0.2
	c0,0-0.1,0-0.2,0h-0.2c-0.1,0-0.2,0-0.2-0.1c-0.1,0-0.1-0.1-0.2-0.2L19,29.1c0,0.1,0,0.2,0,0.2c0,0.1,0,0.2,0,0.2v2.9h-1v-5.1h0.9
	c0.1,0,0.1,0,0.1,0h0.1c0,0,0.1,0,0.1,0.1l0.1,0.1l1.3,2.6c0,0.1,0.1,0.2,0.1,0.3c0,0.1,0.1,0.2,0.1,0.3c0-0.1,0.1-0.2,0.1-0.3
	c0-0.1,0.1-0.2,0.1-0.3l1.3-2.6c0,0,0-0.1,0.1-0.1c0,0,0.1,0,0.1-0.1h0.1h0.1L23.7,27.4L23.7,27.4z"/>
<path class="st1" d="M10,36.4c0,0.1-0.1,0.1-0.1,0.1H9.8c-0.1,0-0.1,0-0.2,0c-0.1,0-0.1-0.1-0.2-0.1c-0.1,0-0.2-0.1-0.3-0.1
	s-0.2-0.1-0.3-0.1c-0.2,0-0.4,0-0.5,0.1s-0.2,0.2-0.2,0.4c0,0.1,0,0.2,0.1,0.3s0.2,0.1,0.3,0.2c0.1,0,0.2,0.1,0.4,0.1
	c0.1,0,0.3,0.1,0.4,0.1c0.1,0,0.3,0.1,0.4,0.2c0.1,0.1,0.3,0.2,0.4,0.3c0.1,0.1,0.2,0.2,0.3,0.4c0.1,0.1,0.1,0.3,0.1,0.5
	s0,0.5-0.1,0.7S10.2,39.9,10,40c-0.2,0.2-0.3,0.3-0.6,0.4c-0.2,0.1-0.5,0.1-0.8,0.1c-0.2,0-0.3,0-0.5,0s-0.3-0.1-0.5-0.1
	c-0.2-0.1-0.3-0.1-0.4-0.2C7,40.1,6.9,40,6.8,39.9l0.3-0.6l0.1-0.1c0,0,0.1,0,0.2,0s0.1,0,0.2,0.1c0.1,0,0.2,0.1,0.2,0.1
	c0.1,0.1,0.2,0.1,0.3,0.1c0.1,0,0.3,0.1,0.4,0.1c0.2,0,0.4,0,0.5-0.1s0.2-0.2,0.2-0.5c0-0.1,0-0.2-0.1-0.3s-0.2-0.1-0.3-0.2
	c-0.1,0-0.2-0.1-0.4-0.1c-0.1,0-0.3-0.1-0.4-0.1s-0.3-0.1-0.4-0.2c-0.1-0.1-0.3-0.2-0.4-0.3S7,37.6,6.9,37.4
	c-0.1-0.2-0.1-0.4-0.1-0.6c0-0.2,0-0.4,0.1-0.6C7,36,7.1,35.9,7.2,35.7c0.1-0.1,0.3-0.3,0.5-0.3c0.2-0.1,0.5-0.1,0.7-0.1
	s0.3,0,0.5,0c0.1,0,0.3,0.1,0.4,0.1c0.1,0,0.3,0.1,0.4,0.2c0.1,0.1,0.2,0.1,0.3,0.2L10,36.4z M12.1,40.5h-1.2v-5.1h1.2V40.5z
	 M17.4,35.4v5.1h-0.6c-0.1,0-0.2,0-0.2,0c-0.1,0-0.1-0.1-0.2-0.2l-2.4-3c0,0.1,0,0.2,0,0.3s0,0.2,0,0.2v2.7h-1v-5.1h0.6
	c0.1,0,0.1,0,0.1,0h0.1c0,0,0.1,0,0.1,0.1l0.1,0.1l2.4,3.1c0-0.1,0-0.2,0-0.3s0-0.2,0-0.3v-2.7C16.4,35.4,17.4,35.4,17.4,35.4z
	 M19.5,36.3v1.2h1.6v0.9h-1.6v1.2h2.1v0.9h-3.3v-5.1h3.3v0.9C21.6,36.3,19.5,36.3,19.5,36.3z"/>
<path class="st1" d="M12.2,45.9c0,0.4-0.1,0.7-0.2,1c-0.1,0.3-0.3,0.6-0.5,0.8s-0.5,0.4-0.8,0.5s-0.7,0.2-1.1,0.2h-2v-5.1h2
	c0.4,0,0.8,0.1,1.1,0.2c0.3,0.1,0.6,0.3,0.8,0.5s0.4,0.5,0.5,0.8C12.1,45.2,12.2,45.6,12.2,45.9z M11,45.9c0-0.3,0-0.5-0.1-0.7
	s-0.2-0.4-0.3-0.5s-0.3-0.3-0.4-0.3c-0.2-0.1-0.4-0.1-0.6-0.1H8.7v3.3h0.8c0.2,0,0.4,0,0.6-0.1c0.2-0.1,0.3-0.2,0.4-0.3
	c0.1-0.1,0.2-0.3,0.3-0.5C10.9,46.4,11,46.2,11,45.9z M13.9,48.5h-1.2v-5.1h1.2V48.5z M17.3,45.9h1.8V48c-0.3,0.2-0.5,0.3-0.8,0.4
	c-0.3,0.1-0.6,0.1-0.9,0.1c-0.4,0-0.8-0.1-1.1-0.2c-0.3-0.1-0.6-0.3-0.9-0.5c-0.2-0.2-0.4-0.5-0.6-0.8c-0.1-0.3-0.2-0.7-0.2-1
	c0-0.4,0.1-0.7,0.2-1c0.1-0.3,0.3-0.6,0.5-0.8s0.5-0.4,0.9-0.5c0.3-0.1,0.7-0.2,1.1-0.2c0.2,0,0.4,0,0.6,0.1c0.2,0,0.4,0.1,0.5,0.1
	c0.2,0.1,0.3,0.1,0.4,0.2c0.1,0.1,0.2,0.2,0.3,0.3l-0.3,0.5c-0.1,0.1-0.1,0.1-0.2,0.2c-0.1,0-0.2,0-0.3-0.1
	c-0.1-0.1-0.2-0.1-0.3-0.1c-0.1,0-0.2-0.1-0.3-0.1s-0.2,0-0.3-0.1c-0.1,0-0.2,0-0.3,0c-0.2,0-0.4,0-0.6,0.1s-0.3,0.2-0.5,0.3
	c-0.1,0.1-0.2,0.3-0.3,0.5s-0.1,0.4-0.1,0.7s0,0.5,0.1,0.7s0.2,0.4,0.3,0.5s0.3,0.3,0.5,0.3c0.2,0.1,0.4,0.1,0.6,0.1
	c0.1,0,0.3,0,0.4,0s0.2-0.1,0.3-0.1v-0.8h-0.5c-0.1,0-0.1,0-0.2-0.1S17,46.6,17,46.5v-0.6H17.3z M21,48.5h-1.2v-5.1H21V48.5z"/>
<path class="st0" d="M0.5,53.5c0-1.1,0.9-2,2-2h23c1.1,0,2,0.9,2,2v46c0,1.1-0.9,2-2,2h-23c-1.1,0-2-0.9-2-2V53.5z"/>
<path class="st1" d="M13,56.9c0,0.4-0.1,0.7-0.2,1c-0.1,0.3-0.3,0.6-0.5,0.8s-0.5,0.4-0.8,0.5s-0.7,0.2-1.1,0.2
	c-0.4,0-0.8-0.1-1.1-0.2c-0.3,0-0.6-0.2-0.8-0.4S8.1,58.3,8,58c-0.1-0.3-0.2-0.7-0.2-1c0-0.4,0.1-0.7,0.2-1c0.1-0.3,0.3-0.6,0.5-0.8
	s0.5-0.4,0.8-0.5s0.7-0.2,1.1-0.2c0.4,0,0.8,0.1,1.1,0.2c0.3,0.1,0.6,0.3,0.8,0.5s0.4,0.5,0.5,0.8C13,56.2,13,56.6,13,56.9z
	 M11.8,56.9c0-0.3,0-0.5-0.1-0.7s-0.2-0.4-0.3-0.5s-0.3-0.2-0.4-0.3c-0.2-0.1-0.4-0.1-0.6-0.1c-0.2,0-0.4,0-0.6,0.1
	c-0.2,0.1-0.3,0.2-0.5,0.3C9.2,55.8,9.1,56,9,56.2c0,0.3,0,0.5,0,0.7c0,0.3,0,0.5,0.1,0.7s0.2,0.4,0.3,0.5s0.3,0.2,0.5,0.3
	s0.4,0.1,0.6,0.1c0.2,0,0.4,0,0.6-0.1c0.2-0.1,0.3-0.2,0.4-0.3c0.1-0.1,0.2-0.3,0.3-0.5C11.8,57.4,11.8,57.2,11.8,56.9z M14.8,55.3
	v1.3h1.7v0.9h-1.7v2h-1.2v-5.1h3.3v0.9C16.9,55.3,14.8,55.3,14.8,55.3z M18.7,55.3v1.3h1.7v0.9h-1.7v2h-1.2v-5.1h3.3v0.9
	C20.8,55.3,18.7,55.3,18.7,55.3z"/>
<path class="st1" d="M2.8,61h23c0.6,0,1,0.4,1,1v5c0,0.6-0.4,1-1,1h-23c-0.6,0-1-0.4-1-1v-5C1.8,61.4,2.2,61,2.8,61z"/>
<path class="st1" d="M2.8,61h23c0.6,0,1,0.4,1,1v5c0,0.6-0.4,1-1,1h-23c-0.6,0-1-0.4-1-1v-5C1.8,61.4,2.2,61,2.8,61z"/>
<path d="M8.8,63.4c0,0.1-0.1,0.1-0.1,0.1H8.6c-0.1,0-0.1,0-0.2,0c-0.1,0-0.1-0.1-0.2-0.1c-0.1,0-0.2-0.1-0.3-0.1
	c-0.1,0-0.2-0.1-0.3-0.1c-0.2,0-0.4,0-0.5,0.1s-0.2,0.2-0.2,0.4c0,0.1,0,0.2,0.1,0.3c0.1,0.1,0.2,0.1,0.3,0.2c0.1,0,0.2,0.1,0.4,0.1
	c0.1,0,0.3,0.1,0.4,0.1c0.1,0,0.3,0.1,0.4,0.2c0.1,0.1,0.3,0.2,0.4,0.3c0,0.1,0.1,0.3,0.2,0.4c0.1,0.1,0.1,0.3,0.1,0.5
	s0,0.5-0.1,0.7S8.9,66.9,8.7,67c-0.2,0.2-0.3,0.3-0.6,0.4c-0.2,0.1-0.5,0.1-0.8,0.1c-0.2,0-0.3,0-0.5,0s-0.3-0.1-0.5-0.1
	c-0.2-0.1-0.3-0.1-0.4-0.2S5.6,67,5.5,66.9L6,66.3l0.1-0.1c0,0,0.1,0,0.2,0s0.1,0,0.2,0.1c0.1,0,0.2,0.1,0.2,0.1
	c0.1,0.1,0.2,0.1,0.3,0.1c0.1,0,0.3,0.1,0.4,0.1c0.2,0,0.4,0,0.5-0.1C8,66.4,8.1,66.2,8.1,66c0-0.1,0-0.2-0.1-0.3
	c-0.1-0.1-0.2-0.1-0.3-0.2c-0.1,0-0.2-0.1-0.4-0.1c-0.1,0-0.3-0.1-0.4-0.1s-0.3-0.1-0.4-0.2s-0.3-0.2-0.4-0.3
	c-0.1,0-0.1-0.2-0.2-0.3c-0.1-0.2-0.1-0.4-0.1-0.6c0-0.2,0-0.4,0.1-0.6C6,63.1,6.1,63,6.3,62.8c0.1-0.1,0.3-0.3,0.5-0.3
	c0.2-0.1,0.5-0.1,0.7-0.1s0.3,0,0.5,0c0.1,0,0.3,0.1,0.4,0.1c0.1,0,0.3,0.1,0.4,0.2c0.1,0.1,0.2,0.1,0.3,0.2L8.8,63.4z M14.8,64.9
	c0,0.4-0.1,0.7-0.2,1c-0.1,0.3-0.3,0.6-0.5,0.8c-0.2,0.2-0.5,0.4-0.8,0.5s-0.7,0.2-1.1,0.2c-0.4,0-0.8-0.1-1.1-0.2s-0.6-0.3-0.8-0.5
	C10,66.6,9.8,66.3,9.7,66s-0.2-0.7-0.2-1s0.1-0.7,0.2-1c0.1-0.3,0.3-0.6,0.5-0.8s0.5-0.4,0.8-0.5s0.7-0.2,1.1-0.2
	c0.4,0,0.8,0.1,1.1,0.2c0.3,0.1,0.6,0.3,0.8,0.5s0.4,0.5,0.5,0.8C14.7,64.2,14.8,64.6,14.8,64.9z M13.6,64.9c0-0.3,0-0.5-0.1-0.7
	s-0.2-0.4-0.3-0.5s-0.3-0.2-0.4-0.3c-0.2-0.1-0.4-0.1-0.6-0.1c-0.2,0-0.4,0-0.6,0.1c-0.2,0.1-0.3,0.2-0.5,0.3
	c-0.1,0.1-0.2,0.3-0.3,0.5s-0.1,0.4-0.1,0.7c0,0.3,0,0.5,0.1,0.7s0.2,0.4,0.3,0.5s0.3,0.2,0.5,0.3c0.2,0.1,0.4,0.1,0.6,0.1
	c0.2,0,0.4,0,0.6-0.1c0.2-0.1,0.3-0.2,0.4-0.3c0.1-0.1,0.2-0.3,0.3-0.5C13.5,65.4,13.6,65.2,13.6,64.9z M16.6,63.3v1.3h1.7v0.9h-1.7
	v2h-1.2v-5.1h3.3v0.9C18.7,63.3,16.6,63.3,16.6,63.3z M22.9,63.3h-1.4v4.2h-1.2v-4.2h-1.4v-0.9H23v0.9H22.9z"/>
<path class="st1" d="M9.2,70.4v5.1H8v-2.2H5.9v2.2H4.7v-5.1h1.2v2.1H8v-2.1H9.2z M12.8,73.6l-0.5-1.4c0-0.1-0.1-0.2-0.1-0.3
	c0-0.1-0.1-0.3-0.1-0.4c0,0.1-0.1,0.3-0.1,0.4s-0.1,0.2-0.1,0.3l-0.5,1.4H12.8z M14.6,75.5h-0.9c-0.1,0-0.2,0-0.2-0.1
	c-0.1,0-0.1-0.1-0.1-0.2L13,74.4h-1.9l-0.3,0.9c0,0.1-0.1,0.1-0.1,0.2c-0.1,0.1-0.1,0.1-0.2,0.1h-1l2-5.1h1.2L14.6,75.5z M16.6,72.8
	c0.2,0,0.3,0,0.4-0.1c0.1,0,0.2-0.1,0.3-0.2c0.1-0.1,0.1-0.2,0.2-0.3c0-0.1,0-0.2,0-0.3c0-0.2-0.1-0.4-0.2-0.5s-0.4-0.2-0.7-0.2
	h-0.5v1.5L16.6,72.8L16.6,72.8z M19.1,75.5H18c-0.2,0-0.3-0.1-0.4-0.2l-0.8-1.5c0-0.1-0.1-0.1-0.1-0.1s-0.1,0-0.2,0h-0.3v1.9H15
	v-5.1h1.7c0.4,0,0.7,0,0.9,0.1c0.3,0.1,0.5,0.2,0.6,0.3c0.2,0.1,0.3,0.3,0.4,0.5s0.1,0.4,0.1,0.6s0,0.3-0.1,0.5s-0.1,0.3-0.2,0.4
	s-0.2,0.2-0.3,0.3c-0.1,0.1-0.3,0.2-0.4,0.2c0.1,0,0.1,0.1,0.2,0.2s0.1,0.1,0.2,0.2L19.1,75.5z M24.1,72.9c0,0.4-0.1,0.7-0.2,1
	s-0.3,0.6-0.5,0.8c-0.2,0.2-0.5,0.4-0.8,0.5s-0.7,0.2-1.1,0.2h-2v-5.1h2c0.4,0,0.8,0.1,1.1,0.2c0.3,0.1,0.6,0.3,0.8,0.5
	c0.2,0.2,0.4,0.5,0.5,0.8C24,72.2,24.1,72.6,24.1,72.9z M22.8,72.9c0-0.3,0-0.5-0.1-0.7s-0.2-0.4-0.3-0.5c-0.1-0.1-0.3-0.3-0.4-0.3
	c-0.2-0.1-0.4-0.1-0.6-0.1h-0.8v3.3h0.8c0.2,0,0.4,0,0.6-0.1s0.3-0.2,0.4-0.3c0.1-0.1,0.2-0.3,0.3-0.5
	C22.8,73.4,22.8,73.2,22.8,72.9z"/>
<path class="st1" d="M7.5,81.6L7,80.2c0-0.1,0-0.2-0.1-0.4c0-0.1-0.1-0.3-0.1-0.4c0,0.1-0.1,0.3-0.1,0.4S6.6,80,6.6,80.1l-0.5,1.4
	L7.5,81.6L7.5,81.6z M9.4,83.5H8.5c-0.1,0-0.2,0-0.2-0.1c-0.1,0-0.1-0.1-0.1-0.2l-0.3-0.9h-2l-0.3,0.9c0,0.1-0.1,0.1-0.1,0.2
	c-0.1,0.1-0.1,0.1-0.2,0.1h-1l2-5.1h1.2L9.4,83.5z M12.5,79.4c0,0.1-0.1,0.1-0.1,0.1h-0.1c-0.1,0-0.1,0-0.2,0
	c-0.1,0-0.1-0.1-0.2-0.1c-0.1,0-0.2-0.1-0.3-0.1s-0.2-0.1-0.3-0.1c-0.2,0-0.4,0-0.5,0.1s-0.2,0.2-0.2,0.4c0,0.1,0,0.2,0.1,0.3
	c0.1,0.1,0.2,0.1,0.3,0.2c0.1,0,0.2,0.1,0.4,0.1c0.1,0,0.3,0.1,0.4,0.1c0.1,0,0.3,0.1,0.4,0.2c0.1,0.1,0.3,0.2,0.4,0.3
	c0.1,0.1,0.2,0.2,0.3,0.4c0.1,0.1,0.1,0.3,0.1,0.5s0,0.5-0.1,0.7s-0.2,0.4-0.4,0.5c-0.2,0.2-0.3,0.3-0.6,0.4
	c-0.2,0.1-0.5,0.1-0.8,0.1c-0.2,0-0.3,0-0.5,0s-0.3-0.1-0.5-0.1c-0.2-0.1-0.3-0.1-0.4-0.2c-0.1-0.1-0.3-0.2-0.4-0.3l0.4-0.6l0.1-0.1
	c0,0,0.1,0,0.2,0c0.1,0,0.1,0,0.2,0.1c0.1,0,0.2,0.1,0.2,0.1c0.1,0.1,0.2,0.1,0.3,0.1s0.3,0.1,0.4,0.1c0.2,0,0.4,0,0.5-0.1
	s0.2-0.2,0.2-0.5c0-0.1,0-0.2-0.1-0.3c-0.1-0.1-0.2-0.1-0.3-0.2c-0.1,0-0.2-0.1-0.4-0.1c-0.1,0-0.3-0.1-0.4-0.1
	c-0.1,0-0.3-0.1-0.4-0.2c-0.1-0.1-0.3-0.2-0.4-0.3c-0.1-0.1-0.2-0.2-0.3-0.4c-0.1-0.2-0.1-0.4-0.1-0.6s0-0.4,0.1-0.6
	s0.2-0.3,0.3-0.5c0.1-0.1,0.3-0.3,0.5-0.3c0.2-0.1,0.5-0.1,0.7-0.1s0.3,0,0.5,0c0.1,0,0.3,0.1,0.4,0.1c0.1,0,0.3,0.1,0.4,0.2
	c0.1,0.1,0.2,0.1,0.3,0.2L12.5,79.4z M15.8,81.6v1.9h-1.2v-1.9l-1.8-3.2h1c0.1,0,0.2,0,0.2,0.1c0.1,0,0.1,0.1,0.2,0.2l0.7,1.5
	c0.1,0.1,0.1,0.2,0.2,0.3c0,0.1,0.1,0.2,0.1,0.3c0-0.1,0.1-0.2,0.1-0.3c0-0.1,0.1-0.2,0.2-0.3l0.7-1.5c0,0,0-0.1,0.1-0.1l0.1-0.1
	c0,0,0.1,0,0.1-0.1h0.1h1.1L15.8,81.6z M23.7,78.4v5.1h-1v-2.9c0-0.1,0-0.1,0-0.2s0-0.2,0-0.2l-1.4,2.6c0,0.1-0.1,0.1-0.2,0.2
	c0,0-0.1,0-0.2,0h-0.2c-0.1,0-0.2,0-0.2-0.1c-0.1,0-0.1-0.1-0.2-0.2L19,80.1c0,0.1,0,0.2,0,0.2c0,0.1,0,0.2,0,0.2v2.9h-1v-5.1h0.9
	c0.1,0,0.1,0,0.1,0h0.1c0,0,0.1,0,0.1,0.1l0.1,0.1l1.3,2.6c0,0.1,0.1,0.2,0.1,0.3c0,0.1,0.1,0.2,0.1,0.3c0-0.1,0.1-0.2,0.1-0.3
	c0-0.1,0.1-0.2,0.1-0.3l1.3-2.6c0,0,0-0.1,0.1-0.1c0,0,0.1,0,0.1-0.1h0.1h0.1h1V78.4z"/>
<path class="st1" d="M10,87.4c0,0.1-0.1,0.1-0.1,0.1H9.8c-0.1,0-0.1,0-0.2,0c-0.1,0-0.1-0.1-0.2-0.1c-0.1,0-0.2-0.1-0.3-0.1
	s-0.2-0.1-0.3-0.1c-0.2,0-0.4,0-0.5,0.1s-0.2,0.2-0.2,0.4c0,0.1,0,0.2,0.1,0.3c0.1,0.1,0.2,0.1,0.3,0.2c0.1,0,0.2,0.1,0.4,0.1
	c0.1,0,0.3,0.1,0.4,0.1c0.1,0,0.3,0.1,0.4,0.2c0.1,0.1,0.3,0.2,0.4,0.3c0.1,0.1,0.2,0.2,0.3,0.4c0.1,0.1,0.1,0.3,0.1,0.5
	s0,0.5-0.1,0.7S10.2,90.9,10,91c-0.2,0.2-0.3,0.3-0.6,0.4c-0.2,0.1-0.5,0.1-0.8,0.1c-0.2,0-0.3,0-0.5,0s-0.3-0.1-0.5-0.1
	c-0.2-0.1-0.3-0.1-0.4-0.2C7,91.1,6.9,91,6.8,90.9l0.3-0.6l0.1-0.1c0,0,0.1,0,0.2,0s0.1,0,0.2,0.1c0.1,0,0.2,0.1,0.2,0.1
	c0.1,0.1,0.2,0.1,0.3,0.1c0.1,0,0.3,0.1,0.4,0.1c0.2,0,0.4,0,0.5-0.1s0.2-0.2,0.2-0.5c0-0.1,0-0.2-0.1-0.3c-0.1-0.1-0.2-0.1-0.3-0.2
	c-0.1,0-0.2-0.1-0.4-0.1c-0.1,0-0.3-0.1-0.4-0.1s-0.3-0.1-0.4-0.2s-0.3-0.2-0.4-0.3c-0.1-0.1-0.2-0.2-0.3-0.4
	c-0.1-0.2-0.1-0.4-0.1-0.6s0-0.4,0.1-0.6s0.2-0.3,0.3-0.5c0.1-0.1,0.3-0.3,0.5-0.3c0.2-0.1,0.5-0.1,0.7-0.1s0.3,0,0.5,0
	c0.1,0,0.3,0.1,0.4,0.1c0.1,0,0.3,0.1,0.4,0.2c0.1,0.1,0.2,0.1,0.3,0.2L10,87.4z M12.1,91.5h-1.2v-5.1h1.2V91.5z M17.4,86.4v5.1
	h-0.6c-0.1,0-0.2,0-0.2,0c-0.1,0-0.1-0.1-0.2-0.2l-2.4-3c0,0.1,0,0.2,0,0.3c0,0.1,0,0.2,0,0.2v2.7h-1v-5.1h0.6c0.1,0,0.1,0,0.1,0
	h0.1c0,0,0.1,0,0.1,0.1l0.1,0.1l2.4,3.1c0-0.1,0-0.2,0-0.3c0-0.1,0-0.2,0-0.3v-2.7C16.4,86.4,17.4,86.4,17.4,86.4z M19.5,87.3v1.2
	h1.6v0.9h-1.6v1.2h2.1v0.9h-3.3v-5.1h3.3v0.9H19.5z"/>
<path class="st1" d="M12.2,96.9c0,0.4-0.1,0.7-0.2,1c-0.1,0.3-0.3,0.6-0.5,0.8c-0.2,0.2-0.5,0.4-0.8,0.5s-0.7,0.2-1.1,0.2h-2v-5.1h2
	c0.4,0,0.8,0.1,1.1,0.2s0.6,0.3,0.8,0.5s0.4,0.5,0.5,0.8C12.1,96.2,12.2,96.6,12.2,96.9z M11,96.9c0-0.3,0-0.5-0.1-0.7
	s-0.2-0.4-0.3-0.5s-0.3-0.3-0.4-0.3c-0.2-0.1-0.4-0.1-0.6-0.1H8.7v3.3h0.8c0.2,0,0.4,0,0.6-0.1c0.2-0.1,0.3-0.2,0.4-0.3
	c0.1-0.1,0.2-0.3,0.3-0.5C10.9,97.4,11,97.2,11,96.9z M13.9,99.5h-1.2v-5.1h1.2V99.5z M17.3,96.9h1.8V99c-0.3,0.2-0.5,0.3-0.8,0.4
	s-0.6,0.1-0.9,0.1c-0.4,0-0.8-0.1-1.1-0.2c-0.3-0.1-0.6-0.3-0.9-0.5c-0.2-0.2-0.4-0.5-0.6-0.8c-0.1-0.3-0.2-0.7-0.2-1
	c0-0.4,0.1-0.7,0.2-1c0.1-0.3,0.3-0.6,0.5-0.8c0.2-0.2,0.5-0.4,0.9-0.5c0.3-0.1,0.7-0.2,1.1-0.2c0.2,0,0.4,0,0.6,0.1
	c0.2,0,0.4,0.1,0.5,0.1c0.2,0.1,0.3,0.1,0.4,0.2s0.2,0.2,0.3,0.3l-0.3,0.5c-0.1,0.1-0.1,0.1-0.2,0.2c-0.1,0-0.2,0-0.3-0.1
	c-0.1-0.1-0.2-0.1-0.3-0.1c-0.1,0-0.2-0.1-0.3-0.1c-0.1,0-0.2,0-0.3-0.1c-0.1,0-0.2,0-0.3,0c-0.2,0-0.4,0-0.6,0.1s-0.3,0.2-0.5,0.3
	c-0.1,0.1-0.2,0.3-0.3,0.5s-0.1,0.4-0.1,0.7c0,0.3,0,0.5,0.1,0.7s0.2,0.4,0.3,0.5s0.3,0.3,0.5,0.3c0.2,0.1,0.4,0.1,0.6,0.1
	c0.1,0,0.3,0,0.4,0s0.2-0.1,0.3-0.1v-0.8h-0.5c-0.1,0-0.1,0-0.2-0.1c0,0-0.1-0.1-0.1-0.2v-0.6H17.3z M21,99.5h-1.2v-5.1H21V99.5z"/>
<path class="st0" d="M0.5,104.5c0-1.1,0.9-2,2-2h23c1.1,0,2,0.9,2,2v46c0,1.1-0.9,2-2,2h-23c-1.1,0-2-0.9-2-2V104.5z"/>
<path class="st1" d="M13,107.9c0,0.4-0.1,0.7-0.2,1c-0.1,0.3-0.3,0.6-0.5,0.8c-0.2,0.2-0.5,0.4-0.8,0.5s-0.7,0.2-1.1,0.2
	c-0.4,0-0.8-0.1-1.1-0.2s-0.6-0.3-0.8-0.5s-0.4-0.5-0.5-0.8c-0.1-0.3-0.2-0.7-0.2-1c0-0.4,0.1-0.7,0.2-1c0.1-0.3,0.3-0.6,0.5-0.8
	c0.2-0.2,0.5-0.4,0.8-0.5s0.7-0.2,1.1-0.2c0.4,0,0.8,0.1,1.1,0.2s0.6,0.3,0.8,0.6s0.4,0.5,0.5,0.8C13,107.2,13,107.6,13,107.9z
	 M11.8,107.9c0-0.3,0-0.5-0.1-0.7s-0.2-0.4-0.3-0.5s-0.3-0.2-0.4-0.3c-0.2-0.1-0.4-0.1-0.6-0.1c-0.2,0-0.4,0-0.6,0.1
	c-0.2,0.1-0.3,0.2-0.5,0.3c-0.1,0.1-0.2,0.3-0.3,0.5c0,0.3,0,0.5,0,0.7c0,0.3,0,0.5,0.1,0.7s0.2,0.4,0.3,0.5s0.3,0.2,0.5,0.3
	c0.2,0.1,0.4,0.1,0.6,0.1c0.2,0,0.4,0,0.6-0.1c0.2-0.1,0.3-0.2,0.4-0.3c0.1-0.1,0.2-0.3,0.3-0.5C11.8,108.4,11.8,108.2,11.8,107.9z
	 M14.8,106.3v1.3h1.7v0.9h-1.7v2h-1.2v-5.1h3.3v0.9C16.9,106.3,14.8,106.3,14.8,106.3z M18.7,106.3v1.3h1.7v0.9h-1.7v2h-1.2v-5.1
	h3.3v0.9C20.8,106.3,18.7,106.3,18.7,106.3z"/>
<path class="st1" d="M8.8,114.4c0,0.1-0.1,0.1-0.1,0.1H8.6c-0.1,0-0.1,0-0.2,0c-0.1,0-0.1-0.1-0.2-0.1c-0.1,0-0.2-0.1-0.3-0.1
	c-0.1,0-0.2-0.1-0.3-0.1c-0.2,0-0.4,0-0.5,0.1s-0.2,0.2-0.2,0.4c0,0.1,0,0.2,0.1,0.3c0.1,0.1,0.2,0.1,0.3,0.2c0.1,0,0.2,0.1,0.4,0.1
	c0.1,0,0.3,0.1,0.4,0.1c0.1,0,0.3,0.1,0.4,0.2c0.1,0.1,0.3,0.2,0.4,0.3c0.1,0.1,0.2,0.2,0.3,0.4c0.1,0.1,0.1,0.3,0.1,0.5
	s0,0.5-0.1,0.7S9,117.9,8.8,118c-0.2,0.2-0.3,0.3-0.6,0.4c-0.2,0.1-0.5,0.1-0.8,0.1c-0.2,0-0.3,0-0.5,0s-0.3-0.1-0.5-0.1
	c-0.2-0.1-0.3-0.1-0.4-0.2s-0.3-0.2-0.4-0.3l0.4-0.6l0.1-0.1c0,0,0.1,0,0.2,0s0.1,0,0.2,0.1c0.1,0,0.2,0.1,0.2,0.1
	c0.1,0.1,0.2,0.1,0.3,0.1c0.1,0,0.3,0.1,0.4,0.1c0.2,0,0.4,0,0.5-0.1s0.2-0.2,0.2-0.5c0-0.1,0-0.2-0.1-0.3c-0.1-0.1-0.2-0.1-0.3-0.2
	c-0.1,0-0.2-0.1-0.4-0.1c-0.1,0-0.3-0.1-0.4-0.1s-0.3-0.1-0.4-0.2s-0.3-0.2-0.4-0.3c-0.1-0.1-0.2-0.2-0.3-0.4
	c-0.1-0.2-0.1-0.4-0.1-0.6s0-0.4,0.1-0.6s0.2-0.3,0.3-0.5c0.1-0.1,0.3-0.3,0.5-0.3c0.2-0.1,0.5-0.1,0.7-0.1s0.3,0,0.5,0
	c0.1,0,0.3,0.1,0.4,0.1s0.3,0.1,0.4,0.2c0.1,0.1,0.2,0.1,0.3,0.2L8.8,114.4z M14.8,115.9c0,0.4-0.1,0.7-0.2,1
	c-0.1,0.3-0.3,0.6-0.5,0.8c-0.2,0.2-0.5,0.4-0.8,0.5s-0.7,0.2-1.1,0.2c-0.4,0-0.8-0.1-1.1-0.2s-0.6-0.3-0.8-0.5s-0.4-0.5-0.5-0.8
	s-0.2-0.7-0.2-1c0-0.4,0.1-0.7,0.2-1c0.1-0.3,0.3-0.6,0.5-0.8c0.2-0.2,0.5-0.4,0.8-0.5s0.7-0.2,1.1-0.2c0.4,0,0.8,0.1,1.1,0.2
	s0.6,0.3,0.8,0.6s0.4,0.5,0.5,0.8C14.7,115.2,14.8,115.6,14.8,115.9z M13.6,115.9c0-0.3,0-0.5-0.1-0.7s-0.2-0.4-0.3-0.5
	s-0.3-0.2-0.4-0.3c-0.2-0.1-0.4-0.1-0.6-0.1c-0.2,0-0.4,0-0.6,0.1c-0.2,0.1-0.3,0.2-0.5,0.3c-0.1,0.1-0.2,0.3-0.3,0.5
	s-0.1,0.4-0.1,0.7c0,0.3,0,0.5,0.1,0.7s0.2,0.4,0.3,0.5s0.3,0.2,0.5,0.3c0.2,0.1,0.4,0.1,0.6,0.1c0.2,0,0.4,0,0.6-0.1
	c0.2-0.1,0.3-0.2,0.4-0.3c0.1-0.1,0.2-0.3,0.3-0.5C13.5,116.4,13.6,116.2,13.6,115.9z M16.6,114.3v1.3h1.7v0.9h-1.7v2h-1.2v-5.1h3.3
	v0.9C18.7,114.3,16.6,114.3,16.6,114.3z M22.9,114.3h-1.4v4.2h-1.2v-4.2h-1.4v-0.9H23v0.9H22.9z"/>
<path class="st1" d="M2.8,120h23c0.6,0,1,0.4,1,1v5c0,0.6-0.4,1-1,1h-23c-0.6,0-1-0.4-1-1v-5C1.8,120.4,2.2,120,2.8,120z"/>
<path class="st1" d="M2.8,120h23c0.6,0,1,0.4,1,1v5c0,0.6-0.4,1-1,1h-23c-0.6,0-1-0.4-1-1v-5C1.8,120.4,2.2,120,2.8,120z"/>
<path d="M9.2,121.4v5.1H8v-2.2H5.9v2.2H4.7v-5.1h1.2v2.1H8v-2.1H9.2z M12.8,124.6l-0.5-1.4c0-0.1-0.1-0.2-0.1-0.3
	c0-0.1-0.1-0.3-0.1-0.4c0,0.1-0.1,0.3-0.1,0.4s-0.1,0.2-0.1,0.3l-0.5,1.4H12.8z M14.6,126.5h-0.9c-0.1,0-0.2,0-0.2-0.1
	c-0.1,0-0.1-0.1-0.1-0.2l-0.3-0.9h-1.9l-0.3,0.9c0,0.1-0.1,0.1-0.1,0.2c-0.1,0.1-0.1,0.1-0.2,0.1H9.5l2-5.1h1.2L14.6,126.5z
	 M16.6,123.8c0.2,0,0.3,0,0.4-0.1c0.1,0,0.2-0.1,0.3-0.2s0.1-0.2,0.2-0.3c0-0.1,0-0.2,0-0.3c0-0.2-0.1-0.4-0.2-0.5s-0.4-0.2-0.7-0.2
	h-0.5v1.5L16.6,123.8L16.6,123.8z M19.1,126.5H18c-0.2,0-0.3-0.1-0.4-0.2l-0.8-1.5c0-0.1-0.1-0.1-0.1-0.1s-0.1,0-0.2,0h-0.3v1.9H15
	v-5.1h1.7c0.4,0,0.7,0,0.9,0.1c0.3,0.1,0.5,0.2,0.6,0.3c0.2,0.1,0.3,0.3,0.4,0.5s0.1,0.4,0.1,0.6s0,0.3-0.1,0.5
	c0,0.1-0.1,0.3-0.2,0.4s-0.2,0.2-0.3,0.3c-0.1,0.1-0.3,0.2-0.4,0.2c0.1,0,0.1,0.1,0.2,0.2s0.1,0.1,0.2,0.2L19.1,126.5z M24.1,123.9
	c0,0.4-0.1,0.7-0.2,1s-0.3,0.6-0.5,0.8c-0.2,0.2-0.5,0.4-0.8,0.5s-0.7,0.2-1.1,0.2h-2v-5.1h2c0.4,0,0.8,0.1,1.1,0.2
	c0.3,0.1,0.6,0.3,0.8,0.5c0.2,0.2,0.4,0.5,0.5,0.8C24,123.2,24.1,123.6,24.1,123.9z M22.8,123.9c0-0.3,0-0.5-0.1-0.7
	s-0.2-0.4-0.3-0.5c-0.1-0.1-0.3-0.3-0.4-0.3c-0.2-0.1-0.4-0.1-0.6-0.1h-0.8v3.3h0.8c0.2,0,0.4,0,0.6-0.1s0.3-0.2,0.4-0.3
	c0.1-0.1,0.2-0.3,0.3-0.5C22.8,124.4,22.8,124.2,22.8,123.9z"/>
<path class="st1" d="M7.5,132.6L7,131.2c0-0.1-0.1-0.2-0.1-0.3s-0.1-0.3-0.1-0.4c0,0.1-0.1,0.3-0.1,0.4c0,0.1-0.1,0.2-0.1,0.3
	l-0.5,1.4H7.5z M9.4,134.5H8.5c-0.1,0-0.2,0-0.2-0.1c-0.1,0-0.1-0.1-0.1-0.2l-0.3-0.9h-2l-0.3,0.9c0,0.1-0.1,0.1-0.1,0.2
	c-0.1,0.1-0.1,0.1-0.2,0.1h-1l2-5.1h1.2L9.4,134.5z M12.5,130.4c0,0.1-0.1,0.1-0.1,0.1h-0.1c-0.1,0-0.1,0-0.2,0
	c-0.1,0-0.1-0.1-0.2-0.1c-0.1,0-0.2-0.1-0.3-0.1s-0.2-0.1-0.3-0.1c-0.2,0-0.4,0-0.5,0.1s-0.2,0.2-0.2,0.4c0,0.1,0,0.2,0.1,0.3
	s0.2,0.1,0.3,0.2c0.1,0,0.2,0.1,0.4,0.1c0.1,0,0.3,0.1,0.4,0.1c0.1,0,0.3,0.1,0.4,0.2c0.1,0.1,0.3,0.2,0.4,0.3
	c0.1,0.1,0.2,0.2,0.3,0.4c0.1,0.1,0.1,0.3,0.1,0.5s0,0.5-0.1,0.7s-0.2,0.4-0.4,0.5c-0.2,0.2-0.3,0.3-0.6,0.4
	c-0.2,0.1-0.5,0.1-0.8,0.1c-0.2,0-0.3,0-0.5,0s-0.3-0.1-0.5-0.1c-0.2-0.1-0.3-0.1-0.4-0.2c-0.1-0.1-0.3-0.2-0.4-0.3l0.4-0.6l0.1-0.1
	c0,0,0.1,0,0.2,0c0.1,0,0.1,0,0.2,0.1c0.1,0,0.2,0.1,0.2,0.1c0.1,0.1,0.2,0.1,0.3,0.1s0.3,0.1,0.4,0.1c0.2,0,0.4,0,0.5-0.1
	s0.2-0.2,0.2-0.5c0-0.1,0-0.2-0.1-0.3s-0.2-0.1-0.3-0.2c-0.1,0-0.2-0.1-0.4-0.1c-0.1,0-0.3-0.1-0.4-0.1c-0.1,0-0.3-0.1-0.4-0.2
	c-0.1-0.1-0.3-0.2-0.4-0.3c-0.1-0.1-0.2-0.2-0.3-0.4s-0.1-0.4-0.1-0.6c0-0.2,0-0.4,0.1-0.6c0.1-0.2,0.2-0.3,0.3-0.5
	c0.1-0.1,0.3-0.3,0.5-0.3c0.2-0.1,0.5-0.1,0.7-0.1s0.3,0,0.5,0c0.1,0,0.3,0.1,0.4,0.1c0.1,0,0.3,0.1,0.4,0.2
	c0.1,0.1,0.2,0.1,0.3,0.2L12.5,130.4z M15.8,132.6v1.9h-1.2v-1.9l-1.8-3.2h1c0.1,0,0.2,0,0.2,0.1c0.1,0,0.1,0.1,0.2,0.2l0.7,1.5
	c0.1,0.1,0.1,0.2,0.2,0.3c0,0.1,0.1,0.2,0.1,0.3c0-0.1,0.1-0.2,0.1-0.3s0.1-0.2,0.2-0.3l0.7-1.5c0,0,0-0.1,0.1-0.1l0.1-0.1
	c0,0,0.1,0,0.1-0.1h0.1h1.1L15.8,132.6z M23.7,129.4v5.1h-1v-2.9c0-0.1,0-0.1,0-0.2c0-0.1,0-0.2,0-0.2l-1.4,2.6
	c0,0.1-0.1,0.1-0.2,0.2c-0.1,0-0.2,0.1-0.2,0.1h-0.2c-0.1,0-0.2,0-0.2-0.1c-0.1,0-0.1-0.1-0.2-0.2l-1.4-2.6c0,0.1,0,0.2,0,0.2
	c0,0.1,0,0.2,0,0.2v2.9h-1v-5.1h0.9c0.1,0,0.1,0,0.1,0H19c0,0,0.1,0,0.1,0.1l0.1,0.1l1.3,2.6c0,0.1,0.1,0.2,0.1,0.3s0.1,0.2,0.1,0.3
	c0-0.1,0.1-0.2,0.1-0.3s0.1-0.2,0.1-0.3l1.3-2.6c0,0,0-0.1,0.1-0.1c0,0,0.1,0,0.1-0.1h0.1h0.1H23.7z"/>
<path class="st1" d="M10,138.4c0,0.1-0.1,0.1-0.1,0.1H9.8c-0.1,0-0.1,0-0.2,0c-0.1,0-0.1-0.1-0.2-0.1c-0.1,0-0.2-0.1-0.3-0.1
	s-0.2-0.1-0.3-0.1c-0.2,0-0.4,0-0.5,0.1s-0.2,0.2-0.2,0.4c0,0.1,0,0.2,0.1,0.3s0.2,0.1,0.3,0.2c0.1,0,0.2,0.1,0.4,0.1
	c0.1,0,0.3,0.1,0.4,0.1c0.1,0,0.3,0.1,0.4,0.2c0.1,0.1,0.3,0.2,0.4,0.3c0.1,0.1,0.2,0.2,0.3,0.4c0.1,0.1,0.1,0.3,0.1,0.5
	s0,0.5-0.1,0.7s-0.2,0.4-0.4,0.5c-0.2,0.2-0.3,0.3-0.6,0.4c-0.2,0.1-0.5,0.1-0.8,0.1c-0.2,0-0.3,0-0.5,0s-0.3-0.1-0.5-0.1
	c-0.2-0.1-0.3-0.1-0.4-0.2c-0.1-0.1-0.3-0.2-0.4-0.3l0.3-0.6l0.1-0.1c0,0,0.1,0,0.2,0s0.1,0,0.2,0.1c0.1,0,0.2,0.1,0.2,0.1
	c0.1,0.1,0.2,0.1,0.3,0.1c0.1,0,0.3,0.1,0.4,0.1c0.2,0,0.4,0,0.5-0.1s0.2-0.2,0.2-0.5c0-0.1,0-0.2-0.1-0.3s-0.2-0.1-0.3-0.2
	c-0.1,0-0.2-0.1-0.4-0.1c-0.1,0-0.3-0.1-0.4-0.1s-0.3-0.1-0.4-0.2c-0.1-0.1-0.3-0.2-0.4-0.3s-0.2-0.2-0.3-0.4
	c-0.1-0.2-0.1-0.4-0.1-0.6c0-0.2,0-0.4,0.1-0.6c0.1-0.2,0.2-0.3,0.3-0.5c0.1-0.1,0.3-0.3,0.5-0.3c0.2-0.1,0.5-0.1,0.7-0.1
	s0.3,0,0.5,0c0.1,0,0.3,0.1,0.4,0.1c0.1,0,0.3,0.1,0.4,0.2c0.1,0.1,0.2,0.1,0.3,0.2L10,138.4z M12.1,142.5h-1.2v-5.1h1.2V142.5z
	 M17.4,137.4v5.1h-0.6c-0.1,0-0.2,0-0.2,0c-0.1,0-0.1-0.1-0.2-0.2l-2.4-3c0,0.1,0,0.2,0,0.3s0,0.2,0,0.2v2.7h-1v-5.1h0.6
	c0.1,0,0.1,0,0.1,0h0.1c0,0,0.1,0,0.1,0.1l0.1,0.1l2.4,3.1c0-0.1,0-0.2,0-0.3s0-0.2,0-0.3v-2.7L17.4,137.4L17.4,137.4z M19.5,138.3
	v1.2h1.6v0.9h-1.6v1.2h2.1v0.9h-3.3v-5.1h3.3v0.9L19.5,138.3L19.5,138.3z"/>
<path class="st1" d="M12.2,147.9c0,0.4-0.1,0.7-0.2,1c-0.1,0.3-0.3,0.6-0.5,0.8s-0.5,0.4-0.8,0.5s-0.7,0.2-1.1,0.2h-2v-5.1h2
	c0.4,0,0.8,0.1,1.1,0.2c0.3,0.1,0.6,0.3,0.8,0.5s0.4,0.5,0.5,0.8C12.1,147.2,12.2,147.6,12.2,147.9z M11,147.9c0-0.3,0-0.5-0.1-0.7
	s-0.2-0.4-0.3-0.5s-0.3-0.3-0.4-0.3c-0.2-0.1-0.4-0.1-0.6-0.1H8.7v3.3h0.8c0.2,0,0.4,0,0.6-0.1c0.2-0.1,0.3-0.2,0.4-0.3
	c0.1-0.1,0.2-0.3,0.3-0.5C10.9,148.4,11,148.2,11,147.9z M13.9,150.5h-1.2v-5.1h1.2V150.5z M17.3,147.9h1.8v2.2
	c-0.3,0.2-0.5,0.3-0.8,0.4c-0.3,0.1-0.6,0.1-0.9,0.1c-0.4,0-0.8-0.1-1.1-0.2c-0.3-0.1-0.6-0.3-0.9-0.5c-0.2-0.2-0.4-0.5-0.6-0.8
	c-0.1-0.3-0.2-0.7-0.2-1c0-0.4,0.1-0.7,0.2-1c0.1-0.3,0.3-0.6,0.5-0.8s0.5-0.4,0.9-0.5c0.3-0.1,0.7-0.2,1.1-0.2c0.2,0,0.4,0,0.6,0.1
	c0.2,0,0.4,0.1,0.5,0.1c0.2,0.1,0.3,0.1,0.4,0.2c0.1,0.1,0.2,0.2,0.3,0.3l-0.3,0.5c-0.1,0.1-0.1,0.1-0.2,0.1s-0.2,0-0.3-0.1
	c-0.1-0.1-0.2-0.1-0.3-0.1c-0.1,0-0.2-0.1-0.3-0.1c-0.1,0-0.2,0-0.3-0.1c-0.1,0-0.2,0-0.3,0c-0.2,0-0.4,0-0.6,0.1s-0.3,0.2-0.5,0.3
	c-0.1,0.1-0.2,0.3-0.3,0.5s-0.1,0.4-0.1,0.7s0,0.5,0.1,0.7s0.2,0.4,0.3,0.5s0.3,0.3,0.5,0.3c0.2,0.1,0.4,0.1,0.6,0.1
	c0.1,0,0.3,0,0.4,0s0.2-0.1,0.3-0.1v-0.8h-0.5c-0.1,0-0.1,0-0.2-0.1c0,0-0.1-0.1-0.1-0.2v-0.6H17.3z M21,150.5h-1.2v-5.1H21V150.5z"
	/>
<path class="st0" d="M0.5,155.5c0-1.1,0.9-2,2-2h23c1.1,0,2,0.9,2,2v46c0,1.1-0.9,2-2,2h-23c-1.1,0-2-0.9-2-2V155.5z"/>
<path class="st1" d="M13,158.9c0,0.4-0.1,0.7-0.2,1c-0.1,0.3-0.3,0.6-0.5,0.8s-0.5,0.4-0.8,0.5s-0.7,0.2-1.1,0.2
	c-0.4,0-0.8-0.1-1.1-0.2c-0.3-0.1-0.6-0.3-0.8-0.5s-0.4-0.5-0.5-0.8c-0.1-0.3-0.2-0.7-0.2-1c0-0.4,0.1-0.7,0.2-1
	c0.1-0.3,0.3-0.6,0.5-0.8s0.5-0.4,0.8-0.5s0.7-0.2,1.1-0.2c0.4,0,0.8,0.1,1.1,0.2c0.3,0.1,0.6,0.3,0.8,0.6s0.4,0.5,0.5,0.8
	C13,158.2,13,158.6,13,158.9z M11.8,158.9c0-0.3,0-0.5-0.1-0.7s-0.2-0.4-0.3-0.5s-0.3-0.2-0.4-0.3c-0.2-0.1-0.4-0.1-0.6-0.1
	c-0.2,0-0.4,0-0.6,0.1c-0.2,0.1-0.3,0.2-0.5,0.3c-0.1,0.1-0.2,0.3-0.3,0.5c0,0.3,0,0.5,0,0.7c0,0.3,0,0.5,0.1,0.7s0.2,0.4,0.3,0.5
	s0.3,0.2,0.5,0.3s0.4,0.1,0.6,0.1c0.2,0,0.4,0,0.6-0.1c0.2-0.1,0.3-0.2,0.4-0.3c0.1-0.1,0.2-0.3,0.3-0.5
	C11.8,159.4,11.8,159.2,11.8,158.9z M14.8,157.3v1.3h1.7v0.9h-1.7v2h-1.2v-5.1h3.3v0.9L14.8,157.3L14.8,157.3z M18.7,157.3v1.3h1.7
	v0.9h-1.7v2h-1.2v-5.1h3.3v0.9L18.7,157.3L18.7,157.3z"/>
<path class="st1" d="M8.8,165.4c0,0.1-0.1,0.1-0.1,0.1H8.6c-0.1,0-0.1,0-0.2,0c-0.1,0-0.1-0.1-0.2-0.1c-0.1,0-0.2-0.1-0.3-0.1
	c-0.1,0-0.2-0.1-0.3-0.1c-0.2,0-0.4,0-0.5,0.1s-0.2,0.2-0.2,0.4c0,0.1,0,0.2,0.1,0.3s0.2,0.1,0.3,0.2c0.1,0,0.2,0.1,0.4,0.1
	c0.1,0,0.3,0.1,0.4,0.1c0.1,0,0.3,0.1,0.4,0.2c0.1,0.1,0.3,0.2,0.4,0.3c0.1,0.1,0.2,0.2,0.3,0.4c0.1,0.1,0.1,0.3,0.1,0.5
	s0,0.5-0.1,0.7S9,168.9,8.8,169c-0.2,0.2-0.3,0.3-0.6,0.4c-0.2,0.1-0.5,0.1-0.8,0.1c-0.2,0-0.3,0-0.5,0s-0.3-0.1-0.5-0.1
	c-0.2-0.1-0.3-0.1-0.4-0.2c-0.1-0.1-0.3-0.2-0.4-0.3l0.4-0.6l0.1-0.1c0,0,0.1,0,0.2,0s0.1,0,0.2,0.1c0.1,0,0.2,0.1,0.2,0.1
	c0.1,0.1,0.2,0.1,0.3,0.1c0.1,0,0.3,0.1,0.4,0.1c0.2,0,0.4,0,0.5-0.1s0.2-0.2,0.2-0.5c0-0.1,0-0.2-0.1-0.3s-0.2-0.1-0.3-0.2
	c-0.1,0-0.2-0.1-0.4-0.1c-0.1,0-0.3-0.1-0.4-0.1s-0.3-0.1-0.4-0.2c-0.1-0.1-0.3-0.2-0.4-0.3s-0.2-0.2-0.3-0.4
	c-0.1-0.2-0.1-0.4-0.1-0.6c0-0.2,0-0.4,0.1-0.6c0.1-0.2,0.2-0.3,0.3-0.5c0.1-0.1,0.3-0.3,0.5-0.3c0.2-0.1,0.5-0.1,0.7-0.1
	s0.3,0,0.5,0c0.1,0,0.3,0.1,0.4,0.1s0.3,0.1,0.4,0.2c0.1,0.1,0.2,0.1,0.3,0.2L8.8,165.4z M14.8,166.9c0,0.4-0.1,0.7-0.2,1
	c-0.1,0.3-0.3,0.6-0.5,0.8s-0.5,0.4-0.8,0.5s-0.7,0.2-1.1,0.2c-0.4,0-0.8-0.1-1.1-0.2c-0.3-0.1-0.6-0.3-0.8-0.5s-0.4-0.5-0.5-0.8
	s-0.2-0.7-0.2-1c0-0.4,0.1-0.7,0.2-1c0.1-0.3,0.3-0.6,0.5-0.8s0.5-0.4,0.8-0.5s0.7-0.2,1.1-0.2c0.4,0,0.8,0.1,1.1,0.2
	c0.3,0.1,0.6,0.3,0.8,0.6s0.4,0.5,0.5,0.8C14.7,166.2,14.8,166.6,14.8,166.9z M13.6,166.9c0-0.3,0-0.5-0.1-0.7s-0.2-0.4-0.3-0.5
	s-0.3-0.2-0.4-0.3c-0.2-0.1-0.4-0.1-0.6-0.1c-0.2,0-0.4,0-0.6,0.1c-0.2,0.1-0.3,0.2-0.5,0.3c-0.1,0.1-0.2,0.3-0.3,0.5
	s-0.1,0.4-0.1,0.7s0,0.5,0.1,0.7s0.2,0.4,0.3,0.5s0.3,0.2,0.5,0.3s0.4,0.1,0.6,0.1c0.2,0,0.4,0,0.6-0.1c0.2-0.1,0.3-0.2,0.4-0.3
	c0.1-0.1,0.2-0.3,0.3-0.5C13.5,167.4,13.6,167.2,13.6,166.9z M16.6,165.3v1.3h1.7v0.9h-1.7v2h-1.2v-5.1h3.3v0.9L16.6,165.3
	L16.6,165.3z M22.9,165.3h-1.4v4.2h-1.2v-4.2h-1.4v-0.9H23v0.9H22.9z"/>
<path class="st1" d="M9.2,172.4v5.1H8v-2.2H5.9v2.2H4.7v-5.1h1.2v2.1H8v-2.1H9.2z M12.8,175.6l-0.5-1.4c0-0.1-0.1-0.2-0.1-0.3
	s-0.1-0.3-0.1-0.4c0,0.1-0.1,0.3-0.1,0.4c0,0.1-0.1,0.2-0.1,0.3l-0.5,1.4H12.8z M14.6,177.5h-0.9c-0.1,0-0.2,0-0.2-0.1
	c-0.1,0-0.1-0.1-0.1-0.2l-0.3-0.9h-1.9l-0.3,0.9c0,0.1-0.1,0.1-0.1,0.2c-0.1,0.1-0.1,0.1-0.2,0.1H9.5l2-5.1h1.2L14.6,177.5z
	 M16.6,174.8c0.2,0,0.3,0,0.4-0.1c0.1,0,0.2-0.1,0.3-0.2s0.1-0.2,0.2-0.3c0-0.1,0-0.2,0-0.3c0-0.2-0.1-0.4-0.2-0.5s-0.4-0.2-0.7-0.2
	h-0.5v1.5h0.5V174.8z M19.1,177.5H18c-0.2,0-0.3-0.1-0.4-0.2l-0.8-1.5c0-0.1-0.1-0.1-0.1-0.1s-0.1,0-0.2,0h-0.3v1.9H15v-5.1h1.7
	c0.4,0,0.7,0,0.9,0.1c0.3,0.1,0.5,0.2,0.6,0.3c0.2,0.1,0.3,0.3,0.4,0.5s0.1,0.4,0.1,0.6c0,0.2,0,0.3-0.1,0.5s-0.1,0.3-0.2,0.4
	c-0.1,0.1-0.2,0.2-0.3,0.3c-0.1,0.1-0.3,0.2-0.4,0.2c0.1,0,0.1,0.1,0.2,0.1c0.1,0.1,0.1,0.1,0.2,0.2L19.1,177.5z M24.1,174.9
	c0,0.4-0.1,0.7-0.2,1s-0.3,0.6-0.5,0.8s-0.5,0.4-0.8,0.5s-0.7,0.2-1.1,0.2h-2v-5.1h2c0.4,0,0.8,0.1,1.1,0.2c0.3,0.1,0.6,0.3,0.8,0.5
	c0.2,0.2,0.4,0.5,0.5,0.8C24,174.2,24.1,174.6,24.1,174.9z M22.8,174.9c0-0.3,0-0.5-0.1-0.7s-0.2-0.4-0.3-0.5
	c-0.1-0.1-0.3-0.3-0.4-0.3c-0.2-0.1-0.4-0.1-0.6-0.1h-0.8v3.3h0.8c0.2,0,0.4,0,0.6-0.1s0.3-0.2,0.4-0.3s0.2-0.3,0.3-0.5
	C22.8,175.4,22.8,175.2,22.8,174.9z"/>
<path class="st1" d="M2.8,179h23c0.6,0,1,0.4,1,1v5c0,0.6-0.4,1-1,1h-23c-0.6,0-1-0.4-1-1v-5C1.8,179.4,2.2,179,2.8,179z"/>
<path class="st1" d="M2.8,179h23c0.6,0,1,0.4,1,1v5c0,0.6-0.4,1-1,1h-23c-0.6,0-1-0.4-1-1v-5C1.8,179.4,2.2,179,2.8,179z"/>
<path d="M7.5,183.6L7,182.2c0-0.1-0.1-0.2-0.1-0.3s-0.1-0.3-0.1-0.4c0,0.1-0.1,0.3-0.1,0.4c0,0.1-0.1,0.2-0.1,0.3l-0.5,1.4H7.5z
	 M9.4,185.5H8.5c-0.1,0-0.2,0-0.2-0.1c-0.1,0-0.1-0.1-0.1-0.2l-0.3-0.9h-2l-0.3,0.9c0,0.1-0.1,0.1-0.1,0.2c-0.1,0.1-0.1,0.1-0.2,0.1
	h-1l2-5.1h1.2L9.4,185.5z M12.5,181.4c0,0.1-0.1,0.1-0.1,0.1h-0.1c-0.1,0-0.1,0-0.2,0c-0.1,0-0.1-0.1-0.2-0.1
	c-0.1,0-0.2-0.1-0.3-0.1s-0.2-0.1-0.3-0.1c-0.2,0-0.4,0-0.5,0.1s-0.2,0.2-0.2,0.4c0,0.1,0,0.2,0.1,0.3s0.2,0.1,0.3,0.2
	c0.1,0,0.2,0.1,0.4,0.1c0.1,0,0.3,0.1,0.4,0.1c0.1,0,0.3,0.1,0.4,0.2c0.1,0.1,0.3,0.2,0.4,0.3c0.1,0.1,0.2,0.2,0.3,0.4
	c0.1,0.1,0.1,0.3,0.1,0.5s0,0.5-0.1,0.7s-0.2,0.4-0.4,0.5c-0.2,0.2-0.3,0.3-0.6,0.4c-0.2,0.1-0.5,0.1-0.8,0.1c-0.2,0-0.3,0-0.5,0
	s-0.3-0.1-0.5-0.1c-0.2-0.1-0.3-0.1-0.4-0.2c-0.1-0.1-0.3-0.2-0.4-0.3l0.4-0.6l0.1-0.1c0,0,0.1,0,0.2,0c0.1,0,0.1,0,0.2,0.1
	c0.1,0,0.2,0.1,0.2,0.1c0.1,0.1,0.2,0.1,0.3,0.1s0.3,0.1,0.4,0.1c0.2,0,0.4,0,0.5-0.1s0.2-0.2,0.2-0.5c0-0.1,0-0.2-0.1-0.3
	s-0.2-0.1-0.3-0.2c-0.1,0-0.2-0.1-0.4-0.1c-0.1,0-0.3-0.1-0.4-0.1c-0.1,0-0.3-0.1-0.4-0.2c-0.1-0.1-0.3-0.2-0.4-0.3
	c-0.1-0.1-0.2-0.2-0.3-0.4s-0.1-0.4-0.1-0.6c0-0.2,0-0.4,0.1-0.6c0.1-0.2,0.2-0.3,0.3-0.5c0.1-0.1,0.3-0.3,0.5-0.3
	c0.2-0.1,0.5-0.1,0.7-0.1s0.3,0,0.5,0c0.1,0,0.3,0.1,0.4,0.1c0.1,0,0.3,0.1,0.4,0.2c0.1,0.1,0.2,0.1,0.3,0.2L12.5,181.4z
	 M15.8,183.6v1.9h-1.2v-1.9l-1.8-3.2h1c0.1,0,0.2,0,0.2,0.1c0.1,0,0.1,0.1,0.2,0.2l0.7,1.5c0.1,0.1,0.1,0.2,0.2,0.3
	c0,0.1,0.1,0.2,0.1,0.3c0-0.1,0.1-0.2,0.1-0.3s0.1-0.2,0.2-0.3l0.7-1.5c0,0,0-0.1,0.1-0.1l0.1-0.1c0,0,0.1,0,0.1-0.1h0.1h1.1
	L15.8,183.6z M23.7,180.4v5.1h-1v-2.9c0-0.1,0-0.1,0-0.2c0-0.1,0-0.2,0-0.2l-1.4,2.6c0,0.1-0.1,0.1-0.2,0.2c-0.1,0-0.2,0.1-0.2,0.1
	h-0.2c-0.1,0-0.2,0-0.2-0.1c-0.1,0-0.1-0.1-0.2-0.2l-1.4-2.6c0,0.1,0,0.2,0,0.2c0,0.1,0,0.2,0,0.2v2.9h-1v-5.1h0.9
	c0.1,0,0.1,0,0.1,0H19c0,0,0.1,0,0.1,0.1l0.1,0.1l1.3,2.6c0,0.1,0.1,0.2,0.1,0.3s0.1,0.2,0.1,0.3c0-0.1,0.1-0.2,0.1-0.3
	s0.1-0.2,0.1-0.3l1.3-2.6c0,0,0-0.1,0.1-0.1c0,0,0.1,0,0.1-0.1h0.1h0.1H23.7z"/>
<path class="st1" d="M10,189.4c0,0.1-0.1,0.1-0.1,0.1H9.8c-0.1,0-0.1,0-0.2,0c-0.1,0-0.1-0.1-0.2-0.1c-0.1,0-0.2-0.1-0.3-0.1
	s-0.2-0.1-0.3-0.1c-0.2,0-0.4,0-0.5,0.1s-0.2,0.2-0.2,0.4c0,0.1,0,0.2,0.1,0.3s0.2,0.1,0.3,0.2c0.1,0,0.2,0.1,0.4,0.1
	c0.1,0,0.3,0.1,0.4,0.1c0.1,0,0.3,0.1,0.4,0.2c0.1,0.1,0.3,0.2,0.4,0.3c0.1,0.1,0.2,0.2,0.3,0.4c0.1,0.1,0.1,0.3,0.1,0.5
	s0,0.5-0.1,0.7s-0.2,0.4-0.4,0.5c-0.2,0.2-0.3,0.3-0.6,0.4c-0.2,0.1-0.5,0.1-0.8,0.1c-0.2,0-0.3,0-0.5,0s-0.3-0.1-0.5-0.1
	c-0.2-0.1-0.3-0.1-0.4-0.2c-0.1-0.1-0.3-0.2-0.4-0.3l0.3-0.6l0.1-0.1c0,0,0.1,0,0.2,0s0.1,0,0.2,0.1c0.1,0,0.2,0.1,0.2,0.1
	c0.1,0.1,0.2,0.1,0.3,0.1c0.1,0,0.3,0.1,0.4,0.1c0.2,0,0.4,0,0.5-0.1s0.2-0.2,0.2-0.5c0-0.1,0-0.2-0.1-0.3s-0.2-0.1-0.3-0.2
	c-0.1,0-0.2-0.1-0.4-0.1c-0.1,0-0.3-0.1-0.4-0.1s-0.3-0.1-0.4-0.2c-0.1-0.1-0.3-0.2-0.4-0.3s-0.2-0.2-0.3-0.4
	c-0.1-0.2-0.1-0.4-0.1-0.6c0-0.2,0-0.4,0.1-0.6c0.1-0.2,0.2-0.3,0.3-0.5c0.1-0.1,0.3-0.3,0.5-0.3c0.2-0.1,0.5-0.1,0.7-0.1
	s0.3,0,0.5,0c0.1,0,0.3,0.1,0.4,0.1c0.1,0,0.3,0.1,0.4,0.2c0.1,0.1,0.2,0.1,0.3,0.2L10,189.4z M12.1,193.5h-1.2v-5.1h1.2V193.5z
	 M17.4,188.4v5.1h-0.6c-0.1,0-0.2,0-0.2,0c-0.1,0-0.1-0.1-0.2-0.2l-2.4-3c0,0.1,0,0.2,0,0.3s0,0.2,0,0.2v2.7h-1v-5.1h0.6
	c0.1,0,0.1,0,0.1,0h0.1c0,0,0.1,0,0.1,0.1l0.1,0.1l2.4,3.1c0-0.1,0-0.2,0-0.3s0-0.2,0-0.3v-2.7L17.4,188.4L17.4,188.4z M19.5,189.3
	v1.2h1.6v0.9h-1.6v1.2h2.1v0.9h-3.3v-5.1h3.3v0.9L19.5,189.3L19.5,189.3z"/>
<path class="st1" d="M12.2,198.9c0,0.4-0.1,0.7-0.2,1c-0.1,0.3-0.3,0.6-0.5,0.8s-0.5,0.4-0.8,0.5s-0.7,0.2-1.1,0.2h-2v-5.1h2
	c0.4,0,0.8,0.1,1.1,0.2c0.3,0.1,0.6,0.3,0.8,0.5s0.4,0.5,0.5,0.8C12.1,198.2,12.2,198.6,12.2,198.9z M11,198.9c0-0.3,0-0.5-0.1-0.7
	s-0.2-0.4-0.3-0.5s-0.3-0.3-0.4-0.3c-0.2-0.1-0.4-0.1-0.6-0.1H8.7v3.3h0.8c0.2,0,0.4,0,0.6-0.1c0.2-0.1,0.3-0.2,0.4-0.3
	c0.1-0.1,0.2-0.3,0.3-0.5C10.9,199.4,11,199.2,11,198.9z M13.9,201.5h-1.2v-5.1h1.2V201.5z M17.3,198.9h1.8v2.2
	c-0.3,0.2-0.5,0.3-0.8,0.4c-0.3,0.1-0.6,0.1-0.9,0.1c-0.4,0-0.8-0.1-1.1-0.2c-0.3-0.1-0.6-0.3-0.9-0.5c-0.2-0.2-0.4-0.5-0.6-0.8
	c-0.1-0.3-0.2-0.7-0.2-1c0-0.4,0.1-0.7,0.2-1c0.1-0.3,0.3-0.6,0.5-0.8s0.5-0.4,0.9-0.5c0.3-0.1,0.7-0.2,1.1-0.2c0.2,0,0.4,0,0.6,0.1
	c0.2,0,0.4,0.1,0.5,0.1c0.2,0.1,0.3,0.1,0.4,0.2c0.1,0.1,0.2,0.2,0.3,0.3l-0.3,0.5c-0.1,0.1-0.1,0.1-0.2,0.1s-0.2,0-0.3-0.1
	c-0.1-0.1-0.2-0.1-0.3-0.1c-0.1,0-0.2-0.1-0.3-0.1c-0.1,0-0.2,0-0.3-0.1c-0.1,0-0.2,0-0.3,0c-0.2,0-0.4,0-0.6,0.1s-0.3,0.2-0.5,0.3
	c-0.1,0.1-0.2,0.3-0.3,0.5s-0.1,0.4-0.1,0.7s0,0.5,0.1,0.7s0.2,0.4,0.3,0.5s0.3,0.3,0.5,0.3c0.2,0.1,0.4,0.1,0.6,0.1
	c0.1,0,0.3,0,0.4,0s0.2-0.1,0.3-0.1v-0.8h-0.5c-0.1,0-0.1,0-0.2-0.1c0,0-0.1-0.1-0.1-0.2v-0.6H17.3z M21,201.5h-1.2v-5.1H21V201.5z"
	/>
<path class="st0" d="M0.5,206.5c0-1.1,0.9-2,2-2h23c1.1,0,2,0.9,2,2v46c0,1.1-0.9,2-2,2h-23c-1.1,0-2-0.9-2-2V206.5z"/>
<path class="st1" d="M13,209.9c0,0.4-0.1,0.7-0.2,1c-0.1,0.3-0.3,0.6-0.5,0.8s-0.5,0.4-0.8,0.5s-0.7,0.2-1.1,0.2
	c-0.4,0-0.8-0.1-1.1-0.2c-0.3-0.1-0.6-0.3-0.8-0.5s-0.4-0.5-0.5-0.8c-0.1-0.3-0.2-0.7-0.2-1c0-0.4,0.1-0.7,0.2-1
	c0.1-0.3,0.3-0.6,0.5-0.8s0.5-0.4,0.8-0.5s0.7-0.2,1.1-0.2c0.4,0,0.8,0.1,1.1,0.2c0.3,0.1,0.6,0.3,0.8,0.6s0.4,0.5,0.5,0.8
	C13,209.2,13,209.6,13,209.9z M11.8,209.9c0-0.3,0-0.5-0.1-0.7s-0.2-0.4-0.3-0.5s-0.3-0.2-0.4-0.3c-0.2-0.1-0.4-0.1-0.6-0.1
	c-0.2,0-0.4,0-0.6,0.1c-0.2,0.1-0.3,0.2-0.5,0.3c-0.1,0.1-0.2,0.3-0.3,0.5c0,0.3,0,0.5,0,0.7c0,0.3,0,0.5,0.1,0.7s0.2,0.4,0.3,0.5
	s0.3,0.2,0.5,0.3s0.4,0.1,0.6,0.1c0.2,0,0.4,0,0.6-0.1c0.2-0.1,0.3-0.2,0.4-0.3c0.1-0.1,0.2-0.3,0.3-0.5
	C11.8,210.4,11.8,210.2,11.8,209.9z M14.8,208.3v1.3h1.7v0.9h-1.7v2h-1.2v-5.1h3.3v0.9L14.8,208.3L14.8,208.3z M18.7,208.3v1.3h1.7
	v0.9h-1.7v2h-1.2v-5.1h3.3v0.9L18.7,208.3L18.7,208.3z"/>
<path class="st1" d="M8.8,216.4c0,0.1-0.1,0.1-0.1,0.1H8.6c-0.1,0-0.1,0-0.2,0c-0.1,0-0.1-0.1-0.2-0.1c-0.1,0-0.2-0.1-0.3-0.1
	c-0.1,0-0.2-0.1-0.3-0.1c-0.2,0-0.4,0-0.5,0.1s-0.2,0.2-0.2,0.4c0,0.1,0,0.2,0.1,0.3s0.2,0.1,0.3,0.2c0.1,0,0.2,0.1,0.4,0.1
	c0.1,0,0.3,0.1,0.4,0.1c0.1,0,0.3,0.1,0.4,0.2c0.1,0.1,0.3,0.2,0.4,0.3c0.1,0.1,0.2,0.2,0.3,0.4c0.1,0.1,0.1,0.3,0.1,0.5
	s0,0.5-0.1,0.7S9,219.9,8.8,220c-0.2,0.2-0.3,0.3-0.6,0.4c-0.2,0.1-0.5,0.1-0.8,0.1c-0.2,0-0.3,0-0.5,0s-0.3-0.1-0.5-0.1
	c-0.2-0.1-0.3-0.1-0.4-0.2c-0.1-0.1-0.3-0.2-0.4-0.3l0.4-0.6l0.1-0.1c0,0,0.1,0,0.2,0s0.1,0,0.2,0.1c0.1,0,0.2,0.1,0.2,0.1
	c0.1,0.1,0.2,0.1,0.3,0.1c0.1,0,0.3,0.1,0.4,0.1c0.2,0,0.4,0,0.5-0.1s0.2-0.2,0.2-0.5c0-0.1,0-0.2-0.1-0.3s-0.2-0.1-0.3-0.2
	c-0.1,0-0.2-0.1-0.4-0.1c-0.1,0-0.3-0.1-0.4-0.1s-0.3-0.1-0.4-0.2c-0.1-0.1-0.3-0.2-0.4-0.3s-0.2-0.2-0.3-0.4
	c-0.1-0.2-0.1-0.4-0.1-0.6c0-0.2,0-0.4,0.1-0.6c0.1-0.2,0.2-0.3,0.3-0.5c0.1-0.1,0.3-0.3,0.5-0.3c0.2-0.1,0.5-0.1,0.7-0.1
	s0.3,0,0.5,0c0.1,0,0.3,0.1,0.4,0.1s0.3,0.1,0.4,0.2c0.1,0.1,0.2,0.1,0.3,0.2L8.8,216.4z M14.8,217.9c0,0.4-0.1,0.7-0.2,1
	c-0.1,0.3-0.3,0.6-0.5,0.8s-0.5,0.4-0.8,0.5s-0.7,0.2-1.1,0.2c-0.4,0-0.8-0.1-1.1-0.2c-0.3-0.1-0.6-0.3-0.8-0.5s-0.4-0.5-0.5-0.8
	s-0.2-0.7-0.2-1c0-0.4,0.1-0.7,0.2-1c0.1-0.3,0.3-0.6,0.5-0.8s0.5-0.4,0.8-0.5s0.7-0.2,1.1-0.2c0.4,0,0.8,0.1,1.1,0.2
	c0.3,0.1,0.6,0.3,0.8,0.6s0.4,0.5,0.5,0.8C14.7,217.2,14.8,217.6,14.8,217.9z M13.6,217.9c0-0.3,0-0.5-0.1-0.7s-0.2-0.4-0.3-0.5
	s-0.3-0.2-0.4-0.3c-0.2-0.1-0.4-0.1-0.6-0.1c-0.2,0-0.4,0-0.6,0.1c-0.2,0.1-0.3,0.2-0.5,0.3c-0.1,0.1-0.2,0.3-0.3,0.5
	s-0.1,0.4-0.1,0.7s0,0.5,0.1,0.7s0.2,0.4,0.3,0.5s0.3,0.2,0.5,0.3s0.4,0.1,0.6,0.1c0.2,0,0.4,0,0.6-0.1c0.2-0.1,0.3-0.2,0.4-0.3
	c0.1-0.1,0.2-0.3,0.3-0.5C13.5,218.4,13.6,218.2,13.6,217.9z M16.6,216.3v1.3h1.7v0.9h-1.7v2h-1.2v-5.1h3.3v0.9L16.6,216.3
	L16.6,216.3z M22.9,216.3h-1.4v4.2h-1.2v-4.2h-1.4v-0.9H23v0.9H22.9z"/>
<path class="st1" d="M9.2,223.4v5.1H8v-2.2H5.9v2.2H4.7v-5.1h1.2v2.1H8v-2.1H9.2z M12.8,226.6l-0.5-1.4c0-0.1-0.1-0.2-0.1-0.3
	s-0.1-0.3-0.1-0.4c0,0.1-0.1,0.3-0.1,0.4c0,0.1-0.1,0.2-0.1,0.3l-0.5,1.4H12.8z M14.6,228.5h-0.9c-0.1,0-0.2,0-0.2-0.1
	c-0.1,0-0.1-0.1-0.1-0.2l-0.3-0.9h-1.9l-0.3,0.9c0,0.1-0.1,0.1-0.1,0.2c-0.1,0.1-0.1,0.1-0.2,0.1H9.5l2-5.1h1.2L14.6,228.5z
	 M16.6,225.8c0.2,0,0.3,0,0.4-0.1c0.1,0,0.2-0.1,0.3-0.2s0.1-0.2,0.2-0.3c0-0.1,0-0.2,0-0.3c0-0.2-0.1-0.4-0.2-0.5s-0.4-0.2-0.7-0.2
	h-0.5v1.5h0.5V225.8z M19.1,228.5H18c-0.2,0-0.3-0.1-0.4-0.2l-0.8-1.5c0-0.1-0.1-0.1-0.1-0.1s-0.1,0-0.2,0h-0.3v1.9H15v-5.1h1.7
	c0.4,0,0.7,0,0.9,0.1c0.3,0.1,0.5,0.2,0.6,0.3c0.2,0.1,0.3,0.3,0.4,0.5s0.1,0.4,0.1,0.6c0,0.2,0,0.3-0.1,0.5s-0.1,0.3-0.2,0.4
	c-0.1,0.1-0.2,0.2-0.3,0.3c-0.1,0.1-0.3,0.2-0.4,0.2c0.1,0,0.1,0.1,0.2,0.1c0.1,0.1,0.1,0.1,0.2,0.2L19.1,228.5z M24.1,225.9
	c0,0.4-0.1,0.7-0.2,1s-0.3,0.6-0.5,0.8s-0.5,0.4-0.8,0.5s-0.7,0.2-1.1,0.2h-2v-5.1h2c0.4,0,0.8,0.1,1.1,0.2c0.3,0.1,0.6,0.3,0.8,0.5
	c0.2,0.2,0.4,0.5,0.5,0.8C24,225.2,24.1,225.6,24.1,225.9z M22.8,225.9c0-0.3,0-0.5-0.1-0.7s-0.2-0.4-0.3-0.5
	c-0.1-0.1-0.3-0.3-0.4-0.3c-0.2-0.1-0.4-0.1-0.6-0.1h-0.8v3.3h0.8c0.2,0,0.4,0,0.6-0.1s0.3-0.2,0.4-0.3s0.2-0.3,0.3-0.5
	C22.8,226.4,22.8,226.2,22.8,225.9z"/>
<path class="st1" d="M7.5,234.6L7,233.2c0-0.1-0.1-0.2-0.1-0.3s-0.1-0.3-0.1-0.4c0,0.1-0.1,0.3-0.1,0.4c0,0.1-0.1,0.2-0.1,0.3
	l-0.5,1.4H7.5z M9.4,236.5H8.5c-0.1,0-0.2,0-0.2-0.1c-0.1,0-0.1-0.1-0.1-0.2l-0.3-0.9h-2l-0.3,0.9c0,0.1-0.1,0.1-0.1,0.2
	c-0.1,0.1-0.1,0.1-0.2,0.1h-1l2-5.1h1.2L9.4,236.5z M12.5,232.4c0,0.1-0.1,0.1-0.1,0.1h-0.1c-0.1,0-0.1,0-0.2,0
	c-0.1,0-0.1-0.1-0.2-0.1c-0.1,0-0.2-0.1-0.3-0.1s-0.2-0.1-0.3-0.1c-0.2,0-0.4,0-0.5,0.1s-0.2,0.2-0.2,0.4c0,0.1,0,0.2,0.1,0.3
	s0.2,0.1,0.3,0.2c0.1,0,0.2,0.1,0.4,0.1c0.1,0,0.3,0.1,0.4,0.1c0.1,0,0.3,0.1,0.4,0.2c0.1,0.1,0.3,0.2,0.4,0.3
	c0.1,0.1,0.2,0.2,0.3,0.4c0.1,0.1,0.1,0.3,0.1,0.5s0,0.5-0.1,0.7s-0.2,0.4-0.4,0.5c-0.2,0.2-0.3,0.3-0.6,0.4
	c-0.2,0.1-0.5,0.1-0.8,0.1c-0.2,0-0.3,0-0.5,0s-0.3-0.1-0.5-0.1c-0.2-0.1-0.3-0.1-0.4-0.2c-0.1-0.1-0.3-0.2-0.4-0.3l0.4-0.6l0.1-0.1
	c0,0,0.1,0,0.2,0c0.1,0,0.1,0,0.2,0.1c0.1,0,0.2,0.1,0.2,0.1c0.1,0.1,0.2,0.1,0.3,0.1s0.3,0.1,0.4,0.1c0.2,0,0.4,0,0.5-0.1
	s0.2-0.2,0.2-0.5c0-0.1,0-0.2-0.1-0.3s-0.2-0.1-0.3-0.2c-0.1,0-0.2-0.1-0.4-0.1c-0.1,0-0.3-0.1-0.4-0.1c-0.1,0-0.3-0.1-0.4-0.2
	c-0.1-0.1-0.3-0.2-0.4-0.3c-0.1-0.1-0.2-0.2-0.3-0.4s-0.1-0.4-0.1-0.6c0-0.2,0-0.4,0.1-0.6c0.1-0.2,0.2-0.3,0.3-0.5
	c0.1-0.1,0.3-0.3,0.5-0.3c0.2-0.1,0.5-0.1,0.7-0.1s0.3,0,0.5,0c0.1,0,0.3,0.1,0.4,0.1c0.1,0,0.3,0.1,0.4,0.2
	c0.1,0.1,0.2,0.1,0.3,0.2L12.5,232.4z M15.8,234.6v1.9h-1.2v-1.9l-1.8-3.2h1c0.1,0,0.2,0,0.2,0.1c0.1,0,0.1,0.1,0.2,0.2l0.7,1.5
	c0.1,0.1,0.1,0.2,0.2,0.3c0,0.1,0.1,0.2,0.1,0.3c0-0.1,0.1-0.2,0.1-0.3s0.1-0.2,0.2-0.3l0.7-1.5c0,0,0-0.1,0.1-0.1l0.1-0.1
	c0,0,0.1,0,0.1-0.1h0.1h1.1L15.8,234.6z M23.7,231.4v5.1h-1v-2.9c0-0.1,0-0.1,0-0.2c0-0.1,0-0.2,0-0.2l-1.4,2.6
	c0,0.1-0.1,0.1-0.2,0.2c-0.1,0-0.2,0.1-0.2,0.1h-0.2c-0.1,0-0.2,0-0.2-0.1c-0.1,0-0.1-0.1-0.2-0.2l-1.4-2.6c0,0.1,0,0.2,0,0.2
	c0,0.1,0,0.2,0,0.2v2.9h-1v-5.1h0.9c0.1,0,0.1,0,0.1,0H19c0,0,0.1,0,0.1,0.1l0.1,0.1l1.3,2.6c0,0.1,0.1,0.2,0.1,0.3s0.1,0.2,0.1,0.3
	c0-0.1,0.1-0.2,0.1-0.3s0.1-0.2,0.1-0.3l1.3-2.6c0,0,0-0.1,0.1-0.1c0,0,0.1,0,0.1-0.1h0.1h0.1H23.7z"/>
<path class="st1" d="M2.8,238h23c0.6,0,1,0.4,1,1v5c0,0.6-0.4,1-1,1h-23c-0.6,0-1-0.4-1-1v-5C1.8,238.4,2.2,238,2.8,238z"/>
<path class="st1" d="M2.8,238h23c0.6,0,1,0.4,1,1v5c0,0.6-0.4,1-1,1h-23c-0.6,0-1-0.4-1-1v-5C1.8,238.4,2.2,238,2.8,238z"/>
<path d="M10,240.4c0,0.1-0.1,0.1-0.1,0.1H9.8c-0.1,0-0.1,0-0.2,0c-0.1,0-0.1-0.1-0.2-0.1c-0.1,0-0.2-0.1-0.3-0.1s-0.2-0.1-0.3-0.1
	c-0.2,0-0.4,0-0.5,0.1s-0.2,0.2-0.2,0.4c0,0.1,0,0.2,0.1,0.3s0.2,0.1,0.3,0.2c0.1,0,0.2,0.1,0.4,0.1c0.1,0,0.3,0.1,0.4,0.1
	c0.1,0,0.3,0.1,0.4,0.2c0.1,0.1,0.3,0.2,0.4,0.3c0.1,0.1,0.2,0.2,0.3,0.4c0.1,0.1,0.1,0.3,0.1,0.5s0,0.5-0.1,0.7s-0.2,0.4-0.4,0.5
	c-0.2,0.2-0.3,0.3-0.6,0.4c-0.2,0.1-0.5,0.1-0.8,0.1c-0.2,0-0.3,0-0.5,0s-0.3-0.1-0.5-0.1c-0.2-0.1-0.3-0.1-0.4-0.2
	c-0.1-0.1-0.3-0.2-0.4-0.3l0.3-0.6l0.1-0.1c0,0,0.1,0,0.2,0s0.1,0,0.2,0.1c0.1,0,0.2,0.1,0.2,0.1c0.1,0.1,0.2,0.1,0.3,0.1
	c0.1,0,0.3,0.1,0.4,0.1c0.2,0,0.4,0,0.5-0.1s0.2-0.2,0.2-0.5c0-0.1,0-0.2-0.1-0.3s-0.2-0.1-0.3-0.2c-0.1,0-0.2-0.1-0.4-0.1
	c-0.1,0-0.3-0.1-0.4-0.1s-0.3-0.1-0.4-0.2c-0.1-0.1-0.3-0.2-0.4-0.3s-0.2-0.2-0.3-0.4c-0.1-0.2-0.1-0.4-0.1-0.6c0-0.2,0-0.4,0.1-0.6
	c0.1-0.2,0.2-0.3,0.3-0.5c0.1-0.1,0.3-0.3,0.5-0.3c0.2-0.1,0.5-0.1,0.7-0.1s0.3,0,0.5,0c0.1,0,0.3,0.1,0.4,0.1
	c0.1,0,0.3,0.1,0.4,0.2c0.1,0.1,0.2,0.1,0.3,0.2L10,240.4z M12.1,244.5h-1.2v-5.1h1.2V244.5z M17.4,239.4v5.1h-0.6
	c-0.1,0-0.2,0-0.2,0c-0.1,0-0.1-0.1-0.2-0.2l-2.4-3c0,0.1,0,0.2,0,0.3s0,0.2,0,0.2v2.7h-1v-5.1h0.6c0.1,0,0.1,0,0.1,0h0.1
	c0,0,0.1,0,0.1,0.1l0.1,0.1l2.4,3.1c0-0.1,0-0.2,0-0.3s0-0.2,0-0.3v-2.7L17.4,239.4L17.4,239.4z M19.5,240.3v1.2h1.6v0.9h-1.6v1.2
	h2.1v0.9h-3.3v-5.1h3.3v0.9L19.5,240.3L19.5,240.3z"/>
<path class="st1" d="M12.2,249.9c0,0.4-0.1,0.7-0.2,1c-0.1,0.3-0.3,0.6-0.5,0.8s-0.5,0.4-0.8,0.5s-0.7,0.2-1.1,0.2h-2v-5.1h2
	c0.4,0,0.8,0.1,1.1,0.2c0.3,0.1,0.6,0.3,0.8,0.5s0.4,0.5,0.5,0.8C12.1,249.2,12.2,249.6,12.2,249.9z M11,249.9c0-0.3,0-0.5-0.1-0.7
	s-0.2-0.4-0.3-0.5s-0.3-0.3-0.4-0.3c-0.2-0.1-0.4-0.1-0.6-0.1H8.7v3.3h0.8c0.2,0,0.4,0,0.6-0.1c0.2-0.1,0.3-0.2,0.4-0.3
	c0.1-0.1,0.2-0.3,0.3-0.5C10.9,250.4,11,250.2,11,249.9z M13.9,252.5h-1.2v-5.1h1.2V252.5z M17.3,249.9h1.8v2.2
	c-0.3,0.2-0.5,0.3-0.8,0.4c-0.3,0.1-0.6,0.1-0.9,0.1c-0.4,0-0.8-0.1-1.1-0.2c-0.3-0.1-0.6-0.3-0.9-0.5c-0.2-0.2-0.4-0.5-0.6-0.8
	c-0.1-0.3-0.2-0.7-0.2-1c0-0.4,0.1-0.7,0.2-1c0.1-0.3,0.3-0.6,0.5-0.8s0.5-0.4,0.9-0.5c0.3-0.1,0.7-0.2,1.1-0.2c0.2,0,0.4,0,0.6,0.1
	c0.2,0,0.4,0.1,0.5,0.1c0.2,0.1,0.3,0.1,0.4,0.2c0.1,0.1,0.2,0.2,0.3,0.3l-0.3,0.5c-0.1,0.1-0.1,0.1-0.2,0.1s-0.2,0-0.3-0.1
	c-0.1-0.1-0.2-0.1-0.3-0.1c-0.1,0-0.2-0.1-0.3-0.1c-0.1,0-0.2,0-0.3-0.1c-0.1,0-0.2,0-0.3,0c-0.2,0-0.4,0-0.6,0.1s-0.3,0.2-0.5,0.3
	c-0.1,0.1-0.2,0.3-0.3,0.5s-0.1,0.4-0.1,0.7s0,0.5,0.1,0.7s0.2,0.4,0.3,0.5s0.3,0.3,0.5,0.3c0.2,0.1,0.4,0.1,0.6,0.1
	c0.1,0,0.3,0,0.4,0s0.2-0.1,0.3-0.1v-0.8h-0.5c-0.1,0-0.1,0-0.2-0.1c0,0-0.1-0.1-0.1-0.2v-0.6H17.3z M21,252.5h-1.2v-5.1H21V252.5z"
	/>
<path class="st0" d="M0.5,257.5c0-1.1,0.9-2,2-2h23c1.1,0,2,0.9,2,2v46c0,1.1-0.9,2-2,2h-23c-1.1,0-2-0.9-2-2V257.5z"/>
<path class="st1" d="M13,260.9c0,0.4-0.1,0.7-0.2,1c-0.1,0.3-0.3,0.6-0.5,0.8c-0.2,0.2-0.5,0.4-0.8,0.5s-0.7,0.2-1.1,0.2
	c-0.4,0-0.8-0.1-1.1-0.2s-0.6-0.3-0.8-0.5s-0.4-0.5-0.5-0.8c-0.1-0.3-0.2-0.7-0.2-1c0-0.4,0.1-0.7,0.2-1c0.1-0.3,0.3-0.6,0.5-0.8
	c0.2-0.2,0.5-0.4,0.8-0.5s0.7-0.2,1.1-0.2c0.4,0,0.8,0.1,1.1,0.2s0.6,0.3,0.8,0.5s0.4,0.5,0.5,0.8C13,260.2,13,260.6,13,260.9z
	 M11.8,260.9c0-0.3,0-0.5-0.1-0.7s-0.2-0.4-0.3-0.5s-0.3-0.2-0.4-0.3c-0.2-0.1-0.4-0.1-0.6-0.1c-0.2,0-0.4,0-0.6,0.1
	c-0.2,0.1-0.3,0.2-0.5,0.3c-0.1,0.1-0.2,0.3-0.3,0.5c0,0.3,0,0.5,0,0.7c0,0.3,0,0.5,0.1,0.7s0.2,0.4,0.3,0.5s0.3,0.2,0.5,0.3
	c0.2,0.1,0.4,0.1,0.6,0.1c0.2,0,0.4,0,0.6-0.1c0.2-0.1,0.3-0.2,0.4-0.3c0.1-0.1,0.2-0.3,0.3-0.5C11.8,261.4,11.8,261.2,11.8,260.9z
	 M14.8,259.3v1.3h1.7v0.9h-1.7v2h-1.2v-5.1h3.3v0.9L14.8,259.3L14.8,259.3z M18.7,259.3v1.3h1.7v0.9h-1.7v2h-1.2v-5.1h3.3v0.9
	L18.7,259.3L18.7,259.3z"/>
<path class="st1" d="M8.8,267.4c0,0.1-0.1,0.1-0.1,0.1H8.6c-0.1,0-0.1,0-0.2,0c-0.1,0-0.1-0.1-0.2-0.1c-0.1,0-0.2-0.1-0.3-0.1
	c-0.1,0-0.2-0.1-0.3-0.1c-0.2,0-0.4,0-0.5,0.1s-0.2,0.2-0.2,0.4c0,0.1,0,0.2,0.1,0.3c0.1,0.1,0.2,0.1,0.3,0.2c0.1,0,0.2,0.1,0.4,0.1
	c0.1,0,0.3,0.1,0.4,0.1c0.1,0,0.3,0.1,0.4,0.2c0.1,0.1,0.3,0.2,0.4,0.3c0.1,0.1,0.2,0.2,0.3,0.4c0.1,0.1,0.1,0.3,0.1,0.5
	s0,0.5-0.1,0.7S9,270.9,8.8,271c-0.2,0.2-0.3,0.3-0.6,0.4c-0.2,0.1-0.5,0.1-0.8,0.1c-0.2,0-0.3,0-0.5,0s-0.3-0.1-0.5-0.1
	c-0.2-0.1-0.3-0.1-0.4-0.2s-0.3-0.2-0.4-0.3l0.4-0.6l0.1-0.1c0,0,0.1,0,0.2,0s0.1,0,0.2,0.1c0.1,0,0.2,0.1,0.2,0.1
	c0.1,0.1,0.2,0.1,0.3,0.1c0.1,0,0.3,0.1,0.4,0.1c0.2,0,0.4,0,0.5-0.1s0.2-0.2,0.2-0.5c0-0.1,0-0.2-0.1-0.3c-0.1-0.1-0.2-0.1-0.3-0.2
	c-0.1,0-0.2-0.1-0.4-0.1c-0.1,0-0.3-0.1-0.4-0.1s-0.3-0.1-0.4-0.2s-0.3-0.2-0.4-0.3c-0.1-0.1-0.2-0.2-0.3-0.4
	c-0.1-0.2-0.1-0.4-0.1-0.6s0-0.4,0.1-0.6s0.2-0.3,0.3-0.5c0.1-0.1,0.3-0.3,0.5-0.3c0.2-0.1,0.5-0.1,0.7-0.1s0.3,0,0.5,0
	c0.1,0,0.3,0.1,0.4,0.1s0.3,0.1,0.4,0.2c0.1,0.1,0.2,0.1,0.3,0.2L8.8,267.4z M14.8,268.9c0,0.4-0.1,0.7-0.2,1
	c-0.1,0.3-0.3,0.6-0.5,0.8c-0.2,0.2-0.5,0.4-0.8,0.5s-0.7,0.2-1.1,0.2c-0.4,0-0.8-0.1-1.1-0.2s-0.6-0.3-0.8-0.5s-0.4-0.5-0.5-0.8
	s-0.2-0.7-0.2-1c0-0.4,0.1-0.7,0.2-1c0.1-0.3,0.3-0.6,0.5-0.8c0.2-0.2,0.5-0.4,0.8-0.5s0.7-0.2,1.1-0.2c0.4,0,0.8,0.1,1.1,0.2
	s0.6,0.3,0.8,0.5s0.4,0.5,0.5,0.8C14.7,268.2,14.8,268.6,14.8,268.9z M13.6,268.9c0-0.3,0-0.5-0.1-0.7s-0.2-0.4-0.3-0.5
	s-0.3-0.2-0.4-0.3c-0.2-0.1-0.4-0.1-0.6-0.1c-0.2,0-0.4,0-0.6,0.1c-0.2,0.1-0.3,0.2-0.5,0.3c-0.1,0.1-0.2,0.3-0.3,0.5
	s-0.1,0.4-0.1,0.7c0,0.3,0,0.5,0.1,0.7s0.2,0.4,0.3,0.5s0.3,0.2,0.5,0.3c0.2,0.1,0.4,0.1,0.6,0.1c0.2,0,0.4,0,0.6-0.1
	c0.2-0.1,0.3-0.2,0.4-0.3c0.1-0.1,0.2-0.3,0.3-0.5C13.5,269.4,13.6,269.2,13.6,268.9z M16.6,267.3v1.3h1.7v0.9h-1.7v2h-1.2v-5.1h3.3
	v0.9L16.6,267.3L16.6,267.3z M22.9,267.3h-1.4v4.2h-1.2v-4.2h-1.4v-0.9H23v0.9H22.9z"/>
<path class="st1" d="M9.2,274.4v5.1H8v-2.2H5.9v2.2H4.7v-5.1h1.2v2.1H8v-2.1H9.2z M12.8,277.5l-0.5-1.4c0-0.1-0.1-0.2-0.1-0.3
	c0-0.1-0.1-0.3-0.1-0.4c0,0.1-0.1,0.3-0.1,0.4s-0.1,0.2-0.1,0.3l-0.5,1.4H12.8z M14.6,279.5h-0.9c-0.1,0-0.2,0-0.2-0.1
	c-0.1,0-0.1-0.1-0.1-0.2l-0.3-0.9h-1.9l-0.3,0.9c0,0.1-0.1,0.1-0.1,0.2c-0.1,0.1-0.1,0.1-0.2,0.1H9.5l2-5.1h1.2L14.6,279.5z
	 M16.6,276.8c0.2,0,0.3,0,0.4-0.1c0.1,0,0.2-0.1,0.3-0.2c0.1-0.1,0.1-0.2,0.2-0.3c0-0.1,0-0.2,0-0.3c0-0.2-0.1-0.4-0.2-0.5
	s-0.4-0.2-0.7-0.2h-0.5v1.5h0.5V276.8z M19.1,279.5H18c-0.2,0-0.3-0.1-0.4-0.2l-0.8-1.5c0-0.1-0.1-0.1-0.1-0.1s-0.1,0-0.2,0h-0.3
	v1.9H15v-5.1h1.7c0.4,0,0.7,0,0.9,0.1c0.3,0.1,0.5,0.2,0.6,0.3c0.2,0.1,0.3,0.3,0.4,0.5s0.1,0.4,0.1,0.6s0,0.3-0.1,0.5
	s-0.1,0.3-0.2,0.4s-0.2,0.2-0.3,0.3c-0.1,0.1-0.3,0.2-0.4,0.2c0.1,0,0.1,0.1,0.2,0.2s0.1,0.1,0.2,0.2L19.1,279.5z M24.1,276.9
	c0,0.4-0.1,0.7-0.2,1s-0.3,0.6-0.5,0.8c-0.2,0.2-0.5,0.4-0.8,0.5s-0.7,0.2-1.1,0.2h-2v-5.1h2c0.4,0,0.8,0.1,1.1,0.2
	c0.3,0.1,0.6,0.3,0.8,0.5c0.2,0.2,0.4,0.5,0.5,0.8C24,276.2,24.1,276.6,24.1,276.9z M22.8,276.9c0-0.3,0-0.5-0.1-0.7
	s-0.2-0.4-0.3-0.5c-0.1-0.1-0.3-0.3-0.4-0.3c-0.2-0.1-0.4-0.1-0.6-0.1h-0.8v3.3h0.8c0.2,0,0.4,0,0.6-0.1s0.3-0.2,0.4-0.3
	c0.1-0.1,0.2-0.3,0.3-0.5C22.8,277.4,22.8,277.2,22.8,276.9z"/>
<path class="st1" d="M7.5,285.5L7,284.1c0-0.1-0.1-0.2-0.1-0.3c0-0.1-0.1-0.3-0.1-0.4c0,0.1-0.1,0.3-0.1,0.4s-0.1,0.2-0.1,0.3
	l-0.5,1.4H7.5z M9.4,287.5H8.5c-0.1,0-0.2,0-0.2-0.1c-0.1,0-0.1-0.1-0.1-0.2l-0.3-0.9h-2l-0.3,0.9c0,0.1-0.1,0.1-0.1,0.2
	c-0.1,0.1-0.1,0.1-0.2,0.1h-1l2-5.1h1.2L9.4,287.5z M12.5,283.4c0,0.1-0.1,0.1-0.1,0.1h-0.1c-0.1,0-0.1,0-0.2,0
	c-0.1,0-0.1-0.1-0.2-0.1c-0.1,0-0.2-0.1-0.3-0.1s-0.2-0.1-0.3-0.1c-0.2,0-0.4,0-0.5,0.1s-0.2,0.2-0.2,0.4c0,0.1,0,0.2,0.1,0.3
	c0.1,0.1,0.2,0.1,0.3,0.2c0.1,0,0.2,0.1,0.4,0.1c0.1,0,0.3,0.1,0.4,0.1c0.1,0,0.3,0.1,0.4,0.2c0.1,0.1,0.3,0.2,0.4,0.3
	c0.1,0.1,0.2,0.2,0.3,0.4c0.1,0.1,0.1,0.3,0.1,0.5s0,0.5-0.1,0.7s-0.2,0.4-0.4,0.5c-0.2,0.2-0.3,0.3-0.6,0.4
	c-0.2,0.1-0.5,0.1-0.8,0.1c-0.2,0-0.3,0-0.5,0s-0.3-0.1-0.5-0.1c-0.2-0.1-0.3-0.1-0.4-0.2c-0.1-0.1-0.3-0.2-0.4-0.3l0.4-0.6l0.1-0.1
	c0,0,0.1,0,0.2,0c0.1,0,0.1,0,0.2,0.1c0.1,0,0.2,0.1,0.2,0.1c0.1,0.1,0.2,0.1,0.3,0.1s0.3,0.1,0.4,0.1c0.2,0,0.4,0,0.5-0.1
	s0.2-0.2,0.2-0.5c0-0.1,0-0.2-0.1-0.3c-0.1-0.1-0.2-0.1-0.3-0.2c-0.1,0-0.2-0.1-0.4-0.1c-0.1,0-0.3-0.1-0.4-0.1
	c-0.1,0-0.3-0.1-0.4-0.2c-0.1-0.1-0.3-0.2-0.4-0.3c-0.1-0.1-0.2-0.2-0.3-0.4c-0.1-0.2-0.1-0.4-0.1-0.6s0-0.4,0.1-0.6
	s0.2-0.3,0.3-0.5c0.1-0.1,0.3-0.3,0.5-0.3c0.2-0.1,0.5-0.1,0.7-0.1s0.3,0,0.5,0c0.1,0,0.3,0.1,0.4,0.1c0.1,0,0.3,0.1,0.4,0.2
	c0.1,0.1,0.2,0.1,0.3,0.2L12.5,283.4z M15.8,285.6v1.9h-1.2v-1.9l-1.8-3.2h1c0.1,0,0.2,0,0.2,0.1c0.1,0,0.1,0.1,0.2,0.2l0.7,1.5
	c0.1,0.1,0.1,0.2,0.2,0.3c0,0.1,0.1,0.2,0.1,0.3c0-0.1,0.1-0.2,0.1-0.3c0-0.1,0.1-0.2,0.2-0.3l0.7-1.5c0,0,0-0.1,0.1-0.1l0.1-0.1
	c0,0,0.1,0,0.1-0.1h0.1h1.1L15.8,285.6z M23.7,282.4v5.1h-1v-2.9c0-0.1,0-0.1,0-0.2s0-0.2,0-0.2l-1.4,2.6c0,0.1-0.1,0.1-0.2,0.2
	c-0.1,0-0.2,0.1-0.2,0.1h-0.2c-0.1,0-0.2,0-0.2-0.1c-0.1,0-0.1-0.1-0.2-0.2l-1.4-2.6c0,0.1,0,0.2,0,0.2c0,0.1,0,0.2,0,0.2v2.9h-1
	v-5.1h0.9c0.1,0,0.1,0,0.1,0H19c0,0,0.1,0,0.1,0.1l0.1,0.1l1.3,2.6c0,0.1,0.1,0.2,0.1,0.3c0,0.1,0.1,0.2,0.1,0.3
	c0-0.1,0.1-0.2,0.1-0.3c0-0.1,0.1-0.2,0.1-0.3l1.3-2.6c0,0,0-0.1,0.1-0.1c0,0,0.1,0,0.1-0.1h0.1h0.1H23.7z"/>
<path class="st1" d="M10,291.4c0,0.1-0.1,0.1-0.1,0.1H9.8c-0.1,0-0.1,0-0.2,0c-0.1,0-0.1-0.1-0.2-0.1c-0.1,0-0.2-0.1-0.3-0.1
	s-0.2-0.1-0.3-0.1c-0.2,0-0.4,0-0.5,0.1s-0.2,0.2-0.2,0.4c0,0.1,0,0.2,0.1,0.3c0.1,0.1,0.2,0.1,0.3,0.2c0.1,0,0.2,0.1,0.4,0.1
	c0.1,0,0.3,0.1,0.4,0.1c0.1,0,0.3,0.1,0.4,0.2c0.1,0.1,0.3,0.2,0.4,0.3c0.1,0.1,0.2,0.2,0.3,0.4c0.1,0.1,0.1,0.3,0.1,0.5
	s0,0.5-0.1,0.7s-0.2,0.4-0.4,0.5c-0.2,0.2-0.3,0.3-0.6,0.4c-0.2,0.1-0.5,0.1-0.8,0.1c-0.2,0-0.3,0-0.5,0s-0.3-0.1-0.5-0.1
	c-0.2-0.1-0.3-0.1-0.4-0.2s-0.3-0.2-0.4-0.3l0.3-0.6l0.1-0.1c0,0,0.1,0,0.2,0s0.1,0,0.2,0.1c0.1,0,0.2,0.1,0.2,0.1
	c0.1,0.1,0.2,0.1,0.3,0.1c0.1,0,0.3,0.1,0.4,0.1c0.2,0,0.4,0,0.5-0.1s0.2-0.2,0.2-0.5c0-0.1,0-0.2-0.1-0.3c-0.1-0.1-0.2-0.1-0.3-0.2
	c-0.1,0-0.2-0.1-0.4-0.1c-0.1,0-0.3-0.1-0.4-0.1s-0.3-0.1-0.4-0.2s-0.3-0.2-0.4-0.3c-0.1-0.1-0.2-0.2-0.3-0.4
	c-0.1-0.2-0.1-0.4-0.1-0.6s0-0.4,0.1-0.6s0.2-0.3,0.3-0.5c0.1-0.1,0.3-0.3,0.5-0.3c0.2-0.1,0.5-0.1,0.7-0.1s0.3,0,0.5,0
	c0.1,0,0.3,0.1,0.4,0.1c0.1,0,0.3,0.1,0.4,0.2c0.1,0.1,0.2,0.1,0.3,0.2L10,291.4z M12.1,295.5h-1.2v-5.1h1.2V295.5z M17.4,290.4v5.1
	h-0.6c-0.1,0-0.2,0-0.2,0c-0.1,0-0.1-0.1-0.2-0.2l-2.4-3c0,0.1,0,0.2,0,0.3c0,0.1,0,0.2,0,0.2v2.7h-1v-5.1h0.6c0.1,0,0.1,0,0.1,0
	h0.1c0,0,0.1,0,0.1,0.1l0.1,0.1l2.4,3.1c0-0.1,0-0.2,0-0.3c0-0.1,0-0.2,0-0.3v-2.7L17.4,290.4L17.4,290.4z M19.5,291.3v1.2h1.6v0.9
	h-1.6v1.2h2.1v0.9h-3.3v-5.1h3.3v0.9H19.5z"/>
<path class="st1" d="M2.8,297h23c0.6,0,1,0.4,1,1v5c0,0.6-0.4,1-1,1h-23c-0.6,0-1-0.4-1-1v-5C1.8,297.4,2.2,297,2.8,297z"/>
<path class="st1" d="M2.8,297h23c0.6,0,1,0.4,1,1v5c0,0.6-0.4,1-1,1h-23c-0.6,0-1-0.4-1-1v-5C1.8,297.4,2.2,297,2.8,297z"/>
<path d="M12.2,300.9c0,0.4-0.1,0.7-0.2,1c-0.1,0.3-0.3,0.6-0.5,0.8c-0.2,0.2-0.5,0.4-0.8,0.5s-0.7,0.2-1.1,0.2h-2v-5.1h2
	c0.4,0,0.8,0.1,1.1,0.2s0.6,0.3,0.8,0.5s0.4,0.5,0.5,0.8C12.1,300.2,12.2,300.6,12.2,300.9z M11,300.9c0-0.3,0-0.5-0.1-0.7
	s-0.2-0.4-0.3-0.5s-0.3-0.3-0.4-0.3c-0.2-0.1-0.4-0.1-0.6-0.1H8.7v3.3h0.8c0.2,0,0.4,0,0.6-0.1c0.2-0.1,0.3-0.2,0.4-0.3
	c0.1-0.1,0.2-0.3,0.3-0.5C10.9,301.4,11,301.2,11,300.9z M13.9,303.5h-1.2v-5.1h1.2V303.5z M17.3,300.9h1.8v2.2
	c-0.3,0.2-0.5,0.3-0.8,0.4s-0.6,0.1-0.9,0.1c-0.4,0-0.8-0.1-1.1-0.2c-0.3-0.1-0.6-0.3-0.9-0.5c-0.2-0.2-0.4-0.5-0.6-0.8
	c-0.1-0.3-0.2-0.7-0.2-1c0-0.4,0.1-0.7,0.2-1c0.1-0.3,0.3-0.6,0.5-0.8c0.2-0.2,0.5-0.4,0.9-0.5c0.3-0.1,0.7-0.2,1.1-0.2
	c0.2,0,0.4,0,0.6,0.1c0.2,0,0.4,0.1,0.5,0.1c0.2,0.1,0.3,0.1,0.4,0.2s0.2,0.2,0.3,0.3l-0.3,0.5c-0.1,0.1-0.1,0.1-0.2,0.1
	s-0.2,0-0.3-0.1c-0.1-0.1-0.2-0.1-0.3-0.1c-0.1,0-0.2-0.1-0.3-0.1c-0.1,0-0.2,0-0.3-0.1c-0.1,0-0.2,0-0.3,0c-0.2,0-0.4,0-0.6,0.1
	s-0.3,0.2-0.5,0.3c-0.1,0.1-0.2,0.3-0.3,0.5s-0.1,0.4-0.1,0.7c0,0.3,0,0.5,0.1,0.7s0.2,0.4,0.3,0.5s0.3,0.3,0.5,0.3
	c0.2,0.1,0.4,0.1,0.6,0.1c0.1,0,0.3,0,0.4,0s0.2-0.1,0.3-0.1v-0.8h-0.5c-0.1,0-0.1,0-0.2-0.1s-0.1-0.1-0.1-0.2v-0.6H17.3z M21,303.5
	h-1.2v-5.1H21V303.5z"/>
</svg>
