<?xml version="1.0" encoding="utf-8"?>
<!-- Generator: Adobe Illustrator 23.0.0, SVG Export Plug-In . SVG Version: 6.00 Build 0)  -->
<svg version="1.1" id="Layer_1" xmlns="http://www.w3.org/2000/svg" xmlns:xlink="http://www.w3.org/1999/xlink" x="0px" y="0px"
	 viewBox="0 0 18 22" style="enable-background:new 0 0 18 22;" xml:space="preserve">
<style type="text/css">
	.st0{fill:#242424;}
	.st1{display:none;fill:none;stroke:#000000;}
	.st2{fill:#B4B4B4;}
	.st3{fill:#2F5DAA;}
	.st4{opacity:0.75;fill:#FFFFFF;}
</style>
<path class="st0" d="M2.5,1.1h13c0.6,0,1,0.5,1,1.1v6.6c0,0.6-0.4,1.1-1,1.1h-13c-0.6,0-1-0.5-1-1.1V2.2C1.5,1.6,1.9,1.1,2.5,1.1z"
	/>
<path class="st1" d="M2.5,1.5h13c0.6,0,1,0.4,1,1v6c0,0.6-0.4,1-1,1h-13c-0.6,0-1-0.4-1-1v-6C1.5,1.9,1.9,1.5,2.5,1.5z"/>
<path class="st2" d="M11.9,2.9V8h-1V5.1c0-0.1,0-0.1,0-0.2s0-0.2,0-0.2L9.5,7.2c0,0.1-0.1,0.1-0.2,0.2c-0.1,0-0.2,0.1-0.2,0.1H8.9
	c-0.1,0-0.2,0-0.2-0.1c-0.1,0-0.1-0.1-0.2-0.2L7.2,4.6c0,0.1,0,0.2,0,0.2c0,0.1,0,0.2,0,0.2v3h-1V2.9H7c0.1,0,0.1,0,0.1,0h0.1
	c0,0,0.1,0,0.1,0.1l0.1,0.1l1.3,2.6c0,0.1,0.1,0.2,0.1,0.3C8.9,6,9,6.1,9,6.2C9,6.1,9.1,6,9.1,5.9s0.1-0.2,0.1-0.3L10.5,3
	c0,0,0-0.1,0.1-0.1c0,0,0.1,0,0.1-0.1h0.1h0.1L11.9,2.9L11.9,2.9z"/>
<path class="st3" d="M2.5,12.3h13c0.6,0,1,0.5,1,1.1v6.3c0,0.6-0.4,1.1-1,1.1h-13c-0.6,0-1-0.5-1-1.1v-6.3
	C1.5,12.8,1.9,12.3,2.5,12.3z"/>
<path class="st1" d="M2.5,12.5h13c0.6,0,1,0.4,1,1v6c0,0.6-0.4,1-1,1h-13c-0.6,0-1-0.4-1-1v-6C1.5,12.9,1.9,12.5,2.5,12.5z"/>
<path class="st4" d="M11.9,13.9V19h-1v-2.9c0-0.1,0-0.1,0-0.2c0-0.1,0-0.2,0-0.2l-1.4,2.6c0,0.1-0.1,0.1-0.2,0.2
	c-0.1,0-0.2,0.1-0.2,0.1H8.9c-0.1,0-0.2,0-0.2-0.1c-0.1,0-0.1-0.1-0.2-0.2l-1.4-2.6c0,0.1,0,0.2,0,0.2c0,0.1,0,0.2,0,0.2V19h-1v-5.1
	H7c0.1,0,0.1,0,0.1,0h0.1c0,0,0.1,0,0.1,0.1l0.1,0.1l1.3,2.6c0,0.1,0.1,0.2,0.1,0.3C8.9,17,9,17.1,9,17.2c0-0.1,0.1-0.2,0.1-0.3
	c0-0.1,0.1-0.2,0.1-0.3l1.3-2.6c0,0,0-0.1,0.1-0.1c0,0,0.1,0,0.1-0.1h0.1h0.1L11.9,13.9L11.9,13.9z"/>
</svg>
