<?xml version="1.0" encoding="utf-8"?>
<!-- Generator: Adobe Illustrator 23.0.0, SVG Export Plug-In . SVG Version: 6.00 Build 0)  -->
<svg version="1.1" id="Layer_1" xmlns="http://www.w3.org/2000/svg" xmlns:xlink="http://www.w3.org/1999/xlink" x="0px" y="0px"
	 viewBox="0 0 40 120" style="enable-background:new 0 0 40 120;" xml:space="preserve">
<style type="text/css">
	.st0{clip-path:url(#SVGID_2_);}
	.st1{fill-rule:evenodd;clip-rule:evenodd;fill:#9CA6AD;}
	.st2{fill-rule:evenodd;clip-rule:evenodd;fill:#FFBA99;}
	.st3{fill-rule:evenodd;clip-rule:evenodd;fill:#FF4060;}
	.st4{fill-rule:evenodd;clip-rule:evenodd;fill:#FFDA80;}
	.st5{fill-rule:evenodd;clip-rule:evenodd;fill:#485259;}
	.st6{fill-rule:evenodd;clip-rule:evenodd;fill:#EBF7FF;}
	.st7{fill-rule:evenodd;clip-rule:evenodd;fill:#B9CEDB;}
	.st8{fill-rule:evenodd;clip-rule:evenodd;fill:#FF5773;}
	.st9{fill-rule:evenodd;clip-rule:evenodd;fill:#A3C2D9;}
	.st10{fill-rule:evenodd;clip-rule:evenodd;fill:#FFFFFF;}
	.st11{fill-rule:evenodd;clip-rule:evenodd;fill:#FFB357;}
</style>
<g>
	<defs>
		<rect id="SVGID_1_" width="40" height="120"/>
	</defs>
	<clipPath id="SVGID_2_">
		<use xlink:href="#SVGID_1_"  style="display:none;overflow:visible;"/>
	</clipPath>
	<g id="bmp00185" class="st0">
		<g id="Edit-Normal" transform="translate(0.99995047 0.9999763)">
			<path id="Shape" class="st1" d="M17.7,16.9c-0.3-1.1-0.9-3.1-1.2-3.8c-0.3-0.6-0.5-1.2-0.8-1.5c-0.3-0.3-0.8-0.3-1.1,0
				c0,0-1.3,0.9-1.7,1.4c-0.6,0.4-1.4,1.7-1.4,1.7c-0.3,0.3-0.3,0.8,0,1.1c0.3,0.3,0.9,0.5,1.5,0.8c0.8,0.3,2.8,0.9,3.8,1.2
				C17.1,17.8,17.8,17.1,17.7,16.9L17.7,16.9z"/>
			<path class="st1" d="M6.8,2.6c0.6,0.6,0.6,1.5,0,2.1L4.7,6.8c-0.6,0.6-1.5,0.6-2.1,0L0.4,4.7c-0.6-0.6-0.6-1.5,0-2.1l2.1-2.1
				c0.6-0.6,1.5-0.6,2.1,0L6.8,2.6L6.8,2.6z"/>
			<path class="st1" d="M15.8,11.5l-2.1,2.1l-2.1,2.1L3.6,7.8l4.2-4.2L15.8,11.5L15.8,11.5z"/>
			<path class="st1" d="M16.1,17.5c0,0,1.4,0.8,1.7,0.4c0.4-0.4-0.4-1.7-0.4-1.7S16.2,16.2,16.1,17.5L16.1,17.5z"/>
			<path class="st1" d="M1,5.2L5.2,1l2.6,2.6L3.6,7.8L1,5.2z"/>
			<path class="st1" d="M1.5,5.7l4.2-4.2L6.3,2L2,6.3L1.5,5.7z M2.6,6.8l4.2-4.2l0.5,0.5L3.1,7.3L2.6,6.8z"/>
		</g>
		<g id="Edit-Hover" transform="translate(21 1)">
			<path class="st2" d="M17.7,16.9c-0.3-1.1-0.9-3.1-1.2-3.8c-0.3-0.6-0.5-1.2-0.8-1.5c-0.3-0.3-0.8-0.3-1.1,0c0,0-1.3,0.9-1.7,1.4
				c-0.6,0.4-1.4,1.7-1.4,1.7c-0.3,0.3-0.3,0.8,0,1.1c0.3,0.3,0.9,0.5,1.5,0.8c0.8,0.3,2.8,0.9,3.8,1.2
				C17.1,17.8,17.8,17.1,17.7,16.9L17.7,16.9z"/>
			<path class="st3" d="M6.8,2.6c0.6,0.6,0.6,1.5,0,2.1L4.7,6.8c-0.6,0.6-1.5,0.6-2.1,0L0.4,4.7c-0.6-0.6-0.6-1.5,0-2.1l2.1-2.1
				c0.6-0.6,1.5-0.6,2.1,0L6.8,2.6L6.8,2.6z"/>
			<path class="st4" d="M15.8,11.5l-2.1,2.1l-2.1,2.1L3.6,7.8l4.2-4.2L15.8,11.5L15.8,11.5z"/>
			<path class="st5" d="M16.1,17.5c0,0,1.4,0.8,1.7,0.4c0.4-0.4-0.4-1.7-0.4-1.7S16.2,16.2,16.1,17.5L16.1,17.5z"/>
			<path class="st6" d="M1,5.2L5.2,1l2.6,2.6L3.6,7.8L1,5.2z"/>
			<path class="st7" d="M1.5,5.7l4.2-4.2L6.3,2L2,6.3L1.5,5.7z M2.6,6.8l4.2-4.2l0.5,0.5L3.1,7.3L2.6,6.8z"/>
		</g>
		<g id="Remove-Normal" transform="translate(1.0000252 21.050125)">
			<path class="st1" d="M10.9,9l6.7-6.7c0.5-0.5,0.5-1.4,0-1.9c-0.5-0.5-1.4-0.5-1.9,0L9,7.1L2.3,0.4c-0.5-0.5-1.4-0.5-1.9,0
				c-0.5,0.5-0.5,1.4,0,1.9L7.1,9l-6.7,6.7c-0.5,0.5-0.5,1.4,0,1.9C0.7,17.9,1,18,1.4,18c0.3,0,0.7-0.1,1-0.4L9,10.9l6.7,6.7
				c0.3,0.3,0.6,0.4,1,0.4c0.3,0,0.7-0.1,1-0.4c0.5-0.5,0.5-1.4,0-1.9L10.9,9L10.9,9z"/>
		</g>
		<g id="Remove-Hover" transform="translate(21 21)">
			<path class="st8" d="M10.9,9l6.7-6.7c0.5-0.5,0.5-1.4,0-1.9c-0.5-0.5-1.4-0.5-1.9,0L9,7.1L2.3,0.4c-0.5-0.5-1.4-0.5-1.9,0
				c-0.5,0.5-0.5,1.4,0,1.9L7.1,9l-6.7,6.7c-0.5,0.5-0.5,1.4,0,1.9C0.7,17.9,1,18,1.4,18c0.3,0,0.7-0.1,1-0.4L9,10.9l6.7,6.7
				c0.3,0.3,0.6,0.4,1,0.4c0.3,0,0.7-0.1,1-0.4c0.5-0.5,0.5-1.4,0-1.9L10.9,9L10.9,9z"/>
		</g>
		<g id="Mute-Normal" transform="translate(5 40.999992)">
			<path class="st1" d="M1,4.8c0,0-1,0-1,1.1v6.4c0,1.1,1,1.1,1,1.1h3l4,4.2c0,0,0.5,0.5,1,0.5h0.5c0,0,0.5,0,0.5-0.5V0.5
				c0,0,0-0.5-0.5-0.5H9C8.5,0,8,0.5,8,0.5L4,4.8H1L1,4.8z"/>
			<path class="st1" d="M4,13.2l4,4.2c0,0,0.5,0.5,1,0.5h0.5c0,0,0.5,0,0.5-0.5V0.5c0,0,0-0.5-0.5-0.5H9C8.5,0,8,0.5,8,0.5L4,4.8
				V13.2L4,13.2z"/>
		</g>
		<g id="Mute-Hover" transform="translate(25 40.999992)">
			<path class="st9" d="M1,4.8c0,0-1,0-1,1.1v6.4c0,1.1,1,1.1,1,1.1h3l4,4.2c0,0,0.5,0.5,1,0.5h0.5c0,0,0.5,0,0.5-0.5V0.5
				c0,0,0-0.5-0.5-0.5H9C8.5,0,8,0.5,8,0.5L4,4.8H1L1,4.8z"/>
			<path class="st10" d="M4,13.2l4,4.2c0,0,0.5,0.5,1,0.5h0.5c0,0,0.5,0,0.5-0.5V0.5c0,0,0-0.5-0.5-0.5H9C8.5,0,8,0.5,8,0.5L4,4.8
				V13.2L4,13.2z"/>
		</g>
		<g id="Unmute-Normal" transform="translate(2.015337 60.99997)">
			<path id="Shape-2" class="st1" d="M4,4.8c0,0-1,0-1,1.1v6.4c0,1.1,1,1.1,1,1.1h3l4,4.2c0,0,0.5,0.5,1,0.5h0.5c0,0,0.5,0,0.5-0.5
				V0.5c0,0,0-0.5-0.5-0.5H12c-0.5,0-1,0.5-1,0.5L7,4.8H4L4,4.8z"/>
			<path id="Shape-3" class="st1" d="M7,13.2l4,4.2c0,0,0.5,0.5,1,0.5h0.5c0,0,0.5,0,0.5-0.5V0.5c0,0,0-0.5-0.5-0.5H12
				c-0.5,0-1,0.5-1,0.5L7,4.8V13.2L7,13.2z"/>
			<path id="Shape-4" class="st8" d="M2.1,1.4c-0.5-0.5-1.2-0.5-1.7,0c-0.5,0.5-0.5,1.2,0,1.7l13.6,13.6c0.2,0.2,0.5,0.4,0.9,0.4
				s0.6-0.1,0.9-0.4c0.5-0.5,0.5-1.2,0-1.7L2.1,1.4z"/>
		</g>
		<g id="Unmute-Hover" transform="translate(22.00005 60.99997)">
			<path class="st9" d="M4,4.8c0,0-1,0-1,1.1v6.4c0,1.1,1,1.1,1,1.1h3l4,4.2c0,0,0.5,0.5,1,0.5h0.5c0,0,0.5,0,0.5-0.5V0.5
				c0,0,0-0.5-0.5-0.5H12c-0.5,0-1,0.5-1,0.5L7,4.8H4L4,4.8z"/>
			<path class="st10" d="M7,13.2l4,4.2c0,0,0.5,0.5,1,0.5h0.5c0,0,0.5,0,0.5-0.5V0.5c0,0,0-0.5-0.5-0.5H12c-0.5,0-1,0.5-1,0.5L7,4.8
				V13.2L7,13.2z"/>
			<path class="st8" d="M2.1,1.4c-0.5-0.5-1.2-0.5-1.7,0c-0.5,0.5-0.5,1.2,0,1.7l13.6,13.6c0.2,0.2,0.5,0.4,0.9,0.4s0.6-0.1,0.9-0.4
				c0.5-0.5,0.5-1.2,0-1.7L2.1,1.4z"/>
		</g>
		<g id="Help-Normal" transform="translate(5 81)">
			<path class="st1" d="M4.3,12.1c-0.8,0-1.4-0.7-1.4-1.5V8.7c0-0.8,0.6-1.5,1.4-1.5c0.3,0,2.9-0.5,2.9-2.4c0-1-1-1.9-2.4-1.9
				c-1.2,0-1.9,1-1.9,1.5c0,0.8-0.6,1.5-1.4,1.5C0.6,5.8,0,5.2,0,4.4C0,2,2.2,0,4.8,0C8.6,0,10,2.9,10,5.3c0,2-1.1,3.5-3.1,4.3
				C6.5,9.8,6.1,9.9,5.7,10v0.6C5.7,11.5,5.1,12.1,4.3,12.1L4.3,12.1z"/>
			<path id="Circle" class="st1" d="M2.9,14.5c0-0.8,0.6-1.5,1.4-1.5c0.8,0,1.4,0.7,1.4,1.5c0,0.8-0.6,1.5-1.4,1.5
				C3.5,16,2.9,15.3,2.9,14.5z"/>
		</g>
		<g id="Help-Hover" transform="translate(25 81)">
			<path class="st11" d="M4.3,12.1c-0.8,0-1.4-0.7-1.4-1.5V8.7c0-0.8,0.6-1.5,1.4-1.5c0.3,0,2.9-0.5,2.9-2.4c0-1-1-1.9-2.4-1.9
				c-1.2,0-1.9,1-1.9,1.5c0,0.8-0.6,1.5-1.4,1.5C0.6,5.8,0,5.2,0,4.4C0,2,2.2,0,4.8,0C8.6,0,10,2.9,10,5.3c0,2-1.1,3.5-3.1,4.3
				C6.5,9.8,6.1,9.9,5.7,10v0.6C5.7,11.5,5.1,12.1,4.3,12.1L4.3,12.1z"/>
			<path class="st11" d="M2.9,14.5c0-0.8,0.6-1.5,1.4-1.5c0.8,0,1.4,0.7,1.4,1.5c0,0.8-0.6,1.5-1.4,1.5C3.5,16,2.9,15.3,2.9,14.5z"
				/>
		</g>
	</g>
</g>
</svg>
