<?xml version="1.0" encoding="utf-8"?>
<!-- Generator: Adobe Illustrator 23.0.0, SVG Export Plug-In . SVG Version: 6.00 Build 0)  -->
<svg version="1.1" id="Layer_1" xmlns="http://www.w3.org/2000/svg" xmlns:xlink="http://www.w3.org/1999/xlink" x="0px" y="0px"
	 viewBox="0 0 51 28" style="enable-background:new 0 0 51 28;" xml:space="preserve">
<style type="text/css">
	.st0{opacity:0.66;enable-background:new    ;}
	.st1{opacity:0.66;fill:#FFFFFF;enable-background:new    ;}
	.st2{fill:#2B76BF;}
	.st3{fill:#FFFFFF;}
</style>
<path class="st0" d="M0.5,2.5c0-1.1,0.9-2,2-2h46c1.1,0,2,0.9,2,2v9c0,1.1-0.9,2-2,2h-46c-1.1,0-2-0.9-2-2V2.5z"/>
<path class="st1" d="M13.4,8.9c0.2,0,0.3,0,0.5-0.1c0.1-0.1,0.3-0.1,0.4-0.3c0.1-0.1,0.2-0.2,0.2-0.4c0.1-0.2,0.1-0.3,0.1-0.6V4.2
	H16v3.5c0,0.4-0.1,0.7-0.2,1c-0.1,0.3-0.3,0.6-0.5,0.8s-0.5,0.4-0.8,0.5s-0.7,0.2-1,0.2c-0.4,0-0.7-0.1-1-0.2
	c-0.3-0.1-0.6-0.3-0.8-0.5S11.3,9,11.2,8.7S11,8.1,11,7.7V4.2h1.4v3.4c0,0.2,0,0.4,0.1,0.6s0.1,0.3,0.2,0.4c0.1,0.1,0.2,0.2,0.4,0.3
	C13,8.9,13.2,8.9,13.4,8.9z M17.7,6.3c0.1-0.1,0.2-0.1,0.2-0.2s0.2-0.1,0.3-0.2c0.1,0,0.2-0.1,0.3-0.1c0.1,0,0.2,0,0.4,0
	c0.2,0,0.4,0,0.6,0.1s0.3,0.2,0.4,0.3c0.1,0.1,0.2,0.3,0.3,0.5c0.1,0.2,0.1,0.4,0.1,0.6V10h-1.2V7.4c0-0.2,0-0.4-0.1-0.5
	s-0.2-0.2-0.4-0.2c-0.1,0-0.3,0-0.4,0.1C18,6.9,17.9,6.9,17.8,7v3h-1.2V5.9h0.8c0.2,0,0.3,0.1,0.3,0.2L17.7,6.3z M22.2,5.9V10H21
	V5.9H22.2z M22.4,4.7c0,0.1,0,0.2-0.1,0.3c0,0.1-0.1,0.2-0.2,0.2c-0.1,0.1-0.2,0.1-0.2,0.2c-0.1,0-0.2,0.1-0.3,0.1
	c-0.1,0-0.2,0-0.3-0.1c-0.1,0-0.2-0.1-0.2-0.2C21,5.2,21,5.1,20.9,5c0-0.1-0.1-0.2-0.1-0.3c0-0.1,0-0.2,0.1-0.3
	c0-0.1,0.1-0.2,0.2-0.2c0.1-0.1,0.1-0.1,0.2-0.2c0.1,0,0.2,0,0.3,0s0.2,0,0.3,0.1c0.1,0,0.2,0.1,0.2,0.2c0.1,0.1,0.1,0.1,0.2,0.2
	C22.4,4.5,22.4,4.6,22.4,4.7z M24.2,8.9C24.3,9,24.4,9,24.5,9.1c0.1,0,0.2,0.1,0.3,0.1c0.1,0,0.2,0,0.3-0.1c0.1,0,0.2-0.1,0.2-0.2
	c0.1-0.1,0.1-0.2,0.2-0.4c0-0.2,0.1-0.4,0.1-0.6c0-0.2,0-0.4,0-0.6c0-0.1-0.1-0.3-0.1-0.4c-0.1-0.1-0.1-0.2-0.2-0.2S25.1,6.6,25,6.6
	c-0.2,0-0.3,0-0.4,0.1S24.4,6.9,24.3,7v1.9H24.2z M24.2,6.4c0.2-0.2,0.3-0.3,0.6-0.4c0.2-0.1,0.5-0.2,0.7-0.2s0.4,0,0.6,0.1
	s0.3,0.2,0.5,0.4c0.1,0.2,0.2,0.4,0.3,0.7c0,0.3,0.1,0.6,0.1,0.9c0,0.3,0,0.6-0.1,0.9s-0.2,0.5-0.4,0.7c-0.2,0.2-0.3,0.3-0.6,0.5
	c-0.2,0.1-0.5,0.2-0.7,0.2s-0.4,0-0.5-0.1s-0.3-0.1-0.4-0.2v1.6H23V5.9h0.8c0.2,0,0.3,0.1,0.3,0.2L24.2,6.4z M29.4,5.8
	c0.3,0,0.6,0,0.9,0.1s0.5,0.2,0.7,0.4c0.2,0.2,0.3,0.4,0.4,0.7c0.1,0.3,0.2,0.6,0.2,0.9c0,0.3-0.1,0.6-0.2,0.9S31.2,9.3,31,9.5
	c-0.2,0.2-0.4,0.3-0.7,0.4C30,10,29.8,10,29.4,10c-0.3,0-0.6,0-0.9-0.1S28,9.7,27.8,9.5s-0.3-0.4-0.4-0.7s-0.2-0.6-0.2-0.9
	c0-0.3,0.1-0.6,0.2-0.9s0.2-0.5,0.4-0.7C28,6.2,28.3,6,28.5,5.9C28.8,5.8,29.1,5.8,29.4,5.8z M29.4,9.1c0.3,0,0.5-0.1,0.6-0.3
	s0.2-0.5,0.2-0.9S30.1,7.2,30,7c-0.1-0.2-0.3-0.3-0.6-0.3c-0.3,0-0.5,0.1-0.6,0.3c-0.1,0.2-0.2,0.5-0.2,0.9s0.1,0.7,0.2,0.9
	S29.1,9.1,29.4,9.1z M33.2,4v6H32V4H33.2z M36.1,8.3c-0.2,0-0.5,0-0.6,0.1c-0.2,0-0.3,0.1-0.4,0.1c-0.1,0-0.2,0.1-0.2,0.2
	c0,0.1-0.1,0.1-0.1,0.2c0,0.1,0,0.2,0.1,0.3s0.2,0.1,0.3,0.1c0.2,0,0.3,0,0.4-0.1C35.9,9.1,36,9,36.1,8.9V8.3z M33.9,6.4
	c0.3-0.2,0.5-0.4,0.8-0.5s0.6-0.2,1-0.2c0.3,0,0.5,0,0.7,0.1s0.4,0.2,0.5,0.3c0.1,0.1,0.2,0.3,0.3,0.5s0.1,0.4,0.1,0.7V10h-0.6
	c-0.1,0-0.2,0-0.3,0s-0.1-0.1-0.1-0.2l-0.1-0.2c-0.1,0.1-0.2,0.2-0.3,0.2c-0.1,0.1-0.2,0.1-0.3,0.2c-0.1,0-0.2,0.1-0.3,0.1
	s-0.2,0-0.4,0s-0.4,0-0.5-0.1c-0.2-0.1-0.3-0.1-0.4-0.2c-0.1-0.1-0.2-0.2-0.2-0.4c-0.1-0.1-0.1-0.3-0.1-0.5c0-0.1,0-0.3,0.1-0.5
	C33.9,8.3,34,8.2,34.2,8c0.2-0.1,0.4-0.2,0.7-0.3s0.7-0.1,1.2-0.1V7.4c0-0.2-0.1-0.4-0.2-0.5c-0.1-0.1-0.2-0.2-0.4-0.2
	c-0.1,0-0.3,0-0.4,0c-0.1,0-0.2,0.1-0.3,0.1s-0.1,0.1-0.2,0.1c-0.1,0-0.2,0-0.2,0c-0.1,0-0.2,0-0.2-0.1c-0.1,0-0.1-0.1-0.1-0.2
	L33.9,6.4z M39.1,6.5c0.1-0.2,0.3-0.4,0.4-0.5c0.2-0.1,0.4-0.2,0.6-0.2c0.2,0,0.3,0,0.5,0.1l-0.1,0.9c0,0.1,0,0.1-0.1,0.1h-0.1
	c0,0,0,0-0.1,0h-0.1H40h-0.1c-0.2,0-0.3,0-0.4,0.1c-0.1,0.1-0.2,0.2-0.3,0.4V10H38V5.9h0.7c0.1,0,0.1,0,0.2,0c0,0,0.1,0,0.1,0.1
	c0-0.1,0,0,0,0v0.1L39.1,6.5z"/>
<path class="st2" d="M0.5,16.5c0-1.1,0.9-2,2-2h46c1.1,0,2,0.9,2,2v9c0,1.1-0.9,2-2,2h-46c-1.1,0-2-0.9-2-2V16.5z"/>
<path class="st2" d="M3.5,16.5h44c0.6,0,1,0.4,1,1v7c0,0.6-0.4,1-1,1h-44c-0.6,0-1-0.4-1-1v-7C2.5,16.9,2.9,16.5,3.5,16.5z"/>
<path class="st3" d="M13.4,22.9c0.2,0,0.3,0,0.5-0.1c0.1-0.1,0.3-0.1,0.4-0.3c0.1-0.1,0.2-0.2,0.2-0.4c0.1-0.2,0.1-0.3,0.1-0.6V18
	H16v3.5c0,0.4-0.1,0.7-0.2,1c-0.1,0.3-0.3,0.6-0.5,0.8c-0.2,0.2-0.5,0.4-0.8,0.5s-0.7,0.2-1,0.2c-0.4,0-0.7-0.1-1-0.2
	s-0.6-0.3-0.8-0.5s-0.4-0.5-0.5-0.8s-0.2-0.6-0.2-1V18h1.4v3.4c0,0.2,0,0.4,0.1,0.6s0.1,0.3,0.2,0.4c0.1,0.1,0.2,0.2,0.4,0.3
	C13,22.9,13.2,22.9,13.4,22.9z M17.7,20.3c0.1-0.1,0.2-0.1,0.2-0.2c0.1-0.1,0.2-0.1,0.3-0.2c0.1,0,0.2-0.1,0.3-0.1
	c0.1,0,0.2,0,0.4,0c0.2,0,0.4,0,0.6,0.1s0.3,0.2,0.4,0.3c0.1,0.1,0.2,0.3,0.3,0.5c0.1,0.2,0.1,0.4,0.1,0.6V24h-1.2v-2.6
	c0-0.2,0-0.4-0.1-0.5s-0.2-0.2-0.4-0.2c-0.1,0-0.3,0-0.4,0.1S18,20.9,17.9,21v3h-1.2v-4.1h0.8c0.2,0,0.3,0.1,0.3,0.2L17.7,20.3z
	 M22.2,19.9V24H21v-4.1H22.2z M22.4,18.7c0,0.1,0,0.2-0.1,0.3c0,0.1-0.1,0.2-0.2,0.2c-0.1,0.1-0.2,0.1-0.2,0.2
	c-0.1,0-0.2,0.1-0.3,0.1c-0.1,0-0.2,0-0.3-0.1c-0.1,0-0.2-0.1-0.2-0.2c-0.1,0-0.1-0.1-0.2-0.2c0-0.1-0.1-0.2-0.1-0.3
	c0-0.1,0-0.2,0.1-0.3c0-0.1,0.1-0.2,0.2-0.2c0.1-0.1,0.1-0.1,0.2-0.2s0.2-0.1,0.3-0.1c0.1,0,0.2,0,0.3,0.1c0.1,0,0.2,0.1,0.2,0.2
	s0.1,0.1,0.2,0.2C22.4,18.5,22.4,18.6,22.4,18.7z M24.2,22.9c0.1,0.1,0.2,0.2,0.3,0.2c0.1,0,0.2,0.1,0.3,0.1c0.1,0,0.2,0,0.3-0.1
	c0.1,0,0.2-0.1,0.2-0.2c0.1-0.1,0.1-0.2,0.2-0.4c0-0.2,0.1-0.4,0.1-0.6s0-0.4,0-0.6c0-0.1-0.1-0.3-0.1-0.4c-0.1-0.1-0.1-0.2-0.2-0.2
	s-0.2-0.1-0.3-0.1c-0.2,0-0.3,0-0.4,0.1s-0.2,0.2-0.3,0.3v1.9H24.2z M24.2,20.4c0.2-0.2,0.3-0.3,0.6-0.4c0.2-0.1,0.5-0.2,0.7-0.2
	s0.4,0,0.6,0.1s0.3,0.2,0.5,0.4c0.1,0.2,0.2,0.4,0.3,0.7c0.1,0.3,0.1,0.6,0.1,0.9s0,0.6-0.1,0.9s-0.2,0.5-0.4,0.7
	c-0.2,0.2-0.3,0.3-0.6,0.5c-0.2,0.1-0.5,0.2-0.7,0.2s-0.4,0-0.5-0.1s-0.3-0.1-0.4-0.2v1.6H23V20h0.8c0.2,0,0.3,0.1,0.3,0.2
	L24.2,20.4z M29.4,19.8c0.3,0,0.6,0,0.9,0.1s0.5,0.2,0.7,0.4c0.2,0.2,0.3,0.4,0.4,0.7c0.1,0.3,0.2,0.6,0.2,0.9s-0.1,0.6-0.2,0.9
	s-0.2,0.5-0.4,0.7c-0.2,0.2-0.4,0.3-0.7,0.4C30,24,29.8,24,29.4,24c-0.3,0-0.6,0-0.9-0.1s-0.5-0.2-0.7-0.4c-0.2-0.2-0.3-0.4-0.4-0.7
	c-0.1-0.3-0.2-0.6-0.2-0.9s0.1-0.6,0.2-0.9s0.2-0.5,0.4-0.7c0.2-0.2,0.4-0.3,0.7-0.4C28.8,19.8,29.1,19.8,29.4,19.8z M29.4,23.1
	c0.3,0,0.5-0.1,0.6-0.3c0.1-0.2,0.2-0.5,0.2-0.9S30.1,21.2,30,21s-0.3-0.3-0.6-0.3c-0.3,0-0.5,0.1-0.6,0.3c-0.1,0.2-0.2,0.5-0.2,0.9
	s0.1,0.7,0.2,0.9C28.9,23,29.1,23.1,29.4,23.1z M33.2,18v6H32v-6H33.2z M36.1,22.3c-0.2,0-0.5,0-0.6,0.1c-0.2,0-0.3,0.1-0.4,0.1
	c-0.1,0-0.2,0.1-0.2,0.2s-0.1,0.1-0.1,0.2s0,0.2,0.1,0.3c0.1,0.1,0.2,0.1,0.3,0.1c0.2,0,0.3,0,0.4-0.1c0.1-0.1,0.2-0.1,0.4-0.3
	L36.1,22.3L36.1,22.3z M33.9,20.4c0.3-0.2,0.5-0.4,0.8-0.5s0.6-0.2,1-0.2c0.3,0,0.5,0,0.7,0.1s0.4,0.2,0.5,0.3
	c0.1,0.1,0.2,0.3,0.3,0.5s0.1,0.4,0.1,0.7V24h-0.6c-0.1,0-0.2,0-0.3,0s-0.1-0.1-0.1-0.2l-0.1-0.2c-0.1,0.1-0.2,0.2-0.3,0.2
	c-0.1,0.1-0.2,0.1-0.3,0.2c-0.1,0-0.2,0.1-0.3,0.1s-0.2,0-0.4,0s-0.4,0-0.5-0.1c-0.2-0.1-0.3-0.1-0.4-0.2c-0.1-0.1-0.2-0.2-0.2-0.4
	c-0.1-0.1-0.1-0.3-0.1-0.5c0-0.1,0-0.3,0.1-0.5s0.2-0.3,0.4-0.4s0.4-0.2,0.7-0.3c0.3-0.1,0.7-0.1,1.2-0.1v-0.2
	c0-0.2-0.1-0.4-0.2-0.5c-0.1-0.1-0.2-0.2-0.4-0.2c-0.1,0-0.3,0-0.4,0c-0.1,0-0.2,0.1-0.3,0.1s-0.1,0.1-0.2,0.1c-0.1,0-0.2,0-0.2,0
	c-0.1,0-0.2,0-0.2-0.1c-0.1,0-0.1-0.1-0.1-0.2L33.9,20.4z M39.1,20.5c0.1-0.2,0.3-0.4,0.4-0.5c0.2-0.1,0.4-0.2,0.6-0.2
	c0.2,0,0.3,0,0.5,0.1l-0.1,0.9c0,0.1,0,0.1-0.1,0.1h-0.1c0,0,0,0-0.1,0h-0.1H40h-0.1c-0.2,0-0.3,0-0.4,0.1c-0.1,0.1-0.2,0.2-0.3,0.4
	V24H38v-4.1h0.7c0.1,0,0.1,0,0.2,0c0,0,0.1,0,0.1,0.1l0.1,0.1v0.1V20.5z"/>
</svg>
