<?xml version="1.0" encoding="utf-8"?>
<!-- Generator: Adobe Illustrator 23.0.0, SVG Export Plug-In . SVG Version: 6.00 Build 0)  -->
<svg version="1.1" id="Layer_1" xmlns="http://www.w3.org/2000/svg" xmlns:xlink="http://www.w3.org/1999/xlink" x="0px" y="0px"
	 viewBox="0 0 13 52" style="enable-background:new 0 0 13 52;" xml:space="preserve">
<style type="text/css">
	.st0{clip-path:url(#SVGID_2_);}
	.st1{fill-rule:evenodd;clip-rule:evenodd;fill-opacity:0;stroke:#999999;}
	.st2{fill-rule:evenodd;clip-rule:evenodd;fill:#999999;stroke:#999999;}
	.st3{fill-rule:evenodd;clip-rule:evenodd;fill:#DD2E44;stroke:#FF3377;}
	.st4{fill-rule:evenodd;clip-rule:evenodd;fill:#DD2E44;stroke:#FF9000;}
</style>
<g>
	<defs>
		<rect id="SVGID_1_" width="13" height="52"/>
	</defs>
	<clipPath id="SVGID_2_">
		<use xlink:href="#SVGID_1_"  style="overflow:visible;"/>
	</clipPath>
	<g id="bmp00186" class="st0">
		<path id="Shape" class="st1" d="M12.2,4.3c0-1.7-1.4-3.1-3.2-3.1C8,1.2,7,1.7,6.4,2.5C5.9,1.7,4.9,1.2,3.9,1.2
			c-1.8,0-3.2,1.4-3.2,3.1c0,0.2,0,0.5,0.1,0.7c0.4,2.7,3.5,5.6,5.7,6.4c2.2-0.8,5.2-3.6,5.7-6.4C12.2,4.8,12.2,4.6,12.2,4.3
			L12.2,4.3z"/>
		<path class="st2" d="M12.1,17.3c0-1.7-1.4-3.1-3.2-3.1c-1.1,0-2,0.5-2.6,1.3c-0.6-0.8-1.5-1.3-2.6-1.3c-1.8,0-3.2,1.4-3.2,3.1
			c0,0.2,0,0.5,0.1,0.7c0.4,2.7,3.5,5.6,5.7,6.4c2.2-0.8,5.2-3.6,5.7-6.4C12.1,17.8,12.1,17.6,12.1,17.3L12.1,17.3z"/>
		<path class="st3" d="M12.2,30.3c0-1.7-1.4-3.1-3.2-3.1c-1.1,0-2,0.5-2.6,1.3c-0.6-0.8-1.5-1.3-2.6-1.3c-1.8,0-3.2,1.4-3.2,3.1
			c0,0.2,0,0.5,0.1,0.7c0.4,2.7,3.5,5.6,5.7,6.4c2.2-0.8,5.2-3.6,5.7-6.4C12.2,30.8,12.2,30.6,12.2,30.3L12.2,30.3z"/>
		<path class="st4" d="M12.2,43.3c0-1.7-1.4-3.1-3.2-3.1c-1.1,0-2,0.5-2.6,1.3c-0.6-0.8-1.5-1.3-2.6-1.3c-1.8,0-3.2,1.4-3.2,3.1
			c0,0.2,0,0.5,0.1,0.7c0.4,2.7,3.5,5.6,5.7,6.4c2.2-0.8,5.2-3.6,5.7-6.4C12.2,43.8,12.2,43.6,12.2,43.3L12.2,43.3z"/>
	</g>
</g>
</svg>
