<?xml version="1.0" encoding="utf-8"?>
<!-- Generator: Adobe Illustrator 23.0.0, SVG Export Plug-In . SVG Version: 6.00 Build 0)  -->
<svg version="1.1" id="Layer_1" xmlns="http://www.w3.org/2000/svg" xmlns:xlink="http://www.w3.org/1999/xlink" x="0px" y="0px"
	 viewBox="0 0 31 24" style="enable-background:new 0 0 31 24;" xml:space="preserve">
<style type="text/css">
	.st0{opacity:0.5;}
	.st1{fill:#B4B4B4;}
	.st2{fill:#FF9300;}
	.st3{fill:none;stroke:#FF9300;}
</style>
<path class="st0" d="M0.5,2.5c0-1.1,0.9-2,2-2h26c1.1,0,2,0.9,2,2v7c0,1.1-0.9,2-2,2h-26c-1.1,0-2-0.9-2-2V2.5z"/>
<path class="st1" d="M14.1,3.2V9h-1.2V5.6c0-0.1,0-0.2,0-0.3c0-0.1,0-0.2,0-0.3l-1.5,3c0,0.1-0.1,0.2-0.2,0.2
	c-0.1,0-0.2,0.1-0.3,0.1h-0.2c-0.1,0-0.2,0-0.3-0.1c-0.1,0-0.1-0.1-0.2-0.2l-1.5-3c0,0.1,0,0.2,0,0.3c0,0.1,0,0.2,0,0.3V9H7.5V3.2h1
	c0.1,0,0.1,0,0.2,0c0,0,0.1,0,0.1,0c0,0,0.1,0,0.1,0.1c0,0,0.1,0.1,0.1,0.1l1.5,3c0.1,0.1,0.1,0.2,0.2,0.3c0.1,0.1,0.1,0.2,0.1,0.3
	c0-0.1,0.1-0.2,0.1-0.3C11,6.5,11,6.4,11.1,6.3l1.5-2.9c0-0.1,0.1-0.1,0.1-0.1c0,0,0.1-0.1,0.1-0.1c0,0,0.1,0,0.1,0c0,0,0.1,0,0.2,0
	H14.1z M17.1,6c0.4,0,0.6-0.1,0.8-0.3c0.2-0.2,0.2-0.4,0.2-0.7c0-0.1,0-0.3-0.1-0.4c0-0.1-0.1-0.2-0.2-0.3c-0.1-0.1-0.2-0.1-0.3-0.2
	c-0.1,0-0.3-0.1-0.4-0.1h-0.7V6H17.1z M17.1,3.2c0.4,0,0.8,0,1.1,0.1c0.3,0.1,0.5,0.2,0.7,0.4c0.2,0.2,0.3,0.4,0.4,0.6
	c0.1,0.2,0.1,0.5,0.1,0.8c0,0.3,0,0.6-0.1,0.8s-0.2,0.5-0.4,0.6c-0.2,0.2-0.4,0.3-0.7,0.4c-0.3,0.1-0.6,0.1-1,0.1h-0.7V9h-1.4V3.2
	H17.1z M21.4,4.2v1.4h1.8v1h-1.8V8h2.4v1H20V3.2h3.8v1H21.4z"/>
<path class="st2" d="M0.5,14.5c0-1.1,0.9-2,2-2h26c1.1,0,2,0.9,2,2v7c0,1.1-0.9,2-2,2h-26c-1.1,0-2-0.9-2-2V14.5z"/>
<path class="st2" d="M3.5,14.5h24c0.6,0,1,0.4,1,1v5c0,0.6-0.4,1-1,1h-24c-0.6,0-1-0.4-1-1v-5C2.5,14.9,2.9,14.5,3.5,14.5z"/>
<path class="st3" d="M3.5,14.5h24c0.6,0,1,0.4,1,1v5c0,0.6-0.4,1-1,1h-24c-0.6,0-1-0.4-1-1v-5C2.5,14.9,2.9,14.5,3.5,14.5z"/>
<path d="M14.1,15.2V21h-1.2v-3.4c0-0.1,0-0.2,0-0.3c0-0.1,0-0.2,0-0.3l-1.5,3c0,0.1-0.1,0.2-0.2,0.2c-0.1,0-0.2,0.1-0.3,0.1h-0.2
	c-0.1,0-0.2,0-0.3-0.1c-0.1,0-0.1-0.1-0.2-0.2l-1.5-3c0,0.1,0,0.2,0,0.3c0,0.1,0,0.2,0,0.3V21H7.5v-5.8h1c0.1,0,0.1,0,0.2,0
	c0,0,0.1,0,0.1,0c0,0,0.1,0,0.1,0.1c0,0,0.1,0.1,0.1,0.1l1.5,3c0.1,0.1,0.1,0.2,0.2,0.3c0.1,0.1,0.1,0.2,0.1,0.3
	c0-0.1,0.1-0.2,0.1-0.3c0.1-0.1,0.1-0.2,0.2-0.3l1.5-2.9c0-0.1,0.1-0.1,0.1-0.1c0,0,0.1-0.1,0.1-0.1c0,0,0.1,0,0.1,0
	c0,0,0.1,0,0.2,0H14.1z M17.1,18c0.4,0,0.6-0.1,0.8-0.3c0.2-0.2,0.2-0.4,0.2-0.7c0-0.1,0-0.3-0.1-0.4c0-0.1-0.1-0.2-0.2-0.3
	c-0.1-0.1-0.2-0.1-0.3-0.2c-0.1,0-0.3-0.1-0.4-0.1h-0.7V18H17.1z M17.1,15.2c0.4,0,0.8,0,1.1,0.1c0.3,0.1,0.5,0.2,0.7,0.4
	c0.2,0.2,0.3,0.4,0.4,0.6s0.1,0.5,0.1,0.8c0,0.3,0,0.6-0.1,0.8c-0.1,0.2-0.2,0.5-0.4,0.6c-0.2,0.2-0.4,0.3-0.7,0.4
	c-0.3,0.1-0.6,0.1-1,0.1h-0.7V21h-1.4v-5.8H17.1z M21.4,16.2v1.4h1.8v1h-1.8V20h2.4v1H20v-5.8h3.8v1H21.4z"/>
</svg>
