<?xml version="1.0" encoding="utf-8"?>
<!-- Generator: Adobe Illustrator 23.0.0, SVG Export Plug-In . SVG Version: 6.00 Build 0)  -->
<svg version="1.1" id="Layer_1" xmlns="http://www.w3.org/2000/svg" xmlns:xlink="http://www.w3.org/1999/xlink" x="0px" y="0px"
	 viewBox="0 0 11 22" style="enable-background:new 0 0 11 22;" xml:space="preserve">
<style type="text/css">
	.st0{fill:#FF9000;}
	.st1{fill:none;stroke:#FF9000;}
	.st2{fill:none;stroke:#000000;}
	.st3{opacity:0.5;}
	.st4{fill:none;stroke:#B4B4B4;}
</style>
<path class="st0" d="M0,13.2C0,12,1,11,2.2,11h6.6c1.2,0,2.2,1,2.2,2.2v6.6C11,21,10,22,8.8,22H2.2C1,22,0,21,0,19.8V13.2z"/>
<path class="st0" d="M3.5,13.5h4c0.6,0,1,0.4,1,1v4c0,0.6-0.4,1-1,1h-4c-0.6,0-1-0.4-1-1v-4C2.5,13.9,2.9,13.5,3.5,13.5z"/>
<path class="st1" d="M3.5,13.5h4c0.6,0,1,0.4,1,1v4c0,0.6-0.4,1-1,1h-4c-0.6,0-1-0.4-1-1v-4C2.5,13.9,2.9,13.5,3.5,13.5z"/>
<path class="st2" d="M2.5,15.7h2.8c0,0,0.3-1.1,0.9-1.2c0.6-0.1,1,0.8,1,0.8L8,19.5"/>
<path class="st3" d="M0,2.2C0,1,1,0,2.2,0h6.6C10,0,11,1,11,2.2v6.6C11,10,10,11,8.8,11H2.2C1,11,0,10,0,8.8V2.2z"/>
<path class="st4" d="M2.5,4.7h2.8c0,0,0.3-1.1,0.9-1.2c0.6-0.1,1,0.8,1,0.8L8,8.5"/>
</svg>
