<?xml version="1.0" encoding="utf-8"?>
<!-- Generator: Adobe Illustrator 23.0.0, SVG Export Plug-In . SVG Version: 6.00 Build 0)  -->
<svg version="1.1" id="Layer_1" xmlns="http://www.w3.org/2000/svg" xmlns:xlink="http://www.w3.org/1999/xlink" x="0px" y="0px"
	 viewBox="0 0 16 24" style="enable-background:new 0 0 16 24;" xml:space="preserve">
<style type="text/css">
	.st0{opacity:0.5;}
	.st1{fill:#B4B4B4;}
</style>
<path class="st0" d="M16,2.2C16,1,15,0,13.9,0H0v12h13.9C15,12,16,11,16,9.8V2.2z"/>
<path class="st1" d="M7.8,4c1.2,0,2.3,0.6,3,1.4L12,4.2V8H8l1.4-1.3C9,5.7,8,4.9,6.8,4.9C5.2,4.9,4,6.1,4,7.5C4,5.6,5.7,4,7.8,4z"/>
<path class="st0" d="M16,14.2c0-1.2-1-2.2-2.1-2.2H0v12h13.9c1.2,0,2.1-1,2.1-2.2V14.2z"/>
<path class="st1" d="M7.8,16c1.2,0,2.3,0.6,3,1.4l1.3-1.2V20H8l1.4-1.3c-0.4-1-1.4-1.8-2.6-1.8c-1.5,0-2.8,1.2-2.8,2.6
	C4,17.6,5.7,16,7.8,16z"/>
</svg>
