<?xml version="1.0" encoding="utf-8"?>
<!-- Generator: Adobe Illustrator 23.0.0, SVG Export Plug-In . SVG Version: 6.00 Build 0)  -->
<svg version="1.1" id="Layer_1" xmlns="http://www.w3.org/2000/svg" xmlns:xlink="http://www.w3.org/1999/xlink" x="0px" y="0px"
	 viewBox="0 0 28 24" style="enable-background:new 0 0 28 24;" xml:space="preserve">
<style type="text/css">
	.st0{fill:#FF9000;}
	.st1{fill:#EEEEEE;}
	.st2{opacity:0.2;fill:#EEEEEE;enable-background:new    ;}
	.st3{fill:#1F1F1F;}
</style>
<path class="st0" d="M9,17c3,0,5.5-2.5,5.5-5.5C14.5,8.5,12,6,9,6c-3,0-5.5,2.5-5.5,5.5C3.5,14.5,6,17,9,17z"/>
<path class="st1" d="M12,11.5c0,1.7-1.3,3-3,3c-1.7,0-3-1.3-3-3c0-1.7,1.3-3,3-3C10.7,8.5,12,9.8,12,11.5z"/>
<path class="st2" d="M10,11.3H8c-0.3,0-0.5,0.2-0.5,0.5s0.2,0.5,0.5,0.5h2c0.3,0,0.5-0.2,0.5-0.5S10.3,11.3,10,11.3z"/>
<path class="st3" d="M10,11H8c-0.3,0-0.5,0.2-0.5,0.5S7.7,12,8,12h2c0.3,0,0.5-0.2,0.5-0.5S10.3,11,10,11z"/>
</svg>
