<?xml version="1.0" encoding="utf-8"?>
<!-- Generator: Adobe Illustrator 23.0.0, SVG Export Plug-In . SVG Version: 6.00 Build 0)  -->
<svg version="1.1" id="Layer_1" xmlns="http://www.w3.org/2000/svg" xmlns:xlink="http://www.w3.org/1999/xlink" x="0px" y="0px"
	 viewBox="0 0 51 117" style="enable-background:new 0 0 51 117;" xml:space="preserve">
<style type="text/css">
	.st0{fill:#FF9000;}
	.st1{fill:none;stroke:#FF9000;}
</style>
<rect x="2.5" y="2" class="st0" width="46" height="10"/>
<path class="st0" d="M3.5,2h44c0.6,0,1,0.4,1,1v8c0,0.6-0.4,1-1,1h-44c-0.6,0-1-0.4-1-1V3C2.5,2.4,2.9,2,3.5,2z"/>
<path class="st1" d="M3.5,2h44c0.6,0,1,0.4,1,1v8c0,0.6-0.4,1-1,1h-44c-0.6,0-1-0.4-1-1V3C2.5,2.4,2.9,2,3.5,2z"/>
<path d="M13.8,5.7v1.5h2v1h-2v2.3h-1.4V4.7h3.8v1H13.8z M17.5,7c0.1-0.2,0.3-0.4,0.4-0.5c0.2-0.1,0.4-0.2,0.6-0.2s0.3,0,0.5,0.1
	l-0.1,0.9c0,0.1,0,0.1-0.1,0.1h-0.1c0,0,0,0-0.1,0h-0.1h-0.1h-0.1c-0.2,0-0.3,0-0.4,0.1s-0.2,0.2-0.3,0.4v2.5h-1.2v-4h0.7
	c0.1,0,0.1,0,0.2,0c0,0,0.1,0,0.1,0.1l0.1,0.1v0.1V7z M21.8,7.9c0-0.1,0-0.2,0-0.3c0-0.1-0.1-0.2-0.1-0.2c-0.1-0.1-0.1-0.1-0.2-0.2
	c-0.1,0-0.2-0.1-0.3-0.1c-0.2,0-0.4,0.1-0.6,0.2c-0.1,0.1-0.2,0.3-0.3,0.6H21.8z M20.3,8.6c0,0.3,0.1,0.6,0.3,0.8
	c0.2,0.2,0.4,0.2,0.7,0.2c0.1,0,0.3,0,0.4-0.1c0.1,0,0.2-0.1,0.3-0.1c0.1,0,0.2-0.1,0.2-0.1c0.1,0,0.1-0.1,0.2-0.1s0.2,0,0.2,0.1
	L23,9.7c-0.1,0.1-0.3,0.3-0.4,0.4c-0.1,0.1-0.3,0.2-0.5,0.2c-0.2,0.1-0.3,0.1-0.5,0.1s-0.3,0-0.4,0c-0.3,0-0.6,0-0.8-0.1
	c-0.3-0.1-0.5-0.2-0.7-0.4s-0.3-0.4-0.5-0.7C19.1,9,19,8.7,19,8.3c0-0.3,0-0.5,0.1-0.8c0.1-0.2,0.2-0.5,0.4-0.7
	c0.2-0.2,0.4-0.3,0.6-0.4c0.3-0.1,0.5-0.2,0.9-0.2c0.3,0,0.5,0,0.8,0.1c0.2,0.1,0.4,0.2,0.6,0.4c0.2,0.2,0.3,0.4,0.4,0.6
	s0.1,0.5,0.1,0.8c0,0.1,0,0.2,0,0.2c0,0.1,0,0.1,0,0.1l-0.1,0.1h-0.1L20.3,8.6L20.3,8.6z M26,7.9c0-0.1,0-0.2,0-0.3
	c0-0.1-0.1-0.2-0.1-0.2c-0.1-0.1-0.1-0.1-0.2-0.2c-0.1,0-0.2-0.1-0.3-0.1c-0.2,0-0.4,0.1-0.6,0.2c-0.1,0.1-0.2,0.3-0.3,0.6H26z
	 M24.5,8.6c0,0.3,0.1,0.6,0.3,0.8c0.2,0.2,0.4,0.2,0.7,0.2c0.1,0,0.3,0,0.4-0.1c0.1,0,0.2-0.1,0.3-0.1c0.1,0,0.2-0.1,0.2-0.1
	c0.1,0,0.1-0.1,0.2-0.1s0.2,0,0.2,0.1l0.4,0.4c-0.1,0.1-0.3,0.3-0.4,0.4c-0.1,0.1-0.3,0.2-0.5,0.2c-0.2,0.1-0.3,0.1-0.5,0.1
	s-0.3,0-0.4,0c-0.3,0-0.6,0-0.8-0.1c-0.3-0.1-0.5-0.2-0.7-0.4s-0.3-0.4-0.5-0.7c-0.1-0.3-0.2-0.6-0.2-1c0-0.3,0-0.5,0.1-0.8
	c0.1-0.2,0.2-0.5,0.4-0.7c0.2-0.2,0.4-0.3,0.6-0.4c0.3-0.1,0.5-0.2,0.9-0.2c0.3,0,0.5,0,0.8,0.1c0.2,0.1,0.4,0.2,0.6,0.4
	C26.8,7,26.9,7.2,27,7.4c0.1,0.2,0.1,0.5,0.1,0.8c0,0.1,0,0.2,0,0.2c0,0.1,0,0.1,0,0.1L27,8.6h-0.1H24.5z M28.8,7
	c0.1-0.2,0.3-0.4,0.4-0.5c0.2-0.1,0.4-0.2,0.6-0.2s0.3,0,0.5,0.1l-0.1,0.9c0,0.1,0,0.1-0.1,0.1H30c0,0,0,0-0.1,0h-0.1h-0.1h-0.1
	c-0.2,0-0.3,0-0.4,0.1C29,7.7,28.9,7.8,28.9,8v2.5h-1.2V6.4h0.7c0.1,0,0.1,0,0.2,0c0,0,0.1,0,0.1,0.1l0.1,0.1v0.1L28.8,7z M34.3,6.4
	v4.1h-0.8c-0.2,0-0.3-0.1-0.3-0.2l-0.1-0.2c-0.1,0.1-0.2,0.1-0.2,0.2c-0.1,0.1-0.2,0.1-0.3,0.2c-0.1,0-0.2,0.1-0.3,0.1s-0.2,0-0.4,0
	c-0.2,0-0.4,0-0.6-0.1s-0.3-0.2-0.4-0.3s-0.2-0.3-0.3-0.5c-0.1-0.2-0.1-0.4-0.1-0.6V6.4h1.2V9c0,0.2,0,0.4,0.1,0.5s0.2,0.2,0.4,0.2
	c0.1,0,0.3,0,0.4-0.1c0.1-0.1,0.2-0.1,0.3-0.2v-3C32.9,6.4,34.3,6.4,34.3,6.4z M36.1,6.8c0.1-0.1,0.2-0.1,0.2-0.2s0.2-0.1,0.3-0.2
	c0.1,0,0.2-0.1,0.3-0.1s0.2,0,0.4,0s0.4,0,0.6,0.1c0.2,0.1,0.3,0.2,0.4,0.3c0.1,0.1,0.2,0.3,0.3,0.5s0.1,0.4,0.1,0.6v2.6h-1.2V7.9
	c0-0.2,0-0.4-0.1-0.5S37.2,7.2,37,7.2c-0.1,0-0.3,0-0.4,0.1c-0.1,0.1-0.2,0.1-0.3,0.2v3H35V6.4h0.8c0.2,0,0.3,0.1,0.3,0.2V6.8z"/>
<rect x="2.5" y="53.5" class="st0" width="46" height="10"/>
<path class="st0" d="M3.5,53.5h44c0.6,0,1,0.4,1,1v8c0,0.6-0.4,1-1,1h-44c-0.6,0-1-0.4-1-1v-8C2.5,53.9,2.9,53.5,3.5,53.5z"/>
<path class="st1" d="M3.5,53.5h44c0.6,0,1,0.4,1,1v8c0,0.6-0.4,1-1,1h-44c-0.6,0-1-0.4-1-1v-8C2.5,53.9,2.9,53.5,3.5,53.5z"/>
<path d="M9,58.5h0.2c0.2,0,0.3-0.1,0.4-0.2l1.3-1.9c0.1-0.1,0.2-0.2,0.2-0.2c0.1,0,0.2-0.1,0.3-0.1h1.2L11,58.5
	c-0.1,0.2-0.3,0.3-0.4,0.4c0.1,0,0.2,0.1,0.3,0.2c0.1,0.1,0.2,0.2,0.2,0.3l1.8,2.7h-1.2c-0.1,0-0.1,0-0.2,0c-0.1,0-0.1,0-0.1,0
	s-0.1,0-0.1-0.1l-0.1-0.1l-1.3-2c0-0.1-0.1-0.1-0.2-0.2c-0.1,0-0.2,0-0.3,0H9V62H7.6v-5.8H9V58.5z M15.3,59.4c0-0.1,0-0.2,0-0.3
	s-0.1-0.2-0.1-0.2c-0.1-0.1-0.1-0.1-0.2-0.2c-0.1,0-0.2-0.1-0.3-0.1c-0.2,0-0.4,0.1-0.6,0.2c-0.1,0.1-0.2,0.3-0.3,0.6H15.3z
	 M13.7,60.1c0,0.3,0.1,0.6,0.3,0.8s0.4,0.2,0.7,0.2c0.1,0,0.3,0,0.4-0.1s0.2-0.1,0.3-0.1s0.2-0.1,0.2-0.1c0.1,0,0.1-0.1,0.2-0.1
	c0.1,0,0.2,0,0.2,0.1l0.4,0.4c-0.1,0.1-0.3,0.3-0.4,0.4c-0.1,0.1-0.3,0.2-0.5,0.2C15.4,62,15.2,62,15.1,62c-0.2,0-0.3,0-0.4,0
	c-0.3,0-0.6,0-0.8-0.1c-0.3-0.1-0.5-0.2-0.7-0.4s-0.3-0.4-0.5-0.7c-0.1-0.3-0.2-0.6-0.2-1c0-0.3,0-0.5,0.1-0.8
	c0.1-0.2,0.2-0.5,0.4-0.7s0.4-0.3,0.6-0.4c0.3-0.1,0.5-0.2,0.9-0.2c0.3,0,0.5,0,0.8,0.1c0.2,0.1,0.4,0.2,0.6,0.4s0.3,0.4,0.4,0.6
	c0.1,0.2,0.1,0.5,0.1,0.8c0,0.1,0,0.2,0,0.2c0,0.1,0,0.1,0,0.1L16.3,60h-0.1h-2.5V60.1z M20.7,57.9l-2.2,5.2c0,0.1-0.1,0.1-0.1,0.2
	c-0.1,0-0.1,0.1-0.3,0.1h-0.9l0.8-1.7l-1.7-3.8h1.1c0.1,0,0.2,0,0.2,0.1c0.1,0,0.1,0.1,0.1,0.2l0.7,1.8c0.1,0.2,0.1,0.3,0.2,0.5
	c0-0.1,0.1-0.2,0.1-0.3s0.1-0.2,0.1-0.3l0.6-1.8c0-0.1,0.1-0.1,0.1-0.2c0.1,0,0.1-0.1,0.2-0.1L20.7,57.9L20.7,57.9z M22.5,62.1
	c-0.2,0-0.4,0-0.5-0.1s-0.3-0.1-0.4-0.2c-0.1-0.1-0.2-0.2-0.2-0.4c-0.1-0.1-0.1-0.3-0.1-0.5v-2.1h-0.4c-0.1,0-0.1,0-0.2-0.1
	c0,0-0.1-0.1-0.1-0.2V58l0.7-0.1l0.2-1c0-0.1,0.1-0.2,0.3-0.2h0.6v1.2h1v0.8h-1v2.1c0,0.1,0,0.2,0.1,0.2c0,0.1,0.1,0.1,0.2,0.1h0.1
	h0.1c0,0,0,0,0.1,0c0,0,0,0,0.1,0h0.1c0,0,0,0,0.1,0.1l0.4,0.6c-0.2,0.1-0.3,0.2-0.5,0.3C22.9,62,22.7,62.1,22.5,62.1z M25.1,58.5
	c0.1-0.2,0.3-0.4,0.4-0.5c0.2-0.1,0.4-0.2,0.6-0.2s0.3,0,0.5,0.1l-0.1,0.9c0,0.1,0,0.1-0.1,0.1h-0.1c0,0,0,0-0.1,0s-0.1,0-0.1,0H26
	h-0.1c-0.2,0-0.3,0-0.4,0.1s-0.2,0.2-0.3,0.4V62H24v-4.1h0.7c0.1,0,0.1,0,0.2,0c0,0,0.1,0,0.1,0.1l0.1,0.1v0.1V58.5z M28.1,57.9V62
	h-1.2v-4.1H28.1z M28.2,56.7c0,0.1,0,0.2-0.1,0.3c0,0.1-0.1,0.2-0.2,0.2c-0.1,0.1-0.2,0.1-0.2,0.2c-0.1,0-0.2,0.1-0.3,0.1
	c-0.1,0-0.2,0-0.3-0.1c-0.1,0-0.2-0.1-0.2-0.2c-0.1-0.1-0.1-0.1-0.2-0.2c0-0.1-0.1-0.2-0.1-0.3s0-0.2,0.1-0.3c0-0.1,0.1-0.2,0.2-0.2
	c0.1-0.1,0.1-0.1,0.2-0.2c0.1,0,0.2-0.1,0.3-0.1c0.1,0,0.2,0,0.3,0.1c0.1,0,0.2,0.1,0.2,0.2s0.1,0.1,0.2,0.2
	C28.2,56.5,28.2,56.6,28.2,56.7z M30.4,59.7c0.2,0,0.4-0.1,0.4-0.2c0.1-0.1,0.1-0.2,0.1-0.4s0-0.3-0.1-0.4c-0.1-0.1-0.2-0.1-0.4-0.1
	s-0.4,0-0.4,0.1c-0.1,0.1-0.1,0.2-0.1,0.4c0,0.1,0,0.2,0,0.2c0,0.1,0.1,0.1,0.1,0.2c0,0,0.1,0.1,0.2,0.1
	C30.3,59.7,30.3,59.7,30.4,59.7z M31.4,62.2c0-0.1,0-0.2-0.1-0.2s-0.2-0.1-0.3-0.1c-0.1,0-0.3,0-0.5,0s-0.3,0-0.5,0
	c-0.1,0.1-0.1,0.1-0.2,0.2c0,0.1-0.1,0.1-0.1,0.2c0,0.1,0,0.1,0,0.2l0.1,0.1c0.1,0,0.1,0.1,0.3,0.1c0.1,0,0.2,0,0.4,0
	c0.2,0,0.3,0,0.4,0s0.2-0.1,0.3-0.1c0.1,0,0.1-0.1,0.1-0.1C31.4,62.3,31.4,62.2,31.4,62.2z M32.6,58v0.5c0,0.1,0,0.1-0.1,0.2
	c0,0-0.1,0.1-0.2,0.1L32,58.9c0,0.1,0,0.1,0,0.2c0,0.1,0,0.1,0,0.2c0,0.2,0,0.4-0.1,0.6c-0.1,0.2-0.2,0.3-0.4,0.4
	c-0.1,0.1-0.3,0.2-0.5,0.3s-0.4,0.1-0.7,0.1c-0.1,0-0.1,0-0.2,0s-0.1,0-0.2,0c-0.1,0.1-0.1,0.1-0.1,0.2s0,0.1,0.1,0.2
	c0.1,0,0.2,0.1,0.3,0.1c0.1,0,0.3,0,0.4,0c0.2,0,0.3,0,0.5,0s0.3,0,0.5,0.1c0.2,0,0.3,0.1,0.4,0.2c0.1,0.1,0.2,0.2,0.3,0.3
	s0.1,0.3,0.1,0.5s0,0.4-0.1,0.5c-0.1,0.2-0.2,0.3-0.4,0.5c-0.2,0.1-0.4,0.2-0.6,0.3c-0.3,0.1-0.5,0.1-0.9,0.1c-0.3,0-0.6,0-0.8-0.1
	c-0.2-0.1-0.4-0.1-0.6-0.2c-0.2-0.1-0.3-0.2-0.3-0.3c-0.1-0.1-0.1-0.3-0.1-0.4c0-0.2,0.1-0.3,0.2-0.5s0.3-0.2,0.4-0.3
	c-0.1-0.1-0.2-0.1-0.2-0.2s-0.1-0.2-0.1-0.4c0-0.1,0-0.1,0-0.2c0-0.1,0.1-0.1,0.1-0.2c0-0.1,0.1-0.1,0.2-0.2s0.2-0.1,0.2-0.2
	c-0.2-0.1-0.4-0.3-0.5-0.5s-0.2-0.4-0.2-0.7c0-0.2,0-0.4,0.1-0.6c0.1-0.2,0.2-0.3,0.4-0.4c0.2-0.1,0.3-0.2,0.5-0.3s0.4-0.1,0.7-0.1
	c0.4,0,0.7,0.1,0.9,0.2L32.6,58L32.6,58z M34.6,59.7c0.2,0,0.4-0.1,0.4-0.2c0.1-0.1,0.1-0.2,0.1-0.4s0-0.3-0.1-0.4
	c-0.1-0.1-0.2-0.1-0.4-0.1s-0.4,0-0.4,0.1C34.1,58.9,34,59,34,59.2c0,0.1,0,0.2,0,0.2c0,0.1,0.1,0.1,0.1,0.2c0,0,0.1,0.1,0.2,0.1
	S34.5,59.7,34.6,59.7z M35.6,62.2c0-0.1,0-0.2-0.1-0.2s-0.2-0.1-0.3-0.1s-0.3,0-0.5,0s-0.3,0-0.5,0c-0.2-0.1-0.2,0-0.3,0.1
	c0,0.1-0.1,0.1-0.1,0.2c0,0.1,0,0.1,0,0.2l0.1,0.1c0.1,0,0.1,0.1,0.3,0.1c0.1,0,0.2,0,0.4,0s0.3,0,0.4,0c0.1,0,0.2-0.1,0.3-0.1
	s0.1-0.1,0.1-0.1C35.6,62.3,35.6,62.2,35.6,62.2z M36.8,58v0.5c0,0.1,0,0.1-0.1,0.2c0,0-0.1,0.1-0.2,0.1l-0.3,0.1c0,0.1,0,0.1,0,0.2
	c0,0.1,0,0.1,0,0.2c0,0.2,0,0.4-0.1,0.6c-0.1,0.2-0.2,0.3-0.4,0.4c-0.1,0.1-0.3,0.2-0.5,0.3s-0.4,0.1-0.7,0.1c-0.1,0-0.1,0-0.2,0
	c-0.1,0-0.1,0-0.2,0C34,60.8,34,60.8,34,60.9s0,0.1,0.1,0.2c0.1,0,0.2,0.1,0.3,0.1s0.3,0,0.4,0c0.2,0,0.3,0,0.5,0s0.3,0,0.5,0.1
	c0.2,0,0.3,0.1,0.4,0.2c0.1,0.1,0.2,0.2,0.3,0.3s0.1,0.3,0.1,0.5s0,0.4-0.1,0.5c-0.1,0.2-0.2,0.3-0.4,0.5c-0.2,0.1-0.4,0.2-0.6,0.3
	c-0.3,0.1-0.5,0.1-0.9,0.1c-0.3,0-0.6,0-0.8-0.1s-0.4-0.1-0.6-0.2c-0.2-0.1-0.3-0.2-0.3-0.3c-0.1-0.1-0.1-0.3-0.1-0.4
	c0-0.2,0.1-0.3,0.2-0.5c0.1-0.1,0.3-0.2,0.4-0.3c-0.1-0.1-0.2-0.1-0.2-0.2C33.1,61.3,33,61.1,33,61s0-0.1,0-0.2
	c0-0.1,0.1-0.1,0.1-0.2c0-0.1,0.1-0.1,0.2-0.2c0.1-0.1,0.2-0.1,0.2-0.2c-0.2-0.1-0.4-0.3-0.5-0.5s-0.2-0.4-0.2-0.7
	c0-0.2,0-0.4,0.1-0.6c0.1-0.2,0.2-0.3,0.4-0.4c0.2-0.1,0.3-0.2,0.5-0.3s0.4-0.1,0.7-0.1c0.4,0,0.7,0.1,0.9,0.2h1.4V58z M39.7,59.4
	c0-0.1,0-0.2,0-0.3s-0.1-0.2-0.1-0.2c-0.1-0.1-0.1-0.1-0.2-0.2c-0.1,0-0.2-0.1-0.3-0.1c-0.2,0-0.4,0.1-0.6,0.2
	c-0.1,0.1-0.2,0.3-0.3,0.6H39.7z M38.1,60.1c0,0.3,0.1,0.6,0.3,0.8s0.4,0.2,0.7,0.2c0.1,0,0.3,0,0.4-0.1s0.2-0.1,0.3-0.1
	s0.2-0.1,0.2-0.1c0.1,0,0.1-0.1,0.2-0.1c0.1,0,0.2,0,0.2,0.1l0.4,0.4c-0.1,0.1-0.3,0.3-0.4,0.4c-0.1,0.1-0.3,0.2-0.5,0.2
	C39.8,62,39.6,62,39.4,62c-0.2,0-0.3,0-0.4,0c-0.3,0-0.6,0-0.8-0.1c-0.3-0.1-0.5-0.2-0.7-0.4s-0.3-0.4-0.5-0.7
	c-0.1-0.3-0.2-0.6-0.2-1c0-0.3,0-0.5,0.1-0.8c0.1-0.2,0.2-0.5,0.4-0.7s0.4-0.3,0.6-0.4c0.3-0.1,0.5-0.2,0.9-0.2c0.3,0,0.5,0,0.8,0.1
	c0.2,0.1,0.4,0.2,0.6,0.4c0.2,0.2,0.3,0.4,0.4,0.6c0.1,0.2,0.1,0.5,0.1,0.8c0,0.1,0,0.2,0,0.2c0,0.1,0,0.1,0,0.1L40.6,60h-0.1h-2.4
	V60.1z M42.5,58.5c0.1-0.2,0.3-0.4,0.4-0.5c0.2-0.1,0.4-0.2,0.6-0.2c0.2,0,0.3,0,0.5,0.1l-0.1,0.9c0,0.1,0,0.1-0.1,0.1h-0.1
	c0,0,0,0-0.1,0h-0.1h-0.1h-0.1c-0.2,0-0.3,0-0.4,0.1c-0.1,0.1-0.2,0.2-0.3,0.4V62h-1.2v-4.1H42c0.1,0,0.1,0,0.2,0c0,0,0.1,0,0.1,0.1
	l0.1,0.1v0.1L42.5,58.5z"/>
<rect x="2.5" y="105" class="st0" width="46" height="10"/>
<path class="st0" d="M3.5,105h44c0.6,0,1,0.4,1,1v8c0,0.6-0.4,1-1,1h-44c-0.6,0-1-0.4-1-1v-8C2.5,105.4,2.9,105,3.5,105z"/>
<path class="st1" d="M3.5,105h44c0.6,0,1,0.4,1,1v8c0,0.6-0.4,1-1,1h-44c-0.6,0-1-0.4-1-1v-8C2.5,105.4,2.9,105,3.5,105z"/>
<path d="M13.3,110.4c0.2,0,0.3,0,0.5-0.1c0.1,0,0.2-0.1,0.3-0.2s0.1-0.2,0.2-0.3c0-0.1,0.1-0.2,0.1-0.4c0-0.3-0.1-0.5-0.3-0.6
	s-0.4-0.2-0.8-0.2h-0.5v1.7L13.3,110.4L13.3,110.4z M16.2,113.5H15c-0.2,0-0.4-0.1-0.5-0.3l-1-1.7c0-0.1-0.1-0.1-0.2-0.2
	c-0.1,0-0.1-0.1-0.2-0.1h-0.3v2.2h-1.4v-5.8h1.9c0.4,0,0.8,0,1.1,0.1s0.5,0.2,0.7,0.4c0.2,0.2,0.3,0.3,0.4,0.5
	c0.1,0.2,0.1,0.4,0.1,0.7c0,0.2,0,0.4-0.1,0.5c-0.1,0.2-0.1,0.3-0.2,0.5c-0.1,0.1-0.2,0.3-0.4,0.4c-0.1,0.1-0.3,0.2-0.5,0.3
	c0.1,0,0.2,0.1,0.2,0.2c0.1,0.1,0.1,0.1,0.2,0.2L16.2,113.5z M18.5,111.8c-0.2,0-0.5,0-0.6,0.1s-0.3,0.1-0.4,0.1s-0.2,0.1-0.2,0.2
	s-0.1,0.1-0.1,0.2s0,0.2,0.1,0.3c0.1,0.1,0.2,0.1,0.3,0.1c0.2,0,0.3,0,0.4-0.1s0.2-0.1,0.4-0.3v-0.6H18.5z M16.2,109.9
	c0.3-0.2,0.5-0.4,0.8-0.5s0.6-0.2,1-0.2c0.3,0,0.5,0,0.7,0.1s0.4,0.2,0.5,0.3c0.1,0.1,0.2,0.3,0.3,0.5c0.1,0.2,0.1,0.4,0.1,0.7v2.6
	H19c-0.1,0-0.2,0-0.3,0c-0.1,0-0.1-0.1-0.1-0.2l-0.1-0.2c-0.1,0.1-0.2,0.2-0.3,0.2c-0.1,0.1-0.2,0.1-0.3,0.2c-0.1,0-0.2,0.1-0.3,0.1
	c-0.1,0-0.2,0-0.4,0c-0.2,0-0.4,0-0.5-0.1c-0.2-0.1-0.3-0.1-0.4-0.2s-0.2-0.2-0.2-0.4c-0.1-0.1-0.1-0.3-0.1-0.5c0-0.1,0-0.3,0.1-0.5
	s0.2-0.3,0.4-0.4c0.2-0.1,0.4-0.2,0.7-0.3c0.3-0.1,0.7-0.1,1.2-0.1v-0.2c0-0.2-0.1-0.4-0.2-0.5s-0.2-0.2-0.4-0.2c-0.1,0-0.3,0-0.4,0
	s-0.2,0.1-0.3,0.1c-0.1,0-0.1,0.1-0.2,0.1s-0.2,0-0.2,0c-0.1,0-0.2,0-0.2-0.1c-0.1,0-0.1-0.1-0.1-0.2L16.2,109.9z M21.5,109.8
	c0.1-0.1,0.2-0.1,0.2-0.2c0.1-0.1,0.2-0.1,0.3-0.2c0.1,0,0.2-0.1,0.3-0.1c0.1,0,0.2,0,0.4,0c0.2,0,0.4,0,0.6,0.1s0.3,0.2,0.4,0.3
	c0.1,0.1,0.2,0.3,0.3,0.5c0.1,0.2,0.1,0.4,0.1,0.6v2.6h-1.2v-2.6c0-0.2,0-0.4-0.1-0.5s-0.2-0.2-0.4-0.2c-0.1,0-0.3,0-0.4,0.1
	s-0.2,0.1-0.3,0.2v3h-1.2v-4.1h0.8c0.2,0,0.3,0.1,0.3,0.2L21.5,109.8z M27.3,110.5c-0.1-0.1-0.2-0.2-0.3-0.2c-0.1,0-0.2-0.1-0.3-0.1
	c-0.1,0-0.2,0-0.3,0.1c-0.1,0-0.2,0.1-0.3,0.2c-0.1,0.1-0.1,0.2-0.2,0.4c0,0.2-0.1,0.4-0.1,0.6s0,0.4,0,0.6c0,0.1,0.1,0.3,0.1,0.4
	c0.1,0.1,0.1,0.2,0.2,0.2s0.2,0.1,0.3,0.1c0.1,0,0.2,0,0.2,0c0.1,0,0.1,0,0.2-0.1c0.1,0,0.1-0.1,0.2-0.1c0.1-0.1,0.1-0.1,0.2-0.2
	L27.3,110.5L27.3,110.5z M28.5,107.5v6h-0.8c-0.2,0-0.3-0.1-0.3-0.2l-0.1-0.3c-0.1,0.1-0.2,0.2-0.3,0.2c-0.1,0.1-0.2,0.1-0.3,0.2
	c-0.1,0.1-0.2,0.1-0.3,0.1c-0.1,0-0.3,0-0.4,0c-0.2,0-0.4,0-0.6-0.1s-0.3-0.2-0.5-0.4c-0.1-0.2-0.2-0.4-0.3-0.7
	c-0.1-0.3-0.1-0.6-0.1-0.9s0-0.6,0.1-0.9s0.2-0.5,0.4-0.7c0.2-0.2,0.3-0.3,0.6-0.5c0.2-0.1,0.5-0.2,0.7-0.2s0.4,0,0.5,0.1
	s0.3,0.1,0.4,0.2v-2.1h1.3V107.5z M31.2,109.3c0.3,0,0.6,0,0.9,0.1c0.3,0.1,0.5,0.2,0.7,0.4c0.2,0.2,0.3,0.4,0.4,0.7
	c0.1,0.3,0.2,0.6,0.2,0.9s-0.1,0.6-0.2,0.9c-0.1,0.3-0.2,0.5-0.4,0.7s-0.4,0.3-0.7,0.4s-0.5,0.1-0.9,0.1c-0.3,0-0.6,0-0.9-0.1
	s-0.5-0.2-0.7-0.4c-0.2-0.2-0.3-0.4-0.4-0.7c-0.1-0.3-0.2-0.6-0.2-0.9s0.1-0.6,0.2-0.9s0.2-0.5,0.4-0.7c0.2-0.2,0.4-0.3,0.7-0.4
	C30.6,109.3,30.9,109.3,31.2,109.3z M31.2,112.6c0.3,0,0.5-0.1,0.6-0.3c0.1-0.2,0.2-0.5,0.2-0.9s-0.1-0.7-0.2-0.9
	c-0.1-0.2-0.3-0.3-0.6-0.3c-0.3,0-0.5,0.1-0.6,0.3c-0.1,0.2-0.2,0.5-0.2,0.9s0.1,0.7,0.2,0.9C30.7,112.5,30.9,112.6,31.2,112.6z
	 M33.8,113.5v-4.1h0.8c0.2,0,0.3,0.1,0.3,0.2l0.1,0.2c0.1-0.1,0.1-0.1,0.2-0.2c0.1-0.1,0.2-0.1,0.2-0.2c0.1,0,0.2-0.1,0.3-0.1
	s0.2,0,0.3,0c0.3,0,0.5,0.1,0.6,0.2c0.2,0.1,0.3,0.3,0.4,0.5c0.1-0.1,0.2-0.2,0.3-0.3c0.1-0.1,0.2-0.2,0.3-0.2
	c0.1-0.1,0.2-0.1,0.4-0.1c0.1,0,0.3,0,0.4,0c0.2,0,0.4,0,0.6,0.1c0.2,0.1,0.3,0.2,0.5,0.3c0.1,0.1,0.2,0.3,0.3,0.5s0.1,0.4,0.1,0.7
	v2.6h-1.2V111c0-0.4-0.2-0.6-0.6-0.6c-0.2,0-0.3,0.1-0.4,0.2c-0.1,0.1-0.2,0.3-0.2,0.5v2.6h-1.2v-2.6c0-0.2,0-0.4-0.1-0.5
	s-0.2-0.1-0.4-0.1c-0.1,0-0.2,0-0.3,0.1s-0.2,0.1-0.3,0.2v3h-1.4V113.5z"/>
</svg>
