<?xml version="1.0" encoding="utf-8"?>
<!-- Generator: Adobe Illustrator 23.0.0, SVG Export Plug-In . SVG Version: 6.00 Build 0)  -->
<svg version="1.1" id="Layer_1" xmlns="http://www.w3.org/2000/svg" xmlns:xlink="http://www.w3.org/1999/xlink" x="0px" y="0px"
	 viewBox="0 0 43 14" style="enable-background:new 0 0 43 14;" xml:space="preserve">
<style type="text/css">
	.st0{fill:#399DFF;}
</style>
<g>
	<path class="st0" d="M4.5,11.6c-1.2,0-2.1-0.9-2.1-2.1v-5c0-1.2,0.9-2.1,2.1-2.1h34c1.2,0,2.1,0.9,2.1,2.1v5c0,1.2-0.9,2.1-2.1,2.1
		H4.5z"/>
	<path class="st0" d="M38.5,3.5c0.6,0,1,0.4,1,1v5c0,0.6-0.4,1-1,1h-34c-0.6,0-1-0.4-1-1v-5c0-0.6,0.4-1,1-1H38.5 M38.5,1.3h-34
		c-1.8,0-3.2,1.4-3.2,3.2v5c0,1.8,1.4,3.2,3.2,3.2h34c1.8,0,3.2-1.4,3.2-3.2v-5C41.7,2.7,40.3,1.3,38.5,1.3L38.5,1.3z"/>
</g>
</svg>
