<?xml version="1.0" encoding="utf-8"?>
<!-- Generator: Adobe Illustrator 23.0.0, SVG Export Plug-In . SVG Version: 6.00 Build 0)  -->
<svg version="1.1" id="Layer_1" xmlns="http://www.w3.org/2000/svg" xmlns:xlink="http://www.w3.org/1999/xlink" x="0px" y="0px"
	 viewBox="0 0 32 24" style="enable-background:new 0 0 32 24;" xml:space="preserve">
<style type="text/css">
	.st0{fill:#399DFF;}
	.st1{clip-path:url(#SVGID_2_);}
	.st2{fill-rule:evenodd;clip-rule:evenodd;fill:#FFFFFF;}
	.st3{clip-path:url(#SVGID_4_);}
</style>
<g>
	<path class="st0" d="M4,10.5c-1.4,0-2.5-1.1-2.5-2.5V4c0-1.4,1.1-2.5,2.5-2.5h10.5v9H4z"/>
	<path class="st0" d="M14,2v8H4c-1.1,0-2-0.9-2-2V4c0-1.1,0.9-2,2-2H14 M15,1h-1H4C2.3,1,1,2.3,1,4v4c0,1.7,1.3,3,3,3h10h1v-1V2V1
		L15,1z"/>
</g>
<g>
	<g>
		<defs>
			<path id="SVGID_1_" d="M14,10H4c-1.1,0-2-0.9-2-2V4c0-1.1,0.9-2,2-2h10V10z"/>
		</defs>
		<clipPath id="SVGID_2_">
			<use xlink:href="#SVGID_1_"  style="overflow:visible;"/>
		</clipPath>
		<g class="st1">
			<path class="st2" d="M8,9L4,6l4-3v2h4v2H8V9z"/>
		</g>
	</g>
</g>
<g>
	<path class="st0" d="M17.5,22.5v-9H28c1.4,0,2.5,1.1,2.5,2.5v4c0,1.4-1.1,2.5-2.5,2.5H17.5z"/>
	<path class="st0" d="M28,14c1.1,0,2,0.9,2,2v4c0,1.1-0.9,2-2,2H18v-8H28 M28,13H18h-1v1v8v1h1h10c1.7,0,3-1.3,3-3v-4
		C31,14.3,29.7,13,28,13L28,13z"/>
</g>
<g>
	<g>
		<defs>
			<path id="SVGID_3_" d="M18,22h10c1.1,0,2-0.9,2-2v-4c0-1.1-0.9-2-2-2H18V22z"/>
		</defs>
		<clipPath id="SVGID_4_">
			<use xlink:href="#SVGID_3_"  style="overflow:visible;"/>
		</clipPath>
		<g class="st3">
			<path class="st2" d="M24,21l4-3l-4-3v2h-4v2h4V21z"/>
		</g>
	</g>
</g>
</svg>
