<?xml version="1.0" encoding="utf-8"?>
<!-- Generator: Adobe Illustrator 23.0.0, SVG Export Plug-In . SVG Version: 6.00 Build 0)  -->
<svg version="1.1" id="Layer_1" xmlns="http://www.w3.org/2000/svg" xmlns:xlink="http://www.w3.org/1999/xlink" x="0px" y="0px"
	 viewBox="0 0 43 14" style="enable-background:new 0 0 43 14;" xml:space="preserve">
<style type="text/css">
	.st0{fill:#399DFF;stroke:#399DFF;stroke-width:3;stroke-miterlimit:10;}
</style>
<g>
	<path class="st0" d="M4.5,11.5c-1.1,0-2-0.9-2-2v-5c0-1.1,0.9-2,2-2h34c1.1,0,2,0.9,2,2v5c0,1.1-0.9,2-2,2H4.5z"/>
	<path class="st0" d="M38.5,3.5c0.6,0,1,0.4,1,1v5c0,0.6-0.4,1-1,1h-34c-0.6,0-1-0.4-1-1v-5c0-0.6,0.4-1,1-1H38.5 M38.5,1.5h-34
		c-1.7,0-3,1.3-3,3v5c0,1.7,1.3,3,3,3h34c1.7,0,3-1.3,3-3v-5C41.5,2.8,40.2,1.5,38.5,1.5L38.5,1.5z"/>
</g>
</svg>
