<?xml version="1.0" encoding="utf-8"?>
<!-- Generator: Adobe Illustrator 23.0.0, SVG Export Plug-In . SVG Version: 6.00 Build 0)  -->
<svg version="1.1" id="Layer_1" xmlns="http://www.w3.org/2000/svg" xmlns:xlink="http://www.w3.org/1999/xlink" x="0px" y="0px"
	 viewBox="0 0 16 24" style="enable-background:new 0 0 16 24;" xml:space="preserve">
<style type="text/css">
	.st0{fill:#399DFF;}
	.st1{fill:#FFFFFF;}
</style>
<g>
	<path class="st0" d="M3.5,10.5c-1.1,0-2-0.9-2-2v-5c0-1.1,0.9-2,2-2h11v9H3.5z"/>
	<path class="st0" d="M13.5,2.5v7h-10c-0.6,0-1-0.4-1-1v-5c0-0.6,0.4-1,1-1H13.5 M15.5,0.5h-2h-10c-1.7,0-3,1.3-3,3v5
		c0,1.7,1.3,3,3,3h10h2v-2v-7V0.5L15.5,0.5z"/>
</g>
<path class="st1" d="M8.2,4C7,4,5.9,4.6,5.3,5.4L4,4.2V8h4L6.6,6.7C7,5.7,8,4.9,9.2,4.9c1.5,0,2.8,1.2,2.8,2.6C12,5.6,10.3,4,8.2,4z
	"/>
</svg>
