<?xml version="1.0" encoding="utf-8"?>
<!-- Generator: Adobe Illustrator 23.0.0, SVG Export Plug-In . SVG Version: 6.00 Build 0)  -->
<svg version="1.1" id="Layer_1" xmlns="http://www.w3.org/2000/svg" xmlns:xlink="http://www.w3.org/1999/xlink" x="0px" y="0px"
	 viewBox="0 0 40 168" style="enable-background:new 0 0 40 168;" xml:space="preserve">
<style type="text/css">
	.st0{display:none;fill:#FF9000;}
	.st1{display:none;fill:none;stroke:#FFFFFF;}
	.st2{display:none;}
</style>
<path class="st0" d="M3.5,2h33c0.6,0,1,0.4,1,1v6c0,0.6-0.4,1-1,1h-33c-0.6,0-1-0.4-1-1V3C2.5,2.4,2.9,2,3.5,2z"/>
<path class="st1" d="M3.5,2h33c0.6,0,1,0.4,1,1v6c0,0.6-0.4,1-1,1h-33c-0.6,0-1-0.4-1-1V3C2.5,2.4,2.9,2,3.5,2z"/>
<path class="st2" d="M14,4.4c0,0.1-0.1,0.1-0.1,0.1c0,0-0.1,0-0.1,0c-0.1,0-0.1,0-0.2,0c-0.1,0-0.1-0.1-0.2-0.1
	c-0.1,0-0.2-0.1-0.3-0.1c-0.1,0-0.2-0.1-0.3-0.1c-0.2,0-0.4,0-0.5,0.1c-0.1,0.1-0.2,0.2-0.2,0.4c0,0.1,0,0.2,0.1,0.3
	c0.1,0.1,0.2,0.1,0.3,0.2c0.1,0,0.2,0.1,0.4,0.1c0.1,0,0.3,0.1,0.4,0.1c0.1,0,0.3,0.1,0.4,0.2c0.1,0.1,0.3,0.2,0.4,0.3
	c0.1,0.1,0.2,0.2,0.3,0.4c0.1,0.1,0.1,0.3,0.1,0.5c0,0.2,0,0.5-0.1,0.7c-0.1,0.2-0.2,0.4-0.4,0.5c-0.2,0.2-0.3,0.3-0.6,0.4
	c-0.2,0.1-0.5,0.1-0.8,0.1c-0.2,0-0.3,0-0.5,0c-0.2,0-0.3-0.1-0.5-0.1c-0.2-0.1-0.3-0.1-0.4-0.2C11,8.1,10.9,8,10.8,7.9l0.4-0.6
	c0,0,0.1-0.1,0.1-0.1c0,0,0.1,0,0.2,0c0.1,0,0.1,0,0.2,0.1c0.1,0,0.2,0.1,0.2,0.1c0.1,0.1,0.2,0.1,0.3,0.1c0.1,0,0.3,0.1,0.4,0.1
	c0.2,0,0.4,0,0.5-0.1c0.1-0.1,0.2-0.2,0.2-0.5c0-0.1,0-0.2-0.1-0.3c-0.1-0.1-0.2-0.1-0.3-0.2c-0.1,0-0.2-0.1-0.4-0.1
	c-0.1,0-0.3-0.1-0.4-0.1c-0.1,0-0.3-0.1-0.4-0.2c-0.1-0.1-0.3-0.2-0.4-0.3c-0.1-0.1-0.2-0.2-0.3-0.4C11.1,5.3,11,5.1,11,4.9
	c0-0.2,0-0.4,0.1-0.6c0.1-0.2,0.2-0.3,0.3-0.5c0.1-0.1,0.3-0.3,0.5-0.3c0.2-0.1,0.5-0.1,0.7-0.1c0.2,0,0.3,0,0.5,0
	c0.1,0,0.3,0.1,0.4,0.1c0.1,0,0.3,0.1,0.4,0.2c0.1,0.1,0.2,0.1,0.3,0.2L14,4.4z M16,4.9v3.6h-1.1V4.9H16z M16.1,3.9
	c0,0.1,0,0.2-0.1,0.2c0,0.1-0.1,0.1-0.1,0.2c-0.1,0.1-0.1,0.1-0.2,0.1c-0.1,0-0.2,0-0.3,0c-0.1,0-0.2,0-0.2,0
	c-0.1,0-0.1-0.1-0.2-0.1c-0.1-0.1-0.1-0.1-0.1-0.2c0-0.1,0-0.2,0-0.2c0-0.1,0-0.2,0-0.2c0-0.1,0.1-0.1,0.1-0.2
	c0.1-0.1,0.1-0.1,0.2-0.1s0.2,0,0.2,0c0.1,0,0.2,0,0.3,0c0.1,0,0.2,0.1,0.2,0.1C16,3.5,16,3.6,16,3.6S16.1,3.8,16.1,3.9z M17.6,5.3
	c0.1-0.1,0.1-0.1,0.2-0.2C17.9,5,18,5,18.1,4.9c0.1,0,0.2-0.1,0.3-0.1c0.1,0,0.2,0,0.3,0c0.2,0,0.4,0,0.5,0.1
	c0.2,0.1,0.3,0.2,0.4,0.3c0.1,0.1,0.2,0.3,0.2,0.4c0.1,0.2,0.1,0.4,0.1,0.5v2.3h-1.1V6.2c0-0.2,0-0.3-0.1-0.4
	c-0.1-0.1-0.2-0.2-0.4-0.2c-0.1,0-0.2,0-0.3,0.1c-0.1,0-0.2,0.1-0.3,0.2v2.6h-1.1V4.9h0.7c0.1,0,0.2,0.1,0.3,0.2L17.6,5.3z
	 M21.9,6.5c0.2,0,0.3,0,0.4-0.1c0.1-0.1,0.1-0.2,0.1-0.3c0-0.1,0-0.3-0.1-0.3c-0.1-0.1-0.2-0.1-0.4-0.1c-0.2,0-0.3,0-0.4,0.1
	c-0.1,0.1-0.1,0.2-0.1,0.3c0,0.1,0,0.1,0,0.2c0,0.1,0.1,0.1,0.1,0.2c0,0,0.1,0.1,0.2,0.1C21.7,6.5,21.8,6.5,21.9,6.5z M22.7,8.6
	c0-0.1,0-0.1-0.1-0.2c-0.1,0-0.2-0.1-0.3-0.1c-0.1,0-0.3,0-0.4,0c-0.2,0-0.3,0-0.5,0c-0.1,0-0.1,0.1-0.2,0.2c0,0.1-0.1,0.1-0.1,0.2
	c0,0.1,0,0.1,0,0.1c0,0,0.1,0.1,0.1,0.1c0.1,0,0.1,0.1,0.2,0.1c0.1,0,0.2,0,0.4,0c0.2,0,0.3,0,0.4,0c0.1,0,0.2,0,0.2-0.1
	c0.1,0,0.1-0.1,0.1-0.1C22.7,8.7,22.7,8.7,22.7,8.6z M23.8,5v0.4c0,0.1,0,0.1-0.1,0.1c0,0-0.1,0.1-0.2,0.1l-0.3,0.1
	c0,0.1,0,0.1,0,0.2c0,0.1,0,0.1,0,0.2c0,0.2,0,0.3-0.1,0.5c-0.1,0.1-0.2,0.3-0.3,0.4c-0.1,0.1-0.3,0.2-0.5,0.2
	c-0.2,0.1-0.4,0.1-0.6,0.1c-0.1,0-0.1,0-0.2,0c-0.1,0-0.1,0-0.2,0c-0.1,0-0.1,0.1-0.1,0.2s0,0.1,0.1,0.1c0.1,0,0.2,0,0.3,0.1
	c0.1,0,0.2,0,0.4,0c0.1,0,0.3,0,0.4,0c0.1,0,0.3,0,0.4,0.1c0.1,0,0.3,0.1,0.4,0.1c0.1,0.1,0.2,0.2,0.3,0.3c0.1,0.1,0.1,0.3,0.1,0.4
	c0,0.2,0,0.3-0.1,0.5c-0.1,0.2-0.2,0.3-0.4,0.4s-0.3,0.2-0.6,0.3c-0.2,0.1-0.5,0.1-0.8,0.1c-0.3,0-0.5,0-0.7-0.1
	c-0.2-0.1-0.4-0.1-0.5-0.2c-0.1-0.1-0.2-0.2-0.3-0.3c-0.1-0.1-0.1-0.2-0.1-0.4c0-0.2,0-0.3,0.1-0.4c0.1-0.1,0.2-0.2,0.4-0.3
	c-0.1-0.1-0.2-0.1-0.2-0.2c-0.1-0.1-0.1-0.2-0.1-0.3c0-0.1,0-0.1,0-0.2c0-0.1,0-0.1,0.1-0.2c0-0.1,0.1-0.1,0.2-0.2
	C20.9,7,20.9,7,21,7c-0.2-0.1-0.3-0.2-0.4-0.4c-0.1-0.2-0.2-0.4-0.2-0.6c0-0.2,0-0.3,0.1-0.5c0.1-0.1,0.2-0.3,0.3-0.4
	C21,5,21.1,4.9,21.3,4.9c0.2-0.1,0.4-0.1,0.6-0.1c0.3,0,0.6,0.1,0.8,0.2H23.8z M25.2,3.3v5.2h-1.1V3.3H25.2z M28.1,6.2
	c0-0.1,0-0.2,0-0.3c0-0.1-0.1-0.2-0.1-0.2c0-0.1-0.1-0.1-0.2-0.2s-0.2-0.1-0.3-0.1c-0.2,0-0.4,0.1-0.5,0.2c-0.1,0.1-0.2,0.3-0.2,0.5
	H28.1z M26.8,6.9c0,0.3,0.1,0.5,0.3,0.7c0.1,0.1,0.3,0.2,0.6,0.2c0.1,0,0.2,0,0.3,0c0.1,0,0.2-0.1,0.2-0.1c0.1,0,0.1-0.1,0.2-0.1
	c0.1,0,0.1,0,0.2,0c0.1,0,0.2,0,0.2,0.1l0.3,0.4c-0.1,0.1-0.2,0.2-0.4,0.3c-0.1,0.1-0.3,0.1-0.4,0.2c-0.1,0-0.3,0.1-0.4,0.1
	c-0.1,0-0.3,0-0.4,0c-0.3,0-0.5,0-0.7-0.1c-0.2-0.1-0.4-0.2-0.6-0.4c-0.2-0.2-0.3-0.4-0.4-0.6c-0.1-0.2-0.1-0.5-0.1-0.8
	c0-0.2,0-0.5,0.1-0.7c0.1-0.2,0.2-0.4,0.4-0.6c0.2-0.2,0.3-0.3,0.6-0.4c0.2-0.1,0.5-0.1,0.7-0.1c0.2,0,0.5,0,0.7,0.1
	c0.2,0.1,0.4,0.2,0.5,0.3c0.1,0.1,0.3,0.3,0.3,0.5c0.1,0.2,0.1,0.4,0.1,0.7c0,0.1,0,0.1,0,0.2c0,0.1,0,0.1,0,0.1c0,0,0,0.1-0.1,0.1
	c0,0-0.1,0-0.1,0H26.8z"/>
<path class="st0" d="M3.5,54h33c0.6,0,1,0.4,1,1v6c0,0.6-0.4,1-1,1h-33c-0.6,0-1-0.4-1-1v-6C2.5,54.4,2.9,54,3.5,54z"/>
<path class="st1" d="M3.5,54h33c0.6,0,1,0.4,1,1v6c0,0.6-0.4,1-1,1h-33c-0.6,0-1-0.4-1-1v-6C2.5,54.4,2.9,54,3.5,54z"/>
<path class="st2" d="M8.2,57.5h0.2c0.2,0,0.3-0.1,0.4-0.2l1.1-1.7c0.1-0.1,0.1-0.1,0.2-0.2c0.1,0,0.2-0.1,0.3-0.1h1L10,57.5
	c-0.1,0.1-0.2,0.2-0.3,0.3c0.1,0,0.2,0.1,0.2,0.1C9.9,58,10,58,10.1,58.1l1.5,2.4h-1.1c-0.1,0-0.1,0-0.2,0c0,0-0.1,0-0.1,0
	c0,0-0.1,0-0.1-0.1c0,0-0.1-0.1-0.1-0.1l-1.2-1.8c0-0.1-0.1-0.1-0.2-0.1c-0.1,0-0.1,0-0.3,0H8.2v2.2H7v-5.1h1.2V57.5z M13.7,58.2
	c0-0.1,0-0.2,0-0.3c0-0.1-0.1-0.2-0.1-0.2c0-0.1-0.1-0.1-0.2-0.2c-0.1,0-0.2-0.1-0.3-0.1c-0.2,0-0.4,0.1-0.5,0.2
	c-0.1,0.1-0.2,0.3-0.2,0.5H13.7z M12.4,58.9c0,0.3,0.1,0.5,0.3,0.7c0.1,0.1,0.3,0.2,0.6,0.2c0.1,0,0.2,0,0.3,0
	c0.1,0,0.2-0.1,0.2-0.1c0.1,0,0.1-0.1,0.2-0.1c0.1,0,0.1,0,0.2,0c0.1,0,0.2,0,0.2,0.1l0.3,0.4c-0.1,0.1-0.2,0.2-0.4,0.3
	c-0.1,0.1-0.3,0.1-0.4,0.2c-0.1,0-0.3,0.1-0.4,0.1c-0.1,0-0.3,0-0.4,0c-0.3,0-0.5,0-0.7-0.1c-0.2-0.1-0.4-0.2-0.6-0.4
	c-0.2-0.2-0.3-0.4-0.4-0.6c-0.1-0.2-0.1-0.5-0.1-0.8c0-0.2,0-0.5,0.1-0.7c0.1-0.2,0.2-0.4,0.4-0.6c0.2-0.2,0.3-0.3,0.6-0.4
	c0.2-0.1,0.5-0.1,0.7-0.1c0.2,0,0.5,0,0.7,0.1c0.2,0.1,0.4,0.2,0.5,0.3c0.1,0.1,0.3,0.3,0.3,0.5c0.1,0.2,0.1,0.4,0.1,0.7
	c0,0.1,0,0.1,0,0.2c0,0.1,0,0.1,0,0.1c0,0,0,0.1-0.1,0.1c0,0-0.1,0-0.1,0H12.4z M18.5,56.9l-1.9,4.6c0,0.1-0.1,0.1-0.1,0.2
	c0,0-0.1,0.1-0.2,0.1h-0.8l0.7-1.5l-1.4-3.3h1c0.1,0,0.1,0,0.2,0.1c0,0,0.1,0.1,0.1,0.1l0.6,1.6c0.1,0.1,0.1,0.3,0.1,0.4
	c0-0.1,0.1-0.1,0.1-0.2c0-0.1,0.1-0.1,0.1-0.2l0.5-1.6c0-0.1,0.1-0.1,0.1-0.1c0.1,0,0.1-0.1,0.2-0.1H18.5z M23,56.4
	c0,0.1-0.1,0.1-0.1,0.1c0,0-0.1,0-0.1,0c-0.1,0-0.1,0-0.2,0c-0.1,0-0.1-0.1-0.2-0.1c-0.1,0-0.2-0.1-0.3-0.1c-0.1,0-0.2-0.1-0.3-0.1
	c-0.2,0-0.4,0-0.5,0.1c-0.1,0.1-0.2,0.2-0.2,0.4c0,0.1,0,0.2,0.1,0.3c0.1,0.1,0.2,0.1,0.3,0.2c0.1,0,0.2,0.1,0.4,0.1
	c0.1,0,0.3,0.1,0.4,0.1c0.1,0,0.3,0.1,0.4,0.2c0.1,0.1,0.3,0.2,0.4,0.3c0.1,0.1,0.2,0.2,0.3,0.4c0.1,0.1,0.1,0.3,0.1,0.5
	c0,0.2,0,0.5-0.1,0.7c-0.1,0.2-0.2,0.4-0.4,0.5c-0.2,0.2-0.3,0.3-0.6,0.4c-0.2,0.1-0.5,0.1-0.8,0.1c-0.2,0-0.3,0-0.5,0
	c-0.2,0-0.3-0.1-0.5-0.1c-0.2-0.1-0.3-0.1-0.4-0.2c-0.1-0.1-0.3-0.2-0.4-0.3l0.4-0.6c0,0,0.1-0.1,0.1-0.1c0,0,0.1,0,0.2,0
	c0.1,0,0.1,0,0.2,0.1c0.1,0,0.2,0.1,0.2,0.1c0.1,0.1,0.2,0.1,0.3,0.1c0.1,0,0.3,0.1,0.4,0.1c0.2,0,0.4,0,0.5-0.1
	c0.1-0.1,0.2-0.2,0.2-0.5c0-0.1,0-0.2-0.1-0.3c-0.1-0.1-0.2-0.1-0.3-0.2c-0.1,0-0.2-0.1-0.4-0.1c-0.1,0-0.3-0.1-0.4-0.1
	c-0.1,0-0.3-0.1-0.4-0.2c-0.1-0.1-0.3-0.2-0.4-0.3c-0.1-0.1-0.2-0.2-0.3-0.4C20,57.3,20,57.1,20,56.9c0-0.2,0-0.4,0.1-0.6
	s0.2-0.3,0.3-0.5c0.1-0.1,0.3-0.3,0.5-0.3c0.2-0.1,0.5-0.1,0.7-0.1c0.2,0,0.3,0,0.5,0c0.1,0,0.3,0.1,0.4,0.1c0.1,0,0.3,0.1,0.4,0.2
	c0.1,0.1,0.2,0.1,0.3,0.2L23,56.4z M24.8,59.5c0.1,0.1,0.2,0.2,0.3,0.2c0.1,0,0.2,0.1,0.3,0.1c0.1,0,0.2,0,0.3-0.1
	c0.1,0,0.2-0.1,0.2-0.2c0.1-0.1,0.1-0.2,0.1-0.3s0.1-0.3,0.1-0.5c0-0.2,0-0.4,0-0.5s-0.1-0.2-0.1-0.3c0-0.1-0.1-0.1-0.2-0.2
	c-0.1,0-0.1-0.1-0.2-0.1c-0.2,0-0.3,0-0.4,0.1c-0.1,0.1-0.2,0.1-0.3,0.3V59.5z M24.8,57.3c0.1-0.2,0.3-0.3,0.5-0.4
	c0.2-0.1,0.4-0.1,0.6-0.1c0.2,0,0.4,0,0.5,0.1c0.2,0.1,0.3,0.2,0.4,0.4c0.1,0.2,0.2,0.4,0.3,0.6c0.1,0.2,0.1,0.5,0.1,0.8
	c0,0.3,0,0.5-0.1,0.8c-0.1,0.2-0.2,0.4-0.3,0.6c-0.1,0.2-0.3,0.3-0.5,0.4c-0.2,0.1-0.4,0.1-0.6,0.1c-0.2,0-0.3,0-0.5-0.1
	c-0.1-0.1-0.2-0.1-0.4-0.2v1.4h-1.1v-4.8h0.7c0.1,0,0.2,0.1,0.3,0.2L24.8,57.3z M28.8,55.3v5.2h-1.1v-5.2H28.8z M30.5,56.9v3.6h-1.1
	v-3.6H30.5z M30.6,55.9c0,0.1,0,0.2-0.1,0.2c0,0.1-0.1,0.1-0.1,0.2c-0.1,0.1-0.1,0.1-0.2,0.1c-0.1,0-0.2,0-0.3,0c-0.1,0-0.2,0-0.2,0
	c-0.1,0-0.1-0.1-0.2-0.1c-0.1-0.1-0.1-0.1-0.1-0.2c0-0.1,0-0.2,0-0.2c0-0.1,0-0.2,0-0.2c0-0.1,0.1-0.1,0.1-0.2
	c0.1-0.1,0.1-0.1,0.2-0.1c0.1,0,0.2,0,0.2,0c0.1,0,0.2,0,0.3,0c0.1,0,0.2,0.1,0.2,0.1c0.1,0.1,0.1,0.1,0.1,0.2
	C30.6,55.7,30.6,55.8,30.6,55.9z M32.4,60.6c-0.2,0-0.3,0-0.5-0.1c-0.1-0.1-0.2-0.1-0.3-0.2c-0.1-0.1-0.2-0.2-0.2-0.3
	c0-0.1-0.1-0.3-0.1-0.4v-1.9h-0.3c-0.1,0-0.1,0-0.1-0.1c0,0-0.1-0.1-0.1-0.2V57l0.6-0.1l0.2-0.9c0-0.1,0.1-0.2,0.2-0.2h0.6v1.1h0.9
	v0.7h-0.9v1.8c0,0.1,0,0.2,0.1,0.2c0,0.1,0.1,0.1,0.2,0.1c0,0,0.1,0,0.1,0c0,0,0.1,0,0.1,0c0,0,0,0,0.1,0c0,0,0,0,0.1,0
	c0,0,0.1,0,0.1,0c0,0,0,0,0.1,0.1l0.3,0.5c-0.1,0.1-0.3,0.2-0.5,0.2C32.8,60.5,32.6,60.6,32.4,60.6z"/>
<path class="st0" d="M3.5,106h33c0.6,0,1,0.4,1,1v6c0,0.6-0.4,1-1,1h-33c-0.6,0-1-0.4-1-1v-6C2.5,106.4,2.9,106,3.5,106z"/>
<path class="st1" d="M3.5,106h33c0.6,0,1,0.4,1,1v6c0,0.6-0.4,1-1,1h-33c-0.6,0-1-0.4-1-1v-6C2.5,106.4,2.9,106,3.5,106z"/>
<path class="st2" d="M8.4,111.2C8.4,111.2,8.4,111.2,8.4,111.2c0.1,0,0.1,0,0.2,0.1l0.5,0.5c-0.2,0.3-0.5,0.5-0.8,0.6
	c-0.3,0.1-0.7,0.2-1.1,0.2c-0.4,0-0.7-0.1-1-0.2c-0.3-0.1-0.6-0.3-0.8-0.5c-0.2-0.2-0.4-0.5-0.5-0.8c-0.1-0.3-0.2-0.7-0.2-1
	c0-0.4,0.1-0.7,0.2-1c0.1-0.3,0.3-0.6,0.5-0.8c0.2-0.2,0.5-0.4,0.8-0.5c0.3-0.1,0.7-0.2,1-0.2c0.2,0,0.4,0,0.5,0.1
	c0.2,0,0.3,0.1,0.5,0.1c0.1,0.1,0.3,0.1,0.4,0.2c0.1,0.1,0.2,0.2,0.3,0.3l-0.4,0.5c0,0-0.1,0.1-0.1,0.1c0,0-0.1,0-0.1,0
	c0,0-0.1,0-0.1,0c0,0-0.1,0-0.1-0.1c0,0-0.1-0.1-0.1-0.1c0,0-0.1-0.1-0.2-0.1c-0.1,0-0.1-0.1-0.2-0.1c-0.1,0-0.2,0-0.3,0
	c-0.2,0-0.4,0-0.5,0.1c-0.2,0.1-0.3,0.2-0.4,0.3c-0.1,0.1-0.2,0.3-0.3,0.5c-0.1,0.2-0.1,0.4-0.1,0.7c0,0.3,0,0.5,0.1,0.7
	c0.1,0.2,0.2,0.4,0.3,0.5c0.1,0.1,0.3,0.2,0.4,0.3c0.2,0.1,0.3,0.1,0.5,0.1c0.1,0,0.2,0,0.3,0c0.1,0,0.2,0,0.2-0.1
	c0.1,0,0.1-0.1,0.2-0.1c0.1,0,0.1-0.1,0.2-0.2c0,0,0.1,0,0.1-0.1C8.3,111.2,8.4,111.2,8.4,111.2z M10.4,109.2
	c0.1-0.1,0.3-0.2,0.4-0.3c0.2-0.1,0.3-0.1,0.5-0.1c0.2,0,0.4,0,0.5,0.1c0.2,0.1,0.3,0.2,0.4,0.3c0.1,0.1,0.2,0.3,0.2,0.4
	c0.1,0.2,0.1,0.4,0.1,0.5v2.3h-1.1v-2.3c0-0.2,0-0.3-0.1-0.4c-0.1-0.1-0.2-0.2-0.4-0.2c-0.1,0-0.2,0-0.3,0.1c-0.1,0-0.2,0.1-0.3,0.2
	v2.6H9.3v-5.2h1.1V109.2z M15.1,111c-0.2,0-0.4,0-0.5,0.1c-0.1,0-0.3,0.1-0.3,0.1c-0.1,0-0.1,0.1-0.2,0.1c0,0.1,0,0.1,0,0.2
	c0,0.1,0,0.2,0.1,0.3c0.1,0,0.2,0.1,0.3,0.1c0.1,0,0.3,0,0.4-0.1c0.1,0,0.2-0.1,0.3-0.2V111z M13.1,109.4c0.2-0.2,0.5-0.3,0.7-0.4
	c0.3-0.1,0.6-0.1,0.9-0.1c0.2,0,0.4,0,0.6,0.1c0.2,0.1,0.3,0.2,0.4,0.3c0.1,0.1,0.2,0.3,0.3,0.5c0.1,0.2,0.1,0.4,0.1,0.6v2.3h-0.5
	c-0.1,0-0.2,0-0.2,0c-0.1,0-0.1-0.1-0.1-0.2l-0.1-0.2c-0.1,0.1-0.2,0.1-0.3,0.2c-0.1,0.1-0.2,0.1-0.3,0.2c-0.1,0-0.2,0.1-0.3,0.1
	c-0.1,0-0.2,0-0.3,0c-0.2,0-0.3,0-0.5-0.1c-0.1,0-0.3-0.1-0.3-0.2c-0.1-0.1-0.2-0.2-0.2-0.3c-0.1-0.1-0.1-0.3-0.1-0.4
	c0-0.1,0-0.3,0.1-0.4c0.1-0.1,0.2-0.3,0.3-0.4c0.2-0.1,0.4-0.2,0.7-0.3c0.3-0.1,0.6-0.1,1-0.1v-0.2c0-0.2,0-0.4-0.1-0.5
	c-0.1-0.1-0.2-0.1-0.4-0.1c-0.1,0-0.2,0-0.3,0c-0.1,0-0.2,0.1-0.2,0.1c-0.1,0-0.1,0.1-0.2,0.1c-0.1,0-0.1,0-0.2,0
	c-0.1,0-0.1,0-0.2-0.1c-0.1,0-0.1-0.1-0.1-0.1L13.1,109.4z M17.7,109.3c0.1-0.1,0.1-0.1,0.2-0.2c0.1-0.1,0.2-0.1,0.2-0.1
	c0.1,0,0.2-0.1,0.3-0.1c0.1,0,0.2,0,0.3,0c0.2,0,0.4,0,0.5,0.1c0.2,0.1,0.3,0.2,0.4,0.3c0.1,0.1,0.2,0.3,0.2,0.4
	c0.1,0.2,0.1,0.4,0.1,0.5v2.3h-1.1v-2.3c0-0.2,0-0.3-0.1-0.4c-0.1-0.1-0.2-0.2-0.4-0.2c-0.1,0-0.2,0-0.3,0.1c-0.1,0-0.2,0.1-0.3,0.2
	v2.6h-1.1v-3.6h0.7c0.1,0,0.2,0.1,0.3,0.2L17.7,109.3z M25.1,108.4c0,0.1-0.1,0.1-0.1,0.1c0,0-0.1,0-0.1,0c-0.1,0-0.1,0-0.2,0
	c-0.1,0-0.1-0.1-0.2-0.1c-0.1,0-0.2-0.1-0.3-0.1c-0.1,0-0.2-0.1-0.3-0.1c-0.2,0-0.4,0-0.5,0.1c-0.1,0.1-0.2,0.2-0.2,0.4
	c0,0.1,0,0.2,0.1,0.3c0.1,0.1,0.2,0.1,0.3,0.2c0.1,0,0.2,0.1,0.4,0.1c0.1,0,0.3,0.1,0.4,0.1c0.1,0,0.3,0.1,0.4,0.2
	c0.1,0.1,0.3,0.2,0.4,0.3c0.1,0.1,0.2,0.2,0.3,0.4c0.1,0.1,0.1,0.3,0.1,0.5c0,0.2,0,0.5-0.1,0.7c-0.1,0.2-0.2,0.4-0.4,0.5
	c-0.2,0.2-0.3,0.3-0.6,0.4c-0.2,0.1-0.5,0.1-0.8,0.1c-0.2,0-0.3,0-0.5,0c-0.2,0-0.3-0.1-0.5-0.1c-0.2-0.1-0.3-0.1-0.4-0.2
	c-0.1-0.1-0.3-0.2-0.4-0.3l0.4-0.6c0,0,0.1-0.1,0.1-0.1c0,0,0.1,0,0.2,0c0.1,0,0.1,0,0.2,0.1c0.1,0,0.2,0.1,0.2,0.1
	c0.1,0.1,0.2,0.1,0.3,0.1c0.1,0,0.3,0.1,0.4,0.1c0.2,0,0.4,0,0.5-0.1c0.1-0.1,0.2-0.2,0.2-0.5c0-0.1,0-0.2-0.1-0.3
	c-0.1-0.1-0.2-0.1-0.3-0.2c-0.1,0-0.2-0.1-0.4-0.1c-0.1,0-0.3-0.1-0.4-0.1c-0.1,0-0.3-0.1-0.4-0.2c-0.1-0.1-0.3-0.2-0.4-0.3
	c-0.1-0.1-0.2-0.2-0.3-0.4c-0.1-0.2-0.1-0.4-0.1-0.6c0-0.2,0-0.4,0.1-0.6c0.1-0.2,0.2-0.3,0.3-0.5c0.1-0.1,0.3-0.3,0.5-0.3
	c0.2-0.1,0.5-0.1,0.7-0.1c0.2,0,0.3,0,0.5,0c0.1,0,0.3,0.1,0.4,0.1c0.1,0,0.3,0.1,0.4,0.2c0.1,0.1,0.2,0.1,0.3,0.2L25.1,108.4z
	 M26.9,111.5c0.1,0.1,0.2,0.2,0.3,0.2c0.1,0,0.2,0.1,0.3,0.1c0.1,0,0.2,0,0.3-0.1c0.1,0,0.2-0.1,0.2-0.2c0.1-0.1,0.1-0.2,0.1-0.3
	s0.1-0.3,0.1-0.5c0-0.2,0-0.4,0-0.5c0-0.1-0.1-0.2-0.1-0.3c0-0.1-0.1-0.1-0.2-0.2c-0.1,0-0.1-0.1-0.2-0.1c-0.2,0-0.3,0-0.4,0.1
	c-0.1,0.1-0.2,0.1-0.3,0.3V111.5z M26.8,109.3c0.1-0.2,0.3-0.3,0.5-0.4c0.2-0.1,0.4-0.1,0.6-0.1c0.2,0,0.4,0,0.5,0.1
	c0.2,0.1,0.3,0.2,0.4,0.4c0.1,0.2,0.2,0.4,0.3,0.6c0.1,0.2,0.1,0.5,0.1,0.8c0,0.3,0,0.5-0.1,0.8c-0.1,0.2-0.2,0.4-0.3,0.6
	c-0.1,0.2-0.3,0.3-0.5,0.4c-0.2,0.1-0.4,0.1-0.6,0.1c-0.2,0-0.3,0-0.5-0.1c-0.1-0.1-0.2-0.1-0.4-0.2v1.4h-1.1v-4.8h0.7
	c0.1,0,0.2,0.1,0.3,0.2L26.8,109.3z M30.8,107.3v5.2h-1.1v-5.2H30.8z M32.6,108.9v3.6h-1.1v-3.6H32.6z M32.7,107.9
	c0,0.1,0,0.2-0.1,0.2c0,0.1-0.1,0.1-0.1,0.2c-0.1,0.1-0.1,0.1-0.2,0.1c-0.1,0-0.2,0-0.3,0c-0.1,0-0.2,0-0.2,0
	c-0.1,0-0.1-0.1-0.2-0.1c-0.1-0.1-0.1-0.1-0.1-0.2c0-0.1,0-0.2,0-0.2c0-0.1,0-0.2,0-0.2c0-0.1,0.1-0.1,0.1-0.2
	c0.1-0.1,0.1-0.1,0.2-0.1c0.1,0,0.2,0,0.2,0c0.1,0,0.2,0,0.3,0c0.1,0,0.2,0.1,0.2,0.1c0.1,0.1,0.1,0.1,0.1,0.2
	C32.7,107.7,32.7,107.8,32.7,107.9z M34.5,112.6c-0.2,0-0.3,0-0.5-0.1c-0.1-0.1-0.2-0.1-0.3-0.2c-0.1-0.1-0.2-0.2-0.2-0.3
	c0-0.1-0.1-0.3-0.1-0.4v-1.9h-0.3c-0.1,0-0.1,0-0.1-0.1c0,0-0.1-0.1-0.1-0.2V109l0.6-0.1l0.2-0.9c0-0.1,0.1-0.2,0.2-0.2h0.6v1.1h0.9
	v0.7h-0.9v1.8c0,0.1,0,0.2,0.1,0.2c0,0.1,0.1,0.1,0.2,0.1c0,0,0.1,0,0.1,0c0,0,0.1,0,0.1,0c0,0,0,0,0.1,0c0,0,0,0,0.1,0
	c0,0,0.1,0,0.1,0c0,0,0,0,0.1,0.1l0.3,0.5c-0.1,0.1-0.3,0.2-0.5,0.2C34.9,112.5,34.7,112.6,34.5,112.6z"/>
<path class="st0" d="M3.5,158h33c0.6,0,1,0.4,1,1v6c0,0.6-0.4,1-1,1h-33c-0.6,0-1-0.4-1-1v-6C2.5,158.4,2.9,158,3.5,158z"/>
<path class="st1" d="M3.5,158h33c0.6,0,1,0.4,1,1v6c0,0.6-0.4,1-1,1h-33c-0.6,0-1-0.4-1-1v-6C2.5,158.4,2.9,158,3.5,158z"/>
<path class="st2" d="M17.9,161.9c0,0.4-0.1,0.7-0.2,1c-0.1,0.3-0.3,0.6-0.5,0.8c-0.2,0.2-0.5,0.4-0.8,0.5c-0.3,0.1-0.7,0.2-1.1,0.2
	h-2v-5.1h2c0.4,0,0.8,0.1,1.1,0.2c0.3,0.1,0.6,0.3,0.8,0.5c0.2,0.2,0.4,0.5,0.5,0.8C17.9,161.2,17.9,161.6,17.9,161.9z M16.7,161.9
	c0-0.3,0-0.5-0.1-0.7c-0.1-0.2-0.2-0.4-0.3-0.5c-0.1-0.1-0.3-0.3-0.4-0.3c-0.2-0.1-0.4-0.1-0.6-0.1h-0.8v3.3h0.8
	c0.2,0,0.4,0,0.6-0.1c0.2-0.1,0.3-0.2,0.4-0.3c0.1-0.1,0.2-0.3,0.3-0.5S16.7,162.2,16.7,161.9z M21.6,160.9v3.6h-0.7
	c-0.1,0-0.2-0.1-0.3-0.2l-0.1-0.2c-0.1,0.1-0.1,0.1-0.2,0.2c-0.1,0.1-0.2,0.1-0.2,0.1c-0.1,0-0.2,0.1-0.3,0.1c-0.1,0-0.2,0-0.3,0
	c-0.2,0-0.4,0-0.5-0.1c-0.2-0.1-0.3-0.2-0.4-0.3c-0.1-0.1-0.2-0.3-0.2-0.4c-0.1-0.2-0.1-0.4-0.1-0.6v-2.3h1.1v2.3
	c0,0.2,0,0.3,0.1,0.4c0.1,0.1,0.2,0.1,0.4,0.1c0.1,0,0.2,0,0.3-0.1c0.1-0.1,0.2-0.1,0.3-0.2v-2.6H21.6z M24.1,163
	c-0.2,0-0.4,0-0.5,0.1s-0.3,0.1-0.3,0.1c-0.1,0-0.1,0.1-0.2,0.1c0,0.1,0,0.1,0,0.2c0,0.1,0,0.2,0.1,0.3c0.1,0,0.2,0.1,0.3,0.1
	c0.1,0,0.3,0,0.4-0.1c0.1,0,0.2-0.1,0.3-0.2V163z M22.2,161.4c0.2-0.2,0.5-0.3,0.7-0.4c0.3-0.1,0.6-0.1,0.9-0.1c0.2,0,0.4,0,0.6,0.1
	c0.2,0.1,0.3,0.2,0.4,0.3c0.1,0.1,0.2,0.3,0.3,0.5c0.1,0.2,0.1,0.4,0.1,0.6v2.3h-0.5c-0.1,0-0.2,0-0.2,0c-0.1,0-0.1-0.1-0.1-0.2
	l-0.1-0.2c-0.1,0.1-0.2,0.1-0.3,0.2c-0.1,0.1-0.2,0.1-0.3,0.2c-0.1,0-0.2,0.1-0.3,0.1c-0.1,0-0.2,0-0.3,0c-0.2,0-0.3,0-0.5-0.1
	c-0.1,0-0.3-0.1-0.3-0.2c-0.1-0.1-0.2-0.2-0.2-0.3c-0.1-0.1-0.1-0.3-0.1-0.4c0-0.1,0-0.3,0.1-0.4c0.1-0.1,0.2-0.3,0.3-0.4
	c0.2-0.1,0.4-0.2,0.7-0.3c0.3-0.1,0.6-0.1,1-0.1v-0.2c0-0.2,0-0.4-0.1-0.5c-0.1-0.1-0.2-0.1-0.4-0.1c-0.1,0-0.2,0-0.3,0
	c-0.1,0-0.2,0.1-0.2,0.1c-0.1,0-0.1,0.1-0.2,0.1c-0.1,0-0.1,0-0.2,0c-0.1,0-0.1,0-0.2-0.1c-0.1,0-0.1-0.1-0.1-0.1L22.2,161.4z
	 M26.8,159.3v5.2h-1.1v-5.2H26.8z"/>
</svg>
