<?xml version="1.0" encoding="utf-8"?>
<!-- Generator: Adobe Illustrator 23.0.0, SVG Export Plug-In . SVG Version: 6.00 Build 0)  -->
<svg version="1.1" id="Layer_1" xmlns="http://www.w3.org/2000/svg" xmlns:xlink="http://www.w3.org/1999/xlink" x="0px" y="0px"
	 viewBox="0 0 50 15" style="enable-background:new 0 0 50 15;" xml:space="preserve">
<style type="text/css">
	.st0{fill:#399DFF;stroke:#399DFF;stroke-width:2;stroke-miterlimit:10;}
	.st1{display:none;fill:none;stroke:#399DFF;}
	.st2{fill:#FFFFFF;}
	.st3{fill:#FF9000;}
</style>
<g>
	<path class="st0" d="M3.5,13.5c-1.1,0-2-0.9-2-2v-8c0-1.1,0.9-2,2-2h43c1.1,0,2,0.9,2,2v8c0,1.1-0.9,2-2,2H3.5z"/>
	<path class="st0" d="M46.5,2.5c0.6,0,1,0.4,1,1v8c0,0.6-0.4,1-1,1h-43c-0.6,0-1-0.4-1-1v-8c0-0.6,0.4-1,1-1H46.5 M46.5,0.5h-43
		c-1.7,0-3,1.3-3,3v8c0,1.7,1.3,3,3,3h43c1.7,0,3-1.3,3-3v-8C49.5,1.8,48.2,0.5,46.5,0.5L46.5,0.5z"/>
</g>
<path class="st1" d="M3.5,2.5h43c0.6,0,1,0.4,1,1v8c0,0.6-0.4,1-1,1h-43c-0.6,0-1-0.4-1-1v-8C2.5,2.9,2.9,2.5,3.5,2.5z"/>
<path class="st2" d="M25.4,3.7V11h-1.5V6.8c0-0.1,0-0.2,0-0.3c0-0.1,0-0.2,0-0.3L22,9.9c-0.1,0.1-0.1,0.2-0.2,0.3s-0.2,0.1-0.3,0.1
	h-0.2c-0.1,0-0.2,0-0.4-0.1c-0.1-0.1-0.2-0.1-0.2-0.3l-1.9-3.8c0,0.1,0,0.2,0,0.4c0,0.1,0,0.2,0,0.3V11h-1.5V3.7h1.3
	c0.1,0,0.1,0,0.2,0s0.1,0,0.1,0s0.1,0,0.1,0.1l0.1,0.1L21,7.6c0.1,0.1,0.1,0.3,0.2,0.4c0.1,0.1,0.1,0.3,0.2,0.4
	c0.1-0.1,0.1-0.3,0.2-0.4s0.1-0.3,0.2-0.4L23.6,4c0-0.1,0.1-0.1,0.1-0.1l0.1-0.1h0.1c0.1,0,0.1,0,0.2,0h1.3V3.7z M29.7,7.8
	c0-0.1,0-0.2-0.1-0.4c0-0.1-0.1-0.2-0.2-0.3c-0.1-0.1-0.2-0.2-0.3-0.2c-0.1-0.1-0.3-0.1-0.4-0.1c-0.3,0-0.5,0.1-0.7,0.3
	c-0.2,0.2-0.3,0.4-0.3,0.7H29.7z M27.8,8.7c0,0.4,0.2,0.7,0.4,0.9c0.2,0.2,0.5,0.3,0.8,0.3c0.2,0,0.3,0,0.5-0.1
	c0.1,0,0.2-0.1,0.3-0.1c0.1-0.1,0.2-0.1,0.3-0.1c0.1,0,0.2-0.1,0.3-0.1c0.1,0,0.2,0,0.3,0.1l0.4,0.6c-0.2,0.2-0.3,0.3-0.5,0.5
	c-0.2,0.1-0.4,0.2-0.6,0.3c-0.2,0-0.4,0-0.6,0s-0.4,0-0.6,0c-0.4,0-0.7-0.1-1-0.2c-0.3-0.1-0.6-0.3-0.8-0.5
	c-0.2-0.2-0.4-0.5-0.6-0.9c-0.1-0.3-0.2-0.8-0.2-1.2c0-0.3,0.1-0.7,0.2-1s0.3-0.6,0.5-0.8c0.2-0.2,0.5-0.4,0.8-0.6
	c0.3-0.1,0.7-0.2,1.1-0.2c0.3,0,0.7,0.1,0.9,0.2C30,6,30.2,6.2,30.4,6.4c0.2,0.2,0.4,0.5,0.5,0.8s0.2,0.6,0.2,1c0,0.1,0,0.2,0,0.3
	s0,0.1-0.1,0.2l-0.1,0.1c0,0-0.1,0-0.2,0h-2.9V8.7z M33.3,6.4c0.1-0.1,0.2-0.2,0.3-0.3C33.7,6,33.8,6,33.9,5.9
	c0.1-0.1,0.3-0.1,0.4-0.1c0.1,0,0.3,0,0.5,0c0.3,0,0.5,0,0.8,0.2c0.2,0,0.4,0.1,0.5,0.3c0.1,0.2,0.3,0.4,0.3,0.6
	c0.1,0.2,0.1,0.5,0.1,0.8V11H35V7.7c0-0.3-0.1-0.4-0.2-0.6c-0.1-0.1-0.3-0.2-0.5-0.2S34,6.9,33.8,7c-0.1,0.1-0.3,0.2-0.4,0.3V11
	h-1.6V5.8h1c0.2,0,0.3,0.1,0.4,0.3L33.3,6.4z M42.2,5.8V11h-1c-0.2,0-0.3-0.1-0.4-0.3l-0.1-0.3c-0.1,0.1-0.2,0.2-0.3,0.3
	s-0.2,0.1-0.3,0.2C40,11,39.9,11,39.7,11c-0.1,0-0.3,0.1-0.5,0.1c-0.3,0-0.5,0-0.8-0.1c-0.2-0.1-0.4-0.2-0.6-0.4
	c-0.1-0.2-0.3-0.4-0.3-0.6c-0.1-0.2-0.1-0.5-0.1-0.8V5.8h1.5v3.3c0,0.3,0.1,0.5,0.2,0.6c0.1,0.1,0.3,0.2,0.5,0.2s0.3,0,0.5-0.1
	c0.1-0.1,0.3-0.2,0.4-0.3V5.8H42.2z"/>
<path class="st3" d="M11.1,4.8l2.1,1.1V3.8h-7C5.9,3.8,5.6,4,5.6,4.2v4.2L7,8.7c0.1,0,0.1,0,0.2-0.1l0.4-1c0-0.1,0.1-0.1,0.2-0.1
	l3.4,1.8c0.1,0.1,0,0.2-0.1,0.2L8.4,9H8.3L8,10c0,0.1-0.1,0.1-0.2,0.1L5.6,9v2.3h6.9c0.3,0,0.6-0.2,0.6-0.5V6.5l-1.4-0.3
	c-0.1,0-0.1,0-0.2,0.1l-0.4,1c0,0.1-0.1,0.1-0.2,0.1L7.6,5.6c-0.1-0.1,0-0.2,0.1-0.2L10.3,6c0.1,0,0.1,0,0.2-0.1l0.4-1
	C10.9,4.8,11,4.8,11.1,4.8z"/>
</svg>
