<?xml version="1.0" encoding="utf-8"?>
<!-- Generator: Adobe Illustrator 23.0.0, SVG Export Plug-In . SVG Version: 6.00 Build 0)  -->
<svg version="1.1" id="Layer_1" xmlns="http://www.w3.org/2000/svg" xmlns:xlink="http://www.w3.org/1999/xlink" x="0px" y="0px"
	 viewBox="0 0 49 28" style="enable-background:new 0 0 49 28;" xml:space="preserve">
<style type="text/css">
	.st0{fill:#FF9000;}
	.st1{fill:none;stroke:#FF9000;}
	.st2{fill:#399DFF;}
	.st3{fill:none;stroke:#FFFFFF;}
	.st4{fill:#FFFFFF;}
</style>
<path class="st0" d="M3.5,2.5h42c0.6,0,1,0.4,1,1v7c0,0.6-0.4,1-1,1h-42c-0.6,0-1-0.4-1-1v-7C2.5,2.9,2.9,2.5,3.5,2.5z"/>
<path class="st1" d="M3.5,2.5h42c0.6,0,1,0.4,1,1v7c0,0.6-0.4,1-1,1h-42c-0.6,0-1-0.4-1-1v-7C2.5,2.9,2.9,2.5,3.5,2.5z"/>
<path d="M11.7,4.2V10h-1.4V7.5H7.9V10H6.6V4.2H8v2.4h2.4V4.2H11.7z M14.3,5.8c0.3,0,0.6,0,0.9,0.1c0.3,0.1,0.5,0.2,0.7,0.4
	C16,6.5,16.2,6.8,16.3,7c0.1,0.3,0.2,0.6,0.2,0.9c0,0.3-0.1,0.6-0.2,0.9s-0.2,0.5-0.4,0.7c-0.2,0.2-0.4,0.3-0.7,0.4
	C14.9,10,14.7,10,14.3,10c-0.3,0-0.6,0-0.9-0.1c-0.3-0.1-0.5-0.2-0.7-0.4s-0.3-0.4-0.4-0.7c-0.1-0.3-0.2-0.6-0.2-0.9
	c0-0.3,0.1-0.6,0.2-0.9c0.1-0.3,0.2-0.5,0.4-0.7C13,6.2,13.2,6,13.5,5.9C13.7,5.8,14,5.8,14.3,5.8z M14.3,9.1c0.3,0,0.5-0.1,0.6-0.3
	s0.2-0.5,0.2-0.9S15,7.2,14.9,7c-0.1-0.2-0.3-0.3-0.6-0.3S13.8,6.8,13.7,7c-0.1,0.2-0.2,0.5-0.2,0.9s0.1,0.7,0.2,0.9
	C13.8,9,14,9.1,14.3,9.1z M18.1,6.5c0.1-0.2,0.3-0.4,0.4-0.5c0.2-0.1,0.4-0.2,0.6-0.2s0.3,0,0.5,0.1l-0.1,0.9c0,0.1,0,0.1-0.1,0.1
	h-0.1c0,0,0,0-0.1,0h-0.1H19h-0.1c-0.2,0-0.3,0-0.4,0.1s-0.2,0.2-0.3,0.4V10H17V5.9h0.7c0.1,0,0.1,0,0.2,0c0,0,0.1,0,0.1,0.1
	c0-0.1,0,0,0,0v0.1L18.1,6.5z M21.1,5.9V10h-1.2V5.9H21.1z M21.3,4.7c0,0.1,0,0.2-0.1,0.3c0,0.1-0.1,0.2-0.2,0.2
	c-0.1,0.1-0.2,0.1-0.2,0.2c-0.1,0-0.2,0.1-0.3,0.1c-0.1,0-0.2,0-0.3-0.1c-0.1,0-0.2-0.1-0.2-0.2c-0.1-0.1-0.1-0.1-0.2-0.2
	c0-0.1-0.1-0.2-0.1-0.3c0-0.1,0-0.2,0.1-0.3c0-0.1,0.1-0.2,0.2-0.2c0.1-0.1,0.1-0.1,0.2-0.2c0.1,0,0.2,0,0.3,0s0.2,0,0.3,0.1
	c0.1,0,0.2,0.1,0.2,0.2c0.1,0.1,0.1,0.1,0.2,0.2C21.3,4.5,21.3,4.6,21.3,4.7z M25,6.3c0,0.1,0,0.2,0,0.2c0,0.1-0.1,0.1-0.1,0.2
	L23.2,9h1.9v1h-3.3V9.5c0-0.1,0-0.1,0-0.2c0-0.1,0.1-0.1,0.1-0.2l1.7-2.3h-1.8V5.9H25V6.3z M27.3,5.8c0.3,0,0.6,0,0.9,0.1
	s0.5,0.2,0.7,0.4c0.2,0.2,0.3,0.4,0.4,0.7c0.1,0.3,0.2,0.6,0.2,0.9c0,0.3-0.1,0.6-0.2,0.9s-0.2,0.5-0.4,0.7
	c-0.2,0.2-0.4,0.3-0.7,0.4C27.9,10,27.7,10,27.3,10c-0.3,0-0.6,0-0.9-0.1s-0.5-0.2-0.7-0.4s-0.3-0.4-0.4-0.7s-0.2-0.6-0.2-0.9
	c0-0.3,0.1-0.6,0.2-0.9s0.2-0.5,0.4-0.7C26,6.2,26.2,6,26.5,5.9C26.7,5.8,27,5.8,27.3,5.8z M27.3,9.1c0.3,0,0.5-0.1,0.6-0.3
	s0.2-0.5,0.2-0.9S28,7.2,27.9,7c-0.1-0.2-0.3-0.3-0.6-0.3c-0.3,0-0.5,0.1-0.6,0.3c-0.1,0.2-0.2,0.5-0.2,0.9s0.1,0.7,0.2,0.9
	S27,9.1,27.3,9.1z M31.1,6.3c0.1-0.1,0.2-0.1,0.2-0.2C31.4,6,31.5,6,31.6,5.9c0.1,0,0.2-0.1,0.3-0.1c0.1,0,0.2,0,0.4,0
	s0.4,0,0.6,0.1c0.2,0.1,0.3,0.2,0.4,0.3c0.1,0.1,0.2,0.3,0.3,0.5s0.1,0.4,0.1,0.6V10h-1.2V7.4c0-0.2,0-0.4-0.1-0.5S32.2,6.7,32,6.7
	c-0.1,0-0.3,0-0.4,0.1S31.4,6.9,31.3,7v3H30V5.9h0.8c0.2,0,0.3,0.1,0.3,0.2L31.1,6.3z M35.8,10.1c-0.2,0-0.4,0-0.5-0.1
	S35,9.9,34.9,9.8c-0.1-0.1-0.2-0.2-0.2-0.4c-0.1-0.1-0.1-0.3-0.1-0.5V6.7h-0.4c-0.1,0-0.1,0-0.2-0.1c0,0-0.1-0.1-0.1-0.2V6l0.7-0.1
	l0.2-1c0-0.1,0.1-0.2,0.3-0.2h0.6v1.2h1v0.8h-1v2.1c0,0.1,0,0.2,0.1,0.2c0,0.1,0.1,0.1,0.2,0.1h0.1h0.1c0,0,0,0,0.1,0c0,0,0,0,0.1,0
	h0.1c0,0,0,0,0.1,0.1L37,9.7c-0.2,0.1-0.3,0.2-0.5,0.3C36.3,10,36,10.1,35.8,10.1z M39.4,8.3c-0.2,0-0.5,0-0.6,0.1
	c-0.2,0-0.3,0.1-0.4,0.1c-0.1,0-0.2,0.1-0.2,0.2c0,0.1-0.1,0.1-0.1,0.2c0,0.1,0,0.2,0.1,0.3s0.2,0.1,0.3,0.1c0.2,0,0.3,0,0.4-0.1
	c0.1-0.1,0.2-0.1,0.4-0.3L39.4,8.3L39.4,8.3z M37.2,6.4C37.5,6.2,37.7,6,38,5.9s0.6-0.2,1-0.2c0.3,0,0.5,0,0.7,0.1s0.4,0.2,0.5,0.3
	c0.1,0.1,0.2,0.3,0.3,0.5s0.1,0.4,0.1,0.7V10H40c-0.1,0-0.2,0-0.3,0s-0.1-0.1-0.1-0.2l-0.1-0.2c-0.1,0.1-0.2,0.2-0.3,0.2
	C39.1,9.9,39,9.9,38.9,10c-0.1,0-0.2,0.1-0.3,0.1s-0.2,0-0.4,0s-0.4,0-0.5-0.1c-0.2-0.1-0.3-0.1-0.4-0.2c-0.1-0.1-0.2-0.2-0.2-0.4
	C37,9.3,37,9.1,37,8.9c0-0.1,0-0.3,0.1-0.5s0.2-0.3,0.4-0.4s0.4-0.2,0.7-0.3s0.7-0.1,1.2-0.1V7.4c0-0.2-0.1-0.4-0.2-0.5
	c-0.1-0.1-0.2-0.2-0.4-0.2c-0.1,0-0.3,0-0.4,0c-0.1,0-0.2,0.1-0.3,0.1C38.2,6.9,38.1,7,38,7s-0.2,0-0.2,0c-0.1,0-0.2,0-0.2-0.1
	c-0.1,0-0.1-0.1-0.1-0.2L37.2,6.4z M42.6,4v6h-1.2V4H42.6z"/>
<path class="st2" d="M2.5,15.5h44c0.6,0,1,0.4,1,1v9c0,0.6-0.4,1-1,1h-44c-0.6,0-1-0.4-1-1v-9C1.5,15.9,1.9,15.5,2.5,15.5z"/>
<path class="st3" d="M2.5,15.5h44c0.6,0,1,0.4,1,1v9c0,0.6-0.4,1-1,1h-44c-0.6,0-1-0.4-1-1v-9C1.5,15.9,1.9,15.5,2.5,15.5z"/>
<path class="st4" d="M11.7,18.2V24h-1.4v-2.5H7.9V24H6.6v-5.8H8v2.4h2.4v-2.4H11.7z M14.3,19.8c0.3,0,0.6,0,0.9,0.1
	c0.3,0.1,0.5,0.2,0.7,0.4c0.2,0.2,0.3,0.4,0.4,0.7c0.1,0.3,0.2,0.6,0.2,0.9s-0.1,0.6-0.2,0.9s-0.2,0.5-0.4,0.7
	c-0.2,0.2-0.4,0.3-0.7,0.4S14.7,24,14.3,24c-0.3,0-0.6,0-0.9-0.1c-0.3-0.1-0.5-0.2-0.7-0.4c-0.2-0.2-0.3-0.4-0.4-0.7
	c-0.1-0.3-0.2-0.6-0.2-0.9s0.1-0.6,0.2-0.9c0.1-0.3,0.2-0.5,0.4-0.7s0.4-0.3,0.7-0.4C13.7,19.8,14,19.8,14.3,19.8z M14.3,23.1
	c0.3,0,0.5-0.1,0.6-0.3c0.1-0.2,0.2-0.5,0.2-0.9s0-0.7-0.1-0.9s-0.3-0.3-0.6-0.3s-0.5,0.1-0.6,0.3c-0.1,0.2-0.2,0.5-0.2,0.9
	s0.1,0.7,0.2,0.9C13.8,23,14,23.1,14.3,23.1z M18.1,20.5c0.1-0.2,0.3-0.4,0.4-0.5c0.2-0.1,0.4-0.2,0.6-0.2s0.3,0,0.5,0.1l-0.1,0.9
	c0,0.1,0,0.1-0.1,0.1h-0.1c0,0,0,0-0.1,0h-0.1H19h-0.1c-0.2,0-0.3,0-0.4,0.1s-0.2,0.2-0.3,0.4V24H17v-4.1h0.7c0.1,0,0.1,0,0.2,0
	c0,0,0.1,0,0.1,0.1l0.1,0.1v0.1V20.5z M21.1,19.9V24h-1.2v-4.1H21.1z M21.3,18.7c0,0.1,0,0.2-0.1,0.3c0,0.1-0.1,0.2-0.2,0.2
	c-0.1,0.1-0.2,0.1-0.2,0.2c-0.1,0-0.2,0.1-0.3,0.1c-0.1,0-0.2,0-0.3-0.1c-0.1,0-0.2-0.1-0.2-0.2c-0.1-0.1-0.1-0.1-0.2-0.2
	c0-0.1-0.1-0.2-0.1-0.3c0-0.1,0-0.2,0.1-0.3c0-0.1,0.1-0.2,0.2-0.2c0.1-0.1,0.1-0.1,0.2-0.2c0.1,0,0.2-0.1,0.3-0.1
	c0.1,0,0.2,0,0.3,0.1c0.1,0,0.2,0.1,0.2,0.2c0.1,0.1,0.1,0.1,0.2,0.2C21.3,18.5,21.3,18.6,21.3,18.7z M25,20.3c0,0.1,0,0.2,0,0.2
	c0,0.1-0.1,0.1-0.1,0.2L23.2,23h1.9v1h-3.3v-0.5c0-0.1,0-0.1,0-0.2s0.1-0.1,0.1-0.2l1.7-2.3h-1.8v-0.9H25V20.3z M27.3,19.8
	c0.3,0,0.6,0,0.9,0.1s0.5,0.2,0.7,0.4c0.2,0.2,0.3,0.4,0.4,0.7c0.1,0.3,0.2,0.6,0.2,0.9s-0.1,0.6-0.2,0.9s-0.2,0.5-0.4,0.7
	c-0.2,0.2-0.4,0.3-0.7,0.4C27.9,24,27.7,24,27.3,24c-0.3,0-0.6,0-0.9-0.1s-0.5-0.2-0.7-0.4c-0.2-0.2-0.3-0.4-0.4-0.7
	c-0.1-0.3-0.2-0.6-0.2-0.9s0.1-0.6,0.2-0.9s0.2-0.5,0.4-0.7c0.2-0.2,0.4-0.3,0.7-0.4S27,19.8,27.3,19.8z M27.3,23.1
	c0.3,0,0.5-0.1,0.6-0.3c0.1-0.2,0.2-0.5,0.2-0.9s0-0.7-0.1-0.9s-0.3-0.3-0.6-0.3c-0.3,0-0.5,0.1-0.6,0.3c-0.1,0.2-0.2,0.5-0.2,0.9
	s0.1,0.7,0.2,0.9C26.8,23,27,23.1,27.3,23.1z M31.1,20.3c0.1-0.1,0.2-0.1,0.2-0.2c0.1-0.1,0.2-0.1,0.3-0.2c0.1,0,0.2-0.1,0.3-0.1
	c0.1,0,0.2,0,0.4,0s0.4,0,0.6,0.1c0.2,0.1,0.3,0.2,0.4,0.3c0.1,0.1,0.2,0.3,0.3,0.5s0.1,0.4,0.1,0.6V24h-1.2v-2.6
	c0-0.2,0-0.4-0.1-0.5s-0.2-0.2-0.4-0.2c-0.1,0-0.3,0-0.4,0.1s-0.2,0.1-0.3,0.2v3H30v-4.1h0.8c0.2,0,0.3,0.1,0.3,0.2L31.1,20.3z
	 M35.8,24.1c-0.2,0-0.4,0-0.5-0.1s-0.3-0.1-0.4-0.2c-0.1-0.1-0.2-0.2-0.2-0.4c-0.1-0.1-0.1-0.3-0.1-0.5v-2.1h-0.4
	c-0.1,0-0.1,0-0.2-0.1c0,0-0.1-0.1-0.1-0.2V20l0.7-0.1l0.2-1c0-0.1,0.1-0.2,0.3-0.2h0.6v1.2h1v0.8h-1v2.1c0,0.1,0,0.2,0.1,0.2
	c0,0.1,0.1,0.1,0.2,0.1h0.1h0.1c0,0,0,0,0.1,0c0,0,0,0,0.1,0h0.1c0,0,0,0,0.1,0.1l0.4,0.6c-0.2,0.1-0.3,0.2-0.5,0.3
	C36.3,24,36,24.1,35.8,24.1z M39.4,22.3c-0.2,0-0.5,0-0.6,0.1c-0.2,0-0.3,0.1-0.4,0.1c-0.1,0-0.2,0.1-0.2,0.2s-0.1,0.1-0.1,0.2
	s0,0.2,0.1,0.3c0.1,0.1,0.2,0.1,0.3,0.1c0.2,0,0.3,0,0.4-0.1c0.1-0.1,0.2-0.1,0.4-0.3L39.4,22.3L39.4,22.3z M37.2,20.4
	c0.3-0.2,0.5-0.4,0.8-0.5s0.6-0.2,1-0.2c0.3,0,0.5,0,0.7,0.1s0.4,0.2,0.5,0.3c0.1,0.1,0.2,0.3,0.3,0.5s0.1,0.4,0.1,0.7V24H40
	c-0.1,0-0.2,0-0.3,0s-0.1-0.1-0.1-0.2l-0.1-0.2c-0.1,0.1-0.2,0.2-0.3,0.2S39,23.9,38.9,24c-0.1,0-0.2,0.1-0.3,0.1s-0.2,0-0.4,0
	s-0.4,0-0.5-0.1c-0.2-0.1-0.3-0.1-0.4-0.2c-0.1-0.1-0.2-0.2-0.2-0.4C37,23.3,37,23.1,37,22.9c0-0.1,0-0.3,0.1-0.5s0.2-0.3,0.4-0.4
	s0.4-0.2,0.7-0.3c0.3-0.1,0.7-0.1,1.2-0.1v-0.2c0-0.2-0.1-0.4-0.2-0.5c-0.1-0.1-0.2-0.2-0.4-0.2c-0.1,0-0.3,0-0.4,0
	c-0.1,0-0.2,0.1-0.3,0.1s-0.1,0.1-0.2,0.1c-0.1,0-0.2,0-0.2,0c-0.1,0-0.2,0-0.2-0.1c-0.1,0-0.1-0.1-0.1-0.2L37.2,20.4z M42.6,18v6
	h-1.2v-6H42.6z"/>
</svg>
