<?xml version="1.0" encoding="utf-8"?>
<!-- Generator: Adobe Illustrator 23.0.0, SVG Export Plug-In . SVG Version: 6.00 Build 0)  -->
<svg version="1.1" id="Layer_1" xmlns="http://www.w3.org/2000/svg" xmlns:xlink="http://www.w3.org/1999/xlink" x="0px" y="0px"
	 viewBox="0 0 30 13" style="enable-background:new 0 0 30 13;" xml:space="preserve">
<style type="text/css">
	.st0{fill:#399DFF;}
</style>
<g>
	<path class="st0" d="M3.7,11.6c-1.1,0-2-0.9-2-2v-6c0-1.1,0.9-2,2-2h23c1.1,0,2,0.9,2,2v6c0,1.1-0.9,2-2,2H3.7z"/>
	<path class="st0" d="M26.7,2.5c0.6,0,1,0.4,1,1v6c0,0.6-0.4,1-1,1h-23c-0.6,0-1-0.4-1-1v-6c0-0.6,0.4-1,1-1H26.7 M26.7,0.4h-23
		c-1.7,0-3.1,1.4-3.1,3.1v6c0,1.7,1.4,3.1,3.1,3.1h23c1.7,0,3.1-1.4,3.1-3.1v-6C29.8,1.8,28.4,0.4,26.7,0.4L26.7,0.4z"/>
</g>
</svg>
