<?xml version="1.0" encoding="utf-8"?>
<!-- Generator: Adobe Illustrator 23.0.0, SVG Export Plug-In . SVG Version: 6.00 Build 0)  -->
<svg version="1.1" id="Layer_1" xmlns="http://www.w3.org/2000/svg" xmlns:xlink="http://www.w3.org/1999/xlink" x="0px" y="0px"
	 viewBox="0 0 47 20" style="enable-background:new 0 0 47 20;" xml:space="preserve">
<style type="text/css">
	.st0{fill:#399DFF;stroke:#399DFF;stroke-width:2;stroke-miterlimit:10;}
	.st1{fill:none;stroke:#399DFF;}
	.st2{fill:#FFFFFF;}
	.st3{fill:#FF9300;stroke:#FF9300;stroke-width:2;stroke-miterlimit:10;}
	.st4{display:none;fill:none;stroke:#FFFFFF;}
</style>
<path class="st0" d="M2.5,1h42c0.6,0,1,0.4,1,1v6c0,0.6-0.4,1-1,1h-42c-0.6,0-1-0.4-1-1V2C1.5,1.4,1.9,1,2.5,1z"/>
<path class="st1" d="M2.5,1h42c0.6,0,1,0.4,1,1v6c0,0.6-0.4,1-1,1h-42c-0.6,0-1-0.4-1-1V2C1.5,1.4,1.9,1,2.5,1z"/>
<path class="st2" d="M4.8,5H5c0.2,0,0.3,0,0.4-0.2l1.3-1.9C6.8,2.8,6.9,2.8,7,2.7c0.1,0,0.2-0.1,0.3-0.1h1.2L6.8,5
	C6.7,5.2,6.5,5.3,6.4,5.4c0.1,0,0.2,0.1,0.3,0.2c0.1,0.1,0.2,0.2,0.2,0.3l1.8,2.7H7.4c-0.1,0-0.1,0-0.2,0s-0.1,0-0.1,0L7,8.4
	L6.9,8.3l-1.3-2c0-0.1-0.1-0.1-0.2-0.2C5.3,6,5.2,6,5.1,6H4.8v2.5H3.4V2.7h1.4V5z M10.3,3.7v1.4h1.8v1h-1.8v1.4h2.4v1H9V2.7h3.8v1
	H10.3z M16.2,6.3v2.2h-1.4V6.3l-2.1-3.6h1.2c0.1,0,0.2,0,0.3,0.1s0.1,0.1,0.2,0.2l0.8,1.7c0.1,0.1,0.1,0.3,0.2,0.4
	c0.1,0.1,0.1,0.2,0.1,0.3c0-0.1,0.1-0.2,0.1-0.3c0.1-0.1,0.1-0.2,0.2-0.4L16.7,3c0,0,0-0.1,0.1-0.1l0.1-0.1L17,2.7c0,0,0.1,0,0.2,0
	h1.2L16.2,6.3z M22.9,3.7h-1.6v4.8h-1.4V3.7h-1.6v-1h4.6V3.7z M25.3,5.4c0.2,0,0.3,0,0.5-0.1c0.1,0,0.2-0.1,0.3-0.2
	c0.1-0.1,0.1-0.2,0.2-0.3c0-0.1,0.1-0.2,0.1-0.4c0-0.3-0.1-0.5-0.3-0.6c-0.2-0.1-0.4-0.2-0.8-0.2h-0.5v1.7L25.3,5.4L25.3,5.4z
	 M28.2,8.5H27c-0.2,0-0.4-0.1-0.5-0.3l-1-1.7c0-0.1-0.1-0.1-0.2-0.2c-0.1,0-0.1-0.1-0.2-0.1h-0.3v2.2h-1.4V2.7h1.9
	c0.4,0,0.8,0,1.1,0.1c0.3,0.1,0.5,0.2,0.7,0.4s0.3,0.3,0.4,0.5s0.1,0.4,0.1,0.7c0,0.2,0,0.4-0.1,0.5c-0.1,0.2-0.1,0.3-0.2,0.5
	c-0.1,0.1-0.2,0.3-0.4,0.4c-0.1,0.1-0.3,0.2-0.5,0.3c0.1,0,0.2,0.1,0.2,0.2c0.1,0.1,0.1,0.1,0.2,0.2L28.2,8.5z M31.6,6.3l-0.5-1.6
	c0-0.1-0.1-0.2-0.1-0.4c0-0.1-0.1-0.3-0.1-0.4c0,0.2-0.1,0.3-0.1,0.5c0,0.1-0.1,0.3-0.1,0.4L30,6.3H31.6z M33.8,8.5h-1
	c-0.1,0-0.2,0-0.3-0.1s-0.1-0.1-0.2-0.2l-0.3-1h-2.2l-0.3,1c0,0.1-0.1,0.1-0.2,0.2c-0.1,0.1-0.2,0.1-0.3,0.1h-1.1l2.3-5.8h1.4
	L33.8,8.5z M37.9,7L37.9,7C38,7,38,7,37.9,7l0.6,0.7C38.3,8,38,8.2,37.6,8.4s-0.8,0.2-1.3,0.2c-0.4,0-0.8-0.1-1.2-0.2
	c-0.3-0.2-0.6-0.4-0.9-0.6c-0.2-0.3-0.4-0.6-0.6-0.9c-0.1-0.4-0.2-0.8-0.2-1.2c0-0.4,0.1-0.8,0.2-1.2C34,4,34.2,3.7,34.4,3.4
	C34.7,3.2,35,3,35.3,2.8c0.4-0.1,0.8-0.2,1.2-0.2c0.2,0,0.4,0,0.6,0.1c0.2,0,0.4,0.1,0.5,0.2c0.2,0,0.4,0.1,0.5,0.2s0.3,0.2,0.4,0.3
	L38.1,4C38,4,38,4.1,38,4.1s-0.1,0-0.2,0h-0.1c0,0-0.1,0-0.1-0.1c0,0-0.1-0.1-0.2-0.1c-0.1,0-0.1-0.1-0.2-0.1
	c-0.1,0-0.2-0.1-0.3-0.1s-0.2,0-0.4,0s-0.4,0-0.6,0.1c-0.2,0.1-0.3,0.2-0.5,0.4c-0.1,0.2-0.2,0.4-0.3,0.6C35,5,35,5.3,35,5.6
	c0,0.3,0,0.6,0.1,0.8c0.1,0.2,0.2,0.4,0.3,0.6s0.3,0.3,0.5,0.4s0.4,0.1,0.6,0.1c0.1,0,0.2,0,0.3,0s0.2,0,0.3-0.1
	c0.1,0,0.2-0.1,0.2-0.1c0.1,0,0.2-0.1,0.2-0.2c0,0,0.1,0,0.1-0.1C37.8,7,37.8,7,37.9,7z M40.4,5h0.2c0.2,0,0.4,0,0.5-0.2l1.3-1.9
	c0.1-0.1,0.2-0.2,0.2-0.2c0.1,0,0.2-0.1,0.3-0.1h1.2L42.4,5c-0.1,0.2-0.3,0.3-0.4,0.4c0.1,0,0.2,0.1,0.3,0.2s0.2,0.2,0.2,0.3
	l1.8,2.7h-1.2c-0.1,0-0.1,0-0.2,0c-0.1,0-0.1,0-0.1,0s-0.1,0-0.1-0.1l-0.1-0.1l-1.3-2c0-0.1-0.1-0.1-0.2-0.2c-0.1,0-0.2,0-0.3,0
	h-0.3v2.5h-1.4v-6h1.4V5H40.4z"/>
<path class="st3" d="M2.5,11h42c0.6,0,1,0.4,1,1v6c0,0.6-0.4,1-1,1h-42c-0.6,0-1-0.4-1-1v-6C1.5,11.4,1.9,11,2.5,11z"/>
<path class="st4" d="M2.5,11h42c0.6,0,1,0.4,1,1v6c0,0.6-0.4,1-1,1h-42c-0.6,0-1-0.4-1-1v-6C1.5,11.4,1.9,11,2.5,11z"/>
<path d="M4.8,15H5c0.2,0,0.3-0.1,0.4-0.2l1.3-1.9c0.1-0.1,0.2-0.2,0.2-0.2c0.1,0,0.2-0.1,0.3-0.1h1.2L6.8,15
	c-0.1,0.2-0.3,0.3-0.4,0.4c0.1,0,0.2,0.1,0.3,0.2c0.1,0.1,0.2,0.2,0.2,0.3l1.8,2.7H7.4c-0.1,0-0.1,0-0.2,0s-0.1,0-0.1,0
	S7,18.6,7,18.5l-0.1-0.1l-1.3-2c0-0.1-0.1-0.1-0.2-0.2c-0.1,0-0.2,0-0.3,0H4.8v2.5H3.4v-5.8h1.4V15z M10.3,13.7v1.4h1.8v1h-1.8v1.4
	h2.4v1H9v-5.8h3.8v1C12.8,13.7,10.3,13.7,10.3,13.7z M16.2,16.3v2.2h-1.4v-2.2l-2.1-3.6h1.2c0.1,0,0.2,0,0.3,0.1s0.1,0.1,0.2,0.2
	l0.8,1.7c0.1,0.1,0.1,0.3,0.2,0.4c0.1,0.1,0.1,0.2,0.1,0.3c0-0.1,0.1-0.2,0.1-0.3c0.1-0.1,0.1-0.2,0.2-0.4l0.8-1.7
	c0,0,0-0.1,0.1-0.1l0.1-0.1l0.1-0.1c0,0,0.1,0,0.2,0h1.2L16.2,16.3z M22.9,13.7h-1.6v4.8h-1.4v-4.8h-1.6v-1.1h4.6V13.7z M25.3,15.4
	c0.2,0,0.3,0,0.5-0.1c0.1,0,0.2-0.1,0.3-0.2c0.1-0.1,0.1-0.2,0.2-0.3c0-0.1,0.1-0.2,0.1-0.4c0-0.3-0.1-0.5-0.3-0.6
	c-0.2-0.1-0.4-0.2-0.8-0.2h-0.5v1.7h0.5V15.4z M28.2,18.5H27c-0.2,0-0.4-0.1-0.5-0.3l-1-1.7c0-0.1-0.1-0.1-0.2-0.2
	c-0.1,0-0.1-0.1-0.2-0.1h-0.3v2.2h-1.4v-5.8h1.9c0.4,0,0.8,0,1.1,0.1c0.3,0.1,0.5,0.2,0.7,0.4s0.3,0.3,0.4,0.5s0.1,0.4,0.1,0.7
	c0,0.2,0,0.4-0.1,0.5c-0.1,0.2-0.1,0.3-0.2,0.5c-0.1,0.1-0.2,0.3-0.4,0.4c-0.1,0.1-0.3,0.2-0.5,0.3c0.1,0,0.2,0.1,0.2,0.2
	c0.1,0.1,0.1,0.1,0.2,0.2L28.2,18.5z M31.6,16.3l-0.5-1.6c0-0.1-0.1-0.2-0.1-0.4c0-0.1-0.1-0.3-0.1-0.4c0,0.2-0.1,0.3-0.1,0.5
	c0,0.1-0.1,0.3-0.1,0.4L30,16.3H31.6z M33.8,18.5h-1c-0.1,0-0.2,0-0.3-0.1s-0.1-0.1-0.2-0.2l-0.3-1h-2.2l-0.3,1
	c0,0.1-0.1,0.1-0.2,0.2s-0.2,0.1-0.3,0.1h-1.1l2.3-5.8h1.4L33.8,18.5z M37.9,17L37.9,17c0.1,0,0.1,0,0.1,0.1l0.5,0.6
	c-0.2,0.3-0.5,0.5-0.9,0.7s-0.8,0.2-1.3,0.2c-0.4,0-0.8-0.1-1.2-0.2c-0.3-0.2-0.6-0.4-0.9-0.6c-0.2-0.3-0.4-0.6-0.6-0.9
	c-0.1-0.4-0.2-0.8-0.2-1.2c0-0.4,0.1-0.8,0.2-1.2c0.1-0.4,0.3-0.7,0.6-0.9c0.3-0.3,0.6-0.5,0.9-0.6c0.4-0.1,0.8-0.2,1.2-0.2
	c0.2,0,0.4,0,0.6,0.1c0.2,0,0.4,0.1,0.5,0.2c0.2,0.1,0.3,0.1,0.5,0.2c0.1,0.1,0.3,0.2,0.4,0.3L38.1,14L38,14.1c0,0-0.1,0-0.2,0h-0.1
	c0,0-0.1,0-0.1-0.1c0,0-0.1-0.1-0.2-0.1c-0.1,0-0.1-0.1-0.2-0.1c-0.1,0-0.2-0.1-0.3-0.1s-0.2,0-0.4,0s-0.4,0-0.6,0.1
	c-0.2,0.1-0.3,0.2-0.5,0.4c-0.1,0.2-0.2,0.4-0.3,0.6C35,15,35,15.3,35,15.6s0,0.6,0.1,0.8c0.1,0.2,0.2,0.4,0.3,0.6s0.3,0.3,0.5,0.4
	s0.4,0.1,0.6,0.1c0.1,0,0.2,0,0.3,0s0.2,0,0.3-0.1c0.1,0,0.2-0.1,0.2-0.1c0.1,0,0.2-0.1,0.2-0.2c0,0,0.1,0,0.1-0.1
	C37.8,17,37.8,17,37.9,17z M40.4,15h0.2c0.2,0,0.3-0.1,0.4-0.2l1.3-1.9c0.1-0.1,0.2-0.2,0.2-0.2c0.1,0,0.2-0.1,0.3-0.1H44L42.4,15
	c-0.1,0.2-0.3,0.3-0.4,0.4c0.1,0,0.2,0.1,0.3,0.2c0.1,0.1,0.2,0.2,0.2,0.3l1.8,2.7h-1.2c-0.1,0-0.1,0-0.2,0c-0.1,0-0.1,0-0.1,0
	s-0.1,0-0.1-0.1l-0.1-0.1l-1.3-2c0-0.1-0.1-0.1-0.2-0.2c-0.1,0-0.2,0-0.3,0h-0.3v2.5h-1.4v-5.8h1.4V15H40.4z"/>
</svg>
