<?xml version="1.0" encoding="utf-8"?>
<!-- Generator: Adobe Illustrator 23.0.0, SVG Export Plug-In . SVG Version: 6.00 Build 0)  -->
<svg version="1.1" id="Layer_1" xmlns="http://www.w3.org/2000/svg" xmlns:xlink="http://www.w3.org/1999/xlink" x="0px" y="0px"
	 viewBox="0 0 180 126" style="enable-background:new 0 0 180 126;" xml:space="preserve">
<style type="text/css">
	.st0{fill-rule:evenodd;clip-rule:evenodd;fill:#FFFFFF;}
	.st1{fill:#FFFFFF;}
	.st2{fill:none;stroke:#FFFFFF;}
</style>
<path class="st0" d="M3,9h12V8H3V9z"/>
<path class="st1" d="M7.5,26.1c4.9,0,6.5,3.6,6.5,4.9l1,0c0-2-2.1-6.1-7.7-6H3v1.1h4.2c0,0,0,0,0,0L7.5,26.1L7.5,26.1z"/>
<path class="st0" d="M28,26h-7v-1h7c1.3,0,2.6,0.3,3.5,1.2c0.9,1,1.5,2.5,1.5,4.8h-1c0-2.1-0.5-3.4-1.2-4C30.2,26.3,29.2,26,28,26z"
	/>
<path class="st1" d="M43.5,26.1c4.9,0,6.5,3.6,6.5,4.9l1,0c0-2-2.1-6.1-7.7-6H39v1.1h4.2c0,0,0,0,0,0L43.5,26.1L43.5,26.1z"/>
<path class="st1" d="M41.5,21.9h0.2c0.1,0,0.1,0,0.2,0c0,0,0.1,0,0.1-0.1l1-1.3c0-0.1,0.1-0.1,0.1-0.1c0,0,0.1,0,0.2,0h0.6l-1.2,1.5
	c-0.1,0.1-0.1,0.2-0.2,0.2c0.1,0,0.1,0,0.1,0.1c0,0,0.1,0.1,0.1,0.1l1.3,1.7h-0.6c-0.1,0-0.1,0-0.2,0c0,0-0.1-0.1-0.1-0.1l-1-1.3
	c0,0-0.1-0.1-0.1-0.1c0,0-0.1,0-0.2,0h-0.2V24h-0.7v-3.6h0.7V21.9z M44.1,21.4c0-0.2,0.1-0.3,0.1-0.5c0.1-0.1,0.2-0.2,0.3-0.3
	c0.1-0.1,0.2-0.2,0.4-0.2c0.1,0,0.3-0.1,0.5-0.1c0.2,0,0.3,0,0.4,0.1c0.1,0,0.3,0.1,0.3,0.2c0.1,0.1,0.2,0.2,0.2,0.3
	c0.1,0.1,0.1,0.2,0.1,0.4c0,0.1,0,0.2,0,0.3c0,0.1-0.1,0.2-0.1,0.2c0,0.1-0.1,0.1-0.2,0.2c-0.1,0-0.2,0.1-0.2,0.1
	c0.2,0.1,0.4,0.2,0.5,0.3c0.1,0.1,0.2,0.3,0.2,0.5c0,0.2,0,0.3-0.1,0.5c-0.1,0.1-0.2,0.3-0.3,0.3c-0.1,0.1-0.2,0.2-0.4,0.2
	c-0.1,0-0.3,0.1-0.5,0.1c-0.2,0-0.3,0-0.5-0.1c-0.1,0-0.3-0.1-0.4-0.2c-0.1-0.1-0.2-0.2-0.3-0.3S44,23.2,44,23.1l0.3-0.1
	c0.1,0,0.1,0,0.2,0c0.1,0,0.1,0,0.1,0.1c0,0.1,0.1,0.1,0.1,0.2c0,0.1,0.1,0.1,0.1,0.2c0,0,0.1,0.1,0.2,0.1c0.1,0,0.1,0,0.2,0
	c0.1,0,0.2,0,0.3-0.1c0.1,0,0.1-0.1,0.2-0.1c0.1-0.1,0.1-0.1,0.1-0.2c0-0.1,0-0.1,0-0.2c0-0.1,0-0.2,0-0.2c0-0.1-0.1-0.1-0.1-0.2
	c-0.1-0.1-0.1-0.1-0.3-0.1c-0.1,0-0.3,0-0.4,0v-0.4c0.2,0,0.3,0,0.4,0c0.1,0,0.2-0.1,0.2-0.1c0.1,0,0.1-0.1,0.1-0.2
	c0-0.1,0-0.1,0-0.2c0-0.2,0-0.3-0.1-0.4c-0.1-0.1-0.2-0.1-0.4-0.1c-0.1,0-0.1,0-0.2,0c-0.1,0-0.1,0-0.2,0.1c0,0-0.1,0.1-0.1,0.1
	c0,0.1-0.1,0.1-0.1,0.2c0,0.1-0.1,0.1-0.1,0.2c0,0-0.1,0-0.2,0L44.1,21.4z M47.7,21.7c0.1,0,0.2,0,0.2,0c0.1,0,0.1,0,0.2,0
	c0.2,0,0.4,0,0.5,0.1s0.3,0.1,0.4,0.2c0.1,0.1,0.2,0.2,0.2,0.4c0.1,0.1,0.1,0.3,0.1,0.4c0,0.2,0,0.4-0.1,0.5
	c-0.1,0.2-0.2,0.3-0.3,0.4c-0.1,0.1-0.3,0.2-0.4,0.3C48.4,24,48.2,24,48,24c-0.1,0-0.2,0-0.3,0c-0.1,0-0.2-0.1-0.3-0.1
	c-0.1,0-0.2-0.1-0.2-0.1c-0.1-0.1-0.1-0.1-0.2-0.2l0.2-0.3c0-0.1,0.1-0.1,0.2-0.1c0,0,0.1,0,0.1,0c0,0,0.1,0.1,0.1,0.1
	c0.1,0,0.1,0.1,0.2,0.1c0.1,0,0.2,0,0.3,0c0.1,0,0.2,0,0.3-0.1c0.1,0,0.2-0.1,0.2-0.2c0.1-0.1,0.1-0.1,0.1-0.2c0-0.1,0-0.2,0-0.3
	c0-0.2-0.1-0.3-0.2-0.5c-0.1-0.1-0.3-0.2-0.5-0.2c-0.2,0-0.3,0-0.5,0.1l-0.4-0.1l0.3-1.8h1.8v0.3c0,0.1,0,0.2-0.1,0.2
	c-0.1,0.1-0.1,0.1-0.3,0.1h-1L47.7,21.7z"/>
<path class="st0" d="M63.1,24.5l0.4-1l3.1,1.7l-0.4,0.9L63.1,24.5z M62.7,25.4l-0.4,1.2l3.1,1.7l0.4-1.2L62.7,25.4z M61.5,28.6
	l0.4-1.1l3.1,1.6l-0.4,1.1L61.5,28.6z M61.2,29.5l-0.7,1.8L59.5,31l3.9-10.3l0.9,0.4l-0.6,1.5l3.1,1.7l0.6-1.7l0.9,0.4l-3.9,10.2
	l-0.9-0.4l0.6-1.6L61.2,29.5z"/>
<path class="st1" d="M60.2,23.4V24h-2.1v-3.6h0.7v3.1H60.2z"/>
<path class="st0" d="M81.1,24.5l0.4-1l3.1,1.7l-0.4,0.9L81.1,24.5z M80.7,25.4l-0.4,1.2l3.1,1.7l0.4-1.2L80.7,25.4z M79.5,28.6
	l0.4-1.1l3.1,1.6l-0.4,1.1L79.5,28.6z M79.2,29.5l-0.7,1.8L77.5,31l3.9-10.3l0.9,0.4l-0.6,1.5l3.1,1.7l0.6-1.7l0.9,0.4l-3.9,10.2
	l-0.9-0.4l0.6-1.6L79.2,29.5z"/>
<path class="st1" d="M78.8,20.4L77.3,24h-0.6l-1.5-3.6h0.5c0.1,0,0.1,0,0.1,0c0,0,0.1,0.1,0.1,0.1l0.9,2.2c0,0.1,0.1,0.2,0.1,0.2
	c0,0.1,0.1,0.2,0.1,0.3c0-0.1,0-0.2,0.1-0.3c0-0.1,0-0.2,0.1-0.2l0.8-2.2c0,0,0-0.1,0.1-0.1c0,0,0.1,0,0.1,0H78.8z"/>
<path class="st0" d="M99.1,24.5l0.4-1l3.1,1.7l-0.4,0.9L99.1,24.5z M98.7,25.4l-0.4,1.2l3.1,1.7l0.4-1.2L98.7,25.4z M97.5,28.6
	l0.4-1.1l3.1,1.6l-0.4,1.1L97.5,28.6z M97.2,29.5l-0.7,1.8L95.5,31l3.9-10.3l0.9,0.4l-0.6,1.5l3.1,1.7l0.6-1.7l0.9,0.4l-3.9,10.2
	l-0.9-0.4l0.6-1.6L97.2,29.5z"/>
<path class="st1" d="M96.7,22.2c0,0.3,0,0.5-0.1,0.7c-0.1,0.2-0.2,0.4-0.4,0.6c-0.2,0.2-0.4,0.3-0.6,0.4C95.4,24,95.2,24,94.9,24
	h-1.4v-3.6h1.4c0.3,0,0.5,0,0.8,0.1c0.2,0.1,0.4,0.2,0.6,0.4c0.2,0.2,0.3,0.3,0.4,0.6C96.7,21.7,96.7,21.9,96.7,22.2z M96,22.2
	c0-0.2,0-0.4-0.1-0.5c-0.1-0.2-0.1-0.3-0.2-0.4c-0.1-0.1-0.2-0.2-0.4-0.3c-0.1-0.1-0.3-0.1-0.5-0.1h-0.7v2.5h0.7
	c0.2,0,0.3,0,0.5-0.1c0.1-0.1,0.3-0.1,0.4-0.3c0.1-0.1,0.2-0.2,0.2-0.4C96,22.6,96,22.4,96,22.2z"/>
<path class="st1" d="M115.5,26.1c4.9,0,6.5,3.6,6.5,4.9l1,0c0-2-2.1-6.1-7.7-6H111v1.1h4.2c0,0,0,0,0,0L115.5,26.1L115.5,26.1z"/>
<path class="st1" d="M113.3,22.2c0,0.3,0,0.5-0.1,0.7c-0.1,0.2-0.2,0.4-0.4,0.6c-0.2,0.2-0.4,0.3-0.6,0.4c-0.2,0.1-0.5,0.1-0.8,0.1
	c-0.3,0-0.5,0-0.7-0.1c-0.2-0.1-0.4-0.2-0.6-0.4c-0.2-0.2-0.3-0.4-0.4-0.6c-0.1-0.2-0.1-0.5-0.1-0.7c0-0.3,0-0.5,0.1-0.7
	c0.1-0.2,0.2-0.4,0.4-0.6c0.2-0.2,0.4-0.3,0.6-0.4c0.2-0.1,0.5-0.1,0.7-0.1c0.2,0,0.4,0,0.5,0.1c0.2,0,0.3,0.1,0.4,0.2
	c0.1,0.1,0.3,0.2,0.4,0.3c0.1,0.1,0.2,0.2,0.3,0.4c0.1,0.1,0.1,0.3,0.2,0.4C113.3,21.8,113.3,22,113.3,22.2z M112.6,22.2
	c0-0.2,0-0.4-0.1-0.5c-0.1-0.2-0.1-0.3-0.2-0.4c-0.1-0.1-0.2-0.2-0.4-0.3c-0.1-0.1-0.3-0.1-0.5-0.1c-0.2,0-0.3,0-0.5,0.1
	c-0.1,0.1-0.3,0.1-0.4,0.3c-0.1,0.1-0.2,0.2-0.2,0.4c-0.1,0.2-0.1,0.3-0.1,0.5c0,0.2,0,0.4,0.1,0.5c0.1,0.2,0.1,0.3,0.2,0.4
	c0.1,0.1,0.2,0.2,0.4,0.3c0.1,0.1,0.3,0.1,0.5,0.1c0.2,0,0.3,0,0.5-0.1c0.1-0.1,0.3-0.1,0.4-0.3c0.1-0.1,0.2-0.2,0.2-0.4
	C112.6,22.6,112.6,22.4,112.6,22.2z M115.2,23.5c0.1,0,0.2,0,0.3,0c0.1,0,0.2-0.1,0.2-0.1c0.1,0,0.1-0.1,0.1-0.2c0-0.1,0-0.1,0-0.2
	c0-0.1,0-0.1,0-0.2c0-0.1-0.1-0.1-0.1-0.2c-0.1,0-0.1-0.1-0.2-0.1c-0.1,0-0.2,0-0.3,0h-0.7v1.1H115.2z M114.6,20.9v1h0.5
	c0.2,0,0.4,0,0.5-0.1c0.1-0.1,0.2-0.2,0.2-0.4c0-0.2-0.1-0.3-0.2-0.4c-0.1-0.1-0.3-0.1-0.5-0.1H114.6z M115.1,20.4
	c0.2,0,0.4,0,0.6,0.1c0.2,0,0.3,0.1,0.4,0.2c0.1,0.1,0.2,0.2,0.2,0.3s0.1,0.3,0.1,0.4c0,0.1,0,0.2,0,0.2c0,0.1-0.1,0.1-0.1,0.2
	c-0.1,0.1-0.1,0.1-0.2,0.2c-0.1,0.1-0.2,0.1-0.3,0.1c0.5,0.1,0.7,0.4,0.7,0.8c0,0.2,0,0.3-0.1,0.4c-0.1,0.1-0.1,0.2-0.3,0.3
	c-0.1,0.1-0.2,0.2-0.4,0.2c-0.2,0.1-0.3,0.1-0.6,0.1h-1.4v-3.6H115.1z M117.1,22.2h1.3v0.5h-1.3V22.2z M121.9,24h-0.7
	c0,0-0.1,0-0.1,0c0,0,0,0-0.1-0.1l-0.8-1.4c0,0,0,0.1,0,0.1l-0.8,1.3c0,0,0,0.1-0.1,0.1c0,0-0.1,0-0.1,0h-0.6l1.2-1.9l-1.2-1.8h0.7
	c0,0,0.1,0,0.1,0c0,0,0,0,0.1,0.1l0.8,1.3c0,0,0-0.1,0.1-0.1l0.8-1.2c0,0,0-0.1,0.1-0.1c0,0,0,0,0.1,0h0.6l-1.2,1.7L121.9,24z
	 M123.6,22.1c-0.1-0.1-0.1-0.1-0.2-0.2c-0.1,0-0.2-0.1-0.3-0.1c-0.1,0-0.2,0-0.3,0.1c-0.1,0-0.1,0.1-0.2,0.2
	c-0.1,0.1-0.1,0.2-0.1,0.3c0,0.1,0,0.2,0,0.4c0,0.1,0,0.3,0,0.4c0,0.1,0.1,0.2,0.1,0.3c0,0.1,0.1,0.1,0.2,0.1c0.1,0,0.1,0,0.2,0
	c0.1,0,0.2,0,0.3-0.1c0.1-0.1,0.2-0.1,0.3-0.2V22.1z M124.2,20.3V24h-0.4c-0.1,0-0.1,0-0.2-0.1l-0.1-0.2c-0.1,0.1-0.2,0.2-0.4,0.3
	c-0.1,0.1-0.3,0.1-0.5,0.1c-0.1,0-0.3,0-0.4-0.1c-0.1-0.1-0.2-0.1-0.3-0.3c-0.1-0.1-0.1-0.2-0.2-0.4c0-0.2-0.1-0.4-0.1-0.6
	c0-0.2,0-0.4,0.1-0.5c0.1-0.2,0.1-0.3,0.2-0.4c0.1-0.1,0.2-0.2,0.3-0.3c0.1-0.1,0.3-0.1,0.5-0.1c0.1,0,0.3,0,0.4,0.1
	c0.1,0,0.2,0.1,0.3,0.2v-1.4H124.2z"/>
<path class="st0" d="M136,26h-7v-1h7c1.3,0,2.6,0.3,3.5,1.2c0.9,1,1.5,2.5,1.5,4.8h-1c0-2.1-0.5-3.4-1.2-4
	C138.2,26.3,137.2,26,136,26z"/>
<path class="st1" d="M131.3,22.2c0,0.3,0,0.5-0.1,0.7c-0.1,0.2-0.2,0.4-0.4,0.6c-0.2,0.2-0.4,0.3-0.6,0.4c-0.2,0.1-0.5,0.1-0.8,0.1
	c-0.3,0-0.5,0-0.7-0.1c-0.2-0.1-0.4-0.2-0.6-0.4c-0.2-0.2-0.3-0.4-0.4-0.6c-0.1-0.2-0.1-0.5-0.1-0.7c0-0.3,0-0.5,0.1-0.7
	c0.1-0.2,0.2-0.4,0.4-0.6c0.2-0.2,0.4-0.3,0.6-0.4c0.2-0.1,0.5-0.1,0.7-0.1c0.2,0,0.4,0,0.5,0.1c0.2,0,0.3,0.1,0.4,0.2
	c0.1,0.1,0.3,0.2,0.4,0.3c0.1,0.1,0.2,0.2,0.3,0.4c0.1,0.1,0.1,0.3,0.2,0.4C131.3,21.8,131.3,22,131.3,22.2z M130.6,22.2
	c0-0.2,0-0.4-0.1-0.5c-0.1-0.2-0.1-0.3-0.2-0.4c-0.1-0.1-0.2-0.2-0.4-0.3c-0.1-0.1-0.3-0.1-0.5-0.1c-0.2,0-0.3,0-0.5,0.1
	c-0.1,0.1-0.3,0.1-0.4,0.3c-0.1,0.1-0.2,0.2-0.2,0.4c-0.1,0.2-0.1,0.3-0.1,0.5c0,0.2,0,0.4,0.1,0.5c0.1,0.2,0.1,0.3,0.2,0.4
	c0.1,0.1,0.2,0.2,0.4,0.3c0.1,0.1,0.3,0.1,0.5,0.1c0.2,0,0.3,0,0.5-0.1c0.1-0.1,0.3-0.1,0.4-0.3c0.1-0.1,0.2-0.2,0.2-0.4
	C130.6,22.6,130.6,22.4,130.6,22.2z M133.2,23.5c0.1,0,0.2,0,0.3,0c0.1,0,0.2-0.1,0.2-0.1c0.1,0,0.1-0.1,0.1-0.2c0-0.1,0-0.1,0-0.2
	c0-0.1,0-0.1,0-0.2c0-0.1-0.1-0.1-0.1-0.2c-0.1,0-0.1-0.1-0.2-0.1c-0.1,0-0.2,0-0.3,0h-0.7v1.1H133.2z M132.6,20.9v1h0.5
	c0.2,0,0.4,0,0.5-0.1c0.1-0.1,0.2-0.2,0.2-0.4c0-0.2-0.1-0.3-0.2-0.4c-0.1-0.1-0.3-0.1-0.5-0.1H132.6z M133.1,20.4
	c0.2,0,0.4,0,0.6,0.1c0.2,0,0.3,0.1,0.4,0.2c0.1,0.1,0.2,0.2,0.2,0.3c0,0.1,0.1,0.3,0.1,0.4c0,0.1,0,0.2,0,0.2
	c0,0.1-0.1,0.1-0.1,0.2c-0.1,0.1-0.1,0.1-0.2,0.2c-0.1,0.1-0.2,0.1-0.3,0.1c0.5,0.1,0.7,0.4,0.7,0.8c0,0.2,0,0.3-0.1,0.4
	c-0.1,0.1-0.1,0.2-0.3,0.3c-0.1,0.1-0.2,0.2-0.4,0.2c-0.2,0.1-0.3,0.1-0.6,0.1h-1.4v-3.6H133.1z M135.1,22.2h1.3v0.5h-1.3V22.2z
	 M139.9,24h-0.7c0,0-0.1,0-0.1,0c0,0,0,0-0.1-0.1l-0.8-1.4c0,0,0,0.1,0,0.1l-0.8,1.3c0,0,0,0.1-0.1,0.1c0,0-0.1,0-0.1,0h-0.6
	l1.2-1.9l-1.2-1.8h0.7c0,0,0.1,0,0.1,0c0,0,0,0,0.1,0.1l0.8,1.3c0,0,0-0.1,0.1-0.1l0.8-1.2c0,0,0-0.1,0.1-0.1c0,0,0,0,0.1,0h0.6
	l-1.2,1.7L139.9,24z M141.6,22.1c-0.1-0.1-0.1-0.1-0.2-0.2c-0.1,0-0.2-0.1-0.3-0.1c-0.1,0-0.2,0-0.3,0.1s-0.1,0.1-0.2,0.2
	c-0.1,0.1-0.1,0.2-0.1,0.3c0,0.1,0,0.2,0,0.4c0,0.1,0,0.3,0,0.4c0,0.1,0.1,0.2,0.1,0.3c0,0.1,0.1,0.1,0.2,0.1c0.1,0,0.1,0,0.2,0
	c0.1,0,0.2,0,0.3-0.1c0.1-0.1,0.2-0.1,0.3-0.2V22.1z M142.2,20.3V24h-0.4c-0.1,0-0.1,0-0.2-0.1l-0.1-0.2c-0.1,0.1-0.2,0.2-0.4,0.3
	c-0.1,0.1-0.3,0.1-0.5,0.1c-0.1,0-0.3,0-0.4-0.1c-0.1-0.1-0.2-0.1-0.3-0.3c-0.1-0.1-0.1-0.2-0.2-0.4c0-0.2-0.1-0.4-0.1-0.6
	c0-0.2,0-0.4,0.1-0.5c0.1-0.2,0.1-0.3,0.2-0.4c0.1-0.1,0.2-0.2,0.3-0.3c0.1-0.1,0.3-0.1,0.5-0.1c0.1,0,0.3,0,0.4,0.1
	c0.1,0,0.2,0.1,0.3,0.2v-1.4H142.2z"/>
<path class="st1" d="M151.6,23.1C151.6,23.1,151.7,23.2,151.6,23.1l0.4,0.3c-0.1,0.2-0.3,0.3-0.5,0.4c-0.2,0.1-0.5,0.1-0.8,0.1
	c-0.3,0-0.5,0-0.7-0.1c-0.2-0.1-0.4-0.2-0.5-0.4c-0.2-0.2-0.3-0.4-0.3-0.6c-0.1-0.2-0.1-0.5-0.1-0.7c0-0.3,0-0.5,0.1-0.7
	c0.1-0.2,0.2-0.4,0.4-0.6c0.2-0.2,0.3-0.3,0.6-0.4c0.2-0.1,0.5-0.1,0.7-0.1c0.3,0,0.5,0,0.7,0.1c0.2,0.1,0.4,0.2,0.5,0.3l-0.2,0.3
	c0,0,0,0-0.1,0.1c0,0,0,0-0.1,0c0,0-0.1,0-0.1,0c0,0-0.1,0-0.1-0.1c0,0-0.1,0-0.1-0.1c0,0-0.1,0-0.1-0.1c-0.1,0-0.1,0-0.2-0.1
	c-0.1,0-0.2,0-0.3,0c-0.2,0-0.3,0-0.4,0.1c-0.1,0.1-0.2,0.1-0.3,0.3c-0.1,0.1-0.2,0.2-0.2,0.4c-0.1,0.2-0.1,0.3-0.1,0.5
	c0,0.2,0,0.4,0.1,0.5c0.1,0.2,0.1,0.3,0.2,0.4c0.1,0.1,0.2,0.2,0.3,0.3c0.1,0.1,0.3,0.1,0.4,0.1c0.1,0,0.2,0,0.2,0
	c0.1,0,0.1,0,0.2,0c0.1,0,0.1,0,0.2-0.1c0.1,0,0.1-0.1,0.2-0.1C151.5,23.2,151.5,23.2,151.6,23.1C151.6,23.2,151.6,23.1,151.6,23.1z
	 M157.2,20.4l-1.1,3.6h-0.6l-0.8-2.5c0-0.1,0-0.1-0.1-0.2c0,0,0,0.1,0,0.1c0,0,0,0.1,0,0.1l-0.8,2.5h-0.6l-1.1-3.6h0.6
	c0.1,0,0.1,0,0.1,0c0,0,0.1,0.1,0.1,0.1l0.6,2.2c0,0.1,0,0.1,0,0.2c0,0.1,0,0.1,0,0.2c0-0.1,0-0.1,0-0.2c0-0.1,0-0.1,0.1-0.2
	l0.7-2.2c0,0,0-0.1,0.1-0.1c0,0,0.1,0,0.1,0h0.2c0.1,0,0.1,0,0.1,0s0.1,0.1,0.1,0.1l0.7,2.2c0,0.1,0.1,0.2,0.1,0.4
	c0-0.1,0-0.3,0.1-0.4l0.6-2.2c0,0,0-0.1,0.1-0.1c0,0,0.1,0,0.1,0H157.2z"/>
<path class="st2" d="M159,31c0-1.2-1-2.5-1-4s-0.5-2.5-1-2.5s-1,1-2,1s-1,0.5-1.5,0.5s-0.5-0.5-1.5-0.5s-5,0-5,0"/>
<path class="st1" d="M168.3,22.1c0.1,0,0.2,0,0.3,0c0.1,0,0.2-0.1,0.2-0.1c0.1-0.1,0.1-0.1,0.1-0.2c0-0.1,0-0.2,0-0.3
	c0-0.2-0.1-0.3-0.2-0.4c-0.1-0.1-0.3-0.1-0.6-0.1h-0.4v1.2H168.3z M170,24h-0.6c-0.1,0-0.2,0-0.3-0.1l-0.8-1.2c0,0-0.1-0.1-0.1-0.1
	c0,0-0.1,0-0.1,0h-0.3V24h-0.7v-3.6h1.1c0.2,0,0.5,0,0.6,0.1c0.2,0.1,0.3,0.1,0.4,0.2c0.1,0.1,0.2,0.2,0.3,0.3
	c0.1,0.1,0.1,0.3,0.1,0.4c0,0.1,0,0.2-0.1,0.3c0,0.1-0.1,0.2-0.2,0.3c-0.1,0.1-0.1,0.2-0.3,0.2c-0.1,0.1-0.2,0.1-0.3,0.2
	c0,0,0.1,0.1,0.1,0.1c0,0,0.1,0.1,0.1,0.1L170,24z M175.2,20.4L174,24h-0.6l-0.8-2.5c0-0.1,0-0.1-0.1-0.2c0,0,0,0.1,0,0.1
	s0,0.1,0,0.1l-0.8,2.5h-0.6l-1.1-3.6h0.6c0.1,0,0.1,0,0.1,0c0,0,0.1,0.1,0.1,0.1l0.6,2.2c0,0.1,0,0.1,0,0.2c0,0.1,0,0.1,0,0.2
	c0-0.1,0-0.1,0-0.2c0-0.1,0-0.1,0.1-0.2l0.7-2.2c0,0,0-0.1,0.1-0.1c0,0,0.1,0,0.1,0h0.2c0.1,0,0.1,0,0.1,0c0,0,0.1,0.1,0.1,0.1
	l0.7,2.2c0,0.1,0.1,0.2,0.1,0.4c0-0.1,0-0.3,0.1-0.4l0.6-2.2c0,0,0-0.1,0.1-0.1c0,0,0.1,0,0.1,0H175.2z"/>
<path class="st2" d="M177,31c0-1.2-1-2.5-1-4s-0.5-2.5-1-2.5s-1,1-2,1s-1,0.5-1.5,0.5s-0.5-0.5-1.5-0.5s-5,0-5,0"/>
<path class="st0" d="M5,45.9c-0.8,1-1,2.3-1,3.1H3c0-1,0.3-2.5,1.2-3.7C5.1,44,6.6,43,9,43c2.4,0,3.9,1,4.8,2.3
	C14.7,46.5,15,48,15,49h-1c0-0.8-0.3-2.1-1-3.1c-0.7-1-2-1.9-4-1.9C7,44,5.7,44.8,5,45.9z"/>
<path class="st2" d="M23,49c0-3,1-6,4-6s4,3,4,6"/>
<path class="st0" d="M41,45.9c-0.8,1-1,2.3-1,3.1h-1c0-1,0.3-2.5,1.2-3.7C41.1,44,42.6,43,45,43s3.9,1,4.8,2.3
	C50.7,46.5,51,48,51,49h-1c0-0.8-0.3-2.1-1-3.1c-0.7-1-2-1.9-4-1.9S41.7,44.8,41,45.9z"/>
<path class="st1" d="M41.3,40.2c0,0.3,0,0.5-0.1,0.7c-0.1,0.2-0.2,0.4-0.4,0.6s-0.4,0.3-0.6,0.4C40,42,39.7,42,39.5,42
	c-0.3,0-0.5,0-0.7-0.1c-0.2-0.1-0.4-0.2-0.6-0.4c-0.2-0.2-0.3-0.4-0.4-0.6c-0.1-0.2-0.1-0.5-0.1-0.7s0-0.5,0.1-0.7
	c0.1-0.2,0.2-0.4,0.4-0.6c0.2-0.2,0.4-0.3,0.6-0.4c0.2-0.1,0.5-0.1,0.7-0.1c0.2,0,0.4,0,0.5,0.1c0.2,0,0.3,0.1,0.4,0.2
	c0.1,0.1,0.3,0.2,0.4,0.3c0.1,0.1,0.2,0.2,0.3,0.4s0.1,0.3,0.2,0.4C41.3,39.8,41.3,40,41.3,40.2z M40.6,40.2c0-0.2,0-0.4-0.1-0.5
	c-0.1-0.2-0.1-0.3-0.2-0.4s-0.2-0.2-0.4-0.3c-0.1-0.1-0.3-0.1-0.5-0.1s-0.3,0-0.5,0.1c-0.1,0.1-0.3,0.1-0.4,0.3
	c-0.1,0.1-0.2,0.2-0.2,0.4c-0.1,0.2-0.1,0.3-0.1,0.5s0,0.4,0.1,0.5c0.1,0.2,0.1,0.3,0.2,0.4c0.1,0.1,0.2,0.2,0.4,0.3
	c0.1,0.1,0.3,0.1,0.5,0.1s0.3,0,0.5-0.1c0.1-0.1,0.3-0.1,0.4-0.3c0.1-0.1,0.2-0.2,0.2-0.4C40.6,40.6,40.6,40.4,40.6,40.2z
	 M43.2,41.5c0.1,0,0.2,0,0.3,0c0.1,0,0.2-0.1,0.2-0.1c0.1-0.1,0.1-0.1,0.1-0.2c0-0.1,0-0.1,0-0.2c0-0.1,0-0.1,0-0.2
	c0-0.1-0.1-0.1-0.1-0.2c-0.1,0-0.1-0.1-0.2-0.1c-0.1,0-0.2,0-0.3,0h-0.7v1.1H43.2z M42.6,38.9v1h0.5c0.2,0,0.4,0,0.5-0.1
	c0.1-0.1,0.2-0.2,0.2-0.4c0-0.2-0.1-0.3-0.2-0.4c-0.1-0.1-0.3-0.1-0.5-0.1H42.6z M43.1,38.4c0.2,0,0.4,0,0.6,0.1
	c0.2,0,0.3,0.1,0.4,0.2c0.1,0.1,0.2,0.2,0.2,0.3c0,0.1,0.1,0.3,0.1,0.4c0,0.1,0,0.2,0,0.2c0,0.1-0.1,0.1-0.1,0.2
	c-0.1,0.1-0.1,0.1-0.2,0.2c-0.1,0.1-0.2,0.1-0.3,0.1c0.5,0.1,0.7,0.4,0.7,0.8c0,0.2,0,0.3-0.1,0.4c-0.1,0.1-0.1,0.2-0.3,0.3
	c-0.1,0.1-0.2,0.2-0.4,0.2C43.6,42,43.5,42,43.3,42h-1.4v-3.6H43.1z M45.1,40.2h1.3v0.5h-1.3V40.2z M49.9,42h-0.7c0,0-0.1,0-0.1,0
	c0,0,0,0-0.1-0.1l-0.8-1.4c0,0,0,0.1,0,0.1l-0.8,1.3c0,0,0,0.1-0.1,0.1c0,0-0.1,0-0.1,0h-0.6l1.2-1.9l-1.2-1.8h0.7c0,0,0.1,0,0.1,0
	c0,0,0,0,0.1,0.1l0.8,1.3c0,0,0-0.1,0.1-0.1l0.8-1.2c0,0,0-0.1,0.1-0.1c0,0,0,0,0.1,0h0.6l-1.2,1.7L49.9,42z M51.6,40.1
	c-0.1-0.1-0.1-0.1-0.2-0.2c-0.1,0-0.2-0.1-0.3-0.1c-0.1,0-0.2,0-0.3,0.1s-0.1,0.1-0.2,0.2c-0.1,0.1-0.1,0.2-0.1,0.3
	c0,0.1,0,0.2,0,0.4c0,0.2,0,0.3,0,0.4c0,0.1,0.1,0.2,0.1,0.3c0,0.1,0.1,0.1,0.2,0.1c0.1,0,0.1,0,0.2,0c0.1,0,0.2,0,0.3-0.1
	c0.1-0.1,0.2-0.1,0.3-0.2V40.1z M52.2,38.3V42h-0.4c-0.1,0-0.1,0-0.2-0.1l-0.1-0.2c-0.1,0.1-0.2,0.2-0.4,0.3C51.2,42,51,42,50.8,42
	c-0.1,0-0.3,0-0.4-0.1s-0.2-0.1-0.3-0.3c-0.1-0.1-0.1-0.2-0.2-0.4c0-0.2-0.1-0.3-0.1-0.6c0-0.2,0-0.4,0.1-0.5s0.1-0.3,0.2-0.4
	s0.2-0.2,0.3-0.3c0.1-0.1,0.3-0.1,0.5-0.1c0.1,0,0.3,0,0.4,0.1c0.1,0,0.2,0.1,0.3,0.2v-1.4H52.2z"/>
<path class="st2" d="M59,49c0-2,1.5-1.5,1.5-3.5s1-2,1.5-2s0.5,1,1,1s0.5-1,1-1s1.5,0,1.5,2S67,47,67,49"/>
<path class="st1" d="M61.6,41.1C61.6,41.1,61.7,41.2,61.6,41.1l0.4,0.3c-0.1,0.2-0.3,0.3-0.5,0.4C61.2,42,61,42,60.7,42
	c-0.3,0-0.5,0-0.7-0.1c-0.2-0.1-0.4-0.2-0.5-0.4c-0.2-0.2-0.3-0.4-0.4-0.6c-0.1-0.2-0.1-0.5-0.1-0.7c0-0.3,0-0.5,0.1-0.7
	c0.1-0.2,0.2-0.4,0.4-0.6c0.2-0.2,0.3-0.3,0.6-0.4c0.2-0.1,0.5-0.1,0.7-0.1c0.3,0,0.5,0,0.7,0.1c0.2,0.1,0.4,0.2,0.5,0.3l-0.2,0.3
	c0,0,0,0-0.1,0.1c0,0,0,0-0.1,0c0,0-0.1,0-0.1,0c0,0-0.1,0-0.1-0.1c0,0-0.1,0-0.1-0.1c0,0-0.1,0-0.1-0.1c-0.1,0-0.1,0-0.2-0.1
	c-0.1,0-0.2,0-0.3,0c-0.2,0-0.3,0-0.4,0.1c-0.1,0.1-0.2,0.1-0.3,0.3c-0.1,0.1-0.2,0.2-0.2,0.4c-0.1,0.2-0.1,0.3-0.1,0.5
	c0,0.2,0,0.4,0.1,0.5c0.1,0.2,0.1,0.3,0.2,0.4c0.1,0.1,0.2,0.2,0.3,0.3c0.1,0.1,0.3,0.1,0.4,0.1c0.1,0,0.2,0,0.2,0
	c0.1,0,0.1,0,0.2,0c0.1,0,0.1,0,0.2-0.1c0.1,0,0.1-0.1,0.2-0.1C61.5,41.2,61.5,41.2,61.6,41.1C61.6,41.2,61.6,41.1,61.6,41.1z
	 M67.2,38.4L66.1,42h-0.6l-0.8-2.5c0-0.1,0-0.1-0.1-0.2c0,0,0,0.1,0,0.1c0,0,0,0.1,0,0.1L63.8,42h-0.6l-1.1-3.6h0.6
	c0.1,0,0.1,0,0.1,0c0,0,0.1,0.1,0.1,0.1l0.6,2.2c0,0.1,0,0.1,0,0.2c0,0.1,0,0.1,0,0.2c0-0.1,0-0.1,0-0.2c0-0.1,0-0.1,0.1-0.2
	l0.7-2.2c0,0,0-0.1,0.1-0.1c0,0,0.1,0,0.1,0h0.2c0.1,0,0.1,0,0.1,0c0,0,0.1,0.1,0.1,0.1l0.7,2.2c0,0.1,0.1,0.2,0.1,0.4
	c0-0.1,0-0.3,0.1-0.4l0.6-2.2c0,0,0-0.1,0.1-0.1c0,0,0.1,0,0.1,0H67.2z"/>
<path class="st2" d="M77,49c0-2,1.5-1.5,1.5-3.5s1-2,1.5-2s0.5,1,1,1s0.5-1,1-1s1.5,0,1.5,2S85,47,85,49"/>
<path class="st1" d="M78.3,40.1c0.1,0,0.2,0,0.3,0c0.1,0,0.2-0.1,0.2-0.1c0.1-0.1,0.1-0.1,0.1-0.2c0-0.1,0-0.2,0-0.3
	c0-0.2-0.1-0.3-0.2-0.4c-0.1-0.1-0.3-0.1-0.6-0.1h-0.4v1.2H78.3z M80,42h-0.6c-0.1,0-0.2,0-0.3-0.1l-0.8-1.2c0,0-0.1-0.1-0.1-0.1
	c0,0-0.1,0-0.2,0h-0.3V42h-0.7v-3.6h1.1c0.2,0,0.5,0,0.6,0.1c0.2,0,0.3,0.1,0.4,0.2c0.1,0.1,0.2,0.2,0.3,0.3
	c0.1,0.1,0.1,0.3,0.1,0.4c0,0.1,0,0.2-0.1,0.3c0,0.1-0.1,0.2-0.2,0.3c-0.1,0.1-0.2,0.2-0.3,0.2c-0.1,0.1-0.2,0.1-0.3,0.2
	c0,0,0.1,0.1,0.1,0.1c0,0,0.1,0.1,0.1,0.1L80,42z M85.2,38.4L84,42h-0.6l-0.8-2.5c0-0.1,0-0.1-0.1-0.2c0,0,0,0.1,0,0.1
	c0,0,0,0.1,0,0.1L81.7,42h-0.6L80,38.4h0.6c0.1,0,0.1,0,0.1,0c0,0,0.1,0.1,0.1,0.1l0.6,2.2c0,0.1,0,0.1,0,0.2c0,0.1,0,0.1,0,0.2
	c0-0.1,0-0.1,0-0.2c0-0.1,0-0.1,0.1-0.2l0.7-2.2c0,0,0-0.1,0.1-0.1c0,0,0.1,0,0.1,0h0.2c0.1,0,0.1,0,0.1,0c0,0,0.1,0.1,0.1,0.1
	l0.7,2.2c0,0.1,0.1,0.2,0.1,0.4c0-0.1,0-0.3,0.1-0.4l0.6-2.2c0,0,0-0.1,0.1-0.1c0,0,0.1,0,0.1,0H85.2z"/>
<path class="st1" d="M10.5,62.1C5.6,62.1,4,65.7,4,67l-1,0c0-2,2.1-6.1,7.7-6H15v1.1h-4.2c0,0,0,0,0,0L10.5,62.1L10.5,62.1z"/>
<path class="st0" d="M26,62h7v-1h-7c-1.3,0-2.6,0.3-3.5,1.2c-0.9,1-1.5,2.5-1.5,4.8h1c0-2.1,0.5-3.4,1.2-4C23.8,62.3,24.8,62,26,62z
	"/>
<path class="st1" d="M46.5,62.1c-4.9,0-6.5,3.6-6.5,4.9l-1,0c0-2,2.1-6.1,7.7-6H51v1.1h-4.2c0,0,0,0,0,0L46.5,62.1L46.5,62.1z"/>
<path class="st1" d="M41.5,57.9h0.2c0.1,0,0.1,0,0.2,0c0,0,0.1,0,0.1-0.1l1-1.3c0-0.1,0.1-0.1,0.1-0.1c0,0,0.1,0,0.2,0h0.6l-1.2,1.5
	c-0.1,0.1-0.1,0.2-0.2,0.2c0.1,0,0.1,0,0.1,0.1c0,0,0.1,0.1,0.1,0.1l1.3,1.7h-0.6c-0.1,0-0.1,0-0.2,0c0,0-0.1-0.1-0.1-0.1l-1-1.3
	c0,0-0.1-0.1-0.1-0.1c0,0-0.1,0-0.2,0h-0.2V60h-0.7v-3.6h0.7V57.9z M44.1,57.4c0-0.2,0.1-0.3,0.1-0.5c0.1-0.1,0.2-0.2,0.3-0.3
	c0.1-0.1,0.2-0.2,0.4-0.2c0.1,0,0.3-0.1,0.5-0.1c0.2,0,0.3,0,0.4,0.1c0.1,0,0.3,0.1,0.3,0.2c0.1,0.1,0.2,0.2,0.2,0.3
	c0.1,0.1,0.1,0.2,0.1,0.4c0,0.1,0,0.2,0,0.3c0,0.1-0.1,0.2-0.1,0.2c0,0.1-0.1,0.1-0.2,0.2c-0.1,0-0.2,0.1-0.2,0.1
	c0.2,0.1,0.4,0.2,0.5,0.3c0.1,0.1,0.2,0.3,0.2,0.5c0,0.2,0,0.3-0.1,0.5c-0.1,0.1-0.2,0.3-0.3,0.4c-0.1,0.1-0.2,0.2-0.4,0.2
	c-0.1,0-0.3,0.1-0.5,0.1c-0.2,0-0.3,0-0.5-0.1c-0.1,0-0.3-0.1-0.4-0.2c-0.1-0.1-0.2-0.2-0.3-0.3S44,59.2,44,59.1l0.3-0.1
	c0.1,0,0.1,0,0.2,0c0.1,0,0.1,0,0.1,0.1c0,0.1,0.1,0.1,0.1,0.2c0,0.1,0.1,0.1,0.1,0.2c0,0,0.1,0.1,0.2,0.1c0.1,0,0.1,0,0.2,0
	c0.1,0,0.2,0,0.3,0c0.1,0,0.1-0.1,0.2-0.1c0.1-0.1,0.1-0.1,0.1-0.2c0-0.1,0-0.1,0-0.2c0-0.1,0-0.2,0-0.2c0-0.1-0.1-0.1-0.1-0.2
	c-0.1,0-0.1-0.1-0.3-0.1c-0.1,0-0.3,0-0.4,0v-0.4c0.2,0,0.3,0,0.4,0c0.1,0,0.2-0.1,0.2-0.1c0.1,0,0.1-0.1,0.1-0.2c0-0.1,0-0.1,0-0.2
	c0-0.2,0-0.3-0.1-0.4c-0.1-0.1-0.2-0.1-0.4-0.1c-0.1,0-0.1,0-0.2,0c-0.1,0-0.1,0-0.2,0.1c0,0-0.1,0.1-0.1,0.1c0,0-0.1,0.1-0.1,0.2
	c0,0.1-0.1,0.1-0.1,0.2c0,0-0.1,0-0.2,0L44.1,57.4z M47.7,57.7c0.1,0,0.2,0,0.2,0c0.1,0,0.1,0,0.2,0c0.2,0,0.4,0,0.5,0.1
	c0.1,0.1,0.3,0.1,0.4,0.2c0.1,0.1,0.2,0.2,0.2,0.4c0.1,0.1,0.1,0.3,0.1,0.4c0,0.2,0,0.4-0.1,0.5c-0.1,0.2-0.2,0.3-0.3,0.4
	c-0.1,0.1-0.3,0.2-0.4,0.3C48.4,60,48.2,60,48,60c-0.1,0-0.2,0-0.3,0c-0.1,0-0.2-0.1-0.3-0.1c-0.1,0-0.2-0.1-0.2-0.1
	c-0.1-0.1-0.1-0.1-0.2-0.2l0.2-0.3c0-0.1,0.1-0.1,0.2-0.1c0,0,0.1,0,0.1,0c0,0,0.1,0.1,0.1,0.1c0.1,0,0.1,0.1,0.2,0.1
	c0.1,0,0.2,0,0.3,0c0.1,0,0.2,0,0.3-0.1c0.1,0,0.2-0.1,0.2-0.2c0.1-0.1,0.1-0.1,0.1-0.2c0-0.1,0-0.2,0-0.3c0-0.2-0.1-0.4-0.2-0.5
	c-0.1-0.1-0.3-0.2-0.5-0.2c-0.2,0-0.3,0-0.5,0.1l-0.4-0.1l0.3-1.8h1.8v0.3c0,0.1,0,0.2-0.1,0.2s-0.1,0.1-0.3,0.1h-1L47.7,57.7z"/>
<path class="st1" d="M64.5,62.1c-4.9,0-6.5,3.6-6.5,4.9l-1,0c0-2,2.1-6.1,7.7-6H69v1.1h-4.2c0,0,0,0,0,0L64.5,62.1L64.5,62.1z"/>
<path class="st1" d="M59.3,58.2c0,0.3,0,0.5-0.1,0.7c-0.1,0.2-0.2,0.4-0.4,0.6s-0.4,0.3-0.6,0.4C58,60,57.7,60,57.5,60
	c-0.3,0-0.5,0-0.7-0.1c-0.2-0.1-0.4-0.2-0.6-0.4c-0.2-0.2-0.3-0.4-0.4-0.6c-0.1-0.2-0.1-0.5-0.1-0.7s0-0.5,0.1-0.7
	c0.1-0.2,0.2-0.4,0.4-0.6c0.2-0.2,0.4-0.3,0.6-0.4c0.2-0.1,0.5-0.1,0.7-0.1c0.2,0,0.4,0,0.5,0.1c0.2,0,0.3,0.1,0.4,0.2
	c0.1,0.1,0.3,0.2,0.4,0.3c0.1,0.1,0.2,0.2,0.3,0.4s0.1,0.3,0.2,0.4C59.3,57.8,59.3,58,59.3,58.2z M58.6,58.2c0-0.2,0-0.4-0.1-0.5
	c-0.1-0.2-0.1-0.3-0.2-0.4s-0.2-0.2-0.4-0.3c-0.1-0.1-0.3-0.1-0.5-0.1s-0.3,0-0.5,0.1c-0.1,0.1-0.3,0.1-0.4,0.3
	c-0.1,0.1-0.2,0.2-0.2,0.4c-0.1,0.2-0.1,0.3-0.1,0.5s0,0.4,0.1,0.5c0.1,0.2,0.1,0.3,0.2,0.4c0.1,0.1,0.2,0.2,0.4,0.3
	c0.1,0.1,0.3,0.1,0.5,0.1s0.3,0,0.5-0.1c0.1-0.1,0.3-0.1,0.4-0.3c0.1-0.1,0.2-0.2,0.2-0.4C58.6,58.6,58.6,58.4,58.6,58.2z
	 M61.2,59.5c0.1,0,0.2,0,0.3,0c0.1,0,0.2-0.1,0.2-0.1c0.1-0.1,0.1-0.1,0.1-0.2c0-0.1,0-0.1,0-0.2c0-0.1,0-0.1,0-0.2
	c0-0.1-0.1-0.1-0.1-0.2c-0.1,0-0.1-0.1-0.2-0.1c-0.1,0-0.2,0-0.3,0h-0.7v1.1H61.2z M60.6,56.9v1h0.5c0.2,0,0.4,0,0.5-0.1
	c0.1-0.1,0.2-0.2,0.2-0.4c0-0.2-0.1-0.3-0.2-0.4c-0.1-0.1-0.3-0.1-0.5-0.1H60.6z M61.1,56.4c0.2,0,0.4,0,0.6,0.1
	c0.2,0,0.3,0.1,0.4,0.2c0.1,0.1,0.2,0.2,0.2,0.3c0,0.1,0.1,0.3,0.1,0.4c0,0.1,0,0.2,0,0.2c0,0.1-0.1,0.1-0.1,0.2
	c-0.1,0.1-0.1,0.1-0.2,0.2c-0.1,0.1-0.2,0.1-0.3,0.1c0.5,0.1,0.7,0.4,0.7,0.8c0,0.2,0,0.3-0.1,0.4c-0.1,0.1-0.1,0.2-0.3,0.3
	c-0.1,0.1-0.2,0.2-0.4,0.2C61.6,60,61.5,60,61.3,60h-1.4v-3.6H61.1z M63.1,58.2h1.3v0.5h-1.3V58.2z M67.9,60h-0.7c0,0-0.1,0-0.1,0
	c0,0,0,0-0.1-0.1l-0.8-1.4c0,0,0,0.1,0,0.1l-0.8,1.3c0,0,0,0.1-0.1,0.1c0,0-0.1,0-0.1,0h-0.6l1.2-1.9l-1.2-1.8h0.7c0,0,0.1,0,0.1,0
	c0,0,0,0,0.1,0.1l0.8,1.3c0,0,0-0.1,0.1-0.1l0.8-1.2c0,0,0-0.1,0.1-0.1c0,0,0,0,0.1,0h0.6l-1.2,1.7L67.9,60z M69.6,58.1
	c-0.1-0.1-0.1-0.1-0.2-0.2c-0.1,0-0.2-0.1-0.3-0.1c-0.1,0-0.2,0-0.3,0.1s-0.1,0.1-0.2,0.2c-0.1,0.1-0.1,0.2-0.1,0.3
	c0,0.1,0,0.2,0,0.4c0,0.2,0,0.3,0,0.4c0,0.1,0.1,0.2,0.1,0.3c0,0.1,0.1,0.1,0.2,0.1c0.1,0,0.1,0,0.2,0c0.1,0,0.2,0,0.3-0.1
	c0.1-0.1,0.2-0.1,0.3-0.2V58.1z M70.2,56.3V60h-0.4c-0.1,0-0.1,0-0.2-0.1l-0.1-0.2c-0.1,0.1-0.2,0.2-0.4,0.3C69.2,60,69,60,68.8,60
	c-0.1,0-0.3,0-0.4-0.1s-0.2-0.1-0.3-0.3c-0.1-0.1-0.1-0.2-0.2-0.4c0-0.2-0.1-0.3-0.1-0.6c0-0.2,0-0.4,0.1-0.5
	c0.1-0.2,0.1-0.3,0.2-0.4s0.2-0.2,0.3-0.3c0.1-0.1,0.3-0.1,0.5-0.1c0.1,0,0.3,0,0.4,0.1c0.1,0,0.2,0.1,0.3,0.2v-1.4H70.2z"/>
<path class="st2" d="M75,67c0-1.2,1-2.5,1-4c0-1.5,0.5-2.5,1-2.5s1,1,2,1s1,0.5,1.5,0.5s0.5-0.5,1.5-0.5s5,0,5,0"/>
<path class="st1" d="M79.6,59.1C79.6,59.1,79.7,59.2,79.6,59.1l0.4,0.3c-0.1,0.2-0.3,0.3-0.5,0.4C79.2,60,79,60,78.7,60
	c-0.3,0-0.5,0-0.7-0.1c-0.2-0.1-0.4-0.2-0.5-0.4c-0.2-0.2-0.3-0.4-0.3-0.6c-0.1-0.2-0.1-0.5-0.1-0.7c0-0.3,0-0.5,0.1-0.7
	c0.1-0.2,0.2-0.4,0.4-0.6c0.2-0.2,0.3-0.3,0.6-0.4c0.2-0.1,0.5-0.1,0.7-0.1c0.3,0,0.5,0,0.7,0.1c0.2,0.1,0.4,0.2,0.5,0.3l-0.2,0.3
	c0,0,0,0-0.1,0.1c0,0,0,0-0.1,0c0,0-0.1,0-0.1,0c0,0-0.1,0-0.1-0.1c0,0-0.1,0-0.1-0.1c0,0-0.1,0-0.1-0.1c-0.1,0-0.1,0-0.2-0.1
	c-0.1,0-0.2,0-0.3,0c-0.2,0-0.3,0-0.4,0.1c-0.1,0.1-0.2,0.1-0.3,0.3c-0.1,0.1-0.2,0.2-0.2,0.4c-0.1,0.2-0.1,0.3-0.1,0.5
	c0,0.2,0,0.4,0.1,0.5c0.1,0.2,0.1,0.3,0.2,0.4c0.1,0.1,0.2,0.2,0.3,0.3c0.1,0.1,0.3,0.1,0.4,0.1c0.1,0,0.2,0,0.2,0
	c0.1,0,0.1,0,0.2,0c0.1,0,0.1,0,0.2-0.1c0.1,0,0.1-0.1,0.2-0.1C79.5,59.2,79.5,59.2,79.6,59.1C79.6,59.2,79.6,59.1,79.6,59.1z
	 M85.2,56.4L84.1,60h-0.6l-0.8-2.5c0-0.1,0-0.1-0.1-0.2c0,0,0,0.1,0,0.1c0,0,0,0.1,0,0.1L81.8,60h-0.6l-1.1-3.6h0.6
	c0.1,0,0.1,0,0.1,0c0,0,0.1,0.1,0.1,0.1l0.6,2.2c0,0.1,0,0.1,0,0.2c0,0.1,0,0.1,0,0.2c0-0.1,0-0.1,0-0.2c0-0.1,0-0.1,0.1-0.2
	l0.7-2.2c0,0,0-0.1,0.1-0.1c0,0,0.1,0,0.1,0h0.2c0.1,0,0.1,0,0.1,0c0,0,0.1,0.1,0.1,0.1l0.7,2.2c0,0.1,0.1,0.2,0.1,0.4
	c0-0.1,0-0.3,0.1-0.4l0.6-2.2c0,0,0-0.1,0.1-0.1c0,0,0.1,0,0.1,0H85.2z"/>
<path class="st2" d="M93,67c0-1.2,1-2.5,1-4c0-1.5,0.5-2.5,1-2.5s1,1,2,1s1,0.5,1.5,0.5s0.5-0.5,1.5-0.5s5,0,5,0"/>
<path class="st1" d="M96.3,58.1c0.1,0,0.2,0,0.3,0c0.1,0,0.2-0.1,0.2-0.1c0.1-0.1,0.1-0.1,0.1-0.2c0-0.1,0-0.2,0-0.3
	c0-0.2-0.1-0.3-0.2-0.4c-0.1-0.1-0.3-0.1-0.6-0.1h-0.4v1.2H96.3z M98,60h-0.6c-0.1,0-0.2,0-0.3-0.1l-0.8-1.2c0,0-0.1-0.1-0.1-0.1
	c0,0-0.1,0-0.2,0h-0.3V60h-0.7v-3.6h1.1c0.2,0,0.5,0,0.6,0.1c0.2,0,0.3,0.1,0.4,0.2c0.1,0.1,0.2,0.2,0.3,0.3
	c0.1,0.1,0.1,0.3,0.1,0.4c0,0.1,0,0.2-0.1,0.3c0,0.1-0.1,0.2-0.2,0.3c-0.1,0.1-0.2,0.2-0.3,0.2c-0.1,0.1-0.2,0.1-0.3,0.2
	c0,0,0.1,0.1,0.1,0.1c0,0,0.1,0.1,0.1,0.1L98,60z M103.2,56.4L102,60h-0.6l-0.8-2.5c0-0.1,0-0.1-0.1-0.2c0,0,0,0.1,0,0.1
	c0,0,0,0.1,0,0.1L99.7,60h-0.6L98,56.4h0.6c0.1,0,0.1,0,0.1,0c0,0,0.1,0.1,0.1,0.1l0.6,2.2c0,0.1,0,0.1,0,0.2c0,0.1,0,0.1,0,0.2
	c0-0.1,0-0.1,0-0.2c0-0.1,0-0.1,0.1-0.2l0.7-2.2c0,0,0-0.1,0.1-0.1c0,0,0.1,0,0.1,0h0.2c0.1,0,0.1,0,0.1,0c0,0,0.1,0.1,0.1,0.1
	l0.7,2.2c0,0.1,0.1,0.2,0.1,0.4c0-0.1,0-0.3,0.1-0.4l0.6-2.2c0,0,0-0.1,0.1-0.1c0,0,0.1,0,0.1,0H103.2z"/>
<path class="st0" d="M6.6,80.7C6,80.3,5.2,80,4,80v-1c1.3,0,2.4,0.3,3.2,0.9c0.8,0.5,1.3,1.2,1.7,1.9C8.9,81.9,8.9,82,9,82.2
	c0.1-0.1,0.1-0.3,0.2-0.4c0.3-0.7,0.9-1.4,1.7-1.9c0.8-0.5,1.8-0.9,3.2-0.9v1c-1.2,0-2,0.3-2.6,0.7c-0.6,0.4-1,1-1.3,1.5
	c-0.3,0.6-0.4,1.1-0.5,1.6c0,0.2-0.1,0.4-0.1,0.5c0,0.1,0,0.1,0,0.1c0,0,0,0,0,0l0,0v0v0c0,0,0,0,0,0v0v0C9.5,84.8,9.3,85,9,85
	c-0.3,0-0.5-0.2-0.5-0.5v0c0,0,0,0,0,0l0,0c0,0,0,0,0,0c0,0,0-0.1,0-0.1c0-0.1,0-0.3-0.1-0.5c-0.1-0.4-0.2-1-0.5-1.6
	C7.6,81.7,7.2,81.1,6.6,80.7z"/>
<path class="st1" d="M25,79c0.3,0,0.7,0.1,1,0.3c0.3,0.2,0.6,0.5,0.8,1c0.1,0.2,0.2,0.3,0.2,0.6c0.1-0.4,0.3-0.8,0.6-1.1
	c0.3-0.4,0.8-0.7,1.4-0.7h3v1h-3c-0.2,0-0.4,0.1-0.6,0.4c-0.2,0.3-0.4,0.7-0.5,1.2c-0.3,1-0.4,2.2-0.4,3c0,0.3-0.2,0.5-0.5,0.5
	s-0.5-0.2-0.5-0.5c0-2-0.2-3.1-0.6-3.8c-0.2-0.3-0.3-0.5-0.5-0.6C25.3,80,25.2,80,25,80h-3v-1H25z"/>
<path class="st0" d="M42.6,80.7C42,80.3,41.2,80,40,80v-1c1.3,0,2.4,0.3,3.2,0.9c0.8,0.5,1.3,1.2,1.7,1.9c0.1,0.1,0.1,0.3,0.2,0.4
	c0.1-0.1,0.1-0.3,0.2-0.4c0.3-0.7,0.9-1.4,1.7-1.9c0.8-0.5,1.8-0.9,3.2-0.9v1c-1.2,0-2,0.3-2.6,0.7c-0.6,0.4-1,1-1.3,1.5
	c-0.3,0.6-0.4,1.1-0.5,1.6c0,0.2-0.1,0.4-0.1,0.5c0,0.1,0,0.1,0,0.1c0,0,0,0,0,0l0,0v0v0c0,0,0,0,0,0v0v0c0,0.3-0.2,0.5-0.5,0.5
	c-0.3,0-0.5-0.2-0.5-0.5v0c0,0,0,0,0,0l0,0c0,0,0,0,0,0c0,0,0-0.1,0-0.1c0-0.1,0-0.3-0.1-0.5c-0.1-0.4-0.2-1-0.5-1.6
	C43.6,81.7,43.2,81.1,42.6,80.7z"/>
<path class="st1" d="M41.3,76.2c0,0.3,0,0.5-0.1,0.7c-0.1,0.2-0.2,0.4-0.4,0.6s-0.4,0.3-0.6,0.4C40,78,39.7,78,39.5,78
	c-0.3,0-0.5,0-0.7-0.1c-0.2-0.1-0.4-0.2-0.6-0.4c-0.2-0.2-0.3-0.4-0.4-0.6c-0.1-0.2-0.1-0.5-0.1-0.7s0-0.5,0.1-0.7
	c0.1-0.2,0.2-0.4,0.4-0.6c0.2-0.2,0.4-0.3,0.6-0.4c0.2-0.1,0.5-0.1,0.7-0.1c0.2,0,0.4,0,0.5,0.1c0.2,0,0.3,0.1,0.4,0.2
	c0.1,0.1,0.3,0.2,0.4,0.3c0.1,0.1,0.2,0.2,0.3,0.4s0.1,0.3,0.2,0.4C41.3,75.8,41.3,76,41.3,76.2z M40.6,76.2c0-0.2,0-0.4-0.1-0.5
	c-0.1-0.2-0.1-0.3-0.2-0.4s-0.2-0.2-0.4-0.3c-0.1-0.1-0.3-0.1-0.5-0.1s-0.3,0-0.5,0.1c-0.1,0.1-0.3,0.1-0.4,0.3
	c-0.1,0.1-0.2,0.2-0.2,0.4c-0.1,0.2-0.1,0.3-0.1,0.5c0,0.2,0,0.4,0.1,0.5c0.1,0.2,0.1,0.3,0.2,0.4c0.1,0.1,0.2,0.2,0.4,0.3
	c0.1,0.1,0.3,0.1,0.5,0.1s0.3,0,0.5-0.1c0.1-0.1,0.3-0.1,0.4-0.3c0.1-0.1,0.2-0.2,0.2-0.4C40.6,76.6,40.6,76.4,40.6,76.2z
	 M43.2,77.5c0.1,0,0.2,0,0.3,0c0.1,0,0.2-0.1,0.2-0.1c0.1,0,0.1-0.1,0.1-0.2c0-0.1,0-0.1,0-0.2c0-0.1,0-0.1,0-0.2
	c0-0.1-0.1-0.1-0.1-0.2c-0.1,0-0.1-0.1-0.2-0.1c-0.1,0-0.2,0-0.3,0h-0.7v1.1H43.2z M42.6,74.9v1h0.5c0.2,0,0.4,0,0.5-0.1
	c0.1-0.1,0.2-0.2,0.2-0.4c0-0.2-0.1-0.3-0.2-0.4c-0.1-0.1-0.3-0.1-0.5-0.1H42.6z M43.1,74.4c0.2,0,0.4,0,0.6,0.1
	c0.2,0,0.3,0.1,0.4,0.2c0.1,0.1,0.2,0.2,0.2,0.3s0.1,0.3,0.1,0.4c0,0.1,0,0.2,0,0.2c0,0.1-0.1,0.1-0.1,0.2c-0.1,0.1-0.1,0.1-0.2,0.2
	c-0.1,0.1-0.2,0.1-0.3,0.1c0.5,0.1,0.7,0.4,0.7,0.8c0,0.2,0,0.3-0.1,0.4c-0.1,0.1-0.1,0.2-0.3,0.3c-0.1,0.1-0.2,0.2-0.4,0.2
	C43.6,78,43.5,78,43.3,78h-1.4v-3.6H43.1z M45.1,76.2h1.3v0.5h-1.3V76.2z M49.9,78h-0.7c0,0-0.1,0-0.1,0c0,0,0,0-0.1-0.1l-0.8-1.4
	c0,0,0,0.1,0,0.1l-0.8,1.3c0,0,0,0.1-0.1,0.1c0,0-0.1,0-0.1,0h-0.6l1.2-1.9l-1.2-1.8h0.7c0,0,0.1,0,0.1,0c0,0,0,0,0.1,0.1l0.8,1.3
	c0,0,0-0.1,0.1-0.1l0.8-1.2c0,0,0-0.1,0.1-0.1c0,0,0,0,0.1,0h0.6l-1.2,1.7L49.9,78z M51.6,76.1c-0.1-0.1-0.1-0.1-0.2-0.2
	c-0.1,0-0.2-0.1-0.3-0.1c-0.1,0-0.2,0-0.3,0.1c-0.1,0-0.1,0.1-0.2,0.2c-0.1,0.1-0.1,0.2-0.1,0.3c0,0.1,0,0.2,0,0.4
	c0,0.2,0,0.3,0,0.4c0,0.1,0.1,0.2,0.1,0.3c0,0.1,0.1,0.1,0.2,0.1c0.1,0,0.1,0,0.2,0c0.1,0,0.2,0,0.3-0.1s0.2-0.1,0.3-0.2V76.1z
	 M52.2,74.3V78h-0.4c-0.1,0-0.1,0-0.2-0.1l-0.1-0.2c-0.1,0.1-0.2,0.2-0.4,0.3C51.2,78,51,78,50.8,78c-0.1,0-0.3,0-0.4-0.1
	c-0.1-0.1-0.2-0.1-0.3-0.3c-0.1-0.1-0.1-0.2-0.2-0.4c0-0.2-0.1-0.4-0.1-0.6c0-0.2,0-0.4,0.1-0.5s0.1-0.3,0.2-0.4
	c0.1-0.1,0.2-0.2,0.3-0.3c0.1-0.1,0.3-0.1,0.5-0.1c0.1,0,0.3,0,0.4,0.1s0.2,0.1,0.3,0.2v-1.4H52.2z"/>
<path class="st2" d="M68,79.5c0,0-0.5,0-1.5,0s-2,1-2,2.5s0,2.5-0.5,2.5s0-1.5-1-1.5s-0.5,1.5-1,1.5s-0.5-1-0.5-2.5s-1-2.5-2-2.5
	s-1.5,0-1.5,0"/>
<path class="st1" d="M61.6,77.1C61.6,77.1,61.7,77.2,61.6,77.1l0.4,0.3c-0.1,0.2-0.3,0.3-0.5,0.4C61.2,78,61,78,60.7,78
	c-0.3,0-0.5,0-0.7-0.1c-0.2-0.1-0.4-0.2-0.5-0.4c-0.2-0.2-0.3-0.4-0.4-0.6c-0.1-0.2-0.1-0.5-0.1-0.7c0-0.3,0-0.5,0.1-0.7
	c0.1-0.2,0.2-0.4,0.4-0.6c0.2-0.2,0.3-0.3,0.6-0.4c0.2-0.1,0.5-0.1,0.7-0.1c0.3,0,0.5,0,0.7,0.1c0.2,0.1,0.4,0.2,0.5,0.3l-0.2,0.3
	c0,0,0,0-0.1,0.1c0,0,0,0-0.1,0c0,0-0.1,0-0.1,0c0,0-0.1,0-0.1-0.1c0,0-0.1,0-0.1-0.1c0,0-0.1,0-0.1-0.1c-0.1,0-0.1,0-0.2-0.1
	c-0.1,0-0.2,0-0.3,0c-0.2,0-0.3,0-0.4,0.1c-0.1,0.1-0.2,0.1-0.3,0.3c-0.1,0.1-0.2,0.2-0.2,0.4c-0.1,0.2-0.1,0.3-0.1,0.5
	c0,0.2,0,0.4,0.1,0.5c0.1,0.2,0.1,0.3,0.2,0.4s0.2,0.2,0.3,0.3c0.1,0.1,0.3,0.1,0.4,0.1c0.1,0,0.2,0,0.2,0c0.1,0,0.1,0,0.2,0
	c0.1,0,0.1,0,0.2-0.1c0.1,0,0.1-0.1,0.2-0.1C61.5,77.2,61.5,77.2,61.6,77.1C61.6,77.2,61.6,77.1,61.6,77.1z M67.2,74.4L66.1,78h-0.6
	l-0.8-2.5c0-0.1,0-0.1-0.1-0.2c0,0,0,0.1,0,0.1c0,0,0,0.1,0,0.1L63.8,78h-0.6l-1.1-3.6h0.6c0.1,0,0.1,0,0.1,0c0,0,0.1,0.1,0.1,0.1
	l0.6,2.2c0,0.1,0,0.1,0,0.2c0,0.1,0,0.1,0,0.2c0-0.1,0-0.1,0-0.2c0-0.1,0-0.1,0.1-0.2l0.7-2.2c0,0,0-0.1,0.1-0.1c0,0,0.1,0,0.1,0
	h0.2c0.1,0,0.1,0,0.1,0c0,0,0.1,0.1,0.1,0.1l0.7,2.2c0,0.1,0.1,0.2,0.1,0.4c0-0.1,0-0.3,0.1-0.4l0.6-2.2c0,0,0-0.1,0.1-0.1
	c0,0,0.1,0,0.1,0H67.2z"/>
<path class="st2" d="M86,79.5c0,0-0.5,0-1.5,0s-2,1-2,2.5s0,2.5-0.5,2.5s0-1.5-1-1.5s-0.5,1.5-1,1.5s-0.5-1-0.5-2.5s-1-2.5-2-2.5
	s-1.5,0-1.5,0"/>
<path class="st1" d="M78.3,76.1c0.1,0,0.2,0,0.3,0c0.1,0,0.2-0.1,0.2-0.1c0.1-0.1,0.1-0.1,0.1-0.2s0-0.2,0-0.3
	c0-0.2-0.1-0.3-0.2-0.4c-0.1-0.1-0.3-0.1-0.6-0.1h-0.4v1.2H78.3z M80,78h-0.6c-0.1,0-0.2,0-0.3-0.1l-0.8-1.2c0,0-0.1-0.1-0.1-0.1
	c0,0-0.1,0-0.2,0h-0.3V78h-0.7v-3.6h1.1c0.2,0,0.5,0,0.6,0.1c0.2,0,0.3,0.1,0.4,0.2c0.1,0.1,0.2,0.2,0.3,0.3
	c0.1,0.1,0.1,0.3,0.1,0.4c0,0.1,0,0.2-0.1,0.3c0,0.1-0.1,0.2-0.2,0.3c-0.1,0.1-0.2,0.2-0.3,0.2c-0.1,0.1-0.2,0.1-0.3,0.2
	c0,0,0.1,0.1,0.1,0.1c0,0,0.1,0.1,0.1,0.1L80,78z M85.2,74.4L84,78h-0.6l-0.8-2.5c0-0.1,0-0.1-0.1-0.2c0,0,0,0.1,0,0.1
	c0,0,0,0.1,0,0.1L81.7,78h-0.6L80,74.4h0.6c0.1,0,0.1,0,0.1,0c0,0,0.1,0.1,0.1,0.1l0.6,2.2c0,0.1,0,0.1,0,0.2c0,0.1,0,0.1,0,0.2
	c0-0.1,0-0.1,0-0.2c0-0.1,0-0.1,0.1-0.2l0.7-2.2c0,0,0-0.1,0.1-0.1c0,0,0.1,0,0.1,0h0.2c0.1,0,0.1,0,0.1,0c0,0,0.1,0.1,0.1,0.1
	l0.7,2.2c0,0.1,0.1,0.2,0.1,0.4c0-0.1,0-0.3,0.1-0.4l0.6-2.2c0,0,0-0.1,0.1-0.1c0,0,0.1,0,0.1,0H85.2z"/>
<path class="st2" d="M5,103c0-2,1.5-1.5,1.5-3.5c0-2,1-2,1.5-2s0.5,1,1,1s0.5-1,1-1c0.5,0,1.5,0,1.5,2c0,2,1.5,1.5,1.5,3.5"/>
<path class="st1" d="M8.1,92.9H7V96H6.3v-3.1H5.2v-0.6h2.9V92.9z M9.6,94.1c0.1,0,0.2,0,0.3,0c0.1,0,0.2-0.1,0.2-0.1
	c0.1-0.1,0.1-0.1,0.1-0.2s0-0.2,0-0.3c0-0.2-0.1-0.3-0.2-0.4c-0.1-0.1-0.3-0.1-0.6-0.1H9.2v1.2H9.6z M11.4,96h-0.6
	c-0.1,0-0.2,0-0.3-0.1l-0.8-1.2c0,0-0.1-0.1-0.1-0.1c0,0-0.1,0-0.2,0H9.2V96H8.6v-3.6h1.1c0.2,0,0.5,0,0.6,0.1
	c0.2,0,0.3,0.1,0.4,0.2c0.1,0.1,0.2,0.2,0.3,0.3c0.1,0.1,0.1,0.3,0.1,0.4c0,0.1,0,0.2-0.1,0.3c0,0.1-0.1,0.2-0.2,0.3
	c-0.1,0.1-0.2,0.2-0.3,0.2c-0.1,0.1-0.2,0.1-0.3,0.2c0,0,0.1,0.1,0.1,0.1c0,0,0.1,0.1,0.1,0.1L11.4,96z M12.4,96h-0.7v-3.6h0.7V96z"
	/>
<path class="st1" d="M7.6,118.1L7,116.4c0-0.1-0.1-0.2-0.1-0.3c0-0.1-0.1-0.2-0.1-0.3c0,0.1-0.1,0.2-0.1,0.3c0,0.1-0.1,0.2-0.1,0.3
	L6,118.1H7.6z M9.3,120H8.6c-0.1,0-0.1,0-0.2-0.1c-0.1,0-0.1-0.1-0.1-0.2l-0.4-1H5.8l-0.4,1c0,0.1-0.1,0.1-0.1,0.1
	c-0.1,0-0.1,0.1-0.2,0.1H4.4l2-5.1h1L9.3,120z M11.5,117.5c0.2,0,0.3,0,0.5-0.1c0.1,0,0.2-0.1,0.3-0.2c0.1-0.1,0.2-0.2,0.2-0.3
	c0-0.1,0.1-0.2,0.1-0.4c0-0.1,0-0.3-0.1-0.4s-0.1-0.2-0.2-0.3c-0.1-0.1-0.2-0.1-0.3-0.2c-0.1,0-0.3-0.1-0.5-0.1h-0.7v1.8H11.5z
	 M11.5,114.9c0.3,0,0.6,0,0.9,0.1s0.5,0.2,0.6,0.3c0.2,0.1,0.3,0.3,0.4,0.5c0.1,0.2,0.1,0.4,0.1,0.7c0,0.2,0,0.5-0.1,0.7
	c-0.1,0.2-0.2,0.4-0.4,0.5c-0.2,0.1-0.4,0.3-0.6,0.3c-0.2,0.1-0.5,0.1-0.9,0.1h-0.7v1.8H9.8v-5.1H11.5z"/>
<path class="st0" d="M21.9,116.9c-0.3-0.7-0.7-0.9-0.9-0.9v-1c0.8,0,1.4,0.5,1.8,1.4c0.1,0.1,0.1,0.3,0.2,0.4
	c0.1-0.2,0.1-0.3,0.2-0.4c0.4-0.9,1.1-1.4,1.8-1.4c0.3,0,0.7,0.1,1,0.3c0.3,0.2,0.6,0.5,0.8,1c0.1,0.2,0.2,0.3,0.2,0.6
	c0.1-0.4,0.3-0.8,0.6-1.1c0.3-0.4,0.8-0.7,1.4-0.7s1.1,0.3,1.4,0.7c0.3,0.3,0.5,0.8,0.6,1.2c0.2-0.5,0.4-0.9,0.6-1.2
	c0.3-0.4,0.8-0.7,1.4-0.7v1c-0.2,0-0.4,0.1-0.6,0.4c-0.2,0.3-0.4,0.7-0.5,1.2c-0.3,1-0.4,2.2-0.4,3c0,0.3-0.2,0.5-0.5,0.5
	s-0.5-0.2-0.5-0.5c0-0.8-0.1-2-0.4-3c-0.1-0.5-0.3-0.9-0.5-1.2c-0.2-0.3-0.4-0.4-0.6-0.4s-0.4,0.1-0.6,0.4c-0.2,0.3-0.4,0.7-0.5,1.2
	c-0.3,1-0.4,2.2-0.4,3c0,0.3-0.2,0.5-0.5,0.5s-0.5-0.2-0.5-0.5c0-2-0.2-3.1-0.6-3.8c-0.2-0.3-0.3-0.5-0.5-0.6
	c-0.1-0.1-0.3-0.1-0.5-0.1c-0.2,0-0.6,0.2-0.9,0.9c-0.3,0.7-0.6,1.9-0.6,3.6c0,0.3-0.2,0.5-0.5,0.5s-0.5-0.2-0.5-0.5
	C22.5,118.7,22.3,117.6,21.9,116.9z"/>
<path class="st0" d="M39.9,119.1c-0.3,0.7-0.7,0.9-0.9,0.9v1c0.8,0,1.4-0.5,1.8-1.4c0.1-0.1,0.1-0.3,0.2-0.4
	c0.1,0.2,0.1,0.3,0.2,0.4c0.4,0.9,1.1,1.4,1.8,1.4c0.3,0,0.7-0.1,1-0.3c0.3-0.2,0.6-0.5,0.8-1c0.1-0.2,0.2-0.3,0.2-0.6
	c0.1,0.4,0.3,0.8,0.6,1.1c0.3,0.4,0.8,0.7,1.4,0.7s1.1-0.3,1.4-0.7c0.3-0.3,0.5-0.8,0.6-1.2c0.2,0.5,0.3,0.9,0.6,1.2
	c0.3,0.4,0.8,0.7,1.4,0.7v-1c-0.2,0-0.4-0.1-0.6-0.4c-0.2-0.3-0.4-0.7-0.5-1.2c-0.3-1-0.4-2.2-0.4-3c0-0.3-0.2-0.5-0.5-0.5
	s-0.5,0.2-0.5,0.5c0,0.8-0.1,2-0.4,3c-0.1,0.5-0.3,0.9-0.5,1.2c-0.2,0.3-0.4,0.4-0.6,0.4s-0.4-0.1-0.6-0.4c-0.2-0.3-0.4-0.7-0.5-1.2
	c-0.3-1-0.4-2.2-0.4-3c0-0.3-0.2-0.5-0.5-0.5s-0.5,0.2-0.5,0.5c0,2-0.2,3.1-0.6,3.8c-0.2,0.3-0.3,0.5-0.5,0.6
	c-0.1,0.1-0.3,0.1-0.5,0.1c-0.2,0-0.6-0.2-0.9-0.9c-0.3-0.7-0.6-1.9-0.6-3.6c0-0.3-0.2-0.5-0.5-0.5s-0.5,0.2-0.5,0.5
	C40.5,117.3,40.3,118.4,39.9,119.1z"/>
<path class="st1" d="M59.1,115.9c0,0-0.1,0.1-0.1,0.1c0,0-0.1,0-0.1,0c0,0-0.1,0-0.2-0.1c-0.1,0-0.1-0.1-0.2-0.1
	c-0.1,0-0.2-0.1-0.3-0.1c-0.1,0-0.2-0.1-0.4-0.1c-0.1,0-0.2,0-0.3,0c-0.1,0-0.2,0.1-0.2,0.1c-0.1,0.1-0.1,0.1-0.1,0.2
	c0,0.1,0,0.2,0,0.3c0,0.1,0,0.2,0.1,0.3c0.1,0.1,0.2,0.1,0.3,0.2c0.1,0.1,0.2,0.1,0.4,0.1c0.1,0,0.3,0.1,0.4,0.1
	c0.1,0,0.3,0.1,0.4,0.2c0.1,0.1,0.3,0.1,0.4,0.3c0.1,0.1,0.2,0.2,0.3,0.4c0.1,0.1,0.1,0.3,0.1,0.5c0,0.2,0,0.4-0.1,0.6
	c-0.1,0.2-0.2,0.4-0.3,0.5c-0.1,0.1-0.3,0.3-0.5,0.3c-0.2,0.1-0.5,0.1-0.7,0.1c-0.2,0-0.3,0-0.5,0c-0.2,0-0.3-0.1-0.5-0.1
	c-0.1-0.1-0.3-0.1-0.4-0.2s-0.2-0.2-0.3-0.3l0.3-0.5c0,0,0.1-0.1,0.1-0.1c0,0,0.1,0,0.1,0c0.1,0,0.1,0,0.2,0.1
	c0.1,0,0.1,0.1,0.2,0.2s0.2,0.1,0.3,0.2c0.1,0,0.3,0.1,0.5,0.1c0.3,0,0.5-0.1,0.6-0.2c0.1-0.1,0.2-0.3,0.2-0.6c0-0.1,0-0.2-0.1-0.3
	c-0.1-0.1-0.2-0.2-0.3-0.2c-0.1-0.1-0.2-0.1-0.4-0.1s-0.3-0.1-0.4-0.1c-0.1,0-0.3-0.1-0.4-0.2c-0.1-0.1-0.3-0.2-0.4-0.3
	c-0.1-0.1-0.2-0.2-0.3-0.4c-0.1-0.2-0.1-0.4-0.1-0.6c0-0.2,0-0.4,0.1-0.5c0.1-0.2,0.2-0.3,0.3-0.5c0.1-0.1,0.3-0.2,0.5-0.3
	c0.2-0.1,0.4-0.1,0.7-0.1c0.3,0,0.6,0,0.8,0.1c0.3,0.1,0.5,0.2,0.6,0.4L59.1,115.9z M61.4,117.6c-0.2,0.1-0.3,0.3-0.4,0.4
	c-0.1,0.2-0.1,0.3-0.1,0.5c0,0.1,0,0.2,0.1,0.3c0,0.1,0.1,0.2,0.2,0.3c0.1,0.1,0.2,0.1,0.3,0.2c0.1,0,0.2,0.1,0.3,0.1
	c0.2,0,0.4,0,0.6-0.1c0.2-0.1,0.3-0.2,0.5-0.3L61.4,117.6z M64.7,120h-0.8c-0.1,0-0.2,0-0.2,0c-0.1,0-0.1-0.1-0.2-0.1l-0.4-0.4
	c-0.2,0.2-0.5,0.3-0.7,0.4s-0.6,0.2-0.9,0.2c-0.2,0-0.4,0-0.6-0.1c-0.2-0.1-0.4-0.2-0.5-0.3s-0.3-0.3-0.4-0.5
	c-0.1-0.2-0.1-0.4-0.1-0.6c0-0.2,0-0.3,0.1-0.4c0.1-0.1,0.1-0.3,0.2-0.4c0.1-0.1,0.2-0.2,0.3-0.3c0.1-0.1,0.3-0.2,0.4-0.3
	c-0.1-0.2-0.2-0.3-0.3-0.5c-0.1-0.2-0.1-0.3-0.1-0.5c0-0.2,0-0.3,0.1-0.5c0.1-0.2,0.2-0.3,0.3-0.4c0.1-0.1,0.3-0.2,0.4-0.3
	c0.2-0.1,0.4-0.1,0.6-0.1c0.2,0,0.4,0,0.5,0.1c0.2,0.1,0.3,0.1,0.4,0.3c0.1,0.1,0.2,0.2,0.3,0.4c0.1,0.1,0.1,0.3,0.1,0.4l-0.5,0.1
	c-0.1,0-0.2,0-0.2-0.1c0-0.1,0-0.1-0.1-0.2c0-0.1-0.1-0.1-0.1-0.1c0,0-0.1-0.1-0.2-0.1c-0.1,0-0.1,0-0.2,0c-0.1,0-0.2,0-0.3,0.1
	c-0.1,0-0.1,0.1-0.2,0.1c-0.1,0.1-0.1,0.1-0.1,0.2c0,0.1,0,0.2,0,0.2c0,0.1,0,0.1,0,0.2c0,0.1,0,0.1,0.1,0.2c0,0.1,0.1,0.1,0.1,0.2
	c0.1,0.1,0.1,0.1,0.2,0.2l1.3,1.4c0.1-0.1,0.1-0.3,0.2-0.5c0-0.2,0.1-0.3,0.1-0.5c0-0.1,0-0.1,0.1-0.1c0,0,0.1,0,0.1,0h0.5
	c0,0.3,0,0.6-0.1,0.9c-0.1,0.3-0.2,0.5-0.4,0.8L64.7,120z M69.6,114.9v5.1h-0.9v-2.2h-2.4v2.2h-0.9v-5.1h0.9v2.2h2.4v-2.2H69.6z"/>
</svg>
