<?xml version="1.0" encoding="utf-8"?>
<!-- Generator: Adobe Illustrator 23.0.0, SVG Export Plug-In . SVG Version: 6.00 Build 0)  -->
<svg version="1.1" id="Layer_1" xmlns="http://www.w3.org/2000/svg" xmlns:xlink="http://www.w3.org/1999/xlink" x="0px" y="0px"
	 viewBox="0 0 16 24" style="enable-background:new 0 0 16 24;" xml:space="preserve">
<style type="text/css">
	.st0{fill:#399DFF;}
	.st1{fill:#FFFFFF;}
</style>
<g>
	<path class="st0" d="M1.5,10.5v-9h11c1.1,0,2,0.9,2,2v5c0,1.1-0.9,2-2,2H1.5z"/>
	<path class="st0" d="M12.5,2.5c0.6,0,1,0.4,1,1v5c0,0.6-0.4,1-1,1h-10v-7H12.5 M12.5,0.5h-10h-2v2v7v2h2h10c1.7,0,3-1.3,3-3v-5
		C15.5,1.8,14.2,0.5,12.5,0.5L12.5,0.5z"/>
</g>
<path class="st1" d="M7.8,4c1.2,0,2.3,0.6,3,1.4L12,4.2V8H8l1.4-1.3C9,5.7,8,4.9,6.8,4.9C5.2,4.9,4,6.1,4,7.5C4,5.6,5.7,4,7.8,4z"/>
</svg>
