<?xml version="1.0" encoding="utf-8"?>
<!-- Generator: Adobe Illustrator 23.0.0, SVG Export Plug-In . SVG Version: 6.00 Build 0)  -->
<svg version="1.1" id="Layer_1" xmlns="http://www.w3.org/2000/svg" xmlns:xlink="http://www.w3.org/1999/xlink" x="0px" y="0px"
	 viewBox="0 0 135 36" style="enable-background:new 0 0 135 36;" xml:space="preserve">
<style type="text/css">
	.st0{display:none;fill:#B4B4B4;}
	.st1{fill:#399DFF;enable-background:new    ;}
	.st2{fill:#FFFFFF;}
</style>
<path class="st0" d="M3.5,2.5h40c0.6,0,1,0.4,1,1v5c0,0.6-0.4,1-1,1h-40c-0.6,0-1-0.4-1-1v-5C2.5,2.9,2.9,2.5,3.5,2.5z"/>
<path class="st1" d="M1.6,0.5h43c0.6,0,1.1,0.7,1.1,1.6v7.8c0,0.9-0.5,1.6-1.1,1.6h-43c-0.6,0-1.1-0.7-1.1-1.6V2.1
	C0.5,1.3,0.9,0.5,1.6,0.5z"/>
<path class="st2" d="M21.2,3.2L19.4,9h-1.2l-1.1-3.6c0-0.1,0-0.1-0.1-0.2c0-0.1,0-0.1,0-0.2c0,0.1,0,0.1-0.1,0.2
	c0,0.1,0,0.1-0.1,0.2L15.7,9h-1.2l-1.8-5.8h1.1c0.1,0,0.2,0,0.3,0.1s0.1,0.1,0.2,0.2l0.8,3c0,0.1,0,0.2,0.1,0.3c0,0.1,0,0.2,0.1,0.4
	c0-0.3,0.1-0.5,0.2-0.7l0.9-3c0-0.1,0.1-0.1,0.2-0.2c0.1-0.1,0.2-0.1,0.3-0.1h0.4c0.1,0,0.2,0,0.3,0.1c0.1,0.1,0.1,0.1,0.2,0.2
	l0.9,3c0.1,0.2,0.1,0.4,0.2,0.6c0-0.1,0-0.2,0.1-0.3c0-0.1,0-0.2,0.1-0.3l0.8-3c0-0.1,0.1-0.1,0.2-0.2s0.2-0.1,0.3-0.1H21.2z
	 M23.1,7.3c-0.2,0-0.5,0-0.6,0.1s-0.3,0.1-0.4,0.1s-0.2,0.1-0.2,0.2s-0.1,0.1-0.1,0.2s0,0.2,0.1,0.3s0.2,0.1,0.3,0.1
	c0.2,0,0.3,0,0.4-0.1S23,8,23.1,7.9V7.3z M20.9,5.4c0.3-0.2,0.5-0.4,0.8-0.5s0.6-0.2,1-0.2c0.3,0,0.5,0,0.7,0.1s0.4,0.2,0.5,0.3
	c0.1,0.1,0.2,0.3,0.3,0.5c0.1,0.2,0.1,0.4,0.1,0.7V9h-0.6c-0.1,0-0.2,0-0.3,0c-0.1,0-0.1-0.1-0.1-0.2l-0.1-0.2
	c-0.1,0-0.2,0.1-0.2,0.2c-0.1,0.1-0.2,0.1-0.3,0.2c-0.1,0-0.3,0-0.4,0s-0.2,0-0.4,0c-0.2,0-0.4,0-0.5-0.1c-0.2-0.1-0.3-0.1-0.4-0.2
	c-0.1-0.1-0.2-0.2-0.2-0.4c-0.1-0.1-0.1-0.3-0.1-0.5c0-0.1,0-0.3,0.1-0.5c0.1,0,0.2-0.1,0.4-0.3c0.2-0.1,0.4-0.2,0.7-0.3
	s0.7-0.1,1.2-0.1V6.4c0-0.2-0.1-0.4-0.2-0.5s-0.2-0.2-0.4-0.2c-0.1,0-0.3,0-0.4,0S22,5.8,21.9,5.9c-0.1,0-0.1,0.1-0.2,0.1
	s-0.2,0-0.2,0c-0.1,0-0.2,0-0.2-0.1c-0.1,0-0.1-0.1-0.1-0.2L20.9,5.4z M26.2,5.5c0.1-0.2,0.3-0.4,0.4-0.5c0.2-0.1,0.4-0.2,0.6-0.2
	s0.3,0,0.5,0.1l-0.1,0.9c0,0.1,0,0.1-0.1,0.1h-0.1c0,0,0,0-0.1,0h-0.1h-0.1H27c-0.2,0-0.3,0-0.4,0.1s-0.2,0.2-0.3,0.4V9H25V4.9h0.7
	c0.1,0,0.1,0,0.2,0c0,0,0.1,0,0.1,0.1c0-0.1,0,0,0.1,0v0.1L26.2,5.5z M27.9,9V4.9h0.8C28.9,4.9,29,5,29,5.1l0.1,0.2
	c0.1-0.1,0.1-0.1,0.2-0.2s0.1-0.1,0.2-0.2c0.1,0,0.2-0.1,0.3-0.1c0.1,0,0.2,0,0.3,0c0.3,0,0.5,0.1,0.6,0.2c0.2,0.1,0.3,0.3,0.4,0.5
	c0.1-0.1,0.2-0.2,0.3-0.3C31.5,5.1,31.6,5,31.7,5c0.1-0.1,0.2-0.1,0.4-0.1c0.1,0,0.3,0,0.4,0c0.2,0,0.4,0,0.6,0.1
	c0.2,0.1,0.3,0.2,0.5,0.3c0.1,0.1,0.2,0.3,0.3,0.5S34,6.2,34,6.5V9h-1.2V6.4c0-0.4-0.2-0.6-0.6-0.6c-0.2,0-0.3,0.1-0.4,0.2
	s-0.2,0.3-0.2,0.5V9h-1.2V6.4c0-0.2,0-0.4-0.1-0.5s-0.2-0.1-0.4-0.1c-0.1,0-0.2,0-0.3,0.1C29.5,6,29.4,6,29.3,6.1v3h-1.4V9z"/>
<path class="st0" d="M48.5,14.5h38c0.6,0,1,0.4,1,1v5c0,0.6-0.4,1-1,1h-38c-0.6,0-1-0.4-1-1v-5C47.5,14.9,47.9,14.5,48.5,14.5z"/>
<path class="st1" d="M47.1,12.5h40.8c0.6,0,1.1,0.7,1.1,1.6v7.8c0,0.9-0.4,1.6-1.1,1.6H47.1c-0.6,0-1.1-0.7-1.1-1.6v-7.8
	C46,13.3,46.5,12.5,47.1,12.5z"/>
<path class="st2" d="M59.9,15.2V21h-0.7c-0.1,0-0.2,0-0.3,0s-0.1-0.1-0.2-0.2L56,17.3c0,0.1,0,0.2,0,0.3c0,0.1,0,0.2,0,0.3V21h-1.2
	v-5.8h0.7c0.1,0,0.1,0,0.1,0h0.1c0,0,0.1,0,0.1,0.1l0.1,0.1l2.8,3.5c0-0.1,0-0.2,0-0.3c0-0.1,0-0.2,0-0.3v-3.1
	C58.7,15.2,59.9,15.2,59.9,15.2z M63.2,18.4c0-0.1,0-0.2,0-0.3c0-0.1-0.1-0.2-0.1-0.2c-0.1-0.1-0.1-0.1-0.2-0.2
	c-0.1,0-0.2-0.1-0.3-0.1c-0.2,0-0.4,0.1-0.6,0.2c-0.1,0.1-0.2,0.3-0.3,0.6H63.2z M61.6,19.1c0,0.3,0.1,0.6,0.3,0.8
	c0.2,0.2,0.4,0.2,0.7,0.2c0.1,0,0.3,0,0.4-0.1s0.2-0.1,0.3-0.1s0.2-0.1,0.2-0.1c0.1,0,0.1-0.1,0.2-0.1c0.1,0,0.2,0,0.2,0.1l0.4,0.4
	c-0.1,0.1-0.3,0.3-0.4,0.4s-0.3,0.2-0.5,0.2C63.3,21,63.1,21,62.9,21c-0.2,0-0.3,0-0.4,0c-0.3,0-0.6,0-0.8-0.1
	c-0.3-0.1-0.5-0.2-0.7-0.4c-0.2-0.2-0.3-0.4-0.5-0.7c-0.1-0.3-0.2-0.6-0.2-1c0-0.3,0-0.5,0.1-0.8c0.1-0.2,0.2-0.5,0.4-0.7
	s0.4-0.3,0.6-0.4c0.3-0.1,0.5-0.2,0.9-0.2c0.3,0,0.5,0,0.8,0.1c0.2,0.1,0.4,0.2,0.6,0.4c0.2,0.2,0.3,0.4,0.4,0.6
	c0.1,0.2,0.1,0.5,0.1,0.8c0,0.1,0,0.2,0,0.2c0,0.1,0,0.1,0,0.1L64.1,19H64h-2.4V19.1z M68.5,16.9V21h-0.8c-0.2,0-0.3-0.1-0.3-0.2
	l-0.1-0.2c-0.1,0.1-0.2,0.1-0.2,0.2c-0.1,0.1-0.2,0.1-0.3,0.2c-0.1,0-0.2,0.1-0.3,0.1c-0.1,0-0.2,0-0.4,0c-0.2,0-0.4,0-0.6-0.1
	s-0.3-0.2-0.4-0.3c-0.1-0.1-0.2-0.3-0.3-0.5c-0.1-0.2-0.1-0.4-0.1-0.6V17H66v2.6c0,0.2,0,0.4,0.1,0.5s0.2,0.2,0.4,0.2
	c0.1,0,0.3,0,0.4-0.1s0.2-0.1,0.3-0.2v-3h1.3C68.5,17,68.5,16.9,68.5,16.9z M70.7,21.1c-0.2,0-0.4,0-0.5-0.1s-0.3-0.1-0.4-0.2
	s-0.2-0.2-0.2-0.4c-0.1-0.1-0.1-0.3-0.1-0.5v-2.1h-0.4c-0.1,0-0.1,0-0.2-0.1c0,0-0.1-0.1-0.1-0.2V17l0.7-0.1l0.2-1
	c0-0.1,0.1-0.2,0.3-0.2h0.6v1.2h1v0.8h-1v2.1c0,0.1,0,0.2,0.1,0.2c0,0.1,0.1,0.1,0.2,0.1H71h0.1c0,0,0,0,0.1,0c0,0,0,0,0.1,0h0.1
	c0,0,0,0,0.1,0.1l0.4,0.6c-0.2,0.1-0.3,0.2-0.5,0.3C71.2,21,70.9,21.1,70.7,21.1z M73.4,17.5c0.1-0.2,0.3-0.4,0.4-0.5
	c0.2-0.1,0.4-0.2,0.6-0.2s0.3,0,0.5,0.1l-0.1,0.9c0,0.1,0,0.1-0.1,0.1h-0.1c0,0,0,0-0.1,0h-0.1h-0.1h-0.1c-0.2,0-0.3,0-0.4,0.1
	s-0.2,0.2-0.3,0.4V21h-1.2v-4.1H73c0.1,0,0.1,0,0.2,0c0,0,0.1,0,0.1,0.1l0.1,0.1v0.1C73.4,17.2,73.4,17.5,73.4,17.5z M77.2,19.3
	c-0.2,0-0.5,0-0.6,0.1c-0.2,0-0.3,0.1-0.4,0.1S76,19.6,76,19.7s-0.1,0.1-0.1,0.2s0,0.2,0.1,0.3c0.1,0.1,0.2,0.1,0.3,0.1
	c0.2,0,0.3,0,0.4-0.1s0.2-0.1,0.4-0.3L77.2,19.3L77.2,19.3z M75,17.4c0.3-0.2,0.5-0.4,0.8-0.5s0.6-0.2,1-0.2c0.3,0,0.5,0,0.7,0.1
	s0.4,0.2,0.5,0.3c0.1,0.1,0.2,0.3,0.3,0.5c0.1,0.2,0.1,0.4,0.1,0.7V21h-0.6c-0.1,0-0.2,0-0.3,0c-0.1,0-0.1-0.1-0.1-0.2l-0.1-0.2
	c-0.1,0.1-0.2,0.2-0.3,0.2s-0.2,0.1-0.3,0.2c-0.1,0-0.2,0.1-0.3,0.1c-0.1,0-0.2,0-0.4,0c-0.2,0-0.4,0-0.5-0.1
	c-0.2-0.1-0.3-0.1-0.4-0.2s-0.2-0.2-0.2-0.4c-0.1-0.1-0.1-0.3-0.1-0.5c0-0.1,0-0.3,0.1-0.5s0.2-0.3,0.4-0.4c0.2-0.1,0.4-0.2,0.7-0.3
	c0.3-0.1,0.7-0.1,1.2-0.1v-0.2c0-0.2-0.1-0.4-0.2-0.5s-0.2-0.2-0.4-0.2c-0.1,0-0.3,0-0.4,0s-0.2,0.1-0.3,0.1c-0.1,0-0.1,0.1-0.2,0.1
	s-0.2,0-0.2,0c-0.1,0-0.2,0-0.2-0.1c-0.1,0-0.1-0.1-0.1-0.2L75,17.4z M80.4,15v6h-1.2v-6H80.4z"/>
<path class="st0" d="M91.5,26.5h40c0.6,0,1,0.4,1,1v5c0,0.6-0.4,1-1,1h-40c-0.6,0-1-0.4-1-1v-5C90.5,26.9,90.9,26.5,91.5,26.5z"/>
<path class="st1" d="M90.5,24.5h43c0.6,0,1.1,0.7,1.1,1.5v7.9c0,0.8-0.5,1.5-1.1,1.5h-43c-0.6,0-1.1-0.7-1.1-1.5V26
	C89.4,25.2,89.9,24.5,90.5,24.5z"/>
<path class="st2" d="M103.5,32c0.2,0,0.3,0,0.4-0.1c0.1,0,0.2-0.1,0.3-0.2c0.1-0.1,0.1-0.2,0.1-0.2s0-0.2,0-0.3c0-0.1,0-0.2,0-0.3
	c0-0.1-0.1-0.2-0.1-0.2c-0.1-0.1-0.2-0.1-0.3-0.1s-0.3,0-0.4,0h-0.9V32H103.5z M102.5,28.2v1.4h0.7c0.1,0,0.3,0,0.4,0
	s0.2-0.1,0.3-0.1c0.1-0.1,0.1-0.1,0.2-0.2c0-0.1,0.1-0.2,0.1-0.4c0-0.1,0-0.3-0.1-0.3c0-0.1-0.1-0.2-0.2-0.2
	c-0.1-0.1-0.2-0.1-0.3-0.1c-0.1,0-0.2,0-0.4,0L102.5,28.2L102.5,28.2z M103.3,27.2c0.4,0,0.7,0,1,0.1s0.5,0.2,0.7,0.3
	s0.3,0.3,0.4,0.5s0.1,0.4,0.1,0.7c0,0.1,0,0.3-0.1,0.4c0,0.1-0.1,0.2-0.2,0.3c-0.1,0.1-0.2,0.2-0.3,0.3c-0.1,0.1-0.3,0.2-0.5,0.2
	c0.4,0.1,0.7,0.2,0.9,0.5c0.2,0.2,0.3,0.5,0.3,0.8c0,0.2,0,0.5-0.1,0.7s-0.2,0.4-0.4,0.6c-0.2,0.2-0.4,0.3-0.7,0.4
	c-0.3,0.1-0.6,0.1-0.9,0.1h-2.3v-5.8L103.3,27.2L103.3,27.2z M107.4,29.5c0.1-0.2,0.3-0.4,0.4-0.5c0.2-0.1,0.4-0.2,0.6-0.2
	s0.3,0,0.5,0.1l-0.1,0.9c0,0.1,0,0.1-0.1,0.1h-0.1c0,0,0,0-0.1,0h-0.1h-0.1h-0.1c-0.2,0-0.3,0-0.4,0.1s-0.2,0.2-0.3,0.4V33h-1.2
	v-4.1h0.7c0.1,0,0.1,0,0.2,0c0,0,0.1,0,0.1,0.1l0.1,0.1v0.1V29.5z M110.4,28.9V33h-1.2v-4.1H110.4z M110.6,27.7c0,0.1,0,0.2-0.1,0.3
	c0,0.1-0.1,0.2-0.2,0.2c-0.1,0.1-0.2,0.1-0.2,0.2c-0.1,0-0.2,0.1-0.3,0.1c-0.1,0-0.2,0-0.3-0.1c-0.1,0-0.2-0.1-0.2-0.2
	c-0.1-0.1-0.1-0.1-0.2-0.2c0-0.1-0.1-0.2-0.1-0.3c0-0.1,0-0.2,0.1-0.3c0-0.1,0.1-0.2,0.2-0.2c0.1-0.1,0.1-0.1,0.2-0.2
	c0.1,0,0.2-0.1,0.3-0.1c0.1,0,0.2,0,0.3,0.1c0.1,0,0.2,0.1,0.2,0.2c0.1,0.1,0.1,0.1,0.2,0.2C110.5,27.5,110.6,27.6,110.6,27.7z
	 M112.7,30.7c0.2,0,0.4-0.1,0.4-0.2c0.1-0.1,0.1-0.2,0.1-0.4c0-0.2,0-0.3-0.1-0.4s-0.2-0.1-0.4-0.1c-0.2,0-0.4,0-0.4,0.1
	c-0.1,0.1-0.1,0.2-0.1,0.4c0,0.1,0,0.2,0,0.2c0,0.1,0.1,0.1,0.1,0.2c0,0,0.1,0.1,0.2,0.1C112.6,30.7,112.6,30.7,112.7,30.7z
	 M113.7,33.2c0-0.1,0-0.2-0.1-0.2s-0.2-0.1-0.3-0.1c-0.1,0-0.3,0-0.5,0s-0.3,0-0.5,0c-0.1,0.1-0.1,0.1-0.2,0.2
	c0,0.1-0.1,0.1-0.1,0.2c0,0.1,0,0.1,0,0.2l0.1,0.1c0.1,0,0.1,0.1,0.3,0.1c0.1,0,0.2,0,0.4,0c0.2,0,0.3,0,0.4,0s0.2-0.1,0.3-0.1
	c0.1,0,0.1-0.1,0.1-0.1C113.7,33.3,113.7,33.2,113.7,33.2z M114.9,29v0.5c0,0.1,0,0.1-0.1,0.2c0,0-0.1,0.1-0.2,0.1l-0.3,0.1
	c0,0.1,0,0.1,0,0.2s0,0.1,0,0.2c0,0.2,0,0.4-0.1,0.6s-0.2,0.3-0.4,0.4c-0.2,0.1-0.3,0.2-0.5,0.3c-0.2,0.1-0.4,0.1-0.7,0.1
	c-0.1,0-0.1,0-0.2,0s-0.1,0-0.2,0c-0.1,0.1-0.1,0.1-0.1,0.2s0,0.1,0.1,0.2c0.1,0,0.2,0.1,0.3,0.1c0.1,0,0.3,0,0.4,0
	c0.2,0,0.3,0,0.5,0s0.3,0,0.5,0.1c0.2,0,0.3,0.1,0.4,0.2c0.1,0.1,0.2,0.2,0.3,0.3c0.1,0.1,0.1,0.3,0.1,0.5s0,0.4-0.1,0.5
	c-0.1,0.2-0.2,0.3-0.4,0.5c-0.2,0.1-0.4,0.2-0.6,0.3c-0.3,0.1-0.5,0.1-0.9,0.1c-0.3,0-0.6,0-0.8-0.1c-0.2-0.1-0.4-0.1-0.6-0.2
	c-0.2-0.1-0.3-0.2-0.3-0.3c-0.1-0.1-0.1-0.3-0.1-0.4c0-0.2,0.1-0.3,0.2-0.5c0.1-0.1,0.3-0.2,0.4-0.3c-0.1-0.1-0.2-0.1-0.2-0.2
	c-0.1-0.1-0.1-0.2-0.1-0.4c0-0.1,0-0.1,0-0.2c0-0.1,0.1-0.1,0.1-0.2s0.1-0.1,0.2-0.2s0.2-0.1,0.2-0.2c-0.2-0.1-0.4-0.3-0.5-0.5
	s-0.2-0.4-0.2-0.7c0-0.2,0-0.4,0.1-0.6s0.2-0.3,0.4-0.4c0.2-0.1,0.3-0.2,0.5-0.3c0.2-0.1,0.4-0.1,0.7-0.1c0.4,0,0.7,0.1,0.9,0.2
	L114.9,29L114.9,29z M116.6,29.2c0.1-0.1,0.3-0.2,0.5-0.3c0.2-0.1,0.4-0.1,0.6-0.1s0.4,0,0.6,0.1s0.3,0.2,0.4,0.3
	c0.1,0.1,0.2,0.3,0.3,0.5c0.1,0.2,0.1,0.4,0.1,0.6V33h-1.2v-2.6c0-0.2,0-0.4-0.1-0.5s-0.2-0.2-0.4-0.2c-0.1,0-0.3,0-0.4,0.1
	s-0.2,0.1-0.3,0.2v3h-1.2v-6h1.2L116.6,29.2L116.6,29.2z M121.2,33.1c-0.2,0-0.4,0-0.5-0.1c-0.2-0.1-0.3-0.1-0.4-0.2
	c-0.1-0.1-0.2-0.2-0.2-0.4c-0.1-0.1-0.1-0.3-0.1-0.5v-2.1h-0.4c-0.1,0-0.1,0-0.2-0.1c0,0-0.1-0.1-0.1-0.2V29l0.7-0.1l0.2-1
	c0-0.1,0.1-0.2,0.3-0.2h0.6v1.2h1v0.8h-1v2.1c0,0.1,0,0.2,0.1,0.2c0,0.1,0.1,0.1,0.2,0.1h0.1h0.1c0,0,0,0,0.1,0c0,0,0,0,0.1,0h0.1
	c0,0,0,0,0.1,0.1l0.4,0.6c-0.2,0.1-0.3,0.2-0.5,0.3C121.6,33,121.4,33.1,121.2,33.1z"/>
</svg>
