<?xml version="1.0" encoding="utf-8"?>
<!-- Generator: Adobe Illustrator 23.0.0, SVG Export Plug-In . SVG Version: 6.00 Build 0)  -->
<svg version="1.1" id="Layer_1" xmlns="http://www.w3.org/2000/svg" xmlns:xlink="http://www.w3.org/1999/xlink" x="0px" y="0px"
	 viewBox="0 0 106 18" style="enable-background:new 0 0 106 18;" xml:space="preserve">
<style type="text/css">
	.st0{display:none;opacity:0.2;enable-background:new    ;}
	.st1{fill:#FFFFFF;enable-background:new    ;}
	.st2{fill:none;stroke:#FFFFFF;stroke-miterlimit:10;enable-background:new    ;}
</style>
<path class="st0" d="M3,1.5h98v-1H3V1.5z M102.5,3v11h1V3H102.5z M101,15.5H3v1h98V15.5z M1.5,14V3h-1v11H1.5z M3,15.5
	c-0.8,0-1.5-0.7-1.5-1.5h-1c0,1.4,1.1,2.5,2.5,2.5V15.5z M102.5,14c0,0.8-0.7,1.5-1.5,1.5v1c1.4,0,2.5-1.1,2.5-2.5H102.5z M101,1.5
	c0.8,0,1.5,0.7,1.5,1.5h1c0-1.4-1.1-2.5-2.5-2.5V1.5z M3,0.5C1.6,0.5,0.5,1.6,0.5,3h1c0-0.8,0.7-1.5,1.5-1.5V0.5z"/>
<path class="st1" d="M96,11.1l-2.5-3h5L96,11.1z"/>
<path class="st2" d="M98,15.9H6.2c-2.5,0-4.5-2-4.5-4.5V6.6c0-2.5,2-4.5,4.5-4.5H98c2.5,0,4.5,2,4.5,4.5v4.8
	C102.5,13.9,100.5,15.9,98,15.9z"/>
</svg>
