<?xml version="1.0" encoding="utf-8"?>
<!-- Generator: Adobe Illustrator 23.0.0, SVG Export Plug-In . SVG Version: 6.00 Build 0)  -->
<svg version="1.1" id="Layer_1" xmlns="http://www.w3.org/2000/svg" xmlns:xlink="http://www.w3.org/1999/xlink" x="0px" y="0px"
	 viewBox="0 0 74 39" style="enable-background:new 0 0 74 39;" xml:space="preserve">
<style type="text/css">
	.st0{display:none;fill:#FF9300;}
	.st1{display:none;fill:none;stroke:#FFFFFF;}
	.st2{display:none;}
</style>
<path class="st0" d="M2,1h21c0.6,0,1,0.4,1,1v9c0,0.6-0.4,1-1,1H2c-0.6,0-1-0.4-1-1V2C1,1.4,1.4,1,2,1z"/>
<path class="st1" d="M2,1h21c0.6,0,1,0.4,1,1v9c0,0.6-0.4,1-1,1H2c-0.6,0-1-0.4-1-1V2C1,1.4,1.4,1,2,1z"/>
<path class="st2" d="M14.4,8.6v0.9h-3.3V8.6h1.1V5.7c0-0.1,0-0.1,0-0.2c0-0.1,0-0.2,0-0.2l-0.7,0.6c-0.1,0-0.1,0.1-0.2,0.1
	c-0.1,0-0.1,0-0.2,0c-0.1,0-0.1,0-0.1-0.1c0,0-0.1-0.1-0.1-0.1l-0.4-0.5l1.8-1.5h1v4.9H14.4z"/>
<path class="st0" d="M26.8,14h21c0.6,0,1,0.4,1,1v9c0,0.6-0.4,1-1,1h-21c-0.6,0-1-0.4-1-1v-9C25.8,14.4,26.2,14,26.8,14z"/>
<path class="st1" d="M26.8,14h21c0.6,0,1,0.4,1,1v9c0,0.6-0.4,1-1,1h-21c-0.6,0-1-0.4-1-1v-9C25.8,14.4,26.2,14,26.8,14z"/>
<path class="st2" d="M38.8,21.4c0.1,0,0.2,0,0.3,0.1c0.1,0.1,0.1,0.2,0.1,0.3v0.7h-4.1v-0.4c0-0.1,0-0.2,0-0.2
	c0-0.1,0.1-0.2,0.2-0.2l1.7-1.7c0.1-0.1,0.3-0.3,0.4-0.4c0.1-0.1,0.2-0.3,0.3-0.4c0.1-0.1,0.1-0.3,0.2-0.4c0-0.1,0.1-0.3,0.1-0.4
	c0-0.2-0.1-0.4-0.2-0.5c-0.1-0.1-0.3-0.2-0.5-0.2c-0.2,0-0.3,0-0.5,0.1c-0.1,0.1-0.2,0.2-0.3,0.4c-0.1,0.1-0.1,0.2-0.2,0.3
	c-0.1,0-0.2,0.1-0.4,0l-0.7-0.1c0-0.3,0.1-0.5,0.2-0.8c0.1-0.2,0.3-0.4,0.5-0.5c0.2-0.1,0.4-0.3,0.6-0.3c0.2-0.1,0.5-0.1,0.7-0.1
	c0.3,0,0.5,0,0.8,0.1c0.2,0.1,0.4,0.2,0.6,0.3c0.2,0.1,0.3,0.3,0.4,0.5c0.1,0.2,0.1,0.4,0.1,0.7c0,0.2,0,0.4-0.1,0.6
	c-0.1,0.2-0.1,0.4-0.2,0.5c-0.1,0.2-0.2,0.3-0.4,0.5c-0.1,0.2-0.3,0.3-0.4,0.5l-1.1,1.2c0.1,0,0.3-0.1,0.4-0.1s0.3,0,0.4,0H38.8z"/>
<path class="st0" d="M51.5,27h21c0.6,0,1,0.4,1,1v9c0,0.6-0.4,1-1,1h-21c-0.6,0-1-0.4-1-1v-9C50.5,27.4,50.9,27,51.5,27z"/>
<path class="st1" d="M51.5,27h21c0.6,0,1,0.4,1,1v9c0,0.6-0.4,1-1,1h-21c-0.6,0-1-0.4-1-1v-9C50.5,27.4,50.9,27,51.5,27z"/>
<path class="st2" d="M60,31.3c0-0.3,0.1-0.5,0.2-0.8c0.1-0.2,0.3-0.4,0.5-0.5c0.2-0.1,0.4-0.3,0.6-0.3c0.2-0.1,0.5-0.1,0.7-0.1
	c0.3,0,0.5,0,0.8,0.1c0.2,0.1,0.4,0.2,0.6,0.3c0.2,0.1,0.3,0.3,0.4,0.5c0.1,0.2,0.1,0.4,0.1,0.6c0,0.2,0,0.3-0.1,0.5
	c0,0.1-0.1,0.3-0.2,0.4c-0.1,0.1-0.2,0.2-0.3,0.3c-0.1,0.1-0.2,0.1-0.4,0.2c0.6,0.2,1,0.7,1,1.3c0,0.3-0.1,0.6-0.2,0.8
	c-0.1,0.2-0.3,0.4-0.5,0.6c-0.2,0.2-0.4,0.3-0.7,0.3c-0.2,0.1-0.5,0.1-0.8,0.1c-0.3,0-0.5,0-0.7-0.1c-0.2-0.1-0.4-0.2-0.6-0.3
	c-0.2-0.1-0.3-0.3-0.4-0.5c-0.1-0.2-0.2-0.4-0.3-0.7l0.6-0.2c0.1-0.1,0.3-0.1,0.4,0s0.2,0.1,0.3,0.2c0.1,0.2,0.2,0.4,0.4,0.5
	c0.1,0.1,0.3,0.1,0.5,0.1c0.1,0,0.3,0,0.4-0.1c0.1,0,0.2-0.1,0.3-0.2c0.1-0.1,0.1-0.2,0.2-0.3c0-0.1,0.1-0.2,0.1-0.3
	c0-0.1,0-0.2,0-0.3c0-0.1-0.1-0.2-0.1-0.3c-0.1-0.1-0.2-0.1-0.4-0.2c-0.2,0-0.4-0.1-0.7-0.1v-0.9c0.2,0,0.4,0,0.6-0.1
	s0.3-0.1,0.3-0.2c0.1-0.1,0.1-0.1,0.2-0.2c0-0.1,0-0.2,0-0.3c0-0.2-0.1-0.4-0.2-0.5c-0.1-0.1-0.3-0.2-0.5-0.2c-0.2,0-0.3,0-0.5,0.1
	c-0.1,0.1-0.2,0.2-0.3,0.4c-0.1,0.1-0.1,0.2-0.2,0.3c-0.1,0-0.2,0.1-0.4,0L60,31.3z"/>
</svg>
