<?xml version="1.0" encoding="utf-8"?>
<!-- Generator: Adobe Illustrator 23.0.0, SVG Export Plug-In . SVG Version: 6.00 Build 0)  -->
<svg version="1.1" id="Layer_1" xmlns="http://www.w3.org/2000/svg" xmlns:xlink="http://www.w3.org/1999/xlink" x="0px" y="0px"
	 viewBox="0 0 49 28" style="enable-background:new 0 0 49 28;" xml:space="preserve">
<style type="text/css">
	.st0{fill:#FF9000;}
	.st1{fill:none;stroke:#FF9000;}
	.st2{fill:#399DFF;}
	.st3{fill:none;stroke:#FFFFFF;}
	.st4{fill:#FFFFFF;}
</style>
<path class="st0" d="M3.5,2.5h42c0.6,0,1,0.4,1,1v7c0,0.6-0.4,1-1,1h-42c-0.6,0-1-0.4-1-1v-7C2.5,2.9,2.9,2.5,3.5,2.5z"/>
<path class="st1" d="M3.5,2.5h42c0.6,0,1,0.4,1,1v7c0,0.6-0.4,1-1,1h-42c-0.6,0-1-0.4-1-1v-7C2.5,2.9,2.9,2.5,3.5,2.5z"/>
<path d="M16.7,4.2L14.4,10h-1.2l-2.3-5.8H12c0.1,0,0.2,0,0.3,0.1s0.1,0.1,0.2,0.2l1.1,3.1c0.1,0.1,0.1,0.3,0.2,0.4
	c0.1,0.2,0.1,0.3,0.1,0.5C13.9,8.3,14,8.2,14,8s0.1-0.3,0.2-0.4l1.1-3.1c0-0.1,0.1-0.1,0.2-0.2c0.1-0.1,0.2-0.1,0.3-0.1
	C15.8,4.2,16.7,4.2,16.7,4.2z M18.8,7.4c0-0.1,0-0.2,0-0.3c0-0.1-0.1-0.2-0.1-0.2c-0.1-0.1-0.1-0.1-0.2-0.2c-0.1,0-0.2-0.1-0.3-0.1
	c-0.2,0-0.4,0.1-0.6,0.2c-0.1,0.1-0.2,0.3-0.3,0.6H18.8z M17.3,8.1c0,0.3,0.1,0.6,0.3,0.8c0.2,0.2,0.4,0.2,0.7,0.2
	c0.1,0,0.3,0,0.4-0.1c0,0,0.1,0,0.2,0s0.2-0.1,0.2-0.1c0.1,0,0.1-0.1,0.2-0.1s0.2,0,0.2,0.1l0.4,0.4c-0.1,0.1-0.3,0.3-0.4,0.4
	c-0.1,0.1-0.3,0.2-0.5,0.2C18.9,10,18.7,10,18.6,10c-0.2,0-0.3,0-0.4,0c-0.3,0-0.6,0-0.8-0.1c-0.3-0.1-0.5-0.2-0.7-0.4
	s-0.3-0.4-0.5-0.7c-0.1-0.3-0.2-0.6-0.2-1c0-0.3,0-0.5,0.1-0.8c0.1-0.2,0.2-0.5,0.4-0.7C16.8,6.2,17,6.1,17.2,6
	c0.3-0.1,0.5-0.2,0.9-0.2c0.3,0,0.5,0,0.8,0.1c0.2,0.1,0.4,0.2,0.6,0.4c0.2,0.2,0.3,0.4,0.4,0.6S20,7.4,20,7.7c0,0.1,0,0.2,0,0.2
	C20,8,20,8,20,8l-0.1,0.1h-0.1H17.3z M21.6,6.5C21.7,6.3,21.9,6.1,22,6c0.2-0.1,0.4-0.2,0.6-0.2s0.3,0,0.5,0.1L23,6.8
	c0,0.1,0,0.1-0.1,0.1h-0.1c0,0,0,0-0.1,0h-0.1h-0.1h-0.1c-0.2,0-0.3,0-0.4,0.1s-0.2,0.2-0.3,0.4V10h-1.2V5.9h0.7c0.1,0,0.1,0,0.2,0
	c0,0,0.1,0,0.1,0.1l0.1,0.1v0.1V6.5z M27.9,10h-1.2V6.7H25v2.1C25,8.9,25,9,25.1,9c0,0.1,0.1,0.1,0.2,0.1h0.1h0.1c0,0,0,0,0.1,0
	c0,0,0,0,0.1,0h0.1c0,0,0,0,0.1,0.1L26,9.7c-0.2,0.1-0.3,0.2-0.5,0.3s-0.4,0.1-0.6,0.1s-0.4,0-0.5-0.1S24.1,9.9,24,9.8
	c-0.1-0.1-0.2-0.2-0.2-0.4c-0.1-0.1-0.1-0.3-0.1-0.5V6.7h-0.4c-0.1,0-0.1,0-0.2-0.1c0,0-0.1-0.1-0.1-0.2V6l0.7-0.1l0.2-1
	c0-0.1,0.1-0.2,0.3-0.2h0.6v1.2h3V10H27.9z M28,4.7c0,0.1,0,0.2,0,0.3s-0.1,0.2-0.2,0.2c-0.1,0.1-0.2,0.1-0.2,0.2
	c-0.1,0-0.2,0.1-0.3,0.1c-0.1,0-0.2,0-0.3-0.1c-0.1,0-0.2-0.1-0.2-0.2c-0.1-0.1-0.1-0.1-0.2-0.2c0-0.1-0.1-0.2-0.1-0.3
	s0-0.2,0.1-0.3c0-0.1,0.1-0.2,0.2-0.2c0-0.1,0.1-0.1,0.2-0.2c0.1,0,0.2,0,0.3,0c0.1,0,0.2,0,0.3,0.1c0.1,0,0.2,0.1,0.2,0.2
	c0.1,0.1,0.1,0.1,0.2,0.2C28,4.5,28,4.6,28,4.7z M31.7,6.8l-0.1,0.1h-0.1c-0.1,0-0.1,0-0.2,0c0,0-0.1-0.1-0.2-0.1S31,6.7,30.9,6.7
	s-0.2,0-0.3,0c-0.2,0-0.3,0-0.4,0.1C30,6.8,30,6.9,29.9,7s-0.1,0.2-0.2,0.4c0,0.1-0.1,0.3-0.1,0.5c0,0.4,0.1,0.7,0.2,0.9
	C30,9,30.2,9.1,30.4,9.1c0.1,0,0.3,0,0.3-0.1C31,9.1,31,9,31.1,9s0.1-0.1,0.2-0.1s0.1-0.1,0.2-0.1s0.2,0,0.2,0.1L32,9.4
	c-0.1,0.1-0.3,0.3-0.4,0.4c-0.1,0.1-0.3,0.2-0.4,0.2c-0.2,0-0.3,0-0.5,0c-0.1,0-0.3,0-0.4,0c-0.3,0-0.5,0-0.7-0.1S29.2,9.7,29,9.5
	s-0.3-0.4-0.4-0.7s-0.2-0.6-0.2-0.9c0-0.3,0-0.6,0.1-0.8c0.1-0.3,0.2-0.5,0.4-0.7c0.2-0.2,0.4-0.3,0.6-0.5c0.3-0.1,0.6-0.2,0.9-0.2
	s0.6,0.1,0.9,0.2C31.6,6,31.8,6.2,32,6.4L31.7,6.8z M34.5,8.3c-0.2,0-0.5,0-0.6,0.1c-0.2,0-0.3,0.1-0.4,0.1c-0.1,0-0.2,0.1-0.2,0.2
	c0,0.1-0.1,0.1-0.1,0.2c0,0.1,0,0.2,0.1,0.3s0.2,0.1,0.3,0.1c0.2,0,0.3,0,0.4-0.1s0.2-0.1,0.4-0.3L34.5,8.3L34.5,8.3z M32.3,6.4
	c0.3-0.2,0.5-0.4,0.8-0.5s0.6-0.2,1-0.2c0.3,0,0.5,0,0.7,0.1C35,6,35.2,6.1,35.3,6.2s0.2,0.3,0.3,0.5s0.1,0.4,0.1,0.7V10h-0.6
	c-0.1,0-0.2,0-0.3,0s-0.1-0.1-0.1-0.2l-0.1-0.2c-0.1,0.1-0.2,0.2-0.3,0.2C34.2,9.9,34.1,9.9,34,10c0,0-0.2,0-0.3,0s-0.2,0-0.4,0
	s-0.4,0-0.5-0.1c-0.2-0.1-0.3-0.1-0.4-0.2c-0.1-0.1-0.2-0.2-0.2-0.4c-0.1-0.1-0.1-0.3-0.1-0.5c0-0.1,0-0.3,0.1-0.5s0.2-0.3,0.4-0.4
	s0.4-0.2,0.7-0.3s0.7-0.1,1.2-0.1V7.4c0-0.2-0.1-0.4-0.2-0.5c-0.1-0.1-0.2-0.2-0.4-0.2c-0.1,0-0.3,0-0.4,0c-0.1,0-0.2,0.1-0.3,0.1
	S33.1,6.9,33,6.9c-0.1,0-0.2,0-0.2,0c-0.1,0-0.2,0-0.2-0.1c-0.1,0-0.1-0.1-0.1-0.2L32.3,6.4z M37.6,4v6h-1.2V4H37.6z"/>
<path class="st2" d="M2.5,15.5h44c0.6,0,1,0.4,1,1v9c0,0.6-0.4,1-1,1h-44c-0.6,0-1-0.4-1-1v-9C1.5,15.9,1.9,15.5,2.5,15.5z"/>
<path class="st3" d="M2.5,15.5h44c0.6,0,1,0.4,1,1v9c0,0.6-0.4,1-1,1h-44c-0.6,0-1-0.4-1-1v-9C1.5,15.9,1.9,15.5,2.5,15.5z"/>
<path class="st4" d="M16.7,18.2L14.4,24h-1.2l-2.3-5.8H12c0.1,0,0.2,0,0.3,0.1s0.1,0.1,0.2,0.2l1.1,3.1c0.1,0.1,0.1,0.3,0.2,0.4
	c0.1,0.2,0.1,0.3,0.1,0.5c0-0.2,0.1-0.3,0.1-0.5s0.1-0.3,0.2-0.4l1.1-3.1c0-0.1,0.1-0.1,0.2-0.2c0.1-0.1,0.2-0.1,0.3-0.1H16.7z
	 M18.8,21.4c0-0.1,0-0.2,0-0.3c0-0.1-0.1-0.2-0.1-0.2c-0.1-0.1-0.1-0.1-0.2-0.2c-0.1,0-0.2-0.1-0.3-0.1c-0.2,0-0.4,0.1-0.6,0.2
	c-0.1,0.1-0.2,0.3-0.3,0.6H18.8z M17.3,22.1c0,0.3,0.1,0.6,0.3,0.8c0.2,0.2,0.4,0.2,0.7,0.2c0.1,0,0.3,0,0.4-0.1s0.2-0.1,0.3-0.1
	c0.1,0,0.2-0.1,0.2-0.1c0.1,0,0.1-0.1,0.2-0.1s0.2,0,0.2,0.1l0.4,0.4c-0.1,0.1-0.3,0.3-0.4,0.4s-0.3,0.2-0.5,0.2
	C18.9,24,18.7,24,18.6,24c-0.2,0-0.3,0-0.4,0c-0.3,0-0.6,0-0.8-0.1c-0.3-0.1-0.5-0.2-0.7-0.4c-0.2-0.2-0.3-0.4-0.5-0.7
	c-0.1-0.3-0.2-0.6-0.2-1c0-0.3,0-0.5,0.1-0.8c0.1-0.2,0.2-0.5,0.4-0.7c0.2-0.2,0.4-0.3,0.6-0.4c0.3-0.1,0.5-0.2,0.9-0.2
	c0.3,0,0.5,0,0.8,0.1c0.2,0.1,0.4,0.2,0.6,0.4c0.2,0.2,0.3,0.4,0.4,0.6s0.1,0.5,0.1,0.8c0,0.1,0,0.2,0,0.2c0,0.1,0,0.1,0,0.1
	L19.8,22h-0.1h-2.4V22.1z M21.6,20.5c0.1-0.2,0.3-0.4,0.4-0.5c0.2-0.1,0.4-0.2,0.6-0.2s0.3,0,0.5,0.1L23,20.8c0,0.1,0,0.1-0.1,0.1
	h-0.1c0,0,0,0-0.1,0h-0.1h-0.1h-0.1c-0.2,0-0.3,0-0.4,0.1s-0.2,0.2-0.3,0.4V24h-1.2v-4.1h0.7c0.1,0,0.1,0,0.2,0c0,0,0.1,0,0.1,0.1
	l0.1,0.1v0.1V20.5z M27.9,24h-1.2v-3.3H25v2.1c0,0.1,0,0.2,0.1,0.2c0,0.1,0.1,0.1,0.2,0.1h0.1h0.1c0,0,0,0,0.1,0c0,0,0,0,0.1,0h0.1
	c0,0,0,0,0.1,0.1l0.4,0.6c-0.2,0.1-0.3,0.2-0.5,0.3c-0.2,0.1-0.4,0.1-0.6,0.1s-0.4,0-0.5-0.1s-0.3-0.1-0.4-0.2s-0.2-0.2-0.2-0.4
	C24,23.4,24,23.2,24,23v-2.1h-0.4c-0.1,0-0.1,0-0.2-0.1c0,0-0.1-0.1-0.1-0.2V20l0.7-0.1l0.2-1c0-0.1,0.1-0.2,0.3-0.2h0.6v1.2h3V24
	H27.9z M28,18.7c0,0.1,0,0.2-0.1,0.3c0,0.1-0.1,0.2-0.2,0.2c-0.1,0.1-0.2,0.1-0.2,0.2c-0.1,0-0.2,0.1-0.3,0.1c-0.1,0-0.2,0-0.3-0.1
	c-0.1,0-0.2-0.1-0.2-0.2c-0.1-0.1-0.1-0.1-0.2-0.2c0-0.1-0.1-0.2-0.1-0.3s0-0.2,0.1-0.3c0-0.1,0.1-0.2,0.2-0.2
	c0.1-0.1,0.1-0.1,0.2-0.2c0.1,0,0.2-0.1,0.3-0.1c0.1,0,0.2,0,0.3,0.1c0.1,0,0.2,0.1,0.2,0.2c0.1,0.1,0.1,0.1,0.2,0.2
	C28,18.5,28,18.6,28,18.7z M31.7,20.8l-0.1,0.1h-0.1c-0.1,0-0.1,0-0.2,0c0,0-0.1-0.1-0.2-0.1s-0.1-0.1-0.2-0.1s-0.2,0-0.3,0
	c-0.2,0-0.3,0-0.4,0.1c-0.2,0-0.2,0.1-0.3,0.2s-0.1,0.2-0.2,0.4c0,0.1-0.1,0.3-0.1,0.5c0,0.4,0.1,0.7,0.2,0.9
	c0.2,0.2,0.4,0.3,0.6,0.3c0.1,0,0.3,0,0.3-0.1c0.1,0,0.2-0.1,0.2-0.1c0.1,0,0.1-0.1,0.2-0.1s0.1-0.1,0.2-0.1s0.2,0,0.2,0.1l0.4,0.4
	c-0.1,0.1-0.3,0.3-0.4,0.4s-0.3,0.2-0.4,0.2C31,24,30.9,24,30.7,24c-0.1,0-0.3,0-0.4,0c-0.3,0-0.5,0-0.7-0.1s-0.4-0.2-0.6-0.4
	c-0.2-0.2-0.3-0.4-0.4-0.7c-0.1-0.3-0.2-0.6-0.2-0.9s0-0.6,0.1-0.8c0.1-0.3,0.2-0.5,0.4-0.7c0.2-0.2,0.4-0.3,0.6-0.5
	c0.3-0.1,0.6-0.2,0.9-0.2s0.6,0.1,0.9,0.2c0.2,0.1,0.5,0.3,0.7,0.5L31.7,20.8z M34.5,22.3c-0.2,0-0.5,0-0.6,0.1
	c-0.2,0-0.3,0.1-0.4,0.1c-0.1,0-0.2,0.1-0.2,0.2s-0.1,0.1-0.1,0.2s0,0.2,0.1,0.3c0.1,0.1,0.2,0.1,0.3,0.1c0.2,0,0.3,0,0.4-0.1
	s0.2-0.1,0.4-0.3L34.5,22.3L34.5,22.3z M32.3,20.4c0.3-0.2,0.5-0.4,0.8-0.5s0.6-0.2,1-0.2c0.3,0,0.5,0,0.7,0.1s0.4,0.2,0.5,0.3
	c0.1,0.1,0.2,0.3,0.3,0.5s0.1,0.4,0.1,0.7V24h-0.6c-0.1,0-0.2,0-0.3,0s-0.1-0.1-0.1-0.2l-0.1-0.2c-0.1,0.1-0.2,0.2-0.3,0.2
	S34.1,23.9,34,24c0,0-0.2,0-0.3,0s-0.2,0-0.4,0s-0.4,0-0.5-0.1c-0.2-0.1-0.3-0.1-0.4-0.2c-0.1-0.1-0.2-0.2-0.2-0.4
	c-0.1-0.1-0.1-0.3-0.1-0.5c0-0.1,0-0.3,0.1-0.5s0.2-0.3,0.4-0.4s0.4-0.2,0.7-0.3c0.3-0.1,0.7-0.1,1.2-0.1v-0.2
	c0-0.2-0.1-0.4-0.2-0.5c-0.1-0.1-0.2-0.2-0.4-0.2c-0.1,0-0.3,0-0.4,0c-0.1,0-0.2,0.1-0.3,0.1s-0.1,0.1-0.2,0.1c-0.1,0-0.2,0-0.2,0
	c-0.1,0-0.2,0-0.2-0.1c-0.1,0-0.1-0.1-0.1-0.2L32.3,20.4z M37.6,18v6h-1.2v-6H37.6z"/>
</svg>
