<?xml version="1.0" encoding="utf-8"?>
<!-- Generator: Adobe Illustrator 23.0.0, SVG Export Plug-In . SVG Version: 6.00 Build 0)  -->
<svg version="1.1" id="Layer_1" xmlns="http://www.w3.org/2000/svg" xmlns:xlink="http://www.w3.org/1999/xlink" x="0px" y="0px"
	 viewBox="0 0 51 760" style="enable-background:new 0 0 51 760;" xml:space="preserve">
<style type="text/css">
	.st0{display:none;fill:#399DFF;}
	.st1{display:none;fill:none;stroke:#FFFFFF;}
	.st2{display:none;fill:none;stroke:#FFFFFF;stroke-linecap:round;}
	.st3{display:none;fill:none;stroke:#FFFFFF;stroke-linecap:round;stroke-linejoin:round;}
	.st4{display:none;fill:none;stroke:#FFFFFF;stroke-width:0.75;}
	.st5{display:none;stroke:#FFFFFF;}
	.st6{display:none;fill-rule:evenodd;clip-rule:evenodd;fill:#FFFFFF;}
	.st7{display:none;fill:#FFFFFF;}
</style>
<path class="st0" d="M3,2h20c0.6,0,1,0.4,1,1v10c0,0.6-0.4,1-1,1H3c-0.6,0-1-0.4-1-1V3C2,2.4,2.4,2,3,2z"/>
<path class="st1" d="M3,2h20c0.6,0,1,0.4,1,1v10c0,0.6-0.4,1-1,1H3c-0.6,0-1-0.4-1-1V3C2,2.4,2.4,2,3,2z"/>
<path class="st2" d="M4.7,8C5.3,3.5,9,4,9,4 M13,8c-0.6-4.5-4.5-4-4.5-4 M13,8c0.6,4.5,4.4,4,4.5,4 M21.3,8c-0.6,4.5-4.5,4-4.5,4"/>
<path class="st0" d="M28,78h20c0.6,0,1,0.4,1,1v10c0,0.6-0.4,1-1,1H28c-0.6,0-1-0.4-1-1V79C27,78.4,27.4,78,28,78z"/>
<path class="st1" d="M28,78h20c0.6,0,1,0.4,1,1v10c0,0.6-0.4,1-1,1H28c-0.6,0-1-0.4-1-1V79C27,78.4,27.4,78,28,78z"/>
<path class="st2" d="M46.5,84l-4,4l-8-8l-4.3,4"/>
<path class="st0" d="M3,169h20c0.6,0,1,0.4,1,1v10c0,0.6-0.4,1-1,1H3c-0.6,0-1-0.4-1-1v-10C2,169.4,2.4,169,3,169z"/>
<path class="st1" d="M3,169h20c0.6,0,1,0.4,1,1v10c0,0.6-0.4,1-1,1H3c-0.6,0-1-0.4-1-1v-10C2,169.4,2.4,169,3,169z"/>
<path class="st3" d="M5,178.5v-7h8v7h8v-7"/>
<path class="st0" d="M28,245h20c0.6,0,1,0.4,1,1v10c0,0.6-0.4,1-1,1H28c-0.6,0-1-0.4-1-1v-10C27,245.4,27.4,245,28,245z"/>
<path class="st1" d="M28,245h20c0.6,0,1,0.4,1,1v10c0,0.6-0.4,1-1,1H28c-0.6,0-1-0.4-1-1v-10C27,245.4,27.4,245,28,245z"/>
<path class="st3" d="M38.4,247l8,8 M30.4,255v-8V255z M38.4,247v8V247z M30.4,247l8,8L30.4,247z"/>
<path class="st0" d="M3,336h20c0.6,0,1,0.4,1,1v10c0,0.6-0.4,1-1,1H3c-0.6,0-1-0.4-1-1v-10C2,336.4,2.4,336,3,336z"/>
<path class="st1" d="M3,336h20c0.6,0,1,0.4,1,1v10c0,0.6-0.4,1-1,1H3c-0.6,0-1-0.4-1-1v-10C2,336.4,2.4,336,3,336z"/>
<path class="st4" d="M4,341.1c0-1,0.7-4.6,1-4c0.3,0.6,0.4,5.9,0.9,6.9s0.6-3.5,1.1-2.9c0.5,0.6,0.3,5.7,0.8,5.2
	c0.5-0.5,0.7-6.4,1.2-7.2s0.5,4.3,1,4c0.5-0.3,0.6-5.6,1.1-5.1s0.4,6,0.9,7.1c0.5,1,0.5-3.3,1-3c0.5,0.3,0.5,4.7,1,4
	c0.5-0.7,0.4-6.2,0.9-6.9s0.6,4.2,1.1,3.9s0.3-5.5,0.8-5s0.6,6,1.2,7s0.5-2.7,1-3c0.5-0.3,0.4,3.2,0.9,1.9c0.5-1.3,0.5-6.2,1.1-6.9
	s1,4,1,4"/>
<path class="st0" d="M28,412h20c0.6,0,1,0.4,1,1v10c0,0.6-0.4,1-1,1H28c-0.6,0-1-0.4-1-1v-10C27,412.4,27.4,412,28,412z"/>
<path class="st1" d="M28,412h20c0.6,0,1,0.4,1,1v10c0,0.6-0.4,1-1,1H28c-0.6,0-1-0.4-1-1v-10C27,412.4,27.4,412,28,412z"/>
<path class="st3" d="M39.4,421h2 M31.4,418v-4V418z M39.4,421v-6V421z M33.4,414v3V414z M43.4,416v1.5V416z M35.4,417v5V417z
	 M41.4,417.5v3.5V417.5z M45.4,416v4V416z M37.4,415v7V415z M31.4,414h2H31.4z M33.4,417h2H33.4z M35.4,422h2H35.4z M37.4,415h2
	H37.4z M41.4,417.5h2H41.4z M43.4,416h2H43.4z M29.4,418h2H29.4z M45.4,420h2H45.4z"/>
<path class="st0" d="M3,503h20c0.6,0,1,0.4,1,1v10c0,0.6-0.4,1-1,1H3c-0.6,0-1-0.4-1-1v-10C2,503.4,2.4,503,3,503z"/>
<path class="st1" d="M3,503h20c0.6,0,1,0.4,1,1v10c0,0.6-0.4,1-1,1H3c-0.6,0-1-0.4-1-1v-10C2,503.4,2.4,503,3,503z"/>
<path class="st3" d="M18,508.9l3,4 M5,512.9l3-8L5,512.9z M18,508.9h-7H18z M8,504.9l3,4L8,504.9z"/>
<path class="st0" d="M28,579h20c0.6,0,1,0.4,1,1v10c0,0.6-0.4,1-1,1H28c-0.6,0-1-0.4-1-1v-10C27,579.4,27.4,579,28,579z"/>
<path class="st1" d="M28,579h20c0.6,0,1,0.4,1,1v10c0,0.6-0.4,1-1,1H28c-0.6,0-1-0.4-1-1v-10C27,579.4,27.4,579,28,579z"/>
<path class="st5" d="M30.5,589.5v-4h-1v4H30.5z M41,582.5h-1v2h1V582.5z M45.2,585.5h-1v2h1V585.5z M37.9,580.5v4h1v-4H37.9z
	 M35.8,582.5v2h1v-2H35.8z M47.3,585.5h-1v4h1V585.5z M32.6,587.5v-2h-1v2H32.6z"/>
<path class="st0" d="M3,670h20c0.6,0,1,0.4,1,1v10c0,0.6-0.4,1-1,1H3c-0.6,0-1-0.4-1-1v-10C2,670.4,2.4,670,3,670z"/>
<path class="st1" d="M3,670h20c0.6,0,1,0.4,1,1v10c0,0.6-0.4,1-1,1H3c-0.6,0-1-0.4-1-1v-10C2,670.4,2.4,670,3,670z"/>
<path class="st6" d="M11,672.5c0-0.3,0.2-0.5,0.5-0.5s0.5,0.2,0.5,0.5s-0.2,0.5-0.5,0.5S11,672.8,11,672.5z M11,673.4
	c-0.4,0.2-0.8,0.4-1.1,0.9c-0.5,0.6-0.8,1.5-1.2,2.5l0,0c-0.4,0.9-0.8,1.9-1.3,2.7c-0.5,0.6-1.1,1.1-2,1.3c-0.2,0.3-0.5,0.6-0.9,0.6
	c-0.6,0-1-0.4-1-1s0.4-1,1-1c0.3,0,0.6,0.2,0.8,0.4c0.5-0.1,0.9-0.4,1.2-0.9c0.5-0.6,0.8-1.5,1.2-2.5l0,0c0.4-0.9,0.8-1.9,1.3-2.7
	c0.4-0.5,0.8-0.9,1.4-1.1c0-0.6,0.4-1,1-1c0.6,0,1,0.4,1,1c0,0.2,0,0.3-0.1,0.5c0,0.1,0.1,0.2,0.2,0.4c0.2,0.5,0.5,1.1,0.9,1.7
	c0.4,0.6,0.8,1.2,1.2,1.6c0.2,0.2,0.4,0.3,0.5,0.4c0.1,0,0.2-0.1,0.3-0.1c0,0,0,0,0.1,0c0-0.1,0.1-0.1,0.1-0.2
	c0.2-0.4,0.6-1,1.1-1.6c0.7-0.9,1.6-1.8,2.8-2.2c0.1-0.4,0.5-0.7,1-0.7c0.6,0,1,0.4,1,1s-0.4,1-1,1c-0.3,0-0.5-0.1-0.7-0.3
	c-0.9,0.3-1.6,1.1-2.3,1.9c-0.4,0.5-0.7,1.1-1,1.5c-0.1,0.1-0.1,0.2-0.1,0.3c0.1,0.1,0.1,0.3,0.1,0.4c0,0.6-0.4,1-1,1
	c-0.6,0-1-0.4-1-1c0-0.1,0-0.1,0-0.2c-0.2-0.1-0.4-0.3-0.6-0.5c-0.5-0.5-1-1.2-1.4-1.8c-0.4-0.6-0.7-1.3-0.9-1.8
	c0-0.1-0.1-0.2-0.1-0.2c0,0,0,0,0,0C11.3,673.5,11.2,673.5,11,673.4z M4.5,679.8c-0.3,0-0.5,0.2-0.5,0.5s0.2,0.5,0.5,0.5
	s0.5-0.2,0.5-0.5S4.8,679.8,4.5,679.8z M15.5,677.5c-0.3,0-0.5,0.2-0.5,0.5s0.2,0.5,0.5,0.5s0.5-0.2,0.5-0.5S15.8,677.5,15.5,677.5z
	 M20,673.3c0-0.3,0.2-0.5,0.5-0.5s0.5,0.2,0.5,0.5s-0.2,0.5-0.5,0.5S20,673.5,20,673.3z"/>
<path class="st0" d="M28,746h20c0.6,0,1,0.4,1,1v10c0,0.6-0.4,1-1,1H28c-0.6,0-1-0.4-1-1v-10C27,746.4,27.4,746,28,746z"/>
<path class="st1" d="M28,746h20c0.6,0,1,0.4,1,1v10c0,0.6-0.4,1-1,1H28c-0.6,0-1-0.4-1-1v-10C27,746.4,27.4,746,28,746z"/>
<path class="st7" d="M31.3,753.1l0.3-1.4H32l0.1-0.3h-0.4c0.1-0.5,0.3-0.9,0.5-1.1c0.1-0.1,0.2-0.2,0.4-0.2c0,0,0,0,0.1,0
	c0,0,0,0,0,0.1c0,0,0,0.1,0,0.1c0,0.1,0,0.1,0,0.2c0,0.1,0,0.1,0.1,0.2c0.1,0,0.1,0.1,0.2,0.1c0.1,0,0.2,0,0.2-0.1
	c0.1-0.1,0.1-0.1,0.1-0.2c0-0.1,0-0.2-0.1-0.3c-0.1-0.1-0.2-0.1-0.4-0.1c-0.3,0-0.6,0.1-0.8,0.3c-0.2,0.2-0.5,0.5-0.7,0.9
	c-0.1,0.1-0.1,0.2-0.2,0.3c-0.1,0-0.2,0.1-0.3,0.1l-0.1,0.3h0.4l-0.6,2.3c-0.1,0.4-0.2,0.6-0.2,0.7c-0.1,0.1-0.1,0.2-0.2,0.3
	c0,0-0.1,0.1-0.1,0.1c0,0,0,0,0,0l0,0c0,0,0,0,0-0.1c0,0,0-0.1,0-0.1c0-0.1,0-0.1-0.1-0.2s-0.1-0.1-0.2-0.1c-0.1,0-0.2,0-0.3,0.1
	c-0.1,0.1-0.1,0.1-0.1,0.2c0,0.1,0,0.2,0.1,0.2c0.1,0.1,0.2,0.1,0.4,0.1c0.3,0,0.5-0.1,0.7-0.2c0.2-0.1,0.4-0.3,0.5-0.6
	C31,754.2,31.1,753.8,31.3,753.1z M46.3,751.8l0.5-1.8h-0.2l-1,0.2l0,0.1c0.1,0,0.2,0,0.2,0c0,0,0.1,0.1,0.1,0.1
	c0,0.1,0,0.2-0.1,0.3l-0.9,3.1c0.4,0.2,0.7,0.3,1,0.3c0.4,0,0.8-0.2,1.2-0.5c0.4-0.4,0.6-0.9,0.6-1.4c0-0.2-0.1-0.4-0.2-0.6
	c-0.1-0.2-0.3-0.3-0.5-0.3c-0.1,0-0.2,0-0.3,0.1C46.6,751.5,46.4,751.6,46.3,751.8z M41.7,751.9h1.4v-1.4h0.4v1.4h1.4v0.4h-1.4v1.4
	h-0.4v-1.4h-1.4V751.9z M38.3,751.4l-0.6,1.9l-0.1,0.2c0,0,0,0.1,0,0.1c0,0,0,0,0,0.1c0,0,0,0,0.1,0c0,0,0.1,0,0.2-0.1
	c0,0,0.1-0.1,0.2-0.3l0.1,0.1c-0.1,0.3-0.3,0.4-0.4,0.6c-0.2,0.1-0.3,0.2-0.5,0.2c-0.1,0-0.2,0-0.3-0.1c-0.1-0.1-0.1-0.1-0.1-0.2
	c0-0.1,0-0.2,0.1-0.4l0.1-0.2c-0.2,0.4-0.4,0.7-0.7,0.8c-0.1,0.1-0.3,0.1-0.4,0.1c-0.2,0-0.3-0.1-0.4-0.2c-0.1-0.1-0.1-0.3-0.1-0.5
	c0-0.3,0.1-0.6,0.3-0.9c0.2-0.4,0.4-0.6,0.7-0.9c0.2-0.2,0.4-0.3,0.6-0.3c0.1,0,0.2,0,0.3,0.1c0.1,0.1,0.1,0.2,0.1,0.3l0.1-0.4
	L38.3,751.4z M39.8,751.4l-1,0.2l0,0.1c0.1,0,0.1,0,0.2,0c0.1,0,0.2,0,0.3,0.1c0.1,0.1,0.3,0.6,0.4,1.2c-0.1,0.2-0.2,0.3-0.3,0.4
	c-0.1,0.1-0.2,0.2-0.2,0.2c0,0-0.1,0-0.2,0c0,0-0.1,0-0.2-0.1c-0.1,0-0.1,0-0.2,0c-0.1,0-0.2,0-0.2,0.1c-0.1,0.1-0.1,0.1-0.1,0.2
	c0,0.1,0,0.2,0.1,0.2c0.1,0.1,0.1,0.1,0.2,0.1c0.1,0,0.2,0,0.3-0.1c0.1,0,0.2-0.1,0.3-0.3c0.1-0.1,0.3-0.3,0.5-0.6
	c0.1,0.3,0.2,0.5,0.2,0.6c0.1,0.1,0.1,0.2,0.2,0.3c0.1,0.1,0.2,0.1,0.3,0.1c0.1,0,0.2,0,0.4-0.1c0.2-0.1,0.3-0.3,0.5-0.6l-0.1-0.1
	c-0.1,0.2-0.2,0.3-0.3,0.3c0,0-0.1,0-0.1,0c-0.1,0-0.1,0-0.2-0.1c-0.1-0.1-0.2-0.5-0.4-1.1c0.1-0.3,0.3-0.4,0.4-0.5
	c0.1-0.1,0.2-0.1,0.2-0.1c0,0,0.1,0,0.2,0c0.1,0,0.2,0,0.2,0c0.1,0,0.2,0,0.2-0.1c0.1-0.1,0.1-0.1,0.1-0.2c0-0.1,0-0.2-0.1-0.2
	c-0.1-0.1-0.1-0.1-0.2-0.1c-0.1,0-0.2,0-0.3,0.1c-0.1,0-0.2,0.1-0.3,0.3c-0.1,0.1-0.2,0.3-0.4,0.6C40.1,752,40,751.7,39.8,751.4z
	 M35.5,751.4h-3.2v0.4h3.2V751.4z M37.4,752c0-0.2,0-0.3-0.1-0.3c0,0-0.1-0.1-0.1-0.1c-0.1,0-0.1,0-0.2,0.1
	c-0.1,0.1-0.3,0.4-0.4,0.7c-0.2,0.4-0.2,0.7-0.2,1c0,0.1,0,0.2,0.1,0.2c0,0,0.1,0.1,0.1,0.1c0.1,0,0.2-0.1,0.3-0.2
	c0.1-0.1,0.2-0.3,0.3-0.5C37.3,752.6,37.4,752.2,37.4,752z M45.9,754c-0.1,0-0.2,0-0.2-0.1l0.4-1.4c0.1-0.3,0.2-0.5,0.2-0.5
	c0.1-0.1,0.2-0.2,0.4-0.2c0.1,0,0.2,0,0.2,0.1c0.1,0.1,0.1,0.2,0.1,0.3c0,0.2,0,0.5-0.1,0.7c-0.1,0.2-0.2,0.5-0.3,0.6
	c-0.1,0.2-0.2,0.3-0.4,0.4C46.1,754,46,754,45.9,754z M35.5,752.4h-3.2v0.4h3.2V752.4z"/>
</svg>
