<?xml version="1.0" encoding="utf-8"?>
<!-- Generator: Adobe Illustrator 23.0.0, SVG Export Plug-In . SVG Version: 6.00 Build 0)  -->
<svg version="1.1" id="Layer_1" xmlns="http://www.w3.org/2000/svg" xmlns:xlink="http://www.w3.org/1999/xlink" x="0px" y="0px"
	 viewBox="0 0 48 56" style="enable-background:new 0 0 48 56;" xml:space="preserve">
<style type="text/css">
	.st0{display:none;fill:url(#SVGID_1_);}
	.st1{opacity:0.3;fill:url(#SVGID_2_);enable-background:new    ;}
	.st2{fill:#FF9000;}
	.st3{fill:#1F1F1F;}
	.st4{display:none;fill:url(#SVGID_3_);}
	.st5{opacity:0.3;fill:url(#SVGID_4_);enable-background:new    ;}
	.st6{fill:#8BCC56;}
	.st7{display:none;fill:url(#SVGID_5_);}
	.st8{opacity:0.3;fill:url(#SVGID_6_);enable-background:new    ;}
	.st9{display:none;fill:url(#SVGID_7_);}
	.st10{opacity:0.3;fill:url(#SVGID_8_);enable-background:new    ;}
</style>
<linearGradient id="SVGID_1_" gradientUnits="userSpaceOnUse" x1="9" y1="44" x2="9" y2="38" gradientTransform="matrix(1 0 0 -1 0 58)">
	<stop  offset="0.5208" style="stop-color:#000000"/>
	<stop  offset="1" style="stop-color:#000000;stop-opacity:0"/>
</linearGradient>
<path class="st0" d="M9,20c3,0,5.5-2.7,5.5-6S12,8,9,8c-3,0-5.5,2.7-5.5,6S6,20,9,20z"/>
<linearGradient id="SVGID_2_" gradientUnits="userSpaceOnUse" x1="9" y1="55" x2="9" y2="38" gradientTransform="matrix(1 0 0 -1 0 58)">
	<stop  offset="0" style="stop-color:#FFBF00"/>
	<stop  offset="1" style="stop-color:#FF9000"/>
</linearGradient>
<path class="st1" d="M9,20c4.7,0,8.5-3.8,8.5-8.5C17.5,6.8,13.7,3,9,3c-4.7,0-8.5,3.8-8.5,8.5C0.5,16.2,4.3,20,9,20z"/>
<path class="st2" d="M9,17c3,0,5.5-2.5,5.5-5.5C14.5,8.5,12,6,9,6c-3,0-5.5,2.5-5.5,5.5C3.5,14.5,6,17,9,17z"/>
<path class="st3" d="M10,11H8c-0.3,0-0.5,0.2-0.5,0.5S7.7,12,8,12h2c0.3,0,0.5-0.2,0.5-0.5S10.3,11,10,11z"/>
<linearGradient id="SVGID_3_" gradientUnits="userSpaceOnUse" x1="33" y1="44" x2="33" y2="38" gradientTransform="matrix(1 0 0 -1 0 58)">
	<stop  offset="0.5208" style="stop-color:#000000"/>
	<stop  offset="1" style="stop-color:#000000;stop-opacity:0"/>
</linearGradient>
<path class="st4" d="M33,20c3,0,5.5-2.7,5.5-6S36,8,33,8s-5.5,2.7-5.5,6S30,20,33,20z"/>
<linearGradient id="SVGID_4_" gradientUnits="userSpaceOnUse" x1="33" y1="55" x2="33" y2="38" gradientTransform="matrix(1 0 0 -1 0 58)">
	<stop  offset="0" style="stop-color:#8BCC56"/>
	<stop  offset="1" style="stop-color:#71A646"/>
</linearGradient>
<path class="st5" d="M33,20c4.7,0,8.5-3.8,8.5-8.5C41.5,6.8,37.7,3,33,3s-8.5,3.8-8.5,8.5C24.5,16.2,28.3,20,33,20z"/>
<path class="st6" d="M33,17c3,0,5.5-2.5,5.5-5.5C38.5,8.5,36,6,33,6s-5.5,2.5-5.5,5.5C27.5,14.5,30,17,33,17z"/>
<path class="st3" d="M34,11h-2c-0.3,0-0.5,0.2-0.5,0.5S31.7,12,32,12h2c0.3,0,0.5-0.2,0.5-0.5S34.3,11,34,11z"/>
<linearGradient id="SVGID_5_" gradientUnits="userSpaceOnUse" x1="9" y1="16" x2="9" y2="10" gradientTransform="matrix(1 0 0 -1 0 58)">
	<stop  offset="0.5208" style="stop-color:#000000"/>
	<stop  offset="1" style="stop-color:#000000;stop-opacity:0"/>
</linearGradient>
<path class="st7" d="M9,48c3,0,5.5-2.7,5.5-6S12,36,9,36c-3,0-5.5,2.7-5.5,6S6,48,9,48z"/>
<linearGradient id="SVGID_6_" gradientUnits="userSpaceOnUse" x1="9" y1="27" x2="9" y2="10" gradientTransform="matrix(1 0 0 -1 0 58)">
	<stop  offset="0" style="stop-color:#FFBF00"/>
	<stop  offset="1" style="stop-color:#FF9000"/>
</linearGradient>
<path class="st8" d="M9,48c4.7,0,8.5-3.8,8.5-8.5S13.7,31,9,31c-4.7,0-8.5,3.8-8.5,8.5S4.3,48,9,48z"/>
<path class="st2" d="M9,45c3,0,5.5-2.5,5.5-5.5S12,34,9,34c-3,0-5.5,2.5-5.5,5.5S6,45,9,45z"/>
<path class="st3" d="M10,39H8c-0.3,0-0.5,0.2-0.5,0.5S7.7,40,8,40h2c0.3,0,0.5-0.2,0.5-0.5S10.3,39,10,39z"/>
<linearGradient id="SVGID_7_" gradientUnits="userSpaceOnUse" x1="33" y1="16" x2="33" y2="10" gradientTransform="matrix(1 0 0 -1 0 58)">
	<stop  offset="0.5208" style="stop-color:#000000"/>
	<stop  offset="1" style="stop-color:#000000;stop-opacity:0"/>
</linearGradient>
<path class="st9" d="M33,48c3,0,5.5-2.7,5.5-6S36,36,33,36s-5.5,2.7-5.5,6S30,48,33,48z"/>
<linearGradient id="SVGID_8_" gradientUnits="userSpaceOnUse" x1="33" y1="27" x2="33" y2="10" gradientTransform="matrix(1 0 0 -1 0 58)">
	<stop  offset="0" style="stop-color:#8BCC56"/>
	<stop  offset="1" style="stop-color:#71A646"/>
</linearGradient>
<path class="st10" d="M33,48c4.7,0,8.5-3.8,8.5-8.5S37.7,31,33,31s-8.5,3.8-8.5,8.5S28.3,48,33,48z"/>
<path class="st6" d="M33,45c3,0,5.5-2.5,5.5-5.5S36,34,33,34s-5.5,2.5-5.5,5.5S30,45,33,45z"/>
<path class="st3" d="M34,39h-2c-0.3,0-0.5,0.2-0.5,0.5S31.7,40,32,40h2c0.3,0,0.5-0.2,0.5-0.5S34.3,39,34,39z"/>
</svg>
