<?xml version="1.0" encoding="utf-8"?>
<!-- Generator: Adobe Illustrator 23.0.0, SVG Export Plug-In . SVG Version: 6.00 Build 0)  -->
<svg version="1.1" id="Layer_1" xmlns="http://www.w3.org/2000/svg" xmlns:xlink="http://www.w3.org/1999/xlink" x="0px" y="0px"
	 viewBox="0 0 134 208" style="enable-background:new 0 0 134 208;" xml:space="preserve">
<style type="text/css">
	.st0{opacity:0.5;fill:#FF9000;enable-background:new    ;}
	.st1{opacity:0.5;}
	.st2{fill-rule:evenodd;clip-rule:evenodd;fill:#FF9000;}
	.st3{fill:#FF9000;}
	.st4{fill:#399DFF;}
	.st5{fill:none;stroke:#399DFF;}
	.st6{fill:#FFFFFF;}
</style>
<path class="st0" d="M38,188h-1v9h46v-4h-1v3H38V188z"/>
<g class="st1">
	<path class="st2" d="M29,188v2l-4-2.5l4-2.5v2V188z"/>
	<path class="st3" d="M45,188H28.5v-1H45V188z"/>
</g>
<path class="st4" d="M100.5,200h28c0.6,0,1,0.4,1,1v4c0,0.6-0.4,1-1,1h-28c-0.6,0-1-0.4-1-1v-4C99.5,200.4,100,200,100.5,200z"/>
<path class="st5" d="M100.5,200h28c0.6,0,1,0.4,1,1v4c0,0.6-0.4,1-1,1h-28c-0.6,0-1-0.4-1-1v-4C99.5,200.4,100,200,100.5,200z"/>
<path class="st6" d="M105.9,204.5c0.1,0,0.2,0,0.3,0.1c0.1,0.1,0.1,0.1,0.1,0.3v0.6h-3.6v-0.4c0-0.1,0-0.1,0-0.2s0.1-0.1,0.1-0.2
	l1.5-1.5c0.1-0.1,0.2-0.2,0.3-0.4c0.1-0.1,0.2-0.2,0.2-0.3c0.1-0.1,0.1-0.2,0.1-0.3c0-0.1,0-0.2,0-0.4c0-0.2,0-0.4-0.1-0.5
	c-0.1-0.1-0.2-0.2-0.4-0.2c-0.2,0-0.3,0-0.4,0.1c-0.1,0.1-0.2,0.2-0.2,0.3c0,0.1-0.1,0.2-0.2,0.3c-0.1,0-0.2,0.1-0.3,0l-0.6-0.1
	c0-0.3,0.1-0.5,0.2-0.7c0.1-0.2,0.2-0.3,0.4-0.5c0.2-0.1,0.3-0.2,0.5-0.3c0.2-0.1,0.4-0.1,0.7-0.1c0.3,0,0.5,0,0.7,0.1
	c0.2,0.1,0.4,0.2,0.5,0.3c0.1,0.1,0.3,0.3,0.3,0.5c0.1,0.2,0.1,0.4,0.1,0.6c0,0.2,0,0.4-0.1,0.5c-0.1,0.2-0.1,0.3-0.2,0.5
	c-0.1,0.1-0.2,0.3-0.3,0.4c-0.1,0.1-0.2,0.3-0.4,0.4l-1,1c0.1,0,0.3-0.1,0.4-0.1c0.1,0,0.2,0,0.3,0H105.9z M116.2,204.7v0.8h-2.9
	v-0.8h1v-2.6c0-0.1,0-0.1,0-0.2c0-0.1,0-0.1,0-0.2l-0.6,0.5c-0.1,0-0.1,0.1-0.2,0.1c0,0-0.1,0-0.1,0c0,0-0.1,0-0.1,0
	c0,0-0.1,0-0.1-0.1l-0.3-0.5l1.6-1.3h0.9v4.3H116.2z M122.8,201.9c0-0.3,0.1-0.5,0.2-0.7c0.1-0.2,0.2-0.3,0.4-0.5
	c0.2-0.1,0.3-0.2,0.5-0.3c0.2-0.1,0.4-0.1,0.7-0.1c0.3,0,0.5,0,0.7,0.1c0.2,0.1,0.4,0.2,0.5,0.3c0.1,0.1,0.2,0.3,0.3,0.4
	c0.1,0.2,0.1,0.3,0.1,0.5c0,0.2,0,0.3,0,0.4c0,0.1-0.1,0.2-0.1,0.3c-0.1,0.1-0.1,0.2-0.2,0.2c-0.1,0.1-0.2,0.1-0.3,0.2
	c0.6,0.2,0.8,0.6,0.8,1.2c0,0.3,0,0.5-0.1,0.7c-0.1,0.2-0.2,0.4-0.4,0.5c-0.2,0.1-0.4,0.2-0.6,0.3c-0.2,0.1-0.4,0.1-0.7,0.1
	c-0.2,0-0.5,0-0.6-0.1c-0.2-0.1-0.4-0.1-0.5-0.2c-0.1-0.1-0.3-0.3-0.4-0.4c-0.1-0.2-0.2-0.4-0.3-0.6l0.5-0.2c0.1,0,0.2-0.1,0.3,0
	c0.1,0,0.2,0.1,0.2,0.2c0.1,0.2,0.2,0.3,0.3,0.4c0.1,0.1,0.3,0.1,0.4,0.1c0.1,0,0.2,0,0.3-0.1c0.1,0,0.2-0.1,0.2-0.2
	c0.1-0.1,0.1-0.1,0.1-0.2c0-0.1,0-0.2,0-0.2c0-0.1,0-0.2,0-0.3c0-0.1-0.1-0.2-0.1-0.2c-0.1-0.1-0.2-0.1-0.3-0.1
	c-0.1,0-0.3-0.1-0.6-0.1v-0.7c0.2,0,0.4,0,0.5,0c0.1,0,0.2-0.1,0.3-0.1c0.1-0.1,0.1-0.1,0.1-0.2c0-0.1,0-0.2,0-0.3
	c0-0.2,0-0.4-0.1-0.5c-0.1-0.1-0.2-0.2-0.4-0.2c-0.2,0-0.3,0-0.4,0.1c-0.1,0.1-0.2,0.2-0.2,0.3c0,0.1-0.1,0.2-0.2,0.3
	c-0.1,0-0.2,0.1-0.3,0L122.8,201.9z"/>
<path class="st6" d="M110.8,203l-2.8,2.1v-4.3L110.8,203z"/>
<path class="st6" d="M118.3,203l2.8-2.1v4.3L118.3,203z"/>
<g class="st1">
	<path class="st2" d="M61,136v2l-4-2.5l4-2.5v2V136z"/>
	<path class="st3" d="M77,136H60.5v-1H77V136z"/>
</g>
<g class="st1">
	<path class="st2" d="M29,136v2l-4-2.5l4-2.5v2V136z"/>
	<path class="st3" d="M45,136H28.5v-1H45V136z"/>
</g>
<path class="st4" d="M68.5,148h28c0.6,0,1,0.4,1,1v4c0,0.6-0.4,1-1,1h-28c-0.6,0-1-0.4-1-1v-4C67.5,148.4,68,148,68.5,148z"/>
<path class="st5" d="M68.5,148h28c0.6,0,1,0.4,1,1v4c0,0.6-0.4,1-1,1h-28c-0.6,0-1-0.4-1-1v-4C67.5,148.4,68,148,68.5,148z"/>
<path class="st6" d="M70.8,149.9c0-0.3,0.1-0.5,0.2-0.7c0.1-0.2,0.2-0.3,0.4-0.5c0.2-0.1,0.3-0.2,0.5-0.3c0.2-0.1,0.4-0.1,0.7-0.1
	c0.3,0,0.5,0,0.7,0.1c0.2,0.1,0.4,0.2,0.5,0.3c0.1,0.1,0.2,0.3,0.3,0.4c0.1,0.2,0.1,0.3,0.1,0.5c0,0.2,0,0.3,0,0.4
	c0,0.1-0.1,0.2-0.1,0.3c-0.1,0.1-0.1,0.2-0.2,0.2c-0.1,0.1-0.2,0.1-0.3,0.2c0.6,0.2,0.8,0.6,0.8,1.2c0,0.3,0,0.5-0.1,0.7
	c-0.1,0.2-0.2,0.4-0.4,0.5c-0.2,0.1-0.4,0.2-0.6,0.3c-0.2,0.1-0.4,0.1-0.7,0.1c-0.2,0-0.5,0-0.6-0.1c-0.2-0.1-0.4-0.1-0.5-0.2
	c-0.1-0.1-0.3-0.3-0.4-0.4c-0.1-0.2-0.2-0.4-0.3-0.6l0.5-0.2c0.1,0,0.2-0.1,0.3,0c0.1,0,0.2,0.1,0.2,0.2c0.1,0.2,0.2,0.3,0.3,0.4
	c0.1,0.1,0.3,0.1,0.4,0.1c0.1,0,0.2,0,0.3-0.1c0.1,0,0.2-0.1,0.2-0.2c0.1-0.1,0.1-0.1,0.1-0.2c0-0.1,0-0.2,0-0.2c0-0.1,0-0.2,0-0.3
	c0-0.1-0.1-0.2-0.1-0.2s-0.2-0.1-0.3-0.1c-0.1,0-0.3-0.1-0.6-0.1v-0.7c0.2,0,0.4,0,0.5,0c0.1,0,0.2-0.1,0.3-0.1
	c0.1-0.1,0.1-0.1,0.1-0.2c0-0.1,0-0.2,0-0.3c0-0.2,0-0.4-0.1-0.5c-0.1-0.1-0.2-0.2-0.4-0.2c-0.2,0-0.3,0-0.4,0.1
	c-0.1,0.1-0.2,0.2-0.2,0.3c0,0.1-0.1,0.2-0.2,0.3c-0.1,0-0.2,0.1-0.3,0L70.8,149.9z M83.9,152.5c0.1,0,0.2,0,0.3,0.1
	c0.1,0.1,0.1,0.1,0.1,0.3v0.6h-3.6v-0.4c0-0.1,0-0.1,0-0.2s0.1-0.1,0.1-0.2l1.5-1.5c0.1-0.1,0.2-0.2,0.3-0.4s0.2-0.2,0.2-0.3
	c0.1-0.1,0.1-0.2,0.1-0.3c0-0.1,0-0.2,0-0.4c0-0.2,0-0.4-0.1-0.5c-0.1-0.1-0.2-0.2-0.4-0.2c-0.2,0-0.3,0-0.4,0.1
	c-0.1,0.1-0.2,0.2-0.2,0.3c0,0.1-0.1,0.2-0.2,0.3c-0.1,0-0.2,0.1-0.3,0l-0.6-0.1c0-0.3,0.1-0.5,0.2-0.7c0.1-0.2,0.2-0.3,0.4-0.5
	c0.2-0.1,0.3-0.2,0.5-0.3c0.2-0.1,0.4-0.1,0.7-0.1c0.3,0,0.5,0,0.7,0.1c0.2,0.1,0.4,0.2,0.5,0.3c0.1,0.1,0.3,0.3,0.3,0.5
	c0.1,0.2,0.1,0.4,0.1,0.6c0,0.2,0,0.4-0.1,0.5c-0.1,0.2-0.1,0.3-0.2,0.5c-0.1,0.1-0.2,0.3-0.3,0.4c-0.1,0.1-0.2,0.3-0.4,0.4l-1,1
	c0.1,0,0.3-0.1,0.4-0.1c0.1,0,0.2,0,0.3,0H83.9z M94.2,152.7v0.8h-2.9v-0.8h1v-2.6c0-0.1,0-0.1,0-0.2c0-0.1,0-0.1,0-0.2l-0.6,0.5
	c-0.1,0-0.1,0.1-0.2,0.1c0,0-0.1,0-0.1,0c0,0-0.1,0-0.1,0c0,0-0.1,0-0.1-0.1l-0.3-0.5l1.6-1.3h0.9v4.3H94.2z"/>
<path class="st6" d="M78.8,151l-2.8,2.1v-4.3L78.8,151z"/>
<path class="st6" d="M89.1,151l-2.8,2.1v-4.3L89.1,151z"/>
<g class="st1">
	<path class="st2" d="M29,84v2l-4-2.5l4-2.5v2V84z"/>
	<path class="st3" d="M45,84H28.5v-1H45V84z"/>
</g>
<path class="st4" d="M36.5,96h28c0.6,0,1,0.4,1,1v4c0,0.6-0.4,1-1,1h-28c-0.6,0-1-0.4-1-1v-4C35.5,96.4,36,96,36.5,96z"/>
<path class="st5" d="M36.5,96h28c0.6,0,1,0.4,1,1v4c0,0.6-0.4,1-1,1h-28c-0.6,0-1-0.4-1-1v-4C35.5,96.4,36,96,36.5,96z"/>
<path class="st6" d="M47.6,100.5c0.1,0,0.2,0,0.3,0.1c0.1,0.1,0.1,0.1,0.1,0.3v0.6h-3.6v-0.3c0-0.1,0-0.1,0-0.2
	c0-0.1,0.1-0.1,0.1-0.2l1.5-1.5c0.1-0.1,0.2-0.2,0.3-0.4c0.1-0.1,0.2-0.2,0.2-0.3c0.1-0.1,0.1-0.2,0.1-0.3c0-0.1,0-0.2,0-0.4
	c0-0.2,0-0.4-0.1-0.5c-0.1-0.1-0.2-0.2-0.4-0.2c-0.2,0-0.3,0-0.4,0.1c-0.1,0.1-0.2,0.2-0.2,0.3c0,0.1-0.1,0.2-0.2,0.3
	c-0.1,0-0.2,0.1-0.3,0l-0.6-0.1c0-0.3,0.1-0.5,0.2-0.7c0.1-0.2,0.2-0.3,0.4-0.5c0.2-0.1,0.3-0.2,0.5-0.3c0.2-0.1,0.4-0.1,0.7-0.1
	c0.3,0,0.5,0,0.7,0.1c0.2,0.1,0.4,0.2,0.5,0.3c0.1,0.1,0.3,0.3,0.3,0.5c0.1,0.2,0.1,0.4,0.1,0.6c0,0.2,0,0.4-0.1,0.5
	c-0.1,0.2-0.1,0.3-0.2,0.5c-0.1,0.1-0.2,0.3-0.3,0.4c-0.1,0.1-0.2,0.3-0.4,0.4l-1,1c0.1,0,0.3-0.1,0.4-0.1c0.1,0,0.2,0,0.4,0H47.6z
	 M56.4,100.7v0.8h-2.9v-0.8h1v-2.6c0-0.1,0-0.1,0-0.2c0-0.1,0-0.1,0-0.2l-0.6,0.5c-0.1,0-0.1,0.1-0.2,0.1c0,0-0.1,0-0.1,0
	c0,0-0.1,0-0.1,0c0,0-0.1,0-0.1-0.1l-0.3-0.5l1.6-1.3h0.9v4.3H56.4z"/>
<path class="st6" d="M52.4,99l-2.8,2.1v-4.3L52.4,99z"/>
<path class="st4" d="M4.5,44h28c0.6,0,1,0.4,1,1v4c0,0.6-0.4,1-1,1h-28c-0.6,0-1-0.4-1-1v-4C3.5,44.4,3.9,44,4.5,44z"/>
<path class="st5" d="M4.5,44h28c0.6,0,1,0.4,1,1v4c0,0.6-0.4,1-1,1h-28c-0.6,0-1-0.4-1-1v-4C3.5,44.4,3.9,44,4.5,44z"/>
<path class="st6" d="M11.9,44.4v5.1h-0.6c-0.1,0-0.2,0-0.2,0c-0.1,0-0.1-0.1-0.2-0.2l-2.4-3c0,0.1,0,0.2,0,0.3c0,0.1,0,0.2,0,0.2
	v2.7h-1v-5.1h0.6c0.1,0,0.1,0,0.1,0c0,0,0.1,0,0.1,0c0,0,0.1,0,0.1,0.1c0,0,0.1,0.1,0.1,0.1l2.4,3.1c0-0.1,0-0.2,0-0.3
	c0-0.1,0-0.2,0-0.3v-2.7H11.9z M17.8,46.9c0,0.4-0.1,0.7-0.2,1c-0.1,0.3-0.3,0.6-0.5,0.8c-0.2,0.2-0.5,0.4-0.8,0.5
	c-0.3,0.1-0.7,0.2-1.1,0.2c-0.4,0-0.8-0.1-1.1-0.2c-0.3-0.1-0.6-0.3-0.8-0.5c-0.2-0.2-0.4-0.5-0.5-0.8c-0.1-0.3-0.2-0.7-0.2-1
	c0-0.4,0.1-0.7,0.2-1c0.1-0.3,0.3-0.6,0.5-0.8c0.2-0.2,0.5-0.4,0.8-0.5c0.3-0.1,0.7-0.2,1.1-0.2c0.4,0,0.8,0.1,1.1,0.2
	c0.3,0.1,0.6,0.3,0.8,0.5c0.2,0.2,0.4,0.5,0.5,0.8C17.8,46.2,17.8,46.6,17.8,46.9z M16.6,46.9c0-0.3,0-0.5-0.1-0.7
	c-0.1-0.2-0.2-0.4-0.3-0.5c-0.1-0.1-0.3-0.2-0.4-0.3c-0.2-0.1-0.4-0.1-0.6-0.1c-0.2,0-0.4,0-0.6,0.1c-0.2,0.1-0.3,0.2-0.5,0.3
	c-0.1,0.1-0.2,0.3-0.3,0.5c-0.1,0.2-0.1,0.4-0.1,0.7c0,0.3,0,0.5,0.1,0.7c0.1,0.2,0.2,0.4,0.3,0.5c0.1,0.1,0.3,0.2,0.5,0.3
	c0.2,0.1,0.4,0.1,0.6,0.1c0.2,0,0.4,0,0.6-0.1c0.2-0.1,0.3-0.2,0.4-0.3c0.1-0.1,0.2-0.3,0.3-0.5C16.6,47.4,16.6,47.2,16.6,46.9z
	 M21.1,45.3v1.3h1.7v0.9h-1.7v2h-1.2v-5.1h3.3v0.9H21.1z M29.5,44.4v5.1h-1v-2.9c0-0.1,0-0.1,0-0.2c0-0.1,0-0.2,0-0.2l-1.4,2.6
	c0,0.1-0.1,0.1-0.2,0.2c-0.1,0-0.2,0.1-0.2,0.1h-0.2c-0.1,0-0.2,0-0.2-0.1c-0.1,0-0.1-0.1-0.2-0.2l-1.4-2.6c0,0.1,0,0.2,0,0.2
	c0,0.1,0,0.2,0,0.2v2.9h-1v-5.1h0.9c0.1,0,0.1,0,0.1,0c0,0,0.1,0,0.1,0s0.1,0,0.1,0.1c0,0,0.1,0.1,0.1,0.1l1.3,2.6
	c0,0.1,0.1,0.2,0.1,0.3c0,0.1,0.1,0.2,0.1,0.3c0-0.1,0.1-0.2,0.1-0.3c0-0.1,0.1-0.2,0.1-0.3l1.3-2.6c0,0,0-0.1,0.1-0.1
	c0,0,0.1,0,0.1-0.1s0.1,0,0.1,0c0,0,0.1,0,0.1,0H29.5z"/>
</svg>
