<?xml version="1.0" encoding="utf-8"?>
<!-- Generator: Adobe Illustrator 23.0.0, SVG Export Plug-In . SVG Version: 6.00 Build 0)  -->
<svg version="1.1" id="Layer_1" xmlns="http://www.w3.org/2000/svg" xmlns:xlink="http://www.w3.org/1999/xlink" x="0px" y="0px"
	 viewBox="0 0 47 20" style="enable-background:new 0 0 47 20;" xml:space="preserve">
<style type="text/css">
	.st0{fill:#399DFF;stroke:#399DFF;stroke-width:2;stroke-miterlimit:10;}
	.st1{fill:none;stroke:#399DFF;}
	.st2{fill:#FFFFFF;}
	.st3{fill:#FF9300;stroke:#FF9300;stroke-width:2;stroke-miterlimit:10;}
	.st4{display:none;fill:none;stroke:#FFFFFF;}
</style>
<path class="st0" d="M2.5,1h42c0.6,0,1,0.4,1,1v6c0,0.6-0.4,1-1,1h-42c-0.6,0-1-0.4-1-1V2C1.5,1.4,1.9,1,2.5,1z"/>
<path class="st1" d="M2.5,1h42c0.6,0,1,0.4,1,1v6c0,0.6-0.4,1-1,1h-42c-0.6,0-1-0.4-1-1V2C1.5,1.4,1.9,1,2.5,1z"/>
<path class="st2" d="M4.5,5.4c0.2,0,0.3,0,0.5-0.1c0.1,0,0.2-0.1,0.3-0.2c0.1,0,0.1-0.1,0.2-0.2c0-0.1,0.1-0.2,0.1-0.4
	c0-0.3-0.1-0.5-0.3-0.6C5.1,3.8,4.9,3.7,4.5,3.7H4v1.7H4.5z M7.4,8.5H6.2C6,8.5,5.8,8.4,5.7,8.2l-1-1.7c0-0.1-0.1-0.1-0.2-0.2
	c-0.1,0-0.1-0.1-0.2-0.1H4v2.2H2.6V2.7h1.9c0.4,0,0.8,0,1.1,0.1C5.9,2.9,6.1,3,6.3,3.2c0.2,0.2,0.3,0.3,0.4,0.5s0.1,0.4,0.1,0.7
	c0,0.2,0,0.4-0.1,0.5c0,0.2-0.1,0.4-0.1,0.5C6.5,5.5,6.3,5.7,6.2,5.8C6,5.9,5.9,6,5.7,6.1c0.1,0,0.2,0.1,0.2,0.2
	c0.1,0,0.2,0.1,0.2,0.2L7.4,8.5z M9.1,3.7v1.4h1.8v1H9.1v1.4h2.4v1H7.7V2.7h3.8v1H9.1z M16.4,3.7h-1.6v4.8h-1.4V3.7h-1.6v-1h4.6V3.7
	z M18.9,5.4c0.2,0,0.3,0,0.5-0.1c0.1,0,0.2-0.1,0.3-0.2c0.1-0.1,0.1-0.2,0.2-0.3c0-0.1,0.1-0.2,0.1-0.4c0-0.3-0.1-0.5-0.3-0.6
	c-0.2-0.1-0.4-0.2-0.8-0.2h-0.5v1.7L18.9,5.4L18.9,5.4z M21.7,8.5h-1.2c-0.2,0-0.4-0.1-0.5-0.3l-1-1.7c0-0.1-0.1-0.1-0.2-0.2
	c-0.1,0-0.1-0.1-0.2-0.1h-0.3v2.2H17V2.7h1.9c0.4,0,0.8,0,1.1,0.1c0.3,0.1,0.5,0.2,0.7,0.4s0.3,0.3,0.4,0.5s0.1,0.4,0.1,0.7
	c0,0.2,0,0.4-0.1,0.5C21,5.1,21,5.2,20.9,5.4c-0.1,0.1-0.2,0.3-0.4,0.4C20.4,5.9,20.2,6,20,6.1c0.1,0,0.2,0.1,0.2,0.2
	c0.1,0.1,0.1,0.1,0.2,0.2L21.7,8.5z M23.5,8.5h-1.4V2.7h1.4V8.5z M27.3,5.5h2.1V8c-0.3,0.2-0.6,0.4-1,0.5c-0.3,0.1-0.7,0.1-1.1,0.1
	c-0.5,0-0.9-0.1-1.3-0.2c-0.4-0.2-0.7-0.4-1-0.6c-0.3-0.3-0.5-0.6-0.6-0.9c-0.2-0.4-0.2-0.8-0.2-1.2c0-0.4,0.1-0.8,0.2-1.2
	C24.5,4,24.7,3.7,25,3.4s0.6-0.5,1-0.6s0.8-0.2,1.3-0.2c0.2,0,0.5,0,0.7,0.1c0.2,0,0.4,0.1,0.6,0.2c0.1,0,0.2,0.1,0.4,0.2
	c0.1,0.1,0.3,0.2,0.4,0.3L29,4c-0.1,0.1-0.1,0.2-0.2,0.2s-0.2,0-0.3-0.1C28.3,4,28.2,4,28.1,3.9c-0.1,0-0.2-0.1-0.3-0.1
	c-0.1,0-0.2-0.1-0.3-0.1c-0.1,0-0.2,0-0.4,0c-0.3,0-0.5,0-0.7,0.1S26,4,25.9,4.2c-0.1,0.2-0.3,0.4-0.3,0.6c-0.1,0.2-0.1,0.5-0.1,0.8
	s0,0.6,0.1,0.8C25.7,6.6,25.9,6.9,26,7c0.2,0.2,0.3,0.3,0.6,0.4c0.2,0.1,0.5,0.1,0.7,0.1s0.3,0,0.4,0s0.3-0.1,0.4-0.1V6.5h-0.6
	c-0.1,0-0.2,0-0.2-0.1s-0.1-0.1-0.1-0.2V5.5H27.3z M32.9,5.5H35V8c-0.3,0.2-0.6,0.4-1,0.5c-0.3,0.1-0.7,0.1-1.1,0.1
	c-0.5,0-0.9-0.1-1.3-0.2c-0.4-0.2-0.7-0.4-1-0.6c-0.3-0.3-0.5-0.6-0.6-0.9c-0.2-0.4-0.2-0.8-0.2-1.2c0-0.4,0.1-0.8,0.2-1.2
	c0.1-0.4,0.3-0.7,0.6-0.9c0.3-0.3,0.6-0.5,1-0.6c0.4-0.1,0.8-0.2,1.3-0.2c0.2,0,0.5,0,0.7,0.1S34,3,34.2,3.1
	c0.2,0.1,0.3,0.2,0.5,0.2c0.1,0.1,0.3,0.2,0.4,0.3L34.7,4c-0.1,0.1-0.1,0.2-0.2,0.2c-0.1,0-0.2,0-0.3-0.1C34,4,33.9,4,33.8,3.9
	c-0.1,0-0.2-0.1-0.3-0.1s-0.2-0.1-0.3-0.1s-0.2,0-0.4,0c-0.3,0-0.5,0-0.7,0.1S31.7,4,31.6,4.2c-0.1,0.2-0.3,0.4-0.3,0.6
	c-0.1,0.2-0.1,0.5-0.1,0.8s0,0.6,0.1,0.8c0.1,0.2,0.2,0.4,0.4,0.6c0.2,0.2,0.3,0.3,0.6,0.4c0.2,0.1,0.5,0.1,0.7,0.1s0.3,0,0.4,0
	c0.1,0,0.3-0.1,0.4-0.1V6.5h-0.6c-0.1,0-0.2,0-0.2-0.1s-0.1-0.1-0.1-0.2C32.9,6.2,32.9,5.5,32.9,5.5z M37.2,3.7v1.4H39v1h-1.8v1.4
	h2.4v1h-3.8V2.7h3.8v1H37.2z M42.2,5.4c0.2,0,0.3,0,0.5-0.1c0.1,0,0.2-0.1,0.3-0.2c0,0,0.1-0.1,0.1-0.2s0.1-0.2,0.1-0.4
	c0-0.3-0.1-0.5-0.3-0.6s-0.4-0.2-0.8-0.2h-0.5v1.7H42.2z M45,8.5h-1.2c-0.2,0-0.4-0.1-0.5-0.3l-1-1.7c0-0.1-0.1-0.1-0.2-0.2
	c-0.1,0-0.1-0.1-0.2-0.1h-0.3v2.2h-1.4V2.7h1.9c0.4,0,0.8,0,1.1,0.1C43.5,2.9,43.8,3,44,3.2s0.3,0.3,0.4,0.5
	c0.1,0.2,0.1,0.4,0.1,0.7c0,0.2,0,0.4-0.1,0.5c-0.1,0.2-0.1,0.3-0.2,0.5c-0.1,0.1-0.2,0.3-0.4,0.4c-0.1,0.1-0.3,0.2-0.5,0.3
	c0.1,0,0.2,0.1,0.2,0.2c0.1,0.1,0.1,0.1,0.2,0.2L45,8.5z"/>
<path class="st3" d="M2.5,11h42c0.6,0,1,0.4,1,1v6c0,0.6-0.4,1-1,1h-42c-0.6,0-1-0.4-1-1v-6C1.5,11.4,1.9,11,2.5,11z"/>
<path class="st4" d="M2.5,11h42c0.6,0,1,0.4,1,1v6c0,0.6-0.4,1-1,1h-42c-0.6,0-1-0.4-1-1v-6C1.5,11.4,1.9,11,2.5,11z"/>
<path d="M4.5,15.4c0.2,0,0.3,0,0.5-0.1c0.1,0,0.2-0.1,0.3-0.2c0.1-0.1,0.1-0.2,0.2-0.3c0-0.1,0.1-0.2,0.1-0.4c0-0.3-0.1-0.5-0.3-0.6
	c-0.2-0.1-0.4-0.2-0.8-0.2H4v1.7h0.5V15.4z M7.4,18.5H6.2c-0.2,0-0.4-0.1-0.5-0.3l-1-1.7c0-0.1-0.1-0.1-0.2-0.2
	c-0.1,0-0.1-0.1-0.2-0.1H4v2.2H2.6v-5.8h1.9c0.4,0,0.8,0,1.1,0.1c0.3,0.1,0.5,0.2,0.7,0.4s0.3,0.3,0.4,0.5s0.1,0.4,0.1,0.7
	c0,0.2,0,0.4-0.1,0.5c-0.1,0.2-0.1,0.3-0.2,0.5c-0.1,0.1-0.2,0.3-0.4,0.4C6,15.9,5.9,16,5.7,16.1c0.1,0,0.2,0.1,0.2,0.2
	C6,16.4,6,16.4,6.1,16.5L7.4,18.5z M9.1,13.7v1.4h1.8v1H9.1v1.4h2.4v1H7.7v-5.8h3.8v1C11.5,13.7,9.1,13.7,9.1,13.7z M16.4,13.7h-1.6
	v4.8h-1.4v-4.8h-1.6v-1.1h4.6V13.7z M18.9,15.4c0.2,0,0.3,0,0.5-0.1c0.1,0,0.2-0.1,0.3-0.2c0.1-0.1,0.1-0.2,0.2-0.3
	c0-0.1,0.1-0.2,0.1-0.4c0-0.3-0.1-0.5-0.3-0.6c-0.2-0.1-0.4-0.2-0.8-0.2h-0.5v1.7h0.5V15.4z M21.7,18.5h-1.2c-0.2,0-0.4-0.1-0.5-0.3
	l-1-1.7c0-0.1-0.1-0.1-0.2-0.2c-0.1,0-0.1-0.1-0.2-0.1h-0.3v2.2H17v-5.8h1.9c0.4,0,0.8,0,1.1,0.1c0.3,0.1,0.5,0.2,0.7,0.4
	s0.3,0.3,0.4,0.5s0.1,0.4,0.1,0.7c0,0.2,0,0.4-0.1,0.5C21,15,21,15.1,20.9,15.3c-0.1,0.1-0.2,0.3-0.4,0.4c-0.1,0.1-0.3,0.2-0.5,0.3
	c0.1,0,0.2,0.1,0.2,0.2c0.1,0.1,0.1,0.1,0.2,0.2L21.7,18.5z M23.5,18.5h-1.4v-5.8h1.4V18.5z M27.3,15.5h2.1V18
	c-0.3,0.2-0.6,0.4-1,0.5c-0.3,0.1-0.7,0.1-1.1,0.1c-0.5,0-0.9-0.1-1.3-0.2c-0.4-0.2-0.7-0.4-1-0.6c-0.3-0.3-0.5-0.6-0.6-0.9
	c-0.2-0.4-0.2-0.8-0.2-1.2c0-0.4,0.1-0.8,0.2-1.2s0.3-0.7,0.6-0.9c0.3-0.3,0.6-0.5,1-0.6s0.8-0.2,1.3-0.2c0.2,0,0.5,0,0.7,0.1
	c0.2,0,0.4,0.1,0.6,0.2c0.2,0.1,0.3,0.2,0.5,0.2c0.1,0.1,0.3,0.2,0.4,0.3L29,14c-0.1,0.1-0.1,0.2-0.2,0.2s-0.2,0-0.3-0.1
	c-0.1-0.1-0.2-0.1-0.3-0.2c-0.1,0-0.2-0.1-0.3-0.1c-0.1,0-0.2-0.1-0.3-0.1c-0.1,0-0.2,0-0.4,0c-0.3,0-0.5,0-0.7,0.1S26.1,14,26,14.2
	s-0.3,0.4-0.3,0.6c-0.1,0.2-0.1,0.5-0.1,0.8s0,0.6,0.1,0.8s0.2,0.4,0.4,0.6c0.2,0.2,0.3,0.3,0.6,0.4c0.2,0.1,0.5,0.1,0.7,0.1
	s0.3,0,0.4,0s0.3-0.1,0.4-0.1v-0.9h-0.6c-0.1,0-0.2,0-0.2-0.1s-0.1-0.1-0.1-0.2C27.3,16.2,27.3,15.5,27.3,15.5z M32.9,15.5H35V18
	c-0.3,0.2-0.6,0.4-1,0.5c-0.3,0.1-0.7,0.1-1.1,0.1c-0.5,0-0.9-0.1-1.3-0.2c-0.4-0.2-0.7-0.4-1-0.6c-0.3-0.3-0.5-0.6-0.6-0.9
	c-0.2-0.4-0.2-0.8-0.2-1.2c0-0.4,0.1-0.8,0.2-1.2s0.3-0.7,0.6-0.9c0.3-0.3,0.6-0.5,1-0.6c0.4-0.1,0.8-0.2,1.3-0.2
	c0.2,0,0.5,0,0.7,0.1s0.4,0.1,0.6,0.2c0.2,0.1,0.3,0.2,0.5,0.2s0.3,0.2,0.4,0.3L34.7,14c-0.1,0.1-0.1,0.2-0.2,0.2
	c-0.1,0-0.2,0-0.3-0.1C34,14,33.9,14,33.8,13.9c-0.1,0-0.2-0.1-0.3-0.1s-0.2-0.1-0.3-0.1s-0.2,0-0.4,0c-0.3,0-0.5,0-0.7,0.1
	s-0.4,0.2-0.5,0.4s-0.3,0.4-0.3,0.6c-0.1,0.2-0.1,0.5-0.1,0.8s0,0.6,0.1,0.8s0.2,0.4,0.4,0.6c0.2,0.2,0.3,0.3,0.6,0.4
	c0.2,0.1,0.5,0.1,0.7,0.1s0.3,0,0.4,0c0.1,0,0.3-0.1,0.4-0.1v-0.9h-0.6c-0.1,0-0.2,0-0.2-0.1s-0.1-0.1-0.1-0.2
	C32.9,16.2,32.9,15.5,32.9,15.5z M37.2,13.7v1.4H39v1h-1.8v1.4h2.4v1h-3.8v-5.8h3.8v1C39.6,13.7,37.2,13.7,37.2,13.7z M42.2,15.4
	c0.2,0,0.3,0,0.5-0.1c0.1,0,0.2-0.1,0.3-0.2c0.1-0.1,0.1-0.2,0.2-0.3c0-0.1,0.1-0.2,0.1-0.4c0-0.3-0.1-0.5-0.3-0.6s-0.4-0.2-0.8-0.2
	h-0.5v1.7h0.5V15.4z M45,18.5h-1.2c-0.2,0-0.4-0.1-0.5-0.3l-1-1.7c0-0.1-0.1-0.1-0.2-0.2c-0.1,0-0.1-0.1-0.2-0.1h-0.3v2.2h-1.4v-5.8
	h1.9c0.4,0,0.8,0,1.1,0.1s0.5,0.2,0.7,0.4s0.3,0.3,0.4,0.5c0.1,0.2,0.1,0.4,0.1,0.7c0,0.2,0,0.4-0.1,0.5c-0.1,0.2-0.1,0.3-0.2,0.5
	c-0.1,0.1-0.2,0.3-0.4,0.4c-0.1,0.1-0.3,0.2-0.5,0.3c0.1,0,0.2,0.1,0.2,0.2c0.1,0.1,0.1,0.1,0.2,0.2L45,18.5z"/>
</svg>
