<?xml version="1.0" encoding="utf-8"?>
<!-- Generator: Adobe Illustrator 23.0.0, SVG Export Plug-In . SVG Version: 6.00 Build 0)  -->
<svg version="1.1" id="Layer_1" xmlns="http://www.w3.org/2000/svg" xmlns:xlink="http://www.w3.org/1999/xlink" x="0px" y="0px"
	 viewBox="0 0 133 18" style="enable-background:new 0 0 133 18;" xml:space="preserve">
<style type="text/css">
	.st0{fill:#399DFF;}
	.st1{fill:none;stroke:#399DFF;}
	.st2{fill:#FFFFFF;}
</style>
<g>
	<path class="st0" d="M5,16c-1.4,0-2.5-1.1-2.5-2.5v-9C2.5,3.1,3.6,2,5,2h122c1.4,0,2.5,1.1,2.5,2.5v9c0,1.4-1.1,2.5-2.5,2.5H5z"/>
	<path class="st0" d="M127,3.5c0.6,0,1,0.4,1,1v9c0,0.6-0.4,1-1,1H5c-0.6,0-1-0.4-1-1v-9c0-0.6,0.4-1,1-1H127 M127,0.5H5
		c-2.2,0-4,1.8-4,4v9c0,2.2,1.8,4,4,4h122c2.2,0,4-1.8,4-4v-9C131,2.3,129.2,0.5,127,0.5L127,0.5z"/>
</g>
<path class="st1" d="M5,3.5h122c0.6,0,1,0.4,1,1v9c0,0.6-0.4,1-1,1H5c-0.6,0-1-0.4-1-1v-9C4,3.9,4.4,3.5,5,3.5z"/>
<path class="st2" d="M123.5,11L121,8h5L123.5,11z"/>
</svg>
