<?xml version="1.0" encoding="utf-8"?>
<!-- Generator: Adobe Illustrator 23.0.0, SVG Export Plug-In . SVG Version: 6.00 Build 0)  -->
<svg version="1.1" id="Layer_1" xmlns="http://www.w3.org/2000/svg" xmlns:xlink="http://www.w3.org/1999/xlink" x="0px" y="0px"
	 viewBox="0 0 18 22" style="enable-background:new 0 0 18 22;" xml:space="preserve">
<style type="text/css">
	.st0{fill:#399DFF;}
	.st1{fill:none;stroke:#399DFF;}
	.st2{fill:#FFFFFF;}
	.st3{fill:#FF9300;}
	.st4{fill:none;stroke:#FF9300;}
</style>
<path class="st0" d="M2.5,1.5h13c0.6,0,1,0.4,1,1v6c0,0.6-0.4,1-1,1h-13c-0.6,0-1-0.4-1-1v-6C1.5,1.9,1.9,1.5,2.5,1.5z"/>
<path class="st1" d="M2.5,1.5h13c0.6,0,1,0.4,1,1v6c0,0.6-0.4,1-1,1h-13c-0.6,0-1-0.4-1-1v-6C1.5,1.9,1.9,1.5,2.5,1.5z"/>
<path class="st2" d="M10.4,3.9c0,0.1-0.1,0.1-0.1,0.1c0,0-0.1,0-0.1,0c-0.1,0-0.1,0-0.2,0C9.9,4,9.8,4,9.7,3.9
	c-0.1,0-0.2-0.1-0.3-0.1c-0.1,0-0.2-0.1-0.3-0.1c-0.2,0-0.4,0-0.5,0.1C8.5,4,8.5,4.1,8.5,4.3c0,0.1,0,0.2,0.1,0.3
	c0.1,0.1,0.2,0.1,0.3,0.2c0.1,0,0.2,0.1,0.4,0.1C9.3,4.9,9.5,5,9.6,5c0.1,0,0.3,0.1,0.4,0.2c0.1,0.1,0.3,0.2,0.4,0.3
	c0.1,0.1,0.2,0.2,0.3,0.4c0.1,0.1,0.1,0.3,0.1,0.5c0,0.2,0,0.5-0.1,0.7s-0.2,0.4-0.4,0.5c-0.2,0.2-0.3,0.3-0.6,0.4
	C9.5,8,9.2,8.1,8.9,8.1c-0.2,0-0.3,0-0.5,0C8.3,8,8.1,7.9,7.9,7.9C7.8,7.8,7.6,7.7,7.5,7.7C7.4,7.6,7.3,7.5,7.2,7.4l0.3-0.6
	c0,0,0.1-0.1,0.1-0.1c0,0,0.1,0,0.2,0c0.1,0,0.1,0,0.2,0.1c0.1,0,0.2,0.1,0.2,0.1C8.3,7,8.4,7,8.5,7.1c0.1,0,0.3,0.1,0.4,0.1
	c0.2,0,0.4,0,0.5-0.1c0.1-0.1,0.2-0.2,0.2-0.5c0-0.1,0-0.2-0.1-0.3C9.5,6.2,9.4,6.1,9.3,6.1C9.2,6,9,6,8.9,5.9
	c-0.1,0-0.3-0.1-0.4-0.1c-0.1,0-0.3-0.1-0.4-0.2C7.9,5.6,7.8,5.5,7.7,5.4C7.6,5.3,7.5,5.1,7.5,5C7.4,4.8,7.4,4.6,7.4,4.4
	c0-0.2,0-0.4,0.1-0.6c0.1-0.2,0.2-0.3,0.3-0.5C8,3.2,8.1,3.1,8.4,3c0.2-0.1,0.5-0.1,0.7-0.1c0.2,0,0.3,0,0.5,0C9.7,2.9,9.9,2.9,10,3
	c0.1,0,0.3,0.1,0.4,0.2c0.1,0.1,0.2,0.1,0.3,0.2L10.4,3.9z"/>
<path class="st3" d="M2.5,12.5h13c0.6,0,1,0.4,1,1v6c0,0.6-0.4,1-1,1h-13c-0.6,0-1-0.4-1-1v-6C1.5,12.9,1.9,12.5,2.5,12.5z"/>
<path class="st4" d="M2.5,12.5h13c0.6,0,1,0.4,1,1v6c0,0.6-0.4,1-1,1h-13c-0.6,0-1-0.4-1-1v-6C1.5,12.9,1.9,12.5,2.5,12.5z"/>
<path d="M10.4,14.9c0,0.1-0.1,0.1-0.1,0.1c0,0-0.1,0-0.1,0c-0.1,0-0.1,0-0.2,0c-0.1,0-0.1-0.1-0.2-0.1c-0.1,0-0.2-0.1-0.3-0.1
	c-0.1,0-0.2-0.1-0.3-0.1c-0.2,0-0.4,0-0.5,0.1c-0.1,0.1-0.2,0.2-0.2,0.4c0,0.1,0,0.2,0.1,0.3c0.1,0.1,0.2,0.1,0.3,0.2
	c0.1,0,0.2,0.1,0.4,0.1c0.1,0,0.3,0.1,0.4,0.1c0.1,0,0.3,0.1,0.4,0.2c0.1,0.1,0.3,0.2,0.4,0.3c0.1,0.1,0.2,0.2,0.3,0.4
	c0.1,0.1,0.1,0.3,0.1,0.5c0,0.2,0,0.5-0.1,0.7c-0.1,0.2-0.2,0.4-0.4,0.5c-0.2,0.2-0.3,0.3-0.6,0.4c-0.2,0.1-0.5,0.1-0.8,0.1
	c-0.2,0-0.3,0-0.5,0c-0.2,0-0.3-0.1-0.5-0.1c-0.2-0.1-0.3-0.1-0.4-0.2c-0.1-0.1-0.3-0.2-0.4-0.3l0.3-0.6c0,0,0.1-0.1,0.1-0.1
	c0,0,0.1,0,0.2,0c0.1,0,0.1,0,0.2,0.1c0.1,0,0.2,0.1,0.2,0.1C8.3,18,8.4,18,8.5,18.1c0.1,0,0.3,0.1,0.4,0.1c0.2,0,0.4,0,0.5-0.1
	c0.1-0.1,0.2-0.2,0.2-0.5c0-0.1,0-0.2-0.1-0.3c-0.1-0.1-0.2-0.1-0.3-0.2C9.2,17,9,17,8.9,16.9c-0.1,0-0.3-0.1-0.4-0.1
	c-0.1,0-0.3-0.1-0.4-0.2c-0.1-0.1-0.3-0.2-0.4-0.3c-0.1-0.1-0.2-0.2-0.3-0.4c-0.1-0.2-0.1-0.4-0.1-0.6c0-0.2,0-0.4,0.1-0.6
	s0.2-0.3,0.3-0.5C8,14.2,8.1,14.1,8.4,14c0.2-0.1,0.5-0.1,0.7-0.1c0.2,0,0.3,0,0.5,0c0.1,0,0.3,0.1,0.4,0.1c0.1,0,0.3,0.1,0.4,0.2
	c0.1,0.1,0.2,0.1,0.3,0.2L10.4,14.9z"/>
</svg>
