<?xml version="1.0" encoding="utf-8"?>
<!-- Generator: Adobe Illustrator 23.0.0, SVG Export Plug-In . SVG Version: 6.00 Build 0)  -->
<svg version="1.1" id="Layer_1" xmlns="http://www.w3.org/2000/svg" xmlns:xlink="http://www.w3.org/1999/xlink" x="0px" y="0px"
	 viewBox="0 0 56 48" style="enable-background:new 0 0 56 48;" xml:space="preserve">
<style type="text/css">
	.st0{fill:#9FA9B3;}
	.st1{fill:#1F1F1F;}
	.st2{fill:#8BCC56;}
</style>
<path class="st0" d="M11.5,14c3,0,5.5-2.5,5.5-5.5S14.5,3,11.5,3S6,5.5,6,8.5S8.5,14,11.5,14z"/>
<path class="st1" d="M11,7.5v2c0,0.3,0.2,0.5,0.5,0.5S12,9.8,12,9.5v-2C12,7.2,11.8,7,11.5,7S11,7.2,11,7.5z"/>
<path class="st0" d="M11.5,38c3,0,5.5-2.5,5.5-5.5S14.5,27,11.5,27S6,29.5,6,32.5S8.5,38,11.5,38z"/>
<path class="st1" d="M11,31.5v2c0,0.3,0.2,0.5,0.5,0.5s0.5-0.2,0.5-0.5v-2c0-0.3-0.2-0.5-0.5-0.5S11,31.2,11,31.5z"/>
<path class="st2" d="M39.5,14c3,0,5.5-2.5,5.5-5.5S42.5,3,39.5,3S34,5.5,34,8.5S36.5,14,39.5,14z"/>
<path class="st1" d="M39,7.5v2c0,0.3,0.2,0.5,0.5,0.5S40,9.8,40,9.5v-2C40,7.2,39.8,7,39.5,7S39,7.2,39,7.5z"/>
<path class="st2" d="M39.5,38c3,0,5.5-2.5,5.5-5.5S42.5,27,39.5,27S34,29.5,34,32.5S36.5,38,39.5,38z"/>
<path class="st1" d="M39,31.5v2c0,0.3,0.2,0.5,0.5,0.5s0.5-0.2,0.5-0.5v-2c0-0.3-0.2-0.5-0.5-0.5S39,31.2,39,31.5z"/>
</svg>
