<?xml version="1.0" encoding="utf-8"?>
<!-- Generator: Adobe Illustrator 23.0.0, SVG Export Plug-In . SVG Version: 6.00 Build 0)  -->
<svg version="1.1" id="Layer_1" xmlns="http://www.w3.org/2000/svg" xmlns:xlink="http://www.w3.org/1999/xlink" x="0px" y="0px"
	 viewBox="0 0 28 24" style="enable-background:new 0 0 28 24;" xml:space="preserve">
<style type="text/css">
	.st0{fill:#FF9000;}
	.st1{fill:#EEEEEE;}
	.st2{fill:#FFFFFF;fill-opacity:0.2;}
	.st3{fill:#1F1F1F;}
</style>
<path class="st0" d="M11.5,14c3,0,5.5-2.5,5.5-5.5c0-3-2.5-5.5-5.5-5.5C8.5,3,6,5.5,6,8.5C6,11.5,8.5,14,11.5,14z"/>
<path class="st1" d="M14.5,8.5c0,1.7-1.3,3-3,3c-1.7,0-3-1.3-3-3c0-1.7,1.3-3,3-3C13.2,5.5,14.5,6.8,14.5,8.5z"/>
<path class="st2" d="M11,7.8v2c0,0.3,0.2,0.5,0.5,0.5S12,10,12,9.8v-2c0-0.3-0.2-0.5-0.5-0.5S11,7.5,11,7.8z"/>
<path class="st3" d="M11,7.5v2c0,0.3,0.2,0.5,0.5,0.5S12,9.8,12,9.5v-2C12,7.2,11.8,7,11.5,7S11,7.2,11,7.5z"/>
</svg>
