<?xml version="1.0" encoding="utf-8"?>
<!-- Generator: Adobe Illustrator 23.0.0, SVG Export Plug-In . SVG Version: 6.00 Build 0)  -->
<svg version="1.1" id="Layer_1" xmlns="http://www.w3.org/2000/svg" xmlns:xlink="http://www.w3.org/1999/xlink" x="0px" y="0px"
	 viewBox="0 0 56 48" style="enable-background:new 0 0 56 48;" xml:space="preserve">
<style type="text/css">
	.st0{opacity:0.3;fill:url(#SVGID_1_);enable-background:new    ;}
	.st1{fill:#0F74DB;}
	.st2{fill:#FFFFFF;}
	.st3{opacity:0.3;fill:url(#SVGID_2_);enable-background:new    ;}
	.st4{opacity:0.3;fill:url(#SVGID_3_);enable-background:new    ;}
	.st5{fill:#8BCC56;}
	.st6{opacity:0.3;fill:url(#SVGID_4_);enable-background:new    ;}
</style>
<linearGradient id="SVGID_1_" gradientUnits="userSpaceOnUse" x1="11.5" y1="50" x2="11.5" y2="33" gradientTransform="matrix(1 0 0 -1 0 50)">
	<stop  offset="0" style="stop-color:#2E86FE"/>
	<stop  offset="1" style="stop-color:#005CB6"/>
</linearGradient>
<path class="st0" d="M11.5,17c4.7,0,8.5-3.8,8.5-8.5C20,3.8,16.2,0,11.5,0C6.8,0,3,3.8,3,8.5C3,13.2,6.8,17,11.5,17z"/>
<path class="st1" d="M11.5,14c3,0,5.5-2.5,5.5-5.5c0-3-2.5-5.5-5.5-5.5C8.5,3,6,5.5,6,8.5C6,11.5,8.5,14,11.5,14z"/>
<path class="st2" d="M11,7.5v2c0,0.3,0.2,0.5,0.5,0.5S12,9.8,12,9.5v-2C12,7.2,11.8,7,11.5,7S11,7.2,11,7.5z"/>
<linearGradient id="SVGID_2_" gradientUnits="userSpaceOnUse" x1="11.5" y1="26" x2="11.5" y2="9" gradientTransform="matrix(1 0 0 -1 0 50)">
	<stop  offset="0" style="stop-color:#2E86FE"/>
	<stop  offset="1" style="stop-color:#005CB6"/>
</linearGradient>
<path class="st3" d="M11.5,41c4.7,0,8.5-3.8,8.5-8.5S16.2,24,11.5,24C6.8,24,3,27.8,3,32.5S6.8,41,11.5,41z"/>
<path class="st1" d="M11.5,38c3,0,5.5-2.5,5.5-5.5S14.5,27,11.5,27c-3,0-5.5,2.5-5.5,5.5S8.5,38,11.5,38z"/>
<path class="st2" d="M11,31.5v2c0,0.3,0.2,0.5,0.5,0.5s0.5-0.2,0.5-0.5v-2c0-0.3-0.2-0.5-0.5-0.5S11,31.2,11,31.5z"/>
<linearGradient id="SVGID_3_" gradientUnits="userSpaceOnUse" x1="39.5" y1="50" x2="39.5" y2="33" gradientTransform="matrix(1 0 0 -1 0 50)">
	<stop  offset="0" style="stop-color:#8BCC56"/>
	<stop  offset="1" style="stop-color:#71A646"/>
</linearGradient>
<path class="st4" d="M39.5,17c4.7,0,8.5-3.8,8.5-8.5C48,3.8,44.2,0,39.5,0S31,3.8,31,8.5C31,13.2,34.8,17,39.5,17z"/>
<path class="st5" d="M39.5,14c3,0,5.5-2.5,5.5-5.5c0-3-2.5-5.5-5.5-5.5S34,5.5,34,8.5C34,11.5,36.5,14,39.5,14z"/>
<path class="st2" d="M39,7.5v2c0,0.3,0.2,0.5,0.5,0.5S40,9.8,40,9.5v-2C40,7.2,39.8,7,39.5,7S39,7.2,39,7.5z"/>
<linearGradient id="SVGID_4_" gradientUnits="userSpaceOnUse" x1="39.5" y1="26" x2="39.5" y2="9" gradientTransform="matrix(1 0 0 -1 0 50)">
	<stop  offset="0" style="stop-color:#8BCC56"/>
	<stop  offset="1" style="stop-color:#71A646"/>
</linearGradient>
<path class="st6" d="M39.5,41c4.7,0,8.5-3.8,8.5-8.5S44.2,24,39.5,24S31,27.8,31,32.5S34.8,41,39.5,41z"/>
<path class="st5" d="M39.5,38c3,0,5.5-2.5,5.5-5.5S42.5,27,39.5,27S34,29.5,34,32.5S36.5,38,39.5,38z"/>
<path class="st2" d="M39,31.5v2c0,0.3,0.2,0.5,0.5,0.5s0.5-0.2,0.5-0.5v-2c0-0.3-0.2-0.5-0.5-0.5S39,31.2,39,31.5z"/>
</svg>
