<?xml version="1.0" encoding="UTF-8" standalone="no"?>
<svg
   width="100%"
   height="100%"
   viewBox="0 0 34 47"
   version="1.1"
   xml:space="preserve"
   style="fill-rule:evenodd;clip-rule:evenodd;stroke-linejoin:round;stroke-miterlimit:2;"
   id="svg2"
   sodipodi:docname="bmp00183.svg"
   inkscape:version="1.4.2 (f4327f4, 2025-05-13)"
   xmlns:inkscape="http://www.inkscape.org/namespaces/inkscape"
   xmlns:sodipodi="http://sodipodi.sourceforge.net/DTD/sodipodi-0.dtd"
   xmlns="http://www.w3.org/2000/svg"
   xmlns:svg="http://www.w3.org/2000/svg"><defs
   id="defs2" /><sodipodi:namedview
   id="namedview2"
   pagecolor="#ffffff"
   bordercolor="#000000"
   borderopacity="0.25"
   inkscape:showpageshadow="2"
   inkscape:pageopacity="0.0"
   inkscape:pagecheckerboard="0"
   inkscape:deskcolor="#d1d1d1"
   inkscape:zoom="24.106383"
   inkscape:cx="16.987202"
   inkscape:cy="23.541483"
   inkscape:window-width="2560"
   inkscape:window-height="1351"
   inkscape:window-x="-9"
   inkscape:window-y="-9"
   inkscape:window-maximized="1"
   inkscape:current-layer="svg2" />
    <path
   d="M33.5,3C33.5,1.62 32.38,0.5 31,0.5L3,0.5C1.62,0.5 0.5,1.62 0.5,3L0.5,44C0.5,45.38 1.62,46.5 3,46.5L31,46.5C32.38,46.5 33.5,45.38 33.5,44L33.5,3Z"
   style="fill:rgb(36,36,36);"
   id="path1" />
    <g
   transform="matrix(1.03125,0,0,1.04167,-0.53125,-0.541667)"
   id="g2">
        <path
   d="M31,1L3,1C1.895,1 1,1.895 1,3L1,13L33,13L33,3C33,1.895 32.105,1 31,1Z"
   style="fill:#363636;fill-opacity:0.96378267;fill-rule:nonzero;opacity:1"
   id="path2" />
    </g>
</svg>
