<?xml version="1.0" encoding="UTF-8" standalone="no"?>
<!DOCTYPE svg PUBLIC "-//W3C//DTD SVG 1.1//EN" "http://www.w3.org/Graphics/SVG/1.1/DTD/svg11.dtd">
<svg width="100%" height="100%" viewBox="0 0 49 28" version="1.1" xmlns="http://www.w3.org/2000/svg" xmlns:xlink="http://www.w3.org/1999/xlink" xml:space="preserve" xmlns:serif="http://www.serif.com/" style="fill-rule:evenodd;clip-rule:evenodd;">
    <path d="M0.5,2.5C0.5,1.395 1.395,0.5 2.5,0.5L46.5,0.5C47.605,0.5 48.5,1.395 48.5,2.5L48.5,11.5C48.5,12.605 47.605,13.5 46.5,13.5L2.5,13.5C1.395,13.5 0.5,12.605 0.5,11.5L0.5,2.5Z" style="fill:rgb(36,36,36);fill-rule:nonzero;"/>
    <path d="M16.73,4.172L14.394,10L13.17,10L10.834,4.172L11.922,4.172C12.04,4.172 12.134,4.2 12.206,4.256C12.278,4.309 12.333,4.379 12.37,4.464L13.498,7.584C13.552,7.72 13.604,7.869 13.654,8.032C13.705,8.192 13.753,8.36 13.798,8.536C13.836,8.36 13.877,8.192 13.922,8.032C13.97,7.869 14.021,7.72 14.074,7.584L15.194,4.464C15.224,4.389 15.275,4.323 15.35,4.264C15.428,4.203 15.522,4.172 15.634,4.172L16.73,4.172ZM18.834,7.428C18.834,7.329 18.82,7.233 18.794,7.14C18.77,7.047 18.728,6.964 18.67,6.892C18.614,6.817 18.539,6.757 18.446,6.712C18.352,6.667 18.239,6.644 18.106,6.644C17.871,6.644 17.687,6.712 17.554,6.848C17.42,6.981 17.332,7.175 17.29,7.428L18.834,7.428ZM17.274,8.148C17.314,8.495 17.419,8.747 17.59,8.904C17.76,9.059 17.98,9.136 18.25,9.136C18.394,9.136 18.518,9.119 18.622,9.084C18.726,9.049 18.818,9.011 18.898,8.968C18.98,8.925 19.055,8.887 19.122,8.852C19.191,8.817 19.263,8.8 19.338,8.8C19.436,8.8 19.511,8.836 19.562,8.908L19.922,9.352C19.794,9.499 19.655,9.619 19.506,9.712C19.359,9.803 19.207,9.875 19.05,9.928C18.895,9.979 18.739,10.013 18.582,10.032C18.427,10.053 18.279,10.064 18.138,10.064C17.847,10.064 17.574,10.017 17.318,9.924C17.064,9.828 16.842,9.687 16.65,9.5C16.46,9.313 16.31,9.081 16.198,8.804C16.088,8.527 16.034,8.204 16.034,7.836C16.034,7.559 16.08,7.296 16.174,7.048C16.27,6.8 16.406,6.583 16.582,6.396C16.76,6.209 16.975,6.061 17.226,5.952C17.479,5.843 17.764,5.788 18.082,5.788C18.356,5.788 18.607,5.831 18.834,5.916C19.063,6.001 19.259,6.125 19.422,6.288C19.587,6.451 19.715,6.651 19.806,6.888C19.899,7.123 19.946,7.389 19.946,7.688C19.946,7.781 19.942,7.857 19.934,7.916C19.926,7.975 19.911,8.021 19.89,8.056C19.868,8.091 19.839,8.115 19.802,8.128C19.767,8.141 19.722,8.148 19.666,8.148L17.274,8.148ZM21.606,6.492C21.734,6.268 21.881,6.092 22.046,5.964C22.214,5.836 22.406,5.772 22.622,5.772C22.809,5.772 22.961,5.816 23.078,5.904L22.998,6.816C22.985,6.875 22.962,6.915 22.93,6.936C22.901,6.957 22.86,6.968 22.806,6.968C22.785,6.968 22.757,6.967 22.722,6.964C22.688,6.961 22.652,6.959 22.614,6.956C22.577,6.951 22.538,6.947 22.498,6.944C22.461,6.939 22.426,6.936 22.394,6.936C22.213,6.936 22.068,6.984 21.958,7.08C21.852,7.176 21.761,7.309 21.686,7.48L21.686,10L20.446,10L20.446,5.852L21.182,5.852C21.244,5.852 21.294,5.857 21.334,5.868C21.377,5.879 21.412,5.896 21.438,5.92C21.468,5.941 21.489,5.971 21.502,6.008C21.518,6.045 21.532,6.091 21.542,6.144L21.606,6.492ZM27.865,10L26.625,10L26.625,6.708L24.889,6.708L24.889,8.768C24.889,8.864 24.912,8.944 24.957,9.008C25.005,9.069 25.073,9.1 25.161,9.1C25.206,9.1 25.244,9.096 25.273,9.088C25.305,9.077 25.332,9.067 25.353,9.056C25.377,9.043 25.398,9.032 25.417,9.024C25.438,9.013 25.462,9.008 25.489,9.008C25.526,9.008 25.556,9.017 25.577,9.036C25.601,9.052 25.625,9.079 25.649,9.116L26.025,9.704C25.865,9.824 25.685,9.915 25.485,9.976C25.285,10.035 25.078,10.064 24.865,10.064C24.668,10.064 24.493,10.036 24.341,9.98C24.192,9.921 24.065,9.84 23.961,9.736C23.86,9.629 23.782,9.501 23.729,9.352C23.676,9.203 23.649,9.036 23.649,8.852L23.649,6.708L23.297,6.708C23.233,6.708 23.178,6.688 23.133,6.648C23.088,6.605 23.065,6.544 23.065,6.464L23.065,5.98L23.725,5.848L23.969,4.84C24.001,4.712 24.092,4.648 24.241,4.648L24.889,4.648L24.889,5.86L27.865,5.86L27.865,10ZM28.037,4.712C28.037,4.811 28.017,4.904 27.977,4.992C27.937,5.08 27.882,5.157 27.813,5.224C27.744,5.288 27.662,5.339 27.569,5.376C27.478,5.413 27.381,5.432 27.277,5.432C27.176,5.432 27.081,5.413 26.993,5.376C26.905,5.339 26.826,5.288 26.757,5.224C26.69,5.157 26.637,5.08 26.597,4.992C26.56,4.904 26.541,4.811 26.541,4.712C26.541,4.613 26.56,4.52 26.597,4.432C26.637,4.341 26.69,4.264 26.757,4.2C26.826,4.133 26.905,4.081 26.993,4.044C27.081,4.004 27.176,3.984 27.277,3.984C27.381,3.984 27.478,4.004 27.569,4.044C27.662,4.081 27.744,4.133 27.813,4.2C27.882,4.264 27.937,4.341 27.977,4.432C28.017,4.52 28.037,4.613 28.037,4.712ZM31.661,6.836C31.623,6.881 31.587,6.917 31.552,6.944C31.518,6.971 31.468,6.984 31.404,6.984C31.343,6.984 31.287,6.969 31.237,6.94C31.189,6.911 31.134,6.879 31.073,6.844C31.011,6.807 30.939,6.773 30.857,6.744C30.774,6.715 30.671,6.7 30.549,6.7C30.397,6.7 30.265,6.728 30.153,6.784C30.043,6.84 29.953,6.92 29.881,7.024C29.808,7.128 29.755,7.256 29.721,7.408C29.686,7.557 29.669,7.727 29.669,7.916C29.669,8.313 29.744,8.619 29.897,8.832C30.051,9.045 30.263,9.152 30.533,9.152C30.677,9.152 30.79,9.135 30.872,9.1C30.958,9.063 31.03,9.023 31.089,8.98C31.147,8.935 31.201,8.893 31.249,8.856C31.299,8.819 31.362,8.8 31.436,8.8C31.535,8.8 31.61,8.836 31.661,8.908L32.02,9.352C31.892,9.499 31.758,9.619 31.616,9.712C31.475,9.803 31.33,9.875 31.18,9.928C31.034,9.979 30.886,10.013 30.737,10.032C30.587,10.053 30.442,10.064 30.301,10.064C30.047,10.064 29.805,10.016 29.573,9.92C29.343,9.824 29.141,9.685 28.965,9.504C28.791,9.32 28.653,9.095 28.549,8.828C28.447,8.561 28.397,8.257 28.397,7.916C28.397,7.617 28.441,7.339 28.529,7.08C28.619,6.819 28.751,6.593 28.924,6.404C29.101,6.212 29.317,6.061 29.573,5.952C29.831,5.843 30.13,5.788 30.468,5.788C30.794,5.788 31.079,5.84 31.325,5.944C31.57,6.048 31.791,6.2 31.988,6.4L31.661,6.836ZM34.523,8.312C34.275,8.323 34.071,8.344 33.911,8.376C33.751,8.408 33.625,8.448 33.531,8.496C33.438,8.544 33.373,8.599 33.335,8.66C33.301,8.721 33.283,8.788 33.283,8.86C33.283,9.001 33.322,9.101 33.399,9.16C33.477,9.216 33.59,9.244 33.739,9.244C33.899,9.244 34.039,9.216 34.159,9.16C34.279,9.104 34.401,9.013 34.523,8.888L34.523,8.312ZM32.291,6.428C32.542,6.207 32.819,6.043 33.123,5.936C33.43,5.827 33.758,5.772 34.107,5.772C34.358,5.772 34.583,5.813 34.783,5.896C34.986,5.976 35.157,6.089 35.295,6.236C35.437,6.38 35.545,6.552 35.619,6.752C35.694,6.952 35.731,7.171 35.731,7.408L35.731,10L35.163,10C35.046,10 34.957,9.984 34.895,9.952C34.837,9.92 34.787,9.853 34.747,9.752L34.659,9.524C34.555,9.612 34.455,9.689 34.359,9.756C34.263,9.823 34.163,9.88 34.059,9.928C33.958,9.973 33.849,10.007 33.731,10.028C33.617,10.052 33.489,10.064 33.347,10.064C33.158,10.064 32.986,10.04 32.831,9.992C32.676,9.941 32.545,9.868 32.435,9.772C32.328,9.676 32.246,9.557 32.187,9.416C32.129,9.272 32.099,9.107 32.099,8.92C32.099,8.771 32.136,8.62 32.211,8.468C32.286,8.313 32.415,8.173 32.599,8.048C32.783,7.92 33.031,7.813 33.343,7.728C33.655,7.643 34.049,7.595 34.523,7.584L34.523,7.408C34.523,7.165 34.472,6.991 34.371,6.884C34.273,6.775 34.131,6.72 33.947,6.72C33.801,6.72 33.681,6.736 33.587,6.768C33.494,6.8 33.41,6.836 33.335,6.876C33.263,6.916 33.193,6.952 33.123,6.984C33.054,7.016 32.971,7.032 32.875,7.032C32.79,7.032 32.718,7.011 32.659,6.968C32.6,6.925 32.553,6.875 32.515,6.816L32.291,6.428ZM37.644,4.012L37.644,10L36.404,10L36.404,4.012L37.644,4.012Z" style="fill:rgb(180,180,180);fill-rule:nonzero;"/>
    <path d="M2.5,1L46.5,1L46.5,0L2.5,0L2.5,1ZM48,2.5L48,11.5L49,11.5L49,2.5L48,2.5ZM46.5,13L2.5,13L2.5,14L46.5,14L46.5,13ZM1,11.5L1,2.5L0,2.5L0,11.5L1,11.5ZM2.5,13C1.672,13 1,12.328 1,11.5L0,11.5C0,12.881 1.119,14 2.5,14L2.5,13ZM48,11.5C48,12.328 47.328,13 46.5,13L46.5,14C47.881,14 49,12.881 49,11.5L48,11.5ZM46.5,1C47.328,1 48,1.672 48,2.5L49,2.5C49,1.119 47.881,0 46.5,0L46.5,1ZM2.5,0C1.119,0 0,1.119 0,2.5L1,2.5C1,1.672 1.672,1 2.5,1L2.5,0Z" style="fill-rule:nonzero;"/>
    <path d="M0.5,16.5C0.5,15.395 1.395,14.5 2.5,14.5L46.5,14.5C47.605,14.5 48.5,15.395 48.5,16.5L48.5,25.5C48.5,26.605 47.605,27.5 46.5,27.5L2.5,27.5C1.395,27.5 0.5,26.605 0.5,25.5L0.5,16.5Z" style="fill:rgb(36,36,36);fill-rule:nonzero;"/>
    <path d="M46.5,17.5C46.5,16.948 46.052,16.5 45.5,16.5L3.5,16.5C2.948,16.5 2.5,16.948 2.5,17.5L2.5,24.5C2.5,25.052 2.948,25.5 3.5,25.5L45.5,25.5C46.052,25.5 46.5,25.052 46.5,24.5L46.5,17.5Z" style="fill:rgb(139,191,64);"/>
    <path d="M46.5,17.5C46.5,16.948 46.052,16.5 45.5,16.5L3.5,16.5C2.948,16.5 2.5,16.948 2.5,17.5L2.5,24.5C2.5,25.052 2.948,25.5 3.5,25.5L45.5,25.5C46.052,25.5 46.5,25.052 46.5,24.5L46.5,17.5Z" style="fill:none;stroke:rgb(139,191,64);stroke-width:1px;"/>
    <path d="M16.73,18.172L14.394,24L13.17,24L10.834,18.172L11.922,18.172C12.04,18.172 12.134,18.2 12.206,18.256C12.278,18.309 12.333,18.379 12.37,18.464L13.498,21.584C13.552,21.72 13.604,21.869 13.654,22.032C13.705,22.192 13.753,22.36 13.798,22.536C13.836,22.36 13.877,22.192 13.922,22.032C13.97,21.869 14.021,21.72 14.074,21.584L15.194,18.464C15.224,18.389 15.275,18.323 15.35,18.264C15.428,18.203 15.522,18.172 15.634,18.172L16.73,18.172ZM18.834,21.428C18.834,21.329 18.82,21.233 18.794,21.14C18.77,21.047 18.728,20.964 18.67,20.892C18.614,20.817 18.539,20.757 18.446,20.712C18.352,20.667 18.239,20.644 18.106,20.644C17.871,20.644 17.687,20.712 17.554,20.848C17.42,20.981 17.332,21.175 17.29,21.428L18.834,21.428ZM17.274,22.148C17.314,22.495 17.419,22.747 17.59,22.904C17.76,23.059 17.98,23.136 18.25,23.136C18.394,23.136 18.518,23.119 18.622,23.084C18.726,23.049 18.818,23.011 18.898,22.968C18.98,22.925 19.055,22.887 19.122,22.852C19.191,22.817 19.263,22.8 19.338,22.8C19.436,22.8 19.511,22.836 19.562,22.908L19.922,23.352C19.794,23.499 19.655,23.619 19.506,23.712C19.359,23.803 19.207,23.875 19.05,23.928C18.895,23.979 18.739,24.013 18.582,24.032C18.427,24.053 18.279,24.064 18.138,24.064C17.847,24.064 17.574,24.017 17.318,23.924C17.064,23.828 16.842,23.687 16.65,23.5C16.46,23.313 16.31,23.081 16.198,22.804C16.088,22.527 16.034,22.204 16.034,21.836C16.034,21.559 16.08,21.296 16.174,21.048C16.27,20.8 16.406,20.583 16.582,20.396C16.76,20.209 16.975,20.061 17.226,19.952C17.479,19.843 17.764,19.788 18.082,19.788C18.356,19.788 18.607,19.831 18.834,19.916C19.063,20.001 19.259,20.125 19.422,20.288C19.587,20.451 19.715,20.651 19.806,20.888C19.899,21.123 19.946,21.389 19.946,21.688C19.946,21.781 19.942,21.857 19.934,21.916C19.926,21.975 19.911,22.021 19.89,22.056C19.868,22.091 19.839,22.115 19.802,22.128C19.767,22.141 19.722,22.148 19.666,22.148L17.274,22.148ZM21.606,20.492C21.734,20.268 21.881,20.092 22.046,19.964C22.214,19.836 22.406,19.772 22.622,19.772C22.809,19.772 22.961,19.816 23.078,19.904L22.998,20.816C22.985,20.875 22.962,20.915 22.93,20.936C22.901,20.957 22.86,20.968 22.806,20.968C22.785,20.968 22.757,20.967 22.722,20.964C22.688,20.961 22.652,20.959 22.614,20.956C22.577,20.951 22.538,20.947 22.498,20.944C22.461,20.939 22.426,20.936 22.394,20.936C22.213,20.936 22.068,20.984 21.958,21.08C21.852,21.176 21.761,21.309 21.686,21.48L21.686,24L20.446,24L20.446,19.852L21.182,19.852C21.244,19.852 21.294,19.857 21.334,19.868C21.377,19.879 21.412,19.896 21.438,19.92C21.468,19.941 21.489,19.971 21.502,20.008C21.518,20.045 21.532,20.091 21.542,20.144L21.606,20.492ZM27.865,24L26.625,24L26.625,20.708L24.889,20.708L24.889,22.768C24.889,22.864 24.912,22.944 24.957,23.008C25.005,23.069 25.073,23.1 25.161,23.1C25.206,23.1 25.244,23.096 25.273,23.088C25.305,23.077 25.332,23.067 25.353,23.056C25.377,23.043 25.398,23.032 25.417,23.024C25.438,23.013 25.462,23.008 25.489,23.008C25.526,23.008 25.556,23.017 25.577,23.036C25.601,23.052 25.625,23.079 25.649,23.116L26.025,23.704C25.865,23.824 25.685,23.915 25.485,23.976C25.285,24.035 25.078,24.064 24.865,24.064C24.668,24.064 24.493,24.036 24.341,23.98C24.192,23.921 24.065,23.84 23.961,23.736C23.86,23.629 23.782,23.501 23.729,23.352C23.676,23.203 23.649,23.036 23.649,22.852L23.649,20.708L23.297,20.708C23.233,20.708 23.178,20.688 23.133,20.648C23.088,20.605 23.065,20.544 23.065,20.464L23.065,19.98L23.725,19.848L23.969,18.84C24.001,18.712 24.092,18.648 24.241,18.648L24.889,18.648L24.889,19.86L27.865,19.86L27.865,24ZM28.037,18.712C28.037,18.811 28.017,18.904 27.977,18.992C27.937,19.08 27.882,19.157 27.813,19.224C27.744,19.288 27.662,19.339 27.569,19.376C27.478,19.413 27.381,19.432 27.277,19.432C27.176,19.432 27.081,19.413 26.993,19.376C26.905,19.339 26.826,19.288 26.757,19.224C26.69,19.157 26.637,19.08 26.597,18.992C26.56,18.904 26.541,18.811 26.541,18.712C26.541,18.613 26.56,18.52 26.597,18.432C26.637,18.341 26.69,18.264 26.757,18.2C26.826,18.133 26.905,18.081 26.993,18.044C27.081,18.004 27.176,17.984 27.277,17.984C27.381,17.984 27.478,18.004 27.569,18.044C27.662,18.081 27.744,18.133 27.813,18.2C27.882,18.264 27.937,18.341 27.977,18.432C28.017,18.52 28.037,18.613 28.037,18.712ZM31.661,20.836C31.623,20.881 31.587,20.917 31.552,20.944C31.518,20.971 31.468,20.984 31.404,20.984C31.343,20.984 31.287,20.969 31.237,20.94C31.189,20.911 31.134,20.879 31.073,20.844C31.011,20.807 30.939,20.773 30.857,20.744C30.774,20.715 30.671,20.7 30.549,20.7C30.397,20.7 30.265,20.728 30.153,20.784C30.043,20.84 29.953,20.92 29.881,21.024C29.808,21.128 29.755,21.256 29.721,21.408C29.686,21.557 29.669,21.727 29.669,21.916C29.669,22.313 29.744,22.619 29.897,22.832C30.051,23.045 30.263,23.152 30.533,23.152C30.677,23.152 30.79,23.135 30.872,23.1C30.958,23.063 31.03,23.023 31.089,22.98C31.147,22.935 31.201,22.893 31.249,22.856C31.299,22.819 31.362,22.8 31.436,22.8C31.535,22.8 31.61,22.836 31.661,22.908L32.02,23.352C31.892,23.499 31.758,23.619 31.616,23.712C31.475,23.803 31.33,23.875 31.18,23.928C31.034,23.979 30.886,24.013 30.737,24.032C30.587,24.053 30.442,24.064 30.301,24.064C30.047,24.064 29.805,24.016 29.573,23.92C29.343,23.824 29.141,23.685 28.965,23.504C28.791,23.32 28.653,23.095 28.549,22.828C28.447,22.561 28.397,22.257 28.397,21.916C28.397,21.617 28.441,21.339 28.529,21.08C28.619,20.819 28.751,20.593 28.924,20.404C29.101,20.212 29.317,20.061 29.573,19.952C29.831,19.843 30.13,19.788 30.468,19.788C30.794,19.788 31.079,19.84 31.325,19.944C31.57,20.048 31.791,20.2 31.988,20.4L31.661,20.836ZM34.523,22.312C34.275,22.323 34.071,22.344 33.911,22.376C33.751,22.408 33.625,22.448 33.531,22.496C33.438,22.544 33.373,22.599 33.335,22.66C33.301,22.721 33.283,22.788 33.283,22.86C33.283,23.001 33.322,23.101 33.399,23.16C33.477,23.216 33.59,23.244 33.739,23.244C33.899,23.244 34.039,23.216 34.159,23.16C34.279,23.104 34.401,23.013 34.523,22.888L34.523,22.312ZM32.291,20.428C32.542,20.207 32.819,20.043 33.123,19.936C33.43,19.827 33.758,19.772 34.107,19.772C34.358,19.772 34.583,19.813 34.783,19.896C34.986,19.976 35.157,20.089 35.295,20.236C35.437,20.38 35.545,20.552 35.619,20.752C35.694,20.952 35.731,21.171 35.731,21.408L35.731,24L35.163,24C35.046,24 34.957,23.984 34.895,23.952C34.837,23.92 34.787,23.853 34.747,23.752L34.659,23.524C34.555,23.612 34.455,23.689 34.359,23.756C34.263,23.823 34.163,23.88 34.059,23.928C33.958,23.973 33.849,24.007 33.731,24.028C33.617,24.052 33.489,24.064 33.347,24.064C33.158,24.064 32.986,24.04 32.831,23.992C32.676,23.941 32.545,23.868 32.435,23.772C32.328,23.676 32.246,23.557 32.187,23.416C32.129,23.272 32.099,23.107 32.099,22.92C32.099,22.771 32.136,22.62 32.211,22.468C32.286,22.313 32.415,22.173 32.599,22.048C32.783,21.92 33.031,21.813 33.343,21.728C33.655,21.643 34.049,21.595 34.523,21.584L34.523,21.408C34.523,21.165 34.472,20.991 34.371,20.884C34.273,20.775 34.131,20.72 33.947,20.72C33.801,20.72 33.681,20.736 33.587,20.768C33.494,20.8 33.41,20.836 33.335,20.876C33.263,20.916 33.193,20.952 33.123,20.984C33.054,21.016 32.971,21.032 32.875,21.032C32.79,21.032 32.718,21.011 32.659,20.968C32.6,20.925 32.553,20.875 32.515,20.816L32.291,20.428ZM37.644,18.012L37.644,24L36.404,24L36.404,18.012L37.644,18.012Z" style="fill:white;fill-rule:nonzero;"/>
    <path d="M2.5,15L46.5,15L46.5,14L2.5,14L2.5,15ZM48,16.5L48,25.5L49,25.5L49,16.5L48,16.5ZM46.5,27L2.5,27L2.5,28L46.5,28L46.5,27ZM1,25.5L1,16.5L0,16.5L0,25.5L1,25.5ZM2.5,27C1.672,27 1,26.328 1,25.5L0,25.5C0,26.881 1.119,28 2.5,28L2.5,27ZM48,25.5C48,26.328 47.328,27 46.5,27L46.5,28C47.881,28 49,26.881 49,25.5L48,25.5ZM46.5,15C47.328,15 48,15.672 48,16.5L49,16.5C49,15.119 47.881,14 46.5,14L46.5,15ZM2.5,14C1.119,14 0,15.119 0,16.5L1,16.5C1,15.672 1.672,15 2.5,15L2.5,14Z" style="fill-rule:nonzero;"/>
</svg>
