<?xml version="1.0" encoding="UTF-8" standalone="no"?>
<!DOCTYPE svg PUBLIC "-//W3C//DTD SVG 1.1//EN" "http://www.w3.org/Graphics/SVG/1.1/DTD/svg11.dtd">
<svg width="100%" height="100%" viewBox="0 0 12 34" version="1.1" xmlns="http://www.w3.org/2000/svg" xmlns:xlink="http://www.w3.org/1999/xlink" xml:space="preserve" xmlns:serif="http://www.serif.com/" style="fill-rule:evenodd;clip-rule:evenodd;">
    <path d="M1.5,21.5C1.5,20.395 2.395,19.5 3.5,19.5L8.5,19.5C9.605,19.5 10.5,20.395 10.5,21.5L10.5,29.5C10.5,30.605 9.605,31.5 8.5,31.5L3.5,31.5C2.395,31.5 1.5,30.605 1.5,29.5L1.5,21.5Z" style="fill:rgb(36,36,36);fill-rule:nonzero;"/>
    <path d="M8.5,22C8.5,21.724 8.276,21.5 8,21.5L4,21.5C3.724,21.5 3.5,21.724 3.5,22L3.5,29C3.5,29.276 3.724,29.5 4,29.5L8,29.5C8.276,29.5 8.5,29.276 8.5,29L8.5,22Z" style="fill:rgb(139,191,64);"/>
    <path d="M8.5,22C8.5,21.724 8.276,21.5 8,21.5L4,21.5C3.724,21.5 3.5,21.724 3.5,22L3.5,29C3.5,29.276 3.724,29.5 4,29.5L8,29.5C8.276,29.5 8.5,29.276 8.5,29L8.5,22Z" style="fill:none;stroke:rgb(139,191,64);stroke-width:1px;"/>
    <path d="M3.5,20L8.5,20L8.5,19L3.5,19L3.5,20ZM10,21.5L10,29.5L11,29.5L11,21.5L10,21.5ZM8.5,31L3.5,31L3.5,32L8.5,32L8.5,31ZM2,29.5L2,21.5L1,21.5L1,29.5L2,29.5ZM3.5,31C2.672,31 2,30.328 2,29.5L1,29.5C1,30.881 2.119,32 3.5,32L3.5,31ZM10,29.5C10,30.328 9.328,31 8.5,31L8.5,32C9.881,32 11,30.881 11,29.5L10,29.5ZM8.5,20C9.328,20 10,20.672 10,21.5L11,21.5C11,20.119 9.881,19 8.5,19L8.5,20ZM3.5,19C2.119,19 1,20.119 1,21.5L2,21.5C2,20.672 2.672,20 3.5,20L3.5,19Z" style="fill-rule:nonzero;"/>
    <path d="M6.5,28L5.5,28L5.5,26L3.5,26L3.5,25L5.5,25L5.5,23L6.5,23L6.5,25L8.5,25L8.5,26L6.5,26L6.5,28Z" style="fill-rule:nonzero;"/>
    <path d="M1.5,3.5C1.5,2.395 2.395,1.5 3.5,1.5L8.5,1.5C9.605,1.5 10.5,2.395 10.5,3.5L10.5,11.5C10.5,12.605 9.605,13.5 8.5,13.5L3.5,13.5C2.395,13.5 1.5,12.605 1.5,11.5L1.5,3.5Z" style="fill:rgb(36,36,36);fill-rule:nonzero;"/>
    <path d="M3.5,2L8.5,2L8.5,1L3.5,1L3.5,2ZM10,3.5L10,11.5L11,11.5L11,3.5L10,3.5ZM8.5,13L3.5,13L3.5,14L8.5,14L8.5,13ZM2,11.5L2,3.5L1,3.5L1,11.5L2,11.5ZM3.5,13C2.672,13 2,12.328 2,11.5L1,11.5C1,12.881 2.119,14 3.5,14L3.5,13ZM10,11.5C10,12.328 9.328,13 8.5,13L8.5,14C9.881,14 11,12.881 11,11.5L10,11.5ZM8.5,2C9.328,2 10,2.672 10,3.5L11,3.5C11,2.119 9.881,1 8.5,1L8.5,2ZM3.5,1C2.119,1 1,2.119 1,3.5L2,3.5C2,2.672 2.672,2 3.5,2L3.5,1Z" style="fill-rule:nonzero;"/>
    <path d="M6.5,10L5.5,10L5.5,8L3.5,8L3.5,7L5.5,7L5.5,5L6.5,5L6.5,7L8.5,7L8.5,8L6.5,8L6.5,10Z" style="fill:rgb(180,180,180);fill-rule:nonzero;"/>
</svg>
