<?xml version="1.0" encoding="UTF-8" standalone="no"?>
<!DOCTYPE svg PUBLIC "-//W3C//DTD SVG 1.1//EN" "http://www.w3.org/Graphics/SVG/1.1/DTD/svg11.dtd">
<svg width="100%" height="100%" viewBox="0 0 47 22" version="1.1" xmlns="http://www.w3.org/2000/svg" xmlns:xlink="http://www.w3.org/1999/xlink" xml:space="preserve" xmlns:serif="http://www.serif.com/" style="fill-rule:evenodd;clip-rule:evenodd;">
    <path d="M4.781,5.032L4.997,5.032C5.197,5.032 5.341,4.969 5.429,4.844L6.741,2.94C6.819,2.839 6.901,2.769 6.989,2.732C7.08,2.692 7.192,2.672 7.325,2.672L8.501,2.672L6.773,5.028C6.651,5.191 6.519,5.308 6.377,5.38C6.479,5.417 6.571,5.469 6.653,5.536C6.736,5.603 6.813,5.689 6.885,5.796L8.645,8.5L7.437,8.5C7.36,8.5 7.293,8.495 7.237,8.484C7.184,8.473 7.137,8.457 7.097,8.436C7.057,8.415 7.023,8.389 6.993,8.36C6.964,8.328 6.936,8.292 6.909,8.252L5.589,6.224C5.541,6.149 5.48,6.097 5.405,6.068C5.333,6.036 5.235,6.02 5.109,6.02L4.781,6.02L4.781,8.5L3.429,8.5L3.429,2.672L4.781,2.672L4.781,5.032ZM10.318,3.712L10.318,5.072L12.15,5.072L12.15,6.072L10.318,6.072L10.318,7.46L12.71,7.46L12.71,8.5L8.958,8.5L8.958,2.672L12.71,2.672L12.71,3.712L10.318,3.712ZM16.216,6.284L16.216,8.5L14.864,8.5L14.864,6.284L12.752,2.672L13.944,2.672C14.061,2.672 14.153,2.7 14.22,2.756C14.289,2.809 14.346,2.879 14.392,2.964L15.216,4.66C15.285,4.793 15.348,4.919 15.404,5.036C15.46,5.151 15.509,5.264 15.552,5.376C15.592,5.261 15.637,5.147 15.688,5.032C15.741,4.915 15.802,4.791 15.872,4.66L16.688,2.964C16.706,2.929 16.729,2.895 16.756,2.86C16.782,2.825 16.813,2.795 16.848,2.768C16.885,2.739 16.926,2.716 16.972,2.7C17.02,2.681 17.072,2.672 17.128,2.672L18.328,2.672L16.216,6.284ZM22.851,3.744L21.211,3.744L21.211,8.5L19.859,8.5L19.859,3.744L18.219,3.744L18.219,2.672L22.851,2.672L22.851,3.744ZM25.314,5.412C25.498,5.412 25.654,5.389 25.782,5.344C25.913,5.296 26.019,5.231 26.102,5.148C26.185,5.065 26.245,4.969 26.282,4.86C26.319,4.748 26.338,4.628 26.338,4.5C26.338,4.244 26.254,4.044 26.086,3.9C25.921,3.756 25.663,3.684 25.314,3.684L24.77,3.684L24.77,5.412L25.314,5.412ZM28.186,8.5L26.962,8.5C26.735,8.5 26.573,8.415 26.474,8.244L25.506,6.552C25.461,6.48 25.41,6.428 25.354,6.396C25.298,6.361 25.218,6.344 25.114,6.344L24.77,6.344L24.77,8.5L23.418,8.5L23.418,2.672L25.314,2.672C25.735,2.672 26.094,2.716 26.39,2.804C26.689,2.889 26.931,3.009 27.118,3.164C27.307,3.319 27.445,3.501 27.53,3.712C27.615,3.923 27.658,4.152 27.658,4.4C27.658,4.589 27.633,4.768 27.582,4.936C27.531,5.104 27.457,5.26 27.358,5.404C27.259,5.545 27.137,5.672 26.99,5.784C26.846,5.896 26.679,5.988 26.49,6.06C26.578,6.105 26.661,6.163 26.738,6.232C26.815,6.299 26.885,6.379 26.946,6.472L28.186,8.5ZM31.636,6.272L31.096,4.676C31.056,4.575 31.013,4.456 30.968,4.32C30.923,4.181 30.877,4.032 30.832,3.872C30.792,4.035 30.749,4.185 30.704,4.324C30.659,4.463 30.616,4.583 30.576,4.684L30.04,6.272L31.636,6.272ZM33.784,8.5L32.736,8.5C32.618,8.5 32.524,8.473 32.452,8.42C32.38,8.364 32.325,8.293 32.288,8.208L31.944,7.192L29.728,7.192L29.384,8.208C29.355,8.283 29.301,8.351 29.224,8.412C29.149,8.471 29.056,8.5 28.944,8.5L27.888,8.5L30.144,2.672L31.528,2.672L33.784,8.5ZM37.856,6.992C37.888,6.992 37.92,6.999 37.952,7.012C37.984,7.023 38.015,7.043 38.044,7.072L38.58,7.636C38.345,7.943 38.051,8.175 37.696,8.332C37.344,8.487 36.927,8.564 36.444,8.564C36.001,8.564 35.604,8.489 35.252,8.34C34.903,8.188 34.605,7.98 34.36,7.716C34.117,7.449 33.931,7.135 33.8,6.772C33.669,6.407 33.604,6.011 33.604,5.584C33.604,5.149 33.675,4.751 33.816,4.388C33.957,4.023 34.156,3.708 34.412,3.444C34.668,3.18 34.975,2.975 35.332,2.828C35.689,2.681 36.083,2.608 36.512,2.608C36.731,2.608 36.936,2.628 37.128,2.668C37.323,2.705 37.504,2.759 37.672,2.828C37.84,2.895 37.995,2.976 38.136,3.072C38.277,3.168 38.403,3.272 38.512,3.384L38.056,3.996C38.027,4.033 37.992,4.068 37.952,4.1C37.912,4.129 37.856,4.144 37.784,4.144C37.736,4.144 37.691,4.133 37.648,4.112C37.605,4.091 37.56,4.065 37.512,4.036C37.464,4.004 37.411,3.971 37.352,3.936C37.296,3.899 37.228,3.865 37.148,3.836C37.071,3.804 36.979,3.777 36.872,3.756C36.768,3.735 36.645,3.724 36.504,3.724C36.28,3.724 36.075,3.765 35.888,3.848C35.704,3.931 35.544,4.052 35.408,4.212C35.275,4.369 35.171,4.564 35.096,4.796C35.024,5.025 34.988,5.288 34.988,5.584C34.988,5.883 35.028,6.148 35.108,6.38C35.191,6.612 35.301,6.808 35.44,6.968C35.581,7.125 35.745,7.245 35.932,7.328C36.119,7.411 36.319,7.452 36.532,7.452C36.655,7.452 36.767,7.447 36.868,7.436C36.969,7.423 37.064,7.403 37.152,7.376C37.24,7.347 37.323,7.309 37.4,7.264C37.477,7.216 37.556,7.156 37.636,7.084C37.668,7.057 37.703,7.036 37.74,7.02C37.777,7.001 37.816,6.992 37.856,6.992ZM40.402,5.032L40.618,5.032C40.818,5.032 40.962,4.969 41.05,4.844L42.362,2.94C42.44,2.839 42.522,2.769 42.61,2.732C42.701,2.692 42.813,2.672 42.946,2.672L44.122,2.672L42.394,5.028C42.272,5.191 42.14,5.308 41.998,5.38C42.1,5.417 42.192,5.469 42.274,5.536C42.357,5.603 42.434,5.689 42.506,5.796L44.266,8.5L43.058,8.5C42.981,8.5 42.914,8.495 42.858,8.484C42.805,8.473 42.758,8.457 42.718,8.436C42.678,8.415 42.644,8.389 42.614,8.36C42.585,8.328 42.557,8.292 42.53,8.252L41.21,6.224C41.162,6.149 41.101,6.097 41.026,6.068C40.954,6.036 40.856,6.02 40.73,6.02L40.402,6.02L40.402,8.5L39.05,8.5L39.05,2.672L40.402,2.672L40.402,5.032Z" style="fill:rgb(191,191,191);fill-rule:nonzero;"/>
    <path d="M45.5,12C45.5,11.448 45.052,11 44.5,11L2.5,11C1.948,11 1.5,11.448 1.5,12L1.5,18C1.5,18.552 1.948,19 2.5,19L44.5,19C45.052,19 45.5,18.552 45.5,18L45.5,12Z" style="fill:rgb(139,191,64);"/>
    <path d="M45.5,12C45.5,11.448 45.052,11 44.5,11L2.5,11C1.948,11 1.5,11.448 1.5,12L1.5,18C1.5,18.552 1.948,19 2.5,19L44.5,19C45.052,19 45.5,18.552 45.5,18L45.5,12Z" style="fill:none;stroke:rgb(139,191,64);stroke-width:1px;"/>
    <path d="M4.781,15.032L4.997,15.032C5.197,15.032 5.341,14.969 5.429,14.844L6.741,12.94C6.819,12.839 6.901,12.769 6.989,12.732C7.08,12.692 7.192,12.672 7.325,12.672L8.501,12.672L6.773,15.028C6.651,15.191 6.519,15.308 6.377,15.38C6.479,15.417 6.571,15.469 6.653,15.536C6.736,15.603 6.813,15.689 6.885,15.796L8.645,18.5L7.437,18.5C7.36,18.5 7.293,18.495 7.237,18.484C7.184,18.473 7.137,18.457 7.097,18.436C7.057,18.415 7.023,18.389 6.993,18.36C6.964,18.328 6.936,18.292 6.909,18.252L5.589,16.224C5.541,16.149 5.48,16.097 5.405,16.068C5.333,16.036 5.235,16.02 5.109,16.02L4.781,16.02L4.781,18.5L3.429,18.5L3.429,12.672L4.781,12.672L4.781,15.032ZM10.318,13.712L10.318,15.072L12.15,15.072L12.15,16.072L10.318,16.072L10.318,17.46L12.71,17.46L12.71,18.5L8.958,18.5L8.958,12.672L12.71,12.672L12.71,13.712L10.318,13.712ZM16.216,16.284L16.216,18.5L14.864,18.5L14.864,16.284L12.752,12.672L13.944,12.672C14.061,12.672 14.153,12.7 14.22,12.756C14.289,12.809 14.346,12.879 14.392,12.964L15.216,14.66C15.285,14.793 15.348,14.919 15.404,15.036C15.46,15.151 15.509,15.264 15.552,15.376C15.592,15.261 15.637,15.147 15.688,15.032C15.741,14.915 15.802,14.791 15.872,14.66L16.688,12.964C16.706,12.929 16.729,12.895 16.756,12.86C16.782,12.825 16.813,12.795 16.848,12.768C16.885,12.739 16.926,12.716 16.972,12.7C17.02,12.681 17.072,12.672 17.128,12.672L18.328,12.672L16.216,16.284ZM22.851,13.744L21.211,13.744L21.211,18.5L19.859,18.5L19.859,13.744L18.219,13.744L18.219,12.672L22.851,12.672L22.851,13.744ZM25.314,15.412C25.498,15.412 25.654,15.389 25.782,15.344C25.913,15.296 26.019,15.231 26.102,15.148C26.185,15.065 26.245,14.969 26.282,14.86C26.319,14.748 26.338,14.628 26.338,14.5C26.338,14.244 26.254,14.044 26.086,13.9C25.921,13.756 25.663,13.684 25.314,13.684L24.77,13.684L24.77,15.412L25.314,15.412ZM28.186,18.5L26.962,18.5C26.735,18.5 26.573,18.415 26.474,18.244L25.506,16.552C25.461,16.48 25.41,16.428 25.354,16.396C25.298,16.361 25.218,16.344 25.114,16.344L24.77,16.344L24.77,18.5L23.418,18.5L23.418,12.672L25.314,12.672C25.735,12.672 26.094,12.716 26.39,12.804C26.689,12.889 26.931,13.009 27.118,13.164C27.307,13.319 27.445,13.501 27.53,13.712C27.615,13.923 27.658,14.152 27.658,14.4C27.658,14.589 27.633,14.768 27.582,14.936C27.531,15.104 27.457,15.26 27.358,15.404C27.259,15.545 27.137,15.672 26.99,15.784C26.846,15.896 26.679,15.988 26.49,16.06C26.578,16.105 26.661,16.163 26.738,16.232C26.815,16.299 26.885,16.379 26.946,16.472L28.186,18.5ZM31.636,16.272L31.096,14.676C31.056,14.575 31.013,14.456 30.968,14.32C30.923,14.181 30.877,14.032 30.832,13.872C30.792,14.035 30.749,14.185 30.704,14.324C30.659,14.463 30.616,14.583 30.576,14.684L30.04,16.272L31.636,16.272ZM33.784,18.5L32.736,18.5C32.618,18.5 32.524,18.473 32.452,18.42C32.38,18.364 32.325,18.293 32.288,18.208L31.944,17.192L29.728,17.192L29.384,18.208C29.355,18.283 29.301,18.351 29.224,18.412C29.149,18.471 29.056,18.5 28.944,18.5L27.888,18.5L30.144,12.672L31.528,12.672L33.784,18.5ZM37.856,16.992C37.888,16.992 37.92,16.999 37.952,17.012C37.984,17.023 38.015,17.043 38.044,17.072L38.58,17.636C38.345,17.943 38.051,18.175 37.696,18.332C37.344,18.487 36.927,18.564 36.444,18.564C36.001,18.564 35.604,18.489 35.252,18.34C34.903,18.188 34.605,17.98 34.36,17.716C34.117,17.449 33.931,17.135 33.8,16.772C33.669,16.407 33.604,16.011 33.604,15.584C33.604,15.149 33.675,14.751 33.816,14.388C33.957,14.023 34.156,13.708 34.412,13.444C34.668,13.18 34.975,12.975 35.332,12.828C35.689,12.681 36.083,12.608 36.512,12.608C36.731,12.608 36.936,12.628 37.128,12.668C37.323,12.705 37.504,12.759 37.672,12.828C37.84,12.895 37.995,12.976 38.136,13.072C38.277,13.168 38.403,13.272 38.512,13.384L38.056,13.996C38.027,14.033 37.992,14.068 37.952,14.1C37.912,14.129 37.856,14.144 37.784,14.144C37.736,14.144 37.691,14.133 37.648,14.112C37.605,14.091 37.56,14.065 37.512,14.036C37.464,14.004 37.411,13.971 37.352,13.936C37.296,13.899 37.228,13.865 37.148,13.836C37.071,13.804 36.979,13.777 36.872,13.756C36.768,13.735 36.645,13.724 36.504,13.724C36.28,13.724 36.075,13.765 35.888,13.848C35.704,13.931 35.544,14.052 35.408,14.212C35.275,14.369 35.171,14.564 35.096,14.796C35.024,15.025 34.988,15.288 34.988,15.584C34.988,15.883 35.028,16.148 35.108,16.38C35.191,16.612 35.301,16.808 35.44,16.968C35.581,17.125 35.745,17.245 35.932,17.328C36.119,17.411 36.319,17.452 36.532,17.452C36.655,17.452 36.767,17.447 36.868,17.436C36.969,17.423 37.064,17.403 37.152,17.376C37.24,17.347 37.323,17.309 37.4,17.264C37.477,17.216 37.556,17.156 37.636,17.084C37.668,17.057 37.703,17.036 37.74,17.02C37.777,17.001 37.816,16.992 37.856,16.992ZM40.402,15.032L40.618,15.032C40.818,15.032 40.962,14.969 41.05,14.844L42.362,12.94C42.44,12.839 42.522,12.769 42.61,12.732C42.701,12.692 42.813,12.672 42.946,12.672L44.122,12.672L42.394,15.028C42.272,15.191 42.14,15.308 41.998,15.38C42.1,15.417 42.192,15.469 42.274,15.536C42.357,15.603 42.434,15.689 42.506,15.796L44.266,18.5L43.058,18.5C42.981,18.5 42.914,18.495 42.858,18.484C42.805,18.473 42.758,18.457 42.718,18.436C42.678,18.415 42.644,18.389 42.614,18.36C42.585,18.328 42.557,18.292 42.53,18.252L41.21,16.224C41.162,16.149 41.101,16.097 41.026,16.068C40.954,16.036 40.856,16.02 40.73,16.02L40.402,16.02L40.402,18.5L39.05,18.5L39.05,12.672L40.402,12.672L40.402,15.032Z" style="fill-rule:nonzero;"/>
</svg>
