<?xml version="1.0" encoding="UTF-8" standalone="no"?>
<!DOCTYPE svg PUBLIC "-//W3C//DTD SVG 1.1//EN" "http://www.w3.org/Graphics/SVG/1.1/DTD/svg11.dtd">
<svg width="100%" height="100%" viewBox="0 0 20 180" version="1.1" xmlns="http://www.w3.org/2000/svg" xmlns:xlink="http://www.w3.org/1999/xlink" xml:space="preserve" xmlns:serif="http://www.serif.com/" style="fill-rule:evenodd;clip-rule:evenodd;stroke-linejoin:round;stroke-miterlimit:2;">
    <g transform="matrix(1,0,0,1,0,1)">
        <rect x="0" y="0" width="20" height="16" style="fill:rgb(40,40,42);"/>
    </g>
    <rect x="0" y="1" width="20" height="16" style="fill:rgb(40,40,42);fill-opacity:0.35;"/>
    <path d="M20,17L0,17C4.48,6.33 11.15,1 20,1L20,17Z" style="fill:rgb(100,100,100);"/>
    <rect x="0" y="1" width="6" height="16" style="fill:rgb(0,192,0);fill-opacity:0.35;"/>
    <g transform="matrix(1,0,0,1,0,19)">
        <rect x="0" y="0" width="20" height="16" style="fill:rgb(40,40,42);"/>
    </g>
    <rect x="0" y="19" width="20" height="16" style="fill:rgb(40,40,42);fill-opacity:0.35;"/>
    <path d="M0,35L20,19L20,35L0,35Z" style="fill:rgb(100,100,100);"/>
    <rect x="7" y="19" width="6" height="16" style="fill:rgb(0,192,0);fill-opacity:0.35;"/>
    <g transform="matrix(1,0,0,1,0,37)">
        <rect x="0" y="0" width="20" height="16" style="fill:rgb(40,40,42);"/>
    </g>
    <rect x="0" y="37" width="20" height="16" style="fill:rgb(40,40,42);fill-opacity:0.35;"/>
    <path d="M20,53L0,53C8,53 14.67,47.67 20,37L20,53Z" style="fill:rgb(100,100,100);"/>
    <rect x="14" y="37" width="6" height="16" style="fill:rgb(0,192,0);fill-opacity:0.35;"/>
    <g transform="matrix(1,0,0,1,0,55)">
        <rect x="0" y="0" width="20" height="16" style="fill:rgb(40,40,42);"/>
    </g>
    <rect x="0" y="55" width="20" height="16" style="fill:rgb(40,40,42);fill-opacity:0.35;"/>
    <path d="M0,55L0,71L20,71L20,63L0,55Z" style="fill:rgb(100,100,100);"/>
    <rect x="0" y="55" width="6" height="16" style="fill:rgb(0,192,0);fill-opacity:0.35;"/>
    <g transform="matrix(1,0,0,1,0,73)">
        <rect x="0" y="0" width="20" height="16" style="fill:rgb(40,40,42);"/>
    </g>
    <rect x="0" y="73" width="20" height="16" style="fill:rgb(40,40,42);fill-opacity:0.35;"/>
    <path d="M0,73L0,89L20,89L20,81C14,81 7.33,78.33 0,73Z" style="fill:rgb(100,100,100);"/>
    <rect x="7" y="73" width="6" height="16" style="fill:rgb(0,192,0);fill-opacity:0.35;"/>
    <g transform="matrix(1,0,0,1,0,91)">
        <rect x="0" y="0" width="20" height="16" style="fill:rgb(40,40,42);"/>
    </g>
    <rect x="0" y="91" width="20" height="16" style="fill:rgb(40,40,42);fill-opacity:0.35;"/>
    <path d="M0,91L0,107L20,107L20,99C9.33,99 2.67,96.33 0,91Z" style="fill:rgb(100,100,100);"/>
    <rect x="14" y="91" width="6" height="16" style="fill:rgb(0,192,0);fill-opacity:0.35;"/>
    <g transform="matrix(1,0,0,1,0,109)">
        <rect x="0" y="0" width="20" height="16" style="fill:rgb(40,40,42);"/>
    </g>
    <rect x="0" y="109" width="20" height="16" style="fill:rgb(40,40,42);fill-opacity:0.35;"/>
    <path d="M0,117L0,125L20,125L0,117Z" style="fill:rgb(100,100,100);"/>
    <rect x="0" y="109" width="6" height="16" style="fill:rgb(0,192,0);fill-opacity:0.35;"/>
    <g transform="matrix(1,0,0,1,0,127)">
        <rect x="0" y="0" width="20" height="16" style="fill:rgb(40,40,42);"/>
    </g>
    <rect x="0" y="127" width="20" height="16" style="fill:rgb(40,40,42);fill-opacity:0.35;"/>
    <path d="M0,135L0,143L20,143C9.28,140.62 3.33,138.24 0,135Z" style="fill:rgb(100,100,100);"/>
    <rect x="7" y="127" width="6" height="16" style="fill:rgb(0,192,0);fill-opacity:0.35;"/>
    <g transform="matrix(1,0,0,1,0,145)">
        <rect x="0" y="0" width="20" height="16" style="fill:rgb(40,40,42);"/>
    </g>
    <rect x="0" y="145" width="20" height="16" style="fill:rgb(40,40,42);fill-opacity:0.35;"/>
    <path d="M0,153L0,161L20,161C9.33,159.67 2.67,157 0,153Z" style="fill:rgb(100,100,100);"/>
    <rect x="14" y="145" width="6" height="16" style="fill:rgb(0,192,0);fill-opacity:0.35;"/>
    <g transform="matrix(1,0,0,1,0,163)">
        <rect x="0" y="0" width="20" height="16" style="fill:rgb(40,40,42);"/>
    </g>
    <rect x="0" y="163" width="20" height="16" style="fill:rgb(40,40,42);fill-opacity:0.35;"/>
    <rect x="0" y="171" width="20" height="8" style="fill:rgb(100,100,100);"/>
</svg>
