<?xml version="1.0" encoding="UTF-8" standalone="no"?>
<!DOCTYPE svg PUBLIC "-//W3C//DTD SVG 1.1//EN" "http://www.w3.org/Graphics/SVG/1.1/DTD/svg11.dtd">
<svg width="100%" height="100%" viewBox="0 0 74 39" version="1.1" xmlns="http://www.w3.org/2000/svg" xmlns:xlink="http://www.w3.org/1999/xlink" xml:space="preserve" xmlns:serif="http://www.serif.com/" style="fill-rule:evenodd;clip-rule:evenodd;">
    <path d="M24,2C24,1.448 23.552,1 23,1L2,1C1.448,1 1,1.448 1,2L1,11C1,11.552 1.448,12 2,12L23,12C23.552,12 24,11.552 24,11L24,2Z" style="fill:rgb(139,191,64);"/>
    <path d="M24,2C24,1.448 23.552,1 23,1L2,1C1.448,1 1,1.448 1,2L1,11C1,11.552 1.448,12 2,12L23,12C23.552,12 24,11.552 24,11L24,2Z" style="fill:none;stroke:rgb(139,191,64);stroke-width:1px;"/>
    <path d="M14.384,8.604L14.384,9.5L11.064,9.5L11.064,8.604L12.184,8.604L12.184,5.664C12.184,5.589 12.185,5.515 12.188,5.44C12.19,5.363 12.194,5.285 12.2,5.208L11.536,5.76C11.477,5.805 11.418,5.833 11.36,5.844C11.304,5.852 11.25,5.852 11.2,5.844C11.149,5.833 11.104,5.816 11.064,5.792C11.024,5.765 10.994,5.739 10.976,5.712L10.584,5.192L12.4,3.668L13.424,3.668L13.424,8.604L14.384,8.604Z" style="fill-rule:nonzero;"/>
    <path d="M38.834,8.38C38.967,8.38 39.072,8.417 39.15,8.492C39.227,8.564 39.266,8.66 39.266,8.78L39.266,9.5L35.17,9.5L35.17,9.1C35.17,9.023 35.186,8.94 35.218,8.852C35.25,8.764 35.306,8.684 35.386,8.612L37.066,6.92C37.21,6.776 37.335,6.639 37.442,6.508C37.548,6.377 37.636,6.249 37.706,6.124C37.775,5.996 37.827,5.869 37.862,5.744C37.896,5.616 37.914,5.481 37.914,5.34C37.914,5.108 37.858,4.931 37.746,4.808C37.636,4.683 37.468,4.62 37.242,4.62C37.058,4.62 36.902,4.669 36.774,4.768C36.648,4.864 36.562,4.984 36.514,5.128C36.458,5.275 36.384,5.372 36.294,5.42C36.203,5.468 36.074,5.479 35.906,5.452L35.25,5.336C35.292,5.045 35.374,4.792 35.494,4.576C35.616,4.36 35.767,4.18 35.946,4.036C36.127,3.892 36.334,3.785 36.566,3.716C36.798,3.644 37.047,3.608 37.314,3.608C37.602,3.608 37.86,3.651 38.09,3.736C38.322,3.819 38.519,3.935 38.682,4.084C38.844,4.233 38.968,4.412 39.054,4.62C39.142,4.825 39.186,5.052 39.186,5.3C39.186,5.513 39.155,5.711 39.094,5.892C39.035,6.073 38.954,6.247 38.85,6.412C38.746,6.575 38.624,6.733 38.486,6.888C38.35,7.04 38.204,7.195 38.05,7.352L36.91,8.52C37.056,8.475 37.202,8.44 37.346,8.416C37.49,8.392 37.623,8.38 37.746,8.38L38.834,8.38Z" style="fill:rgb(191,191,191);fill-rule:nonzero;"/>
    <path d="M60.032,5.336C60.074,5.045 60.156,4.792 60.276,4.576C60.398,4.36 60.549,4.18 60.728,4.036C60.909,3.892 61.116,3.785 61.348,3.716C61.58,3.644 61.829,3.608 62.096,3.608C62.384,3.608 62.64,3.649 62.864,3.732C63.088,3.812 63.277,3.921 63.432,4.06C63.586,4.199 63.704,4.36 63.784,4.544C63.864,4.725 63.904,4.917 63.904,5.12C63.904,5.304 63.885,5.467 63.848,5.608C63.81,5.747 63.754,5.868 63.68,5.972C63.608,6.073 63.517,6.16 63.408,6.232C63.301,6.301 63.178,6.36 63.04,6.408C63.685,6.635 64.008,7.075 64.008,7.728C64.008,8.037 63.952,8.307 63.84,8.536C63.728,8.765 63.577,8.956 63.388,9.108C63.201,9.26 62.984,9.375 62.736,9.452C62.488,9.527 62.229,9.564 61.96,9.564C61.682,9.564 61.436,9.535 61.22,9.476C61.004,9.415 60.812,9.321 60.644,9.196C60.476,9.068 60.328,8.905 60.2,8.708C60.074,8.511 59.965,8.276 59.872,8.004L60.424,7.78C60.568,7.724 60.701,7.709 60.824,7.736C60.946,7.763 61.034,7.824 61.088,7.92C61.208,8.141 61.334,8.303 61.468,8.404C61.604,8.503 61.762,8.552 61.944,8.552C62.082,8.552 62.202,8.529 62.304,8.484C62.408,8.436 62.493,8.376 62.56,8.304C62.629,8.229 62.681,8.145 62.716,8.052C62.75,7.959 62.768,7.864 62.768,7.768C62.768,7.643 62.758,7.531 62.74,7.432C62.724,7.331 62.676,7.244 62.596,7.172C62.516,7.1 62.394,7.045 62.232,7.008C62.072,6.968 61.848,6.948 61.56,6.948L61.56,6.092C61.802,6.092 61.998,6.073 62.148,6.036C62.297,5.999 62.412,5.948 62.492,5.884C62.574,5.817 62.629,5.737 62.656,5.644C62.682,5.551 62.696,5.448 62.696,5.336C62.696,5.107 62.64,4.931 62.528,4.808C62.418,4.683 62.25,4.62 62.024,4.62C61.84,4.62 61.684,4.669 61.556,4.768C61.43,4.864 61.344,4.984 61.296,5.128C61.24,5.275 61.166,5.372 61.076,5.42C60.985,5.468 60.856,5.479 60.688,5.452L60.032,5.336Z" style="fill:rgb(191,191,191);fill-rule:nonzero;"/>
    <path d="M14.384,21.604L14.384,22.5L11.064,22.5L11.064,21.604L12.184,21.604L12.184,18.664C12.184,18.589 12.185,18.515 12.188,18.44C12.19,18.363 12.194,18.285 12.2,18.208L11.536,18.76C11.477,18.805 11.418,18.833 11.36,18.844C11.304,18.852 11.25,18.852 11.2,18.844C11.149,18.833 11.104,18.816 11.064,18.792C11.024,18.765 10.994,18.739 10.976,18.712L10.584,18.192L12.4,16.668L13.424,16.668L13.424,21.604L14.384,21.604Z" style="fill:rgb(191,191,191);fill-rule:nonzero;"/>
    <path d="M48.75,15C48.75,14.448 48.302,14 47.75,14L26.75,14C26.198,14 25.75,14.448 25.75,15L25.75,24C25.75,24.552 26.198,25 26.75,25L47.75,25C48.302,25 48.75,24.552 48.75,24L48.75,15Z" style="fill:rgb(139,191,64);"/>
    <path d="M48.75,15C48.75,14.448 48.302,14 47.75,14L26.75,14C26.198,14 25.75,14.448 25.75,15L25.75,24C25.75,24.552 26.198,25 26.75,25L47.75,25C48.302,25 48.75,24.552 48.75,24L48.75,15Z" style="fill:none;stroke:rgb(139,191,64);stroke-width:1px;"/>
    <path d="M38.834,21.38C38.967,21.38 39.072,21.417 39.15,21.492C39.227,21.564 39.266,21.66 39.266,21.78L39.266,22.5L35.17,22.5L35.17,22.1C35.17,22.023 35.186,21.94 35.218,21.852C35.25,21.764 35.306,21.684 35.386,21.612L37.066,19.92C37.21,19.776 37.335,19.639 37.442,19.508C37.548,19.377 37.636,19.249 37.706,19.124C37.775,18.996 37.827,18.869 37.862,18.744C37.896,18.616 37.914,18.481 37.914,18.34C37.914,18.108 37.858,17.931 37.746,17.808C37.636,17.683 37.468,17.62 37.242,17.62C37.058,17.62 36.902,17.669 36.774,17.768C36.648,17.864 36.562,17.984 36.514,18.128C36.458,18.275 36.384,18.372 36.294,18.42C36.203,18.468 36.074,18.479 35.906,18.452L35.25,18.336C35.292,18.045 35.374,17.792 35.494,17.576C35.616,17.36 35.767,17.18 35.946,17.036C36.127,16.892 36.334,16.785 36.566,16.716C36.798,16.644 37.047,16.608 37.314,16.608C37.602,16.608 37.86,16.651 38.09,16.736C38.322,16.819 38.519,16.935 38.682,17.084C38.844,17.233 38.968,17.412 39.054,17.62C39.142,17.825 39.186,18.052 39.186,18.3C39.186,18.513 39.155,18.711 39.094,18.892C39.035,19.073 38.954,19.247 38.85,19.412C38.746,19.575 38.624,19.733 38.486,19.888C38.35,20.04 38.204,20.195 38.05,20.352L36.91,21.52C37.056,21.475 37.202,21.44 37.346,21.416C37.49,21.392 37.623,21.38 37.746,21.38L38.834,21.38Z" style="fill-rule:nonzero;"/>
    <path d="M60.032,18.336C60.074,18.045 60.156,17.792 60.276,17.576C60.398,17.36 60.549,17.18 60.728,17.036C60.909,16.892 61.116,16.785 61.348,16.716C61.58,16.644 61.829,16.608 62.096,16.608C62.384,16.608 62.64,16.649 62.864,16.732C63.088,16.812 63.277,16.921 63.432,17.06C63.586,17.199 63.704,17.36 63.784,17.544C63.864,17.725 63.904,17.917 63.904,18.12C63.904,18.304 63.885,18.467 63.848,18.608C63.81,18.747 63.754,18.868 63.68,18.972C63.608,19.073 63.517,19.16 63.408,19.232C63.301,19.301 63.178,19.36 63.04,19.408C63.685,19.635 64.008,20.075 64.008,20.728C64.008,21.037 63.952,21.307 63.84,21.536C63.728,21.765 63.577,21.956 63.388,22.108C63.201,22.26 62.984,22.375 62.736,22.452C62.488,22.527 62.229,22.564 61.96,22.564C61.682,22.564 61.436,22.535 61.22,22.476C61.004,22.415 60.812,22.321 60.644,22.196C60.476,22.068 60.328,21.905 60.2,21.708C60.074,21.511 59.965,21.276 59.872,21.004L60.424,20.78C60.568,20.724 60.701,20.709 60.824,20.736C60.946,20.763 61.034,20.824 61.088,20.92C61.208,21.141 61.334,21.303 61.468,21.404C61.604,21.503 61.762,21.552 61.944,21.552C62.082,21.552 62.202,21.529 62.304,21.484C62.408,21.436 62.493,21.376 62.56,21.304C62.629,21.229 62.681,21.145 62.716,21.052C62.75,20.959 62.768,20.864 62.768,20.768C62.768,20.643 62.758,20.531 62.74,20.432C62.724,20.331 62.676,20.244 62.596,20.172C62.516,20.1 62.394,20.045 62.232,20.008C62.072,19.968 61.848,19.948 61.56,19.948L61.56,19.092C61.802,19.092 61.998,19.073 62.148,19.036C62.297,18.999 62.412,18.948 62.492,18.884C62.574,18.817 62.629,18.737 62.656,18.644C62.682,18.551 62.696,18.448 62.696,18.336C62.696,18.107 62.64,17.931 62.528,17.808C62.418,17.683 62.25,17.62 62.024,17.62C61.84,17.62 61.684,17.669 61.556,17.768C61.43,17.864 61.344,17.984 61.296,18.128C61.24,18.275 61.166,18.372 61.076,18.42C60.985,18.468 60.856,18.479 60.688,18.452L60.032,18.336Z" style="fill:rgb(191,191,191);fill-rule:nonzero;"/>
    <path d="M14.384,34.604L14.384,35.5L11.064,35.5L11.064,34.604L12.184,34.604L12.184,31.664C12.184,31.589 12.185,31.515 12.188,31.44C12.19,31.363 12.194,31.285 12.2,31.208L11.536,31.76C11.477,31.805 11.418,31.833 11.36,31.844C11.304,31.852 11.25,31.852 11.2,31.844C11.149,31.833 11.104,31.816 11.064,31.792C11.024,31.765 10.994,31.739 10.976,31.712L10.584,31.192L12.4,29.668L13.424,29.668L13.424,34.604L14.384,34.604Z" style="fill:rgb(191,191,191);fill-rule:nonzero;"/>
    <path d="M38.834,34.38C38.967,34.38 39.072,34.417 39.15,34.492C39.227,34.564 39.266,34.66 39.266,34.78L39.266,35.5L35.17,35.5L35.17,35.1C35.17,35.023 35.186,34.94 35.218,34.852C35.25,34.764 35.306,34.684 35.386,34.612L37.066,32.92C37.21,32.776 37.335,32.639 37.442,32.508C37.548,32.377 37.636,32.249 37.706,32.124C37.775,31.996 37.827,31.869 37.862,31.744C37.896,31.616 37.914,31.481 37.914,31.34C37.914,31.108 37.858,30.931 37.746,30.808C37.636,30.683 37.468,30.62 37.242,30.62C37.058,30.62 36.902,30.669 36.774,30.768C36.648,30.864 36.562,30.984 36.514,31.128C36.458,31.275 36.384,31.372 36.294,31.42C36.203,31.468 36.074,31.479 35.906,31.452L35.25,31.336C35.292,31.045 35.374,30.792 35.494,30.576C35.616,30.36 35.767,30.18 35.946,30.036C36.127,29.892 36.334,29.785 36.566,29.716C36.798,29.644 37.047,29.608 37.314,29.608C37.602,29.608 37.86,29.651 38.09,29.736C38.322,29.819 38.519,29.935 38.682,30.084C38.844,30.233 38.968,30.412 39.054,30.62C39.142,30.825 39.186,31.052 39.186,31.3C39.186,31.513 39.155,31.711 39.094,31.892C39.035,32.073 38.954,32.247 38.85,32.412C38.746,32.575 38.624,32.733 38.486,32.888C38.35,33.04 38.204,33.195 38.05,33.352L36.91,34.52C37.056,34.475 37.202,34.44 37.346,34.416C37.49,34.392 37.623,34.38 37.746,34.38L38.834,34.38Z" style="fill:rgb(191,191,191);fill-rule:nonzero;"/>
    <path d="M73.5,28C73.5,27.448 73.052,27 72.5,27L51.5,27C50.948,27 50.5,27.448 50.5,28L50.5,37C50.5,37.552 50.948,38 51.5,38L72.5,38C73.052,38 73.5,37.552 73.5,37L73.5,28Z" style="fill:rgb(139,191,64);"/>
    <path d="M73.5,28C73.5,27.448 73.052,27 72.5,27L51.5,27C50.948,27 50.5,27.448 50.5,28L50.5,37C50.5,37.552 50.948,38 51.5,38L72.5,38C73.052,38 73.5,37.552 73.5,37L73.5,28Z" style="fill:none;stroke:rgb(139,191,64);stroke-width:1px;"/>
    <path d="M60.032,31.336C60.074,31.045 60.156,30.792 60.276,30.576C60.398,30.36 60.549,30.18 60.728,30.036C60.909,29.892 61.116,29.785 61.348,29.716C61.58,29.644 61.829,29.608 62.096,29.608C62.384,29.608 62.64,29.649 62.864,29.732C63.088,29.812 63.277,29.921 63.432,30.06C63.586,30.199 63.704,30.36 63.784,30.544C63.864,30.725 63.904,30.917 63.904,31.12C63.904,31.304 63.885,31.467 63.848,31.608C63.81,31.747 63.754,31.868 63.68,31.972C63.608,32.073 63.517,32.16 63.408,32.232C63.301,32.301 63.178,32.36 63.04,32.408C63.685,32.635 64.008,33.075 64.008,33.728C64.008,34.037 63.952,34.307 63.84,34.536C63.728,34.765 63.577,34.956 63.388,35.108C63.201,35.26 62.984,35.375 62.736,35.452C62.488,35.527 62.229,35.564 61.96,35.564C61.682,35.564 61.436,35.535 61.22,35.476C61.004,35.415 60.812,35.321 60.644,35.196C60.476,35.068 60.328,34.905 60.2,34.708C60.074,34.511 59.965,34.276 59.872,34.004L60.424,33.78C60.568,33.724 60.701,33.709 60.824,33.736C60.946,33.763 61.034,33.824 61.088,33.92C61.208,34.141 61.334,34.303 61.468,34.404C61.604,34.503 61.762,34.552 61.944,34.552C62.082,34.552 62.202,34.529 62.304,34.484C62.408,34.436 62.493,34.376 62.56,34.304C62.629,34.229 62.681,34.145 62.716,34.052C62.75,33.959 62.768,33.864 62.768,33.768C62.768,33.643 62.758,33.531 62.74,33.432C62.724,33.331 62.676,33.244 62.596,33.172C62.516,33.1 62.394,33.045 62.232,33.008C62.072,32.968 61.848,32.948 61.56,32.948L61.56,32.092C61.802,32.092 61.998,32.073 62.148,32.036C62.297,31.999 62.412,31.948 62.492,31.884C62.574,31.817 62.629,31.737 62.656,31.644C62.682,31.551 62.696,31.448 62.696,31.336C62.696,31.107 62.64,30.931 62.528,30.808C62.418,30.683 62.25,30.62 62.024,30.62C61.84,30.62 61.684,30.669 61.556,30.768C61.43,30.864 61.344,30.984 61.296,31.128C61.24,31.275 61.166,31.372 61.076,31.42C60.985,31.468 60.856,31.479 60.688,31.452L60.032,31.336Z" style="fill-rule:nonzero;"/>
</svg>
