<?xml version="1.0" encoding="UTF-8" standalone="no"?>
<!DOCTYPE svg PUBLIC "-//W3C//DTD SVG 1.1//EN" "http://www.w3.org/Graphics/SVG/1.1/DTD/svg11.dtd">
<svg width="100%" height="100%" viewBox="0 0 34 36" version="1.1" xmlns="http://www.w3.org/2000/svg" xmlns:xlink="http://www.w3.org/1999/xlink" xml:space="preserve" xmlns:serif="http://www.serif.com/" style="fill-rule:evenodd;clip-rule:evenodd;stroke-linejoin:round;stroke-miterlimit:2;">
    <path d="M0.5,2.5C0.5,1.395 1.395,0.5 2.5,0.5L31.5,0.5C32.605,0.5 33.5,1.395 33.5,2.5L33.5,15.5C33.5,16.605 32.605,17.5 31.5,17.5L2.5,17.5C1.395,17.5 0.5,16.605 0.5,15.5L0.5,2.5Z" style="fill:rgb(36,36,36);fill-rule:nonzero;"/>
    <path d="M32.5,2.5C32.5,1.948 32.052,1.5 31.5,1.5L2.5,1.5C1.948,1.5 1.5,1.948 1.5,2.5L1.5,7.5C1.5,8.052 1.948,8.5 2.5,8.5L31.5,8.5C32.052,8.5 32.5,8.052 32.5,7.5L32.5,2.5Z" style="fill:none;"/>
    <path d="M32.5,2.5C32.5,1.948 32.052,1.5 31.5,1.5L2.5,1.5C1.948,1.5 1.5,1.948 1.5,2.5L1.5,7.5C1.5,8.052 1.948,8.5 2.5,8.5L31.5,8.5C32.052,8.5 32.5,8.052 32.5,7.5L32.5,2.5Z" style="fill:none;"/>
    <path d="M8.859,5.449C8.859,5.817 8.795,6.158 8.667,6.471C8.541,6.781 8.362,7.05 8.131,7.279C7.9,7.505 7.621,7.683 7.295,7.811C6.97,7.937 6.61,8 6.213,8L4.232,8L4.232,2.901L6.213,2.901C6.61,2.901 6.97,2.965 7.295,3.093C7.621,3.221 7.9,3.399 8.131,3.625C8.362,3.851 8.541,4.121 8.667,4.434C8.795,4.744 8.859,5.082 8.859,5.449ZM7.648,5.449C7.648,5.197 7.616,4.969 7.55,4.766C7.485,4.563 7.39,4.392 7.267,4.252C7.145,4.109 6.996,4.001 6.819,3.926C6.641,3.849 6.44,3.811 6.213,3.811L5.422,3.811L5.422,7.09L6.213,7.09C6.44,7.09 6.641,7.053 6.819,6.978C6.996,6.901 7.145,6.793 7.267,6.653C7.39,6.51 7.485,6.338 7.55,6.135C7.616,5.932 7.648,5.703 7.648,5.449ZM10.643,8L9.453,8L9.453,2.901L10.643,2.901L10.643,8ZM13.971,5.358L15.784,5.358L15.784,7.51C15.523,7.701 15.244,7.84 14.948,7.927C14.654,8.013 14.346,8.056 14.024,8.056C13.604,8.056 13.221,7.991 12.876,7.86C12.533,7.727 12.239,7.545 11.994,7.314C11.749,7.081 11.56,6.805 11.427,6.488C11.294,6.168 11.227,5.822 11.227,5.449C11.227,5.068 11.29,4.719 11.416,4.402C11.542,4.082 11.722,3.807 11.955,3.576C12.191,3.345 12.475,3.165 12.806,3.037C13.14,2.909 13.512,2.845 13.922,2.845C14.135,2.845 14.334,2.862 14.521,2.897C14.708,2.932 14.879,2.98 15.035,3.041C15.194,3.101 15.339,3.174 15.469,3.257C15.6,3.342 15.717,3.433 15.819,3.531L15.476,4.052C15.423,4.134 15.353,4.184 15.266,4.203C15.182,4.221 15.091,4.2 14.993,4.14C14.9,4.084 14.811,4.036 14.727,3.996C14.646,3.954 14.562,3.92 14.475,3.894C14.389,3.869 14.298,3.85 14.202,3.838C14.107,3.827 13.999,3.821 13.88,3.821C13.659,3.821 13.459,3.861 13.282,3.94C13.105,4.017 12.953,4.127 12.827,4.269C12.703,4.411 12.608,4.583 12.54,4.784C12.472,4.982 12.438,5.204 12.438,5.449C12.438,5.719 12.476,5.96 12.55,6.17C12.625,6.38 12.73,6.557 12.865,6.702C13.003,6.846 13.166,6.957 13.355,7.034C13.547,7.109 13.758,7.146 13.989,7.146C14.131,7.146 14.259,7.132 14.374,7.104C14.491,7.076 14.604,7.039 14.713,6.992L14.713,6.219L14.209,6.219C14.135,6.219 14.076,6.199 14.034,6.159C13.992,6.119 13.971,6.069 13.971,6.009L13.971,5.358ZM17.665,8L16.475,8L16.475,2.901L17.665,2.901L17.665,8ZM22.208,3.838L20.773,3.838L20.773,8L19.59,8L19.59,3.838L18.155,3.838L18.155,2.901L22.208,2.901L22.208,3.838ZM24.9,6.051L24.428,4.654C24.393,4.565 24.356,4.462 24.316,4.343C24.276,4.221 24.237,4.09 24.197,3.951C24.162,4.093 24.125,4.225 24.085,4.346C24.045,4.467 24.008,4.572 23.973,4.661L23.504,6.051L24.9,6.051ZM26.78,8L25.863,8C25.76,8 25.677,7.977 25.614,7.93C25.551,7.881 25.504,7.819 25.471,7.745L25.17,6.856L23.231,6.856L22.93,7.745C22.904,7.81 22.858,7.869 22.79,7.923C22.725,7.974 22.643,8 22.545,8L21.621,8L23.595,2.901L24.806,2.901L26.78,8ZM30.15,7.055L30.15,8L27.077,8L27.077,2.901L28.26,2.901L28.26,7.055L30.15,7.055Z" style="fill:rgb(139,191,64);fill-rule:nonzero;"/>
    <path d="M5.597,14.051L5.124,12.654C5.089,12.565 5.052,12.461 5.012,12.343C4.972,12.221 4.933,12.091 4.893,11.951C4.858,12.093 4.821,12.225 4.781,12.346C4.741,12.467 4.704,12.572 4.669,12.661L4.2,14.051L5.597,14.051ZM7.476,16L6.559,16C6.456,16 6.374,15.977 6.311,15.93C6.248,15.881 6.2,15.819 6.167,15.745L5.866,14.855L3.927,14.855L3.626,15.745C3.6,15.81 3.554,15.869 3.486,15.923C3.421,15.974 3.339,16 3.241,16L2.317,16L4.291,10.9L5.502,10.9L7.476,16ZM12.225,10.9L12.225,16L11.609,16C11.518,16 11.441,15.986 11.378,15.958C11.317,15.928 11.257,15.876 11.196,15.804L8.792,12.762C8.801,12.854 8.807,12.942 8.809,13.028C8.814,13.113 8.816,13.192 8.816,13.267L8.816,16L7.773,16L7.773,10.9L8.396,10.9C8.447,10.9 8.491,10.903 8.526,10.908C8.561,10.912 8.592,10.922 8.62,10.936C8.648,10.947 8.675,10.965 8.701,10.988C8.726,11.011 8.755,11.043 8.788,11.083L11.214,14.145C11.202,14.047 11.194,13.953 11.189,13.862C11.184,13.768 11.182,13.681 11.182,13.599L11.182,10.9L12.225,10.9ZM15.805,14.051L15.332,12.654C15.297,12.565 15.26,12.461 15.22,12.343C15.18,12.221 15.141,12.091 15.101,11.951C15.066,12.093 15.029,12.225 14.989,12.346C14.949,12.467 14.912,12.572 14.877,12.661L14.408,14.051L15.805,14.051ZM17.684,16L16.767,16C16.664,16 16.581,15.977 16.519,15.93C16.456,15.881 16.408,15.819 16.375,15.745L16.074,14.855L14.135,14.855L13.834,15.745C13.808,15.81 13.762,15.869 13.694,15.923C13.629,15.974 13.547,16 13.449,16L12.525,16L14.499,10.9L15.71,10.9L17.684,16ZM21.054,15.055L21.054,16L17.981,16L17.981,10.9L19.164,10.9L19.164,15.055L21.054,15.055ZM26.436,13.448C26.436,13.817 26.372,14.16 26.243,14.477C26.117,14.795 25.939,15.071 25.708,15.307C25.477,15.54 25.198,15.724 24.871,15.857C24.547,15.99 24.186,16.056 23.79,16.056C23.393,16.056 23.031,15.99 22.705,15.857C22.378,15.724 22.098,15.54 21.865,15.307C21.634,15.071 21.454,14.795 21.326,14.477C21.2,14.16 21.137,13.817 21.137,13.448C21.137,13.08 21.2,12.737 21.326,12.419C21.454,12.102 21.634,11.827 21.865,11.594C22.098,11.36 22.378,11.177 22.705,11.044C23.031,10.911 23.393,10.845 23.79,10.845C24.186,10.845 24.547,10.912 24.871,11.048C25.198,11.181 25.477,11.364 25.708,11.597C25.939,11.83 26.117,12.106 26.243,12.423C26.372,12.74 26.436,13.082 26.436,13.448ZM25.225,13.448C25.225,13.197 25.192,12.97 25.127,12.77C25.061,12.567 24.967,12.395 24.843,12.255C24.722,12.115 24.573,12.008 24.395,11.933C24.218,11.858 24.016,11.821 23.79,11.821C23.561,11.821 23.357,11.858 23.177,11.933C23,12.008 22.849,12.115 22.726,12.255C22.604,12.395 22.511,12.567 22.446,12.77C22.38,12.97 22.348,13.197 22.348,13.448C22.348,13.703 22.38,13.932 22.446,14.134C22.511,14.335 22.604,14.506 22.726,14.646C22.849,14.786 23,14.893 23.177,14.967C23.357,15.04 23.561,15.076 23.79,15.076C24.016,15.076 24.218,15.04 24.395,14.967C24.573,14.893 24.722,14.786 24.843,14.646C24.967,14.506 25.061,14.335 25.127,14.134C25.192,13.932 25.225,13.703 25.225,13.448ZM29.477,13.358L31.29,13.358L31.29,15.51C31.029,15.701 30.75,15.84 30.453,15.927C30.159,16.013 29.851,16.056 29.529,16.056C29.109,16.056 28.727,15.991 28.381,15.86C28.038,15.727 27.744,15.545 27.499,15.314C27.254,15.081 27.065,14.805 26.932,14.488C26.799,14.168 26.733,13.822 26.733,13.448C26.733,13.068 26.796,12.719 26.922,12.402C27.048,12.082 27.228,11.807 27.461,11.576C27.697,11.345 27.98,11.165 28.311,11.037C28.645,10.909 29.017,10.845 29.428,10.845C29.64,10.845 29.84,10.862 30.026,10.897C30.213,10.932 30.385,10.98 30.541,11.041C30.7,11.101 30.844,11.174 30.975,11.258C31.106,11.342 31.222,11.432 31.325,11.531L30.982,12.052C30.928,12.134 30.858,12.184 30.772,12.203C30.688,12.221 30.597,12.2 30.499,12.14C30.406,12.084 30.317,12.036 30.233,11.996C30.151,11.954 30.067,11.92 29.981,11.895C29.895,11.869 29.804,11.85 29.708,11.839C29.612,11.827 29.505,11.821 29.386,11.821C29.164,11.821 28.965,11.861 28.787,11.94C28.61,12.017 28.458,12.127 28.332,12.269C28.209,12.411 28.113,12.583 28.045,12.784C27.978,12.982 27.944,13.204 27.944,13.448C27.944,13.719 27.981,13.96 28.056,14.169C28.131,14.38 28.236,14.557 28.371,14.701C28.509,14.846 28.672,14.957 28.861,15.034C29.052,15.109 29.263,15.146 29.494,15.146C29.637,15.146 29.765,15.132 29.879,15.104C29.996,15.076 30.109,15.039 30.219,14.992L30.219,14.219L29.715,14.219C29.64,14.219 29.582,14.199 29.54,14.159C29.498,14.119 29.477,14.069 29.477,14.009L29.477,13.358Z" style="fill:rgb(100,100,100);fill-rule:nonzero;"/>
    <path d="M2.5,1L31.5,1L31.5,0L2.5,0L2.5,1ZM33,2.5L33,15.5L34,15.5L34,2.5L33,2.5ZM31.5,17L2.5,17L2.5,18L31.5,18L31.5,17ZM1,15.5L1,2.5L0,2.5L0,15.5L1,15.5ZM2.5,17C1.672,17 1,16.328 1,15.5L0,15.5C0,16.881 1.119,18 2.5,18L2.5,17ZM33,15.5C33,16.328 32.328,17 31.5,17L31.5,18C32.881,18 34,16.881 34,15.5L33,15.5ZM31.5,1C32.328,1 33,1.672 33,2.5L34,2.5C34,1.119 32.881,0 31.5,0L31.5,1ZM2.5,0C1.119,0 0,1.119 0,2.5L1,2.5C1,1.672 1.672,1 2.5,1L2.5,0Z" style="fill-rule:nonzero;"/>
    <path d="M0.5,20.5C0.5,19.395 1.395,18.5 2.5,18.5L31.5,18.5C32.605,18.5 33.5,19.395 33.5,20.5L33.5,33.5C33.5,34.605 32.605,35.5 31.5,35.5L2.5,35.5C1.395,35.5 0.5,34.605 0.5,33.5L0.5,20.5Z" style="fill:rgb(36,36,36);fill-rule:nonzero;"/>
    <path d="M8.859,23.449C8.859,23.817 8.795,24.158 8.667,24.471C8.541,24.781 8.362,25.05 8.131,25.279C7.9,25.505 7.621,25.683 7.295,25.811C6.97,25.937 6.61,26 6.213,26L4.232,26L4.232,20.901L6.213,20.901C6.61,20.901 6.97,20.965 7.295,21.093C7.621,21.221 7.9,21.399 8.131,21.625C8.362,21.851 8.541,22.121 8.667,22.434C8.795,22.744 8.859,23.082 8.859,23.449ZM7.648,23.449C7.648,23.197 7.616,22.969 7.55,22.766C7.485,22.563 7.39,22.392 7.267,22.252C7.145,22.109 6.996,22.001 6.819,21.926C6.641,21.849 6.44,21.811 6.213,21.811L5.422,21.811L5.422,25.09L6.213,25.09C6.44,25.09 6.641,25.053 6.819,24.978C6.996,24.901 7.145,24.793 7.267,24.653C7.39,24.51 7.485,24.337 7.55,24.135C7.616,23.932 7.648,23.703 7.648,23.449ZM10.643,26L9.453,26L9.453,20.901L10.643,20.901L10.643,26ZM13.971,23.358L15.784,23.358L15.784,25.51C15.523,25.701 15.244,25.84 14.948,25.927C14.654,26.013 14.346,26.056 14.024,26.056C13.604,26.056 13.221,25.991 12.876,25.86C12.533,25.727 12.239,25.545 11.994,25.314C11.749,25.081 11.56,24.805 11.427,24.488C11.294,24.168 11.227,23.822 11.227,23.449C11.227,23.068 11.29,22.719 11.416,22.402C11.542,22.082 11.722,21.807 11.955,21.576C12.191,21.345 12.475,21.165 12.806,21.037C13.14,20.909 13.512,20.845 13.922,20.845C14.135,20.845 14.334,20.862 14.521,20.897C14.708,20.932 14.879,20.98 15.035,21.041C15.194,21.101 15.339,21.174 15.469,21.258C15.6,21.342 15.717,21.433 15.819,21.531L15.476,22.052C15.423,22.134 15.353,22.184 15.266,22.203C15.182,22.221 15.091,22.2 14.993,22.14C14.9,22.084 14.811,22.036 14.727,21.996C14.646,21.954 14.562,21.92 14.475,21.895C14.389,21.869 14.298,21.85 14.202,21.839C14.107,21.827 13.999,21.821 13.88,21.821C13.659,21.821 13.459,21.861 13.282,21.94C13.105,22.017 12.953,22.127 12.827,22.269C12.703,22.411 12.608,22.583 12.54,22.784C12.472,22.982 12.438,23.203 12.438,23.449C12.438,23.719 12.476,23.959 12.55,24.17C12.625,24.38 12.73,24.557 12.865,24.702C13.003,24.846 13.166,24.957 13.355,25.034C13.547,25.109 13.758,25.146 13.989,25.146C14.131,25.146 14.259,25.132 14.374,25.104C14.491,25.076 14.604,25.039 14.713,24.992L14.713,24.219L14.209,24.219C14.135,24.219 14.076,24.199 14.034,24.159C13.992,24.119 13.971,24.069 13.971,24.009L13.971,23.358ZM17.665,26L16.475,26L16.475,20.901L17.665,20.901L17.665,26ZM22.208,21.839L20.773,21.839L20.773,26L19.59,26L19.59,21.839L18.155,21.839L18.155,20.901L22.208,20.901L22.208,21.839ZM24.9,24.051L24.428,22.654C24.393,22.565 24.356,22.462 24.316,22.343C24.276,22.221 24.237,22.091 24.197,21.951C24.162,22.093 24.125,22.225 24.085,22.346C24.045,22.467 24.008,22.572 23.973,22.661L23.504,24.051L24.9,24.051ZM26.78,26L25.863,26C25.76,26 25.677,25.977 25.614,25.93C25.551,25.881 25.504,25.819 25.471,25.744L25.17,24.856L23.231,24.856L22.93,25.744C22.904,25.81 22.858,25.869 22.79,25.923C22.725,25.974 22.643,26 22.545,26L21.621,26L23.595,20.901L24.806,20.901L26.78,26ZM30.15,25.055L30.15,26L27.077,26L27.077,20.901L28.26,20.901L28.26,25.055L30.15,25.055Z" style="fill:rgb(100,100,100);fill-rule:nonzero;"/>
    <path d="M32.5,28.5C32.5,27.948 32.052,27.5 31.5,27.5L2.5,27.5C1.948,27.5 1.5,27.948 1.5,28.5L1.5,33.5C1.5,34.052 1.948,34.5 2.5,34.5L31.5,34.5C32.052,34.5 32.5,34.052 32.5,33.5L32.5,28.5Z" style="fill:none;"/>
    <path d="M32.5,28.5C32.5,27.948 32.052,27.5 31.5,27.5L2.5,27.5C1.948,27.5 1.5,27.948 1.5,28.5L1.5,33.5C1.5,34.052 1.948,34.5 2.5,34.5L31.5,34.5C32.052,34.5 32.5,34.052 32.5,33.5L32.5,28.5Z" style="fill:none;"/>
    <path d="M5.597,32.051L5.124,30.654C5.089,30.565 5.052,30.462 5.012,30.343C4.972,30.221 4.933,30.09 4.893,29.951C4.858,30.093 4.821,30.225 4.781,30.346C4.741,30.467 4.704,30.572 4.669,30.661L4.2,32.051L5.597,32.051ZM7.476,34L6.559,34C6.456,34 6.374,33.977 6.311,33.93C6.248,33.881 6.2,33.819 6.167,33.745L5.866,32.856L3.927,32.856L3.626,33.745C3.6,33.81 3.554,33.869 3.486,33.923C3.421,33.974 3.339,34 3.241,34L2.317,34L4.291,28.901L5.502,28.901L7.476,34ZM12.225,28.901L12.225,34L11.609,34C11.518,34 11.441,33.986 11.378,33.958C11.317,33.928 11.257,33.876 11.196,33.804L8.792,30.763C8.801,30.854 8.807,30.942 8.809,31.029C8.814,31.113 8.816,31.192 8.816,31.267L8.816,34L7.773,34L7.773,28.901L8.396,28.901C8.447,28.901 8.491,28.903 8.526,28.908C8.561,28.912 8.592,28.922 8.62,28.936C8.648,28.947 8.675,28.965 8.701,28.988C8.726,29.011 8.755,29.043 8.788,29.083L11.214,32.145C11.202,32.047 11.194,31.953 11.189,31.862C11.184,31.768 11.182,31.681 11.182,31.599L11.182,28.901L12.225,28.901ZM15.805,32.051L15.332,30.654C15.297,30.565 15.26,30.462 15.22,30.343C15.18,30.221 15.141,30.09 15.101,29.951C15.066,30.093 15.029,30.225 14.989,30.346C14.949,30.467 14.912,30.572 14.877,30.661L14.408,32.051L15.805,32.051ZM17.684,34L16.767,34C16.664,34 16.581,33.977 16.519,33.93C16.456,33.881 16.408,33.819 16.375,33.745L16.074,32.856L14.135,32.856L13.834,33.745C13.808,33.81 13.762,33.869 13.694,33.923C13.629,33.974 13.547,34 13.449,34L12.525,34L14.499,28.901L15.71,28.901L17.684,34ZM21.054,33.055L21.054,34L17.981,34L17.981,28.901L19.164,28.901L19.164,33.055L21.054,33.055ZM26.436,31.449C26.436,31.817 26.372,32.16 26.243,32.478C26.117,32.795 25.939,33.071 25.708,33.307C25.477,33.54 25.198,33.724 24.871,33.856C24.547,33.99 24.186,34.056 23.79,34.056C23.393,34.056 23.031,33.99 22.705,33.856C22.378,33.724 22.098,33.54 21.865,33.307C21.634,33.071 21.454,32.795 21.326,32.478C21.2,32.16 21.137,31.817 21.137,31.449C21.137,31.08 21.2,30.737 21.326,30.42C21.454,30.102 21.634,29.827 21.865,29.594C22.098,29.36 22.378,29.177 22.705,29.044C23.031,28.911 23.393,28.845 23.79,28.845C24.186,28.845 24.547,28.912 24.871,29.048C25.198,29.18 25.477,29.364 25.708,29.597C25.939,29.83 26.117,30.106 26.243,30.423C26.372,30.74 26.436,31.082 26.436,31.449ZM25.225,31.449C25.225,31.197 25.192,30.97 25.127,30.77C25.061,30.567 24.967,30.395 24.843,30.255C24.722,30.115 24.573,30.008 24.395,29.933C24.218,29.858 24.016,29.821 23.79,29.821C23.561,29.821 23.357,29.858 23.177,29.933C23,30.008 22.849,30.115 22.726,30.255C22.604,30.395 22.511,30.567 22.446,30.77C22.38,30.97 22.348,31.197 22.348,31.449C22.348,31.703 22.38,31.932 22.446,32.135C22.511,32.335 22.604,32.505 22.726,32.645C22.849,32.786 23,32.893 23.177,32.968C23.357,33.04 23.561,33.076 23.79,33.076C24.016,33.076 24.218,33.04 24.395,32.968C24.573,32.893 24.722,32.786 24.843,32.645C24.967,32.505 25.061,32.335 25.127,32.135C25.192,31.932 25.225,31.703 25.225,31.449ZM29.477,31.358L31.29,31.358L31.29,33.51C31.029,33.701 30.75,33.84 30.453,33.927C30.159,34.013 29.851,34.056 29.529,34.056C29.109,34.056 28.727,33.991 28.381,33.86C28.038,33.727 27.744,33.545 27.499,33.314C27.254,33.081 27.065,32.805 26.932,32.488C26.799,32.168 26.733,31.822 26.733,31.449C26.733,31.068 26.796,30.719 26.922,30.402C27.048,30.082 27.228,29.807 27.461,29.576C27.697,29.345 27.98,29.165 28.311,29.037C28.645,28.909 29.017,28.845 29.428,28.845C29.64,28.845 29.84,28.862 30.026,28.897C30.213,28.932 30.385,28.98 30.541,29.041C30.7,29.101 30.844,29.174 30.975,29.258C31.106,29.342 31.222,29.433 31.325,29.531L30.982,30.052C30.928,30.134 30.858,30.184 30.772,30.203C30.688,30.221 30.597,30.2 30.499,30.14C30.406,30.084 30.317,30.036 30.233,29.996C30.151,29.954 30.067,29.92 29.981,29.895C29.895,29.869 29.804,29.85 29.708,29.839C29.612,29.827 29.505,29.821 29.386,29.821C29.164,29.821 28.965,29.861 28.787,29.94C28.61,30.017 28.458,30.127 28.332,30.269C28.209,30.411 28.113,30.583 28.045,30.784C27.978,30.982 27.944,31.203 27.944,31.449C27.944,31.719 27.981,31.959 28.056,32.17C28.131,32.38 28.236,32.557 28.371,32.702C28.509,32.846 28.672,32.957 28.861,33.034C29.052,33.109 29.263,33.146 29.494,33.146C29.637,33.146 29.765,33.132 29.879,33.104C29.996,33.076 30.109,33.039 30.219,32.992L30.219,32.218L29.715,32.218C29.64,32.218 29.582,32.199 29.54,32.159C29.498,32.119 29.477,32.069 29.477,32.008L29.477,31.358Z" style="fill:rgb(139,191,64);fill-rule:nonzero;"/>
    <path d="M2.5,19L31.5,19L31.5,18L2.5,18L2.5,19ZM33,20.5L33,33.5L34,33.5L34,20.5L33,20.5ZM31.5,35L2.5,35L2.5,36L31.5,36L31.5,35ZM1,33.5L1,20.5L0,20.5L0,33.5L1,33.5ZM2.5,35C1.672,35 1,34.328 1,33.5L0,33.5C0,34.881 1.119,36 2.5,36L2.5,35ZM33,33.5C33,34.328 32.328,35 31.5,35L31.5,36C32.881,36 34,34.881 34,33.5L33,33.5ZM31.5,19C32.328,19 33,19.672 33,20.5L34,20.5C34,19.119 32.881,18 31.5,18L31.5,19ZM2.5,18C1.119,18 0,19.119 0,20.5L1,20.5C1,19.672 1.672,19 2.5,19L2.5,18Z" style="fill-rule:nonzero;"/>
</svg>
