<?xml version="1.0" encoding="UTF-8" standalone="no"?>
<!DOCTYPE svg PUBLIC "-//W3C//DTD SVG 1.1//EN" "http://www.w3.org/Graphics/SVG/1.1/DTD/svg11.dtd">
<svg width="100%" height="100%" viewBox="0 0 51 117" version="1.1" xmlns="http://www.w3.org/2000/svg" xmlns:xlink="http://www.w3.org/1999/xlink" xml:space="preserve" xmlns:serif="http://www.serif.com/" style="fill-rule:evenodd;clip-rule:evenodd;stroke-linejoin:round;stroke-miterlimit:2;">
    <path d="M0.5,2.5C0.5,1.395 1.395,0.5 2.5,0.5L48.5,0.5C49.605,0.5 50.5,1.395 50.5,2.5L50.5,36.5C50.5,37.605 49.605,38.5 48.5,38.5L2.5,38.5C1.395,38.5 0.5,37.605 0.5,36.5L0.5,2.5Z" style="fill:rgb(36,36,36);fill-rule:nonzero;"/>
    <g transform="matrix(1,0,0,1,2.5,2)">
        <rect x="0" y="0" width="46" height="10" style="fill:rgb(57,157,255);stroke:rgb(139,191,64);stroke-width:1px;"/>
    </g>
    <path d="M48.5,3C48.5,2.448 48.052,2 47.5,2L3.5,2C2.948,2 2.5,2.448 2.5,3L2.5,11C2.5,11.552 2.948,12 3.5,12L47.5,12C48.052,12 48.5,11.552 48.5,11L48.5,3Z" style="fill:rgb(139,191,64);"/>
    <path d="M48.5,3C48.5,2.448 48.052,2 47.5,2L3.5,2C2.948,2 2.5,2.448 2.5,3L2.5,11C2.5,11.552 2.948,12 3.5,12L47.5,12C48.052,12 48.5,11.552 48.5,11L48.5,3Z" style="fill:none;stroke:rgb(139,191,64);stroke-width:1px;stroke-linejoin:miter;stroke-miterlimit:4;"/>
    <g transform="matrix(1,0,0,1,0,-1)">
        <path d="M13.776,5.712L13.776,7.188L15.768,7.188L15.768,8.232L13.776,8.232L13.776,10.5L12.416,10.5L12.416,4.672L16.168,4.672L16.168,5.712L13.776,5.712ZM17.539,6.992C17.667,6.768 17.813,6.592 17.979,6.464C18.147,6.336 18.339,6.272 18.555,6.272C18.741,6.272 18.893,6.316 19.011,6.404L18.931,7.316C18.917,7.375 18.895,7.415 18.863,7.436C18.833,7.457 18.792,7.468 18.739,7.468C18.717,7.468 18.689,7.467 18.655,7.464C18.62,7.461 18.584,7.459 18.547,7.456C18.509,7.451 18.471,7.447 18.431,7.444C18.393,7.439 18.359,7.436 18.327,7.436C18.145,7.436 18,7.484 17.891,7.58C17.784,7.676 17.693,7.809 17.619,7.98L17.619,10.5L16.379,10.5L16.379,6.352L17.115,6.352C17.176,6.352 17.227,6.357 17.267,6.368C17.309,6.379 17.344,6.396 17.371,6.42C17.4,6.441 17.421,6.471 17.435,6.508C17.451,6.545 17.464,6.591 17.475,6.644L17.539,6.992ZM21.823,7.928C21.823,7.829 21.81,7.733 21.783,7.64C21.759,7.547 21.718,7.464 21.659,7.392C21.603,7.317 21.529,7.257 21.435,7.212C21.342,7.167 21.229,7.144 21.095,7.144C20.86,7.144 20.677,7.212 20.543,7.348C20.41,7.481 20.322,7.675 20.279,7.928L21.823,7.928ZM20.263,8.648C20.303,8.995 20.409,9.247 20.579,9.404C20.75,9.559 20.97,9.636 21.239,9.636C21.383,9.636 21.507,9.619 21.611,9.584C21.715,9.549 21.807,9.511 21.887,9.468C21.97,9.425 22.045,9.387 22.111,9.352C22.18,9.317 22.253,9.3 22.327,9.3C22.426,9.3 22.501,9.336 22.551,9.408L22.911,9.852C22.783,9.999 22.645,10.119 22.495,10.212C22.349,10.303 22.197,10.375 22.039,10.428C21.885,10.479 21.729,10.513 21.571,10.532C21.417,10.553 21.269,10.564 21.127,10.564C20.837,10.564 20.563,10.517 20.307,10.424C20.054,10.328 19.831,10.187 19.639,10C19.45,9.813 19.299,9.581 19.187,9.304C19.078,9.027 19.023,8.704 19.023,8.336C19.023,8.059 19.07,7.796 19.163,7.548C19.259,7.3 19.395,7.083 19.571,6.896C19.75,6.709 19.965,6.561 20.215,6.452C20.469,6.343 20.754,6.288 21.071,6.288C21.346,6.288 21.597,6.331 21.823,6.416C22.052,6.501 22.249,6.625 22.411,6.788C22.577,6.951 22.705,7.151 22.795,7.388C22.889,7.623 22.935,7.889 22.935,8.188C22.935,8.281 22.931,8.357 22.923,8.416C22.915,8.475 22.901,8.521 22.879,8.556C22.858,8.591 22.828,8.615 22.791,8.628C22.757,8.641 22.711,8.648 22.655,8.648L20.263,8.648ZM26.016,7.928C26.016,7.829 26.002,7.733 25.976,7.64C25.952,7.547 25.91,7.464 25.852,7.392C25.796,7.317 25.721,7.257 25.628,7.212C25.534,7.167 25.421,7.144 25.288,7.144C25.053,7.144 24.869,7.212 24.736,7.348C24.602,7.481 24.514,7.675 24.472,7.928L26.016,7.928ZM24.456,8.648C24.496,8.995 24.601,9.247 24.772,9.404C24.942,9.559 25.162,9.636 25.432,9.636C25.576,9.636 25.7,9.619 25.804,9.584C25.908,9.549 26,9.511 26.08,9.468C26.162,9.425 26.237,9.387 26.304,9.352C26.373,9.317 26.445,9.3 26.52,9.3C26.618,9.3 26.693,9.336 26.744,9.408L27.104,9.852C26.976,9.999 26.837,10.119 26.688,10.212C26.541,10.303 26.389,10.375 26.232,10.428C26.077,10.479 25.921,10.513 25.764,10.532C25.609,10.553 25.461,10.564 25.32,10.564C25.029,10.564 24.756,10.517 24.5,10.424C24.246,10.328 24.024,10.187 23.832,10C23.642,9.813 23.492,9.581 23.38,9.304C23.27,9.027 23.216,8.704 23.216,8.336C23.216,8.059 23.262,7.796 23.356,7.548C23.452,7.3 23.588,7.083 23.764,6.896C23.942,6.709 24.157,6.561 24.408,6.452C24.661,6.343 24.946,6.288 25.264,6.288C25.538,6.288 25.789,6.331 26.016,6.416C26.245,6.501 26.441,6.625 26.604,6.788C26.769,6.951 26.897,7.151 26.988,7.388C27.081,7.623 27.128,7.889 27.128,8.188C27.128,8.281 27.124,8.357 27.116,8.416C27.108,8.475 27.093,8.521 27.072,8.556C27.05,8.591 27.021,8.615 26.984,8.628C26.949,8.641 26.904,8.648 26.848,8.648L24.456,8.648ZM28.788,6.992C28.916,6.768 29.063,6.592 29.228,6.464C29.396,6.336 29.588,6.272 29.804,6.272C29.991,6.272 30.143,6.316 30.26,6.404L30.18,7.316C30.167,7.375 30.144,7.415 30.112,7.436C30.083,7.457 30.042,7.468 29.988,7.468C29.967,7.468 29.939,7.467 29.904,7.464C29.869,7.461 29.834,7.459 29.796,7.456C29.759,7.451 29.72,7.447 29.68,7.444C29.643,7.439 29.608,7.436 29.576,7.436C29.395,7.436 29.25,7.484 29.14,7.58C29.034,7.676 28.943,7.809 28.868,7.98L28.868,10.5L27.628,10.5L27.628,6.352L28.364,6.352C28.426,6.352 28.476,6.357 28.516,6.368C28.559,6.379 28.594,6.396 28.62,6.42C28.65,6.441 28.671,6.471 28.684,6.508C28.7,6.545 28.714,6.591 28.724,6.644L28.788,6.992ZM34.283,6.352L34.283,10.5L33.515,10.5C33.36,10.5 33.259,10.431 33.211,10.292L33.139,10.052C33.059,10.129 32.976,10.2 32.891,10.264C32.806,10.325 32.714,10.379 32.615,10.424C32.519,10.467 32.414,10.5 32.299,10.524C32.187,10.551 32.064,10.564 31.931,10.564C31.704,10.564 31.503,10.525 31.327,10.448C31.154,10.368 31.007,10.257 30.887,10.116C30.767,9.975 30.676,9.808 30.615,9.616C30.554,9.424 30.523,9.213 30.523,8.984L30.523,6.352L31.763,6.352L31.763,8.984C31.763,9.189 31.81,9.348 31.903,9.46C31.996,9.572 32.133,9.628 32.315,9.628C32.451,9.628 32.578,9.6 32.695,9.544C32.815,9.485 32.931,9.407 33.043,9.308L33.043,6.352L34.283,6.352ZM36.149,6.8C36.229,6.725 36.312,6.656 36.397,6.592C36.483,6.528 36.573,6.475 36.669,6.432C36.768,6.387 36.873,6.352 36.985,6.328C37.1,6.301 37.224,6.288 37.357,6.288C37.584,6.288 37.784,6.328 37.957,6.408C38.133,6.485 38.281,6.595 38.401,6.736C38.521,6.875 38.612,7.041 38.673,7.236C38.735,7.428 38.765,7.637 38.765,7.864L38.765,10.5L37.525,10.5L37.525,7.864C37.525,7.661 37.479,7.504 37.385,7.392C37.292,7.277 37.155,7.22 36.973,7.22C36.837,7.22 36.709,7.249 36.589,7.308C36.472,7.364 36.357,7.441 36.245,7.54L36.245,10.5L35.005,10.5L35.005,6.352L35.773,6.352C35.928,6.352 36.029,6.421 36.077,6.56L36.149,6.8Z" style="fill:rgb(36,36,36);fill-rule:nonzero;"/>
    </g>
    <g opacity="0.75">
        <g transform="matrix(-3.82857e-16,-1,1,-3.82857e-16,-10.75,16.75)">
            <rect x="3" y="13.75" width="1" height="45"/>
        </g>
    </g>
    <g transform="matrix(1,0,0,1,0,-1)">
        <path d="M8.979,19.532L9.195,19.532C9.395,19.532 9.539,19.469 9.627,19.344L10.939,17.44C11.017,17.339 11.099,17.269 11.187,17.232C11.278,17.192 11.39,17.172 11.523,17.172L12.699,17.172L10.971,19.528C10.849,19.691 10.717,19.808 10.575,19.88C10.677,19.917 10.769,19.969 10.851,20.036C10.934,20.103 11.011,20.189 11.083,20.296L12.843,23L11.635,23C11.558,23 11.491,22.995 11.435,22.984C11.382,22.973 11.335,22.957 11.295,22.936C11.255,22.915 11.221,22.889 11.191,22.86C11.162,22.828 11.134,22.792 11.107,22.752L9.787,20.724C9.739,20.649 9.678,20.597 9.603,20.568C9.531,20.536 9.433,20.52 9.307,20.52L8.979,20.52L8.979,23L7.627,23L7.627,17.172L8.979,17.172L8.979,19.532ZM15.303,20.428C15.303,20.329 15.29,20.233 15.263,20.14C15.239,20.047 15.198,19.964 15.139,19.892C15.083,19.817 15.008,19.757 14.915,19.712C14.822,19.667 14.708,19.644 14.575,19.644C14.34,19.644 14.156,19.712 14.023,19.848C13.89,19.981 13.802,20.175 13.759,20.428L15.303,20.428ZM13.743,21.148C13.783,21.495 13.888,21.747 14.059,21.904C14.23,22.059 14.45,22.136 14.719,22.136C14.863,22.136 14.987,22.119 15.091,22.084C15.195,22.049 15.287,22.011 15.367,21.968C15.45,21.925 15.524,21.887 15.591,21.852C15.66,21.817 15.732,21.8 15.807,21.8C15.906,21.8 15.98,21.836 16.031,21.908L16.391,22.352C16.263,22.499 16.124,22.619 15.975,22.712C15.828,22.803 15.676,22.875 15.519,22.928C15.364,22.979 15.208,23.013 15.051,23.032C14.896,23.053 14.748,23.064 14.607,23.064C14.316,23.064 14.043,23.017 13.787,22.924C13.534,22.828 13.311,22.687 13.119,22.5C12.93,22.313 12.779,22.081 12.667,21.804C12.557,21.527 12.503,21.204 12.503,20.836C12.503,20.559 12.55,20.296 12.643,20.048C12.739,19.8 12.875,19.583 13.051,19.396C13.23,19.209 13.444,19.061 13.695,18.952C13.948,18.843 14.233,18.788 14.551,18.788C14.826,18.788 15.076,18.831 15.303,18.916C15.532,19.001 15.728,19.125 15.891,19.288C16.056,19.451 16.184,19.651 16.275,19.888C16.368,20.123 16.415,20.389 16.415,20.688C16.415,20.781 16.411,20.857 16.403,20.916C16.395,20.975 16.38,21.021 16.359,21.056C16.337,21.091 16.308,21.115 16.271,21.128C16.236,21.141 16.191,21.148 16.135,21.148L13.743,21.148ZM20.723,18.852L18.507,24.076C18.469,24.159 18.424,24.219 18.371,24.256C18.317,24.296 18.232,24.316 18.115,24.316L17.187,24.316L17.987,22.636L16.331,18.852L17.427,18.852C17.523,18.852 17.596,18.873 17.647,18.916C17.7,18.959 17.738,19.009 17.763,19.068L18.443,20.856C18.507,21.019 18.559,21.185 18.599,21.356C18.628,21.271 18.657,21.185 18.687,21.1C18.716,21.015 18.747,20.931 18.779,20.848L19.395,19.068C19.419,19.007 19.461,18.956 19.523,18.916C19.584,18.873 19.651,18.852 19.723,18.852L20.723,18.852ZM22.451,23.064C22.254,23.064 22.079,23.036 21.927,22.98C21.778,22.921 21.651,22.84 21.547,22.736C21.446,22.629 21.369,22.501 21.315,22.352C21.262,22.203 21.235,22.036 21.235,21.852L21.235,19.708L20.883,19.708C20.819,19.708 20.765,19.688 20.719,19.648C20.674,19.605 20.651,19.544 20.651,19.464L20.651,18.98L21.311,18.852L21.555,17.84C21.587,17.712 21.678,17.648 21.827,17.648L22.475,17.648L22.475,18.86L23.503,18.86L23.503,19.708L22.475,19.708L22.475,21.768C22.475,21.864 22.498,21.944 22.543,22.008C22.591,22.069 22.659,22.1 22.747,22.1C22.793,22.1 22.83,22.096 22.859,22.088C22.891,22.077 22.918,22.067 22.939,22.056C22.963,22.043 22.985,22.032 23.003,22.024C23.025,22.013 23.049,22.008 23.075,22.008C23.113,22.008 23.142,22.017 23.163,22.036C23.187,22.052 23.211,22.079 23.235,22.116L23.611,22.704C23.451,22.824 23.271,22.915 23.071,22.976C22.871,23.035 22.665,23.064 22.451,23.064ZM25.078,19.492C25.206,19.268 25.352,19.092 25.517,18.964C25.686,18.836 25.878,18.772 26.094,18.772C26.28,18.772 26.432,18.816 26.549,18.904L26.47,19.816C26.456,19.875 26.433,19.915 26.401,19.936C26.372,19.957 26.331,19.968 26.278,19.968C26.256,19.968 26.228,19.967 26.194,19.964C26.159,19.961 26.123,19.959 26.086,19.956C26.048,19.951 26.01,19.947 25.97,19.944C25.932,19.939 25.898,19.936 25.866,19.936C25.684,19.936 25.539,19.984 25.43,20.08C25.323,20.176 25.232,20.309 25.158,20.48L25.158,23L23.918,23L23.918,18.852L24.654,18.852C24.715,18.852 24.766,18.857 24.805,18.868C24.848,18.879 24.883,18.896 24.91,18.92C24.939,18.941 24.96,18.971 24.974,19.008C24.99,19.045 25.003,19.091 25.014,19.144L25.078,19.492ZM28.12,18.852L28.12,23L26.88,23L26.88,18.852L28.12,18.852ZM28.248,17.716C28.248,17.815 28.228,17.908 28.188,17.996C28.148,18.081 28.094,18.157 28.024,18.224C27.955,18.288 27.874,18.34 27.78,18.38C27.69,18.417 27.592,18.436 27.488,18.436C27.387,18.436 27.292,18.417 27.204,18.38C27.116,18.34 27.038,18.288 26.968,18.224C26.901,18.157 26.848,18.081 26.808,17.996C26.771,17.908 26.752,17.815 26.752,17.716C26.752,17.615 26.771,17.52 26.808,17.432C26.848,17.344 26.901,17.267 26.968,17.2C27.038,17.133 27.116,17.081 27.204,17.044C27.292,17.007 27.387,16.988 27.488,16.988C27.592,16.988 27.69,17.007 27.78,17.044C27.874,17.081 27.955,17.133 28.024,17.2C28.094,17.267 28.148,17.344 28.188,17.432C28.228,17.52 28.248,17.615 28.248,17.716ZM30.445,20.708C30.65,20.708 30.798,20.657 30.889,20.556C30.982,20.452 31.029,20.319 31.029,20.156C31.029,19.988 30.982,19.856 30.889,19.76C30.798,19.664 30.65,19.616 30.445,19.616C30.24,19.616 30.09,19.664 29.997,19.76C29.906,19.856 29.861,19.988 29.861,20.156C29.861,20.236 29.872,20.309 29.893,20.376C29.917,20.443 29.953,20.501 30.001,20.552C30.049,20.6 30.109,20.639 30.181,20.668C30.256,20.695 30.344,20.708 30.445,20.708ZM31.405,23.152C31.405,23.053 31.361,22.983 31.273,22.94C31.185,22.895 31.07,22.863 30.929,22.844C30.788,22.825 30.629,22.815 30.453,22.812C30.28,22.807 30.106,22.796 29.933,22.78C29.856,22.833 29.792,22.893 29.741,22.96C29.693,23.024 29.669,23.097 29.669,23.18C29.669,23.239 29.681,23.292 29.705,23.34C29.732,23.388 29.777,23.429 29.841,23.464C29.905,23.499 29.99,23.525 30.097,23.544C30.206,23.565 30.344,23.576 30.509,23.576C30.688,23.576 30.834,23.565 30.949,23.544C31.064,23.523 31.154,23.493 31.221,23.456C31.29,23.419 31.338,23.373 31.365,23.32C31.392,23.269 31.405,23.213 31.405,23.152ZM32.629,18.98L32.629,19.432C32.629,19.501 32.609,19.556 32.569,19.596C32.532,19.636 32.466,19.667 32.373,19.688L32.073,19.756C32.089,19.815 32.101,19.875 32.109,19.936C32.12,19.997 32.125,20.061 32.125,20.128C32.125,20.336 32.081,20.523 31.993,20.688C31.908,20.853 31.789,20.995 31.637,21.112C31.488,21.227 31.31,21.316 31.105,21.38C30.9,21.441 30.68,21.472 30.445,21.472C30.381,21.472 30.318,21.471 30.257,21.468C30.196,21.463 30.136,21.455 30.077,21.444C29.986,21.5 29.941,21.563 29.941,21.632C29.941,21.701 29.978,21.752 30.053,21.784C30.128,21.813 30.226,21.835 30.349,21.848C30.472,21.859 30.61,21.867 30.765,21.872C30.922,21.875 31.082,21.884 31.245,21.9C31.408,21.913 31.566,21.937 31.721,21.972C31.878,22.007 32.018,22.063 32.141,22.14C32.264,22.217 32.362,22.321 32.437,22.452C32.512,22.58 32.549,22.744 32.549,22.944C32.549,23.131 32.504,23.313 32.413,23.492C32.322,23.671 32.189,23.829 32.013,23.968C31.837,24.107 31.621,24.217 31.365,24.3C31.109,24.385 30.816,24.428 30.485,24.428C30.16,24.428 29.878,24.397 29.641,24.336C29.406,24.275 29.21,24.193 29.053,24.092C28.898,23.993 28.784,23.879 28.709,23.748C28.634,23.617 28.597,23.481 28.597,23.34C28.597,23.156 28.65,23.003 28.757,22.88C28.864,22.757 29.013,22.659 29.205,22.584C29.104,22.523 29.024,22.444 28.965,22.348C28.906,22.252 28.877,22.128 28.877,21.976C28.877,21.915 28.888,21.851 28.909,21.784C28.93,21.715 28.964,21.648 29.009,21.584C29.057,21.517 29.116,21.455 29.185,21.396C29.254,21.337 29.337,21.285 29.433,21.24C29.217,21.125 29.046,20.975 28.921,20.788C28.796,20.599 28.733,20.379 28.733,20.128C28.733,19.92 28.777,19.733 28.865,19.568C28.953,19.4 29.073,19.259 29.225,19.144C29.38,19.027 29.561,18.937 29.769,18.876C29.977,18.812 30.202,18.78 30.445,18.78C30.797,18.78 31.109,18.847 31.381,18.98L32.629,18.98ZM34.606,20.708C34.812,20.708 34.96,20.657 35.05,20.556C35.144,20.452 35.19,20.319 35.19,20.156C35.19,19.988 35.144,19.856 35.05,19.76C34.96,19.664 34.812,19.616 34.606,19.616C34.401,19.616 34.252,19.664 34.158,19.76C34.068,19.856 34.022,19.988 34.022,20.156C34.022,20.236 34.033,20.309 34.054,20.376C34.078,20.443 34.114,20.501 34.162,20.552C34.21,20.6 34.27,20.639 34.342,20.668C34.417,20.695 34.505,20.708 34.606,20.708ZM35.566,23.152C35.566,23.053 35.522,22.983 35.434,22.94C35.346,22.895 35.232,22.863 35.09,22.844C34.949,22.825 34.79,22.815 34.614,22.812C34.441,22.807 34.268,22.796 34.094,22.78C34.017,22.833 33.953,22.893 33.902,22.96C33.854,23.024 33.83,23.097 33.83,23.18C33.83,23.239 33.842,23.292 33.866,23.34C33.893,23.388 33.938,23.429 34.002,23.464C34.066,23.499 34.152,23.525 34.258,23.544C34.368,23.565 34.505,23.576 34.67,23.576C34.849,23.576 34.996,23.565 35.11,23.544C35.225,23.523 35.316,23.493 35.382,23.456C35.452,23.419 35.5,23.373 35.526,23.32C35.553,23.269 35.566,23.213 35.566,23.152ZM36.79,18.98L36.79,19.432C36.79,19.501 36.77,19.556 36.73,19.596C36.693,19.636 36.628,19.667 36.534,19.688L36.234,19.756C36.25,19.815 36.262,19.875 36.27,19.936C36.281,19.997 36.286,20.061 36.286,20.128C36.286,20.336 36.242,20.523 36.154,20.688C36.069,20.853 35.95,20.995 35.798,21.112C35.649,21.227 35.472,21.316 35.266,21.38C35.061,21.441 34.841,21.472 34.606,21.472C34.542,21.472 34.48,21.471 34.418,21.468C34.357,21.463 34.297,21.455 34.238,21.444C34.148,21.5 34.102,21.563 34.102,21.632C34.102,21.701 34.14,21.752 34.214,21.784C34.289,21.813 34.388,21.835 34.51,21.848C34.633,21.859 34.772,21.867 34.926,21.872C35.084,21.875 35.244,21.884 35.406,21.9C35.569,21.913 35.728,21.937 35.882,21.972C36.04,22.007 36.18,22.063 36.302,22.14C36.425,22.217 36.524,22.321 36.598,22.452C36.673,22.58 36.71,22.744 36.71,22.944C36.71,23.131 36.665,23.313 36.574,23.492C36.484,23.671 36.35,23.829 36.174,23.968C35.998,24.107 35.782,24.217 35.526,24.3C35.27,24.385 34.977,24.428 34.646,24.428C34.321,24.428 34.04,24.397 33.802,24.336C33.568,24.275 33.372,24.193 33.214,24.092C33.06,23.993 32.945,23.879 32.87,23.748C32.796,23.617 32.758,23.481 32.758,23.34C32.758,23.156 32.812,23.003 32.918,22.88C33.025,22.757 33.174,22.659 33.366,22.584C33.265,22.523 33.185,22.444 33.126,22.348C33.068,22.252 33.038,22.128 33.038,21.976C33.038,21.915 33.049,21.851 33.07,21.784C33.092,21.715 33.125,21.648 33.17,21.584C33.218,21.517 33.277,21.455 33.346,21.396C33.416,21.337 33.498,21.285 33.594,21.24C33.378,21.125 33.208,20.975 33.082,20.788C32.957,20.599 32.894,20.379 32.894,20.128C32.894,19.92 32.938,19.733 33.026,19.568C33.114,19.4 33.234,19.259 33.386,19.144C33.541,19.027 33.722,18.937 33.93,18.876C34.138,18.812 34.364,18.78 34.606,18.78C34.958,18.78 35.27,18.847 35.542,18.98L36.79,18.98ZM39.689,20.428C39.689,20.329 39.676,20.233 39.649,20.14C39.625,20.047 39.584,19.964 39.525,19.892C39.469,19.817 39.395,19.757 39.301,19.712C39.208,19.667 39.095,19.644 38.961,19.644C38.727,19.644 38.543,19.712 38.409,19.848C38.276,19.981 38.188,20.175 38.145,20.428L39.689,20.428ZM38.129,21.148C38.169,21.495 38.275,21.747 38.445,21.904C38.616,22.059 38.836,22.136 39.105,22.136C39.249,22.136 39.373,22.119 39.477,22.084C39.581,22.049 39.673,22.011 39.753,21.968C39.836,21.925 39.911,21.887 39.977,21.852C40.047,21.817 40.119,21.8 40.193,21.8C40.292,21.8 40.367,21.836 40.417,21.908L40.777,22.352C40.649,22.499 40.511,22.619 40.361,22.712C40.215,22.803 40.063,22.875 39.905,22.928C39.751,22.979 39.595,23.013 39.437,23.032C39.283,23.053 39.135,23.064 38.993,23.064C38.703,23.064 38.429,23.017 38.173,22.924C37.92,22.828 37.697,22.687 37.505,22.5C37.316,22.313 37.165,22.081 37.053,21.804C36.944,21.527 36.889,21.204 36.889,20.836C36.889,20.559 36.936,20.296 37.029,20.048C37.125,19.8 37.261,19.583 37.437,19.396C37.616,19.209 37.831,19.061 38.081,18.952C38.335,18.843 38.62,18.788 38.937,18.788C39.212,18.788 39.463,18.831 39.689,18.916C39.919,19.001 40.115,19.125 40.277,19.288C40.443,19.451 40.571,19.651 40.661,19.888C40.755,20.123 40.801,20.389 40.801,20.688C40.801,20.781 40.797,20.857 40.789,20.916C40.781,20.975 40.767,21.021 40.745,21.056C40.724,21.091 40.695,21.115 40.657,21.128C40.623,21.141 40.577,21.148 40.521,21.148L38.129,21.148ZM42.462,19.492C42.59,19.268 42.737,19.092 42.902,18.964C43.07,18.836 43.262,18.772 43.478,18.772C43.664,18.772 43.817,18.816 43.934,18.904L43.854,19.816C43.841,19.875 43.818,19.915 43.786,19.936C43.757,19.957 43.715,19.968 43.662,19.968C43.641,19.968 43.612,19.967 43.578,19.964C43.543,19.961 43.507,19.959 43.47,19.956C43.433,19.951 43.394,19.947 43.354,19.944C43.317,19.939 43.282,19.936 43.25,19.936C43.069,19.936 42.923,19.984 42.814,20.08C42.707,20.176 42.617,20.309 42.542,20.48L42.542,23L41.302,23L41.302,18.852L42.038,18.852C42.099,18.852 42.15,18.857 42.19,18.868C42.233,18.879 42.267,18.896 42.294,18.92C42.323,18.941 42.344,18.971 42.358,19.008C42.374,19.045 42.387,19.091 42.398,19.144L42.462,19.492Z" style="fill:rgb(180,180,180);fill-rule:nonzero;"/>
    </g>
    <g opacity="0.75">
        <g transform="matrix(-3.82857e-16,-1,1,-3.82857e-16,-23.25,29.25)">
            <rect x="3" y="26.25" width="1" height="45"/>
        </g>
    </g>
    <g transform="matrix(1,0,0,1,0,-1)">
        <path d="M13.291,32.412C13.475,32.412 13.631,32.389 13.759,32.344C13.89,32.296 13.997,32.231 14.079,32.148C14.162,32.065 14.222,31.969 14.259,31.86C14.297,31.748 14.315,31.628 14.315,31.5C14.315,31.244 14.231,31.044 14.063,30.9C13.898,30.756 13.641,30.684 13.291,30.684L12.747,30.684L12.747,32.412L13.291,32.412ZM16.163,35.5L14.939,35.5C14.713,35.5 14.55,35.415 14.451,35.244L13.483,33.552C13.438,33.48 13.387,33.428 13.331,33.396C13.275,33.361 13.195,33.344 13.091,33.344L12.747,33.344L12.747,35.5L11.395,35.5L11.395,29.672L13.291,29.672C13.713,29.672 14.071,29.716 14.367,29.804C14.666,29.889 14.909,30.009 15.095,30.164C15.285,30.319 15.422,30.501 15.507,30.712C15.593,30.923 15.635,31.152 15.635,31.4C15.635,31.589 15.61,31.768 15.559,31.936C15.509,32.104 15.434,32.26 15.335,32.404C15.237,32.545 15.114,32.672 14.967,32.784C14.823,32.896 14.657,32.988 14.467,33.06C14.555,33.105 14.638,33.163 14.715,33.232C14.793,33.299 14.862,33.379 14.923,33.472L16.163,35.5ZM18.459,33.812C18.211,33.823 18.007,33.844 17.847,33.876C17.687,33.908 17.56,33.948 17.467,33.996C17.373,34.044 17.308,34.099 17.271,34.16C17.236,34.221 17.219,34.288 17.219,34.36C17.219,34.501 17.257,34.601 17.335,34.66C17.412,34.716 17.525,34.744 17.675,34.744C17.835,34.744 17.975,34.716 18.095,34.66C18.215,34.604 18.336,34.513 18.459,34.388L18.459,33.812ZM16.227,31.928C16.477,31.707 16.755,31.543 17.059,31.436C17.365,31.327 17.693,31.272 18.043,31.272C18.293,31.272 18.519,31.313 18.719,31.396C18.921,31.476 19.092,31.589 19.231,31.736C19.372,31.88 19.48,32.052 19.555,32.252C19.629,32.452 19.667,32.671 19.667,32.908L19.667,35.5L19.099,35.5C18.981,35.5 18.892,35.484 18.831,35.452C18.772,35.42 18.723,35.353 18.683,35.252L18.595,35.024C18.491,35.112 18.391,35.189 18.295,35.256C18.199,35.323 18.099,35.38 17.995,35.428C17.893,35.473 17.784,35.507 17.667,35.528C17.552,35.552 17.424,35.564 17.283,35.564C17.093,35.564 16.921,35.54 16.767,35.492C16.612,35.441 16.48,35.368 16.371,35.272C16.264,35.176 16.181,35.057 16.123,34.916C16.064,34.772 16.035,34.607 16.035,34.42C16.035,34.271 16.072,34.12 16.147,33.968C16.221,33.813 16.351,33.673 16.535,33.548C16.719,33.42 16.967,33.313 17.279,33.228C17.591,33.143 17.984,33.095 18.459,33.084L18.459,32.908C18.459,32.665 18.408,32.491 18.307,32.384C18.208,32.275 18.067,32.22 17.883,32.22C17.736,32.22 17.616,32.236 17.523,32.268C17.429,32.3 17.345,32.336 17.271,32.376C17.199,32.416 17.128,32.452 17.059,32.484C16.989,32.516 16.907,32.532 16.811,32.532C16.725,32.532 16.653,32.511 16.595,32.468C16.536,32.425 16.488,32.375 16.451,32.316L16.227,31.928ZM21.483,31.8C21.563,31.725 21.646,31.656 21.731,31.592C21.817,31.528 21.907,31.475 22.003,31.432C22.102,31.387 22.207,31.352 22.319,31.328C22.434,31.301 22.558,31.288 22.691,31.288C22.918,31.288 23.118,31.328 23.291,31.408C23.467,31.485 23.615,31.595 23.735,31.736C23.855,31.875 23.946,32.041 24.007,32.236C24.069,32.428 24.099,32.637 24.099,32.864L24.099,35.5L22.859,35.5L22.859,32.864C22.859,32.661 22.813,32.504 22.719,32.392C22.626,32.277 22.489,32.22 22.307,32.22C22.171,32.22 22.043,32.249 21.923,32.308C21.806,32.364 21.691,32.441 21.579,32.54L21.579,35.5L20.339,35.5L20.339,31.352L21.107,31.352C21.262,31.352 21.363,31.421 21.411,31.56L21.483,31.8ZM27.298,32.464C27.205,32.36 27.103,32.288 26.994,32.248C26.885,32.205 26.77,32.184 26.65,32.184C26.535,32.184 26.43,32.207 26.334,32.252C26.238,32.297 26.154,32.371 26.082,32.472C26.013,32.571 25.958,32.7 25.918,32.86C25.878,33.02 25.858,33.213 25.858,33.44C25.858,33.659 25.874,33.843 25.906,33.992C25.938,34.141 25.982,34.263 26.038,34.356C26.097,34.447 26.166,34.512 26.246,34.552C26.326,34.592 26.415,34.612 26.514,34.612C26.605,34.612 26.686,34.604 26.758,34.588C26.833,34.569 26.901,34.544 26.962,34.512C27.023,34.48 27.081,34.44 27.134,34.392C27.19,34.341 27.244,34.284 27.298,34.22L27.298,32.464ZM28.538,29.512L28.538,35.5L27.77,35.5C27.615,35.5 27.514,35.431 27.466,35.292L27.37,34.976C27.287,35.064 27.201,35.144 27.11,35.216C27.019,35.288 26.921,35.351 26.814,35.404C26.71,35.455 26.597,35.493 26.474,35.52C26.354,35.549 26.223,35.564 26.082,35.564C25.866,35.564 25.666,35.516 25.482,35.42C25.298,35.324 25.139,35.185 25.006,35.004C24.873,34.823 24.767,34.601 24.69,34.34C24.615,34.076 24.578,33.776 24.578,33.44C24.578,33.131 24.621,32.844 24.706,32.58C24.791,32.313 24.911,32.084 25.066,31.892C25.223,31.697 25.411,31.545 25.63,31.436C25.849,31.327 26.09,31.272 26.354,31.272C26.57,31.272 26.751,31.303 26.898,31.364C27.045,31.425 27.178,31.508 27.298,31.612L27.298,29.512L28.538,29.512ZM31.168,31.288C31.482,31.288 31.769,31.337 32.028,31.436C32.286,31.535 32.508,31.676 32.692,31.86C32.878,32.044 33.022,32.268 33.124,32.532C33.228,32.793 33.28,33.088 33.28,33.416C33.28,33.747 33.228,34.045 33.124,34.312C33.022,34.576 32.878,34.801 32.692,34.988C32.508,35.172 32.286,35.315 32.028,35.416C31.769,35.515 31.482,35.564 31.168,35.564C30.85,35.564 30.561,35.515 30.3,35.416C30.041,35.315 29.817,35.172 29.628,34.988C29.441,34.801 29.296,34.576 29.192,34.312C29.09,34.045 29.04,33.747 29.04,33.416C29.04,33.088 29.09,32.793 29.192,32.532C29.296,32.268 29.441,32.044 29.628,31.86C29.817,31.676 30.041,31.535 30.3,31.436C30.561,31.337 30.85,31.288 31.168,31.288ZM31.168,34.644C31.453,34.644 31.662,34.544 31.796,34.344C31.932,34.141 32,33.835 32,33.424C32,33.013 31.932,32.708 31.796,32.508C31.662,32.308 31.453,32.208 31.168,32.208C30.874,32.208 30.66,32.308 30.524,32.508C30.388,32.708 30.32,33.013 30.32,33.424C30.32,33.835 30.388,34.141 30.524,34.344C30.66,34.544 30.874,34.644 31.168,34.644ZM33.784,35.5L33.784,31.352L34.552,31.352C34.707,31.352 34.808,31.421 34.856,31.56L34.924,31.784C34.993,31.712 35.065,31.647 35.14,31.588C35.215,31.527 35.295,31.475 35.38,31.432C35.468,31.387 35.561,31.352 35.66,31.328C35.761,31.301 35.872,31.288 35.992,31.288C36.243,31.288 36.449,31.353 36.612,31.484C36.777,31.612 36.903,31.784 36.988,32C37.057,31.872 37.141,31.763 37.24,31.672C37.341,31.581 37.449,31.508 37.564,31.452C37.681,31.396 37.804,31.355 37.932,31.328C38.063,31.301 38.192,31.288 38.32,31.288C38.557,31.288 38.768,31.324 38.952,31.396C39.136,31.465 39.289,31.568 39.412,31.704C39.537,31.837 39.632,32.003 39.696,32.2C39.76,32.395 39.792,32.616 39.792,32.864L39.792,35.5L38.552,35.5L38.552,32.864C38.552,32.435 38.368,32.22 38,32.22C37.832,32.22 37.692,32.276 37.58,32.388C37.471,32.497 37.416,32.656 37.416,32.864L37.416,35.5L36.176,35.5L36.176,32.864C36.176,32.627 36.129,32.46 36.036,32.364C35.943,32.268 35.805,32.22 35.624,32.22C35.512,32.22 35.405,32.245 35.304,32.296C35.205,32.347 35.112,32.415 35.024,32.5L35.024,35.5L33.784,35.5Z" style="fill:rgb(180,180,180);fill-rule:nonzero;"/>
    </g>
    <path d="M2.5,1L48.5,1L48.5,0L2.5,0L2.5,1ZM50,2.5L50,36.5L51,36.5L51,2.5L50,2.5ZM48.5,38L2.5,38L2.5,39L48.5,39L48.5,38ZM1,36.5L1,2.5L0,2.5L0,36.5L1,36.5ZM2.5,38C1.672,38 1,37.328 1,36.5L0,36.5C0,37.881 1.119,39 2.5,39L2.5,38ZM50,36.5C50,37.328 49.328,38 48.5,38L48.5,39C49.881,39 51,37.881 51,36.5L50,36.5ZM48.5,1C49.328,1 50,1.672 50,2.5L51,2.5C51,1.119 49.881,0 48.5,0L48.5,1ZM2.5,0C1.119,0 0,1.119 0,2.5L1,2.5C1,1.672 1.672,1 2.5,1L2.5,0Z" style="fill-rule:nonzero;"/>
    <path d="M0.5,41.5C0.5,40.395 1.395,39.5 2.5,39.5L48.5,39.5C49.605,39.5 50.5,40.395 50.5,41.5L50.5,75.5C50.5,76.605 49.605,77.5 48.5,77.5L2.5,77.5C1.395,77.5 0.5,76.605 0.5,75.5L0.5,41.5Z" style="fill:rgb(36,36,36);fill-rule:nonzero;"/>
    <g transform="matrix(1,0,0,1,0,-1)">
        <path d="M13.776,44.712L13.776,46.188L15.768,46.188L15.768,47.232L13.776,47.232L13.776,49.5L12.416,49.5L12.416,43.672L16.168,43.672L16.168,44.712L13.776,44.712ZM17.539,45.992C17.667,45.768 17.813,45.592 17.979,45.464C18.147,45.336 18.339,45.272 18.555,45.272C18.741,45.272 18.893,45.316 19.011,45.404L18.931,46.316C18.917,46.375 18.895,46.415 18.863,46.436C18.833,46.457 18.792,46.468 18.739,46.468C18.717,46.468 18.689,46.467 18.655,46.464C18.62,46.461 18.584,46.459 18.547,46.456C18.509,46.451 18.471,46.447 18.431,46.444C18.393,46.439 18.359,46.436 18.327,46.436C18.145,46.436 18,46.484 17.891,46.58C17.784,46.676 17.693,46.809 17.619,46.98L17.619,49.5L16.379,49.5L16.379,45.352L17.115,45.352C17.176,45.352 17.227,45.357 17.267,45.368C17.309,45.379 17.344,45.396 17.371,45.42C17.4,45.441 17.421,45.471 17.435,45.508C17.451,45.545 17.464,45.591 17.475,45.644L17.539,45.992ZM21.823,46.928C21.823,46.829 21.81,46.733 21.783,46.64C21.759,46.547 21.718,46.464 21.659,46.392C21.603,46.317 21.529,46.257 21.435,46.212C21.342,46.167 21.229,46.144 21.095,46.144C20.86,46.144 20.677,46.212 20.543,46.348C20.41,46.481 20.322,46.675 20.279,46.928L21.823,46.928ZM20.263,47.648C20.303,47.995 20.409,48.247 20.579,48.404C20.75,48.559 20.97,48.636 21.239,48.636C21.383,48.636 21.507,48.619 21.611,48.584C21.715,48.549 21.807,48.511 21.887,48.468C21.97,48.425 22.045,48.387 22.111,48.352C22.18,48.317 22.253,48.3 22.327,48.3C22.426,48.3 22.501,48.336 22.551,48.408L22.911,48.852C22.783,48.999 22.645,49.119 22.495,49.212C22.349,49.303 22.197,49.375 22.039,49.428C21.885,49.479 21.729,49.513 21.571,49.532C21.417,49.553 21.269,49.564 21.127,49.564C20.837,49.564 20.563,49.517 20.307,49.424C20.054,49.328 19.831,49.187 19.639,49C19.45,48.813 19.299,48.581 19.187,48.304C19.078,48.027 19.023,47.704 19.023,47.336C19.023,47.059 19.07,46.796 19.163,46.548C19.259,46.3 19.395,46.083 19.571,45.896C19.75,45.709 19.965,45.561 20.215,45.452C20.469,45.343 20.754,45.288 21.071,45.288C21.346,45.288 21.597,45.331 21.823,45.416C22.052,45.501 22.249,45.625 22.411,45.788C22.577,45.951 22.705,46.151 22.795,46.388C22.889,46.623 22.935,46.889 22.935,47.188C22.935,47.281 22.931,47.357 22.923,47.416C22.915,47.475 22.901,47.521 22.879,47.556C22.858,47.591 22.828,47.615 22.791,47.628C22.757,47.641 22.711,47.648 22.655,47.648L20.263,47.648ZM26.016,46.928C26.016,46.829 26.002,46.733 25.976,46.64C25.952,46.547 25.91,46.464 25.852,46.392C25.796,46.317 25.721,46.257 25.628,46.212C25.534,46.167 25.421,46.144 25.288,46.144C25.053,46.144 24.869,46.212 24.736,46.348C24.602,46.481 24.514,46.675 24.472,46.928L26.016,46.928ZM24.456,47.648C24.496,47.995 24.601,48.247 24.772,48.404C24.942,48.559 25.162,48.636 25.432,48.636C25.576,48.636 25.7,48.619 25.804,48.584C25.908,48.549 26,48.511 26.08,48.468C26.162,48.425 26.237,48.387 26.304,48.352C26.373,48.317 26.445,48.3 26.52,48.3C26.618,48.3 26.693,48.336 26.744,48.408L27.104,48.852C26.976,48.999 26.837,49.119 26.688,49.212C26.541,49.303 26.389,49.375 26.232,49.428C26.077,49.479 25.921,49.513 25.764,49.532C25.609,49.553 25.461,49.564 25.32,49.564C25.029,49.564 24.756,49.517 24.5,49.424C24.246,49.328 24.024,49.187 23.832,49C23.642,48.813 23.492,48.581 23.38,48.304C23.27,48.027 23.216,47.704 23.216,47.336C23.216,47.059 23.262,46.796 23.356,46.548C23.452,46.3 23.588,46.083 23.764,45.896C23.942,45.709 24.157,45.561 24.408,45.452C24.661,45.343 24.946,45.288 25.264,45.288C25.538,45.288 25.789,45.331 26.016,45.416C26.245,45.501 26.441,45.625 26.604,45.788C26.769,45.951 26.897,46.151 26.988,46.388C27.081,46.623 27.128,46.889 27.128,47.188C27.128,47.281 27.124,47.357 27.116,47.416C27.108,47.475 27.093,47.521 27.072,47.556C27.05,47.591 27.021,47.615 26.984,47.628C26.949,47.641 26.904,47.648 26.848,47.648L24.456,47.648ZM28.788,45.992C28.916,45.768 29.063,45.592 29.228,45.464C29.396,45.336 29.588,45.272 29.804,45.272C29.991,45.272 30.143,45.316 30.26,45.404L30.18,46.316C30.167,46.375 30.144,46.415 30.112,46.436C30.083,46.457 30.042,46.468 29.988,46.468C29.967,46.468 29.939,46.467 29.904,46.464C29.869,46.461 29.834,46.459 29.796,46.456C29.759,46.451 29.72,46.447 29.68,46.444C29.643,46.439 29.608,46.436 29.576,46.436C29.395,46.436 29.25,46.484 29.14,46.58C29.034,46.676 28.943,46.809 28.868,46.98L28.868,49.5L27.628,49.5L27.628,45.352L28.364,45.352C28.426,45.352 28.476,45.357 28.516,45.368C28.559,45.379 28.594,45.396 28.62,45.42C28.65,45.441 28.671,45.471 28.684,45.508C28.7,45.545 28.714,45.591 28.724,45.644L28.788,45.992ZM34.283,45.352L34.283,49.5L33.515,49.5C33.36,49.5 33.259,49.431 33.211,49.292L33.139,49.052C33.059,49.129 32.976,49.2 32.891,49.264C32.806,49.325 32.714,49.379 32.615,49.424C32.519,49.467 32.414,49.5 32.299,49.524C32.187,49.551 32.064,49.564 31.931,49.564C31.704,49.564 31.503,49.525 31.327,49.448C31.154,49.368 31.007,49.257 30.887,49.116C30.767,48.975 30.676,48.808 30.615,48.616C30.554,48.424 30.523,48.213 30.523,47.984L30.523,45.352L31.763,45.352L31.763,47.984C31.763,48.189 31.81,48.348 31.903,48.46C31.996,48.572 32.133,48.628 32.315,48.628C32.451,48.628 32.578,48.6 32.695,48.544C32.815,48.485 32.931,48.407 33.043,48.308L33.043,45.352L34.283,45.352ZM36.149,45.8C36.229,45.725 36.312,45.656 36.397,45.592C36.483,45.528 36.573,45.475 36.669,45.432C36.768,45.387 36.873,45.352 36.985,45.328C37.1,45.301 37.224,45.288 37.357,45.288C37.584,45.288 37.784,45.328 37.957,45.408C38.133,45.485 38.281,45.595 38.401,45.736C38.521,45.875 38.612,46.041 38.673,46.236C38.735,46.428 38.765,46.637 38.765,46.864L38.765,49.5L37.525,49.5L37.525,46.864C37.525,46.661 37.479,46.504 37.385,46.392C37.292,46.277 37.155,46.22 36.973,46.22C36.837,46.22 36.709,46.249 36.589,46.308C36.472,46.364 36.357,46.441 36.245,46.54L36.245,49.5L35.005,49.5L35.005,45.352L35.773,45.352C35.928,45.352 36.029,45.421 36.077,45.56L36.149,45.8Z" style="fill:rgb(180,180,180);fill-rule:nonzero;"/>
    </g>
    <g opacity="0.75">
        <g transform="matrix(-3.82857e-16,-1,1,-3.82857e-16,-49.75,55.75)">
            <rect x="3" y="52.75" width="1" height="45"/>
        </g>
    </g>
    <path d="M2.5,54.5C2.5,53.948 2.948,53.5 3.5,53.5L47.5,53.5C48.052,53.5 48.5,53.948 48.5,54.5L48.5,62.5C48.5,63.052 48.052,63.5 47.5,63.5L3.5,63.5C2.948,63.5 2.5,63.052 2.5,62.5L2.5,54.5Z" style="fill:rgb(57,157,255);fill-rule:nonzero;stroke:rgb(139,191,64);stroke-width:1px;"/>
    <path d="M48.5,54.5C48.5,53.948 48.052,53.5 47.5,53.5L3.5,53.5C2.948,53.5 2.5,53.948 2.5,54.5L2.5,62.5C2.5,63.052 2.948,63.5 3.5,63.5L47.5,63.5C48.052,63.5 48.5,63.052 48.5,62.5L48.5,54.5Z" style="fill:rgb(139,191,64);"/>
    <path d="M48.5,54.5C48.5,53.948 48.052,53.5 47.5,53.5L3.5,53.5C2.948,53.5 2.5,53.948 2.5,54.5L2.5,62.5C2.5,63.052 2.948,63.5 3.5,63.5L47.5,63.5C48.052,63.5 48.5,63.052 48.5,62.5L48.5,54.5Z" style="fill:none;stroke:rgb(139,191,64);stroke-width:1px;stroke-linejoin:miter;stroke-miterlimit:4;"/>
    <g transform="matrix(1,0,0,1,0,-1)">
        <path d="M8.979,58.532L9.195,58.532C9.395,58.532 9.539,58.469 9.627,58.344L10.939,56.44C11.017,56.339 11.099,56.269 11.187,56.232C11.278,56.192 11.39,56.172 11.523,56.172L12.699,56.172L10.971,58.528C10.849,58.691 10.717,58.808 10.575,58.88C10.677,58.917 10.769,58.969 10.851,59.036C10.934,59.103 11.011,59.189 11.083,59.296L12.843,62L11.635,62C11.558,62 11.491,61.995 11.435,61.984C11.382,61.973 11.335,61.957 11.295,61.936C11.255,61.915 11.221,61.889 11.191,61.86C11.162,61.828 11.134,61.792 11.107,61.752L9.787,59.724C9.739,59.649 9.678,59.597 9.603,59.568C9.531,59.536 9.433,59.52 9.307,59.52L8.979,59.52L8.979,62L7.627,62L7.627,56.172L8.979,56.172L8.979,58.532ZM15.303,59.428C15.303,59.329 15.29,59.233 15.263,59.14C15.239,59.047 15.198,58.964 15.139,58.892C15.083,58.817 15.008,58.757 14.915,58.712C14.822,58.667 14.708,58.644 14.575,58.644C14.34,58.644 14.156,58.712 14.023,58.848C13.89,58.981 13.802,59.175 13.759,59.428L15.303,59.428ZM13.743,60.148C13.783,60.495 13.888,60.747 14.059,60.904C14.23,61.059 14.45,61.136 14.719,61.136C14.863,61.136 14.987,61.119 15.091,61.084C15.195,61.049 15.287,61.011 15.367,60.968C15.45,60.925 15.524,60.887 15.591,60.852C15.66,60.817 15.732,60.8 15.807,60.8C15.906,60.8 15.98,60.836 16.031,60.908L16.391,61.352C16.263,61.499 16.124,61.619 15.975,61.712C15.828,61.803 15.676,61.875 15.519,61.928C15.364,61.979 15.208,62.013 15.051,62.032C14.896,62.053 14.748,62.064 14.607,62.064C14.316,62.064 14.043,62.017 13.787,61.924C13.534,61.828 13.311,61.687 13.119,61.5C12.93,61.313 12.779,61.081 12.667,60.804C12.557,60.527 12.503,60.204 12.503,59.836C12.503,59.559 12.55,59.296 12.643,59.048C12.739,58.8 12.875,58.583 13.051,58.396C13.23,58.209 13.444,58.061 13.695,57.952C13.948,57.843 14.233,57.788 14.551,57.788C14.826,57.788 15.076,57.831 15.303,57.916C15.532,58.001 15.728,58.125 15.891,58.288C16.056,58.451 16.184,58.651 16.275,58.888C16.368,59.123 16.415,59.389 16.415,59.688C16.415,59.781 16.411,59.857 16.403,59.916C16.395,59.975 16.38,60.021 16.359,60.056C16.337,60.091 16.308,60.115 16.271,60.128C16.236,60.141 16.191,60.148 16.135,60.148L13.743,60.148ZM20.723,57.852L18.507,63.076C18.469,63.159 18.424,63.219 18.371,63.256C18.317,63.296 18.232,63.316 18.115,63.316L17.187,63.316L17.987,61.636L16.331,57.852L17.427,57.852C17.523,57.852 17.596,57.873 17.647,57.916C17.7,57.959 17.738,58.009 17.763,58.068L18.443,59.856C18.507,60.019 18.559,60.185 18.599,60.356C18.628,60.271 18.657,60.185 18.687,60.1C18.716,60.015 18.747,59.931 18.779,59.848L19.395,58.068C19.419,58.007 19.461,57.956 19.523,57.916C19.584,57.873 19.651,57.852 19.723,57.852L20.723,57.852ZM22.451,62.064C22.254,62.064 22.079,62.036 21.927,61.98C21.778,61.921 21.651,61.84 21.547,61.736C21.446,61.629 21.369,61.501 21.315,61.352C21.262,61.203 21.235,61.036 21.235,60.852L21.235,58.708L20.883,58.708C20.819,58.708 20.765,58.688 20.719,58.648C20.674,58.605 20.651,58.544 20.651,58.464L20.651,57.98L21.311,57.852L21.555,56.84C21.587,56.712 21.678,56.648 21.827,56.648L22.475,56.648L22.475,57.86L23.503,57.86L23.503,58.708L22.475,58.708L22.475,60.768C22.475,60.864 22.498,60.944 22.543,61.008C22.591,61.069 22.659,61.1 22.747,61.1C22.793,61.1 22.83,61.096 22.859,61.088C22.891,61.077 22.918,61.067 22.939,61.056C22.963,61.043 22.985,61.032 23.003,61.024C23.025,61.013 23.049,61.008 23.075,61.008C23.113,61.008 23.142,61.017 23.163,61.036C23.187,61.052 23.211,61.079 23.235,61.116L23.611,61.704C23.451,61.824 23.271,61.915 23.071,61.976C22.871,62.035 22.665,62.064 22.451,62.064ZM25.078,58.492C25.206,58.268 25.352,58.092 25.517,57.964C25.686,57.836 25.878,57.772 26.094,57.772C26.28,57.772 26.432,57.816 26.549,57.904L26.47,58.816C26.456,58.875 26.433,58.915 26.401,58.936C26.372,58.957 26.331,58.968 26.278,58.968C26.256,58.968 26.228,58.967 26.194,58.964C26.159,58.961 26.123,58.959 26.086,58.956C26.048,58.951 26.01,58.947 25.97,58.944C25.932,58.939 25.898,58.936 25.866,58.936C25.684,58.936 25.539,58.984 25.43,59.08C25.323,59.176 25.232,59.309 25.158,59.48L25.158,62L23.918,62L23.918,57.852L24.654,57.852C24.715,57.852 24.766,57.857 24.805,57.868C24.848,57.879 24.883,57.896 24.91,57.92C24.939,57.941 24.96,57.971 24.974,58.008C24.99,58.045 25.003,58.091 25.014,58.144L25.078,58.492ZM28.12,57.852L28.12,62L26.88,62L26.88,57.852L28.12,57.852ZM28.248,56.716C28.248,56.815 28.228,56.908 28.188,56.996C28.148,57.081 28.094,57.157 28.024,57.224C27.955,57.288 27.874,57.34 27.78,57.38C27.69,57.417 27.592,57.436 27.488,57.436C27.387,57.436 27.292,57.417 27.204,57.38C27.116,57.34 27.038,57.288 26.968,57.224C26.901,57.157 26.848,57.081 26.808,56.996C26.771,56.908 26.752,56.815 26.752,56.716C26.752,56.615 26.771,56.52 26.808,56.432C26.848,56.344 26.901,56.267 26.968,56.2C27.038,56.133 27.116,56.081 27.204,56.044C27.292,56.007 27.387,55.988 27.488,55.988C27.592,55.988 27.69,56.007 27.78,56.044C27.874,56.081 27.955,56.133 28.024,56.2C28.094,56.267 28.148,56.344 28.188,56.432C28.228,56.52 28.248,56.615 28.248,56.716ZM30.445,59.708C30.65,59.708 30.798,59.657 30.889,59.556C30.982,59.452 31.029,59.319 31.029,59.156C31.029,58.988 30.982,58.856 30.889,58.76C30.798,58.664 30.65,58.616 30.445,58.616C30.24,58.616 30.09,58.664 29.997,58.76C29.906,58.856 29.861,58.988 29.861,59.156C29.861,59.236 29.872,59.309 29.893,59.376C29.917,59.443 29.953,59.501 30.001,59.552C30.049,59.6 30.109,59.639 30.181,59.668C30.256,59.695 30.344,59.708 30.445,59.708ZM31.405,62.152C31.405,62.053 31.361,61.983 31.273,61.94C31.185,61.895 31.07,61.863 30.929,61.844C30.788,61.825 30.629,61.815 30.453,61.812C30.28,61.807 30.106,61.796 29.933,61.78C29.856,61.833 29.792,61.893 29.741,61.96C29.693,62.024 29.669,62.097 29.669,62.18C29.669,62.239 29.681,62.292 29.705,62.34C29.732,62.388 29.777,62.429 29.841,62.464C29.905,62.499 29.99,62.525 30.097,62.544C30.206,62.565 30.344,62.576 30.509,62.576C30.688,62.576 30.834,62.565 30.949,62.544C31.064,62.523 31.154,62.493 31.221,62.456C31.29,62.419 31.338,62.373 31.365,62.32C31.392,62.269 31.405,62.213 31.405,62.152ZM32.629,57.98L32.629,58.432C32.629,58.501 32.609,58.556 32.569,58.596C32.532,58.636 32.466,58.667 32.373,58.688L32.073,58.756C32.089,58.815 32.101,58.875 32.109,58.936C32.12,58.997 32.125,59.061 32.125,59.128C32.125,59.336 32.081,59.523 31.993,59.688C31.908,59.853 31.789,59.995 31.637,60.112C31.488,60.227 31.31,60.316 31.105,60.38C30.9,60.441 30.68,60.472 30.445,60.472C30.381,60.472 30.318,60.471 30.257,60.468C30.196,60.463 30.136,60.455 30.077,60.444C29.986,60.5 29.941,60.563 29.941,60.632C29.941,60.701 29.978,60.752 30.053,60.784C30.128,60.813 30.226,60.835 30.349,60.848C30.472,60.859 30.61,60.867 30.765,60.872C30.922,60.875 31.082,60.884 31.245,60.9C31.408,60.913 31.566,60.937 31.721,60.972C31.878,61.007 32.018,61.063 32.141,61.14C32.264,61.217 32.362,61.321 32.437,61.452C32.512,61.58 32.549,61.744 32.549,61.944C32.549,62.131 32.504,62.313 32.413,62.492C32.322,62.671 32.189,62.829 32.013,62.968C31.837,63.107 31.621,63.217 31.365,63.3C31.109,63.385 30.816,63.428 30.485,63.428C30.16,63.428 29.878,63.397 29.641,63.336C29.406,63.275 29.21,63.193 29.053,63.092C28.898,62.993 28.784,62.879 28.709,62.748C28.634,62.617 28.597,62.481 28.597,62.34C28.597,62.156 28.65,62.003 28.757,61.88C28.864,61.757 29.013,61.659 29.205,61.584C29.104,61.523 29.024,61.444 28.965,61.348C28.906,61.252 28.877,61.128 28.877,60.976C28.877,60.915 28.888,60.851 28.909,60.784C28.93,60.715 28.964,60.648 29.009,60.584C29.057,60.517 29.116,60.455 29.185,60.396C29.254,60.337 29.337,60.285 29.433,60.24C29.217,60.125 29.046,59.975 28.921,59.788C28.796,59.599 28.733,59.379 28.733,59.128C28.733,58.92 28.777,58.733 28.865,58.568C28.953,58.4 29.073,58.259 29.225,58.144C29.38,58.027 29.561,57.937 29.769,57.876C29.977,57.812 30.202,57.78 30.445,57.78C30.797,57.78 31.109,57.847 31.381,57.98L32.629,57.98ZM34.606,59.708C34.812,59.708 34.96,59.657 35.05,59.556C35.144,59.452 35.19,59.319 35.19,59.156C35.19,58.988 35.144,58.856 35.05,58.76C34.96,58.664 34.812,58.616 34.606,58.616C34.401,58.616 34.252,58.664 34.158,58.76C34.068,58.856 34.022,58.988 34.022,59.156C34.022,59.236 34.033,59.309 34.054,59.376C34.078,59.443 34.114,59.501 34.162,59.552C34.21,59.6 34.27,59.639 34.342,59.668C34.417,59.695 34.505,59.708 34.606,59.708ZM35.566,62.152C35.566,62.053 35.522,61.983 35.434,61.94C35.346,61.895 35.232,61.863 35.09,61.844C34.949,61.825 34.79,61.815 34.614,61.812C34.441,61.807 34.268,61.796 34.094,61.78C34.017,61.833 33.953,61.893 33.902,61.96C33.854,62.024 33.83,62.097 33.83,62.18C33.83,62.239 33.842,62.292 33.866,62.34C33.893,62.388 33.938,62.429 34.002,62.464C34.066,62.499 34.152,62.525 34.258,62.544C34.368,62.565 34.505,62.576 34.67,62.576C34.849,62.576 34.996,62.565 35.11,62.544C35.225,62.523 35.316,62.493 35.382,62.456C35.452,62.419 35.5,62.373 35.526,62.32C35.553,62.269 35.566,62.213 35.566,62.152ZM36.79,57.98L36.79,58.432C36.79,58.501 36.77,58.556 36.73,58.596C36.693,58.636 36.628,58.667 36.534,58.688L36.234,58.756C36.25,58.815 36.262,58.875 36.27,58.936C36.281,58.997 36.286,59.061 36.286,59.128C36.286,59.336 36.242,59.523 36.154,59.688C36.069,59.853 35.95,59.995 35.798,60.112C35.649,60.227 35.472,60.316 35.266,60.38C35.061,60.441 34.841,60.472 34.606,60.472C34.542,60.472 34.48,60.471 34.418,60.468C34.357,60.463 34.297,60.455 34.238,60.444C34.148,60.5 34.102,60.563 34.102,60.632C34.102,60.701 34.14,60.752 34.214,60.784C34.289,60.813 34.388,60.835 34.51,60.848C34.633,60.859 34.772,60.867 34.926,60.872C35.084,60.875 35.244,60.884 35.406,60.9C35.569,60.913 35.728,60.937 35.882,60.972C36.04,61.007 36.18,61.063 36.302,61.14C36.425,61.217 36.524,61.321 36.598,61.452C36.673,61.58 36.71,61.744 36.71,61.944C36.71,62.131 36.665,62.313 36.574,62.492C36.484,62.671 36.35,62.829 36.174,62.968C35.998,63.107 35.782,63.217 35.526,63.3C35.27,63.385 34.977,63.428 34.646,63.428C34.321,63.428 34.04,63.397 33.802,63.336C33.568,63.275 33.372,63.193 33.214,63.092C33.06,62.993 32.945,62.879 32.87,62.748C32.796,62.617 32.758,62.481 32.758,62.34C32.758,62.156 32.812,62.003 32.918,61.88C33.025,61.757 33.174,61.659 33.366,61.584C33.265,61.523 33.185,61.444 33.126,61.348C33.068,61.252 33.038,61.128 33.038,60.976C33.038,60.915 33.049,60.851 33.07,60.784C33.092,60.715 33.125,60.648 33.17,60.584C33.218,60.517 33.277,60.455 33.346,60.396C33.416,60.337 33.498,60.285 33.594,60.24C33.378,60.125 33.208,59.975 33.082,59.788C32.957,59.599 32.894,59.379 32.894,59.128C32.894,58.92 32.938,58.733 33.026,58.568C33.114,58.4 33.234,58.259 33.386,58.144C33.541,58.027 33.722,57.937 33.93,57.876C34.138,57.812 34.364,57.78 34.606,57.78C34.958,57.78 35.27,57.847 35.542,57.98L36.79,57.98ZM39.689,59.428C39.689,59.329 39.676,59.233 39.649,59.14C39.625,59.047 39.584,58.964 39.525,58.892C39.469,58.817 39.395,58.757 39.301,58.712C39.208,58.667 39.095,58.644 38.961,58.644C38.727,58.644 38.543,58.712 38.409,58.848C38.276,58.981 38.188,59.175 38.145,59.428L39.689,59.428ZM38.129,60.148C38.169,60.495 38.275,60.747 38.445,60.904C38.616,61.059 38.836,61.136 39.105,61.136C39.249,61.136 39.373,61.119 39.477,61.084C39.581,61.049 39.673,61.011 39.753,60.968C39.836,60.925 39.911,60.887 39.977,60.852C40.047,60.817 40.119,60.8 40.193,60.8C40.292,60.8 40.367,60.836 40.417,60.908L40.777,61.352C40.649,61.499 40.511,61.619 40.361,61.712C40.215,61.803 40.063,61.875 39.905,61.928C39.751,61.979 39.595,62.013 39.437,62.032C39.283,62.053 39.135,62.064 38.993,62.064C38.703,62.064 38.429,62.017 38.173,61.924C37.92,61.828 37.697,61.687 37.505,61.5C37.316,61.313 37.165,61.081 37.053,60.804C36.944,60.527 36.889,60.204 36.889,59.836C36.889,59.559 36.936,59.296 37.029,59.048C37.125,58.8 37.261,58.583 37.437,58.396C37.616,58.209 37.831,58.061 38.081,57.952C38.335,57.843 38.62,57.788 38.937,57.788C39.212,57.788 39.463,57.831 39.689,57.916C39.919,58.001 40.115,58.125 40.277,58.288C40.443,58.451 40.571,58.651 40.661,58.888C40.755,59.123 40.801,59.389 40.801,59.688C40.801,59.781 40.797,59.857 40.789,59.916C40.781,59.975 40.767,60.021 40.745,60.056C40.724,60.091 40.695,60.115 40.657,60.128C40.623,60.141 40.577,60.148 40.521,60.148L38.129,60.148ZM42.462,58.492C42.59,58.268 42.737,58.092 42.902,57.964C43.07,57.836 43.262,57.772 43.478,57.772C43.664,57.772 43.817,57.816 43.934,57.904L43.854,58.816C43.841,58.875 43.818,58.915 43.786,58.936C43.757,58.957 43.715,58.968 43.662,58.968C43.641,58.968 43.612,58.967 43.578,58.964C43.543,58.961 43.507,58.959 43.47,58.956C43.433,58.951 43.394,58.947 43.354,58.944C43.317,58.939 43.282,58.936 43.25,58.936C43.069,58.936 42.923,58.984 42.814,59.08C42.707,59.176 42.617,59.309 42.542,59.48L42.542,62L41.302,62L41.302,57.852L42.038,57.852C42.099,57.852 42.15,57.857 42.19,57.868C42.233,57.879 42.267,57.896 42.294,57.92C42.323,57.941 42.344,57.971 42.358,58.008C42.374,58.045 42.387,58.091 42.398,58.144L42.462,58.492Z" style="fill:rgb(36,36,36);fill-rule:nonzero;"/>
    </g>
    <g opacity="0.75">
        <g transform="matrix(-3.82857e-16,-1,1,-3.82857e-16,-62.25,68.25)">
            <rect x="3" y="65.25" width="1" height="45"/>
        </g>
    </g>
    <g transform="matrix(1,0,0,1,0,-1)">
        <path d="M13.291,71.412C13.475,71.412 13.631,71.389 13.759,71.344C13.89,71.296 13.997,71.231 14.079,71.148C14.162,71.065 14.222,70.969 14.259,70.86C14.297,70.748 14.315,70.628 14.315,70.5C14.315,70.244 14.231,70.044 14.063,69.9C13.898,69.756 13.641,69.684 13.291,69.684L12.747,69.684L12.747,71.412L13.291,71.412ZM16.163,74.5L14.939,74.5C14.713,74.5 14.55,74.415 14.451,74.244L13.483,72.552C13.438,72.48 13.387,72.428 13.331,72.396C13.275,72.361 13.195,72.344 13.091,72.344L12.747,72.344L12.747,74.5L11.395,74.5L11.395,68.672L13.291,68.672C13.713,68.672 14.071,68.716 14.367,68.804C14.666,68.889 14.909,69.009 15.095,69.164C15.285,69.319 15.422,69.501 15.507,69.712C15.593,69.923 15.635,70.152 15.635,70.4C15.635,70.589 15.61,70.768 15.559,70.936C15.509,71.104 15.434,71.26 15.335,71.404C15.237,71.545 15.114,71.672 14.967,71.784C14.823,71.896 14.657,71.988 14.467,72.06C14.555,72.105 14.638,72.163 14.715,72.232C14.793,72.299 14.862,72.379 14.923,72.472L16.163,74.5ZM18.459,72.812C18.211,72.823 18.007,72.844 17.847,72.876C17.687,72.908 17.56,72.948 17.467,72.996C17.373,73.044 17.308,73.099 17.271,73.16C17.236,73.221 17.219,73.288 17.219,73.36C17.219,73.501 17.257,73.601 17.335,73.66C17.412,73.716 17.525,73.744 17.675,73.744C17.835,73.744 17.975,73.716 18.095,73.66C18.215,73.604 18.336,73.513 18.459,73.388L18.459,72.812ZM16.227,70.928C16.477,70.707 16.755,70.543 17.059,70.436C17.365,70.327 17.693,70.272 18.043,70.272C18.293,70.272 18.519,70.313 18.719,70.396C18.921,70.476 19.092,70.589 19.231,70.736C19.372,70.88 19.48,71.052 19.555,71.252C19.629,71.452 19.667,71.671 19.667,71.908L19.667,74.5L19.099,74.5C18.981,74.5 18.892,74.484 18.831,74.452C18.772,74.42 18.723,74.353 18.683,74.252L18.595,74.024C18.491,74.112 18.391,74.189 18.295,74.256C18.199,74.323 18.099,74.38 17.995,74.428C17.893,74.473 17.784,74.507 17.667,74.528C17.552,74.552 17.424,74.564 17.283,74.564C17.093,74.564 16.921,74.54 16.767,74.492C16.612,74.441 16.48,74.368 16.371,74.272C16.264,74.176 16.181,74.057 16.123,73.916C16.064,73.772 16.035,73.607 16.035,73.42C16.035,73.271 16.072,73.12 16.147,72.968C16.221,72.813 16.351,72.673 16.535,72.548C16.719,72.42 16.967,72.313 17.279,72.228C17.591,72.143 17.984,72.095 18.459,72.084L18.459,71.908C18.459,71.665 18.408,71.491 18.307,71.384C18.208,71.275 18.067,71.22 17.883,71.22C17.736,71.22 17.616,71.236 17.523,71.268C17.429,71.3 17.345,71.336 17.271,71.376C17.199,71.416 17.128,71.452 17.059,71.484C16.989,71.516 16.907,71.532 16.811,71.532C16.725,71.532 16.653,71.511 16.595,71.468C16.536,71.425 16.488,71.375 16.451,71.316L16.227,70.928ZM21.483,70.8C21.563,70.725 21.646,70.656 21.731,70.592C21.817,70.528 21.907,70.475 22.003,70.432C22.102,70.387 22.207,70.352 22.319,70.328C22.434,70.301 22.558,70.288 22.691,70.288C22.918,70.288 23.118,70.328 23.291,70.408C23.467,70.485 23.615,70.595 23.735,70.736C23.855,70.875 23.946,71.041 24.007,71.236C24.069,71.428 24.099,71.637 24.099,71.864L24.099,74.5L22.859,74.5L22.859,71.864C22.859,71.661 22.813,71.504 22.719,71.392C22.626,71.277 22.489,71.22 22.307,71.22C22.171,71.22 22.043,71.249 21.923,71.308C21.806,71.364 21.691,71.441 21.579,71.54L21.579,74.5L20.339,74.5L20.339,70.352L21.107,70.352C21.262,70.352 21.363,70.421 21.411,70.56L21.483,70.8ZM27.298,71.464C27.205,71.36 27.103,71.288 26.994,71.248C26.885,71.205 26.77,71.184 26.65,71.184C26.535,71.184 26.43,71.207 26.334,71.252C26.238,71.297 26.154,71.371 26.082,71.472C26.013,71.571 25.958,71.7 25.918,71.86C25.878,72.02 25.858,72.213 25.858,72.44C25.858,72.659 25.874,72.843 25.906,72.992C25.938,73.141 25.982,73.263 26.038,73.356C26.097,73.447 26.166,73.512 26.246,73.552C26.326,73.592 26.415,73.612 26.514,73.612C26.605,73.612 26.686,73.604 26.758,73.588C26.833,73.569 26.901,73.544 26.962,73.512C27.023,73.48 27.081,73.44 27.134,73.392C27.19,73.341 27.244,73.284 27.298,73.22L27.298,71.464ZM28.538,68.512L28.538,74.5L27.77,74.5C27.615,74.5 27.514,74.431 27.466,74.292L27.37,73.976C27.287,74.064 27.201,74.144 27.11,74.216C27.019,74.288 26.921,74.351 26.814,74.404C26.71,74.455 26.597,74.493 26.474,74.52C26.354,74.549 26.223,74.564 26.082,74.564C25.866,74.564 25.666,74.516 25.482,74.42C25.298,74.324 25.139,74.185 25.006,74.004C24.873,73.823 24.767,73.601 24.69,73.34C24.615,73.076 24.578,72.776 24.578,72.44C24.578,72.131 24.621,71.844 24.706,71.58C24.791,71.313 24.911,71.084 25.066,70.892C25.223,70.697 25.411,70.545 25.63,70.436C25.849,70.327 26.09,70.272 26.354,70.272C26.57,70.272 26.751,70.303 26.898,70.364C27.045,70.425 27.178,70.508 27.298,70.612L27.298,68.512L28.538,68.512ZM31.168,70.288C31.482,70.288 31.769,70.337 32.028,70.436C32.286,70.535 32.508,70.676 32.692,70.86C32.878,71.044 33.022,71.268 33.124,71.532C33.228,71.793 33.28,72.088 33.28,72.416C33.28,72.747 33.228,73.045 33.124,73.312C33.022,73.576 32.878,73.801 32.692,73.988C32.508,74.172 32.286,74.315 32.028,74.416C31.769,74.515 31.482,74.564 31.168,74.564C30.85,74.564 30.561,74.515 30.3,74.416C30.041,74.315 29.817,74.172 29.628,73.988C29.441,73.801 29.296,73.576 29.192,73.312C29.09,73.045 29.04,72.747 29.04,72.416C29.04,72.088 29.09,71.793 29.192,71.532C29.296,71.268 29.441,71.044 29.628,70.86C29.817,70.676 30.041,70.535 30.3,70.436C30.561,70.337 30.85,70.288 31.168,70.288ZM31.168,73.644C31.453,73.644 31.662,73.544 31.796,73.344C31.932,73.141 32,72.835 32,72.424C32,72.013 31.932,71.708 31.796,71.508C31.662,71.308 31.453,71.208 31.168,71.208C30.874,71.208 30.66,71.308 30.524,71.508C30.388,71.708 30.32,72.013 30.32,72.424C30.32,72.835 30.388,73.141 30.524,73.344C30.66,73.544 30.874,73.644 31.168,73.644ZM33.784,74.5L33.784,70.352L34.552,70.352C34.707,70.352 34.808,70.421 34.856,70.56L34.924,70.784C34.993,70.712 35.065,70.647 35.14,70.588C35.215,70.527 35.295,70.475 35.38,70.432C35.468,70.387 35.561,70.352 35.66,70.328C35.761,70.301 35.872,70.288 35.992,70.288C36.243,70.288 36.449,70.353 36.612,70.484C36.777,70.612 36.903,70.784 36.988,71C37.057,70.872 37.141,70.763 37.24,70.672C37.341,70.581 37.449,70.508 37.564,70.452C37.681,70.396 37.804,70.355 37.932,70.328C38.063,70.301 38.192,70.288 38.32,70.288C38.557,70.288 38.768,70.324 38.952,70.396C39.136,70.465 39.289,70.568 39.412,70.704C39.537,70.837 39.632,71.003 39.696,71.2C39.76,71.395 39.792,71.616 39.792,71.864L39.792,74.5L38.552,74.5L38.552,71.864C38.552,71.435 38.368,71.22 38,71.22C37.832,71.22 37.692,71.276 37.58,71.388C37.471,71.497 37.416,71.656 37.416,71.864L37.416,74.5L36.176,74.5L36.176,71.864C36.176,71.627 36.129,71.46 36.036,71.364C35.943,71.268 35.805,71.22 35.624,71.22C35.512,71.22 35.405,71.245 35.304,71.296C35.205,71.347 35.112,71.415 35.024,71.5L35.024,74.5L33.784,74.5Z" style="fill:rgb(180,180,180);fill-rule:nonzero;"/>
    </g>
    <path d="M2.5,40L48.5,40L48.5,39L2.5,39L2.5,40ZM50,41.5L50,75.5L51,75.5L51,41.5L50,41.5ZM48.5,77L2.5,77L2.5,78L48.5,78L48.5,77ZM1,75.5L1,41.5L0,41.5L0,75.5L1,75.5ZM2.5,77C1.672,77 1,76.328 1,75.5L0,75.5C0,76.881 1.119,78 2.5,78L2.5,77ZM50,75.5C50,76.328 49.328,77 48.5,77L48.5,78C49.881,78 51,76.881 51,75.5L50,75.5ZM48.5,40C49.328,40 50,40.672 50,41.5L51,41.5C51,40.119 49.881,39 48.5,39L48.5,40ZM2.5,39C1.119,39 0,40.119 0,41.5L1,41.5C1,40.672 1.672,40 2.5,40L2.5,39Z" style="fill-rule:nonzero;"/>
    <path d="M0.5,80.5C0.5,79.395 1.395,78.5 2.5,78.5L48.5,78.5C49.605,78.5 50.5,79.395 50.5,80.5L50.5,114.5C50.5,115.605 49.605,116.5 48.5,116.5L2.5,116.5C1.395,116.5 0.5,115.605 0.5,114.5L0.5,80.5Z" style="fill:rgb(36,36,36);fill-rule:nonzero;"/>
    <g transform="matrix(1,0,0,1,0,-1)">
        <path d="M13.776,83.712L13.776,85.188L15.768,85.188L15.768,86.232L13.776,86.232L13.776,88.5L12.416,88.5L12.416,82.672L16.168,82.672L16.168,83.712L13.776,83.712ZM17.539,84.992C17.667,84.768 17.813,84.592 17.979,84.464C18.147,84.336 18.339,84.272 18.555,84.272C18.741,84.272 18.893,84.316 19.011,84.404L18.931,85.316C18.917,85.375 18.895,85.415 18.863,85.436C18.833,85.457 18.792,85.468 18.739,85.468C18.717,85.468 18.689,85.467 18.655,85.464C18.62,85.461 18.584,85.459 18.547,85.456C18.509,85.451 18.471,85.447 18.431,85.444C18.393,85.439 18.359,85.436 18.327,85.436C18.145,85.436 18,85.484 17.891,85.58C17.784,85.676 17.693,85.809 17.619,85.98L17.619,88.5L16.379,88.5L16.379,84.352L17.115,84.352C17.176,84.352 17.227,84.357 17.267,84.368C17.309,84.379 17.344,84.396 17.371,84.42C17.4,84.441 17.421,84.471 17.435,84.508C17.451,84.545 17.464,84.591 17.475,84.644L17.539,84.992ZM21.823,85.928C21.823,85.829 21.81,85.733 21.783,85.64C21.759,85.547 21.718,85.464 21.659,85.392C21.603,85.317 21.529,85.257 21.435,85.212C21.342,85.167 21.229,85.144 21.095,85.144C20.86,85.144 20.677,85.212 20.543,85.348C20.41,85.481 20.322,85.675 20.279,85.928L21.823,85.928ZM20.263,86.648C20.303,86.995 20.409,87.247 20.579,87.404C20.75,87.559 20.97,87.636 21.239,87.636C21.383,87.636 21.507,87.619 21.611,87.584C21.715,87.549 21.807,87.511 21.887,87.468C21.97,87.425 22.045,87.387 22.111,87.352C22.18,87.317 22.253,87.3 22.327,87.3C22.426,87.3 22.501,87.336 22.551,87.408L22.911,87.852C22.783,87.999 22.645,88.119 22.495,88.212C22.349,88.303 22.197,88.375 22.039,88.428C21.885,88.479 21.729,88.513 21.571,88.532C21.417,88.553 21.269,88.564 21.127,88.564C20.837,88.564 20.563,88.517 20.307,88.424C20.054,88.328 19.831,88.187 19.639,88C19.45,87.813 19.299,87.581 19.187,87.304C19.078,87.027 19.023,86.704 19.023,86.336C19.023,86.059 19.07,85.796 19.163,85.548C19.259,85.3 19.395,85.083 19.571,84.896C19.75,84.709 19.965,84.561 20.215,84.452C20.469,84.343 20.754,84.288 21.071,84.288C21.346,84.288 21.597,84.331 21.823,84.416C22.052,84.501 22.249,84.625 22.411,84.788C22.577,84.951 22.705,85.151 22.795,85.388C22.889,85.623 22.935,85.889 22.935,86.188C22.935,86.281 22.931,86.357 22.923,86.416C22.915,86.475 22.901,86.521 22.879,86.556C22.858,86.591 22.828,86.615 22.791,86.628C22.757,86.641 22.711,86.648 22.655,86.648L20.263,86.648ZM26.016,85.928C26.016,85.829 26.002,85.733 25.976,85.64C25.952,85.547 25.91,85.464 25.852,85.392C25.796,85.317 25.721,85.257 25.628,85.212C25.534,85.167 25.421,85.144 25.288,85.144C25.053,85.144 24.869,85.212 24.736,85.348C24.602,85.481 24.514,85.675 24.472,85.928L26.016,85.928ZM24.456,86.648C24.496,86.995 24.601,87.247 24.772,87.404C24.942,87.559 25.162,87.636 25.432,87.636C25.576,87.636 25.7,87.619 25.804,87.584C25.908,87.549 26,87.511 26.08,87.468C26.162,87.425 26.237,87.387 26.304,87.352C26.373,87.317 26.445,87.3 26.52,87.3C26.618,87.3 26.693,87.336 26.744,87.408L27.104,87.852C26.976,87.999 26.837,88.119 26.688,88.212C26.541,88.303 26.389,88.375 26.232,88.428C26.077,88.479 25.921,88.513 25.764,88.532C25.609,88.553 25.461,88.564 25.32,88.564C25.029,88.564 24.756,88.517 24.5,88.424C24.246,88.328 24.024,88.187 23.832,88C23.642,87.813 23.492,87.581 23.38,87.304C23.27,87.027 23.216,86.704 23.216,86.336C23.216,86.059 23.262,85.796 23.356,85.548C23.452,85.3 23.588,85.083 23.764,84.896C23.942,84.709 24.157,84.561 24.408,84.452C24.661,84.343 24.946,84.288 25.264,84.288C25.538,84.288 25.789,84.331 26.016,84.416C26.245,84.501 26.441,84.625 26.604,84.788C26.769,84.951 26.897,85.151 26.988,85.388C27.081,85.623 27.128,85.889 27.128,86.188C27.128,86.281 27.124,86.357 27.116,86.416C27.108,86.475 27.093,86.521 27.072,86.556C27.05,86.591 27.021,86.615 26.984,86.628C26.949,86.641 26.904,86.648 26.848,86.648L24.456,86.648ZM28.788,84.992C28.916,84.768 29.063,84.592 29.228,84.464C29.396,84.336 29.588,84.272 29.804,84.272C29.991,84.272 30.143,84.316 30.26,84.404L30.18,85.316C30.167,85.375 30.144,85.415 30.112,85.436C30.083,85.457 30.042,85.468 29.988,85.468C29.967,85.468 29.939,85.467 29.904,85.464C29.869,85.461 29.834,85.459 29.796,85.456C29.759,85.451 29.72,85.447 29.68,85.444C29.643,85.439 29.608,85.436 29.576,85.436C29.395,85.436 29.25,85.484 29.14,85.58C29.034,85.676 28.943,85.809 28.868,85.98L28.868,88.5L27.628,88.5L27.628,84.352L28.364,84.352C28.426,84.352 28.476,84.357 28.516,84.368C28.559,84.379 28.594,84.396 28.62,84.42C28.65,84.441 28.671,84.471 28.684,84.508C28.7,84.545 28.714,84.591 28.724,84.644L28.788,84.992ZM34.283,84.352L34.283,88.5L33.515,88.5C33.36,88.5 33.259,88.431 33.211,88.292L33.139,88.052C33.059,88.129 32.976,88.2 32.891,88.264C32.806,88.325 32.714,88.379 32.615,88.424C32.519,88.467 32.414,88.5 32.299,88.524C32.187,88.551 32.064,88.564 31.931,88.564C31.704,88.564 31.503,88.525 31.327,88.448C31.154,88.368 31.007,88.257 30.887,88.116C30.767,87.975 30.676,87.808 30.615,87.616C30.554,87.424 30.523,87.213 30.523,86.984L30.523,84.352L31.763,84.352L31.763,86.984C31.763,87.189 31.81,87.348 31.903,87.46C31.996,87.572 32.133,87.628 32.315,87.628C32.451,87.628 32.578,87.6 32.695,87.544C32.815,87.485 32.931,87.407 33.043,87.308L33.043,84.352L34.283,84.352ZM36.149,84.8C36.229,84.725 36.312,84.656 36.397,84.592C36.483,84.528 36.573,84.475 36.669,84.432C36.768,84.387 36.873,84.352 36.985,84.328C37.1,84.301 37.224,84.288 37.357,84.288C37.584,84.288 37.784,84.328 37.957,84.408C38.133,84.485 38.281,84.595 38.401,84.736C38.521,84.875 38.612,85.041 38.673,85.236C38.735,85.428 38.765,85.637 38.765,85.864L38.765,88.5L37.525,88.5L37.525,85.864C37.525,85.661 37.479,85.504 37.385,85.392C37.292,85.277 37.155,85.22 36.973,85.22C36.837,85.22 36.709,85.249 36.589,85.308C36.472,85.364 36.357,85.441 36.245,85.54L36.245,88.5L35.005,88.5L35.005,84.352L35.773,84.352C35.928,84.352 36.029,84.421 36.077,84.56L36.149,84.8Z" style="fill:rgb(180,180,180);fill-rule:nonzero;"/>
    </g>
    <g opacity="0.75">
        <g transform="matrix(-3.82857e-16,-1,1,-3.82857e-16,-88.75,94.75)">
            <rect x="3" y="91.75" width="1" height="45"/>
        </g>
    </g>
    <g transform="matrix(1,0,0,1,0,-1)">
        <path d="M8.979,97.532L9.195,97.532C9.395,97.532 9.539,97.469 9.627,97.344L10.939,95.44C11.017,95.339 11.099,95.269 11.187,95.232C11.278,95.192 11.39,95.172 11.523,95.172L12.699,95.172L10.971,97.528C10.849,97.691 10.717,97.808 10.575,97.88C10.677,97.917 10.769,97.969 10.851,98.036C10.934,98.103 11.011,98.189 11.083,98.296L12.843,101L11.635,101C11.558,101 11.491,100.995 11.435,100.984C11.382,100.973 11.335,100.957 11.295,100.936C11.255,100.915 11.221,100.889 11.191,100.86C11.162,100.828 11.134,100.792 11.107,100.752L9.787,98.724C9.739,98.649 9.678,98.597 9.603,98.568C9.531,98.536 9.433,98.52 9.307,98.52L8.979,98.52L8.979,101L7.627,101L7.627,95.172L8.979,95.172L8.979,97.532ZM15.303,98.428C15.303,98.329 15.29,98.233 15.263,98.14C15.239,98.047 15.198,97.964 15.139,97.892C15.083,97.817 15.008,97.757 14.915,97.712C14.822,97.667 14.708,97.644 14.575,97.644C14.34,97.644 14.156,97.712 14.023,97.848C13.89,97.981 13.802,98.175 13.759,98.428L15.303,98.428ZM13.743,99.148C13.783,99.495 13.888,99.747 14.059,99.904C14.23,100.059 14.45,100.136 14.719,100.136C14.863,100.136 14.987,100.119 15.091,100.084C15.195,100.049 15.287,100.011 15.367,99.968C15.45,99.925 15.524,99.887 15.591,99.852C15.66,99.817 15.732,99.8 15.807,99.8C15.906,99.8 15.98,99.836 16.031,99.908L16.391,100.352C16.263,100.499 16.124,100.619 15.975,100.712C15.828,100.803 15.676,100.875 15.519,100.928C15.364,100.979 15.208,101.013 15.051,101.032C14.896,101.053 14.748,101.064 14.607,101.064C14.316,101.064 14.043,101.017 13.787,100.924C13.534,100.828 13.311,100.687 13.119,100.5C12.93,100.313 12.779,100.081 12.667,99.804C12.557,99.527 12.503,99.204 12.503,98.836C12.503,98.559 12.55,98.296 12.643,98.048C12.739,97.8 12.875,97.583 13.051,97.396C13.23,97.209 13.444,97.061 13.695,96.952C13.948,96.843 14.233,96.788 14.551,96.788C14.826,96.788 15.076,96.831 15.303,96.916C15.532,97.001 15.728,97.125 15.891,97.288C16.056,97.451 16.184,97.651 16.275,97.888C16.368,98.123 16.415,98.389 16.415,98.688C16.415,98.781 16.411,98.857 16.403,98.916C16.395,98.975 16.38,99.021 16.359,99.056C16.337,99.091 16.308,99.115 16.271,99.128C16.236,99.141 16.191,99.148 16.135,99.148L13.743,99.148ZM20.723,96.852L18.507,102.076C18.469,102.159 18.424,102.219 18.371,102.256C18.317,102.296 18.232,102.316 18.115,102.316L17.187,102.316L17.987,100.636L16.331,96.852L17.427,96.852C17.523,96.852 17.596,96.873 17.647,96.916C17.7,96.959 17.738,97.009 17.763,97.068L18.443,98.856C18.507,99.019 18.559,99.185 18.599,99.356C18.628,99.271 18.657,99.185 18.687,99.1C18.716,99.015 18.747,98.931 18.779,98.848L19.395,97.068C19.419,97.007 19.461,96.956 19.523,96.916C19.584,96.873 19.651,96.852 19.723,96.852L20.723,96.852ZM22.451,101.064C22.254,101.064 22.079,101.036 21.927,100.98C21.778,100.921 21.651,100.84 21.547,100.736C21.446,100.629 21.369,100.501 21.315,100.352C21.262,100.203 21.235,100.036 21.235,99.852L21.235,97.708L20.883,97.708C20.819,97.708 20.765,97.688 20.719,97.648C20.674,97.605 20.651,97.544 20.651,97.464L20.651,96.98L21.311,96.852L21.555,95.84C21.587,95.712 21.678,95.648 21.827,95.648L22.475,95.648L22.475,96.86L23.503,96.86L23.503,97.708L22.475,97.708L22.475,99.768C22.475,99.864 22.498,99.944 22.543,100.008C22.591,100.069 22.659,100.1 22.747,100.1C22.793,100.1 22.83,100.096 22.859,100.088C22.891,100.077 22.918,100.067 22.939,100.056C22.963,100.043 22.985,100.032 23.003,100.024C23.025,100.013 23.049,100.008 23.075,100.008C23.113,100.008 23.142,100.017 23.163,100.036C23.187,100.052 23.211,100.079 23.235,100.116L23.611,100.704C23.451,100.824 23.271,100.915 23.071,100.976C22.871,101.035 22.665,101.064 22.451,101.064ZM25.078,97.492C25.206,97.268 25.352,97.092 25.517,96.964C25.686,96.836 25.878,96.772 26.094,96.772C26.28,96.772 26.432,96.816 26.549,96.904L26.47,97.816C26.456,97.875 26.433,97.915 26.401,97.936C26.372,97.957 26.331,97.968 26.278,97.968C26.256,97.968 26.228,97.967 26.194,97.964C26.159,97.961 26.123,97.959 26.086,97.956C26.048,97.951 26.01,97.947 25.97,97.944C25.932,97.939 25.898,97.936 25.866,97.936C25.684,97.936 25.539,97.984 25.43,98.08C25.323,98.176 25.232,98.309 25.158,98.48L25.158,101L23.918,101L23.918,96.852L24.654,96.852C24.715,96.852 24.766,96.857 24.805,96.868C24.848,96.879 24.883,96.896 24.91,96.92C24.939,96.941 24.96,96.971 24.974,97.008C24.99,97.045 25.003,97.091 25.014,97.144L25.078,97.492ZM28.12,96.852L28.12,101L26.88,101L26.88,96.852L28.12,96.852ZM28.248,95.716C28.248,95.815 28.228,95.908 28.188,95.996C28.148,96.081 28.094,96.157 28.024,96.224C27.955,96.288 27.874,96.34 27.78,96.38C27.69,96.417 27.592,96.436 27.488,96.436C27.387,96.436 27.292,96.417 27.204,96.38C27.116,96.34 27.038,96.288 26.968,96.224C26.901,96.157 26.848,96.081 26.808,95.996C26.771,95.908 26.752,95.815 26.752,95.716C26.752,95.615 26.771,95.52 26.808,95.432C26.848,95.344 26.901,95.267 26.968,95.2C27.038,95.133 27.116,95.081 27.204,95.044C27.292,95.007 27.387,94.988 27.488,94.988C27.592,94.988 27.69,95.007 27.78,95.044C27.874,95.081 27.955,95.133 28.024,95.2C28.094,95.267 28.148,95.344 28.188,95.432C28.228,95.52 28.248,95.615 28.248,95.716ZM30.445,98.708C30.65,98.708 30.798,98.657 30.889,98.556C30.982,98.452 31.029,98.319 31.029,98.156C31.029,97.988 30.982,97.856 30.889,97.76C30.798,97.664 30.65,97.616 30.445,97.616C30.24,97.616 30.09,97.664 29.997,97.76C29.906,97.856 29.861,97.988 29.861,98.156C29.861,98.236 29.872,98.309 29.893,98.376C29.917,98.443 29.953,98.501 30.001,98.552C30.049,98.6 30.109,98.639 30.181,98.668C30.256,98.695 30.344,98.708 30.445,98.708ZM31.405,101.152C31.405,101.053 31.361,100.983 31.273,100.94C31.185,100.895 31.07,100.863 30.929,100.844C30.788,100.825 30.629,100.815 30.453,100.812C30.28,100.807 30.106,100.796 29.933,100.78C29.856,100.833 29.792,100.893 29.741,100.96C29.693,101.024 29.669,101.097 29.669,101.18C29.669,101.239 29.681,101.292 29.705,101.34C29.732,101.388 29.777,101.429 29.841,101.464C29.905,101.499 29.99,101.525 30.097,101.544C30.206,101.565 30.344,101.576 30.509,101.576C30.688,101.576 30.834,101.565 30.949,101.544C31.064,101.523 31.154,101.493 31.221,101.456C31.29,101.419 31.338,101.373 31.365,101.32C31.392,101.269 31.405,101.213 31.405,101.152ZM32.629,96.98L32.629,97.432C32.629,97.501 32.609,97.556 32.569,97.596C32.532,97.636 32.466,97.667 32.373,97.688L32.073,97.756C32.089,97.815 32.101,97.875 32.109,97.936C32.12,97.997 32.125,98.061 32.125,98.128C32.125,98.336 32.081,98.523 31.993,98.688C31.908,98.853 31.789,98.995 31.637,99.112C31.488,99.227 31.31,99.316 31.105,99.38C30.9,99.441 30.68,99.472 30.445,99.472C30.381,99.472 30.318,99.471 30.257,99.468C30.196,99.463 30.136,99.455 30.077,99.444C29.986,99.5 29.941,99.563 29.941,99.632C29.941,99.701 29.978,99.752 30.053,99.784C30.128,99.813 30.226,99.835 30.349,99.848C30.472,99.859 30.61,99.867 30.765,99.872C30.922,99.875 31.082,99.884 31.245,99.9C31.408,99.913 31.566,99.937 31.721,99.972C31.878,100.007 32.018,100.063 32.141,100.14C32.264,100.217 32.362,100.321 32.437,100.452C32.512,100.58 32.549,100.744 32.549,100.944C32.549,101.131 32.504,101.313 32.413,101.492C32.322,101.671 32.189,101.829 32.013,101.968C31.837,102.107 31.621,102.217 31.365,102.3C31.109,102.385 30.816,102.428 30.485,102.428C30.16,102.428 29.878,102.397 29.641,102.336C29.406,102.275 29.21,102.193 29.053,102.092C28.898,101.993 28.784,101.879 28.709,101.748C28.634,101.617 28.597,101.481 28.597,101.34C28.597,101.156 28.65,101.003 28.757,100.88C28.864,100.757 29.013,100.659 29.205,100.584C29.104,100.523 29.024,100.444 28.965,100.348C28.906,100.252 28.877,100.128 28.877,99.976C28.877,99.915 28.888,99.851 28.909,99.784C28.93,99.715 28.964,99.648 29.009,99.584C29.057,99.517 29.116,99.455 29.185,99.396C29.254,99.337 29.337,99.285 29.433,99.24C29.217,99.125 29.046,98.975 28.921,98.788C28.796,98.599 28.733,98.379 28.733,98.128C28.733,97.92 28.777,97.733 28.865,97.568C28.953,97.4 29.073,97.259 29.225,97.144C29.38,97.027 29.561,96.937 29.769,96.876C29.977,96.812 30.202,96.78 30.445,96.78C30.797,96.78 31.109,96.847 31.381,96.98L32.629,96.98ZM34.606,98.708C34.812,98.708 34.96,98.657 35.05,98.556C35.144,98.452 35.19,98.319 35.19,98.156C35.19,97.988 35.144,97.856 35.05,97.76C34.96,97.664 34.812,97.616 34.606,97.616C34.401,97.616 34.252,97.664 34.158,97.76C34.068,97.856 34.022,97.988 34.022,98.156C34.022,98.236 34.033,98.309 34.054,98.376C34.078,98.443 34.114,98.501 34.162,98.552C34.21,98.6 34.27,98.639 34.342,98.668C34.417,98.695 34.505,98.708 34.606,98.708ZM35.566,101.152C35.566,101.053 35.522,100.983 35.434,100.94C35.346,100.895 35.232,100.863 35.09,100.844C34.949,100.825 34.79,100.815 34.614,100.812C34.441,100.807 34.268,100.796 34.094,100.78C34.017,100.833 33.953,100.893 33.902,100.96C33.854,101.024 33.83,101.097 33.83,101.18C33.83,101.239 33.842,101.292 33.866,101.34C33.893,101.388 33.938,101.429 34.002,101.464C34.066,101.499 34.152,101.525 34.258,101.544C34.368,101.565 34.505,101.576 34.67,101.576C34.849,101.576 34.996,101.565 35.11,101.544C35.225,101.523 35.316,101.493 35.382,101.456C35.452,101.419 35.5,101.373 35.526,101.32C35.553,101.269 35.566,101.213 35.566,101.152ZM36.79,96.98L36.79,97.432C36.79,97.501 36.77,97.556 36.73,97.596C36.693,97.636 36.628,97.667 36.534,97.688L36.234,97.756C36.25,97.815 36.262,97.875 36.27,97.936C36.281,97.997 36.286,98.061 36.286,98.128C36.286,98.336 36.242,98.523 36.154,98.688C36.069,98.853 35.95,98.995 35.798,99.112C35.649,99.227 35.472,99.316 35.266,99.38C35.061,99.441 34.841,99.472 34.606,99.472C34.542,99.472 34.48,99.471 34.418,99.468C34.357,99.463 34.297,99.455 34.238,99.444C34.148,99.5 34.102,99.563 34.102,99.632C34.102,99.701 34.14,99.752 34.214,99.784C34.289,99.813 34.388,99.835 34.51,99.848C34.633,99.859 34.772,99.867 34.926,99.872C35.084,99.875 35.244,99.884 35.406,99.9C35.569,99.913 35.728,99.937 35.882,99.972C36.04,100.007 36.18,100.063 36.302,100.14C36.425,100.217 36.524,100.321 36.598,100.452C36.673,100.58 36.71,100.744 36.71,100.944C36.71,101.131 36.665,101.313 36.574,101.492C36.484,101.671 36.35,101.829 36.174,101.968C35.998,102.107 35.782,102.217 35.526,102.3C35.27,102.385 34.977,102.428 34.646,102.428C34.321,102.428 34.04,102.397 33.802,102.336C33.568,102.275 33.372,102.193 33.214,102.092C33.06,101.993 32.945,101.879 32.87,101.748C32.796,101.617 32.758,101.481 32.758,101.34C32.758,101.156 32.812,101.003 32.918,100.88C33.025,100.757 33.174,100.659 33.366,100.584C33.265,100.523 33.185,100.444 33.126,100.348C33.068,100.252 33.038,100.128 33.038,99.976C33.038,99.915 33.049,99.851 33.07,99.784C33.092,99.715 33.125,99.648 33.17,99.584C33.218,99.517 33.277,99.455 33.346,99.396C33.416,99.337 33.498,99.285 33.594,99.24C33.378,99.125 33.208,98.975 33.082,98.788C32.957,98.599 32.894,98.379 32.894,98.128C32.894,97.92 32.938,97.733 33.026,97.568C33.114,97.4 33.234,97.259 33.386,97.144C33.541,97.027 33.722,96.937 33.93,96.876C34.138,96.812 34.364,96.78 34.606,96.78C34.958,96.78 35.27,96.847 35.542,96.98L36.79,96.98ZM39.689,98.428C39.689,98.329 39.676,98.233 39.649,98.14C39.625,98.047 39.584,97.964 39.525,97.892C39.469,97.817 39.395,97.757 39.301,97.712C39.208,97.667 39.095,97.644 38.961,97.644C38.727,97.644 38.543,97.712 38.409,97.848C38.276,97.981 38.188,98.175 38.145,98.428L39.689,98.428ZM38.129,99.148C38.169,99.495 38.275,99.747 38.445,99.904C38.616,100.059 38.836,100.136 39.105,100.136C39.249,100.136 39.373,100.119 39.477,100.084C39.581,100.049 39.673,100.011 39.753,99.968C39.836,99.925 39.911,99.887 39.977,99.852C40.047,99.817 40.119,99.8 40.193,99.8C40.292,99.8 40.367,99.836 40.417,99.908L40.777,100.352C40.649,100.499 40.511,100.619 40.361,100.712C40.215,100.803 40.063,100.875 39.905,100.928C39.751,100.979 39.595,101.013 39.437,101.032C39.283,101.053 39.135,101.064 38.993,101.064C38.703,101.064 38.429,101.017 38.173,100.924C37.92,100.828 37.697,100.687 37.505,100.5C37.316,100.313 37.165,100.081 37.053,99.804C36.944,99.527 36.889,99.204 36.889,98.836C36.889,98.559 36.936,98.296 37.029,98.048C37.125,97.8 37.261,97.583 37.437,97.396C37.616,97.209 37.831,97.061 38.081,96.952C38.335,96.843 38.62,96.788 38.937,96.788C39.212,96.788 39.463,96.831 39.689,96.916C39.919,97.001 40.115,97.125 40.277,97.288C40.443,97.451 40.571,97.651 40.661,97.888C40.755,98.123 40.801,98.389 40.801,98.688C40.801,98.781 40.797,98.857 40.789,98.916C40.781,98.975 40.767,99.021 40.745,99.056C40.724,99.091 40.695,99.115 40.657,99.128C40.623,99.141 40.577,99.148 40.521,99.148L38.129,99.148ZM42.462,97.492C42.59,97.268 42.737,97.092 42.902,96.964C43.07,96.836 43.262,96.772 43.478,96.772C43.664,96.772 43.817,96.816 43.934,96.904L43.854,97.816C43.841,97.875 43.818,97.915 43.786,97.936C43.757,97.957 43.715,97.968 43.662,97.968C43.641,97.968 43.612,97.967 43.578,97.964C43.543,97.961 43.507,97.959 43.47,97.956C43.433,97.951 43.394,97.947 43.354,97.944C43.317,97.939 43.282,97.936 43.25,97.936C43.069,97.936 42.923,97.984 42.814,98.08C42.707,98.176 42.617,98.309 42.542,98.48L42.542,101L41.302,101L41.302,96.852L42.038,96.852C42.099,96.852 42.15,96.857 42.19,96.868C42.233,96.879 42.267,96.896 42.294,96.92C42.323,96.941 42.344,96.971 42.358,97.008C42.374,97.045 42.387,97.091 42.398,97.144L42.462,97.492Z" style="fill:rgb(180,180,180);fill-rule:nonzero;"/>
    </g>
    <g opacity="0.75">
        <g transform="matrix(-3.82857e-16,-1,1,-3.82857e-16,-101.25,107.25)">
            <rect x="3" y="104.25" width="1" height="45"/>
        </g>
    </g>
    <path d="M2.5,106C2.5,105.448 2.948,105 3.5,105L47.5,105C48.052,105 48.5,105.448 48.5,106L48.5,114C48.5,114.552 48.052,115 47.5,115L3.5,115C2.948,115 2.5,114.552 2.5,114L2.5,106Z" style="fill:rgb(139,191,64);fill-rule:nonzero;"/>
    <path d="M48.5,106C48.5,105.448 48.052,105 47.5,105L3.5,105C2.948,105 2.5,105.448 2.5,106L2.5,114C2.5,114.552 2.948,115 3.5,115L47.5,115C48.052,115 48.5,114.552 48.5,114L48.5,106Z" style="fill:rgb(139,191,64);"/>
    <path d="M48.5,106C48.5,105.448 48.052,105 47.5,105L3.5,105C2.948,105 2.5,105.448 2.5,106L2.5,114C2.5,114.552 2.948,115 3.5,115L47.5,115C48.052,115 48.5,114.552 48.5,114L48.5,106Z" style="fill:none;stroke:rgb(139,191,64);stroke-width:1px;stroke-linejoin:miter;stroke-miterlimit:4;"/>
    <g transform="matrix(1,0,0,1,0,-1)">
        <path d="M13.291,110.412C13.475,110.412 13.631,110.389 13.759,110.344C13.89,110.296 13.997,110.231 14.079,110.148C14.162,110.065 14.222,109.969 14.259,109.86C14.297,109.748 14.315,109.628 14.315,109.5C14.315,109.244 14.231,109.044 14.063,108.9C13.898,108.756 13.641,108.684 13.291,108.684L12.747,108.684L12.747,110.412L13.291,110.412ZM16.163,113.5L14.939,113.5C14.713,113.5 14.55,113.415 14.451,113.244L13.483,111.552C13.438,111.48 13.387,111.428 13.331,111.396C13.275,111.361 13.195,111.344 13.091,111.344L12.747,111.344L12.747,113.5L11.395,113.5L11.395,107.672L13.291,107.672C13.713,107.672 14.071,107.716 14.367,107.804C14.666,107.889 14.909,108.009 15.095,108.164C15.285,108.319 15.422,108.501 15.507,108.712C15.593,108.923 15.635,109.152 15.635,109.4C15.635,109.589 15.61,109.768 15.559,109.936C15.509,110.104 15.434,110.26 15.335,110.404C15.237,110.545 15.114,110.672 14.967,110.784C14.823,110.896 14.657,110.988 14.467,111.06C14.555,111.105 14.638,111.163 14.715,111.232C14.793,111.299 14.862,111.379 14.923,111.472L16.163,113.5ZM18.459,111.812C18.211,111.823 18.007,111.844 17.847,111.876C17.687,111.908 17.56,111.948 17.467,111.996C17.373,112.044 17.308,112.099 17.271,112.16C17.236,112.221 17.219,112.288 17.219,112.36C17.219,112.501 17.257,112.601 17.335,112.66C17.412,112.716 17.525,112.744 17.675,112.744C17.835,112.744 17.975,112.716 18.095,112.66C18.215,112.604 18.336,112.513 18.459,112.388L18.459,111.812ZM16.227,109.928C16.477,109.707 16.755,109.543 17.059,109.436C17.365,109.327 17.693,109.272 18.043,109.272C18.293,109.272 18.519,109.313 18.719,109.396C18.921,109.476 19.092,109.589 19.231,109.736C19.372,109.88 19.48,110.052 19.555,110.252C19.629,110.452 19.667,110.671 19.667,110.908L19.667,113.5L19.099,113.5C18.981,113.5 18.892,113.484 18.831,113.452C18.772,113.42 18.723,113.353 18.683,113.252L18.595,113.024C18.491,113.112 18.391,113.189 18.295,113.256C18.199,113.323 18.099,113.38 17.995,113.428C17.893,113.473 17.784,113.507 17.667,113.528C17.552,113.552 17.424,113.564 17.283,113.564C17.093,113.564 16.921,113.54 16.767,113.492C16.612,113.441 16.48,113.368 16.371,113.272C16.264,113.176 16.181,113.057 16.123,112.916C16.064,112.772 16.035,112.607 16.035,112.42C16.035,112.271 16.072,112.12 16.147,111.968C16.221,111.813 16.351,111.673 16.535,111.548C16.719,111.42 16.967,111.313 17.279,111.228C17.591,111.143 17.984,111.095 18.459,111.084L18.459,110.908C18.459,110.665 18.408,110.491 18.307,110.384C18.208,110.275 18.067,110.22 17.883,110.22C17.736,110.22 17.616,110.236 17.523,110.268C17.429,110.3 17.345,110.336 17.271,110.376C17.199,110.416 17.128,110.452 17.059,110.484C16.989,110.516 16.907,110.532 16.811,110.532C16.725,110.532 16.653,110.511 16.595,110.468C16.536,110.425 16.488,110.375 16.451,110.316L16.227,109.928ZM21.483,109.8C21.563,109.725 21.646,109.656 21.731,109.592C21.817,109.528 21.907,109.475 22.003,109.432C22.102,109.387 22.207,109.352 22.319,109.328C22.434,109.301 22.558,109.288 22.691,109.288C22.918,109.288 23.118,109.328 23.291,109.408C23.467,109.485 23.615,109.595 23.735,109.736C23.855,109.875 23.946,110.041 24.007,110.236C24.069,110.428 24.099,110.637 24.099,110.864L24.099,113.5L22.859,113.5L22.859,110.864C22.859,110.661 22.813,110.504 22.719,110.392C22.626,110.277 22.489,110.22 22.307,110.22C22.171,110.22 22.043,110.249 21.923,110.308C21.806,110.364 21.691,110.441 21.579,110.54L21.579,113.5L20.339,113.5L20.339,109.352L21.107,109.352C21.262,109.352 21.363,109.421 21.411,109.56L21.483,109.8ZM27.298,110.464C27.205,110.36 27.103,110.288 26.994,110.248C26.885,110.205 26.77,110.184 26.65,110.184C26.535,110.184 26.43,110.207 26.334,110.252C26.238,110.297 26.154,110.371 26.082,110.472C26.013,110.571 25.958,110.7 25.918,110.86C25.878,111.02 25.858,111.213 25.858,111.44C25.858,111.659 25.874,111.843 25.906,111.992C25.938,112.141 25.982,112.263 26.038,112.356C26.097,112.447 26.166,112.512 26.246,112.552C26.326,112.592 26.415,112.612 26.514,112.612C26.605,112.612 26.686,112.604 26.758,112.588C26.833,112.569 26.901,112.544 26.962,112.512C27.023,112.48 27.081,112.44 27.134,112.392C27.19,112.341 27.244,112.284 27.298,112.22L27.298,110.464ZM28.538,107.512L28.538,113.5L27.77,113.5C27.615,113.5 27.514,113.431 27.466,113.292L27.37,112.976C27.287,113.064 27.201,113.144 27.11,113.216C27.019,113.288 26.921,113.351 26.814,113.404C26.71,113.455 26.597,113.493 26.474,113.52C26.354,113.549 26.223,113.564 26.082,113.564C25.866,113.564 25.666,113.516 25.482,113.42C25.298,113.324 25.139,113.185 25.006,113.004C24.873,112.823 24.767,112.601 24.69,112.34C24.615,112.076 24.578,111.776 24.578,111.44C24.578,111.131 24.621,110.844 24.706,110.58C24.791,110.313 24.911,110.084 25.066,109.892C25.223,109.697 25.411,109.545 25.63,109.436C25.849,109.327 26.09,109.272 26.354,109.272C26.57,109.272 26.751,109.303 26.898,109.364C27.045,109.425 27.178,109.508 27.298,109.612L27.298,107.512L28.538,107.512ZM31.168,109.288C31.482,109.288 31.769,109.337 32.028,109.436C32.286,109.535 32.508,109.676 32.692,109.86C32.878,110.044 33.022,110.268 33.124,110.532C33.228,110.793 33.28,111.088 33.28,111.416C33.28,111.747 33.228,112.045 33.124,112.312C33.022,112.576 32.878,112.801 32.692,112.988C32.508,113.172 32.286,113.315 32.028,113.416C31.769,113.515 31.482,113.564 31.168,113.564C30.85,113.564 30.561,113.515 30.3,113.416C30.041,113.315 29.817,113.172 29.628,112.988C29.441,112.801 29.296,112.576 29.192,112.312C29.09,112.045 29.04,111.747 29.04,111.416C29.04,111.088 29.09,110.793 29.192,110.532C29.296,110.268 29.441,110.044 29.628,109.86C29.817,109.676 30.041,109.535 30.3,109.436C30.561,109.337 30.85,109.288 31.168,109.288ZM31.168,112.644C31.453,112.644 31.662,112.544 31.796,112.344C31.932,112.141 32,111.835 32,111.424C32,111.013 31.932,110.708 31.796,110.508C31.662,110.308 31.453,110.208 31.168,110.208C30.874,110.208 30.66,110.308 30.524,110.508C30.388,110.708 30.32,111.013 30.32,111.424C30.32,111.835 30.388,112.141 30.524,112.344C30.66,112.544 30.874,112.644 31.168,112.644ZM33.784,113.5L33.784,109.352L34.552,109.352C34.707,109.352 34.808,109.421 34.856,109.56L34.924,109.784C34.993,109.712 35.065,109.647 35.14,109.588C35.215,109.527 35.295,109.475 35.38,109.432C35.468,109.387 35.561,109.352 35.66,109.328C35.761,109.301 35.872,109.288 35.992,109.288C36.243,109.288 36.449,109.353 36.612,109.484C36.777,109.612 36.903,109.784 36.988,110C37.057,109.872 37.141,109.763 37.24,109.672C37.341,109.581 37.449,109.508 37.564,109.452C37.681,109.396 37.804,109.355 37.932,109.328C38.063,109.301 38.192,109.288 38.32,109.288C38.557,109.288 38.768,109.324 38.952,109.396C39.136,109.465 39.289,109.568 39.412,109.704C39.537,109.837 39.632,110.003 39.696,110.2C39.76,110.395 39.792,110.616 39.792,110.864L39.792,113.5L38.552,113.5L38.552,110.864C38.552,110.435 38.368,110.22 38,110.22C37.832,110.22 37.692,110.276 37.58,110.388C37.471,110.497 37.416,110.656 37.416,110.864L37.416,113.5L36.176,113.5L36.176,110.864C36.176,110.627 36.129,110.46 36.036,110.364C35.943,110.268 35.805,110.22 35.624,110.22C35.512,110.22 35.405,110.245 35.304,110.296C35.205,110.347 35.112,110.415 35.024,110.5L35.024,113.5L33.784,113.5Z" style="fill:rgb(36,36,36);fill-rule:nonzero;"/>
    </g>
    <path d="M2.5,79L48.5,79L48.5,78L2.5,78L2.5,79ZM50,80.5L50,114.5L51,114.5L51,80.5L50,80.5ZM48.5,116L2.5,116L2.5,117L48.5,117L48.5,116ZM1,114.5L1,80.5L0,80.5L0,114.5L1,114.5ZM2.5,116C1.672,116 1,115.328 1,114.5L0,114.5C0,115.881 1.119,117 2.5,117L2.5,116ZM50,114.5C50,115.328 49.328,116 48.5,116L48.5,117C49.881,117 51,115.881 51,114.5L50,114.5ZM48.5,79C49.328,79 50,79.672 50,80.5L51,80.5C51,79.119 49.881,78 48.5,78L48.5,79ZM2.5,78C1.119,78 0,79.119 0,80.5L1,80.5C1,79.672 1.672,79 2.5,79L2.5,78Z" style="fill-rule:nonzero;"/>
</svg>
