<?xml version="1.0" encoding="UTF-8" standalone="no"?>
<!DOCTYPE svg PUBLIC "-//W3C//DTD SVG 1.1//EN" "http://www.w3.org/Graphics/SVG/1.1/DTD/svg11.dtd">
<svg width="100%" height="100%" viewBox="0 0 47 20" version="1.1" xmlns="http://www.w3.org/2000/svg" xmlns:xlink="http://www.w3.org/1999/xlink" xml:space="preserve" xmlns:serif="http://www.serif.com/" style="fill-rule:evenodd;clip-rule:evenodd;">
    <path d="M4.506,5.412C4.69,5.412 4.846,5.389 4.974,5.344C5.105,5.296 5.212,5.231 5.294,5.148C5.377,5.065 5.437,4.969 5.474,4.86C5.512,4.748 5.53,4.628 5.53,4.5C5.53,4.244 5.446,4.044 5.278,3.9C5.113,3.756 4.856,3.684 4.506,3.684L3.962,3.684L3.962,5.412L4.506,5.412ZM7.378,8.5L6.154,8.5C5.928,8.5 5.765,8.415 5.666,8.244L4.698,6.552C4.653,6.48 4.602,6.428 4.546,6.396C4.49,6.361 4.41,6.344 4.306,6.344L3.962,6.344L3.962,8.5L2.61,8.5L2.61,2.672L4.506,2.672C4.928,2.672 5.286,2.716 5.582,2.804C5.881,2.889 6.124,3.009 6.31,3.164C6.5,3.319 6.637,3.501 6.722,3.712C6.808,3.923 6.85,4.152 6.85,4.4C6.85,4.589 6.825,4.768 6.774,4.936C6.724,5.104 6.649,5.26 6.55,5.404C6.452,5.545 6.329,5.672 6.182,5.784C6.038,5.896 5.872,5.988 5.682,6.06C5.77,6.105 5.853,6.163 5.93,6.232C6.008,6.299 6.077,6.379 6.138,6.472L7.378,8.5ZM9.108,3.712L9.108,5.072L10.94,5.072L10.94,6.072L9.108,6.072L9.108,7.46L11.5,7.46L11.5,8.5L7.748,8.5L7.748,2.672L11.5,2.672L11.5,3.712L9.108,3.712ZM16.402,3.744L14.762,3.744L14.762,8.5L13.41,8.5L13.41,3.744L11.77,3.744L11.77,2.672L16.402,2.672L16.402,3.744ZM18.865,5.412C19.049,5.412 19.205,5.389 19.333,5.344C19.464,5.296 19.571,5.231 19.653,5.148C19.736,5.065 19.796,4.969 19.833,4.86C19.871,4.748 19.889,4.628 19.889,4.5C19.889,4.244 19.805,4.044 19.637,3.9C19.472,3.756 19.215,3.684 18.865,3.684L18.321,3.684L18.321,5.412L18.865,5.412ZM21.737,8.5L20.513,8.5C20.287,8.5 20.124,8.415 20.025,8.244L19.057,6.552C19.012,6.48 18.961,6.428 18.905,6.396C18.849,6.361 18.769,6.344 18.665,6.344L18.321,6.344L18.321,8.5L16.969,8.5L16.969,2.672L18.865,2.672C19.287,2.672 19.645,2.716 19.941,2.804C20.24,2.889 20.483,3.009 20.669,3.164C20.859,3.319 20.996,3.501 21.081,3.712C21.167,3.923 21.209,4.152 21.209,4.4C21.209,4.589 21.184,4.768 21.133,4.936C21.083,5.104 21.008,5.26 20.909,5.404C20.811,5.545 20.688,5.672 20.541,5.784C20.397,5.896 20.231,5.988 20.041,6.06C20.129,6.105 20.212,6.163 20.289,6.232C20.366,6.299 20.436,6.379 20.497,6.472L21.737,8.5ZM23.467,8.5L22.107,8.5L22.107,2.672L23.467,2.672L23.467,8.5ZM27.271,5.48L29.343,5.48L29.343,7.94C29.045,8.159 28.726,8.317 28.387,8.416C28.051,8.515 27.699,8.564 27.331,8.564C26.851,8.564 26.414,8.489 26.019,8.34C25.627,8.188 25.291,7.98 25.011,7.716C24.731,7.449 24.515,7.135 24.363,6.772C24.211,6.407 24.135,6.011 24.135,5.584C24.135,5.149 24.207,4.751 24.351,4.388C24.495,4.023 24.701,3.708 24.967,3.444C25.237,3.18 25.561,2.975 25.939,2.828C26.321,2.681 26.746,2.608 27.215,2.608C27.458,2.608 27.686,2.628 27.899,2.668C28.113,2.708 28.309,2.763 28.487,2.832C28.669,2.901 28.834,2.984 28.983,3.08C29.133,3.176 29.266,3.28 29.383,3.392L28.991,3.988C28.93,4.081 28.85,4.139 28.751,4.16C28.655,4.181 28.551,4.157 28.439,4.088C28.333,4.024 28.231,3.969 28.135,3.924C28.042,3.876 27.946,3.837 27.847,3.808C27.749,3.779 27.645,3.757 27.535,3.744C27.426,3.731 27.303,3.724 27.167,3.724C26.914,3.724 26.686,3.769 26.483,3.86C26.281,3.948 26.107,4.073 25.963,4.236C25.822,4.399 25.713,4.595 25.635,4.824C25.558,5.051 25.519,5.304 25.519,5.584C25.519,5.893 25.562,6.168 25.647,6.408C25.733,6.648 25.853,6.851 26.007,7.016C26.165,7.181 26.351,7.308 26.567,7.396C26.786,7.481 27.027,7.524 27.291,7.524C27.454,7.524 27.601,7.508 27.731,7.476C27.865,7.444 27.994,7.401 28.119,7.348L28.119,6.464L27.543,6.464C27.458,6.464 27.391,6.441 27.343,6.396C27.295,6.351 27.271,6.293 27.271,6.224L27.271,5.48ZM32.933,5.48L35.005,5.48L35.005,7.94C34.706,8.159 34.387,8.317 34.049,8.416C33.713,8.515 33.361,8.564 32.993,8.564C32.513,8.564 32.075,8.489 31.681,8.34C31.289,8.188 30.953,7.98 30.673,7.716C30.393,7.449 30.177,7.135 30.025,6.772C29.873,6.407 29.797,6.011 29.797,5.584C29.797,5.149 29.869,4.751 30.013,4.388C30.157,4.023 30.362,3.708 30.629,3.444C30.898,3.18 31.222,2.975 31.601,2.828C31.982,2.681 32.407,2.608 32.877,2.608C33.119,2.608 33.347,2.628 33.561,2.668C33.774,2.708 33.97,2.763 34.149,2.832C34.33,2.901 34.495,2.984 34.645,3.08C34.794,3.176 34.927,3.28 35.045,3.392L34.653,3.988C34.591,4.081 34.511,4.139 34.413,4.16C34.317,4.181 34.213,4.157 34.101,4.088C33.994,4.024 33.893,3.969 33.797,3.924C33.703,3.876 33.607,3.837 33.509,3.808C33.41,3.779 33.306,3.757 33.197,3.744C33.087,3.731 32.965,3.724 32.829,3.724C32.575,3.724 32.347,3.769 32.145,3.86C31.942,3.948 31.769,4.073 31.625,4.236C31.483,4.399 31.374,4.595 31.297,4.824C31.219,5.051 31.181,5.304 31.181,5.584C31.181,5.893 31.223,6.168 31.309,6.408C31.394,6.648 31.514,6.851 31.669,7.016C31.826,7.181 32.013,7.308 32.229,7.396C32.447,7.481 32.689,7.524 32.953,7.524C33.115,7.524 33.262,7.508 33.393,7.476C33.526,7.444 33.655,7.401 33.781,7.348L33.781,6.464L33.205,6.464C33.119,6.464 33.053,6.441 33.005,6.396C32.957,6.351 32.933,6.293 32.933,6.224L32.933,5.48ZM37.154,3.712L37.154,5.072L38.986,5.072L38.986,6.072L37.154,6.072L37.154,7.46L39.546,7.46L39.546,8.5L35.794,8.5L35.794,2.672L39.546,2.672L39.546,3.712L37.154,3.712ZM42.156,5.412C42.34,5.412 42.496,5.389 42.624,5.344C42.754,5.296 42.861,5.231 42.944,5.148C43.026,5.065 43.086,4.969 43.124,4.86C43.161,4.748 43.18,4.628 43.18,4.5C43.18,4.244 43.096,4.044 42.928,3.9C42.762,3.756 42.505,3.684 42.156,3.684L41.612,3.684L41.612,5.412L42.156,5.412ZM45.028,8.5L43.804,8.5C43.577,8.5 43.414,8.415 43.316,8.244L42.348,6.552C42.302,6.48 42.252,6.428 42.196,6.396C42.14,6.361 42.06,6.344 41.956,6.344L41.612,6.344L41.612,8.5L40.26,8.5L40.26,2.672L42.156,2.672C42.577,2.672 42.936,2.716 43.232,2.804C43.53,2.889 43.773,3.009 43.96,3.164C44.149,3.319 44.286,3.501 44.372,3.712C44.457,3.923 44.5,4.152 44.5,4.4C44.5,4.589 44.474,4.768 44.424,4.936C44.373,5.104 44.298,5.26 44.2,5.404C44.101,5.545 43.978,5.672 43.832,5.784C43.688,5.896 43.521,5.988 43.332,6.06C43.42,6.105 43.502,6.163 43.58,6.232C43.657,6.299 43.726,6.379 43.788,6.472L45.028,8.5Z" style="fill:rgb(191,191,191);fill-rule:nonzero;"/>
    <path d="M45.5,12C45.5,11.448 45.052,11 44.5,11L2.5,11C1.948,11 1.5,11.448 1.5,12L1.5,18C1.5,18.552 1.948,19 2.5,19L44.5,19C45.052,19 45.5,18.552 45.5,18L45.5,12Z" style="fill:rgb(139,191,64);"/>
    <path d="M45.5,12C45.5,11.448 45.052,11 44.5,11L2.5,11C1.948,11 1.5,11.448 1.5,12L1.5,18C1.5,18.552 1.948,19 2.5,19L44.5,19C45.052,19 45.5,18.552 45.5,18L45.5,12Z" style="fill:none;stroke:rgb(139,191,64);stroke-width:1px;"/>
    <path d="M4.506,15.412C4.69,15.412 4.846,15.389 4.974,15.344C5.105,15.296 5.212,15.231 5.294,15.148C5.377,15.065 5.437,14.969 5.474,14.86C5.512,14.748 5.53,14.628 5.53,14.5C5.53,14.244 5.446,14.044 5.278,13.9C5.113,13.756 4.856,13.684 4.506,13.684L3.962,13.684L3.962,15.412L4.506,15.412ZM7.378,18.5L6.154,18.5C5.928,18.5 5.765,18.415 5.666,18.244L4.698,16.552C4.653,16.48 4.602,16.428 4.546,16.396C4.49,16.361 4.41,16.344 4.306,16.344L3.962,16.344L3.962,18.5L2.61,18.5L2.61,12.672L4.506,12.672C4.928,12.672 5.286,12.716 5.582,12.804C5.881,12.889 6.124,13.009 6.31,13.164C6.5,13.319 6.637,13.501 6.722,13.712C6.808,13.923 6.85,14.152 6.85,14.4C6.85,14.589 6.825,14.768 6.774,14.936C6.724,15.104 6.649,15.26 6.55,15.404C6.452,15.545 6.329,15.672 6.182,15.784C6.038,15.896 5.872,15.988 5.682,16.06C5.77,16.105 5.853,16.163 5.93,16.232C6.008,16.299 6.077,16.379 6.138,16.472L7.378,18.5ZM9.108,13.712L9.108,15.072L10.94,15.072L10.94,16.072L9.108,16.072L9.108,17.46L11.5,17.46L11.5,18.5L7.748,18.5L7.748,12.672L11.5,12.672L11.5,13.712L9.108,13.712ZM16.402,13.744L14.762,13.744L14.762,18.5L13.41,18.5L13.41,13.744L11.77,13.744L11.77,12.672L16.402,12.672L16.402,13.744ZM18.865,15.412C19.049,15.412 19.205,15.389 19.333,15.344C19.464,15.296 19.571,15.231 19.653,15.148C19.736,15.065 19.796,14.969 19.833,14.86C19.871,14.748 19.889,14.628 19.889,14.5C19.889,14.244 19.805,14.044 19.637,13.9C19.472,13.756 19.215,13.684 18.865,13.684L18.321,13.684L18.321,15.412L18.865,15.412ZM21.737,18.5L20.513,18.5C20.287,18.5 20.124,18.415 20.025,18.244L19.057,16.552C19.012,16.48 18.961,16.428 18.905,16.396C18.849,16.361 18.769,16.344 18.665,16.344L18.321,16.344L18.321,18.5L16.969,18.5L16.969,12.672L18.865,12.672C19.287,12.672 19.645,12.716 19.941,12.804C20.24,12.889 20.483,13.009 20.669,13.164C20.859,13.319 20.996,13.501 21.081,13.712C21.167,13.923 21.209,14.152 21.209,14.4C21.209,14.589 21.184,14.768 21.133,14.936C21.083,15.104 21.008,15.26 20.909,15.404C20.811,15.545 20.688,15.672 20.541,15.784C20.397,15.896 20.231,15.988 20.041,16.06C20.129,16.105 20.212,16.163 20.289,16.232C20.366,16.299 20.436,16.379 20.497,16.472L21.737,18.5ZM23.467,18.5L22.107,18.5L22.107,12.672L23.467,12.672L23.467,18.5ZM27.271,15.48L29.343,15.48L29.343,17.94C29.045,18.159 28.726,18.317 28.387,18.416C28.051,18.515 27.699,18.564 27.331,18.564C26.851,18.564 26.414,18.489 26.019,18.34C25.627,18.188 25.291,17.98 25.011,17.716C24.731,17.449 24.515,17.135 24.363,16.772C24.211,16.407 24.135,16.011 24.135,15.584C24.135,15.149 24.207,14.751 24.351,14.388C24.495,14.023 24.701,13.708 24.967,13.444C25.237,13.18 25.561,12.975 25.939,12.828C26.321,12.681 26.746,12.608 27.215,12.608C27.458,12.608 27.686,12.628 27.899,12.668C28.113,12.708 28.309,12.763 28.487,12.832C28.669,12.901 28.834,12.984 28.983,13.08C29.133,13.176 29.266,13.28 29.383,13.392L28.991,13.988C28.93,14.081 28.85,14.139 28.751,14.16C28.655,14.181 28.551,14.157 28.439,14.088C28.333,14.024 28.231,13.969 28.135,13.924C28.042,13.876 27.946,13.837 27.847,13.808C27.749,13.779 27.645,13.757 27.535,13.744C27.426,13.731 27.303,13.724 27.167,13.724C26.914,13.724 26.686,13.769 26.483,13.86C26.281,13.948 26.107,14.073 25.963,14.236C25.822,14.399 25.713,14.595 25.635,14.824C25.558,15.051 25.519,15.304 25.519,15.584C25.519,15.893 25.562,16.168 25.647,16.408C25.733,16.648 25.853,16.851 26.007,17.016C26.165,17.181 26.351,17.308 26.567,17.396C26.786,17.481 27.027,17.524 27.291,17.524C27.454,17.524 27.601,17.508 27.731,17.476C27.865,17.444 27.994,17.401 28.119,17.348L28.119,16.464L27.543,16.464C27.458,16.464 27.391,16.441 27.343,16.396C27.295,16.351 27.271,16.293 27.271,16.224L27.271,15.48ZM32.933,15.48L35.005,15.48L35.005,17.94C34.706,18.159 34.387,18.317 34.049,18.416C33.713,18.515 33.361,18.564 32.993,18.564C32.513,18.564 32.075,18.489 31.681,18.34C31.289,18.188 30.953,17.98 30.673,17.716C30.393,17.449 30.177,17.135 30.025,16.772C29.873,16.407 29.797,16.011 29.797,15.584C29.797,15.149 29.869,14.751 30.013,14.388C30.157,14.023 30.362,13.708 30.629,13.444C30.898,13.18 31.222,12.975 31.601,12.828C31.982,12.681 32.407,12.608 32.877,12.608C33.119,12.608 33.347,12.628 33.561,12.668C33.774,12.708 33.97,12.763 34.149,12.832C34.33,12.901 34.495,12.984 34.645,13.08C34.794,13.176 34.927,13.28 35.045,13.392L34.653,13.988C34.591,14.081 34.511,14.139 34.413,14.16C34.317,14.181 34.213,14.157 34.101,14.088C33.994,14.024 33.893,13.969 33.797,13.924C33.703,13.876 33.607,13.837 33.509,13.808C33.41,13.779 33.306,13.757 33.197,13.744C33.087,13.731 32.965,13.724 32.829,13.724C32.575,13.724 32.347,13.769 32.145,13.86C31.942,13.948 31.769,14.073 31.625,14.236C31.483,14.399 31.374,14.595 31.297,14.824C31.219,15.051 31.181,15.304 31.181,15.584C31.181,15.893 31.223,16.168 31.309,16.408C31.394,16.648 31.514,16.851 31.669,17.016C31.826,17.181 32.013,17.308 32.229,17.396C32.447,17.481 32.689,17.524 32.953,17.524C33.115,17.524 33.262,17.508 33.393,17.476C33.526,17.444 33.655,17.401 33.781,17.348L33.781,16.464L33.205,16.464C33.119,16.464 33.053,16.441 33.005,16.396C32.957,16.351 32.933,16.293 32.933,16.224L32.933,15.48ZM37.154,13.712L37.154,15.072L38.986,15.072L38.986,16.072L37.154,16.072L37.154,17.46L39.546,17.46L39.546,18.5L35.794,18.5L35.794,12.672L39.546,12.672L39.546,13.712L37.154,13.712ZM42.156,15.412C42.34,15.412 42.496,15.389 42.624,15.344C42.754,15.296 42.861,15.231 42.944,15.148C43.026,15.065 43.086,14.969 43.124,14.86C43.161,14.748 43.18,14.628 43.18,14.5C43.18,14.244 43.096,14.044 42.928,13.9C42.762,13.756 42.505,13.684 42.156,13.684L41.612,13.684L41.612,15.412L42.156,15.412ZM45.028,18.5L43.804,18.5C43.577,18.5 43.414,18.415 43.316,18.244L42.348,16.552C42.302,16.48 42.252,16.428 42.196,16.396C42.14,16.361 42.06,16.344 41.956,16.344L41.612,16.344L41.612,18.5L40.26,18.5L40.26,12.672L42.156,12.672C42.577,12.672 42.936,12.716 43.232,12.804C43.53,12.889 43.773,13.009 43.96,13.164C44.149,13.319 44.286,13.501 44.372,13.712C44.457,13.923 44.5,14.152 44.5,14.4C44.5,14.589 44.474,14.768 44.424,14.936C44.373,15.104 44.298,15.26 44.2,15.404C44.101,15.545 43.978,15.672 43.832,15.784C43.688,15.896 43.521,15.988 43.332,16.06C43.42,16.105 43.502,16.163 43.58,16.232C43.657,16.299 43.726,16.379 43.788,16.472L45.028,18.5Z" style="fill-rule:nonzero;"/>
</svg>
