<?xml version="1.0" encoding="UTF-8" standalone="no"?>
<!DOCTYPE svg PUBLIC "-//W3C//DTD SVG 1.1//EN" "http://www.w3.org/Graphics/SVG/1.1/DTD/svg11.dtd">
<svg width="100%" height="100%" viewBox="0 0 51 28" version="1.1" xmlns="http://www.w3.org/2000/svg" xmlns:xlink="http://www.w3.org/1999/xlink" xml:space="preserve" xmlns:serif="http://www.serif.com/" style="fill-rule:evenodd;clip-rule:evenodd;">
    <path d="M0.5,2.5C0.5,1.395 1.395,0.5 2.5,0.5L48.5,0.5C49.605,0.5 50.5,1.395 50.5,2.5L50.5,11.5C50.5,12.605 49.605,13.5 48.5,13.5L2.5,13.5C1.395,13.5 0.5,12.605 0.5,11.5L0.5,2.5Z" style="fill:rgb(36,36,36);fill-rule:nonzero;"/>
    <path d="M13.381,8.932C13.562,8.932 13.724,8.903 13.865,8.844C14.009,8.783 14.13,8.696 14.229,8.584C14.328,8.472 14.402,8.336 14.453,8.176C14.506,8.013 14.533,7.829 14.533,7.624L14.533,4.172L15.885,4.172L15.885,7.624C15.885,7.981 15.826,8.309 15.709,8.608C15.594,8.907 15.429,9.164 15.213,9.38C14.997,9.596 14.734,9.764 14.425,9.884C14.116,10.004 13.768,10.064 13.381,10.064C12.992,10.064 12.642,10.004 12.333,9.884C12.024,9.764 11.761,9.596 11.545,9.38C11.329,9.164 11.164,8.907 11.049,8.608C10.934,8.309 10.877,7.981 10.877,7.624L10.877,4.172L12.229,4.172L12.229,7.62C12.229,7.825 12.254,8.009 12.305,8.172C12.358,8.332 12.434,8.469 12.533,8.584C12.632,8.696 12.752,8.783 12.893,8.844C13.037,8.903 13.2,8.932 13.381,8.932ZM17.68,6.3C17.76,6.225 17.843,6.156 17.928,6.092C18.014,6.028 18.104,5.975 18.2,5.932C18.299,5.887 18.404,5.852 18.516,5.828C18.631,5.801 18.755,5.788 18.888,5.788C19.115,5.788 19.315,5.828 19.488,5.908C19.664,5.985 19.812,6.095 19.932,6.236C20.052,6.375 20.143,6.541 20.204,6.736C20.266,6.928 20.296,7.137 20.296,7.364L20.296,10L19.056,10L19.056,7.364C19.056,7.161 19.01,7.004 18.916,6.892C18.823,6.777 18.686,6.72 18.504,6.72C18.368,6.72 18.24,6.749 18.12,6.808C18.003,6.864 17.888,6.941 17.776,7.04L17.776,10L16.536,10L16.536,5.852L17.304,5.852C17.459,5.852 17.56,5.921 17.608,6.06L17.68,6.3ZM22.247,5.852L22.247,10L21.007,10L21.007,5.852L22.247,5.852ZM22.375,4.716C22.375,4.815 22.355,4.908 22.315,4.996C22.275,5.081 22.22,5.157 22.151,5.224C22.082,5.288 22,5.34 21.907,5.38C21.816,5.417 21.719,5.436 21.615,5.436C21.514,5.436 21.419,5.417 21.331,5.38C21.243,5.34 21.164,5.288 21.095,5.224C21.028,5.157 20.975,5.081 20.935,4.996C20.898,4.908 20.879,4.815 20.879,4.716C20.879,4.615 20.898,4.52 20.935,4.432C20.975,4.344 21.028,4.267 21.095,4.2C21.164,4.133 21.243,4.081 21.331,4.044C21.419,4.007 21.514,3.988 21.615,3.988C21.719,3.988 21.816,4.007 21.907,4.044C22,4.081 22.082,4.133 22.151,4.2C22.22,4.267 22.275,4.344 22.315,4.432C22.355,4.52 22.375,4.615 22.375,4.716ZM24.232,8.872C24.325,8.973 24.426,9.045 24.536,9.088C24.645,9.131 24.76,9.152 24.88,9.152C24.994,9.152 25.1,9.129 25.196,9.084C25.292,9.039 25.374,8.967 25.444,8.868C25.516,8.767 25.572,8.636 25.612,8.476C25.652,8.316 25.672,8.121 25.672,7.892C25.672,7.673 25.656,7.489 25.624,7.34C25.592,7.191 25.546,7.071 25.488,6.98C25.432,6.887 25.364,6.82 25.284,6.78C25.204,6.74 25.114,6.72 25.016,6.72C24.834,6.72 24.685,6.753 24.568,6.82C24.45,6.887 24.338,6.984 24.232,7.112L24.232,8.872ZM24.156,6.364C24.318,6.191 24.502,6.049 24.708,5.94C24.916,5.828 25.162,5.772 25.448,5.772C25.664,5.772 25.864,5.82 26.048,5.916C26.232,6.012 26.39,6.151 26.524,6.332C26.657,6.513 26.761,6.736 26.836,7C26.913,7.261 26.952,7.559 26.952,7.892C26.952,8.204 26.908,8.492 26.82,8.756C26.734,9.02 26.613,9.249 26.456,9.444C26.301,9.639 26.114,9.791 25.896,9.9C25.68,10.009 25.44,10.064 25.176,10.064C24.96,10.064 24.778,10.033 24.632,9.972C24.485,9.911 24.352,9.828 24.232,9.724L24.232,11.316L22.992,11.316L22.992,5.852L23.76,5.852C23.914,5.852 24.016,5.921 24.064,6.06L24.156,6.364ZM29.385,5.788C29.7,5.788 29.987,5.837 30.245,5.936C30.504,6.035 30.725,6.176 30.909,6.36C31.096,6.544 31.24,6.768 31.341,7.032C31.445,7.293 31.497,7.588 31.497,7.916C31.497,8.247 31.445,8.545 31.341,8.812C31.24,9.076 31.096,9.301 30.909,9.488C30.725,9.672 30.504,9.815 30.245,9.916C29.987,10.015 29.7,10.064 29.385,10.064C29.068,10.064 28.779,10.015 28.517,9.916C28.259,9.815 28.035,9.672 27.845,9.488C27.659,9.301 27.513,9.076 27.409,8.812C27.308,8.545 27.257,8.247 27.257,7.916C27.257,7.588 27.308,7.293 27.409,7.032C27.513,6.768 27.659,6.544 27.845,6.36C28.035,6.176 28.259,6.035 28.517,5.936C28.779,5.837 29.068,5.788 29.385,5.788ZM29.385,9.144C29.671,9.144 29.88,9.044 30.013,8.844C30.149,8.641 30.217,8.335 30.217,7.924C30.217,7.513 30.149,7.208 30.013,7.008C29.88,6.808 29.671,6.708 29.385,6.708C29.092,6.708 28.877,6.808 28.741,7.008C28.605,7.208 28.537,7.513 28.537,7.924C28.537,8.335 28.605,8.641 28.741,8.844C28.877,9.044 29.092,9.144 29.385,9.144ZM33.242,4.012L33.242,10L32.002,10L32.002,4.012L33.242,4.012ZM36.1,8.312C35.852,8.323 35.648,8.344 35.488,8.376C35.328,8.408 35.201,8.448 35.108,8.496C35.015,8.544 34.949,8.599 34.912,8.66C34.877,8.721 34.86,8.788 34.86,8.86C34.86,9.001 34.899,9.101 34.976,9.16C35.053,9.216 35.167,9.244 35.316,9.244C35.476,9.244 35.616,9.216 35.736,9.16C35.856,9.104 35.977,9.013 36.1,8.888L36.1,8.312ZM33.868,6.428C34.119,6.207 34.396,6.043 34.7,5.936C35.007,5.827 35.335,5.772 35.684,5.772C35.935,5.772 36.16,5.813 36.36,5.896C36.563,5.976 36.733,6.089 36.872,6.236C37.013,6.38 37.121,6.552 37.196,6.752C37.271,6.952 37.308,7.171 37.308,7.408L37.308,10L36.74,10C36.623,10 36.533,9.984 36.472,9.952C36.413,9.92 36.364,9.853 36.324,9.752L36.236,9.524C36.132,9.612 36.032,9.689 35.936,9.756C35.84,9.823 35.74,9.88 35.636,9.928C35.535,9.973 35.425,10.007 35.308,10.028C35.193,10.052 35.065,10.064 34.924,10.064C34.734,10.064 34.563,10.04 34.408,9.992C34.253,9.941 34.121,9.868 34.012,9.772C33.905,9.676 33.823,9.557 33.764,9.416C33.705,9.272 33.676,9.107 33.676,8.92C33.676,8.771 33.713,8.62 33.788,8.468C33.863,8.313 33.992,8.173 34.176,8.048C34.36,7.92 34.608,7.813 34.92,7.728C35.232,7.643 35.625,7.595 36.1,7.584L36.1,7.408C36.1,7.165 36.049,6.991 35.948,6.884C35.849,6.775 35.708,6.72 35.524,6.72C35.377,6.72 35.257,6.736 35.164,6.768C35.071,6.8 34.987,6.836 34.912,6.876C34.84,6.916 34.769,6.952 34.7,6.984C34.631,7.016 34.548,7.032 34.452,7.032C34.367,7.032 34.295,7.011 34.236,6.968C34.177,6.925 34.129,6.875 34.092,6.816L33.868,6.428ZM39.141,6.492C39.269,6.268 39.415,6.092 39.581,5.964C39.749,5.836 39.941,5.772 40.157,5.772C40.343,5.772 40.495,5.816 40.612,5.904L40.533,6.816C40.519,6.875 40.497,6.915 40.465,6.936C40.435,6.957 40.394,6.968 40.341,6.968C40.319,6.968 40.291,6.967 40.257,6.964C40.222,6.961 40.186,6.959 40.149,6.956C40.111,6.951 40.073,6.947 40.033,6.944C39.995,6.939 39.961,6.936 39.929,6.936C39.747,6.936 39.602,6.984 39.493,7.08C39.386,7.176 39.295,7.309 39.221,7.48L39.221,10L37.981,10L37.981,5.852L38.717,5.852C38.778,5.852 38.829,5.857 38.869,5.868C38.911,5.879 38.946,5.896 38.972,5.92C39.002,5.941 39.023,5.971 39.036,6.008C39.053,6.045 39.066,6.091 39.077,6.144L39.141,6.492Z" style="fill:rgb(180,180,180);fill-rule:nonzero;"/>
    <path d="M2.5,1L48.5,1L48.5,0L2.5,0L2.5,1ZM50,2.5L50,11.5L51,11.5L51,2.5L50,2.5ZM48.5,13L2.5,13L2.5,14L48.5,14L48.5,13ZM1,11.5L1,2.5L0,2.5L0,11.5L1,11.5ZM2.5,13C1.672,13 1,12.328 1,11.5L0,11.5C0,12.881 1.119,14 2.5,14L2.5,13ZM50,11.5C50,12.328 49.328,13 48.5,13L48.5,14C49.881,14 51,12.881 51,11.5L50,11.5ZM48.5,1C49.328,1 50,1.672 50,2.5L51,2.5C51,1.119 49.881,0 48.5,0L48.5,1ZM2.5,0C1.119,0 0,1.119 0,2.5L1,2.5C1,1.672 1.672,1 2.5,1L2.5,0Z" style="fill-rule:nonzero;"/>
    <path d="M0.5,16.5C0.5,15.395 1.395,14.5 2.5,14.5L48.5,14.5C49.605,14.5 50.5,15.395 50.5,16.5L50.5,25.5C50.5,26.605 49.605,27.5 48.5,27.5L2.5,27.5C1.395,27.5 0.5,26.605 0.5,25.5L0.5,16.5Z" style="fill:rgb(36,36,36);fill-rule:nonzero;"/>
    <path d="M48.5,17.5C48.5,16.948 48.052,16.5 47.5,16.5L3.5,16.5C2.948,16.5 2.5,16.948 2.5,17.5L2.5,24.5C2.5,25.052 2.948,25.5 3.5,25.5L47.5,25.5C48.052,25.5 48.5,25.052 48.5,24.5L48.5,17.5Z" style="fill:rgb(139,191,64);"/>
    <path d="M48.5,17.5C48.5,16.948 48.052,16.5 47.5,16.5L3.5,16.5C2.948,16.5 2.5,16.948 2.5,17.5L2.5,24.5C2.5,25.052 2.948,25.5 3.5,25.5L47.5,25.5C48.052,25.5 48.5,25.052 48.5,24.5L48.5,17.5Z" style="fill:none;stroke:rgb(139,191,64);stroke-width:1px;"/>
    <path d="M13.381,22.932C13.562,22.932 13.724,22.903 13.865,22.844C14.009,22.783 14.13,22.696 14.229,22.584C14.328,22.472 14.402,22.336 14.453,22.176C14.506,22.013 14.533,21.829 14.533,21.624L14.533,18.172L15.885,18.172L15.885,21.624C15.885,21.981 15.826,22.309 15.709,22.608C15.594,22.907 15.429,23.164 15.213,23.38C14.997,23.596 14.734,23.764 14.425,23.884C14.116,24.004 13.768,24.064 13.381,24.064C12.992,24.064 12.642,24.004 12.333,23.884C12.024,23.764 11.761,23.596 11.545,23.38C11.329,23.164 11.164,22.907 11.049,22.608C10.934,22.309 10.877,21.981 10.877,21.624L10.877,18.172L12.229,18.172L12.229,21.62C12.229,21.825 12.254,22.009 12.305,22.172C12.358,22.332 12.434,22.469 12.533,22.584C12.632,22.696 12.752,22.783 12.893,22.844C13.037,22.903 13.2,22.932 13.381,22.932ZM17.68,20.3C17.76,20.225 17.843,20.156 17.928,20.092C18.014,20.028 18.104,19.975 18.2,19.932C18.299,19.887 18.404,19.852 18.516,19.828C18.631,19.801 18.755,19.788 18.888,19.788C19.115,19.788 19.315,19.828 19.488,19.908C19.664,19.985 19.812,20.095 19.932,20.236C20.052,20.375 20.143,20.541 20.204,20.736C20.266,20.928 20.296,21.137 20.296,21.364L20.296,24L19.056,24L19.056,21.364C19.056,21.161 19.01,21.004 18.916,20.892C18.823,20.777 18.686,20.72 18.504,20.72C18.368,20.72 18.24,20.749 18.12,20.808C18.003,20.864 17.888,20.941 17.776,21.04L17.776,24L16.536,24L16.536,19.852L17.304,19.852C17.459,19.852 17.56,19.921 17.608,20.06L17.68,20.3ZM22.247,19.852L22.247,24L21.007,24L21.007,19.852L22.247,19.852ZM22.375,18.716C22.375,18.815 22.355,18.908 22.315,18.996C22.275,19.081 22.22,19.157 22.151,19.224C22.082,19.288 22,19.34 21.907,19.38C21.816,19.417 21.719,19.436 21.615,19.436C21.514,19.436 21.419,19.417 21.331,19.38C21.243,19.34 21.164,19.288 21.095,19.224C21.028,19.157 20.975,19.081 20.935,18.996C20.898,18.908 20.879,18.815 20.879,18.716C20.879,18.615 20.898,18.52 20.935,18.432C20.975,18.344 21.028,18.267 21.095,18.2C21.164,18.133 21.243,18.081 21.331,18.044C21.419,18.007 21.514,17.988 21.615,17.988C21.719,17.988 21.816,18.007 21.907,18.044C22,18.081 22.082,18.133 22.151,18.2C22.22,18.267 22.275,18.344 22.315,18.432C22.355,18.52 22.375,18.615 22.375,18.716ZM24.232,22.872C24.325,22.973 24.426,23.045 24.536,23.088C24.645,23.131 24.76,23.152 24.88,23.152C24.994,23.152 25.1,23.129 25.196,23.084C25.292,23.039 25.374,22.967 25.444,22.868C25.516,22.767 25.572,22.636 25.612,22.476C25.652,22.316 25.672,22.121 25.672,21.892C25.672,21.673 25.656,21.489 25.624,21.34C25.592,21.191 25.546,21.071 25.488,20.98C25.432,20.887 25.364,20.82 25.284,20.78C25.204,20.74 25.114,20.72 25.016,20.72C24.834,20.72 24.685,20.753 24.568,20.82C24.45,20.887 24.338,20.984 24.232,21.112L24.232,22.872ZM24.156,20.364C24.318,20.191 24.502,20.049 24.708,19.94C24.916,19.828 25.162,19.772 25.448,19.772C25.664,19.772 25.864,19.82 26.048,19.916C26.232,20.012 26.39,20.151 26.524,20.332C26.657,20.513 26.761,20.736 26.836,21C26.913,21.261 26.952,21.559 26.952,21.892C26.952,22.204 26.908,22.492 26.82,22.756C26.734,23.02 26.613,23.249 26.456,23.444C26.301,23.639 26.114,23.791 25.896,23.9C25.68,24.009 25.44,24.064 25.176,24.064C24.96,24.064 24.778,24.033 24.632,23.972C24.485,23.911 24.352,23.828 24.232,23.724L24.232,25.316L22.992,25.316L22.992,19.852L23.76,19.852C23.914,19.852 24.016,19.921 24.064,20.06L24.156,20.364ZM29.385,19.788C29.7,19.788 29.987,19.837 30.245,19.936C30.504,20.035 30.725,20.176 30.909,20.36C31.096,20.544 31.24,20.768 31.341,21.032C31.445,21.293 31.497,21.588 31.497,21.916C31.497,22.247 31.445,22.545 31.341,22.812C31.24,23.076 31.096,23.301 30.909,23.488C30.725,23.672 30.504,23.815 30.245,23.916C29.987,24.015 29.7,24.064 29.385,24.064C29.068,24.064 28.779,24.015 28.517,23.916C28.259,23.815 28.035,23.672 27.845,23.488C27.659,23.301 27.513,23.076 27.409,22.812C27.308,22.545 27.257,22.247 27.257,21.916C27.257,21.588 27.308,21.293 27.409,21.032C27.513,20.768 27.659,20.544 27.845,20.36C28.035,20.176 28.259,20.035 28.517,19.936C28.779,19.837 29.068,19.788 29.385,19.788ZM29.385,23.144C29.671,23.144 29.88,23.044 30.013,22.844C30.149,22.641 30.217,22.335 30.217,21.924C30.217,21.513 30.149,21.208 30.013,21.008C29.88,20.808 29.671,20.708 29.385,20.708C29.092,20.708 28.877,20.808 28.741,21.008C28.605,21.208 28.537,21.513 28.537,21.924C28.537,22.335 28.605,22.641 28.741,22.844C28.877,23.044 29.092,23.144 29.385,23.144ZM33.242,18.012L33.242,24L32.002,24L32.002,18.012L33.242,18.012ZM36.1,22.312C35.852,22.323 35.648,22.344 35.488,22.376C35.328,22.408 35.201,22.448 35.108,22.496C35.015,22.544 34.949,22.599 34.912,22.66C34.877,22.721 34.86,22.788 34.86,22.86C34.86,23.001 34.899,23.101 34.976,23.16C35.053,23.216 35.167,23.244 35.316,23.244C35.476,23.244 35.616,23.216 35.736,23.16C35.856,23.104 35.977,23.013 36.1,22.888L36.1,22.312ZM33.868,20.428C34.119,20.207 34.396,20.043 34.7,19.936C35.007,19.827 35.335,19.772 35.684,19.772C35.935,19.772 36.16,19.813 36.36,19.896C36.563,19.976 36.733,20.089 36.872,20.236C37.013,20.38 37.121,20.552 37.196,20.752C37.271,20.952 37.308,21.171 37.308,21.408L37.308,24L36.74,24C36.623,24 36.533,23.984 36.472,23.952C36.413,23.92 36.364,23.853 36.324,23.752L36.236,23.524C36.132,23.612 36.032,23.689 35.936,23.756C35.84,23.823 35.74,23.88 35.636,23.928C35.535,23.973 35.425,24.007 35.308,24.028C35.193,24.052 35.065,24.064 34.924,24.064C34.734,24.064 34.563,24.04 34.408,23.992C34.253,23.941 34.121,23.868 34.012,23.772C33.905,23.676 33.823,23.557 33.764,23.416C33.705,23.272 33.676,23.107 33.676,22.92C33.676,22.771 33.713,22.62 33.788,22.468C33.863,22.313 33.992,22.173 34.176,22.048C34.36,21.92 34.608,21.813 34.92,21.728C35.232,21.643 35.625,21.595 36.1,21.584L36.1,21.408C36.1,21.165 36.049,20.991 35.948,20.884C35.849,20.775 35.708,20.72 35.524,20.72C35.377,20.72 35.257,20.736 35.164,20.768C35.071,20.8 34.987,20.836 34.912,20.876C34.84,20.916 34.769,20.952 34.7,20.984C34.631,21.016 34.548,21.032 34.452,21.032C34.367,21.032 34.295,21.011 34.236,20.968C34.177,20.925 34.129,20.875 34.092,20.816L33.868,20.428ZM39.141,20.492C39.269,20.268 39.415,20.092 39.581,19.964C39.749,19.836 39.941,19.772 40.157,19.772C40.343,19.772 40.495,19.816 40.612,19.904L40.533,20.816C40.519,20.875 40.497,20.915 40.465,20.936C40.435,20.957 40.394,20.968 40.341,20.968C40.319,20.968 40.291,20.967 40.257,20.964C40.222,20.961 40.186,20.959 40.149,20.956C40.111,20.951 40.073,20.947 40.033,20.944C39.995,20.939 39.961,20.936 39.929,20.936C39.747,20.936 39.602,20.984 39.493,21.08C39.386,21.176 39.295,21.309 39.221,21.48L39.221,24L37.981,24L37.981,19.852L38.717,19.852C38.778,19.852 38.829,19.857 38.869,19.868C38.911,19.879 38.946,19.896 38.972,19.92C39.002,19.941 39.023,19.971 39.036,20.008C39.053,20.045 39.066,20.091 39.077,20.144L39.141,20.492Z" style="fill:rgb(36,36,36);fill-rule:nonzero;"/>
    <path d="M2.5,15L48.5,15L48.5,14L2.5,14L2.5,15ZM50,16.5L50,25.5L51,25.5L51,16.5L50,16.5ZM48.5,27L2.5,27L2.5,28L48.5,28L48.5,27ZM1,25.5L1,16.5L0,16.5L0,25.5L1,25.5ZM2.5,27C1.672,27 1,26.328 1,25.5L0,25.5C0,26.881 1.119,28 2.5,28L2.5,27ZM50,25.5C50,26.328 49.328,27 48.5,27L48.5,28C49.881,28 51,26.881 51,25.5L50,25.5ZM48.5,15C49.328,15 50,15.672 50,16.5L51,16.5C51,15.119 49.881,14 48.5,14L48.5,15ZM2.5,14C1.119,14 0,15.119 0,16.5L1,16.5C1,15.672 1.672,15 2.5,15L2.5,14Z" style="fill-rule:nonzero;"/>
</svg>
