<?xml version="1.0" encoding="UTF-8" standalone="no"?>
<!DOCTYPE svg PUBLIC "-//W3C//DTD SVG 1.1//EN" "http://www.w3.org/Graphics/SVG/1.1/DTD/svg11.dtd">
<svg width="100%" height="100%" viewBox="0 0 94 42" version="1.1" xmlns="http://www.w3.org/2000/svg" xmlns:xlink="http://www.w3.org/1999/xlink" xml:space="preserve" xmlns:serif="http://www.serif.com/" style="fill-rule:evenodd;clip-rule:evenodd;">
    <path d="M0.5,2.5C0.5,1.395 1.395,0.5 2.5,0.5L91.5,0.5C92.605,0.5 93.5,1.395 93.5,2.5L93.5,11.5C93.5,12.605 92.605,13.5 91.5,13.5L2.5,13.5C1.395,13.5 0.5,12.605 0.5,11.5L0.5,2.5Z" style="fill:rgb(36,36,36);fill-rule:nonzero;"/>
    <path d="M30.5,3.5C30.5,2.948 30.052,2.5 29.5,2.5L3.5,2.5C2.948,2.5 2.5,2.948 2.5,3.5L2.5,10.5C2.5,11.052 2.948,11.5 3.5,11.5L29.5,11.5C30.052,11.5 30.5,11.052 30.5,10.5L30.5,3.5Z" style="fill:rgb(139,191,64);"/>
    <path d="M30.5,3.5C30.5,2.948 30.052,2.5 29.5,2.5L3.5,2.5C2.948,2.5 2.5,2.948 2.5,3.5L2.5,10.5C2.5,11.052 2.948,11.5 3.5,11.5L29.5,11.5C30.052,11.5 30.5,11.052 30.5,10.5L30.5,3.5Z" style="fill:none;stroke:rgb(139,191,64);stroke-width:1px;"/>
    <path d="M16.821,7.084C16.821,7.505 16.747,7.897 16.601,8.26C16.457,8.623 16.253,8.939 15.989,9.208C15.725,9.475 15.406,9.684 15.033,9.836C14.662,9.988 14.25,10.064 13.797,10.064C13.343,10.064 12.93,9.988 12.557,9.836C12.183,9.684 11.863,9.475 11.597,9.208C11.333,8.939 11.127,8.623 10.981,8.26C10.837,7.897 10.765,7.505 10.765,7.084C10.765,6.663 10.837,6.271 10.981,5.908C11.127,5.545 11.333,5.231 11.597,4.964C11.863,4.697 12.183,4.488 12.557,4.336C12.93,4.184 13.343,4.108 13.797,4.108C14.25,4.108 14.662,4.185 15.033,4.34C15.406,4.492 15.725,4.701 15.989,4.968C16.253,5.235 16.457,5.549 16.601,5.912C16.747,6.275 16.821,6.665 16.821,7.084ZM15.437,7.084C15.437,6.796 15.399,6.537 15.325,6.308C15.25,6.076 15.142,5.88 15.001,5.72C14.862,5.56 14.691,5.437 14.489,5.352C14.286,5.267 14.055,5.224 13.797,5.224C13.535,5.224 13.302,5.267 13.097,5.352C12.894,5.437 12.722,5.56 12.581,5.72C12.442,5.88 12.335,6.076 12.261,6.308C12.186,6.537 12.149,6.796 12.149,7.084C12.149,7.375 12.186,7.636 12.261,7.868C12.335,8.097 12.442,8.292 12.581,8.452C12.722,8.612 12.894,8.735 13.097,8.82C13.302,8.903 13.535,8.944 13.797,8.944C14.055,8.944 14.286,8.903 14.489,8.82C14.691,8.735 14.862,8.612 15.001,8.452C15.142,8.292 15.25,8.097 15.325,7.868C15.399,7.636 15.437,7.375 15.437,7.084ZM17.606,10L17.606,6.704L17.334,6.648C17.24,6.627 17.164,6.593 17.106,6.548C17.049,6.503 17.022,6.436 17.022,6.348L17.022,5.86L17.606,5.86L17.606,5.704C17.606,5.467 17.643,5.252 17.718,5.06C17.795,4.865 17.904,4.7 18.046,4.564C18.19,4.428 18.364,4.324 18.57,4.252C18.775,4.177 19.008,4.14 19.27,4.14C19.371,4.14 19.464,4.147 19.549,4.16C19.635,4.171 19.724,4.188 19.818,4.212L19.794,4.816C19.788,4.901 19.752,4.961 19.686,4.996C19.622,5.028 19.555,5.044 19.485,5.044C19.376,5.044 19.279,5.055 19.194,5.076C19.108,5.097 19.036,5.135 18.978,5.188C18.922,5.241 18.879,5.313 18.85,5.404C18.82,5.492 18.805,5.604 18.805,5.74L18.805,5.86L20.262,5.86L20.262,5.548C20.262,5.311 20.299,5.096 20.374,4.904C20.451,4.712 20.56,4.548 20.702,4.412C20.846,4.276 21.02,4.171 21.226,4.096C21.431,4.021 21.664,3.984 21.926,3.984C22.027,3.984 22.12,3.991 22.206,4.004C22.291,4.015 22.38,4.033 22.474,4.06L22.45,4.664C22.447,4.707 22.436,4.743 22.418,4.772C22.399,4.799 22.374,4.821 22.342,4.84C22.312,4.856 22.28,4.868 22.246,4.876C22.211,4.884 22.176,4.888 22.142,4.888C22.032,4.888 21.935,4.899 21.85,4.92C21.764,4.941 21.692,4.98 21.634,5.036C21.578,5.089 21.535,5.161 21.506,5.252C21.476,5.34 21.462,5.452 21.462,5.588L21.462,5.86L22.434,5.86L22.434,6.708L21.502,6.708L21.502,10L20.262,10L20.262,6.708L18.846,6.708L18.846,10L17.606,10Z" style="fill:white;fill-rule:nonzero;"/>
    <rect x="31.5" y="2" width="1" height="10" style="fill-opacity:0.5;fill-rule:nonzero;"/>
    <path d="M47.836,7.084C47.836,7.505 47.763,7.897 47.616,8.26C47.472,8.623 47.268,8.939 47.004,9.208C46.74,9.475 46.422,9.684 46.048,9.836C45.678,9.988 45.266,10.064 44.812,10.064C44.359,10.064 43.946,9.988 43.572,9.836C43.199,9.684 42.879,9.475 42.612,9.208C42.348,8.939 42.143,8.623 41.996,8.26C41.852,7.897 41.78,7.505 41.78,7.084C41.78,6.663 41.852,6.271 41.996,5.908C42.143,5.545 42.348,5.231 42.612,4.964C42.879,4.697 43.199,4.488 43.572,4.336C43.946,4.184 44.359,4.108 44.812,4.108C45.266,4.108 45.678,4.185 46.048,4.34C46.422,4.492 46.74,4.701 47.004,4.968C47.268,5.235 47.472,5.549 47.616,5.912C47.763,6.275 47.836,6.665 47.836,7.084ZM46.452,7.084C46.452,6.796 46.415,6.537 46.34,6.308C46.266,6.076 46.158,5.88 46.016,5.72C45.878,5.56 45.707,5.437 45.504,5.352C45.301,5.267 45.071,5.224 44.812,5.224C44.551,5.224 44.318,5.267 44.112,5.352C43.91,5.437 43.737,5.56 43.596,5.72C43.458,5.88 43.351,6.076 43.276,6.308C43.202,6.537 43.164,6.796 43.164,7.084C43.164,7.375 43.202,7.636 43.276,7.868C43.351,8.097 43.458,8.292 43.596,8.452C43.737,8.612 43.91,8.735 44.112,8.82C44.318,8.903 44.551,8.944 44.812,8.944C45.071,8.944 45.301,8.903 45.504,8.82C45.707,8.735 45.878,8.612 46.016,8.452C46.158,8.292 46.266,8.097 46.34,7.868C46.415,7.636 46.452,7.375 46.452,7.084ZM49.449,6.3C49.529,6.225 49.612,6.156 49.697,6.092C49.783,6.028 49.873,5.975 49.969,5.932C50.068,5.887 50.173,5.852 50.285,5.828C50.4,5.801 50.524,5.788 50.657,5.788C50.884,5.788 51.084,5.828 51.257,5.908C51.433,5.985 51.581,6.095 51.701,6.236C51.821,6.375 51.912,6.541 51.973,6.736C52.035,6.928 52.065,7.137 52.065,7.364L52.065,10L50.825,10L50.825,7.364C50.825,7.161 50.779,7.004 50.685,6.892C50.592,6.777 50.455,6.72 50.273,6.72C50.137,6.72 50.009,6.749 49.889,6.808C49.772,6.864 49.657,6.941 49.545,7.04L49.545,10L48.305,10L48.305,5.852L49.073,5.852C49.228,5.852 49.329,5.921 49.377,6.06L49.449,6.3Z" style="fill:rgb(180,180,180);fill-rule:nonzero;"/>
    <rect x="61.5" y="2" width="1" height="10" style="fill-opacity:0.5;fill-rule:nonzero;"/>
    <path d="M72.442,6.98L74.514,6.98L74.514,9.44C74.216,9.659 73.897,9.817 73.558,9.916C73.222,10.015 72.87,10.064 72.502,10.064C72.022,10.064 71.585,9.989 71.19,9.84C70.798,9.688 70.462,9.48 70.182,9.216C69.902,8.949 69.686,8.635 69.534,8.272C69.382,7.907 69.306,7.511 69.306,7.084C69.306,6.649 69.378,6.251 69.522,5.888C69.666,5.523 69.872,5.208 70.138,4.944C70.408,4.68 70.732,4.475 71.11,4.328C71.492,4.181 71.917,4.108 72.386,4.108C72.629,4.108 72.857,4.128 73.07,4.168C73.284,4.208 73.48,4.263 73.658,4.332C73.84,4.401 74.005,4.484 74.154,4.58C74.304,4.676 74.437,4.78 74.554,4.892L74.162,5.488C74.101,5.581 74.021,5.639 73.922,5.66C73.826,5.681 73.722,5.657 73.61,5.588C73.504,5.524 73.402,5.469 73.306,5.424C73.213,5.376 73.117,5.337 73.018,5.308C72.92,5.279 72.816,5.257 72.706,5.244C72.597,5.231 72.474,5.224 72.338,5.224C72.085,5.224 71.857,5.269 71.654,5.36C71.452,5.448 71.278,5.573 71.134,5.736C70.993,5.899 70.884,6.095 70.806,6.324C70.729,6.551 70.69,6.804 70.69,7.084C70.69,7.393 70.733,7.668 70.818,7.908C70.904,8.148 71.024,8.351 71.178,8.516C71.336,8.681 71.522,8.808 71.738,8.896C71.957,8.981 72.198,9.024 72.462,9.024C72.625,9.024 72.772,9.008 72.902,8.976C73.036,8.944 73.165,8.901 73.29,8.848L73.29,7.964L72.714,7.964C72.629,7.964 72.562,7.941 72.514,7.896C72.466,7.851 72.442,7.793 72.442,7.724L72.442,6.98ZM77.3,8.312C77.052,8.323 76.848,8.344 76.688,8.376C76.528,8.408 76.401,8.448 76.308,8.496C76.214,8.544 76.149,8.599 76.112,8.66C76.077,8.721 76.06,8.788 76.06,8.86C76.06,9.001 76.098,9.101 76.176,9.16C76.253,9.216 76.366,9.244 76.516,9.244C76.676,9.244 76.816,9.216 76.936,9.16C77.056,9.104 77.177,9.013 77.3,8.888L77.3,8.312ZM75.068,6.428C75.318,6.207 75.596,6.043 75.9,5.936C76.206,5.827 76.534,5.772 76.884,5.772C77.134,5.772 77.36,5.813 77.56,5.896C77.762,5.976 77.933,6.089 78.072,6.236C78.213,6.38 78.321,6.552 78.396,6.752C78.47,6.952 78.508,7.171 78.508,7.408L78.508,10L77.94,10C77.822,10 77.733,9.984 77.672,9.952C77.613,9.92 77.564,9.853 77.524,9.752L77.436,9.524C77.332,9.612 77.232,9.689 77.136,9.756C77.04,9.823 76.94,9.88 76.836,9.928C76.734,9.973 76.625,10.007 76.508,10.028C76.393,10.052 76.265,10.064 76.124,10.064C75.934,10.064 75.762,10.04 75.608,9.992C75.453,9.941 75.321,9.868 75.212,9.772C75.105,9.676 75.022,9.557 74.964,9.416C74.905,9.272 74.876,9.107 74.876,8.92C74.876,8.771 74.913,8.62 74.988,8.468C75.062,8.313 75.192,8.173 75.376,8.048C75.56,7.92 75.808,7.813 76.12,7.728C76.432,7.643 76.825,7.595 77.3,7.584L77.3,7.408C77.3,7.165 77.249,6.991 77.148,6.884C77.049,6.775 76.908,6.72 76.724,6.72C76.577,6.72 76.457,6.736 76.364,6.768C76.27,6.8 76.186,6.836 76.112,6.876C76.04,6.916 75.969,6.952 75.9,6.984C75.83,7.016 75.748,7.032 75.652,7.032C75.566,7.032 75.494,7.011 75.436,6.968C75.377,6.925 75.329,6.875 75.292,6.816L75.068,6.428ZM80.602,10.064C80.405,10.064 80.23,10.036 80.078,9.98C79.929,9.921 79.802,9.84 79.698,9.736C79.597,9.629 79.519,9.501 79.466,9.352C79.412,9.203 79.386,9.036 79.386,8.852L79.386,6.708L79.034,6.708C78.97,6.708 78.915,6.688 78.87,6.648C78.825,6.605 78.802,6.544 78.802,6.464L78.802,5.98L79.462,5.852L79.706,4.84C79.738,4.712 79.829,4.648 79.978,4.648L80.626,4.648L80.626,5.86L81.654,5.86L81.654,6.708L80.626,6.708L80.626,8.768C80.626,8.864 80.649,8.944 80.694,9.008C80.742,9.069 80.81,9.1 80.898,9.1C80.943,9.1 80.981,9.096 81.01,9.088C81.042,9.077 81.069,9.067 81.09,9.056C81.114,9.043 81.135,9.032 81.154,9.024C81.175,9.013 81.199,9.008 81.226,9.008C81.263,9.008 81.293,9.017 81.314,9.036C81.338,9.052 81.362,9.079 81.386,9.116L81.762,9.704C81.602,9.824 81.422,9.915 81.222,9.976C81.022,10.035 80.815,10.064 80.602,10.064ZM84.609,7.428C84.609,7.329 84.596,7.233 84.569,7.14C84.545,7.047 84.504,6.964 84.445,6.892C84.389,6.817 84.314,6.757 84.221,6.712C84.128,6.667 84.014,6.644 83.881,6.644C83.646,6.644 83.462,6.712 83.329,6.848C83.196,6.981 83.108,7.175 83.065,7.428L84.609,7.428ZM83.049,8.148C83.089,8.495 83.194,8.747 83.365,8.904C83.536,9.059 83.756,9.136 84.025,9.136C84.169,9.136 84.293,9.119 84.397,9.084C84.501,9.049 84.593,9.011 84.673,8.968C84.756,8.925 84.83,8.887 84.897,8.852C84.966,8.817 85.038,8.8 85.113,8.8C85.212,8.8 85.286,8.836 85.337,8.908L85.697,9.352C85.569,9.499 85.43,9.619 85.281,9.712C85.134,9.803 84.982,9.875 84.825,9.928C84.67,9.979 84.514,10.013 84.357,10.032C84.202,10.053 84.054,10.064 83.913,10.064C83.622,10.064 83.349,10.017 83.093,9.924C82.84,9.828 82.617,9.687 82.425,9.5C82.236,9.313 82.085,9.081 81.973,8.804C81.864,8.527 81.809,8.204 81.809,7.836C81.809,7.559 81.856,7.296 81.949,7.048C82.045,6.8 82.181,6.583 82.357,6.396C82.536,6.209 82.75,6.061 83.001,5.952C83.254,5.843 83.54,5.788 83.857,5.788C84.132,5.788 84.382,5.831 84.609,5.916C84.838,6.001 85.034,6.125 85.197,6.288C85.362,6.451 85.49,6.651 85.581,6.888C85.674,7.123 85.721,7.389 85.721,7.688C85.721,7.781 85.717,7.857 85.709,7.916C85.701,7.975 85.686,8.021 85.665,8.056C85.644,8.091 85.614,8.115 85.577,8.128C85.542,8.141 85.497,8.148 85.441,8.148L83.049,8.148Z" style="fill:rgb(180,180,180);fill-rule:nonzero;"/>
    <path d="M2.5,1L91.5,1L91.5,0L2.5,0L2.5,1ZM93,2.5L93,11.5L94,11.5L94,2.5L93,2.5ZM91.5,13L2.5,13L2.5,14L91.5,14L91.5,13ZM1,11.5L1,2.5L0,2.5L0,11.5L1,11.5ZM2.5,13C1.672,13 1,12.328 1,11.5L0,11.5C0,12.881 1.119,14 2.5,14L2.5,13ZM93,11.5C93,12.328 92.328,13 91.5,13L91.5,14C92.881,14 94,12.881 94,11.5L93,11.5ZM91.5,1C92.328,1 93,1.672 93,2.5L94,2.5C94,1.119 92.881,0 91.5,0L91.5,1ZM2.5,0C1.119,0 0,1.119 0,2.5L1,2.5C1,1.672 1.672,1 2.5,1L2.5,0Z" style="fill-rule:nonzero;"/>
    <path d="M0.5,16.5C0.5,15.395 1.395,14.5 2.5,14.5L91.5,14.5C92.605,14.5 93.5,15.395 93.5,16.5L93.5,25.5C93.5,26.605 92.605,27.5 91.5,27.5L2.5,27.5C1.395,27.5 0.5,26.605 0.5,25.5L0.5,16.5Z" style="fill:rgb(36,36,36);fill-rule:nonzero;"/>
    <path d="M16.821,21.084C16.821,21.505 16.747,21.897 16.601,22.26C16.457,22.623 16.253,22.939 15.989,23.208C15.725,23.475 15.406,23.684 15.033,23.836C14.662,23.988 14.25,24.064 13.797,24.064C13.343,24.064 12.93,23.988 12.557,23.836C12.183,23.684 11.863,23.475 11.597,23.208C11.333,22.939 11.127,22.623 10.981,22.26C10.837,21.897 10.765,21.505 10.765,21.084C10.765,20.663 10.837,20.271 10.981,19.908C11.127,19.545 11.333,19.231 11.597,18.964C11.863,18.697 12.183,18.488 12.557,18.336C12.93,18.184 13.343,18.108 13.797,18.108C14.25,18.108 14.662,18.185 15.033,18.34C15.406,18.492 15.725,18.701 15.989,18.968C16.253,19.235 16.457,19.549 16.601,19.912C16.747,20.275 16.821,20.665 16.821,21.084ZM15.437,21.084C15.437,20.796 15.399,20.537 15.325,20.308C15.25,20.076 15.142,19.88 15.001,19.72C14.862,19.56 14.691,19.437 14.489,19.352C14.286,19.267 14.055,19.224 13.797,19.224C13.535,19.224 13.302,19.267 13.097,19.352C12.894,19.437 12.722,19.56 12.581,19.72C12.442,19.88 12.335,20.076 12.261,20.308C12.186,20.537 12.149,20.796 12.149,21.084C12.149,21.375 12.186,21.636 12.261,21.868C12.335,22.097 12.442,22.292 12.581,22.452C12.722,22.612 12.894,22.735 13.097,22.82C13.302,22.903 13.535,22.944 13.797,22.944C14.055,22.944 14.286,22.903 14.489,22.82C14.691,22.735 14.862,22.612 15.001,22.452C15.142,22.292 15.25,22.097 15.325,21.868C15.399,21.636 15.437,21.375 15.437,21.084ZM17.606,24L17.606,20.704L17.334,20.648C17.24,20.627 17.164,20.593 17.106,20.548C17.049,20.503 17.022,20.436 17.022,20.348L17.022,19.86L17.606,19.86L17.606,19.704C17.606,19.467 17.643,19.252 17.718,19.06C17.795,18.865 17.904,18.7 18.046,18.564C18.19,18.428 18.364,18.324 18.57,18.252C18.775,18.177 19.008,18.14 19.27,18.14C19.371,18.14 19.464,18.147 19.549,18.16C19.635,18.171 19.724,18.188 19.818,18.212L19.794,18.816C19.788,18.901 19.752,18.961 19.686,18.996C19.622,19.028 19.555,19.044 19.485,19.044C19.376,19.044 19.279,19.055 19.194,19.076C19.108,19.097 19.036,19.135 18.978,19.188C18.922,19.241 18.879,19.313 18.85,19.404C18.82,19.492 18.805,19.604 18.805,19.74L18.805,19.86L20.262,19.86L20.262,19.548C20.262,19.311 20.299,19.096 20.374,18.904C20.451,18.712 20.56,18.548 20.702,18.412C20.846,18.276 21.02,18.171 21.226,18.096C21.431,18.021 21.664,17.984 21.926,17.984C22.027,17.984 22.12,17.991 22.206,18.004C22.291,18.015 22.38,18.033 22.474,18.06L22.45,18.664C22.447,18.707 22.436,18.743 22.418,18.772C22.399,18.799 22.374,18.821 22.342,18.84C22.312,18.856 22.28,18.868 22.246,18.876C22.211,18.884 22.176,18.888 22.142,18.888C22.032,18.888 21.935,18.899 21.85,18.92C21.764,18.941 21.692,18.98 21.634,19.036C21.578,19.089 21.535,19.161 21.506,19.252C21.476,19.34 21.462,19.452 21.462,19.588L21.462,19.86L22.434,19.86L22.434,20.708L21.502,20.708L21.502,24L20.262,24L20.262,20.708L18.846,20.708L18.846,24L17.606,24Z" style="fill:rgb(180,180,180);fill-rule:nonzero;"/>
    <rect x="31.5" y="16" width="1" height="10" style="fill-opacity:0.5;fill-rule:nonzero;"/>
    <path d="M60.5,17.5C60.5,16.948 60.052,16.5 59.5,16.5L34.5,16.5C33.948,16.5 33.5,16.948 33.5,17.5L33.5,24.5C33.5,25.052 33.948,25.5 34.5,25.5L59.5,25.5C60.052,25.5 60.5,25.052 60.5,24.5L60.5,17.5Z" style="fill:rgb(139,191,64);"/>
    <path d="M60.5,17.5C60.5,16.948 60.052,16.5 59.5,16.5L34.5,16.5C33.948,16.5 33.5,16.948 33.5,17.5L33.5,24.5C33.5,25.052 33.948,25.5 34.5,25.5L59.5,25.5C60.052,25.5 60.5,25.052 60.5,24.5L60.5,17.5Z" style="fill:none;stroke:rgb(139,191,64);stroke-width:1px;"/>
    <path d="M47.836,21.084C47.836,21.505 47.763,21.897 47.616,22.26C47.472,22.623 47.268,22.939 47.004,23.208C46.74,23.475 46.422,23.684 46.048,23.836C45.678,23.988 45.266,24.064 44.812,24.064C44.359,24.064 43.946,23.988 43.572,23.836C43.199,23.684 42.879,23.475 42.612,23.208C42.348,22.939 42.143,22.623 41.996,22.26C41.852,21.897 41.78,21.505 41.78,21.084C41.78,20.663 41.852,20.271 41.996,19.908C42.143,19.545 42.348,19.231 42.612,18.964C42.879,18.697 43.199,18.488 43.572,18.336C43.946,18.184 44.359,18.108 44.812,18.108C45.266,18.108 45.678,18.185 46.048,18.34C46.422,18.492 46.74,18.701 47.004,18.968C47.268,19.235 47.472,19.549 47.616,19.912C47.763,20.275 47.836,20.665 47.836,21.084ZM46.452,21.084C46.452,20.796 46.415,20.537 46.34,20.308C46.266,20.076 46.158,19.88 46.016,19.72C45.878,19.56 45.707,19.437 45.504,19.352C45.301,19.267 45.071,19.224 44.812,19.224C44.551,19.224 44.318,19.267 44.112,19.352C43.91,19.437 43.737,19.56 43.596,19.72C43.458,19.88 43.351,20.076 43.276,20.308C43.202,20.537 43.164,20.796 43.164,21.084C43.164,21.375 43.202,21.636 43.276,21.868C43.351,22.097 43.458,22.292 43.596,22.452C43.737,22.612 43.91,22.735 44.112,22.82C44.318,22.903 44.551,22.944 44.812,22.944C45.071,22.944 45.301,22.903 45.504,22.82C45.707,22.735 45.878,22.612 46.016,22.452C46.158,22.292 46.266,22.097 46.34,21.868C46.415,21.636 46.452,21.375 46.452,21.084ZM49.449,20.3C49.529,20.225 49.612,20.156 49.697,20.092C49.783,20.028 49.873,19.975 49.969,19.932C50.068,19.887 50.173,19.852 50.285,19.828C50.4,19.801 50.524,19.788 50.657,19.788C50.884,19.788 51.084,19.828 51.257,19.908C51.433,19.985 51.581,20.095 51.701,20.236C51.821,20.375 51.912,20.541 51.973,20.736C52.035,20.928 52.065,21.137 52.065,21.364L52.065,24L50.825,24L50.825,21.364C50.825,21.161 50.779,21.004 50.685,20.892C50.592,20.777 50.455,20.72 50.273,20.72C50.137,20.72 50.009,20.749 49.889,20.808C49.772,20.864 49.657,20.941 49.545,21.04L49.545,24L48.305,24L48.305,19.852L49.073,19.852C49.228,19.852 49.329,19.921 49.377,20.06L49.449,20.3Z" style="fill:white;fill-rule:nonzero;"/>
    <rect x="61.5" y="16" width="1" height="10" style="fill-opacity:0.5;fill-rule:nonzero;"/>
    <path d="M72.442,20.98L74.514,20.98L74.514,23.44C74.216,23.659 73.897,23.817 73.558,23.916C73.222,24.015 72.87,24.064 72.502,24.064C72.022,24.064 71.585,23.989 71.19,23.84C70.798,23.688 70.462,23.48 70.182,23.216C69.902,22.949 69.686,22.635 69.534,22.272C69.382,21.907 69.306,21.511 69.306,21.084C69.306,20.649 69.378,20.251 69.522,19.888C69.666,19.523 69.872,19.208 70.138,18.944C70.408,18.68 70.732,18.475 71.11,18.328C71.492,18.181 71.917,18.108 72.386,18.108C72.629,18.108 72.857,18.128 73.07,18.168C73.284,18.208 73.48,18.263 73.658,18.332C73.84,18.401 74.005,18.484 74.154,18.58C74.304,18.676 74.437,18.78 74.554,18.892L74.162,19.488C74.101,19.581 74.021,19.639 73.922,19.66C73.826,19.681 73.722,19.657 73.61,19.588C73.504,19.524 73.402,19.469 73.306,19.424C73.213,19.376 73.117,19.337 73.018,19.308C72.92,19.279 72.816,19.257 72.706,19.244C72.597,19.231 72.474,19.224 72.338,19.224C72.085,19.224 71.857,19.269 71.654,19.36C71.452,19.448 71.278,19.573 71.134,19.736C70.993,19.899 70.884,20.095 70.806,20.324C70.729,20.551 70.69,20.804 70.69,21.084C70.69,21.393 70.733,21.668 70.818,21.908C70.904,22.148 71.024,22.351 71.178,22.516C71.336,22.681 71.522,22.808 71.738,22.896C71.957,22.981 72.198,23.024 72.462,23.024C72.625,23.024 72.772,23.008 72.902,22.976C73.036,22.944 73.165,22.901 73.29,22.848L73.29,21.964L72.714,21.964C72.629,21.964 72.562,21.941 72.514,21.896C72.466,21.851 72.442,21.793 72.442,21.724L72.442,20.98ZM77.3,22.312C77.052,22.323 76.848,22.344 76.688,22.376C76.528,22.408 76.401,22.448 76.308,22.496C76.214,22.544 76.149,22.599 76.112,22.66C76.077,22.721 76.06,22.788 76.06,22.86C76.06,23.001 76.098,23.101 76.176,23.16C76.253,23.216 76.366,23.244 76.516,23.244C76.676,23.244 76.816,23.216 76.936,23.16C77.056,23.104 77.177,23.013 77.3,22.888L77.3,22.312ZM75.068,20.428C75.318,20.207 75.596,20.043 75.9,19.936C76.206,19.827 76.534,19.772 76.884,19.772C77.134,19.772 77.36,19.813 77.56,19.896C77.762,19.976 77.933,20.089 78.072,20.236C78.213,20.38 78.321,20.552 78.396,20.752C78.47,20.952 78.508,21.171 78.508,21.408L78.508,24L77.94,24C77.822,24 77.733,23.984 77.672,23.952C77.613,23.92 77.564,23.853 77.524,23.752L77.436,23.524C77.332,23.612 77.232,23.689 77.136,23.756C77.04,23.823 76.94,23.88 76.836,23.928C76.734,23.973 76.625,24.007 76.508,24.028C76.393,24.052 76.265,24.064 76.124,24.064C75.934,24.064 75.762,24.04 75.608,23.992C75.453,23.941 75.321,23.868 75.212,23.772C75.105,23.676 75.022,23.557 74.964,23.416C74.905,23.272 74.876,23.107 74.876,22.92C74.876,22.771 74.913,22.62 74.988,22.468C75.062,22.313 75.192,22.173 75.376,22.048C75.56,21.92 75.808,21.813 76.12,21.728C76.432,21.643 76.825,21.595 77.3,21.584L77.3,21.408C77.3,21.165 77.249,20.991 77.148,20.884C77.049,20.775 76.908,20.72 76.724,20.72C76.577,20.72 76.457,20.736 76.364,20.768C76.27,20.8 76.186,20.836 76.112,20.876C76.04,20.916 75.969,20.952 75.9,20.984C75.83,21.016 75.748,21.032 75.652,21.032C75.566,21.032 75.494,21.011 75.436,20.968C75.377,20.925 75.329,20.875 75.292,20.816L75.068,20.428ZM80.602,24.064C80.405,24.064 80.23,24.036 80.078,23.98C79.929,23.921 79.802,23.84 79.698,23.736C79.597,23.629 79.519,23.501 79.466,23.352C79.412,23.203 79.386,23.036 79.386,22.852L79.386,20.708L79.034,20.708C78.97,20.708 78.915,20.688 78.87,20.648C78.825,20.605 78.802,20.544 78.802,20.464L78.802,19.98L79.462,19.852L79.706,18.84C79.738,18.712 79.829,18.648 79.978,18.648L80.626,18.648L80.626,19.86L81.654,19.86L81.654,20.708L80.626,20.708L80.626,22.768C80.626,22.864 80.649,22.944 80.694,23.008C80.742,23.069 80.81,23.1 80.898,23.1C80.943,23.1 80.981,23.096 81.01,23.088C81.042,23.077 81.069,23.067 81.09,23.056C81.114,23.043 81.135,23.032 81.154,23.024C81.175,23.013 81.199,23.008 81.226,23.008C81.263,23.008 81.293,23.017 81.314,23.036C81.338,23.052 81.362,23.079 81.386,23.116L81.762,23.704C81.602,23.824 81.422,23.915 81.222,23.976C81.022,24.035 80.815,24.064 80.602,24.064ZM84.609,21.428C84.609,21.329 84.596,21.233 84.569,21.14C84.545,21.047 84.504,20.964 84.445,20.892C84.389,20.817 84.314,20.757 84.221,20.712C84.128,20.667 84.014,20.644 83.881,20.644C83.646,20.644 83.462,20.712 83.329,20.848C83.196,20.981 83.108,21.175 83.065,21.428L84.609,21.428ZM83.049,22.148C83.089,22.495 83.194,22.747 83.365,22.904C83.536,23.059 83.756,23.136 84.025,23.136C84.169,23.136 84.293,23.119 84.397,23.084C84.501,23.049 84.593,23.011 84.673,22.968C84.756,22.925 84.83,22.887 84.897,22.852C84.966,22.817 85.038,22.8 85.113,22.8C85.212,22.8 85.286,22.836 85.337,22.908L85.697,23.352C85.569,23.499 85.43,23.619 85.281,23.712C85.134,23.803 84.982,23.875 84.825,23.928C84.67,23.979 84.514,24.013 84.357,24.032C84.202,24.053 84.054,24.064 83.913,24.064C83.622,24.064 83.349,24.017 83.093,23.924C82.84,23.828 82.617,23.687 82.425,23.5C82.236,23.313 82.085,23.081 81.973,22.804C81.864,22.527 81.809,22.204 81.809,21.836C81.809,21.559 81.856,21.296 81.949,21.048C82.045,20.8 82.181,20.583 82.357,20.396C82.536,20.209 82.75,20.061 83.001,19.952C83.254,19.843 83.54,19.788 83.857,19.788C84.132,19.788 84.382,19.831 84.609,19.916C84.838,20.001 85.034,20.125 85.197,20.288C85.362,20.451 85.49,20.651 85.581,20.888C85.674,21.123 85.721,21.389 85.721,21.688C85.721,21.781 85.717,21.857 85.709,21.916C85.701,21.975 85.686,22.021 85.665,22.056C85.644,22.091 85.614,22.115 85.577,22.128C85.542,22.141 85.497,22.148 85.441,22.148L83.049,22.148Z" style="fill:rgb(180,180,180);fill-rule:nonzero;"/>
    <path d="M2.5,15L91.5,15L91.5,14L2.5,14L2.5,15ZM93,16.5L93,25.5L94,25.5L94,16.5L93,16.5ZM91.5,27L2.5,27L2.5,28L91.5,28L91.5,27ZM1,25.5L1,16.5L0,16.5L0,25.5L1,25.5ZM2.5,27C1.672,27 1,26.328 1,25.5L0,25.5C0,26.881 1.119,28 2.5,28L2.5,27ZM93,25.5C93,26.328 92.328,27 91.5,27L91.5,28C92.881,28 94,26.881 94,25.5L93,25.5ZM91.5,15C92.328,15 93,15.672 93,16.5L94,16.5C94,15.119 92.881,14 91.5,14L91.5,15ZM2.5,14C1.119,14 0,15.119 0,16.5L1,16.5C1,15.672 1.672,15 2.5,15L2.5,14Z" style="fill-rule:nonzero;"/>
    <path d="M0.5,30.5C0.5,29.395 1.395,28.5 2.5,28.5L91.5,28.5C92.605,28.5 93.5,29.395 93.5,30.5L93.5,39.5C93.5,40.605 92.605,41.5 91.5,41.5L2.5,41.5C1.395,41.5 0.5,40.605 0.5,39.5L0.5,30.5Z" style="fill:rgb(36,36,36);fill-rule:nonzero;"/>
    <path d="M16.821,35.084C16.821,35.505 16.747,35.897 16.601,36.26C16.457,36.623 16.253,36.939 15.989,37.208C15.725,37.475 15.406,37.684 15.033,37.836C14.662,37.988 14.25,38.064 13.797,38.064C13.343,38.064 12.93,37.988 12.557,37.836C12.183,37.684 11.863,37.475 11.597,37.208C11.333,36.939 11.127,36.623 10.981,36.26C10.837,35.897 10.765,35.505 10.765,35.084C10.765,34.663 10.837,34.271 10.981,33.908C11.127,33.545 11.333,33.231 11.597,32.964C11.863,32.697 12.183,32.488 12.557,32.336C12.93,32.184 13.343,32.108 13.797,32.108C14.25,32.108 14.662,32.185 15.033,32.34C15.406,32.492 15.725,32.701 15.989,32.968C16.253,33.235 16.457,33.549 16.601,33.912C16.747,34.275 16.821,34.665 16.821,35.084ZM15.437,35.084C15.437,34.796 15.399,34.537 15.325,34.308C15.25,34.076 15.142,33.88 15.001,33.72C14.862,33.56 14.691,33.437 14.489,33.352C14.286,33.267 14.055,33.224 13.797,33.224C13.535,33.224 13.302,33.267 13.097,33.352C12.894,33.437 12.722,33.56 12.581,33.72C12.442,33.88 12.335,34.076 12.261,34.308C12.186,34.537 12.149,34.796 12.149,35.084C12.149,35.375 12.186,35.636 12.261,35.868C12.335,36.097 12.442,36.292 12.581,36.452C12.722,36.612 12.894,36.735 13.097,36.82C13.302,36.903 13.535,36.944 13.797,36.944C14.055,36.944 14.286,36.903 14.489,36.82C14.691,36.735 14.862,36.612 15.001,36.452C15.142,36.292 15.25,36.097 15.325,35.868C15.399,35.636 15.437,35.375 15.437,35.084ZM17.606,38L17.606,34.704L17.334,34.648C17.24,34.627 17.164,34.593 17.106,34.548C17.049,34.503 17.022,34.436 17.022,34.348L17.022,33.86L17.606,33.86L17.606,33.704C17.606,33.467 17.643,33.252 17.718,33.06C17.795,32.865 17.904,32.7 18.046,32.564C18.19,32.428 18.364,32.324 18.57,32.252C18.775,32.177 19.008,32.14 19.27,32.14C19.371,32.14 19.464,32.147 19.549,32.16C19.635,32.171 19.724,32.188 19.818,32.212L19.794,32.816C19.788,32.901 19.752,32.961 19.686,32.996C19.622,33.028 19.555,33.044 19.485,33.044C19.376,33.044 19.279,33.055 19.194,33.076C19.108,33.097 19.036,33.135 18.978,33.188C18.922,33.241 18.879,33.313 18.85,33.404C18.82,33.492 18.805,33.604 18.805,33.74L18.805,33.86L20.262,33.86L20.262,33.548C20.262,33.311 20.299,33.096 20.374,32.904C20.451,32.712 20.56,32.548 20.702,32.412C20.846,32.276 21.02,32.171 21.226,32.096C21.431,32.021 21.664,31.984 21.926,31.984C22.027,31.984 22.12,31.991 22.206,32.004C22.291,32.015 22.38,32.033 22.474,32.06L22.45,32.664C22.447,32.707 22.436,32.743 22.418,32.772C22.399,32.799 22.374,32.821 22.342,32.84C22.312,32.856 22.28,32.868 22.246,32.876C22.211,32.884 22.176,32.888 22.142,32.888C22.032,32.888 21.935,32.899 21.85,32.92C21.764,32.941 21.692,32.98 21.634,33.036C21.578,33.089 21.535,33.161 21.506,33.252C21.476,33.34 21.462,33.452 21.462,33.588L21.462,33.86L22.434,33.86L22.434,34.708L21.502,34.708L21.502,38L20.262,38L20.262,34.708L18.846,34.708L18.846,38L17.606,38Z" style="fill:rgb(180,180,180);fill-rule:nonzero;"/>
    <rect x="31.5" y="30" width="1" height="10" style="fill-opacity:0.5;fill-rule:nonzero;"/>
    <path d="M47.836,35.084C47.836,35.505 47.763,35.897 47.616,36.26C47.472,36.623 47.268,36.939 47.004,37.208C46.74,37.475 46.422,37.684 46.048,37.836C45.678,37.988 45.266,38.064 44.812,38.064C44.359,38.064 43.946,37.988 43.572,37.836C43.199,37.684 42.879,37.475 42.612,37.208C42.348,36.939 42.143,36.623 41.996,36.26C41.852,35.897 41.78,35.505 41.78,35.084C41.78,34.663 41.852,34.271 41.996,33.908C42.143,33.545 42.348,33.231 42.612,32.964C42.879,32.697 43.199,32.488 43.572,32.336C43.946,32.184 44.359,32.108 44.812,32.108C45.266,32.108 45.678,32.185 46.048,32.34C46.422,32.492 46.74,32.701 47.004,32.968C47.268,33.235 47.472,33.549 47.616,33.912C47.763,34.275 47.836,34.665 47.836,35.084ZM46.452,35.084C46.452,34.796 46.415,34.537 46.34,34.308C46.266,34.076 46.158,33.88 46.016,33.72C45.878,33.56 45.707,33.437 45.504,33.352C45.301,33.267 45.071,33.224 44.812,33.224C44.551,33.224 44.318,33.267 44.112,33.352C43.91,33.437 43.737,33.56 43.596,33.72C43.458,33.88 43.351,34.076 43.276,34.308C43.202,34.537 43.164,34.796 43.164,35.084C43.164,35.375 43.202,35.636 43.276,35.868C43.351,36.097 43.458,36.292 43.596,36.452C43.737,36.612 43.91,36.735 44.112,36.82C44.318,36.903 44.551,36.944 44.812,36.944C45.071,36.944 45.301,36.903 45.504,36.82C45.707,36.735 45.878,36.612 46.016,36.452C46.158,36.292 46.266,36.097 46.34,35.868C46.415,35.636 46.452,35.375 46.452,35.084ZM49.449,34.3C49.529,34.225 49.612,34.156 49.697,34.092C49.783,34.028 49.873,33.975 49.969,33.932C50.068,33.887 50.173,33.852 50.285,33.828C50.4,33.801 50.524,33.788 50.657,33.788C50.884,33.788 51.084,33.828 51.257,33.908C51.433,33.985 51.581,34.095 51.701,34.236C51.821,34.375 51.912,34.541 51.973,34.736C52.035,34.928 52.065,35.137 52.065,35.364L52.065,38L50.825,38L50.825,35.364C50.825,35.161 50.779,35.004 50.685,34.892C50.592,34.777 50.455,34.72 50.273,34.72C50.137,34.72 50.009,34.749 49.889,34.808C49.772,34.864 49.657,34.941 49.545,35.04L49.545,38L48.305,38L48.305,33.852L49.073,33.852C49.228,33.852 49.329,33.921 49.377,34.06L49.449,34.3Z" style="fill:rgb(180,180,180);fill-rule:nonzero;"/>
    <rect x="61.5" y="30" width="1" height="10" style="fill-opacity:0.5;fill-rule:nonzero;"/>
    <path d="M91.5,31.5C91.5,30.948 91.052,30.5 90.5,30.5L64.5,30.5C63.948,30.5 63.5,30.948 63.5,31.5L63.5,38.5C63.5,39.052 63.948,39.5 64.5,39.5L90.5,39.5C91.052,39.5 91.5,39.052 91.5,38.5L91.5,31.5Z" style="fill:rgb(139,191,64);"/>
    <path d="M91.5,31.5C91.5,30.948 91.052,30.5 90.5,30.5L64.5,30.5C63.948,30.5 63.5,30.948 63.5,31.5L63.5,38.5C63.5,39.052 63.948,39.5 64.5,39.5L90.5,39.5C91.052,39.5 91.5,39.052 91.5,38.5L91.5,31.5Z" style="fill:none;stroke:rgb(139,191,64);stroke-width:1px;"/>
    <path d="M72.442,34.98L74.514,34.98L74.514,37.44C74.216,37.659 73.897,37.817 73.558,37.916C73.222,38.015 72.87,38.064 72.502,38.064C72.022,38.064 71.585,37.989 71.19,37.84C70.798,37.688 70.462,37.48 70.182,37.216C69.902,36.949 69.686,36.635 69.534,36.272C69.382,35.907 69.306,35.511 69.306,35.084C69.306,34.649 69.378,34.251 69.522,33.888C69.666,33.523 69.872,33.208 70.138,32.944C70.408,32.68 70.732,32.475 71.11,32.328C71.492,32.181 71.917,32.108 72.386,32.108C72.629,32.108 72.857,32.128 73.07,32.168C73.284,32.208 73.48,32.263 73.658,32.332C73.84,32.401 74.005,32.484 74.154,32.58C74.304,32.676 74.437,32.78 74.554,32.892L74.162,33.488C74.101,33.581 74.021,33.639 73.922,33.66C73.826,33.681 73.722,33.657 73.61,33.588C73.504,33.524 73.402,33.469 73.306,33.424C73.213,33.376 73.117,33.337 73.018,33.308C72.92,33.279 72.816,33.257 72.706,33.244C72.597,33.231 72.474,33.224 72.338,33.224C72.085,33.224 71.857,33.269 71.654,33.36C71.452,33.448 71.278,33.573 71.134,33.736C70.993,33.899 70.884,34.095 70.806,34.324C70.729,34.551 70.69,34.804 70.69,35.084C70.69,35.393 70.733,35.668 70.818,35.908C70.904,36.148 71.024,36.351 71.178,36.516C71.336,36.681 71.522,36.808 71.738,36.896C71.957,36.981 72.198,37.024 72.462,37.024C72.625,37.024 72.772,37.008 72.902,36.976C73.036,36.944 73.165,36.901 73.29,36.848L73.29,35.964L72.714,35.964C72.629,35.964 72.562,35.941 72.514,35.896C72.466,35.851 72.442,35.793 72.442,35.724L72.442,34.98ZM77.3,36.312C77.052,36.323 76.848,36.344 76.688,36.376C76.528,36.408 76.401,36.448 76.308,36.496C76.214,36.544 76.149,36.599 76.112,36.66C76.077,36.721 76.06,36.788 76.06,36.86C76.06,37.001 76.098,37.101 76.176,37.16C76.253,37.216 76.366,37.244 76.516,37.244C76.676,37.244 76.816,37.216 76.936,37.16C77.056,37.104 77.177,37.013 77.3,36.888L77.3,36.312ZM75.068,34.428C75.318,34.207 75.596,34.043 75.9,33.936C76.206,33.827 76.534,33.772 76.884,33.772C77.134,33.772 77.36,33.813 77.56,33.896C77.762,33.976 77.933,34.089 78.072,34.236C78.213,34.38 78.321,34.552 78.396,34.752C78.47,34.952 78.508,35.171 78.508,35.408L78.508,38L77.94,38C77.822,38 77.733,37.984 77.672,37.952C77.613,37.92 77.564,37.853 77.524,37.752L77.436,37.524C77.332,37.612 77.232,37.689 77.136,37.756C77.04,37.823 76.94,37.88 76.836,37.928C76.734,37.973 76.625,38.007 76.508,38.028C76.393,38.052 76.265,38.064 76.124,38.064C75.934,38.064 75.762,38.04 75.608,37.992C75.453,37.941 75.321,37.868 75.212,37.772C75.105,37.676 75.022,37.557 74.964,37.416C74.905,37.272 74.876,37.107 74.876,36.92C74.876,36.771 74.913,36.62 74.988,36.468C75.062,36.313 75.192,36.173 75.376,36.048C75.56,35.92 75.808,35.813 76.12,35.728C76.432,35.643 76.825,35.595 77.3,35.584L77.3,35.408C77.3,35.165 77.249,34.991 77.148,34.884C77.049,34.775 76.908,34.72 76.724,34.72C76.577,34.72 76.457,34.736 76.364,34.768C76.27,34.8 76.186,34.836 76.112,34.876C76.04,34.916 75.969,34.952 75.9,34.984C75.83,35.016 75.748,35.032 75.652,35.032C75.566,35.032 75.494,35.011 75.436,34.968C75.377,34.925 75.329,34.875 75.292,34.816L75.068,34.428ZM80.602,38.064C80.405,38.064 80.23,38.036 80.078,37.98C79.929,37.921 79.802,37.84 79.698,37.736C79.597,37.629 79.519,37.501 79.466,37.352C79.412,37.203 79.386,37.036 79.386,36.852L79.386,34.708L79.034,34.708C78.97,34.708 78.915,34.688 78.87,34.648C78.825,34.605 78.802,34.544 78.802,34.464L78.802,33.98L79.462,33.852L79.706,32.84C79.738,32.712 79.829,32.648 79.978,32.648L80.626,32.648L80.626,33.86L81.654,33.86L81.654,34.708L80.626,34.708L80.626,36.768C80.626,36.864 80.649,36.944 80.694,37.008C80.742,37.069 80.81,37.1 80.898,37.1C80.943,37.1 80.981,37.096 81.01,37.088C81.042,37.077 81.069,37.067 81.09,37.056C81.114,37.043 81.135,37.032 81.154,37.024C81.175,37.013 81.199,37.008 81.226,37.008C81.263,37.008 81.293,37.017 81.314,37.036C81.338,37.052 81.362,37.079 81.386,37.116L81.762,37.704C81.602,37.824 81.422,37.915 81.222,37.976C81.022,38.035 80.815,38.064 80.602,38.064ZM84.609,35.428C84.609,35.329 84.596,35.233 84.569,35.14C84.545,35.047 84.504,34.964 84.445,34.892C84.389,34.817 84.314,34.757 84.221,34.712C84.128,34.667 84.014,34.644 83.881,34.644C83.646,34.644 83.462,34.712 83.329,34.848C83.196,34.981 83.108,35.175 83.065,35.428L84.609,35.428ZM83.049,36.148C83.089,36.495 83.194,36.747 83.365,36.904C83.536,37.059 83.756,37.136 84.025,37.136C84.169,37.136 84.293,37.119 84.397,37.084C84.501,37.049 84.593,37.011 84.673,36.968C84.756,36.925 84.83,36.887 84.897,36.852C84.966,36.817 85.038,36.8 85.113,36.8C85.212,36.8 85.286,36.836 85.337,36.908L85.697,37.352C85.569,37.499 85.43,37.619 85.281,37.712C85.134,37.803 84.982,37.875 84.825,37.928C84.67,37.979 84.514,38.013 84.357,38.032C84.202,38.053 84.054,38.064 83.913,38.064C83.622,38.064 83.349,38.017 83.093,37.924C82.84,37.828 82.617,37.687 82.425,37.5C82.236,37.313 82.085,37.081 81.973,36.804C81.864,36.527 81.809,36.204 81.809,35.836C81.809,35.559 81.856,35.296 81.949,35.048C82.045,34.8 82.181,34.583 82.357,34.396C82.536,34.209 82.75,34.061 83.001,33.952C83.254,33.843 83.54,33.788 83.857,33.788C84.132,33.788 84.382,33.831 84.609,33.916C84.838,34.001 85.034,34.125 85.197,34.288C85.362,34.451 85.49,34.651 85.581,34.888C85.674,35.123 85.721,35.389 85.721,35.688C85.721,35.781 85.717,35.857 85.709,35.916C85.701,35.975 85.686,36.021 85.665,36.056C85.644,36.091 85.614,36.115 85.577,36.128C85.542,36.141 85.497,36.148 85.441,36.148L83.049,36.148Z" style="fill:white;fill-rule:nonzero;"/>
    <path d="M2.5,29L91.5,29L91.5,28L2.5,28L2.5,29ZM93,30.5L93,39.5L94,39.5L94,30.5L93,30.5ZM91.5,41L2.5,41L2.5,42L91.5,42L91.5,41ZM1,39.5L1,30.5L0,30.5L0,39.5L1,39.5ZM2.5,41C1.672,41 1,40.328 1,39.5L0,39.5C0,40.881 1.119,42 2.5,42L2.5,41ZM93,39.5C93,40.328 92.328,41 91.5,41L91.5,42C92.881,42 94,40.881 94,39.5L93,39.5ZM91.5,29C92.328,29 93,29.672 93,30.5L94,30.5C94,29.119 92.881,28 91.5,28L91.5,29ZM2.5,28C1.119,28 0,29.119 0,30.5L1,30.5C1,29.672 1.672,29 2.5,29L2.5,28Z" style="fill-rule:nonzero;"/>
</svg>
