<?xml version="1.0" encoding="UTF-8" standalone="no"?>
<!DOCTYPE svg PUBLIC "-//W3C//DTD SVG 1.1//EN" "http://www.w3.org/Graphics/SVG/1.1/DTD/svg11.dtd">
<svg width="100%" height="100%" viewBox="0 0 134 208" version="1.1" xmlns="http://www.w3.org/2000/svg" xmlns:xlink="http://www.w3.org/1999/xlink" xml:space="preserve" xmlns:serif="http://www.serif.com/" style="fill-rule:evenodd;clip-rule:evenodd;">
    <path d="M1,160L1,163L121,163L121,171L128,171L128,173L132,170.5L128,168L128,170L123,170L123,160L1,160Z" style="fill:rgb(139,191,64);"/>
    <path d="M23.5,184.5C23.5,183.396 22.604,182.5 21.5,182.5L15.5,182.5C14.396,182.5 13.5,183.396 13.5,184.5L13.5,190.5C13.5,191.604 14.396,192.5 15.5,192.5L21.5,192.5C22.604,192.5 23.5,191.604 23.5,190.5L23.5,184.5Z" style="fill:none;stroke:rgb(139,191,64);stroke-width:1px;"/>
    <path d="M55.5,184.5C55.5,183.396 54.604,182.5 53.5,182.5L47.5,182.5C46.396,182.5 45.5,183.396 45.5,184.5L45.5,190.5C45.5,191.604 46.396,192.5 47.5,192.5L53.5,192.5C54.604,192.5 55.5,191.604 55.5,190.5L55.5,184.5Z" style="fill:none;stroke:rgb(139,191,64);stroke-width:1px;"/>
    <path d="M87.5,184.5C87.5,183.396 86.604,182.5 85.5,182.5L79.5,182.5C78.396,182.5 77.5,183.396 77.5,184.5L77.5,190.5C77.5,191.604 78.396,192.5 79.5,192.5L85.5,192.5C86.604,192.5 87.5,191.604 87.5,190.5L87.5,184.5Z" style="fill:none;stroke:rgb(139,191,64);stroke-width:1px;"/>
    <path d="M117,182.5L111,182.5C109.895,182.5 109,183.395 109,184.5L109,190.5C109,191.605 109.895,192.5 111,192.5L117,192.5C118.105,192.5 119,191.605 119,190.5L119,184.5C119,183.395 118.105,182.5 117,182.5Z" style="fill:none;fill-rule:nonzero;stroke:rgb(139,191,64);stroke-opacity:0.5;stroke-width:1px;"/>
    <path d="M38,188L37,188L37,197.012L83,197.012L83,193L82,193L82,196L38,196L38,188Z" style="fill:rgb(139,191,64);fill-rule:nonzero;"/>
    <path d="M20.092,189.352L20.092,190L17.292,190L17.292,189.352L18.318,189.352L18.318,186.402C18.318,186.285 18.321,186.165 18.328,186.041L17.6,186.65C17.558,186.683 17.516,186.704 17.474,186.713C17.435,186.72 17.396,186.72 17.359,186.713C17.324,186.706 17.292,186.695 17.264,186.678C17.236,186.66 17.215,186.64 17.201,186.619L16.928,186.244L18.472,184.932L19.182,184.932L19.182,189.352L20.092,189.352Z" style="fill:white;fill-rule:nonzero;"/>
    <path d="M51.903,189.195C51.997,189.195 52.07,189.222 52.124,189.275C52.18,189.327 52.208,189.396 52.208,189.482L52.208,190L48.736,190L48.736,189.713C48.736,189.655 48.747,189.594 48.771,189.531C48.796,189.466 48.836,189.407 48.89,189.356L50.426,187.816C50.555,187.685 50.669,187.56 50.769,187.441C50.872,187.322 50.957,187.205 51.025,187.088C51.092,186.971 51.144,186.853 51.179,186.734C51.216,186.613 51.235,186.486 51.235,186.353C51.235,186.232 51.217,186.125 51.182,186.034C51.147,185.941 51.097,185.863 51.032,185.8C50.969,185.737 50.892,185.69 50.801,185.66C50.712,185.627 50.612,185.611 50.5,185.611C50.397,185.611 50.301,185.626 50.213,185.656C50.126,185.684 50.049,185.725 49.982,185.779C49.914,185.83 49.857,185.891 49.81,185.961C49.764,186.031 49.729,186.108 49.705,186.192C49.666,186.299 49.614,186.37 49.551,186.405C49.488,186.44 49.397,186.449 49.278,186.43L48.823,186.349C48.858,186.107 48.926,185.894 49.026,185.712C49.127,185.528 49.251,185.375 49.401,185.254C49.552,185.13 49.725,185.038 49.919,184.977C50.115,184.914 50.325,184.883 50.549,184.883C50.782,184.883 50.996,184.918 51.189,184.988C51.383,185.056 51.549,185.152 51.686,185.278C51.824,185.404 51.931,185.556 52.008,185.733C52.085,185.911 52.124,186.108 52.124,186.325C52.124,186.512 52.096,186.684 52.04,186.843C51.986,187.002 51.913,187.153 51.819,187.298C51.728,187.443 51.621,187.583 51.497,187.718C51.374,187.853 51.244,187.991 51.109,188.131L49.968,189.296C50.077,189.264 50.186,189.239 50.293,189.223C50.403,189.204 50.507,189.195 50.605,189.195L51.903,189.195Z" style="fill:white;fill-rule:nonzero;"/>
    <path d="M80.848,186.349C80.883,186.107 80.95,185.894 81.051,185.712C81.151,185.528 81.276,185.375 81.425,185.254C81.577,185.13 81.75,185.038 81.943,184.977C82.139,184.914 82.349,184.883 82.573,184.883C82.807,184.883 83.017,184.917 83.203,184.984C83.392,185.05 83.553,185.142 83.686,185.261C83.819,185.378 83.921,185.515 83.991,185.674C84.063,185.833 84.099,186.004 84.099,186.188C84.099,186.349 84.081,186.492 84.043,186.615C84.008,186.737 83.957,186.843 83.889,186.934C83.822,187.025 83.738,187.102 83.637,187.165C83.537,187.228 83.424,187.28 83.298,187.322C83.601,187.418 83.827,187.564 83.977,187.76C84.126,187.956 84.201,188.202 84.201,188.498C84.201,188.75 84.154,188.973 84.061,189.167C83.967,189.361 83.841,189.524 83.683,189.657C83.524,189.788 83.34,189.887 83.13,189.954C82.922,190.022 82.702,190.056 82.468,190.056C82.214,190.056 81.992,190.027 81.803,189.968C81.614,189.91 81.45,189.824 81.31,189.709C81.17,189.595 81.051,189.455 80.953,189.289C80.855,189.124 80.771,188.932 80.701,188.715L81.082,188.558C81.183,188.516 81.276,188.505 81.362,188.526C81.451,188.545 81.515,188.592 81.555,188.666C81.597,188.748 81.642,188.829 81.691,188.908C81.743,188.987 81.803,189.058 81.873,189.121C81.943,189.182 82.025,189.232 82.118,189.272C82.214,189.309 82.327,189.328 82.458,189.328C82.605,189.328 82.733,189.305 82.843,189.258C82.952,189.209 83.043,189.146 83.116,189.069C83.19,188.992 83.245,188.907 83.28,188.813C83.318,188.718 83.336,188.622 83.336,188.526C83.336,188.405 83.323,188.295 83.298,188.197C83.272,188.097 83.218,188.012 83.137,187.942C83.055,187.872 82.937,187.817 82.783,187.777C82.632,187.738 82.427,187.718 82.171,187.718L82.171,187.102C82.383,187.1 82.559,187.08 82.699,187.042C82.839,187.005 82.95,186.954 83.032,186.888C83.116,186.821 83.174,186.74 83.207,186.647C83.239,186.554 83.256,186.451 83.256,186.339C83.256,186.101 83.189,185.92 83.056,185.796C82.923,185.673 82.746,185.611 82.524,185.611C82.422,185.611 82.327,185.626 82.241,185.656C82.154,185.684 82.076,185.725 82.006,185.779C81.939,185.83 81.881,185.891 81.835,185.961C81.788,186.031 81.753,186.108 81.73,186.192C81.69,186.299 81.638,186.37 81.572,186.405C81.509,186.44 81.419,186.449 81.303,186.43L80.848,186.349Z" style="fill:white;fill-rule:nonzero;"/>
    <path d="M116.133,184.939L116.133,190L115.65,190C115.576,190 115.513,189.988 115.461,189.965C115.412,189.939 115.364,189.897 115.318,189.839L112.675,186.465C112.689,186.619 112.696,186.761 112.696,186.892L112.696,190L111.867,190L111.867,184.939L112.36,184.939C112.4,184.939 112.434,184.941 112.462,184.946C112.492,184.948 112.518,184.955 112.539,184.967C112.562,184.976 112.584,184.991 112.605,185.012C112.626,185.031 112.65,185.057 112.675,185.089L115.328,188.477C115.321,188.396 115.315,188.315 115.311,188.236C115.306,188.157 115.304,188.083 115.304,188.015L115.304,184.939L116.133,184.939Z" style="fill:white;fill-rule:nonzero;"/>
    <g opacity="0.5">
        <path d="M34.5,180.5C37.261,180.5 39.5,178.261 39.5,175.5C39.5,172.739 37.261,170.5 34.5,170.5C31.739,170.5 29.5,172.739 29.5,175.5C29.5,178.261 31.739,180.5 34.5,180.5Z" style="fill:none;fill-rule:nonzero;stroke:rgb(139,191,64);stroke-width:1px;"/>
        <path d="M36.445,172.495L37.505,173.556L35.559,175.501L37.504,177.444L36.445,178.505L34.499,176.562L32.555,178.505L31.495,177.445L33.437,175.502L31.492,173.56L32.552,172.498L34.498,174.442L36.445,172.495Z" style="fill:rgb(238,238,238);fill-rule:nonzero;"/>
    </g>
    <g opacity="0.5">
        <path d="M66.5,180.5C69.261,180.5 71.5,178.261 71.5,175.5C71.5,172.739 69.261,170.5 66.5,170.5C63.739,170.5 61.5,172.739 61.5,175.5C61.5,178.261 63.739,180.5 66.5,180.5Z" style="fill:none;fill-rule:nonzero;stroke:rgb(139,191,64);stroke-width:1px;"/>
        <path d="M68.445,172.495L69.505,173.556L67.559,175.501L69.504,177.444L68.445,178.505L66.499,176.562L64.555,178.505L63.495,177.445L65.437,175.502L63.492,173.56L64.552,172.498L66.498,174.442L68.445,172.495Z" style="fill:rgb(238,238,238);fill-rule:nonzero;"/>
    </g>
    <path d="M85,168L80,168L82.5,164L85,168Z" style="fill:rgb(139,191,64);"/>
    <rect x="82" y="167.5" width="1" height="14.5" style="fill:rgb(139,191,64);fill-rule:nonzero;"/>
    <g opacity="0.5">
        <path d="M116.5,168L111.5,168L114,164L116.5,168Z" style="fill:rgb(139,191,64);"/>
        <rect x="113.5" y="167.5" width="1" height="14.5" style="fill:rgb(139,191,64);fill-rule:nonzero;"/>
    </g>
    <path d="M53,168L48,168L50.5,164L53,168Z" style="fill:rgb(139,191,64);"/>
    <rect x="50" y="167.5" width="1" height="14.5" style="fill:rgb(139,191,64);fill-rule:nonzero;"/>
    <path d="M21,168L16,168L18.5,164L21,168Z" style="fill:rgb(139,191,64);"/>
    <rect x="18" y="167.5" width="1" height="14.5" style="fill:rgb(139,191,64);fill-rule:nonzero;"/>
    <g opacity="0.5">
        <path d="M37,168L32,168L34.5,164L37,168Z" style="fill:rgb(139,191,64);"/>
        <rect x="34" y="167.5" width="1" height="2.5" style="fill:rgb(139,191,64);fill-rule:nonzero;"/>
    </g>
    <g opacity="0.5">
        <path d="M69,168L64,168L66.5,164L69,168Z" style="fill:rgb(139,191,64);"/>
        <rect x="66" y="167.5" width="1" height="2.5" style="fill:rgb(139,191,64);fill-rule:nonzero;"/>
    </g>
    <g opacity="0.5">
        <path d="M45,173L45,178L41,175.5L45,173Z" style="fill:rgb(139,191,64);"/>
        <rect x="44.5" y="175" width="5.5" height="1" style="fill:rgb(139,191,64);fill-rule:nonzero;"/>
    </g>
    <g opacity="0.5">
        <path d="M77,173L77,178L73,175.5L77,173Z" style="fill:rgb(139,191,64);"/>
        <rect x="76.5" y="175" width="5.5" height="1" style="fill:rgb(139,191,64);fill-rule:nonzero;"/>
    </g>
    <path d="M29,185L29,190L25,187.5L29,185Z" style="fill:rgb(139,191,64);"/>
    <rect x="28.5" y="187" width="16.5" height="1" style="fill:rgb(139,191,64);fill-rule:nonzero;"/>
    <g opacity="0.5">
        <path d="M24,178L24,173L28,175.5L24,178Z" style="fill:rgb(139,191,64);"/>
        <rect x="19" y="175" width="5.5" height="1" style="fill:rgb(139,191,64);fill-rule:nonzero;"/>
    </g>
    <g opacity="0.5">
        <path d="M56,178L56,173L60,175.5L56,178Z" style="fill:rgb(139,191,64);"/>
        <rect x="51" y="175" width="5.5" height="1" style="fill:rgb(139,191,64);fill-rule:nonzero;"/>
    </g>
    <path d="M1.5,200.5C1.5,199.395 2.395,198.5 3.5,198.5L129.5,198.5C130.605,198.5 131.5,199.395 131.5,200.5L131.5,205.5C131.5,206.605 130.605,207.5 129.5,207.5L3.5,207.5C2.395,207.5 1.5,206.605 1.5,205.5L1.5,200.5Z" style="fill:rgb(36,36,36);fill-rule:nonzero;"/>
    <path d="M11.932,200.4L11.932,205.5L11.316,205.5C11.225,205.5 11.148,205.486 11.085,205.458C11.024,205.428 10.964,205.376 10.903,205.304L8.498,202.262C8.508,202.353 8.514,202.442 8.516,202.528C8.521,202.612 8.523,202.692 8.523,202.766L8.523,205.5L7.48,205.5L7.48,200.4L8.103,200.4C8.154,200.4 8.197,200.403 8.232,200.407C8.267,200.412 8.299,200.421 8.327,200.435C8.355,200.447 8.382,200.465 8.407,200.488C8.433,200.511 8.462,200.543 8.495,200.582L10.92,203.645C10.909,203.547 10.9,203.452 10.896,203.361C10.891,203.268 10.889,203.181 10.889,203.099L10.889,200.4L11.932,200.4ZM17.821,202.948C17.821,203.317 17.757,203.66 17.629,203.977C17.503,204.295 17.324,204.571 17.093,204.807C16.862,205.04 16.583,205.223 16.257,205.356C15.932,205.49 15.572,205.556 15.175,205.556C14.779,205.556 14.417,205.49 14.09,205.356C13.764,205.223 13.484,205.04 13.25,204.807C13.019,204.571 12.84,204.295 12.711,203.977C12.585,203.66 12.522,203.317 12.522,202.948C12.522,202.58 12.585,202.237 12.711,201.919C12.84,201.602 13.019,201.327 13.25,201.093C13.484,200.86 13.764,200.677 14.09,200.544C14.417,200.411 14.779,200.344 15.175,200.344C15.572,200.344 15.932,200.412 16.257,200.547C16.583,200.68 16.862,200.864 17.093,201.097C17.324,201.33 17.503,201.606 17.629,201.923C17.757,202.24 17.821,202.582 17.821,202.948ZM16.61,202.948C16.61,202.696 16.578,202.47 16.512,202.269C16.447,202.066 16.352,201.895 16.229,201.755C16.107,201.615 15.958,201.508 15.781,201.433C15.603,201.358 15.402,201.321 15.175,201.321C14.947,201.321 14.742,201.358 14.563,201.433C14.385,201.508 14.235,201.615 14.111,201.755C13.99,201.895 13.897,202.066 13.831,202.269C13.766,202.47 13.733,202.696 13.733,202.948C13.733,203.203 13.766,203.431 13.831,203.634C13.897,203.835 13.99,204.005 14.111,204.145C14.235,204.285 14.385,204.393 14.563,204.467C14.742,204.54 14.947,204.576 15.175,204.576C15.402,204.576 15.603,204.54 15.781,204.467C15.958,204.393 16.107,204.285 16.229,204.145C16.352,204.005 16.447,203.835 16.512,203.634C16.578,203.431 16.61,203.203 16.61,202.948ZM21.118,201.31L21.118,202.602L22.861,202.602L22.861,203.515L21.118,203.515L21.118,205.5L19.928,205.5L19.928,200.4L23.211,200.4L23.211,201.31L21.118,201.31ZM29.52,200.4L29.52,205.5L28.477,205.5L28.477,202.567C28.477,202.499 28.479,202.426 28.481,202.346C28.486,202.267 28.493,202.187 28.502,202.105L27.147,204.726C27.105,204.808 27.048,204.87 26.976,204.912C26.906,204.954 26.825,204.975 26.734,204.975L26.573,204.975C26.482,204.975 26.401,204.954 26.328,204.912C26.258,204.87 26.202,204.808 26.16,204.726L24.806,202.098C24.813,202.182 24.819,202.265 24.823,202.346C24.828,202.426 24.83,202.499 24.83,202.567L24.83,205.5L23.787,205.5L23.787,200.4L24.69,200.4C24.742,200.4 24.786,200.402 24.823,200.404C24.863,200.406 24.898,200.413 24.928,200.425C24.959,200.437 24.986,200.455 25.009,200.481C25.035,200.504 25.059,200.538 25.082,200.582L26.395,203.169C26.442,203.258 26.486,203.35 26.528,203.445C26.572,203.541 26.614,203.639 26.654,203.739C26.694,203.637 26.734,203.536 26.776,203.438C26.821,203.34 26.867,203.247 26.916,203.158L28.225,200.582C28.249,200.538 28.272,200.504 28.295,200.481C28.321,200.455 28.349,200.437 28.379,200.425C28.41,200.413 28.444,200.406 28.481,200.404C28.521,200.402 28.566,200.4 28.617,200.4L29.52,200.4Z" style="fill:rgb(180,180,180);fill-rule:nonzero;"/>
    <path d="M47.647,204.52C47.763,204.52 47.856,204.553 47.923,204.618C47.991,204.681 48.025,204.765 48.025,204.87L48.025,205.5L44.441,205.5L44.441,205.15C44.441,205.082 44.455,205.01 44.483,204.933C44.511,204.856 44.56,204.786 44.63,204.723L46.1,203.242C46.226,203.116 46.335,202.996 46.429,202.882C46.522,202.768 46.599,202.656 46.66,202.546C46.72,202.434 46.766,202.323 46.796,202.213C46.827,202.101 46.842,201.984 46.842,201.86C46.842,201.657 46.793,201.502 46.695,201.394C46.599,201.285 46.452,201.23 46.254,201.23C46.093,201.23 45.956,201.273 45.844,201.359C45.735,201.443 45.659,201.548 45.617,201.674C45.568,201.803 45.504,201.888 45.424,201.93C45.345,201.972 45.232,201.981 45.085,201.958L44.511,201.856C44.548,201.602 44.619,201.38 44.724,201.191C44.832,201.002 44.963,200.845 45.12,200.719C45.278,200.593 45.459,200.5 45.662,200.439C45.865,200.376 46.083,200.344 46.317,200.344C46.569,200.344 46.795,200.382 46.996,200.456C47.199,200.529 47.371,200.63 47.514,200.761C47.656,200.892 47.765,201.048 47.839,201.23C47.916,201.41 47.955,201.608 47.955,201.825C47.955,202.012 47.928,202.184 47.874,202.343C47.823,202.502 47.752,202.653 47.661,202.798C47.57,202.94 47.464,203.079 47.342,203.214C47.223,203.347 47.096,203.483 46.961,203.62L45.963,204.642C46.092,204.603 46.219,204.572 46.345,204.551C46.471,204.53 46.587,204.52 46.695,204.52L47.647,204.52ZM56.41,204.716L56.41,205.5L53.505,205.5L53.505,204.716L54.485,204.716L54.485,202.143C54.485,202.078 54.486,202.013 54.489,201.947C54.491,201.88 54.495,201.812 54.499,201.744L53.918,202.227C53.867,202.267 53.816,202.292 53.764,202.301C53.715,202.308 53.669,202.308 53.624,202.301C53.58,202.292 53.54,202.276 53.505,202.255C53.47,202.232 53.445,202.209 53.428,202.185L53.085,201.73L54.674,200.397L55.57,200.397L55.57,204.716L56.41,204.716Z" style="fill:rgb(180,180,180);fill-rule:nonzero;"/>
    <path d="M52.387,203L49.574,205.143L49.574,200.857L52.387,203Z" style="fill:rgb(180,180,180);fill-rule:nonzero;"/>
    <path d="M70.773,201.856C70.811,201.602 70.882,201.38 70.987,201.191C71.094,201.002 71.226,200.845 71.382,200.719C71.541,200.593 71.722,200.5 71.925,200.439C72.128,200.376 72.346,200.344 72.579,200.344C72.831,200.344 73.055,200.381 73.251,200.453C73.447,200.523 73.613,200.619 73.748,200.74C73.884,200.861 73.986,201.002 74.056,201.163C74.126,201.322 74.161,201.49 74.161,201.667C74.161,201.828 74.145,201.971 74.112,202.094C74.08,202.216 74.031,202.322 73.965,202.413C73.902,202.502 73.823,202.577 73.727,202.64C73.634,202.701 73.527,202.752 73.405,202.794C73.97,202.993 74.252,203.378 74.252,203.949C74.252,204.22 74.203,204.456 74.105,204.656C74.007,204.857 73.875,205.024 73.71,205.157C73.546,205.29 73.356,205.39 73.139,205.458C72.922,205.523 72.696,205.556 72.46,205.556C72.218,205.556 72.002,205.53 71.813,205.479C71.624,205.425 71.456,205.344 71.309,205.234C71.162,205.122 71.032,204.98 70.92,204.807C70.811,204.634 70.715,204.429 70.633,204.191L71.116,203.995C71.242,203.946 71.359,203.933 71.466,203.956C71.574,203.98 71.65,204.033 71.697,204.117C71.802,204.311 71.913,204.452 72.03,204.541C72.149,204.627 72.288,204.67 72.446,204.67C72.568,204.67 72.673,204.651 72.761,204.611C72.852,204.569 72.927,204.516 72.985,204.453C73.046,204.388 73.091,204.315 73.122,204.233C73.152,204.151 73.167,204.068 73.167,203.984C73.167,203.875 73.159,203.777 73.143,203.69C73.129,203.602 73.087,203.526 73.017,203.463C72.947,203.4 72.841,203.352 72.698,203.319C72.558,203.284 72.362,203.267 72.11,203.267L72.11,202.518C72.323,202.518 72.494,202.502 72.625,202.469C72.755,202.436 72.856,202.392 72.926,202.336C72.998,202.278 73.046,202.208 73.069,202.126C73.093,202.044 73.104,201.954 73.104,201.856C73.104,201.656 73.055,201.502 72.957,201.394C72.862,201.285 72.715,201.23 72.516,201.23C72.355,201.23 72.219,201.273 72.107,201.359C71.997,201.443 71.921,201.548 71.879,201.674C71.83,201.803 71.766,201.888 71.687,201.93C71.607,201.972 71.494,201.981 71.347,201.958L70.773,201.856ZM83.897,204.52C84.014,204.52 84.106,204.553 84.174,204.618C84.241,204.681 84.275,204.765 84.275,204.87L84.275,205.5L80.691,205.5L80.691,205.15C80.691,205.082 80.705,205.01 80.733,204.933C80.761,204.856 80.81,204.786 80.88,204.723L82.35,203.242C82.476,203.116 82.586,202.996 82.679,202.882C82.772,202.768 82.85,202.656 82.91,202.546C82.971,202.434 83.016,202.323 83.047,202.213C83.077,202.101 83.092,201.984 83.092,201.86C83.092,201.657 83.043,201.502 82.945,201.394C82.85,201.285 82.703,201.23 82.504,201.23C82.343,201.23 82.207,201.273 82.095,201.359C81.985,201.443 81.909,201.548 81.867,201.674C81.818,201.803 81.754,201.888 81.675,201.93C81.595,201.972 81.482,201.981 81.335,201.958L80.761,201.856C80.799,201.602 80.87,201.38 80.975,201.191C81.082,201.002 81.214,200.845 81.37,200.719C81.529,200.593 81.71,200.5 81.913,200.439C82.116,200.376 82.334,200.344 82.567,200.344C82.819,200.344 83.046,200.382 83.246,200.456C83.449,200.529 83.622,200.63 83.764,200.761C83.906,200.892 84.015,201.048 84.09,201.23C84.167,201.41 84.205,201.608 84.205,201.825C84.205,202.012 84.178,202.184 84.125,202.343C84.073,202.502 84.002,202.653 83.911,202.798C83.82,202.94 83.714,203.079 83.593,203.214C83.474,203.347 83.347,203.483 83.211,203.62L82.214,204.642C82.342,204.603 82.469,204.572 82.595,204.551C82.721,204.53 82.838,204.52 82.945,204.52L83.897,204.52ZM94.176,204.716L94.176,205.5L91.271,205.5L91.271,204.716L92.251,204.716L92.251,202.143C92.251,202.078 92.252,202.013 92.254,201.947C92.257,201.88 92.26,201.812 92.265,201.744L91.684,202.227C91.632,202.267 91.581,202.292 91.53,202.301C91.481,202.308 91.434,202.308 91.39,202.301C91.345,202.292 91.306,202.276 91.271,202.255C91.236,202.232 91.21,202.209 91.194,202.185L90.851,201.73L92.44,200.397L93.336,200.397L93.336,204.716L94.176,204.716Z" style="fill:rgb(180,180,180);fill-rule:nonzero;"/>
    <path d="M78.762,203L75.949,205.143L75.949,200.857L78.762,203Z" style="fill:rgb(180,180,180);fill-rule:nonzero;"/>
    <path d="M89.074,203L86.262,205.143L86.262,200.857L89.074,203Z" style="fill:rgb(180,180,180);fill-rule:nonzero;"/>
    <path d="M129.512,201C129.512,200.448 129.063,200 128.511,200L100.512,200C99.96,200 99.512,200.448 99.512,201L99.512,205C99.512,205.552 99.96,206 100.512,206L128.511,206C129.063,206 129.512,205.552 129.512,205L129.512,201Z" style="fill:rgb(139,191,64);"/>
    <path d="M129.512,201C129.512,200.448 129.063,200 128.511,200L100.512,200C99.96,200 99.512,200.448 99.512,201L99.512,205C99.512,205.552 99.96,206 100.512,206L128.511,206C129.063,206 129.512,205.552 129.512,205L129.512,201Z" style="fill:none;stroke:rgb(139,191,64);stroke-width:1px;"/>
    <path d="M105.881,204.52C105.998,204.52 106.09,204.553 106.158,204.618C106.225,204.681 106.259,204.765 106.259,204.87L106.259,205.5L102.675,205.5L102.675,205.15C102.675,205.082 102.689,205.01 102.717,204.933C102.745,204.856 102.794,204.786 102.864,204.723L104.334,203.242C104.46,203.116 104.57,202.996 104.663,202.882C104.757,202.768 104.834,202.656 104.894,202.546C104.955,202.434 105,202.323 105.031,202.213C105.061,202.101 105.076,201.984 105.076,201.86C105.076,201.657 105.027,201.502 104.929,201.394C104.834,201.285 104.687,201.23 104.488,201.23C104.327,201.23 104.191,201.273 104.079,201.359C103.969,201.443 103.893,201.548 103.851,201.674C103.802,201.803 103.738,201.888 103.659,201.93C103.579,201.972 103.466,201.981 103.319,201.958L102.745,201.856C102.783,201.602 102.854,201.38 102.959,201.191C103.066,201.002 103.198,200.845 103.354,200.719C103.513,200.593 103.694,200.5 103.897,200.439C104.1,200.376 104.318,200.344 104.551,200.344C104.803,200.344 105.03,200.382 105.23,200.456C105.433,200.529 105.606,200.63 105.748,200.761C105.891,200.892 105.999,201.048 106.074,201.23C106.151,201.41 106.189,201.608 106.189,201.825C106.189,202.012 106.162,202.184 106.109,202.343C106.057,202.502 105.986,202.653 105.895,202.798C105.804,202.94 105.698,203.079 105.577,203.214C105.458,203.347 105.331,203.483 105.195,203.62L104.198,204.642C104.326,204.603 104.453,204.572 104.579,204.551C104.705,204.53 104.822,204.52 104.929,204.52L105.881,204.52ZM116.16,204.716L116.16,205.5L113.255,205.5L113.255,204.716L114.235,204.716L114.235,202.143C114.235,202.078 114.236,202.013 114.238,201.947C114.241,201.88 114.244,201.812 114.249,201.744L113.668,202.227C113.616,202.267 113.565,202.292 113.514,202.301C113.465,202.308 113.418,202.308 113.374,202.301C113.329,202.292 113.29,202.276 113.255,202.255C113.22,202.232 113.194,202.209 113.178,202.185L112.835,201.73L114.424,200.397L115.32,200.397L115.32,204.716L116.16,204.716ZM122.805,201.856C122.843,201.602 122.914,201.38 123.019,201.191C123.126,201.002 123.258,200.845 123.414,200.719C123.573,200.593 123.754,200.5 123.957,200.439C124.16,200.376 124.378,200.344 124.611,200.344C124.863,200.344 125.087,200.381 125.283,200.453C125.479,200.523 125.645,200.619 125.78,200.74C125.916,200.861 126.018,201.002 126.088,201.163C126.158,201.322 126.193,201.49 126.193,201.667C126.193,201.828 126.177,201.971 126.144,202.094C126.112,202.216 126.063,202.322 125.997,202.413C125.934,202.502 125.855,202.577 125.759,202.64C125.666,202.701 125.559,202.752 125.437,202.794C126.002,202.993 126.284,203.378 126.284,203.949C126.284,204.22 126.235,204.456 126.137,204.656C126.039,204.857 125.907,205.024 125.742,205.157C125.578,205.29 125.388,205.39 125.171,205.458C124.954,205.523 124.728,205.556 124.492,205.556C124.25,205.556 124.034,205.53 123.845,205.479C123.656,205.425 123.488,205.344 123.341,205.234C123.194,205.122 123.064,204.98 122.952,204.807C122.843,204.634 122.747,204.429 122.665,204.191L123.148,203.995C123.274,203.946 123.391,203.933 123.498,203.956C123.606,203.98 123.683,204.033 123.729,204.117C123.834,204.311 123.945,204.452 124.062,204.541C124.181,204.627 124.32,204.67 124.478,204.67C124.6,204.67 124.705,204.651 124.793,204.611C124.884,204.569 124.959,204.516 125.017,204.453C125.078,204.388 125.123,204.315 125.154,204.233C125.184,204.151 125.199,204.068 125.199,203.984C125.199,203.875 125.191,203.777 125.175,203.69C125.161,203.602 125.119,203.526 125.049,203.463C124.979,203.4 124.873,203.352 124.73,203.319C124.59,203.284 124.394,203.267 124.142,203.267L124.142,202.518C124.355,202.518 124.526,202.502 124.657,202.469C124.787,202.436 124.888,202.392 124.958,202.336C125.03,202.278 125.078,202.208 125.101,202.126C125.125,202.044 125.136,201.954 125.136,201.856C125.136,201.656 125.087,201.502 124.989,201.394C124.894,201.285 124.747,201.23 124.548,201.23C124.387,201.23 124.251,201.273 124.139,201.359C124.029,201.443 123.953,201.548 123.911,201.674C123.862,201.803 123.798,201.888 123.719,201.93C123.639,201.972 123.526,201.981 123.379,201.958L122.805,201.856Z" style="fill-rule:nonzero;"/>
    <path d="M110.761,203L107.949,205.143L107.949,200.857L110.761,203Z" style="fill-rule:nonzero;"/>
    <path d="M118.261,203L121.074,200.857L121.074,205.143L118.261,203Z" style="fill-rule:nonzero;"/>
    <path d="M3.5,199L129.5,199L129.5,198L3.5,198L3.5,199ZM131,200.5L131,205.5L132,205.5L132,200.5L131,200.5ZM129.5,207L3.5,207L3.5,208L129.5,208L129.5,207ZM2,205.5L2,200.5L1,200.5L1,205.5L2,205.5ZM3.5,207C2.672,207 2,206.328 2,205.5L1,205.5C1,206.881 2.119,208 3.5,208L3.5,207ZM131,205.5C131,206.328 130.328,207 129.5,207L129.5,208C130.881,208 132,206.881 132,205.5L131,205.5ZM129.5,199C130.328,199 131,199.672 131,200.5L132,200.5C132,199.119 130.881,198 129.5,198L129.5,199ZM3.5,198C2.119,198 1,199.119 1,200.5L2,200.5C2,199.672 2.672,199 3.5,199L3.5,198Z" style="fill-rule:nonzero;"/>
    <path d="M1,108L1,111L121,111L121,119L128,119L128,121L132,118.5L128,116L128,118L123,118L123,108L1,108Z" style="fill:rgb(139,191,64);"/>
    <path d="M23.5,132.5C23.5,131.396 22.604,130.5 21.5,130.5L15.5,130.5C14.396,130.5 13.5,131.396 13.5,132.5L13.5,138.5C13.5,139.604 14.396,140.5 15.5,140.5L21.5,140.5C22.604,140.5 23.5,139.604 23.5,138.5L23.5,132.5Z" style="fill:none;stroke:rgb(139,191,64);stroke-width:1px;"/>
    <path d="M55.5,132.5C55.5,131.396 54.604,130.5 53.5,130.5L47.5,130.5C46.396,130.5 45.5,131.396 45.5,132.5L45.5,138.5C45.5,139.604 46.396,140.5 47.5,140.5L53.5,140.5C54.604,140.5 55.5,139.604 55.5,138.5L55.5,132.5Z" style="fill:none;stroke:rgb(139,191,64);stroke-width:1px;"/>
    <path d="M87.5,132.5C87.5,131.396 86.604,130.5 85.5,130.5L79.5,130.5C78.396,130.5 77.5,131.396 77.5,132.5L77.5,138.5C77.5,139.604 78.396,140.5 79.5,140.5L85.5,140.5C86.604,140.5 87.5,139.604 87.5,138.5L87.5,132.5Z" style="fill:none;stroke:rgb(139,191,64);stroke-width:1px;"/>
    <path d="M117,130.5L111,130.5C109.895,130.5 109,131.395 109,132.5L109,138.5C109,139.605 109.895,140.5 111,140.5L117,140.5C118.105,140.5 119,139.605 119,138.5L119,132.5C119,131.395 118.105,130.5 117,130.5Z" style="fill:none;fill-rule:nonzero;stroke:rgb(139,191,64);stroke-opacity:0.5;stroke-width:1px;"/>
    <path d="M20.092,137.352L20.092,138L17.292,138L17.292,137.352L18.318,137.352L18.318,134.402C18.318,134.285 18.321,134.165 18.328,134.041L17.6,134.65C17.558,134.683 17.516,134.704 17.474,134.713C17.435,134.72 17.396,134.72 17.359,134.713C17.324,134.706 17.292,134.695 17.264,134.678C17.236,134.66 17.215,134.64 17.201,134.619L16.928,134.244L18.472,132.932L19.182,132.932L19.182,137.352L20.092,137.352Z" style="fill:white;fill-rule:nonzero;"/>
    <path d="M51.903,137.195C51.997,137.195 52.07,137.222 52.124,137.275C52.18,137.327 52.208,137.396 52.208,137.482L52.208,138L48.736,138L48.736,137.713C48.736,137.655 48.747,137.594 48.771,137.531C48.796,137.466 48.836,137.407 48.89,137.356L50.426,135.816C50.555,135.685 50.669,135.56 50.769,135.441C50.872,135.322 50.957,135.205 51.025,135.088C51.092,134.971 51.144,134.853 51.179,134.734C51.216,134.613 51.235,134.486 51.235,134.353C51.235,134.232 51.217,134.125 51.182,134.034C51.147,133.941 51.097,133.863 51.032,133.8C50.969,133.737 50.892,133.69 50.801,133.66C50.712,133.627 50.612,133.611 50.5,133.611C50.397,133.611 50.301,133.626 50.213,133.656C50.126,133.684 50.049,133.725 49.982,133.779C49.914,133.83 49.857,133.891 49.81,133.961C49.764,134.031 49.729,134.108 49.705,134.192C49.666,134.299 49.614,134.37 49.551,134.405C49.488,134.44 49.397,134.449 49.278,134.43L48.823,134.349C48.858,134.107 48.926,133.894 49.026,133.712C49.127,133.528 49.251,133.375 49.401,133.254C49.552,133.13 49.725,133.038 49.919,132.977C50.115,132.914 50.325,132.883 50.549,132.883C50.782,132.883 50.996,132.918 51.189,132.988C51.383,133.056 51.549,133.152 51.686,133.278C51.824,133.404 51.931,133.556 52.008,133.733C52.085,133.911 52.124,134.108 52.124,134.325C52.124,134.512 52.096,134.684 52.04,134.843C51.986,135.002 51.913,135.153 51.819,135.298C51.728,135.443 51.621,135.583 51.497,135.718C51.374,135.853 51.244,135.991 51.109,136.131L49.968,137.296C50.077,137.264 50.186,137.239 50.293,137.223C50.403,137.204 50.507,137.195 50.605,137.195L51.903,137.195Z" style="fill:white;fill-rule:nonzero;"/>
    <path d="M116.133,132.939L116.133,138L115.65,138C115.576,138 115.513,137.988 115.461,137.965C115.412,137.939 115.364,137.897 115.318,137.839L112.675,134.465C112.689,134.619 112.696,134.761 112.696,134.892L112.696,138L111.867,138L111.867,132.939L112.36,132.939C112.4,132.939 112.434,132.941 112.462,132.946C112.492,132.948 112.518,132.955 112.539,132.967C112.562,132.976 112.584,132.991 112.605,133.012C112.626,133.031 112.65,133.057 112.675,133.089L115.328,136.477C115.321,136.396 115.315,136.315 115.311,136.236C115.306,136.157 115.304,136.083 115.304,136.015L115.304,132.939L116.133,132.939Z" style="fill:white;fill-rule:nonzero;"/>
    <g opacity="0.5">
        <path d="M34.5,128.5C37.261,128.5 39.5,126.261 39.5,123.5C39.5,120.739 37.261,118.5 34.5,118.5C31.739,118.5 29.5,120.739 29.5,123.5C29.5,126.261 31.739,128.5 34.5,128.5Z" style="fill:none;fill-rule:nonzero;stroke:rgb(139,191,64);stroke-width:1px;"/>
        <path d="M36.445,120.495L37.505,121.556L35.559,123.501L37.504,125.444L36.445,126.505L34.499,124.562L32.555,126.505L31.495,125.445L33.437,123.502L31.492,121.56L32.552,120.498L34.498,122.442L36.445,120.495Z" style="fill:rgb(191,191,191);fill-rule:nonzero;"/>
    </g>
    <g opacity="0.5">
        <path d="M66.5,128.5C69.261,128.5 71.5,126.261 71.5,123.5C71.5,120.739 69.261,118.5 66.5,118.5C63.739,118.5 61.5,120.739 61.5,123.5C61.5,126.261 63.739,128.5 66.5,128.5Z" style="fill:none;fill-rule:nonzero;stroke:rgb(139,191,64);stroke-width:1px;"/>
        <path d="M68.445,120.495L69.505,121.556L67.559,123.501L69.504,125.444L68.445,126.505L66.499,124.562L64.555,126.505L63.495,125.445L65.437,123.502L63.492,121.56L64.552,120.498L66.498,122.442L68.445,120.495Z" style="fill:rgb(191,191,191);fill-rule:nonzero;"/>
    </g>
    <path d="M85,116L80,116L82.5,112L85,116Z" style="fill:rgb(139,191,64);"/>
    <rect x="82" y="115.5" width="1" height="14.5" style="fill:rgb(139,191,64);fill-rule:nonzero;"/>
    <g opacity="0.5">
        <path d="M116.5,116L111.5,116L114,112L116.5,116Z" style="fill:rgb(139,191,64);"/>
        <rect x="113.5" y="115.5" width="1" height="14.5" style="fill:rgb(139,191,64);fill-rule:nonzero;"/>
    </g>
    <path d="M53,116L48,116L50.5,112L53,116Z" style="fill:rgb(139,191,64);"/>
    <rect x="50" y="115.5" width="1" height="14.5" style="fill:rgb(139,191,64);fill-rule:nonzero;"/>
    <path d="M21,116L16,116L18.5,112L21,116Z" style="fill:rgb(139,191,64);"/>
    <rect x="18" y="115.5" width="1" height="14.5" style="fill:rgb(139,191,64);fill-rule:nonzero;"/>
    <g opacity="0.5">
        <path d="M37,116L32,116L34.5,112L37,116Z" style="fill:rgb(139,191,64);"/>
        <rect x="34" y="115.5" width="1" height="2.5" style="fill:rgb(139,191,64);fill-rule:nonzero;"/>
    </g>
    <g opacity="0.5">
        <path d="M69,116L64,116L66.5,112L69,116Z" style="fill:rgb(139,191,64);"/>
        <rect x="66" y="115.5" width="1" height="2.5" style="fill:rgb(139,191,64);fill-rule:nonzero;"/>
    </g>
    <g opacity="0.5">
        <path d="M45,121L45,126L41,123.5L45,121Z" style="fill:rgb(139,191,64);"/>
        <rect x="44.5" y="123" width="5.5" height="1" style="fill:rgb(139,191,64);fill-rule:nonzero;"/>
    </g>
    <g opacity="0.5">
        <path d="M77,121L77,126L73,123.5L77,121Z" style="fill:rgb(139,191,64);"/>
        <rect x="76.5" y="123" width="5.5" height="1" style="fill:rgb(139,191,64);fill-rule:nonzero;"/>
    </g>
    <path d="M61,133L61,138L57,135.5L61,133Z" style="fill:rgb(139,191,64);"/>
    <rect x="60.5" y="135" width="16.5" height="1" style="fill:rgb(139,191,64);fill-rule:nonzero;"/>
    <path d="M29,133L29,138L25,135.5L29,133Z" style="fill:rgb(139,191,64);"/>
    <rect x="28.5" y="135" width="16.5" height="1" style="fill:rgb(139,191,64);fill-rule:nonzero;"/>
    <g opacity="0.5">
        <path d="M24,126L24,121L28,123.5L24,126Z" style="fill:rgb(139,191,64);"/>
        <rect x="19" y="123" width="5.5" height="1" style="fill:rgb(139,191,64);fill-rule:nonzero;"/>
    </g>
    <g opacity="0.5">
        <path d="M56,126L56,121L60,123.5L56,126Z" style="fill:rgb(139,191,64);"/>
        <rect x="51" y="123" width="5.5" height="1" style="fill:rgb(139,191,64);fill-rule:nonzero;"/>
    </g>
    <path d="M1.5,148.5C1.5,147.395 2.395,146.5 3.5,146.5L129.5,146.5C130.605,146.5 131.5,147.395 131.5,148.5L131.5,153.5C131.5,154.605 130.605,155.5 129.5,155.5L3.5,155.5C2.395,155.5 1.5,154.605 1.5,153.5L1.5,148.5Z" style="fill:rgb(36,36,36);fill-rule:nonzero;"/>
    <path d="M11.932,148.4L11.932,153.5L11.316,153.5C11.225,153.5 11.148,153.486 11.085,153.458C11.024,153.428 10.964,153.376 10.903,153.304L8.498,150.262C8.508,150.353 8.514,150.442 8.516,150.528C8.521,150.612 8.523,150.692 8.523,150.766L8.523,153.5L7.48,153.5L7.48,148.4L8.103,148.4C8.154,148.4 8.197,148.403 8.232,148.407C8.267,148.412 8.299,148.421 8.327,148.435C8.355,148.447 8.382,148.465 8.407,148.488C8.433,148.511 8.462,148.543 8.495,148.582L10.92,151.645C10.909,151.547 10.9,151.452 10.896,151.361C10.891,151.268 10.889,151.181 10.889,151.099L10.889,148.4L11.932,148.4ZM17.821,150.948C17.821,151.317 17.757,151.66 17.629,151.977C17.503,152.295 17.324,152.571 17.093,152.807C16.862,153.04 16.583,153.223 16.257,153.356C15.932,153.49 15.572,153.556 15.175,153.556C14.779,153.556 14.417,153.49 14.09,153.356C13.764,153.223 13.484,153.04 13.25,152.807C13.019,152.571 12.84,152.295 12.711,151.977C12.585,151.66 12.522,151.317 12.522,150.948C12.522,150.58 12.585,150.237 12.711,149.919C12.84,149.602 13.019,149.327 13.25,149.093C13.484,148.86 13.764,148.677 14.09,148.544C14.417,148.411 14.779,148.344 15.175,148.344C15.572,148.344 15.932,148.412 16.257,148.547C16.583,148.68 16.862,148.864 17.093,149.097C17.324,149.33 17.503,149.606 17.629,149.923C17.757,150.24 17.821,150.582 17.821,150.948ZM16.61,150.948C16.61,150.696 16.578,150.47 16.512,150.269C16.447,150.066 16.352,149.895 16.229,149.755C16.107,149.615 15.958,149.508 15.781,149.433C15.603,149.358 15.402,149.321 15.175,149.321C14.947,149.321 14.742,149.358 14.563,149.433C14.385,149.508 14.235,149.615 14.111,149.755C13.99,149.895 13.897,150.066 13.831,150.269C13.766,150.47 13.733,150.696 13.733,150.948C13.733,151.203 13.766,151.431 13.831,151.634C13.897,151.835 13.99,152.005 14.111,152.145C14.235,152.285 14.385,152.393 14.563,152.467C14.742,152.54 14.947,152.576 15.175,152.576C15.402,152.576 15.603,152.54 15.781,152.467C15.958,152.393 16.107,152.285 16.229,152.145C16.352,152.005 16.447,151.835 16.512,151.634C16.578,151.431 16.61,151.203 16.61,150.948ZM21.118,149.31L21.118,150.602L22.861,150.602L22.861,151.515L21.118,151.515L21.118,153.5L19.928,153.5L19.928,148.4L23.211,148.4L23.211,149.31L21.118,149.31ZM29.52,148.4L29.52,153.5L28.477,153.5L28.477,150.567C28.477,150.499 28.479,150.426 28.481,150.346C28.486,150.267 28.493,150.187 28.502,150.105L27.147,152.726C27.105,152.808 27.048,152.87 26.976,152.912C26.906,152.954 26.825,152.975 26.734,152.975L26.573,152.975C26.482,152.975 26.401,152.954 26.328,152.912C26.258,152.87 26.202,152.808 26.16,152.726L24.806,150.098C24.813,150.182 24.819,150.265 24.823,150.346C24.828,150.426 24.83,150.499 24.83,150.567L24.83,153.5L23.787,153.5L23.787,148.4L24.69,148.4C24.742,148.4 24.786,148.402 24.823,148.404C24.863,148.406 24.898,148.413 24.928,148.425C24.959,148.437 24.986,148.455 25.009,148.481C25.035,148.504 25.059,148.538 25.082,148.582L26.395,151.169C26.442,151.258 26.486,151.35 26.528,151.445C26.572,151.541 26.614,151.639 26.654,151.739C26.694,151.637 26.734,151.536 26.776,151.438C26.821,151.34 26.867,151.247 26.916,151.158L28.225,148.582C28.249,148.538 28.272,148.504 28.295,148.481C28.321,148.455 28.349,148.437 28.379,148.425C28.41,148.413 28.444,148.406 28.481,148.404C28.521,148.402 28.566,148.4 28.617,148.4L29.52,148.4Z" style="fill:rgb(180,180,180);fill-rule:nonzero;"/>
    <path d="M47.647,152.52C47.763,152.52 47.856,152.553 47.923,152.618C47.991,152.681 48.025,152.765 48.025,152.87L48.025,153.5L44.441,153.5L44.441,153.15C44.441,153.082 44.455,153.01 44.483,152.933C44.511,152.856 44.56,152.786 44.63,152.723L46.1,151.242C46.226,151.116 46.335,150.996 46.429,150.882C46.522,150.768 46.599,150.656 46.66,150.546C46.72,150.434 46.766,150.323 46.796,150.213C46.827,150.101 46.842,149.984 46.842,149.86C46.842,149.657 46.793,149.502 46.695,149.394C46.599,149.285 46.452,149.23 46.254,149.23C46.093,149.23 45.956,149.273 45.844,149.359C45.735,149.443 45.659,149.548 45.617,149.674C45.568,149.803 45.504,149.888 45.424,149.93C45.345,149.972 45.232,149.981 45.085,149.958L44.511,149.856C44.548,149.602 44.619,149.38 44.724,149.191C44.832,149.002 44.963,148.845 45.12,148.719C45.278,148.593 45.459,148.5 45.662,148.439C45.865,148.376 46.083,148.344 46.317,148.344C46.569,148.344 46.795,148.382 46.996,148.456C47.199,148.529 47.371,148.63 47.514,148.761C47.656,148.892 47.765,149.048 47.839,149.23C47.916,149.41 47.955,149.608 47.955,149.825C47.955,150.012 47.928,150.184 47.874,150.343C47.823,150.502 47.752,150.653 47.661,150.798C47.57,150.94 47.464,151.079 47.342,151.214C47.223,151.347 47.096,151.483 46.961,151.62L45.963,152.642C46.092,152.603 46.219,152.572 46.345,152.551C46.471,152.53 46.587,152.52 46.695,152.52L47.647,152.52ZM56.41,152.716L56.41,153.5L53.505,153.5L53.505,152.716L54.485,152.716L54.485,150.143C54.485,150.078 54.486,150.013 54.489,149.947C54.491,149.88 54.495,149.812 54.499,149.744L53.918,150.227C53.867,150.267 53.816,150.292 53.764,150.301C53.715,150.308 53.669,150.308 53.624,150.301C53.58,150.292 53.54,150.276 53.505,150.255C53.47,150.232 53.445,150.209 53.428,150.185L53.085,149.73L54.674,148.397L55.57,148.397L55.57,152.716L56.41,152.716Z" style="fill:rgb(180,180,180);fill-rule:nonzero;"/>
    <path d="M52.387,151L49.574,153.143L49.574,148.857L52.387,151Z" style="fill:rgb(180,180,180);fill-rule:nonzero;"/>
    <path d="M97.512,149C97.512,148.448 97.063,148 96.511,148L68.512,148C67.96,148 67.512,148.448 67.512,149L67.512,153C67.512,153.552 67.96,154 68.512,154L96.511,154C97.063,154 97.512,153.552 97.512,153L97.512,149Z" style="fill:rgb(139,191,64);"/>
    <path d="M97.512,149C97.512,148.448 97.063,148 96.511,148L68.512,148C67.96,148 67.512,148.448 67.512,149L67.512,153C67.512,153.552 67.96,154 68.512,154L96.511,154C97.063,154 97.512,153.552 97.512,153L97.512,149Z" style="fill:none;stroke:rgb(139,191,64);stroke-width:1px;"/>
    <path d="M70.773,149.856C70.811,149.602 70.882,149.38 70.987,149.191C71.094,149.002 71.226,148.845 71.382,148.719C71.541,148.593 71.722,148.5 71.925,148.439C72.128,148.376 72.346,148.344 72.579,148.344C72.831,148.344 73.055,148.381 73.251,148.453C73.447,148.523 73.613,148.619 73.748,148.74C73.884,148.861 73.986,149.002 74.056,149.163C74.126,149.322 74.161,149.49 74.161,149.667C74.161,149.828 74.145,149.971 74.112,150.094C74.08,150.216 74.031,150.322 73.965,150.413C73.902,150.502 73.823,150.577 73.727,150.64C73.634,150.701 73.527,150.752 73.405,150.794C73.97,150.993 74.252,151.378 74.252,151.949C74.252,152.22 74.203,152.456 74.105,152.656C74.007,152.857 73.875,153.024 73.71,153.157C73.546,153.29 73.356,153.39 73.139,153.458C72.922,153.523 72.696,153.556 72.46,153.556C72.218,153.556 72.002,153.53 71.813,153.479C71.624,153.425 71.456,153.344 71.309,153.234C71.162,153.122 71.032,152.98 70.92,152.807C70.811,152.634 70.715,152.429 70.633,152.191L71.116,151.995C71.242,151.946 71.359,151.933 71.466,151.956C71.574,151.98 71.65,152.033 71.697,152.117C71.802,152.311 71.913,152.452 72.03,152.541C72.149,152.627 72.288,152.67 72.446,152.67C72.568,152.67 72.673,152.651 72.761,152.611C72.852,152.569 72.927,152.516 72.985,152.453C73.046,152.388 73.091,152.315 73.122,152.233C73.152,152.151 73.167,152.068 73.167,151.984C73.167,151.875 73.159,151.777 73.143,151.69C73.129,151.602 73.087,151.526 73.017,151.463C72.947,151.4 72.841,151.352 72.698,151.319C72.558,151.284 72.362,151.267 72.11,151.267L72.11,150.518C72.323,150.518 72.494,150.502 72.625,150.469C72.755,150.436 72.856,150.392 72.926,150.336C72.998,150.278 73.046,150.208 73.069,150.126C73.093,150.044 73.104,149.954 73.104,149.856C73.104,149.656 73.055,149.502 72.957,149.394C72.862,149.285 72.715,149.23 72.516,149.23C72.355,149.23 72.219,149.273 72.107,149.359C71.997,149.443 71.921,149.548 71.879,149.674C71.83,149.803 71.766,149.888 71.687,149.93C71.607,149.972 71.494,149.981 71.347,149.958L70.773,149.856ZM83.897,152.52C84.014,152.52 84.106,152.553 84.174,152.618C84.241,152.681 84.275,152.765 84.275,152.87L84.275,153.5L80.691,153.5L80.691,153.15C80.691,153.082 80.705,153.01 80.733,152.933C80.761,152.856 80.81,152.786 80.88,152.723L82.35,151.242C82.476,151.116 82.586,150.996 82.679,150.882C82.772,150.768 82.85,150.656 82.91,150.546C82.971,150.434 83.016,150.323 83.047,150.213C83.077,150.101 83.092,149.984 83.092,149.86C83.092,149.657 83.043,149.502 82.945,149.394C82.85,149.285 82.703,149.23 82.504,149.23C82.343,149.23 82.207,149.273 82.095,149.359C81.985,149.443 81.909,149.548 81.867,149.674C81.818,149.803 81.754,149.888 81.675,149.93C81.595,149.972 81.482,149.981 81.335,149.958L80.761,149.856C80.799,149.602 80.87,149.38 80.975,149.191C81.082,149.002 81.214,148.845 81.37,148.719C81.529,148.593 81.71,148.5 81.913,148.439C82.116,148.376 82.334,148.344 82.567,148.344C82.819,148.344 83.046,148.382 83.246,148.456C83.449,148.529 83.622,148.63 83.764,148.761C83.906,148.892 84.015,149.048 84.09,149.23C84.167,149.41 84.205,149.608 84.205,149.825C84.205,150.012 84.178,150.184 84.125,150.343C84.073,150.502 84.002,150.653 83.911,150.798C83.82,150.94 83.714,151.079 83.593,151.214C83.474,151.347 83.347,151.483 83.211,151.62L82.214,152.642C82.342,152.603 82.469,152.572 82.595,152.551C82.721,152.53 82.838,152.52 82.945,152.52L83.897,152.52ZM94.176,152.716L94.176,153.5L91.271,153.5L91.271,152.716L92.251,152.716L92.251,150.143C92.251,150.078 92.252,150.013 92.254,149.947C92.257,149.88 92.26,149.812 92.265,149.744L91.684,150.227C91.632,150.267 91.581,150.292 91.53,150.301C91.481,150.308 91.434,150.308 91.39,150.301C91.345,150.292 91.306,150.276 91.271,150.255C91.236,150.232 91.21,150.209 91.194,150.185L90.851,149.73L92.44,148.397L93.336,148.397L93.336,152.716L94.176,152.716Z" style="fill-rule:nonzero;"/>
    <path d="M78.762,151L75.949,153.143L75.949,148.857L78.762,151Z" style="fill-rule:nonzero;"/>
    <path d="M89.074,151L86.262,153.143L86.262,148.857L89.074,151Z" style="fill-rule:nonzero;"/>
    <path d="M105.881,152.52C105.998,152.52 106.09,152.553 106.158,152.618C106.225,152.681 106.259,152.765 106.259,152.87L106.259,153.5L102.675,153.5L102.675,153.15C102.675,153.082 102.689,153.01 102.717,152.933C102.745,152.856 102.794,152.786 102.864,152.723L104.334,151.242C104.46,151.116 104.57,150.996 104.663,150.882C104.757,150.768 104.834,150.656 104.894,150.546C104.955,150.434 105,150.323 105.031,150.213C105.061,150.101 105.076,149.984 105.076,149.86C105.076,149.657 105.027,149.502 104.929,149.394C104.834,149.285 104.687,149.23 104.488,149.23C104.327,149.23 104.191,149.273 104.079,149.359C103.969,149.443 103.893,149.548 103.851,149.674C103.802,149.803 103.738,149.888 103.659,149.93C103.579,149.972 103.466,149.981 103.319,149.958L102.745,149.856C102.783,149.602 102.854,149.38 102.959,149.191C103.066,149.002 103.198,148.845 103.354,148.719C103.513,148.593 103.694,148.5 103.897,148.439C104.1,148.376 104.318,148.344 104.551,148.344C104.803,148.344 105.03,148.382 105.23,148.456C105.433,148.529 105.606,148.63 105.748,148.761C105.891,148.892 105.999,149.048 106.074,149.23C106.151,149.41 106.189,149.608 106.189,149.825C106.189,150.012 106.162,150.184 106.109,150.343C106.057,150.502 105.986,150.653 105.895,150.798C105.804,150.94 105.698,151.079 105.577,151.214C105.458,151.347 105.331,151.483 105.195,151.62L104.198,152.642C104.326,152.603 104.453,152.572 104.579,152.551C104.705,152.53 104.822,152.52 104.929,152.52L105.881,152.52ZM116.16,152.716L116.16,153.5L113.255,153.5L113.255,152.716L114.235,152.716L114.235,150.143C114.235,150.078 114.236,150.013 114.238,149.947C114.241,149.88 114.244,149.812 114.249,149.744L113.668,150.227C113.616,150.267 113.565,150.292 113.514,150.301C113.465,150.308 113.418,150.308 113.374,150.301C113.329,150.292 113.29,150.276 113.255,150.255C113.22,150.232 113.194,150.209 113.178,150.185L112.835,149.73L114.424,148.397L115.32,148.397L115.32,152.716L116.16,152.716ZM122.805,149.856C122.843,149.602 122.914,149.38 123.019,149.191C123.126,149.002 123.258,148.845 123.414,148.719C123.573,148.593 123.754,148.5 123.957,148.439C124.16,148.376 124.378,148.344 124.611,148.344C124.863,148.344 125.087,148.381 125.283,148.453C125.479,148.523 125.645,148.619 125.78,148.74C125.916,148.861 126.018,149.002 126.088,149.163C126.158,149.322 126.193,149.49 126.193,149.667C126.193,149.828 126.177,149.971 126.144,150.094C126.112,150.216 126.063,150.322 125.997,150.413C125.934,150.502 125.855,150.577 125.759,150.64C125.666,150.701 125.559,150.752 125.437,150.794C126.002,150.993 126.284,151.378 126.284,151.949C126.284,152.22 126.235,152.456 126.137,152.656C126.039,152.857 125.907,153.024 125.742,153.157C125.578,153.29 125.388,153.39 125.171,153.458C124.954,153.523 124.728,153.556 124.492,153.556C124.25,153.556 124.034,153.53 123.845,153.479C123.656,153.425 123.488,153.344 123.341,153.234C123.194,153.122 123.064,152.98 122.952,152.807C122.843,152.634 122.747,152.429 122.665,152.191L123.148,151.995C123.274,151.946 123.391,151.933 123.498,151.956C123.606,151.98 123.683,152.033 123.729,152.117C123.834,152.311 123.945,152.452 124.062,152.541C124.181,152.627 124.32,152.67 124.478,152.67C124.6,152.67 124.705,152.651 124.793,152.611C124.884,152.569 124.959,152.516 125.017,152.453C125.078,152.388 125.123,152.315 125.154,152.233C125.184,152.151 125.199,152.068 125.199,151.984C125.199,151.875 125.191,151.777 125.175,151.69C125.161,151.602 125.119,151.526 125.049,151.463C124.979,151.4 124.873,151.352 124.73,151.319C124.59,151.284 124.394,151.267 124.142,151.267L124.142,150.518C124.355,150.518 124.526,150.502 124.657,150.469C124.787,150.436 124.888,150.392 124.958,150.336C125.03,150.278 125.078,150.208 125.101,150.126C125.125,150.044 125.136,149.954 125.136,149.856C125.136,149.656 125.087,149.502 124.989,149.394C124.894,149.285 124.747,149.23 124.548,149.23C124.387,149.23 124.251,149.273 124.139,149.359C124.029,149.443 123.953,149.548 123.911,149.674C123.862,149.803 123.798,149.888 123.719,149.93C123.639,149.972 123.526,149.981 123.379,149.958L122.805,149.856Z" style="fill:rgb(180,180,180);fill-rule:nonzero;"/>
    <path d="M110.761,151L107.949,153.143L107.949,148.857L110.761,151Z" style="fill:rgb(180,180,180);fill-rule:nonzero;"/>
    <path d="M118.261,151L121.074,148.857L121.074,153.143L118.261,151Z" style="fill:rgb(180,180,180);fill-rule:nonzero;"/>
    <path d="M3.5,147L129.5,147L129.5,146L3.5,146L3.5,147ZM131,148.5L131,153.5L132,153.5L132,148.5L131,148.5ZM129.5,155L3.5,155L3.5,156L129.5,156L129.5,155ZM2,153.5L2,148.5L1,148.5L1,153.5L2,153.5ZM3.5,155C2.672,155 2,154.328 2,153.5L1,153.5C1,154.881 2.119,156 3.5,156L3.5,155ZM131,153.5C131,154.328 130.328,155 129.5,155L129.5,156C130.881,156 132,154.881 132,153.5L131,153.5ZM129.5,147C130.328,147 131,147.672 131,148.5L132,148.5C132,147.119 130.881,146 129.5,146L129.5,147ZM3.5,146C2.119,146 1,147.119 1,148.5L2,148.5C2,147.672 2.672,147 3.5,147L3.5,146Z" style="fill-rule:nonzero;"/>
    <path d="M1,56L1,59L121,59L121,67L128,67L128,69L132,66.5L128,64L128,66L123,66L123,56L1,56Z" style="fill:rgb(139,191,64);"/>
    <path d="M23.5,80.5C23.5,79.396 22.604,78.5 21.5,78.5L15.5,78.5C14.396,78.5 13.5,79.396 13.5,80.5L13.5,86.5C13.5,87.604 14.396,88.5 15.5,88.5L21.5,88.5C22.604,88.5 23.5,87.604 23.5,86.5L23.5,80.5Z" style="fill:none;stroke:rgb(139,191,64);stroke-width:1px;"/>
    <path d="M55.5,80.5C55.5,79.396 54.604,78.5 53.5,78.5L47.5,78.5C46.396,78.5 45.5,79.396 45.5,80.5L45.5,86.5C45.5,87.604 46.396,88.5 47.5,88.5L53.5,88.5C54.604,88.5 55.5,87.604 55.5,86.5L55.5,80.5Z" style="fill:none;stroke:rgb(139,191,64);stroke-width:1px;"/>
    <path d="M87.5,80.5C87.5,79.396 86.604,78.5 85.5,78.5L79.5,78.5C78.396,78.5 77.5,79.396 77.5,80.5L77.5,86.5C77.5,87.604 78.396,88.5 79.5,88.5L85.5,88.5C86.604,88.5 87.5,87.604 87.5,86.5L87.5,80.5Z" style="fill:none;stroke:rgb(139,191,64);stroke-width:1px;"/>
    <path d="M117,78.5L111,78.5C109.895,78.5 109,79.395 109,80.5L109,86.5C109,87.605 109.895,88.5 111,88.5L117,88.5C118.105,88.5 119,87.605 119,86.5L119,80.5C119,79.395 118.105,78.5 117,78.5Z" style="fill:none;fill-rule:nonzero;stroke:rgb(139,191,64);stroke-opacity:0.5;stroke-width:1px;"/>
    <path d="M20.092,85.353L20.092,86L17.292,86L17.292,85.353L18.318,85.353L18.318,82.402C18.318,82.285 18.321,82.165 18.328,82.042L17.6,82.65C17.558,82.683 17.516,82.704 17.474,82.714C17.435,82.721 17.396,82.721 17.359,82.714C17.324,82.707 17.292,82.695 17.264,82.679C17.236,82.66 17.215,82.64 17.201,82.619L16.928,82.245L18.472,80.932L19.182,80.932L19.182,85.353L20.092,85.353Z" style="fill:white;fill-rule:nonzero;"/>
    <path d="M51.903,85.195C51.997,85.195 52.07,85.222 52.124,85.275C52.18,85.327 52.208,85.396 52.208,85.482L52.208,86L48.736,86L48.736,85.713C48.736,85.655 48.747,85.594 48.771,85.531C48.796,85.466 48.836,85.407 48.89,85.356L50.426,83.816C50.555,83.685 50.669,83.561 50.769,83.442C50.872,83.323 50.957,83.205 51.025,83.088C51.092,82.971 51.144,82.854 51.179,82.735C51.216,82.613 51.235,82.486 51.235,82.353C51.235,82.232 51.217,82.126 51.182,82.034C51.147,81.941 51.097,81.863 51.032,81.8C50.969,81.737 50.892,81.69 50.801,81.66C50.712,81.627 50.612,81.611 50.5,81.611C50.397,81.611 50.301,81.626 50.213,81.656C50.126,81.685 50.049,81.725 49.982,81.779C49.914,81.83 49.857,81.891 49.81,81.961C49.764,82.031 49.729,82.108 49.705,82.192C49.666,82.299 49.614,82.371 49.551,82.406C49.488,82.441 49.397,82.449 49.278,82.43L48.823,82.35C48.858,82.107 48.926,81.894 49.026,81.713C49.127,81.528 49.251,81.375 49.401,81.254C49.552,81.13 49.725,81.038 49.919,80.978C50.115,80.915 50.325,80.883 50.549,80.883C50.782,80.883 50.996,80.918 51.189,80.988C51.383,81.056 51.549,81.153 51.686,81.278C51.824,81.405 51.931,81.556 52.008,81.734C52.085,81.911 52.124,82.108 52.124,82.325C52.124,82.512 52.096,82.684 52.04,82.843C51.986,83.002 51.913,83.153 51.819,83.298C51.728,83.443 51.621,83.583 51.497,83.718C51.374,83.853 51.244,83.991 51.109,84.131L49.968,85.297C50.077,85.264 50.186,85.239 50.293,85.223C50.403,85.204 50.507,85.195 50.605,85.195L51.903,85.195Z" style="fill:white;fill-rule:nonzero;"/>
    <path d="M80.848,82.35C80.883,82.107 80.95,81.894 81.051,81.713C81.151,81.528 81.276,81.375 81.425,81.254C81.577,81.13 81.75,81.038 81.943,80.978C82.139,80.915 82.349,80.883 82.573,80.883C82.807,80.883 83.017,80.917 83.203,80.985C83.392,81.05 83.553,81.142 83.686,81.261C83.819,81.378 83.921,81.515 83.991,81.674C84.063,81.833 84.099,82.004 84.099,82.189C84.099,82.35 84.081,82.492 84.043,82.616C84.008,82.737 83.957,82.843 83.889,82.934C83.822,83.025 83.738,83.102 83.637,83.165C83.537,83.228 83.424,83.281 83.298,83.323C83.601,83.418 83.827,83.564 83.977,83.76C84.126,83.956 84.201,84.202 84.201,84.499C84.201,84.751 84.154,84.973 84.061,85.167C83.967,85.361 83.841,85.524 83.683,85.657C83.524,85.788 83.34,85.887 83.13,85.955C82.922,86.022 82.702,86.056 82.468,86.056C82.214,86.056 81.992,86.027 81.803,85.969C81.614,85.91 81.45,85.824 81.31,85.71C81.17,85.595 81.051,85.455 80.953,85.29C80.855,85.124 80.771,84.933 80.701,84.716L81.082,84.558C81.183,84.516 81.276,84.506 81.362,84.527C81.451,84.545 81.515,84.592 81.555,84.667C81.597,84.748 81.642,84.829 81.691,84.908C81.743,84.987 81.803,85.059 81.873,85.122C81.943,85.182 82.025,85.232 82.118,85.272C82.214,85.309 82.327,85.328 82.458,85.328C82.605,85.328 82.733,85.305 82.843,85.258C82.952,85.209 83.043,85.146 83.116,85.069C83.19,84.992 83.245,84.907 83.28,84.814C83.318,84.718 83.336,84.622 83.336,84.527C83.336,84.405 83.323,84.296 83.298,84.198C83.272,84.097 83.218,84.012 83.137,83.942C83.055,83.872 82.937,83.817 82.783,83.778C82.632,83.738 82.427,83.718 82.171,83.718L82.171,83.102C82.383,83.1 82.559,83.08 82.699,83.043C82.839,83.005 82.95,82.954 83.032,82.888C83.116,82.821 83.174,82.74 83.207,82.647C83.239,82.554 83.256,82.451 83.256,82.339C83.256,82.101 83.189,81.92 83.056,81.797C82.923,81.673 82.746,81.611 82.524,81.611C82.422,81.611 82.327,81.626 82.241,81.656C82.154,81.685 82.076,81.725 82.006,81.779C81.939,81.83 81.881,81.891 81.835,81.961C81.788,82.031 81.753,82.108 81.73,82.192C81.69,82.299 81.638,82.371 81.572,82.406C81.509,82.441 81.419,82.449 81.303,82.43L80.848,82.35Z" style="fill:white;fill-rule:nonzero;"/>
    <path d="M116.133,80.939L116.133,86L115.65,86C115.576,86 115.513,85.988 115.461,85.965C115.412,85.939 115.364,85.897 115.318,85.839L112.675,82.465C112.689,82.619 112.696,82.761 112.696,82.892L112.696,86L111.867,86L111.867,80.939L112.36,80.939C112.4,80.939 112.434,80.941 112.462,80.946C112.492,80.948 112.518,80.955 112.539,80.967C112.562,80.976 112.584,80.992 112.605,81.013C112.626,81.031 112.65,81.057 112.675,81.09L115.328,84.478C115.321,84.396 115.315,84.315 115.311,84.236C115.306,84.157 115.304,84.083 115.304,84.016L115.304,80.939L116.133,80.939Z" style="fill:white;fill-rule:nonzero;"/>
    <g opacity="0.5">
        <path d="M34.5,76.5C37.261,76.5 39.5,74.261 39.5,71.5C39.5,68.739 37.261,66.5 34.5,66.5C31.739,66.5 29.5,68.739 29.5,71.5C29.5,74.261 31.739,76.5 34.5,76.5Z" style="fill:none;fill-rule:nonzero;stroke:rgb(139,191,64);stroke-width:1px;"/>
        <path d="M36.445,68.495L37.505,69.556L35.559,71.501L37.504,73.444L36.445,74.505L34.499,72.562L32.555,74.505L31.495,73.445L33.437,71.502L31.492,69.56L32.552,68.498L34.498,70.442L36.445,68.495Z" style="fill:rgb(238,238,238);fill-rule:nonzero;"/>
    </g>
    <g opacity="0.5">
        <path d="M66.5,76.5C69.261,76.5 71.5,74.261 71.5,71.5C71.5,68.739 69.261,66.5 66.5,66.5C63.739,66.5 61.5,68.739 61.5,71.5C61.5,74.261 63.739,76.5 66.5,76.5Z" style="fill:none;fill-rule:nonzero;stroke:rgb(139,191,64);stroke-width:1px;"/>
        <path d="M68.445,68.495L69.505,69.556L67.559,71.501L69.504,73.444L68.445,74.505L66.499,72.562L64.555,74.505L63.495,73.445L65.437,71.502L63.492,69.56L64.552,68.498L66.498,70.442L68.445,68.495Z" style="fill:rgb(238,238,238);fill-rule:nonzero;"/>
    </g>
    <path d="M85,64L80,64L82.5,60L85,64Z" style="fill:rgb(139,191,64);"/>
    <rect x="82" y="63.5" width="1" height="14.5" style="fill:rgb(191,191,191);fill-rule:nonzero;"/>
    <g opacity="0.5">
        <path d="M116.5,64L111.5,64L114,60L116.5,64Z" style="fill:rgb(139,191,64);"/>
        <rect x="113.5" y="63.5" width="1" height="14.5" style="fill:rgb(139,191,64);fill-rule:nonzero;"/>
    </g>
    <path d="M53,64L48,64L50.5,60L53,64Z" style="fill:rgb(139,191,64);"/>
    <rect x="50" y="63.5" width="1" height="14.5" style="fill:rgb(139,191,64);fill-rule:nonzero;"/>
    <path d="M21,64L16,64L18.5,60L21,64Z" style="fill:rgb(139,191,64);"/>
    <rect x="18" y="63.5" width="1" height="14.5" style="fill:rgb(139,191,64);fill-rule:nonzero;"/>
    <g opacity="0.5">
        <path d="M37,64L32,64L34.5,60L37,64Z" style="fill:rgb(139,191,64);"/>
        <rect x="34" y="63.5" width="1" height="2.5" style="fill:rgb(139,191,64);fill-rule:nonzero;"/>
    </g>
    <g opacity="0.5">
        <path d="M69,64L64,64L66.5,60L69,64Z" style="fill:rgb(139,191,64);"/>
        <rect x="66" y="63.5" width="1" height="2.5" style="fill:rgb(139,191,64);fill-rule:nonzero;"/>
    </g>
    <g opacity="0.5">
        <path d="M45,69L45,74L41,71.5L45,69Z" style="fill:rgb(139,191,64);"/>
        <rect x="44.5" y="71" width="5.5" height="1" style="fill:rgb(139,191,64);fill-rule:nonzero;"/>
    </g>
    <g opacity="0.5">
        <path d="M77,69L77,74L73,71.5L77,69Z" style="fill:rgb(139,191,64);"/>
        <rect x="76.5" y="71" width="5.5" height="1" style="fill:rgb(139,191,64);fill-rule:nonzero;"/>
    </g>
    <path d="M29,81L29,86L25,83.5L29,81Z" style="fill:rgb(139,191,64);"/>
    <rect x="28.5" y="83" width="16.5" height="1" style="fill:rgb(139,191,64);fill-rule:nonzero;"/>
    <g opacity="0.5">
        <path d="M24,74L24,69L28,71.5L24,74Z" style="fill:rgb(139,191,64);"/>
        <rect x="19" y="71" width="5.5" height="1" style="fill:rgb(139,191,64);fill-rule:nonzero;"/>
    </g>
    <g opacity="0.5">
        <path d="M56,74L56,69L60,71.5L56,74Z" style="fill:rgb(139,191,64);"/>
        <rect x="51" y="71" width="5.5" height="1" style="fill:rgb(139,191,64);fill-rule:nonzero;"/>
    </g>
    <path d="M1.5,96.5C1.5,95.395 2.395,94.5 3.5,94.5L129.5,94.5C130.605,94.5 131.5,95.395 131.5,96.5L131.5,101.5C131.5,102.605 130.605,103.5 129.5,103.5L3.5,103.5C2.395,103.5 1.5,102.605 1.5,101.5L1.5,96.5Z" style="fill:rgb(36,36,36);fill-rule:nonzero;"/>
    <path d="M11.932,96.4L11.932,101.5L11.316,101.5C11.225,101.5 11.148,101.486 11.085,101.458C11.024,101.428 10.964,101.376 10.903,101.304L8.498,98.263C8.508,98.354 8.514,98.442 8.516,98.528C8.521,98.613 8.523,98.692 8.523,98.766L8.523,101.5L7.48,101.5L7.48,96.4L8.103,96.4C8.154,96.4 8.197,96.403 8.232,96.408C8.267,96.412 8.299,96.421 8.327,96.436C8.355,96.447 8.382,96.465 8.407,96.488C8.433,96.511 8.462,96.543 8.495,96.583L10.92,99.645C10.909,99.547 10.9,99.453 10.896,99.362C10.891,99.268 10.889,99.181 10.889,99.099L10.889,96.4L11.932,96.4ZM17.821,98.949C17.821,99.317 17.757,99.66 17.629,99.978C17.503,100.295 17.324,100.571 17.093,100.807C16.862,101.04 16.583,101.223 16.257,101.356C15.932,101.49 15.572,101.556 15.175,101.556C14.779,101.556 14.417,101.49 14.09,101.356C13.764,101.223 13.484,101.04 13.25,100.807C13.019,100.571 12.84,100.295 12.711,99.978C12.585,99.66 12.522,99.317 12.522,98.949C12.522,98.58 12.585,98.237 12.711,97.92C12.84,97.602 13.019,97.327 13.25,97.094C13.484,96.86 13.764,96.677 14.09,96.544C14.417,96.411 14.779,96.345 15.175,96.345C15.572,96.345 15.932,96.412 16.257,96.548C16.583,96.681 16.862,96.864 17.093,97.097C17.324,97.33 17.503,97.606 17.629,97.923C17.757,98.24 17.821,98.582 17.821,98.949ZM16.61,98.949C16.61,98.697 16.578,98.47 16.512,98.269C16.447,98.067 16.352,97.895 16.229,97.755C16.107,97.615 15.958,97.508 15.781,97.433C15.603,97.358 15.402,97.321 15.175,97.321C14.947,97.321 14.742,97.358 14.563,97.433C14.385,97.508 14.235,97.615 14.111,97.755C13.99,97.895 13.897,98.067 13.831,98.269C13.766,98.47 13.733,98.697 13.733,98.949C13.733,99.203 13.766,99.432 13.831,99.635C13.897,99.835 13.99,100.005 14.111,100.145C14.235,100.285 14.385,100.393 14.563,100.467C14.742,100.54 14.947,100.576 15.175,100.576C15.402,100.576 15.603,100.54 15.781,100.467C15.958,100.393 16.107,100.285 16.229,100.145C16.352,100.005 16.447,99.835 16.512,99.635C16.578,99.432 16.61,99.203 16.61,98.949ZM21.118,97.311L21.118,98.602L22.861,98.602L22.861,99.516L21.118,99.516L21.118,101.5L19.928,101.5L19.928,96.4L23.211,96.4L23.211,97.311L21.118,97.311ZM29.52,96.4L29.52,101.5L28.477,101.5L28.477,98.567C28.477,98.499 28.479,98.426 28.481,98.347C28.486,98.267 28.493,98.187 28.502,98.105L27.147,100.726C27.105,100.808 27.048,100.87 26.976,100.912C26.906,100.954 26.825,100.975 26.734,100.975L26.573,100.975C26.482,100.975 26.401,100.954 26.328,100.912C26.258,100.87 26.202,100.808 26.16,100.726L24.806,98.098C24.813,98.182 24.819,98.265 24.823,98.347C24.828,98.426 24.83,98.499 24.83,98.567L24.83,101.5L23.787,101.5L23.787,96.4L24.69,96.4C24.742,96.4 24.786,96.402 24.823,96.404C24.863,96.406 24.898,96.413 24.928,96.425C24.959,96.437 24.986,96.455 25.009,96.481C25.035,96.504 25.059,96.538 25.082,96.583L26.395,99.169C26.442,99.258 26.486,99.35 26.528,99.446C26.572,99.541 26.614,99.639 26.654,99.74C26.694,99.637 26.734,99.537 26.776,99.439C26.821,99.341 26.867,99.247 26.916,99.159L28.225,96.583C28.249,96.538 28.272,96.504 28.295,96.481C28.321,96.455 28.349,96.437 28.379,96.425C28.41,96.413 28.444,96.406 28.481,96.404C28.521,96.402 28.566,96.4 28.617,96.4L29.52,96.4Z" style="fill:rgb(180,180,180);fill-rule:nonzero;"/>
    <path d="M65.512,97C65.512,96.448 65.063,96 64.511,96L36.512,96C35.96,96 35.512,96.448 35.512,97L35.512,101C35.512,101.552 35.96,102 36.512,102L64.511,102C65.063,102 65.512,101.552 65.512,101L65.512,97Z" style="fill:rgb(139,191,64);"/>
    <path d="M65.512,97C65.512,96.448 65.063,96 64.511,96L36.512,96C35.96,96 35.512,96.448 35.512,97L35.512,101C35.512,101.552 35.96,102 36.512,102L64.511,102C65.063,102 65.512,101.552 65.512,101L65.512,97Z" style="fill:none;stroke:rgb(139,191,64);stroke-width:1px;"/>
    <path d="M47.647,100.52C47.763,100.52 47.856,100.553 47.923,100.618C47.991,100.681 48.025,100.765 48.025,100.87L48.025,101.5L44.441,101.5L44.441,101.15C44.441,101.082 44.455,101.01 44.483,100.933C44.511,100.856 44.56,100.786 44.63,100.723L46.1,99.243C46.226,99.117 46.335,98.996 46.429,98.882C46.522,98.768 46.599,98.656 46.66,98.546C46.72,98.434 46.766,98.323 46.796,98.214C46.827,98.102 46.842,97.984 46.842,97.86C46.842,97.657 46.793,97.502 46.695,97.394C46.599,97.285 46.452,97.23 46.254,97.23C46.093,97.23 45.956,97.273 45.844,97.36C45.735,97.444 45.659,97.549 45.617,97.675C45.568,97.803 45.504,97.888 45.424,97.93C45.345,97.972 45.232,97.981 45.085,97.958L44.511,97.857C44.548,97.602 44.619,97.381 44.724,97.192C44.832,97.003 44.963,96.845 45.12,96.719C45.278,96.593 45.459,96.5 45.662,96.439C45.865,96.376 46.083,96.345 46.317,96.345C46.569,96.345 46.795,96.382 46.996,96.457C47.199,96.529 47.371,96.63 47.514,96.761C47.656,96.892 47.765,97.048 47.839,97.23C47.916,97.41 47.955,97.608 47.955,97.825C47.955,98.012 47.928,98.184 47.874,98.343C47.823,98.502 47.752,98.653 47.661,98.798C47.57,98.94 47.464,99.079 47.342,99.215C47.223,99.348 47.096,99.483 46.961,99.621L45.963,100.642C46.092,100.603 46.219,100.572 46.345,100.551C46.471,100.53 46.587,100.52 46.695,100.52L47.647,100.52ZM56.41,100.716L56.41,101.5L53.505,101.5L53.505,100.716L54.485,100.716L54.485,98.144C54.485,98.078 54.486,98.013 54.489,97.948C54.491,97.88 54.495,97.812 54.499,97.745L53.918,98.228C53.867,98.267 53.816,98.292 53.764,98.301C53.715,98.308 53.669,98.308 53.624,98.301C53.58,98.292 53.54,98.277 53.505,98.256C53.47,98.232 53.445,98.209 53.428,98.186L53.085,97.731L54.674,96.397L55.57,96.397L55.57,100.716L56.41,100.716Z" style="fill-rule:nonzero;"/>
    <path d="M52.387,99L49.574,101.143L49.574,96.857L52.387,99Z" style="fill-rule:nonzero;"/>
    <path d="M70.773,97.857C70.811,97.602 70.882,97.381 70.987,97.192C71.094,97.003 71.226,96.845 71.382,96.719C71.541,96.593 71.722,96.5 71.925,96.439C72.128,96.376 72.346,96.345 72.579,96.345C72.831,96.345 73.055,96.381 73.251,96.453C73.447,96.523 73.613,96.619 73.748,96.74C73.884,96.861 73.986,97.003 74.056,97.164C74.126,97.322 74.161,97.49 74.161,97.668C74.161,97.829 74.145,97.971 74.112,98.095C74.08,98.216 74.031,98.322 73.965,98.413C73.902,98.502 73.823,98.578 73.727,98.641C73.634,98.701 73.527,98.753 73.405,98.795C73.97,98.993 74.252,99.378 74.252,99.95C74.252,100.22 74.203,100.456 74.105,100.656C74.007,100.857 73.875,101.024 73.71,101.157C73.546,101.29 73.356,101.39 73.139,101.458C72.922,101.523 72.696,101.556 72.46,101.556C72.218,101.556 72.002,101.53 71.813,101.479C71.624,101.425 71.456,101.344 71.309,101.234C71.162,101.122 71.032,100.98 70.92,100.807C70.811,100.634 70.715,100.429 70.633,100.191L71.116,99.995C71.242,99.946 71.359,99.933 71.466,99.957C71.574,99.98 71.65,100.033 71.697,100.117C71.802,100.311 71.913,100.452 72.03,100.541C72.149,100.627 72.288,100.67 72.446,100.67C72.568,100.67 72.673,100.651 72.761,100.611C72.852,100.569 72.927,100.516 72.985,100.453C73.046,100.388 73.091,100.315 73.122,100.233C73.152,100.151 73.167,100.068 73.167,99.985C73.167,99.875 73.159,99.777 73.143,99.691C73.129,99.602 73.087,99.526 73.017,99.463C72.947,99.4 72.841,99.352 72.698,99.32C72.558,99.284 72.362,99.267 72.11,99.267L72.11,98.518C72.323,98.518 72.494,98.502 72.625,98.469C72.755,98.436 72.856,98.392 72.926,98.336C72.998,98.278 73.046,98.208 73.069,98.126C73.093,98.044 73.104,97.955 73.104,97.857C73.104,97.656 73.055,97.502 72.957,97.394C72.862,97.285 72.715,97.23 72.516,97.23C72.355,97.23 72.219,97.273 72.107,97.36C71.997,97.444 71.921,97.549 71.879,97.675C71.83,97.803 71.766,97.888 71.687,97.93C71.607,97.972 71.494,97.981 71.347,97.958L70.773,97.857ZM83.897,100.52C84.014,100.52 84.106,100.553 84.174,100.618C84.241,100.681 84.275,100.765 84.275,100.87L84.275,101.5L80.691,101.5L80.691,101.15C80.691,101.082 80.705,101.01 80.733,100.933C80.761,100.856 80.81,100.786 80.88,100.723L82.35,99.243C82.476,99.117 82.586,98.996 82.679,98.882C82.772,98.768 82.85,98.656 82.91,98.546C82.971,98.434 83.016,98.323 83.047,98.214C83.077,98.102 83.092,97.984 83.092,97.86C83.092,97.657 83.043,97.502 82.945,97.394C82.85,97.285 82.703,97.23 82.504,97.23C82.343,97.23 82.207,97.273 82.095,97.36C81.985,97.444 81.909,97.549 81.867,97.675C81.818,97.803 81.754,97.888 81.675,97.93C81.595,97.972 81.482,97.981 81.335,97.958L80.761,97.857C80.799,97.602 80.87,97.381 80.975,97.192C81.082,97.003 81.214,96.845 81.37,96.719C81.529,96.593 81.71,96.5 81.913,96.439C82.116,96.376 82.334,96.345 82.567,96.345C82.819,96.345 83.046,96.382 83.246,96.457C83.449,96.529 83.622,96.63 83.764,96.761C83.906,96.892 84.015,97.048 84.09,97.23C84.167,97.41 84.205,97.608 84.205,97.825C84.205,98.012 84.178,98.184 84.125,98.343C84.073,98.502 84.002,98.653 83.911,98.798C83.82,98.94 83.714,99.079 83.593,99.215C83.474,99.348 83.347,99.483 83.211,99.621L82.214,100.642C82.342,100.603 82.469,100.572 82.595,100.551C82.721,100.53 82.838,100.52 82.945,100.52L83.897,100.52ZM94.176,100.716L94.176,101.5L91.271,101.5L91.271,100.716L92.251,100.716L92.251,98.144C92.251,98.078 92.252,98.013 92.254,97.948C92.257,97.88 92.26,97.812 92.265,97.745L91.684,98.228C91.632,98.267 91.581,98.292 91.53,98.301C91.481,98.308 91.434,98.308 91.39,98.301C91.345,98.292 91.306,98.277 91.271,98.256C91.236,98.232 91.21,98.209 91.194,98.186L90.851,97.731L92.44,96.397L93.336,96.397L93.336,100.716L94.176,100.716Z" style="fill:rgb(180,180,180);fill-rule:nonzero;"/>
    <path d="M78.762,99L75.949,101.143L75.949,96.857L78.762,99Z" style="fill:rgb(180,180,180);fill-rule:nonzero;"/>
    <path d="M89.074,99L86.262,101.143L86.262,96.857L89.074,99Z" style="fill:rgb(180,180,180);fill-rule:nonzero;"/>
    <path d="M105.881,100.52C105.998,100.52 106.09,100.553 106.158,100.618C106.225,100.681 106.259,100.765 106.259,100.87L106.259,101.5L102.675,101.5L102.675,101.15C102.675,101.082 102.689,101.01 102.717,100.933C102.745,100.856 102.794,100.786 102.864,100.723L104.334,99.243C104.46,99.117 104.57,98.996 104.663,98.882C104.757,98.768 104.834,98.656 104.894,98.546C104.955,98.434 105,98.323 105.031,98.214C105.061,98.102 105.076,97.984 105.076,97.86C105.076,97.657 105.027,97.502 104.929,97.394C104.834,97.285 104.687,97.23 104.488,97.23C104.327,97.23 104.191,97.273 104.079,97.36C103.969,97.444 103.893,97.549 103.851,97.675C103.802,97.803 103.738,97.888 103.659,97.93C103.579,97.972 103.466,97.981 103.319,97.958L102.745,97.857C102.783,97.602 102.854,97.381 102.959,97.192C103.066,97.003 103.198,96.845 103.354,96.719C103.513,96.593 103.694,96.5 103.897,96.439C104.1,96.376 104.318,96.345 104.551,96.345C104.803,96.345 105.03,96.382 105.23,96.457C105.433,96.529 105.606,96.63 105.748,96.761C105.891,96.892 105.999,97.048 106.074,97.23C106.151,97.41 106.189,97.608 106.189,97.825C106.189,98.012 106.162,98.184 106.109,98.343C106.057,98.502 105.986,98.653 105.895,98.798C105.804,98.94 105.698,99.079 105.577,99.215C105.458,99.348 105.331,99.483 105.195,99.621L104.198,100.642C104.326,100.603 104.453,100.572 104.579,100.551C104.705,100.53 104.822,100.52 104.929,100.52L105.881,100.52ZM116.16,100.716L116.16,101.5L113.255,101.5L113.255,100.716L114.235,100.716L114.235,98.144C114.235,98.078 114.236,98.013 114.238,97.948C114.241,97.88 114.244,97.812 114.249,97.745L113.668,98.228C113.616,98.267 113.565,98.292 113.514,98.301C113.465,98.308 113.418,98.308 113.374,98.301C113.329,98.292 113.29,98.277 113.255,98.256C113.22,98.232 113.194,98.209 113.178,98.186L112.835,97.731L114.424,96.397L115.32,96.397L115.32,100.716L116.16,100.716ZM122.805,97.857C122.843,97.602 122.914,97.381 123.019,97.192C123.126,97.003 123.258,96.845 123.414,96.719C123.573,96.593 123.754,96.5 123.957,96.439C124.16,96.376 124.378,96.345 124.611,96.345C124.863,96.345 125.087,96.381 125.283,96.453C125.479,96.523 125.645,96.619 125.78,96.74C125.916,96.861 126.018,97.003 126.088,97.164C126.158,97.322 126.193,97.49 126.193,97.668C126.193,97.829 126.177,97.971 126.144,98.095C126.112,98.216 126.063,98.322 125.997,98.413C125.934,98.502 125.855,98.578 125.759,98.641C125.666,98.701 125.559,98.753 125.437,98.795C126.002,98.993 126.284,99.378 126.284,99.95C126.284,100.22 126.235,100.456 126.137,100.656C126.039,100.857 125.907,101.024 125.742,101.157C125.578,101.29 125.388,101.39 125.171,101.458C124.954,101.523 124.728,101.556 124.492,101.556C124.25,101.556 124.034,101.53 123.845,101.479C123.656,101.425 123.488,101.344 123.341,101.234C123.194,101.122 123.064,100.98 122.952,100.807C122.843,100.634 122.747,100.429 122.665,100.191L123.148,99.995C123.274,99.946 123.391,99.933 123.498,99.957C123.606,99.98 123.683,100.033 123.729,100.117C123.834,100.311 123.945,100.452 124.062,100.541C124.181,100.627 124.32,100.67 124.478,100.67C124.6,100.67 124.705,100.651 124.793,100.611C124.884,100.569 124.959,100.516 125.017,100.453C125.078,100.388 125.123,100.315 125.154,100.233C125.184,100.151 125.199,100.068 125.199,99.985C125.199,99.875 125.191,99.777 125.175,99.691C125.161,99.602 125.119,99.526 125.049,99.463C124.979,99.4 124.873,99.352 124.73,99.32C124.59,99.284 124.394,99.267 124.142,99.267L124.142,98.518C124.355,98.518 124.526,98.502 124.657,98.469C124.787,98.436 124.888,98.392 124.958,98.336C125.03,98.278 125.078,98.208 125.101,98.126C125.125,98.044 125.136,97.955 125.136,97.857C125.136,97.656 125.087,97.502 124.989,97.394C124.894,97.285 124.747,97.23 124.548,97.23C124.387,97.23 124.251,97.273 124.139,97.36C124.029,97.444 123.953,97.549 123.911,97.675C123.862,97.803 123.798,97.888 123.719,97.93C123.639,97.972 123.526,97.981 123.379,97.958L122.805,97.857Z" style="fill:rgb(180,180,180);fill-rule:nonzero;"/>
    <path d="M110.761,99L107.949,101.143L107.949,96.857L110.761,99Z" style="fill:rgb(180,180,180);fill-rule:nonzero;"/>
    <path d="M118.261,99L121.074,96.857L121.074,101.143L118.261,99Z" style="fill:rgb(180,180,180);fill-rule:nonzero;"/>
    <path d="M3.5,95L129.5,95L129.5,94L3.5,94L3.5,95ZM131,96.5L131,101.5L132,101.5L132,96.5L131,96.5ZM129.5,103L3.5,103L3.5,104L129.5,104L129.5,103ZM2,101.5L2,96.5L1,96.5L1,101.5L2,101.5ZM3.5,103C2.672,103 2,102.328 2,101.5L1,101.5C1,102.881 2.119,104 3.5,104L3.5,103ZM131,101.5C131,102.328 130.328,103 129.5,103L129.5,104C130.881,104 132,102.881 132,101.5L131,101.5ZM129.5,95C130.328,95 131,95.672 131,96.5L132,96.5C132,95.119 130.881,94 129.5,94L129.5,95ZM3.5,94C2.119,94 1,95.119 1,96.5L2,96.5C2,95.672 2.672,95 3.5,95L3.5,94Z" style="fill-rule:nonzero;"/>
    <path d="M1,4L1,7L121,7L121,15L128,15L128,17L132,14.5L128,12L128,14L123,14L123,4L1,4Z" style="fill:rgb(139,191,64);"/>
    <path d="M23.5,28.5C23.5,27.396 22.604,26.5 21.5,26.5L15.5,26.5C14.396,26.5 13.5,27.396 13.5,28.5L13.5,34.5C13.5,35.604 14.396,36.5 15.5,36.5L21.5,36.5C22.604,36.5 23.5,35.604 23.5,34.5L23.5,28.5Z" style="fill:none;stroke:rgb(139,191,64);stroke-width:1px;"/>
    <path d="M55.5,28.5C55.5,27.396 54.604,26.5 53.5,26.5L47.5,26.5C46.396,26.5 45.5,27.396 45.5,28.5L45.5,34.5C45.5,35.604 46.396,36.5 47.5,36.5L53.5,36.5C54.604,36.5 55.5,35.604 55.5,34.5L55.5,28.5Z" style="fill:none;stroke:rgb(139,191,64);stroke-width:1px;"/>
    <path d="M87.5,28.5C87.5,27.396 86.604,26.5 85.5,26.5L79.5,26.5C78.396,26.5 77.5,27.396 77.5,28.5L77.5,34.5C77.5,35.604 78.396,36.5 79.5,36.5L85.5,36.5C86.604,36.5 87.5,35.604 87.5,34.5L87.5,28.5Z" style="fill:none;stroke:rgb(139,191,64);stroke-width:1px;"/>
    <path d="M117,26.5L111,26.5C109.895,26.5 109,27.395 109,28.5L109,34.5C109,35.605 109.895,36.5 111,36.5L117,36.5C118.105,36.5 119,35.605 119,34.5L119,28.5C119,27.395 118.105,26.5 117,26.5Z" style="fill:none;fill-rule:nonzero;stroke:rgb(139,191,64);stroke-opacity:0.5;stroke-width:1px;"/>
    <path d="M20.092,33.353L20.092,34L17.292,34L17.292,33.353L18.318,33.353L18.318,30.402C18.318,30.285 18.321,30.165 18.328,30.042L17.6,30.651C17.558,30.683 17.516,30.704 17.474,30.714C17.435,30.721 17.396,30.721 17.359,30.714C17.324,30.706 17.292,30.695 17.264,30.679C17.236,30.66 17.215,30.64 17.201,30.619L16.928,30.244L18.472,28.932L19.182,28.932L19.182,33.353L20.092,33.353Z" style="fill:white;fill-rule:nonzero;"/>
    <path d="M51.903,33.195C51.997,33.195 52.07,33.222 52.124,33.276C52.18,33.327 52.208,33.396 52.208,33.482L52.208,34L48.736,34L48.736,33.713C48.736,33.655 48.747,33.594 48.771,33.531C48.796,33.466 48.836,33.407 48.89,33.356L50.426,31.816C50.555,31.685 50.669,31.561 50.769,31.442C50.872,31.323 50.957,31.205 51.025,31.088C51.092,30.971 51.144,30.854 51.179,30.735C51.216,30.613 51.235,30.486 51.235,30.353C51.235,30.232 51.217,30.126 51.182,30.035C51.147,29.941 51.097,29.863 51.032,29.8C50.969,29.737 50.892,29.69 50.801,29.66C50.712,29.627 50.612,29.611 50.5,29.611C50.397,29.611 50.301,29.626 50.213,29.657C50.126,29.685 50.049,29.725 49.982,29.779C49.914,29.83 49.857,29.891 49.81,29.961C49.764,30.031 49.729,30.108 49.705,30.192C49.666,30.299 49.614,30.371 49.551,30.406C49.488,30.441 49.397,30.449 49.278,30.43L48.823,30.35C48.858,30.107 48.926,29.895 49.026,29.712C49.127,29.528 49.251,29.375 49.401,29.254C49.552,29.13 49.725,29.038 49.919,28.978C50.115,28.915 50.325,28.883 50.549,28.883C50.782,28.883 50.996,28.918 51.189,28.988C51.383,29.056 51.549,29.153 51.686,29.279C51.824,29.404 51.931,29.556 52.008,29.734C52.085,29.911 52.124,30.108 52.124,30.325C52.124,30.512 52.096,30.684 52.04,30.843C51.986,31.002 51.913,31.153 51.819,31.298C51.728,31.443 51.621,31.583 51.497,31.718C51.374,31.853 51.244,31.991 51.109,32.131L49.968,33.297C50.077,33.264 50.186,33.239 50.293,33.223C50.403,33.204 50.507,33.195 50.605,33.195L51.903,33.195Z" style="fill:white;fill-rule:nonzero;"/>
    <path d="M80.848,30.35C80.883,30.107 80.95,29.895 81.051,29.712C81.151,29.528 81.276,29.375 81.425,29.254C81.577,29.13 81.75,29.038 81.943,28.978C82.139,28.915 82.349,28.883 82.573,28.883C82.807,28.883 83.017,28.917 83.203,28.985C83.392,29.05 83.553,29.142 83.686,29.261C83.819,29.378 83.921,29.515 83.991,29.674C84.063,29.833 84.099,30.004 84.099,30.189C84.099,30.35 84.081,30.492 84.043,30.616C84.008,30.737 83.957,30.843 83.889,30.934C83.822,31.025 83.738,31.102 83.637,31.165C83.537,31.228 83.424,31.281 83.298,31.323C83.601,31.418 83.827,31.564 83.977,31.76C84.126,31.956 84.201,32.202 84.201,32.499C84.201,32.751 84.154,32.973 84.061,33.167C83.967,33.361 83.841,33.524 83.683,33.657C83.524,33.788 83.34,33.887 83.13,33.955C82.922,34.022 82.702,34.056 82.468,34.056C82.214,34.056 81.992,34.027 81.803,33.969C81.614,33.91 81.45,33.824 81.31,33.71C81.17,33.595 81.051,33.455 80.953,33.289C80.855,33.124 80.771,32.933 80.701,32.715L81.082,32.558C81.183,32.516 81.276,32.505 81.362,32.526C81.451,32.545 81.515,32.592 81.555,32.667C81.597,32.748 81.642,32.829 81.691,32.908C81.743,32.987 81.803,33.059 81.873,33.122C81.943,33.182 82.025,33.232 82.118,33.272C82.214,33.309 82.327,33.328 82.458,33.328C82.605,33.328 82.733,33.305 82.843,33.258C82.952,33.209 83.043,33.146 83.116,33.069C83.19,32.992 83.245,32.907 83.28,32.814C83.318,32.718 83.336,32.622 83.336,32.526C83.336,32.405 83.323,32.295 83.298,32.197C83.272,32.097 83.218,32.012 83.137,31.942C83.055,31.872 82.937,31.817 82.783,31.778C82.632,31.738 82.427,31.718 82.171,31.718L82.171,31.102C82.383,31.1 82.559,31.08 82.699,31.043C82.839,31.005 82.95,30.954 83.032,30.889C83.116,30.821 83.174,30.74 83.207,30.647C83.239,30.554 83.256,30.451 83.256,30.339C83.256,30.101 83.189,29.92 83.056,29.797C82.923,29.673 82.746,29.611 82.524,29.611C82.422,29.611 82.327,29.626 82.241,29.657C82.154,29.685 82.076,29.725 82.006,29.779C81.939,29.83 81.881,29.891 81.835,29.961C81.788,30.031 81.753,30.108 81.73,30.192C81.69,30.299 81.638,30.371 81.572,30.406C81.509,30.441 81.419,30.449 81.303,30.43L80.848,30.35Z" style="fill:white;fill-rule:nonzero;"/>
    <path d="M116.133,28.939L116.133,34L115.65,34C115.576,34 115.513,33.988 115.461,33.965C115.412,33.939 115.364,33.897 115.318,33.839L112.675,30.465C112.689,30.619 112.696,30.761 112.696,30.892L112.696,34L111.867,34L111.867,28.939L112.36,28.939C112.4,28.939 112.434,28.941 112.462,28.946C112.492,28.948 112.518,28.955 112.539,28.967C112.562,28.976 112.584,28.991 112.605,29.013C112.626,29.031 112.65,29.057 112.675,29.09L115.328,32.478C115.321,32.396 115.315,32.315 115.311,32.236C115.306,32.157 115.304,32.083 115.304,32.016L115.304,28.939L116.133,28.939Z" style="fill:white;fill-rule:nonzero;"/>
    <g opacity="0.5">
        <path d="M34.5,24.5C37.261,24.5 39.5,22.261 39.5,19.5C39.5,16.739 37.261,14.5 34.5,14.5C31.739,14.5 29.5,16.739 29.5,19.5C29.5,22.261 31.739,24.5 34.5,24.5Z" style="fill:none;fill-rule:nonzero;stroke:rgb(139,191,64);stroke-width:1px;"/>
        <path d="M36.445,16.495L37.505,17.556L35.559,19.502L37.504,21.444L36.445,22.505L34.499,20.562L32.555,22.505L31.495,21.445L33.437,19.502L31.492,17.56L32.552,16.498L34.498,18.442L36.445,16.495Z" style="fill:rgb(238,238,238);fill-rule:nonzero;"/>
    </g>
    <g opacity="0.5">
        <path d="M66.5,24.5C69.261,24.5 71.5,22.261 71.5,19.5C71.5,16.739 69.261,14.5 66.5,14.5C63.739,14.5 61.5,16.739 61.5,19.5C61.5,22.261 63.739,24.5 66.5,24.5Z" style="fill:none;fill-rule:nonzero;stroke:rgb(139,191,64);stroke-width:1px;"/>
        <path d="M68.445,16.495L69.505,17.556L67.559,19.502L69.504,21.444L68.445,22.505L66.499,20.562L64.555,22.505L63.495,21.445L65.437,19.502L63.492,17.56L64.552,16.498L66.498,18.442L68.445,16.495Z" style="fill:rgb(238,238,238);fill-rule:nonzero;"/>
    </g>
    <path d="M85,12L80,12L82.5,8L85,12Z" style="fill:rgb(139,191,64);"/>
    <rect x="82" y="11.5" width="1" height="14.5" style="fill:rgb(139,191,64);fill-rule:nonzero;"/>
    <g opacity="0.5">
        <path d="M116.5,12L111.5,12L114,8L116.5,12Z" style="fill:rgb(139,191,64);"/>
        <rect x="113.5" y="11.5" width="1" height="14.5" style="fill:rgb(139,191,64);fill-rule:nonzero;"/>
    </g>
    <path d="M53,12L48,12L50.5,8L53,12Z" style="fill:rgb(139,191,64);"/>
    <rect x="50" y="11.5" width="1" height="14.5" style="fill:rgb(139,191,64);fill-rule:nonzero;"/>
    <path d="M21,12L16,12L18.5,8L21,12Z" style="fill:rgb(139,191,64);"/>
    <rect x="18" y="11.5" width="1" height="14.5" style="fill:rgb(139,191,64);fill-rule:nonzero;"/>
    <g opacity="0.5">
        <path d="M37,12L32,12L34.5,8L37,12Z" style="fill:rgb(139,191,64);"/>
        <rect x="34" y="11.5" width="1" height="2.5" style="fill:rgb(139,191,64);fill-rule:nonzero;"/>
    </g>
    <g opacity="0.5">
        <path d="M69,12L64,12L66.5,8L69,12Z" style="fill:rgb(139,191,64);"/>
        <rect x="66" y="11.5" width="1" height="2.5" style="fill:rgb(139,191,64);fill-rule:nonzero;"/>
    </g>
    <g opacity="0.5">
        <path d="M45,17L45,22L41,19.5L45,17Z" style="fill:rgb(139,191,64);"/>
        <rect x="44.5" y="19" width="5.5" height="1" style="fill:rgb(139,191,64);fill-rule:nonzero;"/>
    </g>
    <g opacity="0.5">
        <path d="M77,17L77,22L73,19.5L77,17Z" style="fill:rgb(139,191,64);"/>
        <rect x="76.5" y="19" width="5.5" height="1" style="fill:rgb(139,191,64);fill-rule:nonzero;"/>
    </g>
    <g opacity="0.5">
        <path d="M24,22L24,17L28,19.5L24,22Z" style="fill:rgb(139,191,64);"/>
        <rect x="19" y="19" width="5.5" height="1" style="fill:rgb(139,191,64);fill-rule:nonzero;"/>
    </g>
    <g opacity="0.5">
        <path d="M56,22L56,17L60,19.5L56,22Z" style="fill:rgb(139,191,64);"/>
        <rect x="51" y="19" width="5.5" height="1" style="fill:rgb(139,191,64);fill-rule:nonzero;"/>
    </g>
    <path d="M1.5,44.5C1.5,43.395 2.395,42.5 3.5,42.5L129.5,42.5C130.605,42.5 131.5,43.395 131.5,44.5L131.5,49.5C131.5,50.605 130.605,51.5 129.5,51.5L3.5,51.5C2.395,51.5 1.5,50.605 1.5,49.5L1.5,44.5Z" style="fill:rgb(36,36,36);fill-rule:nonzero;"/>
    <path d="M33.5,45C33.5,44.448 33.052,44 32.5,44L4.5,44C3.948,44 3.5,44.448 3.5,45L3.5,49C3.5,49.552 3.948,50 4.5,50L32.5,50C33.052,50 33.5,49.552 33.5,49L33.5,45Z" style="fill:rgb(139,191,64);"/>
    <path d="M33.5,45C33.5,44.448 33.052,44 32.5,44L4.5,44C3.948,44 3.5,44.448 3.5,45L3.5,49C3.5,49.552 3.948,50 4.5,50L32.5,50C33.052,50 33.5,49.552 33.5,49L33.5,45Z" style="fill:none;stroke:rgb(139,191,64);stroke-width:1px;"/>
    <path d="M11.932,44.401L11.932,49.5L11.316,49.5C11.225,49.5 11.148,49.486 11.085,49.458C11.024,49.428 10.964,49.376 10.903,49.304L8.498,46.263C8.508,46.353 8.514,46.442 8.516,46.529C8.521,46.612 8.523,46.692 8.523,46.767L8.523,49.5L7.48,49.5L7.48,44.401L8.103,44.401C8.154,44.401 8.197,44.403 8.232,44.408C8.267,44.412 8.299,44.422 8.327,44.436C8.355,44.447 8.382,44.465 8.407,44.488C8.433,44.511 8.462,44.543 8.495,44.583L10.92,47.645C10.909,47.547 10.9,47.453 10.896,47.362C10.891,47.268 10.889,47.181 10.889,47.099L10.889,44.401L11.932,44.401ZM17.821,46.949C17.821,47.317 17.757,47.66 17.629,47.978C17.503,48.295 17.324,48.571 17.093,48.807C16.862,49.04 16.583,49.224 16.257,49.356C15.932,49.49 15.572,49.556 15.175,49.556C14.779,49.556 14.417,49.49 14.09,49.356C13.764,49.224 13.484,49.04 13.25,48.807C13.019,48.571 12.84,48.295 12.711,47.978C12.585,47.66 12.522,47.317 12.522,46.949C12.522,46.58 12.585,46.237 12.711,45.92C12.84,45.602 13.019,45.327 13.25,45.094C13.484,44.86 13.764,44.677 14.09,44.544C14.417,44.411 14.779,44.344 15.175,44.344C15.572,44.344 15.932,44.412 16.257,44.548C16.583,44.681 16.862,44.864 17.093,45.097C17.324,45.33 17.503,45.606 17.629,45.923C17.757,46.24 17.821,46.582 17.821,46.949ZM16.61,46.949C16.61,46.697 16.578,46.47 16.512,46.27C16.447,46.067 16.352,45.895 16.229,45.755C16.107,45.615 15.958,45.508 15.781,45.433C15.603,45.358 15.402,45.321 15.175,45.321C14.947,45.321 14.742,45.358 14.563,45.433C14.385,45.508 14.235,45.615 14.111,45.755C13.99,45.895 13.897,46.067 13.831,46.27C13.766,46.47 13.733,46.697 13.733,46.949C13.733,47.203 13.766,47.432 13.831,47.635C13.897,47.835 13.99,48.006 14.111,48.146C14.235,48.286 14.385,48.393 14.563,48.468C14.742,48.54 14.947,48.576 15.175,48.576C15.402,48.576 15.603,48.54 15.781,48.468C15.958,48.393 16.107,48.286 16.229,48.146C16.352,48.006 16.447,47.835 16.512,47.635C16.578,47.432 16.61,47.203 16.61,46.949ZM21.118,45.311L21.118,46.602L22.861,46.602L22.861,47.516L21.118,47.516L21.118,49.5L19.928,49.5L19.928,44.401L23.211,44.401L23.211,45.311L21.118,45.311ZM29.52,44.401L29.52,49.5L28.477,49.5L28.477,46.567C28.477,46.499 28.479,46.426 28.481,46.347C28.486,46.267 28.493,46.187 28.502,46.105L27.147,48.727C27.105,48.808 27.048,48.87 26.976,48.912C26.906,48.954 26.825,48.975 26.734,48.975L26.573,48.975C26.482,48.975 26.401,48.954 26.328,48.912C26.258,48.87 26.202,48.808 26.16,48.727L24.806,46.098C24.813,46.182 24.819,46.265 24.823,46.347C24.828,46.426 24.83,46.499 24.83,46.567L24.83,49.5L23.787,49.5L23.787,44.401L24.69,44.401C24.742,44.401 24.786,44.402 24.823,44.404C24.863,44.406 24.898,44.413 24.928,44.425C24.959,44.437 24.986,44.455 25.009,44.481C25.035,44.504 25.059,44.538 25.082,44.583L26.395,47.169C26.442,47.258 26.486,47.35 26.528,47.446C26.572,47.541 26.614,47.639 26.654,47.74C26.694,47.637 26.734,47.536 26.776,47.439C26.821,47.341 26.867,47.247 26.916,47.158L28.225,44.583C28.249,44.538 28.272,44.504 28.295,44.481C28.321,44.455 28.349,44.437 28.379,44.425C28.41,44.413 28.444,44.406 28.481,44.404C28.521,44.402 28.566,44.401 28.617,44.401L29.52,44.401Z" style="fill-rule:nonzero;"/>
    <path d="M47.647,48.52C47.763,48.52 47.856,48.553 47.923,48.618C47.991,48.681 48.025,48.765 48.025,48.87L48.025,49.5L44.441,49.5L44.441,49.15C44.441,49.082 44.455,49.01 44.483,48.933C44.511,48.856 44.56,48.786 44.63,48.723L46.1,47.243C46.226,47.117 46.335,46.996 46.429,46.882C46.522,46.768 46.599,46.656 46.66,46.546C46.72,46.434 46.766,46.323 46.796,46.214C46.827,46.102 46.842,45.984 46.842,45.86C46.842,45.657 46.793,45.502 46.695,45.395C46.599,45.285 46.452,45.23 46.254,45.23C46.093,45.23 45.956,45.273 45.844,45.359C45.735,45.444 45.659,45.548 45.617,45.675C45.568,45.803 45.504,45.888 45.424,45.93C45.345,45.972 45.232,45.981 45.085,45.958L44.511,45.856C44.548,45.602 44.619,45.381 44.724,45.192C44.832,45.003 44.963,44.845 45.12,44.719C45.278,44.593 45.459,44.5 45.662,44.439C45.865,44.376 46.083,44.344 46.317,44.344C46.569,44.344 46.795,44.382 46.996,44.457C47.199,44.529 47.371,44.63 47.514,44.761C47.656,44.892 47.765,45.048 47.839,45.23C47.916,45.41 47.955,45.608 47.955,45.825C47.955,46.012 47.928,46.184 47.874,46.343C47.823,46.502 47.752,46.653 47.661,46.798C47.57,46.94 47.464,47.079 47.342,47.215C47.223,47.347 47.096,47.483 46.961,47.621L45.963,48.643C46.092,48.603 46.219,48.573 46.345,48.551C46.471,48.531 46.587,48.52 46.695,48.52L47.647,48.52ZM56.41,48.716L56.41,49.5L53.505,49.5L53.505,48.716L54.485,48.716L54.485,46.144C54.485,46.078 54.486,46.013 54.489,45.948C54.491,45.88 54.495,45.812 54.499,45.745L53.918,46.228C53.867,46.267 53.816,46.292 53.764,46.301C53.715,46.308 53.669,46.308 53.624,46.301C53.58,46.292 53.54,46.277 53.505,46.256C53.47,46.232 53.445,46.209 53.428,46.186L53.085,45.731L54.674,44.397L55.57,44.397L55.57,48.716L56.41,48.716Z" style="fill:rgb(180,180,180);fill-rule:nonzero;"/>
    <path d="M52.387,47L49.574,49.143L49.574,44.857L52.387,47Z" style="fill:rgb(180,180,180);fill-rule:nonzero;"/>
    <path d="M70.773,45.856C70.811,45.602 70.882,45.381 70.987,45.192C71.094,45.003 71.226,44.845 71.382,44.719C71.541,44.593 71.722,44.5 71.925,44.439C72.128,44.376 72.346,44.344 72.579,44.344C72.831,44.344 73.055,44.381 73.251,44.453C73.447,44.523 73.613,44.619 73.748,44.74C73.884,44.861 73.986,45.003 74.056,45.164C74.126,45.322 74.161,45.49 74.161,45.667C74.161,45.829 74.145,45.971 74.112,46.094C74.08,46.216 74.031,46.322 73.965,46.413C73.902,46.502 73.823,46.578 73.727,46.641C73.634,46.701 73.527,46.753 73.405,46.795C73.97,46.993 74.252,47.378 74.252,47.95C74.252,48.22 74.203,48.456 74.105,48.657C74.007,48.857 73.875,49.024 73.71,49.157C73.546,49.29 73.356,49.39 73.139,49.458C72.922,49.523 72.696,49.556 72.46,49.556C72.218,49.556 72.002,49.53 71.813,49.479C71.624,49.425 71.456,49.344 71.309,49.234C71.162,49.122 71.032,48.98 70.92,48.807C70.811,48.634 70.715,48.429 70.633,48.191L71.116,47.995C71.242,47.946 71.359,47.933 71.466,47.957C71.574,47.98 71.65,48.033 71.697,48.118C71.802,48.311 71.913,48.452 72.03,48.541C72.149,48.627 72.288,48.67 72.446,48.67C72.568,48.67 72.673,48.651 72.761,48.611C72.852,48.569 72.927,48.517 72.985,48.454C73.046,48.388 73.091,48.315 73.122,48.233C73.152,48.151 73.167,48.069 73.167,47.984C73.167,47.875 73.159,47.777 73.143,47.691C73.129,47.602 73.087,47.526 73.017,47.463C72.947,47.4 72.841,47.352 72.698,47.32C72.558,47.285 72.362,47.267 72.11,47.267L72.11,46.518C72.323,46.518 72.494,46.502 72.625,46.469C72.755,46.436 72.856,46.392 72.926,46.336C72.998,46.278 73.046,46.208 73.069,46.126C73.093,46.044 73.104,45.955 73.104,45.856C73.104,45.656 73.055,45.502 72.957,45.395C72.862,45.285 72.715,45.23 72.516,45.23C72.355,45.23 72.219,45.273 72.107,45.359C71.997,45.444 71.921,45.548 71.879,45.675C71.83,45.803 71.766,45.888 71.687,45.93C71.607,45.972 71.494,45.981 71.347,45.958L70.773,45.856ZM83.897,48.52C84.014,48.52 84.106,48.553 84.174,48.618C84.241,48.681 84.275,48.765 84.275,48.87L84.275,49.5L80.691,49.5L80.691,49.15C80.691,49.082 80.705,49.01 80.733,48.933C80.761,48.856 80.81,48.786 80.88,48.723L82.35,47.243C82.476,47.117 82.586,46.996 82.679,46.882C82.772,46.768 82.85,46.656 82.91,46.546C82.971,46.434 83.016,46.323 83.047,46.214C83.077,46.102 83.092,45.984 83.092,45.86C83.092,45.657 83.043,45.502 82.945,45.395C82.85,45.285 82.703,45.23 82.504,45.23C82.343,45.23 82.207,45.273 82.095,45.359C81.985,45.444 81.909,45.548 81.867,45.675C81.818,45.803 81.754,45.888 81.675,45.93C81.595,45.972 81.482,45.981 81.335,45.958L80.761,45.856C80.799,45.602 80.87,45.381 80.975,45.192C81.082,45.003 81.214,44.845 81.37,44.719C81.529,44.593 81.71,44.5 81.913,44.439C82.116,44.376 82.334,44.344 82.567,44.344C82.819,44.344 83.046,44.382 83.246,44.457C83.449,44.529 83.622,44.63 83.764,44.761C83.906,44.892 84.015,45.048 84.09,45.23C84.167,45.41 84.205,45.608 84.205,45.825C84.205,46.012 84.178,46.184 84.125,46.343C84.073,46.502 84.002,46.653 83.911,46.798C83.82,46.94 83.714,47.079 83.593,47.215C83.474,47.347 83.347,47.483 83.211,47.621L82.214,48.643C82.342,48.603 82.469,48.573 82.595,48.551C82.721,48.531 82.838,48.52 82.945,48.52L83.897,48.52ZM94.176,48.716L94.176,49.5L91.271,49.5L91.271,48.716L92.251,48.716L92.251,46.144C92.251,46.078 92.252,46.013 92.254,45.948C92.257,45.88 92.26,45.812 92.265,45.745L91.684,46.228C91.632,46.267 91.581,46.292 91.53,46.301C91.481,46.308 91.434,46.308 91.39,46.301C91.345,46.292 91.306,46.277 91.271,46.256C91.236,46.232 91.21,46.209 91.194,46.186L90.851,45.731L92.44,44.397L93.336,44.397L93.336,48.716L94.176,48.716Z" style="fill:rgb(180,180,180);fill-rule:nonzero;"/>
    <path d="M78.762,47L75.949,49.143L75.949,44.857L78.762,47Z" style="fill:rgb(180,180,180);fill-rule:nonzero;"/>
    <path d="M89.074,47L86.262,49.143L86.262,44.857L89.074,47Z" style="fill:rgb(180,180,180);fill-rule:nonzero;"/>
    <path d="M105.881,48.52C105.998,48.52 106.09,48.553 106.158,48.618C106.225,48.681 106.259,48.765 106.259,48.87L106.259,49.5L102.675,49.5L102.675,49.15C102.675,49.082 102.689,49.01 102.717,48.933C102.745,48.856 102.794,48.786 102.864,48.723L104.334,47.243C104.46,47.117 104.57,46.996 104.663,46.882C104.757,46.768 104.834,46.656 104.894,46.546C104.955,46.434 105,46.323 105.031,46.214C105.061,46.102 105.076,45.984 105.076,45.86C105.076,45.657 105.027,45.502 104.929,45.395C104.834,45.285 104.687,45.23 104.488,45.23C104.327,45.23 104.191,45.273 104.079,45.359C103.969,45.444 103.893,45.548 103.851,45.675C103.802,45.803 103.738,45.888 103.659,45.93C103.579,45.972 103.466,45.981 103.319,45.958L102.745,45.856C102.783,45.602 102.854,45.381 102.959,45.192C103.066,45.003 103.198,44.845 103.354,44.719C103.513,44.593 103.694,44.5 103.897,44.439C104.1,44.376 104.318,44.344 104.551,44.344C104.803,44.344 105.03,44.382 105.23,44.457C105.433,44.529 105.606,44.63 105.748,44.761C105.891,44.892 105.999,45.048 106.074,45.23C106.151,45.41 106.189,45.608 106.189,45.825C106.189,46.012 106.162,46.184 106.109,46.343C106.057,46.502 105.986,46.653 105.895,46.798C105.804,46.94 105.698,47.079 105.577,47.215C105.458,47.347 105.331,47.483 105.195,47.621L104.198,48.643C104.326,48.603 104.453,48.573 104.579,48.551C104.705,48.531 104.822,48.52 104.929,48.52L105.881,48.52ZM116.16,48.716L116.16,49.5L113.255,49.5L113.255,48.716L114.235,48.716L114.235,46.144C114.235,46.078 114.236,46.013 114.238,45.948C114.241,45.88 114.244,45.812 114.249,45.745L113.668,46.228C113.616,46.267 113.565,46.292 113.514,46.301C113.465,46.308 113.418,46.308 113.374,46.301C113.329,46.292 113.29,46.277 113.255,46.256C113.22,46.232 113.194,46.209 113.178,46.186L112.835,45.731L114.424,44.397L115.32,44.397L115.32,48.716L116.16,48.716ZM122.805,45.856C122.843,45.602 122.914,45.381 123.019,45.192C123.126,45.003 123.258,44.845 123.414,44.719C123.573,44.593 123.754,44.5 123.957,44.439C124.16,44.376 124.378,44.344 124.611,44.344C124.863,44.344 125.087,44.381 125.283,44.453C125.479,44.523 125.645,44.619 125.78,44.74C125.916,44.861 126.018,45.003 126.088,45.164C126.158,45.322 126.193,45.49 126.193,45.667C126.193,45.829 126.177,45.971 126.144,46.094C126.112,46.216 126.063,46.322 125.997,46.413C125.934,46.502 125.855,46.578 125.759,46.641C125.666,46.701 125.559,46.753 125.437,46.795C126.002,46.993 126.284,47.378 126.284,47.95C126.284,48.22 126.235,48.456 126.137,48.657C126.039,48.857 125.907,49.024 125.742,49.157C125.578,49.29 125.388,49.39 125.171,49.458C124.954,49.523 124.728,49.556 124.492,49.556C124.25,49.556 124.034,49.53 123.845,49.479C123.656,49.425 123.488,49.344 123.341,49.234C123.194,49.122 123.064,48.98 122.952,48.807C122.843,48.634 122.747,48.429 122.665,48.191L123.148,47.995C123.274,47.946 123.391,47.933 123.498,47.957C123.606,47.98 123.683,48.033 123.729,48.118C123.834,48.311 123.945,48.452 124.062,48.541C124.181,48.627 124.32,48.67 124.478,48.67C124.6,48.67 124.705,48.651 124.793,48.611C124.884,48.569 124.959,48.517 125.017,48.454C125.078,48.388 125.123,48.315 125.154,48.233C125.184,48.151 125.199,48.069 125.199,47.984C125.199,47.875 125.191,47.777 125.175,47.691C125.161,47.602 125.119,47.526 125.049,47.463C124.979,47.4 124.873,47.352 124.73,47.32C124.59,47.285 124.394,47.267 124.142,47.267L124.142,46.518C124.355,46.518 124.526,46.502 124.657,46.469C124.787,46.436 124.888,46.392 124.958,46.336C125.03,46.278 125.078,46.208 125.101,46.126C125.125,46.044 125.136,45.955 125.136,45.856C125.136,45.656 125.087,45.502 124.989,45.395C124.894,45.285 124.747,45.23 124.548,45.23C124.387,45.23 124.251,45.273 124.139,45.359C124.029,45.444 123.953,45.548 123.911,45.675C123.862,45.803 123.798,45.888 123.719,45.93C123.639,45.972 123.526,45.981 123.379,45.958L122.805,45.856Z" style="fill:rgb(180,180,180);fill-rule:nonzero;"/>
    <path d="M110.761,47L107.949,49.143L107.949,44.857L110.761,47Z" style="fill:rgb(180,180,180);fill-rule:nonzero;"/>
    <path d="M118.261,47L121.074,44.857L121.074,49.143L118.261,47Z" style="fill:rgb(180,180,180);fill-rule:nonzero;"/>
    <path d="M3.5,43L129.5,43L129.5,42L3.5,42L3.5,43ZM131,44.5L131,49.5L132,49.5L132,44.5L131,44.5ZM129.5,51L3.5,51L3.5,52L129.5,52L129.5,51ZM2,49.5L2,44.5L1,44.5L1,49.5L2,49.5ZM3.5,51C2.672,51 2,50.328 2,49.5L1,49.5C1,50.881 2.119,52 3.5,52L3.5,51ZM131,49.5C131,50.328 130.328,51 129.5,51L129.5,52C130.881,52 132,50.881 132,49.5L131,49.5ZM129.5,43C130.328,43 131,43.672 131,44.5L132,44.5C132,43.119 130.881,42 129.5,42L129.5,43ZM3.5,42C2.119,42 1,43.119 1,44.5L2,44.5C2,43.672 2.672,43 3.5,43L3.5,42Z" style="fill-rule:nonzero;"/>
    <path d="M80.848,134.349C80.883,134.107 80.95,133.894 81.051,133.712C81.151,133.528 81.276,133.375 81.425,133.254C81.577,133.13 81.75,133.038 81.943,132.977C82.139,132.914 82.349,132.883 82.573,132.883C82.807,132.883 83.017,132.917 83.203,132.984C83.392,133.05 83.553,133.142 83.686,133.261C83.819,133.378 83.921,133.515 83.991,133.674C84.063,133.833 84.099,134.004 84.099,134.188C84.099,134.349 84.081,134.492 84.043,134.615C84.008,134.737 83.957,134.843 83.889,134.934C83.822,135.025 83.738,135.102 83.637,135.165C83.537,135.228 83.424,135.28 83.298,135.322C83.601,135.418 83.827,135.564 83.977,135.76C84.126,135.956 84.201,136.202 84.201,136.498C84.201,136.75 84.154,136.973 84.061,137.167C83.967,137.361 83.841,137.524 83.683,137.657C83.524,137.788 83.34,137.887 83.13,137.954C82.922,138.022 82.702,138.056 82.468,138.056C82.214,138.056 81.992,138.027 81.803,137.968C81.614,137.91 81.45,137.824 81.31,137.709C81.17,137.595 81.051,137.455 80.953,137.289C80.855,137.124 80.771,136.932 80.701,136.715L81.082,136.558C81.183,136.516 81.276,136.505 81.362,136.526C81.451,136.545 81.515,136.592 81.555,136.666C81.597,136.748 81.642,136.829 81.691,136.908C81.743,136.987 81.803,137.058 81.873,137.121C81.943,137.182 82.025,137.232 82.118,137.272C82.214,137.309 82.327,137.328 82.458,137.328C82.605,137.328 82.733,137.305 82.843,137.258C82.952,137.209 83.043,137.146 83.116,137.069C83.19,136.992 83.245,136.907 83.28,136.813C83.318,136.718 83.336,136.622 83.336,136.526C83.336,136.405 83.323,136.295 83.298,136.197C83.272,136.097 83.218,136.012 83.137,135.942C83.055,135.872 82.937,135.817 82.783,135.777C82.632,135.738 82.427,135.718 82.171,135.718L82.171,135.102C82.383,135.1 82.559,135.08 82.699,135.042C82.839,135.005 82.95,134.954 83.032,134.888C83.116,134.821 83.174,134.74 83.207,134.647C83.239,134.554 83.256,134.451 83.256,134.339C83.256,134.101 83.189,133.92 83.056,133.796C82.923,133.673 82.746,133.611 82.524,133.611C82.422,133.611 82.327,133.626 82.241,133.656C82.154,133.684 82.076,133.725 82.006,133.779C81.939,133.83 81.881,133.891 81.835,133.961C81.788,134.031 81.753,134.108 81.73,134.192C81.69,134.299 81.638,134.37 81.572,134.405C81.509,134.44 81.419,134.449 81.303,134.43L80.848,134.349Z" style="fill:white;fill-rule:nonzero;"/>
</svg>
