<?xml version="1.0" encoding="UTF-8" standalone="no"?>
<!DOCTYPE svg PUBLIC "-//W3C//DTD SVG 1.1//EN" "http://www.w3.org/Graphics/SVG/1.1/DTD/svg11.dtd">
<svg width="100%" height="100%" viewBox="0 0 11 22" version="1.1" xmlns="http://www.w3.org/2000/svg" xmlns:xlink="http://www.w3.org/1999/xlink" xml:space="preserve" xmlns:serif="http://www.serif.com/" style="fill-rule:evenodd;clip-rule:evenodd;">
    <path d="M0.5,2.5C0.5,1.395 1.395,0.5 2.5,0.5L8.5,0.5C9.605,0.5 10.5,1.395 10.5,2.5L10.5,8.5C10.5,9.605 9.605,10.5 8.5,10.5L2.5,10.5C1.395,10.5 0.5,9.605 0.5,8.5L0.5,2.5Z" style="fill:rgb(36,36,36);fill-rule:nonzero;"/>
    <path d="M2.5,1L8.5,1L8.5,0L2.5,0L2.5,1ZM10,2.5L10,8.5L11,8.5L11,2.5L10,2.5ZM8.5,10L2.5,10L2.5,11L8.5,11L8.5,10ZM1,8.5L1,2.5L0,2.5L0,8.5L1,8.5ZM2.5,10C1.672,10 1,9.328 1,8.5L0,8.5C0,9.881 1.119,11 2.5,11L2.5,10ZM10,8.5C10,9.328 9.328,10 8.5,10L8.5,11C9.881,11 11,9.881 11,8.5L10,8.5ZM8.5,1C9.328,1 10,1.672 10,2.5L11,2.5C11,1.119 9.881,0 8.5,0L8.5,1ZM2.5,0C1.119,0 0,1.119 0,2.5L1,2.5C1,1.672 1.672,1 2.5,1L2.5,0Z" style="fill-rule:nonzero;"/>
    <path d="M6.275,3L3.4,5.849L5.125,7.558L8,4.709L6.275,3ZM4.626,8L3,6.388L3,8L4.626,8Z" style="fill:rgb(180,180,180);"/>
    <path d="M0.5,13.5C0.5,12.395 1.395,11.5 2.5,11.5L8.5,11.5C9.605,11.5 10.5,12.395 10.5,13.5L10.5,19.5C10.5,20.605 9.605,21.5 8.5,21.5L2.5,21.5C1.395,21.5 0.5,20.605 0.5,19.5L0.5,13.5Z" style="fill:rgb(36,36,36);fill-rule:nonzero;"/>
    <path d="M8.5,13.75C8.5,13.612 8.388,13.5 8.25,13.5L2.75,13.5C2.612,13.5 2.5,13.612 2.5,13.75L2.5,19.25C2.5,19.388 2.612,19.5 2.75,19.5L8.25,19.5C8.388,19.5 8.5,19.388 8.5,19.25L8.5,13.75Z" style="fill:rgb(139,191,64);"/>
    <path d="M8.5,13.75C8.5,13.612 8.388,13.5 8.25,13.5L2.75,13.5C2.612,13.5 2.5,13.612 2.5,13.75L2.5,19.25C2.5,19.388 2.612,19.5 2.75,19.5L8.25,19.5C8.388,19.5 8.5,19.388 8.5,19.25L8.5,13.75Z" style="fill:none;stroke:rgb(139,191,64);stroke-width:1px;"/>
    <path d="M2.5,12L8.5,12L8.5,11L2.5,11L2.5,12ZM10,13.5L10,19.5L11,19.5L11,13.5L10,13.5ZM8.5,21L2.5,21L2.5,22L8.5,22L8.5,21ZM1,19.5L1,13.5L0,13.5L0,19.5L1,19.5ZM2.5,21C1.672,21 1,20.328 1,19.5L0,19.5C0,20.881 1.119,22 2.5,22L2.5,21ZM10,19.5C10,20.328 9.328,21 8.5,21L8.5,22C9.881,22 11,20.881 11,19.5L10,19.5ZM8.5,12C9.328,12 10,12.672 10,13.5L11,13.5C11,12.119 9.881,11 8.5,11L8.5,12ZM2.5,11C1.119,11 0,12.119 0,13.5L1,13.5C1,12.672 1.672,12 2.5,12L2.5,11Z" style="fill-rule:nonzero;"/>
    <path d="M6.275,14L3.4,16.849L5.125,18.558L8,15.709L6.275,14ZM4.626,19L3,17.388L3,19L4.626,19Z" style="fill:white;"/>
</svg>
