<?xml version="1.0" encoding="UTF-8" standalone="no"?>
<!DOCTYPE svg PUBLIC "-//W3C//DTD SVG 1.1//EN" "http://www.w3.org/Graphics/SVG/1.1/DTD/svg11.dtd">
<svg width="100%" height="100%" viewBox="0 0 40 84" version="1.1" xmlns="http://www.w3.org/2000/svg" xmlns:xlink="http://www.w3.org/1999/xlink" xml:space="preserve" xmlns:serif="http://www.serif.com/" style="fill-rule:evenodd;clip-rule:evenodd;">
    <path d="M0.5,2.5C0.5,1.395 1.395,0.5 2.5,0.5L37.5,0.5C38.605,0.5 39.5,1.395 39.5,2.5L39.5,39.5C39.5,40.605 38.605,41.5 37.5,41.5L2.5,41.5C1.395,41.5 0.5,40.605 0.5,39.5L0.5,2.5Z" style="fill:rgb(36,36,36);fill-rule:nonzero;"/>
    <path d="M37.5,3.5C37.5,2.948 37.052,2.5 36.5,2.5L3.5,2.5C2.948,2.5 2.5,2.948 2.5,3.5L2.5,17.5C2.5,18.052 2.948,18.5 3.5,18.5L36.5,18.5C37.052,18.5 37.5,18.052 37.5,17.5L37.5,3.5Z" style="fill:rgb(139,191,64);"/>
    <path d="M37.5,3.5C37.5,2.948 37.052,2.5 36.5,2.5L3.5,2.5C2.948,2.5 2.5,2.948 2.5,3.5L2.5,17.5C2.5,18.052 2.948,18.5 3.5,18.5L36.5,18.5C37.052,18.5 37.5,18.052 37.5,17.5L37.5,3.5Z" style="fill:none;stroke:rgb(139,191,64);stroke-width:1px;"/>
    <path d="M21.845,12.632L20.437,8.784C20.368,8.613 20.296,8.411 20.221,8.176C20.147,7.941 20.072,7.688 19.997,7.416C19.928,7.688 19.856,7.944 19.781,8.184C19.707,8.419 19.635,8.624 19.565,8.8L18.165,12.632L21.845,12.632ZM25.645,17L23.981,17C23.795,17 23.643,16.955 23.525,16.864C23.408,16.768 23.32,16.651 23.261,16.512L22.397,14.152L17.605,14.152L16.741,16.512C16.699,16.635 16.616,16.747 16.493,16.848C16.371,16.949 16.219,17 16.037,17L14.357,17L18.909,5.432L21.101,5.432L25.645,17Z" style="fill-rule:nonzero;"/>
    <rect x="2" y="20.5" width="36" height="1" style="fill-opacity:0.5;fill-rule:nonzero;"/>
    <path d="M20.35,36.32C20.75,36.32 21.086,36.272 21.358,36.176C21.63,36.08 21.846,35.952 22.006,35.792C22.172,35.632 22.289,35.445 22.358,35.232C22.433,35.019 22.47,34.792 22.47,34.552C22.47,34.301 22.43,34.077 22.35,33.88C22.27,33.677 22.145,33.507 21.974,33.368C21.804,33.224 21.582,33.115 21.31,33.04C21.044,32.965 20.721,32.928 20.342,32.928L18.174,32.928L18.174,36.32L20.35,36.32ZM18.174,28.096L18.174,31.44L19.886,31.44C20.622,31.44 21.177,31.307 21.55,31.04C21.929,30.773 22.118,30.349 22.118,29.768C22.118,29.165 21.948,28.736 21.606,28.48C21.265,28.224 20.732,28.096 20.006,28.096L18.174,28.096ZM20.006,26.432C20.764,26.432 21.412,26.504 21.95,26.648C22.489,26.792 22.929,26.997 23.27,27.264C23.617,27.531 23.87,27.853 24.03,28.232C24.19,28.611 24.27,29.037 24.27,29.512C24.27,29.784 24.23,30.045 24.15,30.296C24.07,30.541 23.945,30.773 23.774,30.992C23.609,31.205 23.396,31.4 23.134,31.576C22.878,31.752 22.572,31.901 22.214,32.024C23.804,32.381 24.598,33.24 24.598,34.6C24.598,35.091 24.505,35.544 24.318,35.96C24.132,36.376 23.86,36.736 23.502,37.04C23.145,37.339 22.705,37.573 22.182,37.744C21.66,37.915 21.062,38 20.39,38L16.022,38L16.022,26.432L20.006,26.432Z" style="fill:rgb(180,180,180);fill-rule:nonzero;"/>
    <path d="M2.5,1L37.5,1L37.5,0L2.5,0L2.5,1ZM39,2.5L39,39.5L40,39.5L40,2.5L39,2.5ZM37.5,41L2.5,41L2.5,42L37.5,42L37.5,41ZM1,39.5L1,2.5L0,2.5L0,39.5L1,39.5ZM2.5,41C1.672,41 1,40.328 1,39.5L0,39.5C0,40.881 1.119,42 2.5,42L2.5,41ZM39,39.5C39,40.328 38.328,41 37.5,41L37.5,42C38.881,42 40,40.881 40,39.5L39,39.5ZM37.5,1C38.328,1 39,1.672 39,2.5L40,2.5C40,1.119 38.881,0 37.5,0L37.5,1ZM2.5,0C1.119,0 0,1.119 0,2.5L1,2.5C1,1.672 1.672,1 2.5,1L2.5,0Z" style="fill-rule:nonzero;"/>
    <path d="M0.5,44.5C0.5,43.395 1.395,42.5 2.5,42.5L37.5,42.5C38.605,42.5 39.5,43.395 39.5,44.5L39.5,81.5C39.5,82.605 38.605,83.5 37.5,83.5L2.5,83.5C1.395,83.5 0.5,82.605 0.5,81.5L0.5,44.5Z" style="fill:rgb(36,36,36);fill-rule:nonzero;"/>
    <path d="M21.845,54.632L20.437,50.784C20.368,50.613 20.296,50.411 20.221,50.176C20.147,49.941 20.072,49.688 19.997,49.416C19.928,49.688 19.856,49.944 19.781,50.184C19.707,50.419 19.635,50.624 19.565,50.8L18.165,54.632L21.845,54.632ZM25.645,59L23.981,59C23.795,59 23.643,58.955 23.525,58.864C23.408,58.768 23.32,58.651 23.261,58.512L22.397,56.152L17.605,56.152L16.741,58.512C16.699,58.635 16.616,58.747 16.493,58.848C16.371,58.949 16.219,59 16.037,59L14.357,59L18.909,47.432L21.101,47.432L25.645,59Z" style="fill:rgb(180,180,180);fill-rule:nonzero;"/>
    <rect x="2" y="62.5" width="36" height="1" style="fill-opacity:0.5;fill-rule:nonzero;"/>
    <path d="M37.5,66.5C37.5,65.948 37.052,65.5 36.5,65.5L3.5,65.5C2.948,65.5 2.5,65.948 2.5,66.5L2.5,80.5C2.5,81.052 2.948,81.5 3.5,81.5L36.5,81.5C37.052,81.5 37.5,81.052 37.5,80.5L37.5,66.5Z" style="fill:rgb(139,191,64);"/>
    <path d="M37.5,66.5C37.5,65.948 37.052,65.5 36.5,65.5L3.5,65.5C2.948,65.5 2.5,65.948 2.5,66.5L2.5,80.5C2.5,81.052 2.948,81.5 3.5,81.5L36.5,81.5C37.052,81.5 37.5,81.052 37.5,80.5L37.5,66.5Z" style="fill:none;stroke:rgb(139,191,64);stroke-width:1px;"/>
    <path d="M20.35,78.32C20.75,78.32 21.086,78.272 21.358,78.176C21.63,78.08 21.846,77.952 22.006,77.792C22.172,77.632 22.289,77.445 22.358,77.232C22.433,77.019 22.47,76.792 22.47,76.552C22.47,76.301 22.43,76.077 22.35,75.88C22.27,75.677 22.145,75.507 21.974,75.368C21.804,75.224 21.582,75.115 21.31,75.04C21.044,74.965 20.721,74.928 20.342,74.928L18.174,74.928L18.174,78.32L20.35,78.32ZM18.174,70.096L18.174,73.44L19.886,73.44C20.622,73.44 21.177,73.307 21.55,73.04C21.929,72.773 22.118,72.349 22.118,71.768C22.118,71.165 21.948,70.736 21.606,70.48C21.265,70.224 20.732,70.096 20.006,70.096L18.174,70.096ZM20.006,68.432C20.764,68.432 21.412,68.504 21.95,68.648C22.489,68.792 22.929,68.997 23.27,69.264C23.617,69.531 23.87,69.853 24.03,70.232C24.19,70.611 24.27,71.037 24.27,71.512C24.27,71.784 24.23,72.045 24.15,72.296C24.07,72.541 23.945,72.773 23.774,72.992C23.609,73.205 23.396,73.4 23.134,73.576C22.878,73.752 22.572,73.901 22.214,74.024C23.804,74.381 24.598,75.24 24.598,76.6C24.598,77.091 24.505,77.544 24.318,77.96C24.132,78.376 23.86,78.736 23.502,79.04C23.145,79.339 22.705,79.573 22.182,79.744C21.66,79.915 21.062,80 20.39,80L16.022,80L16.022,68.432L20.006,68.432Z" style="fill-rule:nonzero;"/>
    <path d="M2.5,43L37.5,43L37.5,42L2.5,42L2.5,43ZM39,44.5L39,81.5L40,81.5L40,44.5L39,44.5ZM37.5,83L2.5,83L2.5,84L37.5,84L37.5,83ZM1,81.5L1,44.5L0,44.5L0,81.5L1,81.5ZM2.5,83C1.672,83 1,82.328 1,81.5L0,81.5C0,82.881 1.119,84 2.5,84L2.5,83ZM39,81.5C39,82.328 38.328,83 37.5,83L37.5,84C38.881,84 40,82.881 40,81.5L39,81.5ZM37.5,43C38.328,43 39,43.672 39,44.5L40,44.5C40,43.119 38.881,42 37.5,42L37.5,43ZM2.5,42C1.119,42 0,43.119 0,44.5L1,44.5C1,43.672 1.672,43 2.5,43L2.5,42Z" style="fill-rule:nonzero;"/>
</svg>
