<?xml version="1.0" encoding="UTF-8" standalone="no"?>
<!DOCTYPE svg PUBLIC "-//W3C//DTD SVG 1.1//EN" "http://www.w3.org/Graphics/SVG/1.1/DTD/svg11.dtd">
<svg width="100%" height="100%" viewBox="0 0 40 120" version="1.1" xmlns="http://www.w3.org/2000/svg" xmlns:xlink="http://www.w3.org/1999/xlink" xml:space="preserve" xmlns:serif="http://www.serif.com/" style="fill-rule:evenodd;clip-rule:evenodd;stroke-linejoin:round;stroke-miterlimit:2;">
    <g id="bmp00185">
        <g id="Shape" transform="matrix(1,0,0,1,0.99995,0.999976)">
            <path d="M17.747,16.921C17.418,15.854 16.881,13.844 16.566,13.079C16.311,12.461 16.074,11.841 15.782,11.548C15.49,11.256 14.993,11.279 14.694,11.578C14.694,11.578 13.44,12.428 12.99,12.991C12.427,13.439 11.576,14.696 11.576,14.696C11.276,14.996 11.253,15.492 11.545,15.784C11.838,16.076 12.458,16.314 13.076,16.568C13.841,16.883 15.852,17.419 16.919,17.749C17.101,17.805 17.803,17.104 17.747,16.921Z" style="fill:rgb(217,216,216);"/>
        </g>
        <g id="Shape1" serif:id="Shape" transform="matrix(1,0,0,1,0.99995,0.999976)">
            <path d="M6.787,2.555C7.372,3.139 7.372,4.086 6.787,4.671L4.671,6.787C4.087,7.371 3.138,7.371 2.555,6.787L0.438,4.671C-0.146,4.086 -0.146,3.139 0.438,2.555L2.554,0.438C3.138,-0.146 4.086,-0.146 4.671,0.438L6.787,2.555Z" style="fill:rgb(204,51,51);"/>
        </g>
        <g id="Shape2" serif:id="Shape" transform="matrix(1,0,0,1,0.99995,0.999976)">
            <path d="M15.782,11.548L13.664,13.666L11.55,15.781L3.613,7.845L7.846,3.613L15.782,11.548Z" style="fill:rgb(139,191,64);"/>
        </g>
        <g id="Shape3" serif:id="Shape" transform="matrix(1,0,0,1,0.99995,0.999976)">
            <path d="M16.15,17.513C16.15,17.513 17.526,18.269 17.898,17.897C18.269,17.526 17.509,16.153 17.509,16.153C17.509,16.153 16.206,16.177 16.15,17.513Z" style="fill:rgb(41,47,51);"/>
        </g>
        <g id="Shape4" serif:id="Shape" transform="matrix(1,0,0,1,0.99995,0.999976)">
            <path d="M0.967,5.2L5.2,0.967L7.845,3.612L3.613,7.845L0.967,5.2Z" style="fill:rgb(204,214,221);"/>
        </g>
        <g id="Shape5" serif:id="Shape" transform="matrix(1,0,0,1,0.99995,0.999976)">
            <path d="M1.496,5.729L5.729,1.496L6.258,2.025L2.026,6.258L1.496,5.729ZM2.554,6.788L6.787,2.555L7.317,3.084L3.084,7.316L2.554,6.788Z" style="fill:rgb(153,170,181);"/>
        </g>
        <g id="Shape6" serif:id="Shape" transform="matrix(1,0,0,1,21,1)">
            <path d="M17.747,16.921C17.418,15.854 16.881,13.844 16.566,13.079C16.311,12.461 16.074,11.841 15.782,11.548C15.49,11.256 14.993,11.279 14.694,11.578C14.694,11.578 13.44,12.428 12.99,12.991C12.427,13.439 11.576,14.696 11.576,14.696C11.276,14.996 11.253,15.492 11.545,15.784C11.838,16.076 12.458,16.314 13.076,16.568C13.841,16.883 15.852,17.419 16.919,17.749C17.101,17.805 17.803,17.104 17.747,16.921Z" style="fill:rgb(217,216,216);"/>
        </g>
        <g id="Shape7" serif:id="Shape" transform="matrix(1,0,0,1,21,1)">
            <path d="M6.787,2.555C7.372,3.139 7.372,4.086 6.787,4.671L4.671,6.787C4.087,7.371 3.138,7.371 2.555,6.787L0.438,4.671C-0.146,4.086 -0.146,3.139 0.438,2.555L2.554,0.438C3.138,-0.146 4.086,-0.146 4.671,0.438L6.787,2.555Z" style="fill:rgb(204,51,51);"/>
        </g>
        <g id="Shape8" serif:id="Shape" transform="matrix(1,0,0,1,21,1)">
            <path d="M15.782,11.548L13.664,13.666L11.55,15.781L3.613,7.845L7.846,3.613L15.782,11.548Z" style="fill:rgb(139,191,64);"/>
        </g>
        <g id="Shape9" serif:id="Shape" transform="matrix(1,0,0,1,21,1)">
            <path d="M16.15,17.513C16.15,17.513 17.526,18.269 17.898,17.897C18.269,17.526 17.509,16.153 17.509,16.153C17.509,16.153 16.206,16.177 16.15,17.513Z" style="fill:rgb(72,82,89);"/>
        </g>
        <g id="Shape10" serif:id="Shape" transform="matrix(1,0,0,1,21,1)">
            <path d="M0.967,5.2L5.2,0.967L7.845,3.612L3.613,7.845L0.967,5.2Z" style="fill:rgb(235,247,255);"/>
        </g>
        <g id="Shape11" serif:id="Shape" transform="matrix(1,0,0,1,21,1)">
            <path d="M1.496,5.729L5.729,1.496L6.258,2.025L2.026,6.258L1.496,5.729ZM2.554,6.788L6.787,2.555L7.317,3.084L3.084,7.316L2.554,6.788Z" style="fill:rgb(185,206,219);"/>
        </g>
        <g id="Shape12" serif:id="Shape" transform="matrix(1,0,0,1,1.00003,21.0501)">
            <path d="M10.934,8.992L17.601,2.326C18.132,1.794 18.132,0.931 17.601,0.399C17.068,-0.133 16.206,-0.133 15.674,0.399L9.007,7.066L2.341,0.399C1.809,-0.133 0.946,-0.133 0.415,0.399C-0.118,0.931 -0.118,1.794 0.415,2.326L7.081,8.992L0.399,15.675C-0.133,16.207 -0.133,17.069 0.399,17.601C0.665,17.867 1.014,18 1.363,18C1.711,18 2.06,17.867 2.326,17.601L9.008,10.919L15.674,17.585C15.94,17.851 16.289,17.984 16.638,17.984C16.987,17.984 17.335,17.851 17.601,17.585C18.133,17.053 18.133,16.191 17.601,15.659L10.934,8.992Z" style="fill:rgb(221,46,68);"/>
        </g>
        <g id="Shape13" serif:id="Shape" transform="matrix(1,0,0,1,21,21)">
            <path d="M10.934,8.992L17.601,2.326C18.132,1.794 18.132,0.931 17.601,0.399C17.068,-0.133 16.206,-0.133 15.674,0.399L9.007,7.066L2.341,0.399C1.809,-0.133 0.946,-0.133 0.415,0.399C-0.118,0.931 -0.118,1.794 0.415,2.326L7.081,8.992L0.399,15.675C-0.133,16.207 -0.133,17.069 0.399,17.601C0.665,17.867 1.014,18 1.363,18C1.711,18 2.06,17.867 2.326,17.601L9.008,10.919L15.674,17.585C15.94,17.851 16.289,17.984 16.638,17.984C16.987,17.984 17.335,17.851 17.601,17.585C18.133,17.053 18.133,16.191 17.601,15.659L10.934,8.992Z" style="fill:rgb(255,87,115);"/>
        </g>
        <g id="Shape14" serif:id="Shape" transform="matrix(1,0,0,1,5,41)">
            <path d="M1,4.765C1,4.765 0,4.765 0,5.824L0,12.177C0,13.235 1,13.235 1,13.235L4,13.235L8,17.471C8,17.471 8.5,18 9,18L9.5,18C9.5,18 10,18 10,17.471L10,0.529C10,0.529 10,0 9.5,0L9,0C8.5,0 8,0.529 8,0.529L4,4.765L1,4.765Z" style="fill:rgb(217,216,216);"/>
        </g>
        <g id="Shape15" serif:id="Shape" transform="matrix(1,0,0,1,5,41)">
            <path d="M4,13.235L8,17.471C8,17.471 8.5,18 9,18L9.5,18C9.5,18 10,18 10,17.471L10,0.529C10,0.529 10,0 9.5,0L9,0C8.5,0 8,0.529 8,0.529L4,4.765L4,13.235Z" style="fill:rgb(139,191,64);"/>
        </g>
        <g id="Shape16" serif:id="Shape" transform="matrix(1,0,0,1,25,41)">
            <path d="M1,4.765C1,4.765 0,4.765 0,5.824L0,12.177C0,13.235 1,13.235 1,13.235L4,13.235L8,17.471C8,17.471 8.5,18 9,18L9.5,18C9.5,18 10,18 10,17.471L10,0.529C10,0.529 10,0 9.5,0L9,0C8.5,0 8,0.529 8,0.529L4,4.765L1,4.765Z" style="fill:rgb(217,216,216);"/>
        </g>
        <g id="Shape17" serif:id="Shape" transform="matrix(1,0,0,1,25,41)">
            <path d="M4,13.235L8,17.471C8,17.471 8.5,18 9,18L9.5,18C9.5,18 10,18 10,17.471L10,0.529C10,0.529 10,0 9.5,0L9,0C8.5,0 8,0.529 8,0.529L4,4.765L4,13.235Z" style="fill:rgb(139,191,64);"/>
        </g>
        <g id="Shape-2" transform="matrix(1,0,0,1,2.01534,61)">
            <path d="M3.985,4.765C3.985,4.765 2.985,4.765 2.985,5.824L2.985,12.177C2.985,13.235 3.985,13.235 3.985,13.235L6.985,13.235L10.985,17.471C10.985,17.471 11.485,18 11.985,18L12.485,18C12.485,18 12.985,18 12.985,17.471L12.985,0.529C12.985,0.529 12.985,0 12.485,0L11.985,0C11.485,0 10.985,0.529 10.985,0.529L6.985,4.765L3.985,4.765Z" style="fill:rgb(217,216,216);"/>
        </g>
        <g id="Shape-3" transform="matrix(1,0,0,1,2.01534,61)">
            <path d="M6.985,13.235L10.985,17.471C10.985,17.471 11.485,18 11.985,18L12.485,18C12.485,18 12.985,18 12.985,17.471L12.985,0.529C12.985,0.529 12.985,0 12.485,0L11.985,0C11.485,0 10.985,0.529 10.985,0.529L6.985,4.765L6.985,13.235Z" style="fill:rgb(139,191,64);"/>
        </g>
        <g id="Shape-4" transform="matrix(1,0,0,1,2.01534,61)">
            <path d="M2.067,1.355C1.594,0.882 0.827,0.882 0.355,1.355C-0.118,1.828 -0.118,2.594 0.355,3.067L13.918,16.63C14.154,16.866 14.464,16.984 14.774,16.984C15.084,16.984 15.393,16.866 15.63,16.63C16.103,16.157 16.103,15.39 15.63,14.918L2.067,1.355Z" style="fill:rgb(221,46,68);"/>
        </g>
        <g id="Shape-21" serif:id="Shape-2" transform="matrix(1,0,0,1,22.0001,61)">
            <path d="M4,4.765C4,4.765 3,4.765 3,5.824L3,12.177C3,13.235 4,13.235 4,13.235L7,13.235L11,17.471C11,17.471 11.5,18 12,18L12.5,18C12.5,18 13,18 13,17.471L13,0.529C13,0.529 13,0 12.5,0L12,0C11.5,0 11,0.529 11,0.529L7,4.765L4,4.765Z" style="fill:rgb(217,216,216);"/>
        </g>
        <g id="Shape-31" serif:id="Shape-3" transform="matrix(1,0,0,1,22.0001,61)">
            <path d="M7,13.235L11,17.471C11,17.471 11.5,18 12,18L12.5,18C12.5,18 13,18 13,17.471L13,0.529C13,0.529 13,0 12.5,0L12,0C11.5,0 11,0.529 11,0.529L7,4.765L7,13.235Z" style="fill:rgb(139,191,64);"/>
        </g>
        <g id="Shape-41" serif:id="Shape-4" transform="matrix(1,0,0,1,22.0001,61)">
            <path d="M2.067,1.355C1.594,0.882 0.827,0.882 0.355,1.355C-0.118,1.828 -0.118,2.594 0.355,3.067L13.918,16.63C14.154,16.866 14.464,16.984 14.774,16.984C15.084,16.984 15.393,16.866 15.63,16.63C16.103,16.157 16.103,15.39 15.63,14.918L2.067,1.355Z" style="fill:rgb(255,87,115);"/>
        </g>
        <g id="Shape18" serif:id="Shape" transform="matrix(1,0,0,1,5,81)">
            <path d="M4.286,12.121C3.497,12.121 2.857,11.47 2.857,10.667L2.857,8.727C2.857,7.924 3.497,7.273 4.286,7.273C4.573,7.27 7.143,6.788 7.143,4.848C7.143,3.879 6.19,2.909 4.762,2.909C3.6,2.909 2.857,3.879 2.857,4.364C2.857,5.167 2.218,5.818 1.429,5.818C0.64,5.818 0,5.167 0,4.364C0,1.999 2.181,0 4.762,0C8.571,0 10,2.9 10,5.333C10,7.343 8.916,8.879 6.946,9.658C6.518,9.828 6.094,9.943 5.714,10.02L5.714,10.667C5.714,11.47 5.075,12.121 4.286,12.121Z" style="fill:rgb(139,191,64);"/>
        </g>
        <g id="Circle" transform="matrix(1,0,0,1,5,81)">
            <path d="M2.857,14.546C2.857,13.742 3.497,13.091 4.286,13.091C5.075,13.091 5.714,13.742 5.714,14.546C5.714,15.349 5.075,16 4.286,16C3.497,16 2.857,15.349 2.857,14.546Z" style="fill:rgb(139,191,64);"/>
        </g>
        <g id="Shape19" serif:id="Shape" transform="matrix(1,0,0,1,25,81)">
            <path d="M4.286,12.121C3.497,12.121 2.857,11.47 2.857,10.667L2.857,8.727C2.857,7.924 3.497,7.273 4.286,7.273C4.573,7.27 7.143,6.788 7.143,4.848C7.143,3.879 6.19,2.909 4.762,2.909C3.6,2.909 2.857,3.879 2.857,4.364C2.857,5.167 2.218,5.818 1.429,5.818C0.64,5.818 0,5.167 0,4.364C0,1.999 2.181,0 4.762,0C8.571,0 10,2.9 10,5.333C10,7.343 8.916,8.879 6.946,9.658C6.518,9.828 6.094,9.943 5.714,10.02L5.714,10.667C5.714,11.47 5.075,12.121 4.286,12.121Z" style="fill:rgb(139,191,64);"/>
        </g>
        <g id="Circle1" serif:id="Circle" transform="matrix(1,0,0,1,25,81)">
            <path d="M2.857,14.546C2.857,13.742 3.497,13.091 4.286,13.091C5.075,13.091 5.714,13.742 5.714,14.546C5.714,15.349 5.075,16 4.286,16C3.497,16 2.857,15.349 2.857,14.546Z" style="fill:rgb(139,191,64);"/>
        </g>
    </g>
</svg>
