<?xml version="1.0" encoding="UTF-8" standalone="no"?>
<!DOCTYPE svg PUBLIC "-//W3C//DTD SVG 1.1//EN" "http://www.w3.org/Graphics/SVG/1.1/DTD/svg11.dtd">
<svg width="100%" height="100%" viewBox="0 0 48 56" version="1.1" xmlns="http://www.w3.org/2000/svg" xmlns:xlink="http://www.w3.org/1999/xlink" xml:space="preserve" xmlns:serif="http://www.serif.com/" style="fill-rule:evenodd;clip-rule:evenodd;stroke-linejoin:round;stroke-miterlimit:2;">
    <g transform="matrix(1.27273,0,0,0.285715,21.5455,6.28571)">
        <rect x="3.5" y="6" width="11" height="14"/>
    </g>
    <g transform="matrix(1.27273,0,0,0.285715,21.5455,34.7857)">
        <rect x="3.5" y="6" width="11" height="14"/>
    </g>
    <g transform="matrix(0.727273,0,0,1,2.45454,-2)">
        <rect x="3.5" y="6" width="11" height="14" style="fill:url(#_Radial1);"/>
    </g>
    <g transform="matrix(0.727273,0,0,1,2.45454,26)">
        <rect x="3.5" y="6" width="11" height="14" style="fill:url(#_Radial2);"/>
    </g>
    <g transform="matrix(1,0,0,1,2e-06,-1.75)">
        <path d="M34,11.25L32,11.25C31.72,11.25 31.5,11.47 31.5,11.75C31.5,12.03 31.72,12.25 32,12.25L34,12.25C34.28,12.25 34.5,12.03 34.5,11.75C34.5,11.47 34.28,11.25 34,11.25Z" style="fill:rgb(74,230,26);fill-rule:nonzero;"/>
    </g>
    <g transform="matrix(1,0,0,1,2e-06,-1.75)">
        <path d="M34,11.25L32,11.25C31.72,11.25 31.5,11.47 31.5,11.75C31.5,12.03 31.72,12.25 32,12.25L34,12.25C34.28,12.25 34.5,12.03 34.5,11.75C34.5,11.47 34.28,11.25 34,11.25Z" style="fill:rgb(74,230,26);fill-rule:nonzero;"/>
    </g>
    <g transform="matrix(1,0,0,1,2e-06,26.75)">
        <path d="M34,11.25L32,11.25C31.72,11.25 31.5,11.47 31.5,11.75C31.5,12.03 31.72,12.25 32,12.25L34,12.25C34.28,12.25 34.5,12.03 34.5,11.75C34.5,11.47 34.28,11.25 34,11.25Z" style="fill:rgb(74,230,26);fill-rule:nonzero;"/>
    </g>
    <g transform="matrix(1,0,0,1,2e-06,26.75)">
        <path d="M34,11.25L32,11.25C31.72,11.25 31.5,11.47 31.5,11.75C31.5,12.03 31.72,12.25 32,12.25L34,12.25C34.28,12.25 34.5,12.03 34.5,11.75C34.5,11.47 34.28,11.25 34,11.25Z" style="fill:rgb(74,230,26);fill-rule:nonzero;"/>
    </g>
    <g transform="matrix(1.33333,0,0,1,-3,-1)">
        <path d="M10,11L8,11C7.72,11 7.5,11.22 7.5,11.5C7.5,11.78 7.72,12 8,12L10,12C10.28,12 10.5,11.78 10.5,11.5C10.5,11.22 10.28,11 10,11Z" style="fill:rgb(192,192,192);fill-rule:nonzero;"/>
    </g>
    <g transform="matrix(1.33333,0,0,1,-3,27)">
        <path d="M10,11L8,11C7.72,11 7.5,11.22 7.5,11.5C7.5,11.78 7.72,12 8,12L10,12C10.28,12 10.5,11.78 10.5,11.5C10.5,11.22 10.28,11 10,11Z" style="fill:rgb(192,192,192);fill-rule:nonzero;"/>
    </g>
    <defs>
        <radialGradient id="_Radial1" cx="0" cy="0" r="1" gradientUnits="userSpaceOnUse" gradientTransform="matrix(7.5898,0,0,5.54,6.9735,12.44)"><stop offset="0" style="stop-color:rgb(28,28,28);stop-opacity:1"/><stop offset="1" style="stop-color:rgb(14,14,14);stop-opacity:1"/></radialGradient>
        <radialGradient id="_Radial2" cx="0" cy="0" r="1" gradientUnits="userSpaceOnUse" gradientTransform="matrix(7.5898,0,0,5.54,6.9735,12.44)"><stop offset="0" style="stop-color:rgb(28,28,28);stop-opacity:1"/><stop offset="1" style="stop-color:rgb(14,14,14);stop-opacity:1"/></radialGradient>
    </defs>
</svg>
