<?xml version="1.0" encoding="UTF-8" standalone="no"?>
<!DOCTYPE svg PUBLIC "-//W3C//DTD SVG 1.1//EN" "http://www.w3.org/Graphics/SVG/1.1/DTD/svg11.dtd">
<svg width="100%" height="100%" viewBox="0 0 90 72" version="1.1" xmlns="http://www.w3.org/2000/svg" xmlns:xlink="http://www.w3.org/1999/xlink" xml:space="preserve" xmlns:serif="http://www.serif.com/" style="fill-rule:evenodd;clip-rule:evenodd;stroke-linejoin:round;stroke-miterlimit:2;">
    <g transform="matrix(1.15132,0,0,1.15132,-8.53928,-6.78739)">
        <path d="M17.821,14.084C17.821,14.505 17.747,14.897 17.601,15.26C17.457,15.623 17.253,15.939 16.989,16.208C16.725,16.475 16.406,16.684 16.033,16.836C15.662,16.988 15.25,17.064 14.797,17.064C14.343,17.064 13.93,16.988 13.557,16.836C13.183,16.684 12.863,16.475 12.597,16.208C12.333,15.939 12.127,15.623 11.981,15.26C11.837,14.897 11.765,14.505 11.765,14.084C11.765,13.663 11.837,13.271 11.981,12.908C12.127,12.545 12.333,12.231 12.597,11.964C12.863,11.697 13.183,11.488 13.557,11.336C13.93,11.184 14.343,11.108 14.797,11.108C15.25,11.108 15.662,11.185 16.033,11.34C16.406,11.492 16.725,11.701 16.989,11.968C17.253,12.235 17.457,12.549 17.601,12.912C17.747,13.275 17.821,13.665 17.821,14.084ZM16.437,14.084C16.437,13.796 16.399,13.537 16.325,13.308C16.25,13.076 16.142,12.88 16.001,12.72C15.862,12.56 15.691,12.437 15.489,12.352C15.286,12.267 15.055,12.224 14.797,12.224C14.535,12.224 14.302,12.267 14.097,12.352C13.894,12.437 13.722,12.56 13.581,12.72C13.442,12.88 13.335,13.076 13.261,13.308C13.186,13.537 13.149,13.796 13.149,14.084C13.149,14.375 13.186,14.636 13.261,14.868C13.335,15.097 13.442,15.292 13.581,15.452C13.722,15.612 13.894,15.735 14.097,15.82C14.302,15.903 14.535,15.944 14.797,15.944C15.055,15.944 15.286,15.903 15.489,15.82C15.691,15.735 15.862,15.612 16.001,15.452C16.142,15.292 16.25,15.097 16.325,14.868C16.399,14.636 16.437,14.375 16.437,14.084ZM18.606,17L18.606,13.704L18.334,13.648C18.24,13.627 18.164,13.593 18.106,13.548C18.049,13.503 18.022,13.436 18.022,13.348L18.022,12.86L18.606,12.86L18.606,12.704C18.606,12.467 18.643,12.252 18.718,12.06C18.795,11.865 18.904,11.7 19.046,11.564C19.19,11.428 19.364,11.324 19.57,11.252C19.775,11.177 20.008,11.14 20.27,11.14C20.371,11.14 20.464,11.147 20.549,11.16C20.635,11.171 20.724,11.188 20.818,11.212L20.794,11.816C20.788,11.901 20.752,11.961 20.686,11.996C20.622,12.028 20.555,12.044 20.485,12.044C20.376,12.044 20.279,12.055 20.194,12.076C20.108,12.097 20.036,12.135 19.978,12.188C19.922,12.241 19.879,12.313 19.85,12.404C19.82,12.492 19.805,12.604 19.805,12.74L19.805,12.86L21.262,12.86L21.262,12.548C21.262,12.311 21.299,12.096 21.374,11.904C21.451,11.712 21.56,11.548 21.702,11.412C21.846,11.276 22.02,11.171 22.226,11.096C22.431,11.021 22.664,10.984 22.926,10.984C23.027,10.984 23.12,10.991 23.206,11.004C23.291,11.015 23.38,11.033 23.474,11.06L23.45,11.664C23.447,11.707 23.436,11.743 23.418,11.772C23.399,11.799 23.374,11.821 23.342,11.84C23.312,11.856 23.28,11.868 23.246,11.876C23.211,11.884 23.176,11.888 23.142,11.888C23.032,11.888 22.935,11.899 22.85,11.92C22.764,11.941 22.692,11.98 22.634,12.036C22.578,12.089 22.535,12.161 22.506,12.252C22.476,12.34 22.462,12.452 22.462,12.588L22.462,12.86L23.433,12.86L23.433,13.708L22.502,13.708L22.502,17L21.262,17L21.262,13.708L19.846,13.708L19.846,17L18.606,17Z" style="fill:rgb(100,100,100);fill-rule:nonzero;"/>
    </g>
    <g transform="matrix(0.666667,0,0,0.666667,0,0)">
        <g opacity="0.75">
            <g transform="matrix(-3.82857e-16,-1,1,-3.82857e-16,8.5,58.5)">
                <rect x="33.5" y="25" width="23" height="1" style="fill:rgb(100,100,100);"/>
            </g>
        </g>
    </g>
    <g transform="matrix(0.991408,0,0,0.991408,-16.5123,-4.55872)">
        <path d="M46.015,12.356C45.975,12.42 45.932,12.468 45.887,12.5C45.844,12.532 45.788,12.548 45.719,12.548C45.657,12.548 45.591,12.529 45.519,12.492C45.449,12.452 45.369,12.408 45.279,12.36C45.191,12.312 45.089,12.269 44.975,12.232C44.86,12.192 44.729,12.172 44.583,12.172C44.329,12.172 44.14,12.227 44.015,12.336C43.892,12.443 43.831,12.588 43.831,12.772C43.831,12.889 43.868,12.987 43.943,13.064C44.017,13.141 44.115,13.208 44.235,13.264C44.357,13.32 44.496,13.372 44.651,13.42C44.808,13.465 44.968,13.517 45.131,13.576C45.293,13.632 45.452,13.699 45.607,13.776C45.764,13.853 45.903,13.952 46.023,14.072C46.145,14.192 46.244,14.339 46.319,14.512C46.393,14.683 46.431,14.889 46.431,15.132C46.431,15.401 46.384,15.653 46.291,15.888C46.197,16.123 46.061,16.328 45.883,16.504C45.707,16.677 45.488,16.815 45.227,16.916C44.968,17.015 44.673,17.064 44.343,17.064C44.161,17.064 43.976,17.045 43.787,17.008C43.6,16.971 43.419,16.919 43.243,16.852C43.067,16.783 42.901,16.701 42.747,16.608C42.592,16.515 42.457,16.411 42.343,16.296L42.743,15.664C42.775,15.619 42.816,15.581 42.867,15.552C42.92,15.52 42.977,15.504 43.039,15.504C43.119,15.504 43.199,15.529 43.279,15.58C43.361,15.631 43.453,15.687 43.555,15.748C43.659,15.809 43.777,15.865 43.911,15.916C44.044,15.967 44.201,15.992 44.383,15.992C44.628,15.992 44.819,15.939 44.955,15.832C45.091,15.723 45.159,15.551 45.159,15.316C45.159,15.18 45.121,15.069 45.047,14.984C44.972,14.899 44.873,14.828 44.751,14.772C44.631,14.716 44.493,14.667 44.339,14.624C44.184,14.581 44.025,14.535 43.863,14.484C43.7,14.431 43.541,14.367 43.387,14.292C43.232,14.215 43.093,14.115 42.971,13.992C42.851,13.867 42.753,13.712 42.679,13.528C42.604,13.341 42.567,13.112 42.567,12.84C42.567,12.621 42.611,12.408 42.699,12.2C42.787,11.992 42.916,11.807 43.087,11.644C43.257,11.481 43.467,11.352 43.715,11.256C43.963,11.157 44.247,11.108 44.567,11.108C44.745,11.108 44.919,11.123 45.087,11.152C45.257,11.179 45.419,11.22 45.571,11.276C45.723,11.329 45.864,11.395 45.995,11.472C46.128,11.547 46.247,11.632 46.351,11.728L46.015,12.356ZM49.541,14.428C49.541,14.329 49.527,14.233 49.501,14.14C49.477,14.047 49.435,13.964 49.377,13.892C49.321,13.817 49.246,13.757 49.153,13.712C49.059,13.667 48.946,13.644 48.813,13.644C48.578,13.644 48.394,13.712 48.261,13.848C48.127,13.981 48.039,14.175 47.997,14.428L49.541,14.428ZM47.981,15.148C48.021,15.495 48.126,15.747 48.297,15.904C48.467,16.059 48.687,16.136 48.957,16.136C49.1,16.136 49.225,16.119 49.329,16.084C49.433,16.049 49.525,16.011 49.605,15.968C49.687,15.925 49.762,15.887 49.829,15.852C49.898,15.817 49.97,15.8 50.045,15.8C50.143,15.8 50.218,15.836 50.269,15.908L50.629,16.352C50.501,16.499 50.362,16.619 50.213,16.712C50.066,16.803 49.914,16.875 49.757,16.928C49.602,16.979 49.446,17.013 49.289,17.032C49.134,17.053 48.986,17.064 48.844,17.064C48.554,17.064 48.281,17.017 48.025,16.924C47.771,16.828 47.548,16.687 47.356,16.5C47.167,16.313 47.017,16.081 46.905,15.804C46.795,15.527 46.74,15.204 46.74,14.836C46.74,14.559 46.787,14.296 46.881,14.048C46.977,13.8 47.112,13.583 47.289,13.396C47.467,13.209 47.682,13.061 47.933,12.952C48.186,12.843 48.471,12.788 48.789,12.788C49.063,12.788 49.314,12.831 49.541,12.916C49.77,13.001 49.966,13.125 50.129,13.288C50.294,13.451 50.422,13.651 50.513,13.888C50.606,14.123 50.653,14.389 50.653,14.688C50.653,14.781 50.649,14.857 50.641,14.916C50.633,14.975 50.618,15.021 50.597,15.056C50.575,15.091 50.546,15.115 50.509,15.128C50.474,15.141 50.429,15.148 50.373,15.148L47.981,15.148ZM52.297,13.3C52.377,13.225 52.46,13.156 52.545,13.092C52.63,13.028 52.721,12.975 52.817,12.932C52.916,12.887 53.021,12.852 53.133,12.828C53.248,12.801 53.372,12.788 53.505,12.788C53.732,12.788 53.932,12.828 54.105,12.908C54.281,12.985 54.429,13.095 54.549,13.236C54.669,13.375 54.76,13.541 54.821,13.736C54.882,13.928 54.913,14.137 54.913,14.364L54.913,17L53.673,17L53.673,14.364C53.673,14.161 53.626,14.004 53.533,13.892C53.44,13.777 53.302,13.72 53.121,13.72C52.985,13.72 52.857,13.749 52.737,13.808C52.62,13.864 52.505,13.941 52.393,14.04L52.393,17L51.153,17L51.153,12.852L51.921,12.852C52.076,12.852 52.177,12.921 52.225,13.06L52.297,13.3ZM58.112,13.964C58.018,13.86 57.917,13.788 57.807,13.748C57.698,13.705 57.584,13.684 57.464,13.684C57.349,13.684 57.243,13.707 57.148,13.752C57.051,13.797 56.968,13.871 56.896,13.972C56.826,14.071 56.772,14.2 56.731,14.36C56.692,14.52 56.672,14.713 56.672,14.94C56.672,15.159 56.688,15.343 56.719,15.492C56.752,15.641 56.795,15.763 56.852,15.856C56.91,15.947 56.98,16.012 57.06,16.052C57.14,16.092 57.229,16.112 57.328,16.112C57.418,16.112 57.5,16.104 57.572,16.088C57.646,16.069 57.714,16.044 57.776,16.012C57.837,15.98 57.894,15.94 57.948,15.892C58.004,15.841 58.058,15.784 58.112,15.72L58.112,13.964ZM59.352,11.012L59.352,17L58.584,17C58.429,17 58.328,16.931 58.28,16.792L58.184,16.476C58.101,16.564 58.014,16.644 57.923,16.716C57.833,16.788 57.734,16.851 57.628,16.904C57.524,16.955 57.41,16.993 57.288,17.02C57.167,17.049 57.037,17.064 56.896,17.064C56.679,17.064 56.48,17.016 56.295,16.92C56.112,16.824 55.953,16.685 55.82,16.504C55.686,16.323 55.581,16.101 55.504,15.84C55.429,15.576 55.392,15.276 55.392,14.94C55.392,14.631 55.434,14.344 55.52,14.08C55.605,13.813 55.725,13.584 55.88,13.392C56.037,13.197 56.225,13.045 56.444,12.936C56.662,12.827 56.904,12.772 57.167,12.772C57.384,12.772 57.565,12.803 57.712,12.864C57.858,12.925 57.992,13.008 58.112,13.112L58.112,11.012L59.352,11.012Z" style="fill:rgb(100,100,100);fill-rule:nonzero;"/>
    </g>
    <g transform="matrix(0.666667,0,0,0.666667,0,0)">
        <g opacity="0.75">
            <g transform="matrix(-3.82857e-16,-1,1,-3.82857e-16,42,92)">
                <rect x="67" y="25" width="23" height="1" style="fill:rgb(100,100,100);"/>
            </g>
        </g>
    </g>
    <g transform="matrix(0.782807,0,0,0.782807,-9.8287,-1.63037)">
        <path d="M75.835,8.356C75.795,8.42 75.753,8.468 75.707,8.5C75.665,8.532 75.609,8.548 75.539,8.548C75.478,8.548 75.411,8.529 75.339,8.492C75.27,8.452 75.19,8.408 75.099,8.36C75.011,8.312 74.91,8.269 74.795,8.232C74.681,8.192 74.55,8.172 74.403,8.172C74.15,8.172 73.961,8.227 73.835,8.336C73.713,8.443 73.651,8.588 73.651,8.772C73.651,8.889 73.689,8.987 73.763,9.064C73.838,9.141 73.935,9.208 74.055,9.264C74.178,9.32 74.317,9.372 74.471,9.42C74.629,9.465 74.789,9.517 74.951,9.576C75.114,9.632 75.273,9.699 75.427,9.776C75.585,9.853 75.723,9.952 75.843,10.072C75.966,10.192 76.065,10.339 76.139,10.512C76.214,10.683 76.251,10.889 76.251,11.132C76.251,11.401 76.205,11.653 76.111,11.888C76.018,12.123 75.882,12.328 75.703,12.504C75.527,12.677 75.309,12.815 75.047,12.916C74.789,13.015 74.494,13.064 74.163,13.064C73.982,13.064 73.797,13.045 73.607,13.008C73.421,12.971 73.239,12.919 73.063,12.852C72.887,12.783 72.722,12.701 72.567,12.608C72.413,12.515 72.278,12.411 72.163,12.296L72.563,11.664C72.595,11.619 72.637,11.581 72.687,11.552C72.741,11.52 72.798,11.504 72.859,11.504C72.939,11.504 73.019,11.529 73.099,11.58C73.182,11.631 73.274,11.687 73.375,11.748C73.479,11.809 73.598,11.865 73.731,11.916C73.865,11.967 74.022,11.992 74.203,11.992C74.449,11.992 74.639,11.939 74.775,11.832C74.911,11.723 74.979,11.551 74.979,11.316C74.979,11.18 74.942,11.069 74.867,10.984C74.793,10.899 74.694,10.828 74.571,10.772C74.451,10.716 74.314,10.667 74.159,10.624C74.005,10.581 73.846,10.535 73.683,10.484C73.521,10.431 73.362,10.367 73.207,10.292C73.053,10.215 72.914,10.115 72.791,9.992C72.671,9.867 72.574,9.712 72.499,9.528C72.425,9.341 72.387,9.112 72.387,8.84C72.387,8.621 72.431,8.408 72.519,8.2C72.607,7.992 72.737,7.807 72.907,7.644C73.078,7.481 73.287,7.352 73.535,7.256C73.783,7.157 74.067,7.108 74.387,7.108C74.566,7.108 74.739,7.123 74.907,7.152C75.078,7.179 75.239,7.22 75.391,7.276C75.543,7.329 75.685,7.395 75.815,7.472C75.949,7.547 76.067,7.632 76.171,7.728L75.835,8.356ZM79.361,10.428C79.361,10.329 79.348,10.233 79.321,10.14C79.297,10.047 79.256,9.964 79.197,9.892C79.141,9.817 79.066,9.757 78.973,9.712C78.88,9.667 78.766,9.644 78.633,9.644C78.398,9.644 78.214,9.712 78.081,9.848C77.948,9.981 77.86,10.175 77.817,10.428L79.361,10.428ZM77.801,11.148C77.841,11.495 77.946,11.747 78.117,11.904C78.288,12.059 78.508,12.136 78.777,12.136C78.921,12.136 79.045,12.119 79.149,12.084C79.253,12.049 79.345,12.011 79.425,11.968C79.508,11.925 79.582,11.887 79.649,11.852C79.718,11.817 79.79,11.8 79.865,11.8C79.964,11.8 80.038,11.836 80.089,11.908L80.449,12.352C80.321,12.499 80.182,12.619 80.033,12.712C79.886,12.803 79.734,12.875 79.577,12.928C79.422,12.979 79.266,13.013 79.109,13.032C78.954,13.053 78.806,13.064 78.665,13.064C78.374,13.064 78.101,13.017 77.845,12.924C77.592,12.828 77.369,12.687 77.177,12.5C76.988,12.313 76.837,12.081 76.725,11.804C76.616,11.527 76.561,11.204 76.561,10.836C76.561,10.559 76.608,10.296 76.701,10.048C76.797,9.8 76.933,9.583 77.109,9.396C77.288,9.209 77.502,9.061 77.753,8.952C78.006,8.843 78.292,8.788 78.609,8.788C78.884,8.788 79.134,8.831 79.361,8.916C79.59,9.001 79.786,9.125 79.949,9.288C80.114,9.451 80.242,9.651 80.333,9.888C80.426,10.123 80.473,10.389 80.473,10.688C80.473,10.781 80.469,10.857 80.461,10.916C80.453,10.975 80.438,11.021 80.417,11.056C80.396,11.091 80.366,11.115 80.329,11.128C80.294,11.141 80.249,11.148 80.193,11.148L77.801,11.148ZM82.118,9.3C82.198,9.225 82.28,9.156 82.366,9.092C82.451,9.028 82.542,8.975 82.638,8.932C82.736,8.887 82.842,8.852 82.954,8.828C83.068,8.801 83.192,8.788 83.326,8.788C83.552,8.788 83.752,8.828 83.926,8.908C84.102,8.985 84.25,9.095 84.37,9.236C84.49,9.375 84.58,9.541 84.642,9.736C84.703,9.928 84.734,10.137 84.734,10.364L84.734,13L83.494,13L83.494,10.364C83.494,10.161 83.447,10.004 83.354,9.892C83.26,9.777 83.123,9.72 82.942,9.72C82.806,9.72 82.678,9.749 82.558,9.808C82.44,9.864 82.326,9.941 82.214,10.04L82.214,13L80.974,13L80.974,8.852L81.742,8.852C81.896,8.852 81.998,8.921 82.046,9.06L82.118,9.3ZM87.932,9.964C87.839,9.86 87.737,9.788 87.628,9.748C87.519,9.705 87.404,9.684 87.284,9.684C87.169,9.684 87.064,9.707 86.968,9.752C86.872,9.797 86.788,9.871 86.716,9.972C86.647,10.071 86.592,10.2 86.552,10.36C86.512,10.52 86.492,10.713 86.492,10.94C86.492,11.159 86.508,11.343 86.54,11.492C86.572,11.641 86.616,11.763 86.672,11.856C86.731,11.947 86.8,12.012 86.88,12.052C86.96,12.092 87.049,12.112 87.148,12.112C87.239,12.112 87.32,12.104 87.392,12.088C87.467,12.069 87.535,12.044 87.596,12.012C87.657,11.98 87.715,11.94 87.768,11.892C87.824,11.841 87.879,11.784 87.932,11.72L87.932,9.964ZM89.172,7.012L89.172,13L88.404,13C88.249,13 88.148,12.931 88.1,12.792L88.004,12.476C87.921,12.564 87.835,12.644 87.744,12.716C87.653,12.788 87.555,12.851 87.448,12.904C87.344,12.955 87.231,12.993 87.108,13.02C86.988,13.049 86.857,13.064 86.716,13.064C86.5,13.064 86.3,13.016 86.116,12.92C85.932,12.824 85.773,12.685 85.64,12.504C85.507,12.323 85.401,12.101 85.324,11.84C85.249,11.576 85.212,11.276 85.212,10.94C85.212,10.631 85.255,10.344 85.34,10.08C85.425,9.813 85.545,9.584 85.7,9.392C85.857,9.197 86.045,9.045 86.264,8.936C86.483,8.827 86.724,8.772 86.988,8.772C87.204,8.772 87.385,8.803 87.532,8.864C87.679,8.925 87.812,9.008 87.932,9.112L87.932,7.012L89.172,7.012ZM93.105,10.416C92.959,10.539 92.855,10.671 92.793,10.812C92.732,10.951 92.701,11.099 92.701,11.256C92.701,11.384 92.72,11.5 92.757,11.604C92.797,11.708 92.853,11.797 92.925,11.872C92.997,11.947 93.083,12.005 93.181,12.048C93.283,12.088 93.395,12.108 93.517,12.108C93.696,12.108 93.863,12.085 94.017,12.04C94.172,11.992 94.316,11.925 94.449,11.84L93.105,10.416ZM97.093,13L95.869,13C95.808,13 95.753,12.997 95.705,12.992C95.657,12.984 95.612,12.972 95.569,12.956C95.529,12.94 95.491,12.917 95.453,12.888C95.416,12.859 95.376,12.821 95.333,12.776L95.081,12.512C94.828,12.688 94.551,12.824 94.249,12.92C93.951,13.016 93.632,13.064 93.293,13.064C93.061,13.064 92.833,13.024 92.609,12.944C92.388,12.864 92.191,12.751 92.017,12.604C91.844,12.455 91.704,12.275 91.597,12.064C91.491,11.853 91.437,11.617 91.437,11.356C91.437,11.18 91.464,11.013 91.517,10.856C91.573,10.699 91.651,10.553 91.749,10.42C91.851,10.284 91.969,10.161 92.105,10.052C92.241,9.94 92.392,9.843 92.557,9.76C92.429,9.565 92.337,9.375 92.281,9.188C92.225,9.001 92.197,8.82 92.197,8.644C92.197,8.436 92.235,8.24 92.309,8.056C92.387,7.869 92.497,7.707 92.641,7.568C92.788,7.427 92.967,7.315 93.177,7.232C93.391,7.149 93.635,7.108 93.909,7.108C94.168,7.108 94.396,7.147 94.593,7.224C94.791,7.299 94.957,7.399 95.093,7.524C95.229,7.647 95.336,7.789 95.413,7.952C95.491,8.115 95.539,8.281 95.557,8.452L94.757,8.612C94.616,8.644 94.512,8.588 94.445,8.444C94.384,8.305 94.312,8.2 94.229,8.128C94.149,8.056 94.043,8.02 93.909,8.02C93.816,8.02 93.735,8.037 93.665,8.072C93.596,8.107 93.537,8.152 93.489,8.208C93.444,8.264 93.409,8.329 93.385,8.404C93.361,8.479 93.349,8.556 93.349,8.636C93.349,8.705 93.355,8.772 93.365,8.836C93.379,8.897 93.4,8.961 93.429,9.028C93.459,9.092 93.497,9.159 93.545,9.228C93.596,9.297 93.659,9.373 93.733,9.456L95.173,10.972C95.245,10.815 95.304,10.649 95.349,10.476C95.395,10.3 95.424,10.12 95.437,9.936C95.445,9.861 95.471,9.803 95.513,9.76C95.556,9.717 95.613,9.696 95.685,9.696L96.469,9.696C96.469,10.083 96.417,10.445 96.313,10.784C96.209,11.123 96.063,11.432 95.873,11.712L97.093,13ZM76.504,17.98L78.576,17.98L78.576,20.44C78.277,20.659 77.959,20.817 77.62,20.916C77.284,21.015 76.932,21.064 76.564,21.064C76.084,21.064 75.647,20.989 75.252,20.84C74.86,20.688 74.524,20.48 74.244,20.216C73.964,19.949 73.748,19.635 73.596,19.272C73.444,18.907 73.368,18.511 73.368,18.084C73.368,17.649 73.44,17.251 73.584,16.888C73.728,16.523 73.933,16.208 74.2,15.944C74.469,15.68 74.793,15.475 75.172,15.328C75.553,15.181 75.979,15.108 76.448,15.108C76.691,15.108 76.919,15.128 77.132,15.168C77.345,15.208 77.541,15.263 77.72,15.332C77.901,15.401 78.067,15.484 78.216,15.58C78.365,15.676 78.499,15.78 78.616,15.892L78.224,16.488C78.162,16.581 78.083,16.639 77.984,16.66C77.888,16.681 77.784,16.657 77.672,16.588C77.565,16.524 77.464,16.469 77.368,16.424C77.275,16.376 77.179,16.337 77.08,16.308C76.981,16.279 76.877,16.257 76.768,16.244C76.659,16.231 76.536,16.224 76.4,16.224C76.147,16.224 75.919,16.269 75.716,16.36C75.513,16.448 75.34,16.573 75.196,16.736C75.055,16.899 74.945,17.095 74.868,17.324C74.791,17.551 74.752,17.804 74.752,18.084C74.752,18.393 74.795,18.668 74.88,18.908C74.965,19.148 75.085,19.351 75.24,19.516C75.397,19.681 75.584,19.808 75.8,19.896C76.019,19.981 76.26,20.024 76.524,20.024C76.687,20.024 76.833,20.008 76.964,19.976C77.097,19.944 77.227,19.901 77.352,19.848L77.352,18.964L76.776,18.964C76.691,18.964 76.624,18.941 76.576,18.896C76.528,18.851 76.504,18.793 76.504,18.724L76.504,17.98ZM80.461,15.012L80.461,21L79.221,21L79.221,15.012L80.461,15.012ZM83.091,16.788C83.406,16.788 83.693,16.837 83.951,16.936C84.21,17.035 84.431,17.176 84.615,17.36C84.802,17.544 84.946,17.768 85.047,18.032C85.151,18.293 85.203,18.588 85.203,18.916C85.203,19.247 85.151,19.545 85.047,19.812C84.946,20.076 84.802,20.301 84.615,20.488C84.431,20.672 84.21,20.815 83.951,20.916C83.693,21.015 83.406,21.064 83.091,21.064C82.774,21.064 82.485,21.015 82.223,20.916C81.965,20.815 81.741,20.672 81.551,20.488C81.365,20.301 81.219,20.076 81.115,19.812C81.014,19.545 80.963,19.247 80.963,18.916C80.963,18.588 81.014,18.293 81.115,18.032C81.219,17.768 81.365,17.544 81.551,17.36C81.741,17.176 81.965,17.035 82.223,16.936C82.485,16.837 82.774,16.788 83.091,16.788ZM83.091,20.144C83.377,20.144 83.586,20.044 83.719,19.844C83.855,19.641 83.923,19.335 83.923,18.924C83.923,18.513 83.855,18.208 83.719,18.008C83.586,17.808 83.377,17.708 83.091,17.708C82.798,17.708 82.583,17.808 82.447,18.008C82.311,18.208 82.243,18.513 82.243,18.924C82.243,19.335 82.311,19.641 82.447,19.844C82.583,20.044 82.798,20.144 83.091,20.144ZM86.948,19.872C87.041,19.973 87.142,20.045 87.252,20.088C87.361,20.131 87.472,20.152 87.584,20.152C87.701,20.152 87.809,20.131 87.908,20.088C88.006,20.043 88.09,19.971 88.16,19.872C88.232,19.771 88.288,19.639 88.328,19.476C88.368,19.311 88.388,19.108 88.388,18.868C88.388,18.66 88.372,18.484 88.34,18.34C88.31,18.193 88.265,18.075 88.204,17.984C88.145,17.891 88.07,17.824 87.98,17.784C87.892,17.741 87.79,17.72 87.676,17.72C87.524,17.72 87.392,17.753 87.28,17.82C87.168,17.887 87.057,17.984 86.948,18.112L86.948,19.872ZM86.948,17.292C87.108,17.14 87.282,17.019 87.472,16.928C87.664,16.835 87.877,16.788 88.112,16.788C88.346,16.788 88.56,16.836 88.752,16.932C88.944,17.028 89.108,17.165 89.244,17.344C89.38,17.52 89.484,17.733 89.556,17.984C89.63,18.235 89.668,18.515 89.668,18.824C89.668,19.16 89.625,19.465 89.54,19.74C89.454,20.015 89.333,20.251 89.176,20.448C89.021,20.643 88.836,20.795 88.62,20.904C88.404,21.011 88.165,21.064 87.904,21.064C87.778,21.064 87.666,21.052 87.568,21.028C87.469,21.004 87.378,20.971 87.296,20.928C87.213,20.883 87.137,20.829 87.068,20.768C87.001,20.707 86.936,20.64 86.872,20.568L86.828,20.776C86.806,20.861 86.772,20.92 86.724,20.952C86.676,20.984 86.612,21 86.532,21L85.708,21L85.708,15.012L86.948,15.012L86.948,17.292ZM92.321,19.312C92.073,19.323 91.869,19.344 91.709,19.376C91.549,19.408 91.423,19.448 91.329,19.496C91.236,19.544 91.171,19.599 91.133,19.66C91.099,19.721 91.081,19.788 91.081,19.86C91.081,20.001 91.12,20.101 91.197,20.16C91.275,20.216 91.388,20.244 91.537,20.244C91.697,20.244 91.837,20.216 91.957,20.16C92.077,20.104 92.199,20.013 92.321,19.888L92.321,19.312ZM90.089,17.428C90.34,17.207 90.617,17.043 90.921,16.936C91.228,16.827 91.556,16.772 91.905,16.772C92.156,16.772 92.381,16.813 92.581,16.896C92.784,16.976 92.955,17.089 93.093,17.236C93.235,17.38 93.343,17.552 93.417,17.752C93.492,17.952 93.529,18.171 93.529,18.408L93.529,21L92.961,21C92.844,21 92.755,20.984 92.693,20.952C92.635,20.92 92.585,20.853 92.545,20.752L92.457,20.524C92.353,20.612 92.253,20.689 92.157,20.756C92.061,20.823 91.961,20.88 91.857,20.928C91.756,20.973 91.647,21.007 91.529,21.028C91.415,21.052 91.287,21.064 91.145,21.064C90.956,21.064 90.784,21.04 90.629,20.992C90.475,20.941 90.343,20.868 90.233,20.772C90.127,20.676 90.044,20.557 89.985,20.416C89.927,20.272 89.897,20.107 89.897,19.92C89.897,19.771 89.935,19.62 90.009,19.468C90.084,19.313 90.213,19.173 90.397,19.048C90.581,18.92 90.829,18.813 91.141,18.728C91.453,18.643 91.847,18.595 92.321,18.584L92.321,18.408C92.321,18.165 92.271,17.991 92.169,17.884C92.071,17.775 91.929,17.72 91.745,17.72C91.599,17.72 91.479,17.736 91.385,17.768C91.292,17.8 91.208,17.836 91.133,17.876C91.061,17.916 90.991,17.952 90.921,17.984C90.852,18.016 90.769,18.032 90.673,18.032C90.588,18.032 90.516,18.011 90.457,17.968C90.399,17.925 90.351,17.875 90.313,17.816L90.089,17.428ZM95.442,15.012L95.442,21L94.202,21L94.202,15.012L95.442,15.012Z" style="fill:rgb(100,100,100);fill-rule:nonzero;"/>
    </g>
    <g transform="matrix(0.666667,0,0,0.666667,0,0)">
        <rect x="100.5" y="2" width="1" height="23" style="fill:rgb(100,100,100);"/>
    </g>
    <g transform="matrix(1.002,0,0,1.002,-39.4823,-4.6754)">
        <path d="M116.842,14.772L116.302,13.176C116.262,13.075 116.219,12.956 116.174,12.82C116.129,12.681 116.083,12.532 116.038,12.372C115.998,12.535 115.955,12.685 115.91,12.824C115.865,12.963 115.822,13.083 115.782,13.184L115.246,14.772L116.842,14.772ZM118.99,17L117.942,17C117.825,17 117.73,16.973 117.658,16.92C117.586,16.864 117.531,16.793 117.494,16.708L117.15,15.692L114.934,15.692L114.59,16.708C114.561,16.783 114.507,16.851 114.43,16.912C114.355,16.971 114.262,17 114.15,17L113.094,17L115.35,11.172L116.734,11.172L118.99,17ZM120.426,11.012L120.426,17L119.186,17L119.186,11.012L120.426,11.012ZM122.384,11.012L122.384,17L121.144,17L121.144,11.012L122.384,11.012Z" style="fill:rgb(100,100,100);fill-rule:nonzero;"/>
    </g>
    <g transform="matrix(1.15132,0,0,1.15132,-8.53928,-19.8822)">
        <path d="M17.821,41.084C17.821,41.505 17.747,41.897 17.601,42.26C17.457,42.623 17.253,42.939 16.989,43.208C16.725,43.475 16.406,43.684 16.033,43.836C15.662,43.988 15.25,44.064 14.797,44.064C14.343,44.064 13.93,43.988 13.557,43.836C13.183,43.684 12.863,43.475 12.597,43.208C12.333,42.939 12.127,42.623 11.981,42.26C11.837,41.897 11.765,41.505 11.765,41.084C11.765,40.663 11.837,40.271 11.981,39.908C12.127,39.545 12.333,39.231 12.597,38.964C12.863,38.697 13.183,38.488 13.557,38.336C13.93,38.184 14.343,38.108 14.797,38.108C15.25,38.108 15.662,38.185 16.033,38.34C16.406,38.492 16.725,38.701 16.989,38.968C17.253,39.235 17.457,39.549 17.601,39.912C17.747,40.275 17.821,40.665 17.821,41.084ZM16.437,41.084C16.437,40.796 16.399,40.537 16.325,40.308C16.25,40.076 16.142,39.88 16.001,39.72C15.862,39.56 15.691,39.437 15.489,39.352C15.286,39.267 15.055,39.224 14.797,39.224C14.535,39.224 14.302,39.267 14.097,39.352C13.894,39.437 13.722,39.56 13.581,39.72C13.442,39.88 13.335,40.076 13.261,40.308C13.186,40.537 13.149,40.796 13.149,41.084C13.149,41.375 13.186,41.636 13.261,41.868C13.335,42.097 13.442,42.292 13.581,42.452C13.722,42.612 13.894,42.735 14.097,42.82C14.302,42.903 14.535,42.944 14.797,42.944C15.055,42.944 15.286,42.903 15.489,42.82C15.691,42.735 15.862,42.612 16.001,42.452C16.142,42.292 16.25,42.097 16.325,41.868C16.399,41.636 16.437,41.375 16.437,41.084ZM18.606,44L18.606,40.704L18.334,40.648C18.24,40.627 18.164,40.593 18.106,40.548C18.049,40.503 18.022,40.436 18.022,40.348L18.022,39.86L18.606,39.86L18.606,39.704C18.606,39.467 18.643,39.252 18.718,39.06C18.795,38.865 18.904,38.7 19.046,38.564C19.19,38.428 19.364,38.324 19.57,38.252C19.775,38.177 20.008,38.14 20.27,38.14C20.371,38.14 20.464,38.147 20.549,38.16C20.635,38.171 20.724,38.188 20.818,38.212L20.794,38.816C20.788,38.901 20.752,38.961 20.686,38.996C20.622,39.028 20.555,39.044 20.485,39.044C20.376,39.044 20.279,39.055 20.194,39.076C20.108,39.097 20.036,39.135 19.978,39.188C19.922,39.241 19.879,39.313 19.85,39.404C19.82,39.492 19.805,39.604 19.805,39.74L19.805,39.86L21.262,39.86L21.262,39.548C21.262,39.311 21.299,39.096 21.374,38.904C21.451,38.712 21.56,38.548 21.702,38.412C21.846,38.276 22.02,38.171 22.226,38.096C22.431,38.021 22.664,37.984 22.926,37.984C23.027,37.984 23.12,37.991 23.206,38.004C23.291,38.015 23.38,38.033 23.474,38.06L23.45,38.664C23.447,38.707 23.436,38.743 23.418,38.772C23.399,38.799 23.374,38.821 23.342,38.84C23.312,38.856 23.28,38.868 23.246,38.876C23.211,38.884 23.176,38.888 23.142,38.888C23.032,38.888 22.935,38.899 22.85,38.92C22.764,38.941 22.692,38.98 22.634,39.036C22.578,39.089 22.535,39.161 22.506,39.252C22.476,39.34 22.462,39.452 22.462,39.588L22.462,39.86L23.433,39.86L23.433,40.708L22.502,40.708L22.502,44L21.262,44L21.262,40.708L19.846,40.708L19.846,44L18.606,44Z" style="fill:rgb(100,100,100);fill-rule:nonzero;"/>
    </g>
    <g transform="matrix(0.666667,0,0,0.666667,0,0)">
        <g opacity="0.75">
            <g transform="matrix(-3.82857e-16,-1,1,-3.82857e-16,-18.5,85.5)">
                <rect x="33.5" y="52" width="23" height="1" style="fill:rgb(100,100,100);"/>
            </g>
        </g>
    </g>
    <g transform="matrix(0.991408,0,0,0.991408,-16.5123,-13.3267)">
        <path d="M46.015,39.356C45.975,39.42 45.932,39.468 45.887,39.5C45.844,39.532 45.788,39.548 45.719,39.548C45.657,39.548 45.591,39.529 45.519,39.492C45.449,39.452 45.369,39.408 45.279,39.36C45.191,39.312 45.089,39.269 44.975,39.232C44.86,39.192 44.729,39.172 44.583,39.172C44.329,39.172 44.14,39.227 44.015,39.336C43.892,39.443 43.831,39.588 43.831,39.772C43.831,39.889 43.868,39.987 43.943,40.064C44.017,40.141 44.115,40.208 44.235,40.264C44.357,40.32 44.496,40.372 44.651,40.42C44.808,40.465 44.968,40.517 45.131,40.576C45.293,40.632 45.452,40.699 45.607,40.776C45.764,40.853 45.903,40.952 46.023,41.072C46.145,41.192 46.244,41.339 46.319,41.512C46.393,41.683 46.431,41.889 46.431,42.132C46.431,42.401 46.384,42.653 46.291,42.888C46.197,43.123 46.061,43.328 45.883,43.504C45.707,43.677 45.488,43.815 45.227,43.916C44.968,44.015 44.673,44.064 44.343,44.064C44.161,44.064 43.976,44.045 43.787,44.008C43.6,43.971 43.419,43.919 43.243,43.852C43.067,43.783 42.901,43.701 42.747,43.608C42.592,43.515 42.457,43.411 42.343,43.296L42.743,42.664C42.775,42.619 42.816,42.581 42.867,42.552C42.92,42.52 42.977,42.504 43.039,42.504C43.119,42.504 43.199,42.529 43.279,42.58C43.361,42.631 43.453,42.687 43.555,42.748C43.659,42.809 43.777,42.865 43.911,42.916C44.044,42.967 44.201,42.992 44.383,42.992C44.628,42.992 44.819,42.939 44.955,42.832C45.091,42.723 45.159,42.551 45.159,42.316C45.159,42.18 45.121,42.069 45.047,41.984C44.972,41.899 44.873,41.828 44.751,41.772C44.631,41.716 44.493,41.667 44.339,41.624C44.184,41.581 44.025,41.535 43.863,41.484C43.7,41.431 43.541,41.367 43.387,41.292C43.232,41.215 43.093,41.115 42.971,40.992C42.851,40.867 42.753,40.712 42.679,40.528C42.604,40.341 42.567,40.112 42.567,39.84C42.567,39.621 42.611,39.408 42.699,39.2C42.787,38.992 42.916,38.807 43.087,38.644C43.257,38.481 43.467,38.352 43.715,38.256C43.963,38.157 44.247,38.108 44.567,38.108C44.745,38.108 44.919,38.123 45.087,38.152C45.257,38.179 45.419,38.22 45.571,38.276C45.723,38.329 45.864,38.395 45.995,38.472C46.128,38.547 46.247,38.632 46.351,38.728L46.015,39.356ZM49.541,41.428C49.541,41.329 49.527,41.233 49.501,41.14C49.477,41.047 49.435,40.964 49.377,40.892C49.321,40.817 49.246,40.757 49.153,40.712C49.059,40.667 48.946,40.644 48.813,40.644C48.578,40.644 48.394,40.712 48.261,40.848C48.127,40.981 48.039,41.175 47.997,41.428L49.541,41.428ZM47.981,42.148C48.021,42.495 48.126,42.747 48.297,42.904C48.467,43.059 48.687,43.136 48.957,43.136C49.1,43.136 49.225,43.119 49.329,43.084C49.433,43.049 49.525,43.011 49.605,42.968C49.687,42.925 49.762,42.887 49.829,42.852C49.898,42.817 49.97,42.8 50.045,42.8C50.143,42.8 50.218,42.836 50.269,42.908L50.629,43.352C50.501,43.499 50.362,43.619 50.213,43.712C50.066,43.803 49.914,43.875 49.757,43.928C49.602,43.979 49.446,44.013 49.289,44.032C49.134,44.053 48.986,44.064 48.844,44.064C48.554,44.064 48.281,44.017 48.025,43.924C47.771,43.828 47.548,43.687 47.356,43.5C47.167,43.313 47.017,43.081 46.905,42.804C46.795,42.527 46.74,42.204 46.74,41.836C46.74,41.559 46.787,41.296 46.881,41.048C46.977,40.8 47.112,40.583 47.289,40.396C47.467,40.209 47.682,40.061 47.933,39.952C48.186,39.843 48.471,39.788 48.789,39.788C49.063,39.788 49.314,39.831 49.541,39.916C49.77,40.001 49.966,40.125 50.129,40.288C50.294,40.451 50.422,40.651 50.513,40.888C50.606,41.123 50.653,41.389 50.653,41.688C50.653,41.781 50.649,41.857 50.641,41.916C50.633,41.975 50.618,42.021 50.597,42.056C50.575,42.091 50.546,42.115 50.509,42.128C50.474,42.141 50.429,42.148 50.373,42.148L47.981,42.148ZM52.297,40.3C52.377,40.225 52.46,40.156 52.545,40.092C52.63,40.028 52.721,39.975 52.817,39.932C52.916,39.887 53.021,39.852 53.133,39.828C53.248,39.801 53.372,39.788 53.505,39.788C53.732,39.788 53.932,39.828 54.105,39.908C54.281,39.985 54.429,40.095 54.549,40.236C54.669,40.375 54.76,40.541 54.821,40.736C54.882,40.928 54.913,41.137 54.913,41.364L54.913,44L53.673,44L53.673,41.364C53.673,41.161 53.626,41.004 53.533,40.892C53.44,40.777 53.302,40.72 53.121,40.72C52.985,40.72 52.857,40.749 52.737,40.808C52.62,40.864 52.505,40.941 52.393,41.04L52.393,44L51.153,44L51.153,39.852L51.921,39.852C52.076,39.852 52.177,39.921 52.225,40.06L52.297,40.3ZM58.112,40.964C58.018,40.86 57.917,40.788 57.807,40.748C57.698,40.705 57.584,40.684 57.464,40.684C57.349,40.684 57.243,40.707 57.148,40.752C57.051,40.797 56.968,40.871 56.896,40.972C56.826,41.071 56.772,41.2 56.731,41.36C56.692,41.52 56.672,41.713 56.672,41.94C56.672,42.159 56.688,42.343 56.719,42.492C56.752,42.641 56.795,42.763 56.852,42.856C56.91,42.947 56.98,43.012 57.06,43.052C57.14,43.092 57.229,43.112 57.328,43.112C57.418,43.112 57.5,43.104 57.572,43.088C57.646,43.069 57.714,43.044 57.776,43.012C57.837,42.98 57.894,42.94 57.948,42.892C58.004,42.841 58.058,42.784 58.112,42.72L58.112,40.964ZM59.352,38.012L59.352,44L58.584,44C58.429,44 58.328,43.931 58.28,43.792L58.184,43.476C58.101,43.564 58.014,43.644 57.923,43.716C57.833,43.788 57.734,43.851 57.628,43.904C57.524,43.955 57.41,43.993 57.288,44.02C57.167,44.049 57.037,44.064 56.896,44.064C56.679,44.064 56.48,44.016 56.295,43.92C56.112,43.824 55.953,43.685 55.82,43.504C55.686,43.323 55.581,43.101 55.504,42.84C55.429,42.576 55.392,42.276 55.392,41.94C55.392,41.631 55.434,41.344 55.52,41.08C55.605,40.813 55.725,40.584 55.88,40.392C56.037,40.197 56.225,40.045 56.444,39.936C56.662,39.827 56.904,39.772 57.167,39.772C57.384,39.772 57.565,39.803 57.712,39.864C57.858,39.925 57.992,40.008 58.112,40.112L58.112,38.012L59.352,38.012Z" style="fill:rgb(79,136,0);fill-rule:nonzero;"/>
    </g>
    <g transform="matrix(0.666667,0,0,0.666667,0,0)">
        <g opacity="0.75">
            <g transform="matrix(-3.82857e-16,-1,1,-3.82857e-16,15,119)">
                <rect x="67" y="52" width="23" height="1" style="fill:rgb(100,100,100);"/>
            </g>
        </g>
    </g>
    <g transform="matrix(0.782807,0,0,0.782807,-9.8287,-4.76616)">
        <path d="M75.835,35.356C75.795,35.42 75.753,35.468 75.707,35.5C75.665,35.532 75.609,35.548 75.539,35.548C75.478,35.548 75.411,35.529 75.339,35.492C75.27,35.452 75.19,35.408 75.099,35.36C75.011,35.312 74.91,35.269 74.795,35.232C74.681,35.192 74.55,35.172 74.403,35.172C74.15,35.172 73.961,35.227 73.835,35.336C73.713,35.443 73.651,35.588 73.651,35.772C73.651,35.889 73.689,35.987 73.763,36.064C73.838,36.141 73.935,36.208 74.055,36.264C74.178,36.32 74.317,36.372 74.471,36.42C74.629,36.465 74.789,36.517 74.951,36.576C75.114,36.632 75.273,36.699 75.427,36.776C75.585,36.853 75.723,36.952 75.843,37.072C75.966,37.192 76.065,37.339 76.139,37.512C76.214,37.683 76.251,37.889 76.251,38.132C76.251,38.401 76.205,38.653 76.111,38.888C76.018,39.123 75.882,39.328 75.703,39.504C75.527,39.677 75.309,39.815 75.047,39.916C74.789,40.015 74.494,40.064 74.163,40.064C73.982,40.064 73.797,40.045 73.607,40.008C73.421,39.971 73.239,39.919 73.063,39.852C72.887,39.783 72.722,39.701 72.567,39.608C72.413,39.515 72.278,39.411 72.163,39.296L72.563,38.664C72.595,38.619 72.637,38.581 72.687,38.552C72.741,38.52 72.798,38.504 72.859,38.504C72.939,38.504 73.019,38.529 73.099,38.58C73.182,38.631 73.274,38.687 73.375,38.748C73.479,38.809 73.598,38.865 73.731,38.916C73.865,38.967 74.022,38.992 74.203,38.992C74.449,38.992 74.639,38.939 74.775,38.832C74.911,38.723 74.979,38.551 74.979,38.316C74.979,38.18 74.942,38.069 74.867,37.984C74.793,37.899 74.694,37.828 74.571,37.772C74.451,37.716 74.314,37.667 74.159,37.624C74.005,37.581 73.846,37.535 73.683,37.484C73.521,37.431 73.362,37.367 73.207,37.292C73.053,37.215 72.914,37.115 72.791,36.992C72.671,36.867 72.574,36.712 72.499,36.528C72.425,36.341 72.387,36.112 72.387,35.84C72.387,35.621 72.431,35.408 72.519,35.2C72.607,34.992 72.737,34.807 72.907,34.644C73.078,34.481 73.287,34.352 73.535,34.256C73.783,34.157 74.067,34.108 74.387,34.108C74.566,34.108 74.739,34.123 74.907,34.152C75.078,34.179 75.239,34.22 75.391,34.276C75.543,34.329 75.685,34.395 75.815,34.472C75.949,34.547 76.067,34.632 76.171,34.728L75.835,35.356ZM79.361,37.428C79.361,37.329 79.348,37.233 79.321,37.14C79.297,37.047 79.256,36.964 79.197,36.892C79.141,36.817 79.066,36.757 78.973,36.712C78.88,36.667 78.766,36.644 78.633,36.644C78.398,36.644 78.214,36.712 78.081,36.848C77.948,36.981 77.86,37.175 77.817,37.428L79.361,37.428ZM77.801,38.148C77.841,38.495 77.946,38.747 78.117,38.904C78.288,39.059 78.508,39.136 78.777,39.136C78.921,39.136 79.045,39.119 79.149,39.084C79.253,39.049 79.345,39.011 79.425,38.968C79.508,38.925 79.582,38.887 79.649,38.852C79.718,38.817 79.79,38.8 79.865,38.8C79.964,38.8 80.038,38.836 80.089,38.908L80.449,39.352C80.321,39.499 80.182,39.619 80.033,39.712C79.886,39.803 79.734,39.875 79.577,39.928C79.422,39.979 79.266,40.013 79.109,40.032C78.954,40.053 78.806,40.064 78.665,40.064C78.374,40.064 78.101,40.017 77.845,39.924C77.592,39.828 77.369,39.687 77.177,39.5C76.988,39.313 76.837,39.081 76.725,38.804C76.616,38.527 76.561,38.204 76.561,37.836C76.561,37.559 76.608,37.296 76.701,37.048C76.797,36.8 76.933,36.583 77.109,36.396C77.288,36.209 77.502,36.061 77.753,35.952C78.006,35.843 78.292,35.788 78.609,35.788C78.884,35.788 79.134,35.831 79.361,35.916C79.59,36.001 79.786,36.125 79.949,36.288C80.114,36.451 80.242,36.651 80.333,36.888C80.426,37.123 80.473,37.389 80.473,37.688C80.473,37.781 80.469,37.857 80.461,37.916C80.453,37.975 80.438,38.021 80.417,38.056C80.396,38.091 80.366,38.115 80.329,38.128C80.294,38.141 80.249,38.148 80.193,38.148L77.801,38.148ZM82.118,36.3C82.198,36.225 82.28,36.156 82.366,36.092C82.451,36.028 82.542,35.975 82.638,35.932C82.736,35.887 82.842,35.852 82.954,35.828C83.068,35.801 83.192,35.788 83.326,35.788C83.552,35.788 83.752,35.828 83.926,35.908C84.102,35.985 84.25,36.095 84.37,36.236C84.49,36.375 84.58,36.541 84.642,36.736C84.703,36.928 84.734,37.137 84.734,37.364L84.734,40L83.494,40L83.494,37.364C83.494,37.161 83.447,37.004 83.354,36.892C83.26,36.777 83.123,36.72 82.942,36.72C82.806,36.72 82.678,36.749 82.558,36.808C82.44,36.864 82.326,36.941 82.214,37.04L82.214,40L80.974,40L80.974,35.852L81.742,35.852C81.896,35.852 81.998,35.921 82.046,36.06L82.118,36.3ZM87.932,36.964C87.839,36.86 87.737,36.788 87.628,36.748C87.519,36.705 87.404,36.684 87.284,36.684C87.169,36.684 87.064,36.707 86.968,36.752C86.872,36.797 86.788,36.871 86.716,36.972C86.647,37.071 86.592,37.2 86.552,37.36C86.512,37.52 86.492,37.713 86.492,37.94C86.492,38.159 86.508,38.343 86.54,38.492C86.572,38.641 86.616,38.763 86.672,38.856C86.731,38.947 86.8,39.012 86.88,39.052C86.96,39.092 87.049,39.112 87.148,39.112C87.239,39.112 87.32,39.104 87.392,39.088C87.467,39.069 87.535,39.044 87.596,39.012C87.657,38.98 87.715,38.94 87.768,38.892C87.824,38.841 87.879,38.784 87.932,38.72L87.932,36.964ZM89.172,34.012L89.172,40L88.404,40C88.249,40 88.148,39.931 88.1,39.792L88.004,39.476C87.921,39.564 87.835,39.644 87.744,39.716C87.653,39.788 87.555,39.851 87.448,39.904C87.344,39.955 87.231,39.993 87.108,40.02C86.988,40.049 86.857,40.064 86.716,40.064C86.5,40.064 86.3,40.016 86.116,39.92C85.932,39.824 85.773,39.685 85.64,39.504C85.507,39.323 85.401,39.101 85.324,38.84C85.249,38.576 85.212,38.276 85.212,37.94C85.212,37.631 85.255,37.344 85.34,37.08C85.425,36.813 85.545,36.584 85.7,36.392C85.857,36.197 86.045,36.045 86.264,35.936C86.483,35.827 86.724,35.772 86.988,35.772C87.204,35.772 87.385,35.803 87.532,35.864C87.679,35.925 87.812,36.008 87.932,36.112L87.932,34.012L89.172,34.012ZM93.105,37.416C92.959,37.539 92.855,37.671 92.793,37.812C92.732,37.951 92.701,38.099 92.701,38.256C92.701,38.384 92.72,38.5 92.757,38.604C92.797,38.708 92.853,38.797 92.925,38.872C92.997,38.947 93.083,39.005 93.181,39.048C93.283,39.088 93.395,39.108 93.517,39.108C93.696,39.108 93.863,39.085 94.017,39.04C94.172,38.992 94.316,38.925 94.449,38.84L93.105,37.416ZM97.093,40L95.869,40C95.808,40 95.753,39.997 95.705,39.992C95.657,39.984 95.612,39.972 95.569,39.956C95.529,39.94 95.491,39.917 95.453,39.888C95.416,39.859 95.376,39.821 95.333,39.776L95.081,39.512C94.828,39.688 94.551,39.824 94.249,39.92C93.951,40.016 93.632,40.064 93.293,40.064C93.061,40.064 92.833,40.024 92.609,39.944C92.388,39.864 92.191,39.751 92.017,39.604C91.844,39.455 91.704,39.275 91.597,39.064C91.491,38.853 91.437,38.617 91.437,38.356C91.437,38.18 91.464,38.013 91.517,37.856C91.573,37.699 91.651,37.553 91.749,37.42C91.851,37.284 91.969,37.161 92.105,37.052C92.241,36.94 92.392,36.843 92.557,36.76C92.429,36.565 92.337,36.375 92.281,36.188C92.225,36.001 92.197,35.82 92.197,35.644C92.197,35.436 92.235,35.24 92.309,35.056C92.387,34.869 92.497,34.707 92.641,34.568C92.788,34.427 92.967,34.315 93.177,34.232C93.391,34.149 93.635,34.108 93.909,34.108C94.168,34.108 94.396,34.147 94.593,34.224C94.791,34.299 94.957,34.399 95.093,34.524C95.229,34.647 95.336,34.789 95.413,34.952C95.491,35.115 95.539,35.281 95.557,35.452L94.757,35.612C94.616,35.644 94.512,35.588 94.445,35.444C94.384,35.305 94.312,35.2 94.229,35.128C94.149,35.056 94.043,35.02 93.909,35.02C93.816,35.02 93.735,35.037 93.665,35.072C93.596,35.107 93.537,35.152 93.489,35.208C93.444,35.264 93.409,35.329 93.385,35.404C93.361,35.479 93.349,35.556 93.349,35.636C93.349,35.705 93.355,35.772 93.365,35.836C93.379,35.897 93.4,35.961 93.429,36.028C93.459,36.092 93.497,36.159 93.545,36.228C93.596,36.297 93.659,36.373 93.733,36.456L95.173,37.972C95.245,37.815 95.304,37.649 95.349,37.476C95.395,37.3 95.424,37.12 95.437,36.936C95.445,36.861 95.471,36.803 95.513,36.76C95.556,36.717 95.613,36.696 95.685,36.696L96.469,36.696C96.469,37.083 96.417,37.445 96.313,37.784C96.209,38.123 96.063,38.432 95.873,38.712L97.093,40ZM76.504,44.98L78.576,44.98L78.576,47.44C78.277,47.659 77.959,47.817 77.62,47.916C77.284,48.015 76.932,48.064 76.564,48.064C76.084,48.064 75.647,47.989 75.252,47.84C74.86,47.688 74.524,47.48 74.244,47.216C73.964,46.949 73.748,46.635 73.596,46.272C73.444,45.907 73.368,45.511 73.368,45.084C73.368,44.649 73.44,44.251 73.584,43.888C73.728,43.523 73.933,43.208 74.2,42.944C74.469,42.68 74.793,42.475 75.172,42.328C75.553,42.181 75.979,42.108 76.448,42.108C76.691,42.108 76.919,42.128 77.132,42.168C77.345,42.208 77.541,42.263 77.72,42.332C77.901,42.401 78.067,42.484 78.216,42.58C78.365,42.676 78.499,42.78 78.616,42.892L78.224,43.488C78.162,43.581 78.083,43.639 77.984,43.66C77.888,43.681 77.784,43.657 77.672,43.588C77.565,43.524 77.464,43.469 77.368,43.424C77.275,43.376 77.179,43.337 77.08,43.308C76.981,43.279 76.877,43.257 76.768,43.244C76.659,43.231 76.536,43.224 76.4,43.224C76.147,43.224 75.919,43.269 75.716,43.36C75.513,43.448 75.34,43.573 75.196,43.736C75.055,43.899 74.945,44.095 74.868,44.324C74.791,44.551 74.752,44.804 74.752,45.084C74.752,45.393 74.795,45.668 74.88,45.908C74.965,46.148 75.085,46.351 75.24,46.516C75.397,46.681 75.584,46.808 75.8,46.896C76.019,46.981 76.26,47.024 76.524,47.024C76.687,47.024 76.833,47.008 76.964,46.976C77.097,46.944 77.227,46.901 77.352,46.848L77.352,45.964L76.776,45.964C76.691,45.964 76.624,45.941 76.576,45.896C76.528,45.851 76.504,45.793 76.504,45.724L76.504,44.98ZM80.461,42.012L80.461,48L79.221,48L79.221,42.012L80.461,42.012ZM83.091,43.788C83.406,43.788 83.693,43.837 83.951,43.936C84.21,44.035 84.431,44.176 84.615,44.36C84.802,44.544 84.946,44.768 85.047,45.032C85.151,45.293 85.203,45.588 85.203,45.916C85.203,46.247 85.151,46.545 85.047,46.812C84.946,47.076 84.802,47.301 84.615,47.488C84.431,47.672 84.21,47.815 83.951,47.916C83.693,48.015 83.406,48.064 83.091,48.064C82.774,48.064 82.485,48.015 82.223,47.916C81.965,47.815 81.741,47.672 81.551,47.488C81.365,47.301 81.219,47.076 81.115,46.812C81.014,46.545 80.963,46.247 80.963,45.916C80.963,45.588 81.014,45.293 81.115,45.032C81.219,44.768 81.365,44.544 81.551,44.36C81.741,44.176 81.965,44.035 82.223,43.936C82.485,43.837 82.774,43.788 83.091,43.788ZM83.091,47.144C83.377,47.144 83.586,47.044 83.719,46.844C83.855,46.641 83.923,46.335 83.923,45.924C83.923,45.513 83.855,45.208 83.719,45.008C83.586,44.808 83.377,44.708 83.091,44.708C82.798,44.708 82.583,44.808 82.447,45.008C82.311,45.208 82.243,45.513 82.243,45.924C82.243,46.335 82.311,46.641 82.447,46.844C82.583,47.044 82.798,47.144 83.091,47.144ZM86.948,46.872C87.041,46.973 87.142,47.045 87.252,47.088C87.361,47.131 87.472,47.152 87.584,47.152C87.701,47.152 87.809,47.131 87.908,47.088C88.006,47.043 88.09,46.971 88.16,46.872C88.232,46.771 88.288,46.639 88.328,46.476C88.368,46.311 88.388,46.108 88.388,45.868C88.388,45.66 88.372,45.484 88.34,45.34C88.31,45.193 88.265,45.075 88.204,44.984C88.145,44.891 88.07,44.824 87.98,44.784C87.892,44.741 87.79,44.72 87.676,44.72C87.524,44.72 87.392,44.753 87.28,44.82C87.168,44.887 87.057,44.984 86.948,45.112L86.948,46.872ZM86.948,44.292C87.108,44.14 87.282,44.019 87.472,43.928C87.664,43.835 87.877,43.788 88.112,43.788C88.346,43.788 88.56,43.836 88.752,43.932C88.944,44.028 89.108,44.165 89.244,44.344C89.38,44.52 89.484,44.733 89.556,44.984C89.63,45.235 89.668,45.515 89.668,45.824C89.668,46.16 89.625,46.465 89.54,46.74C89.454,47.015 89.333,47.251 89.176,47.448C89.021,47.643 88.836,47.795 88.62,47.904C88.404,48.011 88.165,48.064 87.904,48.064C87.778,48.064 87.666,48.052 87.568,48.028C87.469,48.004 87.378,47.971 87.296,47.928C87.213,47.883 87.137,47.829 87.068,47.768C87.001,47.707 86.936,47.64 86.872,47.568L86.828,47.776C86.806,47.861 86.772,47.92 86.724,47.952C86.676,47.984 86.612,48 86.532,48L85.708,48L85.708,42.012L86.948,42.012L86.948,44.292ZM92.321,46.312C92.073,46.323 91.869,46.344 91.709,46.376C91.549,46.408 91.423,46.448 91.329,46.496C91.236,46.544 91.171,46.599 91.133,46.66C91.099,46.721 91.081,46.788 91.081,46.86C91.081,47.001 91.12,47.101 91.197,47.16C91.275,47.216 91.388,47.244 91.537,47.244C91.697,47.244 91.837,47.216 91.957,47.16C92.077,47.104 92.199,47.013 92.321,46.888L92.321,46.312ZM90.089,44.428C90.34,44.207 90.617,44.043 90.921,43.936C91.228,43.827 91.556,43.772 91.905,43.772C92.156,43.772 92.381,43.813 92.581,43.896C92.784,43.976 92.955,44.089 93.093,44.236C93.235,44.38 93.343,44.552 93.417,44.752C93.492,44.952 93.529,45.171 93.529,45.408L93.529,48L92.961,48C92.844,48 92.755,47.984 92.693,47.952C92.635,47.92 92.585,47.853 92.545,47.752L92.457,47.524C92.353,47.612 92.253,47.689 92.157,47.756C92.061,47.823 91.961,47.88 91.857,47.928C91.756,47.973 91.647,48.007 91.529,48.028C91.415,48.052 91.287,48.064 91.145,48.064C90.956,48.064 90.784,48.04 90.629,47.992C90.475,47.941 90.343,47.868 90.233,47.772C90.127,47.676 90.044,47.557 89.985,47.416C89.927,47.272 89.897,47.107 89.897,46.92C89.897,46.771 89.935,46.62 90.009,46.468C90.084,46.313 90.213,46.173 90.397,46.048C90.581,45.92 90.829,45.813 91.141,45.728C91.453,45.643 91.847,45.595 92.321,45.584L92.321,45.408C92.321,45.165 92.271,44.991 92.169,44.884C92.071,44.775 91.929,44.72 91.745,44.72C91.599,44.72 91.479,44.736 91.385,44.768C91.292,44.8 91.208,44.836 91.133,44.876C91.061,44.916 90.991,44.952 90.921,44.984C90.852,45.016 90.769,45.032 90.673,45.032C90.588,45.032 90.516,45.011 90.457,44.968C90.399,44.925 90.351,44.875 90.313,44.816L90.089,44.428ZM95.442,42.012L95.442,48L94.202,48L94.202,42.012L95.442,42.012Z" style="fill:rgb(100,100,100);fill-rule:nonzero;"/>
    </g>
    <g transform="matrix(0.666667,0,0,0.666667,0,0)">
        <rect x="100.5" y="29" width="1" height="23" style="fill:rgb(100,100,100);"/>
    </g>
    <g transform="matrix(1.002,0,0,1.002,-39.4823,-13.7508)">
        <path d="M116.842,41.772L116.302,40.176C116.262,40.075 116.219,39.956 116.174,39.82C116.129,39.681 116.083,39.532 116.038,39.372C115.998,39.535 115.955,39.685 115.91,39.824C115.865,39.963 115.822,40.083 115.782,40.184L115.246,41.772L116.842,41.772ZM118.99,44L117.942,44C117.825,44 117.73,43.973 117.658,43.92C117.586,43.864 117.531,43.793 117.494,43.708L117.15,42.692L114.934,42.692L114.59,43.708C114.561,43.783 114.507,43.851 114.43,43.912C114.355,43.971 114.262,44 114.15,44L113.094,44L115.35,38.172L116.734,38.172L118.99,44ZM120.426,38.012L120.426,44L119.186,44L119.186,38.012L120.426,38.012ZM122.384,38.012L122.384,44L121.144,44L121.144,38.012L122.384,38.012Z" style="fill:rgb(100,100,100);fill-rule:nonzero;"/>
    </g>
    <g transform="matrix(1.15132,0,0,1.15132,-8.53928,-32.9678)">
        <path d="M17.821,68.084C17.821,68.505 17.747,68.897 17.601,69.26C17.457,69.623 17.253,69.939 16.989,70.208C16.725,70.475 16.406,70.684 16.033,70.836C15.662,70.988 15.25,71.064 14.797,71.064C14.343,71.064 13.93,70.988 13.557,70.836C13.183,70.684 12.863,70.475 12.597,70.208C12.333,69.939 12.127,69.623 11.981,69.26C11.837,68.897 11.765,68.505 11.765,68.084C11.765,67.663 11.837,67.271 11.981,66.908C12.127,66.545 12.333,66.231 12.597,65.964C12.863,65.697 13.183,65.488 13.557,65.336C13.93,65.184 14.343,65.108 14.797,65.108C15.25,65.108 15.662,65.185 16.033,65.34C16.406,65.492 16.725,65.701 16.989,65.968C17.253,66.235 17.457,66.549 17.601,66.912C17.747,67.275 17.821,67.665 17.821,68.084ZM16.437,68.084C16.437,67.796 16.399,67.537 16.325,67.308C16.25,67.076 16.142,66.88 16.001,66.72C15.862,66.56 15.691,66.437 15.489,66.352C15.286,66.267 15.055,66.224 14.797,66.224C14.535,66.224 14.302,66.267 14.097,66.352C13.894,66.437 13.722,66.56 13.581,66.72C13.442,66.88 13.335,67.076 13.261,67.308C13.186,67.537 13.149,67.796 13.149,68.084C13.149,68.375 13.186,68.636 13.261,68.868C13.335,69.097 13.442,69.292 13.581,69.452C13.722,69.612 13.894,69.735 14.097,69.82C14.302,69.903 14.535,69.944 14.797,69.944C15.055,69.944 15.286,69.903 15.489,69.82C15.691,69.735 15.862,69.612 16.001,69.452C16.142,69.292 16.25,69.097 16.325,68.868C16.399,68.636 16.437,68.375 16.437,68.084ZM18.606,71L18.606,67.704L18.334,67.648C18.24,67.627 18.164,67.593 18.106,67.548C18.049,67.503 18.022,67.436 18.022,67.348L18.022,66.86L18.606,66.86L18.606,66.704C18.606,66.467 18.643,66.252 18.718,66.06C18.795,65.865 18.904,65.7 19.046,65.564C19.19,65.428 19.364,65.324 19.57,65.252C19.775,65.177 20.008,65.14 20.27,65.14C20.371,65.14 20.464,65.147 20.549,65.16C20.635,65.171 20.724,65.188 20.818,65.212L20.794,65.816C20.788,65.901 20.752,65.961 20.686,65.996C20.622,66.028 20.555,66.044 20.485,66.044C20.376,66.044 20.279,66.055 20.194,66.076C20.108,66.097 20.036,66.135 19.978,66.188C19.922,66.241 19.879,66.313 19.85,66.404C19.82,66.492 19.805,66.604 19.805,66.74L19.805,66.86L21.262,66.86L21.262,66.548C21.262,66.311 21.299,66.096 21.374,65.904C21.451,65.712 21.56,65.548 21.702,65.412C21.846,65.276 22.02,65.171 22.226,65.096C22.431,65.021 22.664,64.984 22.926,64.984C23.027,64.984 23.12,64.991 23.206,65.004C23.291,65.015 23.38,65.033 23.474,65.06L23.45,65.664C23.447,65.707 23.436,65.743 23.418,65.772C23.399,65.799 23.374,65.821 23.342,65.84C23.312,65.856 23.28,65.868 23.246,65.876C23.211,65.884 23.176,65.888 23.142,65.888C23.032,65.888 22.935,65.899 22.85,65.92C22.764,65.941 22.692,65.98 22.634,66.036C22.578,66.089 22.535,66.161 22.506,66.252C22.476,66.34 22.462,66.452 22.462,66.588L22.462,66.86L23.433,66.86L23.433,67.708L22.502,67.708L22.502,71L21.262,71L21.262,67.708L19.846,67.708L19.846,71L18.606,71Z" style="fill:rgb(100,100,100);fill-rule:nonzero;"/>
    </g>
    <g transform="matrix(0.666667,0,0,0.666667,0,0)">
        <g opacity="0.75">
            <g transform="matrix(-3.82857e-16,-1,1,-3.82857e-16,-45.5,112.5)">
                <rect x="33.5" y="79" width="23" height="1" style="fill:rgb(100,100,100);"/>
            </g>
        </g>
    </g>
    <g transform="matrix(0.991408,0,0,0.991408,-16.5123,-22.0947)">
        <path d="M46.015,66.356C45.975,66.42 45.932,66.468 45.887,66.5C45.844,66.532 45.788,66.548 45.719,66.548C45.657,66.548 45.591,66.529 45.519,66.492C45.449,66.452 45.369,66.408 45.279,66.36C45.191,66.312 45.089,66.269 44.975,66.232C44.86,66.192 44.729,66.172 44.583,66.172C44.329,66.172 44.14,66.227 44.015,66.336C43.892,66.443 43.831,66.588 43.831,66.772C43.831,66.889 43.868,66.987 43.943,67.064C44.017,67.141 44.115,67.208 44.235,67.264C44.357,67.32 44.496,67.372 44.651,67.42C44.808,67.465 44.968,67.517 45.131,67.576C45.293,67.632 45.452,67.699 45.607,67.776C45.764,67.853 45.903,67.952 46.023,68.072C46.145,68.192 46.244,68.339 46.319,68.512C46.393,68.683 46.431,68.889 46.431,69.132C46.431,69.401 46.384,69.653 46.291,69.888C46.197,70.123 46.061,70.328 45.883,70.504C45.707,70.677 45.488,70.815 45.227,70.916C44.968,71.015 44.673,71.064 44.343,71.064C44.161,71.064 43.976,71.045 43.787,71.008C43.6,70.971 43.419,70.919 43.243,70.852C43.067,70.783 42.901,70.701 42.747,70.608C42.592,70.515 42.457,70.411 42.343,70.296L42.743,69.664C42.775,69.619 42.816,69.581 42.867,69.552C42.92,69.52 42.977,69.504 43.039,69.504C43.119,69.504 43.199,69.529 43.279,69.58C43.361,69.631 43.453,69.687 43.555,69.748C43.659,69.809 43.777,69.865 43.911,69.916C44.044,69.967 44.201,69.992 44.383,69.992C44.628,69.992 44.819,69.939 44.955,69.832C45.091,69.723 45.159,69.551 45.159,69.316C45.159,69.18 45.121,69.069 45.047,68.984C44.972,68.899 44.873,68.828 44.751,68.772C44.631,68.716 44.493,68.667 44.339,68.624C44.184,68.581 44.025,68.535 43.863,68.484C43.7,68.431 43.541,68.367 43.387,68.292C43.232,68.215 43.093,68.115 42.971,67.992C42.851,67.867 42.753,67.712 42.679,67.528C42.604,67.341 42.567,67.112 42.567,66.84C42.567,66.621 42.611,66.408 42.699,66.2C42.787,65.992 42.916,65.807 43.087,65.644C43.257,65.481 43.467,65.352 43.715,65.256C43.963,65.157 44.247,65.108 44.567,65.108C44.745,65.108 44.919,65.123 45.087,65.152C45.257,65.179 45.419,65.22 45.571,65.276C45.723,65.329 45.864,65.395 45.995,65.472C46.128,65.547 46.247,65.632 46.351,65.728L46.015,66.356ZM49.541,68.428C49.541,68.329 49.527,68.233 49.501,68.14C49.477,68.047 49.435,67.964 49.377,67.892C49.321,67.817 49.246,67.757 49.153,67.712C49.059,67.667 48.946,67.644 48.813,67.644C48.578,67.644 48.394,67.712 48.261,67.848C48.127,67.981 48.039,68.175 47.997,68.428L49.541,68.428ZM47.981,69.148C48.021,69.495 48.126,69.747 48.297,69.904C48.467,70.059 48.687,70.136 48.957,70.136C49.1,70.136 49.225,70.119 49.329,70.084C49.433,70.049 49.525,70.011 49.605,69.968C49.687,69.925 49.762,69.887 49.829,69.852C49.898,69.817 49.97,69.8 50.045,69.8C50.143,69.8 50.218,69.836 50.269,69.908L50.629,70.352C50.501,70.499 50.362,70.619 50.213,70.712C50.066,70.803 49.914,70.875 49.757,70.928C49.602,70.979 49.446,71.013 49.289,71.032C49.134,71.053 48.986,71.064 48.844,71.064C48.554,71.064 48.281,71.017 48.025,70.924C47.771,70.828 47.548,70.687 47.356,70.5C47.167,70.313 47.017,70.081 46.905,69.804C46.795,69.527 46.74,69.204 46.74,68.836C46.74,68.559 46.787,68.296 46.881,68.048C46.977,67.8 47.112,67.583 47.289,67.396C47.467,67.209 47.682,67.061 47.933,66.952C48.186,66.843 48.471,66.788 48.789,66.788C49.063,66.788 49.314,66.831 49.541,66.916C49.77,67.001 49.966,67.125 50.129,67.288C50.294,67.451 50.422,67.651 50.513,67.888C50.606,68.123 50.653,68.389 50.653,68.688C50.653,68.781 50.649,68.857 50.641,68.916C50.633,68.975 50.618,69.021 50.597,69.056C50.575,69.091 50.546,69.115 50.509,69.128C50.474,69.141 50.429,69.148 50.373,69.148L47.981,69.148ZM52.297,67.3C52.377,67.225 52.46,67.156 52.545,67.092C52.63,67.028 52.721,66.975 52.817,66.932C52.916,66.887 53.021,66.852 53.133,66.828C53.248,66.801 53.372,66.788 53.505,66.788C53.732,66.788 53.932,66.828 54.105,66.908C54.281,66.985 54.429,67.095 54.549,67.236C54.669,67.375 54.76,67.541 54.821,67.736C54.882,67.928 54.913,68.137 54.913,68.364L54.913,71L53.673,71L53.673,68.364C53.673,68.161 53.626,68.004 53.533,67.892C53.44,67.777 53.302,67.72 53.121,67.72C52.985,67.72 52.857,67.749 52.737,67.808C52.62,67.864 52.505,67.941 52.393,68.04L52.393,71L51.153,71L51.153,66.852L51.921,66.852C52.076,66.852 52.177,66.921 52.225,67.06L52.297,67.3ZM58.112,67.964C58.018,67.86 57.917,67.788 57.807,67.748C57.698,67.705 57.584,67.684 57.464,67.684C57.349,67.684 57.243,67.707 57.148,67.752C57.051,67.797 56.968,67.871 56.896,67.972C56.826,68.071 56.772,68.2 56.731,68.36C56.692,68.52 56.672,68.713 56.672,68.94C56.672,69.159 56.688,69.343 56.719,69.492C56.752,69.641 56.795,69.763 56.852,69.856C56.91,69.947 56.98,70.012 57.06,70.052C57.14,70.092 57.229,70.112 57.328,70.112C57.418,70.112 57.5,70.104 57.572,70.088C57.646,70.069 57.714,70.044 57.776,70.012C57.837,69.98 57.894,69.94 57.948,69.892C58.004,69.841 58.058,69.784 58.112,69.72L58.112,67.964ZM59.352,65.012L59.352,71L58.584,71C58.429,71 58.328,70.931 58.28,70.792L58.184,70.476C58.101,70.564 58.014,70.644 57.923,70.716C57.833,70.788 57.734,70.851 57.628,70.904C57.524,70.955 57.41,70.993 57.288,71.02C57.167,71.049 57.037,71.064 56.896,71.064C56.679,71.064 56.48,71.016 56.295,70.92C56.112,70.824 55.953,70.685 55.82,70.504C55.686,70.323 55.581,70.101 55.504,69.84C55.429,69.576 55.392,69.276 55.392,68.94C55.392,68.631 55.434,68.344 55.52,68.08C55.605,67.813 55.725,67.584 55.88,67.392C56.037,67.197 56.225,67.045 56.444,66.936C56.662,66.827 56.904,66.772 57.167,66.772C57.384,66.772 57.565,66.803 57.712,66.864C57.858,66.925 57.992,67.008 58.112,67.112L58.112,65.012L59.352,65.012Z" style="fill:rgb(100,100,100);fill-rule:nonzero;"/>
    </g>
    <g transform="matrix(0.666667,0,0,0.666667,0,0)">
        <g opacity="0.75">
            <g transform="matrix(-3.82857e-16,-1,1,-3.82857e-16,-12,146)">
                <rect x="67" y="79" width="23" height="1" style="fill:rgb(100,100,100);"/>
            </g>
        </g>
    </g>
    <g transform="matrix(0.782807,0,0,0.782807,-9.8287,-7.90194)">
        <path d="M75.835,62.356C75.795,62.42 75.753,62.468 75.707,62.5C75.665,62.532 75.609,62.548 75.539,62.548C75.478,62.548 75.411,62.529 75.339,62.492C75.27,62.452 75.19,62.408 75.099,62.36C75.011,62.312 74.91,62.269 74.795,62.232C74.681,62.192 74.55,62.172 74.403,62.172C74.15,62.172 73.961,62.227 73.835,62.336C73.713,62.443 73.651,62.588 73.651,62.772C73.651,62.889 73.689,62.987 73.763,63.064C73.838,63.141 73.935,63.208 74.055,63.264C74.178,63.32 74.317,63.372 74.471,63.42C74.629,63.465 74.789,63.517 74.951,63.576C75.114,63.632 75.273,63.699 75.427,63.776C75.585,63.853 75.723,63.952 75.843,64.072C75.966,64.192 76.065,64.339 76.139,64.512C76.214,64.683 76.251,64.889 76.251,65.132C76.251,65.401 76.205,65.653 76.111,65.888C76.018,66.123 75.882,66.328 75.703,66.504C75.527,66.677 75.309,66.815 75.047,66.916C74.789,67.015 74.494,67.064 74.163,67.064C73.982,67.064 73.797,67.045 73.607,67.008C73.421,66.971 73.239,66.919 73.063,66.852C72.887,66.783 72.722,66.701 72.567,66.608C72.413,66.515 72.278,66.411 72.163,66.296L72.563,65.664C72.595,65.619 72.637,65.581 72.687,65.552C72.741,65.52 72.798,65.504 72.859,65.504C72.939,65.504 73.019,65.529 73.099,65.58C73.182,65.631 73.274,65.687 73.375,65.748C73.479,65.809 73.598,65.865 73.731,65.916C73.865,65.967 74.022,65.992 74.203,65.992C74.449,65.992 74.639,65.939 74.775,65.832C74.911,65.723 74.979,65.551 74.979,65.316C74.979,65.18 74.942,65.069 74.867,64.984C74.793,64.899 74.694,64.828 74.571,64.772C74.451,64.716 74.314,64.667 74.159,64.624C74.005,64.581 73.846,64.535 73.683,64.484C73.521,64.431 73.362,64.367 73.207,64.292C73.053,64.215 72.914,64.115 72.791,63.992C72.671,63.867 72.574,63.712 72.499,63.528C72.425,63.341 72.387,63.112 72.387,62.84C72.387,62.621 72.431,62.408 72.519,62.2C72.607,61.992 72.737,61.807 72.907,61.644C73.078,61.481 73.287,61.352 73.535,61.256C73.783,61.157 74.067,61.108 74.387,61.108C74.566,61.108 74.739,61.123 74.907,61.152C75.078,61.179 75.239,61.22 75.391,61.276C75.543,61.329 75.685,61.395 75.815,61.472C75.949,61.547 76.067,61.632 76.171,61.728L75.835,62.356ZM79.361,64.428C79.361,64.329 79.348,64.233 79.321,64.14C79.297,64.047 79.256,63.964 79.197,63.892C79.141,63.817 79.066,63.757 78.973,63.712C78.88,63.667 78.766,63.644 78.633,63.644C78.398,63.644 78.214,63.712 78.081,63.848C77.948,63.981 77.86,64.175 77.817,64.428L79.361,64.428ZM77.801,65.148C77.841,65.495 77.946,65.747 78.117,65.904C78.288,66.059 78.508,66.136 78.777,66.136C78.921,66.136 79.045,66.119 79.149,66.084C79.253,66.049 79.345,66.011 79.425,65.968C79.508,65.925 79.582,65.887 79.649,65.852C79.718,65.817 79.79,65.8 79.865,65.8C79.964,65.8 80.038,65.836 80.089,65.908L80.449,66.352C80.321,66.499 80.182,66.619 80.033,66.712C79.886,66.803 79.734,66.875 79.577,66.928C79.422,66.979 79.266,67.013 79.109,67.032C78.954,67.053 78.806,67.064 78.665,67.064C78.374,67.064 78.101,67.017 77.845,66.924C77.592,66.828 77.369,66.687 77.177,66.5C76.988,66.313 76.837,66.081 76.725,65.804C76.616,65.527 76.561,65.204 76.561,64.836C76.561,64.559 76.608,64.296 76.701,64.048C76.797,63.8 76.933,63.583 77.109,63.396C77.288,63.209 77.502,63.061 77.753,62.952C78.006,62.843 78.292,62.788 78.609,62.788C78.884,62.788 79.134,62.831 79.361,62.916C79.59,63.001 79.786,63.125 79.949,63.288C80.114,63.451 80.242,63.651 80.333,63.888C80.426,64.123 80.473,64.389 80.473,64.688C80.473,64.781 80.469,64.857 80.461,64.916C80.453,64.975 80.438,65.021 80.417,65.056C80.396,65.091 80.366,65.115 80.329,65.128C80.294,65.141 80.249,65.148 80.193,65.148L77.801,65.148ZM82.118,63.3C82.198,63.225 82.28,63.156 82.366,63.092C82.451,63.028 82.542,62.975 82.638,62.932C82.736,62.887 82.842,62.852 82.954,62.828C83.068,62.801 83.192,62.788 83.326,62.788C83.552,62.788 83.752,62.828 83.926,62.908C84.102,62.985 84.25,63.095 84.37,63.236C84.49,63.375 84.58,63.541 84.642,63.736C84.703,63.928 84.734,64.137 84.734,64.364L84.734,67L83.494,67L83.494,64.364C83.494,64.161 83.447,64.004 83.354,63.892C83.26,63.777 83.123,63.72 82.942,63.72C82.806,63.72 82.678,63.749 82.558,63.808C82.44,63.864 82.326,63.941 82.214,64.04L82.214,67L80.974,67L80.974,62.852L81.742,62.852C81.896,62.852 81.998,62.921 82.046,63.06L82.118,63.3ZM87.932,63.964C87.839,63.86 87.737,63.788 87.628,63.748C87.519,63.705 87.404,63.684 87.284,63.684C87.169,63.684 87.064,63.707 86.968,63.752C86.872,63.797 86.788,63.871 86.716,63.972C86.647,64.071 86.592,64.2 86.552,64.36C86.512,64.52 86.492,64.713 86.492,64.94C86.492,65.159 86.508,65.343 86.54,65.492C86.572,65.641 86.616,65.763 86.672,65.856C86.731,65.947 86.8,66.012 86.88,66.052C86.96,66.092 87.049,66.112 87.148,66.112C87.239,66.112 87.32,66.104 87.392,66.088C87.467,66.069 87.535,66.044 87.596,66.012C87.657,65.98 87.715,65.94 87.768,65.892C87.824,65.841 87.879,65.784 87.932,65.72L87.932,63.964ZM89.172,61.012L89.172,67L88.404,67C88.249,67 88.148,66.931 88.1,66.792L88.004,66.476C87.921,66.564 87.835,66.644 87.744,66.716C87.653,66.788 87.555,66.851 87.448,66.904C87.344,66.955 87.231,66.993 87.108,67.02C86.988,67.049 86.857,67.064 86.716,67.064C86.5,67.064 86.3,67.016 86.116,66.92C85.932,66.824 85.773,66.685 85.64,66.504C85.507,66.323 85.401,66.101 85.324,65.84C85.249,65.576 85.212,65.276 85.212,64.94C85.212,64.631 85.255,64.344 85.34,64.08C85.425,63.813 85.545,63.584 85.7,63.392C85.857,63.197 86.045,63.045 86.264,62.936C86.483,62.827 86.724,62.772 86.988,62.772C87.204,62.772 87.385,62.803 87.532,62.864C87.679,62.925 87.812,63.008 87.932,63.112L87.932,61.012L89.172,61.012ZM93.105,64.416C92.959,64.539 92.855,64.671 92.793,64.812C92.732,64.951 92.701,65.099 92.701,65.256C92.701,65.384 92.72,65.5 92.757,65.604C92.797,65.708 92.853,65.797 92.925,65.872C92.997,65.947 93.083,66.005 93.181,66.048C93.283,66.088 93.395,66.108 93.517,66.108C93.696,66.108 93.863,66.085 94.017,66.04C94.172,65.992 94.316,65.925 94.449,65.84L93.105,64.416ZM97.093,67L95.869,67C95.808,67 95.753,66.997 95.705,66.992C95.657,66.984 95.612,66.972 95.569,66.956C95.529,66.94 95.491,66.917 95.453,66.888C95.416,66.859 95.376,66.821 95.333,66.776L95.081,66.512C94.828,66.688 94.551,66.824 94.249,66.92C93.951,67.016 93.632,67.064 93.293,67.064C93.061,67.064 92.833,67.024 92.609,66.944C92.388,66.864 92.191,66.751 92.017,66.604C91.844,66.455 91.704,66.275 91.597,66.064C91.491,65.853 91.437,65.617 91.437,65.356C91.437,65.18 91.464,65.013 91.517,64.856C91.573,64.699 91.651,64.553 91.749,64.42C91.851,64.284 91.969,64.161 92.105,64.052C92.241,63.94 92.392,63.843 92.557,63.76C92.429,63.565 92.337,63.375 92.281,63.188C92.225,63.001 92.197,62.82 92.197,62.644C92.197,62.436 92.235,62.24 92.309,62.056C92.387,61.869 92.497,61.707 92.641,61.568C92.788,61.427 92.967,61.315 93.177,61.232C93.391,61.149 93.635,61.108 93.909,61.108C94.168,61.108 94.396,61.147 94.593,61.224C94.791,61.299 94.957,61.399 95.093,61.524C95.229,61.647 95.336,61.789 95.413,61.952C95.491,62.115 95.539,62.281 95.557,62.452L94.757,62.612C94.616,62.644 94.512,62.588 94.445,62.444C94.384,62.305 94.312,62.2 94.229,62.128C94.149,62.056 94.043,62.02 93.909,62.02C93.816,62.02 93.735,62.037 93.665,62.072C93.596,62.107 93.537,62.152 93.489,62.208C93.444,62.264 93.409,62.329 93.385,62.404C93.361,62.479 93.349,62.556 93.349,62.636C93.349,62.705 93.355,62.772 93.365,62.836C93.379,62.897 93.4,62.961 93.429,63.028C93.459,63.092 93.497,63.159 93.545,63.228C93.596,63.297 93.659,63.373 93.733,63.456L95.173,64.972C95.245,64.815 95.304,64.649 95.349,64.476C95.395,64.3 95.424,64.12 95.437,63.936C95.445,63.861 95.471,63.803 95.513,63.76C95.556,63.717 95.613,63.696 95.685,63.696L96.469,63.696C96.469,64.083 96.417,64.445 96.313,64.784C96.209,65.123 96.063,65.432 95.873,65.712L97.093,67ZM76.504,71.98L78.576,71.98L78.576,74.44C78.277,74.659 77.959,74.817 77.62,74.916C77.284,75.015 76.932,75.064 76.564,75.064C76.084,75.064 75.647,74.989 75.252,74.84C74.86,74.688 74.524,74.48 74.244,74.216C73.964,73.949 73.748,73.635 73.596,73.272C73.444,72.907 73.368,72.511 73.368,72.084C73.368,71.649 73.44,71.251 73.584,70.888C73.728,70.523 73.933,70.208 74.2,69.944C74.469,69.68 74.793,69.475 75.172,69.328C75.553,69.181 75.979,69.108 76.448,69.108C76.691,69.108 76.919,69.128 77.132,69.168C77.345,69.208 77.541,69.263 77.72,69.332C77.901,69.401 78.067,69.484 78.216,69.58C78.365,69.676 78.499,69.78 78.616,69.892L78.224,70.488C78.162,70.581 78.083,70.639 77.984,70.66C77.888,70.681 77.784,70.657 77.672,70.588C77.565,70.524 77.464,70.469 77.368,70.424C77.275,70.376 77.179,70.337 77.08,70.308C76.981,70.279 76.877,70.257 76.768,70.244C76.659,70.231 76.536,70.224 76.4,70.224C76.147,70.224 75.919,70.269 75.716,70.36C75.513,70.448 75.34,70.573 75.196,70.736C75.055,70.899 74.945,71.095 74.868,71.324C74.791,71.551 74.752,71.804 74.752,72.084C74.752,72.393 74.795,72.668 74.88,72.908C74.965,73.148 75.085,73.351 75.24,73.516C75.397,73.681 75.584,73.808 75.8,73.896C76.019,73.981 76.26,74.024 76.524,74.024C76.687,74.024 76.833,74.008 76.964,73.976C77.097,73.944 77.227,73.901 77.352,73.848L77.352,72.964L76.776,72.964C76.691,72.964 76.624,72.941 76.576,72.896C76.528,72.851 76.504,72.793 76.504,72.724L76.504,71.98ZM80.461,69.012L80.461,75L79.221,75L79.221,69.012L80.461,69.012ZM83.091,70.788C83.406,70.788 83.693,70.837 83.951,70.936C84.21,71.035 84.431,71.176 84.615,71.36C84.802,71.544 84.946,71.768 85.047,72.032C85.151,72.293 85.203,72.588 85.203,72.916C85.203,73.247 85.151,73.545 85.047,73.812C84.946,74.076 84.802,74.301 84.615,74.488C84.431,74.672 84.21,74.815 83.951,74.916C83.693,75.015 83.406,75.064 83.091,75.064C82.774,75.064 82.485,75.015 82.223,74.916C81.965,74.815 81.741,74.672 81.551,74.488C81.365,74.301 81.219,74.076 81.115,73.812C81.014,73.545 80.963,73.247 80.963,72.916C80.963,72.588 81.014,72.293 81.115,72.032C81.219,71.768 81.365,71.544 81.551,71.36C81.741,71.176 81.965,71.035 82.223,70.936C82.485,70.837 82.774,70.788 83.091,70.788ZM83.091,74.144C83.377,74.144 83.586,74.044 83.719,73.844C83.855,73.641 83.923,73.335 83.923,72.924C83.923,72.513 83.855,72.208 83.719,72.008C83.586,71.808 83.377,71.708 83.091,71.708C82.798,71.708 82.583,71.808 82.447,72.008C82.311,72.208 82.243,72.513 82.243,72.924C82.243,73.335 82.311,73.641 82.447,73.844C82.583,74.044 82.798,74.144 83.091,74.144ZM86.948,73.872C87.041,73.973 87.142,74.045 87.252,74.088C87.361,74.131 87.472,74.152 87.584,74.152C87.701,74.152 87.809,74.131 87.908,74.088C88.006,74.043 88.09,73.971 88.16,73.872C88.232,73.771 88.288,73.639 88.328,73.476C88.368,73.311 88.388,73.108 88.388,72.868C88.388,72.66 88.372,72.484 88.34,72.34C88.31,72.193 88.265,72.075 88.204,71.984C88.145,71.891 88.07,71.824 87.98,71.784C87.892,71.741 87.79,71.72 87.676,71.72C87.524,71.72 87.392,71.753 87.28,71.82C87.168,71.887 87.057,71.984 86.948,72.112L86.948,73.872ZM86.948,71.292C87.108,71.14 87.282,71.019 87.472,70.928C87.664,70.835 87.877,70.788 88.112,70.788C88.346,70.788 88.56,70.836 88.752,70.932C88.944,71.028 89.108,71.165 89.244,71.344C89.38,71.52 89.484,71.733 89.556,71.984C89.63,72.235 89.668,72.515 89.668,72.824C89.668,73.16 89.625,73.465 89.54,73.74C89.454,74.015 89.333,74.251 89.176,74.448C89.021,74.643 88.836,74.795 88.62,74.904C88.404,75.011 88.165,75.064 87.904,75.064C87.778,75.064 87.666,75.052 87.568,75.028C87.469,75.004 87.378,74.971 87.296,74.928C87.213,74.883 87.137,74.829 87.068,74.768C87.001,74.707 86.936,74.64 86.872,74.568L86.828,74.776C86.806,74.861 86.772,74.92 86.724,74.952C86.676,74.984 86.612,75 86.532,75L85.708,75L85.708,69.012L86.948,69.012L86.948,71.292ZM92.321,73.312C92.073,73.323 91.869,73.344 91.709,73.376C91.549,73.408 91.423,73.448 91.329,73.496C91.236,73.544 91.171,73.599 91.133,73.66C91.099,73.721 91.081,73.788 91.081,73.86C91.081,74.001 91.12,74.101 91.197,74.16C91.275,74.216 91.388,74.244 91.537,74.244C91.697,74.244 91.837,74.216 91.957,74.16C92.077,74.104 92.199,74.013 92.321,73.888L92.321,73.312ZM90.089,71.428C90.34,71.207 90.617,71.043 90.921,70.936C91.228,70.827 91.556,70.772 91.905,70.772C92.156,70.772 92.381,70.813 92.581,70.896C92.784,70.976 92.955,71.089 93.093,71.236C93.235,71.38 93.343,71.552 93.417,71.752C93.492,71.952 93.529,72.171 93.529,72.408L93.529,75L92.961,75C92.844,75 92.755,74.984 92.693,74.952C92.635,74.92 92.585,74.853 92.545,74.752L92.457,74.524C92.353,74.612 92.253,74.689 92.157,74.756C92.061,74.823 91.961,74.88 91.857,74.928C91.756,74.973 91.647,75.007 91.529,75.028C91.415,75.052 91.287,75.064 91.145,75.064C90.956,75.064 90.784,75.04 90.629,74.992C90.475,74.941 90.343,74.868 90.233,74.772C90.127,74.676 90.044,74.557 89.985,74.416C89.927,74.272 89.897,74.107 89.897,73.92C89.897,73.771 89.935,73.62 90.009,73.468C90.084,73.313 90.213,73.173 90.397,73.048C90.581,72.92 90.829,72.813 91.141,72.728C91.453,72.643 91.847,72.595 92.321,72.584L92.321,72.408C92.321,72.165 92.271,71.991 92.169,71.884C92.071,71.775 91.929,71.72 91.745,71.72C91.599,71.72 91.479,71.736 91.385,71.768C91.292,71.8 91.208,71.836 91.133,71.876C91.061,71.916 90.991,71.952 90.921,71.984C90.852,72.016 90.769,72.032 90.673,72.032C90.588,72.032 90.516,72.011 90.457,71.968C90.399,71.925 90.351,71.875 90.313,71.816L90.089,71.428ZM95.442,69.012L95.442,75L94.202,75L94.202,69.012L95.442,69.012Z" style="fill:rgb(79,136,0);fill-rule:nonzero;"/>
    </g>
    <g transform="matrix(0.666667,0,0,0.666667,0,0)">
        <rect x="100.5" y="56" width="1" height="23" style="fill:rgb(100,100,100);"/>
    </g>
    <g transform="matrix(1.002,0,0,1.002,-39.4823,-22.805)">
        <path d="M116.842,68.772L116.302,67.176C116.262,67.075 116.219,66.956 116.174,66.82C116.129,66.681 116.083,66.532 116.038,66.372C115.998,66.535 115.955,66.685 115.91,66.824C115.865,66.963 115.822,67.083 115.782,67.184L115.246,68.772L116.842,68.772ZM118.99,71L117.942,71C117.825,71 117.73,70.973 117.658,70.92C117.586,70.864 117.531,70.793 117.494,70.708L117.15,69.692L114.934,69.692L114.59,70.708C114.561,70.783 114.507,70.851 114.43,70.912C114.355,70.971 114.262,71 114.15,71L113.094,71L115.35,65.172L116.734,65.172L118.99,71ZM120.426,65.012L120.426,71L119.186,71L119.186,65.012L120.426,65.012ZM122.384,65.012L122.384,71L121.144,71L121.144,65.012L122.384,65.012Z" style="fill:rgb(100,100,100);fill-rule:nonzero;"/>
    </g>
    <g transform="matrix(1.15132,0,0,1.15132,-8.53928,-46.0533)">
        <path d="M17.821,95.084C17.821,95.505 17.747,95.897 17.601,96.26C17.457,96.623 17.253,96.939 16.989,97.208C16.725,97.475 16.406,97.684 16.033,97.836C15.662,97.988 15.25,98.064 14.797,98.064C14.343,98.064 13.93,97.988 13.557,97.836C13.183,97.684 12.863,97.475 12.597,97.208C12.333,96.939 12.127,96.623 11.981,96.26C11.837,95.897 11.765,95.505 11.765,95.084C11.765,94.663 11.837,94.271 11.981,93.908C12.127,93.545 12.333,93.231 12.597,92.964C12.863,92.697 13.183,92.488 13.557,92.336C13.93,92.184 14.343,92.108 14.797,92.108C15.25,92.108 15.662,92.185 16.033,92.34C16.406,92.492 16.725,92.701 16.989,92.968C17.253,93.235 17.457,93.549 17.601,93.912C17.747,94.275 17.821,94.665 17.821,95.084ZM16.437,95.084C16.437,94.796 16.399,94.537 16.325,94.308C16.25,94.076 16.142,93.88 16.001,93.72C15.862,93.56 15.691,93.437 15.489,93.352C15.286,93.267 15.055,93.224 14.797,93.224C14.535,93.224 14.302,93.267 14.097,93.352C13.894,93.437 13.722,93.56 13.581,93.72C13.442,93.88 13.335,94.076 13.261,94.308C13.186,94.537 13.149,94.796 13.149,95.084C13.149,95.375 13.186,95.636 13.261,95.868C13.335,96.097 13.442,96.292 13.581,96.452C13.722,96.612 13.894,96.735 14.097,96.82C14.302,96.903 14.535,96.944 14.797,96.944C15.055,96.944 15.286,96.903 15.489,96.82C15.691,96.735 15.862,96.612 16.001,96.452C16.142,96.292 16.25,96.097 16.325,95.868C16.399,95.636 16.437,95.375 16.437,95.084ZM18.606,98L18.606,94.704L18.334,94.648C18.24,94.627 18.164,94.593 18.106,94.548C18.049,94.503 18.022,94.436 18.022,94.348L18.022,93.86L18.606,93.86L18.606,93.704C18.606,93.467 18.643,93.252 18.718,93.06C18.795,92.865 18.904,92.7 19.046,92.564C19.19,92.428 19.364,92.324 19.57,92.252C19.775,92.177 20.008,92.14 20.27,92.14C20.371,92.14 20.464,92.147 20.549,92.16C20.635,92.171 20.724,92.188 20.818,92.212L20.794,92.816C20.788,92.901 20.752,92.961 20.686,92.996C20.622,93.028 20.555,93.044 20.485,93.044C20.376,93.044 20.279,93.055 20.194,93.076C20.108,93.097 20.036,93.135 19.978,93.188C19.922,93.241 19.879,93.313 19.85,93.404C19.82,93.492 19.805,93.604 19.805,93.74L19.805,93.86L21.262,93.86L21.262,93.548C21.262,93.311 21.299,93.096 21.374,92.904C21.451,92.712 21.56,92.548 21.702,92.412C21.846,92.276 22.02,92.171 22.226,92.096C22.431,92.021 22.664,91.984 22.926,91.984C23.027,91.984 23.12,91.991 23.206,92.004C23.291,92.015 23.38,92.033 23.474,92.06L23.45,92.664C23.447,92.707 23.436,92.743 23.418,92.772C23.399,92.799 23.374,92.821 23.342,92.84C23.312,92.856 23.28,92.868 23.246,92.876C23.211,92.884 23.176,92.888 23.142,92.888C23.032,92.888 22.935,92.899 22.85,92.92C22.764,92.941 22.692,92.98 22.634,93.036C22.578,93.089 22.535,93.161 22.506,93.252C22.476,93.34 22.462,93.452 22.462,93.588L22.462,93.86L23.433,93.86L23.433,94.708L22.502,94.708L22.502,98L21.262,98L21.262,94.708L19.846,94.708L19.846,98L18.606,98Z" style="fill:rgb(100,100,100);fill-rule:nonzero;"/>
    </g>
    <g transform="matrix(0.666667,0,0,0.666667,0,0)">
        <g opacity="0.75">
            <g transform="matrix(-3.82857e-16,-1,1,-3.82857e-16,-72.5,139.5)">
                <rect x="33.5" y="106" width="23" height="1" style="fill:rgb(100,100,100);"/>
            </g>
        </g>
    </g>
    <g transform="matrix(0.991408,0,0,0.991408,-16.5123,-30.8627)">
        <path d="M46.015,93.356C45.975,93.42 45.932,93.468 45.887,93.5C45.844,93.532 45.788,93.548 45.719,93.548C45.657,93.548 45.591,93.529 45.519,93.492C45.449,93.452 45.369,93.408 45.279,93.36C45.191,93.312 45.089,93.269 44.975,93.232C44.86,93.192 44.729,93.172 44.583,93.172C44.329,93.172 44.14,93.227 44.015,93.336C43.892,93.443 43.831,93.588 43.831,93.772C43.831,93.889 43.868,93.987 43.943,94.064C44.017,94.141 44.115,94.208 44.235,94.264C44.357,94.32 44.496,94.372 44.651,94.42C44.808,94.465 44.968,94.517 45.131,94.576C45.293,94.632 45.452,94.699 45.607,94.776C45.764,94.853 45.903,94.952 46.023,95.072C46.145,95.192 46.244,95.339 46.319,95.512C46.393,95.683 46.431,95.889 46.431,96.132C46.431,96.401 46.384,96.653 46.291,96.888C46.197,97.123 46.061,97.328 45.883,97.504C45.707,97.677 45.488,97.815 45.227,97.916C44.968,98.015 44.673,98.064 44.343,98.064C44.161,98.064 43.976,98.045 43.787,98.008C43.6,97.971 43.419,97.919 43.243,97.852C43.067,97.783 42.901,97.701 42.747,97.608C42.592,97.515 42.457,97.411 42.343,97.296L42.743,96.664C42.775,96.619 42.816,96.581 42.867,96.552C42.92,96.52 42.977,96.504 43.039,96.504C43.119,96.504 43.199,96.529 43.279,96.58C43.361,96.631 43.453,96.687 43.555,96.748C43.659,96.809 43.777,96.865 43.911,96.916C44.044,96.967 44.201,96.992 44.383,96.992C44.628,96.992 44.819,96.939 44.955,96.832C45.091,96.723 45.159,96.551 45.159,96.316C45.159,96.18 45.121,96.069 45.047,95.984C44.972,95.899 44.873,95.828 44.751,95.772C44.631,95.716 44.493,95.667 44.339,95.624C44.184,95.581 44.025,95.535 43.863,95.484C43.7,95.431 43.541,95.367 43.387,95.292C43.232,95.215 43.093,95.115 42.971,94.992C42.851,94.867 42.753,94.712 42.679,94.528C42.604,94.341 42.567,94.112 42.567,93.84C42.567,93.621 42.611,93.408 42.699,93.2C42.787,92.992 42.916,92.807 43.087,92.644C43.257,92.481 43.467,92.352 43.715,92.256C43.963,92.157 44.247,92.108 44.567,92.108C44.745,92.108 44.919,92.123 45.087,92.152C45.257,92.179 45.419,92.22 45.571,92.276C45.723,92.329 45.864,92.395 45.995,92.472C46.128,92.547 46.247,92.632 46.351,92.728L46.015,93.356ZM49.541,95.428C49.541,95.329 49.527,95.233 49.501,95.14C49.477,95.047 49.435,94.964 49.377,94.892C49.321,94.817 49.246,94.757 49.153,94.712C49.059,94.667 48.946,94.644 48.813,94.644C48.578,94.644 48.394,94.712 48.261,94.848C48.127,94.981 48.039,95.175 47.997,95.428L49.541,95.428ZM47.981,96.148C48.021,96.495 48.126,96.747 48.297,96.904C48.467,97.059 48.687,97.136 48.957,97.136C49.1,97.136 49.225,97.119 49.329,97.084C49.433,97.049 49.525,97.011 49.605,96.968C49.687,96.925 49.762,96.887 49.829,96.852C49.898,96.817 49.97,96.8 50.045,96.8C50.143,96.8 50.218,96.836 50.269,96.908L50.629,97.352C50.501,97.499 50.362,97.619 50.213,97.712C50.066,97.803 49.914,97.875 49.757,97.928C49.602,97.979 49.446,98.013 49.289,98.032C49.134,98.053 48.986,98.064 48.844,98.064C48.554,98.064 48.281,98.017 48.025,97.924C47.771,97.828 47.548,97.687 47.356,97.5C47.167,97.313 47.017,97.081 46.905,96.804C46.795,96.527 46.74,96.204 46.74,95.836C46.74,95.559 46.787,95.296 46.881,95.048C46.977,94.8 47.112,94.583 47.289,94.396C47.467,94.209 47.682,94.061 47.933,93.952C48.186,93.843 48.471,93.788 48.789,93.788C49.063,93.788 49.314,93.831 49.541,93.916C49.77,94.001 49.966,94.125 50.129,94.288C50.294,94.451 50.422,94.651 50.513,94.888C50.606,95.123 50.653,95.389 50.653,95.688C50.653,95.781 50.649,95.857 50.641,95.916C50.633,95.975 50.618,96.021 50.597,96.056C50.575,96.091 50.546,96.115 50.509,96.128C50.474,96.141 50.429,96.148 50.373,96.148L47.981,96.148ZM52.297,94.3C52.377,94.225 52.46,94.156 52.545,94.092C52.63,94.028 52.721,93.975 52.817,93.932C52.916,93.887 53.021,93.852 53.133,93.828C53.248,93.801 53.372,93.788 53.505,93.788C53.732,93.788 53.932,93.828 54.105,93.908C54.281,93.985 54.429,94.095 54.549,94.236C54.669,94.375 54.76,94.541 54.821,94.736C54.882,94.928 54.913,95.137 54.913,95.364L54.913,98L53.673,98L53.673,95.364C53.673,95.161 53.626,95.004 53.533,94.892C53.44,94.777 53.302,94.72 53.121,94.72C52.985,94.72 52.857,94.749 52.737,94.808C52.62,94.864 52.505,94.941 52.393,95.04L52.393,98L51.153,98L51.153,93.852L51.921,93.852C52.076,93.852 52.177,93.921 52.225,94.06L52.297,94.3ZM58.112,94.964C58.018,94.86 57.917,94.788 57.807,94.748C57.698,94.705 57.584,94.684 57.464,94.684C57.349,94.684 57.243,94.707 57.148,94.752C57.051,94.797 56.968,94.871 56.896,94.972C56.826,95.071 56.772,95.2 56.731,95.36C56.692,95.52 56.672,95.713 56.672,95.94C56.672,96.159 56.688,96.343 56.719,96.492C56.752,96.641 56.795,96.763 56.852,96.856C56.91,96.947 56.98,97.012 57.06,97.052C57.14,97.092 57.229,97.112 57.328,97.112C57.418,97.112 57.5,97.104 57.572,97.088C57.646,97.069 57.714,97.044 57.776,97.012C57.837,96.98 57.894,96.94 57.948,96.892C58.004,96.841 58.058,96.784 58.112,96.72L58.112,94.964ZM59.352,92.012L59.352,98L58.584,98C58.429,98 58.328,97.931 58.28,97.792L58.184,97.476C58.101,97.564 58.014,97.644 57.923,97.716C57.833,97.788 57.734,97.851 57.628,97.904C57.524,97.955 57.41,97.993 57.288,98.02C57.167,98.049 57.037,98.064 56.896,98.064C56.679,98.064 56.48,98.016 56.295,97.92C56.112,97.824 55.953,97.685 55.82,97.504C55.686,97.323 55.581,97.101 55.504,96.84C55.429,96.576 55.392,96.276 55.392,95.94C55.392,95.631 55.434,95.344 55.52,95.08C55.605,94.813 55.725,94.584 55.88,94.392C56.037,94.197 56.225,94.045 56.444,93.936C56.662,93.827 56.904,93.772 57.167,93.772C57.384,93.772 57.565,93.803 57.712,93.864C57.858,93.925 57.992,94.008 58.112,94.112L58.112,92.012L59.352,92.012Z" style="fill:rgb(100,100,100);fill-rule:nonzero;"/>
    </g>
    <g transform="matrix(0.666667,0,0,0.666667,0,0)">
        <g opacity="0.75">
            <g transform="matrix(-3.82857e-16,-1,1,-3.82857e-16,-39,173)">
                <rect x="67" y="106" width="23" height="1" style="fill:rgb(100,100,100);"/>
            </g>
        </g>
    </g>
    <g transform="matrix(0.782807,0,0,0.782807,-9.8287,-11.0377)">
        <path d="M75.835,89.356C75.795,89.42 75.753,89.468 75.707,89.5C75.665,89.532 75.609,89.548 75.539,89.548C75.478,89.548 75.411,89.529 75.339,89.492C75.27,89.452 75.19,89.408 75.099,89.36C75.011,89.312 74.91,89.269 74.795,89.232C74.681,89.192 74.55,89.172 74.403,89.172C74.15,89.172 73.961,89.227 73.835,89.336C73.713,89.443 73.651,89.588 73.651,89.772C73.651,89.889 73.689,89.987 73.763,90.064C73.838,90.141 73.935,90.208 74.055,90.264C74.178,90.32 74.317,90.372 74.471,90.42C74.629,90.465 74.789,90.517 74.951,90.576C75.114,90.632 75.273,90.699 75.427,90.776C75.585,90.853 75.723,90.952 75.843,91.072C75.966,91.192 76.065,91.339 76.139,91.512C76.214,91.683 76.251,91.889 76.251,92.132C76.251,92.401 76.205,92.653 76.111,92.888C76.018,93.123 75.882,93.328 75.703,93.504C75.527,93.677 75.309,93.815 75.047,93.916C74.789,94.015 74.494,94.064 74.163,94.064C73.982,94.064 73.797,94.045 73.607,94.008C73.421,93.971 73.239,93.919 73.063,93.852C72.887,93.783 72.722,93.701 72.567,93.608C72.413,93.515 72.278,93.411 72.163,93.296L72.563,92.664C72.595,92.619 72.637,92.581 72.687,92.552C72.741,92.52 72.798,92.504 72.859,92.504C72.939,92.504 73.019,92.529 73.099,92.58C73.182,92.631 73.274,92.687 73.375,92.748C73.479,92.809 73.598,92.865 73.731,92.916C73.865,92.967 74.022,92.992 74.203,92.992C74.449,92.992 74.639,92.939 74.775,92.832C74.911,92.723 74.979,92.551 74.979,92.316C74.979,92.18 74.942,92.069 74.867,91.984C74.793,91.899 74.694,91.828 74.571,91.772C74.451,91.716 74.314,91.667 74.159,91.624C74.005,91.581 73.846,91.535 73.683,91.484C73.521,91.431 73.362,91.367 73.207,91.292C73.053,91.215 72.914,91.115 72.791,90.992C72.671,90.867 72.574,90.712 72.499,90.528C72.425,90.341 72.387,90.112 72.387,89.84C72.387,89.621 72.431,89.408 72.519,89.2C72.607,88.992 72.737,88.807 72.907,88.644C73.078,88.481 73.287,88.352 73.535,88.256C73.783,88.157 74.067,88.108 74.387,88.108C74.566,88.108 74.739,88.123 74.907,88.152C75.078,88.179 75.239,88.22 75.391,88.276C75.543,88.329 75.685,88.395 75.815,88.472C75.949,88.547 76.067,88.632 76.171,88.728L75.835,89.356ZM79.361,91.428C79.361,91.329 79.348,91.233 79.321,91.14C79.297,91.047 79.256,90.964 79.197,90.892C79.141,90.817 79.066,90.757 78.973,90.712C78.88,90.667 78.766,90.644 78.633,90.644C78.398,90.644 78.214,90.712 78.081,90.848C77.948,90.981 77.86,91.175 77.817,91.428L79.361,91.428ZM77.801,92.148C77.841,92.495 77.946,92.747 78.117,92.904C78.288,93.059 78.508,93.136 78.777,93.136C78.921,93.136 79.045,93.119 79.149,93.084C79.253,93.049 79.345,93.011 79.425,92.968C79.508,92.925 79.582,92.887 79.649,92.852C79.718,92.817 79.79,92.8 79.865,92.8C79.964,92.8 80.038,92.836 80.089,92.908L80.449,93.352C80.321,93.499 80.182,93.619 80.033,93.712C79.886,93.803 79.734,93.875 79.577,93.928C79.422,93.979 79.266,94.013 79.109,94.032C78.954,94.053 78.806,94.064 78.665,94.064C78.374,94.064 78.101,94.017 77.845,93.924C77.592,93.828 77.369,93.687 77.177,93.5C76.988,93.313 76.837,93.081 76.725,92.804C76.616,92.527 76.561,92.204 76.561,91.836C76.561,91.559 76.608,91.296 76.701,91.048C76.797,90.8 76.933,90.583 77.109,90.396C77.288,90.209 77.502,90.061 77.753,89.952C78.006,89.843 78.292,89.788 78.609,89.788C78.884,89.788 79.134,89.831 79.361,89.916C79.59,90.001 79.786,90.125 79.949,90.288C80.114,90.451 80.242,90.651 80.333,90.888C80.426,91.123 80.473,91.389 80.473,91.688C80.473,91.781 80.469,91.857 80.461,91.916C80.453,91.975 80.438,92.021 80.417,92.056C80.396,92.091 80.366,92.115 80.329,92.128C80.294,92.141 80.249,92.148 80.193,92.148L77.801,92.148ZM82.118,90.3C82.198,90.225 82.28,90.156 82.366,90.092C82.451,90.028 82.542,89.975 82.638,89.932C82.736,89.887 82.842,89.852 82.954,89.828C83.068,89.801 83.192,89.788 83.326,89.788C83.552,89.788 83.752,89.828 83.926,89.908C84.102,89.985 84.25,90.095 84.37,90.236C84.49,90.375 84.58,90.541 84.642,90.736C84.703,90.928 84.734,91.137 84.734,91.364L84.734,94L83.494,94L83.494,91.364C83.494,91.161 83.447,91.004 83.354,90.892C83.26,90.777 83.123,90.72 82.942,90.72C82.806,90.72 82.678,90.749 82.558,90.808C82.44,90.864 82.326,90.941 82.214,91.04L82.214,94L80.974,94L80.974,89.852L81.742,89.852C81.896,89.852 81.998,89.921 82.046,90.06L82.118,90.3ZM87.932,90.964C87.839,90.86 87.737,90.788 87.628,90.748C87.519,90.705 87.404,90.684 87.284,90.684C87.169,90.684 87.064,90.707 86.968,90.752C86.872,90.797 86.788,90.871 86.716,90.972C86.647,91.071 86.592,91.2 86.552,91.36C86.512,91.52 86.492,91.713 86.492,91.94C86.492,92.159 86.508,92.343 86.54,92.492C86.572,92.641 86.616,92.763 86.672,92.856C86.731,92.947 86.8,93.012 86.88,93.052C86.96,93.092 87.049,93.112 87.148,93.112C87.239,93.112 87.32,93.104 87.392,93.088C87.467,93.069 87.535,93.044 87.596,93.012C87.657,92.98 87.715,92.94 87.768,92.892C87.824,92.841 87.879,92.784 87.932,92.72L87.932,90.964ZM89.172,88.012L89.172,94L88.404,94C88.249,94 88.148,93.931 88.1,93.792L88.004,93.476C87.921,93.564 87.835,93.644 87.744,93.716C87.653,93.788 87.555,93.851 87.448,93.904C87.344,93.955 87.231,93.993 87.108,94.02C86.988,94.049 86.857,94.064 86.716,94.064C86.5,94.064 86.3,94.016 86.116,93.92C85.932,93.824 85.773,93.685 85.64,93.504C85.507,93.323 85.401,93.101 85.324,92.84C85.249,92.576 85.212,92.276 85.212,91.94C85.212,91.631 85.255,91.344 85.34,91.08C85.425,90.813 85.545,90.584 85.7,90.392C85.857,90.197 86.045,90.045 86.264,89.936C86.483,89.827 86.724,89.772 86.988,89.772C87.204,89.772 87.385,89.803 87.532,89.864C87.679,89.925 87.812,90.008 87.932,90.112L87.932,88.012L89.172,88.012ZM93.105,91.416C92.959,91.539 92.855,91.671 92.793,91.812C92.732,91.951 92.701,92.099 92.701,92.256C92.701,92.384 92.72,92.5 92.757,92.604C92.797,92.708 92.853,92.797 92.925,92.872C92.997,92.947 93.083,93.005 93.181,93.048C93.283,93.088 93.395,93.108 93.517,93.108C93.696,93.108 93.863,93.085 94.017,93.04C94.172,92.992 94.316,92.925 94.449,92.84L93.105,91.416ZM97.093,94L95.869,94C95.808,94 95.753,93.997 95.705,93.992C95.657,93.984 95.612,93.972 95.569,93.956C95.529,93.94 95.491,93.917 95.453,93.888C95.416,93.859 95.376,93.821 95.333,93.776L95.081,93.512C94.828,93.688 94.551,93.824 94.249,93.92C93.951,94.016 93.632,94.064 93.293,94.064C93.061,94.064 92.833,94.024 92.609,93.944C92.388,93.864 92.191,93.751 92.017,93.604C91.844,93.455 91.704,93.275 91.597,93.064C91.491,92.853 91.437,92.617 91.437,92.356C91.437,92.18 91.464,92.013 91.517,91.856C91.573,91.699 91.651,91.553 91.749,91.42C91.851,91.284 91.969,91.161 92.105,91.052C92.241,90.94 92.392,90.843 92.557,90.76C92.429,90.565 92.337,90.375 92.281,90.188C92.225,90.001 92.197,89.82 92.197,89.644C92.197,89.436 92.235,89.24 92.309,89.056C92.387,88.869 92.497,88.707 92.641,88.568C92.788,88.427 92.967,88.315 93.177,88.232C93.391,88.149 93.635,88.108 93.909,88.108C94.168,88.108 94.396,88.147 94.593,88.224C94.791,88.299 94.957,88.399 95.093,88.524C95.229,88.647 95.336,88.789 95.413,88.952C95.491,89.115 95.539,89.281 95.557,89.452L94.757,89.612C94.616,89.644 94.512,89.588 94.445,89.444C94.384,89.305 94.312,89.2 94.229,89.128C94.149,89.056 94.043,89.02 93.909,89.02C93.816,89.02 93.735,89.037 93.665,89.072C93.596,89.107 93.537,89.152 93.489,89.208C93.444,89.264 93.409,89.329 93.385,89.404C93.361,89.479 93.349,89.556 93.349,89.636C93.349,89.705 93.355,89.772 93.365,89.836C93.379,89.897 93.4,89.961 93.429,90.028C93.459,90.092 93.497,90.159 93.545,90.228C93.596,90.297 93.659,90.373 93.733,90.456L95.173,91.972C95.245,91.815 95.304,91.649 95.349,91.476C95.395,91.3 95.424,91.12 95.437,90.936C95.445,90.861 95.471,90.803 95.513,90.76C95.556,90.717 95.613,90.696 95.685,90.696L96.469,90.696C96.469,91.083 96.417,91.445 96.313,91.784C96.209,92.123 96.063,92.432 95.873,92.712L97.093,94ZM76.504,98.98L78.576,98.98L78.576,101.44C78.277,101.659 77.959,101.817 77.62,101.916C77.284,102.015 76.932,102.064 76.564,102.064C76.084,102.064 75.647,101.989 75.252,101.84C74.86,101.688 74.524,101.48 74.244,101.216C73.964,100.949 73.748,100.635 73.596,100.272C73.444,99.907 73.368,99.511 73.368,99.084C73.368,98.649 73.44,98.251 73.584,97.888C73.728,97.523 73.933,97.208 74.2,96.944C74.469,96.68 74.793,96.475 75.172,96.328C75.553,96.181 75.979,96.108 76.448,96.108C76.691,96.108 76.919,96.128 77.132,96.168C77.345,96.208 77.541,96.263 77.72,96.332C77.901,96.401 78.067,96.484 78.216,96.58C78.365,96.676 78.499,96.78 78.616,96.892L78.224,97.488C78.162,97.581 78.083,97.639 77.984,97.66C77.888,97.681 77.784,97.657 77.672,97.588C77.565,97.524 77.464,97.469 77.368,97.424C77.275,97.376 77.179,97.337 77.08,97.308C76.981,97.279 76.877,97.257 76.768,97.244C76.659,97.231 76.536,97.224 76.4,97.224C76.147,97.224 75.919,97.269 75.716,97.36C75.513,97.448 75.34,97.573 75.196,97.736C75.055,97.899 74.945,98.095 74.868,98.324C74.791,98.551 74.752,98.804 74.752,99.084C74.752,99.393 74.795,99.668 74.88,99.908C74.965,100.148 75.085,100.351 75.24,100.516C75.397,100.681 75.584,100.808 75.8,100.896C76.019,100.981 76.26,101.024 76.524,101.024C76.687,101.024 76.833,101.008 76.964,100.976C77.097,100.944 77.227,100.901 77.352,100.848L77.352,99.964L76.776,99.964C76.691,99.964 76.624,99.941 76.576,99.896C76.528,99.851 76.504,99.793 76.504,99.724L76.504,98.98ZM80.461,96.012L80.461,102L79.221,102L79.221,96.012L80.461,96.012ZM83.091,97.788C83.406,97.788 83.693,97.837 83.951,97.936C84.21,98.035 84.431,98.176 84.615,98.36C84.802,98.544 84.946,98.768 85.047,99.032C85.151,99.293 85.203,99.588 85.203,99.916C85.203,100.247 85.151,100.545 85.047,100.812C84.946,101.076 84.802,101.301 84.615,101.488C84.431,101.672 84.21,101.815 83.951,101.916C83.693,102.015 83.406,102.064 83.091,102.064C82.774,102.064 82.485,102.015 82.223,101.916C81.965,101.815 81.741,101.672 81.551,101.488C81.365,101.301 81.219,101.076 81.115,100.812C81.014,100.545 80.963,100.247 80.963,99.916C80.963,99.588 81.014,99.293 81.115,99.032C81.219,98.768 81.365,98.544 81.551,98.36C81.741,98.176 81.965,98.035 82.223,97.936C82.485,97.837 82.774,97.788 83.091,97.788ZM83.091,101.144C83.377,101.144 83.586,101.044 83.719,100.844C83.855,100.641 83.923,100.335 83.923,99.924C83.923,99.513 83.855,99.208 83.719,99.008C83.586,98.808 83.377,98.708 83.091,98.708C82.798,98.708 82.583,98.808 82.447,99.008C82.311,99.208 82.243,99.513 82.243,99.924C82.243,100.335 82.311,100.641 82.447,100.844C82.583,101.044 82.798,101.144 83.091,101.144ZM86.948,100.872C87.041,100.973 87.142,101.045 87.252,101.088C87.361,101.131 87.472,101.152 87.584,101.152C87.701,101.152 87.809,101.131 87.908,101.088C88.006,101.043 88.09,100.971 88.16,100.872C88.232,100.771 88.288,100.639 88.328,100.476C88.368,100.311 88.388,100.108 88.388,99.868C88.388,99.66 88.372,99.484 88.34,99.34C88.31,99.193 88.265,99.075 88.204,98.984C88.145,98.891 88.07,98.824 87.98,98.784C87.892,98.741 87.79,98.72 87.676,98.72C87.524,98.72 87.392,98.753 87.28,98.82C87.168,98.887 87.057,98.984 86.948,99.112L86.948,100.872ZM86.948,98.292C87.108,98.14 87.282,98.019 87.472,97.928C87.664,97.835 87.877,97.788 88.112,97.788C88.346,97.788 88.56,97.836 88.752,97.932C88.944,98.028 89.108,98.165 89.244,98.344C89.38,98.52 89.484,98.733 89.556,98.984C89.63,99.235 89.668,99.515 89.668,99.824C89.668,100.16 89.625,100.465 89.54,100.74C89.454,101.015 89.333,101.251 89.176,101.448C89.021,101.643 88.836,101.795 88.62,101.904C88.404,102.011 88.165,102.064 87.904,102.064C87.778,102.064 87.666,102.052 87.568,102.028C87.469,102.004 87.378,101.971 87.296,101.928C87.213,101.883 87.137,101.829 87.068,101.768C87.001,101.707 86.936,101.64 86.872,101.568L86.828,101.776C86.806,101.861 86.772,101.92 86.724,101.952C86.676,101.984 86.612,102 86.532,102L85.708,102L85.708,96.012L86.948,96.012L86.948,98.292ZM92.321,100.312C92.073,100.323 91.869,100.344 91.709,100.376C91.549,100.408 91.423,100.448 91.329,100.496C91.236,100.544 91.171,100.599 91.133,100.66C91.099,100.721 91.081,100.788 91.081,100.86C91.081,101.001 91.12,101.101 91.197,101.16C91.275,101.216 91.388,101.244 91.537,101.244C91.697,101.244 91.837,101.216 91.957,101.16C92.077,101.104 92.199,101.013 92.321,100.888L92.321,100.312ZM90.089,98.428C90.34,98.207 90.617,98.043 90.921,97.936C91.228,97.827 91.556,97.772 91.905,97.772C92.156,97.772 92.381,97.813 92.581,97.896C92.784,97.976 92.955,98.089 93.093,98.236C93.235,98.38 93.343,98.552 93.417,98.752C93.492,98.952 93.529,99.171 93.529,99.408L93.529,102L92.961,102C92.844,102 92.755,101.984 92.693,101.952C92.635,101.92 92.585,101.853 92.545,101.752L92.457,101.524C92.353,101.612 92.253,101.689 92.157,101.756C92.061,101.823 91.961,101.88 91.857,101.928C91.756,101.973 91.647,102.007 91.529,102.028C91.415,102.052 91.287,102.064 91.145,102.064C90.956,102.064 90.784,102.04 90.629,101.992C90.475,101.941 90.343,101.868 90.233,101.772C90.127,101.676 90.044,101.557 89.985,101.416C89.927,101.272 89.897,101.107 89.897,100.92C89.897,100.771 89.935,100.62 90.009,100.468C90.084,100.313 90.213,100.173 90.397,100.048C90.581,99.92 90.829,99.813 91.141,99.728C91.453,99.643 91.847,99.595 92.321,99.584L92.321,99.408C92.321,99.165 92.271,98.991 92.169,98.884C92.071,98.775 91.929,98.72 91.745,98.72C91.599,98.72 91.479,98.736 91.385,98.768C91.292,98.8 91.208,98.836 91.133,98.876C91.061,98.916 90.991,98.952 90.921,98.984C90.852,99.016 90.769,99.032 90.673,99.032C90.588,99.032 90.516,99.011 90.457,98.968C90.399,98.925 90.351,98.875 90.313,98.816L90.089,98.428ZM95.442,96.012L95.442,102L94.202,102L94.202,96.012L95.442,96.012Z" style="fill:rgb(100,100,100);fill-rule:nonzero;"/>
    </g>
    <g transform="matrix(0.666667,0,0,0.666667,0,0)">
        <rect x="100.5" y="83" width="1" height="23" style="fill:rgb(100,100,100);"/>
    </g>
    <g transform="matrix(1.002,0,0,1.002,-39.4823,-31.8591)">
        <path d="M116.842,95.772L116.302,94.176C116.262,94.075 116.219,93.956 116.174,93.82C116.129,93.681 116.083,93.532 116.038,93.372C115.998,93.535 115.955,93.685 115.91,93.824C115.865,93.963 115.822,94.083 115.782,94.184L115.246,95.772L116.842,95.772ZM118.99,98L117.942,98C117.825,98 117.73,97.973 117.658,97.92C117.586,97.864 117.531,97.793 117.494,97.708L117.15,96.692L114.934,96.692L114.59,97.708C114.561,97.783 114.507,97.851 114.43,97.912C114.355,97.971 114.262,98 114.15,98L113.094,98L115.35,92.172L116.734,92.172L118.99,98ZM120.426,92.012L120.426,98L119.186,98L119.186,92.012L120.426,92.012ZM122.384,92.012L122.384,98L121.144,98L121.144,92.012L122.384,92.012Z" style="fill:rgb(79,136,0);fill-rule:nonzero;"/>
    </g>
</svg>
