<?xml version="1.0" encoding="UTF-8" standalone="no"?>
<!DOCTYPE svg PUBLIC "-//W3C//DTD SVG 1.1//EN" "http://www.w3.org/Graphics/SVG/1.1/DTD/svg11.dtd">
<svg width="100%" height="100%" viewBox="0 0 12 306" version="1.1" xmlns="http://www.w3.org/2000/svg" xmlns:xlink="http://www.w3.org/1999/xlink" xml:space="preserve" xmlns:serif="http://www.serif.com/" style="fill-rule:evenodd;clip-rule:evenodd;">
    <path d="M11.5,21C11.5,20.448 11.052,20 10.5,20L1.5,20C0.948,20 0.5,20.448 0.5,21L0.5,30C0.5,30.552 0.948,31 1.5,31L10.5,31C11.052,31 11.5,30.552 11.5,30L11.5,21Z" style="fill:rgb(191,191,191);"/>
    <path d="M11.5,21C11.5,20.448 11.052,20 10.5,20L1.5,20C0.948,20 0.5,20.448 0.5,21L0.5,30C0.5,30.552 0.948,31 1.5,31L10.5,31C11.052,31 11.5,30.552 11.5,30L11.5,21Z" style="fill:none;stroke:rgb(191,191,191);stroke-width:1px;"/>
    <path d="M7.648,27.716L7.648,28.5L4.743,28.5L4.743,27.716L5.723,27.716L5.723,25.144C5.723,25.078 5.724,25.013 5.727,24.948C5.729,24.88 5.733,24.812 5.737,24.744L5.156,25.228C5.105,25.267 5.054,25.292 5.002,25.301C4.953,25.308 4.907,25.308 4.862,25.301C4.818,25.292 4.778,25.276 4.743,25.256C4.708,25.232 4.683,25.209 4.666,25.186L4.323,24.731L5.912,23.397L6.808,23.397L6.808,27.716L7.648,27.716Z" style="fill-rule:nonzero;"/>
    <path d="M11.5,39C11.5,38.448 11.052,38 10.5,38L1.5,38C0.948,38 0.5,38.448 0.5,39L0.5,48C0.5,48.552 0.948,49 1.5,49L10.5,49C11.052,49 11.5,48.552 11.5,48L11.5,39Z" style="fill:rgb(191,191,191);"/>
    <path d="M11.5,39C11.5,38.448 11.052,38 10.5,38L1.5,38C0.948,38 0.5,38.448 0.5,39L0.5,48C0.5,48.552 0.948,49 1.5,49L10.5,49C11.052,49 11.5,48.552 11.5,48L11.5,39Z" style="fill:none;stroke:rgb(191,191,191);stroke-width:1px;"/>
    <path d="M7.386,45.52C7.502,45.52 7.595,45.553 7.662,45.618C7.73,45.681 7.764,45.765 7.764,45.87L7.764,46.5L4.18,46.5L4.18,46.15C4.18,46.082 4.194,46.01 4.222,45.933C4.25,45.856 4.299,45.786 4.369,45.723L5.839,44.243C5.965,44.117 6.074,43.996 6.168,43.882C6.261,43.768 6.338,43.656 6.399,43.546C6.459,43.434 6.505,43.323 6.535,43.214C6.566,43.102 6.581,42.984 6.581,42.86C6.581,42.657 6.532,42.502 6.434,42.395C6.338,42.285 6.191,42.23 5.993,42.23C5.832,42.23 5.695,42.273 5.583,42.359C5.474,42.444 5.398,42.548 5.356,42.675C5.307,42.803 5.243,42.888 5.163,42.93C5.084,42.972 4.971,42.981 4.824,42.958L4.25,42.856C4.287,42.602 4.358,42.381 4.463,42.192C4.571,42.003 4.702,41.845 4.859,41.719C5.017,41.593 5.198,41.5 5.401,41.439C5.604,41.376 5.822,41.344 6.056,41.344C6.308,41.344 6.534,41.382 6.735,41.457C6.938,41.529 7.11,41.63 7.253,41.761C7.395,41.892 7.504,42.048 7.578,42.23C7.655,42.41 7.694,42.608 7.694,42.825C7.694,43.012 7.667,43.184 7.613,43.343C7.562,43.502 7.491,43.653 7.4,43.798C7.309,43.94 7.203,44.079 7.081,44.215C6.962,44.347 6.835,44.483 6.7,44.621L5.702,45.643C5.831,45.603 5.958,45.573 6.084,45.551C6.21,45.531 6.326,45.52 6.434,45.52L7.386,45.52Z" style="fill-rule:nonzero;"/>
    <path d="M11.5,57C11.5,56.448 11.052,56 10.5,56L1.5,56C0.948,56 0.5,56.448 0.5,57L0.5,66C0.5,66.552 0.948,67 1.5,67L10.5,67C11.052,67 11.5,66.552 11.5,66L11.5,57Z" style="fill:rgb(191,191,191);"/>
    <path d="M11.5,57C11.5,56.448 11.052,56 10.5,56L1.5,56C0.948,56 0.5,56.448 0.5,57L0.5,66C0.5,66.552 0.948,67 1.5,67L10.5,67C11.052,67 11.5,66.552 11.5,66L11.5,57Z" style="fill:none;stroke:rgb(191,191,191);stroke-width:1px;"/>
    <path d="M4.278,60.856C4.315,60.602 4.386,60.381 4.491,60.192C4.599,60.003 4.73,59.845 4.887,59.719C5.045,59.593 5.226,59.5 5.429,59.439C5.632,59.376 5.85,59.344 6.084,59.344C6.336,59.344 6.56,59.381 6.756,59.453C6.952,59.523 7.117,59.619 7.253,59.74C7.388,59.861 7.491,60.003 7.561,60.164C7.631,60.322 7.666,60.49 7.666,60.667C7.666,60.829 7.649,60.971 7.617,61.094C7.584,61.216 7.535,61.322 7.47,61.413C7.407,61.502 7.327,61.578 7.232,61.641C7.138,61.701 7.031,61.753 6.91,61.795C7.474,61.993 7.757,62.378 7.757,62.95C7.757,63.22 7.708,63.456 7.61,63.657C7.512,63.857 7.38,64.024 7.214,64.157C7.051,64.29 6.861,64.39 6.644,64.458C6.427,64.523 6.2,64.556 5.965,64.556C5.722,64.556 5.506,64.53 5.317,64.479C5.128,64.425 4.96,64.344 4.813,64.234C4.666,64.122 4.537,63.98 4.425,63.807C4.315,63.634 4.219,63.429 4.138,63.191L4.621,62.995C4.747,62.946 4.863,62.933 4.971,62.957C5.078,62.98 5.155,63.033 5.202,63.118C5.307,63.311 5.418,63.452 5.534,63.541C5.653,63.627 5.792,63.67 5.951,63.67C6.072,63.67 6.177,63.651 6.266,63.611C6.357,63.569 6.431,63.517 6.49,63.454C6.55,63.388 6.596,63.315 6.626,63.233C6.657,63.151 6.672,63.069 6.672,62.984C6.672,62.875 6.664,62.777 6.647,62.691C6.633,62.602 6.591,62.526 6.521,62.463C6.451,62.4 6.345,62.352 6.203,62.32C6.063,62.285 5.867,62.267 5.615,62.267L5.615,61.518C5.827,61.518 5.999,61.502 6.129,61.469C6.26,61.436 6.36,61.392 6.43,61.336C6.503,61.278 6.55,61.208 6.574,61.126C6.597,61.044 6.609,60.955 6.609,60.856C6.609,60.656 6.56,60.502 6.462,60.395C6.366,60.285 6.219,60.23 6.021,60.23C5.86,60.23 5.723,60.273 5.611,60.359C5.502,60.444 5.426,60.548 5.384,60.675C5.335,60.803 5.271,60.888 5.191,60.93C5.112,60.972 4.999,60.981 4.852,60.958L4.278,60.856Z" style="fill-rule:nonzero;"/>
    <path d="M11.5,75C11.5,74.448 11.052,74 10.5,74L1.5,74C0.948,74 0.5,74.448 0.5,75L0.5,84C0.5,84.552 0.948,85 1.5,85L10.5,85C11.052,85 11.5,84.552 11.5,84L11.5,75Z" style="fill:rgb(191,191,191);"/>
    <path d="M11.5,75C11.5,74.448 11.052,74 10.5,74L1.5,74C0.948,74 0.5,74.448 0.5,75L0.5,84C0.5,84.552 0.948,85 1.5,85L10.5,85C11.052,85 11.5,84.552 11.5,84L11.5,75Z" style="fill:none;stroke:rgb(191,191,191);stroke-width:1px;"/>
    <path d="M6.402,80.519L6.402,79.189C6.402,79.107 6.405,79.02 6.409,78.927C6.416,78.831 6.426,78.732 6.437,78.629L5.09,80.519L6.402,80.519ZM7.872,80.519L7.872,81.128C7.872,81.182 7.854,81.228 7.816,81.268C7.781,81.308 7.73,81.328 7.662,81.328L7.347,81.328L7.347,82.5L6.402,82.5L6.402,81.328L4.351,81.328C4.284,81.328 4.222,81.307 4.166,81.265C4.112,81.223 4.078,81.17 4.064,81.107L3.952,80.572L6.311,77.4L7.347,77.4L7.347,80.519L7.872,80.519Z" style="fill-rule:nonzero;"/>
    <path d="M11.5,93C11.5,92.448 11.052,92 10.5,92L1.5,92C0.948,92 0.5,92.448 0.5,93L0.5,102C0.5,102.552 0.948,103 1.5,103L10.5,103C11.052,103 11.5,102.552 11.5,102L11.5,93Z" style="fill:rgb(191,191,191);"/>
    <path d="M11.5,93C11.5,92.448 11.052,92 10.5,92L1.5,92C0.948,92 0.5,92.448 0.5,93L0.5,102C0.5,102.552 0.948,103 1.5,103L10.5,103C11.052,103 11.5,102.552 11.5,102L11.5,93Z" style="fill:none;stroke:rgb(191,191,191);stroke-width:1px;"/>
    <path d="M5.524,97.196C5.619,97.177 5.712,97.165 5.8,97.158C5.889,97.15 5.975,97.147 6.059,97.147C6.328,97.147 6.564,97.188 6.77,97.269C6.975,97.351 7.148,97.463 7.288,97.606C7.428,97.746 7.533,97.911 7.603,98.103C7.675,98.292 7.711,98.495 7.711,98.712C7.711,98.985 7.662,99.234 7.564,99.461C7.469,99.685 7.334,99.878 7.162,100.041C6.989,100.205 6.783,100.332 6.542,100.423C6.304,100.512 6.043,100.556 5.758,100.556C5.593,100.556 5.434,100.539 5.282,100.504C5.133,100.468 4.992,100.422 4.859,100.363C4.728,100.303 4.607,100.234 4.495,100.157C4.383,100.078 4.281,99.994 4.19,99.905L4.526,99.457C4.561,99.41 4.602,99.375 4.649,99.352C4.695,99.326 4.746,99.314 4.799,99.314C4.869,99.314 4.935,99.333 4.995,99.373C5.058,99.41 5.126,99.452 5.198,99.499C5.273,99.543 5.359,99.584 5.457,99.622C5.555,99.659 5.677,99.678 5.821,99.678C5.966,99.678 6.09,99.654 6.192,99.608C6.295,99.559 6.378,99.493 6.441,99.412C6.506,99.328 6.553,99.231 6.581,99.121C6.611,99.009 6.626,98.89 6.626,98.764C6.626,98.517 6.556,98.329 6.416,98.201C6.276,98.07 6.078,98.004 5.821,98.004C5.593,98.004 5.369,98.048 5.149,98.134L4.477,97.952L4.911,95.4L7.522,95.4L7.522,95.849C7.522,95.923 7.511,95.991 7.487,96.052C7.464,96.112 7.427,96.166 7.375,96.213C7.326,96.257 7.261,96.292 7.179,96.318C7.098,96.341 7,96.353 6.885,96.353L5.667,96.353L5.524,97.196Z" style="fill-rule:nonzero;"/>
    <path d="M11.5,111C11.5,110.448 11.052,110 10.5,110L1.5,110C0.948,110 0.5,110.448 0.5,111L0.5,120C0.5,120.552 0.948,121 1.5,121L10.5,121C11.052,121 11.5,120.552 11.5,120L11.5,111Z" style="fill:rgb(191,191,191);"/>
    <path d="M11.5,111C11.5,110.448 11.052,110 10.5,110L1.5,110C0.948,110 0.5,110.448 0.5,111L0.5,120C0.5,120.552 0.948,121 1.5,121L10.5,121C11.052,121 11.5,120.552 11.5,120L11.5,111Z" style="fill:none;stroke:rgb(191,191,191);stroke-width:1px;"/>
    <path d="M5.993,117.698C6.105,117.698 6.209,117.677 6.304,117.635C6.402,117.593 6.486,117.536 6.556,117.464C6.626,117.389 6.681,117.303 6.721,117.205C6.763,117.105 6.784,116.996 6.784,116.879C6.784,116.749 6.764,116.632 6.724,116.529C6.687,116.427 6.633,116.34 6.563,116.27C6.493,116.2 6.408,116.147 6.308,116.109C6.21,116.072 6.1,116.053 5.979,116.053C5.869,116.053 5.769,116.073 5.678,116.113C5.587,116.15 5.507,116.205 5.44,116.277C5.374,116.35 5.323,116.436 5.286,116.536C5.248,116.637 5.23,116.75 5.23,116.876C5.23,117.002 5.245,117.115 5.275,117.215C5.306,117.316 5.352,117.402 5.415,117.474C5.478,117.547 5.558,117.603 5.653,117.642C5.749,117.68 5.862,117.698 5.993,117.698ZM5.818,115.36C5.981,115.3 6.163,115.269 6.364,115.269C6.548,115.269 6.73,115.3 6.91,115.36C7.089,115.421 7.25,115.514 7.393,115.64C7.535,115.766 7.649,115.926 7.736,116.12C7.824,116.311 7.869,116.538 7.869,116.799C7.869,117.037 7.824,117.263 7.736,117.478C7.647,117.69 7.521,117.877 7.358,118.038C7.197,118.197 7.002,118.323 6.773,118.416C6.545,118.509 6.291,118.556 6.014,118.556C5.729,118.556 5.474,118.512 5.247,118.423C5.021,118.332 4.828,118.206 4.67,118.045C4.513,117.884 4.393,117.691 4.309,117.467C4.228,117.243 4.187,116.997 4.187,116.729C4.187,116.227 4.38,115.717 4.768,115.199L5.916,113.649C5.969,113.581 6.046,113.523 6.147,113.474C6.249,113.425 6.366,113.4 6.497,113.4L7.463,113.4L5.951,115.206L5.818,115.36Z" style="fill-rule:nonzero;"/>
    <path d="M11.5,129C11.5,128.448 11.052,128 10.5,128L1.5,128C0.948,128 0.5,128.448 0.5,129L0.5,138C0.5,138.552 0.948,139 1.5,139L10.5,139C11.052,139 11.5,138.552 11.5,138L11.5,129Z" style="fill:rgb(191,191,191);"/>
    <path d="M11.5,129C11.5,128.448 11.052,128 10.5,128L1.5,128C0.948,128 0.5,128.448 0.5,129L0.5,138C0.5,138.552 0.948,139 1.5,139L10.5,139C11.052,139 11.5,138.552 11.5,138L11.5,129Z" style="fill:none;stroke:rgb(191,191,191);stroke-width:1px;"/>
    <path d="M7.83,131.4L7.83,131.855C7.83,131.991 7.815,132.1 7.785,132.184C7.754,132.266 7.725,132.335 7.697,132.391L5.926,136.143C5.877,136.241 5.807,136.325 5.716,136.395C5.628,136.465 5.509,136.5 5.359,136.5L4.568,136.5L6.388,132.849C6.442,132.751 6.496,132.663 6.549,132.583C6.605,132.502 6.667,132.425 6.735,132.352L4.491,132.352C4.459,132.352 4.427,132.347 4.397,132.335C4.369,132.321 4.343,132.303 4.32,132.282C4.299,132.259 4.281,132.233 4.267,132.205C4.253,132.175 4.246,132.145 4.246,132.114L4.246,131.4L7.83,131.4Z" style="fill-rule:nonzero;"/>
    <path d="M11.5,147C11.5,146.448 11.052,146 10.5,146L1.5,146C0.948,146 0.5,146.448 0.5,147L0.5,156C0.5,156.552 0.948,157 1.5,157L10.5,157C11.052,157 11.5,156.552 11.5,156L11.5,147Z" style="fill:rgb(191,191,191);"/>
    <path d="M11.5,147C11.5,146.448 11.052,146 10.5,146L1.5,146C0.948,146 0.5,146.448 0.5,147L0.5,156C0.5,156.552 0.948,157 1.5,157L10.5,157C11.052,157 11.5,156.552 11.5,156L11.5,147Z" style="fill:none;stroke:rgb(191,191,191);stroke-width:1px;"/>
    <path d="M6,153.737C6.121,153.737 6.226,153.718 6.315,153.681C6.403,153.644 6.476,153.593 6.532,153.53C6.59,153.465 6.632,153.389 6.658,153.303C6.686,153.214 6.7,153.12 6.7,153.019C6.7,152.91 6.688,152.809 6.665,152.718C6.641,152.627 6.603,152.55 6.549,152.487C6.496,152.422 6.423,152.372 6.332,152.337C6.244,152.3 6.133,152.281 6,152.281C5.867,152.281 5.755,152.3 5.664,152.337C5.575,152.372 5.504,152.422 5.45,152.487C5.397,152.55 5.358,152.627 5.335,152.718C5.311,152.809 5.3,152.91 5.3,153.019C5.3,153.12 5.313,153.214 5.338,153.303C5.366,153.389 5.408,153.465 5.464,153.53C5.523,153.593 5.595,153.644 5.681,153.681C5.77,153.718 5.876,153.737 6,153.737ZM6,150.135C5.89,150.135 5.798,150.153 5.723,150.188C5.649,150.223 5.587,150.27 5.538,150.328C5.491,150.384 5.457,150.449 5.436,150.524C5.415,150.599 5.405,150.676 5.405,150.755C5.405,150.844 5.413,150.93 5.429,151.014C5.446,151.098 5.476,151.173 5.52,151.238C5.565,151.303 5.625,151.356 5.702,151.395C5.779,151.435 5.878,151.455 6,151.455C6.121,151.455 6.22,151.435 6.297,151.395C6.374,151.356 6.435,151.303 6.479,151.238C6.524,151.173 6.554,151.098 6.57,151.014C6.587,150.93 6.595,150.844 6.595,150.755C6.595,150.676 6.584,150.599 6.563,150.524C6.542,150.449 6.507,150.384 6.458,150.328C6.412,150.27 6.35,150.223 6.273,150.188C6.198,150.153 6.107,150.135 6,150.135ZM6.962,151.84C7.114,151.894 7.243,151.96 7.351,152.039C7.46,152.119 7.549,152.21 7.617,152.312C7.687,152.415 7.738,152.528 7.771,152.652C7.803,152.773 7.82,152.903 7.82,153.04C7.82,153.269 7.775,153.477 7.687,153.663C7.6,153.85 7.477,154.01 7.316,154.143C7.157,154.274 6.966,154.375 6.742,154.447C6.518,154.52 6.27,154.556 6,154.556C5.729,154.556 5.482,154.52 5.258,154.447C5.034,154.375 4.841,154.274 4.68,154.143C4.522,154.01 4.398,153.85 4.309,153.663C4.223,153.477 4.18,153.269 4.18,153.04C4.18,152.903 4.196,152.773 4.229,152.652C4.261,152.528 4.312,152.415 4.379,152.312C4.449,152.21 4.538,152.119 4.645,152.039C4.755,151.96 4.886,151.894 5.037,151.84C4.806,151.735 4.634,151.59 4.519,151.406C4.405,151.219 4.348,150.995 4.348,150.734C4.348,150.536 4.389,150.352 4.47,150.184C4.552,150.014 4.666,149.867 4.813,149.743C4.96,149.62 5.134,149.523 5.335,149.453C5.538,149.381 5.759,149.344 6,149.344C6.24,149.344 6.461,149.381 6.661,149.453C6.864,149.523 7.039,149.62 7.186,149.743C7.333,149.867 7.448,150.014 7.529,150.184C7.611,150.352 7.652,150.536 7.652,150.734C7.652,150.995 7.595,151.219 7.48,151.406C7.366,151.59 7.193,151.735 6.962,151.84Z" style="fill-rule:nonzero;"/>
    <path d="M11.5,165C11.5,164.448 11.052,164 10.5,164L1.5,164C0.948,164 0.5,164.448 0.5,165L0.5,174C0.5,174.552 0.948,175 1.5,175L10.5,175C11.052,175 11.5,174.552 11.5,174L11.5,165Z" style="fill:rgb(191,191,191);"/>
    <path d="M11.5,165C11.5,164.448 11.052,164 10.5,164L1.5,164C0.948,164 0.5,164.448 0.5,165L0.5,174C0.5,174.552 0.948,175 1.5,175L10.5,175C11.052,175 11.5,174.552 11.5,174L11.5,165Z" style="fill:none;stroke:rgb(191,191,191);stroke-width:1px;"/>
    <path d="M5.275,168.958C5.275,169.467 5.511,169.721 5.982,169.721C6.213,169.721 6.391,169.652 6.514,169.514C6.64,169.374 6.703,169.189 6.703,168.958C6.703,168.834 6.685,168.726 6.647,168.632C6.612,168.537 6.562,168.457 6.497,168.394C6.434,168.331 6.357,168.284 6.266,168.251C6.175,168.218 6.076,168.202 5.968,168.202C5.859,168.202 5.761,168.222 5.674,168.261C5.59,168.299 5.518,168.351 5.457,168.419C5.399,168.487 5.353,168.567 5.321,168.66C5.29,168.751 5.275,168.851 5.275,168.958ZM6.143,170.568C6.176,170.528 6.207,170.49 6.238,170.452C6.268,170.415 6.296,170.378 6.322,170.34C6.107,170.455 5.863,170.512 5.59,170.512C5.425,170.512 5.259,170.483 5.093,170.424C4.928,170.364 4.777,170.273 4.642,170.151C4.509,170.03 4.4,169.877 4.316,169.693C4.232,169.509 4.19,169.29 4.19,169.038C4.19,168.807 4.232,168.589 4.316,168.384C4.403,168.179 4.524,167.999 4.68,167.845C4.839,167.691 5.028,167.57 5.247,167.481C5.467,167.39 5.712,167.344 5.982,167.344C6.258,167.344 6.504,167.386 6.721,167.47C6.938,167.554 7.121,167.672 7.27,167.824C7.422,167.976 7.537,168.156 7.617,168.366C7.698,168.574 7.739,168.804 7.739,169.056C7.739,169.39 7.689,169.688 7.589,169.952C7.488,170.216 7.354,170.464 7.186,170.697L6.087,172.258C6.038,172.326 5.964,172.383 5.863,172.43C5.765,172.477 5.653,172.5 5.527,172.5L4.526,172.5L6.143,170.568Z" style="fill-rule:nonzero;"/>
    <path d="M11.5,183C11.5,182.448 11.052,182 10.5,182L1.5,182C0.948,182 0.5,182.448 0.5,183L0.5,192C0.5,192.552 0.948,193 1.5,193L10.5,193C11.052,193 11.5,192.552 11.5,192L11.5,183Z" style="fill:rgb(191,191,191);"/>
    <path d="M11.5,183C11.5,182.448 11.052,182 10.5,182L1.5,182C0.948,182 0.5,182.448 0.5,183L0.5,192C0.5,192.552 0.948,193 1.5,193L10.5,193C11.052,193 11.5,192.552 11.5,192L11.5,183Z" style="fill:none;stroke:rgb(191,191,191);stroke-width:1px;"/>
    <path d="M5.67,189.716L5.67,190.5L2.765,190.5L2.765,189.716L3.745,189.716L3.745,187.143C3.745,187.078 3.747,187.013 3.749,186.947C3.751,186.88 3.755,186.812 3.759,186.744L3.178,187.227C3.127,187.267 3.076,187.292 3.024,187.301C2.975,187.308 2.929,187.308 2.884,187.301C2.84,187.292 2.8,187.276 2.765,187.255C2.73,187.232 2.705,187.209 2.688,187.185L2.345,186.73L3.934,185.397L4.83,185.397L4.83,189.716L5.67,189.716ZM9.868,187.948C9.868,188.394 9.82,188.78 9.724,189.107C9.628,189.434 9.495,189.704 9.325,189.919C9.157,190.134 8.956,190.293 8.723,190.398C8.492,190.504 8.241,190.556 7.971,190.556C7.7,190.556 7.449,190.504 7.218,190.398C6.989,190.293 6.791,190.134 6.623,189.919C6.455,189.704 6.323,189.434 6.228,189.107C6.134,188.78 6.088,188.394 6.088,187.948C6.088,187.503 6.134,187.117 6.228,186.79C6.323,186.463 6.455,186.193 6.623,185.978C6.791,185.763 6.989,185.605 7.218,185.502C7.449,185.397 7.7,185.344 7.971,185.344C8.241,185.344 8.492,185.397 8.723,185.502C8.956,185.605 9.157,185.763 9.325,185.978C9.495,186.193 9.628,186.463 9.724,186.79C9.82,187.117 9.868,187.503 9.868,187.948ZM8.748,187.948C8.748,187.596 8.725,187.308 8.681,187.084C8.637,186.858 8.577,186.68 8.503,186.552C8.43,186.424 8.347,186.336 8.254,186.289C8.161,186.24 8.066,186.216 7.971,186.216C7.875,186.216 7.78,186.24 7.687,186.289C7.596,186.336 7.514,186.424 7.442,186.552C7.372,186.68 7.315,186.858 7.271,187.084C7.229,187.308 7.207,187.596 7.207,187.948C7.207,188.303 7.229,188.592 7.271,188.816C7.315,189.04 7.372,189.218 7.442,189.348C7.514,189.477 7.596,189.565 7.687,189.614C7.78,189.661 7.875,189.684 7.971,189.684C8.066,189.684 8.161,189.661 8.254,189.614C8.347,189.565 8.43,189.477 8.503,189.348C8.577,189.218 8.637,189.04 8.681,188.816C8.725,188.592 8.748,188.303 8.748,187.948Z" style="fill-rule:nonzero;"/>
    <path d="M11.5,201C11.5,200.448 11.052,200 10.5,200L1.5,200C0.948,200 0.5,200.448 0.5,201L0.5,210C0.5,210.552 0.948,211 1.5,211L10.5,211C11.052,211 11.5,210.552 11.5,210L11.5,201Z" style="fill:rgb(191,191,191);"/>
    <path d="M11.5,201C11.5,200.448 11.052,200 10.5,200L1.5,200C0.948,200 0.5,200.448 0.5,201L0.5,210C0.5,210.552 0.948,211 1.5,211L10.5,211C11.052,211 11.5,210.552 11.5,210L11.5,201Z" style="fill:none;stroke:rgb(191,191,191);stroke-width:1px;"/>
    <path d="M5.67,207.716L5.67,208.5L2.765,208.5L2.765,207.716L3.745,207.716L3.745,205.143C3.745,205.078 3.747,205.013 3.749,204.947C3.751,204.88 3.755,204.812 3.759,204.744L3.178,205.227C3.127,205.267 3.076,205.292 3.024,205.301C2.975,205.308 2.929,205.308 2.884,205.301C2.84,205.292 2.8,205.276 2.765,205.255C2.73,205.232 2.705,205.209 2.688,205.185L2.345,204.73L3.934,203.397L4.83,203.397L4.83,207.716L5.67,207.716ZM9.626,207.716L9.626,208.5L6.721,208.5L6.721,207.716L7.701,207.716L7.701,205.143C7.701,205.078 7.702,205.013 7.705,204.947C7.707,204.88 7.71,204.812 7.715,204.744L7.134,205.227C7.083,205.267 7.031,205.292 6.98,205.301C6.931,205.308 6.884,205.308 6.84,205.301C6.796,205.292 6.756,205.276 6.721,205.255C6.686,205.232 6.66,205.209 6.644,205.185L6.301,204.73L7.89,203.397L8.786,203.397L8.786,207.716L9.626,207.716Z" style="fill-rule:nonzero;"/>
    <path d="M11.5,219C11.5,218.448 11.052,218 10.5,218L1.5,218C0.948,218 0.5,218.448 0.5,219L0.5,228C0.5,228.552 0.948,229 1.5,229L10.5,229C11.052,229 11.5,228.552 11.5,228L11.5,219Z" style="fill:rgb(191,191,191);"/>
    <path d="M11.5,219C11.5,218.448 11.052,218 10.5,218L1.5,218C0.948,218 0.5,218.448 0.5,219L0.5,228C0.5,228.552 0.948,229 1.5,229L10.5,229C11.052,229 11.5,228.552 11.5,228L11.5,219Z" style="fill:none;stroke:rgb(191,191,191);stroke-width:1px;"/>
    <path d="M5.67,225.716L5.67,226.5L2.765,226.5L2.765,225.716L3.745,225.716L3.745,223.143C3.745,223.078 3.747,223.013 3.749,222.947C3.751,222.88 3.755,222.812 3.759,222.744L3.178,223.227C3.127,223.267 3.076,223.292 3.024,223.301C2.975,223.308 2.929,223.308 2.884,223.301C2.84,223.292 2.8,223.276 2.765,223.255C2.73,223.232 2.705,223.209 2.688,223.185L2.345,222.73L3.934,221.397L4.83,221.397L4.83,225.716L5.67,225.716ZM9.364,225.52C9.48,225.52 9.572,225.553 9.64,225.618C9.708,225.681 9.742,225.765 9.742,225.87L9.742,226.5L6.158,226.5L6.158,226.15C6.158,226.082 6.172,226.01 6.199,225.933C6.228,225.856 6.277,225.786 6.347,225.723L7.816,224.242C7.943,224.116 8.052,223.996 8.146,223.882C8.239,223.768 8.316,223.656 8.377,223.546C8.437,223.434 8.483,223.323 8.513,223.213C8.543,223.101 8.559,222.984 8.559,222.86C8.559,222.657 8.509,222.502 8.412,222.394C8.316,222.285 8.169,222.23 7.971,222.23C7.81,222.23 7.673,222.273 7.561,222.359C7.451,222.443 7.376,222.548 7.334,222.674C7.285,222.803 7.22,222.888 7.141,222.93C7.062,222.972 6.949,222.981 6.802,222.958L6.228,222.856C6.265,222.602 6.336,222.38 6.441,222.191C6.548,222.002 6.68,221.845 6.837,221.719C6.995,221.593 7.176,221.5 7.379,221.439C7.582,221.376 7.8,221.344 8.034,221.344C8.286,221.344 8.512,221.382 8.713,221.456C8.916,221.529 9.088,221.63 9.23,221.761C9.373,221.892 9.481,222.048 9.556,222.23C9.633,222.41 9.672,222.608 9.672,222.825C9.672,223.012 9.645,223.184 9.591,223.343C9.54,223.502 9.469,223.653 9.378,223.798C9.287,223.94 9.18,224.079 9.059,224.214C8.94,224.347 8.813,224.483 8.678,224.62L7.68,225.642C7.808,225.603 7.936,225.572 8.062,225.551C8.188,225.53 8.304,225.52 8.412,225.52L9.364,225.52Z" style="fill-rule:nonzero;"/>
    <path d="M11.5,237C11.5,236.448 11.052,236 10.5,236L1.5,236C0.948,236 0.5,236.448 0.5,237L0.5,246C0.5,246.552 0.948,247 1.5,247L10.5,247C11.052,247 11.5,246.552 11.5,246L11.5,237Z" style="fill:rgb(191,191,191);"/>
    <path d="M11.5,237C11.5,236.448 11.052,236 10.5,236L1.5,236C0.948,236 0.5,236.448 0.5,237L0.5,246C0.5,246.552 0.948,247 1.5,247L10.5,247C11.052,247 11.5,246.552 11.5,246L11.5,237Z" style="fill:none;stroke:rgb(191,191,191);stroke-width:1px;"/>
    <path d="M5.67,243.716L5.67,244.5L2.765,244.5L2.765,243.716L3.745,243.716L3.745,241.143C3.745,241.078 3.747,241.013 3.749,240.947C3.751,240.88 3.755,240.812 3.759,240.744L3.178,241.227C3.127,241.267 3.076,241.292 3.024,241.301C2.975,241.308 2.929,241.308 2.884,241.301C2.84,241.292 2.8,241.276 2.765,241.255C2.73,241.232 2.705,241.209 2.688,241.185L2.345,240.73L3.934,239.397L4.83,239.397L4.83,243.716L5.67,243.716ZM6.255,240.856C6.293,240.602 6.364,240.38 6.469,240.191C6.576,240.002 6.708,239.845 6.864,239.719C7.023,239.593 7.204,239.5 7.407,239.439C7.61,239.376 7.828,239.344 8.062,239.344C8.314,239.344 8.538,239.381 8.734,239.453C8.93,239.523 9.095,239.619 9.23,239.74C9.366,239.861 9.469,240.002 9.539,240.163C9.609,240.322 9.644,240.49 9.644,240.667C9.644,240.828 9.627,240.971 9.595,241.094C9.562,241.216 9.513,241.322 9.448,241.413C9.384,241.502 9.305,241.577 9.21,241.64C9.116,241.701 9.009,241.752 8.888,241.794C9.452,241.993 9.735,242.378 9.735,242.949C9.735,243.22 9.686,243.456 9.588,243.656C9.49,243.857 9.358,244.024 9.192,244.157C9.029,244.29 8.839,244.39 8.622,244.458C8.405,244.523 8.178,244.556 7.943,244.556C7.7,244.556 7.484,244.53 7.295,244.479C7.106,244.425 6.938,244.344 6.791,244.234C6.644,244.122 6.515,243.98 6.403,243.807C6.293,243.634 6.197,243.429 6.116,243.191L6.598,242.995C6.725,242.946 6.841,242.933 6.949,242.956C7.056,242.98 7.133,243.033 7.18,243.117C7.285,243.311 7.395,243.452 7.512,243.541C7.631,243.627 7.77,243.67 7.928,243.67C8.05,243.67 8.155,243.651 8.243,243.611C8.335,243.569 8.409,243.516 8.468,243.453C8.528,243.388 8.574,243.315 8.604,243.233C8.634,243.151 8.65,243.068 8.65,242.984C8.65,242.875 8.641,242.777 8.625,242.69C8.611,242.602 8.569,242.526 8.499,242.463C8.429,242.4 8.323,242.352 8.181,242.319C8.041,242.284 7.845,242.267 7.593,242.267L7.593,241.518C7.805,241.518 7.976,241.502 8.107,241.469C8.238,241.436 8.338,241.392 8.408,241.336C8.48,241.278 8.528,241.208 8.552,241.126C8.575,241.044 8.586,240.954 8.586,240.856C8.586,240.656 8.538,240.502 8.44,240.394C8.344,240.285 8.197,240.23 7.999,240.23C7.838,240.23 7.701,240.273 7.589,240.359C7.479,240.443 7.404,240.548 7.362,240.674C7.313,240.803 7.248,240.888 7.169,240.93C7.09,240.972 6.977,240.981 6.83,240.958L6.255,240.856Z" style="fill-rule:nonzero;"/>
    <path d="M11.5,255C11.5,254.448 11.052,254 10.5,254L1.5,254C0.948,254 0.5,254.448 0.5,255L0.5,264C0.5,264.552 0.948,265 1.5,265L10.5,265C11.052,265 11.5,264.552 11.5,264L11.5,255Z" style="fill:rgb(191,191,191);"/>
    <path d="M11.5,255C11.5,254.448 11.052,254 10.5,254L1.5,254C0.948,254 0.5,254.448 0.5,255L0.5,264C0.5,264.552 0.948,265 1.5,265L10.5,265C11.052,265 11.5,264.552 11.5,264L11.5,255Z" style="fill:none;stroke:rgb(191,191,191);stroke-width:1px;"/>
    <path d="M5.67,261.716L5.67,262.5L2.765,262.5L2.765,261.716L3.745,261.716L3.745,259.143C3.745,259.078 3.747,259.013 3.749,258.947C3.751,258.88 3.755,258.812 3.759,258.744L3.178,259.227C3.127,259.267 3.076,259.292 3.024,259.301C2.975,259.308 2.929,259.308 2.884,259.301C2.84,259.292 2.8,259.276 2.765,259.255C2.73,259.232 2.705,259.209 2.688,259.185L2.345,258.73L3.934,257.397L4.83,257.397L4.83,261.716L5.67,261.716ZM8.38,260.519L8.38,259.189C8.38,259.107 8.382,259.02 8.387,258.926C8.394,258.831 8.403,258.732 8.415,258.629L7.068,260.519L8.38,260.519ZM9.85,260.519L9.85,261.128C9.85,261.182 9.831,261.228 9.794,261.268C9.759,261.308 9.708,261.327 9.64,261.327L9.325,261.327L9.325,262.5L8.38,262.5L8.38,261.327L6.329,261.327C6.261,261.327 6.199,261.306 6.144,261.264C6.09,261.222 6.056,261.17 6.042,261.107L5.93,260.572L8.289,257.4L9.325,257.4L9.325,260.519L9.85,260.519Z" style="fill-rule:nonzero;"/>
    <path d="M11.5,273C11.5,272.448 11.052,272 10.5,272L1.5,272C0.948,272 0.5,272.448 0.5,273L0.5,282C0.5,282.552 0.948,283 1.5,283L10.5,283C11.052,283 11.5,282.552 11.5,282L11.5,273Z" style="fill:rgb(191,191,191);"/>
    <path d="M11.5,273C11.5,272.448 11.052,272 10.5,272L1.5,272C0.948,272 0.5,272.448 0.5,273L0.5,282C0.5,282.552 0.948,283 1.5,283L10.5,283C11.052,283 11.5,282.552 11.5,282L11.5,273Z" style="fill:none;stroke:rgb(191,191,191);stroke-width:1px;"/>
    <path d="M5.67,279.716L5.67,280.5L2.765,280.5L2.765,279.716L3.745,279.716L3.745,277.143C3.745,277.078 3.747,277.013 3.749,276.947C3.751,276.88 3.755,276.812 3.759,276.744L3.178,277.227C3.127,277.267 3.076,277.292 3.024,277.301C2.975,277.308 2.929,277.308 2.884,277.301C2.84,277.292 2.8,277.276 2.765,277.255C2.73,277.232 2.705,277.209 2.688,277.185L2.345,276.73L3.934,275.397L4.83,275.397L4.83,279.716L5.67,279.716ZM7.502,277.196C7.597,277.177 7.689,277.164 7.778,277.157C7.867,277.15 7.953,277.147 8.037,277.147C8.305,277.147 8.542,277.188 8.748,277.269C8.953,277.351 9.126,277.463 9.266,277.605C9.406,277.745 9.511,277.911 9.581,278.102C9.653,278.291 9.689,278.494 9.689,278.711C9.689,278.984 9.64,279.234 9.542,279.46C9.446,279.684 9.312,279.878 9.14,280.041C8.967,280.205 8.76,280.332 8.52,280.423C8.282,280.512 8.021,280.556 7.736,280.556C7.57,280.556 7.412,280.539 7.26,280.504C7.111,280.468 6.97,280.422 6.837,280.363C6.706,280.303 6.585,280.234 6.473,280.157C6.361,280.078 6.259,279.994 6.168,279.905L6.504,279.457C6.539,279.41 6.58,279.375 6.627,279.352C6.673,279.326 6.723,279.313 6.777,279.313C6.847,279.313 6.912,279.333 6.973,279.373C7.036,279.41 7.104,279.452 7.176,279.499C7.251,279.543 7.337,279.584 7.435,279.621C7.533,279.659 7.654,279.677 7.799,279.677C7.944,279.677 8.067,279.654 8.17,279.607C8.273,279.558 8.355,279.493 8.419,279.411C8.484,279.327 8.531,279.231 8.559,279.121C8.589,279.009 8.604,278.89 8.604,278.764C8.604,278.517 8.534,278.329 8.394,278.2C8.254,278.07 8.056,278.004 7.799,278.004C7.57,278.004 7.346,278.048 7.127,278.134L6.455,277.952L6.889,275.4L9.5,275.4L9.5,275.848C9.5,275.923 9.488,275.991 9.465,276.051C9.442,276.112 9.404,276.166 9.353,276.212C9.304,276.257 9.239,276.292 9.157,276.317C9.075,276.341 8.977,276.352 8.863,276.352L7.645,276.352L7.502,277.196Z" style="fill-rule:nonzero;"/>
    <path d="M11.5,291C11.5,290.448 11.052,290 10.5,290L1.5,290C0.948,290 0.5,290.448 0.5,291L0.5,300C0.5,300.552 0.948,301 1.5,301L10.5,301C11.052,301 11.5,300.552 11.5,300L11.5,291Z" style="fill:rgb(191,191,191);"/>
    <path d="M11.5,291C11.5,290.448 11.052,290 10.5,290L1.5,290C0.948,290 0.5,290.448 0.5,291L0.5,300C0.5,300.552 0.948,301 1.5,301L10.5,301C11.052,301 11.5,300.552 11.5,300L11.5,291Z" style="fill:none;stroke:rgb(191,191,191);stroke-width:1px;"/>
    <path d="M5.67,297.716L5.67,298.5L2.765,298.5L2.765,297.716L3.745,297.716L3.745,295.143C3.745,295.078 3.747,295.013 3.749,294.947C3.751,294.88 3.755,294.812 3.759,294.744L3.178,295.227C3.127,295.267 3.076,295.292 3.024,295.301C2.975,295.308 2.929,295.308 2.884,295.301C2.84,295.292 2.8,295.276 2.765,295.255C2.73,295.232 2.705,295.209 2.688,295.185L2.345,294.73L3.934,293.397L4.83,293.397L4.83,297.716L5.67,297.716ZM7.971,297.698C8.082,297.698 8.186,297.677 8.282,297.635C8.38,297.593 8.464,297.536 8.534,297.464C8.604,297.389 8.659,297.303 8.698,297.205C8.741,297.105 8.762,296.996 8.762,296.879C8.762,296.749 8.742,296.632 8.702,296.529C8.665,296.427 8.611,296.34 8.541,296.27C8.471,296.2 8.386,296.147 8.286,296.109C8.188,296.072 8.078,296.053 7.957,296.053C7.847,296.053 7.747,296.073 7.656,296.113C7.565,296.15 7.485,296.205 7.418,296.277C7.352,296.35 7.301,296.436 7.263,296.536C7.226,296.637 7.207,296.75 7.207,296.876C7.207,297.002 7.223,297.115 7.253,297.215C7.283,297.316 7.33,297.402 7.393,297.474C7.456,297.547 7.535,297.603 7.631,297.642C7.727,297.68 7.84,297.698 7.971,297.698ZM7.795,295.36C7.959,295.3 8.141,295.269 8.342,295.269C8.526,295.269 8.708,295.3 8.888,295.36C9.067,295.421 9.228,295.514 9.371,295.64C9.513,295.766 9.627,295.926 9.714,296.12C9.802,296.311 9.847,296.538 9.847,296.799C9.847,297.037 9.802,297.263 9.714,297.478C9.625,297.69 9.499,297.877 9.336,298.038C9.175,298.197 8.98,298.323 8.751,298.416C8.522,298.509 8.269,298.556 7.992,298.556C7.707,298.556 7.451,298.512 7.225,298.423C6.999,298.332 6.806,298.206 6.648,298.045C6.491,297.884 6.371,297.691 6.287,297.467C6.205,297.243 6.165,296.997 6.165,296.729C6.165,296.227 6.358,295.717 6.746,295.199L7.894,293.649C7.947,293.581 8.024,293.523 8.124,293.474C8.227,293.425 8.344,293.4 8.475,293.4L9.441,293.4L7.928,295.206L7.795,295.36Z" style="fill-rule:nonzero;"/>
</svg>
