<?xml version="1.0" encoding="UTF-8" standalone="no"?>
<!DOCTYPE svg PUBLIC "-//W3C//DTD SVG 1.1//EN" "http://www.w3.org/Graphics/SVG/1.1/DTD/svg11.dtd">
<svg width="100%" height="100%" viewBox="0 0 13 52" version="1.1" xmlns="http://www.w3.org/2000/svg" xmlns:xlink="http://www.w3.org/1999/xlink" xml:space="preserve" xmlns:serif="http://www.serif.com/" style="fill-rule:evenodd;clip-rule:evenodd;">
    <g id="bmp00186">
        <path id="Shape" d="M12.2,4.33C12.2,2.6 10.78,1.19 9.02,1.19C7.96,1.19 7.02,1.71 6.44,2.51C5.86,1.71 4.92,1.19 3.86,1.19C2.1,1.19 0.68,2.6 0.68,4.33C0.68,4.58 0.71,4.82 0.77,5.05C1.21,7.76 4.26,10.62 6.44,11.41C8.62,10.62 11.67,7.76 12.11,5.05C12.17,4.82 12.2,4.58 12.2,4.33Z" style="fill:none;fill-rule:nonzero;stroke:rgb(191,64,64);stroke-width:1px;"/>
        <path id="Shape1" serif:id="Shape" d="M12.1,17.33C12.1,15.6 10.68,14.19 8.92,14.19C7.86,14.19 6.92,14.71 6.34,15.51C5.76,14.71 4.82,14.19 3.76,14.19C2,14.19 0.58,15.6 0.58,17.33C0.58,17.58 0.61,17.82 0.67,18.05C1.11,20.76 4.16,23.62 6.34,24.41C8.52,23.62 11.57,20.76 12.01,18.05C12.07,17.82 12.1,17.58 12.1,17.33Z" style="fill:rgb(191,64,64);stroke:rgb(191,64,64);stroke-width:1px;"/>
        <path id="Shape2" serif:id="Shape" d="M12.2,30.33C12.2,28.6 10.78,27.19 9.02,27.19C7.96,27.19 7.02,27.71 6.44,28.51C5.86,27.71 4.92,27.19 3.86,27.19C2.1,27.19 0.68,28.6 0.68,30.33C0.68,30.58 0.71,30.82 0.77,31.05C1.21,33.76 4.26,36.62 6.44,37.41C8.62,36.62 11.67,33.76 12.11,31.05C12.17,30.82 12.2,30.58 12.2,30.33Z" style="fill:rgb(191,64,64);stroke:rgb(191,64,64);stroke-width:1px;"/>
        <path id="Shape3" serif:id="Shape" d="M12.2,43.33C12.2,41.6 10.78,40.19 9.02,40.19C7.96,40.19 7.02,40.71 6.44,41.51C5.86,40.71 4.92,40.19 3.86,40.19C2.1,40.19 0.68,41.6 0.68,43.33C0.68,43.58 0.71,43.82 0.77,44.05C1.21,46.76 4.26,49.62 6.44,50.41C8.62,49.62 11.67,46.76 12.11,44.05C12.17,43.82 12.2,43.58 12.2,43.33Z" style="fill:rgb(191,64,64);stroke:rgb(191,64,64);stroke-width:1px;"/>
    </g>
</svg>
