<?xml version="1.0" encoding="UTF-8" standalone="no"?>
<!DOCTYPE svg PUBLIC "-//W3C//DTD SVG 1.1//EN" "http://www.w3.org/Graphics/SVG/1.1/DTD/svg11.dtd">
<svg width="100%" height="100%" viewBox="0 0 60 15" version="1.1" xmlns="http://www.w3.org/2000/svg" xmlns:xlink="http://www.w3.org/1999/xlink" xml:space="preserve" xmlns:serif="http://www.serif.com/" style="fill-rule:evenodd;clip-rule:evenodd;stroke-linejoin:round;stroke-miterlimit:2;">
    <g id="Icon" transform="matrix(0.0766479,0,0,0.0766479,0,0.404923)">
        <path id="XMLID_3_" d="M98.714,25.845L136.305,51.386L136.305,0L10.697,0C4.768,0 0,4.732 0,10.617L0,109.627L25.733,116.847C27.078,117.211 28.422,116.422 28.85,115.148L35.268,92.094C35.696,90.456 37.652,89.728 39.119,90.699L100.67,132.742C102.993,134.319 101.281,137.959 98.592,137.17L51.16,124.005C49.816,123.641 48.41,124.43 48.104,125.765L41.808,148.819C41.381,150.457 39.363,151.185 37.958,150.214L0,124.127L0,178L124.753,178C131.11,178 136.244,172.843 136.244,166.594L136.244,66.189L110.817,59.151C109.472,58.787 108.127,59.576 107.76,60.85L101.159,83.965C100.67,85.603 98.775,86.27 97.308,85.36L35.696,43.256C33.373,41.679 35.085,38.039 37.774,38.828L85.206,51.993C86.551,52.356 87.895,51.568 88.262,50.294L94.863,27.179C95.352,25.602 97.247,24.874 98.714,25.845Z" style="fill:rgb(255,144,0);"/>
    </g>
    <g transform="matrix(0.0746295,0,0,0.0746559,17.2363,4.47161)">
        <g id="SURGE-XT">
            <path d="M59.424,23.368L40.512,24.328C40.512,21.768 39.76,19.752 38.256,18.28C36.752,16.808 34.656,16.072 31.968,16.072C29.664,16.072 27.824,16.632 26.448,17.752C25.072,18.872 24.384,20.424 24.384,22.408C24.384,24.2 25.184,25.576 26.784,26.536C28.512,27.432 31.68,28.456 36.288,29.608C44.672,31.848 50.8,34.584 54.672,37.816C58.544,41.048 60.48,45.512 60.48,51.208C60.48,58.76 57.952,64.456 52.896,68.296C47.776,72.072 41.312,73.96 33.504,73.96C24.608,73.96 17.408,71.848 11.904,67.624C6.464,63.336 3.776,57.352 3.84,49.672L22.752,48.712C22.688,51.464 23.664,53.688 25.68,55.384C27.696,57.08 30.304,57.928 33.504,57.928C38.88,57.928 41.568,56.008 41.568,52.168C41.568,50.504 40.64,49.08 38.784,47.896C36.928,46.712 33.792,45.544 29.376,44.392C22.336,42.664 16.768,40.456 12.672,37.768C7.872,34.632 5.472,29.704 5.472,22.984C5.472,16.328 7.712,10.856 12.192,6.568C16.736,2.216 23.2,0.04 31.584,0.04C39.904,0.04 46.624,2.12 51.744,6.28C56.736,10.376 59.296,16.072 59.424,23.368ZM249.984,32.008L285.024,32.008L285.024,37.96C285.024,48.648 281.888,57.32 275.616,63.976C269.344,70.632 260.864,73.96 250.176,73.96C239.232,73.96 230.24,70.632 223.2,63.976C216.288,57.384 212.832,48.392 212.832,37C212.832,25.608 216.288,16.616 223.2,10.024C230.24,3.368 239.232,0.04 250.176,0.04C258.688,0.04 265.952,2.168 271.968,6.424C277.984,10.68 282.08,16.616 284.256,24.232L265.056,27.4C262.752,20.104 257.728,16.456 249.984,16.456C244.096,16.456 239.584,18.184 236.448,21.64C233.312,25.096 231.744,30.216 231.744,37C231.744,43.784 233.312,48.904 236.448,52.36C239.584,55.816 244.096,57.544 249.984,57.544C257.088,57.544 261.856,54.504 264.288,48.424L249.984,48.424L249.984,32.008ZM115.104,1.096L133.536,1.096L133.536,42.376C133.536,52.296 130.72,60.04 125.088,65.608C119.52,71.176 111.776,73.96 101.856,73.96C91.872,73.96 84.064,71.176 78.432,65.608C72.8,60.04 69.984,52.296 69.984,42.376L69.984,1.096L88.512,1.096L88.512,42.088C88.512,52.392 92.96,57.544 101.856,57.544C110.688,57.544 115.104,52.392 115.104,42.088L115.104,1.096ZM184.992,72.904L205.92,72.904L191.424,45.736C198.592,41.704 202.176,34.792 202.176,25C202.176,17.576 200.032,11.736 195.744,7.48C191.456,3.224 185.632,1.096 178.272,1.096L145.824,1.096L145.824,72.904L164.352,72.904L164.352,48.904L172.224,48.904L184.992,72.904ZM342.912,17.512L342.912,1.096L295.872,1.096L295.872,72.904L343.008,72.904L343.008,56.488L314.4,56.488L314.4,44.296L338.784,44.296L338.784,28.264L314.4,28.264L314.4,17.512L342.912,17.512ZM438.144,1.096L418.56,36.424L439.392,72.904L417.984,72.904L404.832,48.712L391.584,72.904L370.176,72.904L391.008,36.424L371.424,1.096L392.832,1.096L404.832,24.04L416.736,1.096L438.144,1.096ZM506.016,17.512L506.016,1.096L442.656,1.096L442.656,17.512L465.12,17.512L465.12,72.904L483.648,72.904L483.648,17.512L506.016,17.512ZM164.352,32.488L164.352,17.512L176.064,17.512C178.368,17.512 180.16,18.184 181.44,19.528C182.72,20.872 183.36,22.696 183.36,25C183.36,27.304 182.72,29.128 181.44,30.472C180.16,31.816 178.368,32.488 176.064,32.488L164.352,32.488Z" style="fill:rgb(191,191,191);fill-rule:nonzero;"/>
        </g>
    </g>
</svg>
