<?xml version="1.0" encoding="UTF-8" standalone="no"?>
<!DOCTYPE svg PUBLIC "-//W3C//DTD SVG 1.1//EN" "http://www.w3.org/Graphics/SVG/1.1/DTD/svg11.dtd">
<svg width="100%" height="100%" viewBox="0 0 48 282" version="1.1" xmlns="http://www.w3.org/2000/svg" xmlns:xlink="http://www.w3.org/1999/xlink" xml:space="preserve" xmlns:serif="http://www.serif.com/" style="fill-rule:evenodd;clip-rule:evenodd;stroke-linecap:square;stroke-miterlimit:2;">
    <path d="M8,230C8.276,230 8.5,230.224 8.5,230.5L8.5,277.5C8.5,277.776 8.276,278 8,278C7.724,278 7.5,277.776 7.5,277.5L7.5,230.5C7.5,230.224 7.724,230 8,230Z" style="stroke:black;stroke-width:1px;"/>
    <path d="M24,230C24.276,230 24.5,230.224 24.5,230.5L24.5,277.5C24.5,277.776 24.276,278 24,278C23.724,278 23.5,277.776 23.5,277.5L23.5,230.5C23.5,230.224 23.724,230 24,230Z" style="fill:rgb(64,80,40);"/>
    <path d="M24,229.5C24.552,229.5 25,229.948 25,230.5L25,277.5C25,278.052 24.552,278.5 24,278.5C23.448,278.5 23,278.052 23,277.5L23,230.5C23,229.948 23.448,229.5 24,229.5ZM24,230C23.724,230 23.5,230.224 23.5,230.5L23.5,277.5C23.5,277.776 23.724,278 24,278C24.276,278 24.5,277.776 24.5,277.5L24.5,230.5C24.5,230.224 24.276,230 24,230Z"/>
    <path d="M40,230C40.276,230 40.5,230.224 40.5,230.5L40.5,277.5C40.5,277.776 40.276,278 40,278C39.724,278 39.5,277.776 39.5,277.5L39.5,230.5C39.5,230.224 39.724,230 40,230Z" style="fill:rgb(36,113,219);"/>
    <path d="M40,229.5C40.552,229.5 41,229.948 41,230.5L41,277.5C41,278.052 40.552,278.5 40,278.5C39.448,278.5 39,278.052 39,277.5L39,230.5C39,229.948 39.448,229.5 40,229.5Z" style="fill:rgb(139,191,64);stroke:black;stroke-width:1px;stroke-linecap:butt;stroke-miterlimit:4;"/>
    <path d="M8,155C8.276,155 8.5,155.224 8.5,155.5L8.5,202.5C8.5,202.776 8.276,203 8,203C7.724,203 7.5,202.776 7.5,202.5L7.5,155.5C7.5,155.224 7.724,155 8,155Z" style="fill:none;stroke:black;stroke-width:1px;"/>
    <path d="M24,155C24.276,155 24.5,155.224 24.5,155.5L24.5,202.5C24.5,202.776 24.276,203 24,203C23.724,203 23.5,202.776 23.5,202.5L23.5,155.5C23.5,155.224 23.724,155 24,155Z" style="fill:rgb(64,80,40);"/>
    <path d="M24,154.5C24.552,154.5 25,154.948 25,155.5L25,202.5C25,203.052 24.552,203.5 24,203.5C23.448,203.5 23,203.052 23,202.5L23,155.5C23,154.948 23.448,154.5 24,154.5ZM24,155C23.724,155 23.5,155.224 23.5,155.5L23.5,202.5C23.5,202.776 23.724,203 24,203C24.276,203 24.5,202.776 24.5,202.5L24.5,155.5C24.5,155.224 24.276,155 24,155Z"/>
    <path d="M40,155C40.276,155 40.5,155.224 40.5,155.5L40.5,202.5C40.5,202.776 40.276,203 40,203C39.724,203 39.5,202.776 39.5,202.5L39.5,155.5C39.5,155.224 39.724,155 40,155Z" style="fill:rgb(139,191,64);"/>
    <path d="M40,154.5C40.552,154.5 41,154.948 41,155.5L41,202.5C41,203.052 40.552,203.5 40,203.5C39.448,203.5 39,203.052 39,202.5L39,155.5C39,154.948 39.448,154.5 40,154.5Z" style="fill:none;stroke:black;stroke-width:1px;stroke-linecap:butt;stroke-miterlimit:4;"/>
    <path d="M8,5C8.276,5 8.5,5.224 8.5,5.5L8.5,69.5C8.5,69.776 8.276,70 8,70C7.724,70 7.5,69.776 7.5,69.5L7.5,5.5C7.5,5.224 7.724,5 8,5Z" style="fill:none;stroke:black;stroke-width:1px;"/>
    <path d="M24,5C24.276,5 24.5,5.224 24.5,5.5L24.5,69.5C24.5,69.776 24.276,70 24,70C23.724,70 23.5,69.776 23.5,69.5L23.5,5.5C23.5,5.224 23.724,5 24,5Z" style="fill:rgb(64,80,40);"/>
    <path d="M24,4.523C24.539,4.523 24.977,4.961 24.977,5.5L24.977,69.5C24.977,70.039 24.539,70.477 24,70.477C23.461,70.477 23.023,70.039 23.023,69.5L23.023,5.5C23.023,4.961 23.461,4.523 24,4.523ZM24,5C23.724,5 23.5,5.224 23.5,5.5L23.5,69.5C23.5,69.776 23.724,70 24,70C24.276,70 24.5,69.776 24.5,69.5L24.5,5.5C24.5,5.224 24.276,5 24,5Z"/>
    <path d="M40,5C40.276,5 40.5,5.224 40.5,5.5L40.5,69.5C40.5,69.776 40.276,70 40,70C39.724,70 39.5,69.776 39.5,69.5L39.5,5.5C39.5,5.224 39.724,5 40,5Z" style="fill:rgb(139,191,64);"/>
    <path d="M40,4.5C40.552,4.5 41,4.948 41,5.5L41,69.5C41,70.052 40.552,70.5 40,70.5C39.448,70.5 39,70.052 39,69.5L39,5.5C39,4.948 39.448,4.5 40,4.5Z" style="fill:none;stroke:black;stroke-width:1px;stroke-linecap:butt;stroke-miterlimit:4;"/>
    <g transform="matrix(1.66667,0,0,1,-3.33333,0)">
        <rect x="5" y="112" width="1.5" height="1"/>
    </g>
    <g transform="matrix(1.66667,0,0,1,-7.33333,0)">
        <rect x="9.5" y="112" width="1.5" height="1"/>
    </g>
    <path d="M8,80C8.276,80 8.5,80.224 8.5,80.5L8.5,144.5C8.5,144.776 8.276,145 8,145C7.724,145 7.5,144.776 7.5,144.5L7.5,80.5C7.5,80.224 7.724,80 8,80Z" style="fill:none;stroke:black;stroke-width:1px;"/>
    <g transform="matrix(1.66667,0,0,1,-14,0)">
        <rect x="21" y="112" width="1.5" height="1"/>
    </g>
    <g transform="matrix(1.66667,0,0,1,-18,0)">
        <rect x="25.5" y="112" width="1.5" height="1"/>
    </g>
    <path d="M24,80C24.276,80 24.5,80.224 24.5,80.5L24.5,144.5C24.5,144.776 24.276,145 24,145C23.724,145 23.5,144.776 23.5,144.5L23.5,80.5C23.5,80.224 23.724,80 24,80Z" style="fill:rgb(64,80,40);"/>
    <path d="M24,79.549C24.525,79.549 24.951,79.975 24.951,80.5L24.951,144.5C24.951,145.025 24.525,145.451 24,145.451C23.475,145.451 23.049,145.025 23.049,144.5L23.049,80.5C23.049,79.975 23.475,79.549 24,79.549ZM24,80C23.724,80 23.5,80.224 23.5,80.5L23.5,144.5C23.5,144.776 23.724,145 24,145C24.276,145 24.5,144.776 24.5,144.5L24.5,80.5C24.5,80.224 24.276,80 24,80Z"/>
    <rect x="37" y="112" width="1.5" height="1"/>
    <rect x="41.5" y="112" width="1.5" height="1"/>
    <path d="M40,80C40.276,80 40.5,80.224 40.5,80.5L40.5,144.5C40.5,144.776 40.276,145 40,145C39.724,145 39.5,144.776 39.5,144.5L39.5,80.5C39.5,80.224 39.724,80 40,80Z" style="fill:rgb(139,191,64);"/>
    <path d="M40,79.5C40.552,79.5 41,79.948 41,80.5L41,144.5C41,145.052 40.552,145.5 40,145.5C39.448,145.5 39,145.052 39,144.5L39,80.5C39,79.948 39.448,79.5 40,79.5Z" style="fill:none;stroke:black;stroke-width:1px;stroke-linecap:butt;stroke-miterlimit:4;"/>
</svg>
