<?xml version="1.0" encoding="UTF-8" standalone="no"?>
<!DOCTYPE svg PUBLIC "-//W3C//DTD SVG 1.1//EN" "http://www.w3.org/Graphics/SVG/1.1/DTD/svg11.dtd">
<svg width="100%" height="100%" viewBox="0 0 94 42" version="1.1" xmlns="http://www.w3.org/2000/svg" xmlns:xlink="http://www.w3.org/1999/xlink" xml:space="preserve" xmlns:serif="http://www.serif.com/" style="fill-rule:evenodd;clip-rule:evenodd;">
    <path d="M0.5,2.5C0.5,1.395 1.395,0.5 2.5,0.5L91.5,0.5C92.605,0.5 93.5,1.395 93.5,2.5L93.5,11.5C93.5,12.605 92.605,13.5 91.5,13.5L2.5,13.5C1.395,13.5 0.5,12.605 0.5,11.5L0.5,2.5Z" style="fill:rgb(36,36,36);fill-rule:nonzero;"/>
    <path d="M30.5,3.5C30.5,2.948 30.052,2.5 29.5,2.5L3.5,2.5C2.948,2.5 2.5,2.948 2.5,3.5L2.5,10.5C2.5,11.052 2.948,11.5 3.5,11.5L29.5,11.5C30.052,11.5 30.5,11.052 30.5,10.5L30.5,3.5Z" style="fill:rgb(139,191,64);"/>
    <path d="M30.5,3.5C30.5,2.948 30.052,2.5 29.5,2.5L3.5,2.5C2.948,2.5 2.5,2.948 2.5,3.5L2.5,10.5C2.5,11.052 2.948,11.5 3.5,11.5L29.5,11.5C30.052,11.5 30.5,11.052 30.5,10.5L30.5,3.5Z" style="fill:none;stroke:rgb(139,191,64);stroke-width:1px;"/>
    <path d="M9.686,5.356C9.646,5.42 9.603,5.468 9.558,5.5C9.515,5.532 9.459,5.548 9.39,5.548C9.328,5.548 9.262,5.529 9.19,5.492C9.12,5.452 9.04,5.408 8.95,5.36C8.862,5.312 8.76,5.269 8.646,5.232C8.531,5.192 8.4,5.172 8.254,5.172C8,5.172 7.811,5.227 7.686,5.336C7.563,5.443 7.502,5.588 7.502,5.772C7.502,5.889 7.539,5.987 7.614,6.064C7.688,6.141 7.786,6.208 7.906,6.264C8.028,6.32 8.167,6.372 8.322,6.42C8.479,6.465 8.639,6.517 8.802,6.576C8.964,6.632 9.123,6.699 9.278,6.776C9.435,6.853 9.574,6.952 9.694,7.072C9.816,7.192 9.915,7.339 9.99,7.512C10.064,7.683 10.102,7.889 10.102,8.132C10.102,8.401 10.055,8.653 9.962,8.888C9.868,9.123 9.732,9.328 9.554,9.504C9.378,9.677 9.159,9.815 8.898,9.916C8.639,10.015 8.344,10.064 8.014,10.064C7.832,10.064 7.647,10.045 7.458,10.008C7.271,9.971 7.09,9.919 6.914,9.852C6.738,9.783 6.572,9.701 6.418,9.608C6.263,9.515 6.128,9.411 6.014,9.296L6.414,8.664C6.446,8.619 6.487,8.581 6.538,8.552C6.591,8.52 6.648,8.504 6.71,8.504C6.79,8.504 6.87,8.529 6.95,8.58C7.032,8.631 7.124,8.687 7.226,8.748C7.33,8.809 7.448,8.865 7.582,8.916C7.715,8.967 7.872,8.992 8.054,8.992C8.299,8.992 8.49,8.939 8.626,8.832C8.762,8.723 8.83,8.551 8.83,8.316C8.83,8.18 8.792,8.069 8.718,7.984C8.643,7.899 8.544,7.828 8.422,7.772C8.302,7.716 8.164,7.667 8.01,7.624C7.855,7.581 7.696,7.535 7.534,7.484C7.371,7.431 7.212,7.367 7.058,7.292C6.903,7.215 6.764,7.115 6.642,6.992C6.522,6.867 6.424,6.712 6.35,6.528C6.275,6.341 6.238,6.112 6.238,5.84C6.238,5.621 6.282,5.408 6.37,5.2C6.458,4.992 6.587,4.807 6.758,4.644C6.928,4.481 7.138,4.352 7.386,4.256C7.634,4.157 7.918,4.108 8.238,4.108C8.416,4.108 8.59,4.123 8.758,4.152C8.928,4.179 9.09,4.22 9.242,4.276C9.394,4.329 9.535,4.395 9.666,4.472C9.799,4.547 9.918,4.632 10.022,4.728L9.686,5.356ZM11.899,5.852L11.899,10L10.659,10L10.659,5.852L11.899,5.852ZM12.027,4.716C12.027,4.815 12.007,4.908 11.967,4.996C11.927,5.081 11.873,5.157 11.803,5.224C11.734,5.288 11.653,5.34 11.559,5.38C11.469,5.417 11.371,5.436 11.267,5.436C11.166,5.436 11.071,5.417 10.983,5.38C10.895,5.34 10.817,5.288 10.747,5.224C10.681,5.157 10.627,5.081 10.587,4.996C10.55,4.908 10.531,4.815 10.531,4.716C10.531,4.615 10.55,4.52 10.587,4.432C10.627,4.344 10.681,4.267 10.747,4.2C10.817,4.133 10.895,4.081 10.983,4.044C11.071,4.007 11.166,3.988 11.267,3.988C11.371,3.988 11.469,4.007 11.559,4.044C11.653,4.081 11.734,4.133 11.803,4.2C11.873,4.267 11.927,4.344 11.967,4.432C12.007,4.52 12.027,4.615 12.027,4.716ZM13.788,6.3C13.868,6.225 13.951,6.156 14.036,6.092C14.121,6.028 14.212,5.975 14.308,5.932C14.407,5.887 14.512,5.852 14.624,5.828C14.739,5.801 14.863,5.788 14.996,5.788C15.223,5.788 15.423,5.828 15.596,5.908C15.772,5.985 15.92,6.095 16.04,6.236C16.16,6.375 16.251,6.541 16.312,6.736C16.373,6.928 16.404,7.137 16.404,7.364L16.404,10L15.164,10L15.164,7.364C15.164,7.161 15.117,7.004 15.024,6.892C14.931,6.777 14.793,6.72 14.612,6.72C14.476,6.72 14.348,6.749 14.228,6.808C14.111,6.864 13.996,6.941 13.884,7.04L13.884,10L12.644,10L12.644,5.852L13.412,5.852C13.567,5.852 13.668,5.921 13.716,6.06L13.788,6.3ZM18.667,7.708C18.872,7.708 19.02,7.657 19.111,7.556C19.204,7.452 19.251,7.319 19.251,7.156C19.251,6.988 19.204,6.856 19.111,6.76C19.02,6.664 18.872,6.616 18.667,6.616C18.461,6.616 18.312,6.664 18.219,6.76C18.128,6.856 18.083,6.988 18.083,7.156C18.083,7.236 18.093,7.309 18.115,7.376C18.139,7.443 18.175,7.501 18.223,7.552C18.271,7.6 18.331,7.639 18.403,7.668C18.477,7.695 18.565,7.708 18.667,7.708ZM19.627,10.152C19.627,10.053 19.583,9.983 19.495,9.94C19.407,9.895 19.292,9.863 19.151,9.844C19.009,9.825 18.851,9.815 18.675,9.812C18.501,9.807 18.328,9.796 18.155,9.78C18.077,9.833 18.013,9.893 17.963,9.96C17.915,10.024 17.891,10.097 17.891,10.18C17.891,10.239 17.903,10.292 17.927,10.34C17.953,10.388 17.999,10.429 18.063,10.464C18.127,10.499 18.212,10.525 18.319,10.544C18.428,10.565 18.565,10.576 18.731,10.576C18.909,10.576 19.056,10.565 19.171,10.544C19.285,10.523 19.376,10.493 19.443,10.456C19.512,10.419 19.56,10.373 19.587,10.32C19.613,10.269 19.627,10.213 19.627,10.152ZM20.851,5.98L20.851,6.432C20.851,6.501 20.831,6.556 20.791,6.596C20.753,6.636 20.688,6.667 20.595,6.688L20.295,6.756C20.311,6.815 20.323,6.875 20.331,6.936C20.341,6.997 20.347,7.061 20.347,7.128C20.347,7.336 20.303,7.523 20.215,7.688C20.129,7.853 20.011,7.995 19.859,8.112C19.709,8.227 19.532,8.316 19.327,8.38C19.121,8.441 18.901,8.472 18.667,8.472C18.603,8.472 18.54,8.471 18.479,8.468C18.417,8.463 18.357,8.455 18.299,8.444C18.208,8.5 18.163,8.563 18.163,8.632C18.163,8.701 18.2,8.752 18.275,8.784C18.349,8.813 18.448,8.835 18.571,8.848C18.693,8.859 18.832,8.867 18.987,8.872C19.144,8.875 19.304,8.884 19.467,8.9C19.629,8.913 19.788,8.937 19.943,8.972C20.1,9.007 20.24,9.063 20.363,9.14C20.485,9.217 20.584,9.321 20.659,9.452C20.733,9.58 20.771,9.744 20.771,9.944C20.771,10.131 20.725,10.313 20.635,10.492C20.544,10.671 20.411,10.829 20.235,10.968C20.059,11.107 19.843,11.217 19.587,11.3C19.331,11.385 19.037,11.428 18.707,11.428C18.381,11.428 18.1,11.397 17.863,11.336C17.628,11.275 17.432,11.193 17.275,11.092C17.12,10.993 17.005,10.879 16.931,10.748C16.856,10.617 16.819,10.481 16.819,10.34C16.819,10.156 16.872,10.003 16.979,9.88C17.085,9.757 17.235,9.659 17.427,9.584C17.325,9.523 17.245,9.444 17.187,9.348C17.128,9.252 17.099,9.128 17.099,8.976C17.099,8.915 17.109,8.851 17.131,8.784C17.152,8.715 17.185,8.648 17.231,8.584C17.279,8.517 17.337,8.455 17.407,8.396C17.476,8.337 17.559,8.285 17.655,8.24C17.439,8.125 17.268,7.975 17.143,7.788C17.017,7.599 16.955,7.379 16.955,7.128C16.955,6.92 16.999,6.733 17.087,6.568C17.175,6.4 17.295,6.259 17.447,6.144C17.601,6.027 17.783,5.937 17.991,5.876C18.199,5.812 18.424,5.78 18.667,5.78C19.019,5.78 19.331,5.847 19.603,5.98L20.851,5.98ZM22.488,4.012L22.488,10L21.248,10L21.248,4.012L22.488,4.012ZM25.786,7.428C25.786,7.329 25.773,7.233 25.746,7.14C25.722,7.047 25.681,6.964 25.622,6.892C25.566,6.817 25.491,6.757 25.398,6.712C25.305,6.667 25.191,6.644 25.058,6.644C24.823,6.644 24.639,6.712 24.506,6.848C24.373,6.981 24.285,7.175 24.242,7.428L25.786,7.428ZM24.226,8.148C24.266,8.495 24.371,8.747 24.542,8.904C24.713,9.059 24.933,9.136 25.202,9.136C25.346,9.136 25.47,9.119 25.574,9.084C25.678,9.049 25.77,9.011 25.85,8.968C25.933,8.925 26.007,8.887 26.074,8.852C26.143,8.817 26.215,8.8 26.29,8.8C26.389,8.8 26.463,8.836 26.514,8.908L26.874,9.352C26.746,9.499 26.607,9.619 26.458,9.712C26.311,9.803 26.159,9.875 26.002,9.928C25.847,9.979 25.691,10.013 25.534,10.032C25.379,10.053 25.231,10.064 25.09,10.064C24.799,10.064 24.526,10.017 24.27,9.924C24.017,9.828 23.794,9.687 23.602,9.5C23.413,9.313 23.262,9.081 23.15,8.804C23.041,8.527 22.986,8.204 22.986,7.836C22.986,7.559 23.033,7.296 23.126,7.048C23.222,6.8 23.358,6.583 23.534,6.396C23.713,6.209 23.927,6.061 24.178,5.952C24.431,5.843 24.717,5.788 25.034,5.788C25.309,5.788 25.559,5.831 25.786,5.916C26.015,6.001 26.211,6.125 26.374,6.288C26.539,6.451 26.667,6.651 26.758,6.888C26.851,7.123 26.898,7.389 26.898,7.688C26.898,7.781 26.894,7.857 26.886,7.916C26.878,7.975 26.863,8.021 26.842,8.056C26.821,8.091 26.791,8.115 26.754,8.128C26.719,8.141 26.674,8.148 26.618,8.148L24.226,8.148Z" style="fill:white;fill-rule:nonzero;"/>
    <g opacity="0.75">
        <g transform="matrix(-3.82857e-16,-1,1,-3.82857e-16,19.5,43.5)">
            <rect x="31.5" y="12" width="10" height="1"/>
        </g>
    </g>
    <path d="M42.511,5.356C42.471,5.42 42.428,5.468 42.383,5.5C42.34,5.532 42.284,5.548 42.215,5.548C42.154,5.548 42.087,5.529 42.015,5.492C41.946,5.452 41.866,5.408 41.775,5.36C41.687,5.312 41.586,5.269 41.471,5.232C41.356,5.192 41.225,5.172 41.079,5.172C40.826,5.172 40.636,5.227 40.511,5.336C40.388,5.443 40.327,5.588 40.327,5.772C40.327,5.889 40.364,5.987 40.439,6.064C40.514,6.141 40.611,6.208 40.731,6.264C40.853,6.32 40.992,6.372 41.147,6.42C41.304,6.465 41.464,6.517 41.627,6.576C41.789,6.632 41.948,6.699 42.103,6.776C42.26,6.853 42.399,6.952 42.519,7.072C42.642,7.192 42.74,7.339 42.815,7.512C42.89,7.683 42.927,7.889 42.927,8.132C42.927,8.401 42.88,8.653 42.787,8.888C42.694,9.123 42.558,9.328 42.379,9.504C42.203,9.677 41.984,9.815 41.723,9.916C41.464,10.015 41.17,10.064 40.839,10.064C40.658,10.064 40.472,10.045 40.283,10.008C40.096,9.971 39.915,9.919 39.739,9.852C39.563,9.783 39.398,9.701 39.243,9.608C39.088,9.515 38.954,9.411 38.839,9.296L39.239,8.664C39.271,8.619 39.312,8.581 39.363,8.552C39.416,8.52 39.474,8.504 39.535,8.504C39.615,8.504 39.695,8.529 39.775,8.58C39.858,8.631 39.95,8.687 40.051,8.748C40.155,8.809 40.274,8.865 40.407,8.916C40.54,8.967 40.698,8.992 40.879,8.992C41.124,8.992 41.315,8.939 41.451,8.832C41.587,8.723 41.655,8.551 41.655,8.316C41.655,8.18 41.618,8.069 41.543,7.984C41.468,7.899 41.37,7.828 41.247,7.772C41.127,7.716 40.99,7.667 40.835,7.624C40.68,7.581 40.522,7.535 40.359,7.484C40.196,7.431 40.038,7.367 39.883,7.292C39.728,7.215 39.59,7.115 39.467,6.992C39.347,6.867 39.25,6.712 39.175,6.528C39.1,6.341 39.063,6.112 39.063,5.84C39.063,5.621 39.107,5.408 39.195,5.2C39.283,4.992 39.412,4.807 39.583,4.644C39.754,4.481 39.963,4.352 40.211,4.256C40.459,4.157 40.743,4.108 41.063,4.108C41.242,4.108 41.415,4.123 41.583,4.152C41.754,4.179 41.915,4.22 42.067,4.276C42.219,4.329 42.36,4.395 42.491,4.472C42.624,4.547 42.743,4.632 42.847,4.728L42.511,5.356ZM44.65,6.216C44.799,6.088 44.96,5.985 45.134,5.908C45.31,5.828 45.519,5.788 45.762,5.788C45.988,5.788 46.188,5.828 46.362,5.908C46.538,5.985 46.686,6.095 46.806,6.236C46.926,6.375 47.016,6.541 47.078,6.736C47.139,6.928 47.17,7.137 47.17,7.364L47.17,10L45.93,10L45.93,7.364C45.93,7.161 45.883,7.004 45.79,6.892C45.696,6.777 45.559,6.72 45.378,6.72C45.242,6.72 45.114,6.749 44.994,6.808C44.876,6.864 44.762,6.941 44.65,7.04L44.65,10L43.41,10L43.41,4.012L44.65,4.012L44.65,6.216ZM49.12,5.852L49.12,10L47.88,10L47.88,5.852L49.12,5.852ZM49.248,4.716C49.248,4.815 49.228,4.908 49.188,4.996C49.148,5.081 49.094,5.157 49.024,5.224C48.955,5.288 48.874,5.34 48.78,5.38C48.69,5.417 48.592,5.436 48.488,5.436C48.387,5.436 48.292,5.417 48.204,5.38C48.116,5.34 48.038,5.288 47.968,5.224C47.902,5.157 47.848,5.081 47.808,4.996C47.771,4.908 47.752,4.815 47.752,4.716C47.752,4.615 47.771,4.52 47.808,4.432C47.848,4.344 47.902,4.267 47.968,4.2C48.038,4.133 48.116,4.081 48.204,4.044C48.292,4.007 48.387,3.988 48.488,3.988C48.592,3.988 48.69,4.007 48.78,4.044C48.874,4.081 48.955,4.133 49.024,4.2C49.094,4.267 49.148,4.344 49.188,4.432C49.228,4.52 49.248,4.615 49.248,4.716ZM54.129,6.708L54.129,8.768C54.129,8.864 54.152,8.944 54.197,9.008C54.245,9.069 54.313,9.1 54.401,9.1C54.446,9.1 54.484,9.096 54.513,9.088C54.545,9.077 54.572,9.067 54.593,9.056C54.617,9.043 54.638,9.032 54.657,9.024C54.678,9.013 54.702,9.008 54.729,9.008C54.766,9.008 54.796,9.017 54.817,9.036C54.841,9.052 54.865,9.079 54.889,9.116L55.265,9.704C55.105,9.824 54.925,9.915 54.725,9.976C54.525,10.035 54.318,10.064 54.105,10.064C53.908,10.064 53.733,10.036 53.581,9.98C53.432,9.921 53.305,9.84 53.201,9.736C53.1,9.629 53.022,9.501 52.969,9.352C52.916,9.203 52.889,9.036 52.889,8.852L52.889,6.708L51.413,6.708L51.413,10L50.173,10L50.173,6.704L49.901,6.648C49.808,6.627 49.732,6.593 49.673,6.548C49.617,6.503 49.589,6.436 49.589,6.348L49.589,5.86L50.173,5.86L50.173,5.624C50.173,5.387 50.21,5.172 50.285,4.98C50.362,4.788 50.472,4.624 50.613,4.488C50.757,4.352 50.932,4.247 51.137,4.172C51.342,4.097 51.576,4.06 51.837,4.06C51.938,4.06 52.032,4.067 52.117,4.08C52.202,4.091 52.292,4.109 52.385,4.136L52.361,4.74C52.358,4.783 52.348,4.819 52.329,4.848C52.31,4.875 52.285,4.897 52.253,4.916C52.224,4.932 52.192,4.944 52.157,4.952C52.122,4.96 52.088,4.964 52.053,4.964C51.944,4.964 51.846,4.975 51.761,4.996C51.676,5.017 51.604,5.056 51.545,5.112C51.489,5.165 51.446,5.237 51.417,5.328C51.388,5.416 51.373,5.528 51.373,5.664L51.373,5.86L52.961,5.86L53.209,4.84C53.241,4.712 53.332,4.648 53.481,4.648L54.129,4.648L54.129,5.86L55.157,5.86L55.157,6.708L54.129,6.708Z" style="fill:rgb(180,180,180);fill-rule:nonzero;"/>
    <g opacity="0.75">
        <g transform="matrix(-3.82857e-16,-1,1,-3.82857e-16,49.5,73.5)">
            <rect x="61.5" y="12" width="10" height="1"/>
        </g>
    </g>
    <path d="M73.692,7.084C73.692,7.505 73.619,7.895 73.472,8.252C73.328,8.607 73.124,8.915 72.86,9.176C72.596,9.435 72.278,9.637 71.904,9.784C71.534,9.928 71.122,10 70.668,10L68.404,10L68.404,4.172L70.668,4.172C71.122,4.172 71.534,4.245 71.904,4.392C72.278,4.539 72.596,4.741 72.86,5C73.124,5.259 73.328,5.567 73.472,5.924C73.619,6.279 73.692,6.665 73.692,7.084ZM72.308,7.084C72.308,6.796 72.271,6.536 72.196,6.304C72.122,6.072 72.013,5.876 71.872,5.716C71.734,5.553 71.563,5.429 71.36,5.344C71.158,5.256 70.927,5.212 70.668,5.212L69.764,5.212L69.764,8.96L70.668,8.96C70.927,8.96 71.158,8.917 71.36,8.832C71.563,8.744 71.734,8.62 71.872,8.46C72.013,8.297 72.122,8.1 72.196,7.868C72.271,7.636 72.308,7.375 72.308,7.084ZM75.324,6.492C75.452,6.268 75.598,6.092 75.764,5.964C75.932,5.836 76.124,5.772 76.34,5.772C76.526,5.772 76.678,5.816 76.796,5.904L76.716,6.816C76.702,6.875 76.68,6.915 76.648,6.936C76.618,6.957 76.577,6.968 76.524,6.968C76.502,6.968 76.474,6.967 76.44,6.964C76.405,6.961 76.369,6.959 76.332,6.956C76.294,6.951 76.256,6.947 76.216,6.944C76.178,6.939 76.144,6.936 76.112,6.936C75.93,6.936 75.785,6.984 75.676,7.08C75.569,7.176 75.478,7.309 75.404,7.48L75.404,10L74.164,10L74.164,5.852L74.9,5.852C74.961,5.852 75.012,5.857 75.052,5.868C75.094,5.879 75.129,5.896 75.156,5.92C75.185,5.941 75.206,5.971 75.22,6.008C75.236,6.045 75.249,6.091 75.26,6.144L75.324,6.492ZM79.199,8.312C78.951,8.323 78.747,8.344 78.587,8.376C78.427,8.408 78.301,8.448 78.207,8.496C78.114,8.544 78.049,8.599 78.011,8.66C77.977,8.721 77.959,8.788 77.959,8.86C77.959,9.001 77.998,9.101 78.075,9.16C78.153,9.216 78.266,9.244 78.415,9.244C78.575,9.244 78.715,9.216 78.835,9.16C78.955,9.104 79.077,9.013 79.199,8.888L79.199,8.312ZM76.967,6.428C77.218,6.207 77.495,6.043 77.799,5.936C78.106,5.827 78.434,5.772 78.783,5.772C79.034,5.772 79.259,5.813 79.459,5.896C79.662,5.976 79.833,6.089 79.971,6.236C80.113,6.38 80.221,6.552 80.295,6.752C80.37,6.952 80.407,7.171 80.407,7.408L80.407,10L79.839,10C79.722,10 79.633,9.984 79.571,9.952C79.513,9.92 79.463,9.853 79.423,9.752L79.335,9.524C79.231,9.612 79.131,9.689 79.035,9.756C78.939,9.823 78.839,9.88 78.735,9.928C78.634,9.973 78.525,10.007 78.407,10.028C78.293,10.052 78.165,10.064 78.023,10.064C77.834,10.064 77.662,10.04 77.507,9.992C77.353,9.941 77.221,9.868 77.111,9.772C77.005,9.676 76.922,9.557 76.863,9.416C76.805,9.272 76.775,9.107 76.775,8.92C76.775,8.771 76.813,8.62 76.887,8.468C76.962,8.313 77.091,8.173 77.275,8.048C77.459,7.92 77.707,7.813 78.019,7.728C78.331,7.643 78.725,7.595 79.199,7.584L79.199,7.408C79.199,7.165 79.149,6.991 79.047,6.884C78.949,6.775 78.807,6.72 78.623,6.72C78.477,6.72 78.357,6.736 78.263,6.768C78.17,6.8 78.086,6.836 78.011,6.876C77.939,6.916 77.869,6.952 77.799,6.984C77.73,7.016 77.647,7.032 77.551,7.032C77.466,7.032 77.394,7.011 77.335,6.968C77.277,6.925 77.229,6.875 77.191,6.816L76.967,6.428ZM87.137,5.852L85.849,10L84.841,10C84.788,10 84.742,9.984 84.705,9.952C84.668,9.92 84.638,9.867 84.617,9.792L84.025,7.724C83.996,7.631 83.969,7.539 83.945,7.448C83.924,7.357 83.904,7.265 83.885,7.172C83.866,7.265 83.845,7.359 83.821,7.452C83.8,7.545 83.774,7.639 83.745,7.732L83.145,9.792C83.105,9.931 83.017,10 82.881,10L81.921,10L80.633,5.852L81.625,5.852C81.713,5.852 81.786,5.873 81.845,5.916C81.906,5.956 81.948,6.007 81.969,6.068L82.385,7.928C82.42,8.069 82.45,8.207 82.477,8.34C82.504,8.471 82.528,8.603 82.549,8.736C82.584,8.603 82.62,8.471 82.657,8.34C82.697,8.207 82.74,8.069 82.785,7.928L83.305,6.064C83.326,6.003 83.366,5.952 83.425,5.912C83.484,5.869 83.553,5.848 83.633,5.848L84.185,5.848C84.273,5.848 84.346,5.869 84.405,5.912C84.466,5.952 84.508,6.003 84.529,6.064L85.025,7.928C85.065,8.069 85.104,8.207 85.141,8.34C85.181,8.473 85.217,8.608 85.249,8.744C85.27,8.611 85.296,8.477 85.325,8.344C85.354,8.211 85.388,8.072 85.425,7.928L85.865,6.068C85.886,6.007 85.926,5.956 85.985,5.916C86.044,5.873 86.113,5.852 86.193,5.852L87.137,5.852Z" style="fill:rgb(180,180,180);fill-rule:nonzero;"/>
    <path d="M2.5,1L91.5,1L91.5,0L2.5,0L2.5,1ZM93,2.5L93,11.5L94,11.5L94,2.5L93,2.5ZM91.5,13L2.5,13L2.5,14L91.5,14L91.5,13ZM1,11.5L1,2.5L0,2.5L0,11.5L1,11.5ZM2.5,13C1.672,13 1,12.328 1,11.5L0,11.5C0,12.881 1.119,14 2.5,14L2.5,13ZM93,11.5C93,12.328 92.328,13 91.5,13L91.5,14C92.881,14 94,12.881 94,11.5L93,11.5ZM91.5,1C92.328,1 93,1.672 93,2.5L94,2.5C94,1.119 92.881,0 91.5,0L91.5,1ZM2.5,0C1.119,0 0,1.119 0,2.5L1,2.5C1,1.672 1.672,1 2.5,1L2.5,0Z" style="fill-rule:nonzero;"/>
    <path d="M0.5,16.5C0.5,15.395 1.395,14.5 2.5,14.5L91.5,14.5C92.605,14.5 93.5,15.395 93.5,16.5L93.5,25.5C93.5,26.605 92.605,27.5 91.5,27.5L2.5,27.5C1.395,27.5 0.5,26.605 0.5,25.5L0.5,16.5Z" style="fill:rgb(36,36,36);fill-rule:nonzero;"/>
    <path d="M9.686,19.356C9.646,19.42 9.603,19.468 9.558,19.5C9.515,19.532 9.459,19.548 9.39,19.548C9.328,19.548 9.262,19.529 9.19,19.492C9.12,19.452 9.04,19.408 8.95,19.36C8.862,19.312 8.76,19.269 8.646,19.232C8.531,19.192 8.4,19.172 8.254,19.172C8,19.172 7.811,19.227 7.686,19.336C7.563,19.443 7.502,19.588 7.502,19.772C7.502,19.889 7.539,19.987 7.614,20.064C7.688,20.141 7.786,20.208 7.906,20.264C8.028,20.32 8.167,20.372 8.322,20.42C8.479,20.465 8.639,20.517 8.802,20.576C8.964,20.632 9.123,20.699 9.278,20.776C9.435,20.853 9.574,20.952 9.694,21.072C9.816,21.192 9.915,21.339 9.99,21.512C10.064,21.683 10.102,21.889 10.102,22.132C10.102,22.401 10.055,22.653 9.962,22.888C9.868,23.123 9.732,23.328 9.554,23.504C9.378,23.677 9.159,23.815 8.898,23.916C8.639,24.015 8.344,24.064 8.014,24.064C7.832,24.064 7.647,24.045 7.458,24.008C7.271,23.971 7.09,23.919 6.914,23.852C6.738,23.783 6.572,23.701 6.418,23.608C6.263,23.515 6.128,23.411 6.014,23.296L6.414,22.664C6.446,22.619 6.487,22.581 6.538,22.552C6.591,22.52 6.648,22.504 6.71,22.504C6.79,22.504 6.87,22.529 6.95,22.58C7.032,22.631 7.124,22.687 7.226,22.748C7.33,22.809 7.448,22.865 7.582,22.916C7.715,22.967 7.872,22.992 8.054,22.992C8.299,22.992 8.49,22.939 8.626,22.832C8.762,22.723 8.83,22.551 8.83,22.316C8.83,22.18 8.792,22.069 8.718,21.984C8.643,21.899 8.544,21.828 8.422,21.772C8.302,21.716 8.164,21.667 8.01,21.624C7.855,21.581 7.696,21.535 7.534,21.484C7.371,21.431 7.212,21.367 7.058,21.292C6.903,21.215 6.764,21.115 6.642,20.992C6.522,20.867 6.424,20.712 6.35,20.528C6.275,20.341 6.238,20.112 6.238,19.84C6.238,19.621 6.282,19.408 6.37,19.2C6.458,18.992 6.587,18.807 6.758,18.644C6.928,18.481 7.138,18.352 7.386,18.256C7.634,18.157 7.918,18.108 8.238,18.108C8.416,18.108 8.59,18.123 8.758,18.152C8.928,18.179 9.09,18.22 9.242,18.276C9.394,18.329 9.535,18.395 9.666,18.472C9.799,18.547 9.918,18.632 10.022,18.728L9.686,19.356ZM11.899,19.852L11.899,24L10.659,24L10.659,19.852L11.899,19.852ZM12.027,18.716C12.027,18.815 12.007,18.908 11.967,18.996C11.927,19.081 11.873,19.157 11.803,19.224C11.734,19.288 11.653,19.34 11.559,19.38C11.469,19.417 11.371,19.436 11.267,19.436C11.166,19.436 11.071,19.417 10.983,19.38C10.895,19.34 10.817,19.288 10.747,19.224C10.681,19.157 10.627,19.081 10.587,18.996C10.55,18.908 10.531,18.815 10.531,18.716C10.531,18.615 10.55,18.52 10.587,18.432C10.627,18.344 10.681,18.267 10.747,18.2C10.817,18.133 10.895,18.081 10.983,18.044C11.071,18.007 11.166,17.988 11.267,17.988C11.371,17.988 11.469,18.007 11.559,18.044C11.653,18.081 11.734,18.133 11.803,18.2C11.873,18.267 11.927,18.344 11.967,18.432C12.007,18.52 12.027,18.615 12.027,18.716ZM13.788,20.3C13.868,20.225 13.951,20.156 14.036,20.092C14.121,20.028 14.212,19.975 14.308,19.932C14.407,19.887 14.512,19.852 14.624,19.828C14.739,19.801 14.863,19.788 14.996,19.788C15.223,19.788 15.423,19.828 15.596,19.908C15.772,19.985 15.92,20.095 16.04,20.236C16.16,20.375 16.251,20.541 16.312,20.736C16.373,20.928 16.404,21.137 16.404,21.364L16.404,24L15.164,24L15.164,21.364C15.164,21.161 15.117,21.004 15.024,20.892C14.931,20.777 14.793,20.72 14.612,20.72C14.476,20.72 14.348,20.749 14.228,20.808C14.111,20.864 13.996,20.941 13.884,21.04L13.884,24L12.644,24L12.644,19.852L13.412,19.852C13.567,19.852 13.668,19.921 13.716,20.06L13.788,20.3ZM18.667,21.708C18.872,21.708 19.02,21.657 19.111,21.556C19.204,21.452 19.251,21.319 19.251,21.156C19.251,20.988 19.204,20.856 19.111,20.76C19.02,20.664 18.872,20.616 18.667,20.616C18.461,20.616 18.312,20.664 18.219,20.76C18.128,20.856 18.083,20.988 18.083,21.156C18.083,21.236 18.093,21.309 18.115,21.376C18.139,21.443 18.175,21.501 18.223,21.552C18.271,21.6 18.331,21.639 18.403,21.668C18.477,21.695 18.565,21.708 18.667,21.708ZM19.627,24.152C19.627,24.053 19.583,23.983 19.495,23.94C19.407,23.895 19.292,23.863 19.151,23.844C19.009,23.825 18.851,23.815 18.675,23.812C18.501,23.807 18.328,23.796 18.155,23.78C18.077,23.833 18.013,23.893 17.963,23.96C17.915,24.024 17.891,24.097 17.891,24.18C17.891,24.239 17.903,24.292 17.927,24.34C17.953,24.388 17.999,24.429 18.063,24.464C18.127,24.499 18.212,24.525 18.319,24.544C18.428,24.565 18.565,24.576 18.731,24.576C18.909,24.576 19.056,24.565 19.171,24.544C19.285,24.523 19.376,24.493 19.443,24.456C19.512,24.419 19.56,24.373 19.587,24.32C19.613,24.269 19.627,24.213 19.627,24.152ZM20.851,19.98L20.851,20.432C20.851,20.501 20.831,20.556 20.791,20.596C20.753,20.636 20.688,20.667 20.595,20.688L20.295,20.756C20.311,20.815 20.323,20.875 20.331,20.936C20.341,20.997 20.347,21.061 20.347,21.128C20.347,21.336 20.303,21.523 20.215,21.688C20.129,21.853 20.011,21.995 19.859,22.112C19.709,22.227 19.532,22.316 19.327,22.38C19.121,22.441 18.901,22.472 18.667,22.472C18.603,22.472 18.54,22.471 18.479,22.468C18.417,22.463 18.357,22.455 18.299,22.444C18.208,22.5 18.163,22.563 18.163,22.632C18.163,22.701 18.2,22.752 18.275,22.784C18.349,22.813 18.448,22.835 18.571,22.848C18.693,22.859 18.832,22.867 18.987,22.872C19.144,22.875 19.304,22.884 19.467,22.9C19.629,22.913 19.788,22.937 19.943,22.972C20.1,23.007 20.24,23.063 20.363,23.14C20.485,23.217 20.584,23.321 20.659,23.452C20.733,23.58 20.771,23.744 20.771,23.944C20.771,24.131 20.725,24.313 20.635,24.492C20.544,24.671 20.411,24.829 20.235,24.968C20.059,25.107 19.843,25.217 19.587,25.3C19.331,25.385 19.037,25.428 18.707,25.428C18.381,25.428 18.1,25.397 17.863,25.336C17.628,25.275 17.432,25.193 17.275,25.092C17.12,24.993 17.005,24.879 16.931,24.748C16.856,24.617 16.819,24.481 16.819,24.34C16.819,24.156 16.872,24.003 16.979,23.88C17.085,23.757 17.235,23.659 17.427,23.584C17.325,23.523 17.245,23.444 17.187,23.348C17.128,23.252 17.099,23.128 17.099,22.976C17.099,22.915 17.109,22.851 17.131,22.784C17.152,22.715 17.185,22.648 17.231,22.584C17.279,22.517 17.337,22.455 17.407,22.396C17.476,22.337 17.559,22.285 17.655,22.24C17.439,22.125 17.268,21.975 17.143,21.788C17.017,21.599 16.955,21.379 16.955,21.128C16.955,20.92 16.999,20.733 17.087,20.568C17.175,20.4 17.295,20.259 17.447,20.144C17.601,20.027 17.783,19.937 17.991,19.876C18.199,19.812 18.424,19.78 18.667,19.78C19.019,19.78 19.331,19.847 19.603,19.98L20.851,19.98ZM22.488,18.012L22.488,24L21.248,24L21.248,18.012L22.488,18.012ZM25.786,21.428C25.786,21.329 25.773,21.233 25.746,21.14C25.722,21.047 25.681,20.964 25.622,20.892C25.566,20.817 25.491,20.757 25.398,20.712C25.305,20.667 25.191,20.644 25.058,20.644C24.823,20.644 24.639,20.712 24.506,20.848C24.373,20.981 24.285,21.175 24.242,21.428L25.786,21.428ZM24.226,22.148C24.266,22.495 24.371,22.747 24.542,22.904C24.713,23.059 24.933,23.136 25.202,23.136C25.346,23.136 25.47,23.119 25.574,23.084C25.678,23.049 25.77,23.011 25.85,22.968C25.933,22.925 26.007,22.887 26.074,22.852C26.143,22.817 26.215,22.8 26.29,22.8C26.389,22.8 26.463,22.836 26.514,22.908L26.874,23.352C26.746,23.499 26.607,23.619 26.458,23.712C26.311,23.803 26.159,23.875 26.002,23.928C25.847,23.979 25.691,24.013 25.534,24.032C25.379,24.053 25.231,24.064 25.09,24.064C24.799,24.064 24.526,24.017 24.27,23.924C24.017,23.828 23.794,23.687 23.602,23.5C23.413,23.313 23.262,23.081 23.15,22.804C23.041,22.527 22.986,22.204 22.986,21.836C22.986,21.559 23.033,21.296 23.126,21.048C23.222,20.8 23.358,20.583 23.534,20.396C23.713,20.209 23.927,20.061 24.178,19.952C24.431,19.843 24.717,19.788 25.034,19.788C25.309,19.788 25.559,19.831 25.786,19.916C26.015,20.001 26.211,20.125 26.374,20.288C26.539,20.451 26.667,20.651 26.758,20.888C26.851,21.123 26.898,21.389 26.898,21.688C26.898,21.781 26.894,21.857 26.886,21.916C26.878,21.975 26.863,22.021 26.842,22.056C26.821,22.091 26.791,22.115 26.754,22.128C26.719,22.141 26.674,22.148 26.618,22.148L24.226,22.148Z" style="fill:rgb(180,180,180);fill-rule:nonzero;"/>
    <g opacity="0.75">
        <g transform="matrix(-3.82857e-16,-1,1,-3.82857e-16,5.5,57.5)">
            <rect x="31.5" y="26" width="10" height="1"/>
        </g>
    </g>
    <path d="M60.5,17.5C60.5,16.948 60.052,16.5 59.5,16.5L34.5,16.5C33.948,16.5 33.5,16.948 33.5,17.5L33.5,24.5C33.5,25.052 33.948,25.5 34.5,25.5L59.5,25.5C60.052,25.5 60.5,25.052 60.5,24.5L60.5,17.5Z" style="fill:rgb(139,191,64);"/>
    <path d="M60.5,17.5C60.5,16.948 60.052,16.5 59.5,16.5L34.5,16.5C33.948,16.5 33.5,16.948 33.5,17.5L33.5,24.5C33.5,25.052 33.948,25.5 34.5,25.5L59.5,25.5C60.052,25.5 60.5,25.052 60.5,24.5L60.5,17.5Z" style="fill:none;stroke:rgb(139,191,64);stroke-width:1px;"/>
    <path d="M42.511,19.356C42.471,19.42 42.428,19.468 42.383,19.5C42.34,19.532 42.284,19.548 42.215,19.548C42.154,19.548 42.087,19.529 42.015,19.492C41.946,19.452 41.866,19.408 41.775,19.36C41.687,19.312 41.586,19.269 41.471,19.232C41.356,19.192 41.225,19.172 41.079,19.172C40.826,19.172 40.636,19.227 40.511,19.336C40.388,19.443 40.327,19.588 40.327,19.772C40.327,19.889 40.364,19.987 40.439,20.064C40.514,20.141 40.611,20.208 40.731,20.264C40.853,20.32 40.992,20.372 41.147,20.42C41.304,20.465 41.464,20.517 41.627,20.576C41.789,20.632 41.948,20.699 42.103,20.776C42.26,20.853 42.399,20.952 42.519,21.072C42.642,21.192 42.74,21.339 42.815,21.512C42.89,21.683 42.927,21.889 42.927,22.132C42.927,22.401 42.88,22.653 42.787,22.888C42.694,23.123 42.558,23.328 42.379,23.504C42.203,23.677 41.984,23.815 41.723,23.916C41.464,24.015 41.17,24.064 40.839,24.064C40.658,24.064 40.472,24.045 40.283,24.008C40.096,23.971 39.915,23.919 39.739,23.852C39.563,23.783 39.398,23.701 39.243,23.608C39.088,23.515 38.954,23.411 38.839,23.296L39.239,22.664C39.271,22.619 39.312,22.581 39.363,22.552C39.416,22.52 39.474,22.504 39.535,22.504C39.615,22.504 39.695,22.529 39.775,22.58C39.858,22.631 39.95,22.687 40.051,22.748C40.155,22.809 40.274,22.865 40.407,22.916C40.54,22.967 40.698,22.992 40.879,22.992C41.124,22.992 41.315,22.939 41.451,22.832C41.587,22.723 41.655,22.551 41.655,22.316C41.655,22.18 41.618,22.069 41.543,21.984C41.468,21.899 41.37,21.828 41.247,21.772C41.127,21.716 40.99,21.667 40.835,21.624C40.68,21.581 40.522,21.535 40.359,21.484C40.196,21.431 40.038,21.367 39.883,21.292C39.728,21.215 39.59,21.115 39.467,20.992C39.347,20.867 39.25,20.712 39.175,20.528C39.1,20.341 39.063,20.112 39.063,19.84C39.063,19.621 39.107,19.408 39.195,19.2C39.283,18.992 39.412,18.807 39.583,18.644C39.754,18.481 39.963,18.352 40.211,18.256C40.459,18.157 40.743,18.108 41.063,18.108C41.242,18.108 41.415,18.123 41.583,18.152C41.754,18.179 41.915,18.22 42.067,18.276C42.219,18.329 42.36,18.395 42.491,18.472C42.624,18.547 42.743,18.632 42.847,18.728L42.511,19.356ZM44.65,20.216C44.799,20.088 44.96,19.985 45.134,19.908C45.31,19.828 45.519,19.788 45.762,19.788C45.988,19.788 46.188,19.828 46.362,19.908C46.538,19.985 46.686,20.095 46.806,20.236C46.926,20.375 47.016,20.541 47.078,20.736C47.139,20.928 47.17,21.137 47.17,21.364L47.17,24L45.93,24L45.93,21.364C45.93,21.161 45.883,21.004 45.79,20.892C45.696,20.777 45.559,20.72 45.378,20.72C45.242,20.72 45.114,20.749 44.994,20.808C44.876,20.864 44.762,20.941 44.65,21.04L44.65,24L43.41,24L43.41,18.012L44.65,18.012L44.65,20.216ZM49.12,19.852L49.12,24L47.88,24L47.88,19.852L49.12,19.852ZM49.248,18.716C49.248,18.815 49.228,18.908 49.188,18.996C49.148,19.081 49.094,19.157 49.024,19.224C48.955,19.288 48.874,19.34 48.78,19.38C48.69,19.417 48.592,19.436 48.488,19.436C48.387,19.436 48.292,19.417 48.204,19.38C48.116,19.34 48.038,19.288 47.968,19.224C47.902,19.157 47.848,19.081 47.808,18.996C47.771,18.908 47.752,18.815 47.752,18.716C47.752,18.615 47.771,18.52 47.808,18.432C47.848,18.344 47.902,18.267 47.968,18.2C48.038,18.133 48.116,18.081 48.204,18.044C48.292,18.007 48.387,17.988 48.488,17.988C48.592,17.988 48.69,18.007 48.78,18.044C48.874,18.081 48.955,18.133 49.024,18.2C49.094,18.267 49.148,18.344 49.188,18.432C49.228,18.52 49.248,18.615 49.248,18.716ZM54.129,20.708L54.129,22.768C54.129,22.864 54.152,22.944 54.197,23.008C54.245,23.069 54.313,23.1 54.401,23.1C54.446,23.1 54.484,23.096 54.513,23.088C54.545,23.077 54.572,23.067 54.593,23.056C54.617,23.043 54.638,23.032 54.657,23.024C54.678,23.013 54.702,23.008 54.729,23.008C54.766,23.008 54.796,23.017 54.817,23.036C54.841,23.052 54.865,23.079 54.889,23.116L55.265,23.704C55.105,23.824 54.925,23.915 54.725,23.976C54.525,24.035 54.318,24.064 54.105,24.064C53.908,24.064 53.733,24.036 53.581,23.98C53.432,23.921 53.305,23.84 53.201,23.736C53.1,23.629 53.022,23.501 52.969,23.352C52.916,23.203 52.889,23.036 52.889,22.852L52.889,20.708L51.413,20.708L51.413,24L50.173,24L50.173,20.704L49.901,20.648C49.808,20.627 49.732,20.593 49.673,20.548C49.617,20.503 49.589,20.436 49.589,20.348L49.589,19.86L50.173,19.86L50.173,19.624C50.173,19.387 50.21,19.172 50.285,18.98C50.362,18.788 50.472,18.624 50.613,18.488C50.757,18.352 50.932,18.247 51.137,18.172C51.342,18.097 51.576,18.06 51.837,18.06C51.938,18.06 52.032,18.067 52.117,18.08C52.202,18.091 52.292,18.109 52.385,18.136L52.361,18.74C52.358,18.783 52.348,18.819 52.329,18.848C52.31,18.875 52.285,18.897 52.253,18.916C52.224,18.932 52.192,18.944 52.157,18.952C52.122,18.96 52.088,18.964 52.053,18.964C51.944,18.964 51.846,18.975 51.761,18.996C51.676,19.017 51.604,19.056 51.545,19.112C51.489,19.165 51.446,19.237 51.417,19.328C51.388,19.416 51.373,19.528 51.373,19.664L51.373,19.86L52.961,19.86L53.209,18.84C53.241,18.712 53.332,18.648 53.481,18.648L54.129,18.648L54.129,19.86L55.157,19.86L55.157,20.708L54.129,20.708Z" style="fill:white;fill-rule:nonzero;"/>
    <g opacity="0.75">
        <g transform="matrix(-3.82857e-16,-1,1,-3.82857e-16,35.5,87.5)">
            <rect x="61.5" y="26" width="10" height="1"/>
        </g>
    </g>
    <path d="M73.692,21.084C73.692,21.505 73.619,21.895 73.472,22.252C73.328,22.607 73.124,22.915 72.86,23.176C72.596,23.435 72.278,23.637 71.904,23.784C71.534,23.928 71.122,24 70.668,24L68.404,24L68.404,18.172L70.668,18.172C71.122,18.172 71.534,18.245 71.904,18.392C72.278,18.539 72.596,18.741 72.86,19C73.124,19.259 73.328,19.567 73.472,19.924C73.619,20.279 73.692,20.665 73.692,21.084ZM72.308,21.084C72.308,20.796 72.271,20.536 72.196,20.304C72.122,20.072 72.013,19.876 71.872,19.716C71.734,19.553 71.563,19.429 71.36,19.344C71.158,19.256 70.927,19.212 70.668,19.212L69.764,19.212L69.764,22.96L70.668,22.96C70.927,22.96 71.158,22.917 71.36,22.832C71.563,22.744 71.734,22.62 71.872,22.46C72.013,22.297 72.122,22.1 72.196,21.868C72.271,21.636 72.308,21.375 72.308,21.084ZM75.324,20.492C75.452,20.268 75.598,20.092 75.764,19.964C75.932,19.836 76.124,19.772 76.34,19.772C76.526,19.772 76.678,19.816 76.796,19.904L76.716,20.816C76.702,20.875 76.68,20.915 76.648,20.936C76.618,20.957 76.577,20.968 76.524,20.968C76.502,20.968 76.474,20.967 76.44,20.964C76.405,20.961 76.369,20.959 76.332,20.956C76.294,20.951 76.256,20.947 76.216,20.944C76.178,20.939 76.144,20.936 76.112,20.936C75.93,20.936 75.785,20.984 75.676,21.08C75.569,21.176 75.478,21.309 75.404,21.48L75.404,24L74.164,24L74.164,19.852L74.9,19.852C74.961,19.852 75.012,19.857 75.052,19.868C75.094,19.879 75.129,19.896 75.156,19.92C75.185,19.941 75.206,19.971 75.22,20.008C75.236,20.045 75.249,20.091 75.26,20.144L75.324,20.492ZM79.199,22.312C78.951,22.323 78.747,22.344 78.587,22.376C78.427,22.408 78.301,22.448 78.207,22.496C78.114,22.544 78.049,22.599 78.011,22.66C77.977,22.721 77.959,22.788 77.959,22.86C77.959,23.001 77.998,23.101 78.075,23.16C78.153,23.216 78.266,23.244 78.415,23.244C78.575,23.244 78.715,23.216 78.835,23.16C78.955,23.104 79.077,23.013 79.199,22.888L79.199,22.312ZM76.967,20.428C77.218,20.207 77.495,20.043 77.799,19.936C78.106,19.827 78.434,19.772 78.783,19.772C79.034,19.772 79.259,19.813 79.459,19.896C79.662,19.976 79.833,20.089 79.971,20.236C80.113,20.38 80.221,20.552 80.295,20.752C80.37,20.952 80.407,21.171 80.407,21.408L80.407,24L79.839,24C79.722,24 79.633,23.984 79.571,23.952C79.513,23.92 79.463,23.853 79.423,23.752L79.335,23.524C79.231,23.612 79.131,23.689 79.035,23.756C78.939,23.823 78.839,23.88 78.735,23.928C78.634,23.973 78.525,24.007 78.407,24.028C78.293,24.052 78.165,24.064 78.023,24.064C77.834,24.064 77.662,24.04 77.507,23.992C77.353,23.941 77.221,23.868 77.111,23.772C77.005,23.676 76.922,23.557 76.863,23.416C76.805,23.272 76.775,23.107 76.775,22.92C76.775,22.771 76.813,22.62 76.887,22.468C76.962,22.313 77.091,22.173 77.275,22.048C77.459,21.92 77.707,21.813 78.019,21.728C78.331,21.643 78.725,21.595 79.199,21.584L79.199,21.408C79.199,21.165 79.149,20.991 79.047,20.884C78.949,20.775 78.807,20.72 78.623,20.72C78.477,20.72 78.357,20.736 78.263,20.768C78.17,20.8 78.086,20.836 78.011,20.876C77.939,20.916 77.869,20.952 77.799,20.984C77.73,21.016 77.647,21.032 77.551,21.032C77.466,21.032 77.394,21.011 77.335,20.968C77.277,20.925 77.229,20.875 77.191,20.816L76.967,20.428ZM87.137,19.852L85.849,24L84.841,24C84.788,24 84.742,23.984 84.705,23.952C84.668,23.92 84.638,23.867 84.617,23.792L84.025,21.724C83.996,21.631 83.969,21.539 83.945,21.448C83.924,21.357 83.904,21.265 83.885,21.172C83.866,21.265 83.845,21.359 83.821,21.452C83.8,21.545 83.774,21.639 83.745,21.732L83.145,23.792C83.105,23.931 83.017,24 82.881,24L81.921,24L80.633,19.852L81.625,19.852C81.713,19.852 81.786,19.873 81.845,19.916C81.906,19.956 81.948,20.007 81.969,20.068L82.385,21.928C82.42,22.069 82.45,22.207 82.477,22.34C82.504,22.471 82.528,22.603 82.549,22.736C82.584,22.603 82.62,22.471 82.657,22.34C82.697,22.207 82.74,22.069 82.785,21.928L83.305,20.064C83.326,20.003 83.366,19.952 83.425,19.912C83.484,19.869 83.553,19.848 83.633,19.848L84.185,19.848C84.273,19.848 84.346,19.869 84.405,19.912C84.466,19.952 84.508,20.003 84.529,20.064L85.025,21.928C85.065,22.069 85.104,22.207 85.141,22.34C85.181,22.473 85.217,22.608 85.249,22.744C85.27,22.611 85.296,22.477 85.325,22.344C85.354,22.211 85.388,22.072 85.425,21.928L85.865,20.068C85.886,20.007 85.926,19.956 85.985,19.916C86.044,19.873 86.113,19.852 86.193,19.852L87.137,19.852Z" style="fill:rgb(180,180,180);fill-rule:nonzero;"/>
    <path d="M2.5,15L91.5,15L91.5,14L2.5,14L2.5,15ZM93,16.5L93,25.5L94,25.5L94,16.5L93,16.5ZM91.5,27L2.5,27L2.5,28L91.5,28L91.5,27ZM1,25.5L1,16.5L0,16.5L0,25.5L1,25.5ZM2.5,27C1.672,27 1,26.328 1,25.5L0,25.5C0,26.881 1.119,28 2.5,28L2.5,27ZM93,25.5C93,26.328 92.328,27 91.5,27L91.5,28C92.881,28 94,26.881 94,25.5L93,25.5ZM91.5,15C92.328,15 93,15.672 93,16.5L94,16.5C94,15.119 92.881,14 91.5,14L91.5,15ZM2.5,14C1.119,14 0,15.119 0,16.5L1,16.5C1,15.672 1.672,15 2.5,15L2.5,14Z" style="fill-rule:nonzero;"/>
    <path d="M0.5,30.5C0.5,29.395 1.395,28.5 2.5,28.5L91.5,28.5C92.605,28.5 93.5,29.395 93.5,30.5L93.5,39.5C93.5,40.605 92.605,41.5 91.5,41.5L2.5,41.5C1.395,41.5 0.5,40.605 0.5,39.5L0.5,30.5Z" style="fill:rgb(36,36,36);fill-rule:nonzero;"/>
    <path d="M9.686,33.356C9.646,33.42 9.603,33.468 9.558,33.5C9.515,33.532 9.459,33.548 9.39,33.548C9.328,33.548 9.262,33.529 9.19,33.492C9.12,33.452 9.04,33.408 8.95,33.36C8.862,33.312 8.76,33.269 8.646,33.232C8.531,33.192 8.4,33.172 8.254,33.172C8,33.172 7.811,33.227 7.686,33.336C7.563,33.443 7.502,33.588 7.502,33.772C7.502,33.889 7.539,33.987 7.614,34.064C7.688,34.141 7.786,34.208 7.906,34.264C8.028,34.32 8.167,34.372 8.322,34.42C8.479,34.465 8.639,34.517 8.802,34.576C8.964,34.632 9.123,34.699 9.278,34.776C9.435,34.853 9.574,34.952 9.694,35.072C9.816,35.192 9.915,35.339 9.99,35.512C10.064,35.683 10.102,35.889 10.102,36.132C10.102,36.401 10.055,36.653 9.962,36.888C9.868,37.123 9.732,37.328 9.554,37.504C9.378,37.677 9.159,37.815 8.898,37.916C8.639,38.015 8.344,38.064 8.014,38.064C7.832,38.064 7.647,38.045 7.458,38.008C7.271,37.971 7.09,37.919 6.914,37.852C6.738,37.783 6.572,37.701 6.418,37.608C6.263,37.515 6.128,37.411 6.014,37.296L6.414,36.664C6.446,36.619 6.487,36.581 6.538,36.552C6.591,36.52 6.648,36.504 6.71,36.504C6.79,36.504 6.87,36.529 6.95,36.58C7.032,36.631 7.124,36.687 7.226,36.748C7.33,36.809 7.448,36.865 7.582,36.916C7.715,36.967 7.872,36.992 8.054,36.992C8.299,36.992 8.49,36.939 8.626,36.832C8.762,36.723 8.83,36.551 8.83,36.316C8.83,36.18 8.792,36.069 8.718,35.984C8.643,35.899 8.544,35.828 8.422,35.772C8.302,35.716 8.164,35.667 8.01,35.624C7.855,35.581 7.696,35.535 7.534,35.484C7.371,35.431 7.212,35.367 7.058,35.292C6.903,35.215 6.764,35.115 6.642,34.992C6.522,34.867 6.424,34.712 6.35,34.528C6.275,34.341 6.238,34.112 6.238,33.84C6.238,33.621 6.282,33.408 6.37,33.2C6.458,32.992 6.587,32.807 6.758,32.644C6.928,32.481 7.138,32.352 7.386,32.256C7.634,32.157 7.918,32.108 8.238,32.108C8.416,32.108 8.59,32.123 8.758,32.152C8.928,32.179 9.09,32.22 9.242,32.276C9.394,32.329 9.535,32.395 9.666,32.472C9.799,32.547 9.918,32.632 10.022,32.728L9.686,33.356ZM11.899,33.852L11.899,38L10.659,38L10.659,33.852L11.899,33.852ZM12.027,32.716C12.027,32.815 12.007,32.908 11.967,32.996C11.927,33.081 11.873,33.157 11.803,33.224C11.734,33.288 11.653,33.34 11.559,33.38C11.469,33.417 11.371,33.436 11.267,33.436C11.166,33.436 11.071,33.417 10.983,33.38C10.895,33.34 10.817,33.288 10.747,33.224C10.681,33.157 10.627,33.081 10.587,32.996C10.55,32.908 10.531,32.815 10.531,32.716C10.531,32.615 10.55,32.52 10.587,32.432C10.627,32.344 10.681,32.267 10.747,32.2C10.817,32.133 10.895,32.081 10.983,32.044C11.071,32.007 11.166,31.988 11.267,31.988C11.371,31.988 11.469,32.007 11.559,32.044C11.653,32.081 11.734,32.133 11.803,32.2C11.873,32.267 11.927,32.344 11.967,32.432C12.007,32.52 12.027,32.615 12.027,32.716ZM13.788,34.3C13.868,34.225 13.951,34.156 14.036,34.092C14.121,34.028 14.212,33.975 14.308,33.932C14.407,33.887 14.512,33.852 14.624,33.828C14.739,33.801 14.863,33.788 14.996,33.788C15.223,33.788 15.423,33.828 15.596,33.908C15.772,33.985 15.92,34.095 16.04,34.236C16.16,34.375 16.251,34.541 16.312,34.736C16.373,34.928 16.404,35.137 16.404,35.364L16.404,38L15.164,38L15.164,35.364C15.164,35.161 15.117,35.004 15.024,34.892C14.931,34.777 14.793,34.72 14.612,34.72C14.476,34.72 14.348,34.749 14.228,34.808C14.111,34.864 13.996,34.941 13.884,35.04L13.884,38L12.644,38L12.644,33.852L13.412,33.852C13.567,33.852 13.668,33.921 13.716,34.06L13.788,34.3ZM18.667,35.708C18.872,35.708 19.02,35.657 19.111,35.556C19.204,35.452 19.251,35.319 19.251,35.156C19.251,34.988 19.204,34.856 19.111,34.76C19.02,34.664 18.872,34.616 18.667,34.616C18.461,34.616 18.312,34.664 18.219,34.76C18.128,34.856 18.083,34.988 18.083,35.156C18.083,35.236 18.093,35.309 18.115,35.376C18.139,35.443 18.175,35.501 18.223,35.552C18.271,35.6 18.331,35.639 18.403,35.668C18.477,35.695 18.565,35.708 18.667,35.708ZM19.627,38.152C19.627,38.053 19.583,37.983 19.495,37.94C19.407,37.895 19.292,37.863 19.151,37.844C19.009,37.825 18.851,37.815 18.675,37.812C18.501,37.807 18.328,37.796 18.155,37.78C18.077,37.833 18.013,37.893 17.963,37.96C17.915,38.024 17.891,38.097 17.891,38.18C17.891,38.239 17.903,38.292 17.927,38.34C17.953,38.388 17.999,38.429 18.063,38.464C18.127,38.499 18.212,38.525 18.319,38.544C18.428,38.565 18.565,38.576 18.731,38.576C18.909,38.576 19.056,38.565 19.171,38.544C19.285,38.523 19.376,38.493 19.443,38.456C19.512,38.419 19.56,38.373 19.587,38.32C19.613,38.269 19.627,38.213 19.627,38.152ZM20.851,33.98L20.851,34.432C20.851,34.501 20.831,34.556 20.791,34.596C20.753,34.636 20.688,34.667 20.595,34.688L20.295,34.756C20.311,34.815 20.323,34.875 20.331,34.936C20.341,34.997 20.347,35.061 20.347,35.128C20.347,35.336 20.303,35.523 20.215,35.688C20.129,35.853 20.011,35.995 19.859,36.112C19.709,36.227 19.532,36.316 19.327,36.38C19.121,36.441 18.901,36.472 18.667,36.472C18.603,36.472 18.54,36.471 18.479,36.468C18.417,36.463 18.357,36.455 18.299,36.444C18.208,36.5 18.163,36.563 18.163,36.632C18.163,36.701 18.2,36.752 18.275,36.784C18.349,36.813 18.448,36.835 18.571,36.848C18.693,36.859 18.832,36.867 18.987,36.872C19.144,36.875 19.304,36.884 19.467,36.9C19.629,36.913 19.788,36.937 19.943,36.972C20.1,37.007 20.24,37.063 20.363,37.14C20.485,37.217 20.584,37.321 20.659,37.452C20.733,37.58 20.771,37.744 20.771,37.944C20.771,38.131 20.725,38.313 20.635,38.492C20.544,38.671 20.411,38.829 20.235,38.968C20.059,39.107 19.843,39.217 19.587,39.3C19.331,39.385 19.037,39.428 18.707,39.428C18.381,39.428 18.1,39.397 17.863,39.336C17.628,39.275 17.432,39.193 17.275,39.092C17.12,38.993 17.005,38.879 16.931,38.748C16.856,38.617 16.819,38.481 16.819,38.34C16.819,38.156 16.872,38.003 16.979,37.88C17.085,37.757 17.235,37.659 17.427,37.584C17.325,37.523 17.245,37.444 17.187,37.348C17.128,37.252 17.099,37.128 17.099,36.976C17.099,36.915 17.109,36.851 17.131,36.784C17.152,36.715 17.185,36.648 17.231,36.584C17.279,36.517 17.337,36.455 17.407,36.396C17.476,36.337 17.559,36.285 17.655,36.24C17.439,36.125 17.268,35.975 17.143,35.788C17.017,35.599 16.955,35.379 16.955,35.128C16.955,34.92 16.999,34.733 17.087,34.568C17.175,34.4 17.295,34.259 17.447,34.144C17.601,34.027 17.783,33.937 17.991,33.876C18.199,33.812 18.424,33.78 18.667,33.78C19.019,33.78 19.331,33.847 19.603,33.98L20.851,33.98ZM22.488,32.012L22.488,38L21.248,38L21.248,32.012L22.488,32.012ZM25.786,35.428C25.786,35.329 25.773,35.233 25.746,35.14C25.722,35.047 25.681,34.964 25.622,34.892C25.566,34.817 25.491,34.757 25.398,34.712C25.305,34.667 25.191,34.644 25.058,34.644C24.823,34.644 24.639,34.712 24.506,34.848C24.373,34.981 24.285,35.175 24.242,35.428L25.786,35.428ZM24.226,36.148C24.266,36.495 24.371,36.747 24.542,36.904C24.713,37.059 24.933,37.136 25.202,37.136C25.346,37.136 25.47,37.119 25.574,37.084C25.678,37.049 25.77,37.011 25.85,36.968C25.933,36.925 26.007,36.887 26.074,36.852C26.143,36.817 26.215,36.8 26.29,36.8C26.389,36.8 26.463,36.836 26.514,36.908L26.874,37.352C26.746,37.499 26.607,37.619 26.458,37.712C26.311,37.803 26.159,37.875 26.002,37.928C25.847,37.979 25.691,38.013 25.534,38.032C25.379,38.053 25.231,38.064 25.09,38.064C24.799,38.064 24.526,38.017 24.27,37.924C24.017,37.828 23.794,37.687 23.602,37.5C23.413,37.313 23.262,37.081 23.15,36.804C23.041,36.527 22.986,36.204 22.986,35.836C22.986,35.559 23.033,35.296 23.126,35.048C23.222,34.8 23.358,34.583 23.534,34.396C23.713,34.209 23.927,34.061 24.178,33.952C24.431,33.843 24.717,33.788 25.034,33.788C25.309,33.788 25.559,33.831 25.786,33.916C26.015,34.001 26.211,34.125 26.374,34.288C26.539,34.451 26.667,34.651 26.758,34.888C26.851,35.123 26.898,35.389 26.898,35.688C26.898,35.781 26.894,35.857 26.886,35.916C26.878,35.975 26.863,36.021 26.842,36.056C26.821,36.091 26.791,36.115 26.754,36.128C26.719,36.141 26.674,36.148 26.618,36.148L24.226,36.148Z" style="fill:rgb(180,180,180);fill-rule:nonzero;"/>
    <g opacity="0.75">
        <g transform="matrix(-3.82857e-16,-1,1,-3.82857e-16,-8.5,71.5)">
            <rect x="31.5" y="40" width="10" height="1"/>
        </g>
    </g>
    <path d="M42.511,33.356C42.471,33.42 42.428,33.468 42.383,33.5C42.34,33.532 42.284,33.548 42.215,33.548C42.154,33.548 42.087,33.529 42.015,33.492C41.946,33.452 41.866,33.408 41.775,33.36C41.687,33.312 41.586,33.269 41.471,33.232C41.356,33.192 41.225,33.172 41.079,33.172C40.826,33.172 40.636,33.227 40.511,33.336C40.388,33.443 40.327,33.588 40.327,33.772C40.327,33.889 40.364,33.987 40.439,34.064C40.514,34.141 40.611,34.208 40.731,34.264C40.853,34.32 40.992,34.372 41.147,34.42C41.304,34.465 41.464,34.517 41.627,34.576C41.789,34.632 41.948,34.699 42.103,34.776C42.26,34.853 42.399,34.952 42.519,35.072C42.642,35.192 42.74,35.339 42.815,35.512C42.89,35.683 42.927,35.889 42.927,36.132C42.927,36.401 42.88,36.653 42.787,36.888C42.694,37.123 42.558,37.328 42.379,37.504C42.203,37.677 41.984,37.815 41.723,37.916C41.464,38.015 41.17,38.064 40.839,38.064C40.658,38.064 40.472,38.045 40.283,38.008C40.096,37.971 39.915,37.919 39.739,37.852C39.563,37.783 39.398,37.701 39.243,37.608C39.088,37.515 38.954,37.411 38.839,37.296L39.239,36.664C39.271,36.619 39.312,36.581 39.363,36.552C39.416,36.52 39.474,36.504 39.535,36.504C39.615,36.504 39.695,36.529 39.775,36.58C39.858,36.631 39.95,36.687 40.051,36.748C40.155,36.809 40.274,36.865 40.407,36.916C40.54,36.967 40.698,36.992 40.879,36.992C41.124,36.992 41.315,36.939 41.451,36.832C41.587,36.723 41.655,36.551 41.655,36.316C41.655,36.18 41.618,36.069 41.543,35.984C41.468,35.899 41.37,35.828 41.247,35.772C41.127,35.716 40.99,35.667 40.835,35.624C40.68,35.581 40.522,35.535 40.359,35.484C40.196,35.431 40.038,35.367 39.883,35.292C39.728,35.215 39.59,35.115 39.467,34.992C39.347,34.867 39.25,34.712 39.175,34.528C39.1,34.341 39.063,34.112 39.063,33.84C39.063,33.621 39.107,33.408 39.195,33.2C39.283,32.992 39.412,32.807 39.583,32.644C39.754,32.481 39.963,32.352 40.211,32.256C40.459,32.157 40.743,32.108 41.063,32.108C41.242,32.108 41.415,32.123 41.583,32.152C41.754,32.179 41.915,32.22 42.067,32.276C42.219,32.329 42.36,32.395 42.491,32.472C42.624,32.547 42.743,32.632 42.847,32.728L42.511,33.356ZM44.65,34.216C44.799,34.088 44.96,33.985 45.134,33.908C45.31,33.828 45.519,33.788 45.762,33.788C45.988,33.788 46.188,33.828 46.362,33.908C46.538,33.985 46.686,34.095 46.806,34.236C46.926,34.375 47.016,34.541 47.078,34.736C47.139,34.928 47.17,35.137 47.17,35.364L47.17,38L45.93,38L45.93,35.364C45.93,35.161 45.883,35.004 45.79,34.892C45.696,34.777 45.559,34.72 45.378,34.72C45.242,34.72 45.114,34.749 44.994,34.808C44.876,34.864 44.762,34.941 44.65,35.04L44.65,38L43.41,38L43.41,32.012L44.65,32.012L44.65,34.216ZM49.12,33.852L49.12,38L47.88,38L47.88,33.852L49.12,33.852ZM49.248,32.716C49.248,32.815 49.228,32.908 49.188,32.996C49.148,33.081 49.094,33.157 49.024,33.224C48.955,33.288 48.874,33.34 48.78,33.38C48.69,33.417 48.592,33.436 48.488,33.436C48.387,33.436 48.292,33.417 48.204,33.38C48.116,33.34 48.038,33.288 47.968,33.224C47.902,33.157 47.848,33.081 47.808,32.996C47.771,32.908 47.752,32.815 47.752,32.716C47.752,32.615 47.771,32.52 47.808,32.432C47.848,32.344 47.902,32.267 47.968,32.2C48.038,32.133 48.116,32.081 48.204,32.044C48.292,32.007 48.387,31.988 48.488,31.988C48.592,31.988 48.69,32.007 48.78,32.044C48.874,32.081 48.955,32.133 49.024,32.2C49.094,32.267 49.148,32.344 49.188,32.432C49.228,32.52 49.248,32.615 49.248,32.716ZM54.129,34.708L54.129,36.768C54.129,36.864 54.152,36.944 54.197,37.008C54.245,37.069 54.313,37.1 54.401,37.1C54.446,37.1 54.484,37.096 54.513,37.088C54.545,37.077 54.572,37.067 54.593,37.056C54.617,37.043 54.638,37.032 54.657,37.024C54.678,37.013 54.702,37.008 54.729,37.008C54.766,37.008 54.796,37.017 54.817,37.036C54.841,37.052 54.865,37.079 54.889,37.116L55.265,37.704C55.105,37.824 54.925,37.915 54.725,37.976C54.525,38.035 54.318,38.064 54.105,38.064C53.908,38.064 53.733,38.036 53.581,37.98C53.432,37.921 53.305,37.84 53.201,37.736C53.1,37.629 53.022,37.501 52.969,37.352C52.916,37.203 52.889,37.036 52.889,36.852L52.889,34.708L51.413,34.708L51.413,38L50.173,38L50.173,34.704L49.901,34.648C49.808,34.627 49.732,34.593 49.673,34.548C49.617,34.503 49.589,34.436 49.589,34.348L49.589,33.86L50.173,33.86L50.173,33.624C50.173,33.387 50.21,33.172 50.285,32.98C50.362,32.788 50.472,32.624 50.613,32.488C50.757,32.352 50.932,32.247 51.137,32.172C51.342,32.097 51.576,32.06 51.837,32.06C51.938,32.06 52.032,32.067 52.117,32.08C52.202,32.091 52.292,32.109 52.385,32.136L52.361,32.74C52.358,32.783 52.348,32.819 52.329,32.848C52.31,32.875 52.285,32.897 52.253,32.916C52.224,32.932 52.192,32.944 52.157,32.952C52.122,32.96 52.088,32.964 52.053,32.964C51.944,32.964 51.846,32.975 51.761,32.996C51.676,33.017 51.604,33.056 51.545,33.112C51.489,33.165 51.446,33.237 51.417,33.328C51.388,33.416 51.373,33.528 51.373,33.664L51.373,33.86L52.961,33.86L53.209,32.84C53.241,32.712 53.332,32.648 53.481,32.648L54.129,32.648L54.129,33.86L55.157,33.86L55.157,34.708L54.129,34.708Z" style="fill:rgb(180,180,180);fill-rule:nonzero;"/>
    <g opacity="0.75">
        <g transform="matrix(-3.82857e-16,-1,1,-3.82857e-16,21.5,101.5)">
            <rect x="61.5" y="40" width="10" height="1"/>
        </g>
    </g>
    <path d="M91.5,31.5C91.5,30.948 91.052,30.5 90.5,30.5L64.5,30.5C63.948,30.5 63.5,30.948 63.5,31.5L63.5,38.5C63.5,39.052 63.948,39.5 64.5,39.5L90.5,39.5C91.052,39.5 91.5,39.052 91.5,38.5L91.5,31.5Z" style="fill:rgb(139,191,64);"/>
    <path d="M91.5,31.5C91.5,30.948 91.052,30.5 90.5,30.5L64.5,30.5C63.948,30.5 63.5,30.948 63.5,31.5L63.5,38.5C63.5,39.052 63.948,39.5 64.5,39.5L90.5,39.5C91.052,39.5 91.5,39.052 91.5,38.5L91.5,31.5Z" style="fill:none;stroke:rgb(139,191,64);stroke-width:1px;"/>
    <path d="M73.692,35.084C73.692,35.505 73.619,35.895 73.472,36.252C73.328,36.607 73.124,36.915 72.86,37.176C72.596,37.435 72.278,37.637 71.904,37.784C71.534,37.928 71.122,38 70.668,38L68.404,38L68.404,32.172L70.668,32.172C71.122,32.172 71.534,32.245 71.904,32.392C72.278,32.539 72.596,32.741 72.86,33C73.124,33.259 73.328,33.567 73.472,33.924C73.619,34.279 73.692,34.665 73.692,35.084ZM72.308,35.084C72.308,34.796 72.271,34.536 72.196,34.304C72.122,34.072 72.013,33.876 71.872,33.716C71.734,33.553 71.563,33.429 71.36,33.344C71.158,33.256 70.927,33.212 70.668,33.212L69.764,33.212L69.764,36.96L70.668,36.96C70.927,36.96 71.158,36.917 71.36,36.832C71.563,36.744 71.734,36.62 71.872,36.46C72.013,36.297 72.122,36.1 72.196,35.868C72.271,35.636 72.308,35.375 72.308,35.084ZM75.324,34.492C75.452,34.268 75.598,34.092 75.764,33.964C75.932,33.836 76.124,33.772 76.34,33.772C76.526,33.772 76.678,33.816 76.796,33.904L76.716,34.816C76.702,34.875 76.68,34.915 76.648,34.936C76.618,34.957 76.577,34.968 76.524,34.968C76.502,34.968 76.474,34.967 76.44,34.964C76.405,34.961 76.369,34.959 76.332,34.956C76.294,34.951 76.256,34.947 76.216,34.944C76.178,34.939 76.144,34.936 76.112,34.936C75.93,34.936 75.785,34.984 75.676,35.08C75.569,35.176 75.478,35.309 75.404,35.48L75.404,38L74.164,38L74.164,33.852L74.9,33.852C74.961,33.852 75.012,33.857 75.052,33.868C75.094,33.879 75.129,33.896 75.156,33.92C75.185,33.941 75.206,33.971 75.22,34.008C75.236,34.045 75.249,34.091 75.26,34.144L75.324,34.492ZM79.199,36.312C78.951,36.323 78.747,36.344 78.587,36.376C78.427,36.408 78.301,36.448 78.207,36.496C78.114,36.544 78.049,36.599 78.011,36.66C77.977,36.721 77.959,36.788 77.959,36.86C77.959,37.001 77.998,37.101 78.075,37.16C78.153,37.216 78.266,37.244 78.415,37.244C78.575,37.244 78.715,37.216 78.835,37.16C78.955,37.104 79.077,37.013 79.199,36.888L79.199,36.312ZM76.967,34.428C77.218,34.207 77.495,34.043 77.799,33.936C78.106,33.827 78.434,33.772 78.783,33.772C79.034,33.772 79.259,33.813 79.459,33.896C79.662,33.976 79.833,34.089 79.971,34.236C80.113,34.38 80.221,34.552 80.295,34.752C80.37,34.952 80.407,35.171 80.407,35.408L80.407,38L79.839,38C79.722,38 79.633,37.984 79.571,37.952C79.513,37.92 79.463,37.853 79.423,37.752L79.335,37.524C79.231,37.612 79.131,37.689 79.035,37.756C78.939,37.823 78.839,37.88 78.735,37.928C78.634,37.973 78.525,38.007 78.407,38.028C78.293,38.052 78.165,38.064 78.023,38.064C77.834,38.064 77.662,38.04 77.507,37.992C77.353,37.941 77.221,37.868 77.111,37.772C77.005,37.676 76.922,37.557 76.863,37.416C76.805,37.272 76.775,37.107 76.775,36.92C76.775,36.771 76.813,36.62 76.887,36.468C76.962,36.313 77.091,36.173 77.275,36.048C77.459,35.92 77.707,35.813 78.019,35.728C78.331,35.643 78.725,35.595 79.199,35.584L79.199,35.408C79.199,35.165 79.149,34.991 79.047,34.884C78.949,34.775 78.807,34.72 78.623,34.72C78.477,34.72 78.357,34.736 78.263,34.768C78.17,34.8 78.086,34.836 78.011,34.876C77.939,34.916 77.869,34.952 77.799,34.984C77.73,35.016 77.647,35.032 77.551,35.032C77.466,35.032 77.394,35.011 77.335,34.968C77.277,34.925 77.229,34.875 77.191,34.816L76.967,34.428ZM87.137,33.852L85.849,38L84.841,38C84.788,38 84.742,37.984 84.705,37.952C84.668,37.92 84.638,37.867 84.617,37.792L84.025,35.724C83.996,35.631 83.969,35.539 83.945,35.448C83.924,35.357 83.904,35.265 83.885,35.172C83.866,35.265 83.845,35.359 83.821,35.452C83.8,35.545 83.774,35.639 83.745,35.732L83.145,37.792C83.105,37.931 83.017,38 82.881,38L81.921,38L80.633,33.852L81.625,33.852C81.713,33.852 81.786,33.873 81.845,33.916C81.906,33.956 81.948,34.007 81.969,34.068L82.385,35.928C82.42,36.069 82.45,36.207 82.477,36.34C82.504,36.471 82.528,36.603 82.549,36.736C82.584,36.603 82.62,36.471 82.657,36.34C82.697,36.207 82.74,36.069 82.785,35.928L83.305,34.064C83.326,34.003 83.366,33.952 83.425,33.912C83.484,33.869 83.553,33.848 83.633,33.848L84.185,33.848C84.273,33.848 84.346,33.869 84.405,33.912C84.466,33.952 84.508,34.003 84.529,34.064L85.025,35.928C85.065,36.069 85.104,36.207 85.141,36.34C85.181,36.473 85.217,36.608 85.249,36.744C85.27,36.611 85.296,36.477 85.325,36.344C85.354,36.211 85.388,36.072 85.425,35.928L85.865,34.068C85.886,34.007 85.926,33.956 85.985,33.916C86.044,33.873 86.113,33.852 86.193,33.852L87.137,33.852Z" style="fill:white;fill-rule:nonzero;"/>
    <path d="M2.5,29L91.5,29L91.5,28L2.5,28L2.5,29ZM93,30.5L93,39.5L94,39.5L94,30.5L93,30.5ZM91.5,41L2.5,41L2.5,42L91.5,42L91.5,41ZM1,39.5L1,30.5L0,30.5L0,39.5L1,39.5ZM2.5,41C1.672,41 1,40.328 1,39.5L0,39.5C0,40.881 1.119,42 2.5,42L2.5,41ZM93,39.5C93,40.328 92.328,41 91.5,41L91.5,42C92.881,42 94,40.881 94,39.5L93,39.5ZM91.5,29C92.328,29 93,29.672 93,30.5L94,30.5C94,29.119 92.881,28 91.5,28L91.5,29ZM2.5,28C1.119,28 0,29.119 0,30.5L1,30.5C1,29.672 1.672,29 2.5,29L2.5,28Z" style="fill-rule:nonzero;"/>
</svg>
