<?xml version="1.0" encoding="UTF-8" standalone="no"?>
<!DOCTYPE svg PUBLIC "-//W3C//DTD SVG 1.1//EN" "http://www.w3.org/Graphics/SVG/1.1/DTD/svg11.dtd">
<svg width="100%" height="100%" viewBox="0 0 43 14" version="1.1" xmlns="http://www.w3.org/2000/svg" xmlns:xlink="http://www.w3.org/1999/xlink" xml:space="preserve" xmlns:serif="http://www.serif.com/" style="fill-rule:evenodd;clip-rule:evenodd;">
    <path d="M39.5,4.5C39.5,3.948 39.052,3.5 38.5,3.5L4.5,3.5C3.948,3.5 3.5,3.948 3.5,4.5L3.5,9.5C3.5,10.052 3.948,10.5 4.5,10.5L38.5,10.5C39.052,10.5 39.5,10.052 39.5,9.5L39.5,4.5Z" style="fill:rgb(139,191,64);"/>
    <path d="M39.5,4.5C39.5,3.948 39.052,3.5 38.5,3.5L4.5,3.5C3.948,3.5 3.5,3.948 3.5,4.5L3.5,9.5C3.5,10.052 3.948,10.5 4.5,10.5L38.5,10.5C39.052,10.5 39.5,10.052 39.5,9.5L39.5,4.5Z" style="fill:none;stroke:rgb(139,191,64);stroke-width:1px;"/>
</svg>
