<?xml version="1.0" encoding="UTF-8" standalone="no"?>
<!-- Created with PhotoLine 23.53 (www.pl32.com) -->
<!DOCTYPE svg PUBLIC "-//W3C//DTD SVG 1.1//EN" "http://www.w3.org/Graphics/SVG/1.1/DTD/svg11.dtd">
<svg width="30" height="13" viewBox="0 0 30 13" version="1.1" xmlns="http://www.w3.org/2000/svg" xmlns:xlink="http://www.w3.org/1999/xlink">
  <path fill="#00c000" d="M3.65 2.54 L26.65 2.54 C27.2 2.54 27.65 2.99 27.65 3.54 L27.65 9.54 C27.65 10.09 27.2 10.54 26.65 10.54 L3.65 10.54 C3.1 10.54 2.65 10.09 2.65 9.54 L2.65 3.54 C2.65 2.99 3.1 2.54 3.65 2.54 Z"/>
  <path fill="none" stroke="#00de00" d="M3.65 2.54 L26.65 2.54 C27.2 2.54 27.65 2.99 27.65 3.54 L27.65 9.54 C27.65 10.09 27.2 10.54 26.65 10.54 L3.65 10.54 C3.1 10.54 2.65 10.09 2.65 9.54 L2.65 3.54 C2.65 2.99 3.1 2.54 3.65 2.54 Z"/>
</svg>
