<?xml version="1.0" encoding="UTF-8" standalone="no"?>
<!DOCTYPE svg PUBLIC "-//W3C//DTD SVG 1.1//EN" "http://www.w3.org/Graphics/SVG/1.1/DTD/svg11.dtd">
<svg width="100%" height="100%" viewBox="0 0 133 18" version="1.1" xmlns="http://www.w3.org/2000/svg" xmlns:xlink="http://www.w3.org/1999/xlink" xml:space="preserve" xmlns:serif="http://www.serif.com/" style="fill-rule:evenodd;clip-rule:evenodd;">
    <path d="M128,4.5C128,3.948 127.552,3.5 127,3.5L5,3.5C4.448,3.5 4,3.948 4,4.5L4,13.5C4,14.052 4.448,14.5 5,14.5L127,14.5C127.552,14.5 128,14.052 128,13.5L128,4.5Z" style="fill:rgb(139,191,64);fill-opacity:0.5;"/>
    <path d="M128,4.5C128,3.948 127.552,3.5 127,3.5L5,3.5C4.448,3.5 4,3.948 4,4.5L4,13.5C4,14.052 4.448,14.5 5,14.5L127,14.5C127.552,14.5 128,14.052 128,13.5L128,4.5Z" style="fill:none;stroke:rgb(139,191,64);stroke-width:1px;"/>
    <path d="M123.5,11L121,8L126,8L123.5,11Z" style="fill:white;fill-rule:nonzero;"/>
</svg>
