<?xml version="1.0" encoding="UTF-8" standalone="no"?>
<!DOCTYPE svg PUBLIC "-//W3C//DTD SVG 1.1//EN" "http://www.w3.org/Graphics/SVG/1.1/DTD/svg11.dtd">
<svg width="100%" height="100%" viewBox="0 0 40 168" version="1.1" xmlns="http://www.w3.org/2000/svg" xmlns:xlink="http://www.w3.org/1999/xlink" xml:space="preserve" xmlns:serif="http://www.serif.com/" style="fill-rule:evenodd;clip-rule:evenodd;">
    <path d="M37.5,3C37.5,2.448 37.052,2 36.5,2L3.5,2C2.948,2 2.5,2.448 2.5,3L2.5,9C2.5,9.552 2.948,10 3.5,10L36.5,10C37.052,10 37.5,9.552 37.5,9L37.5,3Z" style="fill:rgb(139,191,64);fill-opacity:0.5;"/>
    <path d="M37.5,3C37.5,2.448 37.052,2 36.5,2L3.5,2C2.948,2 2.5,2.448 2.5,3L2.5,9C2.5,9.552 2.948,10 3.5,10L36.5,10C37.052,10 37.5,9.552 37.5,9L37.5,3Z" style="fill:none;stroke:rgb(139,191,64);stroke-width:1px;"/>
    <path d="M14.037,4.437C14.002,4.493 13.965,4.535 13.925,4.563C13.888,4.59 13.839,4.605 13.778,4.605C13.725,4.605 13.666,4.588 13.603,4.556C13.543,4.521 13.473,4.482 13.393,4.44C13.316,4.398 13.228,4.361 13.127,4.328C13.027,4.293 12.913,4.276 12.784,4.276C12.563,4.276 12.397,4.323 12.287,4.419C12.18,4.512 12.126,4.64 12.126,4.801C12.126,4.903 12.159,4.988 12.224,5.056C12.29,5.124 12.375,5.182 12.48,5.231C12.587,5.28 12.709,5.326 12.844,5.368C12.982,5.407 13.121,5.453 13.264,5.504C13.406,5.553 13.545,5.611 13.68,5.679C13.818,5.747 13.939,5.833 14.044,5.938C14.152,6.043 14.238,6.171 14.303,6.323C14.369,6.472 14.401,6.653 14.401,6.866C14.401,7.101 14.361,7.322 14.279,7.527C14.197,7.732 14.078,7.912 13.922,8.066C13.768,8.218 13.576,8.338 13.348,8.427C13.121,8.513 12.864,8.556 12.574,8.556C12.416,8.556 12.254,8.54 12.088,8.507C11.925,8.474 11.766,8.429 11.612,8.371C11.458,8.31 11.313,8.239 11.178,8.157C11.043,8.075 10.925,7.984 10.824,7.884L11.174,7.331C11.202,7.291 11.239,7.259 11.283,7.233C11.33,7.205 11.38,7.191 11.433,7.191C11.503,7.191 11.573,7.213 11.643,7.258C11.716,7.302 11.796,7.351 11.885,7.404C11.976,7.458 12.08,7.507 12.196,7.552C12.313,7.596 12.451,7.618 12.609,7.618C12.824,7.618 12.991,7.571 13.11,7.478C13.229,7.382 13.288,7.232 13.288,7.027C13.288,6.908 13.256,6.811 13.19,6.736C13.125,6.661 13.039,6.6 12.931,6.551C12.826,6.502 12.706,6.458 12.571,6.421C12.435,6.384 12.297,6.343 12.154,6.299C12.012,6.252 11.873,6.196 11.738,6.13C11.602,6.063 11.481,5.975 11.374,5.868C11.269,5.758 11.184,5.623 11.118,5.462C11.053,5.299 11.02,5.098 11.02,4.86C11.02,4.669 11.059,4.482 11.136,4.3C11.213,4.118 11.326,3.956 11.475,3.814C11.625,3.671 11.808,3.558 12.025,3.474C12.242,3.388 12.49,3.345 12.77,3.345C12.927,3.345 13.078,3.357 13.225,3.383C13.375,3.406 13.516,3.443 13.649,3.491C13.782,3.538 13.906,3.595 14.02,3.663C14.137,3.728 14.24,3.803 14.331,3.887L14.037,4.437ZM15.974,4.871L15.974,8.5L14.889,8.5L14.889,4.871L15.974,4.871ZM16.086,3.877C16.086,3.963 16.069,4.045 16.034,4.122C15.999,4.196 15.951,4.263 15.89,4.321C15.83,4.377 15.759,4.423 15.677,4.457C15.598,4.49 15.512,4.507 15.421,4.507C15.333,4.507 15.25,4.49 15.173,4.457C15.096,4.423 15.027,4.377 14.966,4.321C14.908,4.263 14.861,4.196 14.826,4.122C14.794,4.045 14.777,3.963 14.777,3.877C14.777,3.788 14.794,3.705 14.826,3.628C14.861,3.551 14.908,3.483 14.966,3.425C15.027,3.367 15.096,3.321 15.173,3.289C15.25,3.256 15.333,3.24 15.421,3.24C15.512,3.24 15.598,3.256 15.677,3.289C15.759,3.321 15.83,3.367 15.89,3.425C15.951,3.483 15.999,3.551 16.034,3.628C16.069,3.705 16.086,3.788 16.086,3.877ZM17.627,5.263C17.697,5.197 17.769,5.137 17.844,5.081C17.919,5.025 17.998,4.978 18.082,4.941C18.168,4.901 18.261,4.871 18.359,4.85C18.459,4.826 18.567,4.815 18.684,4.815C18.882,4.815 19.057,4.85 19.209,4.92C19.363,4.987 19.493,5.083 19.598,5.207C19.703,5.328 19.782,5.474 19.836,5.644C19.889,5.812 19.916,5.995 19.916,6.194L19.916,8.5L18.831,8.5L18.831,6.194C18.831,6.016 18.79,5.879 18.709,5.781C18.627,5.68 18.507,5.63 18.348,5.63C18.229,5.63 18.117,5.656 18.012,5.707C17.909,5.756 17.809,5.824 17.711,5.91L17.711,8.5L16.626,8.5L16.626,4.871L17.298,4.871C17.433,4.871 17.522,4.931 17.564,5.053L17.627,5.263ZM21.896,6.495C22.075,6.495 22.205,6.45 22.284,6.362C22.366,6.271 22.407,6.154 22.407,6.012C22.407,5.864 22.366,5.749 22.284,5.665C22.205,5.581 22.075,5.539 21.896,5.539C21.716,5.539 21.585,5.581 21.504,5.665C21.424,5.749 21.385,5.864 21.385,6.012C21.385,6.082 21.394,6.146 21.413,6.204C21.434,6.262 21.465,6.314 21.507,6.358C21.549,6.4 21.602,6.434 21.665,6.46C21.73,6.483 21.807,6.495 21.896,6.495ZM22.736,8.633C22.736,8.547 22.697,8.485 22.62,8.448C22.543,8.408 22.443,8.38 22.319,8.364C22.196,8.347 22.057,8.338 21.903,8.336C21.751,8.331 21.599,8.322 21.448,8.307C21.38,8.354 21.324,8.407 21.28,8.465C21.238,8.521 21.217,8.585 21.217,8.658C21.217,8.709 21.227,8.756 21.248,8.798C21.272,8.839 21.311,8.876 21.367,8.906C21.423,8.936 21.498,8.96 21.591,8.976C21.687,8.995 21.807,9.004 21.952,9.004C22.108,9.004 22.236,8.995 22.337,8.976C22.437,8.957 22.516,8.932 22.575,8.899C22.635,8.866 22.677,8.827 22.701,8.78C22.724,8.736 22.736,8.687 22.736,8.633ZM23.807,4.983L23.807,5.378C23.807,5.439 23.789,5.487 23.754,5.521C23.722,5.557 23.664,5.583 23.583,5.602L23.32,5.662C23.334,5.713 23.345,5.765 23.352,5.819C23.361,5.873 23.366,5.929 23.366,5.987C23.366,6.169 23.327,6.332 23.25,6.477C23.176,6.622 23.072,6.745 22.939,6.848C22.808,6.948 22.653,7.027 22.473,7.082C22.294,7.136 22.101,7.163 21.896,7.163C21.84,7.163 21.785,7.162 21.731,7.16C21.678,7.155 21.625,7.148 21.574,7.138C21.494,7.188 21.455,7.242 21.455,7.303C21.455,7.364 21.487,7.408 21.553,7.436C21.618,7.462 21.704,7.48 21.812,7.492C21.919,7.501 22.04,7.508 22.176,7.513C22.313,7.515 22.453,7.524 22.596,7.537C22.738,7.549 22.877,7.57 23.012,7.601C23.15,7.631 23.272,7.68 23.38,7.747C23.487,7.815 23.573,7.906 23.639,8.021C23.704,8.133 23.737,8.276 23.737,8.451C23.737,8.614 23.697,8.774 23.618,8.931C23.538,9.087 23.422,9.226 23.268,9.347C23.114,9.468 22.925,9.565 22.701,9.637C22.477,9.712 22.22,9.75 21.931,9.75C21.646,9.75 21.4,9.723 21.192,9.669C20.987,9.615 20.815,9.544 20.678,9.456C20.542,9.369 20.442,9.269 20.377,9.155C20.311,9.04 20.279,8.921 20.279,8.798C20.279,8.637 20.325,8.502 20.419,8.395C20.512,8.288 20.643,8.201 20.811,8.136C20.722,8.082 20.652,8.014 20.601,7.93C20.549,7.846 20.524,7.737 20.524,7.604C20.524,7.55 20.533,7.494 20.552,7.436C20.57,7.375 20.6,7.317 20.639,7.261C20.681,7.203 20.733,7.148 20.793,7.097C20.854,7.045 20.926,7 21.01,6.96C20.821,6.86 20.672,6.728 20.562,6.565C20.453,6.399 20.398,6.206 20.398,5.987C20.398,5.805 20.436,5.642 20.513,5.497C20.59,5.35 20.695,5.226 20.828,5.126C20.964,5.023 21.122,4.945 21.304,4.892C21.486,4.836 21.683,4.808 21.896,4.808C22.204,4.808 22.477,4.866 22.715,4.983L23.807,4.983ZM25.239,3.261L25.239,8.5L24.154,8.5L24.154,3.261L25.239,3.261ZM28.125,6.25C28.125,6.163 28.113,6.079 28.09,5.997C28.069,5.916 28.033,5.844 27.982,5.781C27.933,5.715 27.867,5.663 27.786,5.623C27.704,5.583 27.605,5.564 27.488,5.564C27.283,5.564 27.122,5.623 27.005,5.742C26.889,5.859 26.812,6.028 26.774,6.25L28.125,6.25ZM26.76,6.88C26.795,7.183 26.887,7.403 27.037,7.541C27.186,7.676 27.379,7.744 27.614,7.744C27.74,7.744 27.849,7.729 27.94,7.699C28.031,7.668 28.111,7.634 28.181,7.597C28.254,7.56 28.319,7.526 28.377,7.496C28.438,7.465 28.501,7.45 28.566,7.45C28.653,7.45 28.718,7.481 28.762,7.545L29.077,7.933C28.965,8.061 28.844,8.166 28.713,8.248C28.585,8.327 28.452,8.39 28.314,8.437C28.179,8.481 28.042,8.512 27.905,8.528C27.769,8.547 27.64,8.556 27.516,8.556C27.262,8.556 27.023,8.515 26.799,8.434C26.577,8.35 26.382,8.226 26.214,8.063C26.049,7.899 25.917,7.696 25.819,7.454C25.723,7.211 25.675,6.928 25.675,6.606C25.675,6.364 25.716,6.134 25.798,5.917C25.882,5.7 26.001,5.51 26.155,5.347C26.311,5.183 26.499,5.054 26.718,4.958C26.94,4.862 27.19,4.815 27.467,4.815C27.708,4.815 27.927,4.852 28.125,4.927C28.326,5.001 28.497,5.11 28.64,5.252C28.784,5.394 28.896,5.569 28.976,5.777C29.057,5.982 29.098,6.216 29.098,6.477C29.098,6.559 29.095,6.625 29.088,6.677C29.081,6.728 29.068,6.769 29.049,6.799C29.031,6.829 29.005,6.85 28.972,6.862C28.942,6.874 28.902,6.88 28.853,6.88L26.76,6.88Z" style="fill-rule:nonzero;"/>
    <path d="M37.5,55C37.5,54.448 37.052,54 36.5,54L3.5,54C2.948,54 2.5,54.448 2.5,55L2.5,61C2.5,61.552 2.948,62 3.5,62L36.5,62C37.052,62 37.5,61.552 37.5,61L37.5,55Z" style="fill:rgb(139,191,64);fill-opacity:0.5;"/>
    <path d="M37.5,55C37.5,54.448 37.052,54 36.5,54L3.5,54C2.948,54 2.5,54.448 2.5,55L2.5,61C2.5,61.552 2.948,62 3.5,62L36.5,62C37.052,62 37.5,61.552 37.5,61L37.5,55Z" style="fill:none;stroke:rgb(139,191,64);stroke-width:1px;"/>
    <path d="M8.213,57.466L8.402,57.466C8.577,57.466 8.703,57.411 8.78,57.301L9.928,55.635C9.995,55.546 10.068,55.486 10.145,55.453C10.224,55.418 10.322,55.401 10.439,55.401L11.468,55.401L9.956,57.462C9.848,57.604 9.733,57.707 9.609,57.77C9.698,57.803 9.778,57.848 9.851,57.907C9.923,57.965 9.991,58.041 10.054,58.134L11.594,60.5L10.537,60.5C10.469,60.5 10.411,60.495 10.362,60.486C10.315,60.477 10.274,60.463 10.239,60.444C10.204,60.425 10.174,60.403 10.148,60.378C10.123,60.35 10.098,60.318 10.075,60.283L8.92,58.509C8.878,58.443 8.824,58.398 8.759,58.372C8.696,58.344 8.609,58.33 8.5,58.33L8.213,58.33L8.213,60.5L7.03,60.5L7.03,55.401L8.213,55.401L8.213,57.466ZM13.746,58.25C13.746,58.163 13.734,58.079 13.711,57.998C13.69,57.916 13.653,57.844 13.602,57.781C13.553,57.715 13.488,57.663 13.406,57.623C13.325,57.583 13.225,57.564 13.109,57.564C12.903,57.564 12.742,57.623 12.626,57.742C12.509,57.859 12.432,58.028 12.395,58.25L13.746,58.25ZM12.381,58.88C12.416,59.183 12.508,59.403 12.657,59.541C12.807,59.676 12.999,59.744 13.235,59.744C13.361,59.744 13.469,59.729 13.56,59.699C13.651,59.668 13.732,59.634 13.802,59.597C13.874,59.56 13.939,59.526 13.998,59.496C14.058,59.465 14.121,59.45 14.187,59.45C14.273,59.45 14.338,59.481 14.383,59.545L14.698,59.933C14.586,60.061 14.464,60.166 14.334,60.248C14.205,60.327 14.072,60.39 13.935,60.437C13.799,60.481 13.663,60.512 13.525,60.528C13.39,60.547 13.26,60.556 13.137,60.556C12.882,60.556 12.643,60.515 12.419,60.434C12.198,60.35 12.003,60.226 11.835,60.063C11.669,59.899 11.537,59.696 11.439,59.454C11.344,59.211 11.296,58.929 11.296,58.606C11.296,58.364 11.336,58.134 11.418,57.917C11.502,57.7 11.621,57.51 11.775,57.347C11.932,57.183 12.119,57.054 12.339,56.958C12.56,56.862 12.81,56.815 13.088,56.815C13.328,56.815 13.547,56.852 13.746,56.926C13.946,57.001 14.118,57.11 14.26,57.252C14.405,57.394 14.517,57.569 14.596,57.777C14.678,57.982 14.719,58.216 14.719,58.477C14.719,58.559 14.715,58.625 14.708,58.676C14.701,58.728 14.688,58.769 14.67,58.799C14.651,58.829 14.625,58.85 14.593,58.862C14.562,58.874 14.523,58.88 14.474,58.88L12.381,58.88ZM18.488,56.871L16.549,61.442C16.516,61.514 16.477,61.566 16.43,61.599C16.383,61.634 16.309,61.652 16.206,61.652L15.394,61.652L16.094,60.182L14.645,56.871L15.604,56.871C15.688,56.871 15.752,56.889 15.796,56.926C15.843,56.964 15.877,57.008 15.898,57.06L16.493,58.624C16.549,58.766 16.594,58.912 16.629,59.062C16.655,58.987 16.681,58.912 16.706,58.838C16.732,58.763 16.759,58.689 16.787,58.617L17.326,57.06C17.347,57.006 17.384,56.962 17.438,56.926C17.492,56.889 17.55,56.871 17.613,56.871L18.488,56.871ZM22.983,56.437C22.948,56.493 22.911,56.535 22.871,56.563C22.834,56.591 22.785,56.605 22.724,56.605C22.67,56.605 22.612,56.588 22.549,56.556C22.488,56.521 22.418,56.482 22.339,56.44C22.262,56.398 22.173,56.361 22.073,56.328C21.973,56.293 21.858,56.276 21.73,56.276C21.508,56.276 21.343,56.323 21.233,56.419C21.126,56.512 21.072,56.64 21.072,56.801C21.072,56.903 21.105,56.988 21.17,57.056C21.235,57.124 21.32,57.182 21.425,57.231C21.533,57.28 21.654,57.326 21.789,57.368C21.927,57.407 22.067,57.453 22.209,57.504C22.352,57.553 22.491,57.611 22.626,57.679C22.764,57.747 22.885,57.833 22.99,57.938C23.097,58.043 23.184,58.171 23.249,58.323C23.314,58.472 23.347,58.653 23.347,58.865C23.347,59.101 23.306,59.322 23.224,59.527C23.143,59.732 23.024,59.912 22.867,60.066C22.713,60.218 22.522,60.338 22.293,60.426C22.067,60.513 21.809,60.556 21.52,60.556C21.361,60.556 21.199,60.54 21.033,60.507C20.87,60.474 20.711,60.429 20.557,60.371C20.403,60.31 20.259,60.239 20.123,60.157C19.988,60.075 19.87,59.984 19.77,59.884L20.12,59.331C20.148,59.291 20.184,59.259 20.228,59.233C20.275,59.205 20.325,59.191 20.379,59.191C20.449,59.191 20.519,59.213 20.589,59.258C20.661,59.302 20.742,59.351 20.83,59.405C20.921,59.458 21.025,59.507 21.142,59.551C21.259,59.596 21.396,59.618 21.555,59.618C21.77,59.618 21.936,59.571 22.055,59.478C22.174,59.382 22.234,59.232 22.234,59.027C22.234,58.908 22.201,58.811 22.136,58.736C22.071,58.661 21.984,58.6 21.877,58.551C21.772,58.502 21.652,58.458 21.516,58.421C21.381,58.384 21.242,58.343 21.1,58.298C20.958,58.252 20.819,58.196 20.683,58.131C20.548,58.063 20.427,57.975 20.319,57.868C20.214,57.758 20.129,57.623 20.064,57.462C19.999,57.299 19.966,57.098 19.966,56.86C19.966,56.669 20.004,56.482 20.081,56.3C20.158,56.118 20.272,55.956 20.421,55.814C20.57,55.671 20.753,55.558 20.97,55.474C21.187,55.388 21.436,55.344 21.716,55.344C21.872,55.344 22.024,55.357 22.171,55.383C22.32,55.406 22.461,55.443 22.594,55.492C22.727,55.538 22.851,55.595 22.965,55.663C23.082,55.728 23.186,55.803 23.277,55.887L22.983,56.437ZM24.834,59.513C24.916,59.602 25.004,59.665 25.1,59.702C25.196,59.739 25.296,59.758 25.401,59.758C25.501,59.758 25.593,59.738 25.677,59.699C25.761,59.659 25.834,59.596 25.894,59.51C25.957,59.421 26.006,59.307 26.041,59.167C26.076,59.027 26.094,58.856 26.094,58.656C26.094,58.464 26.08,58.303 26.052,58.173C26.024,58.042 25.984,57.937 25.933,57.858C25.884,57.776 25.824,57.718 25.754,57.682C25.684,57.648 25.606,57.63 25.52,57.63C25.361,57.63 25.231,57.659 25.128,57.718C25.025,57.776 24.927,57.861 24.834,57.973L24.834,59.513ZM24.767,57.319C24.91,57.167 25.071,57.043 25.25,56.948C25.432,56.85 25.648,56.801 25.898,56.801C26.087,56.801 26.262,56.843 26.423,56.926C26.584,57.011 26.723,57.132 26.839,57.291C26.956,57.449 27.047,57.644 27.112,57.875C27.18,58.104 27.214,58.364 27.214,58.656C27.214,58.929 27.175,59.181 27.098,59.411C27.024,59.643 26.918,59.843 26.78,60.014C26.645,60.184 26.481,60.317 26.29,60.413C26.101,60.508 25.891,60.556 25.66,60.556C25.471,60.556 25.312,60.529 25.184,60.475C25.055,60.422 24.939,60.35 24.834,60.259L24.834,61.652L23.749,61.652L23.749,56.871L24.421,56.871C24.556,56.871 24.645,56.931 24.687,57.053L24.767,57.319ZM28.755,55.261L28.755,60.5L27.67,60.5L27.67,55.261L28.755,55.261ZM30.493,56.871L30.493,60.5L29.408,60.5L29.408,56.871L30.493,56.871ZM30.605,55.877C30.605,55.963 30.588,56.045 30.553,56.121C30.518,56.196 30.47,56.263 30.409,56.321C30.348,56.377 30.277,56.423 30.196,56.458C30.116,56.49 30.031,56.507 29.94,56.507C29.851,56.507 29.769,56.49 29.692,56.458C29.615,56.423 29.546,56.377 29.485,56.321C29.427,56.263 29.38,56.196 29.345,56.121C29.312,56.045 29.296,55.963 29.296,55.877C29.296,55.788 29.312,55.705 29.345,55.628C29.38,55.551 29.427,55.483 29.485,55.425C29.546,55.367 29.615,55.321 29.692,55.289C29.769,55.256 29.851,55.24 29.94,55.24C30.031,55.24 30.116,55.256 30.196,55.289C30.277,55.321 30.348,55.367 30.409,55.425C30.47,55.483 30.518,55.551 30.553,55.628C30.588,55.705 30.605,55.788 30.605,55.877ZM32.443,60.556C32.271,60.556 32.118,60.532 31.985,60.483C31.854,60.431 31.743,60.36 31.652,60.269C31.564,60.176 31.496,60.064 31.449,59.933C31.403,59.802 31.379,59.657 31.379,59.496L31.379,57.62L31.071,57.62C31.015,57.62 30.967,57.602 30.928,57.567C30.888,57.53 30.868,57.476 30.868,57.406L30.868,56.983L31.446,56.871L31.659,55.985C31.687,55.873 31.767,55.817 31.897,55.817L32.464,55.817L32.464,56.878L33.364,56.878L33.364,57.62L32.464,57.62L32.464,59.422C32.464,59.506 32.484,59.576 32.524,59.632C32.566,59.686 32.625,59.713 32.702,59.713C32.742,59.713 32.775,59.709 32.8,59.702C32.828,59.693 32.852,59.683 32.87,59.674C32.891,59.662 32.91,59.653 32.926,59.646C32.945,59.637 32.966,59.632 32.989,59.632C33.022,59.632 33.048,59.64 33.066,59.657C33.087,59.67 33.108,59.694 33.129,59.727L33.458,60.241C33.318,60.346 33.161,60.425 32.986,60.479C32.811,60.53 32.63,60.556 32.443,60.556Z" style="fill-rule:nonzero;"/>
    <path d="M37.5,107C37.5,106.448 37.052,106 36.5,106L3.5,106C2.948,106 2.5,106.448 2.5,107L2.5,113C2.5,113.552 2.948,114 3.5,114L36.5,114C37.052,114 37.5,113.552 37.5,113L37.5,107Z" style="fill:rgb(139,191,64);fill-opacity:0.5;"/>
    <path d="M37.5,107C37.5,106.448 37.052,106 36.5,106L3.5,106C2.948,106 2.5,106.448 2.5,107L2.5,113C2.5,113.552 2.948,114 3.5,114L36.5,114C37.052,114 37.5,113.552 37.5,113L37.5,107Z" style="fill:none;stroke:rgb(139,191,64);stroke-width:1px;"/>
    <path d="M8.39,111.18C8.418,111.18 8.446,111.186 8.474,111.198C8.502,111.207 8.529,111.225 8.554,111.25L9.023,111.744C8.818,112.012 8.56,112.215 8.25,112.353C7.942,112.488 7.577,112.556 7.154,112.556C6.767,112.556 6.419,112.491 6.111,112.36C5.806,112.227 5.545,112.045 5.331,111.814C5.118,111.581 4.955,111.305 4.841,110.988C4.726,110.668 4.669,110.322 4.669,109.948C4.669,109.568 4.731,109.219 4.855,108.902C4.978,108.582 5.152,108.307 5.376,108.076C5.6,107.845 5.869,107.665 6.181,107.537C6.494,107.409 6.838,107.344 7.214,107.344C7.405,107.344 7.585,107.362 7.753,107.397C7.923,107.43 8.082,107.476 8.229,107.537C8.376,107.595 8.511,107.666 8.635,107.75C8.758,107.834 8.868,107.925 8.964,108.023L8.565,108.559C8.539,108.592 8.509,108.622 8.474,108.65C8.439,108.676 8.39,108.688 8.327,108.688C8.285,108.688 8.245,108.679 8.208,108.66C8.17,108.642 8.131,108.62 8.089,108.594C8.047,108.566 8,108.537 7.949,108.506C7.9,108.474 7.84,108.445 7.77,108.419C7.703,108.391 7.622,108.368 7.529,108.349C7.438,108.33 7.33,108.321 7.207,108.321C7.011,108.321 6.831,108.357 6.668,108.429C6.507,108.502 6.367,108.608 6.248,108.748C6.131,108.886 6.04,109.056 5.975,109.259C5.912,109.46 5.88,109.689 5.88,109.948C5.88,110.21 5.915,110.442 5.985,110.645C6.058,110.848 6.154,111.019 6.276,111.159C6.399,111.297 6.543,111.402 6.706,111.474C6.87,111.547 7.045,111.583 7.231,111.583C7.339,111.583 7.437,111.578 7.525,111.569C7.614,111.557 7.697,111.54 7.774,111.516C7.851,111.491 7.923,111.458 7.991,111.418C8.058,111.376 8.127,111.324 8.197,111.261C8.225,111.238 8.256,111.219 8.288,111.205C8.321,111.189 8.355,111.18 8.39,111.18ZM10.394,109.189C10.524,109.077 10.666,108.987 10.817,108.919C10.971,108.849 11.154,108.814 11.367,108.814C11.565,108.814 11.74,108.849 11.892,108.919C12.046,108.987 12.175,109.083 12.28,109.206C12.385,109.328 12.465,109.474 12.518,109.644C12.572,109.812 12.599,109.995 12.599,110.193L12.599,112.5L11.514,112.5L11.514,110.193C11.514,110.016 11.473,109.878 11.391,109.78C11.31,109.68 11.189,109.63 11.031,109.63C10.912,109.63 10.8,109.656 10.695,109.707C10.592,109.756 10.492,109.824 10.394,109.91L10.394,112.5L9.309,112.5L9.309,107.26L10.394,107.26L10.394,109.189ZM15.068,111.023C14.851,111.032 14.673,111.051 14.533,111.079C14.393,111.107 14.282,111.142 14.2,111.184C14.119,111.226 14.062,111.274 14.029,111.327C13.999,111.381 13.983,111.439 13.983,111.502C13.983,111.626 14.017,111.714 14.085,111.765C14.153,111.814 14.252,111.838 14.382,111.838C14.522,111.838 14.645,111.814 14.75,111.765C14.855,111.716 14.961,111.637 15.068,111.527L15.068,111.023ZM13.115,109.374C13.335,109.181 13.577,109.037 13.843,108.944C14.112,108.848 14.399,108.8 14.704,108.8C14.924,108.8 15.121,108.837 15.296,108.909C15.473,108.979 15.623,109.078 15.744,109.206C15.868,109.332 15.962,109.483 16.027,109.658C16.093,109.833 16.125,110.024 16.125,110.232L16.125,112.5L15.628,112.5C15.526,112.5 15.448,112.486 15.394,112.458C15.343,112.43 15.299,112.372 15.264,112.283L15.187,112.083C15.096,112.16 15.009,112.228 14.925,112.286C14.841,112.345 14.753,112.395 14.662,112.437C14.574,112.477 14.478,112.506 14.375,112.525C14.275,112.546 14.163,112.556 14.039,112.556C13.874,112.556 13.723,112.535 13.588,112.493C13.453,112.449 13.337,112.384 13.241,112.3C13.148,112.216 13.076,112.113 13.024,111.989C12.973,111.863 12.947,111.718 12.947,111.555C12.947,111.424 12.98,111.292 13.045,111.159C13.111,111.024 13.224,110.902 13.385,110.792C13.546,110.68 13.763,110.587 14.036,110.512C14.309,110.437 14.653,110.395 15.068,110.386L15.068,110.232C15.068,110.02 15.024,109.867 14.935,109.773C14.849,109.678 14.725,109.63 14.564,109.63C14.436,109.63 14.331,109.644 14.249,109.672C14.168,109.7 14.094,109.731 14.029,109.766C13.966,109.801 13.904,109.833 13.843,109.861C13.783,109.889 13.71,109.903 13.626,109.903C13.552,109.903 13.489,109.884 13.437,109.847C13.386,109.81 13.344,109.765 13.311,109.714L13.115,109.374ZM17.715,109.262C17.785,109.197 17.857,109.136 17.932,109.08C18.007,109.024 18.086,108.978 18.17,108.94C18.256,108.901 18.349,108.87 18.447,108.849C18.547,108.826 18.655,108.814 18.772,108.814C18.97,108.814 19.145,108.849 19.297,108.919C19.451,108.987 19.581,109.083 19.686,109.206C19.791,109.328 19.87,109.474 19.924,109.644C19.977,109.812 20.004,109.995 20.004,110.193L20.004,112.5L18.919,112.5L18.919,110.193C18.919,110.016 18.878,109.878 18.797,109.78C18.715,109.68 18.595,109.63 18.436,109.63C18.317,109.63 18.205,109.656 18.1,109.707C17.997,109.756 17.897,109.824 17.799,109.91L17.799,112.5L16.714,112.5L16.714,108.87L17.386,108.87C17.521,108.87 17.61,108.931 17.652,109.052L17.715,109.262ZM25.06,108.436C25.025,108.492 24.987,108.534 24.948,108.562C24.91,108.59 24.861,108.604 24.801,108.604C24.747,108.604 24.689,108.588 24.626,108.555C24.565,108.52 24.495,108.482 24.416,108.44C24.339,108.398 24.25,108.361 24.15,108.328C24.049,108.293 23.935,108.275 23.807,108.275C23.585,108.275 23.419,108.323 23.31,108.419C23.202,108.512 23.149,108.639 23.149,108.8C23.149,108.903 23.181,108.988 23.247,109.056C23.312,109.124 23.397,109.182 23.502,109.231C23.61,109.28 23.731,109.325 23.866,109.367C24.004,109.407 24.144,109.453 24.286,109.504C24.429,109.553 24.567,109.611 24.703,109.679C24.84,109.747 24.962,109.833 25.067,109.938C25.174,110.043 25.26,110.171 25.326,110.323C25.391,110.472 25.424,110.653 25.424,110.865C25.424,111.101 25.383,111.322 25.301,111.527C25.22,111.732 25.101,111.912 24.944,112.066C24.79,112.218 24.599,112.338 24.37,112.426C24.144,112.513 23.886,112.556 23.597,112.556C23.438,112.556 23.276,112.54 23.11,112.507C22.947,112.474 22.788,112.429 22.634,112.37C22.48,112.31 22.336,112.239 22.2,112.157C22.065,112.075 21.947,111.984 21.847,111.884L22.197,111.331C22.225,111.291 22.261,111.259 22.305,111.233C22.352,111.205 22.402,111.191 22.456,111.191C22.526,111.191 22.596,111.213 22.666,111.257C22.738,111.302 22.819,111.351 22.907,111.404C22.998,111.458 23.102,111.507 23.219,111.551C23.335,111.596 23.473,111.618 23.632,111.618C23.846,111.618 24.013,111.571 24.132,111.478C24.251,111.382 24.311,111.232 24.311,111.026C24.311,110.907 24.278,110.811 24.213,110.736C24.147,110.661 24.061,110.599 23.954,110.55C23.849,110.501 23.729,110.458 23.593,110.421C23.458,110.384 23.319,110.343 23.177,110.298C23.034,110.252 22.896,110.196 22.76,110.13C22.625,110.063 22.504,109.975 22.396,109.868C22.291,109.758 22.206,109.623 22.141,109.462C22.075,109.299 22.043,109.098 22.043,108.86C22.043,108.669 22.081,108.482 22.158,108.3C22.235,108.118 22.348,107.956 22.498,107.813C22.647,107.671 22.83,107.558 23.047,107.474C23.264,107.388 23.513,107.344 23.793,107.344C23.949,107.344 24.101,107.357 24.248,107.383C24.397,107.406 24.538,107.442 24.671,107.491C24.804,107.538 24.928,107.595 25.042,107.663C25.159,107.728 25.263,107.803 25.354,107.887L25.06,108.436ZM26.911,111.513C26.992,111.602 27.081,111.665 27.177,111.702C27.272,111.739 27.373,111.758 27.478,111.758C27.578,111.758 27.67,111.738 27.754,111.698C27.838,111.659 27.911,111.596 27.971,111.509C28.034,111.421 28.083,111.306 28.118,111.166C28.153,111.026 28.171,110.856 28.171,110.655C28.171,110.464 28.157,110.303 28.129,110.172C28.101,110.042 28.061,109.937 28.01,109.857C27.961,109.776 27.901,109.717 27.831,109.682C27.761,109.647 27.683,109.63 27.597,109.63C27.438,109.63 27.307,109.659 27.205,109.717C27.102,109.776 27.004,109.861 26.911,109.973L26.911,111.513ZM26.844,109.318C26.987,109.167 27.148,109.043 27.327,108.947C27.509,108.849 27.725,108.8 27.975,108.8C28.164,108.8 28.339,108.842 28.5,108.926C28.661,109.01 28.8,109.132 28.916,109.29C29.033,109.449 29.124,109.644 29.189,109.875C29.257,110.104 29.291,110.364 29.291,110.655C29.291,110.928 29.252,111.18 29.175,111.411C29.101,111.642 28.994,111.843 28.857,112.013C28.721,112.184 28.558,112.317 28.367,112.412C28.178,112.508 27.968,112.556 27.737,112.556C27.548,112.556 27.389,112.529 27.261,112.475C27.132,112.422 27.016,112.349 26.911,112.258L26.911,113.652L25.826,113.652L25.826,108.87L26.498,108.87C26.633,108.87 26.722,108.931 26.764,109.052L26.844,109.318ZM30.832,107.26L30.832,112.5L29.747,112.5L29.747,107.26L30.832,107.26ZM32.57,108.87L32.57,112.5L31.485,112.5L31.485,108.87L32.57,108.87ZM32.682,107.876C32.682,107.963 32.664,108.044 32.629,108.121C32.594,108.196 32.547,108.263 32.486,108.321C32.425,108.377 32.354,108.422 32.272,108.457C32.193,108.49 32.108,108.506 32.017,108.506C31.928,108.506 31.845,108.49 31.768,108.457C31.691,108.422 31.623,108.377 31.562,108.321C31.504,108.263 31.457,108.196 31.422,108.121C31.389,108.044 31.373,107.963 31.373,107.876C31.373,107.788 31.389,107.705 31.422,107.628C31.457,107.551 31.504,107.483 31.562,107.425C31.623,107.367 31.691,107.321 31.768,107.288C31.845,107.256 31.928,107.239 32.017,107.239C32.108,107.239 32.193,107.256 32.272,107.288C32.354,107.321 32.425,107.367 32.486,107.425C32.547,107.483 32.594,107.551 32.629,107.628C32.664,107.705 32.682,107.788 32.682,107.876ZM34.52,112.556C34.347,112.556 34.195,112.532 34.062,112.482C33.931,112.431 33.82,112.36 33.729,112.269C33.641,112.176 33.573,112.064 33.526,111.933C33.48,111.802 33.456,111.656 33.456,111.495L33.456,109.619L33.148,109.619C33.092,109.619 33.044,109.602 33.005,109.567C32.965,109.53 32.945,109.476 32.945,109.406L32.945,108.983L33.523,108.87L33.736,107.985C33.764,107.873 33.844,107.817 33.974,107.817L34.541,107.817L34.541,108.877L35.441,108.877L35.441,109.619L34.541,109.619L34.541,111.422C34.541,111.506 34.561,111.576 34.601,111.632C34.643,111.686 34.702,111.712 34.779,111.712C34.819,111.712 34.852,111.709 34.877,111.702C34.905,111.693 34.929,111.683 34.947,111.674C34.968,111.662 34.987,111.653 35.003,111.646C35.022,111.637 35.043,111.632 35.066,111.632C35.099,111.632 35.125,111.64 35.143,111.656C35.164,111.67 35.185,111.694 35.206,111.726L35.535,112.241C35.395,112.346 35.238,112.425 35.063,112.479C34.888,112.53 34.707,112.556 34.52,112.556Z" style="fill-rule:nonzero;"/>
    <path d="M37.5,159C37.5,158.448 37.052,158 36.5,158L3.5,158C2.948,158 2.5,158.448 2.5,159L2.5,165C2.5,165.552 2.948,166 3.5,166L36.5,166C37.052,166 37.5,165.552 37.5,165L37.5,159Z" style="fill:rgb(139,191,64);fill-opacity:0.5;"/>
    <path d="M37.5,159C37.5,158.448 37.052,158 36.5,158L3.5,158C2.948,158 2.5,158.448 2.5,159L2.5,165C2.5,165.552 2.948,166 3.5,166L36.5,166C37.052,166 37.5,165.552 37.5,165L37.5,159Z" style="fill:none;stroke:rgb(139,191,64);stroke-width:1px;"/>
    <path d="M17.919,161.948C17.919,162.317 17.855,162.658 17.727,162.97C17.601,163.281 17.422,163.55 17.191,163.779C16.96,164.005 16.681,164.183 16.355,164.311C16.03,164.437 15.67,164.5 15.273,164.5L13.292,164.5L13.292,159.4L15.273,159.4C15.67,159.4 16.03,159.465 16.355,159.593C16.681,159.721 16.96,159.899 17.191,160.125C17.422,160.351 17.601,160.621 17.727,160.933C17.855,161.244 17.919,161.582 17.919,161.948ZM16.708,161.948C16.708,161.696 16.675,161.469 16.61,161.266C16.545,161.063 16.45,160.891 16.327,160.751C16.205,160.609 16.056,160.501 15.879,160.426C15.701,160.349 15.499,160.31 15.273,160.31L14.482,160.31L14.482,163.59L15.273,163.59C15.499,163.59 15.701,163.553 15.879,163.478C16.056,163.401 16.205,163.292 16.327,163.152C16.45,163.01 16.545,162.837 16.61,162.634C16.675,162.431 16.708,162.203 16.708,161.948ZM21.6,160.87L21.6,164.5L20.928,164.5C20.793,164.5 20.704,164.439 20.662,164.318L20.599,164.108C20.529,164.176 20.457,164.237 20.382,164.293C20.308,164.347 20.227,164.394 20.141,164.433C20.057,164.471 19.965,164.5 19.864,164.521C19.766,164.544 19.659,164.556 19.542,164.556C19.344,164.556 19.168,164.522 19.014,164.454C18.862,164.384 18.734,164.288 18.629,164.164C18.524,164.04 18.445,163.894 18.391,163.726C18.337,163.558 18.31,163.374 18.31,163.173L18.31,160.87L19.395,160.87L19.395,163.173C19.395,163.353 19.436,163.492 19.518,163.59C19.6,163.688 19.72,163.737 19.878,163.737C19.997,163.737 20.108,163.712 20.211,163.663C20.316,163.612 20.417,163.543 20.515,163.457L20.515,160.87L21.6,160.87ZM24.105,163.023C23.888,163.032 23.709,163.051 23.57,163.079C23.43,163.107 23.319,163.142 23.237,163.184C23.155,163.226 23.098,163.274 23.066,163.327C23.035,163.381 23.02,163.439 23.02,163.502C23.02,163.626 23.054,163.714 23.122,163.765C23.189,163.814 23.288,163.838 23.419,163.838C23.559,163.838 23.682,163.814 23.787,163.765C23.892,163.716 23.998,163.637 24.105,163.527L24.105,163.023ZM22.152,161.374C22.371,161.181 22.614,161.037 22.88,160.944C23.148,160.848 23.435,160.8 23.741,160.8C23.96,160.8 24.158,160.837 24.333,160.909C24.51,160.979 24.659,161.078 24.781,161.206C24.904,161.332 24.999,161.483 25.064,161.658C25.129,161.833 25.162,162.024 25.162,162.232L25.162,164.5L24.665,164.5C24.562,164.5 24.484,164.486 24.43,164.458C24.379,164.43 24.336,164.372 24.301,164.283L24.224,164.083C24.133,164.16 24.046,164.228 23.962,164.286C23.878,164.345 23.79,164.395 23.699,164.437C23.61,164.477 23.515,164.506 23.412,164.525C23.312,164.546 23.2,164.556 23.076,164.556C22.91,164.556 22.76,164.535 22.625,164.493C22.489,164.449 22.374,164.384 22.278,164.3C22.185,164.216 22.112,164.113 22.061,163.989C22.01,163.863 21.984,163.718 21.984,163.555C21.984,163.424 22.017,163.292 22.082,163.159C22.147,163.024 22.261,162.902 22.422,162.792C22.583,162.68 22.799,162.587 23.073,162.512C23.346,162.437 23.69,162.395 24.105,162.386L24.105,162.232C24.105,162.02 24.061,161.867 23.972,161.773C23.886,161.678 23.762,161.63 23.601,161.63C23.473,161.63 23.368,161.644 23.286,161.672C23.204,161.7 23.131,161.731 23.066,161.766C23.003,161.801 22.941,161.833 22.88,161.861C22.819,161.889 22.747,161.903 22.663,161.903C22.588,161.903 22.525,161.884 22.474,161.847C22.423,161.81 22.381,161.765 22.348,161.714L22.152,161.374ZM26.836,159.26L26.836,164.5L25.751,164.5L25.751,159.26L26.836,159.26Z" style="fill-rule:nonzero;"/>
</svg>
