<?xml version="1.0" encoding="UTF-8" standalone="no"?>
<!DOCTYPE svg PUBLIC "-//W3C//DTD SVG 1.1//EN" "http://www.w3.org/Graphics/SVG/1.1/DTD/svg11.dtd">
<svg width="100%" height="100%" viewBox="0 0 49 18" version="1.1" xmlns="http://www.w3.org/2000/svg" xmlns:xlink="http://www.w3.org/1999/xlink" xml:space="preserve" xmlns:serif="http://www.serif.com/" style="fill-rule:evenodd;clip-rule:evenodd;">
    <g id="hover00119">
        <clipPath id="_clip1">
            <rect x="0" y="0" width="49" height="18"/>
        </clipPath>
        <g clip-path="url(#_clip1)">
            <g id="Rectangle" transform="matrix(1,0,0,1,0.5,2.00006)">
                <path d="M0,10L0,1C0,0.724 0.098,0.488 0.293,0.293C0.488,0.098 0.724,0 1,0L47,0C47.276,0 47.512,0.098 47.707,0.293C47.902,0.488 48,0.724 48,1L48,10C48,10.276 47.902,10.512 47.707,10.707C47.512,10.902 47.276,11 47,11L1,11C0.724,11 0.488,10.902 0.293,10.707C0.098,10.512 0,10.276 0,10Z" style="fill:rgb(139,191,64);"/>
            </g>
            <g id="Rectangle1" serif:id="Rectangle" transform="matrix(1,0,0,1,0.5,2.00006)">
                <path d="M0,10L0,1C0,0.724 0.098,0.488 0.293,0.293C0.488,0.098 0.724,0 1,0L47,0C47.276,0 47.512,0.098 47.707,0.293C47.902,0.488 48,0.724 48,1L48,10C48,10.276 47.902,10.512 47.707,10.707C47.512,10.902 47.276,11 47,11L1,11C0.724,11 0.488,10.902 0.293,10.707C0.098,10.512 0,10.276 0,10Z" style="fill:none;stroke:rgb(139,191,64);stroke-width:1px;"/>
            </g>
            <g id="Shape" transform="matrix(1,0,0,1,43,7.00006)">
                <path d="M2.5,3L0,0L5,0L2.5,3Z" style="fill:white;"/>
            </g>
        </g>
    </g>
</svg>
