<?xml version="1.0" encoding="UTF-8" standalone="no"?>
<!DOCTYPE svg PUBLIC "-//W3C//DTD SVG 1.1//EN" "http://www.w3.org/Graphics/SVG/1.1/DTD/svg11.dtd">
<svg width="100%" height="100%" viewBox="0 0 90 28" version="1.1" xmlns="http://www.w3.org/2000/svg" xmlns:xlink="http://www.w3.org/1999/xlink" xml:space="preserve" xmlns:serif="http://www.serif.com/" style="fill-rule:evenodd;clip-rule:evenodd;">
    <path d="M43.5,3.5C43.5,2.948 43.052,2.5 42.5,2.5L3.5,2.5C2.948,2.5 2.5,2.948 2.5,3.5L2.5,10.5C2.5,11.052 2.948,11.5 3.5,11.5L42.5,11.5C43.052,11.5 43.5,11.052 43.5,10.5L43.5,3.5Z" style="fill:rgb(139,191,64);fill-opacity:0.5;"/>
    <path d="M43.5,3.5C43.5,2.948 43.052,2.5 42.5,2.5L3.5,2.5C2.948,2.5 2.5,2.948 2.5,3.5L2.5,10.5C2.5,11.052 2.948,11.5 3.5,11.5L42.5,11.5C43.052,11.5 43.5,11.052 43.5,10.5L43.5,3.5Z" style="fill:none;stroke:rgb(139,191,64);stroke-width:1px;"/>
    <path d="M8.789,5.212L8.789,6.572L10.621,6.572L10.621,7.572L8.789,7.572L8.789,8.96L11.181,8.96L11.181,10L7.429,10L7.429,4.172L11.181,4.172L11.181,5.212L8.789,5.212ZM12.833,6.3C12.913,6.225 12.995,6.156 13.081,6.092C13.166,6.028 13.257,5.975 13.353,5.932C13.451,5.887 13.557,5.852 13.669,5.828C13.783,5.801 13.907,5.788 14.041,5.788C14.267,5.788 14.467,5.828 14.641,5.908C14.817,5.985 14.965,6.095 15.085,6.236C15.205,6.375 15.295,6.541 15.357,6.736C15.418,6.928 15.449,7.137 15.449,7.364L15.449,10L14.209,10L14.209,7.364C14.209,7.161 14.162,7.004 14.069,6.892C13.975,6.777 13.838,6.72 13.657,6.72C13.521,6.72 13.393,6.749 13.273,6.808C13.155,6.864 13.041,6.941 12.929,7.04L12.929,10L11.689,10L11.689,5.852L12.457,5.852C12.611,5.852 12.713,5.921 12.761,6.06L12.833,6.3ZM19.938,5.852L18.33,10L17.202,10L15.594,5.852L16.626,5.852C16.714,5.852 16.787,5.873 16.846,5.916C16.907,5.956 16.948,6.007 16.97,6.068L17.546,7.928C17.596,8.08 17.64,8.228 17.678,8.372C17.718,8.516 17.752,8.66 17.782,8.804C17.84,8.516 17.922,8.224 18.026,7.928L18.626,6.068C18.647,6.007 18.687,5.956 18.746,5.916C18.804,5.873 18.874,5.852 18.954,5.852L19.938,5.852ZM22.662,7.428C22.662,7.329 22.648,7.233 22.622,7.14C22.598,7.047 22.556,6.964 22.498,6.892C22.442,6.817 22.367,6.757 22.274,6.712C22.18,6.667 22.067,6.644 21.934,6.644C21.699,6.644 21.515,6.712 21.382,6.848C21.248,6.981 21.16,7.175 21.118,7.428L22.662,7.428ZM21.102,8.148C21.142,8.495 21.247,8.747 21.418,8.904C21.588,9.059 21.808,9.136 22.078,9.136C22.222,9.136 22.346,9.119 22.45,9.084C22.554,9.049 22.646,9.011 22.726,8.968C22.808,8.925 22.883,8.887 22.95,8.852C23.019,8.817 23.091,8.8 23.166,8.8C23.264,8.8 23.339,8.836 23.39,8.908L23.75,9.352C23.622,9.499 23.483,9.619 23.334,9.712C23.187,9.803 23.035,9.875 22.878,9.928C22.723,9.979 22.567,10.013 22.41,10.032C22.255,10.053 22.107,10.064 21.966,10.064C21.675,10.064 21.402,10.017 21.146,9.924C20.892,9.828 20.67,9.687 20.478,9.5C20.288,9.313 20.138,9.081 20.026,8.804C19.916,8.527 19.862,8.204 19.862,7.836C19.862,7.559 19.908,7.296 20.002,7.048C20.098,6.8 20.234,6.583 20.41,6.396C20.588,6.209 20.803,6.061 21.054,5.952C21.307,5.843 21.592,5.788 21.91,5.788C22.184,5.788 22.435,5.831 22.662,5.916C22.891,6.001 23.087,6.125 23.25,6.288C23.415,6.451 23.543,6.651 23.634,6.888C23.727,7.123 23.774,7.389 23.774,7.688C23.774,7.781 23.77,7.857 23.762,7.916C23.754,7.975 23.739,8.021 23.718,8.056C23.696,8.091 23.667,8.115 23.63,8.128C23.595,8.141 23.55,8.148 23.494,8.148L21.102,8.148ZM25.514,4.012L25.514,10L24.274,10L24.274,4.012L25.514,4.012ZM28.144,5.788C28.459,5.788 28.746,5.837 29.004,5.936C29.263,6.035 29.484,6.176 29.668,6.36C29.855,6.544 29.999,6.768 30.1,7.032C30.204,7.293 30.256,7.588 30.256,7.916C30.256,8.247 30.204,8.545 30.1,8.812C29.999,9.076 29.855,9.301 29.668,9.488C29.484,9.672 29.263,9.815 29.004,9.916C28.746,10.015 28.459,10.064 28.144,10.064C27.827,10.064 27.538,10.015 27.276,9.916C27.017,9.815 26.794,9.672 26.604,9.488C26.418,9.301 26.272,9.076 26.168,8.812C26.067,8.545 26.016,8.247 26.016,7.916C26.016,7.588 26.067,7.293 26.168,7.032C26.272,6.768 26.418,6.544 26.604,6.36C26.794,6.176 27.017,6.035 27.276,5.936C27.538,5.837 27.827,5.788 28.144,5.788ZM28.144,9.144C28.43,9.144 28.639,9.044 28.772,8.844C28.908,8.641 28.976,8.335 28.976,7.924C28.976,7.513 28.908,7.208 28.772,7.008C28.639,6.808 28.43,6.708 28.144,6.708C27.851,6.708 27.636,6.808 27.5,7.008C27.364,7.208 27.296,7.513 27.296,7.924C27.296,8.335 27.364,8.641 27.5,8.844C27.636,9.044 27.851,9.144 28.144,9.144ZM32.001,8.872C32.094,8.973 32.195,9.045 32.305,9.088C32.414,9.131 32.529,9.152 32.649,9.152C32.763,9.152 32.869,9.129 32.965,9.084C33.061,9.039 33.143,8.967 33.213,8.868C33.285,8.767 33.341,8.636 33.381,8.476C33.421,8.316 33.441,8.121 33.441,7.892C33.441,7.673 33.425,7.489 33.393,7.34C33.361,7.191 33.315,7.071 33.257,6.98C33.201,6.887 33.133,6.82 33.053,6.78C32.973,6.74 32.883,6.72 32.785,6.72C32.603,6.72 32.454,6.753 32.337,6.82C32.219,6.887 32.107,6.984 32.001,7.112L32.001,8.872ZM31.925,6.364C32.087,6.191 32.271,6.049 32.477,5.94C32.685,5.828 32.931,5.772 33.217,5.772C33.433,5.772 33.633,5.82 33.817,5.916C34.001,6.012 34.159,6.151 34.293,6.332C34.426,6.513 34.53,6.736 34.605,7C34.682,7.261 34.721,7.559 34.721,7.892C34.721,8.204 34.677,8.492 34.589,8.756C34.503,9.02 34.382,9.249 34.225,9.444C34.07,9.639 33.883,9.791 33.665,9.9C33.449,10.009 33.209,10.064 32.945,10.064C32.729,10.064 32.547,10.033 32.401,9.972C32.254,9.911 32.121,9.828 32.001,9.724L32.001,11.316L30.761,11.316L30.761,5.852L31.529,5.852C31.683,5.852 31.785,5.921 31.833,6.06L31.925,6.364ZM37.822,7.428C37.822,7.329 37.809,7.233 37.782,7.14C37.758,7.047 37.717,6.964 37.658,6.892C37.602,6.817 37.528,6.757 37.434,6.712C37.341,6.667 37.228,6.644 37.094,6.644C36.859,6.644 36.676,6.712 36.542,6.848C36.409,6.981 36.321,7.175 36.278,7.428L37.822,7.428ZM36.262,8.148C36.302,8.495 36.408,8.747 36.578,8.904C36.749,9.059 36.969,9.136 37.238,9.136C37.382,9.136 37.506,9.119 37.61,9.084C37.714,9.049 37.806,9.011 37.886,8.968C37.969,8.925 38.044,8.887 38.11,8.852C38.18,8.817 38.252,8.8 38.326,8.8C38.425,8.8 38.5,8.836 38.55,8.908L38.91,9.352C38.782,9.499 38.644,9.619 38.494,9.712C38.347,9.803 38.196,9.875 38.038,9.928C37.884,9.979 37.728,10.013 37.57,10.032C37.416,10.053 37.268,10.064 37.126,10.064C36.836,10.064 36.562,10.017 36.306,9.924C36.053,9.828 35.83,9.687 35.638,9.5C35.449,9.313 35.298,9.081 35.186,8.804C35.077,8.527 35.022,8.204 35.022,7.836C35.022,7.559 35.069,7.296 35.162,7.048C35.258,6.8 35.394,6.583 35.57,6.396C35.749,6.209 35.964,6.061 36.214,5.952C36.468,5.843 36.753,5.788 37.07,5.788C37.345,5.788 37.596,5.831 37.822,5.916C38.052,6.001 38.248,6.125 38.41,6.288C38.576,6.451 38.704,6.651 38.794,6.888C38.888,7.123 38.934,7.389 38.934,7.688C38.934,7.781 38.93,7.857 38.922,7.916C38.914,7.975 38.9,8.021 38.878,8.056C38.857,8.091 38.828,8.115 38.79,8.128C38.756,8.141 38.71,8.148 38.654,8.148L36.262,8.148Z" style="fill:white;fill-rule:nonzero;"/>
    <path d="M87.5,17.5C87.5,16.948 87.052,16.5 86.5,16.5L47.5,16.5C46.948,16.5 46.5,16.948 46.5,17.5L46.5,24.5C46.5,25.052 46.948,25.5 47.5,25.5L86.5,25.5C87.052,25.5 87.5,25.052 87.5,24.5L87.5,17.5Z" style="fill:rgb(139,191,64);fill-opacity:0.5;"/>
    <path d="M87.5,17.5C87.5,16.948 87.052,16.5 86.5,16.5L47.5,16.5C46.948,16.5 46.5,16.948 46.5,17.5L46.5,24.5C46.5,25.052 46.948,25.5 47.5,25.5L86.5,25.5C87.052,25.5 87.5,25.052 87.5,24.5L87.5,17.5Z" style="fill:none;stroke:rgb(139,191,64);stroke-width:1px;"/>
    <path d="M63.598,22.92L63.598,24L60.086,24L60.086,18.172L61.438,18.172L61.438,22.92L63.598,22.92ZM65.53,19.212L65.53,20.688L67.522,20.688L67.522,21.732L65.53,21.732L65.53,24L64.17,24L64.17,18.172L67.922,18.172L67.922,19.212L65.53,19.212ZM74.246,21.084C74.246,21.505 74.173,21.897 74.026,22.26C73.882,22.623 73.678,22.939 73.414,23.208C73.15,23.475 72.831,23.684 72.458,23.836C72.087,23.988 71.675,24.064 71.222,24.064C70.769,24.064 70.355,23.988 69.982,23.836C69.609,23.684 69.289,23.475 69.022,23.208C68.758,22.939 68.553,22.623 68.406,22.26C68.262,21.897 68.19,21.505 68.19,21.084C68.19,20.663 68.262,20.271 68.406,19.908C68.553,19.545 68.758,19.231 69.022,18.964C69.289,18.697 69.609,18.488 69.982,18.336C70.355,18.184 70.769,18.108 71.222,18.108C71.675,18.108 72.087,18.185 72.458,18.34C72.831,18.492 73.15,18.701 73.414,18.968C73.678,19.235 73.882,19.549 74.026,19.912C74.173,20.275 74.246,20.665 74.246,21.084ZM72.862,21.084C72.862,20.796 72.825,20.537 72.75,20.308C72.675,20.076 72.567,19.88 72.426,19.72C72.287,19.56 72.117,19.437 71.914,19.352C71.711,19.267 71.481,19.224 71.222,19.224C70.961,19.224 70.727,19.267 70.522,19.352C70.319,19.437 70.147,19.56 70.006,19.72C69.867,19.88 69.761,20.076 69.686,20.308C69.611,20.537 69.574,20.796 69.574,21.084C69.574,21.375 69.611,21.636 69.686,21.868C69.761,22.097 69.867,22.292 70.006,22.452C70.147,22.612 70.319,22.735 70.522,22.82C70.727,22.903 70.961,22.944 71.222,22.944C71.481,22.944 71.711,22.903 71.914,22.82C72.117,22.735 72.287,22.612 72.426,22.452C72.567,22.292 72.675,22.097 72.75,21.868C72.825,21.636 72.862,21.375 72.862,21.084Z" style="fill:white;fill-rule:nonzero;"/>
</svg>
