<?xml version="1.0" encoding="UTF-8" standalone="no"?>
<!DOCTYPE svg PUBLIC "-//W3C//DTD SVG 1.1//EN" "http://www.w3.org/Graphics/SVG/1.1/DTD/svg11.dtd">
<svg width="100%" height="100%" viewBox="0 0 51 760" version="1.1" xmlns="http://www.w3.org/2000/svg" xmlns:xlink="http://www.w3.org/1999/xlink" xml:space="preserve" xmlns:serif="http://www.serif.com/" style="fill-rule:evenodd;clip-rule:evenodd;">
    <path d="M24,3C24,2.448 23.552,2 23,2L3,2C2.448,2 2,2.448 2,3L2,13C2,13.552 2.448,14 3,14L23,14C23.552,14 24,13.552 24,13L24,3Z" style="fill:rgb(139,191,64);fill-opacity:0.5;"/>
    <path d="M24,3C24,2.448 23.552,2 23,2L3,2C2.448,2 2,2.448 2,3L2,13C2,13.552 2.448,14 3,14L23,14C23.552,14 24,13.552 24,13L24,3Z" style="fill:none;stroke:rgb(139,191,64);stroke-width:1px;"/>
    <path d="M4.7,8.015C5.251,3.53 9,4.015 9,4.015M13,8.031C12.449,3.545 8.5,4.015 8.5,4.015M13,8C13.551,12.486 17.395,12.027 17.5,12.015M21.3,8.001C20.749,12.487 16.8,12.017 16.8,12.017" style="fill:none;fill-rule:nonzero;stroke:rgb(36,36,36);stroke-width:1px;stroke-linecap:round;"/>
    <path d="M49,79C49,78.448 48.552,78 48,78L28,78C27.448,78 27,78.448 27,79L27,89C27,89.552 27.448,90 28,90L48,90C48.552,90 49,89.552 49,89L49,79Z" style="fill:rgb(139,191,64);fill-opacity:0.5;"/>
    <path d="M49,79C49,78.448 48.552,78 48,78L28,78C27.448,78 27,78.448 27,79L27,89C27,89.552 27.448,90 28,90L48,90C48.552,90 49,89.552 49,89L49,79Z" style="fill:none;stroke:rgb(139,191,64);stroke-width:1px;"/>
    <path d="M46.55,84.016L42.55,88.016L34.55,80.016L30.25,84.016" style="fill:none;fill-rule:nonzero;stroke:rgb(36,36,36);stroke-width:1px;stroke-linecap:round;"/>
    <path d="M24,170C24,169.448 23.552,169 23,169L3,169C2.448,169 2,169.448 2,170L2,180C2,180.552 2.448,181 3,181L23,181C23.552,181 24,180.552 24,180L24,170Z" style="fill:rgb(139,191,64);fill-opacity:0.5;"/>
    <path d="M24,170C24,169.448 23.552,169 23,169L3,169C2.448,169 2,169.448 2,170L2,180C2,180.552 2.448,181 3,181L23,181C23.552,181 24,180.552 24,180L24,170Z" style="fill:none;stroke:rgb(139,191,64);stroke-width:1px;"/>
    <path d="M5,178.534L5,171.534L13,171.534L13,178.534L21,178.534L21,171.534" style="fill:none;fill-rule:nonzero;stroke:rgb(36,36,36);stroke-width:1px;stroke-linecap:round;stroke-linejoin:round;"/>
    <path d="M49,246C49,245.448 48.552,245 48,245L28,245C27.448,245 27,245.448 27,246L27,256C27,256.552 27.448,257 28,257L48,257C48.552,257 49,256.552 49,256L49,246Z" style="fill:rgb(139,191,64);fill-opacity:0.5;"/>
    <path d="M49,246C49,245.448 48.552,245 48,245L28,245C27.448,245 27,245.448 27,246L27,256C27,256.552 27.448,257 28,257L48,257C48.552,257 49,256.552 49,256L49,246Z" style="fill:none;stroke:rgb(139,191,64);stroke-width:1px;"/>
    <path d="M38.4,247.016L46.4,255.016M30.4,255.016L30.4,247.016L30.4,255.016ZM38.4,247.016L38.4,255.016L38.4,247.016ZM30.4,247.016L38.4,255.016L30.4,247.016Z" style="fill:none;fill-rule:nonzero;stroke:rgb(36,36,36);stroke-width:1px;stroke-linecap:round;stroke-linejoin:round;"/>
    <path d="M24,337C24,336.448 23.552,336 23,336L3,336C2.448,336 2,336.448 2,337L2,347C2,347.552 2.448,348 3,348L23,348C23.552,348 24,347.552 24,347L24,337Z" style="fill:rgb(139,191,64);fill-opacity:0.5;"/>
    <path d="M24,337C24,336.448 23.552,336 23,336L3,336C2.448,336 2,336.448 2,337L2,347C2,347.552 2.448,348 3,348L23,348C23.552,348 24,347.552 24,347L24,337Z" style="fill:none;stroke:rgb(139,191,64);stroke-width:1px;"/>
    <path d="M4,341.109C4.043,340.087 4.745,336.53 5,337.109C5.255,337.689 5.4,343.043 5.9,344.043C6.4,345.043 6.53,340.541 7,341.109C7.47,341.678 7.312,346.836 7.779,346.317C8.246,345.798 8.445,339.911 9,339.109C9.555,338.307 9.465,343.376 10,343.109C10.535,342.843 10.641,337.544 11.141,338.044C11.641,338.544 11.535,344.093 12,345.109C12.465,346.126 12.506,341.832 13,342.109C13.494,342.387 13.517,346.846 14,346.109C14.483,345.373 14.431,339.915 14.931,339.165C15.431,338.415 15.522,343.381 16,343.109C16.478,342.837 16.343,337.577 16.843,338.077C17.343,338.577 17.461,344.101 18,345.109C18.539,346.117 18.515,342.384 19,342.109C19.485,341.834 19.441,345.26 19.941,344.01C20.441,342.76 20.485,337.834 21,337.109C21.515,336.384 22,341.109 22,341.109" style="fill:none;fill-rule:nonzero;stroke:rgb(36,36,36);stroke-width:0.75px;"/>
    <path d="M49,413C49,412.448 48.552,412 48,412L28,412C27.448,412 27,412.448 27,413L27,423C27,423.552 27.448,424 28,424L48,424C48.552,424 49,423.552 49,423L49,413Z" style="fill:rgb(139,191,64);fill-opacity:0.5;"/>
    <path d="M49,413C49,412.448 48.552,412 48,412L28,412C27.448,412 27,412.448 27,413L27,423C27,423.552 27.448,424 28,424L48,424C48.552,424 49,423.552 49,423L49,413Z" style="fill:none;stroke:rgb(139,191,64);stroke-width:1px;"/>
    <path d="M39.4,421.016L41.4,421.016M31.4,418.016L31.4,414.016L31.4,418.016ZM39.4,421.016L39.4,415.016L39.4,421.016ZM33.4,414.016L33.4,417.016L33.4,414.016ZM43.4,416.016L43.4,417.516L43.4,416.016ZM35.4,417.016L35.4,422.016L35.4,417.016ZM41.4,417.516L41.4,421.016L41.4,417.516ZM45.4,416.016L45.4,420.016L45.4,416.016ZM37.4,415.016L37.4,422.016L37.4,415.016ZM31.4,414.016L33.4,414.016L31.4,414.016ZM33.4,417.016L35.4,417.016L33.4,417.016ZM35.4,422.016L37.4,422.016L35.4,422.016ZM37.4,415.016L39.4,415.016L37.4,415.016ZM41.4,417.516L43.4,417.516L41.4,417.516ZM43.4,416.016L45.4,416.016L43.4,416.016ZM29.4,418.016L31.4,418.016L29.4,418.016ZM45.4,420.016L47.4,420.016L45.4,420.016Z" style="fill:none;fill-rule:nonzero;stroke:rgb(36,36,36);stroke-width:1px;stroke-linecap:round;stroke-linejoin:round;"/>
    <path d="M24,504C24,503.448 23.552,503 23,503L3,503C2.448,503 2,503.448 2,504L2,514C2,514.552 2.448,515 3,515L23,515C23.552,515 24,514.552 24,514L24,504Z" style="fill:rgb(139,191,64);fill-opacity:0.5;"/>
    <path d="M24,504C24,503.448 23.552,503 23,503L3,503C2.448,503 2,503.448 2,504L2,514C2,514.552 2.448,515 3,515L23,515C23.552,515 24,514.552 24,514L24,504Z" style="fill:none;stroke:rgb(139,191,64);stroke-width:1px;"/>
    <path d="M18,508.854L21,512.854M5,512.854L8,504.854L5,512.854ZM18,508.854L11,508.854L18,508.854ZM8,504.854L11,508.854L8,504.854Z" style="fill:none;fill-rule:nonzero;stroke:rgb(36,36,36);stroke-width:1px;stroke-linecap:round;stroke-linejoin:round;"/>
    <path d="M49,580C49,579.448 48.552,579 48,579L28,579C27.448,579 27,579.448 27,580L27,590C27,590.552 27.448,591 28,591L48,591C48.552,591 49,590.552 49,590L49,580Z" style="fill:rgb(139,191,64);fill-opacity:0.5;"/>
    <path d="M49,580C49,579.448 48.552,579 48,579L28,579C27.448,579 27,579.448 27,580L27,590C27,590.552 27.448,591 28,591L48,591C48.552,591 49,590.552 49,590L49,580Z" style="fill:none;stroke:rgb(139,191,64);stroke-width:1px;"/>
    <path d="M30.5,589.516L30.5,585.516L29.5,585.516L29.5,589.516L30.5,589.516ZM41,582.516L40,582.516L40,584.516L41,584.516L41,582.516ZM45.2,585.516L44.2,585.516L44.2,587.516L45.2,587.516L45.2,585.516ZM37.9,580.516L37.9,584.516L38.9,584.516L38.9,580.516L37.9,580.516ZM35.8,582.516L35.8,584.516L36.8,584.516L36.8,582.516L35.8,582.516ZM47.3,585.516L46.3,585.516L46.3,589.516L47.3,589.516L47.3,585.516ZM32.6,587.516L32.6,585.516L31.6,585.516L31.6,587.516L32.6,587.516Z" style="fill:none;fill-rule:nonzero;stroke:rgb(36,36,36);stroke-width:1px;"/>
    <path d="M24,671C24,670.448 23.552,670 23,670L3,670C2.448,670 2,670.448 2,671L2,681C2,681.552 2.448,682 3,682L23,682C23.552,682 24,681.552 24,681L24,671Z" style="fill:rgb(139,191,64);fill-opacity:0.5;"/>
    <path d="M24,671C24,670.448 23.552,670 23,670L3,670C2.448,670 2,670.448 2,671L2,681C2,681.552 2.448,682 3,682L23,682C23.552,682 24,681.552 24,681L24,671Z" style="fill:none;stroke:rgb(139,191,64);stroke-width:1px;"/>
    <path d="M11,672.5C11,672.224 11.224,672 11.5,672C11.776,672 12,672.224 12,672.5C12,672.776 11.776,673 11.5,673C11.224,673 11,672.776 11,672.5ZM11.009,673.371C10.578,673.525 10.235,673.82 9.93,674.223C9.447,674.862 9.096,675.731 8.714,676.686L8.699,676.723C8.335,677.633 7.94,678.622 7.368,679.379C6.882,680.022 6.252,680.52 5.399,680.688C5.237,681.021 4.895,681.25 4.5,681.25C3.948,681.25 3.5,680.802 3.5,680.25C3.5,679.698 3.948,679.25 4.5,679.25C4.841,679.25 5.142,679.42 5.322,679.68C5.833,679.548 6.227,679.231 6.57,678.777C7.053,678.138 7.404,677.269 7.786,676.314L7.801,676.277C8.165,675.367 8.56,674.377 9.132,673.62C9.496,673.139 9.941,672.738 10.5,672.497C10.502,671.946 10.949,671.5 11.5,671.5C12.052,671.5 12.5,671.948 12.5,672.5C12.5,672.668 12.459,672.826 12.386,672.965C12.431,673.068 12.485,673.187 12.547,673.32C12.761,673.779 13.066,674.387 13.429,674.993C13.794,675.602 14.208,676.188 14.635,676.615C14.827,676.807 15.007,676.952 15.173,677.055C15.275,677.019 15.386,677 15.5,677C15.522,677 15.543,677.001 15.565,677.002C15.598,676.94 15.634,676.874 15.672,676.804C15.915,676.367 16.273,675.781 16.73,675.193C17.405,674.326 18.36,673.371 19.543,672.959C19.668,672.548 20.049,672.25 20.5,672.25C21.052,672.25 21.5,672.698 21.5,673.25C21.5,673.802 21.052,674.25 20.5,674.25C20.215,674.25 19.958,674.131 19.776,673.939C18.918,674.271 18.149,674.998 17.52,675.807C17.102,676.343 16.773,676.883 16.547,677.29C16.491,677.39 16.442,677.481 16.399,677.562C16.464,677.695 16.5,677.843 16.5,678C16.5,678.552 16.052,679 15.5,679C14.948,679 14.5,678.552 14.5,678C14.5,677.938 14.506,677.878 14.516,677.82C14.305,677.674 14.108,677.502 13.928,677.322C13.418,676.812 12.956,676.148 12.571,675.507C12.185,674.863 11.864,674.221 11.641,673.743C11.6,673.656 11.563,673.575 11.529,673.5L11.5,673.5C11.322,673.5 11.154,673.453 11.009,673.371ZM4.5,679.75C4.224,679.75 4,679.974 4,680.25C4,680.526 4.224,680.75 4.5,680.75C4.776,680.75 5,680.526 5,680.25C5,679.974 4.776,679.75 4.5,679.75ZM15.5,677.5C15.224,677.5 15,677.724 15,678C15,678.276 15.224,678.5 15.5,678.5C15.776,678.5 16,678.276 16,678C16,677.724 15.776,677.5 15.5,677.5ZM20,673.25C20,672.974 20.224,672.75 20.5,672.75C20.776,672.75 21,672.974 21,673.25C21,673.526 20.776,673.75 20.5,673.75C20.224,673.75 20,673.526 20,673.25Z" style="fill:rgb(36,36,36);"/>
    <path d="M49,747C49,746.448 48.552,746 48,746L28,746C27.448,746 27,746.448 27,747L27,757C27,757.552 27.448,758 28,758L48,758C48.552,758 49,757.552 49,757L49,747Z" style="fill:rgb(139,191,64);fill-opacity:0.5;"/>
    <path d="M49,747C49,746.448 48.552,746 48,746L28,746C27.448,746 27,746.448 27,747L27,757C27,757.552 27.448,758 28,758L48,758C48.552,758 49,757.552 49,757L49,747Z" style="fill:none;stroke:rgb(139,191,64);stroke-width:1px;"/>
    <path d="M31.284,753.142L31.627,751.788L32.04,751.788L32.142,751.445L31.717,751.445C31.839,750.951 31.999,750.59 32.198,750.361C32.319,750.219 32.437,750.147 32.552,750.147C32.576,750.147 32.595,750.154 32.609,750.168C32.624,750.182 32.631,750.199 32.631,750.221C32.631,750.24 32.615,750.277 32.583,750.332C32.551,750.387 32.535,750.438 32.535,750.487C32.535,750.556 32.56,750.614 32.611,750.663C32.662,750.712 32.726,750.736 32.804,750.736C32.888,750.736 32.959,750.707 33.015,750.647C33.072,750.587 33.1,750.507 33.1,750.405C33.1,750.29 33.058,750.196 32.973,750.124C32.888,750.052 32.752,750.016 32.564,750.016C32.271,750.016 32.005,750.102 31.767,750.273C31.529,750.445 31.302,750.729 31.087,751.126C31.013,751.263 30.943,751.351 30.877,751.39C30.81,751.429 30.704,751.447 30.557,751.445L30.461,751.788L30.868,751.788L30.27,754.129C30.171,754.514 30.103,754.751 30.068,754.841C30.017,754.972 29.94,755.083 29.837,755.175C29.796,755.212 29.746,755.23 29.687,755.23C29.672,755.23 29.658,755.226 29.646,755.216L29.631,755.195C29.631,755.186 29.646,755.166 29.675,755.135C29.705,755.105 29.719,755.059 29.719,754.996C29.719,754.928 29.696,754.871 29.649,754.826C29.602,754.781 29.535,754.759 29.447,754.759C29.341,754.759 29.256,754.788 29.192,754.847C29.128,754.905 29.095,754.975 29.095,755.055C29.095,755.141 29.134,755.215 29.212,755.279C29.291,755.342 29.413,755.374 29.579,755.374C29.842,755.374 30.076,755.305 30.28,755.167C30.485,755.03 30.663,754.817 30.815,754.53C30.967,754.243 31.124,753.78 31.284,753.142ZM46.281,751.782L46.788,750.016L46.612,750.016L45.633,750.188L45.601,750.306C45.713,750.3 45.795,750.316 45.85,750.355C45.889,750.383 45.909,750.42 45.909,750.467C45.909,750.521 45.887,750.622 45.844,750.769L44.948,753.877C45.307,754.066 45.648,754.161 45.97,754.161C46.404,754.161 46.791,753.979 47.131,753.613C47.513,753.199 47.705,752.729 47.705,752.201C47.705,751.98 47.647,751.786 47.53,751.617C47.414,751.448 47.239,751.363 47.005,751.363C46.883,751.363 46.771,751.391 46.668,751.447C46.564,751.502 46.435,751.614 46.281,751.782ZM41.708,751.899L43.117,751.899L43.117,750.493L43.501,750.493L43.501,751.899L44.91,751.899L44.91,752.286L43.501,752.286L43.501,753.681L43.117,753.681L43.117,752.286L41.708,752.286L41.708,751.899ZM38.347,751.404L37.779,753.353L37.72,753.59C37.714,753.619 37.712,753.641 37.712,753.654C37.712,753.678 37.72,753.698 37.736,753.716C37.753,753.733 37.77,753.742 37.788,753.742C37.829,753.742 37.885,753.711 37.958,753.648C37.987,753.623 38.057,753.533 38.169,753.379L38.271,753.432C38.132,753.686 37.984,753.871 37.827,753.987C37.67,754.103 37.501,754.161 37.319,754.161C37.208,754.161 37.123,754.132 37.064,754.075C37.006,754.017 36.976,753.944 36.976,753.856C36.976,753.78 37.007,753.639 37.07,753.432L37.14,753.194C36.914,753.583 36.696,753.858 36.487,754.021C36.366,754.114 36.237,754.161 36.1,754.161C35.92,754.161 35.791,754.087 35.711,753.94C35.631,753.792 35.59,753.626 35.59,753.44C35.59,753.165 35.674,752.849 35.842,752.493C36.01,752.136 36.231,751.85 36.505,751.633C36.729,751.453 36.94,751.363 37.137,751.363C37.247,751.363 37.335,751.395 37.401,751.458C37.467,751.522 37.516,751.638 37.548,751.806L37.653,751.445L38.347,751.404ZM39.768,751.363L38.746,751.539L38.725,751.65C38.801,751.635 38.866,751.627 38.919,751.627C39.02,751.627 39.104,751.671 39.17,751.759C39.276,751.896 39.422,752.312 39.61,753.007C39.463,753.204 39.363,753.333 39.308,753.394C39.218,753.491 39.144,753.555 39.086,753.584C39.041,753.607 38.99,753.619 38.933,753.619C38.89,753.619 38.82,753.596 38.722,753.549C38.656,753.518 38.596,753.502 38.544,753.502C38.444,753.502 38.362,753.534 38.298,753.599C38.233,753.663 38.201,753.745 38.201,753.845C38.201,753.938 38.231,754.015 38.29,754.073C38.35,754.132 38.43,754.161 38.532,754.161C38.63,754.161 38.721,754.141 38.807,754.1C38.893,754.059 39.001,753.971 39.131,753.837C39.261,753.704 39.44,753.491 39.669,753.2C39.756,753.478 39.833,753.679 39.897,753.805C39.962,753.931 40.035,754.022 40.118,754.078C40.201,754.133 40.305,754.161 40.43,754.161C40.551,754.161 40.674,754.117 40.799,754.029C40.964,753.916 41.131,753.721 41.303,753.443L41.198,753.382C41.081,753.546 40.994,753.648 40.937,753.689C40.9,753.715 40.856,753.728 40.805,753.728C40.745,753.728 40.685,753.689 40.627,753.613C40.527,753.484 40.394,753.127 40.228,752.541C40.377,752.279 40.502,752.108 40.603,752.028C40.677,751.97 40.755,751.94 40.838,751.94C40.869,751.94 40.925,751.952 41.006,751.974C41.087,751.997 41.159,752.008 41.221,752.008C41.307,752.008 41.379,751.978 41.437,751.918C41.494,751.859 41.523,751.782 41.523,751.688C41.523,751.589 41.494,751.51 41.437,751.451C41.379,751.393 41.297,751.363 41.189,751.363C41.093,751.363 41.003,751.386 40.918,751.432C40.833,751.478 40.725,751.577 40.594,751.729C40.497,751.843 40.352,752.041 40.161,752.324C40.085,751.975 39.954,751.654 39.768,751.363ZM35.494,751.431L32.289,751.431L32.289,751.812L35.494,751.812L35.494,751.431ZM37.41,751.961C37.41,751.803 37.385,751.688 37.337,751.618C37.301,751.569 37.254,751.545 37.193,751.545C37.132,751.545 37.07,751.574 37.006,751.633C36.875,751.754 36.734,752 36.582,752.37C36.431,752.74 36.355,753.06 36.355,753.329C36.355,753.433 36.372,753.507 36.406,753.553C36.441,753.599 36.478,753.622 36.519,753.622C36.607,753.622 36.696,753.571 36.786,753.47C36.915,753.325 37.031,753.148 37.134,752.939C37.318,752.572 37.41,752.246 37.41,751.961ZM45.912,753.994C45.838,753.994 45.755,753.965 45.663,753.906L46.061,752.529C46.141,752.25 46.215,752.067 46.284,751.981C46.385,751.849 46.505,751.782 46.641,751.782C46.723,751.782 46.795,751.818 46.858,751.891C46.92,751.963 46.952,752.068 46.952,752.207C46.952,752.451 46.911,752.696 46.829,752.942C46.747,753.188 46.645,753.398 46.523,753.572C46.4,753.746 46.284,753.866 46.172,753.933C46.102,753.974 46.015,753.994 45.912,753.994ZM35.494,752.389L32.289,752.389L32.289,752.77L35.494,752.77L35.494,752.389Z" style="fill:rgb(36,36,36);fill-rule:nonzero;"/>
</svg>
