<?xml version="1.0" encoding="UTF-8" standalone="no"?>
<!DOCTYPE svg PUBLIC "-//W3C//DTD SVG 1.1//EN" "http://www.w3.org/Graphics/SVG/1.1/DTD/svg11.dtd">
<svg width="100%" height="100%" viewBox="0 0 31 24" version="1.1" xmlns="http://www.w3.org/2000/svg" xmlns:xlink="http://www.w3.org/1999/xlink" xml:space="preserve" xmlns:serif="http://www.serif.com/" style="fill-rule:evenodd;clip-rule:evenodd;">
    <path d="M28.5,3.5C28.5,2.948 28.052,2.5 27.5,2.5L3.5,2.5C2.948,2.5 2.5,2.948 2.5,3.5L2.5,8.5C2.5,9.052 2.948,9.5 3.5,9.5L27.5,9.5C28.052,9.5 28.5,9.052 28.5,8.5L28.5,3.5Z" style="fill:rgb(139,191,64);fill-opacity:0.5;"/>
    <path d="M28.5,3.5C28.5,2.948 28.052,2.5 27.5,2.5L3.5,2.5C2.948,2.5 2.5,2.948 2.5,3.5L2.5,8.5C2.5,9.052 2.948,9.5 3.5,9.5L27.5,9.5C28.052,9.5 28.5,9.052 28.5,8.5L28.5,3.5Z" style="fill:none;stroke:rgb(139,191,64);stroke-width:1px;"/>
    <path d="M14.06,3.172L14.06,9L12.868,9L12.868,5.648C12.868,5.571 12.87,5.487 12.872,5.396C12.878,5.305 12.886,5.213 12.896,5.12L11.348,8.116C11.3,8.209 11.235,8.28 11.152,8.328C11.072,8.376 10.98,8.4 10.876,8.4L10.692,8.4C10.588,8.4 10.495,8.376 10.412,8.328C10.332,8.28 10.268,8.209 10.22,8.116L8.672,5.112C8.68,5.208 8.687,5.303 8.692,5.396C8.698,5.487 8.7,5.571 8.7,5.648L8.7,9L7.508,9L7.508,3.172L8.54,3.172C8.599,3.172 8.65,3.173 8.692,3.176C8.738,3.179 8.778,3.187 8.812,3.2C8.847,3.213 8.878,3.235 8.904,3.264C8.934,3.291 8.962,3.329 8.988,3.38L10.488,6.336C10.542,6.437 10.592,6.543 10.64,6.652C10.691,6.761 10.739,6.873 10.784,6.988C10.83,6.871 10.876,6.756 10.924,6.644C10.975,6.532 11.028,6.425 11.084,6.324L12.58,3.38C12.607,3.329 12.634,3.291 12.66,3.264C12.69,3.235 12.722,3.213 12.756,3.2C12.791,3.187 12.83,3.179 12.872,3.176C12.918,3.173 12.97,3.172 13.028,3.172L14.06,3.172ZM17.124,6.032C17.476,6.032 17.729,5.948 17.884,5.78C18.039,5.612 18.116,5.377 18.116,5.076C18.116,4.943 18.096,4.821 18.056,4.712C18.016,4.603 17.955,4.509 17.872,4.432C17.792,4.352 17.689,4.291 17.564,4.248C17.441,4.205 17.295,4.184 17.124,4.184L16.42,4.184L16.42,6.032L17.124,6.032ZM17.124,3.172C17.535,3.172 17.887,3.221 18.18,3.32C18.476,3.416 18.719,3.549 18.908,3.72C19.1,3.891 19.241,4.092 19.332,4.324C19.423,4.556 19.468,4.807 19.468,5.076C19.468,5.367 19.421,5.633 19.328,5.876C19.235,6.119 19.092,6.327 18.9,6.5C18.708,6.673 18.464,6.809 18.168,6.908C17.875,7.004 17.527,7.052 17.124,7.052L16.42,7.052L16.42,9L15.068,9L15.068,3.172L17.124,3.172ZM21.394,4.212L21.394,5.572L23.226,5.572L23.226,6.572L21.394,6.572L21.394,7.96L23.786,7.96L23.786,9L20.034,9L20.034,3.172L23.786,3.172L23.786,4.212L21.394,4.212Z" style="fill:white;fill-rule:nonzero;"/>
    <path d="M29.5,14.5C29.5,13.948 29.052,13.5 28.5,13.5L2.5,13.5C1.948,13.5 1.5,13.948 1.5,14.5L1.5,21.5C1.5,22.052 1.948,22.5 2.5,22.5L28.5,22.5C29.052,22.5 29.5,22.052 29.5,21.5L29.5,14.5Z" style="fill:rgb(139,191,64);fill-opacity:0.5;"/>
    <path d="M29.5,14.5C29.5,13.948 29.052,13.5 28.5,13.5L2.5,13.5C1.948,13.5 1.5,13.948 1.5,14.5L1.5,21.5C1.5,22.052 1.948,22.5 2.5,22.5L28.5,22.5C29.052,22.5 29.5,22.052 29.5,21.5L29.5,14.5Z" style="fill:none;stroke:rgb(139,191,64);stroke-width:1px;"/>
    <path d="M14.06,15.172L14.06,21L12.868,21L12.868,17.648C12.868,17.571 12.87,17.487 12.872,17.396C12.878,17.305 12.886,17.213 12.896,17.12L11.348,20.116C11.3,20.209 11.235,20.28 11.152,20.328C11.072,20.376 10.98,20.4 10.876,20.4L10.692,20.4C10.588,20.4 10.495,20.376 10.412,20.328C10.332,20.28 10.268,20.209 10.22,20.116L8.672,17.112C8.68,17.208 8.687,17.303 8.692,17.396C8.698,17.487 8.7,17.571 8.7,17.648L8.7,21L7.508,21L7.508,15.172L8.54,15.172C8.599,15.172 8.65,15.173 8.692,15.176C8.738,15.179 8.778,15.187 8.812,15.2C8.847,15.213 8.878,15.235 8.904,15.264C8.934,15.291 8.962,15.329 8.988,15.38L10.488,18.336C10.542,18.437 10.592,18.543 10.64,18.652C10.691,18.761 10.739,18.873 10.784,18.988C10.83,18.871 10.876,18.756 10.924,18.644C10.975,18.532 11.028,18.425 11.084,18.324L12.58,15.38C12.607,15.329 12.634,15.291 12.66,15.264C12.69,15.235 12.722,15.213 12.756,15.2C12.791,15.187 12.83,15.179 12.872,15.176C12.918,15.173 12.97,15.172 13.028,15.172L14.06,15.172ZM17.124,18.032C17.476,18.032 17.729,17.948 17.884,17.78C18.039,17.612 18.116,17.377 18.116,17.076C18.116,16.943 18.096,16.821 18.056,16.712C18.016,16.603 17.955,16.509 17.872,16.432C17.792,16.352 17.689,16.291 17.564,16.248C17.441,16.205 17.295,16.184 17.124,16.184L16.42,16.184L16.42,18.032L17.124,18.032ZM17.124,15.172C17.535,15.172 17.887,15.221 18.18,15.32C18.476,15.416 18.719,15.549 18.908,15.72C19.1,15.891 19.241,16.092 19.332,16.324C19.423,16.556 19.468,16.807 19.468,17.076C19.468,17.367 19.421,17.633 19.328,17.876C19.235,18.119 19.092,18.327 18.9,18.5C18.708,18.673 18.464,18.809 18.168,18.908C17.875,19.004 17.527,19.052 17.124,19.052L16.42,19.052L16.42,21L15.068,21L15.068,15.172L17.124,15.172ZM21.394,16.212L21.394,17.572L23.226,17.572L23.226,18.572L21.394,18.572L21.394,19.96L23.786,19.96L23.786,21L20.034,21L20.034,15.172L23.786,15.172L23.786,16.212L21.394,16.212Z" style="fill-rule:nonzero;"/>
</svg>
