<?xml version="1.0" encoding="UTF-8" standalone="no"?>
<!DOCTYPE svg PUBLIC "-//W3C//DTD SVG 1.1//EN" "http://www.w3.org/Graphics/SVG/1.1/DTD/svg11.dtd">
<svg width="100%" height="100%" viewBox="0 0 28 306" version="1.1" xmlns="http://www.w3.org/2000/svg" xmlns:xlink="http://www.w3.org/1999/xlink" xml:space="preserve" xmlns:serif="http://www.serif.com/" style="fill-rule:evenodd;clip-rule:evenodd;">
    <path d="M26.75,3C26.75,2.448 26.302,2 25.75,2L2.75,2C2.198,2 1.75,2.448 1.75,3L1.75,8C1.75,8.552 2.198,9 2.75,9L25.75,9C26.302,9 26.75,8.552 26.75,8L26.75,3Z" style="fill:rgb(139,191,64);fill-opacity:0.5;"/>
    <path d="M26.75,3C26.75,2.448 26.302,2 25.75,2L2.75,2C2.198,2 1.75,2.448 1.75,3L1.75,8C1.75,8.552 2.198,9 2.75,9L25.75,9C26.302,9 26.75,8.552 26.75,8L26.75,3Z" style="fill:none;stroke:rgb(139,191,64);stroke-width:1px;"/>
    <path d="M13.038,5.949C13.038,6.317 12.974,6.66 12.846,6.978C12.72,7.295 12.541,7.571 12.31,7.807C12.079,8.04 11.8,8.224 11.474,8.357C11.149,8.49 10.789,8.556 10.392,8.556C9.995,8.556 9.634,8.49 9.307,8.357C8.98,8.224 8.7,8.04 8.467,7.807C8.236,7.571 8.056,7.295 7.928,6.978C7.802,6.66 7.739,6.317 7.739,5.949C7.739,5.58 7.802,5.237 7.928,4.92C8.056,4.602 8.236,4.327 8.467,4.093C8.7,3.86 8.98,3.677 9.307,3.544C9.634,3.411 9.995,3.345 10.392,3.345C10.789,3.345 11.149,3.412 11.474,3.548C11.8,3.681 12.079,3.864 12.31,4.097C12.541,4.33 12.72,4.606 12.846,4.923C12.974,5.24 13.038,5.582 13.038,5.949ZM11.827,5.949C11.827,5.697 11.794,5.47 11.729,5.27C11.664,5.066 11.569,4.895 11.446,4.755C11.324,4.615 11.175,4.508 10.998,4.433C10.82,4.358 10.618,4.321 10.392,4.321C10.163,4.321 9.959,4.358 9.78,4.433C9.602,4.508 9.452,4.615 9.328,4.755C9.207,4.895 9.113,5.066 9.048,5.27C8.983,5.47 8.95,5.697 8.95,5.949C8.95,6.203 8.983,6.432 9.048,6.635C9.113,6.835 9.207,7.005 9.328,7.146C9.452,7.286 9.602,7.393 9.78,7.468C9.959,7.54 10.163,7.576 10.392,7.576C10.618,7.576 10.82,7.54 10.998,7.468C11.175,7.393 11.324,7.286 11.446,7.146C11.569,7.005 11.664,6.835 11.729,6.635C11.794,6.432 11.827,6.203 11.827,5.949ZM14.819,4.311L14.819,5.602L16.562,5.602L16.562,6.516L14.819,6.516L14.819,8.5L13.629,8.5L13.629,3.401L16.912,3.401L16.912,4.311L14.819,4.311ZM18.679,4.311L18.679,5.602L20.422,5.602L20.422,6.516L18.679,6.516L18.679,8.5L17.489,8.5L17.489,3.401L20.772,3.401L20.772,4.311L18.679,4.311Z" style="fill:white;fill-rule:nonzero;"/>
    <path d="M26.75,62C26.75,61.448 26.302,61 25.75,61L2.75,61C2.198,61 1.75,61.448 1.75,62L1.75,67C1.75,67.552 2.198,68 2.75,68L25.75,68C26.302,68 26.75,67.552 26.75,67L26.75,62Z" style="fill:rgb(139,191,64);fill-opacity:0.5;"/>
    <path d="M26.75,62C26.75,61.448 26.302,61 25.75,61L2.75,61C2.198,61 1.75,61.448 1.75,62L1.75,67C1.75,67.552 2.198,68 2.75,68L25.75,68C26.302,68 26.75,67.552 26.75,67L26.75,62Z" style="fill:none;stroke:rgb(139,191,64);stroke-width:1px;"/>
    <path d="M8.815,63.437C8.78,63.493 8.742,63.535 8.703,63.563C8.665,63.591 8.616,63.605 8.556,63.605C8.502,63.605 8.444,63.588 8.381,63.556C8.32,63.521 8.25,63.482 8.171,63.44C8.094,63.398 8.005,63.361 7.905,63.328C7.804,63.293 7.69,63.276 7.562,63.276C7.34,63.276 7.174,63.323 7.065,63.419C6.957,63.512 6.904,63.64 6.904,63.801C6.904,63.903 6.936,63.988 7.002,64.056C7.067,64.124 7.152,64.182 7.257,64.231C7.365,64.28 7.486,64.326 7.621,64.368C7.759,64.407 7.899,64.453 8.041,64.504C8.184,64.553 8.322,64.611 8.458,64.679C8.595,64.747 8.717,64.833 8.822,64.938C8.929,65.043 9.015,65.171 9.081,65.323C9.146,65.472 9.179,65.653 9.179,65.866C9.179,66.101 9.138,66.322 9.056,66.527C8.975,66.732 8.856,66.912 8.699,67.066C8.545,67.218 8.354,67.338 8.125,67.427C7.899,67.513 7.641,67.556 7.352,67.556C7.193,67.556 7.031,67.54 6.865,67.507C6.702,67.474 6.543,67.429 6.389,67.371C6.235,67.31 6.091,67.239 5.955,67.157C5.82,67.075 5.702,66.984 5.602,66.884L5.952,66.331C5.98,66.291 6.016,66.259 6.06,66.233C6.107,66.205 6.157,66.191 6.211,66.191C6.281,66.191 6.351,66.213 6.421,66.257C6.493,66.302 6.574,66.351 6.662,66.405C6.753,66.458 6.857,66.507 6.974,66.552C7.09,66.596 7.228,66.618 7.387,66.618C7.601,66.618 7.768,66.571 7.887,66.478C8.006,66.382 8.066,66.232 8.066,66.027C8.066,65.908 8.033,65.811 7.968,65.736C7.902,65.661 7.816,65.6 7.709,65.551C7.604,65.501 7.484,65.458 7.348,65.421C7.213,65.384 7.074,65.343 6.932,65.299C6.789,65.252 6.651,65.196 6.515,65.131C6.38,65.063 6.259,64.975 6.151,64.868C6.046,64.758 5.961,64.623 5.896,64.462C5.83,64.299 5.798,64.098 5.798,63.86C5.798,63.669 5.836,63.482 5.913,63.3C5.99,63.118 6.103,62.956 6.253,62.813C6.402,62.671 6.585,62.558 6.802,62.474C7.019,62.388 7.268,62.344 7.548,62.344C7.704,62.344 7.856,62.357 8.003,62.383C8.152,62.406 8.293,62.443 8.426,62.492C8.559,62.538 8.683,62.595 8.797,62.663C8.914,62.728 9.018,62.803 9.109,62.887L8.815,63.437ZM14.773,64.948C14.773,65.317 14.709,65.66 14.581,65.978C14.455,66.295 14.276,66.571 14.045,66.807C13.814,67.04 13.535,67.224 13.209,67.357C12.884,67.49 12.524,67.556 12.127,67.556C11.73,67.556 11.369,67.49 11.042,67.357C10.716,67.224 10.436,67.04 10.202,66.807C9.971,66.571 9.791,66.295 9.663,65.978C9.537,65.66 9.474,65.317 9.474,64.948C9.474,64.58 9.537,64.237 9.663,63.92C9.791,63.602 9.971,63.327 10.202,63.094C10.436,62.86 10.716,62.677 11.042,62.544C11.369,62.411 11.73,62.344 12.127,62.344C12.524,62.344 12.884,62.412 13.209,62.548C13.535,62.681 13.814,62.864 14.045,63.097C14.276,63.33 14.455,63.606 14.581,63.923C14.709,64.24 14.773,64.582 14.773,64.948ZM13.562,64.948C13.562,64.697 13.53,64.47 13.464,64.269C13.399,64.067 13.304,63.895 13.181,63.755C13.059,63.615 12.91,63.508 12.733,63.433C12.555,63.358 12.354,63.321 12.127,63.321C11.899,63.321 11.694,63.358 11.515,63.433C11.337,63.508 11.187,63.615 11.063,63.755C10.942,63.895 10.849,64.067 10.783,64.269C10.718,64.47 10.685,64.697 10.685,64.948C10.685,65.203 10.718,65.432 10.783,65.635C10.849,65.835 10.942,66.006 11.063,66.146C11.187,66.286 11.337,66.393 11.515,66.468C11.694,66.54 11.899,66.576 12.127,66.576C12.354,66.576 12.555,66.54 12.733,66.468C12.91,66.393 13.059,66.286 13.181,66.146C13.304,66.006 13.399,65.835 13.464,65.635C13.53,65.432 13.562,65.203 13.562,64.948ZM16.554,63.31L16.554,64.602L18.297,64.602L18.297,65.516L16.554,65.516L16.554,67.5L15.364,67.5L15.364,62.401L18.647,62.401L18.647,63.31L16.554,63.31ZM22.889,63.339L21.454,63.339L21.454,67.5L20.271,67.5L20.271,63.339L18.836,63.339L18.836,62.401L22.889,62.401L22.889,63.339Z" style="fill:white;fill-rule:nonzero;"/>
    <path d="M26.75,121C26.75,120.448 26.302,120 25.75,120L2.75,120C2.198,120 1.75,120.448 1.75,121L1.75,126C1.75,126.552 2.198,127 2.75,127L25.75,127C26.302,127 26.75,126.552 26.75,126L26.75,121Z" style="fill:rgb(139,191,64);fill-opacity:0.5;"/>
    <path d="M26.75,121C26.75,120.448 26.302,120 25.75,120L2.75,120C2.198,120 1.75,120.448 1.75,121L1.75,126C1.75,126.552 2.198,127 2.75,127L25.75,127C26.302,127 26.75,126.552 26.75,126L26.75,121Z" style="fill:none;stroke:rgb(139,191,64);stroke-width:1px;"/>
    <path d="M9.181,121.4L9.181,126.5L7.991,126.5L7.991,124.344L5.919,124.344L5.919,126.5L4.729,126.5L4.729,121.4L5.919,121.4L5.919,123.532L7.991,123.532L7.991,121.4L9.181,121.4ZM12.761,124.55L12.288,123.154C12.253,123.065 12.216,122.961 12.176,122.842C12.136,122.721 12.097,122.59 12.057,122.45C12.022,122.593 11.985,122.725 11.945,122.846C11.905,122.967 11.868,123.072 11.833,123.161L11.364,124.55L12.761,124.55ZM14.64,126.5L13.723,126.5C13.62,126.5 13.538,126.477 13.475,126.43C13.412,126.381 13.364,126.319 13.331,126.244L13.03,125.355L11.091,125.355L10.79,126.244C10.764,126.31 10.718,126.369 10.65,126.423C10.585,126.474 10.503,126.5 10.405,126.5L9.481,126.5L11.455,121.4L12.666,121.4L14.64,126.5ZM16.596,123.798C16.757,123.798 16.894,123.778 17.006,123.738C17.12,123.696 17.213,123.639 17.286,123.567C17.358,123.495 17.41,123.411 17.443,123.315C17.476,123.217 17.492,123.112 17.492,123C17.492,122.776 17.419,122.601 17.272,122.475C17.127,122.349 16.902,122.286 16.596,122.286L16.12,122.286L16.12,123.798L16.596,123.798ZM19.109,126.5L18.038,126.5C17.84,126.5 17.697,126.425 17.611,126.276L16.764,124.795C16.724,124.732 16.68,124.687 16.631,124.659C16.582,124.629 16.512,124.613 16.421,124.613L16.12,124.613L16.12,126.5L14.937,126.5L14.937,121.4L16.596,121.4C16.965,121.4 17.279,121.439 17.538,121.516C17.799,121.591 18.011,121.696 18.175,121.831C18.34,121.966 18.46,122.126 18.535,122.31C18.61,122.495 18.647,122.695 18.647,122.912C18.647,123.078 18.625,123.234 18.581,123.381C18.536,123.528 18.471,123.665 18.385,123.791C18.298,123.915 18.191,124.025 18.063,124.123C17.937,124.221 17.791,124.302 17.625,124.365C17.702,124.405 17.774,124.455 17.842,124.515C17.91,124.574 17.97,124.644 18.024,124.725L19.109,126.5ZM24.06,123.948C24.06,124.317 23.996,124.658 23.867,124.97C23.741,125.281 23.563,125.55 23.332,125.779C23.101,126.005 22.822,126.183 22.495,126.311C22.171,126.437 21.81,126.5 21.414,126.5L19.433,126.5L19.433,121.4L21.414,121.4C21.81,121.4 22.171,121.465 22.495,121.593C22.822,121.721 23.101,121.899 23.332,122.125C23.563,122.351 23.741,122.621 23.867,122.933C23.996,123.244 24.06,123.582 24.06,123.948ZM22.849,123.948C22.849,123.696 22.816,123.469 22.751,123.266C22.685,123.063 22.591,122.891 22.467,122.751C22.346,122.609 22.197,122.501 22.019,122.426C21.842,122.349 21.64,122.31 21.414,122.31L20.623,122.31L20.623,125.59L21.414,125.59C21.64,125.59 21.842,125.553 22.019,125.478C22.197,125.401 22.346,125.292 22.467,125.152C22.591,125.01 22.685,124.837 22.751,124.634C22.816,124.431 22.849,124.203 22.849,123.948Z" style="fill:white;fill-rule:nonzero;"/>
    <path d="M26.75,180C26.75,179.448 26.302,179 25.75,179L2.75,179C2.198,179 1.75,179.448 1.75,180L1.75,185C1.75,185.552 2.198,186 2.75,186L25.75,186C26.302,186 26.75,185.552 26.75,185L26.75,180Z" style="fill:rgb(139,191,64);fill-opacity:0.5;"/>
    <path d="M26.75,180C26.75,179.448 26.302,179 25.75,179L2.75,179C2.198,179 1.75,179.448 1.75,180L1.75,185C1.75,185.552 2.198,186 2.75,186L25.75,186C26.302,186 26.75,185.552 26.75,185L26.75,180Z" style="fill:none;stroke:rgb(139,191,64);stroke-width:1px;"/>
    <path d="M7.53,183.55L7.058,182.154C7.023,182.065 6.985,181.961 6.946,181.842C6.906,181.721 6.866,181.59 6.827,181.45C6.792,181.593 6.754,181.725 6.715,181.846C6.675,181.967 6.638,182.072 6.603,182.161L6.134,183.55L7.53,183.55ZM9.41,185.5L8.493,185.5C8.39,185.5 8.307,185.477 8.244,185.43C8.181,185.381 8.133,185.319 8.101,185.244L7.8,184.355L5.861,184.355L5.56,185.244C5.534,185.31 5.487,185.369 5.42,185.423C5.354,185.474 5.273,185.5 5.175,185.5L4.251,185.5L6.225,180.4L7.436,180.4L9.41,185.5ZM12.524,181.436C12.489,181.492 12.452,181.534 12.412,181.562C12.375,181.59 12.326,181.604 12.265,181.604C12.211,181.604 12.153,181.588 12.09,181.555C12.03,181.52 11.96,181.482 11.88,181.44C11.803,181.398 11.714,181.361 11.614,181.328C11.514,181.293 11.4,181.275 11.271,181.275C11.05,181.275 10.884,181.323 10.774,181.419C10.667,181.512 10.613,181.639 10.613,181.8C10.613,181.903 10.646,181.988 10.711,182.056C10.777,182.124 10.862,182.182 10.967,182.231C11.074,182.28 11.195,182.325 11.331,182.367C11.468,182.407 11.608,182.453 11.751,182.504C11.893,182.553 12.032,182.611 12.167,182.679C12.305,182.747 12.426,182.833 12.531,182.938C12.639,183.043 12.725,183.171 12.79,183.323C12.855,183.472 12.888,183.653 12.888,183.865C12.888,184.101 12.847,184.322 12.766,184.527C12.684,184.732 12.565,184.912 12.409,185.066C12.255,185.218 12.063,185.338 11.835,185.426C11.608,185.513 11.351,185.556 11.061,185.556C10.903,185.556 10.74,185.54 10.575,185.507C10.411,185.474 10.253,185.429 10.099,185.37C9.945,185.31 9.8,185.239 9.665,185.157C9.529,185.075 9.411,184.984 9.311,184.884L9.661,184.331C9.689,184.291 9.725,184.259 9.77,184.233C9.816,184.205 9.866,184.191 9.92,184.191C9.99,184.191 10.06,184.213 10.13,184.257C10.203,184.302 10.283,184.351 10.372,184.404C10.463,184.458 10.567,184.507 10.683,184.551C10.8,184.596 10.938,184.618 11.096,184.618C11.311,184.618 11.478,184.571 11.597,184.478C11.716,184.382 11.775,184.232 11.775,184.026C11.775,183.907 11.743,183.811 11.677,183.736C11.612,183.661 11.525,183.599 11.418,183.55C11.313,183.501 11.193,183.458 11.058,183.421C10.922,183.384 10.784,183.343 10.641,183.298C10.499,183.252 10.36,183.196 10.225,183.13C10.089,183.063 9.968,182.975 9.861,182.868C9.756,182.758 9.67,182.623 9.605,182.462C9.54,182.299 9.507,182.098 9.507,181.86C9.507,181.669 9.546,181.482 9.623,181.3C9.7,181.118 9.813,180.956 9.962,180.813C10.112,180.671 10.295,180.558 10.512,180.474C10.729,180.388 10.977,180.344 11.257,180.344C11.414,180.344 11.565,180.357 11.712,180.383C11.862,180.406 12.003,180.442 12.136,180.491C12.269,180.538 12.392,180.595 12.507,180.663C12.623,180.728 12.727,180.803 12.818,180.887L12.524,181.436ZM15.791,183.561L15.791,185.5L14.608,185.5L14.608,183.561L12.76,180.4L13.803,180.4C13.905,180.4 13.986,180.425 14.044,180.474C14.105,180.521 14.155,180.581 14.195,180.656L14.916,182.14C14.976,182.257 15.031,182.366 15.08,182.469C15.129,182.569 15.172,182.668 15.21,182.766C15.245,182.666 15.284,182.566 15.329,182.465C15.375,182.363 15.429,182.254 15.49,182.14L16.204,180.656C16.22,180.626 16.24,180.595 16.263,180.565C16.287,180.535 16.313,180.508 16.344,180.484C16.376,180.459 16.413,180.439 16.452,180.425C16.494,180.409 16.54,180.4 16.589,180.4L17.639,180.4L15.791,183.561ZM23.665,180.4L23.665,185.5L22.622,185.5L22.622,182.567C22.622,182.499 22.623,182.426 22.626,182.346C22.63,182.267 22.637,182.187 22.647,182.105L21.292,184.726C21.25,184.808 21.193,184.87 21.121,184.912C21.051,184.954 20.97,184.975 20.879,184.975L20.718,184.975C20.627,184.975 20.546,184.954 20.473,184.912C20.403,184.87 20.347,184.808 20.305,184.726L18.951,182.098C18.958,182.182 18.964,182.265 18.968,182.346C18.973,182.426 18.975,182.499 18.975,182.567L18.975,185.5L17.932,185.5L17.932,180.4L18.835,180.4C18.887,180.4 18.931,180.402 18.968,180.404C19.008,180.406 19.043,180.413 19.073,180.425C19.104,180.437 19.13,180.455 19.154,180.481C19.179,180.504 19.204,180.538 19.227,180.582L20.54,183.169C20.586,183.258 20.631,183.35 20.673,183.445C20.717,183.541 20.759,183.639 20.799,183.739C20.838,183.637 20.879,183.536 20.921,183.438C20.966,183.34 21.012,183.247 21.061,183.158L22.37,180.582C22.394,180.538 22.417,180.504 22.44,180.481C22.466,180.455 22.494,180.437 22.524,180.425C22.555,180.413 22.588,180.406 22.626,180.404C22.665,180.402 22.711,180.4 22.762,180.4L23.665,180.4Z" style="fill:white;fill-rule:nonzero;"/>
    <path d="M26.75,239C26.75,238.448 26.302,238 25.75,238L2.75,238C2.198,238 1.75,238.448 1.75,239L1.75,244C1.75,244.552 2.198,245 2.75,245L25.75,245C26.302,245 26.75,244.552 26.75,244L26.75,239Z" style="fill:rgb(139,191,64);fill-opacity:0.5;"/>
    <path d="M26.75,239C26.75,238.448 26.302,238 25.75,238L2.75,238C2.198,238 1.75,238.448 1.75,239L1.75,244C1.75,244.552 2.198,245 2.75,245L25.75,245C26.302,245 26.75,244.552 26.75,244L26.75,239Z" style="fill:none;stroke:rgb(139,191,64);stroke-width:1px;"/>
    <path d="M9.967,240.436C9.932,240.492 9.894,240.534 9.855,240.562C9.817,240.59 9.768,240.604 9.708,240.604C9.654,240.604 9.596,240.588 9.533,240.555C9.472,240.52 9.402,240.482 9.323,240.44C9.246,240.398 9.157,240.361 9.057,240.328C8.956,240.293 8.842,240.275 8.714,240.275C8.492,240.275 8.326,240.323 8.217,240.419C8.109,240.512 8.056,240.639 8.056,240.8C8.056,240.903 8.088,240.988 8.154,241.056C8.219,241.124 8.304,241.182 8.409,241.231C8.516,241.28 8.638,241.325 8.773,241.367C8.911,241.407 9.051,241.453 9.193,241.504C9.335,241.553 9.474,241.611 9.61,241.679C9.747,241.747 9.869,241.833 9.974,241.938C10.081,242.043 10.167,242.171 10.233,242.323C10.298,242.472 10.331,242.653 10.331,242.865C10.331,243.101 10.29,243.322 10.208,243.527C10.126,243.732 10.007,243.912 9.851,244.066C9.697,244.218 9.506,244.338 9.277,244.426C9.051,244.513 8.793,244.556 8.504,244.556C8.345,244.556 8.183,244.54 8.017,244.507C7.854,244.474 7.695,244.429 7.541,244.37C7.387,244.31 7.242,244.239 7.107,244.157C6.972,244.075 6.854,243.984 6.754,243.884L7.104,243.331C7.132,243.291 7.168,243.259 7.212,243.233C7.259,243.205 7.309,243.191 7.363,243.191C7.433,243.191 7.503,243.213 7.573,243.257C7.645,243.302 7.725,243.351 7.814,243.404C7.905,243.458 8.009,243.507 8.126,243.551C8.242,243.596 8.38,243.618 8.539,243.618C8.753,243.618 8.92,243.571 9.039,243.478C9.158,243.382 9.218,243.232 9.218,243.026C9.218,242.907 9.185,242.811 9.12,242.736C9.054,242.661 8.968,242.599 8.861,242.55C8.756,242.501 8.635,242.458 8.5,242.421C8.365,242.384 8.226,242.343 8.084,242.298C7.941,242.252 7.802,242.196 7.667,242.13C7.532,242.063 7.41,241.975 7.303,241.868C7.198,241.758 7.113,241.623 7.048,241.462C6.982,241.299 6.95,241.098 6.95,240.86C6.95,240.669 6.988,240.482 7.065,240.3C7.142,240.118 7.255,239.956 7.405,239.813C7.554,239.671 7.737,239.558 7.954,239.474C8.171,239.388 8.42,239.344 8.7,239.344C8.856,239.344 9.008,239.357 9.155,239.383C9.304,239.406 9.445,239.442 9.578,239.491C9.711,239.538 9.835,239.595 9.949,239.663C10.066,239.728 10.17,239.803 10.261,239.887L9.967,240.436ZM12.11,244.5L10.92,244.5L10.92,239.4L12.11,239.4L12.11,244.5ZM17.441,239.4L17.441,244.5L16.825,244.5C16.734,244.5 16.657,244.486 16.594,244.458C16.533,244.428 16.473,244.376 16.412,244.304L14.007,241.262C14.017,241.353 14.023,241.442 14.025,241.528C14.03,241.612 14.032,241.692 14.032,241.766L14.032,244.5L12.989,244.5L12.989,239.4L13.612,239.4C13.663,239.4 13.706,239.403 13.741,239.407C13.776,239.412 13.808,239.421 13.836,239.435C13.864,239.447 13.891,239.465 13.916,239.488C13.942,239.511 13.971,239.543 14.004,239.582L16.429,242.645C16.418,242.547 16.41,242.452 16.405,242.361C16.4,242.268 16.398,242.181 16.398,242.099L16.398,239.4L17.441,239.4ZM19.515,240.31L19.515,241.5L21.118,241.5L21.118,242.375L19.515,242.375L19.515,243.59L21.608,243.59L21.608,244.5L18.325,244.5L18.325,239.4L21.608,239.4L21.608,240.31L19.515,240.31Z" style="fill:white;fill-rule:nonzero;"/>
    <path d="M26.75,298C26.75,297.448 26.302,297 25.75,297L2.75,297C2.198,297 1.75,297.448 1.75,298L1.75,303C1.75,303.552 2.198,304 2.75,304L25.75,304C26.302,304 26.75,303.552 26.75,303L26.75,298Z" style="fill:rgb(139,191,64);fill-opacity:0.5;"/>
    <path d="M26.75,298C26.75,297.448 26.302,297 25.75,297L2.75,297C2.198,297 1.75,297.448 1.75,298L1.75,303C1.75,303.552 2.198,304 2.75,304L25.75,304C26.302,304 26.75,303.552 26.75,303L26.75,298Z" style="fill:none;stroke:rgb(139,191,64);stroke-width:1px;"/>
    <path d="M12.162,300.948C12.162,301.317 12.098,301.658 11.97,301.97C11.844,302.281 11.665,302.55 11.434,302.779C11.203,303.005 10.924,303.183 10.598,303.311C10.273,303.437 9.913,303.5 9.516,303.5L7.535,303.5L7.535,298.4L9.516,298.4C9.913,298.4 10.273,298.465 10.598,298.593C10.924,298.721 11.203,298.899 11.434,299.125C11.665,299.351 11.844,299.621 11.97,299.933C12.098,300.244 12.162,300.582 12.162,300.948ZM10.951,300.948C10.951,300.696 10.919,300.469 10.853,300.266C10.788,300.063 10.693,299.891 10.57,299.751C10.448,299.609 10.299,299.501 10.122,299.426C9.944,299.349 9.743,299.31 9.516,299.31L8.725,299.31L8.725,302.59L9.516,302.59C9.743,302.59 9.944,302.553 10.122,302.478C10.299,302.401 10.448,302.292 10.57,302.152C10.693,302.01 10.788,301.837 10.853,301.634C10.919,301.431 10.951,301.203 10.951,300.948ZM13.945,303.5L12.756,303.5L12.756,298.4L13.945,298.4L13.945,303.5ZM17.274,300.857L19.087,300.857L19.087,303.01C18.826,303.201 18.547,303.34 18.251,303.426C17.957,303.513 17.649,303.556 17.327,303.556C16.907,303.556 16.524,303.491 16.179,303.36C15.836,303.227 15.542,303.045 15.297,302.814C15.052,302.581 14.863,302.305 14.73,301.988C14.597,301.668 14.53,301.322 14.53,300.948C14.53,300.568 14.593,300.219 14.719,299.902C14.845,299.582 15.025,299.307 15.258,299.076C15.494,298.845 15.778,298.665 16.109,298.537C16.443,298.409 16.815,298.344 17.225,298.344C17.438,298.344 17.637,298.362 17.824,298.397C18.011,298.432 18.182,298.48 18.338,298.54C18.497,298.601 18.642,298.673 18.772,298.757C18.903,298.841 19.02,298.932 19.122,299.03L18.779,299.552C18.726,299.634 18.656,299.684 18.569,299.702C18.485,299.721 18.394,299.7 18.296,299.639C18.203,299.583 18.114,299.536 18.03,299.496C17.949,299.454 17.865,299.42 17.778,299.394C17.692,299.369 17.601,299.35 17.505,299.338C17.41,299.327 17.302,299.321 17.183,299.321C16.962,299.321 16.762,299.361 16.585,299.44C16.408,299.517 16.256,299.627 16.13,299.769C16.006,299.911 15.911,300.083 15.843,300.283C15.775,300.482 15.741,300.703 15.741,300.948C15.741,301.219 15.779,301.459 15.853,301.669C15.928,301.879 16.033,302.057 16.168,302.201C16.306,302.346 16.469,302.457 16.658,302.534C16.85,302.609 17.061,302.646 17.292,302.646C17.434,302.646 17.563,302.632 17.677,302.604C17.794,302.576 17.907,302.539 18.016,302.492L18.016,301.718L17.512,301.718C17.438,301.718 17.379,301.699 17.337,301.659C17.295,301.619 17.274,301.569 17.274,301.508L17.274,300.857ZM20.968,303.5L19.778,303.5L19.778,298.4L20.968,298.4L20.968,303.5Z" style="fill:white;fill-rule:nonzero;"/>
</svg>
