<?xml version="1.0" encoding="UTF-8" standalone="no"?>
<!DOCTYPE svg PUBLIC "-//W3C//DTD SVG 1.1//EN" "http://www.w3.org/Graphics/SVG/1.1/DTD/svg11.dtd">
<svg width="100%" height="100%" viewBox="0 0 18 22" version="1.1" xmlns="http://www.w3.org/2000/svg" xmlns:xlink="http://www.w3.org/1999/xlink" xml:space="preserve" xmlns:serif="http://www.serif.com/" style="fill-rule:evenodd;clip-rule:evenodd;">
    <path d="M16.5,2.5C16.5,1.948 16.052,1.5 15.5,1.5L2.5,1.5C1.948,1.5 1.5,1.948 1.5,2.5L1.5,8.5C1.5,9.052 1.948,9.5 2.5,9.5L15.5,9.5C16.052,9.5 16.5,9.052 16.5,8.5L16.5,2.5Z" style="fill:rgb(230,26,26);fill-opacity:0.5;"/>
    <path d="M16.5,2.5C16.5,1.948 16.052,1.5 15.5,1.5L2.5,1.5C1.948,1.5 1.5,1.948 1.5,2.5L1.5,8.5C1.5,9.052 1.948,9.5 2.5,9.5L15.5,9.5C16.052,9.5 16.5,9.052 16.5,8.5L16.5,2.5Z" style="fill:none;stroke:rgb(36,36,36);stroke-width:1px;"/>
    <path d="M11.867,2.901L11.867,8L10.824,8L10.824,5.067C10.824,4.999 10.825,4.926 10.827,4.847C10.832,4.767 10.839,4.687 10.848,4.605L9.494,7.227C9.452,7.308 9.394,7.37 9.322,7.412C9.252,7.454 9.172,7.475 9.081,7.475L8.92,7.475C8.829,7.475 8.747,7.454 8.675,7.412C8.605,7.37 8.549,7.308 8.507,7.227L7.152,4.598C7.159,4.682 7.165,4.765 7.17,4.847C7.174,4.926 7.177,4.999 7.177,5.067L7.177,8L6.134,8L6.134,2.901L7.037,2.901C7.088,2.901 7.132,2.902 7.17,2.904C7.209,2.906 7.244,2.913 7.275,2.925C7.305,2.937 7.332,2.955 7.355,2.981C7.381,3.004 7.405,3.038 7.429,3.083L8.741,5.669C8.788,5.758 8.832,5.85 8.874,5.946C8.918,6.041 8.96,6.139 9,6.239C9.04,6.137 9.081,6.037 9.123,5.939C9.167,5.84 9.214,5.747 9.263,5.659L10.572,3.083C10.595,3.038 10.618,3.004 10.642,2.981C10.667,2.955 10.695,2.937 10.726,2.925C10.756,2.913 10.79,2.906 10.827,2.904C10.867,2.902 10.912,2.901 10.964,2.901L11.867,2.901Z" style="fill:white;fill-rule:nonzero;"/>
    <path d="M16.5,13.5C16.5,12.948 16.052,12.5 15.5,12.5L2.5,12.5C1.948,12.5 1.5,12.948 1.5,13.5L1.5,19.5C1.5,20.052 1.948,20.5 2.5,20.5L15.5,20.5C16.052,20.5 16.5,20.052 16.5,19.5L16.5,13.5Z" style="fill:rgb(230,26,26);fill-opacity:0.5;"/>
    <path d="M16.5,13.5C16.5,12.948 16.052,12.5 15.5,12.5L2.5,12.5C1.948,12.5 1.5,12.948 1.5,13.5L1.5,19.5C1.5,20.052 1.948,20.5 2.5,20.5L15.5,20.5C16.052,20.5 16.5,20.052 16.5,19.5L16.5,13.5Z" style="fill:none;stroke:rgb(36,36,36);stroke-width:1px;"/>
    <path d="M11.867,13.9L11.867,19L10.824,19L10.824,16.067C10.824,15.999 10.825,15.926 10.827,15.847C10.832,15.767 10.839,15.687 10.848,15.605L9.494,18.227C9.452,18.308 9.394,18.37 9.322,18.412C9.252,18.454 9.172,18.475 9.081,18.475L8.92,18.475C8.829,18.475 8.747,18.454 8.675,18.412C8.605,18.37 8.549,18.308 8.507,18.227L7.152,15.598C7.159,15.682 7.165,15.765 7.17,15.847C7.174,15.926 7.177,15.999 7.177,16.067L7.177,19L6.134,19L6.134,13.9L7.037,13.9C7.088,13.9 7.132,13.902 7.17,13.904C7.209,13.906 7.244,13.913 7.275,13.925C7.305,13.937 7.332,13.955 7.355,13.981C7.381,14.004 7.405,14.038 7.429,14.083L8.741,16.669C8.788,16.758 8.832,16.85 8.874,16.946C8.918,17.041 8.96,17.139 9,17.24C9.04,17.137 9.081,17.037 9.123,16.939C9.167,16.841 9.214,16.747 9.263,16.659L10.572,14.083C10.595,14.038 10.618,14.004 10.642,13.981C10.667,13.955 10.695,13.937 10.726,13.925C10.756,13.913 10.79,13.906 10.827,13.904C10.867,13.902 10.912,13.9 10.964,13.9L11.867,13.9Z" style="fill:white;fill-rule:nonzero;"/>
</svg>
