<?xml version="1.0" encoding="UTF-8" standalone="no"?>
<!DOCTYPE svg PUBLIC "-//W3C//DTD SVG 1.1//EN" "http://www.w3.org/Graphics/SVG/1.1/DTD/svg11.dtd">
<svg width="100%" height="100%" viewBox="0 0 31 24" version="1.1" xmlns="http://www.w3.org/2000/svg" xmlns:xlink="http://www.w3.org/1999/xlink" xml:space="preserve" xmlns:serif="http://www.serif.com/" style="fill-rule:evenodd;clip-rule:evenodd;">
    <path d="M28.56,3.5C28.56,2.948 28.112,2.5 27.56,2.5L3.56,2.5C3.008,2.5 2.56,2.948 2.56,3.5L2.56,8.5C2.56,9.052 3.008,9.5 3.56,9.5L27.56,9.5C28.112,9.5 28.56,9.052 28.56,8.5L28.56,3.5Z" style="fill:rgb(139,191,64);fill-opacity:0.5;"/>
    <path d="M28.56,3.5C28.56,2.948 28.112,2.5 27.56,2.5L3.56,2.5C3.008,2.5 2.56,2.948 2.56,3.5L2.56,8.5C2.56,9.052 3.008,9.5 3.56,9.5L27.56,9.5C28.112,9.5 28.56,9.052 28.56,8.5L28.56,3.5Z" style="fill:none;stroke:rgb(139,191,64);stroke-width:1px;"/>
    <path d="M10.022,3.66C10.022,3.729 10.01,3.797 9.986,3.864C9.965,3.931 9.934,3.993 9.894,4.052L7.158,7.96L9.934,7.96L9.934,9L5.438,9L5.438,8.48C5.438,8.419 5.449,8.359 5.47,8.3C5.491,8.239 5.521,8.183 5.558,8.132L8.302,4.212L5.662,4.212L5.662,3.172L10.022,3.172L10.022,3.66ZM12.265,4.788C12.579,4.788 12.866,4.837 13.125,4.936C13.383,5.035 13.605,5.176 13.789,5.36C13.975,5.544 14.119,5.768 14.221,6.032C14.325,6.293 14.377,6.588 14.377,6.916C14.377,7.247 14.325,7.545 14.221,7.812C14.119,8.076 13.975,8.301 13.789,8.488C13.605,8.672 13.383,8.815 13.125,8.916C12.866,9.015 12.579,9.064 12.265,9.064C11.947,9.064 11.658,9.015 11.397,8.916C11.138,8.815 10.914,8.672 10.725,8.488C10.538,8.301 10.393,8.076 10.289,7.812C10.187,7.545 10.137,7.247 10.137,6.916C10.137,6.588 10.187,6.293 10.289,6.032C10.393,5.768 10.538,5.544 10.725,5.36C10.914,5.176 11.138,5.035 11.397,4.936C11.658,4.837 11.947,4.788 12.265,4.788ZM12.265,8.144C12.55,8.144 12.759,8.044 12.893,7.844C13.028,7.641 13.097,7.335 13.097,6.924C13.097,6.513 13.028,6.208 12.893,6.008C12.759,5.808 12.55,5.708 12.265,5.708C11.971,5.708 11.757,5.808 11.621,6.008C11.485,6.208 11.416,6.513 11.416,6.924C11.416,7.335 11.485,7.641 11.621,7.844C11.757,8.044 11.971,8.144 12.265,8.144ZM16.793,4.788C17.108,4.788 17.394,4.837 17.653,4.936C17.912,5.035 18.133,5.176 18.317,5.36C18.504,5.544 18.648,5.768 18.749,6.032C18.853,6.293 18.905,6.588 18.905,6.916C18.905,7.247 18.853,7.545 18.749,7.812C18.648,8.076 18.504,8.301 18.317,8.488C18.133,8.672 17.912,8.815 17.653,8.916C17.394,9.015 17.108,9.064 16.793,9.064C16.476,9.064 16.186,9.015 15.925,8.916C15.666,8.815 15.442,8.672 15.253,8.488C15.066,8.301 14.921,8.076 14.817,7.812C14.716,7.545 14.665,7.247 14.665,6.916C14.665,6.588 14.716,6.293 14.817,6.032C14.921,5.768 15.066,5.544 15.253,5.36C15.442,5.176 15.666,5.035 15.925,4.936C16.186,4.837 16.476,4.788 16.793,4.788ZM16.793,8.144C17.078,8.144 17.288,8.044 17.421,7.844C17.557,7.641 17.625,7.335 17.625,6.924C17.625,6.513 17.557,6.208 17.421,6.008C17.288,5.808 17.078,5.708 16.793,5.708C16.5,5.708 16.285,5.808 16.149,6.008C16.013,6.208 15.945,6.513 15.945,6.924C15.945,7.335 16.013,7.641 16.149,7.844C16.285,8.044 16.5,8.144 16.793,8.144ZM19.409,9L19.409,4.852L20.177,4.852C20.332,4.852 20.433,4.921 20.481,5.06L20.549,5.284C20.619,5.212 20.691,5.147 20.765,5.088C20.84,5.027 20.92,4.975 21.005,4.932C21.093,4.887 21.187,4.852 21.285,4.828C21.387,4.801 21.497,4.788 21.617,4.788C21.868,4.788 22.075,4.853 22.237,4.984C22.403,5.112 22.528,5.284 22.613,5.5C22.683,5.372 22.767,5.263 22.865,5.172C22.967,5.081 23.075,5.008 23.189,4.952C23.307,4.896 23.429,4.855 23.557,4.828C23.688,4.801 23.817,4.788 23.945,4.788C24.183,4.788 24.393,4.824 24.577,4.896C24.761,4.965 24.915,5.068 25.037,5.204C25.163,5.337 25.257,5.503 25.321,5.7C25.385,5.895 25.417,6.116 25.417,6.364L25.417,9L24.177,9L24.177,6.364C24.177,5.935 23.993,5.72 23.625,5.72C23.457,5.72 23.317,5.776 23.205,5.888C23.096,5.997 23.041,6.156 23.041,6.364L23.041,9L21.801,9L21.801,6.364C21.801,6.127 21.755,5.96 21.661,5.864C21.568,5.768 21.431,5.72 21.249,5.72C21.137,5.72 21.031,5.745 20.929,5.796C20.831,5.847 20.737,5.915 20.649,6L20.649,9L19.409,9Z" style="fill:white;fill-rule:nonzero;"/>
    <path d="M29.56,14.5C29.56,13.948 29.112,13.5 28.56,13.5L2.56,13.5C2.008,13.5 1.56,13.948 1.56,14.5L1.56,21.5C1.56,22.052 2.008,22.5 2.56,22.5L28.56,22.5C29.112,22.5 29.56,22.052 29.56,21.5L29.56,14.5Z" style="fill:rgb(139,191,64);fill-opacity:0.5;"/>
    <path d="M29.56,14.5C29.56,13.948 29.112,13.5 28.56,13.5L2.56,13.5C2.008,13.5 1.56,13.948 1.56,14.5L1.56,21.5C1.56,22.052 2.008,22.5 2.56,22.5L28.56,22.5C29.112,22.5 29.56,22.052 29.56,21.5L29.56,14.5Z" style="fill:none;stroke:rgb(139,191,64);stroke-width:1px;"/>
    <path d="M10.022,15.66C10.022,15.729 10.01,15.797 9.986,15.864C9.965,15.931 9.934,15.993 9.894,16.052L7.158,19.96L9.934,19.96L9.934,21L5.438,21L5.438,20.48C5.438,20.419 5.449,20.359 5.47,20.3C5.491,20.239 5.521,20.183 5.558,20.132L8.302,16.212L5.662,16.212L5.662,15.172L10.022,15.172L10.022,15.66ZM12.265,16.788C12.579,16.788 12.866,16.837 13.125,16.936C13.383,17.035 13.605,17.176 13.789,17.36C13.975,17.544 14.119,17.768 14.221,18.032C14.325,18.293 14.377,18.588 14.377,18.916C14.377,19.247 14.325,19.545 14.221,19.812C14.119,20.076 13.975,20.301 13.789,20.488C13.605,20.672 13.383,20.815 13.125,20.916C12.866,21.015 12.579,21.064 12.265,21.064C11.947,21.064 11.658,21.015 11.397,20.916C11.138,20.815 10.914,20.672 10.725,20.488C10.538,20.301 10.393,20.076 10.289,19.812C10.187,19.545 10.137,19.247 10.137,18.916C10.137,18.588 10.187,18.293 10.289,18.032C10.393,17.768 10.538,17.544 10.725,17.36C10.914,17.176 11.138,17.035 11.397,16.936C11.658,16.837 11.947,16.788 12.265,16.788ZM12.265,20.144C12.55,20.144 12.759,20.044 12.893,19.844C13.029,19.641 13.097,19.335 13.097,18.924C13.097,18.513 13.029,18.208 12.893,18.008C12.759,17.808 12.55,17.708 12.265,17.708C11.971,17.708 11.757,17.808 11.621,18.008C11.485,18.208 11.417,18.513 11.417,18.924C11.417,19.335 11.485,19.641 11.621,19.844C11.757,20.044 11.971,20.144 12.265,20.144ZM16.793,16.788C17.108,16.788 17.394,16.837 17.653,16.936C17.912,17.035 18.133,17.176 18.317,17.36C18.504,17.544 18.648,17.768 18.749,18.032C18.853,18.293 18.905,18.588 18.905,18.916C18.905,19.247 18.853,19.545 18.749,19.812C18.648,20.076 18.504,20.301 18.317,20.488C18.133,20.672 17.912,20.815 17.653,20.916C17.394,21.015 17.108,21.064 16.793,21.064C16.476,21.064 16.186,21.015 15.925,20.916C15.666,20.815 15.442,20.672 15.253,20.488C15.066,20.301 14.921,20.076 14.817,19.812C14.716,19.545 14.665,19.247 14.665,18.916C14.665,18.588 14.716,18.293 14.817,18.032C14.921,17.768 15.066,17.544 15.253,17.36C15.442,17.176 15.666,17.035 15.925,16.936C16.186,16.837 16.476,16.788 16.793,16.788ZM16.793,20.144C17.078,20.144 17.288,20.044 17.421,19.844C17.557,19.641 17.625,19.335 17.625,18.924C17.625,18.513 17.557,18.208 17.421,18.008C17.288,17.808 17.078,17.708 16.793,17.708C16.5,17.708 16.285,17.808 16.149,18.008C16.013,18.208 15.945,18.513 15.945,18.924C15.945,19.335 16.013,19.641 16.149,19.844C16.285,20.044 16.5,20.144 16.793,20.144ZM19.409,21L19.409,16.852L20.177,16.852C20.332,16.852 20.433,16.921 20.481,17.06L20.549,17.284C20.619,17.212 20.691,17.147 20.765,17.088C20.84,17.027 20.92,16.975 21.005,16.932C21.093,16.887 21.187,16.852 21.285,16.828C21.387,16.801 21.497,16.788 21.617,16.788C21.868,16.788 22.075,16.853 22.237,16.984C22.403,17.112 22.528,17.284 22.613,17.5C22.683,17.372 22.767,17.263 22.865,17.172C22.967,17.081 23.075,17.008 23.189,16.952C23.307,16.896 23.429,16.855 23.557,16.828C23.688,16.801 23.817,16.788 23.945,16.788C24.183,16.788 24.393,16.824 24.577,16.896C24.761,16.965 24.915,17.068 25.037,17.204C25.163,17.337 25.257,17.503 25.321,17.7C25.385,17.895 25.417,18.116 25.417,18.364L25.417,21L24.177,21L24.177,18.364C24.177,17.935 23.993,17.72 23.625,17.72C23.457,17.72 23.317,17.776 23.205,17.888C23.096,17.997 23.041,18.156 23.041,18.364L23.041,21L21.801,21L21.801,18.364C21.801,18.127 21.755,17.96 21.661,17.864C21.568,17.768 21.431,17.72 21.249,17.72C21.137,17.72 21.031,17.745 20.929,17.796C20.831,17.847 20.737,17.915 20.649,18L20.649,21L19.409,21Z" style="fill-rule:nonzero;"/>
</svg>
