<?xml version="1.0" encoding="UTF-8" standalone="no"?>
<!DOCTYPE svg PUBLIC "-//W3C//DTD SVG 1.1//EN" "http://www.w3.org/Graphics/SVG/1.1/DTD/svg11.dtd">
<svg width="100%" height="100%" viewBox="0 0 32 24" version="1.1" xmlns="http://www.w3.org/2000/svg" xmlns:xlink="http://www.w3.org/1999/xlink" xml:space="preserve" xmlns:serif="http://www.serif.com/" style="fill-rule:evenodd;clip-rule:evenodd;stroke-linejoin:round;stroke-miterlimit:2;">
    <path d="M2,8C2,9.105 2.895,10 4,10L14,10L14,2L4,2C2.895,2 2,2.895 2,4L2,8Z" style="fill:rgb(139,191,64);fill-opacity:0.5;fill-rule:nonzero;"/>
    <g>
        <g>
            <clipPath id="_clip1">
                <path d="M14,10L4,10C2.895,10 2,9.105 2,8L2,4C2,2.895 2.895,2 4,2L14,2L14,10Z"/>
            </clipPath>
            <g clip-path="url(#_clip1)">
                <path d="M8,9L4,6L8,3L8,5L12,5L12,7L8,7L8,9Z" style="fill:white;"/>
            </g>
        </g>
    </g>
    <path d="M30,20C30,21.105 29.105,22 28,22L18,22L18,14L28,14C29.105,14 30,14.895 30,16L30,20Z" style="fill:rgb(139,191,64);fill-opacity:0.5;fill-rule:nonzero;"/>
    <g>
        <g>
            <clipPath id="_clip2">
                <path d="M18,22L28,22C29.105,22 30,21.105 30,20L30,16C30,14.895 29.105,14 28,14L18,14L18,22Z"/>
            </clipPath>
            <g clip-path="url(#_clip2)">
                <path d="M24,21L28,18L24,15L24,17L20,17L20,19L24,19L24,21Z" style="fill:white;"/>
            </g>
        </g>
    </g>
</svg>
