<?xml version="1.0" encoding="UTF-8" standalone="no"?>
<!DOCTYPE svg PUBLIC "-//W3C//DTD SVG 1.1//EN" "http://www.w3.org/Graphics/SVG/1.1/DTD/svg11.dtd">
<svg width="100%" height="100%" viewBox="0 0 16 24" version="1.1" xmlns="http://www.w3.org/2000/svg" xmlns:xlink="http://www.w3.org/1999/xlink" xml:space="preserve" xmlns:serif="http://www.serif.com/" style="fill-rule:evenodd;clip-rule:evenodd;">
    <path d="M2.5,3.5C2.5,2.948 2.948,2.5 3.5,2.5L13.5,2.5L13.5,9.5L3.5,9.5C2.948,9.5 2.5,9.052 2.5,8.5L2.5,3.5Z" style="fill:rgb(139,191,64);fill-rule:nonzero;"/>
    <path d="M2.5,3.5C2.5,2.948 2.948,2.5 3.5,2.5L13.5,2.5L13.5,9.5L3.5,9.5C2.948,9.5 2.5,9.052 2.5,8.5L2.5,3.5Z" style="fill:none;fill-rule:nonzero;stroke:rgb(139,191,64);stroke-width:1px;"/>
    <path d="M8.25,4C7.023,4 5.937,4.557 5.253,5.415L4,4.235L4,8L8,8L6.639,6.719C7.001,5.687 8.032,4.941 9.25,4.941C10.77,4.941 12,6.1 12,7.529C12,5.58 10.321,4 8.25,4Z" style="fill:white;fill-rule:nonzero;"/>
</svg>
