<?xml version="1.0" encoding="UTF-8" standalone="no"?>
<!DOCTYPE svg PUBLIC "-//W3C//DTD SVG 1.1//EN" "http://www.w3.org/Graphics/SVG/1.1/DTD/svg11.dtd">
<svg width="100%" height="100%" viewBox="0 0 106 18" version="1.1" xmlns="http://www.w3.org/2000/svg" xmlns:xlink="http://www.w3.org/1999/xlink" xml:space="preserve" xmlns:serif="http://www.serif.com/" style="fill-rule:evenodd;clip-rule:evenodd;">
    <path d="M101,4C101,3.448 100.552,3 100,3L4,3C3.448,3 3,3.448 3,4L3,13C3,13.552 3.448,14 4,14L100,14C100.552,14 101,13.552 101,13L101,4Z" style="fill:rgb(139,191,64);fill-opacity:0.5;"/>
    <path d="M101,4C101,3.448 100.552,3 100,3L4,3C3.448,3 3,3.448 3,4L3,13C3,13.552 3.448,14 4,14L100,14C100.552,14 101,13.552 101,13L101,4Z" style="fill:none;stroke:rgb(139,191,64);stroke-width:1px;"/>
    <path d="M96,10.5L93.5,7.5L98.5,7.5L96,10.5Z" style="fill:white;fill-rule:nonzero;"/>
</svg>
