<?xml version="1.0" encoding="UTF-8" standalone="no"?>
<!DOCTYPE svg PUBLIC "-//W3C//DTD SVG 1.1//EN" "http://www.w3.org/Graphics/SVG/1.1/DTD/svg11.dtd">
<svg width="100%" height="100%" viewBox="0 0 11 11" version="1.1" xmlns="http://www.w3.org/2000/svg" xmlns:xlink="http://www.w3.org/1999/xlink" xml:space="preserve" xmlns:serif="http://www.serif.com/" style="fill-rule:evenodd;clip-rule:evenodd;">
    <path d="M0.5,2.5C0.5,1.395 1.395,0.5 2.5,0.5L8.5,0.5C9.605,0.5 10.5,1.395 10.5,2.5L10.5,8.5C10.5,9.605 9.605,10.5 8.5,10.5L2.5,10.5C1.395,10.5 0.5,9.605 0.5,8.5L0.5,2.5Z" style="fill:rgb(36,36,36);fill-rule:nonzero;"/>
    <path d="M8.5,2.75C8.5,2.612 8.388,2.5 8.25,2.5L2.75,2.5C2.612,2.5 2.5,2.612 2.5,2.75L2.5,8.25C2.5,8.388 2.612,8.5 2.75,8.5L8.25,8.5C8.388,8.5 8.5,8.388 8.5,8.25L8.5,2.75Z" style="fill:rgb(139,191,64);"/>
    <path d="M8.5,2.75C8.5,2.612 8.388,2.5 8.25,2.5L2.75,2.5C2.612,2.5 2.5,2.612 2.5,2.75L2.5,8.25C2.5,8.388 2.612,8.5 2.75,8.5L8.25,8.5C8.388,8.5 8.5,8.388 8.5,8.25L8.5,2.75Z" style="fill:none;stroke:rgb(139,191,64);stroke-width:1px;"/>
    <path d="M2.5,1L8.5,1L8.5,0L2.5,0L2.5,1ZM10,2.5L10,8.5L11,8.5L11,2.5L10,2.5ZM8.5,10L2.5,10L2.5,11L8.5,11L8.5,10ZM1,8.5L1,2.5L0,2.5L0,8.5L1,8.5ZM2.5,10C1.672,10 1,9.328 1,8.5L0,8.5C0,9.881 1.119,11 2.5,11L2.5,10ZM10,8.5C10,9.328 9.328,10 8.5,10L8.5,11C9.881,11 11,9.881 11,8.5L10,8.5ZM8.5,1C9.328,1 10,1.672 10,2.5L11,2.5C11,1.119 9.881,0 8.5,0L8.5,1ZM2.5,0C1.119,0 0,1.119 0,2.5L1,2.5C1,1.672 1.672,1 2.5,1L2.5,0Z" style="fill-rule:nonzero;"/>
    <path d="M3,3L7.979,3.012L8,4L3.021,3.988L3,3ZM7.979,5.012L3,5L3.021,5.988L8,6L7.979,5.012ZM3,7L7.979,7.012L8,8L3.021,7.988L3,7Z"/>
</svg>
