<?xml version="1.0" encoding="UTF-8" standalone="no"?>
<!DOCTYPE svg PUBLIC "-//W3C//DTD SVG 1.1//EN" "http://www.w3.org/Graphics/SVG/1.1/DTD/svg11.dtd">
<svg width="100%" height="100%" viewBox="0 0 180 126" version="1.1" xmlns="http://www.w3.org/2000/svg" xmlns:xlink="http://www.w3.org/1999/xlink" xml:space="preserve" xmlns:serif="http://www.serif.com/" style="fill-rule:evenodd;clip-rule:evenodd;">
    <rect x="3" y="8" width="12" height="1" style="fill:rgb(139,191,64);"/>
    <path d="M7.538,26.087C12.39,26.107 13.989,29.678 13.992,31L15,30.997C14.996,29.017 12.855,24.893 7.282,25.002L3,25.002L3,26.089L7.247,26.089C7.262,26.089 7.276,26.09 7.291,26.089L7.538,26.089L7.538,26.087Z" style="fill:rgb(139,191,64);fill-rule:nonzero;"/>
    <path d="M28,26L21,26L21,25L28,25C29.314,25 30.597,25.288 31.544,26.249C32.487,27.207 33,28.736 33,31L32,31C32,28.864 31.513,27.643 30.831,26.951C30.153,26.262 29.186,26 28,26Z" style="fill:rgb(139,191,64);"/>
    <path d="M43.538,26.087C48.39,26.107 49.989,29.678 49.992,31L51,30.997C50.996,29.017 48.855,24.893 43.282,25.002L39,25.002L39,26.089L43.247,26.089C43.262,26.089 43.276,26.09 43.291,26.089L43.538,26.089L43.538,26.087Z" style="fill:rgb(139,191,64);fill-rule:nonzero;"/>
    <path d="M41.461,21.9L41.618,21.9C41.682,21.9 41.734,21.892 41.776,21.875C41.817,21.857 41.853,21.828 41.883,21.79L42.881,20.528C42.922,20.474 42.966,20.438 43.011,20.418C43.057,20.396 43.116,20.385 43.186,20.385L43.766,20.385L42.548,21.888C42.477,21.979 42.402,22.044 42.326,22.083C42.381,22.103 42.43,22.131 42.473,22.168C42.518,22.203 42.561,22.249 42.601,22.308L43.856,24L43.263,24C43.183,24 43.123,23.989 43.083,23.968C43.045,23.944 43.012,23.911 42.986,23.868L41.963,22.533C41.932,22.488 41.895,22.456 41.853,22.438C41.812,22.419 41.752,22.41 41.673,22.41L41.461,22.41L41.461,24L40.788,24L40.788,20.385L41.461,20.385L41.461,21.9ZM44.084,21.392C44.109,21.219 44.157,21.068 44.228,20.938C44.3,20.806 44.389,20.697 44.496,20.61C44.604,20.522 44.728,20.456 44.866,20.413C45.006,20.368 45.156,20.345 45.316,20.345C45.483,20.345 45.633,20.369 45.766,20.418C45.901,20.464 46.016,20.53 46.111,20.615C46.206,20.698 46.279,20.797 46.329,20.91C46.38,21.023 46.406,21.146 46.406,21.278C46.406,21.392 46.393,21.494 46.366,21.583C46.341,21.669 46.304,21.745 46.256,21.81C46.208,21.875 46.148,21.93 46.076,21.975C46.004,22.02 45.923,22.058 45.834,22.087C46.05,22.156 46.212,22.26 46.319,22.4C46.425,22.54 46.478,22.716 46.478,22.927C46.478,23.108 46.445,23.267 46.379,23.405C46.312,23.543 46.222,23.66 46.109,23.755C45.995,23.848 45.864,23.919 45.714,23.968C45.565,24.016 45.408,24.04 45.241,24.04C45.059,24.04 44.901,24.019 44.766,23.978C44.631,23.936 44.514,23.874 44.414,23.793C44.314,23.711 44.228,23.611 44.158,23.493C44.089,23.374 44.029,23.238 43.978,23.083L44.251,22.97C44.323,22.94 44.389,22.933 44.451,22.948C44.514,22.961 44.56,22.994 44.589,23.048C44.619,23.106 44.651,23.163 44.686,23.22C44.723,23.277 44.766,23.328 44.816,23.373C44.866,23.416 44.924,23.452 44.991,23.48C45.059,23.507 45.14,23.52 45.234,23.52C45.339,23.52 45.43,23.503 45.509,23.47C45.587,23.435 45.652,23.39 45.704,23.335C45.757,23.28 45.796,23.219 45.821,23.153C45.848,23.084 45.861,23.016 45.861,22.948C45.861,22.861 45.852,22.783 45.834,22.712C45.815,22.641 45.777,22.58 45.719,22.53C45.66,22.48 45.576,22.441 45.466,22.413C45.358,22.384 45.212,22.37 45.029,22.37L45.029,21.93C45.18,21.928 45.306,21.914 45.406,21.888C45.506,21.861 45.585,21.824 45.644,21.778C45.704,21.729 45.745,21.672 45.769,21.605C45.792,21.538 45.804,21.465 45.804,21.385C45.804,21.215 45.756,21.086 45.661,20.998C45.566,20.909 45.439,20.865 45.281,20.865C45.208,20.865 45.14,20.876 45.079,20.898C45.017,20.918 44.961,20.947 44.911,20.985C44.863,21.022 44.822,21.065 44.789,21.115C44.755,21.165 44.73,21.22 44.714,21.28C44.685,21.357 44.648,21.408 44.601,21.433C44.556,21.458 44.492,21.463 44.408,21.45L44.084,21.392ZM47.729,21.698C47.809,21.681 47.886,21.669 47.959,21.663C48.032,21.654 48.103,21.65 48.171,21.65C48.361,21.65 48.529,21.678 48.674,21.735C48.819,21.792 48.941,21.87 49.039,21.97C49.137,22.07 49.211,22.188 49.261,22.323C49.311,22.456 49.336,22.6 49.336,22.755C49.336,22.947 49.302,23.122 49.234,23.28C49.167,23.438 49.074,23.574 48.954,23.688C48.834,23.799 48.691,23.886 48.526,23.948C48.363,24.009 48.185,24.04 47.991,24.04C47.878,24.04 47.771,24.028 47.669,24.005C47.567,23.982 47.471,23.951 47.381,23.913C47.293,23.873 47.211,23.828 47.134,23.778C47.059,23.726 46.991,23.672 46.931,23.615L47.121,23.353C47.161,23.296 47.214,23.267 47.279,23.267C47.321,23.267 47.363,23.281 47.406,23.308C47.45,23.334 47.499,23.363 47.554,23.395C47.611,23.427 47.676,23.456 47.751,23.483C47.828,23.509 47.92,23.523 48.026,23.523C48.14,23.523 48.24,23.504 48.326,23.468C48.413,23.431 48.485,23.38 48.541,23.315C48.6,23.248 48.643,23.17 48.671,23.08C48.701,22.988 48.716,22.889 48.716,22.783C48.716,22.586 48.659,22.433 48.544,22.323C48.431,22.211 48.262,22.155 48.039,22.155C47.867,22.155 47.691,22.187 47.511,22.25L47.126,22.14L47.426,20.385L49.211,20.385L49.211,20.648C49.211,20.736 49.184,20.808 49.129,20.863C49.074,20.918 48.981,20.945 48.849,20.945L47.856,20.945L47.729,21.698Z" style="fill:rgb(139,191,64);fill-rule:nonzero;"/>
    <path d="M63.069,24.48L63.429,23.528L66.526,25.186L66.161,26.135L63.069,24.48ZM62.712,25.423L62.275,26.578L65.357,28.228L65.799,27.076L62.712,25.423ZM61.511,28.596L61.918,27.521L64.995,29.169L64.583,30.241L61.511,28.596ZM61.154,29.539L60.468,31.352L59.532,30.998L63.415,20.743L64.35,21.097L63.787,22.585L66.888,24.246L67.533,22.566L68.467,22.924L64.532,33.16L63.599,32.801L64.221,31.181L61.154,29.539Z" style="fill:rgb(139,191,64);"/>
    <path d="M60.221,23.445L60.221,24L58.104,24L58.104,20.385L58.776,20.385L58.776,23.445L60.221,23.445Z" style="fill:rgb(139,191,64);fill-rule:nonzero;"/>
    <path d="M81.069,24.48L81.43,23.528L84.526,25.186L84.161,26.135L81.069,24.48ZM80.712,25.423L80.275,26.578L83.357,28.228L83.799,27.076L80.712,25.423ZM79.511,28.596L79.918,27.521L82.995,29.169L82.583,30.241L79.511,28.596ZM79.154,29.539L78.468,31.352L77.532,30.998L81.415,20.743L82.35,21.097L81.787,22.585L84.888,24.246L85.533,22.566L86.467,22.924L82.532,33.16L81.599,32.801L82.221,31.181L79.154,29.539Z" style="fill:rgb(139,191,64);"/>
    <path d="M78.764,20.385L77.304,24L76.697,24L75.237,20.385L75.777,20.385C75.835,20.385 75.882,20.399 75.919,20.427C75.956,20.456 75.983,20.493 76.002,20.538L76.854,22.743C76.882,22.814 76.909,22.893 76.934,22.98C76.961,23.065 76.986,23.154 77.009,23.248C77.029,23.154 77.051,23.065 77.074,22.98C77.098,22.893 77.123,22.814 77.152,22.743L77.999,20.538C78.013,20.499 78.038,20.464 78.077,20.433C78.117,20.401 78.165,20.385 78.222,20.385L78.764,20.385Z" style="fill:rgb(139,191,64);fill-rule:nonzero;"/>
    <path d="M99.069,24.48L99.43,23.528L102.526,25.186L102.161,26.135L99.069,24.48ZM98.712,25.423L98.275,26.578L101.357,28.228L101.799,27.076L98.712,25.423ZM97.511,28.596L97.918,27.521L100.995,29.169L100.583,30.241L97.511,28.596ZM97.154,29.539L96.468,31.352L95.532,30.998L99.415,20.743L100.35,21.097L99.787,22.585L102.887,24.246L103.533,22.566L104.467,22.924L100.532,33.16L99.599,32.801L100.221,31.181L97.154,29.539Z" style="fill:rgb(139,191,64);"/>
    <path d="M96.711,22.193C96.711,22.458 96.667,22.701 96.578,22.923C96.49,23.144 96.366,23.335 96.206,23.495C96.046,23.655 95.853,23.779 95.628,23.868C95.403,23.956 95.153,24 94.878,24L93.501,24L93.501,20.385L94.878,20.385C95.153,20.385 95.403,20.43 95.628,20.52C95.853,20.608 96.046,20.733 96.206,20.892C96.366,21.051 96.49,21.241 96.578,21.462C96.667,21.684 96.711,21.927 96.711,22.193ZM96.021,22.193C96.021,21.994 95.994,21.817 95.941,21.66C95.889,21.502 95.813,21.368 95.713,21.26C95.615,21.15 95.495,21.066 95.353,21.008C95.213,20.949 95.055,20.92 94.878,20.92L94.176,20.92L94.176,23.465L94.878,23.465C95.055,23.465 95.213,23.436 95.353,23.378C95.495,23.319 95.615,23.236 95.713,23.128C95.813,23.017 95.889,22.884 95.941,22.728C95.994,22.569 96.021,22.391 96.021,22.193Z" style="fill:rgb(139,191,64);fill-rule:nonzero;"/>
    <path d="M115.538,26.087C120.39,26.107 121.989,29.678 121.992,31L123,30.997C122.996,29.017 120.855,24.893 115.282,25.002L111,25.002L111,26.089L115.247,26.089C115.262,26.089 115.276,26.09 115.291,26.089L115.538,26.089L115.538,26.087Z" style="fill:rgb(139,191,64);fill-rule:nonzero;"/>
    <path d="M113.296,22.193C113.296,22.458 113.252,22.703 113.164,22.93C113.077,23.155 112.954,23.35 112.794,23.515C112.634,23.68 112.441,23.809 112.216,23.903C111.991,23.994 111.741,24.04 111.466,24.04C111.193,24.04 110.944,23.994 110.719,23.903C110.494,23.809 110.3,23.68 110.139,23.515C109.979,23.35 109.855,23.155 109.766,22.93C109.678,22.703 109.634,22.458 109.634,22.193C109.634,21.927 109.678,21.683 109.766,21.458C109.855,21.231 109.979,21.035 110.139,20.87C110.3,20.705 110.494,20.577 110.719,20.485C110.944,20.392 111.193,20.345 111.466,20.345C111.65,20.345 111.822,20.367 111.984,20.41C112.145,20.452 112.294,20.512 112.429,20.59C112.564,20.667 112.685,20.761 112.791,20.873C112.9,20.983 112.991,21.106 113.066,21.243C113.141,21.379 113.198,21.528 113.236,21.688C113.276,21.848 113.296,22.016 113.296,22.193ZM112.609,22.193C112.609,21.994 112.582,21.817 112.529,21.66C112.475,21.502 112.4,21.368 112.301,21.258C112.203,21.148 112.083,21.063 111.941,21.005C111.801,20.947 111.643,20.918 111.466,20.918C111.29,20.918 111.13,20.947 110.989,21.005C110.849,21.063 110.729,21.148 110.629,21.258C110.53,21.368 110.455,21.502 110.401,21.66C110.348,21.817 110.321,21.994 110.321,22.193C110.321,22.391 110.348,22.569 110.401,22.728C110.455,22.884 110.53,23.017 110.629,23.128C110.729,23.236 110.849,23.319 110.989,23.378C111.13,23.436 111.29,23.465 111.466,23.465C111.643,23.465 111.801,23.436 111.941,23.378C112.083,23.319 112.203,23.236 112.301,23.128C112.4,23.017 112.475,22.884 112.529,22.728C112.582,22.569 112.609,22.391 112.609,22.193ZM115.239,23.475C115.364,23.475 115.469,23.46 115.554,23.43C115.639,23.4 115.707,23.36 115.757,23.31C115.809,23.26 115.845,23.202 115.867,23.135C115.89,23.068 115.902,22.998 115.902,22.923C115.902,22.844 115.889,22.774 115.864,22.712C115.839,22.649 115.8,22.596 115.747,22.552C115.694,22.508 115.624,22.473 115.539,22.45C115.456,22.427 115.355,22.415 115.237,22.415L114.559,22.415L114.559,23.475L115.239,23.475ZM114.559,20.905L114.559,21.95L115.094,21.95C115.324,21.95 115.498,21.908 115.614,21.825C115.733,21.742 115.792,21.609 115.792,21.427C115.792,21.239 115.739,21.105 115.632,21.025C115.525,20.945 115.359,20.905 115.132,20.905L114.559,20.905ZM115.132,20.385C115.369,20.385 115.571,20.408 115.739,20.453C115.908,20.498 116.045,20.562 116.152,20.645C116.26,20.728 116.339,20.829 116.389,20.948C116.439,21.066 116.464,21.199 116.464,21.348C116.464,21.433 116.452,21.514 116.427,21.593C116.402,21.669 116.363,21.742 116.309,21.81C116.258,21.877 116.191,21.938 116.109,21.993C116.029,22.048 115.934,22.094 115.822,22.133C116.319,22.244 116.567,22.513 116.567,22.938C116.567,23.091 116.538,23.233 116.479,23.363C116.421,23.493 116.336,23.605 116.224,23.7C116.113,23.793 115.975,23.867 115.812,23.92C115.649,23.973 115.462,24 115.252,24L113.887,24L113.887,20.385L115.132,20.385ZM117.06,22.233L118.355,22.233L118.355,22.748L117.06,22.748L117.06,22.233ZM121.863,24L121.193,24C121.147,24 121.109,23.988 121.081,23.965C121.054,23.942 121.033,23.915 121.016,23.885L120.178,22.498C120.165,22.539 120.149,22.575 120.131,22.605L119.328,23.885C119.308,23.913 119.285,23.94 119.258,23.965C119.233,23.988 119.2,24 119.158,24L118.531,24L119.731,22.14L118.578,20.385L119.248,20.385C119.295,20.385 119.328,20.392 119.348,20.405C119.37,20.417 119.39,20.437 119.408,20.465L120.231,21.79C120.248,21.748 120.268,21.707 120.291,21.665L121.046,20.478C121.064,20.446 121.084,20.423 121.106,20.408C121.128,20.392 121.155,20.385 121.188,20.385L121.831,20.385L120.668,22.113L121.863,24ZM123.632,22.09C123.562,22.005 123.485,21.945 123.402,21.91C123.32,21.875 123.232,21.858 123.137,21.858C123.043,21.858 122.959,21.875 122.884,21.91C122.809,21.945 122.745,21.998 122.692,22.07C122.638,22.14 122.598,22.23 122.569,22.34C122.541,22.448 122.527,22.577 122.527,22.725C122.527,22.875 122.538,23.003 122.562,23.108C122.587,23.211 122.622,23.296 122.667,23.363C122.712,23.427 122.767,23.475 122.832,23.505C122.897,23.533 122.969,23.548 123.049,23.548C123.178,23.548 123.287,23.521 123.377,23.468C123.467,23.414 123.552,23.338 123.632,23.24L123.632,22.09ZM124.249,20.285L124.249,24L123.872,24C123.79,24 123.738,23.962 123.717,23.888L123.664,23.64C123.561,23.758 123.442,23.854 123.307,23.927C123.173,24.001 123.018,24.038 122.839,24.038C122.699,24.038 122.571,24.008 122.454,23.95C122.338,23.892 122.237,23.808 122.152,23.698C122.068,23.586 122.003,23.448 121.957,23.285C121.912,23.122 121.889,22.935 121.889,22.725C121.889,22.535 121.915,22.358 121.967,22.195C122.018,22.032 122.093,21.89 122.189,21.77C122.286,21.65 122.402,21.557 122.537,21.49C122.672,21.422 122.823,21.388 122.992,21.388C123.135,21.388 123.258,21.41 123.359,21.455C123.461,21.5 123.552,21.561 123.632,21.638L123.632,20.285L124.249,20.285Z" style="fill:rgb(139,191,64);fill-rule:nonzero;"/>
    <path d="M136,26L129,26L129,25L136,25C137.314,25 138.597,25.288 139.544,26.249C140.487,27.207 141,28.736 141,31L140,31C140,28.864 139.513,27.643 138.831,26.951C138.153,26.262 137.186,26 136,26Z" style="fill:rgb(139,191,64);"/>
    <path d="M131.296,22.193C131.296,22.458 131.252,22.703 131.164,22.93C131.077,23.155 130.954,23.35 130.794,23.515C130.634,23.68 130.441,23.809 130.216,23.903C129.991,23.994 129.741,24.04 129.466,24.04C129.193,24.04 128.944,23.994 128.719,23.903C128.494,23.809 128.3,23.68 128.139,23.515C127.979,23.35 127.855,23.155 127.766,22.93C127.678,22.703 127.634,22.458 127.634,22.193C127.634,21.927 127.678,21.683 127.766,21.458C127.855,21.231 127.979,21.035 128.139,20.87C128.3,20.705 128.494,20.577 128.719,20.485C128.944,20.392 129.193,20.345 129.466,20.345C129.65,20.345 129.822,20.367 129.984,20.41C130.145,20.452 130.294,20.512 130.429,20.59C130.564,20.667 130.685,20.761 130.791,20.873C130.9,20.983 130.991,21.106 131.066,21.243C131.141,21.379 131.198,21.528 131.236,21.688C131.276,21.848 131.296,22.016 131.296,22.193ZM130.609,22.193C130.609,21.994 130.582,21.817 130.529,21.66C130.475,21.502 130.4,21.368 130.301,21.258C130.203,21.148 130.083,21.063 129.941,21.005C129.801,20.947 129.643,20.918 129.466,20.918C129.29,20.918 129.13,20.947 128.989,21.005C128.849,21.063 128.729,21.148 128.629,21.258C128.53,21.368 128.455,21.502 128.401,21.66C128.348,21.817 128.321,21.994 128.321,22.193C128.321,22.391 128.348,22.569 128.401,22.728C128.455,22.884 128.53,23.017 128.629,23.128C128.729,23.236 128.849,23.319 128.989,23.378C129.13,23.436 129.29,23.465 129.466,23.465C129.643,23.465 129.801,23.436 129.941,23.378C130.083,23.319 130.203,23.236 130.301,23.128C130.4,23.017 130.475,22.884 130.529,22.728C130.582,22.569 130.609,22.391 130.609,22.193ZM133.239,23.475C133.364,23.475 133.469,23.46 133.554,23.43C133.639,23.4 133.707,23.36 133.757,23.31C133.809,23.26 133.845,23.202 133.867,23.135C133.89,23.068 133.902,22.998 133.902,22.923C133.902,22.844 133.889,22.774 133.864,22.712C133.839,22.649 133.8,22.596 133.747,22.552C133.694,22.508 133.624,22.473 133.539,22.45C133.456,22.427 133.355,22.415 133.237,22.415L132.559,22.415L132.559,23.475L133.239,23.475ZM132.559,20.905L132.559,21.95L133.094,21.95C133.324,21.95 133.498,21.908 133.614,21.825C133.733,21.742 133.792,21.609 133.792,21.427C133.792,21.239 133.739,21.105 133.632,21.025C133.525,20.945 133.359,20.905 133.132,20.905L132.559,20.905ZM133.132,20.385C133.369,20.385 133.571,20.408 133.739,20.453C133.908,20.498 134.045,20.562 134.152,20.645C134.26,20.728 134.339,20.829 134.389,20.948C134.439,21.066 134.464,21.199 134.464,21.348C134.464,21.433 134.452,21.514 134.427,21.593C134.402,21.669 134.363,21.742 134.309,21.81C134.258,21.877 134.191,21.938 134.109,21.993C134.029,22.048 133.934,22.094 133.822,22.133C134.319,22.244 134.567,22.513 134.567,22.938C134.567,23.091 134.538,23.233 134.479,23.363C134.421,23.493 134.336,23.605 134.224,23.7C134.113,23.793 133.975,23.867 133.812,23.92C133.649,23.973 133.462,24 133.252,24L131.887,24L131.887,20.385L133.132,20.385ZM135.06,22.233L136.355,22.233L136.355,22.748L135.06,22.748L135.06,22.233ZM139.863,24L139.193,24C139.147,24 139.109,23.988 139.081,23.965C139.054,23.942 139.033,23.915 139.016,23.885L138.178,22.498C138.165,22.539 138.149,22.575 138.131,22.605L137.328,23.885C137.308,23.913 137.285,23.94 137.258,23.965C137.233,23.988 137.2,24 137.158,24L136.531,24L137.731,22.14L136.578,20.385L137.248,20.385C137.295,20.385 137.328,20.392 137.348,20.405C137.37,20.417 137.39,20.437 137.408,20.465L138.231,21.79C138.248,21.748 138.268,21.707 138.291,21.665L139.046,20.478C139.064,20.446 139.084,20.423 139.106,20.408C139.128,20.392 139.155,20.385 139.188,20.385L139.831,20.385L138.668,22.113L139.863,24ZM141.632,22.09C141.562,22.005 141.485,21.945 141.402,21.91C141.32,21.875 141.232,21.858 141.137,21.858C141.043,21.858 140.959,21.875 140.884,21.91C140.809,21.945 140.745,21.998 140.692,22.07C140.638,22.14 140.598,22.23 140.569,22.34C140.541,22.448 140.527,22.577 140.527,22.725C140.527,22.875 140.538,23.003 140.562,23.108C140.587,23.211 140.622,23.296 140.667,23.363C140.712,23.427 140.767,23.475 140.832,23.505C140.897,23.533 140.969,23.548 141.049,23.548C141.178,23.548 141.287,23.521 141.377,23.468C141.467,23.414 141.552,23.338 141.632,23.24L141.632,22.09ZM142.249,20.285L142.249,24L141.872,24C141.79,24 141.738,23.962 141.717,23.888L141.664,23.64C141.561,23.758 141.442,23.854 141.307,23.927C141.173,24.001 141.018,24.038 140.839,24.038C140.699,24.038 140.571,24.008 140.454,23.95C140.338,23.892 140.237,23.808 140.152,23.698C140.068,23.586 140.003,23.448 139.957,23.285C139.912,23.122 139.889,22.935 139.889,22.725C139.889,22.535 139.915,22.358 139.967,22.195C140.018,22.032 140.093,21.89 140.189,21.77C140.286,21.65 140.402,21.557 140.537,21.49C140.672,21.422 140.823,21.388 140.992,21.388C141.135,21.388 141.258,21.41 141.359,21.455C141.461,21.5 141.552,21.561 141.632,21.638L141.632,20.285L142.249,20.285Z" style="fill:rgb(139,191,64);fill-rule:nonzero;"/>
    <path d="M151.605,23.148C151.642,23.148 151.674,23.162 151.703,23.19L151.968,23.478C151.821,23.659 151.64,23.798 151.425,23.895C151.212,23.992 150.955,24.04 150.655,24.04C150.387,24.04 150.145,23.994 149.93,23.903C149.717,23.811 149.534,23.683 149.383,23.52C149.231,23.357 149.114,23.162 149.033,22.935C148.953,22.708 148.913,22.461 148.913,22.193C148.913,21.921 148.956,21.673 149.043,21.448C149.129,21.221 149.251,21.026 149.408,20.863C149.566,20.699 149.754,20.573 149.973,20.483C150.191,20.391 150.433,20.345 150.698,20.345C150.961,20.345 151.194,20.388 151.398,20.475C151.603,20.562 151.777,20.675 151.92,20.815L151.695,21.128C151.682,21.148 151.664,21.165 151.643,21.18C151.623,21.195 151.594,21.203 151.558,21.203C151.533,21.203 151.507,21.196 151.48,21.183C151.454,21.168 151.424,21.15 151.393,21.13C151.361,21.108 151.324,21.085 151.283,21.06C151.241,21.035 151.193,21.013 151.138,20.993C151.083,20.971 151.019,20.953 150.945,20.94C150.874,20.925 150.79,20.918 150.695,20.918C150.534,20.918 150.385,20.947 150.25,21.005C150.117,21.062 150.002,21.145 149.905,21.255C149.809,21.363 149.734,21.497 149.68,21.655C149.627,21.812 149.6,21.991 149.6,22.193C149.6,22.396 149.629,22.577 149.685,22.735C149.744,22.893 149.822,23.027 149.92,23.135C150.019,23.243 150.134,23.327 150.268,23.385C150.401,23.442 150.544,23.47 150.698,23.47C150.789,23.47 150.872,23.465 150.945,23.455C151.02,23.445 151.089,23.429 151.15,23.408C151.214,23.386 151.273,23.358 151.328,23.325C151.384,23.29 151.44,23.248 151.495,23.198C151.512,23.183 151.529,23.171 151.548,23.163C151.566,23.153 151.585,23.148 151.605,23.148ZM157.238,20.385L156.116,24L155.508,24L154.718,21.53C154.697,21.47 154.677,21.397 154.658,21.31C154.648,21.352 154.638,21.391 154.628,21.427C154.618,21.464 154.608,21.498 154.596,21.53L153.798,24L153.188,24L152.068,20.385L152.631,20.385C152.689,20.385 152.738,20.399 152.776,20.427C152.816,20.454 152.843,20.491 152.856,20.538L153.471,22.7C153.484,22.753 153.497,22.812 153.508,22.875C153.522,22.937 153.535,23.002 153.548,23.07C153.562,23 153.576,22.934 153.591,22.873C153.608,22.811 153.625,22.753 153.643,22.7L154.353,20.538C154.367,20.499 154.393,20.464 154.431,20.433C154.471,20.401 154.519,20.385 154.576,20.385L154.773,20.385C154.832,20.385 154.879,20.399 154.916,20.427C154.953,20.456 154.98,20.493 154.998,20.538L155.706,22.7C155.741,22.803 155.773,22.923 155.801,23.058C155.823,22.926 155.847,22.807 155.873,22.7L156.488,20.538C156.498,20.496 156.523,20.46 156.563,20.43C156.605,20.4 156.654,20.385 156.711,20.385L157.238,20.385Z" style="fill:rgb(139,191,64);fill-rule:nonzero;"/>
    <path d="M159,31C159,29.763 158,28.5 158,27C158,25.5 157.5,24.5 157,24.5C156.5,24.5 156,25.5 155,25.5C154,25.5 154,26 153.5,26C153,26 153,25.5 152,25.5L147,25.5" style="fill:none;fill-rule:nonzero;stroke:rgb(139,191,64);stroke-width:1px;"/>
    <path d="M168.301,22.105C168.427,22.105 168.537,22.089 168.631,22.058C168.726,22.026 168.803,21.983 168.863,21.927C168.925,21.871 168.971,21.804 169.001,21.728C169.031,21.651 169.046,21.567 169.046,21.475C169.046,21.292 168.985,21.151 168.863,21.052C168.743,20.954 168.559,20.905 168.311,20.905L167.881,20.905L167.881,22.105L168.301,22.105ZM170.031,24L169.423,24C169.308,24 169.225,23.955 169.173,23.865L168.413,22.708C168.385,22.664 168.353,22.633 168.318,22.615C168.285,22.597 168.235,22.587 168.168,22.587L167.881,22.587L167.881,24L167.208,24L167.208,20.385L168.311,20.385C168.556,20.385 168.766,20.411 168.941,20.462C169.117,20.513 169.261,20.583 169.373,20.675C169.486,20.767 169.57,20.877 169.623,21.005C169.676,21.132 169.703,21.272 169.703,21.425C169.703,21.547 169.685,21.662 169.648,21.77C169.613,21.878 169.561,21.977 169.493,22.065C169.426,22.153 169.343,22.231 169.243,22.298C169.145,22.364 169.032,22.417 168.906,22.455C168.949,22.48 168.989,22.51 169.026,22.545C169.062,22.578 169.096,22.618 169.126,22.665L170.031,24ZM175.153,20.385L174.03,24L173.423,24L172.633,21.53C172.611,21.47 172.591,21.397 172.573,21.31C172.563,21.352 172.553,21.391 172.543,21.427C172.533,21.464 172.522,21.498 172.51,21.53L171.713,24L171.103,24L169.983,20.385L170.545,20.385C170.604,20.385 170.652,20.399 170.69,20.427C170.73,20.454 170.757,20.491 170.77,20.538L171.385,22.7C171.399,22.753 171.411,22.812 171.423,22.875C171.436,22.937 171.45,23.002 171.463,23.07C171.476,23 171.49,22.934 171.505,22.873C171.522,22.811 171.54,22.753 171.558,22.7L172.268,20.538C172.281,20.499 172.307,20.464 172.345,20.433C172.385,20.401 172.434,20.385 172.49,20.385L172.688,20.385C172.746,20.385 172.794,20.399 172.83,20.427C172.867,20.456 172.895,20.493 172.913,20.538L173.62,22.7C173.655,22.803 173.687,22.923 173.715,23.058C173.737,22.926 173.761,22.807 173.788,22.7L174.403,20.538C174.413,20.496 174.438,20.46 174.478,20.43C174.52,20.4 174.569,20.385 174.625,20.385L175.153,20.385Z" style="fill:rgb(139,191,64);fill-rule:nonzero;"/>
    <path d="M177,31C177,29.763 176,28.5 176,27C176,25.5 175.5,24.5 175,24.5C174.5,24.5 174,25.5 173,25.5C172,25.5 172,26 171.5,26C171,26 171,25.5 170,25.5L165,25.5" style="fill:none;fill-rule:nonzero;stroke:rgb(139,191,64);stroke-width:1px;"/>
    <path d="M5.006,45.855C4.255,46.897 4,48.163 4,49L3,49C3,48.003 3.295,46.519 4.194,45.27C5.112,43.996 6.637,43 9,43C11.363,43 12.888,43.996 13.806,45.27C14.705,46.519 15,48.003 15,49L14,49C14,48.163 13.745,46.897 12.994,45.855C12.262,44.838 11.037,44 9,44C6.963,44 5.738,44.838 5.006,45.855Z" style="fill:rgb(139,191,64);"/>
    <path d="M23,49C23,46 24,43 27,43C30,43 31,46 31,49" style="fill:none;fill-rule:nonzero;stroke:rgb(139,191,64);stroke-width:1px;"/>
    <path d="M41.006,45.855C40.255,46.897 40,48.163 40,49L39,49C39,48.003 39.295,46.519 40.194,45.27C41.112,43.996 42.637,43 45,43C47.363,43 48.888,43.996 49.806,45.27C50.705,46.519 51,48.003 51,49L50,49C50,48.163 49.745,46.897 48.994,45.855C48.262,44.838 47.037,44 45,44C42.963,44 41.738,44.838 41.006,45.855Z" style="fill:rgb(139,191,64);"/>
    <path d="M41.296,40.193C41.296,40.458 41.252,40.703 41.164,40.93C41.077,41.155 40.954,41.35 40.794,41.515C40.634,41.68 40.441,41.809 40.216,41.903C39.991,41.994 39.741,42.04 39.466,42.04C39.193,42.04 38.944,41.994 38.719,41.903C38.494,41.809 38.301,41.68 38.139,41.515C37.979,41.35 37.855,41.155 37.766,40.93C37.678,40.703 37.634,40.458 37.634,40.193C37.634,39.928 37.678,39.683 37.766,39.458C37.855,39.231 37.979,39.035 38.139,38.87C38.301,38.705 38.494,38.577 38.719,38.485C38.944,38.392 39.193,38.345 39.466,38.345C39.65,38.345 39.822,38.367 39.984,38.41C40.146,38.452 40.294,38.512 40.429,38.59C40.564,38.667 40.685,38.761 40.791,38.873C40.9,38.983 40.991,39.106 41.066,39.243C41.141,39.379 41.198,39.528 41.236,39.688C41.276,39.847 41.296,40.016 41.296,40.193ZM40.609,40.193C40.609,39.994 40.582,39.817 40.529,39.66C40.475,39.502 40.4,39.368 40.301,39.258C40.203,39.148 40.083,39.063 39.941,39.005C39.801,38.947 39.643,38.917 39.466,38.917C39.29,38.917 39.131,38.947 38.989,39.005C38.849,39.063 38.729,39.148 38.629,39.258C38.531,39.368 38.455,39.502 38.401,39.66C38.348,39.817 38.321,39.994 38.321,40.193C38.321,40.391 38.348,40.569 38.401,40.728C38.455,40.884 38.531,41.018 38.629,41.128C38.729,41.236 38.849,41.319 38.989,41.378C39.131,41.436 39.29,41.465 39.466,41.465C39.643,41.465 39.801,41.436 39.941,41.378C40.083,41.319 40.203,41.236 40.301,41.128C40.4,41.018 40.475,40.884 40.529,40.728C40.582,40.569 40.609,40.391 40.609,40.193ZM43.239,41.475C43.364,41.475 43.469,41.46 43.554,41.43C43.639,41.4 43.707,41.36 43.757,41.31C43.809,41.26 43.845,41.202 43.867,41.135C43.89,41.068 43.902,40.998 43.902,40.923C43.902,40.844 43.889,40.774 43.864,40.713C43.839,40.649 43.8,40.596 43.747,40.553C43.694,40.508 43.624,40.473 43.539,40.45C43.456,40.427 43.355,40.415 43.237,40.415L42.559,40.415L42.559,41.475L43.239,41.475ZM42.559,38.905L42.559,39.95L43.094,39.95C43.324,39.95 43.498,39.908 43.614,39.825C43.733,39.742 43.792,39.609 43.792,39.428C43.792,39.239 43.739,39.105 43.632,39.025C43.525,38.945 43.359,38.905 43.132,38.905L42.559,38.905ZM43.132,38.385C43.369,38.385 43.571,38.408 43.739,38.453C43.908,38.498 44.045,38.562 44.152,38.645C44.26,38.728 44.339,38.829 44.389,38.948C44.439,39.066 44.464,39.199 44.464,39.347C44.464,39.433 44.452,39.514 44.427,39.593C44.402,39.669 44.363,39.742 44.309,39.81C44.258,39.877 44.191,39.938 44.109,39.993C44.029,40.048 43.934,40.094 43.822,40.133C44.319,40.244 44.567,40.513 44.567,40.938C44.567,41.091 44.538,41.233 44.479,41.362C44.421,41.493 44.336,41.605 44.224,41.7C44.113,41.793 43.975,41.867 43.812,41.92C43.649,41.973 43.462,42 43.252,42L41.887,42L41.887,38.385L43.132,38.385ZM45.06,40.233L46.355,40.233L46.355,40.748L45.06,40.748L45.06,40.233ZM49.863,42L49.193,42C49.147,42 49.109,41.988 49.081,41.965C49.054,41.942 49.033,41.915 49.016,41.885L48.178,40.498C48.165,40.539 48.149,40.575 48.131,40.605L47.328,41.885C47.308,41.913 47.285,41.94 47.258,41.965C47.233,41.988 47.2,42 47.158,42L46.531,42L47.731,40.14L46.578,38.385L47.248,38.385C47.295,38.385 47.328,38.392 47.348,38.405C47.37,38.417 47.39,38.437 47.408,38.465L48.231,39.79C48.248,39.748 48.268,39.707 48.291,39.665L49.046,38.478C49.064,38.446 49.084,38.423 49.106,38.408C49.128,38.393 49.155,38.385 49.188,38.385L49.831,38.385L48.668,40.112L49.863,42ZM51.632,40.09C51.562,40.005 51.485,39.945 51.402,39.91C51.32,39.875 51.232,39.858 51.137,39.858C51.044,39.858 50.959,39.875 50.884,39.91C50.809,39.945 50.745,39.998 50.692,40.07C50.639,40.14 50.598,40.23 50.569,40.34C50.541,40.448 50.527,40.577 50.527,40.725C50.527,40.875 50.539,41.003 50.562,41.108C50.587,41.211 50.622,41.296 50.667,41.362C50.712,41.428 50.767,41.475 50.832,41.505C50.897,41.533 50.969,41.548 51.049,41.548C51.178,41.548 51.287,41.521 51.377,41.468C51.467,41.414 51.552,41.338 51.632,41.24L51.632,40.09ZM52.249,38.285L52.249,42L51.872,42C51.79,42 51.739,41.963 51.717,41.888L51.664,41.64C51.561,41.758 51.442,41.854 51.307,41.928C51.173,42.001 51.018,42.038 50.839,42.038C50.699,42.038 50.571,42.008 50.454,41.95C50.338,41.892 50.237,41.808 50.152,41.698C50.069,41.586 50.004,41.448 49.957,41.285C49.912,41.122 49.889,40.935 49.889,40.725C49.889,40.535 49.915,40.358 49.967,40.195C50.019,40.032 50.093,39.89 50.189,39.77C50.286,39.65 50.402,39.557 50.537,39.49C50.672,39.422 50.824,39.388 50.992,39.388C51.135,39.388 51.258,39.41 51.359,39.455C51.461,39.5 51.552,39.561 51.632,39.638L51.632,38.285L52.249,38.285Z" style="fill:rgb(139,191,64);fill-rule:nonzero;"/>
    <path d="M59,49C59,47 60.5,47.499 60.5,45.5C60.5,43.5 61.5,43.5 62,43.5C62.5,43.5 62.5,44.5 63,44.5C63.5,44.5 63.5,43.5 64,43.5C64.5,43.5 65.5,43.499 65.5,45.5C65.5,47.5 67,47 67,49" style="fill:none;fill-rule:nonzero;stroke:rgb(139,191,64);stroke-width:1px;"/>
    <path d="M61.605,41.148C61.642,41.148 61.674,41.162 61.703,41.19L61.968,41.478C61.821,41.659 61.64,41.798 61.425,41.895C61.212,41.992 60.955,42.04 60.655,42.04C60.387,42.04 60.145,41.994 59.93,41.903C59.717,41.811 59.534,41.683 59.383,41.52C59.231,41.357 59.114,41.162 59.033,40.935C58.953,40.708 58.913,40.461 58.913,40.193C58.913,39.921 58.956,39.673 59.043,39.448C59.129,39.221 59.251,39.026 59.408,38.862C59.566,38.699 59.754,38.573 59.973,38.483C60.191,38.391 60.433,38.345 60.698,38.345C60.961,38.345 61.194,38.388 61.398,38.475C61.603,38.562 61.777,38.675 61.92,38.815L61.695,39.128C61.682,39.148 61.664,39.165 61.643,39.18C61.623,39.195 61.594,39.203 61.558,39.203C61.533,39.203 61.507,39.196 61.48,39.183C61.454,39.167 61.424,39.15 61.393,39.13C61.361,39.108 61.324,39.085 61.283,39.06C61.241,39.035 61.193,39.013 61.138,38.993C61.083,38.971 61.019,38.953 60.945,38.94C60.874,38.925 60.79,38.917 60.695,38.917C60.533,38.917 60.385,38.947 60.25,39.005C60.117,39.062 60.002,39.145 59.905,39.255C59.809,39.363 59.734,39.497 59.68,39.655C59.627,39.812 59.6,39.991 59.6,40.193C59.6,40.396 59.629,40.577 59.685,40.735C59.743,40.893 59.822,41.027 59.92,41.135C60.019,41.243 60.134,41.327 60.268,41.385C60.401,41.442 60.544,41.47 60.698,41.47C60.789,41.47 60.872,41.465 60.945,41.455C61.02,41.445 61.089,41.429 61.15,41.408C61.214,41.386 61.273,41.358 61.328,41.325C61.384,41.29 61.44,41.248 61.495,41.198C61.512,41.183 61.529,41.171 61.548,41.163C61.566,41.153 61.585,41.148 61.605,41.148ZM67.238,38.385L66.116,42L65.508,42L64.718,39.53C64.697,39.47 64.677,39.397 64.658,39.31C64.648,39.352 64.638,39.391 64.628,39.428C64.618,39.464 64.608,39.498 64.596,39.53L63.798,42L63.188,42L62.068,38.385L62.631,38.385C62.689,38.385 62.737,38.399 62.776,38.428C62.816,38.454 62.843,38.491 62.856,38.538L63.471,40.7C63.484,40.753 63.497,40.812 63.508,40.875C63.522,40.937 63.535,41.002 63.548,41.07C63.562,41 63.576,40.934 63.591,40.873C63.608,40.811 63.625,40.753 63.643,40.7L64.353,38.538C64.367,38.499 64.393,38.464 64.431,38.433C64.471,38.401 64.519,38.385 64.576,38.385L64.773,38.385C64.832,38.385 64.879,38.399 64.916,38.428C64.953,38.456 64.98,38.493 64.998,38.538L65.706,40.7C65.741,40.803 65.772,40.923 65.801,41.058C65.823,40.926 65.847,40.807 65.873,40.7L66.488,38.538C66.498,38.496 66.523,38.46 66.563,38.43C66.605,38.4 66.654,38.385 66.711,38.385L67.238,38.385Z" style="fill:rgb(139,191,64);fill-rule:nonzero;"/>
    <path d="M77,49C77,47 78.5,47.499 78.5,45.5C78.5,43.5 79.5,43.5 80,43.5C80.5,43.5 80.5,44.5 81,44.5C81.5,44.5 81.5,43.5 82,43.5C82.5,43.5 83.5,43.499 83.5,45.5C83.5,47.5 85,47 85,49" style="fill:none;fill-rule:nonzero;stroke:rgb(139,191,64);stroke-width:1px;"/>
    <path d="M78.301,40.105C78.427,40.105 78.537,40.089 78.631,40.058C78.726,40.026 78.803,39.983 78.863,39.928C78.925,39.871 78.971,39.804 79.001,39.728C79.031,39.651 79.046,39.567 79.046,39.475C79.046,39.292 78.985,39.151 78.863,39.053C78.743,38.954 78.559,38.905 78.311,38.905L77.881,38.905L77.881,40.105L78.301,40.105ZM80.031,42L79.423,42C79.308,42 79.225,41.955 79.173,41.865L78.413,40.708C78.385,40.664 78.353,40.633 78.318,40.615C78.285,40.597 78.235,40.588 78.168,40.588L77.881,40.588L77.881,42L77.208,42L77.208,38.385L78.311,38.385C78.556,38.385 78.766,38.411 78.941,38.463C79.117,38.513 79.262,38.583 79.373,38.675C79.487,38.767 79.57,38.877 79.623,39.005C79.677,39.132 79.703,39.272 79.703,39.425C79.703,39.547 79.685,39.662 79.648,39.77C79.613,39.878 79.562,39.977 79.493,40.065C79.427,40.153 79.343,40.231 79.243,40.298C79.145,40.364 79.032,40.417 78.906,40.455C78.949,40.48 78.989,40.51 79.026,40.545C79.062,40.578 79.096,40.618 79.126,40.665L80.031,42ZM85.153,38.385L84.03,42L83.423,42L82.633,39.53C82.611,39.47 82.591,39.397 82.573,39.31C82.563,39.352 82.553,39.391 82.543,39.428C82.533,39.464 82.522,39.498 82.51,39.53L81.713,42L81.103,42L79.983,38.385L80.545,38.385C80.604,38.385 80.652,38.399 80.69,38.428C80.73,38.454 80.757,38.491 80.77,38.538L81.385,40.7C81.399,40.753 81.411,40.812 81.423,40.875C81.436,40.937 81.45,41.002 81.463,41.07C81.476,41 81.49,40.934 81.505,40.873C81.522,40.811 81.54,40.753 81.558,40.7L82.268,38.538C82.281,38.499 82.307,38.464 82.345,38.433C82.385,38.401 82.434,38.385 82.49,38.385L82.688,38.385C82.746,38.385 82.794,38.399 82.83,38.428C82.867,38.456 82.895,38.493 82.913,38.538L83.62,40.7C83.655,40.803 83.687,40.923 83.715,41.058C83.737,40.926 83.761,40.807 83.788,40.7L84.403,38.538C84.413,38.496 84.438,38.46 84.478,38.43C84.52,38.4 84.569,38.385 84.625,38.385L85.153,38.385Z" style="fill:rgb(139,191,64);fill-rule:nonzero;"/>
    <path d="M10.462,62.087C5.61,62.107 4.011,65.678 4.008,67L3,66.997C3.004,65.017 5.145,60.893 10.719,61.002L15,61.002L15,62.089L10.753,62.089C10.739,62.089 10.724,62.09 10.709,62.089L10.462,62.089L10.462,62.087Z" style="fill:rgb(139,191,64);fill-rule:nonzero;"/>
    <path d="M26,62L33,62L33,61L26,61C24.686,61 23.403,61.288 22.456,62.249C21.513,63.207 21,64.736 21,67L22,67C22,64.864 22.487,63.643 23.169,62.951C23.847,62.262 24.814,62 26,62Z" style="fill:rgb(139,191,64);"/>
    <path d="M46.462,62.087C41.611,62.107 40.011,65.678 40.008,67L39,66.997C39.004,65.017 41.145,60.893 46.719,61.002L51,61.002L51,62.089L46.753,62.089C46.739,62.089 46.724,62.09 46.709,62.089L46.462,62.089L46.462,62.087Z" style="fill:rgb(139,191,64);fill-rule:nonzero;"/>
    <path d="M41.461,57.9L41.618,57.9C41.682,57.9 41.734,57.892 41.776,57.875C41.817,57.857 41.853,57.828 41.883,57.79L42.881,56.528C42.922,56.474 42.966,56.438 43.011,56.417C43.057,56.396 43.116,56.385 43.186,56.385L43.766,56.385L42.548,57.888C42.477,57.979 42.402,58.044 42.326,58.083C42.381,58.103 42.43,58.131 42.473,58.167C42.518,58.203 42.561,58.249 42.601,58.307L43.856,60L43.263,60C43.183,60 43.123,59.989 43.083,59.968C43.045,59.944 43.012,59.911 42.986,59.868L41.963,58.533C41.932,58.487 41.895,58.456 41.853,58.438C41.812,58.419 41.752,58.41 41.673,58.41L41.461,58.41L41.461,60L40.788,60L40.788,56.385L41.461,56.385L41.461,57.9ZM44.084,57.393C44.109,57.219 44.157,57.068 44.228,56.938C44.3,56.806 44.389,56.697 44.496,56.61C44.604,56.522 44.728,56.456 44.866,56.413C45.006,56.368 45.156,56.345 45.316,56.345C45.483,56.345 45.633,56.369 45.766,56.417C45.901,56.464 46.016,56.53 46.111,56.615C46.206,56.698 46.279,56.797 46.329,56.91C46.38,57.023 46.406,57.146 46.406,57.278C46.406,57.393 46.393,57.494 46.366,57.583C46.341,57.669 46.304,57.745 46.256,57.81C46.208,57.875 46.148,57.93 46.076,57.975C46.004,58.02 45.923,58.057 45.834,58.088C46.05,58.156 46.212,58.26 46.319,58.4C46.425,58.54 46.478,58.716 46.478,58.928C46.478,59.108 46.445,59.267 46.379,59.405C46.312,59.543 46.222,59.66 46.109,59.755C45.995,59.848 45.864,59.919 45.714,59.968C45.565,60.016 45.408,60.04 45.241,60.04C45.059,60.04 44.901,60.019 44.766,59.978C44.631,59.936 44.514,59.874 44.414,59.792C44.314,59.711 44.228,59.611 44.158,59.493C44.089,59.374 44.029,59.237 43.978,59.083L44.251,58.97C44.323,58.94 44.389,58.932 44.451,58.948C44.514,58.961 44.56,58.994 44.589,59.048C44.619,59.106 44.651,59.163 44.686,59.22C44.723,59.277 44.766,59.328 44.816,59.373C44.866,59.416 44.924,59.452 44.991,59.48C45.059,59.507 45.14,59.52 45.234,59.52C45.339,59.52 45.43,59.503 45.509,59.47C45.587,59.435 45.652,59.39 45.704,59.335C45.757,59.28 45.796,59.219 45.821,59.153C45.848,59.084 45.861,59.016 45.861,58.948C45.861,58.861 45.852,58.783 45.834,58.713C45.815,58.641 45.777,58.58 45.719,58.53C45.66,58.48 45.576,58.441 45.466,58.413C45.358,58.384 45.212,58.37 45.029,58.37L45.029,57.93C45.18,57.928 45.306,57.914 45.406,57.888C45.506,57.861 45.585,57.824 45.644,57.778C45.704,57.729 45.745,57.672 45.769,57.605C45.792,57.538 45.804,57.465 45.804,57.385C45.804,57.215 45.756,57.086 45.661,56.998C45.566,56.909 45.439,56.865 45.281,56.865C45.208,56.865 45.14,56.876 45.079,56.898C45.017,56.917 44.961,56.947 44.911,56.985C44.863,57.022 44.822,57.065 44.789,57.115C44.755,57.165 44.73,57.22 44.714,57.28C44.685,57.357 44.648,57.408 44.601,57.432C44.556,57.458 44.492,57.463 44.408,57.45L44.084,57.393ZM47.729,57.698C47.809,57.681 47.886,57.669 47.959,57.663C48.032,57.654 48.103,57.65 48.171,57.65C48.361,57.65 48.529,57.678 48.674,57.735C48.819,57.792 48.941,57.87 49.039,57.97C49.137,58.07 49.211,58.188 49.261,58.323C49.311,58.456 49.336,58.6 49.336,58.755C49.336,58.947 49.302,59.122 49.234,59.28C49.167,59.438 49.074,59.574 48.954,59.688C48.834,59.799 48.691,59.886 48.526,59.948C48.363,60.009 48.185,60.04 47.991,60.04C47.878,60.04 47.771,60.028 47.669,60.005C47.567,59.982 47.471,59.951 47.381,59.913C47.293,59.873 47.211,59.828 47.134,59.778C47.059,59.726 46.991,59.672 46.931,59.615L47.121,59.353C47.161,59.296 47.214,59.268 47.279,59.268C47.321,59.268 47.363,59.281 47.406,59.307C47.45,59.334 47.499,59.363 47.554,59.395C47.611,59.427 47.676,59.456 47.751,59.483C47.828,59.509 47.92,59.523 48.026,59.523C48.14,59.523 48.24,59.504 48.326,59.468C48.413,59.431 48.485,59.38 48.541,59.315C48.6,59.248 48.643,59.17 48.671,59.08C48.701,58.988 48.716,58.889 48.716,58.783C48.716,58.586 48.659,58.432 48.544,58.323C48.431,58.211 48.262,58.155 48.039,58.155C47.867,58.155 47.691,58.187 47.511,58.25L47.126,58.14L47.426,56.385L49.211,56.385L49.211,56.648C49.211,56.736 49.184,56.807 49.129,56.862C49.074,56.917 48.981,56.945 48.849,56.945L47.856,56.945L47.729,57.698Z" style="fill:rgb(139,191,64);fill-rule:nonzero;"/>
    <path d="M64.462,62.087C59.611,62.107 58.011,65.678 58.008,67L57,66.997C57.004,65.017 59.145,60.893 64.719,61.002L69,61.002L69,62.089L64.753,62.089C64.739,62.089 64.724,62.09 64.709,62.089L64.462,62.089L64.462,62.087Z" style="fill:rgb(139,191,64);fill-rule:nonzero;"/>
    <path d="M59.296,58.193C59.296,58.458 59.252,58.703 59.164,58.93C59.077,59.155 58.954,59.35 58.794,59.515C58.634,59.68 58.441,59.809 58.216,59.903C57.991,59.994 57.741,60.04 57.466,60.04C57.193,60.04 56.944,59.994 56.719,59.903C56.494,59.809 56.301,59.68 56.139,59.515C55.979,59.35 55.855,59.155 55.766,58.93C55.678,58.703 55.634,58.458 55.634,58.193C55.634,57.928 55.678,57.682 55.766,57.458C55.855,57.231 55.979,57.035 56.139,56.87C56.301,56.705 56.494,56.577 56.719,56.485C56.944,56.392 57.193,56.345 57.466,56.345C57.65,56.345 57.822,56.367 57.984,56.41C58.146,56.452 58.294,56.512 58.429,56.59C58.564,56.667 58.685,56.761 58.791,56.873C58.9,56.983 58.991,57.106 59.066,57.243C59.141,57.379 59.198,57.528 59.236,57.688C59.276,57.847 59.296,58.016 59.296,58.193ZM58.609,58.193C58.609,57.994 58.582,57.817 58.529,57.66C58.475,57.502 58.4,57.368 58.301,57.258C58.203,57.148 58.083,57.063 57.941,57.005C57.801,56.947 57.643,56.917 57.466,56.917C57.29,56.917 57.131,56.947 56.989,57.005C56.849,57.063 56.729,57.148 56.629,57.258C56.531,57.368 56.455,57.502 56.401,57.66C56.348,57.817 56.321,57.994 56.321,58.193C56.321,58.391 56.348,58.569 56.401,58.728C56.455,58.884 56.531,59.018 56.629,59.128C56.729,59.236 56.849,59.319 56.989,59.378C57.131,59.436 57.29,59.465 57.466,59.465C57.643,59.465 57.801,59.436 57.941,59.378C58.083,59.319 58.203,59.236 58.301,59.128C58.4,59.018 58.475,58.884 58.529,58.728C58.582,58.569 58.609,58.391 58.609,58.193ZM61.239,59.475C61.364,59.475 61.469,59.46 61.554,59.43C61.639,59.4 61.707,59.36 61.757,59.31C61.809,59.26 61.845,59.202 61.867,59.135C61.89,59.068 61.902,58.998 61.902,58.923C61.902,58.844 61.889,58.774 61.864,58.713C61.839,58.649 61.8,58.596 61.747,58.553C61.694,58.508 61.624,58.473 61.539,58.45C61.456,58.427 61.355,58.415 61.237,58.415L60.559,58.415L60.559,59.475L61.239,59.475ZM60.559,56.905L60.559,57.95L61.094,57.95C61.324,57.95 61.498,57.908 61.614,57.825C61.733,57.742 61.792,57.609 61.792,57.428C61.792,57.239 61.739,57.105 61.632,57.025C61.525,56.945 61.359,56.905 61.132,56.905L60.559,56.905ZM61.132,56.385C61.368,56.385 61.571,56.408 61.739,56.453C61.908,56.498 62.045,56.562 62.152,56.645C62.26,56.728 62.339,56.829 62.389,56.948C62.439,57.066 62.464,57.199 62.464,57.347C62.464,57.432 62.452,57.514 62.427,57.593C62.402,57.669 62.363,57.742 62.309,57.81C62.258,57.877 62.191,57.938 62.109,57.993C62.029,58.048 61.934,58.094 61.822,58.133C62.319,58.244 62.567,58.513 62.567,58.938C62.567,59.091 62.538,59.233 62.479,59.362C62.421,59.493 62.336,59.605 62.224,59.7C62.113,59.793 61.975,59.867 61.812,59.92C61.649,59.973 61.462,60 61.252,60L59.887,60L59.887,56.385L61.132,56.385ZM63.06,58.233L64.355,58.233L64.355,58.748L63.06,58.748L63.06,58.233ZM67.863,60L67.193,60C67.147,60 67.109,59.988 67.081,59.965C67.054,59.942 67.033,59.915 67.016,59.885L66.178,58.498C66.165,58.539 66.149,58.575 66.131,58.605L65.328,59.885C65.308,59.913 65.285,59.94 65.258,59.965C65.233,59.988 65.2,60 65.158,60L64.531,60L65.731,58.14L64.578,56.385L65.248,56.385C65.295,56.385 65.328,56.392 65.348,56.405C65.37,56.417 65.39,56.437 65.408,56.465L66.231,57.79C66.248,57.748 66.268,57.707 66.291,57.665L67.046,56.478C67.064,56.446 67.084,56.423 67.106,56.408C67.128,56.393 67.155,56.385 67.188,56.385L67.831,56.385L66.668,58.112L67.863,60ZM69.632,58.09C69.562,58.005 69.485,57.945 69.402,57.91C69.32,57.875 69.232,57.858 69.137,57.858C69.044,57.858 68.959,57.875 68.884,57.91C68.809,57.945 68.745,57.998 68.692,58.07C68.638,58.14 68.598,58.23 68.569,58.34C68.541,58.448 68.527,58.577 68.527,58.725C68.527,58.875 68.539,59.003 68.562,59.108C68.587,59.211 68.622,59.296 68.667,59.362C68.712,59.428 68.767,59.475 68.832,59.505C68.897,59.533 68.969,59.548 69.049,59.548C69.178,59.548 69.287,59.521 69.377,59.468C69.467,59.414 69.552,59.338 69.632,59.24L69.632,58.09ZM70.249,56.285L70.249,60L69.872,60C69.79,60 69.739,59.963 69.717,59.888L69.664,59.64C69.561,59.758 69.442,59.854 69.307,59.928C69.174,60.001 69.018,60.038 68.839,60.038C68.699,60.038 68.571,60.008 68.454,59.95C68.338,59.892 68.237,59.807 68.152,59.698C68.069,59.586 68.004,59.448 67.957,59.285C67.912,59.122 67.889,58.935 67.889,58.725C67.889,58.535 67.915,58.358 67.967,58.195C68.019,58.032 68.093,57.89 68.189,57.77C68.286,57.65 68.402,57.557 68.537,57.49C68.672,57.422 68.824,57.388 68.992,57.388C69.135,57.388 69.258,57.41 69.359,57.455C69.461,57.5 69.552,57.561 69.632,57.638L69.632,56.285L70.249,56.285Z" style="fill:rgb(139,191,64);fill-rule:nonzero;"/>
    <path d="M75,67C75,65.763 76,64.5 76,63C76,61.5 76.5,60.5 77,60.5C77.5,60.5 78,61.5 79,61.5C80,61.5 80,62 80.5,62C81,62 81,61.5 82,61.5L87,61.5" style="fill:none;fill-rule:nonzero;stroke:rgb(139,191,64);stroke-width:1px;"/>
    <path d="M79.605,59.148C79.642,59.148 79.674,59.162 79.703,59.19L79.968,59.478C79.821,59.659 79.64,59.798 79.425,59.895C79.212,59.992 78.955,60.04 78.655,60.04C78.387,60.04 78.145,59.994 77.93,59.903C77.717,59.811 77.534,59.683 77.383,59.52C77.231,59.357 77.114,59.162 77.033,58.935C76.953,58.708 76.913,58.461 76.913,58.193C76.913,57.921 76.956,57.673 77.043,57.448C77.129,57.221 77.251,57.026 77.408,56.862C77.566,56.699 77.754,56.573 77.973,56.483C78.191,56.391 78.433,56.345 78.698,56.345C78.961,56.345 79.194,56.388 79.398,56.475C79.603,56.562 79.777,56.675 79.92,56.815L79.695,57.128C79.682,57.148 79.664,57.165 79.643,57.18C79.623,57.195 79.594,57.203 79.558,57.203C79.533,57.203 79.507,57.196 79.48,57.182C79.454,57.167 79.424,57.15 79.393,57.13C79.361,57.108 79.324,57.085 79.283,57.06C79.241,57.035 79.193,57.013 79.138,56.993C79.083,56.971 79.019,56.953 78.945,56.94C78.874,56.925 78.79,56.917 78.695,56.917C78.534,56.917 78.385,56.947 78.25,57.005C78.117,57.062 78.002,57.145 77.905,57.255C77.809,57.363 77.734,57.497 77.68,57.655C77.627,57.812 77.6,57.991 77.6,58.193C77.6,58.396 77.629,58.577 77.685,58.735C77.744,58.893 77.822,59.027 77.92,59.135C78.019,59.243 78.134,59.327 78.268,59.385C78.401,59.442 78.544,59.47 78.698,59.47C78.789,59.47 78.872,59.465 78.945,59.455C79.02,59.445 79.089,59.429 79.15,59.408C79.214,59.386 79.273,59.358 79.328,59.325C79.384,59.29 79.44,59.248 79.495,59.198C79.512,59.182 79.529,59.171 79.548,59.163C79.566,59.153 79.585,59.148 79.605,59.148ZM85.238,56.385L84.116,60L83.508,60L82.718,57.53C82.697,57.47 82.677,57.397 82.658,57.31C82.648,57.352 82.638,57.391 82.628,57.428C82.618,57.464 82.608,57.498 82.596,57.53L81.798,60L81.188,60L80.068,56.385L80.631,56.385C80.689,56.385 80.738,56.399 80.776,56.428C80.816,56.454 80.843,56.491 80.856,56.538L81.471,58.7C81.484,58.753 81.497,58.812 81.508,58.875C81.522,58.937 81.535,59.002 81.548,59.07C81.562,59 81.576,58.934 81.591,58.873C81.608,58.811 81.625,58.753 81.643,58.7L82.353,56.538C82.367,56.499 82.393,56.464 82.431,56.432C82.471,56.401 82.519,56.385 82.576,56.385L82.773,56.385C82.832,56.385 82.879,56.399 82.916,56.428C82.953,56.456 82.98,56.493 82.998,56.538L83.706,58.7C83.741,58.803 83.772,58.923 83.801,59.057C83.823,58.926 83.847,58.807 83.873,58.7L84.488,56.538C84.498,56.496 84.523,56.46 84.563,56.43C84.605,56.4 84.654,56.385 84.711,56.385L85.238,56.385Z" style="fill:rgb(139,191,64);fill-rule:nonzero;"/>
    <path d="M93,67C93,65.763 94,64.5 94,63C94,61.5 94.5,60.5 95,60.5C95.5,60.5 96,61.5 97,61.5C98,61.5 98,62 98.5,62C99,62 99,61.5 100,61.5L105,61.5" style="fill:none;fill-rule:nonzero;stroke:rgb(139,191,64);stroke-width:1px;"/>
    <path d="M96.301,58.105C96.427,58.105 96.537,58.089 96.631,58.057C96.726,58.026 96.803,57.983 96.863,57.928C96.925,57.871 96.971,57.804 97.001,57.728C97.031,57.651 97.046,57.567 97.046,57.475C97.046,57.292 96.985,57.151 96.863,57.053C96.743,56.954 96.559,56.905 96.311,56.905L95.881,56.905L95.881,58.105L96.301,58.105ZM98.031,60L97.423,60C97.308,60 97.225,59.955 97.173,59.865L96.413,58.708C96.385,58.664 96.353,58.633 96.318,58.615C96.285,58.597 96.235,58.588 96.168,58.588L95.881,58.588L95.881,60L95.208,60L95.208,56.385L96.311,56.385C96.556,56.385 96.766,56.411 96.941,56.463C97.117,56.513 97.262,56.583 97.373,56.675C97.487,56.767 97.57,56.877 97.623,57.005C97.677,57.132 97.703,57.272 97.703,57.425C97.703,57.547 97.685,57.662 97.648,57.77C97.613,57.878 97.562,57.977 97.493,58.065C97.427,58.153 97.343,58.231 97.243,58.298C97.145,58.364 97.032,58.417 96.906,58.455C96.949,58.48 96.989,58.51 97.026,58.545C97.062,58.578 97.096,58.618 97.126,58.665L98.031,60ZM103.153,56.385L102.03,60L101.423,60L100.633,57.53C100.611,57.47 100.591,57.397 100.573,57.31C100.563,57.352 100.553,57.391 100.543,57.428C100.533,57.464 100.522,57.498 100.51,57.53L99.713,60L99.103,60L97.983,56.385L98.545,56.385C98.604,56.385 98.652,56.399 98.69,56.428C98.73,56.454 98.757,56.491 98.77,56.538L99.385,58.7C99.399,58.753 99.411,58.812 99.423,58.875C99.436,58.937 99.45,59.002 99.463,59.07C99.476,59 99.49,58.934 99.505,58.873C99.522,58.811 99.54,58.753 99.558,58.7L100.268,56.538C100.281,56.499 100.307,56.464 100.345,56.432C100.385,56.401 100.434,56.385 100.49,56.385L100.688,56.385C100.746,56.385 100.794,56.399 100.83,56.428C100.867,56.456 100.895,56.493 100.913,56.538L101.62,58.7C101.655,58.803 101.687,58.923 101.715,59.057C101.737,58.926 101.761,58.807 101.788,58.7L102.403,56.538C102.413,56.496 102.438,56.46 102.478,56.43C102.52,56.4 102.569,56.385 102.625,56.385L103.153,56.385Z" style="fill:rgb(139,191,64);fill-rule:nonzero;"/>
    <path d="M6.613,80.697C6.001,80.289 5.163,80 4,80L4,79C5.337,79 6.374,79.336 7.168,79.865C7.959,80.393 8.48,81.092 8.822,81.776C8.888,81.907 8.947,82.038 9,82.167C9.053,82.038 9.112,81.907 9.178,81.776C9.52,81.092 10.041,80.393 10.832,79.865C11.626,79.336 12.663,79 14,79L14,80C12.838,80 11.999,80.289 11.387,80.697C10.772,81.107 10.355,81.658 10.072,82.224C9.788,82.791 9.644,83.365 9.571,83.801C9.535,84.018 9.517,84.197 9.508,84.321C9.504,84.382 9.502,84.43 9.501,84.461C9.5,84.476 9.5,84.487 9.5,84.494C9.5,84.494 9.5,84.501 9.5,84.501L9.5,84.5C9.5,84.776 9.276,85 9,85C8.724,85 8.5,84.777 8.5,84.501L8.5,84.501C8.5,84.501 8.5,84.494 8.5,84.494C8.5,84.487 8.5,84.476 8.499,84.461C8.498,84.43 8.496,84.382 8.492,84.321C8.483,84.197 8.465,84.018 8.429,83.801C8.356,83.365 8.212,82.791 7.928,82.224C7.645,81.658 7.229,81.107 6.613,80.697Z" style="fill:rgb(139,191,64);"/>
    <path d="M25,79C25.337,79 25.686,79.086 26.012,79.303C26.334,79.518 26.605,79.842 26.822,80.276C26.905,80.442 26.981,80.626 27.05,80.83C27.194,80.428 27.379,80.048 27.617,79.741C27.942,79.322 28.4,79 29,79L32,79L32,80L29,80C28.801,80 28.608,80.095 28.408,80.353C28.201,80.62 28.022,81.02 27.881,81.513C27.598,82.495 27.5,83.694 27.5,84.5C27.5,84.776 27.276,85 27,85C26.724,85 26.5,84.776 26.5,84.5C26.5,82.525 26.251,81.369 25.928,80.724C25.77,80.408 25.604,80.232 25.457,80.135C25.314,80.039 25.163,80 25,80L22,80L22,79L25,79Z" style="fill:rgb(139,191,64);fill-rule:nonzero;"/>
    <path d="M42.613,80.697C42.001,80.289 41.163,80 40,80L40,79C41.338,79 42.374,79.336 43.168,79.865C43.959,80.393 44.48,81.092 44.822,81.776C44.888,81.907 44.947,82.038 45,82.167C45.053,82.038 45.112,81.907 45.178,81.776C45.52,81.092 46.041,80.393 46.832,79.865C47.626,79.336 48.663,79 50,79L50,80C48.838,80 47.999,80.289 47.387,80.697C46.772,81.107 46.355,81.658 46.072,82.224C45.788,82.791 45.644,83.365 45.571,83.801C45.535,84.018 45.517,84.197 45.509,84.321C45.504,84.382 45.502,84.43 45.501,84.461C45.5,84.476 45.5,84.487 45.5,84.494C45.5,84.494 45.5,84.501 45.5,84.501L45.5,84.5C45.5,84.776 45.276,85 45,85C44.724,85 44.5,84.777 44.5,84.501L44.5,84.501C44.5,84.501 44.5,84.494 44.5,84.494C44.5,84.487 44.5,84.476 44.499,84.461C44.498,84.43 44.496,84.382 44.492,84.321C44.483,84.197 44.465,84.018 44.429,83.801C44.356,83.365 44.212,82.791 43.928,82.224C43.645,81.658 43.228,81.107 42.613,80.697Z" style="fill:rgb(139,191,64);"/>
    <path d="M41.296,76.193C41.296,76.458 41.252,76.703 41.164,76.93C41.077,77.155 40.954,77.35 40.794,77.515C40.634,77.68 40.441,77.809 40.216,77.903C39.991,77.994 39.741,78.04 39.466,78.04C39.193,78.04 38.944,77.994 38.719,77.903C38.494,77.809 38.301,77.68 38.139,77.515C37.979,77.35 37.855,77.155 37.766,76.93C37.678,76.703 37.634,76.458 37.634,76.193C37.634,75.928 37.678,75.683 37.766,75.458C37.855,75.231 37.979,75.035 38.139,74.87C38.301,74.705 38.494,74.577 38.719,74.485C38.944,74.392 39.193,74.345 39.466,74.345C39.65,74.345 39.822,74.367 39.984,74.41C40.146,74.452 40.294,74.512 40.429,74.59C40.564,74.667 40.685,74.761 40.791,74.873C40.9,74.983 40.991,75.106 41.066,75.243C41.141,75.379 41.198,75.528 41.236,75.688C41.276,75.848 41.296,76.016 41.296,76.193ZM40.609,76.193C40.609,75.994 40.582,75.817 40.529,75.66C40.475,75.502 40.4,75.368 40.301,75.257C40.203,75.147 40.083,75.063 39.941,75.005C39.801,74.947 39.643,74.918 39.466,74.918C39.29,74.918 39.131,74.947 38.989,75.005C38.849,75.063 38.729,75.147 38.629,75.257C38.531,75.368 38.455,75.502 38.401,75.66C38.348,75.817 38.321,75.994 38.321,76.193C38.321,76.391 38.348,76.569 38.401,76.728C38.455,76.884 38.531,77.018 38.629,77.128C38.729,77.236 38.849,77.319 38.989,77.378C39.131,77.436 39.29,77.465 39.466,77.465C39.643,77.465 39.801,77.436 39.941,77.378C40.083,77.319 40.203,77.236 40.301,77.128C40.4,77.018 40.475,76.884 40.529,76.728C40.582,76.569 40.609,76.391 40.609,76.193ZM43.239,77.475C43.364,77.475 43.469,77.46 43.554,77.43C43.639,77.4 43.707,77.36 43.757,77.31C43.809,77.26 43.845,77.202 43.867,77.135C43.89,77.068 43.902,76.998 43.902,76.923C43.902,76.844 43.889,76.774 43.864,76.713C43.839,76.649 43.8,76.596 43.747,76.553C43.694,76.507 43.624,76.473 43.539,76.45C43.456,76.427 43.355,76.415 43.237,76.415L42.559,76.415L42.559,77.475L43.239,77.475ZM42.559,74.905L42.559,75.95L43.094,75.95C43.324,75.95 43.498,75.908 43.614,75.825C43.733,75.742 43.792,75.609 43.792,75.428C43.792,75.239 43.739,75.105 43.632,75.025C43.525,74.945 43.359,74.905 43.132,74.905L42.559,74.905ZM43.132,74.385C43.369,74.385 43.571,74.408 43.739,74.453C43.908,74.498 44.045,74.562 44.152,74.645C44.26,74.728 44.339,74.829 44.389,74.948C44.439,75.066 44.464,75.199 44.464,75.348C44.464,75.433 44.452,75.514 44.427,75.593C44.402,75.669 44.363,75.742 44.309,75.81C44.258,75.877 44.191,75.938 44.109,75.993C44.029,76.048 43.934,76.094 43.822,76.132C44.319,76.244 44.567,76.513 44.567,76.938C44.567,77.091 44.538,77.233 44.479,77.363C44.421,77.493 44.336,77.605 44.224,77.7C44.113,77.793 43.975,77.867 43.812,77.92C43.649,77.973 43.462,78 43.252,78L41.887,78L41.887,74.385L43.132,74.385ZM45.06,76.233L46.355,76.233L46.355,76.748L45.06,76.748L45.06,76.233ZM49.863,78L49.193,78C49.147,78 49.109,77.988 49.081,77.965C49.054,77.942 49.033,77.915 49.016,77.885L48.178,76.498C48.165,76.539 48.149,76.575 48.131,76.605L47.328,77.885C47.308,77.913 47.285,77.94 47.258,77.965C47.233,77.988 47.2,78 47.158,78L46.531,78L47.731,76.14L46.578,74.385L47.248,74.385C47.295,74.385 47.328,74.392 47.348,74.405C47.37,74.417 47.39,74.437 47.408,74.465L48.231,75.79C48.248,75.748 48.268,75.707 48.291,75.665L49.046,74.478C49.064,74.446 49.084,74.423 49.106,74.408C49.128,74.393 49.155,74.385 49.188,74.385L49.831,74.385L48.668,76.113L49.863,78ZM51.632,76.09C51.562,76.005 51.485,75.945 51.402,75.91C51.32,75.875 51.232,75.858 51.137,75.858C51.044,75.858 50.959,75.875 50.884,75.91C50.809,75.945 50.745,75.998 50.692,76.07C50.639,76.14 50.598,76.23 50.569,76.34C50.541,76.448 50.527,76.577 50.527,76.725C50.527,76.875 50.539,77.003 50.562,77.108C50.587,77.211 50.622,77.296 50.667,77.363C50.712,77.428 50.767,77.475 50.832,77.505C50.897,77.533 50.969,77.548 51.049,77.548C51.178,77.548 51.287,77.521 51.377,77.468C51.467,77.414 51.552,77.338 51.632,77.24L51.632,76.09ZM52.249,74.285L52.249,78L51.872,78C51.79,78 51.739,77.963 51.717,77.888L51.664,77.64C51.561,77.758 51.442,77.854 51.307,77.928C51.173,78.001 51.018,78.037 50.839,78.037C50.699,78.037 50.571,78.008 50.454,77.95C50.338,77.892 50.237,77.808 50.152,77.698C50.069,77.586 50.004,77.448 49.957,77.285C49.912,77.122 49.889,76.935 49.889,76.725C49.889,76.535 49.915,76.358 49.967,76.195C50.019,76.032 50.093,75.89 50.189,75.77C50.286,75.65 50.402,75.557 50.537,75.49C50.672,75.422 50.824,75.388 50.992,75.388C51.135,75.388 51.258,75.41 51.359,75.455C51.461,75.5 51.552,75.561 51.632,75.638L51.632,74.285L52.249,74.285Z" style="fill:rgb(139,191,64);fill-rule:nonzero;"/>
    <path d="M68,79.5L66.5,79.5C65.5,79.5 64.5,80.5 64.5,82C64.5,83.5 64.5,84.5 64,84.5C63.5,84.5 64,83 63,83C62,83 62.5,84.5 62,84.5C61.5,84.5 61.5,83.5 61.5,82C61.5,80.5 60.5,79.5 59.5,79.5C58.5,79.5 58,79.5 58,79.5" style="fill:none;fill-rule:nonzero;stroke:rgb(139,191,64);stroke-width:1px;"/>
    <path d="M61.605,77.147C61.642,77.147 61.674,77.162 61.703,77.19L61.968,77.478C61.821,77.659 61.64,77.798 61.425,77.895C61.212,77.992 60.955,78.04 60.655,78.04C60.387,78.04 60.145,77.994 59.93,77.903C59.717,77.811 59.534,77.683 59.383,77.52C59.231,77.357 59.114,77.162 59.033,76.935C58.953,76.708 58.913,76.461 58.913,76.193C58.913,75.921 58.956,75.673 59.043,75.448C59.129,75.221 59.251,75.026 59.408,74.863C59.566,74.699 59.754,74.573 59.973,74.483C60.191,74.391 60.433,74.345 60.698,74.345C60.961,74.345 61.194,74.388 61.398,74.475C61.603,74.562 61.777,74.675 61.92,74.815L61.695,75.128C61.682,75.147 61.664,75.165 61.643,75.18C61.623,75.195 61.594,75.203 61.558,75.203C61.533,75.203 61.507,75.196 61.48,75.183C61.454,75.168 61.424,75.15 61.393,75.13C61.361,75.108 61.324,75.085 61.283,75.06C61.241,75.035 61.193,75.013 61.138,74.993C61.083,74.971 61.019,74.953 60.945,74.94C60.874,74.925 60.79,74.918 60.695,74.918C60.533,74.918 60.385,74.947 60.25,75.005C60.117,75.062 60.002,75.145 59.905,75.255C59.809,75.363 59.734,75.497 59.68,75.655C59.627,75.812 59.6,75.991 59.6,76.193C59.6,76.396 59.629,76.577 59.685,76.735C59.743,76.893 59.822,77.027 59.92,77.135C60.019,77.243 60.134,77.327 60.268,77.385C60.401,77.442 60.544,77.47 60.698,77.47C60.789,77.47 60.872,77.465 60.945,77.455C61.02,77.445 61.089,77.429 61.15,77.408C61.214,77.386 61.273,77.358 61.328,77.325C61.384,77.29 61.44,77.248 61.495,77.198C61.512,77.183 61.529,77.171 61.548,77.162C61.566,77.153 61.585,77.147 61.605,77.147ZM67.238,74.385L66.116,78L65.508,78L64.718,75.53C64.697,75.47 64.677,75.397 64.658,75.31C64.648,75.352 64.638,75.391 64.628,75.428C64.618,75.464 64.608,75.498 64.596,75.53L63.798,78L63.188,78L62.068,74.385L62.631,74.385C62.689,74.385 62.737,74.399 62.776,74.428C62.816,74.454 62.843,74.491 62.856,74.538L63.471,76.7C63.484,76.753 63.497,76.812 63.508,76.875C63.522,76.937 63.535,77.002 63.548,77.07C63.562,77 63.576,76.934 63.591,76.873C63.608,76.811 63.625,76.753 63.643,76.7L64.353,74.538C64.367,74.499 64.393,74.464 64.431,74.433C64.471,74.401 64.519,74.385 64.576,74.385L64.773,74.385C64.832,74.385 64.879,74.399 64.916,74.428C64.953,74.456 64.98,74.493 64.998,74.538L65.706,76.7C65.741,76.803 65.772,76.923 65.801,77.058C65.823,76.926 65.847,76.807 65.873,76.7L66.488,74.538C66.498,74.496 66.523,74.46 66.563,74.43C66.605,74.4 66.654,74.385 66.711,74.385L67.238,74.385Z" style="fill:rgb(139,191,64);fill-rule:nonzero;"/>
    <path d="M86,79.5L84.5,79.5C83.5,79.5 82.5,80.5 82.5,82C82.5,83.5 82.5,84.5 82,84.5C81.5,84.5 82,83 81,83C80,83 80.5,84.5 80,84.5C79.5,84.5 79.5,83.5 79.5,82C79.5,80.5 78.5,79.5 77.5,79.5C76.5,79.5 76,79.5 76,79.5" style="fill:none;fill-rule:nonzero;stroke:rgb(139,191,64);stroke-width:1px;"/>
    <path d="M78.301,76.105C78.427,76.105 78.537,76.089 78.631,76.058C78.726,76.026 78.803,75.983 78.863,75.928C78.925,75.871 78.971,75.804 79.001,75.728C79.031,75.651 79.046,75.567 79.046,75.475C79.046,75.292 78.985,75.151 78.863,75.053C78.743,74.954 78.559,74.905 78.311,74.905L77.881,74.905L77.881,76.105L78.301,76.105ZM80.031,78L79.423,78C79.308,78 79.225,77.955 79.173,77.865L78.413,76.708C78.385,76.664 78.353,76.633 78.318,76.615C78.285,76.597 78.235,76.588 78.168,76.588L77.881,76.588L77.881,78L77.208,78L77.208,74.385L78.311,74.385C78.556,74.385 78.766,74.411 78.941,74.463C79.117,74.513 79.262,74.583 79.373,74.675C79.487,74.767 79.57,74.877 79.623,75.005C79.677,75.132 79.703,75.272 79.703,75.425C79.703,75.547 79.685,75.662 79.648,75.77C79.613,75.878 79.562,75.977 79.493,76.065C79.427,76.153 79.343,76.231 79.243,76.298C79.145,76.364 79.032,76.417 78.906,76.455C78.949,76.48 78.989,76.51 79.026,76.545C79.062,76.578 79.096,76.618 79.126,76.665L80.031,78ZM85.153,74.385L84.03,78L83.423,78L82.633,75.53C82.611,75.47 82.591,75.397 82.573,75.31C82.563,75.352 82.553,75.391 82.543,75.428C82.533,75.464 82.522,75.498 82.51,75.53L81.713,78L81.103,78L79.983,74.385L80.545,74.385C80.604,74.385 80.652,74.399 80.69,74.428C80.73,74.454 80.757,74.491 80.77,74.538L81.385,76.7C81.399,76.753 81.411,76.812 81.423,76.875C81.436,76.937 81.45,77.002 81.463,77.07C81.476,77 81.49,76.934 81.505,76.873C81.522,76.811 81.54,76.753 81.558,76.7L82.268,74.538C82.281,74.499 82.307,74.464 82.345,74.433C82.385,74.401 82.434,74.385 82.49,74.385L82.688,74.385C82.746,74.385 82.794,74.399 82.83,74.428C82.867,74.456 82.895,74.493 82.913,74.538L83.62,76.7C83.655,76.803 83.687,76.923 83.715,77.058C83.737,76.926 83.761,76.807 83.788,76.7L84.403,74.538C84.413,74.496 84.438,74.46 84.478,74.43C84.52,74.4 84.569,74.385 84.625,74.385L85.153,74.385Z" style="fill:rgb(139,191,64);fill-rule:nonzero;"/>
    <path d="M5,103C5,101 6.5,101.499 6.5,99.5C6.5,97.5 7.5,97.5 8,97.5C8.5,97.5 8.5,98.5 9,98.5C9.5,98.5 9.5,97.5 10,97.5C10.5,97.5 11.5,97.499 11.5,99.5C11.5,101.5 13,101 13,103" style="fill:none;fill-rule:nonzero;stroke:rgb(139,191,64);stroke-width:1px;"/>
    <path d="M8.08,92.938L6.99,92.938L6.99,96L6.317,96L6.317,92.938L5.227,92.938L5.227,92.385L8.08,92.385L8.08,92.938ZM9.645,94.105C9.772,94.105 9.882,94.089 9.975,94.058C10.07,94.026 10.148,93.983 10.208,93.928C10.27,93.871 10.315,93.804 10.345,93.728C10.375,93.651 10.39,93.567 10.39,93.475C10.39,93.292 10.33,93.151 10.208,93.053C10.088,92.954 9.904,92.905 9.655,92.905L9.225,92.905L9.225,94.105L9.645,94.105ZM11.375,96L10.768,96C10.653,96 10.57,95.955 10.518,95.865L9.758,94.708C9.73,94.664 9.698,94.633 9.663,94.615C9.63,94.597 9.58,94.588 9.513,94.588L9.225,94.588L9.225,96L8.553,96L8.553,92.385L9.655,92.385C9.9,92.385 10.11,92.411 10.285,92.463C10.462,92.513 10.606,92.583 10.718,92.675C10.831,92.767 10.915,92.877 10.968,93.005C11.021,93.132 11.048,93.272 11.048,93.425C11.048,93.547 11.03,93.662 10.993,93.77C10.958,93.878 10.906,93.977 10.838,94.065C10.771,94.153 10.688,94.231 10.588,94.298C10.49,94.364 10.377,94.417 10.25,94.455C10.294,94.48 10.334,94.51 10.37,94.545C10.407,94.578 10.44,94.618 10.47,94.665L11.375,96ZM12.441,96L11.766,96L11.766,92.385L12.441,92.385L12.441,96Z" style="fill:rgb(139,191,64);fill-rule:nonzero;"/>
    <path d="M7.64,118.089L7.024,116.405C6.994,116.331 6.963,116.242 6.93,116.139C6.897,116.037 6.864,115.926 6.832,115.807C6.802,115.926 6.77,116.038 6.737,116.143C6.705,116.246 6.673,116.335 6.643,116.412L6.03,118.089L7.64,118.089ZM9.303,120L8.575,120C8.493,120 8.427,119.98 8.375,119.94C8.324,119.898 8.286,119.847 8.26,119.786L7.882,118.754L5.785,118.754L5.407,119.786C5.389,119.84 5.353,119.889 5.299,119.933C5.245,119.978 5.179,120 5.099,120L4.364,120L6.356,114.939L7.315,114.939L9.303,120ZM11.472,117.483C11.644,117.483 11.795,117.462 11.923,117.42C12.052,117.376 12.158,117.314 12.242,117.235C12.328,117.153 12.392,117.055 12.434,116.941C12.476,116.824 12.497,116.695 12.497,116.552C12.497,116.417 12.476,116.295 12.434,116.185C12.392,116.075 12.329,115.982 12.245,115.905C12.161,115.828 12.055,115.77 11.927,115.73C11.798,115.688 11.647,115.667 11.472,115.667L10.768,115.667L10.768,117.483L11.472,117.483ZM11.472,114.939C11.81,114.939 12.103,114.979 12.35,115.058C12.598,115.137 12.802,115.248 12.963,115.39C13.124,115.533 13.243,115.703 13.32,115.901C13.399,116.1 13.439,116.317 13.439,116.552C13.439,116.797 13.398,117.023 13.316,117.228C13.235,117.431 13.112,117.606 12.949,117.753C12.785,117.9 12.58,118.014 12.333,118.096C12.088,118.178 11.801,118.218 11.472,118.218L10.768,118.218L10.768,120L9.827,120L9.827,114.939L11.472,114.939Z" style="fill:rgb(139,191,64);fill-rule:nonzero;"/>
    <path d="M21.922,116.862C21.59,116.154 21.228,116 21,116L21,115C21.772,115 22.41,115.546 22.828,116.438C22.889,116.568 22.946,116.707 23,116.857C23.054,116.707 23.111,116.568 23.172,116.438C23.59,115.546 24.228,115 25,115C25.337,115 25.686,115.086 26.012,115.303C26.334,115.518 26.605,115.842 26.822,116.276C26.905,116.442 26.981,116.626 27.05,116.83C27.194,116.428 27.379,116.048 27.617,115.74C27.942,115.321 28.4,115 29,115C29.601,115 30.058,115.321 30.383,115.74C30.65,116.085 30.849,116.52 31,116.976C31.151,116.52 31.35,116.085 31.617,115.74C31.942,115.321 32.4,115 33,115L33,116C32.801,116 32.608,116.095 32.408,116.353C32.201,116.62 32.022,117.02 31.881,117.513C31.598,118.495 31.5,119.694 31.5,120.5C31.5,120.776 31.276,121 31,121C30.724,121 30.5,120.776 30.5,120.5C30.5,119.694 30.402,118.495 30.119,117.513C29.978,117.02 29.799,116.62 29.592,116.353C29.392,116.095 29.2,116 29,116C28.801,116 28.608,116.095 28.408,116.353C28.201,116.62 28.022,117.02 27.881,117.513C27.598,118.495 27.5,119.694 27.5,120.5C27.5,120.776 27.276,121 27,121C26.724,121 26.5,120.776 26.5,120.5C26.5,118.526 26.251,117.369 25.928,116.724C25.77,116.408 25.604,116.232 25.457,116.135C25.314,116.039 25.163,116 25,116C24.772,116 24.41,116.154 24.078,116.862C23.747,117.569 23.5,118.736 23.5,120.5C23.5,120.776 23.276,121 23,121C22.724,121 22.5,120.776 22.5,120.5C22.5,118.736 22.253,117.569 21.922,116.862Z" style="fill:rgb(139,191,64);"/>
    <path d="M39.922,119.138C39.59,119.846 39.228,120 39,120L39,121C39.772,121 40.41,120.454 40.828,119.562C40.889,119.432 40.946,119.293 41,119.143C41.054,119.293 41.111,119.432 41.172,119.562C41.59,120.454 42.228,121 43,121C43.338,121 43.686,120.914 44.012,120.697C44.334,120.482 44.605,120.158 44.822,119.724C44.905,119.558 44.981,119.374 45.05,119.17C45.194,119.572 45.379,119.952 45.617,120.26C45.942,120.679 46.4,121 47,121C47.6,121 48.058,120.679 48.383,120.26C48.65,119.915 48.849,119.48 49,119.024C49.151,119.48 49.35,119.915 49.617,120.26C49.942,120.679 50.4,121 51,121L51,120C50.801,120 50.608,119.905 50.408,119.647C50.201,119.38 50.022,118.98 49.881,118.487C49.598,117.505 49.5,116.306 49.5,115.5C49.5,115.224 49.276,115 49,115C48.724,115 48.5,115.224 48.5,115.5C48.5,116.306 48.402,117.505 48.12,118.487C47.978,118.98 47.799,119.38 47.592,119.647C47.392,119.905 47.2,120 47,120C46.801,120 46.608,119.905 46.408,119.647C46.201,119.38 46.022,118.98 45.881,118.487C45.598,117.505 45.5,116.306 45.5,115.5C45.5,115.224 45.276,115 45,115C44.724,115 44.5,115.224 44.5,115.5C44.5,117.474 44.251,118.631 43.928,119.276C43.77,119.592 43.603,119.768 43.457,119.865C43.314,119.961 43.163,120 43,120C42.772,120 42.41,119.846 42.078,119.138C41.747,118.431 41.5,117.264 41.5,115.5C41.5,115.224 41.276,115 41,115C40.724,115 40.5,115.224 40.5,115.5C40.5,117.264 40.253,118.431 39.922,119.138Z" style="fill:rgb(139,191,64);"/>
    <path d="M59.108,115.859C59.08,115.908 59.05,115.945 59.017,115.968C58.987,115.989 58.948,115.999 58.902,115.999C58.853,115.999 58.799,115.982 58.741,115.947C58.685,115.91 58.617,115.869 58.538,115.824C58.458,115.78 58.365,115.74 58.258,115.705C58.153,115.668 58.028,115.649 57.883,115.649C57.752,115.649 57.638,115.666 57.54,115.698C57.442,115.729 57.359,115.772 57.292,115.828C57.226,115.884 57.177,115.952 57.145,116.031C57.112,116.108 57.096,116.193 57.096,116.286C57.096,116.405 57.128,116.505 57.194,116.584C57.261,116.663 57.35,116.731 57.46,116.787C57.569,116.843 57.694,116.893 57.834,116.937C57.974,116.982 58.118,117.03 58.265,117.081C58.412,117.13 58.555,117.188 58.695,117.256C58.835,117.321 58.96,117.405 59.07,117.508C59.179,117.608 59.267,117.732 59.332,117.879C59.4,118.026 59.434,118.204 59.434,118.414C59.434,118.643 59.394,118.858 59.315,119.058C59.238,119.257 59.123,119.431 58.972,119.58C58.822,119.727 58.639,119.844 58.422,119.93C58.205,120.014 57.957,120.056 57.677,120.056C57.516,120.056 57.357,120.04 57.201,120.007C57.044,119.977 56.894,119.932 56.749,119.874C56.607,119.816 56.473,119.746 56.347,119.664C56.221,119.582 56.109,119.491 56.011,119.391L56.287,118.939C56.31,118.907 56.341,118.88 56.378,118.859C56.415,118.836 56.455,118.824 56.497,118.824C56.555,118.824 56.618,118.848 56.686,118.897C56.754,118.944 56.834,118.997 56.928,119.055C57.021,119.113 57.129,119.167 57.253,119.216C57.379,119.263 57.53,119.286 57.705,119.286C57.973,119.286 58.181,119.223 58.328,119.097C58.475,118.969 58.548,118.785 58.548,118.547C58.548,118.414 58.514,118.306 58.447,118.222C58.381,118.138 58.294,118.068 58.184,118.012C58.074,117.954 57.95,117.905 57.81,117.865C57.67,117.825 57.527,117.782 57.383,117.735C57.238,117.689 57.096,117.633 56.956,117.567C56.816,117.502 56.691,117.417 56.581,117.312C56.471,117.207 56.383,117.076 56.315,116.92C56.25,116.761 56.217,116.566 56.217,116.335C56.217,116.151 56.253,115.971 56.326,115.796C56.4,115.621 56.508,115.466 56.648,115.331C56.788,115.196 56.96,115.087 57.166,115.005C57.371,114.924 57.607,114.883 57.873,114.883C58.171,114.883 58.447,114.93 58.699,115.023C58.951,115.116 59.165,115.247 59.343,115.415L59.108,115.859ZM61.364,117.634C61.178,117.755 61.041,117.893 60.955,118.047C60.871,118.199 60.829,118.362 60.829,118.537C60.829,118.665 60.851,118.781 60.895,118.883C60.94,118.986 60.999,119.074 61.074,119.146C61.151,119.216 61.24,119.271 61.34,119.31C61.443,119.348 61.551,119.366 61.665,119.366C61.871,119.366 62.059,119.335 62.229,119.272C62.399,119.207 62.553,119.117 62.691,119.002L61.364,117.634ZM64.735,120L63.888,120C63.799,120 63.727,119.989 63.671,119.968C63.617,119.947 63.56,119.903 63.499,119.835L63.149,119.475C62.928,119.657 62.679,119.799 62.404,119.902C62.129,120.005 61.831,120.056 61.511,120.056C61.318,120.056 61.126,120.023 60.937,119.958C60.751,119.89 60.584,119.793 60.437,119.667C60.29,119.541 60.171,119.39 60.08,119.212C59.991,119.033 59.947,118.831 59.947,118.607C59.947,118.448 59.973,118.299 60.024,118.159C60.075,118.017 60.146,117.885 60.237,117.763C60.328,117.642 60.437,117.534 60.563,117.438C60.689,117.34 60.827,117.256 60.976,117.186C60.85,117.011 60.759,116.841 60.703,116.675C60.647,116.507 60.619,116.34 60.619,116.174C60.619,115.999 60.65,115.834 60.713,115.677C60.779,115.519 60.872,115.381 60.993,115.264C61.115,115.148 61.264,115.056 61.441,114.988C61.619,114.918 61.819,114.883 62.043,114.883C62.249,114.883 62.432,114.914 62.593,114.977C62.756,115.04 62.895,115.124 63.009,115.229C63.126,115.334 63.217,115.455 63.282,115.59C63.35,115.725 63.39,115.865 63.401,116.01L62.852,116.126C62.749,116.146 62.675,116.102 62.628,115.992C62.607,115.932 62.579,115.875 62.544,115.821C62.511,115.765 62.472,115.717 62.425,115.677C62.378,115.635 62.323,115.603 62.26,115.579C62.197,115.554 62.125,115.541 62.043,115.541C61.945,115.541 61.858,115.558 61.781,115.593C61.704,115.626 61.639,115.672 61.585,115.73C61.534,115.786 61.494,115.852 61.466,115.929C61.438,116.004 61.424,116.083 61.424,116.167C61.424,116.237 61.431,116.305 61.445,116.37C61.459,116.436 61.482,116.501 61.515,116.566C61.548,116.632 61.59,116.699 61.641,116.769C61.695,116.837 61.76,116.911 61.837,116.99L63.181,118.386C63.258,118.239 63.32,118.084 63.366,117.921C63.413,117.758 63.443,117.592 63.457,117.424C63.464,117.37 63.483,117.327 63.513,117.294C63.544,117.262 63.586,117.245 63.639,117.245L64.178,117.245C64.176,117.553 64.132,117.847 64.045,118.127C63.959,118.407 63.835,118.665 63.674,118.901L64.735,120ZM69.587,114.939L69.587,120L68.642,120L68.642,117.788L66.265,117.788L66.265,120L65.32,120L65.32,114.939L66.265,114.939L66.265,117.116L68.642,117.116L68.642,114.939L69.587,114.939Z" style="fill:rgb(139,191,64);fill-rule:nonzero;"/>
</svg>
