<?xml version="1.0" encoding="UTF-8" standalone="no"?>
<!DOCTYPE svg PUBLIC "-//W3C//DTD SVG 1.1//EN" "http://www.w3.org/Graphics/SVG/1.1/DTD/svg11.dtd">
<svg width="100%" height="100%" viewBox="0 0 135 36" version="1.1" xmlns="http://www.w3.org/2000/svg" xmlns:xlink="http://www.w3.org/1999/xlink" xml:space="preserve" xmlns:serif="http://www.serif.com/" style="fill-rule:evenodd;clip-rule:evenodd;">
    <path d="M44.5,3.5C44.5,2.948 44.052,2.5 43.5,2.5L3.5,2.5C2.948,2.5 2.5,2.948 2.5,3.5L2.5,8.5C2.5,9.052 2.948,9.5 3.5,9.5L43.5,9.5C44.052,9.5 44.5,9.052 44.5,8.5L44.5,3.5Z" style="fill:rgb(139,191,64);fill-opacity:0.5;"/>
    <path d="M44.5,3.5C44.5,2.948 44.052,2.5 43.5,2.5L3.5,2.5C2.948,2.5 2.5,2.948 2.5,3.5L2.5,8.5C2.5,9.052 2.948,9.5 3.5,9.5L43.5,9.5C44.052,9.5 44.5,9.052 44.5,8.5L44.5,3.5Z" style="fill:none;stroke:rgb(139,191,64);stroke-width:1px;"/>
    <path d="M21.188,3.172L19.388,9L18.164,9L17.068,5.388C17.047,5.332 17.027,5.271 17.008,5.204C16.989,5.135 16.971,5.063 16.952,4.988C16.933,5.063 16.915,5.135 16.896,5.204C16.877,5.271 16.857,5.332 16.836,5.388L15.724,9L14.5,9L12.7,3.172L13.836,3.172C13.953,3.172 14.051,3.199 14.128,3.252C14.208,3.305 14.26,3.376 14.284,3.464L15.084,6.504C15.108,6.6 15.132,6.705 15.156,6.82C15.18,6.932 15.204,7.049 15.228,7.172C15.276,6.921 15.335,6.699 15.404,6.504L16.348,3.464C16.372,3.389 16.423,3.323 16.5,3.264C16.58,3.203 16.676,3.172 16.788,3.172L17.188,3.172C17.305,3.172 17.4,3.2 17.472,3.256C17.544,3.309 17.599,3.379 17.636,3.464L18.572,6.504C18.641,6.691 18.7,6.903 18.748,7.14C18.769,7.02 18.791,6.908 18.812,6.804C18.836,6.697 18.86,6.597 18.884,6.504L19.684,3.464C19.705,3.387 19.756,3.319 19.836,3.26C19.916,3.201 20.012,3.172 20.124,3.172L21.188,3.172ZM23.116,7.312C22.868,7.323 22.664,7.344 22.504,7.376C22.344,7.408 22.217,7.448 22.124,7.496C22.031,7.544 21.965,7.599 21.928,7.66C21.893,7.721 21.876,7.788 21.876,7.86C21.876,8.001 21.915,8.101 21.992,8.16C22.069,8.216 22.183,8.244 22.332,8.244C22.492,8.244 22.632,8.216 22.752,8.16C22.872,8.104 22.993,8.013 23.116,7.888L23.116,7.312ZM20.884,5.428C21.135,5.207 21.412,5.043 21.716,4.936C22.023,4.827 22.351,4.772 22.7,4.772C22.951,4.772 23.176,4.813 23.376,4.896C23.579,4.976 23.749,5.089 23.888,5.236C24.029,5.38 24.137,5.552 24.212,5.752C24.287,5.952 24.324,6.171 24.324,6.408L24.324,9L23.756,9C23.639,9 23.549,8.984 23.488,8.952C23.429,8.92 23.38,8.853 23.34,8.752L23.252,8.524C23.148,8.612 23.048,8.689 22.952,8.756C22.856,8.823 22.756,8.88 22.652,8.928C22.551,8.973 22.441,9.007 22.324,9.028C22.209,9.052 22.081,9.064 21.94,9.064C21.751,9.064 21.579,9.04 21.424,8.992C21.269,8.941 21.137,8.868 21.028,8.772C20.921,8.676 20.839,8.557 20.78,8.416C20.721,8.272 20.692,8.107 20.692,7.92C20.692,7.771 20.729,7.62 20.804,7.468C20.879,7.313 21.008,7.173 21.192,7.048C21.376,6.92 21.624,6.813 21.936,6.728C22.248,6.643 22.641,6.595 23.116,6.584L23.116,6.408C23.116,6.165 23.065,5.991 22.964,5.884C22.865,5.775 22.724,5.72 22.54,5.72C22.393,5.72 22.273,5.736 22.18,5.768C22.087,5.8 22.003,5.836 21.928,5.876C21.856,5.916 21.785,5.952 21.716,5.984C21.647,6.016 21.564,6.032 21.468,6.032C21.383,6.032 21.311,6.011 21.252,5.968C21.193,5.925 21.145,5.875 21.108,5.816L20.884,5.428ZM26.157,5.492C26.285,5.268 26.431,5.092 26.597,4.964C26.765,4.836 26.957,4.772 27.173,4.772C27.359,4.772 27.511,4.816 27.629,4.904L27.549,5.816C27.535,5.875 27.513,5.915 27.481,5.936C27.451,5.957 27.41,5.968 27.357,5.968C27.335,5.968 27.307,5.967 27.273,5.964C27.238,5.961 27.202,5.959 27.165,5.956C27.127,5.951 27.089,5.947 27.049,5.944C27.011,5.939 26.977,5.936 26.945,5.936C26.763,5.936 26.618,5.984 26.509,6.08C26.402,6.176 26.311,6.309 26.237,6.48L26.237,9L24.997,9L24.997,4.852L25.733,4.852C25.794,4.852 25.845,4.857 25.885,4.868C25.927,4.879 25.962,4.896 25.989,4.92C26.018,4.941 26.039,4.971 26.053,5.008C26.069,5.045 26.082,5.091 26.093,5.144L26.157,5.492ZM27.931,9L27.931,4.852L28.699,4.852C28.854,4.852 28.955,4.921 29.003,5.06L29.071,5.284C29.141,5.212 29.213,5.147 29.287,5.088C29.362,5.027 29.442,4.975 29.527,4.932C29.615,4.887 29.709,4.852 29.807,4.828C29.909,4.801 30.019,4.788 30.139,4.788C30.39,4.788 30.597,4.853 30.759,4.984C30.925,5.112 31.05,5.284 31.135,5.5C31.205,5.372 31.289,5.263 31.387,5.172C31.489,5.081 31.597,5.008 31.711,4.952C31.829,4.896 31.951,4.855 32.079,4.828C32.21,4.801 32.339,4.788 32.467,4.788C32.705,4.788 32.915,4.824 33.099,4.896C33.283,4.965 33.437,5.068 33.559,5.204C33.685,5.337 33.779,5.503 33.843,5.7C33.907,5.895 33.939,6.116 33.939,6.364L33.939,9L32.699,9L32.699,6.364C32.699,5.935 32.515,5.72 32.147,5.72C31.979,5.72 31.839,5.776 31.727,5.888C31.618,5.997 31.563,6.156 31.563,6.364L31.563,9L30.323,9L30.323,6.364C30.323,6.127 30.277,5.96 30.183,5.864C30.09,5.768 29.953,5.72 29.771,5.72C29.659,5.72 29.553,5.745 29.451,5.796C29.353,5.847 29.259,5.915 29.171,6L29.171,9L27.931,9Z" style="fill:white;fill-rule:nonzero;"/>
    <path d="M87.5,15.5C87.5,14.948 87.052,14.5 86.5,14.5L48.5,14.5C47.948,14.5 47.5,14.948 47.5,15.5L47.5,20.5C47.5,21.052 47.948,21.5 48.5,21.5L86.5,21.5C87.052,21.5 87.5,21.052 87.5,20.5L87.5,15.5Z" style="fill:rgb(139,191,64);fill-opacity:0.5;"/>
    <path d="M87.5,15.5C87.5,14.948 87.052,14.5 86.5,14.5L48.5,14.5C47.948,14.5 47.5,14.948 47.5,15.5L47.5,20.5C47.5,21.052 47.948,21.5 48.5,21.5L86.5,21.5C87.052,21.5 87.5,21.052 87.5,20.5L87.5,15.5Z" style="fill:none;stroke:rgb(139,191,64);stroke-width:1px;"/>
    <path d="M59.875,15.172L59.875,21L59.171,21C59.067,21 58.979,20.984 58.907,20.952C58.838,20.917 58.769,20.859 58.699,20.776L55.951,17.3C55.962,17.404 55.969,17.505 55.971,17.604C55.977,17.7 55.979,17.791 55.979,17.876L55.979,21L54.787,21L54.787,15.172L55.499,15.172C55.558,15.172 55.607,15.175 55.647,15.18C55.687,15.185 55.723,15.196 55.755,15.212C55.787,15.225 55.818,15.245 55.847,15.272C55.877,15.299 55.91,15.335 55.947,15.38L58.719,18.88C58.706,18.768 58.697,18.66 58.691,18.556C58.686,18.449 58.683,18.349 58.683,18.256L58.683,15.172L59.875,15.172ZM63.197,18.428C63.197,18.329 63.184,18.233 63.157,18.14C63.133,18.047 63.092,17.964 63.033,17.892C62.977,17.817 62.902,17.757 62.809,17.712C62.716,17.667 62.602,17.644 62.469,17.644C62.234,17.644 62.05,17.712 61.917,17.848C61.784,17.981 61.696,18.175 61.653,18.428L63.197,18.428ZM61.637,19.148C61.677,19.495 61.782,19.747 61.953,19.904C62.124,20.059 62.344,20.136 62.613,20.136C62.757,20.136 62.881,20.119 62.985,20.084C63.089,20.049 63.181,20.011 63.261,19.968C63.344,19.925 63.418,19.887 63.485,19.852C63.554,19.817 63.626,19.8 63.701,19.8C63.8,19.8 63.874,19.836 63.925,19.908L64.285,20.352C64.157,20.499 64.018,20.619 63.869,20.712C63.722,20.803 63.57,20.875 63.413,20.928C63.258,20.979 63.102,21.013 62.945,21.032C62.79,21.053 62.642,21.064 62.501,21.064C62.21,21.064 61.937,21.017 61.681,20.924C61.428,20.828 61.205,20.687 61.013,20.5C60.824,20.313 60.673,20.081 60.561,19.804C60.452,19.527 60.397,19.204 60.397,18.836C60.397,18.559 60.444,18.296 60.537,18.048C60.633,17.8 60.769,17.583 60.945,17.396C61.124,17.209 61.338,17.061 61.589,16.952C61.842,16.843 62.128,16.788 62.445,16.788C62.72,16.788 62.97,16.831 63.197,16.916C63.426,17.001 63.622,17.125 63.785,17.288C63.95,17.451 64.078,17.651 64.169,17.888C64.262,18.123 64.309,18.389 64.309,18.688C64.309,18.781 64.305,18.857 64.297,18.916C64.289,18.975 64.274,19.021 64.253,19.056C64.232,19.091 64.202,19.115 64.165,19.128C64.13,19.141 64.085,19.148 64.029,19.148L61.637,19.148ZM68.53,16.852L68.53,21L67.762,21C67.607,21 67.506,20.931 67.458,20.792L67.385,20.552C67.306,20.629 67.223,20.7 67.138,20.764C67.052,20.825 66.96,20.879 66.862,20.924C66.766,20.967 66.66,21 66.546,21.024C66.434,21.051 66.311,21.064 66.178,21.064C65.951,21.064 65.75,21.025 65.574,20.948C65.4,20.868 65.254,20.757 65.134,20.616C65.013,20.475 64.923,20.308 64.862,20.116C64.8,19.924 64.769,19.713 64.769,19.484L64.769,16.852L66.01,16.852L66.01,19.484C66.01,19.689 66.056,19.848 66.15,19.96C66.243,20.072 66.38,20.128 66.562,20.128C66.698,20.128 66.824,20.1 66.942,20.044C67.062,19.985 67.178,19.907 67.29,19.808L67.29,16.852L68.53,16.852ZM70.736,21.064C70.539,21.064 70.364,21.036 70.212,20.98C70.063,20.921 69.936,20.84 69.832,20.736C69.731,20.629 69.653,20.501 69.6,20.352C69.547,20.203 69.52,20.036 69.52,19.852L69.52,17.708L69.168,17.708C69.104,17.708 69.049,17.688 69.004,17.648C68.959,17.605 68.936,17.544 68.936,17.464L68.936,16.98L69.596,16.852L69.84,15.84C69.872,15.712 69.963,15.648 70.112,15.648L70.76,15.648L70.76,16.86L71.788,16.86L71.788,17.708L70.76,17.708L70.76,19.768C70.76,19.864 70.783,19.944 70.828,20.008C70.876,20.069 70.944,20.1 71.032,20.1C71.077,20.1 71.115,20.096 71.144,20.088C71.176,20.077 71.203,20.067 71.224,20.056C71.248,20.043 71.269,20.032 71.288,20.024C71.309,20.013 71.333,20.008 71.36,20.008C71.397,20.008 71.427,20.017 71.448,20.036C71.472,20.052 71.496,20.079 71.52,20.116L71.896,20.704C71.736,20.824 71.556,20.915 71.356,20.976C71.156,21.035 70.949,21.064 70.736,21.064ZM73.362,17.492C73.49,17.268 73.637,17.092 73.802,16.964C73.97,16.836 74.162,16.772 74.378,16.772C74.565,16.772 74.717,16.816 74.834,16.904L74.754,17.816C74.741,17.875 74.718,17.915 74.686,17.936C74.657,17.957 74.616,17.968 74.562,17.968C74.541,17.968 74.513,17.967 74.478,17.964C74.444,17.961 74.408,17.959 74.37,17.956C74.333,17.951 74.294,17.947 74.254,17.944C74.217,17.939 74.182,17.936 74.15,17.936C73.969,17.936 73.824,17.984 73.714,18.08C73.608,18.176 73.517,18.309 73.442,18.48L73.442,21L72.202,21L72.202,16.852L72.938,16.852C73,16.852 73.05,16.857 73.09,16.868C73.133,16.879 73.168,16.896 73.194,16.92C73.224,16.941 73.245,16.971 73.258,17.008C73.274,17.045 73.288,17.091 73.298,17.144L73.362,17.492ZM77.238,19.312C76.99,19.323 76.786,19.344 76.626,19.376C76.466,19.408 76.339,19.448 76.246,19.496C76.153,19.544 76.087,19.599 76.05,19.66C76.015,19.721 75.998,19.788 75.998,19.86C75.998,20.001 76.037,20.101 76.114,20.16C76.191,20.216 76.305,20.244 76.454,20.244C76.614,20.244 76.754,20.216 76.874,20.16C76.994,20.104 77.115,20.013 77.238,19.888L77.238,19.312ZM75.006,17.428C75.257,17.207 75.534,17.043 75.838,16.936C76.145,16.827 76.473,16.772 76.822,16.772C77.073,16.772 77.298,16.813 77.498,16.896C77.701,16.976 77.871,17.089 78.01,17.236C78.151,17.38 78.259,17.552 78.334,17.752C78.409,17.952 78.446,18.171 78.446,18.408L78.446,21L77.878,21C77.761,21 77.671,20.984 77.61,20.952C77.551,20.92 77.502,20.853 77.462,20.752L77.374,20.524C77.27,20.612 77.17,20.689 77.074,20.756C76.978,20.823 76.878,20.88 76.774,20.928C76.673,20.973 76.563,21.007 76.446,21.028C76.331,21.052 76.203,21.064 76.062,21.064C75.873,21.064 75.701,21.04 75.546,20.992C75.391,20.941 75.259,20.868 75.15,20.772C75.043,20.676 74.961,20.557 74.902,20.416C74.843,20.272 74.814,20.107 74.814,19.92C74.814,19.771 74.851,19.62 74.926,19.468C75.001,19.313 75.13,19.173 75.314,19.048C75.498,18.92 75.746,18.813 76.058,18.728C76.37,18.643 76.763,18.595 77.238,18.584L77.238,18.408C77.238,18.165 77.187,17.991 77.086,17.884C76.987,17.775 76.846,17.72 76.662,17.72C76.515,17.72 76.395,17.736 76.302,17.768C76.209,17.8 76.125,17.836 76.05,17.876C75.978,17.916 75.907,17.952 75.838,17.984C75.769,18.016 75.686,18.032 75.59,18.032C75.505,18.032 75.433,18.011 75.374,17.968C75.315,17.925 75.267,17.875 75.23,17.816L75.006,17.428ZM80.359,15.012L80.359,21L79.119,21L79.119,15.012L80.359,15.012Z" style="fill:white;fill-rule:nonzero;"/>
    <path d="M132.5,27.5C132.5,26.948 132.052,26.5 131.5,26.5L91.5,26.5C90.948,26.5 90.5,26.948 90.5,27.5L90.5,32.5C90.5,33.052 90.948,33.5 91.5,33.5L131.5,33.5C132.052,33.5 132.5,33.052 132.5,32.5L132.5,27.5Z" style="fill:rgb(139,191,64);fill-opacity:0.5;"/>
    <path d="M132.5,27.5C132.5,26.948 132.052,26.5 131.5,26.5L91.5,26.5C90.948,26.5 90.5,26.948 90.5,27.5L90.5,32.5C90.5,33.052 90.948,33.5 91.5,33.5L131.5,33.5C132.052,33.5 132.5,33.052 132.5,32.5L132.5,27.5Z" style="fill:none;stroke:rgb(139,191,64);stroke-width:1px;"/>
    <path d="M103.5,31.98C103.679,31.98 103.824,31.957 103.936,31.912C104.051,31.867 104.14,31.808 104.204,31.736C104.268,31.664 104.312,31.583 104.336,31.492C104.36,31.401 104.372,31.309 104.372,31.216C104.372,31.109 104.357,31.013 104.328,30.928C104.301,30.843 104.253,30.771 104.184,30.712C104.117,30.653 104.028,30.608 103.916,30.576C103.804,30.544 103.663,30.528 103.492,30.528L102.548,30.528L102.548,31.98L103.5,31.98ZM102.548,28.184L102.548,29.624L103.252,29.624C103.401,29.624 103.536,29.613 103.656,29.592C103.776,29.571 103.877,29.533 103.96,29.48C104.045,29.427 104.109,29.353 104.152,29.26C104.197,29.167 104.22,29.049 104.22,28.908C104.22,28.769 104.203,28.655 104.168,28.564C104.133,28.471 104.08,28.396 104.008,28.34C103.936,28.284 103.844,28.244 103.732,28.22C103.623,28.196 103.492,28.184 103.34,28.184L102.548,28.184ZM103.34,27.172C103.743,27.172 104.085,27.209 104.368,27.284C104.651,27.359 104.881,27.464 105.06,27.6C105.239,27.736 105.368,27.901 105.448,28.096C105.531,28.291 105.572,28.508 105.572,28.748C105.572,28.879 105.553,29.005 105.516,29.128C105.479,29.248 105.42,29.361 105.34,29.468C105.26,29.572 105.157,29.668 105.032,29.756C104.907,29.844 104.756,29.92 104.58,29.984C104.964,30.077 105.248,30.228 105.432,30.436C105.616,30.644 105.708,30.913 105.708,31.244C105.708,31.492 105.66,31.723 105.564,31.936C105.468,32.149 105.327,32.336 105.14,32.496C104.956,32.653 104.728,32.777 104.456,32.868C104.184,32.956 103.873,33 103.524,33L101.196,33L101.196,27.172L103.34,27.172ZM107.381,29.492C107.509,29.268 107.656,29.092 107.821,28.964C107.989,28.836 108.181,28.772 108.397,28.772C108.584,28.772 108.736,28.816 108.853,28.904L108.773,29.816C108.76,29.875 108.737,29.915 108.705,29.936C108.676,29.957 108.634,29.968 108.581,29.968C108.56,29.968 108.532,29.967 108.497,29.964C108.462,29.961 108.426,29.959 108.389,29.956C108.352,29.951 108.313,29.947 108.273,29.944C108.236,29.939 108.201,29.936 108.169,29.936C107.988,29.936 107.842,29.984 107.733,30.08C107.626,30.176 107.536,30.309 107.461,30.48L107.461,33L106.221,33L106.221,28.852L106.957,28.852C107.018,28.852 107.069,28.857 107.109,28.868C107.152,28.879 107.186,28.896 107.213,28.92C107.242,28.941 107.264,28.971 107.277,29.008C107.293,29.045 107.306,29.091 107.317,29.144L107.381,29.492ZM110.424,28.852L110.424,33L109.184,33L109.184,28.852L110.424,28.852ZM110.552,27.716C110.552,27.815 110.532,27.908 110.492,27.996C110.452,28.081 110.397,28.157 110.328,28.224C110.258,28.288 110.177,28.34 110.084,28.38C109.993,28.417 109.896,28.436 109.792,28.436C109.69,28.436 109.596,28.417 109.508,28.38C109.42,28.34 109.341,28.288 109.272,28.224C109.205,28.157 109.152,28.081 109.112,27.996C109.074,27.908 109.056,27.815 109.056,27.716C109.056,27.615 109.074,27.52 109.112,27.432C109.152,27.344 109.205,27.267 109.272,27.2C109.341,27.133 109.42,27.081 109.508,27.044C109.596,27.007 109.69,26.988 109.792,26.988C109.896,26.988 109.993,27.007 110.084,27.044C110.177,27.081 110.258,27.133 110.328,27.2C110.397,27.267 110.452,27.344 110.492,27.432C110.532,27.52 110.552,27.615 110.552,27.716ZM112.749,30.708C112.954,30.708 113.102,30.657 113.193,30.556C113.286,30.452 113.333,30.319 113.333,30.156C113.333,29.988 113.286,29.856 113.193,29.76C113.102,29.664 112.954,29.616 112.749,29.616C112.543,29.616 112.394,29.664 112.301,29.76C112.21,29.856 112.165,29.988 112.165,30.156C112.165,30.236 112.175,30.309 112.197,30.376C112.221,30.443 112.257,30.501 112.305,30.552C112.353,30.6 112.413,30.639 112.485,30.668C112.559,30.695 112.647,30.708 112.749,30.708ZM113.709,33.152C113.709,33.053 113.665,32.983 113.577,32.94C113.489,32.895 113.374,32.863 113.233,32.844C113.091,32.825 112.933,32.815 112.757,32.812C112.583,32.807 112.41,32.796 112.237,32.78C112.159,32.833 112.095,32.893 112.045,32.96C111.997,33.024 111.973,33.097 111.973,33.18C111.973,33.239 111.985,33.292 112.009,33.34C112.035,33.388 112.081,33.429 112.145,33.464C112.209,33.499 112.294,33.525 112.401,33.544C112.51,33.565 112.647,33.576 112.813,33.576C112.991,33.576 113.138,33.565 113.253,33.544C113.367,33.523 113.458,33.493 113.525,33.456C113.594,33.419 113.642,33.373 113.669,33.32C113.695,33.269 113.709,33.213 113.709,33.152ZM114.933,28.98L114.933,29.432C114.933,29.501 114.913,29.556 114.873,29.596C114.835,29.636 114.77,29.667 114.677,29.688L114.377,29.756C114.393,29.815 114.405,29.875 114.413,29.936C114.423,29.997 114.429,30.061 114.429,30.128C114.429,30.336 114.385,30.523 114.297,30.688C114.211,30.853 114.093,30.995 113.941,31.112C113.791,31.227 113.614,31.316 113.409,31.38C113.203,31.441 112.983,31.472 112.749,31.472C112.685,31.472 112.622,31.471 112.561,31.468C112.499,31.463 112.439,31.455 112.381,31.444C112.29,31.5 112.245,31.563 112.245,31.632C112.245,31.701 112.282,31.752 112.357,31.784C112.431,31.813 112.53,31.835 112.653,31.848C112.775,31.859 112.914,31.867 113.069,31.872C113.226,31.875 113.386,31.884 113.549,31.9C113.711,31.913 113.87,31.937 114.025,31.972C114.182,32.007 114.322,32.063 114.445,32.14C114.567,32.217 114.666,32.321 114.741,32.452C114.815,32.58 114.853,32.744 114.853,32.944C114.853,33.131 114.807,33.313 114.717,33.492C114.626,33.671 114.493,33.829 114.317,33.968C114.141,34.107 113.925,34.217 113.669,34.3C113.413,34.385 113.119,34.428 112.789,34.428C112.463,34.428 112.182,34.397 111.945,34.336C111.71,34.275 111.514,34.193 111.357,34.092C111.202,33.993 111.087,33.879 111.013,33.748C110.938,33.617 110.901,33.481 110.901,33.34C110.901,33.156 110.954,33.003 111.061,32.88C111.167,32.757 111.317,32.659 111.509,32.584C111.407,32.523 111.327,32.444 111.269,32.348C111.21,32.252 111.181,32.128 111.181,31.976C111.181,31.915 111.191,31.851 111.213,31.784C111.234,31.715 111.267,31.648 111.313,31.584C111.361,31.517 111.419,31.455 111.489,31.396C111.558,31.337 111.641,31.285 111.737,31.24C111.521,31.125 111.35,30.975 111.225,30.788C111.099,30.599 111.037,30.379 111.037,30.128C111.037,29.92 111.081,29.733 111.169,29.568C111.257,29.4 111.377,29.259 111.529,29.144C111.683,29.027 111.865,28.937 112.073,28.876C112.281,28.812 112.506,28.78 112.749,28.78C113.101,28.78 113.413,28.847 113.685,28.98L114.933,28.98ZM116.57,29.216C116.719,29.088 116.881,28.985 117.054,28.908C117.23,28.828 117.439,28.788 117.682,28.788C117.909,28.788 118.109,28.828 118.282,28.908C118.458,28.985 118.606,29.095 118.726,29.236C118.846,29.375 118.937,29.541 118.998,29.736C119.059,29.928 119.09,30.137 119.09,30.364L119.09,33L117.85,33L117.85,30.364C117.85,30.161 117.803,30.004 117.71,29.892C117.617,29.777 117.479,29.72 117.298,29.72C117.162,29.72 117.034,29.749 116.914,29.808C116.797,29.864 116.682,29.941 116.57,30.04L116.57,33L115.33,33L115.33,27.012L116.57,27.012L116.57,29.216ZM121.202,33.064C121.004,33.064 120.83,33.036 120.678,32.98C120.528,32.921 120.402,32.84 120.298,32.736C120.196,32.629 120.119,32.501 120.066,32.352C120.012,32.203 119.986,32.036 119.986,31.852L119.986,29.708L119.634,29.708C119.57,29.708 119.515,29.688 119.47,29.648C119.424,29.605 119.402,29.544 119.402,29.464L119.402,28.98L120.062,28.852L120.306,27.84C120.338,27.712 120.428,27.648 120.578,27.648L121.226,27.648L121.226,28.86L122.254,28.86L122.254,29.708L121.226,29.708L121.226,31.768C121.226,31.864 121.248,31.944 121.294,32.008C121.342,32.069 121.41,32.1 121.498,32.1C121.543,32.1 121.58,32.096 121.61,32.088C121.642,32.077 121.668,32.067 121.69,32.056C121.714,32.043 121.735,32.032 121.754,32.024C121.775,32.013 121.799,32.008 121.826,32.008C121.863,32.008 121.892,32.017 121.914,32.036C121.938,32.052 121.962,32.079 121.986,32.116L122.362,32.704C122.202,32.824 122.022,32.915 121.822,32.976C121.622,33.035 121.415,33.064 121.202,33.064Z" style="fill:white;fill-rule:nonzero;"/>
</svg>
