<?xml version="1.0" encoding="UTF-8" standalone="no"?>
<!DOCTYPE svg PUBLIC "-//W3C//DTD SVG 1.1//EN" "http://www.w3.org/Graphics/SVG/1.1/DTD/svg11.dtd">
<svg width="100%" height="100%" viewBox="0 0 13 36" version="1.1" xmlns="http://www.w3.org/2000/svg" xmlns:xlink="http://www.w3.org/1999/xlink" xml:space="preserve" xmlns:serif="http://www.serif.com/" style="fill-rule:evenodd;clip-rule:evenodd;">
    <path d="M8.5,4C8.5,3.724 8.276,3.5 8,3.5L4,3.5C3.724,3.5 3.5,3.724 3.5,4L3.5,11C3.5,11.276 3.724,11.5 4,11.5L8,11.5C8.276,11.5 8.5,11.276 8.5,11L8.5,4Z" style="fill:rgb(139,191,64);fill-opacity:0.5;"/>
    <path d="M8.5,4C8.5,3.724 8.276,3.5 8,3.5L4,3.5C3.724,3.5 3.5,3.724 3.5,4L3.5,11C3.5,11.276 3.724,11.5 4,11.5L8,11.5C8.276,11.5 8.5,11.276 8.5,11L8.5,4Z" style="fill:none;stroke:rgb(139,191,64);stroke-width:1px;"/>
    <path d="M8.224,7.055L6.889,8.389C6.521,8.758 5.924,8.758 5.555,8.389L5.111,7.945L5.555,7.5L6,7.945C6.123,8.067 6.322,8.068 6.445,7.945L7.779,6.611C7.901,6.488 7.901,6.288 7.779,6.166L7.334,5.721C7.212,5.598 7.012,5.598 6.889,5.721L6.413,6.197C6.192,6.067 5.941,6.012 5.693,6.028L6.445,5.276C6.813,4.908 7.411,4.908 7.779,5.276L8.224,5.721C8.592,6.089 8.592,6.687 8.224,7.055ZM5.587,8.803L5.111,9.279C4.988,9.402 4.788,9.401 4.666,9.279L4.221,8.834C4.098,8.712 4.098,8.512 4.221,8.389L5.555,7.055C5.678,6.933 5.877,6.933 6,7.055L6.445,7.5L6.889,7.055L6.445,6.611C6.076,6.242 5.479,6.242 5.111,6.611L3.776,7.945C3.408,8.313 3.408,8.911 3.776,9.279L4.221,9.724C4.589,10.092 5.187,10.092 5.555,9.724L6.307,8.972C6.059,8.988 5.808,8.932 5.587,8.803Z" style="fill:rgb(238,238,238);"/>
    <path d="M9.5,21.5C9.5,20.948 9.052,20.5 8.5,20.5L3.5,20.5C2.948,20.5 2.5,20.948 2.5,21.5L2.5,29.5C2.5,30.052 2.948,30.5 3.5,30.5L8.5,30.5C9.052,30.5 9.5,30.052 9.5,29.5L9.5,21.5Z" style="fill:rgb(139,191,64);fill-opacity:0.5;"/>
    <path d="M9.5,21.5C9.5,20.948 9.052,20.5 8.5,20.5L3.5,20.5C2.948,20.5 2.5,20.948 2.5,21.5L2.5,29.5C2.5,30.052 2.948,30.5 3.5,30.5L8.5,30.5C9.052,30.5 9.5,30.052 9.5,29.5L9.5,21.5Z" style="fill:none;stroke:rgb(139,191,64);stroke-width:1px;"/>
    <path d="M8.224,25.055L6.889,26.389C6.521,26.758 5.924,26.758 5.555,26.389L5.111,25.945L5.555,25.5L6,25.945C6.123,26.067 6.322,26.068 6.445,25.945L7.779,24.611C7.901,24.488 7.901,24.288 7.779,24.166L7.334,23.721C7.212,23.599 7.012,23.599 6.889,23.721L6.413,24.197C6.192,24.067 5.941,24.012 5.693,24.028L6.445,23.276C6.813,22.908 7.411,22.908 7.779,23.276L8.224,23.721C8.592,24.089 8.592,24.687 8.224,25.055ZM5.587,26.803L5.111,27.279C4.988,27.402 4.788,27.401 4.666,27.279L4.221,26.834C4.098,26.712 4.098,26.512 4.221,26.389L5.555,25.055C5.678,24.933 5.877,24.933 6,25.055L6.445,25.5L6.889,25.055L6.445,24.611C6.076,24.242 5.479,24.242 5.111,24.611L3.776,25.945C3.408,26.313 3.408,26.911 3.776,27.279L4.221,27.724C4.589,28.092 5.187,28.092 5.555,27.724L6.307,26.972C6.059,26.988 5.808,26.933 5.587,26.803Z"/>
</svg>
