<?xml version="1.0" encoding="UTF-8" standalone="no"?>
<!DOCTYPE svg PUBLIC "-//W3C//DTD SVG 1.1//EN" "http://www.w3.org/Graphics/SVG/1.1/DTD/svg11.dtd">
<svg width="100%" height="100%" viewBox="0 0 37 12" version="1.1" xmlns="http://www.w3.org/2000/svg" xmlns:xlink="http://www.w3.org/1999/xlink" xml:space="preserve" xmlns:serif="http://www.serif.com/" style="fill-rule:evenodd;clip-rule:evenodd;">
    <path d="M34.5,3.5C34.5,2.948 34.052,2.5 33.5,2.5L3.5,2.5C2.948,2.5 2.5,2.948 2.5,3.5L2.5,8.5C2.5,9.052 2.948,9.5 3.5,9.5L33.5,9.5C34.052,9.5 34.5,9.052 34.5,8.5L34.5,3.5Z" style="fill:rgb(139,191,64);"/>
    <path d="M34.5,3.5C34.5,2.948 34.052,2.5 33.5,2.5L3.5,2.5C2.948,2.5 2.5,2.948 2.5,3.5L2.5,8.5C2.5,9.052 2.948,9.5 3.5,9.5L33.5,9.5C34.052,9.5 34.5,9.052 34.5,8.5L34.5,3.5Z" style="fill:none;stroke:rgb(139,191,64);stroke-width:1px;"/>
    <path d="M14.019,4.356C13.979,4.42 13.936,4.468 13.891,4.5C13.848,4.532 13.792,4.548 13.723,4.548C13.661,4.548 13.595,4.529 13.523,4.492C13.453,4.452 13.373,4.408 13.283,4.36C13.195,4.312 13.093,4.269 12.979,4.232C12.864,4.192 12.733,4.172 12.587,4.172C12.333,4.172 12.144,4.227 12.019,4.336C11.896,4.443 11.835,4.588 11.835,4.772C11.835,4.889 11.872,4.987 11.947,5.064C12.021,5.141 12.119,5.208 12.239,5.264C12.361,5.32 12.5,5.372 12.655,5.42C12.812,5.465 12.972,5.517 13.135,5.576C13.297,5.632 13.456,5.699 13.611,5.776C13.768,5.853 13.907,5.952 14.027,6.072C14.149,6.192 14.248,6.339 14.323,6.512C14.397,6.683 14.435,6.889 14.435,7.132C14.435,7.401 14.388,7.653 14.295,7.888C14.201,8.123 14.065,8.328 13.887,8.504C13.711,8.677 13.492,8.815 13.231,8.916C12.972,9.015 12.677,9.064 12.347,9.064C12.165,9.064 11.98,9.045 11.791,9.008C11.604,8.971 11.423,8.919 11.247,8.852C11.071,8.783 10.905,8.701 10.751,8.608C10.596,8.515 10.461,8.411 10.347,8.296L10.747,7.664C10.779,7.619 10.82,7.581 10.871,7.552C10.924,7.52 10.981,7.504 11.043,7.504C11.123,7.504 11.203,7.529 11.283,7.58C11.365,7.631 11.457,7.687 11.559,7.748C11.663,7.809 11.781,7.865 11.915,7.916C12.048,7.967 12.205,7.992 12.387,7.992C12.632,7.992 12.823,7.939 12.959,7.832C13.095,7.723 13.163,7.551 13.163,7.316C13.163,7.18 13.125,7.069 13.051,6.984C12.976,6.899 12.877,6.828 12.755,6.772C12.635,6.716 12.497,6.667 12.343,6.624C12.188,6.581 12.029,6.535 11.867,6.484C11.704,6.431 11.545,6.367 11.391,6.292C11.236,6.215 11.097,6.115 10.975,5.992C10.855,5.867 10.757,5.712 10.683,5.528C10.608,5.341 10.571,5.112 10.571,4.84C10.571,4.621 10.615,4.408 10.703,4.2C10.791,3.992 10.92,3.807 11.091,3.644C11.261,3.481 11.471,3.352 11.719,3.256C11.967,3.157 12.251,3.108 12.571,3.108C12.749,3.108 12.923,3.123 13.091,3.152C13.261,3.179 13.423,3.22 13.575,3.276C13.727,3.329 13.868,3.395 13.999,3.472C14.132,3.547 14.251,3.632 14.355,3.728L14.019,4.356ZM17.05,7.312C16.802,7.323 16.598,7.344 16.438,7.376C16.278,7.408 16.151,7.448 16.058,7.496C15.964,7.544 15.899,7.599 15.862,7.66C15.827,7.721 15.81,7.788 15.81,7.86C15.81,8.001 15.848,8.101 15.926,8.16C16.003,8.216 16.116,8.244 16.266,8.244C16.426,8.244 16.566,8.216 16.686,8.16C16.806,8.104 16.927,8.013 17.05,7.888L17.05,7.312ZM14.818,5.428C15.068,5.207 15.346,5.043 15.65,4.936C15.956,4.827 16.284,4.772 16.634,4.772C16.884,4.772 17.11,4.813 17.31,4.896C17.512,4.976 17.683,5.089 17.822,5.236C17.963,5.38 18.071,5.552 18.146,5.752C18.22,5.952 18.258,6.171 18.258,6.408L18.258,9L17.69,9C17.572,9 17.483,8.984 17.422,8.952C17.363,8.92 17.314,8.853 17.274,8.752L17.186,8.524C17.082,8.612 16.982,8.689 16.886,8.756C16.79,8.823 16.69,8.88 16.586,8.928C16.484,8.973 16.375,9.007 16.258,9.028C16.143,9.052 16.015,9.064 15.874,9.064C15.684,9.064 15.512,9.04 15.358,8.992C15.203,8.941 15.071,8.868 14.962,8.772C14.855,8.676 14.772,8.557 14.714,8.416C14.655,8.272 14.626,8.107 14.626,7.92C14.626,7.771 14.663,7.62 14.738,7.468C14.812,7.313 14.942,7.173 15.126,7.048C15.31,6.92 15.558,6.813 15.87,6.728C16.182,6.643 16.575,6.595 17.05,6.584L17.05,6.408C17.05,6.165 16.999,5.991 16.898,5.884C16.799,5.775 16.658,5.72 16.474,5.72C16.327,5.72 16.207,5.736 16.114,5.768C16.02,5.8 15.936,5.836 15.862,5.876C15.79,5.916 15.719,5.952 15.65,5.984C15.58,6.016 15.498,6.032 15.402,6.032C15.316,6.032 15.244,6.011 15.186,5.968C15.127,5.925 15.079,5.875 15.042,5.816L14.818,5.428ZM22.729,4.852L21.121,9L19.993,9L18.385,4.852L19.417,4.852C19.505,4.852 19.578,4.873 19.637,4.916C19.698,4.956 19.74,5.007 19.761,5.068L20.337,6.928C20.388,7.08 20.432,7.228 20.469,7.372C20.509,7.516 20.544,7.66 20.573,7.804C20.632,7.516 20.713,7.224 20.817,6.928L21.417,5.068C21.438,5.007 21.478,4.956 21.537,4.916C21.596,4.873 21.665,4.852 21.745,4.852L22.729,4.852ZM25.453,6.428C25.453,6.329 25.44,6.233 25.413,6.14C25.389,6.047 25.348,5.964 25.289,5.892C25.233,5.817 25.158,5.757 25.065,5.712C24.972,5.667 24.858,5.644 24.725,5.644C24.49,5.644 24.306,5.712 24.173,5.848C24.04,5.981 23.952,6.175 23.909,6.428L25.453,6.428ZM23.893,7.148C23.933,7.495 24.038,7.747 24.209,7.904C24.38,8.059 24.6,8.136 24.869,8.136C25.013,8.136 25.137,8.119 25.241,8.084C25.345,8.049 25.437,8.011 25.517,7.968C25.6,7.925 25.674,7.887 25.741,7.852C25.81,7.817 25.882,7.8 25.957,7.8C26.055,7.8 26.13,7.836 26.181,7.908L26.541,8.352C26.413,8.499 26.274,8.619 26.125,8.712C25.978,8.803 25.826,8.875 25.669,8.928C25.514,8.979 25.358,9.013 25.201,9.032C25.046,9.053 24.898,9.064 24.757,9.064C24.466,9.064 24.193,9.017 23.937,8.924C23.683,8.828 23.461,8.687 23.269,8.5C23.08,8.313 22.929,8.081 22.817,7.804C22.708,7.527 22.653,7.204 22.653,6.836C22.653,6.559 22.7,6.296 22.793,6.048C22.889,5.8 23.025,5.583 23.201,5.396C23.38,5.209 23.594,5.061 23.845,4.952C24.098,4.843 24.384,4.788 24.701,4.788C24.976,4.788 25.226,4.831 25.453,4.916C25.682,5.001 25.878,5.125 26.041,5.288C26.206,5.451 26.334,5.651 26.425,5.888C26.518,6.123 26.565,6.389 26.565,6.688C26.565,6.781 26.561,6.857 26.553,6.916C26.545,6.975 26.53,7.021 26.509,7.056C26.488,7.091 26.458,7.115 26.421,7.128C26.386,7.141 26.341,7.148 26.285,7.148L23.893,7.148Z" style="fill:white;fill-rule:nonzero;"/>
</svg>
