<?xml version="1.0" encoding="UTF-8" standalone="no"?>
<!-- Created with PhotoLine 23.53 (www.pl32.com) -->
<!DOCTYPE svg PUBLIC "-//W3C//DTD SVG 1.1//EN" "http://www.w3.org/Graphics/SVG/1.1/DTD/svg11.dtd">
<svg width="43" height="14" viewBox="0 0 43 14" version="1.1" xmlns="http://www.w3.org/2000/svg" xmlns:xlink="http://www.w3.org/1999/xlink">
  <path fill="#00c000" d="M4.5 3.5 L38.5 3.5 C39.05 3.5 39.5 3.95 39.5 4.5 L39.5 9.5 C39.5 10.05 39.05 10.5 38.5 10.5 L4.5 10.5 C3.95 10.5 3.5 10.05 3.5 9.5 L3.5 4.5 C3.5 3.95 3.95 3.5 4.5 3.5 Z"/>
  <path fill="none" stroke="#00de00" d="M4.5 3.5 L38.5 3.5 C39.05 3.5 39.5 3.95 39.5 4.5 L39.5 9.5 C39.5 10.05 39.05 10.5 38.5 10.5 L4.5 10.5 C3.95 10.5 3.5 10.05 3.5 9.5 L3.5 4.5 C3.5 3.95 3.95 3.5 4.5 3.5 Z"/>
</svg>
