<?xml version="1.0" encoding="UTF-8" standalone="no"?>
<!DOCTYPE svg PUBLIC "-//W3C//DTD SVG 1.1//EN" "http://www.w3.org/Graphics/SVG/1.1/DTD/svg11.dtd">
<svg width="100%" height="100%" viewBox="0 0 96 126" version="1.1" xmlns="http://www.w3.org/2000/svg" xmlns:xlink="http://www.w3.org/1999/xlink" xml:space="preserve" xmlns:serif="http://www.serif.com/" style="fill-rule:evenodd;clip-rule:evenodd;">
    <path d="M15.5,3C15.5,2.448 15.052,2 14.5,2L5.5,2C4.948,2 4.5,2.448 4.5,3L4.5,12C4.5,12.552 4.948,13 5.5,13L14.5,13C15.052,13 15.5,12.552 15.5,12L15.5,3Z" style="fill:rgb(139,191,64);fill-opacity:0.5;"/>
    <path d="M15.5,3C15.5,2.448 15.052,2 14.5,2L5.5,2C4.948,2 4.5,2.448 4.5,3L4.5,12C4.5,12.552 4.948,13 5.5,13L14.5,13C15.052,13 15.5,12.552 15.5,12L15.5,3Z" style="fill:none;stroke:rgb(139,191,64);stroke-width:1px;"/>
    <path d="M6.66,7.568L8.82,7.568L8.82,8.568L6.66,8.568L6.66,7.568ZM9.468,6.336C9.51,6.045 9.592,5.792 9.712,5.576C9.834,5.36 9.985,5.18 10.164,5.036C10.345,4.892 10.552,4.785 10.784,4.716C11.016,4.644 11.265,4.608 11.532,4.608C11.82,4.608 12.076,4.649 12.3,4.732C12.524,4.812 12.713,4.921 12.868,5.06C13.022,5.199 13.14,5.36 13.22,5.544C13.3,5.725 13.34,5.917 13.34,6.12C13.34,6.304 13.321,6.467 13.284,6.608C13.246,6.747 13.19,6.868 13.116,6.972C13.044,7.073 12.953,7.16 12.844,7.232C12.737,7.301 12.614,7.36 12.476,7.408C13.121,7.635 13.444,8.075 13.444,8.728C13.444,9.037 13.388,9.307 13.276,9.536C13.164,9.765 13.013,9.956 12.824,10.108C12.637,10.26 12.42,10.375 12.172,10.452C11.924,10.527 11.665,10.564 11.396,10.564C11.118,10.564 10.872,10.535 10.656,10.476C10.44,10.415 10.248,10.321 10.08,10.196C9.912,10.068 9.764,9.905 9.636,9.708C9.51,9.511 9.401,9.276 9.308,9.004L9.86,8.78C10.004,8.724 10.137,8.709 10.26,8.736C10.382,8.763 10.47,8.824 10.524,8.92C10.644,9.141 10.77,9.303 10.904,9.404C11.04,9.503 11.198,9.552 11.38,9.552C11.518,9.552 11.638,9.529 11.74,9.484C11.844,9.436 11.929,9.376 11.996,9.304C12.065,9.229 12.117,9.145 12.152,9.052C12.186,8.959 12.204,8.864 12.204,8.768C12.204,8.643 12.194,8.531 12.176,8.432C12.16,8.331 12.112,8.244 12.032,8.172C11.952,8.1 11.83,8.045 11.668,8.008C11.508,7.968 11.284,7.948 10.996,7.948L10.996,7.092C11.238,7.092 11.434,7.073 11.584,7.036C11.733,6.999 11.848,6.948 11.928,6.884C12.01,6.817 12.065,6.737 12.092,6.644C12.118,6.551 12.132,6.448 12.132,6.336C12.132,6.107 12.076,5.931 11.964,5.808C11.854,5.683 11.686,5.62 11.46,5.62C11.276,5.62 11.12,5.669 10.992,5.768C10.866,5.864 10.78,5.984 10.732,6.128C10.676,6.275 10.602,6.372 10.512,6.42C10.421,6.468 10.292,6.479 10.124,6.452L9.468,6.336Z" style="fill-rule:nonzero;"/>
    <path d="M28.5,21C28.5,20.448 28.052,20 27.5,20L18.5,20C17.948,20 17.5,20.448 17.5,21L17.5,30C17.5,30.552 17.948,31 18.5,31L27.5,31C28.052,31 28.5,30.552 28.5,30L28.5,21Z" style="fill:rgb(139,191,64);fill-opacity:0.5;"/>
    <path d="M28.5,21C28.5,20.448 28.052,20 27.5,20L18.5,20C17.948,20 17.5,20.448 17.5,21L17.5,30C17.5,30.552 17.948,31 18.5,31L27.5,31C28.052,31 28.5,30.552 28.5,30L28.5,21Z" style="fill:none;stroke:rgb(139,191,64);stroke-width:1px;"/>
    <path d="M19.66,25.568L21.82,25.568L21.82,26.568L19.66,26.568L19.66,25.568ZM26.02,27.38C26.153,27.38 26.258,27.417 26.336,27.492C26.413,27.564 26.452,27.66 26.452,27.78L26.452,28.5L22.356,28.5L22.356,28.1C22.356,28.023 22.372,27.94 22.404,27.852C22.436,27.764 22.492,27.684 22.572,27.612L24.252,25.92C24.396,25.776 24.521,25.639 24.628,25.508C24.734,25.377 24.822,25.249 24.892,25.124C24.961,24.996 25.013,24.869 25.048,24.744C25.082,24.616 25.1,24.481 25.1,24.34C25.1,24.108 25.044,23.931 24.932,23.808C24.822,23.683 24.654,23.62 24.428,23.62C24.244,23.62 24.088,23.669 23.96,23.768C23.834,23.864 23.748,23.984 23.7,24.128C23.644,24.275 23.57,24.372 23.48,24.42C23.389,24.468 23.26,24.479 23.092,24.452L22.436,24.336C22.478,24.045 22.56,23.792 22.68,23.576C22.802,23.36 22.953,23.18 23.132,23.036C23.313,22.892 23.52,22.785 23.752,22.716C23.984,22.644 24.233,22.608 24.5,22.608C24.788,22.608 25.046,22.651 25.276,22.736C25.508,22.819 25.705,22.935 25.868,23.084C26.03,23.233 26.154,23.412 26.24,23.62C26.328,23.825 26.372,24.052 26.372,24.3C26.372,24.513 26.341,24.711 26.28,24.892C26.221,25.073 26.14,25.247 26.036,25.412C25.932,25.575 25.81,25.733 25.672,25.888C25.536,26.04 25.39,26.195 25.236,26.352L24.096,27.52C24.242,27.475 24.388,27.44 24.532,27.416C24.676,27.392 24.809,27.38 24.932,27.38L26.02,27.38Z" style="fill-rule:nonzero;"/>
    <path d="M41.5,39C41.5,38.448 41.052,38 40.5,38L31.5,38C30.948,38 30.5,38.448 30.5,39L30.5,48C30.5,48.552 30.948,49 31.5,49L40.5,49C41.052,49 41.5,48.552 41.5,48L41.5,39Z" style="fill:rgb(139,191,64);fill-opacity:0.5;"/>
    <path d="M41.5,39C41.5,38.448 41.052,38 40.5,38L31.5,38C30.948,38 30.5,38.448 30.5,39L30.5,48C30.5,48.552 30.948,49 31.5,49L40.5,49C41.052,49 41.5,48.552 41.5,48L41.5,39Z" style="fill:none;stroke:rgb(139,191,64);stroke-width:1px;"/>
    <path d="M32.66,43.568L34.82,43.568L34.82,44.568L32.66,44.568L32.66,43.568ZM39.32,45.604L39.32,46.5L36,46.5L36,45.604L37.12,45.604L37.12,42.664C37.12,42.589 37.121,42.515 37.124,42.44C37.126,42.363 37.13,42.285 37.136,42.208L36.472,42.76C36.413,42.805 36.354,42.833 36.296,42.844C36.24,42.852 36.186,42.852 36.136,42.844C36.085,42.833 36.04,42.816 36,42.792C35.96,42.765 35.93,42.739 35.912,42.712L35.52,42.192L37.336,40.668L38.36,40.668L38.36,45.604L39.32,45.604Z" style="fill-rule:nonzero;"/>
    <path d="M54.5,57C54.5,56.448 54.052,56 53.5,56L44.5,56C43.948,56 43.5,56.448 43.5,57L43.5,66C43.5,66.552 43.948,67 44.5,67L53.5,67C54.052,67 54.5,66.552 54.5,66L54.5,57Z" style="fill:rgb(139,191,64);fill-opacity:0.5;"/>
    <path d="M54.5,57C54.5,56.448 54.052,56 53.5,56L44.5,56C43.948,56 43.5,56.448 43.5,57L43.5,66C43.5,66.552 43.948,67 44.5,67L53.5,67C54.052,67 54.5,66.552 54.5,66L54.5,57Z" style="fill:none;stroke:rgb(139,191,64);stroke-width:1px;"/>
    <path d="M51.16,61.584C51.16,62.093 51.105,62.535 50.996,62.908C50.886,63.281 50.734,63.591 50.54,63.836C50.348,64.081 50.118,64.264 49.852,64.384C49.588,64.504 49.301,64.564 48.992,64.564C48.682,64.564 48.396,64.504 48.132,64.384C47.87,64.264 47.644,64.081 47.452,63.836C47.26,63.591 47.109,63.281 47,62.908C46.893,62.535 46.84,62.093 46.84,61.584C46.84,61.075 46.893,60.633 47,60.26C47.109,59.887 47.26,59.577 47.452,59.332C47.644,59.087 47.87,58.905 48.132,58.788C48.396,58.668 48.682,58.608 48.992,58.608C49.301,58.608 49.588,58.668 49.852,58.788C50.118,58.905 50.348,59.087 50.54,59.332C50.734,59.577 50.886,59.887 50.996,60.26C51.105,60.633 51.16,61.075 51.16,61.584ZM49.88,61.584C49.88,61.181 49.854,60.852 49.804,60.596C49.753,60.337 49.685,60.135 49.6,59.988C49.517,59.841 49.422,59.741 49.316,59.688C49.209,59.632 49.101,59.604 48.992,59.604C48.882,59.604 48.774,59.632 48.668,59.688C48.564,59.741 48.47,59.841 48.388,59.988C48.308,60.135 48.242,60.337 48.192,60.596C48.144,60.852 48.12,61.181 48.12,61.584C48.12,61.989 48.144,62.32 48.192,62.576C48.242,62.832 48.308,63.035 48.388,63.184C48.47,63.331 48.564,63.432 48.668,63.488C48.774,63.541 48.882,63.568 48.992,63.568C49.101,63.568 49.209,63.541 49.316,63.488C49.422,63.432 49.517,63.331 49.6,63.184C49.685,63.035 49.753,62.832 49.804,62.576C49.854,62.32 49.88,61.989 49.88,61.584Z" style="fill-rule:nonzero;"/>
    <path d="M67.5,75C67.5,74.448 67.052,74 66.5,74L57.5,74C56.948,74 56.5,74.448 56.5,75L56.5,84C56.5,84.552 56.948,85 57.5,85L66.5,85C67.052,85 67.5,84.552 67.5,84L67.5,75Z" style="fill:rgb(139,191,64);fill-opacity:0.5;"/>
    <path d="M67.5,75C67.5,74.448 67.052,74 66.5,74L57.5,74C56.948,74 56.5,74.448 56.5,75L56.5,84C56.5,84.552 56.948,85 57.5,85L66.5,85C67.052,85 67.5,84.552 67.5,84L67.5,75Z" style="fill:none;stroke:rgb(139,191,64);stroke-width:1px;"/>
    <path d="M61.719,80.256L60.239,80.256L60.239,81.848L59.231,81.848L59.231,80.256L57.759,80.256L57.759,79.368L59.231,79.368L59.231,77.784L60.239,77.784L60.239,79.368L61.719,79.368L61.719,80.256ZM66.144,81.604L66.144,82.5L62.824,82.5L62.824,81.604L63.944,81.604L63.944,78.664C63.944,78.589 63.945,78.515 63.948,78.44C63.951,78.363 63.955,78.285 63.96,78.208L63.296,78.76C63.237,78.805 63.179,78.833 63.12,78.844C63.064,78.852 63.011,78.852 62.96,78.844C62.909,78.833 62.864,78.816 62.824,78.792C62.784,78.765 62.755,78.739 62.736,78.712L62.344,78.192L64.16,76.668L65.184,76.668L65.184,81.604L66.144,81.604Z" style="fill-rule:nonzero;"/>
    <path d="M80.5,93C80.5,92.448 80.052,92 79.5,92L70.5,92C69.948,92 69.5,92.448 69.5,93L69.5,102C69.5,102.552 69.948,103 70.5,103L79.5,103C80.052,103 80.5,102.552 80.5,102L80.5,93Z" style="fill:rgb(139,191,64);fill-opacity:0.5;"/>
    <path d="M80.5,93C80.5,92.448 80.052,92 79.5,92L70.5,92C69.948,92 69.5,92.448 69.5,93L69.5,102C69.5,102.552 69.948,103 70.5,103L79.5,103C80.052,103 80.5,102.552 80.5,102L80.5,93Z" style="fill:none;stroke:rgb(139,191,64);stroke-width:1px;"/>
    <path d="M74.719,98.256L73.239,98.256L73.239,99.848L72.231,99.848L72.231,98.256L70.759,98.256L70.759,97.368L72.231,97.368L72.231,95.784L73.239,95.784L73.239,97.368L74.719,97.368L74.719,98.256ZM78.844,99.38C78.977,99.38 79.083,99.417 79.16,99.492C79.237,99.564 79.276,99.66 79.276,99.78L79.276,100.5L75.18,100.5L75.18,100.1C75.18,100.023 75.196,99.94 75.228,99.852C75.26,99.764 75.316,99.684 75.396,99.612L77.076,97.92C77.22,97.776 77.345,97.639 77.452,97.508C77.559,97.377 77.647,97.249 77.716,97.124C77.785,96.996 77.837,96.869 77.872,96.744C77.907,96.616 77.924,96.481 77.924,96.34C77.924,96.108 77.868,95.931 77.756,95.808C77.647,95.683 77.479,95.62 77.252,95.62C77.068,95.62 76.912,95.669 76.784,95.768C76.659,95.864 76.572,95.984 76.524,96.128C76.468,96.275 76.395,96.372 76.304,96.42C76.213,96.468 76.084,96.479 75.916,96.452L75.26,96.336C75.303,96.045 75.384,95.792 75.504,95.576C75.627,95.36 75.777,95.18 75.956,95.036C76.137,94.892 76.344,94.785 76.576,94.716C76.808,94.644 77.057,94.608 77.324,94.608C77.612,94.608 77.871,94.651 78.1,94.736C78.332,94.819 78.529,94.935 78.692,95.084C78.855,95.233 78.979,95.412 79.064,95.62C79.152,95.825 79.196,96.052 79.196,96.3C79.196,96.513 79.165,96.711 79.104,96.892C79.045,97.073 78.964,97.247 78.86,97.412C78.756,97.575 78.635,97.733 78.496,97.888C78.36,98.04 78.215,98.195 78.06,98.352L76.92,99.52C77.067,99.475 77.212,99.44 77.356,99.416C77.5,99.392 77.633,99.38 77.756,99.38L78.844,99.38Z" style="fill-rule:nonzero;"/>
    <path d="M93.5,111C93.5,110.448 93.052,110 92.5,110L83.5,110C82.948,110 82.5,110.448 82.5,111L82.5,120C82.5,120.552 82.948,121 83.5,121L92.5,121C93.052,121 93.5,120.552 93.5,120L93.5,111Z" style="fill:rgb(139,191,64);fill-opacity:0.5;"/>
    <path d="M93.5,111C93.5,110.448 93.052,110 92.5,110L83.5,110C82.948,110 82.5,110.448 82.5,111L82.5,120C82.5,120.552 82.948,121 83.5,121L92.5,121C93.052,121 93.5,120.552 93.5,120L93.5,111Z" style="fill:none;stroke:rgb(139,191,64);stroke-width:1px;"/>
    <path d="M87.719,116.256L86.239,116.256L86.239,117.848L85.231,117.848L85.231,116.256L83.759,116.256L83.759,115.368L85.231,115.368L85.231,113.784L86.239,113.784L86.239,115.368L87.719,115.368L87.719,116.256ZM88.292,114.336C88.335,114.045 88.416,113.792 88.536,113.576C88.659,113.36 88.809,113.18 88.988,113.036C89.169,112.892 89.376,112.785 89.608,112.716C89.84,112.644 90.089,112.608 90.356,112.608C90.644,112.608 90.9,112.649 91.124,112.732C91.348,112.812 91.537,112.921 91.692,113.06C91.847,113.199 91.964,113.36 92.044,113.544C92.124,113.725 92.164,113.917 92.164,114.12C92.164,114.304 92.145,114.467 92.108,114.608C92.071,114.747 92.015,114.868 91.94,114.972C91.868,115.073 91.777,115.16 91.668,115.232C91.561,115.301 91.439,115.36 91.3,115.408C91.945,115.635 92.268,116.075 92.268,116.728C92.268,117.037 92.212,117.307 92.1,117.536C91.988,117.765 91.837,117.956 91.648,118.108C91.461,118.26 91.244,118.375 90.996,118.452C90.748,118.527 90.489,118.564 90.22,118.564C89.943,118.564 89.696,118.535 89.48,118.476C89.264,118.415 89.072,118.321 88.904,118.196C88.736,118.068 88.588,117.905 88.46,117.708C88.335,117.511 88.225,117.276 88.132,117.004L88.684,116.78C88.828,116.724 88.961,116.709 89.084,116.736C89.207,116.763 89.295,116.824 89.348,116.92C89.468,117.141 89.595,117.303 89.728,117.404C89.864,117.503 90.023,117.552 90.204,117.552C90.343,117.552 90.463,117.529 90.564,117.484C90.668,117.436 90.753,117.376 90.82,117.304C90.889,117.229 90.941,117.145 90.976,117.052C91.011,116.959 91.028,116.864 91.028,116.768C91.028,116.643 91.019,116.531 91,116.432C90.984,116.331 90.936,116.244 90.856,116.172C90.776,116.1 90.655,116.045 90.492,116.008C90.332,115.968 90.108,115.948 89.82,115.948L89.82,115.092C90.063,115.092 90.259,115.073 90.408,115.036C90.557,114.999 90.672,114.948 90.752,114.884C90.835,114.817 90.889,114.737 90.916,114.644C90.943,114.551 90.956,114.448 90.956,114.336C90.956,114.107 90.9,113.931 90.788,113.808C90.679,113.683 90.511,113.62 90.284,113.62C90.1,113.62 89.944,113.669 89.816,113.768C89.691,113.864 89.604,113.984 89.556,114.128C89.5,114.275 89.427,114.372 89.336,114.42C89.245,114.468 89.116,114.479 88.948,114.452L88.292,114.336Z" style="fill-rule:nonzero;"/>
</svg>
