<?xml version="1.0" encoding="UTF-8" standalone="no"?>
<!DOCTYPE svg PUBLIC "-//W3C//DTD SVG 1.1//EN" "http://www.w3.org/Graphics/SVG/1.1/DTD/svg11.dtd">
<svg width="100%" height="100%" viewBox="0 0 49 28" version="1.1" xmlns="http://www.w3.org/2000/svg" xmlns:xlink="http://www.w3.org/1999/xlink" xml:space="preserve" xmlns:serif="http://www.serif.com/" style="fill-rule:evenodd;clip-rule:evenodd;">
    <path d="M46.5,3.5C46.5,2.948 46.052,2.5 45.5,2.5L3.5,2.5C2.948,2.5 2.5,2.948 2.5,3.5L2.5,10.5C2.5,11.052 2.948,11.5 3.5,11.5L45.5,11.5C46.052,11.5 46.5,11.052 46.5,10.5L46.5,3.5Z" style="fill:rgb(139,191,64);fill-opacity:0.5;"/>
    <path d="M46.5,3.5C46.5,2.948 46.052,2.5 45.5,2.5L3.5,2.5C2.948,2.5 2.5,2.948 2.5,3.5L2.5,10.5C2.5,11.052 2.948,11.5 3.5,11.5L45.5,11.5C46.052,11.5 46.5,11.052 46.5,10.5L46.5,3.5Z" style="fill:none;stroke:rgb(139,191,64);stroke-width:1px;"/>
    <path d="M11.676,4.172L11.676,10L10.316,10L10.316,7.536L7.948,7.536L7.948,10L6.588,10L6.588,4.172L7.948,4.172L7.948,6.608L10.316,6.608L10.316,4.172L11.676,4.172ZM14.33,5.788C14.645,5.788 14.932,5.837 15.19,5.936C15.449,6.035 15.67,6.176 15.854,6.36C16.041,6.544 16.185,6.768 16.286,7.032C16.39,7.293 16.442,7.588 16.442,7.916C16.442,8.247 16.39,8.545 16.286,8.812C16.185,9.076 16.041,9.301 15.854,9.488C15.67,9.672 15.449,9.815 15.19,9.916C14.932,10.015 14.645,10.064 14.33,10.064C14.013,10.064 13.724,10.015 13.462,9.916C13.204,9.815 12.98,9.672 12.79,9.488C12.604,9.301 12.458,9.076 12.354,8.812C12.253,8.545 12.202,8.247 12.202,7.916C12.202,7.588 12.253,7.293 12.354,7.032C12.458,6.768 12.604,6.544 12.79,6.36C12.98,6.176 13.204,6.035 13.462,5.936C13.724,5.837 14.013,5.788 14.33,5.788ZM14.33,9.144C14.616,9.144 14.825,9.044 14.958,8.844C15.094,8.641 15.162,8.335 15.162,7.924C15.162,7.513 15.094,7.208 14.958,7.008C14.825,6.808 14.616,6.708 14.33,6.708C14.037,6.708 13.822,6.808 13.686,7.008C13.55,7.208 13.482,7.513 13.482,7.924C13.482,8.335 13.55,8.641 13.686,8.844C13.822,9.044 14.037,9.144 14.33,9.144ZM18.107,6.492C18.235,6.268 18.381,6.092 18.547,5.964C18.715,5.836 18.907,5.772 19.123,5.772C19.309,5.772 19.461,5.816 19.579,5.904L19.499,6.816C19.485,6.875 19.463,6.915 19.431,6.936C19.401,6.957 19.36,6.968 19.307,6.968C19.285,6.968 19.257,6.967 19.223,6.964C19.188,6.961 19.152,6.959 19.115,6.956C19.077,6.951 19.039,6.947 18.999,6.944C18.961,6.939 18.927,6.936 18.895,6.936C18.713,6.936 18.568,6.984 18.459,7.08C18.352,7.176 18.261,7.309 18.187,7.48L18.187,10L16.947,10L16.947,5.852L17.683,5.852C17.744,5.852 17.795,5.857 17.835,5.868C17.877,5.879 17.912,5.896 17.939,5.92C17.968,5.941 17.989,5.971 18.003,6.008C18.019,6.045 18.032,6.091 18.043,6.144L18.107,6.492ZM21.149,5.852L21.149,10L19.909,10L19.909,5.852L21.149,5.852ZM21.277,4.716C21.277,4.815 21.257,4.908 21.217,4.996C21.177,5.081 21.123,5.157 21.053,5.224C20.984,5.288 20.903,5.34 20.809,5.38C20.719,5.417 20.621,5.436 20.517,5.436C20.416,5.436 20.321,5.417 20.233,5.38C20.145,5.34 20.067,5.288 19.997,5.224C19.931,5.157 19.877,5.081 19.837,4.996C19.8,4.908 19.781,4.815 19.781,4.716C19.781,4.615 19.8,4.52 19.837,4.432C19.877,4.344 19.931,4.267 19.997,4.2C20.067,4.133 20.145,4.081 20.233,4.044C20.321,4.007 20.416,3.988 20.517,3.988C20.621,3.988 20.719,4.007 20.809,4.044C20.903,4.081 20.984,4.133 21.053,4.2C21.123,4.267 21.177,4.344 21.217,4.432C21.257,4.52 21.277,4.615 21.277,4.716ZM24.978,6.348C24.978,6.433 24.963,6.516 24.934,6.596C24.905,6.676 24.866,6.741 24.818,6.792L23.086,9.08L24.938,9.08L24.938,10L21.658,10L21.658,9.496C21.658,9.445 21.671,9.381 21.698,9.304C21.725,9.227 21.765,9.155 21.818,9.088L23.566,6.772L21.77,6.772L21.77,5.852L24.978,5.852L24.978,6.348ZM27.342,5.788C27.657,5.788 27.944,5.837 28.202,5.936C28.461,6.035 28.682,6.176 28.866,6.36C29.053,6.544 29.197,6.768 29.298,7.032C29.402,7.293 29.454,7.588 29.454,7.916C29.454,8.247 29.402,8.545 29.298,8.812C29.197,9.076 29.053,9.301 28.866,9.488C28.682,9.672 28.461,9.815 28.202,9.916C27.944,10.015 27.657,10.064 27.342,10.064C27.025,10.064 26.736,10.015 26.474,9.916C26.216,9.815 25.992,9.672 25.802,9.488C25.616,9.301 25.47,9.076 25.366,8.812C25.265,8.545 25.214,8.247 25.214,7.916C25.214,7.588 25.265,7.293 25.366,7.032C25.47,6.768 25.616,6.544 25.802,6.36C25.992,6.176 26.216,6.035 26.474,5.936C26.736,5.837 27.025,5.788 27.342,5.788ZM27.342,9.144C27.628,9.144 27.837,9.044 27.97,8.844C28.106,8.641 28.174,8.335 28.174,7.924C28.174,7.513 28.106,7.208 27.97,7.008C27.837,6.808 27.628,6.708 27.342,6.708C27.049,6.708 26.834,6.808 26.698,7.008C26.562,7.208 26.494,7.513 26.494,7.924C26.494,8.335 26.562,8.641 26.698,8.844C26.834,9.044 27.049,9.144 27.342,9.144ZM31.103,6.3C31.183,6.225 31.265,6.156 31.351,6.092C31.436,6.028 31.527,5.975 31.623,5.932C31.721,5.887 31.827,5.852 31.939,5.828C32.053,5.801 32.177,5.788 32.311,5.788C32.537,5.788 32.737,5.828 32.911,5.908C33.087,5.985 33.235,6.095 33.355,6.236C33.475,6.375 33.565,6.541 33.627,6.736C33.688,6.928 33.719,7.137 33.719,7.364L33.719,10L32.479,10L32.479,7.364C32.479,7.161 32.432,7.004 32.339,6.892C32.245,6.777 32.108,6.72 31.927,6.72C31.791,6.72 31.663,6.749 31.543,6.808C31.425,6.864 31.311,6.941 31.199,7.04L31.199,10L29.959,10L29.959,5.852L30.727,5.852C30.881,5.852 30.983,5.921 31.031,6.06L31.103,6.3ZM35.831,10.064C35.633,10.064 35.459,10.036 35.307,9.98C35.157,9.921 35.031,9.84 34.927,9.736C34.825,9.629 34.748,9.501 34.695,9.352C34.641,9.203 34.615,9.036 34.615,8.852L34.615,6.708L34.263,6.708C34.199,6.708 34.144,6.688 34.099,6.648C34.053,6.605 34.031,6.544 34.031,6.464L34.031,5.98L34.691,5.852L34.935,4.84C34.967,4.712 35.057,4.648 35.207,4.648L35.855,4.648L35.855,5.86L36.883,5.86L36.883,6.708L35.855,6.708L35.855,8.768C35.855,8.864 35.877,8.944 35.923,9.008C35.971,9.069 36.039,9.1 36.127,9.1C36.172,9.1 36.209,9.096 36.239,9.088C36.271,9.077 36.297,9.067 36.319,9.056C36.343,9.043 36.364,9.032 36.383,9.024C36.404,9.013 36.428,9.008 36.455,9.008C36.492,9.008 36.521,9.017 36.543,9.036C36.567,9.052 36.591,9.079 36.615,9.116L36.991,9.704C36.831,9.824 36.651,9.915 36.451,9.976C36.251,10.035 36.044,10.064 35.831,10.064ZM39.437,8.312C39.189,8.323 38.985,8.344 38.825,8.376C38.665,8.408 38.538,8.448 38.445,8.496C38.352,8.544 38.286,8.599 38.249,8.66C38.214,8.721 38.197,8.788 38.197,8.86C38.197,9.001 38.236,9.101 38.313,9.16C38.39,9.216 38.504,9.244 38.653,9.244C38.813,9.244 38.953,9.216 39.073,9.16C39.193,9.104 39.314,9.013 39.437,8.888L39.437,8.312ZM37.205,6.428C37.456,6.207 37.733,6.043 38.037,5.936C38.344,5.827 38.672,5.772 39.021,5.772C39.272,5.772 39.497,5.813 39.697,5.896C39.9,5.976 40.07,6.089 40.209,6.236C40.35,6.38 40.458,6.552 40.533,6.752C40.608,6.952 40.645,7.171 40.645,7.408L40.645,10L40.077,10C39.96,10 39.87,9.984 39.809,9.952C39.75,9.92 39.701,9.853 39.661,9.752L39.573,9.524C39.469,9.612 39.369,9.689 39.273,9.756C39.177,9.823 39.077,9.88 38.973,9.928C38.872,9.973 38.762,10.007 38.645,10.028C38.53,10.052 38.402,10.064 38.261,10.064C38.072,10.064 37.9,10.04 37.745,9.992C37.59,9.941 37.458,9.868 37.349,9.772C37.242,9.676 37.16,9.557 37.101,9.416C37.042,9.272 37.013,9.107 37.013,8.92C37.013,8.771 37.05,8.62 37.125,8.468C37.2,8.313 37.329,8.173 37.513,8.048C37.697,7.92 37.945,7.813 38.257,7.728C38.569,7.643 38.962,7.595 39.437,7.584L39.437,7.408C39.437,7.165 39.386,6.991 39.285,6.884C39.186,6.775 39.045,6.72 38.861,6.72C38.714,6.72 38.594,6.736 38.501,6.768C38.408,6.8 38.324,6.836 38.249,6.876C38.177,6.916 38.106,6.952 38.037,6.984C37.968,7.016 37.885,7.032 37.789,7.032C37.704,7.032 37.632,7.011 37.573,6.968C37.514,6.925 37.466,6.875 37.429,6.816L37.205,6.428ZM42.558,4.012L42.558,10L41.318,10L41.318,4.012L42.558,4.012Z" style="fill-rule:nonzero;"/>
    <path d="M47.5,16.5C47.5,15.948 47.052,15.5 46.5,15.5L2.5,15.5C1.948,15.5 1.5,15.948 1.5,16.5L1.5,25.5C1.5,26.052 1.948,26.5 2.5,26.5L46.5,26.5C47.052,26.5 47.5,26.052 47.5,25.5L47.5,16.5Z" style="fill:rgb(139,191,64);fill-opacity:0.5;"/>
    <path d="M47.5,16.5C47.5,15.948 47.052,15.5 46.5,15.5L2.5,15.5C1.948,15.5 1.5,15.948 1.5,16.5L1.5,25.5C1.5,26.052 1.948,26.5 2.5,26.5L46.5,26.5C47.052,26.5 47.5,26.052 47.5,25.5L47.5,16.5Z" style="fill:none;stroke:rgb(139,191,64);stroke-width:1px;"/>
    <path d="M11.676,18.172L11.676,24L10.316,24L10.316,21.536L7.948,21.536L7.948,24L6.588,24L6.588,18.172L7.948,18.172L7.948,20.608L10.316,20.608L10.316,18.172L11.676,18.172ZM14.33,19.788C14.645,19.788 14.932,19.837 15.19,19.936C15.449,20.035 15.67,20.176 15.854,20.36C16.041,20.544 16.185,20.768 16.286,21.032C16.39,21.293 16.442,21.588 16.442,21.916C16.442,22.247 16.39,22.545 16.286,22.812C16.185,23.076 16.041,23.301 15.854,23.488C15.67,23.672 15.449,23.815 15.19,23.916C14.932,24.015 14.645,24.064 14.33,24.064C14.013,24.064 13.724,24.015 13.462,23.916C13.204,23.815 12.98,23.672 12.79,23.488C12.604,23.301 12.458,23.076 12.354,22.812C12.253,22.545 12.202,22.247 12.202,21.916C12.202,21.588 12.253,21.293 12.354,21.032C12.458,20.768 12.604,20.544 12.79,20.36C12.98,20.176 13.204,20.035 13.462,19.936C13.724,19.837 14.013,19.788 14.33,19.788ZM14.33,23.144C14.616,23.144 14.825,23.044 14.958,22.844C15.094,22.641 15.162,22.335 15.162,21.924C15.162,21.513 15.094,21.208 14.958,21.008C14.825,20.808 14.616,20.708 14.33,20.708C14.037,20.708 13.822,20.808 13.686,21.008C13.55,21.208 13.482,21.513 13.482,21.924C13.482,22.335 13.55,22.641 13.686,22.844C13.822,23.044 14.037,23.144 14.33,23.144ZM18.107,20.492C18.235,20.268 18.381,20.092 18.547,19.964C18.715,19.836 18.907,19.772 19.123,19.772C19.309,19.772 19.461,19.816 19.579,19.904L19.499,20.816C19.485,20.875 19.463,20.915 19.431,20.936C19.401,20.957 19.36,20.968 19.307,20.968C19.285,20.968 19.257,20.967 19.223,20.964C19.188,20.961 19.152,20.959 19.115,20.956C19.077,20.951 19.039,20.947 18.999,20.944C18.961,20.939 18.927,20.936 18.895,20.936C18.713,20.936 18.568,20.984 18.459,21.08C18.352,21.176 18.261,21.309 18.187,21.48L18.187,24L16.947,24L16.947,19.852L17.683,19.852C17.744,19.852 17.795,19.857 17.835,19.868C17.877,19.879 17.912,19.896 17.939,19.92C17.968,19.941 17.989,19.971 18.003,20.008C18.019,20.045 18.032,20.091 18.043,20.144L18.107,20.492ZM21.149,19.852L21.149,24L19.909,24L19.909,19.852L21.149,19.852ZM21.277,18.716C21.277,18.815 21.257,18.908 21.217,18.996C21.177,19.081 21.123,19.157 21.053,19.224C20.984,19.288 20.903,19.34 20.809,19.38C20.719,19.417 20.621,19.436 20.517,19.436C20.416,19.436 20.321,19.417 20.233,19.38C20.145,19.34 20.067,19.288 19.997,19.224C19.931,19.157 19.877,19.081 19.837,18.996C19.8,18.908 19.781,18.815 19.781,18.716C19.781,18.615 19.8,18.52 19.837,18.432C19.877,18.344 19.931,18.267 19.997,18.2C20.067,18.133 20.145,18.081 20.233,18.044C20.321,18.007 20.416,17.988 20.517,17.988C20.621,17.988 20.719,18.007 20.809,18.044C20.903,18.081 20.984,18.133 21.053,18.2C21.123,18.267 21.177,18.344 21.217,18.432C21.257,18.52 21.277,18.615 21.277,18.716ZM24.978,20.348C24.978,20.433 24.963,20.516 24.934,20.596C24.905,20.676 24.866,20.741 24.818,20.792L23.086,23.08L24.938,23.08L24.938,24L21.658,24L21.658,23.496C21.658,23.445 21.671,23.381 21.698,23.304C21.725,23.227 21.765,23.155 21.818,23.088L23.566,20.772L21.77,20.772L21.77,19.852L24.978,19.852L24.978,20.348ZM27.342,19.788C27.657,19.788 27.944,19.837 28.202,19.936C28.461,20.035 28.682,20.176 28.866,20.36C29.053,20.544 29.197,20.768 29.298,21.032C29.402,21.293 29.454,21.588 29.454,21.916C29.454,22.247 29.402,22.545 29.298,22.812C29.197,23.076 29.053,23.301 28.866,23.488C28.682,23.672 28.461,23.815 28.202,23.916C27.944,24.015 27.657,24.064 27.342,24.064C27.025,24.064 26.736,24.015 26.474,23.916C26.216,23.815 25.992,23.672 25.802,23.488C25.616,23.301 25.47,23.076 25.366,22.812C25.265,22.545 25.214,22.247 25.214,21.916C25.214,21.588 25.265,21.293 25.366,21.032C25.47,20.768 25.616,20.544 25.802,20.36C25.992,20.176 26.216,20.035 26.474,19.936C26.736,19.837 27.025,19.788 27.342,19.788ZM27.342,23.144C27.628,23.144 27.837,23.044 27.97,22.844C28.106,22.641 28.174,22.335 28.174,21.924C28.174,21.513 28.106,21.208 27.97,21.008C27.837,20.808 27.628,20.708 27.342,20.708C27.049,20.708 26.834,20.808 26.698,21.008C26.562,21.208 26.494,21.513 26.494,21.924C26.494,22.335 26.562,22.641 26.698,22.844C26.834,23.044 27.049,23.144 27.342,23.144ZM31.103,20.3C31.183,20.225 31.265,20.156 31.351,20.092C31.436,20.028 31.527,19.975 31.623,19.932C31.721,19.887 31.827,19.852 31.939,19.828C32.053,19.801 32.177,19.788 32.311,19.788C32.537,19.788 32.737,19.828 32.911,19.908C33.087,19.985 33.235,20.095 33.355,20.236C33.475,20.375 33.565,20.541 33.627,20.736C33.688,20.928 33.719,21.137 33.719,21.364L33.719,24L32.479,24L32.479,21.364C32.479,21.161 32.432,21.004 32.339,20.892C32.245,20.777 32.108,20.72 31.927,20.72C31.791,20.72 31.663,20.749 31.543,20.808C31.425,20.864 31.311,20.941 31.199,21.04L31.199,24L29.959,24L29.959,19.852L30.727,19.852C30.881,19.852 30.983,19.921 31.031,20.06L31.103,20.3ZM35.831,24.064C35.633,24.064 35.459,24.036 35.307,23.98C35.157,23.921 35.031,23.84 34.927,23.736C34.825,23.629 34.748,23.501 34.695,23.352C34.641,23.203 34.615,23.036 34.615,22.852L34.615,20.708L34.263,20.708C34.199,20.708 34.144,20.688 34.099,20.648C34.053,20.605 34.031,20.544 34.031,20.464L34.031,19.98L34.691,19.852L34.935,18.84C34.967,18.712 35.057,18.648 35.207,18.648L35.855,18.648L35.855,19.86L36.883,19.86L36.883,20.708L35.855,20.708L35.855,22.768C35.855,22.864 35.877,22.944 35.923,23.008C35.971,23.069 36.039,23.1 36.127,23.1C36.172,23.1 36.209,23.096 36.239,23.088C36.271,23.077 36.297,23.067 36.319,23.056C36.343,23.043 36.364,23.032 36.383,23.024C36.404,23.013 36.428,23.008 36.455,23.008C36.492,23.008 36.521,23.017 36.543,23.036C36.567,23.052 36.591,23.079 36.615,23.116L36.991,23.704C36.831,23.824 36.651,23.915 36.451,23.976C36.251,24.035 36.044,24.064 35.831,24.064ZM39.437,22.312C39.189,22.323 38.985,22.344 38.825,22.376C38.665,22.408 38.538,22.448 38.445,22.496C38.352,22.544 38.286,22.599 38.249,22.66C38.214,22.721 38.197,22.788 38.197,22.86C38.197,23.001 38.236,23.101 38.313,23.16C38.39,23.216 38.504,23.244 38.653,23.244C38.813,23.244 38.953,23.216 39.073,23.16C39.193,23.104 39.314,23.013 39.437,22.888L39.437,22.312ZM37.205,20.428C37.456,20.207 37.733,20.043 38.037,19.936C38.344,19.827 38.672,19.772 39.021,19.772C39.272,19.772 39.497,19.813 39.697,19.896C39.9,19.976 40.07,20.089 40.209,20.236C40.35,20.38 40.458,20.552 40.533,20.752C40.608,20.952 40.645,21.171 40.645,21.408L40.645,24L40.077,24C39.96,24 39.87,23.984 39.809,23.952C39.75,23.92 39.701,23.853 39.661,23.752L39.573,23.524C39.469,23.612 39.369,23.689 39.273,23.756C39.177,23.823 39.077,23.88 38.973,23.928C38.872,23.973 38.762,24.007 38.645,24.028C38.53,24.052 38.402,24.064 38.261,24.064C38.072,24.064 37.9,24.04 37.745,23.992C37.59,23.941 37.458,23.868 37.349,23.772C37.242,23.676 37.16,23.557 37.101,23.416C37.042,23.272 37.013,23.107 37.013,22.92C37.013,22.771 37.05,22.62 37.125,22.468C37.2,22.313 37.329,22.173 37.513,22.048C37.697,21.92 37.945,21.813 38.257,21.728C38.569,21.643 38.962,21.595 39.437,21.584L39.437,21.408C39.437,21.165 39.386,20.991 39.285,20.884C39.186,20.775 39.045,20.72 38.861,20.72C38.714,20.72 38.594,20.736 38.501,20.768C38.408,20.8 38.324,20.836 38.249,20.876C38.177,20.916 38.106,20.952 38.037,20.984C37.968,21.016 37.885,21.032 37.789,21.032C37.704,21.032 37.632,21.011 37.573,20.968C37.514,20.925 37.466,20.875 37.429,20.816L37.205,20.428ZM42.558,18.012L42.558,24L41.318,24L41.318,18.012L42.558,18.012Z" style="fill:white;fill-rule:nonzero;"/>
</svg>
