<?xml version="1.0" encoding="UTF-8" standalone="no"?>
<!DOCTYPE svg PUBLIC "-//W3C//DTD SVG 1.1//EN" "http://www.w3.org/Graphics/SVG/1.1/DTD/svg11.dtd">
<svg width="100%" height="100%" viewBox="0 0 18 22" version="1.1" xmlns="http://www.w3.org/2000/svg" xmlns:xlink="http://www.w3.org/1999/xlink" xml:space="preserve" xmlns:serif="http://www.serif.com/" style="fill-rule:evenodd;clip-rule:evenodd;">
    <path d="M16.5,2.5C16.5,1.948 16.052,1.5 15.5,1.5L2.5,1.5C1.948,1.5 1.5,1.948 1.5,2.5L1.5,8.5C1.5,9.052 1.948,9.5 2.5,9.5L15.5,9.5C16.052,9.5 16.5,9.052 16.5,8.5L16.5,2.5Z" style="fill:rgb(139,191,64);fill-opacity:0.5;"/>
    <path d="M16.5,2.5C16.5,1.948 16.052,1.5 15.5,1.5L2.5,1.5C1.948,1.5 1.5,1.948 1.5,2.5L1.5,8.5C1.5,9.052 1.948,9.5 2.5,9.5L15.5,9.5C16.052,9.5 16.5,9.052 16.5,8.5L16.5,2.5Z" style="fill:none;stroke:rgb(139,191,64);stroke-width:1px;"/>
    <path d="M10.373,3.937C10.338,3.993 10.301,4.035 10.261,4.063C10.224,4.09 10.175,4.105 10.114,4.105C10.06,4.105 10.002,4.088 9.939,4.056C9.878,4.021 9.808,3.982 9.729,3.94C9.652,3.898 9.563,3.861 9.463,3.828C9.363,3.793 9.248,3.776 9.12,3.776C8.898,3.776 8.733,3.823 8.623,3.919C8.516,4.012 8.462,4.14 8.462,4.301C8.462,4.403 8.495,4.488 8.56,4.556C8.625,4.624 8.711,4.682 8.816,4.731C8.923,4.78 9.044,4.826 9.18,4.868C9.317,4.907 9.457,4.953 9.6,5.004C9.742,5.053 9.881,5.111 10.016,5.179C10.154,5.247 10.275,5.333 10.38,5.438C10.487,5.543 10.574,5.671 10.639,5.823C10.704,5.972 10.737,6.153 10.737,6.366C10.737,6.601 10.696,6.822 10.615,7.027C10.533,7.232 10.414,7.412 10.258,7.566C10.104,7.718 9.912,7.838 9.684,7.927C9.457,8.013 9.199,8.056 8.91,8.056C8.751,8.056 8.589,8.04 8.424,8.007C8.26,7.974 8.102,7.929 7.948,7.871C7.794,7.81 7.649,7.739 7.514,7.657C7.378,7.575 7.26,7.484 7.16,7.384L7.51,6.831C7.538,6.791 7.574,6.759 7.619,6.733C7.665,6.705 7.715,6.691 7.769,6.691C7.839,6.691 7.909,6.713 7.979,6.758C8.051,6.802 8.132,6.851 8.221,6.904C8.312,6.958 8.415,7.007 8.532,7.052C8.649,7.096 8.786,7.118 8.945,7.118C9.16,7.118 9.327,7.071 9.446,6.978C9.565,6.882 9.624,6.732 9.624,6.527C9.624,6.408 9.591,6.311 9.526,6.236C9.461,6.161 9.374,6.1 9.267,6.051C9.162,6.002 9.042,5.958 8.907,5.921C8.771,5.884 8.632,5.843 8.49,5.799C8.348,5.752 8.209,5.696 8.074,5.63C7.938,5.563 7.817,5.475 7.71,5.368C7.605,5.258 7.519,5.123 7.454,4.962C7.389,4.799 7.356,4.598 7.356,4.36C7.356,4.169 7.395,3.982 7.472,3.8C7.549,3.618 7.662,3.456 7.811,3.314C7.96,3.171 8.144,3.058 8.361,2.974C8.578,2.888 8.826,2.845 9.106,2.845C9.262,2.845 9.414,2.857 9.561,2.883C9.71,2.906 9.852,2.943 9.985,2.991C10.118,3.038 10.241,3.095 10.355,3.163C10.472,3.228 10.576,3.303 10.667,3.387L10.373,3.937Z" style="fill:white;fill-rule:nonzero;"/>
    <path d="M16.5,13.5C16.5,12.948 16.052,12.5 15.5,12.5L2.5,12.5C1.948,12.5 1.5,12.948 1.5,13.5L1.5,19.5C1.5,20.052 1.948,20.5 2.5,20.5L15.5,20.5C16.052,20.5 16.5,20.052 16.5,19.5L16.5,13.5Z" style="fill:rgb(139,191,64);fill-opacity:0.5;"/>
    <path d="M16.5,13.5C16.5,12.948 16.052,12.5 15.5,12.5L2.5,12.5C1.948,12.5 1.5,12.948 1.5,13.5L1.5,19.5C1.5,20.052 1.948,20.5 2.5,20.5L15.5,20.5C16.052,20.5 16.5,20.052 16.5,19.5L16.5,13.5Z" style="fill:none;stroke:rgb(139,191,64);stroke-width:1px;"/>
    <path d="M10.373,14.937C10.338,14.993 10.301,15.035 10.261,15.063C10.224,15.091 10.175,15.105 10.114,15.105C10.06,15.105 10.002,15.088 9.939,15.056C9.878,15.021 9.808,14.982 9.729,14.94C9.652,14.898 9.563,14.861 9.463,14.828C9.363,14.793 9.248,14.775 9.12,14.775C8.898,14.775 8.733,14.823 8.623,14.919C8.516,15.012 8.462,15.14 8.462,15.301C8.462,15.403 8.495,15.488 8.56,15.556C8.625,15.624 8.711,15.682 8.816,15.731C8.923,15.78 9.044,15.826 9.18,15.868C9.317,15.907 9.457,15.953 9.6,16.004C9.742,16.053 9.881,16.111 10.016,16.179C10.154,16.247 10.275,16.333 10.38,16.438C10.487,16.543 10.574,16.671 10.639,16.823C10.704,16.972 10.737,17.153 10.737,17.366C10.737,17.601 10.696,17.822 10.615,18.027C10.533,18.232 10.414,18.412 10.258,18.566C10.104,18.718 9.912,18.838 9.684,18.927C9.457,19.013 9.199,19.056 8.91,19.056C8.751,19.056 8.589,19.04 8.424,19.007C8.26,18.974 8.102,18.929 7.948,18.871C7.794,18.81 7.649,18.739 7.514,18.657C7.378,18.575 7.26,18.484 7.16,18.384L7.51,17.831C7.538,17.791 7.574,17.759 7.619,17.733C7.665,17.705 7.715,17.691 7.769,17.691C7.839,17.691 7.909,17.713 7.979,17.758C8.051,17.802 8.132,17.851 8.221,17.905C8.312,17.958 8.415,18.007 8.532,18.052C8.649,18.096 8.786,18.118 8.945,18.118C9.16,18.118 9.327,18.071 9.446,17.978C9.565,17.882 9.624,17.732 9.624,17.527C9.624,17.408 9.591,17.311 9.526,17.236C9.461,17.161 9.374,17.1 9.267,17.051C9.162,17.002 9.042,16.958 8.907,16.921C8.771,16.884 8.632,16.843 8.49,16.799C8.348,16.752 8.209,16.696 8.074,16.631C7.938,16.563 7.817,16.475 7.71,16.368C7.605,16.258 7.519,16.123 7.454,15.962C7.389,15.799 7.356,15.598 7.356,15.36C7.356,15.169 7.395,14.982 7.472,14.8C7.549,14.618 7.662,14.456 7.811,14.314C7.96,14.171 8.144,14.058 8.361,13.974C8.578,13.888 8.826,13.845 9.106,13.845C9.262,13.845 9.414,13.857 9.561,13.883C9.71,13.906 9.852,13.943 9.985,13.992C10.118,14.038 10.241,14.095 10.355,14.163C10.472,14.228 10.576,14.303 10.667,14.387L10.373,14.937Z" style="fill-rule:nonzero;"/>
</svg>
