<?xml version="1.0" encoding="UTF-8" standalone="no"?>
<!DOCTYPE svg PUBLIC "-//W3C//DTD SVG 1.1//EN" "http://www.w3.org/Graphics/SVG/1.1/DTD/svg11.dtd">
<svg width="100%" height="100%" viewBox="0 0 50 282" version="1.1" xmlns="http://www.w3.org/2000/svg" xmlns:xlink="http://www.w3.org/1999/xlink" xml:space="preserve" xmlns:serif="http://www.serif.com/" style="fill-rule:evenodd;clip-rule:evenodd;">
    <path d="M49,56.25C49,55.698 48.552,55.25 48,55.25L2,55.25C1.448,55.25 1,55.698 1,56.25L1,61.25C1,61.802 1.448,62.25 2,62.25L48,62.25C48.552,62.25 49,61.802 49,61.25L49,56.25Z" style="fill:rgb(139,191,64);fill-opacity:0.5;"/>
    <path d="M49,56.25C49,55.698 48.552,55.25 48,55.25L2,55.25C1.448,55.25 1,55.698 1,56.25L1,61.25C1,61.802 1.448,62.25 2,62.25L48,62.25C48.552,62.25 49,61.802 49,61.25L49,56.25Z" style="fill:none;stroke:rgb(139,191,64);stroke-width:1px;"/>
    <path d="M7.726,56.651L7.726,61.75L6.684,61.75L6.684,58.817C6.684,58.749 6.685,58.676 6.687,58.597C6.692,58.517 6.699,58.437 6.708,58.355L5.354,60.977C5.312,61.058 5.254,61.12 5.182,61.162C5.112,61.204 5.032,61.225 4.941,61.225L4.779,61.225C4.689,61.225 4.607,61.204 4.535,61.162C4.465,61.12 4.409,61.058 4.367,60.977L3.012,58.348C3.019,58.432 3.025,58.515 3.03,58.597C3.034,58.676 3.037,58.749 3.037,58.817L3.037,61.75L1.994,61.75L1.994,56.651L2.897,56.651C2.948,56.651 2.992,56.652 3.03,56.654C3.069,56.656 3.104,56.663 3.135,56.675C3.165,56.687 3.192,56.705 3.215,56.731C3.241,56.754 3.265,56.788 3.289,56.833L4.601,59.419C4.648,59.508 4.692,59.6 4.734,59.696C4.778,59.791 4.82,59.889 4.86,59.99C4.9,59.887 4.941,59.786 4.983,59.689C5.027,59.591 5.074,59.497 5.122,59.408L6.432,56.833C6.455,56.788 6.478,56.754 6.502,56.731C6.527,56.705 6.555,56.687 6.586,56.675C6.616,56.663 6.65,56.656 6.687,56.654C6.727,56.652 6.772,56.651 6.824,56.651L7.726,56.651ZM13.613,59.199C13.613,59.567 13.549,59.91 13.421,60.228C13.295,60.545 13.116,60.821 12.885,61.057C12.654,61.29 12.375,61.474 12.049,61.606C11.724,61.74 11.364,61.806 10.967,61.806C10.571,61.806 10.209,61.74 9.882,61.606C9.556,61.474 9.276,61.29 9.042,61.057C8.811,60.821 8.632,60.545 8.503,60.228C8.377,59.91 8.314,59.567 8.314,59.199C8.314,58.83 8.377,58.487 8.503,58.17C8.632,57.852 8.811,57.577 9.042,57.344C9.276,57.11 9.556,56.927 9.882,56.794C10.209,56.661 10.571,56.594 10.967,56.594C11.364,56.594 11.724,56.662 12.049,56.798C12.375,56.931 12.654,57.114 12.885,57.347C13.116,57.58 13.295,57.856 13.421,58.173C13.549,58.49 13.613,58.832 13.613,59.199ZM12.402,59.199C12.402,58.947 12.37,58.72 12.304,58.52C12.239,58.317 12.144,58.145 12.021,58.005C11.899,57.865 11.75,57.758 11.573,57.683C11.395,57.608 11.194,57.571 10.967,57.571C10.739,57.571 10.534,57.608 10.355,57.683C10.177,57.758 10.027,57.865 9.903,58.005C9.782,58.145 9.689,58.317 9.623,58.52C9.558,58.72 9.525,58.947 9.525,59.199C9.525,59.453 9.558,59.682 9.623,59.885C9.689,60.085 9.782,60.256 9.903,60.396C10.027,60.536 10.177,60.643 10.355,60.718C10.534,60.79 10.739,60.826 10.967,60.826C11.194,60.826 11.395,60.79 11.573,60.718C11.75,60.643 11.899,60.536 12.021,60.396C12.144,60.256 12.239,60.085 12.304,59.885C12.37,59.682 12.402,59.453 12.402,59.199ZM18.656,56.651L18.656,61.75L18.04,61.75C17.949,61.75 17.872,61.736 17.809,61.708C17.749,61.678 17.688,61.626 17.627,61.554L15.223,58.513C15.232,58.603 15.238,58.692 15.24,58.779C15.245,58.862 15.247,58.942 15.247,59.017L15.247,61.75L14.204,61.75L14.204,56.651L14.827,56.651C14.879,56.651 14.922,56.653 14.957,56.658C14.992,56.662 15.023,56.672 15.051,56.686C15.079,56.697 15.106,56.715 15.132,56.738C15.158,56.761 15.187,56.793 15.219,56.833L17.645,59.895C17.633,59.797 17.625,59.703 17.62,59.612C17.616,59.518 17.613,59.431 17.613,59.349L17.613,56.651L18.656,56.651ZM24.546,59.199C24.546,59.567 24.482,59.91 24.353,60.228C24.227,60.545 24.049,60.821 23.818,61.057C23.587,61.29 23.308,61.474 22.981,61.606C22.657,61.74 22.297,61.806 21.9,61.806C21.503,61.806 21.142,61.74 20.815,61.606C20.488,61.474 20.208,61.29 19.975,61.057C19.744,60.821 19.564,60.545 19.436,60.228C19.31,59.91 19.247,59.567 19.247,59.199C19.247,58.83 19.31,58.487 19.436,58.17C19.564,57.852 19.744,57.577 19.975,57.344C20.208,57.11 20.488,56.927 20.815,56.794C21.142,56.661 21.503,56.594 21.9,56.594C22.297,56.594 22.657,56.662 22.981,56.798C23.308,56.931 23.587,57.114 23.818,57.347C24.049,57.58 24.227,57.856 24.353,58.173C24.482,58.49 24.546,58.832 24.546,59.199ZM23.335,59.199C23.335,58.947 23.302,58.72 23.237,58.52C23.172,58.317 23.077,58.145 22.953,58.005C22.832,57.865 22.683,57.758 22.505,57.683C22.328,57.608 22.126,57.571 21.9,57.571C21.671,57.571 21.467,57.608 21.287,57.683C21.11,57.758 20.959,57.865 20.836,58.005C20.715,58.145 20.621,58.317 20.556,58.52C20.491,58.72 20.458,58.947 20.458,59.199C20.458,59.453 20.491,59.682 20.556,59.885C20.621,60.085 20.715,60.256 20.836,60.396C20.959,60.536 21.11,60.643 21.287,60.718C21.467,60.79 21.671,60.826 21.9,60.826C22.126,60.826 22.328,60.79 22.505,60.718C22.683,60.643 22.832,60.536 22.953,60.396C23.077,60.256 23.172,60.085 23.237,59.885C23.302,59.682 23.335,59.453 23.335,59.199Z" style="fill-rule:nonzero;"/>
    <path d="M49,111C49,110.448 48.552,110 48,110L2,110C1.448,110 1,110.448 1,111L1,116C1,116.552 1.448,117 2,117L48,117C48.552,117 49,116.552 49,116L49,111Z" style="fill:rgb(139,191,64);fill-opacity:0.5;"/>
    <path d="M49,111C49,110.448 48.552,110 48,110L2,110C1.448,110 1,110.448 1,111L1,116C1,116.552 1.448,117 2,117L48,117C48.552,117 49,116.552 49,116L49,111Z" style="fill:none;stroke:rgb(139,191,64);stroke-width:1px;"/>
    <path d="M7.726,111.4L7.726,116.5L6.684,116.5L6.684,113.567C6.684,113.499 6.685,113.426 6.687,113.346C6.692,113.267 6.699,113.187 6.708,113.105L5.354,115.726C5.312,115.808 5.254,115.87 5.182,115.912C5.112,115.954 5.032,115.975 4.941,115.975L4.779,115.975C4.689,115.975 4.607,115.954 4.535,115.912C4.465,115.87 4.409,115.808 4.367,115.726L3.012,113.098C3.019,113.182 3.025,113.265 3.03,113.346C3.034,113.426 3.037,113.499 3.037,113.567L3.037,116.5L1.994,116.5L1.994,111.4L2.897,111.4C2.948,111.4 2.992,111.402 3.03,111.404C3.069,111.406 3.104,111.413 3.135,111.425C3.165,111.437 3.192,111.455 3.215,111.481C3.241,111.504 3.265,111.538 3.289,111.582L4.601,114.169C4.648,114.258 4.692,114.35 4.734,114.445C4.778,114.541 4.82,114.639 4.86,114.739C4.9,114.637 4.941,114.536 4.983,114.438C5.027,114.34 5.074,114.247 5.122,114.158L6.432,111.582C6.455,111.538 6.478,111.504 6.502,111.481C6.527,111.455 6.555,111.437 6.586,111.425C6.616,111.413 6.65,111.406 6.687,111.404C6.727,111.402 6.772,111.4 6.824,111.4L7.726,111.4ZM13.613,113.948C13.613,114.317 13.549,114.66 13.421,114.977C13.295,115.295 13.116,115.571 12.885,115.807C12.654,116.04 12.375,116.223 12.049,116.356C11.724,116.49 11.364,116.556 10.967,116.556C10.571,116.556 10.209,116.49 9.882,116.356C9.556,116.223 9.276,116.04 9.042,115.807C8.811,115.571 8.632,115.295 8.503,114.977C8.377,114.66 8.314,114.317 8.314,113.948C8.314,113.58 8.377,113.237 8.503,112.919C8.632,112.602 8.811,112.327 9.042,112.093C9.276,111.86 9.556,111.677 9.882,111.544C10.209,111.411 10.571,111.344 10.967,111.344C11.364,111.344 11.724,111.412 12.049,111.547C12.375,111.68 12.654,111.864 12.885,112.097C13.116,112.33 13.295,112.606 13.421,112.923C13.549,113.24 13.613,113.582 13.613,113.948ZM12.402,113.948C12.402,113.696 12.37,113.47 12.304,113.269C12.239,113.066 12.144,112.895 12.021,112.755C11.899,112.615 11.75,112.508 11.573,112.433C11.395,112.358 11.194,112.321 10.967,112.321C10.739,112.321 10.534,112.358 10.355,112.433C10.177,112.508 10.027,112.615 9.903,112.755C9.782,112.895 9.689,113.066 9.623,113.269C9.558,113.47 9.525,113.696 9.525,113.948C9.525,114.203 9.558,114.431 9.623,114.634C9.689,114.835 9.782,115.005 9.903,115.145C10.027,115.285 10.177,115.393 10.355,115.467C10.534,115.54 10.739,115.576 10.967,115.576C11.194,115.576 11.395,115.54 11.573,115.467C11.75,115.393 11.899,115.285 12.021,115.145C12.144,115.005 12.239,114.835 12.304,114.634C12.37,114.431 12.402,114.203 12.402,113.948ZM18.656,111.4L18.656,116.5L18.04,116.5C17.949,116.5 17.872,116.486 17.809,116.458C17.749,116.428 17.688,116.376 17.627,116.304L15.223,113.262C15.232,113.353 15.238,113.442 15.24,113.528C15.245,113.612 15.247,113.692 15.247,113.766L15.247,116.5L14.204,116.5L14.204,111.4L14.827,111.4C14.879,111.4 14.922,111.403 14.957,111.407C14.992,111.412 15.023,111.421 15.051,111.435C15.079,111.447 15.106,111.465 15.132,111.488C15.158,111.511 15.187,111.543 15.219,111.582L17.645,114.645C17.633,114.547 17.625,114.452 17.62,114.361C17.616,114.268 17.613,114.181 17.613,114.099L17.613,111.4L18.656,111.4ZM24.546,113.948C24.546,114.317 24.482,114.66 24.353,114.977C24.227,115.295 24.049,115.571 23.818,115.807C23.587,116.04 23.308,116.223 22.981,116.356C22.657,116.49 22.297,116.556 21.9,116.556C21.503,116.556 21.142,116.49 20.815,116.356C20.488,116.223 20.208,116.04 19.975,115.807C19.744,115.571 19.564,115.295 19.436,114.977C19.31,114.66 19.247,114.317 19.247,113.948C19.247,113.58 19.31,113.237 19.436,112.919C19.564,112.602 19.744,112.327 19.975,112.093C20.208,111.86 20.488,111.677 20.815,111.544C21.142,111.411 21.503,111.344 21.9,111.344C22.297,111.344 22.657,111.412 22.981,111.547C23.308,111.68 23.587,111.864 23.818,112.097C24.049,112.33 24.227,112.606 24.353,112.923C24.482,113.24 24.546,113.582 24.546,113.948ZM23.335,113.948C23.335,113.696 23.302,113.47 23.237,113.269C23.172,113.066 23.077,112.895 22.953,112.755C22.832,112.615 22.683,112.508 22.505,112.433C22.328,112.358 22.126,112.321 21.9,112.321C21.671,112.321 21.467,112.358 21.287,112.433C21.11,112.508 20.959,112.615 20.836,112.755C20.715,112.895 20.621,113.066 20.556,113.269C20.491,113.47 20.458,113.696 20.458,113.948C20.458,114.203 20.491,114.431 20.556,114.634C20.621,114.835 20.715,115.005 20.836,115.145C20.959,115.285 21.11,115.393 21.287,115.467C21.467,115.54 21.671,115.576 21.9,115.576C22.126,115.576 22.328,115.54 22.505,115.467C22.683,115.393 22.832,115.285 22.953,115.145C23.077,115.005 23.172,114.835 23.237,114.634C23.302,114.431 23.335,114.203 23.335,113.948ZM29.47,112.436C29.435,112.492 29.397,112.534 29.358,112.562C29.32,112.59 29.271,112.604 29.211,112.604C29.157,112.604 29.099,112.588 29.036,112.555C28.975,112.52 28.905,112.482 28.826,112.44C28.749,112.398 28.66,112.361 28.56,112.328C28.459,112.293 28.345,112.275 28.217,112.275C27.995,112.275 27.829,112.323 27.72,112.419C27.612,112.512 27.559,112.639 27.559,112.8C27.559,112.903 27.591,112.988 27.657,113.056C27.722,113.124 27.807,113.182 27.912,113.231C28.019,113.28 28.141,113.325 28.276,113.367C28.414,113.407 28.554,113.453 28.696,113.504C28.838,113.553 28.977,113.611 29.113,113.679C29.25,113.747 29.372,113.833 29.477,113.938C29.584,114.043 29.67,114.171 29.736,114.323C29.801,114.472 29.834,114.653 29.834,114.865C29.834,115.101 29.793,115.322 29.711,115.527C29.629,115.732 29.51,115.912 29.354,116.066C29.2,116.218 29.009,116.338 28.78,116.426C28.554,116.513 28.296,116.556 28.007,116.556C27.848,116.556 27.686,116.54 27.52,116.507C27.357,116.474 27.198,116.429 27.044,116.37C26.89,116.31 26.745,116.239 26.61,116.157C26.475,116.075 26.357,115.984 26.257,115.884L26.607,115.331C26.635,115.291 26.671,115.259 26.715,115.233C26.762,115.205 26.812,115.191 26.866,115.191C26.936,115.191 27.006,115.213 27.076,115.257C27.148,115.302 27.228,115.351 27.317,115.404C27.408,115.458 27.512,115.507 27.629,115.551C27.745,115.596 27.883,115.618 28.042,115.618C28.256,115.618 28.423,115.571 28.542,115.478C28.661,115.382 28.721,115.232 28.721,115.026C28.721,114.907 28.688,114.811 28.623,114.736C28.557,114.661 28.471,114.599 28.364,114.55C28.259,114.501 28.138,114.458 28.003,114.421C27.868,114.384 27.729,114.343 27.587,114.298C27.444,114.252 27.305,114.196 27.17,114.13C27.035,114.063 26.913,113.975 26.806,113.868C26.701,113.758 26.616,113.623 26.551,113.462C26.485,113.299 26.453,113.098 26.453,112.86C26.453,112.669 26.491,112.482 26.568,112.3C26.645,112.118 26.758,111.956 26.908,111.813C27.057,111.671 27.24,111.558 27.457,111.474C27.674,111.388 27.923,111.344 28.203,111.344C28.359,111.344 28.511,111.357 28.658,111.383C28.807,111.406 28.948,111.442 29.081,111.491C29.214,111.538 29.338,111.595 29.452,111.663C29.569,111.728 29.673,111.803 29.764,111.887L29.47,112.436ZM34.088,112.338L32.653,112.338L32.653,116.5L31.47,116.5L31.47,112.338L30.035,112.338L30.035,111.4L34.088,111.4L34.088,112.338Z" style="fill-rule:nonzero;"/>
    <path d="M49,165.75C49,165.198 48.552,164.75 48,164.75L2,164.75C1.448,164.75 1,165.198 1,165.75L1,170.75C1,171.302 1.448,171.75 2,171.75L48,171.75C48.552,171.75 49,171.302 49,170.75L49,165.75Z" style="fill:rgb(139,191,64);fill-opacity:0.5;"/>
    <path d="M49,165.75C49,165.198 48.552,164.75 48,164.75L2,164.75C1.448,164.75 1,165.198 1,165.75L1,170.75C1,171.302 1.448,171.75 2,171.75L48,171.75C48.552,171.75 49,171.302 49,170.75L49,165.75Z" style="fill:none;stroke:rgb(139,191,64);stroke-width:1px;"/>
    <path d="M7.726,166.15L7.726,171.25L6.684,171.25L6.684,168.317C6.684,168.249 6.685,168.176 6.687,168.096C6.692,168.017 6.699,167.937 6.708,167.855L5.354,170.476C5.312,170.558 5.254,170.62 5.182,170.662C5.112,170.704 5.032,170.725 4.941,170.725L4.779,170.725C4.689,170.725 4.607,170.704 4.535,170.662C4.465,170.62 4.409,170.558 4.367,170.476L3.012,167.848C3.019,167.932 3.025,168.015 3.03,168.096C3.034,168.176 3.037,168.249 3.037,168.317L3.037,171.25L1.994,171.25L1.994,166.15L2.897,166.15C2.948,166.15 2.992,166.152 3.03,166.154C3.069,166.156 3.104,166.163 3.135,166.175C3.165,166.187 3.192,166.205 3.215,166.231C3.241,166.254 3.265,166.288 3.289,166.332L4.601,168.919C4.648,169.008 4.692,169.1 4.734,169.195C4.778,169.291 4.82,169.389 4.86,169.489C4.9,169.387 4.941,169.286 4.983,169.188C5.027,169.09 5.074,168.997 5.122,168.908L6.432,166.332C6.455,166.288 6.478,166.254 6.502,166.231C6.527,166.205 6.555,166.187 6.586,166.175C6.616,166.163 6.65,166.156 6.687,166.154C6.727,166.152 6.772,166.15 6.824,166.15L7.726,166.15ZM13.613,168.698C13.613,169.067 13.549,169.41 13.421,169.727C13.295,170.045 13.116,170.321 12.885,170.557C12.654,170.79 12.375,170.973 12.049,171.106C11.724,171.24 11.364,171.306 10.967,171.306C10.571,171.306 10.209,171.24 9.882,171.106C9.556,170.973 9.276,170.79 9.042,170.557C8.811,170.321 8.632,170.045 8.503,169.727C8.377,169.41 8.314,169.067 8.314,168.698C8.314,168.33 8.377,167.987 8.503,167.669C8.632,167.352 8.811,167.077 9.042,166.843C9.276,166.61 9.556,166.427 9.882,166.294C10.209,166.161 10.571,166.094 10.967,166.094C11.364,166.094 11.724,166.162 12.049,166.297C12.375,166.43 12.654,166.614 12.885,166.847C13.116,167.08 13.295,167.356 13.421,167.673C13.549,167.99 13.613,168.332 13.613,168.698ZM12.402,168.698C12.402,168.446 12.37,168.22 12.304,168.019C12.239,167.816 12.144,167.645 12.021,167.505C11.899,167.365 11.75,167.258 11.573,167.183C11.395,167.108 11.194,167.071 10.967,167.071C10.739,167.071 10.534,167.108 10.355,167.183C10.177,167.258 10.027,167.365 9.903,167.505C9.782,167.645 9.689,167.816 9.623,168.019C9.558,168.22 9.525,168.446 9.525,168.698C9.525,168.953 9.558,169.181 9.623,169.384C9.689,169.585 9.782,169.755 9.903,169.895C10.027,170.035 10.177,170.143 10.355,170.217C10.534,170.29 10.739,170.326 10.967,170.326C11.194,170.326 11.395,170.29 11.573,170.217C11.75,170.143 11.899,170.035 12.021,169.895C12.144,169.755 12.239,169.585 12.304,169.384C12.37,169.181 12.402,168.953 12.402,168.698ZM18.656,166.15L18.656,171.25L18.04,171.25C17.949,171.25 17.872,171.236 17.809,171.208C17.749,171.178 17.688,171.126 17.627,171.054L15.223,168.012C15.232,168.103 15.238,168.192 15.24,168.278C15.245,168.362 15.247,168.442 15.247,168.516L15.247,171.25L14.204,171.25L14.204,166.15L14.827,166.15C14.879,166.15 14.922,166.153 14.957,166.157C14.992,166.162 15.023,166.171 15.051,166.185C15.079,166.197 15.106,166.215 15.132,166.238C15.158,166.261 15.187,166.293 15.219,166.332L17.645,169.395C17.633,169.297 17.625,169.202 17.62,169.111C17.616,169.018 17.613,168.931 17.613,168.849L17.613,166.15L18.656,166.15ZM24.546,168.698C24.546,169.067 24.482,169.41 24.353,169.727C24.227,170.045 24.049,170.321 23.818,170.557C23.587,170.79 23.308,170.973 22.981,171.106C22.657,171.24 22.297,171.306 21.9,171.306C21.503,171.306 21.142,171.24 20.815,171.106C20.488,170.973 20.208,170.79 19.975,170.557C19.744,170.321 19.564,170.045 19.436,169.727C19.31,169.41 19.247,169.067 19.247,168.698C19.247,168.33 19.31,167.987 19.436,167.669C19.564,167.352 19.744,167.077 19.975,166.843C20.208,166.61 20.488,166.427 20.815,166.294C21.142,166.161 21.503,166.094 21.9,166.094C22.297,166.094 22.657,166.162 22.981,166.297C23.308,166.43 23.587,166.614 23.818,166.847C24.049,167.08 24.227,167.356 24.353,167.673C24.482,167.99 24.546,168.332 24.546,168.698ZM23.335,168.698C23.335,168.446 23.302,168.22 23.237,168.019C23.172,167.816 23.077,167.645 22.953,167.505C22.832,167.365 22.683,167.258 22.505,167.183C22.328,167.108 22.126,167.071 21.9,167.071C21.671,167.071 21.467,167.108 21.287,167.183C21.11,167.258 20.959,167.365 20.836,167.505C20.715,167.645 20.621,167.816 20.556,168.019C20.491,168.22 20.458,168.446 20.458,168.698C20.458,168.953 20.491,169.181 20.556,169.384C20.621,169.585 20.715,169.755 20.836,169.895C20.959,170.035 21.11,170.143 21.287,170.217C21.467,170.29 21.671,170.326 21.9,170.326C22.126,170.326 22.328,170.29 22.505,170.217C22.683,170.143 22.832,170.035 22.953,169.895C23.077,169.755 23.172,169.585 23.237,169.384C23.302,169.181 23.335,168.953 23.335,168.698ZM27.842,167.06L27.842,168.352L29.585,168.352L29.585,169.265L27.842,169.265L27.842,171.25L26.652,171.25L26.652,166.15L29.935,166.15L29.935,167.06L27.842,167.06ZM32.311,168.653C32.619,168.653 32.841,168.579 32.976,168.432C33.111,168.285 33.179,168.08 33.179,167.816C33.179,167.7 33.161,167.594 33.126,167.498C33.091,167.402 33.038,167.321 32.965,167.253C32.895,167.183 32.806,167.129 32.696,167.092C32.589,167.055 32.46,167.036 32.311,167.036L31.695,167.036L31.695,168.653L32.311,168.653ZM32.311,166.15C32.67,166.15 32.978,166.194 33.235,166.28C33.494,166.364 33.706,166.481 33.872,166.63C34.04,166.779 34.164,166.955 34.243,167.158C34.322,167.361 34.362,167.581 34.362,167.816C34.362,168.071 34.321,168.304 34.239,168.516C34.158,168.729 34.033,168.911 33.865,169.062C33.697,169.214 33.483,169.333 33.224,169.419C32.968,169.503 32.663,169.545 32.311,169.545L31.695,169.545L31.695,171.25L30.512,171.25L30.512,166.15L32.311,166.15Z" style="fill-rule:nonzero;"/>
    <path d="M49,220.5C49,219.948 48.552,219.5 48,219.5L2,219.5C1.448,219.5 1,219.948 1,220.5L1,225.5C1,226.052 1.448,226.5 2,226.5L48,226.5C48.552,226.5 49,226.052 49,225.5L49,220.5Z" style="fill:rgb(139,191,64);fill-opacity:0.5;"/>
    <path d="M49,220.5C49,219.948 48.552,219.5 48,219.5L2,219.5C1.448,219.5 1,219.948 1,220.5L1,225.5C1,226.052 1.448,226.5 2,226.5L48,226.5C48.552,226.5 49,226.052 49,225.5L49,220.5Z" style="fill:none;stroke:rgb(139,191,64);stroke-width:1px;"/>
    <path d="M7.726,220.9L7.726,226L6.684,226L6.684,223.067C6.684,222.999 6.685,222.926 6.687,222.846C6.692,222.767 6.699,222.687 6.708,222.605L5.354,225.226C5.312,225.308 5.254,225.37 5.182,225.412C5.112,225.454 5.032,225.475 4.941,225.475L4.779,225.475C4.689,225.475 4.607,225.454 4.535,225.412C4.465,225.37 4.409,225.308 4.367,225.226L3.012,222.598C3.019,222.682 3.025,222.765 3.03,222.846C3.034,222.926 3.037,222.999 3.037,223.067L3.037,226L1.994,226L1.994,220.9L2.897,220.9C2.948,220.9 2.992,220.902 3.03,220.904C3.069,220.906 3.104,220.913 3.135,220.925C3.165,220.937 3.192,220.955 3.215,220.981C3.241,221.004 3.265,221.038 3.289,221.082L4.601,223.669C4.648,223.758 4.692,223.85 4.734,223.945C4.778,224.041 4.82,224.139 4.86,224.239C4.9,224.137 4.941,224.036 4.983,223.938C5.027,223.84 5.074,223.747 5.122,223.658L6.432,221.082C6.455,221.038 6.478,221.004 6.502,220.981C6.527,220.955 6.555,220.937 6.586,220.925C6.616,220.913 6.65,220.906 6.687,220.904C6.727,220.902 6.772,220.9 6.824,220.9L7.726,220.9ZM13.613,223.448C13.613,223.817 13.549,224.16 13.421,224.477C13.295,224.795 13.116,225.071 12.885,225.307C12.654,225.54 12.375,225.723 12.049,225.856C11.724,225.99 11.364,226.056 10.967,226.056C10.571,226.056 10.209,225.99 9.882,225.856C9.556,225.723 9.276,225.54 9.042,225.307C8.811,225.071 8.632,224.795 8.503,224.477C8.377,224.16 8.314,223.817 8.314,223.448C8.314,223.08 8.377,222.737 8.503,222.419C8.632,222.102 8.811,221.827 9.042,221.593C9.276,221.36 9.556,221.177 9.882,221.044C10.209,220.911 10.571,220.844 10.967,220.844C11.364,220.844 11.724,220.912 12.049,221.047C12.375,221.18 12.654,221.364 12.885,221.597C13.116,221.83 13.295,222.106 13.421,222.423C13.549,222.74 13.613,223.082 13.613,223.448ZM12.402,223.448C12.402,223.196 12.37,222.97 12.304,222.769C12.239,222.566 12.144,222.395 12.021,222.255C11.899,222.115 11.75,222.008 11.573,221.933C11.395,221.858 11.194,221.821 10.967,221.821C10.739,221.821 10.534,221.858 10.355,221.933C10.177,222.008 10.027,222.115 9.903,222.255C9.782,222.395 9.689,222.566 9.623,222.769C9.558,222.97 9.525,223.196 9.525,223.448C9.525,223.703 9.558,223.931 9.623,224.134C9.689,224.335 9.782,224.505 9.903,224.645C10.027,224.785 10.177,224.893 10.355,224.967C10.534,225.04 10.739,225.076 10.967,225.076C11.194,225.076 11.395,225.04 11.573,224.967C11.75,224.893 11.899,224.785 12.021,224.645C12.144,224.505 12.239,224.335 12.304,224.134C12.37,223.931 12.402,223.703 12.402,223.448ZM18.656,220.9L18.656,226L18.04,226C17.949,226 17.872,225.986 17.809,225.958C17.749,225.928 17.688,225.876 17.627,225.804L15.223,222.762C15.232,222.853 15.238,222.942 15.24,223.028C15.245,223.112 15.247,223.192 15.247,223.266L15.247,226L14.204,226L14.204,220.9L14.827,220.9C14.879,220.9 14.922,220.903 14.957,220.907C14.992,220.912 15.023,220.921 15.051,220.935C15.079,220.947 15.106,220.965 15.132,220.988C15.158,221.011 15.187,221.043 15.219,221.082L17.645,224.145C17.633,224.047 17.625,223.952 17.62,223.861C17.616,223.768 17.613,223.681 17.613,223.599L17.613,220.9L18.656,220.9ZM24.546,223.448C24.546,223.817 24.482,224.16 24.353,224.477C24.227,224.795 24.049,225.071 23.818,225.307C23.587,225.54 23.308,225.723 22.981,225.856C22.657,225.99 22.297,226.056 21.9,226.056C21.503,226.056 21.142,225.99 20.815,225.856C20.488,225.723 20.208,225.54 19.975,225.307C19.744,225.071 19.564,224.795 19.436,224.477C19.31,224.16 19.247,223.817 19.247,223.448C19.247,223.08 19.31,222.737 19.436,222.419C19.564,222.102 19.744,221.827 19.975,221.593C20.208,221.36 20.488,221.177 20.815,221.044C21.142,220.911 21.503,220.844 21.9,220.844C22.297,220.844 22.657,220.912 22.981,221.047C23.308,221.18 23.587,221.364 23.818,221.597C24.049,221.83 24.227,222.106 24.353,222.423C24.482,222.74 24.546,223.082 24.546,223.448ZM23.335,223.448C23.335,223.196 23.302,222.97 23.237,222.769C23.172,222.566 23.077,222.395 22.953,222.255C22.832,222.115 22.683,222.008 22.505,221.933C22.328,221.858 22.126,221.821 21.9,221.821C21.671,221.821 21.467,221.858 21.287,221.933C21.11,222.008 20.959,222.115 20.836,222.255C20.715,222.395 20.621,222.566 20.556,222.769C20.491,222.97 20.458,223.196 20.458,223.448C20.458,223.703 20.491,223.931 20.556,224.134C20.621,224.335 20.715,224.505 20.836,224.645C20.959,224.785 21.11,224.893 21.287,224.967C21.467,225.04 21.671,225.076 21.9,225.076C22.126,225.076 22.328,225.04 22.505,224.967C22.683,224.893 22.832,224.785 22.953,224.645C23.077,224.505 23.172,224.335 23.237,224.134C23.302,223.931 23.335,223.703 23.335,223.448ZM29.47,221.936C29.435,221.992 29.397,222.034 29.358,222.062C29.32,222.09 29.271,222.104 29.211,222.104C29.157,222.104 29.099,222.088 29.036,222.055C28.975,222.02 28.905,221.982 28.826,221.94C28.749,221.898 28.66,221.861 28.56,221.828C28.459,221.793 28.345,221.775 28.217,221.775C27.995,221.775 27.829,221.823 27.72,221.919C27.612,222.012 27.559,222.139 27.559,222.3C27.559,222.403 27.591,222.488 27.657,222.556C27.722,222.624 27.807,222.682 27.912,222.731C28.019,222.78 28.141,222.825 28.276,222.867C28.414,222.907 28.554,222.953 28.696,223.004C28.838,223.053 28.977,223.111 29.113,223.179C29.25,223.247 29.372,223.333 29.477,223.438C29.584,223.543 29.67,223.671 29.736,223.823C29.801,223.972 29.834,224.153 29.834,224.365C29.834,224.601 29.793,224.822 29.711,225.027C29.629,225.232 29.51,225.412 29.354,225.566C29.2,225.718 29.009,225.838 28.78,225.926C28.554,226.013 28.296,226.056 28.007,226.056C27.848,226.056 27.686,226.04 27.52,226.007C27.357,225.974 27.198,225.929 27.044,225.87C26.89,225.81 26.745,225.739 26.61,225.657C26.475,225.575 26.357,225.484 26.257,225.384L26.607,224.831C26.635,224.791 26.671,224.759 26.715,224.733C26.762,224.705 26.812,224.691 26.866,224.691C26.936,224.691 27.006,224.713 27.076,224.757C27.148,224.802 27.228,224.851 27.317,224.904C27.408,224.958 27.512,225.007 27.629,225.051C27.745,225.096 27.883,225.118 28.042,225.118C28.256,225.118 28.423,225.071 28.542,224.978C28.661,224.882 28.721,224.732 28.721,224.526C28.721,224.407 28.688,224.311 28.623,224.236C28.557,224.161 28.471,224.099 28.364,224.05C28.259,224.001 28.138,223.958 28.003,223.921C27.868,223.884 27.729,223.843 27.587,223.798C27.444,223.752 27.305,223.696 27.17,223.63C27.035,223.563 26.913,223.475 26.806,223.368C26.701,223.258 26.616,223.123 26.551,222.962C26.485,222.799 26.453,222.598 26.453,222.36C26.453,222.169 26.491,221.982 26.568,221.8C26.645,221.618 26.758,221.456 26.908,221.313C27.057,221.171 27.24,221.058 27.457,220.974C27.674,220.888 27.923,220.844 28.203,220.844C28.359,220.844 28.511,220.857 28.658,220.883C28.807,220.906 28.948,220.942 29.081,220.991C29.214,221.038 29.338,221.095 29.452,221.163C29.569,221.228 29.673,221.303 29.764,221.387L29.47,221.936ZM34.088,221.838L32.653,221.838L32.653,226L31.47,226L31.47,221.838L30.035,221.838L30.035,220.9L34.088,220.9L34.088,221.838ZM37.853,224.036L36.558,224.036L36.558,225.429L35.676,225.429L35.676,224.036L34.388,224.036L34.388,223.259L35.676,223.259L35.676,221.873L36.558,221.873L36.558,223.259L37.853,223.259L37.853,224.036ZM39.729,221.81L39.729,223.102L41.472,223.102L41.472,224.015L39.729,224.015L39.729,226L38.539,226L38.539,220.9L41.822,220.9L41.822,221.81L39.729,221.81ZM44.198,223.403C44.506,223.403 44.728,223.329 44.863,223.182C44.998,223.035 45.066,222.83 45.066,222.566C45.066,222.45 45.049,222.344 45.014,222.248C44.979,222.152 44.925,222.071 44.853,222.003C44.783,221.933 44.693,221.879 44.583,221.842C44.476,221.805 44.347,221.786 44.198,221.786L43.582,221.786L43.582,223.403L44.198,223.403ZM44.198,220.9C44.557,220.9 44.865,220.944 45.122,221.03C45.381,221.114 45.593,221.231 45.759,221.38C45.927,221.529 46.051,221.705 46.13,221.908C46.209,222.111 46.249,222.331 46.249,222.566C46.249,222.821 46.208,223.054 46.127,223.266C46.045,223.479 45.92,223.661 45.752,223.812C45.584,223.964 45.371,224.083 45.112,224.169C44.855,224.253 44.55,224.295 44.198,224.295L43.582,224.295L43.582,226L42.399,226L42.399,220.9L44.198,220.9Z" style="fill-rule:nonzero;"/>
    <path d="M49,275.25C49,274.698 48.552,274.25 48,274.25L2,274.25C1.448,274.25 1,274.698 1,275.25L1,280.25C1,280.802 1.448,281.25 2,281.25L48,281.25C48.552,281.25 49,280.802 49,280.25L49,275.25Z" style="fill:rgb(139,191,64);fill-opacity:0.5;"/>
    <path d="M49,275.25C49,274.698 48.552,274.25 48,274.25L2,274.25C1.448,274.25 1,274.698 1,275.25L1,280.25C1,280.802 1.448,281.25 2,281.25L48,281.25C48.552,281.25 49,280.802 49,280.25L49,275.25Z" style="fill:none;stroke:rgb(139,191,64);stroke-width:1px;"/>
    <path d="M5.066,279.805L5.066,280.75L1.994,280.75L1.994,275.65L3.177,275.65L3.177,279.805L5.066,279.805ZM8.261,278.8L7.789,277.404C7.754,277.315 7.716,277.211 7.677,277.092C7.637,276.971 7.597,276.84 7.558,276.7C7.523,276.843 7.485,276.975 7.446,277.096C7.406,277.217 7.369,277.322 7.334,277.411L6.865,278.8L8.261,278.8ZM10.141,280.75L9.224,280.75C9.121,280.75 9.038,280.727 8.975,280.68C8.912,280.631 8.864,280.569 8.832,280.494L8.531,279.605L6.592,279.605L6.291,280.494C6.265,280.56 6.218,280.619 6.151,280.673C6.085,280.724 6.004,280.75 5.906,280.75L4.982,280.75L6.956,275.65L8.167,275.65L10.141,280.75ZM13.603,276.588L12.168,276.588L12.168,280.75L10.985,280.75L10.985,276.588L9.55,276.588L9.55,275.65L13.603,275.65L13.603,276.588ZM17.42,279.43C17.448,279.43 17.476,279.436 17.504,279.448C17.532,279.457 17.559,279.475 17.585,279.5L18.054,279.994C17.848,280.262 17.591,280.465 17.28,280.603C16.972,280.738 16.607,280.806 16.185,280.806C15.797,280.806 15.45,280.741 15.142,280.61C14.836,280.477 14.576,280.295 14.361,280.064C14.149,279.831 13.986,279.555 13.871,279.238C13.757,278.918 13.7,278.572 13.7,278.198C13.7,277.818 13.762,277.469 13.885,277.152C14.009,276.832 14.183,276.557 14.407,276.326C14.631,276.095 14.899,275.915 15.212,275.787C15.524,275.659 15.868,275.594 16.244,275.594C16.436,275.594 16.615,275.612 16.783,275.647C16.953,275.68 17.112,275.726 17.259,275.787C17.406,275.845 17.542,275.916 17.665,276C17.789,276.084 17.898,276.175 17.994,276.273L17.595,276.809C17.57,276.842 17.539,276.872 17.504,276.9C17.469,276.926 17.42,276.938 17.357,276.938C17.315,276.938 17.276,276.929 17.238,276.91C17.201,276.892 17.161,276.87 17.119,276.844C17.077,276.816 17.031,276.787 16.979,276.756C16.93,276.724 16.871,276.695 16.801,276.669C16.733,276.641 16.653,276.618 16.559,276.599C16.468,276.58 16.361,276.571 16.237,276.571C16.041,276.571 15.862,276.607 15.698,276.679C15.537,276.752 15.397,276.858 15.278,276.998C15.162,277.136 15.07,277.306 15.005,277.509C14.942,277.71 14.911,277.939 14.911,278.198C14.911,278.46 14.946,278.692 15.016,278.895C15.088,279.098 15.185,279.269 15.306,279.409C15.43,279.547 15.573,279.652 15.737,279.724C15.9,279.797 16.075,279.833 16.262,279.833C16.369,279.833 16.467,279.828 16.556,279.819C16.644,279.807 16.727,279.79 16.804,279.766C16.881,279.741 16.953,279.708 17.021,279.668C17.089,279.626 17.158,279.574 17.228,279.511C17.256,279.488 17.286,279.469 17.319,279.455C17.351,279.439 17.385,279.43 17.42,279.43ZM22.917,275.65L22.917,280.75L21.727,280.75L21.727,278.594L19.655,278.594L19.655,280.75L18.465,280.75L18.465,275.65L19.655,275.65L19.655,277.782L21.727,277.782L21.727,275.65L22.917,275.65Z" style="fill-rule:nonzero;"/>
    <path d="M49,1.5C49,0.948 48.552,0.5 48,0.5L2,0.5C1.448,0.5 1,0.948 1,1.5L1,6.5C1,7.052 1.448,7.5 2,7.5L48,7.5C48.552,7.5 49,7.052 49,6.5L49,1.5Z" style="fill:rgb(139,191,64);fill-opacity:0.5;"/>
    <path d="M49,1.5C49,0.948 48.552,0.5 48,0.5L2,0.5C1.448,0.5 1,0.948 1,1.5L1,6.5C1,7.052 1.448,7.5 2,7.5L48,7.5C48.552,7.5 49,7.052 49,6.5L49,1.5Z" style="fill:none;stroke:rgb(139,191,64);stroke-width:1px;"/>
    <path d="M3.793,4.403C4.101,4.403 4.322,4.33 4.457,4.183C4.593,4.036 4.661,3.83 4.661,3.567C4.661,3.45 4.643,3.344 4.608,3.248C4.573,3.152 4.519,3.071 4.447,3.003C4.377,2.933 4.287,2.879 4.178,2.842C4.07,2.805 3.942,2.786 3.793,2.786L3.177,2.786L3.177,4.403L3.793,4.403ZM3.793,1.901C4.152,1.901 4.46,1.944 4.717,2.03C4.976,2.114 5.188,2.231 5.354,2.38C5.521,2.529 5.645,2.705 5.725,2.909C5.804,3.112 5.844,3.331 5.844,3.567C5.844,3.821 5.803,4.054 5.721,4.267C5.639,4.479 5.515,4.661 5.347,4.813C5.179,4.964 4.965,5.083 4.706,5.17C4.449,5.254 4.145,5.295 3.793,5.295L3.177,5.295L3.177,7L1.994,7L1.994,1.901L3.793,1.901ZM11.344,4.449C11.344,4.817 11.28,5.16 11.151,5.478C11.025,5.795 10.847,6.071 10.616,6.307C10.385,6.54 10.106,6.723 9.779,6.856C9.455,6.989 9.094,7.056 8.698,7.056C8.301,7.056 7.939,6.989 7.613,6.856C7.286,6.723 7.006,6.54 6.773,6.307C6.542,6.071 6.362,5.795 6.234,5.478C6.108,5.16 6.045,4.817 6.045,4.449C6.045,4.08 6.108,3.737 6.234,3.42C6.362,3.102 6.542,2.827 6.773,2.594C7.006,2.36 7.286,2.177 7.613,2.044C7.939,1.911 8.301,1.845 8.698,1.845C9.094,1.845 9.455,1.912 9.779,2.047C10.106,2.181 10.385,2.364 10.616,2.597C10.847,2.83 11.025,3.106 11.151,3.423C11.28,3.74 11.344,4.082 11.344,4.449ZM10.133,4.449C10.133,4.197 10.1,3.97 10.035,3.769C9.969,3.567 9.875,3.395 9.751,3.255C9.63,3.115 9.481,3.008 9.303,2.933C9.126,2.858 8.924,2.821 8.698,2.821C8.469,2.821 8.265,2.858 8.085,2.933C7.908,3.008 7.757,3.115 7.634,3.255C7.512,3.395 7.419,3.567 7.354,3.769C7.288,3.97 7.256,4.197 7.256,4.449C7.256,4.703 7.288,4.932 7.354,5.135C7.419,5.335 7.512,5.505 7.634,5.646C7.757,5.786 7.908,5.893 8.085,5.968C8.265,6.04 8.469,6.076 8.698,6.076C8.924,6.076 9.126,6.04 9.303,5.968C9.481,5.893 9.63,5.786 9.751,5.646C9.875,5.505 9.969,5.335 10.035,5.135C10.1,4.932 10.133,4.703 10.133,4.449ZM15.008,6.055L15.008,7L11.935,7L11.935,1.901L13.118,1.901L13.118,6.055L15.008,6.055ZM17.281,5.061L17.281,7L16.098,7L16.098,5.061L14.25,1.901L15.293,1.901C15.395,1.901 15.476,1.925 15.534,1.974C15.595,2.021 15.645,2.081 15.685,2.156L16.406,3.64C16.466,3.757 16.521,3.866 16.57,3.969C16.619,4.069 16.662,4.169 16.7,4.267C16.735,4.166 16.774,4.066 16.819,3.966C16.865,3.863 16.919,3.754 16.98,3.64L17.694,2.156C17.71,2.126 17.73,2.095 17.753,2.065C17.777,2.035 17.803,2.008 17.834,1.985C17.866,1.959 17.903,1.939 17.942,1.925C17.984,1.909 18.03,1.901 18.079,1.901L19.129,1.901L17.281,5.061Z" style="fill-rule:nonzero;"/>
</svg>
