<?xml version="1.0" encoding="UTF-8" standalone="no"?>
<!DOCTYPE svg PUBLIC "-//W3C//DTD SVG 1.1//EN" "http://www.w3.org/Graphics/SVG/1.1/DTD/svg11.dtd">
<svg width="100%" height="100%" viewBox="0 0 31 24" version="1.1" xmlns="http://www.w3.org/2000/svg" xmlns:xlink="http://www.w3.org/1999/xlink" xml:space="preserve" xmlns:serif="http://www.serif.com/" style="fill-rule:evenodd;clip-rule:evenodd;">
    <path d="M28.5,3.5C28.5,2.948 28.052,2.5 27.5,2.5L3.5,2.5C2.948,2.5 2.5,2.948 2.5,3.5L2.5,8.5C2.5,9.052 2.948,9.5 3.5,9.5L27.5,9.5C28.052,9.5 28.5,9.052 28.5,8.5L28.5,3.5Z" style="fill:rgb(139,191,64);fill-opacity:0.5;"/>
    <path d="M28.5,3.5C28.5,2.948 28.052,2.5 27.5,2.5L3.5,2.5C2.948,2.5 2.5,2.948 2.5,3.5L2.5,8.5C2.5,9.052 2.948,9.5 3.5,9.5L27.5,9.5C28.052,9.5 28.5,9.052 28.5,8.5L28.5,3.5Z" style="fill:none;stroke:rgb(139,191,64);stroke-width:1px;"/>
    <path d="M11.608,4.244L9.968,4.244L9.968,9L8.616,9L8.616,4.244L6.976,4.244L6.976,3.172L11.608,3.172L11.608,4.244ZM15.087,4.852L15.087,9L14.319,9C14.164,9 14.063,8.931 14.015,8.792L13.943,8.552C13.863,8.629 13.78,8.7 13.695,8.764C13.609,8.825 13.517,8.879 13.419,8.924C13.323,8.967 13.217,9 13.103,9.024C12.991,9.051 12.868,9.064 12.735,9.064C12.508,9.064 12.307,9.025 12.131,8.948C11.957,8.868 11.811,8.757 11.691,8.616C11.571,8.475 11.48,8.308 11.419,8.116C11.357,7.924 11.327,7.713 11.327,7.484L11.327,4.852L12.567,4.852L12.567,7.484C12.567,7.689 12.613,7.848 12.707,7.96C12.8,8.072 12.937,8.128 13.119,8.128C13.255,8.128 13.381,8.1 13.499,8.044C13.619,7.985 13.735,7.907 13.847,7.808L13.847,4.852L15.087,4.852ZM16.953,5.3C17.033,5.225 17.116,5.156 17.201,5.092C17.287,5.028 17.377,4.975 17.473,4.932C17.572,4.887 17.677,4.852 17.789,4.828C17.904,4.801 18.028,4.788 18.161,4.788C18.388,4.788 18.588,4.828 18.761,4.908C18.937,4.985 19.085,5.095 19.205,5.236C19.325,5.375 19.416,5.541 19.477,5.736C19.539,5.928 19.569,6.137 19.569,6.364L19.569,9L18.329,9L18.329,6.364C18.329,6.161 18.283,6.004 18.189,5.892C18.096,5.777 17.959,5.72 17.777,5.72C17.641,5.72 17.513,5.749 17.393,5.808C17.276,5.864 17.161,5.941 17.049,6.04L17.049,9L15.809,9L15.809,4.852L16.577,4.852C16.732,4.852 16.833,4.921 16.881,5.06L16.953,5.3ZM22.832,6.428C22.832,6.329 22.818,6.233 22.792,6.14C22.768,6.047 22.726,5.964 22.668,5.892C22.612,5.817 22.537,5.757 22.444,5.712C22.35,5.667 22.237,5.644 22.104,5.644C21.869,5.644 21.685,5.712 21.552,5.848C21.418,5.981 21.33,6.175 21.288,6.428L22.832,6.428ZM21.272,7.148C21.312,7.495 21.417,7.747 21.588,7.904C21.758,8.059 21.978,8.136 22.248,8.136C22.392,8.136 22.516,8.119 22.62,8.084C22.724,8.049 22.816,8.011 22.896,7.968C22.978,7.925 23.053,7.887 23.12,7.852C23.189,7.817 23.261,7.8 23.336,7.8C23.434,7.8 23.509,7.836 23.56,7.908L23.92,8.352C23.792,8.499 23.653,8.619 23.504,8.712C23.357,8.803 23.205,8.875 23.048,8.928C22.893,8.979 22.737,9.013 22.58,9.032C22.425,9.053 22.277,9.064 22.136,9.064C21.845,9.064 21.572,9.017 21.316,8.924C21.062,8.828 20.84,8.687 20.648,8.5C20.458,8.313 20.308,8.081 20.196,7.804C20.086,7.527 20.032,7.204 20.032,6.836C20.032,6.559 20.078,6.296 20.172,6.048C20.268,5.8 20.404,5.583 20.58,5.396C20.758,5.209 20.973,5.061 21.224,4.952C21.477,4.843 21.762,4.788 22.08,4.788C22.354,4.788 22.605,4.831 22.832,4.916C23.061,5.001 23.257,5.125 23.42,5.288C23.585,5.451 23.713,5.651 23.804,5.888C23.897,6.123 23.944,6.389 23.944,6.688C23.944,6.781 23.94,6.857 23.932,6.916C23.924,6.975 23.909,7.021 23.888,7.056C23.866,7.091 23.837,7.115 23.8,7.128C23.765,7.141 23.72,7.148 23.664,7.148L21.272,7.148Z" style="fill:white;fill-rule:nonzero;"/>
    <path d="M29.5,14.5C29.5,13.948 29.052,13.5 28.5,13.5L2.5,13.5C1.948,13.5 1.5,13.948 1.5,14.5L1.5,21.5C1.5,22.052 1.948,22.5 2.5,22.5L28.5,22.5C29.052,22.5 29.5,22.052 29.5,21.5L29.5,14.5Z" style="fill:rgb(139,191,64);fill-opacity:0.5;"/>
    <path d="M29.5,14.5C29.5,13.948 29.052,13.5 28.5,13.5L2.5,13.5C1.948,13.5 1.5,13.948 1.5,14.5L1.5,21.5C1.5,22.052 1.948,22.5 2.5,22.5L28.5,22.5C29.052,22.5 29.5,22.052 29.5,21.5L29.5,14.5Z" style="fill:none;stroke:rgb(139,191,64);stroke-width:1px;"/>
    <path d="M11.608,16.244L9.968,16.244L9.968,21L8.616,21L8.616,16.244L6.976,16.244L6.976,15.172L11.608,15.172L11.608,16.244ZM15.087,16.852L15.087,21L14.319,21C14.164,21 14.063,20.931 14.015,20.792L13.943,20.552C13.863,20.629 13.78,20.7 13.695,20.764C13.609,20.825 13.517,20.879 13.419,20.924C13.323,20.967 13.217,21 13.103,21.024C12.991,21.051 12.868,21.064 12.735,21.064C12.508,21.064 12.307,21.025 12.131,20.948C11.957,20.868 11.811,20.757 11.691,20.616C11.571,20.475 11.48,20.308 11.419,20.116C11.357,19.924 11.327,19.713 11.327,19.484L11.327,16.852L12.567,16.852L12.567,19.484C12.567,19.689 12.613,19.848 12.707,19.96C12.8,20.072 12.937,20.128 13.119,20.128C13.255,20.128 13.381,20.1 13.499,20.044C13.619,19.985 13.735,19.907 13.847,19.808L13.847,16.852L15.087,16.852ZM16.953,17.3C17.033,17.225 17.116,17.156 17.201,17.092C17.287,17.028 17.377,16.975 17.473,16.932C17.572,16.887 17.677,16.852 17.789,16.828C17.904,16.801 18.028,16.788 18.161,16.788C18.388,16.788 18.588,16.828 18.761,16.908C18.937,16.985 19.085,17.095 19.205,17.236C19.325,17.375 19.416,17.541 19.477,17.736C19.539,17.928 19.569,18.137 19.569,18.364L19.569,21L18.329,21L18.329,18.364C18.329,18.161 18.283,18.004 18.189,17.892C18.096,17.777 17.959,17.72 17.777,17.72C17.641,17.72 17.513,17.749 17.393,17.808C17.276,17.864 17.161,17.941 17.049,18.04L17.049,21L15.809,21L15.809,16.852L16.577,16.852C16.732,16.852 16.833,16.921 16.881,17.06L16.953,17.3ZM22.832,18.428C22.832,18.329 22.818,18.233 22.792,18.14C22.768,18.047 22.726,17.964 22.668,17.892C22.612,17.817 22.537,17.757 22.444,17.712C22.35,17.667 22.237,17.644 22.104,17.644C21.869,17.644 21.685,17.712 21.552,17.848C21.418,17.981 21.33,18.175 21.288,18.428L22.832,18.428ZM21.272,19.148C21.312,19.495 21.417,19.747 21.588,19.904C21.758,20.059 21.978,20.136 22.248,20.136C22.392,20.136 22.516,20.119 22.62,20.084C22.724,20.049 22.816,20.011 22.896,19.968C22.978,19.925 23.053,19.887 23.12,19.852C23.189,19.817 23.261,19.8 23.336,19.8C23.434,19.8 23.509,19.836 23.56,19.908L23.92,20.352C23.792,20.499 23.653,20.619 23.504,20.712C23.357,20.803 23.205,20.875 23.048,20.928C22.893,20.979 22.737,21.013 22.58,21.032C22.425,21.053 22.277,21.064 22.136,21.064C21.845,21.064 21.572,21.017 21.316,20.924C21.062,20.828 20.84,20.687 20.648,20.5C20.458,20.313 20.308,20.081 20.196,19.804C20.086,19.527 20.032,19.204 20.032,18.836C20.032,18.559 20.078,18.296 20.172,18.048C20.268,17.8 20.404,17.583 20.58,17.396C20.758,17.209 20.973,17.061 21.224,16.952C21.477,16.843 21.762,16.788 22.08,16.788C22.354,16.788 22.605,16.831 22.832,16.916C23.061,17.001 23.257,17.125 23.42,17.288C23.585,17.451 23.713,17.651 23.804,17.888C23.897,18.123 23.944,18.389 23.944,18.688C23.944,18.781 23.94,18.857 23.932,18.916C23.924,18.975 23.909,19.021 23.888,19.056C23.866,19.091 23.837,19.115 23.8,19.128C23.765,19.141 23.72,19.148 23.664,19.148L21.272,19.148Z" style="fill-rule:nonzero;"/>
</svg>
