<?xml version="1.0" encoding="UTF-8" standalone="no"?>
<!DOCTYPE svg PUBLIC "-//W3C//DTD SVG 1.1//EN" "http://www.w3.org/Graphics/SVG/1.1/DTD/svg11.dtd">
<svg width="100%" height="100%" viewBox="0 0 40 84" version="1.1" xmlns="http://www.w3.org/2000/svg" xmlns:xlink="http://www.w3.org/1999/xlink" xml:space="preserve" xmlns:serif="http://www.serif.com/" style="fill-rule:evenodd;clip-rule:evenodd;">
    <path d="M37.5,3.5C37.5,2.948 37.052,2.5 36.5,2.5L3.5,2.5C2.948,2.5 2.5,2.948 2.5,3.5L2.5,17.5C2.5,18.052 2.948,18.5 3.5,18.5L36.5,18.5C37.052,18.5 37.5,18.052 37.5,17.5L37.5,3.5Z" style="fill:rgb(139,191,64);fill-opacity:0.5;"/>
    <path d="M37.5,3.5C37.5,2.948 37.052,2.5 36.5,2.5L3.5,2.5C2.948,2.5 2.5,2.948 2.5,3.5L2.5,17.5C2.5,18.052 2.948,18.5 3.5,18.5L36.5,18.5C37.052,18.5 37.5,18.052 37.5,17.5L37.5,3.5Z" style="fill:none;stroke:rgb(139,191,64);stroke-width:1px;"/>
    <path d="M21.845,12.632L20.437,8.784C20.368,8.613 20.296,8.411 20.221,8.176C20.147,7.941 20.072,7.688 19.997,7.416C19.928,7.688 19.856,7.944 19.781,8.184C19.707,8.419 19.635,8.624 19.565,8.8L18.165,12.632L21.845,12.632ZM25.645,17L23.981,17C23.795,17 23.643,16.955 23.525,16.864C23.408,16.768 23.32,16.651 23.261,16.512L22.397,14.152L17.605,14.152L16.741,16.512C16.699,16.635 16.616,16.747 16.493,16.848C16.371,16.949 16.219,17 16.037,17L14.357,17L18.909,5.432L21.101,5.432L25.645,17Z" style="fill-rule:nonzero;"/>
    <path d="M37.5,66.5C37.5,65.948 37.052,65.5 36.5,65.5L3.5,65.5C2.948,65.5 2.5,65.948 2.5,66.5L2.5,80.5C2.5,81.052 2.948,81.5 3.5,81.5L36.5,81.5C37.052,81.5 37.5,81.052 37.5,80.5L37.5,66.5Z" style="fill:rgb(139,191,64);fill-opacity:0.5;"/>
    <path d="M37.5,66.5C37.5,65.948 37.052,65.5 36.5,65.5L3.5,65.5C2.948,65.5 2.5,65.948 2.5,66.5L2.5,80.5C2.5,81.052 2.948,81.5 3.5,81.5L36.5,81.5C37.052,81.5 37.5,81.052 37.5,80.5L37.5,66.5Z" style="fill:none;stroke:rgb(139,191,64);stroke-width:1px;"/>
    <path d="M20.35,78.32C20.75,78.32 21.086,78.272 21.358,78.176C21.63,78.08 21.846,77.952 22.006,77.792C22.172,77.632 22.289,77.445 22.358,77.232C22.433,77.019 22.47,76.792 22.47,76.552C22.47,76.301 22.43,76.077 22.35,75.88C22.27,75.677 22.145,75.507 21.974,75.368C21.804,75.224 21.582,75.115 21.31,75.04C21.044,74.965 20.721,74.928 20.342,74.928L18.174,74.928L18.174,78.32L20.35,78.32ZM18.174,70.096L18.174,73.44L19.886,73.44C20.622,73.44 21.177,73.307 21.55,73.04C21.929,72.773 22.118,72.349 22.118,71.768C22.118,71.165 21.948,70.736 21.606,70.48C21.265,70.224 20.732,70.096 20.006,70.096L18.174,70.096ZM20.006,68.432C20.764,68.432 21.412,68.504 21.95,68.648C22.489,68.792 22.929,68.997 23.27,69.264C23.617,69.531 23.87,69.853 24.03,70.232C24.19,70.611 24.27,71.037 24.27,71.512C24.27,71.784 24.23,72.045 24.15,72.296C24.07,72.541 23.945,72.773 23.774,72.992C23.609,73.205 23.396,73.4 23.134,73.576C22.878,73.752 22.572,73.901 22.214,74.024C23.804,74.381 24.598,75.24 24.598,76.6C24.598,77.091 24.505,77.544 24.318,77.96C24.132,78.376 23.86,78.736 23.502,79.04C23.145,79.339 22.705,79.573 22.182,79.744C21.66,79.915 21.062,80 20.39,80L16.022,80L16.022,68.432L20.006,68.432Z" style="fill-rule:nonzero;"/>
</svg>
