<?xml version="1.0" encoding="UTF-8" standalone="no"?>
<!DOCTYPE svg PUBLIC "-//W3C//DTD SVG 1.1//EN" "http://www.w3.org/Graphics/SVG/1.1/DTD/svg11.dtd">
<svg width="100%" height="100%" viewBox="0 0 11 22" version="1.1" xmlns="http://www.w3.org/2000/svg" xmlns:xlink="http://www.w3.org/1999/xlink" xml:space="preserve" xmlns:serif="http://www.serif.com/" style="fill-rule:evenodd;clip-rule:evenodd;">
    <path d="M8.5,2.75C8.5,2.612 8.388,2.5 8.25,2.5L2.75,2.5C2.612,2.5 2.5,2.612 2.5,2.75L2.5,8.25C2.5,8.388 2.612,8.5 2.75,8.5L8.25,8.5C8.388,8.5 8.5,8.388 8.5,8.25L8.5,2.75Z" style="fill:rgb(139,191,64);fill-opacity:0.5;"/>
    <path d="M8.5,2.75C8.5,2.612 8.388,2.5 8.25,2.5L2.75,2.5C2.612,2.5 2.5,2.612 2.5,2.75L2.5,8.25C2.5,8.388 2.612,8.5 2.75,8.5L8.25,8.5C8.388,8.5 8.5,8.388 8.5,8.25L8.5,2.75Z" style="fill:none;stroke:rgb(139,191,64);stroke-width:1px;"/>
    <path d="M6.275,3L3.4,5.849L5.125,7.558L8,4.709L6.275,3ZM4.626,8L3,6.388L3,8L4.626,8Z"/>
    <path d="M9.5,13.5C9.5,12.948 9.052,12.5 8.5,12.5L2.5,12.5C1.948,12.5 1.5,12.948 1.5,13.5L1.5,19.5C1.5,20.052 1.948,20.5 2.5,20.5L8.5,20.5C9.052,20.5 9.5,20.052 9.5,19.5L9.5,13.5Z" style="fill:rgb(139,191,64);fill-opacity:0.5;"/>
    <path d="M9.5,13.5C9.5,12.948 9.052,12.5 8.5,12.5L2.5,12.5C1.948,12.5 1.5,12.948 1.5,13.5L1.5,19.5C1.5,20.052 1.948,20.5 2.5,20.5L8.5,20.5C9.052,20.5 9.5,20.052 9.5,19.5L9.5,13.5Z" style="fill:none;stroke:rgb(139,191,64);stroke-width:1px;"/>
    <path d="M6.275,14L3.4,16.849L5.125,18.558L8,15.709L6.275,14ZM4.626,19L3,17.388L3,19L4.626,19Z" style="fill:white;"/>
</svg>
