<?xml version="1.0" encoding="UTF-8" standalone="no"?>
<!DOCTYPE svg PUBLIC "-//W3C//DTD SVG 1.1//EN" "http://www.w3.org/Graphics/SVG/1.1/DTD/svg11.dtd">
<svg width="100%" height="100%" viewBox="0 0 134 208" version="1.1" xmlns="http://www.w3.org/2000/svg" xmlns:xlink="http://www.w3.org/1999/xlink" xml:space="preserve" xmlns:serif="http://www.serif.com/" style="fill-rule:evenodd;clip-rule:evenodd;">
    <path d="M129.512,201C129.512,200.448 129.063,200 128.511,200L100.512,200C99.96,200 99.512,200.448 99.512,201L99.512,205C99.512,205.552 99.96,206 100.512,206L128.511,206C129.063,206 129.512,205.552 129.512,205L129.512,201Z" style="fill:rgb(139,191,64);fill-opacity:0.5;"/>
    <path d="M129.512,201C129.512,200.448 129.063,200 128.511,200L100.512,200C99.96,200 99.512,200.448 99.512,201L99.512,205C99.512,205.552 99.96,206 100.512,206L128.511,206C129.063,206 129.512,205.552 129.512,205L129.512,201Z" style="fill:none;stroke:rgb(139,191,64);stroke-width:1px;"/>
    <path d="M105.881,204.52C105.998,204.52 106.09,204.553 106.158,204.618C106.225,204.681 106.259,204.765 106.259,204.87L106.259,205.5L102.675,205.5L102.675,205.15C102.675,205.082 102.689,205.01 102.717,204.933C102.745,204.856 102.794,204.786 102.864,204.723L104.334,203.242C104.46,203.116 104.57,202.996 104.663,202.882C104.757,202.768 104.834,202.656 104.894,202.546C104.955,202.434 105,202.323 105.031,202.213C105.061,202.101 105.076,201.984 105.076,201.86C105.076,201.657 105.027,201.502 104.929,201.394C104.834,201.285 104.687,201.23 104.488,201.23C104.327,201.23 104.191,201.273 104.079,201.359C103.969,201.443 103.893,201.548 103.851,201.674C103.802,201.803 103.738,201.888 103.659,201.93C103.579,201.972 103.466,201.981 103.319,201.958L102.745,201.856C102.783,201.602 102.854,201.38 102.959,201.191C103.066,201.002 103.198,200.845 103.354,200.719C103.513,200.593 103.694,200.5 103.897,200.439C104.1,200.376 104.318,200.344 104.551,200.344C104.803,200.344 105.03,200.382 105.23,200.456C105.433,200.529 105.606,200.63 105.748,200.761C105.891,200.892 105.999,201.048 106.074,201.23C106.151,201.41 106.189,201.608 106.189,201.825C106.189,202.012 106.162,202.184 106.109,202.343C106.057,202.502 105.986,202.653 105.895,202.798C105.804,202.94 105.698,203.079 105.577,203.214C105.458,203.347 105.331,203.483 105.195,203.62L104.198,204.642C104.326,204.603 104.453,204.572 104.579,204.551C104.705,204.53 104.822,204.52 104.929,204.52L105.881,204.52ZM116.16,204.716L116.16,205.5L113.255,205.5L113.255,204.716L114.235,204.716L114.235,202.143C114.235,202.078 114.236,202.013 114.238,201.947C114.241,201.88 114.244,201.812 114.249,201.744L113.668,202.227C113.616,202.267 113.565,202.292 113.514,202.301C113.465,202.308 113.418,202.308 113.374,202.301C113.329,202.292 113.29,202.276 113.255,202.255C113.22,202.232 113.194,202.209 113.178,202.185L112.835,201.73L114.424,200.397L115.32,200.397L115.32,204.716L116.16,204.716ZM122.805,201.856C122.843,201.602 122.914,201.38 123.019,201.191C123.126,201.002 123.258,200.845 123.414,200.719C123.573,200.593 123.754,200.5 123.957,200.439C124.16,200.376 124.378,200.344 124.611,200.344C124.863,200.344 125.087,200.381 125.283,200.453C125.479,200.523 125.645,200.619 125.78,200.74C125.916,200.861 126.018,201.002 126.088,201.163C126.158,201.322 126.193,201.49 126.193,201.667C126.193,201.828 126.177,201.971 126.144,202.094C126.112,202.216 126.063,202.322 125.997,202.413C125.934,202.502 125.855,202.577 125.759,202.64C125.666,202.701 125.559,202.752 125.437,202.794C126.002,202.993 126.284,203.378 126.284,203.949C126.284,204.22 126.235,204.456 126.137,204.656C126.039,204.857 125.907,205.024 125.742,205.157C125.578,205.29 125.388,205.39 125.171,205.458C124.954,205.523 124.728,205.556 124.492,205.556C124.25,205.556 124.034,205.53 123.845,205.479C123.656,205.425 123.488,205.344 123.341,205.234C123.194,205.122 123.064,204.98 122.952,204.807C122.843,204.634 122.747,204.429 122.665,204.191L123.148,203.995C123.274,203.946 123.391,203.933 123.498,203.956C123.606,203.98 123.683,204.033 123.729,204.117C123.834,204.311 123.945,204.452 124.062,204.541C124.181,204.627 124.32,204.67 124.478,204.67C124.6,204.67 124.705,204.651 124.793,204.611C124.884,204.569 124.959,204.516 125.017,204.453C125.078,204.388 125.123,204.315 125.154,204.233C125.184,204.151 125.199,204.068 125.199,203.984C125.199,203.875 125.191,203.777 125.175,203.69C125.161,203.602 125.119,203.526 125.049,203.463C124.979,203.4 124.873,203.352 124.73,203.319C124.59,203.284 124.394,203.267 124.142,203.267L124.142,202.518C124.355,202.518 124.526,202.502 124.657,202.469C124.787,202.436 124.888,202.392 124.958,202.336C125.03,202.278 125.078,202.208 125.101,202.126C125.125,202.044 125.136,201.954 125.136,201.856C125.136,201.656 125.087,201.502 124.989,201.394C124.894,201.285 124.747,201.23 124.548,201.23C124.387,201.23 124.251,201.273 124.139,201.359C124.029,201.443 123.953,201.548 123.911,201.674C123.862,201.803 123.798,201.888 123.719,201.93C123.639,201.972 123.526,201.981 123.379,201.958L122.805,201.856Z" style="fill-rule:nonzero;"/>
    <path d="M110.761,203L107.949,205.143L107.949,200.857L110.761,203Z" style="fill-rule:nonzero;"/>
    <path d="M118.261,203L121.074,200.857L121.074,205.143L118.261,203Z" style="fill-rule:nonzero;"/>
    <path d="M97.512,149C97.512,148.448 97.063,148 96.511,148L68.512,148C67.96,148 67.512,148.448 67.512,149L67.512,153C67.512,153.552 67.96,154 68.512,154L96.511,154C97.063,154 97.512,153.552 97.512,153L97.512,149Z" style="fill:rgb(139,191,64);fill-opacity:0.5;"/>
    <path d="M97.512,149C97.512,148.448 97.063,148 96.511,148L68.512,148C67.96,148 67.512,148.448 67.512,149L67.512,153C67.512,153.552 67.96,154 68.512,154L96.511,154C97.063,154 97.512,153.552 97.512,153L97.512,149Z" style="fill:none;stroke:rgb(139,191,64);stroke-width:1px;"/>
    <path d="M70.773,149.856C70.811,149.602 70.882,149.38 70.987,149.191C71.094,149.002 71.226,148.845 71.382,148.719C71.541,148.593 71.722,148.5 71.925,148.439C72.128,148.376 72.346,148.344 72.579,148.344C72.831,148.344 73.055,148.381 73.251,148.453C73.447,148.523 73.613,148.619 73.748,148.74C73.884,148.861 73.986,149.002 74.056,149.163C74.126,149.322 74.161,149.49 74.161,149.667C74.161,149.828 74.145,149.971 74.112,150.094C74.08,150.216 74.031,150.322 73.965,150.413C73.902,150.502 73.823,150.577 73.727,150.64C73.634,150.701 73.527,150.752 73.405,150.794C73.97,150.993 74.252,151.378 74.252,151.949C74.252,152.22 74.203,152.456 74.105,152.656C74.007,152.857 73.875,153.024 73.71,153.157C73.546,153.29 73.356,153.39 73.139,153.458C72.922,153.523 72.696,153.556 72.46,153.556C72.218,153.556 72.002,153.53 71.813,153.479C71.624,153.425 71.456,153.344 71.309,153.234C71.162,153.122 71.032,152.98 70.92,152.807C70.811,152.634 70.715,152.429 70.633,152.191L71.116,151.995C71.242,151.946 71.359,151.933 71.466,151.956C71.574,151.98 71.65,152.033 71.697,152.117C71.802,152.311 71.913,152.452 72.03,152.541C72.149,152.627 72.288,152.67 72.446,152.67C72.568,152.67 72.673,152.651 72.761,152.611C72.852,152.569 72.927,152.516 72.985,152.453C73.046,152.388 73.091,152.315 73.122,152.233C73.152,152.151 73.167,152.068 73.167,151.984C73.167,151.875 73.159,151.777 73.143,151.69C73.129,151.602 73.087,151.526 73.017,151.463C72.947,151.4 72.841,151.352 72.698,151.319C72.558,151.284 72.362,151.267 72.11,151.267L72.11,150.518C72.323,150.518 72.494,150.502 72.625,150.469C72.755,150.436 72.856,150.392 72.926,150.336C72.998,150.278 73.046,150.208 73.069,150.126C73.093,150.044 73.104,149.954 73.104,149.856C73.104,149.656 73.055,149.502 72.957,149.394C72.862,149.285 72.715,149.23 72.516,149.23C72.355,149.23 72.219,149.273 72.107,149.359C71.997,149.443 71.921,149.548 71.879,149.674C71.83,149.803 71.766,149.888 71.687,149.93C71.607,149.972 71.494,149.981 71.347,149.958L70.773,149.856ZM83.897,152.52C84.014,152.52 84.106,152.553 84.174,152.618C84.241,152.681 84.275,152.765 84.275,152.87L84.275,153.5L80.691,153.5L80.691,153.15C80.691,153.082 80.705,153.01 80.733,152.933C80.761,152.856 80.81,152.786 80.88,152.723L82.35,151.242C82.476,151.116 82.586,150.996 82.679,150.882C82.772,150.768 82.85,150.656 82.91,150.546C82.971,150.434 83.016,150.323 83.047,150.213C83.077,150.101 83.092,149.984 83.092,149.86C83.092,149.657 83.043,149.502 82.945,149.394C82.85,149.285 82.703,149.23 82.504,149.23C82.343,149.23 82.207,149.273 82.095,149.359C81.985,149.443 81.909,149.548 81.867,149.674C81.818,149.803 81.754,149.888 81.675,149.93C81.595,149.972 81.482,149.981 81.335,149.958L80.761,149.856C80.799,149.602 80.87,149.38 80.975,149.191C81.082,149.002 81.214,148.845 81.37,148.719C81.529,148.593 81.71,148.5 81.913,148.439C82.116,148.376 82.334,148.344 82.567,148.344C82.819,148.344 83.046,148.382 83.246,148.456C83.449,148.529 83.622,148.63 83.764,148.761C83.906,148.892 84.015,149.048 84.09,149.23C84.167,149.41 84.205,149.608 84.205,149.825C84.205,150.012 84.178,150.184 84.125,150.343C84.073,150.502 84.002,150.653 83.911,150.798C83.82,150.94 83.714,151.079 83.593,151.214C83.474,151.347 83.347,151.483 83.211,151.62L82.214,152.642C82.342,152.603 82.469,152.572 82.595,152.551C82.721,152.53 82.838,152.52 82.945,152.52L83.897,152.52ZM94.176,152.716L94.176,153.5L91.271,153.5L91.271,152.716L92.251,152.716L92.251,150.143C92.251,150.078 92.252,150.013 92.254,149.947C92.257,149.88 92.26,149.812 92.265,149.744L91.684,150.227C91.632,150.267 91.581,150.292 91.53,150.301C91.481,150.308 91.434,150.308 91.39,150.301C91.345,150.292 91.306,150.276 91.271,150.255C91.236,150.232 91.21,150.209 91.194,150.185L90.851,149.73L92.44,148.397L93.336,148.397L93.336,152.716L94.176,152.716Z" style="fill-rule:nonzero;"/>
    <path d="M78.762,151L75.949,153.143L75.949,148.857L78.762,151Z" style="fill-rule:nonzero;"/>
    <path d="M89.074,151L86.262,153.143L86.262,148.857L89.074,151Z" style="fill-rule:nonzero;"/>
    <path d="M65.512,97C65.512,96.448 65.063,96 64.511,96L36.512,96C35.96,96 35.512,96.448 35.512,97L35.512,101C35.512,101.552 35.96,102 36.512,102L64.511,102C65.063,102 65.512,101.552 65.512,101L65.512,97Z" style="fill:rgb(139,191,64);fill-opacity:0.5;"/>
    <path d="M65.512,97C65.512,96.448 65.063,96 64.511,96L36.512,96C35.96,96 35.512,96.448 35.512,97L35.512,101C35.512,101.552 35.96,102 36.512,102L64.511,102C65.063,102 65.512,101.552 65.512,101L65.512,97Z" style="fill:none;stroke:rgb(139,191,64);stroke-width:1px;"/>
    <path d="M47.647,100.52C47.763,100.52 47.856,100.553 47.923,100.618C47.991,100.681 48.025,100.765 48.025,100.87L48.025,101.5L44.441,101.5L44.441,101.15C44.441,101.082 44.455,101.01 44.483,100.933C44.511,100.856 44.56,100.786 44.63,100.723L46.1,99.243C46.226,99.117 46.335,98.996 46.429,98.882C46.522,98.768 46.599,98.656 46.66,98.546C46.72,98.434 46.766,98.323 46.796,98.214C46.827,98.102 46.842,97.984 46.842,97.86C46.842,97.657 46.793,97.502 46.695,97.394C46.599,97.285 46.452,97.23 46.254,97.23C46.093,97.23 45.956,97.273 45.844,97.36C45.735,97.444 45.659,97.549 45.617,97.675C45.568,97.803 45.504,97.888 45.424,97.93C45.345,97.972 45.232,97.981 45.085,97.958L44.511,97.857C44.548,97.602 44.619,97.381 44.724,97.192C44.832,97.003 44.963,96.845 45.12,96.719C45.278,96.593 45.459,96.5 45.662,96.439C45.865,96.376 46.083,96.345 46.317,96.345C46.569,96.345 46.795,96.382 46.996,96.457C47.199,96.529 47.371,96.63 47.514,96.761C47.656,96.892 47.765,97.048 47.839,97.23C47.916,97.41 47.955,97.608 47.955,97.825C47.955,98.012 47.928,98.184 47.874,98.343C47.823,98.502 47.752,98.653 47.661,98.798C47.57,98.94 47.464,99.079 47.342,99.215C47.223,99.348 47.096,99.483 46.961,99.621L45.963,100.642C46.092,100.603 46.219,100.572 46.345,100.551C46.471,100.53 46.587,100.52 46.695,100.52L47.647,100.52ZM56.41,100.716L56.41,101.5L53.505,101.5L53.505,100.716L54.485,100.716L54.485,98.144C54.485,98.078 54.486,98.013 54.489,97.948C54.491,97.88 54.495,97.812 54.499,97.745L53.918,98.228C53.867,98.267 53.816,98.292 53.764,98.301C53.715,98.308 53.669,98.308 53.624,98.301C53.58,98.292 53.54,98.277 53.505,98.256C53.47,98.232 53.445,98.209 53.428,98.186L53.085,97.731L54.674,96.397L55.57,96.397L55.57,100.716L56.41,100.716Z" style="fill-rule:nonzero;"/>
    <path d="M52.387,99L49.574,101.143L49.574,96.857L52.387,99Z" style="fill-rule:nonzero;"/>
    <path d="M33.5,45C33.5,44.448 33.052,44 32.5,44L4.5,44C3.948,44 3.5,44.448 3.5,45L3.5,49C3.5,49.552 3.948,50 4.5,50L32.5,50C33.052,50 33.5,49.552 33.5,49L33.5,45Z" style="fill:rgb(139,191,64);fill-opacity:0.5;"/>
    <path d="M33.5,45C33.5,44.448 33.052,44 32.5,44L4.5,44C3.948,44 3.5,44.448 3.5,45L3.5,49C3.5,49.552 3.948,50 4.5,50L32.5,50C33.052,50 33.5,49.552 33.5,49L33.5,45Z" style="fill:none;stroke:rgb(139,191,64);stroke-width:1px;"/>
    <path d="M11.932,44.401L11.932,49.5L11.316,49.5C11.225,49.5 11.148,49.486 11.085,49.458C11.024,49.428 10.964,49.376 10.903,49.304L8.498,46.263C8.508,46.353 8.514,46.442 8.516,46.529C8.521,46.612 8.523,46.692 8.523,46.767L8.523,49.5L7.48,49.5L7.48,44.401L8.103,44.401C8.154,44.401 8.197,44.403 8.232,44.408C8.267,44.412 8.299,44.422 8.327,44.436C8.355,44.447 8.382,44.465 8.407,44.488C8.433,44.511 8.462,44.543 8.495,44.583L10.92,47.645C10.909,47.547 10.9,47.453 10.896,47.362C10.891,47.268 10.889,47.181 10.889,47.099L10.889,44.401L11.932,44.401ZM17.821,46.949C17.821,47.317 17.757,47.66 17.629,47.978C17.503,48.295 17.324,48.571 17.093,48.807C16.862,49.04 16.583,49.224 16.257,49.356C15.932,49.49 15.572,49.556 15.175,49.556C14.779,49.556 14.417,49.49 14.09,49.356C13.764,49.224 13.484,49.04 13.25,48.807C13.019,48.571 12.84,48.295 12.711,47.978C12.585,47.66 12.522,47.317 12.522,46.949C12.522,46.58 12.585,46.237 12.711,45.92C12.84,45.602 13.019,45.327 13.25,45.094C13.484,44.86 13.764,44.677 14.09,44.544C14.417,44.411 14.779,44.344 15.175,44.344C15.572,44.344 15.932,44.412 16.257,44.548C16.583,44.681 16.862,44.864 17.093,45.097C17.324,45.33 17.503,45.606 17.629,45.923C17.757,46.24 17.821,46.582 17.821,46.949ZM16.61,46.949C16.61,46.697 16.578,46.47 16.512,46.27C16.447,46.067 16.352,45.895 16.229,45.755C16.107,45.615 15.958,45.508 15.781,45.433C15.603,45.358 15.402,45.321 15.175,45.321C14.947,45.321 14.742,45.358 14.563,45.433C14.385,45.508 14.235,45.615 14.111,45.755C13.99,45.895 13.897,46.067 13.831,46.27C13.766,46.47 13.733,46.697 13.733,46.949C13.733,47.203 13.766,47.432 13.831,47.635C13.897,47.835 13.99,48.006 14.111,48.146C14.235,48.286 14.385,48.393 14.563,48.468C14.742,48.54 14.947,48.576 15.175,48.576C15.402,48.576 15.603,48.54 15.781,48.468C15.958,48.393 16.107,48.286 16.229,48.146C16.352,48.006 16.447,47.835 16.512,47.635C16.578,47.432 16.61,47.203 16.61,46.949ZM21.118,45.311L21.118,46.602L22.861,46.602L22.861,47.516L21.118,47.516L21.118,49.5L19.928,49.5L19.928,44.401L23.211,44.401L23.211,45.311L21.118,45.311ZM29.52,44.401L29.52,49.5L28.477,49.5L28.477,46.567C28.477,46.499 28.479,46.426 28.481,46.347C28.486,46.267 28.493,46.187 28.502,46.105L27.147,48.727C27.105,48.808 27.048,48.87 26.976,48.912C26.906,48.954 26.825,48.975 26.734,48.975L26.573,48.975C26.482,48.975 26.401,48.954 26.328,48.912C26.258,48.87 26.202,48.808 26.16,48.727L24.806,46.098C24.813,46.182 24.819,46.265 24.823,46.347C24.828,46.426 24.83,46.499 24.83,46.567L24.83,49.5L23.787,49.5L23.787,44.401L24.69,44.401C24.742,44.401 24.786,44.402 24.823,44.404C24.863,44.406 24.898,44.413 24.928,44.425C24.959,44.437 24.986,44.455 25.009,44.481C25.035,44.504 25.059,44.538 25.082,44.583L26.395,47.169C26.442,47.258 26.486,47.35 26.528,47.446C26.572,47.541 26.614,47.639 26.654,47.74C26.694,47.637 26.734,47.536 26.776,47.439C26.821,47.341 26.867,47.247 26.916,47.158L28.225,44.583C28.249,44.538 28.272,44.504 28.295,44.481C28.321,44.455 28.349,44.437 28.379,44.425C28.41,44.413 28.444,44.406 28.481,44.404C28.521,44.402 28.566,44.401 28.617,44.401L29.52,44.401Z" style="fill-rule:nonzero;"/>
</svg>
