<?xml version="1.0" encoding="UTF-8" standalone="no"?>
<!-- Created with PhotoLine 23.53 (www.pl32.com) -->
<!DOCTYPE svg PUBLIC "-//W3C//DTD SVG 1.1//EN" "http://www.w3.org/Graphics/SVG/1.1/DTD/svg11.dtd">
<svg width="32" height="12" viewBox="0 0 32 12" version="1.1" xmlns="http://www.w3.org/2000/svg" xmlns:xlink="http://www.w3.org/1999/xlink">
  <path fill="#00c000" d="M3.5 2.5 L28.5 2.5 C29.05 2.5 29.5 2.95 29.5 3.5 L29.5 8.5 C29.5 9.05 29.05 9.5 28.5 9.5 L3.5 9.5 C2.95 9.5 2.5 9.05 2.5 8.5 L2.5 3.5 C2.5 2.95 2.95 2.5 3.5 2.5 Z"/>
  <path fill="none" stroke="#00de00" d="M3.5 2.5 L28.5 2.5 C29.05 2.5 29.5 2.95 29.5 3.5 L29.5 8.5 C29.5 9.05 29.05 9.5 28.5 9.5 L3.5 9.5 C2.95 9.5 2.5 9.05 2.5 8.5 L2.5 3.5 C2.5 2.95 2.95 2.5 3.5 2.5 Z"/>
</svg>
