<?xml version="1.0" encoding="UTF-8" standalone="no"?>
<!DOCTYPE svg PUBLIC "-//W3C//DTD SVG 1.1//EN" "http://www.w3.org/Graphics/SVG/1.1/DTD/svg11.dtd">
<svg width="100%" height="100%" viewBox="0 0 134 424" version="1.1" xmlns="http://www.w3.org/2000/svg" xmlns:xlink="http://www.w3.org/1999/xlink" xml:space="preserve" xmlns:serif="http://www.serif.com/" style="fill-rule:evenodd;clip-rule:evenodd;">
    <path d="M17,45C17,44.448 16.552,44 16,44L3,44C2.448,44 2,44.448 2,45L2,49C2,49.552 2.448,50 3,50L16,50C16.552,50 17,49.552 17,49L17,45Z" style="fill:rgb(139,191,64);fill-opacity:0.5;"/>
    <path d="M17,45C17,44.448 16.552,44 16,44L3,44C2.448,44 2,44.448 2,45L2,49C2,49.552 2.448,50 3,50L16,50C16.552,50 17,49.552 17,49L17,45Z" style="fill:none;stroke:rgb(139,191,64);stroke-width:1px;"/>
    <path d="M8.895,45.437C8.86,45.493 8.823,45.535 8.783,45.563C8.746,45.591 8.697,45.605 8.636,45.605C8.583,45.605 8.524,45.588 8.461,45.556C8.401,45.521 8.331,45.482 8.251,45.44C8.174,45.398 8.086,45.361 7.985,45.328C7.885,45.293 7.771,45.276 7.642,45.276C7.421,45.276 7.255,45.323 7.145,45.419C7.038,45.512 6.984,45.64 6.984,45.801C6.984,45.903 7.017,45.988 7.082,46.056C7.148,46.124 7.233,46.182 7.338,46.231C7.445,46.28 7.566,46.326 7.702,46.368C7.839,46.407 7.979,46.453 8.122,46.504C8.264,46.553 8.403,46.611 8.538,46.679C8.676,46.747 8.797,46.833 8.902,46.938C9.01,47.043 9.096,47.171 9.161,47.323C9.227,47.472 9.259,47.653 9.259,47.865C9.259,48.101 9.218,48.322 9.137,48.527C9.055,48.732 8.936,48.912 8.78,49.066C8.626,49.218 8.434,49.338 8.206,49.426C7.979,49.513 7.722,49.556 7.432,49.556C7.274,49.556 7.111,49.54 6.946,49.507C6.782,49.474 6.624,49.429 6.47,49.371C6.316,49.31 6.171,49.239 6.036,49.157C5.9,49.075 5.783,48.984 5.682,48.884L6.032,48.331C6.06,48.291 6.096,48.259 6.141,48.233C6.187,48.205 6.238,48.191 6.291,48.191C6.361,48.191 6.431,48.213 6.501,48.258C6.574,48.302 6.654,48.351 6.743,48.405C6.834,48.458 6.938,48.507 7.054,48.551C7.171,48.596 7.309,48.618 7.467,48.618C7.682,48.618 7.849,48.571 7.968,48.478C8.087,48.382 8.146,48.232 8.146,48.027C8.146,47.908 8.114,47.811 8.048,47.736C7.983,47.661 7.897,47.6 7.789,47.551C7.684,47.502 7.564,47.458 7.429,47.421C7.293,47.384 7.155,47.343 7.012,47.298C6.87,47.252 6.731,47.196 6.596,47.131C6.46,47.063 6.339,46.975 6.232,46.868C6.127,46.758 6.042,46.623 5.976,46.462C5.911,46.299 5.878,46.098 5.878,45.86C5.878,45.669 5.917,45.482 5.994,45.3C6.071,45.118 6.184,44.956 6.333,44.814C6.483,44.671 6.666,44.558 6.883,44.474C7.1,44.388 7.348,44.344 7.628,44.344C7.785,44.344 7.936,44.357 8.083,44.383C8.233,44.406 8.374,44.443 8.507,44.492C8.64,44.538 8.763,44.595 8.878,44.663C8.994,44.728 9.098,44.803 9.189,44.887L8.895,45.437ZM13.034,48.716L13.034,49.5L10.129,49.5L10.129,48.716L11.109,48.716L11.109,46.144C11.109,46.078 11.11,46.013 11.112,45.948C11.115,45.88 11.118,45.812 11.123,45.745L10.542,46.228C10.49,46.267 10.439,46.292 10.388,46.301C10.339,46.308 10.292,46.308 10.248,46.301C10.203,46.292 10.164,46.277 10.129,46.256C10.094,46.232 10.068,46.209 10.052,46.186L9.709,45.731L11.298,44.397L12.194,44.397L12.194,48.716L13.034,48.716Z" style="fill-rule:nonzero;"/>
    <path d="M33.5,98C33.5,97.448 33.052,97 32.5,97L19.5,97C18.948,97 18.5,97.448 18.5,98L18.5,102C18.5,102.552 18.948,103 19.5,103L32.5,103C33.052,103 33.5,102.552 33.5,102L33.5,98Z" style="fill:rgb(139,191,64);fill-opacity:0.5;"/>
    <path d="M33.5,98C33.5,97.448 33.052,97 32.5,97L19.5,97C18.948,97 18.5,97.448 18.5,98L18.5,102C18.5,102.552 18.948,103 19.5,103L32.5,103C33.052,103 33.5,102.552 33.5,102L33.5,98Z" style="fill:none;stroke:rgb(139,191,64);stroke-width:1px;"/>
    <path d="M25.395,98.437C25.36,98.493 25.323,98.534 25.283,98.563C25.246,98.591 25.197,98.605 25.136,98.605C25.083,98.605 25.024,98.588 24.961,98.556C24.901,98.521 24.831,98.482 24.751,98.44C24.674,98.398 24.586,98.361 24.485,98.328C24.385,98.293 24.271,98.275 24.142,98.275C23.921,98.275 23.755,98.323 23.645,98.419C23.538,98.512 23.484,98.64 23.484,98.801C23.484,98.903 23.517,98.988 23.582,99.056C23.648,99.124 23.733,99.182 23.838,99.231C23.945,99.28 24.066,99.326 24.202,99.368C24.339,99.407 24.479,99.453 24.622,99.504C24.764,99.553 24.903,99.611 25.038,99.679C25.176,99.747 25.297,99.833 25.402,99.938C25.51,100.043 25.596,100.171 25.661,100.323C25.727,100.472 25.759,100.653 25.759,100.865C25.759,101.101 25.718,101.322 25.637,101.527C25.555,101.732 25.436,101.912 25.28,102.066C25.126,102.218 24.934,102.338 24.706,102.426C24.479,102.513 24.222,102.556 23.932,102.556C23.774,102.556 23.611,102.54 23.446,102.507C23.282,102.474 23.124,102.429 22.97,102.37C22.816,102.31 22.671,102.239 22.536,102.157C22.4,102.075 22.283,101.984 22.182,101.884L22.532,101.331C22.56,101.291 22.596,101.259 22.641,101.233C22.687,101.205 22.738,101.191 22.791,101.191C22.861,101.191 22.931,101.213 23.001,101.257C23.074,101.302 23.154,101.351 23.243,101.404C23.334,101.458 23.438,101.507 23.554,101.551C23.671,101.596 23.809,101.618 23.967,101.618C24.182,101.618 24.349,101.571 24.468,101.478C24.587,101.382 24.646,101.232 24.646,101.026C24.646,100.907 24.614,100.811 24.548,100.736C24.483,100.661 24.397,100.599 24.289,100.55C24.184,100.501 24.064,100.458 23.929,100.421C23.793,100.384 23.655,100.343 23.512,100.298C23.37,100.252 23.231,100.196 23.096,100.13C22.96,100.063 22.839,99.975 22.732,99.868C22.627,99.758 22.542,99.623 22.476,99.462C22.411,99.299 22.378,99.098 22.378,98.86C22.378,98.669 22.417,98.482 22.494,98.3C22.571,98.118 22.684,97.956 22.833,97.814C22.983,97.671 23.166,97.558 23.383,97.474C23.6,97.388 23.848,97.345 24.128,97.345C24.285,97.345 24.436,97.357 24.583,97.383C24.733,97.406 24.874,97.443 25.007,97.492C25.14,97.538 25.263,97.595 25.378,97.663C25.494,97.728 25.598,97.803 25.689,97.887L25.395,98.437ZM29.271,101.52C29.388,101.52 29.48,101.553 29.548,101.618C29.615,101.681 29.649,101.765 29.649,101.87L29.649,102.5L26.065,102.5L26.065,102.15C26.065,102.082 26.079,102.01 26.107,101.933C26.135,101.856 26.184,101.786 26.254,101.723L27.724,100.242C27.85,100.116 27.96,99.996 28.053,99.882C28.147,99.768 28.224,99.656 28.284,99.546C28.345,99.434 28.39,99.323 28.421,99.214C28.451,99.102 28.466,98.984 28.466,98.86C28.466,98.657 28.417,98.502 28.319,98.394C28.224,98.285 28.077,98.23 27.878,98.23C27.717,98.23 27.581,98.273 27.469,98.36C27.359,98.444 27.283,98.549 27.241,98.674C27.192,98.803 27.128,98.888 27.049,98.93C26.969,98.972 26.856,98.981 26.709,98.958L26.135,98.857C26.173,98.602 26.244,98.381 26.349,98.192C26.456,98.003 26.588,97.845 26.744,97.719C26.903,97.593 27.084,97.5 27.287,97.439C27.49,97.376 27.708,97.345 27.941,97.345C28.193,97.345 28.42,97.382 28.62,97.457C28.823,97.529 28.996,97.63 29.138,97.761C29.281,97.892 29.389,98.048 29.464,98.23C29.541,98.41 29.579,98.608 29.579,98.825C29.579,99.012 29.552,99.184 29.499,99.343C29.447,99.502 29.376,99.653 29.285,99.798C29.194,99.94 29.088,100.079 28.967,100.214C28.848,100.347 28.721,100.483 28.585,100.62L27.588,101.642C27.716,101.603 27.843,101.572 27.969,101.551C28.095,101.53 28.212,101.52 28.319,101.52L29.271,101.52Z" style="fill-rule:nonzero;"/>
    <path d="M50,151C50,150.448 49.552,150 49,150L36,150C35.448,150 35,150.448 35,151L35,155C35,155.552 35.448,156 36,156L49,156C49.552,156 50,155.552 50,155L50,151Z" style="fill:rgb(139,191,64);fill-opacity:0.5;"/>
    <path d="M50,151C50,150.448 49.552,150 49,150L36,150C35.448,150 35,150.448 35,151L35,155C35,155.552 35.448,156 36,156L49,156C49.552,156 50,155.552 50,155L50,151Z" style="fill:none;stroke:rgb(139,191,64);stroke-width:1px;"/>
    <path d="M41.895,151.436C41.86,151.492 41.823,151.534 41.783,151.562C41.746,151.59 41.697,151.604 41.636,151.604C41.583,151.604 41.524,151.588 41.461,151.555C41.401,151.52 41.331,151.482 41.251,151.44C41.174,151.398 41.086,151.361 40.985,151.328C40.885,151.293 40.771,151.275 40.642,151.275C40.421,151.275 40.255,151.323 40.145,151.419C40.038,151.512 39.984,151.639 39.984,151.8C39.984,151.903 40.017,151.988 40.082,152.056C40.148,152.124 40.233,152.182 40.338,152.231C40.445,152.28 40.566,152.325 40.702,152.367C40.839,152.407 40.979,152.453 41.122,152.504C41.264,152.553 41.403,152.611 41.538,152.679C41.676,152.747 41.797,152.833 41.902,152.938C42.01,153.043 42.096,153.171 42.161,153.323C42.227,153.472 42.259,153.653 42.259,153.865C42.259,154.101 42.218,154.322 42.137,154.527C42.055,154.732 41.936,154.912 41.78,155.066C41.626,155.218 41.434,155.338 41.206,155.426C40.979,155.513 40.722,155.556 40.432,155.556C40.274,155.556 40.111,155.54 39.946,155.507C39.782,155.474 39.624,155.429 39.47,155.37C39.316,155.31 39.171,155.239 39.036,155.157C38.9,155.075 38.783,154.984 38.682,154.884L39.032,154.331C39.06,154.291 39.096,154.259 39.141,154.233C39.187,154.205 39.238,154.191 39.291,154.191C39.361,154.191 39.431,154.213 39.501,154.257C39.574,154.302 39.654,154.351 39.743,154.404C39.834,154.458 39.938,154.507 40.054,154.551C40.171,154.596 40.309,154.618 40.467,154.618C40.682,154.618 40.849,154.571 40.968,154.478C41.087,154.382 41.146,154.232 41.146,154.026C41.146,153.907 41.114,153.811 41.048,153.736C40.983,153.661 40.897,153.599 40.789,153.55C40.684,153.501 40.564,153.458 40.429,153.421C40.293,153.384 40.155,153.343 40.012,153.298C39.87,153.252 39.731,153.196 39.596,153.13C39.46,153.063 39.339,152.975 39.232,152.868C39.127,152.758 39.042,152.623 38.976,152.462C38.911,152.299 38.878,152.098 38.878,151.86C38.878,151.669 38.917,151.482 38.994,151.3C39.071,151.118 39.184,150.956 39.333,150.813C39.483,150.671 39.666,150.558 39.883,150.474C40.1,150.388 40.348,150.344 40.628,150.344C40.785,150.344 40.936,150.357 41.083,150.383C41.233,150.406 41.374,150.442 41.507,150.491C41.64,150.538 41.763,150.595 41.878,150.663C41.994,150.728 42.098,150.803 42.189,150.887L41.895,151.436ZM42.663,151.856C42.701,151.602 42.772,151.38 42.877,151.191C42.984,151.002 43.116,150.845 43.272,150.719C43.431,150.593 43.612,150.5 43.815,150.439C44.018,150.376 44.236,150.344 44.469,150.344C44.721,150.344 44.945,150.381 45.141,150.453C45.337,150.523 45.503,150.619 45.638,150.74C45.774,150.861 45.876,151.002 45.946,151.163C46.016,151.322 46.051,151.49 46.051,151.667C46.051,151.828 46.035,151.971 46.002,152.094C45.969,152.216 45.92,152.322 45.855,152.413C45.792,152.502 45.713,152.577 45.617,152.64C45.524,152.701 45.417,152.752 45.295,152.794C45.86,152.993 46.142,153.378 46.142,153.949C46.142,154.22 46.093,154.456 45.995,154.656C45.897,154.857 45.765,155.024 45.6,155.157C45.436,155.29 45.246,155.39 45.029,155.458C44.812,155.523 44.586,155.556 44.35,155.556C44.108,155.556 43.892,155.53 43.703,155.479C43.514,155.425 43.346,155.344 43.199,155.234C43.052,155.122 42.922,154.98 42.81,154.807C42.701,154.634 42.605,154.429 42.523,154.191L43.006,153.995C43.132,153.946 43.249,153.933 43.356,153.956C43.464,153.98 43.541,154.033 43.587,154.117C43.692,154.311 43.803,154.452 43.92,154.541C44.039,154.627 44.178,154.67 44.336,154.67C44.458,154.67 44.563,154.651 44.651,154.611C44.742,154.569 44.817,154.516 44.875,154.453C44.936,154.388 44.981,154.315 45.012,154.233C45.042,154.151 45.057,154.068 45.057,153.984C45.057,153.875 45.049,153.777 45.033,153.69C45.019,153.602 44.977,153.526 44.907,153.463C44.837,153.4 44.731,153.352 44.588,153.319C44.448,153.284 44.252,153.267 44,153.267L44,152.518C44.213,152.518 44.384,152.502 44.515,152.469C44.645,152.436 44.746,152.392 44.816,152.336C44.888,152.278 44.936,152.208 44.959,152.126C44.983,152.044 44.994,151.954 44.994,151.856C44.994,151.656 44.945,151.502 44.847,151.394C44.752,151.285 44.605,151.23 44.406,151.23C44.245,151.23 44.109,151.273 43.997,151.359C43.887,151.443 43.811,151.548 43.769,151.674C43.72,151.803 43.656,151.888 43.577,151.93C43.497,151.972 43.384,151.981 43.237,151.958L42.663,151.856Z" style="fill-rule:nonzero;"/>
    <path d="M66.5,204C66.5,203.448 66.052,203 65.5,203L52.5,203C51.948,203 51.5,203.448 51.5,204L51.5,208C51.5,208.552 51.948,209 52.5,209L65.5,209C66.052,209 66.5,208.552 66.5,208L66.5,204Z" style="fill:rgb(139,191,64);fill-opacity:0.5;"/>
    <path d="M66.5,204C66.5,203.448 66.052,203 65.5,203L52.5,203C51.948,203 51.5,203.448 51.5,204L51.5,208C51.5,208.552 51.948,209 52.5,209L65.5,209C66.052,209 66.5,208.552 66.5,208L66.5,204Z" style="fill:none;stroke:rgb(139,191,64);stroke-width:1px;"/>
    <path d="M59.48,205.948C59.48,206.317 59.416,206.658 59.288,206.97C59.162,207.281 58.983,207.55 58.752,207.779C58.521,208.005 58.242,208.183 57.916,208.311C57.591,208.437 57.231,208.5 56.834,208.5L54.853,208.5L54.853,203.4L56.834,203.4C57.231,203.4 57.591,203.465 57.916,203.593C58.242,203.721 58.521,203.899 58.752,204.125C58.983,204.351 59.162,204.621 59.288,204.933C59.416,205.244 59.48,205.582 59.48,205.948ZM58.269,205.948C58.269,205.696 58.237,205.469 58.171,205.266C58.106,205.063 58.011,204.891 57.888,204.751C57.766,204.609 57.617,204.501 57.44,204.426C57.262,204.349 57.061,204.31 56.834,204.31L56.043,204.31L56.043,207.59L56.834,207.59C57.061,207.59 57.262,207.553 57.44,207.478C57.617,207.401 57.766,207.292 57.888,207.152C58.011,207.01 58.106,206.837 58.171,206.634C58.237,206.431 58.269,206.203 58.269,205.948ZM63.258,207.716L63.258,208.5L60.353,208.5L60.353,207.716L61.333,207.716L61.333,205.143C61.333,205.078 61.335,205.013 61.337,204.947C61.339,204.88 61.343,204.812 61.347,204.744L60.766,205.227C60.715,205.267 60.664,205.292 60.612,205.301C60.563,205.308 60.517,205.308 60.472,205.301C60.428,205.292 60.388,205.276 60.353,205.255C60.318,205.232 60.293,205.209 60.276,205.185L59.933,204.73L61.522,203.397L62.418,203.397L62.418,207.716L63.258,207.716Z" style="fill-rule:nonzero;"/>
    <path d="M83,257C83,256.448 82.552,256 82,256L69,256C68.448,256 68,256.448 68,257L68,261C68,261.552 68.448,262 69,262L82,262C82.552,262 83,261.552 83,261L83,257Z" style="fill:rgb(139,191,64);fill-opacity:0.5;"/>
    <path d="M83,257C83,256.448 82.552,256 82,256L69,256C68.448,256 68,256.448 68,257L68,261C68,261.552 68.448,262 69,262L82,262C82.552,262 83,261.552 83,261L83,257Z" style="fill:none;stroke:rgb(139,191,64);stroke-width:1px;"/>
    <path d="M75.98,258.948C75.98,259.317 75.916,259.658 75.788,259.97C75.662,260.281 75.483,260.55 75.252,260.779C75.021,261.005 74.742,261.183 74.416,261.311C74.091,261.437 73.731,261.5 73.334,261.5L71.353,261.5L71.353,256.4L73.334,256.4C73.731,256.4 74.091,256.465 74.416,256.593C74.742,256.721 75.021,256.899 75.252,257.125C75.483,257.351 75.662,257.621 75.788,257.933C75.916,258.244 75.98,258.582 75.98,258.948ZM74.769,258.948C74.769,258.696 74.737,258.469 74.671,258.266C74.606,258.063 74.511,257.891 74.388,257.751C74.266,257.609 74.117,257.501 73.94,257.426C73.762,257.349 73.561,257.31 73.334,257.31L72.543,257.31L72.543,260.59L73.334,260.59C73.561,260.59 73.762,260.553 73.94,260.478C74.117,260.401 74.266,260.292 74.388,260.152C74.511,260.01 74.606,259.837 74.671,259.634C74.737,259.431 74.769,259.203 74.769,258.948ZM79.496,260.52C79.613,260.52 79.705,260.553 79.772,260.618C79.84,260.681 79.874,260.765 79.874,260.87L79.874,261.5L76.29,261.5L76.29,261.15C76.29,261.082 76.304,261.01 76.332,260.933C76.36,260.856 76.409,260.786 76.479,260.723L77.949,259.242C78.075,259.116 78.185,258.996 78.278,258.882C78.371,258.768 78.448,258.656 78.509,258.546C78.57,258.434 78.615,258.323 78.645,258.213C78.676,258.101 78.691,257.984 78.691,257.86C78.691,257.657 78.642,257.502 78.544,257.394C78.448,257.285 78.301,257.23 78.103,257.23C77.942,257.23 77.805,257.273 77.693,257.359C77.584,257.443 77.508,257.548 77.466,257.674C77.417,257.803 77.353,257.888 77.273,257.93C77.194,257.972 77.081,257.981 76.934,257.958L76.36,257.856C76.397,257.602 76.468,257.38 76.573,257.191C76.681,257.002 76.813,256.845 76.969,256.719C77.128,256.593 77.308,256.5 77.511,256.439C77.714,256.376 77.933,256.344 78.166,256.344C78.418,256.344 78.644,256.382 78.845,256.456C79.048,256.529 79.221,256.63 79.363,256.761C79.505,256.892 79.614,257.048 79.688,257.23C79.765,257.41 79.804,257.608 79.804,257.825C79.804,258.012 79.777,258.184 79.723,258.343C79.672,258.502 79.601,258.653 79.51,258.798C79.419,258.94 79.313,259.079 79.191,259.214C79.072,259.347 78.945,259.483 78.81,259.62L77.812,260.642C77.941,260.603 78.068,260.572 78.194,260.551C78.32,260.53 78.437,260.52 78.544,260.52L79.496,260.52Z" style="fill-rule:nonzero;"/>
    <path d="M99.5,310C99.5,309.448 99.052,309 98.5,309L85.5,309C84.948,309 84.5,309.448 84.5,310L84.5,314C84.5,314.552 84.948,315 85.5,315L98.5,315C99.052,315 99.5,314.552 99.5,314L99.5,310Z" style="fill:rgb(139,191,64);fill-opacity:0.5;"/>
    <path d="M99.5,310C99.5,309.448 99.052,309 98.5,309L85.5,309C84.948,309 84.5,309.448 84.5,310L84.5,314C84.5,314.552 84.948,315 85.5,315L98.5,315C99.052,315 99.5,314.552 99.5,314L99.5,310Z" style="fill:none;stroke:rgb(139,191,64);stroke-width:1px;"/>
    <path d="M90.435,313.555L90.435,314.5L87.362,314.5L87.362,309.4L88.545,309.4L88.545,313.555L90.435,313.555ZM90.382,311.934L92.272,311.934L92.272,312.809L90.382,312.809L90.382,311.934ZM94.683,311.798C94.844,311.798 94.981,311.778 95.093,311.738C95.207,311.696 95.3,311.639 95.373,311.567C95.445,311.495 95.498,311.411 95.53,311.315C95.563,311.217 95.579,311.112 95.579,311C95.579,310.776 95.506,310.601 95.359,310.475C95.214,310.349 94.989,310.286 94.683,310.286L94.207,310.286L94.207,311.798L94.683,311.798ZM97.196,314.5L96.125,314.5C95.927,314.5 95.785,314.425 95.698,314.276L94.851,312.795C94.812,312.732 94.767,312.687 94.718,312.659C94.669,312.629 94.599,312.613 94.508,312.613L94.207,312.613L94.207,314.5L93.024,314.5L93.024,309.4L94.683,309.4C95.052,309.4 95.366,309.439 95.625,309.516C95.886,309.591 96.098,309.696 96.262,309.831C96.427,309.966 96.548,310.126 96.622,310.31C96.697,310.495 96.734,310.695 96.734,310.912C96.734,311.078 96.712,311.234 96.668,311.381C96.623,311.528 96.558,311.665 96.472,311.791C96.385,311.915 96.278,312.025 96.15,312.123C96.024,312.221 95.878,312.302 95.712,312.365C95.789,312.405 95.862,312.455 95.929,312.515C95.997,312.574 96.058,312.644 96.111,312.725L97.196,314.5Z" style="fill-rule:nonzero;"/>
    <path d="M119,363C119,362.448 118.552,362 118,362L102,362C101.448,362 101,362.448 101,363L101,367C101,367.552 101.448,368 102,368L118,368C118.552,368 119,367.552 119,367L119,363Z" style="fill:rgb(139,191,64);fill-opacity:0.5;"/>
    <path d="M119,363C119,362.448 118.552,362 118,362L102,362C101.448,362 101,362.448 101,363L101,367C101,367.552 101.448,368 102,368L118,368C118.552,368 119,367.552 119,367L119,363Z" style="fill:none;stroke:rgb(139,191,64);stroke-width:1px;"/>
    <path d="M103.673,364.798C103.834,364.798 103.97,364.778 104.082,364.738C104.197,364.696 104.29,364.639 104.362,364.567C104.435,364.495 104.487,364.411 104.52,364.315C104.552,364.217 104.569,364.112 104.569,364C104.569,363.776 104.495,363.601 104.348,363.475C104.204,363.349 103.978,363.286 103.673,363.286L103.197,363.286L103.197,364.798L103.673,364.798ZM106.186,367.5L105.115,367.5C104.916,367.5 104.774,367.425 104.688,367.276L103.841,365.795C103.801,365.732 103.757,365.687 103.708,365.659C103.659,365.629 103.589,365.613 103.498,365.613L103.197,365.613L103.197,367.5L102.014,367.5L102.014,362.4L103.673,362.4C104.041,362.4 104.355,362.439 104.614,362.516C104.876,362.591 105.088,362.696 105.251,362.831C105.417,362.966 105.537,363.126 105.612,363.31C105.686,363.495 105.724,363.695 105.724,363.912C105.724,364.078 105.702,364.234 105.657,364.381C105.613,364.528 105.548,364.665 105.461,364.791C105.375,364.915 105.268,365.025 105.139,365.123C105.013,365.221 104.867,365.302 104.702,365.365C104.779,365.405 104.851,365.455 104.919,365.515C104.986,365.574 105.047,365.644 105.101,365.725L106.186,367.5ZM107.699,367.5L106.509,367.5L106.509,362.4L107.699,362.4L107.699,367.5ZM113.03,362.4L113.03,367.5L112.414,367.5C112.323,367.5 112.246,367.486 112.183,367.458C112.123,367.428 112.062,367.376 112.001,367.304L109.597,364.262C109.606,364.353 109.612,364.442 109.614,364.528C109.619,364.612 109.621,364.692 109.621,364.766L109.621,367.5L108.578,367.5L108.578,362.4L109.201,362.4C109.253,362.4 109.296,362.403 109.331,362.407C109.366,362.412 109.397,362.421 109.425,362.435C109.453,362.447 109.48,362.465 109.506,362.488C109.531,362.511 109.561,362.543 109.593,362.582L112.019,365.645C112.007,365.547 111.999,365.452 111.994,365.361C111.99,365.268 111.987,365.181 111.987,365.099L111.987,362.4L113.03,362.4ZM116.365,364.857L118.178,364.857L118.178,367.01C117.916,367.201 117.637,367.34 117.341,367.426C117.047,367.513 116.739,367.556 116.417,367.556C115.997,367.556 115.614,367.491 115.269,367.36C114.926,367.227 114.632,367.045 114.387,366.814C114.142,366.581 113.953,366.305 113.82,365.988C113.687,365.668 113.621,365.322 113.621,364.948C113.621,364.568 113.684,364.219 113.81,363.902C113.936,363.582 114.115,363.307 114.349,363.076C114.584,362.845 114.868,362.665 115.199,362.537C115.533,362.409 115.905,362.344 116.316,362.344C116.528,362.344 116.727,362.362 116.914,362.397C117.101,362.432 117.272,362.48 117.429,362.54C117.587,362.601 117.732,362.673 117.863,362.757C117.993,362.841 118.11,362.932 118.213,363.03L117.87,363.552C117.816,363.634 117.746,363.684 117.66,363.702C117.576,363.721 117.485,363.7 117.387,363.639C117.293,363.583 117.205,363.536 117.121,363.496C117.039,363.454 116.955,363.42 116.869,363.394C116.782,363.369 116.691,363.35 116.596,363.338C116.5,363.327 116.393,363.321 116.274,363.321C116.052,363.321 115.852,363.361 115.675,363.44C115.498,363.517 115.346,363.627 115.22,363.769C115.096,363.911 115.001,364.083 114.933,364.283C114.865,364.482 114.832,364.703 114.832,364.948C114.832,365.219 114.869,365.459 114.944,365.669C115.018,365.879 115.123,366.057 115.259,366.201C115.396,366.346 115.56,366.457 115.749,366.534C115.94,366.609 116.151,366.646 116.382,366.646C116.524,366.646 116.653,366.632 116.767,366.604C116.884,366.576 116.997,366.539 117.107,366.492L117.107,365.718L116.603,365.718C116.528,365.718 116.47,365.699 116.428,365.659C116.386,365.619 116.365,365.569 116.365,365.508L116.365,364.857Z" style="fill-rule:nonzero;"/>
    <path d="M131.5,416C131.5,415.448 131.052,415 130.5,415L122.5,415C121.948,415 121.5,415.448 121.5,416L121.5,420C121.5,420.552 121.948,421 122.5,421L130.5,421C131.052,421 131.5,420.552 131.5,420L131.5,416Z" style="fill:rgb(139,191,64);fill-opacity:0.5;"/>
    <path d="M131.5,416C131.5,415.448 131.052,415 130.5,415L122.5,415C121.948,415 121.5,415.448 121.5,416L121.5,420C121.5,420.552 121.948,421 122.5,421L130.5,421C131.052,421 131.5,420.552 131.5,420L131.5,416Z" style="fill:none;stroke:rgb(139,191,64);stroke-width:1px;"/>
    <path d="M125,418.5L125,420.5L122,418L125,415.5L125,417.5L128,417.5L128,415.5L131,418L128,420.5L128,418.5L125,418.5Z"/>
</svg>
