<?xml version="1.0" encoding="UTF-8" standalone="no"?>
<!DOCTYPE svg PUBLIC "-//W3C//DTD SVG 1.1//EN" "http://www.w3.org/Graphics/SVG/1.1/DTD/svg11.dtd">
<svg width="100%" height="100%" viewBox="0 0 48 56" version="1.1" xmlns="http://www.w3.org/2000/svg" xmlns:xlink="http://www.w3.org/1999/xlink" xml:space="preserve" xmlns:serif="http://www.serif.com/" style="fill-rule:evenodd;clip-rule:evenodd;stroke-linejoin:round;stroke-miterlimit:2;">
    <g transform="matrix(7.79322e-17,1.27273,-0.285715,1.7495e-17,40.7144,-2.45456)">
        <rect x="3.5" y="6" width="11" height="14" style="fill:rgb(35,35,35);"/>
    </g>
    <g id="Square-Rectangle" serif:id="Square/Rectangle" transform="matrix(4.45326e-17,0.727273,-1,6.12323e-17,22,2.45454)">
        <g>
            <g>
                <g>
                    <g>
                        <clipPath id="_clip1">
                            <rect x="3.5" y="6" width="11" height="14"/>
                        </clipPath>
                        <g clip-path="url(#_clip1)">
                            <rect x="3.5" y="6" width="11" height="14" style="fill:rgb(35,35,35);"/>
                        </g>
                    </g>
                </g>
            </g>
        </g>
    </g>
    <g transform="matrix(7.79322e-17,1.27273,-0.285715,1.7495e-17,40.7144,26.0454)">
        <g id="Square-Rectangle1" serif:id="Square/Rectangle">
            <rect x="3.5" y="6" width="11" height="14" style="fill:rgb(35,35,35);"/>
        </g>
    </g>
    <g transform="matrix(4.45326e-17,0.727273,-1,6.12323e-17,22,30.4545)">
        <g>
            <rect x="3.5" y="6" width="11" height="14" style="fill:rgb(35,35,35);"/>
        </g>
    </g>
    <g transform="matrix(6.12323e-17,1,-1,6.12323e-17,48.7501,-24.0001)">
        <path d="M34,11.25L32,11.25C31.72,11.25 31.5,11.47 31.5,11.75C31.5,12.03 31.72,12.25 32,12.25L34,12.25C34.28,12.25 34.5,12.03 34.5,11.75C34.5,11.47 34.28,11.25 34,11.25Z" style="fill:rgb(230,26,26);fill-rule:nonzero;"/>
    </g>
    <g transform="matrix(6.12323e-17,1,-1,6.12323e-17,48.7501,4.49993)">
        <path d="M34,11.25L32,11.25C31.72,11.25 31.5,11.47 31.5,11.75C31.5,12.03 31.72,12.25 32,12.25L34,12.25C34.28,12.25 34.5,12.03 34.5,11.75C34.5,11.47 34.28,11.25 34,11.25Z" style="fill:rgb(230,26,26);fill-rule:nonzero;"/>
    </g>
    <g transform="matrix(8.16429e-17,1.33333,-1,6.12323e-17,21,-3)">
        <path d="M10,11L8,11C7.72,11 7.5,11.22 7.5,11.5C7.5,11.78 7.72,12 8,12L10,12C10.28,12 10.5,11.78 10.5,11.5C10.5,11.22 10.28,11 10,11Z" style="fill:rgb(230,26,26);fill-rule:nonzero;"/>
    </g>
    <g transform="matrix(8.16429e-17,1.33333,-1,6.12323e-17,21,25)">
        <path d="M10,11L8,11C7.72,11 7.5,11.22 7.5,11.5C7.5,11.78 7.72,12 8,12L10,12C10.28,12 10.5,11.78 10.5,11.5C10.5,11.22 10.28,11 10,11Z" style="fill:rgb(230,26,26);fill-rule:nonzero;"/>
    </g>
</svg>
