<?xml version="1.0" encoding="UTF-8" standalone="no"?>
<!DOCTYPE svg PUBLIC "-//W3C//DTD SVG 1.1//EN" "http://www.w3.org/Graphics/SVG/1.1/DTD/svg11.dtd">
<svg width="100%" height="100%" viewBox="0 0 48 56" version="1.1" xmlns="http://www.w3.org/2000/svg" xmlns:xlink="http://www.w3.org/1999/xlink" xml:space="preserve" xmlns:serif="http://www.serif.com/" style="fill-rule:evenodd;clip-rule:evenodd;stroke-linejoin:round;stroke-miterlimit:2;">
    <g>
        <path d="M10,39.25L8,39.25C7.72,39.25 7.5,39.47 7.5,39.75C7.5,40.03 7.72,40.25 8,40.25L10,40.25C10.28,40.25 10.5,40.03 10.5,39.75C10.5,39.47 10.28,39.25 10,39.25Z" style="fill:rgb(238,238,238);fill-opacity:0.5;fill-rule:nonzero;"/>
        <path d="M10,39L8,39C7.72,39 7.5,39.22 7.5,39.5C7.5,39.78 7.72,40 8,40L10,40C10.28,40 10.5,39.78 10.5,39.5C10.5,39.22 10.28,39 10,39Z" style="fill:rgb(31,31,31);fill-rule:nonzero;"/>
        <g transform="matrix(1,0,0,1,-5e-07,-28)">
            <path d="M34,39.25L32,39.25C31.72,39.25 31.5,39.47 31.5,39.75C31.5,40.03 31.72,40.25 32,40.25L34,40.25C34.28,40.25 34.5,40.03 34.5,39.75C34.5,39.47 34.28,39.25 34,39.25Z" style="fill:rgb(238,238,238);fill-opacity:0.5;fill-rule:nonzero;"/>
        </g>
        <g transform="matrix(1,0,0,1,-5e-07,-28)">
            <path d="M34,39L32,39C31.72,39 31.5,39.22 31.5,39.5C31.5,39.78 31.72,40 32,40L34,40C34.28,40 34.5,39.78 34.5,39.5C34.5,39.22 34.28,39 34,39Z" style="fill:rgb(31,31,31);fill-rule:nonzero;"/>
        </g>
        <g id="Square-Rectangle" serif:id="Square/Rectangle" transform="matrix(0.727273,0,0,1,2.45454,26)">
            <g>
                <g>
                    <clipPath id="_clip1">
                        <rect x="3.5" y="6" width="11" height="14"/>
                    </clipPath>
                    <g clip-path="url(#_clip1)">
                        <rect x="3.5" y="6" width="11" height="14" style="fill:rgb(35,35,35);"/>
                    </g>
                </g>
            </g>
        </g>
        <path d="M10,11.25L8,11.25C7.72,11.25 7.5,11.47 7.5,11.75C7.5,12.03 7.72,12.25 8,12.25L10,12.25C10.28,12.25 10.5,12.03 10.5,11.75C10.5,11.47 10.28,11.25 10,11.25Z" style="fill:rgb(238,238,238);fill-opacity:0.5;fill-rule:nonzero;"/>
        <g id="Square-Rectangle1" serif:id="Square/Rectangle" transform="matrix(0.727273,0,0,1,2.45454,-2)">
            <g>
                <g>
                    <clipPath id="_clip2">
                        <rect x="3.5" y="6" width="11" height="14"/>
                    </clipPath>
                    <g clip-path="url(#_clip2)">
                        <rect x="3.5" y="6" width="11" height="14" style="fill:rgb(35,35,35);"/>
                    </g>
                </g>
            </g>
        </g>
        <g transform="matrix(1.33333,0,0,1,-3,-1)">
            <path d="M10,39L8,39C7.72,39 7.5,39.22 7.5,39.5C7.5,39.78 7.72,40 8,40L10,40C10.28,40 10.5,39.78 10.5,39.5C10.5,39.22 10.28,39 10,39Z" style="fill:rgb(0,158,0);fill-rule:nonzero;"/>
        </g>
        <g transform="matrix(1.33333,0,0,1,-3,-1)">
            <path d="M10,11L8,11C7.72,11 7.5,11.22 7.5,11.5C7.5,11.78 7.72,12 8,12L10,12C10.28,12 10.5,11.78 10.5,11.5C10.5,11.22 10.28,11 10,11Z" style="fill:rgb(0,158,0);fill-rule:nonzero;"/>
        </g>
    </g>
    <g transform="matrix(1.33333,0,0,1,-3,-1)">
        <path d="M10,11L8,11C7.72,11 7.5,11.22 7.5,11.5C7.5,11.78 7.72,12 8,12L10,12C10.28,12 10.5,11.78 10.5,11.5C10.5,11.22 10.28,11 10,11Z" style="fill:rgb(0,158,0);fill-rule:nonzero;"/>
    </g>
    <g id="Square-Rectangle2" serif:id="Square/Rectangle" transform="matrix(0.727273,0,0,0.571429,26.4545,31.5714)">
        <g opacity="0.76">
            <g transform="matrix(1,0,0,1,-6.875e-07,-49)">
                <rect x="3.5" y="6" width="11" height="14" style="fill:rgb(35,35,35);"/>
            </g>
        </g>
    </g>
    <g transform="matrix(1,0,0,1,-5e-07,-28.75)">
        <path d="M34,39.25L32,39.25C31.72,39.25 31.5,39.47 31.5,39.75C31.5,40.03 31.72,40.25 32,40.25L34,40.25C34.28,40.25 34.5,40.03 34.5,39.75C34.5,39.47 34.28,39.25 34,39.25Z" style="fill:rgb(75,191,64);fill-rule:nonzero;"/>
    </g>
    <g transform="matrix(1.33333,0,0,1,-11,-29)">
        <path d="M34,39L32,39C31.72,39 31.5,39.22 31.5,39.5C31.5,39.78 31.72,40 32,40L34,40C34.28,40 34.5,39.78 34.5,39.5C34.5,39.22 34.28,39 34,39Z" style="fill:rgb(0,255,0);fill-rule:nonzero;"/>
    </g>
    <g transform="matrix(1,0,0,1,-5e-07,-1)">
        <path d="M34,39.25L32,39.25C31.72,39.25 31.5,39.47 31.5,39.75C31.5,40.03 31.72,40.25 32,40.25L34,40.25C34.28,40.25 34.5,40.03 34.5,39.75C34.5,39.47 34.28,39.25 34,39.25Z" style="fill:rgb(238,238,238);fill-opacity:0.5;fill-rule:nonzero;"/>
    </g>
    <g transform="matrix(1,0,0,1,-5e-07,-1)">
        <path d="M34,39L32,39C31.72,39 31.5,39.22 31.5,39.5C31.5,39.78 31.72,40 32,40L34,40C34.28,40 34.5,39.78 34.5,39.5C34.5,39.22 34.28,39 34,39Z" style="fill:rgb(31,31,31);fill-rule:nonzero;"/>
    </g>
    <g transform="matrix(0.727273,0,0,0.571429,26.4545,30.5714)">
        <rect x="3.5" y="6" width="11" height="14" style="fill:rgb(35,35,35);"/>
    </g>
    <g transform="matrix(1,0,0,1,-5e-07,-0.75)">
        <path d="M34,39.25L32,39.25C31.72,39.25 31.5,39.47 31.5,39.75C31.5,40.03 31.72,40.25 32,40.25L34,40.25C34.28,40.25 34.5,40.03 34.5,39.75C34.5,39.47 34.28,39.25 34,39.25Z" style="fill:rgb(75,191,64);fill-rule:nonzero;"/>
    </g>
    <g transform="matrix(1.33333,0,0,1,-11,-1)">
        <path d="M34,39L32,39C31.72,39 31.5,39.22 31.5,39.5C31.5,39.78 31.72,40 32,40L34,40C34.28,40 34.5,39.78 34.5,39.5C34.5,39.22 34.28,39 34,39Z" style="fill:rgb(0,255,0);fill-rule:nonzero;"/>
    </g>
</svg>
