<?xml version="1.0" encoding="UTF-8" standalone="no"?>
<svg
   xmlns:dc="http://purl.org/dc/elements/1.1/"
   xmlns:cc="http://creativecommons.org/ns#"
   xmlns:rdf="http://www.w3.org/1999/02/22-rdf-syntax-ns#"
   xmlns:svg="http://www.w3.org/2000/svg"
   xmlns="http://www.w3.org/2000/svg"
   xmlns:xlink="http://www.w3.org/1999/xlink"
   xmlns:sodipodi="http://sodipodi.sourceforge.net/DTD/sodipodi-0.dtd"
   xmlns:inkscape="http://www.inkscape.org/namespaces/inkscape"
   width="132"
   height="104"
   viewBox="0 0 132 104"
   version="1.1"
   id="svg24327"
   sodipodi:docname="bmp00144.svg"
   inkscape:version="1.0.1 (3bc2e813f5, 2020-09-07)">
  <metadata
     id="metadata24331">
    <rdf:RDF>
      <cc:Work
         rdf:about="">
        <dc:format>image/svg+xml</dc:format>
        <dc:type
           rdf:resource="http://purl.org/dc/dcmitype/StillImage" />
        <dc:title />
      </cc:Work>
    </rdf:RDF>
  </metadata>
  <sodipodi:namedview
     pagecolor="#464646"
     bordercolor="#666666"
     borderopacity="1"
     objecttolerance="10"
     gridtolerance="10"
     guidetolerance="10"
     inkscape:pageopacity="0"
     inkscape:pageshadow="2"
     inkscape:window-width="3753"
     inkscape:window-height="2137"
     id="namedview24329"
     showgrid="false"
     inkscape:zoom="22.627418"
     inkscape:cx="70.217371"
     inkscape:cy="79.851245"
     inkscape:window-x="-8"
     inkscape:window-y="-8"
     inkscape:window-maximized="1"
     inkscape:current-layer="svg24327"
     inkscape:document-rotation="0" />
  <defs
     id="defs24067">
    <linearGradient
       id="a"
       x1="0.5"
       x2="0.5"
       y2="1"
       gradientUnits="objectBoundingBox">
      <stop
         offset="0"
         stop-color="#787477"
         id="stop24057" />
      <stop
         offset="1"
         stop-color="#716b6c"
         id="stop24059" />
    </linearGradient>
    <linearGradient
       id="d"
       x1="0.5"
       x2="0.5"
       y2="1"
       gradientUnits="objectBoundingBox">
      <stop
         offset="0"
         stop-color="#413f40"
         id="stop24062" />
      <stop
         offset="1"
         stop-color="#464141"
         id="stop24064" />
    </linearGradient>
    <linearGradient
       x1="0.5"
       y1="0"
       x2="0.5"
       y2="1"
       id="linearGradient10622">
      <stop
         offset="0"
         stop-color="#787477"
         id="stop10618" />
      <stop
         offset="1"
         stop-color="#716B6C"
         id="stop10620"
         style="stop-color:#696568;stop-opacity:1" />
    </linearGradient>
    <linearGradient
       inkscape:collect="always"
       xlink:href="#linearGradient10622"
       id="linearGradient26260"
       gradientUnits="userSpaceOnUse"
       gradientTransform="translate(0,26.000315)"
       x1="8.953125"
       y1="0.78125"
       x2="8.8334866"
       y2="24.728033" />
    <linearGradient
       inkscape:collect="always"
       xlink:href="#linearGradient10622"
       id="linearGradient26268"
       gradientUnits="userSpaceOnUse"
       gradientTransform="translate(0,52.000315)"
       x1="8.953125"
       y1="0.78125"
       x2="8.8334866"
       y2="24.728033" />
    <linearGradient
       inkscape:collect="always"
       xlink:href="#linearGradient10622"
       id="linearGradient26284"
       gradientUnits="userSpaceOnUse"
       gradientTransform="translate(0,78.000315)"
       x1="8.953125"
       y1="0.78125"
       x2="8.8334866"
       y2="24.728033" />
    <linearGradient
       inkscape:collect="always"
       xlink:href="#linearGradient10622"
       id="linearGradient26292"
       gradientUnits="userSpaceOnUse"
       gradientTransform="matrix(1.0263045,0,0,1,32.582511,3.15e-4)"
       x1="8.953125"
       y1="0.78125"
       x2="8.8334866"
       y2="24.728033" />
    <linearGradient
       inkscape:collect="always"
       xlink:href="#linearGradient10622"
       id="linearGradient26308"
       gradientUnits="userSpaceOnUse"
       gradientTransform="matrix(1.0263045,0,0,1,32.582511,52.000315)"
       x1="8.953125"
       y1="0.78125"
       x2="8.8334866"
       y2="24.728033" />
    <linearGradient
       inkscape:collect="always"
       xlink:href="#linearGradient10622"
       id="linearGradient26316"
       gradientUnits="userSpaceOnUse"
       gradientTransform="matrix(1.0263045,0,0,1,32.582511,78.000315)"
       x1="8.953125"
       y1="0.78125"
       x2="8.8334866"
       y2="24.728033" />
    <linearGradient
       inkscape:collect="always"
       xlink:href="#linearGradient10622"
       id="linearGradient26324"
       gradientUnits="userSpaceOnUse"
       gradientTransform="matrix(1.0263045,0,0,1,65.582511,3.15e-4)"
       x1="8.953125"
       y1="0.78125"
       x2="8.8334866"
       y2="24.728033" />
    <linearGradient
       inkscape:collect="always"
       xlink:href="#linearGradient10622"
       id="linearGradient26332"
       gradientUnits="userSpaceOnUse"
       gradientTransform="matrix(1.0263045,0,0,1,65.582511,26.000315)"
       x1="8.953125"
       y1="0.78125"
       x2="8.8334866"
       y2="24.728033" />
    <linearGradient
       inkscape:collect="always"
       xlink:href="#linearGradient10622"
       id="linearGradient26348"
       gradientUnits="userSpaceOnUse"
       gradientTransform="matrix(1.0263045,0,0,1,65.582511,78.000315)"
       x1="8.953125"
       y1="0.78125"
       x2="8.8334866"
       y2="24.728033" />
    <linearGradient
       inkscape:collect="always"
       xlink:href="#linearGradient10622"
       id="linearGradient26356"
       gradientUnits="userSpaceOnUse"
       gradientTransform="matrix(-1,0,0,1,132,3.15e-4)"
       x1="8.953125"
       y1="0.78125"
       x2="8.8334866"
       y2="24.728033" />
    <linearGradient
       inkscape:collect="always"
       xlink:href="#linearGradient10622"
       id="linearGradient26364"
       gradientUnits="userSpaceOnUse"
       gradientTransform="matrix(-1,0,0,1,132,26.000315)"
       x1="8.953125"
       y1="0.78125"
       x2="8.8334866"
       y2="24.728033" />
    <linearGradient
       inkscape:collect="always"
       xlink:href="#linearGradient10622"
       id="linearGradient26372"
       gradientUnits="userSpaceOnUse"
       gradientTransform="matrix(-1,0,0,1,132,52.000315)"
       x1="8.953125"
       y1="0.78125"
       x2="8.8334866"
       y2="24.728033" />
  </defs>
  <path
     id="path26374"
     style="opacity:1;fill:#0a090a;fill-opacity:1;stroke:none;stroke-width:1.19156;stroke-linecap:butt;stroke-linejoin:miter;stroke-miterlimit:4;stroke-dasharray:none;stroke-opacity:1;paint-order:stroke markers fill"
     d="M 99.0069,103.9673 130.38255,104 C 131.28627,104.00094 132,103.25687 132,102.35301 V 79.631834 c 0,-0.903862 -0.72754,-1.631512 -1.63126,-1.631519 L 99,78 v 26 z"
     sodipodi:nodetypes="cssssccc" />
  <path
     id="path26376"
     style="opacity:1;fill:#413f40;fill-opacity:1;stroke:none;stroke-width:1.11;stroke-linecap:butt;stroke-linejoin:miter;stroke-miterlimit:4;stroke-dasharray:none;stroke-opacity:1;paint-order:stroke markers fill"
     d="M 130.15356,78.414189 H 99.43901 V 103.5264 h 30.71456 c 0.79056,0 1.427,-0.63644 1.427,-1.427 V 79.841193 c 0,-0.79056 -0.63644,-1.427004 -1.427,-1.427004 z"
     sodipodi:nodetypes="sccsssss" />
  <path
     id="path26366"
     style="opacity:1;fill:#0a090a;fill-opacity:1;stroke:none;stroke-width:1.19156;stroke-linecap:butt;stroke-linejoin:miter;stroke-miterlimit:4;stroke-dasharray:none;stroke-opacity:1;paint-order:stroke markers fill"
     d="M 99.0069,77.967297 130.38255,78 C 131.28627,78.000942 132,77.256871 132,76.353009 V 53.631834 c 0,-0.903862 -0.72754,-1.631512 -1.63126,-1.631519 L 99,52 v 26 z"
     sodipodi:nodetypes="cssssccc" />
  <path
     id="path26368"
     style="opacity:1;fill:url(#linearGradient26372);fill-opacity:1;stroke:none;stroke-width:1.11;stroke-linecap:butt;stroke-linejoin:miter;stroke-miterlimit:4;stroke-dasharray:none;stroke-opacity:1;paint-order:stroke markers fill"
     d="M 130.15356,52.414189 H 99.43901 v 25.112212 h 30.71456 c 0.79056,0 1.427,-0.636445 1.427,-1.427005 V 53.841193 c 0,-0.79056 -0.63644,-1.427004 -1.427,-1.427004 z"
     sodipodi:nodetypes="sccsssss" />
  <path
     id="path26370"
     style="opacity:1;fill:#959197;fill-opacity:1;stroke:none;stroke-width:0.723173;stroke-linecap:butt;stroke-linejoin:miter;stroke-miterlimit:4;stroke-dasharray:none;stroke-opacity:1;paint-order:stroke markers fill"
     d="m 130.30469,52.423828 c 0.28347,1.77e-4 0.80881,0.234342 1.07617,0.697266 0.27197,0.470905 0.20508,0.776105 0.20508,0.822265 0,0.05338 -0.34678,-1.023437 -1.26563,-1.023437 h -30.8789 v -0.496094 h 30.86329 z"
     sodipodi:nodetypes="ccsccccc" />
  <path
     id="path26358"
     style="opacity:1;fill:#0a090a;fill-opacity:1;stroke:none;stroke-width:1.19156;stroke-linecap:butt;stroke-linejoin:miter;stroke-miterlimit:4;stroke-dasharray:none;stroke-opacity:1;paint-order:stroke markers fill"
     d="M 99.0069,51.967297 130.38255,52 C 131.28627,52.000942 132,51.256871 132,50.353009 V 27.631834 c 0,-0.903862 -0.72754,-1.631512 -1.63126,-1.631519 L 99,26 v 26 z"
     sodipodi:nodetypes="cssssccc" />
  <path
     id="path26360"
     style="opacity:1;fill:url(#linearGradient26364);fill-opacity:1;stroke:none;stroke-width:1.11;stroke-linecap:butt;stroke-linejoin:miter;stroke-miterlimit:4;stroke-dasharray:none;stroke-opacity:1;paint-order:stroke markers fill"
     d="M 130.15356,26.414189 H 99.43901 v 25.112212 h 30.71456 c 0.79056,0 1.427,-0.636445 1.427,-1.427005 V 27.841193 c 0,-0.79056 -0.63644,-1.427004 -1.427,-1.427004 z"
     sodipodi:nodetypes="sccsssss" />
  <path
     id="path26362"
     style="opacity:1;fill:#959197;fill-opacity:1;stroke:none;stroke-width:0.723173;stroke-linecap:butt;stroke-linejoin:miter;stroke-miterlimit:4;stroke-dasharray:none;stroke-opacity:1;paint-order:stroke markers fill"
     d="m 130.30469,26.423828 c 0.28347,1.77e-4 0.80881,0.234342 1.07617,0.697266 0.27197,0.470905 0.20508,0.776105 0.20508,0.822265 0,0.05338 -0.34678,-1.023437 -1.26563,-1.023437 h -30.8789 v -0.496094 h 30.86329 z"
     sodipodi:nodetypes="ccsccccc" />
  <path
     id="path26350"
     style="opacity:1;fill:#0a090a;fill-opacity:1;stroke:none;stroke-width:1.19156;stroke-linecap:butt;stroke-linejoin:miter;stroke-miterlimit:4;stroke-dasharray:none;stroke-opacity:1;paint-order:stroke markers fill"
     d="M 99.0069,25.967297 130.38255,26 C 131.28627,26.000942 132,25.256871 132,24.353009 V 1.631834 C 132,0.727972 131.27246,3.22e-4 130.36874,3.15e-4 L 99,0 v 26 z"
     sodipodi:nodetypes="cssssccc" />
  <path
     id="path26352"
     style="opacity:1;fill:url(#linearGradient26356);fill-opacity:1;stroke:none;stroke-width:1.11;stroke-linecap:butt;stroke-linejoin:miter;stroke-miterlimit:4;stroke-dasharray:none;stroke-opacity:1;paint-order:stroke markers fill"
     d="M 130.15356,0.414189 H 99.43901 v 25.112212 h 30.71456 c 0.79056,0 1.427,-0.636445 1.427,-1.427005 V 1.841193 c 0,-0.79056 -0.63644,-1.427004 -1.427,-1.427004 z"
     sodipodi:nodetypes="sccsssss" />
  <path
     id="path26354"
     style="opacity:1;fill:#959197;fill-opacity:1;stroke:none;stroke-width:0.723173;stroke-linecap:butt;stroke-linejoin:miter;stroke-miterlimit:4;stroke-dasharray:none;stroke-opacity:1;paint-order:stroke markers fill"
     d="m 130.30469,0.423828 c 0.28347,1.77e-4 0.80881,0.234342 1.07617,0.697266 0.27197,0.470905 0.20508,0.776105 0.20508,0.822265 0,0.05338 -0.34678,-1.023437 -1.26563,-1.023437 H 99.44141 V 0.423828 h 30.86329 z"
     sodipodi:nodetypes="ccsccccc" />
  <path
     id="path26342"
     style="opacity:1;fill:#0a090a;fill-opacity:1;stroke:none;stroke-width:1.19156;stroke-linecap:butt;stroke-linejoin:miter;stroke-miterlimit:4;stroke-dasharray:none;stroke-opacity:1;paint-order:stroke markers fill"
     d="M 98.993097,103.9673 66,104 V 78.000315 L 99,78 v 26 z"
     sodipodi:nodetypes="cccccc" />
  <path
     id="path26344"
     style="opacity:1;fill:url(#linearGradient26348);fill-opacity:1;stroke:none;stroke-width:1.1245;stroke-linecap:butt;stroke-linejoin:miter;stroke-miterlimit:4;stroke-dasharray:none;stroke-opacity:1;paint-order:stroke markers fill"
     d="M 99,78.414189 V 103.5264 H 66.4375 V 78.414189 Z"
     sodipodi:nodetypes="ccccc" />
  <path
     id="path26346"
     style="opacity:1;fill:#959197;fill-opacity:1;stroke:none;stroke-width:0.714988;stroke-linecap:butt;stroke-linejoin:miter;stroke-miterlimit:4;stroke-dasharray:none;stroke-opacity:1;paint-order:stroke markers fill"
     d="m 66.433594,78.423828 v 0.496094 H 99 v -0.505733 z"
     sodipodi:nodetypes="ccccc" />
  <path
     id="path26334"
     style="opacity:1;fill:#0a090a;fill-opacity:1;stroke:none;stroke-width:1.19156;stroke-linecap:butt;stroke-linejoin:miter;stroke-miterlimit:4;stroke-dasharray:none;stroke-opacity:1;paint-order:stroke markers fill"
     d="M 98.993097,77.967297 66,78 V 52.000315 L 99,52 v 26 z"
     sodipodi:nodetypes="cccccc" />
  <path
     id="path26336"
     style="opacity:1;fill:#413f40;fill-opacity:1;stroke:none;stroke-width:1.1245;stroke-linecap:butt;stroke-linejoin:miter;stroke-miterlimit:4;stroke-dasharray:none;stroke-opacity:1;paint-order:stroke markers fill"
     d="M 99,52.414189 V 77.526401 H 66.4375 V 52.414189 Z"
     sodipodi:nodetypes="ccccc" />
  <path
     id="path26326"
     style="opacity:1;fill:#0a090a;fill-opacity:1;stroke:none;stroke-width:1.19156;stroke-linecap:butt;stroke-linejoin:miter;stroke-miterlimit:4;stroke-dasharray:none;stroke-opacity:1;paint-order:stroke markers fill"
     d="M 98.993097,51.967297 66,52 V 26.000315 L 99,26 v 26 z"
     sodipodi:nodetypes="cccccc" />
  <path
     id="path26328"
     style="opacity:1;fill:url(#linearGradient26332);fill-opacity:1;stroke:none;stroke-width:1.1245;stroke-linecap:butt;stroke-linejoin:miter;stroke-miterlimit:4;stroke-dasharray:none;stroke-opacity:1;paint-order:stroke markers fill"
     d="M 99,26.414189 V 51.526401 H 66.4375 V 26.414189 Z"
     sodipodi:nodetypes="ccccc" />
  <path
     id="path26330"
     style="opacity:1;fill:#959197;fill-opacity:1;stroke:none;stroke-width:0.714988;stroke-linecap:butt;stroke-linejoin:miter;stroke-miterlimit:4;stroke-dasharray:none;stroke-opacity:1;paint-order:stroke markers fill"
     d="m 66.433594,26.423828 v 0.496094 H 99 v -0.505733 z"
     sodipodi:nodetypes="ccccc" />
  <path
     id="path26318"
     style="opacity:1;fill:#0a090a;fill-opacity:1;stroke:none;stroke-width:1.19156;stroke-linecap:butt;stroke-linejoin:miter;stroke-miterlimit:4;stroke-dasharray:none;stroke-opacity:1;paint-order:stroke markers fill"
     d="M 98.993097,25.967297 66,26 V 3.15e-4 L 99,0 v 26 z"
     sodipodi:nodetypes="cccccc" />
  <path
     id="path26320"
     style="opacity:1;fill:url(#linearGradient26324);fill-opacity:1;stroke:none;stroke-width:1.1245;stroke-linecap:butt;stroke-linejoin:miter;stroke-miterlimit:4;stroke-dasharray:none;stroke-opacity:1;paint-order:stroke markers fill"
     d="M 99,0.414189 V 25.526401 H 66.4375 V 0.414189 Z"
     sodipodi:nodetypes="ccccc" />
  <path
     id="path26322"
     style="opacity:1;fill:#959197;fill-opacity:1;stroke:none;stroke-width:0.714988;stroke-linecap:butt;stroke-linejoin:miter;stroke-miterlimit:4;stroke-dasharray:none;stroke-opacity:1;paint-order:stroke markers fill"
     d="M 66.433594,0.423828 V 0.919922 H 99 V 0.414189 Z"
     sodipodi:nodetypes="ccccc" />
  <path
     id="path26310"
     style="opacity:1;fill:#0a090a;fill-opacity:1;stroke:none;stroke-width:1.19156;stroke-linecap:butt;stroke-linejoin:miter;stroke-miterlimit:4;stroke-dasharray:none;stroke-opacity:1;paint-order:stroke markers fill"
     d="M 65.993097,103.9673 33,104 V 78.000315 L 66,78 v 26 z"
     sodipodi:nodetypes="cccccc" />
  <path
     id="path26312"
     style="opacity:1;fill:url(#linearGradient26316);fill-opacity:1;stroke:none;stroke-width:1.1245;stroke-linecap:butt;stroke-linejoin:miter;stroke-miterlimit:4;stroke-dasharray:none;stroke-opacity:1;paint-order:stroke markers fill"
     d="M 34.477515,78.414189 H 66 V 103.5264 H 33 V 78.414189 Z"
     sodipodi:nodetypes="sccccs" />
  <path
     id="path26314"
     style="opacity:1;fill:#959197;fill-opacity:1;stroke:none;stroke-width:0.714988;stroke-linecap:butt;stroke-linejoin:miter;stroke-miterlimit:4;stroke-dasharray:none;stroke-opacity:1;paint-order:stroke markers fill"
     d="m 33,78.423828 v 0.496094 h 33 v -0.505733 z"
     sodipodi:nodetypes="ccccc" />
  <path
     id="path26302"
     style="opacity:1;fill:#0a090a;fill-opacity:1;stroke:none;stroke-width:1.19156;stroke-linecap:butt;stroke-linejoin:miter;stroke-miterlimit:4;stroke-dasharray:none;stroke-opacity:1;paint-order:stroke markers fill"
     d="M 65.993097,77.967297 33,78 V 52.000315 L 66,52 v 26 z"
     sodipodi:nodetypes="cccccc" />
  <path
     id="path26304"
     style="opacity:1;fill:url(#linearGradient26308);fill-opacity:1;stroke:none;stroke-width:1.1245;stroke-linecap:butt;stroke-linejoin:miter;stroke-miterlimit:4;stroke-dasharray:none;stroke-opacity:1;paint-order:stroke markers fill"
     d="M 34.477515,52.414189 H 66 V 77.526401 H 33 V 52.414189 Z"
     sodipodi:nodetypes="sccccs" />
  <path
     id="path26306"
     style="opacity:1;fill:#959197;fill-opacity:1;stroke:none;stroke-width:0.714988;stroke-linecap:butt;stroke-linejoin:miter;stroke-miterlimit:4;stroke-dasharray:none;stroke-opacity:1;paint-order:stroke markers fill"
     d="m 33,52.423828 v 0.496094 h 33 v -0.505733 z"
     sodipodi:nodetypes="ccccc" />
  <path
     id="path26294"
     style="opacity:1;fill:#0a090a;fill-opacity:1;stroke:none;stroke-width:1.19156;stroke-linecap:butt;stroke-linejoin:miter;stroke-miterlimit:4;stroke-dasharray:none;stroke-opacity:1;paint-order:stroke markers fill"
     d="M 65.993097,51.967297 33,52 V 26.000315 L 66,26 v 26 z"
     sodipodi:nodetypes="cccccc" />
  <path
     id="path26296"
     style="opacity:1;fill:#413f40;fill-opacity:1;stroke:none;stroke-width:1.1245;stroke-linecap:butt;stroke-linejoin:miter;stroke-miterlimit:4;stroke-dasharray:none;stroke-opacity:1;paint-order:stroke markers fill"
     d="M 34.477515,26.414189 H 66 V 51.526401 H 33 V 26.414189 Z"
     sodipodi:nodetypes="sccccs" />
  <path
     id="path26286"
     style="opacity:1;fill:#0a090a;fill-opacity:1;stroke:none;stroke-width:1.19156;stroke-linecap:butt;stroke-linejoin:miter;stroke-miterlimit:4;stroke-dasharray:none;stroke-opacity:1;paint-order:stroke markers fill"
     d="M 65.993097,25.967297 33,26 V 3.15e-4 L 66,0 v 26 z"
     sodipodi:nodetypes="cccccc" />
  <path
     id="path26278"
     style="opacity:1;fill:#0a090a;fill-opacity:1;stroke:none;stroke-width:1.19156;stroke-linecap:butt;stroke-linejoin:miter;stroke-miterlimit:4;stroke-dasharray:none;stroke-opacity:1;paint-order:stroke markers fill"
     d="M 32.993097,103.9673 1.61745,104 C 0.71373049,104.00094 0,103.25687 0,102.35301 V 79.631834 C 0,78.727972 0.727543,78.000322 1.631263,78.000315 L 33,78 v 26 z"
     sodipodi:nodetypes="cssssccc" />
  <path
     id="path26280"
     style="opacity:1;fill:url(#linearGradient26284);fill-opacity:1;stroke:none;stroke-width:1.11;stroke-linecap:butt;stroke-linejoin:miter;stroke-miterlimit:4;stroke-dasharray:none;stroke-opacity:1;paint-order:stroke markers fill"
     d="M 1.846436,78.414189 H 32.560991 V 103.5264 H 1.846432 c -0.790561,0 -1.427005,-0.63644 -1.427005,-1.427 V 79.841193 c 0,-0.79056 0.636444,-1.427004 1.427005,-1.427004 z"
     sodipodi:nodetypes="sccsssss" />
  <path
     id="path26282"
     style="opacity:1;fill:#959197;fill-opacity:1;stroke:none;stroke-width:0.723173;stroke-linecap:butt;stroke-linejoin:miter;stroke-miterlimit:4;stroke-dasharray:none;stroke-opacity:1;paint-order:stroke markers fill"
     d="m 1.695312,78.423828 c -0.283472,1.77e-4 -0.808811,0.234342 -1.076171,0.697266 -0.271973,0.470905 -0.205079,0.776105 -0.205079,0.822265 0,0.05338 0.346778,-1.023437 1.265625,-1.023437 H 32.558594 V 78.423828 H 1.695301 Z"
     sodipodi:nodetypes="ccsccccc" />
  <path
     id="path26262"
     style="opacity:1;fill:#0a090a;fill-opacity:1;stroke:none;stroke-width:1.19156;stroke-linecap:butt;stroke-linejoin:miter;stroke-miterlimit:4;stroke-dasharray:none;stroke-opacity:1;paint-order:stroke markers fill"
     d="M 32.993097,77.967297 1.61745,78 C 0.71373049,78.000942 0,77.256871 0,76.353009 V 53.631834 C 0,52.727972 0.727543,52.000322 1.631263,52.000315 L 33,52 v 26 z"
     sodipodi:nodetypes="cssssccc" />
  <path
     id="path26264"
     style="opacity:1;fill:url(#linearGradient26268);fill-opacity:1;stroke:none;stroke-width:1.11;stroke-linecap:butt;stroke-linejoin:miter;stroke-miterlimit:4;stroke-dasharray:none;stroke-opacity:1;paint-order:stroke markers fill"
     d="M 1.846436,52.414189 H 32.560991 V 77.526401 H 1.846432 c -0.790561,0 -1.427005,-0.636445 -1.427005,-1.427005 V 53.841193 c 0,-0.79056 0.636444,-1.427004 1.427005,-1.427004 z"
     sodipodi:nodetypes="sccsssss" />
  <path
     id="path26254"
     style="opacity:1;fill:#0a090a;fill-opacity:1;stroke:none;stroke-width:1.19156;stroke-linecap:butt;stroke-linejoin:miter;stroke-miterlimit:4;stroke-dasharray:none;stroke-opacity:1;paint-order:stroke markers fill"
     d="M 32.993097,51.967297 1.61745,52 C 0.71373049,52.000942 0,51.256871 0,50.353009 V 27.631834 C 0,26.727972 0.727543,26.000322 1.631263,26.000315 L 33,26 v 26 z"
     sodipodi:nodetypes="cssssccc" />
  <path
     id="path26256"
     style="opacity:1;fill:url(#linearGradient26260);fill-opacity:1;stroke:none;stroke-width:1.11;stroke-linecap:butt;stroke-linejoin:miter;stroke-miterlimit:4;stroke-dasharray:none;stroke-opacity:1;paint-order:stroke markers fill"
     d="M 1.846436,26.414189 H 32.560991 V 51.526401 H 1.846432 c -0.790561,0 -1.427005,-0.636445 -1.427005,-1.427005 V 27.841193 c 0,-0.79056 0.636444,-1.427004 1.427005,-1.427004 z"
     sodipodi:nodetypes="sccsssss" />
  <path
     id="path26258"
     style="opacity:1;fill:#959197;fill-opacity:1;stroke:none;stroke-width:0.723173;stroke-linecap:butt;stroke-linejoin:miter;stroke-miterlimit:4;stroke-dasharray:none;stroke-opacity:1;paint-order:stroke markers fill"
     d="m 1.695312,26.423828 c -0.283472,1.77e-4 -0.808811,0.234342 -1.076171,0.697266 -0.271973,0.470905 -0.205079,0.776105 -0.205079,0.822265 0,0.05338 0.346778,-1.023437 1.265625,-1.023437 H 32.558594 V 26.423828 H 1.695301 Z"
     sodipodi:nodetypes="ccsccccc" />
  <path
     id="path19544"
     style="opacity:1;fill:#0a090a;fill-opacity:1;stroke:none;stroke-width:1.19156;stroke-linecap:butt;stroke-linejoin:miter;stroke-miterlimit:4;stroke-dasharray:none;stroke-opacity:1;paint-order:stroke markers fill"
     d="M 32.993097,25.967297 1.61745,26 C 0.71373049,26.000942 0,25.256871 0,24.353009 L 0,1.631834 C 0,0.727972 0.727543,3.22e-4 1.631263,3.15e-4 L 33,0 v 26 z"
     sodipodi:nodetypes="cssssccc" />
  <path
     id="path19546"
     style="opacity:1;fill:#413f40;fill-opacity:1;stroke:none;stroke-width:1.11;stroke-linecap:butt;stroke-linejoin:miter;stroke-miterlimit:4;stroke-dasharray:none;stroke-opacity:1;paint-order:stroke markers fill"
     d="M 1.846436,0.414189 H 32.560991 V 25.526401 H 1.846432 c -0.790561,0 -1.427005,-0.636445 -1.427005,-1.427005 V 1.841193 c 0,-0.79056 0.636444,-1.427004 1.427005,-1.427004 z"
     sodipodi:nodetypes="sccsssss" />
  <path
     d="m 99.5,0.5 h 30 a 1,1 0 0 1 1,1 v 23 a 1,1 0 0 1 -1,1 h -30 z"
     fill="#ffffff"
     opacity="0"
     id="path24079" />
  <path
     d="m 114.672,16 h 0.738 l -2.078,-5.637 h -0.7 L 110.559,16 h 0.741 l 0.566,-1.613 h 2.239 z m -1.719,-4.727 h 0.063 l 0.884,2.516 h -1.83 z M 116.352,16 h 0.672 v -5.883 h -0.672 z m 2.015,0 h 0.672 v -5.883 h -0.672 z"
     fill="#e4dcd9"
     id="path24081" />
  <path
     d="m 99.5,26.5 h 30 a 1,1 0 0 1 1,1 v 23 a 1,1 0 0 1 -1,1 h -30 z"
     fill="#ffffff"
     opacity="0"
     id="path24095" />
  <path
     d="m 114.672,42 h 0.738 l -2.078,-5.637 h -0.7 L 110.559,42 h 0.741 l 0.566,-1.613 h 2.239 z m -1.719,-4.727 h 0.063 l 0.884,2.516 h -1.83 z M 116.352,42 h 0.672 v -5.883 h -0.672 z m 2.015,0 h 0.672 v -5.883 h -0.672 z"
     fill="#e4dcd9"
     id="path24097" />
  <path
     d="m 99.5,52.5 h 30 a 1,1 0 0 1 1,1 v 23 a 1,1 0 0 1 -1,1 h -30 z"
     fill="#ffffff"
     opacity="0"
     id="path24111" />
  <path
     d="m 114.672,68 h 0.738 l -2.078,-5.637 h -0.7 L 110.559,68 h 0.741 l 0.566,-1.613 h 2.239 z m -1.719,-4.727 h 0.063 l 0.884,2.516 h -1.83 z M 116.352,68 h 0.672 v -5.883 h -0.672 z m 2.015,0 h 0.672 v -5.883 h -0.672 z"
     fill="#e4dcd9"
     id="path24113" />
  <path
     d="m 99.5,78.5 h 30 a 1,1 0 0 1 1,1 v 23 a 1,1 0 0 1 -1,1 h -30 z"
     fill="#ffffff"
     opacity="0"
     id="path24127" />
  <path
     d="m 114.672,94 h 0.738 l -2.078,-5.637 h -0.7 L 110.559,94 h 0.741 l 0.566,-1.613 h 2.239 z m -1.719,-4.727 h 0.063 l 0.884,2.516 h -1.83 z M 116.352,94 h 0.672 v -5.883 h -0.672 z m 2.015,0 h 0.672 v -5.883 h -0.672 z"
     fill="#fce237"
     id="path24129" />
  <path
     d="m 1.501,0.5 h 30 v 25 h -30 a 1,1 0 0 1 -1,-1 v -23 a 1,1 0 0 1 1,-1 z"
     fill="#ffffff"
     opacity="0"
     id="path24143" />
  <path
     d="m 13.112,10.23 c -1.594,0 -2.59,1.137 -2.59,2.949 0,1.812 0.973,2.954 2.59,2.954 1.617,0 2.578,-1.153 2.578,-2.953 0,-1.8 -0.976,-2.95 -2.578,-2.95 z m 0,0.648 c 1.152,0 1.855,0.891 1.855,2.3 0,1.409 -0.7,2.3 -1.855,2.3 -1.172,0 -1.867,-0.906 -1.867,-2.3 0,-1.394 0.719,-2.299 1.867,-2.299 z M 17.101,16 h 0.672 v -3.648 h 0.968 V 11.79 h -0.965 v -0.45 c 0,-0.461 0.2,-0.7 0.688,-0.7 a 1.849,1.849 0 0 1 0.316,0.02 v -0.547 a 2.359,2.359 0 0 0 -0.453,-0.039 1.09,1.09 0 0 0 -1.226,1.246 v 0.469 h -0.7 v 0.563 h 0.7 z m 2.9,0 h 0.67 v -3.648 h 0.965 V 11.79 h -0.965 v -0.45 c 0,-0.461 0.2,-0.7 0.688,-0.7 a 1.849,1.849 0 0 1 0.316,0.02 v -0.547 a 2.359,2.359 0 0 0 -0.453,-0.039 1.09,1.09 0 0 0 -1.221,1.246 v 0.469 h -0.7 v 0.563 h 0.7 z"
     fill="#fce237"
     id="path24145" />
  <path
     d="m 1.501,26.5 h 30 v 25 h -30 a 1,1 0 0 1 -1,-1 v -23 a 1,1 0 0 1 1,-1 z"
     fill="#ffffff"
     opacity="0"
     id="path24159" />
  <path
     d="m 13.112,36.23 c -1.594,0 -2.59,1.137 -2.59,2.949 0,1.812 0.973,2.954 2.59,2.954 1.617,0 2.578,-1.153 2.578,-2.953 0,-1.8 -0.976,-2.95 -2.578,-2.95 z m 0,0.648 c 1.152,0 1.855,0.891 1.855,2.3 0,1.409 -0.7,2.3 -1.855,2.3 -1.172,0 -1.867,-0.906 -1.867,-2.3 0,-1.394 0.719,-2.299 1.867,-2.299 z M 17.101,42 h 0.672 v -3.648 h 0.968 V 37.79 h -0.965 v -0.45 c 0,-0.461 0.2,-0.7 0.688,-0.7 a 1.849,1.849 0 0 1 0.316,0.02 v -0.547 a 2.359,2.359 0 0 0 -0.453,-0.039 1.09,1.09 0 0 0 -1.226,1.246 v 0.469 h -0.7 v 0.563 h 0.7 z m 2.9,0 h 0.67 v -3.648 h 0.965 V 37.79 h -0.965 v -0.45 c 0,-0.461 0.2,-0.7 0.688,-0.7 a 1.849,1.849 0 0 1 0.316,0.02 v -0.547 a 2.359,2.359 0 0 0 -0.453,-0.039 1.09,1.09 0 0 0 -1.221,1.246 v 0.469 h -0.7 v 0.563 h 0.7 z"
     fill="#e4dcd9"
     id="path24161" />
  <path
     d="m 1.501,52.5 h 30 v 25 h -30 a 1,1 0 0 1 -1,-1 v -23 a 1,1 0 0 1 1,-1 z"
     fill="#ffffff"
     opacity="0"
     id="path24175" />
  <path
     d="m 13.112,62.23 c -1.594,0 -2.59,1.137 -2.59,2.949 0,1.812 0.973,2.954 2.59,2.954 1.617,0 2.578,-1.153 2.578,-2.953 0,-1.8 -0.976,-2.95 -2.578,-2.95 z m 0,0.648 c 1.152,0 1.855,0.891 1.855,2.3 0,1.409 -0.7,2.3 -1.855,2.3 -1.172,0 -1.867,-0.906 -1.867,-2.3 0,-1.394 0.719,-2.299 1.867,-2.299 z M 17.101,68 h 0.672 v -3.648 h 0.968 V 63.79 h -0.965 v -0.45 c 0,-0.461 0.2,-0.7 0.688,-0.7 a 1.849,1.849 0 0 1 0.316,0.02 v -0.547 a 2.359,2.359 0 0 0 -0.453,-0.039 1.09,1.09 0 0 0 -1.226,1.246 v 0.469 h -0.7 v 0.563 h 0.7 z m 2.9,0 h 0.67 v -3.648 h 0.965 V 63.79 h -0.965 v -0.45 c 0,-0.461 0.2,-0.7 0.688,-0.7 a 1.849,1.849 0 0 1 0.316,0.02 v -0.547 a 2.359,2.359 0 0 0 -0.453,-0.039 1.09,1.09 0 0 0 -1.221,1.246 v 0.469 h -0.7 v 0.563 h 0.7 z"
     fill="#e4dcd9"
     id="path24177" />
  <path
     d="m 1.501,78.5 h 30 v 25 h -30 a 1,1 0 0 1 -1,-1 v -23 a 1,1 0 0 1 1,-1 z"
     fill="#ffffff"
     opacity="0"
     id="path24191" />
  <path
     d="m 13.112,88.23 c -1.594,0 -2.59,1.137 -2.59,2.949 0,1.812 0.973,2.954 2.59,2.954 1.617,0 2.578,-1.153 2.578,-2.953 0,-1.8 -0.976,-2.95 -2.578,-2.95 z m 0,0.648 c 1.152,0 1.855,0.891 1.855,2.3 0,1.409 -0.7,2.3 -1.855,2.3 -1.172,0 -1.867,-0.906 -1.867,-2.3 0,-1.394 0.719,-2.299 1.867,-2.299 z M 17.101,94 h 0.672 v -3.648 h 0.968 V 89.79 h -0.965 v -0.45 c 0,-0.461 0.2,-0.7 0.688,-0.7 a 1.849,1.849 0 0 1 0.316,0.02 v -0.547 a 2.359,2.359 0 0 0 -0.453,-0.039 1.09,1.09 0 0 0 -1.226,1.246 v 0.469 h -0.7 v 0.563 h 0.7 z m 2.9,0 h 0.67 v -3.648 h 0.965 V 89.79 h -0.965 v -0.45 c 0,-0.461 0.2,-0.7 0.688,-0.7 a 1.849,1.849 0 0 1 0.316,0.02 v -0.547 a 2.359,2.359 0 0 0 -0.453,-0.039 1.09,1.09 0 0 0 -1.221,1.246 v 0.469 h -0.7 v 0.563 h 0.7 z"
     fill="#e4dcd9"
     id="path24193" />
  <rect
     width="31"
     height="25"
     fill="#ffffff"
     opacity="0"
     id="rect24207"
     x="66.5"
     y="0.5" />
  <rect
     width="31"
     height="25"
     fill="#ffffff"
     opacity="0"
     id="rect24223"
     x="66.5"
     y="26.5" />
  <rect
     width="31"
     height="25"
     fill="#ffffff"
     opacity="0"
     id="rect24239"
     x="66.5"
     y="52.5" />
  <rect
     width="31"
     height="25"
     fill="#ffffff"
     opacity="0"
     id="rect24255"
     x="66.5"
     y="78.5" />
  <rect
     width="31"
     height="25"
     fill="#ffffff"
     opacity="0"
     id="rect24271"
     x="33.5"
     y="0.5" />
  <path
     id="path26288"
     style="opacity:1;fill:url(#linearGradient26292);fill-opacity:1;stroke:none;stroke-width:1.1245;stroke-linecap:butt;stroke-linejoin:miter;stroke-miterlimit:4;stroke-dasharray:none;stroke-opacity:1;paint-order:stroke markers fill"
     d="M 34.477515,0.414189 H 66 V 25.526401 H 33 V 0.414189 Z"
     sodipodi:nodetypes="sccccs" />
  <path
     d="m 40.449,14.527 c 0.131621,1.023535 1.07134,1.744256 2.094,1.606 1.289,0 2.105,-0.66 2.105,-1.7 0,-0.828 -0.469,-1.281 -1.637,-1.574 l -0.59,-0.156 c -0.777,-0.2 -1.086,-0.453 -1.086,-0.895 0,-0.57 0.5,-0.945 1.246,-0.945 0.601707,-0.07557 1.15939,0.327079 1.277,0.922 h 0.707 c -0.123991,-0.963831 -0.993227,-1.653454 -1.96,-1.555 -1.191,0 -1.992,0.648 -1.992,1.605 0,0.8 0.441,1.262 1.461,1.52 l 0.723,0.188 c 0.777,0.2 1.129,0.5 1.129,0.98 0,0.559 -0.559,0.969 -1.316,0.969 -0.8,0 -1.363,-0.375 -1.449,-0.965 z m 6.961,-2.219 c 0.667995,-5.72e-4 1.191496,0.573935 1.129,1.239 h -2.32 c -0.02137,-0.674007 0.51667,-1.233281 1.191,-1.238 z m 1.109,2.6 c -0.21083,0.394755 -0.641356,0.620722 -1.086,0.57 -0.715,0 -1.18,-0.527 -1.215,-1.359 V 14.09 h 3.028 v -0.258 c 0,-1.309 -0.691,-2.117 -1.828,-2.117 -1.162719,0.0057 -2.055058,1.032923 -1.898,2.185 0,1.332 0.73,2.176 1.9,2.176 0.791735,0.07882 1.530499,-0.40757 1.771,-1.166 z M 50.301,16 h 0.672 v -2.492 c -0.07419,-0.65116 0.45018,-1.214918 1.105,-1.188 0.672,0 0.992,0.359 0.992,1.117 V 16 h 0.672 v -2.727 c 0.121416,-0.87087 -0.595645,-1.629824 -1.472,-1.558 -0.535957,-0.04805 -1.043726,0.247946 -1.266,0.738 h -0.063 v -0.664 h -0.64 z m 6.224,0.074 c 0.552694,0.01747 1.070676,-0.268764 1.35,-0.746 h 0.063 V 16 h 0.641 v -5.883 h -0.673 v 2.336 h -0.058 c -0.265339,-0.477011 -0.777723,-0.76283 -1.323,-0.738 -1.07,0 -1.77,0.859 -1.77,2.18 0,1.321 0.694,2.179 1.77,2.179 z m 0.159,-3.754 c 0.761,0 1.241,0.61 1.241,1.575 0,0.965 -0.476,1.574 -1.241,1.574 -0.765,0 -1.23,-0.59 -1.23,-1.574 0,-0.984 0.464,-1.575 1.23,-1.575 z"
     fill="#e4dcd9"
     id="path24273"
     sodipodi:nodetypes="ccsccsccccsccssccccccccccccscccccccccscccccccccccccccccccscsssss" />
  <rect
     width="31"
     height="25"
     fill="#ffffff"
     opacity="0"
     id="rect24287"
     x="33.5"
     y="26.5" />
  <path
     d="m 40.449,40.527 c 0.131621,1.023535 1.07134,1.744256 2.094,1.606 1.289,0 2.105,-0.66 2.105,-1.7 0,-0.828 -0.469,-1.281 -1.637,-1.574 l -0.59,-0.156 c -0.777,-0.2 -1.086,-0.453 -1.086,-0.895 0,-0.57 0.5,-0.945 1.246,-0.945 0.601707,-0.07557 1.15939,0.327079 1.277,0.922 h 0.707 c -0.123991,-0.963831 -0.993227,-1.653454 -1.96,-1.555 -1.191,0 -1.992,0.648 -1.992,1.605 0,0.8 0.441,1.262 1.461,1.52 l 0.723,0.188 c 0.777,0.2 1.129,0.5 1.129,0.98 0,0.559 -0.559,0.969 -1.316,0.969 -0.8,0 -1.363,-0.375 -1.449,-0.965 z m 6.961,-2.219 c 0.667995,-5.72e-4 1.191496,0.573935 1.129,1.239 h -2.32 c -0.02137,-0.674007 0.51667,-1.233281 1.191,-1.238 z m 1.109,2.6 c -0.21083,0.394755 -0.641356,0.620722 -1.086,0.57 -0.715,0 -1.18,-0.527 -1.215,-1.359 V 40.09 h 3.028 v -0.258 c 0,-1.309 -0.691,-2.117 -1.828,-2.117 -1.162719,0.0057 -2.055058,1.032923 -1.898,2.185 0,1.332 0.73,2.176 1.9,2.176 0.791735,0.07882 1.530499,-0.40757 1.771,-1.166 z M 50.301,42 h 0.672 v -2.492 c -0.07419,-0.65116 0.45018,-1.214918 1.105,-1.188 0.672,0 0.992,0.359 0.992,1.117 V 42 h 0.672 v -2.727 c 0.121416,-0.87087 -0.595645,-1.629824 -1.472,-1.558 -0.535957,-0.04805 -1.043726,0.247946 -1.266,0.738 h -0.063 v -0.664 h -0.64 z m 6.224,0.074 c 0.552694,0.01747 1.070676,-0.268764 1.35,-0.746 h 0.063 V 42 h 0.641 v -5.883 h -0.673 v 2.336 h -0.058 c -0.265339,-0.477011 -0.777723,-0.76283 -1.323,-0.738 -1.07,0 -1.77,0.859 -1.77,2.18 0,1.321 0.694,2.179 1.77,2.179 z m 0.159,-3.754 c 0.761,0 1.241,0.61 1.241,1.575 0,0.965 -0.476,1.574 -1.241,1.574 -0.765,0 -1.23,-0.59 -1.23,-1.574 0,-0.984 0.464,-1.575 1.23,-1.575 z"
     fill="#fce237"
     id="path24289"
     sodipodi:nodetypes="ccsccsccccsccssccccccccccccscccccccccscccccccccccccccccccscsssss" />
  <rect
     width="31"
     height="25"
     fill="#ffffff"
     opacity="0"
     id="rect24303"
     x="33.5"
     y="52.5" />
  <path
     d="m 40.449,66.527 c 0.131621,1.023535 1.07134,1.744256 2.094,1.606 1.289,0 2.105,-0.66 2.105,-1.7 0,-0.828 -0.469,-1.281 -1.637,-1.574 l -0.59,-0.156 c -0.777,-0.2 -1.086,-0.453 -1.086,-0.895 0,-0.57 0.5,-0.945 1.246,-0.945 0.601707,-0.07557 1.15939,0.327079 1.277,0.922 h 0.707 c -0.123991,-0.963831 -0.993227,-1.653454 -1.96,-1.555 -1.191,0 -1.992,0.648 -1.992,1.605 0,0.8 0.441,1.262 1.461,1.52 l 0.723,0.188 c 0.777,0.2 1.129,0.5 1.129,0.98 0,0.559 -0.559,0.969 -1.316,0.969 -0.8,0 -1.363,-0.375 -1.449,-0.965 z m 6.961,-2.219 c 0.667995,-5.72e-4 1.191496,0.573935 1.129,1.239 h -2.32 c -0.02137,-0.674007 0.51667,-1.233281 1.191,-1.238 z m 1.109,2.6 c -0.21083,0.394755 -0.641356,0.620722 -1.086,0.57 -0.715,0 -1.18,-0.527 -1.215,-1.359 V 66.09 h 3.028 v -0.258 c 0,-1.309 -0.691,-2.117 -1.828,-2.117 -1.162719,0.0057 -2.055058,1.032923 -1.898,2.185 0,1.332 0.73,2.176 1.9,2.176 0.791735,0.07882 1.530499,-0.40757 1.771,-1.166 z M 50.301,68 h 0.672 v -2.492 c -0.07419,-0.65116 0.45018,-1.214918 1.105,-1.188 0.672,0 0.992,0.359 0.992,1.117 V 68 h 0.672 v -2.727 c 0.121416,-0.87087 -0.595645,-1.629824 -1.472,-1.558 -0.535957,-0.04805 -1.043726,0.247946 -1.266,0.738 h -0.063 v -0.664 h -0.64 z m 6.224,0.074 c 0.552694,0.01747 1.070676,-0.268764 1.35,-0.746 h 0.063 V 68 h 0.641 v -5.883 h -0.673 v 2.336 h -0.058 c -0.265339,-0.477011 -0.777723,-0.76283 -1.323,-0.738 -1.07,0 -1.77,0.859 -1.77,2.18 0,1.321 0.694,2.179 1.77,2.179 z m 0.159,-3.754 c 0.761,0 1.241,0.61 1.241,1.575 0,0.965 -0.476,1.574 -1.241,1.574 -0.765,0 -1.23,-0.59 -1.23,-1.574 0,-0.984 0.464,-1.575 1.23,-1.575 z"
     fill="#e4dcd9"
     id="path24305"
     sodipodi:nodetypes="ccsccsccccsccssccccccccccccscccccccccscccccccccccccccccccscsssss" />
  <rect
     width="31"
     height="25"
     fill="#ffffff"
     opacity="0"
     id="rect24319"
     x="33.5"
     y="78.5" />
  <path
     d="m 40.449,92.527 c 0.131621,1.023535 1.07134,1.744256 2.094,1.606 1.289,0 2.105,-0.66 2.105,-1.7 0,-0.828 -0.469,-1.281 -1.637,-1.574 l -0.59,-0.156 c -0.777,-0.2 -1.086,-0.453 -1.086,-0.895 0,-0.57 0.5,-0.945 1.246,-0.945 0.601707,-0.07557 1.15939,0.327079 1.277,0.922 h 0.707 c -0.123991,-0.963831 -0.993227,-1.653454 -1.96,-1.555 -1.191,0 -1.992,0.648 -1.992,1.605 0,0.8 0.441,1.262 1.461,1.52 l 0.723,0.188 c 0.777,0.2 1.129,0.5 1.129,0.98 0,0.559 -0.559,0.969 -1.316,0.969 -0.8,0 -1.363,-0.375 -1.449,-0.965 z m 6.961,-2.219 c 0.667995,-5.72e-4 1.191496,0.573935 1.129,1.239 h -2.32 c -0.02137,-0.674007 0.51667,-1.233281 1.191,-1.238 z m 1.109,2.6 c -0.21083,0.394755 -0.641356,0.620722 -1.086,0.57 -0.715,0 -1.18,-0.527 -1.215,-1.359 V 92.09 h 3.028 v -0.258 c 0,-1.309 -0.691,-2.117 -1.828,-2.117 -1.162719,0.0057 -2.055058,1.032923 -1.898,2.185 0,1.332 0.73,2.176 1.9,2.176 0.791735,0.07882 1.530499,-0.40757 1.771,-1.166 z M 50.301,94 h 0.672 v -2.492 c -0.07419,-0.65116 0.45018,-1.214918 1.105,-1.188 0.672,0 0.992,0.359 0.992,1.117 V 94 h 0.672 v -2.727 c 0.121416,-0.87087 -0.595645,-1.629824 -1.472,-1.558 -0.535957,-0.04805 -1.043726,0.247946 -1.266,0.738 h -0.063 v -0.664 h -0.64 z m 6.224,0.074 c 0.552694,0.01747 1.070676,-0.268764 1.35,-0.746 h 0.063 V 94 h 0.641 v -5.883 h -0.673 v 2.336 h -0.058 c -0.265339,-0.477011 -0.777723,-0.76283 -1.323,-0.738 -1.07,0 -1.77,0.859 -1.77,2.18 0,1.321 0.694,2.179 1.77,2.179 z m 0.159,-3.754 c 0.761,0 1.241,0.61 1.241,1.575 0,0.965 -0.476,1.574 -1.241,1.574 -0.765,0 -1.23,-0.59 -1.23,-1.574 0,-0.984 0.464,-1.575 1.23,-1.575 z"
     fill="#e4dcd9"
     id="path24321"
     sodipodi:nodetypes="ccsccsccccsccssccccccccccccscccccccccscccccccccccccccccccscsssss" />
  <path
     id="path26266"
     style="opacity:1;fill:#959197;fill-opacity:1;stroke:none;stroke-width:0.723173;stroke-linecap:butt;stroke-linejoin:miter;stroke-miterlimit:4;stroke-dasharray:none;stroke-opacity:1;paint-order:stroke markers fill"
     d="m 1.695312,52.423828 c -0.283472,1.77e-4 -0.808811,0.234342 -1.076171,0.697266 -0.271973,0.470905 -0.205079,0.776105 -0.205079,0.822265 0,0.05338 0.346778,-1.023437 1.265625,-1.023437 H 32.558594 V 52.423828 H 1.695301 Z"
     sodipodi:nodetypes="ccsccccc" />
  <path
     id="path26290"
     style="opacity:1;fill:#959197;fill-opacity:1;stroke:none;stroke-width:0.714988;stroke-linecap:butt;stroke-linejoin:miter;stroke-miterlimit:4;stroke-dasharray:none;stroke-opacity:1;paint-order:stroke markers fill"
     d="M 33,0.423828 V 0.919922 H 66 V 0.414189 Z"
     sodipodi:nodetypes="ccccc" />
  <path
     d="m 72.046865,10.95161 c 0.119666,0.930567 0.974031,1.585825 1.903803,1.460127 1.17192,0 1.913803,-0.600052 1.913803,-1.545589 0,-0.752793 -0.426401,-1.1646475 -1.488312,-1.4310344 L 73.839749,9.2932831 C 73.133324,9.111449 72.980242,8.8814289 72.980242,8.4795757 c 0,-0.518227 0.454585,-0.8591659 1.132826,-0.8591659 0.547057,-0.068706 1.054083,0.2973705 1.16101,0.838255 h 0.642784 C 75.804134,7.5827674 75.014419,6.9559191 74.135797,7.0449051 c -1.082821,0 -1.811067,0.5891423 -1.811067,1.4592182 0,0.7273362 0.273092,1.1473728 1.200446,1.3819388 l 0.65733,0.1709239 c 0.706425,0.181834 1.026453,0.454585 1.026453,0.890987 0,0.508226 -0.508226,0.880986 -1.196468,0.880986 -0.727336,0 -1.239199,-0.340939 -1.317388,-0.877349 z m 6.328734,-2.0174492 c 0.607317,-5.2e-4 1.083276,0.5218046 1.026453,1.1264622 H 77.292777 C 77.273321,9.4478356 77.762518,8.9393604 78.375599,8.93507 Z m 1.00827,2.3656612 c -0.19168,0.358899 -0.583106,0.564342 -0.987359,0.518227 -0.649148,0 -1.071912,-0.479133 -1.103733,-1.235563 v -0.02818 h 2.752059 V 10.31974 c 0,-1.1901036 -0.628237,-1.9247131 -1.661964,-1.9247131 -1.057474,0.00464 -1.869354,0.9387428 -1.726514,1.9865371 0,1.209196 0.664604,1.976536 1.727424,1.976536 0.719962,0.07279 1.392476,-0.36873 1.611958,-1.058274 z m 1.620141,0.990995 h 0.610963 v -2.265652 c -0.06746,-0.5920152 0.40929,-1.1045672 1.004633,-1.0800941 0.610962,0 0.901897,0.3263921 0.901897,1.0155431 v 2.330203 h 0.610962 V 9.8115101 C 84.242857,9.019741 83.590918,8.3297226 82.794166,8.3950229 82.306888,8.3513372 81.845238,8.620448 81.643157,9.0659905 h -0.05637 V 8.4623015 H 81.00401 Z m 5.661403,0.06728 c 0.501526,0.01487 0.971176,-0.245229 1.224653,-0.678241 h 0.05728 v 0.610962 h 0.582779 V 6.9421688 h -0.610963 v 2.1238217 h -0.05364 C 87.624724,8.6332127 87.160202,8.373501 86.665413,8.3950229 c -0.972812,0 -1.609231,0.7809772 -1.609231,1.9819911 0,1.201014 0.628237,1.981082 1.609231,1.981083 z m 0.141831,-3.4130251 c 0.692788,0 1.125553,0.5536846 1.125553,1.4310341 0,0.877349 -0.430038,1.431943 -1.125553,1.431943 -0.695515,0 -1.118279,-0.536411 -1.118279,-1.431034 0,-0.8946235 0.422764,-1.4319431 1.118279,-1.4319431 z"
     fill="#e4dcd9"
     id="path24225-2"
     sodipodi:nodetypes="ccsccsccccsccssccccccccccccscccccccccscccccccccccccccccccscsssss"
     style="stroke-width:0.90917" />
  <path
     d="m 91.82289,9.7800428 c -0.172954,0.131246 -0.366189,0.2867042 -0.438458,0.4378472 -0.07226,0.148361 -0.10846,0.306669 -0.10846,0.474924 0,0.136917 0.02205,0.260997 0.06602,0.372239 0.04715,0.111244 0.113182,0.206765 0.198064,0.286668 0.08489,0.07991 0.185452,0.142585 0.301814,0.188259 0.119426,0.04279 0.251472,0.06418 0.39613,0.06418 0.210678,0 0.29424,0.0017 0.476624,-0.04668 0.182384,-0.05134 0.414851,-0.226944 0.572006,-0.318184 z m 3.566756,2.4131042 h -0.690274 c -0.05367,0 -0.101561,-0.0024 -0.143587,-0.007 -0.04202,-0.007 -0.08169,-0.01768 -0.119071,-0.03183 -0.03502,-0.01415 -0.06891,-0.03421 -0.10156,-0.06012 -0.03266,-0.02591 -0.06769,-0.05898 -0.105063,-0.09903 L 93.83996,11.63336 c -0.22177,0.155616 -0.676511,0.404244 -0.940308,0.489125 -0.261519,0.08489 -0.540462,0.127323 -0.837002,0.127323 -0.203122,0 -0.402742,-0.03537 -0.59886,-0.106102 -0.193753,-0.07073 -0.366583,-0.170912 -0.51831,-0.300621 -0.151729,-0.132042 -0.274303,-0.291194 -0.367722,-0.477491 -0.09342,-0.186337 -0.140084,-0.395004 -0.140084,-0.62604 0,-0.155617 0.02338,-0.303009 0.07003,-0.442092 0.04903,-0.139081 0.116707,-0.26764 0.203121,-0.3855031 0.08868,-0.1202478 0.192616,-0.2287382 0.311687,-0.3253784 0.119072,-0.099028 0.251013,-0.1850853 0.395738,-0.2581798 -0.112068,-0.1721251 -0.192616,-0.3407025 -0.241645,-0.5057514 -0.04903,-0.1650508 -0.07355,-0.3253799 -0.07355,-0.4809956 0,-0.1839096 0.03265,-0.3572088 0.09806,-0.5198988 0.06768,-0.16505 0.164605,-0.3088709 0.29068,-0.4314804 0.128441,-0.1249614 0.284809,-0.2239897 0.469282,-0.297085 0.18675,-0.073095 0.400378,-0.1096384 0.640884,-0.1096384 0.226499,0 0.426119,0.034191 0.59886,0.102565 0.172742,0.066022 0.318691,0.15444 0.437763,0.2652544 0.119072,0.1084626 0.21249,0.2345998 0.280168,0.3784297 0.06769,0.1438297 0.109704,0.2911871 0.126076,0.4420908 l -0.417918,0.0889 C 93.446502,8.302434 93.313715,8.229556 93.228553,8.042158 93.150283,7.861695 93.058355,7.7246202 92.952764,7.6309203 92.850622,7.5372203 92.714387,7.4903709 92.54419,7.4903709 c -0.119121,0 -0.223055,0.022553 -0.311538,0.067672 -0.08848,0.045119 -0.16343,0.1041115 -0.224716,0.1769885 -0.05784,0.072877 -0.102142,0.1578969 -0.132787,0.2550712 -0.03064,0.097171 -0.04597,0.1978107 -0.04597,0.3019217 0,0.090229 0.0064,0.176989 0.02044,0.260277 0.01699,0.079816 0.0443,0.1631034 0.08173,0.2498673 0.03741,0.083289 0.08009,0.1784083 0.152922,0.2700117 0.07694,0.091605 0.139844,0.179393 0.235221,0.2869796 l 1.516284,1.4545331 c 0.10673,-0.181284 0.151386,-0.157938 0.218535,-0.357663 0.06714,-0.202837 0.0825,-0.324695 0.102209,-0.5367512 0.01178,-0.086062 0.0069,-0.2392472 0.07029,-0.2884224 0.0633,-0.049177 0.147234,-0.069152 0.25498,-0.073761 l 0.333293,-0.014256 c 0,0.3419125 -0.116147,0.7338386 -0.207205,1.0333096 -0.09106,0.299473 -0.205369,0.387512 -0.371106,0.635083 z"
     fill="#b4b4b4"
     id="path30690"
     sodipodi:nodetypes="ccscscsccccsccscccsccssccccsscccsccsccccsscsscccccccsscscc"
     style="fill:#e4dcd9;stroke-width:0.879842" />
  <g
     id="g32950"
     transform="matrix(0.90917024,0,0,0.90917024,7.9904803,27.273267)">
    <path
       d="m 70.455875,10.645062 c 0.131621,1.023535 1.07134,1.744256 2.094,1.606 1.289,0 2.105,-0.66 2.105,-1.7 0,-0.828 -0.469,-1.281 -1.637,-1.574 l -0.59,-0.156 c -0.777,-0.2 -0.945375,-0.453 -0.945375,-0.895 0,-0.57 0.5,-0.945 1.246,-0.945 0.60171,-0.07557 1.15939,0.327079 1.277,0.922 h 0.707 c -0.12399,-0.963403 -0.9926,-1.652876 -1.959,-1.555 -1.191,0 -1.992,0.648 -1.992,1.605 0,0.8 0.300375,1.262 1.320375,1.52 l 0.723,0.188 c 0.777,0.2 1.129,0.5 1.129,0.98 0,0.559 -0.559,0.969 -1.316,0.969 -0.8,0 -1.363,-0.375 -1.449,-0.965 z m 6.961,-2.219 c 0.66799,-5.72e-4 1.1915,0.573935 1.129,1.239 h -2.32 c -0.0214,-0.674007 0.51667,-1.233281 1.191,-1.238 z m 1.109,2.602 c -0.21083,0.394755 -0.64136,0.620722 -1.086,0.57 -0.714,0 -1.179,-0.527 -1.214,-1.359 v -0.031 h 3.027 v -0.258 c 0,-1.309 -0.691,-2.117 -1.828,-2.117 -1.16312,0.0051 -2.05611,1.032527 -1.899,2.185 0,1.33 0.731,2.174 1.9,2.174 0.79189,0.08006 1.53159,-0.405568 1.773,-1.164 z m 1.782,1.09 h 0.672 v -2.492 c -0.0742,-0.65116 0.45018,-1.214918 1.105,-1.188 0.672,0 0.992,0.359 0.992,1.117 v 2.563 h 0.672 v -2.727 c 0.12142,-0.87087 -0.59565,-1.629824 -1.472,-1.558 -0.53596,-0.04805 -1.04373,0.247946 -1.266,0.738 h -0.062 v -0.664 h -0.641 z m 6.227,0.074 c 0.55163,0.01636 1.0682,-0.269728 1.347,-0.746 h 0.063 v 0.672 h 0.641 v -5.883 h -0.672 v 2.336 h -0.059 c -0.26485,-0.476014 -0.77578,-0.761672 -1.32,-0.738 -1.07,0 -1.77,0.859 -1.77,2.18 0,1.321 0.691,2.179 1.77,2.179 z m 0.156,-3.754 c 0.762,0 1.238,0.609 1.238,1.574 0,0.965 -0.473,1.575 -1.238,1.575 -0.765,0 -1.23,-0.59 -1.23,-1.574 0,-0.984 0.465,-1.575 1.23,-1.575 z"
       fill="#e4dcd9"
       id="path32946"
       sodipodi:nodetypes="ccsccsccccsccssccccccccccccscccccccccscccccccccccccccccccscsssss" />
    <path
       d="m 92.207604,9.356451 c -0.190233,0.144358 -0.402773,0.315347 -0.482262,0.48159 -0.07948,0.163183 -0.119295,0.337306 -0.119295,0.522371 0,0.150595 0.02425,0.287071 0.07261,0.409427 0.05186,0.122358 0.124489,0.227421 0.217852,0.315307 0.09337,0.08789 0.203979,0.15683 0.331966,0.207067 0.131357,0.04706 0.276595,0.07059 0.435705,0.07059 0.231726,0 0.323636,0.0019 0.524241,-0.05134 0.200605,-0.05647 0.456296,-0.249616 0.629151,-0.349971 z m 3.92309,2.654183 h -0.759236 c -0.05903,0 -0.111707,-0.0026 -0.157931,-0.0077 -0.04622,-0.0077 -0.08985,-0.01945 -0.130967,-0.03501 -0.03852,-0.01556 -0.07579,-0.03763 -0.111707,-0.06613 -0.03592,-0.0285 -0.07445,-0.06487 -0.115559,-0.108923 l -0.429106,-0.397949 c -0.243926,0.171163 -0.744098,0.44463 -1.034249,0.537991 -0.287646,0.09337 -0.594456,0.140043 -0.920622,0.140043 -0.223415,0 -0.442977,-0.0389 -0.658688,-0.116702 -0.21311,-0.0778 -0.403206,-0.187987 -0.570092,-0.330655 C 91.07565,11.480366 90.940831,11.305314 90.838079,11.100405 90.735325,10.895452 90.684,10.665939 90.684,10.411821 c 0,-0.171163 0.02571,-0.333281 0.07703,-0.486258 0.05393,-0.152976 0.128367,-0.294379 0.223414,-0.424017 0.09754,-0.132261 0.211859,-0.25159 0.342826,-0.357885 0.130967,-0.108921 0.27609,-0.203576 0.435273,-0.283973 -0.123264,-0.189321 -0.211859,-0.37474 -0.265786,-0.556278 -0.05393,-0.18154 -0.0809,-0.3578866 -0.0809,-0.5290489 0,-0.202283 0.03591,-0.3928955 0.107856,-0.5718388 0.07444,-0.1815392 0.181049,-0.3397284 0.31972,-0.4745871 0.141272,-0.1374455 0.313262,-0.2463671 0.516165,-0.3267649 0.205407,-0.080398 0.440377,-0.1205918 0.704911,-0.1205918 0.249127,0 0.46869,0.037607 0.658688,0.1128117 0.19,0.072618 0.35053,0.1698692 0.481498,0.2917544 0.130967,0.1192984 0.233718,0.2580372 0.308157,0.4162363 0.07445,0.1581989 0.120664,0.3202779 0.138672,0.4862575 l -0.45967,0.097782 C 93.993423,7.7312241 93.84737,7.6510653 93.7537,7.4449451 93.667613,7.2464531 93.566498,7.095684 93.450358,6.9926231 93.338012,6.8895625 93.188167,6.8380322 93.000966,6.8380322 c -0.131022,0 -0.245339,0.024806 -0.342662,0.074433 -0.09732,0.049627 -0.179757,0.1145126 -0.247166,0.1946703 -0.06362,0.080158 -0.112346,0.1736715 -0.146053,0.2805539 -0.0337,0.1068785 -0.05056,0.2175727 -0.05056,0.3320848 0,0.099243 0.007,0.1946709 0.02248,0.2862798 0.01869,0.08779 0.04873,0.179398 0.08989,0.27483 0.04115,0.09161 0.08809,0.196232 0.1682,0.296987 0.08463,0.100757 0.153815,0.197315 0.25872,0.31565 l 1.667767,1.599847 c 0.117393,-0.199395 0.16651,-0.173716 0.240368,-0.393395 0.07385,-0.223101 0.09074,-0.357133 0.11242,-0.590375 0.01296,-0.09466 0.0076,-0.263149 0.07731,-0.317237 0.06963,-0.05409 0.161943,-0.07606 0.280454,-0.08113 l 0.36659,-0.01568 c 0,0.376071 -0.127751,0.807152 -0.227906,1.136542 -0.100155,0.329391 -0.225886,0.426226 -0.408181,0.69853 z"
       fill="#b4b4b4"
       id="path32948"
       sodipodi:nodetypes="ccscscsccccsccscccsccssccccsscccsccsccccsscsscccccccsscscc"
       style="fill:#e4dcd9;stroke-width:0.967742" />
  </g>
  <g
     id="g32956"
     transform="matrix(0.90917024,0,0,0.90917024,7.9904803,53.273267)"
     style="fill:#fce237;fill-opacity:1">
    <path
       d="m 70.455875,10.645062 c 0.131621,1.023535 1.07134,1.744256 2.094,1.606 1.289,0 2.105,-0.66 2.105,-1.7 0,-0.828 -0.469,-1.281 -1.637,-1.574 l -0.59,-0.156 c -0.777,-0.2 -0.945375,-0.453 -0.945375,-0.895 0,-0.57 0.5,-0.945 1.246,-0.945 0.60171,-0.07557 1.15939,0.327079 1.277,0.922 h 0.707 c -0.12399,-0.963403 -0.9926,-1.652876 -1.959,-1.555 -1.191,0 -1.992,0.648 -1.992,1.605 0,0.8 0.300375,1.262 1.320375,1.52 l 0.723,0.188 c 0.777,0.2 1.129,0.5 1.129,0.98 0,0.559 -0.559,0.969 -1.316,0.969 -0.8,0 -1.363,-0.375 -1.449,-0.965 z m 6.961,-2.219 c 0.66799,-5.72e-4 1.1915,0.573935 1.129,1.239 h -2.32 c -0.0214,-0.674007 0.51667,-1.233281 1.191,-1.238 z m 1.109,2.602 c -0.21083,0.394755 -0.64136,0.620722 -1.086,0.57 -0.714,0 -1.179,-0.527 -1.214,-1.359 v -0.031 h 3.027 v -0.258 c 0,-1.309 -0.691,-2.117 -1.828,-2.117 -1.16312,0.0051 -2.05611,1.032527 -1.899,2.185 0,1.33 0.731,2.174 1.9,2.174 0.79189,0.08006 1.53159,-0.405568 1.773,-1.164 z m 1.782,1.09 h 0.672 v -2.492 c -0.0742,-0.65116 0.45018,-1.214918 1.105,-1.188 0.672,0 0.992,0.359 0.992,1.117 v 2.563 h 0.672 v -2.727 c 0.12142,-0.87087 -0.59565,-1.629824 -1.472,-1.558 -0.53596,-0.04805 -1.04373,0.247946 -1.266,0.738 h -0.062 v -0.664 h -0.641 z m 6.227,0.074 c 0.55163,0.01636 1.0682,-0.269728 1.347,-0.746 h 0.063 v 0.672 h 0.641 v -5.883 h -0.672 v 2.336 h -0.059 c -0.26485,-0.476014 -0.77578,-0.761672 -1.32,-0.738 -1.07,0 -1.77,0.859 -1.77,2.18 0,1.321 0.691,2.179 1.77,2.179 z m 0.156,-3.754 c 0.762,0 1.238,0.609 1.238,1.574 0,0.965 -0.473,1.575 -1.238,1.575 -0.765,0 -1.23,-0.59 -1.23,-1.574 0,-0.984 0.465,-1.575 1.23,-1.575 z"
       fill="#e4dcd9"
       id="path32952"
       sodipodi:nodetypes="ccsccsccccsccssccccccccccccscccccccccscccccccccccccccccccscsssss"
       style="fill:#fce237;fill-opacity:1" />
    <path
       d="m 92.207604,9.356451 c -0.190233,0.144358 -0.402773,0.315347 -0.482262,0.48159 -0.07948,0.163183 -0.119295,0.337306 -0.119295,0.522371 0,0.150595 0.02425,0.287071 0.07261,0.409427 0.05186,0.122358 0.124489,0.227421 0.217852,0.315307 0.09337,0.08789 0.203979,0.15683 0.331966,0.207067 0.131357,0.04706 0.276595,0.07059 0.435705,0.07059 0.231726,0 0.323636,0.0019 0.524241,-0.05134 0.200605,-0.05647 0.456296,-0.249616 0.629151,-0.349971 z m 3.92309,2.654183 h -0.759236 c -0.05903,0 -0.111707,-0.0026 -0.157931,-0.0077 -0.04622,-0.0077 -0.08985,-0.01945 -0.130967,-0.03501 -0.03852,-0.01556 -0.07579,-0.03763 -0.111707,-0.06613 -0.03592,-0.0285 -0.07445,-0.06487 -0.115559,-0.108923 l -0.429106,-0.397949 c -0.243926,0.171163 -0.744098,0.44463 -1.034249,0.537991 -0.287646,0.09337 -0.594456,0.140043 -0.920622,0.140043 -0.223415,0 -0.442977,-0.0389 -0.658688,-0.116702 -0.21311,-0.0778 -0.403206,-0.187987 -0.570092,-0.330655 C 91.07565,11.480366 90.940831,11.305314 90.838079,11.100405 90.735325,10.895452 90.684,10.665939 90.684,10.411821 c 0,-0.171163 0.02571,-0.333281 0.07703,-0.486258 0.05393,-0.152976 0.128367,-0.294379 0.223414,-0.424017 0.09754,-0.132261 0.211859,-0.25159 0.342826,-0.357885 0.130967,-0.108921 0.27609,-0.203576 0.435273,-0.283973 -0.123264,-0.189321 -0.211859,-0.37474 -0.265786,-0.556278 -0.05393,-0.18154 -0.0809,-0.3578866 -0.0809,-0.5290489 0,-0.202283 0.03591,-0.3928955 0.107856,-0.5718388 0.07444,-0.1815392 0.181049,-0.3397284 0.31972,-0.4745871 0.141272,-0.1374455 0.313262,-0.2463671 0.516165,-0.3267649 0.205407,-0.080398 0.440377,-0.1205918 0.704911,-0.1205918 0.249127,0 0.46869,0.037607 0.658688,0.1128117 0.19,0.072618 0.35053,0.1698692 0.481498,0.2917544 0.130967,0.1192984 0.233718,0.2580372 0.308157,0.4162363 0.07445,0.1581989 0.120664,0.3202779 0.138672,0.4862575 l -0.45967,0.097782 C 93.993423,7.7312241 93.84737,7.6510653 93.7537,7.4449451 93.667613,7.2464531 93.566498,7.095684 93.450358,6.9926231 93.338012,6.8895625 93.188167,6.8380322 93.000966,6.8380322 c -0.131022,0 -0.245339,0.024806 -0.342662,0.074433 -0.09732,0.049627 -0.179757,0.1145126 -0.247166,0.1946703 -0.06362,0.080158 -0.112346,0.1736715 -0.146053,0.2805539 -0.0337,0.1068785 -0.05056,0.2175727 -0.05056,0.3320848 0,0.099243 0.007,0.1946709 0.02248,0.2862798 0.01869,0.08779 0.04873,0.179398 0.08989,0.27483 0.04115,0.09161 0.08809,0.196232 0.1682,0.296987 0.08463,0.100757 0.153815,0.197315 0.25872,0.31565 l 1.667767,1.599847 c 0.117393,-0.199395 0.16651,-0.173716 0.240368,-0.393395 0.07385,-0.223101 0.09074,-0.357133 0.11242,-0.590375 0.01296,-0.09466 0.0076,-0.263149 0.07731,-0.317237 0.06963,-0.05409 0.161943,-0.07606 0.280454,-0.08113 l 0.36659,-0.01568 c 0,0.376071 -0.127751,0.807152 -0.227906,1.136542 -0.100155,0.329391 -0.225886,0.426226 -0.408181,0.69853 z"
       fill="#b4b4b4"
       id="path32954"
       sodipodi:nodetypes="ccscscsccccsccscccsccssccccsscccsccsccccsscsscccccccsscscc"
       style="fill:#fce237;stroke-width:0.967742;fill-opacity:1" />
  </g>
  <g
     id="g32962"
     transform="matrix(0.90917024,0,0,0.90917024,7.9904803,79.273267)">
    <path
       d="m 70.455875,10.645062 c 0.131621,1.023535 1.07134,1.744256 2.094,1.606 1.289,0 2.105,-0.66 2.105,-1.7 0,-0.828 -0.469,-1.281 -1.637,-1.574 l -0.59,-0.156 c -0.777,-0.2 -0.945375,-0.453 -0.945375,-0.895 0,-0.57 0.5,-0.945 1.246,-0.945 0.60171,-0.07557 1.15939,0.327079 1.277,0.922 h 0.707 c -0.12399,-0.963403 -0.9926,-1.652876 -1.959,-1.555 -1.191,0 -1.992,0.648 -1.992,1.605 0,0.8 0.300375,1.262 1.320375,1.52 l 0.723,0.188 c 0.777,0.2 1.129,0.5 1.129,0.98 0,0.559 -0.559,0.969 -1.316,0.969 -0.8,0 -1.363,-0.375 -1.449,-0.965 z m 6.961,-2.219 c 0.66799,-5.72e-4 1.1915,0.573935 1.129,1.239 h -2.32 c -0.0214,-0.674007 0.51667,-1.233281 1.191,-1.238 z m 1.109,2.602 c -0.21083,0.394755 -0.64136,0.620722 -1.086,0.57 -0.714,0 -1.179,-0.527 -1.214,-1.359 v -0.031 h 3.027 v -0.258 c 0,-1.309 -0.691,-2.117 -1.828,-2.117 -1.16312,0.0051 -2.05611,1.032527 -1.899,2.185 0,1.33 0.731,2.174 1.9,2.174 0.79189,0.08006 1.53159,-0.405568 1.773,-1.164 z m 1.782,1.09 h 0.672 v -2.492 c -0.0742,-0.65116 0.45018,-1.214918 1.105,-1.188 0.672,0 0.992,0.359 0.992,1.117 v 2.563 h 0.672 v -2.727 c 0.12142,-0.87087 -0.59565,-1.629824 -1.472,-1.558 -0.53596,-0.04805 -1.04373,0.247946 -1.266,0.738 h -0.062 v -0.664 h -0.641 z m 6.227,0.074 c 0.55163,0.01636 1.0682,-0.269728 1.347,-0.746 h 0.063 v 0.672 h 0.641 v -5.883 h -0.672 v 2.336 h -0.059 c -0.26485,-0.476014 -0.77578,-0.761672 -1.32,-0.738 -1.07,0 -1.77,0.859 -1.77,2.18 0,1.321 0.691,2.179 1.77,2.179 z m 0.156,-3.754 c 0.762,0 1.238,0.609 1.238,1.574 0,0.965 -0.473,1.575 -1.238,1.575 -0.765,0 -1.23,-0.59 -1.23,-1.574 0,-0.984 0.465,-1.575 1.23,-1.575 z"
       fill="#e4dcd9"
       id="path32958"
       sodipodi:nodetypes="ccsccsccccsccssccccccccccccscccccccccscccccccccccccccccccscsssss" />
    <path
       d="m 92.207604,9.356451 c -0.190233,0.144358 -0.402773,0.315347 -0.482262,0.48159 -0.07948,0.163183 -0.119295,0.337306 -0.119295,0.522371 0,0.150595 0.02425,0.287071 0.07261,0.409427 0.05186,0.122358 0.124489,0.227421 0.217852,0.315307 0.09337,0.08789 0.203979,0.15683 0.331966,0.207067 0.131357,0.04706 0.276595,0.07059 0.435705,0.07059 0.231726,0 0.323636,0.0019 0.524241,-0.05134 0.200605,-0.05647 0.456296,-0.249616 0.629151,-0.349971 z m 3.92309,2.654183 h -0.759236 c -0.05903,0 -0.111707,-0.0026 -0.157931,-0.0077 -0.04622,-0.0077 -0.08985,-0.01945 -0.130967,-0.03501 -0.03852,-0.01556 -0.07579,-0.03763 -0.111707,-0.06613 -0.03592,-0.0285 -0.07445,-0.06487 -0.115559,-0.108923 l -0.429106,-0.397949 c -0.243926,0.171163 -0.744098,0.44463 -1.034249,0.537991 -0.287646,0.09337 -0.594456,0.140043 -0.920622,0.140043 -0.223415,0 -0.442977,-0.0389 -0.658688,-0.116702 -0.21311,-0.0778 -0.403206,-0.187987 -0.570092,-0.330655 C 91.07565,11.480366 90.940831,11.305314 90.838079,11.100405 90.735325,10.895452 90.684,10.665939 90.684,10.411821 c 0,-0.171163 0.02571,-0.333281 0.07703,-0.486258 0.05393,-0.152976 0.128367,-0.294379 0.223414,-0.424017 0.09754,-0.132261 0.211859,-0.25159 0.342826,-0.357885 0.130967,-0.108921 0.27609,-0.203576 0.435273,-0.283973 -0.123264,-0.189321 -0.211859,-0.37474 -0.265786,-0.556278 -0.05393,-0.18154 -0.0809,-0.3578866 -0.0809,-0.5290489 0,-0.202283 0.03591,-0.3928955 0.107856,-0.5718388 0.07444,-0.1815392 0.181049,-0.3397284 0.31972,-0.4745871 0.141272,-0.1374455 0.313262,-0.2463671 0.516165,-0.3267649 0.205407,-0.080398 0.440377,-0.1205918 0.704911,-0.1205918 0.249127,0 0.46869,0.037607 0.658688,0.1128117 0.19,0.072618 0.35053,0.1698692 0.481498,0.2917544 0.130967,0.1192984 0.233718,0.2580372 0.308157,0.4162363 0.07445,0.1581989 0.120664,0.3202779 0.138672,0.4862575 l -0.45967,0.097782 C 93.993423,7.7312241 93.84737,7.6510653 93.7537,7.4449451 93.667613,7.2464531 93.566498,7.095684 93.450358,6.9926231 93.338012,6.8895625 93.188167,6.8380322 93.000966,6.8380322 c -0.131022,0 -0.245339,0.024806 -0.342662,0.074433 -0.09732,0.049627 -0.179757,0.1145126 -0.247166,0.1946703 -0.06362,0.080158 -0.112346,0.1736715 -0.146053,0.2805539 -0.0337,0.1068785 -0.05056,0.2175727 -0.05056,0.3320848 0,0.099243 0.007,0.1946709 0.02248,0.2862798 0.01869,0.08779 0.04873,0.179398 0.08989,0.27483 0.04115,0.09161 0.08809,0.196232 0.1682,0.296987 0.08463,0.100757 0.153815,0.197315 0.25872,0.31565 l 1.667767,1.599847 c 0.117393,-0.199395 0.16651,-0.173716 0.240368,-0.393395 0.07385,-0.223101 0.09074,-0.357133 0.11242,-0.590375 0.01296,-0.09466 0.0076,-0.263149 0.07731,-0.317237 0.06963,-0.05409 0.161943,-0.07606 0.280454,-0.08113 l 0.36659,-0.01568 c 0,0.376071 -0.127751,0.807152 -0.227906,1.136542 -0.100155,0.329391 -0.225886,0.426226 -0.408181,0.69853 z"
       fill="#b4b4b4"
       id="path32960"
       sodipodi:nodetypes="ccscscsccccsccscccsccssccccsscccsccsccccsscsscccccccsscscc"
       style="fill:#e4dcd9;stroke-width:0.967742" />
  </g>
  <g
     aria-label="Global"
     id="text5882"
     style="font-style:normal;font-variant:normal;font-weight:normal;font-stretch:normal;font-size:7.58859px;line-height:125%;font-family:'SF Pro Text';-inkscape-font-specification:'SF Pro Text';letter-spacing:0px;word-spacing:0px;fill:#e4dcd9;fill-opacity:1;stroke:none;stroke-width:0.948574px;stroke-linecap:butt;stroke-linejoin:miter;stroke-opacity:1"
     transform="matrix(0.98575021,0,0,0.98575021,1.290608,1.3854251)">
    <path
       d="m 76.65668,43.030687 q 0,0.989333 -0.622502,1.593308 -0.622501,0.600269 -1.648888,0.600269 -1.107904,0 -1.767459,-0.7596 -0.65585,-0.7596 -0.65585,-2.041657 0,-1.267235 0.66326,-2.03054 0.663261,-0.767011 1.760049,-0.767011 0.889288,0 1.489557,0.463171 0.603975,0.46317 0.748484,1.256119 h -0.678082 q -0.174152,-0.540984 -0.570626,-0.822591 -0.396474,-0.281608 -0.989333,-0.281608 -0.792948,0 -1.267235,0.592858 -0.470582,0.592859 -0.470582,1.589602 0,1.011565 0.466877,1.600719 0.470581,0.585448 1.274646,0.585448 0.718841,0 1.159779,-0.418707 0.444644,-0.418706 0.444644,-1.096788 V 42.963991 H 74.48904 v -0.585448 h 2.16764 z"
       style="font-style:normal;font-variant:normal;font-weight:normal;font-stretch:normal;font-family:'SF Pro Text';-inkscape-font-specification:'SF Pro Text';fill:#e4dcd9;stroke-width:0.948574px"
       id="path5905" />
    <path
       d="M 77.790522,45.098282 V 39.518 h 0.637323 v 5.580282 z"
       style="font-style:normal;font-variant:normal;font-weight:normal;font-stretch:normal;font-family:'SF Pro Text';-inkscape-font-specification:'SF Pro Text';fill:#e4dcd9;stroke-width:0.948574px"
       id="path5907" />
    <path
       d="m 82.651962,44.616584 q -0.492814,0.5521 -1.345048,0.5521 -0.852234,0 -1.348753,-0.5521 -0.492814,-0.555805 -0.492814,-1.515495 0,-0.963395 0.492814,-1.515494 0.492813,-0.5521 1.348753,-0.5521 0.85594,0 1.348753,0.5521 0.492814,0.552099 0.492814,1.515494 0,0.95969 -0.496519,1.515495 z m -2.219514,-0.411295 q 0.307545,0.389063 0.874466,0.389063 0.566921,0 0.874466,-0.389063 0.307546,-0.392769 0.307546,-1.1042 0,-0.71143 -0.307546,-1.100493 -0.307545,-0.392769 -0.874466,-0.392769 -0.566921,0 -0.874466,0.392769 -0.307546,0.389063 -0.307546,1.100493 0,0.711431 0.307546,1.1042 z"
       style="font-style:normal;font-variant:normal;font-weight:normal;font-stretch:normal;font-family:'SF Pro Text';-inkscape-font-specification:'SF Pro Text';fill:#e4dcd9;stroke-width:0.948574px"
       id="path5909" />
    <path
       d="m 86.135007,45.168684 q -0.415001,0 -0.755895,-0.185268 -0.337188,-0.188974 -0.526162,-0.522457 h -0.05929 v 0.637323 H 84.18598 V 39.518 h 0.637323 v 2.215809 h 0.05929 q 0.163036,-0.322367 0.500225,-0.51134 0.340893,-0.188974 0.752189,-0.188974 0.763305,0 1.219065,0.563216 0.45576,0.563215 0.45576,1.504378 0,0.937458 -0.459465,1.504379 -0.45576,0.563216 -1.21536,0.563216 z m -0.148215,-3.560857 q -0.544689,0 -0.86335,0.400179 -0.314956,0.40018 -0.314956,1.093083 0,0.692904 0.314956,1.093083 0.318661,0.40018 0.86335,0.40018 0.548394,0 0.85594,-0.396474 0.307545,-0.396474 0.307545,-1.096789 0,-0.700314 -0.307545,-1.096788 -0.307546,-0.396474 -0.85594,-0.396474 z"
       style="font-style:normal;font-variant:normal;font-weight:normal;font-stretch:normal;font-family:'SF Pro Text';-inkscape-font-specification:'SF Pro Text';fill:#e4dcd9;stroke-width:0.948574px"
       id="path5911" />
    <path
       d="m 90.040463,44.609174 q 0.492814,0 0.815181,-0.285314 0.326072,-0.285313 0.326072,-0.715135 v -0.366832 l -1.074556,0.0704 q -0.452055,0.02964 -0.663261,0.188974 -0.211205,0.159331 -0.211205,0.463171 0,0.300134 0.226027,0.474287 0.226027,0.170447 0.581742,0.170447 z m -0.118571,0.55951 q -0.589154,0 -0.970806,-0.322367 -0.377948,-0.326072 -0.377948,-0.867056 0,-0.533573 0.377948,-0.837413 0.377947,-0.30384 1.078261,-0.344599 l 1.152369,-0.0704 v -0.363125 q 0,-0.370537 -0.229733,-0.566921 -0.229732,-0.196385 -0.674376,-0.196385 -0.359421,0 -0.596564,0.129688 -0.237144,0.129688 -0.30384,0.366831 h -0.644734 q 0.06299,-0.477992 0.492814,-0.770716 0.433528,-0.292724 1.074556,-0.292724 0.726252,0 1.122726,0.35201 0.396474,0.35201 0.396474,0.978217 v 2.73456 h -0.60768 v -0.589153 h -0.05929 q -0.192679,0.318661 -0.51134,0.489108 -0.318662,0.170447 -0.718841,0.170447 z"
       style="font-style:normal;font-variant:normal;font-weight:normal;font-stretch:normal;font-family:'SF Pro Text';-inkscape-font-specification:'SF Pro Text';fill:#e4dcd9;stroke-width:0.948574px"
       id="path5913" />
    <path
       d="M 93.034399,45.098282 V 39.518 h 0.637323 v 5.580282 z"
       style="font-style:normal;font-variant:normal;font-weight:normal;font-stretch:normal;font-family:'SF Pro Text';-inkscape-font-specification:'SF Pro Text';fill:#e4dcd9;stroke-width:0.948574px"
       id="path5915" />
  </g>
  <g
     aria-label="Global"
     id="g5956"
     style="font-style:normal;font-variant:normal;font-weight:normal;font-stretch:normal;font-size:7.58859px;line-height:125%;font-family:'SF Pro Text';-inkscape-font-specification:'SF Pro Text';letter-spacing:0px;word-spacing:0px;fill:#e4dcd9;fill-opacity:1;stroke:none;stroke-width:0.948574px;stroke-linecap:butt;stroke-linejoin:miter;stroke-opacity:1"
     transform="matrix(0.98575021,0,0,0.98575021,1.290608,-24.614877)">
    <path
       d="m 76.65668,43.030687 q 0,0.989333 -0.622502,1.593308 -0.622501,0.600269 -1.648888,0.600269 -1.107904,0 -1.767459,-0.7596 -0.65585,-0.7596 -0.65585,-2.041657 0,-1.267235 0.66326,-2.03054 0.663261,-0.767011 1.760049,-0.767011 0.889288,0 1.489557,0.463171 0.603975,0.46317 0.748484,1.256119 h -0.678082 q -0.174152,-0.540984 -0.570626,-0.822591 -0.396474,-0.281608 -0.989333,-0.281608 -0.792948,0 -1.267235,0.592858 -0.470582,0.592859 -0.470582,1.589602 0,1.011565 0.466877,1.600719 0.470581,0.585448 1.274646,0.585448 0.718841,0 1.159779,-0.418707 0.444644,-0.418706 0.444644,-1.096788 V 42.963991 H 74.48904 v -0.585448 h 2.16764 z"
       style="font-style:normal;font-variant:normal;font-weight:normal;font-stretch:normal;font-family:'SF Pro Text';-inkscape-font-specification:'SF Pro Text';fill:#e4dcd9;stroke-width:0.948574px"
       id="path5944" />
    <path
       d="M 77.790522,45.098282 V 39.518 h 0.637323 v 5.580282 z"
       style="font-style:normal;font-variant:normal;font-weight:normal;font-stretch:normal;font-family:'SF Pro Text';-inkscape-font-specification:'SF Pro Text';fill:#e4dcd9;stroke-width:0.948574px"
       id="path5946" />
    <path
       d="m 82.651962,44.616584 q -0.492814,0.5521 -1.345048,0.5521 -0.852234,0 -1.348753,-0.5521 -0.492814,-0.555805 -0.492814,-1.515495 0,-0.963395 0.492814,-1.515494 0.492813,-0.5521 1.348753,-0.5521 0.85594,0 1.348753,0.5521 0.492814,0.552099 0.492814,1.515494 0,0.95969 -0.496519,1.515495 z m -2.219514,-0.411295 q 0.307545,0.389063 0.874466,0.389063 0.566921,0 0.874466,-0.389063 0.307546,-0.392769 0.307546,-1.1042 0,-0.71143 -0.307546,-1.100493 -0.307545,-0.392769 -0.874466,-0.392769 -0.566921,0 -0.874466,0.392769 -0.307546,0.389063 -0.307546,1.100493 0,0.711431 0.307546,1.1042 z"
       style="font-style:normal;font-variant:normal;font-weight:normal;font-stretch:normal;font-family:'SF Pro Text';-inkscape-font-specification:'SF Pro Text';fill:#e4dcd9;stroke-width:0.948574px"
       id="path5948" />
    <path
       d="m 86.135007,45.168684 q -0.415001,0 -0.755895,-0.185268 -0.337188,-0.188974 -0.526162,-0.522457 h -0.05929 v 0.637323 H 84.18598 V 39.518 h 0.637323 v 2.215809 h 0.05929 q 0.163036,-0.322367 0.500225,-0.51134 0.340893,-0.188974 0.752189,-0.188974 0.763305,0 1.219065,0.563216 0.45576,0.563215 0.45576,1.504378 0,0.937458 -0.459465,1.504379 -0.45576,0.563216 -1.21536,0.563216 z m -0.148215,-3.560857 q -0.544689,0 -0.86335,0.400179 -0.314956,0.40018 -0.314956,1.093083 0,0.692904 0.314956,1.093083 0.318661,0.40018 0.86335,0.40018 0.548394,0 0.85594,-0.396474 0.307545,-0.396474 0.307545,-1.096789 0,-0.700314 -0.307545,-1.096788 -0.307546,-0.396474 -0.85594,-0.396474 z"
       style="font-style:normal;font-variant:normal;font-weight:normal;font-stretch:normal;font-family:'SF Pro Text';-inkscape-font-specification:'SF Pro Text';fill:#e4dcd9;stroke-width:0.948574px"
       id="path5950" />
    <path
       d="m 90.040463,44.609174 q 0.492814,0 0.815181,-0.285314 0.326072,-0.285313 0.326072,-0.715135 v -0.366832 l -1.074556,0.0704 q -0.452055,0.02964 -0.663261,0.188974 -0.211205,0.159331 -0.211205,0.463171 0,0.300134 0.226027,0.474287 0.226027,0.170447 0.581742,0.170447 z m -0.118571,0.55951 q -0.589154,0 -0.970806,-0.322367 -0.377948,-0.326072 -0.377948,-0.867056 0,-0.533573 0.377948,-0.837413 0.377947,-0.30384 1.078261,-0.344599 l 1.152369,-0.0704 v -0.363125 q 0,-0.370537 -0.229733,-0.566921 -0.229732,-0.196385 -0.674376,-0.196385 -0.359421,0 -0.596564,0.129688 -0.237144,0.129688 -0.30384,0.366831 h -0.644734 q 0.06299,-0.477992 0.492814,-0.770716 0.433528,-0.292724 1.074556,-0.292724 0.726252,0 1.122726,0.35201 0.396474,0.35201 0.396474,0.978217 v 2.73456 h -0.60768 v -0.589153 h -0.05929 q -0.192679,0.318661 -0.51134,0.489108 -0.318662,0.170447 -0.718841,0.170447 z"
       style="font-style:normal;font-variant:normal;font-weight:normal;font-stretch:normal;font-family:'SF Pro Text';-inkscape-font-specification:'SF Pro Text';fill:#e4dcd9;stroke-width:0.948574px"
       id="path5952" />
    <path
       d="M 93.034399,45.098282 V 39.518 h 0.637323 v 5.580282 z"
       style="font-style:normal;font-variant:normal;font-weight:normal;font-stretch:normal;font-family:'SF Pro Text';-inkscape-font-specification:'SF Pro Text';fill:#e4dcd9;stroke-width:0.948574px"
       id="path5954" />
  </g>
  <g
     aria-label="Global"
     id="g5970"
     style="font-style:normal;font-variant:normal;font-weight:normal;font-stretch:normal;font-size:7.58859px;line-height:125%;font-family:'SF Pro Text';-inkscape-font-specification:'SF Pro Text';letter-spacing:0px;word-spacing:0px;fill:#fce237;fill-opacity:1;stroke:none;stroke-width:0.948574px;stroke-linecap:butt;stroke-linejoin:miter;stroke-opacity:1"
     transform="matrix(0.98575021,0,0,0.98575021,1.290608,27.385123)">
    <path
       d="m 76.65668,43.030687 q 0,0.989333 -0.622502,1.593308 -0.622501,0.600269 -1.648888,0.600269 -1.107904,0 -1.767459,-0.7596 -0.65585,-0.7596 -0.65585,-2.041657 0,-1.267235 0.66326,-2.03054 0.663261,-0.767011 1.760049,-0.767011 0.889288,0 1.489557,0.463171 0.603975,0.46317 0.748484,1.256119 h -0.678082 q -0.174152,-0.540984 -0.570626,-0.822591 -0.396474,-0.281608 -0.989333,-0.281608 -0.792948,0 -1.267235,0.592858 -0.470582,0.592859 -0.470582,1.589602 0,1.011565 0.466877,1.600719 0.470581,0.585448 1.274646,0.585448 0.718841,0 1.159779,-0.418707 0.444644,-0.418706 0.444644,-1.096788 V 42.963991 H 74.48904 v -0.585448 h 2.16764 z"
       style="font-style:normal;font-variant:normal;font-weight:normal;font-stretch:normal;font-family:'SF Pro Text';-inkscape-font-specification:'SF Pro Text';fill:#fce237;stroke-width:0.948574px"
       id="path5958" />
    <path
       d="M 77.790522,45.098282 V 39.518 h 0.637323 v 5.580282 z"
       style="font-style:normal;font-variant:normal;font-weight:normal;font-stretch:normal;font-family:'SF Pro Text';-inkscape-font-specification:'SF Pro Text';fill:#fce237;stroke-width:0.948574px"
       id="path5960" />
    <path
       d="m 82.651962,44.616584 q -0.492814,0.5521 -1.345048,0.5521 -0.852234,0 -1.348753,-0.5521 -0.492814,-0.555805 -0.492814,-1.515495 0,-0.963395 0.492814,-1.515494 0.492813,-0.5521 1.348753,-0.5521 0.85594,0 1.348753,0.5521 0.492814,0.552099 0.492814,1.515494 0,0.95969 -0.496519,1.515495 z m -2.219514,-0.411295 q 0.307545,0.389063 0.874466,0.389063 0.566921,0 0.874466,-0.389063 0.307546,-0.392769 0.307546,-1.1042 0,-0.71143 -0.307546,-1.100493 -0.307545,-0.392769 -0.874466,-0.392769 -0.566921,0 -0.874466,0.392769 -0.307546,0.389063 -0.307546,1.100493 0,0.711431 0.307546,1.1042 z"
       style="font-style:normal;font-variant:normal;font-weight:normal;font-stretch:normal;font-family:'SF Pro Text';-inkscape-font-specification:'SF Pro Text';fill:#fce237;stroke-width:0.948574px"
       id="path5962" />
    <path
       d="m 86.135007,45.168684 q -0.415001,0 -0.755895,-0.185268 -0.337188,-0.188974 -0.526162,-0.522457 h -0.05929 v 0.637323 H 84.18598 V 39.518 h 0.637323 v 2.215809 h 0.05929 q 0.163036,-0.322367 0.500225,-0.51134 0.340893,-0.188974 0.752189,-0.188974 0.763305,0 1.219065,0.563216 0.45576,0.563215 0.45576,1.504378 0,0.937458 -0.459465,1.504379 -0.45576,0.563216 -1.21536,0.563216 z m -0.148215,-3.560857 q -0.544689,0 -0.86335,0.400179 -0.314956,0.40018 -0.314956,1.093083 0,0.692904 0.314956,1.093083 0.318661,0.40018 0.86335,0.40018 0.548394,0 0.85594,-0.396474 0.307545,-0.396474 0.307545,-1.096789 0,-0.700314 -0.307545,-1.096788 -0.307546,-0.396474 -0.85594,-0.396474 z"
       style="font-style:normal;font-variant:normal;font-weight:normal;font-stretch:normal;font-family:'SF Pro Text';-inkscape-font-specification:'SF Pro Text';fill:#fce237;stroke-width:0.948574px"
       id="path5964" />
    <path
       d="m 90.040463,44.609174 q 0.492814,0 0.815181,-0.285314 0.326072,-0.285313 0.326072,-0.715135 v -0.366832 l -1.074556,0.0704 q -0.452055,0.02964 -0.663261,0.188974 -0.211205,0.159331 -0.211205,0.463171 0,0.300134 0.226027,0.474287 0.226027,0.170447 0.581742,0.170447 z m -0.118571,0.55951 q -0.589154,0 -0.970806,-0.322367 -0.377948,-0.326072 -0.377948,-0.867056 0,-0.533573 0.377948,-0.837413 0.377947,-0.30384 1.078261,-0.344599 l 1.152369,-0.0704 v -0.363125 q 0,-0.370537 -0.229733,-0.566921 -0.229732,-0.196385 -0.674376,-0.196385 -0.359421,0 -0.596564,0.129688 -0.237144,0.129688 -0.30384,0.366831 h -0.644734 q 0.06299,-0.477992 0.492814,-0.770716 0.433528,-0.292724 1.074556,-0.292724 0.726252,0 1.122726,0.35201 0.396474,0.35201 0.396474,0.978217 v 2.73456 h -0.60768 v -0.589153 h -0.05929 q -0.192679,0.318661 -0.51134,0.489108 -0.318662,0.170447 -0.718841,0.170447 z"
       style="font-style:normal;font-variant:normal;font-weight:normal;font-stretch:normal;font-family:'SF Pro Text';-inkscape-font-specification:'SF Pro Text';fill:#fce237;stroke-width:0.948574px"
       id="path5966" />
    <path
       d="M 93.034399,45.098282 V 39.518 h 0.637323 v 5.580282 z"
       style="font-style:normal;font-variant:normal;font-weight:normal;font-stretch:normal;font-family:'SF Pro Text';-inkscape-font-specification:'SF Pro Text';fill:#fce237;stroke-width:0.948574px"
       id="path5968" />
  </g>
  <g
     aria-label="Global"
     id="g5998"
     style="font-style:normal;font-variant:normal;font-weight:normal;font-stretch:normal;font-size:7.58859px;line-height:125%;font-family:'SF Pro Text';-inkscape-font-specification:'SF Pro Text';letter-spacing:0px;word-spacing:0px;fill:#e4dcd9;fill-opacity:1;stroke:none;stroke-width:0.948574px;stroke-linecap:butt;stroke-linejoin:miter;stroke-opacity:1"
     transform="matrix(0.98575021,0,0,0.98575021,1.290608,53.385123)">
    <path
       d="m 76.65668,43.030687 q 0,0.989333 -0.622502,1.593308 -0.622501,0.600269 -1.648888,0.600269 -1.107904,0 -1.767459,-0.7596 -0.65585,-0.7596 -0.65585,-2.041657 0,-1.267235 0.66326,-2.03054 0.663261,-0.767011 1.760049,-0.767011 0.889288,0 1.489557,0.463171 0.603975,0.46317 0.748484,1.256119 h -0.678082 q -0.174152,-0.540984 -0.570626,-0.822591 -0.396474,-0.281608 -0.989333,-0.281608 -0.792948,0 -1.267235,0.592858 -0.470582,0.592859 -0.470582,1.589602 0,1.011565 0.466877,1.600719 0.470581,0.585448 1.274646,0.585448 0.718841,0 1.159779,-0.418707 0.444644,-0.418706 0.444644,-1.096788 V 42.963991 H 74.48904 v -0.585448 h 2.16764 z"
       style="font-style:normal;font-variant:normal;font-weight:normal;font-stretch:normal;font-family:'SF Pro Text';-inkscape-font-specification:'SF Pro Text';fill:#e4dcd9;stroke-width:0.948574px"
       id="path5986" />
    <path
       d="M 77.790522,45.098282 V 39.518 h 0.637323 v 5.580282 z"
       style="font-style:normal;font-variant:normal;font-weight:normal;font-stretch:normal;font-family:'SF Pro Text';-inkscape-font-specification:'SF Pro Text';fill:#e4dcd9;stroke-width:0.948574px"
       id="path5988" />
    <path
       d="m 82.651962,44.616584 q -0.492814,0.5521 -1.345048,0.5521 -0.852234,0 -1.348753,-0.5521 -0.492814,-0.555805 -0.492814,-1.515495 0,-0.963395 0.492814,-1.515494 0.492813,-0.5521 1.348753,-0.5521 0.85594,0 1.348753,0.5521 0.492814,0.552099 0.492814,1.515494 0,0.95969 -0.496519,1.515495 z m -2.219514,-0.411295 q 0.307545,0.389063 0.874466,0.389063 0.566921,0 0.874466,-0.389063 0.307546,-0.392769 0.307546,-1.1042 0,-0.71143 -0.307546,-1.100493 -0.307545,-0.392769 -0.874466,-0.392769 -0.566921,0 -0.874466,0.392769 -0.307546,0.389063 -0.307546,1.100493 0,0.711431 0.307546,1.1042 z"
       style="font-style:normal;font-variant:normal;font-weight:normal;font-stretch:normal;font-family:'SF Pro Text';-inkscape-font-specification:'SF Pro Text';fill:#e4dcd9;stroke-width:0.948574px"
       id="path5990" />
    <path
       d="m 86.135007,45.168684 q -0.415001,0 -0.755895,-0.185268 -0.337188,-0.188974 -0.526162,-0.522457 h -0.05929 v 0.637323 H 84.18598 V 39.518 h 0.637323 v 2.215809 h 0.05929 q 0.163036,-0.322367 0.500225,-0.51134 0.340893,-0.188974 0.752189,-0.188974 0.763305,0 1.219065,0.563216 0.45576,0.563215 0.45576,1.504378 0,0.937458 -0.459465,1.504379 -0.45576,0.563216 -1.21536,0.563216 z m -0.148215,-3.560857 q -0.544689,0 -0.86335,0.400179 -0.314956,0.40018 -0.314956,1.093083 0,0.692904 0.314956,1.093083 0.318661,0.40018 0.86335,0.40018 0.548394,0 0.85594,-0.396474 0.307545,-0.396474 0.307545,-1.096789 0,-0.700314 -0.307545,-1.096788 -0.307546,-0.396474 -0.85594,-0.396474 z"
       style="font-style:normal;font-variant:normal;font-weight:normal;font-stretch:normal;font-family:'SF Pro Text';-inkscape-font-specification:'SF Pro Text';fill:#e4dcd9;stroke-width:0.948574px"
       id="path5992" />
    <path
       d="m 90.040463,44.609174 q 0.492814,0 0.815181,-0.285314 0.326072,-0.285313 0.326072,-0.715135 v -0.366832 l -1.074556,0.0704 q -0.452055,0.02964 -0.663261,0.188974 -0.211205,0.159331 -0.211205,0.463171 0,0.300134 0.226027,0.474287 0.226027,0.170447 0.581742,0.170447 z m -0.118571,0.55951 q -0.589154,0 -0.970806,-0.322367 -0.377948,-0.326072 -0.377948,-0.867056 0,-0.533573 0.377948,-0.837413 0.377947,-0.30384 1.078261,-0.344599 l 1.152369,-0.0704 v -0.363125 q 0,-0.370537 -0.229733,-0.566921 -0.229732,-0.196385 -0.674376,-0.196385 -0.359421,0 -0.596564,0.129688 -0.237144,0.129688 -0.30384,0.366831 h -0.644734 q 0.06299,-0.477992 0.492814,-0.770716 0.433528,-0.292724 1.074556,-0.292724 0.726252,0 1.122726,0.35201 0.396474,0.35201 0.396474,0.978217 v 2.73456 h -0.60768 v -0.589153 h -0.05929 q -0.192679,0.318661 -0.51134,0.489108 -0.318662,0.170447 -0.718841,0.170447 z"
       style="font-style:normal;font-variant:normal;font-weight:normal;font-stretch:normal;font-family:'SF Pro Text';-inkscape-font-specification:'SF Pro Text';fill:#e4dcd9;stroke-width:0.948574px"
       id="path5994" />
    <path
       d="M 93.034399,45.098282 V 39.518 h 0.637323 v 5.580282 z"
       style="font-style:normal;font-variant:normal;font-weight:normal;font-stretch:normal;font-family:'SF Pro Text';-inkscape-font-specification:'SF Pro Text';fill:#e4dcd9;stroke-width:0.948574px"
       id="path5996" />
  </g>
</svg>
