<?xml version="1.0" encoding="utf-8"?>
<svg width="48px" height="281px" viewbox="0 0 48 281" version="1.1" xmlns:xlink="http://www.w3.org/1999/xlink" xmlns="http://www.w3.org/2000/svg">
  <defs>
    <rect width="48" height="281" id="artboard_1" />
    <clipPath id="clip_1">
      <use xlink:href="#artboard_1" clip-rule="evenodd" />
    </clipPath>
  </defs>
  <g id="bmp00105" clip-path="url(#clip_1)">
    <g id="Group" transform="translate(3.8968487 8.999954)">
      <g id="Group">
        <path d="M0 0L2 0L2 57L0 57L0 0Z" transform="translate(3 0)" id="Rectangle" fill="#070403" fill-rule="evenodd" stroke="none" />
        <path d="M0 0L1 0L1 1L0 1L0 0Z" id="Rectangle" fill="#D1BFB9" fill-rule="evenodd" stroke="none" />
        <path d="M0 0L1 0L1 1L0 1L0 0Z" transform="translate(7 0)" id="Rectangle" fill="#D1BFB9" fill-rule="evenodd" stroke="none" />
        <path d="M0 0L1 0L1 1L0 1L0 0Z" transform="translate(0 56)" id="Rectangle" fill="#D1BFB9" fill-rule="evenodd" stroke="none" />
        <path d="M0 0L1 0L1 1L0 1L0 0Z" transform="translate(7 56)" id="Rectangle" fill="#D1BFB9" fill-rule="evenodd" stroke="none" />
      </g>
      <path d="M0 53L0 0L6 0L1 53L0 53Z" transform="translate(5 2)" id="Shape" fill="#D1BFB9" fill-opacity="0.2" fill-rule="evenodd" stroke="none" />
    </g>
    <g id="Group" transform="translate(0.89684296 83.999954)">
      <g id="Group" transform="translate(3.0000057 0)">
        <path d="M0 0L2 0L2 57L0 57L0 0Z" transform="translate(3 0)" id="Rectangle" fill="#070403" fill-rule="evenodd" stroke="none" />
        <path d="M0 0L1 0L1 1L0 1L0 0Z" id="Rectangle" fill="#D1BFB9" fill-rule="evenodd" stroke="none" />
        <path d="M0 0L1 0L1 1L0 1L0 0Z" transform="translate(7 0)" id="Rectangle" fill="#D1BFB9" fill-rule="evenodd" stroke="none" />
        <path d="M0 0L1 0L1 1L0 1L0 0Z" transform="translate(0 56)" id="Rectangle" fill="#D1BFB9" fill-rule="evenodd" stroke="none" />
        <path d="M0 0L1 0L1 1L0 1L0 0Z" transform="translate(7 56)" id="Rectangle" fill="#D1BFB9" fill-rule="evenodd" stroke="none" />
      </g>
      <g id="Group" transform="translate(0 2)">
        <path d="M0 25L1 25L6 0L0 0L0 25Z" transform="translate(8.000006 0)" id="Shape" fill="#D1BFB9" fill-opacity="0.2" fill-rule="evenodd" stroke="none" />
        <path d="M6 0L5 0L0 25L6 25L6 0Z" transform="translate(0 28)" id="Shape" fill="#D1BFB9" fill-opacity="0.2" fill-rule="evenodd" stroke="none" />
        <path d="M0 0L1 0L1 1L0 1L0 0Z" transform="translate(3.0000057 26)" id="Rectangle" fill="#D1BFB9" fill-rule="evenodd" stroke="none" />
        <path d="M0 0L1 0L1 1L0 1L0 0Z" transform="translate(10.000006 26)" id="Rectangle" fill="#D1BFB9" fill-rule="evenodd" stroke="none" />
      </g>
    </g>
    <g id="Group" transform="translate(19.896849 8.999954)">
      <g id="Group">
        <path d="M0 0L2 0L2 57L0 57L0 0Z" transform="translate(3 0)" id="Rectangle" fill="#070403" fill-rule="evenodd" stroke="none" />
        <path d="M0 0L1 0L1 1L0 1L0 0Z" id="Rectangle" fill="#D1BFB9" fill-rule="evenodd" stroke="none" />
        <path d="M0 0L1 0L1 1L0 1L0 0Z" transform="translate(7 0)" id="Rectangle" fill="#D1BFB9" fill-rule="evenodd" stroke="none" />
        <path d="M0 0L1 0L1 1L0 1L0 0Z" transform="translate(0 56)" id="Rectangle" fill="#D1BFB9" fill-rule="evenodd" stroke="none" />
        <path d="M0 0L1 0L1 1L0 1L0 0Z" transform="translate(7 56)" id="Rectangle" fill="#D1BFB9" fill-rule="evenodd" stroke="none" />
      </g>
      <path d="M0 53L0 0L6 0L1 53L0 53Z" transform="translate(5 2)" id="Shape" fill="#95B9F6" fill-opacity="0.4" fill-rule="evenodd" stroke="none" />
    </g>
    <g id="Group" transform="translate(16.896843 83.999954)">
      <g id="Group" transform="translate(3.0000057 0)">
        <path d="M0 0L2 0L2 57L0 57L0 0Z" transform="translate(3 0)" id="Rectangle" fill="#070403" fill-rule="evenodd" stroke="none" />
        <path d="M0 0L1 0L1 1L0 1L0 0Z" id="Rectangle" fill="#D1BFB9" fill-rule="evenodd" stroke="none" />
        <path d="M0 0L1 0L1 1L0 1L0 0Z" transform="translate(7 0)" id="Rectangle" fill="#D1BFB9" fill-rule="evenodd" stroke="none" />
        <path d="M0 0L1 0L1 1L0 1L0 0Z" transform="translate(0 56)" id="Rectangle" fill="#D1BFB9" fill-rule="evenodd" stroke="none" />
        <path d="M0 0L1 0L1 1L0 1L0 0Z" transform="translate(7 56)" id="Rectangle" fill="#D1BFB9" fill-rule="evenodd" stroke="none" />
      </g>
      <g id="Group" transform="translate(0 2)">
        <path d="M0 25L1 25L6 0L0 0L0 25Z" transform="translate(8.000006 0)" id="Shape" fill="#95B9F6" fill-opacity="0.4" fill-rule="evenodd" stroke="none" />
        <path d="M6 0L5 0L0 25L6 25L6 0Z" transform="translate(0 28)" id="Shape" fill="#95B9F6" fill-opacity="0.4" fill-rule="evenodd" stroke="none" />
        <path d="M0 0L1 0L1 1L0 1L0 0Z" transform="translate(3.0000057 26)" id="Rectangle" fill="#D1BFB9" fill-rule="evenodd" stroke="none" />
        <path d="M0 0L1 0L1 1L0 1L0 0Z" transform="translate(10.000006 26)" id="Rectangle" fill="#D1BFB9" fill-rule="evenodd" stroke="none" />
      </g>
    </g>
    <g id="Group" transform="translate(32.896843 83.999954)">
      <g id="Group" transform="translate(3.0000038 0)">
        <path d="M0 0L2 0L2 57L0 57L0 0Z" transform="translate(3 0)" id="Rectangle" fill="#070403" fill-rule="evenodd" stroke="none" />
        <path d="M0 0L1 0L1 1L0 1L0 0Z" id="Rectangle" fill="#D1BFB9" fill-rule="evenodd" stroke="none" />
        <path d="M0 0L1 0L1 1L0 1L0 0Z" transform="translate(7 0)" id="Rectangle" fill="#D1BFB9" fill-rule="evenodd" stroke="none" />
        <path d="M0 0L1 0L1 1L0 1L0 0Z" transform="translate(0 56)" id="Rectangle" fill="#D1BFB9" fill-rule="evenodd" stroke="none" />
        <path d="M0 0L1 0L1 1L0 1L0 0Z" transform="translate(7 56)" id="Rectangle" fill="#D1BFB9" fill-rule="evenodd" stroke="none" />
      </g>
      <g id="Group" transform="translate(0 2)">
        <path d="M0 25L1 25L6 0L0 0L0 25Z" transform="translate(8.000004 0)" id="Shape" fill="#95B9F6" fill-opacity="0.8" fill-rule="evenodd" stroke="none" />
        <path d="M6 0L5 0L0 25L6 25L6 0Z" transform="translate(0 28)" id="Shape" fill="#95B9F6" fill-opacity="0.8" fill-rule="evenodd" stroke="none" />
        <path d="M0 0L1 0L1 1L0 1L0 0Z" transform="translate(3.0000038 26)" id="Rectangle" fill="#D1BFB9" fill-rule="evenodd" stroke="none" />
        <path d="M0 0L1 0L1 1L0 1L0 0Z" transform="translate(10.000004 26)" id="Rectangle" fill="#D1BFB9" fill-rule="evenodd" stroke="none" />
      </g>
    </g>
    <g id="Group" transform="translate(35.89685 8.999954)">
      <g id="Group">
        <path d="M0 0L2 0L2 57L0 57L0 0Z" transform="translate(3 0)" id="Rectangle" fill="#070403" fill-rule="evenodd" stroke="none" />
        <path d="M0 0L1 0L1 1L0 1L0 0Z" id="Rectangle" fill="#D1BFB9" fill-rule="evenodd" stroke="none" />
        <path d="M0 0L1 0L1 1L0 1L0 0Z" transform="translate(7 0)" id="Rectangle" fill="#D1BFB9" fill-rule="evenodd" stroke="none" />
        <path d="M0 0L1 0L1 1L0 1L0 0Z" transform="translate(0 56)" id="Rectangle" fill="#D1BFB9" fill-rule="evenodd" stroke="none" />
        <path d="M0 0L1 0L1 1L0 1L0 0Z" transform="translate(7 56)" id="Rectangle" fill="#D1BFB9" fill-rule="evenodd" stroke="none" />
      </g>
      <path d="M0 53L0 0L6 0L1 53L0 53Z" transform="translate(5 2)" id="Shape" fill="#95B9F6" fill-rule="evenodd" stroke="none" />
    </g>
    <g id="Group" transform="translate(2.8968487 233.99995)">
      <g id="Group">
        <path d="M0 36L1.90735e-06 0L6 0L1 36L0 36Z" transform="translate(6.000002 2)" id="Shape" fill="#98999B" fill-opacity="0.2" fill-rule="evenodd" stroke="none" />
        <path d="M0 0L2 0L2 40L0 40L0 0Z" transform="translate(4 0)" id="Rectangle" fill="#070403" fill-rule="evenodd" stroke="none" />
        <path d="M0 0L1 0L1 1L0 1L0 0Z" transform="translate(0 39)" id="Rectangle" fill="#D1BFB9" fill-rule="evenodd" stroke="none" />
        <path d="M0 0L1 0L1 1L0 1L0 0Z" id="Rectangle" fill="#D1BFB9" fill-rule="evenodd" stroke="none" />
        <path d="M0 0L1 0L1 1L0 1L0 0Z" transform="translate(9 39)" id="Rectangle" fill="#D1BFB9" fill-rule="evenodd" stroke="none" />
        <path d="M0 0L1 0L1 1L0 1L0 0Z" transform="translate(9 0)" id="Rectangle" fill="#D1BFB9" fill-rule="evenodd" stroke="none" />
      </g>
    </g>
    <g id="Group" transform="translate(2.8968487 158.99995)">
      <g id="Group">
        <path d="M0 36L1.90735e-06 0L6 0L1 36L0 36Z" transform="translate(6.000002 2)" id="Shape" fill="#98999B" fill-opacity="0.2" fill-rule="evenodd" stroke="none" />
        <path d="M0 0L2 0L2 40L0 40L0 0Z" transform="translate(4 0)" id="Rectangle" fill="#070403" fill-rule="evenodd" stroke="none" />
        <path d="M0 0L1 0L1 1L0 1L0 0Z" transform="translate(0 39)" id="Rectangle" fill="#D1BFB9" fill-rule="evenodd" stroke="none" />
        <path d="M0 0L1 0L1 1L0 1L0 0Z" id="Rectangle" fill="#D1BFB9" fill-rule="evenodd" stroke="none" />
        <path d="M0 0L1 0L1 1L0 1L0 0Z" transform="translate(9 39)" id="Rectangle" fill="#D1BFB9" fill-rule="evenodd" stroke="none" />
        <path d="M0 0L1 0L1 1L0 1L0 0Z" transform="translate(9 0)" id="Rectangle" fill="#D1BFB9" fill-rule="evenodd" stroke="none" />
      </g>
    </g>
    <g id="Group" transform="translate(18.896849 233.99995)">
      <g id="Group">
        <path d="M0 36L3.8147e-06 0L6 0L1 36L0 36Z" transform="translate(6 2)" id="Shape" fill="#95B9F6" fill-opacity="0.4" fill-rule="evenodd" stroke="none" />
        <path d="M0 0L2 0L2 40L0 40L0 0Z" transform="translate(4 0)" id="Rectangle" fill="#070403" fill-rule="evenodd" stroke="none" />
        <path d="M0 0L1 0L1 1L0 1L0 0Z" transform="translate(0 39)" id="Rectangle" fill="#D1BFB9" fill-rule="evenodd" stroke="none" />
        <path d="M0 0L1 0L1 1L0 1L0 0Z" id="Rectangle" fill="#D1BFB9" fill-rule="evenodd" stroke="none" />
        <path d="M0 0L1 0L1 1L0 1L0 0Z" transform="translate(9 39)" id="Rectangle" fill="#D1BFB9" fill-rule="evenodd" stroke="none" />
        <path d="M0 0L1 0L1 1L0 1L0 0Z" transform="translate(9 0)" id="Rectangle" fill="#D1BFB9" fill-rule="evenodd" stroke="none" />
      </g>
    </g>
    <g id="Group" transform="translate(18.896849 158.99995)">
      <g id="Group">
        <path d="M0 36L3.8147e-06 0L6 0L1 36L0 36Z" transform="translate(6 2)" id="Shape" fill="#95B9F6" fill-opacity="0.4" fill-rule="evenodd" stroke="none" />
        <path d="M0 0L2 0L2 40L0 40L0 0Z" transform="translate(4 0)" id="Rectangle" fill="#070403" fill-rule="evenodd" stroke="none" />
        <path d="M0 0L1 0L1 1L0 1L0 0Z" transform="translate(0 39)" id="Rectangle" fill="#D1BFB9" fill-rule="evenodd" stroke="none" />
        <path d="M0 0L1 0L1 1L0 1L0 0Z" id="Rectangle" fill="#D1BFB9" fill-rule="evenodd" stroke="none" />
        <path d="M0 0L1 0L1 1L0 1L0 0Z" transform="translate(9 39)" id="Rectangle" fill="#D1BFB9" fill-rule="evenodd" stroke="none" />
        <path d="M0 0L1 0L1 1L0 1L0 0Z" transform="translate(9 0)" id="Rectangle" fill="#D1BFB9" fill-rule="evenodd" stroke="none" />
      </g>
    </g>
    <g id="Group" transform="translate(34.89685 233.99995)">
      <g id="Group">
        <path d="M0 36L3.8147e-06 0L6 0L1 36L0 36Z" transform="translate(6 2)" id="Shape" fill="#95B9F6" fill-opacity="0.8" fill-rule="evenodd" stroke="none" />
        <path d="M0 0L2 0L2 40L0 40L0 0Z" transform="translate(4 0)" id="Rectangle" fill="#070403" fill-rule="evenodd" stroke="none" />
        <path d="M0 0L1 0L1 1L0 1L0 0Z" transform="translate(0 39)" id="Rectangle" fill="#D1BFB9" fill-rule="evenodd" stroke="none" />
        <path d="M0 0L1 0L1 1L0 1L0 0Z" id="Rectangle" fill="#D1BFB9" fill-rule="evenodd" stroke="none" />
        <path d="M0 0L1 0L1 1L0 1L0 0Z" transform="translate(9 39)" id="Rectangle" fill="#D1BFB9" fill-rule="evenodd" stroke="none" />
        <path d="M0 0L1 0L1 1L0 1L0 0Z" transform="translate(9 0)" id="Rectangle" fill="#D1BFB9" fill-rule="evenodd" stroke="none" />
      </g>
    </g>
    <g id="Group" transform="translate(34.89685 158.99995)">
      <g id="Group">
        <path d="M0 36L3.8147e-06 0L6 0L1 36L0 36Z" transform="translate(6 2)" id="Shape" fill="#95B9F6" fill-opacity="0.8" fill-rule="evenodd" stroke="none" />
        <path d="M0 0L2 0L2 40L0 40L0 0Z" transform="translate(4 0)" id="Rectangle" fill="#070403" fill-rule="evenodd" stroke="none" />
        <path d="M0 0L1 0L1 1L0 1L0 0Z" transform="translate(0 39)" id="Rectangle" fill="#D1BFB9" fill-rule="evenodd" stroke="none" />
        <path d="M0 0L1 0L1 1L0 1L0 0Z" id="Rectangle" fill="#D1BFB9" fill-rule="evenodd" stroke="none" />
        <path d="M0 0L1 0L1 1L0 1L0 0Z" transform="translate(9 39)" id="Rectangle" fill="#D1BFB9" fill-rule="evenodd" stroke="none" />
        <path d="M0 0L1 0L1 1L0 1L0 0Z" transform="translate(9 0)" id="Rectangle" fill="#D1BFB9" fill-rule="evenodd" stroke="none" />
      </g>
    </g>
  </g>
</svg>