<?xml version="1.0" encoding="UTF-8" standalone="no"?>
<svg
   xmlns:dc="http://purl.org/dc/elements/1.1/"
   xmlns:cc="http://creativecommons.org/ns#"
   xmlns:rdf="http://www.w3.org/1999/02/22-rdf-syntax-ns#"
   xmlns:svg="http://www.w3.org/2000/svg"
   xmlns="http://www.w3.org/2000/svg"
   xmlns:xlink="http://www.w3.org/1999/xlink"
   xmlns:sodipodi="http://sodipodi.sourceforge.net/DTD/sodipodi-0.dtd"
   xmlns:inkscape="http://www.inkscape.org/namespaces/inkscape"
   width="12"
   height="24"
   viewBox="0 0 12 24.000001"
   version="1.1"
   id="svg35664"
   sodipodi:docname="bmp00121.svg"
   inkscape:version="1.0.1 (3bc2e813f5, 2020-09-07)">
  <metadata
     id="metadata35668">
    <rdf:RDF>
      <cc:Work
         rdf:about="">
        <dc:format>image/svg+xml</dc:format>
        <dc:type
           rdf:resource="http://purl.org/dc/dcmitype/StillImage" />
        <dc:title />
      </cc:Work>
    </rdf:RDF>
  </metadata>
  <sodipodi:namedview
     pagecolor="#434343"
     bordercolor="#666666"
     borderopacity="1"
     objecttolerance="10"
     gridtolerance="10"
     guidetolerance="10"
     inkscape:pageopacity="0"
     inkscape:pageshadow="2"
     inkscape:window-width="3753"
     inkscape:window-height="2137"
     id="namedview35666"
     showgrid="false"
     inkscape:zoom="64"
     inkscape:cx="4.0810873"
     inkscape:cy="10.66063"
     inkscape:window-x="-8"
     inkscape:window-y="-8"
     inkscape:window-maximized="1"
     inkscape:current-layer="svg35664"
     inkscape:document-rotation="0" />
  <defs
     id="defs35628">
    <linearGradient
       inkscape:collect="always"
       id="linearGradient39383">
      <stop
         style="stop-color:#6c6669;stop-opacity:1"
         offset="0"
         id="stop39379" />
      <stop
         style="stop-color:#645a5a;stop-opacity:1"
         offset="1"
         id="stop39381" />
    </linearGradient>
    <linearGradient
       id="a"
       x1="0.5"
       x2="0.5"
       y2="1"
       gradientUnits="objectBoundingBox">
      <stop
         offset="0"
         stop-color="#675d5d"
         id="stop35618" />
      <stop
         offset="1"
         stop-color="#5b4f51"
         id="stop35620" />
    </linearGradient>
    <linearGradient
       id="b"
       x1="0.5"
       x2="0.5"
       y2="1"
       gradientUnits="objectBoundingBox">
      <stop
         offset="0"
         stop-color="#373030"
         id="stop35623" />
      <stop
         offset="1"
         stop-color="#332a2b"
         id="stop35625" />
    </linearGradient>
    <linearGradient
       inkscape:collect="always"
       xlink:href="#linearGradient39383"
       id="linearGradient39385"
       x1="6.078125"
       y1="1.0625"
       x2="6.0614996"
       y2="10.9375"
       gradientUnits="userSpaceOnUse"
       gradientTransform="matrix(1.1201119,0,0,1.1199998,-0.72011186,-0.71999977)" />
  </defs>
  <rect
     width="12"
     height="12"
     rx="2"
     id="rect36676"
     x="0"
     y="0" />
  <rect
     width="12"
     height="12"
     rx="2"
     id="rect36678"
     x="0"
     y="12" />
  <rect
     width="11.2"
     height="11.2"
     rx="1.5178393"
     stroke="none"
     id="rect36680"
     x="0.40000001"
     y="0.40000001"
     style="fill:url(#linearGradient39385);fill-opacity:1;stroke-width:0.560028"
     ry="1.5749999" />
  <path
     d="M 10.072727,11.6 H 1.9272728 A 1.5272728,1.5098138 0 0 1 0.4,10.090186 V 9.6664318 A 1.5272728,1.5098138 0 0 0 1.9272728,11.097735 H 10.072727 A 1.5272728,1.5098138 0 0 0 11.6,9.6 v 0.490186 A 1.5272728,1.5098138 0 0 1 10.072727,11.6 Z"
     opacity="0.4"
     id="path36686"
     style="fill:#000000;fill-opacity:1;stroke:none;stroke-width:1.01235" />
  <path
     d="m 11.6,2.4 v 0 A 1.5272728,1.5052684 0 0 0 10.072727,0.90175615 H 1.9272728 A 1.5272728,1.5052684 0 0 0 0.4,2.3297541 V 1.9052684 A 1.5272728,1.5052684 0 0 1 1.9272728,0.4 H 10.072727 A 1.5272728,1.5052684 0 0 1 11.6,1.9052684 Z"
     fill="#ffffff"
     opacity="0.4"
     id="path36688"
     style="stroke-width:1.01082" />
  <rect
     width="9.9989996"
     height="10"
     rx="1"
     fill="#ffffff"
     opacity="0"
     id="rect36690"
     x="1"
     y="1" />
  <rect
     width="11.2"
     height="11.2"
     rx="1.7449999"
     stroke="none"
     id="rect36696"
     x="0.40000001"
     y="12.4"
     style="fill:#373030;fill-opacity:1;stroke-width:0.560001" />
  <path
     d="M 10.072727,23.6 H 1.9272728 A 1.5272728,1.5098138 0 0 1 0.4,22.091193 v -0.425768 a 1.5272728,1.5098138 0 0 0 1.5272728,1.43231 H 10.072727 A 1.5272728,1.5098138 0 0 0 11.6,21.6 v 0.491193 A 1.5272728,1.5098138 0 0 1 10.072727,23.6 Z"
     opacity="0.4"
     id="path36702"
     style="stroke-width:1.01235" />
  <path
     d="m 11.6,14.4 v 0 A 1.5272728,1.5052684 0 0 0 10.072727,12.901756 H 1.9272728 A 1.5272728,1.5052684 0 0 0 0.4,14.329754 V 13.905268 A 1.5272728,1.5052684 0 0 1 1.9272728,12.4 H 10.072727 A 1.5272728,1.5052684 0 0 1 11.6,13.905268 Z"
     fill="#ffffff"
     opacity="0.1"
     id="path36704"
     style="stroke-width:1.01081" />
  <rect
     width="10"
     height="10"
     rx="1"
     fill="#ffffff"
     opacity="0"
     id="rect36706"
     x="1"
     y="13" />
  <rect
     width="12"
     height="12"
     rx="1"
     fill="#ffffff"
     opacity="0"
     id="rect35640"
     x="0.5"
     y="0.5" />
  <path
     d="m 6.5,8.5 h -1 v -2 h -2 v -1 h 2 v -2 h 1 v 2 h 2 v 1 h -2 z"
     fill="#e2d6d1"
     id="path35642"
     style="stroke-width:0.732143"
     sodipodi:nodetypes="ccccccccccccc" />
  <rect
     width="12"
     height="12"
     rx="1"
     fill="#ffffff"
     opacity="0"
     id="rect35656"
     x="0.5"
     y="12.501" />
  <path
     d="m 6.5,20.5 h -1 v -2 h -2 v -1 h 2 v -2 h 1 v 2 h 2 v 1 h -2 z"
     fill="#e2d6d1"
     id="path40882"
     style="stroke-width:0.732143;fill:#fce237"
     sodipodi:nodetypes="ccccccccccccc" />
</svg>
