<?xml version="1.0" encoding="utf-8"?>
<svg width="120px" height="52px" viewbox="0 0 120 52" version="1.1" xmlns:xlink="http://www.w3.org/1999/xlink" xmlns="http://www.w3.org/2000/svg">
  <defs>
    <rect width="120" height="52" id="artboard_1" />
    <clipPath id="clip_1">
      <use xlink:href="#artboard_1" clip-rule="evenodd" />
    </clipPath>
  </defs>
  <g id="bmp00137" clip-path="url(#clip_1)">
    <path d="M36 0L49.5 0L49.5 8M41.5 0.5L41.5 8L0 8M0 32L41.5 32L41.5 39.5M36 40L49.5 40L49.5 32M54 20L57.5 20L57.5 10L62 10" transform="translate(26.000046 5.5)" id="Shape" fill="none" fill-rule="evenodd" stroke="#D7C0AF" stroke-width="1" />
    <path d="M0 0L1 0L1 1L0 1L0 0L0 0Z" transform="translate(36.000046 25)" id="Rectangle#10" fill="#D7C0AF" fill-rule="evenodd" stroke="none" />
    <path d="M0 0L1 0L1 1L0 1L0 0L0 0Z" transform="translate(38.000046 25)" id="Rectangle#11" fill="#D7C0AF" fill-rule="evenodd" stroke="none" />
    <path d="M0 0L1 0L1 1L0 1L0 0L0 0Z" transform="translate(40.000046 25)" id="Rectangle#12" fill="#D7C0AF" fill-rule="evenodd" stroke="none" />
    <path d="M0 0L1 0L1 1L0 1L0 0L0 0Z" transform="translate(42.000046 25)" id="Rectangle#13" fill="#D7C0AF" fill-rule="evenodd" stroke="none" />
    <path d="M0 0L1 0L1 1L0 1L0 0L0 0Z" transform="translate(62.000046 25)" id="Rectangle#14" fill="#D7C0AF" fill-rule="evenodd" stroke="none" />
    <path d="M0 9.5L4.5 9.5L4.5 0" transform="translate(107.000046 26)" id="Shape#1" fill="none" fill-rule="evenodd" stroke="#D7C0AF" stroke-width="1" />
    <path d="M4 0L4 3L6.99893 3L6.99893 4L4 4L4 7L3 7L3 4L0 4L0.0010376 3L3 3L3 0L4 0Z" transform="translate(72 22)" id="Shape#4" fill="#D7C0AF" fill-rule="evenodd" stroke="none" />
    <path d="M5 10C7.7614 10 10 7.7614 10 5C10 2.2386 7.7614 0 5 0C2.2386 0 0 2.2386 0 5C0 7.7614 2.2386 10 5 10L5 10L5 10Z" transform="translate(70.500046 20.5)" id="Shape#5" fill="none" fill-rule="evenodd" stroke="#D7C0AF" stroke-width="1" />
    <path d="M3 0L5 0L2.5 3L0 0L2 0L3 0L3 0L3 0Z" transform="translate(95.000046 26)" id="Shape#6" fill="#D7C0AF" fill-rule="evenodd" stroke="none" />
    <path d="M1 0L1 5.5L0 5.5L0 0L1 0L1 0L1 0Z" transform="translate(97.000046 21)" id="Shape#7" fill="#D7C0AF" fill-rule="evenodd" stroke="none" />
    <path d="M3 0L5 0L2.5 3L0 0L2 0L3 0L3 0L3 0Z" transform="translate(24.000046 16)" id="Shape#8" fill="#D7C0AF" fill-rule="evenodd" stroke="none" />
    <path d="M1 0L1 3L0 3L0 0L1 0L1 0L1 0Z" transform="translate(26.000046 13)" id="Shape#9" fill="#D7C0AF" fill-rule="evenodd" stroke="none" />
    <path d="M2 3L0 3L2.5 0L5 3L3 3L2 3L2 3L2 3Z" transform="translate(50.000046 32)" id="Shape#10" fill="#D7C0AF" fill-rule="evenodd" stroke="none" />
    <path d="M0 2.5L0 0L1 0L1 2.5L0 2.5L0 2.5L0 2.5Z" transform="translate(52.000046 34.5)" id="Shape#11" fill="#D7C0AF" fill-rule="evenodd" stroke="none" />
    <path d="M2 3L0 3L2.5 0L5 3L3 3L2 3L2 3L2 3Z" transform="translate(73.000046 32)" id="Shape#12" fill="#D7C0AF" fill-rule="evenodd" stroke="none" />
    <path d="M0 3.5L0 0L1 0L1 3.5L0 3.5L0 3.5L0 3.5Z" transform="translate(75.000046 34.5)" id="Shape#13" fill="#D7C0AF" fill-rule="evenodd" stroke="none" />
    <path d="M3 0L5 0L2.5 3L0 0L2 0L3 0L3 0L3 0Z" transform="translate(50.000046 16)" id="Shape#14" fill="#D7C0AF" fill-rule="evenodd" stroke="none" />
    <path d="M1 0L1 3L0 3L0 0L1 0L1 0L1 0Z" transform="translate(52.000046 14)" id="Shape#15" fill="#D7C0AF" fill-rule="evenodd" stroke="none" />
    <path d="M3 0L5 0L2.5 3L0 0L2 0L3 0L3 0L3 0Z" transform="translate(73.000046 16)" id="Shape#16" fill="#D7C0AF" fill-rule="evenodd" stroke="none" />
    <path d="M1 0L1 3.5L0 3.5L0 0L1 0L1 0L1 0Z" transform="translate(75.000046 13)" id="Shape#17" fill="#D7C0AF" fill-rule="evenodd" stroke="none" />
    <path d="M2 3L0 3L2.5 0L5 3L3 3L2 3L2 3L2 3Z" transform="translate(24.000046 32)" id="Shape#18" fill="#D7C0AF" fill-rule="evenodd" stroke="none" />
    <path d="M0 2.5L0 0L1 0L1 2.5L0 2.5L0 2.5L0 2.5Z" transform="translate(26.000046 34.5)" id="Shape#19" fill="#D7C0AF" fill-rule="evenodd" stroke="none" />
    <path d="M0 2L0 0L3 2.5L0 5L0 3L0 2L0 2L0 2Z" transform="translate(13.000046 3)" id="Shape#20" fill="#D7C0AF" fill-rule="evenodd" stroke="none" />
    <path d="M0 0L3.5 0L3.5 1L0 1L0 0L0 0L0 0Z" transform="translate(10.000046 5)" id="Shape#21" fill="#D7C0AF" fill-rule="evenodd" stroke="none" />
    <path d="M0 2L0 0L3 2.5L0 5L0 3L0 2L0 2L0 2Z" transform="translate(39.000046 3)" id="Shape#22" fill="#D7C0AF" fill-rule="evenodd" stroke="none" />
    <path d="M0 0L3.5 0L3.5 1L0 1L0 0L0 0L0 0Z" transform="translate(36.000046 5)" id="Shape#23" fill="#D7C0AF" fill-rule="evenodd" stroke="none" />
    <path d="M0 2L0 0L3 2.5L0 5L0 3L0 2L0 2L0 2Z" transform="translate(39.000046 43)" id="Shape#24" fill="#D7C0AF" fill-rule="evenodd" stroke="none" />
    <path d="M0 0L3.5 0L3.5 1L0 1L0 0L0 0L0 0Z" transform="translate(36.000046 45)" id="Shape#25" fill="#D7C0AF" fill-rule="evenodd" stroke="none" />
    <path d="M0 2L0 0L3 2.5L0 5L0 3L0 2L0 2L0 2Z" transform="translate(66.000046 23)" id="Shape#26" fill="#D7C0AF" fill-rule="evenodd" stroke="none" />
    <path d="M0 0L1.5 0L1.5 1L0 1L0 0L0 0L0 0Z" transform="translate(64.000046 25)" id="Shape#27" fill="#D7C0AF" fill-rule="evenodd" stroke="none" />
    <path d="M0 2L0 0L3 2.5L0 5L0 3L0 2L0 2L0 2Z" transform="translate(13.000046 43)" id="Shape#28" fill="#D7C0AF" fill-rule="evenodd" stroke="none" />
    <path d="M0 0L3.5 0L3.5 1L0 1L0 0L0 0L0 0Z" transform="translate(10.000046 45)" id="Shape#29" fill="#D7C0AF" fill-rule="evenodd" stroke="none" />
    <path d="M0 2L0 0L3 2.5L0 5L0 3L0 2L0 2L0 2Z" transform="translate(115.000046 23)" id="Shape#30" fill="#D7C0AF" fill-rule="evenodd" stroke="none" />
    <path d="M0 0L4.444 0L4.444 1L0 1L0 0L0 0L0 0Z" transform="translate(111.000046 25)" id="Shape#31" fill="#D7C0AF" fill-rule="evenodd" stroke="none" />
  </g>
</svg>