<svg xmlns="http://www.w3.org/2000/svg" width="123" height="224" viewBox="0 0 123 224"><g transform="translate(-62 -469)"><g transform="translate(124 513)"><rect width="30" height="9" transform="translate(0 3)" fill="#fff" opacity="0.2"/><rect width="30" height="2" fill="#fff" opacity="0.2"/><g transform="translate(-1079 -394)"><path d="M-.641-2.187h.619c.608,0,.981.3.981.779,0,.465-.4.79-.96.79S-.959-.909-1-1.367h-.844A1.632,1.632,0,0,0-.009.123c1.073,0,1.866-.629,1.866-1.477A1.148,1.148,0,0,0,.767-2.546V-2.6a1.105,1.105,0,0,0,.892-1.135c0-.755-.714-1.316-1.671-1.316a1.545,1.545,0,0,0-1.733,1.47h.824a.8.8,0,0,1,.882-.752c.516,0,.848.284.848.721a.763.763,0,0,1-.848.745h-.6Z" transform="translate(1084 404)" fill="#dbd7d7"/><path d="M-1.735-3.49v.014h.827V-3.49a.808.808,0,0,1,.865-.841A.773.773,0,0,1,.8-3.582c0,.349-.167.6-.841,1.289L-1.687-.612V0H1.738V-.749H-.477V-.807L.555-1.842c.837-.827,1.107-1.265,1.107-1.794A1.511,1.511,0,0,0-.015-5.055,1.576,1.576,0,0,0-1.735-3.49Z" transform="translate(1094 404)" fill="#dbd7d7"/><path d="M-.031,0H.851V-4.932H-.027l-1.289.9v.848l1.227-.861h.058Z" transform="translate(1104 404)" fill="#dbd7d7"/><path d="M2,0,4,3H0Z" transform="translate(1091 400) rotate(90)" fill="#dbd7d7"/><path d="M2,0,4,3H0Z" transform="translate(1101 400) rotate(90)" fill="#dbd7d7"/></g></g><g transform="translate(93 513)"><rect width="30" height="9" transform="translate(0 3)" fill="#fff" opacity="0.2"/><rect width="30" height="2" fill="#fff" opacity="0.2"/><g transform="translate(-1083 -394)"><path d="M-1.735-3.49v.014h.827V-3.49a.808.808,0,0,1,.865-.841A.773.773,0,0,1,.8-3.582c0,.349-.167.6-.841,1.289L-1.687-.612V0H1.738V-.749H-.477V-.807L.555-1.842c.837-.827,1.107-1.265,1.107-1.794A1.511,1.511,0,0,0-.015-5.055,1.576,1.576,0,0,0-1.735-3.49Z" transform="translate(1094 404)" fill="#dbd7d7"/><path d="M-.031,0H.851V-4.932H-.027l-1.289.9v.848l1.227-.861h.058Z" transform="translate(1104 404)" fill="#dbd7d7"/><path d="M2,0,4,3H0Z" transform="translate(1101 400) rotate(90)" fill="#dbd7d7"/></g></g><g transform="translate(62 513)"><rect width="30" height="9" transform="translate(0 3)" fill="#c89e83" opacity="0.6"/><rect width="30" height="2" fill="#f6d738"/><g transform="translate(-1079 -394)"><path d="M-9.376,0V-3.356h.058L-6.9,0h.762V-4.932h-.848v3.353h-.058l-2.42-3.353h-.766V0Zm6.24-5.055A2.3,2.3,0,0,0-5.474-2.468,2.294,2.294,0,0,0-3.136.123,2.293,2.293,0,0,0-.809-2.468,2.292,2.292,0,0,0-3.136-5.055Zm0,.783c.875,0,1.425.7,1.425,1.8S-2.258-.66-3.136-.66s-1.436-.708-1.436-1.808S-4.015-4.272-3.136-4.272ZM2.248,0V-2H4.316v-.735H2.248V-4.17H4.51v-.762H1.366V0Zm7.98,0V-4.932H9.2L7.712-1.34H7.65L6.167-4.932H5.134V0h.82V-3.469H6L7.366-.191H8L9.359-3.469h.048V0Z" transform="translate(1094 404)" fill="#f6d738"/></g></g><g transform="translate(155 513)"><rect width="30" height="9" transform="translate(0 3)" fill="#fff" opacity="0.2"/><rect width="30" height="2" fill="#fff" opacity="0.2"/><g transform="translate(-1079 -394)"><path d="M-1.735-3.49v.014h.827V-3.49a.808.808,0,0,1,.865-.841A.773.773,0,0,1,.8-3.582c0,.349-.167.6-.841,1.289L-1.687-.612V0H1.738V-.749H-.477V-.807L.555-1.842c.837-.827,1.107-1.265,1.107-1.794A1.511,1.511,0,0,0-.015-5.055,1.576,1.576,0,0,0-1.735-3.49Z" transform="translate(1084 404)" fill="#dbd7d7"/><path d="M-.031,0H.851V-4.932H-.027l-1.289.9v.848l1.227-.861h.058Z" transform="translate(1094 404)" fill="#dbd7d7"/><path d="M-.641-2.187h.619c.608,0,.981.3.981.779,0,.465-.4.79-.96.79S-.959-.909-1-1.367h-.844A1.632,1.632,0,0,0-.009.123c1.073,0,1.866-.629,1.866-1.477A1.148,1.148,0,0,0,.767-2.546V-2.6a1.105,1.105,0,0,0,.892-1.135c0-.755-.714-1.316-1.671-1.316a1.545,1.545,0,0,0-1.733,1.47h.824a.8.8,0,0,1,.882-.752c.516,0,.848.284.848.721a.763.763,0,0,1-.848.745h-.6Z" transform="translate(1104 404)" fill="#dbd7d7"/><path d="M2,0,4,3H0Z" transform="translate(1091 400) rotate(90)" fill="#dbd7d7"/><path d="M2,0,4,3H0Z" transform="translate(1097 404) rotate(-90)" fill="#dbd7d7"/></g></g><g transform="translate(124 569)"><rect width="30" height="9" transform="translate(0 3)" fill="#fff" opacity="0.2"/><rect width="30" height="2" fill="#fff" opacity="0.2"/><g transform="translate(-1079 -394)"><path d="M-.641-2.187h.619c.608,0,.981.3.981.779,0,.465-.4.79-.96.79S-.959-.909-1-1.367h-.844A1.632,1.632,0,0,0-.009.123c1.073,0,1.866-.629,1.866-1.477A1.148,1.148,0,0,0,.767-2.546V-2.6a1.105,1.105,0,0,0,.892-1.135c0-.755-.714-1.316-1.671-1.316a1.545,1.545,0,0,0-1.733,1.47h.824a.8.8,0,0,1,.882-.752c.516,0,.848.284.848.721a.763.763,0,0,1-.848.745h-.6Z" transform="translate(1084 404)" fill="#dbd7d7"/><path d="M-1.735-3.49v.014h.827V-3.49a.808.808,0,0,1,.865-.841A.773.773,0,0,1,.8-3.582c0,.349-.167.6-.841,1.289L-1.687-.612V0H1.738V-.749H-.477V-.807L.555-1.842c.837-.827,1.107-1.265,1.107-1.794A1.511,1.511,0,0,0-.015-5.055,1.576,1.576,0,0,0-1.735-3.49Z" transform="translate(1094 404)" fill="#dbd7d7"/><path d="M-.031,0H.851V-4.932H-.027l-1.289.9v.848l1.227-.861h.058Z" transform="translate(1104 404)" fill="#dbd7d7"/><path d="M2,0,4,3H0Z" transform="translate(1091 400) rotate(90)" fill="#dbd7d7"/><path d="M2,0,4,3H0Z" transform="translate(1101 400) rotate(90)" fill="#dbd7d7"/></g></g><g transform="translate(93 569)"><rect width="30" height="9" transform="translate(0 3)" fill="#c89e83" opacity="0.6"/><rect width="30" height="2" fill="#f6d738"/><g transform="translate(-1083 -394)"><path d="M-1.735-3.49v.014h.827V-3.49a.808.808,0,0,1,.865-.841A.773.773,0,0,1,.8-3.582c0,.349-.167.6-.841,1.289L-1.687-.612V0H1.738V-.749H-.477V-.807L.555-1.842c.837-.827,1.107-1.265,1.107-1.794A1.511,1.511,0,0,0-.015-5.055,1.576,1.576,0,0,0-1.735-3.49Z" transform="translate(1094 404)" fill="#f6d738"/><path d="M-.031,0H.851V-4.932H-.027l-1.289.9v.848l1.227-.861h.058Z" transform="translate(1104 404)" fill="#f6d738"/><path d="M2,0,4,3H0Z" transform="translate(1101 400) rotate(90)" fill="#f6d738"/></g></g><g transform="translate(62 569)"><rect width="30" height="9" transform="translate(0 3)" fill="#fff" opacity="0.2"/><rect width="30" height="2" fill="#fff" opacity="0.2"/><g transform="translate(-1079 -394)"><path d="M-9.376,0V-3.356h.058L-6.9,0h.762V-4.932h-.848v3.353h-.058l-2.42-3.353h-.766V0Zm6.24-5.055A2.3,2.3,0,0,0-5.474-2.468,2.294,2.294,0,0,0-3.136.123,2.293,2.293,0,0,0-.809-2.468,2.292,2.292,0,0,0-3.136-5.055Zm0,.783c.875,0,1.425.7,1.425,1.8S-2.258-.66-3.136-.66s-1.436-.708-1.436-1.808S-4.015-4.272-3.136-4.272ZM2.248,0V-2H4.316v-.735H2.248V-4.17H4.51v-.762H1.366V0Zm7.98,0V-4.932H9.2L7.712-1.34H7.65L6.167-4.932H5.134V0h.82V-3.469H6L7.366-.191H8L9.359-3.469h.048V0Z" transform="translate(1094 404)" fill="#dbd7d7"/></g></g><g transform="translate(155 569)"><rect width="30" height="9" transform="translate(0 3)" fill="#fff" opacity="0.2"/><rect width="30" height="2" fill="#fff" opacity="0.2"/><g transform="translate(-1079 -394)"><path d="M-1.735-3.49v.014h.827V-3.49a.808.808,0,0,1,.865-.841A.773.773,0,0,1,.8-3.582c0,.349-.167.6-.841,1.289L-1.687-.612V0H1.738V-.749H-.477V-.807L.555-1.842c.837-.827,1.107-1.265,1.107-1.794A1.511,1.511,0,0,0-.015-5.055,1.576,1.576,0,0,0-1.735-3.49Z" transform="translate(1084 404)" fill="#dbd7d7"/><path d="M-.031,0H.851V-4.932H-.027l-1.289.9v.848l1.227-.861h.058Z" transform="translate(1094 404)" fill="#dbd7d7"/><path d="M-.641-2.187h.619c.608,0,.981.3.981.779,0,.465-.4.79-.96.79S-.959-.909-1-1.367h-.844A1.632,1.632,0,0,0-.009.123c1.073,0,1.866-.629,1.866-1.477A1.148,1.148,0,0,0,.767-2.546V-2.6a1.105,1.105,0,0,0,.892-1.135c0-.755-.714-1.316-1.671-1.316a1.545,1.545,0,0,0-1.733,1.47h.824a.8.8,0,0,1,.882-.752c.516,0,.848.284.848.721a.763.763,0,0,1-.848.745h-.6Z" transform="translate(1104 404)" fill="#dbd7d7"/><path d="M2,0,4,3H0Z" transform="translate(1091 400) rotate(90)" fill="#dbd7d7"/><path d="M2,0,4,3H0Z" transform="translate(1097 404) rotate(-90)" fill="#dbd7d7"/></g></g><g transform="translate(124 625)"><rect width="30" height="9" transform="translate(0 3)" fill="#c89e83" opacity="0.6"/><rect width="30" height="2" fill="#f6d738"/><g transform="translate(-1079 -394)"><path d="M-.641-2.187h.619c.608,0,.981.3.981.779,0,.465-.4.79-.96.79S-.959-.909-1-1.367h-.844A1.632,1.632,0,0,0-.009.123c1.073,0,1.866-.629,1.866-1.477A1.148,1.148,0,0,0,.767-2.546V-2.6a1.105,1.105,0,0,0,.892-1.135c0-.755-.714-1.316-1.671-1.316a1.545,1.545,0,0,0-1.733,1.47h.824a.8.8,0,0,1,.882-.752c.516,0,.848.284.848.721a.763.763,0,0,1-.848.745h-.6Z" transform="translate(1084 404)" fill="#f6d738"/><path d="M-1.735-3.49v.014h.827V-3.49a.808.808,0,0,1,.865-.841A.773.773,0,0,1,.8-3.582c0,.349-.167.6-.841,1.289L-1.687-.612V0H1.738V-.749H-.477V-.807L.555-1.842c.837-.827,1.107-1.265,1.107-1.794A1.511,1.511,0,0,0-.015-5.055,1.576,1.576,0,0,0-1.735-3.49Z" transform="translate(1094 404)" fill="#f6d738"/><path d="M-.031,0H.851V-4.932H-.027l-1.289.9v.848l1.227-.861h.058Z" transform="translate(1104 404)" fill="#f6d738"/><path d="M2,0,4,3H0Z" transform="translate(1091 400) rotate(90)" fill="#f6d738"/><path d="M2,0,4,3H0Z" transform="translate(1101 400) rotate(90)" fill="#f6d738"/></g></g><g transform="translate(93 625)"><rect width="30" height="9" transform="translate(0 3)" fill="#fff" opacity="0.2"/><rect width="30" height="2" fill="#fff" opacity="0.2"/><g transform="translate(-1083 -394)"><path d="M-1.735-3.49v.014h.827V-3.49a.808.808,0,0,1,.865-.841A.773.773,0,0,1,.8-3.582c0,.349-.167.6-.841,1.289L-1.687-.612V0H1.738V-.749H-.477V-.807L.555-1.842c.837-.827,1.107-1.265,1.107-1.794A1.511,1.511,0,0,0-.015-5.055,1.576,1.576,0,0,0-1.735-3.49Z" transform="translate(1094 404)" fill="#dbd7d7"/><path d="M-.031,0H.851V-4.932H-.027l-1.289.9v.848l1.227-.861h.058Z" transform="translate(1104 404)" fill="#dbd7d7"/><path d="M2,0,4,3H0Z" transform="translate(1101 400) rotate(90)" fill="#dbd7d7"/></g></g><g transform="translate(62 625)"><rect width="30" height="9" transform="translate(0 3)" fill="#fff" opacity="0.2"/><rect width="30" height="2" fill="#fff" opacity="0.2"/><g transform="translate(-1079 -394)"><path d="M-9.376,0V-3.356h.058L-6.9,0h.762V-4.932h-.848v3.353h-.058l-2.42-3.353h-.766V0Zm6.24-5.055A2.3,2.3,0,0,0-5.474-2.468,2.294,2.294,0,0,0-3.136.123,2.293,2.293,0,0,0-.809-2.468,2.292,2.292,0,0,0-3.136-5.055Zm0,.783c.875,0,1.425.7,1.425,1.8S-2.258-.66-3.136-.66s-1.436-.708-1.436-1.808S-4.015-4.272-3.136-4.272ZM2.248,0V-2H4.316v-.735H2.248V-4.17H4.51v-.762H1.366V0Zm7.98,0V-4.932H9.2L7.712-1.34H7.65L6.167-4.932H5.134V0h.82V-3.469H6L7.366-.191H8L9.359-3.469h.048V0Z" transform="translate(1094 404)" fill="#dbd7d7"/></g></g><g transform="translate(155 625)"><rect width="30" height="9" transform="translate(0 3)" fill="#fff" opacity="0.2"/><rect width="30" height="2" fill="#fff" opacity="0.2"/><g transform="translate(-1079 -394)"><path d="M-1.735-3.49v.014h.827V-3.49a.808.808,0,0,1,.865-.841A.773.773,0,0,1,.8-3.582c0,.349-.167.6-.841,1.289L-1.687-.612V0H1.738V-.749H-.477V-.807L.555-1.842c.837-.827,1.107-1.265,1.107-1.794A1.511,1.511,0,0,0-.015-5.055,1.576,1.576,0,0,0-1.735-3.49Z" transform="translate(1084 404)" fill="#dbd7d7"/><path d="M-.031,0H.851V-4.932H-.027l-1.289.9v.848l1.227-.861h.058Z" transform="translate(1094 404)" fill="#dbd7d7"/><path d="M-.641-2.187h.619c.608,0,.981.3.981.779,0,.465-.4.79-.96.79S-.959-.909-1-1.367h-.844A1.632,1.632,0,0,0-.009.123c1.073,0,1.866-.629,1.866-1.477A1.148,1.148,0,0,0,.767-2.546V-2.6a1.105,1.105,0,0,0,.892-1.135c0-.755-.714-1.316-1.671-1.316a1.545,1.545,0,0,0-1.733,1.47h.824a.8.8,0,0,1,.882-.752c.516,0,.848.284.848.721a.763.763,0,0,1-.848.745h-.6Z" transform="translate(1104 404)" fill="#dbd7d7"/><path d="M2,0,4,3H0Z" transform="translate(1091 400) rotate(90)" fill="#dbd7d7"/><path d="M2,0,4,3H0Z" transform="translate(1097 404) rotate(-90)" fill="#dbd7d7"/></g></g><g transform="translate(124 681)"><rect width="30" height="9" transform="translate(0 3)" fill="#fff" opacity="0.2"/><rect width="30" height="2" fill="#fff" opacity="0.2"/><g transform="translate(-1079 -394)"><path d="M-.641-2.187h.619c.608,0,.981.3.981.779,0,.465-.4.79-.96.79S-.959-.909-1-1.367h-.844A1.632,1.632,0,0,0-.009.123c1.073,0,1.866-.629,1.866-1.477A1.148,1.148,0,0,0,.767-2.546V-2.6a1.105,1.105,0,0,0,.892-1.135c0-.755-.714-1.316-1.671-1.316a1.545,1.545,0,0,0-1.733,1.47h.824a.8.8,0,0,1,.882-.752c.516,0,.848.284.848.721a.763.763,0,0,1-.848.745h-.6Z" transform="translate(1084 404)" fill="#dbd7d7"/><path d="M-1.735-3.49v.014h.827V-3.49a.808.808,0,0,1,.865-.841A.773.773,0,0,1,.8-3.582c0,.349-.167.6-.841,1.289L-1.687-.612V0H1.738V-.749H-.477V-.807L.555-1.842c.837-.827,1.107-1.265,1.107-1.794A1.511,1.511,0,0,0-.015-5.055,1.576,1.576,0,0,0-1.735-3.49Z" transform="translate(1094 404)" fill="#dbd7d7"/><path d="M-.031,0H.851V-4.932H-.027l-1.289.9v.848l1.227-.861h.058Z" transform="translate(1104 404)" fill="#dbd7d7"/><path d="M2,0,4,3H0Z" transform="translate(1091 400) rotate(90)" fill="#dbd7d7"/><path d="M2,0,4,3H0Z" transform="translate(1101 400) rotate(90)" fill="#dbd7d7"/></g></g><g transform="translate(93 681)"><rect width="30" height="9" transform="translate(0 3)" fill="#fff" opacity="0.2"/><rect width="30" height="2" fill="#fff" opacity="0.2"/><g transform="translate(-1083 -394)"><path d="M-1.735-3.49v.014h.827V-3.49a.808.808,0,0,1,.865-.841A.773.773,0,0,1,.8-3.582c0,.349-.167.6-.841,1.289L-1.687-.612V0H1.738V-.749H-.477V-.807L.555-1.842c.837-.827,1.107-1.265,1.107-1.794A1.511,1.511,0,0,0-.015-5.055,1.576,1.576,0,0,0-1.735-3.49Z" transform="translate(1094 404)" fill="#dbd7d7"/><path d="M-.031,0H.851V-4.932H-.027l-1.289.9v.848l1.227-.861h.058Z" transform="translate(1104 404)" fill="#dbd7d7"/><path d="M2,0,4,3H0Z" transform="translate(1101 400) rotate(90)" fill="#dbd7d7"/></g></g><g transform="translate(62 681)"><rect width="30" height="9" transform="translate(0 3)" fill="#fff" opacity="0.2"/><rect width="30" height="2" fill="#fff" opacity="0.2"/><g transform="translate(-1079 -394)"><path d="M-9.376,0V-3.356h.058L-6.9,0h.762V-4.932h-.848v3.353h-.058l-2.42-3.353h-.766V0Zm6.24-5.055A2.3,2.3,0,0,0-5.474-2.468,2.294,2.294,0,0,0-3.136.123,2.293,2.293,0,0,0-.809-2.468,2.292,2.292,0,0,0-3.136-5.055Zm0,.783c.875,0,1.425.7,1.425,1.8S-2.258-.66-3.136-.66s-1.436-.708-1.436-1.808S-4.015-4.272-3.136-4.272ZM2.248,0V-2H4.316v-.735H2.248V-4.17H4.51v-.762H1.366V0Zm7.98,0V-4.932H9.2L7.712-1.34H7.65L6.167-4.932H5.134V0h.82V-3.469H6L7.366-.191H8L9.359-3.469h.048V0Z" transform="translate(1094 404)" fill="#dbd7d7"/></g></g><g transform="translate(155 681)"><rect width="30" height="9" transform="translate(0 3)" fill="#c89e83" opacity="0.6"/><rect width="30" height="2" fill="#f6d738"/><g transform="translate(-1079 -394)"><path d="M-1.735-3.49v.014h.827V-3.49a.808.808,0,0,1,.865-.841A.773.773,0,0,1,.8-3.582c0,.349-.167.6-.841,1.289L-1.687-.612V0H1.738V-.749H-.477V-.807L.555-1.842c.837-.827,1.107-1.265,1.107-1.794A1.511,1.511,0,0,0-.015-5.055,1.576,1.576,0,0,0-1.735-3.49Z" transform="translate(1084 404)" fill="#f6d738"/><path d="M-.031,0H.851V-4.932H-.027l-1.289.9v.848l1.227-.861h.058Z" transform="translate(1094 404)" fill="#f6d738"/><path d="M-.641-2.187h.619c.608,0,.981.3.981.779,0,.465-.4.79-.96.79S-.959-.909-1-1.367h-.844A1.632,1.632,0,0,0-.009.123c1.073,0,1.866-.629,1.866-1.477A1.148,1.148,0,0,0,.767-2.546V-2.6a1.105,1.105,0,0,0,.892-1.135c0-.755-.714-1.316-1.671-1.316a1.545,1.545,0,0,0-1.733,1.47h.824a.8.8,0,0,1,.882-.752c.516,0,.848.284.848.721a.763.763,0,0,1-.848.745h-.6Z" transform="translate(1104 404)" fill="#f6d738"/><path d="M2,0,4,3H0Z" transform="translate(1091 400) rotate(90)" fill="#f6d738"/><path d="M2,0,4,3H0Z" transform="translate(1097 404) rotate(-90)" fill="#f6d738"/></g></g><rect width="117" height="2" transform="translate(62 469)" fill="#eac997"/><rect width="1" height="10" transform="translate(178 469)" fill="#eac997"/><g transform="translate(66 490)" fill="none" stroke="#eac997" stroke-width="1"><rect width="13" height="13" stroke="none"/><rect x="0.5" y="0.5" width="12" height="12" fill="none"/></g><path d="M-1.56.123C-.38.123.32-.834.32-2.464S-.391-5.055-1.56-5.055-3.443-4.1-3.443-2.471-2.742.123-1.56.123Zm0-.731c-.625,0-.991-.649-.991-1.863s.373-1.849.991-1.849.988.643.988,1.849S-.934-.608-1.56-.608ZM2.12,0H3V-4.932H2.124l-1.289.9v.848l1.227-.861H2.12Z" transform="translate(72.5 499)" fill="#dbd7d7"/><g transform="translate(70 472)"><path d="M2.5,0,5,3H0Z" fill="#eac895"/><rect width="1" height="15" transform="translate(2 3)" fill="#eac997"/></g><g transform="translate(81 481) rotate(90)"><path d="M2.5,0,5,3H0Z" fill="#eac895" opacity="0.5"/><rect width="1" height="5" transform="translate(2 3)" fill="#eac997" opacity="0.5"/></g><g transform="translate(96 490)" fill="none" stroke="#eac997" stroke-width="1"><rect width="13" height="13" stroke="none"/><rect x="0.5" y="0.5" width="12" height="12" fill="none"/></g><path d="M-2.026.123c1.179,0,1.88-.957,1.88-2.587s-.711-2.591-1.88-2.591S-3.909-4.1-3.909-2.471-3.209.123-2.026.123Zm0-.731c-.625,0-.991-.649-.991-1.863s.373-1.849.991-1.849.988.643.988,1.849S-1.4-.608-2.026-.608ZM.416-3.49v.014h.827V-3.49a.808.808,0,0,1,.865-.841.773.773,0,0,1,.841.749c0,.349-.167.6-.841,1.289L.464-.612V0H3.889V-.749H1.674V-.807L2.706-1.842c.837-.827,1.107-1.265,1.107-1.794A1.511,1.511,0,0,0,2.136-5.055,1.576,1.576,0,0,0,.416-3.49Z" transform="translate(102.5 499)" fill="#dbd7d7"/><g transform="translate(100 472)"><path d="M2.5,0,5,3H0Z" fill="#eac895"/><rect width="1" height="15" transform="translate(2 3)" fill="#eac997"/></g><g transform="translate(111 481) rotate(90)"><path d="M2.5,0,5,3H0Z" fill="#eac895" opacity="0.5"/><rect width="1" height="5" transform="translate(2 3)" fill="#eac997" opacity="0.5"/></g><g transform="translate(94 486) rotate(-90)"><path d="M2.5,0,5,3H0Z" fill="#eac895" opacity="0.5"/><rect width="1" height="5" transform="translate(2 3)" fill="#eac997" opacity="0.5"/></g><g transform="translate(126 490)" fill="none" stroke="#eac997" stroke-width="1"><rect width="13" height="13" stroke="none"/><rect x="0.5" y="0.5" width="12" height="12" fill="none"/></g><path d="M-2.095.123c1.179,0,1.88-.957,1.88-2.587s-.711-2.591-1.88-2.591S-3.978-4.1-3.978-2.471-3.277.123-2.095.123Zm0-.731c-.625,0-.991-.649-.991-1.863s.373-1.849.991-1.849.988.643.988,1.849S-1.469-.608-2.095-.608ZM1.493-2.187h.619c.608,0,.981.3.981.779,0,.465-.4.79-.96.79s-.957-.291-.995-.749H.293A1.632,1.632,0,0,0,2.125.123C3.2.123,3.992-.506,3.992-1.354A1.148,1.148,0,0,0,2.9-2.546V-2.6a1.105,1.105,0,0,0,.892-1.135c0-.755-.714-1.316-1.671-1.316A1.545,1.545,0,0,0,.389-3.585h.824a.8.8,0,0,1,.882-.752c.516,0,.848.284.848.721a.763.763,0,0,1-.848.745h-.6Z" transform="translate(132.5 499)" fill="#dbd7d7"/><g transform="translate(130 472)"><path d="M2.5,0,5,3H0Z" fill="#eac895"/><rect width="1" height="15" transform="translate(2 3)" fill="#eac997"/></g><g transform="translate(124 486) rotate(-90)"><path d="M2.5,0,5,3H0Z" fill="#eac895" opacity="0.5"/><rect width="1" height="5" transform="translate(2 3)" fill="#eac997" opacity="0.5"/></g><g transform="translate(156 490)" fill="none" stroke="#eac997" stroke-width="1"><rect width="13" height="13" stroke="none"/><rect x="0.5" y="0.5" width="12" height="12" fill="none"/></g><path d="M-1.2,0V-3.356h.058L1.282,0h.762V-4.932H1.2v3.353H1.138l-2.42-3.353h-.766V0Z" transform="translate(162.5 499)" fill="#dbd7d7"/><g transform="translate(160 472)"><path d="M2.5,0,5,3H0Z" fill="#eac895"/><rect width="1" height="15" transform="translate(2 3)" fill="#eac997"/></g><g transform="translate(185 476) rotate(90)"><path d="M2.5,0,5,3H0Z" fill="#eac895"/><rect width="1" height="4" transform="translate(2 3)" fill="#eac997"/></g><g transform="translate(83 479)"><g fill="none" stroke="#eac997" stroke-width="1"><circle cx="4.5" cy="4.5" r="4.5" stroke="none"/><circle cx="4.5" cy="4.5" r="4" fill="none"/></g><path d="M1.925,3.233.511,4.647-.2,3.939,1.218,2.526-.2,1.112.511.4,1.925,1.818,3.34.4l.707.707L2.633,2.525,4.046,3.939l-.707.707Z" transform="translate(1.974 6.425) rotate(-90)" fill="#eac896"/></g><g transform="translate(113 479)"><g fill="none" stroke="#eac997" stroke-width="1"><circle cx="4.5" cy="4.5" r="4.5" stroke="none"/><circle cx="4.5" cy="4.5" r="4" fill="none"/></g><path d="M1.925,3.233.511,4.647-.2,3.939,1.218,2.526-.2,1.112.511.4,1.925,1.818,3.34.4l.707.707L2.633,2.525,4.046,3.939l-.707.707Z" transform="translate(1.974 6.425) rotate(-90)" fill="#eac896"/></g><g transform="translate(85 472)"><path d="M2.5,0,5,3H0Z" fill="#eac895" opacity="0.5"/><rect width="1" height="3" transform="translate(2 3)" fill="#eac997" opacity="0.5"/></g><g transform="translate(115 472)"><path d="M2.5,0,5,3H0Z" fill="#eac895" opacity="0.5"/><rect width="1" height="3" transform="translate(2 3)" fill="#eac997" opacity="0.5"/></g><rect width="117" height="2" transform="translate(62 525)" fill="#eac997"/><rect width="1" height="10" transform="translate(178 525)" fill="#eac997"/><g transform="translate(66 546)" fill="none" stroke="#eac997" stroke-width="1"><rect width="13" height="13" stroke="none"/><rect x="0.5" y="0.5" width="12" height="12" fill="none"/></g><path d="M-1.56.123C-.38.123.32-.834.32-2.464S-.391-5.055-1.56-5.055-3.443-4.1-3.443-2.471-2.742.123-1.56.123Zm0-.731c-.625,0-.991-.649-.991-1.863s.373-1.849.991-1.849.988.643.988,1.849S-.934-.608-1.56-.608ZM2.12,0H3V-4.932H2.124l-1.289.9v.848l1.227-.861H2.12Z" transform="translate(72.5 555)" fill="#dbd7d7"/><g transform="translate(70 528)"><path d="M2.5,0,5,3H0Z" fill="#eac895"/><rect width="1" height="15" transform="translate(2 3)" fill="#eac997"/></g><g transform="translate(81 537) rotate(90)"><path d="M2.5,0,5,3H0Z" fill="#eac895" opacity="0.5"/><rect width="1" height="5" transform="translate(2 3)" fill="#eac997" opacity="0.5"/></g><g transform="translate(96 546)" fill="none" stroke="#eac997" stroke-width="1"><rect width="13" height="13" stroke="none"/><rect x="0.5" y="0.5" width="12" height="12" fill="none"/></g><path d="M-2.026.123c1.179,0,1.88-.957,1.88-2.587s-.711-2.591-1.88-2.591S-3.909-4.1-3.909-2.471-3.209.123-2.026.123Zm0-.731c-.625,0-.991-.649-.991-1.863s.373-1.849.991-1.849.988.643.988,1.849S-1.4-.608-2.026-.608ZM.416-3.49v.014h.827V-3.49a.808.808,0,0,1,.865-.841.773.773,0,0,1,.841.749c0,.349-.167.6-.841,1.289L.464-.612V0H3.889V-.749H1.674V-.807L2.706-1.842c.837-.827,1.107-1.265,1.107-1.794A1.511,1.511,0,0,0,2.136-5.055,1.576,1.576,0,0,0,.416-3.49Z" transform="translate(102.5 555)" fill="#dbd7d7"/><g transform="translate(100 528)"><path d="M2.5,0,5,3H0Z" fill="#eac895"/><rect width="1" height="15" transform="translate(2 3)" fill="#eac997"/></g><g transform="translate(111 537) rotate(90)"><path d="M2.5,0,5,3H0Z" fill="#eac895" opacity="0.5"/><rect width="1" height="5" transform="translate(2 3)" fill="#eac997" opacity="0.5"/></g><g transform="translate(94 542) rotate(-90)"><path d="M2.5,0,5,3H0Z" fill="#eac895" opacity="0.5"/><rect width="1" height="5" transform="translate(2 3)" fill="#eac997" opacity="0.5"/></g><g transform="translate(126 546)" fill="none" stroke="#eac997" stroke-width="1"><rect width="13" height="13" stroke="none"/><rect x="0.5" y="0.5" width="12" height="12" fill="none"/></g><path d="M-2.095.123c1.179,0,1.88-.957,1.88-2.587s-.711-2.591-1.88-2.591S-3.978-4.1-3.978-2.471-3.277.123-2.095.123Zm0-.731c-.625,0-.991-.649-.991-1.863s.373-1.849.991-1.849.988.643.988,1.849S-1.469-.608-2.095-.608ZM1.493-2.187h.619c.608,0,.981.3.981.779,0,.465-.4.79-.96.79s-.957-.291-.995-.749H.293A1.632,1.632,0,0,0,2.125.123C3.2.123,3.992-.506,3.992-1.354A1.148,1.148,0,0,0,2.9-2.546V-2.6a1.105,1.105,0,0,0,.892-1.135c0-.755-.714-1.316-1.671-1.316A1.545,1.545,0,0,0,.389-3.585h.824a.8.8,0,0,1,.882-.752c.516,0,.848.284.848.721a.763.763,0,0,1-.848.745h-.6Z" transform="translate(132.5 555)" fill="#dbd7d7"/><g transform="translate(130 528)"><path d="M2.5,0,5,3H0Z" fill="#eac895"/><rect width="1" height="15" transform="translate(2 3)" fill="#eac997"/></g><g transform="translate(124 542) rotate(-90)"><path d="M2.5,0,5,3H0Z" fill="#eac895" opacity="0.5"/><rect width="1" height="5" transform="translate(2 3)" fill="#eac997" opacity="0.5"/></g><g transform="translate(156 546)" fill="none" stroke="#eac997" stroke-width="1"><rect width="13" height="13" stroke="none"/><rect x="0.5" y="0.5" width="12" height="12" fill="none"/></g><path d="M-1.2,0V-3.356h.058L1.282,0h.762V-4.932H1.2v3.353H1.138l-2.42-3.353h-.766V0Z" transform="translate(162.5 555)" fill="#dbd7d7"/><g transform="translate(160 528)"><path d="M2.5,0,5,3H0Z" fill="#eac895"/><rect width="1" height="15" transform="translate(2 3)" fill="#eac997"/></g><g transform="translate(185 532) rotate(90)"><path d="M2.5,0,5,3H0Z" fill="#eac895"/><rect width="1" height="4" transform="translate(2 3)" fill="#eac997"/></g><g transform="translate(-827 222)"><g transform="translate(907 333) rotate(-90)"><path d="M2.5,0,5,3H0Z" fill="#eac895"/><rect width="1" height="12" transform="translate(2 3)" fill="#eac997"/></g></g><g transform="translate(83 535)"><g fill="none" stroke="#eac997" stroke-width="1"><circle cx="4.5" cy="4.5" r="4.5" stroke="none"/><circle cx="4.5" cy="4.5" r="4" fill="none"/></g><path d="M1.925,3.233.511,4.647-.2,3.939,1.218,2.526-.2,1.112.511.4,1.925,1.818,3.34.4l.707.707L2.633,2.525,4.046,3.939l-.707.707Z" transform="translate(1.974 6.425) rotate(-90)" fill="#eac896"/></g><g transform="translate(113 535)"><g fill="none" stroke="#eac997" stroke-width="1"><circle cx="4.5" cy="4.5" r="4.5" stroke="none"/><circle cx="4.5" cy="4.5" r="4" fill="none"/></g><path d="M1.925,3.233.511,4.647-.2,3.939,1.218,2.526-.2,1.112.511.4,1.925,1.818,3.34.4l.707.707L2.633,2.525,4.046,3.939l-.707.707Z" transform="translate(1.974 6.425) rotate(-90)" fill="#eac896"/></g><g transform="translate(85 528)"><path d="M2.5,0,5,3H0Z" fill="#eac895" opacity="0.5"/><rect width="1" height="3" transform="translate(2 3)" fill="#eac997" opacity="0.5"/></g><g transform="translate(115 528)"><path d="M2.5,0,5,3H0Z" fill="#eac895" opacity="0.5"/><rect width="1" height="3" transform="translate(2 3)" fill="#eac997" opacity="0.5"/></g><rect width="117" height="2" transform="translate(62 581)" fill="#eac997"/><rect width="1" height="10" transform="translate(178 581)" fill="#eac997"/><g transform="translate(66 602)" fill="none" stroke="#eac997" stroke-width="1"><rect width="13" height="13" stroke="none"/><rect x="0.5" y="0.5" width="12" height="12" fill="none"/></g><path d="M-1.56.123C-.38.123.32-.834.32-2.464S-.391-5.055-1.56-5.055-3.443-4.1-3.443-2.471-2.742.123-1.56.123Zm0-.731c-.625,0-.991-.649-.991-1.863s.373-1.849.991-1.849.988.643.988,1.849S-.934-.608-1.56-.608ZM2.12,0H3V-4.932H2.124l-1.289.9v.848l1.227-.861H2.12Z" transform="translate(72.5 611)" fill="#dbd7d7"/><g transform="translate(70 584)"><path d="M2.5,0,5,3H0Z" fill="#eac895"/><rect width="1" height="15" transform="translate(2 3)" fill="#eac997"/></g><g transform="translate(81 593) rotate(90)"><path d="M2.5,0,5,3H0Z" fill="#eac895" opacity="0.5"/><rect width="1" height="5" transform="translate(2 3)" fill="#eac997" opacity="0.5"/></g><g transform="translate(96 602)" fill="none" stroke="#eac997" stroke-width="1"><rect width="13" height="13" stroke="none"/><rect x="0.5" y="0.5" width="12" height="12" fill="none"/></g><path d="M-2.026.123c1.179,0,1.88-.957,1.88-2.587s-.711-2.591-1.88-2.591S-3.909-4.1-3.909-2.471-3.209.123-2.026.123Zm0-.731c-.625,0-.991-.649-.991-1.863s.373-1.849.991-1.849.988.643.988,1.849S-1.4-.608-2.026-.608ZM.416-3.49v.014h.827V-3.49a.808.808,0,0,1,.865-.841.773.773,0,0,1,.841.749c0,.349-.167.6-.841,1.289L.464-.612V0H3.889V-.749H1.674V-.807L2.706-1.842c.837-.827,1.107-1.265,1.107-1.794A1.511,1.511,0,0,0,2.136-5.055,1.576,1.576,0,0,0,.416-3.49Z" transform="translate(102.5 611)" fill="#dbd7d7"/><g transform="translate(100 584)"><path d="M2.5,0,5,3H0Z" fill="#eac895"/><rect width="1" height="15" transform="translate(2 3)" fill="#eac997"/></g><g transform="translate(111 593) rotate(90)"><path d="M2.5,0,5,3H0Z" fill="#eac895" opacity="0.5"/><rect width="1" height="5" transform="translate(2 3)" fill="#eac997" opacity="0.5"/></g><g transform="translate(94 598) rotate(-90)"><path d="M2.5,0,5,3H0Z" fill="#eac895" opacity="0.5"/><rect width="1" height="5" transform="translate(2 3)" fill="#eac997" opacity="0.5"/></g><g transform="translate(126 602)" fill="none" stroke="#eac997" stroke-width="1"><rect width="13" height="13" stroke="none"/><rect x="0.5" y="0.5" width="12" height="12" fill="none"/></g><path d="M-2.095.123c1.179,0,1.88-.957,1.88-2.587s-.711-2.591-1.88-2.591S-3.978-4.1-3.978-2.471-3.277.123-2.095.123Zm0-.731c-.625,0-.991-.649-.991-1.863s.373-1.849.991-1.849.988.643.988,1.849S-1.469-.608-2.095-.608ZM1.493-2.187h.619c.608,0,.981.3.981.779,0,.465-.4.79-.96.79s-.957-.291-.995-.749H.293A1.632,1.632,0,0,0,2.125.123C3.2.123,3.992-.506,3.992-1.354A1.148,1.148,0,0,0,2.9-2.546V-2.6a1.105,1.105,0,0,0,.892-1.135c0-.755-.714-1.316-1.671-1.316A1.545,1.545,0,0,0,.389-3.585h.824a.8.8,0,0,1,.882-.752c.516,0,.848.284.848.721a.763.763,0,0,1-.848.745h-.6Z" transform="translate(132.5 611)" fill="#dbd7d7"/><g transform="translate(130 584)"><path d="M2.5,0,5,3H0Z" fill="#eac895"/><rect width="1" height="15" transform="translate(2 3)" fill="#eac997"/></g><g transform="translate(124 598) rotate(-90)"><path d="M2.5,0,5,3H0Z" fill="#eac895" opacity="0.5"/><rect width="1" height="5" transform="translate(2 3)" fill="#eac997" opacity="0.5"/></g><g transform="translate(156 602)" fill="none" stroke="#eac997" stroke-width="1"><rect width="13" height="13" stroke="none"/><rect x="0.5" y="0.5" width="12" height="12" fill="none"/></g><path d="M-1.2,0V-3.356h.058L1.282,0h.762V-4.932H1.2v3.353H1.138l-2.42-3.353h-.766V0Z" transform="translate(162.5 611)" fill="#dbd7d7"/><g transform="translate(160 584)"><path d="M2.5,0,5,3H0Z" fill="#eac895"/><rect width="1" height="15" transform="translate(2 3)" fill="#eac997"/></g><g transform="translate(185 588) rotate(90)"><path d="M2.5,0,5,3H0Z" fill="#eac895"/><rect width="1" height="4" transform="translate(2 3)" fill="#eac997"/></g><g transform="translate(-827 278)"><g transform="translate(907 333) rotate(-90)"><path d="M2.5,0,5,3H0Z" fill="#eac895"/><rect width="1" height="12" transform="translate(2 3)" fill="#eac997"/></g><g transform="translate(937 333) rotate(-90)"><path d="M2.5,0,5,3H0Z" fill="#eac895"/><rect width="1" height="12" transform="translate(2 3)" fill="#eac997"/></g></g><g transform="translate(83 591)"><g fill="none" stroke="#eac997" stroke-width="1"><circle cx="4.5" cy="4.5" r="4.5" stroke="none"/><circle cx="4.5" cy="4.5" r="4" fill="none"/></g><path d="M1.925,3.233.511,4.647-.2,3.939,1.218,2.526-.2,1.112.511.4,1.925,1.818,3.34.4l.707.707L2.633,2.525,4.046,3.939l-.707.707Z" transform="translate(1.974 6.425) rotate(-90)" fill="#eac896"/></g><g transform="translate(113 591)"><g fill="none" stroke="#eac997" stroke-width="1"><circle cx="4.5" cy="4.5" r="4.5" stroke="none"/><circle cx="4.5" cy="4.5" r="4" fill="none"/></g><path d="M1.925,3.233.511,4.647-.2,3.939,1.218,2.526-.2,1.112.511.4,1.925,1.818,3.34.4l.707.707L2.633,2.525,4.046,3.939l-.707.707Z" transform="translate(1.974 6.425) rotate(-90)" fill="#eac896"/></g><g transform="translate(85 584)"><path d="M2.5,0,5,3H0Z" fill="#eac895" opacity="0.5"/><rect width="1" height="3" transform="translate(2 3)" fill="#eac997" opacity="0.5"/></g><g transform="translate(115 584)"><path d="M2.5,0,5,3H0Z" fill="#eac895" opacity="0.5"/><rect width="1" height="3" transform="translate(2 3)" fill="#eac997" opacity="0.5"/></g><rect width="117" height="2" transform="translate(62 637)" fill="#eac997"/><rect width="1" height="10" transform="translate(178 637)" fill="#eac997"/><g transform="translate(66 658)" fill="none" stroke="#eac997" stroke-width="1"><rect width="13" height="13" stroke="none"/><rect x="0.5" y="0.5" width="12" height="12" fill="none"/></g><path d="M-1.56.123C-.38.123.32-.834.32-2.464S-.391-5.055-1.56-5.055-3.443-4.1-3.443-2.471-2.742.123-1.56.123Zm0-.731c-.625,0-.991-.649-.991-1.863s.373-1.849.991-1.849.988.643.988,1.849S-.934-.608-1.56-.608ZM2.12,0H3V-4.932H2.124l-1.289.9v.848l1.227-.861H2.12Z" transform="translate(72.5 667)" fill="#dbd7d7"/><g transform="translate(70 640)"><path d="M2.5,0,5,3H0Z" fill="#eac895"/><rect width="1" height="15" transform="translate(2 3)" fill="#eac997"/></g><g transform="translate(81 649) rotate(90)"><path d="M2.5,0,5,3H0Z" fill="#eac895" opacity="0.5"/><rect width="1" height="5" transform="translate(2 3)" fill="#eac997" opacity="0.5"/></g><g transform="translate(96 658)" fill="none" stroke="#eac997" stroke-width="1"><rect width="13" height="13" stroke="none"/><rect x="0.5" y="0.5" width="12" height="12" fill="none"/></g><path d="M-2.026.123c1.179,0,1.88-.957,1.88-2.587s-.711-2.591-1.88-2.591S-3.909-4.1-3.909-2.471-3.209.123-2.026.123Zm0-.731c-.625,0-.991-.649-.991-1.863s.373-1.849.991-1.849.988.643.988,1.849S-1.4-.608-2.026-.608ZM.416-3.49v.014h.827V-3.49a.808.808,0,0,1,.865-.841.773.773,0,0,1,.841.749c0,.349-.167.6-.841,1.289L.464-.612V0H3.889V-.749H1.674V-.807L2.706-1.842c.837-.827,1.107-1.265,1.107-1.794A1.511,1.511,0,0,0,2.136-5.055,1.576,1.576,0,0,0,.416-3.49Z" transform="translate(102.5 667)" fill="#dbd7d7"/><g transform="translate(100 640)"><path d="M2.5,0,5,3H0Z" fill="#eac895"/><rect width="1" height="15" transform="translate(2 3)" fill="#eac997"/></g><g transform="translate(111 649) rotate(90)"><path d="M2.5,0,5,3H0Z" fill="#eac895" opacity="0.5"/><rect width="1" height="5" transform="translate(2 3)" fill="#eac997" opacity="0.5"/></g><g transform="translate(94 654) rotate(-90)"><path d="M2.5,0,5,3H0Z" fill="#eac895" opacity="0.5"/><rect width="1" height="5" transform="translate(2 3)" fill="#eac997" opacity="0.5"/></g><g transform="translate(126 658)" fill="none" stroke="#eac997" stroke-width="1"><rect width="13" height="13" stroke="none"/><rect x="0.5" y="0.5" width="12" height="12" fill="none"/></g><path d="M-2.095.123c1.179,0,1.88-.957,1.88-2.587s-.711-2.591-1.88-2.591S-3.978-4.1-3.978-2.471-3.277.123-2.095.123Zm0-.731c-.625,0-.991-.649-.991-1.863s.373-1.849.991-1.849.988.643.988,1.849S-1.469-.608-2.095-.608ZM1.493-2.187h.619c.608,0,.981.3.981.779,0,.465-.4.79-.96.79s-.957-.291-.995-.749H.293A1.632,1.632,0,0,0,2.125.123C3.2.123,3.992-.506,3.992-1.354A1.148,1.148,0,0,0,2.9-2.546V-2.6a1.105,1.105,0,0,0,.892-1.135c0-.755-.714-1.316-1.671-1.316A1.545,1.545,0,0,0,.389-3.585h.824a.8.8,0,0,1,.882-.752c.516,0,.848.284.848.721a.763.763,0,0,1-.848.745h-.6Z" transform="translate(132.5 667)" fill="#dbd7d7"/><g transform="translate(130 640)"><path d="M2.5,0,5,3H0Z" fill="#eac895"/><rect width="1" height="15" transform="translate(2 3)" fill="#eac997"/></g><g transform="translate(124 654) rotate(-90)"><path d="M2.5,0,5,3H0Z" fill="#eac895" opacity="0.5"/><rect width="1" height="5" transform="translate(2 3)" fill="#eac997" opacity="0.5"/></g><g transform="translate(156 658)" fill="none" stroke="#eac997" stroke-width="1"><rect width="13" height="13" stroke="none"/><rect x="0.5" y="0.5" width="12" height="12" fill="none"/></g><path d="M-1.2,0V-3.356h.058L1.282,0h.762V-4.932H1.2v3.353H1.138l-2.42-3.353h-.766V0Z" transform="translate(162.5 667)" fill="#dbd7d7"/><g transform="translate(160 640)"><path d="M2.5,0,5,3H0Z" fill="#eac895"/><rect width="1" height="15" transform="translate(2 3)" fill="#eac997"/></g><g transform="translate(185 644) rotate(90)"><path d="M2.5,0,5,3H0Z" fill="#eac895"/><rect width="1" height="4" transform="translate(2 3)" fill="#eac997"/></g><g transform="translate(-827 334)"><g transform="translate(907 333) rotate(-90)"><path d="M2.5,0,5,3H0Z" fill="#eac895"/><rect width="1" height="12" transform="translate(2 3)" fill="#eac997"/></g><path d="M-5240-605v-10h1v9h44v-3h1v4Z" transform="translate(6154 946)" fill="#eac997"/></g><g transform="translate(83 647)"><g fill="none" stroke="#eac997" stroke-width="1"><circle cx="4.5" cy="4.5" r="4.5" stroke="none"/><circle cx="4.5" cy="4.5" r="4" fill="none"/></g><path d="M1.925,3.233.511,4.647-.2,3.939,1.218,2.526-.2,1.112.511.4,1.925,1.818,3.34.4l.707.707L2.633,2.525,4.046,3.939l-.707.707Z" transform="translate(1.974 6.425) rotate(-90)" fill="#eac896"/></g><g transform="translate(113 647)"><g fill="none" stroke="#eac997" stroke-width="1"><circle cx="4.5" cy="4.5" r="4.5" stroke="none"/><circle cx="4.5" cy="4.5" r="4" fill="none"/></g><path d="M1.925,3.233.511,4.647-.2,3.939,1.218,2.526-.2,1.112.511.4,1.925,1.818,3.34.4l.707.707L2.633,2.525,4.046,3.939l-.707.707Z" transform="translate(1.974 6.425) rotate(-90)" fill="#eac896"/></g><g transform="translate(85 640)"><path d="M2.5,0,5,3H0Z" fill="#eac895" opacity="0.5"/><rect width="1" height="3" transform="translate(2 3)" fill="#eac997" opacity="0.5"/></g><g transform="translate(115 640)"><path d="M2.5,0,5,3H0Z" fill="#eac895" opacity="0.5"/><rect width="1" height="3" transform="translate(2 3)" fill="#eac997" opacity="0.5"/></g></g></svg>