<svg xmlns="http://www.w3.org/2000/svg" xmlns:xlink="http://www.w3.org/1999/xlink" width="34" height="11.001" viewBox="0 0 34 11.001"><defs><linearGradient id="a" x1="0.5" x2="0.5" y2="1" gradientUnits="objectBoundingBox"><stop offset="0" stop-color="#787477"/><stop offset="1" stop-color="#716b6c"/></linearGradient></defs><g transform="translate(-586 2.842)"><g transform="translate(586 -2.841)"><g transform="translate(0.5 0.499)" stroke="#4e4752" stroke-width="0.5" fill="url(#a)"><rect width="33" height="10" rx="1" stroke="none"/><rect x="-0.25" y="-0.25" width="33.5" height="10.5" rx="1.25" fill="none"/></g><path d="M32.5,1.979H1.5A1.5,1.5,0,0,1,0,.479V.065A1.5,1.5,0,0,0,1.5,1.488h31A1.5,1.5,0,0,0,34,0V.479A1.5,1.5,0,0,1,32.5,1.979Z" transform="translate(0 9.021)" opacity="0.4"/><path d="M34,1.992h0A1.5,1.5,0,0,0,32.5.5H1.5A1.5,1.5,0,0,0,0,1.922L0,1.5A1.5,1.5,0,0,1,1.5,0h31A1.5,1.5,0,0,1,34,1.5Z" transform="translate(0 0)" fill="#fff" opacity="0.4"/><rect width="33" height="10" rx="1" transform="translate(0.5 0.5)" fill="#fff" opacity="0"/><path d="M-8.6-1.473A1.86,1.86,0,0,0-6.51.133c1.289,0,2.105-.66,2.105-1.7,0-.828-.469-1.281-1.637-1.574l-.59-.156c-.777-.2-1.086-.453-1.086-.895,0-.57.5-.945,1.246-.945a1.155,1.155,0,0,1,1.277.922h.707A1.793,1.793,0,0,0-6.447-5.77c-1.191,0-1.992.648-1.992,1.605,0,.8.441,1.262,1.461,1.52l.723.188c.777.2,1.129.5,1.129.98,0,.559-.559.969-1.316.969-.8,0-1.363-.375-1.449-.965Zm6.578.957c-.488,0-.852-.25-.852-.68s.281-.645.922-.687l1.133-.074v.387A1.108,1.108,0,0,1-2.025-.516Zm-.125.59a1.455,1.455,0,0,0,1.3-.7h.063V0H-.15V-2.883c0-.875-.574-1.4-1.6-1.4-.9,0-1.562.445-1.652,1.121h.68c.094-.332.445-.523.949-.523.629,0,.953.285.953.8V-2.5l-1.215.074c-.98.059-1.535.492-1.535,1.246A1.281,1.281,0,0,0-2.15.074ZM4.373-4.211H3.654L2.5-.742H2.439L1.287-4.211H.568L2.127,0h.688Zm2.422.52A1.133,1.133,0,0,1,7.924-2.453H5.6A1.2,1.2,0,0,1,6.795-3.691ZM7.9-1.09a1.091,1.091,0,0,1-1.086.57C6.1-.52,5.639-1.047,5.6-1.879V-1.91H8.631v-.258c0-1.309-.691-2.117-1.828-2.117A1.925,1.925,0,0,0,4.9-2.1C4.9-.77,5.635.074,6.8.074A1.683,1.683,0,0,0,8.576-1.09Z" transform="translate(17 8.5)" fill="#e4dcd9"/></g></g></svg>