<svg width="132" height="104" viewBox="0 0 132 104" fill="none" xmlns="http://www.w3.org/2000/svg">
<path fill-rule="evenodd" clip-rule="evenodd" d="M99.0067 25.9673L130.383 26C131.286 26.0009 132 25.2569 132 24.353V1.63183C132 0.727972 131.272 0.000322 130.369 0.000315L98.9998 0V26L99.0067 25.9673Z" fill="#0A090A"/>
<path fill-rule="evenodd" clip-rule="evenodd" d="M130.154 0.414188H99.4388V25.5264H130.154C130.944 25.5264 131.581 24.89 131.581 24.0994V1.84119C131.581 1.05063 130.944 0.414188 130.154 0.414188Z" fill="url(#paint0_linear_1_154)"/>
<path fill-rule="evenodd" clip-rule="evenodd" d="M130.305 0.423828C130.588 0.424005 131.113 0.65817 131.381 1.12109C131.626 1.54502 131.582 1.60938 131.582 2.55859C131.582 2.61197 131.224 1.41016 130.305 1.41016H99.4412V0.423828H130.305Z" fill="#959197"/>
<path fill-rule="evenodd" clip-rule="evenodd" d="M98.9929 25.9673L65.9998 26V0.000315L98.9998 0V26L98.9929 25.9673Z" fill="#0A090A"/>
<path fill-rule="evenodd" clip-rule="evenodd" d="M98.9998 0.414188V25.5264H66.4373V0.414188H98.9998Z" fill="url(#paint1_linear_1_154)"/>
<path fill-rule="evenodd" clip-rule="evenodd" d="M66.4334 0.433248V1.41419H98.9998V0.414188L66.4334 0.433248Z" fill="#959197"/>
<path fill-rule="evenodd" clip-rule="evenodd" d="M65.9929 25.9673L32.9998 26V0.000315L65.9998 0V26L65.9929 25.9673Z" fill="#0A090A"/>
<path fill-rule="evenodd" clip-rule="evenodd" d="M32.9929 25.9673L1.61727 26C0.713548 26.0009 -0.000183105 25.2569 -0.000183105 24.353V1.63183C-0.000183105 0.727972 0.72736 0.000322 1.63108 0.000315L32.9998 0V26L32.9929 25.9673Z" fill="#0A090A"/>
<path fill-rule="evenodd" clip-rule="evenodd" d="M1.84626 0.414188H32.5608V25.5264H1.84625C1.05569 25.5264 0.41925 24.89 0.41925 24.0994V1.84119C0.41925 1.05063 1.05569 0.414188 1.84625 0.414188H1.84626Z" fill="#413F40"/>
<path fill-rule="evenodd" clip-rule="evenodd" d="M114.672 16H115.41L113.332 10.363H112.632L110.559 16H111.3L111.866 14.387H114.105L114.672 16ZM112.953 11.273H113.016L113.9 13.789H112.07L112.953 11.273ZM116.352 16H117.352V10.117H116.352V16ZM118.367 16H119.367V10.117H118.367V16Z" fill="#E4DCD9"/>
<path fill-rule="evenodd" clip-rule="evenodd" d="M13.1118 10.23C11.5178 10.23 10.5218 11.367 10.5218 13.179C10.5218 14.991 11.4948 16.133 13.1118 16.133C14.7288 16.133 15.6898 14.98 15.6898 13.18C15.6898 11.38 14.7138 10.23 13.1118 10.23ZM13.1118 10.878C14.2638 10.878 14.9668 11.769 14.9668 13.178C14.9668 14.587 14.2668 15.478 13.1118 15.478C11.9398 15.478 11.2448 14.572 11.2448 13.178C11.2448 11.784 11.9638 10.879 13.1118 10.879V10.878ZM17.1008 16H17.7728V12.352H18.7408V11.79H17.7758V11.34C17.7758 10.879 17.9758 10.64 18.4638 10.64C18.5695 10.6376 18.6752 10.6443 18.7798 10.66V10.113C18.6304 10.0854 18.4787 10.0724 18.3268 10.074C17.9858 10.027 17.6426 10.1439 17.4011 10.3893C17.1596 10.6347 17.0483 10.9798 17.1008 11.32V11.789H16.4008V12.352H17.1008V16ZM20.0008 16H20.6708V12.352H21.6358V11.79H20.6708V11.34C20.6708 10.879 20.8708 10.64 21.3588 10.64C21.4645 10.6376 21.5702 10.6443 21.6748 10.66V10.113C21.5254 10.0854 21.3737 10.0724 21.2218 10.074C20.8816 10.0288 20.5399 10.1464 20.2996 10.3916C20.0594 10.6368 19.9487 10.9807 20.0008 11.32V11.789H19.3008V12.352H20.0008V16Z" fill="#FCE237"/>
<path fill-rule="evenodd" clip-rule="evenodd" d="M34.4773 0.414188H65.9998V25.5264H32.9998V0.414188H34.4773Z" fill="url(#paint2_linear_1_154)"/>
<path fill-rule="evenodd" clip-rule="evenodd" d="M40.4489 14.527C40.5805 15.5505 41.5202 16.2713 42.5429 16.133C43.8319 16.133 44.6479 15.473 44.6479 14.433C44.6479 13.605 44.1789 13.152 43.0109 12.859L42.4209 12.703C41.6439 12.503 41.3349 12.25 41.3349 11.808C41.3349 11.238 41.8349 10.863 42.5809 10.863C43.1826 10.7874 43.7403 11.1901 43.8579 11.785H44.5648C44.4408 10.8212 43.5717 10.1315 42.6049 10.23C41.4139 10.23 40.6129 10.878 40.6129 11.835C40.6129 12.635 41.0539 13.097 42.0739 13.355L42.7969 13.543C43.5739 13.743 43.9258 14.043 43.9258 14.523C43.9258 15.082 43.3669 15.492 42.6099 15.492C41.8099 15.492 41.2469 15.117 41.1609 14.527H40.4489ZM47.4099 12.308C48.0779 12.3074 48.6014 12.8819 48.5389 13.547H46.2189C46.1975 12.873 46.7356 12.3137 47.4099 12.309V12.308ZM48.5189 14.908C48.3081 15.3028 47.8774 15.5287 47.4328 15.478C46.7178 15.478 46.2528 14.951 46.2178 14.119V14.09H49.2458V13.832C49.2458 12.523 48.5549 11.715 47.4179 11.715C46.2552 11.7207 45.3628 12.7479 45.5199 13.9C45.5199 15.232 46.2498 16.076 47.4198 16.076C48.2115 16.1548 48.9504 15.6684 49.1909 14.91L48.5189 14.908ZM50.3008 16H50.9729V13.508C50.8987 12.8568 51.423 12.2931 52.0779 12.32C52.7499 12.32 53.0699 12.679 53.0699 13.437V16H53.7419V13.273C53.8633 12.4021 53.1463 11.6432 52.2699 11.715C51.7339 11.667 51.2262 11.9629 51.0039 12.453H50.9409V11.789H50.3008V16ZM56.5249 16.074C57.0776 16.0915 57.5956 15.8052 57.8749 15.328H57.9379V16H58.5788V10.117H57.9058V12.453H57.8479C57.5826 11.976 57.0702 11.6902 56.5249 11.715C55.4549 11.715 54.7549 12.574 54.7549 13.895C54.7549 15.216 55.4489 16.074 56.5249 16.074ZM56.6838 12.32C57.4448 12.32 57.9249 12.93 57.9249 13.895C57.9249 14.86 57.4488 15.469 56.6838 15.469C55.9188 15.469 55.4538 14.879 55.4538 13.895C55.4538 12.911 55.9178 12.32 56.6838 12.32Z" fill="#E4DCD9"/>
<path fill-rule="evenodd" clip-rule="evenodd" d="M32.9998 0.433248V1.41419H65.9998V0.414188L32.9998 0.433248Z" fill="#959197"/>
<path fill-rule="evenodd" clip-rule="evenodd" d="M72.0467 10.9516C72.1663 11.8822 73.0207 12.5374 73.9505 12.4117C75.1224 12.4117 75.8643 11.8117 75.8643 10.8661C75.8643 10.1134 75.4379 9.7015 74.376 9.43511L73.8396 9.29328C73.1331 9.11145 72.98 8.88143 72.98 8.47958C72.98 7.96135 73.4346 7.62041 74.1129 7.62041C74.6599 7.5517 75.167 7.91778 75.2739 8.45867H75.9167C75.8039 7.58277 75.0142 6.95592 74.1356 7.04491C73.0528 7.04491 72.3245 7.63405 72.3245 8.50412C72.3245 9.23146 72.5976 9.6515 73.525 9.88606L74.1823 10.057C74.8887 10.2388 75.2088 10.5116 75.2088 10.948C75.2088 11.4562 74.7005 11.829 74.0123 11.829C73.285 11.829 72.7731 11.488 72.6949 10.9516H72.0467ZM78.3754 8.93416C78.9827 8.93364 79.4587 9.45597 79.4019 10.0606H77.2926C77.2731 9.44784 77.7623 8.93936 78.3754 8.93507V8.93416ZM79.3837 11.2998C79.192 11.6587 78.8006 11.8642 78.3963 11.818C77.7472 11.818 77.3244 11.3389 77.2926 10.5825V10.5543H80.0446V10.3197C80.0446 9.12964 79.4164 8.39503 78.3827 8.39503C77.3252 8.39967 76.5133 9.33377 76.6562 10.3816C76.6562 11.5908 77.3208 12.3581 78.3836 12.3581C79.1036 12.4309 79.7761 11.9894 79.9956 11.2998H79.3837ZM81.0038 12.2908H81.6148V10.0252C81.5473 9.43315 82.0241 8.9206 82.6194 8.94507C83.2304 8.94507 83.5213 9.27146 83.5213 9.96062V12.2908H84.1323V9.81151C84.2427 9.01974 83.5907 8.32972 82.794 8.39502C82.3067 8.35134 81.845 8.62045 81.643 9.06599H81.5866V8.4623H81.0038V12.2908ZM86.6652 12.3581C87.1667 12.373 87.6364 12.1129 87.8899 11.6799H87.9471V12.2908H88.5299V6.94217H87.919V9.06599H87.8653C87.6245 8.63321 87.16 8.3735 86.6652 8.39502C85.6924 8.39502 85.056 9.176 85.056 10.377C85.056 11.578 85.6842 12.3581 86.6652 12.3581ZM86.807 8.94507C87.4998 8.94507 87.9326 9.49876 87.9326 10.3761C87.9326 11.2535 87.5026 11.8081 86.807 11.8081C86.1115 11.8081 85.6888 11.2716 85.6888 10.377C85.6888 9.48239 86.1115 8.94507 86.807 8.94507Z" fill="#E4DCD9"/>
<path fill-rule="evenodd" clip-rule="evenodd" d="M91.8226 9.78004C91.6496 9.91129 91.4564 10.0667 91.3841 10.2179C91.3119 10.3663 91.2757 10.5246 91.2757 10.6928C91.2757 10.8297 91.2977 10.9538 91.3417 11.0651C91.3888 11.1763 91.4549 11.2718 91.5398 11.3517C91.6246 11.4316 91.7252 11.4943 91.8416 11.54C91.961 11.5828 92.093 11.6042 92.2377 11.6042C92.4484 11.6042 92.5319 11.6059 92.7143 11.5575C92.8967 11.5061 93.1292 11.3305 93.2863 11.2393L91.8226 9.78004ZM95.3893 12.1931H94.6991C94.6454 12.1931 94.5975 12.1907 94.5555 12.1861C94.5135 12.1791 94.4738 12.1685 94.4364 12.1543C94.4014 12.1402 94.3675 12.1201 94.3349 12.0942C94.3022 12.0683 94.2672 12.0352 94.2298 11.9952L93.8397 11.6334C93.6179 11.789 93.1631 12.0376 92.8994 12.1225C92.6378 12.2074 92.3589 12.2498 92.0623 12.2498C91.8592 12.2498 91.6596 12.2144 91.4635 12.1437C91.2697 12.073 91.0969 11.9728 90.9452 11.8431C90.7934 11.711 90.6709 11.5519 90.5775 11.3656C90.484 11.1793 90.4374 10.9706 90.4374 10.7396C90.4374 10.5839 90.4607 10.4365 90.5074 10.2975C90.5564 10.1584 90.6241 10.0298 90.7105 9.91196C90.7992 9.79171 90.9031 9.68322 91.0222 9.58658C91.1413 9.48755 91.2732 9.40149 91.4179 9.3284C91.3059 9.15627 91.2253 8.9877 91.1763 8.82265C91.1273 8.6576 91.1027 8.49727 91.1027 8.34165C91.1027 8.15774 91.1354 7.98444 91.2008 7.82175C91.2685 7.6567 91.3654 7.51288 91.4915 7.39027C91.6199 7.26531 91.7763 7.16628 91.9608 7.09319C92.1475 7.02009 92.3611 6.98355 92.6017 6.98355C92.8282 6.98355 93.0278 7.01774 93.2005 7.08612C93.3733 7.15214 93.5192 7.24056 93.6383 7.35137C93.7573 7.45983 93.8508 7.58597 93.9184 7.7298C93.9861 7.87363 94.0281 8.02099 94.0445 8.17189L93.6266 8.26079C93.4462 8.30243 93.3134 8.22956 93.2283 8.04216C93.15 7.86169 93.0581 7.72462 92.9525 7.63092C92.8503 7.53722 92.7141 7.49037 92.5439 7.49037C92.4248 7.49037 92.3208 7.51292 92.2324 7.55804C92.1439 7.60316 92.0689 7.66215 92.0076 7.73503C91.9498 7.80791 91.9055 7.89293 91.8748 7.9901C91.8442 8.08727 91.8289 8.18791 91.8289 8.29202C91.8289 8.38225 91.8353 8.46901 91.8493 8.5523C91.8663 8.63212 91.8936 8.7154 91.9311 8.80217C91.9685 8.88546 92.0111 8.98058 92.084 9.07218C92.1609 9.16378 92.2238 9.25157 92.3192 9.35916L93.8355 10.8137C93.9422 10.6324 93.9869 10.6558 94.054 10.456C94.1212 10.2532 94.1365 10.1313 94.1562 9.91928C94.168 9.83322 94.1631 9.68003 94.2265 9.63086C94.2898 9.58168 94.3737 9.5617 94.4815 9.55709L94.8148 9.54284C94.8148 9.88475 94.6986 10.2767 94.6076 10.5761C94.5165 10.8756 94.4022 10.9637 94.2365 11.2112L95.3893 12.1931Z" fill="#E4DCD9"/>
<path fill-rule="evenodd" clip-rule="evenodd" d="M76.8547 17.8026C76.8547 18.4528 76.6502 18.9763 76.2411 19.3732C75.832 19.7677 75.2902 19.965 74.6157 19.965C73.8876 19.965 73.3069 19.7154 72.8734 19.2162C72.4424 18.717 72.2269 18.0461 72.2269 17.2036C72.2269 16.3708 72.4449 15.7036 72.8807 15.202C73.3166 14.6979 73.8949 14.4459 74.6157 14.4459C75.2001 14.4459 75.6896 14.5981 76.084 14.9025C76.4809 15.2069 76.7269 15.6196 76.8218 16.1407H76.1534C76.039 15.7852 75.8515 15.5149 75.5909 15.3298C75.3304 15.1448 75.0053 15.0522 74.6157 15.0522C74.0946 15.0522 73.6782 15.247 73.3665 15.6367C73.0573 16.0263 72.9026 16.5486 72.9026 17.2036C72.9026 17.8684 73.0561 18.3943 73.3629 18.7815C73.6721 19.1663 74.0909 19.3586 74.6194 19.3586C75.0917 19.3586 75.4728 19.221 75.7626 18.9459C76.0548 18.6707 76.2009 18.3103 76.2009 17.8647V17.7369H74.718V17.1598H76.8547V17.8026Z" fill="#E4DCD9"/>
<path fill-rule="evenodd" clip-rule="evenodd" d="M77.9724 19.8408V14.34H78.9724V19.8408H77.9724Z" fill="#E4DCD9"/>
<path fill-rule="evenodd" clip-rule="evenodd" d="M82.7646 19.3659C82.4407 19.7287 81.9988 19.9102 81.4387 19.9102C80.8787 19.9102 80.4355 19.7287 80.1092 19.3659C79.7853 19.0007 79.6234 18.5027 79.6234 17.872C79.6234 17.2389 79.7853 16.7409 80.1092 16.3781C80.433 16.0153 80.8762 15.8339 81.4387 15.8339C82.0012 15.8339 82.4444 16.0153 82.7682 16.3781C83.0921 16.7409 83.254 17.2389 83.254 17.872C83.254 18.5027 83.0909 19.0007 82.7646 19.3659ZM80.5767 18.9605C80.7788 19.2162 81.0662 19.344 81.4387 19.344C81.8113 19.344 82.0986 19.2162 82.3007 18.9605C82.5028 18.7024 82.6038 18.3395 82.6038 17.872C82.6038 17.4045 82.5028 17.0429 82.3007 16.7872C82.0986 16.5291 81.8113 16.4 81.4387 16.4C81.0662 16.4 80.7788 16.5291 80.5767 16.7872C80.3746 17.0429 80.2735 17.4045 80.2735 17.872C80.2735 18.3395 80.3746 18.7024 80.5767 18.9605Z" fill="#E4DCD9"/>
<path fill-rule="evenodd" clip-rule="evenodd" d="M86.198 19.9102C85.9252 19.9102 85.6769 19.8493 85.4528 19.7275C85.2313 19.6033 85.0584 19.4317 84.9342 19.2125H84.8757V19.8408H84.2767V14.34H84.905V16.5242H84.9634C85.0705 16.3124 85.2349 16.1444 85.4565 16.0202C85.6805 15.896 85.9277 15.8339 86.198 15.8339C86.6996 15.8339 87.1001 16.019 87.3997 16.3891C87.6992 16.7592 87.8489 17.2535 87.8489 17.872C87.8489 18.4881 87.6979 18.9824 87.396 19.355C87.0965 19.7251 86.6971 19.9102 86.198 19.9102ZM86.0519 16.4C85.6939 16.4 85.4102 16.5315 85.2008 16.7945C84.9938 17.0575 84.8904 17.4167 84.8904 17.872C84.8904 18.3274 84.9938 18.6866 85.2008 18.9495C85.4102 19.2125 85.6939 19.344 86.0519 19.344C86.4122 19.344 86.6935 19.2137 86.8956 18.9532C87.0977 18.6926 87.1988 18.3323 87.1988 17.872C87.1988 17.4118 87.0977 17.0514 86.8956 16.7909C86.6935 16.5303 86.4122 16.4001 86.0519 16.4001V16.4Z" fill="#E4DCD9"/>
<path fill-rule="evenodd" clip-rule="evenodd" d="M90.0478 19.3586C90.3716 19.3586 90.6395 19.2649 90.8513 19.0774C91.0656 18.8899 91.1728 18.6549 91.1728 18.3724V18.0108L90.1135 18.0802C89.8164 18.0997 89.5985 18.1618 89.4597 18.2665C89.3209 18.3712 89.2515 18.5234 89.2515 18.7231C89.2515 18.9203 89.3258 19.0762 89.4743 19.1906C89.6229 19.3026 89.814 19.3586 90.0478 19.3586ZM89.9309 19.9102C89.5437 19.9102 89.2247 19.8042 88.9739 19.5924C88.7256 19.3781 88.6014 19.0932 88.6014 18.7377C88.6014 18.387 88.7256 18.1119 88.9739 17.9122C89.2223 17.7125 89.5766 17.5993 90.0368 17.5725L91.1728 17.5031V17.1452C91.1728 16.9017 91.0973 16.7154 90.9463 16.5863C90.7953 16.4573 90.5737 16.3927 90.2815 16.3927C90.0453 16.3927 89.8493 16.4353 89.6935 16.5206C89.5376 16.6058 89.4378 16.7263 89.394 16.8822H88.7584C88.7998 16.5681 88.9617 16.3148 89.2442 16.1224C89.5291 15.9301 89.8822 15.8339 90.3034 15.8339C90.7807 15.8339 91.1496 15.9495 91.4102 16.1809C91.6707 16.4122 91.801 16.7336 91.801 17.1452V19.8407H91.202V19.26H91.1435C91.0169 19.4694 90.8489 19.6301 90.6395 19.7421C90.4301 19.8541 90.1939 19.9101 89.9309 19.9101V19.9102Z" fill="#E4DCD9"/>
<path fill-rule="evenodd" clip-rule="evenodd" d="M92.999 19.8408V14.34H93.999V19.8408H92.999Z" fill="#E4DCD9"/>
<path fill-rule="evenodd" clip-rule="evenodd" d="M99.0067 51.9673L130.383 52C131.286 52.0009 132 51.2569 132 50.353V27.6318C132 26.728 131.272 26.0003 130.369 26.0003L98.9998 26V52L99.0067 51.9673Z" fill="#0A090A"/>
<path fill-rule="evenodd" clip-rule="evenodd" d="M130.154 26.4142H99.4388V51.5264H130.154C130.944 51.5264 131.581 50.89 131.581 50.0994V27.8412C131.581 27.0506 130.944 26.4142 130.154 26.4142Z" fill="url(#paint3_linear_1_154)"/>
<path fill-rule="evenodd" clip-rule="evenodd" d="M130.305 26.4142C130.588 26.4144 131.113 26.6485 131.381 27.1115C131.626 27.5354 131.582 27.5997 131.582 28.549C131.582 28.6023 131.224 27.4005 130.305 27.4005H99.4412V26.4142H130.305Z" fill="#959197"/>
<path fill-rule="evenodd" clip-rule="evenodd" d="M98.9929 51.9673L65.9998 52V26.0003L98.9998 26V52L98.9929 51.9673Z" fill="#0A090A"/>
<path fill-rule="evenodd" clip-rule="evenodd" d="M98.9998 26.4142V51.5264H66.4373V26.4142H98.9998Z" fill="url(#paint4_linear_1_154)"/>
<path fill-rule="evenodd" clip-rule="evenodd" d="M66.4334 26.4332V27.4142H98.9998V26.4142L66.4334 26.4332Z" fill="#959197"/>
<path fill-rule="evenodd" clip-rule="evenodd" d="M65.9929 51.9673L32.9998 52V26.0003L65.9998 26V52L65.9929 51.9673Z" fill="#0A090A"/>
<path fill-rule="evenodd" clip-rule="evenodd" d="M34.4773 26.4142H65.9998V51.5264H32.9998V26.4142H34.4773Z" fill="#413F40"/>
<path fill-rule="evenodd" clip-rule="evenodd" d="M32.9929 51.9673L1.61727 52C0.713548 52.0009 -0.000183105 51.2569 -0.000183105 50.353V27.6318C-0.000183105 26.728 0.72736 26.0003 1.63108 26.0003L32.9998 26V52L32.9929 51.9673Z" fill="#0A090A"/>
<path fill-rule="evenodd" clip-rule="evenodd" d="M1.84626 26.4142H32.5608V51.5264H1.84625C1.05569 51.5264 0.41925 50.89 0.41925 50.0994V27.8412C0.41925 27.0506 1.05569 26.4142 1.84625 26.4142H1.84626Z" fill="url(#paint5_linear_1_154)"/>
<path fill-rule="evenodd" clip-rule="evenodd" d="M114.672 42H115.41L113.332 36.363H112.632L110.559 42H111.3L111.866 40.387H114.105L114.672 42ZM112.953 37.273H113.016L113.9 39.789H112.07L112.953 37.273ZM116.352 42H117.352V36.117H116.352V42ZM118.367 42H119.367V36.117H118.367V42Z" fill="#E4DCD9"/>
<path fill-rule="evenodd" clip-rule="evenodd" d="M13.1118 36.23C11.5178 36.23 10.5218 37.367 10.5218 39.179C10.5218 40.991 11.4948 42.133 13.1118 42.133C14.7288 42.133 15.6898 40.98 15.6898 39.18C15.6898 37.38 14.7138 36.23 13.1118 36.23ZM13.1118 36.878C14.2638 36.878 14.9668 37.769 14.9668 39.178C14.9668 40.587 14.2668 41.478 13.1118 41.478C11.9398 41.478 11.2448 40.572 11.2448 39.178C11.2448 37.784 11.9638 36.879 13.1118 36.879V36.878ZM17.1008 42H17.7728V38.352H18.7408V37.79H17.7758V37.34C17.7758 36.879 17.9758 36.64 18.4638 36.64C18.5695 36.6376 18.6752 36.6443 18.7798 36.66V36.113C18.6304 36.0854 18.4787 36.0724 18.3268 36.074C17.9858 36.027 17.6426 36.1439 17.4011 36.3893C17.1596 36.6347 17.0483 36.9798 17.1008 37.32V37.789H16.4008V38.352H17.1008V42ZM20.0008 42H20.6708V38.352H21.6358V37.79H20.6708V37.34C20.6708 36.879 20.8708 36.64 21.3588 36.64C21.4645 36.6376 21.5702 36.6443 21.6748 36.66V36.113C21.5254 36.0854 21.3737 36.0724 21.2218 36.074C20.8816 36.0288 20.5399 36.1464 20.2996 36.3916C20.0594 36.6367 19.9487 36.9807 20.0008 37.32V37.789H19.3008V38.352H20.0008V42Z" fill="#E4DCD9"/>
<path fill-rule="evenodd" clip-rule="evenodd" d="M40.4489 40.527C40.5805 41.5505 41.5202 42.2713 42.5429 42.133C43.8319 42.133 44.6479 41.473 44.6479 40.433C44.6479 39.605 44.1789 39.152 43.0109 38.859L42.4209 38.703C41.6439 38.503 41.3349 38.25 41.3349 37.808C41.3349 37.238 41.8349 36.863 42.5809 36.863C43.1826 36.7874 43.7403 37.1901 43.8579 37.785H44.5648C44.4408 36.8212 43.5717 36.1315 42.6049 36.23C41.4139 36.23 40.6129 36.878 40.6129 37.835C40.6129 38.635 41.0539 39.097 42.0739 39.355L42.7969 39.543C43.5739 39.743 43.9258 40.043 43.9258 40.523C43.9258 41.082 43.3669 41.492 42.6099 41.492C41.8099 41.492 41.2469 41.117 41.1609 40.527H40.4489ZM47.4099 38.308C48.0779 38.3074 48.6014 38.8819 48.5389 39.547H46.2189C46.1975 38.873 46.7356 38.3137 47.4099 38.309V38.308ZM48.5189 40.908C48.3081 41.3028 47.8774 41.5287 47.4328 41.478C46.7178 41.478 46.2528 40.951 46.2178 40.119V40.09H49.2458V39.832C49.2458 38.523 48.5549 37.715 47.4179 37.715C46.2552 37.7207 45.3628 38.7479 45.5199 39.9C45.5199 41.232 46.2498 42.076 47.4198 42.076C48.2115 42.1548 48.9504 41.6684 49.1909 40.91L48.5189 40.908ZM50.3008 42H50.9729V39.508C50.8987 38.8568 51.423 38.2931 52.0779 38.32C52.7499 38.32 53.0699 38.679 53.0699 39.437V42H53.7419V39.273C53.8633 38.4021 53.1463 37.6432 52.2699 37.715C51.7339 37.667 51.2262 37.9629 51.0039 38.453H50.9409V37.789H50.3008V42ZM56.5249 42.074C57.0776 42.0915 57.5956 41.8052 57.8749 41.328H57.9379V42H58.5788V36.117H57.9058V38.453H57.8479C57.5826 37.976 57.0702 37.6902 56.5249 37.715C55.4549 37.715 54.7549 38.574 54.7549 39.895C54.7549 41.216 55.4489 42.074 56.5249 42.074ZM56.6838 38.32C57.4448 38.32 57.9249 38.93 57.9249 39.895C57.9249 40.86 57.4488 41.469 56.6838 41.469C55.9188 41.469 55.4538 40.879 55.4538 39.895C55.4538 38.911 55.9178 38.32 56.6838 38.32Z" fill="#FCE237"/>
<path fill-rule="evenodd" clip-rule="evenodd" d="M72.0466 36.9514C72.1663 37.882 73.0207 38.5373 73.9504 38.4116C75.1224 38.4116 75.8642 37.8115 75.8642 36.866C75.8642 36.1132 75.4378 35.7013 74.3759 35.4349L73.8395 35.2931C73.1331 35.1113 72.98 34.8813 72.98 34.4794C72.98 33.9612 73.4346 33.6202 74.1128 33.6202C74.6599 33.5515 75.1669 33.9176 75.2739 34.4585H75.9166C75.8039 33.5826 75.0142 32.9557 74.1356 33.0447C73.0528 33.0447 72.3245 33.6339 72.3245 34.504C72.3245 35.2313 72.5976 35.6513 73.525 35.8859L74.1823 36.0568C74.8887 36.2387 75.2087 36.5114 75.2087 36.9478C75.2087 37.456 74.7005 37.8288 74.0123 37.8288C73.2849 37.8288 72.7731 37.4879 72.6949 36.9514H72.0466ZM78.3754 34.934C78.9827 34.9335 79.4586 35.4558 79.4018 36.0605H77.2925C77.2731 35.4477 77.7623 34.9392 78.3754 34.9349V34.934ZM79.3836 37.2997C79.192 37.6586 78.8005 37.864 78.3963 37.8179C77.7471 37.8179 77.3244 37.3388 77.2925 36.5823V36.5541H80.0446V36.3196C80.0446 35.1295 79.4164 34.3949 78.3826 34.3949C77.3252 34.3995 76.5133 35.3336 76.6561 36.3814C76.6561 37.5906 77.3207 38.3579 78.3835 38.3579C79.1035 38.4307 79.776 37.9892 79.9955 37.2997H79.3836ZM81.0038 38.2907H81.6147V36.025C81.5473 35.433 82.024 34.9204 82.6193 34.9449C83.2303 34.9449 83.5212 35.2713 83.5212 35.9604V38.2907H84.1322V35.8113C84.2426 35.0196 83.5906 34.3296 82.7939 34.3949C82.3066 34.3512 81.845 34.6203 81.6429 35.0658H81.5866V34.4621H81.0038V38.2907ZM86.6651 38.3579C87.1667 38.3728 87.6363 38.1127 87.8898 37.6797H87.9471V38.2907H88.5299V32.942H87.9189V35.0658H87.8652C87.6245 34.633 87.1599 34.3733 86.6651 34.3949C85.6923 34.3949 85.0559 35.1758 85.0559 36.3768C85.0559 37.5779 85.6842 38.3579 86.6651 38.3579ZM86.807 34.9449C87.4998 34.9449 87.9325 35.4986 87.9325 36.3759C87.9325 37.2533 87.5025 37.8079 86.807 37.8079C86.1115 37.8079 85.6887 37.2715 85.6887 36.3768C85.6887 35.4822 86.1114 34.9449 86.807 34.9449Z" fill="#E4DCD9"/>
<path fill-rule="evenodd" clip-rule="evenodd" d="M91.8226 35.7799C91.6497 35.9111 91.4564 36.0666 91.3842 36.2177C91.3119 36.3661 91.2757 36.5244 91.2757 36.6926C91.2757 36.8296 91.2978 36.9536 91.3417 37.0649C91.3889 37.1761 91.4549 37.2717 91.5398 37.3516C91.6247 37.4315 91.7252 37.4941 91.8416 37.5398C91.961 37.5826 92.0931 37.604 92.2377 37.604C92.4484 37.604 92.532 37.6057 92.7143 37.5573C92.8967 37.506 93.1292 37.3304 93.2864 37.2391L91.8226 35.7799ZM95.3894 38.193H94.6991C94.6454 38.193 94.5975 38.1906 94.5555 38.186C94.5135 38.179 94.4738 38.1683 94.4364 38.1542C94.4014 38.14 94.3675 38.1199 94.3349 38.094C94.3022 38.0681 94.2672 38.035 94.2298 37.995L93.8397 37.6332C93.6179 37.7888 93.1632 38.0374 92.8994 38.1223C92.6379 38.2072 92.3589 38.2496 92.0624 38.2496C91.8593 38.2496 91.6596 38.2143 91.4635 38.1435C91.2698 38.0728 91.0969 37.9726 90.9452 37.8429C90.7935 37.7109 90.6709 37.5517 90.5775 37.3654C90.4841 37.1791 90.4374 36.9704 90.4374 36.7394C90.4374 36.5838 90.4608 36.4364 90.5074 36.2973C90.5565 36.1582 90.6241 36.0297 90.7106 35.9118C90.7992 35.7915 90.9032 35.6831 91.0222 35.5864C91.1413 35.4874 91.2733 35.4013 91.418 35.3282C91.3059 35.1561 91.2254 34.9875 91.1763 34.8225C91.1273 34.6574 91.1028 34.4971 91.1028 34.3415C91.1028 34.1576 91.1354 33.9843 91.2008 33.8216C91.2685 33.6565 91.3654 33.5127 91.4915 33.3901C91.62 33.2651 91.7763 33.1661 91.9608 33.093C92.1476 33.0199 92.3612 32.9834 92.6017 32.9834C92.8282 32.9834 93.0278 33.0176 93.2006 33.0859C93.3733 33.152 93.5192 33.2404 93.6383 33.3512C93.7574 33.4597 93.8508 33.5858 93.9185 33.7296C93.9862 33.8735 94.0282 34.0208 94.0446 34.1717L93.6266 34.2606C93.4462 34.3023 93.3134 34.2294 93.2283 34.042C93.15 33.8615 93.0581 33.7245 92.9525 33.6308C92.8504 33.5371 92.7141 33.4902 92.5439 33.4902C92.4248 33.4902 92.3209 33.5128 92.2324 33.5579C92.1439 33.603 92.069 33.662 92.0077 33.7349C91.9498 33.8077 91.9055 33.8928 91.8749 33.9899C91.8443 34.0871 91.8289 34.1877 91.8289 34.2919C91.8289 34.3821 91.8353 34.4688 91.8494 34.5521C91.8664 34.632 91.8937 34.7152 91.9311 34.802C91.9685 34.8853 92.0112 34.9804 92.084 35.072C92.1609 35.1636 92.2238 35.2514 92.3192 35.359L93.8355 36.8135C93.9422 36.6322 93.9869 36.6556 94.054 36.4559C94.1212 36.253 94.1365 36.1312 94.1563 35.9191C94.168 35.833 94.1632 35.6799 94.2265 35.6307C94.2899 35.5815 94.3738 35.5615 94.4815 35.5569L94.8148 35.5427C94.8148 35.8846 94.6987 36.2765 94.6076 36.576C94.5166 36.8755 94.4023 36.9635 94.2365 37.2111L95.3894 38.193Z" fill="#E4DCD9"/>
<path fill-rule="evenodd" clip-rule="evenodd" d="M76.8547 43.8029C76.8547 44.4531 76.6502 44.9766 76.2411 45.3735C75.832 45.768 75.2902 45.9653 74.6157 45.9653C73.8876 45.9653 73.3069 45.7157 72.8734 45.2165C72.4424 44.7173 72.2269 44.0464 72.2269 43.2039C72.2269 42.3711 72.4449 41.7039 72.8807 41.2023C73.3166 40.6982 73.8949 40.4462 74.6157 40.4462C75.2001 40.4462 75.6896 40.5984 76.084 40.9028C76.4809 41.2072 76.7269 41.6199 76.8218 42.141H76.1534C76.039 41.7855 75.8515 41.5152 75.5909 41.3301C75.3304 41.1451 75.0053 41.0525 74.6157 41.0525C74.0946 41.0525 73.6782 41.2474 73.3665 41.637C73.0573 42.0266 72.9026 42.5489 72.9026 43.2039C72.9026 43.8687 73.0561 44.3946 73.3629 44.7818C73.6721 45.1666 74.0909 45.3589 74.6194 45.3589C75.0917 45.3589 75.4728 45.2213 75.7626 44.9462C76.0548 44.671 76.2009 44.3106 76.2009 43.865V43.7372H74.718V43.1601H76.8547V43.8029Z" fill="#E4DCD9"/>
<path fill-rule="evenodd" clip-rule="evenodd" d="M77.9724 45.8411V40.3403H78.9724V45.8411H77.9724Z" fill="#E4DCD9"/>
<path fill-rule="evenodd" clip-rule="evenodd" d="M82.7646 45.3662C82.4407 45.7291 81.9988 45.9105 81.4387 45.9105C80.8787 45.9105 80.4355 45.7291 80.1092 45.3662C79.7853 45.001 79.6234 44.503 79.6234 43.8723C79.6234 43.2392 79.7853 42.7413 80.1092 42.3784C80.433 42.0156 80.8762 41.8342 81.4387 41.8342C82.0012 41.8342 82.4444 42.0156 82.7682 42.3784C83.0921 42.7413 83.254 43.2392 83.254 43.8723C83.254 44.503 83.0909 45.001 82.7646 45.3662ZM80.5767 44.9608C80.7788 45.2165 81.0662 45.3443 81.4387 45.3443C81.8113 45.3443 82.0986 45.2165 82.3007 44.9608C82.5028 44.7027 82.6038 44.3399 82.6038 43.8723C82.6038 43.4048 82.5028 43.0432 82.3007 42.7875C82.0986 42.5294 81.8113 42.4003 81.4387 42.4003C81.0662 42.4003 80.7788 42.5294 80.5767 42.7875C80.3746 43.0432 80.2735 43.4048 80.2735 43.8723C80.2735 44.3399 80.3746 44.7027 80.5767 44.9608Z" fill="#E4DCD9"/>
<path fill-rule="evenodd" clip-rule="evenodd" d="M86.198 45.9105C85.9252 45.9105 85.6769 45.8496 85.4528 45.7278C85.2313 45.6036 85.0584 45.432 84.9342 45.2128H84.8757V45.8411H84.2767V40.3403H84.905V42.5245H84.9634C85.0705 42.3127 85.2349 42.1447 85.4565 42.0205C85.6805 41.8963 85.9277 41.8342 86.198 41.8342C86.6996 41.8342 87.1001 42.0193 87.3997 42.3894C87.6992 42.7595 87.8489 43.2538 87.8489 43.8723C87.8489 44.4884 87.6979 44.9827 87.396 45.3553C87.0965 45.7254 86.6971 45.9105 86.198 45.9105ZM86.0519 42.4003C85.6939 42.4003 85.4102 42.5318 85.2008 42.7948C84.9938 43.0578 84.8904 43.417 84.8904 43.8723C84.8904 44.3277 84.9938 44.6869 85.2008 44.9498C85.4102 45.2128 85.6939 45.3443 86.0519 45.3443C86.4122 45.3443 86.6935 45.214 86.8956 44.9535C87.0977 44.6929 87.1988 44.3326 87.1988 43.8723C87.1988 43.4121 87.0977 43.0517 86.8956 42.7912C86.6935 42.5306 86.4122 42.4004 86.0519 42.4004V42.4003Z" fill="#E4DCD9"/>
<path fill-rule="evenodd" clip-rule="evenodd" d="M90.0478 45.3589C90.3716 45.3589 90.6395 45.2652 90.8513 45.0777C91.0656 44.8902 91.1728 44.6552 91.1728 44.3727V44.0111L90.1135 44.0805C89.8164 44.1 89.5985 44.1621 89.4597 44.2668C89.3209 44.3715 89.2515 44.5237 89.2515 44.7234C89.2515 44.9206 89.3258 45.0765 89.4743 45.1909C89.6229 45.3029 89.814 45.3589 90.0478 45.3589ZM89.9309 45.9105C89.5437 45.9105 89.2247 45.8045 88.9739 45.5927C88.7256 45.3784 88.6014 45.0935 88.6014 44.738C88.6014 44.3873 88.7256 44.1122 88.9739 43.9125C89.2223 43.7128 89.5766 43.5996 90.0368 43.5728L91.1728 43.5034V43.1455C91.1728 42.902 91.0973 42.7157 90.9463 42.5866C90.7953 42.4576 90.5737 42.393 90.2815 42.393C90.0453 42.393 89.8493 42.4356 89.6935 42.5209C89.5376 42.6061 89.4378 42.7266 89.394 42.8825H88.7584C88.7998 42.5684 88.9617 42.3151 89.2442 42.1227C89.5291 41.9304 89.8822 41.8342 90.3034 41.8342C90.7807 41.8342 91.1496 41.9499 91.4102 42.1812C91.6707 42.4125 91.801 42.7339 91.801 43.1455V45.8411H91.202V45.2603H91.1435C91.0169 45.4697 90.8489 45.6304 90.6395 45.7424C90.4301 45.8545 90.1939 45.9105 89.9309 45.9105V45.9105Z" fill="#E4DCD9"/>
<path fill-rule="evenodd" clip-rule="evenodd" d="M92.999 45.8411V40.3403H93.999V45.8411H92.999Z" fill="#E4DCD9"/>
<path fill-rule="evenodd" clip-rule="evenodd" d="M1.68676 26.4142C1.40376 26.4144 0.878756 26.6485 0.610756 27.1115C0.36533 27.5354 0.409729 27.5997 0.409729 28.549C0.409729 28.6023 0.767759 27.4005 1.68676 27.4005H32.5504V26.4142H1.68676Z" fill="#959197"/>
<path fill-rule="evenodd" clip-rule="evenodd" d="M99.0067 77.9673L130.383 78C131.286 78.0009 132 77.2569 132 76.353V53.6318C132 52.728 131.272 52.0003 130.369 52.0003L98.9998 52V78L99.0067 77.9673Z" fill="#0A090A"/>
<path fill-rule="evenodd" clip-rule="evenodd" d="M130.154 52.4142H99.4388V77.5264H130.154C130.944 77.5264 131.581 76.89 131.581 76.0994V53.8412C131.581 53.0506 130.944 52.4142 130.154 52.4142Z" fill="url(#paint6_linear_1_154)"/>
<path fill-rule="evenodd" clip-rule="evenodd" d="M130.305 52.4142C130.588 52.4144 131.113 52.6485 131.381 53.1115C131.626 53.5354 131.582 53.5997 131.582 54.549C131.582 54.6023 131.224 53.4005 130.305 53.4005H99.4412V52.4142H130.305Z" fill="#959197"/>
<path fill-rule="evenodd" clip-rule="evenodd" d="M98.9929 77.9673L65.9998 78V52.0003L98.9998 52V78L98.9929 77.9673Z" fill="#0A090A"/>
<path fill-rule="evenodd" clip-rule="evenodd" d="M98.9998 52.4142V77.5264H66.4373V52.4142H98.9998Z" fill="#413F40"/>
<path fill-rule="evenodd" clip-rule="evenodd" d="M65.9929 77.9673L32.9998 78V52.0003L65.9998 52V78L65.9929 77.9673Z" fill="#0A090A"/>
<path fill-rule="evenodd" clip-rule="evenodd" d="M34.4773 52.4142H65.9998V77.5264H32.9998V52.4142H34.4773Z" fill="url(#paint7_linear_1_154)"/>
<path fill-rule="evenodd" clip-rule="evenodd" d="M32.9998 52.4333V53.4142H65.9998V52.4142L32.9998 52.4333Z" fill="#959197"/>
<path fill-rule="evenodd" clip-rule="evenodd" d="M32.9929 77.9673L1.61727 78C0.713548 78.0009 -0.000183105 77.2569 -0.000183105 76.353V53.6318C-0.000183105 52.728 0.72736 52.0003 1.63108 52.0003L32.9998 52V78L32.9929 77.9673Z" fill="#0A090A"/>
<path fill-rule="evenodd" clip-rule="evenodd" d="M1.84626 52.4142H32.5608V77.5264H1.84625C1.05569 77.5264 0.41925 76.89 0.41925 76.0994V53.8412C0.41925 53.0506 1.05569 52.4142 1.84625 52.4142H1.84626Z" fill="url(#paint8_linear_1_154)"/>
<path fill-rule="evenodd" clip-rule="evenodd" d="M114.672 68H115.41L113.332 62.363H112.632L110.559 68H111.3L111.866 66.387H114.105L114.672 68ZM112.953 63.273H113.016L113.9 65.789H112.07L112.953 63.273ZM116.352 68H117.352V62.117H116.352V68ZM118.367 68H119.367V62.117H118.367V68Z" fill="#E4DCD9"/>
<path fill-rule="evenodd" clip-rule="evenodd" d="M13.1118 62.23C11.5178 62.23 10.5218 63.367 10.5218 65.179C10.5218 66.991 11.4948 68.133 13.1118 68.133C14.7288 68.133 15.6898 66.98 15.6898 65.18C15.6898 63.38 14.7138 62.23 13.1118 62.23ZM13.1118 62.878C14.2638 62.878 14.9668 63.769 14.9668 65.178C14.9668 66.587 14.2668 67.478 13.1118 67.478C11.9398 67.478 11.2448 66.572 11.2448 65.178C11.2448 63.784 11.9638 62.879 13.1118 62.879V62.878ZM17.1008 68H17.7728V64.352H18.7408V63.79H17.7758V63.34C17.7758 62.879 17.9758 62.64 18.4638 62.64C18.5695 62.6376 18.6752 62.6443 18.7798 62.66V62.113C18.6304 62.0854 18.4787 62.0724 18.3268 62.074C17.9858 62.027 17.6426 62.1439 17.4011 62.3893C17.1596 62.6347 17.0483 62.9798 17.1008 63.32V63.789H16.4008V64.352H17.1008V68ZM20.0008 68H20.6708V64.352H21.6358V63.79H20.6708V63.34C20.6708 62.879 20.8708 62.64 21.3588 62.64C21.4645 62.6376 21.5702 62.6443 21.6748 62.66V62.113C21.5254 62.0854 21.3737 62.0724 21.2218 62.074C20.8816 62.0288 20.5399 62.1464 20.2996 62.3916C20.0594 62.6367 19.9487 62.9807 20.0008 63.32V63.789H19.3008V64.352H20.0008V68Z" fill="#E4DCD9"/>
<path fill-rule="evenodd" clip-rule="evenodd" d="M40.4489 66.527C40.5805 67.5505 41.5202 68.2713 42.5429 68.133C43.8319 68.133 44.6479 67.473 44.6479 66.433C44.6479 65.605 44.1789 65.152 43.0109 64.859L42.4209 64.703C41.6439 64.503 41.3349 64.25 41.3349 63.808C41.3349 63.238 41.8349 62.863 42.5809 62.863C43.1826 62.7874 43.7403 63.1901 43.8579 63.785H44.5648C44.4408 62.8212 43.5717 62.1316 42.6049 62.23C41.4139 62.23 40.6129 62.878 40.6129 63.835C40.6129 64.635 41.0539 65.097 42.0739 65.355L42.7969 65.543C43.5739 65.743 43.9258 66.043 43.9258 66.523C43.9258 67.082 43.3669 67.492 42.6099 67.492C41.8099 67.492 41.2469 67.117 41.1609 66.527H40.4489ZM47.4099 64.308C48.0779 64.3074 48.6014 64.8819 48.5389 65.547H46.2189C46.1975 64.873 46.7356 64.3137 47.4099 64.309V64.308ZM48.5189 66.908C48.3081 67.3027 47.8774 67.5287 47.4328 67.478C46.7178 67.478 46.2528 66.951 46.2178 66.119V66.09H49.2458V65.832C49.2458 64.523 48.5549 63.715 47.4179 63.715C46.2552 63.7207 45.3628 64.7479 45.5199 65.9C45.5199 67.232 46.2498 68.076 47.4198 68.076C48.2115 68.1548 48.9504 67.6684 49.1909 66.91L48.5189 66.908ZM50.3008 68H50.9729V65.508C50.8987 64.8568 51.423 64.2931 52.0779 64.32C52.7499 64.32 53.0699 64.679 53.0699 65.437V68H53.7419V65.273C53.8633 64.4021 53.1463 63.6432 52.2699 63.715C51.7339 63.667 51.2262 63.963 51.0039 64.453H50.9409V63.789H50.3008V68ZM56.5249 68.074C57.0776 68.0915 57.5956 67.8052 57.8749 67.328H57.9379V68H58.5788V62.117H57.9058V64.453H57.8479C57.5826 63.976 57.0702 63.6902 56.5249 63.715C55.4549 63.715 54.7549 64.574 54.7549 65.895C54.7549 67.216 55.4489 68.074 56.5249 68.074ZM56.6838 64.32C57.4448 64.32 57.9249 64.93 57.9249 65.895C57.9249 66.86 57.4488 67.469 56.6838 67.469C55.9188 67.469 55.4538 66.879 55.4538 65.895C55.4538 64.911 55.9178 64.32 56.6838 64.32Z" fill="#E4DCD9"/>
<path fill-rule="evenodd" clip-rule="evenodd" d="M72.0466 62.9514C72.1663 63.882 73.0207 64.5373 73.9504 64.4116C75.1224 64.4116 75.8642 63.8115 75.8642 62.866C75.8642 62.1132 75.4378 61.7013 74.3759 61.4349L73.8395 61.2931C73.1331 61.1113 72.98 60.8813 72.98 60.4794C72.98 59.9612 73.4346 59.6202 74.1128 59.6202C74.6599 59.5515 75.1669 59.9176 75.2739 60.4585H75.9166C75.8039 59.5826 75.0142 58.9557 74.1356 59.0447C73.0528 59.0447 72.3245 59.6339 72.3245 60.504C72.3245 61.2313 72.5976 61.6513 73.525 61.8859L74.1823 62.0568C74.8887 62.2387 75.2087 62.5114 75.2087 62.9478C75.2087 63.456 74.7005 63.8288 74.0123 63.8288C73.2849 63.8288 72.7731 63.4879 72.6949 62.9514H72.0466ZM78.3754 60.934C78.9827 60.9335 79.4586 61.4558 79.4018 62.0605H77.2925C77.2731 61.4477 77.7623 60.9392 78.3754 60.9349V60.934ZM79.3836 63.2997C79.192 63.6586 78.8005 63.864 78.3963 63.8179C77.7471 63.8179 77.3244 63.3387 77.2925 62.5823V62.5541H80.0446V62.3196C80.0446 61.1295 79.4164 60.3949 78.3826 60.3949C77.3252 60.3995 76.5133 61.3336 76.6561 62.3814C76.6561 63.5906 77.3207 64.3579 78.3835 64.3579C79.1035 64.4307 79.776 63.9892 79.9955 63.2997H79.3836ZM81.0038 64.2907H81.6147V62.025C81.5473 61.433 82.024 60.9204 82.6193 60.9449C83.2303 60.9449 83.5212 61.2713 83.5212 61.9604V64.2907H84.1322V61.8113C84.2426 61.0196 83.5906 60.3296 82.7939 60.3949C82.3066 60.3512 81.845 60.6203 81.6429 61.0658H81.5866V60.4621H81.0038V64.2907ZM86.6651 64.3579C87.1667 64.3728 87.6363 64.1127 87.8898 63.6797H87.9471V64.2907H88.5299V58.942H87.9189V61.0658H87.8652C87.6245 60.633 87.1599 60.3733 86.6651 60.3949C85.6923 60.3949 85.0559 61.1758 85.0559 62.3769C85.0559 63.5779 85.6842 64.3579 86.6651 64.3579ZM86.807 60.9449C87.4998 60.9449 87.9325 61.4986 87.9325 62.3759C87.9325 63.2533 87.5025 63.8079 86.807 63.8079C86.1115 63.8079 85.6887 63.2715 85.6887 62.3768C85.6887 61.4822 86.1114 60.9449 86.807 60.9449Z" fill="#FCE237"/>
<path fill-rule="evenodd" clip-rule="evenodd" d="M91.8226 61.7799C91.6497 61.9111 91.4564 62.0666 91.3842 62.2177C91.3119 62.3661 91.2757 62.5244 91.2757 62.6926C91.2757 62.8296 91.2978 62.9536 91.3417 63.0649C91.3889 63.1761 91.4549 63.2717 91.5398 63.3516C91.6247 63.4315 91.7252 63.4941 91.8416 63.5398C91.961 63.5826 92.0931 63.604 92.2377 63.604C92.4484 63.604 92.532 63.6057 92.7143 63.5573C92.8967 63.506 93.1292 63.3304 93.2864 63.2391L91.8226 61.7799ZM95.3894 64.193H94.6991C94.6454 64.193 94.5975 64.1906 94.5555 64.186C94.5135 64.179 94.4738 64.1683 94.4364 64.1541C94.4014 64.14 94.3675 64.1199 94.3349 64.094C94.3022 64.0681 94.2672 64.035 94.2298 63.995L93.8397 63.6332C93.6179 63.7888 93.1632 64.0374 92.8994 64.1223C92.6379 64.2072 92.3589 64.2496 92.0624 64.2496C91.8593 64.2496 91.6596 64.2143 91.4635 64.1435C91.2698 64.0728 91.0969 63.9726 90.9452 63.8429C90.7935 63.7109 90.6709 63.5517 90.5775 63.3654C90.4841 63.1791 90.4374 62.9704 90.4374 62.7394C90.4374 62.5838 90.4608 62.4364 90.5074 62.2973C90.5565 62.1582 90.6241 62.0297 90.7106 61.9118C90.7992 61.7915 90.9032 61.6831 91.0222 61.5864C91.1413 61.4874 91.2733 61.4013 91.418 61.3282C91.3059 61.1561 91.2254 60.9875 91.1763 60.8225C91.1273 60.6574 91.1028 60.4971 91.1028 60.3415C91.1028 60.1576 91.1354 59.9843 91.2008 59.8216C91.2685 59.6565 91.3654 59.5127 91.4915 59.3901C91.62 59.2651 91.7763 59.1661 91.9608 59.093C92.1476 59.0199 92.3612 58.9834 92.6017 58.9834C92.8282 58.9834 93.0278 59.0176 93.2006 59.0859C93.3733 59.152 93.5192 59.2404 93.6383 59.3512C93.7574 59.4597 93.8508 59.5858 93.9185 59.7296C93.9862 59.8735 94.0282 60.0208 94.0446 60.1717L93.6266 60.2606C93.4462 60.3023 93.3134 60.2294 93.2283 60.042C93.15 59.8615 93.0581 59.7244 92.9525 59.6308C92.8504 59.5371 92.7141 59.4902 92.5439 59.4902C92.4248 59.4902 92.3209 59.5128 92.2324 59.5579C92.1439 59.603 92.069 59.662 92.0077 59.7349C91.9498 59.8077 91.9055 59.8928 91.8749 59.9899C91.8443 60.0871 91.8289 60.1877 91.8289 60.2919C91.8289 60.3821 91.8353 60.4688 91.8494 60.5521C91.8664 60.632 91.8937 60.7152 91.9311 60.802C91.9685 60.8853 92.0112 60.9804 92.084 61.072C92.1609 61.1636 92.2238 61.2514 92.3192 61.359L93.8355 62.8135C93.9422 62.6322 93.9869 62.6556 94.054 62.4559C94.1212 62.253 94.1365 62.1312 94.1563 61.9191C94.168 61.833 94.1632 61.6799 94.2265 61.6307C94.2899 61.5815 94.3738 61.5615 94.4815 61.5569L94.8148 61.5427C94.8148 61.8846 94.6987 62.2765 94.6076 62.576C94.5166 62.8755 94.4023 62.9635 94.2365 63.2111L95.3894 64.193Z" fill="#FCE237"/>
<path fill-rule="evenodd" clip-rule="evenodd" d="M76.8547 69.8026C76.8547 70.4528 76.6502 70.9763 76.2411 71.3732C75.832 71.7677 75.2902 71.965 74.6157 71.965C73.8876 71.965 73.3069 71.7154 72.8734 71.2162C72.4424 70.717 72.2269 70.0461 72.2269 69.2036C72.2269 68.3708 72.4449 67.7036 72.8807 67.202C73.3166 66.6979 73.8949 66.4459 74.6157 66.4459C75.2001 66.4459 75.6896 66.5981 76.084 66.9025C76.4809 67.2069 76.7269 67.6196 76.8218 68.1407H76.1534C76.039 67.7852 75.8515 67.5149 75.5909 67.3298C75.3304 67.1448 75.0053 67.0522 74.6157 67.0522C74.0946 67.0522 73.6782 67.247 73.3665 67.6367C73.0573 68.0263 72.9026 68.5486 72.9026 69.2036C72.9026 69.8684 73.0561 70.3943 73.3629 70.7815C73.6721 71.1663 74.0909 71.3586 74.6194 71.3586C75.0917 71.3586 75.4728 71.221 75.7626 70.9459C76.0548 70.6707 76.2009 70.3103 76.2009 69.8647V69.7369H74.718V69.1598H76.8547V69.8026Z" fill="#FCE237"/>
<path fill-rule="evenodd" clip-rule="evenodd" d="M77.9724 71.8408V66.34H78.9724V71.8408H77.9724Z" fill="#FCE237"/>
<path fill-rule="evenodd" clip-rule="evenodd" d="M82.7646 71.3659C82.4407 71.7288 81.9988 71.9102 81.4387 71.9102C80.8787 71.9102 80.4355 71.7288 80.1092 71.3659C79.7853 71.0007 79.6234 70.5027 79.6234 69.872C79.6234 69.2389 79.7853 68.741 80.1092 68.3781C80.433 68.0153 80.8762 67.8339 81.4387 67.8339C82.0012 67.8339 82.4444 68.0153 82.7682 68.3781C83.0921 68.741 83.254 69.2389 83.254 69.872C83.254 70.5027 83.0909 71.0007 82.7646 71.3659ZM80.5767 70.9605C80.7788 71.2162 81.0662 71.344 81.4387 71.344C81.8113 71.344 82.0986 71.2162 82.3007 70.9605C82.5028 70.7024 82.6038 70.3396 82.6038 69.872C82.6038 69.4045 82.5028 69.0429 82.3007 68.7872C82.0986 68.5291 81.8113 68.4 81.4387 68.4C81.0662 68.4 80.7788 68.5291 80.5767 68.7872C80.3746 69.0429 80.2735 69.4045 80.2735 69.872C80.2735 70.3396 80.3746 70.7024 80.5767 70.9605Z" fill="#FCE237"/>
<path fill-rule="evenodd" clip-rule="evenodd" d="M86.198 71.9102C85.9252 71.9102 85.6769 71.8493 85.4528 71.7275C85.2313 71.6033 85.0584 71.4317 84.9342 71.2125H84.8757V71.8408H84.2767V66.34H84.905V68.5242H84.9634C85.0705 68.3124 85.2349 68.1444 85.4565 68.0202C85.6805 67.896 85.9277 67.8339 86.198 67.8339C86.6996 67.8339 87.1001 68.019 87.3997 68.3891C87.6992 68.7592 87.8489 69.2535 87.8489 69.872C87.8489 70.4881 87.6979 70.9824 87.396 71.355C87.0965 71.7251 86.6971 71.9102 86.198 71.9102V71.9102ZM86.0519 68.4C85.6939 68.4 85.4102 68.5315 85.2008 68.7945C84.9938 69.0575 84.8904 69.4167 84.8904 69.872C84.8904 70.3274 84.9938 70.6866 85.2008 70.9495C85.4102 71.2125 85.6939 71.344 86.0519 71.344C86.4122 71.344 86.6935 71.2137 86.8956 70.9532C87.0977 70.6926 87.1988 70.3323 87.1988 69.872C87.1988 69.4118 87.0977 69.0514 86.8956 68.7909C86.6935 68.5303 86.4122 68.4 86.0519 68.4Z" fill="#FCE237"/>
<path fill-rule="evenodd" clip-rule="evenodd" d="M90.0478 71.3586C90.3716 71.3586 90.6395 71.2649 90.8513 71.0774C91.0656 70.8899 91.1728 70.6549 91.1728 70.3724V70.0108L90.1135 70.0802C89.8164 70.0997 89.5985 70.1618 89.4597 70.2665C89.3209 70.3712 89.2515 70.5234 89.2515 70.7231C89.2515 70.9203 89.3258 71.0762 89.4743 71.1906C89.6229 71.3026 89.814 71.3586 90.0478 71.3586ZM89.9309 71.9102C89.5437 71.9102 89.2247 71.8042 88.9739 71.5924C88.7256 71.3781 88.6014 71.0932 88.6014 70.7377C88.6014 70.387 88.7256 70.1119 88.9739 69.9122C89.2223 69.7125 89.5766 69.5993 90.0368 69.5725L91.1728 69.5031V69.1452C91.1728 68.9017 91.0973 68.7154 90.9463 68.5863C90.7953 68.4573 90.5737 68.3927 90.2815 68.3927C90.0453 68.3927 89.8493 68.4353 89.6935 68.5206C89.5376 68.6058 89.4378 68.7263 89.394 68.8822H88.7584C88.7998 68.5681 88.9617 68.3148 89.2442 68.1224C89.5291 67.9301 89.8822 67.8339 90.3034 67.8339C90.7807 67.8339 91.1496 67.9496 91.4102 68.1809C91.6707 68.4122 91.801 68.7336 91.801 69.1452V71.8408H91.202V71.26H91.1435C91.0169 71.4694 90.8489 71.6301 90.6395 71.7421C90.4301 71.8541 90.1939 71.9102 89.9309 71.9102Z" fill="#FCE237"/>
<path fill-rule="evenodd" clip-rule="evenodd" d="M92.999 71.8408V66.34H93.999V71.8408H92.999Z" fill="#FCE237"/>
<path fill-rule="evenodd" clip-rule="evenodd" d="M1.68676 52.4046C1.40376 52.4047 0.878756 52.6389 0.610756 53.1018C0.36533 53.5258 0.409729 53.5901 0.409729 54.5393C0.409729 54.5927 0.767759 53.3909 1.68676 53.3909H32.5504V52.4046H1.68676Z" fill="#959197"/>
<path fill-rule="evenodd" clip-rule="evenodd" d="M99.0067 103.967L130.383 104C131.286 104.001 132 103.257 132 102.353V79.6318C132 78.728 131.272 78.0003 130.369 78.0003L98.9998 78V104L99.0067 103.967Z" fill="#0A090A"/>
<path fill-rule="evenodd" clip-rule="evenodd" d="M130.154 78.4142H99.4388V103.526H130.154C130.944 103.526 131.581 102.89 131.581 102.099V79.8412C131.581 79.0506 130.944 78.4142 130.154 78.4142Z" fill="#413F40"/>
<path fill-rule="evenodd" clip-rule="evenodd" d="M98.9929 103.967L65.9998 104V78.0003L98.9998 78V104L98.9929 103.967Z" fill="#0A090A"/>
<path fill-rule="evenodd" clip-rule="evenodd" d="M98.9998 78.4142V103.526H66.4373V78.4142H98.9998Z" fill="url(#paint9_linear_1_154)"/>
<path fill-rule="evenodd" clip-rule="evenodd" d="M66.4334 78.4332V79.4142H98.9998V78.4142L66.4334 78.4332Z" fill="#959197"/>
<path fill-rule="evenodd" clip-rule="evenodd" d="M65.9929 103.967L32.9998 104V78.0003L65.9998 78V104L65.9929 103.967Z" fill="#0A090A"/>
<path fill-rule="evenodd" clip-rule="evenodd" d="M34.4773 78.4142H65.9998V103.526H32.9998V78.4142H34.4773Z" fill="url(#paint10_linear_1_154)"/>
<path fill-rule="evenodd" clip-rule="evenodd" d="M32.9998 78.4332V79.4142H65.9998V78.4142L32.9998 78.4332Z" fill="#959197"/>
<path fill-rule="evenodd" clip-rule="evenodd" d="M32.9929 103.967L1.61727 104C0.713548 104.001 -0.000183105 103.257 -0.000183105 102.353V79.6318C-0.000183105 78.728 0.72736 78.0003 1.63108 78.0003L32.9998 78V104L32.9929 103.967Z" fill="#0A090A"/>
<path fill-rule="evenodd" clip-rule="evenodd" d="M1.84626 78.4142H32.5608V103.526H1.84625C1.05569 103.526 0.41925 102.89 0.41925 102.099V79.8412C0.41925 79.0506 1.05569 78.4142 1.84625 78.4142H1.84626Z" fill="url(#paint11_linear_1_154)"/>
<path fill-rule="evenodd" clip-rule="evenodd" d="M114.672 94H115.41L113.332 88.363H112.632L110.559 94H111.3L111.866 92.387H114.105L114.672 94ZM112.953 89.273H113.016L113.9 91.789H112.07L112.953 89.273ZM116.352 94H117.352V88.117H116.352V94ZM118.367 94H119.367V88.117H118.367V94Z" fill="#FCE237"/>
<path fill-rule="evenodd" clip-rule="evenodd" d="M13.1118 88.23C11.5178 88.23 10.5218 89.367 10.5218 91.179C10.5218 92.991 11.4948 94.133 13.1118 94.133C14.7288 94.133 15.6898 92.98 15.6898 91.18C15.6898 89.38 14.7138 88.23 13.1118 88.23ZM13.1118 88.878C14.2638 88.878 14.9668 89.769 14.9668 91.178C14.9668 92.587 14.2668 93.478 13.1118 93.478C11.9398 93.478 11.2448 92.572 11.2448 91.178C11.2448 89.784 11.9638 88.879 13.1118 88.879V88.878ZM17.1008 94H17.7728V90.352H18.7408V89.79H17.7758V89.34C17.7758 88.879 17.9758 88.64 18.4638 88.64C18.5695 88.6376 18.6752 88.6443 18.7798 88.66V88.113C18.6304 88.0854 18.4787 88.0724 18.3268 88.074C17.9858 88.027 17.6426 88.1439 17.4011 88.3893C17.1596 88.6347 17.0483 88.9798 17.1008 89.32V89.789H16.4008V90.352H17.1008V94ZM20.0008 94H20.6708V90.352H21.6358V89.79H20.6708V89.34C20.6708 88.879 20.8708 88.64 21.3588 88.64C21.4645 88.6376 21.5702 88.6443 21.6748 88.66V88.113C21.5254 88.0854 21.3737 88.0724 21.2218 88.074C20.8816 88.0288 20.5399 88.1465 20.2996 88.3916C20.0594 88.6368 19.9487 88.9808 20.0008 89.32V89.789H19.3008V90.352H20.0008V94Z" fill="#E4DCD9"/>
<path fill-rule="evenodd" clip-rule="evenodd" d="M40.4489 92.527C40.5805 93.5505 41.5202 94.2713 42.5429 94.133C43.8319 94.133 44.6479 93.473 44.6479 92.433C44.6479 91.605 44.1789 91.152 43.0109 90.859L42.4209 90.703C41.6439 90.503 41.3349 90.25 41.3349 89.808C41.3349 89.238 41.8349 88.863 42.5809 88.863C43.1826 88.7874 43.7403 89.1901 43.8579 89.785H44.5648C44.4408 88.8212 43.5717 88.1316 42.6049 88.23C41.4139 88.23 40.6129 88.878 40.6129 89.835C40.6129 90.635 41.0539 91.097 42.0739 91.355L42.7969 91.543C43.5739 91.743 43.9258 92.043 43.9258 92.523C43.9258 93.082 43.3669 93.492 42.6099 93.492C41.8099 93.492 41.2469 93.117 41.1609 92.527H40.4489ZM47.4099 90.308C48.0779 90.3074 48.6014 90.8819 48.5389 91.547H46.2189C46.1975 90.873 46.7356 90.3137 47.4099 90.309V90.308ZM48.5189 92.908C48.3081 93.3027 47.8774 93.5287 47.4328 93.478C46.7178 93.478 46.2528 92.951 46.2178 92.119V92.09H49.2458V91.832C49.2458 90.523 48.5549 89.715 47.4179 89.715C46.2552 89.7207 45.3628 90.7479 45.5199 91.9C45.5199 93.232 46.2498 94.076 47.4198 94.076C48.2115 94.1548 48.9504 93.6684 49.1909 92.91L48.5189 92.908ZM50.3008 94H50.9729V91.508C50.8987 90.8568 51.423 90.2931 52.0779 90.32C52.7499 90.32 53.0699 90.679 53.0699 91.437V94H53.7419V91.273C53.8633 90.4021 53.1463 89.6432 52.2699 89.715C51.7339 89.667 51.2262 89.963 51.0039 90.453H50.9409V89.789H50.3008V94ZM56.5249 94.074C57.0776 94.0915 57.5956 93.8052 57.8749 93.328H57.9379V94H58.5788V88.117H57.9058V90.453H57.8479C57.5826 89.976 57.0702 89.6902 56.5249 89.715C55.4549 89.715 54.7549 90.574 54.7549 91.895C54.7549 93.216 55.4489 94.074 56.5249 94.074ZM56.6838 90.32C57.4448 90.32 57.9249 90.93 57.9249 91.895C57.9249 92.86 57.4488 93.469 56.6838 93.469C55.9188 93.469 55.4538 92.879 55.4538 91.895C55.4538 90.911 55.9178 90.32 56.6838 90.32Z" fill="#E4DCD9"/>
<path fill-rule="evenodd" clip-rule="evenodd" d="M72.0466 88.9515C72.1663 89.882 73.0207 90.5373 73.9504 90.4116C75.1224 90.4116 75.8642 89.8115 75.8642 88.866C75.8642 88.1132 75.4378 87.7013 74.3759 87.4349L73.8395 87.2931C73.1331 87.1113 72.98 86.8813 72.98 86.4794C72.98 85.9612 73.4346 85.6202 74.1128 85.6202C74.6599 85.5515 75.1669 85.9176 75.2739 86.4585H75.9166C75.8039 85.5826 75.0142 84.9558 74.1356 85.0447C73.0528 85.0447 72.3245 85.6339 72.3245 86.504C72.3245 87.2313 72.5976 87.6513 73.525 87.8859L74.1823 88.0568C74.8887 88.2387 75.2087 88.5114 75.2087 88.9478C75.2087 89.456 74.7005 89.8288 74.0123 89.8288C73.2849 89.8288 72.7731 89.4879 72.6949 88.9515H72.0466ZM78.3754 86.934C78.9827 86.9335 79.4586 87.4558 79.4018 88.0605H77.2925C77.2731 87.4477 77.7623 86.9392 78.3754 86.9349V86.934ZM79.3836 89.2997C79.192 89.6586 78.8005 89.864 78.3963 89.8179C77.7471 89.8179 77.3244 89.3388 77.2925 88.5823V88.5541H80.0446V88.3196C80.0446 87.1295 79.4164 86.3949 78.3826 86.3949C77.3252 86.3995 76.5133 87.3336 76.6561 88.3814C76.6561 89.5906 77.3207 90.3579 78.3835 90.3579C79.1035 90.4307 79.776 89.9892 79.9955 89.2997H79.3836ZM81.0038 90.2907H81.6147V88.025C81.5473 87.433 82.024 86.9204 82.6193 86.9449C83.2303 86.9449 83.5212 87.2713 83.5212 87.9605V90.2907H84.1322V87.8113C84.2426 87.0196 83.5906 86.3296 82.7939 86.3949C82.3066 86.3512 81.845 86.6203 81.6429 87.0658H81.5866V86.4621H81.0038V90.2907ZM86.6651 90.3579C87.1667 90.3728 87.6363 90.1127 87.8898 89.6797H87.9471V90.2907H88.5299V84.942H87.9189V87.0658H87.8652C87.6245 86.6331 87.1599 86.3733 86.6651 86.3949C85.6923 86.3949 85.0559 87.1758 85.0559 88.3768C85.0559 89.5779 85.6842 90.3579 86.6651 90.3579ZM86.807 86.9449C87.4998 86.9449 87.9325 87.4986 87.9325 88.3759C87.9325 89.2533 87.5025 89.8079 86.807 89.8079C86.1115 89.8079 85.6887 89.2715 85.6887 88.3768C85.6887 87.4822 86.1114 86.9449 86.807 86.9449Z" fill="#E4DCD9"/>
<path fill-rule="evenodd" clip-rule="evenodd" d="M91.8226 87.7799C91.6497 87.9111 91.4564 88.0666 91.3842 88.2177C91.3119 88.3661 91.2757 88.5244 91.2757 88.6927C91.2757 88.8296 91.2978 88.9536 91.3417 89.0649C91.3889 89.1761 91.4549 89.2717 91.5398 89.3516C91.6247 89.4315 91.7252 89.4941 91.8416 89.5398C91.961 89.5826 92.0931 89.604 92.2377 89.604C92.4484 89.604 92.532 89.6057 92.7143 89.5573C92.8967 89.506 93.1292 89.3304 93.2864 89.2391L91.8226 87.7799ZM95.3894 90.193H94.6991C94.6454 90.193 94.5975 90.1906 94.5555 90.186C94.5135 90.179 94.4738 90.1683 94.4364 90.1542C94.4014 90.14 94.3675 90.1199 94.3349 90.094C94.3022 90.0681 94.2672 90.0351 94.2298 89.995L93.8397 89.6332C93.6179 89.7888 93.1632 90.0374 92.8994 90.1223C92.6379 90.2072 92.3589 90.2496 92.0624 90.2496C91.8593 90.2496 91.6596 90.2143 91.4635 90.1435C91.2698 90.0728 91.0969 89.9726 90.9452 89.8429C90.7935 89.7109 90.6709 89.5517 90.5775 89.3654C90.4841 89.1791 90.4374 88.9704 90.4374 88.7394C90.4374 88.5838 90.4608 88.4364 90.5074 88.2973C90.5565 88.1582 90.6241 88.0297 90.7106 87.9118C90.7992 87.7915 90.9032 87.6831 91.0222 87.5864C91.1413 87.4874 91.2733 87.4013 91.418 87.3282C91.3059 87.1561 91.2254 86.9875 91.1763 86.8225C91.1273 86.6574 91.1028 86.4971 91.1028 86.3415C91.1028 86.1576 91.1354 85.9843 91.2008 85.8216C91.2685 85.6565 91.3654 85.5127 91.4915 85.3901C91.62 85.2652 91.7763 85.1661 91.9608 85.093C92.1476 85.0199 92.3612 84.9834 92.6017 84.9834C92.8282 84.9834 93.0278 85.0176 93.2006 85.086C93.3733 85.152 93.5192 85.2404 93.6383 85.3512C93.7574 85.4597 93.8508 85.5858 93.9185 85.7296C93.9862 85.8735 94.0282 86.0208 94.0446 86.1717L93.6266 86.2606C93.4462 86.3023 93.3134 86.2294 93.2283 86.042C93.15 85.8615 93.0581 85.7245 92.9525 85.6308C92.8504 85.5371 92.7141 85.4902 92.5439 85.4902C92.4248 85.4902 92.3209 85.5128 92.2324 85.5579C92.1439 85.603 92.069 85.662 92.0077 85.7349C91.9498 85.8077 91.9055 85.8928 91.8749 85.9899C91.8443 86.0871 91.8289 86.1877 91.8289 86.2919C91.8289 86.3821 91.8353 86.4689 91.8494 86.5521C91.8664 86.632 91.8937 86.7152 91.9311 86.802C91.9685 86.8853 92.0112 86.9804 92.084 87.072C92.1609 87.1636 92.2238 87.2514 92.3192 87.359L93.8355 88.8135C93.9422 88.6322 93.9869 88.6556 94.054 88.4559C94.1212 88.253 94.1365 88.1312 94.1563 87.9191C94.168 87.8331 94.1632 87.6799 94.2265 87.6307C94.2899 87.5815 94.3738 87.5615 94.4815 87.5569L94.8148 87.5427C94.8148 87.8846 94.6987 88.2765 94.6076 88.576C94.5166 88.8755 94.4023 88.9635 94.2365 89.2111L95.3894 90.193Z" fill="#E4DCD9"/>
<path fill-rule="evenodd" clip-rule="evenodd" d="M76.8547 95.8026C76.8547 96.4528 76.6502 96.9763 76.2411 97.3732C75.832 97.7677 75.2902 97.965 74.6157 97.965C73.8876 97.965 73.3069 97.7154 72.8734 97.2162C72.4424 96.717 72.2269 96.0461 72.2269 95.2036C72.2269 94.3708 72.4449 93.7036 72.8807 93.202C73.3166 92.698 73.8949 92.4459 74.6157 92.4459C75.2001 92.4459 75.6896 92.5981 76.084 92.9025C76.4809 93.2069 76.7269 93.6196 76.8218 94.1407H76.1534C76.039 93.7852 75.8515 93.5149 75.5909 93.3299C75.3304 93.1448 75.0053 93.0523 74.6157 93.0523C74.0946 93.0523 73.6782 93.2471 73.3665 93.6367C73.0573 94.0263 72.9026 94.5486 72.9026 95.2036C72.9026 95.8684 73.0561 96.3944 73.3629 96.7815C73.6721 97.1663 74.0909 97.3586 74.6194 97.3586C75.0917 97.3586 75.4728 97.2211 75.7626 96.9459C76.0548 96.6707 76.2009 96.3103 76.2009 95.8647V95.7369H74.718V95.1598H76.8547V95.8026Z" fill="#E4DCD9"/>
<path fill-rule="evenodd" clip-rule="evenodd" d="M77.9724 97.8408V92.34H78.9724V97.8408H77.9724Z" fill="#E4DCD9"/>
<path fill-rule="evenodd" clip-rule="evenodd" d="M82.7646 97.3659C82.4407 97.7288 81.9988 97.9102 81.4387 97.9102C80.8787 97.9102 80.4355 97.7288 80.1092 97.3659C79.7853 97.0007 79.6234 96.5027 79.6234 95.872C79.6234 95.2389 79.7853 94.741 80.1092 94.3781C80.433 94.0153 80.8762 93.8339 81.4387 93.8339C82.0012 93.8339 82.4444 94.0153 82.7682 94.3781C83.0921 94.741 83.254 95.2389 83.254 95.872C83.254 96.5027 83.0909 97.0007 82.7646 97.3659ZM80.5767 96.9605C80.7788 97.2162 81.0662 97.344 81.4387 97.344C81.8113 97.344 82.0986 97.2162 82.3007 96.9605C82.5028 96.7024 82.6038 96.3396 82.6038 95.872C82.6038 95.4045 82.5028 95.0429 82.3007 94.7872C82.0986 94.5291 81.8113 94.4001 81.4387 94.4001C81.0662 94.4001 80.7788 94.5291 80.5767 94.7872C80.3746 95.0429 80.2735 95.4045 80.2735 95.872C80.2735 96.3396 80.3746 96.7024 80.5767 96.9605Z" fill="#E4DCD9"/>
<path fill-rule="evenodd" clip-rule="evenodd" d="M86.198 97.9102C85.9252 97.9102 85.6769 97.8493 85.4528 97.7275C85.2313 97.6034 85.0584 97.4317 84.9342 97.2125H84.8757V97.8408H84.2767V92.34H84.905V94.5242H84.9634C85.0705 94.3124 85.2349 94.1444 85.4565 94.0202C85.6805 93.896 85.9277 93.8339 86.198 93.8339C86.6996 93.8339 87.1001 94.019 87.3997 94.3891C87.6992 94.7592 87.8489 95.2535 87.8489 95.8721C87.8489 96.4881 87.6979 96.9824 87.396 97.355C87.0965 97.7251 86.6971 97.9102 86.198 97.9102V97.9102ZM86.0519 94.4001C85.6939 94.4001 85.4102 94.5316 85.2008 94.7945C84.9938 95.0575 84.8904 95.4167 84.8904 95.872C84.8904 96.3274 84.9938 96.6866 85.2008 96.9496C85.4102 97.2125 85.6939 97.344 86.0519 97.344C86.4122 97.344 86.6935 97.2138 86.8956 96.9532C87.0977 96.6927 87.1988 96.3323 87.1988 95.872C87.1988 95.4118 87.0977 95.0514 86.8956 94.7909C86.6935 94.5303 86.4122 94.4001 86.0519 94.4001V94.4001Z" fill="#E4DCD9"/>
<path fill-rule="evenodd" clip-rule="evenodd" d="M90.0478 97.3586C90.3716 97.3586 90.6395 97.2649 90.8513 97.0774C91.0656 96.8899 91.1728 96.6549 91.1728 96.3724V96.0108L90.1135 96.0802C89.8164 96.0997 89.5985 96.1618 89.4597 96.2665C89.3209 96.3712 89.2515 96.5234 89.2515 96.7231C89.2515 96.9203 89.3258 97.0762 89.4743 97.1906C89.6229 97.3026 89.814 97.3586 90.0478 97.3586ZM89.9309 97.9102C89.5437 97.9102 89.2247 97.8042 88.9739 97.5924C88.7256 97.3781 88.6014 97.0932 88.6014 96.7377C88.6014 96.3871 88.7256 96.1119 88.9739 95.9122C89.2223 95.7125 89.5766 95.5993 90.0368 95.5725L91.1728 95.5031V95.1452C91.1728 94.9017 91.0973 94.7154 90.9463 94.5863C90.7953 94.4573 90.5737 94.3927 90.2815 94.3927C90.0453 94.3927 89.8493 94.4354 89.6935 94.5206C89.5376 94.6058 89.4378 94.7263 89.394 94.8822H88.7584C88.7998 94.5681 88.9617 94.3148 89.2442 94.1225C89.5291 93.9301 89.8822 93.8339 90.3034 93.8339C90.7807 93.8339 91.1496 93.9496 91.4102 94.1809C91.6707 94.4122 91.801 94.7337 91.801 95.1452V97.8408H91.202V97.26H91.1435C91.0169 97.4694 90.8489 97.6301 90.6395 97.7422C90.4301 97.8542 90.1939 97.9102 89.9309 97.9102Z" fill="#E4DCD9"/>
<path fill-rule="evenodd" clip-rule="evenodd" d="M92.999 97.8408V92.34H93.999V97.8408H92.999Z" fill="#E4DCD9"/>
<path fill-rule="evenodd" clip-rule="evenodd" d="M1.68676 78.4046C1.40376 78.4048 0.878756 78.6389 0.610756 79.1018C0.36533 79.5258 0.409729 79.5901 0.409729 80.5393C0.409729 80.5927 0.767759 79.3909 1.68676 79.3909H32.5504V78.4046H1.68676Z" fill="#959197"/>
<defs>
<linearGradient id="paint0_linear_1_154" x1="387.21" y1="20.0331" x2="384.863" y2="621.396" gradientUnits="userSpaceOnUse">
<stop stop-color="#787477"/>
<stop offset="1" stop-color="#696568"/>
</linearGradient>
<linearGradient id="paint1_linear_1_154" x1="357.973" y1="20.0331" x2="355.656" y2="621.396" gradientUnits="userSpaceOnUse">
<stop stop-color="#787477"/>
<stop offset="1" stop-color="#696568"/>
</linearGradient>
<linearGradient id="paint2_linear_1_154" x1="328.453" y1="20.0331" x2="326.167" y2="621.396" gradientUnits="userSpaceOnUse">
<stop stop-color="#787477"/>
<stop offset="1" stop-color="#696568"/>
</linearGradient>
<linearGradient id="paint3_linear_1_154" x1="387.21" y1="46.0331" x2="384.863" y2="647.395" gradientUnits="userSpaceOnUse">
<stop stop-color="#787477"/>
<stop offset="1" stop-color="#696568"/>
</linearGradient>
<linearGradient id="paint4_linear_1_154" x1="357.973" y1="46.0331" x2="355.656" y2="647.396" gradientUnits="userSpaceOnUse">
<stop stop-color="#787477"/>
<stop offset="1" stop-color="#696568"/>
</linearGradient>
<linearGradient id="paint5_linear_1_154" x1="288.187" y1="46.0331" x2="285.839" y2="647.395" gradientUnits="userSpaceOnUse">
<stop stop-color="#787477"/>
<stop offset="1" stop-color="#696568"/>
</linearGradient>
<linearGradient id="paint6_linear_1_154" x1="387.21" y1="72.0331" x2="384.863" y2="673.395" gradientUnits="userSpaceOnUse">
<stop stop-color="#787477"/>
<stop offset="1" stop-color="#696568"/>
</linearGradient>
<linearGradient id="paint7_linear_1_154" x1="328.453" y1="72.0331" x2="326.167" y2="673.396" gradientUnits="userSpaceOnUse">
<stop stop-color="#787477"/>
<stop offset="1" stop-color="#696568"/>
</linearGradient>
<linearGradient id="paint8_linear_1_154" x1="288.187" y1="72.0331" x2="285.839" y2="673.395" gradientUnits="userSpaceOnUse">
<stop stop-color="#787477"/>
<stop offset="1" stop-color="#696568"/>
</linearGradient>
<linearGradient id="paint9_linear_1_154" x1="357.973" y1="98.0328" x2="355.657" y2="699.386" gradientUnits="userSpaceOnUse">
<stop stop-color="#787477"/>
<stop offset="1" stop-color="#696568"/>
</linearGradient>
<linearGradient id="paint10_linear_1_154" x1="328.453" y1="98.0328" x2="326.167" y2="699.386" gradientUnits="userSpaceOnUse">
<stop stop-color="#787477"/>
<stop offset="1" stop-color="#696568"/>
</linearGradient>
<linearGradient id="paint11_linear_1_154" x1="288.187" y1="98.0328" x2="285.84" y2="699.385" gradientUnits="userSpaceOnUse">
<stop stop-color="#787477"/>
<stop offset="1" stop-color="#696568"/>
</linearGradient>
</defs>
</svg>
