<?xml version="1.0" encoding="UTF-8" standalone="no"?>
<svg
   xmlns:dc="http://purl.org/dc/elements/1.1/"
   xmlns:cc="http://creativecommons.org/ns#"
   xmlns:rdf="http://www.w3.org/1999/02/22-rdf-syntax-ns#"
   xmlns:svg="http://www.w3.org/2000/svg"
   xmlns="http://www.w3.org/2000/svg"
   xmlns:xlink="http://www.w3.org/1999/xlink"
   xmlns:sodipodi="http://sodipodi.sourceforge.net/DTD/sodipodi-0.dtd"
   xmlns:inkscape="http://www.inkscape.org/namespaces/inkscape"
   width="94"
   height="42"
   viewBox="0 0 94 42"
   fill="none"
   version="1.1"
   id="svg29913"
   sodipodi:docname="bmp00302.svg"
   inkscape:version="1.0.1 (3bc2e813f5, 2020-09-07)">
  <metadata
     id="metadata29919">
    <rdf:RDF>
      <cc:Work
         rdf:about="">
        <dc:format>image/svg+xml</dc:format>
        <dc:type
           rdf:resource="http://purl.org/dc/dcmitype/StillImage" />
        <dc:title />
      </cc:Work>
    </rdf:RDF>
  </metadata>
  <defs
     id="defs29917">
    <linearGradient
       x1="0.5"
       y1="0"
       x2="0.5"
       y2="1"
       id="linearGradient10622">
      <stop
         offset="0"
         stop-color="#787477"
         id="stop10618"
         style="stop-color:#746f71;stop-opacity:1" />
      <stop
         offset="1"
         stop-color="#716B6C"
         id="stop10620"
         style="stop-color:#696466;stop-opacity:1" />
    </linearGradient>
    <linearGradient
       inkscape:collect="always"
       xlink:href="#linearGradient10622-6"
       id="linearGradient19566"
       gradientUnits="userSpaceOnUse"
       gradientTransform="matrix(0.72727278,0,0,1,31.200002,0)"
       x1="8.953125"
       y1="0.78125"
       x2="8.9441519"
       y2="12.084538" />
    <linearGradient
       x1="0.5"
       y1="0"
       x2="0.5"
       y2="1"
       id="linearGradient10622-6">
      <stop
         offset="0"
         stop-color="#787477"
         id="stop10618-6"
         style="stop-color:#746f71;stop-opacity:1" />
      <stop
         offset="1"
         stop-color="#716B6C"
         id="stop10620-5"
         style="stop-color:#696466;stop-opacity:1" />
    </linearGradient>
    <linearGradient
       inkscape:collect="always"
       xlink:href="#linearGradient10622"
       id="linearGradient36296"
       gradientUnits="userSpaceOnUse"
       gradientTransform="translate(0,3.15e-4)"
       x1="8.953125"
       y1="0.78125"
       x2="8.9664249"
       y2="11.950889" />
    <linearGradient
       inkscape:collect="always"
       xlink:href="#linearGradient10622"
       id="linearGradient36334"
       gradientUnits="userSpaceOnUse"
       gradientTransform="translate(0,3.15e-4)"
       x1="8.953125"
       y1="0.78125"
       x2="8.9664249"
       y2="11.950889" />
    <linearGradient
       inkscape:collect="always"
       xlink:href="#linearGradient10622"
       id="linearGradient36338"
       gradientUnits="userSpaceOnUse"
       gradientTransform="translate(0,3.15e-4)"
       x1="8.953125"
       y1="0.78125"
       x2="8.9664249"
       y2="11.950889" />
    <linearGradient
       inkscape:collect="always"
       xlink:href="#linearGradient10622-6"
       id="linearGradient36372"
       gradientUnits="userSpaceOnUse"
       gradientTransform="matrix(0.72727278,0,0,1,31.200002,28.000315)"
       x1="8.953125"
       y1="0.78125"
       x2="8.9441519"
       y2="12.084538" />
    <linearGradient
       inkscape:collect="always"
       xlink:href="#linearGradient10622"
       id="linearGradient36374"
       gradientUnits="userSpaceOnUse"
       gradientTransform="translate(0,3.15e-4)"
       x1="8.953125"
       y1="0.78125"
       x2="8.9664249"
       y2="11.950889" />
  </defs>
  <sodipodi:namedview
     pagecolor="#393939"
     bordercolor="#ff0000"
     borderopacity="1"
     objecttolerance="10"
     gridtolerance="10"
     guidetolerance="10"
     inkscape:pageopacity="0"
     inkscape:pageshadow="2"
     inkscape:window-width="3753"
     inkscape:window-height="2137"
     id="namedview29915"
     showgrid="false"
     inkscape:showpageshadow="false"
     inkscape:zoom="31.74458"
     inkscape:cx="38.029899"
     inkscape:cy="18.876632"
     inkscape:window-x="-8"
     inkscape:window-y="-8"
     inkscape:window-maximized="1"
     inkscape:current-layer="svg29913"
     inkscape:document-rotation="0" />
  <path
     id="path36222"
     style="opacity:0.13;fill:#ffffff;fill-opacity:1;stroke:none;stroke-width:1.17249;stroke-linecap:butt;stroke-linejoin:miter;stroke-miterlimit:4;stroke-dasharray:none;stroke-opacity:1;paint-order:stroke markers fill"
     d="M 30.632395,13.499695 1.61745,13.5 C 0.7137299,13.500009 0,12.811824 0,11.936659 V 2.0800264 C 0,1.2048603 0.7275427,0.50031178 1.6312628,0.500305 L 30.646208,0.5 30.632388,13.499695 Z"
     sodipodi:nodetypes="cssssccc" />
  <path
     id="path19544"
     style="fill:#0a090a;fill-opacity:1;stroke:none;stroke-width:1.17236;stroke-linecap:butt;stroke-linejoin:miter;stroke-miterlimit:4;stroke-dasharray:none;stroke-opacity:1;paint-order:stroke markers fill"
     d="M 30.98619,12.999695 1.6170895,13 C 0.71357084,13.000009 0,12.311824 0,11.436659 V 1.5800264 C 0,0.70486028 0.72738056,3.1177712e-4 1.6308993,3.0499935e-4 L 31,0 30.986183,12.999695 Z"
     sodipodi:nodetypes="cssssccc" />
  <path
     id="path19546"
     style="fill:#413f40;fill-opacity:1;stroke:none;stroke-width:1.11;stroke-linecap:butt;stroke-linejoin:miter;stroke-miterlimit:4;stroke-dasharray:none;stroke-opacity:1;paint-order:stroke markers fill"
     d="M 1.846436,0.414189 H 30.630423 L 30.630419,12.3 H 1.846432 C 1.055871,12.3 0.419427,11.606905 0.419427,10.816345 V 1.841193 c 0,-0.79056 0.636444,-1.427004 1.427005,-1.427004 z"
     sodipodi:nodetypes="sccsssss" />
  <g
     aria-label="Single"
     id="text68"
     style="font-size:8px;font-family:SFProText-Regular, 'SF Pro Text';fill:#fce237"
     class="h"
     transform="matrix(0.90832122,0,0,0.90832122,-3.7962982,0.77765565)">
    <path
       d="m 13.855705,7.190649 q 0,0.3398438 -0.160156,0.671875 -0.15625,0.3320313 -0.441406,0.5625 -0.3125,0.25 -0.730469,0.390625 -0.414062,0.140625 -1,0.140625 -0.628906,0 -1.132812,-0.1171875 Q 9.8908615,8.721899 9.3713303,8.4914303 v -0.96875 h 0.054687 q 0.4414062,0.3671875 1.0195307,0.5664062 0.578125,0.1992188 1.085939,0.1992188 0.71875,0 1.117186,-0.2695313 0.402344,-0.2695312 0.402344,-0.71875 0,-0.3867187 -0.191406,-0.5703125 Q 12.672112,6.5461178 12.285393,6.4445553 11.992424,6.3664303 11.648674,6.315649 11.30883,6.2648678 10.926018,6.1867428 10.15258,6.0226803 9.7775803,5.628149 9.4064865,5.2297115 9.4064865,4.5929928 q 0,-0.7304688 0.6171875,-1.1953125 0.617188,-0.46875 1.566406,-0.46875 0.613282,0 1.125,0.1171875 0.511719,0.1171875 0.90625,0.2890625 v 0.9140625 h -0.05469 q -0.332031,-0.28125 -0.875,-0.4648438 -0.539063,-0.1875 -1.105469,-0.1875 -0.621094,0 -1,0.2578125 -0.375,0.2578125 -0.375,0.6640625 0,0.3632813 0.1875,0.5703125 0.1875,0.2070313 0.660156,0.3164063 0.25,0.054687 0.710938,0.1328125 0.460937,0.078125 0.78125,0.1601562 0.648437,0.171875 0.976562,0.5195313 0.328125,0.3476562 0.328125,0.9726562 z"
       id="path36232"
       style="fill:#fce237" />
    <path
       d="M 15.828362,3.7570553 H 15.000237 V 2.9953365 h 0.828125 z m -0.04687,5.09375 h -0.73438 V 4.487524 h 0.734375 z"
       id="path36234"
       style="fill:#fce237" />
    <path
       d="m 20.883049,8.8508053 h -0.734375 v -2.484375 q 0,-0.3007813 -0.03516,-0.5625 -0.03516,-0.265625 -0.128906,-0.4140625 -0.09766,-0.1640625 -0.28125,-0.2421875 -0.183594,-0.082031 -0.476563,-0.082031 -0.300781,0 -0.628906,0.1484375 -0.328125,0.1484375 -0.628906,0.3789063 V 8.8508053 H 17.234612 V 4.487524 h 0.734375 v 0.484375 q 0.34375,-0.2851562 0.710937,-0.4453125 0.367188,-0.1601562 0.753906,-0.1601562 0.707032,0 1.078125,0.4257812 0.371094,0.4257813 0.371094,1.2265625 z"
       id="path36236"
       style="fill:#fce237" />
    <path
       d="m 25.836174,8.3547115 q 0,1.109375 -0.503906,1.6289063 -0.503906,0.5195312 -1.550781,0.5195312 -0.347657,0 -0.679688,-0.05078 -0.328125,-0.04687 -0.648437,-0.136719 v -0.75 h 0.03906 q 0.179688,0.070312 0.570313,0.171875 0.390625,0.1054688 0.78125,0.1054688 0.375,0 0.621093,-0.089844 0.246094,-0.089844 0.382813,-0.25 0.136719,-0.1523437 0.195312,-0.3671875 0.05859,-0.2148437 0.05859,-0.4804687 V 8.2570553 q -0.332031,0.265625 -0.636719,0.3984375 -0.300781,0.1289062 -0.769531,0.1289062 -0.78125,0 -1.242187,-0.5625 -0.457032,-0.5664062 -0.457032,-1.59375 0,-0.5625 0.15625,-0.96875 0.160157,-0.4101562 0.433594,-0.7070312 0.253906,-0.2773438 0.617188,-0.4296875 0.363281,-0.15625 0.722656,-0.15625 0.378906,0 0.632812,0.078125 0.257813,0.074219 0.542969,0.2304687 l 0.04687,-0.1875 h 0.6875 z M 25.101799,7.6515865 V 5.2726803 q -0.292969,-0.1328125 -0.546875,-0.1875 -0.25,-0.058594 -0.5,-0.058594 -0.605469,0 -0.953125,0.40625 -0.347656,0.40625 -0.347656,1.1796875 0,0.734375 0.257812,1.1132813 0.257813,0.3789062 0.855469,0.3789062 0.320313,0 0.640625,-0.1210937 0.324219,-0.125 0.59375,-0.3320311 z"
       id="path36238"
       style="fill:#fce237" />
    <path
       d="m 28.023674,8.8508053 h -0.734375 v -6.078125 h 0.734375 z"
       id="path36240"
       style="fill:#fce237" />
    <path
       d="m 33.129143,6.7453365 h -3.214844 q 0,0.4023438 0.121094,0.703125 0.121094,0.296875 0.332031,0.4882813 0.203125,0.1875 0.480469,0.28125 0.28125,0.09375 0.617187,0.09375 0.445313,0 0.894532,-0.1757813 0.453125,-0.1796875 0.644531,-0.3515625 h 0.03906 v 0.8007813 q -0.371093,0.15625 -0.757812,0.2617187 -0.386719,0.1054688 -0.8125,0.1054688 -1.085938,0 -1.695313,-0.5859375 -0.609375,-0.5898438 -0.609375,-1.671875 0,-1.0703125 0.582032,-1.6992188 0.585937,-0.6289062 1.539062,-0.6289062 0.882813,0 1.359375,0.515625 0.480469,0.515625 0.480469,1.4648437 z m -0.714844,-0.5625 Q 32.410393,5.6047115 32.12133,5.2883053 31.836174,4.971899 31.250237,4.971899 q -0.589844,0 -0.941407,0.3476563 -0.347656,0.3476562 -0.394531,0.8632812 z"
       id="path36242"
       style="fill:#fce237" />
  </g>
  <path
     id="path36278"
     style="opacity:0.13;fill:#ffffff;fill-opacity:1;stroke:none;stroke-width:1.01298;stroke-linecap:butt;stroke-linejoin:miter;stroke-miterlimit:4;stroke-dasharray:none;stroke-opacity:1;paint-order:stroke markers fill"
     d="M 62.990017,13.500158 31.2,13.500473 V 0.500315 L 63,0.5 62.99,13.500158 Z"
     sodipodi:nodetypes="cccccc" />
  <path
     id="path19560"
     style="fill:#0a090a;fill-opacity:1;stroke:none;stroke-width:1.01616;stroke-linecap:butt;stroke-linejoin:miter;stroke-miterlimit:4;stroke-dasharray:none;stroke-opacity:1;paint-order:stroke markers fill"
     d="M 62.989955,12.999843 31,13.000158 V 0 l 32,-3.15e-4 -0.01001,13.000158 z"
     sodipodi:nodetypes="cccccc" />
  <path
     id="path19562"
     style="fill:url(#linearGradient19566);fill-opacity:1;stroke:none;stroke-width:0.946607;stroke-linecap:butt;stroke-linejoin:miter;stroke-miterlimit:4;stroke-dasharray:none;stroke-opacity:1;paint-order:stroke markers fill"
     d="M 31.200003,0.413874 H 63.2 V 12.3 H 31.200001 L 31.2,0.413874 Z"
     sodipodi:nodetypes="sccccs" />
  <path
     id="path19564"
     style="fill:#959197;fill-opacity:1;stroke:none;stroke-width:0.616693;stroke-linecap:butt;stroke-linejoin:miter;stroke-miterlimit:4;stroke-dasharray:none;stroke-opacity:1;paint-order:stroke markers fill"
     d="m 31.200008,0.423513 -4e-6,0.496094 H 63.2 L 63.1935,0.423513 H 31.2 Z"
     sodipodi:nodetypes="cccccc" />
  <g
     id="g36294"
     transform="matrix(-1,0,0,1,93.97618,1.48e-4)">
    <path
       id="path36286"
       style="opacity:0.13;fill:#ffffff;fill-opacity:1;stroke:none;stroke-width:1.17249;stroke-linecap:butt;stroke-linejoin:miter;stroke-miterlimit:4;stroke-dasharray:none;stroke-opacity:1;paint-order:stroke markers fill"
       d="M 30.632395,13.499695 1.61745,13.5 C 0.7137299,13.500009 0,12.811824 0,11.936659 V 2.0800264 C 0,1.2048603 0.7275427,0.50031178 1.6312628,0.500305 L 30.646208,0.5 30.632388,13.499695 Z"
       sodipodi:nodetypes="cssssccc" />
    <path
       id="path36288"
       style="opacity:1;fill:#0a090a;fill-opacity:1;stroke:none;stroke-width:1.17236;stroke-linecap:butt;stroke-linejoin:miter;stroke-miterlimit:4;stroke-dasharray:none;stroke-opacity:1;paint-order:stroke markers fill"
       d="M 30.98619,12.999695 1.6170895,13 C 0.71357084,13.000009 0,12.311824 0,11.436659 V 1.5800264 C 0,0.70486028 0.72738056,3.1177712e-4 1.6308993,3.0499935e-4 L 31,0 30.986183,12.999695 Z"
       sodipodi:nodetypes="cssssccc" />
    <path
       id="path36290"
       style="opacity:1;fill:url(#linearGradient36296);fill-opacity:1;stroke:none;stroke-width:1.11;stroke-linecap:butt;stroke-linejoin:miter;stroke-miterlimit:4;stroke-dasharray:none;stroke-opacity:1;paint-order:stroke markers fill"
       d="M 1.846436,0.414189 H 30.630423 L 30.630419,12.3 H 1.846432 C 1.055871,12.3 0.419427,11.606905 0.419427,10.816345 V 1.841193 c 0,-0.79056 0.636444,-1.427004 1.427005,-1.427004 z"
       sodipodi:nodetypes="sccsssss" />
    <path
       id="path36292"
       style="opacity:1;fill:#8d898f;fill-opacity:1;stroke:none;stroke-width:0.723173;stroke-linecap:butt;stroke-linejoin:miter;stroke-miterlimit:4;stroke-dasharray:none;stroke-opacity:1;paint-order:stroke markers fill"
       d="M 1.695312,0.423828 C 1.41184,0.424005 0.886501,0.65817 0.619141,1.121094 0.347168,1.591999 0.414062,1.897199 0.414062,1.943359 c 0,0.05338 0.346778,-1.023437 1.265625,-1.023437 h 28.9372 l -0.0088,-0.496094 H 1.695301 Z"
       sodipodi:nodetypes="ccsccccc" />
  </g>
  <g
     id="g36312"
     transform="translate(0,14.000315)">
    <path
       id="path36304"
       style="opacity:0.13;fill:#ffffff;fill-opacity:1;stroke:none;stroke-width:1.17249;stroke-linecap:butt;stroke-linejoin:miter;stroke-miterlimit:4;stroke-dasharray:none;stroke-opacity:1;paint-order:stroke markers fill"
       d="M 30.632395,13.499695 1.61745,13.5 C 0.7137299,13.500009 0,12.811824 0,11.936659 V 2.0800264 C 0,1.2048603 0.7275427,0.50031178 1.6312628,0.500305 L 30.646208,0.5 30.632388,13.499695 Z"
       sodipodi:nodetypes="cssssccc" />
    <path
       id="path36306"
       style="opacity:1;fill:#0a090a;fill-opacity:1;stroke:none;stroke-width:1.17236;stroke-linecap:butt;stroke-linejoin:miter;stroke-miterlimit:4;stroke-dasharray:none;stroke-opacity:1;paint-order:stroke markers fill"
       d="M 30.98619,12.999695 1.6170895,13 C 0.71357084,13.000009 0,12.311824 0,11.436659 V 1.5800264 C 0,0.70486028 0.72738056,3.1177712e-4 1.6308993,3.0499935e-4 L 31,0 30.986183,12.999695 Z"
       sodipodi:nodetypes="cssssccc" />
    <path
       id="path36308"
       style="opacity:1;fill:url(#linearGradient36338);fill-opacity:1;stroke:none;stroke-width:1.11;stroke-linecap:butt;stroke-linejoin:miter;stroke-miterlimit:4;stroke-dasharray:none;stroke-opacity:1;paint-order:stroke markers fill"
       d="M 1.846436,0.414189 H 30.630423 L 30.630419,12.3 H 1.846432 C 1.055871,12.3 0.419427,11.606905 0.419427,10.816345 V 1.841193 c 0,-0.79056 0.636444,-1.427004 1.427005,-1.427004 z"
       sodipodi:nodetypes="sccsssss" />
    <path
       id="path36310"
       style="opacity:1;fill:#8d898f;fill-opacity:1;stroke:none;stroke-width:0.723173;stroke-linecap:butt;stroke-linejoin:miter;stroke-miterlimit:4;stroke-dasharray:none;stroke-opacity:1;paint-order:stroke markers fill"
       d="M 1.695312,0.423828 C 1.41184,0.424005 0.886501,0.65817 0.619141,1.121094 0.347168,1.591999 0.414062,1.897199 0.414062,1.943359 c 0,0.05338 0.346778,-1.023437 1.265625,-1.023437 h 28.9372 l -0.0088,-0.496094 H 1.695301 Z"
       sodipodi:nodetypes="ccsccccc" />
  </g>
  <path
     id="path36314"
     style="opacity:0.13;fill:#ffffff;fill-opacity:1;stroke:none;stroke-width:1.01298;stroke-linecap:butt;stroke-linejoin:miter;stroke-miterlimit:4;stroke-dasharray:none;stroke-opacity:1;paint-order:stroke markers fill"
     d="M 62.990017,27.500473 31.2,27.500788 V 14.50063 L 63,14.500315 62.99,27.500473 Z"
     sodipodi:nodetypes="cccccc" />
  <path
     id="path36316"
     style="fill:#0a090a;fill-opacity:1;stroke:none;stroke-width:1.01616;stroke-linecap:butt;stroke-linejoin:miter;stroke-miterlimit:4;stroke-dasharray:none;stroke-opacity:1;paint-order:stroke markers fill"
     d="M 62.989955,27.000158 31,27.000473 V 14.000315 L 63,14 62.98999,27.000158 Z"
     sodipodi:nodetypes="cccccc" />
  <path
     id="path36318"
     style="fill:#413f40;fill-opacity:1;stroke:none;stroke-width:0.946607;stroke-linecap:butt;stroke-linejoin:miter;stroke-miterlimit:4;stroke-dasharray:none;stroke-opacity:1;paint-order:stroke markers fill"
     d="M 31.200003,14.414189 H 63.2 V 26.300315 H 31.200001 L 31.2,14.414189 Z"
     sodipodi:nodetypes="sccccs" />
  <g
     id="g36332"
     transform="matrix(-1,0,0,1,94,14.000315)">
    <path
       id="path36324"
       style="opacity:0.13;fill:#ffffff;fill-opacity:1;stroke:none;stroke-width:1.17249;stroke-linecap:butt;stroke-linejoin:miter;stroke-miterlimit:4;stroke-dasharray:none;stroke-opacity:1;paint-order:stroke markers fill"
       d="M 30.632395,13.499695 1.61745,13.5 C 0.7137299,13.500009 0,12.811824 0,11.936659 V 2.0800264 C 0,1.2048603 0.7275427,0.50031178 1.6312628,0.500305 L 30.646208,0.5 30.632388,13.499695 Z"
       sodipodi:nodetypes="cssssccc" />
    <path
       id="path36326"
       style="opacity:1;fill:#0a090a;fill-opacity:1;stroke:none;stroke-width:1.17236;stroke-linecap:butt;stroke-linejoin:miter;stroke-miterlimit:4;stroke-dasharray:none;stroke-opacity:1;paint-order:stroke markers fill"
       d="M 30.98619,12.999695 1.6170895,13 C 0.71357084,13.000009 0,12.311824 0,11.436659 V 1.5800264 C 0,0.70486028 0.72738056,3.1177712e-4 1.6308993,3.0499935e-4 L 31,0 30.986183,12.999695 Z"
       sodipodi:nodetypes="cssssccc" />
    <path
       id="path36328"
       style="opacity:1;fill:url(#linearGradient36334);fill-opacity:1;stroke:none;stroke-width:1.11;stroke-linecap:butt;stroke-linejoin:miter;stroke-miterlimit:4;stroke-dasharray:none;stroke-opacity:1;paint-order:stroke markers fill"
       d="M 1.846436,0.414189 H 30.630423 L 30.630419,12.3 H 1.846432 C 1.055871,12.3 0.419427,11.606905 0.419427,10.816345 V 1.841193 c 0,-0.79056 0.636444,-1.427004 1.427005,-1.427004 z"
       sodipodi:nodetypes="sccsssss" />
    <path
       id="path36330"
       style="opacity:1;fill:#8d898f;fill-opacity:1;stroke:none;stroke-width:0.723173;stroke-linecap:butt;stroke-linejoin:miter;stroke-miterlimit:4;stroke-dasharray:none;stroke-opacity:1;paint-order:stroke markers fill"
       d="M 1.695312,0.423828 C 1.41184,0.424005 0.886501,0.65817 0.619141,1.121094 0.347168,1.591999 0.414062,1.897199 0.414062,1.943359 c 0,0.05338 0.346778,-1.023437 1.265625,-1.023437 h 28.9372 l -0.0088,-0.496094 H 1.695301 Z"
       sodipodi:nodetypes="ccsccccc" />
  </g>
  <g
     id="g36348"
     transform="translate(0,28.000315)">
    <path
       id="path36340"
       style="opacity:0.13;fill:#ffffff;fill-opacity:1;stroke:none;stroke-width:1.17249;stroke-linecap:butt;stroke-linejoin:miter;stroke-miterlimit:4;stroke-dasharray:none;stroke-opacity:1;paint-order:stroke markers fill"
       d="M 30.632395,13.499695 1.61745,13.5 C 0.7137299,13.500009 0,12.811824 0,11.936659 V 2.0800264 C 0,1.2048603 0.7275427,0.50031178 1.6312628,0.500305 L 30.646208,0.5 30.632388,13.499695 Z"
       sodipodi:nodetypes="cssssccc" />
    <path
       id="path36342"
       style="opacity:1;fill:#0a090a;fill-opacity:1;stroke:none;stroke-width:1.17236;stroke-linecap:butt;stroke-linejoin:miter;stroke-miterlimit:4;stroke-dasharray:none;stroke-opacity:1;paint-order:stroke markers fill"
       d="M 30.98619,12.999695 1.6170895,13 C 0.71357084,13.000009 0,12.311824 0,11.436659 V 1.5800264 C 0,0.70486028 0.72738056,3.1177712e-4 1.6308993,3.0499935e-4 L 31,0 30.986183,12.999695 Z"
       sodipodi:nodetypes="cssssccc" />
    <path
       id="path36344"
       style="opacity:1;fill:url(#linearGradient36374);fill-opacity:1;stroke:none;stroke-width:1.11;stroke-linecap:butt;stroke-linejoin:miter;stroke-miterlimit:4;stroke-dasharray:none;stroke-opacity:1;paint-order:stroke markers fill"
       d="M 1.846436,0.414189 H 30.630423 L 30.630419,12.3 H 1.846432 C 1.055871,12.3 0.419427,11.606905 0.419427,10.816345 V 1.841193 c 0,-0.79056 0.636444,-1.427004 1.427005,-1.427004 z"
       sodipodi:nodetypes="sccsssss" />
    <path
       id="path36346"
       style="opacity:1;fill:#8d898f;fill-opacity:1;stroke:none;stroke-width:0.723173;stroke-linecap:butt;stroke-linejoin:miter;stroke-miterlimit:4;stroke-dasharray:none;stroke-opacity:1;paint-order:stroke markers fill"
       d="M 1.695312,0.423828 C 1.41184,0.424005 0.886501,0.65817 0.619141,1.121094 0.347168,1.591999 0.414062,1.897199 0.414062,1.943359 c 0,0.05338 0.346778,-1.023437 1.265625,-1.023437 h 28.9372 l -0.0088,-0.496094 H 1.695301 Z"
       sodipodi:nodetypes="ccsccccc" />
  </g>
  <path
     id="path36350"
     style="opacity:0.13;fill:#ffffff;fill-opacity:1;stroke:none;stroke-width:1.01298;stroke-linecap:butt;stroke-linejoin:miter;stroke-miterlimit:4;stroke-dasharray:none;stroke-opacity:1;paint-order:stroke markers fill"
     d="M 62.990017,41.500473 31.2,41.500788 V 28.50063 L 63,28.500315 62.99,41.500473 Z"
     sodipodi:nodetypes="cccccc" />
  <path
     id="path36352"
     style="fill:#0a090a;fill-opacity:1;stroke:none;stroke-width:1.01616;stroke-linecap:butt;stroke-linejoin:miter;stroke-miterlimit:4;stroke-dasharray:none;stroke-opacity:1;paint-order:stroke markers fill"
     d="M 62.989955,41.000158 31,41.000473 V 28.000315 L 63,28 62.98999,41.000158 Z"
     sodipodi:nodetypes="cccccc" />
  <path
     id="path36354"
     style="fill:url(#linearGradient36372);fill-opacity:1;stroke:none;stroke-width:0.946607;stroke-linecap:butt;stroke-linejoin:miter;stroke-miterlimit:4;stroke-dasharray:none;stroke-opacity:1;paint-order:stroke markers fill"
     d="M 31.200003,28.414189 H 63.2 V 40.300315 H 31.200001 L 31.2,28.414189 Z"
     sodipodi:nodetypes="sccccs" />
  <path
     id="path36356"
     style="fill:#959197;fill-opacity:1;stroke:none;stroke-width:0.616693;stroke-linecap:butt;stroke-linejoin:miter;stroke-miterlimit:4;stroke-dasharray:none;stroke-opacity:1;paint-order:stroke markers fill"
     d="m 31.200008,28.423828 -4e-6,0.496094 H 63.2 L 63.1935,28.423828 H 31.2 Z"
     sodipodi:nodetypes="cccccc" />
  <path
     id="path36360"
     style="opacity:0.13;fill:#ffffff;fill-opacity:1;stroke:none;stroke-width:1.17249;stroke-linecap:butt;stroke-linejoin:miter;stroke-miterlimit:4;stroke-dasharray:none;stroke-opacity:1;paint-order:stroke markers fill"
     d="m 63.367605,41.50001 29.014945,3.05e-4 C 93.28627,41.500324 94,40.812139 94,39.936974 v -9.856633 c 0,-0.875166 -0.727543,-1.579714 -1.631263,-1.579721 l -29.014945,-3.05e-4 0.01382,12.999695 z"
     sodipodi:nodetypes="cssssccc" />
  <path
     id="path36362"
     style="fill:#0a090a;fill-opacity:1;stroke:none;stroke-width:1.17236;stroke-linecap:butt;stroke-linejoin:miter;stroke-miterlimit:4;stroke-dasharray:none;stroke-opacity:1;paint-order:stroke markers fill"
     d="m 63.01381,41.00001 29.3691,3.05e-4 C 93.286429,41.000324 94,40.312139 94,39.436974 V 29.580341 C 94,28.705175 93.272619,28.000627 92.369101,28.00062 L 63,28.000315 63.013817,41.00001 Z"
     sodipodi:nodetypes="cssssccc" />
  <path
     id="path36364"
     style="fill:#413f40;fill-opacity:1;stroke:none;stroke-width:1.11;stroke-linecap:butt;stroke-linejoin:miter;stroke-miterlimit:4;stroke-dasharray:none;stroke-opacity:1;paint-order:stroke markers fill"
     d="M 92.153564,28.414504 H 63.369577 l 4e-6,11.885811 h 28.783987 c 0.790561,0 1.427005,-0.693095 1.427005,-1.483655 v -8.975152 c 0,-0.79056 -0.636444,-1.427004 -1.427005,-1.427004 z"
     sodipodi:nodetypes="sccsssss" />
  <g
     aria-label="Shift"
     id="text32"
     style="font-size:7.54181px;font-family:SFProText-Regular, 'SF Pro Text';fill:#e4dcd9;stroke-width:0.942726"
     class="e">
    <path
       d="m 42.878791,7.319584 q 0,0.3203796 -0.150983,0.6333942 -0.147301,0.3130146 -0.416125,0.5302835 -0.294602,0.2356816 -0.688633,0.3682525 -0.390347,0.1325709 -0.942726,0.1325709 -0.592886,0 -1.067932,-0.1104758 Q 39.141029,8.7631336 38.651253,8.5458647 V 7.6325986 h 0.05156 q 0.416125,0.3461573 0.961138,0.533966 0.545014,0.1878088 1.023742,0.1878088 0.677585,0 1.053202,-0.2540942 0.3793,-0.2540942 0.3793,-0.6775845 0,-0.3645699 -0.180443,-0.5376486 -0.176762,-0.1730786 -0.541332,-0.2688242 -0.276189,-0.073651 -0.600251,-0.1215233 -0.32038,-0.047873 -0.681267,-0.1215234 -0.72914,-0.154666 -1.082662,-0.5266009 -0.34984,-0.3756175 -0.34984,-0.975869 0,-0.6886321 0.581839,-1.1268525 0.581839,-0.4419029 1.476692,-0.4419029 0.578156,0 1.060567,0.1104757 0.482411,0.1104757 0.854346,0.2725068 v 0.8617107 h -0.05156 Q 42.29327,4.2815014 41.781399,4.1084227 41.273211,3.9316615 40.739245,3.9316615 q -0.585522,0 -0.942727,0.2430467 -0.353522,0.2430466 -0.353522,0.6260291 0,0.3424748 0.176761,0.5376486 0.176761,0.1951738 0.622347,0.2982845 0.235681,0.051555 0.670219,0.1252058 0.434538,0.073651 0.736505,0.1509835 0.611299,0.1620311 0.920631,0.4897757 0.309332,0.3277447 0.309332,0.9169486 z"
       style="fill:#e4dcd9;stroke-width:0.942726"
       id="path37145" />
    <path
       d="M 47.434074,8.8846569 H 46.741759 V 6.5425714 q 0,-0.2835544 -0.03314,-0.5302836 -0.03314,-0.2504116 -0.121524,-0.3903475 -0.09206,-0.1546661 -0.265141,-0.2283166 -0.173079,-0.077333 -0.449268,-0.077333 -0.283555,0 -0.592887,0.139936 -0.309332,0.1399359 -0.592886,0.3572048 v 3.0712254 h -0.692315 v -5.730008 h 0.692315 v 2.0732612 q 0.324062,-0.2688242 0.670219,-0.4198077 0.346158,-0.1509835 0.710727,-0.1509835 0.666537,0 1.016377,0.4013951 0.34984,0.4013952 0.34984,1.1563127 z"
       style="fill:#e4dcd9;stroke-width:0.942726"
       id="path37147" />
    <path
       d="M 49.511017,4.082645 H 48.730322 V 3.3645528 h 0.780695 z m -0.04419,4.8020119 H 48.774512 V 4.7712771 h 0.692315 z"
       style="fill:#e4dcd9;stroke-width:0.942726"
       id="path37149" />
    <path
       d="m 53.049924,3.8248683 h -0.03683 q -0.114158,-0.033143 -0.298284,-0.066285 -0.184126,-0.036825 -0.324062,-0.036825 -0.445586,0 -0.648125,0.1988563 -0.198856,0.1951738 -0.198856,0.7107272 v 0.1399359 h 1.248376 V 5.353116 H 51.565866 V 8.8846569 H 50.873552 V 5.353116 H 50.405871 V 4.7712771 h 0.467681 V 4.6350237 q 0,-0.7328223 0.36457,-1.1231699 0.36457,-0.3940302 1.053202,-0.3940302 0.231999,0 0.416125,0.022095 0.187809,0.022095 0.342475,0.051555 z"
       style="fill:#e4dcd9;stroke-width:0.942726"
       id="path37151" />
    <path
       d="m 55.624008,8.8478317 q -0.195173,0.051555 -0.427173,0.084698 -0.228316,0.033143 -0.40876,0.033143 -0.629711,0 -0.957456,-0.3387922 Q 53.502874,8.2880879 53.502874,7.5405355 V 5.353116 h -0.46768 V 4.7712771 h 0.46768 V 3.5891868 h 0.692315 v 1.1820903 h 1.428819 V 5.353116 h -1.428819 v 1.8744049 q 0,0.3240622 0.01473,0.5081884 0.01473,0.1804437 0.103111,0.3387922 0.08102,0.147301 0.220951,0.217269 0.143619,0.066285 0.434538,0.066285 0.169396,0 0.353522,-0.047873 0.184127,-0.051555 0.265142,-0.084698 h 0.03683 z"
       style="fill:#e4dcd9;stroke-width:0.942726"
       id="path37153" />
  </g>
  <g
     aria-label="Draw"
     id="text50"
     style="font-size:7.6914px;font-family:SFProText-Regular, 'SF Pro Text';fill:#e4dcd9;stroke-width:0.961424"
     class="h"
     transform="matrix(0.96097918,0,0,0.96097918,3.0005976,0.1368735)">
    <path
       d="m 73.630012,6.309357 q 0,0.76238 -0.334245,1.3820485 -0.33049,0.6196684 -0.882559,0.961425 -0.383067,0.2366007 -0.856269,0.3417565 -0.469446,0.1051559 -1.239337,0.1051559 H 68.905509 V 3.5077045 h 1.397071 q 0.818714,0 1.299426,0.1201781 0.484468,0.1164226 0.818714,0.3229787 0.570846,0.3567788 0.890069,0.9501583 0.319223,0.5933795 0.319223,1.4083374 z M 72.85261,6.2980903 q 0,-0.6572241 -0.22909,-1.1078921 -0.229089,-0.4506679 -0.683513,-0.709802 -0.33049,-0.1877783 -0.702291,-0.2591341 -0.371801,-0.075111 -0.890069,-0.075111 h -0.698536 v 4.3151458 h 0.698536 q 0.537046,0 0.935136,-0.078867 0.401846,-0.078867 0.736091,-0.2929342 0.416868,-0.2666452 0.623424,-0.7022909 0.210312,-0.4356457 0.210312,-1.0891145 z"
       style="stroke-width:0.961424"
       id="path37178" />
    <path
       d="m 77.393089,5.6746663 h -0.03755 Q 77.1978,5.6371106 77.047577,5.6220884 76.90111,5.6033105 76.69831,5.6033105 q -0.326735,0 -0.630935,0.1464671 -0.304201,0.1427116 -0.585869,0.3718011 V 9.0997429 H 74.77546 V 4.9047752 h 0.706046 v 0.6196684 q 0.420624,-0.3380009 0.739847,-0.4769569 0.322978,-0.1427115 0.657224,-0.1427115 0.184023,0 0.266645,0.011267 0.08262,0.00751 0.247867,0.0338 z"
       style="stroke-width:0.961424"
       id="path37180" />
    <path
       d="M 81.182456,9.0997429 H 80.480165 V 8.6528305 q -0.09389,0.063845 -0.255379,0.1802672 -0.157734,0.112667 -0.307956,0.1802672 -0.176512,0.086378 -0.405601,0.1427115 -0.22909,0.060089 -0.537046,0.060089 -0.567091,0 -0.961425,-0.3755566 -0.394335,-0.3755566 -0.394335,-0.9576694 0,-0.476957 0.202801,-0.7698912 0.206556,-0.2966897 0.585868,-0.4656902 0.383068,-0.1690005 0.920114,-0.2290895 0.537046,-0.060089 1.152959,-0.090134 V 6.2192234 q 0,-0.2403562 -0.08638,-0.39809 Q 80.311164,5.6633996 80.15343,5.573266 80.003208,5.486888 79.792896,5.4568435 q -0.210312,-0.030045 -0.439401,-0.030045 -0.277912,0 -0.619669,0.075111 Q 78.39207,5.573266 78.02778,5.712222 H 77.99022 V 4.9949088 q 0.206556,-0.056334 0.597135,-0.1239337 0.390579,-0.0676 0.769891,-0.0676 0.443157,0 0.769892,0.075111 0.330489,0.071356 0.570846,0.2478674 0.2366,0.1727561 0.360534,0.4469124 0.123934,0.2741564 0.123934,0.6797575 z M 80.480165,8.0669621 V 6.898981 q -0.322979,0.018778 -0.76238,0.056334 -0.435646,0.037556 -0.691024,0.1089114 -0.304201,0.086378 -0.49198,0.2704008 -0.187778,0.1802672 -0.187778,0.4994903 0,0.3605344 0.217823,0.5445571 0.217823,0.1802672 0.664735,0.1802672 0.371801,0 0.679758,-0.1427115 0.307956,-0.1464671 0.570846,-0.3492682 z"
       style="stroke-width:0.961424"
       id="path37182" />
    <path
       d="m 87.780986,4.9047752 -1.09287,4.1949677 H 86.034647 L 84.9568,5.8662002 83.886463,9.0997429 H 83.23675 L 82.132614,4.9047752 h 0.736091 l 0.769891,3.2485649 1.047803,-3.2485649 h 0.582113 l 1.074092,3.2485649 0.72858,-3.2485649 z"
       style="stroke-width:0.961424"
       id="path37184" />
  </g>
  <g
     aria-label="Single"
     id="g36400"
     style="font-size:8px;font-family:SFProText-Regular, 'SF Pro Text';fill:#e4dcd9"
     class="h"
     transform="matrix(0.90832122,0,0,0.90832122,-3.7962982,14.777832)">
    <path
       d="m 13.855705,7.190649 q 0,0.3398438 -0.160156,0.671875 -0.15625,0.3320313 -0.441406,0.5625 -0.3125,0.25 -0.730469,0.390625 -0.414062,0.140625 -1,0.140625 -0.628906,0 -1.132812,-0.1171875 Q 9.8908615,8.721899 9.3713303,8.4914303 v -0.96875 h 0.054687 q 0.4414062,0.3671875 1.0195307,0.5664062 0.578125,0.1992188 1.085939,0.1992188 0.71875,0 1.117186,-0.2695313 0.402344,-0.2695312 0.402344,-0.71875 0,-0.3867187 -0.191406,-0.5703125 Q 12.672112,6.5461178 12.285393,6.4445553 11.992424,6.3664303 11.648674,6.315649 11.30883,6.2648678 10.926018,6.1867428 10.15258,6.0226803 9.7775803,5.628149 9.4064865,5.2297115 9.4064865,4.5929928 q 0,-0.7304688 0.6171875,-1.1953125 0.617188,-0.46875 1.566406,-0.46875 0.613282,0 1.125,0.1171875 0.511719,0.1171875 0.90625,0.2890625 v 0.9140625 h -0.05469 q -0.332031,-0.28125 -0.875,-0.4648438 -0.539063,-0.1875 -1.105469,-0.1875 -0.621094,0 -1,0.2578125 -0.375,0.2578125 -0.375,0.6640625 0,0.3632813 0.1875,0.5703125 0.1875,0.2070313 0.660156,0.3164063 0.25,0.054687 0.710938,0.1328125 0.460937,0.078125 0.78125,0.1601562 0.648437,0.171875 0.976562,0.5195313 0.328125,0.3476562 0.328125,0.9726562 z"
       id="path36388" />
    <path
       d="M 15.828362,3.7570553 H 15.000237 V 2.9953365 h 0.828125 z m -0.04687,5.09375 h -0.73438 V 4.487524 h 0.734375 z"
       id="path36390" />
    <path
       d="m 20.883049,8.8508053 h -0.734375 v -2.484375 q 0,-0.3007813 -0.03516,-0.5625 -0.03516,-0.265625 -0.128906,-0.4140625 -0.09766,-0.1640625 -0.28125,-0.2421875 -0.183594,-0.082031 -0.476563,-0.082031 -0.300781,0 -0.628906,0.1484375 -0.328125,0.1484375 -0.628906,0.3789063 V 8.8508053 H 17.234612 V 4.487524 h 0.734375 v 0.484375 q 0.34375,-0.2851562 0.710937,-0.4453125 0.367188,-0.1601562 0.753906,-0.1601562 0.707032,0 1.078125,0.4257812 0.371094,0.4257813 0.371094,1.2265625 z"
       id="path36392" />
    <path
       d="m 25.836174,8.3547115 q 0,1.109375 -0.503906,1.6289063 -0.503906,0.5195312 -1.550781,0.5195312 -0.347657,0 -0.679688,-0.05078 -0.328125,-0.04687 -0.648437,-0.136719 v -0.75 h 0.03906 q 0.179688,0.070312 0.570313,0.171875 0.390625,0.1054688 0.78125,0.1054688 0.375,0 0.621093,-0.089844 0.246094,-0.089844 0.382813,-0.25 0.136719,-0.1523437 0.195312,-0.3671875 0.05859,-0.2148437 0.05859,-0.4804687 V 8.2570553 q -0.332031,0.265625 -0.636719,0.3984375 -0.300781,0.1289062 -0.769531,0.1289062 -0.78125,0 -1.242187,-0.5625 -0.457032,-0.5664062 -0.457032,-1.59375 0,-0.5625 0.15625,-0.96875 0.160157,-0.4101562 0.433594,-0.7070312 0.253906,-0.2773438 0.617188,-0.4296875 0.363281,-0.15625 0.722656,-0.15625 0.378906,0 0.632812,0.078125 0.257813,0.074219 0.542969,0.2304687 l 0.04687,-0.1875 h 0.6875 z M 25.101799,7.6515865 V 5.2726803 q -0.292969,-0.1328125 -0.546875,-0.1875 -0.25,-0.058594 -0.5,-0.058594 -0.605469,0 -0.953125,0.40625 -0.347656,0.40625 -0.347656,1.1796875 0,0.734375 0.257812,1.1132813 0.257813,0.3789062 0.855469,0.3789062 0.320313,0 0.640625,-0.1210937 0.324219,-0.125 0.59375,-0.3320311 z"
       id="path36394" />
    <path
       d="m 28.023674,8.8508053 h -0.734375 v -6.078125 h 0.734375 z"
       id="path36396" />
    <path
       d="m 33.129143,6.7453365 h -3.214844 q 0,0.4023438 0.121094,0.703125 0.121094,0.296875 0.332031,0.4882813 0.203125,0.1875 0.480469,0.28125 0.28125,0.09375 0.617187,0.09375 0.445313,0 0.894532,-0.1757813 0.453125,-0.1796875 0.644531,-0.3515625 h 0.03906 v 0.8007813 q -0.371093,0.15625 -0.757812,0.2617187 -0.386719,0.1054688 -0.8125,0.1054688 -1.085938,0 -1.695313,-0.5859375 -0.609375,-0.5898438 -0.609375,-1.671875 0,-1.0703125 0.582032,-1.6992188 0.585937,-0.6289062 1.539062,-0.6289062 0.882813,0 1.359375,0.515625 0.480469,0.515625 0.480469,1.4648437 z m -0.714844,-0.5625 Q 32.410393,5.6047115 32.12133,5.2883053 31.836174,4.971899 31.250237,4.971899 q -0.589844,0 -0.941407,0.3476563 -0.347656,0.3476562 -0.394531,0.8632812 z"
       id="path36398" />
  </g>
  <g
     aria-label="Single"
     id="g36422"
     style="font-size:8px;font-family:SFProText-Regular, 'SF Pro Text';fill:#e4dcd9"
     class="h"
     transform="matrix(0.90832122,0,0,0.90832122,-3.7962982,28.777833)">
    <path
       d="m 13.855705,7.190649 q 0,0.3398438 -0.160156,0.671875 -0.15625,0.3320313 -0.441406,0.5625 -0.3125,0.25 -0.730469,0.390625 -0.414062,0.140625 -1,0.140625 -0.628906,0 -1.132812,-0.1171875 Q 9.8908615,8.721899 9.3713303,8.4914303 v -0.96875 h 0.054687 q 0.4414062,0.3671875 1.0195307,0.5664062 0.578125,0.1992188 1.085939,0.1992188 0.71875,0 1.117186,-0.2695313 0.402344,-0.2695312 0.402344,-0.71875 0,-0.3867187 -0.191406,-0.5703125 Q 12.672112,6.5461178 12.285393,6.4445553 11.992424,6.3664303 11.648674,6.315649 11.30883,6.2648678 10.926018,6.1867428 10.15258,6.0226803 9.7775803,5.628149 9.4064865,5.2297115 9.4064865,4.5929928 q 0,-0.7304688 0.6171875,-1.1953125 0.617188,-0.46875 1.566406,-0.46875 0.613282,0 1.125,0.1171875 0.511719,0.1171875 0.90625,0.2890625 v 0.9140625 h -0.05469 q -0.332031,-0.28125 -0.875,-0.4648438 -0.539063,-0.1875 -1.105469,-0.1875 -0.621094,0 -1,0.2578125 -0.375,0.2578125 -0.375,0.6640625 0,0.3632813 0.1875,0.5703125 0.1875,0.2070313 0.660156,0.3164063 0.25,0.054687 0.710938,0.1328125 0.460937,0.078125 0.78125,0.1601562 0.648437,0.171875 0.976562,0.5195313 0.328125,0.3476562 0.328125,0.9726562 z"
       id="path36410" />
    <path
       d="M 15.828362,3.7570553 H 15.000237 V 2.9953365 h 0.828125 z m -0.04687,5.09375 h -0.73438 V 4.487524 h 0.734375 z"
       id="path36412" />
    <path
       d="m 20.883049,8.8508053 h -0.734375 v -2.484375 q 0,-0.3007813 -0.03516,-0.5625 -0.03516,-0.265625 -0.128906,-0.4140625 -0.09766,-0.1640625 -0.28125,-0.2421875 -0.183594,-0.082031 -0.476563,-0.082031 -0.300781,0 -0.628906,0.1484375 -0.328125,0.1484375 -0.628906,0.3789063 V 8.8508053 H 17.234612 V 4.487524 h 0.734375 v 0.484375 q 0.34375,-0.2851562 0.710937,-0.4453125 0.367188,-0.1601562 0.753906,-0.1601562 0.707032,0 1.078125,0.4257812 0.371094,0.4257813 0.371094,1.2265625 z"
       id="path36414" />
    <path
       d="m 25.836174,8.3547115 q 0,1.109375 -0.503906,1.6289063 -0.503906,0.5195312 -1.550781,0.5195312 -0.347657,0 -0.679688,-0.05078 -0.328125,-0.04687 -0.648437,-0.136719 v -0.75 h 0.03906 q 0.179688,0.070312 0.570313,0.171875 0.390625,0.1054688 0.78125,0.1054688 0.375,0 0.621093,-0.089844 0.246094,-0.089844 0.382813,-0.25 0.136719,-0.1523437 0.195312,-0.3671875 0.05859,-0.2148437 0.05859,-0.4804687 V 8.2570553 q -0.332031,0.265625 -0.636719,0.3984375 -0.300781,0.1289062 -0.769531,0.1289062 -0.78125,0 -1.242187,-0.5625 -0.457032,-0.5664062 -0.457032,-1.59375 0,-0.5625 0.15625,-0.96875 0.160157,-0.4101562 0.433594,-0.7070312 0.253906,-0.2773438 0.617188,-0.4296875 0.363281,-0.15625 0.722656,-0.15625 0.378906,0 0.632812,0.078125 0.257813,0.074219 0.542969,0.2304687 l 0.04687,-0.1875 h 0.6875 z M 25.101799,7.6515865 V 5.2726803 q -0.292969,-0.1328125 -0.546875,-0.1875 -0.25,-0.058594 -0.5,-0.058594 -0.605469,0 -0.953125,0.40625 -0.347656,0.40625 -0.347656,1.1796875 0,0.734375 0.257812,1.1132813 0.257813,0.3789062 0.855469,0.3789062 0.320313,0 0.640625,-0.1210937 0.324219,-0.125 0.59375,-0.3320311 z"
       id="path36416" />
    <path
       d="m 28.023674,8.8508053 h -0.734375 v -6.078125 h 0.734375 z"
       id="path36418" />
    <path
       d="m 33.129143,6.7453365 h -3.214844 q 0,0.4023438 0.121094,0.703125 0.121094,0.296875 0.332031,0.4882813 0.203125,0.1875 0.480469,0.28125 0.28125,0.09375 0.617187,0.09375 0.445313,0 0.894532,-0.1757813 0.453125,-0.1796875 0.644531,-0.3515625 h 0.03906 v 0.8007813 q -0.371093,0.15625 -0.757812,0.2617187 -0.386719,0.1054688 -0.8125,0.1054688 -1.085938,0 -1.695313,-0.5859375 -0.609375,-0.5898438 -0.609375,-1.671875 0,-1.0703125 0.582032,-1.6992188 0.585937,-0.6289062 1.539062,-0.6289062 0.882813,0 1.359375,0.515625 0.480469,0.515625 0.480469,1.4648437 z m -0.714844,-0.5625 Q 32.410393,5.6047115 32.12133,5.2883053 31.836174,4.971899 31.250237,4.971899 q -0.589844,0 -0.941407,0.3476563 -0.347656,0.3476562 -0.394531,0.8632812 z"
       id="path36420" />
  </g>
  <g
     aria-label="Shift"
     id="g37235"
     style="font-size:7.54181px;font-family:SFProText-Regular, 'SF Pro Text';fill:#fce237;stroke-width:0.942726"
     class="e"
     transform="translate(0,14.000176)">
    <path
       d="m 42.878791,7.319584 q 0,0.3203796 -0.150983,0.6333942 -0.147301,0.3130146 -0.416125,0.5302835 -0.294602,0.2356816 -0.688633,0.3682525 -0.390347,0.1325709 -0.942726,0.1325709 -0.592886,0 -1.067932,-0.1104758 Q 39.141029,8.7631336 38.651253,8.5458647 V 7.6325986 h 0.05156 q 0.416125,0.3461573 0.961138,0.533966 0.545014,0.1878088 1.023742,0.1878088 0.677585,0 1.053202,-0.2540942 0.3793,-0.2540942 0.3793,-0.6775845 0,-0.3645699 -0.180443,-0.5376486 Q 41.76299,6.7119675 41.39842,6.6162219 41.122231,6.5425709 40.798169,6.4946986 40.477789,6.4468256 40.116902,6.3731752 39.387762,6.2185092 39.03424,5.8465743 38.6844,5.4709568 38.6844,4.8707053 q 0,-0.6886321 0.581839,-1.1268525 0.581839,-0.4419029 1.476692,-0.4419029 0.578156,0 1.060567,0.1104757 0.482411,0.1104757 0.854346,0.2725068 v 0.8617107 h -0.05156 Q 42.29327,4.2815014 41.781399,4.1084227 41.273211,3.9316615 40.739245,3.9316615 q -0.585522,0 -0.942727,0.2430467 -0.353522,0.2430466 -0.353522,0.6260291 0,0.3424748 0.176761,0.5376486 0.176761,0.1951738 0.622347,0.2982845 0.235681,0.051555 0.670219,0.1252058 0.434538,0.073651 0.736505,0.1509835 0.611299,0.1620311 0.920631,0.4897757 0.309332,0.3277447 0.309332,0.9169486 z"
       style="fill:#fce237;stroke-width:0.942726"
       id="path37225" />
    <path
       d="M 47.434074,8.8846569 H 46.741759 V 6.5425714 q 0,-0.2835544 -0.03314,-0.5302836 -0.03314,-0.2504116 -0.121524,-0.3903475 -0.09206,-0.1546661 -0.265141,-0.2283166 -0.173079,-0.077333 -0.449268,-0.077333 -0.283555,0 -0.592887,0.139936 -0.309332,0.1399359 -0.592886,0.3572048 v 3.0712254 h -0.692315 v -5.730008 h 0.692315 v 2.0732612 q 0.324062,-0.2688242 0.670219,-0.4198077 0.346158,-0.1509835 0.710727,-0.1509835 0.666537,0 1.016377,0.4013951 0.34984,0.4013952 0.34984,1.1563127 z"
       style="fill:#fce237;stroke-width:0.942726"
       id="path37227" />
    <path
       d="M 49.511017,4.082645 H 48.730322 V 3.3645528 h 0.780695 z m -0.04419,4.8020119 H 48.774512 V 4.7712771 h 0.692315 z"
       style="fill:#fce237;stroke-width:0.942726"
       id="path37229" />
    <path
       d="m 53.049924,3.8248683 h -0.03683 q -0.114158,-0.033143 -0.298284,-0.066285 -0.184126,-0.036825 -0.324062,-0.036825 -0.445586,0 -0.648125,0.1988563 -0.198856,0.1951738 -0.198856,0.7107272 v 0.1399359 h 1.248376 V 5.353116 H 51.565866 V 8.8846569 H 50.873552 V 5.353116 H 50.405871 V 4.7712771 h 0.467681 V 4.6350237 q 0,-0.7328223 0.36457,-1.1231699 0.36457,-0.3940302 1.053202,-0.3940302 0.231999,0 0.416125,0.022095 0.187809,0.022095 0.342475,0.051555 z"
       style="fill:#fce237;stroke-width:0.942726"
       id="path37231" />
    <path
       d="m 55.624008,8.8478317 q -0.195173,0.051555 -0.427173,0.084698 -0.228316,0.033143 -0.40876,0.033143 -0.629711,0 -0.957456,-0.3387922 -0.327745,-0.3387926 -0.327745,-1.086345 V 5.353116 h -0.46768 V 4.7712771 h 0.46768 V 3.5891868 h 0.692315 v 1.1820903 h 1.428819 V 5.353116 h -1.428819 v 1.8744049 q 0,0.3240622 0.01473,0.5081884 0.01473,0.1804437 0.103111,0.3387922 0.08102,0.147301 0.220951,0.217269 0.143619,0.066285 0.434538,0.066285 0.169396,0 0.353522,-0.047873 0.184127,-0.051555 0.265142,-0.084698 h 0.03683 z"
       style="fill:#fce237;stroke-width:0.942726"
       id="path37233" />
  </g>
  <g
     aria-label="Draw"
     id="g37245"
     style="font-size:7.6914px;font-family:SFProText-Regular, 'SF Pro Text';fill:#e4dcd9;stroke-width:0.961424"
     class="h"
     transform="matrix(0.96097918,0,0,0.96097918,3.0005976,14.13705)">
    <path
       d="m 73.630012,6.309357 q 0,0.76238 -0.334245,1.3820485 -0.33049,0.6196684 -0.882559,0.961425 -0.383067,0.2366007 -0.856269,0.3417565 -0.469446,0.1051559 -1.239337,0.1051559 H 68.905509 V 3.5077045 h 1.397071 q 0.818714,0 1.299426,0.1201781 0.484468,0.1164226 0.818714,0.3229787 0.570846,0.3567788 0.890069,0.9501583 0.319223,0.5933795 0.319223,1.4083374 z M 72.85261,6.2980903 q 0,-0.6572241 -0.22909,-1.1078921 -0.229089,-0.4506679 -0.683513,-0.709802 -0.33049,-0.1877783 -0.702291,-0.2591341 -0.371801,-0.075111 -0.890069,-0.075111 h -0.698536 v 4.3151458 h 0.698536 q 0.537046,0 0.935136,-0.078867 0.401846,-0.078867 0.736091,-0.2929342 0.416868,-0.2666452 0.623424,-0.7022909 0.210312,-0.4356457 0.210312,-1.0891145 z"
       style="stroke-width:0.961424"
       id="path37237" />
    <path
       d="m 77.393089,5.6746663 h -0.03755 Q 77.1978,5.6371106 77.047577,5.6220884 76.90111,5.6033105 76.69831,5.6033105 q -0.326735,0 -0.630935,0.1464671 -0.304201,0.1427116 -0.585869,0.3718011 V 9.0997429 H 74.77546 V 4.9047752 h 0.706046 v 0.6196684 q 0.420624,-0.3380009 0.739847,-0.4769569 0.322978,-0.1427115 0.657224,-0.1427115 0.184023,0 0.266645,0.011267 0.08262,0.00751 0.247867,0.0338 z"
       style="stroke-width:0.961424"
       id="path37239" />
    <path
       d="M 81.182456,9.0997429 H 80.480165 V 8.6528305 q -0.09389,0.063845 -0.255379,0.1802672 -0.157734,0.112667 -0.307956,0.1802672 -0.176512,0.086378 -0.405601,0.1427115 -0.22909,0.060089 -0.537046,0.060089 -0.567091,0 -0.961425,-0.3755566 -0.394335,-0.3755566 -0.394335,-0.9576694 0,-0.476957 0.202801,-0.7698912 0.206556,-0.2966897 0.585868,-0.4656902 0.383068,-0.1690005 0.920114,-0.2290895 0.537046,-0.060089 1.152959,-0.090134 V 6.2192234 q 0,-0.2403562 -0.08638,-0.39809 Q 80.311164,5.6633996 80.15343,5.573266 80.003208,5.486888 79.792896,5.4568435 q -0.210312,-0.030045 -0.439401,-0.030045 -0.277912,0 -0.619669,0.075111 Q 78.39207,5.573266 78.02778,5.712222 H 77.99022 V 4.9949088 q 0.206556,-0.056334 0.597135,-0.1239337 0.390579,-0.0676 0.769891,-0.0676 0.443157,0 0.769892,0.075111 0.330489,0.071356 0.570846,0.2478674 0.2366,0.1727561 0.360534,0.4469124 0.123934,0.2741564 0.123934,0.6797575 z M 80.480165,8.0669621 V 6.898981 q -0.322979,0.018778 -0.76238,0.056334 -0.435646,0.037556 -0.691024,0.1089114 -0.304201,0.086378 -0.49198,0.2704008 -0.187778,0.1802672 -0.187778,0.4994903 0,0.3605344 0.217823,0.5445571 0.217823,0.1802672 0.664735,0.1802672 0.371801,0 0.679758,-0.1427115 0.307956,-0.1464671 0.570846,-0.3492682 z"
       style="stroke-width:0.961424"
       id="path37241" />
    <path
       d="m 87.780986,4.9047752 -1.09287,4.1949677 H 86.034647 L 84.9568,5.8662002 83.886463,9.0997429 H 83.23675 L 82.132614,4.9047752 h 0.736091 l 0.769891,3.2485649 1.047803,-3.2485649 h 0.582113 l 1.074092,3.2485649 0.72858,-3.2485649 z"
       style="stroke-width:0.961424"
       id="path37243" />
  </g>
  <g
     aria-label="Shift"
     id="g37257"
     style="font-size:7.54181px;font-family:SFProText-Regular, 'SF Pro Text';fill:#e4dcd9;stroke-width:0.942726"
     class="e"
     transform="translate(0,28.000176)">
    <path
       d="m 42.878791,7.319584 q 0,0.3203796 -0.150983,0.6333942 -0.147301,0.3130146 -0.416125,0.5302835 -0.294602,0.2356816 -0.688633,0.3682525 -0.390347,0.1325709 -0.942726,0.1325709 -0.592886,0 -1.067932,-0.1104758 Q 39.141029,8.7631336 38.651253,8.5458647 V 7.6325986 h 0.05156 q 0.416125,0.3461573 0.961138,0.533966 0.545014,0.1878088 1.023742,0.1878088 0.677585,0 1.053202,-0.2540942 0.3793,-0.2540942 0.3793,-0.6775845 0,-0.3645699 -0.180443,-0.5376486 Q 41.76299,6.7119675 41.39842,6.6162219 41.122231,6.5425709 40.798169,6.4946986 40.477789,6.4468256 40.116902,6.3731752 39.387762,6.2185092 39.03424,5.8465743 38.6844,5.4709568 38.6844,4.8707053 q 0,-0.6886321 0.581839,-1.1268525 0.581839,-0.4419029 1.476692,-0.4419029 0.578156,0 1.060567,0.1104757 0.482411,0.1104757 0.854346,0.2725068 v 0.8617107 h -0.05156 Q 42.29327,4.2815014 41.781399,4.1084227 41.273211,3.9316615 40.739245,3.9316615 q -0.585522,0 -0.942727,0.2430467 -0.353522,0.2430466 -0.353522,0.6260291 0,0.3424748 0.176761,0.5376486 0.176761,0.1951738 0.622347,0.2982845 0.235681,0.051555 0.670219,0.1252058 0.434538,0.073651 0.736505,0.1509835 0.611299,0.1620311 0.920631,0.4897757 0.309332,0.3277447 0.309332,0.9169486 z"
       style="fill:#e4dcd9;stroke-width:0.942726"
       id="path37247" />
    <path
       d="M 47.434074,8.8846569 H 46.741759 V 6.5425714 q 0,-0.2835544 -0.03314,-0.5302836 -0.03314,-0.2504116 -0.121524,-0.3903475 -0.09206,-0.1546661 -0.265141,-0.2283166 -0.173079,-0.077333 -0.449268,-0.077333 -0.283555,0 -0.592887,0.139936 -0.309332,0.1399359 -0.592886,0.3572048 v 3.0712254 h -0.692315 v -5.730008 h 0.692315 v 2.0732612 q 0.324062,-0.2688242 0.670219,-0.4198077 0.346158,-0.1509835 0.710727,-0.1509835 0.666537,0 1.016377,0.4013951 0.34984,0.4013952 0.34984,1.1563127 z"
       style="fill:#e4dcd9;stroke-width:0.942726"
       id="path37249" />
    <path
       d="M 49.511017,4.082645 H 48.730322 V 3.3645528 h 0.780695 z m -0.04419,4.8020119 H 48.774512 V 4.7712771 h 0.692315 z"
       style="fill:#e4dcd9;stroke-width:0.942726"
       id="path37251" />
    <path
       d="m 53.049924,3.8248683 h -0.03683 q -0.114158,-0.033143 -0.298284,-0.066285 -0.184126,-0.036825 -0.324062,-0.036825 -0.445586,0 -0.648125,0.1988563 -0.198856,0.1951738 -0.198856,0.7107272 v 0.1399359 h 1.248376 V 5.353116 H 51.565866 V 8.8846569 H 50.873552 V 5.353116 H 50.405871 V 4.7712771 h 0.467681 V 4.6350237 q 0,-0.7328223 0.36457,-1.1231699 0.36457,-0.3940302 1.053202,-0.3940302 0.231999,0 0.416125,0.022095 0.187809,0.022095 0.342475,0.051555 z"
       style="fill:#e4dcd9;stroke-width:0.942726"
       id="path37253" />
    <path
       d="m 55.624008,8.8478317 q -0.195173,0.051555 -0.427173,0.084698 -0.228316,0.033143 -0.40876,0.033143 -0.629711,0 -0.957456,-0.3387922 -0.327745,-0.3387926 -0.327745,-1.086345 V 5.353116 h -0.46768 V 4.7712771 h 0.46768 V 3.5891868 h 0.692315 v 1.1820903 h 1.428819 V 5.353116 h -1.428819 v 1.8744049 q 0,0.3240622 0.01473,0.5081884 0.01473,0.1804437 0.103111,0.3387922 0.08102,0.147301 0.220951,0.217269 0.143619,0.066285 0.434538,0.066285 0.169396,0 0.353522,-0.047873 0.184127,-0.051555 0.265142,-0.084698 h 0.03683 z"
       style="fill:#e4dcd9;stroke-width:0.942726"
       id="path37255" />
  </g>
  <g
     aria-label="Draw"
     id="g37267"
     style="font-size:7.6914px;font-family:SFProText-Regular, 'SF Pro Text';fill:#fce237;stroke-width:0.961424"
     class="h"
     transform="matrix(0.96097918,0,0,0.96097918,3.0005976,28.13705)">
    <path
       d="m 73.630012,6.309357 q 0,0.76238 -0.334245,1.3820485 -0.33049,0.6196684 -0.882559,0.961425 -0.383067,0.2366007 -0.856269,0.3417565 -0.469446,0.1051559 -1.239337,0.1051559 H 68.905509 V 3.5077045 h 1.397071 q 0.818714,0 1.299426,0.1201781 0.484468,0.1164226 0.818714,0.3229787 0.570846,0.3567788 0.890069,0.9501583 0.319223,0.5933795 0.319223,1.4083374 z M 72.85261,6.2980903 q 0,-0.6572241 -0.22909,-1.1078921 -0.229089,-0.4506679 -0.683513,-0.709802 -0.33049,-0.1877783 -0.702291,-0.2591341 -0.371801,-0.075111 -0.890069,-0.075111 h -0.698536 v 4.3151458 h 0.698536 q 0.537046,0 0.935136,-0.078867 0.401846,-0.078867 0.736091,-0.2929342 0.416868,-0.2666452 0.623424,-0.7022909 0.210312,-0.4356457 0.210312,-1.0891145 z"
       style="stroke-width:0.961424;fill:#fce237"
       id="path37259" />
    <path
       d="m 77.393089,5.6746663 h -0.03755 Q 77.1978,5.6371106 77.047577,5.6220884 76.90111,5.6033105 76.69831,5.6033105 q -0.326735,0 -0.630935,0.1464671 -0.304201,0.1427116 -0.585869,0.3718011 V 9.0997429 H 74.77546 V 4.9047752 h 0.706046 v 0.6196684 q 0.420624,-0.3380009 0.739847,-0.4769569 0.322978,-0.1427115 0.657224,-0.1427115 0.184023,0 0.266645,0.011267 0.08262,0.00751 0.247867,0.0338 z"
       style="stroke-width:0.961424;fill:#fce237"
       id="path37261" />
    <path
       d="M 81.182456,9.0997429 H 80.480165 V 8.6528305 q -0.09389,0.063845 -0.255379,0.1802672 -0.157734,0.112667 -0.307956,0.1802672 -0.176512,0.086378 -0.405601,0.1427115 -0.22909,0.060089 -0.537046,0.060089 -0.567091,0 -0.961425,-0.3755566 -0.394335,-0.3755566 -0.394335,-0.9576694 0,-0.476957 0.202801,-0.7698912 0.206556,-0.2966897 0.585868,-0.4656902 0.383068,-0.1690005 0.920114,-0.2290895 0.537046,-0.060089 1.152959,-0.090134 V 6.2192234 q 0,-0.2403562 -0.08638,-0.39809 Q 80.311164,5.6633996 80.15343,5.573266 80.003208,5.486888 79.792896,5.4568435 q -0.210312,-0.030045 -0.439401,-0.030045 -0.277912,0 -0.619669,0.075111 Q 78.39207,5.573266 78.02778,5.712222 H 77.99022 V 4.9949088 q 0.206556,-0.056334 0.597135,-0.1239337 0.390579,-0.0676 0.769891,-0.0676 0.443157,0 0.769892,0.075111 0.330489,0.071356 0.570846,0.2478674 0.2366,0.1727561 0.360534,0.4469124 0.123934,0.2741564 0.123934,0.6797575 z M 80.480165,8.0669621 V 6.898981 q -0.322979,0.018778 -0.76238,0.056334 -0.435646,0.037556 -0.691024,0.1089114 -0.304201,0.086378 -0.49198,0.2704008 -0.187778,0.1802672 -0.187778,0.4994903 0,0.3605344 0.217823,0.5445571 0.217823,0.1802672 0.664735,0.1802672 0.371801,0 0.679758,-0.1427115 0.307956,-0.1464671 0.570846,-0.3492682 z"
       style="stroke-width:0.961424;fill:#fce237"
       id="path37263" />
    <path
       d="m 87.780986,4.9047752 -1.09287,4.1949677 H 86.034647 L 84.9568,5.8662002 83.886463,9.0997429 H 83.23675 L 82.132614,4.9047752 h 0.736091 l 0.769891,3.2485649 1.047803,-3.2485649 h 0.582113 l 1.074092,3.2485649 0.72858,-3.2485649 z"
       style="stroke-width:0.961424;fill:#fce237"
       id="path37265" />
  </g>
</svg>
