<svg xmlns="http://www.w3.org/2000/svg" xmlns:xlink="http://www.w3.org/1999/xlink" width="45" height="144" viewBox="0 0 45 144"><defs><clipPath id="a"><rect width="45" height="144"/></clipPath></defs><g clip-path="url(#a)"><path d="M5,0,2.5,3,0,0ZM5,18,2.5,21,0,18ZM5,36,2.5,39,0,36ZM5,54,2.5,57,0,54ZM5,72,2.5,75,0,72ZM5,90,2.5,93,0,90Zm0,18-2.5,3L0,108Zm0,18-2.5,3L0,126Z" transform="translate(38 6)" fill="#efefef" fill-rule="evenodd"/><g transform="translate(-1645 -736)"><path d="M2.642.12A1.924,1.924,0,0,0,4.689-1.5H3.927a1.236,1.236,0,0,1-1.285.909c-.889,0-1.442-.721-1.442-1.87s.554-1.873,1.439-1.873a1.268,1.268,0,0,1,1.289.995h.762A1.97,1.97,0,0,0,2.639-5.052c-1.371,0-2.222.988-2.222,2.587S1.271.12,2.642.12Zm3-.12h.735V-5.175H5.643ZM8.7-.557c-.4,0-.69-.195-.69-.53s.232-.5.745-.537l.909-.058v.311A.877.877,0,0,1,8.7-.557ZM8.507.062A1.252,1.252,0,0,0,9.625-.523h.058V0h.708V-2.543c0-.786-.526-1.251-1.459-1.251-.844,0-1.446.41-1.521,1.049h.711c.082-.263.366-.414.776-.414.5,0,.762.222.762.615v.321l-1.008.058c-.885.055-1.384.441-1.384,1.111A1.124,1.124,0,0,0,8.507.062Zm2.844-2.731c0,.554.328.872,1.036,1.039l.649.15c.373.089.547.232.547.455,0,.3-.325.5-.783.5a.756.756,0,0,1-.81-.465h-.735c.065.66.643,1.06,1.528,1.06S14.325-.4,14.325-1.1c0-.547-.332-.851-1.039-1.015l-.619-.144c-.4-.092-.591-.232-.591-.455,0-.291.311-.485.721-.485s.684.174.752.448h.7c-.072-.656-.619-1.046-1.456-1.046S11.351-3.329,11.351-2.669Zm3.705,0c0,.554.328.872,1.036,1.039l.649.15c.373.089.547.232.547.455,0,.3-.325.5-.783.5a.756.756,0,0,1-.81-.465H14.96c.065.66.643,1.06,1.528,1.06S18.03-.4,18.03-1.1c0-.547-.332-.851-1.039-1.015l-.619-.144c-.4-.092-.591-.232-.591-.455,0-.291.311-.485.721-.485s.684.174.752.448h.7c-.072-.656-.619-1.046-1.456-1.046S15.056-3.329,15.056-2.669ZM18.929,0h.731V-3.722h-.731Zm.366-4.375a.452.452,0,0,0,.475-.448.452.452,0,0,0-.475-.451.452.452,0,0,0-.475.451A.452.452,0,0,0,19.294-4.375Zm4.6,1.87A1.468,1.468,0,0,0,22.3-3.794a1.7,1.7,0,0,0-1.743,1.921A1.709,1.709,0,0,0,22.3.072,1.456,1.456,0,0,0,23.892-1.2h-.714a.808.808,0,0,1-.878.612c-.612,0-.991-.482-.991-1.289s.376-1.265.991-1.265a.83.83,0,0,1,.878.632Z" transform="translate(1650 746)" fill="#efefef"/><path d="M3.415-3.62h.048L4.522,0h.721L6.576-4.932h-.8l-.9,3.777H4.83L3.794-4.932H3.083L2.054-1.155H2.006L1.1-4.932H.3L1.634,0h.725ZM9.516,0V-4.235h1.548v-.7H7.2v.7H8.75V0Z" transform="translate(1650 782)" fill="#efefef"/><path d="M3.415-3.62h.048L4.522,0h.721L6.576-4.932h-.8l-.9,3.777H4.83L3.794-4.932H3.083L2.054-1.155H2.006L1.1-4.932H.3L1.634,0h.725ZM7.427,0h.731V-3.722H7.427Zm.366-4.375a.452.452,0,0,0,.475-.448.452.452,0,0,0-.475-.451.452.452,0,0,0-.475.451A.452.452,0,0,0,7.793-4.375ZM9.239,0h.735V-2.177a.854.854,0,0,1,.889-.943c.543,0,.8.3.8.9V0H12.4V-2.41a1.211,1.211,0,0,0-1.289-1.384A1.115,1.115,0,0,0,10-3.131H9.946v-.591H9.239Zm5.554.062a1.292,1.292,0,0,0,1.169-.649h.058V0h.7V-5.175h-.735v2.044h-.055a1.227,1.227,0,0,0-1.142-.653c-.94,0-1.545.745-1.545,1.921S13.846.062,14.793.062ZM15-3.124c.615,0,1,.489,1,1.265S15.62-.6,15-.6s-.995-.475-.995-1.265S14.383-3.124,15-3.124Zm4.4,3.2A1.707,1.707,0,0,0,21.15-1.863,1.71,1.71,0,0,0,19.4-3.794,1.71,1.71,0,0,0,17.64-1.863,1.708,1.708,0,0,0,19.4.072Zm0-.653c-.639,0-1-.468-1-1.282s.359-1.278,1-1.278,1,.472,1,1.278S20.033-.581,19.4-.581Zm7.338-3.141H26l-.663,2.84h-.058l-.766-2.84h-.7l-.766,2.84h-.055l-.667-2.84h-.745L22.6,0h.755l.766-2.741h.058L24.951,0h.762Z" transform="translate(1650 872)" fill="#efefef"/><path d="M.386-1.326C.441-.444,1.176.12,2.27.12c1.169,0,1.9-.591,1.9-1.535,0-.742-.417-1.152-1.429-1.388L2.2-2.936c-.643-.15-.9-.352-.9-.7,0-.444.4-.735,1.008-.735a.942.942,0,0,1,1.042.738h.745A1.609,1.609,0,0,0,2.314-5.052C1.237-5.052.52-4.467.52-3.589c0,.725.407,1.155,1.3,1.364l.636.154c.653.154.94.379.94.755,0,.438-.451.755-1.066.755-.66,0-1.118-.3-1.183-.766ZM5.1,0h.731V-3.722H5.1Zm.366-4.375a.452.452,0,0,0,.475-.448.452.452,0,0,0-.475-.451.452.452,0,0,0-.475.451A.452.452,0,0,0,5.469-4.375ZM6.915,0h.735V-2.177a.854.854,0,0,1,.889-.943c.543,0,.8.3.8.9V0h.735V-2.41A1.211,1.211,0,0,0,8.788-3.794a1.115,1.115,0,0,0-1.111.663H7.622v-.591H6.915Zm5.722-3.168a.9.9,0,0,1,.916.964h-1.88A.952.952,0,0,1,12.636-3.168ZM13.549-1a.893.893,0,0,1-.885.451.983.983,0,0,1-.991-1.066v-.041H14.3v-.256c0-1.169-.625-1.876-1.661-1.876a1.717,1.717,0,0,0-1.716,1.945A1.69,1.69,0,0,0,12.643.072,1.512,1.512,0,0,0,14.256-1Z" transform="translate(1650 764)" fill="#efefef"/><path d="M1.384,0V-2.044H3.5v-.677H1.384V-4.235H3.7v-.7H.619V0Zm8.3,0V-4.932h-.9L7.212-1.186H7.154L5.585-4.932h-.9V0H5.4V-3.562h.048L6.894-.144h.581L8.921-3.562h.048V0Zm1.111-3.507v.01h.725v-.01a.849.849,0,0,1,.909-.882.829.829,0,0,1,.9.79c0,.362-.161.622-.82,1.309L10.832-.554V0h3.322V-.687H11.9V-.745L13-1.856c.827-.837,1.08-1.265,1.08-1.788a1.484,1.484,0,0,0-1.627-1.408A1.538,1.538,0,0,0,10.791-3.507Z" transform="translate(1650 854)" fill="#efefef"/><path d="M1.384,0V-2.044H3.5v-.677H1.384V-4.235H3.7v-.7H.619V0Zm8.3,0V-4.932h-.9L7.212-1.186H7.154L5.585-4.932h-.9V0H5.4V-3.562h.048L6.894-.144h.581L8.921-3.562h.048V0Zm2.229-2.215h.622c.646,0,1.046.318,1.046.827,0,.485-.424.831-1.025.831s-1.008-.3-1.056-.783H10.76A1.6,1.6,0,0,0,12.551.12a1.627,1.627,0,0,0,1.808-1.466,1.146,1.146,0,0,0-1.083-1.2V-2.6a1.11,1.11,0,0,0,.882-1.142,1.461,1.461,0,0,0-1.62-1.306,1.511,1.511,0,0,0-1.682,1.442h.728a.842.842,0,0,1,.93-.783c.537,0,.889.3.889.759a.807.807,0,0,1-.9.786h-.6Z" transform="translate(1650 836)" fill="#efefef"/><path d="M.386-1.326C.441-.444,1.176.12,2.27.12c1.169,0,1.9-.591,1.9-1.535,0-.742-.417-1.152-1.429-1.388L2.2-2.936c-.643-.15-.9-.352-.9-.7,0-.444.4-.735,1.008-.735a.942.942,0,0,1,1.042.738h.745A1.609,1.609,0,0,0,2.314-5.052C1.237-5.052.52-4.467.52-3.589c0,.725.407,1.155,1.3,1.364l.636.154c.653.154.94.379.94.755,0,.438-.451.755-1.066.755-.66,0-1.118-.3-1.183-.766ZM8.63,0h.9L8.647-.94a2.822,2.822,0,0,0,.41-1.624v-.185H8.391v.157a2.394,2.394,0,0,1-.212,1.138L7.048-2.628c.738-.39,1.046-.776,1.046-1.282a1.177,1.177,0,0,0-1.3-1.121A1.2,1.2,0,0,0,5.479-3.9,1.64,1.64,0,0,0,6.1-2.762c-.044.021-.167.092-.2.109a1.49,1.49,0,0,0-.957,1.347c0,.834.684,1.4,1.688,1.4A2.458,2.458,0,0,0,8.2-.451ZM6.32-2.235c.044-.024.126-.062.161-.075L7.783-.93a1.58,1.58,0,0,1-1.083.4c-.615,0-1.029-.338-1.029-.837A1,1,0,0,1,6.32-2.235Zm.349-.8c-.369-.359-.5-.574-.5-.827a.589.589,0,0,1,.629-.595.581.581,0,0,1,.629.591C7.424-3.541,7.219-3.309,6.668-3.035ZM14.3,0V-4.932h-.762v2.071H11V-4.932h-.766V0H11V-2.164h2.533V0Zm3.9,0V-3.5h.055L20.781,0h.69V-4.932h-.745v3.5h-.055l-2.533-3.5h-.69V0Zm6,.072a1.707,1.707,0,0,0,1.753-1.935A1.71,1.71,0,0,0,24.2-3.794a1.71,1.71,0,0,0-1.757,1.931A1.708,1.708,0,0,0,24.2.072Zm0-.653c-.639,0-1-.468-1-1.282s.359-1.278,1-1.278,1,.472,1,1.278S24.832-.581,24.2-.581ZM26.845,0h.731V-3.722h-.731Zm.366-4.375a.452.452,0,0,0,.475-.448.452.452,0,0,0-.475-.451.452.452,0,0,0-.475.451A.452.452,0,0,0,27.21-4.375Zm1.36,1.706c0,.554.328.872,1.036,1.039l.649.15c.373.089.547.232.547.455,0,.3-.325.5-.783.5a.756.756,0,0,1-.81-.465h-.735c.065.66.643,1.06,1.528,1.06S31.544-.4,31.544-1.1c0-.547-.332-.851-1.039-1.015l-.619-.144c-.4-.092-.591-.232-.591-.455,0-.291.311-.485.721-.485s.684.174.752.448h.7c-.072-.656-.619-1.046-1.456-1.046S28.571-3.329,28.571-2.669Zm5.387-.5a.9.9,0,0,1,.916.964h-1.88A.952.952,0,0,1,33.958-3.168ZM34.87-1a.893.893,0,0,1-.885.451.983.983,0,0,1-.991-1.066v-.041h2.628v-.256c0-1.169-.625-1.876-1.661-1.876a1.717,1.717,0,0,0-1.716,1.945A1.69,1.69,0,0,0,33.964.072,1.512,1.512,0,0,0,35.578-1Z" transform="translate(1646 800)" fill="#efefef"/><path d="M3.811,0h.813L2.844-4.932H2.02L.239,0h.786L1.48-1.309H3.36ZM2.393-4.037h.058l.714,2.085H1.675Zm5.958.314H7.615v2.177A.845.845,0,0,1,6.7-.608c-.54,0-.783-.287-.783-.889V-3.722H5.178v2.417A1.208,1.208,0,0,0,6.46.072,1.117,1.117,0,0,0,7.584-.591h.058V0H8.35ZM10.777.062a1.292,1.292,0,0,0,1.169-.649H12V0h.7V-5.175h-.735v2.044h-.055a1.227,1.227,0,0,0-1.142-.653c-.94,0-1.545.745-1.545,1.921S9.83.062,10.777.062Zm.208-3.186c.615,0,1,.489,1,1.265S11.6-.6,10.985-.6s-.995-.475-.995-1.265S10.367-3.124,10.985-3.124ZM13.822,0h.731V-3.722h-.731Zm.366-4.375a.452.452,0,0,0,.475-.448.452.452,0,0,0-.475-.451.452.452,0,0,0-.475.451A.452.452,0,0,0,14.188-4.375ZM17.206.072a1.707,1.707,0,0,0,1.753-1.935,1.71,1.71,0,0,0-1.753-1.931,1.71,1.71,0,0,0-1.757,1.931A1.708,1.708,0,0,0,17.206.072Zm0-.653c-.639,0-1-.468-1-1.282s.359-1.278,1-1.278,1,.472,1,1.278S17.842-.581,17.206-.581Zm5.4.581V-4.932h-.766V0Zm1.148,0h.735V-2.177a.854.854,0,0,1,.889-.943c.543,0,.8.3.8.9V0h.735V-2.41a1.211,1.211,0,0,0-1.289-1.384,1.115,1.115,0,0,0-1.111.663h-.055v-.591h-.708Z" transform="translate(1650 818)" fill="#efefef"/></g></g></svg>