<svg xmlns="http://www.w3.org/2000/svg" xmlns:xlink="http://www.w3.org/1999/xlink" width="13.001" height="26.001" viewBox="0 0 13.001 26.001"><defs><linearGradient id="a" x1="0.5" x2="0.5" y2="1" gradientUnits="objectBoundingBox"><stop offset="0" stop-color="#675d5d"/><stop offset="1" stop-color="#5b4f51"/></linearGradient><linearGradient id="b" x1="0.5" x2="0.5" y2="1" gradientUnits="objectBoundingBox"><stop offset="0" stop-color="#373030"/><stop offset="1" stop-color="#332a2b"/></linearGradient></defs><g transform="translate(-690 -176.159)"><g transform="translate(690 176.159)"><g transform="translate(0.5 0.5)" stroke="#4e4752" stroke-width="0.5" fill="url(#a)"><rect width="12" height="12" rx="1" stroke="none"/><rect x="-0.25" y="-0.25" width="12.5" height="12.5" rx="1.25" fill="none"/></g><path d="M11.5,2.993H1.5A1.5,1.5,0,0,1,0,1.492V1.07A1.5,1.5,0,0,0,1.5,2.492h10A1.5,1.5,0,0,0,13,1v.488A1.5,1.5,0,0,1,11.5,2.993Z" transform="translate(0 10.008)" opacity="0.4"/><path d="M13,1.992h0A1.5,1.5,0,0,0,11.5.5H1.5A1.5,1.5,0,0,0,0,1.922L0,1.5A1.5,1.5,0,0,1,1.5,0h10A1.5,1.5,0,0,1,13,1.5Z" transform="translate(0 0)" fill="#fff" opacity="0.4"/><rect width="12" height="12" rx="1" transform="translate(0.5 0.5)" fill="#fff" opacity="0"/><path d="M6.613,2.877,4.745,4.745a1.32,1.32,0,0,1-1.868,0l-.623-.623L2.877,3.5l.623.623a.441.441,0,0,0,.623,0L5.99,2.255a.441.441,0,0,0,0-.623l-.623-.623a.441.441,0,0,0-.623,0l-.667.667A1.752,1.752,0,0,0,3.07,1.44L4.123.387a1.321,1.321,0,0,1,1.868,0l.623.623A1.321,1.321,0,0,1,6.613,2.877ZM2.921,5.324l-.666.666a.44.44,0,0,1-.623,0L1.01,5.368a.44.44,0,0,1,0-.623L2.877,2.877a.441.441,0,0,1,.623,0l.623.623.623-.623-.623-.623a1.321,1.321,0,0,0-1.868,0L.387,4.123a1.32,1.32,0,0,0,0,1.868l.623.623a1.32,1.32,0,0,0,1.868,0L3.93,5.56A1.761,1.761,0,0,1,2.921,5.324Z" transform="translate(3 3)" fill="#e2d6d1" fill-rule="evenodd"/></g><g transform="translate(690 189.159)"><g transform="translate(0.5 0.501)" stroke="#4e4752" stroke-width="0.5" fill="url(#b)"><rect width="12" height="12" rx="1" stroke="none"/><rect x="-0.25" y="-0.25" width="12.5" height="12.5" rx="1.25" fill="none"/></g><path d="M11.5-50.8H1.5A1.5,1.5,0,0,1,0-52.3v-.422A1.5,1.5,0,0,0,1.5-51.3h10A1.5,1.5,0,0,0,13-52.786v.488A1.5,1.5,0,0,1,11.5-50.8Z" transform="translate(0.001 63.798)" opacity="0.4"/><path d="M13,1.992h0A1.5,1.5,0,0,0,11.5.5H1.5A1.5,1.5,0,0,0,0,1.922L0,1.5A1.5,1.5,0,0,1,1.5,0h10A1.5,1.5,0,0,1,13,1.5Z" transform="translate(0 0)" fill="#fff" opacity="0.1"/><rect width="12" height="12" rx="1" transform="translate(0.5 0.501)" fill="#fff" opacity="0"/><path d="M6.613,2.877,4.745,4.745a1.32,1.32,0,0,1-1.868,0l-.623-.623L2.877,3.5l.623.623a.441.441,0,0,0,.623,0L5.99,2.255a.441.441,0,0,0,0-.623l-.623-.623a.441.441,0,0,0-.623,0l-.667.667A1.752,1.752,0,0,0,3.07,1.44L4.123.387a1.321,1.321,0,0,1,1.868,0l.623.623A1.321,1.321,0,0,1,6.613,2.877ZM2.921,5.324l-.666.666a.44.44,0,0,1-.623,0L1.01,5.368a.44.44,0,0,1,0-.623L2.877,2.877a.441.441,0,0,1,.623,0l.623.623.623-.623-.623-.623a1.321,1.321,0,0,0-1.868,0L.387,4.123a1.32,1.32,0,0,0,0,1.868l.623.623a1.32,1.32,0,0,0,1.868,0L3.93,5.56A1.761,1.761,0,0,1,2.921,5.324Z" transform="translate(3 3)" fill="#fce237" fill-rule="evenodd"/></g></g></svg>