<svg xmlns="http://www.w3.org/2000/svg" width="58" height="78" viewBox="0 0 58 78"><g transform="translate(1.105 2.244)"><rect width="55" height="8" transform="translate(1.895 -2.244)" fill="#a17368" opacity="0.6"/><rect width="2" height="8" transform="translate(-1.105 -2.244)" fill="#f6d537"/><path d="M1.187,0V-1.752H3v-.58H1.187v-1.3H3.17v-.6H.53V0ZM4.676-3.65H5.6a.721.721,0,0,1,.817.738.7.7,0,0,1-.8.741H4.676Zm0,2.039H5.6L6.463,0h.759L6.272-1.72a1.218,1.218,0,0,0,.82-1.207,1.265,1.265,0,0,0-1.4-1.3H4.02V0h.656ZM10.711-.6H8.684V-1.866H10.6v-.568H8.684v-1.2h2.027v-.6H8.027V0h2.684Zm3.63,0H12.313V-1.866h1.919v-.568H12.313v-1.2h2.027v-.6H11.657V0h2.684Zm1.6-3.053h.926a.721.721,0,0,1,.817.738.7.7,0,0,1-.8.741h-.943Zm0,2.039h.926L17.73,0h.759L17.54-1.72a1.218,1.218,0,0,0,.82-1.207,1.265,1.265,0,0,0-1.4-1.3H15.287V0h.656Zm4.02-2.616h-.656v2.771A1.541,1.541,0,0,0,21.018.1a1.544,1.544,0,0,0,1.714-1.559V-4.228h-.656v2.713a.959.959,0,0,1-1.058,1,.958.958,0,0,1-1.055-1ZM24.439,0V-3h.047l2.171,3h.592V-4.228H26.61v3h-.047l-2.171-3H23.8V0Z" transform="translate(4.895 3.756)" fill="#f9c442"/><rect width="55" height="8" transform="translate(1.895 23.756)" fill="#625967" opacity="0.6"/><rect width="2" height="8" transform="translate(-1.105 23.756)" fill="#625967" opacity="0.6"/><path d="M1.187,0V-1.752H3v-.58H1.187v-1.3H3.17v-.6H.53V0ZM4.676-3.65H5.6a.721.721,0,0,1,.817.738.7.7,0,0,1-.8.741H4.676Zm0,2.039H5.6L6.463,0h.759L6.272-1.72a1.218,1.218,0,0,0,.82-1.207,1.265,1.265,0,0,0-1.4-1.3H4.02V0h.656ZM10.711-.6H8.684V-1.866H10.6v-.568H8.684v-1.2h2.027v-.6H8.027V0h2.684Zm3.63,0H12.313V-1.866h1.919v-.568H12.313v-1.2h2.027v-.6H11.657V0h2.684Zm1.6-3.053h.926a.721.721,0,0,1,.817.738.7.7,0,0,1-.8.741h-.943Zm0,2.039h.926L17.73,0h.759L17.54-1.72a1.218,1.218,0,0,0,.82-1.207,1.265,1.265,0,0,0-1.4-1.3H15.287V0h.656Zm4.02-2.616h-.656v2.771A1.541,1.541,0,0,0,21.018.1a1.544,1.544,0,0,0,1.714-1.559V-4.228h-.656v2.713a.959.959,0,0,1-1.058,1,.958.958,0,0,1-1.055-1ZM24.439,0V-3h.047l2.171,3h.592V-4.228H26.61v3h-.047l-2.171-3H23.8V0Z" transform="translate(4.895 29.756)" fill="#beb3bf"/><rect width="55" height="8" transform="translate(1.895 49.756)" fill="#625967" opacity="0.6"/><rect width="2" height="8" transform="translate(-1.105 49.756)" fill="#625967" opacity="0.6"/><path d="M1.187,0V-1.752H3v-.58H1.187v-1.3H3.17v-.6H.53V0ZM4.676-3.65H5.6a.721.721,0,0,1,.817.738.7.7,0,0,1-.8.741H4.676Zm0,2.039H5.6L6.463,0h.759L6.272-1.72a1.218,1.218,0,0,0,.82-1.207,1.265,1.265,0,0,0-1.4-1.3H4.02V0h.656ZM10.711-.6H8.684V-1.866H10.6v-.568H8.684v-1.2h2.027v-.6H8.027V0h2.684Zm3.63,0H12.313V-1.866h1.919v-.568H12.313v-1.2h2.027v-.6H11.657V0h2.684Zm1.6-3.053h.926a.721.721,0,0,1,.817.738.7.7,0,0,1-.8.741h-.943Zm0,2.039h.926L17.73,0h.759L17.54-1.72a1.218,1.218,0,0,0,.82-1.207,1.265,1.265,0,0,0-1.4-1.3H15.287V0h.656Zm4.02-2.616h-.656v2.771A1.541,1.541,0,0,0,21.018.1a1.544,1.544,0,0,0,1.714-1.559V-4.228h-.656v2.713a.959.959,0,0,1-1.058,1,.958.958,0,0,1-1.055-1ZM24.439,0V-3h.047l2.171,3h.592V-4.228H26.61v3h-.047l-2.171-3H23.8V0Z" transform="translate(4.895 55.756)" fill="#beb3bf"/><rect width="55" height="8" transform="translate(1.895 6.756)" fill="#625967" opacity="0.6"/><rect width="2" height="8" transform="translate(-1.105 6.756)" fill="#625967" opacity="0.6"/><path d="M1.187,0V-1.389l.475-.53L3.079,0H3.9L2.124-2.391,3.759-4.228H2.982L1.233-2.247H1.187v-1.98H.53V0ZM7.274-.6H5.247V-1.866H7.166v-.568H5.247v-1.2H7.274v-.6H4.591V0H7.274Zm2.769.6V-1.705l1.491-2.522H10.8L9.741-2.4h-.05L8.628-4.228H7.9L9.387-1.705V0ZM14,0V-3.63h1.327v-.6H12.015v.6h1.33V0Zm2.786-3.65h.926a.721.721,0,0,1,.817.738.7.7,0,0,1-.8.741h-.943Zm0,2.039h.926L18.574,0h.759l-.949-1.72a1.218,1.218,0,0,0,.82-1.207,1.265,1.265,0,0,0-1.4-1.3H16.131V0h.656ZM20.795,0V-4.228h-.656V0Zm4.664-1.673V-2.2H23.725v.551h1.09v.091A1.064,1.064,0,0,1,23.643-.51c-.794,0-1.292-.615-1.292-1.611,0-.979.5-1.6,1.277-1.6a1.1,1.1,0,0,1,1.143.788h.659a1.694,1.694,0,0,0-1.8-1.4A1.96,1.96,0,0,0,21.68-2.115,1.951,1.951,0,0,0,23.634.1,1.687,1.687,0,0,0,25.459-1.673Zm4.509,0V-2.2H28.233v.551h1.09v.091A1.064,1.064,0,0,1,28.151-.51c-.794,0-1.292-.615-1.292-1.611,0-.979.5-1.6,1.277-1.6a1.1,1.1,0,0,1,1.143.788h.659a1.694,1.694,0,0,0-1.8-1.4,1.96,1.96,0,0,0-1.948,2.215A1.951,1.951,0,0,0,28.143.1,1.687,1.687,0,0,0,29.968-1.673ZM33.554-.6H31.526V-1.866h1.919v-.568H31.526v-1.2h2.027v-.6H30.87V0h2.684Zm1.6-3.053h.926a.721.721,0,0,1,.817.738.7.7,0,0,1-.8.741h-.943Zm0,2.039h.926L36.943,0H37.7l-.949-1.72a1.218,1.218,0,0,0,.82-1.207,1.265,1.265,0,0,0-1.4-1.3H34.5V0h.656Z" transform="translate(4.895 12.756)" fill="#beb3bf"/><rect width="55" height="8" transform="translate(1.895 32.756)" fill="#a17368" opacity="0.6"/><rect width="2" height="8" transform="translate(-1.105 32.756)" fill="#f6d537"/><path d="M1.187,0V-1.389l.475-.53L3.079,0H3.9L2.124-2.391,3.759-4.228H2.982L1.233-2.247H1.187v-1.98H.53V0ZM7.274-.6H5.247V-1.866H7.166v-.568H5.247v-1.2H7.274v-.6H4.591V0H7.274Zm2.769.6V-1.705l1.491-2.522H10.8L9.741-2.4h-.05L8.628-4.228H7.9L9.387-1.705V0ZM14,0V-3.63h1.327v-.6H12.015v.6h1.33V0Zm2.786-3.65h.926a.721.721,0,0,1,.817.738.7.7,0,0,1-.8.741h-.943Zm0,2.039h.926L18.574,0h.759l-.949-1.72a1.218,1.218,0,0,0,.82-1.207,1.265,1.265,0,0,0-1.4-1.3H16.131V0h.656ZM20.795,0V-4.228h-.656V0Zm4.664-1.673V-2.2H23.725v.551h1.09v.091A1.064,1.064,0,0,1,23.643-.51c-.794,0-1.292-.615-1.292-1.611,0-.979.5-1.6,1.277-1.6a1.1,1.1,0,0,1,1.143.788h.659a1.694,1.694,0,0,0-1.8-1.4A1.96,1.96,0,0,0,21.68-2.115,1.951,1.951,0,0,0,23.634.1,1.687,1.687,0,0,0,25.459-1.673Zm4.509,0V-2.2H28.233v.551h1.09v.091A1.064,1.064,0,0,1,28.151-.51c-.794,0-1.292-.615-1.292-1.611,0-.979.5-1.6,1.277-1.6a1.1,1.1,0,0,1,1.143.788h.659a1.694,1.694,0,0,0-1.8-1.4,1.96,1.96,0,0,0-1.948,2.215A1.951,1.951,0,0,0,28.143.1,1.687,1.687,0,0,0,29.968-1.673ZM33.554-.6H31.526V-1.866h1.919v-.568H31.526v-1.2h2.027v-.6H30.87V0h2.684Zm1.6-3.053h.926a.721.721,0,0,1,.817.738.7.7,0,0,1-.8.741h-.943Zm0,2.039h.926L36.943,0H37.7l-.949-1.72a1.218,1.218,0,0,0,.82-1.207,1.265,1.265,0,0,0-1.4-1.3H34.5V0h.656Z" transform="translate(4.895 38.756)" fill="#f9c442"/><rect width="55" height="8" transform="translate(1.895 58.756)" fill="#625967" opacity="0.6"/><rect width="2" height="8" transform="translate(-1.105 58.756)" fill="#625967" opacity="0.6"/><path d="M1.187,0V-1.389l.475-.53L3.079,0H3.9L2.124-2.391,3.759-4.228H2.982L1.233-2.247H1.187v-1.98H.53V0ZM7.274-.6H5.247V-1.866H7.166v-.568H5.247v-1.2H7.274v-.6H4.591V0H7.274Zm2.769.6V-1.705l1.491-2.522H10.8L9.741-2.4h-.05L8.628-4.228H7.9L9.387-1.705V0ZM14,0V-3.63h1.327v-.6H12.015v.6h1.33V0Zm2.786-3.65h.926a.721.721,0,0,1,.817.738.7.7,0,0,1-.8.741h-.943Zm0,2.039h.926L18.574,0h.759l-.949-1.72a1.218,1.218,0,0,0,.82-1.207,1.265,1.265,0,0,0-1.4-1.3H16.131V0h.656ZM20.795,0V-4.228h-.656V0Zm4.664-1.673V-2.2H23.725v.551h1.09v.091A1.064,1.064,0,0,1,23.643-.51c-.794,0-1.292-.615-1.292-1.611,0-.979.5-1.6,1.277-1.6a1.1,1.1,0,0,1,1.143.788h.659a1.694,1.694,0,0,0-1.8-1.4A1.96,1.96,0,0,0,21.68-2.115,1.951,1.951,0,0,0,23.634.1,1.687,1.687,0,0,0,25.459-1.673Zm4.509,0V-2.2H28.233v.551h1.09v.091A1.064,1.064,0,0,1,28.151-.51c-.794,0-1.292-.615-1.292-1.611,0-.979.5-1.6,1.277-1.6a1.1,1.1,0,0,1,1.143.788h.659a1.694,1.694,0,0,0-1.8-1.4,1.96,1.96,0,0,0-1.948,2.215A1.951,1.951,0,0,0,28.143.1,1.687,1.687,0,0,0,29.968-1.673ZM33.554-.6H31.526V-1.866h1.919v-.568H31.526v-1.2h2.027v-.6H30.87V0h2.684Zm1.6-3.053h.926a.721.721,0,0,1,.817.738.7.7,0,0,1-.8.741h-.943Zm0,2.039h.926L36.943,0H37.7l-.949-1.72a1.218,1.218,0,0,0,.82-1.207,1.265,1.265,0,0,0-1.4-1.3H34.5V0h.656Z" transform="translate(4.895 64.756)" fill="#beb3bf"/><rect width="55" height="8" transform="translate(1.895 15.756)" fill="#625967" opacity="0.6"/><rect width="2" height="8" transform="translate(-1.105 15.756)" fill="#625967" opacity="0.6"/><path d="M1.187-3.65h.926a.721.721,0,0,1,.817.738.7.7,0,0,1-.8.741H1.187Zm0,2.039h.926L2.974,0h.759L2.783-1.72A1.218,1.218,0,0,0,3.6-2.927a1.265,1.265,0,0,0-1.4-1.3H.53V0h.656ZM7.274,0h.7L6.445-4.228H5.739L4.213,0h.674l.39-1.122H6.888ZM6.059-3.46h.05l.612,1.787H5.443ZM9.346,0V-3h.047l2.171,3h.592V-4.228h-.639v3H11.47l-2.171-3H8.707V0Zm3.87-4.228V0h1.526a1.879,1.879,0,0,0,1.989-2.127,1.87,1.87,0,0,0-1.989-2.1Zm.656.6h.8a1.333,1.333,0,0,1,1.395,1.512A1.329,1.329,0,0,1,14.669-.6h-.8Zm5.546-.7a1.955,1.955,0,0,0-1.975,2.215A1.952,1.952,0,0,0,19.418.1a1.95,1.95,0,0,0,1.969-2.218A1.949,1.949,0,0,0,19.418-4.33Zm0,.612c.8,0,1.3.621,1.3,1.6s-.5,1.605-1.3,1.605-1.3-.63-1.3-1.605S18.621-3.718,19.418-3.718ZM26.552,0V-4.228h-.768L24.437-1.017h-.05L23.042-4.228h-.768V0h.609V-3.053h.041l1.239,2.93h.5L25.9-3.053h.041V0Z" transform="translate(4.895 21.756)" fill="#beb3bf"/><rect width="55" height="8" transform="translate(1.895 41.756)" fill="#625967" opacity="0.6"/><rect width="2" height="8" transform="translate(-1.105 41.756)" fill="#625967" opacity="0.6"/><path d="M1.187-3.65h.926a.721.721,0,0,1,.817.738.7.7,0,0,1-.8.741H1.187Zm0,2.039h.926L2.974,0h.759L2.783-1.72A1.218,1.218,0,0,0,3.6-2.927a1.265,1.265,0,0,0-1.4-1.3H.53V0h.656ZM7.274,0h.7L6.445-4.228H5.739L4.213,0h.674l.39-1.122H6.888ZM6.059-3.46h.05l.612,1.787H5.443ZM9.346,0V-3h.047l2.171,3h.592V-4.228h-.639v3H11.47l-2.171-3H8.707V0Zm3.87-4.228V0h1.526a1.879,1.879,0,0,0,1.989-2.127,1.87,1.87,0,0,0-1.989-2.1Zm.656.6h.8a1.333,1.333,0,0,1,1.395,1.512A1.329,1.329,0,0,1,14.669-.6h-.8Zm5.546-.7a1.955,1.955,0,0,0-1.975,2.215A1.952,1.952,0,0,0,19.418.1a1.95,1.95,0,0,0,1.969-2.218A1.949,1.949,0,0,0,19.418-4.33Zm0,.612c.8,0,1.3.621,1.3,1.6s-.5,1.605-1.3,1.605-1.3-.63-1.3-1.605S18.621-3.718,19.418-3.718ZM26.552,0V-4.228h-.768L24.437-1.017h-.05L23.042-4.228h-.768V0h.609V-3.053h.041l1.239,2.93h.5L25.9-3.053h.041V0Z" transform="translate(4.895 47.756)" fill="#beb3bf"/><rect width="55" height="8" transform="translate(1.895 67.756)" fill="#a17368" opacity="0.6"/><rect width="2" height="8" transform="translate(-1.105 67.756)" fill="#f6d537"/><path d="M1.187-3.65h.926a.721.721,0,0,1,.817.738.7.7,0,0,1-.8.741H1.187Zm0,2.039h.926L2.974,0h.759L2.783-1.72A1.218,1.218,0,0,0,3.6-2.927a1.265,1.265,0,0,0-1.4-1.3H.53V0h.656ZM7.274,0h.7L6.445-4.228H5.739L4.213,0h.674l.39-1.122H6.888ZM6.059-3.46h.05l.612,1.787H5.443ZM9.346,0V-3h.047l2.171,3h.592V-4.228h-.639v3H11.47l-2.171-3H8.707V0Zm3.87-4.228V0h1.526a1.879,1.879,0,0,0,1.989-2.127,1.87,1.87,0,0,0-1.989-2.1Zm.656.6h.8a1.333,1.333,0,0,1,1.395,1.512A1.329,1.329,0,0,1,14.669-.6h-.8Zm5.546-.7a1.955,1.955,0,0,0-1.975,2.215A1.952,1.952,0,0,0,19.418.1a1.95,1.95,0,0,0,1.969-2.218A1.949,1.949,0,0,0,19.418-4.33Zm0,.612c.8,0,1.3.621,1.3,1.6s-.5,1.605-1.3,1.605-1.3-.63-1.3-1.605S18.621-3.718,19.418-3.718ZM26.552,0V-4.228h-.768L24.437-1.017h-.05L23.042-4.228h-.768V0h.609V-3.053h.041l1.239,2.93h.5L25.9-3.053h.041V0Z" transform="translate(4.895 73.756)" fill="#f9c442"/></g></svg>