<?xml version="1.0" encoding="utf-8"?>
<svg width="14px" height="16px" viewbox="0 0 14 16" version="1.1" xmlns:xlink="http://www.w3.org/1999/xlink" xmlns="http://www.w3.org/2000/svg">
  <defs>
    <linearGradient x1="0.5" y1="0" x2="0.5" y2="1" id="gradient_1">
      <stop offset="0" stop-color="#61585C" />
      <stop offset="1" stop-color="#4F4547" />
    </linearGradient>
    <linearGradient x1="0.5" y1="0" x2="0.5" y2="1" id="gradient_2">
      <stop offset="0" stop-color="#352E31" />
      <stop offset="1" stop-color="#292224" />
    </linearGradient>
    <rect width="14" height="16" id="artboard_1" />
    <clipPath id="clip_1">
      <use xlink:href="#artboard_1" clip-rule="evenodd" />
    </clipPath>
  </defs>
  <g id="bmp00134" clip-path="url(#clip_1)">
    <g id="Group" transform="translate(-1.5258789E-05 -2.2888184E-05)">
      <g id="Group" transform="translate(0.25 0.25099945)">
        <path d="M1 0L12 0C12.5523 0 13 0.447715 13 1L13 7L0 7L0 1C5.96046e-08 0.447715 0.447715 0 1 0L1 0Z" transform="translate(0.25 0.25)" id="Shape" fill="url(#gradient_1)" fill-rule="evenodd" stroke="none" />
        <path d="M1.25 0L12.25 0C12.9404 0 13.5 0.559644 13.5 1.25L13.5 7.25C13.5 7.38807 13.3881 7.5 13.25 7.5L0.25 7.5C0.111929 7.5 0 7.38807 0 7.25L0 1.25C1.19209e-07 0.559644 0.559644 0 1.25 0L1.25 0Z" id="Shape" fill="none" fill-rule="evenodd" stroke="#4E4752" stroke-width="0.5" />
      </g>
      <path d="M14 0.5L0 0.5L0 0L14 0L14 0.5L14 0.5Z" transform="translate(0 7.5)" id="Shape" fill="#000000" fill-opacity="0.4" fill-rule="evenodd" stroke="none" />
      <path d="M14 1.992L14 1.992C13.9956 1.16669 13.3253 0.499985 12.5 0.5L1.5 0.5C0.701102 0.498919 0.0415421 1.12418 0 1.922L0 1.5C1.19209e-07 0.671573 0.671573 0 1.5 0L12.5 0C13.3284 0 14 0.671573 14 1.5L14 1.992Z" id="Shape" fill="#FFFFFF" fill-opacity="0.4" fill-rule="evenodd" stroke="none" />
      <path d="M1 0L12 0C12.5523 0 13 0.447715 13 1L13 7L0 7L0 1C5.96046e-08 0.447715 0.447715 0 1 0L1 0Z" transform="translate(0.5 0.50099945)" id="Shape" fill="#FFFFFF" fill-opacity="0" fill-rule="evenodd" stroke="none" />
      <path d="M4.278 4.228L4.278 0L3.51 0L2.162 3.211L2.112 3.211L0.768 0L0 0L0 4.228L0.609 4.228L0.609 1.175L0.65 1.175L1.89 4.105L2.39 4.105L3.629 1.175L3.67 1.175L3.67 4.228L4.278 4.228Z" transform="translate(4.8610077 1.7720032)" id="Shape" fill="#DCCDC8" fill-rule="evenodd" stroke="none" />
    </g>
    <g id="Group" transform="translate(-1.5258789E-05 7.999977)">
      <g id="Group" transform="translate(0.25 0.25099945)">
        <path d="M1 0L12 0C12.5523 0 13 0.447715 13 1L13 7L0 7L0 1C5.96046e-08 0.447715 0.447715 0 1 0L1 0Z" transform="translate(0.25 0.25)" id="Shape" fill="url(#gradient_2)" fill-rule="evenodd" stroke="none" />
        <path d="M1.25 0L12.25 0C12.9404 0 13.5 0.559644 13.5 1.25L13.5 7.25C13.5 7.38807 13.3881 7.5 13.25 7.5L0.25 7.5C0.111929 7.5 0 7.38807 0 7.25L0 1.25C1.19209e-07 0.559644 0.559644 0 1.25 0L1.25 0Z" id="Shape" fill="none" fill-rule="evenodd" stroke="#4E4752" stroke-width="0.5" />
      </g>
      <path d="M14 0.5L0 0.5L0 0L14 0L14 0.5L14 0.5Z" transform="translate(0 7.5)" id="Shape" fill="#000000" fill-opacity="0.4" fill-rule="evenodd" stroke="none" />
      <path d="M14 1.992L14 1.992C13.9956 1.16669 13.3253 0.499985 12.5 0.5L1.5 0.5C0.701102 0.498919 0.0415421 1.12418 0 1.922L0 1.5C1.19209e-07 0.671573 0.671573 0 1.5 0L12.5 0C13.3284 0 14 0.671573 14 1.5L14 1.992Z" id="Shape" fill="#FFFFFF" fill-opacity="0.1" fill-rule="evenodd" stroke="none" />
      <path d="M0 0L12.999 0L12.999 7L0 7L0 0Z" transform="translate(0.50099945 0.50099945)" id="Rectangle" fill="#FFFFFF" fill-opacity="0" fill-rule="evenodd" stroke="none" />
      <path d="M4.278 4.228L4.278 0L3.51 0L2.162 3.211L2.112 3.211L0.768 0L0 0L0 4.228L0.609 4.228L0.609 1.175L0.65 1.175L1.89 4.105L2.39 4.105L3.629 1.175L3.67 1.175L3.67 4.228L4.278 4.228Z" transform="translate(4.8610077 1.7719955)" id="Shape" fill="#FCE237" fill-rule="evenodd" stroke="none" />
    </g>
  </g>
</svg>