<?xml version="1.0" encoding="utf-8"?>
<svg width="35px" height="11px" viewbox="0 0 35 11" version="1.1" xmlns:xlink="http://www.w3.org/1999/xlink" xmlns="http://www.w3.org/2000/svg">
  <defs>
    <path d="M0 0L7 0L7 8L0 8L0 0Z" id="path_1" />
    <rect width="35" height="11" id="artboard_1" />
    <clipPath id="clip_1">
      <use xlink:href="#artboard_1" clip-rule="evenodd" />
    </clipPath>
    <clipPath id="mask_1">
      <use xlink:href="#path_1" />
    </clipPath>
  </defs>
  <g id="bmp00164" clip-path="url(#clip_1)">
    <g id="Group" transform="translate(0.25 0.25001663)">
      <path d="M0 2L0 1C0 0.723858 0.0976311 0.488155 0.292893 0.292893C0.488155 0.0976311 0.723858 0 1 0L33 0C33.2761 0 33.5118 0.0976311 33.7071 0.292893C33.9024 0.488155 34 0.723858 34 1L34 9C34 9.27614 33.9024 9.51184 33.7071 9.70711C33.5118 9.90237 33.2761 10 33 10L1 10C0.723858 10 0.488155 9.90237 0.292893 9.70711C0.0976311 9.51184 0 9.27614 0 9L0 2Z" transform="translate(0.25 0.25)" id="Rectangle" fill="#4B3E3F" fill-rule="evenodd" stroke="none" />
      <path d="M0 2.5L0 1.25C0 0.904822 0.122039 0.610194 0.366116 0.366116C0.610194 0.122039 0.904822 0 1.25 0L33.25 0C33.5952 0 33.8898 0.122039 34.1339 0.366116C34.378 0.610194 34.5 0.904822 34.5 1.25L34.5 9.25C34.5 9.59518 34.378 9.88981 34.1339 10.1339C33.8898 10.378 33.5952 10.5 33.25 10.5L1.25 10.5C0.904822 10.5 0.610194 10.378 0.366116 10.1339C0.122039 9.88981 0 9.59518 0 9.25L0 2.5Z" id="Rectangle" fill="none" fill-rule="evenodd" stroke="#4E4752" stroke-width="0.5" />
    </g>
    <path d="M33.5 1.992L1.5 1.992C0.671573 1.992 0 1.32043 0 0.492L0 0.0710001C0.0415417 0.868817 0.701101 1.49408 1.5 1.493L33.5 1.493C34.3257 1.49301 34.9961 0.825692 35 0L35 0.487C35.0013 0.885696 34.8439 1.26851 34.5624 1.5509C34.281 1.83328 33.8987 1.992 33.5 1.992L33.5 1.992Z" transform="translate(0.0009765625 9.007017)" id="Shape" fill="#000000" fill-opacity="0.4" fill-rule="evenodd" stroke="none" />
    <path d="M35 1.993L35 1.993C34.9961 1.16728 34.3257 0.499977 33.5 0.5L1.5 0.5C0.700735 0.498946 0.0410284 1.12479 0 1.923L1.19209e-07 1.5C2.38419e-07 0.671573 0.671573 0 1.5 0L33.5 0C34.3284 0 35 0.671573 35 1.5L35 1.993Z" transform="translate(0 -0.0009833574)" id="Shape" fill="#FFFFFF" fill-opacity="0.4" fill-rule="evenodd" stroke="none" />
    <path d="M0 2L0 1C0 0.723858 0.0976311 0.488155 0.292893 0.292893C0.488155 0.0976311 0.723858 0 1 0L33 0C33.2761 0 33.5118 0.0976311 33.7071 0.292893C33.9024 0.488155 34 0.723858 34 1L34 9C34 9.27614 33.9024 9.51184 33.7071 9.70711C33.5118 9.90237 33.2761 10 33 10L1 10C0.723858 10 0.488155 9.90237 0.292893 9.70711C0.0976311 9.51184 0 9.27614 0 9L0 2Z" transform="translate(0.5 0.5000166)" id="Rectangle" fill="#FFFFFF" fill-opacity="0" fill-rule="evenodd" stroke="none" />
    <g id="Group" transform="translate(16 2.110454)">
      <path d="M2.93312 5.86606C2.82387 5.86609 2.71471 5.86008 2.60612 5.84806C2.62424 5.48425 2.41198 5.14823 2.07566 5.00832C1.73934 4.86841 1.35138 4.95474 1.10612 5.22406C0.935547 5.08758 0.780604 4.93263 0.644119 4.76206C0.914959 4.51719 1.00263 4.12849 0.863118 3.79106C0.729598 3.46742 0.413214 3.25703 0.0631189 3.25906L0.0181179 3.25906C-0.00603867 3.04173 -0.00603867 2.82239 0.0181179 2.60506L0.0641184 2.60506C0.177404 2.60514 0.289577 2.58271 0.394118 2.53906C0.605227 2.45238 0.772981 2.28498 0.860118 2.07406C1.00161 1.73604 0.914202 1.34552 0.642118 1.10006C0.777584 0.931112 0.931169 0.777527 1.10012 0.642062C1.26395 0.823327 1.49679 0.926854 1.74112 0.927063C1.8544 0.927063 1.96655 0.904631 2.07112 0.861063C2.4102 0.721973 2.62463 0.384092 2.60612 0.0180624C2.82312 -0.00602078 3.04212 -0.00602078 3.25912 0.0180624C3.24013 0.383344 3.45322 0.721002 3.79112 0.861062C4.00236 0.948841 4.23987 0.948841 4.45112 0.861063C4.5697 0.811954 4.67592 0.737158 4.76212 0.642062C4.93268 0.778554 5.08763 0.933497 5.22412 1.10406C4.96183 1.3438 4.87329 1.7198 5.00106 2.05137C5.12883 2.38295 5.44678 2.60232 5.80212 2.60406L5.84812 2.60406C5.87229 2.82139 5.87229 3.04073 5.84812 3.25806L5.80012 3.25806C5.44478 3.2598 5.12683 3.47917 4.99906 3.81075C4.87129 4.14233 4.95983 4.51833 5.22212 4.75806C5.08563 4.92863 4.93068 5.08357 4.76012 5.22006C4.51485 4.95074 4.1269 4.86442 3.79058 5.00433C3.45426 5.14424 3.242 5.48025 3.26012 5.84406C3.15161 5.85742 3.04244 5.86476 2.93312 5.86606L2.93312 5.86606ZM2.93312 1.72606C2.44435 1.72566 2.0035 2.01983 1.81626 2.47132C1.62903 2.92281 1.73232 3.44263 2.07793 3.78825C2.42355 4.13386 2.94337 4.23715 3.39486 4.04992C3.84635 3.86269 4.14052 3.42183 4.14012 2.93306C4.1396 2.26659 3.59972 1.7262 2.93318 1.72506L2.93312 1.72606Z" id="Shape" fill="#C9B5B0" fill-rule="evenodd" stroke="none" />
      <path d="M2.63686 3.69725C2.56959 3.72516 2.50083 3.74935 2.4309 3.7697C2.34975 3.53845 2.13137 3.38369 1.8863 3.38376C1.64122 3.38382 1.42293 3.5387 1.3419 3.76999C1.20155 3.72938 1.06612 3.67337 0.938084 3.60297C1.04268 3.38247 0.997501 3.12002 0.825192 2.94718C0.660482 2.78138 0.411804 2.73176 0.196079 2.82166L0.167444 2.83353C0.0969086 2.70558 0.0407524 2.5702 0 2.42989L0.0277119 2.41839C0.097887 2.38977 0.161674 2.34748 0.215368 2.29399C0.323755 2.18604 0.384476 2.03923 0.384008 1.88626C0.384012 1.64186 0.230301 1.42387 9.15527e-05 1.34181C0.0407085 1.20146 0.0967216 1.06603 0.16711 0.937994C0.314859 1.00785 0.485275 1.01189 0.636171 0.949113C0.70632 0.920442 0.770102 0.878163 0.823828 0.824715C0.996296 0.651411 1.04107 0.388333 0.935627 0.167736C1.06359 0.0971985 1.19896 0.0410419 1.33928 0.000291824C1.42119 0.230917 1.63947 0.384954 1.88421 0.384839C2.03741 0.384924 2.18433 0.323979 2.29248 0.215479C2.35315 0.154603 2.39953 0.0810013 2.42828 0C2.56863 0.0406179 2.70405 0.0966315 2.83209 0.167018C2.72914 0.38287 2.77 0.639862 2.93484 0.81313C3.09967 0.986398 3.35431 1.04002 3.57502 0.947953L3.60273 0.936458C3.67328 1.06441 3.72944 1.19979 3.77018 1.34011L3.74247 1.3516C3.52139 1.4428 3.37948 1.66092 3.38569 1.89999C3.39191 2.13906 3.54495 2.34952 3.77047 2.42911C3.72985 2.56946 3.67384 2.70489 3.60345 2.83292C3.38267 2.72773 3.11955 2.77315 2.94681 2.94628C2.77407 3.11941 2.72924 3.38263 2.83493 3.60318C2.77069 3.63817 2.70457 3.66958 2.63686 3.69726L2.63686 3.69725ZM1.57549 1.13866C1.1633 1.30965 0.96777 1.78241 1.13876 2.1946C1.30974 2.60678 1.7825 2.80232 2.19469 2.63133C2.60688 2.46034 2.80241 1.98759 2.63142 1.5754C2.46004 1.16365 1.98771 0.968278 1.57552 1.13865L1.57549 1.13866Z" transform="translate(5.5510254 3.1195507)" id="Shape" fill="#C9B5B0" fill-rule="evenodd" stroke="none" />
    </g>
    <g id="Mask-group" transform="translate(1.5 1.5000167)">
      <path d="M0 0L7 0L7 8L0 8L0 0Z" id="Rectangle" fill="none" fill-rule="evenodd" stroke="none" />
      <g clip-path="url(#mask_1)">
        <g id="Group" transform="translate(0.5830078 0.57096815)">
          <path d="M4.224 1.00003L5.833 1.97303L5.831 3.17097e-05L0.486 3.17097e-05C0.236121 -0.00280809 0.0253356 0.185424 0 0.434032L0 4.23403L1.1 4.50603C1.15455 4.51987 1.21103 4.49184 1.233 4.44003L1.507 3.55403C1.51915 3.52164 1.54546 3.4966 1.57841 3.48607C1.61136 3.47554 1.64732 3.48069 1.676 3.50003L4.31 5.10003C4.41 5.16003 4.336 5.30003 4.221 5.27003L2.191 4.77003C2.13622 4.75485 2.07912 4.78515 2.061 4.83903L1.792 5.72503C1.77956 5.75589 1.75414 5.7797 1.72254 5.79011C1.69093 5.80052 1.65634 5.79646 1.628 5.77903L0 4.79003L0 6.85703L5.347 6.85703C5.60705 6.8573 5.82123 6.65281 5.833 6.39303L5.833 2.54003L4.743 2.27503C4.68885 2.25996 4.63212 2.28855 4.612 2.34103L4.33 3.22903C4.31749 3.25983 4.29215 3.28363 4.26063 3.2942C4.22911 3.30477 4.19455 3.30106 4.166 3.28403L1.528 1.68003C1.428 1.62003 1.502 1.48003 1.617 1.50903L3.647 2.00903C3.7011 2.02361 3.75752 1.99519 3.778 1.94303L4.06 1.05403C4.07272 1.02341 4.09813 0.999837 4.12963 0.989467C4.16113 0.979096 4.19558 0.982953 4.224 1.00003L4.224 1.00003Z" id="Shape" fill="#FF9000" fill-rule="evenodd" stroke="none" />
        </g>
      </g>
    </g>
  </g>
</svg>