<?xml version="1.0" encoding="UTF-8" standalone="no"?>
<svg
   xmlns:dc="http://purl.org/dc/elements/1.1/"
   xmlns:cc="http://creativecommons.org/ns#"
   xmlns:rdf="http://www.w3.org/1999/02/22-rdf-syntax-ns#"
   xmlns:svg="http://www.w3.org/2000/svg"
   xmlns="http://www.w3.org/2000/svg"
   xmlns:xlink="http://www.w3.org/1999/xlink"
   xmlns:sodipodi="http://sodipodi.sourceforge.net/DTD/sodipodi-0.dtd"
   xmlns:inkscape="http://www.inkscape.org/namespaces/inkscape"
   width="132"
   height="33"
   viewBox="0 0 132 33"
   version="1.1"
   id="svg14161"
   sodipodi:docname="bmp00161.svg"
   inkscape:version="1.0.1 (3bc2e813f5, 2020-09-07)">
  <metadata
     id="metadata14165">
    <rdf:RDF>
      <cc:Work
         rdf:about="">
        <dc:format>image/svg+xml</dc:format>
        <dc:type
           rdf:resource="http://purl.org/dc/dcmitype/StillImage" />
        <dc:title></dc:title>
      </cc:Work>
    </rdf:RDF>
  </metadata>
  <sodipodi:namedview
     pagecolor="#2a2a2a"
     bordercolor="#666666"
     borderopacity="1"
     objecttolerance="10"
     gridtolerance="10"
     guidetolerance="10"
     inkscape:pageopacity="0"
     inkscape:pageshadow="2"
     inkscape:window-width="3753"
     inkscape:window-height="2137"
     id="namedview14163"
     showgrid="false"
     inkscape:zoom="22.627417"
     inkscape:cx="62.160304"
     inkscape:cy="12.86784"
     inkscape:window-x="-8"
     inkscape:window-y="-8"
     inkscape:window-maximized="1"
     inkscape:current-layer="svg14161" />
  <defs
     id="defs14013">
    <linearGradient
       id="a"
       x1="0.5"
       x2="0.5"
       y2="1"
       gradientUnits="objectBoundingBox">
      <stop
         offset="0"
         stop-color="#787477"
         id="stop14003" />
      <stop
         offset="1"
         stop-color="#716b6c"
         id="stop14005" />
    </linearGradient>
    <linearGradient
       id="b"
       x1="0.5"
       x2="0.5"
       y2="1"
       gradientUnits="objectBoundingBox">
      <stop
         offset="0"
         stop-color="#413f40"
         id="stop14008" />
      <stop
         offset="1"
         stop-color="#464141"
         id="stop14010" />
    </linearGradient>
    <linearGradient
       x1="0.5"
       y1="0"
       x2="0.5"
       y2="1"
       id="linearGradient10622">
      <stop
         offset="0"
         stop-color="#787477"
         id="stop10618" />
      <stop
         offset="1"
         stop-color="#716B6C"
         id="stop10620"
         style="stop-color:#696568;stop-opacity:1" />
    </linearGradient>
    <linearGradient
       inkscape:collect="always"
       xlink:href="#linearGradient10622"
       id="linearGradient19550"
       gradientUnits="userSpaceOnUse"
       gradientTransform="translate(0,11.000315)"
       x1="8.953125"
       y1="0.78125"
       x2="8.921875"
       y2="9.8125" />
    <linearGradient
       inkscape:collect="always"
       xlink:href="#linearGradient10622"
       id="linearGradient19558"
       gradientUnits="userSpaceOnUse"
       gradientTransform="translate(0,22.000315)"
       x1="8.953125"
       y1="0.78125"
       x2="8.921875"
       y2="9.8125" />
    <linearGradient
       inkscape:collect="always"
       xlink:href="#linearGradient10622"
       id="linearGradient19566"
       gradientUnits="userSpaceOnUse"
       gradientTransform="matrix(0.99989987,0,0,1,44,3.15e-4)"
       x1="8.953125"
       y1="0.78125"
       x2="8.921875"
       y2="9.8125" />
    <linearGradient
       inkscape:collect="always"
       xlink:href="#linearGradient10622"
       id="linearGradient19582"
       gradientUnits="userSpaceOnUse"
       gradientTransform="matrix(0.99989987,0,0,1,44,22.000315)"
       x1="8.953125"
       y1="0.78125"
       x2="8.921875"
       y2="9.8125" />
    <linearGradient
       inkscape:collect="always"
       xlink:href="#linearGradient10622"
       id="linearGradient19590"
       gradientUnits="userSpaceOnUse"
       gradientTransform="matrix(-1,0,0,1,132,3.15e-4)"
       x1="8.953125"
       y1="0.78125"
       x2="8.921875"
       y2="9.8125" />
    <linearGradient
       inkscape:collect="always"
       xlink:href="#linearGradient10622"
       id="linearGradient19598"
       gradientUnits="userSpaceOnUse"
       gradientTransform="matrix(-1,0,0,1,132,11.000315)"
       x1="8.953125"
       y1="0.78125"
       x2="8.921875"
       y2="9.8125" />
  </defs>
  <path
     id="path19600"
     style="opacity:1;fill:#0a090a;fill-opacity:1;stroke:none;stroke-width:1.19156;stroke-linecap:butt;stroke-linejoin:miter;stroke-miterlimit:4;stroke-dasharray:none;stroke-opacity:1;paint-order:stroke markers fill"
     d="m 88.01381,32.999843 42.36874,3.15e-4 C 131.28627,33.000165 132,32.289417 132,31.385555 v -7.753721 c 0,-0.903862 -0.72754,-1.631512 -1.63126,-1.631519 L 88,22 88.0138,32.999843 Z"
     sodipodi:nodetypes="cssssccc" />
  <path
     id="path19602"
     style="opacity:1;fill:#413f40;fill-opacity:1;stroke:none;stroke-width:1.11;stroke-linecap:butt;stroke-linejoin:miter;stroke-miterlimit:4;stroke-dasharray:none;stroke-opacity:1;paint-order:stroke markers fill"
     d="M 130.15356,22.414189 H 88.43901 v 10.152484 h 41.71456 c 0.79056,0 1.427,-0.636445 1.427,-1.427005 v -7.298475 c 0,-0.79056 -0.63644,-1.427004 -1.427,-1.427004 z"
     sodipodi:nodetypes="sccsssss" />
  <path
     id="path19592"
     style="opacity:1;fill:#0a090a;fill-opacity:1;stroke:none;stroke-width:1.19156;stroke-linecap:butt;stroke-linejoin:miter;stroke-miterlimit:4;stroke-dasharray:none;stroke-opacity:1;paint-order:stroke markers fill"
     d="m 88.01381,21.999843 42.36874,3.15e-4 C 131.28627,22.000165 132,21.289417 132,20.385555 v -7.753721 c 0,-0.903862 -0.72754,-1.631512 -1.63126,-1.631519 L 88,11 88.0138,21.999843 Z"
     sodipodi:nodetypes="cssssccc" />
  <path
     id="path19594"
     style="opacity:1;fill:url(#linearGradient19598);fill-opacity:1;stroke:none;stroke-width:1.11;stroke-linecap:butt;stroke-linejoin:miter;stroke-miterlimit:4;stroke-dasharray:none;stroke-opacity:1;paint-order:stroke markers fill"
     d="M 130.15356,11.414189 H 88.43901 v 10.152484 h 41.71456 c 0.79056,0 1.427,-0.636445 1.427,-1.427005 v -7.298475 c 0,-0.79056 -0.63644,-1.427004 -1.427,-1.427004 z"
     sodipodi:nodetypes="sccsssss" />
  <path
     id="path19596"
     style="opacity:1;fill:#959197;fill-opacity:1;stroke:none;stroke-width:0.723173;stroke-linecap:butt;stroke-linejoin:miter;stroke-miterlimit:4;stroke-dasharray:none;stroke-opacity:1;paint-order:stroke markers fill"
     d="m 130.30469,11.423828 c 0.28347,1.77e-4 0.80881,0.234342 1.07617,0.697266 0.27197,0.470905 0.20508,0.776105 0.20508,0.822265 0,0.05338 -0.34678,-1.023437 -1.26563,-1.023437 h -41.8789 l 0.009,-0.496094 h 41.85429 z"
     sodipodi:nodetypes="ccsccccc" />
  <path
     id="path19584"
     style="opacity:1;fill:#0a090a;fill-opacity:1;stroke:none;stroke-width:1.19156;stroke-linecap:butt;stroke-linejoin:miter;stroke-miterlimit:4;stroke-dasharray:none;stroke-opacity:1;paint-order:stroke markers fill"
     d="m 88.01381,10.999843 42.36874,3.15e-4 C 131.28627,11.000165 132,10.289417 132,9.3855553 V 1.6318339 C 132,0.727972 131.27246,3.2214827e-4 130.36874,3.15e-4 L 88,0 88.0138,10.999843 Z"
     sodipodi:nodetypes="cssssccc" />
  <path
     id="path19586"
     style="opacity:1;fill:url(#linearGradient19590);fill-opacity:1;stroke:none;stroke-width:1.11;stroke-linecap:butt;stroke-linejoin:miter;stroke-miterlimit:4;stroke-dasharray:none;stroke-opacity:1;paint-order:stroke markers fill"
     d="M 130.15356,0.414189 H 88.43901 v 10.152484 h 41.71456 c 0.79056,0 1.427,-0.6364449 1.427,-1.4270053 V 1.8411929 c 0,-0.7905599 -0.63644,-1.4270039 -1.427,-1.4270039 z"
     sodipodi:nodetypes="sccsssss" />
  <path
     id="path19588"
     style="opacity:1;fill:#959197;fill-opacity:1;stroke:none;stroke-width:0.723173;stroke-linecap:butt;stroke-linejoin:miter;stroke-miterlimit:4;stroke-dasharray:none;stroke-opacity:1;paint-order:stroke markers fill"
     d="m 130.30469,0.42382812 c 0.28347,1.77e-4 0.80881,0.23434163 1.07617,0.69726568 0.27197,0.4709048 0.20508,0.7761055 0.20508,0.8222655 0,0.053384 -0.34678,-1.02343742 -1.26563,-1.02343742 h -41.8789 l 0.009,-0.49609376 h 41.85429 z"
     sodipodi:nodetypes="ccsccccc" />
  <path
     id="path19576"
     style="opacity:1;fill:#0a090a;fill-opacity:1;stroke:none;stroke-width:1.1915;stroke-linecap:butt;stroke-linejoin:miter;stroke-miterlimit:4;stroke-dasharray:none;stroke-opacity:1;paint-order:stroke markers fill"
     d="M 87.981783,32.999843 44,33.000158 V 22.000315 L 87.995594,22 87.981778,32.999843 Z"
     sodipodi:nodetypes="cccccc" />
  <path
     id="path19578"
     style="opacity:1;fill:url(#linearGradient19582);fill-opacity:1;stroke:none;stroke-width:1.10994;stroke-linecap:butt;stroke-linejoin:miter;stroke-miterlimit:4;stroke-dasharray:none;stroke-opacity:1;paint-order:stroke markers fill"
     d="M 44.000002,22.414189 H 87.995594 V 32.566673 H 44 l -2e-6,-10.152484 z"
     sodipodi:nodetypes="sccccs" />
  <path
     id="path19580"
     style="opacity:1;fill:#959197;fill-opacity:1;stroke:none;stroke-width:0.723137;stroke-linecap:butt;stroke-linejoin:miter;stroke-miterlimit:4;stroke-dasharray:none;stroke-opacity:1;paint-order:stroke markers fill"
     d="M 44.000005,22.423828 44,22.919922 h 43.999994 l -0.0088,-0.496094 h -43.9912 z"
     sodipodi:nodetypes="cccccc" />
  <path
     id="path19568"
     style="opacity:1;fill:#0a090a;fill-opacity:1;stroke:none;stroke-width:1.1915;stroke-linecap:butt;stroke-linejoin:miter;stroke-miterlimit:4;stroke-dasharray:none;stroke-opacity:1;paint-order:stroke markers fill"
     d="M 87.981783,21.999843 44,22.000158 V 11.000315 L 87.995594,11 87.981778,21.999843 Z"
     sodipodi:nodetypes="cccccc" />
  <path
     id="path19570"
     style="opacity:1;fill:#413f40;fill-opacity:1;stroke:none;stroke-width:1.10994;stroke-linecap:butt;stroke-linejoin:miter;stroke-miterlimit:4;stroke-dasharray:none;stroke-opacity:1;paint-order:stroke markers fill"
     d="M 44.000002,11.414189 H 87.995594 V 21.566673 H 44 l -2e-6,-10.152484 z"
     sodipodi:nodetypes="sccccs" />
  <path
     id="path19560"
     style="opacity:1;fill:#0a090a;fill-opacity:1;stroke:none;stroke-width:1.1915;stroke-linecap:butt;stroke-linejoin:miter;stroke-miterlimit:4;stroke-dasharray:none;stroke-opacity:1;paint-order:stroke markers fill"
     d="M 87.981783,10.999843 44,11.000158 V 3.15e-4 L 87.995594,0 87.981778,10.999843 Z"
     sodipodi:nodetypes="cccccc" />
  <path
     id="path19562"
     style="opacity:1;fill:url(#linearGradient19566);fill-opacity:1;stroke:none;stroke-width:1.10994;stroke-linecap:butt;stroke-linejoin:miter;stroke-miterlimit:4;stroke-dasharray:none;stroke-opacity:1;paint-order:stroke markers fill"
     d="M 44.000002,0.414189 H 87.995594 V 10.566673 H 44 l -2e-6,-10.152484 z"
     sodipodi:nodetypes="sccccs" />
  <path
     id="path19564"
     style="opacity:1;fill:#959197;fill-opacity:1;stroke:none;stroke-width:0.723137;stroke-linecap:butt;stroke-linejoin:miter;stroke-miterlimit:4;stroke-dasharray:none;stroke-opacity:1;paint-order:stroke markers fill"
     d="M 44.000005,0.42382812 44,0.91992188 h 43.999994 l -0.0088,-0.49609376 h -43.9912 z"
     sodipodi:nodetypes="cccccc" />
  <rect
     width="42"
     height="9.9989996"
     fill="#ffffff"
     opacity="0"
     id="rect14025"
     x="44.5"
     y="0.5" />
  <path
     d="M 54.527136,8.0643071 V 4.0170218 h 0.05833 l 2.831525,4.0472853 h 0.633344 V 2.8447814 h -0.648159 v 4.0621003 h -0.0537 L 54.516025,2.8447814 h -0.633343 v 5.2195257 z m 6.329729,-3.4176458 c 0.636318,-0.00829 1.103677,0.5304716 1.047238,1.1463141 h -2.148181 c -0.02228,-0.6224068 0.459706,-1.1341501 1.100943,-1.1463141 z m 1.026868,2.4074449 c -0.200745,0.3676461 -0.58158,0.570029 -1.005572,0.527786 -0.681729,0.00757 -1.089858,-0.4890289 -1.125017,-1.2583529 v -0.027778 h 2.799118 V 6.0568684 c 0,-1.2100883 -0.610625,-1.9714468 -1.692619,-1.9602157 -1.104891,0.01891 -1.90504,0.9602254 -1.753731,2.0231797 0.003,1.2321942 0.643736,2.0272307 1.759286,2.0148462 0.755218,0.065064 1.412101,-0.3747453 1.640766,-1.0796465 z m 4.803778,-2.8889339 h -0.622232 v 2.3074434 c 0.07959,0.6176542 -0.419747,1.1413673 -1.063906,1.0926096 -0.64477,0.00867 -0.88242,-0.3270015 -0.88242,-1.0268679 V 4.1651723 h -0.622232 v 2.5250393 c 0,0.9182643 0.423879,1.4557267 1.331501,1.4435411 0.523573,0.040344 0.97973,-0.2211211 1.208352,-0.6805662 h 0.05741 v 0.6111206 h 0.593528 z m 1.432429,-1.008349 v 1.0092749 h -0.629639 v 0.5213045 h 0.629639 v 2.3657776 c 0,0.7397068 0.295867,1.0518214 1.125017,1.0416829 0.126772,-0.00279 0.241265,-0.011841 0.365747,-0.036112 V 7.5328174 c -0.09901,0.011416 -0.189245,0.013974 -0.288894,0.014815 -0.417849,0.00508 -0.565873,-0.1962342 -0.578711,-0.6546398 V 4.6864767 h 0.868532 V 4.1660982 H 68.741247 V 3.1568233 Z m 2.430593,4.9074838 h 0.622232 V 5.6485287 c -0.0029,-0.5506105 0.45816,-0.9825257 1.023164,-0.9481629 0.136699,1.474e-4 0.263313,0.014735 0.398155,0.036112 V 4.1142456 C 72.488314,4.10299 72.389388,4.0949002 72.282968,4.0957266 71.809921,4.0642512 71.38702,4.3200489 71.20147,4.7438848 H 71.14314 V 4.1651723 h -0.592602 z m 4.02136,-0.4777852 c -0.459,0.00275 -0.786975,-0.2322263 -0.788901,-0.6296394 -0.0019,-0.3974133 0.25134,-0.5938285 0.853717,-0.6361211 l 1.04909,-0.06852 V 6.6105803 C 75.6631,7.1920944 75.16245,7.6335641 74.571893,7.5865219 Z m -0.115742,0.5463048 c 0.495309,-0.049531 0.94832,-0.2287854 1.203722,-0.6481582 h 0.05833 v 0.5796386 h 0.593528 v -2.669486 c 0,-0.8065863 -0.518086,-1.3014723 -1.481504,-1.2963165 -0.845106,0.00452 -1.452375,0.4143724 -1.529654,1.0379791 h 0.62964 c 0.08474,-0.3065269 0.405343,-0.48169 0.878717,-0.4842668 0.590777,-0.00322 0.962684,0.2777517 0.88242,0.7407523 v 0.356487 l -1.129647,0.06852 c -0.921072,0.059881 -1.424598,0.456824 -1.421319,1.1537217 0.01405,0.6978889 0.627394,1.229966 1.315763,1.1611292 z m 3.038936,-0.06852 h 0.622232 V 2.617 h -0.622232 z"
     fill="#e4dcd9"
     id="path14027"
     style="stroke-width:0.92594"
     sodipodi:nodetypes="ccccccccccccccccccccccscccccccccsccscccccccccccsccccscccccccccccccccccccsccccsccccssccsscccssccccc" />
  <rect
     width="42"
     height="9.9989996"
     fill="#ffffff"
     opacity="0"
     id="rect14041"
     x="44.5"
     y="11.5" />
  <rect
     width="42"
     height="9.9989996"
     fill="#ffffff"
     opacity="0"
     id="rect14057"
     x="44.5"
     y="22.5" />
  <path
     d="m 88.5,0.5 h 41 a 1,1 0 0 1 1,1 v 8 a 1,1 0 0 1 -1,1 h -41 z"
     fill="#ffffff"
     opacity="0"
     id="path14073" />
  <path
     d="m 102.05865,8.1612593 c 1.12342,0 1.7881,-0.5523448 1.7881,-1.4810329 0.0189,-0.6758201 -0.50277,-1.2442895 -1.17771,-1.2834993 v -0.058043 c 0.53264,-0.1188889 0.91128,-0.5917088 0.9109,-1.1374557 0,-0.8079212 -0.5926,-1.3162656 -1.56154,-1.3162656 H 100 v 5.2762965 z m -1.40426,-4.6958664 h 1.21703 c 0.65532,0 1.03447,0.3108109 1.03447,0.8481768 0,0.5617065 -0.4063,0.8425598 -1.20298,0.8425598 h -1.04478 z m 0,4.1145001 V 5.7271977 h 1.2395 c 0.84256,0 1.27226,0.310811 1.27226,0.9211987 0,0.6103877 -0.4166,0.9361775 -1.21048,0.9361775 z m 4.18658,0.5813663 h 0.62912 V 5.7187721 c 0.002,-0.5591341 0.47775,-0.9993237 1.03541,-0.9586457 0.13494,0.0014 0.26955,0.013614 0.40255,0.036511 V 4.167526 c -0.1044,-0.012358 -0.20943,-0.01861 -0.31455,-0.018724 -0.46675,-0.036261 -0.90538,0.2266159 -1.09346,0.6553242 h -0.058 V 4.2190158 h -0.60009 z m 2.86752,0 h 0.62911 V 4.2190158 h -0.62911 z m 0.31455,-4.7426753 c 0.24228,-5.135e-4 0.43855,-0.1967897 0.43907,-0.4390672 -0.003,-0.240814 -0.19824,-0.4348254 -0.43907,-0.4353226 -0.24228,5.134e-4 -0.43856,0.1967896 -0.43907,0.4390673 0.003,0.2408139 0.19824,0.4348252 0.43907,0.4353225 z m 3.10811,4.1285428 c -0.73115,0 -1.1412,-0.5560894 -1.1412,-1.4155004 0,-0.8594109 0.41005,-1.4155004 1.1412,-1.4155004 0.73116,0 1.17022,0.5560895 1.17022,1.4155004 0,0.859411 -0.43906,1.4155004 -1.17022,1.4155004 z m 0.029,2.1279315 c 1.07473,0 1.75533,-0.5617065 1.75533,-1.4445219 V 4.2190158 h -0.59915 v 0.6253666 h -0.059 c -0.26264,-0.4460919 -0.74836,-0.7126643 -1.26571,-0.6946438 -1.01294,0 -1.65329,0.8004318 -1.65329,1.9818878 0,1.181456 0.63379,1.9715899 1.65423,1.9715899 0.50616,0.019462 0.98164,-0.2424106 1.23575,-0.6806011 h 0.059 v 0.775155 c 0,0.5813662 -0.42034,0.9286881 -1.12341,0.9286881 -0.57014,0 -0.9212,-0.2078314 -0.99048,-0.5298765 h -0.66562 c 0.0945,0.6506434 0.70213,1.0784765 1.65235,1.0784765 z m 2.97705,-1.513799 h 0.62911 V 5.8283049 c -0.0608,-0.6301406 0.46237,-1.162277 1.09345,-1.1121789 0.59635,0 0.9109,0.3473219 0.9109,1.0457103 v 2.399423 h 0.62631 V 5.6083032 c 0.0995,-0.8029067 -0.55045,-1.5008289 -1.3584,-1.4585646 -0.5101,-0.046205 -0.99526,0.2292155 -1.21703,0.690899 h -0.0552 V 2.653727 h -0.62911 z m 4.67339,-4.9617408 V 4.219952 h -0.6366 v 0.5270679 h 0.6366 v 2.3919335 c 0,0.748942 0.32579,1.0531997 1.13746,1.0531997 0.1241,-0.00126 0.24784,-0.013476 0.36979,-0.036511 V 7.6238934 c -0.097,0.010354 -0.19453,0.015355 -0.29209,0.014979 -0.40911,0 -0.58511,-0.1975334 -0.58511,-0.6618775 v -2.230911 h 0.87814 V 4.219952 h -0.8772 V 3.1995185 Z"
     fill="#e4dcd9"
     id="path14075"
     style="stroke-width:0.936177"
     sodipodi:nodetypes="sccccsccscsssccccssccccccccccccccccccccccccssssssscccccscccssccsccccsccccccccccccccsccccscccccc" />
  <path
     d="m 88.5,11.5 h 41 a 1,1 0 0 1 1,1 v 8 a 1,1 0 0 1 -1,1 h -41 z"
     fill="#ffffff"
     opacity="0"
     id="path14089" />
  <path
     d="m 88.5,22.5 h 41 a 1,1 0 0 1 1,1 v 8 a 1,1 0 0 1 -1,1 h -41 z"
     fill="#ffffff"
     opacity="0"
     id="path14105" />
  <path
     id="rect10608"
     style="opacity:1;fill:#0a090a;fill-opacity:1;stroke:none;stroke-width:1.19156;stroke-linecap:butt;stroke-linejoin:miter;stroke-miterlimit:4;stroke-dasharray:none;stroke-opacity:1;paint-order:stroke markers fill"
     d="M 43.986187,10.999843 1.61745,11.000158 C 0.71372991,11.000165 0,10.289417 0,9.3855553 V 1.6318339 C 0,0.727972 0.72754274,3.2214827e-4 1.6312628,3.15e-4 L 44,0 43.986182,10.999843 Z"
     sodipodi:nodetypes="cssssccc" />
  <path
     id="rect7997"
     style="opacity:1;fill:#413f40;fill-opacity:1;stroke:none;stroke-width:1.11;stroke-linecap:butt;stroke-linejoin:miter;stroke-miterlimit:4;stroke-dasharray:none;stroke-opacity:1;paint-order:stroke markers fill"
     d="m 1.846436,0.414189 41.714557,0 -4e-6,10.152484 -41.714557,0 c -0.790561,0 -1.427005,-0.6364449 -1.427005,-1.4270053 V 1.8411929 c 0,-0.7905599 0.636444,-1.4270039 1.427005,-1.4270039 z"
     sodipodi:nodetypes="sccsssss" />
  <path
     d="m 1.5,0.499 h 41 v 10 h -41 a 1,1 0 0 1 -1,-1 v -8 a 1,1 0 0 1 1,-1 z"
     fill="#ffffff"
     opacity="0"
     id="path14121" />
  <path
     d="m 14.922,4.05 h 0.047 l 1.297,4.449 H 16.93 L 18.465,2.862 H 17.73 L 16.609,7.444 H 16.562 L 15.3,2.862 H 14.59 L 13.328,7.444 H 13.281 L 12.16,2.862 h -0.734 l 1.535,5.637 h 0.664 z m 5.433,3.933 c -0.488,0 -0.852,-0.25 -0.852,-0.68 0,-0.43 0.281,-0.645 0.922,-0.687 l 1.133,-0.074 v 0.387 a 1.108,1.108 0 0 1 -1.203,1.054 z m -0.125,0.59 a 1.455,1.455 0 0 0 1.3,-0.7 h 0.06 v 0.626 h 0.64 V 5.616 c 0,-0.875 -0.574,-1.4 -1.6,-1.4 -0.9,0 -1.562,0.445 -1.652,1.121 h 0.68 c 0.094,-0.332 0.445,-0.523 0.949,-0.523 0.629,0 0.953,0.285 0.953,0.8 V 5.999 L 20.345,6.073 C 19.365,6.132 18.81,6.565 18.81,7.319 a 1.281,1.281 0 0 0 1.42,1.254 z m 3.243,-0.074 h 0.672 V 5.89 A 1.031,1.031 0 0 1 25.25,4.866 2.7,2.7 0 0 1 25.68,4.905 V 4.233 a 2.885,2.885 0 0 0 -0.336,-0.02 1.176,1.176 0 0 0 -1.168,0.7 H 24.113 V 4.288 h -0.64 z m 3.127,0 h 0.67 V 5.89 a 1.018,1.018 0 0 1 0.977,-1.07 0.8,0.8 0 0 1 0.879,0.82 V 8.499 H 29.8 V 5.792 a 0.947,0.947 0 0 1 0.977,-0.973 c 0.594,0 0.887,0.3 0.887,0.926 v 2.754 h 0.672 V 5.589 A 1.228,1.228 0 0 0 30.996,4.214 1.41,1.41 0 0 0 29.7,4.952 H 29.641 A 1.216,1.216 0 0 0 28.477,4.214 1.191,1.191 0 0 0 27.3,4.952 H 27.238 V 4.288 H 26.6 Z"
     fill="#fce237"
     id="path14123" />
  <path
     id="path19544"
     style="opacity:1;fill:#0a090a;fill-opacity:1;stroke:none;stroke-width:1.19156;stroke-linecap:butt;stroke-linejoin:miter;stroke-miterlimit:4;stroke-dasharray:none;stroke-opacity:1;paint-order:stroke markers fill"
     d="M 43.986187,21.999843 1.61745,22.000158 C 0.71372991,22.000165 0,21.289417 0,20.385555 V 12.631834 C 0,11.727972 0.72754274,11.000322 1.6312628,11.000315 L 44,11 43.986182,21.999843 Z"
     sodipodi:nodetypes="cssssccc" />
  <path
     d="m 1.5,11.499 h 41 v 10 h -41 a 1,1 0 0 1 -1,-1 v -8 a 1,1 0 0 1 1,-1 z"
     fill="#ffffff"
     opacity="0"
     id="path14137" />
  <path
     id="path19546"
     style="opacity:1;fill:url(#linearGradient19550);fill-opacity:1;stroke:none;stroke-width:1.11;stroke-linecap:butt;stroke-linejoin:miter;stroke-miterlimit:4;stroke-dasharray:none;stroke-opacity:1;paint-order:stroke markers fill"
     d="m 1.846436,11.414189 h 41.714557 l -4e-6,10.152484 H 1.846432 c -0.790561,0 -1.427005,-0.636445 -1.427005,-1.427005 v -7.298475 c 0,-0.79056 0.636444,-1.427004 1.427005,-1.427004 z"
     sodipodi:nodetypes="sccsssss" />
  <path
     d="m 14.922,15.05 h 0.047 l 1.297,4.449 h 0.664 l 1.535,-5.637 H 17.73 l -1.121,4.582 H 16.562 L 15.3,13.862 h -0.71 l -1.262,4.582 H 13.281 L 12.16,13.862 h -0.734 l 1.535,5.637 h 0.664 z m 5.433,3.933 c -0.488,0 -0.852,-0.25 -0.852,-0.68 0,-0.43 0.281,-0.645 0.922,-0.687 l 1.133,-0.074 v 0.387 a 1.108,1.108 0 0 1 -1.203,1.054 z m -0.125,0.59 a 1.455,1.455 0 0 0 1.3,-0.7 h 0.06 v 0.626 h 0.64 v -2.883 c 0,-0.875 -0.574,-1.4 -1.6,-1.4 -0.9,0 -1.562,0.445 -1.652,1.121 h 0.68 c 0.094,-0.332 0.445,-0.523 0.949,-0.523 0.629,0 0.953,0.285 0.953,0.8 v 0.385 l -1.215,0.074 c -0.98,0.059 -1.535,0.492 -1.535,1.246 a 1.281,1.281 0 0 0 1.42,1.254 z m 3.243,-0.074 h 0.672 V 16.89 a 1.031,1.031 0 0 1 1.105,-1.024 2.7,2.7 0 0 1 0.43,0.039 v -0.672 a 2.885,2.885 0 0 0 -0.336,-0.02 1.176,1.176 0 0 0 -1.168,0.7 h -0.063 v -0.625 h -0.64 z m 3.127,0 h 0.67 V 16.89 a 1.018,1.018 0 0 1 0.977,-1.07 0.8,0.8 0 0 1 0.879,0.82 v 2.859 H 29.8 v -2.707 a 0.947,0.947 0 0 1 0.977,-0.973 c 0.594,0 0.887,0.3 0.887,0.926 v 2.754 h 0.672 v -2.91 A 1.228,1.228 0 0 0 30.996,15.214 1.41,1.41 0 0 0 29.7,15.952 H 29.641 A 1.216,1.216 0 0 0 28.477,15.214 1.191,1.191 0 0 0 27.3,15.952 H 27.238 V 15.288 H 26.6 Z"
     fill="#e4dcd9"
     id="path14139" />
  <path
     id="path19552"
     style="opacity:1;fill:#0a090a;fill-opacity:1;stroke:none;stroke-width:1.19156;stroke-linecap:butt;stroke-linejoin:miter;stroke-miterlimit:4;stroke-dasharray:none;stroke-opacity:1;paint-order:stroke markers fill"
     d="M 43.986187,32.999843 1.61745,33.000158 C 0.71372991,33.000165 0,32.289417 0,31.385555 V 23.631834 C 0,22.727972 0.72754274,22.000322 1.6312628,22.000315 L 44,22 43.986182,32.999843 Z"
     sodipodi:nodetypes="cssssccc" />
  <path
     d="m 1.5,22.499 h 41 v 10 h -41 a 1,1 0 0 1 -1,-1 v -8 a 1,1 0 0 1 1,-1 z"
     fill="#ffffff"
     opacity="0"
     id="path14153" />
  <path
     id="path19554"
     style="opacity:1;fill:url(#linearGradient19558);fill-opacity:1;stroke:none;stroke-width:1.11;stroke-linecap:butt;stroke-linejoin:miter;stroke-miterlimit:4;stroke-dasharray:none;stroke-opacity:1;paint-order:stroke markers fill"
     d="m 1.846436,22.414189 h 41.714557 l -4e-6,10.152484 H 1.846432 c -0.790561,0 -1.427005,-0.636445 -1.427005,-1.427005 v -7.298475 c 0,-0.79056 0.636444,-1.427004 1.427005,-1.427004 z"
     sodipodi:nodetypes="sccsssss" />
  <path
     d="m 14.922,26.05 h 0.047 l 1.297,4.449 h 0.664 l 1.535,-5.637 H 17.73 l -1.121,4.582 H 16.562 L 15.3,24.862 h -0.71 l -1.262,4.582 H 13.281 L 12.16,24.862 h -0.734 l 1.535,5.637 h 0.664 z m 5.433,3.933 c -0.488,0 -0.852,-0.25 -0.852,-0.68 0,-0.43 0.281,-0.645 0.922,-0.687 l 1.133,-0.074 v 0.387 a 1.108,1.108 0 0 1 -1.203,1.054 z m -0.125,0.59 a 1.455,1.455 0 0 0 1.3,-0.7 h 0.06 v 0.626 h 0.64 v -2.883 c 0,-0.875 -0.574,-1.4 -1.6,-1.4 -0.9,0 -1.562,0.445 -1.652,1.121 h 0.68 c 0.094,-0.332 0.445,-0.523 0.949,-0.523 0.629,0 0.953,0.285 0.953,0.8 v 0.385 l -1.215,0.074 c -0.98,0.059 -1.535,0.492 -1.535,1.246 a 1.281,1.281 0 0 0 1.42,1.254 z m 3.243,-0.074 h 0.672 V 27.89 a 1.031,1.031 0 0 1 1.105,-1.024 2.7,2.7 0 0 1 0.43,0.039 v -0.672 a 2.885,2.885 0 0 0 -0.336,-0.02 1.176,1.176 0 0 0 -1.168,0.7 h -0.063 v -0.625 h -0.64 z m 3.127,0 h 0.67 V 27.89 a 1.018,1.018 0 0 1 0.977,-1.07 0.8,0.8 0 0 1 0.879,0.82 v 2.859 H 29.8 v -2.707 a 0.947,0.947 0 0 1 0.977,-0.973 c 0.594,0 0.887,0.3 0.887,0.926 v 2.754 h 0.672 v -2.91 A 1.228,1.228 0 0 0 30.996,26.214 1.41,1.41 0 0 0 29.7,26.952 H 29.641 A 1.216,1.216 0 0 0 28.477,26.214 1.191,1.191 0 0 0 27.3,26.952 H 27.238 V 26.288 H 26.6 Z"
     fill="#e4dcd9"
     id="path14155" />
  <path
     id="path19548"
     style="opacity:1;fill:#959197;fill-opacity:1;stroke:none;stroke-width:0.723173;stroke-linecap:butt;stroke-linejoin:miter;stroke-miterlimit:4;stroke-dasharray:none;stroke-opacity:1;paint-order:stroke markers fill"
     d="m 1.695312,11.423828 c -0.283472,1.77e-4 -0.808811,0.234342 -1.076171,0.697266 -0.271973,0.470905 -0.205079,0.776105 -0.205079,0.822265 0,0.05338 0.346778,-1.023437 1.265625,-1.023437 h 41.878907 l -0.0088,-0.496094 H 1.695301 Z"
     sodipodi:nodetypes="ccsccccc" />
  <path
     id="path19556"
     style="opacity:1;fill:#959197;fill-opacity:1;stroke:none;stroke-width:0.723173;stroke-linecap:butt;stroke-linejoin:miter;stroke-miterlimit:4;stroke-dasharray:none;stroke-opacity:1;paint-order:stroke markers fill"
     d="m 1.695312,22.423828 c -0.283472,1.77e-4 -0.808811,0.234342 -1.076171,0.697266 -0.271973,0.470905 -0.205079,0.776105 -0.205079,0.822265 0,0.05338 0.346778,-1.023437 1.265625,-1.023437 h 41.878907 l -0.0088,-0.496094 H 1.695301 Z"
     sodipodi:nodetypes="ccsccccc" />
  <path
     d="m 54.527136,19.064307 v -4.047285 h 0.05833 l 2.831525,4.047285 h 0.633344 v -5.219526 h -0.648159 v 4.062101 h -0.0537 l -2.832451,-4.062101 h -0.633343 v 5.219526 z m 6.329729,-3.417646 c 0.636318,-0.0083 1.103677,0.530472 1.047238,1.146314 h -2.148181 c -0.02228,-0.622406 0.459706,-1.13415 1.100943,-1.146314 z m 1.026868,2.407445 c -0.200745,0.367646 -0.58158,0.570029 -1.005572,0.527786 -0.681729,0.0076 -1.089858,-0.489029 -1.125017,-1.258353 v -0.02778 h 2.799118 v -0.238893 c 0,-1.210088 -0.610625,-1.971446 -1.692619,-1.960215 -1.104891,0.01891 -1.90504,0.960225 -1.753731,2.023179 0.003,1.232195 0.643736,2.027231 1.759286,2.014847 0.755218,0.06506 1.412101,-0.374746 1.640766,-1.079647 z m 4.803778,-2.888934 h -0.622232 v 2.307444 c 0.07959,0.617654 -0.419747,1.141367 -1.063906,1.092609 -0.64477,0.0087 -0.88242,-0.327001 -0.88242,-1.026868 v -2.373185 h -0.622232 v 2.52504 c 0,0.918264 0.423879,1.455726 1.331501,1.443541 0.523573,0.04034 0.97973,-0.221121 1.208352,-0.680567 h 0.05741 v 0.611121 h 0.593528 z m 1.432429,-1.008349 v 1.009275 h -0.629639 v 0.521305 h 0.629639 v 2.365777 c 0,0.739707 0.295867,1.051822 1.125017,1.041683 0.126772,-0.0028 0.241265,-0.01184 0.365747,-0.03611 v -0.525934 c -0.09901,0.01142 -0.189245,0.01397 -0.288894,0.01481 -0.417849,0.0051 -0.565873,-0.196234 -0.578711,-0.654639 v -2.206516 h 0.868532 v -0.520379 h -0.870384 v -1.009275 z m 2.430593,4.907484 h 0.622232 v -2.415778 c -0.0029,-0.550611 0.45816,-0.982526 1.023164,-0.948163 0.136699,1.47e-4 0.263313,0.01473 0.398155,0.03611 v -0.622232 c -0.10577,-0.01126 -0.204696,-0.01935 -0.311116,-0.01852 -0.473047,-0.03148 -0.895948,0.224322 -1.081498,0.648158 h -0.05833 v -0.578713 h -0.592602 z m 4.02136,-0.477785 c -0.459,0.0028 -0.786975,-0.232226 -0.788901,-0.629639 -0.0019,-0.397414 0.25134,-0.593829 0.853717,-0.636122 l 1.04909,-0.06852 v 0.358339 c -0.0227,0.581514 -0.523349,1.022984 -1.113906,0.975942 z m -0.115742,0.546305 c 0.495309,-0.04953 0.94832,-0.228786 1.203722,-0.648158 h 0.05833 v 0.579638 h 0.593528 v -2.669486 c 0,-0.806586 -0.518086,-1.301472 -1.481504,-1.296316 -0.845106,0.0045 -1.452375,0.414372 -1.529654,1.037979 h 0.62964 c 0.08474,-0.306527 0.405343,-0.48169 0.878717,-0.484267 0.590777,-0.0032 0.962684,0.277752 0.88242,0.740752 v 0.356487 l -1.129647,0.06852 c -0.921072,0.05988 -1.424598,0.456824 -1.421319,1.153722 0.01405,0.697889 0.627394,1.229966 1.315763,1.161129 z m 3.038936,-0.06852 h 0.622232 V 13.617 h -0.622232 z"
     fill="#e4dcd9"
     id="path19608"
     style="stroke-width:0.92594;fill:#fce237"
     sodipodi:nodetypes="ccccccccccccccccccccccscccccccccsccscccccccccccsccccscccccccccccccccccccsccccsccccssccsscccssccccc" />
  <path
     d="m 54.527136,30.064307 v -4.047285 h 0.05833 l 2.831525,4.047285 h 0.633344 v -5.219526 h -0.648159 v 4.062101 h -0.0537 l -2.832451,-4.062101 h -0.633343 v 5.219526 z m 6.329729,-3.417646 c 0.636318,-0.0083 1.103677,0.530472 1.047238,1.146314 h -2.148181 c -0.02228,-0.622406 0.459706,-1.13415 1.100943,-1.146314 z m 1.026868,2.407445 c -0.200745,0.367646 -0.58158,0.570029 -1.005572,0.527786 -0.681729,0.0076 -1.089858,-0.489029 -1.125017,-1.258353 v -0.02778 h 2.799118 v -0.238893 c 0,-1.210088 -0.610625,-1.971446 -1.692619,-1.960215 -1.104891,0.01891 -1.90504,0.960225 -1.753731,2.023179 0.003,1.232195 0.643736,2.027231 1.759286,2.014847 0.755218,0.06506 1.412101,-0.374746 1.640766,-1.079647 z m 4.803778,-2.888934 h -0.622232 v 2.307444 c 0.07959,0.617654 -0.419747,1.141367 -1.063906,1.092609 -0.64477,0.0087 -0.88242,-0.327001 -0.88242,-1.026868 v -2.373185 h -0.622232 v 2.52504 c 0,0.918264 0.423879,1.455726 1.331501,1.443541 0.523573,0.04034 0.97973,-0.221121 1.208352,-0.680567 h 0.05741 v 0.611121 h 0.593528 z m 1.432429,-1.008349 v 1.009275 h -0.629639 v 0.521305 h 0.629639 v 2.365777 c 0,0.739707 0.295867,1.051822 1.125017,1.041683 0.126772,-0.0028 0.241265,-0.01184 0.365747,-0.03611 v -0.525934 c -0.09901,0.01142 -0.189245,0.01397 -0.288894,0.01481 -0.417849,0.0051 -0.565873,-0.196234 -0.578711,-0.654639 v -2.206516 h 0.868532 V 26.166095 H 68.741247 V 25.15682 Z m 2.430593,4.907484 h 0.622232 v -2.415778 c -0.0029,-0.550611 0.45816,-0.982526 1.023164,-0.948163 0.136699,1.47e-4 0.263313,0.01473 0.398155,0.03611 v -0.622232 c -0.10577,-0.01126 -0.204696,-0.01935 -0.311116,-0.01852 -0.473047,-0.03148 -0.895948,0.224322 -1.081498,0.648158 h -0.05833 v -0.578713 h -0.592602 z m 4.02136,-0.477785 c -0.459,0.0028 -0.786975,-0.232226 -0.788901,-0.629639 -0.0019,-0.397414 0.25134,-0.593829 0.853717,-0.636122 l 1.04909,-0.06852 v 0.358339 c -0.0227,0.581514 -0.523349,1.022984 -1.113906,0.975942 z m -0.115742,0.546305 c 0.495309,-0.04953 0.94832,-0.228786 1.203722,-0.648158 h 0.05833 v 0.579638 h 0.593528 v -2.669486 c 0,-0.806586 -0.518086,-1.301472 -1.481504,-1.296316 -0.845106,0.0045 -1.452375,0.414372 -1.529654,1.037979 h 0.62964 c 0.08474,-0.306527 0.405343,-0.48169 0.878717,-0.484267 0.590777,-0.0032 0.962684,0.277752 0.88242,0.740752 v 0.356487 l -1.129647,0.06852 c -0.921072,0.05988 -1.424598,0.456824 -1.421319,1.153722 0.01405,0.697889 0.627394,1.229966 1.315763,1.161129 z m 3.038936,-0.06852 h 0.622232 V 24.617 h -0.622232 z"
     fill="#e4dcd9"
     id="path19610"
     style="stroke-width:0.92594"
     sodipodi:nodetypes="ccccccccccccccccccccccscccccccccsccscccccccccccsccccscccccccccccccccccccsccccsccccssccsscccssccccc" />
  <path
     d="m 102.05865,19.161065 c 1.12342,0 1.7881,-0.552345 1.7881,-1.481033 0.0189,-0.67582 -0.50277,-1.244289 -1.17771,-1.283499 v -0.05804 c 0.53264,-0.118889 0.91128,-0.591709 0.9109,-1.137456 0,-0.807921 -0.5926,-1.316265 -1.56154,-1.316265 H 100 v 5.276296 z m -1.40426,-4.695866 h 1.21703 c 0.65532,0 1.03447,0.310811 1.03447,0.848177 0,0.561706 -0.4063,0.842559 -1.20298,0.842559 h -1.04478 z m 0,4.1145 v -1.852695 h 1.2395 c 0.84256,0 1.27226,0.310811 1.27226,0.921198 0,0.610388 -0.4166,0.936178 -1.21048,0.936178 z m 4.18658,0.581366 h 0.62912 v -2.442487 c 0.002,-0.559134 0.47775,-0.999324 1.03541,-0.958646 0.13494,0.0014 0.26955,0.01361 0.40255,0.03651 v -0.629111 c -0.1044,-0.01236 -0.20943,-0.01861 -0.31455,-0.01872 -0.46675,-0.03626 -0.90538,0.226616 -1.09346,0.655324 h -0.058 v -0.58511 h -0.60009 z m 2.86752,0 h 0.62911 v -3.942243 h -0.62911 z m 0.31455,-4.742675 c 0.24228,-5.14e-4 0.43855,-0.19679 0.43907,-0.439067 -0.003,-0.240814 -0.19824,-0.434826 -0.43907,-0.435323 -0.24228,5.13e-4 -0.43856,0.19679 -0.43907,0.439067 0.003,0.240814 0.19824,0.434826 0.43907,0.435323 z m 3.10811,4.128543 c -0.73115,0 -1.1412,-0.55609 -1.1412,-1.415501 0,-0.859411 0.41005,-1.4155 1.1412,-1.4155 0.73116,0 1.17022,0.556089 1.17022,1.4155 0,0.859411 -0.43906,1.415501 -1.17022,1.415501 z m 0.029,2.127931 c 1.07473,0 1.75533,-0.561706 1.75533,-1.444522 v -4.01152 h -0.59915 v 0.625366 h -0.059 c -0.26264,-0.446092 -0.74836,-0.712664 -1.26571,-0.694644 -1.01294,0 -1.65329,0.800432 -1.65329,1.981888 0,1.181456 0.63379,1.97159 1.65423,1.97159 0.50616,0.01946 0.98164,-0.24241 1.23575,-0.680601 h 0.059 v 0.775155 c 0,0.581366 -0.42034,0.928688 -1.12341,0.928688 -0.57014,0 -0.9212,-0.207831 -0.99048,-0.529876 h -0.66562 c 0.0945,0.650643 0.70213,1.078476 1.65235,1.078476 z m 2.97705,-1.513799 h 0.62911 v -2.332954 c -0.0608,-0.630141 0.46237,-1.162277 1.09345,-1.112179 0.59635,0 0.9109,0.347322 0.9109,1.04571 v 2.399423 h 0.62631 v -2.552956 c 0.0995,-0.802907 -0.55045,-1.500829 -1.3584,-1.458565 -0.5101,-0.04621 -0.99526,0.229216 -1.21703,0.690899 h -0.0552 v -2.18691 h -0.62911 z m 4.67339,-4.961741 v 1.020434 h -0.6366 v 0.527068 h 0.6366 v 2.391933 c 0,0.748942 0.32579,1.0532 1.13746,1.0532 0.1241,-0.0013 0.24784,-0.01348 0.36979,-0.03651 v -0.531749 c -0.097,0.01035 -0.19453,0.01536 -0.29209,0.01498 -0.40911,0 -0.58511,-0.197533 -0.58511,-0.661877 V 15.74589 h 0.87814 v -0.526132 h -0.8772 v -1.020434 z"
     fill="#e4dcd9"
     id="path19612"
     style="stroke-width:0.936177"
     sodipodi:nodetypes="sccccsccscsssccccssccccccccccccccccccccccccssssssscccccscccssccsccccsccccccccccccccsccccscccccc" />
  <path
     d="m 102.05865,30.161065 c 1.12342,0 1.7881,-0.552345 1.7881,-1.481033 0.0189,-0.67582 -0.50277,-1.244289 -1.17771,-1.283499 v -0.05804 c 0.53264,-0.118889 0.91128,-0.591709 0.9109,-1.137456 0,-0.807921 -0.5926,-1.316265 -1.56154,-1.316265 H 100 v 5.276296 z m -1.40426,-4.695866 h 1.21703 c 0.65532,0 1.03447,0.310811 1.03447,0.848177 0,0.561706 -0.4063,0.842559 -1.20298,0.842559 h -1.04478 z m 0,4.1145 v -1.852695 h 1.2395 c 0.84256,0 1.27226,0.310811 1.27226,0.921198 0,0.610388 -0.4166,0.936178 -1.21048,0.936178 z m 4.18658,0.581366 h 0.62912 v -2.442487 c 0.002,-0.559134 0.47775,-0.999324 1.03541,-0.958646 0.13494,0.0014 0.26955,0.01361 0.40255,0.03651 v -0.629111 c -0.1044,-0.01236 -0.20943,-0.01861 -0.31455,-0.01872 -0.46675,-0.03626 -0.90538,0.226616 -1.09346,0.655324 h -0.058 v -0.58511 h -0.60009 z m 2.86752,0 h 0.62911 v -3.942243 h -0.62911 z m 0.31455,-4.742675 c 0.24228,-5.14e-4 0.43855,-0.19679 0.43907,-0.439067 -0.003,-0.240814 -0.19824,-0.434826 -0.43907,-0.435323 -0.24228,5.13e-4 -0.43856,0.19679 -0.43907,0.439067 0.003,0.240814 0.19824,0.434826 0.43907,0.435323 z m 3.10811,4.128543 c -0.73115,0 -1.1412,-0.55609 -1.1412,-1.415501 0,-0.859411 0.41005,-1.4155 1.1412,-1.4155 0.73116,0 1.17022,0.556089 1.17022,1.4155 0,0.859411 -0.43906,1.415501 -1.17022,1.415501 z m 0.029,2.127931 c 1.07473,0 1.75533,-0.561706 1.75533,-1.444522 v -4.01152 h -0.59915 v 0.625366 h -0.059 c -0.26264,-0.446092 -0.74836,-0.712664 -1.26571,-0.694644 -1.01294,0 -1.65329,0.800432 -1.65329,1.981888 0,1.181456 0.63379,1.97159 1.65423,1.97159 0.50616,0.01946 0.98164,-0.24241 1.23575,-0.680601 h 0.059 v 0.775155 c 0,0.581366 -0.42034,0.928688 -1.12341,0.928688 -0.57014,0 -0.9212,-0.207831 -0.99048,-0.529876 h -0.66562 c 0.0945,0.650643 0.70213,1.078476 1.65235,1.078476 z m 2.97705,-1.513799 h 0.62911 v -2.332954 c -0.0608,-0.630141 0.46237,-1.162277 1.09345,-1.112179 0.59635,0 0.9109,0.347322 0.9109,1.04571 v 2.399423 h 0.62631 v -2.552956 c 0.0995,-0.802907 -0.55045,-1.500829 -1.3584,-1.458565 -0.5101,-0.04621 -0.99526,0.229216 -1.21703,0.690899 h -0.0552 v -2.18691 h -0.62911 z m 4.67339,-4.961741 v 1.020434 h -0.6366 v 0.527068 h 0.6366 v 2.391933 c 0,0.748942 0.32579,1.0532 1.13746,1.0532 0.1241,-0.0013 0.24784,-0.01348 0.36979,-0.03651 V 29.6237 c -0.097,0.01035 -0.19453,0.01536 -0.29209,0.01498 -0.40911,0 -0.58511,-0.197533 -0.58511,-0.661877 V 26.74589 h 0.87814 v -0.526132 h -0.8772 v -1.020434 z"
     fill="#e4dcd9"
     id="path19614"
     style="stroke-width:0.936177;fill:#fce237"
     sodipodi:nodetypes="sccccsccscsssccccssccccccccccccccccccccccccssssssscccccscccssccsccccsccccccccccccccsccccscccccc" />
</svg>
