<svg xmlns="http://www.w3.org/2000/svg" xmlns:xlink="http://www.w3.org/1999/xlink" width="131" height="33" viewBox="0 0 131 33"><defs><linearGradient id="a" x1="0.5" x2="0.5" y2="1" gradientUnits="objectBoundingBox"><stop offset="0" stop-color="#787477"/><stop offset="1" stop-color="#716b6c"/></linearGradient><linearGradient id="b" x1="0.5" x2="0.5" y2="1" gradientUnits="objectBoundingBox"><stop offset="0" stop-color="#413f40"/><stop offset="1" stop-color="#464141"/></linearGradient></defs><g transform="translate(-538 -38)"><g transform="translate(582 38)"><g transform="translate(0.5 0.5)" stroke="#4e4752" stroke-width="0.5" fill="url(#a)"><rect width="42" height="9.999" stroke="none"/><rect x="-0.25" y="-0.25" width="42.5" height="10.499" fill="none"/></g><path d="M43,.5H0V0H43V.5Z" transform="translate(0 10.5)" opacity="0.4"/><path d="M43,.5H0V0H43V.5Z" transform="translate(0 0)" fill="#fff" opacity="0.4"/><rect width="42" height="9.999" transform="translate(0.5 0.5)" fill="#fff" opacity="0"/><path d="M-12.367,0V-4.371h.063L-9.246,0h.684V-5.637h-.7V-1.25H-9.32l-3.059-4.387h-.684V0Zm6.836-3.691A1.133,1.133,0,0,1-4.4-2.453h-2.32A1.2,1.2,0,0,1-5.531-3.691Zm1.109,2.6a1.091,1.091,0,0,1-1.086.57c-.715,0-1.18-.527-1.215-1.359V-1.91H-3.7v-.258c0-1.309-.691-2.117-1.828-2.117A1.925,1.925,0,0,0-7.422-2.1c0,1.332.73,2.176,1.9,2.176A1.683,1.683,0,0,0-3.75-1.09ZM.766-4.211H.094v2.492A1.059,1.059,0,0,1-1.055-.539c-.672,0-.953-.352-.953-1.109V-4.211H-2.68v2.727c0,1,.492,1.559,1.438,1.559A1.314,1.314,0,0,0,.063-.66H.125V0H.766ZM2.313-5.3v1.09h-.68v.563h.68v2.555c0,.8.348,1.125,1.215,1.125a2.251,2.251,0,0,0,.395-.039V-.574a2.837,2.837,0,0,1-.312.016c-.437,0-.625-.211-.625-.707V-3.648h.938v-.562H2.984V-5.3ZM4.938,0h.672V-2.609A1.031,1.031,0,0,1,6.715-3.633a2.7,2.7,0,0,1,.43.039v-.672a2.885,2.885,0,0,0-.336-.02,1.176,1.176,0,0,0-1.168.7H5.578v-.625H4.938ZM9.281-.516c-.488,0-.852-.25-.852-.68s.281-.645.922-.687l1.133-.074v.387A1.108,1.108,0,0,1,9.281-.516Zm-.125.59a1.455,1.455,0,0,0,1.3-.7h.063V0h.641V-2.883c0-.875-.574-1.4-1.6-1.4-.9,0-1.562.445-1.652,1.121h.68c.094-.332.445-.523.949-.523.629,0,.953.285.953.8V-2.5L9.27-2.426c-.98.059-1.535.492-1.535,1.246A1.281,1.281,0,0,0,9.156.074ZM12.438,0h.672V-5.883h-.672Z" transform="translate(22 8.5)" fill="#e4dcd9"/></g><g transform="translate(582 49)"><g transform="translate(0.5 0.5)" stroke="#4e4752" stroke-width="0.5" fill="url(#b)"><rect width="42" height="9.999" stroke="none"/><rect x="-0.25" y="-0.25" width="42.5" height="10.499" fill="none"/></g><path d="M43,.5H0V0H43V.5Z" transform="translate(0.001 10.5)" opacity="0.4"/><path d="M43,.5H0V0H43V.5Z" transform="translate(0 0)" fill="#fff" opacity="0.1"/><rect width="42" height="9.999" transform="translate(0.5 0.5)" fill="#fff" opacity="0"/><path d="M-12.367,0V-4.371h.063L-9.246,0h.684V-5.637h-.7V-1.25H-9.32l-3.059-4.387h-.684V0Zm6.836-3.691A1.133,1.133,0,0,1-4.4-2.453h-2.32A1.2,1.2,0,0,1-5.531-3.691Zm1.109,2.6a1.091,1.091,0,0,1-1.086.57c-.715,0-1.18-.527-1.215-1.359V-1.91H-3.7v-.258c0-1.309-.691-2.117-1.828-2.117A1.925,1.925,0,0,0-7.422-2.1c0,1.332.73,2.176,1.9,2.176A1.683,1.683,0,0,0-3.75-1.09ZM.766-4.211H.094v2.492A1.059,1.059,0,0,1-1.055-.539c-.672,0-.953-.352-.953-1.109V-4.211H-2.68v2.727c0,1,.492,1.559,1.438,1.559A1.314,1.314,0,0,0,.063-.66H.125V0H.766ZM2.313-5.3v1.09h-.68v.563h.68v2.555c0,.8.348,1.125,1.215,1.125a2.251,2.251,0,0,0,.395-.039V-.574a2.837,2.837,0,0,1-.312.016c-.437,0-.625-.211-.625-.707V-3.648h.938v-.562H2.984V-5.3ZM4.938,0h.672V-2.609A1.031,1.031,0,0,1,6.715-3.633a2.7,2.7,0,0,1,.43.039v-.672a2.885,2.885,0,0,0-.336-.02,1.176,1.176,0,0,0-1.168.7H5.578v-.625H4.938ZM9.281-.516c-.488,0-.852-.25-.852-.68s.281-.645.922-.687l1.133-.074v.387A1.108,1.108,0,0,1,9.281-.516Zm-.125.59a1.455,1.455,0,0,0,1.3-.7h.063V0h.641V-2.883c0-.875-.574-1.4-1.6-1.4-.9,0-1.562.445-1.652,1.121h.68c.094-.332.445-.523.949-.523.629,0,.953.285.953.8V-2.5L9.27-2.426c-.98.059-1.535.492-1.535,1.246A1.281,1.281,0,0,0,9.156.074ZM12.438,0h.672V-5.883h-.672Z" transform="translate(22 8.5)" fill="#fce237"/></g><g transform="translate(582 60)"><g transform="translate(0.5 0.5)" stroke="#4e4752" stroke-width="0.5" fill="url(#a)"><rect width="42" height="9.999" stroke="none"/><rect x="-0.25" y="-0.25" width="42.5" height="10.499" fill="none"/></g><path d="M43,.5H0V0H43V.5Z" transform="translate(0 10.5)" opacity="0.4"/><path d="M43,.5H0V0H43V.5Z" transform="translate(0 0)" fill="#fff" opacity="0.4"/><rect width="42" height="9.999" transform="translate(0.5 0.5)" fill="#fff" opacity="0"/><path d="M-12.367,0V-4.371h.063L-9.246,0h.684V-5.637h-.7V-1.25H-9.32l-3.059-4.387h-.684V0Zm6.836-3.691A1.133,1.133,0,0,1-4.4-2.453h-2.32A1.2,1.2,0,0,1-5.531-3.691Zm1.109,2.6a1.091,1.091,0,0,1-1.086.57c-.715,0-1.18-.527-1.215-1.359V-1.91H-3.7v-.258c0-1.309-.691-2.117-1.828-2.117A1.925,1.925,0,0,0-7.422-2.1c0,1.332.73,2.176,1.9,2.176A1.683,1.683,0,0,0-3.75-1.09ZM.766-4.211H.094v2.492A1.059,1.059,0,0,1-1.055-.539c-.672,0-.953-.352-.953-1.109V-4.211H-2.68v2.727c0,1,.492,1.559,1.438,1.559A1.314,1.314,0,0,0,.063-.66H.125V0H.766ZM2.313-5.3v1.09h-.68v.563h.68v2.555c0,.8.348,1.125,1.215,1.125a2.251,2.251,0,0,0,.395-.039V-.574a2.837,2.837,0,0,1-.312.016c-.437,0-.625-.211-.625-.707V-3.648h.938v-.562H2.984V-5.3ZM4.938,0h.672V-2.609A1.031,1.031,0,0,1,6.715-3.633a2.7,2.7,0,0,1,.43.039v-.672a2.885,2.885,0,0,0-.336-.02,1.176,1.176,0,0,0-1.168.7H5.578v-.625H4.938ZM9.281-.516c-.488,0-.852-.25-.852-.68s.281-.645.922-.687l1.133-.074v.387A1.108,1.108,0,0,1,9.281-.516Zm-.125.59a1.455,1.455,0,0,0,1.3-.7h.063V0h.641V-2.883c0-.875-.574-1.4-1.6-1.4-.9,0-1.562.445-1.652,1.121h.68c.094-.332.445-.523.949-.523.629,0,.953.285.953.8V-2.5L9.27-2.426c-.98.059-1.535.492-1.535,1.246A1.281,1.281,0,0,0,9.156.074ZM12.438,0h.672V-5.883h-.672Z" transform="translate(22 8.5)" fill="#e4dcd9"/></g><g transform="translate(626 38)"><g transform="translate(0.5 0.5)" stroke="#4e4752" stroke-width="0.5" fill="url(#a)"><path d="M0,0H41a1,1,0,0,1,1,1V9a1,1,0,0,1-1,1H0a0,0,0,0,1,0,0V0A0,0,0,0,1,0,0Z" stroke="none"/><path d="M0-.25H41A1.25,1.25,0,0,1,42.25,1V9A1.25,1.25,0,0,1,41,10.249H0A.25.25,0,0,1-.25,10V0A.25.25,0,0,1,0-.25Z" fill="none"/></g><path d="M41.5.5H0V0H41.5A1.5,1.5,0,0,0,43-1.487V-1A1.5,1.5,0,0,1,41.5.5Z" transform="translate(0 10.501)" opacity="0.4"/><path d="M43,1.993h0A1.5,1.5,0,0,0,41.5.5H0V0H41.5A1.5,1.5,0,0,1,43,1.5Z" transform="translate(0 0)" fill="#fff" opacity="0.4"/><path d="M0,0H41a1,1,0,0,1,1,1V9a1,1,0,0,1-1,1H0a0,0,0,0,1,0,0V0A0,0,0,0,1,0,0Z" transform="translate(0.5 0.5)" fill="#fff" opacity="0"/><path d="M-8.484,0c1.2,0,1.91-.59,1.91-1.582A1.336,1.336,0,0,0-7.832-2.953v-.062A1.244,1.244,0,0,0-6.859-4.23c0-.863-.633-1.406-1.668-1.406h-2.156V0Zm-1.5-5.016h1.3c.7,0,1.105.332,1.105.906,0,.6-.434.9-1.285.9H-9.98Zm0,4.395V-2.6h1.324c.9,0,1.359.332,1.359.984s-.445,1-1.293,1ZM-5.512,0h.672V-2.609A1.031,1.031,0,0,1-3.734-3.633a2.7,2.7,0,0,1,.43.039v-.672a2.885,2.885,0,0,0-.336-.02,1.176,1.176,0,0,0-1.168.7h-.062v-.625h-.641Zm3.063,0h.672V-4.211h-.672Zm.336-5.066a.47.47,0,0,0,.469-.469A.47.47,0,0,0-2.113-6a.47.47,0,0,0-.469.469A.47.47,0,0,0-2.113-5.066Zm3.32,4.41C.426-.656-.012-1.25-.012-2.168S.426-3.68,1.207-3.68s1.25.594,1.25,1.512S1.988-.656,1.207-.656Zm.031,2.273c1.148,0,1.875-.6,1.875-1.543V-4.211H2.473v.668H2.41a1.508,1.508,0,0,0-1.352-.742c-1.082,0-1.766.855-1.766,2.117S-.031-.062,1.059-.062a1.461,1.461,0,0,0,1.32-.727h.063V.039c0,.621-.449.992-1.2.992C.633,1.031.258.809.184.465H-.527C-.426,1.16.223,1.617,1.238,1.617ZM4.418,0H5.09V-2.492A1.087,1.087,0,0,1,6.258-3.68c.637,0,.973.371.973,1.117V0H7.9V-2.727A1.389,1.389,0,0,0,6.449-4.285a1.311,1.311,0,0,0-1.3.738H5.09V-5.883H4.418ZM9.41-5.3v1.09H8.73v.563h.68v2.555c0,.8.348,1.125,1.215,1.125a2.251,2.251,0,0,0,.395-.039V-.574a2.837,2.837,0,0,1-.312.016c-.437,0-.625-.211-.625-.707V-3.648h.938v-.562h-.937V-5.3Z" transform="translate(22 8.5)" fill="#e4dcd9"/></g><g transform="translate(626 49)"><g transform="translate(0.5 0.5)" stroke="#4e4752" stroke-width="0.5" fill="url(#a)"><path d="M0,0H41a1,1,0,0,1,1,1V9a1,1,0,0,1-1,1H0a0,0,0,0,1,0,0V0A0,0,0,0,1,0,0Z" stroke="none"/><path d="M0-.25H41A1.25,1.25,0,0,1,42.25,1V9A1.25,1.25,0,0,1,41,10.249H0A.25.25,0,0,1-.25,10V0A.25.25,0,0,1,0-.25Z" fill="none"/></g><path d="M41.5.5H0V0H41.5A1.5,1.5,0,0,0,43-1.487V-1A1.5,1.5,0,0,1,41.5.5Z" transform="translate(0 10.501)" opacity="0.4"/><path d="M43,1.993h0A1.5,1.5,0,0,0,41.5.5H0V0H41.5A1.5,1.5,0,0,1,43,1.5Z" transform="translate(0 0)" fill="#fff" opacity="0.4"/><path d="M0,0H41a1,1,0,0,1,1,1V9a1,1,0,0,1-1,1H0a0,0,0,0,1,0,0V0A0,0,0,0,1,0,0Z" transform="translate(0.5 0.5)" fill="#fff" opacity="0"/><path d="M-8.484,0c1.2,0,1.91-.59,1.91-1.582A1.336,1.336,0,0,0-7.832-2.953v-.062A1.244,1.244,0,0,0-6.859-4.23c0-.863-.633-1.406-1.668-1.406h-2.156V0Zm-1.5-5.016h1.3c.7,0,1.105.332,1.105.906,0,.6-.434.9-1.285.9H-9.98Zm0,4.395V-2.6h1.324c.9,0,1.359.332,1.359.984s-.445,1-1.293,1ZM-5.512,0h.672V-2.609A1.031,1.031,0,0,1-3.734-3.633a2.7,2.7,0,0,1,.43.039v-.672a2.885,2.885,0,0,0-.336-.02,1.176,1.176,0,0,0-1.168.7h-.062v-.625h-.641Zm3.063,0h.672V-4.211h-.672Zm.336-5.066a.47.47,0,0,0,.469-.469A.47.47,0,0,0-2.113-6a.47.47,0,0,0-.469.469A.47.47,0,0,0-2.113-5.066Zm3.32,4.41C.426-.656-.012-1.25-.012-2.168S.426-3.68,1.207-3.68s1.25.594,1.25,1.512S1.988-.656,1.207-.656Zm.031,2.273c1.148,0,1.875-.6,1.875-1.543V-4.211H2.473v.668H2.41a1.508,1.508,0,0,0-1.352-.742c-1.082,0-1.766.855-1.766,2.117S-.031-.062,1.059-.062a1.461,1.461,0,0,0,1.32-.727h.063V.039c0,.621-.449.992-1.2.992C.633,1.031.258.809.184.465H-.527C-.426,1.16.223,1.617,1.238,1.617ZM4.418,0H5.09V-2.492A1.087,1.087,0,0,1,6.258-3.68c.637,0,.973.371.973,1.117V0H7.9V-2.727A1.389,1.389,0,0,0,6.449-4.285a1.311,1.311,0,0,0-1.3.738H5.09V-5.883H4.418ZM9.41-5.3v1.09H8.73v.563h.68v2.555c0,.8.348,1.125,1.215,1.125a2.251,2.251,0,0,0,.395-.039V-.574a2.837,2.837,0,0,1-.312.016c-.437,0-.625-.211-.625-.707V-3.648h.938v-.562h-.937V-5.3Z" transform="translate(22 8.5)" fill="#e4dcd9"/></g><g transform="translate(626 60)"><g transform="translate(0.5 0.5)" stroke="#4e4752" stroke-width="0.5" fill="url(#b)"><path d="M0,0H41a1,1,0,0,1,1,1V9a1,1,0,0,1-1,1H0a0,0,0,0,1,0,0V0A0,0,0,0,1,0,0Z" stroke="none"/><path d="M0-.25H41A1.25,1.25,0,0,1,42.25,1V9A1.25,1.25,0,0,1,41,10.249H0A.25.25,0,0,1-.25,10V0A.25.25,0,0,1,0-.25Z" fill="none"/></g><path d="M41.5.5H0V0H41.5A1.5,1.5,0,0,0,43-1.487V-1A1.5,1.5,0,0,1,41.5.5Z" transform="translate(0.001 10.5)" opacity="0.4"/><path d="M43,1.993h0A1.5,1.5,0,0,0,41.5.5H0V0H41.5A1.5,1.5,0,0,1,43,1.5Z" transform="translate(0 0)" fill="#fff" opacity="0.1"/><path d="M0,0H41a1,1,0,0,1,1,1V9a1,1,0,0,1-1,1H0a0,0,0,0,1,0,0V0A0,0,0,0,1,0,0Z" transform="translate(0.5 0.5)" fill="#fff" opacity="0"/><path d="M-8.484,0c1.2,0,1.91-.59,1.91-1.582A1.336,1.336,0,0,0-7.832-2.953v-.062A1.244,1.244,0,0,0-6.859-4.23c0-.863-.633-1.406-1.668-1.406h-2.156V0Zm-1.5-5.016h1.3c.7,0,1.105.332,1.105.906,0,.6-.434.9-1.285.9H-9.98Zm0,4.395V-2.6h1.324c.9,0,1.359.332,1.359.984s-.445,1-1.293,1ZM-5.512,0h.672V-2.609A1.031,1.031,0,0,1-3.734-3.633a2.7,2.7,0,0,1,.43.039v-.672a2.885,2.885,0,0,0-.336-.02,1.176,1.176,0,0,0-1.168.7h-.062v-.625h-.641Zm3.063,0h.672V-4.211h-.672Zm.336-5.066a.47.47,0,0,0,.469-.469A.47.47,0,0,0-2.113-6a.47.47,0,0,0-.469.469A.47.47,0,0,0-2.113-5.066Zm3.32,4.41C.426-.656-.012-1.25-.012-2.168S.426-3.68,1.207-3.68s1.25.594,1.25,1.512S1.988-.656,1.207-.656Zm.031,2.273c1.148,0,1.875-.6,1.875-1.543V-4.211H2.473v.668H2.41a1.508,1.508,0,0,0-1.352-.742c-1.082,0-1.766.855-1.766,2.117S-.031-.062,1.059-.062a1.461,1.461,0,0,0,1.32-.727h.063V.039c0,.621-.449.992-1.2.992C.633,1.031.258.809.184.465H-.527C-.426,1.16.223,1.617,1.238,1.617ZM4.418,0H5.09V-2.492A1.087,1.087,0,0,1,6.258-3.68c.637,0,.973.371.973,1.117V0H7.9V-2.727A1.389,1.389,0,0,0,6.449-4.285a1.311,1.311,0,0,0-1.3.738H5.09V-5.883H4.418ZM9.41-5.3v1.09H8.73v.563h.68v2.555c0,.8.348,1.125,1.215,1.125a2.251,2.251,0,0,0,.395-.039V-.574a2.837,2.837,0,0,1-.312.016c-.437,0-.625-.211-.625-.707V-3.648h.938v-.562h-.937V-5.3Z" transform="translate(22 8.5)" fill="#fce237"/></g><g transform="translate(538 38)"><g transform="translate(0.5 0.499)" stroke="#4e4752" stroke-width="0.5" fill="url(#b)"><path d="M1,0H42a0,0,0,0,1,0,0V10a0,0,0,0,1,0,0H1A1,1,0,0,1,0,9V1A1,1,0,0,1,1,0Z" stroke="none"/><path d="M1-.25H42a.25.25,0,0,1,.25.25V10a.25.25,0,0,1-.25.25H1A1.25,1.25,0,0,1-.25,9V1A1.25,1.25,0,0,1,1-.25Z" fill="none"/></g><path d="M43,1.992h0A1.5,1.5,0,0,0,41.5.5H0V0H41.5A1.5,1.5,0,0,1,43,1.5Z" transform="translate(43 10.999) rotate(180)" opacity="0.4"/><path d="M41.5,1.993H0v-.5H41.5A1.5,1.5,0,0,0,43,0V.493A1.5,1.5,0,0,1,41.5,1.993Z" transform="translate(43 1.993) rotate(180)" fill="#fff" opacity="0.1"/><path d="M1,0H42a0,0,0,0,1,0,0V10a0,0,0,0,1,0,0H1A1,1,0,0,1,0,9V1A1,1,0,0,1,1,0Z" transform="translate(0.5 0.499)" fill="#fff" opacity="0"/><path d="M-7.078-4.449h.047L-5.734,0h.664l1.535-5.637H-4.27L-5.391-1.055h-.047L-6.7-5.637H-7.41L-8.672-1.055h-.047L-9.84-5.637h-.734L-9.039,0h.664ZM-1.645-.516c-.488,0-.852-.25-.852-.68s.281-.645.922-.687l1.133-.074v.387A1.108,1.108,0,0,1-1.645-.516Zm-.125.59a1.455,1.455,0,0,0,1.3-.7H-.41V0H.23V-2.883c0-.875-.574-1.4-1.6-1.4-.9,0-1.562.445-1.652,1.121h.68c.094-.332.445-.523.949-.523.629,0,.953.285.953.8V-2.5l-1.215.074c-.98.059-1.535.492-1.535,1.246A1.281,1.281,0,0,0-1.77.074ZM1.473,0h.672V-2.609A1.031,1.031,0,0,1,3.25-3.633a2.7,2.7,0,0,1,.43.039v-.672a2.885,2.885,0,0,0-.336-.02,1.176,1.176,0,0,0-1.168.7H2.113v-.625H1.473ZM4.6,0H5.27V-2.609a1.018,1.018,0,0,1,.977-1.07.8.8,0,0,1,.879.82V0H7.8V-2.707a.947.947,0,0,1,.977-.973c.594,0,.887.3.887.926V0h.672V-2.91a1.228,1.228,0,0,0-1.34-1.375A1.41,1.41,0,0,0,7.7-3.547H7.641a1.216,1.216,0,0,0-1.164-.738A1.191,1.191,0,0,0,5.3-3.547H5.238v-.664H4.6Z" transform="translate(22 8.499)" fill="#fce237"/></g><g transform="translate(538 49)"><g transform="translate(0.5 0.499)" stroke="#4e4752" stroke-width="0.5" fill="url(#a)"><path d="M1,0H42a0,0,0,0,1,0,0V10a0,0,0,0,1,0,0H1A1,1,0,0,1,0,9V1A1,1,0,0,1,1,0Z" stroke="none"/><path d="M1-.25H42a.25.25,0,0,1,.25.25V10a.25.25,0,0,1-.25.25H1A1.25,1.25,0,0,1-.25,9V1A1.25,1.25,0,0,1,1-.25Z" fill="none"/></g><path d="M43,1.992h0A1.5,1.5,0,0,0,41.5.5H0V0H41.5A1.5,1.5,0,0,1,43,1.5Z" transform="translate(42.999 10.999) rotate(180)" opacity="0.4"/><path d="M41.5,1.993H0v-.5H41.5A1.5,1.5,0,0,0,43,0V.493A1.5,1.5,0,0,1,41.5,1.993Z" transform="translate(43 1.993) rotate(180)" fill="#fff" opacity="0.4"/><path d="M1,0H42a0,0,0,0,1,0,0V10a0,0,0,0,1,0,0H1A1,1,0,0,1,0,9V1A1,1,0,0,1,1,0Z" transform="translate(0.5 0.499)" fill="#fff" opacity="0"/><path d="M-7.078-4.449h.047L-5.734,0h.664l1.535-5.637H-4.27L-5.391-1.055h-.047L-6.7-5.637H-7.41L-8.672-1.055h-.047L-9.84-5.637h-.734L-9.039,0h.664ZM-1.645-.516c-.488,0-.852-.25-.852-.68s.281-.645.922-.687l1.133-.074v.387A1.108,1.108,0,0,1-1.645-.516Zm-.125.59a1.455,1.455,0,0,0,1.3-.7H-.41V0H.23V-2.883c0-.875-.574-1.4-1.6-1.4-.9,0-1.562.445-1.652,1.121h.68c.094-.332.445-.523.949-.523.629,0,.953.285.953.8V-2.5l-1.215.074c-.98.059-1.535.492-1.535,1.246A1.281,1.281,0,0,0-1.77.074ZM1.473,0h.672V-2.609A1.031,1.031,0,0,1,3.25-3.633a2.7,2.7,0,0,1,.43.039v-.672a2.885,2.885,0,0,0-.336-.02,1.176,1.176,0,0,0-1.168.7H2.113v-.625H1.473ZM4.6,0H5.27V-2.609a1.018,1.018,0,0,1,.977-1.07.8.8,0,0,1,.879.82V0H7.8V-2.707a.947.947,0,0,1,.977-.973c.594,0,.887.3.887.926V0h.672V-2.91a1.228,1.228,0,0,0-1.34-1.375A1.41,1.41,0,0,0,7.7-3.547H7.641a1.216,1.216,0,0,0-1.164-.738A1.191,1.191,0,0,0,5.3-3.547H5.238v-.664H4.6Z" transform="translate(22 8.499)" fill="#e4dcd9"/></g><g transform="translate(538 60)"><g transform="translate(0.5 0.499)" stroke="#4e4752" stroke-width="0.5" fill="url(#a)"><path d="M1,0H42a0,0,0,0,1,0,0V10a0,0,0,0,1,0,0H1A1,1,0,0,1,0,9V1A1,1,0,0,1,1,0Z" stroke="none"/><path d="M1-.25H42a.25.25,0,0,1,.25.25V10a.25.25,0,0,1-.25.25H1A1.25,1.25,0,0,1-.25,9V1A1.25,1.25,0,0,1,1-.25Z" fill="none"/></g><path d="M43,1.992h0A1.5,1.5,0,0,0,41.5.5H0V0H41.5A1.5,1.5,0,0,1,43,1.5Z" transform="translate(42.999 10.999) rotate(180)" opacity="0.4"/><path d="M41.5,1.993H0v-.5H41.5A1.5,1.5,0,0,0,43,0V.493A1.5,1.5,0,0,1,41.5,1.993Z" transform="translate(43 1.993) rotate(180)" fill="#fff" opacity="0.4"/><path d="M1,0H42a0,0,0,0,1,0,0V10a0,0,0,0,1,0,0H1A1,1,0,0,1,0,9V1A1,1,0,0,1,1,0Z" transform="translate(0.5 0.499)" fill="#fff" opacity="0"/><path d="M-7.078-4.449h.047L-5.734,0h.664l1.535-5.637H-4.27L-5.391-1.055h-.047L-6.7-5.637H-7.41L-8.672-1.055h-.047L-9.84-5.637h-.734L-9.039,0h.664ZM-1.645-.516c-.488,0-.852-.25-.852-.68s.281-.645.922-.687l1.133-.074v.387A1.108,1.108,0,0,1-1.645-.516Zm-.125.59a1.455,1.455,0,0,0,1.3-.7H-.41V0H.23V-2.883c0-.875-.574-1.4-1.6-1.4-.9,0-1.562.445-1.652,1.121h.68c.094-.332.445-.523.949-.523.629,0,.953.285.953.8V-2.5l-1.215.074c-.98.059-1.535.492-1.535,1.246A1.281,1.281,0,0,0-1.77.074ZM1.473,0h.672V-2.609A1.031,1.031,0,0,1,3.25-3.633a2.7,2.7,0,0,1,.43.039v-.672a2.885,2.885,0,0,0-.336-.02,1.176,1.176,0,0,0-1.168.7H2.113v-.625H1.473ZM4.6,0H5.27V-2.609a1.018,1.018,0,0,1,.977-1.07.8.8,0,0,1,.879.82V0H7.8V-2.707a.947.947,0,0,1,.977-.973c.594,0,.887.3.887.926V0h.672V-2.91a1.228,1.228,0,0,0-1.34-1.375A1.41,1.41,0,0,0,7.7-3.547H7.641a1.216,1.216,0,0,0-1.164-.738A1.191,1.191,0,0,0,5.3-3.547H5.238v-.664H4.6Z" transform="translate(22 8.499)" fill="#e4dcd9"/></g></g></svg>