<?xml version="1.0" encoding="UTF-8" standalone="no"?>
<svg
   xmlns:dc="http://purl.org/dc/elements/1.1/"
   xmlns:cc="http://creativecommons.org/ns#"
   xmlns:rdf="http://www.w3.org/1999/02/22-rdf-syntax-ns#"
   xmlns:svg="http://www.w3.org/2000/svg"
   xmlns="http://www.w3.org/2000/svg"
   xmlns:xlink="http://www.w3.org/1999/xlink"
   xmlns:sodipodi="http://sodipodi.sourceforge.net/DTD/sodipodi-0.dtd"
   xmlns:inkscape="http://www.inkscape.org/namespaces/inkscape"
   width="49"
   height="28"
   viewBox="0 0 49 28"
   fill="none"
   version="1.1"
   id="svg40531"
   sodipodi:docname="bmp00303.svg"
   inkscape:version="1.0.1 (3bc2e813f5, 2020-09-07)">
  <metadata
     id="metadata40537">
    <rdf:RDF>
      <cc:Work
         rdf:about="">
        <dc:format>image/svg+xml</dc:format>
        <dc:type
           rdf:resource="http://purl.org/dc/dcmitype/StillImage" />
        <dc:title></dc:title>
      </cc:Work>
    </rdf:RDF>
  </metadata>
  <defs
     id="defs40535">
    <linearGradient
       inkscape:collect="always"
       xlink:href="#linearGradient10622"
       id="linearGradient10616"
       x1="8.953125"
       y1="0.78125"
       x2="8.921875"
       y2="9.8125"
       gradientUnits="userSpaceOnUse"
       gradientTransform="translate(0,3.15e-4)" />
    <linearGradient
       x1="0.5"
       y1="0"
       x2="0.5"
       y2="1"
       id="linearGradient10622">
      <stop
         offset="0"
         stop-color="#787477"
         id="stop10618" />
      <stop
         offset="1"
         stop-color="#716B6C"
         id="stop10620"
         style="stop-color:#696568;stop-opacity:1" />
    </linearGradient>
    <linearGradient
       id="b"
       x1="0.5"
       x2="0.5"
       y2="1"
       gradientUnits="objectBoundingBox">
      <stop
         offset="0"
         stop-color="#413f40"
         id="stop22274" />
      <stop
         offset="1"
         stop-color="#464141"
         id="stop22276" />
    </linearGradient>
    <linearGradient
       x1="0.5"
       y1="0"
       x2="0.5"
       y2="1"
       id="linearGradient10622-4">
      <stop
         offset="0"
         stop-color="#787477"
         id="stop10618-9"
         style="stop-color:#746f71;stop-opacity:1" />
      <stop
         offset="1"
         stop-color="#716B6C"
         id="stop10620-1"
         style="stop-color:#696466;stop-opacity:1" />
    </linearGradient>
  </defs>
  <sodipodi:namedview
     pagecolor="#353535"
     bordercolor="#ff0000"
     borderopacity="1"
     objecttolerance="10"
     gridtolerance="10"
     guidetolerance="10"
     inkscape:pageopacity="0"
     inkscape:pageshadow="2"
     inkscape:window-width="3753"
     inkscape:window-height="2137"
     id="namedview40533"
     showgrid="false"
     inkscape:showpageshadow="false"
     inkscape:zoom="45.254834"
     inkscape:cx="18.677076"
     inkscape:cy="15.248357"
     inkscape:window-x="-8"
     inkscape:window-y="-8"
     inkscape:window-maximized="1"
     inkscape:current-layer="svg40531" />
  <g
     id="g49877">
    <path
       id="path49867"
       style="opacity:0.13;fill:#ffffff;fill-opacity:1;stroke:none;stroke-width:1.19165;stroke-linecap:butt;stroke-linejoin:miter;stroke-miterlimit:4;stroke-dasharray:none;stroke-opacity:1;paint-order:stroke markers fill"
       d="m 47.39616,13.503749 c -0.85591,0 -45.778456,3.15e-4 -45.778456,3.15e-4 C 0.713842,13.504074 0,12.793323 0,11.889461 V 2.131834 C 0,1.227972 0.727657,0.5003253 1.6315191,0.500315 c 0,0 37.1120519,-3.15e-4 45.7784559,-3.15e-4 0.83267,0 1.593092,0.6645748 1.593092,1.6318675 v 9.7569315 c 0,0.887591 -0.750999,1.61495 -1.606907,1.61495 z"
       sodipodi:nodetypes="zssssszzz" />
    <path
       id="rect10608"
       style="opacity:1;fill:#0a090a;fill-opacity:1;stroke:none;stroke-width:1.19165;stroke-linecap:butt;stroke-linejoin:miter;stroke-miterlimit:4;stroke-dasharray:none;stroke-opacity:1;paint-order:stroke markers fill"
       d="m 47.39616,13.003749 c -0.85591,0 -45.778456,3.15e-4 -45.778456,3.15e-4 C 0.713842,13.004074 0,12.293323 0,11.389461 V 1.631834 C 0,0.727972 0.727657,3.253e-4 1.6315191,3.15e-4 1.6315191,3.15e-4 38.743571,0 47.409975,0 c 0.83267,0 1.593092,0.6645748 1.593092,1.6318675 v 9.7569315 c 0,0.887591 -0.750999,1.61495 -1.606907,1.61495 z"
       sodipodi:nodetypes="zssssszzz" />
    <path
       id="rect7997"
       style="opacity:1;fill:url(#linearGradient10616);fill-opacity:1;stroke:none;stroke-width:1.11;stroke-linecap:butt;stroke-linejoin:miter;stroke-miterlimit:4;stroke-dasharray:none;stroke-opacity:1;paint-order:stroke markers fill"
       d="M 1.8464361,0.414189 H 47.108139 c 0.723812,0 1.424267,0.58207296 1.424267,1.4044043 0,0.79954 0.01139,7.8229913 0.01139,9.0441147 0,0.742572 -0.67791,1.438586 -1.435661,1.438586 H 1.8464321 c -0.790561,0 -1.4270051,-0.636444 -1.4270051,-1.427005 l 0,-9.033096 c 0,-0.79056 0.6364441,-1.427004 1.4270051,-1.427004 z"
       sodipodi:nodetypes="ssssssssss" />
    <path
       id="rect10605"
       style="opacity:1;fill:#959197;fill-opacity:1;stroke:none;stroke-width:0.723173;stroke-linecap:butt;stroke-linejoin:miter;stroke-miterlimit:4;stroke-dasharray:none;stroke-opacity:1;paint-order:stroke markers fill"
       d="M 1.6953121,0.4238281 C 1.4118401,0.4240051 0.88650001,0.6581698 0.61914,1.1210938 0.347167,1.5919987 0.414062,1.8971994 0.414062,1.9433594 c 0,0.053384 0.346778,-1.02343752 1.2656251,-1.02343752 l 45.5922159,0 c 0.918846,0 1.265625,1.07682162 1.265624,1.02343752 0,-0.04616 0.06494,-0.3513607 -0.207031,-0.8222656 -0.26736,-0.462924 -0.7927,-0.6970887 -1.076172,-0.6972657 -0.570202,-7.896e-4 -44.8860739,0 -45.5590119,0 z"
       sodipodi:nodetypes="ccsccsscc" />
  </g>
  <path
     id="path49879"
     style="opacity:0.13;fill:#ffffff;fill-opacity:1;stroke:none;stroke-width:1.19165;stroke-linecap:butt;stroke-linejoin:miter;stroke-miterlimit:4;stroke-dasharray:none;stroke-opacity:1;paint-order:stroke markers fill"
     d="m 47.39616,27.503749 c -0.85591,0 -45.778456,3.15e-4 -45.778456,3.15e-4 C 0.713842,27.504074 0,26.793323 0,25.889461 v -9.757627 c 0,-0.903862 0.727657,-1.631509 1.6315191,-1.631519 0,0 37.1120519,-3.15e-4 45.7784559,-3.15e-4 0.83267,0 1.593092,0.664575 1.593092,1.631867 v 9.756932 c 0,0.887591 -0.750999,1.61495 -1.606907,1.61495 z"
     sodipodi:nodetypes="zssssszzz" />
  <path
     id="path49881"
     style="fill:#0a090a;fill-opacity:1;stroke:none;stroke-width:1.19165;stroke-linecap:butt;stroke-linejoin:miter;stroke-miterlimit:4;stroke-dasharray:none;stroke-opacity:1;paint-order:stroke markers fill"
     d="m 47.39616,27.003749 c -0.85591,0 -45.778456,3.15e-4 -45.778456,3.15e-4 C 0.713842,27.004074 0,26.293323 0,25.389461 v -9.757627 c 0,-0.903862 0.727657,-1.631509 1.6315191,-1.631519 0,0 37.1120519,-3.15e-4 45.7784559,-3.15e-4 0.83267,0 1.593092,0.664575 1.593092,1.631868 v 9.756931 c 0,0.887591 -0.750999,1.61495 -1.606907,1.61495 z"
     sodipodi:nodetypes="zssssszzz" />
  <path
     id="path49883"
     style="fill:#413f40;fill-opacity:1;stroke:none;stroke-width:1.11;stroke-linecap:butt;stroke-linejoin:miter;stroke-miterlimit:4;stroke-dasharray:none;stroke-opacity:1;paint-order:stroke markers fill"
     d="M 1.8464361,14.414189 H 47.108139 c 0.723812,0 1.424267,0.582073 1.424267,1.404404 0,0.79954 0.01139,7.822992 0.01139,9.044115 0,0.742572 -0.67791,1.438586 -1.435661,1.438586 H 1.8464321 c -0.790561,0 -1.4270051,-0.636444 -1.4270051,-1.427005 v -9.033096 c 0,-0.79056 0.6364441,-1.427004 1.4270051,-1.427004 z"
     sodipodi:nodetypes="ssssssssss" />
  <g
     aria-label="Vertical"
     id="text27"
     style="font-size:8px;font-family:SFProText-Regular, 'SF Pro Text';fill:#e4dcd9;fill-opacity:1"
     class="e"
     transform="matrix(0.94653256,0,0,0.94653256,0.3068231,-0.42610887)">
    <path
       d="m 15.963504,4.2773714 -2.117188,5.8164066 h -1.03125 L 10.697879,4.2773714 h 0.828125 l 1.824219,5.1171875 1.824218,-5.1171875 z"
       id="path49903"
       style="fill:#e4dcd9;fill-opacity:1" />
    <path
       d="m 20.049441,7.9883089 h -3.214843 q 0,0.4023438 0.121093,0.703125 0.121094,0.296875 0.332032,0.4882813 0.203125,0.1875 0.480468,0.28125 0.28125,0.09375 0.617188,0.09375 0.445312,0 0.894531,-0.1757813 0.453125,-0.1796875 0.644531,-0.3515625 h 0.03906 v 0.8007813 q -0.371094,0.15625 -0.757813,0.2617183 -0.386718,0.105469 -0.8125,0.105469 -1.085937,0 -1.695312,-0.5859373 -0.609375,-0.5898438 -0.609375,-1.671875 0,-1.0703125 0.582031,-1.6992188 0.585938,-0.6289062 1.539063,-0.6289062 0.882812,0 1.359375,0.515625 0.480468,0.515625 0.480468,1.4648437 z m -0.714843,-0.5625 q -0.0039,-0.578125 -0.292969,-0.8945312 -0.285156,-0.3164063 -0.871094,-0.3164063 -0.589844,0 -0.941406,0.3476563 -0.347656,0.3476562 -0.394531,0.8632812 z"
       id="path49905"
       style="fill:#e4dcd9;fill-opacity:1" />
    <path
       d="m 23.885379,6.5312777 h -0.03906 q -0.164062,-0.039063 -0.320312,-0.054687 -0.152344,-0.019531 -0.363281,-0.019531 -0.339844,0 -0.65625,0.1523438 -0.316407,0.1484375 -0.609375,0.3867187 V 10.093778 H 21.162723 V 5.7304964 h 0.734375 v 0.6445313 q 0.4375,-0.3515625 0.769531,-0.4960938 0.335937,-0.1484375 0.683594,-0.1484375 0.191406,0 0.277343,0.011719 0.08594,0.00781 0.257813,0.035156 z"
       id="path49907"
       style="fill:#e4dcd9;fill-opacity:1" />
    <path
       d="m 26.84241,10.054715 q -0.207031,0.05469 -0.453125,0.08984 -0.242187,0.03516 -0.433594,0.03516 -0.667968,0 -1.015625,-0.3593748 Q 24.59241,9.4609652 24.59241,8.6679964 V 6.3476839 H 24.096316 V 5.7304964 H 24.59241 V 4.4765902 h 0.734375 v 1.2539062 h 1.515625 v 0.6171875 h -1.515625 v 1.9882813 q 0,0.34375 0.01563,0.5390625 0.01563,0.1914062 0.109375,0.359375 0.08594,0.15625 0.234375,0.2304687 0.152344,0.070312 0.460938,0.070312 0.179687,0 0.375,-0.050781 0.195312,-0.054687 0.28125,-0.089844 h 0.03906 z"
       id="path49909"
       style="fill:#e4dcd9;fill-opacity:1" />
    <path
       d="M 28.518191,5.0000277 H 27.690066 V 4.2383089 h 0.828125 z m -0.04687,5.0937503 h -0.73438 V 5.7304964 h 0.734375 z"
       id="path49911"
       style="fill:#e4dcd9;fill-opacity:1" />
    <path
       d="m 33.151004,9.8203402 q -0.367188,0.1757812 -0.699219,0.2734378 -0.328125,0.09766 -0.699219,0.09766 -0.472656,0 -0.867187,-0.136719 -0.394531,-0.1406248 -0.675781,-0.4218748 -0.285157,-0.28125 -0.441407,-0.7109375 -0.15625,-0.4296875 -0.15625,-1.0039063 0,-1.0703125 0.585938,-1.6796875 0.589844,-0.609375 1.554687,-0.609375 0.375,0 0.734375,0.1054688 0.363282,0.1054687 0.664063,0.2578125 v 0.8164062 h -0.03906 q -0.33594,-0.2617227 -0.695315,-0.4023477 -0.355469,-0.140625 -0.695313,-0.140625 -0.625,0 -0.988281,0.421875 -0.359375,0.4179687 -0.359375,1.2304687 0,0.7890625 0.351563,1.2148438 0.355468,0.421875 0.996093,0.421875 0.222657,0 0.453125,-0.058594 0.230469,-0.058594 0.414063,-0.1523437 0.160156,-0.082031 0.300781,-0.171875 0.140625,-0.09375 0.222656,-0.1601563 h 0.03906 z"
       id="path49913"
       style="fill:#e4dcd9;fill-opacity:1" />
    <path
       d="M 37.483035,10.093778 H 36.752566 V 9.6289339 q -0.09766,0.066406 -0.265625,0.1875 -0.164062,0.1171875 -0.320312,0.1875001 -0.183594,0.08984 -0.421875,0.148437 -0.238281,0.0625 -0.558594,0.0625 -0.589844,0 -1,-0.3906246 -0.410156,-0.390625 -0.410156,-0.9960937 0,-0.4960938 0.210937,-0.8007813 0.214844,-0.3085937 0.609375,-0.484375 0.398438,-0.1757812 0.957032,-0.2382812 0.558593,-0.0625 1.199218,-0.09375 V 7.0976839 q 0,-0.25 -0.08984,-0.4140625 -0.08594,-0.1640625 -0.25,-0.2578125 -0.15625,-0.089844 -0.375,-0.1210937 -0.21875,-0.03125 -0.457032,-0.03125 -0.289062,0 -0.644531,0.078125 -0.355469,0.074219 -0.734375,0.21875 h -0.03906 V 5.8242464 q 0.214843,-0.058594 0.621093,-0.1289062 0.40625,-0.070312 0.800782,-0.070312 0.460937,0 0.800781,0.078125 0.34375,0.074219 0.59375,0.2578125 0.246094,0.1796875 0.375,0.4648437 0.128906,0.2851563 0.128906,0.7070313 z M 36.752566,9.0195589 V 7.8047152 q -0.335937,0.019531 -0.792968,0.058594 -0.453125,0.039063 -0.71875,0.1132813 -0.316407,0.089844 -0.511719,0.28125 -0.195313,0.1875 -0.195313,0.5195312 0,0.375 0.226563,0.5664063 0.226562,0.1875 0.691406,0.1875 0.386719,0 0.707031,-0.1484375 0.320313,-0.1523438 0.59375,-0.3632816 z"
       id="path49915"
       style="fill:#e4dcd9;fill-opacity:1" />
    <path
       d="M 39.639285,10.093778 H 38.90491 V 4.0156527 h 0.734375 z"
       id="path49917"
       style="fill:#e4dcd9;fill-opacity:1" />
  </g>
  <g
     aria-label="Vertical"
     id="g49936"
     style="font-size:8px;font-family:SFProText-Regular, 'SF Pro Text';fill:#fce237"
     class="e"
     transform="matrix(0.94653256,0,0,0.94653256,0.3068231,13.574054)">
    <path
       d="m 15.963504,4.2773714 -2.117188,5.8164066 h -1.03125 L 10.697879,4.2773714 h 0.828125 l 1.824219,5.1171875 1.824218,-5.1171875 z"
       id="path49920" />
    <path
       d="m 20.049441,7.9883089 h -3.214843 q 0,0.4023438 0.121093,0.703125 0.121094,0.296875 0.332032,0.4882813 0.203125,0.1875 0.480468,0.28125 0.28125,0.09375 0.617188,0.09375 0.445312,0 0.894531,-0.1757813 0.453125,-0.1796875 0.644531,-0.3515625 h 0.03906 v 0.8007813 q -0.371094,0.15625 -0.757813,0.2617183 -0.386718,0.105469 -0.8125,0.105469 -1.085937,0 -1.695312,-0.5859373 -0.609375,-0.5898438 -0.609375,-1.671875 0,-1.0703125 0.582031,-1.6992188 0.585938,-0.6289062 1.539063,-0.6289062 0.882812,0 1.359375,0.515625 0.480468,0.515625 0.480468,1.4648437 z m -0.714843,-0.5625 q -0.0039,-0.578125 -0.292969,-0.8945312 -0.285156,-0.3164063 -0.871094,-0.3164063 -0.589844,0 -0.941406,0.3476563 -0.347656,0.3476562 -0.394531,0.8632812 z"
       id="path49922" />
    <path
       d="m 23.885379,6.5312777 h -0.03906 q -0.164062,-0.039063 -0.320312,-0.054687 -0.152344,-0.019531 -0.363281,-0.019531 -0.339844,0 -0.65625,0.1523438 -0.316407,0.1484375 -0.609375,0.3867187 V 10.093778 H 21.162723 V 5.7304964 h 0.734375 v 0.6445313 q 0.4375,-0.3515625 0.769531,-0.4960938 0.335937,-0.1484375 0.683594,-0.1484375 0.191406,0 0.277343,0.011719 0.08594,0.00781 0.257813,0.035156 z"
       id="path49924" />
    <path
       d="m 26.84241,10.054715 q -0.207031,0.05469 -0.453125,0.08984 -0.242187,0.03516 -0.433594,0.03516 -0.667968,0 -1.015625,-0.3593748 Q 24.59241,9.4609652 24.59241,8.6679964 V 6.3476839 H 24.096316 V 5.7304964 H 24.59241 V 4.4765902 h 0.734375 v 1.2539062 h 1.515625 v 0.6171875 h -1.515625 v 1.9882813 q 0,0.34375 0.01563,0.5390625 0.01563,0.1914062 0.109375,0.359375 0.08594,0.15625 0.234375,0.2304687 0.152344,0.070312 0.460938,0.070312 0.179687,0 0.375,-0.050781 0.195312,-0.054687 0.28125,-0.089844 h 0.03906 z"
       id="path49926" />
    <path
       d="M 28.518191,5.0000277 H 27.690066 V 4.2383089 h 0.828125 z m -0.04687,5.0937503 h -0.73438 V 5.7304964 h 0.734375 z"
       id="path49928" />
    <path
       d="m 33.151004,9.8203402 q -0.367188,0.1757812 -0.699219,0.2734378 -0.328125,0.09766 -0.699219,0.09766 -0.472656,0 -0.867187,-0.136719 -0.394531,-0.1406248 -0.675781,-0.4218748 -0.285157,-0.28125 -0.441407,-0.7109375 -0.15625,-0.4296875 -0.15625,-1.0039063 0,-1.0703125 0.585938,-1.6796875 0.589844,-0.609375 1.554687,-0.609375 0.375,0 0.734375,0.1054688 0.363282,0.1054687 0.664063,0.2578125 v 0.8164062 h -0.03906 q -0.33594,-0.2617227 -0.695315,-0.4023477 -0.355469,-0.140625 -0.695313,-0.140625 -0.625,0 -0.988281,0.421875 -0.359375,0.4179687 -0.359375,1.2304687 0,0.7890625 0.351563,1.2148438 0.355468,0.421875 0.996093,0.421875 0.222657,0 0.453125,-0.058594 0.230469,-0.058594 0.414063,-0.1523437 0.160156,-0.082031 0.300781,-0.171875 0.140625,-0.09375 0.222656,-0.1601563 h 0.03906 z"
       id="path49930" />
    <path
       d="M 37.483035,10.093778 H 36.752566 V 9.6289339 q -0.09766,0.066406 -0.265625,0.1875 -0.164062,0.1171875 -0.320312,0.1875001 -0.183594,0.08984 -0.421875,0.148437 -0.238281,0.0625 -0.558594,0.0625 -0.589844,0 -1,-0.3906246 -0.410156,-0.390625 -0.410156,-0.9960937 0,-0.4960938 0.210937,-0.8007813 0.214844,-0.3085937 0.609375,-0.484375 0.398438,-0.1757812 0.957032,-0.2382812 0.558593,-0.0625 1.199218,-0.09375 V 7.0976839 q 0,-0.25 -0.08984,-0.4140625 -0.08594,-0.1640625 -0.25,-0.2578125 -0.15625,-0.089844 -0.375,-0.1210937 -0.21875,-0.03125 -0.457032,-0.03125 -0.289062,0 -0.644531,0.078125 -0.355469,0.074219 -0.734375,0.21875 h -0.03906 V 5.8242464 q 0.214843,-0.058594 0.621093,-0.1289062 0.40625,-0.070312 0.800782,-0.070312 0.460937,0 0.800781,0.078125 0.34375,0.074219 0.59375,0.2578125 0.246094,0.1796875 0.375,0.4648437 0.128906,0.2851563 0.128906,0.7070313 z M 36.752566,9.0195589 V 7.8047152 q -0.335937,0.019531 -0.792968,0.058594 -0.453125,0.039063 -0.71875,0.1132813 -0.316407,0.089844 -0.511719,0.28125 -0.195313,0.1875 -0.195313,0.5195312 0,0.375 0.226563,0.5664063 0.226562,0.1875 0.691406,0.1875 0.386719,0 0.707031,-0.1484375 0.320313,-0.1523438 0.59375,-0.3632816 z"
       id="path49932" />
    <path
       d="M 39.639285,10.093778 H 38.90491 V 4.0156527 h 0.734375 z"
       id="path49934" />
  </g>
</svg>
