<svg xmlns="http://www.w3.org/2000/svg" width="47" height="318" viewBox="0 0 47 318"><g transform="translate(0.104 2.107)"><rect width="44" height="8" transform="translate(2.896 6.893)" fill="#fff" opacity="0.2"/><rect width="2" height="8" transform="translate(-0.104 6.893)" fill="#fff" opacity="0.2"/><path d="M4.808,0V-4.228H4.04L2.692-1.017h-.05L1.3-4.228H.53V0H1.14V-3.053h.041L2.42-.123h.5l1.239-2.93H4.2V0ZM7.67-4.33A1.955,1.955,0,0,0,5.7-2.115,1.952,1.952,0,0,0,7.67.1,1.95,1.95,0,0,0,9.639-2.115,1.949,1.949,0,0,0,7.67-4.33Zm0,.612c.8,0,1.3.621,1.3,1.6S8.473-.51,7.67-.51s-1.3-.63-1.3-1.605S6.873-3.718,7.67-3.718ZM11.165,0V-3h.047l2.171,3h.592V-4.228h-.639v3h-.047l-2.171-3h-.592V0Zm5.672-4.33a1.955,1.955,0,0,0-1.975,2.215A1.952,1.952,0,0,0,16.837.1a1.95,1.95,0,0,0,1.969-2.218A1.949,1.949,0,0,0,16.837-4.33Zm0,.612c.8,0,1.3.621,1.3,1.6s-.5,1.605-1.3,1.605-1.3-.63-1.3-1.605S16.04-3.718,16.837-3.718Z" transform="translate(3.896 12.893)" fill="#dbd7d7"/><rect width="44" height="8" transform="translate(2.896 59.893)" fill="#c89e83" opacity="0.5"/><rect width="2" height="8" transform="translate(-0.104 59.893)" fill="#f6d738"/><path d="M4.808,0V-4.228H4.04L2.692-1.017h-.05L1.3-4.228H.53V0H1.14V-3.053h.041L2.42-.123h.5l1.239-2.93H4.2V0ZM7.67-4.33A1.955,1.955,0,0,0,5.7-2.115,1.952,1.952,0,0,0,7.67.1,1.95,1.95,0,0,0,9.639-2.115,1.949,1.949,0,0,0,7.67-4.33Zm0,.612c.8,0,1.3.621,1.3,1.6S8.473-.51,7.67-.51s-1.3-.63-1.3-1.605S6.873-3.718,7.67-3.718ZM11.165,0V-3h.047l2.171,3h.592V-4.228h-.639v3h-.047l-2.171-3h-.592V0Zm5.672-4.33a1.955,1.955,0,0,0-1.975,2.215A1.952,1.952,0,0,0,16.837.1a1.95,1.95,0,0,0,1.969-2.218A1.949,1.949,0,0,0,16.837-4.33Zm0,.612c.8,0,1.3.621,1.3,1.6s-.5,1.605-1.3,1.605-1.3-.63-1.3-1.605S16.04-3.718,16.837-3.718Z" transform="translate(3.896 65.893)" fill="#f6d738"/><rect width="44" height="8" transform="translate(2.896 112.893)" fill="#fff" opacity="0.2"/><rect width="2" height="8" transform="translate(-0.104 112.893)" fill="#fff" opacity="0.2"/><path d="M4.808,0V-4.228H4.04L2.692-1.017h-.05L1.3-4.228H.53V0H1.14V-3.053h.041L2.42-.123h.5l1.239-2.93H4.2V0ZM7.67-4.33A1.955,1.955,0,0,0,5.7-2.115,1.952,1.952,0,0,0,7.67.1,1.95,1.95,0,0,0,9.639-2.115,1.949,1.949,0,0,0,7.67-4.33Zm0,.612c.8,0,1.3.621,1.3,1.6S8.473-.51,7.67-.51s-1.3-.63-1.3-1.605S6.873-3.718,7.67-3.718ZM11.165,0V-3h.047l2.171,3h.592V-4.228h-.639v3h-.047l-2.171-3h-.592V0Zm5.672-4.33a1.955,1.955,0,0,0-1.975,2.215A1.952,1.952,0,0,0,16.837.1a1.95,1.95,0,0,0,1.969-2.218A1.949,1.949,0,0,0,16.837-4.33Zm0,.612c.8,0,1.3.621,1.3,1.6s-.5,1.605-1.3,1.605-1.3-.63-1.3-1.605S16.04-3.718,16.837-3.718Z" transform="translate(3.896 118.893)" fill="#dbd7d7"/><rect width="44" height="8" transform="translate(2.896 165.893)" fill="#fff" opacity="0.2"/><rect width="2" height="8" transform="translate(-0.104 165.893)" fill="#fff" opacity="0.2"/><path d="M4.808,0V-4.228H4.04L2.692-1.017h-.05L1.3-4.228H.53V0H1.14V-3.053h.041L2.42-.123h.5l1.239-2.93H4.2V0ZM7.67-4.33A1.955,1.955,0,0,0,5.7-2.115,1.952,1.952,0,0,0,7.67.1,1.95,1.95,0,0,0,9.639-2.115,1.949,1.949,0,0,0,7.67-4.33Zm0,.612c.8,0,1.3.621,1.3,1.6S8.473-.51,7.67-.51s-1.3-.63-1.3-1.605S6.873-3.718,7.67-3.718ZM11.165,0V-3h.047l2.171,3h.592V-4.228h-.639v3h-.047l-2.171-3h-.592V0Zm5.672-4.33a1.955,1.955,0,0,0-1.975,2.215A1.952,1.952,0,0,0,16.837.1a1.95,1.95,0,0,0,1.969-2.218A1.949,1.949,0,0,0,16.837-4.33Zm0,.612c.8,0,1.3.621,1.3,1.6s-.5,1.605-1.3,1.605-1.3-.63-1.3-1.605S16.04-3.718,16.837-3.718Z" transform="translate(3.896 171.893)" fill="#dbd7d7"/><rect width="44" height="8" transform="translate(2.896 218.893)" fill="#fff" opacity="0.2"/><rect width="2" height="8" transform="translate(-0.104 218.893)" fill="#fff" opacity="0.2"/><path d="M4.808,0V-4.228H4.04L2.692-1.017h-.05L1.3-4.228H.53V0H1.14V-3.053h.041L2.42-.123h.5l1.239-2.93H4.2V0ZM7.67-4.33A1.955,1.955,0,0,0,5.7-2.115,1.952,1.952,0,0,0,7.67.1,1.95,1.95,0,0,0,9.639-2.115,1.949,1.949,0,0,0,7.67-4.33Zm0,.612c.8,0,1.3.621,1.3,1.6S8.473-.51,7.67-.51s-1.3-.63-1.3-1.605S6.873-3.718,7.67-3.718ZM11.165,0V-3h.047l2.171,3h.592V-4.228h-.639v3h-.047l-2.171-3h-.592V0Zm5.672-4.33a1.955,1.955,0,0,0-1.975,2.215A1.952,1.952,0,0,0,16.837.1a1.95,1.95,0,0,0,1.969-2.218A1.949,1.949,0,0,0,16.837-4.33Zm0,.612c.8,0,1.3.621,1.3,1.6s-.5,1.605-1.3,1.605-1.3-.63-1.3-1.605S16.04-3.718,16.837-3.718Z" transform="translate(3.896 224.893)" fill="#dbd7d7"/><rect width="44" height="8" transform="translate(2.896 271.893)" fill="#fff" opacity="0.2"/><rect width="2" height="8" transform="translate(-0.104 271.893)" fill="#fff" opacity="0.2"/><path d="M4.808,0V-4.228H4.04L2.692-1.017h-.05L1.3-4.228H.53V0H1.14V-3.053h.041L2.42-.123h.5l1.239-2.93H4.2V0ZM7.67-4.33A1.955,1.955,0,0,0,5.7-2.115,1.952,1.952,0,0,0,7.67.1,1.95,1.95,0,0,0,9.639-2.115,1.949,1.949,0,0,0,7.67-4.33Zm0,.612c.8,0,1.3.621,1.3,1.6S8.473-.51,7.67-.51s-1.3-.63-1.3-1.605S6.873-3.718,7.67-3.718ZM11.165,0V-3h.047l2.171,3h.592V-4.228h-.639v3h-.047l-2.171-3h-.592V0Zm5.672-4.33a1.955,1.955,0,0,0-1.975,2.215A1.952,1.952,0,0,0,16.837.1a1.95,1.95,0,0,0,1.969-2.218A1.949,1.949,0,0,0,16.837-4.33Zm0,.612c.8,0,1.3.621,1.3,1.6s-.5,1.605-1.3,1.605-1.3-.63-1.3-1.605S16.04-3.718,16.837-3.718Z" transform="translate(3.896 277.893)" fill="#dbd7d7"/><rect width="44" height="8" transform="translate(2.896 -2.107)" fill="#c89e83" opacity="0.5"/><rect width="2" height="8" transform="translate(-0.104 -2.107)" fill="#f6d738"/><path d="M.53-4.228V0h.656V-1.424h.979A1.344,1.344,0,0,0,3.58-2.818,1.334,1.334,0,0,0,2.186-4.228Zm.656.58h.826c.577,0,.9.293.9.829S2.578-2,2.013-2H1.187ZM6.226-4.33A1.955,1.955,0,0,0,4.251-2.115,1.952,1.952,0,0,0,6.226.1,1.95,1.95,0,0,0,8.194-2.115,1.949,1.949,0,0,0,6.226-4.33Zm0,.612c.8,0,1.3.621,1.3,1.6S7.028-.51,6.226-.51s-1.3-.63-1.3-1.605S5.429-3.718,6.226-3.718ZM11.719-.6H9.738V-4.228H9.082V0h2.637Zm2.089.6V-1.705L15.3-4.228h-.729L13.506-2.4h-.05L12.393-4.228h-.729l1.488,2.522V0Z" transform="translate(3.896 3.893)" fill="#f6d738"/><rect width="44" height="8" transform="translate(2.896 50.893)" fill="#fff" opacity="0.2"/><rect width="2" height="8" transform="translate(-0.104 50.893)" fill="#fff" opacity="0.2"/><path d="M.53-4.228V0h.656V-1.424h.979A1.344,1.344,0,0,0,3.58-2.818,1.334,1.334,0,0,0,2.186-4.228Zm.656.58h.826c.577,0,.9.293.9.829S2.578-2,2.013-2H1.187ZM6.226-4.33A1.955,1.955,0,0,0,4.251-2.115,1.952,1.952,0,0,0,6.226.1,1.95,1.95,0,0,0,8.194-2.115,1.949,1.949,0,0,0,6.226-4.33Zm0,.612c.8,0,1.3.621,1.3,1.6S7.028-.51,6.226-.51s-1.3-.63-1.3-1.605S5.429-3.718,6.226-3.718ZM11.719-.6H9.738V-4.228H9.082V0h2.637Zm2.089.6V-1.705L15.3-4.228h-.729L13.506-2.4h-.05L12.393-4.228h-.729l1.488,2.522V0Z" transform="translate(3.896 56.893)" fill="#dbd7d7"/><rect width="44" height="8" transform="translate(2.896 103.893)" fill="#fff" opacity="0.2"/><rect width="2" height="8" transform="translate(-0.104 103.893)" fill="#fff" opacity="0.2"/><path d="M.53-4.228V0h.656V-1.424h.979A1.344,1.344,0,0,0,3.58-2.818,1.334,1.334,0,0,0,2.186-4.228Zm.656.58h.826c.577,0,.9.293.9.829S2.578-2,2.013-2H1.187ZM6.226-4.33A1.955,1.955,0,0,0,4.251-2.115,1.952,1.952,0,0,0,6.226.1,1.95,1.95,0,0,0,8.194-2.115,1.949,1.949,0,0,0,6.226-4.33Zm0,.612c.8,0,1.3.621,1.3,1.6S7.028-.51,6.226-.51s-1.3-.63-1.3-1.605S5.429-3.718,6.226-3.718ZM11.719-.6H9.738V-4.228H9.082V0h2.637Zm2.089.6V-1.705L15.3-4.228h-.729L13.506-2.4h-.05L12.393-4.228h-.729l1.488,2.522V0Z" transform="translate(3.896 109.893)" fill="#dbd7d7"/><rect width="44" height="8" transform="translate(2.896 156.893)" fill="#fff" opacity="0.2"/><rect width="2" height="8" transform="translate(-0.104 156.893)" fill="#fff" opacity="0.2"/><path d="M.53-4.228V0h.656V-1.424h.979A1.344,1.344,0,0,0,3.58-2.818,1.334,1.334,0,0,0,2.186-4.228Zm.656.58h.826c.577,0,.9.293.9.829S2.578-2,2.013-2H1.187ZM6.226-4.33A1.955,1.955,0,0,0,4.251-2.115,1.952,1.952,0,0,0,6.226.1,1.95,1.95,0,0,0,8.194-2.115,1.949,1.949,0,0,0,6.226-4.33Zm0,.612c.8,0,1.3.621,1.3,1.6S7.028-.51,6.226-.51s-1.3-.63-1.3-1.605S5.429-3.718,6.226-3.718ZM11.719-.6H9.738V-4.228H9.082V0h2.637Zm2.089.6V-1.705L15.3-4.228h-.729L13.506-2.4h-.05L12.393-4.228h-.729l1.488,2.522V0Z" transform="translate(3.896 162.893)" fill="#dbd7d7"/><rect width="44" height="8" transform="translate(2.896 209.893)" fill="#fff" opacity="0.2"/><rect width="2" height="8" transform="translate(-0.104 209.893)" fill="#fff" opacity="0.2"/><path d="M.53-4.228V0h.656V-1.424h.979A1.344,1.344,0,0,0,3.58-2.818,1.334,1.334,0,0,0,2.186-4.228Zm.656.58h.826c.577,0,.9.293.9.829S2.578-2,2.013-2H1.187ZM6.226-4.33A1.955,1.955,0,0,0,4.251-2.115,1.952,1.952,0,0,0,6.226.1,1.95,1.95,0,0,0,8.194-2.115,1.949,1.949,0,0,0,6.226-4.33Zm0,.612c.8,0,1.3.621,1.3,1.6S7.028-.51,6.226-.51s-1.3-.63-1.3-1.605S5.429-3.718,6.226-3.718ZM11.719-.6H9.738V-4.228H9.082V0h2.637Zm2.089.6V-1.705L15.3-4.228h-.729L13.506-2.4h-.05L12.393-4.228h-.729l1.488,2.522V0Z" transform="translate(3.896 215.893)" fill="#dbd7d7"/><rect width="44" height="8" transform="translate(2.896 262.893)" fill="#fff" opacity="0.2"/><rect width="2" height="8" transform="translate(-0.104 262.893)" fill="#fff" opacity="0.2"/><path d="M.53-4.228V0h.656V-1.424h.979A1.344,1.344,0,0,0,3.58-2.818,1.334,1.334,0,0,0,2.186-4.228Zm.656.58h.826c.577,0,.9.293.9.829S2.578-2,2.013-2H1.187ZM6.226-4.33A1.955,1.955,0,0,0,4.251-2.115,1.952,1.952,0,0,0,6.226.1,1.95,1.95,0,0,0,8.194-2.115,1.949,1.949,0,0,0,6.226-4.33Zm0,.612c.8,0,1.3.621,1.3,1.6S7.028-.51,6.226-.51s-1.3-.63-1.3-1.605S5.429-3.718,6.226-3.718ZM11.719-.6H9.738V-4.228H9.082V0h2.637Zm2.089.6V-1.705L15.3-4.228h-.729L13.506-2.4h-.05L12.393-4.228h-.729l1.488,2.522V0Z" transform="translate(3.896 268.893)" fill="#dbd7d7"/><rect width="44" height="8" transform="translate(2.896 15.893)" fill="#fff" opacity="0.2"/><rect width="2" height="8" transform="translate(-0.104 15.893)" fill="#fff" opacity="0.2"/><path d="M4.808,0V-4.228H4.04L2.692-1.017h-.05L1.3-4.228H.53V0H1.14V-3.053h.041L2.42-.123h.5l1.239-2.93H4.2V0ZM7.67-4.33A1.955,1.955,0,0,0,5.7-2.115,1.952,1.952,0,0,0,7.67.1,1.95,1.95,0,0,0,9.639-2.115,1.949,1.949,0,0,0,7.67-4.33Zm0,.612c.8,0,1.3.621,1.3,1.6S8.473-.51,7.67-.51s-1.3-.63-1.3-1.605S6.873-3.718,7.67-3.718ZM11.165,0V-3h.047l2.171,3h.592V-4.228h-.639v3h-.047l-2.171-3h-.592V0Zm5.672-4.33a1.955,1.955,0,0,0-1.975,2.215A1.952,1.952,0,0,0,16.837.1a1.95,1.95,0,0,0,1.969-2.218A1.949,1.949,0,0,0,16.837-4.33Zm0,.612c.8,0,1.3.621,1.3,1.6s-.5,1.605-1.3,1.605-1.3-.63-1.3-1.605S16.04-3.718,16.837-3.718Zm4.3,2.581C21.182-.381,21.812.1,22.749.1c1,0,1.629-.507,1.629-1.315,0-.636-.357-.987-1.225-1.189l-.466-.114c-.551-.129-.773-.3-.773-.6,0-.381.346-.63.864-.63a.807.807,0,0,1,.894.633h.639A1.379,1.379,0,0,0,22.787-4.33c-.923,0-1.538.5-1.538,1.254,0,.621.349.99,1.113,1.169l.545.132c.56.132.806.325.806.647,0,.375-.387.647-.914.647-.565,0-.958-.255-1.014-.656ZM26.968,0V-3.63h1.327v-.6H24.981v.6h1.33V0Z" transform="translate(3.896 21.893)" fill="#dbd7d7"/><rect width="44" height="8" transform="translate(2.896 68.893)" fill="#fff" opacity="0.2"/><rect width="2" height="8" transform="translate(-0.104 68.893)" fill="#fff" opacity="0.2"/><path d="M4.808,0V-4.228H4.04L2.692-1.017h-.05L1.3-4.228H.53V0H1.14V-3.053h.041L2.42-.123h.5l1.239-2.93H4.2V0ZM7.67-4.33A1.955,1.955,0,0,0,5.7-2.115,1.952,1.952,0,0,0,7.67.1,1.95,1.95,0,0,0,9.639-2.115,1.949,1.949,0,0,0,7.67-4.33Zm0,.612c.8,0,1.3.621,1.3,1.6S8.473-.51,7.67-.51s-1.3-.63-1.3-1.605S6.873-3.718,7.67-3.718ZM11.165,0V-3h.047l2.171,3h.592V-4.228h-.639v3h-.047l-2.171-3h-.592V0Zm5.672-4.33a1.955,1.955,0,0,0-1.975,2.215A1.952,1.952,0,0,0,16.837.1a1.95,1.95,0,0,0,1.969-2.218A1.949,1.949,0,0,0,16.837-4.33Zm0,.612c.8,0,1.3.621,1.3,1.6s-.5,1.605-1.3,1.605-1.3-.63-1.3-1.605S16.04-3.718,16.837-3.718Zm4.3,2.581C21.182-.381,21.812.1,22.749.1c1,0,1.629-.507,1.629-1.315,0-.636-.357-.987-1.225-1.189l-.466-.114c-.551-.129-.773-.3-.773-.6,0-.381.346-.63.864-.63a.807.807,0,0,1,.894.633h.639A1.379,1.379,0,0,0,22.787-4.33c-.923,0-1.538.5-1.538,1.254,0,.621.349.99,1.113,1.169l.545.132c.56.132.806.325.806.647,0,.375-.387.647-.914.647-.565,0-.958-.255-1.014-.656ZM26.968,0V-3.63h1.327v-.6H24.981v.6h1.33V0Z" transform="translate(3.896 74.893)" fill="#dbd7d7"/><rect width="44" height="8" transform="translate(2.896 121.893)" fill="#c89e83" opacity="0.5"/><rect width="2" height="8" transform="translate(-0.104 121.893)" fill="#f6d738"/><path d="M4.808,0V-4.228H4.04L2.692-1.017h-.05L1.3-4.228H.53V0H1.14V-3.053h.041L2.42-.123h.5l1.239-2.93H4.2V0ZM7.67-4.33A1.955,1.955,0,0,0,5.7-2.115,1.952,1.952,0,0,0,7.67.1,1.95,1.95,0,0,0,9.639-2.115,1.949,1.949,0,0,0,7.67-4.33Zm0,.612c.8,0,1.3.621,1.3,1.6S8.473-.51,7.67-.51s-1.3-.63-1.3-1.605S6.873-3.718,7.67-3.718ZM11.165,0V-3h.047l2.171,3h.592V-4.228h-.639v3h-.047l-2.171-3h-.592V0Zm5.672-4.33a1.955,1.955,0,0,0-1.975,2.215A1.952,1.952,0,0,0,16.837.1a1.95,1.95,0,0,0,1.969-2.218A1.949,1.949,0,0,0,16.837-4.33Zm0,.612c.8,0,1.3.621,1.3,1.6s-.5,1.605-1.3,1.605-1.3-.63-1.3-1.605S16.04-3.718,16.837-3.718Zm4.3,2.581C21.182-.381,21.812.1,22.749.1c1,0,1.629-.507,1.629-1.315,0-.636-.357-.987-1.225-1.189l-.466-.114c-.551-.129-.773-.3-.773-.6,0-.381.346-.63.864-.63a.807.807,0,0,1,.894.633h.639A1.379,1.379,0,0,0,22.787-4.33c-.923,0-1.538.5-1.538,1.254,0,.621.349.99,1.113,1.169l.545.132c.56.132.806.325.806.647,0,.375-.387.647-.914.647-.565,0-.958-.255-1.014-.656ZM26.968,0V-3.63h1.327v-.6H24.981v.6h1.33V0Z" transform="translate(3.896 127.893)" fill="#f6d738"/><rect width="44" height="8" transform="translate(2.896 174.893)" fill="#fff" opacity="0.2"/><rect width="2" height="8" transform="translate(-0.104 174.893)" fill="#fff" opacity="0.2"/><path d="M4.808,0V-4.228H4.04L2.692-1.017h-.05L1.3-4.228H.53V0H1.14V-3.053h.041L2.42-.123h.5l1.239-2.93H4.2V0ZM7.67-4.33A1.955,1.955,0,0,0,5.7-2.115,1.952,1.952,0,0,0,7.67.1,1.95,1.95,0,0,0,9.639-2.115,1.949,1.949,0,0,0,7.67-4.33Zm0,.612c.8,0,1.3.621,1.3,1.6S8.473-.51,7.67-.51s-1.3-.63-1.3-1.605S6.873-3.718,7.67-3.718ZM11.165,0V-3h.047l2.171,3h.592V-4.228h-.639v3h-.047l-2.171-3h-.592V0Zm5.672-4.33a1.955,1.955,0,0,0-1.975,2.215A1.952,1.952,0,0,0,16.837.1a1.95,1.95,0,0,0,1.969-2.218A1.949,1.949,0,0,0,16.837-4.33Zm0,.612c.8,0,1.3.621,1.3,1.6s-.5,1.605-1.3,1.605-1.3-.63-1.3-1.605S16.04-3.718,16.837-3.718Zm4.3,2.581C21.182-.381,21.812.1,22.749.1c1,0,1.629-.507,1.629-1.315,0-.636-.357-.987-1.225-1.189l-.466-.114c-.551-.129-.773-.3-.773-.6,0-.381.346-.63.864-.63a.807.807,0,0,1,.894.633h.639A1.379,1.379,0,0,0,22.787-4.33c-.923,0-1.538.5-1.538,1.254,0,.621.349.99,1.113,1.169l.545.132c.56.132.806.325.806.647,0,.375-.387.647-.914.647-.565,0-.958-.255-1.014-.656ZM26.968,0V-3.63h1.327v-.6H24.981v.6h1.33V0Z" transform="translate(3.896 180.893)" fill="#dbd7d7"/><rect width="44" height="8" transform="translate(2.896 227.893)" fill="#fff" opacity="0.2"/><rect width="2" height="8" transform="translate(-0.104 227.893)" fill="#fff" opacity="0.2"/><path d="M4.808,0V-4.228H4.04L2.692-1.017h-.05L1.3-4.228H.53V0H1.14V-3.053h.041L2.42-.123h.5l1.239-2.93H4.2V0ZM7.67-4.33A1.955,1.955,0,0,0,5.7-2.115,1.952,1.952,0,0,0,7.67.1,1.95,1.95,0,0,0,9.639-2.115,1.949,1.949,0,0,0,7.67-4.33Zm0,.612c.8,0,1.3.621,1.3,1.6S8.473-.51,7.67-.51s-1.3-.63-1.3-1.605S6.873-3.718,7.67-3.718ZM11.165,0V-3h.047l2.171,3h.592V-4.228h-.639v3h-.047l-2.171-3h-.592V0Zm5.672-4.33a1.955,1.955,0,0,0-1.975,2.215A1.952,1.952,0,0,0,16.837.1a1.95,1.95,0,0,0,1.969-2.218A1.949,1.949,0,0,0,16.837-4.33Zm0,.612c.8,0,1.3.621,1.3,1.6s-.5,1.605-1.3,1.605-1.3-.63-1.3-1.605S16.04-3.718,16.837-3.718Zm4.3,2.581C21.182-.381,21.812.1,22.749.1c1,0,1.629-.507,1.629-1.315,0-.636-.357-.987-1.225-1.189l-.466-.114c-.551-.129-.773-.3-.773-.6,0-.381.346-.63.864-.63a.807.807,0,0,1,.894.633h.639A1.379,1.379,0,0,0,22.787-4.33c-.923,0-1.538.5-1.538,1.254,0,.621.349.99,1.113,1.169l.545.132c.56.132.806.325.806.647,0,.375-.387.647-.914.647-.565,0-.958-.255-1.014-.656ZM26.968,0V-3.63h1.327v-.6H24.981v.6h1.33V0Z" transform="translate(3.896 233.893)" fill="#dbd7d7"/><rect width="44" height="8" transform="translate(2.896 280.893)" fill="#fff" opacity="0.2"/><rect width="2" height="8" transform="translate(-0.104 280.893)" fill="#fff" opacity="0.2"/><path d="M4.808,0V-4.228H4.04L2.692-1.017h-.05L1.3-4.228H.53V0H1.14V-3.053h.041L2.42-.123h.5l1.239-2.93H4.2V0ZM7.67-4.33A1.955,1.955,0,0,0,5.7-2.115,1.952,1.952,0,0,0,7.67.1,1.95,1.95,0,0,0,9.639-2.115,1.949,1.949,0,0,0,7.67-4.33Zm0,.612c.8,0,1.3.621,1.3,1.6S8.473-.51,7.67-.51s-1.3-.63-1.3-1.605S6.873-3.718,7.67-3.718ZM11.165,0V-3h.047l2.171,3h.592V-4.228h-.639v3h-.047l-2.171-3h-.592V0Zm5.672-4.33a1.955,1.955,0,0,0-1.975,2.215A1.952,1.952,0,0,0,16.837.1a1.95,1.95,0,0,0,1.969-2.218A1.949,1.949,0,0,0,16.837-4.33Zm0,.612c.8,0,1.3.621,1.3,1.6s-.5,1.605-1.3,1.605-1.3-.63-1.3-1.605S16.04-3.718,16.837-3.718Zm4.3,2.581C21.182-.381,21.812.1,22.749.1c1,0,1.629-.507,1.629-1.315,0-.636-.357-.987-1.225-1.189l-.466-.114c-.551-.129-.773-.3-.773-.6,0-.381.346-.63.864-.63a.807.807,0,0,1,.894.633h.639A1.379,1.379,0,0,0,22.787-4.33c-.923,0-1.538.5-1.538,1.254,0,.621.349.99,1.113,1.169l.545.132c.56.132.806.325.806.647,0,.375-.387.647-.914.647-.565,0-.958-.255-1.014-.656ZM26.968,0V-3.63h1.327v-.6H24.981v.6h1.33V0Z" transform="translate(3.896 286.893)" fill="#dbd7d7"/><rect width="44" height="8" transform="translate(2.896 24.893)" fill="#fff" opacity="0.2"/><rect width="2" height="8" transform="translate(-0.104 24.893)" fill="#fff" opacity="0.2"/><path d="M4.808,0V-4.228H4.04L2.692-1.017h-.05L1.3-4.228H.53V0H1.14V-3.053h.041L2.42-.123h.5l1.239-2.93H4.2V0ZM7.67-4.33A1.955,1.955,0,0,0,5.7-2.115,1.952,1.952,0,0,0,7.67.1,1.95,1.95,0,0,0,9.639-2.115,1.949,1.949,0,0,0,7.67-4.33Zm0,.612c.8,0,1.3.621,1.3,1.6S8.473-.51,7.67-.51s-1.3-.63-1.3-1.605S6.873-3.718,7.67-3.718ZM11.165,0V-3h.047l2.171,3h.592V-4.228h-.639v3h-.047l-2.171-3h-.592V0Zm5.672-4.33a1.955,1.955,0,0,0-1.975,2.215A1.952,1.952,0,0,0,16.837.1a1.95,1.95,0,0,0,1.969-2.218A1.949,1.949,0,0,0,16.837-4.33Zm0,.612c.8,0,1.3.621,1.3,1.6s-.5,1.605-1.3,1.605-1.3-.63-1.3-1.605S16.04-3.718,16.837-3.718ZM21.99,0V-1.752h1.816v-.58H21.99v-1.3h1.983v-.6h-2.64V0Zm2.833-4.228V0h.656V-1.424h.979a1.344,1.344,0,0,0,1.415-1.395,1.334,1.334,0,0,0-1.395-1.409Zm.656.58h.826c.577,0,.9.293.9.829s-.331.817-.9.817h-.826Z" transform="translate(3.896 30.893)" fill="#dbd7d7"/><rect width="44" height="8" transform="translate(2.896 77.893)" fill="#fff" opacity="0.2"/><rect width="2" height="8" transform="translate(-0.104 77.893)" fill="#fff" opacity="0.2"/><path d="M4.808,0V-4.228H4.04L2.692-1.017h-.05L1.3-4.228H.53V0H1.14V-3.053h.041L2.42-.123h.5l1.239-2.93H4.2V0ZM7.67-4.33A1.955,1.955,0,0,0,5.7-2.115,1.952,1.952,0,0,0,7.67.1,1.95,1.95,0,0,0,9.639-2.115,1.949,1.949,0,0,0,7.67-4.33Zm0,.612c.8,0,1.3.621,1.3,1.6S8.473-.51,7.67-.51s-1.3-.63-1.3-1.605S6.873-3.718,7.67-3.718ZM11.165,0V-3h.047l2.171,3h.592V-4.228h-.639v3h-.047l-2.171-3h-.592V0Zm5.672-4.33a1.955,1.955,0,0,0-1.975,2.215A1.952,1.952,0,0,0,16.837.1a1.95,1.95,0,0,0,1.969-2.218A1.949,1.949,0,0,0,16.837-4.33Zm0,.612c.8,0,1.3.621,1.3,1.6s-.5,1.605-1.3,1.605-1.3-.63-1.3-1.605S16.04-3.718,16.837-3.718ZM21.99,0V-1.752h1.816v-.58H21.99v-1.3h1.983v-.6h-2.64V0Zm2.833-4.228V0h.656V-1.424h.979a1.344,1.344,0,0,0,1.415-1.395,1.334,1.334,0,0,0-1.395-1.409Zm.656.58h.826c.577,0,.9.293.9.829s-.331.817-.9.817h-.826Z" transform="translate(3.896 83.893)" fill="#dbd7d7"/><rect width="44" height="8" transform="translate(2.896 130.893)" fill="#fff" opacity="0.2"/><rect width="2" height="8" transform="translate(-0.104 130.893)" fill="#fff" opacity="0.2"/><path d="M4.808,0V-4.228H4.04L2.692-1.017h-.05L1.3-4.228H.53V0H1.14V-3.053h.041L2.42-.123h.5l1.239-2.93H4.2V0ZM7.67-4.33A1.955,1.955,0,0,0,5.7-2.115,1.952,1.952,0,0,0,7.67.1,1.95,1.95,0,0,0,9.639-2.115,1.949,1.949,0,0,0,7.67-4.33Zm0,.612c.8,0,1.3.621,1.3,1.6S8.473-.51,7.67-.51s-1.3-.63-1.3-1.605S6.873-3.718,7.67-3.718ZM11.165,0V-3h.047l2.171,3h.592V-4.228h-.639v3h-.047l-2.171-3h-.592V0Zm5.672-4.33a1.955,1.955,0,0,0-1.975,2.215A1.952,1.952,0,0,0,16.837.1a1.95,1.95,0,0,0,1.969-2.218A1.949,1.949,0,0,0,16.837-4.33Zm0,.612c.8,0,1.3.621,1.3,1.6s-.5,1.605-1.3,1.605-1.3-.63-1.3-1.605S16.04-3.718,16.837-3.718ZM21.99,0V-1.752h1.816v-.58H21.99v-1.3h1.983v-.6h-2.64V0Zm2.833-4.228V0h.656V-1.424h.979a1.344,1.344,0,0,0,1.415-1.395,1.334,1.334,0,0,0-1.395-1.409Zm.656.58h.826c.577,0,.9.293.9.829s-.331.817-.9.817h-.826Z" transform="translate(3.896 136.893)" fill="#dbd7d7"/><rect width="44" height="8" transform="translate(2.896 183.893)" fill="#c89e83" opacity="0.5"/><rect width="2" height="8" transform="translate(-0.104 183.893)" fill="#f6d738"/><path d="M4.808,0V-4.228H4.04L2.692-1.017h-.05L1.3-4.228H.53V0H1.14V-3.053h.041L2.42-.123h.5l1.239-2.93H4.2V0ZM7.67-4.33A1.955,1.955,0,0,0,5.7-2.115,1.952,1.952,0,0,0,7.67.1,1.95,1.95,0,0,0,9.639-2.115,1.949,1.949,0,0,0,7.67-4.33Zm0,.612c.8,0,1.3.621,1.3,1.6S8.473-.51,7.67-.51s-1.3-.63-1.3-1.605S6.873-3.718,7.67-3.718ZM11.165,0V-3h.047l2.171,3h.592V-4.228h-.639v3h-.047l-2.171-3h-.592V0Zm5.672-4.33a1.955,1.955,0,0,0-1.975,2.215A1.952,1.952,0,0,0,16.837.1a1.95,1.95,0,0,0,1.969-2.218A1.949,1.949,0,0,0,16.837-4.33Zm0,.612c.8,0,1.3.621,1.3,1.6s-.5,1.605-1.3,1.605-1.3-.63-1.3-1.605S16.04-3.718,16.837-3.718ZM21.99,0V-1.752h1.816v-.58H21.99v-1.3h1.983v-.6h-2.64V0Zm2.833-4.228V0h.656V-1.424h.979a1.344,1.344,0,0,0,1.415-1.395,1.334,1.334,0,0,0-1.395-1.409Zm.656.58h.826c.577,0,.9.293.9.829s-.331.817-.9.817h-.826Z" transform="translate(3.896 189.893)" fill="#f6d738"/><rect width="44" height="8" transform="translate(2.896 236.893)" fill="#fff" opacity="0.2"/><rect width="2" height="8" transform="translate(-0.104 236.893)" fill="#fff" opacity="0.2"/><path d="M4.808,0V-4.228H4.04L2.692-1.017h-.05L1.3-4.228H.53V0H1.14V-3.053h.041L2.42-.123h.5l1.239-2.93H4.2V0ZM7.67-4.33A1.955,1.955,0,0,0,5.7-2.115,1.952,1.952,0,0,0,7.67.1,1.95,1.95,0,0,0,9.639-2.115,1.949,1.949,0,0,0,7.67-4.33Zm0,.612c.8,0,1.3.621,1.3,1.6S8.473-.51,7.67-.51s-1.3-.63-1.3-1.605S6.873-3.718,7.67-3.718ZM11.165,0V-3h.047l2.171,3h.592V-4.228h-.639v3h-.047l-2.171-3h-.592V0Zm5.672-4.33a1.955,1.955,0,0,0-1.975,2.215A1.952,1.952,0,0,0,16.837.1a1.95,1.95,0,0,0,1.969-2.218A1.949,1.949,0,0,0,16.837-4.33Zm0,.612c.8,0,1.3.621,1.3,1.6s-.5,1.605-1.3,1.605-1.3-.63-1.3-1.605S16.04-3.718,16.837-3.718ZM21.99,0V-1.752h1.816v-.58H21.99v-1.3h1.983v-.6h-2.64V0Zm2.833-4.228V0h.656V-1.424h.979a1.344,1.344,0,0,0,1.415-1.395,1.334,1.334,0,0,0-1.395-1.409Zm.656.58h.826c.577,0,.9.293.9.829s-.331.817-.9.817h-.826Z" transform="translate(3.896 242.893)" fill="#dbd7d7"/><rect width="44" height="8" transform="translate(2.896 289.893)" fill="#fff" opacity="0.2"/><rect width="2" height="8" transform="translate(-0.104 289.893)" fill="#fff" opacity="0.2"/><path d="M4.808,0V-4.228H4.04L2.692-1.017h-.05L1.3-4.228H.53V0H1.14V-3.053h.041L2.42-.123h.5l1.239-2.93H4.2V0ZM7.67-4.33A1.955,1.955,0,0,0,5.7-2.115,1.952,1.952,0,0,0,7.67.1,1.95,1.95,0,0,0,9.639-2.115,1.949,1.949,0,0,0,7.67-4.33Zm0,.612c.8,0,1.3.621,1.3,1.6S8.473-.51,7.67-.51s-1.3-.63-1.3-1.605S6.873-3.718,7.67-3.718ZM11.165,0V-3h.047l2.171,3h.592V-4.228h-.639v3h-.047l-2.171-3h-.592V0Zm5.672-4.33a1.955,1.955,0,0,0-1.975,2.215A1.952,1.952,0,0,0,16.837.1a1.95,1.95,0,0,0,1.969-2.218A1.949,1.949,0,0,0,16.837-4.33Zm0,.612c.8,0,1.3.621,1.3,1.6s-.5,1.605-1.3,1.605-1.3-.63-1.3-1.605S16.04-3.718,16.837-3.718ZM21.99,0V-1.752h1.816v-.58H21.99v-1.3h1.983v-.6h-2.64V0Zm2.833-4.228V0h.656V-1.424h.979a1.344,1.344,0,0,0,1.415-1.395,1.334,1.334,0,0,0-1.395-1.409Zm.656.58h.826c.577,0,.9.293.9.829s-.331.817-.9.817h-.826Z" transform="translate(3.896 295.893)" fill="#dbd7d7"/><rect width="44" height="8" transform="translate(2.896 33.893)" fill="#fff" opacity="0.2"/><rect width="2" height="8" transform="translate(-0.104 33.893)" fill="#fff" opacity="0.2"/><path d="M4.808,0V-4.228H4.04L2.692-1.017h-.05L1.3-4.228H.53V0H1.14V-3.053h.041L2.42-.123h.5l1.239-2.93H4.2V0ZM7.67-4.33A1.955,1.955,0,0,0,5.7-2.115,1.952,1.952,0,0,0,7.67.1,1.95,1.95,0,0,0,9.639-2.115,1.949,1.949,0,0,0,7.67-4.33Zm0,.612c.8,0,1.3.621,1.3,1.6S8.473-.51,7.67-.51s-1.3-.63-1.3-1.605S6.873-3.718,7.67-3.718ZM11.165,0V-3h.047l2.171,3h.592V-4.228h-.639v3h-.047l-2.171-3h-.592V0Zm5.672-4.33a1.955,1.955,0,0,0-1.975,2.215A1.952,1.952,0,0,0,16.837.1a1.95,1.95,0,0,0,1.969-2.218A1.949,1.949,0,0,0,16.837-4.33Zm0,.612c.8,0,1.3.621,1.3,1.6s-.5,1.605-1.3,1.605-1.3-.63-1.3-1.605S16.04-3.718,16.837-3.718Zm4.3,2.581C21.182-.381,21.812.1,22.749.1c1,0,1.629-.507,1.629-1.315,0-.636-.357-.987-1.225-1.189l-.466-.114c-.551-.129-.773-.3-.773-.6,0-.381.346-.63.864-.63a.807.807,0,0,1,.894.633h.639A1.379,1.379,0,0,0,22.787-4.33c-.923,0-1.538.5-1.538,1.254,0,.621.349.99,1.113,1.169l.545.132c.56.132.806.325.806.647,0,.375-.387.647-.914.647-.565,0-.958-.255-1.014-.656ZM26.968,0V-3.63h1.327v-.6H24.981v.6h1.33V0Zm3.466-1.418h1.251v-.574H30.434V-3.231h-.548v1.239H28.638v.574h1.248V-.176h.548ZM33.337,0V-1.752h1.816v-.58H33.337v-1.3H35.32v-.6h-2.64V0ZM36.17-4.228V0h.656V-1.424H37.8A1.344,1.344,0,0,0,39.22-2.818a1.334,1.334,0,0,0-1.395-1.409Zm.656.58h.826c.577,0,.9.293.9.829s-.331.817-.9.817h-.826Z" transform="translate(3.896 39.893)" fill="#dbd7d7"/><rect width="44" height="8" transform="translate(2.896 86.893)" fill="#fff" opacity="0.2"/><rect width="2" height="8" transform="translate(-0.104 86.893)" fill="#fff" opacity="0.2"/><path d="M4.808,0V-4.228H4.04L2.692-1.017h-.05L1.3-4.228H.53V0H1.14V-3.053h.041L2.42-.123h.5l1.239-2.93H4.2V0ZM7.67-4.33A1.955,1.955,0,0,0,5.7-2.115,1.952,1.952,0,0,0,7.67.1,1.95,1.95,0,0,0,9.639-2.115,1.949,1.949,0,0,0,7.67-4.33Zm0,.612c.8,0,1.3.621,1.3,1.6S8.473-.51,7.67-.51s-1.3-.63-1.3-1.605S6.873-3.718,7.67-3.718ZM11.165,0V-3h.047l2.171,3h.592V-4.228h-.639v3h-.047l-2.171-3h-.592V0Zm5.672-4.33a1.955,1.955,0,0,0-1.975,2.215A1.952,1.952,0,0,0,16.837.1a1.95,1.95,0,0,0,1.969-2.218A1.949,1.949,0,0,0,16.837-4.33Zm0,.612c.8,0,1.3.621,1.3,1.6s-.5,1.605-1.3,1.605-1.3-.63-1.3-1.605S16.04-3.718,16.837-3.718Zm4.3,2.581C21.182-.381,21.812.1,22.749.1c1,0,1.629-.507,1.629-1.315,0-.636-.357-.987-1.225-1.189l-.466-.114c-.551-.129-.773-.3-.773-.6,0-.381.346-.63.864-.63a.807.807,0,0,1,.894.633h.639A1.379,1.379,0,0,0,22.787-4.33c-.923,0-1.538.5-1.538,1.254,0,.621.349.99,1.113,1.169l.545.132c.56.132.806.325.806.647,0,.375-.387.647-.914.647-.565,0-.958-.255-1.014-.656ZM26.968,0V-3.63h1.327v-.6H24.981v.6h1.33V0Zm3.466-1.418h1.251v-.574H30.434V-3.231h-.548v1.239H28.638v.574h1.248V-.176h.548ZM33.337,0V-1.752h1.816v-.58H33.337v-1.3H35.32v-.6h-2.64V0ZM36.17-4.228V0h.656V-1.424H37.8A1.344,1.344,0,0,0,39.22-2.818a1.334,1.334,0,0,0-1.395-1.409Zm.656.58h.826c.577,0,.9.293.9.829s-.331.817-.9.817h-.826Z" transform="translate(3.896 92.893)" fill="#dbd7d7"/><rect width="44" height="8" transform="translate(2.896 139.893)" fill="#fff" opacity="0.2"/><rect width="2" height="8" transform="translate(-0.104 139.893)" fill="#fff" opacity="0.2"/><path d="M4.808,0V-4.228H4.04L2.692-1.017h-.05L1.3-4.228H.53V0H1.14V-3.053h.041L2.42-.123h.5l1.239-2.93H4.2V0ZM7.67-4.33A1.955,1.955,0,0,0,5.7-2.115,1.952,1.952,0,0,0,7.67.1,1.95,1.95,0,0,0,9.639-2.115,1.949,1.949,0,0,0,7.67-4.33Zm0,.612c.8,0,1.3.621,1.3,1.6S8.473-.51,7.67-.51s-1.3-.63-1.3-1.605S6.873-3.718,7.67-3.718ZM11.165,0V-3h.047l2.171,3h.592V-4.228h-.639v3h-.047l-2.171-3h-.592V0Zm5.672-4.33a1.955,1.955,0,0,0-1.975,2.215A1.952,1.952,0,0,0,16.837.1a1.95,1.95,0,0,0,1.969-2.218A1.949,1.949,0,0,0,16.837-4.33Zm0,.612c.8,0,1.3.621,1.3,1.6s-.5,1.605-1.3,1.605-1.3-.63-1.3-1.605S16.04-3.718,16.837-3.718Zm4.3,2.581C21.182-.381,21.812.1,22.749.1c1,0,1.629-.507,1.629-1.315,0-.636-.357-.987-1.225-1.189l-.466-.114c-.551-.129-.773-.3-.773-.6,0-.381.346-.63.864-.63a.807.807,0,0,1,.894.633h.639A1.379,1.379,0,0,0,22.787-4.33c-.923,0-1.538.5-1.538,1.254,0,.621.349.99,1.113,1.169l.545.132c.56.132.806.325.806.647,0,.375-.387.647-.914.647-.565,0-.958-.255-1.014-.656ZM26.968,0V-3.63h1.327v-.6H24.981v.6h1.33V0Zm3.466-1.418h1.251v-.574H30.434V-3.231h-.548v1.239H28.638v.574h1.248V-.176h.548ZM33.337,0V-1.752h1.816v-.58H33.337v-1.3H35.32v-.6h-2.64V0ZM36.17-4.228V0h.656V-1.424H37.8A1.344,1.344,0,0,0,39.22-2.818a1.334,1.334,0,0,0-1.395-1.409Zm.656.58h.826c.577,0,.9.293.9.829s-.331.817-.9.817h-.826Z" transform="translate(3.896 145.893)" fill="#dbd7d7"/><rect width="44" height="8" transform="translate(2.896 192.893)" fill="#fff" opacity="0.2"/><rect width="2" height="8" transform="translate(-0.104 192.893)" fill="#fff" opacity="0.2"/><path d="M4.808,0V-4.228H4.04L2.692-1.017h-.05L1.3-4.228H.53V0H1.14V-3.053h.041L2.42-.123h.5l1.239-2.93H4.2V0ZM7.67-4.33A1.955,1.955,0,0,0,5.7-2.115,1.952,1.952,0,0,0,7.67.1,1.95,1.95,0,0,0,9.639-2.115,1.949,1.949,0,0,0,7.67-4.33Zm0,.612c.8,0,1.3.621,1.3,1.6S8.473-.51,7.67-.51s-1.3-.63-1.3-1.605S6.873-3.718,7.67-3.718ZM11.165,0V-3h.047l2.171,3h.592V-4.228h-.639v3h-.047l-2.171-3h-.592V0Zm5.672-4.33a1.955,1.955,0,0,0-1.975,2.215A1.952,1.952,0,0,0,16.837.1a1.95,1.95,0,0,0,1.969-2.218A1.949,1.949,0,0,0,16.837-4.33Zm0,.612c.8,0,1.3.621,1.3,1.6s-.5,1.605-1.3,1.605-1.3-.63-1.3-1.605S16.04-3.718,16.837-3.718Zm4.3,2.581C21.182-.381,21.812.1,22.749.1c1,0,1.629-.507,1.629-1.315,0-.636-.357-.987-1.225-1.189l-.466-.114c-.551-.129-.773-.3-.773-.6,0-.381.346-.63.864-.63a.807.807,0,0,1,.894.633h.639A1.379,1.379,0,0,0,22.787-4.33c-.923,0-1.538.5-1.538,1.254,0,.621.349.99,1.113,1.169l.545.132c.56.132.806.325.806.647,0,.375-.387.647-.914.647-.565,0-.958-.255-1.014-.656ZM26.968,0V-3.63h1.327v-.6H24.981v.6h1.33V0Zm3.466-1.418h1.251v-.574H30.434V-3.231h-.548v1.239H28.638v.574h1.248V-.176h.548ZM33.337,0V-1.752h1.816v-.58H33.337v-1.3H35.32v-.6h-2.64V0ZM36.17-4.228V0h.656V-1.424H37.8A1.344,1.344,0,0,0,39.22-2.818a1.334,1.334,0,0,0-1.395-1.409Zm.656.58h.826c.577,0,.9.293.9.829s-.331.817-.9.817h-.826Z" transform="translate(3.896 198.893)" fill="#dbd7d7"/><rect width="44" height="8" transform="translate(2.896 245.893)" fill="#c89e83" opacity="0.5"/><rect width="2" height="8" transform="translate(-0.104 245.893)" fill="#f6d738"/><path d="M4.808,0V-4.228H4.04L2.692-1.017h-.05L1.3-4.228H.53V0H1.14V-3.053h.041L2.42-.123h.5l1.239-2.93H4.2V0ZM7.67-4.33A1.955,1.955,0,0,0,5.7-2.115,1.952,1.952,0,0,0,7.67.1,1.95,1.95,0,0,0,9.639-2.115,1.949,1.949,0,0,0,7.67-4.33Zm0,.612c.8,0,1.3.621,1.3,1.6S8.473-.51,7.67-.51s-1.3-.63-1.3-1.605S6.873-3.718,7.67-3.718ZM11.165,0V-3h.047l2.171,3h.592V-4.228h-.639v3h-.047l-2.171-3h-.592V0Zm5.672-4.33a1.955,1.955,0,0,0-1.975,2.215A1.952,1.952,0,0,0,16.837.1a1.95,1.95,0,0,0,1.969-2.218A1.949,1.949,0,0,0,16.837-4.33Zm0,.612c.8,0,1.3.621,1.3,1.6s-.5,1.605-1.3,1.605-1.3-.63-1.3-1.605S16.04-3.718,16.837-3.718Zm4.3,2.581C21.182-.381,21.812.1,22.749.1c1,0,1.629-.507,1.629-1.315,0-.636-.357-.987-1.225-1.189l-.466-.114c-.551-.129-.773-.3-.773-.6,0-.381.346-.63.864-.63a.807.807,0,0,1,.894.633h.639A1.379,1.379,0,0,0,22.787-4.33c-.923,0-1.538.5-1.538,1.254,0,.621.349.99,1.113,1.169l.545.132c.56.132.806.325.806.647,0,.375-.387.647-.914.647-.565,0-.958-.255-1.014-.656ZM26.968,0V-3.63h1.327v-.6H24.981v.6h1.33V0Zm3.466-1.418h1.251v-.574H30.434V-3.231h-.548v1.239H28.638v.574h1.248V-.176h.548ZM33.337,0V-1.752h1.816v-.58H33.337v-1.3H35.32v-.6h-2.64V0ZM36.17-4.228V0h.656V-1.424H37.8A1.344,1.344,0,0,0,39.22-2.818a1.334,1.334,0,0,0-1.395-1.409Zm.656.58h.826c.577,0,.9.293.9.829s-.331.817-.9.817h-.826Z" transform="translate(3.896 251.893)" fill="#f6d738"/><rect width="44" height="8" transform="translate(2.896 298.893)" fill="#fff" opacity="0.2"/><rect width="2" height="8" transform="translate(-0.104 298.893)" fill="#fff" opacity="0.2"/><path d="M4.808,0V-4.228H4.04L2.692-1.017h-.05L1.3-4.228H.53V0H1.14V-3.053h.041L2.42-.123h.5l1.239-2.93H4.2V0ZM7.67-4.33A1.955,1.955,0,0,0,5.7-2.115,1.952,1.952,0,0,0,7.67.1,1.95,1.95,0,0,0,9.639-2.115,1.949,1.949,0,0,0,7.67-4.33Zm0,.612c.8,0,1.3.621,1.3,1.6S8.473-.51,7.67-.51s-1.3-.63-1.3-1.605S6.873-3.718,7.67-3.718ZM11.165,0V-3h.047l2.171,3h.592V-4.228h-.639v3h-.047l-2.171-3h-.592V0Zm5.672-4.33a1.955,1.955,0,0,0-1.975,2.215A1.952,1.952,0,0,0,16.837.1a1.95,1.95,0,0,0,1.969-2.218A1.949,1.949,0,0,0,16.837-4.33Zm0,.612c.8,0,1.3.621,1.3,1.6s-.5,1.605-1.3,1.605-1.3-.63-1.3-1.605S16.04-3.718,16.837-3.718Zm4.3,2.581C21.182-.381,21.812.1,22.749.1c1,0,1.629-.507,1.629-1.315,0-.636-.357-.987-1.225-1.189l-.466-.114c-.551-.129-.773-.3-.773-.6,0-.381.346-.63.864-.63a.807.807,0,0,1,.894.633h.639A1.379,1.379,0,0,0,22.787-4.33c-.923,0-1.538.5-1.538,1.254,0,.621.349.99,1.113,1.169l.545.132c.56.132.806.325.806.647,0,.375-.387.647-.914.647-.565,0-.958-.255-1.014-.656ZM26.968,0V-3.63h1.327v-.6H24.981v.6h1.33V0Zm3.466-1.418h1.251v-.574H30.434V-3.231h-.548v1.239H28.638v.574h1.248V-.176h.548ZM33.337,0V-1.752h1.816v-.58H33.337v-1.3H35.32v-.6h-2.64V0ZM36.17-4.228V0h.656V-1.424H37.8A1.344,1.344,0,0,0,39.22-2.818a1.334,1.334,0,0,0-1.395-1.409Zm.656.58h.826c.577,0,.9.293.9.829s-.331.817-.9.817h-.826Z" transform="translate(3.896 304.893)" fill="#dbd7d7"/><rect width="44" height="8" transform="translate(2.896 42.893)" fill="#fff" opacity="0.2"/><rect width="2" height="8" transform="translate(-0.104 42.893)" fill="#fff" opacity="0.2"/><path d="M3.167-.6H1.187V-4.228H.53V0H3.167ZM6.732,0h.7L5.9-4.228H5.2L3.671,0h.674l.39-1.122H6.346ZM5.517-3.46h.05l.612,1.787H4.9ZM9.41,0V-3.63h1.327v-.6H7.424v.6h1.33V0Zm3.7.1a1.649,1.649,0,0,0,1.755-1.392h-.653a1.06,1.06,0,0,1-1.1.779c-.762,0-1.236-.618-1.236-1.6s.475-1.605,1.233-1.605a1.087,1.087,0,0,1,1.1.853h.653A1.688,1.688,0,0,0,13.107-4.33c-1.175,0-1.9.847-1.9,2.218S11.936.1,13.11.1Zm6.1-.1V-4.228h-.653v1.775H16.383V-4.228h-.656V0h.656V-1.854h2.171V0Z" transform="translate(3.896 48.893)" fill="#dbd7d7"/><rect width="44" height="8" transform="translate(2.896 95.893)" fill="#fff" opacity="0.2"/><rect width="2" height="8" transform="translate(-0.104 95.893)" fill="#fff" opacity="0.2"/><path d="M3.167-.6H1.187V-4.228H.53V0H3.167ZM6.732,0h.7L5.9-4.228H5.2L3.671,0h.674l.39-1.122H6.346ZM5.517-3.46h.05l.612,1.787H4.9ZM9.41,0V-3.63h1.327v-.6H7.424v.6h1.33V0Zm3.7.1a1.649,1.649,0,0,0,1.755-1.392h-.653a1.06,1.06,0,0,1-1.1.779c-.762,0-1.236-.618-1.236-1.6s.475-1.605,1.233-1.605a1.087,1.087,0,0,1,1.1.853h.653A1.688,1.688,0,0,0,13.107-4.33c-1.175,0-1.9.847-1.9,2.218S11.936.1,13.11.1Zm6.1-.1V-4.228h-.653v1.775H16.383V-4.228h-.656V0h.656V-1.854h2.171V0Z" transform="translate(3.896 101.893)" fill="#dbd7d7"/><rect width="44" height="8" transform="translate(2.896 148.893)" fill="#fff" opacity="0.2"/><rect width="2" height="8" transform="translate(-0.104 148.893)" fill="#fff" opacity="0.2"/><path d="M3.167-.6H1.187V-4.228H.53V0H3.167ZM6.732,0h.7L5.9-4.228H5.2L3.671,0h.674l.39-1.122H6.346ZM5.517-3.46h.05l.612,1.787H4.9ZM9.41,0V-3.63h1.327v-.6H7.424v.6h1.33V0Zm3.7.1a1.649,1.649,0,0,0,1.755-1.392h-.653a1.06,1.06,0,0,1-1.1.779c-.762,0-1.236-.618-1.236-1.6s.475-1.605,1.233-1.605a1.087,1.087,0,0,1,1.1.853h.653A1.688,1.688,0,0,0,13.107-4.33c-1.175,0-1.9.847-1.9,2.218S11.936.1,13.11.1Zm6.1-.1V-4.228h-.653v1.775H16.383V-4.228h-.656V0h.656V-1.854h2.171V0Z" transform="translate(3.896 154.893)" fill="#dbd7d7"/><rect width="44" height="8" transform="translate(2.896 201.893)" fill="#fff" opacity="0.2"/><rect width="2" height="8" transform="translate(-0.104 201.893)" fill="#fff" opacity="0.2"/><path d="M3.167-.6H1.187V-4.228H.53V0H3.167ZM6.732,0h.7L5.9-4.228H5.2L3.671,0h.674l.39-1.122H6.346ZM5.517-3.46h.05l.612,1.787H4.9ZM9.41,0V-3.63h1.327v-.6H7.424v.6h1.33V0Zm3.7.1a1.649,1.649,0,0,0,1.755-1.392h-.653a1.06,1.06,0,0,1-1.1.779c-.762,0-1.236-.618-1.236-1.6s.475-1.605,1.233-1.605a1.087,1.087,0,0,1,1.1.853h.653A1.688,1.688,0,0,0,13.107-4.33c-1.175,0-1.9.847-1.9,2.218S11.936.1,13.11.1Zm6.1-.1V-4.228h-.653v1.775H16.383V-4.228h-.656V0h.656V-1.854h2.171V0Z" transform="translate(3.896 207.893)" fill="#dbd7d7"/><rect width="44" height="8" transform="translate(2.896 254.893)" fill="#fff" opacity="0.2"/><rect width="2" height="8" transform="translate(-0.104 254.893)" fill="#fff" opacity="0.2"/><path d="M3.167-.6H1.187V-4.228H.53V0H3.167ZM6.732,0h.7L5.9-4.228H5.2L3.671,0h.674l.39-1.122H6.346ZM5.517-3.46h.05l.612,1.787H4.9ZM9.41,0V-3.63h1.327v-.6H7.424v.6h1.33V0Zm3.7.1a1.649,1.649,0,0,0,1.755-1.392h-.653a1.06,1.06,0,0,1-1.1.779c-.762,0-1.236-.618-1.236-1.6s.475-1.605,1.233-1.605a1.087,1.087,0,0,1,1.1.853h.653A1.688,1.688,0,0,0,13.107-4.33c-1.175,0-1.9.847-1.9,2.218S11.936.1,13.11.1Zm6.1-.1V-4.228h-.653v1.775H16.383V-4.228h-.656V0h.656V-1.854h2.171V0Z" transform="translate(3.896 260.893)" fill="#dbd7d7"/><rect width="44" height="8" transform="translate(2.896 307.893)" fill="#c89e83" opacity="0.5"/><rect width="2" height="8" transform="translate(-0.104 307.893)" fill="#f6d738"/><path d="M3.167-.6H1.187V-4.228H.53V0H3.167ZM6.732,0h.7L5.9-4.228H5.2L3.671,0h.674l.39-1.122H6.346ZM5.517-3.46h.05l.612,1.787H4.9ZM9.41,0V-3.63h1.327v-.6H7.424v.6h1.33V0Zm3.7.1a1.649,1.649,0,0,0,1.755-1.392h-.653a1.06,1.06,0,0,1-1.1.779c-.762,0-1.236-.618-1.236-1.6s.475-1.605,1.233-1.605a1.087,1.087,0,0,1,1.1.853h.653A1.688,1.688,0,0,0,13.107-4.33c-1.175,0-1.9.847-1.9,2.218S11.936.1,13.11.1Zm6.1-.1V-4.228h-.653v1.775H16.383V-4.228h-.656V0h.656V-1.854h2.171V0Z" transform="translate(3.896 313.893)" fill="#f6d738"/></g></svg>