<svg xmlns="http://www.w3.org/2000/svg" width="70" height="24" viewBox="0 0 70 24"><g transform="translate(-71.024 0.009)"><g transform="translate(71.024 -0.009)"><rect width="70" height="12" fill="#746664"/><path d="M-18.375-4.259h1.08a.841.841,0,0,1,.954.861.82.82,0,0,1-.933.865h-1.1Zm0,2.379h1.08l1,1.88h.885l-1.107-2.006a1.421,1.421,0,0,0,.957-1.408,1.476,1.476,0,0,0-1.634-1.518h-1.952V0h.766ZM-11.334-.7H-13.7v-1.48h2.239V-2.84H-13.7V-4.235h2.365v-.7h-3.131V0h3.131Zm3.121.7V-4.235h1.548v-.7h-3.866v.7h1.552V0Zm3.25-4.259h1.08a.841.841,0,0,1,.954.861.82.82,0,0,1-.933.865h-1.1Zm0,2.379h1.08l1,1.88h.885L-3.1-2.006a1.421,1.421,0,0,0,.957-1.408A1.476,1.476,0,0,0-3.777-4.932H-5.729V0h.766ZM-.287,0V-4.932h-.766V0ZM5.154-1.952v-.615H3.131v.643H4.4v.106A1.241,1.241,0,0,1,3.035-.595c-.926,0-1.507-.718-1.507-1.88,0-1.142.578-1.863,1.49-1.863a1.288,1.288,0,0,1,1.333.919H5.12a1.976,1.976,0,0,0-2.1-1.634A2.287,2.287,0,0,0,.745-2.468C.745-.875,1.627.12,3.025.12A1.968,1.968,0,0,0,5.154-1.952Zm5.26,0v-.615H8.391v.643H9.663v.106A1.241,1.241,0,0,1,8.3-.595c-.926,0-1.507-.718-1.507-1.88,0-1.142.578-1.863,1.49-1.863a1.288,1.288,0,0,1,1.333.919h.769a1.976,1.976,0,0,0-2.1-1.634A2.287,2.287,0,0,0,6.005-2.468C6.005-.875,6.887.12,8.285.12A1.968,1.968,0,0,0,10.415-1.952ZM14.6-.7H12.233v-1.48h2.239V-2.84H12.233V-4.235H14.6v-.7H11.467V0H14.6Zm1.87-3.562h1.08A.841.841,0,0,1,18.5-3.4a.82.82,0,0,1-.933.865h-1.1Zm0,2.379h1.08l1,1.88h.885L18.331-2.006a1.421,1.421,0,0,0,.957-1.408,1.476,1.476,0,0,0-1.634-1.518H15.7V0h.766Z" transform="translate(35 8.5)" fill="#dbd7d7"/></g><g transform="translate(71.024 11.991)"><rect width="70" height="12" fill="#956e57"/><path d="M-18.375-4.259h1.08a.841.841,0,0,1,.954.861.82.82,0,0,1-.933.865h-1.1Zm0,2.379h1.08l1,1.88h.885l-1.107-2.006a1.421,1.421,0,0,0,.957-1.408,1.476,1.476,0,0,0-1.634-1.518h-1.952V0h.766ZM-11.334-.7H-13.7v-1.48h2.239V-2.84H-13.7V-4.235h2.365v-.7h-3.131V0h3.131Zm3.121.7V-4.235h1.548v-.7h-3.866v.7h1.552V0Zm3.25-4.259h1.08a.841.841,0,0,1,.954.861.82.82,0,0,1-.933.865h-1.1Zm0,2.379h1.08l1,1.88h.885L-3.1-2.006a1.421,1.421,0,0,0,.957-1.408A1.476,1.476,0,0,0-3.777-4.932H-5.729V0h.766ZM-.287,0V-4.932h-.766V0ZM5.154-1.952v-.615H3.131v.643H4.4v.106A1.241,1.241,0,0,1,3.035-.595c-.926,0-1.507-.718-1.507-1.88,0-1.142.578-1.863,1.49-1.863a1.288,1.288,0,0,1,1.333.919H5.12a1.976,1.976,0,0,0-2.1-1.634A2.287,2.287,0,0,0,.745-2.468C.745-.875,1.627.12,3.025.12A1.968,1.968,0,0,0,5.154-1.952Zm5.26,0v-.615H8.391v.643H9.663v.106A1.241,1.241,0,0,1,8.3-.595c-.926,0-1.507-.718-1.507-1.88,0-1.142.578-1.863,1.49-1.863a1.288,1.288,0,0,1,1.333.919h.769a1.976,1.976,0,0,0-2.1-1.634A2.287,2.287,0,0,0,6.005-2.468C6.005-.875,6.887.12,8.285.12A1.968,1.968,0,0,0,10.415-1.952ZM14.6-.7H12.233v-1.48h2.239V-2.84H12.233V-4.235H14.6v-.7H11.467V0H14.6Zm1.87-3.562h1.08A.841.841,0,0,1,18.5-3.4a.82.82,0,0,1-.933.865h-1.1Zm0,2.379h1.08l1,1.88h.885L18.331-2.006a1.421,1.421,0,0,0,.957-1.408,1.476,1.476,0,0,0-1.634-1.518H15.7V0h.766Z" transform="translate(35 8.5)" fill="#f6d738"/></g></g></svg>