<?xml version="1.0" encoding="UTF-8" standalone="no"?>
<svg
   xmlns:dc="http://purl.org/dc/elements/1.1/"
   xmlns:cc="http://creativecommons.org/ns#"
   xmlns:rdf="http://www.w3.org/1999/02/22-rdf-syntax-ns#"
   xmlns:svg="http://www.w3.org/2000/svg"
   xmlns="http://www.w3.org/2000/svg"
   xmlns:sodipodi="http://sodipodi.sourceforge.net/DTD/sodipodi-0.dtd"
   xmlns:inkscape="http://www.inkscape.org/namespaces/inkscape"
   width="36"
   height="13"
   viewBox="0 0 36 13"
   fill="none"
   version="1.1"
   id="svg59"
   sodipodi:docname="bmp00174.svg"
   inkscape:version="1.0.1 (3bc2e813f5, 2020-09-07)">
  <metadata
     id="metadata65">
    <rdf:RDF>
      <cc:Work
         rdf:about="">
        <dc:format>image/svg+xml</dc:format>
        <dc:type
           rdf:resource="http://purl.org/dc/dcmitype/StillImage" />
        <dc:title />
      </cc:Work>
    </rdf:RDF>
  </metadata>
  <defs
     id="defs63" />
  <sodipodi:namedview
     pagecolor="#303030"
     bordercolor="#666666"
     borderopacity="1"
     objecttolerance="10"
     gridtolerance="10"
     guidetolerance="10"
     inkscape:pageopacity="1"
     inkscape:pageshadow="2"
     inkscape:window-width="3754"
     inkscape:window-height="2137"
     id="namedview61"
     showgrid="false"
     inkscape:zoom="24.837209"
     inkscape:cx="13.749532"
     inkscape:cy="7"
     inkscape:window-x="-8"
     inkscape:window-y="-8"
     inkscape:window-maximized="1"
     inkscape:current-layer="svg59"
     inkscape:document-rotation="0" />
  <path
     d="m 0.6,3.4 c 0,-1.10457 0.89543,-2 2,-2 h 31 c 1.1046,0 2,0.89543 2,2 v 7.1 c 0,1.1046 -0.8954,2 -2,2 h -31 c -1.10457,0 -2,-0.8954 -2,-2 z"
     fill="#242424"
     id="path55"
     sodipodi:nodetypes="sssssssss"
     style="fill:#544c4b;fill-opacity:1" />
  <path
     d="m 2.5,1.95 h 31.05 v -1 H 2.5 Z m 32.55,1.5 v 7.05 h 1 V 3.45 Z M 33.55,12 H 2.5 v 1 H 33.55 Z M 1,10.5 V 3.45 H 0 V 10.5 Z M 2.5,12 C 1.67157,12 1,11.3284 1,10.5 H 0 C 0,11.8807 1.11929,13 2.5,13 Z m 32.55,-1.5 c 0,0.8284 -0.6716,1.5 -1.5,1.5 v 1 c 1.3807,0 2.5,-1.1193 2.5,-2.5 z m -1.5,-8.55 c 0.8284,0 1.5,0.67157 1.5,1.5 h 1 c 0,-1.38071 -1.1193,-2.5 -2.5,-2.5 z M 2.5,0.95 C 1.11929,0.95 0,2.06929 0,3.45 H 1 C 1,2.62157 1.67157,1.95 2.5,1.95 Z"
     fill="#000000"
     id="path57"
     sodipodi:nodetypes="cccccccccccccccccccccccccccccccccccccccc"
     style="fill:#221a17;fill-opacity:1" />
</svg>
