<?xml version="1.0" encoding="utf-8"?>
<svg width="49px" height="18px" viewbox="0 0 49 18" version="1.1" xmlns:xlink="http://www.w3.org/1999/xlink" xmlns="http://www.w3.org/2000/svg">
  <defs>
    <linearGradient x1="10.836073" y1="13.985309" x2="11.046721" y2="0.22037914" id="gradient_1">
      <stop offset="0" stop-color="#FFFFFF" stop-opacity="0.19215687" />
      <stop offset="1" stop-color="#000000" stop-opacity="0" />
    </linearGradient>
    <linearGradient x1="0.24374448" y1="-0.025118485" x2="0.24264441" y2="0.9988693" id="gradient_2">
      <stop offset="0" stop-color="#372E2C" />
      <stop offset="0.176" stop-color="#5B4A45" />
      <stop offset="1" stop-color="#5B4A44" />
    </linearGradient>
    <rect width="49" height="18" id="artboard_1" />
    <clipPath id="clip_1">
      <use xlink:href="#artboard_1" clip-rule="evenodd" />
    </clipPath>
  </defs>
  <g id="bmp00119" clip-path="url(#clip_1)">
    <path d="M0 3.61311L0 1.80655C0 1.30768 0.138375 0.88188 0.415123 0.529128C0.691871 0.176376 1.02594 0 1.41731 0L46.3832 0C46.7736 0 47.1085 0.176376 47.3849 0.529128C47.6613 0.88188 47.8 1.30769 47.8 1.80655L47.8 12.7476C47.7352 13.8255 47.2165 14.2337 46.3832 14.5542L1.41731 14.5542C0.354742 14.3586 0.17727 13.5867 0 12.7476L0 3.61311Z" transform="translate(0.72702026 2)" id="path25164" fill="url(#gradient_1)" fill-rule="evenodd" stroke="none" />
    <path d="M0 4.56091L0 2.28046C0 1.65073 0.183969 1.11322 0.551909 0.667931C0.919849 0.222644 1.36399 0 1.88434 0L45.1157 0C45.6356 0 46.0801 0.222644 46.448 0.667931C46.816 1.11322 47 1.65073 47 2.28046L47 11.7195C47 12.3492 46.816 12.8868 46.448 13.3321C46.0801 13.7774 45.6356 14 45.1157 14L1.88434 14C1.36399 14 0.919849 13.7774 0.551909 13.3321C0.183969 12.8868 0 12.3492 0 11.7195L0 4.56091Z" transform="translate(1 2)" id="path25160" fill="url(#gradient_2)" fill-rule="evenodd" stroke="none" />
    <path d="M0 3.32016L0 1.66007C0 1.20166 0.136288 0.810376 0.408864 0.486225C0.68144 0.162075 1.01047 0 1.39594 0L44.5939 0C44.9784 0 45.3083 0.162075 45.5805 0.486225C45.8527 0.810376 45.9893 1.20166 45.9893 1.66007L45.9893 11.3292C45.9893 11.7877 45.8527 12.179 45.5805 12.5031C45.3083 12.8272 44.9784 12.9893 44.5939 12.9893L1.39594 12.9893C1.01047 12.9893 0.68144 12.8272 0.408864 12.5031C0.136288 12.179 1.19209e-07 11.7877 1.19209e-07 11.3292L0 3.32016Z" transform="translate(1.5053406 2.5053253)" id="path25158" fill="none" fill-rule="evenodd" stroke="#0C0706" stroke-width="1.01066" />
    <path d="M2.5 4L0 0L5 4.76837e-07L2.5 4Z" transform="translate(40 7.5)" id="Shape" fill="#DBD7D7" fill-rule="evenodd" stroke="none" />
  </g>
</svg>