<?xml version="1.0" encoding="UTF-8" standalone="no"?>
<svg
   xmlns:dc="http://purl.org/dc/elements/1.1/"
   xmlns:cc="http://creativecommons.org/ns#"
   xmlns:rdf="http://www.w3.org/1999/02/22-rdf-syntax-ns#"
   xmlns:svg="http://www.w3.org/2000/svg"
   xmlns="http://www.w3.org/2000/svg"
   xmlns:xlink="http://www.w3.org/1999/xlink"
   xmlns:sodipodi="http://sodipodi.sourceforge.net/DTD/sodipodi-0.dtd"
   xmlns:inkscape="http://www.inkscape.org/namespaces/inkscape"
   width="102px"
   height="135px"
   viewbox="0 0 102 135"
   version="1.1"
   id="svg7870"
   sodipodi:docname="bmp00136.svg"
   inkscape:version="1.0.1 (3bc2e813f5, 2020-09-07)">
  <metadata
     id="metadata7874">
    <rdf:RDF>
      <cc:Work
         rdf:about="">
        <dc:format>image/svg+xml</dc:format>
        <dc:type
           rdf:resource="http://purl.org/dc/dcmitype/StillImage" />
        <dc:title></dc:title>
      </cc:Work>
    </rdf:RDF>
  </metadata>
  <sodipodi:namedview
     pagecolor="#2c2c2c"
     bordercolor="#666666"
     borderopacity="1"
     objecttolerance="10"
     gridtolerance="10"
     guidetolerance="10"
     inkscape:pageopacity="0"
     inkscape:pageshadow="2"
     inkscape:window-width="3753"
     inkscape:window-height="2137"
     id="namedview7872"
     showgrid="false"
     inkscape:showpageshadow="false"
     inkscape:zoom="7.4666667"
     inkscape:cx="51"
     inkscape:cy="67.5"
     inkscape:window-x="-8"
     inkscape:window-y="-8"
     inkscape:window-maximized="1"
     inkscape:current-layer="svg7870" />
  <defs
     id="defs7678">
    <rect
       width="102"
       height="135"
       id="artboard_1" />
    <clipPath
       id="clip_1">
      <use
         xlink:href="#artboard_1"
         clip-rule="evenodd"
         id="use7675" />
    </clipPath>
  </defs>
  <g
     id="Group"
     transform="translate(1.4100418,4)"
     style="opacity:1;fill:#ffe2c0;fill-opacity:1">
    <path
       d="M 0,0 H 8.99876 V 1 H 0 Z"
       transform="translate(2.5)"
       id="Rectangle"
       fill="#dbd7d7"
       fill-rule="evenodd"
       stroke="none"
       style="fill:#ffe2c0;fill-opacity:1;opacity:0.34" />
    <path
       d="M 0,0.00590897 V 4.93791 H 1.84974 C 2.50813,4.98308 3.1518,4.72899 3.60186,4.24627 4.05193,3.76355 4.26043,3.10363 4.16942,2.44991 4.25127,1.80211 4.03806,1.15178 3.58858,0.678212 3.13911,0.204649 2.50084,-0.0421324 1.84974,0.00590897 Z M 0.881878,0.767914 H 1.73276 c 0.4436,-0.022062 0.87367,0.15618 1.17164,0.485586 0.29797,0.3294 0.43237,0.77518 0.36615,1.21441 0,1.1 -0.55693,1.712 -1.53779,1.712 H 0.881878 Z M 7.9689,4.16592 H 5.70621 V 0.00592041 H 4.82433 V 4.93792 H 7.9689 Z m 2.1897,0.772 v -1.928 L 11.8874,0.00992107 H 10.9165 L 9.74465,2.11492 H 9.68666 L 8.51082,0.00592041 H 7.54396 L 9.27272,3.00592 v 1.932 z"
       transform="translate(1.3338156,7.0621033)"
       id="Shape"
       fill="#dbd7d7"
       fill-rule="evenodd"
       stroke="none"
       style="fill:#ffe2c0;fill-opacity:1" />
    <path
       d="M 0.878879,0.74361 H 1.87874 C 2.11238,0.713963 2.34722,0.788803 2.52064,0.948177 2.69406,1.10755 2.78844,1.33527 2.77862,1.57061 2.79463,1.80417 2.70464,2.03253 2.53359,2.19234 2.36255,2.35217 2.12864,2.42645 1.89674,2.39461 H 0.878879 Z m 0,2.35199 H 1.85474 l 0.96887,1.848 H 3.83147 L 2.75462,2.9576 C 3.33501,2.74158 3.71039,2.17643 3.68449,1.5576 3.70139,1.11761 3.52415,0.692415 3.19975,0.394739 2.87536,0.0970611 2.43657,-0.0430298 1.99972,0.0116005 H 0 V 4.9436 H 0.881878 Z M 6.65408,4.9436 8.35385,0.0115967 H 7.41398 L 6.18415,3.9116 h -0.057 L 4.88632,0.0115967 H 3.91246 L 5.63422,4.9436 Z m 3.29955,0 H 10.8355 V 0.0115967 H 9.95363 L 8.6648,0.911596 V 1.7596 L 9.89163,0.898596 h 0.062 z"
       transform="translate(1.5387869,16.056396)"
       id="path7682"
       fill="#dbd7d7"
       fill-rule="evenodd"
       stroke="none"
       style="fill:#ffe2c0;fill-opacity:1" />
    <path
       d="M 0,0.00226974 V 4.93427 h 0.881878 v -1.617 H 1.95173 C 2.40135,3.34565 2.8421,3.18311 3.16567,2.86959 3.48923,2.55606 3.66562,2.12062 3.6515,1.67027 3.67717,1.22157 3.51056,0.783161 3.19338,0.46479 2.8762,0.146416 2.43846,-0.0217896 1.98972,0.00226974 Z M 0.881878,0.740269 H 1.75676 C 2.01913,0.70092 2.2851,0.783611 2.47892,0.964798 2.67274,1.14598 2.77318,1.4058 2.75162,1.67027 2.76745,1.93296 2.66395,2.18878 2.46991,2.36654 2.27588,2.5443 2.01202,2.62503 1.75176,2.58627 H 0.879878 Z M 8.42684,4.93426 V 0.0022583 H 7.54796 V 2.04326 H 5.14929 V 0.0022583 H 4.26741 V 4.93426 h 0.88188 v -2.129 h 2.39967 v 2.129 z"
       transform="translate(2.8796005,25.065735)"
       id="path7684"
       fill="#dbd7d7"
       fill-rule="evenodd"
       stroke="none"
       style="fill:#ffe2c0;fill-opacity:1" />
    <path
       d="M 0.878879,0.855732 H 1.87874 C 2.11238,0.826084 2.34722,0.900925 2.52064,1.0603 2.69406,1.21968 2.78844,1.44739 2.77862,1.68273 2.79463,1.91629 2.70464,2.14465 2.53359,2.30447 2.36255,2.46429 2.12864,2.53857 1.89674,2.50673 H 0.878879 Z m 0,2.351998 H 1.85674 l 0.96687,1.848 H 3.83247 L 2.75562,3.06973 C 3.33601,2.85371 3.71139,2.28855 3.68549,1.66972 3.70244,1.22954 3.52507,0.804157 3.20043,0.506439 2.8758,0.208725 2.43673,0.0687752 1.99972,0.123726 H 0 V 5.05573 H 0.881878 Z M 6.5321,7.36237e-4 C 5.86213,-0.0161858 5.21811,0.260033 4.76854,0.757126 4.31897,1.25422 4.10858,1.92273 4.19242,2.58774 4.10519,3.25381 4.31426,3.92466 4.76444,4.42321 5.21463,4.92176 5.86069,5.1979 6.5321,5.17874 7.2012,5.19407 7.84359,4.91623 8.29069,4.41813 8.73778,3.92003 8.94493,3.2514 8.85778,2.58774 8.94401,1.92464 8.7364,1.25694 8.28938,0.759689 7.84236,0.26244 7.20051,-0.0147667 6.5321,7.36237e-4 Z m 0,0.783015763 c 0.87488,0 1.4248,0.699998 1.4248,1.799998 0,1.1 -0.54792,1.812 -1.4248,1.812 -0.87688,0 -1.4358,-0.708 -1.4358,-1.808 0,-1.1 0.55592,-1.803998 1.4358,-1.803998 z m 4.9073,4.271998 v -4.17 h 1.5208 V 0.123749 H 9.04075 V 0.88575 h 1.51775 v 4.17 z"
       transform="translate(0.76089287,33.944275)"
       id="path7686"
       fill="#dbd7d7"
       fill-rule="evenodd"
       stroke="none"
       style="fill:#ffe2c0;fill-opacity:1" />
    <path
       d="M 0,0.134464 V 5.06646 H 1.84874 C 2.5073,5.11195 3.15125,4.858 3.60155,4.37524 4.05185,3.89248 4.26048,3.23237 4.16942,2.57846 4.25131,1.93047 4.03797,1.27996 3.58827,0.806351 3.13856,0.332745 2.5,0.0861053 1.84874,0.134464 Z m 0.881878,0.76202 H 1.73276 C 2.17636,0.87442 2.60643,1.05266 2.9044,1.38206 c 0.29797,0.32941 0.43237,0.77518 0.36615,1.21442 0,1.1 -0.55693,1.712 -1.53779,1.712 H 0.881878 Z M 5.82419,5.06646 v -4.932 H 4.82433 v 4.932 z M 6.34712,3.72647 c 0.046,0.896 0.79289,1.463 1.92474,1.463 1.19983,0 1.93774,-0.6 1.93774,-1.559 0,-0.752 -0.41995,-1.169 -1.42181,-1.395 l -0.56692,-0.13 c -0.61292,-0.139 -0.86189,-0.334 -0.86189,-0.665 0,-0.42 0.37595,-0.693999 0.94287,-0.693999 C 8.76466,0.688087 9.19399,0.997044 9.28572,1.45447 H 10.1296 C 10.08,1.02084 9.85971,0.62484 9.51746,0.354042 9.17521,0.0832481 8.7392,-0.0400314 8.30585,0.0114708 c -1.09985,0 -1.83474,0.5950012 -1.83474,1.4899992 0,0.735 0.41994,1.179 1.31581,1.381 l 0.63892,0.147 c 0.63191,0.147 0.89987,0.355 0.89987,0.711 0,0.414 -0.41994,0.711 -0.99986,0.711 -0.62491,0 -1.06285,-0.285 -1.11685,-0.725 z M 12.9592,5.06646 V 0.896461 H 14.48 V 0.13446 h -3.9205 v 0.762001 h 1.5178 V 5.06646 Z"
       transform="translate(0,42.933533)"
       id="path7688"
       fill="#dbd7d7"
       fill-rule="evenodd"
       stroke="none"
       style="fill:#ffe2c0;fill-opacity:1" />
    <path
       d="M 3.19156,4.29369 H 0.881878 v -1.381 H 3.06558 v -0.718 H 0.881878 V 0.885689 H 3.19156 V 0.123688 H 0 V 5.05569 H 3.19156 Z M 6.06416,5.1787 C 6.359,5.18073 6.65217,5.13445 6.93204,5.04169 L 7.30799,5.5647 H 8.19087 L 7.57795,4.65569 C 8.14788,4.1266 8.44689,3.36739 8.39084,2.5917 8.47557,1.92834 8.26743,1.26096 7.82064,0.763412 7.37386,0.265869 6.73268,-0.0125504 6.06416,6.94275e-4 5.39374,-0.0158005 4.74953,0.261208 4.30026,0.759163 3.85099,1.25711 3.64143,1.9264 3.72649,2.5917 c -0.08768,0.66544 0.1211,1.33584 0.57107,1.8338 0.44997,0.49796 1.0958,0.77331 1.7666,0.7532 z m 0,-0.78302 c -0.87788,0 -1.4358,-0.69399 -1.4358,-1.79999 0,-1.106 0.55692,-1.808001 1.4358,-1.808001 0.87888,0 1.4268,0.696001 1.4268,1.804001 0.03713,0.47543 -0.12224,0.9453 -0.44094,1.3 l -0.31095,-0.39 H 5.89119 l 0.59091,0.841 C 6.34589,4.37947 6.20525,4.39731 6.06416,4.39568 Z"
       transform="translate(3.001585,51.944305)"
       id="path7690"
       fill="#dbd7d7"
       fill-rule="evenodd"
       stroke="none"
       style="fill:#ffe2c0;fill-opacity:1" />
    <path
       d="m 0.881878,5.05569 v -2 H 2.94959 v -0.735 H 0.881878 V 0.885689 H 3.14457 V 0.123688 H 0 V 5.05569 Z M 4.65036,0.855705 H 5.65022 C 5.88386,0.826057 6.1187,0.900894 6.29212,1.06027 6.46554,1.21964 6.55992,1.44736 6.5501,1.6827 6.56611,1.91626 6.47612,2.14462 6.30507,2.30444 6.13403,2.46426 5.90012,2.53854 5.66822,2.50671 H 4.65036 Z m 0,2.351995 H 5.62822 L 6.59509,5.05569 H 7.60295 L 6.5261,3.06969 C 7.10649,2.85368 7.48186,2.28852 7.45597,1.66969 7.47287,1.22971 7.29563,0.80452 6.97124,0.506836 6.64684,0.20916 6.20805,0.0690613 5.77121,0.123695 H 3.77148 V 5.05569 h 0.88188 z m 5.65124,1.971 c 0.2948,0.00203 0.588,-0.04425 0.8679,-0.13701 l 0.3759,0.52301 h 0.8849 L 11.8154,4.65569 C 12.3853,4.1266 12.6843,3.36739 12.6283,2.5917 12.713,1.92834 12.5048,1.26096 12.0581,0.763412 11.6113,0.265869 10.9701,-0.0125427 10.3016,6.94275e-4 9.63116,-0.0158005 8.98694,0.261208 8.53767,0.759163 8.0884,1.25711 7.87885,1.9264 7.9639,2.5917 7.87623,3.25714 8.085,3.92754 8.53498,4.4255 8.98495,4.92346 9.63078,5.19881 10.3016,5.1787 Z m 0,-0.78302 c -0.8779,0 -1.43582,-0.69399 -1.43582,-1.79999 0,-1.106 0.55692,-1.808001 1.43582,-1.808001 0.8789,0 1.4248,0.700001 1.4248,1.808001 0.0371,0.47543 -0.1223,0.9453 -0.441,1.3 L 10.9745,3.50568 h -0.8479 l 0.5909,0.84101 c -0.1357,0.03525 -0.2757,0.05174 -0.4159,0.04899 z"
       transform="translate(0.8828783,60.944305)"
       id="path7692"
       fill="#dbd7d7"
       fill-rule="evenodd"
       stroke="none"
       style="fill:#ffe2c0;fill-opacity:1" />
    <path
       d="M 0,0.00598145 V 4.93798 H 1.84874 C 2.5073,4.98347 3.15125,4.72952 3.60155,4.24676 4.05185,3.76399 4.26048,3.10389 4.16942,2.44998 4.25131,1.80199 4.03797,1.15147 3.58827,0.677864 3.13856,0.204262 2.5,-0.0423813 1.84874,0.00598145 Z M 0.881878,0.767975 H 1.73276 c 0.4436,-0.022064 0.87367,0.156181 1.17164,0.485585 0.29797,0.3294 0.43237,0.77517 0.36615,1.21441 0,1.1 -0.55693,1.712 -1.53779,1.712 H 0.881878 Z M 6.79606,4.93798 v -1.928 L 8.52482,0.00997925 H 7.55996 L 6.38612,2.11498 H 6.32813 L 5.15229,0.00598145 H 4.18542 L 5.91418,3.00598 v 1.932 z m 3.08057,0 v -3.356 h 0.058 l 2.42467,3.356 h 0.7619 V 0.00598145 H 12.2693 V 3.35898 h -0.058 L 9.79165,0.00598145 H 9.02575 V 4.93798 Z"
       transform="translate(0.53292656,70.06201)"
       id="path7694"
       fill="#dbd7d7"
       fill-rule="evenodd"
       stroke="none"
       style="fill:#ffe2c0;fill-opacity:1" />
    <path
       d="M 2.26669,5.17705 C 3.30077,5.25944 4.2183,4.51758 4.3544,3.48904 H 3.48652 C 3.35626,4.04807 2.83918,4.42958 2.26669,4.38905 c -0.84089,0 -1.363815,-0.69001 -1.363815,-1.8 0,-1.11 0.522925,-1.800003 1.359815,-1.800003 C 2.85374,0.768669 3.37149,1.18208 3.48252,1.76305 H 4.3504 C 4.2293,0.716553 3.31444,-0.0547104 2.26269,0.00304413 0.862881,0.00304413 0,0.991043 0,2.59405 c 0,1.60299 0.868879,2.583 2.26669,2.583 z M 9.14174,5.05404 v -4.932 H 8.26286 v 2.041 H 5.86319 v -2.041 H 4.98231 v 4.932 h 0.88188 v -2.129 h 2.39967 v 2.129 z"
       transform="translate(2.4176664,78.94595)"
       id="path7696"
       fill="#dbd7d7"
       fill-rule="evenodd"
       stroke="none"
       style="fill:#ffe2c0;fill-opacity:1" />
    <path
       d="M 2.73662,5.05566 4.44239,0.123657 H 3.50252 L 2.27269,4.02366 h -0.058 L 0.973866,0.123657 H 0 L 1.72176,5.05566 Z M 6.91105,6.63757e-4 C 6.24159,-0.0153656 5.5984,0.261238 5.14951,0.758217 4.70062,1.2552 4.49062,1.92319 4.57437,2.58766 4.48723,3.25321 4.69592,3.92354 5.14542,4.42197 5.59493,4.9204 6.24016,5.19693 6.91105,5.17867 7.58049,5.19459 8.22344,4.91701 8.67098,4.41883 9.11853,3.92065 9.32594,3.25169 9.23872,2.58766 9.32502,1.92421 9.11715,1.25616 8.66968,0.758842 8.22221,0.26152 7.5798,-0.0154343 6.91105,6.63757e-4 Z M 6.91104,0.783661 c 0.87488,0 1.42481,0.700009 1.42481,1.799999 0,1.1 -0.54593,1.812 -1.42481,1.812 -0.87887,0 -1.4358,-0.70799 -1.4358,-1.808 0,-1.1 0.55793,-1.803999 1.4358,-1.803999 z M 11.9543,5.17866 c 1.0341,0.08239 1.9517,-0.65946 2.0878,-1.688 h -0.8679 c -0.1303,0.55903 -0.6474,0.94054 -1.2199,0.9 -0.8408,0 -1.3638,-0.69 -1.3638,-1.79999 0,-1.11 0.523,-1.800005 1.3598,-1.800005 0.5911,-0.020378 1.1089,0.393025 1.2199,0.973995 h 0.8679 c -0.1211,-1.04649 -1.036,-1.817753 -2.0878,-1.75999844 -1.3998,0 -2.26264,0.98799944 -2.26264,2.59099844 0,1.603 0.86884,2.583 2.26664,2.583 z"
       transform="translate(0.00899792,87.944336)"
       id="path7698"
       fill="#dbd7d7"
       fill-rule="evenodd"
       stroke="none"
       style="fill:#ffe2c0;fill-opacity:1" />
    <path
       d="M 0.878879,0.864403 H 1.87874 C 2.11238,0.834755 2.34722,0.909592 2.52064,1.06897 2.69406,1.22834 2.78844,1.45605 2.77862,1.6914 2.79463,1.92496 2.70464,2.15331 2.53359,2.31313 2.36255,2.47295 2.12864,2.54724 1.89674,2.5154 H 0.878879 Z m -10e-7,2.351987 H 1.85674 l 0.96487,1.848 H 3.83147 L 2.75562,3.07839 C 3.33601,2.86237 3.71139,2.29722 3.68549,1.67839 3.70244,1.2382 3.52506,0.81282 3.20043,0.515106 2.8758,0.217392 2.43673,0.077446 1.99972,0.132393 H 0 V 5.06439 H 0.881878 Z M 6.65008,5.06441 8.35485,0.132416 H 7.41498 L 6.18515,4.03242 h -0.058 L 4.88632,0.132416 H 3.91246 L 5.63522,5.06441 Z m 2.07071,-3.49 v 0.014 h 0.82689 v -0.014 C 9.53768,1.34418 9.62644,1.12065 9.79164,0.960014 9.95683,0.799385 10.1827,0.716934 10.4126,0.733406 c 0.2123,-0.018837 0.4231,0.050903 0.5823,0.192726 0.1592,0.141818 0.2528,0.343118 0.2585,0.556278 0,0.349 -0.1669,0.6 -0.8408,1.289 l -1.64881,1.681 v 0.612 h 3.42451 v -0.749 H 9.97362 V 4.2574 L 11.0055,3.2224 C 11.8424,2.39541 12.1123,1.95741 12.1123,1.42841 12.0896,1.01337 11.8969,0.62603 11.5797,0.357536 11.2624,0.0890427 10.8486,-0.0368805 10.4356,0.00940704 9.99603,-0.0295181 9.56033,0.117645 9.23439,0.415115 8.90845,0.712585 8.72216,1.1331 8.72079,1.57441 Z"
       transform="translate(1.0718517,96.93561)"
       id="path7700"
       fill="#dbd7d7"
       fill-rule="evenodd"
       stroke="none"
       style="fill:#ffe2c0;fill-opacity:1" />
    <path
       d="m 0.881878,4.93201 v -2 H 2.94859 v -0.735 H 0.881878 V 0.762009 H 3.14357 V 0 H 0 V 4.93201 Z M 6.91205,4.16 H 4.64936 V 0 H 3.76748 v 4.93201 h 3.14457 z"
       transform="translate(3.7704792,106.06799)"
       id="path7702"
       fill="#dbd7d7"
       fill-rule="evenodd"
       stroke="none"
       style="fill:#ffe2c0;fill-opacity:1" />
    <path
       d="M 0.878879,0.743729 H 1.87874 C 2.11238,0.714081 2.34722,0.78891 2.52064,0.948288 2.69406,1.10767 2.78844,1.33539 2.77862,1.57072 2.79463,1.80429 2.70464,2.03264 2.53359,2.19246 2.36255,2.35228 2.12864,2.42657 1.89674,2.39473 H 0.878879 Z m 0,2.351991 H 1.85674 L 2.82361,4.94373 H 3.83147 L 2.75562,2.95773 C 3.33601,2.7417 3.71139,2.17654 3.68549,1.55772 3.70244,1.11754 3.52506,0.692154 3.20043,0.39444 2.8758,0.0967255 2.43673,-0.0432281 1.99972,0.0117188 H 0 V 4.94373 H 0.881878 Z M 9.49369,4.94373 V 0.0117188 H 8.46083 L 6.97804,3.60373 h -0.062 L 5.43325,0.0117188 H 4.40139 V 4.94373 h 0.81989 v -3.469 h 0.04799 l 1.36381,3.278 H 7.262 l 1.36281,-3.278 H 8.6728 v 3.469 z"
       transform="translate(2.3476753,115.05627)"
       id="path7704"
       fill="#dbd7d7"
       fill-rule="evenodd"
       stroke="none"
       style="fill:#ffe2c0;fill-opacity:1" />
    <path
       d="M 3.55151,4.93201 H 4.49838 L 2.74062,0 H 1.75176 L 0,4.93201 H 0.891877 L 1.31582,3.67101 H 3.13057 Z M 2.2017,0.940002 H 2.25169 L 2.9216,2.974 H 1.52179 Z M 7.44297,1.44 h 0.051 L 8.49483,4.93201 H 9.32171 L 10.6445,0 H 9.73166 L 8.88777,3.67101 H 8.83978 L 7.85092,0 H 7.07302 L 6.10216,3.67101 h -0.051 L 5.20728,0 H 4.28841 l 1.32182,4.93201 h 0.83088 z"
       transform="translate(1.7417593,124.06799)"
       id="path7706"
       fill="#dbd7d7"
       fill-rule="evenodd"
       stroke="none"
       style="fill:#ffe2c0;fill-opacity:1" />
  </g>
  <g
     id="g7739"
     transform="translate(18.410042,4)"
     style="fill:#ffcc46;fill-opacity:1">
    <path
       d="M 0,0 H 9 V 1 H 0 Z"
       transform="translate(2.5)"
       id="path7709"
       fill="#f6d738"
       fill-rule="evenodd"
       stroke="none"
       style="fill:#ffcc46;fill-opacity:1" />
    <path
       d="M 0,0.00590897 V 4.93791 H 1.85 C 2.50848,4.98308 3.15223,4.72899 3.60236,4.24627 4.05249,3.76355 4.26102,3.10363 4.17,2.44991 4.25185,1.80211 4.03861,1.15178 3.58908,0.678212 3.13954,0.204649 2.50118,-0.0421324 1.85,0.00590897 Z M 0.882,0.767914 H 1.733 C 2.17666,0.745852 2.60679,0.924094 2.9048,1.2535 3.20281,1.5829 3.33723,2.02868 3.271,2.46791 c 0,1.1 -0.557,1.712 -1.538,1.712 H 0.882 Z M 7.97,4.16592 H 5.707 V 0.00592041 H 4.825 V 4.93792 H 7.97 Z m 2.19,0.772 v -1.928 L 11.889,0.00992107 H 10.918 L 9.746,2.11492 H 9.688 L 8.512,0.00592041 H 7.545 L 9.274,3.00592 v 1.932 z"
       transform="translate(1.3339996,7.0621033)"
       id="path7711"
       fill="#f6d738"
       fill-rule="evenodd"
       stroke="none"
       style="fill:#ffcc46;fill-opacity:1" />
    <path
       d="m 0.879,0.74361 h 1 C 2.11268,0.713963 2.34754,0.788803 2.52099,0.948177 2.69443,1.10755 2.78882,1.33527 2.779,1.57061 2.79502,1.80417 2.70501,2.03253 2.53394,2.19234 2.36287,2.35217 2.12893,2.42645 1.897,2.39461 H 0.879 Z m 0,2.35199 h 0.976 l 0.969,1.848 H 3.832 L 2.755,2.9576 C 3.33547,2.74158 3.7109,2.17643 3.685,1.5576 3.7019,1.11761 3.52464,0.692415 3.2002,0.394739 2.87575,0.0970611 2.4369,-0.0430298 2,0.0116005 H 0 V 4.9436 h 0.882 z m 5.776,1.848 1.7,-4.9320033 H 7.415 L 6.185,3.9116 H 6.128 L 4.887,0.0115967 H 3.913 L 5.635,4.9436 Z m 3.3,0 h 0.882 V 0.0115967 H 9.955 L 8.666,0.911596 V 1.7596 L 9.893,0.898596 h 0.062 z"
       transform="translate(1.5389996,16.056396)"
       id="path7713"
       fill="#f6d738"
       fill-rule="evenodd"
       stroke="none"
       style="fill:#ffcc46;fill-opacity:1" />
    <path
       d="M 0,0.00226974 V 4.93427 h 0.882 v -1.617 h 1.07 C 2.40168,3.34565 2.84249,3.18311 3.1661,2.86959 3.48972,2.55606 3.66613,2.12062 3.652,1.67027 3.67768,1.22157 3.51105,0.783161 3.19382,0.46479 2.87659,0.146416 2.43879,-0.0217896 1.99,0.00226974 Z M 0.882,0.740269 H 1.757 C 2.01941,0.70092 2.28541,0.783611 2.47926,0.964798 2.67311,1.14598 2.77356,1.4058 2.752,1.67027 2.76783,1.93296 2.66432,2.18878 2.47025,2.36654 2.2762,2.5443 2.0123,2.62503 1.752,2.58627 H 0.880001 Z M 8.428,4.93426 V 0.0022583 H 7.549 V 2.04326 H 5.15 V 0.0022583 H 4.268 V 4.93426 H 5.15 v -2.129 h 2.4 v 2.129 z"
       transform="translate(2.8799992,25.065735)"
       id="path7715"
       fill="#f6d738"
       fill-rule="evenodd"
       stroke="none"
       style="fill:#ffcc46;fill-opacity:1" />
    <path
       d="m 0.879,0.855732 h 1 C 2.11268,0.826084 2.34754,0.900925 2.52099,1.0603 2.69443,1.21968 2.78882,1.44739 2.779,1.68273 2.79502,1.91629 2.70501,2.14465 2.53394,2.30447 2.36287,2.46429 2.12893,2.53857 1.897,2.50673 H 0.879 Z m 0,2.351998 h 0.978 l 0.967,1.848 H 3.833 L 2.756,3.06973 C 3.33648,2.85371 3.7119,2.28855 3.686,1.66972 3.70295,1.22954 3.52555,0.804157 3.20088,0.506439 2.8762,0.208725 2.43707,0.0687752 2,0.123726 H 0 V 5.05573 H 0.882 Z M 6.533,7.36237e-4 C 5.86294,-0.0161858 5.21883,0.260033 4.7692,0.757126 4.31956,1.25422 4.10915,1.92273 4.193,2.58774 4.10575,3.25381 4.31485,3.92466 4.7651,4.42321 5.21535,4.92176 5.8615,5.1979 6.533,5.17874 7.20219,5.19407 7.84467,4.91623 8.29183,4.41813 8.73899,3.92003 8.94617,3.2514 8.859,2.58774 8.94525,1.92464 8.73761,1.25694 8.29053,0.759689 7.84344,0.26244 7.20151,-0.0147667 6.533,7.36237e-4 Z m 0,0.783015763 c 0.875,0 1.425,0.699998 1.425,1.799998 0,1.1 -0.548,1.812 -1.425,1.812 -0.877,0 -1.436,-0.708 -1.436,-1.808 0,-1.1 0.556,-1.803998 1.436,-1.803998 z m 4.908,4.271998 v -4.17 h 1.521 V 0.123749 H 9.042 V 0.88575 h 1.518 v 4.17 z"
       transform="translate(0.7609997,33.944275)"
       id="path7717"
       fill="#f6d738"
       fill-rule="evenodd"
       stroke="none"
       style="fill:#ffcc46;fill-opacity:1" />
    <path
       d="M 0,0.134464 V 5.06646 H 1.849 C 2.50765,5.11195 3.15169,4.858 3.60205,4.37524 4.05241,3.89248 4.26106,3.23237 4.17,2.57846 4.2519,1.93047 4.03853,1.27996 3.58876,0.806351 3.13899,0.332745 2.50035,0.0861053 1.849,0.134464 Z m 0.882,0.76202 H 1.733 C 2.17666,0.87442 2.60679,1.05266 2.9048,1.38206 3.20281,1.71147 3.33723,2.15724 3.271,2.59648 c 0,1.1 -0.557,1.712 -1.538,1.712 H 0.882 Z M 5.825,5.06646 v -4.932 h -1 v 4.932 z M 6.348,3.72647 c 0.046,0.896 0.793,1.463 1.925,1.463 1.2,0 1.938,-0.6 1.938,-1.559 0,-0.752 -0.42,-1.169 -1.422,-1.395 l -0.567,-0.13 C 7.609,1.96647 7.36,1.77147 7.36,1.44047 7.36,1.02047 7.736,0.746471 8.303,0.746471 8.76587,0.688087 9.19526,0.997044 9.287,1.45447 h 0.844 C 10.0814,1.02084 9.86107,0.62484 9.51878,0.354042 9.17648,0.0832481 8.74041,-0.0400314 8.307,0.0114708 c -1.1,0 -1.835,0.5950012 -1.835,1.4899992 0,0.735 0.42,1.179 1.316,1.381 l 0.639,0.147 c 0.632,0.147 0.9,0.355 0.9,0.711 0,0.414 -0.42,0.711 -1,0.711 -0.625,0 -1.063,-0.285 -1.117,-0.725 z m 6.613,1.33999 V 0.896461 h 1.521 V 0.13446 h -3.921 v 0.762001 h 1.518 V 5.06646 Z"
       transform="translate(0,42.933533)"
       id="path7719"
       fill="#f6d738"
       fill-rule="evenodd"
       stroke="none"
       style="fill:#ffcc46;fill-opacity:1" />
    <path
       d="m 3.192,4.29369 h -2.31 v -1.381 h 2.184 v -0.718 H 0.882 V 0.885689 h 2.31 V 0.123688 H 0 V 5.05569 H 3.192 Z M 6.065,5.1787 C 6.35987,5.18073 6.65309,5.13445 6.933,5.04169 L 7.309,5.5647 H 8.192 L 7.579,4.65569 C 8.149,4.1266 8.44805,3.36739 8.392,2.5917 8.47674,1.92834 8.26857,1.26096 7.82172,0.763412 7.37488,0.265869 6.73361,-0.0125504 6.065,6.94275e-4 5.39449,-0.0158005 4.75018,0.261208 4.30085,0.759163 3.85152,1.25711 3.64194,1.9264 3.727,2.5917 3.63932,3.25714 3.84812,3.92754 4.29815,4.4255 4.74819,4.92346 5.39411,5.19881 6.065,5.1787 Z m 0,-0.78302 c -0.878,0 -1.436,-0.69399 -1.436,-1.79999 0,-1.106 0.557,-1.808001 1.436,-1.808001 0.879,0 1.427,0.696001 1.427,1.804001 0.03713,0.47543 -0.12226,0.9453 -0.441,1.3 L 6.74,3.50169 H 5.892 l 0.591,0.841 C 6.34676,4.37947 6.20611,4.39731 6.065,4.39568 Z"
       transform="translate(3.0020008,51.944305)"
       id="path7721"
       fill="#f6d738"
       fill-rule="evenodd"
       stroke="none"
       style="fill:#ffcc46;fill-opacity:1" />
    <path
       d="m 0.882,5.05569 v -2 H 2.95 v -0.735 H 0.882 V 0.885689 H 3.145 V 0.123688 H 0 V 5.05569 Z M 4.651,0.855705 h 1 C 5.88468,0.826057 6.11954,0.900894 6.29299,1.06027 6.46643,1.21964 6.56082,1.44736 6.551,1.6827 6.56702,1.91626 6.47701,2.14462 6.30594,2.30444 6.13487,2.46426 5.90093,2.53854 5.669,2.50671 H 4.651 Z m 0,2.351995 H 5.629 L 6.596,5.05569 H 7.604 L 6.527,3.06969 C 7.10748,2.85368 7.4829,2.28852 7.457,1.66969 7.47391,1.22971 7.29664,0.80452 6.9722,0.506836 6.64776,0.20916 6.20891,0.0690613 5.772,0.123695 h -2 V 5.05569 h 0.882 z m 5.652,1.971 c 0.2949,0.00203 0.5881,-0.04425 0.868,-0.13701 l 0.376,0.52301 h 0.885 L 11.817,4.65569 C 12.387,4.1266 12.6861,3.36739 12.63,2.5917 12.7147,1.92834 12.5066,1.26096 12.0597,0.763412 11.6129,0.265869 10.9716,-0.0125427 10.303,6.94275e-4 9.63249,-0.0158005 8.98818,0.261208 8.53885,0.759163 8.08952,1.25711 7.87994,1.9264 7.965,2.5917 7.87732,3.25714 8.08612,3.92754 8.53615,4.4255 8.98619,4.92346 9.63211,5.19881 10.303,5.1787 Z m 0,-0.78302 c -0.878,0 -1.436,-0.69399 -1.436,-1.79999 0,-1.106 0.557,-1.808001 1.436,-1.808001 0.879,0 1.425,0.700001 1.425,1.808001 0.0371,0.47543 -0.1223,0.9453 -0.441,1.3 L 10.976,3.50568 h -0.848 l 0.591,0.84101 c -0.1358,0.03525 -0.2757,0.05174 -0.416,0.04899 z"
       transform="translate(0.8829994,60.944305)"
       id="path7723"
       fill="#f6d738"
       fill-rule="evenodd"
       stroke="none"
       style="fill:#ffcc46;fill-opacity:1" />
    <path
       d="M 0,0.00598145 V 4.93798 H 1.849 C 2.50765,4.98347 3.15169,4.72952 3.60205,4.24676 4.05241,3.76399 4.26106,3.10389 4.17,2.44998 4.2519,1.80199 4.03853,1.15147 3.58876,0.677864 3.13899,0.204262 2.50035,-0.0423813 1.849,0.00598145 Z M 0.882,0.767975 h 0.851 c 0.44366,-0.022064 0.87379,0.156181 1.1718,0.485585 0.29802,0.3294 0.43243,0.77517 0.3662,1.21441 0,1.1 -0.557,1.712 -1.538,1.712 H 0.882 Z M 6.797,4.93798 v -1.928 L 8.526,0.00997925 H 7.561 L 6.387,2.11498 H 6.329 L 5.153,0.00598145 H 4.186 L 5.915,3.00598 v 1.932 z m 3.081,0 v -3.356 h 0.058 l 2.425,3.356 h 0.762 V 0.00598145 H 12.271 V 3.35898 H 12.213 L 9.793,0.00598145 H 9.027 V 4.93798 Z"
       transform="translate(0.53299904,70.06201)"
       id="path7725"
       fill="#f6d738"
       fill-rule="evenodd"
       stroke="none"
       style="fill:#ffcc46;fill-opacity:1" />
    <path
       d="M 2.267,5.17705 C 3.30123,5.25944 4.21888,4.51758 4.355,3.48904 H 3.487 c -0.13027,0.55903 -0.64743,0.94054 -1.22,0.90001 -0.841,0 -1.364,-0.69001 -1.364,-1.8 0,-1.11 0.523,-1.800003 1.36,-1.800003 C 2.85413,0.768669 3.37195,1.18208 3.483,1.76305 H 4.351 C 4.22989,0.716553 3.31489,-0.0547104 2.263,0.00304413 0.862999,0.00304413 0,0.991043 0,2.59405 c 0,1.60299 0.868999,2.583 2.267,2.583 z M 9.143,5.05404 v -4.932 H 8.264 v 2.041 h -2.4 v -2.041 H 4.983 v 4.932 h 0.882 v -2.129 h 2.4 v 2.129 z"
       transform="translate(2.4180012,78.94595)"
       id="path7727"
       fill="#f6d738"
       fill-rule="evenodd"
       stroke="none"
       style="fill:#ffcc46;fill-opacity:1" />
    <path
       d="M 2.737,5.05566 4.443,0.123657 H 3.503 L 2.273,4.02366 H 2.215 L 0.974001,0.123657 H 0 L 1.722,5.05566 Z M 6.912,6.63757e-4 C 6.24245,-0.0153656 5.59917,0.261238 5.15022,0.758217 4.70127,1.2552 4.49124,1.92319 4.575,2.58766 4.48785,3.25321 4.69657,3.92354 5.14614,4.42197 5.59571,4.9204 6.24102,5.19693 6.912,5.17867 7.58154,5.19459 8.22457,4.91701 8.67218,4.41883 9.11979,3.92065 9.32723,3.25169 9.24,2.58766 9.32631,1.92421 9.11841,1.25616 8.67088,0.758842 8.22334,0.26152 7.58085,-0.0154343 6.912,6.63757e-4 Z m 0,0.782997243 c 0.875,0 1.425,0.700009 1.425,1.799999 0,1.1 -0.546,1.812 -1.425,1.812 -0.879,0 -1.436,-0.70799 -1.436,-1.808 0,-1.1 0.558,-1.803999 1.436,-1.803999 z m 5.044,4.394999 c 1.0342,0.08239 1.9519,-0.65946 2.088,-1.688 h -0.868 c -0.1303,0.55903 -0.6474,0.94054 -1.22,0.9 -0.841,0 -1.364,-0.69 -1.364,-1.79999 0,-1.11 0.523,-1.800005 1.36,-1.800005 0.5911,-0.020378 1.109,0.393025 1.22,0.973995 h 0.868 c -0.1211,-1.04649 -1.0361,-1.817753 -2.088,-1.75999844 -1.4,0 -2.263,0.98799944 -2.263,2.59099844 0,1.603 0.869,2.583 2.267,2.583 z"
       transform="translate(0.00899887,87.944336)"
       id="path7729"
       fill="#f6d738"
       fill-rule="evenodd"
       stroke="none"
       style="fill:#ffcc46;fill-opacity:1" />
    <path
       d="m 0.879,0.864403 h 1 C 2.11267,0.834755 2.34754,0.909592 2.52099,1.06897 2.69443,1.22834 2.78882,1.45605 2.779,1.6914 2.79502,1.92496 2.70501,2.15331 2.53394,2.31313 2.36287,2.47295 2.12893,2.54724 1.897,2.5154 H 0.879 Z m 0,2.351987 h 0.978 l 0.965,1.848 h 1.01 L 2.756,3.07839 C 3.33647,2.86237 3.7119,2.29722 3.686,1.67839 3.70295,1.2382 3.52555,0.81282 3.20087,0.515106 2.8762,0.217392 2.43707,0.077446 2,0.132393 H 0 V 5.06439 H 0.882 Z M 6.651,5.06441 8.356,0.132416 H 7.416 L 6.186,4.03242 H 6.128 L 4.887,0.132416 H 3.913 L 5.636,5.06441 Z m 2.071,-3.49 v 0.014 h 0.827 v -0.014 C 9.539,1.34418 9.62777,1.12065 9.79299,0.960014 9.95821,0.799385 10.1842,0.716934 10.414,0.733406 c 0.2124,-0.018837 0.4232,0.050903 0.5824,0.192726 0.1592,0.141818 0.2528,0.343118 0.2586,0.556278 0,0.349 -0.167,0.6 -0.841,1.289 l -1.649,1.681 v 0.612 h 3.425 v -0.749 H 9.975 V 4.2574 l 1.032,-1.035 C 11.844,2.39541 12.114,1.95741 12.114,1.42841 12.0913,1.01337 11.8986,0.62603 11.5813,0.357536 11.264,0.0890427 10.8501,-0.0368805 10.437,0.00940704 9.99742,-0.0295181 9.56165,0.117645 9.23567,0.415115 8.90969,0.712585 8.72336,1.1331 8.722,1.57441 Z"
       transform="translate(1.0720005,96.93561)"
       id="path7731"
       fill="#f6d738"
       fill-rule="evenodd"
       stroke="none"
       style="fill:#ffcc46;fill-opacity:1" />
    <path
       d="m 0.882,4.93201 v -2 h 2.067 v -0.735 H 0.882 V 0.762009 H 3.144 V 0 H 0 V 4.93201 Z M 6.913,4.16 H 4.65 V 0 H 3.768 v 4.93201 h 3.145 z"
       transform="translate(3.771,106.06799)"
       id="path7733"
       fill="#f6d738"
       fill-rule="evenodd"
       stroke="none"
       style="fill:#ffcc46;fill-opacity:1" />
    <path
       d="m 0.879,0.743729 h 1 C 2.11268,0.714081 2.34754,0.78891 2.52099,0.948288 2.69443,1.10767 2.78882,1.33539 2.779,1.57072 2.79502,1.80429 2.70501,2.03264 2.53394,2.19246 2.36287,2.35228 2.12893,2.42657 1.897,2.39473 H 0.879 Z m 0,2.351991 H 1.857 L 2.824,4.94373 H 3.832 L 2.756,2.95773 C 3.33648,2.7417 3.7119,2.17654 3.686,1.55772 3.70295,1.11754 3.52555,0.692154 3.20088,0.39444 2.8762,0.0967255 2.43707,-0.0432281 2,0.0117188 H 0 V 4.94373 H 0.882 Z M 9.495,4.94373 V 0.0117188 H 8.462 L 6.979,3.60373 H 6.917 L 5.434,0.0117188 H 4.402 V 4.94373 h 0.82 v -3.469 H 5.27 l 1.364,3.278 h 0.629 l 1.363,-3.278 h 0.048 v 3.469 z"
       transform="translate(2.3479996,115.05627)"
       id="path7735"
       fill="#f6d738"
       fill-rule="evenodd"
       stroke="none"
       style="fill:#ffcc46;fill-opacity:1" />
    <path
       d="M 3.552,4.93201 H 4.499 L 2.741,0 H 1.752 L 0,4.93201 H 0.892002 L 1.316,3.67101 H 3.131 Z M 2.202,0.940002 h 0.05 L 2.922,2.974 h -1.4 z M 7.444,1.44 H 7.495 L 8.496,4.93201 H 9.323 L 10.646,0 H 9.733 L 8.889,3.67101 H 8.841 L 7.852,0 H 7.074 L 6.103,3.67101 H 6.052 L 5.208,0 H 4.289 l 1.322,4.93201 h 0.831 z"
       transform="translate(1.7419987,124.06799)"
       id="path7737"
       fill="#f6d738"
       fill-rule="evenodd"
       stroke="none"
       style="fill:#ffcc46;fill-opacity:1" />
  </g>
  <g
     id="g7771"
     transform="translate(35.41004,4)"
     style="fill:#eb5757;fill-opacity:1">
    <path
       d="M 0,0 H 9 V 1 H 0 Z"
       transform="translate(2.5)"
       id="path7741"
       fill="#909090"
       fill-rule="evenodd"
       stroke="none"
       style="fill:#eb5757;fill-opacity:1" />
    <path
       d="M 0,0.00590897 V 4.93791 H 1.85 C 2.50848,4.98308 3.15223,4.72899 3.60236,4.24627 4.05249,3.76355 4.26102,3.10363 4.17,2.44991 4.25185,1.80211 4.03862,1.15178 3.58908,0.678212 3.13954,0.204649 2.50118,-0.0421324 1.85,0.00590897 Z M 0.882004,0.767914 H 1.733 C 2.17666,0.745852 2.60679,0.924094 2.9048,1.2535 3.20282,1.5829 3.33723,2.02868 3.271,2.46791 c 0,1.1 -0.557,1.712 -1.538,1.712 H 0.882004 Z M 7.97,4.16592 H 5.707 V 0.00592041 H 4.825 V 4.93792 H 7.97 Z m 2.19,0.772 v -1.928 L 11.889,0.00992107 H 10.918 L 9.746,2.11492 H 9.688 L 8.512,0.00592041 H 7.545 L 9.274,3.00592 v 1.932 z"
       transform="translate(1.3339996,7.0621033)"
       id="path7743"
       fill="#909090"
       fill-rule="evenodd"
       stroke="none"
       style="fill:#eb5757;fill-opacity:1" />
    <path
       d="M 0.879002,0.74361 H 1.879 C 2.11267,0.713963 2.34754,0.788803 2.52099,0.948177 2.69443,1.10755 2.78882,1.33527 2.779,1.57061 2.79502,1.80417 2.70501,2.03253 2.53394,2.19234 2.36287,2.35217 2.12893,2.42645 1.897,2.39461 H 0.879002 Z m 0,2.35199 H 1.855 l 0.969,1.848 H 3.832 L 2.755,2.9576 C 3.33548,2.74158 3.7109,2.17643 3.685,1.5576 3.7019,1.11761 3.52464,0.692415 3.2002,0.394739 2.87575,0.0970611 2.4369,-0.0430298 2,0.0116005 H 0 V 4.9436 H 0.882 Z M 6.655,4.9436 8.355,0.0115967 H 7.415 L 6.185,3.9116 H 6.128 L 4.887,0.0115967 H 3.913 L 5.635,4.9436 Z m 3.3,0 h 0.882 V 0.0115967 H 9.955 L 8.666,0.911596 V 1.7596 L 9.893,0.898596 h 0.062 z"
       transform="translate(1.5390015,16.056396)"
       id="path7745"
       fill="#909090"
       fill-rule="evenodd"
       stroke="none"
       style="fill:#eb5757;fill-opacity:1" />
    <path
       d="M 0,0.00226974 V 4.93427 h 0.882 v -1.617 h 1.07 C 2.40168,3.34565 2.84249,3.18311 3.1661,2.86959 3.48972,2.55606 3.66613,2.12062 3.652,1.67027 3.67768,1.22157 3.51105,0.783161 3.19382,0.46479 2.87659,0.146416 2.43879,-0.0217896 1.99,0.00226974 Z M 0.882,0.740269 H 1.757 C 2.01941,0.70092 2.28541,0.783611 2.47926,0.964798 2.67311,1.14598 2.77356,1.4058 2.752,1.67027 2.76783,1.93296 2.66432,2.18878 2.47026,2.36654 2.2762,2.5443 2.0123,2.62503 1.752,2.58627 H 0.880001 Z M 8.428,4.93426 V 0.0022583 H 7.549 V 2.04326 H 5.15 V 0.0022583 H 4.268 V 4.93426 H 5.15 v -2.129 h 2.4 v 2.129 z"
       transform="translate(2.880001,25.065735)"
       id="path7747"
       fill="#909090"
       fill-rule="evenodd"
       stroke="none"
       style="fill:#eb5757;fill-opacity:1" />
    <path
       d="M 0.879002,0.855732 H 1.879 C 2.11267,0.826084 2.34754,0.900925 2.52099,1.0603 2.69443,1.21968 2.78882,1.44739 2.779,1.68273 2.79502,1.91629 2.70501,2.14465 2.53394,2.30447 2.36287,2.46429 2.12893,2.53857 1.897,2.50673 H 0.879002 Z m 0,2.351998 H 1.857 l 0.967,1.848 H 3.833 L 2.756,3.06973 C 3.33648,2.85371 3.7119,2.28855 3.686,1.66972 3.70295,1.22954 3.52555,0.804157 3.20087,0.506439 2.8762,0.208725 2.43707,0.0687752 2,0.123726 H 0 V 5.05573 H 0.882 Z M 6.533,7.36237e-4 C 5.86294,-0.0161858 5.21883,0.260033 4.7692,0.757126 4.31956,1.25422 4.10915,1.92273 4.193,2.58774 4.10575,3.25381 4.31485,3.92466 4.7651,4.42321 5.21535,4.92176 5.8615,5.1979 6.533,5.17874 7.20219,5.19407 7.84467,4.91623 8.29183,4.41813 8.73899,3.92003 8.94617,3.2514 8.859,2.58774 8.94524,1.92464 8.73761,1.25694 8.29053,0.759689 7.84344,0.26244 7.2015,-0.0147667 6.533,7.36237e-4 Z m 0,0.783015763 c 0.875,0 1.425,0.699998 1.425,1.799998 0,1.1 -0.548,1.812 -1.425,1.812 -0.877,0 -1.436,-0.708 -1.436,-1.808 0,-1.1 0.556,-1.803998 1.436,-1.803998 z m 4.908,4.271998 v -4.17 h 1.521 V 0.123749 H 9.042 V 0.88575 h 1.518 v 4.17 z"
       transform="translate(0.7610016,33.944275)"
       id="path7749"
       fill="#909090"
       fill-rule="evenodd"
       stroke="none"
       style="fill:#eb5757;fill-opacity:1" />
    <path
       d="M 0,0.134464 V 5.06646 H 1.849 C 2.50765,5.11195 3.15169,4.858 3.60205,4.37524 4.05241,3.89248 4.26107,3.23237 4.17,2.57846 4.2519,1.93047 4.03854,1.27996 3.58876,0.806351 3.139,0.332745 2.50035,0.0861053 1.849,0.134464 Z m 0.882004,0.76202 H 1.733 C 2.17666,0.87442 2.60679,1.05266 2.9048,1.38206 3.20282,1.71147 3.33723,2.15724 3.271,2.59648 c 0,1.1 -0.557,1.712 -1.538,1.712 H 0.882004 Z M 5.825,5.06646 v -4.932 h -1 v 4.932 z M 6.348,3.72647 c 0.046,0.896 0.793,1.463 1.925,1.463 1.2,0 1.938,-0.6 1.938,-1.559 0,-0.752 -0.42,-1.169 -1.422,-1.395 l -0.567,-0.13 C 7.609,1.96647 7.36,1.77147 7.36,1.44047 7.36,1.02047 7.736,0.746471 8.303,0.746471 8.76587,0.688087 9.19527,0.997044 9.287,1.45447 h 0.844 C 10.0814,1.02084 9.86107,0.62484 9.51878,0.354042 9.17648,0.0832481 8.74041,-0.0400314 8.307,0.0114708 c -1.1,0 -1.835,0.5950012 -1.835,1.4899992 0,0.735 0.42,1.179 1.316,1.381 l 0.639,0.147 c 0.632,0.147 0.9,0.355 0.9,0.711 0,0.414 -0.42,0.711 -1,0.711 -0.625,0 -1.063,-0.285 -1.117,-0.725 z m 6.613,1.33999 V 0.896461 h 1.521 V 0.13446 h -3.921 v 0.762001 h 1.518 V 5.06646 Z"
       transform="translate(0,42.933533)"
       id="path7751"
       fill="#909090"
       fill-rule="evenodd"
       stroke="none"
       style="fill:#eb5757;fill-opacity:1" />
    <path
       d="m 3.192,4.29369 h -2.31 v -1.381 h 2.184 v -0.718 H 0.882 V 0.885689 h 2.31 V 0.123688 H 0 V 5.05569 H 3.192 Z M 6.065,5.1787 C 6.35987,5.18073 6.65309,5.13445 6.933,5.04169 L 7.309,5.5647 H 8.192 L 7.579,4.65569 C 8.149,4.1266 8.44805,3.36739 8.392,2.5917 8.47674,1.92834 8.26857,1.26096 7.82172,0.763412 7.37488,0.265869 6.73361,-0.0125504 6.065,6.94275e-4 5.39449,-0.0158005 4.75018,0.261208 4.30085,0.759163 3.85152,1.25711 3.64194,1.9264 3.727,2.5917 3.63932,3.25714 3.84812,3.92754 4.29815,4.4255 4.74819,4.92346 5.39411,5.19881 6.065,5.1787 Z m 0,-0.78302 c -0.878,0 -1.436,-0.69399 -1.436,-1.79999 0,-1.106 0.557,-1.808001 1.436,-1.808001 0.879,0 1.427,0.696001 1.427,1.804001 0.03713,0.47543 -0.12226,0.9453 -0.441,1.3 L 6.74,3.50169 H 5.892 l 0.591,0.841 C 6.34676,4.37947 6.2061,4.39731 6.065,4.39568 Z"
       transform="translate(3.0020027,51.944305)"
       id="path7753"
       fill="#909090"
       fill-rule="evenodd"
       stroke="none"
       style="fill:#eb5757;fill-opacity:1" />
    <path
       d="m 0.882,5.05569 v -2 H 2.95 v -0.735 H 0.882 V 0.885689 H 3.145 V 0.123688 H 0 V 5.05569 Z M 4.651,0.855705 h 1 C 5.88467,0.826057 6.11954,0.900894 6.29298,1.06027 6.46643,1.21964 6.56082,1.44736 6.551,1.6827 6.56702,1.91626 6.47701,2.14462 6.30594,2.30444 6.13487,2.46426 5.90093,2.53854 5.669,2.50671 H 4.651 Z m 0,2.351995 H 5.629 L 6.596,5.05569 H 7.604 L 6.527,3.06969 C 7.10747,2.85368 7.4829,2.28852 7.457,1.66969 7.4739,1.22971 7.29664,0.80452 6.9722,0.506836 6.64776,0.20916 6.20891,0.0690613 5.772,0.123695 h -2 V 5.05569 h 0.882 z m 5.652,1.971 c 0.2949,0.00203 0.5881,-0.04425 0.868,-0.13701 l 0.376,0.52301 h 0.885 L 11.817,4.65569 C 12.387,4.1266 12.6861,3.36739 12.63,2.5917 12.7147,1.92834 12.5066,1.26096 12.0597,0.763412 11.6129,0.265869 10.9716,-0.0125427 10.303,6.94275e-4 9.63249,-0.0158005 8.98818,0.261208 8.53885,0.759163 8.08952,1.25711 7.87994,1.9264 7.965,2.5917 7.87732,3.25714 8.08612,3.92754 8.53615,4.4255 8.98619,4.92346 9.63211,5.19881 10.303,5.1787 Z m 0,-0.78302 c -0.878,0 -1.436,-0.69399 -1.436,-1.79999 0,-1.106 0.557,-1.808001 1.436,-1.808001 0.879,0 1.425,0.700001 1.425,1.808001 0.0371,0.47543 -0.1223,0.9453 -0.441,1.3 L 10.976,3.50568 h -0.848 l 0.591,0.84101 c -0.1358,0.03525 -0.2757,0.05174 -0.416,0.04899 z"
       transform="translate(0.88300323,60.944305)"
       id="path7755"
       fill="#909090"
       fill-rule="evenodd"
       stroke="none"
       style="fill:#eb5757;fill-opacity:1" />
    <path
       d="M 0,0.00598145 V 4.93798 H 1.849 C 2.50765,4.98347 3.15169,4.72952 3.60205,4.24676 4.05241,3.76399 4.26107,3.10389 4.17,2.44998 4.2519,1.80199 4.03853,1.15147 3.58876,0.677864 3.13899,0.204262 2.50035,-0.0423813 1.849,0.00598145 Z M 0.882,0.767975 h 0.851 c 0.44366,-0.022064 0.87379,0.156181 1.1718,0.485585 0.29802,0.3294 0.43243,0.77517 0.3662,1.21441 0,1.1 -0.557,1.712 -1.538,1.712 H 0.882 Z M 6.797,4.93798 v -1.928 L 8.526,0.00997925 H 7.561 L 6.387,2.11498 H 6.329 L 5.153,0.00598145 H 4.186 L 5.915,3.00598 v 1.932 z m 3.081,0 v -3.356 h 0.058 l 2.425,3.356 h 0.762 V 0.00598145 H 12.271 V 3.35898 H 12.213 L 9.793,0.00598145 H 9.027 V 4.93798 Z"
       transform="translate(0.53300095,70.06201)"
       id="path7757"
       fill="#909090"
       fill-rule="evenodd"
       stroke="none"
       style="fill:#eb5757;fill-opacity:1" />
    <path
       d="M 2.267,5.17705 C 3.30122,5.25944 4.21888,4.51758 4.355,3.48904 H 3.487 c -0.13027,0.55903 -0.64743,0.94054 -1.22,0.90001 -0.841,0 -1.364,-0.69001 -1.364,-1.8 0,-1.11 0.523,-1.800003 1.36,-1.800003 C 2.85413,0.768669 3.37195,1.18208 3.483,1.76305 H 4.351 C 4.22989,0.716553 3.31489,-0.0547104 2.263,0.00304413 0.862999,0.00304413 0,0.991043 0,2.59405 c 0,1.60299 0.868999,2.583 2.267,2.583 z M 9.143,5.05404 v -4.932 H 8.264 v 2.041 h -2.4 v -2.041 H 4.983 v 4.932 h 0.882 v -2.129 h 2.4 v 2.129 z"
       transform="translate(2.418003,78.94595)"
       id="path7759"
       fill="#909090"
       fill-rule="evenodd"
       stroke="none"
       style="fill:#eb5757;fill-opacity:1" />
    <path
       d="M 2.737,5.05566 4.443,0.123657 H 3.503 L 2.273,4.02366 H 2.215 L 0.973999,0.123657 H 0 L 1.722,5.05566 Z M 6.912,6.63757e-4 C 6.24245,-0.0153656 5.59917,0.261238 5.15022,0.758217 4.70127,1.2552 4.49123,1.92319 4.575,2.58766 4.48785,3.25321 4.69656,3.92354 5.14613,4.42197 5.5957,4.9204 6.24102,5.19693 6.912,5.17867 7.58154,5.19459 8.22457,4.91701 8.67218,4.41883 9.11979,3.92065 9.32722,3.25169 9.24,2.58766 9.32631,1.92421 9.11841,1.25616 8.67088,0.758842 8.22334,0.26152 7.58085,-0.0154343 6.912,6.63757e-4 Z m 0,0.782997243 c 0.875,0 1.425,0.700009 1.425,1.799999 0,1.1 -0.546,1.812 -1.425,1.812 -0.879,0 -1.436,-0.70799 -1.436,-1.808 0,-1.1 0.558,-1.803999 1.436,-1.803999 z m 5.044,4.394999 c 1.0342,0.08239 1.9519,-0.65946 2.088,-1.688 h -0.868 c -0.1303,0.55903 -0.6474,0.94054 -1.22,0.9 -0.841,0 -1.364,-0.69 -1.364,-1.79999 0,-1.11 0.523,-1.800005 1.36,-1.800005 0.5911,-0.020378 1.109,0.393025 1.22,0.973995 h 0.868 c -0.1211,-1.04649 -1.0361,-1.817753 -2.088,-1.75999844 -1.4,0 -2.263,0.98799944 -2.263,2.59099844 0,1.603 0.869,2.583 2.267,2.583 z"
       transform="translate(0.00900269,87.944336)"
       id="path7761"
       fill="#909090"
       fill-rule="evenodd"
       stroke="none"
       style="fill:#eb5757;fill-opacity:1" />
    <path
       d="M 0.878998,0.864403 H 1.879 C 2.11267,0.834755 2.34754,0.909592 2.52098,1.06897 2.69443,1.22834 2.78882,1.45605 2.779,1.6914 2.79502,1.92496 2.70501,2.15331 2.53394,2.31313 2.36287,2.47295 2.12893,2.54724 1.897,2.5154 H 0.878998 Z m 0,2.351987 H 1.857 l 0.965,1.848 h 1.01 L 2.756,3.07839 C 3.33648,2.86237 3.7119,2.29722 3.686,1.67839 3.70295,1.2382 3.52555,0.81282 3.20087,0.515106 2.8762,0.217392 2.43707,0.077446 2,0.132393 H 0 V 5.06439 H 0.882 Z M 6.651,5.06441 8.356,0.132416 H 7.416 L 6.186,4.03242 H 6.128 L 4.887,0.132416 H 3.913 L 5.636,5.06441 Z m 2.071,-3.49 v 0.014 h 0.827 v -0.014 C 9.539,1.34418 9.62777,1.12065 9.79299,0.960014 9.95821,0.799385 10.1842,0.716934 10.414,0.733406 c 0.2124,-0.018837 0.4232,0.050903 0.5824,0.192726 0.1592,0.141818 0.2528,0.343118 0.2586,0.556278 0,0.349 -0.167,0.6 -0.841,1.289 l -1.649,1.681 v 0.612 h 3.425 v -0.749 H 9.975 V 4.2574 l 1.032,-1.035 C 11.844,2.39541 12.114,1.95741 12.114,1.42841 12.0913,1.01337 11.8986,0.62603 11.5813,0.357536 11.264,0.0890427 10.8501,-0.0368805 10.437,0.00940704 9.99742,-0.0295181 9.56165,0.117645 9.23567,0.415115 8.90969,0.712585 8.72336,1.1331 8.722,1.57441 Z"
       transform="translate(1.0720024,96.93561)"
       id="path7763"
       fill="#909090"
       fill-rule="evenodd"
       stroke="none"
       style="fill:#eb5757;fill-opacity:1" />
    <path
       d="m 0.881996,4.93201 v -2 H 2.949 v -0.735 H 0.881996 V 0.762009 H 3.144 V 0 H 0 V 4.93201 Z M 6.913,4.16 H 4.65 V 0 H 3.768 v 4.93201 h 3.145 z"
       transform="translate(3.7710037,106.06799)"
       id="path7765"
       fill="#909090"
       fill-rule="evenodd"
       stroke="none"
       style="fill:#eb5757;fill-opacity:1" />
    <path
       d="M 0.879002,0.743729 H 1.879 C 2.11268,0.714081 2.34755,0.78891 2.52099,0.948288 2.69443,1.10767 2.78883,1.33539 2.779,1.57072 2.79502,1.80429 2.70501,2.03264 2.53394,2.19246 2.36288,2.35228 2.12894,2.42657 1.897,2.39473 H 0.879002 Z m 0,2.351991 H 1.857 L 2.824,4.94373 H 3.832 L 2.756,2.95773 C 3.33648,2.7417 3.7119,2.17654 3.686,1.55772 3.70295,1.11754 3.52555,0.692154 3.20088,0.39444 2.8762,0.0967255 2.43707,-0.0432281 2,0.0117188 H 0 V 4.94373 H 0.882004 Z M 9.495,4.94373 V 0.0117188 H 8.462 L 6.979,3.60373 H 6.917 L 5.434,0.0117188 H 4.402 V 4.94373 h 0.82 v -3.469 H 5.27 l 1.364,3.278 h 0.629 l 1.363,-3.278 h 0.048 v 3.469 z"
       transform="translate(2.3479996,115.05627)"
       id="path7767"
       fill="#909090"
       fill-rule="evenodd"
       stroke="none"
       style="fill:#eb5757;fill-opacity:1" />
    <path
       d="M 3.552,4.93201 H 4.499 L 2.741,0 H 1.752 L 0,4.93201 H 0.892002 L 1.316,3.67101 H 3.131 Z M 2.202,0.940002 h 0.05 L 2.922,2.974 h -1.4 z M 7.444,1.44 H 7.495 L 8.496,4.93201 H 9.323 L 10.646,0 H 9.733 L 8.889,3.67101 H 8.841 L 7.852,0 H 7.074 L 6.103,3.67101 H 6.052 L 5.208,0 H 4.289 l 1.322,4.93201 h 0.831 z"
       transform="translate(1.7420006,124.06799)"
       id="path7769"
       fill="#909090"
       fill-rule="evenodd"
       stroke="none"
       style="fill:#eb5757;fill-opacity:1" />
  </g>
  <g
     id="g7803"
     transform="translate(52.41004,4)"
     style="fill:#ff8c8c;fill-opacity:1">
    <path
       d="M 0,0 H 9 V 1 H 0 Z"
       transform="translate(2.5)"
       id="path7773"
       fill="#c0a000"
       fill-rule="evenodd"
       stroke="none"
       style="fill:#ff8c8c;fill-opacity:1" />
    <path
       d="M 0,0.00590897 V 4.93791 H 1.85 C 2.50848,4.98308 3.15223,4.72899 3.60236,4.24627 4.05249,3.76355 4.26102,3.10363 4.17001,2.44991 4.25185,1.80211 4.03861,1.15178 3.58908,0.678212 3.13954,0.204649 2.50118,-0.0421324 1.85,0.00590897 Z M 0.882004,0.767914 H 1.733 C 2.17666,0.745852 2.60679,0.924094 2.9048,1.2535 3.20282,1.5829 3.33723,2.02868 3.271,2.46791 c 0,1.1 -0.557,1.712 -1.538,1.712 H 0.882004 Z M 7.97,4.16592 H 5.707 V 0.00592041 H 4.825 V 4.93792 H 7.97 Z m 2.19,0.772 v -1.928 L 11.889,0.00992107 H 10.918 L 9.746,2.11492 H 9.688 L 8.512,0.00592041 H 7.54501 L 9.274,3.00592 v 1.932 z"
       transform="translate(1.3339996,7.0621033)"
       id="path7775"
       fill="#c0a000"
       fill-rule="evenodd"
       stroke="none"
       style="fill:#ff8c8c;fill-opacity:1" />
    <path
       d="M 0.879002,0.74361 H 1.879 C 2.11267,0.713963 2.34754,0.788803 2.52099,0.948177 2.69443,1.10755 2.78882,1.33527 2.779,1.57061 2.79502,1.80417 2.70501,2.03253 2.53394,2.19234 2.36287,2.35217 2.12893,2.42645 1.897,2.39461 H 0.879002 Z m 0,2.35199 H 1.855 l 0.969,1.848 H 3.832 L 2.755,2.9576 C 3.33548,2.74158 3.7109,2.17643 3.685,1.5576 3.7019,1.11761 3.52464,0.692415 3.2002,0.394739 2.87575,0.0970611 2.4369,-0.0430298 2,0.0116005 H 0 V 4.9436 H 0.882 Z M 6.655,4.9436 8.355,0.0115967 H 7.415 L 6.185,3.9116 H 6.128 L 4.887,0.0115967 H 3.913 L 5.635,4.9436 Z m 3.3,0 h 0.882 V 0.0115967 H 9.955 L 8.666,0.911596 V 1.7596 L 9.893,0.898596 h 0.062 z"
       transform="translate(1.5390015,16.056396)"
       id="path7777"
       fill="#c0a000"
       fill-rule="evenodd"
       stroke="none"
       style="fill:#ff8c8c;fill-opacity:1" />
    <path
       d="M 0,0.00226974 V 4.93427 h 0.882 v -1.617 h 1.07 C 2.40168,3.34565 2.8425,3.18311 3.1661,2.86959 3.48971,2.55606 3.66613,2.12062 3.652,1.67027 3.67768,1.22157 3.51105,0.783161 3.19382,0.46479 2.87659,0.146416 2.43879,-0.0217896 1.99,0.00226974 Z M 0.882,0.740269 H 1.757 C 2.01941,0.70092 2.28541,0.783611 2.47926,0.964798 2.67311,1.14598 2.77356,1.4058 2.752,1.67027 2.76783,1.93296 2.66432,2.18878 2.47026,2.36654 2.2762,2.5443 2.0123,2.62503 1.752,2.58627 H 0.880001 Z M 8.428,4.93426 V 0.0022583 H 7.549 V 2.04326 H 5.15 V 0.0022583 H 4.268 V 4.93426 H 5.15 v -2.129 h 2.4 v 2.129 z"
       transform="translate(2.880001,25.065735)"
       id="path7779"
       fill="#c0a000"
       fill-rule="evenodd"
       stroke="none"
       style="fill:#ff8c8c;fill-opacity:1" />
    <path
       d="M 0.879002,0.855732 H 1.879 C 2.11267,0.826084 2.34754,0.900925 2.52099,1.0603 2.69443,1.21968 2.78882,1.44739 2.779,1.68273 2.79502,1.91629 2.70501,2.14465 2.53394,2.30447 2.36287,2.46429 2.12893,2.53857 1.897,2.50673 H 0.879002 Z m 0,2.351998 H 1.857 l 0.967,1.848 H 3.833 L 2.756,3.06973 C 3.33648,2.85371 3.7119,2.28855 3.686,1.66972 3.70295,1.22954 3.52555,0.804157 3.20087,0.506439 2.8762,0.208725 2.43707,0.0687752 2,0.123726 H 0 V 5.05573 H 0.882 Z M 6.533,7.36237e-4 C 5.86294,-0.0161858 5.21883,0.260033 4.7692,0.757126 4.31956,1.25422 4.10915,1.92273 4.193,2.58774 4.10575,3.25381 4.31485,3.92466 4.7651,4.42321 5.21535,4.92176 5.8615,5.1979 6.533,5.17874 7.20219,5.19407 7.84467,4.91623 8.29183,4.41813 8.73898,3.92003 8.94617,3.2514 8.859,2.58774 8.94524,1.92464 8.73761,1.25694 8.29053,0.759689 7.84344,0.26244 7.20151,-0.0147667 6.533,7.36237e-4 Z m 0,0.783015763 c 0.875,0 1.425,0.699998 1.425,1.799998 0,1.1 -0.548,1.812 -1.425,1.812 -0.877,0 -1.436,-0.708 -1.436,-1.808 0,-1.1 0.556,-1.803998 1.436,-1.803998 z m 4.908,4.271998 v -4.17 h 1.521 V 0.123749 H 9.042 V 0.88575 h 1.518 v 4.17 z"
       transform="translate(0.7610016,33.944275)"
       id="path7781"
       fill="#c0a000"
       fill-rule="evenodd"
       stroke="none"
       style="fill:#ff8c8c;fill-opacity:1" />
    <path
       d="M 0,0.134464 V 5.06646 H 1.849 C 2.50765,5.11195 3.15169,4.858 3.60205,4.37524 4.05241,3.89248 4.26107,3.23237 4.17,2.57846 4.2519,1.93047 4.03854,1.27996 3.58876,0.806351 3.139,0.332745 2.50035,0.0861053 1.849,0.134464 Z m 0.882004,0.76202 H 1.733 C 2.17666,0.87442 2.60679,1.05266 2.9048,1.38206 3.20282,1.71147 3.33723,2.15724 3.271,2.59648 c 0,1.1 -0.557,1.712 -1.538,1.712 H 0.882004 Z M 5.825,5.06646 v -4.932 h -1 v 4.932 z M 6.348,3.72647 c 0.046,0.896 0.793,1.463 1.925,1.463 1.2,0 1.938,-0.6 1.938,-1.559 0,-0.752 -0.42,-1.169 -1.422,-1.395 l -0.567,-0.13 C 7.609,1.96647 7.36,1.77147 7.36,1.44047 7.36,1.02047 7.736,0.746471 8.303,0.746471 8.76587,0.688087 9.19527,0.997044 9.287,1.45447 h 0.844 C 10.0814,1.02084 9.86108,0.62484 9.51878,0.354042 9.17648,0.0832481 8.74041,-0.0400314 8.307,0.0114708 c -1.1,0 -1.835,0.5950012 -1.835,1.4899992 0,0.735 0.42,1.179 1.316,1.381 l 0.639,0.147 c 0.632,0.147 0.9,0.355 0.9,0.711 0,0.414 -0.41999,0.711 -1,0.711 -0.625,0 -1.063,-0.285 -1.117,-0.725 z m 6.613,1.33999 V 0.896461 h 1.521 V 0.13446 h -3.921 v 0.762001 h 1.518 V 5.06646 Z"
       transform="translate(0,42.933533)"
       id="path7783"
       fill="#c0a000"
       fill-rule="evenodd"
       stroke="none"
       style="fill:#ff8c8c;fill-opacity:1" />
    <path
       d="m 3.192,4.29369 h -2.31 v -1.381 h 2.184 v -0.718 H 0.882 V 0.885689 h 2.31 V 0.123688 H 0 V 5.05569 H 3.192 Z M 6.065,5.1787 C 6.35987,5.18073 6.65309,5.13445 6.933,5.04169 L 7.309,5.5647 H 8.192 L 7.579,4.65569 C 8.14901,4.1266 8.44806,3.36739 8.392,2.5917 8.47674,1.92834 8.26857,1.26096 7.82172,0.763412 7.37488,0.265869 6.73361,-0.0125504 6.065,6.94275e-4 5.39449,-0.0158005 4.75018,0.261208 4.30085,0.759163 3.85152,1.25711 3.64193,1.9264 3.727,2.5917 3.63932,3.25714 3.84812,3.92754 4.29815,4.4255 4.74819,4.92346 5.39411,5.19881 6.065,5.1787 Z m 0,-0.78302 c -0.878,0 -1.436,-0.69399 -1.436,-1.79999 0,-1.106 0.557,-1.808001 1.436,-1.808001 0.879,0 1.427,0.696001 1.427,1.804001 0.03713,0.47543 -0.12226,0.9453 -0.441,1.3 L 6.74,3.50169 H 5.892 l 0.591,0.841 C 6.34676,4.37947 6.2061,4.39731 6.065,4.39568 Z"
       transform="translate(3.0020027,51.944305)"
       id="path7785"
       fill="#c0a000"
       fill-rule="evenodd"
       stroke="none"
       style="fill:#ff8c8c;fill-opacity:1" />
    <path
       d="m 0.882,5.05569 v -2 H 2.95 v -0.735 H 0.882 V 0.885689 H 3.145 V 0.123688 H 0 V 5.05569 Z M 4.651,0.855705 h 1 C 5.88467,0.826057 6.11954,0.900894 6.29298,1.06027 6.46643,1.21964 6.56082,1.44736 6.55099,1.6827 6.56702,1.91626 6.47701,2.14462 6.30594,2.30444 6.13487,2.46426 5.90093,2.53854 5.669,2.50671 H 4.651 Z m 0,2.351995 H 5.629 L 6.596,5.05569 H 7.604 L 6.527,3.06969 C 7.10748,2.85368 7.48289,2.28852 7.457,1.66969 7.47391,1.22971 7.29664,0.80452 6.9722,0.506836 6.64776,0.20916 6.20891,0.0690613 5.772,0.123695 h -2 V 5.05569 h 0.882 z m 5.652,1.971 c 0.2949,0.00203 0.5881,-0.04425 0.868,-0.13701 l 0.376,0.52301 h 0.885 L 11.817,4.65569 C 12.387,4.1266 12.6861,3.36739 12.63,2.5917 12.7147,1.92834 12.5066,1.26096 12.0597,0.763412 11.6129,0.265869 10.9716,-0.0125427 10.303,6.94275e-4 9.63248,-0.0158005 8.98818,0.261208 8.53885,0.759163 8.08952,1.25711 7.87994,1.9264 7.965,2.5917 7.87732,3.25714 8.08611,3.92754 8.53616,4.4255 8.98619,4.92346 9.63211,5.19881 10.303,5.1787 Z m 0,-0.78302 c -0.878,0 -1.436,-0.69399 -1.436,-1.79999 0,-1.106 0.557,-1.808001 1.436,-1.808001 0.879,0 1.425,0.700001 1.425,1.808001 0.0371,0.47543 -0.1223,0.9453 -0.441,1.3 L 10.976,3.50568 h -0.848 l 0.591,0.84101 c -0.1358,0.03525 -0.2757,0.05174 -0.416,0.04899 z"
       transform="translate(0.88300323,60.944305)"
       id="path7787"
       fill="#c0a000"
       fill-rule="evenodd"
       stroke="none"
       style="fill:#ff8c8c;fill-opacity:1" />
    <path
       d="M 0,0.00598145 V 4.93798 H 1.849 C 2.50765,4.98347 3.15169,4.72952 3.60205,4.24676 4.05241,3.76399 4.26107,3.10389 4.17,2.44998 4.2519,1.80199 4.03853,1.15147 3.58876,0.677864 3.13899,0.204262 2.50035,-0.0423813 1.849,0.00598145 Z M 0.882,0.767975 h 0.851 c 0.44366,-0.022064 0.87379,0.156181 1.1718,0.485585 0.29802,0.3294 0.43243,0.77517 0.3662,1.21441 0,1.1 -0.557,1.712 -1.538,1.712 H 0.882 Z M 6.797,4.93798 v -1.928 L 8.526,0.00997925 H 7.561 L 6.387,2.11498 H 6.329 L 5.153,0.00598145 H 4.186 L 5.915,3.00598 v 1.932 z m 3.081,0 v -3.356 h 0.058 l 2.425,3.356 h 0.762 V 0.00598145 H 12.271 V 3.35898 H 12.213 L 9.793,0.00598145 H 9.027 V 4.93798 Z"
       transform="translate(0.53300095,70.06201)"
       id="path7789"
       fill="#c0a000"
       fill-rule="evenodd"
       stroke="none"
       style="fill:#ff8c8c;fill-opacity:1" />
    <path
       d="M 2.267,5.17705 C 3.30123,5.25944 4.21888,4.51758 4.355,3.48904 H 3.487 c -0.13028,0.55903 -0.64743,0.94054 -1.22,0.90001 -0.841,0 -1.364,-0.69001 -1.364,-1.8 0,-1.11 0.523,-1.800003 1.36,-1.800003 C 2.85414,0.768669 3.37195,1.18208 3.483,1.76305 H 4.351 C 4.22989,0.716553 3.31489,-0.0547104 2.263,0.00304413 0.862999,0.00304413 0,0.991043 0,2.59405 c 0,1.60299 0.868999,2.583 2.267,2.583 z M 9.143,5.05404 v -4.932 H 8.264 v 2.041 h -2.4 v -2.041 H 4.983 v 4.932 h 0.882 v -2.129 h 2.4 v 2.129 z"
       transform="translate(2.418003,78.94595)"
       id="path7791"
       fill="#c0a000"
       fill-rule="evenodd"
       stroke="none"
       style="fill:#ff8c8c;fill-opacity:1" />
    <path
       d="M 2.737,5.05566 4.443,0.123657 H 3.503 L 2.273,4.02366 H 2.215 L 0.973999,0.123657 H 0 L 1.722,5.05566 Z M 6.912,6.63757e-4 C 6.24245,-0.0153656 5.59917,0.261238 5.15022,0.758217 4.70127,1.2552 4.49123,1.92319 4.575,2.58766 4.48785,3.25321 4.69656,3.92354 5.14613,4.42197 5.5957,4.9204 6.24102,5.19693 6.912,5.17867 7.58154,5.19459 8.22457,4.91701 8.67218,4.41883 9.11979,3.92065 9.32722,3.25169 9.24,2.58766 9.3263,1.92421 9.11842,1.25616 8.67088,0.758842 8.22334,0.26152 7.58085,-0.0154343 6.912,6.63757e-4 Z m 0,0.782997243 c 0.875,0 1.425,0.700009 1.425,1.799999 0,1.1 -0.546,1.812 -1.425,1.812 -0.879,0 -1.436,-0.70799 -1.436,-1.808 0,-1.1 0.558,-1.803999 1.436,-1.803999 z m 5.044,4.394999 c 1.0342,0.08239 1.9519,-0.65946 2.088,-1.688 h -0.868 c -0.1303,0.55903 -0.6474,0.94054 -1.22,0.9 -0.841,0 -1.364,-0.69 -1.364,-1.79999 0,-1.11 0.523,-1.800005 1.36,-1.800005 0.5911,-0.020378 1.109,0.393025 1.22,0.973995 h 0.868 c -0.1211,-1.04649 -1.0361,-1.817753 -2.088,-1.75999844 -1.4,0 -2.263,0.98799944 -2.263,2.59099844 0,1.603 0.869,2.583 2.267,2.583 z"
       transform="translate(0.00900269,87.944336)"
       id="path7793"
       fill="#c0a000"
       fill-rule="evenodd"
       stroke="none"
       style="fill:#ff8c8c;fill-opacity:1" />
    <path
       d="M 0.878998,0.864403 H 1.879 C 2.11267,0.834755 2.34754,0.909592 2.52098,1.06897 2.69443,1.22834 2.78882,1.45605 2.779,1.6914 2.79502,1.92496 2.70501,2.15331 2.53394,2.31313 2.36287,2.47295 2.12893,2.54724 1.897,2.5154 H 0.878998 Z m 0,2.351987 H 1.857 l 0.965,1.848 h 1.01 L 2.756,3.07839 C 3.33648,2.86237 3.7119,2.29722 3.686,1.67839 3.70295,1.2382 3.52555,0.81282 3.20087,0.515106 2.8762,0.217392 2.43707,0.077446 2,0.132393 H 0 V 5.06439 H 0.882 Z M 6.651,5.06441 8.356,0.132416 H 7.416 L 6.186,4.03242 H 6.128 L 4.887,0.132416 H 3.913 L 5.636,5.06441 Z m 2.071,-3.49 v 0.014 h 0.827 v -0.014 C 9.539,1.34418 9.62777,1.12065 9.79299,0.960014 9.95821,0.799385 10.1842,0.716934 10.414,0.733406 c 0.2124,-0.018837 0.4232,0.050903 0.5824,0.192726 0.1592,0.141818 0.2528,0.343118 0.2586,0.556278 0,0.349 -0.167,0.6 -0.841,1.289 l -1.649,1.681 v 0.612 h 3.425 v -0.749 H 9.975 V 4.2574 l 1.032,-1.035 C 11.844,2.39541 12.114,1.95741 12.114,1.42841 12.0913,1.01337 11.8986,0.62603 11.5813,0.357536 11.264,0.0890427 10.8501,-0.0368805 10.437,0.00940704 9.99742,-0.0295181 9.56165,0.117645 9.23567,0.415115 8.90969,0.712585 8.72336,1.1331 8.722,1.57441 Z"
       transform="translate(1.0720024,96.93561)"
       id="path7795"
       fill="#c0a000"
       fill-rule="evenodd"
       stroke="none"
       style="fill:#ff8c8c;fill-opacity:1" />
    <path
       d="m 0.881996,4.93201 v -2 H 2.949 v -0.735 H 0.881996 V 0.762009 H 3.144 V 0 H 0 V 4.93201 Z M 6.91299,4.16 H 4.65 V 0 H 3.768 v 4.93201 h 3.14499 z"
       transform="translate(3.7710037,106.06799)"
       id="path7797"
       fill="#c0a000"
       fill-rule="evenodd"
       stroke="none"
       style="fill:#ff8c8c;fill-opacity:1" />
    <path
       d="M 0.879002,0.743729 H 1.879 C 2.11268,0.714081 2.34755,0.78891 2.52099,0.948288 2.69443,1.10767 2.78883,1.33539 2.779,1.57072 2.79502,1.80429 2.70501,2.03264 2.53394,2.19246 2.36288,2.35228 2.12894,2.42657 1.897,2.39473 H 0.879002 Z m 0,2.351991 H 1.857 L 2.82401,4.94373 H 3.832 L 2.756,2.95773 C 3.33648,2.7417 3.7119,2.17654 3.686,1.55772 3.70295,1.11754 3.52555,0.692154 3.20087,0.39444 2.87621,0.0967255 2.43707,-0.0432281 2,0.0117188 H 0 V 4.94373 H 0.882004 Z M 9.495,4.94373 V 0.0117188 H 8.46201 L 6.979,3.60373 H 6.917 L 5.43401,0.0117188 H 4.402 V 4.94373 h 0.82 v -3.469 H 5.27 l 1.364,3.278 h 0.629 l 1.363,-3.278 h 0.048 v 3.469 z"
       transform="translate(2.3479996,115.05627)"
       id="path7799"
       fill="#c0a000"
       fill-rule="evenodd"
       stroke="none"
       style="fill:#ff8c8c;fill-opacity:1" />
    <path
       d="M 3.552,4.93201 H 4.499 L 2.741,0 H 1.752 L 0,4.93201 H 0.892002 L 1.316,3.67101 H 3.131 Z M 2.202,0.940002 h 0.05 L 2.922,2.974 h -1.4 z M 7.444,1.44 H 7.495 L 8.496,4.93201 H 9.323 L 10.646,0 H 9.733 L 8.889,3.67101 H 8.841 L 7.852,0 H 7.074 L 6.103,3.67101 H 6.052 L 5.208,0 H 4.289 l 1.322,4.93201 h 0.831 z"
       transform="translate(1.7420006,124.06799)"
       id="path7801"
       fill="#c0a000"
       fill-rule="evenodd"
       stroke="none"
       style="fill:#ff8c8c;fill-opacity:1" />
  </g>
  <g
     id="g7835"
     transform="translate(69.41005,4)"
     style="fill:#eb5757;fill-opacity:1">
    <path
       d="M 0,0 H 9 V 1 H 0 Z"
       transform="translate(2.5)"
       id="path7805"
       fill="#a7907f"
       fill-rule="evenodd"
       stroke="none"
       style="fill:#eb5757;fill-opacity:1" />
    <path
       d="M 0,0.00590897 V 4.93791 H 1.85 C 2.50848,4.98308 3.15224,4.72899 3.60236,4.24627 4.05249,3.76355 4.26102,3.10363 4.17001,2.44991 4.25185,1.80211 4.03861,1.15178 3.58908,0.678212 3.13954,0.204649 2.50118,-0.0421324 1.85,0.00590897 Z M 0.882004,0.767914 H 1.733 C 2.17666,0.745852 2.60679,0.924094 2.9048,1.2535 3.20281,1.5829 3.33723,2.02868 3.271,2.46791 c 0,1.1 -0.557,1.712 -1.538,1.712 H 0.882004 Z M 7.97,4.16592 H 5.707 V 0.00592041 H 4.825 V 4.93792 H 7.97 Z m 2.19,0.772 v -1.928 L 11.889,0.00992107 H 10.918 L 9.74601,2.11492 h -0.058 L 8.512,0.00592041 H 7.54501 L 9.27401,3.00592 v 1.932 z"
       transform="translate(1.3340034,7.0621033)"
       id="path7807"
       fill="#a7907f"
       fill-rule="evenodd"
       stroke="none"
       style="fill:#eb5757;fill-opacity:1" />
    <path
       d="M 0.878998,0.74361 H 1.879 C 2.11268,0.713963 2.34754,0.788803 2.52099,0.948177 2.69443,1.10755 2.78883,1.33527 2.779,1.57061 2.79502,1.80417 2.70501,2.03253 2.53394,2.19234 2.36288,2.35217 2.12893,2.42645 1.897,2.39461 H 0.878998 Z m 0,2.35199 H 1.855 l 0.969,1.848 H 3.832 L 2.755,2.9576 C 3.33547,2.74158 3.7109,2.17643 3.685,1.5576 3.7019,1.11761 3.52464,0.692415 3.2002,0.394739 2.87576,0.0970611 2.4369,-0.0430298 1.99999,0.0116005 H 0 V 4.9436 H 0.881996 Z M 6.655,4.9436 8.355,0.0115967 H 7.415 L 6.185,3.9116 H 6.128 L 4.887,0.0115967 H 3.913 L 5.635,4.9436 Z m 3.3,0 h 0.882 V 0.0115967 H 9.955 L 8.666,0.911596 V 1.7596 L 9.89299,0.898596 H 9.955 Z"
       transform="translate(1.5390053,16.056396)"
       id="path7809"
       fill="#a7907f"
       fill-rule="evenodd"
       stroke="none"
       style="fill:#eb5757;fill-opacity:1" />
    <path
       d="M 0,0.00226974 V 4.93427 h 0.881996 v -1.617 H 1.952 C 2.40168,3.34565 2.84249,3.18311 3.1661,2.86959 3.48971,2.55606 3.66613,2.12062 3.652,1.67027 3.67767,1.22157 3.51105,0.783161 3.19382,0.46479 2.87659,0.146416 2.43879,-0.0217896 1.99,0.00226974 Z M 0.881996,0.740269 H 1.757 C 2.0194,0.70092 2.28541,0.783611 2.47926,0.964798 2.67311,1.14598 2.77356,1.4058 2.752,1.67027 2.76783,1.93296 2.66431,2.18878 2.47025,2.36654 2.27619,2.5443 2.0123,2.62503 1.752,2.58627 H 0.879997 Z M 8.428,4.93426 V 0.0022583 H 7.549 V 2.04326 H 5.15 V 0.0022583 H 4.268 V 4.93426 H 5.15 v -2.129 h 2.4 v 2.129 z"
       transform="translate(2.8800087,25.065735)"
       id="path7811"
       fill="#a7907f"
       fill-rule="evenodd"
       stroke="none"
       style="fill:#eb5757;fill-opacity:1" />
    <path
       d="M 0.878998,0.855732 H 1.879 C 2.11268,0.826084 2.34754,0.900925 2.52099,1.0603 2.69443,1.21968 2.78883,1.44739 2.779,1.68273 2.79502,1.91629 2.70501,2.14465 2.53394,2.30447 2.36288,2.46429 2.12893,2.53857 1.897,2.50673 H 0.878998 Z m 0,2.351998 H 1.857 l 0.967,1.848 H 3.833 L 2.756,3.06973 C 3.33647,2.85371 3.7119,2.28855 3.686,1.66972 3.70295,1.22954 3.52555,0.804157 3.20087,0.506439 2.8762,0.208725 2.43707,0.0687752 2,0.123726 H 0 V 5.05573 H 0.881996 Z M 6.533,7.36237e-4 C 5.86294,-0.0161858 5.21883,0.260033 4.7692,0.757126 4.31956,1.25422 4.10915,1.92273 4.193,2.58774 4.10575,3.25381 4.31485,3.92466 4.7651,4.42321 5.21535,4.92176 5.8615,5.1979 6.533,5.17874 7.20219,5.19407 7.84467,4.91623 8.29183,4.41813 8.73898,3.92003 8.94617,3.2514 8.859,2.58774 8.94524,1.92464 8.73761,1.25694 8.29053,0.759689 7.84344,0.26244 7.20151,-0.0147667 6.533,7.36237e-4 Z m 0,0.783015763 c 0.875,0 1.425,0.699998 1.425,1.799998 0,1.1 -0.548,1.812 -1.425,1.812 -0.877,0 -1.436,-0.708 -1.436,-1.808 0,-1.1 0.556,-1.803998 1.436,-1.803998 z m 4.908,4.271998 v -4.17 h 1.521 V 0.123749 H 9.042 V 0.88575 h 1.518 v 4.17 z"
       transform="translate(0.7610054,33.944275)"
       id="path7813"
       fill="#a7907f"
       fill-rule="evenodd"
       stroke="none"
       style="fill:#eb5757;fill-opacity:1" />
    <path
       d="M 0,0.134464 V 5.06646 H 1.849 C 2.50765,5.11195 3.15169,4.858 3.60205,4.37524 4.05241,3.89248 4.26106,3.23237 4.17001,2.57846 4.2519,1.93047 4.03854,1.27996 3.58877,0.806351 3.13899,0.332745 2.50035,0.0861053 1.849,0.134464 Z m 0.882004,0.76202 H 1.733 C 2.17666,0.87442 2.60679,1.05266 2.9048,1.38206 3.20281,1.71147 3.33723,2.15724 3.271,2.59648 c 0,1.1 -0.557,1.712 -1.538,1.712 H 0.882004 Z M 5.825,5.06646 v -4.932 h -1 v 4.932 z M 6.348,3.72647 c 0.046,0.896 0.793,1.463 1.925,1.463 1.2,0 1.938,-0.6 1.938,-1.559 0,-0.752 -0.42,-1.169 -1.422,-1.395 l -0.567,-0.13 C 7.609,1.96647 7.36,1.77147 7.36,1.44047 7.36,1.02047 7.736,0.746471 8.303,0.746471 8.76587,0.688087 9.19527,0.997044 9.287,1.45447 h 0.844 C 10.0814,1.02084 9.86108,0.62484 9.51878,0.354042 9.17648,0.0832481 8.74041,-0.0400314 8.307,0.0114708 c -1.1,0 -1.835,0.5950012 -1.835,1.4899992 0,0.735 0.42,1.179 1.316,1.381 l 0.639,0.147 c 0.632,0.147 0.9,0.355 0.9,0.711 0,0.414 -0.41999,0.711 -1,0.711 -0.625,0 -1.063,-0.285 -1.117,-0.725 z m 6.613,1.33999 V 0.896461 h 1.521 V 0.13446 h -3.921 v 0.762001 h 1.518 V 5.06646 Z"
       transform="translate(0,42.933533)"
       id="path7815"
       fill="#a7907f"
       fill-rule="evenodd"
       stroke="none"
       style="fill:#eb5757;fill-opacity:1" />
    <path
       d="M 3.192,4.29369 H 0.882004 v -1.381 H 3.066 v -0.718 H 0.882004 V 0.885689 H 3.192 V 0.123688 H 0 V 5.05569 H 3.192 Z M 6.06501,5.1787 C 6.35988,5.18073 6.6531,5.13445 6.93301,5.04169 l 0.376,0.52301 h 0.883 L 7.57901,4.65569 C 8.14901,4.1266 8.44806,3.36739 8.39201,2.5917 8.47675,1.92834 8.26857,1.26096 7.82173,0.763412 7.37489,0.265869 6.73362,-0.0125504 6.06501,6.94275e-4 5.3945,-0.0158005 4.75019,0.261208 4.30086,0.759163 3.85153,1.25711 3.64194,1.9264 3.72701,2.5917 3.63932,3.25714 3.84813,3.92754 4.29816,4.4255 4.7482,4.92346 5.39412,5.19881 6.06501,5.1787 Z m 0,-0.78302 c -0.878,0 -1.436,-0.69399 -1.436,-1.79999 0,-1.106 0.557,-1.808001 1.436,-1.808001 0.87899,0 1.427,0.696001 1.427,1.804001 0.03713,0.47543 -0.12226,0.9453 -0.441,1.3 l -0.311,-0.39 h -0.848 l 0.591,0.841 c -0.13624,0.03678 -0.2769,0.05462 -0.418,0.05299 z"
       transform="translate(3.0020027,51.944305)"
       id="path7817"
       fill="#a7907f"
       fill-rule="evenodd"
       stroke="none"
       style="fill:#eb5757;fill-opacity:1" />
    <path
       d="m 0.881996,5.05569 v -2 H 2.95 v -0.735 H 0.881996 V 0.885689 H 3.145 V 0.123688 H 0 V 5.05569 Z M 4.651,0.855705 h 1 C 5.88467,0.826057 6.11954,0.900894 6.29298,1.06027 6.46643,1.21964 6.56082,1.44736 6.55099,1.6827 6.56702,1.91626 6.47701,2.14462 6.30594,2.30444 6.13487,2.46426 5.90093,2.53854 5.669,2.50671 H 4.651 Z m 0,2.351995 H 5.629 L 6.596,5.05569 H 7.604 L 6.527,3.06969 C 7.10748,2.85368 7.48289,2.28852 7.457,1.66969 7.47391,1.22971 7.29664,0.80452 6.9722,0.506836 6.64776,0.20916 6.20891,0.0690613 5.772,0.123695 h -2 V 5.05569 h 0.882 z m 5.652,1.971 c 0.2949,0.00203 0.5881,-0.04425 0.868,-0.13701 l 0.376,0.52301 h 0.885 L 11.817,4.65569 C 12.387,4.1266 12.6861,3.36739 12.63,2.5917 12.7147,1.92834 12.5066,1.26096 12.0597,0.763412 11.6129,0.265869 10.9716,-0.0125427 10.303,6.94275e-4 9.63249,-0.0158005 8.98819,0.261208 8.53885,0.759163 8.08953,1.25711 7.87994,1.9264 7.965,2.5917 7.87732,3.25714 8.08612,3.92754 8.53616,4.4255 8.98619,4.92346 9.63211,5.19881 10.303,5.1787 Z m 0,-0.78302 c -0.878,0 -1.436,-0.69399 -1.436,-1.79999 0,-1.106 0.557,-1.808001 1.436,-1.808001 0.879,0 1.425,0.700001 1.425,1.808001 0.0371,0.47543 -0.1223,0.9453 -0.441,1.3 L 10.976,3.50568 h -0.848 l 0.591,0.84101 c -0.1358,0.03525 -0.2757,0.05174 -0.416,0.04899 z"
       transform="translate(0.8829994,60.944305)"
       id="path7819"
       fill="#a7907f"
       fill-rule="evenodd"
       stroke="none"
       style="fill:#eb5757;fill-opacity:1" />
    <path
       d="M 0,0.00598145 V 4.93798 H 1.849 C 2.50764,4.98347 3.15169,4.72952 3.60204,4.24676 4.05241,3.76399 4.26106,3.10389 4.17,2.44998 4.25189,1.80199 4.03853,1.15147 3.58876,0.677864 3.13899,0.204262 2.50034,-0.0423813 1.84899,0.00598145 Z M 0.881996,0.767975 H 1.73299 c 0.44366,-0.022064 0.8738,0.156181 1.17181,0.485585 0.29801,0.3294 0.43243,0.77517 0.3662,1.21441 0,1.1 -0.557,1.712 -1.53801,1.712 H 0.881996 Z M 6.797,4.93798 v -1.928 L 8.52599,0.00997925 H 7.561 L 6.38699,2.11498 h -0.058 L 5.153,0.00598145 H 4.186 L 5.91499,3.00598 v 1.932 z m 3.081,0 v -3.356 h 0.058 l 2.425,3.356 h 0.762 V 0.00598145 H 12.271 V 3.35898 H 12.213 L 9.793,0.00598145 H 9.027 V 4.93798 Z"
       transform="translate(0.5330086,70.06201)"
       id="path7821"
       fill="#a7907f"
       fill-rule="evenodd"
       stroke="none"
       style="fill:#eb5757;fill-opacity:1" />
    <path
       d="M 2.26701,5.17705 C 3.30123,5.25944 4.21888,4.51758 4.355,3.48904 H 3.487 C 3.35673,4.04807 2.83957,4.42958 2.26701,4.38905 1.426,4.38905 0.903,3.69904 0.903,2.58905 c 0,-1.11 0.523,-1.800003 1.36,-1.800003 C 2.85414,0.768669 3.37196,1.18208 3.483,1.76305 H 4.35101 C 4.22989,0.716553 3.3149,-0.0547104 2.263,0.00304413 0.862999,0.00304413 0,0.991043 0,2.59405 c 0,1.60299 0.869003,2.583 2.26701,2.583 z M 9.143,5.05404 v -4.932 H 8.264 v 2.041 h -2.4 v -2.041 H 4.983 v 4.932 h 0.882 v -2.129 h 2.4 v 2.129 z"
       transform="translate(2.418003,78.94595)"
       id="path7823"
       fill="#a7907f"
       fill-rule="evenodd"
       stroke="none"
       style="fill:#eb5757;fill-opacity:1" />
    <path
       d="M 2.737,5.05566 4.443,0.123657 H 3.503 L 2.273,4.02366 H 2.215 L 0.973999,0.123657 H 0 L 1.722,5.05566 Z M 6.912,6.63757e-4 C 6.24245,-0.0153656 5.59917,0.261238 5.15022,0.758217 4.70126,1.2552 4.49123,1.92319 4.575,2.58766 4.48785,3.25321 4.69656,3.92354 5.14613,4.42197 5.5957,4.9204 6.24102,5.19693 6.912,5.17867 7.58154,5.19459 8.22457,4.91701 8.67218,4.41883 9.11979,3.92065 9.32722,3.25169 9.24,2.58766 9.3263,1.92421 9.11842,1.25616 8.67088,0.758842 8.22334,0.26152 7.58085,-0.0154343 6.912,6.63757e-4 Z m 0,0.782997243 c 0.875,0 1.425,0.700009 1.425,1.799999 0,1.1 -0.546,1.812 -1.425,1.812 -0.879,0 -1.436,-0.70799 -1.436,-1.808 0,-1.1 0.558,-1.803999 1.436,-1.803999 z m 5.044,4.394999 c 1.0342,0.08239 1.9519,-0.65946 2.088,-1.688 h -0.868 c -0.1303,0.55903 -0.6474,0.94054 -1.22,0.9 -0.841,0 -1.364,-0.69 -1.364,-1.79999 0,-1.11 0.523,-1.800005 1.36,-1.800005 0.5911,-0.020378 1.109,0.393025 1.22,0.973995 h 0.868 c -0.1211,-1.04649 -1.0361,-1.817753 -2.088,-1.75999844 -1.4,0 -2.263,0.98799944 -2.263,2.59099844 0,1.603 0.869,2.583 2.267,2.583 z"
       transform="translate(0.00900269,87.944336)"
       id="path7825"
       fill="#a7907f"
       fill-rule="evenodd"
       stroke="none"
       style="fill:#eb5757;fill-opacity:1" />
    <path
       d="M 0.879005,0.864403 H 1.87901 C 2.11268,0.834755 2.34755,0.909592 2.52099,1.06897 2.69444,1.22834 2.78883,1.45605 2.77901,1.6914 2.79502,1.92496 2.70502,2.15331 2.53394,2.31313 2.36288,2.47295 2.12894,2.54724 1.897,2.5154 H 0.879005 Z m 0,2.351987 H 1.857 l 0.96501,1.848 H 3.832 L 2.756,3.07839 C 3.33648,2.86237 3.7119,2.29722 3.686,1.67839 3.70295,1.2382 3.52556,0.81282 3.20088,0.515106 2.87621,0.217392 2.43707,0.077446 2,0.132393 H 0 V 5.06439 H 0.882004 Z M 6.651,5.06441 8.356,0.132416 H 7.416 L 6.186,4.03242 H 6.12801 L 4.887,0.132416 H 3.913 L 5.636,5.06441 Z m 2.071,-3.49 v 0.014 h 0.827 v -0.014 C 9.539,1.34418 9.62777,1.12065 9.79299,0.960014 9.95821,0.799385 10.1842,0.716934 10.414,0.733406 c 0.2124,-0.018837 0.4232,0.050903 0.5824,0.192726 0.1592,0.141818 0.2528,0.343118 0.2586,0.556278 0,0.349 -0.167,0.6 -0.841,1.289 l -1.649,1.681 v 0.612 h 3.425 v -0.749 H 9.975 V 4.2574 l 1.032,-1.035 C 11.844,2.39541 12.114,1.95741 12.114,1.42841 12.0913,1.01337 11.8986,0.62603 11.5813,0.357536 11.264,0.0890427 10.8501,-0.0368805 10.437,0.00940704 9.99742,-0.0295181 9.56165,0.117645 9.23567,0.415115 8.90969,0.712585 8.72336,1.1331 8.722,1.57441 Z"
       transform="translate(1.0719948,96.93561)"
       id="path7827"
       fill="#a7907f"
       fill-rule="evenodd"
       stroke="none"
       style="fill:#eb5757;fill-opacity:1" />
    <path
       d="m 0.881996,4.93201 v -2 H 2.949 v -0.735 H 0.881996 V 0.762009 H 3.144 V 0 H 0 V 4.93201 Z M 6.913,4.16 H 4.65001 V 0 H 3.768 v 4.93201 h 3.145 z"
       transform="translate(3.771,106.06799)"
       id="path7829"
       fill="#a7907f"
       fill-rule="evenodd"
       stroke="none"
       style="fill:#eb5757;fill-opacity:1" />
    <path
       d="M 0.879005,0.743729 H 1.87901 C 2.11268,0.714081 2.34754,0.78891 2.52099,0.948288 2.69444,1.10767 2.78883,1.33539 2.779,1.57072 2.79502,1.80429 2.70502,2.03264 2.53394,2.19246 2.36288,2.35228 2.12894,2.42657 1.897,2.39473 H 0.879005 Z m 0,2.351991 H 1.857 L 2.82401,4.94373 H 3.832 L 2.756,2.95773 C 3.33648,2.7417 3.7119,2.17654 3.686,1.55772 3.70295,1.11754 3.52555,0.692154 3.20087,0.39444 2.87621,0.0967255 2.43707,-0.0432281 2,0.0117188 H 0 V 4.94373 H 0.882004 Z M 9.49501,4.94373 V 0.0117188 h -1.033 L 6.97901,3.60373 H 6.917 L 5.43401,0.0117188 H 4.402 V 4.94373 h 0.82 v -3.469 h 0.04801 l 1.364,3.278 H 7.263 l 1.363,-3.278 h 0.04801 v 3.469 z"
       transform="translate(2.3479958,115.05627)"
       id="path7831"
       fill="#a7907f"
       fill-rule="evenodd"
       stroke="none"
       style="fill:#eb5757;fill-opacity:1" />
    <path
       d="M 3.55199,4.93201 H 4.499 L 2.741,0 H 1.752 L 0,4.93201 H 0.891998 L 1.31599,3.67101 H 3.131 Z M 2.202,0.940002 h 0.05 L 2.922,2.974 h -1.4 z M 7.444,1.44 H 7.495 L 8.49599,4.93201 H 9.323 L 10.646,0 H 9.73299 L 8.889,3.67101 H 8.841 L 7.852,0 H 7.074 L 6.103,3.67101 H 6.05199 L 5.208,0 H 4.28899 L 5.611,4.93201 h 0.83099 z"
       transform="translate(1.7420082,124.06799)"
       id="path7833"
       fill="#a7907f"
       fill-rule="evenodd"
       stroke="none"
       style="fill:#eb5757;fill-opacity:1" />
  </g>
  <g
     id="g7867"
     transform="translate(86.41005,4)"
     style="fill:#ff8c8c;fill-opacity:1">
    <path
       d="M 0,0 H 9 V 1 H 0 Z"
       transform="translate(2.5)"
       id="path7837"
       fill="#d0b020"
       fill-rule="evenodd"
       stroke="none"
       style="fill:#ff8c8c;fill-opacity:1" />
    <path
       d="M 0,0.00590897 V 4.93791 H 1.85 C 2.50848,4.98308 3.15224,4.72899 3.60236,4.24627 4.05249,3.76355 4.26102,3.10363 4.17001,2.44991 4.25185,1.80211 4.03861,1.15178 3.58908,0.678212 3.13954,0.204649 2.50118,-0.0421324 1.85,0.00590897 Z M 0.882004,0.767914 H 1.733 C 2.17666,0.745852 2.60679,0.924094 2.9048,1.2535 3.20281,1.5829 3.33723,2.02868 3.271,2.46791 c 0,1.1 -0.557,1.712 -1.538,1.712 H 0.882004 Z M 7.97,4.16592 H 5.707 V 0.00592041 H 4.825 V 4.93792 H 7.97 Z m 2.19,0.772 v -1.928 L 11.889,0.00992107 H 10.918 L 9.746,2.11492 H 9.688 L 8.512,0.00592041 H 7.54501 L 9.274,3.00592 v 1.932 z"
       transform="translate(1.3339996,7.0621033)"
       id="path7839"
       fill="#d0b020"
       fill-rule="evenodd"
       stroke="none"
       style="fill:#ff8c8c;fill-opacity:1" />
    <path
       d="M 0.878998,0.74361 H 1.879 C 2.11268,0.713963 2.34754,0.788803 2.52099,0.948177 2.69443,1.10755 2.78883,1.33527 2.779,1.57061 2.79502,1.80417 2.70501,2.03253 2.53394,2.19234 2.36288,2.35217 2.12893,2.42645 1.897,2.39461 H 0.878998 Z m 0,2.35199 H 1.855 l 0.969,1.848 H 3.832 L 2.755,2.9576 C 3.33547,2.74158 3.7109,2.17643 3.685,1.5576 3.7019,1.11761 3.52464,0.692415 3.2002,0.394739 2.87576,0.0970611 2.4369,-0.0430298 1.99999,0.0116005 H 0 V 4.9436 H 0.881996 Z M 6.655,4.9436 8.355,0.0115967 H 7.415 L 6.185,3.9116 H 6.128 L 4.887,0.0115967 H 3.913 L 5.635,4.9436 Z m 3.3,0 h 0.882 V 0.0115967 H 9.955 L 8.666,0.911596 V 1.7596 L 9.893,0.898596 h 0.062 z"
       transform="translate(1.5390015,16.056396)"
       id="path7841"
       fill="#d0b020"
       fill-rule="evenodd"
       stroke="none"
       style="fill:#ff8c8c;fill-opacity:1" />
    <path
       d="M 0,0.00226974 V 4.93427 h 0.881996 v -1.617 H 1.952 C 2.40168,3.34565 2.84249,3.18311 3.1661,2.86959 3.48971,2.55606 3.66613,2.12062 3.652,1.67027 3.67767,1.22157 3.51105,0.783161 3.19382,0.46479 2.87659,0.146416 2.43879,-0.0217896 1.99,0.00226974 Z M 0.881996,0.740269 H 1.757 C 2.0194,0.70092 2.28541,0.783611 2.47926,0.964798 2.67311,1.14598 2.77356,1.4058 2.752,1.67027 2.76783,1.93296 2.66431,2.18878 2.47025,2.36654 2.27619,2.5443 2.0123,2.62503 1.752,2.58627 H 0.879997 Z M 8.42799,4.93426 V 0.0022583 H 7.549 V 2.04326 H 5.14999 V 0.0022583 H 4.268 V 4.93426 h 0.88199 v -2.129 H 7.55 v 2.129 z"
       transform="translate(2.880005,25.065735)"
       id="path7843"
       fill="#d0b020"
       fill-rule="evenodd"
       stroke="none"
       style="fill:#ff8c8c;fill-opacity:1" />
    <path
       d="M 0.878998,0.855732 H 1.879 C 2.11268,0.826084 2.34754,0.900925 2.52099,1.0603 2.69443,1.21968 2.78883,1.44739 2.779,1.68273 2.79502,1.91629 2.70501,2.14465 2.53394,2.30447 2.36288,2.46429 2.12893,2.53857 1.897,2.50673 H 0.878998 Z m 0,2.351998 H 1.857 l 0.967,1.848 H 3.833 L 2.756,3.06973 C 3.33647,2.85371 3.7119,2.28855 3.686,1.66972 3.70295,1.22954 3.52555,0.804157 3.20087,0.506439 2.8762,0.208725 2.43707,0.0687752 2,0.123726 H 0 V 5.05573 H 0.881996 Z M 6.533,7.36237e-4 C 5.86294,-0.0161858 5.21883,0.260033 4.7692,0.757126 4.31956,1.25422 4.10915,1.92273 4.193,2.58774 4.10575,3.25381 4.31485,3.92466 4.7651,4.42321 5.21535,4.92176 5.8615,5.1979 6.533,5.17874 7.20219,5.19407 7.84467,4.91623 8.29183,4.41813 8.73898,3.92003 8.94617,3.2514 8.859,2.58774 8.94524,1.92464 8.73761,1.25694 8.29053,0.759689 7.84344,0.26244 7.20151,-0.0147667 6.533,7.36237e-4 Z m 0,0.783015763 c 0.875,0 1.425,0.699998 1.425,1.799998 0,1.1 -0.548,1.812 -1.425,1.812 -0.877,0 -1.436,-0.708 -1.436,-1.808 0,-1.1 0.556,-1.803998 1.436,-1.803998 z m 4.908,4.271998 v -4.17 h 1.521 V 0.123749 H 9.042 V 0.88575 h 1.518 v 4.17 z"
       transform="translate(0.7610016,33.944275)"
       id="path7845"
       fill="#d0b020"
       fill-rule="evenodd"
       stroke="none"
       style="fill:#ff8c8c;fill-opacity:1" />
    <path
       d="M 0,0.134464 V 5.06646 H 1.849 C 2.50765,5.11195 3.15169,4.858 3.60205,4.37524 4.05241,3.89248 4.26106,3.23237 4.17001,2.57846 4.2519,1.93047 4.03854,1.27996 3.58877,0.806351 3.13899,0.332745 2.50035,0.0861053 1.849,0.134464 Z m 0.882004,0.76202 H 1.733 C 2.17666,0.87442 2.60679,1.05266 2.9048,1.38206 3.20281,1.71147 3.33723,2.15724 3.271,2.59648 c 0,1.1 -0.557,1.712 -1.538,1.712 H 0.882004 Z M 5.825,5.06646 v -4.932 h -1 v 4.932 z M 6.348,3.72647 c 0.046,0.896 0.793,1.463 1.925,1.463 1.2,0 1.938,-0.6 1.938,-1.559 0,-0.752 -0.42,-1.169 -1.422,-1.395 l -0.567,-0.13 C 7.609,1.96647 7.36,1.77147 7.36,1.44047 7.36,1.02047 7.736,0.746471 8.303,0.746471 8.76587,0.688087 9.19527,0.997044 9.287,1.45447 h 0.844 C 10.0814,1.02084 9.86108,0.62484 9.51878,0.354042 9.17648,0.0832481 8.74041,-0.0400314 8.307,0.0114708 c -1.1,0 -1.835,0.5950012 -1.835,1.4899992 0,0.735 0.42,1.179 1.316,1.381 l 0.639,0.147 c 0.632,0.147 0.9,0.355 0.9,0.711 0,0.414 -0.41999,0.711 -1,0.711 -0.625,0 -1.063,-0.285 -1.117,-0.725 z m 6.613,1.33999 V 0.896461 h 1.521 V 0.13446 h -3.921 v 0.762001 h 1.518 V 5.06646 Z"
       transform="translate(0,42.933533)"
       id="path7847"
       fill="#d0b020"
       fill-rule="evenodd"
       stroke="none"
       style="fill:#ff8c8c;fill-opacity:1" />
    <path
       d="M 3.192,4.29369 H 0.882004 v -1.381 H 3.066 v -0.718 H 0.882004 V 0.885689 H 3.192 V 0.123688 H 0 V 5.05569 H 3.192 Z M 6.065,5.1787 C 6.35988,5.18073 6.65309,5.13445 6.93301,5.04169 l 0.376,0.52301 H 8.192 L 7.579,4.65569 C 8.14901,4.1266 8.44806,3.36739 8.39201,2.5917 8.47675,1.92834 8.26857,1.26096 7.82172,0.763412 7.37489,0.265869 6.73361,-0.0125504 6.065,6.94275e-4 5.39449,-0.0158005 4.75018,0.261208 4.30086,0.759163 3.85152,1.25711 3.64194,1.9264 3.72701,2.5917 3.63932,3.25714 3.84812,3.92754 4.29816,4.4255 4.74819,4.92346 5.39411,5.19881 6.065,5.1787 Z m 0,-0.78302 c -0.878,0 -1.43599,-0.69399 -1.43599,-1.79999 0,-1.106 0.55699,-1.808001 1.43599,-1.808001 0.879,0 1.427,0.696001 1.427,1.804001 0.03714,0.47543 -0.12226,0.9453 -0.441,1.3 l -0.31099,-0.39 h -0.848 L 6.483,4.34269 C 6.34676,4.37947 6.20611,4.39731 6.065,4.39568 Z"
       transform="translate(3.001999,51.944305)"
       id="path7849"
       fill="#d0b020"
       fill-rule="evenodd"
       stroke="none"
       style="fill:#ff8c8c;fill-opacity:1" />
    <path
       d="m 0.881996,5.05569 v -2 H 2.95 v -0.735 H 0.881996 V 0.885689 H 3.145 V 0.123688 H 0 V 5.05569 Z M 4.651,0.855705 h 1 C 5.88467,0.826057 6.11954,0.900894 6.29298,1.06027 6.46643,1.21964 6.56082,1.44736 6.55099,1.6827 6.56702,1.91626 6.47701,2.14462 6.30594,2.30444 6.13487,2.46426 5.90093,2.53854 5.669,2.50671 H 4.651 Z m 0,2.351995 H 5.629 L 6.596,5.05569 H 7.604 L 6.527,3.06969 C 7.10748,2.85368 7.48289,2.28852 7.457,1.66969 7.47391,1.22971 7.29664,0.80452 6.9722,0.506836 6.64776,0.20916 6.20891,0.0690613 5.772,0.123695 h -2 V 5.05569 h 0.882 z m 5.652,1.971 c 0.2949,0.00203 0.5881,-0.04425 0.868,-0.13701 l 0.376,0.52301 h 0.885 L 11.817,4.65569 C 12.387,4.1266 12.6861,3.36739 12.63,2.5917 12.7147,1.92834 12.5066,1.26096 12.0597,0.763412 11.6129,0.265869 10.9716,-0.0125427 10.303,6.94275e-4 9.63248,-0.0158005 8.98818,0.261208 8.53885,0.759163 8.08952,1.25711 7.87994,1.9264 7.965,2.5917 7.87732,3.25714 8.08611,3.92754 8.53616,4.4255 8.98619,4.92346 9.63211,5.19881 10.303,5.1787 Z m 0,-0.78302 c -0.878,0 -1.436,-0.69399 -1.436,-1.79999 0,-1.106 0.557,-1.808001 1.436,-1.808001 0.879,0 1.425,0.700001 1.425,1.808001 0.0371,0.47543 -0.1223,0.9453 -0.441,1.3 L 10.976,3.50568 h -0.848 l 0.591,0.84101 c -0.1358,0.03525 -0.2757,0.05174 -0.416,0.04899 z"
       transform="translate(0.88300323,60.944305)"
       id="path7851"
       fill="#d0b020"
       fill-rule="evenodd"
       stroke="none"
       style="fill:#ff8c8c;fill-opacity:1" />
    <path
       d="M 0,0.00598145 V 4.93798 H 1.849 C 2.50764,4.98347 3.15169,4.72952 3.60204,4.24676 4.05241,3.76399 4.26106,3.10389 4.17,2.44998 4.25189,1.80199 4.03853,1.15147 3.58876,0.677864 3.13899,0.204262 2.50034,-0.0423813 1.84899,0.00598145 Z M 0.881996,0.767975 H 1.73299 c 0.44366,-0.022064 0.8738,0.156181 1.17181,0.485585 0.29801,0.3294 0.43243,0.77517 0.3662,1.21441 0,1.1 -0.557,1.712 -1.53801,1.712 H 0.881996 Z M 6.797,4.93798 v -1.928 L 8.52599,0.00997925 H 7.561 L 6.38699,2.11498 h -0.058 L 5.153,0.00598145 H 4.186 L 5.91499,3.00598 v 1.932 z m 3.081,0 v -3.356 h 0.058 l 2.425,3.356 h 0.762 V 0.00598145 H 12.271 V 3.35898 H 12.213 L 9.793,0.00598145 H 9.027 V 4.93798 Z"
       transform="translate(0.53300476,70.06201)"
       id="path7853"
       fill="#d0b020"
       fill-rule="evenodd"
       stroke="none"
       style="fill:#ff8c8c;fill-opacity:1" />
    <path
       d="M 2.26701,5.17705 C 3.30123,5.25944 4.21888,4.51758 4.355,3.48904 H 3.487 C 3.35673,4.04807 2.83957,4.42958 2.26701,4.38905 1.426,4.38905 0.903,3.69904 0.903,2.58905 c 0,-1.11 0.523,-1.800003 1.36,-1.800003 C 2.85414,0.768669 3.37196,1.18208 3.483,1.76305 H 4.35101 C 4.22989,0.716553 3.3149,-0.0547104 2.263,0.00304413 0.862999,0.00304413 0,0.991043 0,2.59405 c 0,1.60299 0.869003,2.583 2.26701,2.583 z m 6.876,-0.12301 v -4.932 H 8.264 v 2.041 H 5.86401 v -2.041 H 4.983 v 4.932 h 0.88201 v -2.129 H 8.265 v 2.129 z"
       transform="translate(2.4179993,78.94595)"
       id="path7855"
       fill="#d0b020"
       fill-rule="evenodd"
       stroke="none"
       style="fill:#ff8c8c;fill-opacity:1" />
    <path
       d="M 2.737,5.05566 4.443,0.123657 H 3.503 L 2.273,4.02366 H 2.215 L 0.973999,0.123657 H 0 L 1.722,5.05566 Z M 6.912,6.63757e-4 C 6.24245,-0.0153656 5.59917,0.261238 5.15022,0.758217 4.70126,1.2552 4.49123,1.92319 4.575,2.58766 4.48785,3.25321 4.69656,3.92354 5.14613,4.42197 5.5957,4.9204 6.24102,5.19693 6.912,5.17867 7.58154,5.19459 8.22457,4.91701 8.67218,4.41883 9.11979,3.92065 9.32722,3.25169 9.24,2.58766 9.3263,1.92421 9.11842,1.25616 8.67088,0.758842 8.22334,0.26152 7.58085,-0.0154343 6.912,6.63757e-4 Z m 0,0.782997243 c 0.875,0 1.425,0.700009 1.425,1.799999 0,1.1 -0.546,1.812 -1.425,1.812 -0.879,0 -1.436,-0.70799 -1.436,-1.808 0,-1.1 0.558,-1.803999 1.436,-1.803999 z m 5.044,4.394999 c 1.0342,0.08239 1.9519,-0.65946 2.088,-1.688 h -0.868 c -0.1303,0.55903 -0.6474,0.94054 -1.22,0.9 -0.841,0 -1.364,-0.69 -1.364,-1.79999 0,-1.11 0.523,-1.800005 1.36,-1.800005 0.5911,-0.020378 1.109,0.393025 1.22,0.973995 h 0.868 c -0.1211,-1.04649 -1.0361,-1.817753 -2.088,-1.75999844 -1.4,0 -2.263,0.98799944 -2.263,2.59099844 0,1.603 0.869,2.583 2.267,2.583 z"
       transform="translate(0.00900269,87.944336)"
       id="path7857"
       fill="#d0b020"
       fill-rule="evenodd"
       stroke="none"
       style="fill:#ff8c8c;fill-opacity:1" />
    <path
       d="M 0.879005,0.864403 H 1.87901 C 2.11268,0.834755 2.34755,0.909592 2.52099,1.06897 2.69444,1.22834 2.78883,1.45605 2.77901,1.6914 2.79502,1.92496 2.70502,2.15331 2.53394,2.31313 2.36288,2.47295 2.12894,2.54724 1.897,2.5154 H 0.879005 Z m 0,2.351987 H 1.857 l 0.96501,1.848 H 3.832 L 2.756,3.07839 C 3.33648,2.86237 3.7119,2.29722 3.686,1.67839 3.70295,1.2382 3.52556,0.81282 3.20088,0.515106 2.87621,0.217392 2.43707,0.077446 2,0.132393 H 0 V 5.06439 H 0.882004 Z M 6.651,5.06441 8.356,0.132416 H 7.416 L 6.186,4.03242 H 6.12801 L 4.887,0.132416 H 3.913 L 5.636,5.06441 Z m 2.071,-3.49 v 0.014 h 0.827 v -0.014 C 9.539,1.34418 9.62778,1.12065 9.79299,0.960014 9.95821,0.799385 10.1842,0.716934 10.414,0.733406 c 0.2124,-0.018837 0.4232,0.050903 0.5824,0.192726 0.1592,0.141818 0.2528,0.343118 0.2586,0.556278 0,0.349 -0.167,0.6 -0.841,1.289 l -1.649,1.681 v 0.612 h 3.425 v -0.749 H 9.97501 V 4.2574 L 11.007,3.2224 C 11.844,2.39541 12.114,1.95741 12.114,1.42841 12.0913,1.01337 11.8986,0.62603 11.5813,0.357536 11.264,0.0890427 10.8501,-0.0368805 10.437,0.00940704 9.99742,-0.0295181 9.56165,0.117645 9.23567,0.415115 8.90969,0.712585 8.72337,1.1331 8.722,1.57441 Z"
       transform="translate(1.0719986,96.93561)"
       id="path7859"
       fill="#d0b020"
       fill-rule="evenodd"
       stroke="none"
       style="fill:#ff8c8c;fill-opacity:1" />
    <path
       d="m 0.881996,4.93201 v -2 H 2.949 v -0.735 H 0.881996 V 0.762009 H 3.144 V 0 H 0 V 4.93201 Z M 6.91299,4.16 H 4.65 V 0 H 3.768 v 4.93201 h 3.14499 z"
       transform="translate(3.7710037,106.06799)"
       id="path7861"
       fill="#d0b020"
       fill-rule="evenodd"
       stroke="none"
       style="fill:#ff8c8c;fill-opacity:1" />
    <path
       d="M 0.879005,0.743729 H 1.87901 C 2.11268,0.714081 2.34754,0.78891 2.52099,0.948288 2.69444,1.10767 2.78883,1.33539 2.779,1.57072 2.79502,1.80429 2.70502,2.03264 2.53394,2.19246 2.36288,2.35228 2.12894,2.42657 1.897,2.39473 H 0.879005 Z m 0,2.351991 H 1.857 L 2.82401,4.94373 H 3.832 L 2.756,2.95773 C 3.33648,2.7417 3.7119,2.17654 3.686,1.55772 3.70295,1.11754 3.52555,0.692154 3.20087,0.39444 2.87621,0.0967255 2.43707,-0.0432281 2,0.0117188 H 0 V 4.94373 H 0.882004 Z M 9.495,4.94373 V 0.0117188 H 8.46201 L 6.979,3.60373 H 6.917 L 5.43401,0.0117188 H 4.402 V 4.94373 h 0.82 v -3.469 H 5.27 l 1.364,3.278 h 0.629 l 1.363,-3.278 h 0.048 v 3.469 z"
       transform="translate(2.3479996,115.05627)"
       id="path7863"
       fill="#d0b020"
       fill-rule="evenodd"
       stroke="none"
       style="fill:#ff8c8c;fill-opacity:1" />
    <path
       d="M 3.55199,4.93201 H 4.499 L 2.741,0 H 1.752 L 0,4.93201 H 0.891998 L 1.31599,3.67101 H 3.131 Z M 2.202,0.940002 h 0.05 L 2.922,2.974 h -1.4 z M 7.444,1.44 H 7.495 L 8.49599,4.93201 H 9.323 L 10.646,0 H 9.73299 L 8.889,3.67101 H 8.841 L 7.852,0 H 7.074 L 6.103,3.67101 H 6.05199 L 5.208,0 H 4.28899 L 5.611,4.93201 h 0.83099 z"
       transform="translate(1.7420044,124.06799)"
       id="path7865"
       fill="#d0b020"
       fill-rule="evenodd"
       stroke="none"
       style="fill:#ff8c8c;fill-opacity:1" />
  </g>
</svg>
