<svg xmlns="http://www.w3.org/2000/svg" width="31" height="34" viewBox="0 0 31 34"><g transform="translate(0.267 0.875)"><rect width="28" height="8" transform="translate(2.733 -0.875)" fill="#b48b75" opacity="0.6"/><rect width="2" height="8" transform="translate(-0.267 -0.875)" fill="#f6d537"/><path d="M.53-4.228V0H2.057A1.879,1.879,0,0,0,4.046-2.127a1.87,1.87,0,0,0-1.989-2.1Zm.656.6h.8A1.333,1.333,0,0,1,3.378-2.118,1.329,1.329,0,0,1,1.983-.6h-.8ZM5.587,0V-4.228H4.931V0Zm4.664-1.673V-2.2H8.517v.551h1.09v.091A1.064,1.064,0,0,1,8.435-.51c-.794,0-1.292-.615-1.292-1.611,0-.979.5-1.6,1.277-1.6a1.1,1.1,0,0,1,1.143.788h.659a1.694,1.694,0,0,0-1.8-1.4A1.96,1.96,0,0,0,6.472-2.115,1.951,1.951,0,0,0,8.426.1,1.687,1.687,0,0,0,10.251-1.673ZM11.81,0V-4.228h-.656V0ZM14.6,0V-3.63h1.327v-.6H12.609v.6h1.33V0Zm4.383,0h.7L18.149-4.228h-.706L15.917,0h.674l.39-1.122h1.611ZM17.763-3.46h.05l.612,1.787H17.147ZM23.048-.6h-1.98V-4.228h-.656V0h2.637Z" transform="translate(4.733 5.125)" fill="#f9c442"/><rect width="28" height="8" transform="translate(2.733 16.125)" fill="#706974" opacity="0.6"/><rect width="2" height="8" transform="translate(-0.267 16.125)" fill="#706974" opacity="0.6"/><path d="M.53-4.228V0H2.057A1.879,1.879,0,0,0,4.046-2.127a1.87,1.87,0,0,0-1.989-2.1Zm.656.6h.8A1.333,1.333,0,0,1,3.378-2.118,1.329,1.329,0,0,1,1.983-.6h-.8ZM5.587,0V-4.228H4.931V0Zm4.664-1.673V-2.2H8.517v.551h1.09v.091A1.064,1.064,0,0,1,8.435-.51c-.794,0-1.292-.615-1.292-1.611,0-.979.5-1.6,1.277-1.6a1.1,1.1,0,0,1,1.143.788h.659a1.694,1.694,0,0,0-1.8-1.4A1.96,1.96,0,0,0,6.472-2.115,1.951,1.951,0,0,0,8.426.1,1.687,1.687,0,0,0,10.251-1.673ZM11.81,0V-4.228h-.656V0ZM14.6,0V-3.63h1.327v-.6H12.609v.6h1.33V0Zm4.383,0h.7L18.149-4.228h-.706L15.917,0h.674l.39-1.122h1.611ZM17.763-3.46h.05l.612,1.787H17.147ZM23.048-.6h-1.98V-4.228h-.656V0h2.637Z" transform="translate(4.733 22.125)" fill="#d0c9d2"/><rect width="28" height="8" transform="translate(2.733 8.125)" fill="#706974" opacity="0.6"/><rect width="2" height="8" transform="translate(-0.267 8.125)" fill="#706974" opacity="0.6"/><path d="M3.267,0h.7L2.438-4.228H1.731L.205,0H.879l.39-1.122H2.88ZM2.051-3.46H2.1l.612,1.787H1.436ZM5.338,0V-3h.047L7.556,0h.592V-4.228H7.509v3H7.462l-2.171-3H4.7V0Zm6.606,0h.7L11.115-4.228h-.706L8.883,0h.674l.39-1.122h1.611ZM10.729-3.46h.05l.612,1.787H10.113ZM16.014-.6h-1.98V-4.228h-.656V0h2.637ZM18.489-4.33a1.955,1.955,0,0,0-1.975,2.215A1.952,1.952,0,0,0,18.489.1a1.95,1.95,0,0,0,1.969-2.218A1.949,1.949,0,0,0,18.489-4.33Zm0,.612c.8,0,1.3.621,1.3,1.6s-.5,1.605-1.3,1.605-1.3-.63-1.3-1.605S17.692-3.718,18.489-3.718Zm6.463,2.045V-2.2H23.218v.551h1.09v.091A1.064,1.064,0,0,1,23.136-.51c-.794,0-1.292-.615-1.292-1.611,0-.979.5-1.6,1.277-1.6a1.1,1.1,0,0,1,1.143.788h.659a1.694,1.694,0,0,0-1.8-1.4,1.96,1.96,0,0,0-1.948,2.215A1.951,1.951,0,0,0,23.127.1,1.687,1.687,0,0,0,24.952-1.673Z" transform="translate(4.733 14.125)" fill="#d0c9d2"/><rect width="28" height="8" transform="translate(2.733 25.125)" fill="#b48b75" opacity="0.6"/><rect width="2" height="8" transform="translate(-0.267 25.125)" fill="#f6d537"/><path d="M3.267,0h.7L2.438-4.228H1.731L.205,0H.879l.39-1.122H2.88ZM2.051-3.46H2.1l.612,1.787H1.436ZM5.338,0V-3h.047L7.556,0h.592V-4.228H7.509v3H7.462l-2.171-3H4.7V0Zm6.606,0h.7L11.115-4.228h-.706L8.883,0h.674l.39-1.122h1.611ZM10.729-3.46h.05l.612,1.787H10.113ZM16.014-.6h-1.98V-4.228h-.656V0h2.637ZM18.489-4.33a1.955,1.955,0,0,0-1.975,2.215A1.952,1.952,0,0,0,18.489.1a1.95,1.95,0,0,0,1.969-2.218A1.949,1.949,0,0,0,18.489-4.33Zm0,.612c.8,0,1.3.621,1.3,1.6s-.5,1.605-1.3,1.605-1.3-.63-1.3-1.605S17.692-3.718,18.489-3.718Zm6.463,2.045V-2.2H23.218v.551h1.09v.091A1.064,1.064,0,0,1,23.136-.51c-.794,0-1.292-.615-1.292-1.611,0-.979.5-1.6,1.277-1.6a1.1,1.1,0,0,1,1.143.788h.659a1.694,1.694,0,0,0-1.8-1.4,1.96,1.96,0,0,0-1.948,2.215A1.951,1.951,0,0,0,23.127.1,1.687,1.687,0,0,0,24.952-1.673Z" transform="translate(4.733 31.125)" fill="#f9c442"/></g></svg>