<svg width="15" height="23" viewBox="0 0 15 23" fill="none" xmlns="http://www.w3.org/2000/svg">
<path fill-rule="evenodd" clip-rule="evenodd" d="M13.2896 11.6619L1.7104 11.6619C0.7628 11.6619 0 12.4247 0 13.3723V20.9515V22.6619L13.2896 22.6619C14.2372 22.6619 15 21.8991 15 20.9515V13.3723C15 12.4247 14.2372 11.6619 13.2896 11.6619Z" fill="#959197" fill-opacity="0.27451"/>
<path fill-rule="evenodd" clip-rule="evenodd" d="M0 22.1545L13.3685 22.1545C14.2723 22.1546 15 21.4269 15 20.523V13.2934C15 12.3896 14.2723 11.6619 13.3685 11.6619H0" fill="#0A090A"/>
<path fill-rule="evenodd" clip-rule="evenodd" d="M13.2066 12.0758H0.782852V21.6586H13.2066C13.9678 21.6586 14.5806 21.0221 14.5806 20.2316V13.5028C14.5806 12.7122 13.9678 12.0758 13.2066 12.0758Z" fill="#787477"/>
<path fill-rule="evenodd" clip-rule="evenodd" d="M14.5867 13.6044C14.5867 13.5582 14.6503 13.2538 14.3884 12.7829C14.131 12.32 13.6249 12.0852 13.352 12.085L0.78314 12.0758L0.782852 12.5817C0.782852 12.5817 12.9388 12.5819 13.3678 12.5819C14.2525 12.5819 14.5867 13.6578 14.5867 13.6044Z" fill="#959197"/>
<path d="M6.91528 14.8673C7.48903 14.8629 8.05639 14.9878 8.57523 15.2328C9.09407 15.4778 9.55107 15.8365 9.91228 16.2823L11.1653 15.1023V18.8673H7.16528L8.52528 17.5873C8.16528 16.5533 7.13428 15.8073 5.91528 15.8073C4.39528 15.8073 3.16528 16.9673 3.16528 18.3953C3.16528 16.4473 4.84428 14.8673 6.91528 14.8673Z" fill="#DBD7D7"/>
<path fill-rule="evenodd" clip-rule="evenodd" d="M13.2896 0.661897L1.7104 0.661896C0.7628 0.661896 0 1.4247 0 2.3723V9.9515V11.6619L13.2896 11.6619C14.2372 11.6619 15 10.8991 15 9.9515V2.3723C15 1.4247 14.2372 0.661897 13.2896 0.661897Z" fill="#959197" fill-opacity="0.27451"/>
<path fill-rule="evenodd" clip-rule="evenodd" d="M0 11.1545L13.3685 11.1545C14.2723 11.1546 15 10.4269 15 9.523V2.2934C15 1.3896 14.2723 0.661896 13.3685 0.661896H0" fill="#0A090A"/>
<path fill-rule="evenodd" clip-rule="evenodd" d="M13.2066 1.07579H0.782852V10.6586H13.2066C13.9678 10.6586 14.5806 10.0221 14.5806 9.23159V2.50279C14.5806 1.71219 13.9678 1.07579 13.2066 1.07579Z" fill="#787477"/>
<path fill-rule="evenodd" clip-rule="evenodd" d="M14.5867 2.60439C14.5867 2.55819 14.6503 2.25379 14.3884 1.78289C14.131 1.31999 13.6249 1.08519 13.352 1.08499L0.78314 1.07579L0.782852 1.58169C0.782852 1.58169 12.9388 1.58189 13.3678 1.58189C14.2525 1.58189 14.5867 2.65779 14.5867 2.60439Z" fill="#959197"/>
<path d="M6.91528 3.86725C7.48903 3.86289 8.05639 3.98784 8.57523 4.2328C9.09407 4.47777 9.55107 4.83646 9.91228 5.28225L11.1653 4.10225V7.86725H7.16528L8.52528 6.58725C8.16528 5.55325 7.13428 4.80725 5.91528 4.80725C4.39528 4.80725 3.16528 5.96725 3.16528 7.39525C3.16528 5.44725 4.84428 3.86725 6.91528 3.86725Z" fill="#DBD7D7"/>
</svg>
