<svg xmlns="http://www.w3.org/2000/svg" width="51.002" height="52.002" viewBox="0 0 51.002 52.002"><g transform="translate(-4.999 -0.159)"><g transform="translate(5 0.159)"><g transform="translate(0.5 0.5)" fill="#3d3231" stroke="#4e4752" stroke-width="0.5"><path d="M1,0H24a0,0,0,0,1,0,0V25a0,0,0,0,1,0,0H1a1,1,0,0,1-1-1V1A1,1,0,0,1,1,0Z" stroke="none"/><path d="M1-.25H24a.25.25,0,0,1,.25.25V25a.25.25,0,0,1-.25.25H1A1.25,1.25,0,0,1-.25,24V1A1.25,1.25,0,0,1,1-.25Z" fill="none"/></g><path d="M25,1.994h0A1.5,1.5,0,0,0,23.5.5H0V0H23.5A1.5,1.5,0,0,1,25,1.5Z" transform="translate(25 26.002) rotate(180)" opacity="0.4"/><path d="M23.5,2.993H0v-.5H23.5A1.5,1.5,0,0,0,25,1.006v.487A1.5,1.5,0,0,1,23.5,2.993Z" transform="translate(24.999 2.993) rotate(180)" fill="#fff" opacity="0.1"/><path d="M1,0H24a0,0,0,0,1,0,0V25a0,0,0,0,1,0,0H1a1,1,0,0,1-1-1V1A1,1,0,0,1,1,0Z" transform="translate(0.5 0.5)" fill="#fff" opacity="0"/><path d="M2.742,0h1.2L.565-9.16H-.565L-3.942,0h1.2l.92-2.622H1.822ZM-.051-7.681h.1L1.485-3.593H-1.485Z" transform="translate(12 17)" fill="#fce237"/></g><g transform="translate(4.999 26.159)"><g transform="translate(0.501 0.5)" fill="#655959" stroke="#4e4752" stroke-width="0.5"><path d="M1,0H24a0,0,0,0,1,0,0V25a0,0,0,0,1,0,0H1a1,1,0,0,1-1-1V1A1,1,0,0,1,1,0Z" stroke="none"/><path d="M1-.25H24a.25.25,0,0,1,.25.25V25a.25.25,0,0,1-.25.25H1A1.25,1.25,0,0,1-.25,24V1A1.25,1.25,0,0,1,1-.25Z" fill="none"/></g><path d="M25,1.994h0A1.5,1.5,0,0,0,23.5.5H0V0H23.5A1.5,1.5,0,0,1,25,1.5Z" transform="translate(25.001 26.002) rotate(180)" opacity="0.4"/><path d="M23.5,2.993H0v-.5H23.5A1.5,1.5,0,0,0,25,1.006v.487A1.5,1.5,0,0,1,23.5,2.993Z" transform="translate(25.001 2.993) rotate(180)" fill="#fff" opacity="0.4"/><path d="M1,0H24a0,0,0,0,1,0,0V25a0,0,0,0,1,0,0H1a1,1,0,0,1-1-1V1A1,1,0,0,1,1,0Z" transform="translate(0.502 0.5)" fill="#fff" opacity="0"/><path d="M2.742,0h1.2L.565-9.16H-.565L-3.942,0h1.2l.92-2.622H1.822ZM-.051-7.681h.1L1.485-3.593H-1.485Z" transform="translate(12.001 17)" fill="#e0d2cb"/></g><g transform="translate(31 0.159)"><g transform="translate(0.501 0.5)" fill="#655959" stroke="#4e4752" stroke-width="0.5"><path d="M0,0H23a1,1,0,0,1,1,1V24a1,1,0,0,1-1,1H0a0,0,0,0,1,0,0V0A0,0,0,0,1,0,0Z" stroke="none"/><path d="M0-.25H23A1.25,1.25,0,0,1,24.25,1V24A1.25,1.25,0,0,1,23,25.25H0A.25.25,0,0,1-.25,25V0A.25.25,0,0,1,0-.25Z" fill="none"/></g><path d="M23.5,1.994H0v-.5H23.5A1.5,1.5,0,0,0,25,0V.494A1.5,1.5,0,0,1,23.5,1.994Z" transform="translate(0.001 24.007)" opacity="0.4"/><path d="M25,1.992h0A1.5,1.5,0,0,0,23.5.5H0V0H23.5A1.5,1.5,0,0,1,25,1.5Z" transform="translate(-0.001 0)" fill="#fff" opacity="0.4"/><path d="M0,0H23a1,1,0,0,1,1,1V24a1,1,0,0,1-1,1H0a0,0,0,0,1,0,0V0A0,0,0,0,1,0,0Z" transform="translate(0.5 0.5)" fill="#fff" opacity="0"/><path d="M.47,0c1.949,0,3.1-.958,3.1-2.571A2.171,2.171,0,0,0,1.53-4.8v-.1A2.021,2.021,0,0,0,3.11-6.875C3.11-8.277,2.082-9.16.4-9.16H-3.1V0ZM-1.961-8.15H.159c1.136,0,1.8.54,1.8,1.473,0,.971-.7,1.466-2.088,1.466H-1.961Zm0,7.141V-4.228H.19c1.46,0,2.209.54,2.209,1.6S1.676-1.009.3-1.009Z" transform="translate(12 17)" fill="#e0d2cb"/></g><g transform="translate(31 26.159)"><g transform="translate(0.5 0.5)" fill="#3d3231" stroke="#4e4752" stroke-width="0.5"><path d="M0,0H23a1,1,0,0,1,1,1V24a1,1,0,0,1-1,1H0a0,0,0,0,1,0,0V0A0,0,0,0,1,0,0Z" stroke="none"/><path d="M0-.25H23A1.25,1.25,0,0,1,24.25,1V24A1.25,1.25,0,0,1,23,25.25H0A.25.25,0,0,1-.25,25V0A.25.25,0,0,1,0-.25Z" fill="none"/></g><path d="M23.5,1.994H0v-.5H23.5A1.5,1.5,0,0,0,25,0V.494A1.5,1.5,0,0,1,23.5,1.994Z" transform="translate(0.001 24.007)" opacity="0.4"/><path d="M25,1.992h0A1.5,1.5,0,0,0,23.5.5H0V0H23.5A1.5,1.5,0,0,1,25,1.5Z" transform="translate(0 0)" fill="#fff" opacity="0.1"/><path d="M0,0H23a1,1,0,0,1,1,1V24a1,1,0,0,1-1,1H0a0,0,0,0,1,0,0V0A0,0,0,0,1,0,0Z" transform="translate(0.5 0.5)" fill="#fff" opacity="0"/><path d="M.47,0c1.949,0,3.1-.958,3.1-2.571A2.171,2.171,0,0,0,1.53-4.8v-.1A2.021,2.021,0,0,0,3.11-6.875C3.11-8.277,2.082-9.16.4-9.16H-3.1V0ZM-1.961-8.15H.159c1.136,0,1.8.54,1.8,1.473,0,.971-.7,1.466-2.088,1.466H-1.961Zm0,7.141V-4.228H.19c1.46,0,2.209.54,2.209,1.6S1.676-1.009.3-1.009Z" transform="translate(12 17)" fill="#fce237"/></g></g></svg>