<?xml version="1.0" encoding="utf-8"?>
<svg width="47px" height="39px" viewBox="0 0 47 39" version="1.1" xmlns:xlink="http://www.w3.org/1999/xlink" xmlns="http://www.w3.org/2000/svg">
  <defs>
    <linearGradient x1="0.5" y1="0" x2="0.5" y2="1" id="gradient_1">
      <stop offset="0%" stop-color="#AD8E74" />
      <stop offset="100%" stop-color="#A17E64" />
    </linearGradient>
    <linearGradient x1="0.5" y1="0" x2="0.5" y2="1" id="gradient_2">
      <stop offset="0%" stop-color="#8D7D76" />
      <stop offset="100%" stop-color="#7A6A64" />
    </linearGradient>
    <rect width="47" height="39" id="artboard_1" />
    <clipPath id="clip_1">
      <use xlink:href="#artboard_1" clip-rule="evenodd" />
    </clipPath>
  </defs>
  <g id="bmp00122" clip-path="url(#clip_1)">
    <path d="M0 5L0 4C0 3.72386 0.0976311 3.48815 0.292893 3.29289C0.488155 3.09763 0.723858 3 1 3L14 3C14.2761 3 14.5118 3.09763 14.7071 3.29289C14.9024 3.48815 15 3.72386 15 4L15 11C15 11.2761 14.9024 11.5118 14.7071 11.7071C14.5118 11.9024 14.2761 12 14 12L1 12C0.723858 12 0.488155 11.9024 0.292893 11.7071C0.0976311 11.5118 0 11.2761 0 11L0 5L0 5Z" id="Rectangle" fill="url(#gradient_1)" fill-rule="evenodd" stroke="none" />
    <path d="M0 1.5C0 1.36193 0.0488155 1.24408 0.146447 1.14645C0.244078 1.04882 0.361929 1 0.5 1L14.5 1C14.6381 1 14.7559 1.04882 14.8536 1.14645C14.9512 1.24408 15 1.36193 15 1.5C15 1.63807 14.9512 1.75592 14.8536 1.85355C14.7559 1.95118 14.6381 2 14.5 2L0.5 2C0.361929 2 0.244078 1.95118 0.146447 1.85355C0.0488155 1.75592 0 1.63807 0 1.5L0 1.5L0 1.5Z" id="Rectangle#1" fill="#FFE97E" fill-rule="evenodd" stroke="none" />
    <path d="M7.026 9.99999L7.791 9.99999L7.791 5.06799L7.029 5.06799L5.729 5.98399L5.729 6.76699L6.966 5.89199L7.026 5.89199L7.026 9.99999L7.026 9.99999Z" id="Shape" fill="#FFE97E" fill-rule="evenodd" stroke="none" />
    <path d="M0 18L0 17C0 16.7239 0.0976311 16.4882 0.292893 16.2929C0.488155 16.0976 0.723858 16 1 16L14 16C14.2761 16 14.5118 16.0976 14.7071 16.2929C14.9024 16.4882 15 16.7239 15 17L15 24C15 24.2761 14.9024 24.5118 14.7071 24.7071C14.5118 24.9024 14.2761 25 14 25L1 25C0.723858 25 0.488155 24.9024 0.292893 24.7071C0.0976311 24.5118 0 24.2761 0 24L0 18L0 18Z" id="Rectangle#2" fill="url(#gradient_2)" fill-rule="evenodd" stroke="none" />
    <path d="M0 14.5C0 14.3619 0.0488155 14.2441 0.146447 14.1464C0.244078 14.0488 0.361929 14 0.5 14L14.5 14C14.6381 14 14.7559 14.0488 14.8536 14.1464C14.9512 14.2441 15 14.3619 15 14.5C15 14.6381 14.9512 14.7559 14.8536 14.8536C14.7559 14.9512 14.6381 15 14.5 15L0.5 15C0.361929 15 0.244078 14.9512 0.146447 14.8536C0.0488155 14.7559 0 14.6381 0 14.5L0 14.5L0 14.5Z" id="Rectangle#3" fill="#91837B" fill-opacity="0.92156863" fill-rule="evenodd" stroke="none" />
    <path d="M7.026 23L7.791 23L7.791 18.068L7.029 18.068L5.729 18.984L5.729 19.767L6.966 18.892L7.026 18.892L7.026 23L7.026 23Z" id="Shape#1" fill="#DBD7D7" fill-rule="evenodd" stroke="none" />
    <path d="M0 31L0 30C0 29.7239 0.0976311 29.4882 0.292893 29.2929C0.488155 29.0976 0.723858 29 1 29L14 29C14.2761 29 14.5118 29.0976 14.7071 29.2929C14.9024 29.4882 15 29.7239 15 30L15 37C15 37.2761 14.9024 37.5118 14.7071 37.7071C14.5118 37.9024 14.2761 38 14 38L1 38C0.723858 38 0.488155 37.9024 0.292893 37.7071C0.0976311 37.5118 0 37.2761 0 37L0 31L0 31Z" id="Rectangle#4" fill="url(#gradient_2)" fill-rule="evenodd" stroke="none" />
    <path d="M0 27.5C0 27.3619 0.0488155 27.2441 0.146447 27.1464C0.244078 27.0488 0.361929 27 0.5 27L14.5 27C14.6381 27 14.7559 27.0488 14.8536 27.1464C14.9512 27.2441 15 27.3619 15 27.5C15 27.6381 14.9512 27.7559 14.8536 27.8536C14.7559 27.9512 14.6381 28 14.5 28L0.5 28C0.361929 28 0.244078 27.9512 0.146447 27.8536C0.0488155 27.7559 0 27.6381 0 27.5L0 27.5L0 27.5Z" id="Rectangle#5" fill="#91837B" fill-opacity="0.92156863" fill-rule="evenodd" stroke="none" />
    <path d="M7.026 36L7.791 36L7.791 31.068L7.029 31.068L5.729 31.984L5.729 32.767L6.966 31.892L7.026 31.892L7.026 36L7.026 36Z" id="Shape#2" fill="#DBD7D7" fill-rule="evenodd" stroke="none" />
    <path d="M16 5L16 4C16 3.72386 16.0976 3.48815 16.2929 3.29289C16.4882 3.09763 16.7239 3 17 3L30 3C30.2761 3 30.5118 3.09763 30.7071 3.29289C30.9024 3.48815 31 3.72386 31 4L31 11C31 11.2761 30.9024 11.5118 30.7071 11.7071C30.5118 11.9024 30.2761 12 30 12L17 12C16.7239 12 16.4882 11.9024 16.2929 11.7071C16.0976 11.5118 16 11.2761 16 11L16 5L16 5Z" id="Rectangle#6" fill="url(#gradient_2)" fill-rule="evenodd" stroke="none" />
    <path d="M16 1.5C16 1.36193 16.0488 1.24408 16.1464 1.14645C16.2441 1.04882 16.3619 1 16.5 1L30.5 1C30.6381 1 30.7559 1.04882 30.8536 1.14645C30.9512 1.24408 31 1.36193 31 1.5C31 1.63807 30.9512 1.75592 30.8536 1.85355C30.7559 1.95118 30.6381 2 30.5 2L16.5 2C16.3619 2 16.2441 1.95118 16.1464 1.85355C16.0488 1.75592 16 1.63807 16 1.5L16 1.5L16 1.5Z" id="Rectangle#7" fill="#91837B" fill-opacity="0.92156863" fill-rule="evenodd" stroke="none" />
    <path d="M21.329 6.493L21.329 6.503L22.054 6.503L22.054 6.493C22.044 6.25137 22.1375 6.01693 22.3111 5.84852C22.4846 5.6801 22.7218 5.59371 22.963 5.61101C23.1883 5.59143 23.4118 5.66471 23.5817 5.81387C23.7516 5.96302 23.8532 6.17511 23.863 6.401C23.863 6.763 23.702 7.023 23.043 7.71L21.37 9.446L21.37 10L24.692 10L24.692 9.313L22.436 9.313L22.436 9.255L23.536 8.144C24.363 7.307 24.616 6.879 24.616 6.356C24.5972 5.94912 24.4119 5.56788 24.1037 5.30162C23.7955 5.03536 23.3913 4.9075 22.986 4.94801C22.5567 4.91468 22.1331 5.06285 21.8181 5.35651C21.5032 5.65017 21.3258 6.0624 21.329 6.493L21.329 6.493L21.329 6.493Z" id="Shape#3" fill="#DBD7D7" fill-rule="evenodd" stroke="none" />
    <path d="M16 18L16 17C16 16.7239 16.0976 16.4882 16.2929 16.2929C16.4882 16.0976 16.7239 16 17 16L30 16C30.2761 16 30.5118 16.0976 30.7071 16.2929C30.9024 16.4882 31 16.7239 31 17L31 24C31 24.2761 30.9024 24.5118 30.7071 24.7071C30.5118 24.9024 30.2761 25 30 25L17 25C16.7239 25 16.4882 24.9024 16.2929 24.7071C16.0976 24.5118 16 24.2761 16 24L16 18L16 18Z" id="Rectangle#8" fill="url(#gradient_1)" fill-rule="evenodd" stroke="none" />
    <path d="M16 14.5C16 14.3619 16.0488 14.2441 16.1464 14.1464C16.2441 14.0488 16.3619 14 16.5 14L30.5 14C30.6381 14 30.7559 14.0488 30.8536 14.1464C30.9512 14.2441 31 14.3619 31 14.5C31 14.6381 30.9512 14.7559 30.8536 14.8536C30.7559 14.9512 30.6381 15 30.5 15L16.5 15C16.3619 15 16.2441 14.9512 16.1464 14.8536C16.0488 14.7559 16 14.6381 16 14.5L16 14.5L16 14.5Z" id="Rectangle#9" fill="#FFE97E" fill-rule="evenodd" stroke="none" />
    <path d="M21.329 19.493L21.329 19.503L22.054 19.503L22.054 19.493C22.044 19.2514 22.1375 19.0169 22.3111 18.8485C22.4846 18.6801 22.7218 18.5937 22.963 18.611C23.1883 18.5914 23.4118 18.6647 23.5817 18.8139C23.7516 18.963 23.8532 19.1751 23.863 19.401C23.863 19.763 23.702 20.023 23.043 20.71L21.37 22.446L21.37 23L24.692 23L24.692 22.313L22.436 22.313L22.436 22.255L23.536 21.144C24.363 20.307 24.616 19.879 24.616 19.356C24.5972 18.9491 24.4119 18.5679 24.1037 18.3016C23.7955 18.0354 23.3913 17.9075 22.986 17.948C22.5567 17.9147 22.1331 18.0629 21.8181 18.3565C21.5032 18.6502 21.3258 19.0624 21.329 19.493L21.329 19.493L21.329 19.493Z" id="Shape#4" fill="#FFE97E" fill-rule="evenodd" stroke="none" />
    <path d="M16 31L16 30C16 29.7239 16.0976 29.4882 16.2929 29.2929C16.4882 29.0976 16.7239 29 17 29L30 29C30.2761 29 30.5118 29.0976 30.7071 29.2929C30.9024 29.4882 31 29.7239 31 30L31 37C31 37.2761 30.9024 37.5118 30.7071 37.7071C30.5118 37.9024 30.2761 38 30 38L17 38C16.7239 38 16.4882 37.9024 16.2929 37.7071C16.0976 37.5118 16 37.2761 16 37L16 31L16 31Z" id="Rectangle#10" fill="url(#gradient_2)" fill-rule="evenodd" stroke="none" />
    <path d="M16 27.5C16 27.3619 16.0488 27.2441 16.1464 27.1464C16.2441 27.0488 16.3619 27 16.5 27L30.5 27C30.6381 27 30.7559 27.0488 30.8536 27.1464C30.9512 27.2441 31 27.3619 31 27.5C31 27.6381 30.9512 27.7559 30.8536 27.8536C30.7559 27.9512 30.6381 28 30.5 28L16.5 28C16.3619 28 16.2441 27.9512 16.1464 27.8536C16.0488 27.7559 16 27.6381 16 27.5L16 27.5L16 27.5Z" id="Rectangle#11" fill="#91837B" fill-opacity="0.92156863" fill-rule="evenodd" stroke="none" />
    <path d="M21.329 32.493L21.329 32.503L22.054 32.503L22.054 32.493C22.044 32.2514 22.1375 32.0169 22.3111 31.8485C22.4846 31.6801 22.7218 31.5937 22.963 31.611C23.1883 31.5914 23.4118 31.6647 23.5817 31.8139C23.7516 31.963 23.8532 32.1751 23.863 32.401C23.863 32.763 23.702 33.023 23.043 33.71L21.37 35.446L21.37 36L24.692 36L24.692 35.313L22.436 35.313L22.436 35.255L23.536 34.144C24.363 33.307 24.616 32.879 24.616 32.356C24.5972 31.9491 24.4119 31.5679 24.1037 31.3016C23.7955 31.0354 23.3913 30.9075 22.986 30.948C22.5567 30.9147 22.1331 31.0629 21.8181 31.3565C21.5032 31.6502 21.3258 32.0624 21.329 32.493L21.329 32.493L21.329 32.493Z" id="Shape#5" fill="#DBD7D7" fill-rule="evenodd" stroke="none" />
    <path d="M32 5L32 4C32 3.72386 32.0976 3.48815 32.2929 3.29289C32.4882 3.09763 32.7239 3 33 3L46 3C46.2761 3 46.5118 3.09763 46.7071 3.29289C46.9024 3.48815 47 3.72386 47 4L47 11C47 11.2761 46.9024 11.5118 46.7071 11.7071C46.5118 11.9024 46.2761 12 46 12L33 12C32.7239 12 32.4882 11.9024 32.2929 11.7071C32.0976 11.5118 32 11.2761 32 11L32 5L32 5Z" id="Rectangle#12" fill="url(#gradient_2)" fill-rule="evenodd" stroke="none" />
    <path d="M32 1.5C32 1.36193 32.0488 1.24408 32.1464 1.14645C32.2441 1.04882 32.3619 1 32.5 1L46.5 1C46.6381 1 46.7559 1.04882 46.8536 1.14645C46.9512 1.24408 47 1.36193 47 1.5C47 1.63807 46.9512 1.75592 46.8536 1.85355C46.7559 1.95118 46.6381 2 46.5 2L32.5 2C32.3619 2 32.2441 1.95118 32.1464 1.85355C32.0488 1.75592 32 1.63807 32 1.5L32 1.5L32 1.5Z" id="Rectangle#13" fill="#91837B" fill-opacity="0.92156863" fill-rule="evenodd" stroke="none" />
    <path d="M38.363 7.78501L38.985 7.78501C39.631 7.78501 40.031 8.10301 40.031 8.61201C40.031 9.09701 39.607 9.44301 39.006 9.44301C38.405 9.44301 38 9.13901 37.949 8.66001L37.214 8.66001C37.2489 9.09485 37.4598 9.49659 37.7979 9.77222C38.136 10.0479 38.572 10.1735 39.005 10.12C39.4403 10.1706 39.8776 10.0434 40.218 9.76731C40.5583 9.49118 40.7728 9.08942 40.813 8.65301C40.843 8.02355 40.3592 7.48793 39.73 7.45401L39.73 7.40001C40.2651 7.28842 40.6393 6.80391 40.612 6.25801C40.5741 5.86794 40.381 5.50946 40.0762 5.26313C39.7713 5.01679 39.3803 4.90325 38.991 4.94801C38.5733 4.9004 38.1547 5.02895 37.8357 5.30277C37.5167 5.57659 37.3262 5.97093 37.31 6.39101L38.038 6.39101C38.0528 6.16198 38.1604 5.94891 38.3359 5.8011C38.5115 5.65329 38.7398 5.58354 38.968 5.60801C39.505 5.60801 39.857 5.90801 39.857 6.36701C39.8526 6.5945 39.7524 6.80956 39.581 6.95923C39.4096 7.1089 39.183 7.17927 38.957 7.15301L38.357 7.15301L38.363 7.78501L38.363 7.78501Z" id="Shape#6" fill="#DBD7D7" fill-rule="evenodd" stroke="none" />
    <path d="M32 18L32 17C32 16.7239 32.0976 16.4882 32.2929 16.2929C32.4882 16.0976 32.7239 16 33 16L46 16C46.2761 16 46.5118 16.0976 46.7071 16.2929C46.9024 16.4882 47 16.7239 47 17L47 24C47 24.2761 46.9024 24.5118 46.7071 24.7071C46.5118 24.9024 46.2761 25 46 25L33 25C32.7239 25 32.4882 24.9024 32.2929 24.7071C32.0976 24.5118 32 24.2761 32 24L32 18L32 18Z" id="Rectangle#14" fill="url(#gradient_2)" fill-rule="evenodd" stroke="none" />
    <path d="M32 14.5C32 14.3619 32.0488 14.2441 32.1464 14.1464C32.2441 14.0488 32.3619 14 32.5 14L46.5 14C46.6381 14 46.7559 14.0488 46.8536 14.1464C46.9512 14.2441 47 14.3619 47 14.5C47 14.6381 46.9512 14.7559 46.8536 14.8536C46.7559 14.9512 46.6381 15 46.5 15L32.5 15C32.3619 15 32.2441 14.9512 32.1464 14.8536C32.0488 14.7559 32 14.6381 32 14.5L32 14.5L32 14.5Z" id="Rectangle#15" fill="#91837B" fill-opacity="0.92156863" fill-rule="evenodd" stroke="none" />
    <path d="M38.363 20.785L38.985 20.785C39.631 20.785 40.031 21.103 40.031 21.612C40.031 22.097 39.607 22.443 39.006 22.443C38.405 22.443 38 22.139 37.949 21.66L37.214 21.66C37.2489 22.0948 37.4598 22.4966 37.7979 22.7722C38.136 23.0479 38.572 23.1735 39.005 23.12C39.4403 23.1706 39.8776 23.0434 40.218 22.7673C40.5583 22.4912 40.7728 22.0894 40.813 21.653C40.843 21.0235 40.3592 20.4879 39.73 20.454L39.73 20.4C40.2651 20.2884 40.6393 19.8039 40.612 19.258C40.5741 18.8679 40.381 18.5095 40.0762 18.2631C39.7713 18.0168 39.3803 17.9032 38.991 17.948C38.5733 17.9004 38.1547 18.0289 37.8357 18.3028C37.5167 18.5766 37.3262 18.9709 37.31 19.391L38.038 19.391C38.0528 19.162 38.1604 18.9489 38.3359 18.8011C38.5115 18.6533 38.7398 18.5835 38.968 18.608C39.505 18.608 39.857 18.908 39.857 19.367C39.8526 19.5945 39.7524 19.8096 39.581 19.9592C39.4096 20.1089 39.183 20.1793 38.957 20.153L38.357 20.153L38.363 20.785L38.363 20.785Z" id="Shape#7" fill="#DBD7D7" fill-rule="evenodd" stroke="none" />
    <path d="M32 31L32 30C32 29.7239 32.0976 29.4882 32.2929 29.2929C32.4882 29.0976 32.7239 29 33 29L46 29C46.2761 29 46.5118 29.0976 46.7071 29.2929C46.9024 29.4882 47 29.7239 47 30L47 37C47 37.2761 46.9024 37.5118 46.7071 37.7071C46.5118 37.9024 46.2761 38 46 38L33 38C32.7239 38 32.4882 37.9024 32.2929 37.7071C32.0976 37.5118 32 37.2761 32 37L32 31L32 31Z" id="Rectangle#16" fill="url(#gradient_1)" fill-rule="evenodd" stroke="none" />
    <path d="M32 27.5C32 27.3619 32.0488 27.2441 32.1464 27.1464C32.2441 27.0488 32.3619 27 32.5 27L46.5 27C46.6381 27 46.7559 27.0488 46.8536 27.1464C46.9512 27.2441 47 27.3619 47 27.5C47 27.6381 46.9512 27.7559 46.8536 27.8536C46.7559 27.9512 46.6381 28 46.5 28L32.5 28C32.3619 28 32.2441 27.9512 32.1464 27.8536C32.0488 27.7559 32 27.6381 32 27.5L32 27.5L32 27.5Z" id="Rectangle#17" fill="#FFE97E" fill-rule="evenodd" stroke="none" />
    <path d="M38.363 33.785L38.985 33.785C39.631 33.785 40.031 34.103 40.031 34.612C40.031 35.097 39.607 35.443 39.006 35.443C38.405 35.443 38 35.139 37.949 34.66L37.214 34.66C37.2489 35.0948 37.4598 35.4966 37.7979 35.7722C38.136 36.0479 38.572 36.1735 39.005 36.12C39.4403 36.1706 39.8776 36.0434 40.218 35.7673C40.5583 35.4912 40.7728 35.0894 40.813 34.653C40.843 34.0235 40.3592 33.4879 39.73 33.454L39.73 33.4C40.2651 33.2884 40.6393 32.8039 40.612 32.258C40.5741 31.8679 40.381 31.5095 40.0762 31.2631C39.7713 31.0168 39.3803 30.9032 38.991 30.948C38.5733 30.9004 38.1547 31.0289 37.8357 31.3028C37.5167 31.5766 37.3262 31.9709 37.31 32.391L38.038 32.391C38.0528 32.162 38.1604 31.9489 38.3359 31.8011C38.5115 31.6533 38.7398 31.5835 38.968 31.608C39.505 31.608 39.857 31.908 39.857 32.367C39.8526 32.5945 39.7524 32.8096 39.581 32.9592C39.4096 33.1089 39.183 33.1793 38.957 33.153L38.357 33.153L38.363 33.785L38.363 33.785Z" id="Shape#8" fill="#FFE97E" fill-rule="evenodd" stroke="none" />
  </g>
</svg>