<svg xmlns="http://www.w3.org/2000/svg" xmlns:xlink="http://www.w3.org/1999/xlink" width="22" height="98" viewBox="0 0 22 98"><defs><linearGradient id="a" x1="0.539" y1="0.918" x2="0.55" y2="0.332" gradientUnits="objectBoundingBox"><stop offset="0" stop-color="#fff" stop-opacity="0.271"/><stop offset="1" stop-color="#2a2a2a" stop-opacity="0.639"/></linearGradient><linearGradient id="b" x1="0.5" x2="0.5" y2="1" gradientUnits="objectBoundingBox"><stop offset="0" stop-color="#41322e"/><stop offset="0.221" stop-color="#5c4b47"/><stop offset="1" stop-color="#5b4a44"/></linearGradient></defs><g transform="translate(-1983 -458)"><g transform="translate(1983 458)"><rect width="22" height="98" fill="red" opacity="0"/></g><g transform="translate(1983 472)"><rect width="22" height="14" rx="2" opacity="0.59" fill="url(#a)"/><g transform="translate(1 1)" stroke="#0c0706" stroke-width="1" fill="url(#b)"><rect width="20" height="12" rx="1" stroke="none"/><rect x="0.5" y="0.5" width="19" height="11" rx="0.5" fill="none"/></g></g><path d="M1.716,0h.766V-4.932H1.719l-1.3.916v.783l1.237-.875h.058Z" transform="translate(1992 482)" fill="#dbd7d7"/><g transform="translate(1983 486)"><rect width="22" height="14" rx="2" opacity="0.59" fill="url(#a)"/><g transform="translate(1 1)" stroke="#0c0706" stroke-width="1" fill="url(#b)"><rect width="20" height="12" rx="1" stroke="none"/><rect x="0.5" y="0.5" width="19" height="11" rx="0.5" fill="none"/></g></g><path d="M.492-3.507v.01h.725v-.01a.849.849,0,0,1,.909-.882.829.829,0,0,1,.9.79c0,.362-.161.622-.82,1.309L.533-.554V0H3.855V-.687H1.6V-.745L2.7-1.856c.827-.837,1.08-1.265,1.08-1.788A1.484,1.484,0,0,0,2.15-5.052,1.538,1.538,0,0,0,.492-3.507Z" transform="translate(1992 496)" fill="#dbd7d7"/><g transform="translate(1983 500)"><rect width="22" height="14" rx="2" opacity="0.59" fill="url(#a)"/><g transform="translate(1 1)" stroke="#0c0706" stroke-width="1" fill="url(#b)"><rect width="20" height="12" rx="1" stroke="none"/><rect x="0.5" y="0.5" width="19" height="11" rx="0.5" fill="none"/></g></g><path d="M1.61-2.215h.622c.646,0,1.046.318,1.046.827,0,.485-.424.831-1.025.831S1.244-.861,1.2-1.34H.461A1.6,1.6,0,0,0,2.252.12,1.627,1.627,0,0,0,4.061-1.347a1.146,1.146,0,0,0-1.083-1.2V-2.6a1.11,1.11,0,0,0,.882-1.142,1.461,1.461,0,0,0-1.62-1.306A1.511,1.511,0,0,0,.557-3.609h.728a.842.842,0,0,1,.93-.783c.537,0,.889.3.889.759a.807.807,0,0,1-.9.786h-.6Z" transform="translate(1992 510)" fill="#dbd7d7"/><g transform="translate(1983 514)"><rect width="22" height="14" rx="2" opacity="0.59" fill="url(#a)"/><g transform="translate(1 1)" stroke="#0c0706" stroke-width="1" fill="url(#b)"><rect width="20" height="12" rx="1" stroke="none"/><rect x="0.5" y="0.5" width="19" height="11" rx="0.5" fill="none"/></g></g><path d="M2.8,0h.738V-.954h.68v-.684h-.68V-4.932H2.451C1.572-3.616.837-2.471.4-1.665v.711H2.8ZM1.131-1.668C1.712-2.676,2.28-3.551,2.769-4.259h.044V-1.62H1.131Z" transform="translate(1992 524)" fill="#dbd7d7"/><g transform="translate(1983 528)"><rect width="22" height="14" rx="2" opacity="0.59" fill="url(#a)"/><g transform="translate(1 1)" stroke="#0c0706" stroke-width="1" fill="url(#b)"><rect width="20" height="12" rx="1" stroke="none"/><rect x="0.5" y="0.5" width="19" height="11" rx="0.5" fill="none"/></g></g><path d="M2.242.12A1.662,1.662,0,0,0,4.026-1.6,1.559,1.559,0,0,0,2.43-3.25,1.246,1.246,0,0,0,1.388-2.8H1.33l.13-1.446h2.28v-.684H.861L.6-2.109h.7a1.074,1.074,0,0,1,.957-.506A.98.98,0,0,1,3.278-1.576.969.969,0,0,1,2.249-.554a.931.931,0,0,1-1-.8H.523A1.582,1.582,0,0,0,2.242.12Z" transform="translate(1992 538)" fill="#dbd7d7"/><g transform="translate(1983 542)"><rect width="22" height="14" rx="2" opacity="0.59" fill="url(#a)"/><g transform="translate(1 1)" stroke="#0c0706" stroke-width="1" fill="url(#b)"><rect width="20" height="12" rx="1" stroke="none"/><rect x="0.5" y="0.5" width="19" height="11" rx="0.5" fill="none"/></g></g><path d="M2.355.12A1.689,1.689,0,0,0,4.143-1.6a1.579,1.579,0,0,0-1.62-1.644,1.383,1.383,0,0,0-1.3.745H1.169c.017-1.186.455-1.873,1.213-1.873a.914.914,0,0,1,.919.649h.769A1.618,1.618,0,0,0,2.389-5.052C1.155-5.052.434-4.074.434-2.4a3.3,3.3,0,0,0,.3,1.5A1.72,1.72,0,0,0,2.355.12ZM2.348-.554A1.019,1.019,0,0,1,1.313-1.593.991.991,0,0,1,2.352-2.6.986.986,0,0,1,3.384-1.579,1.012,1.012,0,0,1,2.348-.554Z" transform="translate(1992 552)" fill="#dbd7d7"/></g></svg>