<svg xmlns="http://www.w3.org/2000/svg" xmlns:xlink="http://www.w3.org/1999/xlink" width="26" height="22.001" viewBox="0 0 26 22.001"><defs><linearGradient id="a" x1="0.5" x2="0.5" y2="1" gradientUnits="objectBoundingBox"><stop offset="0" stop-color="#787477"/><stop offset="1" stop-color="#716b6c"/></linearGradient><linearGradient id="b" x1="0.5" x2="0.5" y2="1" gradientUnits="objectBoundingBox"><stop offset="0" stop-color="#413f40"/><stop offset="1" stop-color="#464141"/></linearGradient></defs><g transform="translate(-586 2.842)"><g transform="translate(586 -2.841)"><g transform="translate(0.5 0.499)" stroke="#4e4752" stroke-width="0.5" fill="url(#a)"><rect width="25" height="10" rx="1" stroke="none"/><rect x="-0.25" y="-0.25" width="25.5" height="10.5" rx="1.25" fill="none"/></g><path d="M24.5,3H1.5A1.5,1.5,0,0,1,0,1.5V1.087A1.5,1.5,0,0,0,1.5,2.509h23A1.5,1.5,0,0,0,26,1.021V1.5A1.5,1.5,0,0,1,24.5,3Z" transform="translate(0 8)" opacity="0.4"/><path d="M26,1.992h0A1.5,1.5,0,0,0,24.5.5H1.5A1.5,1.5,0,0,0,0,1.922L0,1.5A1.5,1.5,0,0,1,1.5,0h23A1.5,1.5,0,0,1,26,1.5Z" transform="translate(0 0)" fill="#fff" opacity="0.4"/><rect width="25" height="10" rx="1" transform="translate(0.5 0.5)" fill="#fff" opacity="0"/><path d="M-2.146,0V-5.637h-.816L-4.893-.973h-.062l-1.93-4.664H-7.7V0h.656V-4.3H-7L-5.221-.039h.594L-2.85-4.3H-2.8V0ZM-.709-5.637V0h.7V-2.012H1.412a1.736,1.736,0,0,0,1.813-1.8,1.734,1.734,0,0,0-1.8-1.824Zm.7.625H1.236A1.113,1.113,0,0,1,2.5-3.812,1.115,1.115,0,0,1,1.236-2.637H-.006ZM7.865-.633H5.076V-2.57H7.721V-3.2H5.076V-5H7.865v-.633H4.373V0H7.865Z" transform="translate(13 8.5)" fill="#e4dcd9"/></g><g transform="translate(586 8.159)"><g transform="translate(0.5 0.499)" stroke="#4e4752" stroke-width="0.5" fill="url(#b)"><rect width="25" height="10" rx="1" stroke="none"/><rect x="-0.25" y="-0.25" width="25.5" height="10.5" rx="1.25" fill="none"/></g><path d="M24.5,3H1.5A1.5,1.5,0,0,1,0,1.5V1.087A1.5,1.5,0,0,0,1.5,2.509h23A1.5,1.5,0,0,0,26,1.021V1.5A1.5,1.5,0,0,1,24.5,3Z" transform="translate(0 8)" opacity="0.4"/><path d="M26,1.992h0A1.5,1.5,0,0,0,24.5.5H1.5A1.5,1.5,0,0,0,0,1.922L0,1.5A1.5,1.5,0,0,1,1.5,0h23A1.5,1.5,0,0,1,26,1.5Z" transform="translate(0 0)" fill="#fff" opacity="0.1"/><rect width="25" height="10" rx="1" transform="translate(0.5 0.499)" fill="#fff" opacity="0"/><path d="M-2.146,0V-5.637h-.816L-4.893-.973h-.062l-1.93-4.664H-7.7V0h.656V-4.3H-7L-5.221-.039h.594L-2.85-4.3H-2.8V0ZM-.709-5.637V0h.7V-2.012H1.412a1.736,1.736,0,0,0,1.813-1.8,1.734,1.734,0,0,0-1.8-1.824Zm.7.625H1.236A1.113,1.113,0,0,1,2.5-3.812,1.115,1.115,0,0,1,1.236-2.637H-.006ZM7.865-.633H5.076V-2.57H7.721V-3.2H5.076V-5H7.865v-.633H4.373V0H7.865Z" transform="translate(13 8.5)" fill="#fce237"/></g></g></svg>