<?xml version="1.0" encoding="UTF-8" standalone="no"?>
<svg
   xmlns:dc="http://purl.org/dc/elements/1.1/"
   xmlns:cc="http://creativecommons.org/ns#"
   xmlns:rdf="http://www.w3.org/1999/02/22-rdf-syntax-ns#"
   xmlns:svg="http://www.w3.org/2000/svg"
   xmlns="http://www.w3.org/2000/svg"
   xmlns:sodipodi="http://sodipodi.sourceforge.net/DTD/sodipodi-0.dtd"
   xmlns:inkscape="http://www.inkscape.org/namespaces/inkscape"
   width="13"
   height="24"
   viewBox="0 0 13 24"
   version="1.1"
   id="svg3173"
   sodipodi:docname="bmp00178.svg"
   inkscape:version="1.0.1 (3bc2e813f5, 2020-09-07)">
  <metadata
     id="metadata3179">
    <rdf:RDF>
      <cc:Work
         rdf:about="">
        <dc:format>image/svg+xml</dc:format>
        <dc:type
           rdf:resource="http://purl.org/dc/dcmitype/StillImage" />
        <dc:title></dc:title>
      </cc:Work>
    </rdf:RDF>
  </metadata>
  <defs
     id="defs3177" />
  <sodipodi:namedview
     pagecolor="#353535"
     bordercolor="#666666"
     borderopacity="1"
     objecttolerance="10"
     gridtolerance="10"
     guidetolerance="10"
     inkscape:pageopacity="0"
     inkscape:pageshadow="2"
     inkscape:window-width="3753"
     inkscape:window-height="2137"
     id="namedview3175"
     showgrid="false"
     inkscape:showpageshadow="false"
     inkscape:zoom="42"
     inkscape:cx="6"
     inkscape:cy="12"
     inkscape:window-x="-8"
     inkscape:window-y="-8"
     inkscape:window-maximized="1"
     inkscape:current-layer="svg3173" />
  <rect
     width="13"
     height="12"
     rx="2.1666667"
     id="rect3135"
     x="0"
     y="0"
     style="stroke-width:1.04083" />
  <rect
     width="13"
     height="12"
     rx="2.1666667"
     id="rect3137"
     x="0"
     y="12"
     style="stroke-width:1.04083" />
  <rect
     width="10.998899"
     height="10"
     rx="1.1"
     stroke="none"
     id="rect3139"
     x="1"
     y="1"
     style="fill:#4b3e3f;stroke-width:0.524404" />
  <rect
     x="0.77272725"
     y="0.74999952"
     width="11.453454"
     height="10.49998"
     rx="1.3636364"
     fill="none"
     id="rect3141"
     style="stroke:#4e4752;stroke-width:0.522232" />
  <path
     d="M 10.863636,11.498979 H 2.1363636 A 1.6363636,1.4999971 0 0 1 0.5,9.9989816 V 9.5779824 A 1.6363636,1.4999971 0 0 0 2.1363636,10.99998 H 10.863636 A 1.6363636,1.4999971 0 0 0 12.5,9.5119826 v 0.486999 a 1.6363636,1.4999971 0 0 1 -1.636364,1.4999974 z"
     opacity="0.4"
     id="path3145"
     style="stroke-width:1.04446" />
  <path
     d="m 12.5,2.4919961 v 0 A 1.6363636,1.4999971 0 0 0 10.863636,0.99899903 H 2.1363636 A 1.6363636,1.4999971 0 0 0 0.5,2.4219963 V 1.9989971 A 1.6363636,1.4999971 0 0 1 2.1363636,0.499 H 10.863636 A 1.6363636,1.4999971 0 0 1 12.5,1.9989971 Z"
     fill="#ffffff"
     opacity="0.4"
     id="path3147"
     style="stroke-width:1.04446" />
  <rect
     width="9.9989996"
     height="10"
     rx="1"
     fill="#ffffff"
     opacity="0"
     id="rect3149"
     x="1"
     y="1" />
  <rect
     width="11"
     height="10"
     rx="1.1"
     stroke="none"
     id="rect3155"
     x="1"
     y="13"
     style="fill:#352b2d;stroke-width:0.524404" />
  <rect
     x="0.77272725"
     y="12.749976"
     width="11.454545"
     height="10.49998"
     rx="1.3636364"
     fill="none"
     id="rect3157"
     style="stroke:#4e4752;stroke-width:0.522232" />
  <path
     d="M 10.863636,23.498956 H 2.1363636 A 1.6363636,1.4999971 0 0 1 0.5,21.999958 v -0.422999 a 1.6363636,1.4999971 0 0 0 1.6363636,1.422997 H 10.863636 A 1.6363636,1.4999971 0 0 0 12.5,21.511959 v 0.487999 a 1.6363636,1.4999971 0 0 1 -1.636364,1.498998 z"
     opacity="0.4"
     id="path3161"
     style="stroke-width:1.04446" />
  <path
     d="m 12.5,14.491973 v 0 A 1.6363636,1.4999971 0 0 0 10.863636,12.998976 H 2.1363636 A 1.6363636,1.4999971 0 0 0 0.5,14.421973 V 13.998974 A 1.6363636,1.4999971 0 0 1 2.1363636,12.498977 H 10.863636 A 1.6363636,1.4999971 0 0 1 12.5,13.998974 Z"
     fill="#ffffff"
     opacity="0.1"
     id="path3163"
     style="stroke-width:1.04446" />
  <rect
     width="10"
     height="10"
     rx="1"
     fill="#ffffff"
     opacity="0"
     id="rect3165"
     x="1"
     y="13" />
  <path
     d="M 5,3.5 9.9895,3.512 10.0105,4.5 5.021,4.488 Z m -2,0 h 1 v 1 H 3 Z M 9.9895,5.512 5,5.5 5.021,6.488 10.0105,6.5 Z M 3,5.5 h 1 v 1 H 3 Z M 5,7.5 9.9895,7.512 10.0105,8.5 5.021,8.488 Z m -1,0 H 3 v 1 h 1 z"
     fill="#c9b5b0"
     fill-rule="evenodd"
     id="path3784"
     sodipodi:nodetypes="cccccccccccccccccccccccccccccc" />
  <path
     d="m 5,15.5 4.9895,0.012 0.021,0.988 -4.9895,-0.012 z m -2,0 h 1 v 1 H 3 Z M 9.9895,17.512 5,17.5 5.021,18.488 10.0105,18.5 Z M 3,17.5 h 1 v 1 H 3 Z m 2,2 4.9895,0.012 0.021,0.988 -4.9895,-0.012 z m -1,0 H 3 v 1 h 1 z"
     fill="#c9b5b0"
     fill-rule="evenodd"
     id="path4428"
     sodipodi:nodetypes="cccccccccccccccccccccccccccccc"
     style="fill:#f8db38" />
</svg>
