<?xml version="1.0" encoding="UTF-8" standalone="no"?>
<svg
   xmlns:dc="http://purl.org/dc/elements/1.1/"
   xmlns:cc="http://creativecommons.org/ns#"
   xmlns:rdf="http://www.w3.org/1999/02/22-rdf-syntax-ns#"
   xmlns:svg="http://www.w3.org/2000/svg"
   xmlns="http://www.w3.org/2000/svg"
   xmlns:xlink="http://www.w3.org/1999/xlink"
   xmlns:sodipodi="http://sodipodi.sourceforge.net/DTD/sodipodi-0.dtd"
   xmlns:inkscape="http://www.inkscape.org/namespaces/inkscape"
   width="35px"
   height="11px"
   viewbox="0 0 35 11"
   version="1.1"
   id="svg4041"
   sodipodi:docname="bmp00164.svg"
   inkscape:version="1.0.1 (3bc2e813f5, 2020-09-07)">
  <metadata
     id="metadata4045">
    <rdf:RDF>
      <cc:Work
         rdf:about="">
        <dc:format>image/svg+xml</dc:format>
        <dc:type
           rdf:resource="http://purl.org/dc/dcmitype/StillImage" />
        <dc:title></dc:title>
      </cc:Work>
    </rdf:RDF>
  </metadata>
  <sodipodi:namedview
     pagecolor="#3f3f3f"
     bordercolor="#666666"
     borderopacity="1"
     objecttolerance="10"
     gridtolerance="10"
     guidetolerance="10"
     inkscape:pageopacity="0"
     inkscape:pageshadow="2"
     inkscape:window-width="3753"
     inkscape:window-height="2137"
     id="namedview4043"
     showgrid="false"
     inkscape:showpageshadow="false"
     inkscape:zoom="30.142857"
     inkscape:cx="27.638094"
     inkscape:cy="5.5"
     inkscape:window-x="-8"
     inkscape:window-y="-8"
     inkscape:window-maximized="1"
     inkscape:current-layer="svg4041" />
  <defs
     id="defs4014">
    <path
       d="M0 0L7 0L7 8L0 8L0 0Z"
       id="path_1" />
    <rect
       width="35"
       height="11"
       id="artboard_1" />
    <clipPath
       id="clip_1">
      <use
         xlink:href="#artboard_1"
         clip-rule="evenodd"
         id="use4008" />
    </clipPath>
    <clipPath
       id="mask_1">
      <use
         xlink:href="#path_1"
         id="use4011" />
    </clipPath>
  </defs>
  <path
     d="m 0.5,2.5000166 v -1 C 0.5,1.2238746 0.5976311,0.98817163 0.792893,0.79290963 0.988155,0.59764773 1.223858,0.50001663 1.5,0.50001663 h 32 c 0.2761,0 0.5118,0.0976311 0.7071,0.292893 C 34.4024,0.98817163 34.5,1.2238746 34.5,1.5000166 v 8 c 0,0.27614 -0.0976,0.5118404 -0.2929,0.7071104 -0.1953,0.19526 -0.431,0.29289 -0.7071,0.29289 h -32 c -0.276142,0 -0.511845,-0.09763 -0.707107,-0.29289 C 0.5976311,10.011857 0.5,9.7761566 0.5,9.5000166 Z"
     id="Rectangle"
     fill="#4b3e3f"
     fill-rule="evenodd"
     stroke="none" />
  <path
     d="m 0.25,2.7500166 v -1.25 C 0.25,1.1548386 0.372039,0.86021063 0.616116,0.61613263 0.860194,0.37205563 1.154822,0.25001663 1.5,0.25001663 h 32 c 0.3452,0 0.6398,0.122039 0.8839,0.366116 0.2441,0.244078 0.3661,0.53870597 0.3661,0.88388397 v 8 c 0,0.34518 -0.122,0.6398104 -0.3661,0.8839004 -0.2441,0.2441 -0.5387,0.3661 -0.8839,0.3661 h -32 c -0.345178,0 -0.639806,-0.122 -0.883884,-0.3661 C 0.372039,10.139827 0.25,9.8451966 0.25,9.5000166 Z"
     id="path4017"
     fill="none"
     fill-rule="evenodd"
     stroke="#4e4752"
     stroke-width="0.5" />
  <path
     d="M 33.500977,10.999017 H 1.5009766 c -0.82842704,0 -1.5000000375,-0.67157 -1.5000000375,-1.5 V 9.0780171 C 0.04251826,9.875834 0.70207756,10.501097 1.5009766,10.500017 H 33.500977 c 0.8257,10e-6 1.4961,-0.667308 1.5,-1.493 v 0.487 c 0.0013,0.398696 -0.1561,0.78151 -0.4376,1.0639 -0.2814,0.28238 -0.6637,0.4411 -1.0624,0.4411 z"
     id="Shape"
     fill="#000000"
     fill-opacity="0.4"
     fill-rule="evenodd"
     stroke="none" />
  <path
     d="m 35,1.9920166 v 0 C 34.9961,1.1662966 34.3257,0.49899364 33.5,0.49901664 H 1.5 C 0.700735,0.49796264 0.0410284,1.1238066 0,1.9220166 l 1.19209e-7,-0.423 C 2.38419e-7,0.67058964 0.671573,-9.833574e-4 1.5,-9.833574e-4 h 32 c 0.8284,0 1.5,0.6715729974 1.5,1.4999999574 z"
     id="path4021"
     fill="#ffffff"
     fill-opacity="0.4"
     fill-rule="evenodd"
     stroke="none" />
  <path
     d="m 0.5,2.5000166 v -1 C 0.5,1.2238746 0.5976311,0.9881716 0.792893,0.7929096 0.988155,0.5976477 1.223858,0.5000166 1.5,0.5000166 h 32 c 0.2761,0 0.5118,0.0976311 0.7071,0.292893 0.1953,0.195262 0.2929,0.430965 0.2929,0.707107 v 8 c 0,0.27614 -0.0976,0.5118404 -0.2929,0.7071104 -0.1953,0.19526 -0.431,0.29289 -0.7071,0.29289 h -32 c -0.276142,0 -0.511845,-0.09763 -0.707107,-0.29289 C 0.5976311,10.011857 0.5,9.7761566 0.5,9.5000166 Z"
     id="path4023"
     fill="#ffffff"
     fill-opacity="0"
     fill-rule="evenodd"
     stroke="none" />
  <path
     d="m 1.5,1.5000167 h 7 v 8 h -7 z"
     id="path4031"
     fill="none"
     fill-rule="evenodd"
     stroke="none" />
  <g
     clip-path="url(#mask_1)"
     id="g4037"
     transform="translate(1.5,1.5000167)">
    <g
       id="g4035"
       transform="translate(0.5830078,0.57096815)">
      <path
         d="M 4.224,1.00003 5.833,1.97303 5.831,3.17097e-5 H 0.486 C 0.236121,-0.00280809 0.0253356,0.185424 0,0.434032 V 4.23403 l 1.1,0.272 c 0.05455,0.01384 0.11103,-0.01419 0.133,-0.066 l 0.274,-0.886 C 1.51915,3.52164 1.54546,3.4966 1.57841,3.48607 1.61136,3.47554 1.64732,3.48069 1.676,3.50003 l 2.634,1.6 c 0.1,0.06 0.026,0.2 -0.089,0.17 l -2.03,-0.5 C 2.13622,4.75485 2.07912,4.78515 2.061,4.83903 l -0.269,0.886 C 1.77956,5.75589 1.75414,5.7797 1.72254,5.79011 1.69093,5.80052 1.65634,5.79646 1.628,5.77903 L 0,4.79003 v 2.067 h 5.347 c 0.26005,2.7e-4 0.47423,-0.20422 0.486,-0.464 v -3.853 l -1.09,-0.265 C 4.68885,2.25996 4.63212,2.28855 4.612,2.34103 L 4.33,3.22903 C 4.31749,3.25983 4.29215,3.28363 4.26063,3.2942 4.22911,3.30477 4.19455,3.30106 4.166,3.28403 l -2.638,-1.604 c -0.1,-0.06 -0.026,-0.2 0.089,-0.171 l 2.03,0.5 C 3.7011,2.02361 3.75752,1.99519 3.778,1.94303 L 4.06,1.05403 C 4.07272,1.02341 4.09813,0.999837 4.12963,0.989467 4.16113,0.979096 4.19558,0.982953 4.224,1.00003 Z"
         id="path4033"
         fill="#ff9000"
         fill-rule="evenodd"
         stroke="none" />
    </g>
  </g>
  <g
     aria-label="Menu"
     id="text4635"
     style="font-style:normal;font-weight:normal;font-size:8px;line-height:125%;font-family:Sans;letter-spacing:0px;word-spacing:0px;fill:#c9b5b0;fill-opacity:1;stroke:none;stroke-width:1px;stroke-linecap:butt;stroke-linejoin:miter;stroke-opacity:1"
     transform="matrix(0.89383886,0,0,0.89383886,2.7321191,0.73772959)">
    <path
       d="M 15.747667,8.3601894 H 14.97423 V 3.3484707 L 13.357042,6.7586269 H 12.896105 L 11.290636,3.3484707 V 8.3601894 H 10.56798 V 2.5437832 h 1.054687 l 1.550782,3.2382812 1.5,-3.2382812 h 1.074218 z"
       id="path4637"
       style="fill:#c9b5b0" />
    <path
       d="m 20.903917,6.2547207 h -3.214843 q 0,0.4023437 0.121093,0.703125 0.121094,0.296875 0.332032,0.4882812 0.203125,0.1875 0.480468,0.28125 0.28125,0.09375 0.617188,0.09375 0.445312,0 0.894531,-0.1757812 0.453125,-0.1796875 0.644531,-0.3515625 h 0.03906 v 0.8007812 q -0.371094,0.15625 -0.757813,0.2617188 -0.386718,0.1054687 -0.8125,0.1054687 -1.085937,0 -1.695312,-0.5859375 -0.609375,-0.5898437 -0.609375,-1.671875 0,-1.0703125 0.582031,-1.6992187 0.585938,-0.6289063 1.539063,-0.6289063 0.882812,0 1.359375,0.515625 0.480468,0.515625 0.480468,1.4648438 z m -0.714843,-0.5625 q -0.0039,-0.578125 -0.292969,-0.8945313 -0.285156,-0.3164062 -0.871094,-0.3164062 -0.589844,0 -0.941406,0.3476562 -0.347656,0.3476563 -0.394531,0.8632813 z"
       id="path4639"
       style="fill:#c9b5b0" />
    <path
       d="m 25.665636,8.3601894 h -0.734375 v -2.484375 q 0,-0.3007812 -0.03516,-0.5625 -0.03516,-0.265625 -0.128906,-0.4140625 -0.09766,-0.1640625 -0.28125,-0.2421875 -0.183594,-0.082031 -0.476563,-0.082031 -0.300781,0 -0.628906,0.1484375 -0.328125,0.1484375 -0.628906,0.3789062 V 8.3601894 H 22.017199 V 3.9969082 h 0.734375 v 0.484375 q 0.34375,-0.2851563 0.710937,-0.4453125 0.367188,-0.1601563 0.753906,-0.1601563 0.707032,0 1.078125,0.4257813 0.371094,0.4257812 0.371094,1.2265625 z"
       id="path4641"
       style="fill:#c9b5b0" />
    <path
       d="m 30.696886,8.3601894 h -0.734375 v -0.484375 q -0.371094,0.2929688 -0.710937,0.4492188 -0.339844,0.15625 -0.75,0.15625 -0.6875,0 -1.070313,-0.4179688 -0.382812,-0.421875 -0.382812,-1.234375 V 3.9969082 h 0.734375 v 2.484375 q 0,0.3320312 0.03125,0.5703125 0.03125,0.234375 0.132812,0.4023437 0.105469,0.171875 0.273438,0.25 0.167968,0.078125 0.488281,0.078125 0.285156,0 0.621094,-0.1484375 0.339843,-0.1484375 0.632812,-0.3789062 V 3.9969082 h 0.734375 z"
       id="path4643"
       style="fill:#c9b5b0" />
  </g>
</svg>
