<svg xmlns="http://www.w3.org/2000/svg" width="90" height="98" viewBox="0 0 90 98"><g transform="translate(-1 1.78)"><rect width="12" height="12" rx="1" transform="translate(40 0.22)" fill="#e6e6ff" opacity="0.2"/><rect width="12" height="1" rx="0.5" transform="translate(40 -1.78)" fill="#e6e6ff" opacity="0.2"/><rect width="12" height="1" rx="0.5" transform="translate(40 -1.78)" fill="#ffe97e" opacity="0"/><path d="M0,.137c1.313,0,2.078-1.082,2.078-2.953S1.3-5.773,0-5.773-2.082-4.687-2.082-2.824-1.312.137,0,.137ZM0-.629c-.766,0-1.2-.77-1.2-2.2,0-1.41.445-2.184,1.2-2.184s1.2.77,1.2,2.184C1.2-1.395.77-.629,0-.629Z" transform="translate(46 9.22)" fill="#dbd7d7"/><rect width="12" height="12" rx="1" transform="translate(53 0.22)" fill="#e6e6ff" opacity="0.2"/><rect width="12" height="1" rx="0.5" transform="translate(53 -1.78)" fill="#e6e6ff" opacity="0.2"/><rect width="12" height="1" rx="0.5" transform="translate(53 -1.78)" fill="#ffe97e" opacity="0"/><path d="M.029,0H.9V-5.637H.033L-1.451-4.59V-3.7l1.414-1H.029Z" transform="translate(59 9.22)" fill="#dbd7d7"/><rect width="12" height="12" rx="1" transform="translate(66 0.22)" fill="#e6e6ff" opacity="0.2"/><rect width="12" height="1" rx="0.5" transform="translate(66 -1.78)" fill="#e6e6ff" opacity="0.2"/><rect width="12" height="1" rx="0.5" transform="translate(66 -1.78)" fill="#ffe97e" opacity="0"/><path d="M-1.91-4.008V-4h.828v-.012A.97.97,0,0,1-.043-5.016a.947.947,0,0,1,1.023.9C.98-3.7.8-3.4.043-2.617L-1.863-.633V0h3.8V-.785H-.645V-.852L.609-2.121c.945-.957,1.234-1.445,1.234-2.043A1.7,1.7,0,0,0-.016-5.773,1.758,1.758,0,0,0-1.91-4.008Z" transform="translate(72 9.22)" fill="#dbd7d7"/><rect width="12" height="12" rx="1" transform="translate(79 0.22)" fill="#e6e6ff" opacity="0.2"/><rect width="12" height="1" rx="0.5" transform="translate(79 -1.78)" fill="#e6e6ff" opacity="0.2"/><rect width="12" height="1" rx="0.5" transform="translate(79 -1.78)" fill="#ffe97e" opacity="0"/><path d="M-.729-2.531h.711c.738,0,1.2.363,1.2.945,0,.555-.484.949-1.172.949S-1.146-.984-1.2-1.531h-.84A1.828,1.828,0,0,0,.006.137,1.86,1.86,0,0,0,2.072-1.539,1.31,1.31,0,0,0,.834-2.91v-.066a1.268,1.268,0,0,0,1.008-1.3A1.67,1.67,0,0,0-.01-5.773,1.727,1.727,0,0,0-1.932-4.125H-1.1A.962.962,0,0,1-.037-5.02c.613,0,1.016.344,1.016.867a.922.922,0,0,1-1.023.9H-.729Z" transform="translate(85 9.22)" fill="#dbd7d7"/><rect width="12" height="12" rx="1" transform="translate(27 0.22)" fill="#e6e6ff" opacity="0.2"/><rect width="12" height="1" rx="0.5" transform="translate(27 -1.78)" fill="#e6e6ff" opacity="0.2"/><rect width="12" height="1" rx="0.5" transform="translate(27 -1.78)" fill="#ffe97e" opacity="0"/><path d="M-.648-1.859v-.824H-3.211v.824ZM1.934,0h.875V-5.637H1.938L.453-4.59V-3.7l1.414-1h.066Z" transform="translate(33 9.22)" fill="#dbd7d7"/><rect width="12" height="12" rx="1" transform="translate(14 0.22)" fill="#e6e6ff" opacity="0.2"/><rect width="12" height="1" rx="0.5" transform="translate(14 -1.78)" fill="#e6e6ff" opacity="0.2"/><rect width="12" height="1" rx="0.5" transform="translate(14 -1.78)" fill="#ffe97e" opacity="0"/><path d="M-1.189-1.859v-.824H-3.752v.824ZM-.006-4.008V-4H.822v-.012A.97.97,0,0,1,1.861-5.016a.947.947,0,0,1,1.023.9c0,.414-.184.711-.937,1.5L.041-.633V0h3.8V-.785H1.26V-.852l1.254-1.27c.945-.957,1.234-1.445,1.234-2.043A1.7,1.7,0,0,0,1.889-5.773,1.758,1.758,0,0,0-.006-4.008Z" transform="translate(20 9.22)" fill="#dbd7d7"/><rect width="12" height="12" rx="1" transform="translate(1 0.22)" fill="#956e57"/><rect width="12" height="1" rx="0.5" transform="translate(1 -1.78)" fill="#ffe97e"/><path d="M-1.285-1.859v-.824H-3.848v.824Zm2.461-.672h.711c.738,0,1.2.363,1.2.945,0,.555-.484.949-1.172.949S.758-.984.7-1.531h-.84A1.828,1.828,0,0,0,1.91.137,1.86,1.86,0,0,0,3.977-1.539,1.31,1.31,0,0,0,2.738-2.91v-.066a1.268,1.268,0,0,0,1.008-1.3A1.67,1.67,0,0,0,1.895-5.773,1.727,1.727,0,0,0-.027-4.125H.8A.962.962,0,0,1,1.867-5.02c.613,0,1.016.344,1.016.867a.922.922,0,0,1-1.023.9H1.176Z" transform="translate(7 9.22)" fill="#ffe97e"/><rect width="12" height="12" rx="1" transform="translate(40 14.22)" fill="#e6e6ff" opacity="0.2"/><rect width="12" height="1" rx="0.5" transform="translate(40 12.22)" fill="#e6e6ff" opacity="0.2"/><rect width="12" height="1" rx="0.5" transform="translate(40 12.22)" fill="#ffe97e" opacity="0"/><path d="M0,.137c1.313,0,2.078-1.082,2.078-2.953S1.3-5.773,0-5.773-2.082-4.687-2.082-2.824-1.312.137,0,.137ZM0-.629c-.766,0-1.2-.77-1.2-2.2,0-1.41.445-2.184,1.2-2.184s1.2.77,1.2,2.184C1.2-1.395.77-.629,0-.629Z" transform="translate(46 23.22)" fill="#dbd7d7"/><rect width="12" height="12" rx="1" transform="translate(53 14.22)" fill="#e6e6ff" opacity="0.2"/><rect width="12" height="1" rx="0.5" transform="translate(53 12.22)" fill="#e6e6ff" opacity="0.2"/><rect width="12" height="1" rx="0.5" transform="translate(53 12.22)" fill="#ffe97e" opacity="0"/><path d="M.029,0H.9V-5.637H.033L-1.451-4.59V-3.7l1.414-1H.029Z" transform="translate(59 23.22)" fill="#dbd7d7"/><rect width="12" height="12" rx="1" transform="translate(66 14.22)" fill="#e6e6ff" opacity="0.2"/><rect width="12" height="1" rx="0.5" transform="translate(66 12.22)" fill="#e6e6ff" opacity="0.2"/><rect width="12" height="1" rx="0.5" transform="translate(66 12.22)" fill="#ffe97e" opacity="0"/><path d="M-1.91-4.008V-4h.828v-.012A.97.97,0,0,1-.043-5.016a.947.947,0,0,1,1.023.9C.98-3.7.8-3.4.043-2.617L-1.863-.633V0h3.8V-.785H-.645V-.852L.609-2.121c.945-.957,1.234-1.445,1.234-2.043A1.7,1.7,0,0,0-.016-5.773,1.758,1.758,0,0,0-1.91-4.008Z" transform="translate(72 23.22)" fill="#dbd7d7"/><rect width="12" height="12" rx="1" transform="translate(79 14.22)" fill="#e6e6ff" opacity="0.2"/><rect width="12" height="1" rx="0.5" transform="translate(79 12.22)" fill="#e6e6ff" opacity="0.2"/><rect width="12" height="1" rx="0.5" transform="translate(79 12.22)" fill="#ffe97e" opacity="0"/><path d="M-.729-2.531h.711c.738,0,1.2.363,1.2.945,0,.555-.484.949-1.172.949S-1.146-.984-1.2-1.531h-.84A1.828,1.828,0,0,0,.006.137,1.86,1.86,0,0,0,2.072-1.539,1.31,1.31,0,0,0,.834-2.91v-.066a1.268,1.268,0,0,0,1.008-1.3A1.67,1.67,0,0,0-.01-5.773,1.727,1.727,0,0,0-1.932-4.125H-1.1A.962.962,0,0,1-.037-5.02c.613,0,1.016.344,1.016.867a.922.922,0,0,1-1.023.9H-.729Z" transform="translate(85 23.22)" fill="#dbd7d7"/><rect width="12" height="12" rx="1" transform="translate(27 14.22)" fill="#e6e6ff" opacity="0.2"/><rect width="12" height="1" rx="0.5" transform="translate(27 12.22)" fill="#e6e6ff" opacity="0.2"/><rect width="12" height="1" rx="0.5" transform="translate(27 12.22)" fill="#ffe97e" opacity="0"/><path d="M-.648-1.859v-.824H-3.211v.824ZM1.934,0h.875V-5.637H1.938L.453-4.59V-3.7l1.414-1h.066Z" transform="translate(33 23.22)" fill="#dbd7d7"/><rect width="12" height="12" rx="1" transform="translate(14 14.22)" fill="#956e57"/><rect width="12" height="1" rx="0.5" transform="translate(14 12.22)" fill="#ffe97e"/><path d="M-1.189-1.859v-.824H-3.752v.824ZM-.006-4.008V-4H.822v-.012A.97.97,0,0,1,1.861-5.016a.947.947,0,0,1,1.023.9c0,.414-.184.711-.937,1.5L.041-.633V0h3.8V-.785H1.26V-.852l1.254-1.27c.945-.957,1.234-1.445,1.234-2.043A1.7,1.7,0,0,0,1.889-5.773,1.758,1.758,0,0,0-.006-4.008Z" transform="translate(20 23.22)" fill="#ffe97e"/><rect width="12" height="12" rx="1" transform="translate(1 14.22)" fill="#e6e6ff" opacity="0.2"/><rect width="12" height="1" rx="0.5" transform="translate(1 12.22)" fill="#e6e6ff" opacity="0.2"/><rect width="12" height="1" rx="0.5" transform="translate(1 12.22)" fill="#ffe97e" opacity="0"/><path d="M-1.285-1.859v-.824H-3.848v.824Zm2.461-.672h.711c.738,0,1.2.363,1.2.945,0,.555-.484.949-1.172.949S.758-.984.7-1.531h-.84A1.828,1.828,0,0,0,1.91.137,1.86,1.86,0,0,0,3.977-1.539,1.31,1.31,0,0,0,2.738-2.91v-.066a1.268,1.268,0,0,0,1.008-1.3A1.67,1.67,0,0,0,1.895-5.773,1.727,1.727,0,0,0-.027-4.125H.8A.962.962,0,0,1,1.867-5.02c.613,0,1.016.344,1.016.867a.922.922,0,0,1-1.023.9H1.176Z" transform="translate(7 23.22)" fill="#dbd7d7"/><rect width="12" height="12" rx="1" transform="translate(40 28.22)" fill="#e6e6ff" opacity="0.2"/><rect width="12" height="1" rx="0.5" transform="translate(40 26.22)" fill="#e6e6ff" opacity="0.2"/><rect width="12" height="1" rx="0.5" transform="translate(40 26.22)" fill="#ffe97e" opacity="0"/><path d="M0,.137c1.313,0,2.078-1.082,2.078-2.953S1.3-5.773,0-5.773-2.082-4.687-2.082-2.824-1.312.137,0,.137ZM0-.629c-.766,0-1.2-.77-1.2-2.2,0-1.41.445-2.184,1.2-2.184s1.2.77,1.2,2.184C1.2-1.395.77-.629,0-.629Z" transform="translate(46 37.22)" fill="#dbd7d7"/><rect width="12" height="12" rx="1" transform="translate(53 28.22)" fill="#e6e6ff" opacity="0.2"/><rect width="12" height="1" rx="0.5" transform="translate(53 26.22)" fill="#e6e6ff" opacity="0.2"/><rect width="12" height="1" rx="0.5" transform="translate(53 26.22)" fill="#ffe97e" opacity="0"/><path d="M.029,0H.9V-5.637H.033L-1.451-4.59V-3.7l1.414-1H.029Z" transform="translate(59 37.22)" fill="#dbd7d7"/><rect width="12" height="12" rx="1" transform="translate(66 28.22)" fill="#e6e6ff" opacity="0.2"/><rect width="12" height="1" rx="0.5" transform="translate(66 26.22)" fill="#e6e6ff" opacity="0.2"/><rect width="12" height="1" rx="0.5" transform="translate(66 26.22)" fill="#ffe97e" opacity="0"/><path d="M-1.91-4.008V-4h.828v-.012A.97.97,0,0,1-.043-5.016a.947.947,0,0,1,1.023.9C.98-3.7.8-3.4.043-2.617L-1.863-.633V0h3.8V-.785H-.645V-.852L.609-2.121c.945-.957,1.234-1.445,1.234-2.043A1.7,1.7,0,0,0-.016-5.773,1.758,1.758,0,0,0-1.91-4.008Z" transform="translate(72 37.22)" fill="#dbd7d7"/><rect width="12" height="12" rx="1" transform="translate(79 28.22)" fill="#e6e6ff" opacity="0.2"/><rect width="12" height="1" rx="0.5" transform="translate(79 26.22)" fill="#e6e6ff" opacity="0.2"/><rect width="12" height="1" rx="0.5" transform="translate(79 26.22)" fill="#ffe97e" opacity="0"/><path d="M-.729-2.531h.711c.738,0,1.2.363,1.2.945,0,.555-.484.949-1.172.949S-1.146-.984-1.2-1.531h-.84A1.828,1.828,0,0,0,.006.137,1.86,1.86,0,0,0,2.072-1.539,1.31,1.31,0,0,0,.834-2.91v-.066a1.268,1.268,0,0,0,1.008-1.3A1.67,1.67,0,0,0-.01-5.773,1.727,1.727,0,0,0-1.932-4.125H-1.1A.962.962,0,0,1-.037-5.02c.613,0,1.016.344,1.016.867a.922.922,0,0,1-1.023.9H-.729Z" transform="translate(85 37.22)" fill="#dbd7d7"/><rect width="12" height="12" rx="1" transform="translate(27 28.22)" fill="#956e57"/><rect width="12" height="1" rx="0.5" transform="translate(27 26.22)" fill="#ffe97e"/><path d="M-.648-1.859v-.824H-3.211v.824ZM1.934,0h.875V-5.637H1.938L.453-4.59V-3.7l1.414-1h.066Z" transform="translate(33 37.22)" fill="#ffe97e"/><rect width="12" height="12" rx="1" transform="translate(14 28.22)" fill="#e6e6ff" opacity="0.2"/><rect width="12" height="1" rx="0.5" transform="translate(14 26.22)" fill="#e6e6ff" opacity="0.2"/><rect width="12" height="1" rx="0.5" transform="translate(14 26.22)" fill="#ffe97e" opacity="0"/><path d="M-1.189-1.859v-.824H-3.752v.824ZM-.006-4.008V-4H.822v-.012A.97.97,0,0,1,1.861-5.016a.947.947,0,0,1,1.023.9c0,.414-.184.711-.937,1.5L.041-.633V0h3.8V-.785H1.26V-.852l1.254-1.27c.945-.957,1.234-1.445,1.234-2.043A1.7,1.7,0,0,0,1.889-5.773,1.758,1.758,0,0,0-.006-4.008Z" transform="translate(20 37.22)" fill="#dbd7d7"/><rect width="12" height="12" rx="1" transform="translate(1 28.22)" fill="#e6e6ff" opacity="0.2"/><rect width="12" height="1" rx="0.5" transform="translate(1 26.22)" fill="#e6e6ff" opacity="0.2"/><rect width="12" height="1" rx="0.5" transform="translate(1 26.22)" fill="#ffe97e" opacity="0"/><path d="M-1.285-1.859v-.824H-3.848v.824Zm2.461-.672h.711c.738,0,1.2.363,1.2.945,0,.555-.484.949-1.172.949S.758-.984.7-1.531h-.84A1.828,1.828,0,0,0,1.91.137,1.86,1.86,0,0,0,3.977-1.539,1.31,1.31,0,0,0,2.738-2.91v-.066a1.268,1.268,0,0,0,1.008-1.3A1.67,1.67,0,0,0,1.895-5.773,1.727,1.727,0,0,0-.027-4.125H.8A.962.962,0,0,1,1.867-5.02c.613,0,1.016.344,1.016.867a.922.922,0,0,1-1.023.9H1.176Z" transform="translate(7 37.22)" fill="#dbd7d7"/><rect width="12" height="12" rx="1" transform="translate(40 42.22)" fill="#956e57"/><rect width="12" height="1" rx="0.5" transform="translate(40 40.22)" fill="#ffe97e"/><path d="M0,.137c1.313,0,2.078-1.082,2.078-2.953S1.3-5.773,0-5.773-2.082-4.687-2.082-2.824-1.312.137,0,.137ZM0-.629c-.766,0-1.2-.77-1.2-2.2,0-1.41.445-2.184,1.2-2.184s1.2.77,1.2,2.184C1.2-1.395.77-.629,0-.629Z" transform="translate(46 51.22)" fill="#ffe97e"/><rect width="12" height="12" rx="1" transform="translate(53 42.22)" fill="#e6e6ff" opacity="0.2"/><rect width="12" height="1" rx="0.5" transform="translate(53 40.22)" fill="#e6e6ff" opacity="0.2"/><rect width="12" height="1" rx="0.5" transform="translate(53 40.22)" fill="#ffe97e" opacity="0"/><path d="M.029,0H.9V-5.637H.033L-1.451-4.59V-3.7l1.414-1H.029Z" transform="translate(59 51.22)" fill="#dbd7d7"/><rect width="12" height="12" rx="1" transform="translate(66 42.22)" fill="#e6e6ff" opacity="0.2"/><rect width="12" height="1" rx="0.5" transform="translate(66 40.22)" fill="#e6e6ff" opacity="0.2"/><rect width="12" height="1" rx="0.5" transform="translate(66 40.22)" fill="#ffe97e" opacity="0"/><path d="M-1.91-4.008V-4h.828v-.012A.97.97,0,0,1-.043-5.016a.947.947,0,0,1,1.023.9C.98-3.7.8-3.4.043-2.617L-1.863-.633V0h3.8V-.785H-.645V-.852L.609-2.121c.945-.957,1.234-1.445,1.234-2.043A1.7,1.7,0,0,0-.016-5.773,1.758,1.758,0,0,0-1.91-4.008Z" transform="translate(72 51.22)" fill="#dbd7d7"/><rect width="12" height="12" rx="1" transform="translate(79 42.22)" fill="#e6e6ff" opacity="0.2"/><rect width="12" height="1" rx="0.5" transform="translate(79 40.22)" fill="#e6e6ff" opacity="0.2"/><rect width="12" height="1" rx="0.5" transform="translate(79 40.22)" fill="#ffe97e" opacity="0"/><path d="M-.729-2.531h.711c.738,0,1.2.363,1.2.945,0,.555-.484.949-1.172.949S-1.146-.984-1.2-1.531h-.84A1.828,1.828,0,0,0,.006.137,1.86,1.86,0,0,0,2.072-1.539,1.31,1.31,0,0,0,.834-2.91v-.066a1.268,1.268,0,0,0,1.008-1.3A1.67,1.67,0,0,0-.01-5.773,1.727,1.727,0,0,0-1.932-4.125H-1.1A.962.962,0,0,1-.037-5.02c.613,0,1.016.344,1.016.867a.922.922,0,0,1-1.023.9H-.729Z" transform="translate(85 51.22)" fill="#dbd7d7"/><rect width="12" height="12" rx="1" transform="translate(27 42.22)" fill="#e6e6ff" opacity="0.2"/><rect width="12" height="1" rx="0.5" transform="translate(27 40.22)" fill="#e6e6ff" opacity="0.2"/><rect width="12" height="1" rx="0.5" transform="translate(27 40.22)" fill="#ffe97e" opacity="0"/><path d="M-.648-1.859v-.824H-3.211v.824ZM1.934,0h.875V-5.637H1.938L.453-4.59V-3.7l1.414-1h.066Z" transform="translate(33 51.22)" fill="#dbd7d7"/><rect width="12" height="12" rx="1" transform="translate(14 42.22)" fill="#e6e6ff" opacity="0.2"/><rect width="12" height="1" rx="0.5" transform="translate(14 40.22)" fill="#e6e6ff" opacity="0.2"/><rect width="12" height="1" rx="0.5" transform="translate(14 40.22)" fill="#ffe97e" opacity="0"/><path d="M-1.189-1.859v-.824H-3.752v.824ZM-.006-4.008V-4H.822v-.012A.97.97,0,0,1,1.861-5.016a.947.947,0,0,1,1.023.9c0,.414-.184.711-.937,1.5L.041-.633V0h3.8V-.785H1.26V-.852l1.254-1.27c.945-.957,1.234-1.445,1.234-2.043A1.7,1.7,0,0,0,1.889-5.773,1.758,1.758,0,0,0-.006-4.008Z" transform="translate(20 51.22)" fill="#dbd7d7"/><rect width="12" height="12" rx="1" transform="translate(1 42.22)" fill="#e6e6ff" opacity="0.2"/><rect width="12" height="1" rx="0.5" transform="translate(1 40.22)" fill="#e6e6ff" opacity="0.2"/><rect width="12" height="1" rx="0.5" transform="translate(1 40.22)" fill="#ffe97e" opacity="0"/><path d="M-1.285-1.859v-.824H-3.848v.824Zm2.461-.672h.711c.738,0,1.2.363,1.2.945,0,.555-.484.949-1.172.949S.758-.984.7-1.531h-.84A1.828,1.828,0,0,0,1.91.137,1.86,1.86,0,0,0,3.977-1.539,1.31,1.31,0,0,0,2.738-2.91v-.066a1.268,1.268,0,0,0,1.008-1.3A1.67,1.67,0,0,0,1.895-5.773,1.727,1.727,0,0,0-.027-4.125H.8A.962.962,0,0,1,1.867-5.02c.613,0,1.016.344,1.016.867a.922.922,0,0,1-1.023.9H1.176Z" transform="translate(7 51.22)" fill="#dbd7d7"/><rect width="12" height="12" rx="1" transform="translate(40 56.22)" fill="#e6e6ff" opacity="0.2"/><rect width="12" height="1" rx="0.5" transform="translate(40 54.22)" fill="#e6e6ff" opacity="0.2"/><rect width="12" height="1" rx="0.5" transform="translate(40 54.22)" fill="#ffe97e" opacity="0"/><path d="M0,.137c1.313,0,2.078-1.082,2.078-2.953S1.3-5.773,0-5.773-2.082-4.687-2.082-2.824-1.312.137,0,.137ZM0-.629c-.766,0-1.2-.77-1.2-2.2,0-1.41.445-2.184,1.2-2.184s1.2.77,1.2,2.184C1.2-1.395.77-.629,0-.629Z" transform="translate(46 65.22)" fill="#dbd7d7"/><rect width="12" height="12" rx="1" transform="translate(53 56.22)" fill="#956e57"/><rect width="12" height="1" rx="0.5" transform="translate(53 54.22)" fill="#ffe97e"/><path d="M.029,0H.9V-5.637H.033L-1.451-4.59V-3.7l1.414-1H.029Z" transform="translate(59 65.22)" fill="#ffe97e"/><rect width="12" height="12" rx="1" transform="translate(66 56.22)" fill="#e6e6ff" opacity="0.2"/><rect width="12" height="1" rx="0.5" transform="translate(66 54.22)" fill="#e6e6ff" opacity="0.2"/><rect width="12" height="1" rx="0.5" transform="translate(66 54.22)" fill="#ffe97e" opacity="0"/><path d="M-1.91-4.008V-4h.828v-.012A.97.97,0,0,1-.043-5.016a.947.947,0,0,1,1.023.9C.98-3.7.8-3.4.043-2.617L-1.863-.633V0h3.8V-.785H-.645V-.852L.609-2.121c.945-.957,1.234-1.445,1.234-2.043A1.7,1.7,0,0,0-.016-5.773,1.758,1.758,0,0,0-1.91-4.008Z" transform="translate(72 65.22)" fill="#dbd7d7"/><rect width="12" height="12" rx="1" transform="translate(79 56.22)" fill="#e6e6ff" opacity="0.2"/><rect width="12" height="1" rx="0.5" transform="translate(79 54.22)" fill="#e6e6ff" opacity="0.2"/><rect width="12" height="1" rx="0.5" transform="translate(79 54.22)" fill="#ffe97e" opacity="0"/><path d="M-.729-2.531h.711c.738,0,1.2.363,1.2.945,0,.555-.484.949-1.172.949S-1.146-.984-1.2-1.531h-.84A1.828,1.828,0,0,0,.006.137,1.86,1.86,0,0,0,2.072-1.539,1.31,1.31,0,0,0,.834-2.91v-.066a1.268,1.268,0,0,0,1.008-1.3A1.67,1.67,0,0,0-.01-5.773,1.727,1.727,0,0,0-1.932-4.125H-1.1A.962.962,0,0,1-.037-5.02c.613,0,1.016.344,1.016.867a.922.922,0,0,1-1.023.9H-.729Z" transform="translate(85 65.22)" fill="#dbd7d7"/><rect width="12" height="12" rx="1" transform="translate(27 56.22)" fill="#e6e6ff" opacity="0.2"/><rect width="12" height="1" rx="0.5" transform="translate(27 54.22)" fill="#e6e6ff" opacity="0.2"/><rect width="12" height="1" rx="0.5" transform="translate(27 54.22)" fill="#ffe97e" opacity="0"/><path d="M-.648-1.859v-.824H-3.211v.824ZM1.934,0h.875V-5.637H1.938L.453-4.59V-3.7l1.414-1h.066Z" transform="translate(33 65.22)" fill="#dbd7d7"/><rect width="12" height="12" rx="1" transform="translate(14 56.22)" fill="#e6e6ff" opacity="0.2"/><rect width="12" height="1" rx="0.5" transform="translate(14 54.22)" fill="#e6e6ff" opacity="0.2"/><rect width="12" height="1" rx="0.5" transform="translate(14 54.22)" fill="#ffe97e" opacity="0"/><path d="M-1.189-1.859v-.824H-3.752v.824ZM-.006-4.008V-4H.822v-.012A.97.97,0,0,1,1.861-5.016a.947.947,0,0,1,1.023.9c0,.414-.184.711-.937,1.5L.041-.633V0h3.8V-.785H1.26V-.852l1.254-1.27c.945-.957,1.234-1.445,1.234-2.043A1.7,1.7,0,0,0,1.889-5.773,1.758,1.758,0,0,0-.006-4.008Z" transform="translate(20 65.22)" fill="#dbd7d7"/><rect width="12" height="12" rx="1" transform="translate(1 56.22)" fill="#e6e6ff" opacity="0.2"/><rect width="12" height="1" rx="0.5" transform="translate(1 54.22)" fill="#e6e6ff" opacity="0.2"/><rect width="12" height="1" rx="0.5" transform="translate(1 54.22)" fill="#ffe97e" opacity="0"/><path d="M-1.285-1.859v-.824H-3.848v.824Zm2.461-.672h.711c.738,0,1.2.363,1.2.945,0,.555-.484.949-1.172.949S.758-.984.7-1.531h-.84A1.828,1.828,0,0,0,1.91.137,1.86,1.86,0,0,0,3.977-1.539,1.31,1.31,0,0,0,2.738-2.91v-.066a1.268,1.268,0,0,0,1.008-1.3A1.67,1.67,0,0,0,1.895-5.773,1.727,1.727,0,0,0-.027-4.125H.8A.962.962,0,0,1,1.867-5.02c.613,0,1.016.344,1.016.867a.922.922,0,0,1-1.023.9H1.176Z" transform="translate(7 65.22)" fill="#dbd7d7"/><rect width="12" height="12" rx="1" transform="translate(40 70.22)" fill="#e6e6ff" opacity="0.2"/><rect width="12" height="1" rx="0.5" transform="translate(40 68.22)" fill="#e6e6ff" opacity="0.2"/><rect width="12" height="1" rx="0.5" transform="translate(40 68.22)" fill="#ffe97e" opacity="0"/><path d="M0,.137c1.313,0,2.078-1.082,2.078-2.953S1.3-5.773,0-5.773-2.082-4.687-2.082-2.824-1.312.137,0,.137ZM0-.629c-.766,0-1.2-.77-1.2-2.2,0-1.41.445-2.184,1.2-2.184s1.2.77,1.2,2.184C1.2-1.395.77-.629,0-.629Z" transform="translate(46 79.22)" fill="#dbd7d7"/><rect width="12" height="12" rx="1" transform="translate(53 70.22)" fill="#e6e6ff" opacity="0.2"/><rect width="12" height="1" rx="0.5" transform="translate(53 68.22)" fill="#e6e6ff" opacity="0.2"/><rect width="12" height="1" rx="0.5" transform="translate(53 68.22)" fill="#ffe97e" opacity="0"/><path d="M.029,0H.9V-5.637H.033L-1.451-4.59V-3.7l1.414-1H.029Z" transform="translate(59 79.22)" fill="#dbd7d7"/><rect width="12" height="12" rx="1" transform="translate(66 70.22)" fill="#956e57"/><rect width="12" height="1" rx="0.5" transform="translate(66 68.22)" fill="#ffe97e"/><path d="M-1.91-4.008V-4h.828v-.012A.97.97,0,0,1-.043-5.016a.947.947,0,0,1,1.023.9C.98-3.7.8-3.4.043-2.617L-1.863-.633V0h3.8V-.785H-.645V-.852L.609-2.121c.945-.957,1.234-1.445,1.234-2.043A1.7,1.7,0,0,0-.016-5.773,1.758,1.758,0,0,0-1.91-4.008Z" transform="translate(72 79.22)" fill="#ffe97e"/><rect width="12" height="12" rx="1" transform="translate(79 70.22)" fill="#e6e6ff" opacity="0.2"/><rect width="12" height="1" rx="0.5" transform="translate(79 68.22)" fill="#e6e6ff" opacity="0.2"/><rect width="12" height="1" rx="0.5" transform="translate(79 68.22)" fill="#ffe97e" opacity="0"/><path d="M-.729-2.531h.711c.738,0,1.2.363,1.2.945,0,.555-.484.949-1.172.949S-1.146-.984-1.2-1.531h-.84A1.828,1.828,0,0,0,.006.137,1.86,1.86,0,0,0,2.072-1.539,1.31,1.31,0,0,0,.834-2.91v-.066a1.268,1.268,0,0,0,1.008-1.3A1.67,1.67,0,0,0-.01-5.773,1.727,1.727,0,0,0-1.932-4.125H-1.1A.962.962,0,0,1-.037-5.02c.613,0,1.016.344,1.016.867a.922.922,0,0,1-1.023.9H-.729Z" transform="translate(85 79.22)" fill="#dbd7d7"/><rect width="12" height="12" rx="1" transform="translate(27 70.22)" fill="#e6e6ff" opacity="0.2"/><rect width="12" height="1" rx="0.5" transform="translate(27 68.22)" fill="#e6e6ff" opacity="0.2"/><rect width="12" height="1" rx="0.5" transform="translate(27 68.22)" fill="#ffe97e" opacity="0"/><path d="M-.648-1.859v-.824H-3.211v.824ZM1.934,0h.875V-5.637H1.938L.453-4.59V-3.7l1.414-1h.066Z" transform="translate(33 79.22)" fill="#dbd7d7"/><rect width="12" height="12" rx="1" transform="translate(14 70.22)" fill="#e6e6ff" opacity="0.2"/><rect width="12" height="1" rx="0.5" transform="translate(14 68.22)" fill="#e6e6ff" opacity="0.2"/><rect width="12" height="1" rx="0.5" transform="translate(14 68.22)" fill="#ffe97e" opacity="0"/><path d="M-1.189-1.859v-.824H-3.752v.824ZM-.006-4.008V-4H.822v-.012A.97.97,0,0,1,1.861-5.016a.947.947,0,0,1,1.023.9c0,.414-.184.711-.937,1.5L.041-.633V0h3.8V-.785H1.26V-.852l1.254-1.27c.945-.957,1.234-1.445,1.234-2.043A1.7,1.7,0,0,0,1.889-5.773,1.758,1.758,0,0,0-.006-4.008Z" transform="translate(20 79.22)" fill="#dbd7d7"/><rect width="12" height="12" rx="1" transform="translate(1 70.22)" fill="#e6e6ff" opacity="0.2"/><rect width="12" height="1" rx="0.5" transform="translate(1 68.22)" fill="#e6e6ff" opacity="0.2"/><rect width="12" height="1" rx="0.5" transform="translate(1 68.22)" fill="#ffe97e" opacity="0"/><path d="M-1.285-1.859v-.824H-3.848v.824Zm2.461-.672h.711c.738,0,1.2.363,1.2.945,0,.555-.484.949-1.172.949S.758-.984.7-1.531h-.84A1.828,1.828,0,0,0,1.91.137,1.86,1.86,0,0,0,3.977-1.539,1.31,1.31,0,0,0,2.738-2.91v-.066a1.268,1.268,0,0,0,1.008-1.3A1.67,1.67,0,0,0,1.895-5.773,1.727,1.727,0,0,0-.027-4.125H.8A.962.962,0,0,1,1.867-5.02c.613,0,1.016.344,1.016.867a.922.922,0,0,1-1.023.9H1.176Z" transform="translate(7 79.22)" fill="#dbd7d7"/><rect width="12" height="12" rx="1" transform="translate(40 84.22)" fill="#e6e6ff" opacity="0.2"/><rect width="12" height="1" rx="0.5" transform="translate(40 82.22)" fill="#e6e6ff" opacity="0.2"/><rect width="12" height="1" rx="0.5" transform="translate(40 82.22)" fill="#ffe97e" opacity="0"/><path d="M0,.137c1.313,0,2.078-1.082,2.078-2.953S1.3-5.773,0-5.773-2.082-4.687-2.082-2.824-1.312.137,0,.137ZM0-.629c-.766,0-1.2-.77-1.2-2.2,0-1.41.445-2.184,1.2-2.184s1.2.77,1.2,2.184C1.2-1.395.77-.629,0-.629Z" transform="translate(46 93.22)" fill="#dbd7d7"/><rect width="12" height="12" rx="1" transform="translate(53 84.22)" fill="#e6e6ff" opacity="0.2"/><rect width="12" height="1" rx="0.5" transform="translate(53 82.22)" fill="#e6e6ff" opacity="0.2"/><rect width="12" height="1" rx="0.5" transform="translate(53 82.22)" fill="#ffe97e" opacity="0"/><path d="M.029,0H.9V-5.637H.033L-1.451-4.59V-3.7l1.414-1H.029Z" transform="translate(59 93.22)" fill="#dbd7d7"/><rect width="12" height="12" rx="1" transform="translate(66 84.22)" fill="#e6e6ff" opacity="0.2"/><rect width="12" height="1" rx="0.5" transform="translate(66 82.22)" fill="#e6e6ff" opacity="0.2"/><rect width="12" height="1" rx="0.5" transform="translate(66 82.22)" fill="#ffe97e" opacity="0"/><path d="M-1.91-4.008V-4h.828v-.012A.97.97,0,0,1-.043-5.016a.947.947,0,0,1,1.023.9C.98-3.7.8-3.4.043-2.617L-1.863-.633V0h3.8V-.785H-.645V-.852L.609-2.121c.945-.957,1.234-1.445,1.234-2.043A1.7,1.7,0,0,0-.016-5.773,1.758,1.758,0,0,0-1.91-4.008Z" transform="translate(72 93.22)" fill="#dbd7d7"/><rect width="12" height="12" rx="1" transform="translate(79 84.22)" fill="#956e57"/><rect width="12" height="1" rx="0.5" transform="translate(79 82.22)" fill="#ffe97e"/><path d="M-.729-2.531h.711c.738,0,1.2.363,1.2.945,0,.555-.484.949-1.172.949S-1.146-.984-1.2-1.531h-.84A1.828,1.828,0,0,0,.006.137,1.86,1.86,0,0,0,2.072-1.539,1.31,1.31,0,0,0,.834-2.91v-.066a1.268,1.268,0,0,0,1.008-1.3A1.67,1.67,0,0,0-.01-5.773,1.727,1.727,0,0,0-1.932-4.125H-1.1A.962.962,0,0,1-.037-5.02c.613,0,1.016.344,1.016.867a.922.922,0,0,1-1.023.9H-.729Z" transform="translate(85 93.22)" fill="#ffe97e"/><rect width="12" height="12" rx="1" transform="translate(27 84.22)" fill="#e6e6ff" opacity="0.2"/><rect width="12" height="1" rx="0.5" transform="translate(27 82.22)" fill="#e6e6ff" opacity="0.2"/><rect width="12" height="1" rx="0.5" transform="translate(27 82.22)" fill="#ffe97e" opacity="0"/><path d="M-.648-1.859v-.824H-3.211v.824ZM1.934,0h.875V-5.637H1.938L.453-4.59V-3.7l1.414-1h.066Z" transform="translate(33 93.22)" fill="#dbd7d7"/><rect width="12" height="12" rx="1" transform="translate(14 84.22)" fill="#e6e6ff" opacity="0.2"/><rect width="12" height="1" rx="0.5" transform="translate(14 82.22)" fill="#e6e6ff" opacity="0.2"/><rect width="12" height="1" rx="0.5" transform="translate(14 82.22)" fill="#ffe97e" opacity="0"/><path d="M-1.189-1.859v-.824H-3.752v.824ZM-.006-4.008V-4H.822v-.012A.97.97,0,0,1,1.861-5.016a.947.947,0,0,1,1.023.9c0,.414-.184.711-.937,1.5L.041-.633V0h3.8V-.785H1.26V-.852l1.254-1.27c.945-.957,1.234-1.445,1.234-2.043A1.7,1.7,0,0,0,1.889-5.773,1.758,1.758,0,0,0-.006-4.008Z" transform="translate(20 93.22)" fill="#dbd7d7"/><rect width="12" height="12" rx="1" transform="translate(1 84.22)" fill="#e6e6ff" opacity="0.2"/><rect width="12" height="1" rx="0.5" transform="translate(1 82.22)" fill="#e6e6ff" opacity="0.2"/><rect width="12" height="1" rx="0.5" transform="translate(1 82.22)" fill="#ffe97e" opacity="0"/><path d="M-1.285-1.859v-.824H-3.848v.824Zm2.461-.672h.711c.738,0,1.2.363,1.2.945,0,.555-.484.949-1.172.949S.758-.984.7-1.531h-.84A1.828,1.828,0,0,0,1.91.137,1.86,1.86,0,0,0,3.977-1.539,1.31,1.31,0,0,0,2.738-2.91v-.066a1.268,1.268,0,0,0,1.008-1.3A1.67,1.67,0,0,0,1.895-5.773,1.727,1.727,0,0,0-.027-4.125H.8A.962.962,0,0,1,1.867-5.02c.613,0,1.016.344,1.016.867a.922.922,0,0,1-1.023.9H1.176Z" transform="translate(7 93.22)" fill="#dbd7d7"/></g></svg>