<?xml version="1.0" encoding="UTF-8" standalone="no"?>
<svg
   xmlns:dc="http://purl.org/dc/elements/1.1/"
   xmlns:cc="http://creativecommons.org/ns#"
   xmlns:rdf="http://www.w3.org/1999/02/22-rdf-syntax-ns#"
   xmlns:svg="http://www.w3.org/2000/svg"
   xmlns="http://www.w3.org/2000/svg"
   xmlns:xlink="http://www.w3.org/1999/xlink"
   xmlns:sodipodi="http://sodipodi.sourceforge.net/DTD/sodipodi-0.dtd"
   xmlns:inkscape="http://www.inkscape.org/namespaces/inkscape"
   width="34"
   height="11"
   viewBox="0 0 34 11"
   version="1.1"
   id="svg16478"
   sodipodi:docname="bmp00148.svg"
   inkscape:version="1.0.1 (3bc2e813f5, 2020-09-07)">
  <metadata
     id="metadata16482">
    <rdf:RDF>
      <cc:Work
         rdf:about="">
        <dc:format>image/svg+xml</dc:format>
        <dc:type
           rdf:resource="http://purl.org/dc/dcmitype/StillImage" />
        <dc:title />
      </cc:Work>
    </rdf:RDF>
  </metadata>
  <sodipodi:namedview
     pagecolor="#464646"
     bordercolor="#666666"
     borderopacity="1"
     objecttolerance="10"
     gridtolerance="10"
     guidetolerance="10"
     inkscape:pageopacity="0"
     inkscape:pageshadow="2"
     inkscape:window-width="3753"
     inkscape:window-height="2137"
     id="namedview16480"
     showgrid="false"
     inkscape:zoom="87.76443"
     inkscape:cx="16.821569"
     inkscape:cy="3.2189189"
     inkscape:window-x="-8"
     inkscape:window-y="-8"
     inkscape:window-maximized="1"
     inkscape:current-layer="svg16478"
     inkscape:document-rotation="0" />
  <defs
     id="defs16458">
    <linearGradient
       id="a"
       x1="0.5"
       x2="0.5"
       y2="1"
       gradientUnits="objectBoundingBox">
      <stop
         offset="0"
         stop-color="#787477"
         id="stop16453" />
      <stop
         offset="1"
         stop-color="#716b6c"
         id="stop16455" />
    </linearGradient>
    <linearGradient
       inkscape:collect="always"
       xlink:href="#linearGradient10622"
       id="linearGradient10616"
       x1="8.953125"
       y1="0.78125"
       x2="8.921875"
       y2="9.8125"
       gradientUnits="userSpaceOnUse"
       gradientTransform="translate(0,3.15e-4)" />
    <linearGradient
       x1="0.5"
       y1="0"
       x2="0.5"
       y2="1"
       id="linearGradient10622">
      <stop
         offset="0"
         stop-color="#787477"
         id="stop10618" />
      <stop
         offset="1"
         stop-color="#716B6C"
         id="stop10620"
         style="stop-color:#696568;stop-opacity:1" />
    </linearGradient>
  </defs>
  <rect
     width="33"
     height="10"
     rx="1"
     fill="#ffffff"
     opacity="0"
     id="rect16470"
     x="0.5"
     y="0.50099999" />
  <path
     id="rect10608"
     style="opacity:1;fill:#0a090a;fill-opacity:1;stroke:none;stroke-width:1.19165;stroke-linecap:butt;stroke-linejoin:miter;stroke-miterlimit:4;stroke-dasharray:none;stroke-opacity:1;paint-order:stroke markers fill"
     d="m 32.382296,10.999843 c -0.855909,0 -30.764592,3.15e-4 -30.764592,3.15e-4 C 0.71384199,11.000168 0,10.289417 0,9.3855554 V 1.631834 C 0,0.727972 0.72765699,3.253094e-4 1.631519,3.15e-4 1.631519,3.15e-4 23.729707,0 32.396111,0 33.228781,0 34,0.66457479 34,1.6318675 v 7.7530253 c 0,0.8875912 -0.761796,1.6149502 -1.617704,1.6149502 z"
     sodipodi:nodetypes="zssssszzz" />
  <path
     id="rect7997"
     style="opacity:1;fill:url(#linearGradient10616);fill-opacity:1;stroke:none;stroke-width:1.11;stroke-linecap:butt;stroke-linejoin:miter;stroke-miterlimit:4;stroke-dasharray:none;stroke-opacity:1;paint-order:stroke markers fill"
     d="m 1.846436,0.414189 h 30.28632 c 0.723812,0 1.424267,0.58207297 1.424267,1.4044043 0,0.7995399 0.01139,6.08837 0.01139,7.309493 0,0.7425723 -0.67791,1.4385867 -1.435661,1.4385867 H 1.846432 c -0.790561,0 -1.427005,-0.6364446 -1.427005,-1.4270052 V 1.841193 c 0,-0.79056 0.636444,-1.427004 1.427005,-1.427004 z"
     sodipodi:nodetypes="ssssssssss" />
  <path
     id="rect10605"
     style="opacity:1;fill:#959197;fill-opacity:1;stroke:none;stroke-width:0.723173;stroke-linecap:butt;stroke-linejoin:miter;stroke-miterlimit:4;stroke-dasharray:none;stroke-opacity:1;paint-order:stroke markers fill"
     d="M 1.6953125,0.42382812 C 1.4118405,0.42400512 0.88650061,0.65816975 0.61914062,1.1210938 0.34716762,1.5919987 0.4140625,1.8971994 0.4140625,1.9433594 c 0,0.053384 0.34677799,-1.02343752 1.265625,-1.02343752 H 32.273438 c 0.918846,0 1.265625,1.07682152 1.265624,1.02343752 0,-0.04616 0.06494,-0.3513607 -0.207031,-0.8222656 -0.26736,-0.46292405 -0.7927,-0.69708868 -1.076172,-0.69726568 -0.570202,-7.8968e-4 -29.8876081,0 -30.5605465,0 z"
     sodipodi:nodetypes="ccsccsscc" />
  <path
     d="M 1.471475,3.04577 V 2.227589 c 0,-0.225935 0.09188,-0.418783 0.275631,-0.578542 0.183754,-0.15976 0.405566,-0.23964 0.665434,-0.23964 h 13.174919 c 0.259829,0 0.481638,0.07988 0.665428,0.23964 0.18379,0.159759 0.275638,0.352607 0.275638,0.578542 v 6.5454534 c 0,0.2259327 -0.09185,0.4187781 -0.275638,0.5785445 -0.18379,0.1597581 -0.405599,0.2396372 -0.665428,0.2396372 H 2.41254 c -0.259868,0 -0.48168,-0.079879 -0.665434,-0.2396372 C 1.563352,9.1918205 1.471475,8.9989751 1.471475,8.7730424 Z"
     id="path31121"
     fill="#ffffff"
     fill-opacity="0"
     fill-rule="evenodd"
     stroke="none"
     style="stroke-width:0.877475" />
  <path
     d="m 8.4,6.9140586 a 1.86,1.86 0 0 0 2.09,1.606 c 1.289,0 2.105,-0.66 2.105,-1.7 0,-0.828 -0.469,-1.281 -1.637,-1.574 l -0.59,-0.156 c -0.777,-0.2 -1.086,-0.453 -1.086,-0.895 0,-0.57 0.5,-0.945 1.246,-0.945 a 1.155,1.155 0 0 1 1.277,0.922 h 0.707 a 1.793,1.793 0 0 0 -1.959,-1.555 c -1.191,0 -1.992,0.648 -1.992,1.605 0,0.8 0.441,1.262 1.461,1.52 l 0.723,0.188 c 0.777,0.2 1.129,0.5 1.129,0.98 0,0.559 -0.559,0.969 -1.316,0.969 -0.8,0 -1.363,-0.375 -1.449,-0.965 z m 6.578,0.957 c -0.488,0 -0.852,-0.25 -0.852,-0.68 0,-0.43 0.281,-0.645 0.922,-0.687 l 1.133,-0.074 v 0.387 a 1.108,1.108 0 0 1 -1.206,1.054 z m -0.125,0.59 a 1.455,1.455 0 0 0 1.3,-0.7 h 0.063 v 0.626 h 0.634 v -2.883 c 0,-0.875 -0.574,-1.4 -1.6,-1.4 -0.9,0 -1.562,0.445 -1.652,1.121 h 0.68 c 0.094,-0.332 0.445,-0.523 0.949,-0.523 0.629,0 0.953,0.285 0.953,0.8 v 0.385 l -1.215,0.074 c -0.98,0.059 -1.535,0.492 -1.535,1.246 a 1.281,1.281 0 0 0 1.42,1.254 z m 6.52,-4.285 h -0.719 l -1.154,3.469 h -0.061 l -1.152,-3.469 h -0.719 l 1.559,4.211 h 0.688 z m 2.422,0.52 a 1.133,1.133 0 0 1 1.129,1.238 H 22.6 a 1.2,1.2 0 0 1 1.195,-1.238 z m 1.105,2.601 a 1.091,1.091 0 0 1 -1.086,0.57 c -0.714,0 -1.175,-0.527 -1.214,-1.359 v -0.031 h 3.031 v -0.258 c 0,-1.309 -0.691,-2.117 -1.828,-2.117 a 1.925,1.925 0 0 0 -1.903,2.185 c 0,1.33 0.735,2.174 1.9,2.174 a 1.683,1.683 0 0 0 1.776,-1.164 z"
     fill="#e4dcd9"
     id="path16472" />
</svg>
