<svg width="15" height="22" viewBox="0 0 15 22" fill="none" xmlns="http://www.w3.org/2000/svg">
<path fill-rule="evenodd" clip-rule="evenodd" d="M13.2896 11.0006L1.7104 11.0006C0.7628 11.0006 0 11.7634 0 12.711V20.2902V22.0006L13.2896 22.0006C14.2372 22.0006 15 21.2378 15 20.2902V12.711C15 11.7634 14.2372 11.0006 13.2896 11.0006Z" fill="#959197" fill-opacity="0.27451"/>
<path fill-rule="evenodd" clip-rule="evenodd" d="M0 21.4932L13.3685 21.4932C14.2723 21.4933 15 20.7656 15 19.8617V12.6321C15 11.7283 14.2723 11.0006 13.3685 11.0006H0" fill="#0A090A"/>
<path fill-rule="evenodd" clip-rule="evenodd" d="M13.1536 11.4145H0.25V20.9973H13.1536C13.9441 20.9973 14.5806 20.3608 14.5806 19.5703V12.8415C14.5806 12.0509 13.9441 11.4145 13.1536 11.4145Z" fill="#655959"/>
<path fill-rule="evenodd" clip-rule="evenodd" d="M14.5865 12.9431C14.5865 12.8969 14.6525 12.5925 14.3805 12.1216C14.1132 11.6587 13.5875 11.4239 13.3041 11.4237L0.25 11.4145L0.249701 11.9204C0.249701 11.9204 12.8749 11.9206 13.3205 11.9206C14.2393 11.9206 14.5865 12.9965 14.5865 12.9431Z" fill="#959197"/>
<path d="M6.91528 14.206C7.48903 14.2016 8.05639 14.3266 8.57523 14.5715C9.09407 14.8165 9.55107 15.1752 9.91228 15.621L11.1653 14.441V18.206H7.16528L8.52528 16.926C8.16528 15.892 7.13428 15.146 5.91528 15.146C4.39528 15.146 3.16528 16.306 3.16528 17.734C3.16528 15.786 4.84428 14.206 6.91528 14.206Z" fill="#DBD7D7"/>
<path fill-rule="evenodd" clip-rule="evenodd" d="M13.2896 0.000611305L1.7104 0.000610352C0.7628 0.000610352 0 0.76341 0 1.71101V9.29021V11.0006L13.2896 11.0006C14.2372 11.0006 15 10.2378 15 9.29021V1.71101C15 0.763411 14.2372 0.000611305 13.2896 0.000611305Z" fill="#959197" fill-opacity="0.27451"/>
<path fill-rule="evenodd" clip-rule="evenodd" d="M0 10.4932L13.3685 10.4932C14.2723 10.4933 15 9.76561 15 8.86171V1.63211C15 0.72831 14.2723 0.000610352 13.3685 0.000610352H0" fill="#0A090A"/>
<path fill-rule="evenodd" clip-rule="evenodd" d="M13.1536 0.414505H0.25V9.9973H13.1536C13.9441 9.9973 14.5806 9.3608 14.5806 8.5703V1.84151C14.5806 1.05091 13.9441 0.414505 13.1536 0.414505Z" fill="#655959"/>
<path fill-rule="evenodd" clip-rule="evenodd" d="M14.5865 1.9431C14.5865 1.8969 14.6525 1.5925 14.3805 1.1216C14.1132 0.658704 13.5875 0.423904 13.3041 0.423704L0.25 0.414505L0.249701 0.920405C0.249701 0.920405 12.8749 0.920604 13.3205 0.920604C14.2393 0.920604 14.5865 1.9965 14.5865 1.9431Z" fill="#959197"/>
<path d="M6.91528 3.20597C7.48903 3.20161 8.05639 3.32655 8.57523 3.57152C9.09407 3.81648 9.55107 4.17518 9.91228 4.62097L11.1653 3.44097V7.20597H7.16528L8.52528 5.92597C8.16528 4.89197 7.13428 4.14597 5.91528 4.14597C4.39528 4.14597 3.16528 5.30597 3.16528 6.73397C3.16528 4.78597 4.84428 3.20597 6.91528 3.20597Z" fill="#DBD7D7"/>
</svg>
