<?xml version="1.0" encoding="utf-8"?>
<svg width="34px" height="22px" viewbox="0 0 34 22" version="1.1" xmlns:xlink="http://www.w3.org/1999/xlink" xmlns="http://www.w3.org/2000/svg">
  <defs>
    <linearGradient x1="8.953125" y1="0.78125" x2="8.921875" y2="9.8125" id="gradient_1">
      <stop offset="0" stop-color="#787477" />
      <stop offset="1" stop-color="#696568" />
    </linearGradient>
    <rect width="34" height="22" id="artboard_1" />
    <clipPath id="clip_1">
      <use xlink:href="#artboard_1" clip-rule="evenodd" />
    </clipPath>
  </defs>
  <g id="bmp00149" clip-path="url(#clip_1)">
    <g id="Group" transform="translate(0 -0.00030517578)">
      <path d="M1.71041 0L15.2896 0C16.2372 0 17 0.762843 17 1.71041L17 9.28959L17 11L1.71041 11C0.762843 11 0 10.2372 0 9.28959L0 1.71041C0 0.762843 0.762843 0 1.71041 0L1.71041 0Z" transform="translate(0 0.00030517578)" id="rect31774" fill="#959197" fill-opacity="0.274194" fill-rule="evenodd" stroke="none" />
      <path d="M17 10.4926L1.63152 10.4929C0.727657 10.493 0 9.76529 0 8.86142L0 1.63183C0 0.727972 0.727657 0.000332997 1.63152 0.0003145L17 0" id="rect10608" fill="#0A090A" fill-rule="evenodd" stroke="none" />
      <path d="M1.427 5.96046e-08L16.0806 5.96046e-08L16.0806 9.58278L1.427 9.58278C0.636444 9.58278 0 8.94633 0 8.15577L0 1.427C0 0.636444 0.636444 0 1.427 0L1.427 5.96046e-08Z" transform="translate(0.4194336 0.41418457)" id="rect7997" fill="url(#gradient_1)" fill-rule="evenodd" stroke="none" />
      <path d="M0 2L0 1C0 0.723858 0.0976295 0.488155 0.292892 0.292893C0.488155 0.0976311 0.723858 0 1 0L15 0C15.2761 0 15.5118 0.0976311 15.7071 0.292893C15.9024 0.488155 16 0.723858 16 1L16 9C16 9.27614 15.9024 9.51184 15.7071 9.70711C15.5118 9.90237 15.2761 10 15 10L1 10C0.723858 10 0.488155 9.90237 0.292892 9.70711C0.0976315 9.51184 0 9.27614 0 9L0 2Z" transform="translate(17 0.5003052)" id="Rectangle" fill="#FFFFFF" fill-opacity="0" fill-rule="evenodd" stroke="none" />
      <path d="M0 1.63636L0 0.818182C0 0.592247 0.091877 0.3994 0.275632 0.23964C0.459386 0.07988 0.681198 0 0.941066 0L14.116 0C14.3758 0 14.5976 0.07988 14.7814 0.23964C14.9652 0.3994 15.0571 0.592247 15.0571 0.818182L15.0571 7.36364C15.0571 7.58957 14.9652 7.78241 14.7814 7.94218C14.5976 8.10194 14.3758 8.18182 14.116 8.18182L0.941066 8.18182C0.681198 8.18182 0.459386 8.10194 0.275632 7.94218C0.0918773 7.78241 0 7.58957 0 7.36364L0 1.63636Z" transform="translate(1.4714661 1.4093933)" id="path31121" fill="#FFFFFF" fill-opacity="0" fill-rule="evenodd" stroke="none" />
      <path d="M0 2.28673L3.81122 4.57346L3.81122 0L0 2.28673Z" transform="translate(6.2836 2.8595276)" id="path31776" fill="#DBD7D7" fill-rule="evenodd" stroke="none" />
      <path d="M0.00705346 1.52862C0.00705346 1.48246 -0.0589728 1.178 0.212996 0.707098C0.480356 0.244174 1.00599 0.00940835 1.28946 0.0092316L16.0935 0L16.0938 0.505892C16.0938 0.505892 1.7186 0.506126 1.27306 0.506126C0.354211 0.506126 0.00705382 1.582 0.00705382 1.52862L0.00705346 1.52862Z" transform="translate(0.40649414 0.41418457)" id="rect10605" fill="#959197" fill-rule="evenodd" stroke="none" />
      <path d="M14.8921 0L1.66595 0C0.743011 0 0 0.762843 0 1.71041L0 9.28959L0 11L14.8921 11C15.815 11 16.5581 10.2372 16.5581 9.28959L16.5581 1.71041C16.5581 0.762843 15.815 0 14.8921 0L14.8921 0Z" transform="translate(17 0.00030517578)" id="path10627" fill="#959197" fill-opacity="0.274194" fill-rule="evenodd" stroke="none" />
      <path d="M0 10.4926L15.3685 10.4929C16.2723 10.493 17 9.76529 17 8.86142L17 1.63183C17 0.727972 16.2723 0.000332997 15.3685 0.0003145L0 0" transform="translate(16.5 0)" id="path10629" fill="#0A090A" fill-rule="evenodd" stroke="none" />
      <path d="M14.3979 5.96046e-08L0 5.96046e-08L0 9.58278L14.3979 9.58278C15.1747 9.58278 15.8 8.94633 15.8 8.15577L15.8 1.427C15.8 0.636444 15.1747 0 14.3979 0L14.3979 5.96046e-08Z" transform="translate(17 0.41418457)" id="path10631" fill="url(#gradient_1)" fill-rule="evenodd" stroke="none" />
      <path d="M15.0571 1.63636L15.0571 0.818182C15.0571 0.592247 14.9652 0.3994 14.7814 0.23964C14.5977 0.07988 14.3759 0 14.116 0L0.941067 0C0.681238 0 0.459429 0.07988 0.275639 0.23964C0.0918484 0.3994 0 0.592247 0 0.818182L0 7.36364C0 7.58957 0.0918503 7.78241 0.275639 7.94218C0.459429 8.10194 0.681238 8.18182 0.941067 8.18182L14.116 8.18182C14.3759 8.18182 14.5977 8.10194 14.7814 7.94218C14.9652 7.78241 15.0571 7.58957 15.0571 7.36364L15.0571 1.63636Z" transform="translate(16.971466 1.4093933)" id="path10633" fill="#FFFFFF" fill-opacity="0" fill-rule="evenodd" stroke="none" />
      <path d="M3.81122 2.28673L0 4.57346L0 0L3.81122 2.28673Z" transform="translate(23.405182 2.8595276)" id="path10635" fill="#DBD7D7" fill-rule="evenodd" stroke="none" />
      <path d="M15.7931 1.52862C15.7931 1.48246 15.8579 1.178 15.5909 0.707098C15.3284 0.244174 14.8124 0.00940874 14.5341 0.00923201L0.000253677 0L0 0.505892C0 0.505892 14.1128 0.506126 14.5502 0.506126C15.4523 0.506126 15.7931 1.582 15.7931 1.52862L15.7931 1.52862Z" transform="translate(16.999756 0.41418457)" id="path10637" fill="#959197" fill-rule="evenodd" stroke="none" />
    </g>
    <g id="Group-Copy" transform="translate(0 11)">
      <path d="M1.71041 0L15.2896 0C16.2372 0 17 0.762843 17 1.71041L17 9.28959L17 11L1.71041 11C0.762843 11 0 10.2372 0 9.28959L0 1.71041C0 0.762843 0.762843 0 1.71041 0L1.71041 0Z" transform="translate(0 0.00030517578)" id="rect31774" fill="#959197" fill-opacity="0.274194" fill-rule="evenodd" stroke="none" />
      <path d="M17 10.4926L1.63152 10.4929C0.727657 10.493 0 9.76529 0 8.86142L0 1.63183C0 0.727972 0.727657 0.000332997 1.63152 0.0003145L17 0" id="rect10608" fill="#0A090A" fill-rule="evenodd" stroke="none" />
      <path d="M1.427 5.96046e-08L16.0806 5.96046e-08L16.0806 9.58278L1.427 9.58278C0.636444 9.58278 0 8.94633 0 8.15577L0 1.427C0 0.636444 0.636444 0 1.427 0L1.427 5.96046e-08Z" transform="translate(0.4194336 0.41418457)" id="rect7997" fill="url(#gradient_1)" fill-rule="evenodd" stroke="none" />
      <path d="M0 2L0 1C0 0.723858 0.0976295 0.488155 0.292892 0.292893C0.488155 0.0976311 0.723858 0 1 0L15 0C15.2761 0 15.5118 0.0976311 15.7071 0.292893C15.9024 0.488155 16 0.723858 16 1L16 9C16 9.27614 15.9024 9.51184 15.7071 9.70711C15.5118 9.90237 15.2761 10 15 10L1 10C0.723858 10 0.488155 9.90237 0.292892 9.70711C0.0976315 9.51184 0 9.27614 0 9L0 2Z" transform="translate(17 0.5003052)" id="Rectangle" fill="#FFFFFF" fill-opacity="0" fill-rule="evenodd" stroke="none" />
      <path d="M0 1.63636L0 0.818182C0 0.592247 0.091877 0.3994 0.275632 0.23964C0.459386 0.07988 0.681198 0 0.941066 0L14.116 0C14.3758 0 14.5976 0.07988 14.7814 0.23964C14.9652 0.3994 15.0571 0.592247 15.0571 0.818182L15.0571 7.36364C15.0571 7.58957 14.9652 7.78241 14.7814 7.94218C14.5976 8.10194 14.3758 8.18182 14.116 8.18182L0.941066 8.18182C0.681198 8.18182 0.459386 8.10194 0.275632 7.94218C0.0918773 7.78241 0 7.58957 0 7.36364L0 1.63636Z" transform="translate(1.4714661 1.4093933)" id="path31121" fill="#FFFFFF" fill-opacity="0" fill-rule="evenodd" stroke="none" />
      <path d="M0 2.28673L3.81122 4.57346L3.81122 0L0 2.28673Z" transform="translate(6.2836 2.8595276)" id="path31776" fill="#DBD7D7" fill-rule="evenodd" stroke="none" />
      <path d="M0.00705346 1.52862C0.00705346 1.48246 -0.0589728 1.178 0.212996 0.707098C0.480356 0.244174 1.00599 0.00940835 1.28946 0.0092316L16.0935 0L16.0938 0.505892C16.0938 0.505892 1.7186 0.506126 1.27306 0.506126C0.354211 0.506126 0.00705382 1.582 0.00705382 1.52862L0.00705346 1.52862Z" transform="translate(0.40649414 0.41418457)" id="rect10605" fill="#959197" fill-rule="evenodd" stroke="none" />
      <path d="M14.8921 0L1.66595 0C0.743011 0 0 0.762843 0 1.71041L0 9.28959L0 11L14.8921 11C15.815 11 16.5581 10.2372 16.5581 9.28959L16.5581 1.71041C16.5581 0.762843 15.815 0 14.8921 0L14.8921 0Z" transform="translate(17 0.00030517578)" id="path10627" fill="#959197" fill-opacity="0.274194" fill-rule="evenodd" stroke="none" />
      <path d="M0 10.4926L15.3685 10.4929C16.2723 10.493 17 9.76529 17 8.86142L17 1.63183C17 0.727972 16.2723 0.000332997 15.3685 0.0003145L0 0" transform="translate(16.5 0)" id="path10629" fill="#0A090A" fill-rule="evenodd" stroke="none" />
      <path d="M14.3979 5.96046e-08L0 5.96046e-08L0 9.58278L14.3979 9.58278C15.1747 9.58278 15.8 8.94633 15.8 8.15577L15.8 1.427C15.8 0.636444 15.1747 0 14.3979 0L14.3979 5.96046e-08Z" transform="translate(17 0.41418457)" id="path10631" fill="url(#gradient_1)" fill-rule="evenodd" stroke="none" />
      <path d="M15.0571 1.63636L15.0571 0.818182C15.0571 0.592247 14.9652 0.3994 14.7814 0.23964C14.5977 0.07988 14.3759 0 14.116 0L0.941067 0C0.681238 0 0.459429 0.07988 0.275639 0.23964C0.0918484 0.3994 0 0.592247 0 0.818182L0 7.36364C0 7.58957 0.0918503 7.78241 0.275639 7.94218C0.459429 8.10194 0.681238 8.18182 0.941067 8.18182L14.116 8.18182C14.3759 8.18182 14.5977 8.10194 14.7814 7.94218C14.9652 7.78241 15.0571 7.58957 15.0571 7.36364L15.0571 1.63636Z" transform="translate(16.971466 1.4093933)" id="path10633" fill="#FFFFFF" fill-opacity="0" fill-rule="evenodd" stroke="none" />
      <path d="M3.81122 2.28673L0 4.57346L0 0L3.81122 2.28673Z" transform="translate(23.405182 2.8595276)" id="path10635" fill="#DBD7D7" fill-rule="evenodd" stroke="none" />
      <path d="M15.7931 1.52862C15.7931 1.48246 15.8579 1.178 15.5909 0.707098C15.3284 0.244174 14.8124 0.00940874 14.5341 0.00923201L0.000253677 0L0 0.505892C0 0.505892 14.1128 0.506126 14.5502 0.506126C15.4523 0.506126 15.7931 1.582 15.7931 1.52862L15.7931 1.52862Z" transform="translate(16.999756 0.41418457)" id="path10637" fill="#959197" fill-rule="evenodd" stroke="none" />
    </g>
  </g>
</svg>