<?xml version="1.0" encoding="UTF-8" standalone="no"?>
<svg
   xmlns:dc="http://purl.org/dc/elements/1.1/"
   xmlns:cc="http://creativecommons.org/ns#"
   xmlns:rdf="http://www.w3.org/1999/02/22-rdf-syntax-ns#"
   xmlns:svg="http://www.w3.org/2000/svg"
   xmlns="http://www.w3.org/2000/svg"
   xmlns:xlink="http://www.w3.org/1999/xlink"
   xmlns:sodipodi="http://sodipodi.sourceforge.net/DTD/sodipodi-0.dtd"
   xmlns:inkscape="http://www.inkscape.org/namespaces/inkscape"
   width="48px"
   height="281px"
   viewbox="0 0 48 281"
   version="1.1"
   id="svg41971"
   sodipodi:docname="bmp00105.svg"
   inkscape:version="1.0.1 (3bc2e813f5, 2020-09-07)">
  <metadata
     id="metadata41975">
    <rdf:RDF>
      <cc:Work
         rdf:about="">
        <dc:format>image/svg+xml</dc:format>
        <dc:type
           rdf:resource="http://purl.org/dc/dcmitype/StillImage" />
        <dc:title></dc:title>
      </cc:Work>
    </rdf:RDF>
  </metadata>
  <sodipodi:namedview
     pagecolor="#303030"
     bordercolor="#666666"
     borderopacity="1"
     objecttolerance="10"
     gridtolerance="10"
     guidetolerance="10"
     inkscape:pageopacity="0"
     inkscape:pageshadow="2"
     inkscape:window-width="3753"
     inkscape:window-height="2137"
     id="namedview41973"
     showgrid="false"
     inkscape:zoom="11.313709"
     inkscape:cx="39.900463"
     inkscape:cy="232.68201"
     inkscape:window-x="-8"
     inkscape:window-y="-8"
     inkscape:window-maximized="1"
     inkscape:current-layer="svg41971" />
  <defs
     id="defs41755">
    <rect
       width="48"
       height="281"
       id="artboard_1" />
    <clipPath
       id="clip_1">
      <use
         xlink:href="#artboard_1"
         clip-rule="evenodd"
         id="use41752" />
    </clipPath>
  </defs>
  <path
     d="m 39,235 h 3 v 40 h -3 z"
     id="path42838"
     fill="#070403"
     fill-rule="evenodd"
     stroke="none"
     style="opacity:0.21;fill:#ffffff;fill-opacity:1;stroke-width:1.02597" />
  <path
     d="m 23,235 h 3 v 40 h -3 z"
     id="path42840"
     fill="#070403"
     fill-rule="evenodd"
     stroke="none"
     style="opacity:0.21;fill:#ffffff;fill-opacity:1;stroke-width:1.02597" />
  <path
     d="m 7,235 h 3 v 40 H 7 Z"
     id="path42842"
     fill="#070403"
     fill-rule="evenodd"
     stroke="none"
     style="opacity:0.21;fill:#ffffff;fill-opacity:1;stroke-width:1.02597" />
  <path
     d="m 39,160 h 3 v 40 h -3 z"
     id="path42832"
     fill="#070403"
     fill-rule="evenodd"
     stroke="none"
     style="opacity:0.21;fill:#ffffff;fill-opacity:1;stroke-width:1.02597" />
  <path
     d="m 23,160 h 3 v 40 h -3 z"
     id="path42834"
     fill="#070403"
     fill-rule="evenodd"
     stroke="none"
     style="opacity:0.21;fill:#ffffff;fill-opacity:1;stroke-width:1.02597" />
  <path
     d="m 7,160 h 3 v 40 H 7 Z"
     id="path42836"
     fill="#070403"
     fill-rule="evenodd"
     stroke="none"
     style="opacity:0.21;fill:#ffffff;fill-opacity:1;stroke-width:1.02597" />
  <path
     d="m 39,85 h 3 v 57 h -3 z"
     id="path42826"
     fill="#070403"
     fill-rule="evenodd"
     stroke="none"
     style="opacity:0.21;fill:#ffffff;fill-opacity:1;stroke-width:1.22474" />
  <path
     d="m 23,85 h 3 v 57 h -3 z"
     id="path42828"
     fill="#070403"
     fill-rule="evenodd"
     stroke="none"
     style="opacity:0.21;fill:#ffffff;fill-opacity:1;stroke-width:1.22474" />
  <path
     d="m 7,85 h 3 v 57 H 7 Z"
     id="path42830"
     fill="#070403"
     fill-rule="evenodd"
     stroke="none"
     style="opacity:0.21;fill:#ffffff;fill-opacity:1;stroke-width:1.22474" />
  <path
     d="m 39,10 h 3 v 57 h -3 z"
     id="path42824"
     fill="#070403"
     fill-rule="evenodd"
     stroke="none"
     style="opacity:0.21;fill:#ffffff;fill-opacity:1;stroke-width:1.22474" />
  <path
     d="m 23,10 h 3 v 57 h -3 z"
     id="path42822"
     fill="#070403"
     fill-rule="evenodd"
     stroke="none"
     style="opacity:0.21;fill:#ffffff;fill-opacity:1;stroke-width:1.22474" />
  <path
     d="m 7,10 h 3 V 67 H 7 Z"
     id="path42820"
     fill="#070403"
     fill-rule="evenodd"
     stroke="none"
     style="opacity:0.21;fill:#ffffff;fill-opacity:1;stroke-width:1.22474" />
  <path
     d="m 7,8.999954 h 2 v 57 H 7 Z"
     id="Rectangle"
     fill="#070403"
     fill-rule="evenodd"
     stroke="none" />
  <path
     d="m 4,8.999954 h 1 v 1 H 4 Z"
     id="path41758"
     fill="#d1bfb9"
     fill-rule="evenodd"
     stroke="none" />
  <path
     d="m 11,8.999954 h 1 v 1 h -1 z"
     id="path41760"
     fill="#d1bfb9"
     fill-rule="evenodd"
     stroke="none" />
  <path
     d="m 4,64.999954 h 1 v 1 H 4 Z"
     id="path41762"
     fill="#d1bfb9"
     fill-rule="evenodd"
     stroke="none" />
  <path
     d="m 11,64.999954 h 1 v 1 h -1 z"
     id="path41764"
     fill="#d1bfb9"
     fill-rule="evenodd"
     stroke="none" />
  <path
     d="m 10,63.999954 v -53 h 4 l -3.333334,53 z"
     id="Shape"
     fill="#d1bfb9"
     fill-opacity="0.2"
     fill-rule="evenodd"
     stroke="none"
     style="stroke-width:0.816497;fill:#ffffff;fill-opacity:1;opacity:0.08" />
  <path
     d="M 7,83.999954 H 9 V 140.99995 H 7 Z"
     id="path41770"
     fill="#070403"
     fill-rule="evenodd"
     stroke="none" />
  <path
     d="m 4,83.999954 h 1 v 1 H 4 Z"
     id="path41772"
     fill="#d1bfb9"
     fill-rule="evenodd"
     stroke="none" />
  <path
     d="m 11,83.999954 h 1 v 1 h -1 z"
     id="path41774"
     fill="#d1bfb9"
     fill-rule="evenodd"
     stroke="none" />
  <path
     d="m 4,139.99995 h 1 v 1 H 4 Z"
     id="path41776"
     fill="#d1bfb9"
     fill-rule="evenodd"
     stroke="none" />
  <path
     d="m 11,139.99995 h 1 v 1 h -1 z"
     id="path41778"
     fill="#d1bfb9"
     fill-rule="evenodd"
     stroke="none" />
  <path
     d="m 10,110.99995 h 0.666667 L 14,85.999954 h -4 z"
     id="path41782"
     fill="#d1bfb9"
     fill-opacity="0.2"
     fill-rule="evenodd"
     stroke="none"
     style="stroke-width:0.816497" />
  <path
     d="M 6,113.99995 H 5.3333333 L 2,138.99995 h 4 z"
     id="path41784"
     fill="#d1bfb9"
     fill-opacity="0.2"
     fill-rule="evenodd"
     stroke="none"
     style="stroke-width:0.816497" />
  <path
     d="m 4,111.99995 h 1 v 1 H 4 Z"
     id="path41786"
     fill="#d1bfb9"
     fill-rule="evenodd"
     stroke="none" />
  <path
     d="m 11,111.99995 h 1 v 1 h -1 z"
     id="path41788"
     fill="#d1bfb9"
     fill-rule="evenodd"
     stroke="none" />
  <path
     d="m 23,8.999954 h 2 v 57 h -2 z"
     id="path41794"
     fill="#070403"
     fill-rule="evenodd"
     stroke="none" />
  <path
     d="m 20,8.999954 h 1 v 1 h -1 z"
     id="path41796"
     fill="#d1bfb9"
     fill-rule="evenodd"
     stroke="none" />
  <path
     d="m 27,8.999954 h 1 v 1 h -1 z"
     id="path41798"
     fill="#d1bfb9"
     fill-rule="evenodd"
     stroke="none" />
  <path
     d="m 20,64.999954 h 1 v 1 h -1 z"
     id="path41800"
     fill="#d1bfb9"
     fill-rule="evenodd"
     stroke="none" />
  <path
     d="m 27,64.999954 h 1 v 1 h -1 z"
     id="path41802"
     fill="#d1bfb9"
     fill-rule="evenodd"
     stroke="none" />
  <path
     d="m 26,63.999954 v -53 h 4 l -3.333333,53 z"
     id="path41806"
     fill="#95b9f6"
     fill-opacity="0.4"
     fill-rule="evenodd"
     stroke="none"
     style="stroke-width:0.816497" />
  <path
     d="m 23,83.999954 h 2 v 56.999996 h -2 z"
     id="path41810"
     fill="#070403"
     fill-rule="evenodd"
     stroke="none" />
  <path
     d="m 20,83.999954 h 1 v 1 h -1 z"
     id="path41812"
     fill="#d1bfb9"
     fill-rule="evenodd"
     stroke="none" />
  <path
     d="m 27,83.999954 h 1 v 1 h -1 z"
     id="path41814"
     fill="#d1bfb9"
     fill-rule="evenodd"
     stroke="none" />
  <path
     d="m 20,139.99995 h 1 v 1 h -1 z"
     id="path41816"
     fill="#d1bfb9"
     fill-rule="evenodd"
     stroke="none" />
  <path
     d="m 27,139.99995 h 1 v 1 h -1 z"
     id="path41818"
     fill="#d1bfb9"
     fill-rule="evenodd"
     stroke="none" />
  <path
     d="m 26,110.99995 h 0.666667 L 30,85.999954 h -4 z"
     id="path41822"
     fill="#95b9f6"
     fill-opacity="0.4"
     fill-rule="evenodd"
     stroke="none"
     style="stroke-width:0.816497" />
  <path
     d="m 22,113.99995 h -0.666667 l -3.333333,25 h 4 z"
     id="path41824"
     fill="#95b9f6"
     fill-opacity="0.4"
     fill-rule="evenodd"
     stroke="none"
     style="stroke-width:0.816497" />
  <path
     d="m 20,111.99995 h 1 v 1 h -1 z"
     id="path41826"
     fill="#d1bfb9"
     fill-rule="evenodd"
     stroke="none" />
  <path
     d="m 27,111.99995 h 1 v 1 h -1 z"
     id="path41828"
     fill="#d1bfb9"
     fill-rule="evenodd"
     stroke="none" />
  <path
     d="m 39,83.999954 h 2 v 56.999996 h -2 z"
     id="path41834"
     fill="#070403"
     fill-rule="evenodd"
     stroke="none" />
  <path
     d="m 36,83.999954 h 1 v 1 h -1 z"
     id="path41836"
     fill="#d1bfb9"
     fill-rule="evenodd"
     stroke="none" />
  <path
     d="m 43,83.999954 h 1 v 1 h -1 z"
     id="path41838"
     fill="#d1bfb9"
     fill-rule="evenodd"
     stroke="none" />
  <path
     d="m 36,139.99995 h 1 v 1 h -1 z"
     id="path41840"
     fill="#d1bfb9"
     fill-rule="evenodd"
     stroke="none" />
  <path
     d="m 43,139.99995 h 1 v 1 h -1 z"
     id="path41842"
     fill="#d1bfb9"
     fill-rule="evenodd"
     stroke="none" />
  <path
     d="m 42,111 h 0.666667 L 46,86 h -4 z"
     id="path41846"
     fill="#95b9f6"
     fill-opacity="0.8"
     fill-rule="evenodd"
     stroke="none"
     style="stroke-width:0.816497" />
  <path
     d="m 38,113.99995 h -0.666667 l -3.333333,25 h 4 z"
     id="path41848"
     fill="#95b9f6"
     fill-opacity="0.8"
     fill-rule="evenodd"
     stroke="none"
     style="stroke-width:0.816497" />
  <path
     d="m 36,111.99995 h 1 v 1 h -1 z"
     id="path41850"
     fill="#d1bfb9"
     fill-rule="evenodd"
     stroke="none" />
  <path
     d="m 43,111.99995 h 1 v 1 h -1 z"
     id="path41852"
     fill="#d1bfb9"
     fill-rule="evenodd"
     stroke="none" />
  <path
     d="m 39,8.999954 h 2 v 57 h -2 z"
     id="path41858"
     fill="#070403"
     fill-rule="evenodd"
     stroke="none" />
  <path
     d="m 36,8.999954 h 1 v 1 h -1 z"
     id="path41860"
     fill="#d1bfb9"
     fill-rule="evenodd"
     stroke="none" />
  <path
     d="m 43,8.999954 h 1 v 1 h -1 z"
     id="path41862"
     fill="#d1bfb9"
     fill-rule="evenodd"
     stroke="none" />
  <path
     d="m 36,64.999954 h 1 v 1 h -1 z"
     id="path41864"
     fill="#d1bfb9"
     fill-rule="evenodd"
     stroke="none" />
  <path
     d="m 43,64.999954 h 1 v 1 h -1 z"
     id="path41866"
     fill="#d1bfb9"
     fill-rule="evenodd"
     stroke="none" />
  <path
     d="m 42,63.999954 v -53 h 4 l -3.333333,53 z"
     id="path41870"
     fill="#95b9f6"
     fill-rule="evenodd"
     stroke="none"
     style="stroke-width:0.816497" />
  <path
     d="m 10,271.99995 10e-7,-36 H 14 l -3.333333,36 z"
     id="path41874"
     fill="#98999b"
     fill-opacity="0.2"
     fill-rule="evenodd"
     stroke="none"
     style="stroke-width:0.816497" />
  <path
     d="m 7,233.99995 h 2 v 40 H 7 Z"
     id="path41876"
     fill="#070403"
     fill-rule="evenodd"
     stroke="none" />
  <path
     d="m 4,272.99995 h 1 v 1 H 4 Z"
     id="path41878"
     fill="#d1bfb9"
     fill-rule="evenodd"
     stroke="none" />
  <path
     d="m 4,233.99995 h 1 v 1 H 4 Z"
     id="path41880"
     fill="#d1bfb9"
     fill-rule="evenodd"
     stroke="none" />
  <path
     d="m 11,272.99995 h 1 v 1 h -1 z"
     id="path41882"
     fill="#d1bfb9"
     fill-rule="evenodd"
     stroke="none" />
  <path
     d="m 11,233.99995 h 1 v 1 h -1 z"
     id="path41884"
     fill="#d1bfb9"
     fill-rule="evenodd"
     stroke="none" />
  <path
     d="m 10,196.99995 10e-7,-36 H 14 l -3.333333,36 z"
     id="path41890"
     fill="#98999b"
     fill-opacity="0.2"
     fill-rule="evenodd"
     stroke="none"
     style="stroke-width:0.816497" />
  <path
     d="m 7,158.99995 h 2 v 40 H 7 Z"
     id="path41892"
     fill="#070403"
     fill-rule="evenodd"
     stroke="none" />
  <path
     d="m 4,197.99995 h 1 v 1 H 4 Z"
     id="path41894"
     fill="#d1bfb9"
     fill-rule="evenodd"
     stroke="none" />
  <path
     d="m 4,158.99995 h 1 v 1 H 4 Z"
     id="path41896"
     fill="#d1bfb9"
     fill-rule="evenodd"
     stroke="none" />
  <path
     d="m 11,197.99995 h 1 v 1 h -1 z"
     id="path41898"
     fill="#d1bfb9"
     fill-rule="evenodd"
     stroke="none" />
  <path
     d="m 11,158.99995 h 1 v 1 h -1 z"
     id="path41900"
     fill="#d1bfb9"
     fill-rule="evenodd"
     stroke="none" />
  <path
     d="m 26,271.99995 3e-6,-36 H 30 l -3.333333,36 z"
     id="path41906"
     fill="#95b9f6"
     fill-opacity="0.4"
     fill-rule="evenodd"
     stroke="none"
     style="stroke-width:0.816497" />
  <path
     d="m 23,233.99995 h 2 v 40 h -2 z"
     id="path41908"
     fill="#070403"
     fill-rule="evenodd"
     stroke="none" />
  <path
     d="m 20,272.99995 h 1 v 1 h -1 z"
     id="path41910"
     fill="#d1bfb9"
     fill-rule="evenodd"
     stroke="none" />
  <path
     d="m 20,233.99995 h 1 v 1 h -1 z"
     id="path41912"
     fill="#d1bfb9"
     fill-rule="evenodd"
     stroke="none" />
  <path
     d="m 27,272.99995 h 1 v 1 h -1 z"
     id="path41914"
     fill="#d1bfb9"
     fill-rule="evenodd"
     stroke="none" />
  <path
     d="m 27,233.99995 h 1 v 1 h -1 z"
     id="path41916"
     fill="#d1bfb9"
     fill-rule="evenodd"
     stroke="none" />
  <path
     d="m 26,196.99995 3e-6,-36 H 30 l -3.333333,36 z"
     id="path41922"
     fill="#95b9f6"
     fill-opacity="0.4"
     fill-rule="evenodd"
     stroke="none"
     style="stroke-width:0.816497" />
  <path
     d="m 23,158.99995 h 2 v 40 h -2 z"
     id="path41924"
     fill="#070403"
     fill-rule="evenodd"
     stroke="none" />
  <path
     d="m 20,197.99995 h 1 v 1 h -1 z"
     id="path41926"
     fill="#d1bfb9"
     fill-rule="evenodd"
     stroke="none" />
  <path
     d="m 20,158.99995 h 1 v 1 h -1 z"
     id="path41928"
     fill="#d1bfb9"
     fill-rule="evenodd"
     stroke="none" />
  <path
     d="m 27,197.99995 h 1 v 1 h -1 z"
     id="path41930"
     fill="#d1bfb9"
     fill-rule="evenodd"
     stroke="none" />
  <path
     d="m 27,158.99995 h 1 v 1 h -1 z"
     id="path41932"
     fill="#d1bfb9"
     fill-rule="evenodd"
     stroke="none" />
  <path
     d="m 42,271.99995 3e-6,-36 H 46 l -3.333333,36 z"
     id="path41938"
     fill="#95b9f6"
     fill-opacity="0.8"
     fill-rule="evenodd"
     stroke="none"
     style="stroke-width:0.816497" />
  <path
     d="m 39,233.99995 h 2 v 40 h -2 z"
     id="path41940"
     fill="#070403"
     fill-rule="evenodd"
     stroke="none" />
  <path
     d="m 36,272.99995 h 1 v 1 h -1 z"
     id="path41942"
     fill="#d1bfb9"
     fill-rule="evenodd"
     stroke="none" />
  <path
     d="m 36,233.99995 h 1 v 1 h -1 z"
     id="path41944"
     fill="#d1bfb9"
     fill-rule="evenodd"
     stroke="none" />
  <path
     d="m 43,272.99995 h 1 v 1 h -1 z"
     id="path41946"
     fill="#d1bfb9"
     fill-rule="evenodd"
     stroke="none" />
  <path
     d="m 43,233.99995 h 1 v 1 h -1 z"
     id="path41948"
     fill="#d1bfb9"
     fill-rule="evenodd"
     stroke="none" />
  <path
     d="m 42,196.99995 3e-6,-36 H 46 l -3.333333,36 z"
     id="path41954"
     fill="#95b9f6"
     fill-opacity="0.8"
     fill-rule="evenodd"
     stroke="none"
     style="stroke-width:0.816497" />
  <path
     d="m 39,158.99995 h 2 v 40 h -2 z"
     id="path41956"
     fill="#070403"
     fill-rule="evenodd"
     stroke="none" />
  <path
     d="m 36,197.99995 h 1 v 1 h -1 z"
     id="path41958"
     fill="#d1bfb9"
     fill-rule="evenodd"
     stroke="none" />
  <path
     d="m 36,158.99995 h 1 v 1 h -1 z"
     id="path41960"
     fill="#d1bfb9"
     fill-rule="evenodd"
     stroke="none" />
  <path
     d="m 43,197.99995 h 1 v 1 h -1 z"
     id="path41962"
     fill="#d1bfb9"
     fill-rule="evenodd"
     stroke="none" />
  <path
     d="m 43,158.99995 h 1 v 1 h -1 z"
     id="path41964"
     fill="#d1bfb9"
     fill-rule="evenodd"
     stroke="none" />
</svg>
