<?xml version="1.0" encoding="UTF-8" standalone="no"?>
<svg
   xmlns:dc="http://purl.org/dc/elements/1.1/"
   xmlns:cc="http://creativecommons.org/ns#"
   xmlns:rdf="http://www.w3.org/1999/02/22-rdf-syntax-ns#"
   xmlns:svg="http://www.w3.org/2000/svg"
   xmlns="http://www.w3.org/2000/svg"
   xmlns:xlink="http://www.w3.org/1999/xlink"
   xmlns:sodipodi="http://sodipodi.sourceforge.net/DTD/sodipodi-0.dtd"
   xmlns:inkscape="http://www.inkscape.org/namespaces/inkscape"
   width="12"
   height="24"
   viewBox="0 0 12 24.000001"
   version="1.1"
   id="svg35664"
   sodipodi:docname="bmp00140.svg"
   inkscape:version="1.0.1 (3bc2e813f5, 2020-09-07)">
  <metadata
     id="metadata35668">
    <rdf:RDF>
      <cc:Work
         rdf:about="">
        <dc:format>image/svg+xml</dc:format>
        <dc:type
           rdf:resource="http://purl.org/dc/dcmitype/StillImage" />
        <dc:title></dc:title>
      </cc:Work>
    </rdf:RDF>
  </metadata>
  <sodipodi:namedview
     pagecolor="#434343"
     bordercolor="#666666"
     borderopacity="1"
     objecttolerance="10"
     gridtolerance="10"
     guidetolerance="10"
     inkscape:pageopacity="0"
     inkscape:pageshadow="2"
     inkscape:window-width="3753"
     inkscape:window-height="2137"
     id="namedview35666"
     showgrid="false"
     inkscape:zoom="32"
     inkscape:cx="-3.0805104"
     inkscape:cy="21.528161"
     inkscape:window-x="-8"
     inkscape:window-y="-8"
     inkscape:window-maximized="1"
     inkscape:current-layer="svg35664"
     inkscape:document-rotation="0" />
  <defs
     id="defs35628">
    <linearGradient
       inkscape:collect="always"
       id="linearGradient39383">
      <stop
         style="stop-color:#6c6669;stop-opacity:1"
         offset="0"
         id="stop39379" />
      <stop
         style="stop-color:#645a5a;stop-opacity:1"
         offset="1"
         id="stop39381" />
    </linearGradient>
    <linearGradient
       id="a"
       x1="0.5"
       x2="0.5"
       y2="1"
       gradientUnits="objectBoundingBox">
      <stop
         offset="0"
         stop-color="#675d5d"
         id="stop35618" />
      <stop
         offset="1"
         stop-color="#5b4f51"
         id="stop35620" />
    </linearGradient>
    <linearGradient
       id="b"
       x1="0.5"
       x2="0.5"
       y2="1"
       gradientUnits="objectBoundingBox">
      <stop
         offset="0"
         stop-color="#373030"
         id="stop35623" />
      <stop
         offset="1"
         stop-color="#332a2b"
         id="stop35625" />
    </linearGradient>
    <linearGradient
       inkscape:collect="always"
       xlink:href="#linearGradient39383"
       id="linearGradient39385"
       x1="6.078125"
       y1="1.0625"
       x2="6.0614996"
       y2="10.9375"
       gradientUnits="userSpaceOnUse"
       gradientTransform="matrix(1.1201119,0,0,1.1199998,-0.72011186,-0.71999977)" />
  </defs>
  <rect
     width="12"
     height="12"
     rx="2"
     id="rect36676"
     x="0"
     y="0" />
  <rect
     width="12"
     height="12"
     rx="2"
     id="rect36678"
     x="0"
     y="12" />
  <rect
     width="11.2"
     height="11.2"
     rx="1.5178393"
     stroke="none"
     id="rect36680"
     x="0.40000001"
     y="0.40000001"
     style="fill:url(#linearGradient39385);fill-opacity:1;stroke-width:0.560028"
     ry="1.5749999" />
  <path
     d="M 10.072727,11.6 H 1.9272728 A 1.5272728,1.5098138 0 0 1 0.4,10.090186 V 9.6664318 A 1.5272728,1.5098138 0 0 0 1.9272728,11.097735 H 10.072727 A 1.5272728,1.5098138 0 0 0 11.6,9.6 v 0.490186 A 1.5272728,1.5098138 0 0 1 10.072727,11.6 Z"
     opacity="0.4"
     id="path36686"
     style="fill:#000000;fill-opacity:1;stroke:none;stroke-width:1.01235" />
  <path
     d="m 11.6,2.4 v 0 A 1.5272728,1.5052684 0 0 0 10.072727,0.90175615 H 1.9272728 A 1.5272728,1.5052684 0 0 0 0.4,2.3297541 V 1.9052684 A 1.5272728,1.5052684 0 0 1 1.9272728,0.4 H 10.072727 A 1.5272728,1.5052684 0 0 1 11.6,1.9052684 Z"
     fill="#ffffff"
     opacity="0.4"
     id="path36688"
     style="stroke-width:1.01082" />
  <rect
     width="9.9989996"
     height="10"
     rx="1"
     fill="#ffffff"
     opacity="0"
     id="rect36690"
     x="1"
     y="1" />
  <rect
     width="11.2"
     height="11.2"
     rx="1.7449999"
     stroke="none"
     id="rect36696"
     x="0.40000001"
     y="12.4"
     style="fill:#373030;fill-opacity:1;stroke-width:0.560001" />
  <path
     d="m 11.6,14.4 v 0 A 1.5272728,1.5052684 0 0 0 10.072727,12.901756 H 1.9272728 A 1.5272728,1.5052684 0 0 0 0.4,14.329754 V 13.905268 A 1.5272728,1.5052684 0 0 1 1.9272728,12.4 H 10.072727 A 1.5272728,1.5052684 0 0 1 11.6,13.905268 Z"
     fill="#ffffff"
     opacity="0.1"
     id="path36704"
     style="stroke-width:1.01081" />
  <rect
     width="10"
     height="10"
     rx="1"
     fill="#ffffff"
     opacity="0"
     id="rect36706"
     x="1"
     y="13" />
  <rect
     width="12"
     height="12"
     rx="1"
     fill="#ffffff"
     opacity="0"
     id="rect35640"
     x="0.5"
     y="0.5" />
  <rect
     width="12"
     height="12"
     rx="1"
     fill="#ffffff"
     opacity="0"
     id="rect35656"
     x="0.5"
     y="12.501" />
  <path
     d="M 9.0771609,5.6911575 7.1851389,7.0798487 C 6.6627832,7.4637775 5.9280174,7.351049 5.5447829,6.8281837 L 5.2749868,6.4457643 5.7577712,6.0827236 6.0121621,6.4097076 c 0.15115,0.2054718 0.5450673,0.3547648 0.7895327,0.2206293 L 8.7692807,5.1895122 C 8.9747523,5.0383628 8.9638414,4.6333974 8.8131329,4.4276025 L 8.2785572,3.7467691 C 8.1274082,3.5412973 7.8384521,3.4969654 7.6326565,3.6476744 L 7.0946872,3.9955548 C 6.8435177,3.8943038 6.4993435,3.7845113 6.3749735,3.7475507 L 7.2260675,3.1691371 C 7.7485503,2.7857248 8.4829138,2.8983916 8.8664244,3.4208023 L 9.329569,4.0518138 C 9.7121324,4.5743115 9.5991762,5.307937 9.0771609,5.6911575 Z M 5.3677526,7.6951605 4.84876,8.0151247 C 4.6448529,8.0988723 4.3910153,8.0272218 4.2414661,7.8229553 L 3.7731493,7.2048479 C 3.6231109,7.0009409 3.5842762,6.6366174 3.7885423,6.4870681 L 5.7648752,4.9882898 C 5.9689305,4.8388547 6.2554441,4.8828119 6.4053157,5.0865468 L 6.6823343,5.4274962 7.1669924,5.0474036 6.9745371,4.8086155 C 6.5910265,4.2862048 5.856664,4.1735382 5.3341812,4.5569505 L 3.4420244,5.9465199 C 2.919159,6.3297551 2.8064307,7.06452 3.1903593,7.5868763 l 0.4631456,0.6310116 c 0.3832344,0.5228653 1.1180003,0.6355938 1.640356,0.251665 L 6.0613477,7.9453693 C 5.9088303,7.8916187 5.5251545,7.7559855 5.3677526,7.6951605 Z"
     fill="#e2d6d1"
     fill-rule="evenodd"
     id="path38746"
     sodipodi:nodetypes="cccccccccccccccccccccccccccccccccc"
     style="stroke-width:0.88841" />
  <path
     d="m 9.0771609,17.691523 -1.892022,1.388691 c -0.5223557,0.383929 -1.2571215,0.2712 -1.640356,-0.251665 L 5.2749868,18.44613 5.7577712,18.083089 6.0121621,18.410073 c 0.15115,0.205472 0.5450673,0.354765 0.7895327,0.220629 l 1.9675859,-1.440824 c 0.2054716,-0.15115 0.1945607,-0.556115 0.043852,-0.76191 L 8.2785572,15.747134 C 8.1274082,15.541663 7.8384521,15.497331 7.6326565,15.64804 L 7.0946872,15.99592 C 6.8435177,15.894669 6.4993435,15.784877 6.3749735,15.747916 l 0.851094,-0.578414 c 0.5224828,-0.383412 1.2568463,-0.270745 1.6403569,0.251666 l 0.4631446,0.631011 c 0.3825634,0.522498 0.2696072,1.256123 -0.2524081,1.639344 z M 5.3677526,19.695526 4.84876,20.01549 c -0.2039071,0.08375 -0.4577447,0.0121 -0.6072939,-0.192169 L 3.7731493,19.205213 c -0.1500384,-0.203907 -0.1888731,-0.56823 0.015393,-0.71778 l 1.9763329,-1.498778 c 0.2040553,-0.149435 0.4905689,-0.105478 0.6404405,0.09826 l 0.2770186,0.34095 0.4846581,-0.380093 -0.1924553,-0.238788 C 6.5910265,16.28657 5.856664,16.173904 5.3341812,16.557316 l -1.8921568,1.389569 c -0.5228654,0.383235 -0.6355937,1.118 -0.2516651,1.640357 l 0.4631456,0.631011 c 0.3832344,0.522866 1.1180003,0.635594 1.640356,0.251665 L 6.0613477,19.945735 C 5.9088303,19.891984 5.5251545,19.756351 5.3677526,19.695526 Z"
     fill="#e2d6d1"
     fill-rule="evenodd"
     id="path40902"
     sodipodi:nodetypes="cccccccccccccccccccccccccccccccccc"
     style="stroke-width:0.88841;fill:#fce237;fill-opacity:1" />
</svg>
