<?xml version="1.0" encoding="UTF-8" standalone="no"?>
<svg
   xmlns:dc="http://purl.org/dc/elements/1.1/"
   xmlns:cc="http://creativecommons.org/ns#"
   xmlns:rdf="http://www.w3.org/1999/02/22-rdf-syntax-ns#"
   xmlns:svg="http://www.w3.org/2000/svg"
   xmlns="http://www.w3.org/2000/svg"
   xmlns:xlink="http://www.w3.org/1999/xlink"
   xmlns:sodipodi="http://sodipodi.sourceforge.net/DTD/sodipodi-0.dtd"
   xmlns:inkscape="http://www.inkscape.org/namespaces/inkscape"
   width="38"
   height="14"
   viewBox="0 0 38 14"
   fill="none"
   version="1.1"
   id="svg59"
   sodipodi:docname="bmp00176.svg"
   inkscape:version="1.0.1 (3bc2e813f5, 2020-09-07)">
  <metadata
     id="metadata65">
    <rdf:RDF>
      <cc:Work
         rdf:about="">
        <dc:format>image/svg+xml</dc:format>
        <dc:type
           rdf:resource="http://purl.org/dc/dcmitype/StillImage" />
        <dc:title></dc:title>
      </cc:Work>
    </rdf:RDF>
  </metadata>
  <defs
     id="defs63">
    <linearGradient
       inkscape:collect="always"
       id="linearGradient837">
      <stop
         style="stop-color:#dbc7d3;stop-opacity:1;"
         offset="0"
         id="stop833" />
      <stop
         style="stop-color:#dbc7d3;stop-opacity:0;"
         offset="1"
         id="stop835" />
    </linearGradient>
    <linearGradient
       inkscape:collect="always"
       xlink:href="#linearGradient837"
       id="linearGradient839"
       x1="0.06133457"
       y1="6.9000001"
       x2="38.006618"
       y2="6.9000001"
       gradientUnits="userSpaceOnUse"
       gradientTransform="matrix(0,-0.34753007,2.6504825,0,0.74564581,13.160324)" />
  </defs>
  <sodipodi:namedview
     pagecolor="#303030"
     bordercolor="#666666"
     borderopacity="1"
     objecttolerance="10"
     gridtolerance="10"
     guidetolerance="10"
     inkscape:pageopacity="1"
     inkscape:pageshadow="2"
     inkscape:window-width="3754"
     inkscape:window-height="2137"
     id="namedview61"
     showgrid="false"
     inkscape:zoom="24.837209"
     inkscape:cx="13.749532"
     inkscape:cy="7"
     inkscape:window-x="-8"
     inkscape:window-y="-8"
     inkscape:window-maximized="1"
     inkscape:current-layer="svg59"
     inkscape:document-rotation="0" />
  <path
     d="m 4.0700486,13.374136 c -1.6092419,0 -3.5009376,-0.71477 -3.5009376,-3.4575154 V 3.1742684 c 0,-2.64989507 2.9791,-2.28187807 6.6540072,-2.28187807 H 30.844837 c 3.675005,0 6.654004,-0.40720493 6.654004,2.79132057 v 6.1545346 c 0,3.2768895 -2.16897,3.5358905 -3.343281,3.5358905 z"
     id="path831"
     sodipodi:nodetypes="sssssssss"
     style="opacity:0.21612903;fill:url(#linearGradient839);fill-opacity:1;stroke-width:1.1196;stroke-miterlimit:4;stroke-dasharray:none" />
  <path
     d="m 1.6459843,3.35 c 0,-1.10457 0.8941881,-2 1.9972261,-2 H 34.600215 c 1.103068,0 1.997226,0.89543 1.997226,2 v 7.1 c 0,1.1046 -0.894158,2 -1.997226,2 H 3.6432104 c -1.103038,0 -1.9972261,-0.8954 -1.9972261,-2 z"
     id="path55"
     sodipodi:nodetypes="sssssssss"
     style="fill:#363134;fill-opacity:1;stroke-width:0.999306" />
  <path
     d="M 3.5433491,1.9 H 34.550284 v -1 H 3.5433491 Z M 36.048203,3.4 v 7.05 h 0.998613 V 3.4 Z m -1.497919,8.55 H 3.5433491 v 1 H 34.550284 Z M 2.0454296,10.45 V 3.4 H 1.0468165 v 7.05 z m 1.4979195,1.5 c -0.827281,0 -1.4979195,-0.6716 -1.4979195,-1.5 H 1.0468165 c 0,1.3807 1.1177376,2.5 2.4965326,2.5 z m 32.5048539,-1.5 c 0,0.8284 -0.670668,1.5 -1.497919,1.5 v 1 c 1.378785,0 2.496532,-1.1193 2.496532,-2.5 z M 34.550284,1.9 c 0.827251,0 1.497919,0.67157 1.497919,1.5 h 0.998613 c 0,-1.38071 -1.117747,-2.5 -2.496532,-2.5 z M 3.5433491,0.9 c -1.378795,0 -2.4965326,1.11929 -2.4965326,2.5 h 0.9986131 c 0,-0.82843 0.6706385,-1.5 1.4979195,-1.5 z"
     id="path57"
     sodipodi:nodetypes="cccccccccccccccccccccccccccccccccccccccc"
     style="fill:#211e20;fill-opacity:1;stroke-width:0.999306" />
</svg>
