<?xml version="1.0" encoding="UTF-8" standalone="no"?>
<svg
   xmlns:dc="http://purl.org/dc/elements/1.1/"
   xmlns:cc="http://creativecommons.org/ns#"
   xmlns:rdf="http://www.w3.org/1999/02/22-rdf-syntax-ns#"
   xmlns:svg="http://www.w3.org/2000/svg"
   xmlns="http://www.w3.org/2000/svg"
   xmlns:xlink="http://www.w3.org/1999/xlink"
   xmlns:sodipodi="http://sodipodi.sourceforge.net/DTD/sodipodi-0.dtd"
   xmlns:inkscape="http://www.inkscape.org/namespaces/inkscape"
   width="36"
   height="82"
   viewbox="0 0 36 78"
   version="1.1"
   id="svg47"
   sodipodi:docname="bmp00113.svg"
   inkscape:version="1.0.1 (3bc2e813f5, 2020-09-07)">
  <metadata
     id="metadata51">
    <rdf:RDF>
      <cc:Work
         rdf:about="">
        <dc:format>image/svg+xml</dc:format>
        <dc:type
           rdf:resource="http://purl.org/dc/dcmitype/StillImage" />
        <dc:title />
      </cc:Work>
    </rdf:RDF>
  </metadata>
  <sodipodi:namedview
     pagecolor="#414141"
     bordercolor="#666666"
     borderopacity="1"
     objecttolerance="10"
     gridtolerance="10"
     guidetolerance="10"
     inkscape:pageopacity="0"
     inkscape:pageshadow="2"
     inkscape:window-width="3753"
     inkscape:window-height="2137"
     id="namedview49"
     showgrid="false"
     inkscape:zoom="32"
     inkscape:cx="17.469342"
     inkscape:cy="25.921937"
     inkscape:window-x="-8"
     inkscape:window-y="-8"
     inkscape:window-maximized="1"
     inkscape:current-layer="svg47"
     inkscape:document-rotation="0"
     inkscape:showpageshadow="false" />
  <defs
     id="defs6">
    <rect
       width="36"
       height="78"
       id="artboard_1"
       x="0"
       y="0" />
    <clipPath
       id="clip_1">
      <use
         xlink:href="#artboard_1"
         clip-rule="evenodd"
         id="use3"
         x="0"
         y="0"
         width="100%"
         height="100%" />
    </clipPath>
  </defs>
  <path
     d="M 0,21.000002 7.9127724e-7,39.947351 C 8.115664e-7,40.528756 0.44771833,41 1.0000009,41 H 34.998997 c 0.552271,0 0.99999,-0.471244 0.99999,-1.052649 L 36,21 Z"
     id="path23"
     fill="none"
     fill-rule="evenodd"
     stroke="#4e4752"
     stroke-width="0.523524"
     style="fill:#000000;fill-opacity:1;stroke:none" />
  <path
     d="M 36,21 V 1.1052634 C 36,0.4948429 35.55228,7.5435167e-8 35.00001,0 L 1.0009978,9.4832786e-7 C 0.44870602,9.0522201e-7 9.9416884e-4,0.49484401 9.9416884e-4,1.1052644 L 0,21 Z"
     id="path35"
     fill="none"
     fill-rule="evenodd"
     stroke="#4e4752"
     stroke-width="0.536449"
     style="fill:#000000;fill-opacity:1;stroke:none;stroke-width:0.536;stroke-miterlimit:4;stroke-dasharray:none" />
  <path
     d="m 0.4,21.000002 7.8e-7,18.473668 C 0.4000008,40.04054 0.83776902,40.5 1.3777786,40.5 H 34.621243 c 0.539995,0 0.977766,-0.45946 0.977766,-1.02633 L 35.6,21 Z"
     id="path21"
     fill="#655959"
     fill-rule="evenodd"
     stroke="none"
     style="stroke-width:1.02232" />
  <path
     d="m 18.56277,34.5 c 1.80857,0 2.87664,-0.88897 2.87664,-2.38575 0.03102,-1.08752 -0.80702,-2.00319 -1.89302,-2.0684 v -0.09279 c 0.85783,-0.19181 1.46734,-0.95369 1.46616,-1.8327 C 21.01255,26.819377 20.05862,26 18.49782,26 H 15.25 v 8.5 z m -2.25584,-7.562773 h 1.96725 c 1.05415,0 1.67031,0.501093 1.67031,1.366863 0,0.90104 -0.64957,1.36038 -1.93756,1.36038 h -1.7 z m 0,6.626473 v -2.98706 h 1.99602 c 1.3548,0 2.04984,0.50109 2.04984,1.48471 0,0.98363 -0.67091,1.50235 -1.94777,1.50235 z"
     id="path29"
     fill="#e0d2cb"
     fill-rule="evenodd"
     stroke="none"
     style="fill:#e0d2cb" />
  <path
     d="M 35.6,20.4 V 1.452632 C 35.6,0.87127903 35.162232,0.40000007 34.622234,0.4 l -33.2434805,8.2e-7 C 0.83873477,0.40000079 0.4009721,0.87128013 0.4009721,1.452633 L 0.4,20.4 Z"
     id="path33"
     fill="#3d3231"
     fill-rule="evenodd"
     stroke="none"
     style="stroke-width:1.03534" />
  <path
     d="M 0.2489575,268.10625 H 35.751061"
     id="path37"
     fill="none"
     fill-rule="evenodd"
     stroke="#000000"
     stroke-opacity="0.25"
     stroke-width="0.497915"
     stroke-linecap="square" />
  <path
     d="M 1.456,0.4 18,0.40000341 h 16.544 c 0.583244,0 1.056,0.35174684 1.056,1.18559789 V 2.4 C 35.595014,1.57127 35.123624,0.903243 34.544,0.903274 L 18,0.903275 1.456,0.903272 C 0.87634208,0.903241 0.40502332,1.57127 0.4,2.4 V 1.5855913 C 0.4,0.75174925 0.8727878,0.4 1.456,0.4 Z"
     id="path39"
     fill="#ffffff"
     fill-opacity="0.4"
     fill-rule="evenodd"
     stroke="none"
     style="opacity:0.2;fill:#000000;fill-opacity:1;stroke-width:0.988824"
     sodipodi:nodetypes="ccsscccccsc" />
  <path
     d="m 20.7024,14 h 1.11354 L 18.68226,5.5 H 17.63368 L 14.5,14 h 1.11354 l 0.85371,-2.43308 h 3.38144 z M 18.11064,6.87243 h 0.0928 l 1.33253,3.793451 h -2.75601 z"
     id="path41"
     fill="#fce237"
     fill-rule="evenodd"
     stroke="none" />
  <path
     d="m 0.4,21 17.6,3e-6 h 17.6 v 0.499996 L 18,21.5 l -17.6,-3e-6 z"
     id="path4926"
     fill="#ffffff"
     fill-opacity="0.4"
     fill-rule="evenodd"
     stroke="none"
     style="opacity:0.16;fill:#ffffff;fill-opacity:1;stroke-width:1.01657"
     sodipodi:nodetypes="ccccccc" />
  <path
     d="M 0,62.000002 7.9127724e-7,80.947351 C 8.115664e-7,81.528756 0.44771833,82 1.0000009,82 H 34.998997 c 0.552271,0 0.99999,-0.471244 0.99999,-1.052649 L 36,62 Z"
     id="path4928"
     fill="none"
     fill-rule="evenodd"
     stroke="#4e4752"
     stroke-width="0.523524"
     style="fill:#000000;fill-opacity:1;stroke:none" />
  <path
     d="M 36,62 V 42.105263 C 36,41.494843 35.55228,41 35.00001,41 l -33.9990122,10e-7 c -0.55229178,0 -1.00000363116,0.494843 -1.00000363116,1.105263 L 0,62 Z"
     id="path4930"
     fill="none"
     fill-rule="evenodd"
     stroke="#4e4752"
     stroke-width="0.536449"
     style="fill:#000000;fill-opacity:1;stroke:none;stroke-width:0.536;stroke-miterlimit:4;stroke-dasharray:none" />
  <path
     d="m 0.4,62.000002 7.8e-7,18.473668 C 0.4000008,81.04054 0.83776902,81.5 1.3777786,81.5 H 34.621243 c 0.539995,0 0.977766,-0.45946 0.977766,-1.02633 L 35.6,62 Z"
     id="path4932"
     fill="#655959"
     fill-rule="evenodd"
     stroke="none"
     style="stroke-width:1.02232;fill:#3d3231" />
  <path
     d="m 18.56277,75.5 c 1.80857,0 2.87664,-0.88897 2.87664,-2.38575 0.03102,-1.08752 -0.80702,-2.00319 -1.89302,-2.0684 v -0.09279 c 0.85783,-0.19181 1.46734,-0.95369 1.46616,-1.8327 C 21.01255,67.819377 20.05862,67 18.49782,67 H 15.25 v 8.5 z m -2.25584,-7.562773 h 1.96725 c 1.05415,0 1.67031,0.501093 1.67031,1.366863 0,0.90104 -0.64957,1.36038 -1.93756,1.36038 h -1.7 z m 0,6.626473 v -2.98706 h 1.99602 c 1.3548,0 2.04984,0.50109 2.04984,1.48471 0,0.98363 -0.67091,1.50235 -1.94777,1.50235 z"
     id="path4934"
     fill="#e0d2cb"
     fill-rule="evenodd"
     stroke="none"
     style="fill:#fce237" />
  <path
     d="M 35.6,61.4 V 42.452631 C 35.6,41.871277 35.162232,41.4 34.622234,41.4 l -33.2434805,1e-6 c -0.54001873,0 -0.9777814,0.471277 -0.9777814,1.052631 L 0.4,61.4 Z"
     id="path4936"
     fill="#3d3231"
     fill-rule="evenodd"
     stroke="none"
     style="fill:#655959;stroke-width:1.03534" />
  <path
     d="m 1.456,41.4 16.544,3e-6 h 16.544 c 0.583244,0 1.056,0.351747 1.056,1.185598 V 43.4 c -0.005,-0.82873 -0.476376,-1.496757 -1.056,-1.496726 l -16.544,10e-7 -16.544,-3e-6 C 0.87634208,41.903241 0.40502332,42.57127 0.4,43.4 V 42.585591 C 0.4,41.751749 0.8727878,41.4 1.456,41.4 Z"
     id="path4938"
     fill="#ffffff"
     fill-opacity="0.4"
     fill-rule="evenodd"
     stroke="none"
     style="opacity:0.25;fill:#ffffff;fill-opacity:1;stroke-width:0.988824"
     sodipodi:nodetypes="ccsscccccsc" />
  <path
     d="m 20.7024,55 h 1.11354 L 18.68226,46.5 H 17.63368 L 14.5,55 h 1.11354 l 0.85371,-2.43308 h 3.38144 z m -2.59176,-7.12757 h 0.0928 l 1.33253,3.793451 h -2.75601 z"
     id="path4940"
     fill="#fce237"
     fill-rule="evenodd"
     stroke="none"
     style="fill:#e0d2cb" />
  <path
     d="m 0.4,62 17.6,3e-6 h 17.6 v 0.499996 L 18,62.5 l -17.6,-3e-6 z"
     id="path4942"
     fill="#ffffff"
     fill-opacity="0.4"
     fill-rule="evenodd"
     stroke="none"
     style="opacity:0.2;fill:#000000;fill-opacity:1;stroke-width:1.01657"
     sodipodi:nodetypes="ccccccc" />
</svg>
