<?xml version="1.0" encoding="UTF-8" standalone="no"?>
<svg
   xmlns:dc="http://purl.org/dc/elements/1.1/"
   xmlns:cc="http://creativecommons.org/ns#"
   xmlns:rdf="http://www.w3.org/1999/02/22-rdf-syntax-ns#"
   xmlns:svg="http://www.w3.org/2000/svg"
   xmlns="http://www.w3.org/2000/svg"
   xmlns:xlink="http://www.w3.org/1999/xlink"
   xmlns:sodipodi="http://sodipodi.sourceforge.net/DTD/sodipodi-0.dtd"
   xmlns:inkscape="http://www.inkscape.org/namespaces/inkscape"
   width="399px"
   height="84px"
   viewbox="0 0 399 84"
   version="1.1"
   id="svg49141"
   sodipodi:docname="bmp00154.svg"
   inkscape:version="1.0.1 (3bc2e813f5, 2020-09-07)">
  <metadata
     id="metadata49145">
    <rdf:RDF>
      <cc:Work
         rdf:about="">
        <dc:format>image/svg+xml</dc:format>
        <dc:type
           rdf:resource="http://purl.org/dc/dcmitype/StillImage" />
        <dc:title></dc:title>
      </cc:Work>
    </rdf:RDF>
  </metadata>
  <sodipodi:namedview
     pagecolor="#333333"
     bordercolor="#666666"
     borderopacity="1"
     objecttolerance="10"
     gridtolerance="10"
     guidetolerance="10"
     inkscape:pageopacity="0"
     inkscape:pageshadow="2"
     inkscape:window-width="3753"
     inkscape:window-height="2137"
     id="namedview49143"
     showgrid="false"
     inkscape:zoom="7.4786732"
     inkscape:cx="192.07602"
     inkscape:cy="31.099877"
     inkscape:window-x="-8"
     inkscape:window-y="-8"
     inkscape:window-maximized="1"
     inkscape:current-layer="svg49141" />
  <defs
     id="defs48591">
    <rect
       width="399"
       height="84"
       id="artboard_1" />
    <clipPath
       id="clip_1">
      <use
         xlink:href="#artboard_1"
         clip-rule="evenodd"
         id="use48588" />
    </clipPath>
  </defs>
  <path
     d="m 144,77 h 113 v 2 H 144 Z"
     id="path50916"
     fill="#070403"
     fill-rule="evenodd"
     stroke="none"
     style="opacity:0.08;fill:#ffffff;fill-opacity:1" />
  <path
     d="m 144,63 h 113 v 2 H 144 Z"
     id="path50918"
     fill="#070403"
     fill-rule="evenodd"
     stroke="none"
     style="opacity:0.08;fill:#ffffff;fill-opacity:1" />
  <path
     d="m 144,49 h 113 v 2 H 144 Z"
     id="path50920"
     fill="#070403"
     fill-rule="evenodd"
     stroke="none"
     style="opacity:0.08;fill:#ffffff;fill-opacity:1" />
  <path
     d="m 144,21 h 113 v 2 H 144 Z"
     id="path50922"
     fill="#070403"
     fill-rule="evenodd"
     stroke="none"
     style="opacity:0.08;fill:#ffffff;fill-opacity:1" />
  <path
     d="M 144,7 H 257 V 9 H 144 Z"
     id="path50924"
     fill="#070403"
     fill-rule="evenodd"
     stroke="none"
     style="opacity:0.08;fill:#ffffff;fill-opacity:1" />
  <path
     d="m 144,35 h 113 v 2 H 144 Z"
     id="path50926"
     fill="#070403"
     fill-rule="evenodd"
     stroke="none"
     style="opacity:0.08;fill:#fffefe;fill-opacity:1" />
  <path
     d="m 277,77 h 113 v 2 H 277 Z"
     id="path50928"
     fill="#070403"
     fill-rule="evenodd"
     stroke="none"
     style="opacity:0.08;fill:#ffffff;fill-opacity:1" />
  <path
     d="m 277,63 h 113 v 2 H 277 Z"
     id="path50930"
     fill="#070403"
     fill-rule="evenodd"
     stroke="none"
     style="opacity:0.08;fill:#ffffff;fill-opacity:1" />
  <path
     d="m 277,49 h 113 v 2 H 277 Z"
     id="path50932"
     fill="#070403"
     fill-rule="evenodd"
     stroke="none"
     style="opacity:0.08;fill:#ffffff;fill-opacity:1" />
  <path
     d="m 277,21 h 113 v 2 H 277 Z"
     id="path50934"
     fill="#070403"
     fill-rule="evenodd"
     stroke="none"
     style="opacity:0.08;fill:#ffffff;fill-opacity:1" />
  <path
     d="M 277,7 H 390 V 9 H 277 Z"
     id="path50936"
     fill="#070403"
     fill-rule="evenodd"
     stroke="none"
     style="opacity:0.08;fill:#ffffff;fill-opacity:1" />
  <path
     d="m 277,35 h 113 v 2 H 277 Z"
     id="path50938"
     fill="#070403"
     fill-rule="evenodd"
     stroke="none"
     style="opacity:0.08;fill:#fffefe;fill-opacity:1" />
  <path
     d="m 11,77 h 113 v 2 H 11 Z"
     id="path50914"
     fill="#070403"
     fill-rule="evenodd"
     stroke="none"
     style="opacity:0.08;fill:#ffffff;fill-opacity:1" />
  <path
     d="m 11,63 h 113 v 2 H 11 Z"
     id="path50912"
     fill="#070403"
     fill-rule="evenodd"
     stroke="none"
     style="opacity:0.08;fill:#ffffff;fill-opacity:1" />
  <path
     d="m 11,49 h 113 v 2 H 11 Z"
     id="path50910"
     fill="#070403"
     fill-rule="evenodd"
     stroke="none"
     style="opacity:0.08;fill:#ffffff;fill-opacity:1" />
  <path
     d="m 11,21 h 113 v 2 H 11 Z"
     id="path50906"
     fill="#070403"
     fill-rule="evenodd"
     stroke="none"
     style="opacity:0.08;fill:#ffffff;fill-opacity:1" />
  <path
     d="M 11,7 H 124 V 9 H 11 Z"
     id="path50904"
     fill="#070403"
     fill-rule="evenodd"
     stroke="none"
     style="fill:#ffffff;fill-opacity:1;opacity:0.08" />
  <path
     d="M 10,6 H 123 V 8 H 10 Z"
     id="Rectangle"
     fill="#070403"
     fill-rule="evenodd"
     stroke="none" />
  <path
     d="m 10,3 h 1 v 1 h -1 z"
     id="path48594"
     fill="#d1bfb9"
     fill-rule="evenodd"
     stroke="none" />
  <path
     d="m 122,3 h 1 v 1 h -1 z"
     id="path48596"
     fill="#d1bfb9"
     fill-rule="evenodd"
     stroke="none" />
  <path
     d="m 10,10 h 1 v 1 h -1 z"
     id="path48598"
     fill="#d1bfb9"
     fill-rule="evenodd"
     stroke="none" />
  <path
     d="m 122,10 h 1 v 1 h -1 z"
     id="path48600"
     fill="#d1bfb9"
     fill-rule="evenodd"
     stroke="none" />
  <path
     d="M 11.999997,6 V 5.3333333 L 121,2 v 4 z"
     id="Shape"
     fill="#d1bfb9"
     fill-opacity="0.2"
     fill-rule="evenodd"
     stroke="none"
     style="stroke-width:0.816497;fill:#ffffff;fill-opacity:1;opacity:0.08" />
  <path
     d="m 10,20 h 113 v 2 H 10 Z"
     id="path48606"
     fill="#070403"
     fill-rule="evenodd"
     stroke="none" />
  <path
     d="m 10,17 h 1 v 1 h -1 z"
     id="path48608"
     fill="#d1bfb9"
     fill-rule="evenodd"
     stroke="none" />
  <path
     d="m 122,17 h 1 v 1 h -1 z"
     id="path48610"
     fill="#d1bfb9"
     fill-rule="evenodd"
     stroke="none" />
  <path
     d="m 10,24 h 1 v 1 h -1 z"
     id="path48612"
     fill="#d1bfb9"
     fill-rule="evenodd"
     stroke="none" />
  <path
     d="m 122,24 h 1 v 1 h -1 z"
     id="path48614"
     fill="#d1bfb9"
     fill-rule="evenodd"
     stroke="none" />
  <path
     d="M 67.999998,20 V 19.333333 L 121,16 v 4 z"
     id="path48616"
     fill="#d1bfb9"
     fill-opacity="0.2"
     fill-rule="evenodd"
     stroke="none"
     style="stroke-width:0.816497;fill:#ffffff;fill-opacity:1;opacity:0.08" />
  <path
     d="m 64.999998,23.000001 v 0.666666 l -53,3.333333 v -4 z"
     id="path48618"
     fill="#d1bfb9"
     fill-opacity="0.2"
     fill-rule="evenodd"
     stroke="none"
     style="stroke-width:0.816497;fill:#ffffff;fill-opacity:1;opacity:0.08" />
  <path
     d="m 65.999998,17 h 1 v 1 h -1 z"
     id="path48620"
     fill="#d1bfb9"
     fill-rule="evenodd"
     stroke="none" />
  <path
     d="m 65.999998,24 h 1 v 1 h -1 z"
     id="path48622"
     fill="#d1bfb9"
     fill-rule="evenodd"
     stroke="none" />
  <path
     d="m 10,34 h 113 v 2 H 10 Z"
     id="path48630"
     fill="#070403"
     fill-rule="evenodd"
     stroke="none" />
  <path
     d="m 10,31 h 1 v 1 h -1 z"
     id="path48632"
     fill="#d1bfb9"
     fill-rule="evenodd"
     stroke="none" />
  <path
     d="m 122,31 h 1 v 1 h -1 z"
     id="path48634"
     fill="#d1bfb9"
     fill-rule="evenodd"
     stroke="none" />
  <path
     d="m 10,38 h 1 v 1 h -1 z"
     id="path48636"
     fill="#d1bfb9"
     fill-rule="evenodd"
     stroke="none" />
  <path
     d="m 122,38 h 1 v 1 h -1 z"
     id="path48638"
     fill="#d1bfb9"
     fill-rule="evenodd"
     stroke="none" />
  <path
     d="M 68,34 V 32.666667 L 121,30 v 4 z"
     id="path48640"
     fill="#d1bfb9"
     fill-opacity="0.2"
     fill-rule="evenodd"
     stroke="none"
     style="stroke-width:1.1547;fill:#ffffff;fill-opacity:1;opacity:0.08" />
  <path
     d="m 65,37 v 1.333333 L 12,41 v -4 z"
     id="path48642"
     fill="#d1bfb9"
     fill-opacity="0.2"
     fill-rule="evenodd"
     stroke="none"
     style="stroke-width:1.1547;fill:#ffffff;fill-opacity:1;opacity:0.08" />
  <path
     d="m 74,31.000999 h 1 v 1 h -1 z"
     id="path48644"
     fill="#d1bfb9"
     fill-rule="evenodd"
     stroke="none" />
  <path
     d="m 18,38.000999 h 1 v 1 h -1 z"
     id="path48646"
     fill="#d1bfb9"
     fill-rule="evenodd"
     stroke="none" />
  <path
     d="m 82,31.000999 h 1 v 1 h -1 z"
     id="path48648"
     fill="#d1bfb9"
     fill-rule="evenodd"
     stroke="none" />
  <path
     d="m 26,38.000999 h 1 v 1 h -1 z"
     id="path48650"
     fill="#d1bfb9"
     fill-rule="evenodd"
     stroke="none" />
  <path
     d="m 90,31.000999 h 1 v 1 h -1 z"
     id="path48652"
     fill="#d1bfb9"
     fill-rule="evenodd"
     stroke="none" />
  <path
     d="m 34,38.000999 h 1 v 1 h -1 z"
     id="path48654"
     fill="#d1bfb9"
     fill-rule="evenodd"
     stroke="none" />
  <path
     d="m 98,31.000999 h 1 v 1 h -1 z"
     id="path48656"
     fill="#d1bfb9"
     fill-rule="evenodd"
     stroke="none" />
  <path
     d="m 42,38.000999 h 1 v 1 h -1 z"
     id="path48658"
     fill="#d1bfb9"
     fill-rule="evenodd"
     stroke="none" />
  <path
     d="m 106,31.000999 h 1 v 1 h -1 z"
     id="path48660"
     fill="#d1bfb9"
     fill-rule="evenodd"
     stroke="none" />
  <path
     d="m 50,38.000999 h 1 v 1 h -1 z"
     id="path48662"
     fill="#d1bfb9"
     fill-rule="evenodd"
     stroke="none" />
  <path
     d="m 114,31.000999 h 1 v 1 h -1 z"
     id="path48664"
     fill="#d1bfb9"
     fill-rule="evenodd"
     stroke="none" />
  <path
     d="m 58,38.000999 h 1 v 1 h -1 z"
     id="path48666"
     fill="#d1bfb9"
     fill-rule="evenodd"
     stroke="none" />
  <path
     d="m 66,31 h 1 v 1 h -1 z"
     id="path48668"
     fill="#d1bfb9"
     fill-rule="evenodd"
     stroke="none" />
  <path
     d="m 66,38 h 1 v 1 h -1 z"
     id="path48670"
     fill="#d1bfb9"
     fill-rule="evenodd"
     stroke="none" />
  <path
     d="M 143,6 H 256 V 8 H 143 Z"
     id="path48680"
     fill="#070403"
     fill-rule="evenodd"
     stroke="none" />
  <path
     d="m 143,3 h 1 v 1 h -1 z"
     id="path48682"
     fill="#d1bfb9"
     fill-rule="evenodd"
     stroke="none" />
  <path
     d="m 255,3 h 1 v 1 h -1 z"
     id="path48684"
     fill="#d1bfb9"
     fill-rule="evenodd"
     stroke="none" />
  <path
     d="m 143,10 h 1 v 1 h -1 z"
     id="path48686"
     fill="#d1bfb9"
     fill-rule="evenodd"
     stroke="none" />
  <path
     d="m 255,10 h 1 v 1 h -1 z"
     id="path48688"
     fill="#d1bfb9"
     fill-rule="evenodd"
     stroke="none" />
  <path
     d="M 145,6 V 5.3333333 L 254,2 v 4 z"
     id="path48690"
     fill="#95b9f6"
     fill-opacity="0.4"
     fill-rule="evenodd"
     stroke="none"
     style="stroke-width:0.816497" />
  <path
     d="m 143,20 h 113 v 2 H 143 Z"
     id="path48696"
     fill="#070403"
     fill-rule="evenodd"
     stroke="none" />
  <path
     d="m 143,17 h 1 v 1 h -1 z"
     id="path48698"
     fill="#d1bfb9"
     fill-rule="evenodd"
     stroke="none" />
  <path
     d="m 255,17 h 1 v 1 h -1 z"
     id="path48700"
     fill="#d1bfb9"
     fill-rule="evenodd"
     stroke="none" />
  <path
     d="m 143,24 h 1 v 1 h -1 z"
     id="path48702"
     fill="#d1bfb9"
     fill-rule="evenodd"
     stroke="none" />
  <path
     d="m 255,24 h 1 v 1 h -1 z"
     id="path48704"
     fill="#d1bfb9"
     fill-rule="evenodd"
     stroke="none" />
  <path
     d="M 201,20 V 19.333333 L 254,16 v 4 z"
     id="path48706"
     fill="#95b9f6"
     fill-opacity="0.4"
     fill-rule="evenodd"
     stroke="none"
     style="stroke-width:0.816497" />
  <path
     d="m 198,23.000001 v 0.666666 L 145,27 v -4 z"
     id="path48708"
     fill="#95b9f6"
     fill-opacity="0.4"
     fill-rule="evenodd"
     stroke="none"
     style="stroke-width:0.816497" />
  <path
     d="m 199,17 h 1 v 1 h -1 z"
     id="path48710"
     fill="#d1bfb9"
     fill-rule="evenodd"
     stroke="none" />
  <path
     d="m 199,24 h 1 v 1 h -1 z"
     id="path48712"
     fill="#d1bfb9"
     fill-rule="evenodd"
     stroke="none" />
  <path
     d="m 143,34 h 113 v 2 H 143 Z"
     id="path48720"
     fill="#070403"
     fill-rule="evenodd"
     stroke="none" />
  <path
     d="m 143,31 h 1 v 1 h -1 z"
     id="path48722"
     fill="#d1bfb9"
     fill-rule="evenodd"
     stroke="none" />
  <path
     d="m 255,31 h 1 v 1 h -1 z"
     id="path48724"
     fill="#d1bfb9"
     fill-rule="evenodd"
     stroke="none" />
  <path
     d="m 143,38 h 1 v 1 h -1 z"
     id="path48726"
     fill="#d1bfb9"
     fill-rule="evenodd"
     stroke="none" />
  <path
     d="m 255,38 h 1 v 1 h -1 z"
     id="path48728"
     fill="#d1bfb9"
     fill-rule="evenodd"
     stroke="none" />
  <path
     d="M 201,34 V 32.666667 L 254,30 v 4 z"
     id="path48730"
     fill="#95b9f6"
     fill-opacity="0.4"
     fill-rule="evenodd"
     stroke="none"
     style="stroke-width:1.1547" />
  <path
     d="m 198,37 v 1.333333 L 145,41 v -4 z"
     id="path48732"
     fill="#95b9f6"
     fill-opacity="0.4"
     fill-rule="evenodd"
     stroke="none"
     style="stroke-width:1.1547" />
  <path
     d="m 207,31.000999 h 1 v 1 h -1 z"
     id="path48734"
     fill="#d1bfb9"
     fill-rule="evenodd"
     stroke="none" />
  <path
     d="m 151,38.000999 h 1 v 1 h -1 z"
     id="path48736"
     fill="#d1bfb9"
     fill-rule="evenodd"
     stroke="none" />
  <path
     d="m 215,31.000999 h 1 v 1 h -1 z"
     id="path48738"
     fill="#d1bfb9"
     fill-rule="evenodd"
     stroke="none" />
  <path
     d="m 159,38.000999 h 1 v 1 h -1 z"
     id="path48740"
     fill="#d1bfb9"
     fill-rule="evenodd"
     stroke="none" />
  <path
     d="m 223,31.000999 h 1 v 1 h -1 z"
     id="path48742"
     fill="#d1bfb9"
     fill-rule="evenodd"
     stroke="none" />
  <path
     d="m 167,38.000999 h 1 v 1 h -1 z"
     id="path48744"
     fill="#d1bfb9"
     fill-rule="evenodd"
     stroke="none" />
  <path
     d="m 231,31.000999 h 1 v 1 h -1 z"
     id="path48746"
     fill="#d1bfb9"
     fill-rule="evenodd"
     stroke="none" />
  <path
     d="m 175,38.000999 h 1 v 1 h -1 z"
     id="path48748"
     fill="#d1bfb9"
     fill-rule="evenodd"
     stroke="none" />
  <path
     d="m 239,31.000999 h 1 v 1 h -1 z"
     id="path48750"
     fill="#d1bfb9"
     fill-rule="evenodd"
     stroke="none" />
  <path
     d="m 183,38.000999 h 1 v 1 h -1 z"
     id="path48752"
     fill="#d1bfb9"
     fill-rule="evenodd"
     stroke="none" />
  <path
     d="m 247,31.000999 h 1 v 1 h -1 z"
     id="path48754"
     fill="#d1bfb9"
     fill-rule="evenodd"
     stroke="none" />
  <path
     d="m 191,38.000999 h 1 v 1 h -1 z"
     id="path48756"
     fill="#d1bfb9"
     fill-rule="evenodd"
     stroke="none" />
  <path
     d="m 199,31 h 1 v 1 h -1 z"
     id="path48758"
     fill="#d1bfb9"
     fill-rule="evenodd"
     stroke="none" />
  <path
     d="m 199,38 h 1 v 1 h -1 z"
     id="path48760"
     fill="#d1bfb9"
     fill-rule="evenodd"
     stroke="none" />
  <path
     d="m 143,48 h 113 v 2 H 143 Z"
     id="path48772"
     fill="#070403"
     fill-rule="evenodd"
     stroke="none" />
  <path
     d="m 143,45 h 1 v 1 h -1 z"
     id="path48774"
     fill="#d1bfb9"
     fill-rule="evenodd"
     stroke="none" />
  <path
     d="m 255,45 h 1 v 1 h -1 z"
     id="path48776"
     fill="#d1bfb9"
     fill-rule="evenodd"
     stroke="none" />
  <path
     d="m 143,52 h 1 v 1 h -1 z"
     id="path48778"
     fill="#d1bfb9"
     fill-rule="evenodd"
     stroke="none" />
  <path
     d="m 255,52 h 1 v 1 h -1 z"
     id="path48780"
     fill="#d1bfb9"
     fill-rule="evenodd"
     stroke="none" />
  <path
     d="M 145,48 V 47.333333 L 254,44 v 4 z"
     id="path48782"
     fill="#95b9f6"
     fill-opacity="0.4"
     fill-rule="evenodd"
     stroke="none"
     style="stroke-width:0.816497" />
  <path
     d="m 143,62 h 113 v 2 H 143 Z"
     id="path48788"
     fill="#070403"
     fill-rule="evenodd"
     stroke="none" />
  <path
     d="m 143,59 h 1 v 1 h -1 z"
     id="path48790"
     fill="#d1bfb9"
     fill-rule="evenodd"
     stroke="none" />
  <path
     d="m 255,59 h 1 v 1 h -1 z"
     id="path48792"
     fill="#d1bfb9"
     fill-rule="evenodd"
     stroke="none" />
  <path
     d="m 143,66 h 1 v 1 h -1 z"
     id="path48794"
     fill="#d1bfb9"
     fill-rule="evenodd"
     stroke="none" />
  <path
     d="m 255,66 h 1 v 1 h -1 z"
     id="path48796"
     fill="#d1bfb9"
     fill-rule="evenodd"
     stroke="none" />
  <path
     d="M 201,62 V 61.333333 L 254,58 v 4 z"
     id="path48798"
     fill="#95b9f6"
     fill-opacity="0.4"
     fill-rule="evenodd"
     stroke="none"
     style="stroke-width:0.816497" />
  <path
     d="m 198,65 v 0.666667 L 145,69 v -4 z"
     id="path48800"
     fill="#95b9f6"
     fill-opacity="0.4"
     fill-rule="evenodd"
     stroke="none"
     style="stroke-width:0.816497" />
  <path
     d="m 199,59 h 1 v 1 h -1 z"
     id="path48802"
     fill="#d1bfb9"
     fill-rule="evenodd"
     stroke="none" />
  <path
     d="m 199,66 h 1 v 1 h -1 z"
     id="path48804"
     fill="#d1bfb9"
     fill-rule="evenodd"
     stroke="none" />
  <path
     d="m 143,76 h 113 v 2 H 143 Z"
     id="path48812"
     fill="#070403"
     fill-rule="evenodd"
     stroke="none" />
  <path
     d="m 143,73 h 1 v 1 h -1 z"
     id="path48814"
     fill="#d1bfb9"
     fill-rule="evenodd"
     stroke="none" />
  <path
     d="m 255,73 h 1 v 1 h -1 z"
     id="path48816"
     fill="#d1bfb9"
     fill-rule="evenodd"
     stroke="none" />
  <path
     d="m 143,80 h 1 v 1 h -1 z"
     id="path48818"
     fill="#d1bfb9"
     fill-rule="evenodd"
     stroke="none" />
  <path
     d="m 255,80 h 1 v 1 h -1 z"
     id="path48820"
     fill="#d1bfb9"
     fill-rule="evenodd"
     stroke="none" />
  <path
     d="M 201,76 V 74.666667 L 254,72 v 4 z"
     id="path48822"
     fill="#95b9f6"
     fill-opacity="0.4"
     fill-rule="evenodd"
     stroke="none"
     style="stroke-width:1.1547" />
  <path
     d="m 198,79 v 1.333333 L 145,83 v -4 z"
     id="path48824"
     fill="#95b9f6"
     fill-opacity="0.4"
     fill-rule="evenodd"
     stroke="none"
     style="stroke-width:1.1547" />
  <path
     d="m 207,73.000999 h 1 v 1 h -1 z"
     id="path48826"
     fill="#d1bfb9"
     fill-rule="evenodd"
     stroke="none" />
  <path
     d="m 151,80.001 h 1 v 1 h -1 z"
     id="path48828"
     fill="#d1bfb9"
     fill-rule="evenodd"
     stroke="none" />
  <path
     d="m 215,73.000999 h 1 v 1 h -1 z"
     id="path48830"
     fill="#d1bfb9"
     fill-rule="evenodd"
     stroke="none" />
  <path
     d="m 159,80.001 h 1 v 1 h -1 z"
     id="path48832"
     fill="#d1bfb9"
     fill-rule="evenodd"
     stroke="none" />
  <path
     d="m 223,73.000999 h 1 v 1 h -1 z"
     id="path48834"
     fill="#d1bfb9"
     fill-rule="evenodd"
     stroke="none" />
  <path
     d="m 167,80.001 h 1 v 1 h -1 z"
     id="path48836"
     fill="#d1bfb9"
     fill-rule="evenodd"
     stroke="none" />
  <path
     d="m 231,73.000999 h 1 v 1 h -1 z"
     id="path48838"
     fill="#d1bfb9"
     fill-rule="evenodd"
     stroke="none" />
  <path
     d="m 175,80.001 h 1 v 1 h -1 z"
     id="path48840"
     fill="#d1bfb9"
     fill-rule="evenodd"
     stroke="none" />
  <path
     d="m 239,73.000999 h 1 v 1 h -1 z"
     id="path48842"
     fill="#d1bfb9"
     fill-rule="evenodd"
     stroke="none" />
  <path
     d="m 183,80.001 h 1 v 1 h -1 z"
     id="path48844"
     fill="#d1bfb9"
     fill-rule="evenodd"
     stroke="none" />
  <path
     d="m 247,73.000999 h 1 v 1 h -1 z"
     id="path48846"
     fill="#d1bfb9"
     fill-rule="evenodd"
     stroke="none" />
  <path
     d="m 191,80.001 h 1 v 1 h -1 z"
     id="path48848"
     fill="#d1bfb9"
     fill-rule="evenodd"
     stroke="none" />
  <path
     d="m 199,73 h 1 v 1 h -1 z"
     id="path48850"
     fill="#d1bfb9"
     fill-rule="evenodd"
     stroke="none" />
  <path
     d="m 199,80 h 1 v 1 h -1 z"
     id="path48852"
     fill="#d1bfb9"
     fill-rule="evenodd"
     stroke="none" />
  <path
     d="M 276,6 H 389 V 8 H 276 Z"
     id="path48864"
     fill="#070403"
     fill-rule="evenodd"
     stroke="none" />
  <path
     d="m 276,3 h 1 v 1 h -1 z"
     id="path48866"
     fill="#d1bfb9"
     fill-rule="evenodd"
     stroke="none" />
  <path
     d="m 388,3 h 1 v 1 h -1 z"
     id="path48868"
     fill="#d1bfb9"
     fill-rule="evenodd"
     stroke="none" />
  <path
     d="m 276,10 h 1 v 1 h -1 z"
     id="path48870"
     fill="#d1bfb9"
     fill-rule="evenodd"
     stroke="none" />
  <path
     d="m 388,10 h 1 v 1 h -1 z"
     id="path48872"
     fill="#d1bfb9"
     fill-rule="evenodd"
     stroke="none" />
  <path
     d="M 278,6 V 5.3333333 L 387,2 v 4 z"
     id="path48874"
     fill="#95b9f6"
     fill-opacity="0.8"
     fill-rule="evenodd"
     stroke="none"
     style="stroke-width:0.816497" />
  <path
     d="m 276,20 h 113 v 2 H 276 Z"
     id="path48880"
     fill="#070403"
     fill-rule="evenodd"
     stroke="none" />
  <path
     d="m 276,17 h 1 v 1 h -1 z"
     id="path48882"
     fill="#d1bfb9"
     fill-rule="evenodd"
     stroke="none" />
  <path
     d="m 388,17 h 1 v 1 h -1 z"
     id="path48884"
     fill="#d1bfb9"
     fill-rule="evenodd"
     stroke="none" />
  <path
     d="m 276,24 h 1 v 1 h -1 z"
     id="path48886"
     fill="#d1bfb9"
     fill-rule="evenodd"
     stroke="none" />
  <path
     d="m 388,24 h 1 v 1 h -1 z"
     id="path48888"
     fill="#d1bfb9"
     fill-rule="evenodd"
     stroke="none" />
  <path
     d="M 334,20 V 19.333333 L 387,16 v 4 z"
     id="path48890"
     fill="#95b9f6"
     fill-opacity="0.8"
     fill-rule="evenodd"
     stroke="none"
     style="stroke-width:0.816497" />
  <path
     d="m 331,23.000001 v 0.666666 L 278,27 v -4 z"
     id="path48892"
     fill="#95b9f6"
     fill-opacity="0.8"
     fill-rule="evenodd"
     stroke="none"
     style="stroke-width:0.816497" />
  <path
     d="m 332,17 h 1 v 1 h -1 z"
     id="path48894"
     fill="#d1bfb9"
     fill-rule="evenodd"
     stroke="none" />
  <path
     d="m 332,24 h 1 v 1 h -1 z"
     id="path48896"
     fill="#d1bfb9"
     fill-rule="evenodd"
     stroke="none" />
  <path
     d="m 276,34 h 113 v 2 H 276 Z"
     id="path48904"
     fill="#070403"
     fill-rule="evenodd"
     stroke="none" />
  <path
     d="m 276,31 h 1 v 1 h -1 z"
     id="path48906"
     fill="#d1bfb9"
     fill-rule="evenodd"
     stroke="none" />
  <path
     d="m 388,31 h 1 v 1 h -1 z"
     id="path48908"
     fill="#d1bfb9"
     fill-rule="evenodd"
     stroke="none" />
  <path
     d="m 276,38 h 1 v 1 h -1 z"
     id="path48910"
     fill="#d1bfb9"
     fill-rule="evenodd"
     stroke="none" />
  <path
     d="m 388,38 h 1 v 1 h -1 z"
     id="path48912"
     fill="#d1bfb9"
     fill-rule="evenodd"
     stroke="none" />
  <path
     d="M 334,34 V 32.666667 L 387,30 v 4 z"
     id="path48914"
     fill="#95b9f6"
     fill-opacity="0.8"
     fill-rule="evenodd"
     stroke="none"
     style="stroke-width:1.1547" />
  <path
     d="m 331,37 v 1.333333 L 278,41 v -4 z"
     id="path48916"
     fill="#95b9f6"
     fill-opacity="0.8"
     fill-rule="evenodd"
     stroke="none"
     style="stroke-width:1.1547" />
  <path
     d="m 340,31.000999 h 1 v 1 h -1 z"
     id="path48918"
     fill="#d1bfb9"
     fill-rule="evenodd"
     stroke="none" />
  <path
     d="m 284,38.000999 h 1 v 1 h -1 z"
     id="path48920"
     fill="#d1bfb9"
     fill-rule="evenodd"
     stroke="none" />
  <path
     d="m 348,31.000999 h 1 v 1 h -1 z"
     id="path48922"
     fill="#d1bfb9"
     fill-rule="evenodd"
     stroke="none" />
  <path
     d="m 292,38.000999 h 1 v 1 h -1 z"
     id="path48924"
     fill="#d1bfb9"
     fill-rule="evenodd"
     stroke="none" />
  <path
     d="m 356,31.000999 h 1 v 1 h -1 z"
     id="path48926"
     fill="#d1bfb9"
     fill-rule="evenodd"
     stroke="none" />
  <path
     d="m 300,38.000999 h 1 v 1 h -1 z"
     id="path48928"
     fill="#d1bfb9"
     fill-rule="evenodd"
     stroke="none" />
  <path
     d="m 364,31.000999 h 1 v 1 h -1 z"
     id="path48930"
     fill="#d1bfb9"
     fill-rule="evenodd"
     stroke="none" />
  <path
     d="m 308,38.000999 h 1 v 1 h -1 z"
     id="path48932"
     fill="#d1bfb9"
     fill-rule="evenodd"
     stroke="none" />
  <path
     d="m 372,31.000999 h 1 v 1 h -1 z"
     id="path48934"
     fill="#d1bfb9"
     fill-rule="evenodd"
     stroke="none" />
  <path
     d="m 316,38.000999 h 1 v 1 h -1 z"
     id="path48936"
     fill="#d1bfb9"
     fill-rule="evenodd"
     stroke="none" />
  <path
     d="m 380,31.000999 h 1 v 1 h -1 z"
     id="path48938"
     fill="#d1bfb9"
     fill-rule="evenodd"
     stroke="none" />
  <path
     d="m 324,38.000999 h 1 v 1 h -1 z"
     id="path48940"
     fill="#d1bfb9"
     fill-rule="evenodd"
     stroke="none" />
  <path
     d="m 332,31 h 1 v 1 h -1 z"
     id="path48942"
     fill="#d1bfb9"
     fill-rule="evenodd"
     stroke="none" />
  <path
     d="m 332,38 h 1 v 1 h -1 z"
     id="path48944"
     fill="#d1bfb9"
     fill-rule="evenodd"
     stroke="none" />
  <path
     d="m 276,48 h 113 v 2 H 276 Z"
     id="path48956"
     fill="#070403"
     fill-rule="evenodd"
     stroke="none" />
  <path
     d="m 276,45 h 1 v 1 h -1 z"
     id="path48958"
     fill="#d1bfb9"
     fill-rule="evenodd"
     stroke="none" />
  <path
     d="m 388,45 h 1 v 1 h -1 z"
     id="path48960"
     fill="#d1bfb9"
     fill-rule="evenodd"
     stroke="none" />
  <path
     d="m 276,52 h 1 v 1 h -1 z"
     id="path48962"
     fill="#d1bfb9"
     fill-rule="evenodd"
     stroke="none" />
  <path
     d="m 388,52 h 1 v 1 h -1 z"
     id="path48964"
     fill="#d1bfb9"
     fill-rule="evenodd"
     stroke="none" />
  <path
     d="M 278,48 V 47.333333 L 387,44 v 4 z"
     id="path48966"
     fill="#95b9f6"
     fill-opacity="0.8"
     fill-rule="evenodd"
     stroke="none"
     style="stroke-width:0.816497" />
  <path
     d="m 276,62 h 113 v 2 H 276 Z"
     id="path48972"
     fill="#070403"
     fill-rule="evenodd"
     stroke="none" />
  <path
     d="m 276,59 h 1 v 1 h -1 z"
     id="path48974"
     fill="#d1bfb9"
     fill-rule="evenodd"
     stroke="none" />
  <path
     d="m 388,59 h 1 v 1 h -1 z"
     id="path48976"
     fill="#d1bfb9"
     fill-rule="evenodd"
     stroke="none" />
  <path
     d="m 276,66 h 1 v 1 h -1 z"
     id="path48978"
     fill="#d1bfb9"
     fill-rule="evenodd"
     stroke="none" />
  <path
     d="m 388,66 h 1 v 1 h -1 z"
     id="path48980"
     fill="#d1bfb9"
     fill-rule="evenodd"
     stroke="none" />
  <path
     d="M 334,62 V 61.333333 L 387,58 v 4 z"
     id="path48982"
     fill="#95b9f6"
     fill-opacity="0.8"
     fill-rule="evenodd"
     stroke="none"
     style="stroke-width:0.816497" />
  <path
     d="m 331,65 v 0.666667 L 278,69 v -4 z"
     id="path48984"
     fill="#95b9f6"
     fill-opacity="0.8"
     fill-rule="evenodd"
     stroke="none"
     style="stroke-width:0.816497" />
  <path
     d="m 332,59 h 1 v 1 h -1 z"
     id="path48986"
     fill="#d1bfb9"
     fill-rule="evenodd"
     stroke="none" />
  <path
     d="m 332,66 h 1 v 1 h -1 z"
     id="path48988"
     fill="#d1bfb9"
     fill-rule="evenodd"
     stroke="none" />
  <path
     d="m 276,76 h 113 v 2 H 276 Z"
     id="path48996"
     fill="#070403"
     fill-rule="evenodd"
     stroke="none" />
  <path
     d="m 276,73 h 1 v 1 h -1 z"
     id="path48998"
     fill="#d1bfb9"
     fill-rule="evenodd"
     stroke="none" />
  <path
     d="m 388,73 h 1 v 1 h -1 z"
     id="path49000"
     fill="#d1bfb9"
     fill-rule="evenodd"
     stroke="none" />
  <path
     d="m 276,80 h 1 v 1 h -1 z"
     id="path49002"
     fill="#d1bfb9"
     fill-rule="evenodd"
     stroke="none" />
  <path
     d="m 388,80 h 1 v 1 h -1 z"
     id="path49004"
     fill="#d1bfb9"
     fill-rule="evenodd"
     stroke="none" />
  <path
     d="M 334,76 V 74.666667 L 387,72 v 4 z"
     id="path49006"
     fill="#95b9f6"
     fill-opacity="0.8"
     fill-rule="evenodd"
     stroke="none"
     style="stroke-width:1.1547" />
  <path
     d="m 331,79 v 1.333333 L 278,83 v -4 z"
     id="path49008"
     fill="#95b9f6"
     fill-opacity="0.8"
     fill-rule="evenodd"
     stroke="none"
     style="stroke-width:1.1547" />
  <path
     d="m 340,73.000999 h 1 v 1 h -1 z"
     id="path49010"
     fill="#d1bfb9"
     fill-rule="evenodd"
     stroke="none" />
  <path
     d="m 284,80.001 h 1 v 1 h -1 z"
     id="path49012"
     fill="#d1bfb9"
     fill-rule="evenodd"
     stroke="none" />
  <path
     d="m 348,73.000999 h 1 v 1 h -1 z"
     id="path49014"
     fill="#d1bfb9"
     fill-rule="evenodd"
     stroke="none" />
  <path
     d="m 292,80.001 h 1 v 1 h -1 z"
     id="path49016"
     fill="#d1bfb9"
     fill-rule="evenodd"
     stroke="none" />
  <path
     d="m 356,73.000999 h 1 v 1 h -1 z"
     id="path49018"
     fill="#d1bfb9"
     fill-rule="evenodd"
     stroke="none" />
  <path
     d="m 300,80.001 h 1 v 1 h -1 z"
     id="path49020"
     fill="#d1bfb9"
     fill-rule="evenodd"
     stroke="none" />
  <path
     d="m 364,73.000999 h 1 v 1 h -1 z"
     id="path49022"
     fill="#d1bfb9"
     fill-rule="evenodd"
     stroke="none" />
  <path
     d="m 308,80.001 h 1 v 1 h -1 z"
     id="path49024"
     fill="#d1bfb9"
     fill-rule="evenodd"
     stroke="none" />
  <path
     d="m 372,73.000999 h 1 v 1 h -1 z"
     id="path49026"
     fill="#d1bfb9"
     fill-rule="evenodd"
     stroke="none" />
  <path
     d="m 316,80.001 h 1 v 1 h -1 z"
     id="path49028"
     fill="#d1bfb9"
     fill-rule="evenodd"
     stroke="none" />
  <path
     d="m 380,73.000999 h 1 v 1 h -1 z"
     id="path49030"
     fill="#d1bfb9"
     fill-rule="evenodd"
     stroke="none" />
  <path
     d="m 324,80.001 h 1 v 1 h -1 z"
     id="path49032"
     fill="#d1bfb9"
     fill-rule="evenodd"
     stroke="none" />
  <path
     d="m 332,73 h 1 v 1 h -1 z"
     id="path49034"
     fill="#d1bfb9"
     fill-rule="evenodd"
     stroke="none" />
  <path
     d="m 332,80 h 1 v 1 h -1 z"
     id="path49036"
     fill="#d1bfb9"
     fill-rule="evenodd"
     stroke="none" />
  <path
     d="m 10,48 h 113 v 2 H 10 Z"
     id="path49048"
     fill="#070403"
     fill-rule="evenodd"
     stroke="none" />
  <path
     d="m 10,45 h 1 v 1 h -1 z"
     id="path49050"
     fill="#d1bfb9"
     fill-rule="evenodd"
     stroke="none" />
  <path
     d="m 122,45 h 1 v 1 h -1 z"
     id="path49052"
     fill="#d1bfb9"
     fill-rule="evenodd"
     stroke="none" />
  <path
     d="m 10,52 h 1 v 1 h -1 z"
     id="path49054"
     fill="#d1bfb9"
     fill-rule="evenodd"
     stroke="none" />
  <path
     d="m 122,52 h 1 v 1 h -1 z"
     id="path49056"
     fill="#d1bfb9"
     fill-rule="evenodd"
     stroke="none" />
  <path
     d="M 11.999997,48 V 47.333333 L 121,44 v 4 z"
     id="path49058"
     fill="#d1bfb9"
     fill-opacity="0.2"
     fill-rule="evenodd"
     stroke="none"
     style="stroke-width:0.816497;fill:#ffffff;fill-opacity:1;opacity:0.08" />
  <path
     d="m 10,62 h 113 v 2 H 10 Z"
     id="path49064"
     fill="#070403"
     fill-rule="evenodd"
     stroke="none" />
  <path
     d="m 10,59 h 1 v 1 h -1 z"
     id="path49066"
     fill="#d1bfb9"
     fill-rule="evenodd"
     stroke="none" />
  <path
     d="m 122,59 h 1 v 1 h -1 z"
     id="path49068"
     fill="#d1bfb9"
     fill-rule="evenodd"
     stroke="none" />
  <path
     d="m 10,66 h 1 v 1 h -1 z"
     id="path49070"
     fill="#d1bfb9"
     fill-rule="evenodd"
     stroke="none" />
  <path
     d="m 122,66 h 1 v 1 h -1 z"
     id="path49072"
     fill="#d1bfb9"
     fill-rule="evenodd"
     stroke="none" />
  <path
     d="M 67.999998,62 V 61.333333 L 121,58 v 4 z"
     id="path49074"
     fill="#d1bfb9"
     fill-opacity="0.2"
     fill-rule="evenodd"
     stroke="none"
     style="stroke-width:0.816497;fill:#ffffff;fill-opacity:1;opacity:0.08" />
  <path
     d="m 64.999998,65 v 0.666667 l -53,3.333333 v -4 z"
     id="path49076"
     fill="#d1bfb9"
     fill-opacity="0.2"
     fill-rule="evenodd"
     stroke="none"
     style="stroke-width:0.816497;fill:#ffffff;fill-opacity:1;opacity:0.08" />
  <path
     d="m 65.999998,59 h 1 v 1 h -1 z"
     id="path49078"
     fill="#d1bfb9"
     fill-rule="evenodd"
     stroke="none" />
  <path
     d="m 65.999998,66 h 1 v 1 h -1 z"
     id="path49080"
     fill="#d1bfb9"
     fill-rule="evenodd"
     stroke="none" />
  <path
     d="m 10,76 h 113 v 2 H 10 Z"
     id="path49088"
     fill="#070403"
     fill-rule="evenodd"
     stroke="none" />
  <path
     d="m 10,73 h 1 v 1 h -1 z"
     id="path49090"
     fill="#d1bfb9"
     fill-rule="evenodd"
     stroke="none" />
  <path
     d="m 122,73 h 1 v 1 h -1 z"
     id="path49092"
     fill="#d1bfb9"
     fill-rule="evenodd"
     stroke="none" />
  <path
     d="m 10,80 h 1 v 1 h -1 z"
     id="path49094"
     fill="#d1bfb9"
     fill-rule="evenodd"
     stroke="none" />
  <path
     d="m 122,80 h 1 v 1 h -1 z"
     id="path49096"
     fill="#d1bfb9"
     fill-rule="evenodd"
     stroke="none" />
  <path
     d="M 68,76 V 74.666667 L 121,72 v 4 z"
     id="path49098"
     fill="#d1bfb9"
     fill-opacity="0.2"
     fill-rule="evenodd"
     stroke="none"
     style="stroke-width:1.1547;fill:#ffffff;fill-opacity:1;opacity:0.08" />
  <path
     d="m 65,78 v 1.333333 L 12,82 v -4 z"
     id="path49100"
     fill="#d1bfb9"
     fill-opacity="0.2"
     fill-rule="evenodd"
     stroke="none"
     style="stroke-width:1.1547;fill:#ffffff;fill-opacity:1;opacity:0.08" />
  <path
     d="m 74,73.000999 h 1 v 1 h -1 z"
     id="path49102"
     fill="#d1bfb9"
     fill-rule="evenodd"
     stroke="none" />
  <path
     d="m 18,80.001 h 1 v 1 h -1 z"
     id="path49104"
     fill="#d1bfb9"
     fill-rule="evenodd"
     stroke="none" />
  <path
     d="m 82,73.000999 h 1 v 1 h -1 z"
     id="path49106"
     fill="#d1bfb9"
     fill-rule="evenodd"
     stroke="none" />
  <path
     d="m 26,80.001 h 1 v 1 h -1 z"
     id="path49108"
     fill="#d1bfb9"
     fill-rule="evenodd"
     stroke="none" />
  <path
     d="m 90,73.000999 h 1 v 1 h -1 z"
     id="path49110"
     fill="#d1bfb9"
     fill-rule="evenodd"
     stroke="none" />
  <path
     d="m 34,80.001 h 1 v 1 h -1 z"
     id="path49112"
     fill="#d1bfb9"
     fill-rule="evenodd"
     stroke="none" />
  <path
     d="m 98,73.000999 h 1 v 1 h -1 z"
     id="path49114"
     fill="#d1bfb9"
     fill-rule="evenodd"
     stroke="none" />
  <path
     d="m 42,80.001 h 1 v 1 h -1 z"
     id="path49116"
     fill="#d1bfb9"
     fill-rule="evenodd"
     stroke="none" />
  <path
     d="m 106,73.000999 h 1 v 1 h -1 z"
     id="path49118"
     fill="#d1bfb9"
     fill-rule="evenodd"
     stroke="none" />
  <path
     d="m 50,80.001 h 1 v 1 h -1 z"
     id="path49120"
     fill="#d1bfb9"
     fill-rule="evenodd"
     stroke="none" />
  <path
     d="m 114,73.000999 h 1 v 1 h -1 z"
     id="path49122"
     fill="#d1bfb9"
     fill-rule="evenodd"
     stroke="none" />
  <path
     d="m 58,80.001 h 1 v 1 h -1 z"
     id="path49124"
     fill="#d1bfb9"
     fill-rule="evenodd"
     stroke="none" />
  <path
     d="m 66,73 h 1 v 1 h -1 z"
     id="path49126"
     fill="#d1bfb9"
     fill-rule="evenodd"
     stroke="none" />
  <path
     d="m 66,80 h 1 v 1 h -1 z"
     id="path49128"
     fill="#d1bfb9"
     fill-rule="evenodd"
     stroke="none" />
  <path
     d="m 11,35 h 113 v 2 H 11 Z"
     id="path50908"
     fill="#070403"
     fill-rule="evenodd"
     stroke="none"
     style="opacity:0.08;fill:#fffefe;fill-opacity:1" />
</svg>
