<svg width="15" height="22" viewBox="0 0 15 22" fill="none" xmlns="http://www.w3.org/2000/svg">
<path fill-rule="evenodd" clip-rule="evenodd" d="M1.71041 11.0006L13.2896 11.0006C14.2372 11.0006 15 11.7634 15 12.711V20.2902V22.0006L1.71041 22.0006C0.762843 22.0006 0 21.2378 0 20.2902V12.711C0 11.7634 0.762843 11.0006 1.71041 11.0006Z" fill="#959197" fill-opacity="0.27451"/>
<path fill-rule="evenodd" clip-rule="evenodd" d="M15 21.4932L1.63152 21.4932C0.727657 21.4933 0 20.7656 0 19.8617V12.6321C0 11.7283 0.727657 11.0006 1.63152 11.0006H15" fill="#0A090A"/>
<path fill-rule="evenodd" clip-rule="evenodd" d="M1.84643 11.4145H14.75V20.9973H1.84643C1.05588 20.9973 0.419434 20.3608 0.419434 19.5703V12.8415C0.419434 12.0509 1.05588 11.4145 1.84643 11.4145Z" fill="#655959"/>
<path fill-rule="evenodd" clip-rule="evenodd" d="M0.413548 12.9431C0.413548 12.8969 0.347521 12.5925 0.61949 12.1216C0.88685 11.6587 1.41248 11.4239 1.69595 11.4237L14.75 11.4145L14.7503 11.9204C14.7503 11.9204 2.12509 11.9206 1.67955 11.9206C0.760705 11.9206 0.413548 12.9965 0.413548 12.9431Z" fill="#959197"/>
<path d="M8.08472 14.206C7.51097 14.2016 6.94361 14.3266 6.42477 14.5715C5.90593 14.8165 5.44893 15.1752 5.08772 15.621L3.83472 14.441V18.206H7.83472L6.47472 16.926C6.83472 15.892 7.86572 15.146 9.08472 15.146C10.6047 15.146 11.8347 16.306 11.8347 17.734C11.8347 15.786 10.1557 14.206 8.08472 14.206Z" fill="#DBD7D7"/>
<path fill-rule="evenodd" clip-rule="evenodd" d="M1.71041 0.000611305L13.2896 0.000610352C14.2372 0.000610352 15 0.76341 15 1.71101V9.29021V11.0006L1.71041 11.0006C0.762843 11.0006 0 10.2378 0 9.29021V1.71101C0 0.763411 0.762843 0.000611305 1.71041 0.000611305Z" fill="#959197" fill-opacity="0.27451"/>
<path fill-rule="evenodd" clip-rule="evenodd" d="M15 10.4932L1.63152 10.4932C0.727657 10.4933 0 9.76561 0 8.86171V1.63211C0 0.72831 0.727657 0.000610352 1.63152 0.000610352H15" fill="#0A090A"/>
<path fill-rule="evenodd" clip-rule="evenodd" d="M1.84643 0.414505H14.75V9.9973H1.84643C1.05588 9.9973 0.419434 9.3608 0.419434 8.5703V1.84151C0.419434 1.05091 1.05588 0.414505 1.84643 0.414505Z" fill="#655959"/>
<path fill-rule="evenodd" clip-rule="evenodd" d="M0.413548 1.9431C0.413548 1.8969 0.347521 1.5925 0.61949 1.1216C0.88685 0.658704 1.41248 0.423904 1.69595 0.423704L14.75 0.414505L14.7503 0.920405C14.7503 0.920405 2.12509 0.920604 1.67955 0.920604C0.760705 0.920604 0.413548 1.9965 0.413548 1.9431Z" fill="#959197"/>
<path d="M8.08472 3.20597C7.51097 3.20161 6.94361 3.32655 6.42477 3.57152C5.90593 3.81648 5.44893 4.17518 5.08772 4.62097L3.83472 3.44097V7.20597H7.83472L6.47472 5.92597C6.83472 4.89197 7.86572 4.14597 9.08472 4.14597C10.6047 4.14597 11.8347 5.30597 11.8347 6.73397C11.8347 4.78597 10.1557 3.20597 8.08472 3.20597Z" fill="#DBD7D7"/>
</svg>
