<svg xmlns="http://www.w3.org/2000/svg" xmlns:xlink="http://www.w3.org/1999/xlink" width="73" height="120" viewBox="0 0 73 120"><defs><linearGradient id="a" x1="0.465" y1="0.592" x2="0.468" y2="0.034" gradientUnits="objectBoundingBox"><stop offset="0" stop-color="#6b79aa" stop-opacity="0.231"/><stop offset="1" stop-color="#4857a4" stop-opacity="0.231"/></linearGradient><linearGradient id="c" x1="0.465" y1="0.592" x2="0.468" y2="0.034" gradientUnits="objectBoundingBox"><stop offset="0" stop-color="#6b79aa" stop-opacity="0.502"/><stop offset="1" stop-color="#4857a4" stop-opacity="0.502"/></linearGradient><linearGradient id="e" x1="0.332" y1="0.741" x2="0.329" y2="-0.445" gradientUnits="objectBoundingBox"><stop offset="0" stop-color="#6b79aa" stop-opacity="0.2"/><stop offset="1" stop-color="#4857a4" stop-opacity="0.2"/></linearGradient><linearGradient id="g" x1="0.332" y1="0.741" x2="0.329" y2="-0.445" gradientUnits="objectBoundingBox"><stop offset="0" stop-color="#6b79aa" stop-opacity="0.502"/><stop offset="1" stop-color="#4857a4"/></linearGradient></defs><g transform="translate(-1361 -592)"><rect width="73" height="15" rx="1" transform="translate(1361 592)" fill="url(#a)"/><rect width="73" height="15" rx="1" transform="translate(1361 592)" fill="#6b79aa" opacity="0"/><rect width="73" height="2" rx="1" transform="translate(1361 592)" fill="#96bbf7" opacity="0.2"/><rect width="73" height="15" rx="1" transform="translate(1361 607)" fill="url(#a)"/><rect width="73" height="15" rx="1" transform="translate(1361 607)" fill="#6b79aa" opacity="0.3"/><rect width="73" height="2" rx="1" transform="translate(1361 607)" fill="#96bbf7" opacity="0.2"/><g transform="translate(1361 622)" stroke="#96bbf7" stroke-width="1" fill="url(#c)"><rect width="73" height="15" rx="1" stroke="none"/><rect x="0.5" y="0.5" width="72" height="14" rx="0.5" fill="none"/></g><rect width="73" height="15" rx="1" transform="translate(1361 622)" fill="#6b79aa" opacity="0"/><rect width="73" height="2" rx="1" transform="translate(1361 622)" fill="#96bbf7"/><g transform="translate(1361 637)" stroke="#96bbf7" stroke-width="1" fill="url(#c)"><rect width="73" height="15" rx="1" stroke="none"/><rect x="0.5" y="0.5" width="72" height="14" rx="0.5" fill="none"/></g><rect width="73" height="15" rx="1" transform="translate(1361 637)" fill="#6b79aa" opacity="0.4"/><rect width="73" height="2" rx="1" transform="translate(1361 637)" fill="#96bbf7"/><g transform="translate(1361 652)" stroke="#95b9f6" stroke-width="1" fill="url(#e)"><rect width="73" height="15" rx="1" stroke="none"/><rect x="0.5" y="0.5" width="72" height="14" rx="0.5" fill="none"/></g><rect width="73" height="15" rx="1" transform="translate(1361 652)" fill="#6b79aa" opacity="0"/><rect width="73" height="2" rx="1" transform="translate(1361 652)" fill="#95b9f6" opacity="0.1"/><g transform="translate(1361 667)" stroke="#95b9f6" stroke-width="1" fill="url(#e)"><rect width="73" height="15" rx="1" stroke="none"/><rect x="0.5" y="0.5" width="72" height="14" rx="0.5" fill="none"/></g><rect width="73" height="15" rx="1" transform="translate(1361 667)" fill="#6b79aa" opacity="0.3"/><rect width="73" height="2" rx="1" transform="translate(1361 667)" fill="#95b9f6" opacity="0.1"/><g transform="translate(1361 682)" stroke="#f92a69" stroke-width="1" fill="url(#g)"><rect width="73" height="15" rx="1" stroke="none"/><rect x="0.5" y="0.5" width="72" height="14" rx="0.5" fill="none"/></g><rect width="73" height="15" rx="1" transform="translate(1361 682)" fill="#6b79aa" opacity="0"/><rect width="73" height="2" rx="1" transform="translate(1361 682)" fill="#f92a69"/><g transform="translate(1361 697)" stroke="#96bbf7" stroke-width="1" fill="url(#c)"><rect width="73" height="15" rx="1" stroke="none"/><rect x="0.5" y="0.5" width="72" height="14" rx="0.5" fill="none"/></g><rect width="73" height="15" rx="1" transform="translate(1361 697)" fill="#6b79aa" opacity="0.4"/><rect width="73" height="2" rx="1" transform="translate(1361 697)" fill="#96bbf7"/></g></svg>