<svg xmlns="http://www.w3.org/2000/svg" xmlns:xlink="http://www.w3.org/1999/xlink" width="19" height="170" viewBox="0 0 19 170"><defs><clipPath id="a"><rect width="19" height="17" fill="#fff" stroke="#707070" stroke-width="1"/></clipPath></defs><g transform="translate(-487 -281)"><g transform="translate(487 281)"><rect width="6" height="17" transform="translate(1)" fill="#886551"/><rect width="7" height="17" transform="translate(6)" fill="#886551" opacity="0"/><rect width="6" height="17" transform="translate(12)" fill="#886551" opacity="0"/><g clip-path="url(#a)"><path d="M1206,717.287c0-6.76,8.392-16.787,18.6-16.787s19,8.287,19,8.287h19l19,8.5" transform="translate(-1205.596 -700.287)" fill="#70676d" stroke="rgba(255,153,49,0.78)" stroke-linejoin="round" stroke-width="1" opacity="0.8"/></g><rect width="19" height="17" fill="rgba(225,203,188,0.2)" opacity="0"/></g><g transform="translate(487 298)"><rect width="6" height="17" transform="translate(1 0)" fill="#886551" opacity="0"/><rect width="7" height="17" transform="translate(6 0)" fill="#886551"/><rect width="6" height="17" transform="translate(12 0)" fill="#886551" opacity="0"/><g transform="translate(0 0)" clip-path="url(#a)"><path d="M1206,717.287c4.75-4.091,18.6-16.787,18.6-16.787l19,8.287h19l19,8.5" transform="translate(-1205.596 -700.287)" fill="#70676d" stroke="rgba(255,153,49,0.78)" stroke-linejoin="round" stroke-width="1" opacity="0.8"/></g><rect width="19" height="17" transform="translate(0 0)" fill="rgba(225,203,188,0.2)" opacity="0"/></g><g transform="translate(487 315)"><rect width="6" height="17" transform="translate(1 0)" fill="#886551" opacity="0"/><rect width="7" height="17" transform="translate(6 0)" fill="#886551" opacity="0"/><rect width="6" height="17" transform="translate(12 0)" fill="#886551"/><g transform="translate(0 0)" clip-path="url(#a)"><path d="M1206,717.287c9.256,0,18.6-8.87,18.6-16.787,10.2,0,19,8.287,19,8.287h19l19,8.5" transform="translate(-1205.596 -700.287)" fill="#70676d" stroke="rgba(255,153,49,0.78)" stroke-linejoin="round" stroke-width="1" opacity="0.8"/></g><rect width="19" height="17" transform="translate(0 0)" fill="rgba(225,203,188,0.2)" opacity="0"/></g><g transform="translate(487 332)"><rect width="6" height="17" transform="translate(1)" fill="#886551"/><rect width="7" height="17" transform="translate(6)" fill="#886551" opacity="0"/><rect width="6" height="17" transform="translate(12)" fill="#886551" opacity="0"/><g clip-path="url(#a)"><path d="M1205,717.287c4.75-4.091,19-16.787,19-16.787l19,8.287h19l19,8.5" transform="translate(-1224 -700.287)" fill="#70676d" stroke="rgba(255,153,49,0.78)" stroke-linejoin="round" stroke-width="1" opacity="0.8"/></g><rect width="19" height="17" fill="rgba(225,203,188,0.2)" opacity="0"/></g><g transform="translate(487 349)"><rect width="6" height="17" transform="translate(1)" fill="#886551" opacity="0"/><rect width="7" height="17" transform="translate(6)" fill="#886551"/><rect width="6" height="17" transform="translate(12)" fill="#886551" opacity="0"/><g clip-path="url(#a)"><path d="M1205,717.287c4.75-4.091,9.5-14.662,19-16.787,6.913,7.917,19,8.287,19,8.287h19l19,8.5" transform="translate(-1224 -700.287)" fill="#70676d" stroke="rgba(255,153,49,0.78)" stroke-linejoin="round" stroke-width="1" opacity="0.8"/></g><rect width="19" height="17" fill="rgba(225,203,188,0.2)" opacity="0"/></g><g transform="translate(487 366)"><rect width="6" height="17" transform="translate(1)" fill="#886551" opacity="0"/><rect width="7" height="17" transform="translate(6)" fill="#886551" opacity="0"/><rect width="6" height="17" transform="translate(12)" fill="#886551"/><g clip-path="url(#a)"><path d="M1205,717.287c4.75-4.091,9.5-14.662,19-16.787,1.881,9.4,19,8.287,19,8.287h19l19,8.5" transform="translate(-1224 -700.287)" fill="#70676d" stroke="rgba(255,153,49,0.78)" stroke-linejoin="round" stroke-width="1" opacity="0.8"/></g><rect width="19" height="17" fill="rgba(225,203,188,0.2)" opacity="0"/></g><g transform="translate(487 434)"><g clip-path="url(#a)"><path d="M1205,717.287c4.75-4.091,19-16.787,19-16.787l19,8.287h19l19,8.5" transform="translate(-1243 -700.287)" fill="rgba(42,42,42,0.35)" stroke="rgba(255,153,49,0.78)" stroke-linejoin="round" stroke-width="1" opacity="0.8"/></g></g><g transform="translate(487 383)"><rect width="6" height="17" transform="translate(1)" fill="#886551"/><rect width="7" height="17" transform="translate(6)" fill="#886551" opacity="0"/><rect width="6" height="17" transform="translate(12)" fill="#886551" opacity="0"/><g clip-path="url(#a)"><path d="M1205,717.287c4.75-4.091,19-16.787,19-16.787l19,8.287h19l19,8.5" transform="translate(-1262 -700.287)" fill="#70676d" stroke="rgba(255,153,49,0.78)" stroke-linejoin="round" stroke-width="1" opacity="0.8"/></g><rect width="19" height="17" fill="rgba(225,203,188,0.2)" opacity="0"/></g><g transform="translate(487 400)"><rect width="6" height="17" transform="translate(1)" fill="#886551" opacity="0"/><rect width="7" height="17" transform="translate(6)" fill="#886551"/><rect width="6" height="17" transform="translate(12)" fill="#886551" opacity="0"/><g clip-path="url(#a)"><path d="M1205,717.287c4.75-4.091,19-16.787,19-16.787l19,8.287a49.192,49.192,0,0,1,19,0c7.491,7.084,19,8.5,19,8.5" transform="translate(-1262 -700.287)" fill="#70676d" stroke="rgba(255,153,49,0.78)" stroke-linejoin="round" stroke-width="1" opacity="0.8"/></g><rect width="19" height="17" fill="rgba(225,203,188,0.2)" opacity="0"/></g><g transform="translate(487 417)"><rect width="6" height="17" transform="translate(1)" fill="#886551" opacity="0"/><rect width="7" height="17" transform="translate(6)" fill="#886551" opacity="0"/><rect width="6" height="17" transform="translate(12)" fill="#886551"/><g clip-path="url(#a)"><path d="M1205,717.287c4.75-4.091,19-16.787,19-16.787l19,8.287a49.192,49.192,0,0,1,19,0c1.682,9.52,19,8.075,19,8.075" transform="translate(-1262 -700.287)" fill="#70676d" stroke="rgba(255,153,49,0.78)" stroke-linejoin="round" stroke-width="1" opacity="0.8"/></g><rect width="19" height="17" fill="rgba(225,203,188,0.2)" opacity="0"/></g></g></svg>