<?xml version="1.0" encoding="UTF-8" standalone="no"?>
<svg
   xmlns:dc="http://purl.org/dc/elements/1.1/"
   xmlns:cc="http://creativecommons.org/ns#"
   xmlns:rdf="http://www.w3.org/1999/02/22-rdf-syntax-ns#"
   xmlns:svg="http://www.w3.org/2000/svg"
   xmlns="http://www.w3.org/2000/svg"
   xmlns:xlink="http://www.w3.org/1999/xlink"
   xmlns:sodipodi="http://sodipodi.sourceforge.net/DTD/sodipodi-0.dtd"
   xmlns:inkscape="http://www.inkscape.org/namespaces/inkscape"
   width="26"
   height="22.001"
   viewBox="0 0 26 22.001"
   version="1.1"
   id="svg22315"
   sodipodi:docname="bmp00172.svg"
   inkscape:version="1.0.1 (3bc2e813f5, 2020-09-07)">
  <metadata
     id="metadata22319">
    <rdf:RDF>
      <cc:Work
         rdf:about="">
        <dc:format>image/svg+xml</dc:format>
        <dc:type
           rdf:resource="http://purl.org/dc/dcmitype/StillImage" />
        <dc:title></dc:title>
      </cc:Work>
    </rdf:RDF>
  </metadata>
  <sodipodi:namedview
     pagecolor="#545454"
     bordercolor="#666666"
     borderopacity="1"
     objecttolerance="10"
     gridtolerance="10"
     guidetolerance="10"
     inkscape:pageopacity="0"
     inkscape:pageshadow="2"
     inkscape:window-width="3753"
     inkscape:window-height="2137"
     id="namedview22317"
     showgrid="false"
     inkscape:zoom="45.254834"
     inkscape:cx="16.050605"
     inkscape:cy="13.836218"
     inkscape:window-x="-8"
     inkscape:window-y="-8"
     inkscape:window-maximized="1"
     inkscape:current-layer="svg22315"
     inkscape:document-rotation="0" />
  <defs
     id="defs22279">
    <linearGradient
       id="a"
       x1="0.5"
       x2="0.5"
       y2="1"
       gradientUnits="objectBoundingBox">
      <stop
         offset="0"
         stop-color="#787477"
         id="stop22269" />
      <stop
         offset="1"
         stop-color="#716b6c"
         id="stop22271" />
    </linearGradient>
    <linearGradient
       id="b"
       x1="0.5"
       x2="0.5"
       y2="1"
       gradientUnits="objectBoundingBox">
      <stop
         offset="0"
         stop-color="#413f40"
         id="stop22274" />
      <stop
         offset="1"
         stop-color="#464141"
         id="stop22276" />
    </linearGradient>
    <linearGradient
       inkscape:collect="always"
       xlink:href="#linearGradient10622"
       id="linearGradient10616"
       x1="8.953125"
       y1="0.78125"
       x2="8.921875"
       y2="9.8125"
       gradientUnits="userSpaceOnUse"
       gradientTransform="translate(0,3.15e-4)" />
    <linearGradient
       x1="0.5"
       y1="0"
       x2="0.5"
       y2="1"
       id="linearGradient10622">
      <stop
         offset="0"
         stop-color="#787477"
         id="stop10618" />
      <stop
         offset="1"
         stop-color="#716B6C"
         id="stop10620"
         style="stop-color:#696568;stop-opacity:1" />
    </linearGradient>
    <linearGradient
       inkscape:collect="always"
       xlink:href="#b"
       id="linearGradient29682"
       gradientUnits="userSpaceOnUse"
       gradientTransform="translate(0,11.000315)"
       x1="8.953125"
       y1="0.78125"
       x2="8.921875"
       y2="9.8125" />
  </defs>
  <path
     id="path29674"
     style="opacity:1;fill:#0a090a;fill-opacity:1;stroke:none;stroke-width:1.19165;stroke-linecap:butt;stroke-linejoin:miter;stroke-miterlimit:4;stroke-dasharray:none;stroke-opacity:1;paint-order:stroke markers fill"
     d="m 24.393093,21.999843 c -0.85591,0 -22.775389,3.15e-4 -22.775389,3.15e-4 C 0.713842,22.000168 0,21.289417 0,20.385555 V 12.631834 C 0,11.727972 0.727657,11.000325 1.6315191,11.000315 1.6315191,11.000315 15.740504,11 24.406908,11 25.239578,11 26,11.664575 26,12.631867 v 7.753026 c 0,0.887591 -0.750999,1.61495 -1.606907,1.61495 z"
     sodipodi:nodetypes="zssssszzz" />
  <path
     id="rect10608"
     style="opacity:1;fill:#0a090a;fill-opacity:1;stroke:none;stroke-width:1.19165;stroke-linecap:butt;stroke-linejoin:miter;stroke-miterlimit:4;stroke-dasharray:none;stroke-opacity:1;paint-order:stroke markers fill"
     d="m 24.393093,10.999843 c -0.85591,0 -22.775389,3.15e-4 -22.775389,3.15e-4 C 0.713842,11.000168 0,10.289417 0,9.3855554 V 1.631834 C 0,0.727972 0.727657,3.253e-4 1.6315191,3.15e-4 1.6315191,3.15e-4 15.740504,0 24.406908,0 25.239578,0 26,0.6645748 26,1.6318675 v 7.7530253 c 0,0.8875912 -0.750999,1.6149502 -1.606907,1.6149502 z"
     sodipodi:nodetypes="zssssszzz" />
  <rect
     width="25"
     height="10"
     rx="1"
     fill="#ffffff"
     opacity="0"
     id="rect22291"
     x="0.5"
     y="0.50099999" />
  <path
     id="rect7997"
     style="opacity:1;fill:url(#linearGradient10616);fill-opacity:1;stroke:none;stroke-width:1.11;stroke-linecap:butt;stroke-linejoin:miter;stroke-miterlimit:4;stroke-dasharray:none;stroke-opacity:1;paint-order:stroke markers fill"
     d="M 1.8464361,0.414189 H 24.127169 c 0.723812,0 1.424267,0.58207298 1.424267,1.4044043 0,0.79954 0.01139,6.08837 0.01139,7.309493 0,0.7425723 -0.67791,1.4385867 -1.435661,1.4385867 H 1.8464321 c -0.790561,0 -1.4270051,-0.6364443 -1.4270051,-1.4270052 V 1.841193 c 0,-0.79056 0.6364441,-1.427004 1.4270051,-1.427004 z"
     sodipodi:nodetypes="ssssssssss" />
  <rect
     width="25"
     height="10"
     rx="1"
     fill="#ffffff"
     opacity="0"
     id="rect29676"
     x="0.5"
     y="11.500999" />
  <rect
     width="25"
     height="10"
     rx="1"
     fill="#ffffff"
     opacity="0"
     id="rect22307"
     x="0.5"
     y="11.5" />
  <path
     id="path29678"
     style="opacity:1;fill:url(#linearGradient29682);fill-opacity:1.0;stroke:none;stroke-width:1.11;stroke-linecap:butt;stroke-linejoin:miter;stroke-miterlimit:4;stroke-dasharray:none;stroke-opacity:1;paint-order:stroke markers fill"
     d="M 1.8464361,11.414189 H 24.127169 c 0.723812,0 1.424267,0.582073 1.424267,1.404404 0,0.79954 0.01139,6.08837 0.01139,7.309493 0,0.742573 -0.67791,1.438587 -1.435661,1.438587 H 1.8464321 c -0.790561,0 -1.4270051,-0.636444 -1.4270051,-1.427005 v -7.298475 c 0,-0.79056 0.6364441,-1.427004 1.4270051,-1.427004 z"
     sodipodi:nodetypes="ssssssssss" />
  <path
     id="rect10605"
     style="opacity:1;fill:#959197;fill-opacity:1;stroke:none;stroke-width:0.723173;stroke-linecap:butt;stroke-linejoin:miter;stroke-miterlimit:4;stroke-dasharray:none;stroke-opacity:1;paint-order:stroke markers fill"
     d="M 1.6953121,0.4238281 C 1.4118401,0.4240051 0.8865,0.6581698 0.61914,1.1210938 0.347167,1.5919987 0.414062,1.8971994 0.414062,1.9433594 c 0,0.053384 0.346778,-1.02343752 1.2656251,-1.02343752 H 24.289477 c 0.918846,0 1.265625,1.07682162 1.265624,1.02343752 0,-0.04616 0.06494,-0.3513607 -0.207031,-0.8222656 -0.26736,-0.462924 -0.7927,-0.6970887 -1.076172,-0.6972657 -0.570202,-7.896e-4 -21.9036479,0 -22.5765859,0 z"
     sodipodi:nodetypes="ccsccsscc" />
  <path
     d="M 3.5184043,8.0922872 H 7.3641239 V 7.5082324 H 4.3718809 V 7.446413 L 7.3023045,3.3488027 V 2.887464 H 3.6189762 V 3.4789002 H 6.462668 v 0.058129 L 3.5184043,7.6309485 Z m 6.4375204,0.068278 A 1.7678499,1.7678499 0 0 0 11.746842,6.1491286 1.7660046,1.7660046 0 0 0 9.9559247,4.1376919 1.7660046,1.7660046 0 0 0 8.1613171,6.1500513 1.7678499,1.7678499 0 0 0 9.955002,8.1605653 Z m 0,-0.5582198 c -0.7381419,0 -1.1496561,-0.5333075 -1.1496561,-1.4522942 0,-0.9189867 0.4133595,-1.4532169 1.1487334,-1.4532169 0.735374,0 1.149656,0.5296168 1.149656,1.4522942 0,0.9226774 -0.414282,1.4532169 -1.149656,1.4532169 z m 4.3605733,0.5582198 a 1.7678499,1.7678499 0 0 0 1.790917,-2.0114367 1.7660046,1.7660046 0 0 0 -1.790917,-2.0114367 1.7660046,1.7660046 0 0 0 -1.791839,2.0123594 1.7678499,1.7678499 0 0 0 1.791839,2.010514 z m 0,-0.5582198 c -0.738142,0 -1.149656,-0.5333075 -1.149656,-1.4522942 0,-0.9189867 0.414282,-1.4532169 1.149656,-1.4532169 0.735374,0 1.149656,0.5296168 1.149656,1.4522942 0,0.9226774 -0.414282,1.4532169 -1.149656,1.4532169 z m 2.768033,0.4899417 H 17.70457 V 5.6850219 a 0.9392856,0.9392856 0 0 1 0.901456,-0.9872649 0.73814192,0.73814192 0 0 1 0.811033,0.7565955 v 2.6379347 h 0.620039 V 5.5945995 a 0.8737755,0.8737755 0 0 1 0.901456,-0.8977651 c 0.54807,0 0.818415,0.2768032 0.818415,0.8543992 v 2.5410536 h 0.61358 V 5.407296 a 1.1330479,1.1330479 0 0 0 -1.236387,-1.2686815 1.3009751,1.3009751 0 0 0 -1.189331,0.680936 h -0.05628 a 1.1219757,1.1219757 0 0 0 -1.073996,-0.680936 1.0989088,1.0989088 0 0 0 -1.085069,0.680936 h -0.05813 V 4.2068927 h -0.590513 z"
     fill="#e4dcd9"
     id="path30719"
     style="stroke-width:0.922677" />
  <path
     d="m 3.5184043,19.091823 h 3.8457196 v -0.584055 h -2.992243 v -0.06182 l 2.9304236,-4.09761 V 13.887 H 3.6189762 v 0.591436 H 6.462668 v 0.05813 l -2.9442637,4.09392 z m 6.4375204,0.06828 A 1.7678499,1.7678499 0 0 0 11.746842,17.148665 1.7660046,1.7660046 0 0 0 9.9559247,15.137228 1.7660046,1.7660046 0 0 0 8.1613171,17.149587 1.7678499,1.7678499 0 0 0 9.955002,19.160101 Z m 0,-0.55822 c -0.7381419,0 -1.1496561,-0.533307 -1.1496561,-1.452294 0,-0.918986 0.4133595,-1.453217 1.1487334,-1.453217 0.735374,0 1.149656,0.529617 1.149656,1.452295 0,0.922677 -0.414282,1.453216 -1.149656,1.453216 z m 4.3605733,0.55822 a 1.7678499,1.7678499 0 0 0 1.790917,-2.011436 1.7660046,1.7660046 0 0 0 -1.790917,-2.011437 1.7660046,1.7660046 0 0 0 -1.791839,2.012359 1.7678499,1.7678499 0 0 0 1.791839,2.010514 z m 0,-0.55822 c -0.738142,0 -1.149656,-0.533307 -1.149656,-1.452294 0,-0.918986 0.414282,-1.453217 1.149656,-1.453217 0.735374,0 1.149656,0.529617 1.149656,1.452295 0,0.922677 -0.414282,1.453216 -1.149656,1.453216 z m 2.768033,0.489942 h 0.620039 v -2.407265 a 0.9392856,0.9392856 0 0 1 0.901456,-0.987265 0.73814192,0.73814192 0 0 1 0.811033,0.756596 v 2.637934 h 0.620039 v -2.497688 a 0.8737755,0.8737755 0 0 1 0.901456,-0.897765 c 0.54807,0 0.818415,0.276804 0.818415,0.8544 v 2.541053 h 0.61358 v -2.684991 a 1.1330479,1.1330479 0 0 0 -1.236387,-1.268681 1.3009751,1.3009751 0 0 0 -1.189331,0.680936 h -0.05628 a 1.1219757,1.1219757 0 0 0 -1.073996,-0.680936 1.0989088,1.0989088 0 0 0 -1.085069,0.680936 h -0.05813 v -0.612658 h -0.590513 z"
     fill="#e4dcd9"
     id="path31365"
     style="stroke-width:0.922677;fill:#e4c100;fill-opacity:1" />
</svg>
