<?xml version="1.0" encoding="UTF-8" standalone="no"?>
<svg
   xmlns:dc="http://purl.org/dc/elements/1.1/"
   xmlns:cc="http://creativecommons.org/ns#"
   xmlns:rdf="http://www.w3.org/1999/02/22-rdf-syntax-ns#"
   xmlns:svg="http://www.w3.org/2000/svg"
   xmlns="http://www.w3.org/2000/svg"
   xmlns:xlink="http://www.w3.org/1999/xlink"
   xmlns:sodipodi="http://sodipodi.sourceforge.net/DTD/sodipodi-0.dtd"
   xmlns:inkscape="http://www.inkscape.org/namespaces/inkscape"
   width="56px"
   height="48px"
   viewbox="0 0 56 48"
   version="1.1"
   id="svg6783"
   sodipodi:docname="bmp00153.svg"
   inkscape:version="1.0.1 (3bc2e813f5, 2020-09-07)">
  <metadata
     id="metadata6787">
    <rdf:RDF>
      <cc:Work
         rdf:about="">
        <dc:format>image/svg+xml</dc:format>
        <dc:type
           rdf:resource="http://purl.org/dc/dcmitype/StillImage" />
        <dc:title />
      </cc:Work>
    </rdf:RDF>
  </metadata>
  <sodipodi:namedview
     pagecolor="#3b3b3b"
     bordercolor="#666666"
     borderopacity="1"
     objecttolerance="10"
     gridtolerance="10"
     guidetolerance="10"
     inkscape:pageopacity="0"
     inkscape:pageshadow="2"
     inkscape:window-width="3753"
     inkscape:window-height="2137"
     id="namedview6785"
     showgrid="false"
     inkscape:zoom="17.229167"
     inkscape:cx="1.109402"
     inkscape:cy="30.123407"
     inkscape:window-x="-8"
     inkscape:window-y="-8"
     inkscape:window-maximized="1"
     inkscape:current-layer="bmp00153"
     inkscape:document-rotation="0" />
  <defs
     id="defs6750">
    <linearGradient
       x1="0.5"
       y1="0"
       x2="0.5"
       y2="1"
       id="gradient_1">
      <stop
         offset="0"
         stop-color="#000000"
         stop-opacity="0.36862746"
         id="stop6741" />
      <stop
         offset="1"
         stop-color="#000000"
         stop-opacity="0.34901962"
         id="stop6743" />
    </linearGradient>
    <rect
       width="56"
       height="48"
       id="artboard_1" />
    <clipPath
       id="clip_1">
      <use
         xlink:href="#artboard_1"
         clip-rule="evenodd"
         id="use6747" />
    </clipPath>
    <linearGradient
       inkscape:collect="always"
       xlink:href="#b"
       id="linearGradient920"
       gradientUnits="userSpaceOnUse"
       x1="5"
       x2="6.2199998"
       y2="9.8100004"
       y1="0"
       gradientTransform="translate(20.033671,3.3714181)" />
    <linearGradient
       id="b"
       x1="0.5"
       x2="0.62199998"
       y2="0.98100001"
       gradientUnits="objectBoundingBox">
      <stop
         offset="0"
         stop-color="#ffc094"
         id="stop7" />
      <stop
         offset="0.62"
         stop-color="#724a4e"
         id="stop9" />
      <stop
         offset="1"
         stop-color="#b19fab"
         id="stop11" />
    </linearGradient>
    <linearGradient
       inkscape:collect="always"
       xlink:href="#c"
       id="linearGradient922"
       gradientUnits="userSpaceOnUse"
       x1="4.1999998"
       x2="4.1999998"
       y2="8.3999996"
       y1="0"
       gradientTransform="translate(20.833671,4.2384181)" />
    <linearGradient
       id="c"
       x1="0.5"
       x2="0.5"
       y2="1"
       gradientUnits="objectBoundingBox">
      <stop
         offset="0"
         stop-color="#503b37"
         id="stop14" />
      <stop
         offset="1"
         stop-color="#463738"
         id="stop16" />
    </linearGradient>
    <linearGradient
       inkscape:collect="always"
       xlink:href="#b"
       id="linearGradient56551"
       gradientUnits="userSpaceOnUse"
       gradientTransform="translate(20.033671,3.3714181)"
       x1="5"
       y1="0"
       x2="6.2199998"
       y2="9.8100004" />
    <linearGradient
       inkscape:collect="always"
       xlink:href="#c"
       id="linearGradient56553"
       gradientUnits="userSpaceOnUse"
       gradientTransform="translate(20.833671,4.2384181)"
       x1="4.1999998"
       y1="0"
       x2="4.1999998"
       y2="8.3999996" />
  </defs>
  <g
     id="bmp00153"
     clip-path="url(#clip_1)">
    <path
       d="m 32.5,9.4999619 c 0,-3.86599 3.13401,-7 7,-7 3.866,0 7,3.13401 7,7 0,3.8660001 -3.134,7.0000001 -7,7.0000001 -3.86599,0 -7,-3.134 -7,-7.0000001 z"
       id="path2761"
       fill="url(#gradient_1)"
       fill-rule="evenodd"
       stroke="none"
       style="opacity:0.25483871;fill:#000000;fill-opacity:1" />
    <path
       d="m 32.5,33.499962 c 0,-3.86599 3.13401,-7 7,-7 3.866,0 7,3.13401 7,7 0,3.866 -3.134,7 -7,7 -3.86599,0 -7,-3.134 -7,-7 z"
       id="path2763"
       fill="url(#gradient_1)"
       fill-rule="evenodd"
       stroke="none"
       style="opacity:0.25483871;fill:#000000;fill-opacity:1" />
    <path
       d="m 4.4999924,9.4999619 c 0,-3.86599 3.13401,-7 6.9999996,-7 3.866,0 7,3.13401 7,7 0,3.8660001 -3.134,7.0000001 -7,7.0000001 -3.8659896,0 -6.9999996,-3.134 -6.9999996,-7.0000001 z"
       id="Circle"
       fill="url(#gradient_1)"
       fill-rule="evenodd"
       stroke="none"
       style="fill:#000000;fill-opacity:1;opacity:0.35" />
    <g
       id="Group#2"
       transform="translate(34.49994 3.4999619)">
      <g
         id="Group#3">
        <path
           d="M0 5C0 2.23858 2.23858 0 5 0C7.76142 0 10 2.23858 10 5C10 7.76142 7.76142 10 5 10C2.23858 10 0 7.76142 0 5L0 5Z"
           transform="translate(5.340576E-05 0)"
           id="Circle#5"
           fill="#87A1D1"
           fill-rule="evenodd"
           stroke="none" />
        <path
           d="M0.0250015 5.5L0.0250015 5.5C0.00799942 5.327 0 5.159 0 5C0 2.23858 2.23858 0 5 0C7.76143 0 10 2.23858 10 5C10 5.163 9.992 5.328 9.976 5.49C9.71934 2.93287 7.56595 0.98676 4.99597 0.989343C2.42599 0.991926 0.27652 2.94236 0.0250015 5.5L0.0250015 5.5L0.0250015 5.5Z"
           id="Shape#2"
           fill="#FFFFFF"
           fill-opacity="0.3019608"
           fill-rule="evenodd"
           stroke="none" />
        <path
           d="M5 5.5C2.24018 5.49614 0.00385666 3.25983 0 0.500001C0 0.334 0.00799942 0.165 0.0250015 0C0.273319 2.55962 2.42937 4.50943 5.001 4.5C7.57262 4.50944 9.72868 2.55962 9.977 0C9.994 0.173 10.002 0.341 10.002 0.5C9.99819 3.26052 7.76069 5.4972 5.00008 5.5L5 5.5L5 5.5Z"
           transform="translate(0.0009918213 4.502014)"
           id="Shape#3"
           fill="#000000"
           fill-opacity="0.4"
           fill-rule="evenodd"
           stroke="none" />
        <path
           d="M0 4.2C0 1.8804 1.8804 0 4.2 0C6.5196 0 8.4 1.8804 8.4 4.2C8.4 6.5196 6.5196 8.4 4.2 8.4C1.8804 8.4 0 6.5196 0 4.2L0 4.2Z"
           transform="translate(0.80010223 0.8670044)"
           id="Circle#6"
           fill="#4E413E"
           fill-rule="evenodd"
           stroke="none" />
        <path
           d="M0 2C0 0.89543 0.895432 0 2 0C3.10457 0 4 0.89543 4 2C4 3.10457 3.10457 4 2 4C0.895432 4 0 3.10457 0 2L0 2Z"
           transform="translate(3.0000534 3)"
           id="Circle#7"
           fill="#95B9F6"
           fill-opacity="0.8"
           fill-rule="evenodd"
           stroke="none" />
      </g>
    </g>
    <path
       d="m 4.4999924,33.499962 c 0,-3.86599 3.13401,-7 6.9999996,-7 3.866,0 7,3.13401 7,7 0,3.866 -3.134,7 -7,7 -3.8659896,0 -6.9999996,-3.134 -6.9999996,-7 z"
       id="Circle#8"
       fill="url(#gradient_1)"
       fill-rule="evenodd"
       stroke="none"
       style="fill:#000000;fill-opacity:1;opacity:0.35" />
    <g
       id="Group#6"
       transform="translate(34.49994 27.499962)">
      <g
         id="Group#7">
        <path
           d="M0 5C0 2.23858 2.23858 0 5 0C7.76142 0 10 2.23858 10 5C10 7.76142 7.76142 10 5 10C2.23858 10 0 7.76142 0 5L0 5Z"
           transform="translate(5.340576E-05 0)"
           id="Circle#13"
           fill="#87A1D1"
           fill-rule="evenodd"
           stroke="none" />
        <path
           d="M0.0250015 5.5L0.0250015 5.5C0.00799942 5.327 0 5.159 0 5C0 2.23857 2.23858 0 5 0C7.76143 0 10 2.23858 10 5C10 5.163 9.992 5.328 9.976 5.49C9.71934 2.93287 7.56595 0.986759 4.99597 0.989342C2.42599 0.991926 0.27652 2.94236 0.0250015 5.5L0.0250015 5.5L0.0250015 5.5Z"
           id="Shape#6"
           fill="#FFFFFF"
           fill-opacity="0.3019608"
           fill-rule="evenodd"
           stroke="none" />
        <path
           d="M5 5.5C2.24018 5.49614 0.00385666 3.25983 0 0.5C0 0.334 0.00799942 0.164997 0.0250015 0C0.273319 2.55962 2.42937 4.50943 5.001 4.5C7.57262 4.50944 9.72868 2.55962 9.977 0C9.994 0.172997 10.002 0.341 10.002 0.5C9.99819 3.26052 7.76069 5.4972 5.00008 5.5L5 5.5L5 5.5Z"
           transform="translate(0.0009918213 4.502014)"
           id="Shape#7"
           fill="#000000"
           fill-opacity="0.4"
           fill-rule="evenodd"
           stroke="none" />
        <path
           d="M0 4.2C0 1.8804 1.8804 0 4.2 0C6.5196 0 8.4 1.8804 8.4 4.2C8.4 6.5196 6.5196 8.4 4.2 8.4C1.8804 8.4 0 6.5196 0 4.2L0 4.2Z"
           transform="translate(0.80010223 0.8670044)"
           id="Circle#14"
           fill="#4E413E"
           fill-rule="evenodd"
           stroke="none" />
        <path
           d="M0 2C0 0.89543 0.895432 0 2 0C3.10457 0 4 0.89543 4 2C4 3.10457 3.10457 4 2 4C0.895432 4 0 3.10457 0 2L0 2Z"
           transform="translate(3.0000534 3)"
           id="Circle#15"
           fill="#95B9F6"
           fill-opacity="0.8"
           fill-rule="evenodd"
           stroke="none" />
      </g>
    </g>
    <g
       id="g56535"
       transform="translate(-13.543618,0.13338411)">
      <circle
         cx="25.03367"
         cy="8.371417"
         r="5"
         fill="url(#b)"
         id="circle25"
         style="fill:url(#linearGradient920)" />
      <path
         d="m 20.058671,8.8714181 v 0 c -0.017,-0.173 -0.025,-0.341 -0.025,-0.5 a 5,5 0 1 1 10,0 c 0,0.163 -0.008,0.328 -0.024,0.49 a 5,5 0 0 0 -9.951,0.01 z"
         fill="#fff8d6"
         opacity="0.3"
         id="path27" />
      <path
         d="m 25.034671,13.373418 a 5.007,5.007 0 0 1 -5,-4.9999999 c 0,-0.166 0.008,-0.335 0.025,-0.5 a 4.981,4.981 0 0 0 4.976,4.4999999 4.981,4.981 0 0 0 4.976,-4.4999999 c 0.017,0.173 0.025,0.341 0.025,0.5 a 5.007,5.007 0 0 1 -5.002,4.9999999 z"
         fill="#632b2b"
         opacity="0.39"
         id="path29" />
      <circle
         cx="25.03367"
         cy="8.4384165"
         r="4.1999998"
         fill="url(#c)"
         id="circle31"
         style="fill:url(#linearGradient922)" />
      <path
         d="m 25.033671,12.638418 a 4.205,4.205 0 0 1 -4.2,-4.1999999 4.233,4.233 0 0 1 0.03,-0.5 4.2,4.2 0 0 0 4.171,3.6999999 4.2,4.2 0 0 0 4.171,-3.6999999 4.356,4.356 0 0 1 0.029,0.5 4.205,4.205 0 0 1 -4.201,4.1999999 z"
         opacity="0.4"
         id="path33" />
      <circle
         cx="25.03367"
         cy="8.371417"
         r="2"
         fill="#95b9f6"
         opacity="0"
         id="circle35" />
    </g>
    <g
       id="g56549"
       transform="translate(-13.543618,24.142524)">
      <circle
         cx="25.03367"
         cy="8.371417"
         r="5"
         fill="url(#b)"
         id="circle56537"
         style="fill:url(#linearGradient56551)" />
      <path
         d="m 20.058671,8.8714181 v 0 c -0.017,-0.173 -0.025,-0.341 -0.025,-0.5 a 5,5 0 1 1 10,0 c 0,0.163 -0.008,0.328 -0.024,0.49 a 5,5 0 0 0 -9.951,0.01 z"
         fill="#fff8d6"
         opacity="0.3"
         id="path56539" />
      <path
         d="m 25.034671,13.373418 a 5.007,5.007 0 0 1 -5,-4.9999999 c 0,-0.166 0.008,-0.335 0.025,-0.5 a 4.981,4.981 0 0 0 4.976,4.4999999 4.981,4.981 0 0 0 4.976,-4.4999999 c 0.017,0.173 0.025,0.341 0.025,0.5 a 5.007,5.007 0 0 1 -5.002,4.9999999 z"
         fill="#632b2b"
         opacity="0.39"
         id="path56541" />
      <circle
         cx="25.03367"
         cy="8.4384165"
         r="4.1999998"
         fill="url(#c)"
         id="circle56543"
         style="fill:url(#linearGradient56553)" />
      <path
         d="m 25.033671,12.638418 a 4.205,4.205 0 0 1 -4.2,-4.1999999 4.233,4.233 0 0 1 0.03,-0.5 4.2,4.2 0 0 0 4.171,3.6999999 4.2,4.2 0 0 0 4.171,-3.6999999 4.356,4.356 0 0 1 0.029,0.5 4.205,4.205 0 0 1 -4.201,4.1999999 z"
         opacity="0.4"
         id="path56545" />
      <circle
         cx="25.03367"
         cy="8.371417"
         r="2"
         fill="#95b9f6"
         opacity="0"
         id="circle56547" />
    </g>
  </g>
</svg>
