<svg xmlns="http://www.w3.org/2000/svg" xmlns:xlink="http://www.w3.org/1999/xlink" width="131" height="104.001" viewBox="0 0 131 104.001"><defs><linearGradient id="a" x1="0.5" x2="0.5" y2="1" gradientUnits="objectBoundingBox"><stop offset="0" stop-color="#787477"/><stop offset="1" stop-color="#716b6c"/></linearGradient><linearGradient id="d" x1="0.5" x2="0.5" y2="1" gradientUnits="objectBoundingBox"><stop offset="0" stop-color="#413f40"/><stop offset="1" stop-color="#464141"/></linearGradient></defs><g transform="translate(-324 -43)"><g transform="translate(423 43)"><g transform="translate(0.5 0.5)" stroke="#4e4752" stroke-width="0.5" fill="url(#a)"><path d="M0,0H30a1,1,0,0,1,1,1V24a1,1,0,0,1-1,1H0a0,0,0,0,1,0,0V0A0,0,0,0,1,0,0Z" stroke="none"/><path d="M0-.25H30A1.25,1.25,0,0,1,31.25,1V24A1.25,1.25,0,0,1,30,25.25H0A.25.25,0,0,1-.25,25V0A.25.25,0,0,1,0-.25Z" fill="none"/></g><path d="M30.5,1H0V.5H30.5A1.5,1.5,0,0,0,32-.986V-.5A1.5,1.5,0,0,1,30.5,1Z" transform="translate(0 25)" opacity="0.4"/><path d="M32,1.993h0A1.5,1.5,0,0,0,30.5.5H0V0H30.5A1.5,1.5,0,0,1,32,1.5Z" transform="translate(0 0)" fill="#fff" opacity="0.4"/><path d="M0,0H30a1,1,0,0,1,1,1V24a1,1,0,0,1-1,1H0a0,0,0,0,1,0,0V0A0,0,0,0,1,0,0Z" transform="translate(0.5 0.5)" fill="#fff" opacity="0"/><path d="M-.328,0H.41L-1.668-5.637h-.7L-4.441,0H-3.7l.566-1.613H-.895ZM-2.047-4.727h.063L-1.1-2.211H-2.93ZM1.352,0h.672V-5.883H1.352ZM3.367,0h.672V-5.883H3.367Z" transform="translate(16 16)" fill="#e4dcd9"/></g><g transform="translate(423 69)"><g transform="translate(0.5 0.5)" stroke="#4e4752" stroke-width="0.5" fill="url(#a)"><path d="M0,0H30a1,1,0,0,1,1,1V24a1,1,0,0,1-1,1H0a0,0,0,0,1,0,0V0A0,0,0,0,1,0,0Z" stroke="none"/><path d="M0-.25H30A1.25,1.25,0,0,1,31.25,1V24A1.25,1.25,0,0,1,30,25.25H0A.25.25,0,0,1-.25,25V0A.25.25,0,0,1,0-.25Z" fill="none"/></g><path d="M30.5,1H0V.5H30.5A1.5,1.5,0,0,0,32-.986V-.5A1.5,1.5,0,0,1,30.5,1Z" transform="translate(0 25)" opacity="0.4"/><path d="M32,1.993h0A1.5,1.5,0,0,0,30.5.5H0V0H30.5A1.5,1.5,0,0,1,32,1.5Z" transform="translate(0 0)" fill="#fff" opacity="0.4"/><path d="M0,0H30a1,1,0,0,1,1,1V24a1,1,0,0,1-1,1H0a0,0,0,0,1,0,0V0A0,0,0,0,1,0,0Z" transform="translate(0.5 0.5)" fill="#fff" opacity="0"/><path d="M-.328,0H.41L-1.668-5.637h-.7L-4.441,0H-3.7l.566-1.613H-.895ZM-2.047-4.727h.063L-1.1-2.211H-2.93ZM1.352,0h.672V-5.883H1.352ZM3.367,0h.672V-5.883H3.367Z" transform="translate(16 16)" fill="#e4dcd9"/></g><g transform="translate(423 95)"><g transform="translate(0.5 0.5)" stroke="#4e4752" stroke-width="0.5" fill="url(#a)"><path d="M0,0H30a1,1,0,0,1,1,1V24a1,1,0,0,1-1,1H0a0,0,0,0,1,0,0V0A0,0,0,0,1,0,0Z" stroke="none"/><path d="M0-.25H30A1.25,1.25,0,0,1,31.25,1V24A1.25,1.25,0,0,1,30,25.25H0A.25.25,0,0,1-.25,25V0A.25.25,0,0,1,0-.25Z" fill="none"/></g><path d="M30.5,1H0V.5H30.5A1.5,1.5,0,0,0,32-.986V-.5A1.5,1.5,0,0,1,30.5,1Z" transform="translate(0 25)" opacity="0.4"/><path d="M32,1.993h0A1.5,1.5,0,0,0,30.5.5H0V0H30.5A1.5,1.5,0,0,1,32,1.5Z" transform="translate(0 0)" fill="#fff" opacity="0.4"/><path d="M0,0H30a1,1,0,0,1,1,1V24a1,1,0,0,1-1,1H0a0,0,0,0,1,0,0V0A0,0,0,0,1,0,0Z" transform="translate(0.5 0.5)" fill="#fff" opacity="0"/><path d="M-.328,0H.41L-1.668-5.637h-.7L-4.441,0H-3.7l.566-1.613H-.895ZM-2.047-4.727h.063L-1.1-2.211H-2.93ZM1.352,0h.672V-5.883H1.352ZM3.367,0h.672V-5.883H3.367Z" transform="translate(16 16)" fill="#e4dcd9"/></g><g transform="translate(423 121)"><g transform="translate(0.5 0.5)" stroke="#4e4752" stroke-width="0.5" fill="url(#d)"><path d="M0,0H30a1,1,0,0,1,1,1V24a1,1,0,0,1-1,1H0a0,0,0,0,1,0,0V0A0,0,0,0,1,0,0Z" stroke="none"/><path d="M0-.25H30A1.25,1.25,0,0,1,31.25,1V24A1.25,1.25,0,0,1,30,25.25H0A.25.25,0,0,1-.25,25V0A.25.25,0,0,1,0-.25Z" fill="none"/></g><path d="M30.5,1H0V.5H30.5A1.5,1.5,0,0,0,32-.986V-.5A1.5,1.5,0,0,1,30.5,1Z" transform="translate(0 25)" opacity="0.4"/><path d="M32,1.993h0A1.5,1.5,0,0,0,30.5.5H0V0H30.5A1.5,1.5,0,0,1,32,1.5Z" transform="translate(0 0)" fill="#fff" opacity="0.1"/><path d="M0,0H30a1,1,0,0,1,1,1V24a1,1,0,0,1-1,1H0a0,0,0,0,1,0,0V0A0,0,0,0,1,0,0Z" transform="translate(0.5 0.5)" fill="#fff" opacity="0"/><path d="M-.328,0H.41L-1.668-5.637h-.7L-4.441,0H-3.7l.566-1.613H-.895ZM-2.047-4.727h.063L-1.1-2.211H-2.93ZM1.352,0h.672V-5.883H1.352ZM3.367,0h.672V-5.883H3.367Z" transform="translate(16 16)" fill="#fce237"/></g><g transform="translate(324.001 43)"><g transform="translate(0.499 0.5)" stroke="#4e4752" stroke-width="0.5" fill="url(#d)"><path d="M1,0H31a0,0,0,0,1,0,0V25a0,0,0,0,1,0,0H1a1,1,0,0,1-1-1V1A1,1,0,0,1,1,0Z" stroke="none"/><path d="M1-.25H31a.25.25,0,0,1,.25.25V25a.25.25,0,0,1-.25.25H1A1.25,1.25,0,0,1-.25,24V1A1.25,1.25,0,0,1,1-.25Z" fill="none"/></g><path d="M32,1.992h0A1.5,1.5,0,0,0,30.5.5H0V0H30.5A1.5,1.5,0,0,1,32,1.5Z" transform="translate(32 26) rotate(180)" opacity="0.4"/><path d="M30.5,2.993H0v-.5H30.5A1.5,1.5,0,0,0,32,1.006v.487A1.5,1.5,0,0,1,30.5,2.993Z" transform="translate(32 2.993) rotate(180)" fill="#fff" opacity="0.1"/><path d="M1,0H31a0,0,0,0,1,0,0V25a0,0,0,0,1,0,0H1a1,1,0,0,1-1-1V1A1,1,0,0,1,1,0Z" transform="translate(0.5 0.5)" fill="#fff" opacity="0"/><path d="M-2.889-5.77c-1.594,0-2.59,1.137-2.59,2.949S-4.506.133-2.889.133-.311-1.02-.311-2.82-1.287-5.77-2.889-5.77Zm0,.648c1.152,0,1.855.891,1.855,2.3s-.7,2.3-1.855,2.3c-1.172,0-1.867-.906-1.867-2.3S-4.037-5.121-2.889-5.121ZM1.1,0h.672V-3.648H2.74v-.562H1.775V-4.66c0-.461.2-.7.688-.7a1.849,1.849,0,0,1,.316.02v-.547a2.359,2.359,0,0,0-.453-.039A1.09,1.09,0,0,0,1.1-4.68v.469H.4v.563h.7ZM4,0H4.67V-3.648h.965v-.562H4.67V-4.66c0-.461.2-.7.688-.7a1.849,1.849,0,0,1,.316.02v-.547a2.359,2.359,0,0,0-.453-.039A1.09,1.09,0,0,0,4-4.68v.469H3.3v.563H4Z" transform="translate(16 16)" fill="#fce237"/></g><g transform="translate(324.001 69)"><g transform="translate(0.499 0.5)" stroke="#4e4752" stroke-width="0.5" fill="url(#a)"><path d="M1,0H31a0,0,0,0,1,0,0V25a0,0,0,0,1,0,0H1a1,1,0,0,1-1-1V1A1,1,0,0,1,1,0Z" stroke="none"/><path d="M1-.25H31a.25.25,0,0,1,.25.25V25a.25.25,0,0,1-.25.25H1A1.25,1.25,0,0,1-.25,24V1A1.25,1.25,0,0,1,1-.25Z" fill="none"/></g><path d="M32,1.992h0A1.5,1.5,0,0,0,30.5.5H0V0H30.5A1.5,1.5,0,0,1,32,1.5Z" transform="translate(32 26) rotate(180)" opacity="0.4"/><path d="M30.5,2.993H0v-.5H30.5A1.5,1.5,0,0,0,32,1.006v.487A1.5,1.5,0,0,1,30.5,2.993Z" transform="translate(32 2.993) rotate(180)" fill="#fff" opacity="0.4"/><path d="M1,0H31a0,0,0,0,1,0,0V25a0,0,0,0,1,0,0H1a1,1,0,0,1-1-1V1A1,1,0,0,1,1,0Z" transform="translate(0.5 0.5)" fill="#fff" opacity="0"/><path d="M-2.889-5.77c-1.594,0-2.59,1.137-2.59,2.949S-4.506.133-2.889.133-.311-1.02-.311-2.82-1.287-5.77-2.889-5.77Zm0,.648c1.152,0,1.855.891,1.855,2.3s-.7,2.3-1.855,2.3c-1.172,0-1.867-.906-1.867-2.3S-4.037-5.121-2.889-5.121ZM1.1,0h.672V-3.648H2.74v-.562H1.775V-4.66c0-.461.2-.7.688-.7a1.849,1.849,0,0,1,.316.02v-.547a2.359,2.359,0,0,0-.453-.039A1.09,1.09,0,0,0,1.1-4.68v.469H.4v.563h.7ZM4,0H4.67V-3.648h.965v-.562H4.67V-4.66c0-.461.2-.7.688-.7a1.849,1.849,0,0,1,.316.02v-.547a2.359,2.359,0,0,0-.453-.039A1.09,1.09,0,0,0,4-4.68v.469H3.3v.563H4Z" transform="translate(16 16)" fill="#e4dcd9"/></g><g transform="translate(324.001 95)"><g transform="translate(0.499 0.5)" stroke="#4e4752" stroke-width="0.5" fill="url(#a)"><path d="M1,0H31a0,0,0,0,1,0,0V25a0,0,0,0,1,0,0H1a1,1,0,0,1-1-1V1A1,1,0,0,1,1,0Z" stroke="none"/><path d="M1-.25H31a.25.25,0,0,1,.25.25V25a.25.25,0,0,1-.25.25H1A1.25,1.25,0,0,1-.25,24V1A1.25,1.25,0,0,1,1-.25Z" fill="none"/></g><path d="M32,1.992h0A1.5,1.5,0,0,0,30.5.5H0V0H30.5A1.5,1.5,0,0,1,32,1.5Z" transform="translate(32 26) rotate(180)" opacity="0.4"/><path d="M30.5,2.993H0v-.5H30.5A1.5,1.5,0,0,0,32,1.006v.487A1.5,1.5,0,0,1,30.5,2.993Z" transform="translate(32 2.993) rotate(180)" fill="#fff" opacity="0.4"/><path d="M1,0H31a0,0,0,0,1,0,0V25a0,0,0,0,1,0,0H1a1,1,0,0,1-1-1V1A1,1,0,0,1,1,0Z" transform="translate(0.5 0.5)" fill="#fff" opacity="0"/><path d="M-2.889-5.77c-1.594,0-2.59,1.137-2.59,2.949S-4.506.133-2.889.133-.311-1.02-.311-2.82-1.287-5.77-2.889-5.77Zm0,.648c1.152,0,1.855.891,1.855,2.3s-.7,2.3-1.855,2.3c-1.172,0-1.867-.906-1.867-2.3S-4.037-5.121-2.889-5.121ZM1.1,0h.672V-3.648H2.74v-.562H1.775V-4.66c0-.461.2-.7.688-.7a1.849,1.849,0,0,1,.316.02v-.547a2.359,2.359,0,0,0-.453-.039A1.09,1.09,0,0,0,1.1-4.68v.469H.4v.563h.7ZM4,0H4.67V-3.648h.965v-.562H4.67V-4.66c0-.461.2-.7.688-.7a1.849,1.849,0,0,1,.316.02v-.547a2.359,2.359,0,0,0-.453-.039A1.09,1.09,0,0,0,4-4.68v.469H3.3v.563H4Z" transform="translate(16 16)" fill="#e4dcd9"/></g><g transform="translate(324.001 121)"><g transform="translate(0.499 0.5)" stroke="#4e4752" stroke-width="0.5" fill="url(#a)"><path d="M1,0H31a0,0,0,0,1,0,0V25a0,0,0,0,1,0,0H1a1,1,0,0,1-1-1V1A1,1,0,0,1,1,0Z" stroke="none"/><path d="M1-.25H31a.25.25,0,0,1,.25.25V25a.25.25,0,0,1-.25.25H1A1.25,1.25,0,0,1-.25,24V1A1.25,1.25,0,0,1,1-.25Z" fill="none"/></g><path d="M32,1.992h0A1.5,1.5,0,0,0,30.5.5H0V0H30.5A1.5,1.5,0,0,1,32,1.5Z" transform="translate(32 26) rotate(180)" opacity="0.4"/><path d="M30.5,2.993H0v-.5H30.5A1.5,1.5,0,0,0,32,1.006v.487A1.5,1.5,0,0,1,30.5,2.993Z" transform="translate(32 2.993) rotate(180)" fill="#fff" opacity="0.4"/><path d="M1,0H31a0,0,0,0,1,0,0V25a0,0,0,0,1,0,0H1a1,1,0,0,1-1-1V1A1,1,0,0,1,1,0Z" transform="translate(0.5 0.5)" fill="#fff" opacity="0"/><path d="M-2.889-5.77c-1.594,0-2.59,1.137-2.59,2.949S-4.506.133-2.889.133-.311-1.02-.311-2.82-1.287-5.77-2.889-5.77Zm0,.648c1.152,0,1.855.891,1.855,2.3s-.7,2.3-1.855,2.3c-1.172,0-1.867-.906-1.867-2.3S-4.037-5.121-2.889-5.121ZM1.1,0h.672V-3.648H2.74v-.562H1.775V-4.66c0-.461.2-.7.688-.7a1.849,1.849,0,0,1,.316.02v-.547a2.359,2.359,0,0,0-.453-.039A1.09,1.09,0,0,0,1.1-4.68v.469H.4v.563h.7ZM4,0H4.67V-3.648h.965v-.562H4.67V-4.66c0-.461.2-.7.688-.7a1.849,1.849,0,0,1,.316.02v-.547a2.359,2.359,0,0,0-.453-.039A1.09,1.09,0,0,0,4-4.68v.469H3.3v.563H4Z" transform="translate(16 16)" fill="#e4dcd9"/></g><g transform="translate(390 43)"><g transform="translate(0.5 0.5)" stroke="#4e4752" stroke-width="0.5" fill="url(#a)"><rect width="31" height="25" stroke="none"/><rect x="-0.25" y="-0.25" width="31.5" height="25.5" fill="none"/></g><path d="M32,1H0V.5H32V1Z" transform="translate(0 25)" opacity="0.4"/><path d="M32,.5H0V0H32V.5Z" transform="translate(0 0)" fill="#fff" opacity="0.4"/><rect width="31" height="25" transform="translate(0.5 0.5)" fill="#fff" opacity="0"/><path d="M-11.77-1.473A1.86,1.86,0,0,0-9.676.133c1.289,0,2.105-.66,2.105-1.7,0-.828-.469-1.281-1.637-1.574l-.59-.156c-.777-.2-1.086-.453-1.086-.895,0-.57.5-.945,1.246-.945a1.155,1.155,0,0,1,1.277.922h.707A1.793,1.793,0,0,0-9.613-5.77c-1.191,0-1.992.648-1.992,1.605,0,.8.441,1.262,1.461,1.52l.723.188c.777.2,1.129.5,1.129.98,0,.559-.559.969-1.316.969-.8,0-1.363-.375-1.449-.965Zm6.961-2.219A1.133,1.133,0,0,1-3.68-2.453H-6A1.2,1.2,0,0,1-4.809-3.691ZM-3.7-1.09a1.091,1.091,0,0,1-1.086.57C-5.5-.52-5.965-1.047-6-1.879V-1.91h3.027v-.258c0-1.309-.691-2.117-1.828-2.117A1.925,1.925,0,0,0-6.7-2.1C-6.7-.77-5.969.074-4.8.074A1.683,1.683,0,0,0-3.027-1.09ZM-1.918,0h.672V-2.492A1.068,1.068,0,0,1-.141-3.68c.672,0,.992.359.992,1.117V0h.672V-2.727A1.373,1.373,0,0,0,.051-4.285a1.266,1.266,0,0,0-1.266.738h-.062v-.664h-.641ZM4.309.074A1.509,1.509,0,0,0,5.656-.672h.063V0h.641V-5.883H5.688v2.336H5.629a1.439,1.439,0,0,0-1.32-.738c-1.07,0-1.77.859-1.77,2.18S3.23.074,4.309.074ZM4.465-3.68c.762,0,1.238.609,1.238,1.574S5.23-.531,4.465-.531s-1.23-.59-1.23-1.574S3.7-3.68,4.465-3.68Zm5.449,1.7h1.7v-.578h-1.7v-1.7H9.336v1.7h-1.7v.578h1.7v1.7h.578ZM-6.736,7V1.363h-.816l-1.93,4.664h-.062l-1.93-4.664h-.816V7h.656V2.7h.047l1.777,4.266h.594L-7.439,2.7h.047V7Zm2.648-.516c-.488,0-.852-.25-.852-.68s.281-.645.922-.687l1.133-.074V5.43A1.108,1.108,0,0,1-4.088,6.484Zm-.125.59a1.455,1.455,0,0,0,1.3-.7h.063V7h.641V4.117c0-.875-.574-1.4-1.6-1.4-.9,0-1.562.445-1.652,1.121h.68c.094-.332.445-.523.949-.523.629,0,.953.285.953.8V4.5L-4.1,4.574c-.98.059-1.535.492-1.535,1.246A1.281,1.281,0,0,0-4.213,7.074Zm3.145-3.133c0,.609.359.949,1.148,1.141L.8,5.258c.449.109.668.3.668.594,0,.387-.406.656-.973.656A.928.928,0,0,1-.49,5.926h-.691c.074.7.719,1.148,1.656,1.148.957,0,1.688-.52,1.688-1.273,0-.605-.383-.949-1.176-1.141L.338,4.5c-.5-.121-.73-.3-.73-.59,0-.375.391-.629.891-.629a.858.858,0,0,1,.926.559h.664A1.418,1.418,0,0,0,.5,2.715C-.393,2.715-1.068,3.242-1.068,3.941ZM3.459,1.7v1.09h-.68v.563h.68V5.906c0,.8.348,1.125,1.215,1.125a2.251,2.251,0,0,0,.395-.039V6.426a2.837,2.837,0,0,1-.312.016c-.437,0-.625-.211-.625-.707V3.352h.938V2.789H4.131V1.7ZM7.705,3.309A1.133,1.133,0,0,1,8.834,4.547H6.514A1.2,1.2,0,0,1,7.705,3.309Zm1.109,2.6a1.091,1.091,0,0,1-1.086.57c-.715,0-1.18-.527-1.215-1.359V5.09H9.541V4.832c0-1.309-.691-2.117-1.828-2.117A1.925,1.925,0,0,0,5.814,4.9c0,1.332.73,2.176,1.9,2.176A1.683,1.683,0,0,0,9.486,5.91ZM10.6,7h.672V4.391a1.031,1.031,0,0,1,1.105-1.023,2.7,2.7,0,0,1,.43.039V2.734a2.885,2.885,0,0,0-.336-.02,1.176,1.176,0,0,0-1.168.7h-.062V2.789H10.6Z" transform="translate(16 12)" fill="#e4dcd9"/></g><g transform="translate(390 69)"><g transform="translate(0.5 0.5)" stroke="#4e4752" stroke-width="0.5" fill="url(#a)"><rect width="31" height="25" stroke="none"/><rect x="-0.25" y="-0.25" width="31.5" height="25.5" fill="none"/></g><path d="M32,1H0V.5H32V1Z" transform="translate(0 25)" opacity="0.4"/><path d="M32,.5H0V0H32V.5Z" transform="translate(0 0)" fill="#fff" opacity="0.4"/><rect width="31" height="25" transform="translate(0.5 0.5)" fill="#fff" opacity="0"/><path d="M-11.77-1.473A1.86,1.86,0,0,0-9.676.133c1.289,0,2.105-.66,2.105-1.7,0-.828-.469-1.281-1.637-1.574l-.59-.156c-.777-.2-1.086-.453-1.086-.895,0-.57.5-.945,1.246-.945a1.155,1.155,0,0,1,1.277.922h.707A1.793,1.793,0,0,0-9.613-5.77c-1.191,0-1.992.648-1.992,1.605,0,.8.441,1.262,1.461,1.52l.723.188c.777.2,1.129.5,1.129.98,0,.559-.559.969-1.316.969-.8,0-1.363-.375-1.449-.965Zm6.961-2.219A1.133,1.133,0,0,1-3.68-2.453H-6A1.2,1.2,0,0,1-4.809-3.691ZM-3.7-1.09a1.091,1.091,0,0,1-1.086.57C-5.5-.52-5.965-1.047-6-1.879V-1.91h3.027v-.258c0-1.309-.691-2.117-1.828-2.117A1.925,1.925,0,0,0-6.7-2.1C-6.7-.77-5.969.074-4.8.074A1.683,1.683,0,0,0-3.027-1.09ZM-1.918,0h.672V-2.492A1.068,1.068,0,0,1-.141-3.68c.672,0,.992.359.992,1.117V0h.672V-2.727A1.373,1.373,0,0,0,.051-4.285a1.266,1.266,0,0,0-1.266.738h-.062v-.664h-.641ZM4.309.074A1.509,1.509,0,0,0,5.656-.672h.063V0h.641V-5.883H5.688v2.336H5.629a1.439,1.439,0,0,0-1.32-.738c-1.07,0-1.77.859-1.77,2.18S3.23.074,4.309.074ZM4.465-3.68c.762,0,1.238.609,1.238,1.574S5.23-.531,4.465-.531s-1.23-.59-1.23-1.574S3.7-3.68,4.465-3.68Zm5.449,1.7h1.7v-.578h-1.7v-1.7H9.336v1.7h-1.7v.578h1.7v1.7h.578ZM-6.736,7V1.363h-.816l-1.93,4.664h-.062l-1.93-4.664h-.816V7h.656V2.7h.047l1.777,4.266h.594L-7.439,2.7h.047V7Zm2.648-.516c-.488,0-.852-.25-.852-.68s.281-.645.922-.687l1.133-.074V5.43A1.108,1.108,0,0,1-4.088,6.484Zm-.125.59a1.455,1.455,0,0,0,1.3-.7h.063V7h.641V4.117c0-.875-.574-1.4-1.6-1.4-.9,0-1.562.445-1.652,1.121h.68c.094-.332.445-.523.949-.523.629,0,.953.285.953.8V4.5L-4.1,4.574c-.98.059-1.535.492-1.535,1.246A1.281,1.281,0,0,0-4.213,7.074Zm3.145-3.133c0,.609.359.949,1.148,1.141L.8,5.258c.449.109.668.3.668.594,0,.387-.406.656-.973.656A.928.928,0,0,1-.49,5.926h-.691c.074.7.719,1.148,1.656,1.148.957,0,1.688-.52,1.688-1.273,0-.605-.383-.949-1.176-1.141L.338,4.5c-.5-.121-.73-.3-.73-.59,0-.375.391-.629.891-.629a.858.858,0,0,1,.926.559h.664A1.418,1.418,0,0,0,.5,2.715C-.393,2.715-1.068,3.242-1.068,3.941ZM3.459,1.7v1.09h-.68v.563h.68V5.906c0,.8.348,1.125,1.215,1.125a2.251,2.251,0,0,0,.395-.039V6.426a2.837,2.837,0,0,1-.312.016c-.437,0-.625-.211-.625-.707V3.352h.938V2.789H4.131V1.7ZM7.705,3.309A1.133,1.133,0,0,1,8.834,4.547H6.514A1.2,1.2,0,0,1,7.705,3.309Zm1.109,2.6a1.091,1.091,0,0,1-1.086.57c-.715,0-1.18-.527-1.215-1.359V5.09H9.541V4.832c0-1.309-.691-2.117-1.828-2.117A1.925,1.925,0,0,0,5.814,4.9c0,1.332.73,2.176,1.9,2.176A1.683,1.683,0,0,0,9.486,5.91ZM10.6,7h.672V4.391a1.031,1.031,0,0,1,1.105-1.023,2.7,2.7,0,0,1,.43.039V2.734a2.885,2.885,0,0,0-.336-.02,1.176,1.176,0,0,0-1.168.7h-.062V2.789H10.6Z" transform="translate(16 12)" fill="#e4dcd9"/></g><g transform="translate(390 95)"><g transform="translate(0.5 0.5)" stroke="#4e4752" stroke-width="0.5" fill="url(#d)"><rect width="31" height="25" stroke="none"/><rect x="-0.25" y="-0.25" width="31.5" height="25.5" fill="none"/></g><path d="M32,1H0V.5H32V1Z" transform="translate(0 25)" opacity="0.4"/><path d="M32,.5H0V0H32V.5Z" transform="translate(0 0)" fill="#fff" opacity="0.1"/><rect width="31" height="25" transform="translate(0.5 0.5)" fill="#fff" opacity="0"/><path d="M-11.77-1.473A1.86,1.86,0,0,0-9.676.133c1.289,0,2.105-.66,2.105-1.7,0-.828-.469-1.281-1.637-1.574l-.59-.156c-.777-.2-1.086-.453-1.086-.895,0-.57.5-.945,1.246-.945a1.155,1.155,0,0,1,1.277.922h.707A1.793,1.793,0,0,0-9.613-5.77c-1.191,0-1.992.648-1.992,1.605,0,.8.441,1.262,1.461,1.52l.723.188c.777.2,1.129.5,1.129.98,0,.559-.559.969-1.316.969-.8,0-1.363-.375-1.449-.965Zm6.961-2.219A1.133,1.133,0,0,1-3.68-2.453H-6A1.2,1.2,0,0,1-4.809-3.691ZM-3.7-1.09a1.091,1.091,0,0,1-1.086.57C-5.5-.52-5.965-1.047-6-1.879V-1.91h3.027v-.258c0-1.309-.691-2.117-1.828-2.117A1.925,1.925,0,0,0-6.7-2.1C-6.7-.77-5.969.074-4.8.074A1.683,1.683,0,0,0-3.027-1.09ZM-1.918,0h.672V-2.492A1.068,1.068,0,0,1-.141-3.68c.672,0,.992.359.992,1.117V0h.672V-2.727A1.373,1.373,0,0,0,.051-4.285a1.266,1.266,0,0,0-1.266.738h-.062v-.664h-.641ZM4.309.074A1.509,1.509,0,0,0,5.656-.672h.063V0h.641V-5.883H5.688v2.336H5.629a1.439,1.439,0,0,0-1.32-.738c-1.07,0-1.77.859-1.77,2.18S3.23.074,4.309.074ZM4.465-3.68c.762,0,1.238.609,1.238,1.574S5.23-.531,4.465-.531s-1.23-.59-1.23-1.574S3.7-3.68,4.465-3.68Zm5.449,1.7h1.7v-.578h-1.7v-1.7H9.336v1.7h-1.7v.578h1.7v1.7h.578ZM-6.736,7V1.363h-.816l-1.93,4.664h-.062l-1.93-4.664h-.816V7h.656V2.7h.047l1.777,4.266h.594L-7.439,2.7h.047V7Zm2.648-.516c-.488,0-.852-.25-.852-.68s.281-.645.922-.687l1.133-.074V5.43A1.108,1.108,0,0,1-4.088,6.484Zm-.125.59a1.455,1.455,0,0,0,1.3-.7h.063V7h.641V4.117c0-.875-.574-1.4-1.6-1.4-.9,0-1.562.445-1.652,1.121h.68c.094-.332.445-.523.949-.523.629,0,.953.285.953.8V4.5L-4.1,4.574c-.98.059-1.535.492-1.535,1.246A1.281,1.281,0,0,0-4.213,7.074Zm3.145-3.133c0,.609.359.949,1.148,1.141L.8,5.258c.449.109.668.3.668.594,0,.387-.406.656-.973.656A.928.928,0,0,1-.49,5.926h-.691c.074.7.719,1.148,1.656,1.148.957,0,1.688-.52,1.688-1.273,0-.605-.383-.949-1.176-1.141L.338,4.5c-.5-.121-.73-.3-.73-.59,0-.375.391-.629.891-.629a.858.858,0,0,1,.926.559h.664A1.418,1.418,0,0,0,.5,2.715C-.393,2.715-1.068,3.242-1.068,3.941ZM3.459,1.7v1.09h-.68v.563h.68V5.906c0,.8.348,1.125,1.215,1.125a2.251,2.251,0,0,0,.395-.039V6.426a2.837,2.837,0,0,1-.312.016c-.437,0-.625-.211-.625-.707V3.352h.938V2.789H4.131V1.7ZM7.705,3.309A1.133,1.133,0,0,1,8.834,4.547H6.514A1.2,1.2,0,0,1,7.705,3.309Zm1.109,2.6a1.091,1.091,0,0,1-1.086.57c-.715,0-1.18-.527-1.215-1.359V5.09H9.541V4.832c0-1.309-.691-2.117-1.828-2.117A1.925,1.925,0,0,0,5.814,4.9c0,1.332.73,2.176,1.9,2.176A1.683,1.683,0,0,0,9.486,5.91ZM10.6,7h.672V4.391a1.031,1.031,0,0,1,1.105-1.023,2.7,2.7,0,0,1,.43.039V2.734a2.885,2.885,0,0,0-.336-.02,1.176,1.176,0,0,0-1.168.7h-.062V2.789H10.6Z" transform="translate(16 12)" fill="#fce237"/></g><g transform="translate(390 121)"><g transform="translate(0.5 0.5)" stroke="#4e4752" stroke-width="0.5" fill="url(#a)"><rect width="31" height="25" stroke="none"/><rect x="-0.25" y="-0.25" width="31.5" height="25.5" fill="none"/></g><path d="M32,1H0V.5H32V1Z" transform="translate(0 25)" opacity="0.4"/><path d="M32,.5H0V0H32V.5Z" transform="translate(0 0)" fill="#fff" opacity="0.4"/><rect width="31" height="25" transform="translate(0.5 0.5)" fill="#fff" opacity="0"/><path d="M-11.77-1.473A1.86,1.86,0,0,0-9.676.133c1.289,0,2.105-.66,2.105-1.7,0-.828-.469-1.281-1.637-1.574l-.59-.156c-.777-.2-1.086-.453-1.086-.895,0-.57.5-.945,1.246-.945a1.155,1.155,0,0,1,1.277.922h.707A1.793,1.793,0,0,0-9.613-5.77c-1.191,0-1.992.648-1.992,1.605,0,.8.441,1.262,1.461,1.52l.723.188c.777.2,1.129.5,1.129.98,0,.559-.559.969-1.316.969-.8,0-1.363-.375-1.449-.965Zm6.961-2.219A1.133,1.133,0,0,1-3.68-2.453H-6A1.2,1.2,0,0,1-4.809-3.691ZM-3.7-1.09a1.091,1.091,0,0,1-1.086.57C-5.5-.52-5.965-1.047-6-1.879V-1.91h3.027v-.258c0-1.309-.691-2.117-1.828-2.117A1.925,1.925,0,0,0-6.7-2.1C-6.7-.77-5.969.074-4.8.074A1.683,1.683,0,0,0-3.027-1.09ZM-1.918,0h.672V-2.492A1.068,1.068,0,0,1-.141-3.68c.672,0,.992.359.992,1.117V0h.672V-2.727A1.373,1.373,0,0,0,.051-4.285a1.266,1.266,0,0,0-1.266.738h-.062v-.664h-.641ZM4.309.074A1.509,1.509,0,0,0,5.656-.672h.063V0h.641V-5.883H5.688v2.336H5.629a1.439,1.439,0,0,0-1.32-.738c-1.07,0-1.77.859-1.77,2.18S3.23.074,4.309.074ZM4.465-3.68c.762,0,1.238.609,1.238,1.574S5.23-.531,4.465-.531s-1.23-.59-1.23-1.574S3.7-3.68,4.465-3.68Zm5.449,1.7h1.7v-.578h-1.7v-1.7H9.336v1.7h-1.7v.578h1.7v1.7h.578ZM-6.736,7V1.363h-.816l-1.93,4.664h-.062l-1.93-4.664h-.816V7h.656V2.7h.047l1.777,4.266h.594L-7.439,2.7h.047V7Zm2.648-.516c-.488,0-.852-.25-.852-.68s.281-.645.922-.687l1.133-.074V5.43A1.108,1.108,0,0,1-4.088,6.484Zm-.125.59a1.455,1.455,0,0,0,1.3-.7h.063V7h.641V4.117c0-.875-.574-1.4-1.6-1.4-.9,0-1.562.445-1.652,1.121h.68c.094-.332.445-.523.949-.523.629,0,.953.285.953.8V4.5L-4.1,4.574c-.98.059-1.535.492-1.535,1.246A1.281,1.281,0,0,0-4.213,7.074Zm3.145-3.133c0,.609.359.949,1.148,1.141L.8,5.258c.449.109.668.3.668.594,0,.387-.406.656-.973.656A.928.928,0,0,1-.49,5.926h-.691c.074.7.719,1.148,1.656,1.148.957,0,1.688-.52,1.688-1.273,0-.605-.383-.949-1.176-1.141L.338,4.5c-.5-.121-.73-.3-.73-.59,0-.375.391-.629.891-.629a.858.858,0,0,1,.926.559h.664A1.418,1.418,0,0,0,.5,2.715C-.393,2.715-1.068,3.242-1.068,3.941ZM3.459,1.7v1.09h-.68v.563h.68V5.906c0,.8.348,1.125,1.215,1.125a2.251,2.251,0,0,0,.395-.039V6.426a2.837,2.837,0,0,1-.312.016c-.437,0-.625-.211-.625-.707V3.352h.938V2.789H4.131V1.7ZM7.705,3.309A1.133,1.133,0,0,1,8.834,4.547H6.514A1.2,1.2,0,0,1,7.705,3.309Zm1.109,2.6a1.091,1.091,0,0,1-1.086.57c-.715,0-1.18-.527-1.215-1.359V5.09H9.541V4.832c0-1.309-.691-2.117-1.828-2.117A1.925,1.925,0,0,0,5.814,4.9c0,1.332.73,2.176,1.9,2.176A1.683,1.683,0,0,0,9.486,5.91ZM10.6,7h.672V4.391a1.031,1.031,0,0,1,1.105-1.023,2.7,2.7,0,0,1,.43.039V2.734a2.885,2.885,0,0,0-.336-.02,1.176,1.176,0,0,0-1.168.7h-.062V2.789H10.6Z" transform="translate(16 12)" fill="#e4dcd9"/></g><g transform="translate(357 43)"><g transform="translate(0.5 0.5)" stroke="#4e4752" stroke-width="0.5" fill="url(#a)"><rect width="31" height="25" stroke="none"/><rect x="-0.25" y="-0.25" width="31.5" height="25.5" fill="none"/></g><path d="M32,1H0V.5H32V1Z" transform="translate(0 25)" opacity="0.4"/><path d="M32,.5H0V0H32V.5Z" transform="translate(0 0)" fill="#fff" opacity="0.4"/><rect width="31" height="25" transform="translate(0.5 0.5)" fill="#fff" opacity="0"/><path d="M-9.176-1.473A1.86,1.86,0,0,0-7.082.133c1.289,0,2.105-.66,2.105-1.7,0-.828-.469-1.281-1.637-1.574l-.59-.156c-.777-.2-1.086-.453-1.086-.895,0-.57.5-.945,1.246-.945a1.155,1.155,0,0,1,1.277.922h.707A1.793,1.793,0,0,0-7.02-5.77c-1.191,0-1.992.648-1.992,1.605,0,.8.441,1.262,1.461,1.52l.723.188c.777.2,1.129.5,1.129.98,0,.559-.559.969-1.316.969-.8,0-1.363-.375-1.449-.965Zm6.961-2.219A1.133,1.133,0,0,1-1.086-2.453h-2.32A1.2,1.2,0,0,1-2.215-3.691Zm1.109,2.6a1.091,1.091,0,0,1-1.086.57c-.715,0-1.18-.527-1.215-1.359V-1.91H-.379v-.258c0-1.309-.691-2.117-1.828-2.117A1.925,1.925,0,0,0-4.105-2.1c0,1.332.73,2.176,1.9,2.176A1.683,1.683,0,0,0-.434-1.09ZM.676,0h.672V-2.492A1.068,1.068,0,0,1,2.453-3.68c.672,0,.992.359.992,1.117V0h.672V-2.727A1.373,1.373,0,0,0,2.645-4.285a1.266,1.266,0,0,0-1.266.738H1.316v-.664H.676ZM6.9.074A1.509,1.509,0,0,0,8.25-.672h.063V0h.641V-5.883H8.281v2.336H8.223A1.439,1.439,0,0,0,6.9-4.285c-1.07,0-1.77.859-1.77,2.18S5.824.074,6.9.074ZM7.059-3.68C7.82-3.68,8.3-3.07,8.3-2.105S7.824-.531,7.059-.531s-1.23-.59-1.23-1.574S6.293-3.68,7.059-3.68Z" transform="translate(16 16)" fill="#e4dcd9"/></g><g transform="translate(357 69)"><g transform="translate(0.5 0.5)" stroke="#4e4752" stroke-width="0.5" fill="url(#d)"><rect width="31" height="25" stroke="none"/><rect x="-0.25" y="-0.25" width="31.5" height="25.5" fill="none"/></g><path d="M32,1H0V.5H32V1Z" transform="translate(0 25)" opacity="0.4"/><path d="M32,.5H0V0H32V.5Z" transform="translate(0 0)" fill="#fff" opacity="0.1"/><rect width="31" height="25" transform="translate(0.5 0.5)" fill="#fff" opacity="0"/><path d="M-9.176-1.473A1.86,1.86,0,0,0-7.082.133c1.289,0,2.105-.66,2.105-1.7,0-.828-.469-1.281-1.637-1.574l-.59-.156c-.777-.2-1.086-.453-1.086-.895,0-.57.5-.945,1.246-.945a1.155,1.155,0,0,1,1.277.922h.707A1.793,1.793,0,0,0-7.02-5.77c-1.191,0-1.992.648-1.992,1.605,0,.8.441,1.262,1.461,1.52l.723.188c.777.2,1.129.5,1.129.98,0,.559-.559.969-1.316.969-.8,0-1.363-.375-1.449-.965Zm6.961-2.219A1.133,1.133,0,0,1-1.086-2.453h-2.32A1.2,1.2,0,0,1-2.215-3.691Zm1.109,2.6a1.091,1.091,0,0,1-1.086.57c-.715,0-1.18-.527-1.215-1.359V-1.91H-.379v-.258c0-1.309-.691-2.117-1.828-2.117A1.925,1.925,0,0,0-4.105-2.1c0,1.332.73,2.176,1.9,2.176A1.683,1.683,0,0,0-.434-1.09ZM.676,0h.672V-2.492A1.068,1.068,0,0,1,2.453-3.68c.672,0,.992.359.992,1.117V0h.672V-2.727A1.373,1.373,0,0,0,2.645-4.285a1.266,1.266,0,0,0-1.266.738H1.316v-.664H.676ZM6.9.074A1.509,1.509,0,0,0,8.25-.672h.063V0h.641V-5.883H8.281v2.336H8.223A1.439,1.439,0,0,0,6.9-4.285c-1.07,0-1.77.859-1.77,2.18S5.824.074,6.9.074ZM7.059-3.68C7.82-3.68,8.3-3.07,8.3-2.105S7.824-.531,7.059-.531s-1.23-.59-1.23-1.574S6.293-3.68,7.059-3.68Z" transform="translate(16 16)" fill="#fce237"/></g><g transform="translate(357 95)"><g transform="translate(0.5 0.5)" stroke="#4e4752" stroke-width="0.5" fill="url(#a)"><rect width="31" height="25" stroke="none"/><rect x="-0.25" y="-0.25" width="31.5" height="25.5" fill="none"/></g><path d="M32,1H0V.5H32V1Z" transform="translate(0 25)" opacity="0.4"/><path d="M32,.5H0V0H32V.5Z" transform="translate(0 0)" fill="#fff" opacity="0.4"/><rect width="31" height="25" transform="translate(0.5 0.5)" fill="#fff" opacity="0"/><path d="M-9.176-1.473A1.86,1.86,0,0,0-7.082.133c1.289,0,2.105-.66,2.105-1.7,0-.828-.469-1.281-1.637-1.574l-.59-.156c-.777-.2-1.086-.453-1.086-.895,0-.57.5-.945,1.246-.945a1.155,1.155,0,0,1,1.277.922h.707A1.793,1.793,0,0,0-7.02-5.77c-1.191,0-1.992.648-1.992,1.605,0,.8.441,1.262,1.461,1.52l.723.188c.777.2,1.129.5,1.129.98,0,.559-.559.969-1.316.969-.8,0-1.363-.375-1.449-.965Zm6.961-2.219A1.133,1.133,0,0,1-1.086-2.453h-2.32A1.2,1.2,0,0,1-2.215-3.691Zm1.109,2.6a1.091,1.091,0,0,1-1.086.57c-.715,0-1.18-.527-1.215-1.359V-1.91H-.379v-.258c0-1.309-.691-2.117-1.828-2.117A1.925,1.925,0,0,0-4.105-2.1c0,1.332.73,2.176,1.9,2.176A1.683,1.683,0,0,0-.434-1.09ZM.676,0h.672V-2.492A1.068,1.068,0,0,1,2.453-3.68c.672,0,.992.359.992,1.117V0h.672V-2.727A1.373,1.373,0,0,0,2.645-4.285a1.266,1.266,0,0,0-1.266.738H1.316v-.664H.676ZM6.9.074A1.509,1.509,0,0,0,8.25-.672h.063V0h.641V-5.883H8.281v2.336H8.223A1.439,1.439,0,0,0,6.9-4.285c-1.07,0-1.77.859-1.77,2.18S5.824.074,6.9.074ZM7.059-3.68C7.82-3.68,8.3-3.07,8.3-2.105S7.824-.531,7.059-.531s-1.23-.59-1.23-1.574S6.293-3.68,7.059-3.68Z" transform="translate(16 16)" fill="#e4dcd9"/></g><g transform="translate(357 121)"><g transform="translate(0.5 0.5)" stroke="#4e4752" stroke-width="0.5" fill="url(#a)"><rect width="31" height="25" stroke="none"/><rect x="-0.25" y="-0.25" width="31.5" height="25.5" fill="none"/></g><path d="M32,1H0V.5H32V1Z" transform="translate(0 25)" opacity="0.4"/><path d="M32,.5H0V0H32V.5Z" transform="translate(0 0)" fill="#fff" opacity="0.4"/><rect width="31" height="25" transform="translate(0.5 0.5)" fill="#fff" opacity="0"/><path d="M-9.176-1.473A1.86,1.86,0,0,0-7.082.133c1.289,0,2.105-.66,2.105-1.7,0-.828-.469-1.281-1.637-1.574l-.59-.156c-.777-.2-1.086-.453-1.086-.895,0-.57.5-.945,1.246-.945a1.155,1.155,0,0,1,1.277.922h.707A1.793,1.793,0,0,0-7.02-5.77c-1.191,0-1.992.648-1.992,1.605,0,.8.441,1.262,1.461,1.52l.723.188c.777.2,1.129.5,1.129.98,0,.559-.559.969-1.316.969-.8,0-1.363-.375-1.449-.965Zm6.961-2.219A1.133,1.133,0,0,1-1.086-2.453h-2.32A1.2,1.2,0,0,1-2.215-3.691Zm1.109,2.6a1.091,1.091,0,0,1-1.086.57c-.715,0-1.18-.527-1.215-1.359V-1.91H-.379v-.258c0-1.309-.691-2.117-1.828-2.117A1.925,1.925,0,0,0-4.105-2.1c0,1.332.73,2.176,1.9,2.176A1.683,1.683,0,0,0-.434-1.09ZM.676,0h.672V-2.492A1.068,1.068,0,0,1,2.453-3.68c.672,0,.992.359.992,1.117V0h.672V-2.727A1.373,1.373,0,0,0,2.645-4.285a1.266,1.266,0,0,0-1.266.738H1.316v-.664H.676ZM6.9.074A1.509,1.509,0,0,0,8.25-.672h.063V0h.641V-5.883H8.281v2.336H8.223A1.439,1.439,0,0,0,6.9-4.285c-1.07,0-1.77.859-1.77,2.18S5.824.074,6.9.074ZM7.059-3.68C7.82-3.68,8.3-3.07,8.3-2.105S7.824-.531,7.059-.531s-1.23-.59-1.23-1.574S6.293-3.68,7.059-3.68Z" transform="translate(16 16)" fill="#e4dcd9"/></g></g></svg>