<?xml version="1.0" encoding="UTF-8" standalone="no"?>
<svg
   xmlns:dc="http://purl.org/dc/elements/1.1/"
   xmlns:cc="http://creativecommons.org/ns#"
   xmlns:rdf="http://www.w3.org/1999/02/22-rdf-syntax-ns#"
   xmlns:svg="http://www.w3.org/2000/svg"
   xmlns="http://www.w3.org/2000/svg"
   xmlns:xlink="http://www.w3.org/1999/xlink"
   xmlns:sodipodi="http://sodipodi.sourceforge.net/DTD/sodipodi-0.dtd"
   xmlns:inkscape="http://www.inkscape.org/namespaces/inkscape"
   width="26"
   height="22.001"
   viewBox="0 0 26 22.001"
   version="1.1"
   id="svg22315"
   sodipodi:docname="bmp00171.svg"
   inkscape:version="1.0.1 (3bc2e813f5, 2020-09-07)">
  <metadata
     id="metadata22319">
    <rdf:RDF>
      <cc:Work
         rdf:about="">
        <dc:format>image/svg+xml</dc:format>
        <dc:type
           rdf:resource="http://purl.org/dc/dcmitype/StillImage" />
        <dc:title />
      </cc:Work>
    </rdf:RDF>
  </metadata>
  <sodipodi:namedview
     pagecolor="#545454"
     bordercolor="#666666"
     borderopacity="1"
     objecttolerance="10"
     gridtolerance="10"
     guidetolerance="10"
     inkscape:pageopacity="0"
     inkscape:pageshadow="2"
     inkscape:window-width="3753"
     inkscape:window-height="2137"
     id="namedview22317"
     showgrid="false"
     inkscape:zoom="45.254834"
     inkscape:cx="16.050605"
     inkscape:cy="13.836218"
     inkscape:window-x="-8"
     inkscape:window-y="-8"
     inkscape:window-maximized="1"
     inkscape:current-layer="svg22315"
     inkscape:document-rotation="0" />
  <defs
     id="defs22279">
    <linearGradient
       id="a"
       x1="0.5"
       x2="0.5"
       y2="1"
       gradientUnits="objectBoundingBox">
      <stop
         offset="0"
         stop-color="#787477"
         id="stop22269" />
      <stop
         offset="1"
         stop-color="#716b6c"
         id="stop22271" />
    </linearGradient>
    <linearGradient
       id="b"
       x1="0.5"
       x2="0.5"
       y2="1"
       gradientUnits="objectBoundingBox">
      <stop
         offset="0"
         stop-color="#413f40"
         id="stop22274" />
      <stop
         offset="1"
         stop-color="#464141"
         id="stop22276" />
    </linearGradient>
    <linearGradient
       inkscape:collect="always"
       xlink:href="#linearGradient10622"
       id="linearGradient10616"
       x1="8.953125"
       y1="0.78125"
       x2="8.921875"
       y2="9.8125"
       gradientUnits="userSpaceOnUse"
       gradientTransform="translate(0,3.15e-4)" />
    <linearGradient
       x1="0.5"
       y1="0"
       x2="0.5"
       y2="1"
       id="linearGradient10622">
      <stop
         offset="0"
         stop-color="#787477"
         id="stop10618"
         style="stop-color:#737172;stop-opacity:1" />
      <stop
         offset="1"
         stop-color="#716B6C"
         id="stop10620"
         style="stop-color:#6e686d;stop-opacity:1" />
    </linearGradient>
    <linearGradient
       inkscape:collect="always"
       xlink:href="#b"
       id="linearGradient29682"
       gradientUnits="userSpaceOnUse"
       gradientTransform="translate(0,11.000315)"
       x1="8.953125"
       y1="0.78125"
       x2="8.921875"
       y2="9.8125" />
  </defs>
  <path
     id="path29674"
     style="opacity:1;fill:#0a090a;fill-opacity:1;stroke:none;stroke-width:1.19165;stroke-linecap:butt;stroke-linejoin:miter;stroke-miterlimit:4;stroke-dasharray:none;stroke-opacity:1;paint-order:stroke markers fill"
     d="m 24.393093,21.999843 c -0.85591,0 -22.775389,3.15e-4 -22.775389,3.15e-4 C 0.713842,22.000168 0,21.289417 0,20.385555 V 12.631834 C 0,11.727972 0.727657,11.000325 1.6315191,11.000315 1.6315191,11.000315 15.740504,11 24.406908,11 25.239578,11 26,11.664575 26,12.631867 v 7.753026 c 0,0.887591 -0.750999,1.61495 -1.606907,1.61495 z"
     sodipodi:nodetypes="zssssszzz" />
  <path
     id="rect10608"
     style="opacity:1;fill:#0a090a;fill-opacity:1;stroke:none;stroke-width:1.19165;stroke-linecap:butt;stroke-linejoin:miter;stroke-miterlimit:4;stroke-dasharray:none;stroke-opacity:1;paint-order:stroke markers fill"
     d="m 24.393093,10.999843 c -0.85591,0 -22.775389,3.15e-4 -22.775389,3.15e-4 C 0.713842,11.000168 0,10.289417 0,9.3855554 V 1.631834 C 0,0.727972 0.727657,3.253e-4 1.6315191,3.15e-4 1.6315191,3.15e-4 15.740504,0 24.406908,0 25.239578,0 26,0.6645748 26,1.6318675 v 7.7530253 c 0,0.8875912 -0.750999,1.6149502 -1.606907,1.6149502 z"
     sodipodi:nodetypes="zssssszzz" />
  <rect
     width="25"
     height="10"
     rx="1"
     fill="#ffffff"
     opacity="0"
     id="rect22291"
     x="0.5"
     y="0.50099999" />
  <path
     id="rect7997"
     style="opacity:1;fill:url(#linearGradient10616);fill-opacity:1;stroke:none;stroke-width:1.11;stroke-linecap:butt;stroke-linejoin:miter;stroke-miterlimit:4;stroke-dasharray:none;stroke-opacity:1;paint-order:stroke markers fill"
     d="M 1.8464361,0.414189 H 24.127169 c 0.723812,0 1.424267,0.58207298 1.424267,1.4044043 0,0.79954 0.01139,6.08837 0.01139,7.309493 0,0.7425723 -0.67791,1.4385867 -1.435661,1.4385867 H 1.8464321 c -0.790561,0 -1.4270051,-0.6364443 -1.4270051,-1.4270052 V 1.841193 c 0,-0.79056 0.6364441,-1.427004 1.4270051,-1.427004 z"
     sodipodi:nodetypes="ssssssssss" />
  <path
     d="M 10.993763,8.2837966 V 3.0003281 H 10.22894 L 8.4190447,7.3718195 H 8.3609331 L 6.5519754,3.0003281 H 5.7880891 V 8.2837966 H 6.4029473 V 4.2534764 h 0.04124 L 8.1116156,8.2472425 H 8.6683621 L 10.333915,4.2534764 h 0.04687 V 8.2837966 Z M 12.34064,3.0003281 v 5.2834685 h 0.656099 V 6.3979817 h 1.33188 A 1.6271246,1.6271246 0 0 0 16.027914,4.7108709 1.62525,1.62525 0 0 0 14.340803,3.0012653 Z m 0.656099,0.5858023 h 1.166918 a 1.0431968,1.0431968 0 0 1 1.184726,1.1247405 1.0450714,1.0450714 0 0 1 -1.184726,1.1013084 H 12.99955 Z M 20.376911,7.690496 H 17.762826 V 5.8749773 h 2.479116 V 5.2844886 H 17.762826 V 3.5973778 h 2.614085 V 3.0040772 h -3.272995 v 5.2797194 h 3.272995 z"
     fill="#e4dcd9"
     id="path22293"
     style="stroke-width:0.937284" />
  <rect
     width="25"
     height="10"
     rx="1"
     fill="#ffffff"
     opacity="0"
     id="rect29676"
     x="0.5"
     y="11.500999" />
  <rect
     width="25"
     height="10"
     rx="1"
     fill="#ffffff"
     opacity="0"
     id="rect22307"
     x="0.5"
     y="11.5" />
  <path
     id="path29678"
     style="opacity:1;fill:url(#linearGradient29682);fill-opacity:1.0;stroke:none;stroke-width:1.11;stroke-linecap:butt;stroke-linejoin:miter;stroke-miterlimit:4;stroke-dasharray:none;stroke-opacity:1;paint-order:stroke markers fill"
     d="M 1.8464361,11.414189 H 24.127169 c 0.723812,0 1.424267,0.582073 1.424267,1.404404 0,0.79954 0.01139,6.08837 0.01139,7.309493 0,0.742573 -0.67791,1.438587 -1.435661,1.438587 H 1.8464321 c -0.790561,0 -1.4270051,-0.636444 -1.4270051,-1.427005 v -7.298475 c 0,-0.79056 0.6364441,-1.427004 1.4270051,-1.427004 z"
     sodipodi:nodetypes="ssssssssss" />
  <path
     id="rect10605"
     style="opacity:1;fill:#959197;fill-opacity:1;stroke:none;stroke-width:0.723173;stroke-linecap:butt;stroke-linejoin:miter;stroke-miterlimit:4;stroke-dasharray:none;stroke-opacity:1;paint-order:stroke markers fill"
     d="M 1.6953121,0.4238281 C 1.4118401,0.4240051 0.8865,0.6581698 0.61914,1.1210938 0.347167,1.5919987 0.414062,1.8971994 0.414062,1.9433594 c 0,0.053384 0.346778,-1.02343752 1.2656251,-1.02343752 H 24.289477 c 0.918846,0 1.265625,1.07682162 1.265624,1.02343752 0,-0.04616 0.06494,-0.3513607 -0.207031,-0.8222656 -0.26736,-0.462924 -0.7927,-0.6970887 -1.076172,-0.6972657 -0.570202,-7.896e-4 -21.9036479,0 -22.5765859,0 z"
     sodipodi:nodetypes="ccsccsscc" />
  <path
     d="M 10.993763,19.283797 V 14.000328 H 10.22894 L 8.4190447,18.371819 H 8.3609331 L 6.5519754,14.000328 H 5.7880891 v 5.283469 h 0.6148582 v -4.030321 h 0.04124 l 1.6674283,3.993766 h 0.5567465 l 1.6655529,-3.993766 h 0.04687 v 4.030321 z m 1.346877,-5.283469 v 5.283469 h 0.656099 v -1.885815 h 1.33188 a 1.6271246,1.6271246 0 0 0 1.699295,-1.687111 1.62525,1.62525 0 0 0 -1.687111,-1.709606 z m 0.656099,0.585802 h 1.166918 a 1.0431968,1.0431968 0 0 1 1.184726,1.124741 1.0450714,1.0450714 0 0 1 -1.184726,1.101308 H 12.99955 Z m 7.380172,4.104366 h -2.614085 v -1.815519 h 2.479116 v -0.590488 h -2.479116 v -1.687111 h 2.614085 v -0.593301 h -3.272995 v 5.27972 h 3.272995 z"
     id="path29684"
     style="stroke-width:0.937284;fill:#e4c100;fill-opacity:1" />
</svg>
