<?xml version="1.0" encoding="utf-8"?>
<svg width="132px" height="104px" viewBox="0 0 132 104" version="1.1" xmlns:xlink="http://www.w3.org/1999/xlink" xmlns="http://www.w3.org/2000/svg">
  <defs>
    <linearGradient x1="8.953125" y1="0.78125" x2="8.833487" y2="24.728033" id="gradient_1">
      <stop offset="0" stop-color="#787477" />
      <stop offset="1" stop-color="#696568" />
    </linearGradient>
    <rect width="132" height="104" id="artboard_1" />
    <clipPath id="clip_1">
      <use xlink:href="#artboard_1" clip-rule="evenodd" />
    </clipPath>
  </defs>
  <g id="bmp00144" clip-path="url(#clip_1)">
    <path d="M99.0069 103.967L130.383 104C131.286 104.001 132 103.257 132 102.353L132 79.6318C132 78.728 131.272 78.0003 130.369 78.0003L99 78L99 104L99.0069 103.967Z" id="path26374" fill="#0A090A" fill-rule="evenodd" stroke="none" />
    <path d="M130.154 78.4142L99.439 78.4142L99.439 103.526L130.154 103.526C130.944 103.526 131.581 102.89 131.581 102.099L131.581 79.8412C131.581 79.0506 130.944 78.4142 130.154 78.4142L130.154 78.4142Z" id="path26376" fill="#413F40" fill-rule="evenodd" stroke="none" />
    <path d="M99.0069 77.9673L130.383 78C131.286 78.0009 132 77.2569 132 76.353L132 53.6318C132 52.728 131.272 52.0003 130.369 52.0003L99 52L99 78L99.0069 77.9673Z" id="path26366" fill="#0A090A" fill-rule="evenodd" stroke="none" />
    <path d="M130.154 52.4142L99.439 52.4142L99.439 77.5264L130.154 77.5264C130.944 77.5264 131.581 76.89 131.581 76.0994L131.581 53.8412C131.581 53.0506 130.944 52.4142 130.154 52.4142L130.154 52.4142Z" id="path26368" fill="url(#gradient_1)" fill-rule="evenodd" stroke="none" />
    <path d="M130.305 52.4238C130.588 52.424 131.113 52.6582 131.381 53.1211C131.653 53.592 131.586 53.8972 131.586 53.9434C131.586 53.9967 131.239 52.9199 130.32 52.9199L99.4414 52.9199L99.4414 52.4238L130.305 52.4238L130.305 52.4238Z" id="path26370" fill="#959197" fill-rule="evenodd" stroke="none" />
    <path d="M99.0069 51.9673L130.383 52C131.286 52.0009 132 51.2569 132 50.353L132 27.6318C132 26.728 131.272 26.0003 130.369 26.0003L99 26L99 52L99.0069 51.9673Z" id="path26358" fill="#0A090A" fill-rule="evenodd" stroke="none" />
    <path d="M130.154 26.4142L99.439 26.4142L99.439 51.5264L130.154 51.5264C130.944 51.5264 131.581 50.89 131.581 50.0994L131.581 27.8412C131.581 27.0506 130.944 26.4142 130.154 26.4142L130.154 26.4142Z" id="path26360" fill="url(#gradient_1)" fill-rule="evenodd" stroke="none" />
    <path d="M130.305 26.4238C130.588 26.424 131.113 26.6582 131.381 27.1211C131.653 27.592 131.586 27.8972 131.586 27.9434C131.586 27.9967 131.239 26.9199 130.32 26.9199L99.4414 26.9199L99.4414 26.4238L130.305 26.4238L130.305 26.4238Z" id="path26362" fill="#959197" fill-rule="evenodd" stroke="none" />
    <path d="M99.0069 25.9673L130.383 26C131.286 26.0009 132 25.2569 132 24.353L132 1.63183C132 0.727972 131.272 0.000322 130.369 0.000315L99 0L99 26L99.0069 25.9673Z" id="path26350" fill="#0A090A" fill-rule="evenodd" stroke="none" />
    <path d="M130.154 0.414188L99.439 0.414188L99.439 25.5264L130.154 25.5264C130.944 25.5264 131.581 24.89 131.581 24.0994L131.581 1.84119C131.581 1.05063 130.944 0.414188 130.154 0.414188L130.154 0.414188Z" id="path26352" fill="url(#gradient_1)" fill-rule="evenodd" stroke="none" />
    <path d="M130.305 0.423828C130.588 0.424005 131.113 0.65817 131.381 1.12109C131.653 1.592 131.586 1.8972 131.586 1.94336C131.586 1.99674 131.239 0.919922 130.32 0.919922L99.4414 0.919922L99.4414 0.423828L130.305 0.423828L130.305 0.423828Z" id="path26354" fill="#959197" fill-rule="evenodd" stroke="none" />
    <path d="M98.9931 103.967L66 104L66 78.0003L99 78L99 104L98.9931 103.967Z" id="path26342" fill="#0A090A" fill-rule="evenodd" stroke="none" />
    <path d="M99 78.4142L99 103.526L66.4375 103.526L66.4375 78.4142L99 78.4142Z" id="path26344" fill="url(#gradient_1)" fill-rule="evenodd" stroke="none" />
    <path d="M66.4336 78.4332L66.4336 79.4142L99 79.4142L99 78.4142L66.4336 78.4332Z" id="path26346" fill="#959197" fill-rule="evenodd" stroke="none" />
    <path d="M98.9931 77.9673L66 78L66 52.0003L99 52L99 78L98.9931 77.9673Z" id="path26334" fill="#0A090A" fill-rule="evenodd" stroke="none" />
    <path d="M99 52.4142L99 77.5264L66.4375 77.5264L66.4375 52.4142L99 52.4142Z" id="path26336" fill="#413F40" fill-rule="evenodd" stroke="none" />
    <path d="M98.9931 51.9673L66 52L66 26.0003L99 26L99 52L98.9931 51.9673Z" id="path26326" fill="#0A090A" fill-rule="evenodd" stroke="none" />
    <path d="M99 26.4142L99 51.5264L66.4375 51.5264L66.4375 26.4142L99 26.4142Z" id="path26328" fill="url(#gradient_1)" fill-rule="evenodd" stroke="none" />
    <path d="M66.4336 26.4332L66.4336 27.4142L99 27.4142L99 26.4142L66.4336 26.4332Z" id="path26330" fill="#959197" fill-rule="evenodd" stroke="none" />
    <path d="M98.9931 25.9673L66 26L66 0.000315L99 0L99 26L98.9931 25.9673Z" id="path26318" fill="#0A090A" fill-rule="evenodd" stroke="none" />
    <path d="M99 0.414188L99 25.5264L66.4375 25.5264L66.4375 0.414188L99 0.414188Z" id="path26320" fill="url(#gradient_1)" fill-rule="evenodd" stroke="none" />
    <path d="M66.4336 0.433248L66.4336 1.41419L99 1.41419L99 0.414188L66.4336 0.433248Z" id="path26322" fill="#959197" fill-rule="evenodd" stroke="none" />
    <path d="M65.9931 103.967L33 104L33 78.0003L66 78L66 104L65.9931 103.967Z" id="path26310" fill="#0A090A" fill-rule="evenodd" stroke="none" />
    <path d="M34.4775 78.4142L66 78.4142L66 103.526L33 103.526L33 78.4142L34.4775 78.4142Z" id="path26312" fill="url(#gradient_1)" fill-rule="evenodd" stroke="none" />
    <path d="M33 78.4332L33 79.4142L66 79.4142L66 78.4142L33 78.4332Z" id="path26314" fill="#959197" fill-rule="evenodd" stroke="none" />
    <path d="M65.9931 77.9673L33 78L33 52.0003L66 52L66 78L65.9931 77.9673Z" id="path26302" fill="#0A090A" fill-rule="evenodd" stroke="none" />
    <path d="M34.4775 52.4142L66 52.4142L66 77.5264L33 77.5264L33 52.4142L34.4775 52.4142Z" id="path26304" fill="url(#gradient_1)" fill-rule="evenodd" stroke="none" />
    <path d="M33 52.4333L33 53.4142L66 53.4142L66 52.4142L33 52.4333Z" id="path26306" fill="#959197" fill-rule="evenodd" stroke="none" />
    <path d="M65.9931 51.9673L33 52L33 26.0003L66 26L66 52L65.9931 51.9673Z" id="path26294" fill="#0A090A" fill-rule="evenodd" stroke="none" />
    <path d="M34.4775 26.4142L66 26.4142L66 51.5264L33 51.5264L33 26.4142L34.4775 26.4142Z" id="path26296" fill="#413F40" fill-rule="evenodd" stroke="none" />
    <path d="M65.9931 25.9673L33 26L33 0.000315L66 0L66 26L65.9931 25.9673Z" id="path26286" fill="#0A090A" fill-rule="evenodd" stroke="none" />
    <path d="M32.9931 103.967L1.61745 104C0.713731 104.001 0 103.257 0 102.353L0 79.6318C0 78.728 0.727543 78.0003 1.63126 78.0003L33 78L33 104L32.9931 103.967Z" id="path26278" fill="#0A090A" fill-rule="evenodd" stroke="none" />
    <path d="M1.84644 78.4142L32.561 78.4142L32.561 103.526L1.84643 103.526C1.05587 103.526 0.419427 102.89 0.419427 102.099L0.419427 79.8412C0.419427 79.0506 1.05587 78.4142 1.84643 78.4142L1.84644 78.4142Z" id="path26280" fill="url(#gradient_1)" fill-rule="evenodd" stroke="none" />
    <path d="M1.69531 78.4238C1.41184 78.424 0.886501 78.6582 0.619141 79.1211C0.347168 79.592 0.414062 79.8972 0.414062 79.9434C0.414062 79.9967 0.76084 78.9199 1.67969 78.9199L32.5586 78.9199L32.5586 78.4238L1.6953 78.4238L1.69531 78.4238Z" id="path26282" fill="#959197" fill-rule="evenodd" stroke="none" />
    <path d="M32.9931 77.9673L1.61745 78C0.713731 78.0009 0 77.2569 0 76.353L0 53.6318C0 52.728 0.727543 52.0003 1.63126 52.0003L33 52L33 78L32.9931 77.9673Z" id="path26262" fill="#0A090A" fill-rule="evenodd" stroke="none" />
    <path d="M1.84644 52.4142L32.561 52.4142L32.561 77.5264L1.84643 77.5264C1.05587 77.5264 0.419427 76.89 0.419427 76.0994L0.419427 53.8412C0.419427 53.0506 1.05587 52.4142 1.84643 52.4142L1.84644 52.4142Z" id="path26264" fill="url(#gradient_1)" fill-rule="evenodd" stroke="none" />
    <path d="M32.9931 51.9673L1.61745 52C0.713731 52.0009 0 51.2569 0 50.353L0 27.6318C0 26.728 0.727543 26.0003 1.63126 26.0003L33 26L33 52L32.9931 51.9673Z" id="path26254" fill="#0A090A" fill-rule="evenodd" stroke="none" />
    <path d="M1.84644 26.4142L32.561 26.4142L32.561 51.5264L1.84643 51.5264C1.05587 51.5264 0.419427 50.89 0.419427 50.0994L0.419427 27.8412C0.419427 27.0506 1.05587 26.4142 1.84643 26.4142L1.84644 26.4142Z" id="path26256" fill="url(#gradient_1)" fill-rule="evenodd" stroke="none" />
    <path d="M1.69531 26.4238C1.41184 26.424 0.886501 26.6582 0.619141 27.1211C0.347168 27.592 0.414062 27.8972 0.414062 27.9434C0.414062 27.9967 0.76084 26.9199 1.67969 26.9199L32.5586 26.9199L32.5586 26.4238L1.6953 26.4238L1.69531 26.4238Z" id="path26258" fill="#959197" fill-rule="evenodd" stroke="none" />
    <path d="M32.9931 25.9673L1.61745 26C0.713731 26.0009 0 25.2569 0 24.353L0 1.63183C0 0.727972 0.727543 0.000322 1.63126 0.000315L33 0L33 26L32.9931 25.9673Z" id="path19544" fill="#0A090A" fill-rule="evenodd" stroke="none" />
    <path d="M1.84644 0.414188L32.561 0.414188L32.561 25.5264L1.84643 25.5264C1.05587 25.5264 0.419427 24.89 0.419427 24.0994L0.419427 1.84119C0.419427 1.05063 1.05587 0.414188 1.84643 0.414188L1.84644 0.414188Z" id="path19546" fill="#413F40" fill-rule="evenodd" stroke="none" />
    <path d="M99.5 0.5L129.5 0.5C130.052 0.5 130.5 0.947715 130.5 1.5L130.5 24.5C130.5 25.0523 130.052 25.5 129.5 25.5L99.5 25.5L99.5 0.5Z" id="path24079" fill="#FFFFFF" fill-opacity="0" fill-rule="evenodd" stroke="none" />
    <path d="M114.672 16L115.41 16L113.332 10.363L112.632 10.363L110.559 16L111.3 16L111.866 14.387L114.105 14.387L114.672 16ZM112.953 11.273L113.016 11.273L113.9 13.789L112.07 13.789L112.953 11.273ZM116.352 16L117.352 16L117.352 10.117L116.352 10.117L116.352 16ZM118.367 16L119.367 16L119.367 10.117L118.367 10.117L118.367 16Z" id="path24081" fill="#E4DCD9" fill-rule="evenodd" stroke="none" />
    <path d="M99.5 26.5L129.5 26.5C130.052 26.5 130.5 26.9477 130.5 27.5L130.5 50.5C130.5 51.0523 130.052 51.5 129.5 51.5L99.5 51.5L99.5 26.5Z" id="path24095" fill="#FFFFFF" fill-opacity="0" fill-rule="evenodd" stroke="none" />
    <path d="M114.672 42L115.41 42L113.332 36.363L112.632 36.363L110.559 42L111.3 42L111.866 40.387L114.105 40.387L114.672 42ZM112.953 37.273L113.016 37.273L113.9 39.789L112.07 39.789L112.953 37.273ZM116.352 42L117.352 42L117.352 36.117L116.352 36.117L116.352 42ZM118.367 42L119.367 42L119.367 36.117L118.367 36.117L118.367 42Z" id="path24097" fill="#E4DCD9" fill-rule="evenodd" stroke="none" />
    <path d="M99.5 52.5L129.5 52.5C130.052 52.5 130.5 52.9477 130.5 53.5L130.5 76.5C130.5 77.0523 130.052 77.5 129.5 77.5L99.5 77.5L99.5 52.5Z" id="path24111" fill="#FFFFFF" fill-opacity="0" fill-rule="evenodd" stroke="none" />
    <path d="M114.672 68L115.41 68L113.332 62.363L112.632 62.363L110.559 68L111.3 68L111.866 66.387L114.105 66.387L114.672 68ZM112.953 63.273L113.016 63.273L113.9 65.789L112.07 65.789L112.953 63.273ZM116.352 68L117.352 68L117.352 62.117L116.352 62.117L116.352 68ZM118.367 68L119.367 68L119.367 62.117L118.367 62.117L118.367 68Z" id="path24113" fill="#E4DCD9" fill-rule="evenodd" stroke="none" />
    <path d="M99.5 78.5L129.5 78.5C130.052 78.5 130.5 78.9477 130.5 79.5L130.5 102.5C130.5 103.052 130.052 103.5 129.5 103.5L99.5 103.5L99.5 78.5Z" id="path24127" fill="#FFFFFF" fill-opacity="0" fill-rule="evenodd" stroke="none" />
    <path d="M114.672 94L115.41 94L113.332 88.363L112.632 88.363L110.559 94L111.3 94L111.866 92.387L114.105 92.387L114.672 94ZM112.953 89.273L113.016 89.273L113.9 91.789L112.07 91.789L112.953 89.273ZM116.352 94L117.352 94L117.352 88.117L116.352 88.117L116.352 94ZM118.367 94L119.367 94L119.367 88.117L118.367 88.117L118.367 94Z" id="path24129" fill="#FCE237" fill-rule="evenodd" stroke="none" />
    <path d="M1.501 0.5L31.501 0.5L31.501 25.5L1.501 25.5C0.948715 25.5 0.500999 25.0523 0.500999 24.5L0.500999 1.5C0.501 0.947715 0.948715 0.5 1.501 0.5L1.501 0.5Z" id="path24143" fill="#FFFFFF" fill-opacity="0" fill-rule="evenodd" stroke="none" />
    <path d="M13.112 10.23C11.518 10.23 10.522 11.367 10.522 13.179C10.522 14.991 11.495 16.133 13.112 16.133C14.729 16.133 15.69 14.98 15.69 13.18C15.69 11.38 14.714 10.23 13.112 10.23L13.112 10.23ZM13.112 10.878C14.264 10.878 14.967 11.769 14.967 13.178C14.967 14.587 14.267 15.478 13.112 15.478C11.94 15.478 11.245 14.572 11.245 13.178C11.245 11.784 11.964 10.879 13.112 10.879L13.112 10.878ZM17.101 16L17.773 16L17.773 12.352L18.741 12.352L18.741 11.79L17.776 11.79L17.776 11.34C17.776 10.879 17.976 10.64 18.464 10.64C18.5697 10.6376 18.6754 10.6443 18.78 10.66L18.78 10.113C18.6306 10.0854 18.4789 10.0724 18.327 10.074C17.986 10.027 17.6428 10.1439 17.4013 10.3893C17.1598 10.6347 17.0485 10.9798 17.101 11.32L17.101 11.789L16.401 11.789L16.401 12.352L17.101 12.352L17.101 16ZM20.001 16L20.671 16L20.671 12.352L21.636 12.352L21.636 11.79L20.671 11.79L20.671 11.34C20.671 10.879 20.871 10.64 21.359 10.64C21.4647 10.6376 21.5704 10.6443 21.675 10.66L21.675 10.113C21.5256 10.0854 21.3739 10.0724 21.222 10.074C20.8818 10.0288 20.5401 10.1464 20.2998 10.3916C20.0596 10.6368 19.9489 10.9807 20.001 11.32L20.001 11.789L19.301 11.789L19.301 12.352L20.001 12.352L20.001 16Z" id="path24145" fill="#FCE237" fill-rule="evenodd" stroke="none" />
    <path d="M1.501 26.5L31.501 26.5L31.501 51.5L1.501 51.5C0.948715 51.5 0.500999 51.0523 0.500999 50.5L0.500999 27.5C0.501 26.9477 0.948715 26.5 1.501 26.5L1.501 26.5Z" id="path24159" fill="#FFFFFF" fill-opacity="0" fill-rule="evenodd" stroke="none" />
    <path d="M13.112 36.23C11.518 36.23 10.522 37.367 10.522 39.179C10.522 40.991 11.495 42.133 13.112 42.133C14.729 42.133 15.69 40.98 15.69 39.18C15.69 37.38 14.714 36.23 13.112 36.23L13.112 36.23ZM13.112 36.878C14.264 36.878 14.967 37.769 14.967 39.178C14.967 40.587 14.267 41.478 13.112 41.478C11.94 41.478 11.245 40.572 11.245 39.178C11.245 37.784 11.964 36.879 13.112 36.879L13.112 36.878ZM17.101 42L17.773 42L17.773 38.352L18.741 38.352L18.741 37.79L17.776 37.79L17.776 37.34C17.776 36.879 17.976 36.64 18.464 36.64C18.5697 36.6376 18.6754 36.6443 18.78 36.66L18.78 36.113C18.6306 36.0854 18.4789 36.0724 18.327 36.074C17.986 36.027 17.6428 36.1439 17.4013 36.3893C17.1598 36.6347 17.0485 36.9798 17.101 37.32L17.101 37.789L16.401 37.789L16.401 38.352L17.101 38.352L17.101 42ZM20.001 42L20.671 42L20.671 38.352L21.636 38.352L21.636 37.79L20.671 37.79L20.671 37.34C20.671 36.879 20.871 36.64 21.359 36.64C21.4647 36.6376 21.5704 36.6443 21.675 36.66L21.675 36.113C21.5256 36.0854 21.3739 36.0724 21.222 36.074C20.8818 36.0288 20.5401 36.1464 20.2998 36.3916C20.0596 36.6367 19.9489 36.9807 20.001 37.32L20.001 37.789L19.301 37.789L19.301 38.352L20.001 38.352L20.001 42Z" id="path24161" fill="#E4DCD9" fill-rule="evenodd" stroke="none" />
    <path d="M1.501 52.5L31.501 52.5L31.501 77.5L1.501 77.5C0.948715 77.5 0.500999 77.0523 0.500999 76.5L0.500999 53.5C0.501 52.9477 0.948715 52.5 1.501 52.5L1.501 52.5Z" id="path24175" fill="#FFFFFF" fill-opacity="0" fill-rule="evenodd" stroke="none" />
    <path d="M13.112 62.23C11.518 62.23 10.522 63.367 10.522 65.179C10.522 66.991 11.495 68.133 13.112 68.133C14.729 68.133 15.69 66.98 15.69 65.18C15.69 63.38 14.714 62.23 13.112 62.23L13.112 62.23ZM13.112 62.878C14.264 62.878 14.967 63.769 14.967 65.178C14.967 66.587 14.267 67.478 13.112 67.478C11.94 67.478 11.245 66.572 11.245 65.178C11.245 63.784 11.964 62.879 13.112 62.879L13.112 62.878ZM17.101 68L17.773 68L17.773 64.352L18.741 64.352L18.741 63.79L17.776 63.79L17.776 63.34C17.776 62.879 17.976 62.64 18.464 62.64C18.5697 62.6376 18.6754 62.6443 18.78 62.66L18.78 62.113C18.6306 62.0854 18.4789 62.0724 18.327 62.074C17.986 62.027 17.6428 62.1439 17.4013 62.3893C17.1598 62.6347 17.0485 62.9798 17.101 63.32L17.101 63.789L16.401 63.789L16.401 64.352L17.101 64.352L17.101 68ZM20.001 68L20.671 68L20.671 64.352L21.636 64.352L21.636 63.79L20.671 63.79L20.671 63.34C20.671 62.879 20.871 62.64 21.359 62.64C21.4647 62.6376 21.5704 62.6443 21.675 62.66L21.675 62.113C21.5256 62.0854 21.3739 62.0724 21.222 62.074C20.8818 62.0288 20.5401 62.1464 20.2998 62.3916C20.0596 62.6367 19.9489 62.9807 20.001 63.32L20.001 63.789L19.301 63.789L19.301 64.352L20.001 64.352L20.001 68Z" id="path24177" fill="#E4DCD9" fill-rule="evenodd" stroke="none" />
    <path d="M1.501 78.5L31.501 78.5L31.501 103.5L1.501 103.5C0.948715 103.5 0.500999 103.052 0.500999 102.5L0.500999 79.5C0.501 78.9477 0.948715 78.5 1.501 78.5L1.501 78.5Z" id="path24191" fill="#FFFFFF" fill-opacity="0" fill-rule="evenodd" stroke="none" />
    <path d="M13.112 88.23C11.518 88.23 10.522 89.367 10.522 91.179C10.522 92.991 11.495 94.133 13.112 94.133C14.729 94.133 15.69 92.98 15.69 91.18C15.69 89.38 14.714 88.23 13.112 88.23L13.112 88.23ZM13.112 88.878C14.264 88.878 14.967 89.769 14.967 91.178C14.967 92.587 14.267 93.478 13.112 93.478C11.94 93.478 11.245 92.572 11.245 91.178C11.245 89.784 11.964 88.879 13.112 88.879L13.112 88.878ZM17.101 94L17.773 94L17.773 90.352L18.741 90.352L18.741 89.79L17.776 89.79L17.776 89.34C17.776 88.879 17.976 88.64 18.464 88.64C18.5697 88.6376 18.6754 88.6443 18.78 88.66L18.78 88.113C18.6306 88.0854 18.4789 88.0724 18.327 88.074C17.986 88.027 17.6428 88.1439 17.4013 88.3893C17.1598 88.6347 17.0485 88.9798 17.101 89.32L17.101 89.789L16.401 89.789L16.401 90.352L17.101 90.352L17.101 94ZM20.001 94L20.671 94L20.671 90.352L21.636 90.352L21.636 89.79L20.671 89.79L20.671 89.34C20.671 88.879 20.871 88.64 21.359 88.64C21.4647 88.6376 21.5704 88.6443 21.675 88.66L21.675 88.113C21.5256 88.0854 21.3739 88.0724 21.222 88.074C20.8818 88.0288 20.5401 88.1465 20.2998 88.3916C20.0596 88.6368 19.9489 88.9808 20.001 89.32L20.001 89.789L19.301 89.789L19.301 90.352L20.001 90.352L20.001 94Z" id="path24193" fill="#E4DCD9" fill-rule="evenodd" stroke="none" />
    <path d="M66.5 0.5L97.5 0.5L97.5 25.5L66.5 25.5L66.5 0.5Z" id="rect24207" fill="#FFFFFF" fill-opacity="0" fill-rule="evenodd" stroke="none" />
    <path d="M66.5 26.5L97.5 26.5L97.5 51.5L66.5 51.5L66.5 26.5Z" id="rect24223" fill="#FFFFFF" fill-opacity="0" fill-rule="evenodd" stroke="none" />
    <path d="M66.5 52.5L97.5 52.5L97.5 77.5L66.5 77.5L66.5 52.5Z" id="rect24239" fill="#FFFFFF" fill-opacity="0" fill-rule="evenodd" stroke="none" />
    <path d="M66.5 78.5L97.5 78.5L97.5 103.5L66.5 103.5L66.5 78.5Z" id="rect24255" fill="#FFFFFF" fill-opacity="0" fill-rule="evenodd" stroke="none" />
    <path d="M33.5 0.5L64.5 0.5L64.5 25.5L33.5 25.5L33.5 0.5Z" id="rect24271" fill="#FFFFFF" fill-opacity="0" fill-rule="evenodd" stroke="none" />
    <path d="M34.4775 0.414188L66 0.414188L66 25.5264L33 25.5264L33 0.414188L34.4775 0.414188Z" id="path26288" fill="url(#gradient_1)" fill-rule="evenodd" stroke="none" />
    <path d="M40.449 14.527C40.5806 15.5505 41.5203 16.2713 42.543 16.133C43.832 16.133 44.648 15.473 44.648 14.433C44.648 13.605 44.179 13.152 43.011 12.859L42.421 12.703C41.644 12.503 41.335 12.25 41.335 11.808C41.335 11.238 41.835 10.863 42.581 10.863C43.1827 10.7874 43.7404 11.1901 43.858 11.785L44.565 11.785C44.441 10.8212 43.5718 10.1315 42.605 10.23C41.414 10.23 40.613 10.878 40.613 11.835C40.613 12.635 41.054 13.097 42.074 13.355L42.797 13.543C43.574 13.743 43.926 14.043 43.926 14.523C43.926 15.082 43.367 15.492 42.61 15.492C41.81 15.492 41.247 15.117 41.161 14.527L40.449 14.527ZM47.41 12.308C48.078 12.3074 48.6015 12.8819 48.539 13.547L46.219 13.547C46.1976 12.873 46.7357 12.3137 47.41 12.309L47.41 12.308ZM48.519 14.908C48.3082 15.3028 47.8776 15.5287 47.433 15.478C46.718 15.478 46.253 14.951 46.218 14.119L46.218 14.09L49.246 14.09L49.246 13.832C49.246 12.523 48.555 11.715 47.418 11.715C46.2553 11.7207 45.3629 12.7479 45.52 13.9C45.52 15.232 46.25 16.076 47.42 16.076C48.2117 16.1548 48.9505 15.6684 49.191 14.91L48.519 14.908ZM50.301 16L50.973 16L50.973 13.508C50.8988 12.8568 51.4232 12.2931 52.078 12.32C52.75 12.32 53.07 12.679 53.07 13.437L53.07 16L53.742 16L53.742 13.273C53.8634 12.4021 53.1464 11.6432 52.27 11.715C51.734 11.667 51.2263 11.9629 51.004 12.453L50.941 12.453L50.941 11.789L50.301 11.789L50.301 16ZM56.525 16.074C57.0777 16.0915 57.5957 15.8052 57.875 15.328L57.938 15.328L57.938 16L58.579 16L58.579 10.117L57.906 10.117L57.906 12.453L57.848 12.453C57.5827 11.976 57.0703 11.6902 56.525 11.715C55.455 11.715 54.755 12.574 54.755 13.895C54.755 15.216 55.449 16.074 56.525 16.074L56.525 16.074ZM56.684 12.32C57.445 12.32 57.925 12.93 57.925 13.895C57.925 14.86 57.449 15.469 56.684 15.469C55.919 15.469 55.454 14.879 55.454 13.895C55.454 12.911 55.918 12.32 56.684 12.32L56.684 12.32Z" id="path24273" fill="#E4DCD9" fill-rule="evenodd" stroke="none" />
    <path d="M33.5 26.5L64.5 26.5L64.5 51.5L33.5 51.5L33.5 26.5Z" id="rect24287" fill="#FFFFFF" fill-opacity="0" fill-rule="evenodd" stroke="none" />
    <path d="M40.449 40.527C40.5806 41.5505 41.5203 42.2713 42.543 42.133C43.832 42.133 44.648 41.473 44.648 40.433C44.648 39.605 44.179 39.152 43.011 38.859L42.421 38.703C41.644 38.503 41.335 38.25 41.335 37.808C41.335 37.238 41.835 36.863 42.581 36.863C43.1827 36.7874 43.7404 37.1901 43.858 37.785L44.565 37.785C44.441 36.8212 43.5718 36.1315 42.605 36.23C41.414 36.23 40.613 36.878 40.613 37.835C40.613 38.635 41.054 39.097 42.074 39.355L42.797 39.543C43.574 39.743 43.926 40.043 43.926 40.523C43.926 41.082 43.367 41.492 42.61 41.492C41.81 41.492 41.247 41.117 41.161 40.527L40.449 40.527ZM47.41 38.308C48.078 38.3074 48.6015 38.8819 48.539 39.547L46.219 39.547C46.1976 38.873 46.7357 38.3137 47.41 38.309L47.41 38.308ZM48.519 40.908C48.3082 41.3028 47.8776 41.5287 47.433 41.478C46.718 41.478 46.253 40.951 46.218 40.119L46.218 40.09L49.246 40.09L49.246 39.832C49.246 38.523 48.555 37.715 47.418 37.715C46.2553 37.7207 45.3629 38.7479 45.52 39.9C45.52 41.232 46.25 42.076 47.42 42.076C48.2117 42.1548 48.9505 41.6684 49.191 40.91L48.519 40.908ZM50.301 42L50.973 42L50.973 39.508C50.8988 38.8568 51.4232 38.2931 52.078 38.32C52.75 38.32 53.07 38.679 53.07 39.437L53.07 42L53.742 42L53.742 39.273C53.8634 38.4021 53.1464 37.6432 52.27 37.715C51.734 37.667 51.2263 37.9629 51.004 38.453L50.941 38.453L50.941 37.789L50.301 37.789L50.301 42ZM56.525 42.074C57.0777 42.0915 57.5957 41.8052 57.875 41.328L57.938 41.328L57.938 42L58.579 42L58.579 36.117L57.906 36.117L57.906 38.453L57.848 38.453C57.5827 37.976 57.0703 37.6902 56.525 37.715C55.455 37.715 54.755 38.574 54.755 39.895C54.755 41.216 55.449 42.074 56.525 42.074L56.525 42.074ZM56.684 38.32C57.445 38.32 57.925 38.93 57.925 39.895C57.925 40.86 57.449 41.469 56.684 41.469C55.919 41.469 55.454 40.879 55.454 39.895C55.454 38.911 55.918 38.32 56.684 38.32L56.684 38.32Z" id="path24289" fill="#FCE237" fill-rule="evenodd" stroke="none" />
    <path d="M33.5 52.5L64.5 52.5L64.5 77.5L33.5 77.5L33.5 52.5Z" id="rect24303" fill="#FFFFFF" fill-opacity="0" fill-rule="evenodd" stroke="none" />
    <path d="M40.449 66.527C40.5806 67.5505 41.5203 68.2713 42.543 68.133C43.832 68.133 44.648 67.473 44.648 66.433C44.648 65.605 44.179 65.152 43.011 64.859L42.421 64.703C41.644 64.503 41.335 64.25 41.335 63.808C41.335 63.238 41.835 62.863 42.581 62.863C43.1827 62.7874 43.7404 63.1901 43.858 63.785L44.565 63.785C44.441 62.8212 43.5718 62.1316 42.605 62.23C41.414 62.23 40.613 62.878 40.613 63.835C40.613 64.635 41.054 65.097 42.074 65.355L42.797 65.543C43.574 65.743 43.926 66.043 43.926 66.523C43.926 67.082 43.367 67.492 42.61 67.492C41.81 67.492 41.247 67.117 41.161 66.527L40.449 66.527ZM47.41 64.308C48.078 64.3074 48.6015 64.8819 48.539 65.547L46.219 65.547C46.1976 64.873 46.7357 64.3137 47.41 64.309L47.41 64.308ZM48.519 66.908C48.3082 67.3027 47.8776 67.5287 47.433 67.478C46.718 67.478 46.253 66.951 46.218 66.119L46.218 66.09L49.246 66.09L49.246 65.832C49.246 64.523 48.555 63.715 47.418 63.715C46.2553 63.7207 45.3629 64.7479 45.52 65.9C45.52 67.232 46.25 68.076 47.42 68.076C48.2117 68.1548 48.9505 67.6684 49.191 66.91L48.519 66.908ZM50.301 68L50.973 68L50.973 65.508C50.8988 64.8568 51.4232 64.2931 52.078 64.32C52.75 64.32 53.07 64.679 53.07 65.437L53.07 68L53.742 68L53.742 65.273C53.8634 64.4021 53.1464 63.6432 52.27 63.715C51.734 63.667 51.2263 63.963 51.004 64.453L50.941 64.453L50.941 63.789L50.301 63.789L50.301 68ZM56.525 68.074C57.0777 68.0915 57.5957 67.8052 57.875 67.328L57.938 67.328L57.938 68L58.579 68L58.579 62.117L57.906 62.117L57.906 64.453L57.848 64.453C57.5827 63.976 57.0703 63.6902 56.525 63.715C55.455 63.715 54.755 64.574 54.755 65.895C54.755 67.216 55.449 68.074 56.525 68.074L56.525 68.074ZM56.684 64.32C57.445 64.32 57.925 64.93 57.925 65.895C57.925 66.86 57.449 67.469 56.684 67.469C55.919 67.469 55.454 66.879 55.454 65.895C55.454 64.911 55.918 64.32 56.684 64.32L56.684 64.32Z" id="path24305" fill="#E4DCD9" fill-rule="evenodd" stroke="none" />
    <path d="M33.5 78.5L64.5 78.5L64.5 103.5L33.5 103.5L33.5 78.5Z" id="rect24319" fill="#FFFFFF" fill-opacity="0" fill-rule="evenodd" stroke="none" />
    <path d="M40.449 92.527C40.5806 93.5505 41.5203 94.2713 42.543 94.133C43.832 94.133 44.648 93.473 44.648 92.433C44.648 91.605 44.179 91.152 43.011 90.859L42.421 90.703C41.644 90.503 41.335 90.25 41.335 89.808C41.335 89.238 41.835 88.863 42.581 88.863C43.1827 88.7874 43.7404 89.1901 43.858 89.785L44.565 89.785C44.441 88.8212 43.5718 88.1316 42.605 88.23C41.414 88.23 40.613 88.878 40.613 89.835C40.613 90.635 41.054 91.097 42.074 91.355L42.797 91.543C43.574 91.743 43.926 92.043 43.926 92.523C43.926 93.082 43.367 93.492 42.61 93.492C41.81 93.492 41.247 93.117 41.161 92.527L40.449 92.527ZM47.41 90.308C48.078 90.3074 48.6015 90.8819 48.539 91.547L46.219 91.547C46.1976 90.873 46.7357 90.3137 47.41 90.309L47.41 90.308ZM48.519 92.908C48.3082 93.3027 47.8776 93.5287 47.433 93.478C46.718 93.478 46.253 92.951 46.218 92.119L46.218 92.09L49.246 92.09L49.246 91.832C49.246 90.523 48.555 89.715 47.418 89.715C46.2553 89.7207 45.3629 90.7479 45.52 91.9C45.52 93.232 46.25 94.076 47.42 94.076C48.2117 94.1548 48.9505 93.6684 49.191 92.91L48.519 92.908ZM50.301 94L50.973 94L50.973 91.508C50.8988 90.8568 51.4232 90.2931 52.078 90.32C52.75 90.32 53.07 90.679 53.07 91.437L53.07 94L53.742 94L53.742 91.273C53.8634 90.4021 53.1464 89.6432 52.27 89.715C51.734 89.667 51.2263 89.963 51.004 90.453L50.941 90.453L50.941 89.789L50.301 89.789L50.301 94ZM56.525 94.074C57.0777 94.0915 57.5957 93.8052 57.875 93.328L57.938 93.328L57.938 94L58.579 94L58.579 88.117L57.906 88.117L57.906 90.453L57.848 90.453C57.5827 89.976 57.0703 89.6902 56.525 89.715C55.455 89.715 54.755 90.574 54.755 91.895C54.755 93.216 55.449 94.074 56.525 94.074L56.525 94.074ZM56.684 90.32C57.445 90.32 57.925 90.93 57.925 91.895C57.925 92.86 57.449 93.469 56.684 93.469C55.919 93.469 55.454 92.879 55.454 91.895C55.454 90.911 55.918 90.32 56.684 90.32L56.684 90.32Z" id="path24321" fill="#E4DCD9" fill-rule="evenodd" stroke="none" />
    <path d="M1.69531 52.4238C1.41184 52.424 0.886501 52.6582 0.619141 53.1211C0.347168 53.592 0.414062 53.8972 0.414062 53.9434C0.414062 53.9967 0.76084 52.9199 1.67969 52.9199L32.5586 52.9199L32.5586 52.4238L1.6953 52.4238L1.69531 52.4238Z" id="path26266" fill="#959197" fill-rule="evenodd" stroke="none" />
    <path d="M33 0.433248L33 1.41419L66 1.41419L66 0.414188L33 0.433248Z" id="path26290" fill="#959197" fill-rule="evenodd" stroke="none" />
    <path d="M72.0469 10.9516C72.1665 11.8822 73.0209 12.5374 73.9507 12.4117C75.1226 12.4117 75.8645 11.8117 75.8645 10.8661C75.8645 10.1134 75.4381 9.7015 74.3762 9.43511L73.8398 9.29328C73.1333 9.11145 72.9802 8.88143 72.9802 8.47958C72.9802 7.96135 73.4348 7.62041 74.1131 7.62041C74.6601 7.5517 75.1672 7.91778 75.2741 8.45867L75.9169 8.45867C75.8041 7.58277 75.0144 6.95592 74.1358 7.04491C73.053 7.04491 72.3247 7.63405 72.3247 8.50412C72.3247 9.23146 72.5978 9.6515 73.5252 9.88606L74.1825 10.057C74.8889 10.2388 75.209 10.5116 75.209 10.948C75.209 11.4562 74.7007 11.829 74.0125 11.829C73.2852 11.829 72.7733 11.488 72.6951 10.9516L72.0469 10.9516ZM78.3756 8.93416C78.9829 8.93364 79.4589 9.45597 79.4021 10.0606L77.2928 10.0606C77.2733 9.44784 77.7625 8.93936 78.3756 8.93507L78.3756 8.93416ZM79.3839 11.2998C79.1922 11.6587 78.8008 11.8642 78.3965 11.818C77.7474 11.818 77.3246 11.3389 77.2928 10.5825L77.2928 10.5543L80.0448 10.5543L80.0448 10.3197C80.0448 9.12964 79.4166 8.39503 78.3829 8.39503C77.3254 8.39967 76.5135 9.33377 76.6564 10.3816C76.6564 11.5908 77.321 12.3581 78.3838 12.3581C79.1038 12.4309 79.7763 11.9894 79.9958 11.2998L79.3839 11.2998ZM81.004 12.2908L81.615 12.2908L81.615 10.0252C81.5475 9.43315 82.0243 8.9206 82.6196 8.94507C83.2306 8.94507 83.5215 9.27146 83.5215 9.96062L83.5215 12.2908L84.1325 12.2908L84.1325 9.81151C84.2429 9.01974 83.5909 8.32972 82.7942 8.39502C82.3069 8.35134 81.8452 8.62045 81.6432 9.06599L81.5868 9.06599L81.5868 8.4623L81.004 8.4623L81.004 12.2908ZM86.6654 12.3581C87.1669 12.373 87.6366 12.1129 87.8901 11.6799L87.9473 11.6799L87.9473 12.2908L88.5301 12.2908L88.5301 6.94217L87.9192 6.94217L87.9192 9.06599L87.8655 9.06599C87.6247 8.63321 87.1602 8.3735 86.6654 8.39502C85.6926 8.39502 85.0562 9.176 85.0562 10.377C85.0562 11.578 85.6844 12.3581 86.6654 12.3581L86.6654 12.3581ZM86.8072 8.94507C87.5 8.94507 87.9328 9.49876 87.9328 10.3761C87.9328 11.2535 87.5028 11.8081 86.8072 11.8081C86.1117 11.8081 85.689 11.2716 85.689 10.377C85.689 9.48239 86.1117 8.94507 86.8072 8.94507L86.8072 8.94507Z" id="path24225-2" fill="#E4DCD9" fill-rule="evenodd" stroke="none" />
    <path d="M91.8229 9.78004C91.6499 9.91129 91.4567 10.0667 91.3844 10.2179C91.3122 10.3663 91.276 10.5246 91.276 10.6928C91.276 10.8297 91.298 10.9538 91.342 11.0651C91.3891 11.1763 91.4552 11.2718 91.5401 11.3517C91.6249 11.4316 91.7255 11.4943 91.8419 11.54C91.9613 11.5828 92.0933 11.6042 92.238 11.6042C92.4487 11.6042 92.5322 11.6059 92.7146 11.5575C92.897 11.5061 93.1295 11.3305 93.2866 11.2393L91.8229 9.78004ZM95.3896 12.1931L94.6994 12.1931C94.6457 12.1931 94.5978 12.1907 94.5558 12.1861C94.5138 12.1791 94.4741 12.1685 94.4367 12.1543C94.4017 12.1402 94.3678 12.1201 94.3352 12.0942C94.3025 12.0683 94.2675 12.0352 94.2301 11.9952L93.84 11.6334C93.6182 11.789 93.1634 12.0376 92.8997 12.1225C92.6381 12.2074 92.3592 12.2498 92.0626 12.2498C91.8595 12.2498 91.6599 12.2144 91.4638 12.1437C91.27 12.073 91.0972 11.9728 90.9455 11.8431C90.7937 11.711 90.6712 11.5519 90.5778 11.3656C90.4843 11.1793 90.4377 10.9706 90.4377 10.7396C90.4377 10.5839 90.461 10.4365 90.5077 10.2975C90.5567 10.1584 90.6244 10.0298 90.7108 9.91196C90.7995 9.79171 90.9034 9.68322 91.0225 9.58658C91.1416 9.48755 91.2735 9.40149 91.4182 9.3284C91.3062 9.15627 91.2256 8.9877 91.1766 8.82265C91.1276 8.6576 91.103 8.49727 91.103 8.34165C91.103 8.15774 91.1357 7.98444 91.2011 7.82175C91.2688 7.6567 91.3657 7.51288 91.4918 7.39027C91.6202 7.26531 91.7766 7.16628 91.9611 7.09319C92.1478 7.02009 92.3614 6.98355 92.602 6.98355C92.8285 6.98355 93.0281 7.01774 93.2008 7.08612C93.3736 7.15214 93.5195 7.24056 93.6386 7.35137C93.7576 7.45983 93.8511 7.58597 93.9187 7.7298C93.9864 7.87363 94.0284 8.02099 94.0448 8.17189L93.6269 8.26079C93.4465 8.30243 93.3137 8.22956 93.2286 8.04216C93.1503 7.86169 93.0584 7.72462 92.9528 7.63092C92.8506 7.53722 92.7144 7.49037 92.5442 7.49037C92.4251 7.49037 92.3211 7.51292 92.2327 7.55804C92.1442 7.60316 92.0692 7.66215 92.0079 7.73503C91.9501 7.80791 91.9058 7.89293 91.8751 7.9901C91.8445 8.08727 91.8292 8.18791 91.8292 8.29202C91.8292 8.38225 91.8356 8.46901 91.8496 8.5523C91.8666 8.63212 91.8939 8.7154 91.9314 8.80217C91.9688 8.88546 92.0114 8.98058 92.0843 9.07218C92.1612 9.16378 92.2241 9.25157 92.3195 9.35916L93.8358 10.8137C93.9425 10.6324 93.9872 10.6558 94.0543 10.456C94.1215 10.2532 94.1368 10.1313 94.1565 9.91928C94.1683 9.83322 94.1634 9.68003 94.2268 9.63086C94.2901 9.58168 94.374 9.5617 94.4818 9.55709L94.8151 9.54284C94.8151 9.88475 94.6989 10.2767 94.6079 10.5761C94.5168 10.8756 94.4025 10.9637 94.2368 11.2112L95.3896 12.1931Z" id="path30690" fill="#E4DCD9" fill-rule="evenodd" stroke="none" />
    <g id="g32950" transform="translate(72.04686 32.942)">
      <path d="M0 4.00944C0.119667 4.94001 0.97403 5.59526 1.9038 5.46957C3.07572 5.46957 3.81761 4.86951 3.81761 3.92398C3.81761 3.17118 3.3912 2.75933 2.3293 2.49294L1.79289 2.35111C1.08646 2.16928 0.93338 1.93926 0.93338 1.53741C0.93338 1.01918 1.38797 0.678238 2.06621 0.678238C2.61327 0.609535 3.1203 0.975609 3.22722 1.51649L3.87 1.51649C3.75728 0.640598 2.96757 0.0137482 2.08894 0.102737C1.00612 0.102737 0.277878 0.691879 0.277878 1.56195C0.277878 2.28929 0.550972 2.70933 1.47832 2.94389L2.13565 3.11481C2.84208 3.29665 3.1621 3.5694 3.1621 4.0058C3.1621 4.51403 2.65388 4.88679 1.96564 4.88679C1.2383 4.88679 0.726433 4.54585 0.648247 4.00944L0 4.00944ZM6.32873 1.99199C6.93605 1.99147 7.412 2.51379 7.35518 3.11845L5.24591 3.11845C5.22645 2.50566 5.71564 1.99719 6.32873 1.9929L6.32873 1.99199ZM7.337 4.35765C7.14532 4.71655 6.7539 4.92199 6.34965 4.87588C5.7005 4.87588 5.27773 4.39675 5.24591 3.64032L5.24591 3.61213L7.99797 3.61213L7.99797 3.37757C7.99797 2.18746 7.36974 1.45285 6.33601 1.45285C5.27853 1.45749 4.46666 2.39159 4.60949 3.43939C4.60949 4.64859 5.27409 5.41592 6.33691 5.41592C7.05688 5.48871 7.72939 5.0472 7.94888 4.35765L7.337 4.35765ZM8.95714 5.34865L9.5681 5.34865L9.5681 3.083C9.50063 2.49098 9.97739 1.97843 10.5727 2.0029C11.1837 2.0029 11.4746 2.32929 11.4746 3.01844L11.4746 5.34865L12.0856 5.34865L12.0856 2.86934C12.196 2.07757 11.544 1.38755 10.7473 1.45285C10.26 1.40917 9.79836 1.67828 9.59628 2.12382L9.53992 2.12382L9.53992 1.52013L8.95714 1.52013L8.95714 5.34865ZM14.6185 5.41593C15.1201 5.4308 15.5897 5.1707 15.8432 4.73769L15.9005 4.73769L15.9005 5.34865L16.4833 5.34865L16.4833 0L15.8723 0L15.8723 2.12382L15.8186 2.12382C15.5779 1.69104 15.1133 1.43133 14.6185 1.45285C13.6457 1.45285 13.0093 2.23383 13.0093 3.43484C13.0093 4.63586 13.6376 5.41593 14.6185 5.41593L14.6185 5.41593ZM14.7604 2.0029C15.4532 2.0029 15.8859 2.55659 15.8859 3.43394C15.8859 4.31129 15.4559 4.86588 14.7604 4.86588C14.0649 4.86588 13.6421 4.32947 13.6421 3.43484C13.6421 2.54022 14.0648 2.0029 14.7604 2.0029L14.7604 2.0029Z" id="path32946" fill="#E4DCD9" fill-rule="evenodd" stroke="none" />
      <path d="M19.776 2.83787C19.6031 2.96912 19.4098 3.12458 19.3376 3.27572C19.2653 3.42408 19.2291 3.58239 19.2291 3.75064C19.2291 3.88756 19.2512 4.01164 19.2951 4.12288C19.3423 4.23413 19.4083 4.32965 19.4932 4.40955C19.5781 4.48946 19.6786 4.55214 19.795 4.59781C19.9144 4.64059 20.0465 4.66199 20.1911 4.66199C20.4018 4.66199 20.4854 4.66372 20.6677 4.61531C20.8501 4.56397 21.0826 4.38837 21.2398 4.29713L19.776 2.83787ZM23.3428 5.25098L22.6525 5.25098C22.5988 5.25098 22.5509 5.24861 22.5089 5.24398C22.4669 5.23698 22.4272 5.22629 22.3898 5.21215C22.3548 5.198 22.3209 5.17793 22.2883 5.15202C22.2556 5.12611 22.2206 5.09304 22.1832 5.05299L21.7931 4.69119C21.5713 4.84681 21.1166 5.09543 20.8528 5.18031C20.5913 5.26521 20.3123 5.30764 20.0158 5.30764C19.8127 5.30764 19.613 5.27227 19.4169 5.20153C19.2232 5.1308 19.0503 5.03062 18.8986 4.90091C18.7469 4.76888 18.6243 4.60972 18.5309 4.42342C18.4375 4.23709 18.3908 4.02842 18.3908 3.79739C18.3908 3.64177 18.4142 3.49438 18.4608 3.35529C18.5099 3.21621 18.5775 3.08765 18.664 2.96979C18.7526 2.84954 18.8566 2.74105 18.9756 2.64441C19.0947 2.54538 19.2267 2.45933 19.3714 2.38623C19.2593 2.21411 19.1788 2.04553 19.1297 1.88048C19.0807 1.71543 19.0562 1.5551 19.0562 1.39948C19.0562 1.21558 19.0888 1.04227 19.1542 0.879585C19.2219 0.714535 19.3188 0.570713 19.4449 0.448105C19.5734 0.323143 19.7297 0.224117 19.9142 0.15102C20.101 0.0779266 20.3146 0.0413818 20.5551 0.0413818C20.7816 0.0413818 20.9812 0.075573 21.154 0.143948C21.3267 0.209969 21.4726 0.298386 21.5917 0.409203C21.7108 0.517662 21.8042 0.643799 21.8719 0.787632C21.9396 0.931461 21.9816 1.07882 21.998 1.22972L21.58 1.31862C21.3996 1.36026 21.2668 1.28739 21.1817 1.09999C21.1034 0.919525 21.0115 0.782452 20.9059 0.688751C20.8038 0.595051 20.6675 0.548203 20.4973 0.548203C20.3782 0.548203 20.2743 0.570755 20.1858 0.615875C20.0973 0.660992 20.0224 0.719986 19.9611 0.792862C19.9032 0.865738 19.8589 0.95076 19.8283 1.04793C19.7977 1.1451 19.7823 1.24574 19.7823 1.34985C19.7823 1.44008 19.7887 1.52684 19.8028 1.61013C19.8198 1.68995 19.8471 1.77324 19.8845 1.86C19.9219 1.94329 19.9646 2.03841 20.0374 2.13001C20.1143 2.22161 20.1772 2.3094 20.2726 2.41699L21.7889 3.87152C21.8956 3.69024 21.9403 3.71359 22.0074 3.51386C22.0746 3.31102 22.0899 3.18916 22.1097 2.97711C22.1214 2.89104 22.1166 2.73786 22.1799 2.68869C22.2433 2.63951 22.3272 2.61953 22.4349 2.61493L22.7682 2.60067C22.7682 2.94258 22.6521 3.33451 22.561 3.63398C22.47 3.93345 22.3557 4.02149 22.1899 4.26906L23.3428 5.25098Z" id="path32948" fill="#E4DCD9" fill-rule="evenodd" stroke="none" />
    </g>
    <g id="g32956" transform="translate(72.04686 58.942)">
      <path d="M0 4.00944C0.119667 4.94001 0.97403 5.59526 1.9038 5.46957C3.07572 5.46957 3.81761 4.86951 3.81761 3.92398C3.81761 3.17118 3.3912 2.75933 2.3293 2.49294L1.79289 2.35111C1.08646 2.16928 0.93338 1.93926 0.93338 1.5374C0.93338 1.01918 1.38797 0.678238 2.06621 0.678238C2.61327 0.609531 3.1203 0.975609 3.22722 1.51649L3.87 1.51649C3.75728 0.640594 2.96757 0.0137482 2.08894 0.102734C1.00612 0.102734 0.277878 0.691875 0.277878 1.56195C0.277878 2.28929 0.550972 2.70932 1.47832 2.94389L2.13565 3.11481C2.84208 3.29665 3.1621 3.5694 3.1621 4.0058C3.1621 4.51403 2.65388 4.88679 1.96564 4.88679C1.2383 4.88679 0.726433 4.54585 0.648247 4.00944L0 4.00944ZM6.32873 1.99199C6.93605 1.99147 7.412 2.51379 7.35518 3.11845L5.24591 3.11845C5.22645 2.50566 5.71564 1.99719 6.32873 1.9929L6.32873 1.99199ZM7.337 4.35765C7.14532 4.71655 6.7539 4.92199 6.34965 4.87588C5.7005 4.87588 5.27773 4.39674 5.24591 3.64032L5.24591 3.61213L7.99797 3.61213L7.99797 3.37756C7.99797 2.18746 7.36974 1.45285 6.33601 1.45285C5.27853 1.45749 4.46666 2.39159 4.60949 3.43939C4.60949 4.64858 5.27409 5.41592 6.33691 5.41592C7.05688 5.48871 7.72939 5.0472 7.94888 4.35765L7.337 4.35765ZM8.95714 5.34865L9.5681 5.34865L9.5681 3.08299C9.50063 2.49098 9.97739 1.97843 10.5727 2.0029C11.1837 2.0029 11.4746 2.32929 11.4746 3.01844L11.4746 5.34865L12.0856 5.34865L12.0856 2.86934C12.196 2.07757 11.544 1.38755 10.7473 1.45285C10.26 1.40916 9.79836 1.67828 9.59628 2.12382L9.53992 2.12382L9.53992 1.52013L8.95714 1.52013L8.95714 5.34865ZM14.6185 5.41592C15.1201 5.4308 15.5897 5.1707 15.8432 4.73769L15.9005 4.73769L15.9005 5.34865L16.4833 5.34865L16.4833 0L15.8723 0L15.8723 2.12382L15.8186 2.12382C15.5779 1.69104 15.1133 1.43133 14.6185 1.45285C13.6457 1.45285 13.0093 2.23383 13.0093 3.43485C13.0093 4.63586 13.6376 5.41592 14.6185 5.41592L14.6185 5.41592ZM14.7604 2.0029C15.4532 2.0029 15.8859 2.55659 15.8859 3.43394C15.8859 4.31128 15.4559 4.86588 14.7604 4.86588C14.0649 4.86588 13.6421 4.32947 13.6421 3.43484C13.6421 2.54022 14.0648 2.0029 14.7604 2.0029L14.7604 2.0029Z" id="path32952" fill="#FCE237" fill-rule="evenodd" stroke="none" />
      <path d="M19.776 2.83787C19.6031 2.96912 19.4098 3.12457 19.3376 3.27572C19.2653 3.42408 19.2291 3.58239 19.2291 3.75064C19.2291 3.88756 19.2512 4.01164 19.2951 4.12288C19.3423 4.23413 19.4083 4.32965 19.4932 4.40955C19.5781 4.48946 19.6786 4.55213 19.795 4.59781C19.9144 4.64059 20.0465 4.66199 20.1911 4.66199C20.4018 4.66199 20.4854 4.66371 20.6677 4.61531C20.8501 4.56397 21.0826 4.38837 21.2398 4.29713L19.776 2.83787ZM23.3428 5.25098L22.6525 5.25098C22.5988 5.25098 22.5509 5.24861 22.5089 5.24397C22.4669 5.23698 22.4272 5.22629 22.3898 5.21214C22.3548 5.198 22.3209 5.17793 22.2883 5.15202C22.2556 5.12611 22.2206 5.09304 22.1832 5.05299L21.7931 4.69119C21.5713 4.8468 21.1166 5.09543 20.8528 5.18031C20.5913 5.26521 20.3123 5.30763 20.0158 5.30763C19.8127 5.30763 19.613 5.27227 19.4169 5.20153C19.2232 5.1308 19.0503 5.03062 18.8986 4.90091C18.7469 4.76887 18.6243 4.60972 18.5309 4.42342C18.4375 4.23708 18.3908 4.02842 18.3908 3.79738C18.3908 3.64177 18.4142 3.49437 18.4608 3.35529C18.5099 3.21621 18.5775 3.08765 18.664 2.96979C18.7526 2.84954 18.8566 2.74105 18.9756 2.64441C19.0947 2.54538 19.2267 2.45932 19.3714 2.38623C19.2593 2.2141 19.1788 2.04553 19.1297 1.88048C19.0807 1.71543 19.0562 1.5551 19.0562 1.39948C19.0562 1.21557 19.0888 1.04227 19.1542 0.879585C19.2219 0.714535 19.3188 0.570713 19.4449 0.448105C19.5734 0.323143 19.7297 0.224113 19.9142 0.151016C20.101 0.0779228 20.3146 0.0413818 20.5551 0.0413818C20.7816 0.0413818 20.9812 0.0755692 21.154 0.143944C21.3267 0.209969 21.4726 0.298386 21.5917 0.409199C21.7108 0.517662 21.8042 0.643799 21.8719 0.787628C21.9396 0.931458 21.9816 1.07882 21.998 1.22972L21.58 1.31862C21.3996 1.36026 21.2668 1.28738 21.1817 1.09999C21.1034 0.919525 21.0115 0.782448 20.9059 0.688751C20.8038 0.595051 20.6675 0.548199 20.4973 0.548199C20.3782 0.548199 20.2743 0.570751 20.1858 0.615871C20.0973 0.660992 20.0224 0.719982 19.9611 0.792862C19.9032 0.865738 19.8589 0.950756 19.8283 1.04793C19.7977 1.1451 19.7823 1.24574 19.7823 1.34985C19.7823 1.44008 19.7887 1.52684 19.8028 1.61013C19.8198 1.68995 19.8471 1.77323 19.8845 1.86C19.9219 1.94329 19.9646 2.03841 20.0374 2.13001C20.1143 2.22161 20.1772 2.3094 20.2726 2.41699L21.7889 3.87152C21.8956 3.69024 21.9403 3.71358 22.0074 3.51386C22.0746 3.31102 22.0899 3.18916 22.1097 2.97711C22.1214 2.89104 22.1166 2.73786 22.1799 2.68868C22.2433 2.63951 22.3272 2.61953 22.4349 2.61492L22.7682 2.60067C22.7682 2.94258 22.6521 3.33451 22.561 3.63398C22.47 3.93345 22.3557 4.02149 22.1899 4.26906L23.3428 5.25098Z" id="path32954" fill="#FCE237" fill-rule="evenodd" stroke="none" />
    </g>
    <g id="g32962" transform="translate(72.04686 84.942)">
      <path d="M0 4.00945C0.119667 4.94001 0.97403 5.59527 1.9038 5.46957C3.07572 5.46957 3.81761 4.86951 3.81761 3.92398C3.81761 3.17119 3.3912 2.75933 2.3293 2.49294L1.79289 2.35111C1.08646 2.16928 0.93338 1.93926 0.93338 1.53741C0.93338 1.01918 1.38797 0.678238 2.06621 0.678238C2.61327 0.609535 3.1203 0.975609 3.22722 1.51649L3.87 1.51649C3.75728 0.640602 2.96757 0.0137482 2.08894 0.102737C1.00612 0.102737 0.277878 0.691879 0.277878 1.56196C0.277878 2.28929 0.550972 2.70933 1.47832 2.94389L2.13565 3.11482C2.84208 3.29665 3.1621 3.5694 3.1621 4.00581C3.1621 4.51403 2.65388 4.88679 1.96564 4.88679C1.2383 4.88679 0.726433 4.54585 0.648247 4.00945L0 4.00945ZM6.32873 1.992C6.93605 1.99147 7.412 2.51379 7.35518 3.11845L5.24591 3.11845C5.22645 2.50567 5.71564 1.99719 6.32873 1.9929L6.32873 1.992ZM7.337 4.35765C7.14532 4.71655 6.7539 4.922 6.34965 4.87589C5.7005 4.87589 5.27773 4.39675 5.24591 3.64032L5.24591 3.61214L7.99797 3.61214L7.99797 3.37757C7.99797 2.18746 7.36974 1.45286 6.33601 1.45286C5.27853 1.45749 4.46666 2.3916 4.60949 3.43939C4.60949 4.64859 5.27409 5.41592 6.33691 5.41592C7.05688 5.48872 7.72939 5.0472 7.94888 4.35765L7.337 4.35765ZM8.95714 5.34865L9.5681 5.34865L9.5681 3.083C9.50063 2.49098 9.97739 1.97843 10.5727 2.00291C11.1837 2.00291 11.4746 2.32929 11.4746 3.01845L11.4746 5.34865L12.0856 5.34865L12.0856 2.86934C12.196 2.07758 11.544 1.38756 10.7473 1.45286C10.26 1.40917 9.79836 1.67828 9.59628 2.12383L9.53992 2.12383L9.53992 1.52013L8.95714 1.52013L8.95714 5.34865ZM14.6185 5.41593C15.1201 5.4308 15.5897 5.1707 15.8432 4.73769L15.9005 4.73769L15.9005 5.34865L16.4833 5.34865L16.4833 0L15.8723 0L15.8723 2.12383L15.8186 2.12383C15.5779 1.69105 15.1133 1.43134 14.6185 1.45286C13.6457 1.45286 13.0093 2.23383 13.0093 3.43484C13.0093 4.63586 13.6376 5.41593 14.6185 5.41593L14.6185 5.41593ZM14.7604 2.00291C15.4532 2.00291 15.8859 2.55659 15.8859 3.43394C15.8859 4.31129 15.4559 4.86588 14.7604 4.86588C14.0649 4.86588 13.6421 4.32947 13.6421 3.43484C13.6421 2.54022 14.0648 2.00291 14.7604 2.00291L14.7604 2.00291Z" id="path32958" fill="#E4DCD9" fill-rule="evenodd" stroke="none" />
      <path d="M19.776 2.83788C19.6031 2.96912 19.4098 3.12458 19.3376 3.27573C19.2653 3.42409 19.2291 3.58239 19.2291 3.75065C19.2291 3.88757 19.2512 4.01164 19.2951 4.12289C19.3423 4.23413 19.4083 4.32965 19.4932 4.40955C19.5781 4.48946 19.6786 4.55214 19.795 4.59781C19.9144 4.64059 20.0465 4.66199 20.1911 4.66199C20.4018 4.66199 20.4854 4.66372 20.6677 4.61531C20.8501 4.56397 21.0826 4.38837 21.2398 4.29713L19.776 2.83788ZM23.3428 5.25098L22.6525 5.25098C22.5988 5.25098 22.5509 5.24861 22.5089 5.24398C22.4669 5.23698 22.4272 5.2263 22.3898 5.21215C22.3548 5.198 22.3209 5.17793 22.2883 5.15202C22.2556 5.12611 22.2206 5.09305 22.1832 5.05299L21.7931 4.69119C21.5713 4.84681 21.1166 5.09544 20.8528 5.18031C20.5913 5.26521 20.3123 5.30764 20.0158 5.30764C19.8127 5.30764 19.613 5.27227 19.4169 5.20154C19.2232 5.13081 19.0503 5.03062 18.8986 4.90092C18.7469 4.76888 18.6243 4.60973 18.5309 4.42342C18.4375 4.23709 18.3908 4.02842 18.3908 3.79739C18.3908 3.64177 18.4142 3.49438 18.4608 3.35529C18.5099 3.21622 18.5775 3.08765 18.664 2.96979C18.7526 2.84954 18.8566 2.74105 18.9756 2.64441C19.0947 2.54539 19.2267 2.45933 19.3714 2.38623C19.2593 2.21411 19.1788 2.04553 19.1297 1.88048C19.0807 1.71543 19.0562 1.5551 19.0562 1.39948C19.0562 1.21558 19.0888 1.04227 19.1542 0.879585C19.2219 0.714539 19.3188 0.570717 19.4449 0.448105C19.5734 0.323143 19.7297 0.224121 19.9142 0.151024C20.101 0.0779266 20.3146 0.0413818 20.5551 0.0413818C20.7816 0.0413818 20.9812 0.0755768 21.154 0.143951C21.3267 0.209969 21.4726 0.298386 21.5917 0.409203C21.7108 0.517662 21.8042 0.643799 21.8719 0.787636C21.9396 0.931465 21.9816 1.07882 21.998 1.22972L21.58 1.31863C21.3996 1.36027 21.2668 1.28739 21.1817 1.09999C21.1034 0.919525 21.0115 0.782456 20.9059 0.688751C20.8038 0.595055 20.6675 0.548203 20.4973 0.548203C20.3782 0.548203 20.2743 0.570755 20.1858 0.615875C20.0973 0.660995 20.0224 0.719986 19.9611 0.792862C19.9032 0.865738 19.8589 0.95076 19.8283 1.04794C19.7977 1.1451 19.7823 1.24574 19.7823 1.34985C19.7823 1.44009 19.7887 1.52685 19.8028 1.61014C19.8198 1.68995 19.8471 1.77324 19.8845 1.86C19.9219 1.94329 19.9646 2.03841 20.0374 2.13001C20.1143 2.22162 20.1772 2.3094 20.2726 2.41699L21.7889 3.87152C21.8956 3.69024 21.9403 3.71358 22.0074 3.51386C22.0746 3.31103 22.0899 3.18916 22.1097 2.97711C22.1214 2.89105 22.1166 2.73786 22.1799 2.68869C22.2433 2.63951 22.3272 2.61954 22.4349 2.61493L22.7682 2.60067C22.7682 2.94258 22.6521 3.33451 22.561 3.63398C22.47 3.93346 22.3557 4.02149 22.1899 4.26907L23.3428 5.25098Z" id="path32960" fill="#E4DCD9" fill-rule="evenodd" stroke="none" />
    </g>
    <g id="text5882" transform="translate(72.22714 40.340305)">
      <path d="M4.6278 3.46263C4.6278 4.11279 4.42326 4.63632 4.01417 5.03323C3.60508 5.42771 3.06329 5.62495 2.38878 5.62495C1.6607 5.62495 1.07995 5.37536 0.646507 4.87617C0.215508 4.37698 0 3.70613 0 2.86361C0 2.03082 0.217934 1.36362 0.653809 0.862C1.08968 0.357944 1.66801 0.105919 2.38878 0.105919C2.97319 0.105919 3.46263 0.258106 3.85711 0.562489C4.25402 0.866867 4.49996 1.27961 4.59492 1.80071L3.9265 1.80071C3.81206 1.44519 3.62456 1.1749 3.36401 0.989841C3.10345 0.804775 2.77838 0.712242 2.38877 0.712242C1.86767 0.712242 1.45128 0.907047 1.1396 1.29665C0.830345 1.68626 0.67572 2.20858 0.67572 2.86361C0.67572 3.52837 0.829125 4.05434 1.13595 4.44151C1.4452 4.82625 1.86402 5.01862 2.39243 5.01862C2.86482 5.01862 3.24591 4.88104 3.53568 4.60588C3.82788 4.33072 3.97398 3.97033 3.97398 3.52472L3.97398 3.39688L2.49105 3.39688L2.49105 2.81977L4.6278 2.81977L4.6278 3.46263Z" id="path5905" fill="#E4DCD9" fill-rule="evenodd" stroke="none" />
      <path d="M5.74549 5.50076L5.74549 0L6.74549 0L6.74549 5.50076L5.74549 5.50076Z" id="path5907" fill="#E4DCD9" fill-rule="evenodd" stroke="none" />
      <path d="M10.5377 5.02593C10.2138 5.38875 9.77184 5.57016 9.21178 5.57016C8.65172 5.57016 8.20854 5.38875 7.88224 5.02593C7.55838 4.66067 7.39645 4.1627 7.39645 3.53203C7.39645 2.89892 7.55838 2.40095 7.88224 2.03813C8.20611 1.6753 8.64928 1.49389 9.21178 1.49389C9.77427 1.49389 10.2175 1.6753 10.5413 2.03813C10.8652 2.40095 11.0271 2.89891 11.0271 3.53203C11.0271 4.1627 10.864 4.66067 10.5377 5.02593L10.5377 5.02593ZM8.34977 4.62049C8.55188 4.87617 8.83922 5.00401 9.21178 5.00401C9.58434 5.00401 9.87167 4.87617 10.0738 4.62049C10.2759 4.36238 10.3769 3.99955 10.3769 3.53203C10.3769 3.0645 10.2759 2.7029 10.0738 2.44722C9.87167 2.1891 9.58434 2.06004 9.21178 2.06004C8.83922 2.06004 8.55188 2.1891 8.34977 2.44722C8.14766 2.7029 8.04661 3.0645 8.04661 3.53203C8.04661 3.99955 8.14766 4.36238 8.34977 4.62049L8.34977 4.62049Z" id="path5909" fill="#E4DCD9" fill-rule="evenodd" stroke="none" />
      <path d="M13.9711 5.57016C13.6983 5.57016 13.45 5.50928 13.2259 5.38753C13.0044 5.26334 12.8315 5.09167 12.7073 4.87252L12.6488 4.87252L12.6488 5.50076L12.0498 5.50076L12.0498 0L12.6781 0L12.6781 2.18423L12.7365 2.18423C12.8436 1.97238 13.008 1.80436 13.2296 1.68018C13.4536 1.55599 13.7008 1.4939 13.9711 1.4939C14.4727 1.4939 14.8732 1.67896 15.1728 2.04909C15.4723 2.41922 15.622 2.91353 15.622 3.53203C15.622 4.1481 15.471 4.64241 15.1691 5.01497C14.8696 5.3851 14.4702 5.57016 13.9711 5.57016L13.9711 5.57016ZM13.825 2.06004C13.467 2.06004 13.1833 2.19154 12.9739 2.45452C12.7669 2.71751 12.6635 3.07668 12.6635 3.53203C12.6635 3.98738 12.7669 4.34655 12.9739 4.60954C13.1833 4.87252 13.467 5.00401 13.825 5.00401C14.1853 5.00401 14.4666 4.87374 14.6687 4.61319C14.8708 4.35264 14.9719 3.99225 14.9719 3.53203C14.9719 3.0718 14.8708 2.71142 14.6687 2.45087C14.4666 2.19032 14.1853 2.06005 13.825 2.06005L13.825 2.06004Z" id="path5911" fill="#E4DCD9" fill-rule="evenodd" stroke="none" />
      <path d="M17.8209 5.01862C18.1447 5.01862 18.4126 4.92487 18.6244 4.73737C18.8387 4.54988 18.9459 4.3149 18.9459 4.03243L18.9459 3.67083L17.8866 3.74022C17.5895 3.7597 17.3716 3.8218 17.2328 3.9265C17.094 4.03121 17.0246 4.1834 17.0246 4.38308C17.0246 4.58031 17.0989 4.73616 17.2474 4.8506C17.396 4.96262 17.5871 5.01862 17.8209 5.01862L17.8209 5.01862ZM17.704 5.57016C17.3168 5.57016 16.9978 5.46423 16.747 5.25238C16.4987 5.0381 16.3745 4.7532 16.3745 4.39768C16.3745 4.04703 16.4987 3.77187 16.747 3.5722C16.9954 3.37252 17.3497 3.25929 17.8099 3.23251L18.9459 3.16311L18.9459 2.80516C18.9459 2.56166 18.8704 2.37538 18.7194 2.24632C18.5684 2.11726 18.3468 2.05273 18.0546 2.05273C17.8184 2.05273 17.6224 2.09534 17.4666 2.18057C17.3107 2.2658 17.2109 2.38633 17.1671 2.54218L16.5315 2.54218C16.5729 2.22806 16.7348 1.97481 17.0173 1.78244C17.3022 1.59008 17.6553 1.49389 18.0765 1.49389C18.5538 1.49389 18.9227 1.60955 19.1833 1.84088C19.4438 2.07221 19.5741 2.39364 19.5741 2.80516L19.5741 5.50075L18.9751 5.50075L18.9751 4.91999L18.9166 4.91999C18.79 5.12941 18.622 5.29012 18.4126 5.40213C18.2032 5.51415 17.967 5.57015 17.704 5.57015L17.704 5.57016Z" id="path5913" fill="#E4DCD9" fill-rule="evenodd" stroke="none" />
      <path d="M20.7721 5.50076L20.7721 0L21.7721 0L21.7721 5.50076L20.7721 5.50076Z" id="path5915" fill="#E4DCD9" fill-rule="evenodd" stroke="none" />
    </g>
    <g id="g5956" transform="translate(72.22714 14.34)">
      <path d="M4.6278 3.46263C4.6278 4.11279 4.42326 4.63632 4.01417 5.03323C3.60508 5.42771 3.06329 5.62495 2.38878 5.62495C1.6607 5.62495 1.07995 5.37536 0.646507 4.87617C0.215508 4.37698 0 3.70613 0 2.86361C0 2.03082 0.217934 1.36362 0.653809 0.862C1.08968 0.357944 1.66801 0.105919 2.38878 0.105919C2.97319 0.105919 3.46263 0.258106 3.85711 0.562489C4.25402 0.866867 4.49996 1.27961 4.59492 1.80071L3.9265 1.80071C3.81206 1.44519 3.62456 1.1749 3.36401 0.989841C3.10345 0.804775 2.77838 0.712242 2.38877 0.712242C1.86767 0.712242 1.45128 0.907047 1.1396 1.29665C0.830345 1.68626 0.67572 2.20858 0.67572 2.86361C0.67572 3.52837 0.829125 4.05434 1.13595 4.44151C1.4452 4.82625 1.86402 5.01862 2.39243 5.01862C2.86482 5.01862 3.24591 4.88104 3.53568 4.60588C3.82788 4.33072 3.97398 3.97033 3.97398 3.52472L3.97398 3.39688L2.49105 3.39688L2.49105 2.81977L4.6278 2.81977L4.6278 3.46263Z" id="path5944" fill="#E4DCD9" fill-rule="evenodd" stroke="none" />
      <path d="M5.74549 5.50076L5.74549 0L6.74549 0L6.74549 5.50076L5.74549 5.50076Z" id="path5946" fill="#E4DCD9" fill-rule="evenodd" stroke="none" />
      <path d="M10.5377 5.02593C10.2138 5.38875 9.77184 5.57016 9.21178 5.57016C8.65172 5.57016 8.20854 5.38875 7.88224 5.02593C7.55838 4.66067 7.39645 4.1627 7.39645 3.53203C7.39645 2.89892 7.55838 2.40095 7.88224 2.03813C8.20611 1.6753 8.64928 1.49389 9.21178 1.49389C9.77427 1.49389 10.2175 1.6753 10.5413 2.03813C10.8652 2.40095 11.0271 2.89891 11.0271 3.53203C11.0271 4.1627 10.864 4.66067 10.5377 5.02593L10.5377 5.02593ZM8.34977 4.62049C8.55188 4.87617 8.83922 5.00401 9.21178 5.00401C9.58434 5.00401 9.87167 4.87617 10.0738 4.62049C10.2759 4.36238 10.3769 3.99955 10.3769 3.53203C10.3769 3.0645 10.2759 2.7029 10.0738 2.44722C9.87167 2.1891 9.58434 2.06004 9.21178 2.06004C8.83922 2.06004 8.55188 2.1891 8.34977 2.44722C8.14766 2.7029 8.04661 3.0645 8.04661 3.53203C8.04661 3.99955 8.14766 4.36238 8.34977 4.62049L8.34977 4.62049Z" id="path5948" fill="#E4DCD9" fill-rule="evenodd" stroke="none" />
      <path d="M13.9711 5.57016C13.6983 5.57016 13.45 5.50928 13.2259 5.38753C13.0044 5.26334 12.8315 5.09167 12.7073 4.87252L12.6488 4.87252L12.6488 5.50076L12.0498 5.50076L12.0498 0L12.6781 0L12.6781 2.18423L12.7365 2.18423C12.8436 1.97238 13.008 1.80436 13.2296 1.68018C13.4536 1.55599 13.7008 1.4939 13.9711 1.4939C14.4727 1.4939 14.8732 1.67896 15.1728 2.04909C15.4723 2.41922 15.622 2.91353 15.622 3.53203C15.622 4.1481 15.471 4.64241 15.1691 5.01497C14.8696 5.3851 14.4702 5.57016 13.9711 5.57016L13.9711 5.57016ZM13.825 2.06004C13.467 2.06004 13.1833 2.19154 12.9739 2.45452C12.7669 2.71751 12.6635 3.07668 12.6635 3.53203C12.6635 3.98738 12.7669 4.34655 12.9739 4.60954C13.1833 4.87252 13.467 5.00401 13.825 5.00401C14.1853 5.00401 14.4666 4.87374 14.6687 4.61319C14.8708 4.35264 14.9719 3.99225 14.9719 3.53203C14.9719 3.0718 14.8708 2.71142 14.6687 2.45087C14.4666 2.19032 14.1853 2.06005 13.825 2.06005L13.825 2.06004Z" id="path5950" fill="#E4DCD9" fill-rule="evenodd" stroke="none" />
      <path d="M17.8209 5.01862C18.1447 5.01862 18.4126 4.92487 18.6244 4.73737C18.8387 4.54988 18.9459 4.3149 18.9459 4.03243L18.9459 3.67083L17.8866 3.74022C17.5895 3.7597 17.3716 3.8218 17.2328 3.9265C17.094 4.03121 17.0246 4.1834 17.0246 4.38308C17.0246 4.58031 17.0989 4.73616 17.2474 4.8506C17.396 4.96262 17.5871 5.01862 17.8209 5.01862L17.8209 5.01862ZM17.704 5.57016C17.3168 5.57016 16.9978 5.46423 16.747 5.25238C16.4987 5.0381 16.3745 4.7532 16.3745 4.39768C16.3745 4.04703 16.4987 3.77187 16.747 3.5722C16.9954 3.37252 17.3497 3.25929 17.8099 3.23251L18.9459 3.16311L18.9459 2.80516C18.9459 2.56166 18.8704 2.37538 18.7194 2.24632C18.5684 2.11726 18.3468 2.05273 18.0546 2.05273C17.8184 2.05273 17.6224 2.09534 17.4666 2.18057C17.3107 2.2658 17.2109 2.38633 17.1671 2.54218L16.5315 2.54218C16.5729 2.22806 16.7348 1.97481 17.0173 1.78244C17.3022 1.59008 17.6553 1.49389 18.0765 1.49389C18.5538 1.49389 18.9227 1.60955 19.1833 1.84088C19.4438 2.07221 19.5741 2.39364 19.5741 2.80516L19.5741 5.50075L18.9751 5.50075L18.9751 4.91999L18.9166 4.91999C18.79 5.12941 18.622 5.29012 18.4126 5.40213C18.2032 5.51415 17.967 5.57015 17.704 5.57015L17.704 5.57016Z" id="path5952" fill="#E4DCD9" fill-rule="evenodd" stroke="none" />
      <path d="M20.7721 5.50076L20.7721 0L21.7721 0L21.7721 5.50076L20.7721 5.50076Z" id="path5954" fill="#E4DCD9" fill-rule="evenodd" stroke="none" />
    </g>
    <g id="g5970" transform="translate(72.22714 66.340004)">
      <path d="M4.6278 3.46262C4.6278 4.11279 4.42326 4.63631 4.01417 5.03323C3.60508 5.4277 3.06329 5.62495 2.38878 5.62495C1.6607 5.62495 1.07995 5.37535 0.646507 4.87617C0.215508 4.37698 0 3.70612 0 2.8636C0 2.03082 0.217934 1.36362 0.653809 0.862C1.08968 0.357941 1.66801 0.105919 2.38878 0.105919C2.97319 0.105919 3.46263 0.258102 3.85711 0.562485C4.25402 0.866867 4.49996 1.2796 4.59492 1.80071L3.9265 1.80071C3.81206 1.44519 3.62456 1.1749 3.36401 0.989838C3.10345 0.804771 2.77838 0.712242 2.38877 0.712242C1.86767 0.712242 1.45128 0.907043 1.1396 1.29665C0.830345 1.68626 0.67572 2.20857 0.67572 2.8636C0.67572 3.52837 0.829125 4.05434 1.13595 4.44151C1.4452 4.82625 1.86402 5.01862 2.39243 5.01862C2.86482 5.01862 3.24591 4.88104 3.53568 4.60588C3.82788 4.33072 3.97398 3.97033 3.97398 3.52472L3.97398 3.39688L2.49105 3.39688L2.49105 2.81977L4.6278 2.81977L4.6278 3.46262Z" id="path5958" fill="#FCE237" fill-rule="evenodd" stroke="none" />
      <path d="M5.74549 5.50076L5.74549 0L6.74549 0L6.74549 5.50076L5.74549 5.50076Z" id="path5960" fill="#FCE237" fill-rule="evenodd" stroke="none" />
      <path d="M10.5377 5.02592C10.2138 5.38875 9.77184 5.57016 9.21178 5.57016C8.65172 5.57016 8.20854 5.38875 7.88224 5.02592C7.55838 4.66067 7.39645 4.1627 7.39645 3.53203C7.39645 2.89892 7.55838 2.40095 7.88224 2.03812C8.20611 1.6753 8.64928 1.49389 9.21178 1.49389C9.77427 1.49389 10.2175 1.6753 10.5413 2.03812C10.8652 2.40095 11.0271 2.89891 11.0271 3.53203C11.0271 4.1627 10.864 4.66067 10.5377 5.02592L10.5377 5.02592ZM8.34977 4.62049C8.55188 4.87617 8.83922 5.00401 9.21178 5.00401C9.58434 5.00401 9.87167 4.87617 10.0738 4.62049C10.2759 4.36237 10.3769 3.99955 10.3769 3.53203C10.3769 3.0645 10.2759 2.7029 10.0738 2.44721C9.87167 2.1891 9.58434 2.06004 9.21178 2.06004C8.83922 2.06004 8.55188 2.1891 8.34977 2.44721C8.14766 2.7029 8.04661 3.0645 8.04661 3.53203C8.04661 3.99955 8.14766 4.36237 8.34977 4.62049L8.34977 4.62049Z" id="path5962" fill="#FCE237" fill-rule="evenodd" stroke="none" />
      <path d="M13.9711 5.57015C13.6983 5.57015 13.45 5.50928 13.2259 5.38753C13.0044 5.26334 12.8315 5.09167 12.7073 4.87251L12.6488 4.87251L12.6488 5.50076L12.0498 5.50076L12.0498 0L12.6781 0L12.6781 2.18423L12.7365 2.18423C12.8436 1.97238 13.008 1.80436 13.2296 1.68018C13.4536 1.55599 13.7008 1.4939 13.9711 1.4939C14.4727 1.4939 14.8732 1.67896 15.1728 2.04909C15.4723 2.41921 15.622 2.91353 15.622 3.53203C15.622 4.14809 15.471 4.64241 15.1691 5.01497C14.8696 5.3851 14.4702 5.57016 13.9711 5.57016L13.9711 5.57015ZM13.825 2.06004C13.467 2.06004 13.1833 2.19154 12.9739 2.45452C12.7669 2.71751 12.6635 3.07668 12.6635 3.53203C12.6635 3.98738 12.7669 4.34655 12.9739 4.60954C13.1833 4.87252 13.467 5.00401 13.825 5.00401C14.1853 5.00401 14.4666 4.87373 14.6687 4.61319C14.8708 4.35264 14.9719 3.99225 14.9719 3.53203C14.9719 3.0718 14.8708 2.71142 14.6687 2.45087C14.4666 2.19032 14.1853 2.06004 13.825 2.06004L13.825 2.06004Z" id="path5964" fill="#FCE237" fill-rule="evenodd" stroke="none" />
      <path d="M17.8209 5.01862C18.1447 5.01862 18.4126 4.92487 18.6244 4.73737C18.8387 4.54987 18.9459 4.3149 18.9459 4.03243L18.9459 3.67082L17.8866 3.74022C17.5895 3.7597 17.3716 3.82179 17.2328 3.9265C17.094 4.0312 17.0246 4.1834 17.0246 4.38307C17.0246 4.58031 17.0989 4.73615 17.2474 4.8506C17.396 4.96262 17.5871 5.01862 17.8209 5.01862L17.8209 5.01862ZM17.704 5.57015C17.3168 5.57015 16.9978 5.46423 16.747 5.25238C16.4987 5.0381 16.3745 4.7532 16.3745 4.39767C16.3745 4.04703 16.4987 3.77187 16.747 3.5722C16.9954 3.37252 17.3497 3.25929 17.8099 3.23251L18.9459 3.16311L18.9459 2.80516C18.9459 2.56165 18.8704 2.37537 18.7194 2.24632C18.5684 2.11726 18.3468 2.05273 18.0546 2.05273C17.8184 2.05273 17.6224 2.09534 17.4666 2.18057C17.3107 2.2658 17.2109 2.38633 17.1671 2.54218L16.5315 2.54218C16.5729 2.22806 16.7348 1.97481 17.0173 1.78244C17.3022 1.59007 17.6553 1.49389 18.0765 1.49389C18.5538 1.49389 18.9227 1.60955 19.1833 1.84088C19.4438 2.07221 19.5741 2.39364 19.5741 2.80516L19.5741 5.50075L18.9751 5.50075L18.9751 4.91999L18.9166 4.91999C18.79 5.12941 18.622 5.29012 18.4126 5.40213C18.2032 5.51414 17.967 5.57015 17.704 5.57015L17.704 5.57015Z" id="path5966" fill="#FCE237" fill-rule="evenodd" stroke="none" />
      <path d="M20.7721 5.50076L20.7721 0L21.7721 0L21.7721 5.50076L20.7721 5.50076Z" id="path5968" fill="#FCE237" fill-rule="evenodd" stroke="none" />
    </g>
    <g id="g5998" transform="translate(72.22714 92.340004)">
      <path d="M4.6278 3.46262C4.6278 4.11279 4.42326 4.63631 4.01417 5.03323C3.60508 5.42771 3.06329 5.62495 2.38878 5.62495C1.6607 5.62495 1.07995 5.37536 0.646507 4.87617C0.215508 4.37698 0 3.70612 0 2.86361C0 2.03082 0.217934 1.36362 0.653809 0.862C1.08968 0.357948 1.66801 0.105919 2.38878 0.105919C2.97319 0.105919 3.46263 0.25811 3.85711 0.562492C4.25402 0.866867 4.49996 1.27961 4.59492 1.80071L3.9265 1.80071C3.81206 1.44519 3.62456 1.1749 3.36401 0.989845C3.10345 0.804771 2.77838 0.712242 2.38877 0.712242C1.86767 0.712242 1.45128 0.907051 1.1396 1.29665C0.830345 1.68626 0.67572 2.20858 0.67572 2.86361C0.67572 3.52837 0.829125 4.05434 1.13595 4.44151C1.4452 4.82626 1.86402 5.01862 2.39243 5.01862C2.86482 5.01862 3.24591 4.88104 3.53568 4.60588C3.82788 4.33072 3.97398 3.97033 3.97398 3.52473L3.97398 3.39688L2.49105 3.39688L2.49105 2.81977L4.6278 2.81977L4.6278 3.46262Z" id="path5986" fill="#E4DCD9" fill-rule="evenodd" stroke="none" />
      <path d="M5.74549 5.50076L5.74549 0L6.74549 0L6.74549 5.50076L5.74549 5.50076Z" id="path5988" fill="#E4DCD9" fill-rule="evenodd" stroke="none" />
      <path d="M10.5377 5.02593C10.2138 5.38876 9.77184 5.57016 9.21178 5.57016C8.65172 5.57016 8.20854 5.38876 7.88224 5.02593C7.55838 4.66067 7.39645 4.1627 7.39645 3.53203C7.39645 2.89892 7.55838 2.40095 7.88224 2.03812C8.20611 1.6753 8.64928 1.49389 9.21178 1.49389C9.77427 1.49389 10.2175 1.6753 10.5413 2.03812C10.8652 2.40095 11.0271 2.89892 11.0271 3.53203C11.0271 4.1627 10.864 4.66067 10.5377 5.02593L10.5377 5.02593ZM8.34977 4.62049C8.55188 4.87617 8.83922 5.00401 9.21178 5.00401C9.58434 5.00401 9.87167 4.87617 10.0738 4.62049C10.2759 4.36237 10.3769 3.99955 10.3769 3.53203C10.3769 3.06451 10.2759 2.7029 10.0738 2.44721C9.87167 2.1891 9.58434 2.06004 9.21178 2.06004C8.83922 2.06004 8.55188 2.1891 8.34977 2.44721C8.14766 2.7029 8.04661 3.06451 8.04661 3.53203C8.04661 3.99955 8.14766 4.36237 8.34977 4.62049L8.34977 4.62049Z" id="path5990" fill="#E4DCD9" fill-rule="evenodd" stroke="none" />
      <path d="M13.9711 5.57015C13.6983 5.57015 13.45 5.50929 13.2259 5.38753C13.0044 5.26334 12.8315 5.09167 12.7073 4.87252L12.6488 4.87252L12.6488 5.50076L12.0498 5.50076L12.0498 0L12.6781 0L12.6781 2.18423L12.7365 2.18423C12.8436 1.97238 13.008 1.80436 13.2296 1.68018C13.4536 1.55599 13.7008 1.4939 13.9711 1.4939C14.4727 1.4939 14.8732 1.67896 15.1728 2.04909C15.4723 2.41921 15.622 2.91353 15.622 3.53204C15.622 4.14809 15.471 4.64241 15.1691 5.01498C14.8696 5.3851 14.4702 5.57017 13.9711 5.57017L13.9711 5.57015ZM13.825 2.06004C13.467 2.06004 13.1833 2.19154 12.9739 2.45452C12.7669 2.71751 12.6635 3.07668 12.6635 3.53203C12.6635 3.98738 12.7669 4.34655 12.9739 4.60954C13.1833 4.87252 13.467 5.00401 13.825 5.00401C14.1853 5.00401 14.4666 4.87374 14.6687 4.61319C14.8708 4.35264 14.9719 3.99226 14.9719 3.53203C14.9719 3.0718 14.8708 2.71142 14.6687 2.45087C14.4666 2.19032 14.1853 2.06005 13.825 2.06005L13.825 2.06004Z" id="path5992" fill="#E4DCD9" fill-rule="evenodd" stroke="none" />
      <path d="M17.8209 5.01862C18.1447 5.01862 18.4126 4.92487 18.6244 4.73737C18.8387 4.54987 18.9459 4.3149 18.9459 4.03243L18.9459 3.67083L17.8866 3.74023C17.5895 3.7597 17.3716 3.8218 17.2328 3.92651C17.094 4.03121 17.0246 4.1834 17.0246 4.38308C17.0246 4.58031 17.0989 4.73615 17.2474 4.8506C17.396 4.96262 17.5871 5.01862 17.8209 5.01862L17.8209 5.01862ZM17.704 5.57015C17.3168 5.57015 16.9978 5.46423 16.747 5.25239C16.4987 5.0381 16.3745 4.7532 16.3745 4.39768C16.3745 4.04704 16.4987 3.77187 16.747 3.5722C16.9954 3.37252 17.3497 3.25929 17.8099 3.23251L18.9459 3.16311L18.9459 2.80516C18.9459 2.56165 18.8704 2.37537 18.7194 2.24632C18.5684 2.11726 18.3468 2.05273 18.0546 2.05273C17.8184 2.05273 17.6224 2.09534 17.4666 2.18057C17.3107 2.2658 17.2109 2.38633 17.1671 2.54218L16.5315 2.54218C16.5729 2.22806 16.7348 1.97482 17.0173 1.78245C17.3022 1.59008 17.6553 1.49389 18.0765 1.49389C18.5538 1.49389 18.9227 1.60955 19.1833 1.84088C19.4438 2.07221 19.5741 2.39364 19.5741 2.80516L19.5741 5.50076L18.9751 5.50076L18.9751 4.91999L18.9166 4.91999C18.79 5.12941 18.622 5.29012 18.4126 5.40214C18.2032 5.51415 17.967 5.57015 17.704 5.57015L17.704 5.57015Z" id="path5994" fill="#E4DCD9" fill-rule="evenodd" stroke="none" />
      <path d="M20.7721 5.50076L20.7721 0L21.7721 0L21.7721 5.50076L20.7721 5.50076Z" id="path5996" fill="#E4DCD9" fill-rule="evenodd" stroke="none" />
    </g>
  </g>
</svg>