<?xml version="1.0" encoding="utf-8"?>
<svg width="49px" height="18px" viewBox="0 0 49 18" version="1.1" xmlns:xlink="http://www.w3.org/1999/xlink" xmlns="http://www.w3.org/2000/svg">
  <defs>
    <linearGradient x1="10.836073" y1="13.985309" x2="11.046721" y2="0.22037914" id="gradient_1">
      <stop offset="0" stop-color="#FFFFFF" stop-opacity="0.19215687" />
      <stop offset="1" stop-color="#000000" stop-opacity="0" />
    </linearGradient>
    <linearGradient x1="0.24374448" y1="-0.025118485" x2="0.24264441" y2="0.9988693" id="gradient_2">
      <stop offset="0" stop-color="#372E2C" />
      <stop offset="0.176" stop-color="#5B4A45" />
      <stop offset="1" stop-color="#5B4A44" />
    </linearGradient>
    <rect width="49" height="18" id="artboard_1" />
    <clipPath id="clip_1">
      <use xlink:href="#artboard_1" clip-rule="evenodd" />
    </clipPath>
  </defs>
  <g id="bmp00119" clip-path="url(#clip_1)">
    <path d="M0.72702 5.61311L0.72702 3.80655C0.72702 3.30768 0.865395 2.88188 1.14214 2.52913C1.41889 2.17638 1.75296 2 2.14433 2L47.1102 2C47.5006 2 47.8355 2.17638 48.1119 2.52913C48.3883 2.88188 48.527 3.30769 48.527 3.80655L48.527 14.7476C48.4622 15.8255 47.9435 16.2337 47.1102 16.5542L2.14433 16.5542C1.08176 16.3586 0.90429 15.5867 0.72702 14.7476L0.72702 5.61311L0.72702 5.61311Z" id="path25164" fill="url(#gradient_1)" fill-rule="evenodd" stroke="none" />
    <path d="M1 6.56091L1 4.28046C1 3.65073 1.18397 3.11322 1.55191 2.66793C1.91985 2.22264 2.36399 2 2.88434 2L46.1157 2C46.6356 2 47.0801 2.22264 47.448 2.66793C47.816 3.11322 48 3.65073 48 4.28046L48 13.7195C48 14.3492 47.816 14.8868 47.448 15.3321C47.0801 15.7774 46.6356 16 46.1157 16L2.88434 16C2.36399 16 1.91985 15.7774 1.55191 15.3321C1.18397 14.8868 1 14.3492 1 13.7195L1 6.56091L1 6.56091Z" id="path25160" fill="url(#gradient_2)" fill-rule="evenodd" stroke="none" />
    <path d="M1.50534 5.82549L1.50534 4.1654C1.50534 3.70699 1.64163 3.3157 1.9142 2.99155C2.18678 2.6674 2.51581 2.50533 2.90128 2.50533L46.0992 2.50533C46.4837 2.50533 46.8136 2.6674 47.0858 2.99155C47.358 3.3157 47.4946 3.70699 47.4946 4.1654L47.4946 13.8345C47.4946 14.293 47.358 14.6843 47.0858 15.0084C46.8136 15.3325 46.4837 15.4946 46.0992 15.4946L2.90128 15.4946C2.51581 15.4946 2.18678 15.3325 1.9142 15.0084C1.64163 14.6843 1.50534 14.293 1.50534 13.8345L1.50534 5.82549L1.50534 5.82549Z" id="path25158" fill="none" fill-rule="evenodd" stroke="#0C0706" stroke-width="1.01066" />
    <path d="M42.5 11.5L40 7.5L45 7.5L42.5 11.5L42.5 11.5Z" id="Shape" fill="#DBD7D7" fill-rule="evenodd" stroke="none" />
  </g>
</svg>