<?xml version="1.0" encoding="UTF-8" standalone="no"?>
<svg
   xmlns:dc="http://purl.org/dc/elements/1.1/"
   xmlns:cc="http://creativecommons.org/ns#"
   xmlns:rdf="http://www.w3.org/1999/02/22-rdf-syntax-ns#"
   xmlns:svg="http://www.w3.org/2000/svg"
   xmlns="http://www.w3.org/2000/svg"
   xmlns:xlink="http://www.w3.org/1999/xlink"
   xmlns:sodipodi="http://sodipodi.sourceforge.net/DTD/sodipodi-0.dtd"
   xmlns:inkscape="http://www.inkscape.org/namespaces/inkscape"
   width="49"
   height="28"
   viewBox="0 0 49 28"
   fill="none"
   version="1.1"
   id="svg40531"
   sodipodi:docname="bmp00304.svg"
   inkscape:version="1.0.1 (3bc2e813f5, 2020-09-07)">
  <metadata
     id="metadata40537">
    <rdf:RDF>
      <cc:Work
         rdf:about="">
        <dc:format>image/svg+xml</dc:format>
        <dc:type
           rdf:resource="http://purl.org/dc/dcmitype/StillImage" />
        <dc:title></dc:title>
      </cc:Work>
    </rdf:RDF>
  </metadata>
  <defs
     id="defs40535">
    <linearGradient
       inkscape:collect="always"
       xlink:href="#linearGradient10622"
       id="linearGradient10616"
       x1="8.953125"
       y1="0.78125"
       x2="8.921875"
       y2="9.8125"
       gradientUnits="userSpaceOnUse"
       gradientTransform="translate(0,3.15e-4)" />
    <linearGradient
       x1="0.5"
       y1="0"
       x2="0.5"
       y2="1"
       id="linearGradient10622">
      <stop
         offset="0"
         stop-color="#787477"
         id="stop10618" />
      <stop
         offset="1"
         stop-color="#716B6C"
         id="stop10620"
         style="stop-color:#696568;stop-opacity:1" />
    </linearGradient>
    <linearGradient
       id="b"
       x1="0.5"
       x2="0.5"
       y2="1"
       gradientUnits="objectBoundingBox">
      <stop
         offset="0"
         stop-color="#413f40"
         id="stop22274" />
      <stop
         offset="1"
         stop-color="#464141"
         id="stop22276" />
    </linearGradient>
    <linearGradient
       x1="0.5"
       y1="0"
       x2="0.5"
       y2="1"
       id="linearGradient10622-4">
      <stop
         offset="0"
         stop-color="#787477"
         id="stop10618-9"
         style="stop-color:#746f71;stop-opacity:1" />
      <stop
         offset="1"
         stop-color="#716B6C"
         id="stop10620-1"
         style="stop-color:#696466;stop-opacity:1" />
    </linearGradient>
  </defs>
  <sodipodi:namedview
     pagecolor="#353535"
     bordercolor="#ff0000"
     borderopacity="1"
     objecttolerance="10"
     gridtolerance="10"
     guidetolerance="10"
     inkscape:pageopacity="0"
     inkscape:pageshadow="2"
     inkscape:window-width="3753"
     inkscape:window-height="2137"
     id="namedview40533"
     showgrid="false"
     inkscape:showpageshadow="false"
     inkscape:zoom="45.254834"
     inkscape:cx="18.677076"
     inkscape:cy="15.248357"
     inkscape:window-x="-8"
     inkscape:window-y="-8"
     inkscape:window-maximized="1"
     inkscape:current-layer="svg40531" />
  <g
     id="g49877">
    <path
       id="path49867"
       style="opacity:0.13;fill:#ffffff;fill-opacity:1;stroke:none;stroke-width:1.19165;stroke-linecap:butt;stroke-linejoin:miter;stroke-miterlimit:4;stroke-dasharray:none;stroke-opacity:1;paint-order:stroke markers fill"
       d="m 47.39616,13.503749 c -0.85591,0 -45.778456,3.15e-4 -45.778456,3.15e-4 C 0.713842,13.504074 0,12.793323 0,11.889461 V 2.131834 C 0,1.227972 0.727657,0.5003253 1.6315191,0.500315 c 0,0 37.1120519,-3.15e-4 45.7784559,-3.15e-4 0.83267,0 1.593092,0.6645748 1.593092,1.6318675 v 9.7569315 c 0,0.887591 -0.750999,1.61495 -1.606907,1.61495 z"
       sodipodi:nodetypes="zssssszzz" />
    <path
       id="rect10608"
       style="opacity:1;fill:#0a090a;fill-opacity:1;stroke:none;stroke-width:1.19165;stroke-linecap:butt;stroke-linejoin:miter;stroke-miterlimit:4;stroke-dasharray:none;stroke-opacity:1;paint-order:stroke markers fill"
       d="m 47.39616,13.003749 c -0.85591,0 -45.778456,3.15e-4 -45.778456,3.15e-4 C 0.713842,13.004074 0,12.293323 0,11.389461 V 1.631834 C 0,0.727972 0.727657,3.253e-4 1.6315191,3.15e-4 1.6315191,3.15e-4 38.743571,0 47.409975,0 c 0.83267,0 1.593092,0.6645748 1.593092,1.6318675 v 9.7569315 c 0,0.887591 -0.750999,1.61495 -1.606907,1.61495 z"
       sodipodi:nodetypes="zssssszzz" />
    <path
       id="rect7997"
       style="opacity:1;fill:url(#linearGradient10616);fill-opacity:1;stroke:none;stroke-width:1.11;stroke-linecap:butt;stroke-linejoin:miter;stroke-miterlimit:4;stroke-dasharray:none;stroke-opacity:1;paint-order:stroke markers fill"
       d="M 1.8464361,0.414189 H 47.108139 c 0.723812,0 1.424267,0.58207296 1.424267,1.4044043 0,0.79954 0.01139,7.8229913 0.01139,9.0441147 0,0.742572 -0.67791,1.438586 -1.435661,1.438586 H 1.8464321 c -0.790561,0 -1.4270051,-0.636444 -1.4270051,-1.427005 l 0,-9.033096 c 0,-0.79056 0.6364441,-1.427004 1.4270051,-1.427004 z"
       sodipodi:nodetypes="ssssssssss" />
    <path
       id="rect10605"
       style="opacity:1;fill:#959197;fill-opacity:1;stroke:none;stroke-width:0.723173;stroke-linecap:butt;stroke-linejoin:miter;stroke-miterlimit:4;stroke-dasharray:none;stroke-opacity:1;paint-order:stroke markers fill"
       d="M 1.6953121,0.4238281 C 1.4118401,0.4240051 0.88650001,0.6581698 0.61914,1.1210938 0.347167,1.5919987 0.414062,1.8971994 0.414062,1.9433594 c 0,0.053384 0.346778,-1.02343752 1.2656251,-1.02343752 l 45.5922159,0 c 0.918846,0 1.265625,1.07682162 1.265624,1.02343752 0,-0.04616 0.06494,-0.3513607 -0.207031,-0.8222656 -0.26736,-0.462924 -0.7927,-0.6970887 -1.076172,-0.6972657 -0.570202,-7.896e-4 -44.8860739,0 -45.5590119,0 z"
       sodipodi:nodetypes="ccsccsscc" />
  </g>
  <path
     id="path49879"
     style="opacity:0.13;fill:#ffffff;fill-opacity:1;stroke:none;stroke-width:1.19165;stroke-linecap:butt;stroke-linejoin:miter;stroke-miterlimit:4;stroke-dasharray:none;stroke-opacity:1;paint-order:stroke markers fill"
     d="m 47.39616,27.503749 c -0.85591,0 -45.778456,3.15e-4 -45.778456,3.15e-4 C 0.713842,27.504074 0,26.793323 0,25.889461 v -9.757627 c 0,-0.903862 0.727657,-1.631509 1.6315191,-1.631519 0,0 37.1120519,-3.15e-4 45.7784559,-3.15e-4 0.83267,0 1.593092,0.664575 1.593092,1.631867 v 9.756932 c 0,0.887591 -0.750999,1.61495 -1.606907,1.61495 z"
     sodipodi:nodetypes="zssssszzz" />
  <path
     id="path49881"
     style="fill:#0a090a;fill-opacity:1;stroke:none;stroke-width:1.19165;stroke-linecap:butt;stroke-linejoin:miter;stroke-miterlimit:4;stroke-dasharray:none;stroke-opacity:1;paint-order:stroke markers fill"
     d="m 47.39616,27.003749 c -0.85591,0 -45.778456,3.15e-4 -45.778456,3.15e-4 C 0.713842,27.004074 0,26.293323 0,25.389461 v -9.757627 c 0,-0.903862 0.727657,-1.631509 1.6315191,-1.631519 0,0 37.1120519,-3.15e-4 45.7784559,-3.15e-4 0.83267,0 1.593092,0.664575 1.593092,1.631868 v 9.756931 c 0,0.887591 -0.750999,1.61495 -1.606907,1.61495 z"
     sodipodi:nodetypes="zssssszzz" />
  <path
     id="path49883"
     style="fill:#413f40;fill-opacity:1;stroke:none;stroke-width:1.11;stroke-linecap:butt;stroke-linejoin:miter;stroke-miterlimit:4;stroke-dasharray:none;stroke-opacity:1;paint-order:stroke markers fill"
     d="M 1.8464361,14.414189 H 47.108139 c 0.723812,0 1.424267,0.582073 1.424267,1.404404 0,0.79954 0.01139,7.822992 0.01139,9.044115 0,0.742572 -0.67791,1.438586 -1.435661,1.438586 H 1.8464321 c -0.790561,0 -1.4270051,-0.636444 -1.4270051,-1.427005 v -9.033096 c 0,-0.79056 0.6364441,-1.427004 1.4270051,-1.427004 z"
     sodipodi:nodetypes="ssssssssss" />
  <g
     aria-label="Horizontal"
     id="text27"
     style="font-size:8px;font-family:SFProText-Regular, 'SF Pro Text';fill:#e4dcd9"
     class="e"
     transform="matrix(0.94296807,0,0,0.94296807,1.5591354,0.3421121)">
    <path
       d="M 9.314991,9.3645735 H 8.5415535 V 6.5169172 H 5.6392097 V 9.3645735 H 4.8657722 V 3.5481672 h 0.7734375 v 2.28125 h 2.9023438 v -2.28125 H 9.314991 Z"
       id="path49946" />
    <path
       d="m 14.537647,7.184886 q 0,1.0664062 -0.546875,1.6835937 -0.546875,0.6171875 -1.464844,0.6171875 -0.925781,0 -1.472656,-0.6171875 -0.542969,-0.6171875 -0.542969,-1.6835937 0,-1.0664063 0.542969,-1.6835938 0.546875,-0.6210937 1.472656,-0.6210937 0.917969,0 1.464844,0.6210937 0.546875,0.6171875 0.546875,1.6835938 z m -0.757812,0 q 0,-0.8476563 -0.332032,-1.2578125 -0.332031,-0.4140625 -0.921875,-0.4140625 -0.597656,0 -0.929687,0.4140625 -0.328125,0.4101562 -0.328125,1.2578125 0,0.8203125 0.332031,1.2460937 0.332031,0.421875 0.925781,0.421875 0.585938,0 0.917969,-0.4179687 0.335938,-0.421875 0.335938,-1.25 z"
       id="path49948" />
    <path
       d="m 18.397022,5.8020735 h -0.03906 q -0.164063,-0.039063 -0.320313,-0.054687 -0.152344,-0.019531 -0.363281,-0.019531 -0.339844,0 -0.65625,0.1523438 Q 16.70171,6.028636 16.408741,6.2669172 V 9.3645735 H 15.674366 V 5.0012922 h 0.734375 v 0.6445313 q 0.4375,-0.3515625 0.769531,-0.4960938 0.335938,-0.1484375 0.683594,-0.1484375 0.191406,0 0.277344,0.011719 0.08594,0.00781 0.257812,0.035156 z"
       id="path49950" />
    <path
       d="M 19.877491,4.2708235 H 19.049366 V 3.5091047 h 0.828125 z m -0.04687,5.09375 h -0.73438 V 5.0012922 h 0.734375 z"
       id="path49952" />
    <path
       d="M 24.447803,9.3645735 H 20.924366 V 8.8216047 L 23.467335,5.6145735 H 20.979053 V 5.0012922 h 3.402344 v 0.5234375 l -2.554687,3.21875 h 2.621093 z"
       id="path49954" />
    <path
       d="m 29.158741,7.184886 q 0,1.0664062 -0.546875,1.6835937 -0.546875,0.6171875 -1.464844,0.6171875 -0.925781,0 -1.472656,-0.6171875 -0.542969,-0.6171875 -0.542969,-1.6835937 0,-1.0664063 0.542969,-1.6835938 0.546875,-0.6210937 1.472656,-0.6210937 0.917969,0 1.464844,0.6210937 0.546875,0.6171875 0.546875,1.6835938 z m -0.757813,0 q 0,-0.8476563 -0.332031,-1.2578125 -0.332031,-0.4140625 -0.921875,-0.4140625 -0.597656,0 -0.929687,0.4140625 -0.328125,0.4101562 -0.328125,1.2578125 0,0.8203125 0.332031,1.2460937 0.332031,0.421875 0.925781,0.421875 0.585938,0 0.917969,-0.4179687 0.335937,-0.421875 0.335937,-1.25 z"
       id="path49956" />
    <path
       d="m 33.943897,9.3645735 h -0.734375 v -2.484375 q 0,-0.3007813 -0.03516,-0.5625 -0.03516,-0.265625 -0.128906,-0.4140625 -0.09766,-0.1640625 -0.28125,-0.2421875 -0.183594,-0.082031 -0.476563,-0.082031 -0.300781,0 -0.628906,0.1484375 -0.328125,0.1484375 -0.628906,0.3789063 V 9.3645735 H 30.29546 V 5.0012922 h 0.734375 v 0.484375 q 0.34375,-0.2851562 0.710937,-0.4453125 0.367188,-0.1601562 0.753906,-0.1601562 0.707032,0 1.078125,0.4257812 0.371094,0.4257813 0.371094,1.2265625 z"
       id="path49958" />
    <path
       d="m 37.623585,9.325511 q -0.207032,0.054687 -0.453125,0.089844 -0.242188,0.035156 -0.433594,0.035156 -0.667969,0 -1.015625,-0.359375 Q 35.373585,8.731761 35.373585,7.9387922 V 5.6184797 H 34.877491 V 5.0012922 h 0.496094 V 3.747386 h 0.734375 v 1.2539062 h 1.515625 V 5.6184797 H 36.10796 V 7.606761 q 0,0.34375 0.01563,0.5390625 0.01563,0.1914062 0.109375,0.359375 0.08594,0.15625 0.234375,0.2304687 0.152343,0.070312 0.460937,0.070312 0.179688,0 0.375,-0.050781 0.195313,-0.054687 0.28125,-0.089844 h 0.03906 z"
       id="path49960" />
    <path
       d="M 41.900928,9.3645735 H 41.17046 V 8.8997297 q -0.09766,0.066406 -0.265625,0.1875 -0.164063,0.1171875 -0.320313,0.1875 -0.183594,0.089844 -0.421875,0.1484375 -0.238281,0.0625 -0.558594,0.0625 -0.589843,0 -1,-0.390625 -0.410156,-0.390625 -0.410156,-0.9960937 0,-0.4960938 0.210938,-0.8007813 0.214843,-0.3085937 0.609375,-0.484375 0.398437,-0.1757812 0.957031,-0.2382812 0.558594,-0.0625 1.199219,-0.09375 V 6.3684797 q 0,-0.25 -0.08984,-0.4140625 -0.08594,-0.1640625 -0.25,-0.2578125 -0.15625,-0.089844 -0.375,-0.1210937 -0.21875,-0.03125 -0.457031,-0.03125 -0.289063,0 -0.644532,0.078125 -0.355468,0.074219 -0.734375,0.21875 h -0.03906 V 5.0950422 q 0.214844,-0.058594 0.621094,-0.1289062 0.40625,-0.070312 0.800781,-0.070312 0.460937,0 0.800781,0.078125 0.34375,0.074219 0.59375,0.2578125 0.246094,0.1796875 0.375,0.4648437 0.128906,0.2851563 0.128906,0.7070313 z M 41.17046,8.2903547 V 7.075511 q -0.335938,0.019531 -0.792969,0.058594 -0.453125,0.039063 -0.71875,0.1132813 -0.316406,0.089844 -0.511719,0.28125 -0.195312,0.1875 -0.195312,0.5195312 0,0.375 0.226562,0.5664063 0.226563,0.1875 0.691406,0.1875 0.386719,0 0.707032,-0.1484375 0.320312,-0.1523438 0.59375,-0.3632816 z"
       id="path49962" />
    <path
       d="m 44.057178,9.3645735 h -0.734375 v -6.078125 h 0.734375 z"
       id="path49964" />
  </g>
  <g
     aria-label="Horizontal"
     id="g49987"
     style="font-size:8px;font-family:SFProText-Regular, 'SF Pro Text';fill:#fce237;fill-opacity:1"
     class="e"
     transform="matrix(0.94296807,0,0,0.94296807,1.5591354,14.341984)">
    <path
       d="M 9.314991,9.3645735 H 8.5415535 V 6.5169172 H 5.6392097 V 9.3645735 H 4.8657722 V 3.5481672 h 0.7734375 v 2.28125 h 2.9023438 v -2.28125 H 9.314991 Z"
       id="path49967"
       style="fill:#fce237;fill-opacity:1" />
    <path
       d="m 14.537647,7.184886 q 0,1.0664062 -0.546875,1.6835937 -0.546875,0.6171875 -1.464844,0.6171875 -0.925781,0 -1.472656,-0.6171875 -0.542969,-0.6171875 -0.542969,-1.6835937 0,-1.0664063 0.542969,-1.6835938 0.546875,-0.6210937 1.472656,-0.6210937 0.917969,0 1.464844,0.6210937 0.546875,0.6171875 0.546875,1.6835938 z m -0.757812,0 q 0,-0.8476563 -0.332032,-1.2578125 -0.332031,-0.4140625 -0.921875,-0.4140625 -0.597656,0 -0.929687,0.4140625 -0.328125,0.4101562 -0.328125,1.2578125 0,0.8203125 0.332031,1.2460937 0.332031,0.421875 0.925781,0.421875 0.585938,0 0.917969,-0.4179687 0.335938,-0.421875 0.335938,-1.25 z"
       id="path49969"
       style="fill:#fce237;fill-opacity:1" />
    <path
       d="m 18.397022,5.8020735 h -0.03906 q -0.164063,-0.039063 -0.320313,-0.054687 -0.152344,-0.019531 -0.363281,-0.019531 -0.339844,0 -0.65625,0.1523438 Q 16.70171,6.028636 16.408741,6.2669172 V 9.3645735 H 15.674366 V 5.0012922 h 0.734375 v 0.6445313 q 0.4375,-0.3515625 0.769531,-0.4960938 0.335938,-0.1484375 0.683594,-0.1484375 0.191406,0 0.277344,0.011719 0.08594,0.00781 0.257812,0.035156 z"
       id="path49971"
       style="fill:#fce237;fill-opacity:1" />
    <path
       d="M 19.877491,4.2708235 H 19.049366 V 3.5091047 h 0.828125 z m -0.04687,5.09375 h -0.73438 V 5.0012922 h 0.734375 z"
       id="path49973"
       style="fill:#fce237;fill-opacity:1" />
    <path
       d="M 24.447803,9.3645735 H 20.924366 V 8.8216047 L 23.467335,5.6145735 H 20.979053 V 5.0012922 h 3.402344 v 0.5234375 l -2.554687,3.21875 h 2.621093 z"
       id="path49975"
       style="fill:#fce237;fill-opacity:1" />
    <path
       d="m 29.158741,7.184886 q 0,1.0664062 -0.546875,1.6835937 -0.546875,0.6171875 -1.464844,0.6171875 -0.925781,0 -1.472656,-0.6171875 -0.542969,-0.6171875 -0.542969,-1.6835937 0,-1.0664063 0.542969,-1.6835938 0.546875,-0.6210937 1.472656,-0.6210937 0.917969,0 1.464844,0.6210937 0.546875,0.6171875 0.546875,1.6835938 z m -0.757813,0 q 0,-0.8476563 -0.332031,-1.2578125 -0.332031,-0.4140625 -0.921875,-0.4140625 -0.597656,0 -0.929687,0.4140625 -0.328125,0.4101562 -0.328125,1.2578125 0,0.8203125 0.332031,1.2460937 0.332031,0.421875 0.925781,0.421875 0.585938,0 0.917969,-0.4179687 0.335937,-0.421875 0.335937,-1.25 z"
       id="path49977"
       style="fill:#fce237;fill-opacity:1" />
    <path
       d="m 33.943897,9.3645735 h -0.734375 v -2.484375 q 0,-0.3007813 -0.03516,-0.5625 -0.03516,-0.265625 -0.128906,-0.4140625 -0.09766,-0.1640625 -0.28125,-0.2421875 -0.183594,-0.082031 -0.476563,-0.082031 -0.300781,0 -0.628906,0.1484375 -0.328125,0.1484375 -0.628906,0.3789063 V 9.3645735 H 30.29546 V 5.0012922 h 0.734375 v 0.484375 q 0.34375,-0.2851562 0.710937,-0.4453125 0.367188,-0.1601562 0.753906,-0.1601562 0.707032,0 1.078125,0.4257812 0.371094,0.4257813 0.371094,1.2265625 z"
       id="path49979"
       style="fill:#fce237;fill-opacity:1" />
    <path
       d="m 37.623585,9.325511 q -0.207032,0.054687 -0.453125,0.089844 -0.242188,0.035156 -0.433594,0.035156 -0.667969,0 -1.015625,-0.359375 Q 35.373585,8.731761 35.373585,7.9387922 V 5.6184797 H 34.877491 V 5.0012922 h 0.496094 V 3.747386 h 0.734375 v 1.2539062 h 1.515625 V 5.6184797 H 36.10796 V 7.606761 q 0,0.34375 0.01563,0.5390625 0.01563,0.1914062 0.109375,0.359375 0.08594,0.15625 0.234375,0.2304687 0.152343,0.070312 0.460937,0.070312 0.179688,0 0.375,-0.050781 0.195313,-0.054687 0.28125,-0.089844 h 0.03906 z"
       id="path49981"
       style="fill:#fce237;fill-opacity:1" />
    <path
       d="M 41.900928,9.3645735 H 41.17046 V 8.8997297 q -0.09766,0.066406 -0.265625,0.1875 -0.164063,0.1171875 -0.320313,0.1875 -0.183594,0.089844 -0.421875,0.1484375 -0.238281,0.0625 -0.558594,0.0625 -0.589843,0 -1,-0.390625 -0.410156,-0.390625 -0.410156,-0.9960937 0,-0.4960938 0.210938,-0.8007813 0.214843,-0.3085937 0.609375,-0.484375 0.398437,-0.1757812 0.957031,-0.2382812 0.558594,-0.0625 1.199219,-0.09375 V 6.3684797 q 0,-0.25 -0.08984,-0.4140625 -0.08594,-0.1640625 -0.25,-0.2578125 -0.15625,-0.089844 -0.375,-0.1210937 -0.21875,-0.03125 -0.457031,-0.03125 -0.289063,0 -0.644532,0.078125 -0.355468,0.074219 -0.734375,0.21875 h -0.03906 V 5.0950422 q 0.214844,-0.058594 0.621094,-0.1289062 0.40625,-0.070312 0.800781,-0.070312 0.460937,0 0.800781,0.078125 0.34375,0.074219 0.59375,0.2578125 0.246094,0.1796875 0.375,0.4648437 0.128906,0.2851563 0.128906,0.7070313 z M 41.17046,8.2903547 V 7.075511 q -0.335938,0.019531 -0.792969,0.058594 -0.453125,0.039063 -0.71875,0.1132813 -0.316406,0.089844 -0.511719,0.28125 -0.195312,0.1875 -0.195312,0.5195312 0,0.375 0.226562,0.5664063 0.226563,0.1875 0.691406,0.1875 0.386719,0 0.707032,-0.1484375 0.320312,-0.1523438 0.59375,-0.3632816 z"
       id="path49983"
       style="fill:#fce237;fill-opacity:1" />
    <path
       d="m 44.057178,9.3645735 h -0.734375 v -6.078125 h 0.734375 z"
       id="path49985"
       style="fill:#fce237;fill-opacity:1" />
  </g>
</svg>
