<svg xmlns="http://www.w3.org/2000/svg" xmlns:xlink="http://www.w3.org/1999/xlink" width="26" height="22.001" viewBox="0 0 26 22.001"><defs><linearGradient id="a" x1="0.5" x2="0.5" y2="1" gradientUnits="objectBoundingBox"><stop offset="0" stop-color="#787477"/><stop offset="1" stop-color="#716b6c"/></linearGradient><linearGradient id="b" x1="0.5" x2="0.5" y2="1" gradientUnits="objectBoundingBox"><stop offset="0" stop-color="#413f40"/><stop offset="1" stop-color="#464141"/></linearGradient></defs><g transform="translate(-586 2.842)"><g transform="translate(586 -2.841)"><g transform="translate(0.5 0.499)" stroke="#4e4752" stroke-width="0.5" fill="url(#a)"><rect width="25" height="10" rx="1" stroke="none"/><rect x="-0.25" y="-0.25" width="25.5" height="10.5" rx="1.25" fill="none"/></g><path d="M24.5,3H1.5A1.5,1.5,0,0,1,0,1.5V1.087A1.5,1.5,0,0,0,1.5,2.509h23A1.5,1.5,0,0,0,26,1.021V1.5A1.5,1.5,0,0,1,24.5,3Z" transform="translate(0 8)" opacity="0.4"/><path d="M26,1.992h0A1.5,1.5,0,0,0,24.5.5H1.5A1.5,1.5,0,0,0,0,1.922L0,1.5A1.5,1.5,0,0,1,1.5,0h23A1.5,1.5,0,0,1,26,1.5Z" transform="translate(0 0)" fill="#fff" opacity="0.4"/><rect width="25" height="10" rx="1" transform="translate(0.5 0.5)" fill="#fff" opacity="0"/><path d="M-10.232,0h4.168V-.633H-9.307V-.7l3.176-4.441v-.5h-3.992V-5h3.082v.063L-10.232-.5Zm6.977.074a1.916,1.916,0,0,0,1.941-2.18,1.914,1.914,0,0,0-1.941-2.18A1.914,1.914,0,0,0-5.2-2.105,1.916,1.916,0,0,0-3.256.074Zm0-.605c-.8,0-1.246-.578-1.246-1.574S-4.053-3.68-3.256-3.68s1.246.574,1.246,1.574S-2.459-.531-3.256-.531ZM1.471.074a1.916,1.916,0,0,0,1.941-2.18,1.914,1.914,0,0,0-1.941-2.18A1.914,1.914,0,0,0-.471-2.105,1.916,1.916,0,0,0,1.471.074Zm0-.605c-.8,0-1.246-.578-1.246-1.574S.674-3.68,1.471-3.68s1.246.574,1.246,1.574S2.268-.531,1.471-.531Zm3,.531h.672V-2.609a1.018,1.018,0,0,1,.977-1.07.8.8,0,0,1,.879.82V0h.672V-2.707a.947.947,0,0,1,.977-.973c.594,0,.887.3.887.926V0H10.2V-2.91a1.228,1.228,0,0,0-1.34-1.375,1.41,1.41,0,0,0-1.289.738H7.51a1.216,1.216,0,0,0-1.164-.738,1.191,1.191,0,0,0-1.176.738H5.107v-.664H4.467Z" transform="translate(13 8.5)" fill="#e4dcd9"/></g><g transform="translate(586 8.159)"><g transform="translate(0.5 0.499)" stroke="#4e4752" stroke-width="0.5" fill="url(#b)"><rect width="25" height="10" rx="1" stroke="none"/><rect x="-0.25" y="-0.25" width="25.5" height="10.5" rx="1.25" fill="none"/></g><path d="M24.5,3H1.5A1.5,1.5,0,0,1,0,1.5V1.087A1.5,1.5,0,0,0,1.5,2.509h23A1.5,1.5,0,0,0,26,1.021V1.5A1.5,1.5,0,0,1,24.5,3Z" transform="translate(0 8)" opacity="0.4"/><path d="M26,1.992h0A1.5,1.5,0,0,0,24.5.5H1.5A1.5,1.5,0,0,0,0,1.922L0,1.5A1.5,1.5,0,0,1,1.5,0h23A1.5,1.5,0,0,1,26,1.5Z" transform="translate(0 0)" fill="#fff" opacity="0.1"/><rect width="25" height="10" rx="1" transform="translate(0.5 0.499)" fill="#fff" opacity="0"/><path d="M-10.232,0h4.168V-.633H-9.307V-.7l3.176-4.441v-.5h-3.992V-5h3.082v.063L-10.232-.5Zm6.977.074a1.916,1.916,0,0,0,1.941-2.18,1.914,1.914,0,0,0-1.941-2.18A1.914,1.914,0,0,0-5.2-2.105,1.916,1.916,0,0,0-3.256.074Zm0-.605c-.8,0-1.246-.578-1.246-1.574S-4.053-3.68-3.256-3.68s1.246.574,1.246,1.574S-2.459-.531-3.256-.531ZM1.471.074a1.916,1.916,0,0,0,1.941-2.18,1.914,1.914,0,0,0-1.941-2.18A1.914,1.914,0,0,0-.471-2.105,1.916,1.916,0,0,0,1.471.074Zm0-.605c-.8,0-1.246-.578-1.246-1.574S.674-3.68,1.471-3.68s1.246.574,1.246,1.574S2.268-.531,1.471-.531Zm3,.531h.672V-2.609a1.018,1.018,0,0,1,.977-1.07.8.8,0,0,1,.879.82V0h.672V-2.707a.947.947,0,0,1,.977-.973c.594,0,.887.3.887.926V0H10.2V-2.91a1.228,1.228,0,0,0-1.34-1.375,1.41,1.41,0,0,0-1.289.738H7.51a1.216,1.216,0,0,0-1.164-.738,1.191,1.191,0,0,0-1.176.738H5.107v-.664H4.467Z" transform="translate(13 8.5)" fill="#fce237"/></g></g></svg>