<svg xmlns="http://www.w3.org/2000/svg" xmlns:xlink="http://www.w3.org/1999/xlink" width="26" height="22.001" viewBox="0 0 26 22.001"><defs><linearGradient id="a" x1="0.5" x2="0.5" y2="1" gradientUnits="objectBoundingBox"><stop offset="0" stop-color="#787477"/><stop offset="1" stop-color="#716b6c"/></linearGradient><linearGradient id="b" x1="0.5" x2="0.5" y2="1" gradientUnits="objectBoundingBox"><stop offset="0" stop-color="#413f40"/><stop offset="1" stop-color="#464141"/></linearGradient></defs><g transform="translate(-586 2.842)"><g transform="translate(586 -2.841)"><g transform="translate(0.5 0.499)" stroke="#4e4752" stroke-width="0.5" fill="url(#a)"><rect width="25" height="10" rx="1" stroke="none"/><rect x="-0.25" y="-0.25" width="25.5" height="10.5" rx="1.25" fill="none"/></g><path d="M24.5,3H1.5A1.5,1.5,0,0,1,0,1.5V1.087A1.5,1.5,0,0,0,1.5,2.509h23A1.5,1.5,0,0,0,26,1.021V1.5A1.5,1.5,0,0,1,24.5,3Z" transform="translate(0 8)" opacity="0.4"/><path d="M26,1.992h0A1.5,1.5,0,0,0,24.5.5H1.5A1.5,1.5,0,0,0,0,1.922L0,1.5A1.5,1.5,0,0,1,1.5,0h23A1.5,1.5,0,0,1,26,1.5Z" transform="translate(0 0)" fill="#fff" opacity="0.4"/><rect width="25" height="10" rx="1" transform="translate(0.5 0.5)" fill="#fff" opacity="0"/><path d="M-6.311,0V-5h1.816v-.633H-8.83V-5h1.816V0ZM-.674-4.211h-.672v2.492A1.059,1.059,0,0,1-2.494-.539c-.672,0-.953-.352-.953-1.109V-4.211h-.672v2.727c0,1,.492,1.559,1.438,1.559a1.314,1.314,0,0,0,1.3-.734h.063V0h.641ZM.592,0h.672V-2.492A1.068,1.068,0,0,1,2.369-3.68c.672,0,.992.359.992,1.117V0h.672V-2.727A1.373,1.373,0,0,0,2.561-4.285a1.266,1.266,0,0,0-1.266.738H1.232v-.664H.592ZM6.939-3.691A1.133,1.133,0,0,1,8.068-2.453H5.748A1.2,1.2,0,0,1,6.939-3.691Zm1.109,2.6a1.091,1.091,0,0,1-1.086.57c-.715,0-1.18-.527-1.215-1.359V-1.91H8.775v-.258c0-1.309-.691-2.117-1.828-2.117A1.925,1.925,0,0,0,5.049-2.1c0,1.332.73,2.176,1.9,2.176A1.683,1.683,0,0,0,8.721-1.09Z" transform="translate(13 8.5)" fill="#e4dcd9"/></g><g transform="translate(586 8.159)"><g transform="translate(0.5 0.499)" stroke="#4e4752" stroke-width="0.5" fill="url(#b)"><rect width="25" height="10" rx="1" stroke="none"/><rect x="-0.25" y="-0.25" width="25.5" height="10.5" rx="1.25" fill="none"/></g><path d="M24.5,3H1.5A1.5,1.5,0,0,1,0,1.5V1.087A1.5,1.5,0,0,0,1.5,2.509h23A1.5,1.5,0,0,0,26,1.021V1.5A1.5,1.5,0,0,1,24.5,3Z" transform="translate(0 8)" opacity="0.4"/><path d="M26,1.992h0A1.5,1.5,0,0,0,24.5.5H1.5A1.5,1.5,0,0,0,0,1.922L0,1.5A1.5,1.5,0,0,1,1.5,0h23A1.5,1.5,0,0,1,26,1.5Z" transform="translate(0 0)" fill="#fff" opacity="0.1"/><rect width="25" height="10" rx="1" transform="translate(0.5 0.499)" fill="#fff" opacity="0"/><path d="M-6.311,0V-5h1.816v-.633H-8.83V-5h1.816V0ZM-.674-4.211h-.672v2.492A1.059,1.059,0,0,1-2.494-.539c-.672,0-.953-.352-.953-1.109V-4.211h-.672v2.727c0,1,.492,1.559,1.438,1.559a1.314,1.314,0,0,0,1.3-.734h.063V0h.641ZM.592,0h.672V-2.492A1.068,1.068,0,0,1,2.369-3.68c.672,0,.992.359.992,1.117V0h.672V-2.727A1.373,1.373,0,0,0,2.561-4.285a1.266,1.266,0,0,0-1.266.738H1.232v-.664H.592ZM6.939-3.691A1.133,1.133,0,0,1,8.068-2.453H5.748A1.2,1.2,0,0,1,6.939-3.691Zm1.109,2.6a1.091,1.091,0,0,1-1.086.57c-.715,0-1.18-.527-1.215-1.359V-1.91H8.775v-.258c0-1.309-.691-2.117-1.828-2.117A1.925,1.925,0,0,0,5.049-2.1c0,1.332.73,2.176,1.9,2.176A1.683,1.683,0,0,0,8.721-1.09Z" transform="translate(13 8.5)" fill="#fce237"/></g></g></svg>