<?xml version="1.0" encoding="UTF-8" standalone="no"?>
<svg
   xmlns:dc="http://purl.org/dc/elements/1.1/"
   xmlns:cc="http://creativecommons.org/ns#"
   xmlns:rdf="http://www.w3.org/1999/02/22-rdf-syntax-ns#"
   xmlns:svg="http://www.w3.org/2000/svg"
   xmlns="http://www.w3.org/2000/svg"
   xmlns:sodipodi="http://sodipodi.sourceforge.net/DTD/sodipodi-0.dtd"
   xmlns:inkscape="http://www.inkscape.org/namespaces/inkscape"
   width="19"
   height="170"
   viewBox="0 0 19 170"
   version="1.1"
   id="svg141"
   sodipodi:docname="bmp00145.svg"
   inkscape:version="1.0.1 (3bc2e813f5, 2020-09-07)">
  <metadata
     id="metadata145">
    <rdf:RDF>
      <cc:Work
         rdf:about="">
        <dc:format>image/svg+xml</dc:format>
        <dc:type
           rdf:resource="http://purl.org/dc/dcmitype/StillImage" />
        <dc:title />
      </cc:Work>
    </rdf:RDF>
  </metadata>
  <sodipodi:namedview
     pagecolor="#4c4c4c"
     bordercolor="#666666"
     borderopacity="1"
     objecttolerance="10"
     gridtolerance="10"
     guidetolerance="10"
     inkscape:pageopacity="0"
     inkscape:pageshadow="2"
     inkscape:window-width="3753"
     inkscape:window-height="2137"
     id="namedview143"
     showgrid="false"
     inkscape:showpageshadow="false"
     inkscape:zoom="33.541819"
     inkscape:cx="30.602863"
     inkscape:cy="146.14893"
     inkscape:window-x="-8"
     inkscape:window-y="-8"
     inkscape:window-maximized="1"
     inkscape:current-layer="svg141"
     inkscape:document-rotation="0" />
  <defs
     id="defs5">
    <clipPath
       id="a">
      <rect
         width="19"
         height="17"
         fill="#fff"
         stroke="#707070"
         stroke-width="1"
         id="rect2" />
    </clipPath>
  </defs>
  <rect
     style="opacity:1;fill:#343033;stroke-width:1.53774;paint-order:stroke markers fill;fill-opacity:1"
     id="rect970"
     width="19"
     height="170"
     x="0"
     y="0" />
  <rect
     width="6"
     height="16.5"
     fill="#886551"
     id="rect7"
     x="1"
     y="0.40000001"
     style="stroke-width:0.985182" />
  <rect
     width="7"
     height="17"
     fill="#886551"
     opacity="0"
     id="rect9"
     x="6"
     y="0" />
  <rect
     width="6"
     height="17"
     fill="#886551"
     opacity="0"
     id="rect11"
     x="12"
     y="0" />
  <g
     clip-path="url(#a)"
     id="g15"
     transform="matrix(1,0,0,0.97058824,0,0.4)">
    <path
       d="m 1206,717.287 c 0,-6.76 8.392,-16.787 18.6,-16.787 10.208,0 19,8.287 19,8.287 h 19 l 19,8.5"
       transform="translate(-1205.596,-700.287)"
       fill="#70676d"
       stroke="rgba(255,153,49,0.78)"
       stroke-linejoin="round"
       stroke-width="1"
       opacity="0.8"
       id="path13"
       style="stroke:#b8783d;stroke-width:0.6;stroke-miterlimit:4;stroke-dasharray:none;stroke-opacity:1" />
  </g>
  <rect
     width="19"
     height="17"
     fill="rgba(225,203,188,0.2)"
     opacity="0"
     id="rect17"
     x="0"
     y="0" />
  <rect
     width="6"
     height="17"
     fill="#886551"
     opacity="0"
     id="rect21"
     x="1"
     y="17" />
  <rect
     width="6"
     height="16.299999"
     fill="#886551"
     id="rect23"
     x="7"
     y="17.4"
     style="stroke-width:0.906559" />
  <rect
     width="6"
     height="17"
     fill="#886551"
     opacity="0"
     id="rect25"
     x="12"
     y="17" />
  <g
     clip-path="url(#a)"
     id="g29"
     transform="matrix(1,0,0,0.96470588,0,17.3)">
    <path
       d="m 1206,717.287 c 4.75,-4.091 18.6,-16.787 18.6,-16.787 l 19,8.287 h 19 l 19,8.5"
       transform="translate(-1205.596,-700.287)"
       fill="#70676d"
       stroke="rgba(255,153,49,0.78)"
       stroke-linejoin="round"
       stroke-width="1"
       opacity="0.8"
       id="path27"
       style="stroke:#b8783d;stroke-width:0.6;stroke-miterlimit:4;stroke-dasharray:none;stroke-opacity:1" />
  </g>
  <rect
     width="19"
     height="17"
     fill="rgba(225,203,188,0.2)"
     opacity="0"
     id="rect31"
     x="0"
     y="17" />
  <rect
     width="6"
     height="17"
     fill="#886551"
     opacity="0"
     id="rect35"
     x="1"
     y="34" />
  <rect
     width="7"
     height="17"
     fill="#886551"
     opacity="0"
     id="rect37"
     x="6"
     y="34" />
  <rect
     width="6"
     height="16.5"
     fill="#886551"
     id="rect39"
     x="13"
     y="34.400002"
     style="stroke-width:0.985182" />
  <g
     clip-path="url(#a)"
     id="g43"
     transform="matrix(1,0,0,0.97642627,0,34.561753)">
    <g
       id="g888"
       transform="translate(-1205.596,-700.287)"
       style="opacity:0.8">
      <path
         style="color:#000000;font-style:normal;font-variant:normal;font-weight:normal;font-stretch:normal;font-size:medium;line-height:normal;font-family:sans-serif;font-variant-ligatures:normal;font-variant-position:normal;font-variant-caps:normal;font-variant-numeric:normal;font-variant-alternates:normal;font-variant-east-asian:normal;font-feature-settings:normal;font-variation-settings:normal;text-indent:0;text-align:start;text-decoration:none;text-decoration-line:none;text-decoration-style:solid;text-decoration-color:#000000;letter-spacing:normal;word-spacing:normal;text-transform:none;writing-mode:lr-tb;direction:ltr;text-orientation:mixed;dominant-baseline:auto;baseline-shift:baseline;text-anchor:start;white-space:normal;shape-padding:0;shape-margin:0;inline-size:0;clip-rule:nonzero;display:inline;overflow:visible;visibility:visible;isolation:auto;mix-blend-mode:normal;color-interpolation:sRGB;color-interpolation-filters:linearRGB;solid-color:#000000;solid-opacity:1;vector-effect:none;fill:#70676d;fill-opacity:1;fill-rule:nonzero;stroke:none;stroke-width:0.6;stroke-linecap:butt;stroke-linejoin:round;stroke-miterlimit:4;stroke-dasharray:none;stroke-dashoffset:0;stroke-opacity:1;color-rendering:auto;image-rendering:auto;shape-rendering:auto;text-rendering:auto;enable-background:accumulate;stop-color:#000000;stop-opacity:1"
         d="m 1205.8735,716.99186 c 9.256,0 18.0941,-8.44837 18.0941,-16.36537 10.2,0 19.6324,8.16051 19.6324,8.16051 h 19 l 19,8.5"
         id="path890" />
      <path
         style="color:#000000;font-style:normal;font-variant:normal;font-weight:normal;font-stretch:normal;font-size:medium;line-height:normal;font-family:sans-serif;font-variant-ligatures:normal;font-variant-position:normal;font-variant-caps:normal;font-variant-numeric:normal;font-variant-alternates:normal;font-variant-east-asian:normal;font-feature-settings:normal;font-variation-settings:normal;text-indent:0;text-align:start;text-decoration:none;text-decoration-line:none;text-decoration-style:solid;text-decoration-color:#000000;letter-spacing:normal;word-spacing:normal;text-transform:none;writing-mode:lr-tb;direction:ltr;text-orientation:mixed;dominant-baseline:auto;baseline-shift:baseline;text-anchor:start;white-space:normal;shape-padding:0;shape-margin:0;inline-size:0;clip-rule:nonzero;display:inline;overflow:visible;visibility:visible;isolation:auto;mix-blend-mode:normal;color-interpolation:sRGB;color-interpolation-filters:linearRGB;solid-color:#000000;solid-opacity:1;vector-effect:none;fill:#b8783d;fill-opacity:1;fill-rule:nonzero;stroke:none;stroke-width:0.6;stroke-linecap:butt;stroke-linejoin:round;stroke-miterlimit:4;stroke-dasharray:none;stroke-dashoffset:0;stroke-opacity:1;color-rendering:auto;image-rendering:auto;shape-rendering:auto;text-rendering:auto;enable-background:accumulate;stop-color:#000000;stop-opacity:1"
         d="m 1223.9668,700.32617 a 0.30003001,0.30003001 0 0 0 -0.2988,0.30078 c 0,3.84687 -2.1626,7.87273 -5.4805,10.92969 -3.3179,3.05696 -7.7777,5.13477 -12.3145,5.13477 v 0.59961 c 4.7193,0 9.3076,-2.1465 12.7227,-5.29297 3.3249,-3.06338 5.5136,-7.08253 5.6289,-11.04883 9.9413,0.13772 19.1797,8.06445 19.1797,8.06445 a 0.30003001,0.30003001 0 0 0 0.1953,0.0742 h 18.9356 l 18.9414,8.47266 0.2461,-0.54688 -19,-8.5 a 0.30003001,0.30003001 0 0 0 -0.1231,-0.0273 h -18.8965 c -0.2656,-0.22918 -9.5247,-8.16016 -19.7363,-8.16016 z"
         id="path892" />
    </g>
  </g>
  <rect
     width="19"
     height="17"
     fill="rgba(225,203,188,0.2)"
     opacity="0"
     id="rect45"
     x="0"
     y="34" />
  <rect
     width="6"
     height="16.4"
     fill="#886551"
     id="rect49"
     x="1"
     y="51.400002"
     style="stroke-width:0.982192" />
  <rect
     width="7"
     height="17"
     fill="#886551"
     opacity="0"
     id="rect51"
     x="6"
     y="51" />
  <rect
     width="6"
     height="17"
     fill="#886551"
     opacity="0"
     id="rect53"
     x="12"
     y="51" />
  <g
     clip-path="url(#a)"
     id="g57"
     transform="matrix(1,0,0,0.97647059,0,51.2)">
    <path
       d="m 1205,717.287 c 4.75,-4.091 19,-16.787 19,-16.787 l 19,8.287 h 19 l 19,8.5"
       transform="translate(-1224,-700.287)"
       fill="#70676d"
       stroke="rgba(255,153,49,0.78)"
       stroke-linejoin="round"
       stroke-width="1"
       opacity="0.8"
       id="path55"
       style="stroke:#b8783d;stroke-width:0.6;stroke-miterlimit:4;stroke-dasharray:none;stroke-opacity:1" />
  </g>
  <rect
     width="19"
     height="17"
     fill="rgba(225,203,188,0.2)"
     opacity="0"
     id="rect59"
     x="0"
     y="51" />
  <rect
     width="6"
     height="17"
     fill="#886551"
     opacity="0"
     id="rect63"
     x="1"
     y="68" />
  <rect
     width="6"
     height="16.4"
     fill="#886551"
     id="rect65"
     x="7"
     y="68.400002"
     style="stroke-width:0.909336" />
  <rect
     width="6"
     height="17"
     fill="#886551"
     opacity="0"
     id="rect67"
     x="12"
     y="68" />
  <g
     clip-path="url(#a)"
     id="g71"
     transform="matrix(1,0,0,0.97647059,0,68.2)">
    <path
       d="m 1205,717.287 c 4.75,-4.091 9.5,-14.662 19,-16.787 6.913,7.917 19,8.287 19,8.287 h 19 l 19,8.5"
       transform="translate(-1224,-700.287)"
       fill="#70676d"
       stroke="rgba(255,153,49,0.78)"
       stroke-linejoin="round"
       stroke-width="1"
       opacity="0.8"
       id="path69"
       style="stroke:#b8783d;stroke-width:0.6;stroke-miterlimit:4;stroke-dasharray:none;stroke-opacity:1" />
  </g>
  <rect
     width="19"
     height="17"
     fill="rgba(225,203,188,0.2)"
     opacity="0"
     id="rect73"
     x="0"
     y="68" />
  <rect
     width="6"
     height="17"
     fill="#886551"
     opacity="0"
     id="rect77"
     x="1"
     y="85" />
  <rect
     width="7"
     height="17"
     fill="#886551"
     opacity="0"
     id="rect79"
     x="6"
     y="85" />
  <rect
     width="6"
     height="16.4"
     fill="#886551"
     id="rect81"
     x="13"
     y="85.400002"
     style="stroke-width:0.982192" />
  <g
     clip-path="url(#a)"
     id="g85"
     transform="matrix(1,0,0,0.97647059,0,85.2)">
    <path
       d="m 1205,717.287 c 4.75,-4.091 9.7108,-14.61984 19.2108,-16.74484 1.881,9.4 18.7892,8.24484 18.7892,8.24484 h 19 l 19,8.5"
       transform="translate(-1224,-700.287)"
       fill="#70676d"
       stroke="rgba(255,153,49,0.78)"
       stroke-linejoin="round"
       stroke-width="1"
       opacity="0.8"
       id="path83"
       style="stroke:#b8783d;stroke-width:0.6;stroke-miterlimit:4;stroke-dasharray:none;stroke-opacity:1"
       sodipodi:nodetypes="ccccc" />
  </g>
  <rect
     width="19"
     height="17"
     fill="rgba(225,203,188,0.2)"
     opacity="0"
     id="rect87"
     x="0"
     y="85" />
  <g
     clip-path="url(#a)"
     id="g93"
     transform="translate(0,153)"
     style="opacity:0.8;fill:#70676d;fill-opacity:1">
    <path
       d="m 1205,717.287 c 4.75,-4.091 19,-16.787 19,-16.787 l 19,8.287 h 19 l 19,8.5"
       transform="translate(-1243,-700.287)"
       fill="rgba(42,42,42,0.35)"
       stroke="rgba(255,153,49,0.78)"
       stroke-linejoin="round"
       stroke-width="1"
       opacity="0.8"
       id="path91"
       style="fill:#70676d;fill-opacity:1" />
  </g>
  <rect
     width="6"
     height="16.4"
     fill="#886551"
     id="rect97"
     x="1"
     y="102.4"
     style="stroke-width:0.982192" />
  <rect
     width="7"
     height="17"
     fill="#886551"
     opacity="0"
     id="rect99"
     x="6"
     y="102" />
  <rect
     width="6"
     height="17"
     fill="#886551"
     opacity="0"
     id="rect101"
     x="12"
     y="102" />
  <g
     clip-path="url(#a)"
     id="g105"
     transform="matrix(1,0,0,0.97647059,0,102.2)">
    <path
       d="m 1205,717.287 c 4.75,-4.091 19,-16.787 19,-16.787 l 19,8.287 h 19 l 19,8.5"
       transform="translate(-1262,-700.287)"
       fill="#70676d"
       stroke="rgba(255,153,49,0.78)"
       stroke-linejoin="round"
       stroke-width="1"
       opacity="0.8"
       id="path103"
       style="stroke:#b8783d;stroke-width:0.6;stroke-miterlimit:4;stroke-dasharray:none;stroke-opacity:1" />
  </g>
  <rect
     width="19"
     height="17"
     fill="rgba(225,203,188,0.2)"
     opacity="0"
     id="rect107"
     x="0"
     y="102" />
  <rect
     width="6"
     height="17"
     fill="#886551"
     opacity="0"
     id="rect111"
     x="1"
     y="119" />
  <rect
     width="6"
     height="16.4"
     fill="#886551"
     id="rect113"
     x="7"
     y="119.4"
     style="stroke-width:0.909336" />
  <rect
     width="6"
     height="17"
     fill="#886551"
     opacity="0"
     id="rect115"
     x="12"
     y="119" />
  <g
     clip-path="url(#a)"
     id="g119"
     transform="matrix(1,0,0,0.97647059,0,119.2)">
    <path
       d="m 1205,717.287 c 4.75,-4.091 19,-16.787 19,-16.787 l 19,8.287 a 49.192,49.192 0 0 1 19,0 c 7.491,7.084 19,8.5 19,8.5"
       transform="translate(-1262,-700.287)"
       fill="#70676d"
       stroke="rgba(255,153,49,0.78)"
       stroke-linejoin="round"
       stroke-width="1"
       opacity="0.8"
       id="path117"
       style="stroke:#b8783d;stroke-width:0.6;stroke-miterlimit:4;stroke-dasharray:none;stroke-opacity:1" />
  </g>
  <rect
     width="19"
     height="17"
     fill="rgba(225,203,188,0.2)"
     opacity="0"
     id="rect121"
     x="0"
     y="119" />
  <rect
     width="6"
     height="17"
     fill="#886551"
     opacity="0"
     id="rect125"
     x="1"
     y="136" />
  <rect
     width="7"
     height="17"
     fill="#886551"
     opacity="0"
     id="rect127"
     x="6"
     y="136" />
  <rect
     width="6"
     height="16.4"
     fill="#886551"
     id="rect129"
     x="13"
     y="136.39999"
     style="stroke-width:0.982192" />
  <g
     clip-path="url(#a)"
     id="g133"
     transform="matrix(1,0,0,0.97647059,0,136.3)">
    <path
       d="m 1205,717.287 c 4.75,-4.091 19,-16.787 19,-16.787 l 19,8.287 c 6.2732,-1.23472 13.0009,-1.02391 19.2741,0.21081 1.682,9.52 18.7259,7.86419 18.7259,7.86419"
       transform="translate(-1262,-700.287)"
       fill="#70676d"
       stroke="rgba(255,153,49,0.78)"
       stroke-linejoin="round"
       stroke-width="1"
       opacity="0.8"
       id="path131"
       style="stroke:#b8783d;stroke-width:0.6;stroke-miterlimit:4;stroke-dasharray:none;stroke-opacity:1"
       sodipodi:nodetypes="ccccc" />
  </g>
  <rect
     width="19"
     height="17"
     fill="rgba(225,203,188,0.2)"
     opacity="0"
     id="rect135"
     x="0"
     y="136" />
</svg>
