<?xml version="1.0" encoding="UTF-8" standalone="no"?>
<svg
   xmlns:dc="http://purl.org/dc/elements/1.1/"
   xmlns:cc="http://creativecommons.org/ns#"
   xmlns:rdf="http://www.w3.org/1999/02/22-rdf-syntax-ns#"
   xmlns:svg="http://www.w3.org/2000/svg"
   xmlns="http://www.w3.org/2000/svg"
   xmlns:xlink="http://www.w3.org/1999/xlink"
   xmlns:sodipodi="http://sodipodi.sourceforge.net/DTD/sodipodi-0.dtd"
   xmlns:inkscape="http://www.inkscape.org/namespaces/inkscape"
   width="34px"
   height="22px"
   viewbox="0 0 34 22"
   version="1.1"
   id="svg8220"
   sodipodi:docname="fxpresetarrows.svg"
   inkscape:version="1.0.1 (3bc2e813f5, 2020-09-07)">
  <metadata
     id="metadata8224">
    <rdf:RDF>
      <cc:Work
         rdf:about="">
        <dc:format>image/svg+xml</dc:format>
        <dc:type
           rdf:resource="http://purl.org/dc/dcmitype/StillImage" />
        <dc:title></dc:title>
      </cc:Work>
    </rdf:RDF>
  </metadata>
  <sodipodi:namedview
     pagecolor="#313131"
     bordercolor="#666666"
     borderopacity="1"
     objecttolerance="10"
     gridtolerance="10"
     guidetolerance="10"
     inkscape:pageopacity="0"
     inkscape:pageshadow="2"
     inkscape:window-width="3753"
     inkscape:window-height="2137"
     id="namedview8222"
     showgrid="false"
     inkscape:showpageshadow="false"
     inkscape:zoom="41.382353"
     inkscape:cx="17"
     inkscape:cy="11"
     inkscape:window-x="-8"
     inkscape:window-y="-8"
     inkscape:window-maximized="1"
     inkscape:current-layer="svg8220"
     inkscape:document-rotation="0" />
  <defs
     id="defs8176">
    <linearGradient
       x1="8.953125"
       y1="0.78125"
       x2="8.921875"
       y2="9.8125"
       id="gradient_1">
      <stop
         offset="0"
         stop-color="#787477"
         id="stop8167" />
      <stop
         offset="1"
         stop-color="#696568"
         id="stop8169" />
    </linearGradient>
    <rect
       width="34"
       height="22"
       id="artboard_1" />
    <clipPath
       id="clip_1">
      <use
         xlink:href="#artboard_1"
         clip-rule="evenodd"
         id="use8173" />
    </clipPath>
  </defs>
  <path
     d="M 1.71041,0 H 15.2896 C 16.2372,0 17,0.762843 17,1.71041 V 9.28959 11 H 1.71041 C 0.762843,11 0,10.2372 0,9.28959 V 1.71041 C 0,0.762843 0.762843,0 1.71041,0 Z"
     id="rect31774"
     fill="#959197"
     fill-opacity="0.274194"
     fill-rule="evenodd"
     stroke="none" />
  <path
     d="m 17,10.492295 -15.36848,3e-4 C 0.727657,10.492695 0,9.7649848 0,8.8611148 v -7.22959 C 0,0.72766682 0.727657,2.782122e-5 1.63152,9.32422e-6 L 17,-3.0517578e-4"
     id="rect10608"
     fill="#0a090a"
     fill-rule="evenodd"
     stroke="none" />
  <path
     d="M 1.8464336,0.41387945 H 16.500034 V 9.9966594 H 1.8464336 c -0.790556,0 -1.427,-0.63645 -1.427,-1.42701 v -6.72877 c 0,-0.790556 0.636444,-1.42700001 1.427,-1.42700001 z"
     id="rect7997"
     fill="url(#gradient_1)"
     fill-rule="evenodd"
     stroke="none"
     style="fill:#655959;fill-opacity:1" />
  <path
     d="m 17,2.5 v -1 C 17,1.223858 17.097629,0.98815502 17.292892,0.79289302 17.488155,0.59763112 17.723858,0.50000002 18,0.50000002 h 14 c 0.2761,0 0.5118,0.0976311 0.7071,0.292893 C 32.9024,0.98815502 33,1.223858 33,1.5 v 8 c 0,0.27614 -0.0976,0.51184 -0.2929,0.70711 C 32.5118,10.40237 32.2761,10.5 32,10.5 H 18 c -0.276142,0 -0.511845,-0.09763 -0.707108,-0.29289 C 17.097631,10.01184 17,9.77614 17,9.5 Z"
     id="Rectangle"
     fill="#ffffff"
     fill-opacity="0"
     fill-rule="evenodd"
     stroke="none" />
  <path
     d="m 1.4714661,3.0454481 v -0.818178 c 0,-0.225935 0.091877,-0.418782 0.275632,-0.578542 0.183754,-0.15976 0.405566,-0.23964 0.665434,-0.23964 H 15.587466 c 0.2598,0 0.4816,0.07988 0.6654,0.23964 0.1838,0.15976 0.2757,0.352607 0.2757,0.578542 v 6.545458 c 0,0.22593 -0.0919,0.41877 -0.2757,0.57854 -0.1838,0.15976 -0.4056,0.23964 -0.6654,0.23964 H 2.4125321 c -0.259868,0 -0.48168,-0.07988 -0.665434,-0.23964 -0.1837547,-0.15977 -0.275632,-0.35261 -0.275632,-0.57854 z"
     id="path31121"
     fill="#ffffff"
     fill-opacity="0"
     fill-rule="evenodd"
     stroke="none" />
  <path
     d="m 6.2836,5.1459524 3.81122,2.28673 v -4.57346 z"
     id="path31776"
     fill="#ff0000"
     fill-rule="evenodd"
     stroke="none"
     style="fill:#dbd7d7" />
  <path
     d="m 0.4135476,1.9424994 c 0,-0.04616 -0.0660263,-0.35062 0.20594254,-0.821522 0.26736,-0.46292401 0.79299396,-0.69768966 1.07646396,-0.69786641 l 14.8040399,-0.009232 3e-4,0.505892 c 0,0 -14.3751999,2.34e-4 -14.8207399,2.34e-4 -0.91884896,0 -1.26600614,1.07587401 -1.2660065,1.02249401 z"
     id="rect10605"
     fill="#959197"
     fill-rule="evenodd"
     stroke="none" />
  <path
     d="M 31.8921,0 H 18.66595 C 17.743011,0 17,0.762843 17,1.71041 V 9.28959 11 h 14.8921 c 0.9229,0 1.666,-0.7628 1.666,-1.71041 V 1.71041 C 33.5581,0.762843 32.815,0 31.8921,0 Z"
     id="path10627"
     fill="#959197"
     fill-opacity="0.274194"
     fill-rule="evenodd"
     stroke="none" />
  <path
     d="m 16.5,10.492295 15.3685,3e-4 C 32.7723,10.492695 33.5,9.7649848 33.5,8.8611148 v -7.22959 C 33.5,0.72766682 32.7723,2.782122e-5 31.8685,9.32422e-6 l -15.3685,-3.145e-4"
     id="path10629"
     fill="#0a090a"
     fill-rule="evenodd"
     stroke="none" />
  <path
     d="M 31.3979,0.41387945 H 17 V 9.9966594 h 14.3979 c 0.7768,0 1.4021,-0.63645 1.4021,-1.42701 v -6.72877 c 0,-0.790556 -0.6253,-1.42700001 -1.4021,-1.42700001 z"
     id="path10631"
     fill="url(#gradient_1)"
     fill-rule="evenodd"
     stroke="none"
     style="fill:#655959;fill-opacity:1" />
  <path
     d="m 32.028566,3.0454481 v -0.818178 c 0,-0.225935 -0.0919,-0.418782 -0.2757,-0.578542 -0.1837,-0.15976 -0.4055,-0.23964 -0.6654,-0.23964 H 17.912533 c -0.259829,0 -0.481638,0.07988 -0.665428,0.23964 -0.183791,0.15976 -0.275639,0.352607 -0.275639,0.578542 v 6.545458 c 0,0.22593 0.09185,0.41877 0.275639,0.57854 0.18379,0.15976 0.405599,0.23964 0.665428,0.23964 h 13.174933 c 0.2599,0 0.4817,-0.07988 0.6654,-0.23964 0.1838,-0.15977 0.2757,-0.35261 0.2757,-0.57854 z"
     id="path10633"
     fill="#ffffff"
     fill-opacity="0"
     fill-rule="evenodd"
     stroke="none" />
  <path
     d="m 27.216402,5.1459524 -3.81122,2.28673 v -4.57346 z"
     id="path10635"
     fill="#ff0000"
     fill-rule="evenodd"
     stroke="none"
     style="fill:#dbd7d7" />
  <path
     d="m 32.792856,1.9424994 c 0,-0.04616 0.0648,-0.35062 -0.2022,-0.821522 -0.2625,-0.46292401 -0.7785,-0.69768927 -1.0568,-0.697866 l -14.533846,-0.009232 -2.54e-4,0.505892 c 0,0 14.1128,2.34e-4 14.5502,2.34e-4 0.9021,0 1.2429,1.07587401 1.2429,1.02249401 z"
     id="path10637"
     fill="#959197"
     fill-rule="evenodd"
     stroke="none" />
  <path
     d="M 1.71041,11.000305 H 15.2896 c 0.9476,0 1.7104,0.762843 1.7104,1.71041 v 7.57918 1.71041 H 1.71041 C 0.762843,22.000305 0,21.237505 0,20.289895 v -7.57918 c 0,-0.947567 0.762843,-1.71041 1.71041,-1.71041 z"
     id="path8192"
     fill="#959197"
     fill-opacity="0.274194"
     fill-rule="evenodd"
     stroke="none" />
  <path
     d="m 17,21.4926 -15.36848,3e-4 C 0.727657,21.493 0,20.76529 0,19.86142 V 12.63183 C 0,11.727972 0.727657,11.000333 1.63152,11.000315 L 17,11"
     id="path8194"
     fill="#0a090a"
     fill-rule="evenodd"
     stroke="none" />
  <path
     d="M 1.8464336,11.414185 H 16.500034 v 9.58278 H 1.8464336 c -0.790556,0 -1.427,-0.63645 -1.427,-1.42701 v -6.72877 c 0,-0.790556 0.636444,-1.427 1.427,-1.427 z"
     id="path8196"
     fill="url(#gradient_1)"
     fill-rule="evenodd"
     stroke="none"
     style="fill:#655959;fill-opacity:1" />
  <path
     d="m 17,13.500305 v -1 c 0,-0.276142 0.09763,-0.511845 0.292892,-0.707107 C 17.488155,11.597936 17.723858,11.500305 18,11.500305 h 14 c 0.2761,0 0.5118,0.09763 0.7071,0.292893 C 32.9024,11.98846 33,12.224163 33,12.500305 v 8 c 0,0.27614 -0.0976,0.51184 -0.2929,0.70711 -0.1953,0.19526 -0.431,0.29289 -0.7071,0.29289 H 18 c -0.276142,0 -0.511845,-0.09763 -0.707108,-0.29289 C 17.097631,21.012145 17,20.776445 17,20.500305 Z"
     id="path8198"
     fill="#ffffff"
     fill-opacity="0"
     fill-rule="evenodd"
     stroke="none" />
  <path
     d="m 1.4714661,14.045753 v -0.818178 c 0,-0.225935 0.091877,-0.418782 0.275632,-0.578542 0.183754,-0.15976 0.405566,-0.23964 0.665434,-0.23964 H 15.587466 c 0.2598,0 0.4816,0.07988 0.6654,0.23964 0.1838,0.15976 0.2757,0.352607 0.2757,0.578542 v 6.545458 c 0,0.22593 -0.0919,0.41877 -0.2757,0.57854 -0.1838,0.15976 -0.4056,0.23964 -0.6654,0.23964 H 2.4125321 c -0.259868,0 -0.48168,-0.07988 -0.665434,-0.23964 -0.1837547,-0.15977 -0.275632,-0.35261 -0.275632,-0.57854 z"
     id="path8200"
     fill="#ffffff"
     fill-opacity="0"
     fill-rule="evenodd"
     stroke="none" />
  <path
     d="m 6.2836,16.146258 3.81122,2.28673 v -4.57346 z"
     id="path8202"
     fill="#ff0000"
     fill-rule="evenodd"
     stroke="none"
     style="fill:#dbd7d7" />
  <path
     d="m 0.4135476,12.942805 c 0,-0.04616 -0.0660263,-0.35062 0.20594254,-0.821522 0.26736,-0.462924 0.79299396,-0.69769 1.07646396,-0.697866 l 14.8040399,-0.0092 3e-4,0.505892 c 0,0 -14.3751999,2.34e-4 -14.8207399,2.34e-4 -0.91884896,0 -1.26600614,1.075874 -1.2660065,1.022494 z"
     id="path8204"
     fill="#959197"
     fill-rule="evenodd"
     stroke="none" />
  <path
     d="M 31.8921,11.000305 H 18.66595 C 17.743011,11.000305 17,11.763148 17,12.710715 v 7.57918 1.71041 h 14.8921 c 0.9229,0 1.666,-0.7628 1.666,-1.71041 v -7.57918 c 0,-0.947567 -0.7431,-1.71041 -1.666,-1.71041 z"
     id="path8206"
     fill="#959197"
     fill-opacity="0.274194"
     fill-rule="evenodd"
     stroke="none" />
  <path
     d="m 16.5,21.4926 15.3685,3e-4 C 32.7723,21.493 33.5,20.76529 33.5,19.86142 v -7.22959 c 0,-0.903858 -0.7277,-1.631497 -1.6315,-1.631515 L 16.5,11"
     id="path8208"
     fill="#0a090a"
     fill-rule="evenodd"
     stroke="none" />
  <path
     d="M 31.3979,11.414185 H 17 v 9.58278 h 14.3979 c 0.7768,0 1.4021,-0.63645 1.4021,-1.42701 v -6.72877 c 0,-0.790556 -0.6253,-1.427 -1.4021,-1.427 z"
     id="path8210"
     fill="url(#gradient_1)"
     fill-rule="evenodd"
     stroke="none"
     style="fill:#655959;fill-opacity:1" />
  <path
     d="m 32.028566,14.045753 v -0.818178 c 0,-0.225935 -0.0919,-0.418782 -0.2757,-0.578542 -0.1837,-0.15976 -0.4055,-0.23964 -0.6654,-0.23964 H 17.912533 c -0.259829,0 -0.481638,0.07988 -0.665428,0.23964 -0.183791,0.15976 -0.275639,0.352607 -0.275639,0.578542 v 6.545458 c 0,0.22593 0.09185,0.41877 0.275639,0.57854 0.18379,0.15976 0.405599,0.23964 0.665428,0.23964 h 13.174933 c 0.2599,0 0.4817,-0.07988 0.6654,-0.23964 0.1838,-0.15977 0.2757,-0.35261 0.2757,-0.57854 z"
     id="path8212"
     fill="#ffffff"
     fill-opacity="0"
     fill-rule="evenodd"
     stroke="none" />
  <path
     d="m 27.216402,16.146258 -3.81122,2.28673 v -4.57346 z"
     id="path8214"
     fill="#ff0000"
     fill-rule="evenodd"
     stroke="none"
     style="fill:#dbd7d7" />
  <path
     d="m 32.792856,12.942805 c 0,-0.04616 0.0648,-0.35062 -0.2022,-0.821522 -0.2625,-0.462924 -0.7785,-0.697689 -1.0568,-0.697866 l -14.533846,-0.0092 -2.54e-4,0.505892 c 0,0 14.1128,2.34e-4 14.5502,2.34e-4 0.9021,0 1.2429,1.075874 1.2429,1.022494 z"
     id="path8216"
     fill="#959197"
     fill-rule="evenodd"
     stroke="none" />
</svg>
