<?xml version="1.0" encoding="utf-8"?>
<svg width="26px" height="22px" viewbox="0 0 26 22" version="1.1" xmlns:xlink="http://www.w3.org/1999/xlink" xmlns="http://www.w3.org/2000/svg">
  <defs>
    <linearGradient x1="0.5" y1="0" x2="0.5" y2="1" id="gradient_1">
      <stop offset="0" stop-color="#787477" />
      <stop offset="1" stop-color="#716B6C" />
    </linearGradient>
    <linearGradient x1="0.5" y1="0" x2="0.5" y2="1" id="gradient_2">
      <stop offset="0" stop-color="#413F40" />
      <stop offset="1" stop-color="#464141" />
    </linearGradient>
    <rect width="26" height="22" id="artboard_1" />
    <clipPath id="clip_1">
      <use xlink:href="#artboard_1" clip-rule="evenodd" />
    </clipPath>
  </defs>
  <g id="hover00171" clip-path="url(#clip_1)">
    <g id="Group" transform="translate(0 0.0009994507)">
      <g id="Group" transform="translate(0.25 0.24900055)">
        <path d="M0 2L0 1C0 0.723858 0.0976311 0.488155 0.292893 0.292893C0.488155 0.0976311 0.723858 0 1 0L24 0C24.2761 0 24.5118 0.0976311 24.7071 0.292893C24.9024 0.488155 25 0.723858 25 1L25 9C25 9.27614 24.9024 9.51184 24.7071 9.70711C24.5118 9.90237 24.2761 10 24 10L1 10C0.723858 10 0.488155 9.90237 0.292893 9.70711C0.0976311 9.51184 0 9.27614 0 9L0 2Z" transform="translate(0.25 0.25)" id="Rectangle" fill="url(#gradient_1)" fill-rule="evenodd" stroke="none" />
        <path d="M0 2.5L0 1.25C0 0.904822 0.122039 0.610194 0.366116 0.366116C0.610194 0.122039 0.904822 0 1.25 0L24.25 0C24.5952 0 24.8898 0.122039 25.1339 0.366116C25.378 0.610194 25.5 0.904822 25.5 1.25L25.5 9.25C25.5 9.59518 25.378 9.88981 25.1339 10.1339C24.8898 10.378 24.5952 10.5 24.25 10.5L1.25 10.5C0.904822 10.5 0.610194 10.378 0.366116 10.1339C0.122039 9.88981 0 9.59518 0 9.25L0 2.5Z" id="Rectangle" fill="none" fill-rule="evenodd" stroke="#4E4752" stroke-width="0.5" />
      </g>
      <path d="M24.5 1.979L1.5 1.979C0.671573 1.979 0 1.30743 0 0.479L0 0.066C0.0415417 0.863817 0.701101 1.48908 1.5 1.488L24.5 1.488C25.3238 1.48803 25.9934 0.823738 26 0L26 0.479C26 1.30743 25.3284 1.979 24.5 1.979L24.5 1.979Z" transform="translate(0 9.020996)" id="Shape" fill="#000000" fill-opacity="0.4" fill-rule="evenodd" stroke="none" />
      <path d="M26 1.992L26 1.992C25.9956 1.16669 25.3253 0.499985 24.5 0.5L1.5 0.5C0.701102 0.498919 0.0415421 1.12418 0 1.922L0 1.5C1.19209e-07 0.671573 0.671573 0 1.5 0L24.5 0C25.3284 0 26 0.671573 26 1.5L26 1.992Z" id="Shape" fill="#FFFFFF" fill-opacity="0.4" fill-rule="evenodd" stroke="none" />
      <path d="M0 2L0 1C0 0.723858 0.0976311 0.488155 0.292893 0.292893C0.488155 0.0976311 0.723858 0 1 0L24 0C24.2761 0 24.5118 0.0976311 24.7071 0.292893C24.9024 0.488155 25 0.723858 25 1L25 9C25 9.27614 24.9024 9.51184 24.7071 9.70711C24.5118 9.90237 24.2761 10 24 10L1 10C0.723858 10 0.488155 9.90237 0.292893 9.70711C0.0976311 9.51184 0 9.27614 0 9L0 2Z" transform="translate(0.5 0.49900055)" id="Rectangle" fill="#FFFFFF" fill-opacity="0.2" fill-rule="evenodd" stroke="none" />
      <path d="M5.554 5.63735L5.554 0.000350952L4.738 0.000350952L2.807 4.66435L2.745 4.66435L0.815 0.000350952L0 0.000350952L0 5.63735L0.656 5.63735L0.656 1.33735L0.7 1.33735L2.479 5.59835L3.073 5.59835L4.85 1.33735L4.9 1.33735L4.9 5.63735L5.554 5.63735ZM6.991 0.000350952L6.991 5.63735L7.691 5.63735L7.691 3.62535L9.112 3.62535C9.59693 3.64723 10.0689 3.46507 10.4134 3.12306C10.7578 2.78105 10.9434 2.31043 10.925 1.82535C10.9507 1.33839 10.7701 0.863115 10.4276 0.516026C10.0851 0.168935 9.61226 -0.0178862 9.125 0.00135136L6.991 0.000350952ZM7.691 0.625351L8.936 0.625351C9.27211 0.577985 9.61146 0.686582 9.85762 0.920281C10.1038 1.15398 10.2299 1.48724 10.2 1.82535C10.2211 2.15907 10.0913 2.48464 9.84637 2.7123C9.60145 2.93997 9.26729 3.0457 8.936 3.00035L7.694 3.00035L7.691 0.625351ZM15.565 5.00435L12.776 5.00435L12.776 3.06735L15.421 3.06735L15.421 2.43735L12.776 2.43735L12.776 0.637351L15.565 0.637351L15.565 0.00435162L12.073 0.00435162L12.073 5.63735L15.565 5.63735L15.565 5.00435Z" transform="translate(5.299988 2.862648)" id="Shape" fill="#E4DCD9" fill-rule="evenodd" stroke="none" />
    </g>
    <g id="Group" transform="translate(0 11.000999)">
      <g id="Group" transform="translate(0.25 0.25)">
        <path d="M0 2L0 1C0 0.723858 0.0976311 0.488155 0.292893 0.292893C0.488155 0.0976311 0.723858 0 1 0L24 0C24.2761 0 24.5118 0.0976311 24.7071 0.292893C24.9024 0.488155 25 0.723858 25 1L25 9C25 9.27614 24.9024 9.51184 24.7071 9.70711C24.5118 9.90237 24.2761 10 24 10L1 10C0.723858 10 0.488155 9.90237 0.292893 9.70711C0.0976311 9.51184 0 9.27614 0 9L0 2Z" transform="translate(0.25 0.25)" id="Rectangle" fill="url(#gradient_2)" fill-rule="evenodd" stroke="none" />
        <path d="M0 2.5L0 1.25C0 0.904822 0.122039 0.610194 0.366116 0.366116C0.610194 0.122039 0.904822 0 1.25 0L24.25 0C24.5952 0 24.8898 0.122039 25.1339 0.366116C25.378 0.610194 25.5 0.904822 25.5 1.25L25.5 9.25C25.5 9.59518 25.378 9.88981 25.1339 10.1339C24.8898 10.378 24.5952 10.5 24.25 10.5L1.25 10.5C0.904822 10.5 0.610194 10.378 0.366116 10.1339C0.122039 9.88981 0 9.59518 0 9.25L0 2.5Z" id="Rectangle" fill="none" fill-rule="evenodd" stroke="#4E4752" stroke-width="0.5" />
      </g>
      <path d="M24.5 1.979L1.5 1.979C0.671573 1.979 0 1.30743 0 0.479L0 0.066C0.0415417 0.863817 0.701101 1.48908 1.5 1.488L24.5 1.488C25.3238 1.48803 25.9934 0.823738 26 0L26 0.479C26 1.30743 25.3284 1.979 24.5 1.979L24.5 1.979Z" transform="translate(0 9.020996)" id="Shape" fill="#000000" fill-opacity="0.4" fill-rule="evenodd" stroke="none" />
      <path d="M26 1.992L26 1.992C25.9956 1.16669 25.3253 0.499985 24.5 0.5L1.5 0.5C0.701102 0.498919 0.0415421 1.12418 0 1.922L0 1.5C1.19209e-07 0.671573 0.671573 0 1.5 0L24.5 0C25.3284 0 26 0.671573 26 1.5L26 1.992Z" id="Shape" fill="#FFFFFF" fill-opacity="0.1" fill-rule="evenodd" stroke="none" />
      <path d="M0 2L0 1C0 0.723858 0.0976311 0.488155 0.292893 0.292893C0.488155 0.0976311 0.723858 0 1 0L24 0C24.2761 0 24.5118 0.0976311 24.7071 0.292893C24.9024 0.488155 25 0.723858 25 1L25 9C25 9.27614 24.9024 9.51184 24.7071 9.70711C24.5118 9.90237 24.2761 10 24 10L1 10C0.723858 10 0.488155 9.90237 0.292893 9.70711C0.0976311 9.51184 0 9.27614 0 9L0 2Z" transform="translate(0.5 0.49900055)" id="Rectangle" fill="#FFFFFF" fill-opacity="0.1" fill-rule="evenodd" stroke="none" />
      <path d="M5.554 5.63735L5.554 0.000350952L4.738 0.000350952L2.807 4.66435L2.745 4.66435L0.815 0.000350952L0 0.000350952L0 5.63735L0.656 5.63735L0.656 1.33735L0.7 1.33735L2.479 5.59835L3.073 5.59835L4.85 1.33735L4.9 1.33735L4.9 5.63735L5.554 5.63735ZM6.991 0.000350952L6.991 5.63735L7.691 5.63735L7.691 3.62535L9.112 3.62535C9.59693 3.64723 10.0689 3.46507 10.4134 3.12306C10.7578 2.78105 10.9434 2.31043 10.925 1.82535C10.9507 1.33839 10.7701 0.863115 10.4276 0.516026C10.0851 0.168935 9.61226 -0.0178862 9.125 0.00135136L6.991 0.000350952ZM7.691 0.625351L8.936 0.625351C9.27211 0.577985 9.61146 0.686582 9.85762 0.920281C10.1038 1.15398 10.2299 1.48724 10.2 1.82535C10.2211 2.15907 10.0913 2.48464 9.84637 2.7123C9.60145 2.93997 9.26729 3.0457 8.936 3.00035L7.694 3.00035L7.691 0.625351ZM15.565 5.00435L12.776 5.00435L12.776 3.06735L15.421 3.06735L15.421 2.43735L12.776 2.43735L12.776 0.637351L15.565 0.637351L15.565 0.00435162L12.073 0.00435162L12.073 5.63735L15.565 5.63735L15.565 5.00435Z" transform="translate(5.299988 2.862648)" id="Shape" fill="#FCE237" fill-rule="evenodd" stroke="none" />
    </g>
  </g>
</svg>