<?xml version="1.0" encoding="utf-8"?>
<svg width="28px" height="24px" viewbox="0 0 28 24" version="1.1" xmlns:xlink="http://www.w3.org/1999/xlink" xmlns="http://www.w3.org/2000/svg">
  <defs>
    <rect width="28" height="24" id="artboard_1" />
    <clipPath id="clip_1">
      <use xlink:href="#artboard_1" clip-rule="evenodd" />
    </clipPath>
  </defs>
  <g id="hoverTS00157" clip-path="url(#clip_1)">
    <path d="M5 0C2.23858 0 0 2.23858 0 5C0 7.76142 2.23858 10 5 10C7.76142 10 10 7.76142 10 5C10 2.23858 7.76142 0 5 0L5 0ZM5.00005 0.867004C2.68045 0.867004 0.800049 2.7474 0.800049 5.067C0.800049 7.3866 2.68045 9.267 5.00005 9.267C7.31965 9.267 9.20005 7.3866 9.20005 5.067C9.20005 2.7474 7.31965 0.867004 5.00005 0.867004L5.00005 0.867004Z" transform="translate(3.999939 6.5000305)" id="Circle-Difference" fill="#F8DF60" fill-rule="evenodd" stroke="none" />
    <path d="M0.0250015 5.5L0.0250015 5.5C0.00799942 5.327 0 5.159 0 5C0 2.23857 2.23858 0 5 0C7.76143 0 10 2.23858 10 5C10 5.163 9.992 5.328 9.976 5.49C9.71934 2.93287 7.56595 0.986759 4.99597 0.989342C2.42599 0.991926 0.27652 2.94236 0.0250015 5.5L0.0250015 5.5L0.0250015 5.5L0.0250015 5.5Z" transform="translate(3.999878 6.5000305)" id="Shape" fill="#FFFFFF" fill-opacity="0.3019608" fill-rule="evenodd" stroke="none" />
    <path d="M5 5.5C2.24018 5.49614 0.00385666 3.25983 0 0.5C0 0.334 0.00799942 0.164999 0.0250015 0C0.273319 2.55962 2.42937 4.50943 5.001 4.5C7.57262 4.50944 9.72868 2.55962 9.977 0C9.994 0.172998 10.002 0.341 10.002 0.5C9.99819 3.26052 7.76069 5.4972 5.00008 5.5L5 5.5L5 5.5L5 5.5Z" transform="translate(4.0008545 11.002045)" id="Shape#1" fill="#000000" fill-opacity="0.4" fill-rule="evenodd" stroke="none" />
    <path d="M0 2.5C0 1.11929 1.11929 0 2.5 0C3.88071 0 5 1.11929 5 2.5C5 3.88071 3.88071 5 2.5 5C1.11929 5 0 3.88071 0 2.5L0 2.5L0 2.5Z" transform="translate(6.499939 9.0000305)" id="Circle#2" fill="#F6D738" fill-opacity="0.8" fill-rule="evenodd" stroke="none" />
    <path d="M0 5C0 2.23858 2.23858 0 5 0C7.76142 0 10 2.23858 10 5C10 7.76142 7.76142 10 5 10C2.23858 10 0 7.76142 0 5Z" transform="translate(3.999878 6.499939)" id="path6403-Copy" fill="#FFFFFF" fill-opacity="0.08" fill-rule="evenodd" stroke="none" />
  </g>
</svg>