<?xml version="1.0" encoding="utf-8"?>
<svg width="47px" height="33px" viewbox="0 0 47 33" version="1.1" xmlns:xlink="http://www.w3.org/1999/xlink" xmlns="http://www.w3.org/2000/svg">
  <defs>
    <rect width="47" height="33" id="artboard_1" />
    <clipPath id="clip_1">
      <use xlink:href="#artboard_1" clip-rule="evenodd" />
    </clipPath>
  </defs>
  <g id="hoverOn00122" clip-path="url(#clip_1)">
    <g id="Group" transform="translate(0 -3.8146973E-05)">
      <path d="M0 2L0 1C0 0.723858 0.0976311 0.488155 0.292893 0.292893C0.488155 0.0976311 0.723858 0 1 0L14 0C14.2761 0 14.5118 0.0976311 14.7071 0.292893C14.9024 0.488155 15 0.723858 15 1L15 8C15 8.27614 14.9024 8.51184 14.7071 8.70711C14.5118 8.90237 14.2761 9 14 9L1 9C0.723858 9 0.488155 8.90237 0.292893 8.70711C0.0976311 8.51184 0 8.27614 0 8L0 2Z" transform="translate(0 2)" id="Rectangle" fill="#B59B87" fill-opacity="0.95" fill-rule="evenodd" stroke="none" />
      <path d="M0 0.5C0 0.361929 0.0488155 0.244078 0.146447 0.146447C0.244078 0.0488155 0.361929 0 0.5 0L14.5 0C14.6381 0 14.7559 0.0488155 14.8536 0.146447C14.9512 0.244078 15 0.361929 15 0.5C15 0.638071 14.9512 0.755922 14.8536 0.853553C14.7559 0.951184 14.6381 1 14.5 1L0.5 1C0.361929 1 0.244078 0.951184 0.146447 0.853553C0.0488155 0.755922 0 0.638071 0 0.5L0 0.5Z" id="Rectangle" fill="#FFEE98" fill-rule="evenodd" stroke="none" />
      <path d="M1.297 4.932L2.062 4.932L2.062 0L1.3 0L0 0.916L0 1.699L1.237 0.824L1.297 0.824L1.297 4.932Z" transform="translate(5.729004 4.068)" id="Shape" fill="#FFE97E" fill-rule="evenodd" stroke="none" />
      <path d="M0 2L0 1C0 0.723858 0.0976311 0.488155 0.292893 0.292893C0.488155 0.0976311 0.723858 0 1 0L14 0C14.2761 0 14.5118 0.0976311 14.7071 0.292893C14.9024 0.488155 15 0.723858 15 1L15 8C15 8.27614 14.9024 8.51184 14.7071 8.70711C14.5118 8.90237 14.2761 9 14 9L1 9C0.723858 9 0.488155 8.90237 0.292893 8.70711C0.0976311 8.51184 0 8.27614 0 8L0 2Z" transform="translate(16 13)" id="Rectangle" fill="#B59B87" fill-opacity="0.95" fill-rule="evenodd" stroke="none" />
      <path d="M0 0.5C0 0.361929 0.0488155 0.244078 0.146447 0.146447C0.244078 0.0488155 0.361929 0 0.5 0L14.5 0C14.6381 0 14.7559 0.0488155 14.8536 0.146447C14.9512 0.244078 15 0.361929 15 0.5C15 0.638071 14.9512 0.755922 14.8536 0.853553C14.7559 0.951184 14.6381 1 14.5 1L0.5 1C0.361929 1 0.244078 0.951184 0.146447 0.853553C0.0488155 0.755922 0 0.638071 0 0.5L0 0.5Z" transform="translate(16 11)" id="Rectangle" fill="#FFEE98" fill-rule="evenodd" stroke="none" />
      <path d="M4.3869e-05 1.55236L4.3869e-05 1.56236L0.725044 1.56236L0.725044 1.55236C0.715023 1.31073 0.808531 1.07628 0.982098 0.907873C1.15567 0.73946 1.39282 0.653063 1.63404 0.670362C1.8593 0.650785 2.08278 0.724065 2.2527 0.873222C2.42263 1.02238 2.52426 1.23447 2.53404 1.46036C2.53404 1.82236 2.37304 2.08236 1.71404 2.76936L0.0410442 4.50536L0.0410442 5.05936L3.36304 5.05936L3.36304 4.37236L1.10704 4.37236L1.10704 4.31436L2.20704 3.20336C3.03404 2.36636 3.28704 1.93836 3.28704 1.41536C3.2682 1.00848 3.08295 0.627233 2.77471 0.360973C2.46647 0.0947132 2.06234 -0.0331459 1.65704 0.00736237C1.22773 -0.0259676 0.804096 0.122209 0.489151 0.415866C0.174206 0.709524 -0.00320816 1.12176 4.3869e-05 1.55236L4.3869e-05 1.55236Z" transform="translate(21.32898 14.940638)" id="Shape" fill="#FFE97E" fill-rule="evenodd" stroke="none" />
      <path d="M0 2L0 1C0 0.723858 0.0976311 0.488155 0.292893 0.292893C0.488155 0.0976311 0.723858 0 1 0L14 0C14.2761 0 14.5118 0.0976311 14.7071 0.292893C14.9024 0.488155 15 0.723858 15 1L15 8C15 8.27614 14.9024 8.51184 14.7071 8.70711C14.5118 8.90237 14.2761 9 14 9L1 9C0.723858 9 0.488155 8.90237 0.292893 8.70711C0.0976311 8.51184 0 8.27614 0 8L0 2Z" transform="translate(32 24)" id="Rectangle" fill="#B59B87" fill-opacity="0.95" fill-rule="evenodd" stroke="none" />
      <path d="M0 0.5C0 0.361929 0.0488155 0.244078 0.146447 0.146447C0.244078 0.0488155 0.361929 0 0.5 0L14.5 0C14.6381 0 14.7559 0.0488155 14.8536 0.146447C14.9512 0.244078 15 0.361929 15 0.5C15 0.638071 14.9512 0.755922 14.8536 0.853553C14.7559 0.951184 14.6381 1 14.5 1L0.5 1C0.361929 1 0.244078 0.951184 0.146447 0.853553C0.0488155 0.755922 0 0.638071 0 0.5L0 0.5Z" transform="translate(32 22)" id="Rectangle" fill="#FFEE98" fill-rule="evenodd" stroke="none" />
      <path d="M1.149 2.84673L1.771 2.84673C2.417 2.84673 2.817 3.16473 2.817 3.67373C2.817 4.15873 2.393 4.50473 1.792 4.50473C1.191 4.50473 0.785999 4.20073 0.735001 3.72173L0 3.72173C0.0348816 4.15656 0.245796 4.55831 0.583919 4.83394C0.922043 5.10958 1.35805 5.2352 1.791 5.18173C2.22633 5.23233 2.66366 5.10517 3.00398 4.82903C3.3443 4.55289 3.55883 4.15114 3.599 3.71473C3.62906 3.08527 3.14525 2.54965 2.516 2.51573L2.516 2.46173C3.05107 2.35014 3.42527 1.86563 3.398 1.31973C3.36006 0.929657 3.16699 0.571184 2.86217 0.324846C2.55735 0.0785103 2.16635 -0.0350323 1.777 0.00972748C1.35931 -0.0378838 0.940674 0.0906696 0.621689 0.364492C0.302704 0.638313 0.112213 1.03265 0.0960007 1.45273L0.823997 1.45273C0.838772 1.2237 0.946392 1.01063 1.12196 0.862822C1.29752 0.71501 1.52581 0.645266 1.754 0.669727C2.291 0.669727 2.643 0.969729 2.643 1.42873C2.6386 1.65622 2.53837 1.87128 2.36699 2.02095C2.19561 2.17062 1.96902 2.24099 1.743 2.21473L1.143 2.21473L1.149 2.84673Z" transform="translate(37.21399 25.938272)" id="Shape" fill="#FFE97E" fill-rule="evenodd" stroke="none" />
    </g>
  </g>
</svg>