<?xml version="1.0" encoding="utf-8"?>
<svg width="70px" height="24px" viewbox="0 0 70 24" version="1.1" xmlns:xlink="http://www.w3.org/1999/xlink" xmlns="http://www.w3.org/2000/svg">
  <defs>
    <rect width="70" height="24" id="artboard_1" />
    <clipPath id="clip_1">
      <use xlink:href="#artboard_1" clip-rule="evenodd" />
    </clipPath>
  </defs>
  <g id="hover00125" clip-path="url(#clip_1)">
    <g id="Group" transform="translate(-6.1035156E-05 -5.1498413E-05)">
      <path d="M0 0L70 0L70 12L0 12L0 0Z" id="Rectangle" fill="#91807E" fill-rule="evenodd" stroke="none" />
      <path d="M0.767002 5.05048L0.767002 3.43048L1.321 2.81148L2.975 5.05048L3.932 5.05048L1.861 2.26148L3.768 0.118477L2.862 0.118477L0.821001 2.42948L0.766001 2.42948L0.766001 0.118477L0 0.118477L0 5.05048L0.767002 5.05048ZM7.867 4.35048L5.502 4.35048L5.502 2.87048L7.743 2.87048L7.743 2.21048L5.504 2.21048L5.504 0.815476L7.869 0.815476L7.869 0.115478L4.743 0.115478L4.743 5.05048L7.874 5.05048L7.867 4.35048ZM11.097 5.05048L11.097 3.06148L12.843 0.118477L11.992 0.118477L10.743 2.25048L10.685 2.25048L9.449 0.118477L8.598 0.118477L10.334 3.06148L10.334 5.05048L11.097 5.05048ZM15.715 5.05048L15.715 0.815476L17.265 0.815476L17.265 0.115478L13.4 0.115478L13.4 0.815476L14.952 0.815476L14.952 5.05048L15.715 5.05048ZM18.968 0.791478L20.043 0.791478C20.2884 0.758065 20.5361 0.834523 20.7199 1.00046C20.9038 1.1664 21.0052 1.40494 20.997 1.65248C21.013 1.89874 20.9172 2.13909 20.7362 2.30687C20.5553 2.47464 20.3084 2.552 20.064 2.51748L18.968 2.51748L18.968 0.791478ZM18.968 3.17048L20.043 3.17048L21.053 5.05048L21.938 5.05048L20.83 3.04448C21.426 2.83932 21.8156 2.26611 21.787 1.63648C21.8016 1.20899 21.6301 0.796176 21.3168 0.504951C21.0035 0.213725 20.5793 0.0727282 20.154 0.118477L18.202 0.118477L18.202 5.05048L18.968 5.05048L18.968 3.17048ZM26.07 5.05048L26.883 5.05048L25.103 0.118477L24.279 0.118477L22.498 5.05048L23.284 5.05048L23.743 3.74148L25.623 3.74148L26.07 5.05048ZM24.652 1.01348L24.71 1.01348L25.424 3.09848L23.934 3.09848L24.652 1.01348ZM29.533 5.17048C30.5333 5.24675 31.4244 4.54158 31.58 3.55048L30.818 3.55048C30.6629 4.1223 30.1238 4.50363 29.533 4.45948C28.644 4.45948 28.091 3.73848 28.091 2.58948C28.091 1.44048 28.645 0.716477 29.53 0.716477C30.144 0.691997 30.6872 1.11129 30.819 1.71148L31.581 1.71148C31.4464 0.694791 30.5543 -0.048562 29.53 0.00247669C28.159 0.00247669 27.308 0.990476 27.308 2.58948C27.308 4.18848 28.162 5.17048 29.533 5.17048L29.533 5.17048ZM33.35 5.05048L33.35 3.43048L33.904 2.81148L35.558 5.05048L36.515 5.05048L34.443 2.26148L36.35 0.118477L35.443 0.118477L33.405 2.42848L33.35 2.42848L33.35 0.118477L32.584 0.118477L32.584 5.05048L33.35 5.05048Z" transform="translate(16.957 3.449523)" id="Shape" fill="#DBD7D7" fill-rule="evenodd" stroke="none" />
    </g>
    <g id="Group" transform="translate(-6.1035156E-05 12.0311775)">
      <path d="M0 0L70 0L70 12L0 12L0 0Z" id="Rectangle" fill="#A58470" fill-rule="evenodd" stroke="none" />
      <path d="M0.767002 5.05048L0.767002 3.43048L1.321 2.81148L2.975 5.05048L3.932 5.05048L1.861 2.26148L3.768 0.118477L2.862 0.118477L0.821001 2.42948L0.766001 2.42948L0.766001 0.118477L0 0.118477L0 5.05048L0.767002 5.05048ZM7.867 4.35048L5.502 4.35048L5.502 2.87048L7.743 2.87048L7.743 2.21048L5.504 2.21048L5.504 0.815476L7.869 0.815476L7.869 0.115478L4.743 0.115478L4.743 5.05048L7.874 5.05048L7.867 4.35048ZM11.097 5.05048L11.097 3.06148L12.843 0.118477L11.992 0.118477L10.743 2.25048L10.685 2.25048L9.449 0.118477L8.598 0.118477L10.334 3.06148L10.334 5.05048L11.097 5.05048ZM15.715 5.05048L15.715 0.815476L17.265 0.815476L17.265 0.115478L13.4 0.115478L13.4 0.815476L14.952 0.815476L14.952 5.05048L15.715 5.05048ZM18.968 0.791478L20.043 0.791478C20.2884 0.758065 20.5361 0.834523 20.7199 1.00046C20.9038 1.1664 21.0052 1.40494 20.997 1.65248C21.013 1.89874 20.9172 2.13909 20.7362 2.30687C20.5553 2.47464 20.3084 2.552 20.064 2.51748L18.968 2.51748L18.968 0.791478ZM18.968 3.17048L20.043 3.17048L21.053 5.05048L21.938 5.05048L20.83 3.04448C21.426 2.83932 21.8156 2.26611 21.787 1.63648C21.8016 1.20899 21.6301 0.796176 21.3168 0.504951C21.0035 0.213725 20.5793 0.0727282 20.154 0.118477L18.202 0.118477L18.202 5.05048L18.968 5.05048L18.968 3.17048ZM26.07 5.05048L26.883 5.05048L25.103 0.118477L24.279 0.118477L22.498 5.05048L23.284 5.05048L23.743 3.74148L25.623 3.74148L26.07 5.05048ZM24.652 1.01348L24.71 1.01348L25.424 3.09848L23.934 3.09848L24.652 1.01348ZM29.533 5.17048C30.5333 5.24675 31.4244 4.54158 31.58 3.55048L30.818 3.55048C30.6629 4.1223 30.1238 4.50363 29.533 4.45948C28.644 4.45948 28.091 3.73848 28.091 2.58948C28.091 1.44048 28.645 0.716477 29.53 0.716477C30.144 0.691997 30.6872 1.11129 30.819 1.71148L31.581 1.71148C31.4464 0.694791 30.5543 -0.048562 29.53 0.00247669C28.159 0.00247669 27.308 0.990476 27.308 2.58948C27.308 4.18848 28.162 5.17048 29.533 5.17048L29.533 5.17048ZM33.35 5.05048L33.35 3.43048L33.904 2.81148L35.558 5.05048L36.515 5.05048L34.443 2.26148L36.35 0.118477L35.443 0.118477L33.405 2.42848L33.35 2.42848L33.35 0.118477L32.584 0.118477L32.584 5.05048L33.35 5.05048Z" transform="translate(16.95697 3.449523)" id="Shape" fill="#F6D738" fill-rule="evenodd" stroke="none" />
    </g>
  </g>
</svg>