<?xml version="1.0" encoding="utf-8"?>
<svg width="12px" height="24px" viewBox="0 0 12 24" version="1.1" xmlns:xlink="http://www.w3.org/1999/xlink" xmlns="http://www.w3.org/2000/svg">
  <defs>
    <path d="M0 0L12 0L12 24L0 24L0 0Z" id="path_1" />
    <rect width="12" height="24" id="artboard_1" />
    <clipPath id="clip_1">
      <use xlink:href="#artboard_1" clip-rule="evenodd" />
    </clipPath>
    <clipPath id="mask_1">
      <use xlink:href="#path_1" />
    </clipPath>
  </defs>
  <g id="hover00140" clip-path="url(#clip_1)">
    <path d="M0 0L12 0L12 24L0 24L0 0Z" id="Background" fill="none" fill-rule="evenodd" stroke="none" />
    <g clip-path="url(#mask_1)">
      <path d="M0.5 2.70022L0.5 1.60011C0.5 1.29632 0.607405 1.03702 0.822215 0.822215C1.03702 0.607405 1.29632 0.5 1.60011 0.5L10.3999 0.5C10.7037 0.5 10.963 0.607405 11.1778 0.822215C11.3926 1.03702 11.5 1.29632 11.5 1.60011L11.5 10.3999C11.5 10.7037 11.3926 10.963 11.1778 11.1778C10.963 11.3926 10.7037 11.5 10.3999 11.5L1.60011 11.5C1.29632 11.5 1.03702 11.3926 0.822215 11.1778C0.607405 10.963 0.5 10.7037 0.5 10.3999L0.5 2.70022Z" id="rect36680" fill="#FFFFFF" fill-opacity="0.14" fill-rule="evenodd" stroke="none" />
      <path d="M1 3L1 2C1 1.72386 1.09763 1.48816 1.29289 1.29289C1.48816 1.09763 1.72386 1 2 1L9.999 1C10.2751 1 10.5108 1.09763 10.7061 1.29289C10.9014 1.48816 10.999 1.72386 10.999 2L10.999 10C10.999 10.2761 10.9014 10.5118 10.7061 10.7071C10.5108 10.9024 10.2751 11 9.999 11L2 11C1.72386 11 1.48816 10.9024 1.29289 10.7071C1.09763 10.5118 1 10.2761 1 10L1 3Z" id="rect36690" fill="#FFFFFF" fill-opacity="0" fill-rule="evenodd" stroke="none" />
      <path d="M0.5 14.7L0.5 13.6C0.5 13.2962 0.607394 13.037 0.822183 12.8222C1.03697 12.6074 1.29624 12.5 1.6 12.5L10.4 12.5C10.7038 12.5 10.963 12.6074 11.1778 12.8222C11.3926 13.037 11.5 13.2962 11.5 13.6L11.5 22.4C11.5 22.7038 11.3926 22.963 11.1778 23.1778C10.963 23.3926 10.7038 23.5 10.4 23.5L1.6 23.5C1.29624 23.5 1.03697 23.3926 0.822183 23.1778C0.607394 22.963 0.5 22.7038 0.5 22.4L0.5 14.7Z" id="rect36696" fill="#FFFFFF" fill-opacity="0.14" fill-rule="evenodd" stroke="none" />
      <path d="M1 15L1 14C1 13.7239 1.09763 13.4882 1.29289 13.2929C1.48816 13.0976 1.72386 13 2 13L10 13C10.2761 13 10.5118 13.0976 10.7071 13.2929C10.9024 13.4882 11 13.7239 11 14L11 22C11 22.2761 10.9024 22.5118 10.7071 22.7071C10.5118 22.9024 10.2761 23 10 23L2 23C1.72386 23 1.48816 22.9024 1.29289 22.7071C1.09763 22.5118 1 22.2761 1 22L1 15Z" id="rect36706" fill="#FFFFFF" fill-opacity="0" fill-rule="evenodd" stroke="none" />
      <path d="M0.5 2.5L0.5 1.5C0.5 1.22386 0.597631 0.988155 0.792893 0.792893C0.988155 0.597631 1.22386 0.5 1.5 0.5L11.5 0.5C11.7761 0.5 12.0118 0.597631 12.2071 0.792893C12.4024 0.988155 12.5 1.22386 12.5 1.5L12.5 11.5C12.5 11.7761 12.4024 12.0118 12.2071 12.2071C12.0118 12.4024 11.7761 12.5 11.5 12.5L1.5 12.5C1.22386 12.5 0.988155 12.4024 0.792893 12.2071C0.597631 12.0118 0.5 11.7761 0.5 11.5L0.5 2.5Z" id="rect35640" fill="#FFFFFF" fill-opacity="0" fill-rule="evenodd" stroke="none" />
      <path d="M0.5 14.501L0.5 13.501C0.5 13.2249 0.597631 12.9892 0.792893 12.7939C0.988155 12.5986 1.22386 12.501 1.5 12.501L11.5 12.501C11.7761 12.501 12.0118 12.5986 12.2071 12.7939C12.4024 12.9892 12.5 13.2249 12.5 13.501L12.5 23.501C12.5 23.7771 12.4024 24.0129 12.2071 24.2081C12.0118 24.4034 11.7761 24.501 11.5 24.501L1.5 24.501C1.22386 24.501 0.988155 24.4034 0.792893 24.2081C0.597631 24.0129 0.5 23.7771 0.5 23.501L0.5 14.501Z" id="rect35656" fill="#FFFFFF" fill-opacity="0" fill-rule="evenodd" stroke="none" />
    </g>
  </g>
</svg>