<?xml version="1.0" encoding="UTF-8" standalone="no"?>
<svg
   xmlns:dc="http://purl.org/dc/elements/1.1/"
   xmlns:cc="http://creativecommons.org/ns#"
   xmlns:rdf="http://www.w3.org/1999/02/22-rdf-syntax-ns#"
   xmlns:svg="http://www.w3.org/2000/svg"
   xmlns="http://www.w3.org/2000/svg"
   xmlns:sodipodi="http://sodipodi.sourceforge.net/DTD/sodipodi-0.dtd"
   xmlns:inkscape="http://www.inkscape.org/namespaces/inkscape"
   width="180"
   height="108"
   viewBox="0 0 180 108"
   fill="none"
   version="1.1"
   id="svg1076"
   sodipodi:docname="hover00169.svg"
   inkscape:version="1.0.1 (3bc2e813f5, 2020-09-07)">
  <metadata
     id="metadata1082">
    <rdf:RDF>
      <cc:Work
         rdf:about="">
        <dc:format>image/svg+xml</dc:format>
        <dc:type
           rdf:resource="http://purl.org/dc/dcmitype/StillImage" />
        <dc:title></dc:title>
      </cc:Work>
    </rdf:RDF>
  </metadata>
  <defs
     id="defs1080" />
  <sodipodi:namedview
     pagecolor="#303030"
     bordercolor="#666666"
     borderopacity="1"
     objecttolerance="10"
     gridtolerance="10"
     guidetolerance="10"
     inkscape:pageopacity="0"
     inkscape:pageshadow="2"
     inkscape:window-width="3753"
     inkscape:window-height="2137"
     id="namedview1078"
     showgrid="false"
     inkscape:zoom="66.310902"
     inkscape:cx="15.73967"
     inkscape:cy="16.257827"
     inkscape:window-x="-8"
     inkscape:window-y="-8"
     inkscape:window-maximized="1"
     inkscape:current-layer="svg1076" />
  <path
     fill-rule="evenodd"
     clip-rule="evenodd"
     d="M 3,10 H 6 V 9 H 3 Z"
     fill="#ffffff"
     id="path978"
     style="opacity:0.5;stroke-width:0.5" />
  <path
     d="M 7.53782,26.0874 C 12.3895,26.1067 13.9887,29.6776 13.9916,31 L 15,30.9974 C 14.9956,29.0171 12.8547,24.8931 7.28155,25.0021 H 3 v 1.0873 h 4.24682 c 0.0147,-4e-4 0.0294,3e-4 0.04405,0 h 0.24695 z"
     fill="#ffffff"
     id="path980"
     style="opacity:0.5" />
  <path
     fill-rule="evenodd"
     clip-rule="evenodd"
     d="m 28,26 h -7 v -1 h 7 c 1.3139,0 2.5974,0.2883 3.5437,1.2492 C 32.4867,27.2067 33,28.736 33,31 H 32 C 32,28.864 31.5133,27.6433 30.8313,26.9508 30.1526,26.2617 29.1861,26 28,26 Z"
     fill="#ffffff"
     id="path982"
     style="opacity:0.5" />
  <path
     d="m 43.5378,27.0874 c 4.8517,0.0193 6.4509,3.5902 6.4538,4.9126 L 51,31.9974 C 50.9956,30.0171 48.8547,25.8931 43.2815,26.0021 H 39 v 1.0873 h 4.2468 c 0.0147,-4e-4 0.0294,3e-4 0.0441,0 h 0.2469 z"
     fill="#ffffff"
     id="path984"
     style="opacity:0.5" />
  <path
     d="m 41.4607,22.9 h 0.1575 c 0.0634,0 0.1159,-0.0083 0.1575,-0.025 0.0417,-0.0183 0.0775,-0.0467 0.1075,-0.085 l 0.9975,-1.2625 c 0.0417,-0.0533 0.085,-0.09 0.13,-0.11 0.0467,-0.0217 0.105,-0.0325 0.175,-0.0325 h 0.58 l -1.2175,1.5025 c -0.0716,0.0917 -0.1458,0.1567 -0.2225,0.195 0.055,0.02 0.1042,0.0483 0.1475,0.085 0.045,0.035 0.0875,0.0817 0.1275,0.14 L 43.8557,25 h -0.5925 c -0.08,0 -0.14,-0.0108 -0.18,-0.0325 -0.0383,-0.0233 -0.0708,-0.0567 -0.0975,-0.1 l -1.0225,-1.335 c -0.0316,-0.045 -0.0683,-0.0767 -0.11,-0.095 C 41.8116,23.4192 41.7516,23.41 41.6732,23.41 H 41.4607 V 25 h -0.6725 v -3.615 h 0.6725 z m 2.6228,-0.5075 c 0.025,-0.1733 0.0733,-0.325 0.145,-0.455 0.0716,-0.1317 0.1608,-0.2408 0.2675,-0.3275 0.1083,-0.0883 0.2316,-0.1542 0.37,-0.1975 0.14,-0.045 0.29,-0.0675 0.45,-0.0675 0.1666,0 0.3166,0.0242 0.45,0.0725 0.135,0.0467 0.25,0.1125 0.345,0.1975 0.095,0.0833 0.1675,0.1817 0.2175,0.295 0.0516,0.1133 0.0775,0.2358 0.0775,0.3675 0,0.115 -0.0134,0.2167 -0.04,0.305 -0.025,0.0867 -0.0617,0.1625 -0.11,0.2275 -0.0484,0.065 -0.1084,0.12 -0.18,0.165 -0.0717,0.045 -0.1525,0.0825 -0.2425,0.1125 0.2166,0.0683 0.3783,0.1725 0.485,0.3125 0.1066,0.14 0.16,0.3158 0.16,0.5275 0,0.18 -0.0334,0.3392 -0.1,0.4775 -0.0667,0.1383 -0.1567,0.255 -0.27,0.35 -0.1134,0.0933 -0.245,0.1642 -0.395,0.2125 -0.1484,0.0483 -0.3059,0.0725 -0.4725,0.0725 -0.1817,0 -0.34,-0.0208 -0.475,-0.0625 -0.135,-0.0417 -0.2525,-0.1033 -0.3525,-0.185 -0.1,-0.0817 -0.185,-0.1817 -0.255,-0.3 -0.07,-0.1183 -0.13,-0.255 -0.18,-0.41 L 44.251,23.97 c 0.0716,-0.03 0.1383,-0.0375 0.2,-0.0225 0.0633,0.0133 0.1091,0.0467 0.1375,0.1 0.03,0.0583 0.0625,0.1158 0.0975,0.1725 0.0366,0.0567 0.08,0.1075 0.13,0.1525 0.05,0.0433 0.1083,0.0792 0.175,0.1075 0.0683,0.0267 0.1491,0.04 0.2425,0.04 0.105,0 0.1966,-0.0167 0.275,-0.05 0.0783,-0.035 0.1433,-0.08 0.195,-0.135 0.0533,-0.055 0.0925,-0.1158 0.1175,-0.1825 0.0266,-0.0683 0.04,-0.1367 0.04,-0.205 0,-0.0867 -0.0092,-0.165 -0.0275,-0.235 C 45.8151,23.6408 45.7768,23.58 45.7185,23.53 45.6601,23.48 45.576,23.4408 45.466,23.4125 45.3576,23.3842 45.2118,23.37 45.0285,23.37 v -0.44 c 0.1516,-0.0017 0.2775,-0.0158 0.3775,-0.0425 0.1,-0.0267 0.1791,-0.0633 0.2375,-0.11 0.06,-0.0483 0.1016,-0.1058 0.125,-0.1725 0.0233,-0.0667 0.035,-0.14 0.035,-0.22 0,-0.17 -0.0475,-0.2992 -0.1425,-0.3875 -0.095,-0.0883 -0.2217,-0.1325 -0.38,-0.1325 -0.0734,0 -0.1409,0.0108 -0.2025,0.0325 -0.0617,0.02 -0.1175,0.0492 -0.1675,0.0875 -0.0484,0.0367 -0.0892,0.08 -0.1225,0.13 -0.0334,0.05 -0.0584,0.105 -0.075,0.165 -0.0284,0.0767 -0.0659,0.1275 -0.1125,0.1525 -0.045,0.025 -0.1092,0.0308 -0.1925,0.0175 z m 3.6454,0.305 c 0.08,-0.0167 0.1566,-0.0283 0.23,-0.035 0.0733,-0.0083 0.1441,-0.0125 0.2125,-0.0125 0.19,0 0.3575,0.0283 0.5025,0.085 0.145,0.0567 0.2666,0.135 0.365,0.235 0.0983,0.1 0.1725,0.2175 0.2225,0.3525 0.05,0.1333 0.075,0.2775 0.075,0.4325 0,0.1917 -0.0342,0.3667 -0.1025,0.525 -0.0667,0.1583 -0.16,0.2942 -0.28,0.4075 -0.12,0.1117 -0.2625,0.1983 -0.4275,0.26 -0.1634,0.0617 -0.3417,0.0925 -0.535,0.0925 -0.1134,0 -0.2209,-0.0117 -0.3225,-0.035 -0.1017,-0.0233 -0.1975,-0.0542 -0.2875,-0.0925 -0.0884,-0.04 -0.1709,-0.085 -0.2475,-0.135 -0.075,-0.0517 -0.1425,-0.1058 -0.2025,-0.1625 l 0.19,-0.2625 c 0.04,-0.0567 0.0925,-0.085 0.1575,-0.085 0.0416,0 0.0841,0.0133 0.1275,0.04 0.0433,0.0267 0.0925,0.0558 0.1475,0.0875 0.0566,0.0317 0.1225,0.0608 0.1975,0.0875 0.0766,0.0267 0.1683,0.04 0.275,0.04 0.1133,0 0.2133,-0.0183 0.3,-0.055 0.0866,-0.0367 0.1583,-0.0875 0.215,-0.1525 0.0583,-0.0667 0.1016,-0.145 0.13,-0.235 0.03,-0.0917 0.045,-0.1908 0.045,-0.2975 0,-0.1967 -0.0575,-0.35 -0.1725,-0.46 -0.1134,-0.1117 -0.2817,-0.1675 -0.505,-0.1675 -0.1717,0 -0.3475,0.0317 -0.5275,0.095 l -0.385,-0.11 0.3,-1.755 h 1.785 v 0.2625 c 0,0.0883 -0.0275,0.16 -0.0825,0.215 -0.055,0.055 -0.1484,0.0825 -0.28,0.0825 h -0.9925 z"
     fill="#ffffff"
     id="path986"
     style="opacity:0.5" />
  <path
     fill-rule="evenodd"
     clip-rule="evenodd"
     d="m 63.0694,25.4795 0.3601,-0.9513 3.0963,1.6582 -0.3647,0.9488 z m -0.357,0.9431 -0.4373,1.1551 3.0815,1.6503 0.4428,-1.152 z m -1.2011,3.1729 0.4068,-1.0746 3.0768,1.6478 -0.412,1.0718 z m -0.357,0.9432 -0.6867,1.8137 -0.9352,-0.354 3.8822,-10.2555 0.9353,0.354 -0.5633,1.4881 3.1009,1.6607 0.6458,-1.68 0.9334,0.3588 -3.9348,10.2354 -0.9334,-0.3588 0.6228,-1.6199 z"
     fill="#ffffff"
     id="path988"
     style="opacity:0.5" />
  <path
     d="M 60.2212,24.445 V 25 h -2.1175 v -3.615 h 0.6725 v 3.06 z"
     fill="#ffffff"
     id="path990"
     style="opacity:0.5" />
  <path
     fill-rule="evenodd"
     clip-rule="evenodd"
     d="m 81.0694,25.4795 0.3601,-0.9513 3.0963,1.6582 -0.3647,0.9488 z m -0.357,0.9431 -0.4373,1.1551 3.0815,1.6503 0.4428,-1.152 z m -1.2011,3.1729 0.4068,-1.0746 3.0768,1.6478 -0.412,1.0718 z m -0.357,0.9432 -0.6867,1.8137 -0.9352,-0.354 3.8822,-10.2555 0.9353,0.354 -0.5633,1.4881 3.1009,1.6607 0.6458,-1.68 0.9334,0.3588 -3.9348,10.2354 -0.9334,-0.3588 0.6228,-1.6199 z"
     fill="#ffffff"
     id="path992"
     style="opacity:0.5" />
  <path
     d="M 78.7642,21.385 77.3042,25 h -0.6075 l -1.46,-3.615 h 0.54 c 0.0583,0 0.1058,0.0142 0.1425,0.0425 0.0366,0.0283 0.0641,0.065 0.0825,0.11 l 0.8525,2.205 c 0.0283,0.0717 0.055,0.1508 0.08,0.2375 0.0266,0.085 0.0516,0.1742 0.075,0.2675 0.02,-0.0933 0.0416,-0.1825 0.065,-0.2675 0.0233,-0.0867 0.0491,-0.1658 0.0775,-0.2375 l 0.8475,-2.205 c 0.0133,-0.0383 0.0391,-0.0733 0.0775,-0.105 0.04,-0.0317 0.0883,-0.0475 0.145,-0.0475 z"
     fill="#ffffff"
     id="path994"
     style="opacity:0.5" />
  <path
     fill-rule="evenodd"
     clip-rule="evenodd"
     d="m 99.0694,25.4795 0.3601,-0.9513 3.0965,1.6582 -0.365,0.9488 z m -0.357,0.9431 -0.4373,1.1551 3.0819,1.6503 0.442,-1.152 z m -1.2011,3.1729 0.4068,-1.0746 3.0769,1.6478 -0.412,1.0718 z m -0.357,0.9432 -0.6867,1.8137 -0.9352,-0.354 3.8822,-10.2555 0.9354,0.354 -0.5634,1.4881 3.1004,1.6607 0.646,-1.68 0.934,0.3588 -3.935,10.2354 -0.9335,-0.3588 0.6225,-1.6199 z"
     fill="#ffffff"
     id="path996"
     style="opacity:0.5" />
  <path
     d="m 96.7106,23.1925 c 0,0.265 -0.0441,0.5083 -0.1325,0.73 -0.0883,0.2217 -0.2125,0.4125 -0.3725,0.5725 -0.16,0.16 -0.3525,0.2842 -0.5775,0.3725 C 95.4031,24.9558 95.1531,25 94.8781,25 h -1.3775 v -3.615 h 1.3775 c 0.275,0 0.525,0.045 0.75,0.135 0.225,0.0883 0.4175,0.2125 0.5775,0.3725 0.16,0.1583 0.2842,0.3483 0.3725,0.57 0.0884,0.2217 0.1325,0.465 0.1325,0.73 z m -0.69,0 c 0,-0.1983 -0.0266,-0.3758 -0.08,-0.5325 -0.0516,-0.1583 -0.1275,-0.2917 -0.2275,-0.4 -0.0983,-0.11 -0.2183,-0.1942 -0.36,-0.2525 -0.14,-0.0583 -0.2983,-0.0875 -0.475,-0.0875 h -0.7025 v 2.545 h 0.7025 c 0.1767,0 0.335,-0.0292 0.475,-0.0875 0.1417,-0.0583 0.2617,-0.1417 0.36,-0.25 0.1,-0.11 0.1759,-0.2433 0.2275,-0.4 0.0534,-0.1583 0.08,-0.3367 0.08,-0.535 z"
     fill="#ffffff"
     id="path998"
     style="opacity:0.5" />
  <path
     d="m 115.538,27.0874 c 4.852,0.0193 6.451,3.5902 6.454,4.9126 L 123,31.9974 c -0.004,-1.9803 -2.145,-6.1043 -7.718,-5.9953 H 111 v 1.0873 h 4.247 c 0.015,-4e-4 0.029,3e-4 0.044,0 h 0.247 z"
     fill="#ffffff"
     id="path1000"
     style="opacity:0.5" />
  <path
     d="m 113.296,23.1925 c 0,0.265 -0.044,0.5108 -0.132,0.7375 -0.087,0.225 -0.21,0.42 -0.37,0.585 -0.16,0.165 -0.353,0.2942 -0.578,0.3875 -0.225,0.0917 -0.475,0.1375 -0.75,0.1375 -0.273,0 -0.522,-0.0458 -0.747,-0.1375 -0.225,-0.0933 -0.419,-0.2225 -0.58,-0.3875 -0.16,-0.165 -0.284,-0.36 -0.373,-0.585 -0.088,-0.2267 -0.132,-0.4725 -0.132,-0.7375 0,-0.265 0.044,-0.51 0.132,-0.735 0.089,-0.2267 0.213,-0.4225 0.373,-0.5875 0.161,-0.165 0.355,-0.2933 0.58,-0.385 0.225,-0.0933 0.474,-0.14 0.747,-0.14 0.184,0 0.356,0.0217 0.518,0.065 0.161,0.0417 0.31,0.1017 0.445,0.18 0.135,0.0767 0.256,0.1708 0.362,0.2825 0.109,0.11 0.2,0.2333 0.275,0.37 0.075,0.1367 0.132,0.285 0.17,0.445 0.04,0.16 0.06,0.3283 0.06,0.505 z m -0.687,0 c 0,-0.1983 -0.027,-0.3758 -0.08,-0.5325 -0.054,-0.1583 -0.129,-0.2925 -0.228,-0.4025 -0.098,-0.11 -0.218,-0.1942 -0.36,-0.2525 -0.14,-0.0583 -0.298,-0.0875 -0.475,-0.0875 -0.176,0 -0.336,0.0292 -0.477,0.0875 -0.14,0.0583 -0.26,0.1425 -0.36,0.2525 -0.099,0.11 -0.174,0.2442 -0.228,0.4025 -0.053,0.1567 -0.08,0.3342 -0.08,0.5325 0,0.1983 0.027,0.3767 0.08,0.535 0.054,0.1567 0.129,0.29 0.228,0.4 0.1,0.1083 0.22,0.1917 0.36,0.25 0.141,0.0583 0.301,0.0875 0.477,0.0875 0.177,0 0.335,-0.0292 0.475,-0.0875 0.142,-0.0583 0.262,-0.1417 0.36,-0.25 0.099,-0.11 0.174,-0.2433 0.228,-0.4 0.053,-0.1583 0.08,-0.3367 0.08,-0.535 z m 2.63,1.2825 c 0.125,0 0.23,-0.015 0.315,-0.045 0.085,-0.03 0.153,-0.07 0.203,-0.12 0.052,-0.05 0.088,-0.1083 0.11,-0.175 0.023,-0.0667 0.035,-0.1375 0.035,-0.2125 0,-0.0783 -0.013,-0.1483 -0.038,-0.21 -0.025,-0.0633 -0.064,-0.1167 -0.117,-0.16 -0.053,-0.045 -0.123,-0.0792 -0.208,-0.1025 -0.083,-0.0233 -0.184,-0.035 -0.302,-0.035 h -0.678 v 1.06 z m -0.68,-2.57 v 1.045 h 0.535 c 0.23,0 0.404,-0.0417 0.52,-0.125 0.119,-0.0833 0.178,-0.2158 0.178,-0.3975 0,-0.1883 -0.053,-0.3225 -0.16,-0.4025 -0.107,-0.08 -0.273,-0.12 -0.5,-0.12 z m 0.573,-0.52 c 0.237,0 0.439,0.0225 0.607,0.0675 0.169,0.045 0.306,0.1092 0.413,0.1925 0.108,0.0833 0.187,0.1842 0.237,0.3025 0.05,0.1183 0.075,0.2517 0.075,0.4 0,0.085 -0.012,0.1667 -0.037,0.245 -0.025,0.0767 -0.064,0.1492 -0.118,0.2175 -0.051,0.0667 -0.118,0.1275 -0.2,0.1825 -0.08,0.055 -0.175,0.1017 -0.287,0.14 0.497,0.1117 0.745,0.38 0.745,0.805 0,0.1533 -0.029,0.295 -0.088,0.425 -0.058,0.13 -0.143,0.2425 -0.255,0.3375 -0.111,0.0933 -0.249,0.1667 -0.412,0.22 -0.163,0.0533 -0.35,0.08 -0.56,0.08 h -1.365 v -3.615 z m 1.928,1.8475 h 1.295 v 0.515 H 117.06 Z M 121.863,25 h -0.67 c -0.046,0 -0.084,-0.0117 -0.112,-0.035 -0.027,-0.0233 -0.048,-0.05 -0.065,-0.08 l -0.838,-1.3875 c -0.013,0.0417 -0.029,0.0775 -0.047,0.1075 l -0.803,1.28 c -0.02,0.0283 -0.043,0.055 -0.07,0.08 -0.025,0.0233 -0.058,0.035 -0.1,0.035 h -0.627 l 1.2,-1.86 -1.153,-1.755 h 0.67 c 0.047,0 0.08,0.0067 0.1,0.02 0.022,0.0117 0.042,0.0317 0.06,0.06 l 0.823,1.325 c 0.017,-0.0417 0.037,-0.0833 0.06,-0.125 l 0.755,-1.1875 c 0.018,-0.0317 0.038,-0.055 0.06,-0.07 0.022,-0.015 0.049,-0.0225 0.082,-0.0225 h 0.643 l -1.163,1.7275 z m 1.769,-1.91 c -0.07,-0.085 -0.147,-0.145 -0.23,-0.18 -0.082,-0.035 -0.17,-0.0525 -0.265,-0.0525 -0.094,0 -0.178,0.0175 -0.253,0.0525 -0.075,0.035 -0.139,0.0883 -0.192,0.16 -0.054,0.07 -0.094,0.16 -0.123,0.27 -0.028,0.1083 -0.042,0.2367 -0.042,0.385 0,0.15 0.011,0.2775 0.035,0.3825 0.025,0.1033 0.06,0.1883 0.105,0.255 0.045,0.065 0.1,0.1125 0.165,0.1425 0.065,0.0283 0.137,0.0425 0.217,0.0425 0.129,0 0.238,-0.0267 0.328,-0.08 0.09,-0.0533 0.175,-0.1292 0.255,-0.2275 z m 0.617,-1.805 V 25 h -0.377 c -0.082,0 -0.134,-0.0375 -0.155,-0.1125 L 123.664,24.64 c -0.103,0.1183 -0.222,0.2142 -0.357,0.2875 -0.134,0.0733 -0.289,0.11 -0.468,0.11 -0.14,0 -0.268,-0.0292 -0.385,-0.0875 -0.116,-0.0583 -0.217,-0.1425 -0.302,-0.2525 -0.084,-0.1117 -0.149,-0.2492 -0.195,-0.4125 -0.045,-0.1633 -0.068,-0.35 -0.068,-0.56 0,-0.19 0.026,-0.3667 0.078,-0.53 0.051,-0.1633 0.126,-0.305 0.222,-0.425 0.097,-0.12 0.213,-0.2133 0.348,-0.28 0.135,-0.0683 0.286,-0.1025 0.455,-0.1025 0.143,0 0.266,0.0225 0.367,0.0675 0.102,0.045 0.193,0.1058 0.273,0.1825 V 21.285 Z"
     fill="#ffffff"
     id="path1002"
     style="opacity:0.5" />
  <path
     fill-rule="evenodd"
     clip-rule="evenodd"
     d="m 136,27 h -7 v -1 h 7 c 1.314,0 2.597,0.2883 3.544,1.2492 C 140.487,28.2067 141,29.736 141,32 h -1 c 0,-2.136 -0.487,-3.3567 -1.169,-4.0492 C 138.153,27.2617 137.186,27 136,27 Z"
     fill="#ffffff"
     id="path1004"
     style="opacity:0.5" />
  <path
     d="m 131.296,23.1925 c 0,0.265 -0.044,0.5108 -0.132,0.7375 -0.087,0.225 -0.21,0.42 -0.37,0.585 -0.16,0.165 -0.353,0.2942 -0.578,0.3875 -0.225,0.0917 -0.475,0.1375 -0.75,0.1375 -0.273,0 -0.522,-0.0458 -0.747,-0.1375 -0.225,-0.0933 -0.419,-0.2225 -0.58,-0.3875 -0.16,-0.165 -0.284,-0.36 -0.373,-0.585 -0.088,-0.2267 -0.132,-0.4725 -0.132,-0.7375 0,-0.265 0.044,-0.51 0.132,-0.735 0.089,-0.2267 0.213,-0.4225 0.373,-0.5875 0.161,-0.165 0.355,-0.2933 0.58,-0.385 0.225,-0.0933 0.474,-0.14 0.747,-0.14 0.184,0 0.356,0.0217 0.518,0.065 0.161,0.0417 0.31,0.1017 0.445,0.18 0.135,0.0767 0.256,0.1708 0.362,0.2825 0.109,0.11 0.2,0.2333 0.275,0.37 0.075,0.1367 0.132,0.285 0.17,0.445 0.04,0.16 0.06,0.3283 0.06,0.505 z m -0.687,0 c 0,-0.1983 -0.027,-0.3758 -0.08,-0.5325 -0.054,-0.1583 -0.129,-0.2925 -0.228,-0.4025 -0.098,-0.11 -0.218,-0.1942 -0.36,-0.2525 -0.14,-0.0583 -0.298,-0.0875 -0.475,-0.0875 -0.176,0 -0.336,0.0292 -0.477,0.0875 -0.14,0.0583 -0.26,0.1425 -0.36,0.2525 -0.099,0.11 -0.174,0.2442 -0.228,0.4025 -0.053,0.1567 -0.08,0.3342 -0.08,0.5325 0,0.1983 0.027,0.3767 0.08,0.535 0.054,0.1567 0.129,0.29 0.228,0.4 0.1,0.1083 0.22,0.1917 0.36,0.25 0.141,0.0583 0.301,0.0875 0.477,0.0875 0.177,0 0.335,-0.0292 0.475,-0.0875 0.142,-0.0583 0.262,-0.1417 0.36,-0.25 0.099,-0.11 0.174,-0.2433 0.228,-0.4 0.053,-0.1583 0.08,-0.3367 0.08,-0.535 z m 2.63,1.2825 c 0.125,0 0.23,-0.015 0.315,-0.045 0.085,-0.03 0.153,-0.07 0.203,-0.12 0.052,-0.05 0.088,-0.1083 0.11,-0.175 0.023,-0.0667 0.035,-0.1375 0.035,-0.2125 0,-0.0783 -0.013,-0.1483 -0.038,-0.21 -0.025,-0.0633 -0.064,-0.1167 -0.117,-0.16 -0.053,-0.045 -0.123,-0.0792 -0.208,-0.1025 -0.083,-0.0233 -0.184,-0.035 -0.302,-0.035 h -0.678 v 1.06 z m -0.68,-2.57 v 1.045 h 0.535 c 0.23,0 0.404,-0.0417 0.52,-0.125 0.119,-0.0833 0.178,-0.2158 0.178,-0.3975 0,-0.1883 -0.053,-0.3225 -0.16,-0.4025 -0.107,-0.08 -0.273,-0.12 -0.5,-0.12 z m 0.573,-0.52 c 0.237,0 0.439,0.0225 0.607,0.0675 0.169,0.045 0.306,0.1092 0.413,0.1925 0.108,0.0833 0.187,0.1842 0.237,0.3025 0.05,0.1183 0.075,0.2517 0.075,0.4 0,0.085 -0.012,0.1667 -0.037,0.245 -0.025,0.0767 -0.064,0.1492 -0.118,0.2175 -0.051,0.0667 -0.118,0.1275 -0.2,0.1825 -0.08,0.055 -0.175,0.1017 -0.287,0.14 0.497,0.1117 0.745,0.38 0.745,0.805 0,0.1533 -0.029,0.295 -0.088,0.425 -0.058,0.13 -0.143,0.2425 -0.255,0.3375 -0.111,0.0933 -0.249,0.1667 -0.412,0.22 -0.163,0.0533 -0.35,0.08 -0.56,0.08 h -1.365 v -3.615 z m 1.928,1.8475 h 1.295 v 0.515 H 135.06 Z M 139.863,25 h -0.67 c -0.046,0 -0.084,-0.0117 -0.112,-0.035 -0.027,-0.0233 -0.048,-0.05 -0.065,-0.08 l -0.838,-1.3875 c -0.013,0.0417 -0.029,0.0775 -0.047,0.1075 l -0.803,1.28 c -0.02,0.0283 -0.043,0.055 -0.07,0.08 -0.025,0.0233 -0.058,0.035 -0.1,0.035 h -0.627 l 1.2,-1.86 -1.153,-1.755 h 0.67 c 0.047,0 0.08,0.0067 0.1,0.02 0.022,0.0117 0.042,0.0317 0.06,0.06 l 0.823,1.325 c 0.017,-0.0417 0.037,-0.0833 0.06,-0.125 l 0.755,-1.1875 c 0.018,-0.0317 0.038,-0.055 0.06,-0.07 0.022,-0.015 0.049,-0.0225 0.082,-0.0225 h 0.643 l -1.163,1.7275 z m 1.769,-1.91 c -0.07,-0.085 -0.147,-0.145 -0.23,-0.18 -0.082,-0.035 -0.17,-0.0525 -0.265,-0.0525 -0.094,0 -0.178,0.0175 -0.253,0.0525 -0.075,0.035 -0.139,0.0883 -0.192,0.16 -0.054,0.07 -0.094,0.16 -0.123,0.27 -0.028,0.1083 -0.042,0.2367 -0.042,0.385 0,0.15 0.011,0.2775 0.035,0.3825 0.025,0.1033 0.06,0.1883 0.105,0.255 0.045,0.065 0.1,0.1125 0.165,0.1425 0.065,0.0283 0.137,0.0425 0.217,0.0425 0.129,0 0.238,-0.0267 0.328,-0.08 0.09,-0.0533 0.175,-0.1292 0.255,-0.2275 z m 0.617,-1.805 V 25 h -0.377 c -0.082,0 -0.134,-0.0375 -0.155,-0.1125 L 141.664,24.64 c -0.103,0.1183 -0.222,0.2142 -0.357,0.2875 -0.134,0.0733 -0.289,0.11 -0.468,0.11 -0.14,0 -0.268,-0.0292 -0.385,-0.0875 -0.116,-0.0583 -0.217,-0.1425 -0.302,-0.2525 -0.084,-0.1117 -0.149,-0.2492 -0.195,-0.4125 -0.045,-0.1633 -0.068,-0.35 -0.068,-0.56 0,-0.19 0.026,-0.3667 0.078,-0.53 0.051,-0.1633 0.126,-0.305 0.222,-0.425 0.097,-0.12 0.213,-0.2133 0.348,-0.28 0.135,-0.0683 0.286,-0.1025 0.455,-0.1025 0.143,0 0.266,0.0225 0.367,0.0675 0.102,0.045 0.193,0.1058 0.273,0.1825 V 21.285 Z"
     fill="#ffffff"
     id="path1006"
     style="opacity:0.5" />
  <path
     d="m 151.605,24.1475 c 0.037,0 0.069,0.0142 0.098,0.0425 l 0.265,0.2875 c -0.147,0.1817 -0.328,0.3208 -0.543,0.4175 -0.213,0.0967 -0.47,0.145 -0.77,0.145 -0.268,0 -0.51,-0.0458 -0.725,-0.1375 -0.213,-0.0917 -0.396,-0.2192 -0.547,-0.3825 -0.152,-0.1633 -0.269,-0.3583 -0.35,-0.585 -0.08,-0.2267 -0.12,-0.4742 -0.12,-0.7425 0,-0.2717 0.043,-0.52 0.13,-0.745 0.086,-0.2267 0.208,-0.4217 0.365,-0.585 0.158,-0.1633 0.346,-0.29 0.565,-0.38 0.218,-0.0917 0.46,-0.1375 0.725,-0.1375 0.263,0 0.496,0.0433 0.7,0.13 0.205,0.0867 0.379,0.2 0.522,0.34 l -0.225,0.3125 c -0.013,0.02 -0.031,0.0375 -0.052,0.0525 -0.02,0.015 -0.049,0.0225 -0.085,0.0225 -0.025,0 -0.051,-0.0067 -0.078,-0.02 -0.026,-0.015 -0.056,-0.0325 -0.087,-0.0525 -0.032,-0.0217 -0.069,-0.045 -0.11,-0.07 -0.042,-0.025 -0.09,-0.0475 -0.145,-0.0675 -0.055,-0.0217 -0.119,-0.0392 -0.193,-0.0525 -0.071,-0.015 -0.155,-0.0225 -0.25,-0.0225 -0.161,0 -0.31,0.0292 -0.445,0.0875 -0.133,0.0567 -0.248,0.14 -0.345,0.25 -0.096,0.1083 -0.171,0.2417 -0.225,0.4 -0.053,0.1567 -0.08,0.3358 -0.08,0.5375 0,0.2033 0.029,0.3842 0.085,0.5425 0.059,0.1583 0.137,0.2917 0.235,0.4 0.099,0.1083 0.214,0.1917 0.348,0.25 0.133,0.0567 0.276,0.085 0.43,0.085 0.091,0 0.174,-0.005 0.247,-0.015 0.075,-0.01 0.144,-0.0258 0.205,-0.0475 0.064,-0.0217 0.123,-0.0492 0.178,-0.0825 0.056,-0.035 0.112,-0.0775 0.167,-0.1275 0.017,-0.015 0.034,-0.0267 0.053,-0.035 0.018,-0.01 0.037,-0.015 0.057,-0.015 z M 157.238,21.385 156.116,25 h -0.608 l -0.79,-2.47 c -0.021,-0.06 -0.041,-0.1333 -0.06,-0.22 -0.01,0.0417 -0.02,0.0808 -0.03,0.1175 -0.01,0.0367 -0.02,0.0708 -0.032,0.1025 L 153.798,25 h -0.61 l -1.12,-3.615 h 0.563 c 0.058,0 0.107,0.0142 0.145,0.0425 0.04,0.0267 0.067,0.0633 0.08,0.11 l 0.615,2.1625 c 0.013,0.0533 0.026,0.1117 0.037,0.175 0.014,0.0617 0.027,0.1267 0.04,0.195 0.014,-0.07 0.028,-0.1358 0.043,-0.1975 0.017,-0.0617 0.034,-0.1192 0.052,-0.1725 l 0.71,-2.1625 c 0.014,-0.0383 0.04,-0.0733 0.078,-0.105 0.04,-0.0317 0.088,-0.0475 0.145,-0.0475 h 0.197 c 0.059,0 0.106,0.0142 0.143,0.0425 0.037,0.0283 0.064,0.065 0.082,0.11 l 0.708,2.1625 c 0.035,0.1033 0.067,0.2225 0.095,0.3575 0.022,-0.1317 0.046,-0.2508 0.072,-0.3575 l 0.615,-2.1625 c 0.01,-0.0417 0.035,-0.0775 0.075,-0.1075 0.042,-0.03 0.091,-0.045 0.148,-0.045 z"
     fill="#ffffff"
     id="path1008"
     style="opacity:0.5" />
  <path
     d="m 159,32 c 0,-1.2367 -1,-2.5004 -1,-4 0,-1.4996 -0.5,-2.5 -1,-2.5 -0.5,0 -1,1 -2,1 -1,0 -1,0.5 -1.5,0.5 -0.5,0 -0.5,-0.5 -1.5,-0.5 -1,0 -5,0 -5,0"
     stroke="#ffffff"
     id="path1010"
     style="opacity:0.5" />
  <path
     d="m 168.301,23.105 c 0.126,0 0.236,-0.0158 0.33,-0.0475 0.095,-0.0317 0.172,-0.075 0.232,-0.13 0.062,-0.0567 0.108,-0.1233 0.138,-0.2 0.03,-0.0767 0.045,-0.1608 0.045,-0.2525 0,-0.1833 -0.061,-0.3242 -0.183,-0.4225 -0.12,-0.0983 -0.304,-0.1475 -0.552,-0.1475 h -0.43 v 1.2 z m 1.73,1.895 h -0.608 c -0.115,0 -0.198,-0.045 -0.25,-0.135 l -0.76,-1.1575 c -0.028,-0.0433 -0.06,-0.0742 -0.095,-0.0925 -0.033,-0.0183 -0.083,-0.0275 -0.15,-0.0275 h -0.287 V 25 h -0.673 v -3.615 h 1.103 c 0.245,0 0.455,0.0258 0.63,0.0775 0.176,0.05 0.32,0.1208 0.432,0.2125 0.113,0.0917 0.197,0.2017 0.25,0.33 0.053,0.1267 0.08,0.2667 0.08,0.42 0,0.1217 -0.018,0.2367 -0.055,0.345 -0.035,0.1083 -0.087,0.2067 -0.155,0.295 -0.067,0.0883 -0.15,0.1658 -0.25,0.2325 -0.098,0.0667 -0.211,0.1192 -0.337,0.1575 0.043,0.025 0.083,0.055 0.12,0.09 0.036,0.0333 0.07,0.0733 0.1,0.12 z M 175.153,21.385 174.03,25 h -0.607 l -0.79,-2.47 c -0.022,-0.06 -0.042,-0.1333 -0.06,-0.22 -0.01,0.0417 -0.02,0.0808 -0.03,0.1175 -0.01,0.0367 -0.021,0.0708 -0.033,0.1025 L 171.713,25 h -0.61 l -1.12,-3.615 h 0.562 c 0.059,0 0.107,0.0142 0.145,0.0425 0.04,0.0267 0.067,0.0633 0.08,0.11 l 0.615,2.1625 c 0.014,0.0533 0.026,0.1117 0.038,0.175 0.013,0.0617 0.027,0.1267 0.04,0.195 0.013,-0.07 0.027,-0.1358 0.042,-0.1975 0.017,-0.0617 0.035,-0.1192 0.053,-0.1725 l 0.71,-2.1625 c 0.013,-0.0383 0.039,-0.0733 0.077,-0.105 0.04,-0.0317 0.089,-0.0475 0.145,-0.0475 h 0.198 c 0.058,0 0.106,0.0142 0.142,0.0425 0.037,0.0283 0.065,0.065 0.083,0.11 L 173.62,23.7 c 0.035,0.1033 0.067,0.2225 0.095,0.3575 0.022,-0.1317 0.046,-0.2508 0.073,-0.3575 l 0.615,-2.1625 c 0.01,-0.0417 0.035,-0.0775 0.075,-0.1075 0.042,-0.03 0.091,-0.045 0.147,-0.045 z"
     fill="#ffffff"
     id="path1012"
     style="opacity:0.5" />
  <path
     d="m 177,32 c 0,-1.2367 -1,-2.5004 -1,-4 0,-1.4996 -0.5,-2.5 -1,-2.5 -0.5,0 -1,1 -2,1 -1,0 -1,0.5 -1.5,0.5 -0.5,0 -0.5,-0.5 -1.5,-0.5 -1,0 -5,0 -5,0"
     stroke="#ffffff"
     id="path1014"
     style="opacity:0.5" />
  <path
     fill-rule="evenodd"
     clip-rule="evenodd"
     d="M 5.00577,45.8547 C 4.25511,46.8972 4,48.1633 4,49 H 3 C 3,48.0033 3.29489,46.5194 4.19423,45.2703 5.11193,43.9958 6.63704,43 9,43 c 2.363,0 3.8881,0.9958 4.8058,2.2703 C 14.7051,46.5194 15,48.0033 15,49 H 14 C 14,48.1633 13.7449,46.8972 12.9942,45.8547 12.2619,44.8376 11.037,44 9,44 6.96296,44 5.73807,44.8376 5.00577,45.8547 Z"
     fill="#ffffff"
     id="path1016"
     style="opacity:0.5" />
  <path
     d="m 23,49 c 0,-3 1,-6 4,-6 3,0 4,3 4,6"
     stroke="#ffffff"
     id="path1018"
     style="opacity:0.5" />
  <path
     fill-rule="evenodd"
     clip-rule="evenodd"
     d="M 41.0058,46.8547 C 40.2551,47.8972 40,49.1633 40,50 h -1 c 0,-0.9967 0.2949,-2.4806 1.1942,-3.7297 C 41.1119,44.9958 42.637,44 45,44 c 2.363,0 3.8881,0.9958 4.8058,2.2703 C 50.7051,47.5194 51,49.0033 51,50 H 50 C 50,49.1633 49.7449,47.8972 48.9942,46.8547 48.2619,45.8376 47.037,45 45,45 c -2.037,0 -3.2619,0.8376 -3.9942,1.8547 z"
     fill="#ffffff"
     id="path1020"
     style="opacity:0.5" />
  <path
     d="m 41.2963,41.1925 c 0,0.265 -0.0442,0.5108 -0.1325,0.7375 -0.0867,0.225 -0.21,0.42 -0.37,0.585 -0.16,0.165 -0.3525,0.2942 -0.5775,0.3875 -0.225,0.0917 -0.475,0.1375 -0.75,0.1375 -0.2733,0 -0.5225,-0.0458 -0.7475,-0.1375 -0.225,-0.0933 -0.4183,-0.2225 -0.58,-0.3875 -0.16,-0.165 -0.2842,-0.36 -0.3725,-0.585 -0.0883,-0.2267 -0.1325,-0.4725 -0.1325,-0.7375 0,-0.265 0.0442,-0.51 0.1325,-0.735 0.0883,-0.2267 0.2125,-0.4225 0.3725,-0.5875 0.1617,-0.165 0.355,-0.2933 0.58,-0.385 0.225,-0.0933 0.4742,-0.14 0.7475,-0.14 0.1833,0 0.3558,0.0217 0.5175,0.065 0.1617,0.0417 0.31,0.1017 0.445,0.18 0.135,0.0767 0.2558,0.1708 0.3625,0.2825 0.1083,0.11 0.2,0.2333 0.275,0.37 0.075,0.1367 0.1317,0.285 0.17,0.445 0.04,0.16 0.06,0.3283 0.06,0.505 z m -0.6875,0 c 0,-0.1983 -0.0267,-0.3758 -0.08,-0.5325 -0.0533,-0.1583 -0.1292,-0.2925 -0.2275,-0.4025 -0.0983,-0.11 -0.2183,-0.1942 -0.36,-0.2525 -0.14,-0.0583 -0.2983,-0.0875 -0.475,-0.0875 -0.1767,0 -0.3358,0.0292 -0.4775,0.0875 -0.14,0.0583 -0.26,0.1425 -0.36,0.2525 -0.0983,0.11 -0.1742,0.2442 -0.2275,0.4025 -0.0533,0.1567 -0.08,0.3342 -0.08,0.5325 0,0.1983 0.0267,0.3767 0.08,0.535 0.0533,0.1567 0.1292,0.29 0.2275,0.4 0.1,0.1083 0.22,0.1917 0.36,0.25 0.1417,0.0583 0.3008,0.0875 0.4775,0.0875 0.1767,0 0.335,-0.0292 0.475,-0.0875 0.1417,-0.0583 0.2617,-0.1417 0.36,-0.25 0.0983,-0.11 0.1742,-0.2433 0.2275,-0.4 0.0533,-0.1583 0.08,-0.3367 0.08,-0.535 z m 2.6306,1.2825 c 0.125,0 0.23,-0.015 0.315,-0.045 0.085,-0.03 0.1525,-0.07 0.2025,-0.12 0.0516,-0.05 0.0883,-0.1083 0.11,-0.175 0.0233,-0.0667 0.035,-0.1375 0.035,-0.2125 0,-0.0783 -0.0125,-0.1483 -0.0375,-0.21 -0.025,-0.0633 -0.0642,-0.1167 -0.1175,-0.16 -0.0534,-0.045 -0.1225,-0.0792 -0.2075,-0.1025 -0.0834,-0.0233 -0.1842,-0.035 -0.3025,-0.035 h -0.6775 v 1.06 z m -0.68,-2.57 v 1.045 h 0.535 c 0.23,0 0.4033,-0.0417 0.52,-0.125 0.1183,-0.0833 0.1775,-0.2158 0.1775,-0.3975 0,-0.1883 -0.0534,-0.3225 -0.16,-0.4025 -0.1067,-0.08 -0.2734,-0.12 -0.5,-0.12 z m 0.5725,-0.52 c 0.2366,0 0.4391,0.0225 0.6075,0.0675 0.1683,0.045 0.3058,0.1092 0.4125,0.1925 0.1083,0.0833 0.1875,0.1842 0.2375,0.3025 0.05,0.1183 0.075,0.2517 0.075,0.4 0,0.085 -0.0125,0.1667 -0.0375,0.245 -0.025,0.0767 -0.0642,0.1492 -0.1175,0.2175 -0.0517,0.0667 -0.1184,0.1275 -0.2,0.1825 -0.08,0.055 -0.1759,0.1017 -0.2875,0.14 0.4966,0.1117 0.745,0.38 0.745,0.805 0,0.1533 -0.0292,0.295 -0.0875,0.425 -0.0584,0.13 -0.1434,0.2425 -0.255,0.3375 -0.1117,0.0933 -0.2492,0.1667 -0.4125,0.22 -0.1634,0.0533 -0.35,0.08 -0.56,0.08 h -1.365 v -3.615 z m 1.9285,1.8475 h 1.295 v 0.515 h -1.295 z M 49.8634,43 h -0.67 c -0.0466,0 -0.0841,-0.0117 -0.1125,-0.035 -0.0266,-0.0233 -0.0483,-0.05 -0.065,-0.08 l -0.8375,-1.3875 c -0.0133,0.0417 -0.0291,0.0775 -0.0475,0.1075 l -0.8025,1.28 c -0.02,0.0283 -0.0433,0.055 -0.07,0.08 -0.025,0.0233 -0.0583,0.035 -0.1,0.035 h -0.6275 l 1.2,-1.86 -1.1525,-1.755 h 0.67 c 0.0467,0 0.08,0.0067 0.1,0.02 0.0217,0.0117 0.0417,0.0317 0.06,0.06 l 0.8225,1.325 c 0.0167,-0.0417 0.0367,-0.0833 0.06,-0.125 l 0.755,-1.1875 c 0.0184,-0.0317 0.0384,-0.055 0.06,-0.07 0.0217,-0.015 0.0492,-0.0225 0.0825,-0.0225 h 0.6425 l -1.1625,1.7275 z m 1.7684,-1.91 c -0.07,-0.085 -0.1467,-0.145 -0.23,-0.18 -0.0817,-0.035 -0.17,-0.0525 -0.265,-0.0525 -0.0933,0 -0.1775,0.0175 -0.2525,0.0525 -0.075,0.035 -0.1392,0.0883 -0.1925,0.16 -0.0533,0.07 -0.0942,0.16 -0.1225,0.27 -0.0283,0.1083 -0.0425,0.2367 -0.0425,0.385 0,0.15 0.0117,0.2775 0.035,0.3825 0.025,0.1033 0.06,0.1883 0.105,0.255 0.045,0.065 0.1,0.1125 0.165,0.1425 0.065,0.0283 0.1375,0.0425 0.2175,0.0425 0.1283,0 0.2375,-0.0267 0.3275,-0.08 0.09,-0.0533 0.175,-0.1292 0.255,-0.2275 z m 0.6175,-1.805 V 43 h -0.3775 c -0.0817,0 -0.1333,-0.0375 -0.155,-0.1125 L 51.6643,42.64 c -0.1033,0.1183 -0.2225,0.2142 -0.3575,0.2875 -0.1333,0.0733 -0.2892,0.11 -0.4675,0.11 -0.14,0 -0.2683,-0.0292 -0.385,-0.0875 -0.1167,-0.0583 -0.2175,-0.1425 -0.3025,-0.2525 -0.0833,-0.1117 -0.1483,-0.2492 -0.195,-0.4125 -0.045,-0.1633 -0.0675,-0.35 -0.0675,-0.56 0,-0.19 0.0258,-0.3667 0.0775,-0.53 0.0517,-0.1633 0.1258,-0.305 0.2225,-0.425 0.0967,-0.12 0.2125,-0.2133 0.3475,-0.28 0.135,-0.0683 0.2867,-0.1025 0.455,-0.1025 0.1433,0 0.2658,0.0225 0.3675,0.0675 0.1017,0.045 0.1925,0.1058 0.2725,0.1825 V 39.285 Z"
     fill="#ffffff"
     id="path1022"
     style="opacity:0.5" />
  <path
     d="M 59,49.9998 C 59,48 60.5,48.4992 60.5,46.4996 60.5,44.5 61.5,44.5 62,44.5 c 0.5,0 0.5,1 1,1 0.5,0 0.5001,-1 1,-1 0.4999,0 1.5,-8e-4 1.5,1.9996 C 65.5,48.5 67,48 67,49.9998"
     stroke="#ffffff"
     id="path1024"
     style="opacity:0.5" />
  <path
     d="m 61.6052,42.1475 c 0.0367,0 0.0692,0.0142 0.0975,0.0425 l 0.265,0.2875 c -0.1467,0.1817 -0.3275,0.3208 -0.5425,0.4175 -0.2133,0.0967 -0.47,0.145 -0.77,0.145 -0.2683,0 -0.51,-0.0458 -0.725,-0.1375 -0.2133,-0.0917 -0.3958,-0.2192 -0.5475,-0.3825 -0.1517,-0.1633 -0.2683,-0.3583 -0.35,-0.585 -0.08,-0.2267 -0.12,-0.4742 -0.12,-0.7425 0,-0.2717 0.0433,-0.52 0.13,-0.745 0.0867,-0.2267 0.2083,-0.4217 0.365,-0.585 0.1583,-0.1633 0.3467,-0.29 0.565,-0.38 0.2183,-0.0917 0.46,-0.1375 0.725,-0.1375 0.2633,0 0.4967,0.0433 0.7,0.13 0.205,0.0867 0.3792,0.2 0.5225,0.34 l -0.225,0.3125 c -0.0133,0.02 -0.0308,0.0375 -0.0525,0.0525 -0.02,0.015 -0.0483,0.0225 -0.085,0.0225 -0.025,0 -0.0508,-0.0067 -0.0775,-0.02 -0.0267,-0.015 -0.0558,-0.0325 -0.0875,-0.0525 -0.0317,-0.0217 -0.0683,-0.045 -0.11,-0.07 -0.0417,-0.025 -0.09,-0.0475 -0.145,-0.0675 -0.055,-0.0217 -0.1192,-0.0392 -0.1925,-0.0525 -0.0717,-0.015 -0.155,-0.0225 -0.25,-0.0225 -0.1617,0 -0.31,0.0292 -0.445,0.0875 -0.1333,0.0567 -0.2483,0.14 -0.345,0.25 -0.0967,0.1083 -0.1717,0.2417 -0.225,0.4 -0.0533,0.1567 -0.08,0.3358 -0.08,0.5375 0,0.2033 0.0283,0.3842 0.085,0.5425 0.0583,0.1583 0.1367,0.2917 0.235,0.4 0.0983,0.1083 0.2142,0.1917 0.3475,0.25 0.1333,0.0567 0.2767,0.085 0.43,0.085 0.0917,0 0.1742,-0.005 0.2475,-0.015 0.075,-0.01 0.1433,-0.0258 0.205,-0.0475 0.0633,-0.0217 0.1225,-0.0492 0.1775,-0.0825 0.0567,-0.035 0.1125,-0.0775 0.1675,-0.1275 0.0167,-0.015 0.0342,-0.0267 0.0525,-0.035 0.0183,-0.01 0.0375,-0.015 0.0575,-0.015 z M 67.2384,39.385 66.1159,43 h -0.6075 l -0.79,-2.47 c -0.0217,-0.06 -0.0417,-0.1333 -0.06,-0.22 -0.01,0.0417 -0.02,0.0808 -0.03,0.1175 -0.01,0.0367 -0.0209,0.0708 -0.0325,0.1025 L 63.7984,43 h -0.61 l -1.12,-3.615 h 0.5625 c 0.0583,0 0.1066,0.0142 0.145,0.0425 0.04,0.0267 0.0666,0.0633 0.08,0.11 l 0.615,2.1625 c 0.0133,0.0533 0.0258,0.1117 0.0375,0.175 0.0133,0.0617 0.0266,0.1267 0.04,0.195 0.0133,-0.07 0.0275,-0.1358 0.0425,-0.1975 0.0166,-0.0617 0.0341,-0.1192 0.0525,-0.1725 l 0.71,-2.1625 c 0.0133,-0.0383 0.0391,-0.0733 0.0775,-0.105 0.04,-0.0317 0.0883,-0.0475 0.145,-0.0475 h 0.1975 c 0.0583,0 0.1058,0.0142 0.1425,0.0425 0.0366,0.0283 0.0641,0.065 0.0825,0.11 L 65.7059,41.7 c 0.035,0.1033 0.0666,0.2225 0.095,0.3575 0.0216,-0.1317 0.0458,-0.2508 0.0725,-0.3575 l 0.615,-2.1625 c 0.01,-0.0417 0.035,-0.0775 0.075,-0.1075 0.0416,-0.03 0.0908,-0.045 0.1475,-0.045 z"
     fill="#ffffff"
     id="path1026"
     style="opacity:0.5" />
  <path
     d="M 77,49.9998 C 77,48 78.5,48.4992 78.5,46.4996 78.5,44.5 79.5,44.5 80,44.5 c 0.5,0 0.5,1 1,1 0.5,0 0.5001,-1 1,-1 0.4999,0 1.5,-8e-4 1.5,1.9996 C 83.5,48.5 85,48 85,49.9998"
     stroke="#ffffff"
     id="path1028"
     style="opacity:0.5" />
  <path
     d="m 78.3007,41.105 c 0.1266,0 0.2366,-0.0158 0.33,-0.0475 0.095,-0.0317 0.1725,-0.075 0.2325,-0.13 0.0616,-0.0567 0.1075,-0.1233 0.1375,-0.2 0.03,-0.0767 0.045,-0.1608 0.045,-0.2525 0,-0.1833 -0.0609,-0.3242 -0.1825,-0.4225 -0.12,-0.0983 -0.3042,-0.1475 -0.5525,-0.1475 h -0.43 v 1.2 z m 1.73,1.895 h -0.6075 c -0.115,0 -0.1984,-0.045 -0.25,-0.135 l -0.76,-1.1575 c -0.0284,-0.0433 -0.06,-0.0742 -0.095,-0.0925 -0.0334,-0.0183 -0.0834,-0.0275 -0.15,-0.0275 H 77.8807 V 43 h -0.6725 v -3.615 h 1.1025 c 0.245,0 0.455,0.0258 0.63,0.0775 0.1766,0.05 0.3208,0.1208 0.4325,0.2125 0.1133,0.0917 0.1966,0.2017 0.25,0.33 0.0533,0.1267 0.08,0.2667 0.08,0.42 0,0.1217 -0.0184,0.2367 -0.055,0.345 -0.035,0.1083 -0.0867,0.2067 -0.155,0.295 -0.0667,0.0883 -0.15,0.1658 -0.25,0.2325 -0.0984,0.0667 -0.2109,0.1192 -0.3375,0.1575 0.0433,0.025 0.0833,0.055 0.12,0.09 0.0366,0.0333 0.07,0.0733 0.1,0.12 z M 85.1529,39.385 84.0304,43 h -0.6075 l -0.79,-2.47 c -0.0216,-0.06 -0.0416,-0.1333 -0.06,-0.22 -0.01,0.0417 -0.02,0.0808 -0.03,0.1175 -0.01,0.0367 -0.0208,0.0708 -0.0325,0.1025 L 81.7129,43 h -0.61 l -1.12,-3.615 h 0.5625 c 0.0584,0 0.1067,0.0142 0.145,0.0425 0.04,0.0267 0.0667,0.0633 0.08,0.11 l 0.615,2.1625 c 0.0134,0.0533 0.0259,0.1117 0.0375,0.175 0.0134,0.0617 0.0267,0.1267 0.04,0.195 0.0134,-0.07 0.0275,-0.1358 0.0425,-0.1975 0.0167,-0.0617 0.0342,-0.1192 0.0525,-0.1725 l 0.71,-2.1625 c 0.0134,-0.0383 0.0392,-0.0733 0.0775,-0.105 0.04,-0.0317 0.0884,-0.0475 0.145,-0.0475 h 0.1975 c 0.0584,0 0.1059,0.0142 0.1425,0.0425 0.0367,0.0283 0.0642,0.065 0.0825,0.11 L 83.6204,41.7 c 0.035,0.1033 0.0667,0.2225 0.095,0.3575 0.0217,-0.1317 0.0459,-0.2508 0.0725,-0.3575 l 0.615,-2.1625 c 0.01,-0.0417 0.035,-0.0775 0.075,-0.1075 0.0417,-0.03 0.0909,-0.045 0.1475,-0.045 z"
     fill="#ffffff"
     id="path1030"
     style="opacity:0.5" />
  <path
     d="M 10.4622,62.0874 C 5.61047,62.1067 4.01134,65.6776 4.0084,67 L 3,66.9974 c 0.0044,-1.9803 2.14529,-6.1043 7.7185,-5.9953 H 15 v 1.0873 h -4.2468 c -0.0147,-4e-4 -0.0294,3e-4 -0.0441,0 h -0.2469 z"
     fill="#ffffff"
     id="path1032"
     style="opacity:0.5" />
  <path
     fill-rule="evenodd"
     clip-rule="evenodd"
     d="m 26,62 h 7 v -1 h -7 c -1.3139,0 -2.5974,0.2883 -3.5437,1.2492 C 21.5133,63.2067 21,64.736 21,67 h 1 c 0,-2.136 0.4867,-3.3567 1.1687,-4.0492 C 23.8474,62.2617 24.8139,62 26,62 Z"
     fill="#ffffff"
     id="path1034"
     style="opacity:0.5" />
  <path
     d="M 46.4622,63.0874 C 41.6105,63.1067 40.0113,66.6776 40.0084,68 L 39,67.9974 c 0.0044,-1.9803 2.1453,-6.1043 7.7185,-5.9953 H 51 v 1.0873 h -4.2468 c -0.0147,-4e-4 -0.0294,3e-4 -0.0441,0 h -0.2469 z"
     fill="#ffffff"
     id="path1036"
     style="opacity:0.5" />
  <path
     d="m 41.4607,58.9 h 0.1575 c 0.0634,0 0.1159,-0.0083 0.1575,-0.025 0.0417,-0.0183 0.0775,-0.0467 0.1075,-0.085 l 0.9975,-1.2625 c 0.0417,-0.0533 0.085,-0.09 0.13,-0.11 0.0467,-0.0217 0.105,-0.0325 0.175,-0.0325 h 0.58 l -1.2175,1.5025 c -0.0716,0.0917 -0.1458,0.1567 -0.2225,0.195 0.055,0.02 0.1042,0.0483 0.1475,0.085 0.045,0.035 0.0875,0.0817 0.1275,0.14 L 43.8557,61 h -0.5925 c -0.08,0 -0.14,-0.0108 -0.18,-0.0325 -0.0383,-0.0233 -0.0708,-0.0567 -0.0975,-0.1 l -1.0225,-1.335 c -0.0316,-0.045 -0.0683,-0.0767 -0.11,-0.095 C 41.8116,59.4192 41.7516,59.41 41.6732,59.41 H 41.4607 V 61 h -0.6725 v -3.615 h 0.6725 z m 2.6228,-0.5075 c 0.025,-0.1733 0.0733,-0.325 0.145,-0.455 0.0716,-0.1317 0.1608,-0.2408 0.2675,-0.3275 0.1083,-0.0883 0.2316,-0.1542 0.37,-0.1975 0.14,-0.045 0.29,-0.0675 0.45,-0.0675 0.1666,0 0.3166,0.0242 0.45,0.0725 0.135,0.0467 0.25,0.1125 0.345,0.1975 0.095,0.0833 0.1675,0.1817 0.2175,0.295 0.0516,0.1133 0.0775,0.2358 0.0775,0.3675 0,0.115 -0.0134,0.2167 -0.04,0.305 -0.025,0.0867 -0.0617,0.1625 -0.11,0.2275 -0.0484,0.065 -0.1084,0.12 -0.18,0.165 -0.0717,0.045 -0.1525,0.0825 -0.2425,0.1125 0.2166,0.0683 0.3783,0.1725 0.485,0.3125 0.1066,0.14 0.16,0.3158 0.16,0.5275 0,0.18 -0.0334,0.3392 -0.1,0.4775 -0.0667,0.1383 -0.1567,0.255 -0.27,0.35 -0.1134,0.0933 -0.245,0.1642 -0.395,0.2125 -0.1484,0.0483 -0.3059,0.0725 -0.4725,0.0725 -0.1817,0 -0.34,-0.0208 -0.475,-0.0625 -0.135,-0.0417 -0.2525,-0.1033 -0.3525,-0.185 -0.1,-0.0817 -0.185,-0.1817 -0.255,-0.3 -0.07,-0.1183 -0.13,-0.255 -0.18,-0.41 L 44.251,59.97 c 0.0716,-0.03 0.1383,-0.0375 0.2,-0.0225 0.0633,0.0133 0.1091,0.0467 0.1375,0.1 0.03,0.0583 0.0625,0.1158 0.0975,0.1725 0.0366,0.0567 0.08,0.1075 0.13,0.1525 0.05,0.0433 0.1083,0.0792 0.175,0.1075 0.0683,0.0267 0.1491,0.04 0.2425,0.04 0.105,0 0.1966,-0.0167 0.275,-0.05 0.0783,-0.035 0.1433,-0.08 0.195,-0.135 0.0533,-0.055 0.0925,-0.1158 0.1175,-0.1825 0.0266,-0.0683 0.04,-0.1367 0.04,-0.205 0,-0.0867 -0.0092,-0.165 -0.0275,-0.235 C 45.8151,59.6408 45.7768,59.58 45.7185,59.53 45.6601,59.48 45.576,59.4408 45.466,59.4125 45.3576,59.3842 45.2118,59.37 45.0285,59.37 v -0.44 c 0.1516,-0.0017 0.2775,-0.0158 0.3775,-0.0425 0.1,-0.0267 0.1791,-0.0633 0.2375,-0.11 0.06,-0.0483 0.1016,-0.1058 0.125,-0.1725 0.0233,-0.0667 0.035,-0.14 0.035,-0.22 0,-0.17 -0.0475,-0.2992 -0.1425,-0.3875 -0.095,-0.0883 -0.2217,-0.1325 -0.38,-0.1325 -0.0734,0 -0.1409,0.0108 -0.2025,0.0325 -0.0617,0.02 -0.1175,0.0492 -0.1675,0.0875 -0.0484,0.0367 -0.0892,0.08 -0.1225,0.13 -0.0334,0.05 -0.0584,0.105 -0.075,0.165 -0.0284,0.0767 -0.0659,0.1275 -0.1125,0.1525 -0.045,0.025 -0.1092,0.0308 -0.1925,0.0175 z m 3.6454,0.305 c 0.08,-0.0167 0.1566,-0.0283 0.23,-0.035 0.0733,-0.0083 0.1441,-0.0125 0.2125,-0.0125 0.19,0 0.3575,0.0283 0.5025,0.085 0.145,0.0567 0.2666,0.135 0.365,0.235 0.0983,0.1 0.1725,0.2175 0.2225,0.3525 0.05,0.1333 0.075,0.2775 0.075,0.4325 0,0.1917 -0.0342,0.3667 -0.1025,0.525 -0.0667,0.1583 -0.16,0.2942 -0.28,0.4075 -0.12,0.1117 -0.2625,0.1983 -0.4275,0.26 -0.1634,0.0617 -0.3417,0.0925 -0.535,0.0925 -0.1134,0 -0.2209,-0.0117 -0.3225,-0.035 -0.1017,-0.0233 -0.1975,-0.0542 -0.2875,-0.0925 -0.0884,-0.04 -0.1709,-0.085 -0.2475,-0.135 -0.075,-0.0517 -0.1425,-0.1058 -0.2025,-0.1625 l 0.19,-0.2625 c 0.04,-0.0567 0.0925,-0.085 0.1575,-0.085 0.0416,0 0.0841,0.0133 0.1275,0.04 0.0433,0.0267 0.0925,0.0558 0.1475,0.0875 0.0566,0.0317 0.1225,0.0608 0.1975,0.0875 0.0766,0.0267 0.1683,0.04 0.275,0.04 0.1133,0 0.2133,-0.0183 0.3,-0.055 0.0866,-0.0367 0.1583,-0.0875 0.215,-0.1525 0.0583,-0.0667 0.1016,-0.145 0.13,-0.235 0.03,-0.0917 0.045,-0.1908 0.045,-0.2975 0,-0.1967 -0.0575,-0.35 -0.1725,-0.46 -0.1134,-0.1117 -0.2817,-0.1675 -0.505,-0.1675 -0.1717,0 -0.3475,0.0317 -0.5275,0.095 l -0.385,-0.11 0.3,-1.755 h 1.785 v 0.2625 c 0,0.0883 -0.0275,0.16 -0.0825,0.215 -0.055,0.055 -0.1484,0.0825 -0.28,0.0825 h -0.9925 z"
     fill="#ffffff"
     id="path1038"
     style="opacity:0.5" />
  <path
     d="M 64.4622,63.0874 C 59.6105,63.1067 58.0113,66.6776 58.0084,68 L 57,67.9974 c 0.0044,-1.9803 2.1453,-6.1043 7.7185,-5.9953 H 69 v 1.0873 h -4.2468 c -0.0147,-4e-4 -0.0294,3e-4 -0.0441,0 h -0.2469 z"
     fill="#ffffff"
     id="path1040"
     style="opacity:0.5" />
  <path
     d="m 59.2963,59.1925 c 0,0.265 -0.0442,0.5108 -0.1325,0.7375 -0.0867,0.225 -0.21,0.42 -0.37,0.585 -0.16,0.165 -0.3525,0.2942 -0.5775,0.3875 -0.225,0.0917 -0.475,0.1375 -0.75,0.1375 -0.2733,0 -0.5225,-0.0458 -0.7475,-0.1375 -0.225,-0.0933 -0.4183,-0.2225 -0.58,-0.3875 -0.16,-0.165 -0.2842,-0.36 -0.3725,-0.585 -0.0883,-0.2267 -0.1325,-0.4725 -0.1325,-0.7375 0,-0.265 0.0442,-0.51 0.1325,-0.735 0.0883,-0.2267 0.2125,-0.4225 0.3725,-0.5875 0.1617,-0.165 0.355,-0.2933 0.58,-0.385 0.225,-0.0933 0.4742,-0.14 0.7475,-0.14 0.1833,0 0.3558,0.0217 0.5175,0.065 0.1617,0.0417 0.31,0.1017 0.445,0.18 0.135,0.0767 0.2558,0.1708 0.3625,0.2825 0.1083,0.11 0.2,0.2333 0.275,0.37 0.075,0.1367 0.1317,0.285 0.17,0.445 0.04,0.16 0.06,0.3283 0.06,0.505 z m -0.6875,0 c 0,-0.1983 -0.0267,-0.3758 -0.08,-0.5325 -0.0533,-0.1583 -0.1292,-0.2925 -0.2275,-0.4025 -0.0983,-0.11 -0.2183,-0.1942 -0.36,-0.2525 -0.14,-0.0583 -0.2983,-0.0875 -0.475,-0.0875 -0.1767,0 -0.3358,0.0292 -0.4775,0.0875 -0.14,0.0583 -0.26,0.1425 -0.36,0.2525 -0.0983,0.11 -0.1742,0.2442 -0.2275,0.4025 -0.0533,0.1567 -0.08,0.3342 -0.08,0.5325 0,0.1983 0.0267,0.3767 0.08,0.535 0.0533,0.1567 0.1292,0.29 0.2275,0.4 0.1,0.1083 0.22,0.1917 0.36,0.25 0.1417,0.0583 0.3008,0.0875 0.4775,0.0875 0.1767,0 0.335,-0.0292 0.475,-0.0875 0.1417,-0.0583 0.2617,-0.1417 0.36,-0.25 0.0983,-0.11 0.1742,-0.2433 0.2275,-0.4 0.0533,-0.1583 0.08,-0.3367 0.08,-0.535 z m 2.6306,1.2825 c 0.125,0 0.23,-0.015 0.315,-0.045 0.085,-0.03 0.1525,-0.07 0.2025,-0.12 0.0516,-0.05 0.0883,-0.1083 0.11,-0.175 0.0233,-0.0667 0.035,-0.1375 0.035,-0.2125 0,-0.0783 -0.0125,-0.1483 -0.0375,-0.21 -0.025,-0.0633 -0.0642,-0.1167 -0.1175,-0.16 -0.0534,-0.045 -0.1225,-0.0792 -0.2075,-0.1025 -0.0834,-0.0233 -0.1842,-0.035 -0.3025,-0.035 h -0.6775 v 1.06 z m -0.68,-2.57 v 1.045 h 0.535 c 0.23,0 0.4033,-0.0417 0.52,-0.125 0.1183,-0.0833 0.1775,-0.2158 0.1775,-0.3975 0,-0.1883 -0.0534,-0.3225 -0.16,-0.4025 -0.1067,-0.08 -0.2734,-0.12 -0.5,-0.12 z m 0.5725,-0.52 c 0.2366,0 0.4391,0.0225 0.6075,0.0675 0.1683,0.045 0.3058,0.1092 0.4125,0.1925 0.1083,0.0833 0.1875,0.1842 0.2375,0.3025 0.05,0.1183 0.075,0.2517 0.075,0.4 0,0.085 -0.0125,0.1667 -0.0375,0.245 -0.025,0.0767 -0.0642,0.1492 -0.1175,0.2175 -0.0517,0.0667 -0.1184,0.1275 -0.2,0.1825 -0.08,0.055 -0.1759,0.1017 -0.2875,0.14 0.4966,0.1117 0.745,0.38 0.745,0.805 0,0.1533 -0.0292,0.295 -0.0875,0.425 -0.0584,0.13 -0.1434,0.2425 -0.255,0.3375 -0.1117,0.0933 -0.2492,0.1667 -0.4125,0.22 -0.1634,0.0533 -0.35,0.08 -0.56,0.08 h -1.365 v -3.615 z m 1.9285,1.8475 h 1.295 v 0.515 h -1.295 z M 67.8634,61 h -0.67 c -0.0466,0 -0.0841,-0.0117 -0.1125,-0.035 -0.0266,-0.0233 -0.0483,-0.05 -0.065,-0.08 l -0.8375,-1.3875 c -0.0133,0.0417 -0.0291,0.0775 -0.0475,0.1075 l -0.8025,1.28 c -0.02,0.0283 -0.0433,0.055 -0.07,0.08 -0.025,0.0233 -0.0583,0.035 -0.1,0.035 h -0.6275 l 1.2,-1.86 -1.1525,-1.755 h 0.67 c 0.0467,0 0.08,0.0067 0.1,0.02 0.0217,0.0117 0.0417,0.0317 0.06,0.06 l 0.8225,1.325 c 0.0167,-0.0417 0.0367,-0.0833 0.06,-0.125 l 0.755,-1.1875 c 0.0184,-0.0317 0.0384,-0.055 0.06,-0.07 0.0217,-0.015 0.0492,-0.0225 0.0825,-0.0225 h 0.6425 l -1.1625,1.7275 z m 1.7684,-1.91 c -0.07,-0.085 -0.1467,-0.145 -0.23,-0.18 -0.0817,-0.035 -0.17,-0.0525 -0.265,-0.0525 -0.0933,0 -0.1775,0.0175 -0.2525,0.0525 -0.075,0.035 -0.1392,0.0883 -0.1925,0.16 -0.0533,0.07 -0.0942,0.16 -0.1225,0.27 -0.0283,0.1083 -0.0425,0.2367 -0.0425,0.385 0,0.15 0.0117,0.2775 0.035,0.3825 0.025,0.1033 0.06,0.1883 0.105,0.255 0.045,0.065 0.1,0.1125 0.165,0.1425 0.065,0.0283 0.1375,0.0425 0.2175,0.0425 0.1283,0 0.2375,-0.0267 0.3275,-0.08 0.09,-0.0533 0.175,-0.1292 0.255,-0.2275 z m 0.6175,-1.805 V 61 h -0.3775 c -0.0817,0 -0.1333,-0.0375 -0.155,-0.1125 L 69.6643,60.64 c -0.1033,0.1183 -0.2225,0.2142 -0.3575,0.2875 -0.1333,0.0733 -0.2892,0.11 -0.4675,0.11 -0.14,0 -0.2683,-0.0292 -0.385,-0.0875 -0.1167,-0.0583 -0.2175,-0.1425 -0.3025,-0.2525 -0.0833,-0.1117 -0.1483,-0.2492 -0.195,-0.4125 -0.045,-0.1633 -0.0675,-0.35 -0.0675,-0.56 0,-0.19 0.0258,-0.3667 0.0775,-0.53 0.0517,-0.1633 0.1258,-0.305 0.2225,-0.425 0.0967,-0.12 0.2125,-0.2133 0.3475,-0.28 0.135,-0.0683 0.2867,-0.1025 0.455,-0.1025 0.1433,0 0.2658,0.0225 0.3675,0.0675 0.1017,0.045 0.1925,0.1058 0.2725,0.1825 V 57.285 Z"
     fill="#ffffff"
     id="path1042"
     style="opacity:0.5" />
  <path
     d="m 75,68 c 0,-1.2367 1,-2.5004 1,-4 0,-1.4996 0.5001,-2.5 1,-2.5 0.4999,0 1,1 2,1 1,0 1,0.5 1.5,0.5 0.5,0 0.5,-0.5 1.5,-0.5 1,0 5,0 5,0"
     stroke="#ffffff"
     id="path1044"
     style="opacity:0.5" />
  <path
     d="m 79.6052,60.1475 c 0.0367,0 0.0692,0.0142 0.0975,0.0425 l 0.265,0.2875 c -0.1467,0.1817 -0.3275,0.3208 -0.5425,0.4175 -0.2133,0.0967 -0.47,0.145 -0.77,0.145 -0.2683,0 -0.51,-0.0458 -0.725,-0.1375 -0.2133,-0.0917 -0.3958,-0.2192 -0.5475,-0.3825 -0.1517,-0.1633 -0.2683,-0.3583 -0.35,-0.585 -0.08,-0.2267 -0.12,-0.4742 -0.12,-0.7425 0,-0.2717 0.0433,-0.52 0.13,-0.745 0.0867,-0.2267 0.2083,-0.4217 0.365,-0.585 0.1583,-0.1633 0.3467,-0.29 0.565,-0.38 0.2183,-0.0917 0.46,-0.1375 0.725,-0.1375 0.2633,0 0.4967,0.0433 0.7,0.13 0.205,0.0867 0.3792,0.2 0.5225,0.34 l -0.225,0.3125 c -0.0133,0.02 -0.0308,0.0375 -0.0525,0.0525 -0.02,0.015 -0.0483,0.0225 -0.085,0.0225 -0.025,0 -0.0508,-0.0067 -0.0775,-0.02 -0.0267,-0.015 -0.0558,-0.0325 -0.0875,-0.0525 -0.0317,-0.0217 -0.0683,-0.045 -0.11,-0.07 -0.0417,-0.025 -0.09,-0.0475 -0.145,-0.0675 -0.055,-0.0217 -0.1192,-0.0392 -0.1925,-0.0525 -0.0717,-0.015 -0.155,-0.0225 -0.25,-0.0225 -0.1617,0 -0.31,0.0292 -0.445,0.0875 -0.1333,0.0567 -0.2483,0.14 -0.345,0.25 -0.0967,0.1083 -0.1717,0.2417 -0.225,0.4 -0.0533,0.1567 -0.08,0.3358 -0.08,0.5375 0,0.2033 0.0283,0.3842 0.085,0.5425 0.0583,0.1583 0.1367,0.2917 0.235,0.4 0.0983,0.1083 0.2142,0.1917 0.3475,0.25 0.1333,0.0567 0.2767,0.085 0.43,0.085 0.0917,0 0.1742,-0.005 0.2475,-0.015 0.075,-0.01 0.1433,-0.0258 0.205,-0.0475 0.0633,-0.0217 0.1225,-0.0492 0.1775,-0.0825 0.0567,-0.035 0.1125,-0.0775 0.1675,-0.1275 0.0167,-0.015 0.0342,-0.0267 0.0525,-0.035 0.0183,-0.01 0.0375,-0.015 0.0575,-0.015 z M 85.2384,57.385 84.1159,61 h -0.6075 l -0.79,-2.47 c -0.0217,-0.06 -0.0417,-0.1333 -0.06,-0.22 -0.01,0.0417 -0.02,0.0808 -0.03,0.1175 -0.01,0.0367 -0.0209,0.0708 -0.0325,0.1025 L 81.7984,61 h -0.61 l -1.12,-3.615 h 0.5625 c 0.0583,0 0.1066,0.0142 0.145,0.0425 0.04,0.0267 0.0666,0.0633 0.08,0.11 l 0.615,2.1625 c 0.0133,0.0533 0.0258,0.1117 0.0375,0.175 0.0133,0.0617 0.0266,0.1267 0.04,0.195 0.0133,-0.07 0.0275,-0.1358 0.0425,-0.1975 0.0166,-0.0617 0.0341,-0.1192 0.0525,-0.1725 l 0.71,-2.1625 c 0.0133,-0.0383 0.0391,-0.0733 0.0775,-0.105 0.04,-0.0317 0.0883,-0.0475 0.145,-0.0475 h 0.1975 c 0.0583,0 0.1058,0.0142 0.1425,0.0425 0.0366,0.0283 0.0641,0.065 0.0825,0.11 L 83.7059,59.7 c 0.035,0.1033 0.0666,0.2225 0.095,0.3575 0.0216,-0.1317 0.0458,-0.2508 0.0725,-0.3575 l 0.615,-2.1625 c 0.01,-0.0417 0.035,-0.0775 0.075,-0.1075 0.0416,-0.03 0.0908,-0.045 0.1475,-0.045 z"
     fill="#ffffff"
     id="path1046"
     style="opacity:0.5" />
  <path
     d="m 93,68 c 0,-1.2367 1,-2.5004 1,-4 0,-1.4996 0.5001,-2.5 1,-2.5 0.4999,0 1,1 2,1 1,0 1,0.5 1.5,0.5 0.5,0 0.5,-0.5 1.5,-0.5 1,0 5,0 5,0"
     stroke="#ffffff"
     id="path1048"
     style="opacity:0.5" />
  <path
     d="m 96.3007,59.105 c 0.1266,0 0.2366,-0.0158 0.33,-0.0475 0.095,-0.0317 0.1725,-0.075 0.2325,-0.13 0.0616,-0.0567 0.1075,-0.1233 0.1375,-0.2 0.03,-0.0767 0.045,-0.1608 0.045,-0.2525 0,-0.1833 -0.0609,-0.3242 -0.1825,-0.4225 -0.12,-0.0983 -0.3042,-0.1475 -0.5525,-0.1475 h -0.43 v 1.2 z m 1.73,1.895 h -0.6075 c -0.115,0 -0.1984,-0.045 -0.25,-0.135 l -0.76,-1.1575 c -0.0284,-0.0433 -0.06,-0.0742 -0.095,-0.0925 -0.0334,-0.0183 -0.0834,-0.0275 -0.15,-0.0275 H 95.8807 V 61 h -0.6725 v -3.615 h 1.1025 c 0.245,0 0.455,0.0258 0.63,0.0775 0.1766,0.05 0.3208,0.1208 0.4325,0.2125 0.1133,0.0917 0.1966,0.2017 0.25,0.33 0.0533,0.1267 0.08,0.2667 0.08,0.42 0,0.1217 -0.0184,0.2367 -0.055,0.345 -0.035,0.1083 -0.0867,0.2067 -0.155,0.295 -0.0667,0.0883 -0.15,0.1658 -0.25,0.2325 -0.0984,0.0667 -0.2109,0.1192 -0.3375,0.1575 0.0433,0.025 0.0833,0.055 0.12,0.09 0.0366,0.0333 0.07,0.0733 0.1,0.12 z M 103.153,57.385 102.03,61 h -0.607 l -0.79,-2.47 c -0.022,-0.06 -0.042,-0.1333 -0.06,-0.22 -0.01,0.0417 -0.02,0.0808 -0.03,0.1175 -0.01,0.0367 -0.021,0.0708 -0.033,0.1025 L 99.7129,61 h -0.61 l -1.12,-3.615 h 0.5625 c 0.0584,0 0.1067,0.0142 0.145,0.0425 0.04,0.0267 0.0667,0.0633 0.08,0.11 l 0.615,2.1625 c 0.0134,0.0533 0.0259,0.1117 0.0375,0.175 0.0134,0.0617 0.0267,0.1267 0.04,0.195 0.0134,-0.07 0.0275,-0.1358 0.0425,-0.1975 0.0167,-0.0617 0.0342,-0.1192 0.0525,-0.1725 l 0.7101,-2.1625 c 0.013,-0.0383 0.039,-0.0733 0.077,-0.105 0.04,-0.0317 0.089,-0.0475 0.145,-0.0475 h 0.198 c 0.058,0 0.106,0.0142 0.142,0.0425 0.037,0.0283 0.065,0.065 0.083,0.11 L 101.62,59.7 c 0.035,0.1033 0.067,0.2225 0.095,0.3575 0.022,-0.1317 0.046,-0.2508 0.073,-0.3575 l 0.615,-2.1625 c 0.01,-0.0417 0.035,-0.0775 0.075,-0.1075 0.042,-0.03 0.091,-0.045 0.147,-0.045 z"
     fill="#ffffff"
     id="path1050"
     style="opacity:0.5" />
  <path
     fill-rule="evenodd"
     clip-rule="evenodd"
     d="M 6.61327,80.6973 C 6.00115,80.2892 5.16251,80 4,80 v -1 c 1.33749,0 2.37385,0.3358 3.16798,0.8652 0.79099,0.5274 1.31208,1.2269 1.65423,1.9112 C 8.88763,81.9072 8.94669,82.0378 9,82.167 9.05332,82.0378 9.11237,81.9072 9.17779,81.7764 9.51994,81.0921 10.041,80.3926 10.832,79.8652 11.6261,79.3358 12.6625,79 14,79 v 1 c -1.1625,0 -2.0011,0.2892 -2.6133,0.6973 -0.6152,0.4101 -1.0316,0.9606 -1.3145,1.5263 -0.28381,0.5676 -0.42821,1.1413 -0.50088,1.5773 -0.03613,0.2169 -0.05401,0.3965 -0.06283,0.5199 -0.0044,0.0616 -0.00652,0.109 -0.00755,0.1397 -5.1e-4,0.0154 -7.4e-4,0.0265 -8.5e-4,0.0332 L 9.5,84.4995 v 5e-4 3e-4 c 0,4e-4 0,6e-4 0,7e-4 v -2e-4 -4e-4 C 9.49977,84.7764 9.276,85 9,85 8.72412,85 8.50043,84.7766 8.5,84.5008 v 2e-4 c 0,-1e-4 0,-3e-4 0,-7e-4 l -9e-5,-0.0066 C 8.4998,84.487 8.49957,84.4759 8.49906,84.4605 8.49803,84.4298 8.49591,84.3824 8.49151,84.3208 8.48269,84.1974 8.46481,84.0178 8.42868,83.8009 8.35601,83.3649 8.21161,82.7912 7.92779,82.2236 7.64494,81.6579 7.22853,81.1074 6.61327,80.6973 Z"
     fill="#ffffff"
     id="path1052"
     style="opacity:0.5" />
  <path
     d="m 25,79 c 0.3375,0 0.6864,0.0858 1.0117,0.3027 0.3223,0.2149 0.5934,0.5394 0.8105,0.9737 0.0828,0.1656 0.159,0.3497 0.228,0.5535 0.144,-0.4022 0.3285,-0.7816 0.5672,-1.0894 C 27.9423,79.3215 28.3995,79 29,79 h 3 v 1 h -3 c -0.1995,0 -0.3923,0.0952 -0.5924,0.3533 -0.207,0.267 -0.3852,0.6671 -0.5271,1.1601 C 27.5979,82.4946 27.5,83.694 27.5,84.5 27.5,84.7761 27.2761,85 27,85 26.7239,85 26.5,84.7761 26.5,84.5 26.5,82.5255 26.2505,81.3691 25.9278,80.7236 25.7699,80.4079 25.6035,80.2324 25.457,80.1348 25.3136,80.0392 25.1625,80 25,80 h -3 v -1 z"
     fill="#ffffff"
     id="path1054"
     style="opacity:0.5" />
  <path
     fill-rule="evenodd"
     clip-rule="evenodd"
     d="M 42.6133,81.6973 C 42.0011,81.2892 41.1625,81 40,81 v -1 c 1.3375,0 2.3739,0.3358 3.168,0.8652 0.791,0.5274 1.3121,1.2269 1.6542,1.9112 0.0654,0.1308 0.1245,0.2614 0.1778,0.3906 0.0533,-0.1292 0.1124,-0.2598 0.1778,-0.3906 0.3421,-0.6843 0.8632,-1.3838 1.6542,-1.9112 C 47.6261,80.3358 48.6625,80 50,80 v 1 c -1.1625,0 -2.0011,0.2892 -2.6133,0.6973 -0.6152,0.4101 -1.0316,0.9606 -1.3145,1.5263 -0.2838,0.5676 -0.4282,1.1413 -0.5009,1.5773 -0.0361,0.2169 -0.054,0.3965 -0.0628,0.5199 -0.0044,0.0616 -0.0065,0.109 -0.0076,0.1397 -5e-4,0.0154 -7e-4,0.0265 -8e-4,0.0332 l -1e-4,0.0058 v 5e-4 3e-4 c 0,4e-4 0,6e-4 0,7e-4 v -2e-4 -4e-4 C 45.4998,85.7764 45.276,86 45,86 44.7241,86 44.5004,85.7766 44.5,85.5008 v 2e-4 c 0,-1e-4 0,-3e-4 0,-7e-4 l -1e-4,-0.0066 c -10e-5,-0.0067 -3e-4,-0.0178 -8e-4,-0.0332 -0.0011,-0.0307 -0.0032,-0.0781 -0.0076,-0.1397 -0.0088,-0.1234 -0.0267,-0.303 -0.0628,-0.5199 -0.0727,-0.436 -0.2171,-1.0097 -0.5009,-1.5773 -0.2829,-0.5657 -0.6993,-1.1162 -1.3145,-1.5263 z"
     fill="#ffffff"
     id="path1056"
     style="opacity:0.5" />
  <path
     d="m 41.2963,77.1925 c 0,0.265 -0.0442,0.5108 -0.1325,0.7375 -0.0867,0.225 -0.21,0.42 -0.37,0.585 -0.16,0.165 -0.3525,0.2942 -0.5775,0.3875 -0.225,0.0917 -0.475,0.1375 -0.75,0.1375 -0.2733,0 -0.5225,-0.0458 -0.7475,-0.1375 -0.225,-0.0933 -0.4183,-0.2225 -0.58,-0.3875 -0.16,-0.165 -0.2842,-0.36 -0.3725,-0.585 -0.0883,-0.2267 -0.1325,-0.4725 -0.1325,-0.7375 0,-0.265 0.0442,-0.51 0.1325,-0.735 0.0883,-0.2267 0.2125,-0.4225 0.3725,-0.5875 0.1617,-0.165 0.355,-0.2933 0.58,-0.385 0.225,-0.0933 0.4742,-0.14 0.7475,-0.14 0.1833,0 0.3558,0.0217 0.5175,0.065 0.1617,0.0417 0.31,0.1017 0.445,0.18 0.135,0.0767 0.2558,0.1708 0.3625,0.2825 0.1083,0.11 0.2,0.2333 0.275,0.37 0.075,0.1367 0.1317,0.285 0.17,0.445 0.04,0.16 0.06,0.3283 0.06,0.505 z m -0.6875,0 c 0,-0.1983 -0.0267,-0.3758 -0.08,-0.5325 -0.0533,-0.1583 -0.1292,-0.2925 -0.2275,-0.4025 -0.0983,-0.11 -0.2183,-0.1942 -0.36,-0.2525 -0.14,-0.0583 -0.2983,-0.0875 -0.475,-0.0875 -0.1767,0 -0.3358,0.0292 -0.4775,0.0875 -0.14,0.0583 -0.26,0.1425 -0.36,0.2525 -0.0983,0.11 -0.1742,0.2442 -0.2275,0.4025 -0.0533,0.1567 -0.08,0.3342 -0.08,0.5325 0,0.1983 0.0267,0.3767 0.08,0.535 0.0533,0.1567 0.1292,0.29 0.2275,0.4 0.1,0.1083 0.22,0.1917 0.36,0.25 0.1417,0.0583 0.3008,0.0875 0.4775,0.0875 0.1767,0 0.335,-0.0292 0.475,-0.0875 0.1417,-0.0583 0.2617,-0.1417 0.36,-0.25 0.0983,-0.11 0.1742,-0.2433 0.2275,-0.4 0.0533,-0.1583 0.08,-0.3367 0.08,-0.535 z m 2.6306,1.2825 c 0.125,0 0.23,-0.015 0.315,-0.045 0.085,-0.03 0.1525,-0.07 0.2025,-0.12 0.0516,-0.05 0.0883,-0.1083 0.11,-0.175 0.0233,-0.0667 0.035,-0.1375 0.035,-0.2125 0,-0.0783 -0.0125,-0.1483 -0.0375,-0.21 -0.025,-0.0633 -0.0642,-0.1167 -0.1175,-0.16 -0.0534,-0.045 -0.1225,-0.0792 -0.2075,-0.1025 -0.0834,-0.0233 -0.1842,-0.035 -0.3025,-0.035 h -0.6775 v 1.06 z m -0.68,-2.57 v 1.045 h 0.535 c 0.23,0 0.4033,-0.0417 0.52,-0.125 0.1183,-0.0833 0.1775,-0.2158 0.1775,-0.3975 0,-0.1883 -0.0534,-0.3225 -0.16,-0.4025 -0.1067,-0.08 -0.2734,-0.12 -0.5,-0.12 z m 0.5725,-0.52 c 0.2366,0 0.4391,0.0225 0.6075,0.0675 0.1683,0.045 0.3058,0.1092 0.4125,0.1925 0.1083,0.0833 0.1875,0.1842 0.2375,0.3025 0.05,0.1183 0.075,0.2517 0.075,0.4 0,0.085 -0.0125,0.1667 -0.0375,0.245 -0.025,0.0767 -0.0642,0.1492 -0.1175,0.2175 -0.0517,0.0667 -0.1184,0.1275 -0.2,0.1825 -0.08,0.055 -0.1759,0.1017 -0.2875,0.14 0.4966,0.1117 0.745,0.38 0.745,0.805 0,0.1533 -0.0292,0.295 -0.0875,0.425 -0.0584,0.13 -0.1434,0.2425 -0.255,0.3375 -0.1117,0.0933 -0.2492,0.1667 -0.4125,0.22 -0.1634,0.0533 -0.35,0.08 -0.56,0.08 h -1.365 v -3.615 z m 1.9285,1.8475 h 1.295 v 0.515 h -1.295 z M 49.8634,79 h -0.67 c -0.0466,0 -0.0841,-0.0117 -0.1125,-0.035 -0.0266,-0.0233 -0.0483,-0.05 -0.065,-0.08 l -0.8375,-1.3875 c -0.0133,0.0417 -0.0291,0.0775 -0.0475,0.1075 l -0.8025,1.28 c -0.02,0.0283 -0.0433,0.055 -0.07,0.08 -0.025,0.0233 -0.0583,0.035 -0.1,0.035 h -0.6275 l 1.2,-1.86 -1.1525,-1.755 h 0.67 c 0.0467,0 0.08,0.0067 0.1,0.02 0.0217,0.0117 0.0417,0.0317 0.06,0.06 l 0.8225,1.325 c 0.0167,-0.0417 0.0367,-0.0833 0.06,-0.125 l 0.755,-1.1875 c 0.0184,-0.0317 0.0384,-0.055 0.06,-0.07 0.0217,-0.015 0.0492,-0.0225 0.0825,-0.0225 h 0.6425 l -1.1625,1.7275 z m 1.7684,-1.91 c -0.07,-0.085 -0.1467,-0.145 -0.23,-0.18 -0.0817,-0.035 -0.17,-0.0525 -0.265,-0.0525 -0.0933,0 -0.1775,0.0175 -0.2525,0.0525 -0.075,0.035 -0.1392,0.0883 -0.1925,0.16 -0.0533,0.07 -0.0942,0.16 -0.1225,0.27 -0.0283,0.1083 -0.0425,0.2367 -0.0425,0.385 0,0.15 0.0117,0.2775 0.035,0.3825 0.025,0.1033 0.06,0.1883 0.105,0.255 0.045,0.065 0.1,0.1125 0.165,0.1425 0.065,0.0283 0.1375,0.0425 0.2175,0.0425 0.1283,0 0.2375,-0.0267 0.3275,-0.08 0.09,-0.0533 0.175,-0.1292 0.255,-0.2275 z m 0.6175,-1.805 V 79 h -0.3775 c -0.0817,0 -0.1333,-0.0375 -0.155,-0.1125 L 51.6643,78.64 c -0.1033,0.1183 -0.2225,0.2142 -0.3575,0.2875 -0.1333,0.0733 -0.2892,0.11 -0.4675,0.11 -0.14,0 -0.2683,-0.0292 -0.385,-0.0875 -0.1167,-0.0583 -0.2175,-0.1425 -0.3025,-0.2525 -0.0833,-0.1117 -0.1483,-0.2492 -0.195,-0.4125 -0.045,-0.1633 -0.0675,-0.35 -0.0675,-0.56 0,-0.19 0.0258,-0.3667 0.0775,-0.53 0.0517,-0.1633 0.1258,-0.305 0.2225,-0.425 0.0967,-0.12 0.2125,-0.2133 0.3475,-0.28 0.135,-0.0683 0.2867,-0.1025 0.455,-0.1025 0.1433,0 0.2658,0.0225 0.3675,0.0675 0.1017,0.045 0.1925,0.1058 0.2725,0.1825 V 75.285 Z"
     fill="#ffffff"
     id="path1058"
     style="opacity:0.5" />
  <path
     d="m 68,80.5 c 0,0 -0.5,0 -1.5,0 -1,0 -2,1.0004 -2,2.5 0,1.4996 -1e-4,2.5 -0.5,2.5 -0.4999,0 0,-1.5 -1,-1.5 -1,0 -0.5,1.5 -1,1.5 -0.5,0 -0.5,-1.0002 -0.5,-2.5 0,-1.4998 -1,-2.5002 -2,-2.5 -1,2e-4 -1.5,0 -1.5,0"
     stroke="#ffffff"
     id="path1060"
     style="opacity:0.5" />
  <path
     d="m 61.6052,78.1475 c 0.0367,0 0.0692,0.0142 0.0975,0.0425 l 0.265,0.2875 c -0.1467,0.1817 -0.3275,0.3208 -0.5425,0.4175 -0.2133,0.0967 -0.47,0.145 -0.77,0.145 -0.2683,0 -0.51,-0.0458 -0.725,-0.1375 -0.2133,-0.0917 -0.3958,-0.2192 -0.5475,-0.3825 -0.1517,-0.1633 -0.2683,-0.3583 -0.35,-0.585 -0.08,-0.2267 -0.12,-0.4742 -0.12,-0.7425 0,-0.2717 0.0433,-0.52 0.13,-0.745 0.0867,-0.2267 0.2083,-0.4217 0.365,-0.585 0.1583,-0.1633 0.3467,-0.29 0.565,-0.38 0.2183,-0.0917 0.46,-0.1375 0.725,-0.1375 0.2633,0 0.4967,0.0433 0.7,0.13 0.205,0.0867 0.3792,0.2 0.5225,0.34 l -0.225,0.3125 c -0.0133,0.02 -0.0308,0.0375 -0.0525,0.0525 -0.02,0.015 -0.0483,0.0225 -0.085,0.0225 -0.025,0 -0.0508,-0.0067 -0.0775,-0.02 -0.0267,-0.015 -0.0558,-0.0325 -0.0875,-0.0525 -0.0317,-0.0217 -0.0683,-0.045 -0.11,-0.07 -0.0417,-0.025 -0.09,-0.0475 -0.145,-0.0675 -0.055,-0.0217 -0.1192,-0.0392 -0.1925,-0.0525 -0.0717,-0.015 -0.155,-0.0225 -0.25,-0.0225 -0.1617,0 -0.31,0.0292 -0.445,0.0875 -0.1333,0.0567 -0.2483,0.14 -0.345,0.25 -0.0967,0.1083 -0.1717,0.2417 -0.225,0.4 -0.0533,0.1567 -0.08,0.3358 -0.08,0.5375 0,0.2033 0.0283,0.3842 0.085,0.5425 0.0583,0.1583 0.1367,0.2917 0.235,0.4 0.0983,0.1083 0.2142,0.1917 0.3475,0.25 0.1333,0.0567 0.2767,0.085 0.43,0.085 0.0917,0 0.1742,-0.005 0.2475,-0.015 0.075,-0.01 0.1433,-0.0258 0.205,-0.0475 0.0633,-0.0217 0.1225,-0.0492 0.1775,-0.0825 0.0567,-0.035 0.1125,-0.0775 0.1675,-0.1275 0.0167,-0.015 0.0342,-0.0267 0.0525,-0.035 0.0183,-0.01 0.0375,-0.015 0.0575,-0.015 z M 67.2384,75.385 66.1159,79 h -0.6075 l -0.79,-2.47 c -0.0217,-0.06 -0.0417,-0.1333 -0.06,-0.22 -0.01,0.0417 -0.02,0.0808 -0.03,0.1175 -0.01,0.0367 -0.0209,0.0708 -0.0325,0.1025 L 63.7984,79 h -0.61 l -1.12,-3.615 h 0.5625 c 0.0583,0 0.1066,0.0142 0.145,0.0425 0.04,0.0267 0.0666,0.0633 0.08,0.11 l 0.615,2.1625 c 0.0133,0.0533 0.0258,0.1117 0.0375,0.175 0.0133,0.0617 0.0266,0.1267 0.04,0.195 0.0133,-0.07 0.0275,-0.1358 0.0425,-0.1975 0.0166,-0.0617 0.0341,-0.1192 0.0525,-0.1725 l 0.71,-2.1625 c 0.0133,-0.0383 0.0391,-0.0733 0.0775,-0.105 0.04,-0.0317 0.0883,-0.0475 0.145,-0.0475 h 0.1975 c 0.0583,0 0.1058,0.0142 0.1425,0.0425 0.0366,0.0283 0.0641,0.065 0.0825,0.11 L 65.7059,77.7 c 0.035,0.1033 0.0666,0.2225 0.095,0.3575 0.0216,-0.1317 0.0458,-0.2508 0.0725,-0.3575 l 0.615,-2.1625 c 0.01,-0.0417 0.035,-0.0775 0.075,-0.1075 0.0416,-0.03 0.0908,-0.045 0.1475,-0.045 z"
     fill="#ffffff"
     id="path1062"
     style="opacity:0.5" />
  <path
     d="m 86,80.5 c 0,0 -0.5,0 -1.5,0 -1,0 -2,1.0004 -2,2.5 0,1.4996 -1e-4,2.5 -0.5,2.5 -0.4999,0 0,-1.5 -1,-1.5 -1,0 -0.5,1.5 -1,1.5 -0.5,0 -0.5,-1.0002 -0.5,-2.5 0,-1.4998 -1,-2.5002 -2,-2.5 -1,2e-4 -1.5,0 -1.5,0"
     stroke="#ffffff"
     id="path1064"
     style="opacity:0.5" />
  <path
     d="m 78.3007,77.105 c 0.1266,0 0.2366,-0.0158 0.33,-0.0475 0.095,-0.0317 0.1725,-0.075 0.2325,-0.13 0.0616,-0.0567 0.1075,-0.1233 0.1375,-0.2 0.03,-0.0767 0.045,-0.1608 0.045,-0.2525 0,-0.1833 -0.0609,-0.3242 -0.1825,-0.4225 -0.12,-0.0983 -0.3042,-0.1475 -0.5525,-0.1475 h -0.43 v 1.2 z m 1.73,1.895 h -0.6075 c -0.115,0 -0.1984,-0.045 -0.25,-0.135 l -0.76,-1.1575 c -0.0284,-0.0433 -0.06,-0.0742 -0.095,-0.0925 -0.0334,-0.0183 -0.0834,-0.0275 -0.15,-0.0275 H 77.8807 V 79 h -0.6725 v -3.615 h 1.1025 c 0.245,0 0.455,0.0258 0.63,0.0775 0.1766,0.05 0.3208,0.1208 0.4325,0.2125 0.1133,0.0917 0.1966,0.2017 0.25,0.33 0.0533,0.1267 0.08,0.2667 0.08,0.42 0,0.1217 -0.0184,0.2367 -0.055,0.345 -0.035,0.1083 -0.0867,0.2067 -0.155,0.295 -0.0667,0.0883 -0.15,0.1658 -0.25,0.2325 -0.0984,0.0667 -0.2109,0.1192 -0.3375,0.1575 0.0433,0.025 0.0833,0.055 0.12,0.09 0.0366,0.0333 0.07,0.0733 0.1,0.12 z M 85.1529,75.385 84.0304,79 h -0.6075 l -0.79,-2.47 c -0.0216,-0.06 -0.0416,-0.1333 -0.06,-0.22 -0.01,0.0417 -0.02,0.0808 -0.03,0.1175 -0.01,0.0367 -0.0208,0.0708 -0.0325,0.1025 L 81.7129,79 h -0.61 l -1.12,-3.615 h 0.5625 c 0.0584,0 0.1067,0.0142 0.145,0.0425 0.04,0.0267 0.0667,0.0633 0.08,0.11 l 0.615,2.1625 c 0.0134,0.0533 0.0259,0.1117 0.0375,0.175 0.0134,0.0617 0.0267,0.1267 0.04,0.195 0.0134,-0.07 0.0275,-0.1358 0.0425,-0.1975 0.0167,-0.0617 0.0342,-0.1192 0.0525,-0.1725 l 0.71,-2.1625 c 0.0134,-0.0383 0.0392,-0.0733 0.0775,-0.105 0.04,-0.0317 0.0884,-0.0475 0.145,-0.0475 h 0.1975 c 0.0584,0 0.1059,0.0142 0.1425,0.0425 0.0367,0.0283 0.0642,0.065 0.0825,0.11 L 83.6204,77.7 c 0.035,0.1033 0.0667,0.2225 0.095,0.3575 0.0217,-0.1317 0.0459,-0.2508 0.0725,-0.3575 l 0.615,-2.1625 c 0.01,-0.0417 0.035,-0.0775 0.075,-0.1075 0.0417,-0.03 0.0909,-0.045 0.1475,-0.045 z"
     fill="#ffffff"
     id="path1066"
     style="opacity:0.5" />
  <path
     d="m 7.64033,100.15 -0.616,-1.6835 C 6.994,98.3918 6.9625,98.3032 6.92983,98.2005 6.89717,98.0978 6.8645,97.987 6.83183,97.868 6.8015,97.987 6.77,98.099 6.73733,98.204 6.70467,98.3067 6.67317,98.3965 6.64283,98.4735 l -0.6125,1.6765 z m 1.6625,1.911 h -0.728 c -0.08166,0 -0.14816,-0.02 -0.1995,-0.06 -0.05133,-0.042 -0.08983,-0.093 -0.1155,-0.154 l -0.378,-1.032 h -2.0965 l -0.378,1.032 c -0.01866,0.054 -0.05483,0.103 -0.1085,0.147 -0.05366,0.045 -0.12016,0.067 -0.1995,0.067 h -0.735 L 6.35583,97 h 0.959 z m 2.16887,-2.5165 c 0.1727,0 0.3232,-0.021 0.4515,-0.063 0.1283,-0.0443 0.2345,-0.1062 0.3185,-0.1855 0.0863,-0.0817 0.1505,-0.1797 0.1925,-0.294 0.042,-0.1167 0.063,-0.2462 0.063,-0.3885 0,-0.1353 -0.021,-0.2578 -0.063,-0.3675 -0.042,-0.1097 -0.105,-0.203 -0.189,-0.28 -0.084,-0.077 -0.1902,-0.1353 -0.3185,-0.175 -0.1283,-0.042 -0.28,-0.063 -0.455,-0.063 h -0.7035 v 1.8165 z m 0,-2.5445 c 0.3383,0 0.6312,0.0397 0.8785,0.119 0.2473,0.0793 0.4515,0.1902 0.6125,0.3325 0.161,0.1423 0.28,0.3127 0.357,0.511 0.0793,0.1983 0.119,0.4153 0.119,0.651 0,0.245 -0.0408,0.4702 -0.1225,0.6755 -0.0817,0.203 -0.2042,0.378 -0.3675,0.525 -0.1633,0.147 -0.3687,0.261 -0.616,0.343 -0.245,0.082 -0.532,0.122 -0.861,0.122 h -0.7035 v 1.782 H 9.82668 V 97 Z"
     fill="#ffffff"
     id="path1068"
     style="opacity:0.5" />
  <path
     fill-rule="evenodd"
     clip-rule="evenodd"
     d="M 21.9223,98.8622 C 21.5902,98.1538 21.2278,98 21,98 v -1 c 0.7722,0 1.4098,0.5462 1.8277,1.4378 0.0611,0.1302 0.1186,0.2697 0.1723,0.4187 0.0537,-0.149 0.1112,-0.2885 0.1723,-0.4187 C 23.5902,97.5462 24.2278,97 25,97 c 0.3375,0 0.6864,0.0858 1.0117,0.3027 0.3223,0.2149 0.5934,0.5394 0.8105,0.9737 0.0828,0.1656 0.159,0.3497 0.228,0.5535 0.144,-0.4022 0.3285,-0.7816 0.5672,-1.0894 C 27.9423,97.3215 28.3995,97 29,97 c 0.6005,0 1.0577,0.3215 1.3826,0.7405 C 30.65,98.0853 30.8494,98.52 31,98.9759 31.1506,98.52 31.35,98.0853 31.6174,97.7405 31.9423,97.3215 32.3995,97 33,97 v 1 c -0.1995,0 -0.3923,0.0952 -0.5924,0.3533 -0.207,0.267 -0.3852,0.6671 -0.5271,1.1601 C 31.5979,100.495 31.5,101.694 31.5,102.5 c 0,0.276 -0.2239,0.5 -0.5,0.5 -0.2761,0 -0.5,-0.224 -0.5,-0.5 0,-0.806 -0.0979,-2.005 -0.3805,-2.9866 -0.1419,-0.493 -0.3201,-0.8931 -0.5271,-1.1601 C 29.3923,98.0952 29.1995,98 29,98 c -0.1995,0 -0.3923,0.0952 -0.5924,0.3533 -0.207,0.267 -0.3852,0.6671 -0.5271,1.1601 C 27.5979,100.495 27.5,101.694 27.5,102.5 c 0,0.276 -0.2239,0.5 -0.5,0.5 -0.2761,0 -0.5,-0.224 -0.5,-0.5 0,-1.974 -0.2495,-3.1309 -0.5722,-3.7764 C 25.7699,98.4079 25.6035,98.2324 25.457,98.1348 25.3136,98.0392 25.1625,98 25,98 24.7722,98 24.4098,98.1538 24.0777,98.8622 23.7466,99.5687 23.5,100.736 23.5,102.5 c 0,0.276 -0.2239,0.5 -0.5,0.5 -0.2761,0 -0.5,-0.224 -0.5,-0.5 0,-1.764 -0.2466,-2.9313 -0.5777,-3.6378 z"
     fill="#ffffff"
     id="path1070"
     style="opacity:0.5" />
  <path
     fill-rule="evenodd"
     clip-rule="evenodd"
     d="M 39.9223,101.138 C 39.5902,101.846 39.2278,102 39,102 v 1 c 0.7722,0 1.4098,-0.546 1.8277,-1.438 0.0611,-0.13 0.1186,-0.269 0.1723,-0.419 0.0537,0.15 0.1112,0.289 0.1723,0.419 0.4179,0.892 1.0555,1.438 1.8277,1.438 0.3375,0 0.6864,-0.086 1.0117,-0.303 0.3223,-0.215 0.5934,-0.539 0.8105,-0.973 0.0828,-0.166 0.159,-0.35 0.228,-0.554 0.144,0.402 0.3285,0.782 0.5672,1.09 0.3249,0.419 0.7821,0.74 1.3826,0.74 0.6005,0 1.0577,-0.321 1.3826,-0.74 0.2674,-0.345 0.4668,-0.78 0.6174,-1.236 0.1506,0.456 0.35,0.891 0.6174,1.236 0.3249,0.419 0.7821,0.74 1.3826,0.74 v -1 c -0.1995,0 -0.3923,-0.095 -0.5924,-0.353 -0.207,-0.267 -0.3852,-0.667 -0.5271,-1.16 C 49.5979,99.5054 49.5,98.306 49.5,97.5 49.5,97.2239 49.2761,97 49,97 c -0.2761,0 -0.5,0.2239 -0.5,0.5 0,0.806 -0.0979,2.0054 -0.3805,2.987 -0.1419,0.493 -0.3201,0.893 -0.5271,1.16 C 47.3923,101.905 47.1995,102 47,102 c -0.1995,0 -0.3923,-0.095 -0.5924,-0.353 -0.207,-0.267 -0.3852,-0.667 -0.5271,-1.16 C 45.5979,99.5054 45.5,98.306 45.5,97.5 45.5,97.2239 45.2761,97 45,97 c -0.2761,0 -0.5,0.2239 -0.5,0.5 0,1.9745 -0.2495,3.131 -0.5722,3.776 -0.1579,0.316 -0.3243,0.492 -0.4708,0.589 C 43.3136,101.961 43.1625,102 43,102 42.7722,102 42.4098,101.846 42.0777,101.138 41.7466,100.431 41.5,99.264 41.5,97.5 41.5,97.2239 41.2761,97 41,97 c -0.2761,0 -0.5,0.2239 -0.5,0.5 0,1.764 -0.2466,2.931 -0.5777,3.638 z"
     fill="#ffffff"
     id="path1072"
     style="opacity:0.5" />
  <path
     d="m 59.1081,97.9765 c -0.028,0.049 -0.0583,0.0852 -0.091,0.1085 -0.0303,0.021 -0.0688,0.0315 -0.1155,0.0315 -0.049,0 -0.1027,-0.0175 -0.161,-0.0525 -0.056,-0.0373 -0.1237,-0.0782 -0.203,-0.1225 -0.0793,-0.0443 -0.1727,-0.084 -0.28,-0.119 -0.105,-0.0373 -0.2298,-0.056 -0.3745,-0.056 -0.1307,0 -0.245,0.0163 -0.343,0.049 -0.098,0.0303 -0.1808,0.0735 -0.2485,0.1295 -0.0653,0.056 -0.1143,0.1237 -0.147,0.203 -0.0327,0.077 -0.049,0.1622 -0.049,0.2555 0,0.119 0.0327,0.2182 0.098,0.2975 0.0677,0.0793 0.1563,0.147 0.266,0.203 0.1097,0.056 0.2345,0.1062 0.3745,0.1505 0.14,0.0443 0.2835,0.0922 0.4305,0.1435 0.147,0.049 0.2905,0.1073 0.4305,0.175 0.14,0.0653 0.2648,0.1493 0.3745,0.252 0.1097,0.1003 0.1972,0.224 0.2625,0.371 0.0677,0.147 0.1015,0.325 0.1015,0.535 0,0.229 -0.0397,0.444 -0.119,0.644 -0.077,0.199 -0.1913,0.373 -0.343,0.522 -0.1493,0.147 -0.3325,0.264 -0.5495,0.35 -0.217,0.084 -0.4655,0.126 -0.7455,0.126 -0.161,0 -0.3197,-0.016 -0.476,-0.049 -0.1563,-0.03 -0.3068,-0.075 -0.4515,-0.133 -0.1423,-0.058 -0.2765,-0.128 -0.4025,-0.21 -0.126,-0.082 -0.238,-0.173 -0.336,-0.273 l 0.2765,-0.452 c 0.0233,-0.032 0.0537,-0.059 0.091,-0.08 0.0373,-0.023 0.077,-0.035 0.119,-0.035 0.0583,0 0.1213,0.024 0.189,0.073 0.0677,0.047 0.1482,0.1 0.2415,0.158 0.0933,0.058 0.2018,0.112 0.3255,0.161 0.126,0.047 0.2765,0.07 0.4515,0.07 0.2683,0 0.476,-0.063 0.623,-0.189 0.147,-0.128 0.2205,-0.312 0.2205,-0.55 0,-0.133 -0.0338,-0.241 -0.1015,-0.325 -0.0653,-0.084 -0.1528,-0.154 -0.2625,-0.21 -0.1097,-0.0583 -0.2345,-0.1073 -0.3745,-0.147 -0.14,-0.0397 -0.2823,-0.0828 -0.427,-0.1295 -0.1447,-0.0467 -0.287,-0.1027 -0.427,-0.168 -0.14,-0.0653 -0.2648,-0.1505 -0.3745,-0.2555 -0.1097,-0.105 -0.1983,-0.2357 -0.266,-0.392 -0.0653,-0.1587 -0.098,-0.3535 -0.098,-0.5845 0,-0.1843 0.0362,-0.364 0.1085,-0.539 0.0747,-0.175 0.182,-0.3302 0.322,-0.4655 0.14,-0.1353 0.3127,-0.2438 0.518,-0.3255 C 57.3709,97.0408 57.6066,97 57.8726,97 c 0.2987,0 0.574,0.0467 0.826,0.14 0.252,0.0933 0.4667,0.224 0.644,0.392 z m 2.2563,1.7745 c -0.1867,0.1213 -0.3232,0.259 -0.4095,0.413 -0.084,0.152 -0.126,0.315 -0.126,0.49 0,0.128 0.0222,0.244 0.0665,0.346 0.0443,0.103 0.1038,0.191 0.1785,0.263 0.077,0.07 0.1657,0.125 0.266,0.164 0.1027,0.038 0.2112,0.056 0.3255,0.056 0.2053,0 0.3932,-0.031 0.5635,-0.094 0.1703,-0.065 0.3243,-0.155 0.462,-0.27 z m 3.3705,2.366 h -0.847 c -0.0887,0 -0.161,-0.011 -0.217,-0.032 -0.0537,-0.021 -0.1108,-0.065 -0.1715,-0.133 l -0.35,-0.36 c -0.2217,0.182 -0.4702,0.324 -0.7455,0.427 -0.2753,0.103 -0.5728,0.154 -0.8925,0.154 -0.1937,0 -0.385,-0.033 -0.574,-0.098 -0.1867,-0.068 -0.3535,-0.165 -0.5005,-0.291 -0.147,-0.126 -0.266,-0.277 -0.357,-0.455 -0.0887,-0.179 -0.133,-0.381 -0.133,-0.605 0,-0.159 0.0257,-0.308 0.077,-0.448 0.0513,-0.142 0.1225,-0.2742 0.2135,-0.3955 0.091,-0.1213 0.1995,-0.2298 0.3255,-0.3255 0.126,-0.098 0.2637,-0.182 0.413,-0.252 -0.126,-0.175 -0.217,-0.3453 -0.273,-0.511 -0.056,-0.168 -0.084,-0.3348 -0.084,-0.5005 0,-0.175 0.0315,-0.3407 0.0945,-0.497 0.0653,-0.1587 0.1587,-0.2963 0.28,-0.413 0.1213,-0.1167 0.2707,-0.2088 0.448,-0.2765 0.1773,-0.07 0.378,-0.105 0.602,-0.105 0.2053,0 0.3885,0.0315 0.5495,0.0945 0.1633,0.063 0.3022,0.147 0.4165,0.252 0.1167,0.105 0.2077,0.2252 0.273,0.3605 0.0677,0.1353 0.1073,0.2753 0.119,0.42 l -0.5495,0.1155 c -0.1027,0.021 -0.1773,-0.0233 -0.224,-0.133 -0.021,-0.0607 -0.049,-0.1178 -0.084,-0.1715 -0.0327,-0.056 -0.0723,-0.1038 -0.119,-0.1435 -0.0467,-0.042 -0.1015,-0.0747 -0.1645,-0.098 -0.063,-0.0257 -0.1353,-0.0385 -0.217,-0.0385 -0.098,0 -0.1855,0.0175 -0.2625,0.0525 -0.077,0.0327 -0.1423,0.0782 -0.196,0.1365 -0.0513,0.056 -0.091,0.1225 -0.119,0.1995 -0.028,0.0747 -0.042,0.154 -0.042,0.238 0,0.07 0.007,0.1377 0.021,0.203 0.014,0.0653 0.0373,0.1307 0.07,0.196 0.0327,0.0653 0.0747,0.133 0.126,0.203 0.0537,0.0677 0.119,0.1412 0.196,0.2205 l 1.344,1.396 c 0.077,-0.147 0.1388,-0.302 0.1855,-0.465 0.0467,-0.1633 0.077,-0.329 0.091,-0.497 0.007,-0.0537 0.0257,-0.0968 0.056,-0.1295 0.0303,-0.0327 0.0723,-0.049 0.126,-0.049 h 0.539 c -0.0023,0.308 -0.0467,0.602 -0.133,0.8815 -0.0863,0.28 -0.21,0.538 -0.371,0.774 z m 4.8519,-5.061 v 5.061 h -0.945 v -2.212 h -2.3765 v 2.212 h -0.945 v -5.061 h 0.945 v 2.177 h 2.3765 v -2.177 z"
     fill="#ffffff"
     id="path1074"
     style="opacity:0.5" />
  <path
     fill-rule="evenodd"
     clip-rule="evenodd"
     d="m 7,10 h 3 V 9 H 7 Z"
     fill="#ffffff"
     id="path1645"
     style="opacity:0.5;stroke-width:0.5" />
  <path
     fill-rule="evenodd"
     clip-rule="evenodd"
     d="m 11,10 h 3 V 9 h -3 z"
     fill="#ffffff"
     id="path1647"
     style="opacity:0.5;stroke-width:0.5" />
</svg>
