<?xml version="1.0" encoding="utf-8"?>
<svg width="58px" height="78px" viewbox="0 0 58 78" version="1.1" xmlns:xlink="http://www.w3.org/1999/xlink" xmlns="http://www.w3.org/2000/svg">
  <defs>
    <rect width="58" height="78" id="artboard_1" />
    <clipPath id="clip_1">
      <use xlink:href="#artboard_1" clip-rule="evenodd" />
    </clipPath>
  </defs>
  <g id="hoverOn00146" clip-path="url(#clip_1)">
    <g id="Group">
      <path d="M0 0L55 0L55 8L0 8L0 0Z" transform="translate(3 0)" id="Rectangle" fill="#A17368" fill-opacity="0.8" fill-rule="evenodd" stroke="none" />
      <path d="M0 0L2 0L2 8L0 8L0 0Z" id="Rectangle" fill="#F7DF5F" fill-rule="evenodd" stroke="none" />
      <path d="M0.657001 4.23431L0.657001 2.48231L2.47 2.48231L2.47 1.90231L0.657001 1.90231L0.657001 0.602307L2.64 0.602307L2.64 0.00230706L0 0.00230706L0 4.23431L0.657001 4.23431ZM4.146 0.584307L5.07 0.584307C5.28022 0.55595 5.49227 0.621608 5.64968 0.763801C5.8071 0.905994 5.89391 1.11029 5.887 1.32231C5.90166 1.53367 5.81979 1.7403 5.66435 1.88428C5.50891 2.02826 5.29663 2.09408 5.087 2.06331L4.146 2.06331L4.146 0.584307ZM4.146 2.62331L5.07 2.62331L5.933 4.23431L6.692 4.23431L5.742 2.51431C6.25276 2.33834 6.58658 1.84697 6.562 1.30731C6.57426 0.941014 6.42705 0.587409 6.15848 0.338024C5.88991 0.0886384 5.52639 -0.0320104 5.162 0.00730669L3.49 0.00730669L3.49 4.23431L4.146 4.23431L4.146 2.62331ZM10.181 3.63431L8.154 3.63431L8.154 2.36831L10.07 2.36831L10.07 1.80031L8.154 1.80031L8.154 0.600307L10.181 0.600307L10.181 0.000306726L7.497 0.000306726L7.497 4.23431L10.181 4.23431L10.181 3.63431ZM13.811 3.63431L11.783 3.63431L11.783 2.36831L13.702 2.36831L13.702 1.80031L11.783 1.80031L11.783 0.600307L13.81 0.600307L13.81 0.000306726L11.127 0.000306726L11.127 4.23431L13.811 4.23431L13.811 3.63431ZM15.411 0.581307L16.337 0.581307C16.5472 0.552951 16.7593 0.618608 16.9167 0.760801C17.0741 0.902994 17.1609 1.10729 17.154 1.31931C17.1687 1.53067 17.0868 1.7373 16.9314 1.88128C16.7759 2.02526 16.5636 2.09108 16.354 2.06031L15.411 2.06031L15.411 0.581307ZM15.411 2.62031L16.337 2.62031L17.2 4.23431L17.959 4.23431L17.01 2.51431C17.5208 2.33834 17.8546 1.84697 17.83 1.30731C17.8423 0.941014 17.695 0.587409 17.4265 0.338024C17.1579 0.0886389 16.7944 -0.0320104 16.43 0.00730669L14.757 0.00730669L14.757 4.23431L15.413 4.23431L15.411 2.62031ZM19.431 0.00430739L18.775 0.00430739L18.775 2.77531C18.767 3.21874 18.9505 3.64412 19.2785 3.94264C19.6065 4.24116 20.0473 4.38388 20.488 4.33431C20.9287 4.38318 21.3691 4.24025 21.6971 3.94191C22.0251 3.64358 22.209 3.21863 22.202 2.77531L22.202 0.00630677L21.546 0.00630677L21.546 2.71931C21.5595 2.99882 21.4502 3.27028 21.2469 3.4625C21.0435 3.65472 20.7663 3.74852 20.488 3.71931C20.2101 3.74793 19.9336 3.65382 19.7308 3.46164C19.528 3.26945 19.4193 2.99834 19.433 2.71931L19.431 0.00430739ZM23.909 4.23431L23.909 1.23431L23.956 1.23431L26.127 4.23431L26.719 4.23431L26.719 0.00630677L26.08 0.00630677L26.08 3.00631L26.033 3.00631L23.862 0.00630677L23.27 0.00630677L23.27 4.23431L23.909 4.23431Z" transform="translate(6.529999 1.7656931)" id="Shape" fill="#F9C442" fill-rule="evenodd" stroke="none" />
      <path d="M0 0L55 0L55 8L0 8L0 0Z" transform="translate(3 35)" id="Rectangle" fill="#A17368" fill-opacity="0.8" fill-rule="evenodd" stroke="none" />
      <path d="M0 0L2 0L2 8L0 8L0 0Z" transform="translate(0 35)" id="Rectangle" fill="#F7DF5F" fill-rule="evenodd" stroke="none" />
      <path d="M0.657001 4.33812L0.657001 2.94912L1.132 2.41912L2.549 4.33812L3.37 4.33812L1.594 1.94712L3.229 0.110123L2.452 0.110123L0.703 2.09112L0.657001 2.09112L0.657001 0.111122L0 0.111122L0 4.33812L0.657001 4.33812ZM6.744 3.73812L4.717 3.73812L4.717 2.47212L6.636 2.47212L6.636 1.90413L4.717 1.90413L4.717 0.704124L6.744 0.704124L6.744 0.104122L4.061 0.104122L4.061 4.33812L6.744 4.33812L6.744 3.73812ZM9.513 4.33812L9.513 2.63312L11.004 0.111122L10.27 0.111122L9.211 1.93812L9.161 1.93812L8.098 0.110123L7.37 0.110123L8.857 2.63312L8.857 4.33812L9.513 4.33812ZM13.47 4.33812L13.47 0.708122L14.797 0.708122L14.797 0.108124L11.485 0.108124L11.485 0.708122L12.815 0.708122L12.815 4.33812L13.47 4.33812ZM16.256 0.688122L17.182 0.688122C17.3922 0.659767 17.6043 0.725426 17.7617 0.867619C17.9191 1.00981 18.0059 1.21411 17.999 1.42612C18.0137 1.63749 17.9318 1.84412 17.7764 1.98809C17.6209 2.13207 17.4086 2.1979 17.199 2.16712L16.256 2.16712L16.256 0.688122ZM16.256 2.72712L17.182 2.72712L18.044 4.33812L18.803 4.33812L17.854 2.61812C18.3648 2.44216 18.6986 1.95078 18.674 1.41112C18.6863 1.04483 18.539 0.691227 18.2705 0.441841C18.0019 0.192455 17.6384 0.071804 17.274 0.111122L15.601 0.111122L15.601 4.33812L16.257 4.33812L16.256 2.72712ZM20.609 4.33812L20.609 0.110123L19.609 0.110123L19.609 4.33812L20.609 4.33812ZM24.929 2.66512L24.929 2.13812L23.195 2.13812L23.195 2.68913L24.285 2.68913L24.285 2.78012C24.282 3.07927 24.1533 3.36335 23.9303 3.56277C23.7073 3.76218 23.4106 3.85851 23.113 3.82813C22.319 3.82813 21.821 3.21312 21.821 2.21713C21.821 1.23812 22.321 0.617123 23.098 0.617123C23.6176 0.575825 24.0948 0.904835 24.241 1.40512L24.9 1.40512C24.7509 0.544022 23.9713 -0.0623665 23.1 0.00512314C22.534 0.00308609 21.9947 0.245857 21.6209 0.670967C21.2472 1.09608 21.0755 1.66201 21.15 2.22312C21.0732 2.78506 21.2448 3.35259 21.62 3.77791C21.9952 4.20322 22.5369 4.44422 23.104 4.43812C23.5902 4.47876 24.0701 4.30693 24.42 3.96699C24.7699 3.62704 24.9556 3.15226 24.929 2.66512L24.929 2.66512ZM29.438 2.66512L29.438 2.13812L27.703 2.13812L27.703 2.68913L28.793 2.68913L28.793 2.78012C28.7901 3.07927 28.6613 3.36335 28.4383 3.56277C28.2153 3.76218 27.9186 3.85851 27.621 3.82813C26.827 3.82813 26.329 3.21312 26.329 2.21713C26.329 1.23812 26.829 0.617123 27.606 0.617123C28.1256 0.575825 28.6028 0.904835 28.749 1.40512L29.408 1.40512C29.2589 0.544022 28.4793 -0.0623665 27.608 0.00512314C27.0429 0.00378036 26.5047 0.246399 26.1315 0.670738C25.7584 1.09507 25.5865 1.65983 25.66 2.22012C25.5823 2.78236 25.7533 3.35057 26.1284 3.77655C26.5035 4.20253 27.0454 4.44405 27.613 4.43812C28.0992 4.47876 28.5791 4.30693 28.929 3.96699C29.2789 3.62704 29.4646 3.15226 29.438 2.66512L29.438 2.66512ZM33.024 3.73812L30.996 3.73812L30.996 2.47212L32.915 2.47212L32.915 1.90413L30.996 1.90413L30.996 0.704124L33.023 0.704124L33.023 0.104122L30.34 0.104122L30.34 4.33812L33.024 4.33812L33.024 3.73812ZM34.624 0.685123L35.55 0.685123C35.7602 0.656765 35.9723 0.722424 36.1297 0.864616C36.2871 1.00681 36.3739 1.21111 36.367 1.42312C36.3817 1.63449 36.2998 1.84112 36.1444 1.9851C35.9889 2.12907 35.7766 2.1949 35.567 2.16412L34.624 2.16412L34.624 0.685123ZM34.624 2.72413L35.55 2.72413L36.413 4.33812L37.17 4.33812L36.221 2.61812C36.7318 2.44216 37.0656 1.95078 37.041 1.41112C37.0533 1.04483 36.906 0.691223 36.6375 0.441837C36.3689 0.192455 36.0054 0.071804 35.641 0.111122L33.97 0.111122L33.97 4.33812L34.626 4.33812L34.624 2.72413Z" transform="translate(6.529999 36.661877)" id="Shape" fill="#F9C442" fill-rule="evenodd" stroke="none" />
      <path d="M0 0L55 0L55 8L0 8L0 0Z" transform="translate(3 70)" id="Rectangle" fill="#A17368" fill-opacity="0.8" fill-rule="evenodd" stroke="none" />
      <path d="M0 0L2 0L2 8L0 8L0 0Z" transform="translate(0 70)" id="Rectangle" fill="#F7DF5F" fill-rule="evenodd" stroke="none" />
      <path d="M0.657001 0.680367L1.583 0.680367C1.79322 0.652008 2.00527 0.717667 2.16268 0.859863C2.3201 1.00205 2.40691 1.20635 2.4 1.41837C2.41466 1.62974 2.33279 1.83636 2.17735 1.98034C2.02191 2.12431 1.80963 2.19014 1.6 2.15937L0.657001 2.15937L0.657001 0.680367ZM0.657001 2.71937L1.583 2.71937L2.444 4.33037L3.203 4.33037L2.253 2.61037C2.76257 2.43335 3.095 1.94223 3.07 1.40337C3.08226 1.03707 2.93505 0.683472 2.66648 0.434082C2.39791 0.1847 2.03439 0.0640488 1.67 0.103371L0 0.103371L0 4.33037L0.656 4.33037L0.657001 2.71937ZM6.744 4.33037L7.444 4.33037L5.915 0.102371L5.209 0.102371L3.683 4.33037L4.357 4.33037L4.747 3.20837L6.358 3.20837L6.744 4.33037ZM5.529 0.870369L5.579 0.870369L6.191 2.65737L4.913 2.65737L5.529 0.870369ZM8.816 4.33037L8.816 1.33037L8.863 1.33037L11.034 4.33037L11.626 4.33037L11.626 0.102371L10.987 0.102371L10.987 3.10237L10.94 3.10237L8.769 0.102371L8.177 0.102371L8.177 4.33037L8.816 4.33037ZM12.686 0.102371L12.686 4.33037L14.212 4.33037C14.7753 4.36853 15.3258 4.15141 15.7114 3.73905C16.097 3.3267 16.2768 2.76282 16.201 2.20337C16.2713 1.64753 16.0888 1.08943 15.7035 0.682655C15.3182 0.275879 14.7708 0.0632782 14.212 0.103371L12.686 0.102371ZM13.342 0.70237L14.142 0.70237C14.5395 0.680161 14.9261 0.836784 15.1961 1.12939C15.466 1.42199 15.5911 1.81995 15.537 2.21437C15.5941 2.61028 15.4698 3.01083 15.1986 3.30489C14.9274 3.59895 14.5382 3.75523 14.139 3.73037L13.339 3.73037L13.342 0.70237ZM18.888 0.00236511C18.3177 -0.00854492 17.771 0.230171 17.3914 0.65593C17.0118 1.08169 16.837 1.65202 16.913 2.21737C16.8366 2.78261 17.0113 3.35297 17.3911 3.77853C17.7708 4.20408 18.3177 4.44223 18.888 4.43037C19.4584 4.44135 20.0051 4.20197 20.3838 3.7753C20.7626 3.34863 20.9355 2.77748 20.857 2.21237C20.934 1.64814 20.7603 1.07848 20.3817 0.653137C20.003 0.227783 19.4573 -0.0106964 18.888 0.000366211L18.888 0.00236511ZM18.888 0.614365C19.688 0.614365 20.188 1.23537 20.188 2.21437C20.188 3.19337 19.688 3.81937 18.888 3.81937C18.088 3.81937 17.588 3.18937 17.588 2.21437C17.588 1.23936 18.091 0.612366 18.888 0.612366L18.888 0.614365ZM26.022 4.33037L26.022 0.102371L25.254 0.102371L23.907 3.31337L23.857 3.31337L22.512 0.102371L21.744 0.102371L21.744 4.33037L22.353 4.33037L22.353 1.27737L22.394 1.27737L23.633 4.20737L24.133 4.20737L25.37 1.27737L25.411 1.27737L25.411 4.33037L26.022 4.33037Z" transform="translate(6.529999 71.66963)" id="Shape" fill="#F9C442" fill-rule="evenodd" stroke="none" />
    </g>
  </g>
</svg>