<?xml version="1.0" encoding="utf-8"?>
<svg width="47px" height="39px" viewBox="0 0 47 39" version="1.1" xmlns:xlink="http://www.w3.org/1999/xlink" xmlns="http://www.w3.org/2000/svg">
  <defs>
    <rect width="47" height="39" id="artboard_1" />
    <clipPath id="clip_1">
      <use xlink:href="#artboard_1" clip-rule="evenodd" />
    </clipPath>
  </defs>
  <g id="hoverOn00122" clip-path="url(#clip_1)">
    <path d="M0 4.99997L0 3.99997C0 3.72383 0.0976311 3.48812 0.292893 3.29286C0.488155 3.0976 0.723858 2.99997 1 2.99997L14 2.99997C14.2761 2.99997 14.5118 3.0976 14.7071 3.29286C14.9024 3.48812 15 3.72383 15 3.99997L15 11C15 11.2761 14.9024 11.5118 14.7071 11.7071C14.5118 11.9023 14.2761 12 14 12L1 12C0.723858 12 0.488155 11.9023 0.292893 11.7071C0.0976311 11.5118 0 11.2761 0 11L0 4.99997L0 4.99997Z" id="Rectangle" fill="#B59B87" fill-opacity="0.9490196" fill-rule="evenodd" stroke="none" />
    <path d="M0 1.49997C0 1.3619 0.0488155 1.24405 0.146447 1.14642C0.244078 1.04878 0.361929 0.999969 0.5 0.999969L14.5 0.999969C14.6381 0.999969 14.7559 1.04878 14.8536 1.14642C14.9512 1.24405 15 1.3619 15 1.49997C15 1.63804 14.9512 1.75589 14.8536 1.85352C14.7559 1.95115 14.6381 1.99997 14.5 1.99997L0.5 1.99997C0.361929 1.99997 0.244078 1.95115 0.146447 1.85352C0.0488155 1.75589 0 1.63804 0 1.49997L0 1.49997L0 1.49997Z" id="Rectangle#1" fill="#FFEE98" fill-rule="evenodd" stroke="none" />
    <path d="M7.026 9.99996L7.791 9.99996L7.791 5.06796L7.029 5.06796L5.729 5.98396L5.729 6.76696L6.966 5.89196L7.026 5.89196L7.026 9.99996L7.026 9.99996Z" id="Shape" fill="#FFE97E" fill-rule="evenodd" stroke="none" />
    <path d="M16 18L16 17C16 16.7238 16.0976 16.4881 16.2929 16.2929C16.4882 16.0976 16.7239 16 17 16L30 16C30.2761 16 30.5118 16.0976 30.7071 16.2929C30.9024 16.4881 31 16.7238 31 17L31 24C31 24.2761 30.9024 24.5118 30.7071 24.7071C30.5118 24.9023 30.2761 25 30 25L17 25C16.7239 25 16.4882 24.9023 16.2929 24.7071C16.0976 24.5118 16 24.2761 16 24L16 18L16 18Z" id="Rectangle#2" fill="#B59B87" fill-opacity="0.9490196" fill-rule="evenodd" stroke="none" />
    <path d="M16 14.5C16 14.3619 16.0488 14.244 16.1464 14.1464C16.2441 14.0488 16.3619 14 16.5 14L30.5 14C30.6381 14 30.7559 14.0488 30.8536 14.1464C30.9512 14.244 31 14.3619 31 14.5C31 14.638 30.9512 14.7559 30.8536 14.8535C30.7559 14.9512 30.6381 15 30.5 15L16.5 15C16.3619 15 16.2441 14.9512 16.1464 14.8535C16.0488 14.7559 16 14.638 16 14.5L16 14.5L16 14.5Z" id="Rectangle#3" fill="#FFEE98" fill-rule="evenodd" stroke="none" />
    <path d="M21.329 19.493L21.329 19.503L22.054 19.503L22.054 19.493C22.044 19.2513 22.1375 19.0169 22.3111 18.8485C22.4846 18.6801 22.7218 18.5937 22.963 18.611C23.1883 18.5914 23.4118 18.6647 23.5817 18.8138C23.7516 18.963 23.8532 19.1751 23.863 19.401C23.863 19.763 23.702 20.023 23.043 20.71L21.37 22.446L21.37 23L24.692 23L24.692 22.313L22.436 22.313L22.436 22.255L23.536 21.144C24.363 20.307 24.616 19.879 24.616 19.356C24.5972 18.9491 24.4119 18.5678 24.1037 18.3016C23.7955 18.0353 23.3913 17.9075 22.986 17.948C22.5567 17.9146 22.1331 18.0628 21.8181 18.3565C21.5032 18.6501 21.3258 19.0624 21.329 19.493L21.329 19.493L21.329 19.493Z" id="Shape#1" fill="#FFE97E" fill-rule="evenodd" stroke="none" />
    <path d="M32 31L32 30C32 29.7238 32.0976 29.4881 32.2929 29.2929C32.4882 29.0976 32.7239 29 33 29L46 29C46.2761 29 46.5118 29.0976 46.7071 29.2929C46.9024 29.4881 47 29.7238 47 30L47 37C47 37.2761 46.9024 37.5118 46.7071 37.7071C46.5118 37.9023 46.2761 38 46 38L33 38C32.7239 38 32.4882 37.9023 32.2929 37.7071C32.0976 37.5118 32 37.2761 32 37L32 31L32 31Z" id="Rectangle#4" fill="#B59B87" fill-opacity="0.9490196" fill-rule="evenodd" stroke="none" />
    <path d="M32 27.5C32 27.3619 32.0488 27.244 32.1464 27.1464C32.2441 27.0488 32.3619 27 32.5 27L46.5 27C46.6381 27 46.7559 27.0488 46.8536 27.1464C46.9512 27.244 47 27.3619 47 27.5C47 27.638 46.9512 27.7559 46.8536 27.8535C46.7559 27.9512 46.6381 28 46.5 28L32.5 28C32.3619 28 32.2441 27.9512 32.1464 27.8535C32.0488 27.7559 32 27.638 32 27.5L32 27.5L32 27.5Z" id="Rectangle#5" fill="#FFEE98" fill-rule="evenodd" stroke="none" />
    <path d="M38.363 33.785L38.985 33.785C39.631 33.785 40.031 34.103 40.031 34.612C40.031 35.097 39.607 35.443 39.006 35.443C38.405 35.443 38 35.139 37.949 34.66L37.214 34.66C37.2489 35.0948 37.4598 35.4966 37.7979 35.7722C38.136 36.0478 38.572 36.1734 39.005 36.12C39.4403 36.1706 39.8776 36.0434 40.218 35.7673C40.5583 35.4911 40.7728 35.0894 40.813 34.653C40.843 34.0235 40.3592 33.4879 39.73 33.454L39.73 33.4C40.2651 33.2884 40.6393 32.8039 40.612 32.258C40.5741 31.8679 40.381 31.5094 40.0762 31.2631C39.7713 31.0168 39.3803 30.9032 38.991 30.948C38.5733 30.9004 38.1547 31.0289 37.8357 31.3027C37.5167 31.5766 37.3262 31.9709 37.31 32.391L38.038 32.391C38.0528 32.1619 38.1604 31.9489 38.3359 31.8011C38.5115 31.6533 38.7398 31.5835 38.968 31.608C39.505 31.608 39.857 31.908 39.857 32.367C39.8526 32.5945 39.7524 32.8095 39.581 32.9592C39.4096 33.1089 39.183 33.1792 38.957 33.153L38.357 33.153L38.363 33.785L38.363 33.785Z" id="Shape#2" fill="#FFE97E" fill-rule="evenodd" stroke="none" />
  </g>
</svg>