<?xml version="1.0" encoding="utf-8"?>
<svg width="34px" height="11px" viewBox="0 0 34 11" version="1.1" xmlns:xlink="http://www.w3.org/1999/xlink" xmlns="http://www.w3.org/2000/svg">
  <defs>
    <path d="M0 0L34 0L34 11L0 11L0 0Z" id="path_1" />
    <rect width="34" height="11" id="artboard_1" />
    <clipPath id="clip_1">
      <use xlink:href="#artboard_1" clip-rule="evenodd" />
    </clipPath>
    <clipPath id="mask_1">
      <use xlink:href="#path_1" />
    </clipPath>
  </defs>
  <g id="hover00148" clip-path="url(#clip_1)">
    <path d="M0 0L34 0L34 11L0 11L0 0Z" id="Background" fill="none" fill-rule="evenodd" stroke="none" />
    <g clip-path="url(#mask_1)">
      <path d="M0.5 2.501L0.5 1.501C0.5 1.22486 0.597631 0.989155 0.792893 0.793893C0.988155 0.598631 1.22386 0.500999 1.5 0.500999L32.5 0.500999C32.7761 0.500999 33.0118 0.598631 33.2071 0.793893C33.4024 0.989155 33.5 1.22486 33.5 1.501L33.5 9.501C33.5 9.77714 33.4024 10.0128 33.2071 10.2081C33.0118 10.4034 32.7761 10.501 32.5 10.501L1.5 10.501C1.22386 10.501 0.988155 10.4034 0.792893 10.2081C0.597631 10.0128 0.5 9.77714 0.5 9.501L0.5 2.501Z" id="rect16470" fill="#FFFFFF" fill-opacity="0" fill-rule="evenodd" stroke="none" />
      <path d="M1.84644 0.414192L32.1328 0.414192C32.8566 0.414192 33.557 0.996265 33.557 1.8186C33.557 2.61814 33.5684 7.33726 33.5684 8.55838C33.5684 9.30095 32.8905 9.99697 32.1328 9.99697L1.84644 9.99697C1.05588 9.99697 0.419434 9.36053 0.419434 8.56996L0.419434 1.8412C0.419434 1.05064 1.05588 0.414192 1.84644 0.414192L1.84644 0.414192Z" id="rect7997" fill="#FFFFFF" fill-opacity="0.08" fill-rule="evenodd" stroke="none" />
      <path d="M1.47148 3.04577L1.47148 2.22759C1.47148 2.00166 1.56336 1.80881 1.74711 1.64905C1.93087 1.48929 2.15268 1.40941 2.41255 1.40941L15.5875 1.40941C15.8473 1.40941 16.0691 1.48929 16.2529 1.64905C16.4367 1.80881 16.5285 2.00166 16.5285 2.22759L16.5285 8.77304C16.5285 8.99898 16.4367 9.19182 16.2529 9.35159C16.0691 9.51135 15.8473 9.59123 15.5875 9.59123L2.41255 9.59123C2.15268 9.59123 1.93087 9.51135 1.74711 9.35159C1.56336 9.19182 1.47148 8.99898 1.47148 8.77304L1.47148 3.04577Z" id="path31121" fill="#FFFFFF" fill-opacity="0" fill-rule="evenodd" stroke="none" />
    </g>
  </g>
</svg>