<?xml version="1.0" encoding="utf-8"?>
<svg width="151px" height="496px" viewbox="0 0 151 496" version="1.1" xmlns:xlink="http://www.w3.org/1999/xlink" xmlns="http://www.w3.org/2000/svg">
  <defs>
    <rect width="151" height="496" id="artboard_1" />
    <clipPath id="clip_1">
      <use xlink:href="#artboard_1" clip-rule="evenodd" />
    </clipPath>
  </defs>
  <g id="hover00112" clip-path="url(#clip_1)">
    <g id="Group" transform="translate(3.0517578E-05 50.000015)">
      <path d="M0 0L18 0L18 9L0 9L0 0Z" transform="translate(0 3)" id="Rectangle" fill="#FFFFFF" fill-opacity="0.33" fill-rule="evenodd" stroke="none" />
      <path d="M0 0L18 0L18 2L0 2L0 0Z" id="Rectangle" fill="#FFFFFF" fill-opacity="0.33" fill-rule="evenodd" stroke="none" />
      <path d="M0 0L18 0L18 9L0 9L0 0Z" transform="translate(19 65)" id="Rectangle" fill="#FFFFFF" fill-opacity="0.33" fill-rule="evenodd" stroke="none" />
      <path d="M0 0L18 0L18 2L0 2L0 0Z" transform="translate(19 62)" id="Rectangle" fill="#FFFFFF" fill-opacity="0.33" fill-rule="evenodd" stroke="none" />
      <path d="M0 0L18 0L18 9L0 9L0 0Z" transform="translate(38 126.999985)" id="Rectangle" fill="#FFFFFF" fill-opacity="0.33" fill-rule="evenodd" stroke="none" />
      <path d="M0 0L18 0L18 2L0 2L0 0Z" transform="translate(38 123.999985)" id="Rectangle" fill="#FFFFFF" fill-opacity="0.33" fill-rule="evenodd" stroke="none" />
      <path d="M0 0L18 0L18 9L0 9L0 0Z" transform="translate(57 188.99998)" id="Rectangle" fill="#FFFFFF" fill-opacity="0.33" fill-rule="evenodd" stroke="none" />
      <path d="M0 0L18 0L18 2L0 2L0 0Z" transform="translate(57 185.99998)" id="Rectangle" fill="#FFFFFF" fill-opacity="0.33" fill-rule="evenodd" stroke="none" />
      <path d="M0 0L18 0L18 9L0 9L0 0Z" transform="translate(76 250.99998)" id="Rectangle" fill="#FFFFFF" fill-opacity="0.33" fill-rule="evenodd" stroke="none" />
      <path d="M0 0L18 0L18 2L0 2L0 0Z" transform="translate(76 247.99998)" id="Rectangle" fill="#FFFFFF" fill-opacity="0.33" fill-rule="evenodd" stroke="none" />
      <path d="M0 0L18 0L18 9L0 9L0 0Z" transform="translate(95 313)" id="Rectangle" fill="#FFFFFF" fill-opacity="0.33" fill-rule="evenodd" stroke="none" />
      <path d="M0 0L18 0L18 2L0 2L0 0Z" transform="translate(95 310)" id="Rectangle" fill="#FFFFFF" fill-opacity="0.33" fill-rule="evenodd" stroke="none" />
      <path d="M0 0L18 0L18 9L0 9L0 0Z" transform="translate(114 375)" id="Rectangle" fill="#FFFFFF" fill-opacity="0.33" fill-rule="evenodd" stroke="none" />
      <path d="M0 0L18 0L18 2L0 2L0 0Z" transform="translate(114 372)" id="Rectangle" fill="#FFFFFF" fill-opacity="0.33" fill-rule="evenodd" stroke="none" />
      <path d="M0 0L18 0L18 9L0 9L0 0Z" transform="translate(133 437)" id="Rectangle" fill="#FFFFFF" fill-opacity="0.33" fill-rule="evenodd" stroke="none" />
      <path d="M0 0L18 0L18 2L0 2L0 0Z" transform="translate(133 434)" id="Rectangle" fill="#FFFFFF" fill-opacity="0.33" fill-rule="evenodd" stroke="none" />
      <path d="M0 3.7265C0.0440001 4.6265 0.793 5.1895 1.924 5.1895C3.124 5.1895 3.862 4.5895 3.862 3.6305C3.862 2.8785 3.442 2.4615 2.44 2.2355L1.873 2.1055C1.261 1.9655 1.012 1.7705 1.012 1.4385C1.012 1.0185 1.388 0.744499 1.955 0.744499C2.41787 0.686115 2.84726 0.995071 2.939 1.4525L3.783 1.4525C3.7329 1.01923 3.51237 0.623734 3.17013 0.353359C2.8279 0.0829811 2.3921 -0.0400276 1.959 0.0114975C0.859 0.0114975 0.124 0.606499 0.124 1.5015C0.124 2.2365 0.544 2.6805 1.44 2.8825L2.079 3.0295C2.711 3.1765 2.979 3.3845 2.979 3.7405C2.979 4.1545 2.559 4.4515 1.979 4.4515C1.351 4.4515 0.916 4.1665 0.862 3.7265L0 3.7265ZM7.117 5.0665L7.999 5.0665L7.999 0.134499L7.121 0.134499L5.832 1.0345L5.832 1.8825L7.059 1.0215L7.117 1.0215L7.117 5.0665Z" transform="translate(4.748993 4.933502)" id="Shape" fill="#DBD7D7" fill-rule="evenodd" stroke="none" />
      <path d="M0 3.72662C0.0439987 4.62661 0.792999 5.18961 1.924 5.18961C3.124 5.18961 3.862 4.58961 3.862 3.63061C3.862 2.87861 3.442 2.46161 2.44 2.23561L1.873 2.10561C1.261 1.96561 1.012 1.77061 1.012 1.43861C1.012 1.01862 1.388 0.744614 1.955 0.744614C2.41787 0.686226 2.84726 0.995186 2.939 1.45261L3.783 1.45261C3.73291 1.01915 3.51224 0.623489 3.16978 0.353081C2.82731 0.0826797 2.39126 -0.0401993 1.958 0.0116119C0.857998 0.0116119 0.122999 0.606613 0.122999 1.50161C0.122999 2.23661 0.542999 2.68061 1.439 2.88261L2.078 3.02961C2.71 3.17661 2.978 3.38461 2.978 3.74062C2.978 4.15461 2.558 4.45161 1.978 4.45161C1.353 4.45161 0.917 4.16661 0.861 3.72662L0 3.72662ZM5.88 1.57661L5.88 1.59061L6.707 1.59061L6.707 1.57661C6.697 1.34639 6.78577 1.12286 6.95099 0.962219C7.11621 0.80159 7.34215 0.719139 7.572 0.735611C7.7844 0.716774 7.99515 0.786514 8.15439 0.928337C8.31363 1.07015 8.40721 1.27145 8.413 1.48461C8.413 1.83361 8.246 2.08461 7.572 2.77361L5.927 4.45461L5.927 5.06661L9.352 5.06661L9.352 4.31761L7.137 4.31761L7.137 4.25961L8.169 3.22461C9.007 2.39761 9.277 1.95961 9.277 1.42961C9.25403 1.01456 9.06109 0.627304 8.74359 0.358994C8.42608 0.0906906 8.01207 -0.0349655 7.599 0.0116119C7.15859 -0.028801 6.72147 0.117699 6.39436 0.415337C6.06724 0.712975 5.88024 1.13435 5.879 1.57661L5.88 1.57661Z" transform="translate(23.28299 66.93339)" id="Shape" fill="#DBD7D7" fill-rule="evenodd" stroke="none" />
      <path d="M0 3.72685C0.0439987 4.62685 0.792999 5.18985 1.924 5.18985C3.124 5.18985 3.862 4.58984 3.862 3.63084C3.862 2.87884 3.442 2.46185 2.44 2.23586L1.873 2.10585C1.261 1.96585 1.012 1.77084 1.012 1.43884C1.012 1.01884 1.388 0.744843 1.955 0.744843C2.41787 0.686462 2.84726 0.995422 2.939 1.45285L3.783 1.45285C3.73293 1.019 3.51197 0.623001 3.16906 0.352539C2.82615 0.082077 2.38958 -0.0405273 1.956 0.0118561C0.855999 0.0118561 0.120998 0.606842 0.120998 1.50185C0.120998 2.23685 0.541 2.68085 1.437 2.88284L2.076 3.02985C2.708 3.17685 2.976 3.38484 2.976 3.74084C2.976 4.15485 2.556 4.45184 1.976 4.45184C1.351 4.45184 0.912998 4.16785 0.857998 3.72685L0 3.72685ZM7.059 2.87885L7.678 2.87885C8.286 2.87885 8.659 3.17885 8.659 3.65785C8.659 4.12285 8.259 4.44785 7.699 4.44785C7.139 4.44785 6.738 4.15785 6.7 3.69984L5.856 3.69984C5.89126 4.14474 6.10717 4.55579 6.45348 4.8373C6.79979 5.1188 7.24628 5.24622 7.689 5.18985C8.762 5.18985 9.555 4.56085 9.555 3.71284C9.58047 3.0835 9.09409 2.55116 8.465 2.51985L8.465 2.46684C9.00252 2.36185 9.38203 1.87895 9.357 1.33185C9.357 0.576843 8.643 0.0158539 7.686 0.0158539C7.25755 -0.0370483 6.82651 0.0917358 6.49729 0.370987C6.16807 0.650253 5.9707 1.0545 5.953 1.48586L6.777 1.48586C6.78896 1.26712 6.89008 1.06287 7.05677 0.920746C7.22346 0.778625 7.44114 0.711075 7.659 0.733856C8.175 0.733856 8.507 1.01785 8.507 1.45485C8.50327 1.66969 8.40913 1.873 8.2477 2.01482C8.08627 2.15665 7.87253 2.22382 7.659 2.19984L7.059 2.19984L7.059 2.87885Z" transform="translate(42.200012 128.93314)" id="Shape" fill="#DBD7D7" fill-rule="evenodd" stroke="none" />
      <path d="M0 0.00590515L0 4.93791L1.849 4.93791C2.50782 4.98372 3.15214 4.7299 3.60273 4.2471C4.05333 3.7643 4.26211 3.104 4.171 2.44991C4.25285 1.80211 4.03962 1.15178 3.59008 0.678207C3.14054 0.204651 2.50218 -0.0421295 1.851 0.00590515L0 0.00590515ZM0.882 0.767914L1.733 0.767914C2.17665 0.74585 2.60678 0.924088 2.9048 1.25349C3.20282 1.5829 3.33723 2.02867 3.271 2.46791C3.271 3.56792 2.714 4.17992 1.733 4.17992L0.882 4.17992L0.882 0.767914ZM7.44 4.93791L8.322 4.93791L8.322 0.00590515L7.443 0.00590515L6.154 0.905914L6.154 1.75391L7.381 0.892914L7.44 0.892914L7.44 4.93791Z" transform="translate(61.700012 191.06207)" id="Shape" fill="#DBD7D7" fill-rule="evenodd" stroke="none" />
      <path d="M0 0.132507L0 5.06451L1.849 5.06451C2.50681 5.1084 3.14941 4.85379 3.5986 4.37122C4.0478 3.88867 4.25583 3.22949 4.165 2.57651C4.24667 1.92944 4.03394 1.27988 3.58533 0.806458C3.13673 0.333069 2.49951 0.0857239 1.849 0.132507L0 0.132507ZM0.881996 0.894501L1.733 0.894501C2.17666 0.872467 2.60679 1.05069 2.9048 1.3801C3.20281 1.7095 3.33723 2.15527 3.271 2.59451C3.271 3.69452 2.714 4.30652 1.733 4.30652L0.881996 4.30652L0.881996 0.894501ZM6.201 1.57452L6.201 1.5885L7.028 1.5885L7.028 1.57452C7.018 1.3443 7.10677 1.12076 7.27199 0.960114C7.43721 0.7995 7.66315 0.717041 7.893 0.733521C8.1054 0.714691 8.31615 0.784424 8.47539 0.926239C8.63463 1.06805 8.72821 1.26935 8.734 1.48251C8.734 1.83151 8.567 2.08252 7.893 2.77151L6.249 4.45251L6.249 5.06451L9.674 5.06451L9.674 4.31552L7.459 4.31552L7.459 4.25751L8.491 3.2225C9.328 2.39551 9.598 1.95752 9.598 1.42853C9.57529 1.01328 9.38247 0.625763 9.06493 0.357239C8.7474 0.0887146 8.33324 -0.0370789 7.92001 0.00952148C7.47976 -0.0306091 7.04291 0.116028 6.71602 0.413635C6.38913 0.711243 6.20226 1.13245 6.201 1.57452L6.201 1.57452Z" transform="translate(80.235016 252.93547)" id="Shape" fill="#DBD7D7" fill-rule="evenodd" stroke="none" />
      <path d="M3.145 4.1716L0.881996 4.1716L0.881996 0.0115967L0 0.0115967L0 4.9436L3.145 4.9436L3.145 4.1716ZM5.488 3.5546L5.488 2.5546L3.243 2.5546L3.243 3.5546L5.488 3.5546ZM7.186 0.743591L8.186 0.743591C8.41967 0.713959 8.65454 0.788788 8.82799 0.948181C9.00143 1.10754 9.09582 1.33527 9.086 1.57062C9.10201 1.80417 9.01201 2.03253 8.84094 2.19235C8.66987 2.35214 8.43593 2.42645 8.20399 2.39459L7.186 2.39459L7.186 0.743591ZM7.186 3.09561L8.16399 3.09561L9.131 4.9436L10.139 4.9436L9.062 2.95761C9.64247 2.74158 10.0179 2.17642 9.992 1.55762C10.0089 1.11761 9.83164 0.692413 9.50719 0.394745C9.18275 0.0970764 8.74391 -0.0430298 8.307 0.0115967L6.307 0.0115967L6.307 4.9436L7.189 4.9436L7.186 3.09561Z" transform="translate(99.07901 315.0564)" id="Shape" fill="#DBD7D7" fill-rule="evenodd" stroke="none" />
      <path d="M0.878998 0.861298L1.879 0.861298C2.11267 0.831665 2.34754 0.906494 2.52098 1.06589C2.69443 1.22525 2.78882 1.45297 2.779 1.68832C2.79501 1.92188 2.70501 2.15024 2.53394 2.31006C2.36287 2.46985 2.12893 2.54416 1.897 2.5123L0.878998 2.5123L0.878998 0.861298ZM0.878998 3.21332L1.85699 3.21332L2.824 5.06131L3.83199 5.06131L2.756 3.07532C3.33647 2.85928 3.71189 2.29413 3.686 1.67532C3.70295 1.23514 3.52555 0.809753 3.20087 0.512024C2.8762 0.214294 2.43707 0.0743713 2 0.129303L0 0.129303L0 5.06131L0.881996 5.06131L0.878998 3.21332ZM5.40199 5.06131L5.40199 0.129303L4.40199 0.129303L4.40199 5.06131L5.40199 5.06131ZM7.001 5.06131L7.001 1.70532L7.06 1.70532L9.479 5.06131L10.241 5.06131L10.241 0.129303L9.39 0.129303L9.39 3.4823L9.336 3.4823L6.91599 0.129303L6.14999 0.129303L6.14999 5.06131L7.001 5.06131ZM15.378 3.0853L15.378 2.46631L13.33 2.46631L13.33 3.15631L14.516 3.15631L14.516 3.25632C14.5115 3.58276 14.3701 3.89233 14.1263 4.10947C13.8826 4.32663 13.5588 4.43143 13.234 4.39832C12.356 4.39832 11.805 3.70831 11.805 2.5863C11.805 1.46433 12.345 0.792297 13.205 0.792297C13.7755 0.749634 14.298 1.11203 14.458 1.66132L15.336 1.66132C15.1609 0.642242 14.2378 -0.0753174 13.207 0.00631714C12.5439 0.00112915 11.9107 0.28244 11.4701 0.778046C11.0295 1.27365 10.8242 1.93533 10.907 2.59332C10.8177 3.25534 11.0225 3.92331 11.4675 4.42157C11.9125 4.9198 12.5531 5.19849 13.221 5.1843C13.7967 5.23447 14.3658 5.03162 14.78 4.62857C15.1942 4.22553 15.4124 3.6622 15.378 3.0853L15.378 3.0853Z" transform="translate(115.41 376.93866)" id="Shape" fill="#DBD7D7" fill-rule="evenodd" stroke="none" />
      <path d="M8.74219 5.30142L8.74219 3.40143L3.74219 3.40143L3.74219 5.30142C3.74219 5.49789 3.62744 5.67627 3.44873 5.75732C3.26953 5.83841 3.05957 5.80716 2.91211 5.67746L0.170898 3.27744C0.0625 3.1825 0 3.04523 0 2.90094C0 2.75665 0.0625 2.61938 0.170898 2.52444L2.91211 0.124451C3.05957 -0.00524902 3.26953 -0.0365295 3.44873 0.0445557C3.62744 0.12561 3.74219 0.303986 3.74219 0.500458L3.74219 2.40045L8.74219 2.40045L8.74219 0.500458C8.74219 0.304352 8.85693 0.126465 9.03564 0.0455017C9.21436 -0.0354919 9.42383 -0.00460815 9.57129 0.124451L12.3125 2.52444C12.4209 2.61938 12.4834 2.75665 12.4834 2.90094C12.4834 3.04523 12.4209 3.1825 12.3125 3.27744L9.57129 5.67743C9.48145 5.75775 9.36523 5.80225 9.24512 5.80243C9.11182 5.80322 8.98389 5.75076 8.88916 5.65668C8.79492 5.56262 8.7417 5.43472 8.74219 5.30145L8.74219 5.30142Z" transform="translate(135.99902 438.5985)" id="Shape" fill="#DBD7D7" fill-rule="evenodd" stroke="none" />
    </g>
  </g>
</svg>