<?xml version="1.0" encoding="UTF-8" standalone="no"?>
<svg
   xmlns:dc="http://purl.org/dc/elements/1.1/"
   xmlns:cc="http://creativecommons.org/ns#"
   xmlns:rdf="http://www.w3.org/1999/02/22-rdf-syntax-ns#"
   xmlns:svg="http://www.w3.org/2000/svg"
   xmlns="http://www.w3.org/2000/svg"
   xmlns:sodipodi="http://sodipodi.sourceforge.net/DTD/sodipodi-0.dtd"
   xmlns:inkscape="http://www.inkscape.org/namespaces/inkscape"
   width="34"
   height="11"
   viewBox="0 0 34 11"
   version="1.1"
   id="svg16478"
   sodipodi:docname="hover00148.svg"
   inkscape:version="1.0.1 (3bc2e813f5, 2020-09-07)">
  <metadata
     id="metadata16482">
    <rdf:RDF>
      <cc:Work
         rdf:about="">
        <dc:format>image/svg+xml</dc:format>
        <dc:type
           rdf:resource="http://purl.org/dc/dcmitype/StillImage" />
        <dc:title></dc:title>
      </cc:Work>
    </rdf:RDF>
  </metadata>
  <sodipodi:namedview
     pagecolor="#464646"
     bordercolor="#666666"
     borderopacity="1"
     objecttolerance="10"
     gridtolerance="10"
     guidetolerance="10"
     inkscape:pageopacity="0"
     inkscape:pageshadow="2"
     inkscape:window-width="3753"
     inkscape:window-height="2137"
     id="namedview16480"
     showgrid="false"
     inkscape:zoom="87.76443"
     inkscape:cx="16.821569"
     inkscape:cy="3.2189189"
     inkscape:window-x="-8"
     inkscape:window-y="-8"
     inkscape:window-maximized="1"
     inkscape:current-layer="svg16478" />
  <defs
     id="defs16458">
    <linearGradient
       id="a"
       x1="0.5"
       x2="0.5"
       y2="1"
       gradientUnits="objectBoundingBox">
      <stop
         offset="0"
         stop-color="#787477"
         id="stop16453" />
      <stop
         offset="1"
         stop-color="#716b6c"
         id="stop16455" />
    </linearGradient>
    <linearGradient
       x1="0.5"
       y1="0"
       x2="0.5"
       y2="1"
       id="linearGradient10622">
      <stop
         offset="0"
         stop-color="#787477"
         id="stop10618" />
      <stop
         offset="1"
         stop-color="#716B6C"
         id="stop10620"
         style="stop-color:#696568;stop-opacity:1" />
    </linearGradient>
  </defs>
  <rect
     width="33"
     height="10"
     rx="1"
     fill="#ffffff"
     opacity="0"
     id="rect16470"
     x="0.5"
     y="0.50099999" />
  <path
     id="rect7997"
     style="opacity:0.08;fill:#ffffff;fill-opacity:1;stroke:none;stroke-width:1.11;stroke-linecap:butt;stroke-linejoin:miter;stroke-miterlimit:4;stroke-dasharray:none;stroke-opacity:1;paint-order:stroke markers fill"
     d="m 1.846436,0.414189 30.28632,0 c 0.723812,0 1.424267,0.58207297 1.424267,1.4044043 0,0.7995399 0.01139,5.5186631 0.01139,6.7397861 0,0.7425723 -0.67791,1.4385866 -1.435661,1.4385866 l -30.28632,0 c -0.790561,0 -1.427005,-0.6364445 -1.427005,-1.4270051 V 1.841193 c 0,-0.79056 0.636444,-1.427004 1.427005,-1.427004 z"
     sodipodi:nodetypes="ssssssssss" />
  <path
     d="M 1.471475,3.04577 V 2.227589 c 0,-0.225935 0.09188,-0.418783 0.275631,-0.578542 0.183754,-0.15976 0.405566,-0.23964 0.665434,-0.23964 h 13.174919 c 0.259829,0 0.481638,0.07988 0.665428,0.23964 0.18379,0.159759 0.275638,0.352607 0.275638,0.578542 v 6.5454534 c 0,0.2259327 -0.09185,0.4187781 -0.275638,0.5785445 -0.18379,0.1597581 -0.405599,0.2396372 -0.665428,0.2396372 H 2.41254 c -0.259868,0 -0.48168,-0.079879 -0.665434,-0.2396372 C 1.563352,9.1918205 1.471475,8.9989751 1.471475,8.7730424 Z"
     id="path31121"
     fill="#ffffff"
     fill-opacity="0"
     fill-rule="evenodd"
     stroke="none"
     style="stroke-width:0.877475" />
</svg>
