<?xml version="1.0" encoding="utf-8"?>
<svg width="26px" height="22px" viewbox="0 0 26 22" version="1.1" xmlns:xlink="http://www.w3.org/1999/xlink" xmlns="http://www.w3.org/2000/svg">
  <defs>
    <linearGradient x1="0.5" y1="0" x2="0.5" y2="1" id="gradient_1">
      <stop offset="0" stop-color="#413F40" />
      <stop offset="1" stop-color="#464141" />
    </linearGradient>
    <linearGradient x1="0.5" y1="0" x2="0.5" y2="1" id="gradient_2">
      <stop offset="0" stop-color="#787477" />
      <stop offset="1" stop-color="#716B6C" />
    </linearGradient>
    <rect width="26" height="22" id="artboard_1" />
    <clipPath id="clip_1">
      <use xlink:href="#artboard_1" clip-rule="evenodd" />
    </clipPath>
  </defs>
  <g id="hover00173" clip-path="url(#clip_1)">
    <g id="Group" transform="translate(-3.0517578E-05 11.001015)">
      <g id="Group" transform="translate(0.25 0.25)">
        <path d="M0 2L0 1C0 0.723858 0.0976311 0.488155 0.292893 0.292893C0.488155 0.0976311 0.723858 0 1 0L24 0C24.2761 0 24.5118 0.0976311 24.7071 0.292893C24.9024 0.488155 25 0.723858 25 1L25 9C25 9.27614 24.9024 9.51184 24.7071 9.70711C24.5118 9.90237 24.2761 10 24 10L1 10C0.723858 10 0.488155 9.90237 0.292893 9.70711C0.0976311 9.51184 0 9.27614 0 9L0 2Z" transform="translate(0.25 0.25)" id="Rectangle" fill="url(#gradient_1)" fill-rule="evenodd" stroke="none" />
        <path d="M0 2.5L0 1.25C0 0.904822 0.122039 0.610194 0.366116 0.366116C0.610194 0.122039 0.904822 0 1.25 0L24.25 0C24.5952 0 24.8898 0.122039 25.1339 0.366116C25.378 0.610194 25.5 0.904822 25.5 1.25L25.5 9.25C25.5 9.59518 25.378 9.88981 25.1339 10.1339C24.8898 10.378 24.5952 10.5 24.25 10.5L1.25 10.5C0.904822 10.5 0.610194 10.378 0.366116 10.1339C0.122039 9.88981 0 9.59518 0 9.25L0 2.5Z" id="Rectangle" fill="none" fill-rule="evenodd" stroke="#4E4752" stroke-width="0.5" />
      </g>
      <path d="M24.5 1.979L1.5 1.979C0.671573 1.979 0 1.30743 0 0.479L0 0.066C0.0415417 0.863817 0.701101 1.48908 1.5 1.488L24.5 1.488C25.3238 1.48803 25.9934 0.823738 26 0L26 0.479C26 1.30743 25.3284 1.979 24.5 1.979L24.5 1.979Z" transform="translate(0 9.020996)" id="Shape" fill="#000000" fill-opacity="0.4" fill-rule="evenodd" stroke="none" />
      <path d="M26 1.992L26 1.992C25.9956 1.16669 25.3253 0.499985 24.5 0.5L1.5 0.5C0.701102 0.498919 0.0415421 1.12418 0 1.922L0 1.5C1.19209e-07 0.671573 0.671573 0 1.5 0L24.5 0C25.3284 0 26 0.671573 26 1.5L26 1.992Z" id="Shape" fill="#FFFFFF" fill-opacity="0.1" fill-rule="evenodd" stroke="none" />
      <path d="M0 2L0 1C0 0.723858 0.0976311 0.488155 0.292893 0.292893C0.488155 0.0976311 0.723858 0 1 0L24 0C24.2761 0 24.5118 0.0976311 24.7071 0.292893C24.9024 0.488155 25 0.723858 25 1L25 9C25 9.27614 24.9024 9.51184 24.7071 9.70711C24.5118 9.90237 24.2761 10 24 10L1 10C0.723858 10 0.488155 9.90237 0.292893 9.70711C0.0976311 9.51184 0 9.27614 0 9L0 2Z" transform="translate(0.5 0.49900055)" id="Rectangle" fill="#FFFFFF" fill-opacity="0.1" fill-rule="evenodd" stroke="none" />
      <path d="M2.519 5.633L2.519 0.632999L4.335 0.632999L4.335 0L0 0L0 0.632999L1.816 0.632999L1.816 5.633L2.519 5.633ZM8.156 1.422L7.484 1.422L7.484 3.914C7.52184 4.23134 7.41435 4.5488 7.1915 4.77786C6.96864 5.00693 6.65426 5.12311 6.336 5.094C5.664 5.094 5.383 4.742 5.383 3.985L5.383 1.422L4.711 1.422L4.711 4.149C4.711 5.149 5.203 5.708 6.149 5.708C6.69274 5.75716 7.21023 5.46498 7.449 4.974L7.512 4.974L7.512 5.633L8.153 5.633L8.156 1.422ZM9.422 5.633L10.094 5.633L10.094 3.141C10.0587 2.83105 10.1607 2.52114 10.3731 2.29272C10.5856 2.0643 10.8873 1.94019 11.199 1.953C11.871 1.953 12.191 2.312 12.191 3.07L12.191 5.633L12.863 5.633L12.863 2.906C12.9206 2.49314 12.7874 2.07649 12.5012 1.77349C12.2149 1.47049 11.8065 1.31395 11.391 1.348C10.855 1.29995 10.3473 1.59595 10.125 2.086L10.062 2.086L10.062 1.422L9.422 1.422L9.422 5.633ZM15.769 1.942C16.0879 1.94175 16.3921 2.07592 16.607 2.31155C16.8219 2.54718 16.9276 2.86247 16.898 3.18L14.578 3.18C14.5677 2.85677 14.6884 2.54308 14.9126 2.31002C15.1368 2.07696 15.4456 1.94426 15.769 1.942L15.769 1.942ZM16.878 4.542C16.6672 4.93675 16.2366 5.16272 15.792 5.112C15.077 5.112 14.612 4.585 14.577 3.753L14.577 3.723L17.605 3.723L17.605 3.465C17.605 2.156 16.914 1.348 15.777 1.348C15.2227 1.35069 14.6966 1.59216 14.3331 2.01059C13.9696 2.42903 13.8041 2.98382 13.879 3.533C13.879 4.865 14.609 5.709 15.779 5.709C16.5711 5.78832 17.3104 5.30183 17.551 4.543L16.878 4.542Z" transform="translate(4.1700134 2.8669968)" id="Shape" fill="#FCE237" fill-rule="evenodd" stroke="none" />
    </g>
    <g id="Group" transform="translate(-3.0517578E-05 0.0010147095)">
      <g id="Group" transform="translate(0.25 0.24900055)">
        <path d="M0 2L0 1C0 0.723858 0.0976311 0.488155 0.292893 0.292893C0.488155 0.0976311 0.723858 0 1 0L24 0C24.2761 0 24.5118 0.0976311 24.7071 0.292893C24.9024 0.488155 25 0.723858 25 1L25 9C25 9.27614 24.9024 9.51184 24.7071 9.70711C24.5118 9.90237 24.2761 10 24 10L1 10C0.723858 10 0.488155 9.90237 0.292893 9.70711C0.0976311 9.51184 0 9.27614 0 9L0 2Z" transform="translate(0.25 0.25)" id="Rectangle" fill="url(#gradient_2)" fill-rule="evenodd" stroke="none" />
        <path d="M0 2.5L0 1.25C0 0.904822 0.122039 0.610194 0.366116 0.366116C0.610194 0.122039 0.904822 0 1.25 0L24.25 0C24.5952 0 24.8898 0.122039 25.1339 0.366116C25.378 0.610194 25.5 0.904822 25.5 1.25L25.5 9.25C25.5 9.59518 25.378 9.88981 25.1339 10.1339C24.8898 10.378 24.5952 10.5 24.25 10.5L1.25 10.5C0.904822 10.5 0.610194 10.378 0.366116 10.1339C0.122039 9.88981 0 9.59518 0 9.25L0 2.5Z" id="Rectangle" fill="none" fill-rule="evenodd" stroke="#4E4752" stroke-width="0.5" />
      </g>
      <path d="M24.5 1.979L1.5 1.979C0.671573 1.979 0 1.30743 0 0.479L0 0.066C0.0415417 0.863817 0.701101 1.48908 1.5 1.488L24.5 1.488C25.3238 1.48803 25.9934 0.823738 26 0L26 0.479C26 1.30743 25.3284 1.979 24.5 1.979L24.5 1.979Z" transform="translate(0 9.020996)" id="Shape" fill="#000000" fill-opacity="0.4" fill-rule="evenodd" stroke="none" />
      <path d="M26 1.992L26 1.992C25.9956 1.16669 25.3253 0.499985 24.5 0.5L1.5 0.5C0.701102 0.498919 0.0415421 1.12418 0 1.922L0 1.5C1.19209e-07 0.671573 0.671573 0 1.5 0L24.5 0C25.3284 0 26 0.671573 26 1.5L26 1.992Z" id="Shape" fill="#FFFFFF" fill-opacity="0.4" fill-rule="evenodd" stroke="none" />
      <path d="M0 2L0 1C0 0.723858 0.0976311 0.488155 0.292893 0.292893C0.488155 0.0976311 0.723858 0 1 0L24 0C24.2761 0 24.5118 0.0976311 24.7071 0.292893C24.9024 0.488155 25 0.723858 25 1L25 9C25 9.27614 24.9024 9.51184 24.7071 9.70711C24.5118 9.90237 24.2761 10 24 10L1 10C0.723858 10 0.488155 9.90237 0.292893 9.70711C0.0976311 9.51184 0 9.27614 0 9L0 2Z" transform="translate(0.5 0.49900055)" id="Rectangle" fill="#FFFFFF" fill-opacity="0.2" fill-rule="evenodd" stroke="none" />
      <path d="M2.519 5.633L2.519 0.632999L4.335 0.632999L4.335 0L0 0L0 0.632999L1.816 0.632999L1.816 5.633L2.519 5.633ZM8.156 1.422L7.484 1.422L7.484 3.914C7.52184 4.23134 7.41435 4.5488 7.1915 4.77786C6.96864 5.00693 6.65426 5.12311 6.336 5.094C5.664 5.094 5.383 4.742 5.383 3.985L5.383 1.422L4.711 1.422L4.711 4.149C4.711 5.149 5.203 5.708 6.149 5.708C6.69274 5.75716 7.21023 5.46498 7.449 4.974L7.512 4.974L7.512 5.633L8.153 5.633L8.156 1.422ZM9.422 5.633L10.094 5.633L10.094 3.141C10.0587 2.83105 10.1607 2.52114 10.3731 2.29272C10.5856 2.0643 10.8873 1.94019 11.199 1.953C11.871 1.953 12.191 2.312 12.191 3.07L12.191 5.633L12.863 5.633L12.863 2.906C12.9206 2.49314 12.7874 2.07649 12.5012 1.77349C12.2149 1.47049 11.8065 1.31395 11.391 1.348C10.855 1.29995 10.3473 1.59595 10.125 2.086L10.062 2.086L10.062 1.422L9.422 1.422L9.422 5.633ZM15.769 1.942C16.0879 1.94175 16.3921 2.07592 16.607 2.31155C16.8219 2.54718 16.9276 2.86247 16.898 3.18L14.578 3.18C14.5677 2.85677 14.6884 2.54308 14.9126 2.31002C15.1368 2.07696 15.4456 1.94426 15.769 1.942L15.769 1.942ZM16.878 4.542C16.6672 4.93675 16.2366 5.16272 15.792 5.112C15.077 5.112 14.612 4.585 14.577 3.753L14.577 3.723L17.605 3.723L17.605 3.465C17.605 2.156 16.914 1.348 15.777 1.348C15.2227 1.35069 14.6966 1.59216 14.3331 2.01059C13.9696 2.42903 13.8041 2.98382 13.879 3.533C13.879 4.865 14.609 5.709 15.779 5.709C16.5711 5.78832 17.3104 5.30183 17.551 4.543L16.878 4.542Z" transform="translate(4.1700134 2.8669968)" id="Shape" fill="#E4DCD9" fill-rule="evenodd" stroke="none" />
    </g>
  </g>
</svg>