<?xml version="1.0" encoding="utf-8"?>
<svg width="32px" height="140px" viewbox="0 0 32 140" version="1.1" xmlns:xlink="http://www.w3.org/1999/xlink" xmlns="http://www.w3.org/2000/svg">
  <defs>
    <rect width="32" height="140" id="artboard_1" />
    <clipPath id="clip_1">
      <use xlink:href="#artboard_1" clip-rule="evenodd" />
    </clipPath>
  </defs>
  <g id="hover00114" clip-path="url(#clip_1)">
    <g id="Group" transform="translate(6.1035156E-05 2.670288E-05)">
      <path d="M0 0L29 0L29 8L0 8L0 0Z" transform="translate(3 0)" id="Rectangle" fill="#FFFFFF" fill-opacity="0.4" fill-rule="evenodd" stroke="none" />
      <path d="M0 0L2 0L2 8L0 8L0 0Z" id="Rectangle" fill="#FFFFFF" fill-opacity="0.5" fill-rule="evenodd" stroke="none" />
      <path d="M0 3.20172C0.0469999 3.95772 0.677 4.43872 1.614 4.43872C2.614 4.43872 3.243 3.93172 3.243 3.12372C3.243 2.48772 2.886 2.13672 2.018 1.93472L1.552 1.82072C1.001 1.69172 0.779 1.52072 0.779 1.22072C0.779 0.839725 1.125 0.590725 1.643 0.590725C2.0605 0.536196 2.44976 0.811813 2.537 1.22372L3.176 1.22372C3.09025 0.467606 2.40822 -0.0761369 1.652 0.00872481C0.729 0.00872481 0.114 0.508725 0.114 1.26272C0.114 1.88372 0.463 2.25272 1.227 2.43172L1.772 2.56372C2.332 2.69572 2.578 2.88872 2.578 3.21072C2.578 3.58572 2.191 3.85772 1.664 3.85772C1.099 3.85772 0.706 3.60272 0.65 3.20172L0 3.20172ZM5.10498 4.33872L5.10498 0.110725L4.10498 0.110725L4.10498 4.33872L5.10498 4.33872ZM6.46099 4.33872L6.46099 1.33872L6.50799 1.33872L8.67499 4.33872L9.26899 4.33872L9.26899 0.110725L8.62799 0.110725L8.62799 3.11072L8.58099 3.11072L6.40999 0.110725L5.81799 0.110725L5.81799 4.33872L6.46099 4.33872ZM13.938 2.66573L13.938 2.13872L12.199 2.13872L12.199 2.68972L13.289 2.68972L13.289 2.78072C13.2861 3.07988 13.1573 3.36397 12.9343 3.56338C12.7113 3.76279 12.4146 3.85911 12.117 3.82872C11.323 3.82872 10.825 3.21372 10.825 2.21772C10.825 1.23872 11.325 0.617725 12.102 0.617725C12.6216 0.576427 13.0988 0.905438 13.245 1.40573L13.904 1.40573C13.755 0.544623 12.9753 -0.0617651 12.104 0.00572503C11.5389 0.00438178 11.0007 0.247001 10.6276 0.671338C10.2544 1.09568 10.0825 1.66044 10.156 2.22073C10.0783 2.78279 10.2492 3.35082 10.6241 3.77677C10.9989 4.20271 11.5406 4.44436 12.108 4.43872C12.5943 4.47966 13.0746 4.30798 13.4247 3.96799C13.7749 3.62801 13.9606 3.15305 13.934 2.66572L13.938 2.66573ZM17.469 3.73872L15.489 3.73872L15.489 0.110725L14.833 0.110725L14.833 4.33872L17.469 4.33872L17.469 3.73872ZM20.985 3.73872L18.958 3.73872L18.958 2.47272L20.877 2.47272L20.877 1.90472L18.958 1.90472L18.958 0.704725L20.985 0.704725L20.985 0.104725L18.302 0.104725L18.302 4.33872L20.986 4.33872L20.985 3.73872Z" transform="translate(4.3309937 1.67)" id="Shape" fill="#DBD7D7" fill-rule="evenodd" stroke="none" />
    </g>
    <g id="Group" transform="translate(6.1035156E-05 44.000027)">
      <path d="M0 0L29 0L29 8L0 8L0 0Z" transform="translate(3 0)" id="Rectangle" fill="#FFFFFF" fill-opacity="0.4" fill-rule="evenodd" stroke="none" />
      <path d="M0 0L2 0L2 8L0 8L0 0Z" id="Rectangle" fill="#FFFFFF" fill-opacity="0.5" fill-rule="evenodd" stroke="none" />
      <path d="M0 3.20173C0.0469999 3.95773 0.677 4.43872 1.614 4.43872C2.614 4.43872 3.243 3.93172 3.243 3.12373C3.243 2.48772 2.886 2.13673 2.018 1.93473L1.552 1.82072C1.001 1.69173 0.779 1.52073 0.779 1.22073C0.779 0.839725 1.125 0.590725 1.643 0.590725C2.0605 0.536198 2.44976 0.811813 2.537 1.22372L3.176 1.22372C3.09025 0.467606 2.40822 -0.0761375 1.652 0.00872421C0.729 0.00872421 0.114 0.508724 0.114 1.26273C0.114 1.88372 0.463 2.25273 1.227 2.43172L1.772 2.56372C2.332 2.69572 2.578 2.88873 2.578 3.21073C2.578 3.58573 2.191 3.85773 1.664 3.85773C1.099 3.85773 0.706 3.60273 0.65 3.20173L0 3.20173ZM4.09998 0.110725L4.09998 4.33873L4.75598 4.33873L4.75598 2.91473L5.73898 2.91473C6.11642 2.93497 6.48494 2.79535 6.7542 2.53009C7.02346 2.26482 7.16858 1.89843 7.15398 1.52073C7.17593 1.14328 7.03669 0.774254 6.77087 0.50539C6.50506 0.236523 6.13764 0.0930824 5.75997 0.110725L4.09998 0.110725ZM4.75598 0.690727L5.58198 0.690727C6.15898 0.690727 6.48198 0.983727 6.48198 1.51973C6.48198 2.05573 6.15198 2.33873 5.58698 2.33873L4.76098 2.33873L4.75598 0.690727ZM10.635 3.73873L8.65399 3.73873L8.65399 0.110725L7.99799 0.110725L7.99799 4.33873L10.635 4.33873L10.635 3.73873ZM12.464 4.33873L12.464 0.110725L11.464 0.110725L11.464 4.33873L12.464 4.33873ZM14.906 4.33873L14.906 0.708725L16.233 0.708725L16.233 0.108727L12.92 0.108727L12.92 0.708725L14.25 0.708725L14.25 4.33873L14.906 4.33873Z" transform="translate(4.3309937 1.6699982)" id="Shape" fill="#DBD7D7" fill-rule="evenodd" stroke="none" />
    </g>
    <g id="Group" transform="translate(6.1035156E-05 88.00003)">
      <path d="M0 0L29 0L29 8L0 8L0 0Z" transform="translate(3 0)" id="Rectangle" fill="#FFFFFF" fill-opacity="0.4" fill-rule="evenodd" stroke="none" />
      <path d="M0 0L2 0L2 8L0 8L0 0Z" id="Rectangle" fill="#FFFFFF" fill-opacity="0.5" fill-rule="evenodd" stroke="none" />
      <path d="M1.903 4.43873C2.76076 4.50439 3.52487 3.89963 3.658 3.04973L3.004 3.04973C2.8709 3.53911 2.40981 3.86565 1.904 3.82873C1.142 3.82873 0.668 3.21073 0.668 2.22873C0.668 1.24673 1.138 0.620728 1.9 0.620728C2.42451 0.602219 2.88734 0.961128 3 1.47373L3.658 1.47373C3.54295 0.602081 2.7781 -0.0352936 1.9 0.00872803C0.725 0.00872803 0 0.855728 0 2.22673C0 3.59773 0.728 4.43873 1.903 4.43873L1.903 4.43873ZM8.00298 4.33873L8.00298 0.110733L7.34598 0.110733L7.34598 1.88573L5.17498 1.88573L5.17498 0.110733L4.51898 0.110733L4.51898 4.33873L5.17498 4.33873L5.17498 2.48473L7.34598 2.48473L7.34598 4.33873L8.00298 4.33873ZM10.503 3.20173C10.548 3.95773 11.178 4.43873 12.116 4.43873C13.116 4.43873 13.745 3.93173 13.745 3.12373C13.745 2.48773 13.388 2.13673 12.52 1.93473L12.054 1.82073C11.503 1.69173 11.281 1.52073 11.281 1.22073C11.281 0.839729 11.627 0.590729 12.145 0.590729C12.5625 0.536201 12.9518 0.811821 13.039 1.22373L13.678 1.22373C13.5922 0.467613 12.9102 -0.0761337 12.154 0.00872803C11.231 0.00872803 10.616 0.508728 10.616 1.26273C10.616 1.88373 10.965 2.25273 11.729 2.43173L12.274 2.56373C12.834 2.69573 13.08 2.88873 13.08 3.21073C13.08 3.58573 12.693 3.85773 12.166 3.85773C11.601 3.85773 11.208 3.60273 11.152 3.20173L10.503 3.20173ZM14.603 0.110733L14.603 4.33873L15.259 4.33873L15.259 2.91473L16.238 2.91473C16.6156 2.935 16.9843 2.79524 17.2536 2.52975C17.5229 2.26426 17.6679 1.8976 17.653 1.51973C17.6747 1.14227 17.5352 0.773346 17.2692 0.504677C17.0032 0.236 16.6357 0.0928192 16.258 0.110733L14.603 0.110733ZM15.259 0.690727L16.085 0.690727C16.662 0.690727 16.985 0.983727 16.985 1.51973C16.985 2.05573 16.654 2.33873 16.088 2.33873L15.262 2.33873L15.259 0.690727ZM21.138 3.73873L19.158 3.73873L19.158 0.110733L18.502 0.110733L18.502 4.33873L21.138 4.33873L21.138 3.73873ZM22.967 4.33873L22.967 0.110733L21.967 0.110733L21.967 4.33873L22.967 4.33873ZM25.408 4.33873L25.408 0.708733L26.738 0.708733L26.738 0.108727L23.421 0.108727L23.421 0.708733L24.751 0.708733L24.751 4.33873L25.408 4.33873Z" transform="translate(4.3619995 1.6699982)" id="Shape" fill="#DBD7D7" fill-rule="evenodd" stroke="none" />
    </g>
    <g id="Group" transform="translate(6.1035156E-05 132.00003)">
      <path d="M0 0L29 0L29 8L0 8L0 0Z" transform="translate(3 0)" id="Rectangle" fill="#FFFFFF" fill-opacity="0.4" fill-rule="evenodd" stroke="none" />
      <path d="M0 0L2 0L2 8L0 8L0 0Z" id="Rectangle" fill="#FFFFFF" fill-opacity="0.5" fill-rule="evenodd" stroke="none" />
      <path d="M0 0.00379944L0 4.2318L1.527 4.2318C2.09027 4.26996 2.64084 4.05283 3.02644 3.64048C3.41205 3.22813 3.5918 2.66425 3.516 2.1048C3.58635 1.54896 3.40376 0.99086 3.01848 0.584084C2.63321 0.177307 2.08584 -0.0352936 1.527 0.00479889L0 0.00379944ZM0.656015 0.603798L1.45602 0.603798C1.8526 0.582626 2.23798 0.739395 2.50716 1.0314C2.77635 1.32341 2.90132 1.72024 2.84802 2.1138C2.9056 2.50948 2.78198 2.91005 2.51142 3.20446C2.24087 3.49887 1.85214 3.65582 1.45301 3.6318L0.653015 3.6318L0.656015 0.603798ZM5.06802 0.00379944L4.41201 0.00379944L4.41201 2.7748C4.40471 3.21749 4.58817 3.64195 4.91565 3.93996C5.24312 4.23795 5.68295 4.3807 6.12301 4.33179C6.56316 4.3806 7.00308 4.23806 7.33097 3.9404C7.65886 3.64273 7.84315 3.21861 7.83702 2.77579L7.83702 0.00379944L7.18102 0.00379944L7.18102 2.7168C7.19451 2.99631 7.08524 3.26777 6.88187 3.45998C6.6785 3.65221 6.40132 3.74601 6.12302 3.7168C5.84512 3.74542 5.56857 3.65131 5.36582 3.45913C5.16306 3.26694 5.0543 2.99583 5.06802 2.7168L5.06802 0.00379944ZM11.549 4.2318L12.249 4.2318L10.72 0.00379944L10.014 0.00379944L8.48798 4.2318L9.16198 4.2318L9.55198 3.10979L11.163 3.10979L11.549 4.2318ZM10.333 0.771805L10.383 0.771805L10.995 2.55881L9.71802 2.55881L10.333 0.771805ZM15.618 3.6318L13.638 3.6318L13.638 0.00379944L12.982 0.00379944L12.982 4.2318L15.619 4.2318L15.618 3.6318Z" transform="translate(4.5300293 1.75)" id="Shape" fill="#DBD7D7" fill-rule="evenodd" stroke="none" />
    </g>
  </g>
</svg>