<?xml version="1.0" encoding="utf-8"?>
<svg width="123px" height="232px" viewBox="0 0 123 232" version="1.1" xmlns:xlink="http://www.w3.org/1999/xlink" xmlns="http://www.w3.org/2000/svg">
  <defs>
    <rect width="123" height="232" id="artboard_1" />
    <clipPath id="clip_1">
      <use xlink:href="#artboard_1" clip-rule="evenodd" />
    </clipPath>
  </defs>
  <g id="hoverOn00151" clip-path="url(#clip_1)">
    <g id="Group" transform="translate(3.0517578E-05 45)">
      <path d="M0 3L30 3L30 12L0 12L0 3L0 3Z" id="Rectangle" fill="#C89E83" fill-opacity="0.8" fill-rule="evenodd" stroke="none" />
      <path d="M0 0L30 0L30 2L0 2L0 0L0 0Z" id="Rectangle#1" fill="#F8DF60" fill-rule="evenodd" stroke="none" />
      <g id="Group#1" transform="translate(4.769989 4.944336)">
        <path d="M0.854 5.05565L0.854 1.69965L0.912 1.69965L3.33 5.05565L4.092 5.05565L4.092 0.123657L3.244 0.123657L3.244 3.47665L3.186 3.47665L0.766 0.123657L0 0.123657L0 5.05565L0.854 5.05565L0.854 5.05565ZM7.09401 0.000682831C6.42429 -0.0156441 5.78074 0.26083 5.33156 0.757851C4.88238 1.25487 4.67222 1.92303 4.75601 2.58768C4.66883 3.25341 4.87767 3.92391 5.32746 4.42238C5.77726 4.92085 6.42286 5.19725 7.09401 5.17868C7.76337 5.19431 8.40613 4.9166 8.85351 4.41846C9.3009 3.92032 9.50821 3.25153 9.42101 2.58768C9.50728 1.9244 9.29952 1.25653 8.85221 0.759251C8.4049 0.261963 7.76269 -0.0151176 7.09401 0.000682831L7.09401 0.000682831L7.09401 0.000682831ZM7.09399 0.783691C7.96899 0.783691 8.51899 1.48369 8.51899 2.58369C8.51899 3.68369 7.97199 4.39569 7.09399 4.39569C6.21599 4.39569 5.65799 3.68769 5.65799 2.58769C5.65799 1.48769 6.21499 0.783691 7.09399 0.783691L7.09399 0.783691L7.09399 0.783691ZM12.478 5.05565L12.478 3.05565L14.546 3.05565L14.546 2.32065L12.478 2.32065L12.478 0.885658L14.74 0.885658L14.74 0.123657L11.596 0.123657L11.596 5.05565L12.478 5.05565L12.478 5.05565ZM20.458 5.05565L20.458 0.123657L19.43 0.123657L17.942 3.71565L17.88 3.71565L16.397 0.123657L15.364 0.123657L15.364 5.05565L16.184 5.05565L16.184 1.58665L16.23 1.58665L17.596 4.86465L18.23 4.86465L19.589 1.58665L19.637 1.58665L19.637 5.05565L20.458 5.05565L20.458 5.05565Z" id="Shape" fill="#F6D738" fill-rule="evenodd" stroke="none" />
      </g>
    </g>
    <g id="Group#2" transform="translate(31.00003 103)">
      <path d="M0 3L30 3L30 12L0 12L0 3L0 3Z" id="Rectangle#2" fill="#C89E83" fill-opacity="0.8" fill-rule="evenodd" stroke="none" />
      <path d="M0 0L30 0L30 2L0 2L0 0L0 0Z" id="Rectangle#3" fill="#F8DF60" fill-rule="evenodd" stroke="none" />
      <g id="Group#3" transform="translate(9.264984 4.935608)">
        <path d="M0 1.57441L0 1.58841L0.827 1.58841L0.827 1.57441C0.817001 1.34418 0.905773 1.12065 1.07099 0.960014C1.23621 0.799385 1.46215 0.716934 1.692 0.733406C1.90473 0.713989 2.11602 0.783463 2.27571 0.925346C2.43539 1.06723 2.52925 1.26887 2.535 1.48241C2.535 1.83141 2.368 2.08241 1.694 2.77141L0.0480003 4.45241L0.0480003 5.06441L3.473 5.06441L3.473 4.31541L1.258 4.31541L1.258 4.25741L2.29 3.2224C3.127 2.39541 3.397 1.95741 3.397 1.42841C3.37428 1.01337 3.18159 0.626022 2.86428 0.357536C2.54697 0.0890427 2.13308 -0.0368805 1.72 0.00940704C1.27959 -0.0310059 0.842472 0.115494 0.515358 0.413132C0.18824 0.710762 0.00123596 1.13215 0 1.57441L0 1.57441L0 1.57441Z" id="Shape#1" fill="#F6D738" fill-rule="evenodd" stroke="none" />
        <path d="M11.704 5.06438L12.586 5.06438L12.586 0.132385L11.708 0.132385L10.419 1.03239L10.419 1.88039L11.646 1.01939L11.704 1.01939L11.704 5.06438L11.704 5.06438Z" id="Shape#2" fill="#F6D738" fill-rule="evenodd" stroke="none" />
        <path d="M8.73499 3.06439L5.73499 5.06439L5.73499 1.06439L8.73499 3.06439L8.73499 3.06439Z" id="Shape#3" fill="#F6D738" fill-rule="evenodd" stroke="none" />
      </g>
    </g>
    <g id="Group#4" transform="translate(62 161)">
      <path d="M0 3L30 3L30 12L0 12L0 3L0 3Z" id="Rectangle#4" fill="#C89E83" fill-opacity="0.8" fill-rule="evenodd" stroke="none" />
      <path d="M0 0L30 0L30 2L0 2L0 0L0 0Z" id="Rectangle#5" fill="#F8DF60" fill-rule="evenodd" stroke="none" />
      <g id="Group#5" transform="translate(3.1560059 4.935608)">
        <path d="M1.203 2.87743L1.822 2.87743C2.43 2.87743 2.803 3.17743 2.803 3.65642C2.803 4.12143 2.403 4.44643 1.843 4.44643C1.283 4.44643 0.885002 4.15543 0.844002 3.69742L0 3.69742C0.0352249 4.14272 0.251419 4.55411 0.598183 4.83568C0.944946 5.11725 1.39196 5.24437 1.835 5.18742C2.908 5.18742 3.701 4.55843 3.701 3.71042C3.72591 3.08145 3.23969 2.54973 2.611 2.51842L2.611 2.46442C3.14852 2.35942 3.52803 1.87653 3.503 1.32942C3.503 0.574417 2.789 0.0134277 1.832 0.0134277C1.40355 -0.0394745 0.972511 0.0893097 0.643288 0.368561C0.314072 0.647827 0.116707 1.05208 0.098999 1.48343L0.923004 1.48343C0.934959 1.26469 1.03608 1.06044 1.20277 0.91832C1.36946 0.776199 1.58714 0.708649 1.805 0.73143C2.321 0.73143 2.653 1.01543 2.653 1.45242C2.64928 1.66727 2.55513 1.87057 2.39371 2.01239C2.23228 2.15421 2.01854 2.22139 1.80501 2.19742L1.205 2.19742L1.203 2.87743L1.203 2.87743Z" id="Shape#4" fill="#F6D738" fill-rule="evenodd" stroke="none" />
        <path d="M10.109 1.5744L10.109 1.58841L10.936 1.58841L10.936 1.5744C10.926 1.34419 11.0148 1.12065 11.18 0.960022C11.3452 0.799377 11.5712 0.716934 11.801 0.733414C12.0137 0.713989 12.225 0.783463 12.3847 0.925339C12.5444 1.06723 12.6383 1.26888 12.644 1.48241C12.644 1.83141 12.477 2.08241 11.803 2.77141L10.157 4.45241L10.157 5.06441L13.582 5.06441L13.582 4.31541L11.367 4.31541L11.367 4.2574L12.399 3.22241C13.236 2.3954 13.506 1.95741 13.506 1.42841C13.4833 1.01337 13.2906 0.626022 12.9733 0.357529C12.656 0.089035 12.2421 -0.0368805 11.829 0.00941467C11.3886 -0.0310059 10.9515 0.115494 10.6244 0.413132C10.2972 0.71077 10.1102 1.13216 10.109 1.5744L10.109 1.5744L10.109 1.5744Z" id="Shape#5" fill="#F6D738" fill-rule="evenodd" stroke="none" />
        <path d="M21.813 5.06439L22.695 5.06439L22.695 0.132385L21.817 0.132385L20.528 1.03239L20.528 1.88039L21.755 1.01939L21.813 1.01939L21.813 5.06439L21.813 5.06439Z" id="Shape#6" fill="#F6D738" fill-rule="evenodd" stroke="none" />
        <path d="M8.84399 3.06439L5.84399 5.06439L5.84399 1.06439L8.84399 3.06439L8.84399 3.06439Z" id="Shape#7" fill="#F6D738" fill-rule="evenodd" stroke="none" />
        <path d="M18.844 3.06439L15.844 5.06439L15.844 1.06439L18.844 3.06439L18.844 3.06439Z" id="Shape#8" fill="#F6D738" fill-rule="evenodd" stroke="none" />
      </g>
    </g>
    <g id="Group#6" transform="translate(93 219)">
      <path d="M0 3L30 3L30 12L0 12L0 3L0 3Z" id="Rectangle#6" fill="#C89E83" fill-opacity="0.8" fill-rule="evenodd" stroke="none" />
      <path d="M0 0L30 0L30 2L0 2L0 0L0 0Z" id="Rectangle#7" fill="#F8DF60" fill-rule="evenodd" stroke="none" />
      <g id="Group#7" transform="translate(3.2650146 4.935547)">
        <path d="M0 1.5744L0 1.58841L0.827003 1.58841L0.827003 1.5744C0.817001 1.34419 0.905769 1.12065 1.07099 0.960022C1.23621 0.799377 1.46215 0.716934 1.692 0.733414C1.90473 0.713989 2.11601 0.783463 2.2757 0.925339C2.43539 1.06723 2.52925 1.26888 2.535 1.48241C2.535 1.83141 2.368 2.08241 1.694 2.77141L0.0480041 4.45241L0.0480041 5.06441L3.473 5.06441L3.473 4.31541L1.258 4.31541L1.258 4.2574L2.29 3.22241C3.127 2.3954 3.397 1.95741 3.397 1.42841C3.37427 1.01337 3.18159 0.626022 2.86428 0.357529C2.54697 0.089035 2.13307 -0.0368805 1.72 0.00941467C1.27959 -0.0310059 0.842468 0.115494 0.515358 0.413132C0.18824 0.71077 0.00123596 1.13216 0 1.5744L0 1.5744L0 1.5744Z" id="Shape#9" fill="#F6D738" fill-rule="evenodd" stroke="none" />
        <path d="M11.704 5.06445L12.586 5.06445L12.586 0.132446L11.708 0.132446L10.419 1.03246L10.419 1.88045L11.646 1.01945L11.704 1.01945L11.704 5.06445L11.704 5.06445Z" id="Shape#10" fill="#F6D738" fill-rule="evenodd" stroke="none" />
        <path d="M21.094 2.87736L21.713 2.87736C22.321 2.87736 22.694 3.17737 22.694 3.65636C22.694 4.12137 22.294 4.44637 21.734 4.44637C21.174 4.44637 20.776 4.15536 20.735 3.69736L19.891 3.69736C19.9262 4.14265 20.1424 4.55405 20.4892 4.83562C20.8359 5.11719 21.283 5.24431 21.726 5.18736C22.799 5.18736 23.592 4.55836 23.592 3.71036C23.6169 3.08139 23.1307 2.54967 22.502 2.51836L22.502 2.46436C23.0395 2.35936 23.419 1.87646 23.394 1.32936C23.394 0.574356 22.68 0.0133667 21.723 0.0133667C21.2945 -0.0395355 20.8635 0.0892487 20.5343 0.3685C20.2051 0.647766 20.0077 1.05202 19.99 1.48337L20.814 1.48337C20.826 1.26463 20.9271 1.06038 21.0938 0.918259C21.2605 0.776138 21.4781 0.708588 21.696 0.731369C22.212 0.731369 22.544 1.01537 22.544 1.45236C22.5403 1.66721 22.4461 1.87051 22.2847 2.01233C22.1233 2.15414 21.9095 2.22133 21.696 2.19736L21.096 2.19736L21.094 2.87736L21.094 2.87736Z" id="Shape#11" fill="#F6D738" fill-rule="evenodd" stroke="none" />
        <path d="M8.73499 3.06445L5.73499 5.06445L5.73499 1.06445L8.73499 3.06445L8.73499 3.06445Z" id="Shape#12" fill="#F6D738" fill-rule="evenodd" stroke="none" />
        <path d="M14.735 3.06445L17.735 1.06445L17.735 5.06445L14.735 3.06445L14.735 3.06445Z" id="Shape#13" fill="#F6D738" fill-rule="evenodd" stroke="none" />
      </g>
    </g>
  </g>
</svg>