<?xml version="1.0" encoding="utf-8"?>
<svg width="133px" height="18px" viewbox="0 0 133 18" version="1.1" xmlns:xlink="http://www.w3.org/1999/xlink" xmlns="http://www.w3.org/2000/svg">
  <defs>
    <linearGradient x1="0.5" y1="0" x2="0.5" y2="1" id="gradient_1">
      <stop offset="0" stop-color="#372E2C" />
      <stop offset="0.176" stop-color="#5B4A45" />
      <stop offset="1" stop-color="#77655E" />
    </linearGradient>
    <rect width="133" height="18" id="artboard_1" />
    <clipPath id="clip_1">
      <use xlink:href="#artboard_1" clip-rule="evenodd" />
    </clipPath>
  </defs>
  <g id="hover00167" clip-path="url(#clip_1)">
    <g id="Group" transform="translate(2.0000305 2)">
      <path d="M0 4.66667L0 2.33333C0 1.689 0.221182 1.13903 0.663546 0.683417C1.10591 0.227806 1.63989 0 2.26549 0L125.735 0C126.36 0 126.894 0.227806 127.336 0.683417C127.779 1.13903 128 1.689 128 2.33333L128 11.6667C128 12.311 127.779 12.861 127.336 13.3166C126.894 13.7722 126.36 14 125.735 14L2.26549 14C1.63989 14 1.10591 13.7722 0.663546 13.3166C0.221182 12.861 0 12.311 0 11.6667L0 4.66667Z" id="Rectangle" fill="url(#gradient_1)" fill-rule="evenodd" stroke="none" />
      <path d="M0 3.54545L0 1.77273C0 1.2832 0.16606 0.865366 0.49818 0.51922C0.8303 0.173073 1.2312 0 1.70089 0L125.299 0C125.769 0 126.17 0.173073 126.502 0.51922C126.834 0.865366 127 1.2832 127 1.77273L127 11.2273C127 11.7168 126.834 12.1346 126.502 12.4808C126.17 12.8269 125.769 13 125.299 13L1.70089 13C1.2312 13 0.8303 12.8269 0.49818 12.4808C0.16606 12.1346 0 11.7168 0 11.2273L0 3.54545Z" transform="translate(0.5 0.5)" id="Rectangle" fill="none" fill-rule="evenodd" stroke="#0C0706" stroke-width="1" />
    </g>
    <path d="M2.5 4L0 0L5 3.8147e-07L2.5 4Z" transform="translate(121.00003 7)" id="Shape" fill="#F6D738" fill-rule="evenodd" stroke="none" />
  </g>
</svg>