<?xml version="1.0" encoding="utf-8"?>
<svg width="51px" height="760px" viewbox="0 0 51 760" version="1.1" xmlns:xlink="http://www.w3.org/1999/xlink" xmlns="http://www.w3.org/2000/svg">
  <defs>
    <rect width="51" height="760" id="artboard_1" />
    <clipPath id="clip_1">
      <use xlink:href="#artboard_1" clip-rule="evenodd" />
    </clipPath>
  </defs>
  <g id="hover00166" clip-path="url(#clip_1)">
    <g id="Function" transform="translate(26 745)">
      <path d="M0 0L22 0L22 14L0 14L0 0Z" id="Rectangle" fill="#69626D" fill-rule="evenodd" stroke="none" />
      <path d="M0 0L2 0L2 14L0 14L0 0Z" transform="translate(23 0)" id="Rectangle" fill="#69626D" fill-rule="evenodd" stroke="none" />
      <path d="M2.183 3.12735L2.525 1.77435L2.938 1.77435L3.038 1.43135L2.616 1.43135C2.69056 1.03793 2.85481 0.666992 3.096 0.347351C3.17692 0.22757 3.30633 0.149338 3.45 0.133354C3.47102 0.132584 3.4915 0.140129 3.507 0.15435C3.52168 0.167984 3.52971 0.187332 3.529 0.207352C3.5207 0.247223 3.50437 0.284996 3.481 0.318352C3.45144 0.364799 3.43486 0.418327 3.433 0.473351C3.43217 0.540154 3.4598 0.604156 3.509 0.649353C3.56101 0.698471 3.6305 0.724754 3.702 0.722351C3.78183 0.724243 3.85865 0.691849 3.913 0.633354C3.97222 0.5671 4.00278 0.480087 3.998 0.39135C4.00162 0.283478 3.95555 0.179901 3.873 0.110352C3.75333 0.0279846 3.60874 -0.0101967 3.464 0.00234985C3.17646 -0.000392914 2.89576 0.090126 2.664 0.260353C2.37731 0.491165 2.14511 0.782433 1.984 1.11335C1.93697 1.21768 1.8644 1.30848 1.773 1.37735C1.67324 1.4231 1.56338 1.44239 1.454 1.43335L1.354 1.77635L1.761 1.77635L1.173 4.11435C1.07367 4.49902 1.007 4.73635 0.973 4.82635C0.924084 4.9547 0.844826 5.06929 0.742001 5.16035C0.701328 5.1974 0.648003 5.21744 0.593002 5.21635C0.577969 5.21648 0.563396 5.21116 0.552002 5.20135L0.537003 5.18135C0.537003 5.17135 0.551666 5.15135 0.581001 5.12135C0.613277 5.08256 0.629074 5.03265 0.625 4.98235C0.626942 4.9183 0.601479 4.85647 0.555 4.81236C0.499565 4.7649 0.427837 4.74087 0.355 4.74535C0.261867 4.74094 0.170593 4.77245 0.100002 4.83335C0.0374489 4.88441 0.000808716 4.96061 0 5.04135C0.000385284 5.12888 0.0413971 5.21127 0.111004 5.26435C0.218243 5.33799 0.347218 5.37323 0.477001 5.36435C0.725948 5.36809 0.970127 5.29588 1.177 5.15736C1.40488 4.99211 1.58861 4.77335 1.712 4.52035C1.92011 4.0749 2.07808 3.6077 2.183 3.12735L2.183 3.12735ZM17.183 1.76834L17.69 0.00134277L17.514 0.00134277L16.536 0.174347L16.504 0.291344C16.5902 0.279991 16.6778 0.297577 16.753 0.341347C16.7906 0.365608 16.8129 0.407616 16.812 0.452347C16.8021 0.554543 16.7803 0.655228 16.747 0.752342L15.847 3.86034C16.1594 4.03695 16.5103 4.13445 16.869 4.14434C17.3167 4.13791 17.7397 3.93808 18.029 3.59634C18.397 3.21845 18.603 2.71182 18.603 2.18434C18.6068 1.97636 18.546 1.77233 18.429 1.60034C18.3093 1.43066 18.1103 1.33497 17.903 1.34734C17.7855 1.34628 17.6696 1.37482 17.566 1.43034C17.4209 1.5211 17.2907 1.63377 17.18 1.76434L17.183 1.76834ZM12.61 1.88537L14.019 1.88537L14.019 0.47937L14.403 0.47937L14.403 1.88537L15.812 1.88537L15.812 2.27237L14.399 2.27237L14.399 3.66437L14.015 3.66437L14.015 2.27237L12.606 2.27237L12.61 1.88537ZM9.25 1.38535L8.673 3.33835L8.61401 3.57536C8.60914 3.59638 8.60613 3.6178 8.605 3.63935C8.60475 3.66252 8.61375 3.68484 8.63 3.70135C8.6426 3.71679 8.66111 3.72623 8.681 3.72735C8.7463 3.71511 8.80592 3.68214 8.85101 3.63335C8.92784 3.54862 8.99836 3.45838 9.06201 3.36335L9.16201 3.41635C9.05533 3.63094 8.90394 3.82018 8.718 3.97135C8.5723 4.08344 8.39383 4.14457 8.21001 4.14535C8.12031 4.15116 8.03184 4.12215 7.96301 4.06435C7.90274 4.00655 7.87 3.9258 7.873 3.84235C7.88911 3.69717 7.92268 3.55447 7.97301 3.41735L8.04301 3.18035C7.87775 3.49335 7.65642 3.77332 7.39001 4.00635C7.2808 4.09601 7.14429 4.14574 7.00301 4.14735C6.84068 4.15756 6.68766 4.07085 6.61301 3.92635C6.53138 3.77251 6.49009 3.60048 6.493 3.42635C6.507 3.09578 6.59301 2.77225 6.745 2.47836C6.89574 2.14407 7.12242 1.84959 7.40701 1.61835C7.58121 1.45906 7.80446 1.36383 8.04 1.34835C8.13784 1.34504 8.23292 1.38106 8.304 1.44835C8.38609 1.54693 8.43693 1.66774 8.45 1.79535L8.555 1.43535L9.25 1.38535ZM10.671 1.34436L9.649 1.52036L9.629 1.63136C9.69242 1.61737 9.75706 1.60967 9.822 1.60836C9.92284 1.6072 10.0175 1.6568 10.074 1.74036C10.2762 2.13454 10.4239 2.55439 10.513 2.98836C10.3663 3.18836 10.2663 3.31736 10.213 3.37536C10.1497 3.45065 10.0744 3.51487 9.99 3.56536C9.94294 3.58923 9.89076 3.60124 9.838 3.60036C9.76381 3.59083 9.69217 3.56705 9.627 3.53036C9.57148 3.50179 9.51038 3.48575 9.448 3.48336C9.35603 3.47996 9.26679 3.51501 9.20172 3.58008C9.13664 3.64516 9.1016 3.73439 9.105 3.82636C9.10137 3.91177 9.13364 3.99481 9.194 4.05536C9.25941 4.11626 9.34674 4.14801 9.43599 4.14336C9.53116 4.14369 9.62518 4.1225 9.71099 4.08136C9.83264 4.0124 9.94211 3.92388 10.035 3.81936C10.165 3.68603 10.3443 3.47369 10.573 3.18236C10.6342 3.3878 10.7108 3.58836 10.802 3.78236C10.8514 3.8903 10.9275 3.9839 11.023 4.05436C11.1163 4.11267 11.225 4.14159 11.335 4.13736C11.4687 4.1329 11.5978 4.08675 11.704 4.00536C11.9078 3.84506 12.0778 3.64587 12.204 3.41936L12.097 3.36436C12.024 3.4781 11.9362 3.58167 11.836 3.67236C11.797 3.6983 11.7509 3.71156 11.704 3.71036C11.6298 3.70254 11.5635 3.66033 11.525 3.59636C11.3425 3.25933 11.2079 2.89853 11.125 2.52436C11.2198 2.33323 11.3467 2.15973 11.5 2.01136C11.5656 1.95598 11.6482 1.9249 11.734 1.92336C11.7911 1.92833 11.8475 1.93974 11.902 1.95736C11.9718 1.97821 12.0441 1.98964 12.117 1.99136C12.198 1.99338 12.2761 1.96105 12.332 1.90236C12.3904 1.84036 12.4214 1.75747 12.418 1.67236C12.4225 1.58499 12.3915 1.49951 12.332 1.43536C12.265 1.37312 12.1753 1.34128 12.084 1.34736C11.9893 1.34716 11.8961 1.3709 11.813 1.41636C11.689 1.49755 11.5795 1.59895 11.489 1.71636C11.3342 1.90708 11.1893 2.10568 11.055 2.31136C10.9839 1.97018 10.8525 1.64441 10.667 1.34937L10.671 1.34436ZM6.393 1.41632L3.187 1.41632L3.187 2.16632L6.393 2.16632L6.393 1.41632ZM8.309 1.94636C8.31841 1.82737 8.29305 1.70821 8.236 1.60336C8.20361 1.55605 8.14931 1.52853 8.092 1.53036C8.02085 1.53526 7.95413 1.56667 7.905 1.61836C7.71745 1.8342 7.57376 2.08453 7.482 2.35536C7.34608 2.65769 7.26903 2.98317 7.255 3.31436C7.24855 3.39249 7.26636 3.47072 7.306 3.53836C7.33011 3.57846 7.37231 3.60423 7.419 3.60736C7.52578 3.59766 7.62315 3.54223 7.686 3.45536C7.82551 3.29509 7.94289 3.11684 8.035 2.92536C8.20019 2.62435 8.29394 2.28938 8.309 1.94636L8.309 1.94636ZM16.809 3.97935C16.7193 3.97414 16.633 3.94363 16.56 3.89134L16.96 2.51434C17.0032 2.31989 17.0786 2.134 17.183 1.96434C17.2622 1.84341 17.3955 1.76876 17.54 1.76434C17.625 1.76555 17.7048 1.80527 17.757 1.87234C17.8254 1.96291 17.8588 2.07513 17.851 2.18835C17.85 2.43839 17.8084 2.68661 17.728 2.92336C17.657 3.14705 17.5539 3.35925 17.422 3.55334C17.331 3.69585 17.2119 3.81834 17.072 3.91335C16.9926 3.95867 16.9024 3.98181 16.811 3.98035L16.809 3.97935ZM6.393 2.62L3.187 2.62L3.187 3.37L6.393 3.37L6.393 2.62Z" transform="translate(2.0059967 3.9986572)" id="Shape" fill="#BEB3BF" fill-rule="evenodd" stroke="none" />
    </g>
    <g id="MSEG" transform="translate(0 669)">
      <path d="M0 0L22 0L22 14L0 14L0 0Z" transform="translate(3 0)" id="Rectangle" fill="#69626D" fill-rule="evenodd" stroke="none" />
      <path d="M0 0L2 0L2 14L0 14L0 0Z" id="Rectangle" fill="#69626D" fill-rule="evenodd" stroke="none" />
      <path d="M17.0392 1.00998C16.7509 1.01178 16.4796 1.14603 16.3032 1.37399C15.2587 1.35922 14.2433 1.71732 13.4391 2.384C12.5612 3.17368 11.9468 4.2139 11.6791 5.36401C11.4236 5.38593 11.1891 5.51443 11.0331 5.71802C9.55115 4.98102 8.87512 2.73801 8.61615 1.56601C8.75964 1.39694 8.8374 1.18179 8.83514 0.960022C8.8363 0.43515 8.41498 0.0071106 7.8902 0C7.55011 -9.15527e-05 7.23724 0.186066 7.07513 0.485016C5.3941 0.909027 4.67511 2.92902 4.05212 4.73801C3.34613 6.728 2.77911 8.10202 1.64514 8.41501L1.63513 8.41501C1.46008 8.20575 1.20197 8.08395 0.929138 8.082C0.411255 8.09866 0 8.52335 0 9.0415C0 9.55966 0.411255 9.98434 0.929138 10.001C1.30414 9.99872 1.64111 9.7717 1.78412 9.42502C3.59412 9.04102 4.33014 6.95001 4.98413 5.08203C5.63812 3.21405 6.16711 1.91003 7.12213 1.51602C7.25171 1.70432 7.44672 1.83765 7.66913 1.89005C7.99713 3.345 8.88214 6.052 10.9511 6.79001C11.1133 7.08893 11.4261 7.27505 11.7662 7.27499C12.1057 7.27103 12.4175 7.0871 12.5852 6.79193C12.753 6.49676 12.7514 6.1347 12.5811 5.841L12.5811 5.83099C12.7833 4.8035 13.3056 3.86636 14.0732 3.15399C14.6785 2.67166 15.4272 2.40494 16.2011 2.396C16.3535 2.72006 16.6781 2.9281 17.0362 2.931C17.5541 2.91431 17.9653 2.48962 17.9653 1.97147C17.9652 1.45331 17.554 1.02866 17.0361 1.01199L17.0392 1.00998ZM1.2572 9.48499C1.16309 9.55719 1.04779 9.59622 0.929199 9.59598C0.631592 9.58331 0.396851 9.33835 0.396851 9.0405C0.396851 8.74261 0.631592 8.49768 0.929199 8.48502L0.969177 8.48499C1.25671 8.51089 1.47681 8.75226 1.4762 9.04099C1.4751 9.21469 1.39435 9.37833 1.2572 9.48495L1.2572 9.48499ZM7.8902 1.51496C7.74335 1.51551 7.60254 1.45682 7.49957 1.35215C7.39661 1.2475 7.34021 1.10572 7.3432 0.958927C7.3482 0.658054 7.59521 0.417698 7.89612 0.420994C8.19702 0.42429 8.43878 0.670017 8.43713 0.970921C8.43548 1.27182 8.1911 1.51493 7.8902 1.51496L7.8902 1.51496ZM11.7682 6.86897C11.5339 6.865 11.3272 6.71452 11.2515 6.49271C11.1757 6.27091 11.2472 6.02546 11.4302 5.87897C11.476 5.84287 11.5261 5.81232 11.5791 5.78797C11.64 5.7674 11.7039 5.75724 11.7682 5.75797C12.0658 5.77067 12.3005 6.01563 12.3005 6.31348C12.3005 6.61137 12.0658 6.8563 11.7682 6.86897L11.7682 6.86897ZM17.0392 2.52603C16.9206 2.52625 16.8053 2.48721 16.7112 2.41501C16.5306 2.27585 16.4524 2.04108 16.5134 1.82141C16.5745 1.60172 16.7627 1.44101 16.9892 1.41504L17.0392 1.41504C17.3368 1.4277 17.5715 1.67267 17.5715 1.97052C17.5715 2.2684 17.3368 2.51334 17.0392 2.526L17.0392 2.52603Z" transform="translate(5.015808 2)" id="Shape" fill="#BEB3BF" fill-rule="evenodd" stroke="none" />
    </g>
    <g id="Step-Seq" transform="translate(26 578)">
      <path d="M0 0L22 0L22 14L0 14L0 0Z" id="Rectangle" fill="#69626D" fill-rule="evenodd" stroke="none" />
      <path d="M0 0L2 0L2 14L0 14L0 0Z" transform="translate(23 0)" id="Rectangle" fill="#69626D" fill-rule="evenodd" stroke="none" />
      <path d="M0 10L2 10L2 5L0 5L0 10ZM16.8 10L18.8 10L18.8 5L16.8 5L16.8 10ZM4.1 8L2.1 8L2.1 5L4.1 5L4.1 8ZM16.7 8L14.7 8L14.7 5L16.7 5L16.7 8ZM4.2 5.75L6.2 5.75L6.2 4.75L4.2 4.75L4.2 5.75ZM14.6 5.75L12.6 5.75L12.6 4.75L14.6 4.75L14.6 5.75ZM6.3 5L8.3 5L8.3 2L6.3 2L6.3 5ZM10.4 5L8.4 5L8.4 0L10.4 0L10.4 5ZM10.5 5L12.5 5L12.5 2L10.5 2L10.5 5Z" transform="translate(1.5 2)" id="Shape" fill="#BEB3BF" fill-rule="evenodd" stroke="none" />
    </g>
    <g id="Envelope" transform="translate(0 502)">
      <path d="M0 0L22 0L22 14L0 14L0 0Z" transform="translate(3 0)" id="Rectangle" fill="#69626D" fill-rule="evenodd" stroke="none" />
      <path d="M0 0L2 0L2 14L0 14L0 0Z" id="Rectangle" fill="#69626D" fill-rule="evenodd" stroke="none" />
      <path d="M0 8L3 0M13 4L6 4M3 0L6 4M13 4L16 8" transform="translate(6 3)" id="Shape" fill="none" fill-rule="evenodd" stroke="#BEB3BF" stroke-width="1" stroke-linecap="round" stroke-linejoin="round" />
    </g>
    <g id="S&amp;H" transform="translate(26 411)">
      <path d="M0 0L22 0L22 14L0 14L0 0Z" id="Rectangle" fill="#69626D" fill-rule="evenodd" stroke="none" />
      <path d="M0 0L2 0L2 14L0 14L0 0Z" transform="translate(23 0)" id="Rectangle" fill="#69626D" fill-rule="evenodd" stroke="none" />
      <path d="M2 4L2 0M10 7L10 1M4 0L4 3M14 2L14 3.5M6 3L6 8M12 3.5L12 7M16 2L16 6M8 1L8 8M2 0L4 0M4 3L6 3M6 8L8 8M8 1L10 1M12 3.5L14 3.5M14 2L16 2M0 4L2 4M16 6L18 6M10 7L12 7" transform="translate(2 3)" id="Shape" fill="none" fill-rule="evenodd" stroke="#BEB3BF" stroke-width="1" stroke-linecap="round" stroke-linejoin="round" />
    </g>
    <g id="Noise" transform="translate(0 335)">
      <path d="M0 0L22 0L22 14L0 14L0 0Z" transform="translate(3 0)" id="Rectangle" fill="#69626D" fill-rule="evenodd" stroke="none" />
      <path d="M0 0L2 0L2 14L0 14L0 0Z" id="Rectangle" fill="#69626D" fill-rule="evenodd" stroke="none" />
      <path d="M0 4.07546C0.0430002 3.05346 0.745 -0.500538 1 0.0754623C1.255 0.651463 1.4 6.00846 1.9 7.00846C2.4 8.00846 2.53 3.50846 3 4.07546C3.47 4.64246 3.312 9.80246 3.779 9.28346C4.246 8.76446 4.445 2.87746 5 2.07546C5.555 1.27346 5.465 6.34146 6 6.07546C6.535 5.80946 6.641 0.50946 7.141 1.00946C7.641 1.50946 7.535 7.05846 8 8.07546C8.465 9.09246 8.506 4.79846 9 5.07546C9.494 5.35246 9.517 9.81146 10 9.07546C10.483 8.33946 10.431 2.88046 10.931 2.13046C11.431 1.38046 11.522 6.34746 12 6.07546C12.478 5.80346 12.343 0.543461 12.843 1.04346C13.343 1.54346 13.461 7.06746 14 8.07546C14.539 9.08346 14.515 5.35046 15 5.07546C15.485 4.80046 15.441 8.22546 15.941 6.97546C16.441 5.72546 16.485 0.799461 17 0.0754623C17.515 -0.648539 18 4.07546 18 4.07546" transform="translate(5 2.5005493)" id="Shape" fill="none" fill-rule="evenodd" stroke="#BEB3BF" stroke-width="0.75" />
    </g>
    <g id="Saw" transform="translate(26 244)">
      <path d="M0 0L22 0L22 14L0 14L0 0Z" id="Rectangle" fill="#69626D" fill-rule="evenodd" stroke="none" />
      <path d="M0 0L2 0L2 14L0 14L0 0Z" transform="translate(23 0)" id="Rectangle" fill="#69626D" fill-rule="evenodd" stroke="none" />
      <path d="M0 8L0 0M8 0L8 8M0 0L8 8M8 0L16 8" transform="translate(3 3)" id="Shape" fill="none" fill-rule="evenodd" stroke="#BEB3BF" stroke-width="1" stroke-linecap="round" stroke-linejoin="round" />
    </g>
    <g id="Square" transform="translate(0 168)">
      <path d="M0 0L22 0L22 14L0 14L0 0Z" transform="translate(3 0)" id="Rectangle" fill="#69626D" fill-rule="evenodd" stroke="none" />
      <path d="M0 0L2 0L2 14L0 14L0 0Z" id="Rectangle" fill="#69626D" fill-rule="evenodd" stroke="none" />
      <path d="M0 8L0 0M8 0L8 8M16 0L16 8M0 0L8 0M8 8L16 8" transform="translate(6 3)" id="Shape" fill="none" fill-rule="evenodd" stroke="#BEB3BF" stroke-width="1" stroke-linecap="round" stroke-linejoin="round" />
    </g>
    <g id="Triangle" transform="translate(26 77)">
      <path d="M0 0L22 0L22 14L0 14L0 0Z" id="Rectangle" fill="#69626D" fill-rule="evenodd" stroke="none" />
      <path d="M0 0L2 0L2 14L0 14L0 0Z" transform="translate(23 0)" id="Rectangle" fill="#69626D" fill-rule="evenodd" stroke="none" />
      <path d="M12.3 8L16.3 4M4.3 0L12.3 8M0 4L4.3 0" transform="translate(3 3)" id="Shape" fill="none" fill-rule="evenodd" stroke="#BEB3BF" stroke-width="1" stroke-linecap="round" />
    </g>
    <g id="Sine" transform="translate(0 1)">
      <path d="M0 0L22 0L22 14L0 14L0 0Z" transform="translate(3 0)" id="Rectangle" fill="#69626D" fill-rule="evenodd" stroke="none" />
      <path d="M0 0L2 0L2 14L0 14L0 0Z" id="Rectangle" fill="#69626D" fill-rule="evenodd" stroke="none" />
      <path d="M0 4.01346C0.551 -0.470358 4.3 0.015406 4.3 0.015406M8.3 4.02846C7.749 -0.454366 3.8 0.0154062 3.8 0.0154062M8.3 3.99847C8.851 8.48229 12.7 8.02352 12.8 8.01152M16.6 3.99847C16.049 8.48229 12.1 8.01152 12.1 8.01152" transform="translate(5.5 2.9845862)" id="Shape" fill="none" fill-rule="evenodd" stroke="#BEB3BF" stroke-width="1" stroke-linecap="round" />
    </g>
  </g>
</svg>