<?xml version="1.0" encoding="utf-8"?>
<svg width="47px" height="318px" viewbox="0 0 47 318" version="1.1" xmlns:xlink="http://www.w3.org/1999/xlink" xmlns="http://www.w3.org/2000/svg">
  <defs>
    <rect width="47" height="318" id="artboard_1" />
    <clipPath id="clip_1">
      <use xlink:href="#artboard_1" clip-rule="evenodd" />
    </clipPath>
  </defs>
  <g id="hoverOn00123" clip-path="url(#clip_1)">
    <path d="M0 0L44 0L44 8L0 8L0 0Z" transform="translate(3 62)" id="Rectangle" fill="#C89E83" fill-opacity="0.75" fill-rule="evenodd" stroke="none" />
    <path d="M0 0L2 0L2 8L0 8L0 0Z" transform="translate(0 62)" id="Rectangle" fill="#F7DF5F" fill-rule="evenodd" stroke="none" />
    <path d="M4.278 4.33038L4.278 0.102379L3.51 0.102379L2.162 3.31338L2.112 3.31338L0.77 0.102379L0 0.102379L0 4.33038L0.61 4.33038L0.61 1.27738L0.651 1.27738L1.89 4.20738L2.39 4.20738L3.629 1.27738L3.67 1.27738L3.67 4.33038L4.278 4.33038ZM7.14002 0.000377655C6.57056 -0.00905991 6.02529 0.230297 5.64679 0.655872C5.26829 1.08144 5.0942 1.65091 5.17002 2.21538C5.09314 2.78006 5.26686 3.35012 5.64559 3.77595C6.02432 4.20179 6.57023 4.44085 7.14002 4.43038C7.70985 4.44123 8.25591 4.20225 8.63457 3.77629C9.01322 3.35032 9.18657 2.78002 9.10902 2.21538C9.18693 1.65068 9.01371 1.08017 8.63497 0.654118C8.25624 0.228065 7.70996 -0.0108185 7.14002 0.000377655L7.14002 0.000377655ZM7.14003 0.612377C7.94003 0.612377 8.44003 1.23338 8.44003 2.21238C8.44003 3.19138 7.94303 3.82038 7.14003 3.82038C6.33703 3.82038 5.84003 3.19038 5.84003 2.21538C5.84003 1.24038 6.34303 0.612377 7.14003 0.612377L7.14003 0.612377ZM10.635 4.33038L10.635 1.33038L10.682 1.33038L12.853 4.33038L13.445 4.33038L13.445 0.102379L12.806 0.102379L12.806 3.10238L12.759 3.10238L10.588 0.102379L9.99597 0.102379L9.99597 4.33038L10.635 4.33038ZM16.307 0.000377655C15.7367 -0.0105362 15.19 0.228184 14.8104 0.653942C14.4308 1.0797 14.2561 1.65004 14.332 2.21538C14.255 2.78093 14.4294 3.35187 14.8092 3.77789C15.1891 4.20391 15.7364 4.44233 16.307 4.43038C16.8775 4.44136 17.4241 4.20198 17.8029 3.77531C18.1816 3.34864 18.3545 2.77749 18.276 2.21238C18.353 1.64815 18.1793 1.0785 17.8007 0.653149C17.4221 0.227798 16.8764 -0.010685 16.307 0.000377655L16.307 0.000377655ZM16.307 0.612377C17.107 0.612377 17.607 1.23338 17.607 2.21238C17.607 3.19138 17.107 3.81738 16.307 3.81738C15.507 3.81738 15.007 3.18738 15.007 2.21238C15.007 1.23738 15.51 0.612377 16.307 0.612377L16.307 0.612377Z" transform="translate(4.5300293 63.66962)" id="Shape" fill="#F6D738" fill-rule="evenodd" stroke="none" />
    <path d="M0 0L44 0L44 8L0 8L0 0Z" transform="translate(3 0)" id="Rectangle" fill="#C89E83" fill-opacity="0.75" fill-rule="evenodd" stroke="none" />
    <path d="M0 0L2 0L2 8L0 8L0 0Z" id="Rectangle" fill="#F7DF5F" fill-rule="evenodd" stroke="none" />
    <path d="M0 0.102358L0 4.33036L0.656 4.33036L0.656 2.90636L1.635 2.90636C2.01244 2.92661 2.38096 2.78699 2.65022 2.52172C2.91949 2.25645 3.0646 1.89006 3.05 1.51236C3.07195 1.13492 2.93271 0.765888 2.6669 0.497024C2.40109 0.228159 2.03367 0.084716 1.656 0.102358L0 0.102358ZM0.656006 0.682358L1.48201 0.682358C2.05901 0.682358 2.38201 0.975358 2.38201 1.51136C2.38201 2.04736 2.04801 2.33036 1.48301 2.33036L0.657006 2.33036L0.656006 0.682358ZM5.696 0.000358701C5.12567 -0.010558 4.57902 0.228162 4.1994 0.653922C3.81977 1.07968 3.64503 1.65001 3.72099 2.21536C3.64397 2.78091 3.81833 3.35185 4.19819 3.77787C4.57805 4.20389 5.12535 4.44231 5.696 4.43036C6.26566 4.44092 6.81144 4.2018 7.18987 3.77588C7.5683 3.34995 7.74152 2.77982 7.664 2.21536C7.74188 1.65083 7.56878 1.0805 7.19027 0.654483C6.81176 0.228469 6.26577 -0.0105437 5.696 0.000358701L5.696 0.000358701ZM5.696 0.612359C6.496 0.612359 6.996 1.23336 6.996 2.21236C6.996 3.19136 6.498 3.82036 5.696 3.82036C4.894 3.82036 4.396 3.19036 4.396 2.21536C4.396 1.24036 4.899 0.612359 5.696 0.612359L5.696 0.612359ZM11.189 3.73036L9.208 3.73036L9.208 0.102358L8.552 0.102358L8.552 4.33036L11.189 4.33036L11.189 3.73036ZM13.278 4.33036L13.278 2.62536L14.77 0.102358L14.041 0.102358L12.976 1.93036L12.926 1.93036L11.863 0.102358L11.134 0.102358L12.622 2.62436L12.622 4.33036L13.278 4.33036Z" transform="translate(4.5300293 1.6696414)" id="Shape" fill="#F6D738" fill-rule="evenodd" stroke="none" />
    <path d="M0 0L44 0L44 8L0 8L0 0Z" transform="translate(3 124)" id="Rectangle" fill="#C89E83" fill-opacity="0.75" fill-rule="evenodd" stroke="none" />
    <path d="M0 0L2 0L2 8L0 8L0 0Z" transform="translate(0 124)" id="Rectangle" fill="#F7DF5F" fill-rule="evenodd" stroke="none" />
    <path d="M4.278 4.33873L4.278 0.110733L3.51 0.110733L2.162 3.32173L2.112 3.32173L0.77 0.110733L0 0.110733L0 4.33873L0.61 4.33873L0.61 1.28573L0.651 1.28573L1.89 4.21573L2.39 4.21573L3.629 1.28573L3.67 1.28573L3.67 4.33873L4.278 4.33873ZM7.14002 0.00872803C6.57056 -0.000709535 6.02529 0.238647 5.64679 0.664223C5.26829 1.08979 5.0942 1.65926 5.17002 2.22373C5.09314 2.78841 5.26686 3.35847 5.64559 3.7843C6.02432 4.21013 6.57023 4.44919 7.14002 4.43874C7.70985 4.44958 8.25591 4.2106 8.63457 3.78464C9.01322 3.35867 9.18657 2.78836 9.10902 2.22373C9.18693 1.65903 9.01371 1.08852 8.63497 0.662468C8.25624 0.23642 7.70996 -0.00247192 7.14002 0.00872803L7.14002 0.00872803ZM7.14003 0.620728C7.94003 0.620728 8.44003 1.24173 8.44003 2.22073C8.44003 3.19972 7.94303 3.82874 7.14003 3.82874C6.33703 3.82874 5.84003 3.19873 5.84003 2.22373C5.84003 1.24873 6.34303 0.620728 7.14003 0.620728L7.14003 0.620728ZM10.635 4.33873L10.635 1.33873L10.682 1.33873L12.853 4.33873L13.445 4.33873L13.445 0.110733L12.806 0.110733L12.806 3.11073L12.759 3.11073L10.588 0.110733L9.99597 0.110733L9.99597 4.33873L10.635 4.33873ZM16.307 0.00872803C15.7367 -0.00218964 15.19 0.236534 14.8104 0.662292C14.4308 1.08805 14.2561 1.65839 14.332 2.22373C14.255 2.78929 14.4294 3.36021 14.8092 3.78624C15.1891 4.21227 15.7364 4.45068 16.307 4.43874C16.8775 4.44972 17.4241 4.21033 17.8029 3.78366C18.1816 3.35699 18.3545 2.78584 18.276 2.22073C18.353 1.6565 18.1793 1.08685 17.8007 0.661499C17.4221 0.236145 16.8764 -0.00233459 16.307 0.00872803L16.307 0.00872803ZM16.307 0.620728C17.107 0.620728 17.607 1.24173 17.607 2.22073C17.607 3.19972 17.107 3.82573 16.307 3.82573C15.507 3.82573 15.007 3.19572 15.007 2.22073C15.007 1.24573 15.51 0.620728 16.307 0.620728L16.307 0.620728ZM20.607 3.20174C20.652 3.95773 21.282 4.43874 22.219 4.43874C23.219 4.43874 23.848 3.93173 23.848 3.12373C23.848 2.48773 23.491 2.13673 22.623 1.93473L22.157 1.82073C21.606 1.69173 21.384 1.52073 21.384 1.22073C21.384 0.839729 21.73 0.590729 22.248 0.590729C22.6655 0.536201 23.0548 0.811821 23.142 1.22373L23.781 1.22373C23.6952 0.467613 23.0132 -0.0761337 22.257 0.00872803C21.334 0.00872803 20.719 0.508728 20.719 1.26273C20.719 1.88373 21.068 2.25273 21.832 2.43173L22.377 2.56374C22.937 2.69572 23.183 2.88873 23.183 3.21072C23.183 3.58572 22.796 3.85773 22.269 3.85773C21.704 3.85773 21.311 3.60274 21.255 3.20174L20.607 3.20174ZM26.438 4.33873L26.438 0.708733L27.765 0.708733L27.765 0.108727L24.451 0.108727L24.451 0.708733L25.781 0.708733L25.781 4.33873L26.438 4.33873Z" transform="translate(4.5300293 125.66127)" id="Shape" fill="#F6D738" fill-rule="evenodd" stroke="none" />
    <path d="M0 0L44 0L44 8L0 8L0 0Z" transform="translate(3 186)" id="Rectangle" fill="#C89E83" fill-opacity="0.75" fill-rule="evenodd" stroke="none" />
    <path d="M0 0L2 0L2 8L0 8L0 0Z" transform="translate(0 186)" id="Rectangle" fill="#F7DF5F" fill-rule="evenodd" stroke="none" />
    <path d="M4.278 4.33038L4.278 0.102386L3.51 0.102386L2.162 3.31338L2.112 3.31338L0.77 0.102386L0 0.102386L0 4.33038L0.61 4.33038L0.61 1.27739L0.651 1.27739L1.89 4.20738L2.39 4.20738L3.629 1.27739L3.67 1.27739L3.67 4.33038L4.278 4.33038ZM7.14002 0.00038147C6.57056 -0.00906372 6.02529 0.230301 5.64679 0.655868C5.26829 1.08145 5.0942 1.65091 5.17002 2.21538C5.09314 2.78006 5.26686 3.35013 5.64559 3.77595C6.02432 4.20178 6.57023 4.44084 7.14002 4.43039C7.70985 4.44124 8.25591 4.20225 8.63457 3.77629C9.01322 3.35033 9.18657 2.78001 9.10902 2.21538C9.18693 1.65068 9.01371 1.08017 8.63497 0.654114C8.25624 0.228073 7.70996 -0.0108185 7.14002 0.00038147L7.14002 0.00038147ZM7.14003 0.612381C7.94003 0.612381 8.44003 1.23338 8.44003 2.21239C8.44003 3.19138 7.94303 3.82039 7.14003 3.82039C6.33703 3.82039 5.84003 3.19038 5.84003 2.21538C5.84003 1.24039 6.34303 0.612381 7.14003 0.612381L7.14003 0.612381ZM10.635 4.33038L10.635 1.33038L10.682 1.33038L12.853 4.33038L13.445 4.33038L13.445 0.102386L12.806 0.102386L12.806 3.10239L12.759 3.10239L10.588 0.102386L9.99597 0.102386L9.99597 4.33038L10.635 4.33038ZM16.307 0.00038147C15.7367 -0.0105286 15.19 0.22818 14.8104 0.653946C14.4308 1.07971 14.2561 1.65004 14.332 2.21538C14.255 2.78094 14.4294 3.35187 14.8092 3.77789C15.1891 4.20392 15.7364 4.44234 16.307 4.43039C16.8775 4.44138 17.4241 4.20198 17.8029 3.77531C18.1816 3.34865 18.3545 2.7775 18.276 2.21239C18.353 1.64816 18.1793 1.07849 17.8007 0.653152C17.4221 0.227798 16.8764 -0.0106812 16.307 0.00038147L16.307 0.00038147ZM16.307 0.612381C17.107 0.612381 17.607 1.23338 17.607 2.21239C17.607 3.19138 17.107 3.81738 16.307 3.81738C15.507 3.81738 15.007 3.18738 15.007 2.21239C15.007 1.23738 15.51 0.612381 16.307 0.612381L16.307 0.612381ZM21.46 4.33038L21.46 2.57838L23.276 2.57838L23.276 1.99838L21.46 1.99838L21.46 0.69838L23.443 0.69838L23.443 0.0983887L20.803 0.0983887L20.803 4.33038L21.46 4.33038ZM24.293 0.102386L24.293 4.33038L24.949 4.33038L24.949 2.90639L25.928 2.90639C26.3056 2.92665 26.6743 2.7869 26.9436 2.52141C27.2129 2.25592 27.3579 1.88925 27.343 1.51138C27.3647 1.13393 27.2251 0.764999 26.9591 0.496323C26.6931 0.227661 26.3256 0.0844727 25.948 0.102386L24.293 0.102386ZM24.949 0.682388L25.775 0.682388C26.352 0.682388 26.675 0.975388 26.675 1.51138C26.675 2.04738 26.344 2.32838 25.775 2.32838L24.949 2.32838L24.949 0.682388Z" transform="translate(4.5300293 187.66962)" id="Shape" fill="#F6D738" fill-rule="evenodd" stroke="none" />
    <path d="M0 0L44 0L44 8L0 8L0 0Z" transform="translate(3 248)" id="Rectangle" fill="#C89E83" fill-opacity="0.75" fill-rule="evenodd" stroke="none" />
    <path d="M0 0L2 0L2 8L0 8L0 0Z" transform="translate(0 248)" id="Rectangle" fill="#F7DF5F" fill-rule="evenodd" stroke="none" />
    <path d="M4.278 4.33873L4.278 0.110733L3.51 0.110733L2.162 3.32173L2.112 3.32173L0.77 0.110733L0 0.110733L0 4.33873L0.61 4.33873L0.61 1.28574L0.651 1.28574L1.89 4.21573L2.39 4.21573L3.629 1.28574L3.67 1.28574L3.67 4.33873L4.278 4.33873ZM7.14002 0.00872803C6.57056 -0.000717163 6.02529 0.238647 5.64679 0.664215C5.26829 1.0898 5.0942 1.65926 5.17002 2.22372C5.09314 2.78841 5.26686 3.35847 5.64559 3.7843C6.02432 4.21013 6.57023 4.44919 7.14002 4.43874C7.70985 4.44958 8.25591 4.2106 8.63457 3.78464C9.01322 3.35867 9.18657 2.78836 9.10902 2.22372C9.18693 1.65903 9.01371 1.08852 8.63497 0.66246C8.25624 0.23642 7.70996 -0.00247192 7.14002 0.00872803L7.14002 0.00872803ZM7.14003 0.620728C7.94003 0.620728 8.44003 1.24173 8.44003 2.22073C8.44003 3.19972 7.94303 3.82874 7.14003 3.82874C6.33703 3.82874 5.84003 3.19873 5.84003 2.22372C5.84003 1.24873 6.34303 0.620728 7.14003 0.620728L7.14003 0.620728ZM10.635 4.33873L10.635 1.33873L10.682 1.33873L12.853 4.33873L13.445 4.33873L13.445 0.110733L12.806 0.110733L12.806 3.11073L12.759 3.11073L10.588 0.110733L9.99597 0.110733L9.99597 4.33873L10.635 4.33873ZM16.307 0.00872803C15.7367 -0.00218201 15.19 0.236527 14.8104 0.662292C14.4308 1.08806 14.2561 1.65839 14.332 2.22372C14.255 2.78929 14.4294 3.36021 14.8092 3.78624C15.1891 4.21227 15.7364 4.45068 16.307 4.43874C16.8775 4.44972 17.4241 4.21033 17.8029 3.78366C18.1816 3.35699 18.3545 2.78584 18.276 2.22073C18.353 1.65651 18.1793 1.08684 17.8007 0.661499C17.4221 0.236145 16.8764 -0.00233459 16.307 0.00872803L16.307 0.00872803ZM16.307 0.620728C17.107 0.620728 17.607 1.24173 17.607 2.22073C17.607 3.19972 17.107 3.82573 16.307 3.82573C15.507 3.82573 15.007 3.19572 15.007 2.22073C15.007 1.24573 15.51 0.620728 16.307 0.620728L16.307 0.620728ZM20.607 3.20174C20.652 3.95773 21.282 4.43874 22.219 4.43874C23.219 4.43874 23.848 3.93173 23.848 3.12373C23.848 2.48773 23.491 2.13673 22.623 1.93472L22.157 1.82072C21.606 1.69173 21.384 1.52074 21.384 1.22073C21.384 0.839737 21.73 0.590729 22.248 0.590729C22.6655 0.536209 23.0548 0.811813 23.142 1.22372L23.781 1.22372C23.6952 0.467606 23.0132 -0.0761261 22.257 0.00872803C21.334 0.00872803 20.719 0.508728 20.719 1.26273C20.719 1.88373 21.068 2.25273 21.832 2.43173L22.377 2.56374C22.937 2.69572 23.183 2.88873 23.183 3.21072C23.183 3.58572 22.796 3.85773 22.269 3.85773C21.704 3.85773 21.311 3.60274 21.255 3.20174L20.607 3.20174ZM26.438 4.33873L26.438 0.708725L27.765 0.708725L27.765 0.108734L24.451 0.108734L24.451 0.708725L25.781 0.708725L25.781 4.33873L26.438 4.33873ZM29.904 2.92073L31.155 2.92073L31.155 2.34673L29.904 2.34673L29.904 1.10773L29.356 1.10773L29.356 2.34673L28.108 2.34673L28.108 2.92073L29.356 2.92073L29.356 4.16273L29.904 4.16273L29.904 2.92073ZM32.807 4.33873L32.807 2.58673L34.623 2.58673L34.623 2.00673L32.807 2.00673L32.807 0.706726L34.79 0.706726L34.79 0.106735L32.15 0.106735L32.15 4.33873L32.807 4.33873ZM35.64 0.110733L35.64 4.33873L36.296 4.33873L36.296 2.91473L37.27 2.91473C37.6483 2.93645 38.0182 2.79747 38.2886 2.53203C38.559 2.26659 38.7047 1.89935 38.69 1.52074C38.7117 1.14328 38.5722 0.774353 38.3062 0.505676C38.0402 0.237 37.6727 0.093811 37.295 0.111725L35.64 0.110733ZM36.296 0.690735L37.122 0.690735C37.699 0.690735 38.022 0.983734 38.022 1.51973C38.022 2.05573 37.691 2.33673 37.122 2.33673L36.296 2.33673L36.296 0.690735Z" transform="translate(4.5300293 249.66127)" id="Shape" fill="#F6D738" fill-rule="evenodd" stroke="none" />
    <path d="M0 0L44 0L44 8L0 8L0 0Z" transform="translate(3 310)" id="Rectangle" fill="#C89E83" fill-opacity="0.75" fill-rule="evenodd" stroke="none" />
    <path d="M0 0L2 0L2 8L0 8L0 0Z" transform="translate(0 310)" id="Rectangle" fill="#F7DF5F" fill-rule="evenodd" stroke="none" />
    <path d="M2.637 3.73199L0.657001 3.73199L0.657001 0.104004L0 0.104004L0 4.332L2.637 4.332L2.637 3.73199ZM6.20199 4.332L6.90199 4.332L5.36999 0.104004L4.66999 0.104004L3.14099 4.332L3.81499 4.332L4.20499 3.20999L5.81599 3.20999L6.20199 4.332ZM4.987 0.872009L5.037 0.872009L5.649 2.659L4.37 2.659L4.987 0.872009ZM8.87998 4.332L8.87998 0.701996L10.207 0.701996L10.207 0.10199L6.89398 0.10199L6.89398 0.701996L8.22398 0.701996L8.22398 4.332L8.87998 4.332ZM12.58 4.43201C13.4387 4.4975 14.2033 3.89111 14.335 3.04001L13.682 3.04001C13.5489 3.52939 13.0878 3.85593 12.582 3.819C11.82 3.819 11.346 3.20099 11.346 2.21899C11.346 1.237 11.821 0.614014 12.579 0.614014C13.1035 0.59549 13.5663 0.954407 13.679 1.46701L14.332 1.46701C14.217 0.596558 13.454 -0.0404053 12.577 0.00201416C11.402 0.00201416 10.677 0.848999 10.677 2.22C10.677 3.591 11.406 4.43201 12.58 4.43201L12.58 4.43201ZM18.68 4.332L18.68 0.104004L18.027 0.104004L18.027 1.879L15.853 1.879L15.853 0.104004L15.197 0.104004L15.197 4.332L15.853 4.332L15.853 2.478L18.024 2.478L18.024 4.332L18.68 4.332Z" transform="translate(4.5300293 311.668)" id="Shape" fill="#F6D738" fill-rule="evenodd" stroke="none" />
  </g>
</svg>