<?xml version="1.0" encoding="utf-8"?>
<svg width="34px" height="11px" viewbox="0 0 34 11" version="1.1" xmlns:xlink="http://www.w3.org/1999/xlink" xmlns="http://www.w3.org/2000/svg">
  <defs>
    <linearGradient x1="0.5" y1="0" x2="0.5" y2="1" id="gradient_1">
      <stop offset="0" stop-color="#787477" />
      <stop offset="1" stop-color="#716B6C" />
    </linearGradient>
    <rect width="33.99997" height="11" id="artboard_1" />
    <clipPath id="clip_1">
      <use xlink:href="#artboard_1" clip-rule="evenodd" />
    </clipPath>
  </defs>
  <g id="hover00148" clip-path="url(#clip_1)">
    <g id="Group" transform="translate(-0.02999878 0.040008545)">
      <g id="Group" transform="translate(0.25 0.24899292)">
        <path d="M0 2L0 1C0 0.723858 0.0976311 0.488155 0.292893 0.292893C0.488155 0.0976311 0.723858 0 1 0L32 0C32.2761 0 32.5118 0.0976311 32.7071 0.292893C32.9024 0.488155 33 0.723858 33 1L33 9C33 9.27614 32.9024 9.51184 32.7071 9.70711C32.5118 9.90237 32.2761 10 32 10L1 10C0.723858 10 0.488155 9.90237 0.292893 9.70711C0.0976311 9.51184 0 9.27614 0 9L0 2Z" transform="translate(0.25 0.25)" id="Rectangle" fill="url(#gradient_1)" fill-rule="evenodd" stroke="none" />
        <path d="M0 2.5L0 1.25C0 0.904822 0.122039 0.610194 0.366116 0.366116C0.610194 0.122039 0.904822 0 1.25 0L32.25 0C32.5952 0 32.8898 0.122039 33.1339 0.366116C33.378 0.610194 33.5 0.904822 33.5 1.25L33.5 9.25C33.5 9.59518 33.378 9.88981 33.1339 10.1339C32.8898 10.378 32.5952 10.5 32.25 10.5L1.25 10.5C0.904822 10.5 0.610194 10.378 0.366116 10.1339C0.122039 9.88981 0 9.59518 0 9.25L0 2.5Z" id="Rectangle" fill="none" fill-rule="evenodd" stroke="#4E4752" stroke-width="0.5" />
      </g>
      <path d="M32.5 1.979L1.5 1.979C0.671573 1.979 0 1.30743 0 0.479L0 0.0650005C0.0410285 0.863213 0.700735 1.48905 1.5 1.488L32.5 1.488C33.3238 1.48803 33.9934 0.823736 34 0L34 0.479C34 1.30743 33.3284 1.979 32.5 1.979L32.5 1.979Z" transform="translate(0 9.020996)" id="Shape" fill="#000000" fill-opacity="0.4" fill-rule="evenodd" stroke="none" />
      <path d="M34 1.992L34 1.992C33.9956 1.16669 33.3253 0.499985 32.5 0.5L1.5 0.5C0.701102 0.498919 0.0415421 1.12418 0 1.922L0 1.5C1.19209e-07 0.671573 0.671573 0 1.5 0L32.5 0C33.3284 0 34 0.671573 34 1.5L34 1.992Z" id="Shape" fill="#FFFFFF" fill-opacity="0.4" fill-rule="evenodd" stroke="none" />
      <path d="M0 2L0 1C0 0.723858 0.0976311 0.488155 0.292893 0.292893C0.488155 0.0976311 0.723858 0 1 0L32 0C32.2761 0 32.5118 0.0976311 32.7071 0.292893C32.9024 0.488155 33 0.723858 33 1L33 9C33 9.27614 32.9024 9.51184 32.7071 9.70711C32.5118 9.90237 32.2761 10 32 10L1 10C0.723858 10 0.488155 9.90237 0.292893 9.70711C0.0976311 9.51184 0 9.27614 0 9L0 2Z" transform="translate(0.5 0.49899292)" id="Rectangle" fill="#FFFFFF" fill-opacity="0.2" fill-rule="evenodd" stroke="none" />
      <path d="M0 4.30625C0.0632248 4.79681 0.319234 5.24198 0.71143 5.54335C1.10363 5.84472 1.59971 5.97747 2.09 5.91225C3.379 5.91225 4.195 5.25225 4.195 4.21225C4.195 3.38425 3.726 2.93125 2.558 2.63825L1.968 2.48225C1.191 2.28225 0.882 2.02925 0.882 1.58725C0.882 1.01725 1.382 0.642253 2.128 0.642253C2.72971 0.566683 3.28739 0.969332 3.405 1.56425L4.112 1.56425C3.98801 0.600851 3.11941 -0.0886231 2.153 0.00925255C0.962 0.00925255 0.161 0.657253 0.161 1.61425C0.161 2.41425 0.602 2.87625 1.622 3.13425L2.345 3.32225C3.122 3.52225 3.474 3.82225 3.474 4.30225C3.474 4.86125 2.915 5.27125 2.158 5.27125C1.358 5.27125 0.795 4.89625 0.709 4.30625L0 4.30625ZM6.578 5.26325C6.09 5.26325 5.726 5.01325 5.726 4.58325C5.726 4.15325 6.007 3.93825 6.648 3.89625L7.781 3.82225L7.781 4.20925C7.76747 4.51143 7.63099 4.79493 7.40324 4.99398C7.17549 5.19303 6.87626 5.29031 6.575 5.26325L6.578 5.26325ZM6.453 5.85325C6.98133 5.87345 7.47903 5.60545 7.753 5.15325L7.816 5.15325L7.816 5.77925L8.45 5.77925L8.45 2.89625C8.45 2.02125 7.876 1.49625 6.85 1.49625C5.95 1.49625 5.288 1.94125 5.198 2.61725L5.878 2.61725C5.972 2.28525 6.323 2.09425 6.827 2.09425C7.456 2.09425 7.78 2.37925 7.78 2.89425L7.78 3.27925L6.565 3.35325C5.585 3.41225 5.03 3.84525 5.03 4.59925C5.03547 4.95979 5.19263 5.30134 5.46291 5.54002C5.73319 5.7787 6.09155 5.89242 6.45 5.85325L6.453 5.85325ZM12.973 1.56825L12.254 1.56825L11.1 5.03725L11.039 5.03725L9.887 1.56825L9.168 1.56825L10.727 5.77925L11.415 5.77925L12.973 1.56825ZM15.395 2.08825C15.7139 2.08801 16.0181 2.22217 16.233 2.4578C16.4479 2.69344 16.5536 3.00872 16.524 3.32625L14.2 3.32625C14.1897 3.00233 14.3109 2.68802 14.536 2.45484C14.7611 2.22167 15.0709 2.08944 15.395 2.08825L15.395 2.08825ZM16.5 4.68925C16.2892 5.08401 15.8586 5.30997 15.414 5.25925C14.7 5.25925 14.239 4.73225 14.2 3.90025L14.2 3.86925L17.231 3.86925L17.231 3.61125C17.231 2.30225 16.54 1.49425 15.403 1.49425C14.8479 1.49551 14.3203 1.73635 13.9557 2.15497C13.5911 2.57359 13.425 3.12922 13.5 3.67925C13.5 5.00925 14.235 5.85325 15.4 5.85325C16.193 5.93481 16.9344 5.44888 17.176 4.68925L16.5 4.68925Z" transform="translate(8.400024 2.7207336)" id="Shape" fill="#E4DCD9" fill-rule="evenodd" stroke="none" />
    </g>
  </g>
</svg>