<?xml version="1.0" encoding="utf-8"?>
<svg width="123px" height="225px" viewbox="0 0 123 225" version="1.1" xmlns:xlink="http://www.w3.org/1999/xlink" xmlns="http://www.w3.org/2000/svg">
  <defs>
    <rect width="123" height="224.00002" id="artboard_1" />
    <clipPath id="clip_1">
      <use xlink:href="#artboard_1" clip-rule="evenodd" />
    </clipPath>
  </defs>
  <g id="hoverOn00151" clip-path="url(#clip_1)">
    <g id="Group" transform="translate(3.0517578E-05 43.999977)">
      <path d="M0 0L30 0L30 9L0 9L0 0Z" transform="translate(0 3)" id="Rectangle" fill="#C89E83" fill-opacity="0.8" fill-rule="evenodd" stroke="none" />
      <path d="M0 0L30 0L30 2L0 2L0 0Z" id="Rectangle" fill="#F8DF60" fill-rule="evenodd" stroke="none" />
      <g id="Group" transform="translate(4.769989 4.944317)">
        <path d="M0.854 5.05568L0.854 1.69968L0.912 1.69968L3.33 5.05568L4.092 5.05568L4.092 0.123684L3.244 0.123684L3.244 3.47668L3.186 3.47668L0.766 0.123684L0 0.123684L0 5.05568L0.854 5.05568ZM7.09401 0.000682831C6.42429 -0.0156441 5.78074 0.26083 5.33156 0.757851C4.88238 1.25487 4.67222 1.92303 4.75601 2.58768C4.66883 3.25341 4.87767 3.92391 5.32746 4.42238C5.77726 4.92085 6.42286 5.19725 7.09401 5.17868C7.76337 5.19431 8.40613 4.9166 8.85351 4.41846C9.3009 3.92032 9.50821 3.25153 9.42101 2.58768C9.50728 1.9244 9.29952 1.25653 8.85221 0.759251C8.4049 0.261963 7.76269 -0.0151176 7.09401 0.000682831L7.09401 0.000682831ZM7.09399 0.783684C7.96899 0.783684 8.51899 1.48368 8.51899 2.58368C8.51899 3.68368 7.97199 4.39568 7.09399 4.39568C6.21599 4.39568 5.65799 3.68768 5.65799 2.58768C5.65799 1.48768 6.21499 0.783684 7.09399 0.783684L7.09399 0.783684ZM12.478 5.05568L12.478 3.05568L14.546 3.05568L14.546 2.32068L12.478 2.32068L12.478 0.885685L14.74 0.885685L14.74 0.123684L11.596 0.123684L11.596 5.05568L12.478 5.05568ZM20.458 5.05568L20.458 0.123684L19.43 0.123684L17.942 3.71568L17.88 3.71568L16.397 0.123684L15.364 0.123684L15.364 5.05568L16.184 5.05568L16.184 1.58668L16.23 1.58668L17.596 4.86468L18.23 4.86468L19.589 1.58668L19.637 1.58668L19.637 5.05568L20.458 5.05568Z" id="Shape" fill="#F6D738" fill-rule="evenodd" stroke="none" />
      </g>
    </g>
    <g id="Group" transform="translate(31.00003 99.99998)">
      <path d="M0 0L30 0L30 9L0 9L0 0Z" transform="translate(0 3)" id="Rectangle" fill="#C89E83" fill-opacity="0.8" fill-rule="evenodd" stroke="none" />
      <path d="M0 0L30 0L30 2L0 2L0 0Z" id="Rectangle" fill="#F8DF60" fill-rule="evenodd" stroke="none" />
      <g id="Group" transform="translate(9.264984 4.9355927)">
        <path d="M0 1.57441L0 1.58841L0.827 1.58841L0.827 1.57441C0.817001 1.34418 0.905773 1.12065 1.07099 0.960014C1.23621 0.799385 1.46215 0.716934 1.692 0.733406C1.90473 0.713989 2.11602 0.783463 2.27571 0.925346C2.43539 1.06723 2.52925 1.26887 2.535 1.48241C2.535 1.83141 2.368 2.08241 1.694 2.77141L0.0480003 4.45241L0.0480003 5.06441L3.473 5.06441L3.473 4.31541L1.258 4.31541L1.258 4.25741L2.29 3.2224C3.127 2.39541 3.397 1.95741 3.397 1.42841C3.37428 1.01337 3.18159 0.626022 2.86428 0.357536C2.54697 0.0890427 2.13308 -0.0368805 1.72 0.00940704C1.27959 -0.0310059 0.842472 0.115494 0.515358 0.413132C0.18824 0.710762 0.00123596 1.13215 0 1.57441L0 1.57441Z" id="Shape" fill="#F6D738" fill-rule="evenodd" stroke="none" />
        <path d="M1.285 4.932L2.167 4.932L2.167 0L1.289 0L0 0.900002L0 1.748L1.227 0.887001L1.285 0.887001L1.285 4.932Z" transform="translate(10.419006 0.13240814)" id="Shape" fill="#F6D738" fill-rule="evenodd" stroke="none" />
        <path d="M3 2L0 4L0 0L3 2Z" transform="translate(5.7349854 1.0644073)" id="Shape" fill="#F6D738" fill-rule="evenodd" stroke="none" />
      </g>
    </g>
    <g id="Group" transform="translate(62 155.99997)">
      <path d="M0 0L30 0L30 9L0 9L0 0Z" transform="translate(0 3)" id="Rectangle" fill="#C89E83" fill-opacity="0.8" fill-rule="evenodd" stroke="none" />
      <path d="M0 0L30 0L30 2L0 2L0 0Z" id="Rectangle" fill="#F8DF60" fill-rule="evenodd" stroke="none" />
      <g id="Group" transform="translate(3.1560059 4.9355927)">
        <path d="M1.203 2.87566L1.822 2.87566C2.43 2.87566 2.803 3.17566 2.803 3.65465C2.803 4.11966 2.403 4.44466 1.843 4.44466C1.283 4.44466 0.885002 4.15366 0.844002 3.69565L0 3.69565C0.0352249 4.14095 0.251419 4.55234 0.598183 4.83391C0.944946 5.11548 1.39196 5.2426 1.835 5.18565C2.908 5.18565 3.701 4.55666 3.701 3.70865C3.72591 3.07968 3.23969 2.54796 2.611 2.51665L2.611 2.46265C3.14852 2.35765 3.52803 1.87476 3.503 1.32765C3.503 0.572647 2.789 0.0116577 1.832 0.0116577C1.40355 -0.0412445 0.972511 0.0875397 0.643288 0.366791C0.314072 0.646057 0.116707 1.05031 0.098999 1.48166L0.923004 1.48166C0.934959 1.26292 1.03608 1.05867 1.20277 0.91655C1.36946 0.774429 1.58714 0.706879 1.805 0.72966C2.321 0.72966 2.653 1.01366 2.653 1.45065C2.64928 1.6655 2.55513 1.8688 2.39371 2.01062C2.23228 2.15244 2.01854 2.21962 1.80501 2.19565L1.205 2.19565L1.203 2.87566Z" transform="translate(0 0.0017547607)" id="Shape" fill="#F6D738" fill-rule="evenodd" stroke="none" />
        <path d="M0 1.5744L0 1.58841L0.827003 1.58841L0.827003 1.5744C0.817001 1.34419 0.905769 1.12065 1.07099 0.960022C1.23621 0.799377 1.46215 0.716934 1.692 0.733414C1.90473 0.713989 2.11601 0.783463 2.2757 0.925339C2.43539 1.06723 2.52925 1.26888 2.535 1.48241C2.535 1.83141 2.368 2.08241 1.694 2.77141L0.0480041 4.45241L0.0480041 5.06441L3.473 5.06441L3.473 4.31541L1.258 4.31541L1.258 4.2574L2.29 3.22241C3.127 2.3954 3.397 1.95741 3.397 1.42841C3.37427 1.01337 3.18159 0.626022 2.86428 0.357529C2.54697 0.089035 2.13307 -0.0368805 1.72 0.00941467C1.27959 -0.0310059 0.842468 0.115494 0.515358 0.413132C0.18824 0.71077 0.00123596 1.13216 0 1.5744L0 1.5744Z" transform="translate(10.109009 0)" id="Shape" fill="#F6D738" fill-rule="evenodd" stroke="none" />
        <path d="M1.285 4.93201L2.167 4.93201L2.167 0L1.289 0L0 0.900009L0 1.748L1.22701 0.887009L1.285 0.887009L1.285 4.93201Z" transform="translate(20.528015 0.13240051)" id="Shape" fill="#F6D738" fill-rule="evenodd" stroke="none" />
        <path d="M3 2L0 4L0 0L3 2Z" transform="translate(5.843994 1.0644073)" id="Shape" fill="#F6D738" fill-rule="evenodd" stroke="none" />
        <path d="M3 2L0 4L0 0L3 2Z" transform="translate(15.843994 1.0644073)" id="Shape" fill="#F6D738" fill-rule="evenodd" stroke="none" />
      </g>
    </g>
    <g id="Group" transform="translate(93 211.99997)">
      <path d="M0 0L30 0L30 9L0 9L0 0Z" transform="translate(0 3)" id="Rectangle" fill="#C89E83" fill-opacity="0.8" fill-rule="evenodd" stroke="none" />
      <path d="M0 0L30 0L30 2L0 2L0 0Z" id="Rectangle" fill="#F8DF60" fill-rule="evenodd" stroke="none" />
      <g id="Group" transform="translate(3.2650146 4.9355927)">
        <path d="M0 1.5744L0 1.58841L0.827003 1.58841L0.827003 1.5744C0.817001 1.34419 0.905769 1.12065 1.07099 0.960022C1.23621 0.799377 1.46215 0.716934 1.692 0.733414C1.90473 0.713989 2.11601 0.783463 2.2757 0.925339C2.43539 1.06723 2.52925 1.26888 2.535 1.48241C2.535 1.83141 2.368 2.08241 1.694 2.77141L0.0480041 4.45241L0.0480041 5.06441L3.473 5.06441L3.473 4.31541L1.258 4.31541L1.258 4.2574L2.29 3.22241C3.127 2.3954 3.397 1.95741 3.397 1.42841C3.37427 1.01337 3.18159 0.626022 2.86428 0.357529C2.54697 0.089035 2.13307 -0.0368805 1.72 0.00941467C1.27959 -0.0310059 0.842468 0.115494 0.515358 0.413132C0.18824 0.71077 0.00123596 1.13216 0 1.5744L0 1.5744Z" id="Shape" fill="#F6D738" fill-rule="evenodd" stroke="none" />
        <path d="M1.285 4.93201L2.167 4.93201L2.167 0L1.289 0L0 0.900009L0 1.748L1.22701 0.887009L1.285 0.887009L1.285 4.93201Z" transform="translate(10.419006 0.13240051)" id="Shape" fill="#F6D738" fill-rule="evenodd" stroke="none" />
        <path d="M1.203 2.87566L1.822 2.87566C2.43 2.87566 2.803 3.17566 2.803 3.65465C2.803 4.11966 2.403 4.44466 1.843 4.44466C1.283 4.44466 0.885002 4.15366 0.844002 3.69565L0 3.69565C0.0352249 4.14095 0.251419 4.55234 0.598183 4.83391C0.944946 5.11548 1.39196 5.2426 1.835 5.18565C2.908 5.18565 3.701 4.55666 3.701 3.70865C3.72591 3.07968 3.23969 2.54796 2.611 2.51665L2.611 2.46265C3.14852 2.35765 3.52803 1.87476 3.503 1.32765C3.503 0.572647 2.789 0.0116577 1.832 0.0116577C1.40355 -0.0412445 0.972511 0.0875397 0.643288 0.366791C0.314072 0.646057 0.116707 1.05031 0.098999 1.48166L0.923004 1.48166C0.934959 1.26292 1.03608 1.05867 1.20277 0.91655C1.36946 0.774429 1.58714 0.706879 1.805 0.72966C2.321 0.72966 2.653 1.01366 2.653 1.45065C2.64928 1.6655 2.55513 1.8688 2.39371 2.01062C2.23228 2.15244 2.01854 2.21962 1.80501 2.19565L1.205 2.19565L1.203 2.87566Z" transform="translate(19.890991 0.0017547607)" id="Shape" fill="#F6D738" fill-rule="evenodd" stroke="none" />
        <path d="M3 2L0 4L0 0L3 2Z" transform="translate(5.7349854 1.0644073)" id="Shape" fill="#F6D738" fill-rule="evenodd" stroke="none" />
        <path d="M0 2L3 0L3 4L0 2Z" transform="translate(14.734985 1.0644073)" id="Shape" fill="#F6D738" fill-rule="evenodd" stroke="none" />
      </g>
    </g>
  </g>
</svg>