<?xml version="1.0" encoding="utf-8"?>
<svg width="26px" height="22px" viewbox="0 0 26 22" version="1.1" xmlns:xlink="http://www.w3.org/1999/xlink" xmlns="http://www.w3.org/2000/svg">
  <defs>
    <linearGradient x1="0.5" y1="0" x2="0.5" y2="1" id="gradient_1">
      <stop offset="0" stop-color="#413F40" />
      <stop offset="1" stop-color="#464141" />
    </linearGradient>
    <linearGradient x1="0.5" y1="0" x2="0.5" y2="1" id="gradient_2">
      <stop offset="0" stop-color="#787477" />
      <stop offset="1" stop-color="#716B6C" />
    </linearGradient>
    <rect width="26" height="22" id="artboard_1" />
    <clipPath id="clip_1">
      <use xlink:href="#artboard_1" clip-rule="evenodd" />
    </clipPath>
  </defs>
  <g id="hover00172" clip-path="url(#clip_1)">
    <g id="Group" transform="translate(-3.0517578E-05 10.900986)">
      <g id="Group" transform="translate(0.25 0.25)">
        <path d="M0 2L0 1C0 0.723858 0.0976311 0.488155 0.292893 0.292893C0.488155 0.0976311 0.723858 0 1 0L24 0C24.2761 0 24.5118 0.0976311 24.7071 0.292893C24.9024 0.488155 25 0.723858 25 1L25 9C25 9.27614 24.9024 9.51184 24.7071 9.70711C24.5118 9.90237 24.2761 10 24 10L1 10C0.723858 10 0.488155 9.90237 0.292893 9.70711C0.0976311 9.51184 0 9.27614 0 9L0 2Z" transform="translate(0.25 0.25)" id="Rectangle" fill="url(#gradient_1)" fill-rule="evenodd" stroke="none" />
        <path d="M0 2.5L0 1.25C0 0.904822 0.122039 0.610194 0.366116 0.366116C0.610194 0.122039 0.904822 0 1.25 0L24.25 0C24.5952 0 24.8898 0.122039 25.1339 0.366116C25.378 0.610194 25.5 0.904822 25.5 1.25L25.5 9.25C25.5 9.59518 25.378 9.88981 25.1339 10.1339C24.8898 10.378 24.5952 10.5 24.25 10.5L1.25 10.5C0.904822 10.5 0.610194 10.378 0.366116 10.1339C0.122039 9.88981 0 9.59518 0 9.25L0 2.5Z" id="Rectangle" fill="none" fill-rule="evenodd" stroke="#4E4752" stroke-width="0.5" />
      </g>
      <path d="M24.5 1.979L1.5 1.979C0.671573 1.979 0 1.30743 0 0.479L0 0.066C0.0415417 0.863817 0.701101 1.48908 1.5 1.488L24.5 1.488C25.3238 1.48803 25.9934 0.823738 26 0L26 0.479C26 1.30743 25.3284 1.979 24.5 1.979L24.5 1.979Z" transform="translate(0 9.020996)" id="Shape" fill="#000000" fill-opacity="0.4" fill-rule="evenodd" stroke="none" />
      <path d="M26 1.992L26 1.992C25.9956 1.16669 25.3253 0.499985 24.5 0.5L1.5 0.5C0.701102 0.498919 0.0415421 1.12418 0 1.922L0 1.5C1.19209e-07 0.671573 0.671573 0 1.5 0L24.5 0C25.3284 0 26 0.671573 26 1.5L26 1.992Z" id="Shape" fill="#FFFFFF" fill-opacity="0.1" fill-rule="evenodd" stroke="none" />
      <path d="M0 2L0 1C0 0.723858 0.0976311 0.488155 0.292893 0.292893C0.488155 0.0976311 0.723858 0 1 0L24 0C24.2761 0 24.5118 0.0976311 24.7071 0.292893C24.9024 0.488155 25 0.723858 25 1L25 9C25 9.27614 24.9024 9.51184 24.7071 9.70711C24.5118 9.90237 24.2761 10 24 10L1 10C0.723858 10 0.488155 9.90237 0.292893 9.70711C0.0976311 9.51184 0 9.27614 0 9L0 2Z" transform="translate(0.5 0.49900055)" id="Rectangle" fill="#FFFFFF" fill-opacity="0.1" fill-rule="evenodd" stroke="none" />
      <path d="M0 5.641L4.168 5.641L4.168 5.008L0.925 5.008L0.925 4.941L4.101 0.5L4.101 0L0.109 0L0.109 0.641L3.191 0.641L3.191 0.704L0 5.141L0 5.641ZM6.977 5.715C7.53872 5.72771 8.0777 5.49322 8.45133 5.07359C8.82495 4.65396 8.99556 4.09148 8.918 3.535C8.99628 2.97838 8.82593 2.41549 8.45214 1.99568C8.07836 1.57588 7.53894 1.34159 6.977 1.355C6.41417 1.34035 5.87344 1.57425 5.49871 1.99444C5.12398 2.41464 4.95327 2.97851 5.032 3.536C4.95467 4.09285 5.1258 4.65557 5.50007 5.07508C5.87434 5.49459 6.41397 5.72856 6.976 5.715L6.977 5.715ZM6.977 5.11C6.177 5.11 5.731 4.532 5.731 3.536C5.731 2.54 6.179 1.961 6.976 1.961C7.773 1.961 8.222 2.535 8.222 3.535C8.222 4.535 7.773 5.11 6.976 5.11L6.977 5.11ZM11.703 5.715C12.2647 5.72771 12.8037 5.49322 13.1773 5.07359C13.551 4.65396 13.7216 4.09148 13.644 3.535C13.7223 2.97838 13.5519 2.41549 13.1781 1.99568C12.8044 1.57588 12.2649 1.34159 11.703 1.355C11.1407 1.34125 10.6008 1.57553 10.2267 1.99562C9.8527 2.4157 9.68237 2.97904 9.761 3.536C9.68373 4.0925 9.85461 4.65487 10.2284 5.0743C10.6022 5.49374 11.1413 5.72796 11.703 5.715L11.703 5.715ZM11.703 5.11C10.903 5.11 10.457 4.532 10.457 3.536C10.457 2.54 10.906 1.961 11.703 1.961C12.5 1.961 12.949 2.535 12.949 3.535C12.949 4.535 12.5 5.11 11.703 5.11L11.703 5.11ZM14.703 5.641L15.375 5.641L15.375 3.032C15.3609 2.7601 15.4563 2.49387 15.6399 2.29281C15.8235 2.09174 16.0799 1.9726 16.352 1.962C16.581 1.93917 16.8088 2.01608 16.9771 2.17308C17.1454 2.33007 17.2379 2.55195 17.231 2.782L17.231 5.641L17.903 5.641L17.903 2.934C17.8957 2.67308 17.9964 2.42071 18.1814 2.23651C18.3663 2.05232 18.6191 1.95263 18.88 1.961C19.474 1.961 19.767 2.261 19.767 2.887L19.767 5.641L20.432 5.641L20.432 2.731C20.4786 2.36026 20.3538 1.9885 20.093 1.7209C19.8322 1.45331 19.4638 1.31901 19.092 1.356C18.5571 1.33741 18.0578 1.62329 17.803 2.094L17.742 2.094C17.5443 1.63064 17.0814 1.33714 16.578 1.356C16.0683 1.32445 15.5953 1.62133 15.402 2.094L15.339 2.094L15.339 1.43L14.699 1.43L14.703 5.641Z" transform="translate(2.7680054 2.8590012)" id="Shape" fill="#FCE237" fill-rule="evenodd" stroke="none" />
    </g>
    <g id="Group" transform="translate(-3.0517578E-05 0.03288269)">
      <g id="Group" transform="translate(0.25 0.24900055)">
        <path d="M0 2L0 1C0 0.723858 0.0976311 0.488155 0.292893 0.292893C0.488155 0.0976311 0.723858 0 1 0L24 0C24.2761 0 24.5118 0.0976311 24.7071 0.292893C24.9024 0.488155 25 0.723858 25 1L25 9C25 9.27614 24.9024 9.51184 24.7071 9.70711C24.5118 9.90237 24.2761 10 24 10L1 10C0.723858 10 0.488155 9.90237 0.292893 9.70711C0.0976311 9.51184 0 9.27614 0 9L0 2Z" transform="translate(0.25 0.25)" id="Rectangle" fill="url(#gradient_2)" fill-rule="evenodd" stroke="none" />
        <path d="M0 2.5L0 1.25C0 0.904822 0.122039 0.610194 0.366116 0.366116C0.610194 0.122039 0.904822 0 1.25 0L24.25 0C24.5952 0 24.8898 0.122039 25.1339 0.366116C25.378 0.610194 25.5 0.904822 25.5 1.25L25.5 9.25C25.5 9.59518 25.378 9.88981 25.1339 10.1339C24.8898 10.378 24.5952 10.5 24.25 10.5L1.25 10.5C0.904822 10.5 0.610194 10.378 0.366116 10.1339C0.122039 9.88981 0 9.59518 0 9.25L0 2.5Z" id="Rectangle" fill="none" fill-rule="evenodd" stroke="#4E4752" stroke-width="0.5" />
      </g>
      <path d="M24.5 1.979L1.5 1.979C0.671573 1.979 0 1.30743 0 0.479L0 0.066C0.0415417 0.863817 0.701101 1.48908 1.5 1.488L24.5 1.488C25.3238 1.48803 25.9934 0.823738 26 0L26 0.479C26 1.30743 25.3284 1.979 24.5 1.979L24.5 1.979Z" transform="translate(0 9.020996)" id="Shape" fill="#000000" fill-opacity="0.4" fill-rule="evenodd" stroke="none" />
      <path d="M26 1.992L26 1.992C25.9956 1.16669 25.3253 0.499985 24.5 0.5L1.5 0.5C0.701102 0.498919 0.0415421 1.12418 0 1.922L0 1.5C1.19209e-07 0.671573 0.671573 0 1.5 0L24.5 0C25.3284 0 26 0.671573 26 1.5L26 1.992Z" id="Shape" fill="#FFFFFF" fill-opacity="0.4" fill-rule="evenodd" stroke="none" />
      <path d="M0 2L0 1C0 0.723858 0.0976311 0.488155 0.292893 0.292893C0.488155 0.0976311 0.723858 0 1 0L24 0C24.2761 0 24.5118 0.0976311 24.7071 0.292893C24.9024 0.488155 25 0.723858 25 1L25 9C25 9.27614 24.9024 9.51184 24.7071 9.70711C24.5118 9.90237 24.2761 10 24 10L1 10C0.723858 10 0.488155 9.90237 0.292893 9.70711C0.0976311 9.51184 0 9.27614 0 9L0 2Z" transform="translate(0.5 0.49900055)" id="Rectangle" fill="#FFFFFF" fill-opacity="0.2" fill-rule="evenodd" stroke="none" />
      <path d="M0 5.641L4.168 5.641L4.168 5.008L0.925 5.008L0.925 4.941L4.101 0.5L4.101 0L0.109 0L0.109 0.641L3.191 0.641L3.191 0.704L0 5.141L0 5.641ZM6.977 5.715C7.53872 5.72771 8.0777 5.49322 8.45133 5.07359C8.82495 4.65396 8.99556 4.09148 8.918 3.535C8.99628 2.97838 8.82593 2.41549 8.45214 1.99568C8.07836 1.57588 7.53894 1.34159 6.977 1.355C6.41417 1.34035 5.87344 1.57425 5.49871 1.99444C5.12398 2.41464 4.95327 2.97851 5.032 3.536C4.95467 4.09285 5.1258 4.65557 5.50007 5.07508C5.87434 5.49459 6.41397 5.72856 6.976 5.715L6.977 5.715ZM6.977 5.11C6.177 5.11 5.731 4.532 5.731 3.536C5.731 2.54 6.179 1.961 6.976 1.961C7.773 1.961 8.222 2.535 8.222 3.535C8.222 4.535 7.773 5.11 6.976 5.11L6.977 5.11ZM11.703 5.715C12.2647 5.72771 12.8037 5.49322 13.1773 5.07359C13.551 4.65396 13.7216 4.09148 13.644 3.535C13.7223 2.97838 13.5519 2.41549 13.1781 1.99568C12.8044 1.57588 12.2649 1.34159 11.703 1.355C11.1407 1.34125 10.6008 1.57553 10.2267 1.99562C9.8527 2.4157 9.68237 2.97904 9.761 3.536C9.68373 4.0925 9.85461 4.65487 10.2284 5.0743C10.6022 5.49374 11.1413 5.72796 11.703 5.715L11.703 5.715ZM11.703 5.11C10.903 5.11 10.457 4.532 10.457 3.536C10.457 2.54 10.906 1.961 11.703 1.961C12.5 1.961 12.949 2.535 12.949 3.535C12.949 4.535 12.5 5.11 11.703 5.11L11.703 5.11ZM14.703 5.641L15.375 5.641L15.375 3.032C15.3609 2.7601 15.4563 2.49387 15.6399 2.29281C15.8235 2.09174 16.0799 1.9726 16.352 1.962C16.581 1.93917 16.8088 2.01608 16.9771 2.17308C17.1454 2.33007 17.2379 2.55195 17.231 2.782L17.231 5.641L17.903 5.641L17.903 2.934C17.8957 2.67308 17.9964 2.42071 18.1814 2.23651C18.3663 2.05232 18.6191 1.95263 18.88 1.961C19.474 1.961 19.767 2.261 19.767 2.887L19.767 5.641L20.432 5.641L20.432 2.731C20.4786 2.36026 20.3538 1.9885 20.093 1.7209C19.8322 1.45331 19.4638 1.31901 19.092 1.356C18.5571 1.33741 18.0578 1.62329 17.803 2.094L17.742 2.094C17.5443 1.63064 17.0814 1.33714 16.578 1.356C16.0683 1.32445 15.5953 1.62133 15.402 2.094L15.339 2.094L15.339 1.43L14.699 1.43L14.703 5.641Z" transform="translate(2.7680054 2.8590012)" id="Shape" fill="#E4DCD9" fill-rule="evenodd" stroke="none" />
    </g>
  </g>
</svg>