<?xml version="1.0" encoding="utf-8"?>
<svg width="151px" height="512px" viewBox="0 0 151 512" version="1.1" xmlns:xlink="http://www.w3.org/1999/xlink" xmlns="http://www.w3.org/2000/svg">
  <defs>
    <rect width="151" height="512" id="artboard_1" />
    <clipPath id="clip_1">
      <use xlink:href="#artboard_1" clip-rule="evenodd" />
    </clipPath>
  </defs>
  <g id="hoverOn00112" clip-path="url(#clip_1)">
    <path d="M-3.05176e-05 54L18 54L18 63L-3.05176e-05 63L-3.05176e-05 54L-3.05176e-05 54Z" id="Rectangle" fill="#C89E83" fill-opacity="0.8" fill-rule="evenodd" stroke="none" />
    <path d="M-3.05176e-05 51L18 51L18 53L-3.05176e-05 53L-3.05176e-05 51L-3.05176e-05 51Z" id="Rectangle#1" fill="#F8DF60" fill-rule="evenodd" stroke="none" />
    <path d="M19 118L37 118L37 127L19 127L19 118L19 118Z" id="Rectangle#2" fill="#C89E83" fill-opacity="0.8" fill-rule="evenodd" stroke="none" />
    <path d="M19 115L37 115L37 117L19 117L19 115L19 115Z" id="Rectangle#3" fill="#F8DF60" fill-rule="evenodd" stroke="none" />
    <path d="M38 182L56 182L56 191L38 191L38 182L38 182Z" id="Rectangle#4" fill="#C89E83" fill-opacity="0.8" fill-rule="evenodd" stroke="none" />
    <path d="M38 179L56 179L56 181L38 181L38 179L38 179Z" id="Rectangle#5" fill="#F8DF60" fill-rule="evenodd" stroke="none" />
    <path d="M57 246L75 246L75 255L57 255L57 246L57 246Z" id="Rectangle#6" fill="#C89E83" fill-opacity="0.8" fill-rule="evenodd" stroke="none" />
    <path d="M57 243L75 243L75 245L57 245L57 243L57 243Z" id="Rectangle#7" fill="#F8DF60" fill-rule="evenodd" stroke="none" />
    <path d="M76 310L94 310L94 319L76 319L76 310L76 310Z" id="Rectangle#8" fill="#C89E83" fill-opacity="0.8" fill-rule="evenodd" stroke="none" />
    <path d="M76 307L94 307L94 309L76 309L76 307L76 307Z" id="Rectangle#9" fill="#F8DF60" fill-rule="evenodd" stroke="none" />
    <path d="M95 374L113 374L113 383L95 383L95 374L95 374Z" id="Rectangle#10" fill="#C89E83" fill-opacity="0.8" fill-rule="evenodd" stroke="none" />
    <path d="M95 371L113 371L113 373L95 373L95 371L95 371Z" id="Rectangle#11" fill="#F8DF60" fill-rule="evenodd" stroke="none" />
    <path d="M114 438L132 438L132 447L114 447L114 438L114 438Z" id="Rectangle#12" fill="#C89E83" fill-opacity="0.8" fill-rule="evenodd" stroke="none" />
    <path d="M114 435L132 435L132 437L114 437L114 435L114 435Z" id="Rectangle#13" fill="#F8DF60" fill-rule="evenodd" stroke="none" />
    <path d="M133 502L151 502L151 511L133 511L133 502L133 502Z" id="Rectangle#14" fill="#C89E83" fill-opacity="0.8" fill-rule="evenodd" stroke="none" />
    <path d="M133 499L151 499L151 501L133 501L133 499L133 499Z" id="Rectangle#15" fill="#F8DF60" fill-rule="evenodd" stroke="none" />
    <path d="M116.289 440.8L117.289 440.8C117.523 440.77 117.757 440.845 117.931 441.005C118.104 441.164 118.199 441.392 118.189 441.627C118.205 441.861 118.115 442.089 117.944 442.249C117.773 442.409 117.539 442.483 117.307 442.451L116.289 442.451L116.289 440.8L116.289 440.8ZM116.289 443.152L117.267 443.152L118.234 445L119.242 445L118.166 443.014C118.746 442.798 119.122 442.233 119.096 441.614C119.113 441.174 118.936 440.748 118.611 440.451C118.286 440.153 117.847 440.013 117.41 440.068L115.41 440.068L115.41 445L116.292 445L116.289 443.152L116.289 443.152ZM120.812 445L120.812 440.068L119.812 440.068L119.812 445L120.812 445L120.812 445ZM122.411 445L122.411 441.644L122.47 441.644L124.889 445L125.651 445L125.651 440.068L124.8 440.068L124.8 443.421L124.746 443.421L122.326 440.068L121.56 440.068L121.56 445L122.411 445L122.411 445ZM130.788 443.024L130.788 442.405L128.74 442.405L128.74 443.095L129.926 443.095L129.926 443.195C129.921 443.521 129.78 443.831 129.536 444.048C129.293 444.265 128.969 444.37 128.644 444.337C127.766 444.337 127.215 443.647 127.215 442.525C127.215 441.403 127.755 440.731 128.615 440.731C129.185 440.688 129.708 441.051 129.868 441.6L130.746 441.6C130.571 440.581 129.648 439.863 128.617 439.945C127.954 439.94 127.321 440.221 126.88 440.717C126.439 441.212 126.234 441.874 126.317 442.532C126.228 443.194 126.432 443.862 126.877 444.36C127.322 444.859 127.963 445.137 128.631 445.123C129.207 445.173 129.776 444.97 130.19 444.567C130.604 444.164 130.822 443.601 130.788 443.024L130.788 443.024L130.788 443.024Z" id="Shape" fill="#F6D738" fill-rule="evenodd" stroke="none" />
    <path d="M144.741 508.9L144.741 507L139.741 507L139.741 508.9C139.741 509.096 139.626 509.275 139.448 509.356C139.269 509.437 139.059 509.406 138.911 509.276L136.17 506.876C136.062 506.781 135.999 506.644 135.999 506.499C135.999 506.355 136.062 506.218 136.17 506.123L138.911 503.723C139.059 503.593 139.269 503.562 139.448 503.643C139.626 503.724 139.741 503.902 139.741 504.099L139.741 505.999L144.741 505.999L144.741 504.099C144.741 503.903 144.856 503.725 145.035 503.644C145.213 503.563 145.423 503.594 145.57 503.723L148.312 506.123C148.42 506.218 148.482 506.355 148.482 506.499C148.482 506.644 148.42 506.781 148.312 506.876L145.57 509.276C145.48 509.356 145.364 509.401 145.244 509.401C145.111 509.402 144.983 509.349 144.888 509.255C144.794 509.161 144.741 509.033 144.741 508.9L144.741 508.9L144.741 508.9Z" id="Shape#1" fill="#F6D738" fill-rule="evenodd" stroke="none" />
    <path d="M80.235 312.068L80.235 317L82.084 317C82.7418 317.044 83.3844 316.789 83.8336 316.307C84.2828 315.824 84.4908 315.165 84.4 314.512C84.4817 313.865 84.2689 313.215 83.8203 312.742C83.3717 312.269 82.7345 312.021 82.084 312.068L80.235 312.068L80.235 312.068ZM81.117 312.83L81.968 312.83C82.4116 312.808 82.8418 312.986 83.1398 313.316C83.4378 313.645 83.5722 314.091 83.506 314.53C83.506 315.63 82.949 316.242 81.968 316.242L81.117 316.242L81.117 312.83L81.117 312.83ZM86.436 313.51L86.436 313.524L87.263 313.524L87.263 313.51C87.253 313.28 87.3417 313.056 87.507 312.896C87.6722 312.735 87.8981 312.653 88.128 312.669C88.3404 312.65 88.5511 312.72 88.7104 312.862C88.8696 313.004 88.9632 313.205 88.969 313.418C88.969 313.767 88.802 314.018 88.128 314.707L86.484 316.388L86.484 317L89.909 317L89.909 316.251L87.694 316.251L87.694 316.193L88.726 315.158C89.563 314.331 89.833 313.893 89.833 313.364C89.8103 312.949 89.6174 312.561 89.2999 312.293C88.9824 312.024 88.5682 311.898 88.155 311.945C87.7147 311.905 87.2779 312.052 86.951 312.349C86.6241 312.647 86.4372 313.068 86.436 313.51L86.436 313.51L86.436 313.51Z" id="Shape#2" fill="#F6D738" fill-rule="evenodd" stroke="none" />
    <path d="M102.224 380.228L99.961 380.228L99.961 376.068L99.079 376.068L99.079 381L102.224 381L102.224 380.228L102.224 380.228ZM104.567 379.611L104.567 378.611L102.322 378.611L102.322 379.611L104.567 379.611L104.567 379.611ZM106.265 376.8L107.265 376.8C107.499 376.77 107.734 376.845 107.907 377.005C108.08 377.164 108.175 377.392 108.165 377.627C108.181 377.861 108.091 378.089 107.92 378.249C107.749 378.409 107.515 378.483 107.283 378.451L106.265 378.451L106.265 376.8L106.265 376.8ZM106.265 379.152L107.243 379.152L108.21 381L109.218 381L108.141 379.014C108.721 378.798 109.097 378.233 109.071 377.614C109.088 377.174 108.911 376.749 108.586 376.451C108.262 376.153 107.823 376.013 107.386 376.068L105.386 376.068L105.386 381L106.268 381L106.265 379.152L106.265 379.152Z" id="Shape#3" fill="#F6D738" fill-rule="evenodd" stroke="none" />
    <path d="M42.2 187.66C42.2439 188.56 42.993 189.123 44.124 189.123C45.324 189.123 46.062 188.523 46.062 187.564C46.062 186.812 45.642 186.395 44.6399 186.169L44.073 186.039C43.461 185.899 43.212 185.704 43.212 185.372C43.212 184.952 43.588 184.678 44.155 184.678C44.6178 184.62 45.0472 184.929 45.139 185.386L45.983 185.386C45.9329 184.952 45.7119 184.556 45.369 184.286C45.0261 184.015 44.5895 183.893 44.156 183.945C43.056 183.945 42.3209 184.54 42.3209 185.435C42.3209 186.17 42.741 186.614 43.637 186.816L44.276 186.963C44.908 187.11 45.176 187.318 45.176 187.674C45.176 188.088 44.756 188.385 44.176 188.385C43.551 188.385 43.1129 188.101 43.0579 187.66L42.2 187.66L42.2 187.66ZM49.2589 186.812L49.8779 186.812C50.4859 186.812 50.8589 187.112 50.8589 187.591C50.8589 188.056 50.4589 188.381 49.8989 188.381C49.3389 188.381 48.9379 188.091 48.8999 187.633L48.0559 187.633C48.0912 188.078 48.3071 188.489 48.6534 188.77C48.9997 189.052 49.4462 189.179 49.8889 189.123C50.9619 189.123 51.7549 188.494 51.7549 187.646C51.7804 187.017 51.294 186.484 50.6649 186.453L50.6649 186.4C51.2025 186.295 51.582 185.812 51.5569 185.265C51.5569 184.51 50.8429 183.949 49.8859 183.949C49.4575 183.896 49.0265 184.025 48.6972 184.304C48.368 184.583 48.1706 184.988 48.1529 185.419L48.9769 185.419C48.9889 185.2 49.09 184.996 49.2567 184.854C49.4234 184.712 49.6411 184.644 49.8589 184.667C50.3749 184.667 50.7069 184.951 50.7069 185.388C50.7032 185.603 50.6091 185.806 50.4476 185.948C50.2862 186.09 50.0725 186.157 49.8589 186.133L49.2589 186.133L49.2589 186.812L49.2589 186.812Z" id="Shape#4" fill="#F6D738" fill-rule="evenodd" stroke="none" />
    <path d="M61.7 248.068L61.7 253L63.549 253C64.2078 253.046 64.8521 252.792 65.3027 252.309C65.7533 251.826 65.9621 251.166 65.8709 250.512C65.9528 249.864 65.7396 249.214 65.29 248.74C64.8405 248.267 64.2021 248.02 63.551 248.068L61.7 248.068L61.7 248.068ZM62.5819 248.83L63.4329 248.83C63.8766 248.808 64.3067 248.986 64.6047 249.316C64.9028 249.645 65.0372 250.091 64.9709 250.53C64.9709 251.63 64.4139 252.242 63.4329 252.242L62.5819 252.242L62.5819 248.83L62.5819 248.83ZM69.1399 253L70.0219 253L70.0219 248.068L69.1429 248.068L67.8539 248.968L67.8539 249.816L69.0809 248.955L69.1399 248.955L69.1399 253L69.1399 253Z" id="Shape#5" fill="#F6D738" fill-rule="evenodd" stroke="none" />
    <path d="M4.74896 59.66C4.79296 60.56 5.54196 61.123 6.67296 61.123C7.87296 61.123 8.61096 60.523 8.61096 59.564C8.61096 58.812 8.19096 58.395 7.18896 58.169L6.62196 58.039C6.00996 57.899 5.76096 57.704 5.76096 57.372C5.76096 56.952 6.13696 56.678 6.70396 56.678C7.16683 56.6196 7.59622 56.9286 7.68796 57.386L8.53196 57.386C8.48186 56.9527 8.26133 56.5572 7.91909 56.2869C7.57686 56.0165 7.14106 55.8935 6.70796 55.945C5.60796 55.945 4.87296 56.54 4.87296 57.435C4.87296 58.17 5.29296 58.614 6.18896 58.816L6.82796 58.963C7.45996 59.11 7.72796 59.318 7.72796 59.674C7.72796 60.088 7.30796 60.385 6.72796 60.385C6.09996 60.385 5.66496 60.1 5.61096 59.66L4.74896 59.66L4.74896 59.66ZM11.866 61L12.748 61L12.748 56.068L11.87 56.068L10.581 56.968L10.581 57.816L11.808 56.955L11.866 56.955L11.866 61L11.866 61Z" id="Shape#6" fill="#F6D738" fill-rule="evenodd" stroke="none" />
    <path d="M23.283 123.66C23.327 124.56 24.076 125.123 25.207 125.123C26.407 125.123 27.145 124.523 27.145 123.564C27.145 122.812 26.725 122.395 25.723 122.169L25.156 122.039C24.544 121.899 24.295 121.704 24.295 121.372C24.295 120.952 24.671 120.678 25.238 120.678C25.7008 120.62 26.1302 120.929 26.222 121.386L27.066 121.386C27.0159 120.953 26.7952 120.557 26.4527 120.286C26.1103 120.016 25.6742 119.893 25.241 119.945C24.141 119.945 23.406 120.54 23.406 121.435C23.406 122.17 23.826 122.614 24.722 122.816L25.361 122.963C25.993 123.11 26.261 123.318 26.261 123.674C26.261 124.088 25.841 124.385 25.261 124.385C24.636 124.385 24.2 124.1 24.144 123.66L23.283 123.66L23.283 123.66ZM29.163 121.51L29.163 121.524L29.99 121.524L29.99 121.51C29.98 121.28 30.0687 121.056 30.2339 120.896C30.3992 120.735 30.6251 120.653 30.855 120.669C31.0674 120.65 31.2781 120.72 31.4373 120.862C31.5966 121.004 31.6902 121.205 31.696 121.418C31.696 121.767 31.529 122.018 30.855 122.707L29.21 124.388L29.21 125L32.635 125L32.635 124.251L30.42 124.251L30.42 124.193L31.452 123.158C32.29 122.331 32.56 121.893 32.56 121.363C32.537 120.948 32.344 120.561 32.0266 120.292C31.709 120.024 31.295 119.898 30.882 119.945C30.4415 119.905 30.0044 120.051 29.6773 120.349C29.3502 120.646 29.1632 121.068 29.162 121.51L29.163 121.51L29.163 121.51Z" id="Shape#7" fill="#F6D738" fill-rule="evenodd" stroke="none" />
  </g>
</svg>