<?xml version="1.0" encoding="utf-8"?>
<svg width="13px" height="26px" viewbox="0 0 13 26" version="1.1" xmlns:xlink="http://www.w3.org/1999/xlink" xmlns="http://www.w3.org/2000/svg">
  <defs>
    <linearGradient x1="0.5" y1="0" x2="0.5" y2="1" id="gradient_1">
      <stop offset="0" stop-color="#413F40" />
      <stop offset="1" stop-color="#464141" />
    </linearGradient>
    <linearGradient x1="0.5" y1="0" x2="0.5" y2="1" id="gradient_2">
      <stop offset="0" stop-color="#787477" />
      <stop offset="1" stop-color="#716B6C" />
    </linearGradient>
    <rect width="13" height="26" id="artboard_1" />
    <clipPath id="clip_1">
      <use xlink:href="#artboard_1" clip-rule="evenodd" />
    </clipPath>
  </defs>
  <g id="hover00121" clip-path="url(#clip_1)">
    <g id="Group" transform="translate(0 12.999023)">
      <g id="Group" transform="translate(0.25 0.25100708)">
        <path d="M0 2L0 1C0 0.723858 0.0976311 0.488155 0.292893 0.292893C0.488155 0.0976311 0.723858 0 1 0L11 0C11.2761 0 11.5118 0.0976311 11.7071 0.292893C11.9024 0.488155 12 0.723858 12 1L12 11C12 11.2761 11.9024 11.5118 11.7071 11.7071C11.5118 11.9024 11.2761 12 11 12L1 12C0.723858 12 0.488155 11.9024 0.292893 11.7071C0.0976311 11.5118 0 11.2761 0 11L0 2Z" transform="translate(0.25 0.25)" id="Rectangle" fill="url(#gradient_1)" fill-rule="evenodd" stroke="none" />
        <path d="M0 2.5L0 1.25C0 0.904822 0.122039 0.610194 0.366116 0.366116C0.610194 0.122039 0.904822 0 1.25 0L11.25 0C11.5952 0 11.8898 0.122039 12.1339 0.366116C12.378 0.610194 12.5 0.904822 12.5 1.25L12.5 11.25C12.5 11.5952 12.378 11.8898 12.1339 12.1339C11.8898 12.378 11.5952 12.5 11.25 12.5L1.25 12.5C0.904822 12.5 0.610194 12.378 0.366116 12.1339C0.122039 11.8898 0 11.5952 0 11.25L0 2.5Z" id="Rectangle" fill="none" fill-rule="evenodd" stroke="#4E4752" stroke-width="0.5" />
      </g>
      <path d="M11.5 1.992L1.5 1.992C0.671573 1.992 0 1.32043 0 0.492001L0 0.0699997C0.0415417 0.867817 0.701101 1.49308 1.5 1.492L11.5 1.492C12.3253 1.49201 12.9956 0.825302 13 0L13 0.487C13.0013 0.885696 12.8439 1.26851 12.5624 1.5509C12.281 1.83328 11.8987 1.992 11.5 1.992L11.5 1.992Z" transform="translate(0 11.007996)" id="Shape" fill="#000000" fill-opacity="0.5" fill-rule="evenodd" stroke="none" />
      <path d="M13 1.993L13 1.993C12.9961 1.16728 12.3257 0.499977 11.5 0.5L1.5 0.5C0.700735 0.498946 0.0410284 1.12479 0 1.923L1.19209e-07 1.5C2.38419e-07 0.671573 0.671573 0 1.5 0L11.5 0C12.3284 0 13 0.671573 13 1.5L13 1.993Z" id="Shape" fill="#FFFFFF" fill-opacity="0.1" fill-rule="evenodd" stroke="none" />
      <path d="M0 2L0 1C0 0.723858 0.0976311 0.488155 0.292893 0.292893C0.488155 0.0976311 0.723858 0 1 0L11 0C11.2761 0 11.5118 0.0976311 11.7071 0.292893C11.9024 0.488155 12 0.723858 12 1L12 11C12 11.2761 11.9024 11.5118 11.7071 11.7071C11.5118 11.9024 11.2761 12 11 12L1 12C0.723858 12 0.488155 11.9024 0.292893 11.7071C0.0976311 11.5118 0 11.2761 0 11L0 2Z" transform="translate(0.5 0.5010071)" id="Rectangle" fill="#FFFFFF" fill-opacity="0.1" fill-rule="evenodd" stroke="none" />
      <path d="M3.89 7L3.048 7L3.048 3.809L0 3.809L0 3.084L3.048 3.084L3.048 0L3.89 0L3.89 3.084L7 3.084L7 3.809L3.89 3.809L3.89 7L3.89 7Z" transform="translate(3 3)" id="Shape" fill="#FCE237" fill-rule="evenodd" stroke="none" />
    </g>
    <g id="Group" transform="translate(0 3.0517578E-05)">
      <g id="Group" transform="translate(0.25 0.25099945)">
        <path d="M0 2L0 1C0 0.723858 0.0976311 0.488155 0.292893 0.292893C0.488155 0.0976311 0.723858 0 1 0L10.999 0C11.2751 0 11.5108 0.0976311 11.7061 0.292893C11.9014 0.488155 11.999 0.723858 11.999 1L11.999 10.993C11.999 11.2691 11.9014 11.5048 11.7061 11.7001C11.5108 11.8954 11.2751 11.993 10.999 11.993L1 11.993C0.723858 11.993 0.488155 11.8954 0.292893 11.7001C0.0976311 11.5048 0 11.2691 0 10.993L0 2Z" transform="translate(0.25 0.25)" id="Rectangle" fill="url(#gradient_2)" fill-rule="evenodd" stroke="none" />
        <path d="M0 2.5L0 1.25C0 0.904822 0.122039 0.610194 0.366117 0.366117C0.610194 0.122039 0.904822 0 1.25 0L11.249 0C11.5942 0 11.8888 0.122039 12.1329 0.366117C12.377 0.610194 12.499 0.904822 12.499 1.25L12.499 11.243C12.499 11.5882 12.377 11.8828 12.1329 12.1269C11.8888 12.371 11.5942 12.493 11.249 12.493L1.25 12.493C0.904822 12.493 0.610194 12.371 0.366117 12.1269C0.122039 11.8828 0 11.5882 0 11.243L0 2.5Z" id="Rectangle" fill="none" fill-rule="evenodd" stroke="#4E4752" stroke-width="0.5" />
      </g>
      <path d="M11.5 1.986L1.5 1.986C0.671573 1.986 0 1.31443 0 0.486L0 0.0650005C0.0410285 0.863213 0.700735 1.48905 1.5 1.488L11.5 1.488C12.3238 1.48803 12.9934 0.823736 13 0L13 0.486C13 1.31443 12.3284 1.986 11.5 1.986L11.5 1.986Z" transform="translate(0.0010070801 11.0130005)" id="Shape" fill="#000000" fill-opacity="0.4" fill-rule="evenodd" stroke="none" />
      <path d="M13 1.993L13 1.993C12.9961 1.16728 12.3257 0.499977 11.5 0.5L1.5 0.5C0.700735 0.498946 0.0410284 1.12479 0 1.923L1.19209e-07 1.5C2.38419e-07 0.671573 0.671573 0 1.5 0L11.5 0C12.3284 0 13 0.671573 13 1.5L13 1.993Z" id="Shape" fill="#FFFFFF" fill-opacity="0.4" fill-rule="evenodd" stroke="none" />
      <path d="M0 2L0 1C0 0.723858 0.0976311 0.488155 0.292893 0.292893C0.488155 0.0976311 0.723858 0 1 0L10.999 0C11.2751 0 11.5108 0.0976311 11.7061 0.292893C11.9014 0.488155 11.999 0.723858 11.999 1L11.999 10.993C11.999 11.2691 11.9014 11.5048 11.7061 11.7001C11.5108 11.8954 11.2751 11.993 10.999 11.993L1 11.993C0.723858 11.993 0.488155 11.8954 0.292893 11.7001C0.0976311 11.5048 0 11.2691 0 10.993L0 2Z" transform="translate(0.5 0.50099945)" id="Rectangle" fill="#FFFFFF" fill-opacity="0.2" fill-rule="evenodd" stroke="none" />
      <path d="M3.89 7L3.048 7L3.048 3.809L0 3.809L0 3.084L3.048 3.084L3.048 0L3.89 0L3.89 3.084L7 3.084L7 3.809L3.89 3.809L3.89 7L3.89 7Z" transform="translate(3 3)" id="Shape" fill="#E2D6D1" fill-rule="evenodd" stroke="none" />
    </g>
  </g>
</svg>