<?xml version="1.0" encoding="utf-8"?>
<svg width="49px" height="234px" viewbox="0 0 49 234" version="1.1" xmlns:xlink="http://www.w3.org/1999/xlink" xmlns="http://www.w3.org/2000/svg">
  <defs>
    <linearGradient x1="10.836073" y1="13.985309" x2="11.046721" y2="0.22037914" id="gradient_1">
      <stop offset="0" stop-color="#FFFFFF" stop-opacity="0.19215687" />
      <stop offset="1" stop-color="#000000" stop-opacity="0" />
    </linearGradient>
    <linearGradient x1="0.24374448" y1="-0.025118485" x2="0.24264441" y2="0.9988693" id="gradient_2">
      <stop offset="0" stop-color="#372E2C" />
      <stop offset="0.176" stop-color="#5B4A45" />
      <stop offset="1" stop-color="#5B4A44" />
    </linearGradient>
    <rect width="49" height="234" id="artboard_1" />
    <clipPath id="clip_1">
      <use xlink:href="#artboard_1" clip-rule="evenodd" />
    </clipPath>
  </defs>
  <g id="bmp00119" clip-path="url(#clip_1)">
    <g id="FM4" transform="translate(0.73 218)">
      <path d="M0 3.61311L0 1.80655C0 1.30768 0.138375 0.881882 0.415123 0.529129C0.691871 0.176376 1.02594 0 1.41731 0L46.3832 0C46.7736 0 47.1085 0.176376 47.3849 0.529129C47.6613 0.881882 47.8 1.30769 47.8 1.80655L47.8 12.7476C47.7352 13.8255 47.2165 14.2337 46.3832 14.5542L1.41731 14.5542C0.354742 14.3586 0.17727 13.5867 0 12.7476L0 3.61311Z" id="path25154" fill="url(#gradient_1)" fill-rule="evenodd" stroke="none" />
      <path d="M0 4.56091L0 2.28046C0 1.65073 0.183969 1.11322 0.551909 0.667923C0.919849 0.222641 1.36399 0 1.88434 0L45.1157 0C45.6356 0 46.0801 0.222641 46.448 0.667923C46.816 1.11322 47 1.65073 47 2.28046L47 11.7195C47 12.3492 46.816 12.8868 46.448 13.3321C46.0801 13.7774 45.6356 14 45.1157 14L1.88434 14C1.36399 14 0.919849 13.7774 0.551909 13.3321C0.183969 12.8868 0 12.3492 0 11.7195L0 4.56091Z" transform="translate(0.27297974 0)" id="path25150" fill="url(#gradient_2)" fill-rule="evenodd" stroke="none" />
      <path d="M0 3.31953L0 1.65976C0 1.20143 0.136271 0.810227 0.408813 0.48613C0.681355 0.162033 1.01034 0 1.39577 0L44.5916 0C44.9761 0 45.306 0.162033 45.5782 0.48613C45.8503 0.810227 45.9869 1.20143 45.9869 1.65976L45.9869 11.3271C45.9869 11.7855 45.8503 12.1767 45.5782 12.5008C45.306 12.8248 44.9761 12.9869 44.5916 12.9869L1.39577 12.9869C1.01034 12.9869 0.681355 12.8248 0.408813 12.5008C0.136271 12.1767 0 11.7855 0 11.3271L0 3.31953Z" transform="translate(0.7795105 0.50653076)" id="path25148" fill="none" fill-rule="evenodd" stroke="#0C0706" stroke-width="1.01306" />
      <path d="M2.5 4L0 0L5 0L2.5 4Z" transform="translate(39.27298 5.5)" id="path25243" fill="#F6D537" fill-rule="evenodd" stroke="none" />
      <g id="FM4-" fill="#F6D537" transform="translate(1.2499995 1.25)">
        <path d="M12.9897 8.46606L12.1079 8.46606L12.1079 3.53394L15.2524 3.53394L15.2524 4.29614L12.9897 4.29614L12.9897 5.73169L15.0576 5.73169L15.0576 6.46655L12.9897 6.46655L12.9897 8.46606ZM21.3193 8.46606L20.499 8.46606L20.499 4.99683L20.4512 4.99683L19.0874 8.27466L18.4585 8.27466L17.0947 4.99683L17.0469 4.99683L17.0469 8.46606L16.2266 8.46606L16.2266 3.53394L17.2588 3.53394L18.7422 7.12622L18.8037 7.12622L20.2871 3.53394L21.3193 3.53394L21.3193 8.46606ZM24.7305 7.54663L24.7305 8.46606L25.5747 8.46606L25.5747 7.54663L26.2412 7.54663L26.2412 6.80151L25.5747 6.80151L25.5747 3.53394L24.3306 3.53394Q22.9224 5.65308 22.3208 6.7605L22.3208 7.54663L24.7305 7.54663ZM23.1377 6.82202L23.1377 6.77075Q23.8965 5.43433 24.6963 4.25171L24.7441 4.25171L24.7441 6.82202L23.1377 6.82202Z" />
      </g>
    </g>
    <g id="Chaos" transform="translate(0.73 200)">
      <path d="M0 3.61311L0 1.80655C0 1.30768 0.138375 0.881882 0.415123 0.529129C0.691871 0.176376 1.02594 0 1.41731 0L46.3832 0C46.7736 0 47.1085 0.176376 47.3849 0.529129C47.6613 0.881882 47.8 1.30769 47.8 1.80655L47.8 12.7476C47.7352 13.8255 47.2165 14.2337 46.3832 14.5542L1.41731 14.5542C0.354742 14.3586 0.17727 13.5867 0 12.7476L0 3.61311Z" id="path25154" fill="url(#gradient_1)" fill-rule="evenodd" stroke="none" />
      <path d="M0 4.56091L0 2.28046C0 1.65073 0.183969 1.11322 0.551909 0.667923C0.919849 0.222641 1.36399 0 1.88434 0L45.1157 0C45.6356 0 46.0801 0.222641 46.448 0.667923C46.816 1.11322 47 1.65073 47 2.28046L47 11.7195C47 12.3492 46.816 12.8868 46.448 13.3321C46.0801 13.7774 45.6356 14 45.1157 14L1.88434 14C1.36399 14 0.919849 13.7774 0.551909 13.3321C0.183969 12.8868 0 12.3492 0 11.7195L0 4.56091Z" transform="translate(0.27297974 0)" id="path25150" fill="url(#gradient_2)" fill-rule="evenodd" stroke="none" />
      <path d="M0 3.31953L0 1.65976C0 1.20143 0.136271 0.810227 0.408813 0.48613C0.681355 0.162033 1.01034 0 1.39577 0L44.5916 0C44.9761 0 45.306 0.162033 45.5782 0.48613C45.8503 0.810227 45.9869 1.20143 45.9869 1.65976L45.9869 11.3271C45.9869 11.7855 45.8503 12.1767 45.5782 12.5008C45.306 12.8248 44.9761 12.9869 44.5916 12.9869L1.39577 12.9869C1.01034 12.9869 0.681355 12.8248 0.408813 12.5008C0.136271 12.1767 0 11.7855 0 11.3271L0 3.31953Z" transform="translate(0.7795105 0.50653076)" id="path25148" fill="none" fill-rule="evenodd" stroke="#0C0706" stroke-width="1.01306" />
      <path d="M2.5 4L0 0L5 0L2.5 4Z" transform="translate(39.27298 5.5)" id="path25243" fill="#F6D537" fill-rule="evenodd" stroke="none" />
      <g id="Chaos-" fill="#F6D537" transform="translate(1.2499995 1.25)">
        <path d="M13.9297 8.46606L13.9297 3.28101L14.7637 3.28101L14.7637 5.33179L14.8252 5.33179Q14.9585 5.01392 15.2524 4.83618Q15.5464 4.65845 15.96 4.65845Q16.5649 4.65845 16.905 5.02417Q17.2451 5.38989 17.2451 6.05298L17.2451 8.46606L16.3975 8.46606L16.3975 6.25464Q16.3975 5.83081 16.2061 5.61377Q16.0146 5.39673 15.6455 5.39673Q15.2354 5.39673 15.0063 5.64111Q14.7773 5.8855 14.7773 6.29565L14.7773 8.46606L13.9297 8.46606ZM10.9185 8.58911Q9.86914 8.58911 9.26074 7.89355Q8.65234 7.198 8.65234 6.00171Q8.65234 4.79858 9.25903 4.10474Q9.86572 3.41089 10.915 3.41089Q11.7559 3.41089 12.3403 3.90479Q12.9248 4.39868 13.0034 5.17114L12.1353 5.17114Q12.043 4.72681 11.7114 4.46191Q11.3799 4.19702 10.915 4.19702Q10.2861 4.19702 9.92041 4.68066Q9.55469 5.16431 9.55469 5.99829Q9.55469 6.83228 9.92041 7.31763Q10.2861 7.80298 10.9185 7.80298Q11.3867 7.80298 11.7183 7.55859Q12.0498 7.31421 12.1387 6.90063L13.0068 6.90063Q12.918 7.65942 12.3438 8.12427Q11.7695 8.58911 10.9185 8.58911ZM18.3867 8.21997Q18.7319 8.52759 19.2788 8.52759Q19.6445 8.52759 19.9368 8.37549Q20.229 8.22339 20.3862 7.95337L20.4443 7.95337L20.4443 8.46606L21.2612 8.46606L21.2612 5.91284Q21.2612 5.3147 20.8699 4.98315Q20.4785 4.65161 19.7607 4.65161Q19.0942 4.65161 18.6653 4.94385Q18.2363 5.23608 18.1851 5.73169L18.9849 5.73169Q19.043 5.5437 19.2344 5.44287Q19.4258 5.34204 19.7197 5.34204Q20.0615 5.34204 20.2427 5.48901Q20.4238 5.63599 20.4238 5.91284L20.4238 6.22729L19.46 6.2854Q18.7764 6.32642 18.4089 6.61353Q18.0415 6.90063 18.0415 7.40649Q18.0415 7.91235 18.3867 8.21997ZM23.8931 8.54126Q23.0522 8.54126 22.5737 8.02344Q22.0952 7.50562 22.0952 6.59644Q22.0952 5.69409 22.5771 5.17285Q23.0591 4.65161 23.8931 4.65161Q24.7305 4.65161 25.2107 5.17114Q25.6909 5.69067 25.6909 6.59644Q25.6909 7.50562 25.2107 8.02344Q24.7305 8.54126 23.8931 8.54126ZM26.877 4.97119Q26.46 5.29077 26.46 5.79663Q26.46 6.21704 26.718 6.4751Q26.9761 6.73315 27.5161 6.8562L28.1792 7.01001Q28.6953 7.1228 28.6953 7.43384Q28.6953 7.64233 28.4937 7.77051Q28.292 7.89868 27.9707 7.89868Q27.6563 7.89868 27.4597 7.78418Q27.2632 7.66968 27.2017 7.45776L26.3643 7.45776Q26.4121 7.96704 26.8308 8.25415Q27.2495 8.54126 27.9502 8.54126Q28.6543 8.54126 29.0986 8.21143Q29.543 7.88159 29.543 7.34497Q29.543 6.93481 29.29 6.69214Q29.0371 6.44946 28.4971 6.32642L27.8374 6.17603Q27.5537 6.11108 27.4187 6.00854Q27.2837 5.90601 27.2837 5.74878Q27.2837 5.54712 27.4751 5.42065Q27.6665 5.29419 27.9604 5.29419Q28.2544 5.29419 28.4373 5.40869Q28.6201 5.52319 28.668 5.72485L29.4644 5.72485Q29.4199 5.21558 29.0217 4.93359Q28.6235 4.65161 27.957 4.65161Q27.2939 4.65161 26.877 4.97119ZM23.2061 7.50732Q23.4487 7.83032 23.8931 7.83032Q24.3374 7.83032 24.5784 7.50732Q24.8193 7.18433 24.8193 6.59644Q24.8193 6.01196 24.5767 5.68726Q24.334 5.36255 23.8931 5.36255Q23.4487 5.36255 23.2061 5.68726Q22.9634 6.01196 22.9634 6.59644Q22.9634 7.18433 23.2061 7.50732ZM20.1675 7.64063Q19.9111 7.86108 19.5283 7.86108Q19.2412 7.86108 19.0618 7.72607Q18.8823 7.59106 18.8823 7.35864Q18.8823 6.89722 19.5796 6.85278L20.4238 6.7981L20.4238 7.09546Q20.4238 7.42017 20.1675 7.64063Z" />
      </g>
    </g>
    <g id="PD" transform="translate(0.73 182)">
      <path d="M0 3.61311L0 1.80655C0 1.30768 0.138375 0.881882 0.415123 0.529129C0.691871 0.176376 1.02594 0 1.41731 0L46.3832 0C46.7736 0 47.1085 0.176376 47.3849 0.529129C47.6613 0.881882 47.8 1.30769 47.8 1.80655L47.8 12.7476C47.7352 13.8255 47.2165 14.2337 46.3832 14.5542L1.41731 14.5542C0.354742 14.3586 0.17727 13.5867 0 12.7476L0 3.61311Z" id="path25154" fill="url(#gradient_1)" fill-rule="evenodd" stroke="none" />
      <path d="M0 4.56091L0 2.28046C0 1.65073 0.183969 1.11322 0.551909 0.667923C0.919849 0.222641 1.36399 0 1.88434 0L45.1157 0C45.6356 0 46.0801 0.222641 46.448 0.667923C46.816 1.11322 47 1.65073 47 2.28046L47 11.7195C47 12.3492 46.816 12.8868 46.448 13.3321C46.0801 13.7774 45.6356 14 45.1157 14L1.88434 14C1.36399 14 0.919849 13.7774 0.551909 13.3321C0.183969 12.8868 0 12.3492 0 11.7195L0 4.56091Z" transform="translate(0.27297974 0)" id="path25150" fill="url(#gradient_2)" fill-rule="evenodd" stroke="none" />
      <path d="M0 3.31953L0 1.65976C0 1.20143 0.136271 0.810227 0.408813 0.48613C0.681355 0.162033 1.01034 0 1.39577 0L44.5916 0C44.9761 0 45.306 0.162033 45.5782 0.48613C45.8503 0.810227 45.9869 1.20143 45.9869 1.65976L45.9869 11.3271C45.9869 11.7855 45.8503 12.1767 45.5782 12.5008C45.306 12.8248 44.9761 12.9869 44.5916 12.9869L1.39577 12.9869C1.01034 12.9869 0.681355 12.8248 0.408813 12.5008C0.136271 12.1767 0 11.7855 0 11.3271L0 3.31953Z" transform="translate(0.7795105 0.50653076)" id="path25148" fill="none" fill-rule="evenodd" stroke="#0C0706" stroke-width="1.01306" />
      <path d="M2.5 4L0 0L5 0L2.5 4Z" transform="translate(39.27298 5.5)" id="path25243" fill="#F6D537" fill-rule="evenodd" stroke="none" />
      <g id="PD-" fill="#F6D537" transform="translate(1.2499995 1.25)">
        <path d="M16.7683 3.53394L14.7791 3.53394L14.7791 8.46606L15.6609 8.46606L15.6609 6.84937L16.7307 6.84937Q17.4792 6.84937 17.9526 6.39136Q18.426 5.93335 18.426 5.2019Q18.426 4.45679 17.9663 3.99536Q17.5066 3.53394 16.7683 3.53394ZM21.2458 3.53394L19.3967 3.53394L19.3967 8.46606L21.2458 8.46606Q22.3533 8.46606 22.96 7.81494Q23.5667 7.16382 23.5667 5.97778Q23.5667 4.81567 22.9565 4.1748Q22.3464 3.53394 21.2458 3.53394ZM15.6609 6.11792L15.6609 4.27222L16.5359 4.27222Q17.0144 4.27222 17.2725 4.51147Q17.5305 4.75073 17.5305 5.2019Q17.5305 5.6394 17.269 5.87866Q17.0076 6.11792 16.5325 6.11792L15.6609 6.11792ZM20.2786 7.70386L20.2786 4.29614L21.1296 4.29614Q21.8577 4.29614 22.2627 4.74048Q22.6677 5.18481 22.6677 5.99146Q22.6677 6.81519 22.2678 7.25952Q21.8679 7.70386 21.1296 7.70386L20.2786 7.70386Z" />
      </g>
    </g>
    <g id="Pluck" transform="translate(0.73 164)">
      <path d="M0 3.61311L0 1.80655C0 1.30768 0.138375 0.881882 0.415123 0.529129C0.691871 0.176376 1.02594 0 1.41731 0L46.3832 0C46.7736 0 47.1085 0.176376 47.3849 0.529129C47.6613 0.881882 47.8 1.30769 47.8 1.80655L47.8 12.7476C47.7352 13.8255 47.2165 14.2337 46.3832 14.5542L1.41731 14.5542C0.354742 14.3586 0.17727 13.5867 0 12.7476L0 3.61311Z" id="path25154" fill="url(#gradient_1)" fill-rule="evenodd" stroke="none" />
      <path d="M0 4.56091L0 2.28046C0 1.65073 0.183969 1.11322 0.551909 0.667923C0.919849 0.222641 1.36399 0 1.88434 0L45.1157 0C45.6356 0 46.0801 0.222641 46.448 0.667923C46.816 1.11322 47 1.65073 47 2.28046L47 11.7195C47 12.3492 46.816 12.8868 46.448 13.3321C46.0801 13.7774 45.6356 14 45.1157 14L1.88434 14C1.36399 14 0.919849 13.7774 0.551909 13.3321C0.183969 12.8868 0 12.3492 0 11.7195L0 4.56091Z" transform="translate(0.27297974 0)" id="path25150" fill="url(#gradient_2)" fill-rule="evenodd" stroke="none" />
      <path d="M0 3.31953L0 1.65976C0 1.20143 0.136271 0.810227 0.408813 0.48613C0.681355 0.162033 1.01034 0 1.39577 0L44.5916 0C44.9761 0 45.306 0.162033 45.5782 0.48613C45.8503 0.810227 45.9869 1.20143 45.9869 1.65976L45.9869 11.3271C45.9869 11.7855 45.8503 12.1767 45.5782 12.5008C45.306 12.8248 44.9761 12.9869 44.5916 12.9869L1.39577 12.9869C1.01034 12.9869 0.681355 12.8248 0.408813 12.5008C0.136271 12.1767 0 11.7855 0 11.3271L0 3.31953Z" transform="translate(0.7795105 0.50653076)" id="path25148" fill="none" fill-rule="evenodd" stroke="#0C0706" stroke-width="1.01306" />
      <path d="M2.5 4L0 0L5 0L2.5 4Z" transform="translate(39.27298 5.5)" id="path25243" fill="#F6D537" fill-rule="evenodd" stroke="none" />
      <g id="Pluck-" fill="#F6D537" transform="translate(1.2499995 1.25)">
        <path d="M14.7568 8.46606L14.7568 3.28101L15.6045 3.28101L15.6045 8.46606L14.7568 8.46606ZM27.3281 4.72681L25.9473 6.25122L25.8892 6.25122L25.8892 3.28101L25.0415 3.28101L25.0415 8.46606L25.8892 8.46606L25.8892 7.16382L26.1899 6.86304L27.3896 8.46606L28.415 8.46606L26.8223 6.32983L28.3125 4.72681L27.3281 4.72681ZM10.1938 3.53394L12.1831 3.53394Q12.9214 3.53394 13.3811 3.99536Q13.8408 4.45679 13.8408 5.2019Q13.8408 5.93335 13.3674 6.39136Q12.894 6.84937 12.1455 6.84937L11.0757 6.84937L11.0757 8.46606L10.1938 8.46606L10.1938 3.53394ZM11.0757 4.27222L11.0757 6.11792L11.9473 6.11792Q12.4224 6.11792 12.6838 5.87866Q12.9453 5.6394 12.9453 5.2019Q12.9453 4.75073 12.6873 4.51147Q12.4292 4.27222 11.9507 4.27222L11.0757 4.27222ZM24.1973 5.98462L23.3906 5.98462Q23.3291 5.70093 23.1172 5.53174Q22.9053 5.36255 22.5669 5.36255Q22.1294 5.36255 21.885 5.68384Q21.6406 6.00513 21.6406 6.58618Q21.6406 7.17407 21.8867 7.5022Q22.1328 7.83032 22.5669 7.83032Q22.8984 7.83032 23.1121 7.67651Q23.3257 7.52271 23.3906 7.23218L24.1973 7.23218Q24.1255 7.83032 23.6965 8.18579Q23.2676 8.54126 22.5703 8.54126Q21.7261 8.54126 21.2544 8.02515Q20.7827 7.50903 20.7827 6.58618Q20.7827 5.67358 21.2544 5.1626Q21.7261 4.65161 22.5669 4.65161Q23.271 4.65161 23.7 5.01563Q24.1289 5.37964 24.1973 5.98462ZM19.9282 8.46606L19.9282 4.72681L19.0806 4.72681L19.0806 6.90405Q19.0806 7.32446 18.8601 7.5603Q18.6396 7.79614 18.2295 7.79614Q17.8501 7.79614 17.6689 7.58594Q17.4878 7.37573 17.4878 6.94507L17.4878 4.72681L16.6401 4.72681L16.6401 7.15698Q16.6401 7.81323 16.9819 8.17725Q17.3237 8.54126 17.9355 8.54126Q18.7695 8.54126 19.0532 7.87134L19.1113 7.87134L19.1113 8.46606L19.9282 8.46606Z" />
      </g>
    </g>
    <g id="Modern" transform="translate(0.73 146)">
      <path d="M0 3.61311L0 1.80655C0 1.30768 0.138375 0.881882 0.415123 0.529129C0.691871 0.176376 1.02594 0 1.41731 0L46.3832 0C46.7736 0 47.1085 0.176376 47.3849 0.529129C47.6613 0.881882 47.8 1.30769 47.8 1.80655L47.8 12.7476C47.7352 13.8255 47.2165 14.2337 46.3832 14.5542L1.41731 14.5542C0.354742 14.3586 0.17727 13.5867 0 12.7476L0 3.61311Z" id="path25154" fill="url(#gradient_1)" fill-rule="evenodd" stroke="none" />
      <path d="M0 4.56091L0 2.28046C0 1.65073 0.183969 1.11322 0.551909 0.667923C0.919849 0.222641 1.36399 0 1.88434 0L45.1157 0C45.6356 0 46.0801 0.222641 46.448 0.667923C46.816 1.11322 47 1.65073 47 2.28046L47 11.7195C47 12.3492 46.816 12.8868 46.448 13.3321C46.0801 13.7774 45.6356 14 45.1157 14L1.88434 14C1.36399 14 0.919849 13.7774 0.551909 13.3321C0.183969 12.8868 0 12.3492 0 11.7195L0 4.56091Z" transform="translate(0.27297974 0)" id="path25150" fill="url(#gradient_2)" fill-rule="evenodd" stroke="none" />
      <path d="M0 3.31953L0 1.65976C0 1.20143 0.136271 0.810227 0.408813 0.48613C0.681355 0.162033 1.01034 0 1.39577 0L44.5916 0C44.9761 0 45.306 0.162033 45.5782 0.48613C45.8503 0.810227 45.9869 1.20143 45.9869 1.65976L45.9869 11.3271C45.9869 11.7855 45.8503 12.1767 45.5782 12.5008C45.306 12.8248 44.9761 12.9869 44.5916 12.9869L1.39577 12.9869C1.01034 12.9869 0.681355 12.8248 0.408813 12.5008C0.136271 12.1767 0 11.7855 0 11.3271L0 3.31953Z" transform="translate(0.7795105 0.50653076)" id="path25148" fill="none" fill-rule="evenodd" stroke="#0C0706" stroke-width="1.01306" />
      <path d="M2.5 4L0 0L5 0L2.5 4Z" transform="translate(39.27298 5.5)" id="path25243" fill="#F6D537" fill-rule="evenodd" stroke="none" />
      <g id="Modern-" fill="#F6D537" transform="translate(1.2499995 1.25)">
        <path d="M18.3372 8.52759Q17.6262 8.52759 17.2126 8.00635Q16.7991 7.48511 16.7991 6.59302Q16.7991 5.70776 17.2144 5.18652Q17.6296 4.66528 18.3372 4.66528Q18.72 4.66528 19.0208 4.8396Q19.3215 5.01392 19.4719 5.32153L19.53 5.32153L19.53 3.28101L20.3777 3.28101L20.3777 8.46606L19.5574 8.46606L19.5574 7.87476L19.4993 7.87476Q19.3386 8.18237 19.0327 8.35498Q18.7268 8.52759 18.3372 8.52759ZM10.7698 8.46606L11.5901 8.46606L11.5901 3.53394L10.5579 3.53394L9.07446 7.12622L9.01294 7.12622L7.52954 3.53394L6.49731 3.53394L6.49731 8.46606L7.31763 8.46606L7.31763 4.99683L7.36548 4.99683L8.72925 8.27466L9.35815 8.27466L10.7219 4.99683L10.7698 4.99683L10.7698 8.46606ZM13.012 8.02344Q13.4905 8.54126 14.3313 8.54126Q15.1687 8.54126 15.6489 8.02344Q16.1292 7.50562 16.1292 6.59644Q16.1292 5.69067 15.6489 5.17114Q15.1687 4.65161 14.3313 4.65161Q13.4973 4.65161 13.0154 5.17285Q12.5334 5.69409 12.5334 6.59644Q12.5334 7.50562 13.012 8.02344ZM24.6877 7.43726L23.8845 7.43726Q23.6931 7.86792 23.0505 7.86792Q22.6335 7.86792 22.3823 7.59619Q22.1311 7.32446 22.114 6.8562L22.114 6.81177L24.7253 6.81177L24.7253 6.53833Q24.7253 5.65308 24.2725 5.15234Q23.8196 4.65161 23.0198 4.65161Q22.2063 4.65161 21.7346 5.17969Q21.2629 5.70776 21.2629 6.61011Q21.2629 7.51245 21.7329 8.02686Q22.2029 8.54126 23.0266 8.54126Q23.6829 8.54126 24.1255 8.24561Q24.5681 7.94995 24.6877 7.43726ZM29.302 4.72681L28.4851 4.72681L28.4851 8.46606L29.3328 8.46606L29.3328 6.28882Q29.3328 5.87524 29.5549 5.63257Q29.7771 5.38989 30.1565 5.38989Q30.9119 5.38989 30.9119 6.2478L30.9119 8.46606L31.7595 8.46606L31.7595 6.04614Q31.7595 5.37622 31.4263 5.01392Q31.093 4.65161 30.4709 4.65161Q30.0608 4.65161 29.7788 4.82764Q29.4968 5.00366 29.3601 5.32495L29.302 5.32495L29.302 4.72681ZM25.5764 4.72681L26.3933 4.72681L26.3933 5.30786L26.4514 5.30786Q26.53 5.02759 26.8052 4.84644Q27.0803 4.66528 27.4392 4.66528Q27.6682 4.66528 27.7913 4.70288L27.7913 5.48901Q27.6614 5.44116 27.3572 5.44116Q26.9436 5.44116 26.6838 5.67871Q26.4241 5.91626 26.4241 6.30591L26.4241 8.46606L25.5764 8.46606L25.5764 4.72681ZM22.3909 5.57446Q22.637 5.32495 23.0164 5.32495Q23.3992 5.32495 23.6316 5.57104Q23.864 5.81714 23.8777 6.23413L22.1174 6.23413Q22.1448 5.82397 22.3909 5.57446ZM14.3313 7.83032Q13.887 7.83032 13.6443 7.50732Q13.4016 7.18433 13.4016 6.59644Q13.4016 6.01196 13.6443 5.68726Q13.887 5.36255 14.3313 5.36255Q14.7722 5.36255 15.0149 5.68726Q15.2576 6.01196 15.2576 6.59644Q15.2576 7.18433 15.0166 7.50732Q14.7756 7.83032 14.3313 7.83032ZM19.2874 5.71118Q19.0344 5.38647 18.6003 5.38647Q18.1663 5.38647 17.9167 5.70947Q17.6672 6.03247 17.6672 6.59644Q17.6672 7.16382 17.915 7.48511Q18.1628 7.8064 18.6003 7.8064Q19.0378 7.8064 19.2891 7.4834Q19.5403 7.1604 19.5403 6.59644Q19.5403 6.03589 19.2874 5.71118Z" />
      </g>
    </g>
    <g id="Window" transform="translate(0.72702026 128)">
      <path d="M0 3.61311L0 1.80655C0 1.30768 0.138375 0.881882 0.415123 0.529129C0.691871 0.176376 1.02594 0 1.41731 0L46.3832 0C46.7736 0 47.1085 0.176376 47.3849 0.529129C47.6613 0.881882 47.8 1.30769 47.8 1.80655L47.8 12.7476C47.7352 13.8255 47.2165 14.2337 46.3832 14.5542L1.41731 14.5542C0.354742 14.3586 0.17727 13.5867 0 12.7476L0 3.61311Z" id="path25154" fill="url(#gradient_1)" fill-rule="evenodd" stroke="none" />
      <path d="M0 4.56091L0 2.28046C0 1.65073 0.183969 1.11322 0.551909 0.667923C0.919849 0.222641 1.36399 0 1.88434 0L45.1157 0C45.6356 0 46.0801 0.222641 46.448 0.667923C46.816 1.11322 47 1.65073 47 2.28046L47 11.7195C47 12.3492 46.816 12.8868 46.448 13.3321C46.0801 13.7774 45.6356 14 45.1157 14L1.88434 14C1.36399 14 0.919849 13.7774 0.551909 13.3321C0.183969 12.8868 0 12.3492 0 11.7195L0 4.56091Z" transform="translate(0.27297974 0)" id="path25150" fill="url(#gradient_2)" fill-rule="evenodd" stroke="none" />
      <path d="M0 3.31953L0 1.65976C0 1.20143 0.136271 0.810227 0.408813 0.48613C0.681355 0.162033 1.01034 0 1.39577 0L44.5916 0C44.9761 0 45.306 0.162033 45.5782 0.48613C45.8503 0.810227 45.9869 1.20143 45.9869 1.65976L45.9869 11.3271C45.9869 11.7855 45.8503 12.1767 45.5782 12.5008C45.306 12.8248 44.9761 12.9869 44.5916 12.9869L1.39577 12.9869C1.01034 12.9869 0.681355 12.8248 0.408813 12.5008C0.136271 12.1767 0 11.7855 0 11.3271L0 3.31953Z" transform="translate(0.7795105 0.50653076)" id="path25148" fill="none" fill-rule="evenodd" stroke="#0C0706" stroke-width="1.01306" />
      <path d="M2.5 4L0 0L5 0L2.5 4Z" transform="translate(39.27298 5.5)" id="path25243" fill="#F6D537" fill-rule="evenodd" stroke="none" />
      <g id="Window-" fill="#F6D537" transform="translate(1.25 1.25)">
        <path d="M12.7915 3.98682Q12.9385 4.11841 13.1675 4.11841Q13.3999 4.11841 13.5452 3.98682Q13.6904 3.85522 13.6904 3.65015Q13.6904 3.44507 13.5452 3.31348Q13.3999 3.18188 13.1675 3.18188Q12.9385 3.18188 12.7915 3.31348Q12.6445 3.44507 12.6445 3.65015Q12.6445 3.85522 12.7915 3.98682ZM19.1489 8.00635Q19.5625 8.52759 20.2734 8.52759Q20.6631 8.52759 20.969 8.35498Q21.2749 8.18237 21.4355 7.87476L21.4937 7.87476L21.4937 8.46606L22.314 8.46606L22.314 3.28101L21.4663 3.28101L21.4663 5.32153L21.4082 5.32153Q21.2578 5.01392 20.957 4.8396Q20.6563 4.66528 20.2734 4.66528Q19.5659 4.66528 19.1506 5.18652Q18.7354 5.70776 18.7354 6.59302Q18.7354 7.48511 19.1489 8.00635ZM7.7124 8.46606L8.71045 4.9729L8.76172 4.9729L9.7666 8.46606L10.5938 8.46606L11.9165 3.53394L11.0039 3.53394L10.1597 7.20483L10.1118 7.20483L9.12744 3.53394L8.34473 3.53394L7.37402 7.20483L7.32275 7.20483L6.47852 3.53394L5.55908 3.53394L6.88184 8.46606L7.7124 8.46606ZM14.6406 8.46606L14.6406 4.72681L15.4575 4.72681L15.4575 5.32495L15.5156 5.32495Q15.6523 5.00366 15.9343 4.82764Q16.2163 4.65161 16.6265 4.65161Q17.2485 4.65161 17.5818 5.01392Q17.915 5.37622 17.915 6.04614L17.915 8.46606L17.0674 8.46606L17.0674 6.2478Q17.0674 5.38989 16.312 5.38989Q15.9326 5.38989 15.7104 5.63257Q15.4883 5.87524 15.4883 6.28882L15.4883 8.46606L14.6406 8.46606ZM24.9971 8.54126Q24.1563 8.54126 23.6777 8.02344Q23.1992 7.50562 23.1992 6.59644Q23.1992 5.69409 23.6812 5.17285Q24.1631 4.65161 24.9971 4.65161Q25.8345 4.65161 26.3147 5.17114Q26.7949 5.69067 26.7949 6.59644Q26.7949 7.50562 26.3147 8.02344Q25.8345 8.54126 24.9971 8.54126ZM12.7471 4.72681L12.7471 8.46606L13.5913 8.46606L13.5913 4.72681L12.7471 4.72681ZM30.7529 8.46606L31.645 8.46606L32.6567 4.72681L31.8125 4.72681L31.1938 7.51929L31.1357 7.51929L30.4111 4.72681L29.6011 4.72681L28.8833 7.51929L28.8252 7.51929L28.2031 4.72681L27.3486 4.72681L28.3604 8.46606L29.2422 8.46606L29.9668 5.77271L30.0249 5.77271L30.7529 8.46606ZM24.3101 7.50732Q24.5527 7.83032 24.9971 7.83032Q25.4414 7.83032 25.6824 7.50732Q25.9233 7.18433 25.9233 6.59644Q25.9233 6.01196 25.6807 5.68726Q25.438 5.36255 24.9971 5.36255Q24.5527 5.36255 24.3101 5.68726Q24.0674 6.01196 24.0674 6.59644Q24.0674 7.18433 24.3101 7.50732ZM20.5366 5.38647Q20.9707 5.38647 21.2236 5.71118Q21.4766 6.03589 21.4766 6.59644Q21.4766 7.1604 21.2253 7.4834Q20.9741 7.8064 20.5366 7.8064Q20.0991 7.8064 19.8513 7.48511Q19.6035 7.16382 19.6035 6.59644Q19.6035 6.03247 19.853 5.70947Q20.1025 5.38647 20.5366 5.38647Z" />
      </g>
    </g>
    <g id="FM2" transform="translate(0.72702026 110)">
      <path d="M0 3.61311L0 1.80656C0 1.30769 0.138375 0.881889 0.415123 0.529137C0.691871 0.176376 1.02594 0 1.41731 0L46.3832 0C46.7736 0 47.1085 0.176376 47.3849 0.529129C47.6613 0.881882 47.8 1.30769 47.8 1.80655L47.8 12.7476C47.7352 13.8255 47.2165 14.2337 46.3832 14.5542L1.41731 14.5542C0.354742 14.3586 0.17727 13.5867 0 12.7476L0 3.61311Z" id="path1074" fill="url(#gradient_1)" fill-rule="evenodd" stroke="none" />
      <path d="M0 4.56091L0 2.28046C0 1.65073 0.183969 1.11323 0.551909 0.667931C0.919849 0.222641 1.36399 0 1.88434 0L45.1157 0C45.6356 0 46.0801 0.222641 46.448 0.667931C46.816 1.11322 47 1.65073 47 2.28046L47 11.7195C47 12.3492 46.816 12.8867 46.448 13.3321C46.0801 13.7774 45.6356 14 45.1157 14L1.88434 14C1.36399 14 0.919849 13.7774 0.551909 13.3321C0.183969 12.8868 0 12.3492 0 11.7195L0 4.56091Z" transform="translate(0.27297974 0)" id="path1050" fill="url(#gradient_2)" fill-rule="evenodd" stroke="none" />
      <path d="M0 3.31953L0 1.65976C0 1.20143 0.136271 0.810219 0.408813 0.48613C0.681355 0.162041 1.01034 0 1.39577 0L44.5916 0C44.9761 0 45.306 0.162041 45.5782 0.48613C45.8503 0.810219 45.9869 1.20143 45.9869 1.65976L45.9869 11.3271C45.9869 11.7855 45.8503 12.1767 45.5782 12.5008C45.306 12.8248 44.9761 12.9869 44.5916 12.9869L1.39577 12.9869C1.01034 12.9869 0.681355 12.8248 0.408813 12.5008C0.136271 12.1767 0 11.7855 0 11.3271L0 3.31953Z" transform="translate(0.7795105 0.50653076)" id="path1028" fill="none" fill-rule="evenodd" stroke="#0C0706" stroke-width="1.01306" />
      <path d="M2.5 4L0 0L5 0L2.5 4Z" transform="translate(39.27298 5.5)" id="path25241" fill="#F6D537" fill-rule="evenodd" stroke="none" />
      <g id="FM2-" fill="#F6D537" transform="translate(1.25 1.25)">
        <path d="M23.0266 3.84839Q22.5464 4.28589 22.5464 4.97632L22.5464 4.98999L23.3735 4.98999L23.3735 4.97632Q23.3735 4.60034 23.6128 4.36792Q23.8521 4.1355 24.2383 4.1355Q24.604 4.1355 24.8416 4.34741Q25.0791 4.55933 25.0791 4.88403Q25.0791 5.1438 24.9116 5.40186Q24.7441 5.65991 24.2383 6.17261L22.5942 7.85425L22.5942 8.46606L26.019 8.46606L26.019 7.71753L23.8042 7.71753L23.8042 7.65942L24.8364 6.62378Q25.4653 6.00171 25.7046 5.61377Q25.9438 5.22583 25.9438 4.82935Q25.9438 4.21069 25.4705 3.81079Q24.9971 3.41089 24.2656 3.41089Q23.5068 3.41089 23.0266 3.84839ZM13.1401 8.46606L12.2583 8.46606L12.2583 3.53394L15.4028 3.53394L15.4028 4.29614L13.1401 4.29614L13.1401 5.73169L15.208 5.73169L15.208 6.46655L13.1401 6.46655L13.1401 8.46606ZM21.4697 8.46606L20.6494 8.46606L20.6494 4.99683L20.6016 4.99683L19.2378 8.27466L18.6089 8.27466L17.2451 4.99683L17.1973 4.99683L17.1973 8.46606L16.377 8.46606L16.377 3.53394L17.4092 3.53394L18.8926 7.12622L18.9541 7.12622L20.4375 3.53394L21.4697 3.53394L21.4697 8.46606Z" />
      </g>
    </g>
    <g id="FM3" transform="translate(0.72702026 92)">
      <path d="M0 3.61311L0 1.80655C0 1.30769 0.138375 0.881874 0.415123 0.529121C0.691871 0.176376 1.02594 0 1.41731 0L46.3832 0C46.7736 0 47.1085 0.176376 47.3849 0.529129C47.6613 0.881882 47.8 1.30769 47.8 1.80656L47.8 12.7476C47.7352 13.8255 47.2165 14.2337 46.3832 14.5542L1.41731 14.5542C0.354742 14.3586 0.17727 13.5867 0 12.7476L0 3.61311Z" id="path1070" fill="url(#gradient_1)" fill-rule="evenodd" stroke="none" />
      <path d="M0 4.56091L0 2.28046C0 1.65073 0.183969 1.11322 0.551909 0.667931C0.919849 0.222641 1.36399 0 1.88434 0L45.1157 0C45.6356 0 46.0801 0.222641 46.448 0.667931C46.816 1.11322 47 1.65073 47 2.28046L47 11.7195C47 12.3492 46.816 12.8868 46.448 13.3321C46.0801 13.7774 45.6356 14 45.1157 14L1.88434 14C1.36399 14 0.919849 13.7774 0.551909 13.3321C0.183969 12.8868 0 12.3492 0 11.7195L0 4.56091Z" transform="translate(0.27297974 0)" id="path1046" fill="url(#gradient_2)" fill-rule="evenodd" stroke="none" />
      <path d="M0 3.31954L0 1.65977C0 1.20143 0.136271 0.810226 0.408813 0.486137C0.681355 0.162048 1.01034 0 1.39577 0L44.5916 0C44.9761 0 45.306 0.162048 45.5782 0.486137C45.8503 0.810226 45.9869 1.20144 45.9869 1.65977L45.9869 11.3271C45.9869 11.7855 45.8503 12.1767 45.5782 12.5008C45.306 12.8249 44.9761 12.9869 44.5916 12.9869L1.39577 12.9869C1.01034 12.9869 0.681355 12.8249 0.408813 12.5008C0.136271 12.1767 0 11.7855 0 11.3271L0 3.31954Z" transform="translate(0.7795105 0.50653076)" id="path1026" fill="none" fill-rule="evenodd" stroke="#0C0706" stroke-width="1.01306" />
      <path d="M2.5 4L0 0L5 0L2.5 4Z" transform="translate(39.27298 5.5)" id="path25239" fill="#F6D537" fill-rule="evenodd" stroke="none" />
      <g id="FM3-" fill="#F6D537" transform="translate(1.25 1.25)">
        <path d="M23.6401 5.59497L23.6401 6.27856L24.2588 6.27856Q24.7134 6.27856 24.9766 6.48706Q25.2397 6.69556 25.2397 7.05786Q25.2397 7.40649 24.9714 7.62695Q24.7031 7.84741 24.2793 7.84741Q23.8521 7.84741 23.582 7.64404Q23.312 7.44067 23.2847 7.09888L22.4404 7.09888Q22.4746 7.77563 22.9753 8.18237Q23.4761 8.58911 24.2725 8.58911Q25.0757 8.58911 25.6072 8.1687Q26.1387 7.74829 26.1387 7.11255Q26.1387 6.62036 25.8464 6.29907Q25.5542 5.97778 25.0483 5.91968L25.0483 5.86157Q25.4585 5.77612 25.6995 5.46851Q25.9404 5.16089 25.9404 4.72681Q25.9404 4.15942 25.4636 3.78516Q24.9868 3.41089 24.269 3.41089Q23.5 3.41089 23.0352 3.80566Q22.5703 4.20044 22.5361 4.88062L23.3599 4.88062Q23.3838 4.53198 23.6213 4.33032Q23.8589 4.12866 24.2417 4.12866Q24.6279 4.12866 24.8586 4.3252Q25.0894 4.52173 25.0894 4.84985Q25.0894 5.1814 24.8535 5.38818Q24.6177 5.59497 24.2417 5.59497L23.6401 5.59497ZM13.0547 8.46606L12.1729 8.46606L12.1729 3.53394L15.3174 3.53394L15.3174 4.29614L13.0547 4.29614L13.0547 5.73169L15.1226 5.73169L15.1226 6.46655L13.0547 6.46655L13.0547 8.46606ZM21.3843 8.46606L20.564 8.46606L20.564 4.99683L20.5161 4.99683L19.1523 8.27466L18.5234 8.27466L17.1597 4.99683L17.1118 4.99683L17.1118 8.46606L16.2915 8.46606L16.2915 3.53394L17.3237 3.53394L18.8071 7.12622L18.8687 7.12622L20.3521 3.53394L21.3843 3.53394L21.3843 8.46606Z" />
      </g>
    </g>
    <g id="Audio-In" transform="translate(0.72702026 74)">
      <path d="M0 3.61311L0 1.80655C0 1.30769 0.138375 0.881874 0.415123 0.529121C0.691871 0.176376 1.02594 0 1.41731 0L46.3832 0C46.7736 0 47.1085 0.176376 47.3849 0.529129C47.6613 0.881882 47.8 1.30769 47.8 1.80656L47.8 12.7477C47.7352 13.8255 47.2165 14.2337 46.3832 14.5542L1.41731 14.5542C0.354742 14.3586 0.17727 13.5867 0 12.7476L0 3.61311Z" id="path1066" fill="url(#gradient_1)" fill-rule="evenodd" stroke="none" />
      <path d="M0 4.56091L0 2.28046C0 1.65073 0.183969 1.11322 0.551909 0.667931C0.919849 0.222641 1.36399 0 1.88434 0L45.1157 0C45.6356 0 46.0801 0.222641 46.448 0.667931C46.816 1.11322 47 1.65073 47 2.28046L47 11.7195C47 12.3492 46.816 12.8868 46.448 13.3321C46.0801 13.7774 45.6356 14 45.1157 14L1.88434 14C1.36399 14 0.919849 13.7774 0.551909 13.3321C0.183969 12.8868 0 12.3492 0 11.7195L0 4.56091Z" transform="translate(0.27297974 0)" id="path1042" fill="url(#gradient_2)" fill-rule="evenodd" stroke="none" />
      <path d="M0 3.31954L0 1.65977C0 1.20143 0.136271 0.810226 0.408813 0.486137C0.681355 0.162048 1.01034 0 1.39577 0L44.5916 0C44.9761 0 45.306 0.162048 45.5782 0.486137C45.8503 0.810226 45.9869 1.20144 45.9869 1.65977L45.9869 11.3271C45.9869 11.7855 45.8503 12.1767 45.5782 12.5008C45.306 12.8249 44.9761 12.9869 44.5916 12.9869L1.39577 12.9869C1.01034 12.9869 0.681355 12.8249 0.408813 12.5008C0.136271 12.1767 0 11.7855 0 11.3271L0 3.31954Z" transform="translate(0.7795105 0.50653076)" id="path1024" fill="none" fill-rule="evenodd" stroke="#0C0706" stroke-width="1.01306" />
      <path d="M2.5 4L0 0L5 0L2.5 4Z" transform="translate(39.27298 5.5)" id="path25237" fill="#F6D537" fill-rule="evenodd" stroke="none" />
      <g id="Audio-In-" fill="#F6D537" transform="translate(1.25 1.25)">
        <path d="M19.677 4.11841Q19.448 4.11841 19.301 3.98682Q19.1541 3.85522 19.1541 3.65015Q19.1541 3.44507 19.301 3.31348Q19.448 3.18188 19.677 3.18188Q19.9094 3.18188 20.0547 3.31348Q20.2 3.44507 20.2 3.65015Q20.2 3.85522 20.0547 3.98682Q19.9094 4.11841 19.677 4.11841ZM15.0115 8.00635Q15.425 8.52759 16.136 8.52759Q16.5256 8.52759 16.8315 8.35498Q17.1375 8.18237 17.2981 7.87476L17.3562 7.87476L17.3562 8.46606L18.1765 8.46606L18.1765 3.28101L17.3289 3.28101L17.3289 5.32153L17.2708 5.32153Q17.1204 5.01392 16.8196 4.8396Q16.5188 4.66528 16.136 4.66528Q15.4285 4.66528 15.0132 5.18652Q14.5979 5.70776 14.5979 6.59302Q14.5979 7.48511 15.0115 8.00635ZM8.78394 8.46606L8.36694 7.20483L6.552 7.20483L6.12817 8.46606L5.23608 8.46606L6.98608 3.53394L7.97729 3.53394L9.73071 8.46606L8.78394 8.46606ZM28.2527 8.46606L27.3708 8.46606L27.3708 3.53394L28.2527 3.53394L28.2527 8.46606ZM7.43384 4.47388L6.75708 6.50757L8.16187 6.50757L7.49194 4.47388L7.43384 4.47388ZM21.4441 8.02344Q21.9226 8.54126 22.7634 8.54126Q23.6008 8.54126 24.0811 8.02344Q24.5613 7.50562 24.5613 6.59644Q24.5613 5.69067 24.0811 5.17114Q23.6008 4.65161 22.7634 4.65161Q21.9294 4.65161 21.4475 5.17285Q20.9656 5.69409 20.9656 6.59644Q20.9656 7.50562 21.4441 8.02344ZM30.1975 4.72681L29.3806 4.72681L29.3806 8.46606L30.2283 8.46606L30.2283 6.28882Q30.2283 5.87524 30.4504 5.63257Q30.6726 5.38989 31.052 5.38989Q31.8074 5.38989 31.8074 6.2478L31.8074 8.46606L32.655 8.46606L32.655 6.04614Q32.655 5.37622 32.3218 5.01392Q31.9885 4.65161 31.3665 4.65161Q30.9563 4.65161 30.6743 4.82764Q30.3923 5.00366 30.2556 5.32495L30.1975 5.32495L30.1975 4.72681ZM13.7434 4.72681L13.7434 8.46606L12.9265 8.46606L12.9265 7.87134L12.8684 7.87134Q12.5847 8.54126 11.7507 8.54126Q11.1389 8.54126 10.7971 8.17725Q10.4553 7.81323 10.4553 7.15698L10.4553 4.72681L11.303 4.72681L11.303 6.94507Q11.303 7.37573 11.4841 7.58594Q11.6653 7.79614 12.0447 7.79614Q12.4548 7.79614 12.6753 7.5603Q12.8958 7.32446 12.8958 6.90405L12.8958 4.72681L13.7434 4.72681ZM19.2566 4.72681L20.1008 4.72681L20.1008 8.46606L19.2566 8.46606L19.2566 4.72681ZM22.7634 7.83032Q22.3191 7.83032 22.0764 7.50732Q21.8337 7.18433 21.8337 6.59644Q21.8337 6.01196 22.0764 5.68726Q22.3191 5.36255 22.7634 5.36255Q23.2043 5.36255 23.447 5.68726Q23.6897 6.01196 23.6897 6.59644Q23.6897 7.18433 23.4487 7.50732Q23.2078 7.83032 22.7634 7.83032ZM16.3992 5.38647Q16.8333 5.38647 17.0862 5.71118Q17.3391 6.03589 17.3391 6.59644Q17.3391 7.1604 17.0879 7.4834Q16.8367 7.8064 16.3992 7.8064Q15.9617 7.8064 15.7139 7.48511Q15.4661 7.16382 15.4661 6.59644Q15.4661 6.03247 15.7156 5.70947Q15.9651 5.38647 16.3992 5.38647Z" />
      </g>
    </g>
    <g id="S&amp;H-Noise" transform="translate(0.72702026 56)">
      <path d="M0 3.61311L0 1.80655C0 1.30768 0.138375 0.881878 0.415123 0.529125C0.691871 0.176376 1.02594 0 1.41731 0L46.3832 0C46.7736 0 47.1085 0.176376 47.3849 0.529129C47.6613 0.881882 47.8 1.30769 47.8 1.80655L47.8 12.7476C47.7352 13.8255 47.2165 14.2337 46.3832 14.5542L1.41731 14.5542C0.354742 14.3586 0.17727 13.5867 0 12.7476L0 3.61311Z" id="path1062" fill="url(#gradient_1)" fill-rule="evenodd" stroke="none" />
      <path d="M0 4.56091L0 2.28046C0 1.65073 0.183969 1.11322 0.551909 0.667931C0.919849 0.222645 1.36399 0 1.88434 0L45.1157 0C45.6356 0 46.0801 0.222645 46.448 0.667931C46.816 1.11322 47 1.65073 47 2.28046L47 11.7195C47 12.3492 46.816 12.8868 46.448 13.3321C46.0801 13.7774 45.6356 14 45.1157 14L1.88434 14C1.36399 14 0.919849 13.7774 0.551909 13.3321C0.183969 12.8868 0 12.3492 0 11.7195L0 4.56091Z" transform="translate(0.27297974 0)" id="path1038" fill="url(#gradient_2)" fill-rule="evenodd" stroke="none" />
      <path d="M0 3.31955L0 1.65977C0 1.20143 0.136271 0.810226 0.408813 0.486134C0.681355 0.162045 1.01034 0 1.39577 0L44.5916 0C44.9761 0 45.306 0.162045 45.5782 0.486134C45.8503 0.810226 45.9869 1.20143 45.9869 1.65977L45.9869 11.3271C45.9869 11.7855 45.8503 12.1767 45.5782 12.5008C45.306 12.8249 44.9761 12.9869 44.5916 12.9869L1.39577 12.9869C1.01034 12.9869 0.681355 12.8248 0.408813 12.5008C0.136271 12.1767 0 11.7855 0 11.3271L0 3.31955Z" transform="translate(0.7795105 0.50653076)" id="path1022" fill="none" fill-rule="evenodd" stroke="#0C0706" stroke-width="1.01306" />
      <path d="M2.5 4L0 0L5 0L2.5 4Z" transform="translate(39.27298 5.5)" id="path25235" fill="#F6D537" fill-rule="evenodd" stroke="none" />
      <g id="S&amp;H-Noise-" fill="#F6D537" transform="translate(1.25 1.25)">
        <path d="M27.6544 3.98682Q27.8013 4.11841 28.0304 4.11841Q28.2628 4.11841 28.408 3.98682Q28.5533 3.85522 28.5533 3.65015Q28.5533 3.44507 28.408 3.31348Q28.2628 3.18188 28.0304 3.18188Q27.8013 3.18188 27.6544 3.31348Q27.5074 3.44507 27.5074 3.65015Q27.5074 3.85522 27.6544 3.98682ZM3.39959 7.12622L2.53826 7.12622Q2.57244 7.79614 3.09368 8.19263Q3.61492 8.58911 4.46258 8.58911Q5.35809 8.58911 5.87933 8.17041Q6.40057 7.75171 6.40057 7.03052Q6.40057 6.46655 6.0639 6.13501Q5.72723 5.80347 4.97869 5.63599L4.41131 5.5061Q3.9533 5.40015 3.75164 5.24463Q3.54998 5.08911 3.54998 4.8396Q3.54998 4.52515 3.80804 4.33545Q4.06609 4.14575 4.49334 4.14575Q4.90008 4.14575 5.16668 4.33716Q5.43328 4.52856 5.47771 4.85327L6.32195 4.85327Q6.29119 4.21753 5.78191 3.81421Q5.27264 3.41089 4.49676 3.41089Q3.66961 3.41089 3.16546 3.81934Q2.66131 4.22778 2.66131 4.90112Q2.66131 5.45142 2.98431 5.7915Q3.3073 6.13159 3.97723 6.28198L4.61639 6.42896Q5.09148 6.53833 5.30511 6.70581Q5.51873 6.87329 5.51873 7.13989Q5.51873 7.45093 5.23675 7.65088Q4.95476 7.85083 4.51727 7.85083Q4.049 7.85083 3.7448 7.6543Q3.44061 7.45776 3.39959 7.12622ZM10.0901 8.03198L10.4968 8.46606L11.488 8.46606L10.596 7.51929Q11.0095 6.92456 11.0095 5.94702L11.0095 5.72144L10.2678 5.72144L10.2678 5.90601Q10.2678 6.59985 10.073 6.96216L9.02369 5.85132Q9.55689 5.56763 9.80299 5.2583Q10.0491 4.94897 10.0491 4.56958Q10.0491 4.07398 9.67311 3.75781Q9.29713 3.44165 8.71266 3.44165Q8.1316 3.44165 7.74708 3.76465Q7.36256 4.08765 7.36256 4.57983Q7.36256 4.84985 7.5027 5.10962Q7.64283 5.36939 7.97779 5.71802Q7.95728 5.72827 7.87013 5.77612Q7.78297 5.82397 7.7693 5.83081Q7.28736 6.09058 7.05836 6.41528Q6.82936 6.73999 6.82936 7.16724Q6.82936 7.79614 7.29762 8.17725Q7.76588 8.55835 8.53492 8.55835Q8.98609 8.55835 9.39283 8.41992Q9.79957 8.28149 10.0901 8.03198ZM16.0184 8.46606L15.14 8.46606L15.14 6.33667L12.7406 6.33667L12.7406 8.46606L11.8587 8.46606L11.8587 3.53394L12.7406 3.53394L12.7406 5.57446L15.14 5.57446L15.14 3.53394L16.0184 3.53394L16.0184 8.46606ZM18.7714 8.46606L19.6225 8.46606L19.6225 5.10962L19.6806 5.10962L22.1005 8.46606L22.8627 8.46606L22.8627 3.53394L22.0151 3.53394L22.0151 6.88696L21.957 6.88696L19.537 3.53394L18.7714 3.53394L18.7714 8.46606ZM9.14845 5.04468Q8.98609 5.22925 8.6067 5.42065Q8.3401 5.16089 8.23243 4.98315Q8.12477 4.80542 8.12477 4.62427Q8.12477 4.37476 8.29054 4.21582Q8.45631 4.05688 8.71607 4.05688Q8.97926 4.05688 9.14503 4.21411Q9.3108 4.37134 9.3108 4.62427Q9.3108 4.86011 9.14845 5.04468ZM25.2773 8.54126Q24.4365 8.54126 23.958 8.02344Q23.4795 7.50562 23.4795 6.59644Q23.4795 5.69409 23.9614 5.17285Q24.4434 4.65161 25.2773 4.65161Q26.1147 4.65161 26.595 5.17114Q27.0752 5.69067 27.0752 6.59644Q27.0752 7.50562 26.595 8.02344Q26.1147 8.54126 25.2773 8.54126ZM29.088 5.79663Q29.088 5.29077 29.505 4.97119Q29.922 4.65161 30.5851 4.65161Q31.2516 4.65161 31.6498 4.93359Q32.048 5.21558 32.0924 5.72485L31.2961 5.72485Q31.2482 5.52319 31.0653 5.40869Q30.8825 5.29419 30.5885 5.29419Q30.2946 5.29419 30.1032 5.42065Q29.9118 5.54712 29.9118 5.74878Q29.9118 5.90601 30.0468 6.00854Q30.1818 6.11108 30.4655 6.17603L31.1252 6.32642Q31.6652 6.44946 31.9181 6.69214Q32.1711 6.93481 32.1711 7.34497Q32.1711 7.88159 31.7267 8.21143Q31.2824 8.54126 30.5783 8.54126Q29.8776 8.54126 29.4589 8.25415Q29.0402 7.96704 28.9923 7.45776L29.8297 7.45776Q29.8913 7.66968 30.0878 7.78418Q30.2843 7.89868 30.5988 7.89868Q30.9201 7.89868 31.1217 7.77051Q31.3234 7.64233 31.3234 7.43384Q31.3234 7.1228 30.8073 7.01001L30.1442 6.8562Q29.6042 6.73315 29.3461 6.4751Q29.088 6.21704 29.088 5.79663ZM35.9392 7.43726L35.136 7.43726Q34.9446 7.86792 34.302 7.86792Q33.885 7.86792 33.6338 7.59619Q33.3826 7.32446 33.3655 6.8562L33.3655 6.81177L35.9768 6.81177L35.9768 6.53833Q35.9768 5.65308 35.5239 5.15234Q35.071 4.65161 34.2712 4.65161Q33.4578 4.65161 32.9861 5.17969Q32.5144 5.70776 32.5144 6.61011Q32.5144 7.51245 32.9844 8.02686Q33.4543 8.54126 34.2781 8.54126Q34.9343 8.54126 35.3769 8.24561Q35.8196 7.94995 35.9392 7.43726ZM28.4542 4.72681L27.6099 4.72681L27.6099 8.46606L28.4542 8.46606L28.4542 4.72681ZM33.6423 5.57446Q33.8884 5.32495 34.2678 5.32495Q34.6506 5.32495 34.883 5.57104Q35.1155 5.81714 35.1291 6.23413L33.3689 6.23413Q33.3962 5.82397 33.6423 5.57446ZM24.5903 7.50732Q24.833 7.83032 25.2773 7.83032Q25.7217 7.83032 25.9626 7.50732Q26.2036 7.18433 26.2036 6.59644Q26.2036 6.01196 25.9609 5.68726Q25.7183 5.36255 25.2773 5.36255Q24.833 5.36255 24.5903 5.68726Q24.3477 6.01196 24.3477 6.59644Q24.3477 7.18433 24.5903 7.50732ZM7.64625 7.09888Q7.64625 6.59302 8.24439 6.27515Q8.33326 6.22388 8.3982 6.19995L9.62525 7.51587Q9.45777 7.69019 9.18604 7.79272Q8.91432 7.89526 8.62037 7.89526Q8.18287 7.89526 7.91456 7.6748Q7.64625 7.45435 7.64625 7.09888Z" />
      </g>
    </g>
    <g id="WT" transform="translate(0.72702026 38)">
      <path d="M0 3.61311L0 1.80655C0 1.30768 0.138375 0.881878 0.415123 0.529125C0.691871 0.176376 1.02594 0 1.41731 0L46.3832 0C46.7736 0 47.1085 0.176376 47.3849 0.529129C47.6613 0.881882 47.8 1.30769 47.8 1.80655L47.8 12.7476C47.7352 13.8255 47.2165 14.2337 46.3832 14.5542L1.41731 14.5542C0.354742 14.3586 0.17727 13.5867 0 12.7476L0 3.61311Z" id="path1058" fill="url(#gradient_1)" fill-rule="evenodd" stroke="none" />
      <path d="M0 4.56091L0 2.28046C0 1.65073 0.183969 1.11322 0.551909 0.667931C0.919849 0.222645 1.36399 0 1.88434 0L45.1157 0C45.6356 0 46.0801 0.222645 46.448 0.667931C46.816 1.11322 47 1.65073 47 2.28046L47 11.7195C47 12.3492 46.816 12.8868 46.448 13.3321C46.0801 13.7774 45.6356 14 45.1157 14L1.88434 14C1.36399 14 0.919849 13.7774 0.551909 13.3321C0.183969 12.8868 0 12.3492 0 11.7195L0 4.56091Z" transform="translate(0.27297974 0)" id="path1034" fill="url(#gradient_2)" fill-rule="evenodd" stroke="none" />
      <path d="M0 3.31955L0 1.65977C0 1.20143 0.136271 0.810226 0.408813 0.486134C0.681355 0.162045 1.01034 0 1.39577 0L44.5916 0C44.9761 0 45.306 0.162045 45.5782 0.486134C45.8503 0.810226 45.9869 1.20143 45.9869 1.65977L45.9869 11.3271C45.9869 11.7855 45.8503 12.1767 45.5782 12.5008C45.306 12.8249 44.9761 12.9869 44.5916 12.9869L1.39577 12.9869C1.01034 12.9869 0.681355 12.8249 0.408813 12.5008C0.136271 12.1767 0 11.7855 0 11.3271L0 3.31955Z" transform="translate(0.7795105 0.50653076)" id="path1020" fill="none" fill-rule="evenodd" stroke="#0C0706" stroke-width="1.01306" />
      <path d="M2.5 4L0 0L5 0L2.5 4Z" transform="translate(39.27298 5.5)" id="path25233" fill="#F6D537" fill-rule="evenodd" stroke="none" />
      <g id="WT-" fill="#F6D537" transform="translate(1.25 1.25)">
        <path d="M15.7651 8.46606L16.7632 4.9729L16.8145 4.9729L17.8193 8.46606L18.6465 8.46606L19.9692 3.53394L19.0566 3.53394L18.2124 7.20483L18.1646 7.20483L17.1802 3.53394L16.3975 3.53394L15.4268 7.20483L15.3755 7.20483L14.5313 3.53394L13.6118 3.53394L14.9346 8.46606L15.7651 8.46606ZM22.1055 8.46606L22.9873 8.46606L22.9873 4.29614L24.5083 4.29614L24.5083 3.53394L20.5879 3.53394L20.5879 4.29614L22.1055 4.29614L22.1055 8.46606Z" />
      </g>
    </g>
    <g id="Sine" transform="translate(0.72702026 20)">
      <path d="M0 3.61312L0 1.80655C0 1.30769 0.138375 0.881882 0.415123 0.529129C0.691871 0.176376 1.02594 0 1.41731 0L46.3832 0C46.7736 0 47.1085 0.176376 47.3849 0.529127C47.6613 0.88188 47.8 1.30768 47.8 1.80655L47.8 12.7476C47.7352 13.8255 47.2165 14.2337 46.3832 14.5542L1.41731 14.5542C0.354742 14.3586 0.17727 13.5867 0 12.7476L0 3.61312Z" id="path1054" fill="url(#gradient_1)" fill-rule="evenodd" stroke="none" />
      <path d="M0 4.56091L0 2.28046C0 1.65073 0.183969 1.11322 0.551909 0.667931C0.919849 0.222645 1.36399 0 1.88434 0L45.1157 0C45.6356 0 46.0801 0.222645 46.448 0.667931C46.816 1.11322 47 1.65073 47 2.28046L47 11.7195C47 12.3492 46.816 12.8868 46.448 13.3321C46.0801 13.7774 45.6356 14 45.1157 14L1.88434 14C1.36399 14 0.919849 13.7774 0.551909 13.3321C0.183969 12.8868 0 12.3492 0 11.7195L0 4.56091Z" transform="translate(0.27297974 0)" id="path1030" fill="url(#gradient_2)" fill-rule="evenodd" stroke="none" />
      <path d="M0 3.31954L0 1.65977C0 1.20143 0.136271 0.810226 0.408813 0.486135C0.681355 0.162046 1.01034 0 1.39577 0L44.5916 0C44.9761 0 45.306 0.162046 45.5782 0.486135C45.8503 0.810226 45.9869 1.20143 45.9869 1.65977L45.9869 11.3271C45.9869 11.7855 45.8503 12.1767 45.5782 12.5008C45.306 12.8249 44.9761 12.9869 44.5916 12.9869L1.39577 12.9869C1.01034 12.9869 0.681355 12.8249 0.408813 12.5008C0.136271 12.1767 0 11.7855 0 11.3271L0 3.31954Z" transform="translate(0.7795105 0.50653076)" id="path1011" fill="none" fill-rule="evenodd" stroke="#0C0706" stroke-width="1.01306" />
      <path d="M2.5 4L0 0L5 0L2.5 4Z" transform="translate(39.27298 5.5)" id="path25231" fill="#F6D537" fill-rule="evenodd" stroke="none" />
      <g id="Sine-" fill="#F6D537" transform="translate(1.2700005 1.25)">
        <path d="M16.7991 3.98682Q16.946 4.11841 17.175 4.11841Q17.4075 4.11841 17.5527 3.98682Q17.698 3.85522 17.698 3.65015Q17.698 3.44507 17.5527 3.31348Q17.4075 3.18188 17.175 3.18188Q16.946 3.18188 16.7991 3.31348Q16.6521 3.44507 16.6521 3.65015Q16.6521 3.85522 16.7991 3.98682ZM12.8411 7.12622L11.9797 7.12622Q12.0139 7.79614 12.5352 8.19263Q13.0564 8.58911 13.9041 8.58911Q14.7996 8.58911 15.3208 8.17041Q15.842 7.75171 15.842 7.03052Q15.842 6.46655 15.5054 6.13501Q15.1687 5.80347 14.4202 5.63599L13.8528 5.5061Q13.3948 5.40015 13.1931 5.24463Q12.9915 5.08911 12.9915 4.8396Q12.9915 4.52515 13.2495 4.33545Q13.5076 4.14575 13.9348 4.14575Q14.3416 4.14575 14.6082 4.33716Q14.8748 4.52856 14.9192 4.85327L15.7634 4.85327Q15.7327 4.21753 15.2234 3.81421Q14.7141 3.41089 13.9382 3.41089Q13.1111 3.41089 12.6069 3.81934Q12.1028 4.22778 12.1028 4.90112Q12.1028 5.45142 12.4258 5.7915Q12.7488 6.13159 13.4187 6.28198L14.0579 6.42896Q14.533 6.53833 14.7466 6.70581Q14.9602 6.87329 14.9602 7.13989Q14.9602 7.45093 14.6782 7.65088Q14.3962 7.85083 13.9587 7.85083Q13.4905 7.85083 13.1863 7.6543Q12.8821 7.45776 12.8411 7.12622ZM18.6482 8.46606L18.6482 4.72681L19.4651 4.72681L19.4651 5.32495L19.5232 5.32495Q19.6599 5.00366 19.9419 4.82764Q20.2239 4.65161 20.634 4.65161Q21.2561 4.65161 21.5894 5.01392Q21.9226 5.37622 21.9226 6.04614L21.9226 8.46606L21.075 8.46606L21.075 6.2478Q21.075 5.38989 20.3196 5.38989Q19.9402 5.38989 19.718 5.63257Q19.4958 5.87524 19.4958 6.28882L19.4958 8.46606L18.6482 8.46606ZM26.1677 7.43726L25.3645 7.43726Q25.1731 7.86792 24.5305 7.86792Q24.1135 7.86792 23.8623 7.59619Q23.6111 7.32446 23.594 6.8562L23.594 6.81177L26.2053 6.81177L26.2053 6.53833Q26.2053 5.65308 25.7524 5.15234Q25.2996 4.65161 24.4998 4.65161Q23.6863 4.65161 23.2146 5.17969Q22.7429 5.70776 22.7429 6.61011Q22.7429 7.51245 23.2129 8.02686Q23.6829 8.54126 24.5066 8.54126Q25.1628 8.54126 25.6055 8.24561Q26.0481 7.94995 26.1677 7.43726ZM16.7546 4.72681L16.7546 8.46606L17.5989 8.46606L17.5989 4.72681L16.7546 4.72681ZM23.8708 5.57446Q24.1169 5.32495 24.4963 5.32495Q24.8792 5.32495 25.1116 5.57104Q25.344 5.81714 25.3577 6.23413L23.5974 6.23413Q23.6248 5.82397 23.8708 5.57446Z" />
      </g>
    </g>
    <g id="Classic" transform="translate(0.72702026 2)">
      <path d="M0 3.61311L0 1.80655C0 1.30768 0.138375 0.88188 0.415123 0.529128C0.691871 0.176376 1.02594 0 1.41731 0L46.3832 0C46.7736 0 47.1085 0.176376 47.3849 0.529128C47.6613 0.88188 47.8 1.30769 47.8 1.80655L47.8 12.7476C47.7352 13.8255 47.2165 14.2337 46.3832 14.5542L1.41731 14.5542C0.354742 14.3586 0.17727 13.5867 0 12.7476L0 3.61311Z" id="path25164" fill="url(#gradient_1)" fill-rule="evenodd" stroke="none" />
      <path d="M0 4.56091L0 2.28046C0 1.65073 0.183969 1.11322 0.551909 0.667931C0.919849 0.222644 1.36399 0 1.88434 0L45.1157 0C45.6356 0 46.0801 0.222644 46.448 0.667931C46.816 1.11322 47 1.65073 47 2.28046L47 11.7195C47 12.3492 46.816 12.8868 46.448 13.3321C46.0801 13.7774 45.6356 14 45.1157 14L1.88434 14C1.36399 14 0.919849 13.7774 0.551909 13.3321C0.183969 12.8868 0 12.3492 0 11.7195L0 4.56091Z" transform="translate(0.27297974 0)" id="path25160" fill="url(#gradient_2)" fill-rule="evenodd" stroke="none" />
      <path d="M0 3.32016L0 1.66007C0 1.20166 0.136288 0.810376 0.408864 0.486225C0.68144 0.162075 1.01047 0 1.39594 0L44.5939 0C44.9784 0 45.3083 0.162075 45.5805 0.486225C45.8527 0.810376 45.9893 1.20166 45.9893 1.66007L45.9893 11.3292C45.9893 11.7877 45.8527 12.179 45.5805 12.5031C45.3083 12.8272 44.9784 12.9893 44.5939 12.9893L1.39594 12.9893C1.01047 12.9893 0.68144 12.8272 0.408864 12.5031C0.136288 12.179 1.19209e-07 11.7877 1.19209e-07 11.3292L0 3.32016Z" transform="translate(0.7783203 0.5053253)" id="path25158" fill="none" fill-rule="evenodd" stroke="#0C0706" stroke-width="1.01066" />
      <path d="M2.5 4L0 0L5 4.76837e-07L2.5 4Z" transform="translate(39.27298 5.5)" id="Shape" fill="#F6D537" fill-rule="evenodd" stroke="none" />
      <g id="Classic-" fill="#F6D537" transform="translate(1.2729797 1.25)">
        <path d="M26.4531 4.11841Q26.2241 4.11841 26.0771 3.98682Q25.9302 3.85522 25.9302 3.65015Q25.9302 3.44507 26.0771 3.31348Q26.2241 3.18188 26.4531 3.18188Q26.6855 3.18188 26.8308 3.31348Q26.9761 3.44507 26.9761 3.65015Q26.9761 3.85522 26.8308 3.98682Q26.6855 4.11841 26.4531 4.11841ZM12.3643 8.46606L12.3643 3.28101L13.2119 3.28101L13.2119 8.46606L12.3643 8.46606ZM9.35303 8.58911Q8.30371 8.58911 7.69531 7.89355Q7.08691 7.198 7.08691 6.00171Q7.08691 4.79858 7.6936 4.10474Q8.30029 3.41089 9.34961 3.41089Q10.1904 3.41089 10.7749 3.90479Q11.3594 4.39868 11.438 5.17114L10.5698 5.17114Q10.4775 4.72681 10.146 4.46191Q9.81445 4.19702 9.34961 4.19702Q8.7207 4.19702 8.35498 4.68066Q7.98926 5.16431 7.98926 5.99829Q7.98926 6.83228 8.35498 7.31763Q8.7207 7.80298 9.35303 7.80298Q9.82129 7.80298 10.1528 7.55859Q10.4844 7.31421 10.5732 6.90063L11.4414 6.90063Q11.3525 7.65942 10.7783 8.12427Q10.2041 8.58911 9.35303 8.58911ZM14.4185 8.21997Q14.7637 8.52759 15.3105 8.52759Q15.6763 8.52759 15.9685 8.37549Q16.2607 8.22339 16.418 7.95337L16.4761 7.95337L16.4761 8.46606L17.293 8.46606L17.293 5.91284Q17.293 5.3147 16.9016 4.98315Q16.5103 4.65161 15.7925 4.65161Q15.126 4.65161 14.697 4.94385Q14.2681 5.23608 14.2168 5.73169L15.0166 5.73169Q15.0747 5.5437 15.2661 5.44287Q15.4575 5.34204 15.7515 5.34204Q16.0933 5.34204 16.2744 5.48901Q16.4556 5.63599 16.4556 5.91284L16.4556 6.22729L15.4917 6.2854Q14.8081 6.32642 14.4407 6.61353Q14.0732 6.90063 14.0732 7.40649Q14.0732 7.91235 14.4185 8.21997ZM18.2261 5.79663Q18.2261 5.29077 18.6431 4.97119Q19.0601 4.65161 19.7231 4.65161Q20.3896 4.65161 20.7878 4.93359Q21.186 5.21558 21.2305 5.72485L20.4341 5.72485Q20.3862 5.52319 20.2034 5.40869Q20.0205 5.29419 19.7266 5.29419Q19.4326 5.29419 19.2412 5.42065Q19.0498 5.54712 19.0498 5.74878Q19.0498 5.90601 19.1848 6.00854Q19.3198 6.11108 19.6035 6.17603L20.2632 6.32642Q20.8032 6.44946 21.0562 6.69214Q21.3091 6.93481 21.3091 7.34497Q21.3091 7.88159 20.8647 8.21143Q20.4204 8.54126 19.7163 8.54126Q19.0156 8.54126 18.5969 8.25415Q18.1782 7.96704 18.1304 7.45776L18.9678 7.45776Q19.0293 7.66968 19.2258 7.78418Q19.4224 7.89868 19.7368 7.89868Q20.0581 7.89868 20.2598 7.77051Q20.4614 7.64233 20.4614 7.43384Q20.4614 7.1228 19.9453 7.01001L19.2822 6.8562Q18.7422 6.73315 18.4841 6.4751Q18.2261 6.21704 18.2261 5.79663ZM22.4985 4.97119Q22.0815 5.29077 22.0815 5.79663Q22.0815 6.21704 22.3396 6.4751Q22.5977 6.73315 23.1377 6.8562L23.8008 7.01001Q24.3169 7.1228 24.3169 7.43384Q24.3169 7.64233 24.1152 7.77051Q23.9136 7.89868 23.5923 7.89868Q23.2778 7.89868 23.0813 7.78418Q22.8848 7.66968 22.8232 7.45776L21.9858 7.45776Q22.0337 7.96704 22.4524 8.25415Q22.8711 8.54126 23.5718 8.54126Q24.2759 8.54126 24.7202 8.21143Q25.1646 7.88159 25.1646 7.34497Q25.1646 6.93481 24.9116 6.69214Q24.6587 6.44946 24.1187 6.32642L23.459 6.17603Q23.1753 6.11108 23.0403 6.00854Q22.9053 5.90601 22.9053 5.74878Q22.9053 5.54712 23.0967 5.42065Q23.2881 5.29419 23.582 5.29419Q23.876 5.29419 24.0588 5.40869Q24.2417 5.52319 24.2896 5.72485L25.0859 5.72485Q25.0415 5.21558 24.6433 4.93359Q24.2451 4.65161 23.5786 4.65161Q22.9155 4.65161 22.4985 4.97119ZM30.3496 5.98462L31.1563 5.98462Q31.0879 5.37964 30.6589 5.01563Q30.23 4.65161 29.5259 4.65161Q28.6851 4.65161 28.2134 5.1626Q27.7417 5.67358 27.7417 6.58618Q27.7417 7.50903 28.2134 8.02515Q28.6851 8.54126 29.5293 8.54126Q30.2266 8.54126 30.6555 8.18579Q31.0845 7.83032 31.1563 7.23218L30.3496 7.23218Q30.2847 7.52271 30.071 7.67651Q29.8574 7.83032 29.5259 7.83032Q29.0918 7.83032 28.8457 7.5022Q28.5996 7.17407 28.5996 6.58618Q28.5996 6.00513 28.844 5.68384Q29.0884 5.36255 29.5259 5.36255Q29.8643 5.36255 30.0762 5.53174Q30.2881 5.70093 30.3496 5.98462ZM26.0327 8.46606L26.0327 4.72681L26.877 4.72681L26.877 8.46606L26.0327 8.46606ZM16.1992 7.64063Q15.9429 7.86108 15.5601 7.86108Q15.2729 7.86108 15.0935 7.72607Q14.9141 7.59106 14.9141 7.35864Q14.9141 6.89722 15.6113 6.85278L16.4556 6.7981L16.4556 7.09546Q16.4556 7.42017 16.1992 7.64063Z" />
      </g>
    </g>
  </g>
</svg>