<?xml version="1.0" encoding="utf-8"?>
<svg width="131px" height="33px" viewbox="0 0 131 33" version="1.1" xmlns:xlink="http://www.w3.org/1999/xlink" xmlns="http://www.w3.org/2000/svg">
  <defs>
    <linearGradient x1="0.5" y1="0" x2="0.5" y2="1" id="gradient_1">
      <stop offset="0" stop-color="#413F40" />
      <stop offset="1" stop-color="#464141" />
    </linearGradient>
    <rect width="131" height="33" id="artboard_1" />
    <clipPath id="clip_1">
      <use xlink:href="#artboard_1" clip-rule="evenodd" />
    </clipPath>
  </defs>
  <g id="hoverOn00161" clip-path="url(#clip_1)">
    <g id="Group" transform="translate(43.99994 11)">
      <g id="Group" transform="translate(0.25 0.25)">
        <path d="M0 0L42 0L42 9.999L0 9.999L0 0Z" transform="translate(0.25 0.25)" id="Rectangle" fill="url(#gradient_1)" fill-rule="evenodd" stroke="none" />
        <path d="M0 0L42.5 0L42.5 10.499L0 10.499L0 0Z" id="Rectangle" fill="none" fill-rule="evenodd" stroke="#4E4752" stroke-width="0.5" />
      </g>
      <path d="M43 1L0 1L0 0L43 0L43 1L43 1Z" transform="translate(0.0009765625 10.5)" id="Shape" fill="#000000" fill-opacity="0.4" fill-rule="evenodd" stroke="none" />
      <path d="M43 1L0 1L0 0L43 0L43 1L43 1Z" id="Shape" fill="#FFFFFF" fill-opacity="0.1" fill-rule="evenodd" stroke="none" />
      <path d="M0 0L42 0L42 9.999L0 9.999L0 0Z" transform="translate(0.5 0.5)" id="Rectangle" fill="#FFFFFF" fill-opacity="0.1" fill-rule="evenodd" stroke="none" />
      <path d="M0.695999 5.883L0.695999 1.512L0.758999 1.512L3.817 5.883L4.501 5.883L4.501 0.245999L3.801 0.245999L3.801 4.633L3.743 4.633L0.684002 0.245999L0 0.245999L0 5.883L0.695999 5.883ZM7.532 2.192C7.85125 2.19119 8.15603 2.32511 8.37136 2.56081C8.58669 2.79651 8.69259 3.11212 8.663 3.43L6.343 3.43C6.33276 3.10711 6.45313 2.79373 6.67691 2.56073C6.90068 2.32773 7.20895 2.1948 7.53199 2.192L7.532 2.192ZM8.641 4.792C8.43017 5.18675 7.99965 5.41272 7.555 5.362C6.84 5.362 6.375 4.835 6.34 4.003L6.34 3.973L9.363 3.973L9.363 3.715C9.363 2.406 8.672 1.598 7.535 1.598C6.98145 1.60184 6.45634 1.84379 6.09376 2.26208C5.73118 2.68038 5.56622 3.23451 5.641 3.783C5.641 5.115 6.371 5.959 7.541 5.959C8.33309 6.03832 9.07242 5.55183 9.313 4.793L8.641 4.792ZM13.829 1.672L13.157 1.672L13.157 4.164C13.1949 4.48153 13.0873 4.79918 12.8642 5.02829C12.6411 5.2574 12.3264 5.37343 12.008 5.344C11.336 5.344 11.055 4.992 11.055 4.235L11.055 1.672L10.383 1.672L10.383 4.399C10.383 5.399 10.875 5.958 11.821 5.958C12.3667 6.00916 12.8869 5.7162 13.126 5.223L13.188 5.223L13.188 5.883L13.829 5.883L13.829 1.672ZM15.376 0.582999L15.376 1.673L14.696 1.673L14.696 2.236L15.376 2.236L15.376 4.791C15.376 5.591 15.724 5.916 16.591 5.916C16.7236 5.91466 16.8557 5.90161 16.986 5.877L16.986 5.309C16.8824 5.32006 16.7782 5.3254 16.674 5.325C16.237 5.325 16.049 5.114 16.049 4.618L16.049 2.235L16.987 2.235L16.987 1.673L16.047 1.673L16.047 0.582999L15.376 0.582999ZM18.001 5.883L18.673 5.883L18.673 3.274C18.6742 2.98846 18.7938 2.71621 19.0032 2.52212C19.2127 2.32804 19.4932 2.2295 19.778 2.25C19.9221 2.2515 20.0659 2.26454 20.208 2.289L20.208 1.617C20.0965 1.6038 19.9843 1.59712 19.872 1.597C19.3734 1.55827 18.9049 1.83907 18.704 2.297L18.641 2.297L18.641 1.672L18.001 1.672L18.001 5.883ZM22.344 5.367C21.856 5.367 21.492 5.117 21.492 4.687C21.492 4.257 21.773 4.042 22.414 4L23.547 3.926L23.547 4.313C23.5334 4.6146 23.3974 4.89761 23.1703 5.09656C22.9432 5.29552 22.6448 5.39319 22.344 5.367L22.344 5.367ZM22.219 5.957C22.7473 5.97719 23.245 5.7092 23.519 5.257L23.582 5.257L23.582 5.883L24.223 5.883L24.223 3C24.223 2.125 23.649 1.6 22.623 1.6C21.723 1.6 21.061 2.045 20.971 2.721L21.651 2.721C21.745 2.389 22.096 2.198 22.6 2.198C23.229 2.198 23.553 2.483 23.553 2.998L23.553 3.383L22.333 3.457C21.353 3.516 20.798 3.949 20.798 4.703C20.8034 5.06373 20.9607 5.40545 21.2313 5.64417C21.5018 5.88289 21.8604 5.99647 22.219 5.957L22.219 5.957ZM25.501 5.883L26.501 5.883L26.501 0L25.501 0L25.501 5.883Z" transform="translate(8.937012 2.6170044)" id="Shape" fill="#FCE237" fill-rule="evenodd" stroke="none" />
    </g>
    <g id="Group" transform="translate(87.99994 22)">
      <g id="Group" transform="translate(0.25 0.25)">
        <path d="M0 0L41 0C41.5523 0 42 0.447716 42 1L42 9C42 9.55228 41.5523 10 41 10L0 10L0 0L0 0Z" transform="translate(0.25 0.25)" id="Shape" fill="url(#gradient_1)" fill-rule="evenodd" stroke="none" />
        <path d="M0.25 0L41.25 0C41.9404 0 42.5 0.559645 42.5 1.25L42.5 9.25C42.4995 9.93993 41.94 10.499 41.25 10.499L0.25 10.499C0.11232 10.499 0.000549316 10.3877 0 10.25L0 0.25C0 0.111929 0.111931 0 0.25 0L0.25 0Z" id="Shape" fill="none" fill-rule="evenodd" stroke="#4E4752" stroke-width="0.5" />
      </g>
      <path d="M41.5 1.987L0 1.987L0 1.487L41.5 1.487C42.3234 1.48703 42.9929 0.823345 43 0L43 0.487C43 1.31543 42.3284 1.987 41.5 1.987L41.5 1.987Z" transform="translate(0.0009765625 9.014008)" id="Shape" fill="#000000" fill-opacity="0.4" fill-rule="evenodd" stroke="none" />
      <path d="M43 1.993L43 1.993C42.9961 1.16728 42.3257 0.499977 41.5 0.5L0 0.5L0 0L41.5 0C42.3284 0 43 0.671574 43 1.5L43 1.993Z" id="Shape" fill="#FFFFFF" fill-opacity="0.1" fill-rule="evenodd" stroke="none" />
      <path d="M0 0L41 0C41.5523 0 42 0.447716 42 1L42 9C42 9.55228 41.5523 10 41 10L0 10L0 0L0 0Z" transform="translate(0.5 0.5)" id="Shape" fill="#FFFFFF" fill-opacity="0.1" fill-rule="evenodd" stroke="none" />
      <path d="M2.199 6C3.399 6 4.109 5.41 4.109 4.418C4.12914 3.6961 3.57195 3.08888 2.851 3.047L2.851 2.985C3.41995 2.85801 3.82441 2.35295 3.824 1.77C3.824 0.907 3.191 0.364 2.156 0.364L0 0.364L0 6L2.199 6ZM0.698997 0.984001L1.999 0.984001C2.699 0.984001 3.104 1.316 3.104 1.89C3.104 2.49 2.67 2.79 1.819 2.79L0.703003 2.79L0.698997 0.984001ZM0.698997 5.379L0.698997 3.4L2.02299 3.4C2.923 3.4 3.382 3.732 3.382 4.384C3.382 5.036 2.937 5.384 2.089 5.384L0.698997 5.379ZM5.171 6L5.843 6L5.843 3.391C5.84418 3.10526 5.9639 2.83284 6.17356 2.63872C6.38322 2.44461 6.66405 2.34621 6.94902 2.367C7.09315 2.3685 7.23695 2.38154 7.379 2.406L7.379 1.734C7.26749 1.7208 7.15529 1.71412 7.043 1.714C6.54443 1.67527 6.0759 1.95607 5.875 2.414L5.813 2.414L5.813 1.789L5.172 1.789L5.171 6ZM8.234 6L9.234 6L9.234 1.789L8.234 1.789L8.234 6ZM8.601 1C8.87689 0.999412 9.10041 0.774939 9.101 0.497859C9.09808 0.222449 8.87524 0.000567712 8.60099 0C8.3251 0.000590175 8.10158 0.225061 8.101 0.502141C8.10392 0.777545 8.32675 0.999428 8.601 1L8.601 1ZM11.89 5.344C11.109 5.344 10.671 4.75 10.671 3.832C10.671 2.914 11.109 2.32 11.89 2.32C12.671 2.32 13.14 2.914 13.14 3.832C13.14 4.75 12.671 5.344 11.89 5.344L11.89 5.344ZM11.921 7.617C13.069 7.617 13.796 7.017 13.796 6.074L13.796 1.789L13.156 1.789L13.156 2.457L13.093 2.457C12.8125 1.9805 12.2936 1.69575 11.741 1.715C10.659 1.715 9.975 2.57 9.975 3.832C9.975 5.094 10.652 5.938 11.742 5.938C12.2827 5.95879 12.7906 5.67907 13.062 5.211L13.125 5.211L13.125 6.039C13.125 6.66 12.676 7.031 11.925 7.031C11.316 7.031 10.941 6.809 10.867 6.465L10.156 6.465C10.257 7.16 10.906 7.617 11.921 7.617L11.921 7.617ZM15.101 6L15.773 6L15.773 3.508C15.7421 3.18801 15.8545 2.87076 16.0798 2.64152C16.3052 2.41228 16.6205 2.29456 16.941 2.32C17.578 2.32 17.914 2.691 17.914 3.437L17.914 6L18.583 6L18.583 3.273C18.6335 2.86528 18.501 2.4561 18.221 2.15546C17.941 1.85481 17.5423 1.69354 17.132 1.715C16.5871 1.66565 16.0689 1.95984 15.832 2.453L15.773 2.453L15.773 0.117001L15.101 0.117001L15.101 6ZM20.093 0.700001L20.093 1.79L19.413 1.79L19.413 2.353L20.093 2.353L20.093 4.908C20.093 5.708 20.441 6.033 21.308 6.033C21.4406 6.03166 21.5727 6.01861 21.703 5.994L21.703 5.426C21.5994 5.43706 21.4952 5.4424 21.391 5.442C20.954 5.442 20.766 5.231 20.766 4.735L20.766 2.352L21.704 2.352L21.704 1.79L20.767 1.79L20.767 0.700001L20.093 0.700001Z" transform="translate(11.317017 2.5)" id="Shape" fill="#FCE237" fill-rule="evenodd" stroke="none" />
    </g>
    <g id="Group" transform="translate(-3.0517578E-05 0)">
      <g id="Group" transform="translate(0.25 0.24899292)">
        <path d="M1 5.96046e-08L42 5.96046e-08L42 10L1 10C0.447715 10 0 9.55228 0 9L0 1C5.96046e-08 0.447715 0.447715 5.96046e-08 1 5.96046e-08L1 5.96046e-08Z" transform="translate(0.25 0.25)" id="Shape" fill="url(#gradient_1)" fill-rule="evenodd" stroke="none" />
        <path d="M1.25 5.96046e-08L42.25 5.96046e-08C42.3881 5.96046e-08 42.5 0.111929 42.5 0.25L42.5 10.25C42.5 10.3881 42.3881 10.5 42.25 10.5L1.25 10.5C0.559644 10.5 0 9.94036 0 9.25L0 1.25C1.19209e-07 0.559644 0.559644 5.96046e-08 1.25 5.96046e-08L1.25 5.96046e-08Z" id="Shape" fill="none" fill-rule="evenodd" stroke="#4E4752" stroke-width="0.5" />
      </g>
      <path d="M0 0L0 0C0.00440216 0.825308 0.67469 1.49202 1.5 1.492L43 1.492L43 1.992L1.5 1.992C0.671574 1.992 0 1.32043 0 0.492L0 0Z" transform="translate(0 9.006989)" id="Shape" fill="#000000" fill-opacity="0.4" fill-rule="evenodd" stroke="none" />
      <path d="M1.5 0L43 3.62805e-06L43 0.500004L1.5 0.5C0.674301 0.499991 0.00385284 1.16731 0 1.993L0 1.5C0 0.671573 0.671574 -7.24233e-08 1.5 0L1.5 0Z" id="Shape" fill="#FFFFFF" fill-opacity="0.4" fill-rule="evenodd" stroke="none" />
      <path d="M1 5.96046e-08L42 5.96046e-08L42 10L1 10C0.447715 10 0 9.55228 0 9L0 1C5.96046e-08 0.447715 0.447715 5.96046e-08 1 5.96046e-08L1 5.96046e-08Z" transform="translate(0.5 0.49899292)" id="Shape" fill="#FFFFFF" fill-opacity="0.1" fill-rule="evenodd" stroke="none" />
      <path d="M3.496 1.188L3.543 1.188L4.84 5.637L5.504 5.637L7.039 0L6.304 0L5.183 4.582L5.136 4.582L3.874 0L3.164 0L1.902 4.582L1.855 4.582L0.734 0L0 0L1.535 5.637L2.199 5.637L3.496 1.188ZM8.929 5.121C8.441 5.121 8.077 4.871 8.077 4.441C8.077 4.011 8.358 3.796 8.999 3.754L10.132 3.68L10.132 4.067C10.1184 4.3686 9.98236 4.65161 9.75528 4.85056C9.5282 5.04952 9.22977 5.14719 8.929 5.121L8.929 5.121ZM8.804 5.711C9.33233 5.73119 9.83004 5.4632 10.104 5.011L10.164 5.011L10.164 5.637L10.804 5.637L10.804 2.754C10.804 1.879 10.23 1.354 9.204 1.354C8.304 1.354 7.642 1.799 7.552 2.475L8.232 2.475C8.326 2.143 8.677 1.952 9.181 1.952C9.81 1.952 10.134 2.237 10.134 2.752L10.134 3.137L8.919 3.211C7.939 3.27 7.384 3.703 7.384 4.457C7.38947 4.81754 7.54663 5.15908 7.81691 5.39777C8.08719 5.63645 8.44555 5.75017 8.804 5.711L8.804 5.711ZM12.047 5.637L12.719 5.637L12.719 3.028C12.7202 2.74246 12.8398 2.47021 13.0492 2.27612C13.2587 2.08204 13.5392 1.9835 13.824 2.004C13.9681 2.0055 14.1119 2.01854 14.254 2.043L14.254 1.371C14.1425 1.3578 14.0303 1.35112 13.918 1.351C13.4194 1.31227 12.9509 1.59307 12.75 2.051L12.687 2.051L12.687 1.426L12.047 1.426L12.047 5.637ZM15.174 5.637L15.844 5.637L15.844 3.028C15.8299 2.75609 15.9253 2.48987 16.1089 2.2888C16.2925 2.08774 16.5489 1.9686 16.821 1.958C17.05 1.93517 17.2778 2.01208 17.4461 2.16908C17.6144 2.32608 17.7069 2.54795 17.7 2.778L17.7 5.637L18.374 5.637L18.374 2.93C18.3667 2.66908 18.4674 2.41671 18.6524 2.23251C18.8373 2.04832 19.0901 1.94863 19.351 1.957C19.945 1.957 20.238 2.257 20.238 2.883L20.238 5.637L20.91 5.637L20.91 2.727C20.9566 2.35626 20.8318 1.9845 20.571 1.7169C20.3102 1.44931 19.9418 1.31501 19.57 1.352C19.0326 1.3307 18.5299 1.61697 18.274 2.09L18.215 2.09C18.0173 1.62664 17.5544 1.33314 17.051 1.352C16.541 1.32001 16.0674 1.61696 15.874 2.09L15.812 2.09L15.812 1.426L15.174 1.426L15.174 5.637Z" transform="translate(11.425995 2.8619995)" id="Shape" fill="#FCE237" fill-rule="evenodd" stroke="none" />
    </g>
  </g>
</svg>