<?xml version="1.0" encoding="utf-8"?>
<svg width="47px" height="39px" viewBox="0 0 47 39" version="1.1" xmlns:xlink="http://www.w3.org/1999/xlink" xmlns="http://www.w3.org/2000/svg">
  <defs>
    <rect width="47" height="39" id="artboard_1" />
    <clipPath id="clip_1">
      <use xlink:href="#artboard_1" clip-rule="evenodd" />
    </clipPath>
  </defs>
  <g id="hover00122" clip-path="url(#clip_1)">
    <path d="M0.0353394 5.02307L0.0353394 4.02307C0.0353394 3.74693 0.13297 3.51123 0.328232 3.31596C0.523494 3.1207 0.759197 3.02307 1.03534 3.02307L14.0353 3.02307C14.3114 3.02307 14.5471 3.1207 14.7424 3.31596C14.9377 3.51123 15.0353 3.74693 15.0353 4.02307L15.0353 11.0231C15.0353 11.2992 14.9377 11.5349 14.7424 11.7302C14.5471 11.9254 14.3114 12.0231 14.0353 12.0231L1.03534 12.0231C0.759197 12.0231 0.523494 11.9254 0.328232 11.7302C0.13297 11.5349 0.0353394 11.2992 0.0353394 11.0231L0.0353394 5.02307L0.0353394 5.02307Z" id="Rectangle" fill="#9F948F" fill-rule="evenodd" stroke="none" />
    <path d="M0.0353394 1.52307C0.0353394 1.385 0.0841549 1.26715 0.181786 1.16952C0.279417 1.07189 0.397268 1.02307 0.535339 1.02307L14.5353 1.02307C14.6734 1.02307 14.7912 1.07189 14.8889 1.16952C14.9865 1.26715 15.0353 1.385 15.0353 1.52307C15.0353 1.66114 14.9865 1.77899 14.8889 1.87662C14.7912 1.97426 14.6734 2.02307 14.5353 2.02307L0.535339 2.02307C0.397268 2.02307 0.279417 1.97426 0.181786 1.87662C0.0841549 1.77899 0.0353394 1.66114 0.0353394 1.52307L0.0353394 1.52307L0.0353394 1.52307Z" id="Rectangle#1" fill="#9F948F" fill-rule="evenodd" stroke="none" />
    <path d="M7.06134 10.0231L7.82634 10.0231L7.82634 5.09106L7.06434 5.09106L5.76434 6.00706L5.76434 6.79006L7.00134 5.91506L7.06134 5.91506L7.06134 10.0231L7.06134 10.0231Z" id="Shape" fill="#DBD7D7" fill-rule="evenodd" stroke="none" />
    <path d="M16.0353 18.0231L16.0353 17.0231C16.0353 16.7469 16.133 16.5112 16.3282 16.316C16.5235 16.1207 16.7592 16.0231 17.0353 16.0231L30.0353 16.0231C30.3114 16.0231 30.5471 16.1207 30.7424 16.316C30.9377 16.5112 31.0353 16.7469 31.0353 17.0231L31.0353 24.0231C31.0353 24.2992 30.9377 24.5349 30.7424 24.7302C30.5471 24.9254 30.3114 25.0231 30.0353 25.0231L17.0353 25.0231C16.7592 25.0231 16.5235 24.9254 16.3282 24.7302C16.133 24.5349 16.0353 24.2992 16.0353 24.0231L16.0353 18.0231L16.0353 18.0231Z" id="Rectangle#2" fill="#9F948F" fill-rule="evenodd" stroke="none" />
    <path d="M16.0353 14.5231C16.0353 14.385 16.0842 14.2671 16.1818 14.1695C16.2794 14.0719 16.3973 14.0231 16.5353 14.0231L30.5353 14.0231C30.6734 14.0231 30.7912 14.0719 30.8889 14.1695C30.9865 14.2671 31.0353 14.385 31.0353 14.5231C31.0353 14.6611 30.9865 14.779 30.8889 14.8766C30.7912 14.9743 30.6734 15.0231 30.5353 15.0231L16.5353 15.0231C16.3973 15.0231 16.2794 14.9743 16.1818 14.8766C16.0842 14.779 16.0353 14.6611 16.0353 14.5231L16.0353 14.5231L16.0353 14.5231Z" id="Rectangle#3" fill="#9F948F" fill-rule="evenodd" stroke="none" />
    <path d="M21.3644 19.5161L21.3644 19.5261L22.0894 19.5261L22.0894 19.5161C22.0793 19.2744 22.1728 19.04 22.3464 18.8716C22.52 18.7032 22.7571 18.6168 22.9984 18.6341C23.2236 18.6145 23.4471 18.6878 23.617 18.8369C23.7869 18.9861 23.8886 19.1982 23.8984 19.4241C23.8984 19.7861 23.7374 20.0461 23.0784 20.7331L21.4054 22.4691L21.4054 23.0231L24.7274 23.0231L24.7274 22.3361L22.4714 22.3361L22.4714 22.2781L23.5714 21.1671C24.3984 20.3301 24.6514 19.9021 24.6514 19.3791C24.6325 18.9722 24.4473 18.5909 24.139 18.3247C23.8308 18.0584 23.4267 17.9306 23.0214 17.9711C22.592 17.9377 22.1684 18.0859 21.8535 18.3796C21.5385 18.6732 21.3611 19.0855 21.3644 19.5161L21.3644 19.5161L21.3644 19.5161Z" id="Shape#1" fill="#DBD7D7" fill-rule="evenodd" stroke="none" />
    <path d="M32.0353 31.0231L32.0353 30.0231C32.0353 29.7469 32.133 29.5112 32.3282 29.316C32.5235 29.1207 32.7592 29.0231 33.0353 29.0231L46.0353 29.0231C46.3114 29.0231 46.5471 29.1207 46.7424 29.316C46.9377 29.5112 47.0353 29.7469 47.0353 30.0231L47.0353 37.0231C47.0353 37.2992 46.9377 37.5349 46.7424 37.7302C46.5471 37.9254 46.3114 38.0231 46.0353 38.0231L33.0353 38.0231C32.7592 38.0231 32.5235 37.9254 32.3282 37.7302C32.133 37.5349 32.0353 37.2992 32.0353 37.0231L32.0353 31.0231L32.0353 31.0231Z" id="Rectangle#4" fill="#9F948F" fill-rule="evenodd" stroke="none" />
    <path d="M32.0353 27.5231C32.0353 27.385 32.0842 27.2671 32.1818 27.1695C32.2794 27.0719 32.3973 27.0231 32.5353 27.0231L46.5353 27.0231C46.6734 27.0231 46.7912 27.0719 46.8889 27.1695C46.9865 27.2671 47.0353 27.385 47.0353 27.5231C47.0353 27.6611 46.9865 27.779 46.8889 27.8766C46.7912 27.9743 46.6734 28.0231 46.5353 28.0231L32.5353 28.0231C32.3973 28.0231 32.2794 27.9743 32.1818 27.8766C32.0842 27.779 32.0353 27.6611 32.0353 27.5231L32.0353 27.5231L32.0353 27.5231Z" id="Rectangle#5" fill="#9F948F" fill-rule="evenodd" stroke="none" />
    <path d="M38.3983 33.8081L39.0203 33.8081C39.6663 33.8081 40.0663 34.1261 40.0663 34.6351C40.0663 35.1201 39.6423 35.4661 39.0413 35.4661C38.4403 35.4661 38.0353 35.1621 37.9843 34.6831L37.2493 34.6831C37.2842 35.1179 37.4951 35.5197 37.8332 35.7953C38.1714 36.0709 38.6074 36.1965 39.0403 36.1431C39.4757 36.1937 39.913 36.0665 40.2533 35.7904C40.5936 35.5142 40.8082 35.1125 40.8483 34.6761C40.8784 34.0466 40.3946 33.511 39.7653 33.4771L39.7653 33.4231C40.3004 33.3115 40.6746 32.827 40.6473 32.2811C40.6094 31.891 40.4163 31.5325 40.1115 31.2862C39.8067 31.0399 39.4157 30.9263 39.0263 30.9711C38.6086 30.9235 38.19 31.052 37.871 31.3258C37.552 31.5997 37.3615 31.994 37.3453 32.4141L38.0733 32.4141C38.0881 32.1851 38.1957 31.972 38.3713 31.8242C38.5468 31.6764 38.7751 31.6066 39.0033 31.6311C39.5403 31.6311 39.8923 31.9311 39.8923 32.3901C39.8879 32.6176 39.7877 32.8326 39.6163 32.9823C39.4449 33.132 39.2183 33.2023 38.9923 33.1761L38.3923 33.1761L38.3983 33.8081L38.3983 33.8081Z" id="Shape#2" fill="#DBD7D7" fill-rule="evenodd" stroke="none" />
  </g>
</svg>