<?xml version="1.0" encoding="utf-8"?>
<svg width="131px" height="104px" viewbox="0 0 131 104" version="1.1" xmlns:xlink="http://www.w3.org/1999/xlink" xmlns="http://www.w3.org/2000/svg">
  <defs>
    <linearGradient x1="0.5" y1="0" x2="0.5" y2="1" id="gradient_1">
      <stop offset="0" stop-color="#413F40" />
      <stop offset="1" stop-color="#464141" />
    </linearGradient>
    <rect width="131" height="104" id="artboard_1" />
    <clipPath id="clip_1">
      <use xlink:href="#artboard_1" clip-rule="evenodd" />
    </clipPath>
  </defs>
  <g id="hoverOn00144" clip-path="url(#clip_1)">
    <g id="Group" transform="translate(99 78)">
      <g id="Group" transform="translate(0.25 0.25)">
        <path d="M0 0L30 0C30.5523 0 31 0.447716 31 1L31 24C31 24.5523 30.5523 25 30 25L0 25L0 0L0 0Z" transform="translate(0.25 0.25)" id="Shape" fill="url(#gradient_1)" fill-rule="evenodd" stroke="none" />
        <path d="M0.25 0L30.25 0C30.9404 0 31.5 0.559647 31.5 1.25L31.5 24.25C31.5 24.9404 30.9404 25.5 30.25 25.5L0.25 25.5C0.111931 25.5 0 25.3881 0 25.25L0 0.25C0 0.111931 0.111931 0 0.25 0L0.25 0Z" id="Shape" fill="none" fill-rule="evenodd" stroke="#4E4752" stroke-width="0.5" />
      </g>
      <path d="M30.5 1.986L0 1.986L0 1.486L30.5 1.486C31.323 1.48604 31.9923 0.822952 32 0L32 0.486C32 1.31443 31.3284 1.986 30.5 1.986L30.5 1.986Z" transform="translate(0 24.014008)" id="Shape" fill="#000000" fill-opacity="0.4" fill-rule="evenodd" stroke="none" />
      <path d="M32 1.993L32 1.993C31.9961 1.16728 31.3257 0.499977 30.5 0.5L0 0.5L0 0L30.5 0C31.3284 0 32 0.67157 32 1.5L32 1.993Z" id="Shape" fill="#FFFFFF" fill-opacity="0.1" fill-rule="evenodd" stroke="none" />
      <path d="M0 0L30 0C30.5523 0 31 0.447716 31 1L31 24C31 24.5523 30.5523 25 30 25L0 25L0 0L0 0Z" transform="translate(0.5 0.5)" id="Shape" fill="#FFFFFF" fill-opacity="0.1" fill-rule="evenodd" stroke="none" />
      <path d="M4.113 5.883L4.85101 5.883L2.773 0.246002L2.07301 0.246002L0 5.883L0.741005 5.883L1.307 4.27L3.54601 4.27L4.113 5.883ZM2.394 1.15601L2.457 1.15601L3.341 3.672L1.511 3.672L2.394 1.15601ZM5.793 5.883L6.793 5.883L6.793 0L5.793 0L5.793 5.883ZM7.808 5.883L8.808 5.883L8.808 0L7.808 0L7.808 5.883Z" transform="translate(11.559021 10.117004)" id="Shape" fill="#FCE237" fill-rule="evenodd" stroke="none" />
    </g>
    <g id="Group">
      <g id="Group" transform="translate(0.25 0.25)">
        <path d="M1 0L31 0L31 25L1 25C0.447715 25 0 24.5523 0 24L0 1C5.96046e-08 0.447715 0.447715 0 1 0L1 0Z" transform="translate(0.25 0.25)" id="Shape" fill="url(#gradient_1)" fill-rule="evenodd" stroke="none" />
        <path d="M1.25 0L31.25 0C31.3881 0 31.5 0.111929 31.5 0.25L31.5 25.25C31.5 25.3881 31.3881 25.5 31.25 25.5L1.25 25.5C0.559644 25.5 0 24.9404 0 24.25L0 1.25C1.19209e-07 0.559644 0.559644 0 1.25 0L1.25 0Z" id="Shape" fill="none" fill-rule="evenodd" stroke="#4E4752" stroke-width="0.5" />
      </g>
      <path d="M0 0L0 0C0.00440598 0.825308 0.674694 1.49202 1.50001 1.492L32 1.492L32 1.992L1.5 1.992C0.671574 1.992 0 1.32043 0 0.492001L0 0Z" transform="translate(0 24.007996)" id="Shape" fill="#000000" fill-opacity="0.4" fill-rule="evenodd" stroke="none" />
      <path d="M1.5 7.54189e-08L32 2.74181e-06L32 0.500003L1.5 0.5C0.676622 0.499969 0.00713539 1.16365 0 1.987L0 1.5C0 0.671573 0.671574 2.99565e-09 1.5 7.54189e-08L1.5 7.54189e-08Z" id="Shape" fill="#FFFFFF" fill-opacity="0.1" fill-rule="evenodd" stroke="none" />
      <path d="M1 0L31 0L31 25L1 25C0.447715 25 0 24.5523 0 24L0 1C5.96046e-08 0.447715 0.447715 0 1 0L1 0Z" transform="translate(0.5 0.5)" id="Shape" fill="#FFFFFF" fill-opacity="0.1" fill-rule="evenodd" stroke="none" />
      <path d="M2.59 0.166206C0.996 0.166206 0 1.30321 0 3.11521C0 4.92721 0.973 6.06921 2.59 6.06921C4.207 6.06921 5.168 4.91621 5.168 3.11621C5.168 1.31621 4.192 0.166206 2.59 0.166206L2.59 0.166206ZM2.59 0.814207C3.742 0.814207 4.445 1.70521 4.445 3.11421C4.445 4.52321 3.745 5.41421 2.59 5.41421C1.418 5.41421 0.723 4.50821 0.723 3.11421C0.723 1.72021 1.442 0.815207 2.59 0.815207L2.59 0.814207ZM6.579 5.93621L7.251 5.93621L7.251 2.28821L8.219 2.28821L8.219 1.72621L7.254 1.72621L7.254 1.27621C7.254 0.815207 7.454 0.576207 7.942 0.576207C8.04771 0.573826 8.15343 0.580517 8.258 0.596207L8.258 0.0492077C8.10861 0.0216513 7.9569 0.0085907 7.805 0.0102072C7.46395 -0.0367727 7.12076 0.0801296 6.8793 0.325525C6.63784 0.570921 6.52651 0.915964 6.579 1.25621L6.579 1.72521L5.879 1.72521L5.879 2.28821L6.579 2.28821L6.579 5.93621ZM9.479 5.93621L10.149 5.93621L10.149 2.28821L11.114 2.28821L11.114 1.72621L10.149 1.72621L10.149 1.27621C10.149 0.815207 10.349 0.576207 10.837 0.576207C10.9427 0.573826 11.0484 0.580517 11.153 0.596207L11.153 0.0492077C11.0036 0.0216513 10.8519 0.0085907 10.7 0.0102072C10.3598 -0.0350246 10.0181 0.0826511 9.77785 0.327805C9.53761 0.572958 9.42688 0.916948 9.479 1.25621L9.479 1.72521L8.779 1.72521L8.779 2.28821L9.479 2.28821L9.479 5.93621Z" transform="translate(10.520996 10.063782)" id="Shape" fill="#FCE237" fill-rule="evenodd" stroke="none" />
    </g>
    <g id="Group" transform="translate(66 52)">
      <g id="Group" transform="translate(0.25 0.25)">
        <path d="M0 0L31 0L31 25L0 25L0 0Z" transform="translate(0.25 0.25)" id="Rectangle" fill="url(#gradient_1)" fill-rule="evenodd" stroke="none" />
        <path d="M0 0L31.5 0L31.5 25.5L0 25.5L0 0Z" id="Rectangle" fill="none" fill-rule="evenodd" stroke="#4E4752" stroke-width="0.5" />
      </g>
      <path d="M32 1L0 1L0 0L32 0L32 1L32 1Z" transform="translate(0 25.5)" id="Shape" fill="#000000" fill-opacity="0.4" fill-rule="evenodd" stroke="none" />
      <path d="M32 1L0 1L0 0L32 0L32 1L32 1Z" id="Shape" fill="#FFFFFF" fill-opacity="0.1" fill-rule="evenodd" stroke="none" />
      <path d="M0 0L31 0L31 25L0 25L0 0Z" transform="translate(0.5 0.5)" id="Rectangle" fill="#FFFFFF" fill-opacity="0.1" fill-rule="evenodd" stroke="none" />
      <path d="M0.519997 4.41C0.583183 4.90134 0.839767 5.34719 1.23286 5.64867C1.62595 5.95015 2.12307 6.08237 2.614 6.016C3.903 6.016 4.719 5.356 4.719 4.316C4.719 3.488 4.25 3.035 3.082 2.742L2.492 2.586C1.715 2.386 1.406 2.133 1.406 1.691C1.406 1.121 1.906 0.745998 2.652 0.745998C3.25371 0.670429 3.81139 1.07308 3.929 1.668L4.636 1.668C4.51201 0.704597 3.64341 0.0151215 2.677 0.112999C1.486 0.112999 0.685005 0.760998 0.685005 1.718C0.685005 2.518 1.126 2.98 2.146 3.238L2.869 3.426C3.646 3.626 3.998 3.926 3.998 4.406C3.998 4.965 3.439 5.375 2.682 5.375C1.882 5.375 1.319 5 1.233 4.41L0.519997 4.41ZM7.481 2.191C7.80009 2.19073 8.10452 2.32502 8.31944 2.56089C8.53436 2.79675 8.63985 3.1123 8.61 3.43L6.29 3.43C6.27975 3.10677 6.4004 2.79308 6.62461 2.56002C6.84882 2.32696 7.1576 2.19426 7.481 2.192L7.481 2.191ZM8.59 4.793C8.37917 5.18776 7.94865 5.41372 7.504 5.363C6.79 5.363 6.325 4.836 6.29 4.004L6.29 3.973L9.317 3.973L9.317 3.715C9.317 2.406 8.626 1.598 7.489 1.598C6.93458 1.60041 6.40811 1.84175 6.04441 2.26022C5.68072 2.67869 5.51511 3.23365 5.59 3.783C5.59 5.113 6.321 5.957 7.49 5.957C8.28189 6.03705 9.02159 5.55143 9.263 4.793L8.59 4.793ZM10.372 5.883L11.044 5.883L11.044 3.391C11.0087 3.08104 11.1107 2.77114 11.3231 2.54272C11.5356 2.3143 11.8373 2.19019 12.149 2.203C12.821 2.203 13.141 2.562 13.141 3.32L13.141 5.883L13.813 5.883L13.813 3.156C13.8706 2.74314 13.7374 2.32649 13.4512 2.02349C13.1649 1.72049 12.7565 1.56395 12.341 1.598C11.805 1.54995 11.2973 1.84595 11.075 2.336L11.013 2.336L11.013 1.672L10.372 1.672L10.372 5.883ZM16.599 5.957C17.1506 5.97335 17.6672 5.68727 17.946 5.211L18.009 5.211L18.009 5.883L18.65 5.883L18.65 0L17.978 0L17.978 2.336L17.919 2.336C17.6542 1.85999 17.1432 1.57433 16.599 1.598C15.529 1.598 14.829 2.457 14.829 3.778C14.829 5.099 15.52 5.957 16.599 5.957L16.599 5.957ZM16.755 2.203C17.517 2.203 17.993 2.812 17.993 3.777C17.993 4.742 17.52 5.352 16.755 5.352C15.99 5.352 15.525 4.762 15.525 3.778C15.525 2.794 15.99 2.203 16.755 2.203L16.755 2.203ZM22.204 3.903L23.904 3.903L23.904 3.325L22.204 3.325L22.204 1.625L21.626 1.625L21.626 3.325L19.926 3.325L19.926 3.903L21.626 3.903L21.626 5.603L22.204 5.603L22.204 3.903ZM5.554 12.883L5.554 7.246L4.738 7.246L2.808 11.91L2.746 11.91L0.816002 7.246L0 7.246L0 12.883L0.655998 12.883L0.655998 8.583L0.703003 8.583L2.48 12.849L3.074 12.849L4.851 8.583L4.898 8.583L4.898 12.883L5.554 12.883ZM8.202 12.367C7.714 12.367 7.35 12.117 7.35 11.687C7.35 11.257 7.631 11.042 8.272 11L9.405 10.926L9.405 11.313C9.39143 11.6146 9.25536 11.8976 9.02828 12.0966C8.80121 12.2955 8.50277 12.3932 8.202 12.367L8.202 12.367ZM8.077 12.957C8.60533 12.9772 9.10303 12.7092 9.377 12.257L9.44 12.257L9.44 12.883L10.081 12.883L10.081 10C10.081 9.125 9.507 8.6 8.481 8.6C7.581 8.6 6.919 9.045 6.829 9.721L7.509 9.721C7.603 9.389 7.954 9.198 8.458 9.198C9.087 9.198 9.411 9.483 9.411 9.998L9.411 10.383L8.19 10.457C7.21 10.516 6.655 10.949 6.655 11.703C6.66041 12.0639 6.81785 12.4058 7.08858 12.6446C7.35932 12.8833 7.71822 12.9968 8.077 12.957L8.077 12.957ZM11.222 9.824C11.222 10.433 11.581 10.773 12.37 10.965L13.09 11.141C13.539 11.25 13.758 11.441 13.758 11.735C13.758 12.122 13.352 12.391 12.785 12.391C12.3619 12.4465 11.9555 12.2064 11.8 11.809L11.109 11.809C11.183 12.509 11.828 12.957 12.765 12.957C13.722 12.957 14.453 12.437 14.453 11.684C14.453 11.079 14.07 10.735 13.277 10.543L12.628 10.383C12.128 10.262 11.898 10.083 11.898 9.793C11.898 9.418 12.289 9.164 12.789 9.164C13.191 9.10781 13.5774 9.34107 13.715 9.723L14.379 9.723C14.2311 8.98618 13.5341 8.49268 12.79 8.598C11.897 8.598 11.222 9.125 11.222 9.824L11.222 9.824ZM15.749 7.583L15.749 8.673L15.069 8.673L15.069 9.236L15.749 9.236L15.749 11.789C15.749 12.589 16.097 12.914 16.964 12.914C17.0966 12.9127 17.2287 12.8996 17.359 12.875L17.359 12.309C17.2554 12.3201 17.1512 12.3254 17.047 12.325C16.61 12.325 16.422 12.114 16.422 11.618L16.422 9.235L17.36 9.235L17.36 8.672L16.421 8.672L16.421 7.583L15.749 7.583ZM19.995 9.192C20.3139 9.19175 20.6181 9.32592 20.833 9.56155C21.0479 9.79718 21.1536 10.1125 21.124 10.43L18.804 10.43C18.7937 10.1068 18.9144 9.79308 19.1386 9.56002C19.3628 9.32696 19.6716 9.19426 19.995 9.192L19.995 9.192ZM21.104 11.792C20.8932 12.1868 20.4626 12.4127 20.018 12.362C19.303 12.362 18.838 11.835 18.803 11.003L18.803 10.973L21.831 10.973L21.831 10.715C21.831 9.406 21.14 8.598 20.003 8.598C19.4486 8.60041 18.9221 8.84175 18.5584 9.26021C18.1947 9.67868 18.0291 10.2337 18.104 10.783C18.104 12.115 18.834 12.959 20.004 12.959C20.7961 13.0383 21.5354 12.5518 21.776 11.793L21.104 11.792ZM22.89 12.883L23.562 12.883L23.562 10.274C23.5635 9.98861 23.6832 9.71663 23.8926 9.52276C24.102 9.32891 24.3824 9.23051 24.667 9.251C24.8112 9.2525 24.9549 9.26554 25.097 9.29L25.097 8.617C24.9855 8.6038 24.8733 8.59712 24.761 8.597C24.2624 8.55827 23.7939 8.83907 23.593 9.297L23.531 9.297L23.531 8.672L22.89 8.672L22.89 12.883Z" transform="translate(3.710022 6.1170044)" id="Shape" fill="#FCE237" fill-rule="evenodd" stroke="none" />
    </g>
    <g id="Group" transform="translate(33 26)">
      <g id="Group" transform="translate(0.25 0.25)">
        <path d="M0 0L31 0L31 25L0 25L0 0Z" transform="translate(0.25 0.25)" id="Rectangle" fill="url(#gradient_1)" fill-rule="evenodd" stroke="none" />
        <path d="M0 0L31.5 0L31.5 25.5L0 25.5L0 0Z" id="Rectangle" fill="none" fill-rule="evenodd" stroke="#4E4752" stroke-width="0.5" />
      </g>
      <path d="M32 1L0 1L0 0L32 0L32 1L32 1Z" transform="translate(0 25.5)" id="Shape" fill="#000000" fill-opacity="0.4" fill-rule="evenodd" stroke="none" />
      <path d="M32 1L0 1L0 0L32 0L32 1L32 1Z" id="Shape" fill="#FFFFFF" fill-opacity="0.1" fill-rule="evenodd" stroke="none" />
      <path d="M0 0L31 0L31 25L0 25L0 0Z" transform="translate(0.5 0.5)" id="Rectangle" fill="#FFFFFF" fill-opacity="0.1" fill-rule="evenodd" stroke="none" />
      <path d="M0 4.41C0.0631828 4.90135 0.319767 5.34719 0.71286 5.64867C1.10595 5.95015 1.60307 6.08237 2.094 6.016C3.383 6.016 4.199 5.356 4.199 4.316C4.199 3.488 3.73 3.035 2.562 2.742L1.972 2.586C1.195 2.386 0.885998 2.133 0.885998 1.691C0.885998 1.121 1.386 0.745998 2.132 0.745998C2.73371 0.670429 3.29139 1.07308 3.409 1.668L4.116 1.668C3.99201 0.704166 3.12277 0.0145454 2.156 0.112999C0.965 0.112999 0.163998 0.760998 0.163998 1.718C0.163998 2.518 0.605 2.98 1.625 3.238L2.348 3.426C3.125 3.626 3.477 3.926 3.477 4.406C3.477 4.965 2.918 5.375 2.161 5.375C1.361 5.375 0.798 5 0.711998 4.41L0 4.41ZM6.961 2.191C7.28009 2.19073 7.58451 2.32502 7.79943 2.56089C8.01435 2.79675 8.11985 3.1123 8.09 3.43L5.77 3.43C5.75975 3.10677 5.8804 2.79308 6.10461 2.56002C6.32882 2.32696 6.6376 2.19426 6.96099 2.192L6.961 2.191ZM8.07 4.791C7.85917 5.18575 7.42864 5.41172 6.984 5.361C6.269 5.361 5.804 4.834 5.769 4.002L5.769 3.973L8.797 3.973L8.797 3.715C8.797 2.406 8.106 1.598 6.969 1.598C6.41475 1.60069 5.88855 1.84216 5.52508 2.26059C5.16161 2.67902 4.99613 3.23382 5.071 3.783C5.071 5.115 5.801 5.959 6.971 5.959C7.76273 6.03782 8.5015 5.55143 8.742 4.793L8.07 4.791ZM9.852 5.883L10.524 5.883L10.524 3.391C10.4887 3.08104 10.5907 2.77114 10.8031 2.54272C11.0156 2.3143 11.3173 2.19019 11.629 2.203C12.301 2.203 12.621 2.562 12.621 3.32L12.621 5.883L13.293 5.883L13.293 3.156C13.3506 2.74314 13.2174 2.32649 12.9312 2.02349C12.6449 1.72049 12.2365 1.56395 11.821 1.598C11.285 1.54995 10.7773 1.84595 10.555 2.336L10.492 2.336L10.492 1.672L9.852 1.672L9.852 5.883ZM16.076 5.957C16.6287 5.97447 17.1467 5.68824 17.426 5.211L17.489 5.211L17.489 5.883L18.13 5.883L18.13 0L17.457 0L17.457 2.336L17.399 2.336C17.1337 1.85899 16.6213 1.57317 16.076 1.598C15.006 1.598 14.306 2.457 14.306 3.778C14.306 5.099 15 5.957 16.076 5.957L16.076 5.957ZM16.235 2.203C16.996 2.203 17.476 2.813 17.476 3.778C17.476 4.743 17 5.352 16.235 5.352C15.47 5.352 15.005 4.762 15.005 3.778C15.005 2.794 15.469 2.203 16.235 2.203L16.235 2.203Z" transform="translate(6.8239746 10.117004)" id="Shape" fill="#FCE237" fill-rule="evenodd" stroke="none" />
    </g>
  </g>
</svg>