<?xml version="1.0" encoding="utf-8"?>
<svg width="90px" height="98px" viewbox="0 0 90 98" version="1.1" xmlns:xlink="http://www.w3.org/1999/xlink" xmlns="http://www.w3.org/2000/svg">
  <defs>
    <rect width="90" height="98" id="artboard_1" />
    <clipPath id="clip_1">
      <use xlink:href="#artboard_1" clip-rule="evenodd" />
    </clipPath>
  </defs>
  <g id="hoverOn00117" clip-path="url(#clip_1)">
    <path d="M0 2L0 1C0 0.723858 0.0976311 0.488155 0.292893 0.292893C0.488155 0.097631 0.723858 0 1 0L11 0C11.2761 0 11.5118 0.097631 11.7071 0.292893C11.9024 0.488155 12 0.723858 12 1L12 11C12 11.2761 11.9024 11.5118 11.7071 11.7071C11.5118 11.9024 11.2761 12 11 12L1 12C0.723858 12 0.488155 11.9024 0.292893 11.7071C0.0976311 11.5118 0 11.2761 0 11L0 2L0 2Z" transform="translate(-3.0517578E-05 1.9999542)" id="Rectangle" fill="#C89E83" fill-opacity="0.75" fill-rule="evenodd" stroke="none" />
    <path d="M0 0.5C0 0.361929 0.0488155 0.244078 0.146447 0.146447C0.244078 0.0488155 0.361929 0 0.5 0L11.5 0C11.6381 0 11.7559 0.0488155 11.8536 0.146447C11.9512 0.244078 12 0.361929 12 0.5C12 0.638071 11.9512 0.755922 11.8536 0.853553C11.7559 0.951184 11.6381 1 11.5 1L0.5 1C0.361929 1 0.244078 0.951184 0.146447 0.853553C0.0488155 0.755922 0 0.638071 0 0.5L0 0.5L0 0.5Z" transform="translate(-3.0517578E-05 -4.5776367E-05)" id="Rectangle#1" fill="#F7DF5F" fill-rule="evenodd" stroke="none" />
    <path d="M2.563 4.1012L2.563 3.1012L0 3.1012L0 4.1012L2.563 4.1012L2.563 4.1012ZM5.02401 3.2532L5.73501 3.2532C6.47301 3.2532 6.93501 3.6162 6.93501 4.1982C6.93501 4.7532 6.45101 5.1472 5.76301 5.1472C5.07501 5.1472 4.60601 4.8002 4.54801 4.2532L3.70801 4.2532C3.74781 4.75074 3.98932 5.21037 4.37648 5.52539C4.76364 5.8404 5.26277 5.98341 5.75801 5.9212C6.25552 5.97908 6.75535 5.83386 7.14439 5.51841C7.53344 5.20296 7.77882 4.74393 7.82501 4.2452C7.85959 3.52514 7.30589 2.91244 6.58601 2.8742L6.58601 2.8082C7.19565 2.68118 7.62282 2.13027 7.59401 1.5082C7.55052 1.06277 7.33006 0.653433 6.98207 0.371996C6.63408 0.09056 6.18769 -0.0394211 5.74301 0.0112038C5.26571 -0.0434108 4.78724 0.103255 4.42254 0.415964C4.05784 0.728674 3.83987 1.17916 3.82101 1.6592L4.64801 1.6592C4.66471 1.3966 4.78824 1.1523 4.98984 0.983198C5.19144 0.814095 5.45351 0.734953 5.71501 0.764203C6.32801 0.764204 6.73101 1.1082 6.73101 1.6312C6.72639 1.89044 6.61283 2.13575 6.41817 2.30701C6.2235 2.47827 5.96572 2.55965 5.70801 2.5312L5.02401 2.5312L5.02401 3.2532L5.02401 3.2532Z" transform="translate(2.1519775 5.215744)" id="Shape" fill="#F6D738" fill-rule="evenodd" stroke="none" />
    <path d="M0 2L0 1C0 0.723858 0.0976315 0.488155 0.292893 0.292892C0.488155 0.0976315 0.723858 0 1 0L11 0C11.2761 0 11.5118 0.0976315 11.7071 0.292892C11.9024 0.488155 12 0.723858 12 1L12 11C12 11.2761 11.9024 11.5118 11.7071 11.7071C11.5118 11.9024 11.2761 12 11 12L1 12C0.723858 12 0.488155 11.9024 0.292893 11.7071C0.0976315 11.5118 0 11.2761 0 11L0 2L0 2Z" transform="translate(13 15.999954)" id="Rectangle#2" fill="#C89E83" fill-opacity="0.75" fill-rule="evenodd" stroke="none" />
    <path d="M0 0.5C0 0.361929 0.0488157 0.244078 0.146447 0.146447C0.244078 0.0488157 0.361929 0 0.5 0L11.5 0C11.6381 0 11.7559 0.0488157 11.8536 0.146447C11.9512 0.244078 12 0.361929 12 0.5C12 0.638071 11.9512 0.755922 11.8536 0.853553C11.7559 0.951184 11.6381 1 11.5 1L0.5 1C0.361929 1 0.244078 0.951184 0.146447 0.853553C0.0488157 0.755922 0 0.638071 0 0.5L0 0.5L0 0.5Z" transform="translate(13 13.999954)" id="Rectangle#3" fill="#F7DF5F" fill-rule="evenodd" stroke="none" />
    <path d="M2.563 4.09766L2.563 3.09766L0 3.09766L0 4.09766L2.563 4.09766L2.563 4.09766ZM3.74602 1.77266L3.74602 1.78066L4.57401 1.78066L4.57401 1.76865C4.56363 1.49313 4.67101 1.22621 4.86929 1.03461C5.06755 0.84301 5.33801 0.744846 5.61301 0.764656C5.86909 0.743759 6.12266 0.827805 6.31556 0.997509C6.50845 1.16721 6.62411 1.40801 6.63601 1.66466C6.63601 2.07866 6.45201 2.37566 5.69901 3.16466L3.79301 5.14766L3.79301 5.78065L7.59302 5.78065L7.59302 4.99566L5.01202 4.99566L5.01202 4.92866L6.26601 3.65866C7.21102 2.70165 7.50002 2.21366 7.50002 1.61565C7.47699 1.15201 7.26534 0.717951 6.91426 0.414261C6.56316 0.110569 6.10313 -0.036335 5.64101 0.0076561C5.1503 -0.030714 4.66598 0.138395 4.30579 0.473869C3.94561 0.809343 3.74256 1.28045 3.74602 1.77266L3.74602 1.77266L3.74602 1.77266Z" transform="translate(15.247925 19.2193)" id="Shape#1" fill="#F6D738" fill-rule="evenodd" stroke="none" />
    <path d="M0 2L0 1C0 0.723858 0.0976315 0.488155 0.292892 0.292892C0.488155 0.0976315 0.723858 0 1 0L11 0C11.2761 0 11.5118 0.0976315 11.7071 0.292892C11.9024 0.488155 12 0.723858 12 1L12 11C12 11.2761 11.9024 11.5118 11.7071 11.7071C11.5118 11.9024 11.2761 12 11 12L1 12C0.723858 12 0.488155 11.9024 0.292892 11.7071C0.0976315 11.5118 0 11.2761 0 11L0 2L0 2Z" transform="translate(26 29.999954)" id="Rectangle#4" fill="#C89E83" fill-opacity="0.75" fill-rule="evenodd" stroke="none" />
    <path d="M0 0.5C0 0.361929 0.0488148 0.244078 0.146446 0.146446C0.244078 0.0488148 0.361929 0 0.5 0L11.5 0C11.6381 0 11.7559 0.0488148 11.8536 0.146446C11.9512 0.244078 12 0.361929 12 0.5C12 0.638071 11.9512 0.755922 11.8536 0.853554C11.7559 0.951183 11.6381 1 11.5 1L0.5 1C0.361929 1 0.244078 0.951183 0.146446 0.853554C0.0488148 0.755922 0 0.638071 0 0.5L0 0.5L0 0.5Z" transform="translate(26 27.999954)" id="Rectangle#5" fill="#F7DF5F" fill-rule="evenodd" stroke="none" />
    <path d="M2.563 3.95399L2.563 2.95399L0 2.95399L0 3.95399L2.563 3.95399L2.563 3.95399ZM5.145 5.637L6.02 5.637L6.02 0L5.149 0L3.664 1.047L3.664 1.937L5.078 0.937L5.144 0.937L5.145 5.637L5.145 5.637Z" transform="translate(28.78894 33.362946)" id="Shape#2" fill="#F6D738" fill-rule="evenodd" stroke="none" />
    <path d="M0 2L0 1C0 0.723858 0.0976295 0.488155 0.292892 0.292892C0.488155 0.0976295 0.723858 0 1 0L11 0C11.2761 0 11.5118 0.0976295 11.7071 0.292892C11.9024 0.488155 12 0.723858 12 1L12 11C12 11.2761 11.9024 11.5118 11.7071 11.7071C11.5118 11.9024 11.2761 12 11 12L1 12C0.723858 12 0.488155 11.9024 0.292892 11.7071C0.0976295 11.5118 0 11.2761 0 11L0 2L0 2Z" transform="translate(39 43.999954)" id="Rectangle#6" fill="#C89E83" fill-opacity="0.75" fill-rule="evenodd" stroke="none" />
    <path d="M0 0.5C0 0.361931 0.0488167 0.24408 0.146446 0.146446C0.24408 0.0488167 0.361931 0 0.5 0L11.5 0C11.6381 0 11.7559 0.0488167 11.8536 0.146446C11.9512 0.24408 12 0.361931 12 0.5C12 0.638069 11.9512 0.75592 11.8536 0.853554C11.7559 0.951183 11.6381 1 11.5 1L0.5 1C0.361931 1 0.24408 0.951183 0.146446 0.853554C0.0488167 0.75592 0 0.638069 0 0.5L0 0.5L0 0.5Z" transform="translate(39 41.999954)" id="Rectangle#7" fill="#F7DF5F" fill-rule="evenodd" stroke="none" />
    <path d="M2.082 5.91C3.395 5.91 4.16 4.828 4.16 2.957C4.16 1.086 3.382 0 2.082 0C0.782001 0 0 1.086 0 2.949C0 4.812 0.77 5.91 2.082 5.91L2.082 5.91L2.082 5.91ZM2.08202 5.144C1.31602 5.144 0.882019 4.374 0.882019 2.944C0.882019 1.534 1.32702 0.759995 2.08202 0.759995C2.83702 0.759995 3.28202 1.52999 3.28202 2.944C3.28202 4.37799 2.85202 5.144 2.08202 5.144L2.08202 5.144L2.08202 5.144Z" transform="translate(42.91797 47.22696)" id="Shape#3" fill="#F6D738" fill-rule="evenodd" stroke="none" />
    <path d="M0 2L0 1C0 0.723858 0.0976295 0.488155 0.292892 0.292892C0.488155 0.0976295 0.723858 0 1 0L11 0C11.2761 0 11.5118 0.0976295 11.7071 0.292892C11.9024 0.488155 12 0.723858 12 1L12 11C12 11.2761 11.9024 11.5118 11.7071 11.7071C11.5118 11.9024 11.2761 12 11 12L1 12C0.723858 12 0.488155 11.9024 0.292892 11.7071C0.0976295 11.5118 0 11.2761 0 11L0 2L0 2Z" transform="translate(52 57.999954)" id="Rectangle#8" fill="#C89E83" fill-opacity="0.75" fill-rule="evenodd" stroke="none" />
    <path d="M0 0.5C0 0.361931 0.0488167 0.24408 0.146446 0.146446C0.24408 0.0488167 0.361931 0 0.5 0L11.5 0C11.6381 0 11.7559 0.0488167 11.8536 0.146446C11.9512 0.24408 12 0.361931 12 0.5C12 0.638069 11.9512 0.75592 11.8536 0.853554C11.7559 0.951183 11.6381 1 11.5 1L0.5 1C0.361931 1 0.24408 0.951183 0.146446 0.853554C0.0488167 0.75592 0 0.638069 0 0.5L0 0.5L0 0.5Z" transform="translate(52 55.999954)" id="Rectangle#9" fill="#F7DF5F" fill-rule="evenodd" stroke="none" />
    <path d="M1.48 5.637L2.351 5.637L2.351 0L1.484 0L0 1.047L0 1.937L1.414 0.937L1.48 0.937L1.48 5.637L1.48 5.637Z" transform="translate(56.54895 61.362946)" id="Shape#4" fill="#F6D738" fill-rule="evenodd" stroke="none" />
    <path d="M0 2L0 1C0 0.723862 0.0976334 0.488152 0.292892 0.292892C0.488152 0.0976334 0.723862 0 1 0L11 0C11.2761 0 11.5118 0.0976334 11.7071 0.292892C11.9024 0.488152 12 0.723862 12 1L12 11C12 11.2761 11.9024 11.5118 11.7071 11.7071C11.5118 11.9024 11.2761 12 11 12L1 12C0.723862 12 0.488152 11.9024 0.292892 11.7071C0.0976334 11.5118 0 11.2761 0 11L0 2L0 2Z" transform="translate(65 71.999954)" id="Rectangle#10" fill="#C89E83" fill-opacity="0.75" fill-rule="evenodd" stroke="none" />
    <path d="M0 0.5C0 0.361931 0.0488129 0.24408 0.146446 0.146446C0.24408 0.0488129 0.361931 0 0.5 0L11.5 0C11.6381 0 11.7559 0.0488129 11.8536 0.146446C11.9512 0.24408 12 0.361931 12 0.5C12 0.638069 11.9512 0.75592 11.8536 0.853554C11.7559 0.951187 11.6381 1 11.5 1L0.5 1C0.361931 1 0.24408 0.951187 0.146446 0.853554C0.0488129 0.75592 0 0.638069 0 0.5L0 0.5L0 0.5Z" transform="translate(65 69.999954)" id="Rectangle#11" fill="#F7DF5F" fill-rule="evenodd" stroke="none" />
    <path d="M4.57764e-05 1.77265L4.57764e-05 1.78066L0.828049 1.78066L0.828049 1.76865C0.817673 1.49313 0.925041 1.2262 1.12332 1.03461C1.32159 0.84301 1.59204 0.744843 1.86705 0.764656C2.12312 0.743759 2.37669 0.827805 2.56959 0.997513C2.76248 1.16721 2.87815 1.40801 2.89005 1.66466C2.89005 2.08066 2.71005 2.38065 1.95305 3.16366L0.0470505 5.14765L0.0470505 5.78065L3.84705 5.78065L3.84705 4.99565L1.26505 4.99565L1.26505 4.92866L2.51905 3.65965C3.46405 2.70265 3.75305 2.21465 3.75305 1.61665C3.73028 1.15283 3.51876 0.718513 3.16763 0.414612C2.81651 0.110703 2.35634 -0.0363388 1.89405 0.00765228C1.4035 -0.0304184 0.919441 0.138824 0.559486 0.474266C0.199524 0.809708 -0.00338745 1.28064 4.57764e-05 1.77265L4.57764e-05 1.77265L4.57764e-05 1.77265Z" transform="translate(69.089966 75.2193)" id="Shape#5" fill="#F6D738" fill-rule="evenodd" stroke="none" />
    <path d="M0 2L0 1C0 0.723862 0.0976334 0.488152 0.292892 0.292892C0.488152 0.0976334 0.723862 0 1 0L11 0C11.2761 0 11.5118 0.0976334 11.7071 0.292892C11.9024 0.488152 12 0.723862 12 1L12 11C12 11.2761 11.9024 11.5118 11.7071 11.7071C11.5118 11.9024 11.2761 12 11 12L1 12C0.723862 12 0.488152 11.9024 0.292892 11.7071C0.0976334 11.5118 0 11.2761 0 11L0 2L0 2Z" transform="translate(78 85.999954)" id="Rectangle#12" fill="#C89E83" fill-opacity="0.75" fill-rule="evenodd" stroke="none" />
    <path d="M0 0.5C0 0.361931 0.0488129 0.24408 0.146446 0.146446C0.24408 0.0488129 0.361931 0 0.5 0L11.5 0C11.6381 0 11.7559 0.0488129 11.8536 0.146446C11.9512 0.24408 12 0.361931 12 0.5C12 0.638069 11.9512 0.75592 11.8536 0.853554C11.7559 0.951187 11.6381 1 11.5 1L0.5 1C0.361931 1 0.24408 0.951187 0.146446 0.853554C0.0488129 0.75592 0 0.638069 0 0.5L0 0.5L0 0.5Z" transform="translate(78 83.999954)" id="Rectangle#13" fill="#F7DF5F" fill-rule="evenodd" stroke="none" />
    <path d="M1.311 3.2532L2.022 3.2532C2.76 3.2532 3.222 3.6162 3.222 4.1982C3.222 4.7532 2.738 5.1472 2.05 5.1472C1.362 5.1472 0.893997 4.8002 0.840004 4.2532L0 4.2532C0.0398712 4.74995 0.280823 5.2089 0.667076 5.52379C1.05333 5.83868 1.55141 5.98223 2.04601 5.9212C2.54335 5.97879 3.04292 5.83344 3.43174 5.51801C3.82056 5.20259 4.0658 4.74374 4.112 4.2452C4.1466 3.52551 3.59348 2.91297 2.874 2.8742L2.874 2.8082C3.48363 2.68118 3.91081 2.13026 3.882 1.5082C3.83852 1.06258 3.61792 0.653069 3.26971 0.371605C2.92149 0.0901413 2.47484 -0.039711 2.03 0.0112C1.5527 -0.0434113 1.07423 0.103256 0.709526 0.415962C0.344826 0.728676 0.126862 1.17916 0.108002 1.6592L0.940003 1.6592C0.956764 1.39738 1.07974 1.15376 1.28044 0.984779C1.48114 0.815796 1.74214 0.736122 2.003 0.764198C2.616 0.764206 3.019 1.1082 3.019 1.6312C3.01438 1.89043 2.90082 2.13574 2.70615 2.30701C2.51149 2.47826 2.25372 2.55965 1.996 2.5312L1.311 2.5312L1.311 3.2532L1.311 3.2532Z" transform="translate(81.95996 89.21576)" id="Shape#6" fill="#F6D738" fill-rule="evenodd" stroke="none" />
  </g>
</svg>