<?xml version="1.0" encoding="utf-8"?>
<svg width="19px" height="170px" viewBox="0 0 19 170" version="1.1" xmlns:xlink="http://www.w3.org/1999/xlink" xmlns="http://www.w3.org/2000/svg">
  <defs>
    <path d="M0 0L19 0L19 170L0 170L0 0Z" id="path_1" />
    <rect width="19" height="170" id="artboard_1" />
    <clipPath id="clip_1">
      <use xlink:href="#artboard_1" clip-rule="evenodd" />
    </clipPath>
    <clipPath id="mask_1">
      <use xlink:href="#path_1" />
    </clipPath>
  </defs>
  <g id="hover00145" clip-path="url(#clip_1)">
    <path d="M0 0L19 0L19 170L0 170L0 0Z" id="Background" fill="none" fill-rule="evenodd" stroke="none" />
    <g clip-path="url(#mask_1)">
      <path d="M1 0.399994L7 0.399994L7 16.9L1 16.9L1 0.399994Z" id="rect7" fill="#FFFFFF" fill-opacity="0.14" fill-rule="evenodd" stroke="none" />
      <path d="M6 0L13 0L13 17L6 17L6 0Z" id="rect9" fill="#886551" fill-opacity="0" fill-rule="evenodd" stroke="none" />
      <path d="M12 0L18 0L18 17L12 17L12 0Z" id="rect11" fill="#886551" fill-opacity="0" fill-rule="evenodd" stroke="none" />
      <path d="M0 0L19 0L19 17L0 17L0 0Z" id="rect17" fill="#E1CBBC" fill-opacity="0" fill-rule="evenodd" stroke="none" />
      <path d="M1 17L7 17L7 34L1 34L1 17Z" id="rect21" fill="#886551" fill-opacity="0" fill-rule="evenodd" stroke="none" />
      <path d="M7 17.4L13 17.4L13 33.7L7 33.7L7 17.4Z" id="rect23" fill="#FFFFFF" fill-opacity="0.14" fill-rule="evenodd" stroke="none" />
      <path d="M12 17L18 17L18 34L12 34L12 17Z" id="rect25" fill="#886551" fill-opacity="0" fill-rule="evenodd" stroke="none" />
      <path d="M0 17L19 17L19 34L0 34L0 17Z" id="rect31" fill="#E1CBBC" fill-opacity="0" fill-rule="evenodd" stroke="none" />
      <path d="M1 34L7 34L7 51L1 51L1 34Z" id="rect35" fill="#886551" fill-opacity="0" fill-rule="evenodd" stroke="none" />
      <path d="M6 34L13 34L13 51L6 51L6 34Z" id="rect37" fill="#886551" fill-opacity="0" fill-rule="evenodd" stroke="none" />
      <path d="M13 34.4L19 34.4L19 50.9L13 50.9L13 34.4Z" id="rect39" fill="#FFFFFF" fill-opacity="0.14" fill-rule="evenodd" stroke="none" />
      <path d="M0 34L19 34L19 51L0 51L0 34Z" id="rect45" fill="#E1CBBC" fill-opacity="0" fill-rule="evenodd" stroke="none" />
      <path d="M1 51.4L7 51.4L7 67.8L1 67.8L1 51.4Z" id="rect49" fill="#FFFFFF" fill-opacity="0.14" fill-rule="evenodd" stroke="none" />
      <path d="M6 51L13 51L13 68L6 68L6 51Z" id="rect51" fill="#886551" fill-opacity="0" fill-rule="evenodd" stroke="none" />
      <path d="M12 51L18 51L18 68L12 68L12 51Z" id="rect53" fill="#886551" fill-opacity="0" fill-rule="evenodd" stroke="none" />
      <path d="M0 51L19 51L19 68L0 68L0 51Z" id="rect59" fill="#E1CBBC" fill-opacity="0" fill-rule="evenodd" stroke="none" />
      <path d="M1 68L7 68L7 85L1 85L1 68Z" id="rect63" fill="#886551" fill-opacity="0" fill-rule="evenodd" stroke="none" />
      <path d="M7 68.4L13 68.4L13 84.8L7 84.8L7 68.4Z" id="rect65" fill="#FFFFFF" fill-opacity="0.14" fill-rule="evenodd" stroke="none" />
      <path d="M12 68L18 68L18 85L12 85L12 68Z" id="rect67" fill="#886551" fill-opacity="0" fill-rule="evenodd" stroke="none" />
      <path d="M0 68L19 68L19 85L0 85L0 68Z" id="rect73" fill="#E1CBBC" fill-opacity="0" fill-rule="evenodd" stroke="none" />
      <path d="M1 85L7 85L7 102L1 102L1 85Z" id="rect77" fill="#886551" fill-opacity="0" fill-rule="evenodd" stroke="none" />
      <path d="M6 85L13 85L13 102L6 102L6 85Z" id="rect79" fill="#886551" fill-opacity="0" fill-rule="evenodd" stroke="none" />
      <path d="M13 85.4L19 85.4L19 101.8L13 101.8L13 85.4Z" id="rect81" fill="#FFFFFF" fill-opacity="0.14" fill-rule="evenodd" stroke="none" />
      <path d="M0 85L19 85L19 102L0 102L0 85Z" id="rect87" fill="#E1CBBC" fill-opacity="0" fill-rule="evenodd" stroke="none" />
      <path d="M1 102.4L7 102.4L7 118.8L1 118.8L1 102.4Z" id="rect97" fill="#FFFFFF" fill-opacity="0.14" fill-rule="evenodd" stroke="none" />
      <path d="M6 102L13 102L13 119L6 119L6 102Z" id="rect99" fill="#886551" fill-opacity="0" fill-rule="evenodd" stroke="none" />
      <path d="M12 102L18 102L18 119L12 119L12 102Z" id="rect101" fill="#886551" fill-opacity="0" fill-rule="evenodd" stroke="none" />
      <path d="M0 102L19 102L19 119L0 119L0 102Z" id="rect107" fill="#E1CBBC" fill-opacity="0" fill-rule="evenodd" stroke="none" />
      <path d="M1 119L7 119L7 136L1 136L1 119Z" id="rect111" fill="#886551" fill-opacity="0" fill-rule="evenodd" stroke="none" />
      <path d="M7 119.4L13 119.4L13 135.8L7 135.8L7 119.4Z" id="rect113" fill="#FFFFFF" fill-opacity="0.14" fill-rule="evenodd" stroke="none" />
      <path d="M12 119L18 119L18 136L12 136L12 119Z" id="rect115" fill="#886551" fill-opacity="0" fill-rule="evenodd" stroke="none" />
      <path d="M0 119L19 119L19 136L0 136L0 119Z" id="rect121" fill="#E1CBBC" fill-opacity="0" fill-rule="evenodd" stroke="none" />
      <path d="M1 136L7 136L7 153L1 153L1 136Z" id="rect125" fill="#886551" fill-opacity="0" fill-rule="evenodd" stroke="none" />
      <path d="M6 136L13 136L13 153L6 153L6 136Z" id="rect127" fill="#886551" fill-opacity="0" fill-rule="evenodd" stroke="none" />
      <path d="M13 136.4L19 136.4L19 152.8L13 152.8L13 136.4Z" id="rect129" fill="#FFFFFF" fill-opacity="0.14" fill-rule="evenodd" stroke="none" />
      <path d="M0 136L19 136L19 153L0 153L0 136Z" id="rect135" fill="#E1CBBC" fill-opacity="0" fill-rule="evenodd" stroke="none" />
    </g>
  </g>
</svg>