<?xml version="1.0" encoding="UTF-8" standalone="no"?>
<svg
   xmlns:dc="http://purl.org/dc/elements/1.1/"
   xmlns:cc="http://creativecommons.org/ns#"
   xmlns:rdf="http://www.w3.org/1999/02/22-rdf-syntax-ns#"
   xmlns:svg="http://www.w3.org/2000/svg"
   xmlns="http://www.w3.org/2000/svg"
   xmlns:sodipodi="http://sodipodi.sourceforge.net/DTD/sodipodi-0.dtd"
   xmlns:inkscape="http://www.inkscape.org/namespaces/inkscape"
   width="132"
   height="104"
   viewBox="0 0 132 104"
   version="1.1"
   id="svg24327"
   sodipodi:docname="hoverOn00144.svg"
   inkscape:version="1.0.1 (3bc2e813f5, 2020-09-07)">
  <metadata
     id="metadata24331">
    <rdf:RDF>
      <cc:Work
         rdf:about="">
        <dc:format>image/svg+xml</dc:format>
        <dc:type
           rdf:resource="http://purl.org/dc/dcmitype/StillImage" />
        <dc:title></dc:title>
      </cc:Work>
    </rdf:RDF>
  </metadata>
  <sodipodi:namedview
     pagecolor="#464646"
     bordercolor="#666666"
     borderopacity="1"
     objecttolerance="10"
     gridtolerance="10"
     guidetolerance="10"
     inkscape:pageopacity="0"
     inkscape:pageshadow="2"
     inkscape:window-width="3753"
     inkscape:window-height="2137"
     id="namedview24329"
     showgrid="false"
     inkscape:zoom="11.313709"
     inkscape:cx="98.705248"
     inkscape:cy="25.069352"
     inkscape:window-x="-8"
     inkscape:window-y="-8"
     inkscape:window-maximized="1"
     inkscape:current-layer="svg24327" />
  <defs
     id="defs24067">
    <linearGradient
       id="a"
       x1="0.5"
       x2="0.5"
       y2="1"
       gradientUnits="objectBoundingBox">
      <stop
         offset="0"
         stop-color="#787477"
         id="stop24057" />
      <stop
         offset="1"
         stop-color="#716b6c"
         id="stop24059" />
    </linearGradient>
    <linearGradient
       id="d"
       x1="0.5"
       x2="0.5"
       y2="1"
       gradientUnits="objectBoundingBox">
      <stop
         offset="0"
         stop-color="#413f40"
         id="stop24062" />
      <stop
         offset="1"
         stop-color="#464141"
         id="stop24064" />
    </linearGradient>
    <linearGradient
       x1="0.5"
       y1="0"
       x2="0.5"
       y2="1"
       id="linearGradient10622">
      <stop
         offset="0"
         stop-color="#787477"
         id="stop10618" />
      <stop
         offset="1"
         stop-color="#716B6C"
         id="stop10620"
         style="stop-color:#696568;stop-opacity:1" />
    </linearGradient>
  </defs>
  <path
     id="path26376"
     style="opacity:0.14;fill:#ffffff;fill-opacity:1;stroke:none;stroke-width:1.11;stroke-linecap:butt;stroke-linejoin:miter;stroke-miterlimit:4;stroke-dasharray:none;stroke-opacity:1;paint-order:stroke markers fill"
     d="M 130.15356,78.414189 H 99.43901 V 103.5264 h 30.71456 c 0.79056,0 1.427,-0.63644 1.427,-1.427 V 79.841193 c 0,-0.79056 -0.63644,-1.427004 -1.427,-1.427004 z"
     sodipodi:nodetypes="sccsssss" />
  <path
     id="path26336"
     style="opacity:0.14;fill:#ffffff;fill-opacity:1;stroke:none;stroke-width:1.1245;stroke-linecap:butt;stroke-linejoin:miter;stroke-miterlimit:4;stroke-dasharray:none;stroke-opacity:1;paint-order:stroke markers fill"
     d="M 99,52.414189 V 77.526401 H 66.4375 V 52.414189 Z"
     sodipodi:nodetypes="ccccc" />
  <path
     id="path26296"
     style="opacity:0.14;fill:#ffffff;fill-opacity:1;stroke:none;stroke-width:1.1245;stroke-linecap:butt;stroke-linejoin:miter;stroke-miterlimit:4;stroke-dasharray:none;stroke-opacity:1;paint-order:stroke markers fill"
     d="M 34.477515,26.414189 H 66 V 51.526401 H 33 V 26.414189 Z"
     sodipodi:nodetypes="sccccs" />
  <path
     id="path19546"
     style="opacity:0.14;fill:#fefefe;fill-opacity:1;stroke:none;stroke-width:1.11;stroke-linecap:butt;stroke-linejoin:miter;stroke-miterlimit:4;stroke-dasharray:none;stroke-opacity:1;paint-order:stroke markers fill"
     d="M 1.846436,0.414189 H 32.560991 V 25.526401 H 1.846432 c -0.790561,0 -1.427005,-0.636445 -1.427005,-1.427005 V 1.841193 c 0,-0.79056 0.636444,-1.427004 1.427005,-1.427004 z"
     sodipodi:nodetypes="sccsssss" />
  <path
     d="m 99.5,0.5 h 30 a 1,1 0 0 1 1,1 v 23 a 1,1 0 0 1 -1,1 h -30 z"
     fill="#ffffff"
     opacity="0"
     id="path24079" />
  <path
     d="m 99.5,26.5 h 30 a 1,1 0 0 1 1,1 v 23 a 1,1 0 0 1 -1,1 h -30 z"
     fill="#ffffff"
     opacity="0"
     id="path24095" />
  <path
     d="m 99.5,52.5 h 30 a 1,1 0 0 1 1,1 v 23 a 1,1 0 0 1 -1,1 h -30 z"
     fill="#ffffff"
     opacity="0"
     id="path24111" />
  <path
     d="m 99.5,78.5 h 30 a 1,1 0 0 1 1,1 v 23 a 1,1 0 0 1 -1,1 h -30 z"
     fill="#ffffff"
     opacity="0"
     id="path24127" />
  <path
     d="m 1.501,0.5 h 30 v 25 h -30 a 1,1 0 0 1 -1,-1 v -23 a 1,1 0 0 1 1,-1 z"
     fill="#ffffff"
     opacity="0"
     id="path24143" />
  <path
     d="m 1.501,26.5 h 30 v 25 h -30 a 1,1 0 0 1 -1,-1 v -23 a 1,1 0 0 1 1,-1 z"
     fill="#ffffff"
     opacity="0"
     id="path24159" />
  <path
     d="m 1.501,52.5 h 30 v 25 h -30 a 1,1 0 0 1 -1,-1 v -23 a 1,1 0 0 1 1,-1 z"
     fill="#ffffff"
     opacity="0"
     id="path24175" />
  <path
     d="m 1.501,78.5 h 30 v 25 h -30 a 1,1 0 0 1 -1,-1 v -23 a 1,1 0 0 1 1,-1 z"
     fill="#ffffff"
     opacity="0"
     id="path24191" />
  <rect
     width="31"
     height="25"
     fill="#ffffff"
     opacity="0"
     id="rect24207"
     x="66.5"
     y="0.5" />
  <rect
     width="31"
     height="25"
     fill="#ffffff"
     opacity="0"
     id="rect24223"
     x="66.5"
     y="26.5" />
  <rect
     width="31"
     height="25"
     fill="#ffffff"
     opacity="0"
     id="rect24239"
     x="66.5"
     y="52.5" />
  <rect
     width="31"
     height="25"
     fill="#ffffff"
     opacity="0"
     id="rect24255"
     x="66.5"
     y="78.5" />
  <rect
     width="31"
     height="25"
     fill="#ffffff"
     opacity="0"
     id="rect24271"
     x="33.5"
     y="0.5" />
  <rect
     width="31"
     height="25"
     fill="#ffffff"
     opacity="0"
     id="rect24287"
     x="33.5"
     y="26.5" />
  <rect
     width="31"
     height="25"
     fill="#ffffff"
     opacity="0"
     id="rect24303"
     x="33.5"
     y="52.5" />
  <rect
     width="31"
     height="25"
     fill="#ffffff"
     opacity="0"
     id="rect24319"
     x="33.5"
     y="78.5" />
</svg>
