<?xml version="1.0" encoding="utf-8"?>
<svg width="22px" height="306px" viewBox="0 0 22 306" version="1.1" xmlns:xlink="http://www.w3.org/1999/xlink" xmlns="http://www.w3.org/2000/svg">
  <defs>
    <linearGradient x1="0.54009783" y1="0.9944823" x2="0.5396201" y2="0.34408063" id="gradient_1">
      <stop offset="0" stop-color="#E3DEDB" stop-opacity="0.21568628" />
      <stop offset="1" stop-color="#2A2A2A" stop-opacity="0.6392157" />
    </linearGradient>
    <path d="M0 0L22 0L22 306L0 306L0 0Z" id="path_1" />
    <rect width="22" height="306" id="artboard_1" />
    <clipPath id="clip_1">
      <use xlink:href="#artboard_1" clip-rule="evenodd" />
    </clipPath>
    <clipPath id="mask_1">
      <use xlink:href="#path_1" />
    </clipPath>
  </defs>
  <g id="hover00160" clip-path="url(#clip_1)">
    <path d="M0 0L22 0L22 306L0 306L0 0Z" id="Background" fill="none" fill-rule="evenodd" stroke="none" />
    <g clip-path="url(#mask_1)">
      <path d="M1 96.5609L1 94.2805C1 93.6507 1.17951 93.1132 1.53853 92.6679C1.89755 92.2226 2.33093 92 2.83866 92L19.1613 92C19.6687 92 20.1024 92.2226 20.4614 92.6679C20.8205 93.1132 21 93.6507 21 94.2805L21 103.72C21 104.349 20.8205 104.887 20.4614 105.332C20.1024 105.777 19.6687 106 19.1613 106L2.83866 106C2.33093 106 1.89755 105.777 1.53853 105.332C1.17951 104.887 1 104.349 1 103.72L1 96.5609Z" id="path1046" fill="#FFFFFF" fill-opacity="0.08" fill-rule="evenodd" stroke="none" />
      <path d="M1 78.5609L1 76.2805C1 75.6507 1.17951 75.1132 1.53853 74.6679C1.89755 74.2226 2.33093 74 2.83866 74L19.1613 74C19.6687 74 20.1024 74.2226 20.4614 74.6679C20.8205 75.1132 21 75.6507 21 76.2805L21 85.7195C21 86.3492 20.8205 86.8868 20.4614 87.3321C20.1024 87.7774 19.6687 88 19.1613 88L2.83866 88C2.33093 88 1.89755 87.7774 1.53853 87.3321C1.17951 86.8867 1 86.3492 1 85.7195L1 78.5609Z" id="path1042" fill="#FFFFFF" fill-opacity="0.08" fill-rule="evenodd" stroke="none" />
      <path d="M1 60.5609L1 58.2805C1 57.6507 1.17951 57.1132 1.53853 56.6679C1.89755 56.2226 2.33093 56 2.83866 56L19.1613 56C19.6687 56 20.1024 56.2226 20.4614 56.6679C20.8205 57.1132 21 57.6507 21 58.2805L21 67.7195C21 68.3492 20.8205 68.8867 20.4614 69.3321C20.1024 69.7774 19.6687 70 19.1613 70L2.83866 70C2.33093 70 1.89755 69.7774 1.53853 69.3321C1.17951 68.8867 1 68.3492 1 67.7195L1 60.5609Z" id="path1038" fill="#FFFFFF" fill-opacity="0.08" fill-rule="evenodd" stroke="none" />
      <path d="M1 42.5609L1 40.2805C1 39.6507 1.17951 39.1132 1.53853 38.6679C1.89755 38.2226 2.33093 38 2.83866 38L19.1613 38C19.6687 38 20.1024 38.2226 20.4614 38.6679C20.8205 39.1132 21 39.6507 21 40.2805L21 49.7195C21 50.3492 20.8205 50.8867 20.4614 51.3321C20.1024 51.7774 19.6687 52 19.1613 52L2.83866 52C2.33093 52 1.89755 51.7774 1.53853 51.3321C1.17951 50.8867 1 50.3492 1 49.7195L1 42.5609Z" id="path1034" fill="#FFFFFF" fill-opacity="0.08" fill-rule="evenodd" stroke="none" />
      <path d="M1 24.5609L1 22.2805C1 21.6507 1.17951 21.1132 1.53853 20.6679C1.89755 20.2226 2.33093 20 2.83866 20L19.1613 20C19.6687 20 20.1024 20.2226 20.4614 20.6679C20.8205 21.1132 21 21.6507 21 22.2805L21 31.7195C21 32.3492 20.8205 32.8867 20.4614 33.3321C20.1024 33.7774 19.6687 34 19.1613 34L2.83866 34C2.33093 34 1.89755 33.7774 1.53853 33.3321C1.17951 32.8867 1 32.3492 1 31.7195L1 24.5609Z" id="path1030" fill="#FFFFFF" fill-opacity="0.08" fill-rule="evenodd" stroke="none" />
      <path d="M0.39998 7.42857L0.39998 4.21429C0.39998 3.32669 0.270183 2.56907 0.809291 1.94144C1.3484 1.31381 1.99916 1 2.76158 1L103.076 1C103.838 1 104.489 1.31381 105.028 1.94144C105.567 2.56907 105.338 3.32669 105.338 4.21429L105.338 12.3858C105.338 13.2734 105.567 14.4309 105.028 15.0586C104.489 15.6862 103.838 15.6001 103.076 15.6001L2.76158 15.6001C1.99916 15.6001 1.3484 15.6862 0.809291 15.0586C0.270183 14.4309 0.39998 13.2734 0.39998 12.3858L0.39998 7.42857Z" id="Rectangle" fill="url(#gradient_1)" fill-opacity="0" fill-rule="evenodd" stroke="none" />
      <path d="M10.9273 30.1879L11.8883 30.1879L11.8883 24L10.931 24L9.3 25.1493L9.3 26.1316L10.852 25.0338L10.9248 25.0338L10.9273 30.1879Z" id="path30" fill="#FCE237" fill-rule="evenodd" stroke="none" />
      <path d="M9.10005 43.699L9.10005 43.7106L9.94023 43.7106L9.94023 43.699C9.92862 43.4189 10.037 43.1473 10.2381 42.9521C10.4393 42.7569 10.7141 42.6568 10.9936 42.6768C11.2547 42.6542 11.5137 42.7391 11.7106 42.9119C11.9075 43.0848 12.0253 43.3306 12.0366 43.5924C12.0366 44.0119 11.8501 44.3132 11.0864 45.1093L9.14756 47.1211L9.14756 47.7631L12.9973 47.7631L12.9973 46.967L10.3841 46.967L10.3841 46.8998L11.6588 45.6123C12.6172 44.6423 12.9104 44.1463 12.9104 43.5402C12.8886 43.0687 12.6739 42.6269 12.3167 42.3183C11.9595 42.0097 11.4911 41.8616 11.0215 41.9085C10.5237 41.8696 10.0325 42.0411 9.66725 42.3815C9.30201 42.7218 9.09625 43.1998 9.10005 43.699L9.10005 43.699Z" id="path42" fill="#FCE237" fill-rule="evenodd" stroke="none" />
      <path d="M10.3436 63.2245L11.071 63.2245C11.8264 63.2245 12.2942 63.5964 12.2942 64.1916C12.2942 64.7588 11.7984 65.1634 11.0955 65.1634C10.3927 65.1634 9.91563 64.8079 9.86418 64.2478L9 64.2478C9.04079 64.7563 9.28744 65.2261 9.68283 65.5484C10.0782 65.8707 10.5881 66.0176 11.0944 65.9551C11.6036 66.0146 12.1154 65.866 12.5136 65.5431C12.9118 65.2201 13.1629 64.7501 13.2098 64.2396C13.2456 63.503 12.6797 62.876 11.9434 62.8363L11.9434 62.7743C12.5691 62.6438 13.0066 62.0773 12.9748 61.4389C12.9292 60.9838 12.7031 60.566 12.3471 60.2789C11.991 59.9919 11.5347 59.8596 11.0803 59.9117C10.5923 59.8553 10.1028 60.0047 9.72945 60.324C9.35605 60.6432 9.13243 61.1035 9.11226 61.5944L9.96358 61.5944C9.98085 61.3266 10.1067 61.0774 10.312 60.9046C10.5173 60.7317 10.7843 60.6502 11.0511 60.6788C11.6791 60.6788 12.0907 61.0296 12.0907 61.5663C12.0856 61.8324 11.9683 62.0839 11.7679 62.2589C11.5675 62.4339 11.3025 62.5162 11.0383 62.4855L10.3366 62.4855L10.3436 63.2245Z" id="path54" fill="#FCE237" fill-rule="evenodd" stroke="none" />
      <path d="M11.6354 83.9268L12.5073 83.9268L12.5073 82.7997L13.3107 82.7997L13.3107 81.9916L12.5073 81.9916L12.5073 78.1L11.2231 78.1C10.1846 79.6548 9.31628 81.0075 8.8 81.9597L8.8 82.7997L11.6354 82.7997L11.6354 83.9268ZM9.66362 81.9562C10.35 80.7653 11.0211 79.7316 11.5988 78.8951L11.6508 78.8951L11.6508 82.0129L9.66362 82.0129L9.66362 81.9562Z" id="path66" fill="#FCE237" fill-rule="evenodd" stroke="none" />
      <path d="M11.301 101.978C11.8501 102.019 12.3907 101.824 12.7871 101.442C13.1835 101.06 13.3983 100.526 13.3776 99.9762C13.4074 99.4693 13.2234 98.973 12.8703 98.608C12.5173 98.243 12.0274 98.0426 11.5198 98.0556C11.0548 98.0252 10.6036 98.2201 10.3069 98.5794L10.2394 98.5794L10.3907 96.8962L13.0447 96.8962L13.0447 96.1L9.69345 96.1L9.38964 99.3837L10.2045 99.3837C10.4424 99.0009 10.8681 98.7759 11.3184 98.7947C11.6414 98.7806 11.9553 98.9042 12.1819 99.1348C12.4085 99.3654 12.5267 99.6814 12.5069 100.004C12.5252 100.326 12.4046 100.641 12.1756 100.868C11.9466 101.096 11.6312 101.214 11.3091 101.194C10.7353 101.242 10.2241 100.833 10.1451 100.263L9.3 100.263C9.33192 100.758 9.56231 101.219 9.93898 101.542C10.3157 101.865 10.8067 102.022 11.301 101.978L11.301 101.978Z" id="path78" fill="#FCE237" fill-rule="evenodd" stroke="none" />
      <path d="M1 114.561L1 112.28C1 111.651 1.17951 111.113 1.53853 110.668C1.89755 110.223 2.33093 110 2.83866 110L19.1613 110C19.6687 110 20.1024 110.223 20.4614 110.668C20.8205 111.113 21 111.651 21 112.28L21 121.72C21 122.349 20.8205 122.887 20.4614 123.332C20.1024 123.777 19.6687 124 19.1613 124L2.83866 124C2.33093 124 1.89755 123.777 1.53853 123.332C1.17951 122.887 1 122.349 1 121.72L1 114.561Z" id="path1050" fill="#FFFFFF" fill-opacity="0.08" fill-rule="evenodd" stroke="none" />
      <path d="M11.2663 119.897C11.8205 119.93 12.3631 119.73 12.7632 119.345C13.1632 118.96 13.3844 118.426 13.3732 117.871C13.3946 117.356 13.2014 116.855 12.8395 116.487C12.4776 116.12 11.9796 115.92 11.4642 115.933C10.8256 115.9 10.2265 116.243 9.93234 116.811L9.86871 116.811C9.88874 115.414 10.4049 114.604 11.2981 114.604C11.7918 114.58 12.2383 114.896 12.381 115.369L13.2872 115.369C13.1168 114.422 12.2673 113.75 11.3063 113.803C9.85221 113.803 9.00259 114.955 9.00259 116.928C8.98036 117.537 9.10145 118.142 9.35611 118.696C9.69025 119.446 10.4448 119.921 11.2663 119.897L11.2663 119.897ZM11.2581 119.103C10.9322 119.108 10.6183 118.981 10.3883 118.75C10.1583 118.519 10.032 118.205 10.0384 117.879C10.0328 117.556 10.1613 117.245 10.3933 117.02C10.6253 116.795 10.9401 116.677 11.2628 116.692C11.5875 116.677 11.9038 116.798 12.1349 117.027C12.3661 117.256 12.4908 117.571 12.4789 117.895C12.4831 118.219 12.3555 118.531 12.1252 118.759C11.8949 118.987 11.5819 119.111 11.2581 119.103L11.2581 119.103Z" id="path90" fill="#FCE237" fill-rule="evenodd" stroke="none" />
      <path d="M1 132.561L1 130.28C1 129.651 1.17951 129.113 1.53853 128.668C1.89755 128.223 2.33093 128 2.83866 128L19.1613 128C19.6687 128 20.1024 128.223 20.4614 128.668C20.8205 129.113 21 129.651 21 130.28L21 139.72C21 140.349 20.8205 140.887 20.4614 141.332C20.1024 141.777 19.6687 142 19.1613 142L2.83866 142C2.33093 142 1.89755 141.777 1.53853 141.332C1.17951 140.887 1 140.349 1 139.72L1 132.561Z" id="path10366" fill="#FFFFFF" fill-opacity="0.08" fill-rule="evenodd" stroke="none" />
      <path d="M1 150.561L1 148.28C1 147.651 1.17951 147.113 1.53853 146.668C1.89755 146.223 2.33093 146 2.83866 146L19.1613 146C19.6687 146 20.1024 146.223 20.4614 146.668C20.8205 147.113 21 147.651 21 148.28L21 157.72C21 158.349 20.8205 158.887 20.4614 159.332C20.1024 159.777 19.6687 160 19.1613 160L2.83866 160C2.33093 160 1.89755 159.777 1.53853 159.332C1.17951 158.887 1 158.349 1 157.72L1 150.561Z" id="path10380" fill="#FFFFFF" fill-opacity="0.08" fill-rule="evenodd" stroke="none" />
      <path d="M1 168.561L1 166.28C1 165.651 1.17951 165.113 1.53853 164.668C1.89755 164.223 2.33093 164 2.83866 164L19.1613 164C19.6687 164 20.1024 164.223 20.4614 164.668C20.8205 165.113 21 165.651 21 166.28L21 175.72C21 176.349 20.8205 176.887 20.4614 177.332C20.1024 177.777 19.6687 178 19.1613 178L2.83866 178C2.33093 178 1.89755 177.777 1.53853 177.332C1.17951 176.887 1 176.349 1 175.72L1 168.561Z" id="path10394" fill="#FFFFFF" fill-opacity="0.08" fill-rule="evenodd" stroke="none" />
      <path d="M1 186.561L1 184.28C1 183.651 1.17951 183.113 1.53853 182.668C1.89755 182.223 2.33093 182 2.83866 182L19.1613 182C19.6687 182 20.1024 182.223 20.4614 182.668C20.8205 183.113 21 183.651 21 184.28L21 193.72C21 194.349 20.8205 194.887 20.4614 195.332C20.1024 195.777 19.6687 196 19.1613 196L2.83866 196C2.33093 196 1.89755 195.777 1.53853 195.332C1.17951 194.887 1 194.349 1 193.72L1 186.561Z" id="path10408" fill="#FFFFFF" fill-opacity="0.08" fill-rule="evenodd" stroke="none" />
      <g id="text10618" transform="translate(6.7032394 185.81487)">
        <path d="M1.55449 6.0621L1.55449 1.13202L1.48477 1.13202L0 2.18202L0 1.24277L1.55859 0.143555L2.47324 0.143555L2.47324 6.06212L1.55449 6.0621Z" id="path10681" fill="#FCE237" fill-rule="evenodd" stroke="none" />
        <path d="M6.28359 6.20566C5.5918 6.20566 5.05312 5.93359 4.66758 5.38945C4.28476 4.84531 4.09336 4.08105 4.09336 3.09668C4.09336 2.1205 4.28613 1.36035 4.67168 0.816208C5.05723 0.272064 5.59453 0 6.28359 0C6.96719 0 7.50176 0.273438 7.8873 0.820313C8.27285 1.36446 8.46562 2.12598 8.46562 3.10489C8.46562 4.08653 8.27422 4.84941 7.89141 5.39356C7.50859 5.93495 6.97266 6.20566 6.28359 6.20566L6.28359 6.20566ZM5.34844 4.80702C5.56719 5.20351 5.87891 5.40175 6.28359 5.40175C6.68828 5.40175 6.99863 5.20486 7.21465 4.81111C7.43066 4.41463 7.53867 3.84314 7.53867 3.09666C7.53867 2.35838 7.4293 1.79237 7.21055 1.39862C6.9918 1.00214 6.68281 0.803894 6.28359 0.803894C5.88437 0.803894 5.57402 1.00214 5.35254 1.39862C5.13105 1.7951 5.02031 2.36111 5.02031 3.09666C5.02031 3.84041 5.12969 4.41052 5.34844 4.80702L5.34844 4.80702Z" id="path10683" fill="#FCE237" fill-rule="evenodd" stroke="none" />
      </g>
      <path d="M1 204.561L1 202.28C1 201.651 1.17951 201.113 1.53853 200.668C1.89755 200.223 2.33093 200 2.83866 200L19.1613 200C19.6687 200 20.1024 200.223 20.4614 200.668C20.8205 201.113 21 201.651 21 202.28L21 211.72C21 212.349 20.8205 212.887 20.4614 213.332C20.1024 213.777 19.6687 214 19.1613 214L2.83866 214C2.33093 214 1.89755 213.777 1.53853 213.332C1.17951 212.887 1 212.349 1 211.72L1 204.561Z" id="path10422" fill="#FFFFFF" fill-opacity="0.08" fill-rule="evenodd" stroke="none" />
      <g id="text10626" transform="translate(7.2716064 203.86195)">
        <path d="M1.55449 5.91856L1.55449 0.98848L1.48477 0.98848L0 2.03848L0 1.09923L1.55859 0L2.47324 0L2.47324 5.91856L1.55449 5.91856Z" id="path10686" fill="#FCE237" fill-rule="evenodd" stroke="none" />
        <path d="M5.61094 5.91856L5.61094 0.98848L5.54121 0.98848L4.05644 2.03848L4.05644 1.09923L5.61503 1.52588e-05L6.52968 1.52588e-05L6.52968 5.91858L5.61094 5.91856Z" id="path10688" fill="#FCE237" fill-rule="evenodd" stroke="none" />
      </g>
      <path d="M1 222.561L1 220.28C1 219.651 1.17951 219.113 1.53853 218.668C1.89755 218.223 2.33093 218 2.83866 218L19.1613 218C19.6687 218 20.1024 218.223 20.4614 218.668C20.8205 219.113 21 219.651 21 220.28L21 229.72C21 230.349 20.8205 230.887 20.4614 231.332C20.1024 231.777 19.6687 232 19.1613 232L2.83866 232C2.33093 232 1.89755 231.777 1.53853 231.332C1.17951 230.887 1 230.349 1 229.72L1 222.561Z" id="path10436" fill="#FFFFFF" fill-opacity="0.08" fill-rule="evenodd" stroke="none" />
      <g id="text10634" transform="translate(6.8630943 221.78181)">
        <path d="M1.55449 6.0621L1.55449 1.13202L1.48477 1.13202L0 2.18202L0 1.24277L1.55859 0.143555L2.47324 0.143555L2.47324 6.06212L1.55449 6.0621Z" id="path10691" fill="#FCE237" fill-rule="evenodd" stroke="none" />
        <path d="M4.14258 1.8539C4.14258 1.30975 4.32851 0.865433 4.70039 0.520905C5.07226 0.17363 5.54941 0 6.13183 0C6.69512 0 7.16133 0.159958 7.53047 0.479874C7.89961 0.799789 8.08418 1.20311 8.08418 1.68983C8.08418 2.00429 7.99121 2.31601 7.80527 2.625C7.62207 2.93124 7.28301 3.33456 6.78808 3.83496L5.47148 5.16797L5.47148 5.23767L8.17851 5.23767L8.17851 6.06209L4.1918 6.06209L4.1918 5.39763L6.19336 3.31404C6.58711 2.90389 6.84961 2.59489 6.98086 2.38708C7.11211 2.17653 7.17773 1.96188 7.17773 1.74313C7.17773 1.47243 7.07519 1.24684 6.87012 1.06638C6.66504 0.88591 6.40937 0.79567 6.10312 0.79567C5.77773 0.79567 5.51387 0.892746 5.31152 1.08688C5.11191 1.28102 5.01211 1.53668 5.01211 1.85387L5.01211 1.86617L4.14258 1.86617L4.14258 1.8539Z" id="path10693" fill="#FCE237" fill-rule="evenodd" stroke="none" />
      </g>
      <path d="M1 240.561L1 238.28C1 237.651 1.17951 237.113 1.53853 236.668C1.89755 236.223 2.33093 236 2.83866 236L19.1613 236C19.6687 236 20.1024 236.223 20.4614 236.668C20.8205 237.113 21 237.651 21 238.28L21 247.72C21 248.349 20.8205 248.887 20.4614 249.332C20.1024 249.777 19.6687 250 19.1613 250L2.83866 250C2.33093 250 1.89755 249.777 1.53853 249.332C1.17951 248.887 1 248.349 1 247.72L1 240.561Z" id="path10450" fill="#FFFFFF" fill-opacity="0.08" fill-rule="evenodd" stroke="none" />
      <g id="text10642" transform="translate(6.7210007 239.82745)">
        <path d="M1.55449 6.0621L1.55449 1.13202L1.48477 1.13202L0 2.18202L0 1.24277L1.55859 0.143539L2.47324 0.143539L2.47324 6.0621L1.55449 6.0621Z" id="path10696" fill="#FCE237" fill-rule="evenodd" stroke="none" />
        <path d="M5.48379 3.40428L5.48379 2.64551L6.20156 2.64551C6.51875 2.64551 6.77715 2.55801 6.97676 2.38301C7.17637 2.20801 7.27617 1.98106 7.27617 1.70215C7.27617 1.42598 7.1791 1.20586 6.98496 1.04179C6.79082 0.875 6.53242 0.791611 6.20976 0.791611C5.88711 0.791611 5.62598 0.875 5.42637 1.04179C5.22949 1.20859 5.11875 1.43828 5.09414 1.73087L4.22051 1.73087C4.25059 1.19493 4.4461 0.772461 4.80703 0.46347C5.16797 0.154495 5.64512 0 6.23848 0C6.78809 0 7.24883 0.150391 7.6207 0.451172C7.99531 0.749222 8.18262 1.12109 8.18262 1.56679C8.18262 1.91406 8.08692 2.21074 7.89551 2.45683C7.70684 2.70293 7.44981 2.86288 7.12441 2.93672L7.12441 3.00642C7.52637 3.05289 7.84355 3.20602 8.07598 3.46581C8.3084 3.72284 8.42461 4.04959 8.42461 4.44608C8.42461 4.77693 8.33027 5.07635 8.1416 5.34431C7.95293 5.61229 7.6918 5.82283 7.3582 5.97595C7.02734 6.12907 6.65957 6.20564 6.25488 6.20564C5.63418 6.20564 5.12695 6.04568 4.7332 5.72577C4.34219 5.40585 4.13301 4.98203 4.10566 4.45428L4.9875 4.45428C5.01758 4.74139 5.1461 4.96971 5.37305 5.13925C5.60274 5.30878 5.89668 5.39354 6.25488 5.39354C6.61582 5.39354 6.91113 5.30057 7.14082 5.11464C7.37051 4.9287 7.48535 4.68944 7.48535 4.39687C7.48535 4.09062 7.37324 3.84863 7.14902 3.6709C6.92481 3.49315 6.61856 3.40428 6.23027 3.40428L5.48379 3.40428Z" id="path10698" fill="#FCE237" fill-rule="evenodd" stroke="none" />
      </g>
      <path d="M1 258.561L1 256.28C1 255.651 1.17951 255.113 1.53853 254.668C1.89755 254.223 2.33093 254 2.83866 254L19.1613 254C19.6687 254 20.1024 254.223 20.4614 254.668C20.8205 255.113 21 255.651 21 256.28L21 265.72C21 266.349 20.8205 266.887 20.4614 267.332C20.1024 267.777 19.6687 268 19.1613 268L2.83866 268C2.33093 268 1.89755 267.777 1.53853 267.332C1.17951 266.887 1 266.349 1 265.72L1 258.561Z" id="path10464" fill="#FFFFFF" fill-opacity="0.08" fill-rule="evenodd" stroke="none" />
      <g id="text10650" transform="translate(6.6144333 257.8923)">
        <path d="M1.55449 5.91855L1.55449 0.988464L1.48477 0.988464L0 2.03845L0 1.09921L1.55859 0L2.47324 0L2.47324 5.91855L1.55449 5.91855Z" id="path10701" fill="#FCE237" fill-rule="evenodd" stroke="none" />
        <path d="M6.91523 5.91855L6.91523 4.77423L4.02773 4.77423L4.02773 3.92111C4.48711 3.08167 5.30879 1.77463 6.49277 3.05176e-05L7.80117 3.05176e-05L7.80117 3.95392L8.61738 3.95392L8.61738 4.77423L7.80117 4.77423L7.80117 5.91855L6.91523 5.91855ZM4.90957 3.91699L4.90957 3.9744L6.92754 3.9744L6.92754 0.807983L6.87422 0.807983C6.17969 1.81424 5.5248 2.85056 4.90957 3.91696L4.90957 3.91699Z" id="path10703" fill="#FCE237" fill-rule="evenodd" stroke="none" />
      </g>
      <path d="M1 276.561L1 274.28C1 273.651 1.17951 273.113 1.53853 272.668C1.89755 272.223 2.33093 272 2.83866 272L19.1613 272C19.6687 272 20.1024 272.223 20.4614 272.668C20.8205 273.113 21 273.651 21 274.28L21 283.72C21 284.349 20.8205 284.887 20.4614 285.332C20.1024 285.777 19.6687 286 19.1613 286L2.83866 286C2.33093 286 1.89755 285.777 1.53853 285.332C1.17951 284.887 1 284.349 1 283.72L1 276.561Z" id="path10478" fill="#FFFFFF" fill-opacity="0.08" fill-rule="evenodd" stroke="none" />
      <g id="text10658" transform="translate(6.7032394 275.88464)">
        <path d="M1.55449 5.91855L1.55449 0.988464L1.48477 0.988464L0 2.03845L0 1.09921L1.55859 0L2.47324 0L2.47324 5.91855L1.55449 5.91855Z" id="path10706" fill="#FCE237" fill-rule="evenodd" stroke="none" />
        <path d="M6.24258 6.0621C5.65469 6.0621 5.1707 5.89804 4.79063 5.56992C4.41055 5.24179 4.20684 4.81796 4.17949 4.29843L5.05313 4.29843C5.08867 4.58554 5.21582 4.81659 5.43457 4.99158C5.65332 5.1666 5.92539 5.25409 6.25078 5.25409C6.61992 5.25409 6.91797 5.14197 7.14492 4.91776C7.37188 4.69354 7.48535 4.39685 7.48535 4.02771C7.48535 3.65857 7.37188 3.35916 7.14492 3.12946C6.91797 2.89703 6.62402 2.78082 6.26309 2.78082C6.01152 2.78082 5.78594 2.83414 5.58633 2.9408C5.38672 3.04745 5.22949 3.19647 5.11465 3.38788L4.27383 3.38788L4.58555 0L8.03906 0L8.03906 0.820313L5.30332 0.820313L5.14746 2.55527L5.21719 2.55527C5.4961 2.19708 5.91309 2.01797 6.46817 2.01797C7.03145 2.01797 7.49082 2.20392 7.84629 2.57578C8.20449 2.94492 8.3836 3.42068 8.3836 4.00311C8.3836 4.61563 8.18535 5.11191 7.78887 5.49197C7.39512 5.87207 6.87969 6.0621 6.24258 6.0621L6.24258 6.0621Z" id="path10708" fill="#FCE237" fill-rule="evenodd" stroke="none" />
      </g>
      <path d="M1 294.561L1 292.28C1 291.651 1.17951 291.113 1.53853 290.668C1.89755 290.223 2.33093 290 2.83866 290L19.1613 290C19.6687 290 20.1024 290.223 20.4614 290.668C20.8205 291.113 21 291.651 21 292.28L21 301.72C21 302.349 20.8205 302.887 20.4614 303.332C20.1024 303.777 19.6687 304 19.1613 304L2.83866 304C2.33093 304 1.89755 303.777 1.53853 303.332C1.17951 302.887 1 302.349 1 301.72L1 294.561Z" id="path10492" fill="#FFFFFF" fill-opacity="0.08" fill-rule="evenodd" stroke="none" />
      <g id="text10666" transform="translate(6.738762 293.76895)">
        <path d="M1.55449 6.0621L1.55449 1.13202L1.48477 1.13202L0 2.18201L0 1.24274L1.55859 0.143524L2.47324 0.143524L2.47324 6.06207L1.55449 6.0621Z" id="path10711" fill="#FCE237" fill-rule="evenodd" stroke="none" />
        <path d="M6.37793 6.20566C5.94043 6.20566 5.55488 6.10037 5.22129 5.88983C4.89043 5.67929 4.62793 5.37576 4.43379 4.97928C4.19316 4.50623 4.07285 3.90604 4.07285 3.17871C4.07285 2.1752 4.27793 1.39453 4.68809 0.8367C5.10098 0.2789 5.67793 0 6.41894 0C6.94121 0 7.38555 0.144928 7.75195 0.434753C8.11836 0.721863 8.34668 1.10742 8.43691 1.5914L7.51406 1.5914C7.44023 1.35077 7.30488 1.16074 7.10801 1.02127C6.91113 0.881836 6.67871 0.812103 6.41074 0.812103C5.95684 0.812103 5.60274 1.00897 5.34844 1.40274C5.09687 1.79376 4.96562 2.3461 4.95469 3.05978L5.02442 3.05978C5.1666 2.77539 5.37305 2.5553 5.64375 2.39944C5.91719 2.24359 6.22891 2.16565 6.57891 2.16565C7.14219 2.16565 7.60703 2.35159 7.97344 2.72345C8.33985 3.09534 8.52305 3.56702 8.52305 4.13849C8.52305 4.7428 8.32207 5.23907 7.92012 5.62735C7.51817 6.01288 7.0041 6.20566 6.37793 6.20566L6.37793 6.20566ZM5.48379 5.04083C5.72168 5.27872 6.01699 5.39767 6.36972 5.39767C6.72246 5.39767 7.01777 5.28009 7.25566 5.04495C7.49355 4.80978 7.6125 4.51721 7.6125 4.16721C7.6125 3.80902 7.49629 3.51508 7.26387 3.28537C7.03418 3.05566 6.7375 2.94083 6.37383 2.94083C6.01289 2.94083 5.71484 3.05566 5.47969 3.28537C5.24453 3.51233 5.12695 3.80078 5.12695 4.15079C5.12695 4.50354 5.2459 4.8002 5.48379 5.04083L5.48379 5.04083Z" id="path10713" fill="#FCE237" fill-rule="evenodd" stroke="none" />
      </g>
      <g id="text10506" transform="translate(9.231606 132.01172)">
        <path d="M0.5 6.01251L3.15 0.895859L3.15 0.829163L0 0.829163L0 0L4.09583 0L4.09583 0.845841L1.47917 6.0125L0.5 6.01251Z" id="path10672" fill="#FCE237" fill-rule="evenodd" stroke="none" />
      </g>
      <g id="text10594" transform="translate(8.995857 149.77687)">
        <path d="M3.83086 5.72578C3.41797 6.0457 2.88203 6.20566 2.22305 6.20566C1.56406 6.20566 1.02812 6.0457 0.615234 5.72578C0.205078 5.40585 0 4.99023 0 4.4789C0 4.10156 0.113477 3.7748 0.340429 3.49863C0.570117 3.22246 0.874999 3.04608 1.25508 2.96953L1.25508 2.89983C0.946093 2.82053 0.698631 2.6633 0.512694 2.42815C0.329491 2.19025 0.237889 1.9127 0.237889 1.59552C0.237889 1.12794 0.423827 0.745132 0.795702 0.447083C1.16758 0.149033 1.64336 0 2.22305 0C2.80273 0 3.27851 0.149033 3.65039 0.447083C4.02226 0.745132 4.2082 1.12794 4.2082 1.59552C4.2082 1.91545 4.1166 2.19299 3.9334 2.42815C3.75019 2.6633 3.50273 2.82053 3.19101 2.89983L3.19101 2.96953C3.57109 3.04062 3.87598 3.21425 4.10566 3.49042C4.33535 3.76386 4.45019 4.09198 4.45019 4.47479C4.45019 4.98611 4.24375 5.40311 3.83086 5.72577L3.83086 5.72578ZM1.29609 5.15567C1.53398 5.34708 1.84297 5.44278 2.22305 5.44278C2.60313 5.44278 2.91211 5.34708 3.15 5.15567C3.38789 4.96153 3.50684 4.70996 3.50684 4.40099C3.50684 4.092 3.38789 3.84044 3.15 3.6463C2.91211 3.45216 2.60313 3.35509 2.22305 3.35509C1.84297 3.35509 1.53398 3.45216 1.29609 3.6463C1.0582 3.84044 0.939258 4.09201 0.939258 4.40099C0.939258 4.70998 1.0582 4.96153 1.29609 5.15567L1.29609 5.15567ZM1.43965 2.3502C1.63926 2.51974 1.90039 2.60451 2.22305 2.60451C2.5457 2.60451 2.80684 2.51974 3.00644 2.3502C3.20605 2.18066 3.30586 1.95918 3.30586 1.68576C3.30586 1.40959 3.20605 1.18536 3.00644 1.01311C2.80684 0.840836 2.5457 0.7547 2.22305 0.7547C1.90039 0.7547 1.63926 0.840836 1.43965 1.01311C1.24277 1.18538 1.14434 1.40959 1.14434 1.68576C1.14434 1.9592 1.24277 2.18068 1.43965 2.3502L1.43965 2.3502Z" id="path10675" fill="#FCE237" fill-rule="evenodd" stroke="none" />
      </g>
      <g id="text10602" transform="translate(9.046391 167.8225)">
        <path d="M2.10821 6.20567C1.58321 6.20567 1.1375 6.06075 0.771098 5.7709C0.404692 5.48106 0.176372 5.09416 0.0861368 4.61017L1.01309 4.61017C1.08418 4.8508 1.21817 5.04083 1.41504 5.18028C1.61192 5.31973 1.84571 5.38947 2.11641 5.38947C2.57032 5.38947 2.92305 5.19395 3.17461 4.80293C3.42891 4.40918 3.56016 3.85547 3.56836 3.1418L3.53555 3.1418L3.51504 3.1418L3.49863 3.1418C3.35645 3.42618 3.15 3.64766 2.8793 3.80624C2.60859 3.96211 2.29824 4.04004 1.94824 4.04004C1.38496 4.04004 0.91875 3.8541 0.549609 3.48222C0.183203 3.11035 0 2.63867 0 2.06718C0 1.46289 0.19961 0.967972 0.598828 0.582428C1.00078 0.194138 1.51621 0 2.14512 0C2.58262 0 2.96816 0.10527 3.30176 0.315826C3.63535 0.523636 3.89785 0.82579 4.08926 1.22227C4.33262 1.70079 4.4543 2.30098 4.4543 3.02286C4.4543 4.02637 4.24785 4.8084 3.83496 5.36894C3.4248 5.92676 2.84922 6.20566 2.1082 6.20566L2.10821 6.20567ZM2.14923 3.26076C2.51017 3.26076 2.80821 3.14728 3.04337 2.92033C3.27852 2.69339 3.3961 2.40491 3.3961 2.0549C3.3961 1.69943 3.27716 1.40276 3.03927 1.16486C2.80138 0.926956 2.50743 0.808014 2.15743 0.808014C1.8047 0.808014 1.50938 0.925598 1.27149 1.16075C1.0336 1.3959 0.914658 1.68712 0.914658 2.03438C0.914658 2.39258 1.0295 2.68652 1.25919 2.91621C1.48888 3.1459 1.78556 3.26076 2.14923 3.26076L2.14923 3.26076Z" id="path10678" fill="#FCE237" fill-rule="evenodd" stroke="none" />
      </g>
    </g>
  </g>
</svg>