<svg width="31" height="22" viewBox="0 0 31 22" fill="none" xmlns="http://www.w3.org/2000/svg">
<path fill-rule="evenodd" clip-rule="evenodd" d="M1.71041 11.0003H15.2896C16.2372 11.0003 17 11.7631 17 12.7107V20.2899V22.0003H1.71041C0.762843 22.0003 0 21.2375 0 20.2899V12.7107C0 11.7631 0.762843 11.0003 1.71041 11.0003Z" fill="#959197" fill-opacity="0.27451"/>
<path fill-rule="evenodd" clip-rule="evenodd" d="M15.75 21.4926L1.63152 21.4929C0.727657 21.493 0 20.7653 0 19.8614V12.6318C0 11.728 0.727657 11.0003 1.63152 11.0003L15.75 11" fill="#0A090A"/>
<path fill-rule="evenodd" clip-rule="evenodd" d="M1.84643 11.4142H15.25V20.997H1.84643C1.05588 20.997 0.419434 20.3605 0.419434 19.57V12.8412C0.419434 12.0506 1.05588 11.4142 1.84643 11.4142Z" fill="#655959"/>
<path fill-rule="evenodd" clip-rule="evenodd" d="M5.92911 16.1463L9.74031 18.433V13.8595L5.92911 16.1463Z" fill="#DBD7D7"/>
<path fill-rule="evenodd" clip-rule="evenodd" d="M0.413548 12.9428C0.413548 12.8966 0.347521 12.5922 0.61949 12.1213C0.88685 11.6584 1.41248 11.4236 1.69595 11.4234L15.25 11.4142L15.2503 11.9201C15.2503 11.9201 2.12509 11.9203 1.67955 11.9203C0.760705 11.9203 0.413548 12.9962 0.413548 12.9428Z" fill="#959197"/>
<path fill-rule="evenodd" clip-rule="evenodd" d="M29.2896 11.0003H18.7113C17.7637 11.0003 17.0009 11.7631 17.0009 12.7107V20.2899V22.0003H29.2896C30.2372 22.0003 31 21.2375 31 20.2899V12.7107C31 11.7631 30.2372 11.0003 29.2896 11.0003Z" fill="#959197" fill-opacity="0.27451"/>
<path fill-rule="evenodd" clip-rule="evenodd" d="M15.25 21.4926L29.3685 21.4929C30.2723 21.493 31 20.7653 31 19.8614V12.6318C31 11.728 30.2723 11.0003 29.3685 11.0003L15.25 11" fill="#0A090A"/>
<path fill-rule="evenodd" clip-rule="evenodd" d="M29.1536 11.4142H15.75V20.997H29.1536C29.9441 20.997 30.5806 20.3605 30.5806 19.57V12.8412C30.5806 12.0506 29.9441 11.4142 29.1536 11.4142Z" fill="#655959"/>
<path fill-rule="evenodd" clip-rule="evenodd" d="M25.0709 16.1463L21.2597 18.433V13.8595L25.0709 16.1463Z" fill="#DBD7D7"/>
<path fill-rule="evenodd" clip-rule="evenodd" d="M30.5865 12.9428C30.5865 12.8966 30.6525 12.5922 30.3805 12.1213C30.1132 11.6584 29.5875 11.4236 29.3041 11.4234L15.75 11.4142L15.7497 11.9201C15.7497 11.9201 28.8749 11.9203 29.3205 11.9203C30.2393 11.9203 30.5865 12.9962 30.5865 12.9428Z" fill="#959197"/>
<path fill-rule="evenodd" clip-rule="evenodd" d="M1.71041 0.000305176H15.2896C16.2372 0.000305176 17 0.763105 17 1.7107V9.2899V11.0003H1.71041C0.762843 11.0003 0 10.2375 0 9.2899V1.7107C0 0.763105 0.762843 0.000305176 1.71041 0.000305176Z" fill="#959197" fill-opacity="0.27451"/>
<path fill-rule="evenodd" clip-rule="evenodd" d="M15.75 10.4926L1.63152 10.4929C0.727657 10.493 0 9.76531 0 8.86141V1.6318C0 0.728004 0.727657 0.000305176 1.63152 0.000305176L15.75 0" fill="#0A090A"/>
<path fill-rule="evenodd" clip-rule="evenodd" d="M1.84643 0.4142H15.25V9.997H1.84643C1.05588 9.997 0.419434 9.3605 0.419434 8.57V1.8412C0.419434 1.0506 1.05588 0.4142 1.84643 0.4142Z" fill="#655959"/>
<path fill-rule="evenodd" clip-rule="evenodd" d="M5.92911 5.1463L9.74031 7.433V2.8595L5.92911 5.1463Z" fill="#DBD7D7"/>
<path fill-rule="evenodd" clip-rule="evenodd" d="M0.413548 1.9428C0.413548 1.8966 0.347521 1.5922 0.61949 1.1213C0.88685 0.658398 1.41248 0.423598 1.69595 0.423398L15.25 0.4142L15.2503 0.9201C15.2503 0.9201 2.12509 0.920298 1.67955 0.920298C0.760705 0.920298 0.413548 1.9962 0.413548 1.9428Z" fill="#959197"/>
<path fill-rule="evenodd" clip-rule="evenodd" d="M29.2896 0.000305176H18.7113C17.7637 0.000305176 17.0009 0.763105 17.0009 1.7107V9.2899V11.0003H29.2896C30.2372 11.0003 31 10.2375 31 9.2899V1.7107C31 0.763105 30.2372 0.000305176 29.2896 0.000305176Z" fill="#959197" fill-opacity="0.27451"/>
<path fill-rule="evenodd" clip-rule="evenodd" d="M15.25 10.4926L29.3685 10.4929C30.2723 10.493 31 9.76531 31 8.86141V1.6318C31 0.728004 30.2723 0.000305176 29.3685 0.000305176L15.25 0" fill="#0A090A"/>
<path fill-rule="evenodd" clip-rule="evenodd" d="M29.1536 0.4142H15.75V9.997H29.1536C29.9441 9.997 30.5806 9.3605 30.5806 8.57V1.8412C30.5806 1.0506 29.9441 0.4142 29.1536 0.4142Z" fill="#655959"/>
<path fill-rule="evenodd" clip-rule="evenodd" d="M25.0709 5.1463L21.2597 7.433V2.8595L25.0709 5.1463Z" fill="#DBD7D7"/>
<path fill-rule="evenodd" clip-rule="evenodd" d="M30.5865 1.9428C30.5865 1.8966 30.6525 1.5922 30.3805 1.1213C30.1132 0.658398 29.5875 0.423598 29.3041 0.423398L15.75 0.4142L15.7497 0.9201C15.7497 0.9201 28.8749 0.920298 29.3205 0.920298C30.2393 0.920298 30.5865 1.9962 30.5865 1.9428Z" fill="#959197"/>
</svg>
