<svg width="40" height="84" fill="none" xmlns="http://www.w3.org/2000/svg"><path d="M.5 3.5a3 3 0 0 1 3-3h33a3 3 0 0 1 3 3v35a3 3 0 0 1-3 3h-33a3 3 0 0 1-3-3v-35Z" fill="url(#a)"/><path d="m21.926 12.512-1.408-3.848a8.452 8.452 0 0 1-.216-.607c-.075-.235-.15-.489-.224-.76-.07.272-.141.527-.216.768-.075.234-.147.44-.216.616l-1.4 3.832h3.68Zm3.8 4.369h-1.664a.725.725 0 0 1-.456-.137.904.904 0 0 1-.264-.352l-.864-2.36h-4.792l-.864 2.36a.766.766 0 0 1-.248.337.692.692 0 0 1-.456.152h-1.68L18.99 5.312h2.192l4.544 11.569Z" fill="#FF9000"/><path opacity=".5" d="M38 20.5H2v1h36v-1Z" fill="#DBDBDB"/><path d="M20.35 35.82c.4 0 .736-.048 1.008-.144a1.7 1.7 0 0 0 .648-.384c.166-.16.283-.347.352-.56.075-.213.113-.44.113-.68 0-.25-.04-.475-.12-.672a1.234 1.234 0 0 0-.377-.512 1.723 1.723 0 0 0-.663-.328 3.63 3.63 0 0 0-.968-.112h-2.169v3.392h2.177Zm-2.176-8.224v3.344h1.713c.735 0 1.29-.133 1.663-.4.38-.267.569-.69.569-1.272 0-.603-.171-1.032-.512-1.288-.342-.256-.875-.384-1.6-.384h-1.833Zm1.832-1.664c.758 0 1.406.072 1.945.216.538.144.978.35 1.32.616.346.267.6.59.76.968.16.379.24.805.24 1.28 0 .272-.04.533-.12.784-.08.245-.206.477-.377.696a2.727 2.727 0 0 1-.64.584 3.79 3.79 0 0 1-.92.448c1.59.357 2.385 1.216 2.385 2.576 0 .49-.094.944-.28 1.36a3.037 3.037 0 0 1-.816 1.08 3.941 3.941 0 0 1-1.32.704c-.523.17-1.12.256-1.793.256h-4.367V25.932h3.983Z" fill="#DBDBDB"/><path d="M.5 45.5a3 3 0 0 1 3-3h33a3 3 0 0 1 3 3v35a3 3 0 0 1-3 3h-33a3 3 0 0 1-3-3v-35Z" fill="url(#b)"/><path d="m21.845 54.632-1.408-3.848a8.453 8.453 0 0 1-.216-.608 22.001 22.001 0 0 1-.224-.76c-.069.272-.14.528-.216.768-.074.235-.146.44-.216.616l-1.4 3.832h3.68Zm3.8 4.368h-1.664a.724.724 0 0 1-.456-.136.904.904 0 0 1-.264-.352l-.864-2.36h-4.792l-.864 2.36a.767.767 0 0 1-.248.336.692.692 0 0 1-.456.152h-1.68l4.552-11.568h2.192L25.645 59Z" fill="#DBDBDB"/><path opacity=".5" d="M38 62.5H2v1h36v-1Z" fill="#DBDBDB"/><path d="M20.431 77.7c.4 0 .736-.047 1.008-.144a1.7 1.7 0 0 0 .648-.383 1.35 1.35 0 0 0 .352-.56c.075-.214.112-.44.112-.68 0-.251-.04-.475-.12-.673a1.233 1.233 0 0 0-.376-.511 1.723 1.723 0 0 0-.664-.328 3.633 3.633 0 0 0-.968-.113h-2.168V77.7h2.176Zm-2.176-8.224v3.344h1.712c.736 0 1.29-.133 1.664-.4.379-.266.568-.69.568-1.272 0-.602-.17-1.031-.512-1.287-.341-.257-.875-.385-1.6-.385h-1.832Zm1.832-1.663c.757 0 1.405.072 1.944.215.539.144.979.35 1.32.616.347.267.6.59.76.968.16.38.24.806.24 1.28 0 .273-.04.534-.12.785a2.27 2.27 0 0 1-.376.695 2.723 2.723 0 0 1-.64.585 3.787 3.787 0 0 1-.92.448c1.59.357 2.384 1.216 2.384 2.576 0 .49-.093.944-.28 1.36a3.037 3.037 0 0 1-.816 1.08 3.937 3.937 0 0 1-1.32.703c-.523.171-1.12.257-1.792.257h-4.368v-11.57h3.984Z" fill="#FF9000"/><defs><linearGradient id="a" x1="20" y1=".5" x2="20" y2="41.5" gradientUnits="userSpaceOnUse"><stop/><stop offset="1" stop-opacity=".25"/></linearGradient><linearGradient id="b" x1="20" y1="42.5" x2="20" y2="83.5" gradientUnits="userSpaceOnUse"><stop/><stop offset="1" stop-opacity=".25"/></linearGradient></defs></svg>