<svg width="50" height="15" fill="none" xmlns="http://www.w3.org/2000/svg"><path d="M.5 3.5a3 3 0 0 1 3-3h43a3 3 0 0 1 3 3v8a3 3 0 0 1-3 3h-43a3 3 0 0 1-3-3v-8Z" fill="url(#a)"/><path d="M25.545 3.77V11H24.36V6.33c0-.187.01-.388.03-.605L22.205 9.83a.505.505 0 0 1-.475.295h-.19a.505.505 0 0 1-.475-.295l-2.21-4.12c.01.11.018.218.025.325.006.107.01.205.01.295V11h-1.185V3.77h1.015c.06 0 .111.002.155.005a.39.39 0 0 1 .115.025.231.231 0 0 1 .095.065c.03.03.058.07.085.12L21.335 8a8.541 8.541 0 0 1 .3.68 7.17 7.17 0 0 1 .305-.69l2.135-4.005a.506.506 0 0 1 .085-.12.285.285 0 0 1 .095-.065.452.452 0 0 1 .12-.025 2.06 2.06 0 0 1 .155-.005h1.015Zm4.566 4.075c0-.16-.023-.31-.07-.45a1.04 1.04 0 0 0-.2-.375.913.913 0 0 0-.345-.25 1.132 1.132 0 0 0-.48-.095c-.356 0-.638.102-.844.305-.204.203-.334.492-.39.865h2.33Zm-2.355.745c.02.263.067.492.14.685.074.19.17.348.29.475.12.123.262.217.425.28.167.06.35.09.55.09.2 0 .372-.023.515-.07.147-.047.274-.098.38-.155.11-.057.206-.108.285-.155a.491.491 0 0 1 .24-.07c.104 0 .18.038.23.115l.355.45c-.136.16-.29.295-.46.405a2.733 2.733 0 0 1-1.1.395c-.19.027-.375.04-.555.04-.356 0-.688-.058-.994-.175a2.272 2.272 0 0 1-.8-.525 2.493 2.493 0 0 1-.536-.86 3.349 3.349 0 0 1-.195-1.19c0-.35.057-.678.17-.985.114-.31.275-.578.485-.805a2.31 2.31 0 0 1 .775-.545 2.57 2.57 0 0 1 1.035-.2c.324 0 .622.052.896.155.273.103.508.255.704.455.197.197.35.44.46.73.114.287.17.615.17.985 0 .187-.02.313-.06.38-.04.063-.116.095-.23.095h-3.175Zm5.547-2.09a3.47 3.47 0 0 1 .325-.285 1.996 1.996 0 0 1 .78-.37c.147-.037.307-.055.48-.055.28 0 .529.048.745.145.217.093.397.227.54.4.147.17.257.375.33.615.077.237.115.498.115.785V11h-1.235V7.735c0-.313-.071-.555-.215-.725-.143-.173-.361-.26-.655-.26-.213 0-.413.048-.6.145a2.15 2.15 0 0 0-.53.395V11h-1.235V5.87h.755c.16 0 .265.075.315.225l.085.405Zm8.91-.63V11h-.755c-.163 0-.267-.075-.31-.225l-.085-.41c-.21.213-.442.387-.695.52a1.94 1.94 0 0 1-.895.195c-.28 0-.529-.047-.745-.14a1.519 1.519 0 0 1-.54-.405 1.799 1.799 0 0 1-.335-.615 2.695 2.695 0 0 1-.11-.79V5.87h1.235v3.26c0 .313.072.557.215.73.147.17.365.255.655.255.213 0 .413-.047.6-.14a2.15 2.15 0 0 0 .53-.395V5.87h1.235ZM11.057 4.839l2.068 1.076V3.75H6.214c-.327 0-.589.2-.589.447V8.37l1.416.304c.074.016.148-.018.171-.071l.354-.972c.023-.069.13-.1.211-.058l3.387 1.771c.128.067.034.22-.114.187l-2.61-.555c-.074-.015-.151.018-.168.074l-.347.972c-.023.068-.134.1-.211.058l-2.089-1.1v2.27h6.864c.35 0 .633-.217.633-.48V6.538l-1.4-.297c-.073-.015-.147.018-.168.072l-.363.974c-.027.069-.131.097-.212.059L7.59 5.573c-.128-.067-.034-.22.114-.187l2.61.555c.074.015.148-.018.168-.072l.364-.974c.027-.066.13-.097.212-.056Z" fill="#DBDBDB"/><defs><linearGradient id="a" x1="25" y1=".5" x2="25" y2="14.5" gradientUnits="userSpaceOnUse"><stop/><stop offset="1" stop-opacity=".25"/></linearGradient></defs></svg>