<svg width="74" height="39" fill="none" xmlns="http://www.w3.org/2000/svg"><path d="M23 1H2a1 1 0 0 0-1 1v9a1 1 0 0 0 1 1h21a1 1 0 0 0 1-1V2a1 1 0 0 0-1-1Z" fill="url(#a)"/><path d="M14.383 8.604V9.5h-3.32v-.896h1.12v-2.94a6.198 6.198 0 0 1 .017-.456l-.664.552a.41.41 0 0 1-.176.084.536.536 0 0 1-.16 0 .437.437 0 0 1-.136-.052.329.329 0 0 1-.088-.08l-.393-.52L12.4 3.668h1.025v4.936h.96Z" fill="#FF9000"/><path d="M38.834 8.38c.133 0 .239.037.316.112a.375.375 0 0 1 .116.288v.72H35.17v-.4c0-.077.016-.16.048-.248a.598.598 0 0 1 .168-.24l1.68-1.692c.144-.144.27-.281.376-.412.107-.13.195-.259.264-.384a1.538 1.538 0 0 0 .208-.784c0-.232-.056-.41-.168-.532-.11-.125-.277-.188-.504-.188a.744.744 0 0 0-.728.508c-.056.147-.13.244-.22.292-.09.048-.22.059-.388.032l-.656-.116c.043-.29.124-.544.244-.76a1.87 1.87 0 0 1 .452-.54c.181-.144.388-.25.62-.32a2.51 2.51 0 0 1 .748-.108c.288 0 .547.043.776.128.232.083.43.199.592.348.163.15.287.328.372.536.088.205.132.432.132.68 0 .213-.03.41-.092.592a2.31 2.31 0 0 1-.244.52 3.696 3.696 0 0 1-.364.476 13.54 13.54 0 0 1-.436.464L36.91 8.52c.147-.045.292-.08.436-.104.144-.024.277-.036.4-.036h1.088Zm21.198-3.044c.042-.29.124-.544.244-.76a1.87 1.87 0 0 1 .452-.54c.18-.144.388-.25.62-.32a2.51 2.51 0 0 1 .748-.108c.288 0 .544.041.768.124.224.08.413.19.568.328a1.411 1.411 0 0 1 .472 1.06c0 .184-.02.347-.056.488a1.14 1.14 0 0 1-.168.364 1.013 1.013 0 0 1-.272.26c-.107.07-.23.128-.368.176.645.227.968.667.968 1.32 0 .31-.056.579-.168.808-.112.23-.263.42-.452.572a1.93 1.93 0 0 1-.652.344 2.677 2.677 0 0 1-.776.112 2.83 2.83 0 0 1-.74-.088 1.755 1.755 0 0 1-.576-.28 1.916 1.916 0 0 1-.444-.488 3.323 3.323 0 0 1-.328-.704l.552-.224a.689.689 0 0 1 .4-.044c.122.027.21.088.264.184.12.221.246.383.38.484a.79.79 0 0 0 .476.148.801.801 0 0 0 .616-.248.753.753 0 0 0 .156-.252.81.81 0 0 0 .052-.284c0-.125-.01-.237-.028-.336a.433.433 0 0 0-.144-.26.812.812 0 0 0-.364-.164c-.16-.04-.384-.06-.672-.06v-.856c.242 0 .438-.019.588-.056a.9.9 0 0 0 .344-.152.47.47 0 0 0 .164-.24c.026-.093.04-.196.04-.308 0-.23-.056-.405-.168-.528-.11-.125-.278-.188-.504-.188a.744.744 0 0 0-.728.508c-.056.147-.13.244-.22.292-.091.048-.22.059-.388.032l-.656-.116ZM14.383 21.604v.896h-3.32v-.896h1.12v-2.94a6.198 6.198 0 0 1 .017-.456l-.664.552a.41.41 0 0 1-.176.084.536.536 0 0 1-.16 0 .438.438 0 0 1-.136-.052.329.329 0 0 1-.088-.08l-.393-.52 1.816-1.524h1.025v4.936h.96Z" fill="#DBDBDB"/><path d="M47.75 14h-21a1 1 0 0 0-1 1v9a1 1 0 0 0 1 1h21a1 1 0 0 0 1-1v-9a1 1 0 0 0-1-1Z" fill="url(#b)"/><path d="M38.834 21.38c.133 0 .239.037.316.112a.375.375 0 0 1 .116.288v.72H35.17v-.4c0-.077.016-.16.048-.248a.598.598 0 0 1 .168-.24l1.68-1.692c.144-.144.27-.281.376-.412.107-.13.195-.259.264-.384a1.538 1.538 0 0 0 .208-.784c0-.232-.056-.41-.168-.532-.11-.125-.277-.188-.504-.188a.743.743 0 0 0-.728.508c-.056.147-.13.244-.22.292-.09.048-.22.059-.388.032l-.656-.116c.043-.29.124-.544.244-.76a1.87 1.87 0 0 1 .452-.54c.181-.144.388-.25.62-.32a2.51 2.51 0 0 1 .748-.108c.288 0 .547.043.776.128.232.083.43.199.592.348.163.15.287.328.372.536.088.205.132.432.132.68 0 .213-.03.41-.092.592a2.31 2.31 0 0 1-.244.52 3.696 3.696 0 0 1-.364.476c-.136.152-.281.307-.436.464l-1.14 1.168c.147-.045.292-.08.436-.104.144-.024.277-.036.4-.036h1.088Z" fill="#FF9000"/><path d="M60.032 18.336c.042-.29.124-.544.244-.76a1.87 1.87 0 0 1 .452-.54c.18-.144.388-.25.62-.32a2.51 2.51 0 0 1 .748-.108c.288 0 .544.041.768.124.224.08.413.19.568.328a1.411 1.411 0 0 1 .472 1.06c0 .184-.02.347-.056.488a1.14 1.14 0 0 1-.168.364 1.014 1.014 0 0 1-.272.26c-.107.07-.23.128-.368.176.645.227.968.667.968 1.32 0 .31-.056.579-.168.808-.112.23-.263.42-.452.572a1.93 1.93 0 0 1-.652.344 2.676 2.676 0 0 1-.776.112c-.278 0-.524-.03-.74-.088a1.755 1.755 0 0 1-.576-.28 1.916 1.916 0 0 1-.444-.488 3.323 3.323 0 0 1-.328-.704l.552-.224a.689.689 0 0 1 .4-.044c.122.027.21.088.264.184.12.221.246.383.38.484a.789.789 0 0 0 .476.148.801.801 0 0 0 .616-.248.754.754 0 0 0 .156-.252.81.81 0 0 0 .052-.284c0-.125-.01-.237-.028-.336a.433.433 0 0 0-.144-.26.812.812 0 0 0-.364-.164c-.16-.04-.384-.06-.672-.06v-.856c.242 0 .438-.019.588-.056a.9.9 0 0 0 .344-.152.471.471 0 0 0 .164-.24c.026-.093.04-.196.04-.308 0-.23-.056-.405-.168-.528-.11-.125-.278-.188-.504-.188a.743.743 0 0 0-.728.508c-.056.147-.13.244-.22.292-.091.048-.22.059-.388.032l-.656-.116ZM14.383 34.604v.896h-3.32v-.896h1.12v-2.94a6.198 6.198 0 0 1 .017-.456l-.664.552a.41.41 0 0 1-.176.084.536.536 0 0 1-.16 0 .438.438 0 0 1-.136-.052.329.329 0 0 1-.088-.08l-.393-.52 1.816-1.524h1.025v4.936h.96Zm24.451-.224c.133 0 .239.037.316.112a.375.375 0 0 1 .116.288v.72H35.17v-.4c0-.077.016-.16.048-.248a.598.598 0 0 1 .168-.24l1.68-1.692c.144-.144.27-.281.376-.412.107-.13.195-.259.264-.384a1.538 1.538 0 0 0 .208-.784c0-.232-.056-.41-.168-.532-.11-.125-.277-.188-.504-.188a.743.743 0 0 0-.728.508c-.056.147-.13.244-.22.292-.09.048-.22.059-.388.032l-.656-.116c.043-.29.124-.544.244-.76a1.87 1.87 0 0 1 .452-.54c.181-.144.388-.25.62-.32a2.51 2.51 0 0 1 .748-.108c.288 0 .547.043.776.128.232.083.43.199.592.348.163.15.287.328.372.536.088.205.132.432.132.68 0 .213-.03.41-.092.592a2.31 2.31 0 0 1-.244.52 3.696 3.696 0 0 1-.364.476c-.136.152-.281.307-.436.464l-1.14 1.168c.147-.045.292-.08.436-.104.144-.024.277-.036.4-.036h1.088Z" fill="#DBDBDB"/><path d="M72.5 27h-21a1 1 0 0 0-1 1v9a1 1 0 0 0 1 1h21a1 1 0 0 0 1-1v-9a1 1 0 0 0-1-1Z" fill="url(#c)"/><path d="M60.032 31.336c.042-.29.124-.544.244-.76a1.87 1.87 0 0 1 .452-.54c.18-.144.388-.25.62-.32a2.51 2.51 0 0 1 .748-.108c.288 0 .544.041.768.124.224.08.413.19.568.328a1.411 1.411 0 0 1 .472 1.06c0 .184-.02.347-.056.488a1.14 1.14 0 0 1-.168.364 1.014 1.014 0 0 1-.272.26c-.107.07-.23.128-.368.176.645.227.968.667.968 1.32 0 .31-.056.579-.168.808-.112.23-.263.42-.452.572a1.93 1.93 0 0 1-.652.344 2.676 2.676 0 0 1-.776.112c-.278 0-.524-.03-.74-.088a1.755 1.755 0 0 1-.576-.28 1.916 1.916 0 0 1-.444-.488 3.323 3.323 0 0 1-.328-.704l.552-.224a.689.689 0 0 1 .4-.044c.122.027.21.088.264.184.12.221.246.383.38.484a.789.789 0 0 0 .476.148.801.801 0 0 0 .616-.248.754.754 0 0 0 .156-.252.81.81 0 0 0 .052-.284c0-.125-.01-.237-.028-.336a.433.433 0 0 0-.144-.26.812.812 0 0 0-.364-.164c-.16-.04-.384-.06-.672-.06v-.856c.242 0 .438-.019.588-.056a.9.9 0 0 0 .344-.152.471.471 0 0 0 .164-.24c.026-.093.04-.196.04-.308 0-.23-.056-.405-.168-.528-.11-.125-.278-.188-.504-.188a.743.743 0 0 0-.728.508c-.056.147-.13.244-.22.292-.091.048-.22.059-.388.032l-.656-.116Z" fill="#FF9000"/><defs><linearGradient id="a" x1="12.5" y1="1" x2="12.5" y2="12" gradientUnits="userSpaceOnUse"><stop/><stop offset="1" stop-opacity=".25"/></linearGradient><linearGradient id="b" x1="37.25" y1="14" x2="37.25" y2="25" gradientUnits="userSpaceOnUse"><stop/><stop offset="1" stop-opacity=".25"/></linearGradient><linearGradient id="c" x1="62" y1="27" x2="62" y2="38" gradientUnits="userSpaceOnUse"><stop/><stop offset="1" stop-opacity=".25"/></linearGradient></defs></svg>