<svg width="20" height="180" fill="none" xmlns="http://www.w3.org/2000/svg"><path fill="url(#a)" d="M0 1h19v16H0z"/><path fill-rule="evenodd" clip-rule="evenodd" d="M20 17H0C4.48 6.333 11.146 1 20 1v16Z" fill="#DBDBDB"/><path opacity=".35" d="M6 1H0v16h6V1Z" fill="#FF9000"/><path fill="url(#b)" d="M0 19h19v16H0z"/><path fill="#020202" d="M17 19h3v1h-3z"/><path fill-rule="evenodd" clip-rule="evenodd" d="m0 35 20-16v16H0Z" fill="#DBDBDB"/><path opacity=".35" d="M13 19H7v16h6V19Z" fill="#FF9000"/><path fill="url(#c)" d="M0 37h19v16H0z"/><path fill="#020202" d="M17 37h3v2h-3z"/><path fill-rule="evenodd" clip-rule="evenodd" d="M20 53H0c8 0 14.667-5.333 20-16v16Z" fill="#DBDBDB"/><path opacity=".35" d="M20 37h-6v16h6V37Z" fill="#FF9000"/><path fill-rule="evenodd" clip-rule="evenodd" d="M0 55v16h20v-8L0 55Z" fill="#DBDBDB"/><path opacity=".35" d="M6 55H0v16h6V55Z" fill="#FF9000"/><path fill-rule="evenodd" clip-rule="evenodd" d="M0 73v16h20v-8c-6 0-12.667-2.667-20-8Z" fill="#DBDBDB"/><path opacity=".35" d="M13 73H7v16h6V73Z" fill="#FF9000"/><path fill-rule="evenodd" clip-rule="evenodd" d="M0 91v16h20v-8C9.333 99 2.667 96.333 0 91Z" fill="#DBDBDB"/><path opacity=".35" d="M20 91h-6v16h6V91Z" fill="#FF9000"/><path fill-rule="evenodd" clip-rule="evenodd" d="M0 117v8h20l-20-8Z" fill="#DBDBDB"/><path opacity=".35" d="M6 109H0v16h6v-16Z" fill="#FF9000"/><path fill-rule="evenodd" clip-rule="evenodd" d="M0 135v8h20c-10.718-2.379-16.667-4.757-20-8Z" fill="#DBDBDB"/><path opacity=".35" d="M13 127H7v16h6v-16Z" fill="#FF9000"/><path fill-rule="evenodd" clip-rule="evenodd" d="M0 153v8h20c-10.667-1.333-17.333-4-20-8Z" fill="#DBDBDB"/><path opacity=".35" d="M20 145h-6v16h6v-16Z" fill="#FF9000"/><path fill="#DBDBDB" d="M0 171h20v8H0z"/><defs><linearGradient id="a" x1="9.5" y1="1" x2="9.5" y2="17" gradientUnits="userSpaceOnUse"><stop/><stop offset="1" stop-color="#474747"/></linearGradient><linearGradient id="b" x1="9.5" y1="19" x2="9.5" y2="35" gradientUnits="userSpaceOnUse"><stop/><stop offset="1" stop-color="#474747"/></linearGradient><linearGradient id="c" x1="9.5" y1="37" x2="9.5" y2="53" gradientUnits="userSpaceOnUse"><stop/><stop offset="1" stop-color="#474747"/></linearGradient></defs></svg>