<svg width="48" height="282" fill="none" xmlns="http://www.w3.org/2000/svg"><g opacity=".1"><path opacity=".1" d="M5 273.5v1h2v-1H5Zm5 0v1h2v-1h-2Zm-5-39v1h2v-1H5Zm5 0v1h2v-1h-2Z" fill="#EEE"/><path opacity=".1" fill-rule="evenodd" clip-rule="evenodd" d="M8.5 230.5a.5.5 0 0 1 .5.5v47a.5.5 0 0 1-1 0v-47a.5.5 0 0 1 .5-.5Z" fill="#EEE"/><path opacity=".1" clip-rule="evenodd" d="M8.5 230a1 1 0 0 1 1 1v47a1 1 0 0 1-2 0v-47a1 1 0 0 1 1-1Z" stroke="#EEE"/></g><path d="M4.5 273v1h2v-1h-2Zm5 0v1h2v-1h-2Zm-5-39v1h2v-1h-2Zm5 0v1h2v-1h-2Z" fill="#000"/><path fill-rule="evenodd" clip-rule="evenodd" d="M8 230a.5.5 0 0 1 .5.5v47a.5.5 0 0 1-1 0v-47a.5.5 0 0 1 .5-.5Z" fill="#1F1F1F"/><path clip-rule="evenodd" d="M8 229.5a1 1 0 0 1 1 1v47a1 1 0 0 1-2 0v-47a1 1 0 0 1 1-1Z" stroke="#000"/><g opacity=".1"><path opacity=".1" d="M21 273.5v1h2v-1h-2Zm5 0v1h2v-1h-2Zm-5-39v1h2v-1h-2Zm5 0v1h2v-1h-2Z" fill="#EEE"/><path opacity=".1" fill-rule="evenodd" clip-rule="evenodd" d="M24.5 230.5a.5.5 0 0 1 .5.5v47a.5.5 0 0 1-1 0v-47a.5.5 0 0 1 .5-.5Z" fill="#EEE"/><path opacity=".1" clip-rule="evenodd" d="M24.5 230a1 1 0 0 1 1 1v47a1 1 0 0 1-2 0v-47a1 1 0 0 1 1-1Z" stroke="#EEE"/></g><path d="M20.5 273v1h2v-1h-2Zm5 0v1h2v-1h-2Zm-5-39v1h2v-1h-2Zm5 0v1h2v-1h-2Z" fill="#000"/><path fill-rule="evenodd" clip-rule="evenodd" d="M24 230a.5.5 0 0 1 .5.5v47a.5.5 0 0 1-1 0v-47a.5.5 0 0 1 .5-.5Z" fill="#FF9000"/><path clip-rule="evenodd" d="M24 229.5a1 1 0 0 1 1 1v47a1 1 0 0 1-2 0v-47a1 1 0 0 1 1-1Z" stroke="#000"/><g opacity=".1"><path opacity=".1" d="M37 273.5v1h2v-1h-2Zm5 0v1h2v-1h-2Zm-5-39v1h2v-1h-2Zm5 0v1h2v-1h-2Z" fill="#EEE"/><path opacity=".1" fill-rule="evenodd" clip-rule="evenodd" d="M40.5 230.5a.5.5 0 0 1 .5.5v47a.5.5 0 0 1-1 0v-47a.5.5 0 0 1 .5-.5Z" fill="#EEE"/><path opacity=".1" clip-rule="evenodd" d="M40.5 230a1 1 0 0 1 1 1v47a1 1 0 0 1-2 0v-47a1 1 0 0 1 1-1Z" stroke="#EEE"/></g><path d="M36.5 273v1h2v-1h-2Zm5 0v1h2v-1h-2Zm-5-39v1h2v-1h-2Zm5 0v1h2v-1h-2Z" fill="#000"/><path fill-rule="evenodd" clip-rule="evenodd" d="M40 230a.5.5 0 0 1 .5.5v47a.5.5 0 0 1-1 0v-47a.5.5 0 0 1 .5-.5Z" fill="#FFEE58"/><path clip-rule="evenodd" d="M40 229.5a1 1 0 0 1 1 1v47a1 1 0 0 1-2 0v-47a1 1 0 0 1 1-1Z" stroke="#000"/><g opacity=".1"><path opacity=".1" d="M5 198.5v1h2v-1H5Zm5 0v1h2v-1h-2Zm-5-39v1h2v-1H5Zm5 0v1h2v-1h-2Z" fill="#EEE"/><path opacity=".1" fill-rule="evenodd" clip-rule="evenodd" d="M8.5 155.5a.5.5 0 0 1 .5.5v47a.5.5 0 0 1-1 0v-47a.5.5 0 0 1 .5-.5Z" fill="#EEE"/><path opacity=".1" clip-rule="evenodd" d="M8.5 155a1 1 0 0 1 1 1v47a1 1 0 0 1-2 0v-47a1 1 0 0 1 1-1Z" stroke="#EEE"/></g><path d="M4.5 198v1h2v-1h-2Zm5 0v1h2v-1h-2Zm-5-39v1h2v-1h-2Zm5 0v1h2v-1h-2Z" fill="#000"/><path fill-rule="evenodd" clip-rule="evenodd" d="M8 155a.5.5 0 0 1 .5.5v47a.5.5 0 0 1-1 0v-47a.5.5 0 0 1 .5-.5Z" fill="#1F1F1F"/><path clip-rule="evenodd" d="M8 154.5a1 1 0 0 1 1 1v47a1 1 0 0 1-2 0v-47a1 1 0 0 1 1-1Z" stroke="#000"/><g opacity=".1"><path opacity=".1" d="M21 198.5v1h2v-1h-2Zm5 0v1h2v-1h-2Zm-5-39v1h2v-1h-2Zm5 0v1h2v-1h-2Z" fill="#EEE"/><path opacity=".1" fill-rule="evenodd" clip-rule="evenodd" d="M24.5 155.5a.5.5 0 0 1 .5.5v47a.5.5 0 0 1-1 0v-47a.5.5 0 0 1 .5-.5Z" fill="#EEE"/><path opacity=".1" clip-rule="evenodd" d="M24.5 155a1 1 0 0 1 1 1v47a1 1 0 0 1-2 0v-47a1 1 0 0 1 1-1Z" stroke="#EEE"/></g><path d="M20.5 198v1h2v-1h-2Zm5 0v1h2v-1h-2Zm-5-39v1h2v-1h-2Zm5 0v1h2v-1h-2Z" fill="#000"/><path fill-rule="evenodd" clip-rule="evenodd" d="M24 155a.5.5 0 0 1 .5.5v47a.5.5 0 0 1-1 0v-47a.5.5 0 0 1 .5-.5Z" fill="#FF9000"/><path clip-rule="evenodd" d="M24 154.5a1 1 0 0 1 1 1v47a1 1 0 0 1-2 0v-47a1 1 0 0 1 1-1Z" stroke="#000"/><g opacity=".1"><path opacity=".1" d="M37 198.5v1h2v-1h-2Zm5 0v1h2v-1h-2Zm-5-39v1h2v-1h-2Zm5 0v1h2v-1h-2Z" fill="#EEE"/><path opacity=".1" fill-rule="evenodd" clip-rule="evenodd" d="M40.5 155.5a.5.5 0 0 1 .5.5v47a.5.5 0 0 1-1 0v-47a.5.5 0 0 1 .5-.5Z" fill="#EEE"/><path opacity=".1" clip-rule="evenodd" d="M40.5 155a1 1 0 0 1 1 1v47a1 1 0 0 1-2 0v-47a1 1 0 0 1 1-1Z" stroke="#EEE"/></g><path d="M36.5 198v1h2v-1h-2Zm5 0v1h2v-1h-2Zm-5-39v1h2v-1h-2Zm5 0v1h2v-1h-2Z" fill="#000"/><path fill-rule="evenodd" clip-rule="evenodd" d="M40 155a.5.5 0 0 1 .5.5v47a.5.5 0 0 1-1 0v-47a.5.5 0 0 1 .5-.5Z" fill="#FFEE58"/><path clip-rule="evenodd" d="M40 154.5a1 1 0 0 1 1 1v47a1 1 0 0 1-2 0v-47a1 1 0 0 1 1-1Z" stroke="#000"/><g opacity=".1"><path opacity=".1" d="M5 65.5v1h2v-1H5Zm5 0v1h2v-1h-2Zm-5-56v1h2v-1H5Zm5 0v1h2v-1h-2Z" fill="#EEE"/><path opacity=".1" fill-rule="evenodd" clip-rule="evenodd" d="M8.5 5.5A.5.5 0 0 1 9 6v64a.5.5 0 0 1-1 0V6a.5.5 0 0 1 .5-.5Z" fill="#EEE"/><path opacity=".1" clip-rule="evenodd" d="M8.5 5a1 1 0 0 1 1 1v64a1 1 0 1 1-2 0V6a1 1 0 0 1 1-1Z" stroke="#EEE"/></g><path d="M4.5 65v1h2v-1h-2Zm5 0v1h2v-1h-2Zm-5-56v1h2V9h-2Zm5 0v1h2V9h-2Z" fill="#000"/><path fill-rule="evenodd" clip-rule="evenodd" d="M8 5a.5.5 0 0 1 .5.5v64a.5.5 0 0 1-1 0v-64A.5.5 0 0 1 8 5Z" fill="#1F1F1F"/><path clip-rule="evenodd" d="M8 4.5a1 1 0 0 1 1 1v64a1 1 0 1 1-2 0v-64a1 1 0 0 1 1-1Z" stroke="#000"/><g opacity=".1"><path opacity=".1" d="M21 65.5v1h2v-1h-2Zm5 0v1h2v-1h-2Zm-5-56v1h2v-1h-2Zm5 0v1h2v-1h-2Z" fill="#EEE"/><path opacity=".1" fill-rule="evenodd" clip-rule="evenodd" d="M24.5 5.5a.5.5 0 0 1 .5.5v64a.5.5 0 0 1-1 0V6a.5.5 0 0 1 .5-.5Z" fill="#EEE"/><path opacity=".1" clip-rule="evenodd" d="M24.5 5a1 1 0 0 1 1 1v64a1 1 0 1 1-2 0V6a1 1 0 0 1 1-1Z" stroke="#EEE"/></g><path d="M20.5 65v1h2v-1h-2Zm5 0v1h2v-1h-2Zm-5-56v1h2V9h-2Zm5 0v1h2V9h-2Z" fill="#000"/><path fill-rule="evenodd" clip-rule="evenodd" d="M24 5a.5.5 0 0 1 .5.5v64a.5.5 0 0 1-1 0v-64A.5.5 0 0 1 24 5Z" fill="#FF9000"/><path clip-rule="evenodd" d="M24 4.5a1 1 0 0 1 1 1v64a1 1 0 1 1-2 0v-64a1 1 0 0 1 1-1Z" stroke="#000"/><g opacity=".1"><path opacity=".1" d="M37 65.5v1h2v-1h-2Zm5 0v1h2v-1h-2Zm-5-56v1h2v-1h-2Zm5 0v1h2v-1h-2Z" fill="#EEE"/><path opacity=".1" fill-rule="evenodd" clip-rule="evenodd" d="M40.5 5.5a.5.5 0 0 1 .5.5v64a.5.5 0 0 1-1 0V6a.5.5 0 0 1 .5-.5Z" fill="#EEE"/><path opacity=".1" clip-rule="evenodd" d="M40.5 5a1 1 0 0 1 1 1v64a1 1 0 1 1-2 0V6a1 1 0 0 1 1-1Z" stroke="#EEE"/></g><path d="M36.5 65v1h2v-1h-2Zm5 0v1h2v-1h-2Zm-5-56v1h2V9h-2Zm5 0v1h2V9h-2Z" fill="#000"/><path fill-rule="evenodd" clip-rule="evenodd" d="M40 5a.5.5 0 0 1 .5.5v64a.5.5 0 0 1-1 0v-64A.5.5 0 0 1 40 5Z" fill="#FFEE58"/><path clip-rule="evenodd" d="M40 4.5a1 1 0 0 1 1 1v64a1 1 0 1 1-2 0v-64a1 1 0 0 1 1-1Z" stroke="#000"/><g opacity=".1"><path opacity=".1" d="M5 140.5v1h2v-1H5Zm5 0v1h2v-1h-2Zm-5-56v1h2v-1H5Zm5 0v1h2v-1h-2Z" fill="#EEE"/><path opacity=".1" fill-rule="evenodd" clip-rule="evenodd" d="M8.5 80.5a.5.5 0 0 1 .5.5v64a.5.5 0 0 1-1 0V81a.5.5 0 0 1 .5-.5Z" fill="#EEE"/><path opacity=".1" clip-rule="evenodd" d="M8.5 80a1 1 0 0 1 1 1v64a1 1 0 0 1-2 0V81a1 1 0 0 1 1-1Z" stroke="#EEE"/></g><path opacity=".1" d="M5.5 113.5v-1H7v1H5.5Zm4.5 0v-1h1.5v1H10Zm-7-28v-1h2v1H3Zm9 0v-1h2v1h-2Zm-9 56v-1h2v1H3Zm9 0v-1h2v1h-2Z" fill="#EEE"/><path d="M5 113v-1h1.5v1H5Zm4.5 0v-1H11v1H9.5Zm-7-28v-1h2v1h-2Zm9 0v-1h2v1h-2Zm-9 56v-1h2v1h-2Zm9 0v-1h2v1h-2Zm-7-1v1h2v-1h-2Zm5 0v1h2v-1h-2Zm-5-56v1h2v-1h-2Zm5 0v1h2v-1h-2Z" fill="#000"/><path fill-rule="evenodd" clip-rule="evenodd" d="M8 80a.5.5 0 0 1 .5.5v64a.5.5 0 0 1-1 0v-64A.5.5 0 0 1 8 80Z" fill="#1F1F1F"/><path clip-rule="evenodd" d="M8 79.5a1 1 0 0 1 1 1v64a1 1 0 0 1-2 0v-64a1 1 0 0 1 1-1Z" stroke="#000"/><g opacity=".1"><path opacity=".1" d="M21 140.5v1h2v-1h-2Zm5 0v1h2v-1h-2Zm-5-56v1h2v-1h-2Zm5 0v1h2v-1h-2Z" fill="#EEE"/><path opacity=".1" fill-rule="evenodd" clip-rule="evenodd" d="M24.5 80.5a.5.5 0 0 1 .5.5v64a.5.5 0 0 1-1 0V81a.5.5 0 0 1 .5-.5Z" fill="#EEE"/><path opacity=".1" clip-rule="evenodd" d="M24.5 80a1 1 0 0 1 1 1v64a1 1 0 0 1-2 0V81a1 1 0 0 1 1-1Z" stroke="#EEE"/></g><path opacity=".1" d="M21.5 113.5v-1H23v1h-1.5Zm4.5 0v-1h1.5v1H26Zm-7-28v-1h2v1h-2Zm9 0v-1h2v1h-2Zm-9 56v-1h2v1h-2Zm9 0v-1h2v1h-2Z" fill="#EEE"/><path d="M21 113v-1h1.5v1H21Zm4.5 0v-1H27v1h-1.5Zm-7-28v-1h2v1h-2Zm9 0v-1h2v1h-2Zm-9 56v-1h2v1h-2Zm9 0v-1h2v1h-2Zm-7-1v1h2v-1h-2Zm5 0v1h2v-1h-2Zm-5-56v1h2v-1h-2Zm5 0v1h2v-1h-2Z" fill="#000"/><path fill-rule="evenodd" clip-rule="evenodd" d="M24 80a.5.5 0 0 1 .5.5v64a.5.5 0 0 1-1 0v-64a.5.5 0 0 1 .5-.5Z" fill="#FF9000"/><path clip-rule="evenodd" d="M24 79.5a1 1 0 0 1 1 1v64a1 1 0 0 1-2 0v-64a1 1 0 0 1 1-1Z" stroke="#000"/><g opacity=".1"><path opacity=".1" d="M37 140.5v1h2v-1h-2Zm5 0v1h2v-1h-2Zm-5-56v1h2v-1h-2Zm5 0v1h2v-1h-2Z" fill="#EEE"/><path opacity=".1" fill-rule="evenodd" clip-rule="evenodd" d="M40.5 80.5a.5.5 0 0 1 .5.5v64a.5.5 0 0 1-1 0V81a.5.5 0 0 1 .5-.5Z" fill="#EEE"/><path opacity=".1" clip-rule="evenodd" d="M40.5 80a1 1 0 0 1 1 1v64a1 1 0 0 1-2 0V81a1 1 0 0 1 1-1Z" stroke="#EEE"/></g><path opacity=".1" d="M37.5 113.5v-1H39v1h-1.5Zm4.5 0v-1h1.5v1H42Zm-7-28v-1h2v1h-2Zm9 0v-1h2v1h-2Zm-9 56v-1h2v1h-2Zm9 0v-1h2v1h-2Z" fill="#EEE"/><path d="M37 113v-1h1.5v1H37Zm4.5 0v-1H43v1h-1.5Zm-7-28v-1h2v1h-2Zm9 0v-1h2v1h-2Zm-9 56v-1h2v1h-2Zm9 0v-1h2v1h-2Zm-7-1v1h2v-1h-2Zm5 0v1h2v-1h-2Zm-5-56v1h2v-1h-2Zm5 0v1h2v-1h-2Z" fill="#000"/><path fill-rule="evenodd" clip-rule="evenodd" d="M40 80a.5.5 0 0 1 .5.5v64a.5.5 0 0 1-1 0v-64a.5.5 0 0 1 .5-.5Z" fill="#FFEE58"/><path clip-rule="evenodd" d="M40 79.5a1 1 0 0 1 1 1v64a1 1 0 0 1-2 0v-64a1 1 0 0 1 1-1Z" stroke="#000"/></svg>