<svg width="11" height="11" fill="none" xmlns="http://www.w3.org/2000/svg"><path d="M.5 2.5a2 2 0 0 1 2-2h6a2 2 0 0 1 2 2v6a2 2 0 0 1-2 2h-6a2 2 0 0 1-2-2v-6Z" fill="url(#a)"/><path fill-rule="evenodd" clip-rule="evenodd" d="m3 3 4.979.012L8 4l-4.979-.012L3 3Zm4.979 2.012L3 5l.021.988L8 6l-.021-.988ZM3 7l4.979.012L8 8l-4.979-.012L3 7Z" fill="#DBDBDB"/><defs><linearGradient id="a" x1="5.5" y1=".5" x2="5.5" y2="10.5" gradientUnits="userSpaceOnUse"><stop/><stop offset="1" stop-opacity=".25"/></linearGradient></defs></svg>