<svg width="135" height="36" fill="none" xmlns="http://www.w3.org/2000/svg"><path d="M.5 3.5a3 3 0 0 1 3-3h128a3 3 0 0 1 3 3v5a3 3 0 0 1-3 3H3.5a3 3 0 0 1-3-3v-5Z" fill="url(#a)"/><path d="M21.188 3.216 19.392 9h-.972l-1.264-3.952a2.685 2.685 0 0 1-.096-.352 5.63 5.63 0 0 1-.048.188 2.014 2.014 0 0 1-.052.164L15.684 9h-.976l-1.792-5.784h.9a.38.38 0 0 1 .232.068.306.306 0 0 1 .128.176l.984 3.46c.021.085.041.179.06.28.021.099.043.203.064.312.021-.112.044-.217.068-.316.027-.099.055-.19.084-.276l1.136-3.46a.383.383 0 0 1 .124-.168.362.362 0 0 1 .232-.076h.316a.362.362 0 0 1 .36.244l1.132 3.46c.056.165.107.356.152.572a7.27 7.27 0 0 1 .116-.572l.984-3.46a.302.302 0 0 1 .12-.172.393.393 0 0 1 .236-.072h.844Zm2.11 4.032a5.198 5.198 0 0 0-.72.076c-.195.035-.35.08-.468.136a.616.616 0 0 0-.252.196.426.426 0 0 0-.076.244c0 .173.05.297.152.372a.677.677 0 0 0 .404.112c.203 0 .377-.036.524-.108.15-.075.295-.187.436-.336v-.692Zm-2.264-1.78c.472-.432 1.04-.648 1.704-.648.24 0 .455.04.644.12.19.077.35.187.48.328.13.139.23.305.296.5.07.195.104.408.104.64V9h-.448a.472.472 0 0 1-.216-.04c-.05-.03-.09-.087-.12-.172l-.088-.296a3.892 3.892 0 0 1-.304.248c-.099.07-.201.128-.308.176a1.847 1.847 0 0 1-1.224.08 1.08 1.08 0 0 1-.38-.212.944.944 0 0 1-.248-.348 1.236 1.236 0 0 1-.088-.484.947.947 0 0 1 .22-.604 1.49 1.49 0 0 1 .308-.264 2 2 0 0 1 .46-.216c.184-.061.397-.11.64-.148.243-.04.52-.064.832-.072v-.24c0-.275-.059-.477-.176-.608-.117-.133-.287-.2-.508-.2-.16 0-.293.019-.4.056a1.56 1.56 0 0 0-.276.128l-.22.124a.42.42 0 0 1-.216.056.293.293 0 0 1-.176-.052.479.479 0 0 1-.116-.128l-.176-.316Zm4.97.14c.128-.245.28-.437.456-.576a.966.966 0 0 1 .624-.212c.19 0 .342.041.457.124l-.064.74a.195.195 0 0 1-.06.104.16.16 0 0 1-.1.028c-.04 0-.1-.007-.18-.02a1.34 1.34 0 0 0-.229-.02.74.74 0 0 0-.524.188.973.973 0 0 0-.18.216 2.31 2.31 0 0 0-.143.292V9h-.988V4.896h.58c.1 0 .172.019.212.056.04.035.066.099.08.192l.06.464ZM27.938 9V4.896h.604c.128 0 .212.06.252.18l.064.304c.072-.08.147-.153.224-.22a1.346 1.346 0 0 1 .88-.328c.259 0 .47.07.636.212.168.139.293.324.376.556a1.286 1.286 0 0 1 .556-.588 1.46 1.46 0 0 1 .364-.136c.13-.03.261-.044.392-.044.227 0 .428.035.604.104.176.07.324.17.444.304.12.133.21.296.272.488.064.192.096.412.096.66V9h-.988V6.388c0-.261-.057-.457-.172-.588-.115-.133-.283-.2-.504-.2a.684.684 0 0 0-.512.204.679.679 0 0 0-.152.244.958.958 0 0 0-.056.34V9h-.992V6.388c0-.275-.056-.475-.168-.6-.11-.125-.27-.188-.484-.188a.798.798 0 0 0-.404.108c-.123.07-.237.165-.344.288V9h-.988Z" fill="#FF9000"/><path opacity=".75" d="M45.5 2v8h1V2h-1Z" fill="#DBDBDB"/><path d="M59.99 3.216V9h-.553a.52.52 0 0 1-.216-.04.535.535 0 0 1-.164-.144l-3.02-3.856c.016.176.024.339.024.488V9h-.948V3.216h.564a.72.72 0 0 1 .116.008c.035.003.064.01.088.024.027.01.052.028.076.052.024.021.05.05.08.088L59.07 7.26a10.207 10.207 0 0 1-.02-.276 4.254 4.254 0 0 1-.008-.252V3.216h.948Zm3.53 3.26a1.13 1.13 0 0 0-.056-.36.832.832 0 0 0-.16-.3.73.73 0 0 0-.276-.2.905.905 0 0 0-.384-.076c-.285 0-.51.081-.676.244-.162.163-.266.393-.312.692h1.864Zm-1.884.596c.016.21.054.393.112.548.059.152.136.279.232.38.096.099.21.173.34.224.134.048.28.072.44.072.16 0 .298-.019.412-.056.118-.037.219-.079.304-.124.088-.045.164-.087.228-.124a.394.394 0 0 1 .192-.056c.083 0 .144.03.184.092l.284.36a1.69 1.69 0 0 1-.368.324 2.186 2.186 0 0 1-.88.316c-.152.021-.3.032-.444.032a2.22 2.22 0 0 1-.796-.14 1.818 1.818 0 0 1-.64-.42 1.996 1.996 0 0 1-.428-.688 2.679 2.679 0 0 1-.156-.952c0-.28.046-.543.136-.788.091-.248.22-.463.388-.644a1.85 1.85 0 0 1 .62-.436c.246-.107.522-.16.828-.16.259 0 .498.041.716.124.219.083.407.204.564.364.158.157.28.352.368.584.091.23.136.492.136.788 0 .15-.016.25-.048.304-.032.05-.093.076-.184.076h-2.54Zm6.93-2.176V9h-.604c-.13 0-.214-.06-.248-.18l-.068-.328c-.168.17-.354.31-.556.416a1.55 1.55 0 0 1-.716.156c-.224 0-.423-.037-.596-.112a1.213 1.213 0 0 1-.432-.324 1.437 1.437 0 0 1-.268-.492 2.154 2.154 0 0 1-.088-.632V4.896h.988v2.608c0 .25.057.445.172.584.117.136.292.204.524.204.17 0 .33-.037.48-.112.15-.077.29-.183.424-.316V4.896h.988Zm2.227 4.168c-.357 0-.632-.1-.824-.3-.189-.203-.284-.481-.284-.836V5.636h-.42a.193.193 0 0 1-.136-.052c-.037-.035-.056-.087-.056-.156v-.392l.66-.108.208-1.12a.22.22 0 0 1 .076-.124.226.226 0 0 1 .144-.044h.512v1.292h1.096v.704h-1.096V7.86a.45.45 0 0 0 .092.3.33.33 0 0 0 .26.108.488.488 0 0 0 .26-.068c.032-.016.06-.03.084-.044a.129.129 0 0 1 .072-.024c.03 0 .054.008.072.024a.282.282 0 0 1 .06.064l.296.48c-.144.12-.309.21-.496.272-.186.061-.38.092-.58.092Zm2.421-3.456c.128-.245.28-.437.456-.576a.966.966 0 0 1 .624-.212.76.76 0 0 1 .456.124l-.064.74a.197.197 0 0 1-.06.104.16.16 0 0 1-.1.028c-.04 0-.1-.007-.18-.02a1.342 1.342 0 0 0-.228-.02.738.738 0 0 0-.524.188.967.967 0 0 0-.18.216c-.05.085-.099.183-.144.292V9h-.988V4.896h.58c.101 0 .172.019.212.056.04.035.067.099.08.192l.06.464Zm4.046 1.64a5.198 5.198 0 0 0-.72.076c-.195.035-.351.08-.468.136a.616.616 0 0 0-.252.196.426.426 0 0 0-.076.244c0 .173.05.297.152.372a.677.677 0 0 0 .404.112c.202 0 .377-.036.524-.108.149-.075.294-.187.436-.336v-.692Zm-2.264-1.78c.472-.432 1.04-.648 1.704-.648.24 0 .454.04.644.12a1.332 1.332 0 0 1 .776.828c.069.195.104.408.104.64V9h-.448a.472.472 0 0 1-.216-.04c-.051-.03-.091-.087-.12-.172l-.088-.296a3.892 3.892 0 0 1-.304.248c-.099.07-.202.128-.308.176a1.847 1.847 0 0 1-1.224.08 1.08 1.08 0 0 1-.38-.212.944.944 0 0 1-.248-.348 1.236 1.236 0 0 1-.088-.484.947.947 0 0 1 .22-.604c.08-.093.182-.181.308-.264a2 2 0 0 1 .46-.216c.184-.061.397-.11.64-.148.242-.04.52-.064.832-.072v-.24c0-.275-.059-.477-.176-.608-.118-.133-.287-.2-.508-.2-.16 0-.294.019-.4.056a1.56 1.56 0 0 0-.276.128l-.22.124a.42.42 0 0 1-.216.056.293.293 0 0 1-.176-.052.479.479 0 0 1-.116-.128l-.176-.316Zm5.038-2.412V9h-.988V3.056h.988Z" fill="#DBDBDB"/><path opacity=".75" d="M88.5 2v8h1V2h-1Z" fill="#DBDBDB"/><path d="M103.674 8.16c.2 0 .368-.024.504-.072a.85.85 0 0 0 .324-.192.665.665 0 0 0 .176-.28c.038-.107.056-.22.056-.34a.888.888 0 0 0-.06-.336.61.61 0 0 0-.188-.256.859.859 0 0 0-.332-.164 1.81 1.81 0 0 0-.484-.056h-1.084V8.16h1.088Zm-1.088-4.112V5.72h.856c.368 0 .646-.067.832-.2.19-.133.284-.345.284-.636 0-.301-.085-.516-.256-.644-.17-.128-.437-.192-.8-.192h-.916Zm.916-.832c.379 0 .703.036.972.108.27.072.49.175.66.308.174.133.3.295.38.484.08.19.12.403.12.64 0 .136-.02.267-.06.392-.04.123-.102.239-.188.348a1.343 1.343 0 0 1-.32.292 1.888 1.888 0 0 1-.46.224c.795.179 1.192.608 1.192 1.288 0 .245-.046.472-.14.68a1.51 1.51 0 0 1-.408.54 1.94 1.94 0 0 1-.66.352c-.261.085-.56.128-.896.128h-2.184V3.216h1.992Zm3.852 2.392c.128-.245.28-.437.456-.576a.966.966 0 0 1 .624-.212c.189 0 .341.041.456.124l-.064.74a.192.192 0 0 1-.06.104.159.159 0 0 1-.1.028c-.04 0-.1-.007-.18-.02a1.335 1.335 0 0 0-.228-.02.74.74 0 0 0-.524.188.951.951 0 0 0-.18.216 2.208 2.208 0 0 0-.144.292V9h-.988V4.896h.58c.101 0 .172.019.212.056.04.035.067.099.08.192l.06.464Zm2.956-.712V9h-.992V4.896h.992Zm.136-1.196a.558.558 0 0 1-.052.24.626.626 0 0 1-.14.196.655.655 0 0 1-.2.136.64.64 0 0 1-.492 0 .688.688 0 0 1-.332-.332.642.642 0 0 1 0-.488.627.627 0 0 1 .824-.332.601.601 0 0 1 .2.132.613.613 0 0 1 .192.448Zm2.252 3.148a.966.966 0 0 0 .32-.048.638.638 0 0 0 .224-.14.549.549 0 0 0 .136-.212.747.747 0 0 0 .048-.272.635.635 0 0 0-.184-.48c-.12-.12-.302-.18-.544-.18-.243 0-.426.06-.548.18-.12.117-.18.277-.18.48a.78.78 0 0 0 .044.268.641.641 0 0 0 .136.216.666.666 0 0 0 .228.14c.093.032.2.048.32.048Zm1.116 2.336a.273.273 0 0 0-.072-.196.461.461 0 0 0-.196-.116c-.083-.03-.18-.05-.292-.064a15.462 15.462 0 0 0-.736-.048 4.448 4.448 0 0 1-.384-.032.94.94 0 0 0-.268.216.444.444 0 0 0-.048.488.457.457 0 0 0 .172.164c.08.045.182.08.308.104.125.027.278.04.46.04.184 0 .342-.015.476-.044.133-.027.242-.065.328-.116a.477.477 0 0 0 .192-.176.42.42 0 0 0 .06-.22Zm.984-4.148v.368c0 .117-.071.19-.212.216l-.368.068c.056.141.084.296.084.464a1.207 1.207 0 0 1-.46.968 1.614 1.614 0 0 1-.512.268 2.098 2.098 0 0 1-.632.092c-.08 0-.158-.004-.232-.012a2.888 2.888 0 0 1-.22-.032c-.128.077-.192.164-.192.26 0 .083.037.144.112.184a.992.992 0 0 0 .304.08c.125.016.268.027.428.032.16.003.324.01.492.024.168.013.332.037.492.072.16.032.302.084.428.156.125.072.225.17.3.296a.883.883 0 0 1 .116.476c0 .181-.046.357-.136.528-.088.17-.218.323-.388.456a1.97 1.97 0 0 1-.624.32 2.63 2.63 0 0 1-.84.124c-.31 0-.579-.03-.808-.092a1.851 1.851 0 0 1-.572-.24 1.013 1.013 0 0 1-.34-.344.808.808 0 0 1-.112-.408c0-.192.057-.352.172-.48a1.21 1.21 0 0 1 .48-.312.684.684 0 0 1-.26-.224.639.639 0 0 1-.096-.368c0-.061.01-.124.032-.188a.893.893 0 0 1 .1-.196.941.941 0 0 1 .168-.18c.066-.059.145-.11.236-.156a1.31 1.31 0 0 1-.492-.448 1.201 1.201 0 0 1-.176-.656c0-.203.04-.385.12-.548a1.23 1.23 0 0 1 .34-.42c.146-.117.318-.207.516-.268.2-.061.417-.092.652-.092.176 0 .341.019.496.056.154.035.296.087.424.156h1.18Zm1.494.3c.16-.15.336-.27.528-.364a1.53 1.53 0 0 1 .676-.14c.224 0 .423.039.596.116.173.075.317.181.432.32.117.136.205.3.264.492.061.19.092.399.092.628V9h-.988V6.388c0-.25-.057-.444-.172-.58-.115-.139-.289-.208-.524-.208a1.03 1.03 0 0 0-.48.116 1.72 1.72 0 0 0-.424.316V9h-.988V3.056h.988v2.28Zm4.721 3.728c-.357 0-.632-.1-.824-.3-.189-.203-.284-.481-.284-.836V5.636h-.42a.193.193 0 0 1-.136-.052c-.037-.035-.056-.087-.056-.156v-.392l.66-.108.208-1.12a.22.22 0 0 1 .076-.124.225.225 0 0 1 .144-.044h.512v1.292h1.096v.704h-1.096V7.86a.45.45 0 0 0 .092.3.33.33 0 0 0 .26.108.49.49 0 0 0 .26-.068c.032-.016.06-.03.084-.044a.129.129 0 0 1 .072-.024c.029 0 .053.008.072.024a.269.269 0 0 1 .06.064l.296.48c-.144.12-.309.21-.496.272-.187.061-.38.092-.58.092Z" fill="#DBDBDB"/><path d="M.5 15.5a3 3 0 0 1 3-3h128a3 3 0 0 1 3 3v5a3 3 0 0 1-3 3H3.5a3 3 0 0 1-3-3v-5Z" fill="url(#b)"/><path d="M21.188 15.216 19.392 21h-.972l-1.264-3.952a2.683 2.683 0 0 1-.096-.352 5.63 5.63 0 0 1-.048.188 2.014 2.014 0 0 1-.052.164L15.684 21h-.976l-1.792-5.784h.9a.38.38 0 0 1 .232.068.306.306 0 0 1 .128.176l.984 3.46c.021.085.041.179.06.28.021.099.043.203.064.312a6.4 6.4 0 0 1 .068-.316c.027-.099.055-.19.084-.276l1.136-3.46a.383.383 0 0 1 .124-.168.362.362 0 0 1 .232-.076h.316a.363.363 0 0 1 .36.244l1.132 3.46c.056.165.107.356.152.572a7.27 7.27 0 0 1 .116-.572l.984-3.46a.302.302 0 0 1 .12-.172.393.393 0 0 1 .236-.072h.844Zm2.11 4.032a5.198 5.198 0 0 0-.72.076c-.195.035-.35.08-.468.136a.615.615 0 0 0-.252.196.426.426 0 0 0-.076.244c0 .173.05.297.152.372a.677.677 0 0 0 .404.112c.203 0 .377-.036.524-.108.15-.075.295-.187.436-.336v-.692Zm-2.264-1.78c.472-.432 1.04-.648 1.704-.648.24 0 .455.04.644.12.19.077.35.187.48.328.13.139.23.305.296.5.07.195.104.408.104.64V21h-.448a.472.472 0 0 1-.216-.04c-.05-.03-.09-.087-.12-.172l-.088-.296a3.898 3.898 0 0 1-.304.248c-.099.07-.201.128-.308.176a1.845 1.845 0 0 1-1.224.08 1.08 1.08 0 0 1-.38-.212.943.943 0 0 1-.248-.348 1.236 1.236 0 0 1-.088-.484.947.947 0 0 1 .22-.604 1.49 1.49 0 0 1 .308-.264 1.97 1.97 0 0 1 .46-.216c.184-.061.397-.11.64-.148.243-.04.52-.064.832-.072v-.24c0-.275-.059-.477-.176-.608-.117-.133-.287-.2-.508-.2-.16 0-.293.019-.4.056-.104.037-.196.08-.276.128l-.22.124a.421.421 0 0 1-.216.056.292.292 0 0 1-.176-.052.478.478 0 0 1-.116-.128l-.176-.316Zm4.97.14c.128-.245.28-.437.456-.576a.966.966 0 0 1 .624-.212c.19 0 .342.041.457.124l-.064.74a.195.195 0 0 1-.06.104.159.159 0 0 1-.1.028c-.04 0-.1-.007-.18-.02a1.343 1.343 0 0 0-.229-.02.741.741 0 0 0-.524.188.974.974 0 0 0-.18.216 2.31 2.31 0 0 0-.143.292V21h-.988v-4.104h.58c.1 0 .172.019.212.056.04.035.066.099.08.192l.06.464ZM27.938 21v-4.104h.604c.128 0 .212.06.252.18l.064.304a2.49 2.49 0 0 1 .224-.22 1.348 1.348 0 0 1 .88-.328c.259 0 .47.07.636.212.168.139.293.324.376.556a1.285 1.285 0 0 1 .556-.588 1.46 1.46 0 0 1 .364-.136c.13-.03.261-.044.392-.044.227 0 .428.035.604.104.176.07.324.17.444.304.12.133.21.296.272.488.064.192.096.412.096.66V21h-.988v-2.612c0-.261-.057-.457-.172-.588-.115-.133-.283-.2-.504-.2a.684.684 0 0 0-.512.204.678.678 0 0 0-.152.244.958.958 0 0 0-.056.34V21h-.992v-2.612c0-.275-.056-.475-.168-.6-.11-.125-.27-.188-.484-.188a.798.798 0 0 0-.404.108c-.123.07-.237.165-.344.288V21h-.988Z" fill="#DBDBDB"/><path opacity=".75" d="M45.5 14v8h1v-8h-1Z" fill="#DBDBDB"/><path d="M59.99 15.216V21h-.553a.52.52 0 0 1-.216-.04.534.534 0 0 1-.164-.144l-3.02-3.856c.016.176.024.339.024.488V21h-.948v-5.784h.564c.046 0 .084.003.116.008.035.003.064.01.088.024.027.01.052.028.076.052.024.021.05.05.08.088l3.032 3.872a10.19 10.19 0 0 1-.02-.276 4.256 4.256 0 0 1-.008-.252v-3.516h.948Zm3.53 3.26a1.13 1.13 0 0 0-.056-.36.831.831 0 0 0-.16-.3.731.731 0 0 0-.276-.2.905.905 0 0 0-.384-.076c-.285 0-.51.081-.676.244-.162.163-.266.393-.312.692h1.864Zm-1.884.596c.016.21.054.393.112.548.059.152.136.279.232.38.096.099.21.173.34.224.134.048.28.072.44.072.16 0 .298-.019.412-.056.118-.037.219-.079.304-.124.088-.045.164-.087.228-.124a.394.394 0 0 1 .192-.056c.083 0 .144.03.184.092l.284.36a1.69 1.69 0 0 1-.368.324 2.186 2.186 0 0 1-.88.316c-.152.021-.3.032-.444.032-.285 0-.55-.047-.796-.14a1.818 1.818 0 0 1-.64-.42 1.996 1.996 0 0 1-.428-.688 2.68 2.68 0 0 1-.156-.952c0-.28.046-.543.136-.788.091-.248.22-.463.388-.644a1.85 1.85 0 0 1 .62-.436c.246-.107.522-.16.828-.16.259 0 .498.041.716.124.219.083.407.204.564.364.158.157.28.352.368.584.091.23.136.492.136.788 0 .15-.016.25-.048.304-.032.05-.093.076-.184.076h-2.54Zm6.93-2.176V21h-.604c-.13 0-.214-.06-.248-.18l-.068-.328c-.168.17-.354.31-.556.416a1.55 1.55 0 0 1-.716.156c-.224 0-.423-.037-.596-.112a1.213 1.213 0 0 1-.432-.324 1.437 1.437 0 0 1-.268-.492 2.154 2.154 0 0 1-.088-.632v-2.608h.988v2.608c0 .25.057.445.172.584.117.136.292.204.524.204.17 0 .33-.037.48-.112.15-.077.29-.183.424-.316v-2.968h.988Zm2.227 4.168c-.357 0-.632-.1-.824-.3-.189-.203-.284-.481-.284-.836v-2.292h-.42a.192.192 0 0 1-.136-.052c-.037-.035-.056-.087-.056-.156v-.392l.66-.108.208-1.12a.22.22 0 0 1 .076-.124.226.226 0 0 1 .144-.044h.512v1.292h1.096v.704h-1.096v2.224a.45.45 0 0 0 .092.3.33.33 0 0 0 .26.108.49.49 0 0 0 .26-.068c.032-.016.06-.03.084-.044a.129.129 0 0 1 .072-.024c.03 0 .054.008.072.024a.282.282 0 0 1 .06.064l.296.48c-.144.12-.309.21-.496.272-.186.061-.38.092-.58.092Zm2.421-3.456c.128-.245.28-.437.456-.576a.966.966 0 0 1 .624-.212.76.76 0 0 1 .456.124l-.064.74a.197.197 0 0 1-.06.104.16.16 0 0 1-.1.028c-.04 0-.1-.007-.18-.02a1.345 1.345 0 0 0-.228-.02.739.739 0 0 0-.524.188.969.969 0 0 0-.18.216c-.05.085-.099.183-.144.292V21h-.988v-4.104h.58c.101 0 .172.019.212.056.04.035.067.099.08.192l.06.464Zm4.046 1.64a5.198 5.198 0 0 0-.72.076c-.195.035-.351.08-.468.136a.615.615 0 0 0-.252.196.426.426 0 0 0-.076.244c0 .173.05.297.152.372a.677.677 0 0 0 .404.112c.202 0 .377-.036.524-.108.149-.075.294-.187.436-.336v-.692Zm-2.264-1.78c.472-.432 1.04-.648 1.704-.648.24 0 .454.04.644.12a1.332 1.332 0 0 1 .776.828c.069.195.104.408.104.64V21h-.448a.472.472 0 0 1-.216-.04c-.051-.03-.091-.087-.12-.172l-.088-.296a3.898 3.898 0 0 1-.304.248c-.099.07-.202.128-.308.176a1.845 1.845 0 0 1-1.224.08 1.08 1.08 0 0 1-.38-.212.943.943 0 0 1-.248-.348 1.236 1.236 0 0 1-.088-.484.947.947 0 0 1 .22-.604c.08-.093.182-.181.308-.264.125-.083.278-.155.46-.216.184-.061.397-.11.64-.148.242-.04.52-.064.832-.072v-.24c0-.275-.059-.477-.176-.608-.118-.133-.287-.2-.508-.2-.16 0-.294.019-.4.056-.104.037-.196.08-.276.128l-.22.124a.421.421 0 0 1-.216.056.292.292 0 0 1-.176-.052.478.478 0 0 1-.116-.128l-.176-.316Zm5.038-2.412V21h-.988v-5.944h.988Z" fill="#FF9000"/><path opacity=".75" d="M88.5 14v8h1v-8h-1Z" fill="#DBDBDB"/><path d="M103.674 20.16c.2 0 .368-.024.504-.072a.85.85 0 0 0 .324-.192.665.665 0 0 0 .176-.28c.038-.107.056-.22.056-.34a.888.888 0 0 0-.06-.336.61.61 0 0 0-.188-.256.858.858 0 0 0-.332-.164 1.811 1.811 0 0 0-.484-.056h-1.084v1.696h1.088Zm-1.088-4.112v1.672h.856c.368 0 .646-.067.832-.2.19-.133.284-.345.284-.636 0-.301-.085-.516-.256-.644-.17-.128-.437-.192-.8-.192h-.916Zm.916-.832c.379 0 .703.036.972.108.27.072.49.175.66.308.174.133.3.295.38.484.08.19.12.403.12.64 0 .136-.02.267-.06.392-.04.123-.102.239-.188.348a1.342 1.342 0 0 1-.32.292 1.887 1.887 0 0 1-.46.224c.795.179 1.192.608 1.192 1.288 0 .245-.046.472-.14.68a1.51 1.51 0 0 1-.408.54 1.94 1.94 0 0 1-.66.352c-.261.085-.56.128-.896.128h-2.184v-5.784h1.992Zm3.852 2.392c.128-.245.28-.437.456-.576a.966.966 0 0 1 .624-.212c.189 0 .341.041.456.124l-.064.74a.192.192 0 0 1-.06.104.158.158 0 0 1-.1.028c-.04 0-.1-.007-.18-.02a1.338 1.338 0 0 0-.228-.02.74.74 0 0 0-.524.188.953.953 0 0 0-.18.216 2.208 2.208 0 0 0-.144.292V21h-.988v-4.104h.58c.101 0 .172.019.212.056.04.035.067.099.08.192l.06.464Zm2.956-.712V21h-.992v-4.104h.992Zm.136-1.196a.558.558 0 0 1-.052.24.625.625 0 0 1-.14.196.656.656 0 0 1-.2.136.64.64 0 0 1-.492 0 .689.689 0 0 1-.332-.332.642.642 0 0 1 0-.488.627.627 0 0 1 .824-.332.601.601 0 0 1 .2.132.614.614 0 0 1 .192.448Zm2.252 3.148a.966.966 0 0 0 .32-.048.638.638 0 0 0 .224-.14.549.549 0 0 0 .136-.212.747.747 0 0 0 .048-.272.635.635 0 0 0-.184-.48c-.12-.12-.302-.18-.544-.18-.243 0-.426.06-.548.18-.12.117-.18.277-.18.48a.78.78 0 0 0 .044.268.64.64 0 0 0 .136.216.666.666 0 0 0 .228.14c.093.032.2.048.32.048Zm1.116 2.336a.273.273 0 0 0-.072-.196.461.461 0 0 0-.196-.116c-.083-.03-.18-.05-.292-.064a15.318 15.318 0 0 0-.736-.048 4.436 4.436 0 0 1-.384-.032.938.938 0 0 0-.268.216.444.444 0 0 0-.048.488.457.457 0 0 0 .172.164c.08.045.182.08.308.104.125.027.278.04.46.04.184 0 .342-.015.476-.044.133-.027.242-.065.328-.116a.477.477 0 0 0 .192-.176.42.42 0 0 0 .06-.22Zm.984-4.148v.368c0 .117-.071.19-.212.216l-.368.068c.056.141.084.296.084.464a1.207 1.207 0 0 1-.46.968 1.613 1.613 0 0 1-.512.268 2.099 2.099 0 0 1-.632.092c-.08 0-.158-.004-.232-.012a2.903 2.903 0 0 1-.22-.032c-.128.077-.192.164-.192.26 0 .083.037.144.112.184a.992.992 0 0 0 .304.08c.125.016.268.027.428.032.16.003.324.01.492.024.168.013.332.037.492.072.16.032.302.084.428.156.125.072.225.17.3.296a.883.883 0 0 1 .116.476c0 .181-.046.357-.136.528-.088.17-.218.323-.388.456a1.97 1.97 0 0 1-.624.32 2.63 2.63 0 0 1-.84.124c-.31 0-.579-.03-.808-.092a1.851 1.851 0 0 1-.572-.24 1.012 1.012 0 0 1-.34-.344.808.808 0 0 1-.112-.408c0-.192.057-.352.172-.48a1.21 1.21 0 0 1 .48-.312.684.684 0 0 1-.26-.224.639.639 0 0 1-.096-.368c0-.061.01-.124.032-.188a.892.892 0 0 1 .1-.196.941.941 0 0 1 .168-.18c.066-.059.145-.11.236-.156a1.31 1.31 0 0 1-.492-.448 1.201 1.201 0 0 1-.176-.656c0-.203.04-.385.12-.548.082-.165.196-.305.34-.42.146-.117.318-.207.516-.268.2-.061.417-.092.652-.092.176 0 .341.019.496.056.154.035.296.087.424.156h1.18Zm1.494.3c.16-.15.336-.27.528-.364a1.53 1.53 0 0 1 .676-.14c.224 0 .423.039.596.116.173.075.317.181.432.32.117.136.205.3.264.492.061.19.092.399.092.628V21h-.988v-2.612c0-.25-.057-.444-.172-.58-.115-.139-.289-.208-.524-.208a1.03 1.03 0 0 0-.48.116 1.72 1.72 0 0 0-.424.316V21h-.988v-5.944h.988v2.28Zm4.721 3.728c-.357 0-.632-.1-.824-.3-.189-.203-.284-.481-.284-.836v-2.292h-.42a.192.192 0 0 1-.136-.052c-.037-.035-.056-.087-.056-.156v-.392l.66-.108.208-1.12a.22.22 0 0 1 .076-.124.225.225 0 0 1 .144-.044h.512v1.292h1.096v.704h-1.096v2.224a.45.45 0 0 0 .092.3.33.33 0 0 0 .26.108.49.49 0 0 0 .26-.068c.032-.016.06-.03.084-.044a.129.129 0 0 1 .072-.024c.029 0 .053.008.072.024a.269.269 0 0 1 .06.064l.296.48c-.144.12-.309.21-.496.272-.187.061-.38.092-.58.092Z" fill="#DBDBDB"/><path d="M.5 27.5a3 3 0 0 1 3-3h128a3 3 0 0 1 3 3v5a3 3 0 0 1-3 3H3.5a3 3 0 0 1-3-3v-5Z" fill="url(#c)"/><path d="M21.188 27.216 19.392 33h-.972l-1.264-3.952a2.683 2.683 0 0 1-.096-.352 5.63 5.63 0 0 1-.048.188 2.014 2.014 0 0 1-.052.164L15.684 33h-.976l-1.792-5.784h.9a.38.38 0 0 1 .232.068.306.306 0 0 1 .128.176l.984 3.46c.021.085.041.179.06.28.021.099.043.203.064.312a6.4 6.4 0 0 1 .068-.316c.027-.099.055-.19.084-.276l1.136-3.46a.383.383 0 0 1 .124-.168.362.362 0 0 1 .232-.076h.316a.363.363 0 0 1 .36.244l1.132 3.46c.056.165.107.356.152.572a7.27 7.27 0 0 1 .116-.572l.984-3.46a.302.302 0 0 1 .12-.172.393.393 0 0 1 .236-.072h.844Zm2.11 4.032a5.198 5.198 0 0 0-.72.076c-.195.035-.35.08-.468.136a.615.615 0 0 0-.252.196.426.426 0 0 0-.076.244c0 .173.05.297.152.372a.677.677 0 0 0 .404.112c.203 0 .377-.036.524-.108.15-.075.295-.187.436-.336v-.692Zm-2.264-1.78c.472-.432 1.04-.648 1.704-.648.24 0 .455.04.644.12.19.077.35.187.48.328.13.139.23.305.296.5.07.195.104.408.104.64V33h-.448a.472.472 0 0 1-.216-.04c-.05-.03-.09-.087-.12-.172l-.088-.296a3.898 3.898 0 0 1-.304.248c-.099.07-.201.128-.308.176a1.845 1.845 0 0 1-1.224.08 1.08 1.08 0 0 1-.38-.212.943.943 0 0 1-.248-.348 1.236 1.236 0 0 1-.088-.484.947.947 0 0 1 .22-.604 1.49 1.49 0 0 1 .308-.264 1.97 1.97 0 0 1 .46-.216c.184-.061.397-.11.64-.148.243-.04.52-.064.832-.072v-.24c0-.275-.059-.477-.176-.608-.117-.133-.287-.2-.508-.2-.16 0-.293.019-.4.056-.104.037-.196.08-.276.128l-.22.124a.421.421 0 0 1-.216.056.292.292 0 0 1-.176-.052.478.478 0 0 1-.116-.128l-.176-.316Zm4.97.14c.128-.245.28-.437.456-.576a.966.966 0 0 1 .624-.212c.19 0 .342.041.457.124l-.064.74a.195.195 0 0 1-.06.104.159.159 0 0 1-.1.028c-.04 0-.1-.007-.18-.02a1.343 1.343 0 0 0-.229-.02.741.741 0 0 0-.524.188.974.974 0 0 0-.18.216 2.31 2.31 0 0 0-.143.292V33h-.988v-4.104h.58c.1 0 .172.019.212.056.04.035.066.099.08.192l.06.464ZM27.938 33v-4.104h.604c.128 0 .212.06.252.18l.064.304a2.49 2.49 0 0 1 .224-.22 1.348 1.348 0 0 1 .88-.328c.259 0 .47.07.636.212.168.139.293.324.376.556a1.285 1.285 0 0 1 .556-.588 1.46 1.46 0 0 1 .364-.136c.13-.03.261-.044.392-.044.227 0 .428.035.604.104.176.07.324.17.444.304.12.133.21.296.272.488.064.192.096.412.096.66V33h-.988v-2.612c0-.261-.057-.457-.172-.588-.115-.133-.283-.2-.504-.2a.684.684 0 0 0-.512.204.678.678 0 0 0-.152.244.958.958 0 0 0-.056.34V33h-.992v-2.612c0-.275-.056-.475-.168-.6-.11-.125-.27-.188-.484-.188a.798.798 0 0 0-.404.108c-.123.07-.237.165-.344.288V33h-.988Z" fill="#DBDBDB"/><path opacity=".75" d="M45.5 26v8h1v-8h-1Z" fill="#DBDBDB"/><path d="M59.99 27.216V33h-.553a.52.52 0 0 1-.216-.04.534.534 0 0 1-.164-.144l-3.02-3.856c.016.176.024.339.024.488V33h-.948v-5.784h.564c.046 0 .084.003.116.008.035.003.064.01.088.024.027.01.052.028.076.052.024.021.05.05.08.088l3.032 3.872a10.19 10.19 0 0 1-.02-.276 4.256 4.256 0 0 1-.008-.252v-3.516h.948Zm3.53 3.26a1.13 1.13 0 0 0-.056-.36.831.831 0 0 0-.16-.3.731.731 0 0 0-.276-.2.905.905 0 0 0-.384-.076c-.285 0-.51.081-.676.244-.162.163-.266.393-.312.692h1.864Zm-1.884.596c.016.21.054.393.112.548.059.152.136.279.232.38.096.099.21.173.34.224.134.048.28.072.44.072.16 0 .298-.019.412-.056.118-.037.219-.079.304-.124.088-.045.164-.087.228-.124a.394.394 0 0 1 .192-.056c.083 0 .144.03.184.092l.284.36a1.69 1.69 0 0 1-.368.324 2.186 2.186 0 0 1-.88.316c-.152.021-.3.032-.444.032-.285 0-.55-.047-.796-.14a1.818 1.818 0 0 1-.64-.42 1.996 1.996 0 0 1-.428-.688 2.68 2.68 0 0 1-.156-.952c0-.28.046-.543.136-.788.091-.248.22-.463.388-.644a1.85 1.85 0 0 1 .62-.436c.246-.107.522-.16.828-.16.259 0 .498.041.716.124.219.083.407.204.564.364.158.157.28.352.368.584.091.23.136.492.136.788 0 .15-.016.25-.048.304-.032.05-.093.076-.184.076h-2.54Zm6.93-2.176V33h-.604c-.13 0-.214-.06-.248-.18l-.068-.328c-.168.17-.354.31-.556.416a1.55 1.55 0 0 1-.716.156c-.224 0-.423-.037-.596-.112a1.213 1.213 0 0 1-.432-.324 1.437 1.437 0 0 1-.268-.492 2.154 2.154 0 0 1-.088-.632v-2.608h.988v2.608c0 .25.057.445.172.584.117.136.292.204.524.204.17 0 .33-.037.48-.112.15-.077.29-.183.424-.316v-2.968h.988Zm2.227 4.168c-.357 0-.632-.1-.824-.3-.189-.203-.284-.481-.284-.836v-2.292h-.42a.192.192 0 0 1-.136-.052c-.037-.035-.056-.087-.056-.156v-.392l.66-.108.208-1.12a.22.22 0 0 1 .076-.124.226.226 0 0 1 .144-.044h.512v1.292h1.096v.704h-1.096v2.224a.45.45 0 0 0 .092.3.33.33 0 0 0 .26.108.49.49 0 0 0 .26-.068c.032-.016.06-.03.084-.044a.129.129 0 0 1 .072-.024c.03 0 .054.008.072.024a.282.282 0 0 1 .06.064l.296.48c-.144.12-.309.21-.496.272-.186.061-.38.092-.58.092Zm2.421-3.456c.128-.245.28-.437.456-.576a.966.966 0 0 1 .624-.212.76.76 0 0 1 .456.124l-.064.74a.197.197 0 0 1-.06.104.16.16 0 0 1-.1.028c-.04 0-.1-.007-.18-.02a1.345 1.345 0 0 0-.228-.02.739.739 0 0 0-.524.188.969.969 0 0 0-.18.216c-.05.085-.099.183-.144.292V33h-.988v-4.104h.58c.101 0 .172.019.212.056.04.035.067.099.08.192l.06.464Zm4.046 1.64a5.198 5.198 0 0 0-.72.076c-.195.035-.351.08-.468.136a.615.615 0 0 0-.252.196.426.426 0 0 0-.076.244c0 .173.05.297.152.372a.677.677 0 0 0 .404.112c.202 0 .377-.036.524-.108.149-.075.294-.187.436-.336v-.692Zm-2.264-1.78c.472-.432 1.04-.648 1.704-.648.24 0 .454.04.644.12a1.332 1.332 0 0 1 .776.828c.069.195.104.408.104.64V33h-.448a.472.472 0 0 1-.216-.04c-.051-.03-.091-.087-.12-.172l-.088-.296a3.898 3.898 0 0 1-.304.248c-.099.07-.202.128-.308.176a1.845 1.845 0 0 1-1.224.08 1.08 1.08 0 0 1-.38-.212.943.943 0 0 1-.248-.348 1.236 1.236 0 0 1-.088-.484.947.947 0 0 1 .22-.604c.08-.093.182-.181.308-.264.125-.083.278-.155.46-.216.184-.061.397-.11.64-.148.242-.04.52-.064.832-.072v-.24c0-.275-.059-.477-.176-.608-.118-.133-.287-.2-.508-.2-.16 0-.294.019-.4.056-.104.037-.196.08-.276.128l-.22.124a.421.421 0 0 1-.216.056.292.292 0 0 1-.176-.052.478.478 0 0 1-.116-.128l-.176-.316Zm5.038-2.412V33h-.988v-5.944h.988Z" fill="#DBDBDB"/><path opacity=".75" d="M88.5 26v8h1v-8h-1Z" fill="#DBDBDB"/><path d="M103.674 32.16c.2 0 .368-.024.504-.072a.85.85 0 0 0 .324-.192.665.665 0 0 0 .176-.28c.038-.107.056-.22.056-.34a.888.888 0 0 0-.06-.336.61.61 0 0 0-.188-.256.858.858 0 0 0-.332-.164 1.811 1.811 0 0 0-.484-.056h-1.084v1.696h1.088Zm-1.088-4.112v1.672h.856c.368 0 .646-.067.832-.2.19-.133.284-.345.284-.636 0-.301-.085-.516-.256-.644-.17-.128-.437-.192-.8-.192h-.916Zm.916-.832c.379 0 .703.036.972.108.27.072.49.175.66.308.174.133.3.295.38.484.08.19.12.403.12.64 0 .136-.02.267-.06.392-.04.123-.102.239-.188.348a1.342 1.342 0 0 1-.32.292 1.887 1.887 0 0 1-.46.224c.795.179 1.192.608 1.192 1.288 0 .245-.046.472-.14.68a1.51 1.51 0 0 1-.408.54 1.94 1.94 0 0 1-.66.352c-.261.085-.56.128-.896.128h-2.184v-5.784h1.992Zm3.852 2.392c.128-.245.28-.437.456-.576a.966.966 0 0 1 .624-.212c.189 0 .341.041.456.124l-.064.74a.192.192 0 0 1-.06.104.158.158 0 0 1-.1.028c-.04 0-.1-.007-.18-.02a1.338 1.338 0 0 0-.228-.02.74.74 0 0 0-.524.188.953.953 0 0 0-.18.216 2.208 2.208 0 0 0-.144.292V33h-.988v-4.104h.58c.101 0 .172.019.212.056.04.035.067.099.08.192l.06.464Zm2.956-.712V33h-.992v-4.104h.992Zm.136-1.196a.558.558 0 0 1-.052.24.625.625 0 0 1-.14.196.656.656 0 0 1-.2.136.64.64 0 0 1-.492 0 .689.689 0 0 1-.332-.332.642.642 0 0 1 0-.488.627.627 0 0 1 .824-.332.601.601 0 0 1 .2.132.614.614 0 0 1 .192.448Zm2.252 3.148a.966.966 0 0 0 .32-.048.638.638 0 0 0 .224-.14.549.549 0 0 0 .136-.212.747.747 0 0 0 .048-.272.635.635 0 0 0-.184-.48c-.12-.12-.302-.18-.544-.18-.243 0-.426.06-.548.18-.12.117-.18.277-.18.48a.78.78 0 0 0 .044.268.64.64 0 0 0 .136.216.666.666 0 0 0 .228.14c.093.032.2.048.32.048Zm1.116 2.336a.273.273 0 0 0-.072-.196.461.461 0 0 0-.196-.116c-.083-.03-.18-.05-.292-.064a15.318 15.318 0 0 0-.736-.048 4.436 4.436 0 0 1-.384-.032.938.938 0 0 0-.268.216.444.444 0 0 0-.048.488.457.457 0 0 0 .172.164c.08.045.182.08.308.104.125.027.278.04.46.04.184 0 .342-.015.476-.044.133-.027.242-.065.328-.116a.477.477 0 0 0 .192-.176.42.42 0 0 0 .06-.22Zm.984-4.148v.368c0 .117-.071.19-.212.216l-.368.068c.056.141.084.296.084.464a1.207 1.207 0 0 1-.46.968 1.613 1.613 0 0 1-.512.268 2.099 2.099 0 0 1-.632.092c-.08 0-.158-.004-.232-.012a2.903 2.903 0 0 1-.22-.032c-.128.077-.192.164-.192.26 0 .083.037.144.112.184a.992.992 0 0 0 .304.08c.125.016.268.027.428.032.16.003.324.01.492.024.168.013.332.037.492.072.16.032.302.084.428.156.125.072.225.17.3.296a.883.883 0 0 1 .116.476c0 .181-.046.357-.136.528-.088.17-.218.323-.388.456a1.97 1.97 0 0 1-.624.32 2.63 2.63 0 0 1-.84.124c-.31 0-.579-.03-.808-.092a1.851 1.851 0 0 1-.572-.24 1.012 1.012 0 0 1-.34-.344.808.808 0 0 1-.112-.408c0-.192.057-.352.172-.48a1.21 1.21 0 0 1 .48-.312.684.684 0 0 1-.26-.224.639.639 0 0 1-.096-.368c0-.061.01-.124.032-.188a.892.892 0 0 1 .1-.196.941.941 0 0 1 .168-.18c.066-.059.145-.11.236-.156a1.31 1.31 0 0 1-.492-.448 1.201 1.201 0 0 1-.176-.656c0-.203.04-.385.12-.548.082-.165.196-.305.34-.42.146-.117.318-.207.516-.268.2-.061.417-.092.652-.092.176 0 .341.019.496.056.154.035.296.087.424.156h1.18Zm1.494.3c.16-.15.336-.27.528-.364a1.53 1.53 0 0 1 .676-.14c.224 0 .423.039.596.116.173.075.317.181.432.32.117.136.205.3.264.492.061.19.092.399.092.628V33h-.988v-2.612c0-.25-.057-.444-.172-.58-.115-.139-.289-.208-.524-.208a1.03 1.03 0 0 0-.48.116 1.72 1.72 0 0 0-.424.316V33h-.988v-5.944h.988v2.28Zm4.721 3.728c-.357 0-.632-.1-.824-.3-.189-.203-.284-.481-.284-.836v-2.292h-.42a.192.192 0 0 1-.136-.052c-.037-.035-.056-.087-.056-.156v-.392l.66-.108.208-1.12a.22.22 0 0 1 .076-.124.225.225 0 0 1 .144-.044h.512v1.292h1.096v.704h-1.096v2.224a.45.45 0 0 0 .092.3.33.33 0 0 0 .26.108.49.49 0 0 0 .26-.068c.032-.016.06-.03.084-.044a.129.129 0 0 1 .072-.024c.029 0 .053.008.072.024a.269.269 0 0 1 .06.064l.296.48c-.144.12-.309.21-.496.272-.187.061-.38.092-.58.092Z" fill="#FF9000"/><defs><linearGradient id="a" x1="67.5" y1=".5" x2="67.5" y2="11.5" gradientUnits="userSpaceOnUse"><stop/><stop offset="1" stop-opacity=".25"/></linearGradient><linearGradient id="b" x1="67.5" y1="12.5" x2="67.5" y2="23.5" gradientUnits="userSpaceOnUse"><stop/><stop offset="1" stop-opacity=".25"/></linearGradient><linearGradient id="c" x1="67.5" y1="24.5" x2="67.5" y2="35.5" gradientUnits="userSpaceOnUse"><stop/><stop offset="1" stop-opacity=".25"/></linearGradient></defs></svg>