<svg width="40" height="120" fill="none" xmlns="http://www.w3.org/2000/svg"><path d="M18.71 17.35c-.323-1.05-.852-3.029-1.162-3.783-.25-.607-.484-1.219-.772-1.507-.288-.287-.777-.264-1.072.03 0 0-1.234.837-1.677 1.391-.553.441-1.392 1.678-1.392 1.678-.295.295-.317.784-.03 1.072.288.287.899.521 1.508.772.753.31 2.732.838 3.782 1.163.18.055.87-.636.816-.816h-.001Z" fill="#FF9000"/><path d="M7.921 3.205a1.473 1.473 0 0 1 0 2.084L5.838 7.373a1.474 1.474 0 0 1-2.084 0L1.67 5.289a1.474 1.474 0 0 1 0-2.084l2.083-2.083a1.473 1.473 0 0 1 2.084 0l2.084 2.083Z" fill="#BC0000"/><path d="m16.776 12.06-2.085 2.085-2.082 2.083-7.814-7.814 4.168-4.167 7.813 7.813Z" fill="#656565"/><path d="M17.139 17.933s1.354.744 1.72.378c.366-.366-.383-1.717-.383-1.717s-1.282.024-1.337 1.339Z" fill="#292F33"/><path d="m2.191 5.81 4.168-4.168 2.604 2.605-4.167 4.167L2.19 5.81h.001Z" fill="#D8D8D8"/><path d="m2.712 6.33 4.167-4.167.521.522L3.233 6.85l-.521-.52Zm1.042 1.043L7.92 3.207l.521.521-4.167 4.167-.521-.52.001-.002Z" fill="#A0A0A0"/><path d="M38.71 17.35c-.323-1.05-.852-3.029-1.162-3.783-.25-.607-.485-1.219-.772-1.507-.288-.287-.777-.264-1.072.03 0 0-1.234.837-1.676 1.391-.554.441-1.393 1.678-1.393 1.678-.295.295-.317.784-.03 1.072.288.287.899.521 1.508.772.752.31 2.732.838 3.782 1.163.18.055.87-.636.816-.816h-.001Z" fill="#FCC379"/><path d="M27.921 3.205a1.473 1.473 0 0 1 0 2.084l-2.084 2.084a1.474 1.474 0 0 1-2.083 0L21.67 5.289a1.474 1.474 0 0 1 0-2.084l2.083-2.083a1.473 1.473 0 0 1 2.084 0l2.084 2.083Z" fill="#E70000"/><path d="m36.776 12.06-2.085 2.085-2.082 2.083-7.814-7.814 4.168-4.167 7.813 7.813Z" fill="#8A8A8A"/><path d="M37.139 17.933s1.354.744 1.72.378c.366-.366-.383-1.717-.383-1.717s-1.282.024-1.337 1.339Z" fill="#292F33"/><path d="m22.191 5.81 4.168-4.168 2.603 2.605-4.166 4.167L22.19 5.81h.001Z" fill="#D8D8D8"/><path d="m22.712 6.33 4.167-4.167.521.522-4.167 4.166-.521-.52V6.33Zm1.041 1.043 4.168-4.167.521.521-4.168 4.167-.52-.52-.001-.001Z" fill="#A0A0A0"/><path d="M5.955 46.047s-1 0-1 1v6c0 1 1 1 1 1h3l4 4s.5.5 1 .5h.5s.5 0 .5-.5v-16s0-.5-.5-.5h-.5c-.5 0-1 .5-1 .5l-4 4h-3Z" fill="#656565"/><path d="m8.955 54.047 4 4s.5.5 1 .5h.5s.5 0 .5-.5v-16s0-.5-.5-.5h-.5c-.5 0-1 .5-1 .5l-4 4v8Z" fill="#BABABA"/><path d="M6 65.578s-1 0-1 1v6c0 1 1 1 1 1h3l4 4s.5.5 1 .5h.5s.5 0 .5-.5v-16s0-.5-.5-.5H14c-.5 0-1 .5-1 .5l-4 4H6Z" fill="#656565"/><path d="m9 73.578 4 4s.5.5 1 .5h.5s.5 0 .5-.5v-16s0-.5-.5-.5H14c-.5 0-1 .5-1 .5l-4 4v8Z" fill="#BABABA"/><path d="M17.001 77.08 3.498 63.575a.705.705 0 0 1 0-.997l.003-.003a.705.705 0 0 1 .997 0L18.001 76.08a.705.705 0 0 1 0 .997l-.003.003a.705.705 0 0 1-.997 0Z" fill="#BC0000"/><path d="M25.746 46.02s-1 0-1 1v6c0 1 1 1 1 1h3l4 4s.5.5 1 .5h.5s.5 0 .5-.5v-16s0-.5-.5-.5h-.5c-.5 0-1 .5-1 .5l-4 4h-3Z" fill="#656565"/><path d="m28.746 54.02 4 4s.5.5 1 .5h.5s.5 0 .5-.5v-16s0-.5-.5-.5h-.5c-.5 0-1 .5-1 .5l-4 4v8Z" fill="#DDD"/><path d="M25.285 65.31s-1 0-1 1v6c0 1 1 1 1 1h3l4 4s.5.5 1 .5h.5s.5 0 .5-.5v-16s0-.5-.5-.5h-.5c-.5 0-1 .5-1 .5l-4 4h-3Z" fill="#656565"/><path d="m28.285 73.31 4 4s.5.5 1 .5h.5s.5 0 .5-.5v-16s0-.5-.5-.5h-.5c-.5 0-1 .5-1 .5l-4 4v8Z" fill="#BEBEBE"/><path d="M36.287 76.811 22.784 63.308a.705.705 0 0 1 0-.997l.003-.003a.705.705 0 0 1 .997 0l13.503 13.503a.705.705 0 0 1 0 .997l-.003.003a.705.705 0 0 1-.997 0Z" fill="#E70000"/><path d="m10.767 29.001 6.117-6.117a1.25 1.25 0 1 0-1.768-1.768L9 27.233l-6.117-6.117a1.25 1.25 0 1 0-1.768 1.768l6.117 6.117-6.13 6.131A1.25 1.25 0 1 0 2.869 36.9l6.13-6.131 6.117 6.117a1.253 1.253 0 0 0 2.038-.406 1.25 1.25 0 0 0-.27-1.362l-6.117-6.117Z" fill="#BC0000"/><path d="m30.767 29.001 6.117-6.117a1.25 1.25 0 0 0-1.767-1.768l-6.118 6.117-6.117-6.117a1.25 1.25 0 1 0-1.768 1.768l6.117 6.117-6.13 6.131a1.25 1.25 0 1 0 1.768 1.768l6.13-6.131 6.118 6.117a1.25 1.25 0 0 0 1.768-1.768l-6.118-6.117Z" fill="#E70000"/><path d="M8.5 93.5A1.5 1.5 0 0 1 7 92v-2a1.5 1.5 0 0 1 1.5-1.5c.302-.003 3-.5 3-2.5 0-1-1-2-2.5-2-1.22 0-2 1-2 1.5a1.5 1.5 0 0 1-3 0C4 83.061 6.29 81 9 81c4 0 5.5 2.991 5.5 5.5 0 2.073-1.139 3.656-3.207 4.46a7.8 7.8 0 0 1-1.293.374V92a1.5 1.5 0 0 1-1.5 1.5Zm0 4a1.5 1.5 0 1 0 0-3 1.5 1.5 0 0 0 0 3Z" fill="#FF9000"/><path d="M28.5 93.5A1.5 1.5 0 0 1 27 92v-2a1.5 1.5 0 0 1 1.5-1.5c.302-.003 3-.5 3-2.5 0-1-1-2-2.5-2-1.22 0-2 1-2 1.5a1.5 1.5 0 1 1-3 0c0-2.439 2.29-4.5 5-4.5 4 0 5.5 2.991 5.5 5.5 0 2.073-1.139 3.656-3.206 4.46a7.78 7.78 0 0 1-1.294.374V92a1.5 1.5 0 0 1-1.5 1.5Zm0 4a1.5 1.5 0 1 0 0-3 1.5 1.5 0 0 0 0 3Z" fill="#FFB357"/></svg>