<svg width="51" height="28" fill="none" xmlns="http://www.w3.org/2000/svg"><path d="M.5 3.5a3 3 0 0 1 3-3h44a3 3 0 0 1 3 3v7a3 3 0 0 1-3 3h-44a3 3 0 0 1-3-3v-7Z" fill="url(#a)"/><path d="M13.63 9.132c.208 0 .394-.035.556-.104a1.14 1.14 0 0 0 .416-.292c.112-.125.198-.277.256-.456.062-.179.092-.379.092-.6V4.216h1.076V7.68c0 .344-.056.663-.168.956-.109.29-.268.543-.476.756-.205.21-.455.376-.752.496a2.7 2.7 0 0 1-1 .176c-.373 0-.708-.059-1.004-.176a2.219 2.219 0 0 1-.755-.496 2.235 2.235 0 0 1-.476-.756 2.715 2.715 0 0 1-.165-.956V4.216h1.076v3.46c0 .221.03.421.089.6.06.179.148.332.26.46.114.125.253.223.415.292.166.07.352.104.56.104ZM17.755 6.4c.083-.083.17-.159.26-.228a1.594 1.594 0 0 1 .624-.296c.117-.03.245-.044.384-.044.224 0 .423.039.596.116.174.075.317.181.432.32.118.136.206.3.264.492.061.19.092.399.092.628V10h-.988V7.388c0-.25-.057-.444-.172-.58-.114-.139-.29-.208-.524-.208-.17 0-.33.039-.48.116a1.72 1.72 0 0 0-.424.316V10h-.988V5.896h.604c.128 0 .212.06.252.18l.068.324Zm4.496-.504V10h-.992V5.896h.992Zm.136-1.196a.562.562 0 0 1-.052.24.642.642 0 0 1-.14.196.664.664 0 0 1-.2.136.642.642 0 0 1-.492 0 .678.678 0 0 1-.332-.332.642.642 0 0 1 0-.488.619.619 0 0 1 .332-.332.6.6 0 0 1 .492 0 .629.629 0 0 1 .392.58Zm1.739 4.236a.978.978 0 0 0 .364.288c.133.056.277.084.432.084.15 0 .284-.028.404-.084a.776.776 0 0 0 .304-.256c.085-.115.15-.259.196-.432.045-.176.068-.383.068-.62 0-.24-.02-.443-.06-.608a1.153 1.153 0 0 0-.164-.408.652.652 0 0 0-.264-.228.804.804 0 0 0-.348-.072.987.987 0 0 0-.524.132c-.144.085-.28.207-.408.364v1.84Zm-.052-2.48c.168-.19.359-.343.572-.46a1.54 1.54 0 0 1 .752-.176 1.333 1.333 0 0 1 1.092.548c.136.176.24.395.312.656.075.259.112.556.112.892 0 .307-.041.59-.124.852a2.061 2.061 0 0 1-.356.68 1.631 1.631 0 0 1-.556.452c-.216.107-.459.16-.728.16-.23 0-.425-.035-.588-.104a1.468 1.468 0 0 1-.436-.296v1.68h-.988V5.896h.604c.128 0 .212.06.252.18l.08.38Zm5.307-.624c.304 0 .58.05.828.148a1.794 1.794 0 0 1 1.052 1.084c.096.261.144.553.144.876 0 .325-.048.619-.144.88a1.87 1.87 0 0 1-.412.668c-.176.184-.39.325-.64.424a2.222 2.222 0 0 1-.828.148c-.307 0-.585-.05-.836-.148a1.809 1.809 0 0 1-.644-.424 1.949 1.949 0 0 1-.412-.668 2.538 2.538 0 0 1-.144-.88c0-.323.048-.615.144-.876a1.91 1.91 0 0 1 .412-.664c.179-.181.393-.321.644-.42.25-.099.53-.148.836-.148Zm0 3.468c.341 0 .593-.115.756-.344.165-.23.248-.565.248-1.008 0-.443-.083-.78-.248-1.012-.163-.232-.415-.348-.756-.348-.347 0-.604.117-.772.352-.165.232-.248.568-.248 1.008 0 .44.083.776.248 1.008.168.23.425.344.772.344Zm3.658-5.244V10h-.988V4.056h.988Zm3.032 4.192a5.198 5.198 0 0 0-.72.076c-.195.035-.35.08-.468.136a.616.616 0 0 0-.252.196.426.426 0 0 0-.076.244c0 .173.05.297.152.372a.677.677 0 0 0 .404.112c.203 0 .377-.036.524-.108.15-.075.295-.187.436-.336v-.692Zm-2.264-1.78c.472-.432 1.04-.648 1.704-.648.24 0 .455.04.644.12.19.077.35.187.48.328.13.139.23.305.296.5.07.195.104.408.104.64V10h-.448a.472.472 0 0 1-.216-.04c-.05-.03-.09-.087-.12-.172l-.088-.296a3.892 3.892 0 0 1-.304.248c-.099.07-.201.128-.308.176a1.845 1.845 0 0 1-1.224.08 1.08 1.08 0 0 1-.38-.212.944.944 0 0 1-.248-.348 1.236 1.236 0 0 1-.088-.484.947.947 0 0 1 .22-.604 1.49 1.49 0 0 1 .308-.264 2 2 0 0 1 .46-.216c.184-.061.397-.11.64-.148.243-.04.52-.064.832-.072v-.24c0-.275-.059-.477-.176-.608-.117-.133-.287-.2-.508-.2-.16 0-.293.019-.4.056a1.56 1.56 0 0 0-.276.128l-.22.124a.42.42 0 0 1-.216.056.293.293 0 0 1-.176-.052.479.479 0 0 1-.116-.128l-.176-.316Zm4.97.14c.129-.245.28-.437.456-.576a.966.966 0 0 1 .625-.212c.189 0 .34.041.456.124l-.065.74a.195.195 0 0 1-.06.104.16.16 0 0 1-.1.028c-.04 0-.1-.007-.18-.02a1.34 1.34 0 0 0-.227-.02.74.74 0 0 0-.524.188.973.973 0 0 0-.18.216 2.31 2.31 0 0 0-.145.292V10h-.987V5.896h.58c.1 0 .171.019.212.056.04.035.066.099.08.192l.06.464Z" fill="#DBDBDB"/><path d="M.5 17.5a3 3 0 0 1 3-3h44a3 3 0 0 1 3 3v7a3 3 0 0 1-3 3h-44a3 3 0 0 1-3-3v-7Z" fill="url(#b)"/><path d="M13.63 23.132c.208 0 .394-.035.556-.104a1.14 1.14 0 0 0 .416-.292c.112-.125.198-.277.256-.456.062-.179.092-.379.092-.6v-3.464h1.076v3.464c0 .344-.056.663-.168.956-.109.29-.268.543-.476.756-.205.21-.455.376-.752.496a2.7 2.7 0 0 1-1 .176c-.373 0-.708-.059-1.004-.176a2.218 2.218 0 0 1-.755-.496 2.234 2.234 0 0 1-.476-.756 2.715 2.715 0 0 1-.165-.956v-3.464h1.076v3.46c0 .221.03.421.089.6.06.179.148.332.26.46.114.125.253.223.415.292.166.07.352.104.56.104Zm4.125-2.732c.083-.083.17-.159.26-.228a1.594 1.594 0 0 1 .624-.296c.117-.03.245-.044.384-.044.224 0 .423.039.596.116.174.075.317.181.432.32.118.136.206.3.264.492.061.19.092.399.092.628V24h-.988v-2.612c0-.25-.057-.444-.172-.58-.114-.139-.29-.208-.524-.208-.17 0-.33.039-.48.116a1.72 1.72 0 0 0-.424.316V24h-.988v-4.104h.604c.128 0 .212.06.252.18l.068.324Zm4.496-.504V24h-.992v-4.104h.992Zm.136-1.196a.563.563 0 0 1-.052.24.642.642 0 0 1-.14.196.664.664 0 0 1-.2.136.642.642 0 0 1-.492 0 .679.679 0 0 1-.332-.332.642.642 0 0 1 0-.488.619.619 0 0 1 .332-.332.599.599 0 0 1 .492 0 .63.63 0 0 1 .392.58Zm1.739 4.236a.978.978 0 0 0 .364.288c.133.056.277.084.432.084.15 0 .284-.028.404-.084a.776.776 0 0 0 .304-.256c.085-.115.15-.259.196-.432.045-.176.068-.383.068-.62 0-.24-.02-.443-.06-.608a1.153 1.153 0 0 0-.164-.408.652.652 0 0 0-.264-.228.804.804 0 0 0-.348-.072.987.987 0 0 0-.524.132c-.144.085-.28.207-.408.364v1.84Zm-.052-2.48c.168-.19.359-.343.572-.46a1.54 1.54 0 0 1 .752-.176 1.334 1.334 0 0 1 1.092.548c.136.176.24.395.312.656.075.259.112.556.112.892 0 .307-.041.59-.124.852a2.062 2.062 0 0 1-.356.68 1.63 1.63 0 0 1-.556.452c-.216.107-.459.16-.728.16-.23 0-.425-.035-.588-.104a1.469 1.469 0 0 1-.436-.296v1.68h-.988v-5.444h.604c.128 0 .212.06.252.18l.08.38Zm5.307-.624c.304 0 .58.05.828.148a1.795 1.795 0 0 1 1.052 1.084c.096.261.144.553.144.876 0 .325-.048.619-.144.88a1.87 1.87 0 0 1-.412.668 1.77 1.77 0 0 1-.64.424 2.221 2.221 0 0 1-.828.148c-.307 0-.585-.05-.836-.148a1.81 1.81 0 0 1-.644-.424 1.95 1.95 0 0 1-.412-.668 2.538 2.538 0 0 1-.144-.88c0-.323.048-.615.144-.876a1.91 1.91 0 0 1 .412-.664c.179-.181.393-.321.644-.42.25-.099.53-.148.836-.148Zm0 3.468c.341 0 .593-.115.756-.344.165-.23.248-.565.248-1.008 0-.443-.083-.78-.248-1.012-.163-.232-.415-.348-.756-.348-.347 0-.604.117-.772.352-.165.232-.248.568-.248 1.008 0 .44.083.776.248 1.008.168.23.425.344.772.344Zm3.658-5.244V24h-.988v-5.944h.988Zm3.032 4.192a5.198 5.198 0 0 0-.72.076c-.195.035-.35.08-.468.136a.615.615 0 0 0-.252.196.426.426 0 0 0-.076.244c0 .173.05.297.152.372a.677.677 0 0 0 .404.112c.203 0 .377-.036.524-.108.15-.075.295-.187.436-.336v-.692Zm-2.264-1.78c.472-.432 1.04-.648 1.704-.648.24 0 .455.04.644.12.19.077.35.187.48.328.13.139.23.305.296.5.07.195.104.408.104.64V24h-.448a.472.472 0 0 1-.216-.04c-.05-.03-.09-.087-.12-.172l-.088-.296a3.898 3.898 0 0 1-.304.248c-.099.07-.201.128-.308.176a1.845 1.845 0 0 1-1.224.08 1.08 1.08 0 0 1-.38-.212.943.943 0 0 1-.248-.348 1.236 1.236 0 0 1-.088-.484.947.947 0 0 1 .22-.604 1.49 1.49 0 0 1 .308-.264 1.97 1.97 0 0 1 .46-.216c.184-.061.397-.11.64-.148.243-.04.52-.064.832-.072v-.24c0-.275-.059-.477-.176-.608-.117-.133-.287-.2-.508-.2-.16 0-.293.019-.4.056-.104.037-.196.08-.276.128l-.22.124a.421.421 0 0 1-.216.056.292.292 0 0 1-.176-.052.478.478 0 0 1-.116-.128l-.176-.316Zm4.97.14c.129-.245.28-.437.456-.576a.966.966 0 0 1 .625-.212c.189 0 .34.041.456.124l-.065.74a.195.195 0 0 1-.06.104.159.159 0 0 1-.1.028c-.04 0-.1-.007-.18-.02a1.343 1.343 0 0 0-.227-.02.741.741 0 0 0-.524.188.974.974 0 0 0-.18.216 2.31 2.31 0 0 0-.145.292V24h-.987v-4.104h.58c.1 0 .171.019.212.056.04.035.066.099.08.192l.06.464Z" fill="#FF9000"/><defs><linearGradient id="a" x1="25.5" y1=".5" x2="25.5" y2="13.5" gradientUnits="userSpaceOnUse"><stop/><stop offset="1" stop-opacity=".25"/></linearGradient><linearGradient id="b" x1="25.5" y1="14.5" x2="25.5" y2="27.5" gradientUnits="userSpaceOnUse"><stop/><stop offset="1" stop-opacity=".25"/></linearGradient></defs></svg>