<svg width="16" height="24" fill="none" xmlns="http://www.w3.org/2000/svg"><path d="M15.5 3.5a3 3 0 0 0-3-3H.5v11h12a3 3 0 0 0 3-3v-5Z" fill="url(#a)"/><path fill="#DBDBDB" d="M.5 2H1v8H.5zm7.25 2a3.82 3.82 0 0 1 2.997 1.415L12 4.235V8H8l1.36-1.28C9 5.686 7.969 4.94 6.75 4.94 5.23 4.941 4 6.101 4 7.53 4 5.58 5.679 4 7.75 4Z"/><path d="M15.5 15.5a3 3 0 0 0-3-3H.5v11h12a3 3 0 0 0 3-3v-5Z" fill="url(#b)"/><path fill="#DBDBDB" d="M.5 14H1v8H.5zm7.25 2a3.82 3.82 0 0 1 2.997 1.415L12 16.235V20H8l1.36-1.28c-.36-1.034-1.391-1.78-2.61-1.78C5.23 16.94 4 18.1 4 19.528 4 17.58 5.679 16 7.75 16Z"/><defs><linearGradient id="a" x1="8" y1=".5" x2="8" y2="11.5" gradientUnits="userSpaceOnUse"><stop/><stop offset="1" stop-opacity=".25"/></linearGradient><linearGradient id="b" x1="8" y1="12.5" x2="8" y2="23.5" gradientUnits="userSpaceOnUse"><stop/><stop offset="1" stop-opacity=".25"/></linearGradient></defs></svg>