<svg width="31" height="24" fill="none" xmlns="http://www.w3.org/2000/svg"><path d="M.5 3.5a3 3 0 0 1 3-3h24a3 3 0 0 1 3 3v5a3 3 0 0 1-3 3h-24a3 3 0 0 1-3-3v-5Z" fill="url(#a)"/><path d="M11.684 4.1H9.94V9H8.864V4.1H7.12v-.884h4.564V4.1Zm3.275.796V9h-.604c-.13 0-.213-.06-.248-.18l-.068-.328c-.168.17-.354.31-.556.416a1.549 1.549 0 0 1-.716.156c-.224 0-.423-.037-.596-.112a1.213 1.213 0 0 1-.432-.324 1.438 1.438 0 0 1-.268-.492 2.154 2.154 0 0 1-.088-.632V4.896h.988v2.608c0 .25.057.445.172.584.117.136.292.204.524.204.17 0 .33-.037.48-.112.15-.077.29-.183.424-.316V4.896h.988Zm1.783.504c.083-.083.17-.159.26-.228a1.6 1.6 0 0 1 .624-.296c.118-.03.246-.044.384-.044.224 0 .423.039.596.116.174.075.318.181.432.32.118.136.206.3.264.492.062.19.092.399.092.628V9h-.988V6.388c0-.25-.057-.444-.172-.58-.114-.139-.289-.208-.524-.208-.17 0-.33.039-.48.116-.149.077-.29.183-.424.316V9h-.988V4.896h.604c.128 0 .212.06.252.18l.068.324Zm6.116 1.076a1.13 1.13 0 0 0-.056-.36.832.832 0 0 0-.16-.3.73.73 0 0 0-.276-.2.905.905 0 0 0-.384-.076c-.285 0-.51.081-.676.244-.163.163-.267.393-.312.692h1.864Zm-1.884.596c.016.21.053.393.112.548.059.152.136.279.232.38.096.099.21.173.34.224.133.048.28.072.44.072.16 0 .297-.019.412-.056a1.84 1.84 0 0 0 .304-.124c.088-.045.164-.087.228-.124a.394.394 0 0 1 .192-.056c.083 0 .144.03.184.092l.284.36a1.69 1.69 0 0 1-.368.324 2.186 2.186 0 0 1-.88.316c-.152.021-.3.032-.444.032a2.22 2.22 0 0 1-.796-.14 1.818 1.818 0 0 1-.64-.42 1.996 1.996 0 0 1-.428-.688 2.679 2.679 0 0 1-.156-.952c0-.28.045-.543.136-.788a1.83 1.83 0 0 1 1.008-1.08c.245-.107.521-.16.828-.16.259 0 .497.041.716.124.219.083.407.204.564.364.157.157.28.352.368.584.09.23.136.492.136.788 0 .15-.016.25-.048.304-.032.05-.093.076-.184.076h-2.54Z" fill="#DBDBDB"/><path d="M.5 15.5a3 3 0 0 1 3-3h24a3 3 0 0 1 3 3v5a3 3 0 0 1-3 3h-24a3 3 0 0 1-3-3v-5Z" fill="url(#b)"/><path d="M11.684 16.1H9.94V21H8.864v-4.9H7.12v-.884h4.564v.884Zm3.275.796V21h-.604c-.13 0-.213-.06-.248-.18l-.068-.328c-.168.17-.354.31-.556.416a1.549 1.549 0 0 1-.716.156c-.224 0-.423-.037-.596-.112a1.213 1.213 0 0 1-.432-.324 1.439 1.439 0 0 1-.268-.492 2.154 2.154 0 0 1-.088-.632v-2.608h.988v2.608c0 .25.057.445.172.584.117.136.292.204.524.204.17 0 .33-.037.48-.112.15-.077.29-.183.424-.316v-2.968h.988Zm1.783.504a2.61 2.61 0 0 1 .26-.228 1.6 1.6 0 0 1 .624-.296c.118-.03.246-.044.384-.044.224 0 .423.039.596.116.174.075.318.181.432.32.118.136.206.3.264.492.062.19.092.399.092.628V21h-.988v-2.612c0-.25-.057-.444-.172-.58-.114-.139-.289-.208-.524-.208-.17 0-.33.039-.48.116-.149.077-.29.183-.424.316V21h-.988v-4.104h.604c.128 0 .212.06.252.18l.068.324Zm6.116 1.076a1.13 1.13 0 0 0-.056-.36.831.831 0 0 0-.16-.3.731.731 0 0 0-.276-.2.905.905 0 0 0-.384-.076c-.285 0-.51.081-.676.244-.163.163-.267.393-.312.692h1.864Zm-1.884.596c.016.21.053.393.112.548.059.152.136.279.232.38.096.099.21.173.34.224.133.048.28.072.44.072.16 0 .297-.019.412-.056a1.84 1.84 0 0 0 .304-.124c.088-.045.164-.087.228-.124a.394.394 0 0 1 .192-.056c.083 0 .144.03.184.092l.284.36a1.69 1.69 0 0 1-.368.324 2.186 2.186 0 0 1-.88.316c-.152.021-.3.032-.444.032-.285 0-.55-.047-.796-.14a1.818 1.818 0 0 1-.64-.42 1.996 1.996 0 0 1-.428-.688 2.68 2.68 0 0 1-.156-.952c0-.28.045-.543.136-.788a1.83 1.83 0 0 1 1.008-1.08c.245-.107.521-.16.828-.16.259 0 .497.041.716.124.219.083.407.204.564.364.157.157.28.352.368.584.09.23.136.492.136.788 0 .15-.016.25-.048.304-.032.05-.093.076-.184.076h-2.54Z" fill="#FF9000"/><defs><linearGradient id="a" x1="15.5" y1=".5" x2="15.5" y2="11.5" gradientUnits="userSpaceOnUse"><stop/><stop offset="1" stop-opacity=".25"/></linearGradient><linearGradient id="b" x1="15.5" y1="12.5" x2="15.5" y2="23.5" gradientUnits="userSpaceOnUse"><stop/><stop offset="1" stop-opacity=".25"/></linearGradient></defs></svg>