<svg width="94" height="42" fill="none" xmlns="http://www.w3.org/2000/svg"><path d="M.5 3.5a3 3 0 0 1 3-3h87a3 3 0 0 1 3 3v7a3 3 0 0 1-3 3h-87a3 3 0 0 1-3-3v-7Z" fill="url(#a)"/><path d="M16.783 7.108c0 .424-.07.817-.212 1.18a2.75 2.75 0 0 1-.592.936c-.256.264-.564.47-.924.62-.36.147-.76.22-1.2.22-.437 0-.836-.073-1.196-.22a2.77 2.77 0 0 1-.928-.62 2.795 2.795 0 0 1-.596-.936 3.222 3.222 0 0 1-.212-1.18c0-.424.07-.816.212-1.176.141-.363.34-.676.596-.94a2.71 2.71 0 0 1 .928-.616c.36-.15.759-.224 1.196-.224.293 0 .57.035.828.104.259.067.496.163.712.288.216.123.41.273.58.452.173.176.32.373.44.592.12.219.21.456.272.712.064.256.096.525.096.808Zm-1.1 0c0-.317-.043-.601-.128-.852a1.828 1.828 0 0 0-.364-.644 1.554 1.554 0 0 0-.576-.404 1.96 1.96 0 0 0-.76-.14 1.99 1.99 0 0 0-.764.14 1.6 1.6 0 0 0-.576.404c-.157.176-.279.39-.364.644-.085.25-.128.535-.128.852 0 .317.043.603.128.856.085.25.207.464.364.64.16.173.352.307.576.4.227.093.481.14.764.14.283 0 .536-.047.76-.14.227-.093.419-.227.576-.4a1.84 1.84 0 0 0 .364-.64c.085-.253.128-.539.128-.856ZM17.693 10V6.64l-.356-.056a.45.45 0 0 1-.188-.08.212.212 0 0 1-.068-.168v-.404h.612V5.7c0-.235.035-.445.104-.632a1.35 1.35 0 0 1 .304-.476c.133-.13.295-.23.484-.3.19-.07.403-.104.64-.104.19 0 .365.025.528.076l-.02.492a.166.166 0 0 1-.032.092.183.183 0 0 1-.076.056.5.5 0 0 1-.104.024c-.04.003-.083.004-.128.004a1.15 1.15 0 0 0-.316.04.504.504 0 0 0-.232.132.597.597 0 0 0-.148.248 1.28 1.28 0 0 0-.048.38v.2h1.636v-.364c0-.235.035-.445.104-.632a1.35 1.35 0 0 1 .304-.476c.133-.13.295-.23.484-.3.19-.07.403-.104.64-.104.093 0 .183.007.268.02.088.01.175.028.26.052l-.024.496c-.005.077-.041.127-.108.148a.82.82 0 0 1-.228.028 1.15 1.15 0 0 0-.316.04.504.504 0 0 0-.232.132.597.597 0 0 0-.148.248 1.28 1.28 0 0 0-.048.38v.332h1.064v.704h-1.032V10h-.988V6.636h-1.604V10h-.988Z" fill="#FF9000"/><path opacity=".5" d="M32.5 2h-1v10h1V2Z" fill="#DBDBDB"/><path d="M47.767 7.108c0 .424-.07.817-.212 1.18a2.75 2.75 0 0 1-.592.936c-.256.264-.564.47-.924.62-.36.147-.76.22-1.2.22-.437 0-.836-.073-1.196-.22a2.77 2.77 0 0 1-.928-.62 2.795 2.795 0 0 1-.596-.936 3.22 3.22 0 0 1-.212-1.18c0-.424.07-.816.212-1.176.142-.363.34-.676.596-.94a2.71 2.71 0 0 1 .928-.616c.36-.15.759-.224 1.196-.224.294 0 .57.035.828.104.259.067.496.163.712.288.216.123.41.273.58.452.173.176.32.373.44.592.12.219.21.456.272.712.064.256.096.525.096.808Zm-1.1 0c0-.317-.043-.601-.128-.852a1.83 1.83 0 0 0-.364-.644 1.556 1.556 0 0 0-.576-.404 1.96 1.96 0 0 0-.76-.14 1.99 1.99 0 0 0-.764.14 1.6 1.6 0 0 0-.576.404c-.157.176-.279.39-.364.644-.085.25-.128.535-.128.852 0 .317.043.603.128.856.086.25.207.464.364.64.16.173.352.307.576.4.227.093.481.14.764.14.283 0 .536-.047.76-.14.227-.093.419-.227.576-.4.158-.176.279-.39.364-.64.085-.253.128-.539.128-.856ZM49.29 6.4c.083-.083.17-.159.26-.228a1.597 1.597 0 0 1 .624-.296c.117-.03.245-.044.384-.044.224 0 .422.039.596.116.173.075.317.181.432.32.117.136.205.3.264.492.061.19.092.399.092.628V10h-.988V7.388c0-.25-.057-.444-.172-.58-.115-.139-.29-.208-.524-.208-.17 0-.33.039-.48.116a1.72 1.72 0 0 0-.424.316V10h-.988V5.896h.604c.128 0 .212.06.252.18l.068.324Z" fill="#DBDBDB"/><path opacity=".5" d="M62.5 2h-1v10h1V2Z" fill="#DBDBDB"/><path d="M74.585 7.1v2.34a3.096 3.096 0 0 1-.94.476 3.698 3.698 0 0 1-1.064.148c-.472 0-.9-.073-1.284-.22a2.896 2.896 0 0 1-.98-.612 2.695 2.695 0 0 1-.624-.936 3.139 3.139 0 0 1-.22-1.188c0-.435.07-.833.212-1.196.141-.363.341-.675.6-.936.261-.261.577-.464.948-.608.37-.144.786-.216 1.248-.216.234 0 .453.019.656.056.205.037.394.09.568.156.176.064.336.143.48.236.144.093.276.196.396.308l-.308.488a.302.302 0 0 1-.188.144.343.343 0 0 1-.252-.06l-.264-.152a1.68 1.68 0 0 0-.296-.132 2.335 2.335 0 0 0-.364-.092 2.645 2.645 0 0 0-.464-.036 2.01 2.01 0 0 0-.776.144c-.23.096-.426.233-.588.412a1.857 1.857 0 0 0-.376.644c-.088.25-.132.53-.132.84 0 .33.046.627.14.888.096.259.229.479.4.66.173.179.381.316.624.412.242.093.513.14.812.14a2.2 2.2 0 0 0 .572-.068c.168-.045.332-.107.492-.184V7.908h-.728a.23.23 0 0 1-.164-.056.204.204 0 0 1-.056-.144V7.1h1.92Zm2.913 1.148a5.195 5.195 0 0 0-.72.076c-.195.035-.35.08-.468.136a.614.614 0 0 0-.252.196.426.426 0 0 0-.076.244c0 .173.05.297.152.372a.677.677 0 0 0 .404.112c.202 0 .377-.036.524-.108.15-.075.294-.187.436-.336v-.692Zm-2.264-1.78c.472-.432 1.04-.648 1.704-.648.24 0 .454.04.644.12.19.077.35.187.48.328.13.139.23.305.296.5.07.195.104.408.104.64V10h-.448a.472.472 0 0 1-.216-.04c-.05-.03-.09-.087-.12-.172l-.088-.296a3.91 3.91 0 0 1-.304.248c-.099.07-.202.128-.308.176a1.846 1.846 0 0 1-1.224.08 1.078 1.078 0 0 1-.38-.212.942.942 0 0 1-.248-.348 1.234 1.234 0 0 1-.088-.484.945.945 0 0 1 .22-.604 1.46 1.46 0 0 1 .308-.264c.125-.083.278-.155.46-.216.184-.061.397-.11.64-.148.242-.04.52-.064.832-.072v-.24c0-.275-.059-.477-.176-.608-.118-.133-.287-.2-.508-.2-.16 0-.294.019-.4.056a1.56 1.56 0 0 0-.276.128l-.22.124a.42.42 0 0 1-.216.056.292.292 0 0 1-.176-.052.477.477 0 0 1-.116-.128l-.176-.316Zm5.352 3.596c-.358 0-.632-.1-.824-.3-.19-.203-.284-.481-.284-.836V6.636h-.42a.192.192 0 0 1-.136-.052c-.038-.035-.056-.087-.056-.156v-.392l.66-.108.208-1.12a.219.219 0 0 1 .076-.124.226.226 0 0 1 .144-.044h.512v1.292h1.096v.704h-1.096V8.86c0 .128.03.228.092.3a.33.33 0 0 0 .26.108.488.488 0 0 0 .26-.068c.032-.016.06-.03.084-.044a.129.129 0 0 1 .072-.024c.029 0 .053.008.072.024a.286.286 0 0 1 .06.064l.296.48c-.144.12-.31.21-.496.272-.187.061-.38.092-.58.092Zm4.1-2.588a1.14 1.14 0 0 0-.055-.36.833.833 0 0 0-.16-.3.73.73 0 0 0-.276-.2.906.906 0 0 0-.384-.076c-.286 0-.51.081-.676.244-.163.163-.267.393-.312.692h1.864Zm-1.883.596c.016.21.053.393.112.548.058.152.136.279.232.38.096.099.21.173.34.224.133.048.28.072.44.072.16 0 .297-.019.412-.056a1.84 1.84 0 0 0 .304-.124c.088-.045.164-.087.228-.124a.393.393 0 0 1 .192-.056c.082 0 .144.03.184.092l.284.36c-.11.128-.232.236-.368.324a2.188 2.188 0 0 1-.88.316c-.152.021-.3.032-.444.032a2.22 2.22 0 0 1-.796-.14 1.817 1.817 0 0 1-.64-.42 1.994 1.994 0 0 1-.428-.688 2.679 2.679 0 0 1-.156-.952c0-.28.045-.543.136-.788a1.83 1.83 0 0 1 1.008-1.08c.245-.107.521-.16.828-.16.258 0 .497.041.716.124.218.083.406.204.564.364.157.157.28.352.368.584.09.23.136.492.136.788 0 .15-.016.25-.048.304-.032.05-.094.076-.184.076h-2.54Z" fill="#DBDBDB"/><path d="M.5 17.5a3 3 0 0 1 3-3h87a3 3 0 0 1 3 3v7a3 3 0 0 1-3 3h-87a3 3 0 0 1-3-3v-7Z" fill="url(#b)"/><path d="M16.783 21.108c0 .424-.07.817-.212 1.18a2.75 2.75 0 0 1-.592.936c-.256.264-.564.47-.924.62-.36.147-.76.22-1.2.22-.437 0-.836-.073-1.196-.22a2.77 2.77 0 0 1-.928-.62 2.795 2.795 0 0 1-.596-.936 3.223 3.223 0 0 1-.212-1.18c0-.424.07-.816.212-1.176.141-.363.34-.676.596-.94a2.71 2.71 0 0 1 .928-.616c.36-.15.759-.224 1.196-.224.293 0 .57.035.828.104.259.067.496.163.712.288.216.123.41.273.58.452.173.176.32.373.44.592.12.219.21.456.272.712.064.256.096.525.096.808Zm-1.1 0c0-.317-.043-.601-.128-.852a1.828 1.828 0 0 0-.364-.644 1.554 1.554 0 0 0-.576-.404 1.96 1.96 0 0 0-.76-.14 1.99 1.99 0 0 0-.764.14 1.6 1.6 0 0 0-.576.404c-.157.176-.279.39-.364.644-.085.25-.128.535-.128.852 0 .317.043.603.128.856.085.25.207.464.364.64.16.173.352.307.576.4.227.093.481.14.764.14.283 0 .536-.047.76-.14.227-.093.419-.227.576-.4a1.84 1.84 0 0 0 .364-.64c.085-.253.128-.539.128-.856ZM17.693 24v-3.36l-.356-.056a.451.451 0 0 1-.188-.08.212.212 0 0 1-.068-.168v-.404h.612V19.7c0-.235.035-.445.104-.632a1.35 1.35 0 0 1 .304-.476c.133-.13.295-.23.484-.3.19-.07.403-.104.64-.104.19 0 .365.025.528.076l-.02.492a.166.166 0 0 1-.032.092.183.183 0 0 1-.076.056.496.496 0 0 1-.104.024c-.04.003-.083.004-.128.004-.117 0-.223.013-.316.04a.504.504 0 0 0-.232.132.597.597 0 0 0-.148.248 1.28 1.28 0 0 0-.048.38v.2h1.636v-.364c0-.235.035-.445.104-.632a1.35 1.35 0 0 1 .304-.476c.133-.13.295-.23.484-.3.19-.07.403-.104.64-.104.093 0 .183.007.268.02.088.01.175.028.26.052l-.024.496c-.005.077-.041.127-.108.148a.819.819 0 0 1-.228.028c-.117 0-.223.013-.316.04a.504.504 0 0 0-.232.132.597.597 0 0 0-.148.248 1.28 1.28 0 0 0-.048.38v.332h1.064v.704h-1.032V24h-.988v-3.364h-1.604V24h-.988Z" fill="#DBDBDB"/><path opacity=".5" d="M32.5 16h-1v10h1V16Z" fill="#DBDBDB"/><path d="M47.767 21.108c0 .424-.07.817-.212 1.18a2.75 2.75 0 0 1-.592.936c-.256.264-.564.47-.924.62-.36.147-.76.22-1.2.22-.437 0-.836-.073-1.196-.22a2.77 2.77 0 0 1-.928-.62 2.795 2.795 0 0 1-.596-.936 3.22 3.22 0 0 1-.212-1.18c0-.424.07-.816.212-1.176.142-.363.34-.676.596-.94a2.71 2.71 0 0 1 .928-.616c.36-.15.759-.224 1.196-.224.294 0 .57.035.828.104.259.067.496.163.712.288.216.123.41.273.58.452.173.176.32.373.44.592.12.219.21.456.272.712.064.256.096.525.096.808Zm-1.1 0c0-.317-.043-.601-.128-.852a1.83 1.83 0 0 0-.364-.644 1.556 1.556 0 0 0-.576-.404 1.96 1.96 0 0 0-.76-.14 1.99 1.99 0 0 0-.764.14 1.6 1.6 0 0 0-.576.404c-.157.176-.279.39-.364.644-.085.25-.128.535-.128.852 0 .317.043.603.128.856.086.25.207.464.364.64.16.173.352.307.576.4.227.093.481.14.764.14.283 0 .536-.047.76-.14.227-.093.419-.227.576-.4.158-.176.279-.39.364-.64.085-.253.128-.539.128-.856Zm2.623-.708a2.6 2.6 0 0 1 .26-.228 1.597 1.597 0 0 1 .624-.296c.117-.03.245-.044.384-.044.224 0 .422.039.596.116.173.075.317.181.432.32.117.136.205.3.264.492.061.19.092.399.092.628V24h-.988v-2.612c0-.25-.057-.444-.172-.58-.115-.139-.29-.208-.524-.208-.17 0-.33.039-.48.116a1.72 1.72 0 0 0-.424.316V24h-.988v-4.104h.604c.128 0 .212.06.252.18l.068.324Z" fill="#FF9000"/><path opacity=".5" d="M62.5 16h-1v10h1V16Z" fill="#DBDBDB"/><path d="M74.585 21.1v2.34a3.096 3.096 0 0 1-.94.476 3.698 3.698 0 0 1-1.064.148c-.472 0-.9-.073-1.284-.22a2.897 2.897 0 0 1-.98-.612 2.695 2.695 0 0 1-.624-.936 3.14 3.14 0 0 1-.22-1.188c0-.435.07-.833.212-1.196.141-.363.341-.675.6-.936.261-.261.577-.464.948-.608.37-.144.786-.216 1.248-.216.234 0 .453.019.656.056.205.037.394.09.568.156.176.064.336.143.48.236.144.093.276.196.396.308l-.308.488a.302.302 0 0 1-.188.144.343.343 0 0 1-.252-.06l-.264-.152a1.676 1.676 0 0 0-.296-.132 2.339 2.339 0 0 0-.364-.092 2.645 2.645 0 0 0-.464-.036 2.01 2.01 0 0 0-.776.144c-.23.096-.426.233-.588.412a1.857 1.857 0 0 0-.376.644c-.088.25-.132.53-.132.84 0 .33.046.627.14.888.096.259.229.479.4.66.173.179.381.316.624.412.242.093.513.14.812.14.213 0 .404-.023.572-.068.168-.045.332-.107.492-.184v-1.048h-.728a.231.231 0 0 1-.164-.056.204.204 0 0 1-.056-.144V21.1h1.92Zm2.913 1.148a5.195 5.195 0 0 0-.72.076 1.87 1.87 0 0 0-.468.136.614.614 0 0 0-.252.196.426.426 0 0 0-.076.244c0 .173.05.297.152.372a.676.676 0 0 0 .404.112c.202 0 .377-.036.524-.108.15-.075.294-.187.436-.336v-.692Zm-2.264-1.78c.472-.432 1.04-.648 1.704-.648.24 0 .454.04.644.12.19.077.35.187.48.328.13.139.23.305.296.5.07.195.104.408.104.64V24h-.448a.471.471 0 0 1-.216-.04c-.05-.03-.09-.087-.12-.172l-.088-.296a3.917 3.917 0 0 1-.304.248c-.099.07-.202.128-.308.176a1.846 1.846 0 0 1-1.224.08 1.079 1.079 0 0 1-.38-.212.941.941 0 0 1-.248-.348 1.234 1.234 0 0 1-.088-.484.945.945 0 0 1 .22-.604c.08-.093.182-.181.308-.264.125-.083.278-.155.46-.216.184-.061.397-.11.64-.148.242-.04.52-.064.832-.072v-.24c0-.275-.059-.477-.176-.608-.118-.133-.287-.2-.508-.2-.16 0-.294.019-.4.056-.104.037-.196.08-.276.128l-.22.124a.421.421 0 0 1-.216.056.292.292 0 0 1-.176-.052.476.476 0 0 1-.116-.128l-.176-.316Zm5.352 3.596c-.358 0-.632-.1-.824-.3-.19-.203-.284-.481-.284-.836v-2.292h-.42a.192.192 0 0 1-.136-.052c-.038-.035-.056-.087-.056-.156v-.392l.66-.108.208-1.12a.219.219 0 0 1 .076-.124.226.226 0 0 1 .144-.044h.512v1.292h1.096v.704h-1.096v2.224c0 .128.03.228.092.3a.33.33 0 0 0 .26.108.49.49 0 0 0 .26-.068c.032-.016.06-.03.084-.044a.129.129 0 0 1 .072-.024c.029 0 .053.008.072.024a.286.286 0 0 1 .06.064l.296.48c-.144.12-.31.21-.496.272-.187.061-.38.092-.58.092Zm4.1-2.588a1.14 1.14 0 0 0-.055-.36.833.833 0 0 0-.16-.3.731.731 0 0 0-.276-.2.905.905 0 0 0-.384-.076c-.286 0-.51.081-.676.244-.163.163-.267.393-.312.692h1.864Zm-1.883.596c.016.21.053.393.112.548.058.152.136.279.232.38.096.099.21.173.34.224.133.048.28.072.44.072.16 0 .297-.019.412-.056a1.84 1.84 0 0 0 .304-.124c.088-.045.164-.087.228-.124a.393.393 0 0 1 .192-.056c.082 0 .144.03.184.092l.284.36c-.11.128-.232.236-.368.324a2.188 2.188 0 0 1-.88.316c-.152.021-.3.032-.444.032a2.22 2.22 0 0 1-.796-.14 1.817 1.817 0 0 1-.64-.42 1.995 1.995 0 0 1-.428-.688 2.68 2.68 0 0 1-.156-.952c0-.28.045-.543.136-.788a1.83 1.83 0 0 1 1.008-1.08c.245-.107.521-.16.828-.16.258 0 .497.041.716.124.218.083.406.204.564.364.157.157.28.352.368.584.09.23.136.492.136.788 0 .15-.016.25-.048.304-.032.05-.094.076-.184.076h-2.54Z" fill="#DBDBDB"/><path d="M.5 31.5a3 3 0 0 1 3-3h87a3 3 0 0 1 3 3v7a3 3 0 0 1-3 3h-87a3 3 0 0 1-3-3v-7Z" fill="url(#c)"/><path d="M16.783 35.108c0 .424-.07.817-.212 1.18a2.75 2.75 0 0 1-.592.936c-.256.264-.564.47-.924.62-.36.147-.76.22-1.2.22-.437 0-.836-.073-1.196-.22a2.77 2.77 0 0 1-.928-.62 2.795 2.795 0 0 1-.596-.936 3.223 3.223 0 0 1-.212-1.18c0-.424.07-.816.212-1.176.141-.363.34-.676.596-.94a2.71 2.71 0 0 1 .928-.616c.36-.15.759-.224 1.196-.224.293 0 .57.035.828.104.259.067.496.163.712.288.216.123.41.273.58.452.173.176.32.373.44.592.12.219.21.456.272.712.064.256.096.525.096.808Zm-1.1 0c0-.317-.043-.601-.128-.852a1.828 1.828 0 0 0-.364-.644 1.554 1.554 0 0 0-.576-.404 1.96 1.96 0 0 0-.76-.14 1.99 1.99 0 0 0-.764.14 1.6 1.6 0 0 0-.576.404c-.157.176-.279.39-.364.644-.085.25-.128.535-.128.852 0 .317.043.603.128.856.085.25.207.464.364.64.16.173.352.307.576.4.227.093.481.14.764.14.283 0 .536-.047.76-.14.227-.093.419-.227.576-.4a1.84 1.84 0 0 0 .364-.64c.085-.253.128-.539.128-.856ZM17.693 38v-3.36l-.356-.056a.451.451 0 0 1-.188-.08.212.212 0 0 1-.068-.168v-.404h.612V33.7c0-.235.035-.445.104-.632a1.35 1.35 0 0 1 .304-.476c.133-.13.295-.23.484-.3.19-.07.403-.104.64-.104.19 0 .365.025.528.076l-.02.492a.166.166 0 0 1-.032.092.183.183 0 0 1-.076.056.496.496 0 0 1-.104.024c-.04.003-.083.004-.128.004-.117 0-.223.013-.316.04a.504.504 0 0 0-.232.132.597.597 0 0 0-.148.248 1.28 1.28 0 0 0-.048.38v.2h1.636v-.364c0-.235.035-.445.104-.632a1.35 1.35 0 0 1 .304-.476c.133-.13.295-.23.484-.3.19-.07.403-.104.64-.104.093 0 .183.007.268.02.088.01.175.028.26.052l-.024.496c-.005.077-.041.127-.108.148a.819.819 0 0 1-.228.028c-.117 0-.223.013-.316.04a.504.504 0 0 0-.232.132.597.597 0 0 0-.148.248 1.28 1.28 0 0 0-.048.38v.332h1.064v.704h-1.032V38h-.988v-3.364h-1.604V38h-.988Z" fill="#DBDBDB"/><path opacity=".5" d="M32.5 30h-1v10h1V30Z" fill="#DBDBDB"/><path d="M47.767 35.108c0 .424-.07.817-.212 1.18a2.75 2.75 0 0 1-.592.936c-.256.264-.564.47-.924.62-.36.147-.76.22-1.2.22-.437 0-.836-.073-1.196-.22a2.77 2.77 0 0 1-.928-.62 2.795 2.795 0 0 1-.596-.936 3.22 3.22 0 0 1-.212-1.18c0-.424.07-.816.212-1.176.142-.363.34-.676.596-.94a2.71 2.71 0 0 1 .928-.616c.36-.15.759-.224 1.196-.224.294 0 .57.035.828.104.259.067.496.163.712.288.216.123.41.273.58.452.173.176.32.373.44.592.12.219.21.456.272.712.064.256.096.525.096.808Zm-1.1 0c0-.317-.043-.601-.128-.852a1.83 1.83 0 0 0-.364-.644 1.556 1.556 0 0 0-.576-.404 1.96 1.96 0 0 0-.76-.14 1.99 1.99 0 0 0-.764.14 1.6 1.6 0 0 0-.576.404c-.157.176-.279.39-.364.644-.085.25-.128.535-.128.852 0 .317.043.603.128.856.086.25.207.464.364.64.16.173.352.307.576.4.227.093.481.14.764.14.283 0 .536-.047.76-.14.227-.093.419-.227.576-.4.158-.176.279-.39.364-.64.085-.253.128-.539.128-.856Zm2.623-.708a2.6 2.6 0 0 1 .26-.228 1.597 1.597 0 0 1 .624-.296c.117-.03.245-.044.384-.044.224 0 .422.039.596.116.173.075.317.181.432.32.117.136.205.3.264.492.061.19.092.399.092.628V38h-.988v-2.612c0-.25-.057-.444-.172-.58-.115-.139-.29-.208-.524-.208-.17 0-.33.039-.48.116a1.72 1.72 0 0 0-.424.316V38h-.988v-4.104h.604c.128 0 .212.06.252.18l.068.324Z" fill="#DBDBDB"/><path opacity=".5" d="M62.5 30h-1v10h1V30Z" fill="#DBDBDB"/><path d="M74.585 35.1v2.34a3.096 3.096 0 0 1-.94.476 3.698 3.698 0 0 1-1.064.148c-.472 0-.9-.073-1.284-.22a2.897 2.897 0 0 1-.98-.612 2.695 2.695 0 0 1-.624-.936 3.14 3.14 0 0 1-.22-1.188c0-.435.07-.833.212-1.196.141-.363.341-.675.6-.936.261-.261.577-.464.948-.608.37-.144.786-.216 1.248-.216.234 0 .453.019.656.056.205.037.394.09.568.156.176.064.336.143.48.236.144.093.276.196.396.308l-.308.488a.302.302 0 0 1-.188.144.343.343 0 0 1-.252-.06l-.264-.152a1.676 1.676 0 0 0-.296-.132 2.339 2.339 0 0 0-.364-.092 2.645 2.645 0 0 0-.464-.036 2.01 2.01 0 0 0-.776.144c-.23.096-.426.233-.588.412a1.857 1.857 0 0 0-.376.644c-.088.25-.132.53-.132.84 0 .33.046.627.14.888.096.259.229.479.4.66.173.179.381.316.624.412.242.093.513.14.812.14.213 0 .404-.023.572-.068.168-.045.332-.107.492-.184v-1.048h-.728a.231.231 0 0 1-.164-.056.204.204 0 0 1-.056-.144V35.1h1.92Zm2.913 1.148a5.195 5.195 0 0 0-.72.076 1.87 1.87 0 0 0-.468.136.614.614 0 0 0-.252.196.426.426 0 0 0-.076.244c0 .173.05.297.152.372a.676.676 0 0 0 .404.112c.202 0 .377-.036.524-.108.15-.075.294-.187.436-.336v-.692Zm-2.264-1.78c.472-.432 1.04-.648 1.704-.648.24 0 .454.04.644.12.19.077.35.187.48.328.13.139.23.305.296.5.07.195.104.408.104.64V38h-.448a.471.471 0 0 1-.216-.04c-.05-.03-.09-.087-.12-.172l-.088-.296a3.917 3.917 0 0 1-.304.248c-.099.07-.202.128-.308.176a1.846 1.846 0 0 1-1.224.08 1.079 1.079 0 0 1-.38-.212.941.941 0 0 1-.248-.348 1.234 1.234 0 0 1-.088-.484.945.945 0 0 1 .22-.604c.08-.093.182-.181.308-.264.125-.083.278-.155.46-.216.184-.061.397-.11.64-.148.242-.04.52-.064.832-.072v-.24c0-.275-.059-.477-.176-.608-.118-.133-.287-.2-.508-.2-.16 0-.294.019-.4.056-.104.037-.196.08-.276.128l-.22.124a.421.421 0 0 1-.216.056.292.292 0 0 1-.176-.052.476.476 0 0 1-.116-.128l-.176-.316Zm5.352 3.596c-.358 0-.632-.1-.824-.3-.19-.203-.284-.481-.284-.836v-2.292h-.42a.192.192 0 0 1-.136-.052c-.038-.035-.056-.087-.056-.156v-.392l.66-.108.208-1.12a.219.219 0 0 1 .076-.124.226.226 0 0 1 .144-.044h.512v1.292h1.096v.704h-1.096v2.224c0 .128.03.228.092.3a.33.33 0 0 0 .26.108.49.49 0 0 0 .26-.068c.032-.016.06-.03.084-.044a.129.129 0 0 1 .072-.024c.029 0 .053.008.072.024a.286.286 0 0 1 .06.064l.296.48c-.144.12-.31.21-.496.272-.187.061-.38.092-.58.092Zm4.1-2.588a1.14 1.14 0 0 0-.055-.36.833.833 0 0 0-.16-.3.731.731 0 0 0-.276-.2.905.905 0 0 0-.384-.076c-.286 0-.51.081-.676.244-.163.163-.267.393-.312.692h1.864Zm-1.883.596c.016.21.053.393.112.548.058.152.136.279.232.38.096.099.21.173.34.224.133.048.28.072.44.072.16 0 .297-.019.412-.056a1.84 1.84 0 0 0 .304-.124c.088-.045.164-.087.228-.124a.393.393 0 0 1 .192-.056c.082 0 .144.03.184.092l.284.36c-.11.128-.232.236-.368.324a2.188 2.188 0 0 1-.88.316c-.152.021-.3.032-.444.032a2.22 2.22 0 0 1-.796-.14 1.817 1.817 0 0 1-.64-.42 1.995 1.995 0 0 1-.428-.688 2.68 2.68 0 0 1-.156-.952c0-.28.045-.543.136-.788a1.83 1.83 0 0 1 1.008-1.08c.245-.107.521-.16.828-.16.258 0 .497.041.716.124.218.083.406.204.564.364.157.157.28.352.368.584.09.23.136.492.136.788 0 .15-.016.25-.048.304-.032.05-.094.076-.184.076h-2.54Z" fill="#FF9000"/><defs><linearGradient id="a" x1="47" y1=".5" x2="47" y2="13.5" gradientUnits="userSpaceOnUse"><stop/><stop offset="1" stop-opacity=".25"/></linearGradient><linearGradient id="b" x1="47" y1="14.5" x2="47" y2="27.5" gradientUnits="userSpaceOnUse"><stop/><stop offset="1" stop-opacity=".25"/></linearGradient><linearGradient id="c" x1="47" y1="28.5" x2="47" y2="41.5" gradientUnits="userSpaceOnUse"><stop/><stop offset="1" stop-opacity=".25"/></linearGradient></defs></svg>