<svg width="51" height="117" fill="none" xmlns="http://www.w3.org/2000/svg"><path d="M.5 3.5a3 3 0 0 1 3-3h44a3 3 0 0 1 3 3v32a3 3 0 0 1-3 3h-44a3 3 0 0 1-3-3v-32Z" fill="url(#a)"/><path d="M13.764 5.072v1.712h2.168v.86h-2.168V10h-1.08V4.216h3.648v.856h-2.568Zm3.787 1.536c.128-.246.28-.438.456-.576a.966.966 0 0 1 .623-.212c.19 0 .342.041.457.124l-.064.74a.195.195 0 0 1-.06.104.16.16 0 0 1-.1.028c-.04 0-.1-.007-.18-.02a1.34 1.34 0 0 0-.229-.02.74.74 0 0 0-.524.188.973.973 0 0 0-.18.216 2.31 2.31 0 0 0-.143.292V10h-.988V5.896h.58c.1 0 .171.018.211.056.04.034.067.098.08.192l.06.464Zm4.459.868a1.14 1.14 0 0 0-.056-.36.833.833 0 0 0-.16-.3.73.73 0 0 0-.276-.2.905.905 0 0 0-.384-.076c-.286 0-.511.081-.676.244-.163.162-.267.393-.312.692h1.864Zm-1.884.596c.016.21.053.393.112.548.058.152.136.278.232.38a.955.955 0 0 0 .34.224c.133.048.28.072.44.072.16 0 .297-.019.412-.056a1.84 1.84 0 0 0 .304-.124c.088-.046.164-.087.228-.124a.394.394 0 0 1 .192-.056c.082 0 .144.03.184.092l.284.36a1.69 1.69 0 0 1-.368.324 2.188 2.188 0 0 1-.88.316c-.152.021-.3.032-.444.032-.286 0-.551-.047-.796-.14a1.818 1.818 0 0 1-.64-.42 1.996 1.996 0 0 1-.428-.688 2.679 2.679 0 0 1-.156-.952c0-.28.045-.543.136-.788a1.83 1.83 0 0 1 1.008-1.08c.245-.107.521-.16.828-.16.258 0 .497.041.716.124.218.082.406.204.564.364.157.157.28.352.368.584.09.23.136.492.136.788 0 .15-.016.25-.048.304-.032.05-.094.076-.184.076h-2.54Zm6.037-.596c0-.128-.018-.248-.056-.36a.833.833 0 0 0-.16-.3.73.73 0 0 0-.276-.2.906.906 0 0 0-.384-.076c-.285 0-.51.081-.676.244-.163.162-.267.393-.312.692h1.864Zm-1.884.596c.016.21.053.393.112.548.059.152.136.278.232.38.096.098.21.173.34.224.133.048.28.072.44.072.16 0 .298-.019.412-.056.117-.038.219-.079.304-.124.088-.046.164-.087.228-.124a.393.393 0 0 1 .192-.056c.083 0 .144.03.184.092l.284.36c-.11.128-.232.236-.368.324a2.188 2.188 0 0 1-.88.316c-.152.021-.3.032-.444.032-.285 0-.55-.047-.796-.14a1.817 1.817 0 0 1-.64-.42 1.994 1.994 0 0 1-.428-.688 2.679 2.679 0 0 1-.156-.952c0-.28.045-.543.136-.788a1.84 1.84 0 0 1 1.008-1.08c.245-.107.521-.16.828-.16.259 0 .498.041.716.124.219.082.407.204.564.364.157.157.28.352.368.584.09.23.136.492.136.788 0 .15-.016.25-.048.304-.032.05-.093.076-.184.076h-2.54Zm4.326-1.464c.128-.246.28-.438.456-.576a.966.966 0 0 1 .624-.212c.189 0 .34.041.456.124l-.064.74a.195.195 0 0 1-.06.104.16.16 0 0 1-.1.028c-.04 0-.1-.007-.18-.02a1.34 1.34 0 0 0-.228-.02.74.74 0 0 0-.524.188.967.967 0 0 0-.18.216c-.051.085-.1.182-.144.292V10h-.988V5.896h.58c.1 0 .172.018.212.056.04.034.066.098.08.192l.06.464Zm5.468-.712V10h-.604c-.13 0-.213-.06-.248-.18l-.068-.328a2.24 2.24 0 0 1-.556.416 1.55 1.55 0 0 1-.716.156c-.224 0-.423-.037-.596-.112a1.213 1.213 0 0 1-.432-.324 1.437 1.437 0 0 1-.268-.492 2.154 2.154 0 0 1-.088-.632V5.896h.988v2.608c0 .25.057.445.172.584.117.136.292.204.524.204.17 0 .33-.038.48-.112.15-.078.29-.183.424-.316V5.896h.988Zm1.784.504c.082-.083.169-.159.26-.228a1.597 1.597 0 0 1 .624-.296c.117-.03.245-.044.384-.044.224 0 .422.038.596.116.173.074.317.181.432.32.117.136.205.3.264.492.06.19.092.398.092.628V10h-.988V7.388c0-.25-.058-.444-.172-.58-.115-.139-.29-.208-.524-.208-.171 0-.331.038-.48.116a1.72 1.72 0 0 0-.424.316V10h-.988V5.896h.604c.128 0 .212.06.252.18l.068.324Z" fill="#FF9000"/><path d="M9.166 19.14h.252a.683.683 0 0 0 .252-.04.444.444 0 0 0 .172-.136l1.596-2.02a.565.565 0 0 1 .208-.176.664.664 0 0 1 .28-.052h.928l-1.948 2.404c-.115.147-.234.25-.356.312a.769.769 0 0 1 .236.136c.072.056.14.13.204.224l2.008 2.708h-.948a.623.623 0 0 1-.288-.052.471.471 0 0 1-.156-.16L9.97 20.152A.428.428 0 0 0 9.794 20a.741.741 0 0 0-.288-.044h-.34V22.5H8.09v-5.784h1.076v2.424Zm6.48.836c0-.128-.02-.248-.057-.36a.833.833 0 0 0-.16-.3.731.731 0 0 0-.276-.2.905.905 0 0 0-.384-.076c-.285 0-.51.081-.676.244-.162.163-.266.393-.312.692h1.864Zm-1.885.596c.016.21.054.393.112.548.059.152.136.279.232.38.096.099.21.173.34.224.134.048.28.072.44.072.16 0 .298-.019.412-.056.118-.037.219-.079.304-.124.088-.045.164-.087.228-.124a.393.393 0 0 1 .192-.056c.083 0 .144.03.184.092l.284.36a1.683 1.683 0 0 1-.368.324 2.188 2.188 0 0 1-.88.316c-.152.021-.3.032-.444.032a2.22 2.22 0 0 1-.796-.14 1.817 1.817 0 0 1-.64-.42 1.995 1.995 0 0 1-.428-.688 2.68 2.68 0 0 1-.156-.952c0-.28.046-.543.136-.788.091-.248.22-.463.388-.644a1.85 1.85 0 0 1 .62-.436c.246-.107.522-.16.828-.16.259 0 .498.041.716.124.219.083.407.204.564.364.158.157.28.352.368.584.091.23.136.492.136.788 0 .15-.016.25-.048.304-.032.05-.093.076-.184.076h-2.54Zm7.005-2.176-2.236 5.232a.359.359 0 0 1-.116.156c-.046.037-.116.056-.212.056h-.736l.768-1.648-1.66-3.796h.868c.077 0 .137.019.18.056a.35.35 0 0 1 .1.128l.872 2.128c.029.072.053.144.072.216l.06.22.072-.22c.024-.075.05-.148.08-.22l.824-2.124a.29.29 0 0 1 .272-.184h.792Zm1.738 4.168c-.357 0-.632-.1-.824-.3-.189-.203-.284-.481-.284-.836v-2.292h-.42a.192.192 0 0 1-.136-.052c-.037-.035-.056-.087-.056-.156v-.392l.66-.108.208-1.12a.219.219 0 0 1 .076-.124.226.226 0 0 1 .144-.044h.512v1.292h1.096v.704h-1.096v2.224a.45.45 0 0 0 .092.3.33.33 0 0 0 .26.108.49.49 0 0 0 .26-.068c.032-.016.06-.03.084-.044a.129.129 0 0 1 .072-.024c.03 0 .054.008.072.024a.286.286 0 0 1 .06.064l.296.48c-.144.12-.309.21-.496.272-.186.061-.38.092-.58.092Zm2.42-3.456c.129-.245.28-.437.457-.576a.966.966 0 0 1 .624-.212.76.76 0 0 1 .456.124l-.064.74a.195.195 0 0 1-.06.104.159.159 0 0 1-.1.028c-.04 0-.1-.007-.18-.02a1.343 1.343 0 0 0-.228-.02.74.74 0 0 0-.524.188.969.969 0 0 0-.18.216c-.05.085-.099.183-.144.292V22.5h-.988v-4.104h.58c.101 0 .172.019.212.056.04.035.067.099.08.192l.06.464Zm2.957-.712V22.5h-.992v-4.104h.992Zm.136-1.196a.563.563 0 0 1-.052.24.642.642 0 0 1-.14.196.664.664 0 0 1-.2.136.642.642 0 0 1-.492 0 .679.679 0 0 1-.332-.332.642.642 0 0 1 0-.488.619.619 0 0 1 .332-.332.599.599 0 0 1 .492 0 .63.63 0 0 1 .392.58Zm2.252 3.148a.966.966 0 0 0 .32-.048.628.628 0 0 0 .224-.14.536.536 0 0 0 .136-.212.747.747 0 0 0 .047-.272c0-.203-.06-.363-.183-.48-.12-.12-.302-.18-.544-.18-.243 0-.426.06-.548.18-.12.117-.18.277-.18.48a.647.647 0 0 0 .18.484.674.674 0 0 0 .227.14c.094.032.2.048.32.048Zm1.116 2.336a.273.273 0 0 0-.073-.196.457.457 0 0 0-.196-.116c-.082-.03-.18-.05-.291-.064a15.121 15.121 0 0 0-.736-.048 4.463 4.463 0 0 1-.384-.032.954.954 0 0 0-.268.216.446.446 0 0 0-.049.488.465.465 0 0 0 .172.164c.08.045.183.08.309.104.125.027.278.04.46.04.183 0 .342-.015.476-.044.133-.027.242-.065.328-.116a.477.477 0 0 0 .192-.176.42.42 0 0 0 .06-.22Zm.983-4.148v.368c0 .117-.07.19-.212.216l-.367.068c.055.141.083.296.083.464a1.216 1.216 0 0 1-.46.968 1.61 1.61 0 0 1-.511.268 2.093 2.093 0 0 1-.633.092c-.08 0-.157-.004-.232-.012a2.933 2.933 0 0 1-.22-.032c-.127.077-.191.164-.191.26 0 .083.037.144.111.184.078.037.18.064.305.08s.267.027.427.032c.16.003.325.01.492.024.168.013.332.037.492.072.16.032.303.084.428.156.126.072.226.17.3.296a.88.88 0 0 1 .117.476c0 .181-.046.357-.136.528a1.4 1.4 0 0 1-.389.456c-.167.133-.375.24-.623.32a2.624 2.624 0 0 1-.84.124c-.31 0-.58-.03-.809-.092a1.859 1.859 0 0 1-.572-.24 1.019 1.019 0 0 1-.34-.344.812.812 0 0 1-.111-.408c0-.192.057-.352.171-.48.118-.13.278-.235.48-.312a.69.69 0 0 1-.26-.224.639.639 0 0 1-.095-.368c0-.061.01-.124.032-.188a.91.91 0 0 1 .1-.196 1.099 1.099 0 0 1 .404-.336 1.31 1.31 0 0 1-.492-.448 1.207 1.207 0 0 1-.177-.656c0-.203.04-.385.12-.548a1.24 1.24 0 0 1 .34-.42c.147-.117.32-.207.516-.268.2-.061.418-.092.652-.092.177 0 .342.019.497.056.154.035.296.087.424.156h1.18Zm2 1.812a.966.966 0 0 0 .32-.048.63.63 0 0 0 .223-.14.538.538 0 0 0 .136-.212.747.747 0 0 0 .048-.272c0-.203-.061-.363-.184-.48-.12-.12-.301-.18-.544-.18-.242 0-.425.06-.548.18-.12.117-.18.277-.18.48 0 .096.015.185.044.268a.645.645 0 0 0 .136.216.672.672 0 0 0 .228.14c.094.032.2.048.32.048Zm1.115 2.336a.273.273 0 0 0-.072-.196.457.457 0 0 0-.196-.116 1.35 1.35 0 0 0-.292-.064 15.17 15.17 0 0 0-.736-.048 4.456 4.456 0 0 1-.384-.032.952.952 0 0 0-.268.216.445.445 0 0 0-.048.488.464.464 0 0 0 .172.164c.08.045.183.08.308.104.126.027.279.04.46.04.184 0 .343-.015.476-.044.134-.027.243-.065.328-.116a.477.477 0 0 0 .192-.176.42.42 0 0 0 .06-.22Zm.984-4.148v.368c0 .117-.07.19-.212.216l-.368.068c.056.141.084.296.084.464a1.216 1.216 0 0 1-.46.968 1.61 1.61 0 0 1-.512.268 2.094 2.094 0 0 1-.632.092c-.08 0-.157-.004-.232-.012a2.925 2.925 0 0 1-.22-.032c-.128.077-.192.164-.192.26 0 .083.038.144.112.184a1 1 0 0 0 .304.08c.126.016.268.027.428.032.16.003.324.01.492.024.168.013.332.037.492.072.16.032.303.084.428.156a.82.82 0 0 1 .3.296.88.88 0 0 1 .116.476c0 .181-.045.357-.136.528-.088.17-.217.323-.388.456a1.97 1.97 0 0 1-.624.32 2.624 2.624 0 0 1-.84.124c-.309 0-.578-.03-.808-.092a1.859 1.859 0 0 1-.572-.24 1.019 1.019 0 0 1-.34-.344.811.811 0 0 1-.112-.408c0-.192.058-.352.172-.48a1.21 1.21 0 0 1 .48-.312.69.69 0 0 1-.26-.224.639.639 0 0 1-.096-.368c0-.061.011-.124.032-.188a.905.905 0 0 1 .1-.196 1.096 1.096 0 0 1 .404-.336 1.31 1.31 0 0 1-.492-.448 1.207 1.207 0 0 1-.176-.656c0-.203.04-.385.12-.548a1.24 1.24 0 0 1 .34-.42c.147-.117.319-.207.516-.268.2-.061.418-.092.652-.092.176 0 .342.019.496.056.155.035.296.087.424.156h1.18Zm3.08 1.44a1.13 1.13 0 0 0-.055-.36.831.831 0 0 0-.16-.3.731.731 0 0 0-.276-.2.905.905 0 0 0-.384-.076c-.286 0-.511.081-.676.244-.163.163-.267.393-.313.692h1.864Zm-1.883.596c.015.21.053.393.111.548.06.152.136.279.233.38a.934.934 0 0 0 .34.224c.133.048.28.072.44.072.16 0 .297-.019.412-.056.117-.037.218-.079.303-.124.089-.045.164-.087.228-.124a.394.394 0 0 1 .192-.056c.083 0 .145.03.184.092l.285.36a1.69 1.69 0 0 1-.369.324 2.186 2.186 0 0 1-.88.316c-.151.021-.3.032-.444.032-.285 0-.55-.047-.795-.14a1.818 1.818 0 0 1-.64-.42 1.996 1.996 0 0 1-.428-.688 2.68 2.68 0 0 1-.157-.952c0-.28.046-.543.136-.788a1.83 1.83 0 0 1 1.009-1.08c.245-.107.52-.16.828-.16.258 0 .497.041.715.124.22.083.407.204.565.364.157.157.28.352.367.584.091.23.136.492.136.788 0 .15-.016.25-.047.304-.032.05-.094.076-.184.076h-2.54Zm4.325-1.464c.128-.245.28-.437.456-.576a.966.966 0 0 1 .624-.212.76.76 0 0 1 .456.124l-.064.74a.197.197 0 0 1-.06.104.16.16 0 0 1-.1.028c-.04 0-.1-.007-.18-.02a1.345 1.345 0 0 0-.228-.02.739.739 0 0 0-.524.188.969.969 0 0 0-.18.216c-.05.085-.099.183-.144.292V22.5h-.988v-4.104h.58c.101 0 .172.019.212.056.04.035.067.099.08.192l.06.464Zm-28.543 13.36c.203 0 .379-.025.528-.076.152-.05.276-.12.372-.208a.85.85 0 0 0 .22-.32 1.1 1.1 0 0 0 .072-.404c0-.293-.097-.518-.292-.676-.192-.157-.486-.236-.884-.236h-.688v1.92h.672Zm2.768 3.032h-.972c-.184 0-.317-.072-.4-.216l-1.216-1.852a.42.42 0 0 0-.152-.148.513.513 0 0 0-.24-.044h-.46v2.26h-1.076v-5.784h1.764c.392 0 .728.041 1.008.124.283.08.513.194.692.34.181.147.315.323.4.528.086.203.128.427.128.672 0 .195-.03.379-.088.552a1.625 1.625 0 0 1-.648.844c-.157.107-.337.19-.54.252.07.04.133.088.192.144a.953.953 0 0 1 .16.192l1.448 2.136Zm2.454-1.752a5.198 5.198 0 0 0-.72.076c-.194.035-.35.08-.468.136a.615.615 0 0 0-.252.196.426.426 0 0 0-.076.244c0 .174.051.297.152.372a.677.677 0 0 0 .404.112c.203 0 .378-.036.524-.108.15-.075.295-.187.436-.336v-.692Zm-2.264-1.78c.472-.432 1.04-.648 1.704-.648.24 0 .455.04.644.12.19.077.35.187.48.328.131.139.23.306.296.5.07.195.104.408.104.64V35.5h-.448a.472.472 0 0 1-.216-.04c-.05-.03-.09-.087-.12-.172l-.088-.296a3.898 3.898 0 0 1-.304.248c-.098.07-.201.128-.308.176a1.845 1.845 0 0 1-1.224.08 1.08 1.08 0 0 1-.38-.212.943.943 0 0 1-.248-.348 1.236 1.236 0 0 1-.088-.484.947.947 0 0 1 .22-.604 1.49 1.49 0 0 1 .308-.264 1.99 1.99 0 0 1 .46-.216c.184-.061.398-.11.64-.148.243-.04.52-.064.832-.072v-.24c0-.275-.058-.477-.176-.608-.117-.133-.286-.2-.508-.2-.16 0-.293.019-.4.056a1.61 1.61 0 0 0-.276.128l-.22.124a.421.421 0 0 1-.216.056.292.292 0 0 1-.176-.052.478.478 0 0 1-.116-.128l-.176-.316Zm4.963-.068a2.61 2.61 0 0 1 .26-.228 1.6 1.6 0 0 1 .624-.296c.117-.03.245-.044.384-.044.224 0 .422.039.596.116.173.075.317.181.432.32.117.136.205.3.264.492.061.19.092.399.092.628V35.5h-.988v-2.612c0-.25-.057-.444-.172-.58-.115-.139-.29-.208-.524-.208-.17 0-.33.039-.48.116-.15.078-.29.183-.424.316V35.5h-.988v-4.104h.604c.128 0 .212.06.252.18l.068.324Zm6.047.544a.968.968 0 0 0-.792-.372.944.944 0 0 0-.404.084.806.806 0 0 0-.308.256 1.2 1.2 0 0 0-.195.432 2.453 2.453 0 0 0-.069.616c0 .24.02.444.056.612.04.165.096.301.168.408.072.104.16.18.264.228.104.046.22.068.349.068.205 0 .38-.043.523-.128a1.56 1.56 0 0 0 .409-.364v-1.84Zm.988-2.888V35.5h-.604c-.13 0-.213-.06-.247-.18l-.084-.396c-.166.19-.357.343-.572.46a1.528 1.528 0 0 1-.748.176 1.36 1.36 0 0 1-.616-.14 1.398 1.398 0 0 1-.484-.404 2.02 2.02 0 0 1-.313-.66 3.381 3.381 0 0 1-.108-.896c0-.304.042-.587.124-.848.083-.261.202-.488.357-.68.154-.192.34-.341.556-.448a1.59 1.59 0 0 1 .727-.164c.23 0 .426.036.588.108.163.072.308.17.436.292v-2.164h.988Zm2.671 1.776c.305 0 .58.05.828.148a1.795 1.795 0 0 1 1.052 1.084c.096.261.144.553.144.876 0 .326-.047.619-.144.88a1.87 1.87 0 0 1-.412.668 1.77 1.77 0 0 1-.64.424 2.221 2.221 0 0 1-.828.148c-.306 0-.585-.05-.835-.148a1.81 1.81 0 0 1-.645-.424 1.95 1.95 0 0 1-.412-.668 2.538 2.538 0 0 1-.143-.88c0-.322.047-.614.143-.876.1-.261.236-.483.412-.664.18-.181.394-.321.645-.42.25-.099.529-.148.835-.148Zm0 3.468c.342 0 .594-.114.756-.344.166-.23.248-.565.248-1.008 0-.443-.082-.78-.247-1.012-.163-.232-.415-.348-.756-.348-.347 0-.605.117-.773.352-.165.232-.247.568-.247 1.008 0 .44.082.776.248 1.008.168.23.425.344.771.344Zm2.658.7v-4.104h.604c.128 0 .212.06.252.18l.064.304c.072-.08.147-.153.224-.22a1.344 1.344 0 0 1 .88-.328c.259 0 .47.07.636.212.168.139.294.324.376.556a1.285 1.285 0 0 1 .556-.588c.115-.061.236-.107.364-.136.13-.03.262-.044.392-.044.227 0 .428.035.604.104.176.07.324.17.444.304.12.134.21.296.272.488.064.192.096.412.096.66V35.5h-.988v-2.612c0-.261-.057-.457-.172-.588-.114-.133-.282-.2-.504-.2a.682.682 0 0 0-.512.204.678.678 0 0 0-.152.244.955.955 0 0 0-.056.34V35.5h-.992v-2.612c0-.274-.056-.474-.168-.6-.11-.125-.27-.188-.484-.188a.798.798 0 0 0-.404.108c-.122.07-.237.166-.344.288V35.5h-.988Z" fill="#DBDBDB"/><path d="M.5 42.5a3 3 0 0 1 3-3h44a3 3 0 0 1 3 3v32a3 3 0 0 1-3 3h-44a3 3 0 0 1-3-3v-32Z" fill="url(#b)"/><path d="M13.764 44.072v1.712h2.168v.86h-2.168V49h-1.08v-5.784h3.648v.856h-2.568Zm3.787 1.536c.128-.245.28-.438.456-.576a.966.966 0 0 1 .623-.212c.19 0 .342.041.457.124l-.064.74a.195.195 0 0 1-.06.104.159.159 0 0 1-.1.028c-.04 0-.1-.007-.18-.02a1.343 1.343 0 0 0-.229-.02.741.741 0 0 0-.524.188.974.974 0 0 0-.18.216 2.31 2.31 0 0 0-.143.292V49h-.988v-4.104h.58c.1 0 .171.018.211.056.04.035.067.099.08.192l.06.464Zm4.459.868a1.14 1.14 0 0 0-.056-.36.833.833 0 0 0-.16-.3.731.731 0 0 0-.276-.2.905.905 0 0 0-.384-.076c-.286 0-.511.081-.676.244-.163.163-.267.393-.312.692h1.864Zm-1.884.596c.016.21.053.393.112.548.058.152.136.279.232.38a.942.942 0 0 0 .34.224c.133.048.28.072.44.072.16 0 .297-.019.412-.056a1.84 1.84 0 0 0 .304-.124c.088-.045.164-.087.228-.124a.394.394 0 0 1 .192-.056c.082 0 .144.03.184.092l.284.36a1.69 1.69 0 0 1-.368.324 2.188 2.188 0 0 1-.88.316c-.152.021-.3.032-.444.032a2.22 2.22 0 0 1-.796-.14 1.818 1.818 0 0 1-.64-.42 1.996 1.996 0 0 1-.428-.688 2.68 2.68 0 0 1-.156-.952c0-.28.045-.543.136-.788a1.83 1.83 0 0 1 1.008-1.08c.245-.107.521-.16.828-.16.258 0 .497.041.716.124.218.082.406.204.564.364.157.157.28.352.368.584.09.23.136.492.136.788 0 .15-.016.25-.048.304-.032.05-.094.076-.184.076h-2.54Zm6.037-.596c0-.128-.018-.248-.056-.36a.833.833 0 0 0-.16-.3.731.731 0 0 0-.276-.2.905.905 0 0 0-.384-.076c-.285 0-.51.081-.676.244-.163.163-.267.393-.312.692h1.864Zm-1.884.596c.016.21.053.393.112.548.059.152.136.279.232.38.096.099.21.173.34.224.133.048.28.072.44.072.16 0 .298-.019.412-.056.117-.038.219-.079.304-.124.088-.045.164-.087.228-.124a.393.393 0 0 1 .192-.056c.083 0 .144.03.184.092l.284.36c-.11.128-.232.236-.368.324a2.188 2.188 0 0 1-.88.316c-.152.021-.3.032-.444.032a2.22 2.22 0 0 1-.796-.14 1.817 1.817 0 0 1-.64-.42 1.995 1.995 0 0 1-.428-.688 2.68 2.68 0 0 1-.156-.952c0-.28.045-.543.136-.788a1.84 1.84 0 0 1 1.008-1.08c.245-.107.521-.16.828-.16.259 0 .498.041.716.124.219.082.407.204.564.364.157.157.28.352.368.584.09.23.136.492.136.788 0 .15-.016.25-.048.304-.032.05-.093.076-.184.076h-2.54Zm4.326-1.464c.128-.245.28-.438.456-.576a.966.966 0 0 1 .624-.212c.189 0 .34.041.456.124l-.064.74a.195.195 0 0 1-.06.104.159.159 0 0 1-.1.028c-.04 0-.1-.007-.18-.02a1.343 1.343 0 0 0-.228-.02.74.74 0 0 0-.524.188.969.969 0 0 0-.18.216c-.051.085-.1.182-.144.292V49h-.988v-4.104h.58c.1 0 .172.018.212.056.04.035.066.099.08.192l.06.464Zm5.468-.712V49h-.604c-.13 0-.213-.06-.248-.18l-.068-.328a2.24 2.24 0 0 1-.556.416 1.55 1.55 0 0 1-.716.156c-.224 0-.423-.038-.596-.112a1.213 1.213 0 0 1-.432-.324 1.437 1.437 0 0 1-.268-.492 2.154 2.154 0 0 1-.088-.632v-2.608h.988v2.608c0 .25.057.445.172.584.117.136.292.204.524.204.17 0 .33-.038.48-.112.15-.078.29-.183.424-.316v-2.968h.988Zm1.784.504a2.6 2.6 0 0 1 .26-.228 1.597 1.597 0 0 1 .624-.296c.117-.03.245-.044.384-.044.224 0 .422.038.596.116.173.075.317.181.432.32.117.136.205.3.264.492.06.19.092.398.092.628V49h-.988v-2.612c0-.25-.058-.444-.172-.58-.115-.139-.29-.208-.524-.208-.171 0-.331.038-.48.116a1.72 1.72 0 0 0-.424.316V49h-.988v-4.104h.604c.128 0 .212.06.252.18l.068.324Z" fill="#DBDBDB"/><path d="M9.166 58.14h.252a.683.683 0 0 0 .252-.04.444.444 0 0 0 .172-.136l1.596-2.02a.565.565 0 0 1 .208-.176.664.664 0 0 1 .28-.052h.928l-1.948 2.404c-.115.147-.234.25-.356.312a.769.769 0 0 1 .236.136c.072.056.14.13.204.224l2.008 2.708h-.948a.623.623 0 0 1-.288-.052.471.471 0 0 1-.156-.16L9.97 59.152A.428.428 0 0 0 9.794 59a.741.741 0 0 0-.288-.044h-.34V61.5H8.09v-5.784h1.076v2.424Zm6.48.836c0-.128-.02-.248-.057-.36a.833.833 0 0 0-.16-.3.731.731 0 0 0-.276-.2.905.905 0 0 0-.384-.076c-.285 0-.51.081-.676.244-.162.163-.266.393-.312.692h1.864Zm-1.885.596c.016.21.054.393.112.548.059.152.136.279.232.38.096.099.21.173.34.224.134.048.28.072.44.072.16 0 .298-.019.412-.056.118-.037.219-.079.304-.124.088-.045.164-.087.228-.124a.393.393 0 0 1 .192-.056c.083 0 .144.03.184.092l.284.36a1.683 1.683 0 0 1-.368.324 2.188 2.188 0 0 1-.88.316c-.152.021-.3.032-.444.032a2.22 2.22 0 0 1-.796-.14 1.817 1.817 0 0 1-.64-.42 1.995 1.995 0 0 1-.428-.688 2.68 2.68 0 0 1-.156-.952c0-.28.046-.543.136-.788.091-.248.22-.463.388-.644a1.85 1.85 0 0 1 .62-.436c.246-.107.522-.16.828-.16.259 0 .498.041.716.124.219.083.407.204.564.364.158.157.28.352.368.584.091.23.136.492.136.788 0 .15-.016.25-.048.304-.032.05-.093.076-.184.076h-2.54Zm7.005-2.176-2.236 5.232a.359.359 0 0 1-.116.156c-.046.037-.116.056-.212.056h-.736l.768-1.648-1.66-3.796h.868c.077 0 .137.019.18.056a.35.35 0 0 1 .1.128l.872 2.128c.029.072.053.144.072.216l.06.22.072-.22c.024-.075.05-.148.08-.22l.824-2.124a.29.29 0 0 1 .272-.184h.792Zm1.738 4.168c-.357 0-.632-.1-.824-.3-.189-.203-.284-.481-.284-.836v-2.292h-.42a.192.192 0 0 1-.136-.052c-.037-.035-.056-.087-.056-.156v-.392l.66-.108.208-1.12a.219.219 0 0 1 .076-.124.226.226 0 0 1 .144-.044h.512v1.292h1.096v.704h-1.096v2.224a.45.45 0 0 0 .092.3.33.33 0 0 0 .26.108.49.49 0 0 0 .26-.068c.032-.016.06-.03.084-.044a.129.129 0 0 1 .072-.024c.03 0 .054.008.072.024a.286.286 0 0 1 .06.064l.296.48c-.144.12-.309.21-.496.272-.186.061-.38.092-.58.092Zm2.42-3.456c.129-.245.28-.437.457-.576a.966.966 0 0 1 .624-.212.76.76 0 0 1 .456.124l-.064.74a.195.195 0 0 1-.06.104.159.159 0 0 1-.1.028c-.04 0-.1-.007-.18-.02a1.343 1.343 0 0 0-.228-.02.74.74 0 0 0-.524.188.969.969 0 0 0-.18.216c-.05.085-.099.183-.144.292V61.5h-.988v-4.104h.58c.101 0 .172.019.212.056.04.035.067.099.08.192l.06.464Zm2.957-.712V61.5h-.992v-4.104h.992Zm.136-1.196a.563.563 0 0 1-.052.24.642.642 0 0 1-.14.196.664.664 0 0 1-.2.136.642.642 0 0 1-.492 0 .679.679 0 0 1-.332-.332.642.642 0 0 1 0-.488.619.619 0 0 1 .332-.332.599.599 0 0 1 .492 0 .63.63 0 0 1 .392.58Zm2.252 3.148a.966.966 0 0 0 .32-.048.628.628 0 0 0 .224-.14.536.536 0 0 0 .136-.212.747.747 0 0 0 .047-.272c0-.203-.06-.363-.183-.48-.12-.12-.302-.18-.544-.18-.243 0-.426.06-.548.18-.12.117-.18.277-.18.48a.647.647 0 0 0 .18.484.674.674 0 0 0 .227.14c.094.032.2.048.32.048Zm1.116 2.336a.273.273 0 0 0-.073-.196.457.457 0 0 0-.196-.116c-.082-.03-.18-.05-.291-.064a15.121 15.121 0 0 0-.736-.048 4.463 4.463 0 0 1-.384-.032.954.954 0 0 0-.268.216.446.446 0 0 0-.049.488.465.465 0 0 0 .172.164c.08.045.183.08.309.104.125.027.278.04.46.04.183 0 .342-.015.476-.044.133-.027.242-.065.328-.116a.477.477 0 0 0 .192-.176.42.42 0 0 0 .06-.22Zm.983-4.148v.368c0 .117-.07.19-.212.216l-.367.068c.055.141.083.296.083.464a1.216 1.216 0 0 1-.46.968 1.61 1.61 0 0 1-.511.268 2.093 2.093 0 0 1-.633.092c-.08 0-.157-.004-.232-.012a2.933 2.933 0 0 1-.22-.032c-.127.077-.191.164-.191.26 0 .083.037.144.111.184.078.037.18.064.305.08s.267.027.427.032c.16.003.325.01.492.024.168.013.332.037.492.072.16.032.303.084.428.156.126.072.226.17.3.296a.88.88 0 0 1 .117.476c0 .181-.046.357-.136.528a1.4 1.4 0 0 1-.389.456c-.167.133-.375.24-.623.32a2.624 2.624 0 0 1-.84.124c-.31 0-.58-.03-.809-.092a1.859 1.859 0 0 1-.572-.24 1.019 1.019 0 0 1-.34-.344.812.812 0 0 1-.111-.408c0-.192.057-.352.171-.48.118-.13.278-.235.48-.312a.69.69 0 0 1-.26-.224.639.639 0 0 1-.095-.368c0-.061.01-.124.032-.188a.91.91 0 0 1 .1-.196 1.099 1.099 0 0 1 .404-.336 1.31 1.31 0 0 1-.492-.448 1.207 1.207 0 0 1-.177-.656c0-.203.04-.385.12-.548a1.24 1.24 0 0 1 .34-.42c.147-.117.32-.207.516-.268.2-.061.418-.092.652-.092.177 0 .342.019.497.056.154.035.296.087.424.156h1.18Zm2 1.812a.966.966 0 0 0 .32-.048.63.63 0 0 0 .223-.14.538.538 0 0 0 .136-.212.747.747 0 0 0 .048-.272c0-.203-.061-.363-.184-.48-.12-.12-.301-.18-.544-.18-.242 0-.425.06-.548.18-.12.117-.18.277-.18.48 0 .096.015.185.044.268a.645.645 0 0 0 .136.216.672.672 0 0 0 .228.14c.094.032.2.048.32.048Zm1.115 2.336a.273.273 0 0 0-.072-.196.457.457 0 0 0-.196-.116 1.35 1.35 0 0 0-.292-.064 15.17 15.17 0 0 0-.736-.048 4.456 4.456 0 0 1-.384-.032.952.952 0 0 0-.268.216.445.445 0 0 0-.048.488.464.464 0 0 0 .172.164c.08.045.183.08.308.104.126.027.279.04.46.04.184 0 .343-.015.476-.044.134-.027.243-.065.328-.116a.477.477 0 0 0 .192-.176.42.42 0 0 0 .06-.22Zm.984-4.148v.368c0 .117-.07.19-.212.216l-.368.068c.056.141.084.296.084.464a1.216 1.216 0 0 1-.46.968 1.61 1.61 0 0 1-.512.268 2.094 2.094 0 0 1-.632.092c-.08 0-.157-.004-.232-.012a2.925 2.925 0 0 1-.22-.032c-.128.077-.192.164-.192.26 0 .083.038.144.112.184a1 1 0 0 0 .304.08c.126.016.268.027.428.032.16.003.324.01.492.024.168.013.332.037.492.072.16.032.303.084.428.156a.82.82 0 0 1 .3.296.88.88 0 0 1 .116.476c0 .181-.045.357-.136.528-.088.17-.217.323-.388.456a1.97 1.97 0 0 1-.624.32 2.624 2.624 0 0 1-.84.124c-.309 0-.578-.03-.808-.092a1.859 1.859 0 0 1-.572-.24 1.019 1.019 0 0 1-.34-.344.811.811 0 0 1-.112-.408c0-.192.058-.352.172-.48a1.21 1.21 0 0 1 .48-.312.69.69 0 0 1-.26-.224.639.639 0 0 1-.096-.368c0-.061.011-.124.032-.188a.905.905 0 0 1 .1-.196 1.096 1.096 0 0 1 .404-.336 1.31 1.31 0 0 1-.492-.448 1.207 1.207 0 0 1-.176-.656c0-.203.04-.385.12-.548a1.24 1.24 0 0 1 .34-.42c.147-.117.319-.207.516-.268.2-.061.418-.092.652-.092.176 0 .342.019.496.056.155.035.296.087.424.156h1.18Zm3.08 1.44a1.13 1.13 0 0 0-.055-.36.831.831 0 0 0-.16-.3.731.731 0 0 0-.276-.2.905.905 0 0 0-.384-.076c-.286 0-.511.081-.676.244-.163.163-.267.393-.313.692h1.864Zm-1.883.596c.015.21.053.393.111.548.06.152.136.279.233.38a.934.934 0 0 0 .34.224c.133.048.28.072.44.072.16 0 .297-.019.412-.056.117-.037.218-.079.303-.124.089-.045.164-.087.228-.124a.394.394 0 0 1 .192-.056c.083 0 .145.03.184.092l.285.36a1.69 1.69 0 0 1-.369.324 2.186 2.186 0 0 1-.88.316c-.151.021-.3.032-.444.032-.285 0-.55-.047-.795-.14a1.818 1.818 0 0 1-.64-.42 1.996 1.996 0 0 1-.428-.688 2.68 2.68 0 0 1-.157-.952c0-.28.046-.543.136-.788a1.83 1.83 0 0 1 1.009-1.08c.245-.107.52-.16.828-.16.258 0 .497.041.715.124.22.083.407.204.565.364.157.157.28.352.367.584.091.23.136.492.136.788 0 .15-.016.25-.047.304-.032.05-.094.076-.184.076h-2.54Zm4.325-1.464c.128-.245.28-.437.456-.576a.966.966 0 0 1 .624-.212.76.76 0 0 1 .456.124l-.064.74a.197.197 0 0 1-.06.104.16.16 0 0 1-.1.028c-.04 0-.1-.007-.18-.02a1.345 1.345 0 0 0-.228-.02.739.739 0 0 0-.524.188.969.969 0 0 0-.18.216c-.05.085-.099.183-.144.292V61.5h-.988v-4.104h.58c.101 0 .172.019.212.056.04.035.067.099.08.192l.06.464Z" fill="#FF9000"/><path d="M13.446 71.468c.203 0 .379-.025.528-.076.152-.05.276-.12.372-.208a.85.85 0 0 0 .22-.32 1.1 1.1 0 0 0 .072-.404c0-.293-.097-.519-.292-.676-.192-.157-.486-.236-.884-.236h-.688v1.92h.672Zm2.768 3.032h-.972c-.184 0-.317-.072-.4-.216l-1.216-1.852a.42.42 0 0 0-.152-.148.513.513 0 0 0-.24-.044h-.46v2.26h-1.076v-5.784h1.764c.392 0 .728.041 1.008.124.283.08.513.194.692.34.181.147.315.323.4.528.086.203.128.427.128.672 0 .195-.03.379-.088.552a1.625 1.625 0 0 1-.648.844c-.157.107-.337.19-.54.252.07.04.133.088.192.144a.954.954 0 0 1 .16.192l1.448 2.136Zm2.454-1.752a5.198 5.198 0 0 0-.72.076c-.194.035-.35.08-.468.136a.615.615 0 0 0-.252.196.426.426 0 0 0-.076.244c0 .173.051.297.152.372a.677.677 0 0 0 .404.112c.203 0 .378-.036.524-.108.15-.075.295-.186.436-.336v-.692Zm-2.264-1.78c.472-.432 1.04-.648 1.704-.648.24 0 .455.04.644.12a1.348 1.348 0 0 1 .776.828c.07.195.104.408.104.64V74.5h-.448a.472.472 0 0 1-.216-.04c-.05-.03-.09-.086-.12-.172l-.088-.296a3.9 3.9 0 0 1-.304.248c-.098.07-.201.128-.308.176a1.845 1.845 0 0 1-1.224.08 1.08 1.08 0 0 1-.38-.212.943.943 0 0 1-.248-.348 1.235 1.235 0 0 1-.088-.484.948.948 0 0 1 .22-.604 1.49 1.49 0 0 1 .308-.264 1.99 1.99 0 0 1 .46-.216c.184-.061.398-.11.64-.148.243-.04.52-.064.832-.072v-.24c0-.275-.058-.477-.176-.608-.117-.133-.286-.2-.508-.2-.16 0-.293.019-.4.056-.104.037-.196.08-.276.128l-.22.124a.421.421 0 0 1-.216.056.292.292 0 0 1-.176-.052.478.478 0 0 1-.116-.128l-.176-.316Zm4.963-.068c.082-.083.17-.159.26-.228a1.6 1.6 0 0 1 .624-.296c.117-.03.245-.044.384-.044.224 0 .422.039.596.116.173.075.317.181.432.32.117.136.205.3.264.492.061.19.092.399.092.628V74.5h-.988v-2.612c0-.25-.057-.444-.172-.58-.115-.139-.29-.208-.524-.208-.17 0-.33.039-.48.116-.15.078-.29.183-.424.316V74.5h-.988v-4.104h.604c.128 0 .212.06.252.18l.068.324Zm6.047.544a.968.968 0 0 0-.792-.372.944.944 0 0 0-.404.084.806.806 0 0 0-.308.256 1.2 1.2 0 0 0-.195.432 2.453 2.453 0 0 0-.069.616c0 .24.02.444.056.612.04.165.096.302.168.408.072.104.16.18.264.228.104.046.22.068.349.068.205 0 .38-.042.523-.128a1.56 1.56 0 0 0 .409-.364v-1.84Zm.988-2.888V74.5h-.604c-.13 0-.213-.06-.247-.18l-.084-.396c-.166.19-.357.343-.572.46a1.528 1.528 0 0 1-.748.176 1.36 1.36 0 0 1-.616-.14 1.398 1.398 0 0 1-.484-.404 2.02 2.02 0 0 1-.313-.66 3.381 3.381 0 0 1-.108-.896c0-.304.042-.586.124-.848.083-.261.202-.488.357-.68.154-.192.34-.341.556-.448a1.59 1.59 0 0 1 .727-.164c.23 0 .426.036.588.108.163.072.308.17.436.292v-2.164h.988Zm2.671 1.776c.305 0 .58.05.828.148a1.795 1.795 0 0 1 1.052 1.084c.096.262.144.554.144.876 0 .326-.047.619-.144.88a1.87 1.87 0 0 1-.412.668 1.77 1.77 0 0 1-.64.424 2.221 2.221 0 0 1-.828.148c-.306 0-.585-.05-.835-.148a1.81 1.81 0 0 1-.645-.424 1.95 1.95 0 0 1-.412-.668 2.538 2.538 0 0 1-.143-.88c0-.322.047-.614.143-.876.1-.261.236-.482.412-.664.18-.181.394-.321.645-.42.25-.099.529-.148.835-.148Zm0 3.468c.342 0 .594-.114.756-.344.166-.23.248-.565.248-1.008 0-.442-.082-.78-.247-1.012-.163-.232-.415-.348-.756-.348-.347 0-.605.118-.773.352-.165.232-.247.568-.247 1.008 0 .44.082.776.248 1.008.168.23.425.344.771.344Zm2.658.7v-4.104h.604c.128 0 .212.06.252.18l.064.304c.072-.08.147-.153.224-.22a1.344 1.344 0 0 1 .88-.328c.259 0 .47.07.636.212.168.139.294.324.376.556a1.285 1.285 0 0 1 .556-.588c.115-.061.236-.106.364-.136.13-.03.262-.044.392-.044.227 0 .428.035.604.104.176.07.324.17.444.304.12.134.21.296.272.488.064.192.096.412.096.66V74.5h-.988v-2.612c0-.261-.057-.457-.172-.588-.114-.133-.282-.2-.504-.2a.682.682 0 0 0-.512.204.678.678 0 0 0-.152.244.956.956 0 0 0-.056.34V74.5h-.992v-2.612c0-.275-.056-.475-.168-.6-.11-.125-.27-.188-.484-.188a.798.798 0 0 0-.404.108c-.122.07-.237.166-.344.288V74.5h-.988Z" fill="#DBDBDB"/><path d="M.5 81.5a3 3 0 0 1 3-3h44a3 3 0 0 1 3 3v32a3 3 0 0 1-3 3h-44a3 3 0 0 1-3-3v-32Z" fill="url(#c)"/><path d="M13.764 83.072v1.712h2.168v.86h-2.168V88h-1.08v-5.784h3.648v.856h-2.568Zm3.787 1.536c.128-.246.28-.438.456-.576a.966.966 0 0 1 .623-.212c.19 0 .342.041.457.124l-.064.74a.195.195 0 0 1-.06.104.159.159 0 0 1-.1.028c-.04 0-.1-.007-.18-.02a1.343 1.343 0 0 0-.229-.02.741.741 0 0 0-.524.188.974.974 0 0 0-.18.216 2.31 2.31 0 0 0-.143.292V88h-.988v-4.104h.58c.1 0 .171.019.211.056.04.035.067.099.08.192l.06.464Zm4.459.868a1.14 1.14 0 0 0-.056-.36.833.833 0 0 0-.16-.3.731.731 0 0 0-.276-.2.905.905 0 0 0-.384-.076c-.286 0-.511.081-.676.244-.163.162-.267.393-.312.692h1.864Zm-1.884.596c.016.21.053.393.112.548.058.152.136.278.232.38a.942.942 0 0 0 .34.224c.133.048.28.072.44.072.16 0 .297-.019.412-.056a1.84 1.84 0 0 0 .304-.124c.088-.046.164-.087.228-.124a.394.394 0 0 1 .192-.056c.082 0 .144.03.184.092l.284.36a1.69 1.69 0 0 1-.368.324 2.188 2.188 0 0 1-.88.316c-.152.021-.3.032-.444.032a2.22 2.22 0 0 1-.796-.14 1.818 1.818 0 0 1-.64-.42 1.996 1.996 0 0 1-.428-.688 2.68 2.68 0 0 1-.156-.952c0-.28.045-.543.136-.788a1.83 1.83 0 0 1 1.008-1.08c.245-.107.521-.16.828-.16.258 0 .497.041.716.124.218.082.406.204.564.364.157.157.28.352.368.584.09.23.136.492.136.788 0 .15-.016.25-.048.304-.032.05-.094.076-.184.076h-2.54Zm6.037-.596c0-.128-.018-.248-.056-.36a.833.833 0 0 0-.16-.3.731.731 0 0 0-.276-.2.905.905 0 0 0-.384-.076c-.285 0-.51.081-.676.244-.163.162-.267.393-.312.692h1.864Zm-1.884.596c.016.21.053.393.112.548.059.152.136.278.232.38.096.099.21.173.34.224.133.048.28.072.44.072.16 0 .298-.019.412-.056a1.84 1.84 0 0 0 .304-.124c.088-.046.164-.087.228-.124a.393.393 0 0 1 .192-.056c.083 0 .144.03.184.092l.284.36c-.11.128-.232.236-.368.324a2.188 2.188 0 0 1-.88.316c-.152.021-.3.032-.444.032a2.22 2.22 0 0 1-.796-.14 1.817 1.817 0 0 1-.64-.42 1.995 1.995 0 0 1-.428-.688 2.68 2.68 0 0 1-.156-.952c0-.28.045-.543.136-.788a1.84 1.84 0 0 1 1.008-1.08c.245-.107.521-.16.828-.16.259 0 .498.041.716.124.219.082.407.204.564.364.157.157.28.352.368.584.09.23.136.492.136.788 0 .15-.016.25-.048.304-.032.05-.093.076-.184.076h-2.54Zm4.326-1.464c.128-.246.28-.438.456-.576a.966.966 0 0 1 .624-.212c.189 0 .34.041.456.124l-.064.74a.195.195 0 0 1-.06.104.159.159 0 0 1-.1.028c-.04 0-.1-.007-.18-.02a1.343 1.343 0 0 0-.228-.02.74.74 0 0 0-.524.188.969.969 0 0 0-.18.216c-.051.085-.1.182-.144.292V88h-.988v-4.104h.58c.1 0 .172.019.212.056.04.035.066.099.08.192l.06.464Zm5.468-.712V88h-.604c-.13 0-.213-.06-.248-.18l-.068-.328a2.24 2.24 0 0 1-.556.416 1.55 1.55 0 0 1-.716.156c-.224 0-.423-.037-.596-.112a1.213 1.213 0 0 1-.432-.324 1.437 1.437 0 0 1-.268-.492 2.154 2.154 0 0 1-.088-.632v-2.608h.988v2.608c0 .25.057.445.172.584.117.136.292.204.524.204.17 0 .33-.038.48-.112.15-.078.29-.183.424-.316v-2.968h.988Zm1.784.504a2.6 2.6 0 0 1 .26-.228 1.597 1.597 0 0 1 .624-.296c.117-.03.245-.044.384-.044.224 0 .422.039.596.116.173.075.317.181.432.32.117.136.205.3.264.492.06.19.092.398.092.628V88h-.988v-2.612c0-.25-.058-.444-.172-.58-.115-.139-.29-.208-.524-.208-.171 0-.331.038-.48.116a1.72 1.72 0 0 0-.424.316V88h-.988v-4.104h.604c.128 0 .212.06.252.18l.068.324ZM9.166 97.14h.252a.683.683 0 0 0 .252-.04.444.444 0 0 0 .172-.136l1.596-2.02a.565.565 0 0 1 .208-.176.664.664 0 0 1 .28-.052h.928l-1.948 2.404c-.115.147-.234.25-.356.312a.769.769 0 0 1 .236.136c.072.056.14.13.204.224l2.008 2.708h-.948a.619.619 0 0 1-.288-.052.471.471 0 0 1-.156-.16L9.97 98.152A.428.428 0 0 0 9.794 98a.741.741 0 0 0-.288-.044h-.34v2.544H8.09v-5.784h1.076v2.424Zm6.48.836c0-.128-.02-.248-.057-.36a.833.833 0 0 0-.16-.3.731.731 0 0 0-.276-.2.905.905 0 0 0-.384-.076c-.285 0-.51.081-.676.244-.162.163-.266.393-.312.692h1.864Zm-1.885.596c.016.21.054.393.112.548.059.152.136.279.232.38.096.099.21.173.34.224.134.048.28.072.44.072.16 0 .298-.019.412-.056.118-.037.219-.079.304-.124.088-.045.164-.087.228-.124a.393.393 0 0 1 .192-.056c.083 0 .144.03.184.092l.284.36a1.69 1.69 0 0 1-.368.324 2.188 2.188 0 0 1-.88.316c-.152.021-.3.032-.444.032-.285 0-.55-.047-.796-.14a1.816 1.816 0 0 1-.64-.42 1.995 1.995 0 0 1-.428-.688 2.68 2.68 0 0 1-.156-.952c0-.28.046-.543.136-.788.091-.248.22-.463.388-.644a1.85 1.85 0 0 1 .62-.436c.246-.107.522-.16.828-.16.259 0 .498.041.716.124.219.083.407.204.564.364.158.157.28.352.368.584.091.23.136.492.136.788 0 .15-.016.25-.048.304-.032.05-.093.076-.184.076h-2.54Zm7.005-2.176-2.236 5.232a.362.362 0 0 1-.116.156c-.046.037-.116.056-.212.056h-.736l.768-1.648-1.66-3.796h.868c.077 0 .137.019.18.056a.35.35 0 0 1 .1.128l.872 2.128c.029.072.053.144.072.216l.06.22.072-.22c.024-.075.05-.148.08-.22l.824-2.124a.29.29 0 0 1 .272-.184h.792Zm1.738 4.168c-.357 0-.632-.1-.824-.3-.189-.203-.284-.481-.284-.836v-2.292h-.42a.192.192 0 0 1-.136-.052c-.037-.035-.056-.087-.056-.156v-.392l.66-.108.208-1.12a.219.219 0 0 1 .076-.124.226.226 0 0 1 .144-.044h.512v1.292h1.096v.704h-1.096v2.224a.45.45 0 0 0 .092.3.33.33 0 0 0 .26.108.49.49 0 0 0 .26-.068c.032-.016.06-.03.084-.044a.129.129 0 0 1 .072-.024c.03 0 .054.008.072.024a.286.286 0 0 1 .06.064l.296.48a1.49 1.49 0 0 1-.496.272c-.186.061-.38.092-.58.092Zm2.42-3.456c.129-.245.28-.437.457-.576a.966.966 0 0 1 .624-.212.76.76 0 0 1 .456.124l-.064.74a.195.195 0 0 1-.06.104.159.159 0 0 1-.1.028c-.04 0-.1-.007-.18-.02a1.343 1.343 0 0 0-.228-.02.74.74 0 0 0-.524.188.969.969 0 0 0-.18.216c-.05.085-.099.183-.144.292v2.528h-.988v-4.104h.58c.101 0 .172.019.212.056.04.035.067.099.08.192l.06.464Zm2.957-.712v4.104h-.992v-4.104h.992Zm.136-1.196a.563.563 0 0 1-.052.24.642.642 0 0 1-.14.196.664.664 0 0 1-.2.136.642.642 0 0 1-.492 0 .679.679 0 0 1-.332-.332.642.642 0 0 1 0-.488.619.619 0 0 1 .332-.332.599.599 0 0 1 .492 0 .63.63 0 0 1 .392.58Zm2.252 3.148a.966.966 0 0 0 .32-.048.628.628 0 0 0 .224-.14.536.536 0 0 0 .136-.212.747.747 0 0 0 .047-.272c0-.203-.06-.363-.183-.48-.12-.12-.302-.18-.544-.18-.243 0-.426.06-.548.18-.12.117-.18.277-.18.48a.647.647 0 0 0 .18.484.674.674 0 0 0 .227.14c.094.032.2.048.32.048Zm1.116 2.336a.274.274 0 0 0-.073-.196.457.457 0 0 0-.196-.116 1.357 1.357 0 0 0-.291-.064 13.848 13.848 0 0 0-.736-.048 4.346 4.346 0 0 1-.384-.032.943.943 0 0 0-.268.216.447.447 0 0 0-.049.488.463.463 0 0 0 .172.164c.08.045.183.08.309.104.125.027.278.04.46.04.183 0 .342-.015.476-.044.133-.027.242-.065.328-.116a.48.48 0 0 0 .192-.176.42.42 0 0 0 .06-.22Zm.983-4.148v.368c0 .117-.07.19-.212.216l-.367.068c.055.141.083.296.083.464a1.216 1.216 0 0 1-.46.968 1.61 1.61 0 0 1-.511.268 2.093 2.093 0 0 1-.633.092c-.08 0-.157-.004-.232-.012a2.933 2.933 0 0 1-.22-.032c-.127.077-.191.164-.191.26 0 .083.037.144.111.184.078.037.18.064.305.08s.267.027.427.032c.16.003.325.01.492.024.168.013.332.037.492.072.16.032.303.084.428.156.126.072.226.17.3.296a.88.88 0 0 1 .117.476c0 .181-.046.357-.136.528a1.38 1.38 0 0 1-.389.456 1.97 1.97 0 0 1-.623.32 2.616 2.616 0 0 1-.84.124c-.31 0-.58-.031-.809-.092a1.873 1.873 0 0 1-.572-.24 1.019 1.019 0 0 1-.34-.344.814.814 0 0 1-.111-.408c0-.192.057-.352.171-.48.118-.131.278-.235.48-.312a.69.69 0 0 1-.26-.224.639.639 0 0 1-.095-.368c0-.061.01-.124.032-.188a.91.91 0 0 1 .1-.196 1.099 1.099 0 0 1 .404-.336 1.31 1.31 0 0 1-.492-.448 1.207 1.207 0 0 1-.177-.656c0-.203.04-.385.12-.548a1.24 1.24 0 0 1 .34-.42c.147-.117.32-.207.516-.268.2-.061.418-.092.652-.092.177 0 .342.019.497.056.154.035.296.087.424.156h1.18Zm2 1.812a.966.966 0 0 0 .32-.048.63.63 0 0 0 .223-.14.538.538 0 0 0 .136-.212.747.747 0 0 0 .048-.272c0-.203-.061-.363-.184-.48-.12-.12-.301-.18-.544-.18-.242 0-.425.06-.548.18-.12.117-.18.277-.18.48 0 .096.015.185.044.268a.645.645 0 0 0 .136.216.672.672 0 0 0 .228.14c.094.032.2.048.32.048Zm1.115 2.336a.274.274 0 0 0-.072-.196.457.457 0 0 0-.196-.116 1.359 1.359 0 0 0-.292-.064 13.889 13.889 0 0 0-.736-.048 4.34 4.34 0 0 1-.384-.032.942.942 0 0 0-.268.216.446.446 0 0 0-.048.488.462.462 0 0 0 .172.164c.08.045.183.08.308.104.126.027.279.04.46.04.184 0 .343-.015.476-.044.134-.027.243-.065.328-.116a.48.48 0 0 0 .192-.176.42.42 0 0 0 .06-.22Zm.984-4.148v.368c0 .117-.07.19-.212.216l-.368.068c.056.141.084.296.084.464a1.216 1.216 0 0 1-.46.968 1.61 1.61 0 0 1-.512.268 2.094 2.094 0 0 1-.632.092c-.08 0-.157-.004-.232-.012a2.925 2.925 0 0 1-.22-.032c-.128.077-.192.164-.192.26 0 .083.038.144.112.184a1 1 0 0 0 .304.08c.126.016.268.027.428.032.16.003.324.01.492.024.168.013.332.037.492.072.16.032.303.084.428.156.126.072.226.17.3.296a.88.88 0 0 1 .116.476c0 .181-.045.357-.136.528a1.38 1.38 0 0 1-.388.456 1.97 1.97 0 0 1-.624.32 2.616 2.616 0 0 1-.84.124 3.17 3.17 0 0 1-.808-.092 1.873 1.873 0 0 1-.572-.24 1.019 1.019 0 0 1-.34-.344.813.813 0 0 1-.112-.408c0-.192.058-.352.172-.48.118-.131.278-.235.48-.312a.69.69 0 0 1-.26-.224.639.639 0 0 1-.096-.368c0-.061.011-.124.032-.188a.905.905 0 0 1 .1-.196 1.096 1.096 0 0 1 .404-.336 1.31 1.31 0 0 1-.492-.448 1.207 1.207 0 0 1-.176-.656c0-.203.04-.385.12-.548a1.24 1.24 0 0 1 .34-.42c.147-.117.319-.207.516-.268.2-.061.418-.092.652-.092.176 0 .342.019.496.056.155.035.296.087.424.156h1.18Zm3.08 1.44a1.13 1.13 0 0 0-.055-.36.831.831 0 0 0-.16-.3.731.731 0 0 0-.276-.2.905.905 0 0 0-.384-.076c-.286 0-.511.081-.676.244-.163.163-.267.393-.313.692h1.864Zm-1.883.596c.015.21.053.393.111.548.06.152.136.279.233.38a.934.934 0 0 0 .34.224c.133.048.28.072.44.072.16 0 .297-.019.412-.056.117-.037.218-.079.303-.124.089-.045.164-.087.228-.124a.394.394 0 0 1 .192-.056c.083 0 .145.03.184.092l.285.36c-.11.128-.233.236-.369.324a2.186 2.186 0 0 1-.88.316c-.151.021-.3.032-.444.032-.285 0-.55-.047-.795-.14a1.817 1.817 0 0 1-.64-.42 1.996 1.996 0 0 1-.428-.688 2.68 2.68 0 0 1-.157-.952c0-.28.046-.543.136-.788a1.83 1.83 0 0 1 1.009-1.08c.245-.107.52-.16.828-.16.258 0 .497.041.715.124.22.083.407.204.565.364.157.157.28.352.367.584.091.23.136.492.136.788 0 .15-.016.25-.047.304-.032.05-.094.076-.184.076h-2.54Zm4.325-1.464c.128-.245.28-.437.456-.576a.966.966 0 0 1 .624-.212.76.76 0 0 1 .456.124l-.064.74a.197.197 0 0 1-.06.104.16.16 0 0 1-.1.028c-.04 0-.1-.007-.18-.02a1.345 1.345 0 0 0-.228-.02.739.739 0 0 0-.524.188.969.969 0 0 0-.18.216c-.05.085-.099.183-.144.292v2.528h-.988v-4.104h.58c.101 0 .172.019.212.056.04.035.067.099.08.192l.06.464Z" fill="#DBDBDB"/><path d="M13.446 110.468c.203 0 .379-.025.528-.076.152-.051.276-.12.372-.208a.85.85 0 0 0 .22-.32 1.1 1.1 0 0 0 .072-.404c0-.293-.097-.519-.292-.676-.192-.157-.486-.236-.884-.236h-.688v1.92h.672Zm2.768 3.032h-.972c-.184 0-.317-.072-.4-.216l-1.216-1.852a.42.42 0 0 0-.152-.148.517.517 0 0 0-.24-.044h-.46v2.26h-1.076v-5.784h1.764c.392 0 .728.041 1.008.124.283.08.513.193.692.34.181.147.315.323.4.528.086.203.128.427.128.672a1.706 1.706 0 0 1-.336 1.024c-.106.141-.24.265-.4.372a1.954 1.954 0 0 1-.54.252c.07.04.133.088.192.144a.937.937 0 0 1 .16.192l1.448 2.136Zm2.454-1.752a5.198 5.198 0 0 0-.72.076c-.194.035-.35.08-.468.136a.613.613 0 0 0-.252.196.427.427 0 0 0-.076.244c0 .173.051.297.152.372a.674.674 0 0 0 .404.112c.203 0 .378-.036.524-.108.15-.075.295-.187.436-.336v-.692Zm-2.264-1.78c.472-.432 1.04-.648 1.704-.648.24 0 .455.04.644.12a1.348 1.348 0 0 1 .776.828c.07.195.104.408.104.64v2.592h-.448a.468.468 0 0 1-.216-.04c-.05-.029-.09-.087-.12-.172l-.088-.296a3.969 3.969 0 0 1-.304.248 1.89 1.89 0 0 1-.308.176 1.827 1.827 0 0 1-.744.148 1.63 1.63 0 0 1-.48-.068 1.085 1.085 0 0 1-.38-.212.938.938 0 0 1-.248-.348 1.237 1.237 0 0 1-.088-.484.946.946 0 0 1 .22-.604 1.49 1.49 0 0 1 .308-.264 1.99 1.99 0 0 1 .46-.216 3.94 3.94 0 0 1 .64-.148c.243-.04.52-.064.832-.072v-.24c0-.275-.058-.477-.176-.608-.117-.133-.286-.2-.508-.2-.16 0-.293.019-.4.056-.104.037-.196.08-.276.128l-.22.124a.424.424 0 0 1-.216.056.29.29 0 0 1-.176-.052.474.474 0 0 1-.116-.128l-.176-.316Zm4.963-.068c.082-.083.17-.159.26-.228a1.6 1.6 0 0 1 .624-.296c.117-.029.245-.044.384-.044.224 0 .422.039.596.116.173.075.317.181.432.32.117.136.205.3.264.492.061.189.092.399.092.628v2.612h-.988v-2.612c0-.251-.057-.444-.172-.58-.115-.139-.29-.208-.524-.208-.17 0-.33.039-.48.116a1.72 1.72 0 0 0-.424.316v2.968h-.988v-4.104h.604c.128 0 .212.06.252.18l.068.324Zm6.047.544a.968.968 0 0 0-.792-.372.944.944 0 0 0-.404.084.804.804 0 0 0-.308.256 1.2 1.2 0 0 0-.195.432 2.453 2.453 0 0 0-.069.616c0 .24.02.444.056.612.04.165.096.301.168.408.072.104.16.18.264.228a.87.87 0 0 0 .349.068c.205 0 .38-.043.523-.128a1.56 1.56 0 0 0 .409-.364v-1.84Zm.988-2.888v5.944h-.604c-.13 0-.213-.06-.247-.18l-.084-.396a2.061 2.061 0 0 1-.572.46 1.532 1.532 0 0 1-.748.176 1.36 1.36 0 0 1-.616-.14 1.395 1.395 0 0 1-.484-.404 2.026 2.026 0 0 1-.313-.66 3.38 3.38 0 0 1-.108-.896c0-.304.042-.587.124-.848.083-.261.202-.488.357-.68.154-.192.34-.341.556-.448.215-.109.458-.164.727-.164.23 0 .426.036.588.108a1.5 1.5 0 0 1 .436.292v-2.164h.988Zm2.671 1.776c.305 0 .58.049.828.148a1.8 1.8 0 0 1 1.053 1.084c.096.261.143.553.143.876 0 .325-.047.619-.144.88a1.873 1.873 0 0 1-.412.668 1.762 1.762 0 0 1-.64.424 2.215 2.215 0 0 1-.828.148c-.306 0-.585-.049-.835-.148a1.813 1.813 0 0 1-.645-.424 1.952 1.952 0 0 1-.412-.668 2.538 2.538 0 0 1-.143-.88c0-.323.047-.615.143-.876.1-.261.236-.483.412-.664.18-.181.394-.321.645-.42.25-.099.529-.148.835-.148Zm0 3.468c.342 0 .594-.115.756-.344.166-.229.248-.565.248-1.008 0-.443-.082-.78-.247-1.012-.163-.232-.415-.348-.756-.348-.347 0-.605.117-.773.352-.165.232-.247.568-.247 1.008 0 .44.082.776.248 1.008.168.229.425.344.771.344Zm2.658.7v-4.104h.604c.128 0 .212.06.252.18l.064.304c.072-.08.147-.153.224-.22a1.36 1.36 0 0 1 .88-.328c.259 0 .47.071.636.212.168.139.294.324.376.556.064-.136.144-.252.24-.348a1.27 1.27 0 0 1 .316-.24c.115-.061.236-.107.364-.136a1.804 1.804 0 0 1 .996.06c.176.069.324.171.444.304.12.133.21.296.272.488.064.192.096.412.096.66v2.612h-.988v-2.612c0-.261-.057-.457-.172-.588-.114-.133-.282-.2-.504-.2a.682.682 0 0 0-.512.204.676.676 0 0 0-.152.244.957.957 0 0 0-.056.34v2.612h-.992v-2.612c0-.275-.056-.475-.168-.6-.11-.125-.27-.188-.484-.188a.798.798 0 0 0-.404.108 1.305 1.305 0 0 0-.344.288v3.004h-.988Z" fill="#FF9000"/><defs><linearGradient id="a" x1="25.5" y1=".5" x2="25.5" y2="38.5" gradientUnits="userSpaceOnUse"><stop/><stop offset="1" stop-opacity=".25"/></linearGradient><linearGradient id="b" x1="25.5" y1="39.5" x2="25.5" y2="77.5" gradientUnits="userSpaceOnUse"><stop/><stop offset="1" stop-opacity=".25"/></linearGradient><linearGradient id="c" x1="25.5" y1="78.5" x2="25.5" y2="116.5" gradientUnits="userSpaceOnUse"><stop/><stop offset="1" stop-opacity=".25"/></linearGradient></defs></svg>