<svg width="135" height="108" fill="none" xmlns="http://www.w3.org/2000/svg"><path d="M.5 3.5a3 3 0 0 1 3-3h128a3 3 0 0 1 3 3v20a3 3 0 0 1-3 3H3.5a3 3 0 0 1-3-3v-20Z" fill="url(#a)"/><path d="M17.266 14.108c0 .424-.07.817-.212 1.18-.138.36-.336.672-.592.936-.256.264-.564.47-.924.62-.36.147-.76.22-1.2.22-.437 0-.836-.073-1.196-.22a2.78 2.78 0 0 1-.928-.62 2.795 2.795 0 0 1-.596-.936 3.223 3.223 0 0 1-.212-1.18c0-.424.07-.816.212-1.176.141-.363.34-.676.596-.94a2.71 2.71 0 0 1 .928-.616c.36-.15.759-.224 1.196-.224.294 0 .57.035.828.104.259.067.496.163.712.288.216.123.41.273.58.452.174.176.32.373.44.592.12.219.211.456.272.712.064.256.096.525.096.808Zm-1.1 0c0-.317-.042-.601-.128-.852a1.828 1.828 0 0 0-.364-.644 1.554 1.554 0 0 0-.576-.404 1.96 1.96 0 0 0-.76-.14 1.99 1.99 0 0 0-.764.14 1.6 1.6 0 0 0-.576.404c-.157.176-.278.39-.364.644-.085.25-.128.535-.128.852 0 .317.043.603.128.856.086.25.207.464.364.64.16.173.352.307.576.4a2 2 0 0 0 .764.14c.283 0 .536-.047.76-.14.227-.093.419-.227.576-.4.158-.176.279-.39.364-.64.086-.253.128-.539.128-.856ZM18.176 17v-3.36l-.356-.056a.452.452 0 0 1-.188-.08.212.212 0 0 1-.068-.168v-.404h.612V12.7c0-.235.035-.445.104-.632a1.36 1.36 0 0 1 .304-.476c.134-.13.295-.23.484-.3.19-.07.403-.104.64-.104.19 0 .366.025.528.076l-.02.492a.165.165 0 0 1-.032.092.182.182 0 0 1-.076.056.495.495 0 0 1-.104.024c-.04.003-.082.004-.128.004a1.15 1.15 0 0 0-.316.04.505.505 0 0 0-.232.132.598.598 0 0 0-.148.248 1.28 1.28 0 0 0-.048.38v.2h1.636v-.364c0-.235.035-.445.104-.632a1.36 1.36 0 0 1 .304-.476c.134-.13.295-.23.484-.3.19-.07.403-.104.64-.104.094 0 .183.007.268.02.088.01.175.028.26.052l-.024.496c-.005.077-.041.127-.108.148a.819.819 0 0 1-.228.028 1.15 1.15 0 0 0-.316.04.504.504 0 0 0-.232.132.598.598 0 0 0-.148.248 1.28 1.28 0 0 0-.048.38v.332h1.064v.704h-1.032V17h-.988v-3.364h-1.604V17h-.988Z" fill="#FF9000"/><path opacity=".75" d="M33 2v23h1V2h-1Z" fill="#DBDBDB"/><path d="M45.552 12.268a.382.382 0 0 1-.104.124.226.226 0 0 1-.132.036.364.364 0 0 1-.184-.06 3.505 3.505 0 0 0-.232-.14 1.798 1.798 0 0 0-.32-.136 1.279 1.279 0 0 0-.428-.064c-.15 0-.28.019-.392.056a.821.821 0 0 0-.284.148.606.606 0 0 0-.168.232.74.74 0 0 0-.056.292c0 .136.038.25.112.34.078.09.179.168.304.232.126.064.268.121.428.172.16.05.324.105.492.164.168.056.332.123.492.2.16.075.303.17.428.288.126.115.226.256.3.424.078.168.116.372.116.612 0 .261-.045.507-.136.736a1.68 1.68 0 0 1-.392.596c-.17.168-.38.301-.628.4a2.348 2.348 0 0 1-.852.144c-.184 0-.365-.019-.544-.056a2.808 2.808 0 0 1-.516-.152 2.794 2.794 0 0 1-.46-.24 2.224 2.224 0 0 1-.384-.312l.316-.516a.317.317 0 0 1 .104-.092.252.252 0 0 1 .136-.04c.067 0 .139.028.216.084.078.053.17.113.276.18.107.067.23.128.372.184.144.053.316.08.516.08.307 0 .544-.072.712-.216.168-.147.252-.356.252-.628a.574.574 0 0 0-.116-.372.877.877 0 0 0-.3-.24 2.164 2.164 0 0 0-.428-.168c-.16-.045-.322-.095-.488-.148a4.199 4.199 0 0 1-.488-.192 1.583 1.583 0 0 1-.428-.292 1.358 1.358 0 0 1-.304-.448 1.759 1.759 0 0 1-.112-.668c0-.21.042-.416.124-.616.086-.2.208-.377.368-.532a1.79 1.79 0 0 1 .592-.372c.235-.093.504-.14.808-.14.342 0 .656.053.944.16.288.107.534.256.736.448l-.268.508Zm3.663 2.208a1.13 1.13 0 0 0-.056-.36.831.831 0 0 0-.16-.3.731.731 0 0 0-.276-.2.905.905 0 0 0-.384-.076c-.285 0-.51.081-.676.244-.162.163-.266.393-.312.692h1.864Zm-1.884.596c.016.21.054.393.112.548.059.152.136.279.232.38.096.099.21.173.34.224.134.048.28.072.44.072.16 0 .298-.019.412-.056.118-.037.219-.079.304-.124.088-.045.164-.087.228-.124a.394.394 0 0 1 .192-.056c.083 0 .144.03.184.092l.284.36a1.69 1.69 0 0 1-.368.324 2.186 2.186 0 0 1-.88.316c-.152.021-.3.032-.444.032-.285 0-.55-.047-.796-.14a1.818 1.818 0 0 1-.64-.42 1.996 1.996 0 0 1-.428-.688 2.68 2.68 0 0 1-.156-.952c0-.28.046-.543.136-.788a1.84 1.84 0 0 1 1.008-1.08c.246-.107.522-.16.828-.16.259 0 .498.041.716.124.219.083.407.204.564.364.158.157.28.352.368.584.09.23.136.492.136.788 0 .15-.016.25-.048.304-.032.05-.093.076-.184.076h-2.54ZM51.65 13.4c.082-.083.169-.159.26-.228a1.594 1.594 0 0 1 .624-.296c.117-.03.245-.044.384-.044.224 0 .422.039.596.116.173.075.317.181.432.32.117.136.205.3.264.492.061.19.092.399.092.628V17h-.988v-2.612c0-.25-.058-.444-.172-.58-.115-.139-.29-.208-.524-.208a1.03 1.03 0 0 0-.48.116c-.15.077-.291.183-.424.316V17h-.988v-4.104h.604c.128 0 .212.06.252.18l.068.324Zm6.047.544a.968.968 0 0 0-.792-.372.944.944 0 0 0-.404.084.806.806 0 0 0-.308.256 1.2 1.2 0 0 0-.196.432 2.457 2.457 0 0 0-.068.616c0 .24.019.444.056.612.04.165.096.301.168.408.072.104.16.18.264.228.104.045.22.068.348.068.206 0 .38-.043.524-.128.144-.085.28-.207.408-.364v-1.84Zm.988-2.888V17h-.604c-.13 0-.213-.06-.248-.18l-.084-.396a2.06 2.06 0 0 1-.572.46 1.528 1.528 0 0 1-.748.176c-.224 0-.429-.047-.616-.14a1.398 1.398 0 0 1-.484-.404 2.024 2.024 0 0 1-.312-.66 3.381 3.381 0 0 1-.108-.896c0-.304.042-.587.124-.848.083-.261.202-.488.356-.68a1.64 1.64 0 0 1 .556-.448 1.59 1.59 0 0 1 .728-.164c.23 0 .426.036.588.108.163.072.308.17.436.292v-2.164h.988Z" fill="#DBDBDB"/><path opacity=".75" d="M67 2v23h1V2h-1Z" fill="#DBDBDB"/><path d="M75.865 7.268a.381.381 0 0 1-.104.124.226.226 0 0 1-.132.036.364.364 0 0 1-.184-.06 3.505 3.505 0 0 0-.232-.14 1.8 1.8 0 0 0-.32-.136 1.28 1.28 0 0 0-.428-.064c-.15 0-.28.019-.392.056a.82.82 0 0 0-.284.148.606.606 0 0 0-.168.232.74.74 0 0 0-.056.292c0 .136.038.25.112.34.078.09.179.168.304.232.126.064.268.121.428.172.16.05.324.105.492.164.168.056.332.123.492.2.16.075.303.17.428.288.126.115.226.256.3.424.078.168.116.372.116.612 0 .261-.045.507-.136.736a1.68 1.68 0 0 1-.392.596c-.17.168-.38.301-.628.4a2.348 2.348 0 0 1-.852.144c-.184 0-.365-.019-.544-.056a2.808 2.808 0 0 1-.516-.152 2.794 2.794 0 0 1-.46-.24 2.224 2.224 0 0 1-.384-.312l.316-.516a.317.317 0 0 1 .104-.092.252.252 0 0 1 .136-.04c.067 0 .139.028.216.084.078.053.17.113.276.18.107.067.23.128.372.184.144.053.316.08.516.08.307 0 .544-.072.712-.216.168-.147.252-.356.252-.628a.574.574 0 0 0-.116-.372.877.877 0 0 0-.3-.24 2.168 2.168 0 0 0-.428-.168c-.16-.045-.322-.095-.488-.148a4.21 4.21 0 0 1-.488-.192 1.582 1.582 0 0 1-.428-.292 1.359 1.359 0 0 1-.304-.448 1.76 1.76 0 0 1-.112-.668c0-.21.042-.416.124-.616.086-.2.208-.377.368-.532a1.79 1.79 0 0 1 .592-.372c.235-.093.504-.14.808-.14.342 0 .656.053.944.16.288.107.534.256.736.448l-.268.508Zm3.663 2.208a1.13 1.13 0 0 0-.056-.36.832.832 0 0 0-.16-.3.73.73 0 0 0-.276-.2.905.905 0 0 0-.384-.076c-.285 0-.51.081-.676.244-.162.163-.266.393-.312.692h1.864Zm-1.884.596c.016.21.054.393.112.548.059.152.136.279.232.38.096.099.21.173.34.224.134.048.28.072.44.072.16 0 .298-.019.412-.056.118-.037.219-.079.304-.124a4.98 4.98 0 0 0 .228-.124.394.394 0 0 1 .192-.056c.083 0 .144.03.184.092l.284.36a1.69 1.69 0 0 1-.368.324 2.19 2.19 0 0 1-.88.316c-.152.021-.3.032-.444.032-.285 0-.55-.047-.796-.14a1.818 1.818 0 0 1-.64-.42 1.996 1.996 0 0 1-.428-.688 2.68 2.68 0 0 1-.156-.952c0-.28.046-.543.136-.788a1.84 1.84 0 0 1 1.008-1.08c.246-.107.522-.16.828-.16.259 0 .498.041.716.124.219.083.407.204.564.364.158.157.28.352.368.584.09.23.136.492.136.788 0 .15-.016.25-.048.304-.032.05-.093.076-.184.076h-2.54ZM81.962 8.4c.082-.083.169-.159.26-.228a1.597 1.597 0 0 1 .624-.296c.117-.03.245-.044.384-.044.224 0 .422.039.596.116.173.075.317.181.432.32.117.136.205.3.264.492.061.19.092.399.092.628V12h-.988V9.388c0-.25-.058-.444-.172-.58-.115-.139-.29-.208-.524-.208a1.03 1.03 0 0 0-.48.116 1.72 1.72 0 0 0-.424.316V12h-.988V7.896h.604c.128 0 .212.06.252.18l.068.324Zm6.047.544a.968.968 0 0 0-.792-.372.944.944 0 0 0-.404.084.807.807 0 0 0-.308.256 1.2 1.2 0 0 0-.196.432 2.457 2.457 0 0 0-.068.616c0 .24.019.444.056.612.04.165.096.301.168.408.072.104.16.18.264.228.104.045.22.068.348.068.206 0 .38-.043.524-.128.144-.085.28-.207.408-.364v-1.84Zm.988-2.888V12h-.604c-.13 0-.213-.06-.248-.18l-.084-.396a2.06 2.06 0 0 1-.572.46 1.528 1.528 0 0 1-.748.176c-.224 0-.429-.047-.616-.14a1.398 1.398 0 0 1-.484-.404 2.024 2.024 0 0 1-.312-.66 3.381 3.381 0 0 1-.108-.896c0-.304.042-.587.124-.848.083-.261.202-.488.356-.68a1.64 1.64 0 0 1 .556-.448 1.59 1.59 0 0 1 .728-.164c.23 0 .426.036.588.108.163.072.308.17.436.292V6.056h.988Zm4.105 3.24c-.214.139-.37.296-.468.472a1.137 1.137 0 0 0-.068.956c.05.117.118.217.204.3.088.08.189.143.304.188.117.043.241.064.372.064.234 0 .449-.036.644-.108.194-.075.37-.177.528-.308l-1.516-1.564ZM96.954 12h-.968a.717.717 0 0 1-.248-.036.55.55 0 0 1-.196-.152l-.4-.412a2.897 2.897 0 0 1-1.872.664c-.222 0-.44-.037-.656-.112a1.828 1.828 0 0 1-.572-.332 1.698 1.698 0 0 1-.408-.52 1.543 1.543 0 0 1-.152-.692c0-.181.029-.352.088-.512.058-.163.14-.313.244-.452a1.89 1.89 0 0 1 .372-.372 2.48 2.48 0 0 1 .472-.288 2.236 2.236 0 0 1-.312-.584 1.8 1.8 0 0 1-.096-.572c0-.2.036-.39.108-.568.074-.181.181-.339.32-.472a1.49 1.49 0 0 1 .512-.316c.202-.08.432-.12.688-.12.234 0 .444.036.628.108.186.072.345.168.476.288.133.12.237.257.312.412.077.155.122.315.136.48l-.628.132c-.118.024-.203-.027-.256-.152a.891.891 0 0 0-.096-.196.629.629 0 0 0-.324-.276.653.653 0 0 0-.248-.044.717.717 0 0 0-.524.216.768.768 0 0 0-.184.5.943.943 0 0 0 .104.456c.037.075.085.152.144.232.061.077.136.161.224.252l1.536 1.596a2.96 2.96 0 0 0 .316-1.1.26.26 0 0 1 .064-.148.187.187 0 0 1 .144-.056h.616a3.493 3.493 0 0 1-.152 1.008 3.26 3.26 0 0 1-.424.884L96.954 12Zm-18.219 7.1v2.34a3.095 3.095 0 0 1-.94.476c-.33.099-.685.148-1.064.148-.472 0-.9-.073-1.284-.22a2.897 2.897 0 0 1-.98-.612 2.695 2.695 0 0 1-.624-.936 3.141 3.141 0 0 1-.22-1.188c0-.435.071-.833.212-1.196.142-.363.342-.675.6-.936a2.71 2.71 0 0 1 .948-.608 3.425 3.425 0 0 1 1.248-.216c.235 0 .454.019.656.056.206.037.395.09.568.156.176.064.336.143.48.236.144.093.276.196.396.308l-.308.488a.302.302 0 0 1-.188.144c-.077.016-.16-.004-.252-.06l-.264-.152a1.673 1.673 0 0 0-.296-.132 2.336 2.336 0 0 0-.364-.092 2.645 2.645 0 0 0-.464-.036c-.285 0-.544.048-.776.144a1.643 1.643 0 0 0-.588.412 1.858 1.858 0 0 0-.376.644c-.088.25-.132.53-.132.84 0 .33.047.627.14.888.096.259.23.479.4.66.174.179.382.316.624.412.243.093.514.14.812.14a2.2 2.2 0 0 0 .572-.068c.168-.045.332-.107.492-.184v-1.048h-.728a.231.231 0 0 1-.164-.056.204.204 0 0 1-.056-.144V19.1h1.92Zm1.746-3.044V22h-.988v-5.944h.988Zm2.68 1.776c.304 0 .58.05.828.148a1.796 1.796 0 0 1 1.052 1.084c.096.261.144.553.144.876 0 .325-.048.619-.144.88a1.872 1.872 0 0 1-.412.668 1.77 1.77 0 0 1-.64.424 2.221 2.221 0 0 1-.828.148c-.307 0-.585-.05-.836-.148a1.808 1.808 0 0 1-.644-.424 1.948 1.948 0 0 1-.412-.668 2.538 2.538 0 0 1-.144-.88c0-.323.048-.615.144-.876a1.91 1.91 0 0 1 .412-.664c.178-.181.393-.321.644-.42.25-.099.53-.148.836-.148Zm0 3.468c.341 0 .593-.115.756-.344.165-.23.248-.565.248-1.008 0-.443-.083-.78-.248-1.012-.163-.232-.415-.348-.756-.348-.347 0-.604.117-.772.352-.165.232-.248.568-.248 1.008 0 .44.082.776.248 1.008.168.23.425.344.772.344Zm3.646-.364a.978.978 0 0 0 .364.288c.133.056.273.084.42.084a.995.995 0 0 0 .408-.08.798.798 0 0 0 .312-.256 1.3 1.3 0 0 0 .196-.444c.045-.181.068-.397.068-.648 0-.45-.075-.776-.224-.976-.15-.203-.364-.304-.644-.304a.92.92 0 0 0-.496.132 1.587 1.587 0 0 0-.404.364v1.84Zm0-2.536c.165-.173.348-.31.548-.412.202-.104.433-.156.692-.156.237 0 .45.047.64.14.192.093.354.228.488.404.136.173.24.384.312.632.072.248.108.527.108.836 0 .333-.042.636-.124.908a2.086 2.086 0 0 1-.356.7 1.6 1.6 0 0 1-.552.448 1.6 1.6 0 0 1-.72.16 1.4 1.4 0 0 1-.636-.144 1.26 1.26 0 0 1-.244-.164 2.354 2.354 0 0 1-.208-.22l-.044.276c-.016.07-.044.119-.084.148a.247.247 0 0 1-.156.044h-.652v-5.944h.988V18.4Zm5.599 1.848a5.198 5.198 0 0 0-.72.076 1.87 1.87 0 0 0-.468.136.615.615 0 0 0-.252.196.426.426 0 0 0-.076.244c0 .173.05.297.152.372a.677.677 0 0 0 .404.112c.202 0 .377-.036.524-.108.149-.075.294-.187.436-.336v-.692Zm-2.264-1.78c.472-.432 1.04-.648 1.704-.648.24 0 .454.04.644.12a1.332 1.332 0 0 1 .776.828c.069.195.104.408.104.64V22h-.448a.472.472 0 0 1-.216-.04c-.051-.03-.091-.087-.12-.172l-.088-.296a3.898 3.898 0 0 1-.304.248c-.099.07-.202.128-.308.176a1.845 1.845 0 0 1-1.224.08 1.08 1.08 0 0 1-.38-.212.942.942 0 0 1-.248-.348 1.234 1.234 0 0 1-.088-.484.945.945 0 0 1 .22-.604c.08-.093.182-.181.308-.264.125-.083.278-.155.46-.216.184-.061.397-.11.64-.148.242-.04.52-.064.832-.072v-.24c0-.275-.059-.477-.176-.608-.118-.133-.287-.2-.508-.2-.16 0-.294.019-.4.056-.104.037-.196.08-.276.128l-.22.124a.421.421 0 0 1-.216.056.292.292 0 0 1-.176-.052.476.476 0 0 1-.116-.128l-.176-.316Zm5.038-2.412V22h-.988v-5.944h.988Z" fill="#DBDBDB"/><path opacity=".5" d="M102 2h-1v23h1V2Z" fill="#DBDBDB"/><path d="m117.062 14.816-.704-1.924a4.971 4.971 0 0 1-.108-.304 12.075 12.075 0 0 1-.112-.38 6.479 6.479 0 0 1-.216.692l-.7 1.916h1.84Zm1.9 2.184h-.832a.364.364 0 0 1-.228-.068.465.465 0 0 1-.132-.176l-.432-1.18h-2.396l-.432 1.18a.376.376 0 0 1-.352.244h-.84l2.276-5.784h1.096L118.962 17Zm1.315-5.944V17h-.988v-5.944h.988Zm1.864 0V17h-.988v-5.944h.988Z" fill="#DBDBDB"/><path d="M.5 30.5a3 3 0 0 1 3-3h128a3 3 0 0 1 3 3v20a3 3 0 0 1-3 3H3.5a3 3 0 0 1-3-3v-20Z" fill="url(#b)"/><path d="M17.282 41.108c0 .424-.07.817-.212 1.18-.138.36-.336.672-.592.936-.256.264-.564.47-.924.62-.36.147-.76.22-1.2.22-.437 0-.836-.073-1.196-.22a2.78 2.78 0 0 1-.928-.62 2.795 2.795 0 0 1-.596-.936 3.223 3.223 0 0 1-.212-1.18c0-.424.071-.816.212-1.176.142-.363.34-.676.596-.94.26-.264.568-.47.928-.616.36-.15.76-.224 1.196-.224.294 0 .57.035.828.104.26.067.496.163.712.288.216.123.41.273.58.452.174.176.32.373.44.592.12.219.211.456.272.712.064.256.096.525.096.808Zm-1.1 0c0-.317-.042-.601-.128-.852a1.828 1.828 0 0 0-.364-.644 1.554 1.554 0 0 0-.576-.404 1.96 1.96 0 0 0-.76-.14 1.99 1.99 0 0 0-.764.14 1.6 1.6 0 0 0-.576.404c-.157.176-.278.39-.364.644-.085.25-.128.535-.128.852 0 .317.043.603.128.856.086.25.207.464.364.64.16.173.352.307.576.4a2 2 0 0 0 .764.14c.283 0 .536-.047.76-.14.227-.093.42-.227.576-.4.158-.176.28-.39.364-.64.086-.253.128-.539.128-.856ZM18.192 44v-3.36l-.355-.056a.451.451 0 0 1-.189-.08.212.212 0 0 1-.067-.168v-.404h.611V39.7c0-.235.035-.445.105-.632a1.35 1.35 0 0 1 .303-.476c.134-.13.295-.23.484-.3.19-.07.403-.104.64-.104.19 0 .366.025.529.076l-.02.492a.166.166 0 0 1-.032.092.183.183 0 0 1-.076.056.496.496 0 0 1-.105.024c-.04.003-.082.004-.128.004-.117 0-.222.013-.316.04a.504.504 0 0 0-.232.132.597.597 0 0 0-.148.248 1.28 1.28 0 0 0-.048.38v.2h1.637v-.364c0-.235.034-.445.104-.632a1.35 1.35 0 0 1 .303-.476c.134-.13.295-.23.485-.3.189-.07.402-.104.64-.104.093 0 .182.007.267.02.088.01.175.028.26.052l-.024.496c-.005.077-.04.127-.108.148a.819.819 0 0 1-.227.028c-.118 0-.223.013-.316.04a.504.504 0 0 0-.233.132.597.597 0 0 0-.148.248 1.28 1.28 0 0 0-.047.38v.332h1.064v.704h-1.032V44h-.988v-3.364H19.18V44h-.988Z" fill="#DBDBDB"/><path opacity=".75" d="M33 29v23h1V29h-1Z" fill="#DBDBDB"/><path d="M45.552 39.268a.382.382 0 0 1-.104.124.226.226 0 0 1-.132.036.364.364 0 0 1-.184-.06 3.505 3.505 0 0 0-.232-.14 1.798 1.798 0 0 0-.32-.136 1.279 1.279 0 0 0-.428-.064c-.15 0-.28.019-.392.056a.821.821 0 0 0-.284.148.606.606 0 0 0-.168.232.74.74 0 0 0-.056.292c0 .136.038.25.112.34.078.09.179.168.304.232.126.064.268.121.428.172.16.05.324.105.492.164.168.056.332.123.492.2.16.075.303.17.428.288.126.115.226.256.3.424.078.168.116.372.116.612 0 .261-.045.507-.136.736a1.68 1.68 0 0 1-.392.596c-.17.168-.38.301-.628.4a2.348 2.348 0 0 1-.852.144c-.184 0-.365-.019-.544-.056a2.808 2.808 0 0 1-.516-.152 2.794 2.794 0 0 1-.46-.24 2.224 2.224 0 0 1-.384-.312l.316-.516a.317.317 0 0 1 .104-.092.252.252 0 0 1 .136-.04c.067 0 .139.028.216.084.078.053.17.113.276.18.107.067.23.128.372.184.144.053.316.08.516.08.307 0 .544-.072.712-.216.168-.147.252-.356.252-.628a.574.574 0 0 0-.116-.372.877.877 0 0 0-.3-.24 2.164 2.164 0 0 0-.428-.168c-.16-.045-.322-.095-.488-.148a4.199 4.199 0 0 1-.488-.192 1.583 1.583 0 0 1-.428-.292 1.358 1.358 0 0 1-.304-.448 1.759 1.759 0 0 1-.112-.668c0-.21.042-.416.124-.616.086-.2.208-.377.368-.532a1.79 1.79 0 0 1 .592-.372c.235-.093.504-.14.808-.14.342 0 .656.053.944.16.288.107.534.256.736.448l-.268.508Zm3.663 2.208a1.13 1.13 0 0 0-.056-.36.831.831 0 0 0-.16-.3.731.731 0 0 0-.276-.2.905.905 0 0 0-.384-.076c-.285 0-.51.081-.676.244-.162.163-.266.393-.312.692h1.864Zm-1.884.596c.016.21.054.393.112.548.059.152.136.279.232.38.096.099.21.173.34.224.134.048.28.072.44.072.16 0 .298-.019.412-.056.118-.037.219-.079.304-.124.088-.045.164-.087.228-.124a.394.394 0 0 1 .192-.056c.083 0 .144.03.184.092l.284.36a1.69 1.69 0 0 1-.368.324 2.186 2.186 0 0 1-.88.316c-.152.021-.3.032-.444.032-.285 0-.55-.047-.796-.14a1.818 1.818 0 0 1-.64-.42 1.996 1.996 0 0 1-.428-.688 2.68 2.68 0 0 1-.156-.952c0-.28.046-.543.136-.788a1.84 1.84 0 0 1 1.008-1.08c.246-.107.522-.16.828-.16.259 0 .498.041.716.124.219.083.407.204.564.364.158.157.28.352.368.584.09.23.136.492.136.788 0 .15-.016.25-.048.304-.032.05-.093.076-.184.076h-2.54ZM51.65 40.4c.082-.083.169-.159.26-.228a1.594 1.594 0 0 1 .624-.296c.117-.03.245-.044.384-.044.224 0 .422.039.596.116.173.075.317.181.432.32.117.136.205.3.264.492.061.19.092.399.092.628V44h-.988v-2.612c0-.25-.058-.444-.172-.58-.115-.139-.29-.208-.524-.208a1.03 1.03 0 0 0-.48.116c-.15.077-.291.183-.424.316V44h-.988v-4.104h.604c.128 0 .212.06.252.18l.068.324Zm6.047.544a.968.968 0 0 0-.792-.372.944.944 0 0 0-.404.084.806.806 0 0 0-.308.256 1.2 1.2 0 0 0-.196.432 2.457 2.457 0 0 0-.068.616c0 .24.019.444.056.612.04.165.096.301.168.408.072.104.16.18.264.228.104.045.22.068.348.068.206 0 .38-.043.524-.128.144-.085.28-.207.408-.364v-1.84Zm.988-2.888V44h-.604c-.13 0-.213-.06-.248-.18l-.084-.396a2.06 2.06 0 0 1-.572.46 1.528 1.528 0 0 1-.748.176c-.224 0-.429-.047-.616-.14a1.398 1.398 0 0 1-.484-.404 2.024 2.024 0 0 1-.312-.66 3.381 3.381 0 0 1-.108-.896c0-.304.042-.587.124-.848.083-.261.202-.488.356-.68a1.64 1.64 0 0 1 .556-.448 1.59 1.59 0 0 1 .728-.164c.23 0 .426.036.588.108.163.072.308.17.436.292v-2.164h.988Z" fill="#FF9000"/><path opacity=".75" d="M67 29v23h1V29h-1Z" fill="#DBDBDB"/><path d="M75.865 34.268a.382.382 0 0 1-.104.124.226.226 0 0 1-.132.036.364.364 0 0 1-.184-.06 3.505 3.505 0 0 0-.232-.14 1.798 1.798 0 0 0-.32-.136 1.279 1.279 0 0 0-.428-.064c-.15 0-.28.019-.392.056a.821.821 0 0 0-.284.148.606.606 0 0 0-.168.232.74.74 0 0 0-.056.292c0 .136.038.25.112.34.078.09.179.168.304.232.126.064.268.121.428.172.16.05.324.105.492.164.168.056.332.123.492.2.16.075.303.17.428.288.126.115.226.256.3.424.078.168.116.372.116.612 0 .261-.045.507-.136.736a1.68 1.68 0 0 1-.392.596c-.17.168-.38.301-.628.4a2.348 2.348 0 0 1-.852.144c-.184 0-.365-.019-.544-.056a2.808 2.808 0 0 1-.516-.152 2.794 2.794 0 0 1-.46-.24 2.224 2.224 0 0 1-.384-.312l.316-.516a.317.317 0 0 1 .104-.092.252.252 0 0 1 .136-.04c.067 0 .139.028.216.084.078.053.17.113.276.18.107.067.23.128.372.184.144.053.316.08.516.08.307 0 .544-.072.712-.216.168-.147.252-.356.252-.628a.574.574 0 0 0-.116-.372.877.877 0 0 0-.3-.24 2.164 2.164 0 0 0-.428-.168c-.16-.045-.322-.095-.488-.148a4.199 4.199 0 0 1-.488-.192 1.583 1.583 0 0 1-.428-.292 1.358 1.358 0 0 1-.304-.448 1.759 1.759 0 0 1-.112-.668c0-.21.042-.416.124-.616.086-.2.208-.377.368-.532a1.79 1.79 0 0 1 .592-.372c.235-.093.504-.14.808-.14.342 0 .656.053.944.16.288.107.534.256.736.448l-.268.508Zm3.663 2.208a1.13 1.13 0 0 0-.056-.36.831.831 0 0 0-.16-.3.731.731 0 0 0-.276-.2.905.905 0 0 0-.384-.076c-.285 0-.51.081-.676.244-.162.163-.266.393-.312.692h1.864Zm-1.884.596c.016.21.054.393.112.548.059.152.136.279.232.38.096.099.21.173.34.224.134.048.28.072.44.072.16 0 .298-.019.412-.056.118-.037.219-.079.304-.124a4.98 4.98 0 0 0 .228-.124.394.394 0 0 1 .192-.056c.083 0 .144.03.184.092l.284.36a1.69 1.69 0 0 1-.368.324 2.19 2.19 0 0 1-.88.316c-.152.021-.3.032-.444.032-.285 0-.55-.047-.796-.14a1.818 1.818 0 0 1-.64-.42 1.996 1.996 0 0 1-.428-.688 2.68 2.68 0 0 1-.156-.952c0-.28.046-.543.136-.788a1.84 1.84 0 0 1 1.008-1.08c.246-.107.522-.16.828-.16.259 0 .498.041.716.124.219.083.407.204.564.364.158.157.28.352.368.584.09.23.136.492.136.788 0 .15-.016.25-.048.304-.032.05-.093.076-.184.076h-2.54Zm4.318-1.672a2.6 2.6 0 0 1 .26-.228 1.597 1.597 0 0 1 .624-.296c.117-.03.245-.044.384-.044.224 0 .422.039.596.116.173.075.317.181.432.32.117.136.205.3.264.492.061.19.092.399.092.628V39h-.988v-2.612c0-.25-.058-.444-.172-.58-.115-.139-.29-.208-.524-.208a1.03 1.03 0 0 0-.48.116 1.72 1.72 0 0 0-.424.316V39h-.988v-4.104h.604c.128 0 .212.06.252.18l.068.324Zm6.047.544a.968.968 0 0 0-.792-.372.944.944 0 0 0-.404.084.806.806 0 0 0-.308.256 1.2 1.2 0 0 0-.196.432 2.457 2.457 0 0 0-.068.616c0 .24.019.444.056.612.04.165.096.301.168.408.072.104.16.18.264.228.104.045.22.068.348.068.206 0 .38-.043.524-.128.144-.085.28-.207.408-.364v-1.84Zm.988-2.888V39h-.604c-.13 0-.213-.06-.248-.18l-.084-.396a2.06 2.06 0 0 1-.572.46 1.528 1.528 0 0 1-.748.176c-.224 0-.429-.047-.616-.14a1.398 1.398 0 0 1-.484-.404 2.024 2.024 0 0 1-.312-.66 3.381 3.381 0 0 1-.108-.896c0-.304.042-.587.124-.848.083-.261.202-.488.356-.68a1.64 1.64 0 0 1 .556-.448 1.59 1.59 0 0 1 .728-.164c.23 0 .426.036.588.108.163.072.308.17.436.292v-2.164h.988Zm4.105 3.24c-.214.139-.37.296-.468.472a1.137 1.137 0 0 0-.068.956c.05.117.118.217.204.3.088.08.189.143.304.188.117.043.241.064.372.064.234 0 .449-.036.644-.108.194-.075.37-.177.528-.308l-1.516-1.564ZM96.954 39h-.968a.717.717 0 0 1-.248-.036.55.55 0 0 1-.196-.152l-.4-.412a2.897 2.897 0 0 1-1.872.664c-.222 0-.44-.037-.656-.112a1.828 1.828 0 0 1-.572-.332 1.698 1.698 0 0 1-.408-.52 1.543 1.543 0 0 1-.152-.692c0-.181.029-.352.088-.512.058-.163.14-.313.244-.452.104-.139.228-.263.372-.372a2.48 2.48 0 0 1 .472-.288 2.236 2.236 0 0 1-.312-.584 1.8 1.8 0 0 1-.096-.572c0-.2.036-.39.108-.568.074-.181.181-.339.32-.472a1.49 1.49 0 0 1 .512-.316c.202-.08.432-.12.688-.12.234 0 .444.036.628.108.186.072.345.168.476.288.133.12.237.257.312.412.077.155.122.315.136.48l-.628.132c-.118.024-.203-.027-.256-.152a.891.891 0 0 0-.096-.196.628.628 0 0 0-.324-.276.654.654 0 0 0-.248-.044.717.717 0 0 0-.524.216.768.768 0 0 0-.184.5.943.943 0 0 0 .104.456c.037.075.085.152.144.232.061.077.136.161.224.252l1.536 1.596a2.96 2.96 0 0 0 .316-1.1.26.26 0 0 1 .064-.148.187.187 0 0 1 .144-.056h.616a3.493 3.493 0 0 1-.152 1.008 3.26 3.26 0 0 1-.424.884L96.954 39Zm-18.219 7.1v2.34a3.095 3.095 0 0 1-.94.476c-.33.099-.685.148-1.064.148-.472 0-.9-.073-1.284-.22a2.897 2.897 0 0 1-.98-.612 2.695 2.695 0 0 1-.624-.936 3.141 3.141 0 0 1-.22-1.188c0-.435.071-.833.212-1.196.142-.363.342-.675.6-.936a2.71 2.71 0 0 1 .948-.608 3.425 3.425 0 0 1 1.248-.216c.235 0 .454.019.656.056.206.037.395.09.568.156.176.064.336.143.48.236.144.093.276.196.396.308l-.308.488a.302.302 0 0 1-.188.144c-.077.016-.16-.004-.252-.06l-.264-.152a1.673 1.673 0 0 0-.296-.132 2.336 2.336 0 0 0-.364-.092 2.645 2.645 0 0 0-.464-.036c-.285 0-.544.048-.776.144a1.643 1.643 0 0 0-.588.412 1.858 1.858 0 0 0-.376.644c-.088.25-.132.53-.132.84 0 .33.047.627.14.888.096.259.23.479.4.66.174.179.382.316.624.412.243.093.514.14.812.14a2.2 2.2 0 0 0 .572-.068c.168-.045.332-.107.492-.184v-1.048h-.728a.231.231 0 0 1-.164-.056.204.204 0 0 1-.056-.144V46.1h1.92Zm1.746-3.044V49h-.988v-5.944h.988Zm2.68 1.776c.304 0 .58.05.828.148a1.796 1.796 0 0 1 1.052 1.084c.096.261.144.553.144.876 0 .325-.048.619-.144.88a1.872 1.872 0 0 1-.412.668 1.77 1.77 0 0 1-.64.424 2.221 2.221 0 0 1-.828.148c-.307 0-.585-.05-.836-.148a1.808 1.808 0 0 1-.644-.424 1.948 1.948 0 0 1-.412-.668 2.538 2.538 0 0 1-.144-.88c0-.323.048-.615.144-.876a1.91 1.91 0 0 1 .412-.664c.178-.181.393-.321.644-.42.25-.099.53-.148.836-.148Zm0 3.468c.341 0 .593-.115.756-.344.165-.23.248-.565.248-1.008 0-.443-.083-.78-.248-1.012-.163-.232-.415-.348-.756-.348-.347 0-.604.117-.772.352-.165.232-.248.568-.248 1.008 0 .44.082.776.248 1.008.168.23.425.344.772.344Zm3.646-.364a.978.978 0 0 0 .364.288c.133.056.273.084.42.084a.995.995 0 0 0 .408-.08.798.798 0 0 0 .312-.256 1.3 1.3 0 0 0 .196-.444c.045-.181.068-.397.068-.648 0-.45-.075-.776-.224-.976-.15-.203-.364-.304-.644-.304a.92.92 0 0 0-.496.132 1.587 1.587 0 0 0-.404.364v1.84Zm0-2.536c.165-.173.348-.31.548-.412.202-.104.433-.156.692-.156.237 0 .45.047.64.14.192.093.354.228.488.404.136.173.24.384.312.632.072.248.108.527.108.836 0 .333-.042.636-.124.908a2.086 2.086 0 0 1-.356.7 1.6 1.6 0 0 1-.552.448 1.6 1.6 0 0 1-.72.16 1.4 1.4 0 0 1-.636-.144 1.26 1.26 0 0 1-.244-.164 2.354 2.354 0 0 1-.208-.22l-.044.276c-.016.07-.044.119-.084.148a.247.247 0 0 1-.156.044h-.652v-5.944h.988V45.4Zm5.599 1.848a5.198 5.198 0 0 0-.72.076 1.87 1.87 0 0 0-.468.136.615.615 0 0 0-.252.196.426.426 0 0 0-.076.244c0 .173.05.297.152.372a.677.677 0 0 0 .404.112c.202 0 .377-.036.524-.108.149-.075.294-.187.436-.336v-.692Zm-2.264-1.78c.472-.432 1.04-.648 1.704-.648.24 0 .454.04.644.12a1.332 1.332 0 0 1 .776.828c.069.195.104.408.104.64V49h-.448a.472.472 0 0 1-.216-.04c-.051-.03-.091-.087-.12-.172l-.088-.296a3.898 3.898 0 0 1-.304.248c-.099.07-.202.128-.308.176a1.845 1.845 0 0 1-1.224.08 1.08 1.08 0 0 1-.38-.212.942.942 0 0 1-.248-.348 1.234 1.234 0 0 1-.088-.484.945.945 0 0 1 .22-.604c.08-.093.182-.181.308-.264.125-.083.278-.155.46-.216.184-.061.397-.11.64-.148.242-.04.52-.064.832-.072v-.24c0-.275-.059-.477-.176-.608-.118-.133-.287-.2-.508-.2-.16 0-.294.019-.4.056-.104.037-.196.08-.276.128l-.22.124a.421.421 0 0 1-.216.056.292.292 0 0 1-.176-.052.476.476 0 0 1-.116-.128l-.176-.316Zm5.038-2.412V49h-.988v-5.944h.988Z" fill="#DBDBDB"/><path opacity=".5" d="M102 29h-1v23h1V29Z" fill="#DBDBDB"/><path d="m117.062 41.816-.704-1.924a4.971 4.971 0 0 1-.108-.304 12.075 12.075 0 0 1-.112-.38 6.479 6.479 0 0 1-.216.692l-.7 1.916h1.84Zm1.9 2.184h-.832a.364.364 0 0 1-.228-.068.465.465 0 0 1-.132-.176l-.432-1.18h-2.396l-.432 1.18a.376.376 0 0 1-.352.244h-.84l2.276-5.784h1.096L118.962 44Zm1.315-5.944V44h-.988v-5.944h.988Zm1.864 0V44h-.988v-5.944h.988Z" fill="#DBDBDB"/><path d="M.5 57.5a3 3 0 0 1 3-3h128a3 3 0 0 1 3 3v20a3 3 0 0 1-3 3H3.5a3 3 0 0 1-3-3v-20Z" fill="url(#c)"/><path d="M17.282 68.108c0 .424-.07.817-.212 1.18-.138.36-.336.672-.592.936-.256.264-.564.47-.924.62-.36.147-.76.22-1.2.22-.437 0-.836-.073-1.196-.22a2.78 2.78 0 0 1-.928-.62 2.795 2.795 0 0 1-.596-.936 3.223 3.223 0 0 1-.212-1.18c0-.424.071-.816.212-1.176.142-.363.34-.676.596-.94.26-.264.568-.47.928-.616.36-.15.76-.224 1.196-.224.294 0 .57.035.828.104.26.067.496.163.712.288.216.123.41.273.58.452.174.176.32.373.44.592.12.219.211.456.272.712.064.256.096.525.096.808Zm-1.1 0c0-.317-.042-.601-.128-.852a1.828 1.828 0 0 0-.364-.644 1.554 1.554 0 0 0-.576-.404 1.96 1.96 0 0 0-.76-.14 1.99 1.99 0 0 0-.764.14 1.6 1.6 0 0 0-.576.404c-.157.176-.278.39-.364.644-.085.25-.128.535-.128.852 0 .317.043.603.128.856.086.25.207.464.364.64.16.173.352.307.576.4a2 2 0 0 0 .764.14c.283 0 .536-.047.76-.14.227-.093.42-.227.576-.4.158-.176.28-.39.364-.64.086-.253.128-.539.128-.856ZM18.192 71v-3.36l-.355-.056a.451.451 0 0 1-.189-.08.212.212 0 0 1-.067-.168v-.404h.611V66.7c0-.235.035-.445.105-.632a1.35 1.35 0 0 1 .303-.476c.134-.13.295-.23.484-.3.19-.07.403-.104.64-.104.19 0 .366.025.529.076l-.02.492a.166.166 0 0 1-.032.092.183.183 0 0 1-.076.056.496.496 0 0 1-.105.024c-.04.003-.082.004-.128.004-.117 0-.222.013-.316.04a.504.504 0 0 0-.232.132.597.597 0 0 0-.148.248 1.28 1.28 0 0 0-.048.38v.2h1.637v-.364c0-.235.034-.445.104-.632a1.35 1.35 0 0 1 .303-.476c.134-.13.295-.23.485-.3.189-.07.402-.104.64-.104.093 0 .182.007.267.02.088.01.175.028.26.052l-.024.496c-.005.077-.04.127-.108.148a.819.819 0 0 1-.227.028c-.118 0-.223.013-.316.04a.504.504 0 0 0-.233.132.597.597 0 0 0-.148.248 1.28 1.28 0 0 0-.047.38v.332h1.064v.704h-1.032V71h-.988v-3.364H19.18V71h-.988Z" fill="#DBDBDB"/><path opacity=".75" d="M33 56v23h1V56h-1Z" fill="#DBDBDB"/><path d="M45.552 66.268a.382.382 0 0 1-.104.124.226.226 0 0 1-.132.036.364.364 0 0 1-.184-.06 3.505 3.505 0 0 0-.232-.14 1.798 1.798 0 0 0-.32-.136 1.279 1.279 0 0 0-.428-.064c-.15 0-.28.019-.392.056a.821.821 0 0 0-.284.148.606.606 0 0 0-.168.232.74.74 0 0 0-.056.292c0 .136.038.25.112.34.078.09.179.168.304.232.126.064.268.121.428.172.16.05.324.105.492.164.168.056.332.123.492.2.16.075.303.17.428.288.126.115.226.256.3.424.078.168.116.372.116.612 0 .261-.045.507-.136.736a1.68 1.68 0 0 1-.392.596c-.17.168-.38.301-.628.4a2.348 2.348 0 0 1-.852.144c-.184 0-.365-.019-.544-.056a2.808 2.808 0 0 1-.516-.152 2.794 2.794 0 0 1-.46-.24 2.224 2.224 0 0 1-.384-.312l.316-.516a.317.317 0 0 1 .104-.092.252.252 0 0 1 .136-.04c.067 0 .139.028.216.084.078.053.17.113.276.18.107.067.23.128.372.184.144.053.316.08.516.08.307 0 .544-.072.712-.216.168-.147.252-.356.252-.628a.574.574 0 0 0-.116-.372.877.877 0 0 0-.3-.24 2.164 2.164 0 0 0-.428-.168c-.16-.045-.322-.095-.488-.148a4.199 4.199 0 0 1-.488-.192 1.583 1.583 0 0 1-.428-.292 1.358 1.358 0 0 1-.304-.448 1.759 1.759 0 0 1-.112-.668c0-.21.042-.416.124-.616.086-.2.208-.377.368-.532a1.79 1.79 0 0 1 .592-.372c.235-.093.504-.14.808-.14.342 0 .656.053.944.16.288.107.534.256.736.448l-.268.508Zm3.663 2.208a1.13 1.13 0 0 0-.056-.36.831.831 0 0 0-.16-.3.731.731 0 0 0-.276-.2.905.905 0 0 0-.384-.076c-.285 0-.51.081-.676.244-.162.163-.266.393-.312.692h1.864Zm-1.884.596c.016.21.054.393.112.548.059.152.136.279.232.38.096.099.21.173.34.224.134.048.28.072.44.072.16 0 .298-.019.412-.056.118-.037.219-.079.304-.124.088-.045.164-.087.228-.124a.394.394 0 0 1 .192-.056c.083 0 .144.03.184.092l.284.36a1.69 1.69 0 0 1-.368.324 2.186 2.186 0 0 1-.88.316c-.152.021-.3.032-.444.032-.285 0-.55-.047-.796-.14a1.818 1.818 0 0 1-.64-.42 1.996 1.996 0 0 1-.428-.688 2.68 2.68 0 0 1-.156-.952c0-.28.046-.543.136-.788a1.84 1.84 0 0 1 1.008-1.08c.246-.107.522-.16.828-.16.259 0 .498.041.716.124.219.083.407.204.564.364.158.157.28.352.368.584.09.23.136.492.136.788 0 .15-.016.25-.048.304-.032.05-.093.076-.184.076h-2.54ZM51.65 67.4c.082-.083.169-.159.26-.228a1.594 1.594 0 0 1 .624-.296c.117-.03.245-.044.384-.044.224 0 .422.039.596.116.173.075.317.181.432.32.117.136.205.3.264.492.061.19.092.399.092.628V71h-.988v-2.612c0-.25-.058-.444-.172-.58-.115-.139-.29-.208-.524-.208a1.03 1.03 0 0 0-.48.116c-.15.077-.291.183-.424.316V71h-.988v-4.104h.604c.128 0 .212.06.252.18l.068.324Zm6.047.544a.968.968 0 0 0-.792-.372.944.944 0 0 0-.404.084.806.806 0 0 0-.308.256 1.2 1.2 0 0 0-.196.432 2.457 2.457 0 0 0-.068.616c0 .24.019.444.056.612.04.165.096.301.168.408.072.104.16.18.264.228.104.045.22.068.348.068.206 0 .38-.043.524-.128.144-.085.28-.207.408-.364v-1.84Zm.988-2.888V71h-.604c-.13 0-.213-.06-.248-.18l-.084-.396a2.06 2.06 0 0 1-.572.46 1.528 1.528 0 0 1-.748.176c-.224 0-.429-.047-.616-.14a1.398 1.398 0 0 1-.484-.404 2.024 2.024 0 0 1-.312-.66 3.381 3.381 0 0 1-.108-.896c0-.304.042-.587.124-.848.083-.261.202-.488.356-.68a1.64 1.64 0 0 1 .556-.448 1.59 1.59 0 0 1 .728-.164c.23 0 .426.036.588.108.163.072.308.17.436.292v-2.164h.988Z" fill="#DBDBDB"/><path opacity=".75" d="M67 56v23h1V56h-1Z" fill="#DBDBDB"/><path d="M75.865 61.268a.382.382 0 0 1-.104.124.226.226 0 0 1-.132.036.364.364 0 0 1-.184-.06 3.505 3.505 0 0 0-.232-.14 1.798 1.798 0 0 0-.32-.136 1.279 1.279 0 0 0-.428-.064c-.15 0-.28.019-.392.056a.821.821 0 0 0-.284.148.606.606 0 0 0-.168.232.74.74 0 0 0-.056.292c0 .136.038.25.112.34.078.09.179.168.304.232.126.064.268.121.428.172.16.05.324.105.492.164.168.056.332.123.492.2.16.075.303.17.428.288.126.115.226.256.3.424.078.168.116.372.116.612 0 .261-.045.507-.136.736a1.68 1.68 0 0 1-.392.596c-.17.168-.38.301-.628.4a2.348 2.348 0 0 1-.852.144c-.184 0-.365-.019-.544-.056a2.808 2.808 0 0 1-.516-.152 2.794 2.794 0 0 1-.46-.24 2.224 2.224 0 0 1-.384-.312l.316-.516a.317.317 0 0 1 .104-.092.252.252 0 0 1 .136-.04c.067 0 .139.028.216.084.078.053.17.113.276.18.107.067.23.128.372.184.144.053.316.08.516.08.307 0 .544-.072.712-.216.168-.147.252-.356.252-.628a.574.574 0 0 0-.116-.372.877.877 0 0 0-.3-.24 2.164 2.164 0 0 0-.428-.168c-.16-.045-.322-.095-.488-.148a4.199 4.199 0 0 1-.488-.192 1.583 1.583 0 0 1-.428-.292 1.358 1.358 0 0 1-.304-.448 1.759 1.759 0 0 1-.112-.668c0-.21.042-.416.124-.616.086-.2.208-.377.368-.532a1.79 1.79 0 0 1 .592-.372c.235-.093.504-.14.808-.14.342 0 .656.053.944.16.288.107.534.256.736.448l-.268.508Zm3.663 2.208a1.13 1.13 0 0 0-.056-.36.831.831 0 0 0-.16-.3.731.731 0 0 0-.276-.2.905.905 0 0 0-.384-.076c-.285 0-.51.081-.676.244-.162.163-.266.393-.312.692h1.864Zm-1.884.596c.016.21.054.393.112.548.059.152.136.279.232.38.096.099.21.173.34.224.134.048.28.072.44.072.16 0 .298-.019.412-.056.118-.037.219-.079.304-.124a4.98 4.98 0 0 0 .228-.124.394.394 0 0 1 .192-.056c.083 0 .144.03.184.092l.284.36a1.69 1.69 0 0 1-.368.324 2.19 2.19 0 0 1-.88.316c-.152.021-.3.032-.444.032-.285 0-.55-.047-.796-.14a1.818 1.818 0 0 1-.64-.42 1.996 1.996 0 0 1-.428-.688 2.68 2.68 0 0 1-.156-.952c0-.28.046-.543.136-.788a1.84 1.84 0 0 1 1.008-1.08c.246-.107.522-.16.828-.16.259 0 .498.041.716.124.219.083.407.204.564.364.158.157.28.352.368.584.09.23.136.492.136.788 0 .15-.016.25-.048.304-.032.05-.093.076-.184.076h-2.54Zm4.318-1.672a2.6 2.6 0 0 1 .26-.228 1.597 1.597 0 0 1 .624-.296c.117-.03.245-.044.384-.044.224 0 .422.039.596.116.173.075.317.181.432.32.117.136.205.3.264.492.061.19.092.399.092.628V66h-.988v-2.612c0-.25-.058-.444-.172-.58-.115-.139-.29-.208-.524-.208a1.03 1.03 0 0 0-.48.116 1.72 1.72 0 0 0-.424.316V66h-.988v-4.104h.604c.128 0 .212.06.252.18l.068.324Zm6.047.544a.968.968 0 0 0-.792-.372.944.944 0 0 0-.404.084.806.806 0 0 0-.308.256 1.2 1.2 0 0 0-.196.432 2.457 2.457 0 0 0-.068.616c0 .24.019.444.056.612.04.165.096.301.168.408.072.104.16.18.264.228.104.045.22.068.348.068.206 0 .38-.043.524-.128.144-.085.28-.207.408-.364v-1.84Zm.988-2.888V66h-.604c-.13 0-.213-.06-.248-.18l-.084-.396a2.06 2.06 0 0 1-.572.46 1.528 1.528 0 0 1-.748.176c-.224 0-.429-.047-.616-.14a1.398 1.398 0 0 1-.484-.404 2.024 2.024 0 0 1-.312-.66 3.381 3.381 0 0 1-.108-.896c0-.304.042-.587.124-.848.083-.261.202-.488.356-.68a1.64 1.64 0 0 1 .556-.448 1.59 1.59 0 0 1 .728-.164c.23 0 .426.036.588.108.163.072.308.17.436.292v-2.164h.988Zm4.105 3.24c-.214.139-.37.296-.468.472a1.137 1.137 0 0 0-.068.956c.05.117.118.217.204.3.088.08.189.143.304.188.117.043.241.064.372.064.234 0 .449-.036.644-.108.194-.075.37-.177.528-.308l-1.516-1.564ZM96.954 66h-.968a.717.717 0 0 1-.248-.036.55.55 0 0 1-.196-.152l-.4-.412a2.897 2.897 0 0 1-1.872.664c-.222 0-.44-.037-.656-.112a1.828 1.828 0 0 1-.572-.332 1.698 1.698 0 0 1-.408-.52 1.543 1.543 0 0 1-.152-.692c0-.181.029-.352.088-.512.058-.163.14-.313.244-.452.104-.139.228-.263.372-.372a2.48 2.48 0 0 1 .472-.288 2.236 2.236 0 0 1-.312-.584 1.8 1.8 0 0 1-.096-.572c0-.2.036-.39.108-.568.074-.181.181-.339.32-.472a1.49 1.49 0 0 1 .512-.316c.202-.08.432-.12.688-.12.234 0 .444.036.628.108.186.072.345.168.476.288.133.12.237.257.312.412.077.155.122.315.136.48l-.628.132c-.118.024-.203-.027-.256-.152a.891.891 0 0 0-.096-.196.628.628 0 0 0-.324-.276.654.654 0 0 0-.248-.044.717.717 0 0 0-.524.216.768.768 0 0 0-.184.5.943.943 0 0 0 .104.456c.037.075.085.152.144.232.061.077.136.161.224.252l1.536 1.596a2.96 2.96 0 0 0 .316-1.1.26.26 0 0 1 .064-.148.187.187 0 0 1 .144-.056h.616a3.493 3.493 0 0 1-.152 1.008 3.26 3.26 0 0 1-.424.884L96.954 66Zm-18.219 7.1v2.34a3.095 3.095 0 0 1-.94.476c-.33.099-.685.148-1.064.148-.472 0-.9-.073-1.284-.22a2.897 2.897 0 0 1-.98-.612 2.695 2.695 0 0 1-.624-.936 3.141 3.141 0 0 1-.22-1.188c0-.435.071-.833.212-1.196.142-.363.342-.675.6-.936a2.71 2.71 0 0 1 .948-.608 3.425 3.425 0 0 1 1.248-.216c.235 0 .454.019.656.056.206.037.395.09.568.156.176.064.336.143.48.236.144.093.276.196.396.308l-.308.488a.302.302 0 0 1-.188.144c-.077.016-.16-.004-.252-.06l-.264-.152a1.673 1.673 0 0 0-.296-.132 2.336 2.336 0 0 0-.364-.092 2.645 2.645 0 0 0-.464-.036c-.285 0-.544.048-.776.144a1.643 1.643 0 0 0-.588.412 1.858 1.858 0 0 0-.376.644c-.088.25-.132.53-.132.84 0 .33.047.627.14.888.096.259.23.479.4.66.174.179.382.316.624.412.243.093.514.14.812.14a2.2 2.2 0 0 0 .572-.068c.168-.045.332-.107.492-.184v-1.048h-.728a.231.231 0 0 1-.164-.056.204.204 0 0 1-.056-.144V73.1h1.92Zm1.746-3.044V76h-.988v-5.944h.988Zm2.68 1.776c.304 0 .58.05.828.148a1.796 1.796 0 0 1 1.052 1.084c.096.261.144.553.144.876 0 .325-.048.619-.144.88a1.872 1.872 0 0 1-.412.668 1.77 1.77 0 0 1-.64.424 2.221 2.221 0 0 1-.828.148c-.307 0-.585-.05-.836-.148a1.808 1.808 0 0 1-.644-.424 1.948 1.948 0 0 1-.412-.668 2.538 2.538 0 0 1-.144-.88c0-.323.048-.615.144-.876a1.91 1.91 0 0 1 .412-.664c.178-.181.393-.321.644-.42.25-.099.53-.148.836-.148Zm0 3.468c.341 0 .593-.115.756-.344.165-.23.248-.565.248-1.008 0-.443-.083-.78-.248-1.012-.163-.232-.415-.348-.756-.348-.347 0-.604.117-.772.352-.165.232-.248.568-.248 1.008 0 .44.082.776.248 1.008.168.23.425.344.772.344Zm3.646-.364a.978.978 0 0 0 .364.288c.133.056.273.084.42.084a.995.995 0 0 0 .408-.08.798.798 0 0 0 .312-.256 1.3 1.3 0 0 0 .196-.444c.045-.181.068-.397.068-.648 0-.45-.075-.776-.224-.976-.15-.203-.364-.304-.644-.304a.92.92 0 0 0-.496.132 1.587 1.587 0 0 0-.404.364v1.84Zm0-2.536c.165-.173.348-.31.548-.412.202-.104.433-.156.692-.156.237 0 .45.047.64.14.192.093.354.228.488.404.136.173.24.384.312.632.072.248.108.527.108.836 0 .333-.042.636-.124.908a2.086 2.086 0 0 1-.356.7 1.6 1.6 0 0 1-.552.448 1.6 1.6 0 0 1-.72.16 1.4 1.4 0 0 1-.636-.144 1.26 1.26 0 0 1-.244-.164 2.354 2.354 0 0 1-.208-.22l-.044.276c-.016.07-.044.119-.084.148a.247.247 0 0 1-.156.044h-.652v-5.944h.988V72.4Zm5.599 1.848a5.198 5.198 0 0 0-.72.076 1.87 1.87 0 0 0-.468.136.615.615 0 0 0-.252.196.426.426 0 0 0-.076.244c0 .173.05.297.152.372a.677.677 0 0 0 .404.112c.202 0 .377-.036.524-.108.149-.075.294-.187.436-.336v-.692Zm-2.264-1.78c.472-.432 1.04-.648 1.704-.648.24 0 .454.04.644.12a1.332 1.332 0 0 1 .776.828c.069.195.104.408.104.64V76h-.448a.472.472 0 0 1-.216-.04c-.051-.03-.091-.087-.12-.172l-.088-.296a3.898 3.898 0 0 1-.304.248c-.099.07-.202.128-.308.176a1.845 1.845 0 0 1-1.224.08 1.08 1.08 0 0 1-.38-.212.942.942 0 0 1-.248-.348 1.234 1.234 0 0 1-.088-.484.945.945 0 0 1 .22-.604c.08-.093.182-.181.308-.264.125-.083.278-.155.46-.216.184-.061.397-.11.64-.148.242-.04.52-.064.832-.072v-.24c0-.275-.059-.477-.176-.608-.118-.133-.287-.2-.508-.2-.16 0-.294.019-.4.056-.104.037-.196.08-.276.128l-.22.124a.421.421 0 0 1-.216.056.292.292 0 0 1-.176-.052.476.476 0 0 1-.116-.128l-.176-.316Zm5.038-2.412V76h-.988v-5.944h.988Z" fill="#FF9000"/><path opacity=".5" d="M102 56h-1v23h1V56Z" fill="#DBDBDB"/><path d="m117.062 68.816-.704-1.924a4.971 4.971 0 0 1-.108-.304 12.075 12.075 0 0 1-.112-.38 6.479 6.479 0 0 1-.216.692l-.7 1.916h1.84Zm1.9 2.184h-.832a.364.364 0 0 1-.228-.068.465.465 0 0 1-.132-.176l-.432-1.18h-2.396l-.432 1.18a.376.376 0 0 1-.352.244h-.84l2.276-5.784h1.096L118.962 71Zm1.315-5.944V71h-.988v-5.944h.988Zm1.864 0V71h-.988v-5.944h.988Z" fill="#DBDBDB"/><path d="M.5 84.5a3 3 0 0 1 3-3h128a3 3 0 0 1 3 3v20a3 3 0 0 1-3 3H3.5a3 3 0 0 1-3-3v-20Z" fill="url(#d)"/><path d="M17.282 95.108c0 .424-.07.817-.212 1.18-.138.36-.336.672-.592.936-.256.264-.564.47-.924.62-.36.147-.76.22-1.2.22-.437 0-.836-.073-1.196-.22a2.78 2.78 0 0 1-.928-.62 2.795 2.795 0 0 1-.596-.936 3.223 3.223 0 0 1-.212-1.18c0-.424.071-.816.212-1.176.142-.363.34-.676.596-.94.26-.264.568-.47.928-.616.36-.15.76-.224 1.196-.224.294 0 .57.035.828.104.26.067.496.163.712.288.216.123.41.273.58.452.174.176.32.373.44.592.12.219.211.456.272.712.064.256.096.525.096.808Zm-1.1 0c0-.317-.042-.601-.128-.852a1.828 1.828 0 0 0-.364-.644 1.554 1.554 0 0 0-.576-.404 1.96 1.96 0 0 0-.76-.14 1.99 1.99 0 0 0-.764.14 1.6 1.6 0 0 0-.576.404c-.157.176-.278.39-.364.644-.085.25-.128.535-.128.852 0 .317.043.603.128.856.086.25.207.464.364.64.16.173.352.307.576.4a2 2 0 0 0 .764.14c.283 0 .536-.047.76-.14.227-.093.42-.227.576-.4.158-.176.28-.39.364-.64.086-.253.128-.539.128-.856ZM18.192 98v-3.36l-.355-.056a.451.451 0 0 1-.189-.08.212.212 0 0 1-.067-.168v-.404h.611V93.7c0-.235.035-.445.105-.632a1.35 1.35 0 0 1 .303-.476c.134-.13.295-.23.484-.3.19-.07.403-.104.64-.104.19 0 .366.025.529.076l-.02.492a.166.166 0 0 1-.032.092.183.183 0 0 1-.076.056.496.496 0 0 1-.105.024c-.04.003-.082.004-.128.004-.117 0-.222.013-.316.04a.504.504 0 0 0-.232.132.597.597 0 0 0-.148.248 1.28 1.28 0 0 0-.048.38v.2h1.637v-.364c0-.235.034-.445.104-.632a1.35 1.35 0 0 1 .303-.476c.134-.13.295-.23.485-.3.189-.07.402-.104.64-.104.093 0 .182.007.267.02.088.01.175.028.26.052l-.024.496c-.005.077-.04.127-.108.148a.819.819 0 0 1-.227.028c-.118 0-.223.013-.316.04a.504.504 0 0 0-.233.132.597.597 0 0 0-.148.248 1.28 1.28 0 0 0-.047.38v.332h1.064v.704h-1.032V98h-.988v-3.364H19.18V98h-.988Z" fill="#DBDBDB"/><path opacity=".75" d="M33 83v23h1V83h-1Z" fill="#DBDBDB"/><path d="M45.552 93.268a.382.382 0 0 1-.104.124.226.226 0 0 1-.132.036.364.364 0 0 1-.184-.06 3.505 3.505 0 0 0-.232-.14 1.798 1.798 0 0 0-.32-.136 1.279 1.279 0 0 0-.428-.064c-.15 0-.28.019-.392.056a.821.821 0 0 0-.284.148.606.606 0 0 0-.168.232.74.74 0 0 0-.056.292c0 .136.038.25.112.34.078.09.179.168.304.232.126.064.268.121.428.172.16.05.324.105.492.164.168.056.332.123.492.2.16.075.303.17.428.288.126.115.226.256.3.424.078.168.116.372.116.612 0 .261-.045.507-.136.736a1.68 1.68 0 0 1-.392.596c-.17.168-.38.301-.628.4a2.348 2.348 0 0 1-.852.144c-.184 0-.365-.019-.544-.056a2.808 2.808 0 0 1-.516-.152 2.794 2.794 0 0 1-.46-.24 2.224 2.224 0 0 1-.384-.312l.316-.516a.317.317 0 0 1 .104-.092.252.252 0 0 1 .136-.04c.067 0 .139.028.216.084.078.053.17.113.276.18.107.067.23.128.372.184.144.053.316.08.516.08.307 0 .544-.072.712-.216.168-.147.252-.356.252-.628a.574.574 0 0 0-.116-.372.877.877 0 0 0-.3-.24 2.164 2.164 0 0 0-.428-.168c-.16-.045-.322-.095-.488-.148a4.199 4.199 0 0 1-.488-.192 1.583 1.583 0 0 1-.428-.292 1.358 1.358 0 0 1-.304-.448 1.759 1.759 0 0 1-.112-.668c0-.21.042-.416.124-.616.086-.2.208-.377.368-.532a1.79 1.79 0 0 1 .592-.372c.235-.093.504-.14.808-.14.342 0 .656.053.944.16.288.107.534.256.736.448l-.268.508Zm3.663 2.208a1.13 1.13 0 0 0-.056-.36.831.831 0 0 0-.16-.3.731.731 0 0 0-.276-.2.905.905 0 0 0-.384-.076c-.285 0-.51.081-.676.244-.162.163-.266.393-.312.692h1.864Zm-1.884.596c.016.21.054.393.112.548.059.152.136.279.232.38.096.099.21.173.34.224.134.048.28.072.44.072.16 0 .298-.019.412-.056.118-.037.219-.079.304-.124.088-.045.164-.087.228-.124a.394.394 0 0 1 .192-.056c.083 0 .144.03.184.092l.284.36a1.69 1.69 0 0 1-.368.324 2.186 2.186 0 0 1-.88.316c-.152.021-.3.032-.444.032-.285 0-.55-.047-.796-.14a1.818 1.818 0 0 1-.64-.42 1.996 1.996 0 0 1-.428-.688 2.68 2.68 0 0 1-.156-.952c0-.28.046-.543.136-.788a1.84 1.84 0 0 1 1.008-1.08c.246-.107.522-.16.828-.16.259 0 .498.041.716.124.219.083.407.204.564.364.158.157.28.352.368.584.09.23.136.492.136.788 0 .15-.016.25-.048.304-.032.05-.093.076-.184.076h-2.54ZM51.65 94.4c.082-.083.169-.159.26-.228a1.594 1.594 0 0 1 .624-.296c.117-.03.245-.044.384-.044.224 0 .422.039.596.116.173.075.317.181.432.32.117.136.205.3.264.492.061.19.092.399.092.628V98h-.988v-2.612c0-.25-.058-.444-.172-.58-.115-.139-.29-.208-.524-.208a1.03 1.03 0 0 0-.48.116c-.15.077-.291.183-.424.316V98h-.988v-4.104h.604c.128 0 .212.06.252.18l.068.324Zm6.047.544a.968.968 0 0 0-.792-.372.944.944 0 0 0-.404.084.806.806 0 0 0-.308.256 1.2 1.2 0 0 0-.196.432 2.457 2.457 0 0 0-.068.616c0 .24.019.444.056.612.04.165.096.301.168.408.072.104.16.18.264.228.104.045.22.068.348.068.206 0 .38-.043.524-.128.144-.085.28-.207.408-.364v-1.84Zm.988-2.888V98h-.604c-.13 0-.213-.06-.248-.18l-.084-.396a2.06 2.06 0 0 1-.572.46 1.528 1.528 0 0 1-.748.176c-.224 0-.429-.047-.616-.14a1.398 1.398 0 0 1-.484-.404 2.024 2.024 0 0 1-.312-.66 3.381 3.381 0 0 1-.108-.896c0-.304.042-.587.124-.848.083-.261.202-.488.356-.68a1.64 1.64 0 0 1 .556-.448 1.59 1.59 0 0 1 .728-.164c.23 0 .426.036.588.108.163.072.308.17.436.292v-2.164h.988Z" fill="#DBDBDB"/><path opacity=".75" d="M67 83v23h1V83h-1Z" fill="#DBDBDB"/><path d="M75.865 88.268a.382.382 0 0 1-.104.124.226.226 0 0 1-.132.036.364.364 0 0 1-.184-.06 3.505 3.505 0 0 0-.232-.14 1.798 1.798 0 0 0-.32-.136 1.279 1.279 0 0 0-.428-.064c-.15 0-.28.019-.392.056a.821.821 0 0 0-.284.148.606.606 0 0 0-.168.232.74.74 0 0 0-.056.292c0 .136.038.25.112.34.078.09.179.168.304.232.126.064.268.121.428.172.16.05.324.105.492.164.168.056.332.123.492.2.16.075.303.17.428.288.126.115.226.256.3.424.078.168.116.372.116.612 0 .261-.045.507-.136.736a1.68 1.68 0 0 1-.392.596c-.17.168-.38.301-.628.4a2.348 2.348 0 0 1-.852.144c-.184 0-.365-.019-.544-.056a2.808 2.808 0 0 1-.516-.152 2.794 2.794 0 0 1-.46-.24 2.224 2.224 0 0 1-.384-.312l.316-.516a.317.317 0 0 1 .104-.092.252.252 0 0 1 .136-.04c.067 0 .139.028.216.084.078.053.17.113.276.18.107.067.23.128.372.184.144.053.316.08.516.08.307 0 .544-.072.712-.216.168-.147.252-.356.252-.628a.574.574 0 0 0-.116-.372.877.877 0 0 0-.3-.24 2.164 2.164 0 0 0-.428-.168c-.16-.045-.322-.095-.488-.148a4.199 4.199 0 0 1-.488-.192 1.583 1.583 0 0 1-.428-.292 1.358 1.358 0 0 1-.304-.448 1.759 1.759 0 0 1-.112-.668c0-.21.042-.416.124-.616.086-.2.208-.377.368-.532a1.79 1.79 0 0 1 .592-.372c.235-.093.504-.14.808-.14.342 0 .656.053.944.16.288.107.534.256.736.448l-.268.508Zm3.663 2.208a1.13 1.13 0 0 0-.056-.36.831.831 0 0 0-.16-.3.731.731 0 0 0-.276-.2.905.905 0 0 0-.384-.076c-.285 0-.51.081-.676.244-.162.163-.266.393-.312.692h1.864Zm-1.884.596c.016.21.054.393.112.548.059.152.136.279.232.38.096.099.21.173.34.224.134.048.28.072.44.072.16 0 .298-.019.412-.056.118-.037.219-.079.304-.124a4.98 4.98 0 0 0 .228-.124.394.394 0 0 1 .192-.056c.083 0 .144.03.184.092l.284.36a1.69 1.69 0 0 1-.368.324 2.19 2.19 0 0 1-.88.316c-.152.021-.3.032-.444.032-.285 0-.55-.047-.796-.14a1.818 1.818 0 0 1-.64-.42 1.996 1.996 0 0 1-.428-.688 2.68 2.68 0 0 1-.156-.952c0-.28.046-.543.136-.788a1.84 1.84 0 0 1 1.008-1.08c.246-.107.522-.16.828-.16.259 0 .498.041.716.124.219.083.407.204.564.364.158.157.28.352.368.584.09.23.136.492.136.788 0 .15-.016.25-.048.304-.032.05-.093.076-.184.076h-2.54Zm4.318-1.672a2.6 2.6 0 0 1 .26-.228 1.597 1.597 0 0 1 .624-.296c.117-.03.245-.044.384-.044.224 0 .422.039.596.116.173.075.317.181.432.32.117.136.205.3.264.492.061.19.092.399.092.628V93h-.988v-2.612c0-.25-.058-.444-.172-.58-.115-.139-.29-.208-.524-.208a1.03 1.03 0 0 0-.48.116 1.72 1.72 0 0 0-.424.316V93h-.988v-4.104h.604c.128 0 .212.06.252.18l.068.324Zm6.047.544a.968.968 0 0 0-.792-.372.944.944 0 0 0-.404.084.806.806 0 0 0-.308.256 1.2 1.2 0 0 0-.196.432 2.457 2.457 0 0 0-.068.616c0 .24.019.444.056.612.04.165.096.301.168.408.072.104.16.18.264.228.104.045.22.068.348.068.206 0 .38-.043.524-.128.144-.085.28-.207.408-.364v-1.84Zm.988-2.888V93h-.604c-.13 0-.213-.06-.248-.18l-.084-.396a2.06 2.06 0 0 1-.572.46 1.528 1.528 0 0 1-.748.176c-.224 0-.429-.047-.616-.14a1.398 1.398 0 0 1-.484-.404 2.024 2.024 0 0 1-.312-.66 3.381 3.381 0 0 1-.108-.896c0-.304.042-.587.124-.848.083-.261.202-.488.356-.68a1.64 1.64 0 0 1 .556-.448 1.59 1.59 0 0 1 .728-.164c.23 0 .426.036.588.108.163.072.308.17.436.292v-2.164h.988Zm4.105 3.24c-.214.139-.37.296-.468.472a1.137 1.137 0 0 0-.068.956c.05.117.118.217.204.3.088.08.189.143.304.188.117.043.241.064.372.064.234 0 .449-.036.644-.108.194-.075.37-.177.528-.308l-1.516-1.564ZM96.954 93h-.968a.717.717 0 0 1-.248-.036.55.55 0 0 1-.196-.152l-.4-.412a2.897 2.897 0 0 1-1.872.664c-.222 0-.44-.037-.656-.112a1.828 1.828 0 0 1-.572-.332 1.698 1.698 0 0 1-.408-.52 1.543 1.543 0 0 1-.152-.692c0-.181.029-.352.088-.512.058-.163.14-.313.244-.452.104-.139.228-.263.372-.372a2.48 2.48 0 0 1 .472-.288 2.236 2.236 0 0 1-.312-.584 1.8 1.8 0 0 1-.096-.572c0-.2.036-.39.108-.568.074-.181.181-.339.32-.472a1.49 1.49 0 0 1 .512-.316c.202-.08.432-.12.688-.12.234 0 .444.036.628.108.186.072.345.168.476.288.133.12.237.257.312.412.077.155.122.315.136.48l-.628.132c-.118.024-.203-.027-.256-.152a.891.891 0 0 0-.096-.196.628.628 0 0 0-.324-.276.654.654 0 0 0-.248-.044.717.717 0 0 0-.524.216.768.768 0 0 0-.184.5.943.943 0 0 0 .104.456c.037.075.085.152.144.232.061.077.136.161.224.252l1.536 1.596a2.96 2.96 0 0 0 .316-1.1.26.26 0 0 1 .064-.148.187.187 0 0 1 .144-.056h.616a3.493 3.493 0 0 1-.152 1.008 3.26 3.26 0 0 1-.424.884L96.954 93Zm-18.219 7.1v2.34a3.088 3.088 0 0 1-.94.476c-.33.099-.685.148-1.064.148-.472 0-.9-.073-1.284-.22a2.906 2.906 0 0 1-.98-.612 2.69 2.69 0 0 1-.624-.936 3.143 3.143 0 0 1-.22-1.188c0-.435.071-.833.212-1.196.142-.363.342-.675.6-.936a2.71 2.71 0 0 1 .948-.608 3.425 3.425 0 0 1 1.248-.216c.235 0 .454.019.656.056.206.037.395.09.568.156.176.064.336.143.48.236.144.093.276.196.396.308l-.308.488a.302.302 0 0 1-.188.144c-.077.016-.16-.004-.252-.06l-.264-.152a1.673 1.673 0 0 0-.296-.132 2.336 2.336 0 0 0-.364-.092 2.645 2.645 0 0 0-.464-.036c-.285 0-.544.048-.776.144a1.643 1.643 0 0 0-.588.412 1.858 1.858 0 0 0-.376.644c-.088.25-.132.53-.132.84 0 .331.047.627.14.888.096.259.23.479.4.66.174.179.382.316.624.412.243.093.514.14.812.14.214 0 .404-.023.572-.068.168-.045.332-.107.492-.184v-1.048h-.728a.232.232 0 0 1-.164-.056.204.204 0 0 1-.056-.144v-.608h1.92Zm1.746-3.044V103h-.988v-5.944h.988Zm2.68 1.776c.304 0 .58.05.828.148a1.796 1.796 0 0 1 1.052 1.084c.096.261.144.553.144.876 0 .325-.048.619-.144.88a1.874 1.874 0 0 1-.412.668c-.176.184-.39.325-.64.424a2.215 2.215 0 0 1-.828.148c-.307 0-.585-.049-.836-.148a1.812 1.812 0 0 1-.644-.424 1.95 1.95 0 0 1-.412-.668 2.538 2.538 0 0 1-.144-.88c0-.323.048-.615.144-.876a1.91 1.91 0 0 1 .412-.664c.178-.181.393-.321.644-.42.25-.099.53-.148.836-.148Zm0 3.468c.341 0 .593-.115.756-.344.165-.229.248-.565.248-1.008 0-.443-.083-.78-.248-1.012-.163-.232-.415-.348-.756-.348-.347 0-.604.117-.772.352-.165.232-.248.568-.248 1.008 0 .44.082.776.248 1.008.168.229.425.344.772.344Zm3.646-.364a.978.978 0 0 0 .364.288c.133.056.273.084.42.084a1 1 0 0 0 .408-.08.796.796 0 0 0 .312-.256 1.3 1.3 0 0 0 .196-.444c.045-.181.068-.397.068-.648 0-.451-.075-.776-.224-.976-.15-.203-.364-.304-.644-.304a.92.92 0 0 0-.496.132 1.586 1.586 0 0 0-.404.364v1.84Zm0-2.536c.165-.173.348-.31.548-.412.202-.104.433-.156.692-.156.237 0 .45.047.64.14.192.093.354.228.488.404.136.173.24.384.312.632.072.248.108.527.108.836 0 .333-.042.636-.124.908a2.09 2.09 0 0 1-.356.7 1.604 1.604 0 0 1-.552.448 1.6 1.6 0 0 1-.72.16 1.386 1.386 0 0 1-.636-.144c-.088-.045-.17-.1-.244-.164a2.392 2.392 0 0 1-.208-.22l-.044.276c-.016.069-.044.119-.084.148a.249.249 0 0 1-.156.044h-.652v-5.944h.988V99.4Zm5.599 1.848a5.198 5.198 0 0 0-.72.076c-.195.035-.351.08-.468.136a.613.613 0 0 0-.252.196.426.426 0 0 0-.076.244c0 .173.05.297.152.372a.674.674 0 0 0 .404.112c.202 0 .377-.036.524-.108.149-.075.294-.187.436-.336v-.692Zm-2.264-1.78c.472-.432 1.04-.648 1.704-.648.24 0 .454.04.644.12a1.332 1.332 0 0 1 .776.828c.069.195.104.408.104.64V103h-.448a.468.468 0 0 1-.216-.04c-.051-.029-.091-.087-.12-.172l-.088-.296a3.969 3.969 0 0 1-.304.248 1.893 1.893 0 0 1-.308.176 1.827 1.827 0 0 1-.744.148 1.63 1.63 0 0 1-.48-.068 1.084 1.084 0 0 1-.38-.212.937.937 0 0 1-.248-.348 1.235 1.235 0 0 1-.088-.484.943.943 0 0 1 .22-.604c.08-.093.182-.181.308-.264a1.97 1.97 0 0 1 .46-.216c.184-.061.397-.111.64-.148.242-.04.52-.064.832-.072v-.24c0-.275-.059-.477-.176-.608-.118-.133-.287-.2-.508-.2-.16 0-.294.019-.4.056-.104.037-.196.08-.276.128l-.22.124a.421.421 0 0 1-.216.056.292.292 0 0 1-.176-.052.476.476 0 0 1-.116-.128l-.176-.316Zm5.038-2.412V103h-.988v-5.944h.988Z" fill="#DBDBDB"/><path opacity=".5" d="M102 83h-1v23h1V83Z" fill="#DBDBDB"/><path d="m117.046 95.816-.704-1.924a3.911 3.911 0 0 1-.108-.304 9.885 9.885 0 0 1-.112-.38 8.471 8.471 0 0 1-.108.384 4.53 4.53 0 0 1-.108.308l-.7 1.916h1.84Zm1.9 2.184h-.832a.364.364 0 0 1-.228-.068.446.446 0 0 1-.132-.176l-.432-1.18h-2.396l-.432 1.18a.384.384 0 0 1-.124.168.345.345 0 0 1-.228.076h-.84l2.276-5.784h1.096L118.946 98Zm1.315-5.944V98h-.988v-5.944h.988Zm1.864 0V98h-.988v-5.944h.988Z" fill="#FF9000"/><defs><linearGradient id="a" x1="67.5" y1=".5" x2="67.5" y2="26.5" gradientUnits="userSpaceOnUse"><stop/><stop offset="1" stop-opacity=".25"/></linearGradient><linearGradient id="b" x1="67.5" y1="27.5" x2="67.5" y2="53.5" gradientUnits="userSpaceOnUse"><stop/><stop offset="1" stop-opacity=".25"/></linearGradient><linearGradient id="c" x1="67.5" y1="54.5" x2="67.5" y2="80.5" gradientUnits="userSpaceOnUse"><stop/><stop offset="1" stop-opacity=".25"/></linearGradient><linearGradient id="d" x1="67.5" y1="81.5" x2="67.5" y2="107.5" gradientUnits="userSpaceOnUse"><stop/><stop offset="1" stop-opacity=".25"/></linearGradient></defs></svg>