<svg width="26" height="39" fill="none" xmlns="http://www.w3.org/2000/svg"><path d="M3.5 6.5a3 3 0 1 1 6 0 3 3 0 0 1-6 0Z" fill="#FF9000" stroke="#FF9000"/><path d="M1 19.5a5.5 5.5 0 1 1 11 0 5.5 5.5 0 0 1-11 0Z" fill="#000" stroke="#fff"/><path d="M3 19.5a3.5 3.5 0 1 1 7 0 3.5 3.5 0 0 1-7 0Z" fill="#fff" stroke="#fff"/><path d="M1 32.5a5.5 5.5 0 1 1 11 0 5.5 5.5 0 0 1-11 0Z" fill="#FF9000" stroke="#000"/><path d="M3 32.5a3.5 3.5 0 1 1 7 0 3.5 3.5 0 0 1-7 0Z" fill="#000" stroke="#000"/><path d="M22.828 6.328 19.5 3l-3.328 3.328L19.5 9.657l3.328-3.329Z" stroke="#FF9000"/><path d="M22.828 19.328 19.5 16l-3.328 3.328 3.328 3.329 3.328-3.329Z" fill="#000" stroke="#fff"/><path d="M22.828 32.328 19.5 29l-3.328 3.328 3.328 3.329 3.328-3.329Z" fill="#FF9000" stroke="#000"/></svg>