<svg width="94" height="42" fill="none" xmlns="http://www.w3.org/2000/svg"><path d="M.5 3.5a3 3 0 0 1 3-3h87a3 3 0 0 1 3 3v7a3 3 0 0 1-3 3h-87a3 3 0 0 1-3-3v-7Z" fill="url(#a)"/><path d="M9.821 5.268a.382.382 0 0 1-.104.124.227.227 0 0 1-.132.036.363.363 0 0 1-.184-.06 3.516 3.516 0 0 0-.232-.14 1.803 1.803 0 0 0-.32-.136 1.28 1.28 0 0 0-.428-.064c-.15 0-.28.019-.392.056a.82.82 0 0 0-.284.148.605.605 0 0 0-.168.232.74.74 0 0 0-.056.292c0 .136.038.25.112.34.078.09.179.168.304.232.126.064.268.121.428.172.16.05.324.105.492.164.168.056.332.123.492.2.16.075.303.17.428.288.126.115.226.256.3.424.078.168.116.372.116.612 0 .261-.045.507-.136.736a1.682 1.682 0 0 1-.392.596c-.17.168-.38.301-.628.4a2.348 2.348 0 0 1-.852.144c-.184 0-.365-.019-.544-.056a2.786 2.786 0 0 1-.976-.392 2.227 2.227 0 0 1-.384-.312l.316-.516a.316.316 0 0 1 .104-.092.252.252 0 0 1 .136-.04c.067 0 .139.028.216.084.078.053.17.113.276.18.107.067.23.128.372.184.144.053.316.08.516.08.307 0 .544-.072.712-.216.168-.147.252-.356.252-.628a.574.574 0 0 0-.116-.372.878.878 0 0 0-.3-.24 2.169 2.169 0 0 0-.428-.168 14.19 14.19 0 0 1-.488-.148 4.206 4.206 0 0 1-.488-.192 1.58 1.58 0 0 1-.428-.292 1.357 1.357 0 0 1-.304-.448 1.758 1.758 0 0 1-.112-.668c0-.21.042-.416.124-.616.086-.2.208-.377.368-.532a1.79 1.79 0 0 1 .592-.372c.235-.093.504-.14.808-.14.342 0 .656.053.944.16.288.107.534.256.736.448l-.268.508Zm2.043.628V10h-.992V5.896h.992ZM12 4.7a.564.564 0 0 1-.052.24.644.644 0 0 1-.14.196.664.664 0 0 1-.2.136.642.642 0 0 1-.492 0 .678.678 0 0 1-.332-.332.642.642 0 0 1 0-.488.619.619 0 0 1 .332-.332.6.6 0 0 1 .492 0A.63.63 0 0 1 12 4.7Zm1.675 1.7c.083-.083.17-.159.26-.228a1.6 1.6 0 0 1 .624-.296 1.56 1.56 0 0 1 .385-.044c.223 0 .422.039.595.116.174.075.318.181.433.32.117.136.205.3.263.492.062.19.093.399.093.628V10h-.989V7.388c0-.25-.057-.444-.171-.58-.115-.139-.29-.208-.524-.208a1.03 1.03 0 0 0-.48.116c-.15.077-.291.183-.425.316V10h-.988V5.896h.604c.128 0 .213.06.252.18l.069.324Zm4.972 1.448c.123 0 .23-.016.32-.048a.63.63 0 0 0 .224-.14.539.539 0 0 0 .136-.212.747.747 0 0 0 .048-.272c0-.203-.061-.363-.184-.48-.12-.12-.301-.18-.544-.18-.242 0-.425.06-.548.18-.12.117-.18.277-.18.48 0 .096.015.185.044.268a.646.646 0 0 0 .136.216.672.672 0 0 0 .228.14c.093.032.2.048.32.048Zm1.116 2.336a.273.273 0 0 0-.072-.196.457.457 0 0 0-.196-.116 1.35 1.35 0 0 0-.292-.064 15.311 15.311 0 0 0-.736-.048 4.468 4.468 0 0 1-.384-.032.952.952 0 0 0-.268.216.445.445 0 0 0-.048.488.463.463 0 0 0 .172.164c.08.045.183.08.308.104.125.027.279.04.46.04.184 0 .343-.015.476-.044.134-.027.243-.065.328-.116a.477.477 0 0 0 .192-.176.42.42 0 0 0 .06-.22Zm.984-4.148v.368c0 .117-.07.19-.212.216l-.368.068c.056.141.084.296.084.464a1.218 1.218 0 0 1-.46.968 1.61 1.61 0 0 1-.512.268 2.093 2.093 0 0 1-.632.092c-.08 0-.157-.004-.232-.012a2.91 2.91 0 0 1-.22-.032c-.128.077-.192.164-.192.26 0 .083.038.144.112.184a.999.999 0 0 0 .304.08c.125.016.268.027.428.032.16.003.324.01.492.024.168.013.332.037.492.072.16.032.303.084.428.156a.82.82 0 0 1 .3.296.88.88 0 0 1 .116.476c0 .181-.045.357-.136.528-.088.17-.217.323-.388.456a1.97 1.97 0 0 1-.624.32 2.625 2.625 0 0 1-.84.124c-.31 0-.579-.03-.808-.092a1.858 1.858 0 0 1-.572-.24 1.018 1.018 0 0 1-.34-.344.811.811 0 0 1-.112-.408c0-.192.058-.352.172-.48a1.21 1.21 0 0 1 .48-.312.688.688 0 0 1-.26-.224.639.639 0 0 1-.096-.368.59.59 0 0 1 .032-.188.906.906 0 0 1 .1-.196 1.096 1.096 0 0 1 .404-.336 1.31 1.31 0 0 1-.492-.448 1.206 1.206 0 0 1-.176-.656c0-.203.04-.385.12-.548.083-.165.196-.305.34-.42.147-.117.319-.207.516-.268.2-.061.418-.092.652-.092.176 0 .341.019.496.056.155.035.296.087.424.156h1.18Zm1.507-1.98V10h-.988V4.056h.988Zm3.508 3.42a1.14 1.14 0 0 0-.056-.36.833.833 0 0 0-.16-.3.73.73 0 0 0-.276-.2.905.905 0 0 0-.384-.076c-.285 0-.51.081-.676.244-.163.163-.267.393-.312.692h1.864Zm-1.884.596c.016.21.053.393.112.548.059.152.136.279.232.38.096.099.21.173.34.224.133.048.28.072.44.072.16 0 .297-.019.412-.056a1.84 1.84 0 0 0 .304-.124c.088-.045.164-.087.228-.124a.394.394 0 0 1 .192-.056c.083 0 .144.03.184.092l.284.36a1.69 1.69 0 0 1-.368.324 2.188 2.188 0 0 1-.88.316c-.152.021-.3.032-.444.032-.285 0-.55-.047-.796-.14a1.818 1.818 0 0 1-.64-.42 1.996 1.996 0 0 1-.428-.688 2.679 2.679 0 0 1-.156-.952c0-.28.045-.543.136-.788a1.83 1.83 0 0 1 1.008-1.08c.245-.107.521-.16.828-.16.259 0 .497.041.716.124.219.083.407.204.564.364.157.157.28.352.368.584.09.23.136.492.136.788 0 .15-.016.25-.048.304-.032.05-.093.076-.184.076h-2.54Z" fill="#FF9000"/><path opacity=".75" d="M31.5 2v10h1V2h-1Z" fill="#DBDBDB"/><path d="M42.635 5.268a.382.382 0 0 1-.104.124.227.227 0 0 1-.132.036.363.363 0 0 1-.184-.06 3.532 3.532 0 0 0-.232-.14 1.806 1.806 0 0 0-.32-.136 1.28 1.28 0 0 0-.428-.064c-.15 0-.28.019-.392.056a.82.82 0 0 0-.284.148.604.604 0 0 0-.168.232.74.74 0 0 0-.056.292c0 .136.037.25.112.34.077.09.178.168.304.232.125.064.268.121.428.172.16.05.324.105.492.164.168.056.332.123.492.2.16.075.302.17.428.288.125.115.225.256.3.424.077.168.116.372.116.612 0 .261-.046.507-.136.736a1.681 1.681 0 0 1-.392.596c-.171.168-.38.301-.628.4a2.348 2.348 0 0 1-.852.144c-.184 0-.366-.019-.544-.056a2.785 2.785 0 0 1-.976-.392 2.227 2.227 0 0 1-.384-.312l.316-.516a.315.315 0 0 1 .104-.092.252.252 0 0 1 .136-.04.38.38 0 0 1 .216.084c.077.053.169.113.276.18.106.067.23.128.372.184.144.053.316.08.516.08.306 0 .544-.072.712-.216.168-.147.252-.356.252-.628a.575.575 0 0 0-.116-.372.879.879 0 0 0-.3-.24 2.17 2.17 0 0 0-.428-.168 14.17 14.17 0 0 1-.488-.148 4.202 4.202 0 0 1-.488-.192 1.58 1.58 0 0 1-.428-.292 1.356 1.356 0 0 1-.304-.448 1.757 1.757 0 0 1-.112-.668c0-.21.041-.416.124-.616.085-.2.208-.377.368-.532.16-.155.357-.279.592-.372.234-.093.504-.14.808-.14.341 0 .656.053.944.16.288.107.533.256.736.448l-.268.508Zm1.968 1.068c.16-.15.336-.27.528-.364a1.53 1.53 0 0 1 .676-.14c.224 0 .422.039.596.116.173.075.317.181.432.32.117.136.205.3.264.492.06.19.092.399.092.628V10h-.988V7.388c0-.25-.058-.444-.172-.58-.115-.139-.29-.208-.524-.208a1.03 1.03 0 0 0-.48.116 1.72 1.72 0 0 0-.424.316V10h-.988V4.056h.988v2.28Zm4.431-.44V10h-.992V5.896h.992ZM49.17 4.7a.562.562 0 0 1-.052.24.64.64 0 0 1-.14.196.663.663 0 0 1-.2.136.642.642 0 0 1-.492 0 .68.68 0 0 1-.332-.332.642.642 0 0 1 0-.488.62.62 0 0 1 .332-.332.6.6 0 0 1 .492 0 .607.607 0 0 1 .2.132.627.627 0 0 1 .192.448Zm4.683 1.936V8.86c0 .128.032.228.096.3.065.072.15.108.257.108a.488.488 0 0 0 .26-.068c.032-.016.06-.03.084-.044a.129.129 0 0 1 .072-.024c.029 0 .053.008.072.024a.286.286 0 0 1 .06.064l.296.48c-.144.12-.31.21-.496.272a1.81 1.81 0 0 1-.577.092c-.357 0-.631-.1-.823-.3-.193-.203-.289-.481-.289-.836V6.636h-1.668V10h-.988V6.64l-.356-.056a.45.45 0 0 1-.188-.08.212.212 0 0 1-.068-.168v-.404h.612v-.304c0-.235.035-.445.104-.632a1.35 1.35 0 0 1 .304-.476c.134-.13.295-.23.485-.3.189-.07.402-.104.64-.104.189 0 .365.025.528.076l-.02.496a.166.166 0 0 1-.032.092.202.202 0 0 1-.077.052.5.5 0 0 1-.103.024c-.04.003-.083.004-.128.004a1.15 1.15 0 0 0-.316.04.504.504 0 0 0-.233.132.597.597 0 0 0-.147.248 1.28 1.28 0 0 0-.048.38v.272h1.744l.212-1.124a.219.219 0 0 1 .075-.124.226.226 0 0 1 .145-.044h.511v1.292h1.096v.704h-1.096Z" fill="#DBDBDB"/><path opacity=".75" d="M61.5 2v10h1V2h-1Z" fill="#DBDBDB"/><path d="M73.765 7.108c0 .424-.07.813-.212 1.168-.141.355-.34.66-.596.916a2.666 2.666 0 0 1-.924.596c-.36.141-.76.212-1.2.212h-2.204V4.216h2.204c.44 0 .84.072 1.2.216a2.64 2.64 0 0 1 1.52 1.508c.141.355.212.744.212 1.168Zm-1.104 0c0-.317-.043-.601-.128-.852a1.711 1.711 0 0 0-.364-.64 1.554 1.554 0 0 0-.576-.404 1.96 1.96 0 0 0-.76-.14h-1.124v4.072h1.124c.283 0 .536-.047.76-.14.227-.093.419-.227.576-.4.16-.176.281-.39.364-.64.085-.253.128-.539.128-.856Zm2.64-.5c.127-.245.28-.437.456-.576a.966.966 0 0 1 .623-.212c.19 0 .342.041.457.124l-.065.74a.195.195 0 0 1-.06.104.16.16 0 0 1-.1.028c-.04 0-.1-.007-.18-.02a1.34 1.34 0 0 0-.228-.02.74.74 0 0 0-.524.188.967.967 0 0 0-.18.216c-.05.085-.098.183-.144.292V10h-.987V5.896h.58c.1 0 .172.019.212.056.04.035.066.099.08.192l.06.464Zm4.045 1.64a5.198 5.198 0 0 0-.72.076c-.195.035-.35.08-.468.136a.616.616 0 0 0-.252.196.426.426 0 0 0-.076.244c0 .173.05.297.152.372a.677.677 0 0 0 .404.112c.203 0 .377-.036.524-.108.15-.075.295-.187.436-.336v-.692Zm-2.264-1.78c.472-.432 1.04-.648 1.704-.648.24 0 .455.04.644.12.19.077.35.187.48.328.13.139.23.305.296.5.07.195.104.408.104.64V10h-.448a.472.472 0 0 1-.216-.04c-.05-.03-.09-.087-.12-.172l-.088-.296a3.892 3.892 0 0 1-.304.248 1.87 1.87 0 0 1-.308.176 1.845 1.845 0 0 1-1.224.08 1.079 1.079 0 0 1-.38-.212.943.943 0 0 1-.248-.348 1.234 1.234 0 0 1-.088-.484.945.945 0 0 1 .22-.604 1.49 1.49 0 0 1 .308-.264 1.99 1.99 0 0 1 .46-.216c.184-.061.398-.11.64-.148.243-.04.52-.064.832-.072v-.24c0-.275-.059-.477-.176-.608-.117-.133-.287-.2-.508-.2-.16 0-.293.019-.4.056a1.56 1.56 0 0 0-.276.128l-.22.124a.42.42 0 0 1-.216.056.293.293 0 0 1-.176-.052.477.477 0 0 1-.116-.128l-.176-.316Zm9.86-.572L85.638 10h-.792c-.091 0-.154-.059-.188-.176l-.736-2.372a11.43 11.43 0 0 1-.068-.236 3.917 3.917 0 0 1-.048-.24c-.016.08-.035.161-.056.244-.019.08-.04.16-.064.24l-.748 2.364c-.032.117-.103.176-.212.176h-.76l-1.3-4.104h.788c.072 0 .133.017.184.052.05.035.084.079.1.132l.588 2.192c.029.12.054.237.076.352.024.115.044.23.06.344.029-.115.06-.23.092-.344.034-.115.07-.232.108-.352l.68-2.2a.255.255 0 0 1 .092-.132.286.286 0 0 1 .172-.052h.436c.069 0 .128.017.176.052.05.035.084.079.1.132l.66 2.2c.034.12.066.239.096.356.032.115.062.23.092.344.034-.227.084-.46.148-.7l.604-2.192a.27.27 0 0 1 .1-.132.286.286 0 0 1 .172-.052h.752Z" fill="#DBDBDB"/><path d="M.5 17.5a3 3 0 0 1 3-3h87a3 3 0 0 1 3 3v7a3 3 0 0 1-3 3h-87a3 3 0 0 1-3-3v-7Z" fill="url(#b)"/><path d="M9.821 19.268a.382.382 0 0 1-.104.124.227.227 0 0 1-.132.036.363.363 0 0 1-.184-.06 3.516 3.516 0 0 0-.232-.14 1.801 1.801 0 0 0-.32-.136 1.28 1.28 0 0 0-.428-.064c-.15 0-.28.019-.392.056a.82.82 0 0 0-.284.148.604.604 0 0 0-.168.232.74.74 0 0 0-.056.292c0 .136.038.25.112.34.078.09.179.168.304.232.126.064.268.121.428.172.16.05.324.105.492.164.168.056.332.123.492.2.16.075.303.17.428.288.126.115.226.256.3.424.078.168.116.372.116.612 0 .261-.045.507-.136.736a1.682 1.682 0 0 1-.392.596c-.17.168-.38.301-.628.4a2.348 2.348 0 0 1-.852.144c-.184 0-.365-.019-.544-.056a2.805 2.805 0 0 1-.516-.152 2.791 2.791 0 0 1-.46-.24 2.224 2.224 0 0 1-.384-.312l.316-.516a.316.316 0 0 1 .104-.092.252.252 0 0 1 .136-.04c.067 0 .139.028.216.084.078.053.17.113.276.18a2.3 2.3 0 0 0 .372.184c.144.053.316.08.516.08.307 0 .544-.072.712-.216.168-.147.252-.356.252-.628a.574.574 0 0 0-.116-.372.878.878 0 0 0-.3-.24 2.165 2.165 0 0 0-.428-.168 14.19 14.19 0 0 1-.488-.148 4.196 4.196 0 0 1-.488-.192 1.582 1.582 0 0 1-.428-.292 1.357 1.357 0 0 1-.304-.448 1.758 1.758 0 0 1-.112-.668c0-.21.042-.416.124-.616.086-.2.208-.377.368-.532a1.79 1.79 0 0 1 .592-.372c.235-.093.504-.14.808-.14.342 0 .656.053.944.16.288.107.534.256.736.448l-.268.508Zm2.043.628V24h-.992v-4.104h.992ZM12 18.7a.564.564 0 0 1-.052.24.644.644 0 0 1-.14.196.664.664 0 0 1-.2.136.642.642 0 0 1-.492 0 .679.679 0 0 1-.332-.332.642.642 0 0 1 0-.488.619.619 0 0 1 .332-.332.599.599 0 0 1 .492 0 .63.63 0 0 1 .392.58Zm1.675 1.7a2.61 2.61 0 0 1 .26-.228 1.6 1.6 0 0 1 .624-.296 1.56 1.56 0 0 1 .385-.044c.223 0 .422.039.595.116.174.075.318.181.433.32.117.136.205.3.263.492.062.19.093.399.093.628V24h-.989v-2.612c0-.25-.057-.444-.171-.58-.115-.139-.29-.208-.524-.208a1.03 1.03 0 0 0-.48.116c-.15.077-.291.183-.425.316V24h-.988v-4.104h.604c.128 0 .213.06.252.18l.069.324Zm4.972 1.448c.123 0 .23-.016.32-.048a.63.63 0 0 0 .224-.14.539.539 0 0 0 .136-.212.747.747 0 0 0 .048-.272c0-.203-.061-.363-.184-.48-.12-.12-.301-.18-.544-.18-.242 0-.425.06-.548.18-.12.117-.18.277-.18.48 0 .096.015.185.044.268a.645.645 0 0 0 .136.216.672.672 0 0 0 .228.14c.093.032.2.048.32.048Zm1.116 2.336a.273.273 0 0 0-.072-.196.457.457 0 0 0-.196-.116 1.35 1.35 0 0 0-.292-.064 15.17 15.17 0 0 0-.736-.048 4.456 4.456 0 0 1-.384-.032.95.95 0 0 0-.268.216.445.445 0 0 0-.048.488.463.463 0 0 0 .172.164c.08.045.183.08.308.104.125.027.279.04.46.04.184 0 .343-.015.476-.044.134-.027.243-.065.328-.116a.477.477 0 0 0 .192-.176.42.42 0 0 0 .06-.22Zm.984-4.148v.368c0 .117-.07.19-.212.216l-.368.068c.056.141.084.296.084.464a1.218 1.218 0 0 1-.46.968 1.61 1.61 0 0 1-.512.268 2.094 2.094 0 0 1-.632.092c-.08 0-.157-.004-.232-.012a2.925 2.925 0 0 1-.22-.032c-.128.077-.192.164-.192.26 0 .083.038.144.112.184a1 1 0 0 0 .304.08c.125.016.268.027.428.032.16.003.324.01.492.024.168.013.332.037.492.072.16.032.303.084.428.156a.82.82 0 0 1 .3.296.88.88 0 0 1 .116.476c0 .181-.045.357-.136.528-.088.17-.217.323-.388.456a1.97 1.97 0 0 1-.624.32 2.625 2.625 0 0 1-.84.124c-.31 0-.579-.03-.808-.092a1.858 1.858 0 0 1-.572-.24 1.018 1.018 0 0 1-.34-.344.811.811 0 0 1-.112-.408c0-.192.058-.352.172-.48a1.21 1.21 0 0 1 .48-.312.689.689 0 0 1-.26-.224.639.639 0 0 1-.096-.368.59.59 0 0 1 .032-.188.905.905 0 0 1 .1-.196 1.094 1.094 0 0 1 .404-.336 1.31 1.31 0 0 1-.492-.448 1.206 1.206 0 0 1-.176-.656c0-.203.04-.385.12-.548.083-.165.196-.305.34-.42.147-.117.319-.207.516-.268.2-.061.418-.092.652-.092.176 0 .341.019.496.056.155.035.296.087.424.156h1.18Zm1.507-1.98V24h-.988v-5.944h.988Zm3.508 3.42a1.14 1.14 0 0 0-.056-.36.833.833 0 0 0-.16-.3.731.731 0 0 0-.276-.2.905.905 0 0 0-.384-.076c-.285 0-.51.081-.676.244-.163.163-.267.393-.312.692h1.864Zm-1.884.596c.016.21.053.393.112.548.059.152.136.279.232.38.096.099.21.173.34.224.133.048.28.072.44.072.16 0 .297-.019.412-.056a1.84 1.84 0 0 0 .304-.124c.088-.045.164-.087.228-.124a.394.394 0 0 1 .192-.056c.083 0 .144.03.184.092l.284.36a1.69 1.69 0 0 1-.368.324 2.188 2.188 0 0 1-.88.316c-.152.021-.3.032-.444.032a2.22 2.22 0 0 1-.796-.14 1.818 1.818 0 0 1-.64-.42 1.996 1.996 0 0 1-.428-.688 2.68 2.68 0 0 1-.156-.952c0-.28.045-.543.136-.788a1.83 1.83 0 0 1 1.008-1.08c.245-.107.521-.16.828-.16.259 0 .497.041.716.124.219.083.407.204.564.364.157.157.28.352.368.584.09.23.136.492.136.788 0 .15-.016.25-.048.304-.032.05-.093.076-.184.076h-2.54Z" fill="#DBDBDB"/><path opacity=".75" d="M31.5 16v10h1V16h-1Z" fill="#DBDBDB"/><path d="M42.635 19.268a.383.383 0 0 1-.104.124.227.227 0 0 1-.132.036.363.363 0 0 1-.184-.06 3.532 3.532 0 0 0-.232-.14 1.804 1.804 0 0 0-.32-.136 1.28 1.28 0 0 0-.428-.064c-.15 0-.28.019-.392.056a.82.82 0 0 0-.284.148.604.604 0 0 0-.168.232.739.739 0 0 0-.056.292c0 .136.037.25.112.34.077.09.178.168.304.232.125.064.268.121.428.172.16.05.324.105.492.164.168.056.332.123.492.2.16.075.302.17.428.288.125.115.225.256.3.424.077.168.116.372.116.612 0 .261-.046.507-.136.736a1.681 1.681 0 0 1-.392.596c-.171.168-.38.301-.628.4a2.348 2.348 0 0 1-.852.144c-.184 0-.366-.019-.544-.056a2.804 2.804 0 0 1-.516-.152 2.79 2.79 0 0 1-.46-.24 2.224 2.224 0 0 1-.384-.312l.316-.516a.315.315 0 0 1 .104-.092.252.252 0 0 1 .136-.04.38.38 0 0 1 .216.084c.077.053.169.113.276.18.106.067.23.128.372.184.144.053.316.08.516.08.306 0 .544-.072.712-.216.168-.147.252-.356.252-.628a.575.575 0 0 0-.116-.372.879.879 0 0 0-.3-.24 2.167 2.167 0 0 0-.428-.168 14.17 14.17 0 0 1-.488-.148 4.192 4.192 0 0 1-.488-.192 1.581 1.581 0 0 1-.428-.292 1.355 1.355 0 0 1-.304-.448 1.757 1.757 0 0 1-.112-.668c0-.21.041-.416.124-.616.085-.2.208-.377.368-.532.16-.155.357-.279.592-.372.234-.093.504-.14.808-.14.341 0 .656.053.944.16.288.107.533.256.736.448l-.268.508Zm1.968 1.068c.16-.15.336-.27.528-.364a1.53 1.53 0 0 1 .676-.14c.224 0 .422.039.596.116.173.075.317.181.432.32.117.136.205.3.264.492.06.19.092.399.092.628V24h-.988v-2.612c0-.25-.058-.444-.172-.58-.115-.139-.29-.208-.524-.208a1.03 1.03 0 0 0-.48.116 1.72 1.72 0 0 0-.424.316V24h-.988v-5.944h.988v2.28Zm4.431-.44V24h-.992v-4.104h.992Zm.136-1.196a.563.563 0 0 1-.052.24.64.64 0 0 1-.14.196.663.663 0 0 1-.2.136.642.642 0 0 1-.492 0 .68.68 0 0 1-.332-.332.642.642 0 0 1 0-.488.62.62 0 0 1 .332-.332.599.599 0 0 1 .492 0 .607.607 0 0 1 .2.132.628.628 0 0 1 .192.448Zm4.683 1.936v2.224c0 .128.032.228.096.3.065.072.15.108.257.108a.49.49 0 0 0 .26-.068c.032-.016.06-.03.084-.044a.129.129 0 0 1 .072-.024c.029 0 .053.008.072.024a.286.286 0 0 1 .06.064l.296.48c-.144.12-.31.21-.496.272a1.81 1.81 0 0 1-.577.092c-.357 0-.631-.1-.823-.3-.193-.203-.289-.481-.289-.836v-2.292h-1.668V24h-.988v-3.36l-.356-.056a.451.451 0 0 1-.188-.08.212.212 0 0 1-.068-.168v-.404h.612v-.304c0-.235.035-.445.104-.632a1.35 1.35 0 0 1 .304-.476c.134-.13.295-.23.485-.3.189-.07.402-.104.64-.104.189 0 .365.025.528.076l-.02.496a.166.166 0 0 1-.032.092.202.202 0 0 1-.077.052.496.496 0 0 1-.103.024c-.04.003-.083.004-.128.004-.118 0-.223.013-.316.04a.504.504 0 0 0-.233.132.597.597 0 0 0-.147.248 1.28 1.28 0 0 0-.048.38v.272h1.744l.212-1.124a.219.219 0 0 1 .075-.124.226.226 0 0 1 .145-.044h.511v1.292h1.096v.704h-1.096Z" fill="#FF9000"/><path opacity=".75" d="M61.5 16v10h1V16h-1Z" fill="#DBDBDB"/><path d="M73.765 21.108c0 .424-.07.813-.212 1.168-.141.355-.34.66-.596.916a2.666 2.666 0 0 1-.924.596c-.36.141-.76.212-1.2.212h-2.204v-5.784h2.204c.44 0 .84.072 1.2.216a2.64 2.64 0 0 1 1.52 1.508c.141.355.212.744.212 1.168Zm-1.104 0c0-.317-.043-.601-.128-.852a1.711 1.711 0 0 0-.364-.64 1.554 1.554 0 0 0-.576-.404 1.96 1.96 0 0 0-.76-.14h-1.124v4.072h1.124c.283 0 .536-.047.76-.14.227-.093.419-.227.576-.4.16-.176.281-.39.364-.64.085-.253.128-.539.128-.856Zm2.64-.5c.127-.245.28-.437.456-.576a.966.966 0 0 1 .623-.212c.19 0 .342.041.457.124l-.065.74a.195.195 0 0 1-.06.104.159.159 0 0 1-.1.028c-.04 0-.1-.007-.18-.02a1.343 1.343 0 0 0-.228-.02.74.74 0 0 0-.524.188.969.969 0 0 0-.18.216c-.05.085-.098.183-.144.292V24h-.987v-4.104h.58c.1 0 .172.019.212.056.04.035.066.099.08.192l.06.464Zm4.045 1.64a5.198 5.198 0 0 0-.72.076 1.87 1.87 0 0 0-.468.136.615.615 0 0 0-.252.196.426.426 0 0 0-.076.244c0 .173.05.297.152.372a.677.677 0 0 0 .404.112c.203 0 .377-.036.524-.108.15-.075.295-.187.436-.336v-.692Zm-2.264-1.78c.472-.432 1.04-.648 1.704-.648.24 0 .455.04.644.12.19.077.35.187.48.328.13.139.23.305.296.5.07.195.104.408.104.64V24h-.448a.472.472 0 0 1-.216-.04c-.05-.03-.09-.087-.12-.172l-.088-.296a3.898 3.898 0 0 1-.304.248c-.099.07-.201.128-.308.176a1.845 1.845 0 0 1-1.224.08 1.08 1.08 0 0 1-.38-.212.942.942 0 0 1-.248-.348 1.234 1.234 0 0 1-.088-.484.945.945 0 0 1 .22-.604 1.49 1.49 0 0 1 .308-.264 1.99 1.99 0 0 1 .46-.216c.184-.061.398-.11.64-.148.243-.04.52-.064.832-.072v-.24c0-.275-.059-.477-.176-.608-.117-.133-.287-.2-.508-.2-.16 0-.293.019-.4.056-.104.037-.196.08-.276.128l-.22.124a.421.421 0 0 1-.216.056.292.292 0 0 1-.176-.052.476.476 0 0 1-.116-.128l-.176-.316Zm9.86-.572L85.638 24h-.792c-.091 0-.154-.059-.188-.176l-.736-2.372a9.797 9.797 0 0 1-.068-.236 3.917 3.917 0 0 1-.048-.24c-.016.08-.035.161-.056.244-.019.08-.04.16-.064.24l-.748 2.364c-.032.117-.103.176-.212.176h-.76l-1.3-4.104h.788c.072 0 .133.017.184.052.05.035.084.079.1.132l.588 2.192c.029.12.054.237.076.352.024.115.044.23.06.344.029-.115.06-.23.092-.344.034-.115.07-.232.108-.352l.68-2.2a.255.255 0 0 1 .092-.132.286.286 0 0 1 .172-.052h.436c.069 0 .128.017.176.052.05.035.084.079.1.132l.66 2.2c.034.12.066.239.096.356.032.115.062.23.092.344.034-.227.084-.46.148-.7l.604-2.192a.27.27 0 0 1 .1-.132.286.286 0 0 1 .172-.052h.752Z" fill="#DBDBDB"/><path d="M.5 31.5a3 3 0 0 1 3-3h87a3 3 0 0 1 3 3v7a3 3 0 0 1-3 3h-87a3 3 0 0 1-3-3v-7Z" fill="url(#c)"/><path d="M9.821 33.268a.382.382 0 0 1-.104.124.227.227 0 0 1-.132.036.363.363 0 0 1-.184-.06 3.516 3.516 0 0 0-.232-.14 1.801 1.801 0 0 0-.32-.136 1.28 1.28 0 0 0-.428-.064c-.15 0-.28.019-.392.056a.82.82 0 0 0-.284.148.604.604 0 0 0-.168.232.74.74 0 0 0-.056.292c0 .136.038.25.112.34.078.09.179.168.304.232.126.064.268.121.428.172.16.05.324.105.492.164.168.056.332.123.492.2.16.075.303.17.428.288.126.115.226.256.3.424.078.168.116.372.116.612 0 .261-.045.507-.136.736a1.682 1.682 0 0 1-.392.596c-.17.168-.38.301-.628.4a2.348 2.348 0 0 1-.852.144c-.184 0-.365-.019-.544-.056a2.805 2.805 0 0 1-.516-.152 2.791 2.791 0 0 1-.46-.24 2.224 2.224 0 0 1-.384-.312l.316-.516a.316.316 0 0 1 .104-.092.252.252 0 0 1 .136-.04c.067 0 .139.028.216.084.078.053.17.113.276.18a2.3 2.3 0 0 0 .372.184c.144.053.316.08.516.08.307 0 .544-.072.712-.216.168-.147.252-.356.252-.628a.574.574 0 0 0-.116-.372.878.878 0 0 0-.3-.24 2.165 2.165 0 0 0-.428-.168 14.19 14.19 0 0 1-.488-.148 4.196 4.196 0 0 1-.488-.192 1.582 1.582 0 0 1-.428-.292 1.357 1.357 0 0 1-.304-.448 1.758 1.758 0 0 1-.112-.668c0-.21.042-.416.124-.616.086-.2.208-.377.368-.532a1.79 1.79 0 0 1 .592-.372c.235-.093.504-.14.808-.14.342 0 .656.053.944.16.288.107.534.256.736.448l-.268.508Zm2.043.628V38h-.992v-4.104h.992ZM12 32.7a.564.564 0 0 1-.052.24.644.644 0 0 1-.14.196.664.664 0 0 1-.2.136.642.642 0 0 1-.492 0 .679.679 0 0 1-.332-.332.642.642 0 0 1 0-.488.619.619 0 0 1 .332-.332.599.599 0 0 1 .492 0 .63.63 0 0 1 .392.58Zm1.675 1.7a2.61 2.61 0 0 1 .26-.228 1.6 1.6 0 0 1 .624-.296 1.56 1.56 0 0 1 .385-.044c.223 0 .422.039.595.116.174.075.318.181.433.32.117.136.205.3.263.492.062.19.093.399.093.628V38h-.989v-2.612c0-.25-.057-.444-.171-.58-.115-.139-.29-.208-.524-.208a1.03 1.03 0 0 0-.48.116c-.15.077-.291.183-.425.316V38h-.988v-4.104h.604c.128 0 .213.06.252.18l.069.324Zm4.972 1.448c.123 0 .23-.016.32-.048a.63.63 0 0 0 .224-.14.539.539 0 0 0 .136-.212.747.747 0 0 0 .048-.272c0-.203-.061-.363-.184-.48-.12-.12-.301-.18-.544-.18-.242 0-.425.06-.548.18-.12.117-.18.277-.18.48 0 .096.015.185.044.268a.645.645 0 0 0 .136.216.672.672 0 0 0 .228.14c.093.032.2.048.32.048Zm1.116 2.336a.273.273 0 0 0-.072-.196.457.457 0 0 0-.196-.116 1.35 1.35 0 0 0-.292-.064 15.17 15.17 0 0 0-.736-.048 4.456 4.456 0 0 1-.384-.032.95.95 0 0 0-.268.216.445.445 0 0 0-.048.488.463.463 0 0 0 .172.164c.08.045.183.08.308.104.125.027.279.04.46.04.184 0 .343-.015.476-.044.134-.027.243-.065.328-.116a.477.477 0 0 0 .192-.176.42.42 0 0 0 .06-.22Zm.984-4.148v.368c0 .117-.07.19-.212.216l-.368.068c.056.141.084.296.084.464a1.218 1.218 0 0 1-.46.968 1.61 1.61 0 0 1-.512.268 2.094 2.094 0 0 1-.632.092c-.08 0-.157-.004-.232-.012a2.925 2.925 0 0 1-.22-.032c-.128.077-.192.164-.192.26 0 .083.038.144.112.184a1 1 0 0 0 .304.08c.125.016.268.027.428.032.16.003.324.01.492.024.168.013.332.037.492.072.16.032.303.084.428.156a.82.82 0 0 1 .3.296.88.88 0 0 1 .116.476c0 .181-.045.357-.136.528-.088.17-.217.323-.388.456a1.97 1.97 0 0 1-.624.32 2.625 2.625 0 0 1-.84.124c-.31 0-.579-.03-.808-.092a1.858 1.858 0 0 1-.572-.24 1.018 1.018 0 0 1-.34-.344.811.811 0 0 1-.112-.408c0-.192.058-.352.172-.48a1.21 1.21 0 0 1 .48-.312.689.689 0 0 1-.26-.224.639.639 0 0 1-.096-.368.59.59 0 0 1 .032-.188.905.905 0 0 1 .1-.196 1.094 1.094 0 0 1 .404-.336 1.31 1.31 0 0 1-.492-.448 1.206 1.206 0 0 1-.176-.656c0-.203.04-.385.12-.548.083-.165.196-.305.34-.42.147-.117.319-.207.516-.268.2-.061.418-.092.652-.092.176 0 .341.019.496.056.155.035.296.087.424.156h1.18Zm1.507-1.98V38h-.988v-5.944h.988Zm3.508 3.42a1.14 1.14 0 0 0-.056-.36.833.833 0 0 0-.16-.3.731.731 0 0 0-.276-.2.905.905 0 0 0-.384-.076c-.285 0-.51.081-.676.244-.163.163-.267.393-.312.692h1.864Zm-1.884.596c.016.21.053.393.112.548.059.152.136.279.232.38.096.099.21.173.34.224.133.048.28.072.44.072.16 0 .297-.019.412-.056a1.84 1.84 0 0 0 .304-.124c.088-.045.164-.087.228-.124a.394.394 0 0 1 .192-.056c.083 0 .144.03.184.092l.284.36a1.69 1.69 0 0 1-.368.324 2.188 2.188 0 0 1-.88.316c-.152.021-.3.032-.444.032a2.22 2.22 0 0 1-.796-.14 1.818 1.818 0 0 1-.64-.42 1.996 1.996 0 0 1-.428-.688 2.68 2.68 0 0 1-.156-.952c0-.28.045-.543.136-.788a1.83 1.83 0 0 1 1.008-1.08c.245-.107.521-.16.828-.16.259 0 .497.041.716.124.219.083.407.204.564.364.157.157.28.352.368.584.09.23.136.492.136.788 0 .15-.016.25-.048.304-.032.05-.093.076-.184.076h-2.54Z" fill="#DBDBDB"/><path opacity=".75" d="M31.5 30v10h1V30h-1Z" fill="#DBDBDB"/><path d="M42.635 33.268a.383.383 0 0 1-.104.124.227.227 0 0 1-.132.036.363.363 0 0 1-.184-.06 3.532 3.532 0 0 0-.232-.14 1.804 1.804 0 0 0-.32-.136 1.28 1.28 0 0 0-.428-.064c-.15 0-.28.019-.392.056a.82.82 0 0 0-.284.148.604.604 0 0 0-.168.232.739.739 0 0 0-.056.292c0 .136.037.25.112.34.077.09.178.168.304.232.125.064.268.121.428.172.16.05.324.105.492.164.168.056.332.123.492.2.16.075.302.17.428.288.125.115.225.256.3.424.077.168.116.372.116.612 0 .261-.046.507-.136.736a1.681 1.681 0 0 1-.392.596c-.171.168-.38.301-.628.4a2.348 2.348 0 0 1-.852.144c-.184 0-.366-.019-.544-.056a2.804 2.804 0 0 1-.516-.152 2.79 2.79 0 0 1-.46-.24 2.224 2.224 0 0 1-.384-.312l.316-.516a.315.315 0 0 1 .104-.092.252.252 0 0 1 .136-.04.38.38 0 0 1 .216.084c.077.053.169.113.276.18.106.067.23.128.372.184.144.053.316.08.516.08.306 0 .544-.072.712-.216.168-.147.252-.356.252-.628a.575.575 0 0 0-.116-.372.879.879 0 0 0-.3-.24 2.167 2.167 0 0 0-.428-.168 14.17 14.17 0 0 1-.488-.148 4.192 4.192 0 0 1-.488-.192 1.581 1.581 0 0 1-.428-.292 1.355 1.355 0 0 1-.304-.448 1.757 1.757 0 0 1-.112-.668c0-.21.041-.416.124-.616.085-.2.208-.377.368-.532.16-.155.357-.279.592-.372.234-.093.504-.14.808-.14.341 0 .656.053.944.16.288.107.533.256.736.448l-.268.508Zm1.968 1.068c.16-.15.336-.27.528-.364a1.53 1.53 0 0 1 .676-.14c.224 0 .422.039.596.116.173.075.317.181.432.32.117.136.205.3.264.492.06.19.092.399.092.628V38h-.988v-2.612c0-.25-.058-.444-.172-.58-.115-.139-.29-.208-.524-.208a1.03 1.03 0 0 0-.48.116 1.72 1.72 0 0 0-.424.316V38h-.988v-5.944h.988v2.28Zm4.431-.44V38h-.992v-4.104h.992Zm.136-1.196a.563.563 0 0 1-.052.24.64.64 0 0 1-.14.196.663.663 0 0 1-.2.136.642.642 0 0 1-.492 0 .68.68 0 0 1-.332-.332.642.642 0 0 1 0-.488.62.62 0 0 1 .332-.332.599.599 0 0 1 .492 0 .607.607 0 0 1 .2.132.628.628 0 0 1 .192.448Zm4.683 1.936v2.224c0 .128.032.228.096.3.065.072.15.108.257.108a.49.49 0 0 0 .26-.068c.032-.016.06-.03.084-.044a.129.129 0 0 1 .072-.024c.029 0 .053.008.072.024a.286.286 0 0 1 .06.064l.296.48c-.144.12-.31.21-.496.272a1.81 1.81 0 0 1-.577.092c-.357 0-.631-.1-.823-.3-.193-.203-.289-.481-.289-.836v-2.292h-1.668V38h-.988v-3.36l-.356-.056a.451.451 0 0 1-.188-.08.212.212 0 0 1-.068-.168v-.404h.612v-.304c0-.235.035-.445.104-.632a1.35 1.35 0 0 1 .304-.476c.134-.13.295-.23.485-.3.189-.07.402-.104.64-.104.189 0 .365.025.528.076l-.02.496a.166.166 0 0 1-.032.092.202.202 0 0 1-.077.052.496.496 0 0 1-.103.024c-.04.003-.083.004-.128.004-.118 0-.223.013-.316.04a.504.504 0 0 0-.233.132.597.597 0 0 0-.147.248 1.28 1.28 0 0 0-.048.38v.272h1.744l.212-1.124a.219.219 0 0 1 .075-.124.226.226 0 0 1 .145-.044h.511v1.292h1.096v.704h-1.096Z" fill="#DBDBDB"/><path opacity=".75" d="M61.5 30v10h1V30h-1Z" fill="#DBDBDB"/><path d="M73.765 35.108c0 .424-.07.813-.212 1.168-.141.355-.34.66-.596.916a2.666 2.666 0 0 1-.924.596c-.36.141-.76.212-1.2.212h-2.204v-5.784h2.204c.44 0 .84.072 1.2.216a2.64 2.64 0 0 1 1.52 1.508c.141.355.212.744.212 1.168Zm-1.104 0c0-.317-.043-.601-.128-.852a1.711 1.711 0 0 0-.364-.64 1.554 1.554 0 0 0-.576-.404 1.96 1.96 0 0 0-.76-.14h-1.124v4.072h1.124c.283 0 .536-.047.76-.14.227-.093.419-.227.576-.4.16-.176.281-.39.364-.64.085-.253.128-.539.128-.856Zm2.64-.5c.127-.245.28-.437.456-.576a.966.966 0 0 1 .623-.212c.19 0 .342.041.457.124l-.065.74a.195.195 0 0 1-.06.104.159.159 0 0 1-.1.028c-.04 0-.1-.007-.18-.02a1.343 1.343 0 0 0-.228-.02.74.74 0 0 0-.524.188.969.969 0 0 0-.18.216c-.05.085-.098.183-.144.292V38h-.987v-4.104h.58c.1 0 .172.019.212.056.04.035.066.099.08.192l.06.464Zm4.045 1.64a5.198 5.198 0 0 0-.72.076 1.87 1.87 0 0 0-.468.136.615.615 0 0 0-.252.196.426.426 0 0 0-.076.244c0 .173.05.297.152.372a.677.677 0 0 0 .404.112c.203 0 .377-.036.524-.108.15-.075.295-.187.436-.336v-.692Zm-2.264-1.78c.472-.432 1.04-.648 1.704-.648.24 0 .455.04.644.12.19.077.35.187.48.328.13.139.23.305.296.5.07.195.104.408.104.64V38h-.448a.472.472 0 0 1-.216-.04c-.05-.03-.09-.087-.12-.172l-.088-.296a3.898 3.898 0 0 1-.304.248c-.099.07-.201.128-.308.176a1.845 1.845 0 0 1-1.224.08 1.08 1.08 0 0 1-.38-.212.942.942 0 0 1-.248-.348 1.234 1.234 0 0 1-.088-.484.945.945 0 0 1 .22-.604 1.49 1.49 0 0 1 .308-.264 1.99 1.99 0 0 1 .46-.216c.184-.061.398-.11.64-.148.243-.04.52-.064.832-.072v-.24c0-.275-.059-.477-.176-.608-.117-.133-.287-.2-.508-.2-.16 0-.293.019-.4.056-.104.037-.196.08-.276.128l-.22.124a.421.421 0 0 1-.216.056.292.292 0 0 1-.176-.052.476.476 0 0 1-.116-.128l-.176-.316Zm9.86-.572L85.638 38h-.792c-.091 0-.154-.059-.188-.176l-.736-2.372a9.797 9.797 0 0 1-.068-.236 3.917 3.917 0 0 1-.048-.24c-.016.08-.035.161-.056.244-.019.08-.04.16-.064.24l-.748 2.364c-.032.117-.103.176-.212.176h-.76l-1.3-4.104h.788c.072 0 .133.017.184.052.05.035.084.079.1.132l.588 2.192c.029.12.054.237.076.352.024.115.044.23.06.344.029-.115.06-.23.092-.344.034-.115.07-.232.108-.352l.68-2.2a.255.255 0 0 1 .092-.132.286.286 0 0 1 .172-.052h.436c.069 0 .128.017.176.052.05.035.084.079.1.132l.66 2.2c.034.12.066.239.096.356.032.115.062.23.092.344.034-.227.084-.46.148-.7l.604-2.192a.27.27 0 0 1 .1-.132.286.286 0 0 1 .172-.052h.752Z" fill="#FF9000"/><defs><linearGradient id="a" x1="47" y1=".5" x2="47" y2="13.5" gradientUnits="userSpaceOnUse"><stop/><stop offset="1" stop-opacity=".25"/></linearGradient><linearGradient id="b" x1="47" y1="14.5" x2="47" y2="27.5" gradientUnits="userSpaceOnUse"><stop/><stop offset="1" stop-opacity=".25"/></linearGradient><linearGradient id="c" x1="47" y1="28.5" x2="47" y2="41.5" gradientUnits="userSpaceOnUse"><stop/><stop offset="1" stop-opacity=".25"/></linearGradient></defs></svg>