<svg width="40" height="168" fill="none" xmlns="http://www.w3.org/2000/svg"><path d="M.5 3.5a3 3 0 0 1 3-3h33a3 3 0 0 1 3 3v35a3 3 0 0 1-3 3h-33a3 3 0 0 1-3-3v-35Z" fill="url(#a)"/><path d="M14.156 3.86a.335.335 0 0 1-.091.108.199.199 0 0 1-.116.032.318.318 0 0 1-.16-.053 3.084 3.084 0 0 0-.204-.122 1.581 1.581 0 0 0-.28-.12 1.12 1.12 0 0 0-.374-.055c-.131 0-.245.016-.343.049a.717.717 0 0 0-.249.13.528.528 0 0 0-.147.202.647.647 0 0 0-.049.256c0 .119.033.218.098.297.068.08.156.147.266.203.11.056.235.106.375.15.14.045.283.093.43.144.147.05.29.107.43.175.14.065.265.15.375.252.11.1.197.224.263.371.067.147.101.326.101.536 0 .228-.04.443-.119.644a1.472 1.472 0 0 1-.343.521c-.15.147-.332.264-.55.35a2.055 2.055 0 0 1-.745.126 2.32 2.32 0 0 1-.476-.049 2.435 2.435 0 0 1-.854-.343 1.95 1.95 0 0 1-.336-.273l.277-.451a.275.275 0 0 1 .09-.08.22.22 0 0 1 .12-.036.33.33 0 0 1 .189.074c.067.046.148.099.241.157.093.058.202.112.326.161.126.047.276.07.451.07.268 0 .476-.063.623-.189.147-.128.22-.311.22-.55a.503.503 0 0 0-.1-.325.77.77 0 0 0-.263-.21 1.9 1.9 0 0 0-.375-.147c-.14-.04-.282-.083-.427-.13a3.681 3.681 0 0 1-.427-.167 1.382 1.382 0 0 1-.374-.256 1.186 1.186 0 0 1-.266-.392 1.537 1.537 0 0 1-.098-.584c0-.185.036-.364.108-.54.075-.174.182-.33.322-.465s.313-.244.518-.325c.205-.082.441-.123.707-.123.299 0 .574.047.826.14.252.093.467.224.644.392l-.234.445Zm1.787.55V8h-.868V4.41h.868Zm.12-1.047a.493.493 0 0 1-.046.21.562.562 0 0 1-.123.171.58.58 0 0 1-.175.12.562.562 0 0 1-.43 0 .594.594 0 0 1-.29-.291.562.562 0 0 1 0-.427.542.542 0 0 1 .29-.29.525.525 0 0 1 .43 0 .55.55 0 0 1 .343.507Zm1.465 1.487c.072-.072.148-.139.228-.2a1.4 1.4 0 0 1 .546-.258c.102-.026.214-.039.335-.039.197 0 .37.034.522.102a.99.99 0 0 1 .378.28c.103.119.18.262.231.43.054.166.08.349.08.55V8h-.864V5.715c0-.22-.05-.389-.15-.508-.1-.121-.254-.182-.459-.182a.9.9 0 0 0-.42.102c-.13.067-.254.16-.371.276V8h-.864V4.41h.528c.112 0 .185.052.22.157l.06.283Zm4.35 1.267c.107 0 .2-.014.28-.042a.55.55 0 0 0 .196-.122.47.47 0 0 0 .12-.186.654.654 0 0 0 .041-.238.554.554 0 0 0-.16-.42c-.106-.105-.265-.157-.477-.157-.212 0-.372.052-.48.157a.56.56 0 0 0-.157.42c0 .084.013.162.039.235a.566.566 0 0 0 .119.189c.053.05.12.092.2.122a.862.862 0 0 0 .28.042Zm.977 2.044a.24.24 0 0 0-.063-.171.4.4 0 0 0-.172-.102 1.188 1.188 0 0 0-.255-.056 13.396 13.396 0 0 0-.644-.042 3.916 3.916 0 0 1-.336-.028.834.834 0 0 0-.235.19.39.39 0 0 0-.042.426.406.406 0 0 0 .15.144c.07.04.16.07.27.09.11.024.244.036.403.036.16 0 .3-.013.416-.039a.914.914 0 0 0 .287-.101.417.417 0 0 0 .168-.154.367.367 0 0 0 .053-.193Zm.86-3.63v.323c0 .102-.061.165-.185.189l-.322.06c.05.123.074.258.074.405a1.065 1.065 0 0 1-.403.847c-.126.1-.275.179-.448.235-.17.053-.355.08-.553.08a1.905 1.905 0 0 1-.395-.038c-.112.067-.168.143-.168.227a.17.17 0 0 0 .098.161.874.874 0 0 0 .266.07c.11.014.234.023.374.028.14.002.284.01.43.021.148.012.291.033.431.063.14.028.265.074.375.137.11.063.197.149.262.259a.77.77 0 0 1 .102.416c0 .159-.04.313-.12.462-.076.15-.19.282-.339.4-.147.116-.329.21-.546.28-.215.071-.46.108-.735.108-.27 0-.506-.027-.707-.08a1.624 1.624 0 0 1-.5-.21.89.89 0 0 1-.298-.302.71.71 0 0 1-.098-.357c0-.168.05-.308.15-.42a1.06 1.06 0 0 1 .42-.273.602.602 0 0 1-.227-.196.559.559 0 0 1-.084-.322c0-.054.01-.108.028-.164a.796.796 0 0 1 .088-.172.962.962 0 0 1 .354-.294 1.147 1.147 0 0 1-.431-.392 1.056 1.056 0 0 1-.154-.574c0-.177.035-.337.105-.48a1.08 1.08 0 0 1 .297-.367 1.36 1.36 0 0 1 .452-.234c.175-.054.365-.08.57-.08.154 0 .299.015.434.048.136.03.26.076.371.137h1.033Zm1.32-1.731V8h-.865V2.8h.865Zm3.07 2.993a.992.992 0 0 0-.05-.315.73.73 0 0 0-.14-.263.64.64 0 0 0-.24-.175.792.792 0 0 0-.337-.066c-.25 0-.447.07-.591.213-.143.142-.234.344-.273.606h1.63Zm-1.649.521c.014.184.047.344.098.48a1 1 0 0 0 .203.332.826.826 0 0 0 .298.196c.116.042.245.063.385.063s.26-.016.36-.049c.103-.033.192-.069.266-.108.077-.04.144-.076.2-.109a.344.344 0 0 1 .168-.049c.072 0 .126.027.16.08l.25.316a1.48 1.48 0 0 1-.323.283 1.916 1.916 0 0 1-.77.277 2.794 2.794 0 0 1-.388.028c-.25 0-.482-.041-.697-.123a1.59 1.59 0 0 1-.56-.367 1.745 1.745 0 0 1-.374-.602 2.344 2.344 0 0 1-.137-.833c0-.245.04-.475.12-.69a1.64 1.64 0 0 1 .339-.563c.15-.161.33-.289.542-.382.215-.093.456-.14.725-.14.226 0 .435.036.626.109.192.072.356.178.494.318.137.138.245.308.322.511.08.2.119.43.119.69 0 .13-.014.219-.042.266-.028.044-.082.066-.161.066h-2.223Z" fill="#FF9000"/><path opacity=".75" d="M2 10.25v1h36v-1H2Z" fill="#DBDBDB"/><path d="M8.294 15.31h.22a.599.599 0 0 0 .221-.035.388.388 0 0 0 .15-.119l1.397-1.767a.494.494 0 0 1 .182-.154.582.582 0 0 1 .245-.046h.812l-1.704 2.104a.947.947 0 0 1-.312.273.673.673 0 0 1 .207.119.864.864 0 0 1 .178.196l1.757 2.37h-.83a.546.546 0 0 1-.252-.046.415.415 0 0 1-.136-.14l-1.431-1.87a.375.375 0 0 0-.154-.132.647.647 0 0 0-.252-.039h-.298v2.226h-.941v-5.06h.941v2.12Zm5.67.732a.989.989 0 0 0-.05-.315.729.729 0 0 0-.14-.263.64.64 0 0 0-.24-.175.793.793 0 0 0-.337-.066c-.25 0-.447.07-.591.213-.143.142-.234.344-.273.606h1.63Zm-1.649.521c.014.184.047.344.098.48a1 1 0 0 0 .203.332.827.827 0 0 0 .298.196c.116.042.245.063.385.063s.26-.016.36-.049a1.61 1.61 0 0 0 .266-.108c.077-.04.144-.076.2-.109a.344.344 0 0 1 .168-.049c.072 0 .126.027.16.08l.25.316a1.48 1.48 0 0 1-.323.283 1.913 1.913 0 0 1-.77.277 2.79 2.79 0 0 1-.388.028c-.25 0-.482-.041-.697-.123a1.59 1.59 0 0 1-.934-.97 2.344 2.344 0 0 1-.137-.832c0-.245.04-.475.12-.69a1.612 1.612 0 0 1 .881-.945 1.8 1.8 0 0 1 .725-.14c.226 0 .435.036.626.109.191.072.356.178.494.318.137.138.245.308.322.511.079.2.119.43.119.69 0 .13-.014.219-.042.266-.028.044-.082.066-.161.066h-2.223Zm6.129-1.904-1.957 4.578a.313.313 0 0 1-.101.137c-.04.032-.102.049-.186.049h-.644l.672-1.442-1.452-3.322h.76c.067 0 .12.016.157.05.04.032.069.07.087.111l.763 1.862a4.544 4.544 0 0 1 .116.382c.02-.066.042-.13.063-.193.02-.065.044-.13.07-.192l.72-1.859a.255.255 0 0 1 .238-.161h.694Zm4.575-.55a.334.334 0 0 1-.09.11.198.198 0 0 1-.116.03.318.318 0 0 1-.161-.052 3.058 3.058 0 0 0-.203-.122 1.577 1.577 0 0 0-.28-.12 1.12 1.12 0 0 0-.375-.055c-.13 0-.245.016-.343.049a.717.717 0 0 0-.248.13.53.53 0 0 0-.147.202.65.65 0 0 0-.05.256c0 .119.033.218.099.297.067.08.156.147.266.203.11.056.234.106.374.15.14.045.284.093.43.144.148.05.291.107.431.175.14.065.265.15.375.252.11.1.197.224.262.371.068.147.102.326.102.536 0 .228-.04.443-.12.644a1.47 1.47 0 0 1-.342.521 1.63 1.63 0 0 1-.55.35 2.055 2.055 0 0 1-.745.126 2.32 2.32 0 0 1-.476-.049 2.434 2.434 0 0 1-.854-.343 1.952 1.952 0 0 1-.336-.273l.276-.451a.277.277 0 0 1 .091-.08.221.221 0 0 1 .12-.036.33.33 0 0 1 .188.074c.068.046.148.099.242.157.093.058.202.112.325.161.126.047.277.07.452.07.268 0 .476-.063.623-.189.147-.128.22-.311.22-.55a.502.502 0 0 0-.101-.325.768.768 0 0 0-.263-.21 1.9 1.9 0 0 0-.374-.147 12.44 12.44 0 0 1-.427-.13 3.699 3.699 0 0 1-.427-.167 1.383 1.383 0 0 1-.375-.256 1.19 1.19 0 0 1-.266-.392 1.539 1.539 0 0 1-.098-.584 1.4 1.4 0 0 1 .109-.54c.074-.174.182-.33.322-.465a1.57 1.57 0 0 1 .518-.325 1.89 1.89 0 0 1 .707-.123c.298 0 .574.047.826.14.252.093.466.224.644.392l-.235.445Zm1.702 3.21a.855.855 0 0 0 .318.252.966.966 0 0 0 .378.074.83.83 0 0 0 .354-.074.68.68 0 0 0 .266-.224 1.1 1.1 0 0 0 .171-.378c.04-.154.06-.335.06-.542a2.3 2.3 0 0 0-.053-.532 1.01 1.01 0 0 0-.143-.357.57.57 0 0 0-.231-.2.703.703 0 0 0-.305-.063.863.863 0 0 0-.458.116c-.126.074-.245.18-.357.318v1.61Zm-.046-2.17c.147-.166.314-.3.5-.402.187-.103.407-.154.659-.154a1.166 1.166 0 0 1 .955.48c.12.153.21.344.273.573.065.226.098.487.098.78 0 .269-.036.517-.108.746a1.807 1.807 0 0 1-.312.595c-.133.168-.295.3-.486.396a1.42 1.42 0 0 1-.637.14c-.201 0-.373-.03-.515-.091a1.283 1.283 0 0 1-.381-.26v1.47h-.865V14.66h.529c.112 0 .185.053.22.158l.07.332Zm3.93-2.1v5.201h-.865v-5.2h.865Zm1.652 1.61v3.591h-.868v-3.59h.868Zm.119-1.046a.491.491 0 0 1-.046.21.56.56 0 0 1-.122.171.58.58 0 0 1-.175.12.562.562 0 0 1-.43 0 .594.594 0 0 1-.291-.291.562.562 0 0 1 0-.427.542.542 0 0 1 .29-.29.525.525 0 0 1 .43 0 .548.548 0 0 1 .343.508Zm1.854 4.693c-.312 0-.553-.087-.72-.262-.166-.178-.25-.422-.25-.732v-2.005h-.367a.169.169 0 0 1-.119-.046c-.032-.03-.049-.076-.049-.136v-.343l.578-.095.182-.98a.192.192 0 0 1 .066-.108.197.197 0 0 1 .126-.039h.448v1.13h.96v.617h-.96v1.946c0 .112.027.2.08.262a.289.289 0 0 0 .228.095.427.427 0 0 0 .228-.06l.073-.038a.113.113 0 0 1 .063-.021c.026 0 .047.007.063.02a.25.25 0 0 1 .053.057l.259.42a1.31 1.31 0 0 1-.434.238 1.64 1.64 0 0 1-.508.08Z" fill="#DBDBDB"/><path opacity=".75" d="M2 20.5v1h36v-1H2Z" fill="#DBDBDB"/><path d="M8.683 27.307a.19.19 0 0 1 .137.06l.37.402a2.029 2.029 0 0 1-.759.584c-.299.135-.658.203-1.078.203-.376 0-.714-.064-1.015-.192a2.236 2.236 0 0 1-.766-.536 2.366 2.366 0 0 1-.49-.819 3.103 3.103 0 0 1-.168-1.04c0-.38.06-.727.182-1.042.12-.318.291-.59.51-.82a2.33 2.33 0 0 1 .792-.531 2.597 2.597 0 0 1 1.015-.193c.368 0 .695.06.98.182.287.121.53.28.731.476l-.315.438a.275.275 0 0 1-.073.073.195.195 0 0 1-.12.032.242.242 0 0 1-.108-.028 2.82 2.82 0 0 1-.122-.074 3.122 3.122 0 0 0-.154-.098 1.448 1.448 0 0 0-.472-.168 1.724 1.724 0 0 0-.35-.031c-.227 0-.435.04-.624.122-.187.08-.348.196-.483.35-.135.152-.24.338-.315.56a2.33 2.33 0 0 0-.112.753c0 .284.04.537.12.76.08.22.19.407.328.56a1.417 1.417 0 0 0 1.089.468c.128 0 .243-.007.346-.02.105-.015.2-.037.287-.067.089-.03.172-.07.249-.116a1.6 1.6 0 0 0 .234-.178.29.29 0 0 1 .074-.05.166.166 0 0 1 .08-.02Zm1.776-2.013c.14-.13.293-.237.462-.318.168-.082.365-.123.591-.123.196 0 .37.034.521.102a.99.99 0 0 1 .379.28c.102.119.18.262.23.43.054.166.081.349.081.55V28.5h-.865v-2.285c0-.22-.05-.389-.15-.508-.1-.121-.253-.182-.459-.182a.9.9 0 0 0-.42.102c-.13.067-.254.16-.37.276V28.5h-.865v-5.2h.865v1.994Zm4.878 1.673c-.25.012-.46.034-.63.067-.17.03-.307.07-.41.119a.538.538 0 0 0-.22.171.373.373 0 0 0-.066.214c0 .151.044.26.133.325a.592.592 0 0 0 .353.098c.178 0 .33-.031.459-.094.13-.066.258-.164.381-.294v-.606Zm-1.98-1.557a2.13 2.13 0 0 1 1.49-.567c.21 0 .398.035.564.105.165.067.305.163.42.287.114.12.2.267.259.437.06.17.09.357.09.56V28.5h-.391a.413.413 0 0 1-.19-.035c-.044-.026-.079-.076-.104-.15l-.077-.26c-.091.082-.18.155-.266.218a1.69 1.69 0 0 1-.27.154 1.619 1.619 0 0 1-1.071.07.944.944 0 0 1-.332-.186.825.825 0 0 1-.217-.304 1.08 1.08 0 0 1-.077-.424.828.828 0 0 1 .192-.528c.07-.082.16-.16.27-.231a1.75 1.75 0 0 1 .402-.19c.161-.053.348-.096.56-.129a5.36 5.36 0 0 1 .728-.063v-.21c0-.24-.051-.418-.154-.532-.102-.117-.25-.175-.444-.175a1.07 1.07 0 0 0-.592.161l-.192.109a.368.368 0 0 1-.19.049.256.256 0 0 1-.153-.046.419.419 0 0 1-.102-.112l-.154-.276Zm4.341-.06a2.28 2.28 0 0 1 .228-.2 1.394 1.394 0 0 1 .546-.258 1.36 1.36 0 0 1 .336-.039c.196 0 .37.034.521.102a.991.991 0 0 1 .378.28c.103.119.18.262.231.43.054.166.08.349.08.55V28.5h-.864v-2.285c0-.22-.05-.389-.15-.508-.1-.121-.253-.182-.459-.182a.9.9 0 0 0-.42.102c-.13.067-.254.16-.37.276V28.5h-.865v-3.59h.528c.112 0 .186.052.22.157l.06.283Zm7.467-.99a.334.334 0 0 1-.091.108.198.198 0 0 1-.116.032.318.318 0 0 1-.16-.053 3.084 3.084 0 0 0-.204-.122 1.58 1.58 0 0 0-.28-.12 1.12 1.12 0 0 0-.374-.055c-.131 0-.245.016-.343.049a.717.717 0 0 0-.249.13.53.53 0 0 0-.147.202.647.647 0 0 0-.049.256c0 .119.033.218.098.297.068.08.157.147.266.203.11.056.235.106.375.15.14.045.283.093.43.144.147.05.29.107.43.175.14.065.265.15.375.252.11.1.197.224.263.371.067.147.101.326.101.536 0 .228-.04.443-.119.644a1.47 1.47 0 0 1-.343.521 1.63 1.63 0 0 1-.55.35 2.055 2.055 0 0 1-.745.126c-.16 0-.32-.016-.476-.049a2.434 2.434 0 0 1-.854-.343 1.952 1.952 0 0 1-.336-.273l.277-.451a.276.276 0 0 1 .09-.08.221.221 0 0 1 .12-.036.33.33 0 0 1 .189.074c.067.046.148.099.241.157.093.058.202.112.326.161.126.047.276.07.451.07.268 0 .476-.063.623-.189.147-.128.22-.311.22-.55a.502.502 0 0 0-.1-.325.768.768 0 0 0-.263-.21 1.903 1.903 0 0 0-.375-.147 12.44 12.44 0 0 1-.427-.13 3.692 3.692 0 0 1-.427-.167 1.383 1.383 0 0 1-.374-.256 1.188 1.188 0 0 1-.266-.392 1.539 1.539 0 0 1-.098-.584 1.4 1.4 0 0 1 .108-.54c.075-.174.182-.33.322-.465a1.57 1.57 0 0 1 .518-.325c.205-.082.441-.123.707-.123.299 0 .574.047.826.14.252.093.467.224.644.392l-.234.445Zm1.701 3.21a.855.855 0 0 0 .319.251.966.966 0 0 0 .378.074c.13 0 .248-.025.353-.074a.68.68 0 0 0 .266-.224c.075-.1.132-.226.172-.378.04-.154.06-.335.06-.542a2.3 2.3 0 0 0-.053-.532 1.008 1.008 0 0 0-.144-.357.57.57 0 0 0-.23-.2.703.703 0 0 0-.305-.063.863.863 0 0 0-.459.116c-.126.074-.245.18-.357.318v1.61Zm-.045-2.17c.147-.167.313-.3.5-.403.187-.103.406-.154.658-.154a1.166 1.166 0 0 1 .956.48c.119.153.21.344.273.573.065.226.098.487.098.78 0 .269-.037.517-.109.746a1.803 1.803 0 0 1-.311.595c-.133.168-.296.3-.487.396a1.42 1.42 0 0 1-.637.14c-.2 0-.372-.03-.514-.091a1.284 1.284 0 0 1-.382-.26v1.47h-.864V24.91h.528c.112 0 .186.053.22.158l.07.332Zm3.93-2.1v5.2h-.865v-5.2h.864Zm1.652 1.61v3.59h-.868v-3.59h.868Zm.119-1.047a.493.493 0 0 1-.046.21.564.564 0 0 1-.123.171.58.58 0 0 1-.175.12.562.562 0 0 1-.43 0 .592.592 0 0 1-.29-.291.562.562 0 0 1 0-.427.541.541 0 0 1 .29-.29.525.525 0 0 1 .43 0 .551.551 0 0 1 .343.508Zm1.854 4.693c-.313 0-.553-.087-.721-.262-.166-.178-.249-.422-.249-.732v-2.005h-.367a.169.169 0 0 1-.12-.046c-.032-.03-.048-.076-.048-.136v-.343l.577-.095.182-.98a.193.193 0 0 1 .067-.108.198.198 0 0 1 .126-.039h.448v1.13h.959v.617h-.96v1.946c0 .112.028.2.081.262a.29.29 0 0 0 .228.095.426.426 0 0 0 .227-.06l.074-.038a.113.113 0 0 1 .063-.021c.026 0 .047.007.063.02.016.012.034.03.052.057l.26.42a1.323 1.323 0 0 1-.435.238 1.63 1.63 0 0 1-.507.08Z" fill="#DBDBDB"/><path opacity=".75" d="M2 30.75v1h36v-1H2Z" fill="#DBDBDB"/><path d="M17.955 36.22c0 .37-.061.711-.185 1.022-.124.31-.298.577-.522.801a2.334 2.334 0 0 1-.808.522 2.85 2.85 0 0 1-1.05.185h-1.93v-5.06h1.929c.385 0 .735.062 1.05.188a2.31 2.31 0 0 1 1.33 1.32c.124.31.185.65.185 1.022Zm-.966 0c0-.278-.037-.527-.112-.746a1.496 1.496 0 0 0-.318-.56 1.36 1.36 0 0 0-.504-.353 1.714 1.714 0 0 0-.665-.123h-.984v3.563h.984c.247 0 .469-.04.665-.122.198-.082.366-.199.504-.35.14-.154.246-.341.318-.56.075-.222.112-.472.112-.75Zm4.602-1.06v3.59h-.528c-.115 0-.187-.052-.217-.157l-.06-.287c-.147.149-.309.27-.486.364a1.356 1.356 0 0 1-.627.136c-.196 0-.37-.033-.521-.098a1.062 1.062 0 0 1-.378-.283 1.256 1.256 0 0 1-.235-.43 1.883 1.883 0 0 1-.077-.554V35.16h.865v2.282c0 .22.05.39.15.511.103.12.256.179.459.179.15 0 .29-.033.42-.098.13-.068.254-.16.37-.277V35.16h.865Zm2.65 2.057a4.55 4.55 0 0 0-.63.067c-.17.03-.307.07-.41.119a.54.54 0 0 0-.22.171.373.373 0 0 0-.067.214c0 .151.044.26.133.325a.592.592 0 0 0 .353.098c.178 0 .33-.031.459-.094.13-.066.258-.164.381-.294v-.606Zm-1.982-1.557a2.13 2.13 0 0 1 1.491-.567c.21 0 .398.035.564.105.166.067.306.163.42.287.114.12.2.267.259.437.06.17.09.357.09.56v2.268h-.391a.414.414 0 0 1-.19-.035c-.043-.026-.078-.076-.104-.15l-.077-.26a3.39 3.39 0 0 1-.266.218c-.086.06-.176.112-.27.154a1.618 1.618 0 0 1-1.071.07.944.944 0 0 1-.332-.186.827.827 0 0 1-.217-.304 1.08 1.08 0 0 1-.077-.424.828.828 0 0 1 .192-.528c.07-.082.16-.16.27-.231a1.75 1.75 0 0 1 .402-.19c.161-.053.348-.096.56-.129a5.37 5.37 0 0 1 .728-.063v-.21c0-.24-.05-.418-.154-.532-.102-.117-.25-.175-.444-.175a1.07 1.07 0 0 0-.592.161l-.192.109a.368.368 0 0 1-.19.049.256.256 0 0 1-.153-.046.419.419 0 0 1-.102-.112l-.154-.276Zm4.41-2.11v5.2h-.865v-5.2h.864Z" fill="#DBDBDB"/><path d="M.5 45.5a3 3 0 0 1 3-3h33a3 3 0 0 1 3 3v35a3 3 0 0 1-3 3h-33a3 3 0 0 1-3-3v-35Z" fill="url(#b)"/><path d="M14.156 45.86a.335.335 0 0 1-.091.108.199.199 0 0 1-.116.032.318.318 0 0 1-.16-.053 3.084 3.084 0 0 0-.204-.122 1.584 1.584 0 0 0-.28-.12 1.121 1.121 0 0 0-.374-.055c-.131 0-.245.016-.343.049a.716.716 0 0 0-.249.13.528.528 0 0 0-.147.202.647.647 0 0 0-.049.256c0 .119.033.218.098.297.068.08.156.147.266.203.11.056.235.106.375.15.14.045.283.093.43.144.147.05.29.107.43.175.14.065.265.15.375.252.11.1.197.224.263.371.067.147.101.326.101.536 0 .228-.04.443-.119.644a1.472 1.472 0 0 1-.343.521c-.15.147-.332.264-.55.35a2.055 2.055 0 0 1-.745.126c-.16 0-.32-.016-.476-.049a2.43 2.43 0 0 1-.854-.343 1.952 1.952 0 0 1-.336-.273l.277-.451a.275.275 0 0 1 .09-.08.221.221 0 0 1 .12-.036.33.33 0 0 1 .189.074c.067.046.148.099.241.157.093.058.202.112.326.161.126.047.276.07.451.07.268 0 .476-.063.623-.189.147-.128.22-.311.22-.55a.503.503 0 0 0-.1-.325.77.77 0 0 0-.263-.21 1.903 1.903 0 0 0-.375-.147c-.14-.04-.282-.083-.427-.13a3.692 3.692 0 0 1-.427-.167 1.382 1.382 0 0 1-.374-.256 1.186 1.186 0 0 1-.266-.392 1.537 1.537 0 0 1-.098-.584c0-.185.036-.364.108-.54.075-.174.182-.33.322-.465a1.57 1.57 0 0 1 .518-.325c.205-.082.441-.123.707-.123.299 0 .574.047.826.14.252.093.467.224.644.392l-.234.445Zm1.787.55V50h-.868v-3.59h.868Zm.12-1.047a.493.493 0 0 1-.046.21.562.562 0 0 1-.123.171.58.58 0 0 1-.175.12.562.562 0 0 1-.43 0 .594.594 0 0 1-.29-.291.562.562 0 0 1 0-.427.542.542 0 0 1 .29-.29.525.525 0 0 1 .43 0 .55.55 0 0 1 .343.508Zm1.465 1.487c.072-.072.148-.139.228-.2a1.4 1.4 0 0 1 .546-.258c.102-.026.214-.039.335-.039.197 0 .37.034.522.102a.99.99 0 0 1 .378.28c.103.119.18.262.231.43.054.166.08.349.08.55V50h-.864v-2.285c0-.22-.05-.389-.15-.508-.1-.121-.254-.182-.459-.182a.9.9 0 0 0-.42.102c-.13.067-.254.16-.371.276V50h-.864v-3.59h.528c.112 0 .185.052.22.157l.06.283Zm4.35 1.267c.107 0 .2-.014.28-.042a.55.55 0 0 0 .196-.122.47.47 0 0 0 .12-.186.654.654 0 0 0 .041-.238.554.554 0 0 0-.16-.42c-.106-.105-.265-.157-.477-.157-.212 0-.372.052-.48.157a.56.56 0 0 0-.157.42c0 .084.013.162.039.235a.567.567 0 0 0 .119.189c.053.05.12.092.2.122a.862.862 0 0 0 .28.042Zm.977 2.044a.24.24 0 0 0-.063-.171.4.4 0 0 0-.172-.102 1.188 1.188 0 0 0-.255-.056 13.54 13.54 0 0 0-.644-.042 3.928 3.928 0 0 1-.336-.028.835.835 0 0 0-.235.19.39.39 0 0 0-.042.426.407.407 0 0 0 .15.144c.07.04.16.07.27.09.11.024.244.036.403.036.16 0 .3-.013.416-.039a.914.914 0 0 0 .287-.101.417.417 0 0 0 .168-.154.367.367 0 0 0 .053-.193Zm.86-3.63v.323c0 .102-.061.165-.185.189l-.322.06c.05.123.074.258.074.405a1.065 1.065 0 0 1-.403.847 1.41 1.41 0 0 1-.448.235 1.83 1.83 0 0 1-.553.08 1.905 1.905 0 0 1-.395-.038c-.112.067-.168.143-.168.227a.17.17 0 0 0 .098.161.874.874 0 0 0 .266.07c.11.014.234.023.374.028.14.002.284.01.43.021.148.012.291.033.431.063.14.028.265.074.375.137.11.063.197.149.262.259a.77.77 0 0 1 .102.416c0 .159-.04.313-.12.462-.076.15-.19.282-.339.4-.147.116-.329.21-.546.28-.215.071-.46.108-.735.108-.27 0-.506-.027-.707-.08a1.623 1.623 0 0 1-.5-.21.89.89 0 0 1-.298-.302.71.71 0 0 1-.098-.357c0-.168.05-.308.15-.42a1.06 1.06 0 0 1 .42-.273.602.602 0 0 1-.227-.196.56.56 0 0 1-.084-.322c0-.054.01-.108.028-.164a.796.796 0 0 1 .088-.172.964.964 0 0 1 .354-.294 1.147 1.147 0 0 1-.431-.392 1.056 1.056 0 0 1-.154-.574c0-.177.035-.337.105-.48a1.08 1.08 0 0 1 .297-.367 1.36 1.36 0 0 1 .452-.234c.175-.054.365-.08.57-.08.154 0 .299.015.434.048.136.03.26.076.371.137h1.033Zm1.319-1.732V50h-.865v-5.2h.865Zm3.07 2.993a.992.992 0 0 0-.05-.315.73.73 0 0 0-.14-.263.64.64 0 0 0-.24-.175.793.793 0 0 0-.337-.066c-.25 0-.447.07-.591.213-.143.142-.234.344-.273.606h1.63Zm-1.649.521c.014.184.047.344.098.48a1 1 0 0 0 .203.332.826.826 0 0 0 .298.196c.116.042.245.063.385.063s.26-.016.36-.049c.103-.033.192-.069.266-.108.077-.04.144-.076.2-.109a.344.344 0 0 1 .168-.049c.072 0 .126.027.16.08l.25.316a1.48 1.48 0 0 1-.323.283 1.916 1.916 0 0 1-.77.277 2.79 2.79 0 0 1-.388.028c-.25 0-.482-.041-.697-.123a1.59 1.59 0 0 1-.56-.367 1.745 1.745 0 0 1-.374-.602 2.344 2.344 0 0 1-.137-.833c0-.245.04-.475.12-.69a1.64 1.64 0 0 1 .339-.563c.15-.161.33-.289.542-.382a1.8 1.8 0 0 1 .725-.14c.226 0 .435.036.626.109.192.072.356.178.494.318.137.138.245.308.322.511.08.2.119.43.119.69 0 .13-.014.219-.042.266-.028.044-.082.066-.161.066h-2.223Z" fill="#DBDBDB"/><path opacity=".75" d="M2 52.25v1h36v-1H2Z" fill="#DBDBDB"/><path d="M8.294 57.31h.22a.599.599 0 0 0 .221-.035.388.388 0 0 0 .15-.119l1.397-1.767a.494.494 0 0 1 .182-.154.582.582 0 0 1 .245-.046h.812l-1.704 2.104a.947.947 0 0 1-.312.273.673.673 0 0 1 .207.119.864.864 0 0 1 .178.196l1.757 2.37h-.83a.546.546 0 0 1-.252-.046.415.415 0 0 1-.136-.14l-1.431-1.87a.375.375 0 0 0-.154-.132.647.647 0 0 0-.252-.039h-.298v2.226h-.941v-5.06h.941v2.12Zm5.67.732a.989.989 0 0 0-.05-.315.729.729 0 0 0-.14-.263.64.64 0 0 0-.24-.175.793.793 0 0 0-.337-.066c-.25 0-.447.07-.591.213-.143.142-.234.344-.273.606h1.63Zm-1.649.521c.014.184.047.344.098.48a1 1 0 0 0 .203.332.827.827 0 0 0 .298.196c.116.042.245.063.385.063s.26-.016.36-.049a1.61 1.61 0 0 0 .266-.108c.077-.04.144-.076.2-.109a.344.344 0 0 1 .168-.049c.072 0 .126.027.16.08l.25.316a1.48 1.48 0 0 1-.323.283 1.913 1.913 0 0 1-.77.277 2.79 2.79 0 0 1-.388.028c-.25 0-.482-.041-.697-.123a1.59 1.59 0 0 1-.934-.97 2.344 2.344 0 0 1-.137-.832c0-.245.04-.475.12-.69a1.612 1.612 0 0 1 .881-.945 1.8 1.8 0 0 1 .725-.14c.226 0 .435.036.626.109.191.072.356.178.494.318.137.138.245.308.322.511.079.2.119.43.119.69 0 .13-.014.219-.042.266-.028.044-.082.066-.161.066h-2.223Zm6.129-1.904-1.957 4.578a.313.313 0 0 1-.101.137c-.04.032-.102.049-.186.049h-.644l.672-1.442-1.452-3.322h.76c.067 0 .12.016.157.05.04.032.069.07.087.111l.763 1.862a4.544 4.544 0 0 1 .116.382c.02-.066.042-.13.063-.193.02-.065.044-.13.07-.192l.72-1.859a.255.255 0 0 1 .238-.161h.694Zm4.575-.55a.334.334 0 0 1-.09.11.198.198 0 0 1-.116.03.318.318 0 0 1-.161-.052 3.058 3.058 0 0 0-.203-.122 1.577 1.577 0 0 0-.28-.12 1.12 1.12 0 0 0-.375-.055c-.13 0-.245.016-.343.049a.717.717 0 0 0-.248.13.53.53 0 0 0-.147.202.65.65 0 0 0-.05.256c0 .119.033.218.099.297.067.08.156.147.266.203.11.056.234.106.374.15.14.045.284.093.43.144.148.05.291.107.431.175.14.065.265.15.375.252.11.1.197.224.262.371.068.147.102.326.102.536 0 .228-.04.443-.12.644a1.47 1.47 0 0 1-.342.521 1.63 1.63 0 0 1-.55.35 2.055 2.055 0 0 1-.745.126 2.32 2.32 0 0 1-.476-.049 2.434 2.434 0 0 1-.854-.343 1.952 1.952 0 0 1-.336-.273l.276-.451a.277.277 0 0 1 .091-.08.221.221 0 0 1 .12-.036.33.33 0 0 1 .188.074c.068.046.148.099.242.157.093.058.202.112.325.161.126.047.277.07.452.07.268 0 .476-.063.623-.189.147-.128.22-.311.22-.55a.502.502 0 0 0-.101-.325.768.768 0 0 0-.263-.21 1.9 1.9 0 0 0-.374-.147 12.44 12.44 0 0 1-.427-.13 3.699 3.699 0 0 1-.427-.167 1.383 1.383 0 0 1-.375-.256 1.19 1.19 0 0 1-.266-.392 1.539 1.539 0 0 1-.098-.584 1.4 1.4 0 0 1 .109-.54c.074-.174.182-.33.322-.465a1.57 1.57 0 0 1 .518-.325 1.89 1.89 0 0 1 .707-.123c.298 0 .574.047.826.14.252.093.466.224.644.392l-.235.445Zm1.702 3.21a.855.855 0 0 0 .318.252.966.966 0 0 0 .378.074.83.83 0 0 0 .354-.074.68.68 0 0 0 .266-.224 1.1 1.1 0 0 0 .171-.378c.04-.154.06-.335.06-.542a2.3 2.3 0 0 0-.053-.532 1.01 1.01 0 0 0-.143-.357.57.57 0 0 0-.231-.2.703.703 0 0 0-.305-.063.863.863 0 0 0-.458.116c-.126.074-.245.18-.357.318v1.61Zm-.046-2.17c.147-.166.314-.3.5-.402.187-.103.407-.154.659-.154a1.166 1.166 0 0 1 .955.48c.12.153.21.344.273.573.065.226.098.487.098.78 0 .269-.036.517-.108.746a1.807 1.807 0 0 1-.312.595c-.133.168-.295.3-.486.396a1.42 1.42 0 0 1-.637.14c-.201 0-.373-.03-.515-.091a1.283 1.283 0 0 1-.381-.26v1.47h-.865V56.66h.529c.112 0 .185.053.22.158l.07.332Zm3.93-2.1v5.201h-.865v-5.2h.865Zm1.652 1.61v3.591h-.868v-3.59h.868Zm.119-1.046a.491.491 0 0 1-.046.21.56.56 0 0 1-.122.171.58.58 0 0 1-.175.12.562.562 0 0 1-.43 0 .594.594 0 0 1-.291-.291.562.562 0 0 1 0-.427.542.542 0 0 1 .29-.29.525.525 0 0 1 .43 0 .548.548 0 0 1 .343.508Zm1.854 4.693c-.312 0-.553-.087-.72-.262-.166-.178-.25-.422-.25-.732v-2.005h-.367a.169.169 0 0 1-.119-.046c-.032-.03-.049-.076-.049-.136v-.343l.578-.095.182-.98a.192.192 0 0 1 .066-.108.197.197 0 0 1 .126-.039h.448v1.13h.96v.617h-.96v1.946c0 .112.027.2.08.262a.289.289 0 0 0 .228.095.427.427 0 0 0 .228-.06l.073-.038a.113.113 0 0 1 .063-.021c.026 0 .047.007.063.02a.25.25 0 0 1 .053.057l.259.42a1.31 1.31 0 0 1-.434.238 1.64 1.64 0 0 1-.508.08Z" fill="#FF9000"/><path opacity=".75" d="M2 62.5v1h36v-1H2Z" fill="#DBDBDB"/><path d="M8.683 69.307a.19.19 0 0 1 .137.06l.37.402a2.029 2.029 0 0 1-.759.584c-.299.135-.658.203-1.078.203-.376 0-.714-.064-1.015-.192a2.236 2.236 0 0 1-.766-.536 2.366 2.366 0 0 1-.49-.819 3.103 3.103 0 0 1-.168-1.04c0-.38.06-.727.182-1.042.12-.318.291-.59.51-.82a2.33 2.33 0 0 1 .792-.531 2.597 2.597 0 0 1 1.015-.193c.368 0 .695.06.98.182.287.121.53.28.731.476l-.315.438a.275.275 0 0 1-.073.073.195.195 0 0 1-.12.032.242.242 0 0 1-.108-.028 2.82 2.82 0 0 1-.122-.074 3.122 3.122 0 0 0-.154-.098 1.448 1.448 0 0 0-.472-.168 1.724 1.724 0 0 0-.35-.031c-.227 0-.435.04-.624.122-.187.08-.348.196-.483.35-.135.152-.24.338-.315.56a2.33 2.33 0 0 0-.112.753c0 .284.04.537.12.76.08.22.19.407.328.56a1.417 1.417 0 0 0 1.089.468c.128 0 .243-.007.346-.02.105-.015.2-.037.287-.067.089-.03.172-.07.249-.116a1.6 1.6 0 0 0 .234-.178.29.29 0 0 1 .074-.05.166.166 0 0 1 .08-.02Zm1.776-2.013c.14-.13.293-.237.462-.318.168-.082.365-.123.591-.123.196 0 .37.034.521.102a.99.99 0 0 1 .379.28c.102.119.18.262.23.43.054.166.081.349.081.55V70.5h-.865v-2.285c0-.22-.05-.389-.15-.508-.1-.121-.253-.182-.459-.182a.9.9 0 0 0-.42.102c-.13.067-.254.16-.37.276V70.5h-.865v-5.2h.865v1.994Zm4.878 1.673c-.25.012-.46.034-.63.067-.17.03-.307.07-.41.119a.538.538 0 0 0-.22.171.373.373 0 0 0-.066.214c0 .151.044.26.133.325a.592.592 0 0 0 .353.098c.178 0 .33-.031.459-.094.13-.066.258-.164.381-.294v-.606Zm-1.98-1.557a2.13 2.13 0 0 1 1.49-.567c.21 0 .398.035.564.105.165.067.305.163.42.287.114.12.2.267.259.437.06.17.09.357.09.56V70.5h-.391a.413.413 0 0 1-.19-.035c-.044-.026-.079-.076-.104-.15l-.077-.26c-.091.082-.18.155-.266.218a1.69 1.69 0 0 1-.27.154 1.619 1.619 0 0 1-1.071.07.944.944 0 0 1-.332-.186.825.825 0 0 1-.217-.304 1.08 1.08 0 0 1-.077-.424.828.828 0 0 1 .192-.528c.07-.082.16-.16.27-.231a1.75 1.75 0 0 1 .402-.19c.161-.053.348-.096.56-.129a5.36 5.36 0 0 1 .728-.063v-.21c0-.24-.051-.418-.154-.532-.102-.117-.25-.175-.444-.175a1.07 1.07 0 0 0-.592.161l-.192.109a.368.368 0 0 1-.19.049.256.256 0 0 1-.153-.046.419.419 0 0 1-.102-.112l-.154-.276Zm4.341-.06a2.28 2.28 0 0 1 .228-.2 1.394 1.394 0 0 1 .546-.258 1.36 1.36 0 0 1 .336-.039c.196 0 .37.034.521.102a.991.991 0 0 1 .378.28c.103.119.18.262.231.43.054.166.08.349.08.55V70.5h-.864v-2.285c0-.22-.05-.389-.15-.508-.1-.121-.253-.182-.459-.182a.9.9 0 0 0-.42.102c-.13.067-.254.16-.37.276V70.5h-.865v-3.59h.528c.112 0 .186.052.22.157l.06.283Zm7.467-.99a.334.334 0 0 1-.091.108.198.198 0 0 1-.116.032.318.318 0 0 1-.16-.053 3.084 3.084 0 0 0-.204-.122 1.58 1.58 0 0 0-.28-.12 1.12 1.12 0 0 0-.374-.055c-.131 0-.245.016-.343.049a.717.717 0 0 0-.249.13.53.53 0 0 0-.147.202.647.647 0 0 0-.049.256c0 .119.033.218.098.297.068.08.157.147.266.203.11.056.235.106.375.15.14.045.283.093.43.144.147.05.29.107.43.175.14.065.265.15.375.252.11.1.197.224.263.371.067.147.101.326.101.536 0 .228-.04.443-.119.644a1.47 1.47 0 0 1-.343.521 1.63 1.63 0 0 1-.55.35 2.055 2.055 0 0 1-.745.126c-.16 0-.32-.016-.476-.049a2.434 2.434 0 0 1-.854-.343 1.952 1.952 0 0 1-.336-.273l.277-.451a.276.276 0 0 1 .09-.08.221.221 0 0 1 .12-.036.33.33 0 0 1 .189.074c.067.046.148.099.241.157.093.058.202.112.326.161.126.047.276.07.451.07.268 0 .476-.063.623-.189.147-.128.22-.311.22-.55a.502.502 0 0 0-.1-.325.768.768 0 0 0-.263-.21 1.903 1.903 0 0 0-.375-.147 12.44 12.44 0 0 1-.427-.13 3.692 3.692 0 0 1-.427-.167 1.383 1.383 0 0 1-.374-.256 1.188 1.188 0 0 1-.266-.392 1.539 1.539 0 0 1-.098-.584 1.4 1.4 0 0 1 .108-.54c.075-.174.182-.33.322-.465a1.57 1.57 0 0 1 .518-.325c.205-.082.441-.123.707-.123.299 0 .574.047.826.14.252.093.467.224.644.392l-.234.445Zm1.701 3.21a.855.855 0 0 0 .319.251.966.966 0 0 0 .378.074c.13 0 .248-.025.353-.074a.68.68 0 0 0 .266-.224c.075-.1.132-.226.172-.378.04-.154.06-.335.06-.542a2.3 2.3 0 0 0-.053-.532 1.008 1.008 0 0 0-.144-.357.57.57 0 0 0-.23-.2.703.703 0 0 0-.305-.063.863.863 0 0 0-.459.116c-.126.074-.245.18-.357.318v1.61Zm-.045-2.17c.147-.167.313-.3.5-.403.187-.103.406-.154.658-.154a1.166 1.166 0 0 1 .956.48c.119.153.21.344.273.573.065.226.098.487.098.78 0 .269-.037.517-.109.746a1.803 1.803 0 0 1-.311.595c-.133.168-.296.3-.487.396a1.42 1.42 0 0 1-.637.14c-.2 0-.372-.03-.514-.091a1.284 1.284 0 0 1-.382-.26v1.47h-.864V66.91h.528c.112 0 .186.053.22.158l.07.332Zm3.93-2.1v5.2h-.865v-5.2h.864Zm1.652 1.61v3.59h-.868v-3.59h.868Zm.119-1.047a.493.493 0 0 1-.046.21.564.564 0 0 1-.123.171.58.58 0 0 1-.175.12.562.562 0 0 1-.43 0 .592.592 0 0 1-.29-.291.562.562 0 0 1 0-.427.541.541 0 0 1 .29-.29.525.525 0 0 1 .43 0 .551.551 0 0 1 .343.508Zm1.854 4.693c-.313 0-.553-.087-.721-.262-.166-.178-.249-.422-.249-.732v-2.005h-.367a.169.169 0 0 1-.12-.046c-.032-.03-.048-.076-.048-.136v-.343l.577-.095.182-.98a.193.193 0 0 1 .067-.108.198.198 0 0 1 .126-.039h.448v1.13h.959v.617h-.96v1.946c0 .112.028.2.081.262a.29.29 0 0 0 .228.095.426.426 0 0 0 .227-.06l.074-.038a.113.113 0 0 1 .063-.021c.026 0 .047.007.063.02.016.012.034.03.052.057l.26.42a1.323 1.323 0 0 1-.435.238 1.63 1.63 0 0 1-.507.08Z" fill="#DBDBDB"/><path opacity=".75" d="M2 72.75v1h36v-1H2Z" fill="#DBDBDB"/><path d="M17.955 78.22c0 .37-.061.711-.185 1.022-.124.31-.298.577-.522.801a2.334 2.334 0 0 1-.808.522 2.85 2.85 0 0 1-1.05.185h-1.93v-5.06h1.929c.385 0 .735.062 1.05.188a2.31 2.31 0 0 1 1.33 1.32c.124.31.185.65.185 1.022Zm-.966 0c0-.278-.037-.527-.112-.746a1.496 1.496 0 0 0-.318-.56 1.36 1.36 0 0 0-.504-.353 1.714 1.714 0 0 0-.665-.123h-.984v3.563h.984c.247 0 .469-.04.665-.122.198-.082.366-.199.504-.35.14-.154.246-.341.318-.56.075-.222.112-.472.112-.75Zm4.602-1.06v3.59h-.528c-.115 0-.187-.052-.217-.157l-.06-.287c-.147.149-.309.27-.486.364a1.356 1.356 0 0 1-.627.136c-.196 0-.37-.033-.521-.098a1.062 1.062 0 0 1-.378-.283 1.256 1.256 0 0 1-.235-.43 1.883 1.883 0 0 1-.077-.554V77.16h.865v2.282c0 .22.05.39.15.511.103.12.256.179.459.179.15 0 .29-.033.42-.098.13-.068.254-.16.37-.277V77.16h.865Zm2.65 2.057a4.55 4.55 0 0 0-.63.067c-.17.03-.307.07-.41.119a.54.54 0 0 0-.22.171.373.373 0 0 0-.067.214c0 .151.044.26.133.325a.592.592 0 0 0 .353.098c.178 0 .33-.031.459-.094.13-.066.258-.164.381-.294v-.606Zm-1.982-1.557a2.13 2.13 0 0 1 1.491-.567c.21 0 .398.035.564.105.166.067.306.163.42.287.114.12.2.267.259.437.06.17.09.357.09.56v2.268h-.391a.414.414 0 0 1-.19-.035c-.043-.026-.078-.076-.104-.15l-.077-.26a3.39 3.39 0 0 1-.266.218c-.086.06-.176.112-.27.154a1.618 1.618 0 0 1-1.071.07.944.944 0 0 1-.332-.186.827.827 0 0 1-.217-.304 1.08 1.08 0 0 1-.077-.424.828.828 0 0 1 .192-.528c.07-.082.16-.16.27-.231a1.75 1.75 0 0 1 .402-.19c.161-.053.348-.096.56-.129a5.37 5.37 0 0 1 .728-.063v-.21c0-.24-.05-.418-.154-.532-.102-.117-.25-.175-.444-.175a1.07 1.07 0 0 0-.592.161l-.192.109a.368.368 0 0 1-.19.049.256.256 0 0 1-.153-.046.419.419 0 0 1-.102-.112l-.154-.276Zm4.41-2.11v5.2h-.865v-5.2h.864Z" fill="#DBDBDB"/><path d="M.5 87.5a3 3 0 0 1 3-3h33a3 3 0 0 1 3 3v35a3 3 0 0 1-3 3h-33a3 3 0 0 1-3-3v-35Z" fill="url(#c)"/><path d="M14.156 87.86a.335.335 0 0 1-.091.108.199.199 0 0 1-.116.032.318.318 0 0 1-.16-.053 3.084 3.084 0 0 0-.204-.122 1.584 1.584 0 0 0-.28-.12 1.121 1.121 0 0 0-.374-.055c-.131 0-.245.016-.343.049a.716.716 0 0 0-.249.13.528.528 0 0 0-.147.202.647.647 0 0 0-.049.256c0 .119.033.218.098.297.068.08.156.147.266.203.11.056.235.106.375.15.14.045.283.093.43.144.147.05.29.107.43.175.14.065.265.15.375.252.11.1.197.224.263.371.067.147.101.326.101.536 0 .228-.04.443-.119.644a1.472 1.472 0 0 1-.343.521c-.15.147-.332.264-.55.35a2.055 2.055 0 0 1-.745.126c-.16 0-.32-.016-.476-.049a2.43 2.43 0 0 1-.854-.343 1.952 1.952 0 0 1-.336-.273l.277-.451a.275.275 0 0 1 .09-.08.221.221 0 0 1 .12-.036.33.33 0 0 1 .189.074c.067.046.148.099.241.157.093.058.202.112.326.161.126.047.276.07.451.07.268 0 .476-.063.623-.189.147-.128.22-.311.22-.55a.503.503 0 0 0-.1-.325.77.77 0 0 0-.263-.21 1.903 1.903 0 0 0-.375-.147c-.14-.04-.282-.083-.427-.13a3.692 3.692 0 0 1-.427-.167 1.382 1.382 0 0 1-.374-.256 1.186 1.186 0 0 1-.266-.392 1.537 1.537 0 0 1-.098-.584c0-.185.036-.364.108-.54.075-.174.182-.33.322-.465a1.57 1.57 0 0 1 .518-.325c.205-.082.441-.123.707-.123.299 0 .574.047.826.14.252.093.467.224.644.392l-.234.445Zm1.787.55V92h-.868v-3.59h.868Zm.12-1.047a.493.493 0 0 1-.046.21.562.562 0 0 1-.123.171.58.58 0 0 1-.175.12.562.562 0 0 1-.43 0 .594.594 0 0 1-.29-.291.562.562 0 0 1 0-.427.542.542 0 0 1 .29-.29.525.525 0 0 1 .43 0 .55.55 0 0 1 .343.508Zm1.465 1.487c.072-.072.148-.139.228-.2a1.4 1.4 0 0 1 .546-.258c.102-.026.214-.039.335-.039.197 0 .37.034.522.102a.99.99 0 0 1 .378.28c.103.119.18.262.231.43.054.166.08.349.08.55V92h-.864v-2.285c0-.22-.05-.389-.15-.508-.1-.121-.254-.182-.459-.182a.9.9 0 0 0-.42.102c-.13.067-.254.16-.371.276V92h-.864v-3.59h.528c.112 0 .185.052.22.157l.06.283Zm4.35 1.267c.107 0 .2-.014.28-.042a.55.55 0 0 0 .196-.122.47.47 0 0 0 .12-.186.654.654 0 0 0 .041-.238.554.554 0 0 0-.16-.42c-.106-.105-.265-.157-.477-.157-.212 0-.372.052-.48.157a.56.56 0 0 0-.157.42c0 .084.013.162.039.235a.567.567 0 0 0 .119.189c.053.05.12.092.2.122a.862.862 0 0 0 .28.042Zm.977 2.044a.24.24 0 0 0-.063-.171.4.4 0 0 0-.172-.102 1.188 1.188 0 0 0-.255-.056 13.54 13.54 0 0 0-.644-.042 3.928 3.928 0 0 1-.336-.028.835.835 0 0 0-.235.19.39.39 0 0 0-.042.426.407.407 0 0 0 .15.144c.07.04.16.07.27.09.11.024.244.036.403.036.16 0 .3-.013.416-.039a.914.914 0 0 0 .287-.101.417.417 0 0 0 .168-.154.367.367 0 0 0 .053-.193Zm.86-3.63v.323c0 .102-.061.165-.185.189l-.322.06c.05.123.074.258.074.405a1.065 1.065 0 0 1-.403.847 1.41 1.41 0 0 1-.448.235 1.83 1.83 0 0 1-.553.08 1.905 1.905 0 0 1-.395-.038c-.112.067-.168.143-.168.227a.17.17 0 0 0 .098.161.874.874 0 0 0 .266.07c.11.014.234.023.374.028.14.002.284.01.43.021.148.012.291.033.431.063.14.028.265.074.375.137.11.063.197.149.262.259a.77.77 0 0 1 .102.416c0 .159-.04.313-.12.462-.076.15-.19.282-.339.4-.147.116-.329.21-.546.28-.215.071-.46.108-.735.108-.27 0-.506-.027-.707-.08a1.623 1.623 0 0 1-.5-.21.89.89 0 0 1-.298-.302.71.71 0 0 1-.098-.357c0-.168.05-.308.15-.42a1.06 1.06 0 0 1 .42-.273.602.602 0 0 1-.227-.196.56.56 0 0 1-.084-.322c0-.054.01-.108.028-.164a.796.796 0 0 1 .088-.172.964.964 0 0 1 .354-.294 1.147 1.147 0 0 1-.431-.392 1.056 1.056 0 0 1-.154-.574c0-.177.035-.337.105-.48a1.08 1.08 0 0 1 .297-.367 1.36 1.36 0 0 1 .452-.234c.175-.054.365-.08.57-.08.154 0 .299.015.434.048.136.03.26.076.371.137h1.033Zm1.319-1.732V92h-.865v-5.2h.865Zm3.07 2.993a.992.992 0 0 0-.05-.315.73.73 0 0 0-.14-.263.64.64 0 0 0-.24-.175.793.793 0 0 0-.337-.066c-.25 0-.447.07-.591.213-.143.142-.234.344-.273.606h1.63Zm-1.649.521c.014.184.047.344.098.48a1 1 0 0 0 .203.332.826.826 0 0 0 .298.196c.116.042.245.063.385.063s.26-.016.36-.049c.103-.033.192-.069.266-.108.077-.04.144-.076.2-.109a.344.344 0 0 1 .168-.049c.072 0 .126.027.16.08l.25.316a1.48 1.48 0 0 1-.323.283 1.916 1.916 0 0 1-.77.277 2.79 2.79 0 0 1-.388.028c-.25 0-.482-.041-.697-.123a1.59 1.59 0 0 1-.56-.367 1.745 1.745 0 0 1-.374-.602 2.344 2.344 0 0 1-.137-.833c0-.245.04-.475.12-.69a1.64 1.64 0 0 1 .339-.563c.15-.161.33-.289.542-.382a1.8 1.8 0 0 1 .725-.14c.226 0 .435.036.626.109.192.072.356.178.494.318.137.138.245.308.322.511.08.2.119.43.119.69 0 .13-.014.219-.042.266-.028.044-.082.066-.161.066h-2.223Z" fill="#DBDBDB"/><path opacity=".75" d="M2 94.25v1h36v-1H2Z" fill="#DBDBDB"/><path d="M8.294 99.31h.22a.599.599 0 0 0 .221-.035.388.388 0 0 0 .15-.119l1.397-1.767a.494.494 0 0 1 .182-.154.582.582 0 0 1 .245-.046h.812l-1.704 2.104a.947.947 0 0 1-.312.273.673.673 0 0 1 .207.119.864.864 0 0 1 .178.196l1.757 2.369h-.83a.536.536 0 0 1-.252-.046.406.406 0 0 1-.136-.14l-1.431-1.869a.378.378 0 0 0-.154-.133.662.662 0 0 0-.252-.038h-.298v2.226h-.941v-5.06h.941v2.12Zm5.67.731a.988.988 0 0 0-.05-.314.729.729 0 0 0-.14-.263.64.64 0 0 0-.24-.175.793.793 0 0 0-.337-.066c-.25 0-.447.07-.591.213-.143.142-.234.344-.273.605h1.63Zm-1.649.522c.014.184.047.344.098.479.051.133.12.244.203.333a.827.827 0 0 0 .298.196c.116.042.245.063.385.063s.26-.016.36-.049c.103-.033.191-.069.266-.109.077-.039.144-.075.2-.108a.34.34 0 0 1 .168-.049c.072 0 .126.027.16.08l.25.315a1.483 1.483 0 0 1-.323.284 1.913 1.913 0 0 1-.77.277 2.9 2.9 0 0 1-.388.028c-.25 0-.482-.041-.697-.123a1.592 1.592 0 0 1-.56-.368 1.742 1.742 0 0 1-.374-.602 2.343 2.343 0 0 1-.137-.833c0-.245.04-.474.12-.689a1.612 1.612 0 0 1 .881-.945 1.8 1.8 0 0 1 .725-.14c.226 0 .435.036.626.109.191.072.356.178.494.318.137.138.245.308.322.511.079.2.119.43.119.689 0 .131-.014.22-.042.266-.028.045-.082.067-.161.067h-2.223Zm6.129-1.904-1.957 4.578a.317.317 0 0 1-.101.137c-.04.032-.102.049-.186.049h-.644l.672-1.443-1.452-3.32h.76c.067 0 .12.015.157.048.04.033.069.07.087.112l.763 1.862a4.647 4.647 0 0 1 .116.381c.02-.065.042-.129.063-.192.02-.065.044-.13.07-.193l.72-1.858a.255.255 0 0 1 .238-.161h.694Zm4.575-.55a.334.334 0 0 1-.09.11.198.198 0 0 1-.116.03.318.318 0 0 1-.161-.052 3.058 3.058 0 0 0-.203-.122 1.577 1.577 0 0 0-.28-.12 1.12 1.12 0 0 0-.375-.055c-.13 0-.245.016-.343.049a.717.717 0 0 0-.248.13.53.53 0 0 0-.147.202.65.65 0 0 0-.05.256c0 .119.033.218.099.297.067.08.156.147.266.203.11.056.234.106.374.15.14.045.284.093.43.144.148.05.291.107.431.175.14.065.265.15.375.252.11.1.197.224.262.371.068.147.102.325.102.535 0 .229-.04.444-.12.644a1.464 1.464 0 0 1-.342.522c-.15.147-.333.264-.55.35a2.055 2.055 0 0 1-.745.126c-.161 0-.32-.016-.476-.049a2.39 2.39 0 0 1-.854-.343 1.98 1.98 0 0 1-.336-.273l.276-.452a.284.284 0 0 1 .091-.08.224.224 0 0 1 .12-.035c.058 0 .12.024.188.073.068.047.148.1.242.158.093.058.202.112.325.161.126.047.277.07.452.07.268 0 .476-.063.623-.189.147-.128.22-.312.22-.55a.501.501 0 0 0-.101-.325.768.768 0 0 0-.263-.21 1.938 1.938 0 0 0-.374-.147c-.14-.04-.283-.083-.427-.13a3.699 3.699 0 0 1-.427-.167 1.383 1.383 0 0 1-.375-.256 1.19 1.19 0 0 1-.266-.392 1.539 1.539 0 0 1-.098-.584 1.4 1.4 0 0 1 .109-.54c.074-.174.182-.33.322-.465a1.57 1.57 0 0 1 .518-.325 1.89 1.89 0 0 1 .707-.123c.298 0 .574.047.826.14.252.093.466.224.644.392l-.235.445Zm1.702 3.21a.855.855 0 0 0 .318.252.965.965 0 0 0 .732 0 .683.683 0 0 0 .266-.224 1.1 1.1 0 0 0 .171-.378c.04-.154.06-.335.06-.543 0-.21-.018-.387-.053-.531a1.01 1.01 0 0 0-.143-.357.57.57 0 0 0-.231-.2.703.703 0 0 0-.305-.063.863.863 0 0 0-.458.116c-.126.074-.245.18-.357.318v1.61Zm-.046-2.17c.147-.166.314-.3.5-.402.187-.103.407-.154.659-.154a1.166 1.166 0 0 1 .955.48c.12.153.21.344.273.573.065.226.098.486.098.78 0 .269-.036.517-.108.746a1.804 1.804 0 0 1-.312.595 1.42 1.42 0 0 1-.486.395 1.411 1.411 0 0 1-.637.141c-.201 0-.373-.031-.515-.092a1.277 1.277 0 0 1-.381-.259v1.471h-.865v-4.764h.529c.112 0 .185.053.22.158l.07.332Zm3.93-2.1v5.201h-.865v-5.2h.865Zm1.652 1.61v3.591h-.868v-3.59h.868Zm.119-1.046a.491.491 0 0 1-.046.21.56.56 0 0 1-.122.171.58.58 0 0 1-.175.12.562.562 0 0 1-.43 0 .594.594 0 0 1-.291-.291.562.562 0 0 1 0-.427.542.542 0 0 1 .29-.29.525.525 0 0 1 .43 0 .548.548 0 0 1 .343.508Zm1.854 4.693c-.312 0-.553-.088-.72-.263-.166-.177-.25-.421-.25-.731v-2.005h-.367a.169.169 0 0 1-.119-.046c-.032-.03-.049-.076-.049-.136v-.343l.578-.095.182-.98a.192.192 0 0 1 .066-.108.197.197 0 0 1 .126-.039h.448v1.13h.96v.617h-.96v1.945c0 .112.027.2.08.263a.289.289 0 0 0 .228.094.42.42 0 0 0 .228-.059l.073-.039a.113.113 0 0 1 .063-.021c.026 0 .047.007.063.021a.273.273 0 0 1 .053.056l.259.42a1.29 1.29 0 0 1-.434.238 1.607 1.607 0 0 1-.508.081Z" fill="#DBDBDB"/><path opacity=".75" d="M2 104.5v1h36v-1H2Z" fill="#DBDBDB"/><path d="M8.683 111.306a.19.19 0 0 1 .137.06l.37.402c-.205.255-.458.45-.759.585-.299.135-.658.203-1.078.203-.376 0-.714-.064-1.015-.193a2.227 2.227 0 0 1-.766-.535 2.372 2.372 0 0 1-.49-.819 3.103 3.103 0 0 1-.168-1.04c0-.38.06-.728.182-1.043a2.4 2.4 0 0 1 .51-.819c.222-.228.486-.406.792-.532a2.603 2.603 0 0 1 1.015-.192c.368 0 .695.061.98.182.287.121.53.28.731.476l-.315.437a.277.277 0 0 1-.073.074.195.195 0 0 1-.12.031.238.238 0 0 1-.108-.028 2.777 2.777 0 0 1-.122-.073 3.362 3.362 0 0 0-.154-.098 1.498 1.498 0 0 0-.472-.168 1.72 1.72 0 0 0-.35-.032c-.227 0-.435.041-.624.123a1.322 1.322 0 0 0-.483.35c-.135.152-.24.338-.315.56-.075.219-.112.47-.112.752 0 .285.04.538.12.76.08.222.19.408.328.56a1.417 1.417 0 0 0 1.089.469c.128 0 .243-.007.346-.021a1.394 1.394 0 0 0 .536-.182c.079-.049.157-.109.234-.179a.297.297 0 0 1 .074-.049.166.166 0 0 1 .08-.021Zm1.776-2.012a1.86 1.86 0 0 1 .462-.319c.168-.081.365-.122.591-.122.196 0 .37.034.521.101a1 1 0 0 1 .379.28c.102.119.18.263.23.431.054.166.081.349.081.549v2.286h-.865v-2.286c0-.219-.05-.388-.15-.507-.1-.121-.253-.182-.459-.182a.91.91 0 0 0-.42.101c-.13.068-.254.16-.37.277v2.597h-.865v-5.201h.865v1.995Zm4.878 1.673c-.25.012-.46.034-.63.066-.17.031-.307.07-.41.119a.541.541 0 0 0-.22.172.37.37 0 0 0-.066.213c0 .152.044.261.133.326a.594.594 0 0 0 .353.098c.178 0 .33-.032.459-.095.13-.065.258-.163.381-.294v-.605Zm-1.98-1.558a2.13 2.13 0 0 1 1.49-.567c.21 0 .398.035.564.105a1.173 1.173 0 0 1 .679.725c.06.17.09.357.09.56v2.268h-.391a.417.417 0 0 1-.19-.035c-.044-.026-.079-.076-.104-.151l-.077-.259c-.091.082-.18.154-.266.217a1.612 1.612 0 0 1-.27.154 1.638 1.638 0 0 1-1.071.07.938.938 0 0 1-.332-.185.824.824 0 0 1-.217-.305 1.077 1.077 0 0 1-.077-.423.833.833 0 0 1 .192-.529c.07-.081.16-.158.27-.231.11-.072.243-.135.402-.189.161-.053.348-.096.56-.129a5.36 5.36 0 0 1 .728-.063v-.21c0-.24-.051-.418-.154-.532-.102-.117-.25-.175-.444-.175a1.062 1.062 0 0 0-.592.161l-.192.108a.365.365 0 0 1-.19.049.258.258 0 0 1-.153-.045.423.423 0 0 1-.102-.112l-.154-.277Zm4.341-.059c.073-.072.148-.139.228-.2a1.391 1.391 0 0 1 .546-.259 1.41 1.41 0 0 1 .336-.038c.196 0 .37.034.521.101a.995.995 0 0 1 .378.28c.103.119.18.263.231.431.054.166.08.349.08.549v2.286h-.864v-2.286c0-.219-.05-.388-.15-.507-.1-.121-.253-.182-.459-.182a.91.91 0 0 0-.42.101c-.13.068-.254.16-.37.277v2.597h-.865v-3.591h.528c.112 0 .186.052.22.157l.06.284Zm7.467-.991a.333.333 0 0 1-.091.109.198.198 0 0 1-.116.031.317.317 0 0 1-.16-.052 3.57 3.57 0 0 0-.204-.123 1.603 1.603 0 0 0-.28-.119 1.129 1.129 0 0 0-.374-.056c-.131 0-.245.017-.343.049a.73.73 0 0 0-.249.13.532.532 0 0 0-.147.203.646.646 0 0 0-.049.255c0 .119.033.219.098.298a.86.86 0 0 0 .266.203c.11.056.235.106.375.15.14.045.283.093.43.144.147.049.29.107.43.175.14.065.265.149.375.252.11.1.197.224.263.371.067.147.101.325.101.535 0 .229-.04.444-.119.644a1.464 1.464 0 0 1-.343.522c-.15.147-.332.264-.55.35a2.055 2.055 0 0 1-.745.126c-.16 0-.32-.016-.476-.049a2.39 2.39 0 0 1-.854-.343 1.98 1.98 0 0 1-.336-.273l.277-.452a.283.283 0 0 1 .09-.08.224.224 0 0 1 .12-.035.33.33 0 0 1 .189.073c.067.047.148.1.241.158.093.058.202.112.326.161.126.047.276.07.451.07.268 0 .476-.063.623-.189.147-.128.22-.312.22-.55a.501.501 0 0 0-.1-.325.768.768 0 0 0-.263-.21 1.941 1.941 0 0 0-.375-.147c-.14-.04-.282-.083-.427-.13a3.456 3.456 0 0 1-.427-.168 1.375 1.375 0 0 1-.374-.255 1.191 1.191 0 0 1-.266-.392 1.543 1.543 0 0 1-.098-.585 1.4 1.4 0 0 1 .108-.539c.075-.175.182-.33.322-.465s.313-.244.518-.326c.205-.081.441-.122.707-.122.299 0 .574.047.826.14.252.093.467.224.644.392l-.234.444Zm1.701 3.21a.855.855 0 0 0 .319.252.966.966 0 0 0 .731 0 .682.682 0 0 0 .266-.224c.075-.1.132-.226.172-.378.04-.154.06-.335.06-.543a2.3 2.3 0 0 0-.053-.532 1.008 1.008 0 0 0-.144-.357.57.57 0 0 0-.23-.199.703.703 0 0 0-.305-.063.863.863 0 0 0-.459.115 1.364 1.364 0 0 0-.357.319v1.61Zm-.045-2.17c.147-.166.313-.3.5-.403.187-.102.406-.154.658-.154a1.163 1.163 0 0 1 .956.48c.119.154.21.345.273.574.065.226.098.486.098.78 0 .269-.037.517-.109.746a1.8 1.8 0 0 1-.311.595c-.133.168-.296.3-.487.395a1.41 1.41 0 0 1-.637.141c-.2 0-.372-.031-.514-.092a1.278 1.278 0 0 1-.382-.259v1.471h-.864v-4.764h.528c.112 0 .186.052.22.157l.07.333Zm3.93-2.1v5.201h-.865v-5.201h.864Zm1.652 1.61v3.591h-.868v-3.591h.868Zm.119-1.047a.49.49 0 0 1-.046.21.558.558 0 0 1-.123.172.575.575 0 0 1-.175.119.562.562 0 0 1-.43 0 .587.587 0 0 1-.29-.291.563.563 0 0 1 0-.427.54.54 0 0 1 .29-.29.522.522 0 0 1 .43 0 .56.56 0 0 1 .297.29c.031.068.047.14.047.217Zm1.854 4.694c-.313 0-.553-.088-.721-.263-.166-.177-.249-.421-.249-.731v-2.006h-.367a.17.17 0 0 1-.12-.045c-.032-.03-.048-.076-.048-.137v-.343l.577-.094.182-.98a.194.194 0 0 1 .067-.109.202.202 0 0 1 .126-.038h.448v1.13h.959v.616h-.96v1.946c0 .112.028.2.081.263a.289.289 0 0 0 .228.094.419.419 0 0 0 .227-.059l.074-.039a.113.113 0 0 1 .063-.021c.026 0 .047.007.063.021a.268.268 0 0 1 .052.056l.26.42a1.305 1.305 0 0 1-.435.238 1.606 1.606 0 0 1-.507.081Z" fill="#FF9000"/><path opacity=".75" d="M2 114.75v1h36v-1H2Z" fill="#DBDBDB"/><path d="M17.955 120.219c0 .371-.061.712-.185 1.022a2.342 2.342 0 0 1-.522.802 2.322 2.322 0 0 1-.808.521 2.844 2.844 0 0 1-1.05.186h-1.93v-5.061h1.929c.385 0 .735.063 1.05.189.315.124.584.297.808.521.224.222.398.488.522.798.124.311.185.651.185 1.022Zm-.966 0c0-.277-.037-.526-.112-.745a1.496 1.496 0 0 0-.318-.56 1.365 1.365 0 0 0-.504-.354 1.727 1.727 0 0 0-.665-.122h-.984v3.563h.984c.247 0 .469-.041.665-.123.198-.081.366-.198.504-.35.14-.154.246-.34.318-.56.075-.221.112-.471.112-.749Zm4.602-1.06v3.591h-.528c-.115 0-.187-.053-.217-.158l-.06-.287a1.94 1.94 0 0 1-.486.364 1.356 1.356 0 0 1-.627.137c-.196 0-.37-.033-.521-.098a1.059 1.059 0 0 1-.378-.284 1.248 1.248 0 0 1-.235-.43 1.882 1.882 0 0 1-.077-.553v-2.282h.865v2.282c0 .219.05.39.15.511.103.119.256.178.459.178.15 0 .29-.032.42-.098a1.48 1.48 0 0 0 .37-.276v-2.597h.865Zm2.65 2.058c-.25.012-.46.034-.63.066-.17.031-.307.07-.41.119a.543.543 0 0 0-.22.172.37.37 0 0 0-.067.213c0 .152.044.261.133.326a.595.595 0 0 0 .353.098c.178 0 .33-.032.459-.095.13-.065.258-.163.381-.294v-.605Zm-1.982-1.558a2.13 2.13 0 0 1 1.491-.567c.21 0 .398.035.564.105a1.173 1.173 0 0 1 .679.725c.06.17.09.357.09.56v2.268h-.391a.418.418 0 0 1-.19-.035c-.043-.026-.078-.076-.104-.151l-.077-.259c-.091.082-.18.154-.266.217a1.608 1.608 0 0 1-.27.154 1.637 1.637 0 0 1-1.071.07.939.939 0 0 1-.332-.185.825.825 0 0 1-.217-.305 1.077 1.077 0 0 1-.077-.423.833.833 0 0 1 .192-.529c.07-.081.16-.158.27-.231.11-.072.244-.135.402-.189.161-.053.348-.096.56-.129a5.37 5.37 0 0 1 .728-.063v-.21c0-.24-.05-.418-.154-.532-.102-.117-.25-.175-.444-.175a1.063 1.063 0 0 0-.592.161l-.192.108a.365.365 0 0 1-.19.049.258.258 0 0 1-.153-.045.423.423 0 0 1-.102-.112l-.154-.277Zm4.41-2.11v5.201h-.865v-5.201h.864Z" fill="#DBDBDB"/><path d="M.5 129.5a3 3 0 0 1 3-3h33a3 3 0 0 1 3 3v35a3 3 0 0 1-3 3h-33a3 3 0 0 1-3-3v-35Z" fill="url(#d)"/><path d="M14.156 129.859a.334.334 0 0 1-.091.109.199.199 0 0 1-.116.031.317.317 0 0 1-.16-.052 3.57 3.57 0 0 0-.204-.123 1.606 1.606 0 0 0-.28-.119 1.129 1.129 0 0 0-.374-.056c-.131 0-.245.017-.343.049a.729.729 0 0 0-.249.13.53.53 0 0 0-.147.203.646.646 0 0 0-.049.255c0 .119.033.219.098.298a.858.858 0 0 0 .266.203c.11.056.235.106.375.15.14.045.283.093.43.144.147.049.29.107.43.175.14.065.265.149.375.252.11.1.197.224.263.371.067.147.101.325.101.535 0 .229-.04.444-.119.644a1.465 1.465 0 0 1-.343.522c-.15.147-.332.264-.55.35a2.055 2.055 0 0 1-.745.126c-.16 0-.32-.016-.476-.049a2.386 2.386 0 0 1-.854-.343 1.98 1.98 0 0 1-.336-.273l.277-.452a.282.282 0 0 1 .09-.08.224.224 0 0 1 .12-.035c.058 0 .12.024.189.073.067.047.148.1.241.158.093.058.202.112.326.161.126.047.276.07.451.07.268 0 .476-.063.623-.189.147-.128.22-.312.22-.55a.502.502 0 0 0-.1-.325.77.77 0 0 0-.263-.21 1.941 1.941 0 0 0-.375-.147c-.14-.04-.282-.083-.427-.13a3.456 3.456 0 0 1-.427-.168 1.373 1.373 0 0 1-.374-.255 1.19 1.19 0 0 1-.266-.392 1.54 1.54 0 0 1-.098-.585c0-.184.036-.364.108-.539.075-.175.182-.33.322-.465a1.58 1.58 0 0 1 .518-.326c.205-.081.441-.122.707-.122.299 0 .574.047.826.14.252.093.467.224.644.392l-.234.444Zm1.787.55V134h-.868v-3.591h.868Zm.12-1.047a.49.49 0 0 1-.046.21.556.556 0 0 1-.123.172.574.574 0 0 1-.175.119.562.562 0 0 1-.43 0 .588.588 0 0 1-.29-.291.563.563 0 0 1 0-.427.54.54 0 0 1 .29-.29.522.522 0 0 1 .43 0 .558.558 0 0 1 .343.507Zm1.465 1.488c.072-.072.148-.139.228-.2a1.398 1.398 0 0 1 .546-.259c.102-.025.214-.038.335-.038.197 0 .37.034.522.101a1 1 0 0 1 .378.28c.103.119.18.263.231.431.054.166.08.349.08.549V134h-.864v-2.286c0-.219-.05-.388-.15-.507-.1-.121-.254-.182-.459-.182-.15 0-.29.034-.42.101a1.51 1.51 0 0 0-.371.277V134h-.864v-3.591h.528c.112 0 .185.052.22.157l.06.284Zm4.35 1.267c.107 0 .2-.014.28-.042a.538.538 0 0 0 .196-.123.469.469 0 0 0 .12-.185.654.654 0 0 0 .041-.238.555.555 0 0 0-.16-.42c-.106-.105-.265-.158-.477-.158-.212 0-.372.053-.48.158a.561.561 0 0 0-.157.42c0 .084.013.162.039.234a.553.553 0 0 0 .119.189c.053.052.12.093.2.123a.862.862 0 0 0 .28.042Zm.977 2.044a.242.242 0 0 0-.063-.172.4.4 0 0 0-.172-.101 1.188 1.188 0 0 0-.255-.056 3.922 3.922 0 0 0-.308-.025c-.108-.007-.22-.012-.336-.017a4.054 4.054 0 0 1-.336-.028.846.846 0 0 0-.235.189.389.389 0 0 0-.042.427.41.41 0 0 0 .15.144c.07.039.16.07.27.091.11.023.244.035.403.035.16 0 .3-.013.416-.039a.915.915 0 0 0 .287-.101.422.422 0 0 0 .168-.154.37.37 0 0 0 .053-.193Zm.86-3.63v.322c0 .103-.061.166-.185.189l-.322.06c.05.124.074.259.074.406a1.067 1.067 0 0 1-.403.847c-.126.1-.275.178-.448.234a1.82 1.82 0 0 1-.756.07 2.39 2.39 0 0 1-.192-.028c-.112.068-.168.144-.168.228a.17.17 0 0 0 .098.161.865.865 0 0 0 .266.07c.11.014.234.023.374.028.14.002.284.009.43.021.148.012.291.033.431.063.14.028.265.073.375.136.11.063.197.15.262.259a.774.774 0 0 1 .102.417c0 .159-.04.313-.12.462a1.22 1.22 0 0 1-.339.399c-.147.117-.329.21-.546.28a2.31 2.31 0 0 1-.735.109c-.27 0-.506-.027-.707-.081a1.608 1.608 0 0 1-.5-.21.89.89 0 0 1-.298-.301.708.708 0 0 1-.098-.357c0-.168.05-.308.15-.42.103-.114.243-.205.42-.273a.6.6 0 0 1-.227-.196.56.56 0 0 1-.084-.322.54.54 0 0 1 .028-.165.8.8 0 0 1 .088-.171.985.985 0 0 1 .354-.294 1.15 1.15 0 0 1-.431-.392 1.056 1.056 0 0 1-.154-.574c0-.177.035-.337.105-.48a1.08 1.08 0 0 1 .297-.367c.128-.103.279-.181.452-.235a1.96 1.96 0 0 1 .57-.08c.154 0 .299.016.434.049.136.03.26.076.371.136h1.033Zm1.319-1.732V134h-.865v-5.201h.865Zm3.07 2.992a.992.992 0 0 0-.05-.315.733.733 0 0 0-.14-.262.636.636 0 0 0-.24-.175.797.797 0 0 0-.337-.067c-.25 0-.447.072-.591.214-.143.142-.234.344-.273.605h1.63Zm-1.649.522c.014.184.047.344.098.479.052.133.12.244.203.333a.826.826 0 0 0 .298.196c.116.042.245.063.385.063s.26-.016.36-.049c.103-.033.192-.069.266-.109.077-.039.144-.075.2-.108a.34.34 0 0 1 .168-.049c.072 0 .126.027.16.08l.25.315a1.483 1.483 0 0 1-.323.284 1.916 1.916 0 0 1-.77.277 2.9 2.9 0 0 1-.388.028c-.25 0-.482-.041-.697-.123a1.59 1.59 0 0 1-.56-.368 1.742 1.742 0 0 1-.374-.602 2.343 2.343 0 0 1-.137-.833c0-.245.04-.474.12-.689a1.66 1.66 0 0 1 .339-.564c.15-.161.33-.288.542-.381.215-.093.456-.14.725-.14.226 0 .435.036.626.108.192.073.356.179.494.319.137.138.245.308.322.511.08.201.119.43.119.689 0 .131-.014.22-.042.266-.028.045-.082.067-.161.067h-2.223Z" fill="#DBDBDB"/><path opacity=".75" d="M2 136.25v1h36v-1H2Z" fill="#DBDBDB"/><path d="M8.294 141.31h.22a.605.605 0 0 0 .221-.035.388.388 0 0 0 .15-.119l1.397-1.768a.501.501 0 0 1 .182-.154.587.587 0 0 1 .245-.045h.812l-1.704 2.103a.931.931 0 0 1-.312.273.68.68 0 0 1 .207.119.88.88 0 0 1 .178.196l1.757 2.37h-.83a.536.536 0 0 1-.252-.046.406.406 0 0 1-.136-.14l-1.431-1.869a.378.378 0 0 0-.154-.133.662.662 0 0 0-.252-.038h-.298v2.226h-.941v-5.061h.941v2.121Zm5.67.731a.989.989 0 0 0-.05-.315.732.732 0 0 0-.14-.262.636.636 0 0 0-.24-.175.797.797 0 0 0-.337-.067c-.25 0-.447.072-.591.214-.143.142-.234.344-.273.605h1.63Zm-1.649.522c.014.184.047.344.098.479.051.133.12.244.203.333a.827.827 0 0 0 .298.196c.116.042.245.063.385.063s.26-.016.36-.049c.103-.033.191-.069.266-.109.077-.039.144-.075.2-.108a.34.34 0 0 1 .168-.049c.072 0 .126.027.16.08l.25.315a1.483 1.483 0 0 1-.323.284 1.913 1.913 0 0 1-.77.277 2.9 2.9 0 0 1-.388.028c-.25 0-.482-.041-.697-.123a1.592 1.592 0 0 1-.56-.368 1.742 1.742 0 0 1-.374-.602 2.343 2.343 0 0 1-.137-.833c0-.245.04-.474.12-.689a1.66 1.66 0 0 1 .339-.564 1.61 1.61 0 0 1 .542-.381c.215-.093.456-.14.725-.14.226 0 .435.036.626.108a1.371 1.371 0 0 1 .816.83c.079.201.119.43.119.689 0 .131-.014.22-.042.266-.028.045-.082.067-.161.067h-2.223Zm6.129-1.904-1.957 4.578a.317.317 0 0 1-.101.137c-.04.032-.102.049-.186.049h-.644l.672-1.443-1.452-3.321h.76a.23.23 0 0 1 .157.049c.04.033.069.07.087.112l.763 1.862a4.647 4.647 0 0 1 .116.381c.02-.065.042-.129.063-.192.02-.065.044-.13.07-.193l.72-1.858a.262.262 0 0 1 .092-.116.257.257 0 0 1 .147-.045h.693Zm4.575-.55a.333.333 0 0 1-.09.109.198.198 0 0 1-.116.031.317.317 0 0 1-.161-.052 3.534 3.534 0 0 0-.203-.123 1.6 1.6 0 0 0-.28-.119 1.129 1.129 0 0 0-.375-.056c-.13 0-.245.017-.343.049a.73.73 0 0 0-.248.13.532.532 0 0 0-.147.203.648.648 0 0 0-.05.255.45.45 0 0 0 .099.298.86.86 0 0 0 .266.203c.11.056.234.106.374.15.14.045.284.093.43.144.148.049.291.107.431.175.14.065.265.149.375.252.11.1.197.224.262.371.068.147.102.325.102.535 0 .229-.04.444-.12.644a1.464 1.464 0 0 1-.342.522c-.15.147-.333.264-.55.35a2.055 2.055 0 0 1-.745.126c-.161 0-.32-.016-.476-.049a2.39 2.39 0 0 1-.854-.343 1.98 1.98 0 0 1-.336-.273l.276-.452a.284.284 0 0 1 .091-.08.224.224 0 0 1 .12-.035c.058 0 .12.024.188.073.068.047.148.1.242.158.093.058.202.112.325.161.126.047.277.07.452.07.268 0 .476-.063.623-.189.147-.128.22-.312.22-.55a.501.501 0 0 0-.101-.325.768.768 0 0 0-.263-.21 1.938 1.938 0 0 0-.374-.147c-.14-.04-.283-.083-.427-.13a3.462 3.462 0 0 1-.427-.168 1.375 1.375 0 0 1-.375-.255 1.192 1.192 0 0 1-.266-.392 1.543 1.543 0 0 1-.098-.585 1.4 1.4 0 0 1 .109-.539c.074-.175.182-.33.322-.465s.312-.244.518-.326c.205-.081.44-.122.707-.122.298 0 .574.047.826.14.252.093.466.224.644.392l-.235.444Zm1.702 3.21a.855.855 0 0 0 .318.252.965.965 0 0 0 .732 0 .683.683 0 0 0 .266-.224 1.1 1.1 0 0 0 .171-.378c.04-.154.06-.335.06-.543a2.3 2.3 0 0 0-.053-.532 1.01 1.01 0 0 0-.143-.357.57.57 0 0 0-.231-.199.703.703 0 0 0-.305-.063.863.863 0 0 0-.458.115 1.364 1.364 0 0 0-.357.319v1.61Zm-.046-2.17c.147-.166.314-.3.5-.403.187-.102.407-.154.659-.154a1.163 1.163 0 0 1 .955.48c.12.154.21.345.273.574.065.226.098.486.098.78 0 .269-.036.517-.108.746a1.804 1.804 0 0 1-.312.595 1.42 1.42 0 0 1-.486.395 1.411 1.411 0 0 1-.637.141c-.201 0-.373-.031-.515-.092a1.277 1.277 0 0 1-.381-.259v1.471h-.865v-4.764h.529c.112 0 .185.052.22.157l.07.333Zm3.93-2.1v5.201h-.865v-5.201h.865Zm1.652 1.61v3.591h-.868v-3.591h.868Zm.119-1.047a.49.49 0 0 1-.046.21.555.555 0 0 1-.122.172.574.574 0 0 1-.175.119.562.562 0 0 1-.43 0 .588.588 0 0 1-.291-.291.563.563 0 0 1 0-.427.54.54 0 0 1 .29-.29.522.522 0 0 1 .43 0 .556.556 0 0 1 .343.507Zm1.854 4.694c-.312 0-.553-.088-.72-.263-.166-.177-.25-.421-.25-.731v-2.006h-.367a.17.17 0 0 1-.119-.045c-.032-.03-.049-.076-.049-.137v-.343l.578-.094.182-.98a.193.193 0 0 1 .066-.109.201.201 0 0 1 .126-.038h.448v1.13h.96v.616h-.96v1.946c0 .112.027.2.08.263a.289.289 0 0 0 .228.094.42.42 0 0 0 .228-.059l.073-.039a.113.113 0 0 1 .063-.021c.026 0 .047.007.063.021a.273.273 0 0 1 .053.056l.259.42a1.29 1.29 0 0 1-.434.238 1.607 1.607 0 0 1-.508.081Z" fill="#DBDBDB"/><path opacity=".75" d="M2 146.5v1h36v-1H2Z" fill="#DBDBDB"/><path d="M8.683 153.306a.19.19 0 0 1 .137.06l.37.402c-.205.255-.458.45-.759.585-.299.135-.658.203-1.078.203-.376 0-.714-.064-1.015-.193a2.227 2.227 0 0 1-.766-.535 2.372 2.372 0 0 1-.49-.819 3.103 3.103 0 0 1-.168-1.04c0-.38.06-.728.182-1.043a2.4 2.4 0 0 1 .51-.819c.222-.228.486-.406.792-.532a2.603 2.603 0 0 1 1.015-.192c.368 0 .695.061.98.182.287.121.53.28.731.476l-.315.437a.277.277 0 0 1-.073.074.195.195 0 0 1-.12.031.238.238 0 0 1-.108-.028 2.777 2.777 0 0 1-.122-.073 3.362 3.362 0 0 0-.154-.098 1.498 1.498 0 0 0-.472-.168 1.72 1.72 0 0 0-.35-.032c-.227 0-.435.041-.624.123a1.322 1.322 0 0 0-.483.35c-.135.152-.24.338-.315.56-.075.219-.112.47-.112.752 0 .285.04.538.12.76.08.222.19.408.328.56a1.417 1.417 0 0 0 1.089.469c.128 0 .243-.007.346-.021a1.394 1.394 0 0 0 .536-.182c.079-.049.157-.109.234-.179a.297.297 0 0 1 .074-.049.166.166 0 0 1 .08-.021Zm1.776-2.012a1.86 1.86 0 0 1 .462-.319c.168-.081.365-.122.591-.122.196 0 .37.034.521.101a1 1 0 0 1 .379.28c.102.119.18.263.23.431.054.166.081.349.081.549v2.286h-.865v-2.286c0-.219-.05-.388-.15-.507-.1-.121-.253-.182-.459-.182a.91.91 0 0 0-.42.101c-.13.068-.254.16-.37.277v2.597h-.865v-5.201h.865v1.995Zm4.878 1.673c-.25.012-.46.034-.63.066-.17.031-.307.07-.41.119a.541.541 0 0 0-.22.172.37.37 0 0 0-.066.213c0 .152.044.261.133.326a.594.594 0 0 0 .353.098c.178 0 .33-.032.459-.095.13-.065.258-.163.381-.294v-.605Zm-1.98-1.558a2.13 2.13 0 0 1 1.49-.567c.21 0 .398.035.564.105a1.173 1.173 0 0 1 .679.725c.06.17.09.357.09.56v2.268h-.391a.417.417 0 0 1-.19-.035c-.044-.026-.079-.076-.104-.151l-.077-.259c-.091.082-.18.154-.266.217a1.612 1.612 0 0 1-.27.154 1.638 1.638 0 0 1-1.071.07.938.938 0 0 1-.332-.185.824.824 0 0 1-.217-.305 1.077 1.077 0 0 1-.077-.423.833.833 0 0 1 .192-.529c.07-.081.16-.158.27-.231.11-.072.243-.135.402-.189.161-.053.348-.096.56-.129a5.36 5.36 0 0 1 .728-.063v-.21c0-.24-.051-.418-.154-.532-.102-.117-.25-.175-.444-.175a1.062 1.062 0 0 0-.592.161l-.192.108a.365.365 0 0 1-.19.049.258.258 0 0 1-.153-.045.423.423 0 0 1-.102-.112l-.154-.277Zm4.341-.059c.073-.072.148-.139.228-.2a1.391 1.391 0 0 1 .546-.259 1.41 1.41 0 0 1 .336-.038c.196 0 .37.034.521.101a.995.995 0 0 1 .378.28c.103.119.18.263.231.431.054.166.08.349.08.549v2.286h-.864v-2.286c0-.219-.05-.388-.15-.507-.1-.121-.253-.182-.459-.182a.91.91 0 0 0-.42.101c-.13.068-.254.16-.37.277v2.597h-.865v-3.591h.528c.112 0 .186.052.22.157l.06.284Zm7.467-.991a.333.333 0 0 1-.091.109.198.198 0 0 1-.116.031.317.317 0 0 1-.16-.052 3.57 3.57 0 0 0-.204-.123 1.603 1.603 0 0 0-.28-.119 1.129 1.129 0 0 0-.374-.056c-.131 0-.245.017-.343.049a.73.73 0 0 0-.249.13.532.532 0 0 0-.147.203.646.646 0 0 0-.049.255c0 .119.033.219.098.298a.86.86 0 0 0 .266.203c.11.056.235.106.375.15.14.045.283.093.43.144.147.049.29.107.43.175.14.065.265.149.375.252.11.1.197.224.263.371.067.147.101.325.101.535 0 .229-.04.444-.119.644a1.464 1.464 0 0 1-.343.522c-.15.147-.332.264-.55.35a2.055 2.055 0 0 1-.745.126c-.16 0-.32-.016-.476-.049a2.39 2.39 0 0 1-.854-.343 1.98 1.98 0 0 1-.336-.273l.277-.452a.283.283 0 0 1 .09-.08.224.224 0 0 1 .12-.035.33.33 0 0 1 .189.073c.067.047.148.1.241.158.093.058.202.112.326.161.126.047.276.07.451.07.268 0 .476-.063.623-.189.147-.128.22-.312.22-.55a.501.501 0 0 0-.1-.325.768.768 0 0 0-.263-.21 1.941 1.941 0 0 0-.375-.147c-.14-.04-.282-.083-.427-.13a3.456 3.456 0 0 1-.427-.168 1.375 1.375 0 0 1-.374-.255 1.191 1.191 0 0 1-.266-.392 1.543 1.543 0 0 1-.098-.585 1.4 1.4 0 0 1 .108-.539c.075-.175.182-.33.322-.465s.313-.244.518-.326c.205-.081.441-.122.707-.122.299 0 .574.047.826.14.252.093.467.224.644.392l-.234.444Zm1.701 3.21a.855.855 0 0 0 .319.252.966.966 0 0 0 .731 0 .682.682 0 0 0 .266-.224c.075-.1.132-.226.172-.378.04-.154.06-.335.06-.543a2.3 2.3 0 0 0-.053-.532 1.008 1.008 0 0 0-.144-.357.57.57 0 0 0-.23-.199.703.703 0 0 0-.305-.063.863.863 0 0 0-.459.115 1.364 1.364 0 0 0-.357.319v1.61Zm-.045-2.17c.147-.166.313-.3.5-.403.187-.102.406-.154.658-.154a1.163 1.163 0 0 1 .956.48c.119.154.21.345.273.574.065.226.098.486.098.78 0 .269-.037.517-.109.746a1.8 1.8 0 0 1-.311.595c-.133.168-.296.3-.487.395a1.41 1.41 0 0 1-.637.141c-.2 0-.372-.031-.514-.092a1.278 1.278 0 0 1-.382-.259v1.471h-.864v-4.764h.528c.112 0 .186.052.22.157l.07.333Zm3.93-2.1v5.201h-.865v-5.201h.864Zm1.652 1.61v3.591h-.868v-3.591h.868Zm.119-1.047a.49.49 0 0 1-.046.21.558.558 0 0 1-.123.172.575.575 0 0 1-.175.119.562.562 0 0 1-.43 0 .587.587 0 0 1-.29-.291.563.563 0 0 1 0-.427.54.54 0 0 1 .29-.29.522.522 0 0 1 .43 0 .56.56 0 0 1 .297.29c.031.068.047.14.047.217Zm1.854 4.694c-.313 0-.553-.088-.721-.263-.166-.177-.249-.421-.249-.731v-2.006h-.367a.17.17 0 0 1-.12-.045c-.032-.03-.048-.076-.048-.137v-.343l.577-.094.182-.98a.194.194 0 0 1 .067-.109.202.202 0 0 1 .126-.038h.448v1.13h.959v.616h-.96v1.946c0 .112.028.2.081.263a.289.289 0 0 0 .228.094.419.419 0 0 0 .227-.059l.074-.039a.113.113 0 0 1 .063-.021c.026 0 .047.007.063.021a.268.268 0 0 1 .052.056l.26.42a1.305 1.305 0 0 1-.435.238 1.606 1.606 0 0 1-.507.081Z" fill="#DBDBDB"/><path opacity=".75" d="M2 156.75v1h36v-1H2Z" fill="#DBDBDB"/><path d="M17.955 162.219c0 .371-.061.712-.185 1.022a2.342 2.342 0 0 1-.522.802 2.322 2.322 0 0 1-.808.521 2.844 2.844 0 0 1-1.05.186h-1.93v-5.061h1.929c.385 0 .735.063 1.05.189.315.124.584.297.808.521.224.222.398.488.522.798.124.311.185.651.185 1.022Zm-.966 0c0-.277-.037-.526-.112-.745a1.496 1.496 0 0 0-.318-.56 1.365 1.365 0 0 0-.504-.354 1.727 1.727 0 0 0-.665-.122h-.984v3.563h.984c.247 0 .469-.041.665-.123.198-.081.366-.198.504-.35.14-.154.246-.34.318-.56.075-.221.112-.471.112-.749Zm4.602-1.06v3.591h-.528c-.115 0-.187-.053-.217-.158l-.06-.287a1.94 1.94 0 0 1-.486.364 1.356 1.356 0 0 1-.627.137c-.196 0-.37-.033-.521-.098a1.059 1.059 0 0 1-.378-.284 1.248 1.248 0 0 1-.235-.43 1.882 1.882 0 0 1-.077-.553v-2.282h.865v2.282c0 .219.05.39.15.511.103.119.256.178.459.178.15 0 .29-.032.42-.098a1.48 1.48 0 0 0 .37-.276v-2.597h.865Zm2.65 2.058c-.25.012-.46.034-.63.066-.17.031-.307.07-.41.119a.543.543 0 0 0-.22.172.37.37 0 0 0-.067.213c0 .152.044.261.133.326a.595.595 0 0 0 .353.098c.178 0 .33-.032.459-.095.13-.065.258-.163.381-.294v-.605Zm-1.982-1.558a2.13 2.13 0 0 1 1.491-.567c.21 0 .398.035.564.105a1.173 1.173 0 0 1 .679.725c.06.17.09.357.09.56v2.268h-.391a.418.418 0 0 1-.19-.035c-.043-.026-.078-.076-.104-.151l-.077-.259c-.091.082-.18.154-.266.217a1.608 1.608 0 0 1-.27.154 1.637 1.637 0 0 1-1.071.07.939.939 0 0 1-.332-.185.825.825 0 0 1-.217-.305 1.077 1.077 0 0 1-.077-.423.833.833 0 0 1 .192-.529c.07-.081.16-.158.27-.231.11-.072.244-.135.402-.189.161-.053.348-.096.56-.129a5.37 5.37 0 0 1 .728-.063v-.21c0-.24-.05-.418-.154-.532-.102-.117-.25-.175-.444-.175a1.063 1.063 0 0 0-.592.161l-.192.108a.365.365 0 0 1-.19.049.258.258 0 0 1-.153-.045.423.423 0 0 1-.102-.112l-.154-.277Zm4.41-2.11v5.201h-.865v-5.201h.864Z" fill="#FF9000"/><defs><linearGradient id="a" x1="20" y1=".5" x2="20" y2="41.5" gradientUnits="userSpaceOnUse"><stop/><stop offset="1" stop-opacity=".25"/></linearGradient><linearGradient id="b" x1="20" y1="42.5" x2="20" y2="83.5" gradientUnits="userSpaceOnUse"><stop/><stop offset="1" stop-opacity=".25"/></linearGradient><linearGradient id="c" x1="20" y1="84.5" x2="20" y2="125.5" gradientUnits="userSpaceOnUse"><stop/><stop offset="1" stop-opacity=".25"/></linearGradient><linearGradient id="d" x1="20" y1="126.5" x2="20" y2="167.5" gradientUnits="userSpaceOnUse"><stop/><stop offset="1" stop-opacity=".25"/></linearGradient></defs></svg>