<svg width="13" height="52" fill="none" xmlns="http://www.w3.org/2000/svg"><path clip-rule="evenodd" d="M12.2 4.335c0-1.737-1.423-3.145-3.178-3.145A3.18 3.18 0 0 0 6.44 2.506 3.182 3.182 0 0 0 3.858 1.19C2.104 1.19.68 2.598.68 4.335c0 .246.032.484.086.714.441 2.712 3.49 5.575 5.674 6.36 2.185-.785 5.233-3.648 5.674-6.36.054-.23.086-.468.086-.714Z" stroke="url(#a)"/><path clip-rule="evenodd" d="M12.1 17.335c0-1.737-1.423-3.145-3.178-3.145a3.18 3.18 0 0 0-2.582 1.316 3.182 3.182 0 0 0-2.582-1.316C2.004 14.19.58 15.598.58 17.335c0 .246.032.484.086.714.441 2.712 3.49 5.575 5.674 6.36 2.184-.785 5.233-3.648 5.674-6.36.054-.23.086-.468.086-.714Z" stroke="url(#b)"/><path fill-rule="evenodd" clip-rule="evenodd" d="M12.2 30.335c0-1.737-1.423-3.145-3.178-3.145a3.18 3.18 0 0 0-2.582 1.316 3.182 3.182 0 0 0-2.582-1.316C2.104 27.19.68 28.598.68 30.335c0 .246.032.484.086.714.441 2.712 3.49 5.575 5.674 6.36 2.185-.785 5.233-3.648 5.674-6.36.054-.23.086-.468.086-.714Z" fill="url(#c)"/><path fill-rule="evenodd" clip-rule="evenodd" d="M12.2 43.335c0-1.737-1.423-3.145-3.178-3.145a3.18 3.18 0 0 0-2.582 1.316 3.182 3.182 0 0 0-2.582-1.316C2.104 40.19.68 41.598.68 43.335c0 .246.032.484.086.714.441 2.712 3.49 5.575 5.674 6.36 2.185-.785 5.233-3.648 5.674-6.36.054-.23.086-.468.086-.714Z" fill="url(#d)" stroke="url(#e)"/><defs><linearGradient id="a" x1="6.44" y1="1.19" x2="6.44" y2="11.41" gradientUnits="userSpaceOnUse"><stop stop-color="#D51818"/><stop offset="1" stop-color="#900"/></linearGradient><linearGradient id="b" x1="6.34" y1="14.19" x2="6.34" y2="24.41" gradientUnits="userSpaceOnUse"><stop stop-color="#FFEE58"/><stop offset="1" stop-color="#FFEE58" stop-opacity=".35"/></linearGradient><linearGradient id="c" x1="6.44" y1="27.19" x2="6.44" y2="37.41" gradientUnits="userSpaceOnUse"><stop stop-color="#D51818"/><stop offset="1" stop-color="#420000"/></linearGradient><linearGradient id="d" x1="6.44" y1="40.19" x2="6.44" y2="50.41" gradientUnits="userSpaceOnUse"><stop stop-color="#D51818"/><stop offset="1" stop-color="#420000"/></linearGradient><linearGradient id="e" x1="6.44" y1="40.19" x2="6.44" y2="50.41" gradientUnits="userSpaceOnUse"><stop stop-color="#FFEE58"/><stop offset="1" stop-color="#FFEE58" stop-opacity=".35"/></linearGradient></defs></svg>