<svg width="32" height="24" fill="none" xmlns="http://www.w3.org/2000/svg"><path d="M.56 3.5a3 3 0 0 1 3-3h24a3 3 0 0 1 3 3v5a3 3 0 0 1-3 3h-24a3 3 0 0 1-3-3v-5Z" fill="url(#a)"/><path d="M10.087 3.612a.582.582 0 0 1-.104.336L7.015 8.14h3.004V9h-4.4v-.424a.41.41 0 0 1 .028-.152.63.63 0 0 1 .072-.14l2.976-4.212H5.807v-.856h4.28v.396Zm2.228 1.22c.303 0 .58.05.828.148a1.794 1.794 0 0 1 1.051 1.084c.096.261.144.553.144.876 0 .325-.047.619-.143.88a1.87 1.87 0 0 1-.412.668c-.176.184-.39.325-.64.424a2.222 2.222 0 0 1-.829.148c-.306 0-.585-.05-.835-.148a1.809 1.809 0 0 1-.644-.424 1.949 1.949 0 0 1-.413-.668 2.538 2.538 0 0 1-.144-.88c0-.323.048-.615.144-.876.1-.261.236-.483.412-.664.18-.181.394-.321.645-.42.25-.099.529-.148.836-.148Zm0 3.468c.34 0 .593-.115.755-.344.166-.23.248-.565.248-1.008 0-.443-.082-.78-.248-1.012-.162-.232-.414-.348-.755-.348-.347 0-.604.117-.772.352-.166.232-.248.568-.248 1.008 0 .44.082.776.248 1.008.168.23.425.344.772.344Zm4.473-3.468c.304 0 .58.05.828.148a1.795 1.795 0 0 1 1.052 1.084c.096.261.144.553.144.876 0 .325-.048.619-.144.88a1.871 1.871 0 0 1-.412.668 1.77 1.77 0 0 1-.64.424 2.222 2.222 0 0 1-.828.148c-.306 0-.585-.05-.836-.148a1.807 1.807 0 0 1-.644-.424 1.947 1.947 0 0 1-.412-.668 2.538 2.538 0 0 1-.144-.88c0-.323.048-.615.144-.876a1.91 1.91 0 0 1 .412-.664c.179-.181.394-.321.644-.42.25-.099.53-.148.836-.148Zm0 3.468c.342 0 .594-.115.756-.344.166-.23.248-.565.248-1.008 0-.443-.082-.78-.248-1.012-.162-.232-.414-.348-.756-.348-.346 0-.604.117-.772.352-.165.232-.248.568-.248 1.008 0 .44.083.776.248 1.008.168.23.426.344.772.344Zm2.658.7V4.896h.604c.128 0 .212.06.252.18l.064.304c.072-.08.147-.153.224-.22a1.346 1.346 0 0 1 .88-.328c.259 0 .47.07.636.212.168.139.293.324.376.556a1.288 1.288 0 0 1 .556-.588 1.46 1.46 0 0 1 .364-.136c.13-.03.261-.044.392-.044.227 0 .428.035.604.104.176.07.324.17.444.304.12.133.21.296.272.488.064.192.096.412.096.66V9h-.988V6.388c0-.261-.057-.457-.172-.588-.115-.133-.283-.2-.504-.2a.684.684 0 0 0-.512.204.68.68 0 0 0-.152.244.958.958 0 0 0-.056.34V9h-.992V6.388c0-.275-.056-.475-.168-.6-.11-.125-.27-.188-.484-.188a.798.798 0 0 0-.404.108 1.32 1.32 0 0 0-.344.288V9h-.988Z" fill="#DBDBDB"/><path d="M.56 15.5a3 3 0 0 1 3-3h24a3 3 0 0 1 3 3v5a3 3 0 0 1-3 3h-24a3 3 0 0 1-3-3v-5Z" fill="url(#b)"/><path d="M10.087 15.612a.582.582 0 0 1-.104.336L7.015 20.14h3.004V21h-4.4v-.424a.41.41 0 0 1 .028-.152.631.631 0 0 1 .072-.14l2.976-4.212H5.807v-.856h4.28v.396Zm2.228 1.22c.303 0 .58.05.828.148a1.795 1.795 0 0 1 1.051 1.084c.096.261.144.553.144.876 0 .325-.047.619-.143.88a1.87 1.87 0 0 1-.412.668 1.77 1.77 0 0 1-.64.424 2.221 2.221 0 0 1-.829.148c-.306 0-.585-.05-.835-.148a1.808 1.808 0 0 1-.644-.424 1.95 1.95 0 0 1-.413-.668 2.538 2.538 0 0 1-.144-.88c0-.323.048-.615.144-.876.1-.261.236-.483.412-.664.18-.181.394-.321.645-.42.25-.099.529-.148.836-.148Zm0 3.468c.34 0 .593-.115.755-.344.166-.23.248-.565.248-1.008 0-.443-.082-.78-.248-1.012-.162-.232-.414-.348-.755-.348-.347 0-.604.117-.772.352-.166.232-.248.568-.248 1.008 0 .44.082.776.248 1.008.168.23.425.344.772.344Zm4.473-3.468c.304 0 .58.05.828.148a1.795 1.795 0 0 1 1.052 1.084c.096.261.144.553.144.876 0 .325-.048.619-.144.88a1.87 1.87 0 0 1-.412.668 1.77 1.77 0 0 1-.64.424 2.221 2.221 0 0 1-.828.148c-.306 0-.585-.05-.836-.148a1.81 1.81 0 0 1-.644-.424 1.95 1.95 0 0 1-.412-.668 2.538 2.538 0 0 1-.144-.88c0-.323.048-.615.144-.876a1.91 1.91 0 0 1 .412-.664c.179-.181.394-.321.644-.42.25-.099.53-.148.836-.148Zm0 3.468c.342 0 .594-.115.756-.344.166-.23.248-.565.248-1.008 0-.443-.082-.78-.248-1.012-.162-.232-.414-.348-.756-.348-.346 0-.604.117-.772.352-.165.232-.248.568-.248 1.008 0 .44.083.776.248 1.008.168.23.426.344.772.344Zm2.658.7v-4.104h.604c.128 0 .212.06.252.18l.064.304a2.49 2.49 0 0 1 .224-.22 1.348 1.348 0 0 1 .88-.328c.259 0 .47.07.636.212.168.139.293.324.376.556a1.285 1.285 0 0 1 .556-.588 1.46 1.46 0 0 1 .364-.136c.13-.03.261-.044.392-.044.227 0 .428.035.604.104.176.07.324.17.444.304.12.133.21.296.272.488.064.192.096.412.096.66V21h-.988v-2.612c0-.261-.057-.457-.172-.588-.115-.133-.283-.2-.504-.2a.684.684 0 0 0-.512.204.678.678 0 0 0-.152.244.958.958 0 0 0-.056.34V21h-.992v-2.612c0-.275-.056-.475-.168-.6-.11-.125-.27-.188-.484-.188a.798.798 0 0 0-.404.108c-.123.07-.237.165-.344.288V21h-.988Z" fill="#FF9000"/><defs><linearGradient id="a" x1="15.56" y1=".5" x2="15.56" y2="11.5" gradientUnits="userSpaceOnUse"><stop/><stop offset="1" stop-opacity=".25"/></linearGradient><linearGradient id="b" x1="15.56" y1="12.5" x2="15.56" y2="23.5" gradientUnits="userSpaceOnUse"><stop/><stop offset="1" stop-opacity=".25"/></linearGradient></defs></svg>