<svg width="22" height="30" fill="none" xmlns="http://www.w3.org/2000/svg"><path d="M16.5 2h-13a1 1 0 0 0-1 1v6a1 1 0 0 0 1 1h13a1 1 0 0 0 1-1V3a1 1 0 0 0-1-1Z" fill="url(#a)"/><path d="M12.867 3.4v5.1h-1.043V5.567c0-.068 0-.141.003-.22.005-.08.012-.16.021-.242l-1.354 2.621a.44.44 0 0 1-.413.249H9.92a.479.479 0 0 1-.245-.063.45.45 0 0 1-.168-.186L8.152 5.098l.018.248c.004.08.007.153.007.22V8.5H7.134V3.4h.903c.051 0 .095.002.133.004a.4.4 0 0 1 .105.02.21.21 0 0 1 .08.057c.026.023.05.057.074.101L9.74 6.17c.047.089.091.18.133.276A5.5 5.5 0 0 1 10 6.74a3.943 3.943 0 0 1 .263-.581l1.309-2.576a.425.425 0 0 1 .07-.101.242.242 0 0 1 .084-.056.341.341 0 0 1 .101-.021c.04-.002.085-.004.137-.004h.903Z" fill="#DBDBDB"/><path d="M16.5 17h-13a1 1 0 0 0-1 1v6a1 1 0 0 0 1 1h13a1 1 0 0 0 1-1v-6a1 1 0 0 0-1-1Z" fill="url(#b)"/><path d="M12.867 18.4v5.1h-1.043v-2.933c0-.068 0-.141.003-.22.005-.08.012-.16.021-.242l-1.354 2.621a.44.44 0 0 1-.413.249H9.92a.479.479 0 0 1-.245-.063.449.449 0 0 1-.168-.186l-1.355-2.628.018.248c.004.08.007.153.007.22V23.5H7.134v-5.1h.903a2.2 2.2 0 0 1 .133.004.4.4 0 0 1 .105.02.21.21 0 0 1 .08.057c.026.023.05.057.074.101L9.74 21.17c.047.089.091.18.133.276.045.096.087.194.126.294a3.949 3.949 0 0 1 .263-.581l1.309-2.576a.425.425 0 0 1 .07-.101.242.242 0 0 1 .084-.056.34.34 0 0 1 .101-.021c.04-.002.085-.004.137-.004h.903Z" fill="#D51818"/><defs><linearGradient id="a" x1="10" y1="2" x2="10" y2="10" gradientUnits="userSpaceOnUse"><stop/><stop offset="1" stop-opacity=".25"/></linearGradient><linearGradient id="b" x1="10" y1="17" x2="10" y2="25" gradientUnits="userSpaceOnUse"><stop/><stop offset="1" stop-opacity=".25"/></linearGradient></defs></svg>