<svg width="37" height="12" fill="none" xmlns="http://www.w3.org/2000/svg"><path d="M.5 3.5a3 3 0 0 1 3-3h30a3 3 0 0 1 3 3v5a3 3 0 0 1-3 3h-30a3 3 0 0 1-3-3v-5Z" fill="url(#a)"/><path d="M14.064 4.268a.382.382 0 0 1-.104.124.227.227 0 0 1-.132.036.363.363 0 0 1-.184-.06 3.532 3.532 0 0 0-.232-.14 1.806 1.806 0 0 0-.32-.136 1.28 1.28 0 0 0-.428-.064c-.149 0-.28.019-.392.056a.82.82 0 0 0-.284.148.604.604 0 0 0-.168.232.74.74 0 0 0-.056.292c0 .136.038.25.112.34.078.09.179.168.304.232.126.064.268.121.428.172.16.05.324.105.492.164.168.056.332.123.492.2.16.075.303.17.428.288.126.115.226.256.3.424.078.168.116.372.116.612 0 .261-.045.507-.136.736a1.681 1.681 0 0 1-.392.596c-.17.168-.38.301-.628.4a2.348 2.348 0 0 1-.852.144c-.184 0-.365-.019-.544-.056a2.785 2.785 0 0 1-.976-.392 2.227 2.227 0 0 1-.384-.312l.316-.516a.315.315 0 0 1 .104-.092.252.252 0 0 1 .136-.04c.067 0 .139.028.216.084.078.053.17.113.276.18.107.067.231.128.372.184.144.053.316.08.516.08.307 0 .544-.072.712-.216.168-.147.252-.356.252-.628a.575.575 0 0 0-.116-.372.879.879 0 0 0-.3-.24 2.17 2.17 0 0 0-.428-.168 14.17 14.17 0 0 1-.488-.148 4.202 4.202 0 0 1-.488-.192 1.58 1.58 0 0 1-.428-.292 1.356 1.356 0 0 1-.304-.448 1.757 1.757 0 0 1-.112-.668c0-.21.042-.416.124-.616.086-.2.208-.377.368-.532a1.79 1.79 0 0 1 .592-.372c.235-.093.504-.14.808-.14.342 0 .656.053.944.16.288.107.534.256.736.448l-.268.508Zm3.148 2.98a5.198 5.198 0 0 0-.72.076c-.194.035-.35.08-.468.136a.616.616 0 0 0-.252.196.426.426 0 0 0-.076.244c0 .173.051.297.152.372a.677.677 0 0 0 .404.112c.203 0 .378-.036.524-.108.15-.075.295-.187.436-.336v-.692Zm-2.264-1.78c.472-.432 1.04-.648 1.704-.648.24 0 .455.04.644.12a1.348 1.348 0 0 1 .776.828c.07.195.104.408.104.64V9h-.448a.472.472 0 0 1-.216-.04c-.05-.03-.09-.087-.12-.172l-.088-.296A3.892 3.892 0 0 1 17 8.74a1.87 1.87 0 0 1-.308.176 1.847 1.847 0 0 1-1.224.08 1.079 1.079 0 0 1-.38-.212.943.943 0 0 1-.248-.348 1.234 1.234 0 0 1-.088-.484.945.945 0 0 1 .22-.604 1.49 1.49 0 0 1 .308-.264 1.99 1.99 0 0 1 .46-.216c.184-.061.398-.11.64-.148.243-.04.52-.064.832-.072v-.24c0-.275-.058-.477-.176-.608-.117-.133-.286-.2-.508-.2-.16 0-.293.019-.4.056a1.56 1.56 0 0 0-.276.128l-.22.124a.42.42 0 0 1-.216.056.293.293 0 0 1-.176-.052.477.477 0 0 1-.116-.128l-.176-.316Zm7.645-.572L20.965 9h-.896l-1.628-4.104h.816c.075 0 .136.017.184.052.05.035.084.079.1.132l.792 2.192a5.875 5.875 0 0 1 .196.744 9.26 9.26 0 0 1 .088-.368c.032-.123.07-.248.116-.376l.808-2.192a.27.27 0 0 1 .1-.132.286.286 0 0 1 .172-.052h.78Zm2.926 1.58c0-.128-.02-.248-.056-.36a.833.833 0 0 0-.16-.3.73.73 0 0 0-.276-.2.905.905 0 0 0-.384-.076c-.286 0-.511.081-.676.244-.163.163-.267.393-.312.692h1.864Zm-1.884.596c.016.21.053.393.112.548.058.152.136.279.232.38a.942.942 0 0 0 .34.224c.133.048.28.072.44.072.16 0 .297-.019.412-.056a1.84 1.84 0 0 0 .304-.124c.088-.045.164-.087.228-.124a.394.394 0 0 1 .192-.056c.082 0 .144.03.184.092l.284.36a1.69 1.69 0 0 1-.368.324 2.188 2.188 0 0 1-.88.316c-.152.021-.3.032-.444.032a2.22 2.22 0 0 1-.796-.14 1.818 1.818 0 0 1-.64-.42 1.996 1.996 0 0 1-.428-.688 2.679 2.679 0 0 1-.156-.952c0-.28.045-.543.136-.788a1.83 1.83 0 0 1 1.008-1.08c.245-.107.52-.16.828-.16.258 0 .497.041.716.124.218.083.406.204.564.364.157.157.28.352.368.584.09.23.136.492.136.788 0 .15-.016.25-.048.304-.032.05-.094.076-.184.076h-2.54Z" fill="#DBDBDB"/><defs><linearGradient id="a" x1="18.5" y1=".5" x2="18.5" y2="11.5" gradientUnits="userSpaceOnUse"><stop/><stop offset="1" stop-opacity=".25"/></linearGradient></defs></svg>