<svg width="22" height="45" fill="none" xmlns="http://www.w3.org/2000/svg"><path d="M12 4H8v7h4V4Z" fill="url(#a)" opacity=".5"/><path d="M17 4h-4v7h4V4Z" fill="url(#b)" opacity=".5"/><path d="M7 4H3v7h4V4Zm5 15H8v7h4v-7Z" fill="#FF9000"/><path d="M17 19h-4v7h4v-7Z" fill="url(#c)" opacity=".5"/><path d="M7 19H3v7h4v-7Z" fill="url(#d)" opacity=".5"/><path d="M12 34H8v7h4v-7Z" fill="url(#e)" opacity=".5"/><path d="M17 34h-4v7h4v-7Z" fill="#FF9000"/><path d="M7 34H3v7h4v-7Z" fill="url(#f)" opacity=".5"/><defs><linearGradient id="a" x1="10" y1="4" x2="10" y2="11" gradientUnits="userSpaceOnUse"><stop/><stop offset="1" stop-opacity=".25"/></linearGradient><linearGradient id="b" x1="15" y1="4" x2="15" y2="11" gradientUnits="userSpaceOnUse"><stop/><stop offset="1" stop-opacity=".25"/></linearGradient><linearGradient id="c" x1="15" y1="19" x2="15" y2="26" gradientUnits="userSpaceOnUse"><stop/><stop offset="1" stop-opacity=".25"/></linearGradient><linearGradient id="d" x1="5" y1="19" x2="5" y2="26" gradientUnits="userSpaceOnUse"><stop/><stop offset="1" stop-opacity=".25"/></linearGradient><linearGradient id="e" x1="10" y1="34" x2="10" y2="41" gradientUnits="userSpaceOnUse"><stop/><stop offset="1" stop-opacity=".25"/></linearGradient><linearGradient id="f" x1="5" y1="34" x2="5" y2="41" gradientUnits="userSpaceOnUse"><stop/><stop offset="1" stop-opacity=".25"/></linearGradient></defs></svg>