<svg width="49" height="28" fill="none" xmlns="http://www.w3.org/2000/svg"><path d="M.5 3.5a3 3 0 0 1 3-3h42a3 3 0 0 1 3 3v7a3 3 0 0 1-3 3h-42a3 3 0 0 1-3-3v-7Z" fill="url(#a)"/><path d="M16.843 4.216 14.507 10h-.972L11.2 4.216h.864a.362.362 0 0 1 .36.244l1.364 3.528c.045.115.088.241.128.38.043.136.083.279.12.428.032-.15.067-.292.104-.428.038-.139.079-.265.124-.38L15.62 4.46a.383.383 0 0 1 .124-.168.362.362 0 0 1 .232-.076h.868Zm2.334 3.26a1.14 1.14 0 0 0-.056-.36.833.833 0 0 0-.16-.3.73.73 0 0 0-.276-.2.905.905 0 0 0-.384-.076c-.285 0-.51.081-.676.244-.163.163-.267.393-.312.692h1.864Zm-1.884.596c.016.21.053.393.112.548.059.152.136.279.232.38.096.099.21.173.34.224.133.048.28.072.44.072.16 0 .297-.019.412-.056a1.84 1.84 0 0 0 .304-.124c.088-.045.164-.087.228-.124a.394.394 0 0 1 .192-.056c.083 0 .144.03.184.092l.284.36a1.69 1.69 0 0 1-.368.324 2.188 2.188 0 0 1-.88.316c-.152.021-.3.032-.444.032a2.22 2.22 0 0 1-.796-.14 1.818 1.818 0 0 1-.64-.42 1.996 1.996 0 0 1-.428-.688 2.679 2.679 0 0 1-.156-.952c0-.28.045-.543.136-.788a1.83 1.83 0 0 1 1.008-1.08c.245-.107.521-.16.828-.16.259 0 .497.041.716.124.219.083.407.204.564.364.157.157.28.352.368.584.09.23.136.492.136.788 0 .15-.016.25-.048.304-.032.05-.093.076-.184.076h-2.54Zm4.326-1.464c.128-.245.28-.437.456-.576a.966.966 0 0 1 .623-.212c.19 0 .342.041.456.124l-.064.74a.195.195 0 0 1-.06.104.16.16 0 0 1-.1.028c-.04 0-.1-.007-.18-.02a1.34 1.34 0 0 0-.227-.02.74.74 0 0 0-.524.188.973.973 0 0 0-.18.216 2.31 2.31 0 0 0-.145.292V10h-.988V5.896h.58c.102 0 .173.019.213.056.04.035.066.099.08.192l.06.464ZM27.69 10h-.988V6.636h-1.904V8.86c0 .128.03.228.092.3a.33.33 0 0 0 .26.108.488.488 0 0 0 .26-.068c.032-.016.06-.03.084-.044a.129.129 0 0 1 .072-.024c.03 0 .053.008.072.024a.282.282 0 0 1 .06.064l.296.48c-.144.12-.31.21-.496.272-.187.061-.38.092-.58.092-.357 0-.632-.1-.824-.3-.19-.203-.284-.481-.284-.836V6.636h-.42a.193.193 0 0 1-.136-.052c-.037-.035-.056-.087-.056-.156v-.392l.66-.112.208-1.116a.22.22 0 0 1 .076-.124.226.226 0 0 1 .144-.044h.512v1.292h2.892V10Zm.172-5.316a.59.59 0 0 1-.192.44.642.642 0 0 1-.692.136.678.678 0 0 1-.332-.332.632.632 0 0 1 .136-.688.589.589 0 0 1 .196-.136.6.6 0 0 1 .488 0 .57.57 0 0 1 .204.136.629.629 0 0 1 .192.444Zm3.656 2.08a.454.454 0 0 1-.088.088c-.026.021-.066.032-.12.032a.28.28 0 0 1-.148-.044 2.621 2.621 0 0 0-.172-.104 1.115 1.115 0 0 0-.58-.152c-.173 0-.325.032-.456.096a.864.864 0 0 0-.328.268 1.24 1.24 0 0 0-.192.428 2.266 2.266 0 0 0-.064.564c0 .219.023.413.068.584.048.17.116.315.204.432a.896.896 0 0 0 .32.264.989.989 0 0 0 .424.088c.158 0 .284-.019.38-.056.099-.04.182-.083.248-.128a4.59 4.59 0 0 0 .172-.128.266.266 0 0 1 .168-.06.2.2 0 0 1 .18.092l.284.36a1.83 1.83 0 0 1-.356.324 2.04 2.04 0 0 1-.4.208c-.136.05-.277.087-.424.108a2.949 2.949 0 0 1-.432.032 1.714 1.714 0 0 1-1.304-.556 2.007 2.007 0 0 1-.4-.664 2.623 2.623 0 0 1-.144-.9c0-.301.043-.58.128-.836a1.9 1.9 0 0 1 .384-.668 1.74 1.74 0 0 1 .624-.444 2.15 2.15 0 0 1 .856-.16c.307 0 .575.05.804.148.232.099.44.24.624.424l-.26.36Zm2.968 1.484a5.198 5.198 0 0 0-.72.076c-.195.035-.351.08-.468.136a.616.616 0 0 0-.252.196.426.426 0 0 0-.076.244c0 .173.05.297.152.372a.677.677 0 0 0 .404.112c.202 0 .377-.036.524-.108.149-.075.294-.187.436-.336v-.692Zm-2.264-1.78c.472-.432 1.04-.648 1.704-.648.24 0 .454.04.644.12a1.332 1.332 0 0 1 .776.828c.069.195.104.408.104.64V10h-.448a.472.472 0 0 1-.216-.04c-.051-.03-.091-.087-.12-.172l-.088-.296a3.892 3.892 0 0 1-.304.248 1.87 1.87 0 0 1-.308.176 1.845 1.845 0 0 1-1.224.08 1.079 1.079 0 0 1-.38-.212.943.943 0 0 1-.248-.348 1.234 1.234 0 0 1-.088-.484.945.945 0 0 1 .22-.604c.08-.093.182-.181.308-.264.125-.083.278-.155.46-.216.184-.061.397-.11.64-.148.242-.04.52-.064.832-.072v-.24c0-.275-.059-.477-.176-.608-.118-.133-.287-.2-.508-.2-.16 0-.294.019-.4.056a1.56 1.56 0 0 0-.276.128l-.22.124a.42.42 0 0 1-.216.056.293.293 0 0 1-.176-.052.477.477 0 0 1-.116-.128l-.176-.316Zm5.038-2.412V10h-.988V4.056h.988Z" fill="#DBDBDB"/><path d="M.5 17.5a3 3 0 0 1 3-3h42a3 3 0 0 1 3 3v7a3 3 0 0 1-3 3h-42a3 3 0 0 1-3-3v-7Z" fill="url(#b)"/><path d="M16.843 18.216 14.507 24h-.972L11.2 18.216h.864a.363.363 0 0 1 .36.244l1.364 3.528c.045.115.088.241.128.38.043.136.083.279.12.428.032-.15.067-.292.104-.428.038-.139.079-.265.124-.38l1.356-3.528a.384.384 0 0 1 .124-.168.362.362 0 0 1 .232-.076h.868Zm2.334 3.26a1.14 1.14 0 0 0-.056-.36.833.833 0 0 0-.16-.3.731.731 0 0 0-.276-.2.905.905 0 0 0-.384-.076c-.285 0-.51.081-.676.244-.163.163-.267.393-.312.692h1.864Zm-1.884.596c.016.21.053.393.112.548.059.152.136.279.232.38.096.099.21.173.34.224.133.048.28.072.44.072.16 0 .297-.019.412-.056a1.84 1.84 0 0 0 .304-.124c.088-.045.164-.087.228-.124a.394.394 0 0 1 .192-.056c.083 0 .144.03.184.092l.284.36a1.69 1.69 0 0 1-.368.324 2.188 2.188 0 0 1-.88.316c-.152.021-.3.032-.444.032a2.22 2.22 0 0 1-.796-.14 1.818 1.818 0 0 1-.64-.42 1.996 1.996 0 0 1-.428-.688 2.68 2.68 0 0 1-.156-.952c0-.28.045-.543.136-.788a1.83 1.83 0 0 1 1.008-1.08c.245-.107.521-.16.828-.16.259 0 .497.041.716.124.219.083.407.204.564.364.157.157.28.352.368.584.09.23.136.492.136.788 0 .15-.016.25-.048.304-.032.05-.093.076-.184.076h-2.54Zm4.326-1.464c.128-.245.28-.437.456-.576a.966.966 0 0 1 .623-.212c.19 0 .342.041.456.124l-.064.74a.195.195 0 0 1-.06.104.159.159 0 0 1-.1.028c-.04 0-.1-.007-.18-.02a1.343 1.343 0 0 0-.227-.02.741.741 0 0 0-.524.188.974.974 0 0 0-.18.216 2.31 2.31 0 0 0-.145.292V24h-.988v-4.104h.58c.102 0 .173.019.213.056.04.035.066.099.08.192l.06.464ZM27.69 24h-.988v-3.364h-1.904v2.224c0 .128.03.228.092.3a.33.33 0 0 0 .26.108.49.49 0 0 0 .26-.068c.032-.016.06-.03.084-.044a.129.129 0 0 1 .072-.024c.03 0 .053.008.072.024a.282.282 0 0 1 .06.064l.296.48c-.144.12-.31.21-.496.272-.187.061-.38.092-.58.092-.357 0-.632-.1-.824-.3-.19-.203-.284-.481-.284-.836v-2.292h-.42a.192.192 0 0 1-.136-.052c-.037-.035-.056-.087-.056-.156v-.392l.66-.112.208-1.116a.22.22 0 0 1 .076-.124.226.226 0 0 1 .144-.044h.512v1.292h2.892V24Zm.172-5.316a.59.59 0 0 1-.192.44.642.642 0 0 1-.692.136.679.679 0 0 1-.332-.332.632.632 0 0 1 .136-.688.588.588 0 0 1 .196-.136.599.599 0 0 1 .488 0 .57.57 0 0 1 .204.136.63.63 0 0 1 .192.444Zm3.656 2.08a.454.454 0 0 1-.088.088c-.026.021-.066.032-.12.032a.28.28 0 0 1-.148-.044 2.608 2.608 0 0 0-.172-.104 1.114 1.114 0 0 0-.58-.152c-.173 0-.325.032-.456.096a.864.864 0 0 0-.328.268c-.085.117-.149.26-.192.428a2.266 2.266 0 0 0-.064.564c0 .219.023.413.068.584.048.17.116.315.204.432a.896.896 0 0 0 .32.264.988.988 0 0 0 .424.088c.158 0 .284-.019.38-.056.099-.04.182-.083.248-.128a4.59 4.59 0 0 0 .172-.128.266.266 0 0 1 .168-.06.2.2 0 0 1 .18.092l.284.36a1.83 1.83 0 0 1-.356.324 2.04 2.04 0 0 1-.4.208c-.136.05-.277.087-.424.108a2.949 2.949 0 0 1-.432.032 1.715 1.715 0 0 1-1.304-.556 2.007 2.007 0 0 1-.4-.664 2.623 2.623 0 0 1-.144-.9c0-.301.043-.58.128-.836a1.9 1.9 0 0 1 .384-.668 1.74 1.74 0 0 1 .624-.444 2.15 2.15 0 0 1 .856-.16c.307 0 .575.05.804.148.232.099.44.24.624.424l-.26.36Zm2.968 1.484a5.198 5.198 0 0 0-.72.076 1.87 1.87 0 0 0-.468.136.615.615 0 0 0-.252.196.426.426 0 0 0-.076.244c0 .173.05.297.152.372a.677.677 0 0 0 .404.112c.202 0 .377-.036.524-.108.149-.075.294-.187.436-.336v-.692Zm-2.264-1.78c.472-.432 1.04-.648 1.704-.648.24 0 .454.04.644.12a1.332 1.332 0 0 1 .776.828c.069.195.104.408.104.64V24h-.448a.472.472 0 0 1-.216-.04c-.051-.03-.091-.087-.12-.172l-.088-.296a3.898 3.898 0 0 1-.304.248c-.099.07-.202.128-.308.176a1.845 1.845 0 0 1-1.224.08 1.08 1.08 0 0 1-.38-.212.942.942 0 0 1-.248-.348 1.234 1.234 0 0 1-.088-.484.945.945 0 0 1 .22-.604c.08-.093.182-.181.308-.264.125-.083.278-.155.46-.216.184-.061.397-.11.64-.148.242-.04.52-.064.832-.072v-.24c0-.275-.059-.477-.176-.608-.118-.133-.287-.2-.508-.2-.16 0-.294.019-.4.056-.104.037-.196.08-.276.128l-.22.124a.421.421 0 0 1-.216.056.292.292 0 0 1-.176-.052.476.476 0 0 1-.116-.128l-.176-.316Zm5.038-2.412V24h-.988v-5.944h.988Z" fill="#FF9000"/><defs><linearGradient id="a" x1="24.5" y1=".5" x2="24.5" y2="13.5" gradientUnits="userSpaceOnUse"><stop/><stop offset="1" stop-opacity=".25"/></linearGradient><linearGradient id="b" x1="24.5" y1="14.5" x2="24.5" y2="27.5" gradientUnits="userSpaceOnUse"><stop/><stop offset="1" stop-opacity=".25"/></linearGradient></defs></svg>