<svg width="48" height="56" fill="none" xmlns="http://www.w3.org/2000/svg"><path d="M9 20c3.038 0 5.5-2.686 5.5-6S12.038 8 9 8s-5.5 2.686-5.5 6 2.462 6 5.5 6Z" fill="url(#a)"/><path d="M14 11.5a5 5 0 1 1-10 0 5 5 0 0 1 10 0Z" fill="url(#b)" stroke="#DBDBDB" stroke-opacity=".5"/><path opacity=".5" d="M10 11.25H8a.5.5 0 0 0 0 1h2a.5.5 0 0 0 0-1Z" fill="#EEE"/><path d="M10 11H8a.5.5 0 0 0 0 1h2a.5.5 0 0 0 0-1Z" fill="#DBDBDB"/><path d="M33 20c3.038 0 5.5-2.686 5.5-6S36.038 8 33 8s-5.5 2.686-5.5 6 2.462 6 5.5 6Z" fill="url(#c)"/><path d="M38 11.5a5 5 0 1 1-10 0 5 5 0 0 1 10 0Z" fill="url(#d)" stroke="#DBDBDB" stroke-opacity=".5"/><path opacity=".5" d="M34 11.25h-2a.5.5 0 0 0 0 1h2a.5.5 0 0 0 0-1Z" fill="#EEE"/><path d="M34 11h-2a.5.5 0 0 0 0 1h2a.5.5 0 0 0 0-1Z" fill="#DBDBDB"/><path d="M9 48c3.038 0 5.5-2.686 5.5-6s-2.462-6-5.5-6-5.5 2.686-5.5 6 2.462 6 5.5 6Z" fill="url(#e)"/><path d="M14 39.5a5 5 0 1 1-10 0 5 5 0 0 1 10 0Z" fill="url(#f)" stroke="#DBDBDB" stroke-opacity=".5"/><path opacity=".5" d="M10 39.25H8a.5.5 0 0 0 0 1h2a.5.5 0 0 0 0-1Z" fill="#EEE"/><path d="M10 39H8a.5.5 0 0 0 0 1h2a.5.5 0 0 0 0-1Z" fill="#DBDBDB"/><path d="M33 48c3.038 0 5.5-2.686 5.5-6s-2.462-6-5.5-6-5.5 2.686-5.5 6 2.462 6 5.5 6Z" fill="url(#g)"/><path d="M38 39.5a5 5 0 1 1-10 0 5 5 0 0 1 10 0Z" fill="url(#h)" stroke="#DBDBDB" stroke-opacity=".5"/><path opacity=".5" d="M34 39.25h-2a.5.5 0 0 0 0 1h2a.5.5 0 0 0 0-1Z" fill="#EEE"/><path d="M34 39h-2a.5.5 0 0 0 0 1h2a.5.5 0 0 0 0-1Z" fill="#DBDBDB"/><defs><linearGradient id="a" x1="9" y1="14" x2="9" y2="20" gradientUnits="userSpaceOnUse"><stop offset=".521"/><stop offset="1" stop-opacity="0"/></linearGradient><linearGradient id="b" x1="9" y1="6" x2="9" y2="17" gradientUnits="userSpaceOnUse"><stop/><stop offset="1" stop-color="#353535"/></linearGradient><linearGradient id="c" x1="33" y1="14" x2="33" y2="20" gradientUnits="userSpaceOnUse"><stop offset=".521"/><stop offset="1" stop-opacity="0"/></linearGradient><linearGradient id="d" x1="33" y1="6" x2="33" y2="17" gradientUnits="userSpaceOnUse"><stop stop-color="#999"/><stop offset="0" stop-color="#BFBFBF"/><stop offset="1"/></linearGradient><linearGradient id="e" x1="9" y1="42" x2="9" y2="48" gradientUnits="userSpaceOnUse"><stop offset=".521"/><stop offset="1" stop-opacity="0"/></linearGradient><linearGradient id="f" x1="9" y1="34" x2="9" y2="45" gradientUnits="userSpaceOnUse"><stop/><stop offset="1" stop-color="#353535"/></linearGradient><linearGradient id="g" x1="33" y1="42" x2="33" y2="48" gradientUnits="userSpaceOnUse"><stop offset=".521"/><stop offset="1" stop-opacity="0"/></linearGradient><linearGradient id="h" x1="33" y1="34" x2="33" y2="45" gradientUnits="userSpaceOnUse"><stop stop-color="#999"/><stop offset="0" stop-color="#BFBFBF"/><stop offset="1"/></linearGradient></defs></svg>