<svg width="31" height="24" fill="none" xmlns="http://www.w3.org/2000/svg"><path d="M.5 3.5a3 3 0 0 1 3-3h24a3 3 0 0 1 3 3v5a3 3 0 0 1-3 3h-24a3 3 0 0 1-3-3v-5Z" fill="url(#a)"/><path d="M13.978 3.216V9h-.948V5.264c0-.15.008-.31.024-.484l-1.748 3.284a.404.404 0 0 1-.38.236h-.152a.404.404 0 0 1-.38-.236L8.626 4.768c.008.088.014.175.02.26.005.085.008.164.008.236V9h-.948V3.216h.812c.048 0 .089.001.124.004.034.003.065.01.092.02.029.01.054.028.076.052a.404.404 0 0 1 .068.096L10.61 6.6a6.753 6.753 0 0 1 .24.544 5.678 5.678 0 0 1 .244-.552l1.708-3.204a.403.403 0 0 1 .068-.096.228.228 0 0 1 .076-.052.36.36 0 0 1 .096-.02c.034-.003.076-.004.124-.004h.812Zm3.05 2.908c.197 0 .37-.024.516-.072a.994.994 0 0 0 .364-.212.867.867 0 0 0 .22-.336 1.3 1.3 0 0 0 .072-.444c0-.155-.024-.295-.072-.42a.83.83 0 0 0-.216-.32.94.94 0 0 0-.364-.2 1.678 1.678 0 0 0-.52-.072h-.804v2.076h.804Zm0-2.908a3.3 3.3 0 0 1 1.004.136c.283.09.516.217.7.38.184.163.32.357.408.584.09.227.136.475.136.744 0 .28-.047.537-.14.772a1.6 1.6 0 0 1-.42.6 1.95 1.95 0 0 1-.704.392c-.28.093-.608.14-.984.14h-.804V9h-1.076V3.216h1.88Zm4.033.856v1.604h2.024v.828h-2.024V8.14h2.568V9h-3.648V3.216h3.648v.856h-2.568Z" fill="#DBDBDB"/><path d="M.5 15.5a3 3 0 0 1 3-3h24a3 3 0 0 1 3 3v5a3 3 0 0 1-3 3h-24a3 3 0 0 1-3-3v-5Z" fill="url(#b)"/><path d="M13.978 15.216V21h-.948v-3.736c0-.15.008-.31.024-.484l-1.748 3.284a.404.404 0 0 1-.38.236h-.152a.404.404 0 0 1-.38-.236l-1.768-3.296c.008.088.014.175.02.26.005.085.008.164.008.236V21h-.948v-5.784h.812c.048 0 .089.001.124.004.034.003.065.01.092.02.029.01.054.028.076.052a.404.404 0 0 1 .068.096L10.61 18.6a6.77 6.77 0 0 1 .24.544 5.678 5.678 0 0 1 .244-.552l1.708-3.204a.403.403 0 0 1 .068-.096.228.228 0 0 1 .076-.052.36.36 0 0 1 .096-.02 1.63 1.63 0 0 1 .124-.004h.812Zm3.05 2.908c.197 0 .37-.024.516-.072a.994.994 0 0 0 .364-.212.866.866 0 0 0 .22-.336 1.3 1.3 0 0 0 .072-.444c0-.155-.024-.295-.072-.42a.83.83 0 0 0-.216-.32.94.94 0 0 0-.364-.2 1.678 1.678 0 0 0-.52-.072h-.804v2.076h.804Zm0-2.908a3.3 3.3 0 0 1 1.004.136c.283.09.516.217.7.38.184.163.32.357.408.584.09.227.136.475.136.744 0 .28-.047.537-.14.772a1.6 1.6 0 0 1-.42.6 1.95 1.95 0 0 1-.704.392c-.28.093-.608.14-.984.14h-.804V21h-1.076v-5.784h1.88Zm4.033.856v1.604h2.024v.828h-2.024v1.636h2.568V21h-3.648v-5.784h3.648v.856h-2.568Z" fill="#FF9000"/><defs><linearGradient id="a" x1="15.5" y1=".5" x2="15.5" y2="11.5" gradientUnits="userSpaceOnUse"><stop/><stop offset="1" stop-opacity=".25"/></linearGradient><linearGradient id="b" x1="15.5" y1="12.5" x2="15.5" y2="23.5" gradientUnits="userSpaceOnUse"><stop/><stop offset="1" stop-opacity=".25"/></linearGradient></defs></svg>