<svg width="34" height="36" fill="none" xmlns="http://www.w3.org/2000/svg"><path d="M.5 2.5a2 2 0 0 1 2-2h29a2 2 0 0 1 2 2v13a2 2 0 0 1-2 2h-29a2 2 0 0 1-2-2v-13Z" fill="url(#a)"/><path d="M8.991 5.47c0 .37-.062.711-.185 1.022-.124.31-.298.577-.522.801a2.333 2.333 0 0 1-.808.522A2.851 2.851 0 0 1 6.426 8H4.497V2.94h1.929c.385 0 .735.062 1.05.188a2.31 2.31 0 0 1 1.33 1.32c.123.31.185.65.185 1.022Zm-.966 0c0-.278-.037-.527-.112-.746a1.497 1.497 0 0 0-.318-.56 1.36 1.36 0 0 0-.504-.353 1.715 1.715 0 0 0-.665-.123h-.984v3.563h.984c.247 0 .469-.04.665-.122a1.38 1.38 0 0 0 .504-.35c.14-.154.246-.341.318-.56.075-.222.112-.472.112-.75ZM10.662 8h-.945V2.94h.945V8Zm5.2-2.537V7.51a2.71 2.71 0 0 1-.822.417c-.29.086-.6.13-.931.13-.413 0-.788-.065-1.124-.193a2.533 2.533 0 0 1-.857-.536 2.357 2.357 0 0 1-.546-.819 2.746 2.746 0 0 1-.193-1.04c0-.38.062-.729.186-1.046.123-.317.299-.59.525-.819.229-.229.505-.406.83-.532a2.995 2.995 0 0 1 1.091-.189 3.044 3.044 0 0 1 1.071.186c.154.056.294.124.42.206.126.082.242.172.347.27l-.27.427a.264.264 0 0 1-.164.126c-.068.014-.141-.004-.22-.053l-.232-.133a1.473 1.473 0 0 0-.259-.115c-.093-.033-.2-.06-.318-.08a2.315 2.315 0 0 0-.406-.032c-.25 0-.476.042-.68.126-.2.084-.371.204-.514.36a1.624 1.624 0 0 0-.329.564 2.206 2.206 0 0 0-.115.735c0 .289.04.548.122.777.084.226.201.418.35.577.152.156.334.277.546.36.213.082.45.123.71.123.188 0 .354-.02.501-.06.147-.04.29-.093.43-.16V6.17h-.636a.202.202 0 0 1-.144-.05.178.178 0 0 1-.049-.125v-.532h1.68ZM17.61 8h-.945V2.94h.945V8Zm4.563-4.287h-1.526V8h-.942V3.713H18.18v-.774h3.994v.774Zm2.739 2.376-.616-1.683a3.621 3.621 0 0 1-.095-.266 8.49 8.49 0 0 1-.098-.333c-.03.12-.062.231-.094.336a4.347 4.347 0 0 1-.095.27l-.612 1.676h1.61ZM26.574 8h-.728a.317.317 0 0 1-.2-.06.394.394 0 0 1-.115-.153l-.378-1.033h-2.096l-.378 1.033a.336.336 0 0 1-.109.147.303.303 0 0 1-.2.066h-.734l1.991-5.06h.96L26.573 8Zm3.383-.777V8h-2.964V2.94h.942v4.283h2.023Z" fill="#FF9000"/><path d="m5.847 14.09-.616-1.684a3.678 3.678 0 0 1-.094-.266 8.665 8.665 0 0 1-.098-.333c-.03.12-.062.231-.095.336a4.3 4.3 0 0 1-.094.27l-.613 1.676h1.61ZM7.51 16h-.728a.317.317 0 0 1-.2-.06.395.395 0 0 1-.115-.153l-.378-1.033H3.992l-.378 1.033a.335.335 0 0 1-.108.147.303.303 0 0 1-.2.066h-.735l1.992-5.06h.959L7.51 16Zm4.685-5.06V16h-.483a.457.457 0 0 1-.189-.035.47.47 0 0 1-.143-.126l-2.643-3.374c.014.154.021.296.021.427V16h-.83v-5.06h.494c.04 0 .074.001.102.006.03.002.056.01.077.021.023.01.045.025.066.046a.6.6 0 0 1 .07.077l2.653 3.388a9.216 9.216 0 0 1-.017-.242 3.83 3.83 0 0 1-.007-.22v-3.077h.83Zm3.696 3.15-.616-1.684a3.621 3.621 0 0 1-.094-.266 8.506 8.506 0 0 1-.098-.333c-.03.12-.062.231-.095.336a4.34 4.34 0 0 1-.094.27l-.613 1.676h1.61ZM17.554 16h-.728a.317.317 0 0 1-.2-.06.394.394 0 0 1-.115-.153l-.378-1.033h-2.097l-.378 1.033a.336.336 0 0 1-.108.147.303.303 0 0 1-.2.066h-.735l1.992-5.06h.959L17.554 16Zm3.383-.777V16h-2.965v-5.06h.942v4.283h2.023Zm5.216-1.753c0 .37-.062.715-.185 1.032a2.401 2.401 0 0 1-.518.82 2.383 2.383 0 0 1-.809.542 2.76 2.76 0 0 1-1.05.192 2.75 2.75 0 0 1-1.047-.192 2.42 2.42 0 0 1-.811-.543 2.446 2.446 0 0 1-.522-.819 2.818 2.818 0 0 1-.185-1.032c0-.371.061-.714.185-1.03.124-.317.298-.59.522-.822.226-.23.497-.41.811-.539.316-.13.664-.196 1.047-.196.257 0 .498.03.724.091.227.058.434.142.623.252a2.2 2.2 0 0 1 .508.396c.152.154.28.326.385.518.105.19.184.399.238.623.056.224.084.46.084.707Zm-.962 0c0-.278-.038-.527-.113-.746a1.6 1.6 0 0 0-.318-.563 1.362 1.362 0 0 0-.504-.354 1.714 1.714 0 0 0-.665-.122c-.247 0-.47.04-.669.122a1.4 1.4 0 0 0-.503.354 1.6 1.6 0 0 0-.319.563c-.075.22-.112.468-.112.746 0 .277.037.527.112.749.075.219.18.406.319.56.14.151.308.268.503.35.199.081.422.122.669.122.247 0 .469-.04.665-.122a1.38 1.38 0 0 0 .504-.35 1.59 1.59 0 0 0 .318-.56c.075-.222.113-.472.113-.75Zm5.856-.007v2.047a2.71 2.71 0 0 1-.823.417c-.289.086-.6.13-.93.13-.414 0-.788-.065-1.124-.193a2.533 2.533 0 0 1-.858-.536 2.36 2.36 0 0 1-.546-.819 2.748 2.748 0 0 1-.192-1.04c0-.38.062-.729.185-1.046a2.39 2.39 0 0 1 .525-.819 2.37 2.37 0 0 1 .83-.532 2.995 2.995 0 0 1 1.092-.189 3.06 3.06 0 0 1 1.071.186c.154.056.294.124.42.206.126.082.241.172.346.27l-.27.427a.264.264 0 0 1-.164.126c-.067.014-.14-.004-.22-.053l-.231-.133a1.474 1.474 0 0 0-.26-.115 1.89 1.89 0 0 0-.318-.08 2.314 2.314 0 0 0-.406-.032c-.25 0-.476.042-.679.126a1.44 1.44 0 0 0-.514.36 1.625 1.625 0 0 0-.33.564 2.231 2.231 0 0 0-.115.735c0 .289.041.548.123.777.084.226.2.418.35.577.151.156.334.277.546.36.212.082.449.123.71.123.187 0 .354-.02.5-.06.148-.04.291-.093.431-.16v-.917h-.637a.202.202 0 0 1-.143-.05.178.178 0 0 1-.05-.125v-.532h1.68Z" fill="#DBDBDB"/><path d="M.5 20.5a2 2 0 0 1 2-2h29a2 2 0 0 1 2 2v13a2 2 0 0 1-2 2h-29a2 2 0 0 1-2-2v-13Z" fill="url(#b)"/><path d="M8.991 23.47c0 .37-.062.711-.185 1.022-.124.31-.298.577-.522.801a2.334 2.334 0 0 1-.808.522 2.85 2.85 0 0 1-1.05.185H4.497v-5.06h1.929c.385 0 .735.062 1.05.188a2.311 2.311 0 0 1 1.33 1.32c.123.31.185.65.185 1.022Zm-.966 0c0-.278-.037-.527-.112-.746a1.497 1.497 0 0 0-.318-.56 1.36 1.36 0 0 0-.504-.353 1.714 1.714 0 0 0-.665-.123h-.984v3.563h.984c.247 0 .469-.04.665-.122a1.38 1.38 0 0 0 .504-.35c.14-.154.246-.341.318-.56.075-.222.112-.472.112-.75ZM10.662 26h-.945v-5.06h.945V26Zm5.2-2.537v2.047c-.256.19-.53.328-.822.417-.29.086-.6.13-.931.13-.413 0-.788-.065-1.124-.193a2.532 2.532 0 0 1-.857-.536 2.357 2.357 0 0 1-.546-.819 2.746 2.746 0 0 1-.193-1.04c0-.38.062-.729.186-1.046.123-.317.299-.59.525-.819.229-.229.505-.406.83-.532a2.995 2.995 0 0 1 1.091-.189 3.044 3.044 0 0 1 1.071.186c.154.056.294.124.42.206.126.082.242.172.347.27l-.27.427a.264.264 0 0 1-.164.126c-.068.014-.141-.004-.22-.053l-.232-.133a1.477 1.477 0 0 0-.259-.115 2.04 2.04 0 0 0-.318-.08 2.315 2.315 0 0 0-.406-.032c-.25 0-.476.042-.68.126-.2.084-.371.204-.514.36a1.624 1.624 0 0 0-.329.564 2.206 2.206 0 0 0-.115.735c0 .289.04.548.122.777.084.226.201.418.35.577.152.156.334.277.546.36.213.082.45.123.71.123.188 0 .354-.02.501-.06.147-.04.29-.093.43-.16v-.917h-.636a.202.202 0 0 1-.144-.05.178.178 0 0 1-.049-.125v-.532h1.68ZM17.61 26h-.945v-5.06h.945V26Zm4.563-4.287h-1.526V26h-.942v-4.287H18.18v-.774h3.994v.774Zm2.739 2.376-.616-1.683a3.621 3.621 0 0 1-.095-.266 8.506 8.506 0 0 1-.098-.333c-.03.12-.062.231-.094.336a4.34 4.34 0 0 1-.095.27l-.612 1.676h1.61ZM26.574 26h-.728a.317.317 0 0 1-.2-.06.394.394 0 0 1-.115-.153l-.378-1.033h-2.096l-.378 1.033a.336.336 0 0 1-.109.147.303.303 0 0 1-.2.066h-.734l1.991-5.06h.96L26.573 26Zm3.383-.777V26h-2.964v-5.06h.942v4.283h2.023Z" fill="#DBDBDB"/><path d="m5.847 32.09-.616-1.684a3.678 3.678 0 0 1-.094-.266 8.665 8.665 0 0 1-.098-.333c-.03.12-.062.231-.095.336a4.3 4.3 0 0 1-.094.27l-.613 1.676h1.61ZM7.51 34h-.728a.317.317 0 0 1-.2-.06.395.395 0 0 1-.115-.153l-.378-1.033H3.992l-.378 1.033a.335.335 0 0 1-.108.147.303.303 0 0 1-.2.066h-.735l1.992-5.06h.959L7.51 34Zm4.685-5.06V34h-.483a.457.457 0 0 1-.189-.035.47.47 0 0 1-.143-.126l-2.643-3.374c.014.154.021.296.021.427V34h-.83v-5.06h.494c.04 0 .074.001.102.006.03.002.056.01.077.021.023.01.045.025.066.046a.6.6 0 0 1 .07.077l2.653 3.388a9.216 9.216 0 0 1-.017-.242 3.83 3.83 0 0 1-.007-.22v-3.077h.83Zm3.696 3.15-.616-1.684a3.621 3.621 0 0 1-.094-.266 8.506 8.506 0 0 1-.098-.333c-.03.12-.062.231-.095.336a4.34 4.34 0 0 1-.094.27l-.613 1.676h1.61ZM17.554 34h-.728a.317.317 0 0 1-.2-.06.394.394 0 0 1-.115-.153l-.378-1.033h-2.097l-.378 1.033a.336.336 0 0 1-.108.147.303.303 0 0 1-.2.066h-.735l1.992-5.06h.959L17.554 34Zm3.383-.777V34h-2.965v-5.06h.942v4.283h2.023Zm5.216-1.753c0 .37-.062.715-.185 1.032a2.401 2.401 0 0 1-.518.82 2.383 2.383 0 0 1-.809.542 2.76 2.76 0 0 1-1.05.192 2.75 2.75 0 0 1-1.047-.192 2.42 2.42 0 0 1-.811-.543 2.446 2.446 0 0 1-.522-.819 2.818 2.818 0 0 1-.185-1.032c0-.371.061-.714.185-1.03.124-.317.298-.59.522-.822.226-.23.497-.41.811-.539.316-.13.664-.196 1.047-.196.257 0 .498.03.724.091.227.058.434.142.623.252a2.2 2.2 0 0 1 .508.396c.152.154.28.326.385.518.105.19.184.399.238.623.056.224.084.46.084.707Zm-.962 0c0-.278-.038-.527-.113-.746a1.6 1.6 0 0 0-.318-.563 1.362 1.362 0 0 0-.504-.354 1.714 1.714 0 0 0-.665-.122c-.247 0-.47.04-.669.122a1.4 1.4 0 0 0-.503.354 1.6 1.6 0 0 0-.319.563c-.075.22-.112.468-.112.746 0 .277.037.527.112.749.075.219.18.406.319.56.14.151.308.268.503.35.199.081.422.122.669.122.247 0 .469-.04.665-.122a1.38 1.38 0 0 0 .504-.35 1.59 1.59 0 0 0 .318-.56c.075-.222.113-.472.113-.75Zm5.856-.007v2.047a2.71 2.71 0 0 1-.823.417c-.289.086-.6.13-.93.13-.414 0-.788-.065-1.124-.193a2.533 2.533 0 0 1-.858-.536 2.36 2.36 0 0 1-.546-.819 2.748 2.748 0 0 1-.192-1.04c0-.38.062-.729.185-1.046a2.39 2.39 0 0 1 .525-.819 2.37 2.37 0 0 1 .83-.532 2.995 2.995 0 0 1 1.092-.189 3.06 3.06 0 0 1 1.071.186c.154.056.294.124.42.206.126.082.241.172.346.27l-.27.427a.264.264 0 0 1-.164.126c-.067.014-.14-.004-.22-.053l-.231-.133a1.474 1.474 0 0 0-.26-.115 1.89 1.89 0 0 0-.318-.08 2.314 2.314 0 0 0-.406-.032c-.25 0-.476.042-.679.126a1.44 1.44 0 0 0-.514.36 1.625 1.625 0 0 0-.33.564 2.231 2.231 0 0 0-.115.735c0 .289.041.548.123.777.084.226.2.418.35.577.151.156.334.277.546.36.212.082.449.123.71.123.187 0 .354-.02.5-.06.148-.04.291-.093.431-.16v-.917h-.637a.202.202 0 0 1-.143-.05.178.178 0 0 1-.05-.125v-.532h1.68Z" fill="#FF9000"/><defs><linearGradient id="a" x1="17" y1=".5" x2="17" y2="17.5" gradientUnits="userSpaceOnUse"><stop/><stop offset="1" stop-opacity=".25"/></linearGradient><linearGradient id="b" x1="17" y1="18.5" x2="17" y2="35.5" gradientUnits="userSpaceOnUse"><stop/><stop offset="1" stop-opacity=".25"/></linearGradient></defs></svg>