<svg width="90" height="28" fill="none" xmlns="http://www.w3.org/2000/svg"><path d="M.5 3.5a3 3 0 0 1 3-3h83a3 3 0 0 1 3 3v7a3 3 0 0 1-3 3h-83a3 3 0 0 1-3-3v-7Z" fill="url(#a)"/><path d="M8.789 5.072v1.604h2.024v.828H8.789V9.14h2.568V10H7.709V4.216h3.648v.856H8.789ZM12.873 6.4c.082-.083.169-.159.26-.228a1.594 1.594 0 0 1 .624-.296c.117-.03.245-.044.384-.044.224 0 .422.039.596.116.173.075.317.181.432.32.117.136.205.3.264.492.061.19.092.399.092.628V10h-.988V7.388c0-.25-.058-.444-.172-.58-.115-.139-.29-.208-.524-.208a1.03 1.03 0 0 0-.48.116c-.15.077-.291.183-.424.316V10h-.988V5.896h.604c.128 0 .212.06.252.18l.068.324Zm7.078-.504L18.323 10h-.896l-1.628-4.104h.816c.074 0 .136.017.184.052.05.035.084.079.1.132l.791 2.192a5.875 5.875 0 0 1 .197.744 9.26 9.26 0 0 1 .087-.368c.032-.123.071-.248.116-.376l.808-2.192a.27.27 0 0 1 .1-.132.286.286 0 0 1 .172-.052h.78Zm2.925 1.58a1.14 1.14 0 0 0-.056-.36.833.833 0 0 0-.16-.3.73.73 0 0 0-.276-.2A.905.905 0 0 0 22 6.54c-.285 0-.51.081-.676.244-.163.163-.267.393-.312.692h1.864Zm-1.884.596c.016.21.053.393.112.548.059.152.136.279.232.38.096.099.21.173.34.224.133.048.28.072.44.072.16 0 .297-.019.412-.056a1.84 1.84 0 0 0 .304-.124c.088-.045.164-.087.228-.124a.394.394 0 0 1 .192-.056c.083 0 .144.03.184.092l.284.36a1.69 1.69 0 0 1-.368.324 2.188 2.188 0 0 1-.88.316c-.152.021-.3.032-.444.032-.285 0-.55-.047-.796-.14a1.818 1.818 0 0 1-.64-.42 1.996 1.996 0 0 1-.428-.688 2.679 2.679 0 0 1-.156-.952c0-.28.045-.543.136-.788a1.83 1.83 0 0 1 1.008-1.08c.245-.107.521-.16.828-.16.259 0 .497.041.716.124.219.083.407.204.564.364.157.157.28.352.368.584.09.23.136.492.136.788 0 .15-.016.25-.048.304-.032.05-.093.076-.184.076h-2.54Zm4.393-4.016V10h-.988V4.056h.989Zm2.68 1.776c.305 0 .58.05.829.148a1.794 1.794 0 0 1 1.052 1.084c.096.261.144.553.144.876 0 .325-.048.619-.144.88a1.87 1.87 0 0 1-.412.668c-.176.184-.39.325-.64.424a2.222 2.222 0 0 1-.828.148c-.307 0-.585-.05-.836-.148a1.808 1.808 0 0 1-.644-.424 1.949 1.949 0 0 1-.412-.668 2.538 2.538 0 0 1-.144-.88c0-.323.048-.615.144-.876a1.91 1.91 0 0 1 .412-.664c.179-.181.393-.321.644-.42.25-.099.53-.148.836-.148Zm0 3.468c.342 0 .594-.115.757-.344.165-.23.248-.565.248-1.008 0-.443-.083-.78-.248-1.012-.163-.232-.415-.348-.756-.348-.347 0-.604.117-.772.352-.165.232-.248.568-.248 1.008 0 .44.083.776.248 1.008.168.23.425.344.772.344Zm3.647-.364a.977.977 0 0 0 .364.288c.133.056.277.084.432.084a.945.945 0 0 0 .404-.084.777.777 0 0 0 .304-.256c.085-.115.15-.259.196-.432.045-.176.068-.383.068-.62 0-.24-.02-.443-.06-.608a1.155 1.155 0 0 0-.164-.408.652.652 0 0 0-.264-.228.804.804 0 0 0-.348-.072.986.986 0 0 0-.524.132c-.144.085-.28.207-.408.364v1.84Zm-.052-2.48a2.14 2.14 0 0 1 .572-.46 1.54 1.54 0 0 1 .752-.176 1.333 1.333 0 0 1 1.092.548c.136.176.24.395.312.656.074.259.112.556.112.892 0 .307-.042.59-.124.852a2.065 2.065 0 0 1-.356.68 1.632 1.632 0 0 1-.556.452c-.216.107-.459.16-.728.16-.23 0-.426-.035-.588-.104a1.467 1.467 0 0 1-.436-.296v1.68h-.988V5.896h.604c.128 0 .212.06.252.18l.08.38Zm6.134 1.02a1.13 1.13 0 0 0-.055-.36.832.832 0 0 0-.16-.3.73.73 0 0 0-.276-.2.905.905 0 0 0-.384-.076c-.286 0-.511.081-.676.244-.163.163-.267.393-.313.692h1.864Zm-1.883.596c.015.21.053.393.111.548.06.152.136.279.233.38a.934.934 0 0 0 .34.224c.133.048.28.072.44.072.16 0 .297-.019.412-.056.117-.037.218-.079.303-.124.089-.045.164-.087.228-.124a.394.394 0 0 1 .192-.056c.083 0 .145.03.184.092l.285.36a1.69 1.69 0 0 1-.369.324 2.186 2.186 0 0 1-.88.316c-.151.021-.3.032-.444.032-.285 0-.55-.047-.795-.14a1.818 1.818 0 0 1-.64-.42 1.996 1.996 0 0 1-.428-.688 2.679 2.679 0 0 1-.157-.952c0-.28.046-.543.136-.788a1.83 1.83 0 0 1 1.009-1.08c.245-.107.52-.16.828-.16.258 0 .497.041.715.124.22.083.407.204.565.364.157.157.28.352.367.584.091.23.136.492.136.788 0 .15-.016.25-.047.304-.032.05-.094.076-.184.076h-2.54Z" fill="#FF9000"/><path opacity=".75" d="M44.5 2v10h1V2h-1Z" fill="#DBDBDB"/><path d="M63.605 9.112V10h-3.388V4.216h1.076v4.896h2.312Zm1.728-4.04v1.712h2.168v.86h-2.168V10h-1.08V4.216h3.648v.856h-2.568Zm8.793 2.036c0 .424-.071.817-.212 1.18a2.75 2.75 0 0 1-.592.936c-.256.264-.564.47-.924.62-.36.147-.76.22-1.2.22-.438 0-.836-.073-1.196-.22a2.77 2.77 0 0 1-.928-.62 2.796 2.796 0 0 1-.596-.936 3.222 3.222 0 0 1-.212-1.18c0-.424.07-.816.212-1.176.141-.363.34-.676.596-.94.258-.264.568-.47.928-.616.36-.15.758-.224 1.196-.224.293 0 .569.035.828.104.258.067.496.163.712.288.216.123.409.273.58.452.173.176.32.373.44.592.12.219.21.456.272.712.064.256.096.525.096.808Zm-1.1 0c0-.317-.043-.601-.128-.852a1.826 1.826 0 0 0-.364-.644 1.554 1.554 0 0 0-.576-.404 1.96 1.96 0 0 0-.76-.14 1.99 1.99 0 0 0-.764.14 1.6 1.6 0 0 0-.576.404 1.83 1.83 0 0 0-.364.644c-.086.25-.128.535-.128.852 0 .317.042.603.128.856.085.25.206.464.364.64.16.173.352.307.576.4.226.093.481.14.764.14.282 0 .536-.047.76-.14.226-.093.418-.227.576-.4.157-.176.278-.39.364-.64.085-.253.128-.539.128-.856Z" fill="#DBDBDB"/><path d="M.5 17.5a3 3 0 0 1 3-3h83a3 3 0 0 1 3 3v7a3 3 0 0 1-3 3h-83a3 3 0 0 1-3-3v-7Z" fill="url(#b)"/><path d="M8.789 19.072v1.604h2.024v.828H8.789v1.636h2.568V24H7.709v-5.784h3.648v.856H8.789Zm4.084 1.328c.082-.083.169-.159.26-.228a1.594 1.594 0 0 1 .624-.296c.117-.03.245-.044.384-.044.224 0 .422.039.596.116.173.075.317.181.432.32.117.136.205.3.264.492.061.19.092.399.092.628V24h-.988v-2.612c0-.25-.058-.444-.172-.58-.115-.139-.29-.208-.524-.208a1.03 1.03 0 0 0-.48.116c-.15.077-.291.183-.424.316V24h-.988v-4.104h.604c.128 0 .212.06.252.18l.068.324Zm7.078-.504L18.323 24h-.896l-1.628-4.104h.816c.074 0 .136.017.184.052.05.035.084.079.1.132l.791 2.192a5.87 5.87 0 0 1 .197.744 9.26 9.26 0 0 1 .087-.368 4.63 4.63 0 0 1 .116-.376l.808-2.192a.27.27 0 0 1 .1-.132.286.286 0 0 1 .172-.052h.78Zm2.925 1.58a1.14 1.14 0 0 0-.056-.36.833.833 0 0 0-.16-.3.731.731 0 0 0-.276-.2.905.905 0 0 0-.384-.076c-.285 0-.51.081-.676.244-.163.163-.267.393-.312.692h1.864Zm-1.884.596c.016.21.053.393.112.548.059.152.136.279.232.38.096.099.21.173.34.224.133.048.28.072.44.072.16 0 .297-.019.412-.056a1.84 1.84 0 0 0 .304-.124c.088-.045.164-.087.228-.124a.394.394 0 0 1 .192-.056c.083 0 .144.03.184.092l.284.36a1.69 1.69 0 0 1-.368.324 2.188 2.188 0 0 1-.88.316c-.152.021-.3.032-.444.032a2.22 2.22 0 0 1-.796-.14 1.818 1.818 0 0 1-.64-.42 1.996 1.996 0 0 1-.428-.688 2.68 2.68 0 0 1-.156-.952c0-.28.045-.543.136-.788a1.83 1.83 0 0 1 1.008-1.08c.245-.107.521-.16.828-.16.259 0 .497.041.716.124.219.083.407.204.564.364.157.157.28.352.368.584.09.23.136.492.136.788 0 .15-.016.25-.048.304-.032.05-.093.076-.184.076h-2.54Zm4.393-4.016V24h-.988v-5.944h.989Zm2.68 1.776c.305 0 .58.05.829.148a1.795 1.795 0 0 1 1.052 1.084c.096.261.144.553.144.876 0 .325-.048.619-.144.88a1.87 1.87 0 0 1-.412.668 1.77 1.77 0 0 1-.64.424 2.221 2.221 0 0 1-.828.148c-.307 0-.585-.05-.836-.148a1.808 1.808 0 0 1-.644-.424 1.95 1.95 0 0 1-.412-.668 2.538 2.538 0 0 1-.144-.88c0-.323.048-.615.144-.876a1.91 1.91 0 0 1 .412-.664c.179-.181.393-.321.644-.42.25-.099.53-.148.836-.148Zm0 3.468c.342 0 .594-.115.757-.344.165-.23.248-.565.248-1.008 0-.443-.083-.78-.248-1.012-.163-.232-.415-.348-.756-.348-.347 0-.604.117-.772.352-.165.232-.248.568-.248 1.008 0 .44.083.776.248 1.008.168.23.425.344.772.344Zm3.647-.364a.977.977 0 0 0 .364.288c.133.056.277.084.432.084a.945.945 0 0 0 .404-.084.777.777 0 0 0 .304-.256c.085-.115.15-.259.196-.432.045-.176.068-.383.068-.62 0-.24-.02-.443-.06-.608a1.155 1.155 0 0 0-.164-.408.652.652 0 0 0-.264-.228.804.804 0 0 0-.348-.072.986.986 0 0 0-.524.132c-.144.085-.28.207-.408.364v1.84Zm-.052-2.48a2.14 2.14 0 0 1 .572-.46 1.54 1.54 0 0 1 .752-.176c.224 0 .428.047.612.14.186.093.346.23.48.408.136.176.24.395.312.656.074.259.112.556.112.892 0 .307-.042.59-.124.852a2.065 2.065 0 0 1-.356.68 1.632 1.632 0 0 1-.556.452c-.216.107-.459.16-.728.16-.23 0-.426-.035-.588-.104a1.468 1.468 0 0 1-.436-.296v1.68h-.988v-5.444h.604c.128 0 .212.06.252.18l.08.38Zm6.134 1.02a1.13 1.13 0 0 0-.055-.36.831.831 0 0 0-.16-.3.731.731 0 0 0-.276-.2.905.905 0 0 0-.384-.076c-.286 0-.511.081-.676.244-.163.163-.267.393-.313.692h1.864Zm-1.883.596c.015.21.053.393.111.548.06.152.136.279.233.38a.934.934 0 0 0 .34.224c.133.048.28.072.44.072.16 0 .297-.019.412-.056.117-.037.218-.079.303-.124.089-.045.164-.087.228-.124a.394.394 0 0 1 .192-.056c.083 0 .145.03.184.092l.285.36a1.69 1.69 0 0 1-.369.324 2.186 2.186 0 0 1-.88.316c-.151.021-.3.032-.444.032-.285 0-.55-.047-.795-.14a1.818 1.818 0 0 1-.64-.42 1.996 1.996 0 0 1-.428-.688 2.68 2.68 0 0 1-.157-.952c0-.28.046-.543.136-.788a1.83 1.83 0 0 1 1.009-1.08c.245-.107.52-.16.828-.16.258 0 .497.041.715.124.22.083.407.204.565.364.157.157.28.352.367.584.091.23.136.492.136.788 0 .15-.016.25-.047.304-.032.05-.094.076-.184.076h-2.54Z" fill="#DBDBDB"/><path opacity=".75" d="M44.5 16v10h1V16h-1Z" fill="#DBDBDB"/><path d="M63.605 23.112V24h-3.388v-5.784h1.076v4.896h2.312Zm1.728-4.04v1.712h2.168v.86h-2.168V24h-1.08v-5.784h3.648v.856h-2.568Zm8.793 2.036c0 .424-.071.817-.212 1.18a2.75 2.75 0 0 1-.592.936c-.256.264-.564.47-.924.62-.36.147-.76.22-1.2.22-.438 0-.836-.073-1.196-.22a2.77 2.77 0 0 1-.928-.62 2.796 2.796 0 0 1-.596-.936 3.223 3.223 0 0 1-.212-1.18c0-.424.07-.816.212-1.176.141-.363.34-.676.596-.94.258-.264.568-.47.928-.616.36-.15.758-.224 1.196-.224.293 0 .569.035.828.104.258.067.496.163.712.288.216.123.409.273.58.452.173.176.32.373.44.592.12.219.21.456.272.712.064.256.096.525.096.808Zm-1.1 0c0-.317-.043-.601-.128-.852a1.827 1.827 0 0 0-.364-.644 1.554 1.554 0 0 0-.576-.404 1.96 1.96 0 0 0-.76-.14c-.283 0-.538.047-.764.14a1.6 1.6 0 0 0-.576.404 1.83 1.83 0 0 0-.364.644c-.086.25-.128.535-.128.852 0 .317.042.603.128.856.085.25.206.464.364.64.16.173.352.307.576.4.226.093.481.14.764.14.282 0 .536-.047.76-.14.226-.093.418-.227.576-.4.157-.176.278-.39.364-.64.085-.253.128-.539.128-.856Z" fill="#FF9000"/><defs><linearGradient id="a" x1="45" y1=".5" x2="45" y2="13.5" gradientUnits="userSpaceOnUse"><stop/><stop offset="1" stop-opacity=".25"/></linearGradient><linearGradient id="b" x1="45" y1="14.5" x2="45" y2="27.5" gradientUnits="userSpaceOnUse"><stop/><stop offset="1" stop-opacity=".25"/></linearGradient></defs></svg>