<svg width="134" height="208" fill="none" xmlns="http://www.w3.org/2000/svg"><path d="M33.5 200h-30v6h30v-6Z" fill="url(#a)"/><path d="M32.5 200h-28a1 1 0 0 0-1 1v4a1 1 0 0 0 1 1h28a1 1 0 0 0 1-1v-4a1 1 0 0 0-1-1Z" stroke="url(#b)"/><path d="M11.874 200.439v5.061h-.483a.46.46 0 0 1-.189-.035.476.476 0 0 1-.143-.126l-2.643-3.374c.014.154.021.296.021.427v3.108h-.83v-5.061h.494c.04 0 .074.002.102.007.03.002.056.009.077.021a.193.193 0 0 1 .066.045.677.677 0 0 1 .07.077l2.653 3.388a8.654 8.654 0 0 1-.017-.241 3.742 3.742 0 0 1-.007-.221v-3.076h.83Zm5.849 2.53c0 .371-.062.716-.186 1.033a2.401 2.401 0 0 1-.518.819 2.372 2.372 0 0 1-.808.542 2.746 2.746 0 0 1-1.05.193c-.383 0-.732-.064-1.047-.193a2.41 2.41 0 0 1-.812-.542 2.446 2.446 0 0 1-.521-.819 2.822 2.822 0 0 1-.186-1.033c0-.371.062-.714.186-1.029a2.44 2.44 0 0 1 .521-.822 2.38 2.38 0 0 1 .812-.539 2.7 2.7 0 0 1 1.047-.196c.257 0 .498.03.724.091.227.058.434.142.623.252.19.107.359.239.508.395.152.154.28.327.385.518.105.192.184.399.238.623.056.224.084.46.084.707Zm-.963 0c0-.277-.037-.526-.112-.745a1.597 1.597 0 0 0-.318-.564 1.362 1.362 0 0 0-.504-.353 1.709 1.709 0 0 0-.665-.123c-.247 0-.47.041-.669.123a1.402 1.402 0 0 0-.504.353 1.6 1.6 0 0 0-.318.564 2.307 2.307 0 0 0-.112.745c0 .278.037.528.112.749.075.22.18.406.318.56.14.152.308.269.504.35.199.082.422.123.669.123.247 0 .469-.041.665-.123.198-.081.366-.198.504-.35.138-.154.244-.34.318-.56.075-.221.112-.471.112-.749Zm4.227-1.781v1.498h1.897v.752h-1.897v2.062h-.945v-5.061h3.192v.749h-2.247Zm8.403-.749v5.061h-.83v-3.269c0-.131.007-.272.021-.424l-1.53 2.874a.352.352 0 0 1-.332.206h-.133a.353.353 0 0 1-.332-.206l-1.547-2.884a6.24 6.24 0 0 1 .024.434v3.269h-.83v-5.061h.711c.042 0 .078.001.109.003.03.003.057.009.08.018a.157.157 0 0 1 .067.045c.02.021.04.049.06.084l1.515 2.811a5.675 5.675 0 0 1 .21.476 4.78 4.78 0 0 1 .101-.249 3.33 3.33 0 0 1 .112-.234l1.495-2.804a.354.354 0 0 1 .06-.084.193.193 0 0 1 .066-.045.361.361 0 0 1 .084-.018c.03-.002.066-.003.108-.003h.71Z" fill="#DBDBDB"/><path d="M65.512 200h-30v6h30v-6Z" fill="url(#c)"/><path d="M64.512 200h-28a1 1 0 0 0-1 1v4a1 1 0 0 0 1 1h28a1 1 0 0 0 1-1v-4a1 1 0 0 0-1-1Z" stroke="url(#d)"/><path d="M47.541 204.695a.3.3 0 0 1 .22.08.269.269 0 0 1 .084.207v.518h-3.471v-.287a.487.487 0 0 1 .154-.357l1.536-1.54c.128-.131.243-.256.343-.375a2.33 2.33 0 0 0 .256-.353c.067-.117.119-.235.154-.354.037-.121.056-.248.056-.381a.889.889 0 0 0-.053-.319.626.626 0 0 0-.15-.234.577.577 0 0 0-.232-.14.859.859 0 0 0-.3-.049.89.89 0 0 0-.288.045.726.726 0 0 0-.23.123.742.742 0 0 0-.172.182.797.797 0 0 0-.105.231c-.04.107-.091.178-.154.213s-.154.044-.273.025l-.455-.081a1.87 1.87 0 0 1 .203-.637 1.513 1.513 0 0 1 .892-.735c.197-.063.407-.094.63-.094.234 0 .447.035.641.105a1.326 1.326 0 0 1 .819.745c.077.178.115.375.115.592 0 .187-.028.359-.084.518a2.05 2.05 0 0 1-.22.455 2.92 2.92 0 0 1-.322.42 21.33 21.33 0 0 1-.389.413l-1.14 1.165a2.461 2.461 0 0 1 .636-.101h1.299Zm8.936.157v.648h-2.8v-.648h1.026v-2.95a6.4 6.4 0 0 1 .01-.361l-.728.609a.311.311 0 0 1-.126.063.32.32 0 0 1-.21-.035.212.212 0 0 1-.063-.059l-.273-.375 1.543-1.312h.711v4.42h.91ZM52.387 203l-2.813 2.143v-4.286L52.387 203Z" fill="#DBDBDB"/><path d="M97.512 200h-30v6h30v-6Z" fill="url(#e)"/><path d="M96.512 200h-28a1 1 0 0 0-1 1v4a1 1 0 0 0 1 1h28a1 1 0 0 0 1-1v-4a1 1 0 0 0-1-1Z" stroke="url(#f)"/><path d="M70.515 201.849a1.87 1.87 0 0 1 .203-.637 1.512 1.512 0 0 1 .893-.735c.196-.063.406-.094.63-.094.233 0 .443.034.63.101.189.066.35.158.483.277a1.226 1.226 0 0 1 .413.927c0 .161-.019.304-.056.427a.92.92 0 0 1-.406.55c-.1.063-.214.115-.34.157.303.096.53.242.68.438.148.196.223.442.223.738a1.453 1.453 0 0 1-.518 1.159c-.158.131-.343.23-.553.297a2.113 2.113 0 0 1-.661.102 2.24 2.24 0 0 1-.665-.088 1.427 1.427 0 0 1-.494-.259 1.554 1.554 0 0 1-.357-.42 2.818 2.818 0 0 1-.252-.574l.382-.157a.444.444 0 0 1 .28-.032.271.271 0 0 1 .192.14 3.4 3.4 0 0 0 .137.242.92.92 0 0 0 .427.364.94.94 0 0 0 .34.056.972.972 0 0 0 .384-.07c.11-.049.2-.112.273-.189a.781.781 0 0 0 .22-.543c0-.121-.012-.231-.038-.329a.49.49 0 0 0-.16-.255.88.88 0 0 0-.354-.165 2.553 2.553 0 0 0-.613-.059v-.616c.213-.002.389-.022.529-.06a.884.884 0 0 0 .332-.154.531.531 0 0 0 .175-.241.927.927 0 0 0 .05-.308c0-.238-.067-.419-.2-.543-.133-.123-.31-.185-.532-.185a.858.858 0 0 0-.518.168.74.74 0 0 0-.172.182.797.797 0 0 0-.105.231c-.04.107-.092.178-.157.213-.063.035-.153.044-.27.025l-.455-.081Zm13.4 2.846a.3.3 0 0 1 .22.08.269.269 0 0 1 .084.207v.518h-3.472v-.287a.487.487 0 0 1 .154-.357l1.537-1.54c.128-.131.242-.256.343-.375a2.33 2.33 0 0 0 .255-.353c.068-.117.12-.235.154-.354.038-.121.056-.248.056-.381a.889.889 0 0 0-.052-.319.626.626 0 0 0-.15-.234.577.577 0 0 0-.232-.14.859.859 0 0 0-.3-.049.89.89 0 0 0-.288.045.726.726 0 0 0-.23.123.742.742 0 0 0-.172.182.797.797 0 0 0-.105.231c-.04.107-.091.178-.154.213s-.154.044-.273.025l-.455-.081a1.87 1.87 0 0 1 .203-.637 1.513 1.513 0 0 1 .892-.735c.196-.063.406-.094.63-.094.234 0 .447.035.64.105a1.326 1.326 0 0 1 .819.745c.078.178.116.375.116.592 0 .187-.028.359-.084.518a2.05 2.05 0 0 1-.22.455 2.92 2.92 0 0 1-.322.42 21.33 21.33 0 0 1-.389.413l-1.14 1.165a2.461 2.461 0 0 1 .636-.101h1.299Zm10.533.157v.648h-2.8v-.648h1.025v-2.95a6.4 6.4 0 0 1 .01-.361l-.727.609a.311.311 0 0 1-.126.063.32.32 0 0 1-.21-.035.212.212 0 0 1-.063-.059l-.273-.375 1.543-1.312h.71v4.42h.91ZM78.762 203l-2.813 2.143v-4.286L78.762 203Zm10.312 0-2.812 2.143v-4.286L89.074 203Z" fill="#DBDBDB"/><path d="M128.512 200h-28a1 1 0 0 0-1 1v4a1 1 0 0 0 1 1h28a1 1 0 0 0 1-1v-4a1 1 0 0 0-1-1Z" fill="#FF9000" stroke="#FF9000"/><path d="M105.571 204.695a.3.3 0 0 1 .22.08.269.269 0 0 1 .084.207v.518h-3.472v-.287a.487.487 0 0 1 .154-.357l1.537-1.54c.128-.131.242-.256.343-.375.102-.119.187-.236.255-.353.068-.117.119-.235.154-.354.037-.121.056-.248.056-.381a.89.89 0 0 0-.052-.319.63.63 0 0 0-.151-.234.577.577 0 0 0-.231-.14.86.86 0 0 0-.301-.049.89.89 0 0 0-.287.045.733.733 0 0 0-.231.123.782.782 0 0 0-.276.413c-.04.107-.091.178-.154.213s-.154.044-.273.025l-.455-.081a1.85 1.85 0 0 1 .203-.637 1.512 1.512 0 0 1 .892-.735c.196-.063.406-.094.63-.094.233 0 .447.035.641.105a1.335 1.335 0 0 1 .819.745c.077.178.115.375.115.592 0 .187-.028.359-.084.518-.054.159-.127.31-.22.455a2.97 2.97 0 0 1-.322.42c-.124.135-.254.273-.389.413l-1.141 1.165a2.454 2.454 0 0 1 .637-.101h1.299Zm10.533.157v.648h-2.8v-.648h1.025v-2.95c0-.117.004-.237.011-.361l-.728.609a.311.311 0 0 1-.126.063.323.323 0 0 1-.116 0 .286.286 0 0 1-.094-.035.212.212 0 0 1-.063-.059l-.273-.375 1.543-1.312h.711v4.42h.91Zm7.099-3.003a1.87 1.87 0 0 1 .203-.637 1.53 1.53 0 0 1 .375-.458 1.54 1.54 0 0 1 .518-.277c.196-.063.406-.094.63-.094.233 0 .443.034.63.101.189.066.35.158.483.277a1.216 1.216 0 0 1 .413.927c0 .161-.019.304-.056.427a.93.93 0 0 1-.406.55c-.1.063-.214.115-.34.157.304.096.53.242.679.438.15.196.224.442.224.738 0 .252-.046.475-.14.669a1.443 1.443 0 0 1-.378.49c-.158.131-.343.23-.553.297a2.108 2.108 0 0 1-.661.102c-.254 0-.476-.029-.665-.088a1.43 1.43 0 0 1-.494-.259 1.554 1.554 0 0 1-.357-.42 2.818 2.818 0 0 1-.252-.574l.382-.157a.444.444 0 0 1 .28-.032.268.268 0 0 1 .192.14c.042.082.088.163.137.242a.927.927 0 0 0 .427.364.94.94 0 0 0 .339.056.97.97 0 0 0 .385-.07.83.83 0 0 0 .438-.445.787.787 0 0 0 .056-.287c0-.121-.013-.231-.039-.329a.484.484 0 0 0-.161-.255.873.873 0 0 0-.353-.165 2.557 2.557 0 0 0-.613-.059v-.616c.213-.002.389-.022.529-.06a.877.877 0 0 0 .332-.154.526.526 0 0 0 .175-.241.917.917 0 0 0 .049-.308c0-.238-.066-.419-.199-.543-.133-.123-.31-.185-.532-.185a.863.863 0 0 0-.518.168.744.744 0 0 0-.172.182.836.836 0 0 0-.105.231c-.039.107-.092.178-.157.213-.063.035-.153.044-.27.025l-.455-.081ZM110.761 203l-2.812 2.143v-4.286l2.812 2.143Zm7.5 0 2.813-2.143v4.286L118.261 203Z" fill="#000"/><path fill-rule="evenodd" clip-rule="evenodd" d="M1 160v3h120v8h7v2l4-2.5-4-2.5v2h-5v-10H1Z" fill="#6E6E6E"/><path d="M23.5 182.5h-10v10h10v-10Zm32 0h-10v10h10v-10Zm32 0h-10v10h10v-10Z" stroke="#6E6E6E"/><path opacity=".5" d="M119 182.5h-10v10h10v-10Z" stroke="#6E6E6E"/><path d="M38 188h-1v9.012h46V193h-1v3H38v-8Z" fill="#6E6E6E"/><path d="M20.092 189.352V190h-2.8v-.648h1.026v-2.95a6.4 6.4 0 0 1 .01-.361l-.728.609a.311.311 0 0 1-.126.063.32.32 0 0 1-.21-.035.212.212 0 0 1-.063-.059l-.273-.375 1.544-1.312h.71v4.42h.91Zm31.811-.157a.3.3 0 0 1 .22.08.269.269 0 0 1 .085.207V190h-3.472v-.287a.488.488 0 0 1 .154-.357l1.536-1.54c.129-.131.243-.256.343-.375.103-.119.188-.236.256-.353.068-.117.119-.235.154-.354.037-.121.056-.248.056-.381a.889.889 0 0 0-.053-.319.625.625 0 0 0-.15-.234.577.577 0 0 0-.231-.14.858.858 0 0 0-.301-.049.89.89 0 0 0-.287.045.726.726 0 0 0-.231.123.743.743 0 0 0-.172.182.802.802 0 0 0-.105.231c-.04.107-.09.178-.154.213-.063.035-.154.044-.273.025l-.455-.081a1.87 1.87 0 0 1 .203-.637 1.515 1.515 0 0 1 .893-.735c.196-.063.406-.094.63-.094.233 0 .447.035.64.105a1.326 1.326 0 0 1 .819.745c.077.178.116.375.116.592 0 .187-.028.359-.084.518a2.04 2.04 0 0 1-.22.455 2.92 2.92 0 0 1-.323.42c-.123.135-.253.273-.388.413l-1.141 1.165a2.461 2.461 0 0 1 .637-.101h1.298Zm28.945-2.846a1.85 1.85 0 0 1 .203-.637 1.515 1.515 0 0 1 .892-.735c.196-.063.406-.094.63-.094.234 0 .444.034.63.101.19.066.35.158.483.277a1.224 1.224 0 0 1 .413.927c0 .161-.018.304-.056.427a.918.918 0 0 1-.406.55c-.1.063-.213.115-.34.157.304.096.53.242.68.438.15.196.224.442.224.738a1.45 1.45 0 0 1-.518 1.159c-.159.131-.343.23-.553.297a2.112 2.112 0 0 1-.662.102 2.24 2.24 0 0 1-.665-.088 1.427 1.427 0 0 1-.493-.259 1.554 1.554 0 0 1-.357-.42 2.818 2.818 0 0 1-.252-.574l.381-.157a.444.444 0 0 1 .28-.032.271.271 0 0 1 .193.14 3.4 3.4 0 0 0 .136.242.922.922 0 0 0 .427.364.94.94 0 0 0 .34.056.971.971 0 0 0 .385-.07c.11-.049.2-.112.273-.189a.78.78 0 0 0 .22-.543 1.3 1.3 0 0 0-.038-.329.49.49 0 0 0-.161-.255.88.88 0 0 0-.354-.165 2.552 2.552 0 0 0-.612-.059v-.616c.212-.002.388-.022.528-.06a.884.884 0 0 0 .333-.154.53.53 0 0 0 .175-.241.925.925 0 0 0 .049-.308c0-.238-.067-.419-.2-.543-.133-.123-.31-.185-.532-.185a.86.86 0 0 0-.518.168.743.743 0 0 0-.171.182.802.802 0 0 0-.105.231c-.04.107-.092.178-.158.213-.063.035-.153.044-.27.025l-.454-.081Zm35.285-1.41V190h-.483a.466.466 0 0 1-.189-.035.468.468 0 0 1-.143-.126l-2.643-3.374c.014.154.021.296.021.427V190h-.829v-5.061h.493c.04 0 .074.002.102.007.03.002.056.009.077.021a.194.194 0 0 1 .066.045.62.62 0 0 1 .07.077l2.653 3.388a6.823 6.823 0 0 1-.024-.462v-3.076h.829Z" fill="#fff"/><g opacity=".5"><path opacity=".5" fill-rule="evenodd" clip-rule="evenodd" d="m31.453 173.547 1.016-1.016 2.033 2.033 2.029-2.032 1.012 1.012-2.029 2.032 2.034 2.034-1.016 1.015-2.033-2.033-2.03 2.033-1.013-1.011 2.03-2.034-2.033-2.033Z" fill="#EEE"/><path opacity=".5" d="M34.5 180.5a5 5 0 1 0 0-10 5 5 0 0 0 0 10Z" stroke="#6E6E6E"/></g><g opacity=".5"><path opacity=".5" fill-rule="evenodd" clip-rule="evenodd" d="m63.453 173.547 1.016-1.016 2.033 2.033 2.029-2.032 1.012 1.012-2.029 2.032 2.034 2.034-1.016 1.015-2.033-2.033-2.03 2.033-1.013-1.011 2.03-2.034-2.033-2.033Z" fill="#EEE"/><path opacity=".5" d="M66.5 180.5a5 5 0 1 0 0-10 5 5 0 0 0 0 10Z" stroke="#6E6E6E"/></g><path fill-rule="evenodd" clip-rule="evenodd" d="M82 168h-2l2.5-4 2.5 4h-3Z" fill="#6E6E6E"/><path d="M82 182v-14.5h1V182h-1Z" fill="#6E6E6E"/><g opacity=".5" fill="#6E6E6E"><path opacity=".5" fill-rule="evenodd" clip-rule="evenodd" d="M113.5 168h-2l2.5-4 2.5 4h-3Z"/><path opacity=".5" d="M113.5 182v-14.5h1V182h-1Z"/></g><path fill-rule="evenodd" clip-rule="evenodd" d="M50 168h-2l2.5-4 2.5 4h-3Z" fill="#6E6E6E"/><path d="M50 182v-14.5h1V182h-1Z" fill="#6E6E6E"/><path fill-rule="evenodd" clip-rule="evenodd" d="M18 168h-2l2.5-4 2.5 4h-3Z" fill="#6E6E6E"/><path d="M18 182v-14.5h1V182h-1Z" fill="#6E6E6E"/><g opacity=".5" fill="#6E6E6E"><path opacity=".5" fill-rule="evenodd" clip-rule="evenodd" d="M34 168h-2l2.5-4 2.5 4h-3Z"/><path opacity=".5" d="M34 170v-2.5h1v2.5h-1Z"/></g><g opacity=".5" fill="#6E6E6E"><path opacity=".5" fill-rule="evenodd" clip-rule="evenodd" d="M66 168h-2l2.5-4 2.5 4h-3Z"/><path opacity=".5" d="M66 170v-2.5h1v2.5h-1Z"/></g><g opacity=".5" fill="#6E6E6E"><path opacity=".5" fill-rule="evenodd" clip-rule="evenodd" d="M45 176v2l-4-2.5 4-2.5v3Z"/><path opacity=".5" d="M50 176h-5.5v-1H50v1Z"/></g><g opacity=".5" fill="#6E6E6E"><path opacity=".5" fill-rule="evenodd" clip-rule="evenodd" d="M77 176v2l-4-2.5 4-2.5v3Z"/><path opacity=".5" d="M82 176h-5.5v-1H82v1Z"/></g><path fill-rule="evenodd" clip-rule="evenodd" d="M29 188v2l-4-2.5 4-2.5v3Z" fill="#6E6E6E"/><path d="M45 188H28.5v-1H45v1Z" fill="#6E6E6E"/><g opacity=".5" fill="#6E6E6E"><path opacity=".5" fill-rule="evenodd" clip-rule="evenodd" d="M24 175v-2l4 2.5-4 2.5v-3Z"/><path opacity=".5" d="M19 175h5.5v1H19v-1Z"/></g><g opacity=".5" fill="#6E6E6E"><path opacity=".5" fill-rule="evenodd" clip-rule="evenodd" d="M56 175v-2l4 2.5-4 2.5v-3Z"/><path opacity=".5" d="M51 175h5.5v1H51v-1Z"/></g><path d="M33.5 148h-30v6h30v-6Z" fill="url(#g)"/><path d="M32.5 148h-28a1 1 0 0 0-1 1v4a1 1 0 0 0 1 1h28a1 1 0 0 0 1-1v-4a1 1 0 0 0-1-1Z" stroke="url(#h)"/><path d="M11.874 148.439v5.061h-.483a.46.46 0 0 1-.189-.035.476.476 0 0 1-.143-.126l-2.643-3.374c.014.154.021.296.021.427v3.108h-.83v-5.061h.494c.04 0 .074.002.102.007.03.002.056.009.077.021a.193.193 0 0 1 .066.045.677.677 0 0 1 .07.077l2.653 3.388a8.654 8.654 0 0 1-.017-.241 3.742 3.742 0 0 1-.007-.221v-3.076h.83Zm5.849 2.53c0 .371-.062.716-.186 1.033a2.401 2.401 0 0 1-.518.819 2.372 2.372 0 0 1-.808.542 2.746 2.746 0 0 1-1.05.193c-.383 0-.732-.064-1.047-.193a2.41 2.41 0 0 1-.812-.542 2.446 2.446 0 0 1-.521-.819 2.822 2.822 0 0 1-.186-1.033c0-.371.062-.714.186-1.029a2.44 2.44 0 0 1 .521-.822 2.38 2.38 0 0 1 .812-.539 2.7 2.7 0 0 1 1.047-.196c.257 0 .498.03.724.091.227.058.434.142.623.252.19.107.359.239.508.395.152.154.28.327.385.518.105.192.184.399.238.623.056.224.084.46.084.707Zm-.963 0c0-.277-.037-.526-.112-.745a1.597 1.597 0 0 0-.318-.564 1.362 1.362 0 0 0-.504-.353 1.709 1.709 0 0 0-.665-.123c-.247 0-.47.041-.669.123a1.402 1.402 0 0 0-.504.353 1.6 1.6 0 0 0-.318.564 2.307 2.307 0 0 0-.112.745c0 .278.037.528.112.749.075.22.18.406.318.56.14.152.308.269.504.35.199.082.422.123.669.123.247 0 .469-.041.665-.123.198-.081.366-.198.504-.35.138-.154.244-.34.318-.56.075-.221.112-.471.112-.749Zm4.227-1.781v1.498h1.897v.752h-1.897v2.062h-.945v-5.061h3.192v.749h-2.247Zm8.403-.749v5.061h-.83v-3.269c0-.131.007-.272.021-.424l-1.53 2.874a.352.352 0 0 1-.332.206h-.133a.353.353 0 0 1-.332-.206l-1.547-2.884a6.24 6.24 0 0 1 .024.434v3.269h-.83v-5.061h.711c.042 0 .078.001.109.003.03.003.057.009.08.018a.157.157 0 0 1 .067.045c.02.021.04.049.06.084l1.515 2.811a5.675 5.675 0 0 1 .21.476 4.78 4.78 0 0 1 .101-.249 3.33 3.33 0 0 1 .112-.234l1.495-2.804a.354.354 0 0 1 .06-.084.193.193 0 0 1 .066-.045.361.361 0 0 1 .084-.018c.03-.002.066-.003.108-.003h.71Z" fill="#DBDBDB"/><path d="M65.512 148h-30v6h30v-6Z" fill="url(#i)"/><path d="M64.512 148h-28a1 1 0 0 0-1 1v4a1 1 0 0 0 1 1h28a1 1 0 0 0 1-1v-4a1 1 0 0 0-1-1Z" stroke="url(#j)"/><path d="M47.541 152.695a.3.3 0 0 1 .22.08.269.269 0 0 1 .084.207v.518h-3.471v-.287a.487.487 0 0 1 .154-.357l1.536-1.54c.128-.131.243-.256.343-.375a2.33 2.33 0 0 0 .256-.353c.067-.117.119-.235.154-.354.037-.121.056-.248.056-.381a.889.889 0 0 0-.053-.319.626.626 0 0 0-.15-.234.577.577 0 0 0-.232-.14.859.859 0 0 0-.3-.049.89.89 0 0 0-.288.045.726.726 0 0 0-.23.123.742.742 0 0 0-.172.182.797.797 0 0 0-.105.231c-.04.107-.091.178-.154.213s-.154.044-.273.025l-.455-.081a1.87 1.87 0 0 1 .203-.637 1.513 1.513 0 0 1 .892-.735c.197-.063.407-.094.63-.094.234 0 .447.035.641.105a1.326 1.326 0 0 1 .819.745c.077.178.115.375.115.592 0 .187-.028.359-.084.518a2.05 2.05 0 0 1-.22.455 2.92 2.92 0 0 1-.322.42 21.33 21.33 0 0 1-.389.413l-1.14 1.165a2.461 2.461 0 0 1 .636-.101h1.299Zm8.936.157v.648h-2.8v-.648h1.026v-2.95a6.4 6.4 0 0 1 .01-.361l-.728.609a.311.311 0 0 1-.126.063.32.32 0 0 1-.21-.035.212.212 0 0 1-.063-.059l-.273-.375 1.543-1.312h.711v4.42h.91ZM52.387 151l-2.813 2.143v-4.286L52.387 151Z" fill="#DBDBDB"/><path d="M96.512 148h-28a1 1 0 0 0-1 1v4a1 1 0 0 0 1 1h28a1 1 0 0 0 1-1v-4a1 1 0 0 0-1-1Z" fill="#FF9000" stroke="#FF9000"/><path d="M70.515 149.849a1.87 1.87 0 0 1 .203-.637 1.512 1.512 0 0 1 .893-.735c.196-.063.406-.094.63-.094.233 0 .443.034.63.101.189.066.35.158.483.277a1.226 1.226 0 0 1 .413.927c0 .161-.019.304-.056.427a.92.92 0 0 1-.406.55c-.1.063-.214.115-.34.157.303.096.53.242.68.438.148.196.223.442.223.738a1.453 1.453 0 0 1-.518 1.159c-.158.131-.343.23-.553.297a2.113 2.113 0 0 1-.661.102 2.24 2.24 0 0 1-.665-.088 1.427 1.427 0 0 1-.494-.259 1.554 1.554 0 0 1-.357-.42 2.818 2.818 0 0 1-.252-.574l.382-.157a.444.444 0 0 1 .28-.032.271.271 0 0 1 .192.14 3.4 3.4 0 0 0 .137.242.92.92 0 0 0 .427.364.94.94 0 0 0 .34.056.972.972 0 0 0 .384-.07c.11-.049.2-.112.273-.189a.781.781 0 0 0 .22-.543c0-.121-.012-.231-.038-.329a.49.49 0 0 0-.16-.255.88.88 0 0 0-.354-.165 2.553 2.553 0 0 0-.613-.059v-.616c.213-.002.389-.022.529-.06a.884.884 0 0 0 .332-.154.531.531 0 0 0 .175-.241.927.927 0 0 0 .05-.308c0-.238-.067-.419-.2-.543-.133-.123-.31-.185-.532-.185a.858.858 0 0 0-.518.168.74.74 0 0 0-.172.182.797.797 0 0 0-.105.231c-.04.107-.092.178-.157.213-.063.035-.153.044-.27.025l-.455-.081Zm13.4 2.846a.3.3 0 0 1 .22.08.269.269 0 0 1 .084.207v.518h-3.472v-.287a.487.487 0 0 1 .154-.357l1.537-1.54c.128-.131.242-.256.343-.375a2.33 2.33 0 0 0 .255-.353c.068-.117.12-.235.154-.354.038-.121.056-.248.056-.381a.889.889 0 0 0-.052-.319.626.626 0 0 0-.15-.234.577.577 0 0 0-.232-.14.859.859 0 0 0-.3-.049.89.89 0 0 0-.288.045.726.726 0 0 0-.23.123.742.742 0 0 0-.172.182.797.797 0 0 0-.105.231c-.04.107-.091.178-.154.213s-.154.044-.273.025l-.455-.081a1.87 1.87 0 0 1 .203-.637 1.513 1.513 0 0 1 .892-.735c.196-.063.406-.094.63-.094.234 0 .447.035.64.105a1.326 1.326 0 0 1 .819.745c.078.178.116.375.116.592 0 .187-.028.359-.084.518a2.05 2.05 0 0 1-.22.455 2.92 2.92 0 0 1-.322.42 21.33 21.33 0 0 1-.389.413l-1.14 1.165a2.461 2.461 0 0 1 .636-.101h1.299Zm10.533.157v.648h-2.8v-.648h1.025v-2.95a6.4 6.4 0 0 1 .01-.361l-.727.609a.311.311 0 0 1-.126.063.32.32 0 0 1-.21-.035.212.212 0 0 1-.063-.059l-.273-.375 1.543-1.312h.71v4.42h.91ZM78.762 151l-2.813 2.143v-4.286L78.762 151Zm10.312 0-2.812 2.143v-4.286L89.074 151Z" fill="#000"/><path d="M129.512 148h-30v6h30v-6Z" fill="url(#k)"/><path d="M128.512 148h-28a1 1 0 0 0-1 1v4a1 1 0 0 0 1 1h28a1 1 0 0 0 1-1v-4a1 1 0 0 0-1-1Z" stroke="url(#l)"/><path d="M105.571 152.695a.3.3 0 0 1 .22.08.269.269 0 0 1 .084.207v.518h-3.472v-.287a.487.487 0 0 1 .154-.357l1.537-1.54c.128-.131.242-.256.343-.375.102-.119.187-.236.255-.353.068-.117.119-.235.154-.354.037-.121.056-.248.056-.381a.89.89 0 0 0-.052-.319.63.63 0 0 0-.151-.234.577.577 0 0 0-.231-.14.86.86 0 0 0-.301-.049.89.89 0 0 0-.287.045.733.733 0 0 0-.231.123.782.782 0 0 0-.276.413c-.04.107-.091.178-.154.213s-.154.044-.273.025l-.455-.081a1.85 1.85 0 0 1 .203-.637 1.512 1.512 0 0 1 .892-.735c.196-.063.406-.094.63-.094.233 0 .447.035.641.105a1.335 1.335 0 0 1 .819.745c.077.178.115.375.115.592 0 .187-.028.359-.084.518-.054.159-.127.31-.22.455a2.97 2.97 0 0 1-.322.42c-.124.135-.254.273-.389.413l-1.141 1.165a2.454 2.454 0 0 1 .637-.101h1.299Zm10.533.157v.648h-2.8v-.648h1.025v-2.95c0-.117.004-.237.011-.361l-.728.609a.311.311 0 0 1-.126.063.323.323 0 0 1-.116 0 .286.286 0 0 1-.094-.035.212.212 0 0 1-.063-.059l-.273-.375 1.543-1.312h.711v4.42h.91Zm7.099-3.003a1.87 1.87 0 0 1 .203-.637 1.53 1.53 0 0 1 .375-.458 1.54 1.54 0 0 1 .518-.277c.196-.063.406-.094.63-.094.233 0 .443.034.63.101.189.066.35.158.483.277a1.216 1.216 0 0 1 .413.927c0 .161-.019.304-.056.427a.93.93 0 0 1-.406.55c-.1.063-.214.115-.34.157.304.096.53.242.679.438.15.196.224.442.224.738 0 .252-.046.475-.14.669a1.443 1.443 0 0 1-.378.49c-.158.131-.343.23-.553.297a2.108 2.108 0 0 1-.661.102c-.254 0-.476-.029-.665-.088a1.43 1.43 0 0 1-.494-.259 1.554 1.554 0 0 1-.357-.42 2.818 2.818 0 0 1-.252-.574l.382-.157a.444.444 0 0 1 .28-.032.268.268 0 0 1 .192.14c.042.082.088.163.137.242a.927.927 0 0 0 .427.364.94.94 0 0 0 .339.056.97.97 0 0 0 .385-.07.83.83 0 0 0 .438-.445.787.787 0 0 0 .056-.287c0-.121-.013-.231-.039-.329a.484.484 0 0 0-.161-.255.873.873 0 0 0-.353-.165 2.557 2.557 0 0 0-.613-.059v-.616c.213-.002.389-.022.529-.06a.877.877 0 0 0 .332-.154.526.526 0 0 0 .175-.241.917.917 0 0 0 .049-.308c0-.238-.066-.419-.199-.543-.133-.123-.31-.185-.532-.185a.863.863 0 0 0-.518.168.744.744 0 0 0-.172.182.836.836 0 0 0-.105.231c-.039.107-.092.178-.157.213-.063.035-.153.044-.27.025l-.455-.081ZM110.761 151l-2.812 2.143v-4.286l2.812 2.143Zm7.5 0 2.813-2.143v4.286L118.261 151Z" fill="#DBDBDB"/><path fill-rule="evenodd" clip-rule="evenodd" d="M1 108v3h120v8h7v2l4-2.5-4-2.5v2h-5v-10H1Z" fill="#6E6E6E"/><path d="M23.5 130.5h-10v10h10v-10Zm32 0h-10v10h10v-10Zm32 0h-10v10h10v-10Z" stroke="#6E6E6E"/><path opacity=".5" d="M119 130.5h-10v10h10v-10Z" stroke="#6E6E6E"/><path d="M20.092 137.352V138h-2.8v-.648h1.026v-2.95a6.4 6.4 0 0 1 .01-.361l-.728.609a.311.311 0 0 1-.126.063.32.32 0 0 1-.21-.035.212.212 0 0 1-.063-.059l-.273-.375 1.544-1.312h.71v4.42h.91Zm31.811-.157a.3.3 0 0 1 .22.08.269.269 0 0 1 .085.207V138h-3.472v-.287a.488.488 0 0 1 .154-.357l1.536-1.54c.129-.131.243-.256.343-.375.103-.119.188-.236.256-.353.068-.117.119-.235.154-.354.037-.121.056-.248.056-.381a.889.889 0 0 0-.053-.319.625.625 0 0 0-.15-.234.577.577 0 0 0-.231-.14.858.858 0 0 0-.301-.049.89.89 0 0 0-.287.045.726.726 0 0 0-.231.123.743.743 0 0 0-.172.182.802.802 0 0 0-.105.231c-.04.107-.09.178-.154.213-.063.035-.154.044-.273.025l-.455-.081a1.87 1.87 0 0 1 .203-.637 1.515 1.515 0 0 1 .893-.735c.196-.063.406-.094.63-.094.233 0 .447.035.64.105a1.326 1.326 0 0 1 .819.745c.077.178.116.375.116.592 0 .187-.028.359-.084.518a2.04 2.04 0 0 1-.22.455 2.92 2.92 0 0 1-.323.42c-.123.135-.253.273-.388.413l-1.141 1.165a2.461 2.461 0 0 1 .637-.101h1.298Zm28.945-2.846a1.85 1.85 0 0 1 .203-.637 1.515 1.515 0 0 1 .892-.735c.196-.063.406-.094.63-.094.234 0 .444.034.63.101.19.066.35.158.483.277a1.224 1.224 0 0 1 .413.927c0 .161-.018.304-.056.427a.918.918 0 0 1-.406.55c-.1.063-.213.115-.34.157.304.096.53.242.68.438.15.196.224.442.224.738a1.45 1.45 0 0 1-.518 1.159c-.159.131-.343.23-.553.297a2.112 2.112 0 0 1-.662.102 2.24 2.24 0 0 1-.665-.088 1.427 1.427 0 0 1-.493-.259 1.554 1.554 0 0 1-.357-.42 2.818 2.818 0 0 1-.252-.574l.381-.157a.444.444 0 0 1 .28-.032.271.271 0 0 1 .193.14 3.4 3.4 0 0 0 .136.242.922.922 0 0 0 .427.364.94.94 0 0 0 .34.056.971.971 0 0 0 .385-.07c.11-.049.2-.112.273-.189a.78.78 0 0 0 .22-.543 1.3 1.3 0 0 0-.038-.329.49.49 0 0 0-.161-.255.88.88 0 0 0-.354-.165 2.552 2.552 0 0 0-.612-.059v-.616c.212-.002.388-.022.528-.06a.884.884 0 0 0 .333-.154.53.53 0 0 0 .175-.241.925.925 0 0 0 .049-.308c0-.238-.067-.419-.2-.543-.133-.123-.31-.185-.532-.185a.86.86 0 0 0-.518.168.743.743 0 0 0-.171.182.802.802 0 0 0-.105.231c-.04.107-.092.178-.158.213-.063.035-.153.044-.27.025l-.454-.081Zm35.285-1.41V138h-.483a.466.466 0 0 1-.189-.035.468.468 0 0 1-.143-.126l-2.643-3.374c.014.154.021.296.021.427V138h-.829v-5.061h.493c.04 0 .074.002.102.007.03.002.056.009.077.021a.194.194 0 0 1 .066.045.62.62 0 0 1 .07.077l2.653 3.388a6.823 6.823 0 0 1-.024-.462v-3.076h.829Z" fill="#fff"/><g opacity=".5"><path opacity=".5" fill-rule="evenodd" clip-rule="evenodd" d="m31.453 121.547 1.016-1.016 2.033 2.033 2.029-2.032 1.012 1.012-2.029 2.032 2.034 2.034-1.016 1.015-2.033-2.033-2.03 2.033-1.013-1.011 2.03-2.034-2.033-2.033Z" fill="#EEE"/><path opacity=".5" d="M34.5 128.5a5 5 0 1 0 0-10 5 5 0 0 0 0 10Z" stroke="#6E6E6E"/></g><g opacity=".5"><path opacity=".5" fill-rule="evenodd" clip-rule="evenodd" d="m63.453 121.547 1.016-1.016 2.033 2.033 2.029-2.032 1.012 1.012-2.029 2.032 2.034 2.034-1.016 1.015-2.033-2.033-2.03 2.033-1.013-1.011 2.03-2.034-2.033-2.033Z" fill="#EEE"/><path opacity=".5" d="M66.5 128.5a5 5 0 1 0 0-10 5 5 0 0 0 0 10Z" stroke="#6E6E6E"/></g><path fill-rule="evenodd" clip-rule="evenodd" d="M82 116h-2l2.5-4 2.5 4h-3Z" fill="#6E6E6E"/><path d="M82 130v-14.5h1V130h-1Z" fill="#6E6E6E"/><g opacity=".5" fill="#6E6E6E"><path opacity=".5" fill-rule="evenodd" clip-rule="evenodd" d="M113.5 116h-2l2.5-4 2.5 4h-3Z"/><path opacity=".5" d="M113.5 130v-14.5h1V130h-1Z"/></g><path fill-rule="evenodd" clip-rule="evenodd" d="M50 116h-2l2.5-4 2.5 4h-3Z" fill="#6E6E6E"/><path d="M50 130v-14.5h1V130h-1Z" fill="#6E6E6E"/><path fill-rule="evenodd" clip-rule="evenodd" d="M18 116h-2l2.5-4 2.5 4h-3Z" fill="#6E6E6E"/><path d="M18 130v-14.5h1V130h-1Z" fill="#6E6E6E"/><g opacity=".5" fill="#6E6E6E"><path opacity=".5" fill-rule="evenodd" clip-rule="evenodd" d="M34 116h-2l2.5-4 2.5 4h-3Z"/><path opacity=".5" d="M34 118v-2.5h1v2.5h-1Z"/></g><g opacity=".5" fill="#6E6E6E"><path opacity=".5" fill-rule="evenodd" clip-rule="evenodd" d="M66 116h-2l2.5-4 2.5 4h-3Z"/><path opacity=".5" d="M66 118v-2.5h1v2.5h-1Z"/></g><g opacity=".5" fill="#6E6E6E"><path opacity=".5" fill-rule="evenodd" clip-rule="evenodd" d="M45 124v2l-4-2.5 4-2.5v3Z"/><path opacity=".5" d="M50 124h-5.5v-1H50v1Z"/></g><g opacity=".5" fill="#6E6E6E"><path opacity=".5" fill-rule="evenodd" clip-rule="evenodd" d="M77 124v2l-4-2.5 4-2.5v3Z"/><path opacity=".5" d="M82 124h-5.5v-1H82v1Z"/></g><path fill-rule="evenodd" clip-rule="evenodd" d="M61 136v2l-4-2.5 4-2.5v3Z" fill="#6E6E6E"/><path d="M77 136H60.5v-1H77v1Z" fill="#6E6E6E"/><path fill-rule="evenodd" clip-rule="evenodd" d="M29 136v2l-4-2.5 4-2.5v3Z" fill="#6E6E6E"/><path d="M45 136H28.5v-1H45v1Z" fill="#6E6E6E"/><g opacity=".5" fill="#6E6E6E"><path opacity=".5" fill-rule="evenodd" clip-rule="evenodd" d="M24 123v-2l4 2.5-4 2.5v-3Z"/><path opacity=".5" d="M19 123h5.5v1H19v-1Z"/></g><g opacity=".5" fill="#6E6E6E"><path opacity=".5" fill-rule="evenodd" clip-rule="evenodd" d="M56 123v-2l4 2.5-4 2.5v-3Z"/><path opacity=".5" d="M51 123h5.5v1H51v-1Z"/></g><path d="M33.5 96h-30v6h30v-6Z" fill="url(#m)"/><path d="M32.5 96h-28a1 1 0 0 0-1 1v4a1 1 0 0 0 1 1h28a1 1 0 0 0 1-1v-4a1 1 0 0 0-1-1Z" stroke="url(#n)"/><path d="M11.874 96.44v5.06h-.483a.46.46 0 0 1-.189-.035.476.476 0 0 1-.143-.126l-2.643-3.374c.014.154.021.296.021.427v3.108h-.83v-5.06h.494c.04 0 .074.001.102.006.03.002.056.01.077.021.023.01.045.025.066.046a.6.6 0 0 1 .07.077l2.653 3.388a8.802 8.802 0 0 1-.017-.242 3.742 3.742 0 0 1-.007-.22v-3.077h.83Zm5.849 2.53c0 .37-.062.715-.186 1.032a2.401 2.401 0 0 1-.518.819 2.372 2.372 0 0 1-.808.542 2.746 2.746 0 0 1-1.05.193c-.383 0-.732-.064-1.047-.193a2.41 2.41 0 0 1-.812-.542 2.446 2.446 0 0 1-.521-.819 2.82 2.82 0 0 1-.186-1.032c0-.371.062-.714.186-1.03a2.44 2.44 0 0 1 .521-.822c.227-.231.497-.41.812-.539a2.72 2.72 0 0 1 1.047-.196c.257 0 .498.03.724.091.227.058.434.142.623.252a2.2 2.2 0 0 1 .508.396c.152.154.28.326.385.518.105.19.184.399.238.623.056.224.084.46.084.707Zm-.963 0c0-.278-.037-.527-.112-.746a1.598 1.598 0 0 0-.318-.563 1.36 1.36 0 0 0-.504-.354 1.714 1.714 0 0 0-.665-.122c-.247 0-.47.04-.669.122a1.4 1.4 0 0 0-.504.354 1.6 1.6 0 0 0-.318.563c-.075.22-.112.468-.112.746 0 .277.037.527.112.749.075.219.18.405.318.559.14.152.308.269.504.35.199.082.422.123.669.123.247 0 .469-.041.665-.123.198-.081.366-.198.504-.35a1.6 1.6 0 0 0 .318-.56c.075-.221.112-.47.112-.748Zm4.227-1.782v1.498h1.897v.753h-1.897v2.061h-.945v-5.06h3.192v.748h-2.247Zm8.403-.749v5.061h-.83v-3.269c0-.13.007-.272.021-.423l-1.53 2.873a.352.352 0 0 1-.332.206h-.133a.353.353 0 0 1-.332-.206l-1.547-2.884a6.13 6.13 0 0 1 .024.434v3.269h-.83v-5.06h.711c.042 0 .078 0 .109.003a.27.27 0 0 1 .08.017.16.16 0 0 1 .067.046c.02.02.04.049.06.084l1.515 2.81a5.837 5.837 0 0 1 .21.476 5.028 5.028 0 0 1 .213-.483l1.495-2.803a.354.354 0 0 1 .06-.084.2.2 0 0 1 .066-.046.316.316 0 0 1 .084-.017 1.46 1.46 0 0 1 .108-.004h.71Z" fill="#DBDBDB"/><path d="M64.512 96h-28a1 1 0 0 0-1 1v4a1 1 0 0 0 1 1h28a1 1 0 0 0 1-1v-4a1 1 0 0 0-1-1Z" fill="#FF9000" stroke="#FF9000"/><path d="M47.541 100.695a.3.3 0 0 1 .22.08.269.269 0 0 1 .084.207v.518h-3.471v-.287a.487.487 0 0 1 .154-.357l1.536-1.54c.128-.13.243-.255.343-.374.103-.12.188-.237.256-.354a1.61 1.61 0 0 0 .154-.353 1.29 1.29 0 0 0 .056-.382.885.885 0 0 0-.053-.318.626.626 0 0 0-.15-.235.58.58 0 0 0-.232-.14.866.866 0 0 0-.3-.049.882.882 0 0 0-.288.046.731.731 0 0 0-.23.122.747.747 0 0 0-.277.413c-.04.107-.091.179-.154.214s-.154.043-.273.024l-.455-.08a1.86 1.86 0 0 1 .203-.637 1.515 1.515 0 0 1 .892-.735c.197-.063.407-.095.63-.095.234 0 .447.035.641.105a1.326 1.326 0 0 1 .819.746c.077.177.115.374.115.591 0 .187-.028.36-.084.518a2.03 2.03 0 0 1-.22.455 2.954 2.954 0 0 1-.322.42c-.124.135-.253.273-.389.413l-1.14 1.165a2.461 2.461 0 0 1 .636-.101h1.299Zm8.936.157v.648h-2.8v-.648h1.026v-2.95c0-.117.003-.237.01-.36l-.728.609a.319.319 0 0 1-.126.063.32.32 0 0 1-.21-.035.223.223 0 0 1-.063-.06l-.273-.374 1.543-1.313h.711v4.42h.91ZM52.387 99l-2.813 2.143v-4.286L52.387 99Z" fill="#000"/><path d="M97.512 96h-30v6h30v-6Z" fill="url(#o)"/><path d="M96.512 96h-28a1 1 0 0 0-1 1v4a1 1 0 0 0 1 1h28a1 1 0 0 0 1-1v-4a1 1 0 0 0-1-1Z" stroke="url(#p)"/><path d="M70.515 97.85c.035-.243.103-.455.203-.637a1.514 1.514 0 0 1 .893-.735c.196-.063.406-.095.63-.095.233 0 .443.034.63.102a1.4 1.4 0 0 1 .483.276 1.226 1.226 0 0 1 .413.927c0 .162-.019.304-.056.428a.92.92 0 0 1-.406.55 1.57 1.57 0 0 1-.34.157c.303.095.53.241.68.437.148.196.223.442.223.739a1.453 1.453 0 0 1-.518 1.158c-.158.131-.343.23-.553.297a2.113 2.113 0 0 1-.661.102 2.24 2.24 0 0 1-.665-.088 1.427 1.427 0 0 1-.494-.259 1.554 1.554 0 0 1-.357-.42 2.818 2.818 0 0 1-.252-.574l.382-.157a.444.444 0 0 1 .28-.032.271.271 0 0 1 .192.14 3.4 3.4 0 0 0 .137.242.92.92 0 0 0 .427.364.94.94 0 0 0 .34.056.972.972 0 0 0 .384-.07c.11-.049.2-.112.273-.189a.781.781 0 0 0 .22-.543c0-.12-.012-.23-.038-.328a.491.491 0 0 0-.16-.256.876.876 0 0 0-.354-.164 2.514 2.514 0 0 0-.613-.06v-.616c.213-.002.389-.022.529-.06a.9.9 0 0 0 .332-.154.534.534 0 0 0 .175-.24.928.928 0 0 0 .05-.309c0-.238-.067-.419-.2-.542-.133-.124-.31-.186-.532-.186a.85.85 0 0 0-.518.168.745.745 0 0 0-.172.182.797.797 0 0 0-.105.231c-.04.107-.092.179-.157.214-.063.035-.153.043-.27.024l-.455-.08Zm13.4 2.845a.3.3 0 0 1 .22.08.269.269 0 0 1 .084.207v.518h-3.472v-.287a.487.487 0 0 1 .154-.357l1.537-1.54a6.88 6.88 0 0 0 .343-.374c.102-.12.188-.237.255-.354a1.61 1.61 0 0 0 .154-.353 1.29 1.29 0 0 0 .056-.382.885.885 0 0 0-.052-.318.626.626 0 0 0-.15-.235.58.58 0 0 0-.232-.14.866.866 0 0 0-.3-.049.882.882 0 0 0-.288.046.731.731 0 0 0-.23.122.747.747 0 0 0-.277.413c-.04.107-.091.179-.154.214s-.154.043-.273.024l-.455-.08a1.86 1.86 0 0 1 .203-.637 1.515 1.515 0 0 1 .892-.735c.196-.063.406-.095.63-.095.234 0 .447.035.64.105a1.323 1.323 0 0 1 .819.745c.078.178.116.375.116.592 0 .187-.028.36-.084.518a2.03 2.03 0 0 1-.22.455 2.954 2.954 0 0 1-.322.42c-.124.135-.253.273-.389.413l-1.14 1.165a2.461 2.461 0 0 1 .636-.101h1.299Zm10.533.157v.648h-2.8v-.648h1.025v-2.95c0-.117.004-.237.01-.36l-.727.609a.319.319 0 0 1-.126.063.32.32 0 0 1-.21-.035.223.223 0 0 1-.063-.06l-.273-.374 1.543-1.313h.71v4.42h.91ZM78.762 99l-2.813 2.143v-4.286L78.762 99Zm10.312 0-2.812 2.143v-4.286L89.074 99Z" fill="#DBDBDB"/><path d="M129.512 96h-30v6h30v-6Z" fill="url(#q)"/><path d="M128.512 96h-28a1 1 0 0 0-1 1v4a1 1 0 0 0 1 1h28a1 1 0 0 0 1-1v-4a1 1 0 0 0-1-1Z" stroke="url(#r)"/><path d="M105.571 100.695a.3.3 0 0 1 .22.08.269.269 0 0 1 .084.207v.518h-3.472v-.287a.487.487 0 0 1 .154-.357l1.537-1.54a7.15 7.15 0 0 0 .343-.374c.102-.12.187-.237.255-.354.068-.117.119-.234.154-.353a1.3 1.3 0 0 0 .056-.382.885.885 0 0 0-.052-.318.63.63 0 0 0-.151-.235.58.58 0 0 0-.231-.14.867.867 0 0 0-.301-.049.882.882 0 0 0-.287.046.738.738 0 0 0-.231.122.782.782 0 0 0-.276.413c-.04.107-.091.179-.154.214s-.154.043-.273.024l-.455-.08c.035-.243.102-.455.203-.637.1-.185.225-.338.374-.459a1.54 1.54 0 0 1 .518-.276c.196-.063.406-.095.63-.095.233 0 .447.035.641.105a1.332 1.332 0 0 1 .819.745c.077.178.115.375.115.592 0 .187-.028.36-.084.518-.054.159-.127.31-.22.455a3.006 3.006 0 0 1-.322.42 22.42 22.42 0 0 1-.389.413l-1.141 1.165a2.454 2.454 0 0 1 .637-.101h1.299Zm10.533.157v.648h-2.8v-.648h1.025v-2.95c0-.117.004-.237.011-.36l-.728.609a.319.319 0 0 1-.126.063.302.302 0 0 1-.21-.035.223.223 0 0 1-.063-.06l-.273-.374 1.543-1.313h.711v4.42h.91Zm7.099-3.002c.035-.243.103-.455.203-.637.101-.185.226-.338.375-.459a1.54 1.54 0 0 1 .518-.276c.196-.063.406-.095.63-.095.233 0 .443.034.63.102a1.4 1.4 0 0 1 .483.276 1.216 1.216 0 0 1 .413.927c0 .162-.019.304-.056.428a.93.93 0 0 1-.406.55c-.1.062-.214.115-.34.157.304.095.53.241.679.437.15.196.224.442.224.739 0 .251-.046.474-.14.668a1.443 1.443 0 0 1-.378.49c-.158.131-.343.23-.553.297a2.108 2.108 0 0 1-.661.102c-.254 0-.476-.029-.665-.088a1.43 1.43 0 0 1-.494-.259 1.554 1.554 0 0 1-.357-.42 2.818 2.818 0 0 1-.252-.574l.382-.157a.444.444 0 0 1 .28-.032.268.268 0 0 1 .192.14c.042.082.088.163.137.242a.927.927 0 0 0 .427.364.94.94 0 0 0 .339.056.97.97 0 0 0 .385-.07.83.83 0 0 0 .438-.445.787.787 0 0 0 .056-.287c0-.12-.013-.23-.039-.328a.484.484 0 0 0-.161-.256.87.87 0 0 0-.353-.164 2.518 2.518 0 0 0-.613-.06v-.616c.213-.002.389-.022.529-.06a.892.892 0 0 0 .332-.154.53.53 0 0 0 .175-.24.918.918 0 0 0 .049-.309c0-.238-.066-.419-.199-.542-.133-.124-.31-.186-.532-.186a.855.855 0 0 0-.518.168.749.749 0 0 0-.277.413c-.039.107-.092.179-.157.214-.063.035-.153.043-.27.024l-.455-.08ZM110.761 99l-2.812 2.143v-4.286L110.761 99Zm7.5 0 2.813-2.143v4.286L118.261 99Z" fill="#DBDBDB"/><path fill-rule="evenodd" clip-rule="evenodd" d="M1 56v3h120v8h7v2l4-2.5-4-2.5v2h-5V56H1Z" fill="#6E6E6E"/><path d="M23.5 78.5h-10v10h10v-10Zm32 0h-10v10h10v-10Zm32 0h-10v10h10v-10Z" stroke="#6E6E6E"/><path opacity=".5" d="M119 78.5h-10v10h10v-10Z" stroke="#6E6E6E"/><path d="M20.092 85.352V86h-2.8v-.648h1.026v-2.95c0-.117.003-.237.01-.36l-.728.608a.319.319 0 0 1-.126.063.32.32 0 0 1-.21-.035.223.223 0 0 1-.063-.06l-.273-.374 1.544-1.312h.71v4.42h.91Zm31.811-.157c.094 0 .167.027.22.08.057.052.085.12.085.207V86h-3.472v-.287a.488.488 0 0 1 .154-.357l1.536-1.54c.129-.13.243-.255.343-.374.103-.12.188-.237.256-.354a1.61 1.61 0 0 0 .154-.353c.037-.122.056-.249.056-.382a.885.885 0 0 0-.053-.318.624.624 0 0 0-.15-.235.58.58 0 0 0-.231-.14.865.865 0 0 0-.301-.049.882.882 0 0 0-.287.046.731.731 0 0 0-.231.122.749.749 0 0 0-.277.413c-.04.107-.09.179-.154.214-.063.035-.154.043-.273.024l-.455-.08a1.86 1.86 0 0 1 .203-.637c.1-.185.225-.338.375-.459a1.54 1.54 0 0 1 .518-.276c.196-.063.406-.095.63-.095.233 0 .447.035.64.105a1.326 1.326 0 0 1 .819.746c.077.177.116.374.116.591 0 .187-.028.36-.084.518a2.04 2.04 0 0 1-.22.455 2.954 2.954 0 0 1-.323.42c-.123.135-.253.273-.388.413l-1.141 1.166a2.402 2.402 0 0 1 .637-.102h1.298Zm28.945-2.845a1.86 1.86 0 0 1 .203-.637c.1-.185.225-.338.374-.459a1.54 1.54 0 0 1 .518-.276c.196-.063.406-.095.63-.095.234 0 .444.034.63.102a1.4 1.4 0 0 1 .483.276 1.225 1.225 0 0 1 .413.927c0 .162-.018.304-.056.428a.918.918 0 0 1-.406.55 1.59 1.59 0 0 1-.34.157c.304.095.53.241.68.437.15.196.224.442.224.739a1.453 1.453 0 0 1-.518 1.159 1.66 1.66 0 0 1-.553.297 2.12 2.12 0 0 1-.662.101c-.254 0-.476-.03-.665-.087a1.444 1.444 0 0 1-.85-.68 2.835 2.835 0 0 1-.252-.573l.381-.158a.444.444 0 0 1 .28-.031.268.268 0 0 1 .193.14c.042.081.087.162.136.241a.921.921 0 0 0 .427.364.933.933 0 0 0 .34.056.977.977 0 0 0 .385-.07c.11-.049.2-.112.273-.189a.783.783 0 0 0 .22-.543c0-.12-.013-.23-.038-.328a.49.49 0 0 0-.161-.256.876.876 0 0 0-.354-.164 2.513 2.513 0 0 0-.612-.06v-.616c.212-.002.388-.022.528-.06a.9.9 0 0 0 .333-.154.534.534 0 0 0 .175-.24.926.926 0 0 0 .049-.309c0-.238-.067-.419-.2-.542-.133-.124-.31-.186-.532-.186a.851.851 0 0 0-.518.168.749.749 0 0 0-.276.413c-.04.107-.092.179-.158.214-.063.035-.153.043-.27.024l-.454-.08Zm35.285-1.411V86h-.483a.46.46 0 0 1-.189-.035.46.46 0 0 1-.143-.126l-2.643-3.374c.014.154.021.296.021.427V86h-.829v-5.061h.493c.04 0 .074.002.102.007.03.002.056.01.077.021a.2.2 0 0 1 .066.046.555.555 0 0 1 .07.076l2.653 3.389a6.918 6.918 0 0 1-.024-.462v-3.077h.829Z" fill="#fff"/><g opacity=".5"><path opacity=".5" fill-rule="evenodd" clip-rule="evenodd" d="m31.453 69.547 1.016-1.016 2.033 2.033 2.029-2.032 1.012 1.012-2.029 2.032 2.034 2.034-1.016 1.015-2.033-2.032-2.03 2.032-1.013-1.01 2.03-2.035-2.033-2.033Z" fill="#EEE"/><path opacity=".5" d="M34.5 76.5a5 5 0 1 0 0-10 5 5 0 0 0 0 10Z" stroke="#6E6E6E"/></g><g opacity=".5"><path opacity=".5" fill-rule="evenodd" clip-rule="evenodd" d="m63.453 69.547 1.016-1.016 2.033 2.033 2.029-2.032 1.012 1.012-2.029 2.032 2.034 2.034-1.016 1.015-2.033-2.032-2.03 2.032-1.013-1.01 2.03-2.035-2.033-2.033Z" fill="#EEE"/><path opacity=".5" d="M66.5 76.5a5 5 0 1 0 0-10 5 5 0 0 0 0 10Z" stroke="#6E6E6E"/></g><path fill-rule="evenodd" clip-rule="evenodd" d="M82 64h-2l2.5-4 2.5 4h-3Z" fill="#6E6E6E"/><path d="M82 78V63.5h1V78h-1Z" fill="#6E6E6E"/><g opacity=".5" fill="#6E6E6E"><path opacity=".5" fill-rule="evenodd" clip-rule="evenodd" d="M113.5 64h-2l2.5-4 2.5 4h-3Z"/><path opacity=".5" d="M113.5 78V63.5h1V78h-1Z"/></g><path fill-rule="evenodd" clip-rule="evenodd" d="M50 64h-2l2.5-4 2.5 4h-3Z" fill="#6E6E6E"/><path d="M50 78V63.5h1V78h-1Z" fill="#6E6E6E"/><path fill-rule="evenodd" clip-rule="evenodd" d="M18 64h-2l2.5-4 2.5 4h-3Z" fill="#6E6E6E"/><path d="M18 78V63.5h1V78h-1Z" fill="#6E6E6E"/><g opacity=".5" fill="#6E6E6E"><path opacity=".5" fill-rule="evenodd" clip-rule="evenodd" d="M34 64h-2l2.5-4 2.5 4h-3Z"/><path opacity=".5" d="M34 66v-2.5h1V66h-1Z"/></g><g opacity=".5" fill="#6E6E6E"><path opacity=".5" fill-rule="evenodd" clip-rule="evenodd" d="M66 64h-2l2.5-4 2.5 4h-3Z"/><path opacity=".5" d="M66 66v-2.5h1V66h-1Z"/></g><g opacity=".5" fill="#6E6E6E"><path opacity=".5" fill-rule="evenodd" clip-rule="evenodd" d="M45 72v2l-4-2.5 4-2.5v3Z"/><path opacity=".5" d="M50 72h-5.5v-1H50v1Z"/></g><g opacity=".5" fill="#6E6E6E"><path opacity=".5" fill-rule="evenodd" clip-rule="evenodd" d="M77 72v2l-4-2.5 4-2.5v3Z"/><path opacity=".5" d="M82 72h-5.5v-1H82v1Z"/></g><path fill-rule="evenodd" clip-rule="evenodd" d="M29 84v2l-4-2.5 4-2.5v3Z" fill="#6E6E6E"/><path d="M45 84H28.5v-1H45v1Z" fill="#6E6E6E"/><g opacity=".5" fill="#6E6E6E"><path opacity=".5" fill-rule="evenodd" clip-rule="evenodd" d="M24 71v-2l4 2.5-4 2.5v-3Z"/><path opacity=".5" d="M19 71h5.5v1H19v-1Z"/></g><g opacity=".5" fill="#6E6E6E"><path opacity=".5" fill-rule="evenodd" clip-rule="evenodd" d="M56 71v-2l4 2.5-4 2.5v-3Z"/><path opacity=".5" d="M51 71h5.5v1H51v-1Z"/></g><path d="M32.5 44h-28a1 1 0 0 0-1 1v4a1 1 0 0 0 1 1h28a1 1 0 0 0 1-1v-4a1 1 0 0 0-1-1Z" fill="#FF9000"/><path d="M32.5 44h-28a1 1 0 0 0-1 1v4a1 1 0 0 0 1 1h28a1 1 0 0 0 1-1v-4a1 1 0 0 0-1-1Z" stroke="#FF9000"/><path d="M11.874 44.44v5.06h-.483a.456.456 0 0 1-.189-.035.468.468 0 0 1-.143-.126l-2.643-3.374c.014.154.021.296.021.427V49.5h-.83v-5.06h.494c.04 0 .074.001.102.006.03.002.056.01.077.021.023.01.045.025.066.046a.6.6 0 0 1 .07.077l2.653 3.388a8.802 8.802 0 0 1-.017-.242 3.742 3.742 0 0 1-.007-.22v-3.077h.83Zm5.849 2.53c0 .37-.062.715-.186 1.032a2.401 2.401 0 0 1-.518.82 2.383 2.383 0 0 1-.808.542 2.76 2.76 0 0 1-1.05.192 2.75 2.75 0 0 1-1.047-.192 2.421 2.421 0 0 1-.812-.543 2.446 2.446 0 0 1-.521-.819 2.82 2.82 0 0 1-.186-1.032c0-.371.062-.714.186-1.03.124-.317.297-.59.521-.822.227-.23.497-.41.812-.539a2.72 2.72 0 0 1 1.047-.196c.257 0 .498.03.724.091.227.058.434.142.623.252a2.2 2.2 0 0 1 .508.396c.152.154.28.326.385.518.105.19.184.399.238.623.056.224.084.46.084.707Zm-.963 0c0-.278-.037-.527-.112-.746a1.598 1.598 0 0 0-.318-.563 1.36 1.36 0 0 0-.504-.354 1.714 1.714 0 0 0-.665-.122c-.247 0-.47.04-.669.122a1.4 1.4 0 0 0-.504.354 1.6 1.6 0 0 0-.318.563c-.075.22-.112.468-.112.746 0 .277.037.527.112.749.075.219.18.406.318.56.14.151.308.268.504.35.199.081.422.122.669.122.247 0 .469-.04.665-.122.198-.082.366-.199.504-.35a1.59 1.59 0 0 0 .318-.56c.075-.222.112-.472.112-.75Zm4.227-1.782v1.498h1.897v.753h-1.897V49.5h-.945v-5.06h3.192v.748h-2.247Zm8.403-.749V49.5h-.83v-3.269c0-.13.007-.272.021-.423l-1.53 2.873a.353.353 0 0 1-.332.207h-.133a.354.354 0 0 1-.332-.207l-1.547-2.884a6.13 6.13 0 0 1 .024.434v3.27h-.83v-5.062h.711c.042 0 .078.001.109.004a.27.27 0 0 1 .08.017.16.16 0 0 1 .067.046c.02.02.04.049.06.084l1.515 2.81a5.837 5.837 0 0 1 .21.476 5.028 5.028 0 0 1 .213-.483l1.495-2.803a.354.354 0 0 1 .06-.084.2.2 0 0 1 .066-.046.316.316 0 0 1 .084-.017 1.46 1.46 0 0 1 .108-.004h.71Z" fill="#000"/><path d="M64.512 44h-28a1 1 0 0 0-1 1v4a1 1 0 0 0 1 1h28a1 1 0 0 0 1-1v-4a1 1 0 0 0-1-1Z" fill="url(#s)"/><path d="M64.512 44h-28a1 1 0 0 0-1 1v4a1 1 0 0 0 1 1h28a1 1 0 0 0 1-1v-4a1 1 0 0 0-1-1Z" stroke="url(#t)"/><path d="M47.541 48.695c.093 0 .167.027.22.08.056.052.084.12.084.207v.518h-3.471v-.287a.487.487 0 0 1 .154-.357l1.536-1.54c.128-.13.243-.255.343-.374.103-.12.188-.237.256-.354a1.61 1.61 0 0 0 .154-.353 1.29 1.29 0 0 0 .056-.382.885.885 0 0 0-.053-.318.626.626 0 0 0-.15-.235.58.58 0 0 0-.232-.14.866.866 0 0 0-.3-.049.882.882 0 0 0-.288.046.731.731 0 0 0-.23.122.747.747 0 0 0-.277.413c-.04.107-.091.179-.154.214s-.154.043-.273.024l-.455-.08a1.86 1.86 0 0 1 .203-.637 1.515 1.515 0 0 1 .892-.735c.197-.063.407-.095.63-.095.234 0 .447.035.641.105a1.326 1.326 0 0 1 .819.746c.077.177.115.374.115.591 0 .187-.028.36-.084.518a2.05 2.05 0 0 1-.22.455 2.953 2.953 0 0 1-.322.42c-.124.135-.253.273-.389.413l-1.14 1.166a2.402 2.402 0 0 1 .636-.102h1.299Zm8.936.158v.647h-2.8v-.647h1.026v-2.95c0-.118.003-.238.01-.361l-.728.609a.319.319 0 0 1-.126.063.32.32 0 0 1-.21-.035.223.223 0 0 1-.063-.06l-.273-.374 1.543-1.313h.711v4.42h.91ZM52.387 47l-2.813 2.143v-4.286L52.387 47Z" fill="#DBDBDB"/><path d="M97.512 44h-30v6h30v-6Z" fill="url(#u)"/><path d="M96.512 44h-28a1 1 0 0 0-1 1v4a1 1 0 0 0 1 1h28a1 1 0 0 0 1-1v-4a1 1 0 0 0-1-1Z" stroke="url(#v)"/><path d="M70.515 45.85c.035-.243.103-.455.203-.637a1.514 1.514 0 0 1 .893-.735c.196-.063.406-.095.63-.095.233 0 .443.034.63.102a1.4 1.4 0 0 1 .483.276 1.226 1.226 0 0 1 .413.928c0 .16-.019.303-.056.427a.92.92 0 0 1-.406.55 1.57 1.57 0 0 1-.34.157c.303.095.53.241.68.437.148.196.223.442.223.739a1.456 1.456 0 0 1-.518 1.158c-.158.13-.343.23-.553.298a2.121 2.121 0 0 1-.661.101c-.255 0-.476-.03-.665-.087a1.444 1.444 0 0 1-.85-.68 2.835 2.835 0 0 1-.253-.573l.382-.158a.444.444 0 0 1 .28-.031.269.269 0 0 1 .192.14c.042.081.088.162.137.241a.92.92 0 0 0 .427.364.933.933 0 0 0 .34.056.977.977 0 0 0 .384-.07c.11-.049.2-.112.273-.189a.785.785 0 0 0 .22-.542c0-.122-.012-.231-.038-.33a.491.491 0 0 0-.16-.255.876.876 0 0 0-.354-.164 2.514 2.514 0 0 0-.613-.06v-.616c.213-.002.389-.022.529-.06a.9.9 0 0 0 .332-.153.535.535 0 0 0 .175-.242.928.928 0 0 0 .05-.308c0-.238-.067-.419-.2-.542-.133-.124-.31-.186-.532-.186a.85.85 0 0 0-.518.168.745.745 0 0 0-.172.182.797.797 0 0 0-.105.231c-.04.107-.092.179-.157.214-.063.035-.153.043-.27.024l-.455-.08Zm13.4 2.845c.093 0 .167.027.22.08.056.052.084.12.084.207v.518h-3.472v-.287a.487.487 0 0 1 .154-.357l1.537-1.54a6.88 6.88 0 0 0 .343-.374c.102-.12.188-.237.255-.354a1.61 1.61 0 0 0 .154-.353 1.29 1.29 0 0 0 .056-.382.885.885 0 0 0-.052-.318.626.626 0 0 0-.15-.235.58.58 0 0 0-.232-.14.866.866 0 0 0-.3-.049.882.882 0 0 0-.288.046.731.731 0 0 0-.23.122.747.747 0 0 0-.277.413c-.04.107-.091.179-.154.214s-.154.043-.273.024l-.455-.08a1.86 1.86 0 0 1 .203-.637 1.515 1.515 0 0 1 .892-.735c.196-.063.406-.095.63-.095.234 0 .447.035.64.105a1.323 1.323 0 0 1 .819.745c.078.178.116.375.116.592 0 .187-.028.36-.084.518a2.05 2.05 0 0 1-.22.455 2.953 2.953 0 0 1-.322.42c-.124.135-.253.273-.389.413l-1.14 1.166a2.402 2.402 0 0 1 .636-.102h1.299Zm10.533.158v.647h-2.8v-.647h1.025v-2.95c0-.118.004-.238.01-.361l-.727.609a.319.319 0 0 1-.126.063.32.32 0 0 1-.21-.035.223.223 0 0 1-.063-.06l-.273-.374 1.543-1.313h.71v4.42h.91ZM78.762 47l-2.813 2.143v-4.286L78.762 47Zm10.312 0-2.812 2.143v-4.286L89.074 47Z" fill="#DBDBDB"/><path d="M129.512 44h-30v6h30v-6Z" fill="url(#w)"/><path d="M128.512 44h-28a1 1 0 0 0-1 1v4a1 1 0 0 0 1 1h28a1 1 0 0 0 1-1v-4a1 1 0 0 0-1-1Z" stroke="url(#x)"/><path d="M105.571 48.695a.3.3 0 0 1 .22.08c.056.052.084.12.084.207v.518h-3.472v-.287a.487.487 0 0 1 .154-.357l1.537-1.54a7.15 7.15 0 0 0 .343-.374c.102-.12.187-.237.255-.354.068-.117.119-.234.154-.353a1.3 1.3 0 0 0 .056-.382.885.885 0 0 0-.052-.318.63.63 0 0 0-.151-.235.58.58 0 0 0-.231-.14.867.867 0 0 0-.301-.049.882.882 0 0 0-.287.046.738.738 0 0 0-.231.122.782.782 0 0 0-.276.413c-.04.107-.091.179-.154.214s-.154.043-.273.024l-.455-.08c.035-.243.102-.455.203-.637.1-.185.225-.338.374-.459a1.54 1.54 0 0 1 .518-.276c.196-.063.406-.095.63-.095.233 0 .447.035.641.105a1.332 1.332 0 0 1 .819.745c.077.178.115.375.115.592 0 .187-.028.36-.084.518-.054.159-.127.31-.22.455a3.006 3.006 0 0 1-.322.42 22.42 22.42 0 0 1-.389.413l-1.141 1.166a2.395 2.395 0 0 1 .637-.102h1.299Zm10.533.158v.647h-2.8v-.647h1.025v-2.95c0-.118.004-.238.011-.361l-.728.609a.319.319 0 0 1-.126.063.302.302 0 0 1-.21-.035.223.223 0 0 1-.063-.06l-.273-.374 1.543-1.313h.711v4.42h.91Zm7.099-3.003c.035-.243.103-.455.203-.637.101-.185.226-.338.375-.459a1.54 1.54 0 0 1 .518-.276c.196-.063.406-.095.63-.095.233 0 .443.034.63.102a1.4 1.4 0 0 1 .483.276 1.216 1.216 0 0 1 .413.928c0 .16-.019.303-.056.427a.93.93 0 0 1-.406.55c-.1.062-.214.115-.34.157.304.095.53.241.679.437.15.196.224.442.224.739a1.446 1.446 0 0 1-.518 1.158c-.158.13-.343.23-.553.298a2.116 2.116 0 0 1-.661.101c-.254 0-.476-.03-.665-.087a1.446 1.446 0 0 1-.851-.68 2.835 2.835 0 0 1-.252-.573l.382-.158a.444.444 0 0 1 .28-.031.266.266 0 0 1 .192.14c.042.081.088.162.137.241a.926.926 0 0 0 .427.364.934.934 0 0 0 .339.056.975.975 0 0 0 .385-.07.83.83 0 0 0 .438-.444.791.791 0 0 0 .056-.287c0-.122-.013-.231-.039-.33a.484.484 0 0 0-.161-.255.87.87 0 0 0-.353-.164 2.517 2.517 0 0 0-.613-.06v-.616c.213-.002.389-.022.529-.06a.892.892 0 0 0 .332-.153.53.53 0 0 0 .175-.242.918.918 0 0 0 .049-.308c0-.238-.066-.419-.199-.542-.133-.124-.31-.186-.532-.186a.855.855 0 0 0-.518.168.749.749 0 0 0-.277.413c-.039.107-.092.179-.157.214-.063.035-.153.043-.27.024l-.455-.08ZM110.761 47l-2.812 2.143v-4.286L110.761 47Zm7.5 0 2.813-2.143v4.286L118.261 47Z" fill="#DBDBDB"/><path fill-rule="evenodd" clip-rule="evenodd" d="M1 4v3h120v8h7v2l4-2.5-4-2.5v2h-5V4H1Z" fill="#6E6E6E"/><path d="M23.5 26.5h-10v10h10v-10Zm32 0h-10v10h10v-10Zm32 0h-10v10h10v-10Z" stroke="#6E6E6E"/><path opacity=".5" d="M119 26.5h-10v10h10v-10Z" stroke="#6E6E6E"/><path d="M20.092 33.352V34h-2.8v-.648h1.026v-2.95c0-.117.003-.237.01-.36l-.728.608a.319.319 0 0 1-.126.063.32.32 0 0 1-.21-.035.223.223 0 0 1-.063-.06l-.273-.374 1.544-1.312h.71v4.42h.91Zm31.811-.157c.094 0 .167.027.22.08.057.052.085.12.085.207V34h-3.472v-.287a.488.488 0 0 1 .154-.357l1.536-1.54c.129-.13.243-.255.343-.374.103-.12.188-.237.256-.354a1.61 1.61 0 0 0 .154-.353c.037-.122.056-.249.056-.382a.885.885 0 0 0-.053-.318.624.624 0 0 0-.15-.235.58.58 0 0 0-.231-.14.865.865 0 0 0-.301-.049.882.882 0 0 0-.287.046.731.731 0 0 0-.231.122.749.749 0 0 0-.277.413c-.04.107-.09.179-.154.214-.063.035-.154.043-.273.024l-.455-.08a1.86 1.86 0 0 1 .203-.637c.1-.185.225-.338.375-.459a1.54 1.54 0 0 1 .518-.276c.196-.063.406-.095.63-.095.233 0 .447.035.64.105a1.326 1.326 0 0 1 .819.746c.077.177.116.374.116.591 0 .187-.028.36-.084.518a2.04 2.04 0 0 1-.22.455 2.953 2.953 0 0 1-.323.42c-.123.135-.253.273-.388.413l-1.141 1.166a2.402 2.402 0 0 1 .637-.102h1.298Zm28.945-2.845a1.86 1.86 0 0 1 .203-.637c.1-.185.225-.338.374-.459a1.54 1.54 0 0 1 .518-.276c.196-.063.406-.095.63-.095.234 0 .444.034.63.102a1.4 1.4 0 0 1 .483.276 1.225 1.225 0 0 1 .413.928c0 .16-.018.303-.056.427a.918.918 0 0 1-.406.55 1.59 1.59 0 0 1-.34.157c.304.095.53.241.68.437.15.196.224.442.224.739a1.453 1.453 0 0 1-.518 1.158 1.66 1.66 0 0 1-.553.298 2.12 2.12 0 0 1-.662.101c-.254 0-.476-.03-.665-.087a1.444 1.444 0 0 1-.85-.68 2.835 2.835 0 0 1-.252-.573l.381-.158a.444.444 0 0 1 .28-.031.268.268 0 0 1 .193.14c.042.081.087.162.136.241a.921.921 0 0 0 .427.364.933.933 0 0 0 .34.056.977.977 0 0 0 .385-.07c.11-.049.2-.112.273-.189a.783.783 0 0 0 .22-.542c0-.122-.013-.231-.038-.33a.49.49 0 0 0-.161-.255.876.876 0 0 0-.354-.164 2.512 2.512 0 0 0-.612-.06v-.616c.212-.002.388-.022.528-.06a.9.9 0 0 0 .333-.153.534.534 0 0 0 .175-.242.926.926 0 0 0 .049-.308c0-.238-.067-.419-.2-.542-.133-.124-.31-.186-.532-.186a.851.851 0 0 0-.518.168.749.749 0 0 0-.276.413c-.04.107-.092.179-.158.214-.063.035-.153.043-.27.024l-.454-.08Zm35.285-1.411V34h-.483a.46.46 0 0 1-.189-.035.46.46 0 0 1-.143-.126l-2.643-3.374c.014.154.021.296.021.427V34h-.829v-5.061h.493c.04 0 .074.002.102.007.03.002.056.01.077.021a.2.2 0 0 1 .066.046.555.555 0 0 1 .07.076l2.653 3.389a6.918 6.918 0 0 1-.024-.462v-3.077h.829Z" fill="#fff"/><g opacity=".5"><path opacity=".5" fill-rule="evenodd" clip-rule="evenodd" d="m31.453 17.547 1.016-1.016 2.033 2.033 2.029-2.032 1.012 1.012-2.029 2.032 2.034 2.034-1.016 1.015-2.033-2.032-2.03 2.032-1.013-1.01 2.03-2.035-2.033-2.033Z" fill="#EEE"/><path opacity=".5" d="M34.5 24.5a5 5 0 1 0 0-10 5 5 0 0 0 0 10Z" stroke="#6E6E6E"/></g><g opacity=".5"><path opacity=".5" fill-rule="evenodd" clip-rule="evenodd" d="m63.453 17.547 1.016-1.016 2.033 2.033 2.029-2.032 1.012 1.012-2.029 2.032 2.034 2.034-1.016 1.015-2.033-2.032-2.03 2.032-1.013-1.01 2.03-2.035-2.033-2.033Z" fill="#EEE"/><path opacity=".5" d="M66.5 24.5a5 5 0 1 0 0-10 5 5 0 0 0 0 10Z" stroke="#6E6E6E"/></g><path fill-rule="evenodd" clip-rule="evenodd" d="M82 12h-2l2.5-4 2.5 4h-3Z" fill="#6E6E6E"/><path d="M82 26V11.5h1V26h-1Z" fill="#6E6E6E"/><g opacity=".5" fill="#6E6E6E"><path opacity=".5" fill-rule="evenodd" clip-rule="evenodd" d="M113.5 12h-2l2.5-4 2.5 4h-3Z"/><path opacity=".5" d="M113.5 26V11.5h1V26h-1Z"/></g><path fill-rule="evenodd" clip-rule="evenodd" d="M50 12h-2l2.5-4 2.5 4h-3Z" fill="#6E6E6E"/><path d="M50 26V11.5h1V26h-1Z" fill="#6E6E6E"/><path fill-rule="evenodd" clip-rule="evenodd" d="M18 12h-2l2.5-4 2.5 4h-3Z" fill="#6E6E6E"/><path d="M18 26V11.5h1V26h-1Z" fill="#6E6E6E"/><g opacity=".5" fill="#6E6E6E"><path opacity=".5" fill-rule="evenodd" clip-rule="evenodd" d="M34 12h-2l2.5-4 2.5 4h-3Z"/><path opacity=".5" d="M34 14v-2.5h1V14h-1Z"/></g><g opacity=".5" fill="#6E6E6E"><path opacity=".5" fill-rule="evenodd" clip-rule="evenodd" d="M66 12h-2l2.5-4 2.5 4h-3Z"/><path opacity=".5" d="M66 14v-2.5h1V14h-1Z"/></g><g opacity=".5" fill="#6E6E6E"><path opacity=".5" fill-rule="evenodd" clip-rule="evenodd" d="M45 20v2l-4-2.5 4-2.5v3Z"/><path opacity=".5" d="M50 20h-5.5v-1H50v1Z"/></g><g opacity=".5" fill="#6E6E6E"><path opacity=".5" fill-rule="evenodd" clip-rule="evenodd" d="M77 20v2l-4-2.5 4-2.5v3Z"/><path opacity=".5" d="M82 20h-5.5v-1H82v1Z"/></g><g opacity=".5" fill="#6E6E6E"><path opacity=".5" fill-rule="evenodd" clip-rule="evenodd" d="M24 19v-2l4 2.5-4 2.5v-3Z"/><path opacity=".5" d="M19 19h5.5v1H19v-1Z"/></g><g opacity=".5" fill="#6E6E6E"><path opacity=".5" fill-rule="evenodd" clip-rule="evenodd" d="M56 19v-2l4 2.5-4 2.5v-3Z"/><path opacity=".5" d="M51 19h5.5v1H51v-1Z"/></g><defs><linearGradient id="a" x1="18.5" y1="200" x2="18.5" y2="206" gradientUnits="userSpaceOnUse"><stop stop-color="#545454"/><stop offset="1" stop-color="#383838"/></linearGradient><linearGradient id="b" x1="18.5" y1="200" x2="18.5" y2="206" gradientUnits="userSpaceOnUse"><stop stop-color="#545454"/><stop offset="1" stop-color="#383838"/></linearGradient><linearGradient id="c" x1="50.512" y1="200" x2="50.512" y2="206" gradientUnits="userSpaceOnUse"><stop stop-color="#545454"/><stop offset="1" stop-color="#383838"/></linearGradient><linearGradient id="d" x1="50.512" y1="200" x2="50.512" y2="206" gradientUnits="userSpaceOnUse"><stop stop-color="#545454"/><stop offset="1" stop-color="#383838"/></linearGradient><linearGradient id="e" x1="82.512" y1="200" x2="82.512" y2="206" gradientUnits="userSpaceOnUse"><stop stop-color="#545454"/><stop offset="1" stop-color="#383838"/></linearGradient><linearGradient id="f" x1="82.512" y1="200" x2="82.512" y2="206" gradientUnits="userSpaceOnUse"><stop stop-color="#545454"/><stop offset="1" stop-color="#383838"/></linearGradient><linearGradient id="g" x1="18.5" y1="148" x2="18.5" y2="154" gradientUnits="userSpaceOnUse"><stop stop-color="#545454"/><stop offset="1" stop-color="#383838"/></linearGradient><linearGradient id="h" x1="18.5" y1="148" x2="18.5" y2="154" gradientUnits="userSpaceOnUse"><stop stop-color="#545454"/><stop offset="1" stop-color="#383838"/></linearGradient><linearGradient id="i" x1="50.512" y1="148" x2="50.512" y2="154" gradientUnits="userSpaceOnUse"><stop stop-color="#545454"/><stop offset="1" stop-color="#383838"/></linearGradient><linearGradient id="j" x1="50.512" y1="148" x2="50.512" y2="154" gradientUnits="userSpaceOnUse"><stop stop-color="#545454"/><stop offset="1" stop-color="#383838"/></linearGradient><linearGradient id="k" x1="114.512" y1="148" x2="114.512" y2="154" gradientUnits="userSpaceOnUse"><stop stop-color="#545454"/><stop offset="1" stop-color="#383838"/></linearGradient><linearGradient id="l" x1="114.512" y1="148" x2="114.512" y2="154" gradientUnits="userSpaceOnUse"><stop stop-color="#545454"/><stop offset="1" stop-color="#383838"/></linearGradient><linearGradient id="m" x1="18.5" y1="96" x2="18.5" y2="102" gradientUnits="userSpaceOnUse"><stop stop-color="#545454"/><stop offset="1" stop-color="#383838"/></linearGradient><linearGradient id="n" x1="18.5" y1="96" x2="18.5" y2="102" gradientUnits="userSpaceOnUse"><stop stop-color="#545454"/><stop offset="1" stop-color="#383838"/></linearGradient><linearGradient id="o" x1="82.512" y1="96" x2="82.512" y2="102" gradientUnits="userSpaceOnUse"><stop stop-color="#545454"/><stop offset="1" stop-color="#383838"/></linearGradient><linearGradient id="p" x1="82.512" y1="96" x2="82.512" y2="102" gradientUnits="userSpaceOnUse"><stop stop-color="#545454"/><stop offset="1" stop-color="#383838"/></linearGradient><linearGradient id="q" x1="114.512" y1="96" x2="114.512" y2="102" gradientUnits="userSpaceOnUse"><stop stop-color="#545454"/><stop offset="1" stop-color="#383838"/></linearGradient><linearGradient id="r" x1="114.512" y1="96" x2="114.512" y2="102" gradientUnits="userSpaceOnUse"><stop stop-color="#545454"/><stop offset="1" stop-color="#383838"/></linearGradient><linearGradient id="s" x1="50.512" y1="44" x2="50.512" y2="50" gradientUnits="userSpaceOnUse"><stop stop-color="#545454"/><stop offset="1" stop-color="#383838"/></linearGradient><linearGradient id="t" x1="50.512" y1="44" x2="50.512" y2="50" gradientUnits="userSpaceOnUse"><stop stop-color="#545454"/><stop offset="1" stop-color="#383838"/></linearGradient><linearGradient id="u" x1="82.512" y1="44" x2="82.512" y2="50" gradientUnits="userSpaceOnUse"><stop stop-color="#545454"/><stop offset="1" stop-color="#383838"/></linearGradient><linearGradient id="v" x1="82.512" y1="44" x2="82.512" y2="50" gradientUnits="userSpaceOnUse"><stop stop-color="#545454"/><stop offset="1" stop-color="#383838"/></linearGradient><linearGradient id="w" x1="114.512" y1="44" x2="114.512" y2="50" gradientUnits="userSpaceOnUse"><stop stop-color="#545454"/><stop offset="1" stop-color="#383838"/></linearGradient><linearGradient id="x" x1="114.512" y1="44" x2="114.512" y2="50" gradientUnits="userSpaceOnUse"><stop stop-color="#545454"/><stop offset="1" stop-color="#383838"/></linearGradient></defs></svg>