<svg width="32" height="24" fill="none" xmlns="http://www.w3.org/2000/svg"><path d="M.5 3.5a3 3 0 0 1 3-3h25a3 3 0 0 1 3 3v5a3 3 0 0 1-3 3h-25a3 3 0 0 1-3-3v-5Z" fill="url(#a)"/><path fill-rule="evenodd" clip-rule="evenodd" d="m8.5 3-4 3 4 3V7h4V5h-4V3Z" fill="#DBDBDB"/><path opacity=".75" d="M15.5 2v8h1V2h-1Z" fill="#DBDBDB"/><path fill-rule="evenodd" clip-rule="evenodd" d="m23.5 9 4-3-4-3v2h-4v2h4v2Z" fill="#DBDBDB"/><path d="M.5 15.5a3 3 0 0 1 3-3h25a3 3 0 0 1 3 3v5a3 3 0 0 1-3 3h-25a3 3 0 0 1-3-3v-5Z" fill="url(#b)"/><path fill-rule="evenodd" clip-rule="evenodd" d="m8.5 15-4 3 4 3v-2h4v-2h-4v-2Z" fill="#DBDBDB"/><path opacity=".75" d="M15.5 14v8h1v-8h-1Z" fill="#DBDBDB"/><path fill-rule="evenodd" clip-rule="evenodd" d="m23.5 21 4-3-4-3v2h-4v2h4v2Z" fill="#DBDBDB"/><defs><linearGradient id="a" x1="16" y1=".5" x2="16" y2="11.5" gradientUnits="userSpaceOnUse"><stop/><stop offset="1" stop-opacity=".25"/></linearGradient><linearGradient id="b" x1="16" y1="12.5" x2="16" y2="23.5" gradientUnits="userSpaceOnUse"><stop/><stop offset="1" stop-opacity=".25"/></linearGradient></defs></svg>