<svg width="22" height="30" fill="none" xmlns="http://www.w3.org/2000/svg"><path d="M16.5 3h-13a1 1 0 0 0-1 1v6a1 1 0 0 0 1 1h13a1 1 0 0 0 1-1V4a1 1 0 0 0-1-1Z" fill="url(#a)"/><path d="M11.373 5.436a.43.43 0 0 1-.112.126.239.239 0 0 1-.147.042.384.384 0 0 1-.175-.049 6.74 6.74 0 0 0-.21-.115 1.574 1.574 0 0 0-.266-.112 1.038 1.038 0 0 0-.343-.053c-.221 0-.387.048-.497.144a.48.48 0 0 0-.16.381c0 .103.032.188.097.256a.85.85 0 0 0 .256.175c.107.049.228.094.364.136.137.04.277.086.42.137.142.049.28.107.416.175.138.068.26.154.364.259.107.105.194.233.26.385.064.15.097.33.097.542 0 .236-.04.457-.122.662a1.567 1.567 0 0 1-.357.539 1.661 1.661 0 0 1-.574.36 2.16 2.16 0 0 1-.774.13 2.48 2.48 0 0 1-.486-.049 3.006 3.006 0 0 1-.476-.137 2.884 2.884 0 0 1-.434-.213 1.845 1.845 0 0 1-.354-.273l.35-.553a.338.338 0 0 1 .26-.14c.07 0 .14.022.21.066l.24.147c.092.054.195.103.312.147.117.045.255.067.413.067.215 0 .382-.047.5-.14.12-.096.18-.246.18-.452a.425.425 0 0 0-.099-.29.753.753 0 0 0-.259-.186 2.304 2.304 0 0 0-.36-.129 13.26 13.26 0 0 1-.417-.123 3.379 3.379 0 0 1-.416-.168 1.392 1.392 0 0 1-.364-.262 1.27 1.27 0 0 1-.256-.406 1.626 1.626 0 0 1-.098-.602 1.446 1.446 0 0 1 .455-1.046c.15-.143.333-.256.55-.34.217-.086.465-.13.745-.13a2.641 2.641 0 0 1 .879.147c.133.047.256.104.37.172.117.065.221.14.312.224l-.294.55Z" fill="#DBDBDB"/><path d="M16.5 18h-13a1 1 0 0 0-1 1v6a1 1 0 0 0 1 1h13a1 1 0 0 0 1-1v-6a1 1 0 0 0-1-1Z" fill="url(#b)"/><path d="M11.373 20.436a.43.43 0 0 1-.112.127.239.239 0 0 1-.147.042.383.383 0 0 1-.175-.05 6.74 6.74 0 0 0-.21-.115 1.576 1.576 0 0 0-.266-.112 1.038 1.038 0 0 0-.343-.052c-.221 0-.387.047-.497.143a.48.48 0 0 0-.16.381c0 .103.032.188.097.256a.85.85 0 0 0 .256.175c.107.049.228.095.364.136.137.04.277.086.42.137.142.049.28.107.416.175.138.068.26.154.364.259.107.105.194.233.26.385.064.15.097.33.097.543 0 .235-.04.456-.122.661a1.567 1.567 0 0 1-.357.539 1.661 1.661 0 0 1-.574.36 2.16 2.16 0 0 1-.774.13 2.48 2.48 0 0 1-.486-.049 3.012 3.012 0 0 1-.476-.137 2.884 2.884 0 0 1-.434-.213 1.847 1.847 0 0 1-.354-.273l.35-.553a.338.338 0 0 1 .26-.14c.07 0 .14.022.21.067l.24.146c.092.054.195.103.312.148.117.044.255.066.413.066.215 0 .382-.047.5-.14.12-.096.18-.246.18-.452a.425.425 0 0 0-.099-.29.753.753 0 0 0-.259-.186 2.301 2.301 0 0 0-.36-.129 13.26 13.26 0 0 1-.417-.122 3.388 3.388 0 0 1-.416-.168 1.394 1.394 0 0 1-.364-.263 1.27 1.27 0 0 1-.256-.406 1.626 1.626 0 0 1-.098-.602 1.445 1.445 0 0 1 .455-1.046c.15-.143.333-.256.55-.34.217-.086.465-.13.745-.13.156 0 .308.013.455.039a2.27 2.27 0 0 1 .794.28c.117.065.221.14.312.224l-.294.55Z" fill="#FF9000"/><defs><linearGradient id="a" x1="10" y1="3" x2="10" y2="11" gradientUnits="userSpaceOnUse"><stop/><stop offset="1" stop-opacity=".25"/></linearGradient><linearGradient id="b" x1="10" y1="18" x2="10" y2="26" gradientUnits="userSpaceOnUse"><stop/><stop offset="1" stop-opacity=".25"/></linearGradient></defs></svg>