<svg width="11" height="22" fill="none" xmlns="http://www.w3.org/2000/svg"><path d="M.5 2.5a2 2 0 0 1 2-2h6a2 2 0 0 1 2 2v6a2 2 0 0 1-2 2h-6a2 2 0 0 1-2-2v-6Z" fill="url(#a)"/><path fill-rule="evenodd" clip-rule="evenodd" d="M6.275 3 3.4 5.849l1.725 1.71L8 4.708 6.275 3ZM4.626 8 3 6.388V8h1.626Z" fill="#DBDBDB"/><path d="M.5 13.5a2 2 0 0 1 2-2h6a2 2 0 0 1 2 2v6a2 2 0 0 1-2 2h-6a2 2 0 0 1-2-2v-6Z" fill="url(#b)"/><path fill-rule="evenodd" clip-rule="evenodd" d="M6.275 14 3.4 16.849l1.725 1.71L8 15.708 6.275 14Zm-1.649 5L3 17.388V19h1.626Z" fill="#FF9000"/><defs><linearGradient id="a" x1="5.5" y1=".5" x2="5.5" y2="10.5" gradientUnits="userSpaceOnUse"><stop/><stop offset="1" stop-opacity=".25"/></linearGradient><linearGradient id="b" x1="5.5" y1="11.5" x2="5.5" y2="21.5" gradientUnits="userSpaceOnUse"><stop/><stop offset="1" stop-opacity=".25"/></linearGradient></defs></svg>