<svg width="12" height="306" fill="none" xmlns="http://www.w3.org/2000/svg"><path d="M10.5 20h-9a1 1 0 0 0-1 1v9a1 1 0 0 0 1 1h9a1 1 0 0 0 1-1v-9a1 1 0 0 0-1-1Z" fill="url(#a)"/><path d="M7.648 27.716v.784H4.743v-.784h.98v-2.573a5.475 5.475 0 0 1 .014-.399l-.58.483a.358.358 0 0 1-.155.074.469.469 0 0 1-.14 0 .382.382 0 0 1-.119-.045.287.287 0 0 1-.077-.07l-.343-.456 1.59-1.333h.895v4.319h.84Z" fill="#FF9000"/><path d="M10.5 38h-9a1 1 0 0 0-1 1v9a1 1 0 0 0 1 1h9a1 1 0 0 0 1-1v-9a1 1 0 0 0-1-1Z" fill="url(#b)"/><path d="M7.386 45.52c.116 0 .209.033.276.098a.328.328 0 0 1 .102.252v.63H4.18v-.35c0-.068.014-.14.042-.217a.523.523 0 0 1 .147-.21l1.47-1.48a5.33 5.33 0 0 0 .329-.361 2.28 2.28 0 0 0 .23-.336 1.347 1.347 0 0 0 .182-.686c0-.203-.048-.358-.146-.465-.096-.11-.243-.165-.441-.165a.65.65 0 0 0-.637.445c-.05.128-.113.213-.193.255-.08.042-.192.051-.34.028l-.573-.102c.037-.254.108-.476.213-.665.108-.189.24-.346.396-.472a1.6 1.6 0 0 1 .542-.28c.203-.063.421-.095.655-.095.252 0 .478.038.679.112.203.073.375.174.518.305.142.13.25.287.325.469.077.18.116.378.116.595 0 .187-.027.36-.08.518a2.02 2.02 0 0 1-.214.455 3.237 3.237 0 0 1-.319.416c-.119.133-.246.269-.381.407l-.998 1.021a2.737 2.737 0 0 1 .732-.122h.952Z" fill="#FF9000"/><path d="M10.5 56h-9a1 1 0 0 0-1 1v9a1 1 0 0 0 1 1h9a1 1 0 0 0 1-1v-9a1 1 0 0 0-1-1Z" fill="url(#c)"/><path d="M4.278 60.856c.037-.254.108-.476.213-.665.108-.189.24-.346.396-.472a1.6 1.6 0 0 1 .542-.28c.203-.063.421-.095.655-.095.252 0 .476.037.672.109.196.07.361.166.497.287a1.235 1.235 0 0 1 .413.927c0 .162-.017.304-.05.428a.976.976 0 0 1-.146.318.886.886 0 0 1-.238.228c-.094.06-.201.111-.322.154.564.198.847.583.847 1.154 0 .271-.05.507-.147.708-.098.2-.23.367-.396.5a1.69 1.69 0 0 1-.57.301 2.344 2.344 0 0 1-.68.098 2.49 2.49 0 0 1-.647-.077 1.536 1.536 0 0 1-.504-.245 1.676 1.676 0 0 1-.388-.427 2.908 2.908 0 0 1-.287-.616l.483-.196a.603.603 0 0 1 .35-.038.328.328 0 0 1 .23.16c.106.194.217.335.333.424a.69.69 0 0 0 .417.13.7.7 0 0 0 .539-.217.658.658 0 0 0 .136-.221.709.709 0 0 0 .046-.248c0-.11-.008-.208-.025-.294a.378.378 0 0 0-.126-.228.711.711 0 0 0-.318-.144 2.551 2.551 0 0 0-.588-.052v-.749c.212 0 .384-.016.514-.049a.788.788 0 0 0 .301-.133.412.412 0 0 0 .144-.21.979.979 0 0 0 .035-.27c0-.2-.05-.354-.147-.462-.096-.11-.243-.164-.441-.164a.65.65 0 0 0-.637.445c-.05.128-.113.213-.193.255-.08.042-.192.051-.34.028l-.573-.102Z" fill="#FF9000"/><path d="M10.5 74h-9a1 1 0 0 0-1 1v9a1 1 0 0 0 1 1h9a1 1 0 0 0 1-1v-9a1 1 0 0 0-1-1Z" fill="url(#d)"/><path d="M6.402 80.519v-1.33c0-.082.002-.17.007-.263.007-.095.016-.194.028-.297l-1.347 1.89h1.312Zm1.47 0v.609c0 .054-.019.1-.056.14-.035.04-.086.06-.154.06h-.315V82.5h-.945v-1.173h-2.05a.302.302 0 0 1-.186-.063.27.27 0 0 1-.102-.157l-.112-.536 2.36-3.17h1.035v3.118h.525Z" fill="#FF9000"/><path d="M10.5 92h-9a1 1 0 0 0-1 1v9a1 1 0 0 0 1 1h9a1 1 0 0 0 1-1v-9a1 1 0 0 0-1-1Z" fill="url(#e)"/><path d="M5.524 97.196c.096-.019.188-.032.276-.039.09-.007.175-.01.26-.01.268 0 .505.04.71.122.205.082.378.194.518.336.14.14.245.306.315.497.072.19.108.392.108.61 0 .272-.049.522-.147.748-.095.224-.23.418-.402.581-.173.164-.38.291-.62.382a2.22 2.22 0 0 1-.784.133 2.11 2.11 0 0 1-.476-.052 2.466 2.466 0 0 1-.423-.141 2.435 2.435 0 0 1-.364-.206 2.5 2.5 0 0 1-.305-.252l.336-.448a.347.347 0 0 1 .273-.144c.07 0 .136.02.196.06.063.037.131.08.203.126.075.044.161.085.26.122.097.038.219.056.363.056a.892.892 0 0 0 .371-.07.674.674 0 0 0 .249-.196.782.782 0 0 0 .14-.29 1.36 1.36 0 0 0 .045-.357c0-.247-.07-.435-.21-.564-.14-.13-.338-.196-.595-.196a1.82 1.82 0 0 0-.672.13l-.672-.182.434-2.552h2.611v.448a.562.562 0 0 1-.035.203.42.42 0 0 1-.112.161.522.522 0 0 1-.196.105c-.081.024-.18.035-.294.035H5.667l-.143.844Z" fill="#FF9000"/><path d="M10.5 110h-9a1 1 0 0 0-1 1v9a1 1 0 0 0 1 1h9a1 1 0 0 0 1-1v-9a1 1 0 0 0-1-1Z" fill="url(#f)"/><path d="M5.993 117.698a.766.766 0 0 0 .311-.063.77.77 0 0 0 .252-.171.834.834 0 0 0 .165-.259.97.97 0 0 0 .004-.676.703.703 0 0 0-.162-.259.71.71 0 0 0-.255-.161.925.925 0 0 0-.33-.056.74.74 0 0 0-.538.224.806.806 0 0 0-.154.259 1.167 1.167 0 0 0-.01.679.68.68 0 0 0 .139.259.615.615 0 0 0 .238.168.918.918 0 0 0 .34.056Zm-.175-2.338c.163-.06.345-.091.546-.091.184 0 .366.031.546.091.18.061.34.154.483.28.142.126.256.286.343.48.088.191.133.418.133.679 0 .238-.045.464-.133.679a1.7 1.7 0 0 1-.963.938c-.229.093-.482.14-.76.14a2.08 2.08 0 0 1-.766-.133 1.678 1.678 0 0 1-.577-.378 1.65 1.65 0 0 1-.361-.578 2.14 2.14 0 0 1-.122-.738c0-.502.193-1.012.58-1.53l1.149-1.55a.651.651 0 0 1 .23-.175.803.803 0 0 1 .35-.074h.967l-1.512 1.806-.133.154Z" fill="#FF9000"/><path d="M10.5 128h-9a1 1 0 0 0-1 1v9a1 1 0 0 0 1 1h9a1 1 0 0 0 1-1v-9a1 1 0 0 0-1-1Z" fill="url(#g)"/><path d="M7.83 131.4v.455a.985.985 0 0 1-.045.329 2.1 2.1 0 0 1-.088.207l-1.77 3.752a.724.724 0 0 1-.21.252.56.56 0 0 1-.358.105h-.79l1.82-3.651c.053-.098.106-.186.16-.266.056-.081.118-.158.186-.231H4.49a.254.254 0 0 1-.094-.017.348.348 0 0 1-.077-.053.338.338 0 0 1-.053-.077.212.212 0 0 1-.02-.091v-.714H7.83Z" fill="#FF9000"/><path d="M10.5 146h-9a1 1 0 0 0-1 1v9a1 1 0 0 0 1 1h9a1 1 0 0 0 1-1v-9a1 1 0 0 0-1-1Z" fill="url(#h)"/><path d="M6 153.737a.815.815 0 0 0 .315-.056.59.59 0 0 0 .343-.378.938.938 0 0 0 .042-.284c0-.109-.012-.21-.035-.301a.568.568 0 0 0-.116-.231.513.513 0 0 0-.217-.15.867.867 0 0 0-.332-.056.894.894 0 0 0-.336.056.516.516 0 0 0-.214.15.567.567 0 0 0-.115.231 1.215 1.215 0 0 0 .003.585c.028.086.07.162.126.227a.63.63 0 0 0 .217.151.825.825 0 0 0 .319.056Zm0-3.602a.65.65 0 0 0-.277.053.52.52 0 0 0-.287.336.853.853 0 0 0-.031.231c0 .089.008.175.024.259a.595.595 0 0 0 .091.224.477.477 0 0 0 .182.157c.077.04.176.06.298.06.121 0 .22-.02.297-.06a.477.477 0 0 0 .182-.157.595.595 0 0 0 .091-.224 1.3 1.3 0 0 0 .025-.259.853.853 0 0 0-.032-.231.496.496 0 0 0-.105-.196.498.498 0 0 0-.185-.14.64.64 0 0 0-.273-.053Zm.962 1.705a1.5 1.5 0 0 1 .389.199 1.074 1.074 0 0 1 .42.613c.032.121.049.251.049.388 0 .229-.045.437-.133.623a1.35 1.35 0 0 1-.371.48c-.159.131-.35.232-.574.304a2.385 2.385 0 0 1-.742.109c-.271 0-.518-.036-.742-.109a1.754 1.754 0 0 1-.578-.304 1.404 1.404 0 0 1-.37-.48 1.463 1.463 0 0 1-.13-.623c0-.137.016-.267.049-.388.032-.124.083-.237.15-.34.07-.102.159-.193.266-.273.11-.079.24-.145.392-.199a1.147 1.147 0 0 1-.518-.434 1.264 1.264 0 0 1-.171-.672c0-.198.04-.382.122-.55.082-.17.196-.317.343-.441a1.65 1.65 0 0 1 .522-.29c.203-.072.424-.109.665-.109.24 0 .46.037.661.109.203.07.378.167.525.29.147.124.262.271.343.441.082.168.123.352.123.55 0 .261-.057.485-.172.672a1.147 1.147 0 0 1-.518.434Z" fill="#FF9000"/><path d="M10.5 164h-9a1 1 0 0 0-1 1v9a1 1 0 0 0 1 1h9a1 1 0 0 0 1-1v-9a1 1 0 0 0-1-1Z" fill="url(#i)"/><path d="M5.275 168.958c0 .509.236.763.707.763.231 0 .409-.069.532-.207.126-.14.19-.325.19-.556a.877.877 0 0 0-.057-.326.626.626 0 0 0-.381-.381.866.866 0 0 0-.298-.049c-.11 0-.207.02-.294.059a.64.64 0 0 0-.353.399.94.94 0 0 0-.046.298Zm.868 1.61.095-.116a1.51 1.51 0 0 0 .084-.112 1.524 1.524 0 0 1-.732.172 1.48 1.48 0 0 1-.497-.088 1.362 1.362 0 0 1-.451-.273 1.39 1.39 0 0 1-.326-.458 1.568 1.568 0 0 1-.126-.655 1.645 1.645 0 0 1 .49-1.193c.16-.154.348-.275.567-.364.22-.091.465-.137.735-.137.276 0 .522.042.739.126a1.514 1.514 0 0 1 .896.896c.082.208.122.438.122.69 0 .334-.05.632-.15.896-.1.264-.235.512-.403.745l-1.099 1.561a.56.56 0 0 1-.224.172.768.768 0 0 1-.336.07h-1l1.616-1.932Z" fill="#FF9000"/><path d="M10.5 182h-9a1 1 0 0 0-1 1v9a1 1 0 0 0 1 1h9a1 1 0 0 0 1-1v-9a1 1 0 0 0-1-1Z" fill="url(#j)"/><path d="M5.67 189.716v.784H2.765v-.784h.98v-2.573a5.541 5.541 0 0 1 .014-.399l-.58.483a.352.352 0 0 1-.155.074.469.469 0 0 1-.14 0 .375.375 0 0 1-.119-.046.272.272 0 0 1-.077-.07l-.343-.455 1.59-1.333h.895v4.319h.84Zm4.197-1.768c0 .446-.048.832-.143 1.159a2.359 2.359 0 0 1-.4.812 1.58 1.58 0 0 1-.601.479 1.782 1.782 0 0 1-.753.158c-.27 0-.521-.052-.752-.158a1.594 1.594 0 0 1-.595-.479 2.398 2.398 0 0 1-.396-.812 4.249 4.249 0 0 1-.14-1.159c0-.445.047-.831.14-1.158.096-.327.228-.597.396-.812.168-.215.366-.373.595-.476.23-.105.482-.158.752-.158s.522.053.753.158c.233.103.434.261.602.476.17.215.303.485.399.812.095.327.143.713.143 1.158Zm-1.12 0c0-.352-.022-.64-.066-.864a1.741 1.741 0 0 0-.179-.532.624.624 0 0 0-.248-.263.603.603 0 0 0-.284-.073.603.603 0 0 0-.283.073.633.633 0 0 0-.245.263c-.07.128-.127.306-.172.532a4.839 4.839 0 0 0-.063.864c0 .355.021.644.063.868.045.224.102.402.172.532a.649.649 0 0 0 .245.266c.093.047.188.07.283.07.096 0 .19-.023.284-.07a.64.64 0 0 0 .248-.266 1.78 1.78 0 0 0 .179-.532c.044-.224.066-.513.066-.868Z" fill="#FF9000"/><path d="M10.5 200h-9a1 1 0 0 0-1 1v9a1 1 0 0 0 1 1h9a1 1 0 0 0 1-1v-9a1 1 0 0 0-1-1Z" fill="url(#k)"/><path d="M5.67 207.716v.784H2.765v-.784h.98v-2.573a5.541 5.541 0 0 1 .014-.399l-.58.483a.352.352 0 0 1-.155.074.469.469 0 0 1-.14 0 .375.375 0 0 1-.119-.046.272.272 0 0 1-.077-.07l-.343-.455 1.59-1.333h.895v4.319h.84Zm3.956 0v.784H6.72v-.784h.98v-2.573a5.541 5.541 0 0 1 .014-.399l-.581.483a.352.352 0 0 1-.154.074.469.469 0 0 1-.14 0 .375.375 0 0 1-.12-.046.272.272 0 0 1-.076-.07l-.343-.455 1.589-1.333h.896v4.319h.84Z" fill="#FF9000"/><path d="M10.5 218h-9a1 1 0 0 0-1 1v9a1 1 0 0 0 1 1h9a1 1 0 0 0 1-1v-9a1 1 0 0 0-1-1Z" fill="url(#l)"/><path d="M5.67 225.716v.784H2.765v-.784h.98v-2.573a5.541 5.541 0 0 1 .014-.399l-.58.483a.352.352 0 0 1-.155.074.469.469 0 0 1-.14 0 .375.375 0 0 1-.119-.046.272.272 0 0 1-.077-.07l-.343-.455 1.59-1.333h.895v4.319h.84Zm3.693-.196c.117 0 .21.033.277.098a.328.328 0 0 1 .101.252v.63H6.157v-.35c0-.068.014-.14.042-.217a.523.523 0 0 1 .147-.21l1.47-1.481a4.94 4.94 0 0 0 .33-.36 2.25 2.25 0 0 0 .23-.336 1.341 1.341 0 0 0 .182-.686c0-.203-.049-.358-.147-.466-.095-.109-.242-.164-.44-.164a.652.652 0 0 0-.638.444c-.049.129-.113.214-.192.256-.08.042-.193.051-.34.028l-.574-.102a1.94 1.94 0 0 1 .214-.665c.107-.189.239-.346.395-.472a1.61 1.61 0 0 1 .543-.28 2.19 2.19 0 0 1 .654-.095c.252 0 .479.038.68.112.202.073.375.174.517.305.143.131.251.287.326.469.077.18.115.378.115.595 0 .187-.027.359-.08.518a2.02 2.02 0 0 1-.214.455 3.233 3.233 0 0 1-.318.416 11.29 11.29 0 0 1-.382.406l-.997 1.022c.128-.039.255-.07.381-.091.126-.021.243-.031.35-.031h.952Z" fill="#FF9000"/><path d="M10.5 236h-9a1 1 0 0 0-1 1v9a1 1 0 0 0 1 1h9a1 1 0 0 0 1-1v-9a1 1 0 0 0-1-1Z" fill="url(#m)"/><path d="M5.67 243.716v.784H2.765v-.784h.98v-2.573a5.541 5.541 0 0 1 .014-.399l-.58.483a.352.352 0 0 1-.155.074.469.469 0 0 1-.14 0 .375.375 0 0 1-.119-.046.272.272 0 0 1-.077-.07l-.343-.455 1.59-1.333h.895v4.319h.84Zm.585-2.86a1.94 1.94 0 0 1 .214-.665c.107-.189.239-.346.395-.472a1.61 1.61 0 0 1 .543-.28 2.19 2.19 0 0 1 .654-.095c.252 0 .476.037.672.109.196.07.362.166.497.287a1.237 1.237 0 0 1 .413.927c0 .161-.016.304-.049.427a.972.972 0 0 1-.147.319.88.88 0 0 1-.238.227c-.093.061-.2.112-.322.154.565.199.847.584.847 1.155 0 .271-.049.507-.147.707a1.45 1.45 0 0 1-.395.501 1.695 1.695 0 0 1-.57.301 2.354 2.354 0 0 1-.68.098 2.49 2.49 0 0 1-.647-.077 1.536 1.536 0 0 1-.504-.245 1.67 1.67 0 0 1-.389-.427 2.916 2.916 0 0 1-.287-.616l.483-.196a.606.606 0 0 1 .35-.039.33.33 0 0 1 .231.161c.105.194.216.335.333.424a.692.692 0 0 0 .416.129.761.761 0 0 0 .315-.059.702.702 0 0 0 .224-.158.65.65 0 0 0 .137-.22.713.713 0 0 0 .045-.249c0-.109-.008-.207-.024-.294a.38.38 0 0 0-.126-.227.714.714 0 0 0-.319-.144 2.556 2.556 0 0 0-.588-.052v-.749c.213 0 .384-.016.515-.049a.792.792 0 0 0 .3-.133.41.41 0 0 0 .144-.21.984.984 0 0 0 .035-.27c0-.2-.049-.354-.147-.462-.095-.109-.242-.164-.44-.164a.652.652 0 0 0-.638.444c-.049.129-.113.214-.192.256-.08.042-.193.051-.34.028l-.574-.102Z" fill="#FF9000"/><path d="M10.5 254h-9a1 1 0 0 0-1 1v9a1 1 0 0 0 1 1h9a1 1 0 0 0 1-1v-9a1 1 0 0 0-1-1Z" fill="url(#n)"/><path d="M5.67 261.716v.784H2.765v-.784h.98v-2.573a5.541 5.541 0 0 1 .014-.399l-.58.483a.352.352 0 0 1-.155.074.469.469 0 0 1-.14 0 .375.375 0 0 1-.119-.046.272.272 0 0 1-.077-.07l-.343-.455 1.59-1.333h.895v4.319h.84Zm2.71-1.197v-1.33a5.3 5.3 0 0 1 .007-.263c.007-.095.016-.194.028-.297l-1.348 1.89H8.38Zm1.47 0v.609c0 .054-.019.1-.056.14-.035.04-.087.059-.154.059h-.315v1.173H8.38v-1.173H6.329a.302.302 0 0 1-.186-.063.269.269 0 0 1-.101-.157l-.112-.535 2.359-3.172h1.036v3.119h.525Z" fill="#FF9000"/><path d="M10.5 272h-9a1 1 0 0 0-1 1v9a1 1 0 0 0 1 1h9a1 1 0 0 0 1-1v-9a1 1 0 0 0-1-1Z" fill="url(#o)"/><path d="M5.67 279.716v.784H2.765v-.784h.98v-2.573a5.541 5.541 0 0 1 .014-.399l-.58.483a.352.352 0 0 1-.155.074.469.469 0 0 1-.14 0 .375.375 0 0 1-.119-.046.272.272 0 0 1-.077-.07l-.343-.455 1.59-1.333h.895v4.319h.84Zm1.831-2.52c.096-.019.188-.032.277-.039.088-.007.175-.01.259-.01.268 0 .505.041.71.122.206.082.378.194.518.336.14.14.245.306.315.497.073.189.109.392.109.609 0 .273-.05.523-.147.749-.096.224-.23.418-.403.581a1.815 1.815 0 0 1-.62.382 2.215 2.215 0 0 1-.783.133 2.11 2.11 0 0 1-.476-.052 2.466 2.466 0 0 1-.424-.141 2.435 2.435 0 0 1-.364-.206 2.472 2.472 0 0 1-.304-.252l.336-.448a.34.34 0 0 1 .122-.105.304.304 0 0 1 .15-.039c.07 0 .136.02.197.06.063.037.13.079.203.126.074.044.16.085.259.122.098.038.22.056.364.056a.887.887 0 0 0 .37-.07.67.67 0 0 0 .25-.196.778.778 0 0 0 .14-.29 1.36 1.36 0 0 0 .045-.357c0-.247-.07-.435-.21-.564-.14-.13-.339-.196-.595-.196-.229 0-.453.044-.672.13l-.672-.182.434-2.552h2.61v.448a.558.558 0 0 1-.034.203.412.412 0 0 1-.112.161.503.503 0 0 1-.196.105c-.082.024-.18.035-.294.035H7.645l-.144.844Z" fill="#FF9000"/><path d="M10.5 290h-9a1 1 0 0 0-1 1v9a1 1 0 0 0 1 1h9a1 1 0 0 0 1-1v-9a1 1 0 0 0-1-1Z" fill="url(#p)"/><path d="M5.67 297.716v.784H2.765v-.784h.98v-2.573a5.541 5.541 0 0 1 .014-.399l-.58.483a.352.352 0 0 1-.155.074.469.469 0 0 1-.14 0 .375.375 0 0 1-.119-.046.272.272 0 0 1-.077-.07l-.343-.455 1.59-1.333h.895v4.319h.84Zm2.3-.018a.766.766 0 0 0 .312-.063.77.77 0 0 0 .252-.171.834.834 0 0 0 .164-.259.97.97 0 0 0 .004-.676.702.702 0 0 0-.161-.259.71.71 0 0 0-.256-.161.925.925 0 0 0-.329-.056.74.74 0 0 0-.539.224.806.806 0 0 0-.154.259 1.167 1.167 0 0 0-.01.679c.03.101.077.187.14.259a.615.615 0 0 0 .238.168.918.918 0 0 0 .34.056Zm-.175-2.338a1.58 1.58 0 0 1 .546-.091c.185 0 .367.031.546.091a1.365 1.365 0 0 1 .826.76c.089.191.133.418.133.679 0 .238-.044.464-.133.679a1.7 1.7 0 0 1-.962.938c-.229.093-.482.14-.76.14a2.08 2.08 0 0 1-.766-.133 1.678 1.678 0 0 1-.578-.378 1.65 1.65 0 0 1-.36-.578 2.14 2.14 0 0 1-.123-.738c0-.502.194-1.012.581-1.53l1.148-1.55a.652.652 0 0 1 .231-.175.803.803 0 0 1 .35-.074h.966l-1.512 1.806-.133.154Z" fill="#FF9000"/><defs><linearGradient id="a" x1="6" y1="20" x2="6" y2="31" gradientUnits="userSpaceOnUse"><stop/><stop offset="1" stop-opacity=".25"/></linearGradient><linearGradient id="b" x1="6" y1="38" x2="6" y2="49" gradientUnits="userSpaceOnUse"><stop/><stop offset="1" stop-opacity=".25"/></linearGradient><linearGradient id="c" x1="6" y1="56" x2="6" y2="67" gradientUnits="userSpaceOnUse"><stop/><stop offset="1" stop-opacity=".25"/></linearGradient><linearGradient id="d" x1="6" y1="74" x2="6" y2="85" gradientUnits="userSpaceOnUse"><stop/><stop offset="1" stop-opacity=".25"/></linearGradient><linearGradient id="e" x1="6" y1="92" x2="6" y2="103" gradientUnits="userSpaceOnUse"><stop/><stop offset="1" stop-opacity=".25"/></linearGradient><linearGradient id="f" x1="6" y1="110" x2="6" y2="121" gradientUnits="userSpaceOnUse"><stop/><stop offset="1" stop-opacity=".25"/></linearGradient><linearGradient id="g" x1="6" y1="128" x2="6" y2="139" gradientUnits="userSpaceOnUse"><stop/><stop offset="1" stop-opacity=".25"/></linearGradient><linearGradient id="h" x1="6" y1="146" x2="6" y2="157" gradientUnits="userSpaceOnUse"><stop/><stop offset="1" stop-opacity=".25"/></linearGradient><linearGradient id="i" x1="6" y1="164" x2="6" y2="175" gradientUnits="userSpaceOnUse"><stop/><stop offset="1" stop-opacity=".25"/></linearGradient><linearGradient id="j" x1="6" y1="182" x2="6" y2="193" gradientUnits="userSpaceOnUse"><stop/><stop offset="1" stop-opacity=".25"/></linearGradient><linearGradient id="k" x1="6" y1="200" x2="6" y2="211" gradientUnits="userSpaceOnUse"><stop/><stop offset="1" stop-opacity=".25"/></linearGradient><linearGradient id="l" x1="6" y1="218" x2="6" y2="229" gradientUnits="userSpaceOnUse"><stop/><stop offset="1" stop-opacity=".25"/></linearGradient><linearGradient id="m" x1="6" y1="236" x2="6" y2="247" gradientUnits="userSpaceOnUse"><stop/><stop offset="1" stop-opacity=".25"/></linearGradient><linearGradient id="n" x1="6" y1="254" x2="6" y2="265" gradientUnits="userSpaceOnUse"><stop/><stop offset="1" stop-opacity=".25"/></linearGradient><linearGradient id="o" x1="6" y1="272" x2="6" y2="283" gradientUnits="userSpaceOnUse"><stop/><stop offset="1" stop-opacity=".25"/></linearGradient><linearGradient id="p" x1="6" y1="290" x2="6" y2="301" gradientUnits="userSpaceOnUse"><stop/><stop offset="1" stop-opacity=".25"/></linearGradient></defs></svg>