<svg width="49" height="28" fill="none" xmlns="http://www.w3.org/2000/svg"><path d="M.5 3.5a3 3 0 0 1 3-3h42a3 3 0 0 1 3 3v7a3 3 0 0 1-3 3h-42a3 3 0 0 1-3-3v-7Z" fill="url(#a)"/><path d="M11.892 4.216V10h-1.08V7.472H8.096V10h-1.08V4.216h1.08v2.488h2.716V4.216h1.08Zm2.703 1.616c.304 0 .58.05.828.148a1.794 1.794 0 0 1 1.052 1.084c.096.261.144.553.144.876 0 .325-.048.619-.144.88a1.87 1.87 0 0 1-.412.668c-.176.184-.39.325-.64.424a2.222 2.222 0 0 1-.828.148c-.307 0-.586-.05-.836-.148a1.808 1.808 0 0 1-.644-.424 1.949 1.949 0 0 1-.412-.668 2.538 2.538 0 0 1-.144-.88c0-.323.048-.615.144-.876.098-.261.236-.483.412-.664.178-.181.393-.321.644-.42.25-.099.529-.148.836-.148Zm0 3.468c.341 0 .593-.115.756-.344.165-.23.248-.565.248-1.008 0-.443-.083-.78-.248-1.012-.163-.232-.415-.348-.756-.348-.347 0-.604.117-.772.352-.166.232-.248.568-.248 1.008 0 .44.082.776.248 1.008.168.23.425.344.772.344Zm3.59-2.692c.127-.245.28-.437.455-.576a.966.966 0 0 1 .624-.212c.19 0 .342.041.456.124l-.064.74a.195.195 0 0 1-.06.104.16.16 0 0 1-.1.028c-.04 0-.1-.007-.18-.02a1.34 1.34 0 0 0-.228-.02.74.74 0 0 0-.524.188.973.973 0 0 0-.18.216 2.31 2.31 0 0 0-.144.292V10h-.988V5.896h.58c.102 0 .172.019.212.056.04.035.067.099.08.192l.06.464Zm2.956-.712V10h-.992V5.896h.992Zm.136-1.196a.562.562 0 0 1-.052.24.64.64 0 0 1-.14.196.663.663 0 0 1-.2.136.642.642 0 0 1-.492 0 .68.68 0 0 1-.332-.332.642.642 0 0 1 0-.488.62.62 0 0 1 .332-.332.6.6 0 0 1 .492 0 .607.607 0 0 1 .2.132.627.627 0 0 1 .192.448Zm3.7 1.604c0 .07-.013.137-.037.204a.468.468 0 0 1-.096.164L22.896 9.24h2.02V10h-3.168v-.412a.617.617 0 0 1 .128-.34l1.968-2.596h-1.98v-.756h3.112v.408Zm2.356-.472c.304 0 .58.05.828.148a1.794 1.794 0 0 1 1.052 1.084c.096.261.144.553.144.876 0 .325-.048.619-.144.88a1.87 1.87 0 0 1-.412.668 1.77 1.77 0 0 1-.64.424 2.222 2.222 0 0 1-.828.148c-.306 0-.585-.05-.836-.148a1.809 1.809 0 0 1-.644-.424 1.949 1.949 0 0 1-.412-.668 2.538 2.538 0 0 1-.144-.88c0-.323.048-.615.144-.876.1-.261.236-.483.412-.664.18-.181.394-.321.644-.42.251-.099.53-.148.836-.148Zm0 3.468c.342 0 .594-.115.756-.344.166-.23.248-.565.248-1.008 0-.443-.082-.78-.248-1.012-.162-.232-.414-.348-.756-.348-.346 0-.604.117-.772.352-.165.232-.248.568-.248 1.008 0 .44.083.776.248 1.008.168.23.426.344.772.344Zm3.582-2.9c.083-.083.17-.159.26-.228a1.597 1.597 0 0 1 .624-.296c.117-.03.245-.044.384-.044.224 0 .423.039.596.116.173.075.317.181.432.32.117.136.206.3.264.492.061.19.092.399.092.628V10h-.988V7.388c0-.25-.057-.444-.172-.58-.114-.139-.29-.208-.524-.208-.17 0-.33.039-.48.116a1.72 1.72 0 0 0-.424.316V10h-.988V5.896h.604c.128 0 .212.06.252.18l.068.324Zm4.785 3.664c-.357 0-.632-.1-.824-.3-.19-.203-.284-.481-.284-.836V6.636h-.42a.193.193 0 0 1-.136-.052c-.037-.035-.056-.087-.056-.156v-.392l.66-.108.208-1.12a.22.22 0 0 1 .076-.124.226.226 0 0 1 .144-.044h.512v1.292h1.096v.704H35.58V8.86c0 .128.03.228.092.3a.33.33 0 0 0 .26.108.488.488 0 0 0 .26-.068c.032-.016.06-.03.084-.044a.129.129 0 0 1 .072-.024c.03 0 .053.008.072.024a.282.282 0 0 1 .06.064l.296.48c-.144.12-.31.21-.496.272-.187.061-.38.092-.58.092Zm3.657-1.816a5.198 5.198 0 0 0-.72.076c-.195.035-.351.08-.468.136a.616.616 0 0 0-.252.196.426.426 0 0 0-.076.244c0 .173.05.297.152.372a.677.677 0 0 0 .404.112c.202 0 .377-.036.524-.108.149-.075.294-.187.436-.336v-.692Zm-2.264-1.78c.472-.432 1.04-.648 1.704-.648.24 0 .454.04.644.12a1.332 1.332 0 0 1 .776.828c.069.195.104.408.104.64V10h-.448a.472.472 0 0 1-.216-.04c-.051-.03-.091-.087-.12-.172l-.088-.296a3.892 3.892 0 0 1-.304.248 1.87 1.87 0 0 1-.308.176 1.845 1.845 0 0 1-1.224.08 1.079 1.079 0 0 1-.38-.212.943.943 0 0 1-.248-.348 1.234 1.234 0 0 1-.088-.484.945.945 0 0 1 .22-.604c.08-.093.182-.181.308-.264.125-.083.278-.155.46-.216.184-.061.397-.11.64-.148.242-.04.52-.064.832-.072v-.24c0-.275-.059-.477-.176-.608-.118-.133-.287-.2-.508-.2-.16 0-.294.019-.4.056a1.56 1.56 0 0 0-.276.128l-.22.124a.42.42 0 0 1-.216.056.293.293 0 0 1-.176-.052.477.477 0 0 1-.116-.128l-.176-.316Zm5.038-2.412V10h-.988V4.056h.988Z" fill="#DBDBDB"/><path d="M.5 17.5a3 3 0 0 1 3-3h42a3 3 0 0 1 3 3v7a3 3 0 0 1-3 3h-42a3 3 0 0 1-3-3v-7Z" fill="url(#b)"/><path d="M11.892 18.216V24h-1.08v-2.528H8.096V24h-1.08v-5.784h1.08v2.488h2.716v-2.488h1.08Zm2.703 1.616c.304 0 .58.05.828.148a1.795 1.795 0 0 1 1.052 1.084c.096.261.144.553.144.876 0 .325-.048.619-.144.88a1.87 1.87 0 0 1-.412.668 1.77 1.77 0 0 1-.64.424 2.221 2.221 0 0 1-.828.148c-.307 0-.586-.05-.836-.148a1.808 1.808 0 0 1-.644-.424 1.95 1.95 0 0 1-.412-.668 2.538 2.538 0 0 1-.144-.88c0-.323.048-.615.144-.876.098-.261.236-.483.412-.664.178-.181.393-.321.644-.42.25-.099.529-.148.836-.148Zm0 3.468c.341 0 .593-.115.756-.344.165-.23.248-.565.248-1.008 0-.443-.083-.78-.248-1.012-.163-.232-.415-.348-.756-.348-.347 0-.604.117-.772.352-.166.232-.248.568-.248 1.008 0 .44.082.776.248 1.008.168.23.425.344.772.344Zm3.59-2.692c.127-.245.28-.437.455-.576a.966.966 0 0 1 .624-.212c.19 0 .342.041.456.124l-.064.74a.195.195 0 0 1-.06.104.159.159 0 0 1-.1.028c-.04 0-.1-.007-.18-.02a1.343 1.343 0 0 0-.228-.02.741.741 0 0 0-.524.188.974.974 0 0 0-.18.216 2.31 2.31 0 0 0-.144.292V24h-.988v-4.104h.58c.102 0 .172.019.212.056.04.035.067.099.08.192l.06.464Zm2.956-.712V24h-.992v-4.104h.992Zm.136-1.196a.563.563 0 0 1-.052.24.64.64 0 0 1-.14.196.663.663 0 0 1-.2.136.642.642 0 0 1-.492 0 .68.68 0 0 1-.332-.332.642.642 0 0 1 0-.488.62.62 0 0 1 .332-.332.599.599 0 0 1 .492 0 .607.607 0 0 1 .2.132.628.628 0 0 1 .192.448Zm3.7 1.604c0 .07-.013.137-.037.204a.468.468 0 0 1-.096.164l-1.948 2.568h2.02V24h-3.168v-.412a.617.617 0 0 1 .128-.34l1.968-2.596h-1.98v-.756h3.112v.408Zm2.356-.472c.304 0 .58.05.828.148a1.795 1.795 0 0 1 1.052 1.084c.096.261.144.553.144.876 0 .325-.048.619-.144.88a1.87 1.87 0 0 1-.412.668 1.77 1.77 0 0 1-.64.424 2.221 2.221 0 0 1-.828.148c-.306 0-.585-.05-.836-.148a1.81 1.81 0 0 1-.644-.424 1.95 1.95 0 0 1-.412-.668 2.538 2.538 0 0 1-.144-.88c0-.323.048-.615.144-.876.1-.261.236-.483.412-.664.18-.181.394-.321.644-.42.251-.099.53-.148.836-.148Zm0 3.468c.342 0 .594-.115.756-.344.166-.23.248-.565.248-1.008 0-.443-.082-.78-.248-1.012-.162-.232-.414-.348-.756-.348-.346 0-.604.117-.772.352-.165.232-.248.568-.248 1.008 0 .44.083.776.248 1.008.168.23.426.344.772.344Zm3.582-2.9a2.6 2.6 0 0 1 .26-.228 1.597 1.597 0 0 1 .624-.296c.117-.03.245-.044.384-.044.224 0 .423.039.596.116.173.075.317.181.432.32.117.136.206.3.264.492.061.19.092.399.092.628V24h-.988v-2.612c0-.25-.057-.444-.172-.58-.114-.139-.29-.208-.524-.208-.17 0-.33.039-.48.116a1.72 1.72 0 0 0-.424.316V24h-.988v-4.104h.604c.128 0 .212.06.252.18l.068.324Zm4.785 3.664c-.357 0-.632-.1-.824-.3-.19-.203-.284-.481-.284-.836v-2.292h-.42a.193.193 0 0 1-.136-.052c-.037-.035-.056-.087-.056-.156v-.392l.66-.108.208-1.12a.22.22 0 0 1 .076-.124.227.227 0 0 1 .144-.044h.512v1.292h1.096v.704H35.58v2.224c0 .128.03.228.092.3a.33.33 0 0 0 .26.108.489.489 0 0 0 .26-.068c.032-.016.06-.03.084-.044a.129.129 0 0 1 .072-.024c.03 0 .053.008.072.024a.282.282 0 0 1 .06.064l.296.48c-.144.12-.31.21-.496.272-.187.061-.38.092-.58.092Zm3.657-1.816a5.198 5.198 0 0 0-.72.076 1.87 1.87 0 0 0-.468.136.615.615 0 0 0-.252.196.426.426 0 0 0-.076.244c0 .173.05.297.152.372a.677.677 0 0 0 .404.112c.202 0 .377-.036.524-.108.149-.075.294-.187.436-.336v-.692Zm-2.264-1.78c.472-.432 1.04-.648 1.704-.648.24 0 .454.04.644.12a1.332 1.332 0 0 1 .776.828c.069.195.104.408.104.64V24h-.448a.472.472 0 0 1-.216-.04c-.051-.03-.091-.087-.12-.172l-.088-.296a3.898 3.898 0 0 1-.304.248c-.099.07-.202.128-.308.176a1.845 1.845 0 0 1-1.224.08 1.08 1.08 0 0 1-.38-.212.942.942 0 0 1-.248-.348 1.234 1.234 0 0 1-.088-.484.945.945 0 0 1 .22-.604c.08-.093.182-.181.308-.264.125-.083.278-.155.46-.216.184-.061.397-.11.64-.148.242-.04.52-.064.832-.072v-.24c0-.275-.059-.477-.176-.608-.118-.133-.287-.2-.508-.2-.16 0-.294.019-.4.056-.104.037-.196.08-.276.128l-.22.124a.421.421 0 0 1-.216.056.292.292 0 0 1-.176-.052.476.476 0 0 1-.116-.128l-.176-.316Zm5.038-2.412V24h-.988v-5.944h.988Z" fill="#FF9000"/><defs><linearGradient id="a" x1="24.5" y1=".5" x2="24.5" y2="13.5" gradientUnits="userSpaceOnUse"><stop/><stop offset="1" stop-opacity=".25"/></linearGradient><linearGradient id="b" x1="24.5" y1="14.5" x2="24.5" y2="27.5" gradientUnits="userSpaceOnUse"><stop/><stop offset="1" stop-opacity=".25"/></linearGradient></defs></svg>