<svg width="11" height="22" fill="none" xmlns="http://www.w3.org/2000/svg"><path fill-rule="evenodd" clip-rule="evenodd" d="M.5 3.5a3 3 0 0 1 3-3h4a3 3 0 0 1 3 3v4a3 3 0 0 1-3 3h-4a3 3 0 0 1-3-3v-4Z" fill="url(#a)"/><path fill-rule="evenodd" clip-rule="evenodd" d="M.5 14.5a3 3 0 0 1 3-3h4a3 3 0 0 1 3 3v4a3 3 0 0 1-3 3h-4a3 3 0 0 1-3-3v-4Z" fill="url(#b)"/><path d="M2 14.98h3s.325-1.349 1-1.48 1.068.994 1.068.994L8 19.5" stroke="#FF9000"/><path d="M2 3.982h3s.325-1.35 1-1.481c.675-.132 1.068.994 1.068.994L8 8.5" stroke="#DBDBDB"/><defs><linearGradient id="a" x1="5.5" y1=".5" x2="5.5" y2="10.5" gradientUnits="userSpaceOnUse"><stop/><stop offset="1" stop-opacity=".25"/></linearGradient><linearGradient id="b" x1="5.5" y1="11.5" x2="5.5" y2="21.5" gradientUnits="userSpaceOnUse"><stop/><stop offset="1" stop-opacity=".25"/></linearGradient></defs></svg>