<svg width="51" height="117" fill="none" xmlns="http://www.w3.org/2000/svg"><path d="M48.5 2h-46v10h46V2Z" fill="url(#a)" fill-opacity=".3"/><path d="M47.5 2h-44a1 1 0 0 0-1 1v8a1 1 0 0 0 1 1h44a1 1 0 0 0 1-1V3a1 1 0 0 0-1-1Z" fill="url(#b)" fill-opacity=".3"/><path d="M47.5 2h-44a1 1 0 0 0-1 1v8a1 1 0 0 0 1 1h44a1 1 0 0 0 1-1V3a1 1 0 0 0-1-1Z" stroke="url(#c)" stroke-opacity=".3"/><path d="M48.5 53.5h-46v10h46v-10Z" fill="url(#d)" fill-opacity=".3"/><path d="M47.5 53.5h-44a1 1 0 0 0-1 1v8a1 1 0 0 0 1 1h44a1 1 0 0 0 1-1v-8a1 1 0 0 0-1-1Z" fill="url(#e)" fill-opacity=".3"/><path d="M47.5 53.5h-44a1 1 0 0 0-1 1v8a1 1 0 0 0 1 1h44a1 1 0 0 0 1-1v-8a1 1 0 0 0-1-1Z" stroke="url(#f)" stroke-opacity=".3"/><path d="M48.5 105h-46v10h46v-10Z" fill="url(#g)" fill-opacity=".3"/><path d="M47.5 105h-44a1 1 0 0 0-1 1v8a1 1 0 0 0 1 1h44a1 1 0 0 0 1-1v-8a1 1 0 0 0-1-1Z" fill="url(#h)" fill-opacity=".3"/><path d="M47.5 105h-44a1 1 0 0 0-1 1v8a1 1 0 0 0 1 1h44a1 1 0 0 0 1-1v-8a1 1 0 0 0-1-1Z" stroke="url(#i)" stroke-opacity=".3"/><defs><linearGradient id="a" x1="25.5" y1="2" x2="25.5" y2="12" gradientUnits="userSpaceOnUse"><stop stop-color="#FFEE58"/><stop offset="1" stop-color="#FFEE58" stop-opacity=".35"/></linearGradient><linearGradient id="b" x1="25.5" y1="2" x2="25.5" y2="12" gradientUnits="userSpaceOnUse"><stop stop-color="#FFEE58"/><stop offset="1" stop-color="#FFEE58" stop-opacity=".35"/></linearGradient><linearGradient id="c" x1="25.5" y1="2" x2="25.5" y2="12" gradientUnits="userSpaceOnUse"><stop stop-color="#FFEE58"/><stop offset="1" stop-color="#FFEE58" stop-opacity=".35"/></linearGradient><linearGradient id="d" x1="25.5" y1="53.5" x2="25.5" y2="63.5" gradientUnits="userSpaceOnUse"><stop stop-color="#FFEE58"/><stop offset="1" stop-color="#FFEE58" stop-opacity=".35"/></linearGradient><linearGradient id="e" x1="25.5" y1="53.5" x2="25.5" y2="63.5" gradientUnits="userSpaceOnUse"><stop stop-color="#FFEE58"/><stop offset="1" stop-color="#FFEE58" stop-opacity=".35"/></linearGradient><linearGradient id="f" x1="25.5" y1="53.5" x2="25.5" y2="63.5" gradientUnits="userSpaceOnUse"><stop stop-color="#FFEE58"/><stop offset="1" stop-color="#FFEE58" stop-opacity=".35"/></linearGradient><linearGradient id="g" x1="25.5" y1="105" x2="25.5" y2="115" gradientUnits="userSpaceOnUse"><stop stop-color="#FFEE58"/><stop offset="1" stop-color="#FFEE58" stop-opacity=".35"/></linearGradient><linearGradient id="h" x1="25.5" y1="105" x2="25.5" y2="115" gradientUnits="userSpaceOnUse"><stop stop-color="#FFEE58"/><stop offset="1" stop-color="#FFEE58" stop-opacity=".35"/></linearGradient><linearGradient id="i" x1="25.5" y1="105" x2="25.5" y2="115" gradientUnits="userSpaceOnUse"><stop stop-color="#FFEE58"/><stop offset="1" stop-color="#FFEE58" stop-opacity=".35"/></linearGradient></defs></svg>