<svg width="135" height="110" fill="none" xmlns="http://www.w3.org/2000/svg"><rect x="2.5" y="2.5" width="30" height="22" rx="1" fill="url(#a)" fill-opacity=".5"/><rect x="2.5" y="2.5" width="30" height="22" rx="1" stroke="url(#b)" stroke-opacity=".5"/><rect x="36" y="29.5" width="30" height="22" rx="1" fill="url(#c)" fill-opacity=".5"/><rect x="36" y="29.5" width="30" height="22" rx="1" stroke="url(#d)" stroke-opacity=".5"/><rect x="69.5" y="56.5" width="30" height="22" rx="1" fill="url(#e)" fill-opacity=".5"/><rect x="69.5" y="56.5" width="30" height="22" rx="1" stroke="url(#f)" stroke-opacity=".5"/><rect x="103" y="83.5" width="30" height="22" rx="1" fill="url(#g)" fill-opacity=".5"/><rect x="103" y="83.5" width="30" height="22" rx="1" stroke="url(#h)" stroke-opacity=".5"/><defs><linearGradient id="a" x1="17.5" y1="2.5" x2="17.5" y2="24.5" gradientUnits="userSpaceOnUse"><stop stop-color="#FFEE58"/><stop offset="1" stop-color="#FFEE58" stop-opacity=".35"/></linearGradient><linearGradient id="b" x1="17.5" y1="2.5" x2="17.5" y2="24.5" gradientUnits="userSpaceOnUse"><stop stop-color="#FFEE58"/><stop offset="1" stop-color="#FFEE58" stop-opacity=".35"/></linearGradient><linearGradient id="c" x1="51" y1="29.5" x2="51" y2="51.5" gradientUnits="userSpaceOnUse"><stop stop-color="#FFEE58"/><stop offset="1" stop-color="#FFEE58" stop-opacity=".35"/></linearGradient><linearGradient id="d" x1="51" y1="29.5" x2="51" y2="51.5" gradientUnits="userSpaceOnUse"><stop stop-color="#FFEE58"/><stop offset="1" stop-color="#FFEE58" stop-opacity=".35"/></linearGradient><linearGradient id="e" x1="84.5" y1="56.5" x2="84.5" y2="78.5" gradientUnits="userSpaceOnUse"><stop stop-color="#FFEE58"/><stop offset="1" stop-color="#FFEE58" stop-opacity=".35"/></linearGradient><linearGradient id="f" x1="84.5" y1="56.5" x2="84.5" y2="78.5" gradientUnits="userSpaceOnUse"><stop stop-color="#FFEE58"/><stop offset="1" stop-color="#FFEE58" stop-opacity=".35"/></linearGradient><linearGradient id="g" x1="118" y1="83.5" x2="118" y2="105.5" gradientUnits="userSpaceOnUse"><stop stop-color="#FFEE58"/><stop offset="1" stop-color="#FFEE58" stop-opacity=".35"/></linearGradient><linearGradient id="h" x1="118" y1="83.5" x2="118" y2="105.5" gradientUnits="userSpaceOnUse"><stop stop-color="#FFEE58"/><stop offset="1" stop-color="#FFEE58" stop-opacity=".35"/></linearGradient></defs></svg>