<svg width="12" height="34" fill="none" xmlns="http://www.w3.org/2000/svg"><path d="M7.786 21.5H4.214c-.394 0-.714.358-.714.8v6.4c0 .442.32.8.714.8h3.572c.394 0 .714-.358.714-.8v-6.4c0-.442-.32-.8-.714-.8Z" fill="url(#a)" fill-opacity=".5"/><path d="M7.786 21.25H4.214c-.558 0-.964.497-.964 1.05v6.4c0 .553.406 1.05.964 1.05h3.572c.558 0 .964-.497.964-1.05v-6.4c0-.553-.406-1.05-.964-1.05Z" stroke="url(#b)" stroke-opacity=".75" stroke-width=".5"/><path d="M8 3.5H4a.5.5 0 0 0-.5.5v7a.5.5 0 0 0 .5.5h4a.5.5 0 0 0 .5-.5V4a.5.5 0 0 0-.5-.5Z" fill="url(#c)" fill-opacity=".5"/><path d="M8 3.25H4a.75.75 0 0 0-.75.75v7c0 .414.336.75.75.75h4a.75.75 0 0 0 .75-.75V4A.75.75 0 0 0 8 3.25Z" stroke="url(#d)" stroke-opacity=".75" stroke-width=".5"/><defs><linearGradient id="a" x1="6" y1="21.5" x2="6" y2="29.5" gradientUnits="userSpaceOnUse"><stop stop-color="#FFEE58"/><stop offset="1" stop-color="#FFEE58" stop-opacity=".35"/></linearGradient><linearGradient id="b" x1="6" y1="21.5" x2="6" y2="29.5" gradientUnits="userSpaceOnUse"><stop stop-color="#FFEE58"/><stop offset="1" stop-color="#FFEE58" stop-opacity=".35"/></linearGradient><linearGradient id="c" x1="6" y1="3.5" x2="6" y2="11.5" gradientUnits="userSpaceOnUse"><stop stop-color="#FFEE58"/><stop offset="1" stop-color="#FFEE58" stop-opacity=".35"/></linearGradient><linearGradient id="d" x1="6" y1="3.5" x2="6" y2="11.5" gradientUnits="userSpaceOnUse"><stop stop-color="#FFEE58"/><stop offset="1" stop-color="#FFEE58" stop-opacity=".35"/></linearGradient></defs></svg>