<svg width="51" height="28" fill="none" xmlns="http://www.w3.org/2000/svg"><path d="M48.456 1.5H2.544c-.576 0-1.043.547-1.043 1.222v8.556c0 .675.467 1.222 1.043 1.222h45.913c.577 0 1.044-.547 1.044-1.222V2.722c0-.675-.467-1.222-1.044-1.222Z" fill="url(#a)" fill-opacity=".5" stroke="url(#b)" stroke-opacity=".5"/><path d="M48.5 15.5h-46a1 1 0 0 0-1 1v9a1 1 0 0 0 1 1h46a1 1 0 0 0 1-1v-9a1 1 0 0 0-1-1Z" fill="url(#c)" fill-opacity=".5" stroke="url(#d)" stroke-opacity=".5"/><defs><linearGradient id="a" x1="25.5" y1="1.5" x2="25.5" y2="12.5" gradientUnits="userSpaceOnUse"><stop stop-color="#FFEE58"/><stop offset="1" stop-color="#FFEE58" stop-opacity=".35"/></linearGradient><linearGradient id="b" x1="25.5" y1="1.5" x2="25.5" y2="12.5" gradientUnits="userSpaceOnUse"><stop stop-color="#FFEE58"/><stop offset="1" stop-color="#FFEE58" stop-opacity=".35"/></linearGradient><linearGradient id="c" x1="25.5" y1="15.5" x2="25.5" y2="26.5" gradientUnits="userSpaceOnUse"><stop stop-color="#FFEE58"/><stop offset="1" stop-color="#FFEE58" stop-opacity=".35"/></linearGradient><linearGradient id="d" x1="25.5" y1="15.5" x2="25.5" y2="26.5" gradientUnits="userSpaceOnUse"><stop stop-color="#FFEE58"/><stop offset="1" stop-color="#FFEE58" stop-opacity=".35"/></linearGradient></defs></svg>