<svg width="11" height="22" fill="none" xmlns="http://www.w3.org/2000/svg"><path fill-rule="evenodd" clip-rule="evenodd" d="M1 3.5A2.5 2.5 0 0 1 3.5 1h4A2.5 2.5 0 0 1 10 3.5v4A2.5 2.5 0 0 1 7.5 10h-4A2.5 2.5 0 0 1 1 7.5v-4Z" fill="url(#a)" fill-opacity=".5"/><path d="M1.5 3.5a2 2 0 0 1 2-2h4a2 2 0 0 1 2 2v4a2 2 0 0 1-2 2h-4a2 2 0 0 1-2-2v-4Z" stroke="url(#b)" stroke-opacity=".5"/><path fill-rule="evenodd" clip-rule="evenodd" d="M1 14.5A2.5 2.5 0 0 1 3.5 12h4a2.5 2.5 0 0 1 2.5 2.5v4A2.5 2.5 0 0 1 7.5 21h-4A2.5 2.5 0 0 1 1 18.5v-4Z" fill="url(#c)" fill-opacity=".5"/><path d="M1.5 14.5a2 2 0 0 1 2-2h4a2 2 0 0 1 2 2v4a2 2 0 0 1-2 2h-4a2 2 0 0 1-2-2v-4Z" stroke="url(#d)" stroke-opacity=".5"/><defs><linearGradient id="a" x1="5.5" y1="1" x2="5.5" y2="10" gradientUnits="userSpaceOnUse"><stop stop-color="#FFEE58"/><stop offset="1" stop-color="#FFEE58" stop-opacity=".35"/></linearGradient><linearGradient id="b" x1="5.5" y1="1" x2="5.5" y2="10" gradientUnits="userSpaceOnUse"><stop stop-color="#FFEE58"/><stop offset="1" stop-color="#FFEE58" stop-opacity=".35"/></linearGradient><linearGradient id="c" x1="5.5" y1="12" x2="5.5" y2="21" gradientUnits="userSpaceOnUse"><stop stop-color="#FFEE58"/><stop offset="1" stop-color="#FFEE58" stop-opacity=".35"/></linearGradient><linearGradient id="d" x1="5.5" y1="12" x2="5.5" y2="21" gradientUnits="userSpaceOnUse"><stop stop-color="#FFEE58"/><stop offset="1" stop-color="#FFEE58" stop-opacity=".35"/></linearGradient></defs></svg>