<svg width="51" height="760" fill="none" xmlns="http://www.w3.org/2000/svg"><rect x="2.5" y="2.5" width="21" height="11" rx="1" fill="url(#a)" fill-opacity=".5"/><rect x="2.5" y="2.5" width="21" height="11" rx="1" stroke="url(#b)" stroke-opacity=".5"/><rect x="27.5" y="78.5" width="21" height="11" rx="1" fill="url(#c)" fill-opacity=".5"/><rect x="27.5" y="78.5" width="21" height="11" rx="1" stroke="url(#d)" stroke-opacity=".5"/><rect x="2.5" y="169.5" width="21" height="11" rx="1" fill="url(#e)" fill-opacity=".5"/><rect x="2.5" y="169.5" width="21" height="11" rx="1" stroke="url(#f)" stroke-opacity=".5"/><path transform="translate(27.5 245.5)" fill="url(#g)" fill-opacity=".5" d="M0 0h21v11H0z"/><rect x="27.5" y="245.5" width="21" height="11" rx="1" fill="url(#h)" fill-opacity=".5"/><rect x="27.5" y="245.5" width="21" height="11" rx="1" stroke="url(#i)" stroke-opacity=".5"/><path transform="translate(2.5 336.5)" fill="url(#j)" fill-opacity=".5" d="M0 0h21v11H0z"/><rect x="2.5" y="336.5" width="21" height="11" rx="1" fill="url(#k)" fill-opacity=".5"/><rect x="2.5" y="336.5" width="21" height="11" rx="1" stroke="url(#l)" stroke-opacity=".5"/><rect x="27.5" y="412.5" width="21" height="11" rx="1" fill="url(#m)" fill-opacity=".5"/><rect x="27.5" y="412.5" width="21" height="11" rx="1" stroke="url(#n)" stroke-opacity=".5"/><rect x="2.5" y="503.5" width="21" height="11" rx="1" fill="url(#o)" fill-opacity=".5"/><rect x="2.5" y="503.5" width="21" height="11" rx="1" stroke="url(#p)" stroke-opacity=".5"/><rect x="27.5" y="579.5" width="21" height="11" rx="1" fill="url(#q)" fill-opacity=".5"/><rect x="27.5" y="579.5" width="21" height="11" rx="1" stroke="url(#r)" stroke-opacity=".5"/><path transform="translate(2.5 670.5)" fill="url(#s)" fill-opacity=".5" d="M0 0h21v11H0z"/><rect x="2.5" y="670.5" width="21" height="11" rx="1" fill="url(#t)" fill-opacity=".5"/><rect x="2.5" y="670.5" width="21" height="11" rx="1" stroke="url(#u)" stroke-opacity=".5"/><rect x="27.5" y="746.5" width="21" height="11" rx="1" fill="url(#v)" fill-opacity=".5"/><rect x="27.5" y="746.5" width="21" height="11" rx="1" stroke="url(#w)" stroke-opacity=".5"/><defs><linearGradient id="a" x1="13" y1="2.5" x2="13" y2="13.5" gradientUnits="userSpaceOnUse"><stop stop-color="#FFEE58"/><stop offset="1" stop-color="#FFEE58" stop-opacity=".35"/></linearGradient><linearGradient id="b" x1="13" y1="2.5" x2="13" y2="13.5" gradientUnits="userSpaceOnUse"><stop stop-color="#FFEE58"/><stop offset="1" stop-color="#FFEE58" stop-opacity=".35"/></linearGradient><linearGradient id="c" x1="38" y1="78.5" x2="38" y2="89.5" gradientUnits="userSpaceOnUse"><stop stop-color="#FFEE58"/><stop offset="1" stop-color="#FFEE58" stop-opacity=".35"/></linearGradient><linearGradient id="d" x1="38" y1="78.5" x2="38" y2="89.5" gradientUnits="userSpaceOnUse"><stop stop-color="#FFEE58"/><stop offset="1" stop-color="#FFEE58" stop-opacity=".35"/></linearGradient><linearGradient id="e" x1="13" y1="169.5" x2="13" y2="180.5" gradientUnits="userSpaceOnUse"><stop stop-color="#FFEE58"/><stop offset="1" stop-color="#FFEE58" stop-opacity=".35"/></linearGradient><linearGradient id="f" x1="13" y1="169.5" x2="13" y2="180.5" gradientUnits="userSpaceOnUse"><stop stop-color="#FFEE58"/><stop offset="1" stop-color="#FFEE58" stop-opacity=".35"/></linearGradient><linearGradient id="g" x1="10.5" y1="0" x2="10.5" y2="11" gradientUnits="userSpaceOnUse"><stop stop-color="#FFEE58"/><stop offset="1" stop-color="#FFEE58" stop-opacity=".35"/></linearGradient><linearGradient id="h" x1="38" y1="245.5" x2="38" y2="256.5" gradientUnits="userSpaceOnUse"><stop stop-color="#FFEE58"/><stop offset="1" stop-color="#FFEE58" stop-opacity=".35"/></linearGradient><linearGradient id="i" x1="38" y1="245.5" x2="38" y2="256.5" gradientUnits="userSpaceOnUse"><stop stop-color="#FFEE58"/><stop offset="1" stop-color="#FFEE58" stop-opacity=".35"/></linearGradient><linearGradient id="j" x1="10.5" y1="0" x2="10.5" y2="11" gradientUnits="userSpaceOnUse"><stop stop-color="#FFEE58"/><stop offset="1" stop-color="#FFEE58" stop-opacity=".35"/></linearGradient><linearGradient id="k" x1="13" y1="336.5" x2="13" y2="347.5" gradientUnits="userSpaceOnUse"><stop stop-color="#FFEE58"/><stop offset="1" stop-color="#FFEE58" stop-opacity=".35"/></linearGradient><linearGradient id="l" x1="13" y1="336.5" x2="13" y2="347.5" gradientUnits="userSpaceOnUse"><stop stop-color="#FFEE58"/><stop offset="1" stop-color="#FFEE58" stop-opacity=".35"/></linearGradient><linearGradient id="m" x1="38" y1="412.5" x2="38" y2="423.5" gradientUnits="userSpaceOnUse"><stop stop-color="#FFEE58"/><stop offset="1" stop-color="#FFEE58" stop-opacity=".35"/></linearGradient><linearGradient id="n" x1="38" y1="412.5" x2="38" y2="423.5" gradientUnits="userSpaceOnUse"><stop stop-color="#FFEE58"/><stop offset="1" stop-color="#FFEE58" stop-opacity=".35"/></linearGradient><linearGradient id="o" x1="13" y1="503.5" x2="13" y2="514.5" gradientUnits="userSpaceOnUse"><stop stop-color="#FFEE58"/><stop offset="1" stop-color="#FFEE58" stop-opacity=".35"/></linearGradient><linearGradient id="p" x1="13" y1="503.5" x2="13" y2="514.5" gradientUnits="userSpaceOnUse"><stop stop-color="#FFEE58"/><stop offset="1" stop-color="#FFEE58" stop-opacity=".35"/></linearGradient><linearGradient id="q" x1="38" y1="579.5" x2="38" y2="590.5" gradientUnits="userSpaceOnUse"><stop stop-color="#FFEE58"/><stop offset="1" stop-color="#FFEE58" stop-opacity=".35"/></linearGradient><linearGradient id="r" x1="38" y1="579.5" x2="38" y2="590.5" gradientUnits="userSpaceOnUse"><stop stop-color="#FFEE58"/><stop offset="1" stop-color="#FFEE58" stop-opacity=".35"/></linearGradient><linearGradient id="s" x1="10.5" y1="0" x2="10.5" y2="11" gradientUnits="userSpaceOnUse"><stop stop-color="#FFEE58"/><stop offset="1" stop-color="#FFEE58" stop-opacity=".35"/></linearGradient><linearGradient id="t" x1="13" y1="670.5" x2="13" y2="681.5" gradientUnits="userSpaceOnUse"><stop stop-color="#FFEE58"/><stop offset="1" stop-color="#FFEE58" stop-opacity=".35"/></linearGradient><linearGradient id="u" x1="13" y1="670.5" x2="13" y2="681.5" gradientUnits="userSpaceOnUse"><stop stop-color="#FFEE58"/><stop offset="1" stop-color="#FFEE58" stop-opacity=".35"/></linearGradient><linearGradient id="v" x1="38" y1="746.5" x2="38" y2="757.5" gradientUnits="userSpaceOnUse"><stop stop-color="#FFEE58"/><stop offset="1" stop-color="#FFEE58" stop-opacity=".35"/></linearGradient><linearGradient id="w" x1="38" y1="746.5" x2="38" y2="757.5" gradientUnits="userSpaceOnUse"><stop stop-color="#FFEE58"/><stop offset="1" stop-color="#FFEE58" stop-opacity=".35"/></linearGradient></defs></svg>