<svg width="40" height="168" fill="none" xmlns="http://www.w3.org/2000/svg"><rect x="2.5" y="2" width="35" height="8" rx="1" fill="url(#a)" fill-opacity=".5"/><rect x="2.5" y="2" width="35" height="8" rx="1" stroke="url(#b)" stroke-opacity=".5"/><rect x="2.5" y="54" width="35" height="8" rx="1" fill="url(#c)" fill-opacity=".5"/><rect x="2.5" y="54" width="35" height="8" rx="1" stroke="url(#d)" stroke-opacity=".5"/><rect x="2.5" y="106" width="35" height="8" rx="1" fill="url(#e)" fill-opacity=".5"/><rect x="2.5" y="106" width="35" height="8" rx="1" stroke="url(#f)" stroke-opacity=".5"/><rect x="2.5" y="158" width="35" height="8" rx="1" fill="url(#g)" fill-opacity=".5"/><rect x="2.5" y="158" width="35" height="8" rx="1" stroke="url(#h)" stroke-opacity=".5"/><defs><linearGradient id="a" x1="20" y1="2" x2="20" y2="10" gradientUnits="userSpaceOnUse"><stop stop-color="#FFEE58"/><stop offset="1" stop-color="#FFEE58" stop-opacity=".35"/></linearGradient><linearGradient id="b" x1="20" y1="2" x2="20" y2="10" gradientUnits="userSpaceOnUse"><stop stop-color="#FFEE58"/><stop offset="1" stop-color="#FFEE58" stop-opacity=".35"/></linearGradient><linearGradient id="c" x1="20" y1="54" x2="20" y2="62" gradientUnits="userSpaceOnUse"><stop stop-color="#FFEE58"/><stop offset="1" stop-color="#FFEE58" stop-opacity=".35"/></linearGradient><linearGradient id="d" x1="20" y1="54" x2="20" y2="62" gradientUnits="userSpaceOnUse"><stop stop-color="#FFEE58"/><stop offset="1" stop-color="#FFEE58" stop-opacity=".35"/></linearGradient><linearGradient id="e" x1="20" y1="106" x2="20" y2="114" gradientUnits="userSpaceOnUse"><stop stop-color="#FFEE58"/><stop offset="1" stop-color="#FFEE58" stop-opacity=".35"/></linearGradient><linearGradient id="f" x1="20" y1="106" x2="20" y2="114" gradientUnits="userSpaceOnUse"><stop stop-color="#FFEE58"/><stop offset="1" stop-color="#FFEE58" stop-opacity=".35"/></linearGradient><linearGradient id="g" x1="20" y1="158" x2="20" y2="166" gradientUnits="userSpaceOnUse"><stop stop-color="#FFEE58"/><stop offset="1" stop-color="#FFEE58" stop-opacity=".35"/></linearGradient><linearGradient id="h" x1="20" y1="158" x2="20" y2="166" gradientUnits="userSpaceOnUse"><stop stop-color="#FFEE58"/><stop offset="1" stop-color="#FFEE58" stop-opacity=".35"/></linearGradient></defs></svg>