<svg width="11" height="11" fill="none" xmlns="http://www.w3.org/2000/svg"><path d="M.5 2.5a2 2 0 0 1 2-2h6a2 2 0 0 1 2 2v6a2 2 0 0 1-2 2h-6a2 2 0 0 1-2-2v-6Z" fill="url(#a)" fill-opacity=".5"/><path d="M1 2.5A1.5 1.5 0 0 1 2.5 1h6A1.5 1.5 0 0 1 10 2.5v6A1.5 1.5 0 0 1 8.5 10h-6A1.5 1.5 0 0 1 1 8.5v-6Z" stroke="url(#b)" stroke-opacity=".5"/><defs><linearGradient id="a" x1="5.5" y1=".5" x2="5.5" y2="10.5" gradientUnits="userSpaceOnUse"><stop stop-color="#FFEE58"/><stop offset="1" stop-color="#FFEE58" stop-opacity=".35"/></linearGradient><linearGradient id="b" x1="5.5" y1=".5" x2="5.5" y2="10.5" gradientUnits="userSpaceOnUse"><stop stop-color="#FFEE58"/><stop offset="1" stop-color="#FFEE58" stop-opacity=".35"/></linearGradient></defs></svg>