<svg width="32" height="24" fill="none" xmlns="http://www.w3.org/2000/svg"><path d="M2 8a2 2 0 0 0 2 2h10V2H4a2 2 0 0 0-2 2v4Z" fill="url(#a)" fill-opacity=".5"/><path d="M14 10h.5v.5H14V10Zm0-8v-.5h.5V2H14ZM4 9.5h10v1H4v-1Zm9.5.5V2h1v8h-1Zm.5-7.5H4v-1h10v1ZM2.5 4v4h-1V4h1ZM4 2.5A1.5 1.5 0 0 0 2.5 4h-1A2.5 2.5 0 0 1 4 1.5v1Zm0 8A2.5 2.5 0 0 1 1.5 8h1A1.5 1.5 0 0 0 4 9.5v1Z" fill="url(#b)" fill-opacity=".5"/><path d="M30 20a2 2 0 0 1-2 2H18v-8h10a2 2 0 0 1 2 2v4Z" fill="url(#c)" fill-opacity=".5"/><path d="M18 22h-.5v.5h.5V22Zm0-8v-.5h-.5v.5h.5Zm10 7.5H18v1h10v-1Zm-9.5.5v-8h-1v8h1Zm-.5-7.5h10v-1H18v1ZM29.5 16v4h1v-4h-1ZM28 14.5a1.5 1.5 0 0 1 1.5 1.5h1a2.5 2.5 0 0 0-2.5-2.5v1Zm0 8a2.5 2.5 0 0 0 2.5-2.5h-1a1.5 1.5 0 0 1-1.5 1.5v1Z" fill="url(#d)" fill-opacity=".5"/><defs><linearGradient id="a" x1="8" y1="10" x2="8" y2="2" gradientUnits="userSpaceOnUse"><stop stop-color="#FFEE58" stop-opacity=".35"/><stop offset="1" stop-color="#FFEE58"/></linearGradient><linearGradient id="b" x1="8" y1="10" x2="8" y2="2" gradientUnits="userSpaceOnUse"><stop stop-color="#FFEE58"/><stop offset="1" stop-color="#FFEE58" stop-opacity=".35"/></linearGradient><linearGradient id="c" x1="24" y1="22" x2="24" y2="14" gradientUnits="userSpaceOnUse"><stop stop-color="#FFEE58" stop-opacity=".35"/><stop offset="1" stop-color="#FFEE58"/></linearGradient><linearGradient id="d" x1="24" y1="22" x2="24" y2="14" gradientUnits="userSpaceOnUse"><stop stop-color="#FFEE58"/><stop offset="1" stop-color="#FFEE58" stop-opacity=".35"/></linearGradient></defs></svg>