<svg width="134" height="416" fill="none" xmlns="http://www.w3.org/2000/svg"><rect x="2" y="44" width="15" height="6" rx="1" fill="url(#a)" fill-opacity=".5"/><rect x="2" y="44" width="15" height="6" rx="1" stroke="url(#b)" stroke-opacity=".5"/><rect x="18.5" y="96" width="15" height="6" rx="1" fill="url(#c)" fill-opacity=".5"/><rect x="18.5" y="96" width="15" height="6" rx="1" stroke="url(#d)" stroke-opacity=".5"/><rect x="35" y="148" width="15" height="6" rx="1" fill="url(#e)" fill-opacity=".5"/><rect x="35" y="148" width="15" height="6" rx="1" stroke="url(#f)" stroke-opacity=".5"/><rect x="51.5" y="200" width="15" height="6" rx="1" fill="url(#g)" fill-opacity=".5"/><rect x="51.5" y="200" width="15" height="6" rx="1" stroke="url(#h)" stroke-opacity=".5"/><rect x="68" y="252" width="15" height="6" rx="1" fill="url(#i)" fill-opacity=".5"/><rect x="68" y="252" width="15" height="6" rx="1" stroke="url(#j)" stroke-opacity=".5"/><rect x="84.5" y="304" width="15" height="6" rx="1" fill="url(#k)" fill-opacity=".5"/><rect x="84.5" y="304" width="15" height="6" rx="1" stroke="url(#l)" stroke-opacity=".5"/><rect x="101" y="356" width="18" height="6" rx="1" fill="url(#m)" fill-opacity=".5"/><rect x="101" y="356" width="18" height="6" rx="1" stroke="url(#n)" stroke-opacity=".5"/><rect x="121.5" y="408" width="10" height="6" rx="1" fill="url(#o)" fill-opacity=".5"/><rect x="121.5" y="408" width="10" height="6" rx="1" stroke="url(#p)" stroke-opacity=".5"/><defs><linearGradient id="a" x1="9.5" y1="44" x2="9.5" y2="50" gradientUnits="userSpaceOnUse"><stop stop-color="#FFEE58"/><stop offset="1" stop-color="#FFEE58" stop-opacity=".35"/></linearGradient><linearGradient id="b" x1="9.5" y1="44" x2="9.5" y2="50" gradientUnits="userSpaceOnUse"><stop stop-color="#FFEE58"/><stop offset="1" stop-color="#FFEE58" stop-opacity=".35"/></linearGradient><linearGradient id="c" x1="26" y1="96" x2="26" y2="102" gradientUnits="userSpaceOnUse"><stop stop-color="#FFEE58"/><stop offset="1" stop-color="#FFEE58" stop-opacity=".35"/></linearGradient><linearGradient id="d" x1="26" y1="96" x2="26" y2="102" gradientUnits="userSpaceOnUse"><stop stop-color="#FFEE58"/><stop offset="1" stop-color="#FFEE58" stop-opacity=".35"/></linearGradient><linearGradient id="e" x1="42.5" y1="148" x2="42.5" y2="154" gradientUnits="userSpaceOnUse"><stop stop-color="#FFEE58"/><stop offset="1" stop-color="#FFEE58" stop-opacity=".35"/></linearGradient><linearGradient id="f" x1="42.5" y1="148" x2="42.5" y2="154" gradientUnits="userSpaceOnUse"><stop stop-color="#FFEE58"/><stop offset="1" stop-color="#FFEE58" stop-opacity=".35"/></linearGradient><linearGradient id="g" x1="59" y1="200" x2="59" y2="206" gradientUnits="userSpaceOnUse"><stop stop-color="#FFEE58"/><stop offset="1" stop-color="#FFEE58" stop-opacity=".35"/></linearGradient><linearGradient id="h" x1="59" y1="200" x2="59" y2="206" gradientUnits="userSpaceOnUse"><stop stop-color="#FFEE58"/><stop offset="1" stop-color="#FFEE58" stop-opacity=".35"/></linearGradient><linearGradient id="i" x1="75.5" y1="252" x2="75.5" y2="258" gradientUnits="userSpaceOnUse"><stop stop-color="#FFEE58"/><stop offset="1" stop-color="#FFEE58" stop-opacity=".35"/></linearGradient><linearGradient id="j" x1="75.5" y1="252" x2="75.5" y2="258" gradientUnits="userSpaceOnUse"><stop stop-color="#FFEE58"/><stop offset="1" stop-color="#FFEE58" stop-opacity=".35"/></linearGradient><linearGradient id="k" x1="92" y1="304" x2="92" y2="310" gradientUnits="userSpaceOnUse"><stop stop-color="#FFEE58"/><stop offset="1" stop-color="#FFEE58" stop-opacity=".35"/></linearGradient><linearGradient id="l" x1="92" y1="304" x2="92" y2="310" gradientUnits="userSpaceOnUse"><stop stop-color="#FFEE58"/><stop offset="1" stop-color="#FFEE58" stop-opacity=".35"/></linearGradient><linearGradient id="m" x1="110" y1="356" x2="110" y2="362" gradientUnits="userSpaceOnUse"><stop stop-color="#FFEE58"/><stop offset="1" stop-color="#FFEE58" stop-opacity=".35"/></linearGradient><linearGradient id="n" x1="110" y1="356" x2="110" y2="362" gradientUnits="userSpaceOnUse"><stop stop-color="#FFEE58"/><stop offset="1" stop-color="#FFEE58" stop-opacity=".35"/></linearGradient><linearGradient id="o" x1="126.5" y1="408" x2="126.5" y2="414" gradientUnits="userSpaceOnUse"><stop stop-color="#FFEE58"/><stop offset="1" stop-color="#FFEE58" stop-opacity=".35"/></linearGradient><linearGradient id="p" x1="126.5" y1="408" x2="126.5" y2="414" gradientUnits="userSpaceOnUse"><stop stop-color="#FFEE58"/><stop offset="1" stop-color="#FFEE58" stop-opacity=".35"/></linearGradient></defs></svg>