<svg width="134" height="416" fill="none" xmlns="http://www.w3.org/2000/svg"><path d="M15.5 44H3a1 1 0 0 0-1 1v4a1 1 0 0 0 1 1h12.5a1 1 0 0 0 1-1v-4a1 1 0 0 0-1-1Z" fill="url(#a)" fill-opacity=".5"/><path d="M15.5 44H3a1 1 0 0 0-1 1v4a1 1 0 0 0 1 1h12.5a1 1 0 0 0 1-1v-4a1 1 0 0 0-1-1Z" stroke="url(#b)" stroke-opacity=".5"/><path d="M32 96H19.5a1 1 0 0 0-1 1v4a1 1 0 0 0 1 1H32a1 1 0 0 0 1-1v-4a1 1 0 0 0-1-1Z" fill="url(#c)" fill-opacity=".5"/><path d="M32 96H19.5a1 1 0 0 0-1 1v4a1 1 0 0 0 1 1H32a1 1 0 0 0 1-1v-4a1 1 0 0 0-1-1Z" stroke="url(#d)" stroke-opacity=".5"/><path d="M48.5 148H36a1 1 0 0 0-1 1v4a1 1 0 0 0 1 1h12.5a1 1 0 0 0 1-1v-4a1 1 0 0 0-1-1Z" fill="url(#e)" fill-opacity=".5"/><path d="M48.5 148H36a1 1 0 0 0-1 1v4a1 1 0 0 0 1 1h12.5a1 1 0 0 0 1-1v-4a1 1 0 0 0-1-1Z" stroke="url(#f)" stroke-opacity=".5"/><path d="M65 200H52.5a1 1 0 0 0-1 1v4a1 1 0 0 0 1 1H65a1 1 0 0 0 1-1v-4a1 1 0 0 0-1-1Z" fill="url(#g)" fill-opacity=".5"/><path d="M65 200H52.5a1 1 0 0 0-1 1v4a1 1 0 0 0 1 1H65a1 1 0 0 0 1-1v-4a1 1 0 0 0-1-1Z" stroke="url(#h)" stroke-opacity=".5"/><path d="M81.5 252H69a1 1 0 0 0-1 1v4a1 1 0 0 0 1 1h12.5a1 1 0 0 0 1-1v-4a1 1 0 0 0-1-1Z" fill="url(#i)" fill-opacity=".5"/><path d="M81.5 252H69a1 1 0 0 0-1 1v4a1 1 0 0 0 1 1h12.5a1 1 0 0 0 1-1v-4a1 1 0 0 0-1-1Z" stroke="url(#j)" stroke-opacity=".5"/><path d="M98 304H85.5a1 1 0 0 0-1 1v4a1 1 0 0 0 1 1H98a1 1 0 0 0 1-1v-4a1 1 0 0 0-1-1Z" fill="url(#k)" fill-opacity=".5"/><path d="M98 304H85.5a1 1 0 0 0-1 1v4a1 1 0 0 0 1 1H98a1 1 0 0 0 1-1v-4a1 1 0 0 0-1-1Z" stroke="url(#l)" stroke-opacity=".5"/><path d="M118 356h-16a1 1 0 0 0-1 1v4a1 1 0 0 0 1 1h16a1 1 0 0 0 1-1v-4a1 1 0 0 0-1-1Z" fill="url(#m)" fill-opacity=".5"/><path d="M118 356h-16a1 1 0 0 0-1 1v4a1 1 0 0 0 1 1h16a1 1 0 0 0 1-1v-4a1 1 0 0 0-1-1Z" stroke="url(#n)" stroke-opacity=".5"/><path d="M130.5 408h-8a1 1 0 0 0-1 1v4a1 1 0 0 0 1 1h8a1 1 0 0 0 1-1v-4a1 1 0 0 0-1-1Z" fill="url(#o)" fill-opacity=".5"/><path d="M130.5 408h-8a1 1 0 0 0-1 1v4a1 1 0 0 0 1 1h8a1 1 0 0 0 1-1v-4a1 1 0 0 0-1-1Z" stroke="url(#p)" stroke-opacity=".5"/><defs><linearGradient id="a" x1="9.25" y1="44" x2="9.25" y2="50" gradientUnits="userSpaceOnUse"><stop stop-color="#FFEE58"/><stop offset="1" stop-color="#FFEE58" stop-opacity=".35"/></linearGradient><linearGradient id="b" x1="9.25" y1="44" x2="9.25" y2="50" gradientUnits="userSpaceOnUse"><stop stop-color="#FFEE58"/><stop offset="1" stop-color="#FFEE58" stop-opacity=".35"/></linearGradient><linearGradient id="c" x1="25.75" y1="96" x2="25.75" y2="102" gradientUnits="userSpaceOnUse"><stop stop-color="#FFEE58"/><stop offset="1" stop-color="#FFEE58" stop-opacity=".35"/></linearGradient><linearGradient id="d" x1="25.75" y1="96" x2="25.75" y2="102" gradientUnits="userSpaceOnUse"><stop stop-color="#FFEE58"/><stop offset="1" stop-color="#FFEE58" stop-opacity=".35"/></linearGradient><linearGradient id="e" x1="42.25" y1="148" x2="42.25" y2="154" gradientUnits="userSpaceOnUse"><stop stop-color="#FFEE58"/><stop offset="1" stop-color="#FFEE58" stop-opacity=".35"/></linearGradient><linearGradient id="f" x1="42.25" y1="148" x2="42.25" y2="154" gradientUnits="userSpaceOnUse"><stop stop-color="#FFEE58"/><stop offset="1" stop-color="#FFEE58" stop-opacity=".35"/></linearGradient><linearGradient id="g" x1="58.75" y1="200" x2="58.75" y2="206" gradientUnits="userSpaceOnUse"><stop stop-color="#FFEE58"/><stop offset="1" stop-color="#FFEE58" stop-opacity=".35"/></linearGradient><linearGradient id="h" x1="58.75" y1="200" x2="58.75" y2="206" gradientUnits="userSpaceOnUse"><stop stop-color="#FFEE58"/><stop offset="1" stop-color="#FFEE58" stop-opacity=".35"/></linearGradient><linearGradient id="i" x1="75.25" y1="252" x2="75.25" y2="258" gradientUnits="userSpaceOnUse"><stop stop-color="#FFEE58"/><stop offset="1" stop-color="#FFEE58" stop-opacity=".35"/></linearGradient><linearGradient id="j" x1="75.25" y1="252" x2="75.25" y2="258" gradientUnits="userSpaceOnUse"><stop stop-color="#FFEE58"/><stop offset="1" stop-color="#FFEE58" stop-opacity=".35"/></linearGradient><linearGradient id="k" x1="91.75" y1="304" x2="91.75" y2="310" gradientUnits="userSpaceOnUse"><stop stop-color="#FFEE58"/><stop offset="1" stop-color="#FFEE58" stop-opacity=".35"/></linearGradient><linearGradient id="l" x1="91.75" y1="304" x2="91.75" y2="310" gradientUnits="userSpaceOnUse"><stop stop-color="#FFEE58"/><stop offset="1" stop-color="#FFEE58" stop-opacity=".35"/></linearGradient><linearGradient id="m" x1="110" y1="356" x2="110" y2="362" gradientUnits="userSpaceOnUse"><stop stop-color="#FFEE58"/><stop offset="1" stop-color="#FFEE58" stop-opacity=".35"/></linearGradient><linearGradient id="n" x1="110" y1="356" x2="110" y2="362" gradientUnits="userSpaceOnUse"><stop stop-color="#FFEE58"/><stop offset="1" stop-color="#FFEE58" stop-opacity=".35"/></linearGradient><linearGradient id="o" x1="126.5" y1="408" x2="126.5" y2="414" gradientUnits="userSpaceOnUse"><stop stop-color="#FFEE58"/><stop offset="1" stop-color="#FFEE58" stop-opacity=".35"/></linearGradient><linearGradient id="p" x1="126.5" y1="408" x2="126.5" y2="414" gradientUnits="userSpaceOnUse"><stop stop-color="#FFEE58"/><stop offset="1" stop-color="#FFEE58" stop-opacity=".35"/></linearGradient></defs></svg>