<svg width="50" height="282" fill="none" xmlns="http://www.w3.org/2000/svg"><rect x="1" y="55.25" width="48" height="7" rx="1" fill="url(#a)" fill-opacity=".5"/><rect x="1" y="55.25" width="48" height="7" rx="1" stroke="url(#b)" stroke-opacity=".5"/><rect x="1" y="110" width="48" height="7" rx="1" fill="url(#c)" fill-opacity=".5"/><rect x="1" y="110" width="48" height="7" rx="1" stroke="url(#d)" stroke-opacity=".5"/><rect x="1" y="164.75" width="48" height="7" rx="1" fill="url(#e)" fill-opacity=".5"/><rect x="1" y="164.75" width="48" height="7" rx="1" stroke="url(#f)" stroke-opacity=".5"/><rect x="1" y="219.5" width="48" height="7" rx="1" fill="url(#g)" fill-opacity=".5"/><rect x="1" y="219.5" width="48" height="7" rx="1" stroke="url(#h)" stroke-opacity=".5"/><rect x="1" y="274.25" width="48" height="7" rx="1" fill="url(#i)" fill-opacity=".5"/><rect x="1" y="274.25" width="48" height="7" rx="1" stroke="url(#j)" stroke-opacity=".5"/><rect x="1" y=".5" width="48" height="7" rx="1" fill="url(#k)" fill-opacity=".5"/><rect x="1" y=".5" width="48" height="7" rx="1" stroke="url(#l)" stroke-opacity=".5"/><defs><linearGradient id="a" x1="25" y1="55.25" x2="25" y2="62.25" gradientUnits="userSpaceOnUse"><stop stop-color="#FFEE58"/><stop offset="1" stop-color="#FFEE58" stop-opacity=".35"/></linearGradient><linearGradient id="b" x1="25" y1="55.25" x2="25" y2="62.25" gradientUnits="userSpaceOnUse"><stop stop-color="#FFEE58"/><stop offset="1" stop-color="#FFEE58" stop-opacity=".35"/></linearGradient><linearGradient id="c" x1="25" y1="110" x2="25" y2="117" gradientUnits="userSpaceOnUse"><stop stop-color="#FFEE58"/><stop offset="1" stop-color="#FFEE58" stop-opacity=".35"/></linearGradient><linearGradient id="d" x1="25" y1="110" x2="25" y2="117" gradientUnits="userSpaceOnUse"><stop stop-color="#FFEE58"/><stop offset="1" stop-color="#FFEE58" stop-opacity=".35"/></linearGradient><linearGradient id="e" x1="25" y1="164.75" x2="25" y2="171.75" gradientUnits="userSpaceOnUse"><stop stop-color="#FFEE58"/><stop offset="1" stop-color="#FFEE58" stop-opacity=".35"/></linearGradient><linearGradient id="f" x1="25" y1="164.75" x2="25" y2="171.75" gradientUnits="userSpaceOnUse"><stop stop-color="#FFEE58"/><stop offset="1" stop-color="#FFEE58" stop-opacity=".35"/></linearGradient><linearGradient id="g" x1="25" y1="219.5" x2="25" y2="226.5" gradientUnits="userSpaceOnUse"><stop stop-color="#FFEE58"/><stop offset="1" stop-color="#FFEE58" stop-opacity=".35"/></linearGradient><linearGradient id="h" x1="25" y1="219.5" x2="25" y2="226.5" gradientUnits="userSpaceOnUse"><stop stop-color="#FFEE58"/><stop offset="1" stop-color="#FFEE58" stop-opacity=".35"/></linearGradient><linearGradient id="i" x1="25" y1="274.25" x2="25" y2="281.25" gradientUnits="userSpaceOnUse"><stop stop-color="#FFEE58"/><stop offset="1" stop-color="#FFEE58" stop-opacity=".35"/></linearGradient><linearGradient id="j" x1="25" y1="274.25" x2="25" y2="281.25" gradientUnits="userSpaceOnUse"><stop stop-color="#FFEE58"/><stop offset="1" stop-color="#FFEE58" stop-opacity=".35"/></linearGradient><linearGradient id="k" x1="25" y1=".5" x2="25" y2="7.5" gradientUnits="userSpaceOnUse"><stop stop-color="#FFEE58"/><stop offset="1" stop-color="#FFEE58" stop-opacity=".35"/></linearGradient><linearGradient id="l" x1="25" y1=".5" x2="25" y2="7.5" gradientUnits="userSpaceOnUse"><stop stop-color="#FFEE58"/><stop offset="1" stop-color="#FFEE58" stop-opacity=".35"/></linearGradient></defs></svg>