<svg width="51" height="760" fill="none" xmlns="http://www.w3.org/2000/svg"><path d="M22.5 2.5h-19a1 1 0 0 0-1 1v9a1 1 0 0 0 1 1h19a1 1 0 0 0 1-1v-9a1 1 0 0 0-1-1Z" fill="url(#a)" fill-opacity=".5"/><path d="M22.5 2.5h-19a1 1 0 0 0-1 1v9a1 1 0 0 0 1 1h19a1 1 0 0 0 1-1v-9a1 1 0 0 0-1-1Z" stroke="url(#b)" stroke-opacity=".5"/><path d="M47.5 78.5h-19a1 1 0 0 0-1 1v9a1 1 0 0 0 1 1h19a1 1 0 0 0 1-1v-9a1 1 0 0 0-1-1Z" fill="url(#c)" fill-opacity=".5"/><path d="M47.5 78.5h-19a1 1 0 0 0-1 1v9a1 1 0 0 0 1 1h19a1 1 0 0 0 1-1v-9a1 1 0 0 0-1-1Z" stroke="url(#d)" stroke-opacity=".5"/><path d="M22.5 169.5h-19a1 1 0 0 0-1 1v9a1 1 0 0 0 1 1h19a1 1 0 0 0 1-1v-9a1 1 0 0 0-1-1Z" fill="url(#e)" fill-opacity=".5"/><path d="M22.5 169.5h-19a1 1 0 0 0-1 1v9a1 1 0 0 0 1 1h19a1 1 0 0 0 1-1v-9a1 1 0 0 0-1-1Z" stroke="url(#f)" stroke-opacity=".5"/><path d="M48.5 245.5h-21v11h21v-11Z" fill="url(#g)" fill-opacity=".5"/><path d="M47.5 245.5h-19a1 1 0 0 0-1 1v9a1 1 0 0 0 1 1h19a1 1 0 0 0 1-1v-9a1 1 0 0 0-1-1Z" fill="url(#h)" fill-opacity=".5"/><path d="M47.5 245.5h-19a1 1 0 0 0-1 1v9a1 1 0 0 0 1 1h19a1 1 0 0 0 1-1v-9a1 1 0 0 0-1-1Z" stroke="url(#i)" stroke-opacity=".5"/><path d="M23.5 336.5h-21v11h21v-11Z" fill="url(#j)" fill-opacity=".5"/><path d="M22.5 336.5h-19a1 1 0 0 0-1 1v9a1 1 0 0 0 1 1h19a1 1 0 0 0 1-1v-9a1 1 0 0 0-1-1Z" fill="url(#k)" fill-opacity=".5"/><path d="M22.5 336.5h-19a1 1 0 0 0-1 1v9a1 1 0 0 0 1 1h19a1 1 0 0 0 1-1v-9a1 1 0 0 0-1-1Z" stroke="url(#l)" stroke-opacity=".5"/><path d="M47.5 412.5h-19a1 1 0 0 0-1 1v9a1 1 0 0 0 1 1h19a1 1 0 0 0 1-1v-9a1 1 0 0 0-1-1Z" fill="url(#m)" fill-opacity=".5"/><path d="M47.5 412.5h-19a1 1 0 0 0-1 1v9a1 1 0 0 0 1 1h19a1 1 0 0 0 1-1v-9a1 1 0 0 0-1-1Z" stroke="url(#n)" stroke-opacity=".5"/><path d="M22.5 503.5h-19a1 1 0 0 0-1 1v9a1 1 0 0 0 1 1h19a1 1 0 0 0 1-1v-9a1 1 0 0 0-1-1Z" fill="url(#o)" fill-opacity=".5"/><path d="M22.5 503.5h-19a1 1 0 0 0-1 1v9a1 1 0 0 0 1 1h19a1 1 0 0 0 1-1v-9a1 1 0 0 0-1-1Z" stroke="url(#p)" stroke-opacity=".5"/><path d="M47.5 579.5h-19a1 1 0 0 0-1 1v9a1 1 0 0 0 1 1h19a1 1 0 0 0 1-1v-9a1 1 0 0 0-1-1Z" fill="url(#q)" fill-opacity=".5"/><path d="M47.5 579.5h-19a1 1 0 0 0-1 1v9a1 1 0 0 0 1 1h19a1 1 0 0 0 1-1v-9a1 1 0 0 0-1-1Z" stroke="url(#r)" stroke-opacity=".5"/><path d="M23.5 670.5h-21v11h21v-11Z" fill="url(#s)" fill-opacity=".5"/><path d="M22.5 670.5h-19a1 1 0 0 0-1 1v9a1 1 0 0 0 1 1h19a1 1 0 0 0 1-1v-9a1 1 0 0 0-1-1Z" fill="url(#t)" fill-opacity=".5"/><path d="M22.5 670.5h-19a1 1 0 0 0-1 1v9a1 1 0 0 0 1 1h19a1 1 0 0 0 1-1v-9a1 1 0 0 0-1-1Z" stroke="url(#u)" stroke-opacity=".5"/><path d="M47.5 746.5h-19a1 1 0 0 0-1 1v9a1 1 0 0 0 1 1h19a1 1 0 0 0 1-1v-9a1 1 0 0 0-1-1Z" fill="url(#v)" fill-opacity=".5"/><path d="M47.5 746.5h-19a1 1 0 0 0-1 1v9a1 1 0 0 0 1 1h19a1 1 0 0 0 1-1v-9a1 1 0 0 0-1-1Z" stroke="url(#w)" stroke-opacity=".5"/><defs><linearGradient id="a" x1="13" y1="2.5" x2="13" y2="13.5" gradientUnits="userSpaceOnUse"><stop stop-color="#FFEE58"/><stop offset="1" stop-color="#FFEE58" stop-opacity=".35"/></linearGradient><linearGradient id="b" x1="13" y1="2.5" x2="13" y2="13.5" gradientUnits="userSpaceOnUse"><stop stop-color="#FFEE58"/><stop offset="1" stop-color="#FFEE58" stop-opacity=".35"/></linearGradient><linearGradient id="c" x1="38" y1="78.5" x2="38" y2="89.5" gradientUnits="userSpaceOnUse"><stop stop-color="#FFEE58"/><stop offset="1" stop-color="#FFEE58" stop-opacity=".35"/></linearGradient><linearGradient id="d" x1="38" y1="78.5" x2="38" y2="89.5" gradientUnits="userSpaceOnUse"><stop stop-color="#FFEE58"/><stop offset="1" stop-color="#FFEE58" stop-opacity=".35"/></linearGradient><linearGradient id="e" x1="13" y1="169.5" x2="13" y2="180.5" gradientUnits="userSpaceOnUse"><stop stop-color="#FFEE58"/><stop offset="1" stop-color="#FFEE58" stop-opacity=".35"/></linearGradient><linearGradient id="f" x1="13" y1="169.5" x2="13" y2="180.5" gradientUnits="userSpaceOnUse"><stop stop-color="#FFEE58"/><stop offset="1" stop-color="#FFEE58" stop-opacity=".35"/></linearGradient><linearGradient id="g" x1="38" y1="245.5" x2="38" y2="256.5" gradientUnits="userSpaceOnUse"><stop stop-color="#FFEE58"/><stop offset="1" stop-color="#FFEE58" stop-opacity=".35"/></linearGradient><linearGradient id="h" x1="38" y1="245.5" x2="38" y2="256.5" gradientUnits="userSpaceOnUse"><stop stop-color="#FFEE58"/><stop offset="1" stop-color="#FFEE58" stop-opacity=".35"/></linearGradient><linearGradient id="i" x1="38" y1="245.5" x2="38" y2="256.5" gradientUnits="userSpaceOnUse"><stop stop-color="#FFEE58"/><stop offset="1" stop-color="#FFEE58" stop-opacity=".35"/></linearGradient><linearGradient id="j" x1="13" y1="336.5" x2="13" y2="347.5" gradientUnits="userSpaceOnUse"><stop stop-color="#FFEE58"/><stop offset="1" stop-color="#FFEE58" stop-opacity=".35"/></linearGradient><linearGradient id="k" x1="13" y1="336.5" x2="13" y2="347.5" gradientUnits="userSpaceOnUse"><stop stop-color="#FFEE58"/><stop offset="1" stop-color="#FFEE58" stop-opacity=".35"/></linearGradient><linearGradient id="l" x1="13" y1="336.5" x2="13" y2="347.5" gradientUnits="userSpaceOnUse"><stop stop-color="#FFEE58"/><stop offset="1" stop-color="#FFEE58" stop-opacity=".35"/></linearGradient><linearGradient id="m" x1="38" y1="412.5" x2="38" y2="423.5" gradientUnits="userSpaceOnUse"><stop stop-color="#FFEE58"/><stop offset="1" stop-color="#FFEE58" stop-opacity=".35"/></linearGradient><linearGradient id="n" x1="38" y1="412.5" x2="38" y2="423.5" gradientUnits="userSpaceOnUse"><stop stop-color="#FFEE58"/><stop offset="1" stop-color="#FFEE58" stop-opacity=".35"/></linearGradient><linearGradient id="o" x1="13" y1="503.5" x2="13" y2="514.5" gradientUnits="userSpaceOnUse"><stop stop-color="#FFEE58"/><stop offset="1" stop-color="#FFEE58" stop-opacity=".35"/></linearGradient><linearGradient id="p" x1="13" y1="503.5" x2="13" y2="514.5" gradientUnits="userSpaceOnUse"><stop stop-color="#FFEE58"/><stop offset="1" stop-color="#FFEE58" stop-opacity=".35"/></linearGradient><linearGradient id="q" x1="38" y1="579.5" x2="38" y2="590.5" gradientUnits="userSpaceOnUse"><stop stop-color="#FFEE58"/><stop offset="1" stop-color="#FFEE58" stop-opacity=".35"/></linearGradient><linearGradient id="r" x1="38" y1="579.5" x2="38" y2="590.5" gradientUnits="userSpaceOnUse"><stop stop-color="#FFEE58"/><stop offset="1" stop-color="#FFEE58" stop-opacity=".35"/></linearGradient><linearGradient id="s" x1="13" y1="670.5" x2="13" y2="681.5" gradientUnits="userSpaceOnUse"><stop stop-color="#FFEE58"/><stop offset="1" stop-color="#FFEE58" stop-opacity=".35"/></linearGradient><linearGradient id="t" x1="13" y1="670.5" x2="13" y2="681.5" gradientUnits="userSpaceOnUse"><stop stop-color="#FFEE58"/><stop offset="1" stop-color="#FFEE58" stop-opacity=".35"/></linearGradient><linearGradient id="u" x1="13" y1="670.5" x2="13" y2="681.5" gradientUnits="userSpaceOnUse"><stop stop-color="#FFEE58"/><stop offset="1" stop-color="#FFEE58" stop-opacity=".35"/></linearGradient><linearGradient id="v" x1="38" y1="746.5" x2="38" y2="757.5" gradientUnits="userSpaceOnUse"><stop stop-color="#FFEE58"/><stop offset="1" stop-color="#FFEE58" stop-opacity=".35"/></linearGradient><linearGradient id="w" x1="38" y1="746.5" x2="38" y2="757.5" gradientUnits="userSpaceOnUse"><stop stop-color="#FFEE58"/><stop offset="1" stop-color="#FFEE58" stop-opacity=".35"/></linearGradient></defs></svg>