<svg width="47" height="20" fill="none" xmlns="http://www.w3.org/2000/svg"><path d="M44.5 1h-42a1 1 0 0 0-1 1v6a1 1 0 0 0 1 1h42a1 1 0 0 0 1-1V2a1 1 0 0 0-1-1Z" fill="url(#a)" fill-opacity=".5"/><path d="M44.5 1h-42a1 1 0 0 0-1 1v6a1 1 0 0 0 1 1h42a1 1 0 0 0 1-1V2a1 1 0 0 0-1-1Z" stroke="url(#b)" stroke-opacity=".5"/><path d="M44.5 11h-42a1 1 0 0 0-1 1v6a1 1 0 0 0 1 1h42a1 1 0 0 0 1-1v-6a1 1 0 0 0-1-1Z" fill="url(#c)" fill-opacity=".5"/><path d="M44.5 11h-42a1 1 0 0 0-1 1v6a1 1 0 0 0 1 1h42a1 1 0 0 0 1-1v-6a1 1 0 0 0-1-1Z" stroke="url(#d)" stroke-opacity=".5"/><defs><linearGradient id="a" x1="23.5" y1="1" x2="23.5" y2="9" gradientUnits="userSpaceOnUse"><stop stop-color="#FFEE58"/><stop offset="1" stop-color="#FFEE58" stop-opacity=".35"/></linearGradient><linearGradient id="b" x1="23.5" y1="1" x2="23.5" y2="9" gradientUnits="userSpaceOnUse"><stop stop-color="#FFEE58"/><stop offset="1" stop-color="#FFEE58" stop-opacity=".35"/></linearGradient><linearGradient id="c" x1="23.5" y1="11" x2="23.5" y2="19" gradientUnits="userSpaceOnUse"><stop stop-color="#FFEE58"/><stop offset="1" stop-color="#FFEE58" stop-opacity=".35"/></linearGradient><linearGradient id="d" x1="23.5" y1="11" x2="23.5" y2="19" gradientUnits="userSpaceOnUse"><stop stop-color="#FFEE58"/><stop offset="1" stop-color="#FFEE58" stop-opacity=".35"/></linearGradient></defs></svg>