<svg width="134" height="208" fill="none" xmlns="http://www.w3.org/2000/svg"><path d="M128.512 200h-28a1 1 0 0 0-1 1v4a1 1 0 0 0 1 1h28a1 1 0 0 0 1-1v-4a1 1 0 0 0-1-1Z" fill="url(#a)" fill-opacity=".5"/><path d="M128.512 200h-28a1 1 0 0 0-1 1v4a1 1 0 0 0 1 1h28a1 1 0 0 0 1-1v-4a1 1 0 0 0-1-1Z" stroke="url(#b)" stroke-opacity=".5"/><path opacity=".5" d="M38 188h-1v9.012h46V193h-1v3H38v-8Z" fill="#6E6E6E"/><g opacity=".5" fill="#6E6E6E"><path opacity=".5" fill-rule="evenodd" clip-rule="evenodd" d="M29 188v2l-4-2.5 4-2.5v3Z"/><path opacity=".5" d="M45 188H28.5v-1H45v1Z"/></g><path d="M96.512 148h-28a1 1 0 0 0-1 1v4a1 1 0 0 0 1 1h28a1 1 0 0 0 1-1v-4a1 1 0 0 0-1-1Z" fill="url(#c)" fill-opacity=".5"/><path d="M96.512 148h-28a1 1 0 0 0-1 1v4a1 1 0 0 0 1 1h28a1 1 0 0 0 1-1v-4a1 1 0 0 0-1-1Z" stroke="url(#d)" stroke-opacity=".5"/><g opacity=".5" fill="#6E6E6E"><path opacity=".5" fill-rule="evenodd" clip-rule="evenodd" d="M61 136v2l-4-2.5 4-2.5v3Z"/><path opacity=".5" d="M77 136H60.5v-1H77v1Z"/></g><g opacity=".5" fill="#6E6E6E"><path opacity=".5" fill-rule="evenodd" clip-rule="evenodd" d="M29 136v2l-4-2.5 4-2.5v3Z"/><path opacity=".5" d="M45 136H28.5v-1H45v1Z"/></g><path d="M64.512 96h-28a1 1 0 0 0-1 1v4a1 1 0 0 0 1 1h28a1 1 0 0 0 1-1v-4a1 1 0 0 0-1-1Z" fill="url(#e)" fill-opacity=".5"/><path d="M64.512 96h-28a1 1 0 0 0-1 1v4a1 1 0 0 0 1 1h28a1 1 0 0 0 1-1v-4a1 1 0 0 0-1-1Z" stroke="url(#f)" stroke-opacity=".5"/><g opacity=".5" fill="#6E6E6E"><path opacity=".5" fill-rule="evenodd" clip-rule="evenodd" d="M29 84v2l-4-2.5 4-2.5v3Z"/><path opacity=".5" d="M45 84H28.5v-1H45v1Z"/></g><path d="M32.5 44h-28a1 1 0 0 0-1 1v4a1 1 0 0 0 1 1h28a1 1 0 0 0 1-1v-4a1 1 0 0 0-1-1Z" fill="url(#g)" fill-opacity=".5"/><path d="M32.5 44h-28a1 1 0 0 0-1 1v4a1 1 0 0 0 1 1h28a1 1 0 0 0 1-1v-4a1 1 0 0 0-1-1Z" stroke="url(#h)" stroke-opacity=".5"/><defs><linearGradient id="a" x1="114.512" y1="200" x2="114.512" y2="206" gradientUnits="userSpaceOnUse"><stop stop-color="#FFEE58"/><stop offset="1" stop-color="#FFEE58" stop-opacity=".35"/></linearGradient><linearGradient id="b" x1="114.512" y1="200" x2="114.512" y2="206" gradientUnits="userSpaceOnUse"><stop stop-color="#FFEE58"/><stop offset="1" stop-color="#FFEE58" stop-opacity=".35"/></linearGradient><linearGradient id="c" x1="82.512" y1="148" x2="82.512" y2="154" gradientUnits="userSpaceOnUse"><stop stop-color="#FFEE58"/><stop offset="1" stop-color="#FFEE58" stop-opacity=".35"/></linearGradient><linearGradient id="d" x1="82.512" y1="148" x2="82.512" y2="154" gradientUnits="userSpaceOnUse"><stop stop-color="#FFEE58"/><stop offset="1" stop-color="#FFEE58" stop-opacity=".35"/></linearGradient><linearGradient id="e" x1="50.512" y1="96" x2="50.512" y2="102" gradientUnits="userSpaceOnUse"><stop stop-color="#FFEE58"/><stop offset="1" stop-color="#FFEE58" stop-opacity=".35"/></linearGradient><linearGradient id="f" x1="50.512" y1="96" x2="50.512" y2="102" gradientUnits="userSpaceOnUse"><stop stop-color="#FFEE58"/><stop offset="1" stop-color="#FFEE58" stop-opacity=".35"/></linearGradient><linearGradient id="g" x1="18.5" y1="44" x2="18.5" y2="50" gradientUnits="userSpaceOnUse"><stop stop-color="#FFEE58"/><stop offset="1" stop-color="#FFEE58" stop-opacity=".35"/></linearGradient><linearGradient id="h" x1="18.5" y1="44" x2="18.5" y2="50" gradientUnits="userSpaceOnUse"><stop stop-color="#FFEE58"/><stop offset="1" stop-color="#FFEE58" stop-opacity=".35"/></linearGradient></defs></svg>