<svg width="20" height="180" fill="none" xmlns="http://www.w3.org/2000/svg"><path opacity=".75" d="M6 1H0v16h6V1Z" fill="url(#a)" fill-opacity=".75"/><path opacity=".75" d="M13 19H7v16h6V19Z" fill="url(#b)" fill-opacity=".75"/><path opacity=".75" d="M20 37h-6v16h6V37Z" fill="url(#c)" fill-opacity=".75"/><path opacity=".75" d="M6 55H0v16h6V55Z" fill="url(#d)" fill-opacity=".75"/><path opacity=".75" d="M13 73H7v16h6V73Z" fill="url(#e)" fill-opacity=".75"/><path opacity=".75" d="M20 91h-6v16h6V91Z" fill="url(#f)" fill-opacity=".75"/><path opacity=".75" d="M6 109H0v16h6v-16Z" fill="url(#g)" fill-opacity=".75"/><path opacity=".75" d="M13 127H7v16h6v-16Z" fill="url(#h)" fill-opacity=".75"/><path opacity=".75" d="M20 145h-6v16h6v-16Z" fill="url(#i)" fill-opacity=".75"/><defs><linearGradient id="a" x1="3" y1="1" x2="3" y2="17" gradientUnits="userSpaceOnUse"><stop stop-color="#FFEE58"/><stop offset="1" stop-color="#FFEE58" stop-opacity=".35"/></linearGradient><linearGradient id="b" x1="10" y1="19" x2="10" y2="35" gradientUnits="userSpaceOnUse"><stop stop-color="#FFEE58"/><stop offset="1" stop-color="#FFEE58" stop-opacity=".35"/></linearGradient><linearGradient id="c" x1="17" y1="37" x2="17" y2="53" gradientUnits="userSpaceOnUse"><stop stop-color="#FFEE58"/><stop offset="1" stop-color="#FFEE58" stop-opacity=".35"/></linearGradient><linearGradient id="d" x1="3" y1="55" x2="3" y2="71" gradientUnits="userSpaceOnUse"><stop stop-color="#FFEE58"/><stop offset="1" stop-color="#FFEE58" stop-opacity=".35"/></linearGradient><linearGradient id="e" x1="10" y1="73" x2="10" y2="89" gradientUnits="userSpaceOnUse"><stop stop-color="#FFEE58"/><stop offset="1" stop-color="#FFEE58" stop-opacity=".35"/></linearGradient><linearGradient id="f" x1="17" y1="91" x2="17" y2="107" gradientUnits="userSpaceOnUse"><stop stop-color="#FFEE58"/><stop offset="1" stop-color="#FFEE58" stop-opacity=".35"/></linearGradient><linearGradient id="g" x1="3" y1="109" x2="3" y2="125" gradientUnits="userSpaceOnUse"><stop stop-color="#FFEE58"/><stop offset="1" stop-color="#FFEE58" stop-opacity=".35"/></linearGradient><linearGradient id="h" x1="10" y1="127" x2="10" y2="143" gradientUnits="userSpaceOnUse"><stop stop-color="#FFEE58"/><stop offset="1" stop-color="#FFEE58" stop-opacity=".35"/></linearGradient><linearGradient id="i" x1="17" y1="145" x2="17" y2="161" gradientUnits="userSpaceOnUse"><stop stop-color="#FFEE58"/><stop offset="1" stop-color="#FFEE58" stop-opacity=".35"/></linearGradient></defs></svg>