<svg width="11" height="22" fill="none" xmlns="http://www.w3.org/2000/svg"><path d="M8.25 2.5h-5.5a.25.25 0 0 0-.25.25v5.5c0 .138.112.25.25.25h5.5a.25.25 0 0 0 .25-.25v-5.5a.25.25 0 0 0-.25-.25Z" fill="url(#a)" fill-opacity=".5"/><path d="M8.25 2.25h-5.5a.5.5 0 0 0-.5.5v5.5a.5.5 0 0 0 .5.5h5.5a.5.5 0 0 0 .5-.5v-5.5a.5.5 0 0 0-.5-.5Z" stroke="url(#b)" stroke-opacity=".75" stroke-width=".5"/><path d="M8.25 13.5h-5.5a.25.25 0 0 0-.25.25v5.5c0 .138.112.25.25.25h5.5a.25.25 0 0 0 .25-.25v-5.5a.25.25 0 0 0-.25-.25Z" fill="url(#c)" fill-opacity=".5"/><path d="M8.25 13.25h-5.5a.5.5 0 0 0-.5.5v5.5a.5.5 0 0 0 .5.5h5.5a.5.5 0 0 0 .5-.5v-5.5a.5.5 0 0 0-.5-.5Z" stroke="url(#d)" stroke-opacity=".75" stroke-width=".5"/><defs><linearGradient id="a" x1="5.5" y1="2.5" x2="5.5" y2="8.5" gradientUnits="userSpaceOnUse"><stop stop-color="#FFEE58"/><stop offset="1" stop-color="#FFEE58" stop-opacity=".35"/></linearGradient><linearGradient id="b" x1="5.5" y1="2.5" x2="5.5" y2="8.5" gradientUnits="userSpaceOnUse"><stop stop-color="#FFEE58"/><stop offset="1" stop-color="#FFEE58" stop-opacity=".35"/></linearGradient><linearGradient id="c" x1="5.5" y1="13.5" x2="5.5" y2="19.5" gradientUnits="userSpaceOnUse"><stop stop-color="#FFEE58"/><stop offset="1" stop-color="#FFEE58" stop-opacity=".35"/></linearGradient><linearGradient id="d" x1="5.5" y1="13.5" x2="5.5" y2="19.5" gradientUnits="userSpaceOnUse"><stop stop-color="#FFEE58"/><stop offset="1" stop-color="#FFEE58" stop-opacity=".35"/></linearGradient></defs></svg>