<svg width="28" height="24" fill="none" xmlns="http://www.w3.org/2000/svg"><path d="M11.5 17c3.038 0 5.5-2.686 5.5-6s-2.462-6-5.5-6S6 7.686 6 11s2.462 6 5.5 6Z" fill="url(#a)"/><path d="M11.5 14a5.5 5.5 0 1 0 0-11 5.5 5.5 0 0 0 0 11Z" fill="url(#b)" stroke="url(#c)"/><path d="M14.5 8.5a3 3 0 1 1-6 0 3 3 0 0 1 6 0Z" fill="#000" stroke="#DBDBDB"/><path d="M11 7.75v2a.5.5 0 0 0 1 0v-2a.5.5 0 0 0-1 0Z" fill="#fff" fill-opacity=".2"/><path d="M11 7.5v2a.5.5 0 0 0 1 0v-2a.5.5 0 0 0-1 0Z" fill="#DBDBDB"/><defs><linearGradient id="a" x1="11.5" y1="11" x2="11.5" y2="17" gradientUnits="userSpaceOnUse"><stop offset=".521"/><stop offset="1" stop-opacity="0"/></linearGradient><linearGradient id="b" x1="11.5" y1="2.45" x2="11.5" y2="14.55" gradientUnits="userSpaceOnUse"><stop/><stop offset="1" stop-color="#353535"/></linearGradient><linearGradient id="c" x1="11.5" y1="2.45" x2="11.5" y2="14.55" gradientUnits="userSpaceOnUse"><stop stop-color="#B4B4B4" stop-opacity=".25"/><stop offset="1" stop-color="#B4B4B4" stop-opacity=".4"/></linearGradient></defs></svg>