<svg width="56" height="48" fill="none" xmlns="http://www.w3.org/2000/svg"><path opacity=".3" d="M11.5 17a8.5 8.5 0 1 0 0-17 8.5 8.5 0 0 0 0 17Z" fill="url(#a)" fill-opacity=".5"/><path opacity=".3" d="M11.5 41a8.5 8.5 0 1 0 0-17 8.5 8.5 0 0 0 0 17Z" fill="url(#b)" fill-opacity=".5"/><path opacity=".3" d="M39.5 17a8.5 8.5 0 1 0 0-17 8.5 8.5 0 0 0 0 17Z" fill="url(#c)" fill-opacity=".5"/><path opacity=".3" d="M39.5 41a8.5 8.5 0 1 0 0-17 8.5 8.5 0 0 0 0 17Z" fill="url(#d)" fill-opacity=".5"/><defs><linearGradient id="a" x1="11.5" y1="0" x2="11.5" y2="17" gradientUnits="userSpaceOnUse"><stop stop-color="#FFEE58"/><stop offset="1" stop-color="#FFEE58" stop-opacity=".35"/></linearGradient><linearGradient id="b" x1="11.5" y1="24" x2="11.5" y2="41" gradientUnits="userSpaceOnUse"><stop stop-color="#FFEE58"/><stop offset="1" stop-color="#FFEE58" stop-opacity=".35"/></linearGradient><linearGradient id="c" x1="39.5" y1="0" x2="39.5" y2="17" gradientUnits="userSpaceOnUse"><stop stop-color="#FFEE58"/><stop offset="1" stop-color="#FFEE58" stop-opacity=".35"/></linearGradient><linearGradient id="d" x1="39.5" y1="24" x2="39.5" y2="41" gradientUnits="userSpaceOnUse"><stop stop-color="#FFEE58"/><stop offset="1" stop-color="#FFEE58" stop-opacity=".35"/></linearGradient></defs></svg>