<svg width="31" height="12" viewBox="0 0 31 12" fill="none" xmlns="http://www.w3.org/2000/svg">
<g clip-path="url(#clip0_134_434)">
<rect x="0.25" y="0.75" width="30.5" height="10.5" stroke="white" stroke-opacity="0.25" stroke-width="0.5"/>
<path d="M11.6837 3.754H9.82774V8.83401H9.05574V3.754H7.19574V3.10201H11.6837V3.754Z" fill="#EEEEEE" fill-opacity="0.5"/>
<path d="M14.8624 4.78201V8.83401H14.4384C14.337 8.83401 14.273 8.78467 14.2464 8.68601L14.1904 8.25001C14.0144 8.44467 13.817 8.60201 13.5984 8.72201C13.3797 8.83934 13.129 8.89801 12.8464 8.89801C12.625 8.89801 12.429 8.86201 12.2584 8.79001C12.0904 8.71534 11.949 8.61134 11.8344 8.47801C11.7197 8.34467 11.633 8.18334 11.5744 7.99401C11.5184 7.80467 11.4904 7.59534 11.4904 7.36601V4.78201H12.2024V7.36601C12.2024 7.67267 12.2717 7.91001 12.4104 8.07801C12.5517 8.24601 12.7664 8.33001 13.0544 8.33001C13.265 8.33001 13.461 8.28067 13.6424 8.18201C13.8264 8.08067 13.9957 7.94201 14.1504 7.76601V4.78201H14.8624Z" fill="#EEEEEE" fill-opacity="0.5"/>
<path d="M16.6633 5.37001C16.7513 5.27134 16.8446 5.18201 16.9433 5.10201C17.042 5.02201 17.146 4.95401 17.2553 4.89801C17.3673 4.83934 17.4846 4.79534 17.6073 4.76601C17.7326 4.73401 17.8673 4.71801 18.0113 4.71801C18.2326 4.71801 18.4273 4.75534 18.5953 4.83001C18.766 4.90201 18.9073 5.00601 19.0193 5.14201C19.134 5.27534 19.2206 5.43667 19.2793 5.62601C19.338 5.81534 19.3673 6.02467 19.3673 6.25401V8.83401H18.6513V6.25401C18.6513 5.94734 18.5806 5.71001 18.4393 5.54201C18.3006 5.37134 18.0886 5.28601 17.8033 5.28601C17.5926 5.28601 17.3953 5.33667 17.2113 5.43801C17.03 5.53934 16.862 5.67667 16.7073 5.85001V8.83401H15.9913V4.78201H16.4193C16.5206 4.78201 16.5833 4.83134 16.6073 4.93001L16.6633 5.37001Z" fill="#EEEEEE" fill-opacity="0.5"/>
<path d="M23.1642 6.36601C23.1642 6.20067 23.1402 6.05001 23.0922 5.91401C23.0469 5.77534 22.9789 5.65667 22.8882 5.55801C22.8002 5.45667 22.6922 5.37934 22.5642 5.32601C22.4362 5.27001 22.2909 5.24201 22.1282 5.24201C21.7869 5.24201 21.5162 5.34201 21.3162 5.54201C21.1189 5.73934 20.9962 6.01401 20.9482 6.36601H23.1642ZM23.7402 8.26601C23.6522 8.37267 23.5469 8.46601 23.4242 8.54601C23.3016 8.62334 23.1696 8.68734 23.0282 8.73801C22.8896 8.78867 22.7456 8.826 22.5962 8.85001C22.4469 8.87667 22.2989 8.89001 22.1522 8.89001C21.8722 8.89001 21.6136 8.84334 21.3762 8.75001C21.1416 8.65401 20.9376 8.51534 20.7642 8.33401C20.5936 8.15001 20.4602 7.92334 20.3642 7.65401C20.2682 7.38467 20.2202 7.07534 20.2202 6.72601C20.2202 6.44334 20.2629 6.17934 20.3482 5.93401C20.4362 5.68867 20.5616 5.47667 20.7242 5.29801C20.8869 5.11667 21.0856 4.97534 21.3202 4.87401C21.5549 4.77001 21.8189 4.71801 22.1122 4.71801C22.3549 4.71801 22.5789 4.75934 22.7842 4.84201C22.9922 4.92201 23.1709 5.03934 23.3202 5.19401C23.4722 5.34601 23.5909 5.53534 23.6762 5.76201C23.7616 5.98601 23.8042 6.24201 23.8042 6.53001C23.8042 6.64201 23.7922 6.71667 23.7682 6.75401C23.7442 6.79134 23.6989 6.81001 23.6322 6.81001H20.9242C20.9322 7.06601 20.9669 7.28867 21.0282 7.47801C21.0922 7.66734 21.1802 7.82601 21.2922 7.95401C21.4042 8.07934 21.5376 8.17401 21.6922 8.23801C21.8469 8.29934 22.0202 8.33001 22.2122 8.33001C22.3909 8.33001 22.5442 8.31001 22.6722 8.27001C22.8029 8.22734 22.9149 8.18201 23.0082 8.13401C23.1016 8.08601 23.1789 8.04201 23.2402 8.00201C23.3042 7.95934 23.3589 7.93801 23.4042 7.93801C23.4629 7.93801 23.5082 7.96067 23.5402 8.00601L23.7402 8.26601Z" fill="#EEEEEE" fill-opacity="0.5"/>
</g>
<defs>
<clipPath id="clip0_134_434">
<rect width="31" height="12" fill="white"/>
</clipPath>
</defs>
</svg>
