<svg width="12" height="34" fill="none" xmlns="http://www.w3.org/2000/svg"><path d="M1.5 21.5a2 2 0 0 1 2-2h5a2 2 0 0 1 2 2v8a2 2 0 0 1-2 2h-5a2 2 0 0 1-2-2v-8Z" fill="#242424"/><path d="M8 21.5H4a.5.5 0 0 0-.5.5v7a.5.5 0 0 0 .5.5h4a.5.5 0 0 0 .5-.5v-7a.5.5 0 0 0-.5-.5Z" fill="#369EB3"/><path d="M8 21.5H4a.5.5 0 0 0-.5.5v7a.5.5 0 0 0 .5.5h4a.5.5 0 0 0 .5-.5v-7a.5.5 0 0 0-.5-.5Z" stroke="#369EB3"/><path d="M6.5 28h-1v-2h-2v-1h2v-2h1v2h2v1h-2v2Z" fill="#000"/><path d="M1.5 3.5a2 2 0 0 1 2-2h5a2 2 0 0 1 2 2v8a2 2 0 0 1-2 2h-5a2 2 0 0 1-2-2v-8Z" fill="#242424"/><path d="M6.5 10h-1V8h-2V7h2V5h1v2h2v1h-2v2Z" fill="#DBDBDB"/></svg>