<svg width="32" height="24" fill="none" xmlns="http://www.w3.org/2000/svg"><path d="M.5 2.5a2 2 0 0 1 2-2h27a2 2 0 0 1 2 2v7a2 2 0 0 1-2 2h-27a2 2 0 0 1-2-2v-7Z" fill="#242424"/><g clip-path="url(#a)"><path fill-rule="evenodd" clip-rule="evenodd" d="M8 3 4 6l4 3V7h4V5H8V3Z" fill="#B4B4B4"/></g><path fill="#B4B4B4" d="M15.5 10V2h1v8z" opacity=".75"/><g clip-path="url(#b)"><path fill-rule="evenodd" clip-rule="evenodd" d="m24 9 4-3-4-3v2h-4v2h4v2Z" fill="#B4B4B4"/></g><path d="M.5 14.5a2 2 0 0 1 2-2h27a2 2 0 0 1 2 2v7a2 2 0 0 1-2 2h-27a2 2 0 0 1-2-2v-7Z" fill="#242424"/><g clip-path="url(#c)"><path fill-rule="evenodd" clip-rule="evenodd" d="m8 15-4 3 4 3v-2h4v-2H8v-2Z" fill="#B4B4B4"/></g><path fill="#B4B4B4" d="M15.5 22v-8h1v8z" opacity=".75"/><g clip-path="url(#d)"><path fill-rule="evenodd" clip-rule="evenodd" d="m24 21 4-3-4-3v2h-4v2h4v2Z" fill="#B4B4B4"/></g><defs><clipPath id="a"><path d="M14 2H4a2 2 0 0 0-2 2v4a2 2 0 0 0 2 2h10V2Z" fill="#fff"/></clipPath><clipPath id="b"><path d="M18 10h10a2 2 0 0 0 2-2V4a2 2 0 0 0-2-2H18v8Z" fill="#fff"/></clipPath><clipPath id="c"><path d="M14 14H4a2 2 0 0 0-2 2v4a2 2 0 0 0 2 2h10v-8Z" fill="#fff"/></clipPath><clipPath id="d"><path d="M18 22h10a2 2 0 0 0 2-2v-4a2 2 0 0 0-2-2H18v8Z" fill="#fff"/></clipPath></defs></svg>