<svg width="96" height="126" fill="none" xmlns="http://www.w3.org/2000/svg"><rect x="4.5" y="2" width="11" height="11" rx="1" fill="#369EB3"/><rect x="4.5" y="2" width="11" height="11" rx="1" stroke="#369EB3"/><path d="M6.66 7.568h2.16v1H6.66v-1Zm2.808-1.232c.042-.29.124-.544.244-.76a1.87 1.87 0 0 1 .452-.54c.181-.144.388-.25.62-.32a2.51 2.51 0 0 1 .748-.108c.288 0 .544.041.768.124.224.08.413.19.568.328a1.411 1.411 0 0 1 .472 1.06c0 .184-.019.347-.056.488a1.14 1.14 0 0 1-.168.364 1.013 1.013 0 0 1-.272.26c-.107.07-.23.128-.368.176.645.227.968.667.968 1.32 0 .31-.056.579-.168.808-.112.23-.263.42-.452.572a1.93 1.93 0 0 1-.652.344 2.676 2.676 0 0 1-.776.112c-.278 0-.524-.03-.74-.088a1.755 1.755 0 0 1-.576-.28 1.916 1.916 0 0 1-.444-.488 3.323 3.323 0 0 1-.328-.704l.552-.224a.689.689 0 0 1 .4-.044c.122.027.21.088.264.184.12.221.246.383.38.484a.789.789 0 0 0 .476.148.801.801 0 0 0 .616-.248.753.753 0 0 0 .156-.252.811.811 0 0 0 .052-.284c0-.125-.01-.237-.028-.336a.433.433 0 0 0-.144-.26.813.813 0 0 0-.364-.164c-.16-.04-.384-.06-.672-.06v-.856c.242 0 .438-.019.588-.056a.9.9 0 0 0 .344-.152.471.471 0 0 0 .164-.24c.026-.093.04-.196.04-.308 0-.23-.056-.405-.168-.528-.11-.125-.278-.188-.504-.188a.744.744 0 0 0-.728.508c-.056.147-.13.244-.22.292-.09.048-.22.059-.388.032l-.656-.116Z" fill="#000"/><path d="M19.66 7.568h2.16v1h-2.16v-1Zm6.36 1.812c.133 0 .238.037.316.112a.375.375 0 0 1 .116.288v.72h-4.096v-.4c0-.077.016-.16.048-.248a.598.598 0 0 1 .168-.24l1.68-1.692c.144-.144.27-.281.376-.412a2.62 2.62 0 0 0 .264-.384 1.542 1.542 0 0 0 .208-.784c0-.232-.056-.41-.168-.532-.11-.125-.278-.188-.504-.188a.744.744 0 0 0-.728.508c-.056.147-.13.244-.22.292-.09.048-.22.059-.388.032l-.656-.116c.042-.29.124-.544.244-.76.122-.216.273-.396.452-.54.181-.144.388-.25.62-.32a2.51 2.51 0 0 1 .748-.108c.288 0 .546.043.776.128.232.083.43.199.592.348.162.15.286.328.372.536.088.205.132.432.132.68 0 .213-.03.41-.092.592a2.31 2.31 0 0 1-.244.52 3.705 3.705 0 0 1-.364.476 13.64 13.64 0 0 1-.436.464l-1.14 1.168c.146-.045.292-.08.436-.104.144-.024.277-.036.4-.036h1.088Zm6.64-1.812h2.16v1h-2.16v-1Zm6.66 2.036v.896H36v-.896h1.12v-2.94a6.198 6.198 0 0 1 .016-.456l-.664.552a.41.41 0 0 1-.176.084.536.536 0 0 1-.16 0A.437.437 0 0 1 36 6.792a.327.327 0 0 1-.088-.08l-.392-.52 1.816-1.524h1.024v4.936h.96Zm11.84-2.02c0 .51-.055.95-.164 1.324a2.72 2.72 0 0 1-.456.928 1.81 1.81 0 0 1-.688.548c-.264.12-.551.18-.86.18-.31 0-.596-.06-.86-.18a1.828 1.828 0 0 1-.68-.548A2.74 2.74 0 0 1 47 8.908a4.85 4.85 0 0 1-.16-1.324c0-.51.053-.95.16-1.324.109-.373.26-.683.452-.928a1.79 1.79 0 0 1 .68-.544c.264-.12.55-.18.86-.18.309 0 .596.06.86.18.266.117.496.299.688.544.194.245.346.555.456.928.109.373.164.815.164 1.324Zm-1.28 0c0-.403-.026-.732-.076-.988a1.992 1.992 0 0 0-.204-.608.707.707 0 0 0-.284-.3.69.69 0 0 0-.324-.084.69.69 0 0 0-.324.084.717.717 0 0 0-.28.3c-.08.147-.146.35-.196.608a5.534 5.534 0 0 0-.072.988c0 .405.024.736.072.992.05.256.116.459.196.608a.747.747 0 0 0 .28.304c.106.053.214.08.324.08a.724.724 0 0 0 .324-.08.736.736 0 0 0 .284-.304c.085-.15.153-.352.204-.608.05-.256.076-.587.076-.992Zm11.84.672h-1.48v1.592h-1.01V8.256h-1.47v-.888h1.472V5.784h1.008v1.584h1.48v.888Zm4.424 1.348v.896h-3.32v-.896h1.12v-2.94a6.198 6.198 0 0 1 .016-.456l-.664.552a.41.41 0 0 1-.176.084.536.536 0 0 1-.16 0 .437.437 0 0 1-.136-.052.329.329 0 0 1-.088-.08l-.392-.52 1.816-1.524h1.024v4.936h.96Zm8.576-1.348h-1.48v1.592h-1.01V8.256h-1.47v-.888h1.472V5.784h1.008v1.584h1.48v.888Zm4.124 1.124c.133 0 .239.037.316.112a.375.375 0 0 1 .116.288v.72H75.18v-.4c0-.077.016-.16.048-.248a.598.598 0 0 1 .168-.24l1.68-1.692c.144-.144.27-.281.376-.412.107-.13.195-.259.264-.384a1.538 1.538 0 0 0 .208-.784c0-.232-.056-.41-.168-.532-.11-.125-.277-.188-.504-.188a.744.744 0 0 0-.728.508c-.056.147-.13.244-.22.292-.09.048-.22.059-.388.032l-.656-.116c.043-.29.124-.544.244-.76a1.87 1.87 0 0 1 .452-.54c.181-.144.388-.25.62-.32a2.51 2.51 0 0 1 .748-.108c.288 0 .547.043.776.128.232.083.43.199.592.348.163.15.287.328.372.536.088.205.132.432.132.68 0 .213-.03.41-.092.592a2.31 2.31 0 0 1-.244.52 3.696 3.696 0 0 1-.364.476 13.54 13.54 0 0 1-.436.464L76.92 9.52c.147-.045.292-.08.436-.104.144-.024.277-.036.4-.036h1.088Zm8.876-1.124h-1.48v1.592h-1.01V8.256h-1.47v-.888h1.472V5.784h1.008v1.584h1.48v.888Zm.572-1.92c.043-.29.124-.544.244-.76a1.87 1.87 0 0 1 .452-.54c.181-.144.388-.25.62-.32a2.51 2.51 0 0 1 .748-.108c.288 0 .544.041.768.124.224.08.413.19.568.328a1.411 1.411 0 0 1 .472 1.06c0 .184-.019.347-.056.488-.037.139-.093.26-.168.364a1.013 1.013 0 0 1-.272.26c-.107.07-.23.128-.368.176.645.227.968.667.968 1.32 0 .31-.056.579-.168.808-.112.23-.263.42-.452.572a1.93 1.93 0 0 1-.652.344 2.676 2.676 0 0 1-.776.112 2.86 2.86 0 0 1-.74-.088 1.755 1.755 0 0 1-.576-.28 1.916 1.916 0 0 1-.444-.488 3.323 3.323 0 0 1-.328-.704l.552-.224a.689.689 0 0 1 .4-.044c.123.027.21.088.264.184.12.221.247.383.38.484a.79.79 0 0 0 .476.148.801.801 0 0 0 .616-.248.753.753 0 0 0 .156-.252.81.81 0 0 0 .052-.284c0-.125-.01-.237-.028-.336a.433.433 0 0 0-.144-.26.812.812 0 0 0-.364-.164c-.16-.04-.384-.06-.672-.06v-.856c.243 0 .439-.019.588-.056a.9.9 0 0 0 .344-.152.47.47 0 0 0 .164-.24c.027-.093.04-.196.04-.308 0-.23-.056-.405-.168-.528-.11-.125-.277-.188-.504-.188a.744.744 0 0 0-.728.508c-.056.147-.13.244-.22.292-.09.048-.22.059-.388.032l-.656-.116ZM6.66 25.568h2.16v1H6.66v-1Zm2.808-1.232c.042-.29.124-.544.244-.76a1.87 1.87 0 0 1 .452-.54c.181-.144.388-.25.62-.32a2.51 2.51 0 0 1 .748-.108c.288 0 .544.041.768.124.224.08.413.19.568.328a1.411 1.411 0 0 1 .472 1.06c0 .184-.019.347-.056.488a1.14 1.14 0 0 1-.168.364 1.014 1.014 0 0 1-.272.26c-.107.07-.23.128-.368.176.645.227.968.667.968 1.32 0 .31-.056.579-.168.808-.112.23-.263.42-.452.572a1.93 1.93 0 0 1-.652.344 2.676 2.676 0 0 1-.776.112c-.278 0-.524-.03-.74-.088a1.755 1.755 0 0 1-.576-.28 1.916 1.916 0 0 1-.444-.488 3.323 3.323 0 0 1-.328-.704l.552-.224a.689.689 0 0 1 .4-.044c.122.027.21.088.264.184.12.221.246.383.38.484a.789.789 0 0 0 .476.148.801.801 0 0 0 .616-.248.754.754 0 0 0 .156-.252.811.811 0 0 0 .052-.284c0-.125-.01-.237-.028-.336a.433.433 0 0 0-.144-.26.812.812 0 0 0-.364-.164c-.16-.04-.384-.06-.672-.06v-.856c.242 0 .438-.019.588-.056a.9.9 0 0 0 .344-.152.472.472 0 0 0 .164-.24 1.12 1.12 0 0 0 .04-.308c0-.23-.056-.405-.168-.528-.11-.125-.278-.188-.504-.188a.743.743 0 0 0-.728.508c-.056.147-.13.244-.22.292-.09.048-.22.059-.388.032l-.656-.116Z" fill="#369EB3"/><rect x="17.5" y="20" width="11" height="11" rx="1" fill="#369EB3"/><rect x="17.5" y="20" width="11" height="11" rx="1" stroke="#369EB3"/><path d="M19.66 25.568h2.16v1h-2.16v-1Zm6.36 1.812c.133 0 .238.037.316.112a.375.375 0 0 1 .116.288v.72h-4.096v-.4c0-.077.016-.16.048-.248a.598.598 0 0 1 .168-.24l1.68-1.692c.144-.144.27-.281.376-.412.106-.13.194-.259.264-.384a1.542 1.542 0 0 0 .208-.784c0-.232-.056-.41-.168-.532-.11-.125-.278-.188-.504-.188a.743.743 0 0 0-.728.508c-.056.147-.13.244-.22.292-.09.048-.22.059-.388.032l-.656-.116c.042-.29.124-.544.244-.76.122-.216.273-.396.452-.54.181-.144.388-.25.62-.32a2.51 2.51 0 0 1 .748-.108c.288 0 .546.043.776.128.232.083.43.199.592.348.162.15.286.328.372.536.088.205.132.432.132.68 0 .213-.03.41-.092.592a2.31 2.31 0 0 1-.244.52 3.705 3.705 0 0 1-.364.476c-.136.152-.282.307-.436.464l-1.14 1.168c.146-.045.292-.08.436-.104.144-.024.277-.036.4-.036h1.088Z" fill="#000"/><path d="M32.66 25.568h2.16v1h-2.16v-1Zm6.66 2.036v.896H36v-.896h1.12v-2.94a6.198 6.198 0 0 1 .016-.456l-.664.552a.411.411 0 0 1-.176.084.536.536 0 0 1-.16 0 .438.438 0 0 1-.136-.052.327.327 0 0 1-.088-.08l-.392-.52 1.816-1.524h1.024v4.936h.96Zm11.84-2.02c0 .51-.055.95-.164 1.324a2.72 2.72 0 0 1-.456.928 1.81 1.81 0 0 1-.688.548c-.264.12-.551.18-.86.18-.31 0-.596-.06-.86-.18a1.828 1.828 0 0 1-.68-.548 2.74 2.74 0 0 1-.452-.928 4.85 4.85 0 0 1-.16-1.324c0-.51.053-.95.16-1.324.109-.373.26-.683.452-.928a1.79 1.79 0 0 1 .68-.544c.264-.12.55-.18.86-.18.309 0 .596.06.86.18.266.117.496.299.688.544.194.245.346.555.456.928.109.373.164.815.164 1.324Zm-1.28 0c0-.403-.026-.732-.076-.988a1.992 1.992 0 0 0-.204-.608.706.706 0 0 0-.284-.3.69.69 0 0 0-.324-.084.69.69 0 0 0-.324.084.716.716 0 0 0-.28.3c-.08.147-.146.35-.196.608a5.534 5.534 0 0 0-.072.988c0 .405.024.736.072.992.05.256.116.459.196.608a.746.746 0 0 0 .28.304c.106.053.214.08.324.08a.724.724 0 0 0 .324-.08.735.735 0 0 0 .284-.304c.085-.15.153-.352.204-.608.05-.256.076-.587.076-.992Zm11.84.672h-1.48v1.592h-1.01v-1.592h-1.47v-.888h1.472v-1.584h1.008v1.584h1.48v.888Zm4.424 1.348v.896h-3.32v-.896h1.12v-2.94a6.198 6.198 0 0 1 .016-.456l-.664.552a.41.41 0 0 1-.176.084.536.536 0 0 1-.16 0 .438.438 0 0 1-.136-.052.329.329 0 0 1-.088-.08l-.392-.52 1.816-1.524h1.024v4.936h.96Zm8.576-1.348h-1.48v1.592h-1.01v-1.592h-1.47v-.888h1.472v-1.584h1.008v1.584h1.48v.888Zm4.124 1.124c.133 0 .239.037.316.112a.375.375 0 0 1 .116.288v.72H75.18v-.4c0-.077.016-.16.048-.248a.598.598 0 0 1 .168-.24l1.68-1.692c.144-.144.27-.281.376-.412.107-.13.195-.259.264-.384a1.538 1.538 0 0 0 .208-.784c0-.232-.056-.41-.168-.532-.11-.125-.277-.188-.504-.188a.743.743 0 0 0-.728.508c-.056.147-.13.244-.22.292-.09.048-.22.059-.388.032l-.656-.116c.043-.29.124-.544.244-.76a1.87 1.87 0 0 1 .452-.54c.181-.144.388-.25.62-.32a2.51 2.51 0 0 1 .748-.108c.288 0 .547.043.776.128.232.083.43.199.592.348.163.15.287.328.372.536.088.205.132.432.132.68 0 .213-.03.41-.092.592a2.31 2.31 0 0 1-.244.52 3.696 3.696 0 0 1-.364.476c-.136.152-.281.307-.436.464l-1.14 1.168c.147-.045.292-.08.436-.104.144-.024.277-.036.4-.036h1.088Zm8.876-1.124h-1.48v1.592h-1.01v-1.592h-1.47v-.888h1.472v-1.584h1.008v1.584h1.48v.888Zm.572-1.92c.043-.29.124-.544.244-.76a1.87 1.87 0 0 1 .452-.54c.181-.144.388-.25.62-.32a2.51 2.51 0 0 1 .748-.108c.288 0 .544.041.768.124.224.08.413.19.568.328a1.411 1.411 0 0 1 .472 1.06c0 .184-.019.347-.056.488-.037.139-.093.26-.168.364a1.014 1.014 0 0 1-.272.26c-.107.07-.23.128-.368.176.645.227.968.667.968 1.32 0 .31-.056.579-.168.808-.112.23-.263.42-.452.572a1.93 1.93 0 0 1-.652.344 2.676 2.676 0 0 1-.776.112 2.86 2.86 0 0 1-.74-.088 1.755 1.755 0 0 1-.576-.28 1.916 1.916 0 0 1-.444-.488 3.323 3.323 0 0 1-.328-.704l.552-.224a.689.689 0 0 1 .4-.044c.123.027.21.088.264.184.12.221.247.383.38.484a.789.789 0 0 0 .476.148.801.801 0 0 0 .616-.248.754.754 0 0 0 .156-.252.81.81 0 0 0 .052-.284c0-.125-.01-.237-.028-.336a.433.433 0 0 0-.144-.26.812.812 0 0 0-.364-.164c-.16-.04-.384-.06-.672-.06v-.856c.243 0 .439-.019.588-.056a.9.9 0 0 0 .344-.152.471.471 0 0 0 .164-.24c.027-.093.04-.196.04-.308 0-.23-.056-.405-.168-.528-.11-.125-.277-.188-.504-.188a.743.743 0 0 0-.728.508c-.056.147-.13.244-.22.292-.09.048-.22.059-.388.032l-.656-.116ZM6.66 43.568h2.16v1H6.66v-1Zm2.808-1.232c.042-.29.124-.544.244-.76a1.87 1.87 0 0 1 .452-.54c.181-.144.388-.25.62-.32a2.51 2.51 0 0 1 .748-.108c.288 0 .544.041.768.124.224.08.413.19.568.328a1.411 1.411 0 0 1 .472 1.06c0 .184-.019.347-.056.488a1.14 1.14 0 0 1-.168.364 1.014 1.014 0 0 1-.272.26c-.107.07-.23.128-.368.176.645.227.968.667.968 1.32 0 .31-.056.579-.168.808-.112.23-.263.42-.452.572a1.93 1.93 0 0 1-.652.344 2.676 2.676 0 0 1-.776.112c-.278 0-.524-.03-.74-.088a1.755 1.755 0 0 1-.576-.28 1.916 1.916 0 0 1-.444-.488 3.323 3.323 0 0 1-.328-.704l.552-.224a.689.689 0 0 1 .4-.044c.122.027.21.088.264.184.12.221.246.383.38.484a.789.789 0 0 0 .476.148.801.801 0 0 0 .616-.248.754.754 0 0 0 .156-.252.811.811 0 0 0 .052-.284c0-.125-.01-.237-.028-.336a.433.433 0 0 0-.144-.26.812.812 0 0 0-.364-.164c-.16-.04-.384-.06-.672-.06v-.856c.242 0 .438-.019.588-.056a.9.9 0 0 0 .344-.152.472.472 0 0 0 .164-.24 1.12 1.12 0 0 0 .04-.308c0-.23-.056-.405-.168-.528-.11-.125-.278-.188-.504-.188a.743.743 0 0 0-.728.508c-.056.147-.13.244-.22.292-.09.048-.22.059-.388.032l-.656-.116Zm10.192 1.232h2.16v1h-2.16v-1Zm6.36 1.812c.133 0 .238.037.316.112a.375.375 0 0 1 .116.288v.72h-4.096v-.4c0-.077.016-.16.048-.248a.598.598 0 0 1 .168-.24l1.68-1.692c.144-.144.27-.281.376-.412.106-.13.194-.259.264-.384a1.542 1.542 0 0 0 .208-.784c0-.232-.056-.41-.168-.532-.11-.125-.278-.188-.504-.188a.743.743 0 0 0-.728.508c-.056.147-.13.244-.22.292-.09.048-.22.059-.388.032l-.656-.116c.042-.29.124-.544.244-.76.122-.216.273-.396.452-.54.181-.144.388-.25.62-.32a2.51 2.51 0 0 1 .748-.108c.288 0 .546.043.776.128.232.083.43.199.592.348.162.15.286.328.372.536.088.205.132.432.132.68 0 .213-.03.41-.092.592a2.31 2.31 0 0 1-.244.52 3.705 3.705 0 0 1-.364.476c-.136.152-.282.307-.436.464l-1.14 1.168c.146-.045.292-.08.436-.104.144-.024.277-.036.4-.036h1.088Z" fill="#369EB3"/><rect x="30.5" y="38" width="11" height="11" rx="1" fill="#369EB3"/><rect x="30.5" y="38" width="11" height="11" rx="1" stroke="#369EB3"/><path d="M32.66 43.568h2.16v1h-2.16v-1Zm6.66 2.036v.896H36v-.896h1.12v-2.94a6.198 6.198 0 0 1 .016-.456l-.664.552a.411.411 0 0 1-.176.084.536.536 0 0 1-.16 0 .438.438 0 0 1-.136-.052.327.327 0 0 1-.088-.08l-.392-.52 1.816-1.524h1.024v4.936h.96Z" fill="#000"/><path d="M51.16 43.584c0 .51-.055.95-.164 1.324a2.72 2.72 0 0 1-.456.928 1.81 1.81 0 0 1-.688.548c-.264.12-.551.18-.86.18-.31 0-.596-.06-.86-.18a1.828 1.828 0 0 1-.68-.548 2.74 2.74 0 0 1-.452-.928 4.85 4.85 0 0 1-.16-1.324c0-.51.053-.95.16-1.324.109-.373.26-.683.452-.928a1.79 1.79 0 0 1 .68-.544c.264-.12.55-.18.86-.18.309 0 .596.06.86.18.266.117.496.299.688.544.194.245.346.555.456.928.109.373.164.815.164 1.324Zm-1.28 0c0-.403-.026-.732-.076-.988a1.992 1.992 0 0 0-.204-.608.706.706 0 0 0-.284-.3.69.69 0 0 0-.324-.084.69.69 0 0 0-.324.084.716.716 0 0 0-.28.3c-.08.147-.146.35-.196.608a5.534 5.534 0 0 0-.072.988c0 .405.024.736.072.992.05.256.116.459.196.608a.746.746 0 0 0 .28.304c.106.053.214.08.324.08a.724.724 0 0 0 .324-.08.735.735 0 0 0 .284-.304c.085-.15.153-.352.204-.608.05-.256.076-.587.076-.992Zm11.84.672h-1.48v1.592h-1.01v-1.592h-1.47v-.888h1.472v-1.584h1.008v1.584h1.48v.888Zm4.424 1.348v.896h-3.32v-.896h1.12v-2.94a6.198 6.198 0 0 1 .016-.456l-.664.552a.41.41 0 0 1-.176.084.536.536 0 0 1-.16 0 .438.438 0 0 1-.136-.052.329.329 0 0 1-.088-.08l-.392-.52 1.816-1.524h1.024v4.936h.96Zm8.576-1.348h-1.48v1.592h-1.01v-1.592h-1.47v-.888h1.472v-1.584h1.008v1.584h1.48v.888Zm4.124 1.124c.133 0 .239.037.316.112a.375.375 0 0 1 .116.288v.72H75.18v-.4c0-.077.016-.16.048-.248a.598.598 0 0 1 .168-.24l1.68-1.692c.144-.144.27-.281.376-.412.107-.13.195-.259.264-.384a1.538 1.538 0 0 0 .208-.784c0-.232-.056-.41-.168-.532-.11-.125-.277-.188-.504-.188a.743.743 0 0 0-.728.508c-.056.147-.13.244-.22.292-.09.048-.22.059-.388.032l-.656-.116c.043-.29.124-.544.244-.76a1.87 1.87 0 0 1 .452-.54c.181-.144.388-.25.62-.32a2.51 2.51 0 0 1 .748-.108c.288 0 .547.043.776.128.232.083.43.199.592.348.163.15.287.328.372.536.088.205.132.432.132.68 0 .213-.03.41-.092.592a2.31 2.31 0 0 1-.244.52 3.696 3.696 0 0 1-.364.476c-.136.152-.281.307-.436.464l-1.14 1.168c.147-.045.292-.08.436-.104.144-.024.277-.036.4-.036h1.088Zm8.876-1.124h-1.48v1.592h-1.01v-1.592h-1.47v-.888h1.472v-1.584h1.008v1.584h1.48v.888Zm.572-1.92c.043-.29.124-.544.244-.76a1.87 1.87 0 0 1 .452-.54c.181-.144.388-.25.62-.32a2.51 2.51 0 0 1 .748-.108c.288 0 .544.041.768.124.224.08.413.19.568.328a1.411 1.411 0 0 1 .472 1.06c0 .184-.019.347-.056.488-.037.139-.093.26-.168.364a1.014 1.014 0 0 1-.272.26c-.107.07-.23.128-.368.176.645.227.968.667.968 1.32 0 .31-.056.579-.168.808-.112.23-.263.42-.452.572a1.93 1.93 0 0 1-.652.344 2.676 2.676 0 0 1-.776.112 2.86 2.86 0 0 1-.74-.088 1.755 1.755 0 0 1-.576-.28 1.916 1.916 0 0 1-.444-.488 3.323 3.323 0 0 1-.328-.704l.552-.224a.689.689 0 0 1 .4-.044c.123.027.21.088.264.184.12.221.247.383.38.484a.789.789 0 0 0 .476.148.801.801 0 0 0 .616-.248.754.754 0 0 0 .156-.252.81.81 0 0 0 .052-.284c0-.125-.01-.237-.028-.336a.433.433 0 0 0-.144-.26.812.812 0 0 0-.364-.164c-.16-.04-.384-.06-.672-.06v-.856c.243 0 .439-.019.588-.056a.9.9 0 0 0 .344-.152.471.471 0 0 0 .164-.24c.027-.093.04-.196.04-.308 0-.23-.056-.405-.168-.528-.11-.125-.277-.188-.504-.188a.743.743 0 0 0-.728.508c-.056.147-.13.244-.22.292-.09.048-.22.059-.388.032l-.656-.116ZM6.66 61.568h2.16v1H6.66v-1Zm2.808-1.232c.042-.29.124-.544.244-.76a1.87 1.87 0 0 1 .452-.54c.181-.144.388-.25.62-.32a2.51 2.51 0 0 1 .748-.108c.288 0 .544.041.768.124.224.08.413.19.568.328a1.411 1.411 0 0 1 .472 1.06c0 .184-.019.347-.056.488a1.14 1.14 0 0 1-.168.364 1.014 1.014 0 0 1-.272.26c-.107.07-.23.128-.368.176.645.227.968.667.968 1.32 0 .31-.056.579-.168.808-.112.23-.263.42-.452.572a1.93 1.93 0 0 1-.652.344 2.676 2.676 0 0 1-.776.112c-.278 0-.524-.03-.74-.088a1.755 1.755 0 0 1-.576-.28 1.916 1.916 0 0 1-.444-.488 3.323 3.323 0 0 1-.328-.704l.552-.224a.689.689 0 0 1 .4-.044c.122.027.21.088.264.184.12.221.246.383.38.484a.789.789 0 0 0 .476.148.801.801 0 0 0 .616-.248.754.754 0 0 0 .156-.252.811.811 0 0 0 .052-.284c0-.125-.01-.237-.028-.336a.433.433 0 0 0-.144-.26.812.812 0 0 0-.364-.164c-.16-.04-.384-.06-.672-.06v-.856c.242 0 .438-.019.588-.056a.9.9 0 0 0 .344-.152.472.472 0 0 0 .164-.24 1.12 1.12 0 0 0 .04-.308c0-.23-.056-.405-.168-.528-.11-.125-.278-.188-.504-.188a.743.743 0 0 0-.728.508c-.056.147-.13.244-.22.292-.09.048-.22.059-.388.032l-.656-.116Zm10.192 1.232h2.16v1h-2.16v-1Zm6.36 1.812c.133 0 .238.037.316.112a.375.375 0 0 1 .116.288v.72h-4.096v-.4c0-.077.016-.16.048-.248a.598.598 0 0 1 .168-.24l1.68-1.692c.144-.144.27-.281.376-.412.106-.13.194-.259.264-.384a1.542 1.542 0 0 0 .208-.784c0-.232-.056-.41-.168-.532-.11-.125-.278-.188-.504-.188a.743.743 0 0 0-.728.508c-.056.147-.13.244-.22.292-.09.048-.22.059-.388.032l-.656-.116c.042-.29.124-.544.244-.76.122-.216.273-.396.452-.54.181-.144.388-.25.62-.32a2.51 2.51 0 0 1 .748-.108c.288 0 .546.043.776.128.232.083.43.199.592.348.162.15.286.328.372.536.088.205.132.432.132.68 0 .213-.03.41-.092.592a2.31 2.31 0 0 1-.244.52 3.705 3.705 0 0 1-.364.476c-.136.152-.282.307-.436.464l-1.14 1.168c.146-.045.292-.08.436-.104.144-.024.277-.036.4-.036h1.088Zm6.64-1.812h2.16v1h-2.16v-1Zm6.66 2.036v.896H36v-.896h1.12v-2.94a6.198 6.198 0 0 1 .016-.456l-.664.552a.411.411 0 0 1-.176.084.536.536 0 0 1-.16 0 .438.438 0 0 1-.136-.052.327.327 0 0 1-.088-.08l-.392-.52 1.816-1.524h1.024v4.936h.96Z" fill="#369EB3"/><rect x="43.5" y="56" width="11" height="11" rx="1" fill="#369EB3"/><rect x="43.5" y="56" width="11" height="11" rx="1" stroke="#369EB3"/><path d="M51.16 61.584c0 .51-.055.95-.164 1.324a2.72 2.72 0 0 1-.456.928 1.81 1.81 0 0 1-.688.548c-.264.12-.551.18-.86.18-.31 0-.596-.06-.86-.18a1.828 1.828 0 0 1-.68-.548 2.74 2.74 0 0 1-.452-.928 4.85 4.85 0 0 1-.16-1.324c0-.51.053-.95.16-1.324.109-.373.26-.683.452-.928a1.79 1.79 0 0 1 .68-.544c.264-.12.55-.18.86-.18.309 0 .596.06.86.18.266.117.496.299.688.544.194.245.346.555.456.928.109.373.164.815.164 1.324Zm-1.28 0c0-.403-.026-.732-.076-.988a1.992 1.992 0 0 0-.204-.608.706.706 0 0 0-.284-.3.69.69 0 0 0-.324-.084.69.69 0 0 0-.324.084.716.716 0 0 0-.28.3c-.08.147-.146.35-.196.608a5.534 5.534 0 0 0-.072.988c0 .405.024.736.072.992.05.256.116.459.196.608a.746.746 0 0 0 .28.304c.106.053.214.08.324.08a.724.724 0 0 0 .324-.08.735.735 0 0 0 .284-.304c.085-.15.153-.352.204-.608.05-.256.076-.587.076-.992Z" fill="#000"/><path d="M61.72 62.256h-1.48v1.592h-1.01v-1.592h-1.47v-.888h1.472v-1.584h1.008v1.584h1.48v.888Zm4.424 1.348v.896h-3.32v-.896h1.12v-2.94a6.198 6.198 0 0 1 .016-.456l-.664.552a.41.41 0 0 1-.176.084.536.536 0 0 1-.16 0 .438.438 0 0 1-.136-.052.329.329 0 0 1-.088-.08l-.392-.52 1.816-1.524h1.024v4.936h.96Zm8.576-1.348h-1.48v1.592h-1.01v-1.592h-1.47v-.888h1.472v-1.584h1.008v1.584h1.48v.888Zm4.124 1.124c.133 0 .239.037.316.112a.375.375 0 0 1 .116.288v.72H75.18v-.4c0-.077.016-.16.048-.248a.598.598 0 0 1 .168-.24l1.68-1.692c.144-.144.27-.281.376-.412.107-.13.195-.259.264-.384a1.538 1.538 0 0 0 .208-.784c0-.232-.056-.41-.168-.532-.11-.125-.277-.188-.504-.188a.743.743 0 0 0-.728.508c-.056.147-.13.244-.22.292-.09.048-.22.059-.388.032l-.656-.116c.043-.29.124-.544.244-.76a1.87 1.87 0 0 1 .452-.54c.181-.144.388-.25.62-.32a2.51 2.51 0 0 1 .748-.108c.288 0 .547.043.776.128.232.083.43.199.592.348.163.15.287.328.372.536.088.205.132.432.132.68 0 .213-.03.41-.092.592a2.31 2.31 0 0 1-.244.52 3.696 3.696 0 0 1-.364.476c-.136.152-.281.307-.436.464l-1.14 1.168c.147-.045.292-.08.436-.104.144-.024.277-.036.4-.036h1.088Zm8.876-1.124h-1.48v1.592h-1.01v-1.592h-1.47v-.888h1.472v-1.584h1.008v1.584h1.48v.888Zm.572-1.92c.043-.29.124-.544.244-.76a1.87 1.87 0 0 1 .452-.54c.181-.144.388-.25.62-.32a2.51 2.51 0 0 1 .748-.108c.288 0 .544.041.768.124.224.08.413.19.568.328a1.411 1.411 0 0 1 .472 1.06c0 .184-.019.347-.056.488-.037.139-.093.26-.168.364a1.014 1.014 0 0 1-.272.26c-.107.07-.23.128-.368.176.645.227.968.667.968 1.32 0 .31-.056.579-.168.808-.112.23-.263.42-.452.572a1.93 1.93 0 0 1-.652.344 2.676 2.676 0 0 1-.776.112 2.86 2.86 0 0 1-.74-.088 1.755 1.755 0 0 1-.576-.28 1.916 1.916 0 0 1-.444-.488 3.323 3.323 0 0 1-.328-.704l.552-.224a.689.689 0 0 1 .4-.044c.123.027.21.088.264.184.12.221.247.383.38.484a.789.789 0 0 0 .476.148.801.801 0 0 0 .616-.248.754.754 0 0 0 .156-.252.81.81 0 0 0 .052-.284c0-.125-.01-.237-.028-.336a.433.433 0 0 0-.144-.26.812.812 0 0 0-.364-.164c-.16-.04-.384-.06-.672-.06v-.856c.243 0 .439-.019.588-.056a.9.9 0 0 0 .344-.152.471.471 0 0 0 .164-.24c.027-.093.04-.196.04-.308 0-.23-.056-.405-.168-.528-.11-.125-.277-.188-.504-.188a.743.743 0 0 0-.728.508c-.056.147-.13.244-.22.292-.09.048-.22.059-.388.032l-.656-.116ZM6.66 79.568h2.16v1H6.66v-1Zm2.808-1.232c.042-.29.124-.544.244-.76a1.87 1.87 0 0 1 .452-.54c.181-.144.388-.25.62-.32a2.51 2.51 0 0 1 .748-.108c.288 0 .544.041.768.124.224.08.413.19.568.328a1.411 1.411 0 0 1 .472 1.06c0 .184-.019.347-.056.488a1.14 1.14 0 0 1-.168.364 1.014 1.014 0 0 1-.272.26c-.107.07-.23.128-.368.176.645.227.968.667.968 1.32 0 .31-.056.579-.168.808-.112.23-.263.42-.452.572a1.93 1.93 0 0 1-.652.344 2.676 2.676 0 0 1-.776.112c-.278 0-.524-.03-.74-.088a1.755 1.755 0 0 1-.576-.28 1.916 1.916 0 0 1-.444-.488 3.323 3.323 0 0 1-.328-.704l.552-.224a.689.689 0 0 1 .4-.044c.122.027.21.088.264.184.12.221.246.383.38.484a.789.789 0 0 0 .476.148.801.801 0 0 0 .616-.248.754.754 0 0 0 .156-.252.811.811 0 0 0 .052-.284c0-.125-.01-.237-.028-.336a.433.433 0 0 0-.144-.26.812.812 0 0 0-.364-.164c-.16-.04-.384-.06-.672-.06v-.856c.242 0 .438-.019.588-.056a.9.9 0 0 0 .344-.152.472.472 0 0 0 .164-.24 1.12 1.12 0 0 0 .04-.308c0-.23-.056-.405-.168-.528-.11-.125-.278-.188-.504-.188a.743.743 0 0 0-.728.508c-.056.147-.13.244-.22.292-.09.048-.22.059-.388.032l-.656-.116Zm10.192 1.232h2.16v1h-2.16v-1Zm6.36 1.812c.133 0 .238.037.316.112a.375.375 0 0 1 .116.288v.72h-4.096v-.4c0-.077.016-.16.048-.248a.598.598 0 0 1 .168-.24l1.68-1.692c.144-.144.27-.281.376-.412.106-.13.194-.259.264-.384a1.542 1.542 0 0 0 .208-.784c0-.232-.056-.41-.168-.532-.11-.125-.278-.188-.504-.188a.743.743 0 0 0-.728.508c-.056.147-.13.244-.22.292-.09.048-.22.059-.388.032l-.656-.116c.042-.29.124-.544.244-.76.122-.216.273-.396.452-.54.181-.144.388-.25.62-.32a2.51 2.51 0 0 1 .748-.108c.288 0 .546.043.776.128.232.083.43.199.592.348.162.15.286.328.372.536.088.205.132.432.132.68 0 .213-.03.41-.092.592a2.31 2.31 0 0 1-.244.52 3.705 3.705 0 0 1-.364.476c-.136.152-.282.307-.436.464l-1.14 1.168c.146-.045.292-.08.436-.104.144-.024.277-.036.4-.036h1.088Zm6.64-1.812h2.16v1h-2.16v-1Zm6.66 2.036v.896H36v-.896h1.12v-2.94a6.198 6.198 0 0 1 .016-.456l-.664.552a.411.411 0 0 1-.176.084.536.536 0 0 1-.16 0 .438.438 0 0 1-.136-.052.327.327 0 0 1-.088-.08l-.392-.52 1.816-1.524h1.024v4.936h.96Zm11.84-2.02c0 .51-.055.95-.164 1.324a2.72 2.72 0 0 1-.456.928 1.81 1.81 0 0 1-.688.548c-.264.12-.551.18-.86.18-.31 0-.596-.06-.86-.18a1.828 1.828 0 0 1-.68-.548 2.74 2.74 0 0 1-.452-.928 4.85 4.85 0 0 1-.16-1.324c0-.51.053-.95.16-1.324.109-.373.26-.683.452-.928a1.79 1.79 0 0 1 .68-.544c.264-.12.55-.18.86-.18.309 0 .596.06.86.18.266.117.496.299.688.544.194.245.346.555.456.928.109.373.164.815.164 1.324Zm-1.28 0c0-.403-.026-.732-.076-.988a1.992 1.992 0 0 0-.204-.608.706.706 0 0 0-.284-.3.69.69 0 0 0-.324-.084.69.69 0 0 0-.324.084.716.716 0 0 0-.28.3c-.08.147-.146.35-.196.608a5.534 5.534 0 0 0-.072.988c0 .405.024.736.072.992.05.256.116.459.196.608a.746.746 0 0 0 .28.304c.106.053.214.08.324.08a.724.724 0 0 0 .324-.08.735.735 0 0 0 .284-.304c.085-.15.153-.352.204-.608.05-.256.076-.587.076-.992Z" fill="#369EB3"/><rect x="56.5" y="74" width="11" height="11" rx="1" fill="#369EB3"/><rect x="56.5" y="74" width="11" height="11" rx="1" stroke="#369EB3"/><path d="M61.72 80.256h-1.48v1.592h-1.01v-1.592h-1.47v-.888h1.472v-1.584h1.008v1.584h1.48v.888Zm4.424 1.348v.896h-3.32v-.896h1.12v-2.94a6.198 6.198 0 0 1 .016-.456l-.664.552a.41.41 0 0 1-.176.084.536.536 0 0 1-.16 0 .438.438 0 0 1-.136-.052.329.329 0 0 1-.088-.08l-.392-.52 1.816-1.524h1.024v4.936h.96Z" fill="#000"/><path d="M74.72 80.256h-1.48v1.592h-1.01v-1.592h-1.47v-.888h1.472v-1.584h1.008v1.584h1.48v.888Zm4.124 1.124c.133 0 .239.037.316.112a.375.375 0 0 1 .116.288v.72H75.18v-.4c0-.077.016-.16.048-.248a.598.598 0 0 1 .168-.24l1.68-1.692c.144-.144.27-.281.376-.412.107-.13.195-.259.264-.384a1.538 1.538 0 0 0 .208-.784c0-.232-.056-.41-.168-.532-.11-.125-.277-.188-.504-.188a.743.743 0 0 0-.728.508c-.056.147-.13.244-.22.292-.09.048-.22.059-.388.032l-.656-.116c.043-.29.124-.544.244-.76a1.87 1.87 0 0 1 .452-.54c.181-.144.388-.25.62-.32a2.51 2.51 0 0 1 .748-.108c.288 0 .547.043.776.128.232.083.43.199.592.348.163.15.287.328.372.536.088.205.132.432.132.68 0 .213-.03.41-.092.592a2.31 2.31 0 0 1-.244.52 3.696 3.696 0 0 1-.364.476c-.136.152-.281.307-.436.464l-1.14 1.168c.147-.045.292-.08.436-.104.144-.024.277-.036.4-.036h1.088Zm8.876-1.124h-1.48v1.592h-1.01v-1.592h-1.47v-.888h1.472v-1.584h1.008v1.584h1.48v.888Zm.572-1.92c.043-.29.124-.544.244-.76a1.87 1.87 0 0 1 .452-.54c.181-.144.388-.25.62-.32a2.51 2.51 0 0 1 .748-.108c.288 0 .544.041.768.124.224.08.413.19.568.328a1.411 1.411 0 0 1 .472 1.06c0 .184-.019.347-.056.488-.037.139-.093.26-.168.364a1.014 1.014 0 0 1-.272.26c-.107.07-.23.128-.368.176.645.227.968.667.968 1.32 0 .31-.056.579-.168.808-.112.23-.263.42-.452.572a1.93 1.93 0 0 1-.652.344 2.676 2.676 0 0 1-.776.112 2.86 2.86 0 0 1-.74-.088 1.755 1.755 0 0 1-.576-.28 1.916 1.916 0 0 1-.444-.488 3.323 3.323 0 0 1-.328-.704l.552-.224a.689.689 0 0 1 .4-.044c.123.027.21.088.264.184.12.221.247.383.38.484a.789.789 0 0 0 .476.148.801.801 0 0 0 .616-.248.754.754 0 0 0 .156-.252.81.81 0 0 0 .052-.284c0-.125-.01-.237-.028-.336a.433.433 0 0 0-.144-.26.812.812 0 0 0-.364-.164c-.16-.04-.384-.06-.672-.06v-.856c.243 0 .439-.019.588-.056a.9.9 0 0 0 .344-.152.471.471 0 0 0 .164-.24c.027-.093.04-.196.04-.308 0-.23-.056-.405-.168-.528-.11-.125-.277-.188-.504-.188a.743.743 0 0 0-.728.508c-.056.147-.13.244-.22.292-.09.048-.22.059-.388.032l-.656-.116ZM6.66 97.568h2.16v1H6.66v-1Zm2.808-1.232c.042-.29.124-.544.244-.76a1.87 1.87 0 0 1 .452-.54c.181-.144.388-.25.62-.32a2.51 2.51 0 0 1 .748-.108c.288 0 .544.041.768.124.224.08.413.19.568.328a1.411 1.411 0 0 1 .472 1.06c0 .184-.019.347-.056.488a1.14 1.14 0 0 1-.168.364 1.014 1.014 0 0 1-.272.26c-.107.07-.23.128-.368.176.645.227.968.667.968 1.32 0 .31-.056.579-.168.808-.112.23-.263.42-.452.572a1.925 1.925 0 0 1-.652.344 2.666 2.666 0 0 1-.776.112c-.278 0-.524-.029-.74-.088a1.755 1.755 0 0 1-.576-.28 1.916 1.916 0 0 1-.444-.488 3.323 3.323 0 0 1-.328-.704l.552-.224a.689.689 0 0 1 .4-.044c.122.027.21.088.264.184.12.221.246.383.38.484a.789.789 0 0 0 .476.148.801.801 0 0 0 .616-.248.754.754 0 0 0 .156-.252.811.811 0 0 0 .052-.284c0-.125-.01-.237-.028-.336a.433.433 0 0 0-.144-.26.812.812 0 0 0-.364-.164c-.16-.04-.384-.06-.672-.06v-.856c.242 0 .438-.019.588-.056a.9.9 0 0 0 .344-.152.472.472 0 0 0 .164-.24 1.12 1.12 0 0 0 .04-.308c0-.23-.056-.405-.168-.528-.11-.125-.278-.188-.504-.188a.743.743 0 0 0-.728.508c-.056.147-.13.244-.22.292-.09.048-.22.059-.388.032l-.656-.116Zm10.192 1.232h2.16v1h-2.16v-1Zm6.36 1.812c.133 0 .238.037.316.112a.375.375 0 0 1 .116.288v.72h-4.096v-.4c0-.077.016-.16.048-.248a.598.598 0 0 1 .168-.24l1.68-1.692c.144-.144.27-.281.376-.412.106-.13.194-.259.264-.384a1.542 1.542 0 0 0 .208-.784c0-.232-.056-.41-.168-.532-.11-.125-.278-.188-.504-.188a.743.743 0 0 0-.728.508c-.056.147-.13.244-.22.292-.09.048-.22.059-.388.032l-.656-.116c.042-.29.124-.544.244-.76.122-.216.273-.396.452-.54.181-.144.388-.25.62-.32a2.51 2.51 0 0 1 .748-.108c.288 0 .546.043.776.128.232.083.43.199.592.348.162.15.286.328.372.536.088.205.132.432.132.68 0 .213-.03.41-.092.592a2.31 2.31 0 0 1-.244.52 3.705 3.705 0 0 1-.364.476c-.136.152-.282.307-.436.464l-1.14 1.168c.146-.045.292-.08.436-.104.144-.024.277-.036.4-.036h1.088Zm6.64-1.812h2.16v1h-2.16v-1Zm6.66 2.036v.896H36v-.896h1.12v-2.94a6.198 6.198 0 0 1 .016-.456l-.664.552a.411.411 0 0 1-.176.084.536.536 0 0 1-.16 0 .438.438 0 0 1-.136-.052.327.327 0 0 1-.088-.08l-.392-.52 1.816-1.524h1.024v4.936h.96Zm11.84-2.02c0 .51-.055.95-.164 1.324a2.72 2.72 0 0 1-.456.928 1.814 1.814 0 0 1-.688.548c-.264.12-.551.18-.86.18-.31 0-.596-.06-.86-.18a1.831 1.831 0 0 1-.68-.548 2.74 2.74 0 0 1-.452-.928 4.85 4.85 0 0 1-.16-1.324c0-.51.053-.95.16-1.324.109-.373.26-.683.452-.928a1.79 1.79 0 0 1 .68-.544c.264-.12.55-.18.86-.18.309 0 .596.06.86.18.266.117.496.299.688.544.194.245.346.555.456.928.109.373.164.815.164 1.324Zm-1.28 0c0-.403-.026-.732-.076-.988a1.992 1.992 0 0 0-.204-.608.706.706 0 0 0-.284-.3.69.69 0 0 0-.324-.084.69.69 0 0 0-.324.084.716.716 0 0 0-.28.3c-.08.147-.146.35-.196.608a5.534 5.534 0 0 0-.072.988c0 .405.024.736.072.992.05.256.116.459.196.608a.746.746 0 0 0 .28.304c.106.053.214.08.324.08a.724.724 0 0 0 .324-.08.735.735 0 0 0 .284-.304c.085-.15.153-.352.204-.608.05-.256.076-.587.076-.992Zm11.84.672h-1.48v1.592h-1.01v-1.592h-1.47v-.888h1.472v-1.584h1.008v1.584h1.48v.888Zm4.424 1.348v.896h-3.32v-.896h1.12v-2.94a6.198 6.198 0 0 1 .016-.456l-.664.552a.41.41 0 0 1-.176.084.536.536 0 0 1-.16 0 .438.438 0 0 1-.136-.052.329.329 0 0 1-.088-.08l-.392-.52 1.816-1.524h1.024v4.936h.96Z" fill="#369EB3"/><rect x="69.5" y="92" width="11" height="11" rx="1" fill="#369EB3"/><rect x="69.5" y="92" width="11" height="11" rx="1" stroke="#369EB3"/><path d="M74.72 98.256h-1.48v1.592h-1.01v-1.592h-1.47v-.888h1.472v-1.584h1.008v1.584h1.48v.888Zm4.124 1.124c.133 0 .239.037.316.112a.375.375 0 0 1 .116.288v.72H75.18v-.4c0-.077.016-.16.048-.248a.598.598 0 0 1 .168-.24l1.68-1.692c.144-.144.27-.281.376-.412.107-.13.195-.259.264-.384a1.538 1.538 0 0 0 .208-.784c0-.232-.056-.41-.168-.532-.11-.125-.277-.188-.504-.188a.743.743 0 0 0-.728.508c-.056.147-.13.244-.22.292-.09.048-.22.059-.388.032l-.656-.116c.043-.29.124-.544.244-.76a1.87 1.87 0 0 1 .452-.54c.181-.144.388-.25.62-.32a2.51 2.51 0 0 1 .748-.108c.288 0 .547.043.776.128.232.083.43.199.592.348.163.15.287.328.372.536.088.205.132.432.132.68 0 .213-.03.41-.092.592a2.31 2.31 0 0 1-.244.52 3.696 3.696 0 0 1-.364.476c-.136.152-.281.307-.436.464l-1.14 1.168c.147-.045.292-.08.436-.104.144-.024.277-.036.4-.036h1.088Z" fill="#000"/><path d="M87.72 98.256h-1.48v1.592h-1.01v-1.592h-1.47v-.888h1.472v-1.584h1.008v1.584h1.48v.888Zm.572-1.92c.043-.29.124-.544.244-.76a1.87 1.87 0 0 1 .452-.54c.181-.144.388-.25.62-.32a2.51 2.51 0 0 1 .748-.108c.288 0 .544.041.768.124.224.08.413.19.568.328a1.411 1.411 0 0 1 .472 1.06c0 .184-.019.347-.056.488-.037.139-.093.26-.168.364a1.014 1.014 0 0 1-.272.26c-.107.07-.23.128-.368.176.645.227.968.667.968 1.32 0 .31-.056.579-.168.808-.112.23-.263.42-.452.572a1.925 1.925 0 0 1-.652.344 2.666 2.666 0 0 1-.776.112c-.277 0-.524-.029-.74-.088a1.755 1.755 0 0 1-.576-.28 1.916 1.916 0 0 1-.444-.488 3.323 3.323 0 0 1-.328-.704l.552-.224a.689.689 0 0 1 .4-.044c.123.027.21.088.264.184.12.221.247.383.38.484a.789.789 0 0 0 .476.148.801.801 0 0 0 .616-.248.754.754 0 0 0 .156-.252.81.81 0 0 0 .052-.284c0-.125-.01-.237-.028-.336a.433.433 0 0 0-.144-.26.812.812 0 0 0-.364-.164c-.16-.04-.384-.06-.672-.06v-.856c.243 0 .439-.019.588-.056a.9.9 0 0 0 .344-.152.471.471 0 0 0 .164-.24c.027-.093.04-.196.04-.308 0-.23-.056-.405-.168-.528-.11-.125-.277-.188-.504-.188a.743.743 0 0 0-.728.508c-.056.147-.13.244-.22.292-.09.048-.22.059-.388.032l-.656-.116ZM6.66 115.568h2.16v1H6.66v-1Zm2.808-1.232a2.2 2.2 0 0 1 .244-.76 1.87 1.87 0 0 1 .452-.54c.181-.144.388-.251.62-.32a2.51 2.51 0 0 1 .748-.108c.288 0 .544.041.768.124.224.08.413.189.568.328a1.409 1.409 0 0 1 .472 1.06c0 .184-.019.347-.056.488a1.14 1.14 0 0 1-.168.364 1.018 1.018 0 0 1-.272.26 1.7 1.7 0 0 1-.368.176c.645.227.968.667.968 1.32 0 .309-.056.579-.168.808-.112.229-.263.42-.452.572a1.925 1.925 0 0 1-.652.344 2.666 2.666 0 0 1-.776.112c-.278 0-.524-.029-.74-.088a1.755 1.755 0 0 1-.576-.28 1.921 1.921 0 0 1-.444-.488 3.316 3.316 0 0 1-.328-.704l.552-.224a.686.686 0 0 1 .4-.044c.122.027.21.088.264.184.12.221.246.383.38.484a.787.787 0 0 0 .476.148.801.801 0 0 0 .616-.248.76.76 0 0 0 .156-.252.81.81 0 0 0 .052-.284c0-.125-.01-.237-.028-.336a.433.433 0 0 0-.144-.26.809.809 0 0 0-.364-.164c-.16-.04-.384-.06-.672-.06v-.856c.242 0 .438-.019.588-.056a.895.895 0 0 0 .344-.152.474.474 0 0 0 .164-.24 1.12 1.12 0 0 0 .04-.308c0-.229-.056-.405-.168-.528-.11-.125-.278-.188-.504-.188a.742.742 0 0 0-.728.508c-.056.147-.13.244-.22.292-.09.048-.22.059-.388.032l-.656-.116Zm10.192 1.232h2.16v1h-2.16v-1Zm6.36 1.812c.133 0 .238.037.316.112a.375.375 0 0 1 .116.288v.72h-4.096v-.4c0-.077.016-.16.048-.248a.598.598 0 0 1 .168-.24l1.68-1.692c.144-.144.27-.281.376-.412.106-.131.194-.259.264-.384a1.544 1.544 0 0 0 .208-.784c0-.232-.056-.409-.168-.532-.11-.125-.278-.188-.504-.188a.742.742 0 0 0-.728.508c-.056.147-.13.244-.22.292-.09.048-.22.059-.388.032l-.656-.116a2.2 2.2 0 0 1 .244-.76c.122-.216.273-.396.452-.54.181-.144.388-.251.62-.32a2.51 2.51 0 0 1 .748-.108c.288 0 .546.043.776.128.232.083.43.199.592.348.162.149.286.328.372.536.088.205.132.432.132.68 0 .213-.03.411-.092.592a2.31 2.31 0 0 1-.244.52 3.705 3.705 0 0 1-.364.476c-.136.152-.282.307-.436.464l-1.14 1.168c.146-.045.292-.08.436-.104.144-.024.277-.036.4-.036h1.088Zm6.64-1.812h2.16v1h-2.16v-1Zm6.66 2.036v.896H36v-.896h1.12v-2.94a6.198 6.198 0 0 1 .016-.456l-.664.552a.418.418 0 0 1-.176.084.536.536 0 0 1-.16 0 .445.445 0 0 1-.136-.052.327.327 0 0 1-.088-.08l-.392-.52 1.816-1.524h1.024v4.936h.96Zm11.84-2.02c0 .509-.055.951-.164 1.324a2.72 2.72 0 0 1-.456.928 1.814 1.814 0 0 1-.688.548c-.264.12-.551.18-.86.18-.31 0-.596-.06-.86-.18a1.831 1.831 0 0 1-.68-.548 2.74 2.74 0 0 1-.452-.928 4.85 4.85 0 0 1-.16-1.324c0-.509.053-.951.16-1.324.109-.373.26-.683.452-.928a1.79 1.79 0 0 1 .68-.544c.264-.12.55-.18.86-.18.309 0 .596.06.86.18.266.117.496.299.688.544.194.245.346.555.456.928.109.373.164.815.164 1.324Zm-1.28 0c0-.403-.026-.732-.076-.988a1.992 1.992 0 0 0-.204-.608.703.703 0 0 0-.284-.3.69.69 0 0 0-.324-.084.69.69 0 0 0-.324.084.713.713 0 0 0-.28.3c-.08.147-.146.349-.196.608a5.532 5.532 0 0 0-.072.988c0 .405.024.736.072.992.05.256.116.459.196.608a.744.744 0 0 0 .28.304c.106.053.214.08.324.08a.724.724 0 0 0 .324-.08.733.733 0 0 0 .284-.304c.085-.149.153-.352.204-.608.05-.256.076-.587.076-.992Zm11.84.672h-1.48v1.592h-1.01v-1.592h-1.47v-.888h1.472v-1.584h1.008v1.584h1.48v.888Zm4.424 1.348v.896h-3.32v-.896h1.12v-2.94a6.198 6.198 0 0 1 .016-.456l-.664.552a.418.418 0 0 1-.176.084.536.536 0 0 1-.16 0 .445.445 0 0 1-.136-.052.329.329 0 0 1-.088-.08l-.392-.52 1.816-1.524h1.024v4.936h.96Zm8.576-1.348h-1.48v1.592h-1.01v-1.592h-1.47v-.888h1.472v-1.584h1.008v1.584h1.48v.888Zm4.124 1.124c.133 0 .239.037.316.112a.375.375 0 0 1 .116.288v.72H75.18v-.4c0-.077.016-.16.048-.248a.598.598 0 0 1 .168-.24l1.68-1.692c.144-.144.27-.281.376-.412a2.64 2.64 0 0 0 .264-.384 1.54 1.54 0 0 0 .208-.784c0-.232-.056-.409-.168-.532-.11-.125-.277-.188-.504-.188a.742.742 0 0 0-.728.508c-.056.147-.13.244-.22.292-.09.048-.22.059-.388.032l-.656-.116a2.22 2.22 0 0 1 .244-.76 1.87 1.87 0 0 1 .452-.54c.181-.144.388-.251.62-.32a2.51 2.51 0 0 1 .748-.108c.288 0 .547.043.776.128.232.083.43.199.592.348.163.149.287.328.372.536.088.205.132.432.132.68 0 .213-.03.411-.092.592a2.31 2.31 0 0 1-.244.52 3.696 3.696 0 0 1-.364.476 13.24 13.24 0 0 1-.436.464l-1.14 1.168c.147-.045.292-.08.436-.104.144-.024.277-.036.4-.036h1.088Z" fill="#369EB3"/><rect x="82.5" y="110" width="11" height="11" rx="1" fill="#369EB3"/><rect x="82.5" y="110" width="11" height="11" rx="1" stroke="#369EB3"/><path d="M87.72 116.256h-1.48v1.592h-1.01v-1.592h-1.47v-.888h1.472v-1.584h1.008v1.584h1.48v.888Zm.572-1.92a2.22 2.22 0 0 1 .244-.76 1.87 1.87 0 0 1 .452-.54c.181-.144.388-.251.62-.32a2.51 2.51 0 0 1 .748-.108c.288 0 .544.041.768.124.224.08.413.189.568.328a1.409 1.409 0 0 1 .472 1.06c0 .184-.019.347-.056.488a1.11 1.11 0 0 1-.168.364 1.018 1.018 0 0 1-.272.26 1.72 1.72 0 0 1-.368.176c.645.227.968.667.968 1.32 0 .309-.056.579-.168.808-.112.229-.263.42-.452.572a1.925 1.925 0 0 1-.652.344 2.666 2.666 0 0 1-.776.112c-.277 0-.524-.029-.74-.088a1.755 1.755 0 0 1-.576-.28 1.921 1.921 0 0 1-.444-.488 3.316 3.316 0 0 1-.328-.704l.552-.224a.686.686 0 0 1 .4-.044c.123.027.21.088.264.184.12.221.247.383.38.484a.787.787 0 0 0 .476.148.801.801 0 0 0 .616-.248.76.76 0 0 0 .156-.252.808.808 0 0 0 .052-.284c0-.125-.01-.237-.028-.336a.433.433 0 0 0-.144-.26.809.809 0 0 0-.364-.164c-.16-.04-.384-.06-.672-.06v-.856c.243 0 .439-.019.588-.056a.895.895 0 0 0 .344-.152.474.474 0 0 0 .164-.24c.027-.093.04-.196.04-.308 0-.229-.056-.405-.168-.528-.11-.125-.277-.188-.504-.188a.742.742 0 0 0-.728.508c-.056.147-.13.244-.22.292-.09.048-.22.059-.388.032l-.656-.116Z" fill="#000"/></svg>