<svg width="13" height="52" fill="none" xmlns="http://www.w3.org/2000/svg"><path fill-rule="evenodd" clip-rule="evenodd" d="m9.246 47.392-.854.854-1.495-1.495.854-.854 1.495 1.495Z" fill="url(#a)"/><path fill-rule="evenodd" clip-rule="evenodd" d="m11.45 48.741-1.776-1.775a.604.604 0 0 0-.854 0l-.854.854a.604.604 0 0 0 0 .854L9.74 50.45a1.208 1.208 0 1 0 1.709-1.709Z" fill="url(#b)"/><path fill-rule="evenodd" clip-rule="evenodd" d="M1 44.078a4.078 4.078 0 1 1 8.155 0 4.078 4.078 0 0 1-8.155 0Z" fill="url(#c)"/><path fill-rule="evenodd" clip-rule="evenodd" d="M2.208 44.078a2.87 2.87 0 1 1 5.739 0 2.87 2.87 0 0 1-5.739 0Z" fill="#000"/><path fill-rule="evenodd" clip-rule="evenodd" d="m9.243 34.392-.854.854-1.496-1.495.855-.854 1.495 1.495Z" fill="#A7A7A7"/><path fill-rule="evenodd" clip-rule="evenodd" d="M11.446 35.741 9.67 33.966a.604.604 0 0 0-.854 0l-.854.854a.604.604 0 0 0 0 .854l1.776 1.776a1.208 1.208 0 1 0 1.708-1.709Z" fill="#737373"/><path fill-rule="evenodd" clip-rule="evenodd" d="M.996 31.078a4.078 4.078 0 1 1 8.156 0 4.078 4.078 0 0 1-8.156 0Z" fill="#979797"/><path fill-rule="evenodd" clip-rule="evenodd" d="M2.205 31.078a2.87 2.87 0 1 1 5.738 0 2.87 2.87 0 0 1-5.738 0Z" fill="#000"/><path fill-rule="evenodd" clip-rule="evenodd" d="m9.246 21.392-.854.854-1.495-1.495.854-.854 1.495 1.495Z" fill="url(#d)"/><path fill-rule="evenodd" clip-rule="evenodd" d="m11.45 22.741-1.776-1.775a.604.604 0 0 0-.854 0l-.854.854a.604.604 0 0 0 0 .854L9.74 24.45a1.208 1.208 0 1 0 1.709-1.709Z" fill="url(#e)"/><path fill-rule="evenodd" clip-rule="evenodd" d="M1 18.078a4.078 4.078 0 1 1 8.155 0 4.078 4.078 0 0 1-8.155 0Z" fill="url(#f)"/><path fill-rule="evenodd" clip-rule="evenodd" d="M2.208 18.078a2.87 2.87 0 1 1 5.739 0 2.87 2.87 0 0 1-5.739 0Z" fill="#000"/><path fill-rule="evenodd" clip-rule="evenodd" d="m9.237 8.392-.854.854-1.495-1.495.854-.854 1.495 1.495Z" fill="#A7A7A7"/><path fill-rule="evenodd" clip-rule="evenodd" d="M11.44 9.741 9.666 7.966a.604.604 0 0 0-.854 0l-.854.854a.604.604 0 0 0 0 .854l1.775 1.776a1.208 1.208 0 1 0 1.709-1.709Z" fill="#737373"/><path fill-rule="evenodd" clip-rule="evenodd" d="M5.069 1a4.078 4.078 0 1 0 0 8.155 4.078 4.078 0 0 0 0-8.155Zm0 1.208a2.87 2.87 0 1 0 0 5.739 2.87 2.87 0 0 0 0-5.739Z" fill="#979797"/><path fill-rule="evenodd" clip-rule="evenodd" d="M2.208 5.078a2.87 2.87 0 1 1 5.739 0 2.87 2.87 0 0 1-5.739 0Z" fill="#000"/><defs><linearGradient id="a" x1="8.072" y1="45.897" x2="8.072" y2="48.246" gradientUnits="userSpaceOnUse"><stop stop-color="#B4B4B4"/><stop offset="1" stop-color="#E4E4E4"/></linearGradient><linearGradient id="b" x1="9.796" y1="46.789" x2="9.796" y2="50.803" gradientUnits="userSpaceOnUse"><stop stop-color="#B4B4B4"/><stop offset="1" stop-color="#E4E4E4"/></linearGradient><linearGradient id="c" x1="5.078" y1="40" x2="5.078" y2="48.154" gradientUnits="userSpaceOnUse"><stop stop-color="#B4B4B4"/><stop offset="1" stop-color="#E4E4E4"/></linearGradient><linearGradient id="d" x1="8.072" y1="19.897" x2="8.072" y2="22.246" gradientUnits="userSpaceOnUse"><stop stop-color="#B4B4B4"/><stop offset="1" stop-color="#E4E4E4"/></linearGradient><linearGradient id="e" x1="9.796" y1="20.789" x2="9.796" y2="24.803" gradientUnits="userSpaceOnUse"><stop stop-color="#B4B4B4"/><stop offset="1" stop-color="#E4E4E4"/></linearGradient><linearGradient id="f" x1="5.078" y1="14" x2="5.078" y2="22.154" gradientUnits="userSpaceOnUse"><stop stop-color="#B4B4B4"/><stop offset="1" stop-color="#E4E4E4"/></linearGradient></defs></svg>