<svg width="31" height="24" fill="none" xmlns="http://www.w3.org/2000/svg"><path d="M.5 2.5a2 2 0 0 1 2-2h26a2 2 0 0 1 2 2v7a2 2 0 0 1-2 2h-26a2 2 0 0 1-2-2v-7Z" fill="#242424"/><path d="M11.608 4.244h-1.64V9H8.616V4.244h-1.64V3.172h4.632v1.072Zm3.479.608V9h-.768c-.155 0-.256-.07-.304-.208l-.072-.24c-.08.077-.163.148-.248.212a1.654 1.654 0 0 1-.276.16 1.565 1.565 0 0 1-.316.1c-.112.027-.235.04-.368.04-.227 0-.428-.039-.604-.116a1.25 1.25 0 0 1-.44-.332 1.44 1.44 0 0 1-.272-.5 2.069 2.069 0 0 1-.092-.632V4.852h1.24v2.632c0 .205.046.364.14.476.093.112.23.168.412.168a.87.87 0 0 0 .38-.084c.12-.059.236-.137.348-.236V4.852h1.24Zm1.866.448c.08-.075.163-.144.248-.208a1.515 1.515 0 0 1 .588-.264 1.64 1.64 0 0 1 .372-.04c.227 0 .427.04.6.12.176.077.324.187.444.328.12.139.21.305.272.5.062.192.092.401.092.628V9h-1.24V6.364c0-.203-.046-.36-.14-.472-.093-.115-.23-.172-.412-.172a.863.863 0 0 0-.384.088 1.502 1.502 0 0 0-.344.232V9h-1.24V4.852h.768c.155 0 .256.07.304.208l.072.24Zm5.879 1.128c0-.099-.014-.195-.04-.288a.64.64 0 0 0-.124-.248.603.603 0 0 0-.224-.18.773.773 0 0 0-.34-.068c-.235 0-.419.068-.552.204-.134.133-.222.327-.264.58h1.544Zm-1.56.72c.04.347.145.599.316.756.17.155.39.232.66.232.144 0 .268-.017.372-.052a1.79 1.79 0 0 0 .276-.116l.224-.116a.478.478 0 0 1 .216-.052c.098 0 .173.036.224.108l.36.444a1.866 1.866 0 0 1-.416.36 2.219 2.219 0 0 1-.924.32 3.252 3.252 0 0 1-.444.032c-.29 0-.564-.047-.82-.14a1.928 1.928 0 0 1-.668-.424 2.03 2.03 0 0 1-.452-.696 2.63 2.63 0 0 1-.164-.968c0-.277.046-.54.14-.788.096-.248.232-.465.408-.652a1.95 1.95 0 0 1 .644-.444 2.14 2.14 0 0 1 .856-.164c.274 0 .525.043.752.128a1.615 1.615 0 0 1 .972.972c.093.235.14.501.14.8 0 .093-.004.17-.012.228a.36.36 0 0 1-.044.14.166.166 0 0 1-.088.072.385.385 0 0 1-.136.02h-2.392Z" fill="#B4B4B4"/><path d="M.5 14.5a2 2 0 0 1 2-2h26a2 2 0 0 1 2 2v7a2 2 0 0 1-2 2h-26a2 2 0 0 1-2-2v-7Z" fill="#242424"/><rect x="2.5" y="14.5" width="26" height="7" rx="1" fill="#369EB3"/><rect x="2.5" y="14.5" width="26" height="7" rx="1" stroke="#369EB3"/><path d="M11.608 16.244h-1.64V21H8.616v-4.756h-1.64v-1.072h4.632v1.072Zm3.479.608V21h-.768c-.155 0-.256-.07-.304-.208l-.072-.24c-.08.077-.163.148-.248.212a1.654 1.654 0 0 1-.276.16 1.563 1.563 0 0 1-.316.1c-.112.027-.235.04-.368.04-.227 0-.428-.039-.604-.116a1.25 1.25 0 0 1-.44-.332 1.44 1.44 0 0 1-.272-.5 2.07 2.07 0 0 1-.092-.632v-2.632h1.24v2.632c0 .205.046.364.14.476.093.112.23.168.412.168a.87.87 0 0 0 .38-.084c.12-.059.236-.137.348-.236v-2.956h1.24Zm1.866.448c.08-.075.163-.144.248-.208a1.517 1.517 0 0 1 .588-.264c.115-.027.239-.04.372-.04.227 0 .427.04.6.12.176.077.324.187.444.328.12.139.21.305.272.5.062.192.092.401.092.628V21h-1.24v-2.636c0-.203-.046-.36-.14-.472-.093-.115-.23-.172-.412-.172a.862.862 0 0 0-.384.088 1.501 1.501 0 0 0-.344.232V21h-1.24v-4.148h.768c.155 0 .256.07.304.208l.072.24Zm5.879 1.128c0-.099-.014-.195-.04-.288a.64.64 0 0 0-.124-.248.602.602 0 0 0-.224-.18.773.773 0 0 0-.34-.068c-.235 0-.419.068-.552.204-.134.133-.222.327-.264.58h1.544Zm-1.56.72c.04.347.145.599.316.756.17.155.39.232.66.232.144 0 .268-.017.372-.052a1.79 1.79 0 0 0 .276-.116l.224-.116a.477.477 0 0 1 .216-.052c.098 0 .173.036.224.108l.36.444a1.864 1.864 0 0 1-.416.36 2.216 2.216 0 0 1-.924.32 3.256 3.256 0 0 1-.444.032c-.29 0-.564-.047-.82-.14a1.927 1.927 0 0 1-.668-.424 2.03 2.03 0 0 1-.452-.696 2.63 2.63 0 0 1-.164-.968c0-.277.046-.54.14-.788.096-.248.232-.465.408-.652a1.97 1.97 0 0 1 .644-.444 2.14 2.14 0 0 1 .856-.164c.274 0 .525.043.752.128a1.614 1.614 0 0 1 .972.972c.093.235.14.501.14.8 0 .093-.004.17-.012.228a.36.36 0 0 1-.044.14.166.166 0 0 1-.088.072.386.386 0 0 1-.136.02h-2.392Z" fill="#000"/></svg>