<svg width="10" height="12" fill="none" xmlns="http://www.w3.org/2000/svg"><path fill-rule="evenodd" clip-rule="evenodd" d="M7.24 1.749 10 3.45 9.995 0H.833C.4.002 0 .365 0 .76l.004 6.648 1.888.477a.195.195 0 0 0 .229-.116l.469-1.55c.031-.11.175-.16.283-.095l4.516 2.802c.17.105.045.35-.152.298l-3.48-.868c-.098-.024-.201.03-.223.12l-.461 1.55c-.031.11-.18.16-.282.095L.005 8.38.007 12h9.16a.84.84 0 0 0 .833-.813l-.005-6.743-1.865-.463c-.1-.024-.197.03-.224.116L7.422 5.65c-.035.11-.174.156-.282.096L2.62 2.939c-.171-.105-.046-.35.151-.298l3.48.868c.099.024.197-.029.225-.115l.483-1.555c.035-.105.174-.155.282-.09Z" fill="#369EB3"/></svg>