<svg width="51" height="760" fill="none" xmlns="http://www.w3.org/2000/svg"><path d="M.5 2.5a2 2 0 0 1 2-2h46a2 2 0 0 1 2 2v71a2 2 0 0 1-2 2h-46a2 2 0 0 1-2-2v-71Z" fill="#222"/><path fill="#369EB3" d="M2.5 2.5h21v11h-21z"/><rect x="2.5" y="2.5" width="21" height="11" rx="1" fill="#369EB3"/><rect x="2.5" y="2.5" width="21" height="11" rx="1" stroke="#369EB3"/><path d="m46.55 8.016-4 4-8-8-4.3 4" stroke="#B4B4B4" stroke-linecap="round"/><path d="m38.4 19.016 8 8m-16 0v-8 8Zm8-8v8-8Zm-8 0 8 8-8-8Zm9 22h2m-10-3v-4 4Zm8 3v-6 6Zm-6-7v3-3Zm10 2v1.5-1.5Zm-8 1v5-5Zm6 .5v3.5-3.5Zm4-1.5v4-4Zm-8-1v7-7Zm-6-1h2-2Zm2 3h2-2Zm2 5h2-2Zm2-7h2-2Zm4 2.5h2-2Zm2-1.5h2-2Zm-14 2h2-2Zm16 2h2-2Z" stroke="#B4B4B4" stroke-linecap="round" stroke-linejoin="round"/><path fill-rule="evenodd" clip-rule="evenodd" d="M29 58.016h2v-5h-2v5Zm16.8 0h2v-5h-2v5Zm-12.7-2h-2v-3h2v3Zm12.6 0h-2v-3h2v3Zm-12.5-2.75h2v-.5h-2v.5Zm10.4 0h-2v-.5h2v.5Zm-8.3-.25h2v-3h-2v3Zm4.1 0h-2v-5h2v5Zm.1 0h2v-3h-2v3Z" fill="#B4B4B4"/><path d="m31.284 69.142.343-1.354h.413l.102-.343h-.425c.121-.494.282-.855.48-1.084.122-.142.24-.214.355-.214a.08.08 0 0 1 .057.021.069.069 0 0 1 .022.053c0 .02-.016.056-.048.111a.308.308 0 0 0-.048.155c0 .069.025.127.076.176.05.049.115.073.193.073a.28.28 0 0 0 .211-.089.336.336 0 0 0 .085-.242.352.352 0 0 0-.127-.281c-.085-.072-.221-.108-.409-.108a1.33 1.33 0 0 0-.797.257c-.238.172-.465.457-.68.853-.074.137-.144.225-.21.264-.067.039-.173.057-.32.055l-.096.343h.407l-.598 2.34c-.1.386-.167.623-.202.713a.852.852 0 0 1-.232.334.215.215 0 0 1-.149.056.062.062 0 0 1-.041-.015l-.015-.02c0-.01.015-.03.044-.06.03-.031.044-.077.044-.14a.225.225 0 0 0-.07-.17c-.047-.045-.114-.067-.202-.067-.106 0-.19.03-.255.088a.272.272 0 0 0-.097.208c0 .086.04.16.117.224.079.063.2.095.367.095.263 0 .497-.069.701-.206.204-.138.383-.35.535-.638.152-.287.308-.75.469-1.388Zm14.997-1.36.507-1.766h-.176l-.979.172-.032.118c.111-.006.194.01.25.05a.13.13 0 0 1 .058.11c0 .056-.022.156-.065.303l-.896 3.108c.36.19.7.284 1.022.284.434 0 .82-.183 1.16-.548.383-.414.575-.885.575-1.412 0-.22-.058-.415-.175-.584-.116-.17-.291-.254-.526-.254a.7.7 0 0 0-.337.084c-.103.055-.232.167-.386.335Zm-4.573.117h1.409v-1.406h.384V67.9h1.409v.387H43.5v1.395h-.383v-1.395h-1.41V67.9Zm-3.36-.495-.57 1.949-.058.237a.375.375 0 0 0-.009.064.09.09 0 0 0 .025.062c.017.017.034.026.052.026.04 0 .097-.031.17-.094.029-.025.1-.115.21-.27l.103.054c-.139.254-.287.439-.444.555a.839.839 0 0 1-.508.174c-.111 0-.196-.029-.255-.086a.293.293 0 0 1-.088-.219c0-.076.031-.217.094-.424l.07-.238c-.226.389-.444.664-.653.826a.62.62 0 0 1-.387.141c-.18 0-.31-.074-.39-.221a1.029 1.029 0 0 1-.12-.5c0-.275.084-.59.252-.947.168-.357.389-.643.662-.86.225-.18.436-.27.633-.27.11 0 .197.032.264.096.066.063.115.179.146.347l.106-.36.694-.042Zm1.42-.04-1.022.175-.02.111a.991.991 0 0 1 .192-.023c.102 0 .186.044.252.132.106.136.252.552.44 1.248a6.39 6.39 0 0 1-.302.387.883.883 0 0 1-.223.19.325.325 0 0 1-.152.035.581.581 0 0 1-.21-.07.427.427 0 0 0-.18-.047.333.333 0 0 0-.343.343c0 .094.03.17.09.228a.33.33 0 0 0 .242.088c.097 0 .19-.02.275-.061.086-.041.194-.129.324-.263.13-.133.309-.346.537-.637.088.278.165.48.229.605a.703.703 0 0 0 .221.273.549.549 0 0 0 .312.083.641.641 0 0 0 .37-.132c.163-.113.331-.308.503-.586l-.105-.061c-.117.164-.204.266-.261.307a.228.228 0 0 1-.132.039c-.06 0-.12-.038-.179-.115-.1-.129-.232-.486-.398-1.072.148-.262.273-.433.375-.513a.373.373 0 0 1 .234-.088c.032 0 .088.012.169.034a.818.818 0 0 0 .215.034c.086 0 .158-.03.216-.09a.317.317 0 0 0 .086-.23c0-.1-.029-.178-.087-.237-.057-.058-.14-.088-.247-.088a.562.562 0 0 0-.271.07c-.085.045-.193.144-.324.296a7.149 7.149 0 0 0-.433.595 2.93 2.93 0 0 0-.393-.96Zm-4.274.067h-3.205v.38h3.205v-.38Zm1.916.53c0-.158-.025-.272-.074-.343a.167.167 0 0 0-.143-.073c-.06 0-.123.03-.188.088-.13.12-.272.367-.423.737-.151.37-.227.69-.227.96 0 .103.017.177.051.223.034.046.072.07.113.07.088 0 .177-.052.267-.153a2.42 2.42 0 0 0 .348-.53c.184-.368.276-.694.276-.98Zm8.502 2.033a.475.475 0 0 1-.25-.088l.399-1.377c.08-.279.154-.462.223-.548.101-.132.22-.199.357-.199a.28.28 0 0 1 .217.109c.062.072.094.177.094.316 0 .244-.041.49-.123.735a2.424 2.424 0 0 1-.307.63c-.122.174-.238.294-.35.36a.51.51 0 0 1-.26.062ZM35.494 68.39h-3.205v.38h3.205v-.38Z" fill="#B4B4B4"/><path d="M4.7 8.015c.55-4.485 4.3-4 4.3-4m4 4.016c-.55-4.486-4.5-4.016-4.5-4.016M13 8c.55 4.486 4.395 4.027 4.5 4.015m3.8-4.014c-.55 4.486-4.5 4.016-4.5 4.016" stroke="#000" stroke-linecap="round"/><path d="M13 26.534h8m-16 0v-7 7Zm8-7v7-7Zm8 0v7-7Zm-16 0h8-8Z" stroke="#B4B4B4" stroke-linecap="round" stroke-linejoin="round"/><path d="M4 37.11c.043-1.023.745-4.58 1-4 .255.579.4 5.933.9 6.933s.63-3.502 1.1-2.934c.47.569.312 5.727.779 5.208.467-.52.666-6.406 1.221-7.208.555-.802.465 4.267 1 4 .535-.266.64-5.565 1.14-5.065.5.5.395 6.049.86 7.065.465 1.017.506-3.277 1-3 .494.277.517 4.736 1 4 .483-.736.431-6.194.931-6.944s.591 4.216 1.069 3.944c.478-.272.343-5.532.843-5.032.5.5.618 6.024 1.157 7.032.54 1.008.515-2.725 1-3 .485-.275.441 3.15.941 1.9.5-1.25.544-6.175 1.059-6.9.515-.725 1 4 1 4" stroke="#B4B4B4" stroke-width=".75"/><path d="m18 52.853 3 4m-16 0 3-8-3 8Zm13-4h-7 7Zm-10-4 3 4-3-4Z" stroke="#B4B4B4" stroke-linecap="round" stroke-linejoin="round"/><path fill-rule="evenodd" clip-rule="evenodd" d="M11 64.5a.5.5 0 1 1 1 0 .5.5 0 0 1-1 0Zm.009.871c-.43.154-.774.45-1.079.852-.483.64-.834 1.508-1.216 2.463l-.015.037c-.364.91-.76 1.9-1.331 2.656-.486.643-1.116 1.141-1.969 1.31a1 1 0 1 1-.077-1.008c.511-.133.905-.45 1.248-.904.483-.64.834-1.508 1.216-2.463l.015-.037c.364-.91.76-1.9 1.331-2.657.364-.481.809-.882 1.368-1.123a1 1 0 1 1 1.886.468 19.644 19.644 0 0 0 1.043 2.028c.365.609.779 1.195 1.206 1.622.192.192.372.337.538.44a.997.997 0 0 1 .392-.053 12.846 12.846 0 0 1 1.165-1.81c.675-.866 1.63-1.82 2.813-2.233a1 1 0 1 1 .233.98c-.858.332-1.627 1.059-2.256 1.868a11.748 11.748 0 0 0-1.12 1.755 1 1 0 1 1-1.883.257 4.264 4.264 0 0 1-.59-.497c-.51-.51-.971-1.174-1.356-1.815A19.659 19.659 0 0 1 11.53 65.5h-.03a.996.996 0 0 1-.491-.129ZM4.5 71.75a.5.5 0 1 0 0 1 .5.5 0 0 0 0-1Zm11-2.25a.5.5 0 1 0 0 1 .5.5 0 0 0 0-1Zm4.5-4.25a.5.5 0 1 1 1 0 .5.5 0 0 1-1 0Z" fill="#B4B4B4"/><path d="M.5 78.5a2 2 0 0 1 2-2h46a2 2 0 0 1 2 2v71a2 2 0 0 1-2 2h-46a2 2 0 0 1-2-2v-71Z" fill="#222"/><path fill="#369EB3" d="M27.5 78.5h21v11h-21z"/><rect x="27.5" y="78.5" width="21" height="11" rx="1" fill="#369EB3"/><rect x="27.5" y="78.5" width="21" height="11" rx="1" stroke="#369EB3"/><path d="m46.55 84.016-4 4-8-8-4.3 4" stroke="#000" stroke-linecap="round"/><path d="m38.4 95.016 8 8m-16 0v-8 8Zm8-8v8-8Zm-8 0 8 8-8-8Zm9 22h2m-10-3v-4 4Zm8 3v-6 6Zm-6-7v3-3Zm10 2v1.5-1.5Zm-8 1v5-5Zm6 .5v3.5-3.5Zm4-1.5v4-4Zm-8-1v7-7Zm-6-1h2-2Zm2 3h2-2Zm2 5h2-2Zm2-7h2-2Zm4 2.5h2-2Zm2-1.5h2-2Zm-14 2h2-2Zm16 2h2-2Z" stroke="#B4B4B4" stroke-linecap="round" stroke-linejoin="round"/><path fill-rule="evenodd" clip-rule="evenodd" d="M29 134.016h2v-5h-2v5Zm16.8 0h2v-5h-2v5Zm-12.7-2h-2v-3h2v3Zm12.6 0h-2v-3h2v3Zm-12.5-2.75h2v-.5h-2v.5Zm10.4 0h-2v-.5h2v.5Zm-8.3-.25h2v-3h-2v3Zm4.1 0h-2v-5h2v5Zm.1 0h2v-3h-2v3Z" fill="#B4B4B4"/><path d="m31.284 145.142.343-1.354h.413l.102-.343h-.425c.121-.494.282-.855.48-1.084.122-.142.24-.214.355-.214a.08.08 0 0 1 .057.021.07.07 0 0 1 .022.053.3.3 0 0 1-.048.111.307.307 0 0 0-.048.155c0 .069.025.127.076.176.05.049.115.073.193.073a.277.277 0 0 0 .211-.089.337.337 0 0 0 .085-.242.352.352 0 0 0-.127-.281c-.085-.072-.221-.108-.409-.108-.293 0-.559.086-.797.257-.238.172-.465.456-.68.853-.074.137-.144.225-.21.264-.067.039-.173.057-.32.055l-.096.343h.407l-.598 2.341c-.1.385-.167.622-.202.712a.852.852 0 0 1-.232.334.215.215 0 0 1-.149.055.06.06 0 0 1-.041-.014l-.015-.021c0-.009.015-.029.044-.06.03-.03.044-.076.044-.139a.226.226 0 0 0-.07-.17c-.047-.045-.114-.067-.202-.067a.362.362 0 0 0-.255.088.271.271 0 0 0-.097.208c0 .086.04.16.117.224.079.063.2.095.367.095.263 0 .497-.069.701-.207.204-.137.383-.35.535-.637.152-.287.308-.75.469-1.388Zm14.997-1.36.507-1.766h-.176l-.979.172-.032.118c.111-.006.194.01.25.049a.13.13 0 0 1 .058.112c0 .054-.022.155-.065.302l-.896 3.108c.36.189.7.284 1.022.284.434 0 .82-.182 1.16-.548.383-.414.575-.884.575-1.412a.999.999 0 0 0-.175-.584c-.116-.169-.291-.254-.526-.254a.697.697 0 0 0-.337.084c-.103.055-.232.167-.386.335Zm-4.573.117h1.409v-1.406h.384v1.406h1.409v.387H43.5v1.395h-.383v-1.395h-1.41v-.387Zm-3.36-.495-.57 1.949-.058.237a.376.376 0 0 0-.009.064.09.09 0 0 0 .025.062c.017.017.034.026.052.026.04 0 .097-.031.17-.094.029-.025.1-.115.21-.269l.103.053c-.139.254-.287.439-.444.555a.84.84 0 0 1-.508.174c-.111 0-.196-.029-.255-.086a.295.295 0 0 1-.088-.219c0-.076.031-.217.094-.424l.07-.238c-.226.389-.444.664-.653.827a.625.625 0 0 1-.387.14c-.18 0-.31-.074-.39-.221a1.032 1.032 0 0 1-.12-.5c0-.275.084-.591.252-.947.168-.357.389-.643.662-.86.225-.18.436-.27.633-.27.11 0 .197.032.264.095.066.064.115.18.146.348l.106-.361.694-.041Zm1.42-.041-1.022.176-.02.111c.075-.015.14-.023.192-.023.102 0 .186.044.252.132.106.137.252.553.44 1.248a6.663 6.663 0 0 1-.302.387.886.886 0 0 1-.223.19.33.33 0 0 1-.152.035.577.577 0 0 1-.21-.07.431.431 0 0 0-.18-.047.331.331 0 0 0-.342.343c0 .093.03.17.089.228.06.059.14.088.242.088a.63.63 0 0 0 .275-.061c.086-.041.194-.129.324-.263.13-.133.309-.346.537-.637.088.278.165.479.229.605a.708.708 0 0 0 .221.273.554.554 0 0 0 .312.083.641.641 0 0 0 .37-.132c.163-.113.331-.308.503-.586l-.105-.061c-.117.164-.204.266-.261.307a.224.224 0 0 1-.132.039c-.06 0-.12-.039-.179-.115-.1-.129-.232-.486-.398-1.072.148-.262.273-.433.375-.513a.376.376 0 0 1 .234-.088c.032 0 .088.012.169.034a.799.799 0 0 0 .215.034c.086 0 .158-.03.216-.09a.316.316 0 0 0 .086-.23.325.325 0 0 0-.087-.237.334.334 0 0 0-.247-.088.561.561 0 0 0-.271.069c-.085.046-.193.145-.324.297a7.33 7.33 0 0 0-.433.595 2.936 2.936 0 0 0-.393-.961Zm-4.274.068h-3.205v.381h3.205v-.381Zm1.916.53c0-.158-.025-.273-.074-.343a.167.167 0 0 0-.143-.073c-.06 0-.123.029-.188.088-.13.121-.272.367-.423.737-.151.37-.227.69-.227.959 0 .104.017.178.051.224.034.046.072.069.113.069.088 0 .177-.051.267-.152.128-.145.245-.322.348-.531.184-.367.276-.693.276-.978Zm8.502 2.033a.472.472 0 0 1-.25-.088l.399-1.377c.08-.279.154-.462.223-.548.101-.132.22-.199.357-.199a.28.28 0 0 1 .217.109c.062.072.094.177.094.316 0 .244-.041.489-.123.735a2.428 2.428 0 0 1-.307.63 1.253 1.253 0 0 1-.35.361.51.51 0 0 1-.26.061Zm-10.418-1.605h-3.205v.381h3.205v-.381Z" fill="#B4B4B4"/><path d="M4.7 84.015c.55-4.485 4.3-4 4.3-4m4 4.016c-.55-4.486-4.5-4.016-4.5-4.016M13 84c.55 4.486 4.395 4.027 4.5 4.015m3.8-4.014c-.55 4.486-4.5 4.016-4.5 4.016" stroke="#B4B4B4" stroke-linecap="round"/><path d="M13 102.534h8m-16 0v-7 7Zm8-7v7-7Zm8 0v7-7Zm-16 0h8-8Z" stroke="#B4B4B4" stroke-linecap="round" stroke-linejoin="round"/><path d="M4 113.109c.043-1.022.745-4.579 1-4 .255.58.4 5.934.9 6.934s.63-3.502 1.1-2.934c.47.569.312 5.727.779 5.208.467-.519.666-6.406 1.221-7.208.555-.802.465 4.267 1 4 .535-.266.64-5.565 1.14-5.065.5.5.395 6.049.86 7.065.465 1.017.506-3.277 1-3 .494.278.517 4.737 1 4 .483-.736.431-6.194.931-6.944s.591 4.216 1.069 3.944c.478-.272.343-5.532.843-5.032.5.5.618 6.024 1.157 7.032.54 1.008.515-2.725 1-3 .485-.275.441 3.151.941 1.901.5-1.25.544-6.176 1.059-6.901.515-.725 1 4 1 4" stroke="#B4B4B4" stroke-width=".75"/><path d="m18 128.854 3 4m-16 0 3-8-3 8Zm13-4h-7 7Zm-10-4 3 4-3-4Z" stroke="#B4B4B4" stroke-linecap="round" stroke-linejoin="round"/><path fill-rule="evenodd" clip-rule="evenodd" d="M11 140.5a.5.5 0 1 1 1 0 .5.5 0 0 1-1 0Zm.009.871c-.43.154-.774.449-1.079.852-.483.639-.834 1.508-1.216 2.463l-.015.037c-.364.91-.76 1.899-1.331 2.656-.486.643-1.116 1.141-1.969 1.309a1 1 0 1 1-.077-1.008c.511-.132.905-.449 1.248-.903.483-.639.834-1.508 1.216-2.463l.015-.037c.364-.91.76-1.9 1.331-2.657.364-.481.809-.882 1.368-1.123a1 1 0 1 1 1.886.468c.045.103.1.222.16.355.215.459.52 1.067.883 1.673.365.609.779 1.195 1.206 1.622.192.192.372.337.538.44a.984.984 0 0 1 .392-.053l.107-.198c.243-.437.6-1.023 1.058-1.611.675-.867 1.63-1.822 2.813-2.234a1 1 0 1 1 .233.98c-.858.332-1.627 1.059-2.256 1.868a11.685 11.685 0 0 0-1.12 1.755 1 1 0 1 1-1.884.258 4.317 4.317 0 0 1-.588-.498c-.51-.51-.972-1.174-1.357-1.815a19.644 19.644 0 0 1-1.042-2.007H11.5a.995.995 0 0 1-.491-.129ZM4.5 147.75a.5.5 0 1 0 0 1 .5.5 0 0 0 0-1Zm11-2.25a.5.5 0 1 0 0 1 .5.5 0 0 0 0-1Zm4.5-4.25a.5.5 0 1 1 1 0 .5.5 0 0 1-1 0Z" fill="#B4B4B4"/><path d="M.5 154.5a2 2 0 0 1 2-2h46a2 2 0 0 1 2 2v71a2 2 0 0 1-2 2h-46a2 2 0 0 1-2-2v-71Z" fill="#222"/><path fill="#369EB3" d="M2.5 169.5h21v11h-21z"/><rect x="2.5" y="169.5" width="21" height="11" rx="1" fill="#369EB3"/><rect x="2.5" y="169.5" width="21" height="11" rx="1" stroke="#369EB3"/><path d="m46.55 160.016-4 4-8-8-4.3 4" stroke="#B4B4B4" stroke-linecap="round"/><path d="m38.4 171.016 8 8m-16 0v-8 8Zm8-8v8-8Zm-8 0 8 8-8-8Zm9 22h2m-10-3v-4 4Zm8 3v-6 6Zm-6-7v3-3Zm10 2v1.5-1.5Zm-8 1v5-5Zm6 .5v3.5-3.5Zm4-1.5v4-4Zm-8-1v7-7Zm-6-1h2-2Zm2 3h2-2Zm2 5h2-2Zm2-7h2-2Zm4 2.5h2-2Zm2-1.5h2-2Zm-14 2h2-2Zm16 2h2-2Z" stroke="#B4B4B4" stroke-linecap="round" stroke-linejoin="round"/><path fill-rule="evenodd" clip-rule="evenodd" d="M29 210.016h2v-5h-2v5Zm16.8 0h2v-5h-2v5Zm-12.7-2h-2v-3h2v3Zm12.6 0h-2v-3h2v3Zm-12.5-2.75h2v-.5h-2v.5Zm10.4 0h-2v-.5h2v.5Zm-8.3-.25h2v-3h-2v3Zm4.1 0h-2v-5h2v5Zm.1 0h2v-3h-2v3Z" fill="#B4B4B4"/><path d="m31.284 221.142.343-1.354h.413l.102-.343h-.425c.121-.494.282-.855.48-1.084.122-.142.24-.214.355-.214a.08.08 0 0 1 .057.021.07.07 0 0 1 .022.053.3.3 0 0 1-.048.111.307.307 0 0 0-.048.155c0 .069.025.127.076.176.05.049.115.073.193.073a.277.277 0 0 0 .211-.089.337.337 0 0 0 .085-.242.352.352 0 0 0-.127-.281c-.085-.072-.221-.108-.409-.108-.293 0-.559.086-.797.257-.238.172-.465.456-.68.853-.074.137-.144.225-.21.264-.067.039-.173.057-.32.055l-.096.343h.407l-.598 2.341c-.1.385-.167.622-.202.712a.852.852 0 0 1-.232.334.215.215 0 0 1-.149.055.06.06 0 0 1-.041-.014l-.015-.021c0-.009.015-.029.044-.06.03-.03.044-.076.044-.139a.226.226 0 0 0-.07-.17c-.047-.045-.114-.067-.202-.067a.362.362 0 0 0-.255.088.271.271 0 0 0-.097.208c0 .086.04.16.117.224.079.063.2.095.367.095.263 0 .497-.069.701-.207.204-.137.383-.35.535-.637.152-.287.308-.75.469-1.388Zm14.997-1.36.507-1.766h-.176l-.979.172-.032.118c.111-.006.194.01.25.049a.13.13 0 0 1 .058.112c0 .054-.022.155-.065.302l-.896 3.108c.36.189.7.284 1.022.284.434 0 .82-.182 1.16-.548.383-.414.575-.884.575-1.412a.999.999 0 0 0-.175-.584c-.116-.169-.291-.254-.526-.254a.697.697 0 0 0-.337.084c-.103.055-.232.167-.386.335Zm-4.573.117h1.409v-1.406h.384v1.406h1.409v.387H43.5v1.395h-.383v-1.395h-1.41v-.387Zm-3.36-.495-.57 1.949-.058.237a.376.376 0 0 0-.009.064.09.09 0 0 0 .025.062c.017.017.034.026.052.026.04 0 .097-.031.17-.094.029-.025.1-.115.21-.269l.103.053c-.139.254-.287.439-.444.555a.84.84 0 0 1-.508.174c-.111 0-.196-.029-.255-.086a.295.295 0 0 1-.088-.219c0-.076.031-.217.094-.424l.07-.238c-.226.389-.444.664-.653.827a.625.625 0 0 1-.387.14c-.18 0-.31-.074-.39-.221a1.032 1.032 0 0 1-.12-.5c0-.275.084-.591.252-.947.168-.357.389-.643.662-.86.225-.18.436-.27.633-.27.11 0 .197.032.264.095.066.064.115.18.146.348l.106-.361.694-.041Zm1.42-.041-1.022.176-.02.111c.075-.015.14-.023.192-.023.102 0 .186.044.252.132.106.137.252.553.44 1.248a6.663 6.663 0 0 1-.302.387.886.886 0 0 1-.223.19.33.33 0 0 1-.152.035.577.577 0 0 1-.21-.07.431.431 0 0 0-.18-.047.331.331 0 0 0-.342.343c0 .093.03.17.089.228.06.059.14.088.242.088a.63.63 0 0 0 .275-.061c.086-.041.194-.129.324-.263.13-.133.309-.346.537-.637.088.278.165.479.229.605a.708.708 0 0 0 .221.273.554.554 0 0 0 .312.083.641.641 0 0 0 .37-.132c.163-.113.331-.308.503-.586l-.105-.061c-.117.164-.204.266-.261.307a.224.224 0 0 1-.132.039c-.06 0-.12-.039-.179-.115-.1-.129-.232-.486-.398-1.072.148-.262.273-.433.375-.513a.376.376 0 0 1 .234-.088c.032 0 .088.012.169.034a.799.799 0 0 0 .215.034c.086 0 .158-.03.216-.09a.316.316 0 0 0 .086-.23.325.325 0 0 0-.087-.237.334.334 0 0 0-.247-.088.561.561 0 0 0-.271.069c-.085.046-.193.145-.324.297a7.33 7.33 0 0 0-.433.595 2.936 2.936 0 0 0-.393-.961Zm-4.274.068h-3.205v.381h3.205v-.381Zm1.916.53c0-.158-.025-.273-.074-.343a.167.167 0 0 0-.143-.073c-.06 0-.123.029-.188.088-.13.121-.272.367-.423.737-.151.37-.227.69-.227.959 0 .104.017.178.051.224.034.046.072.069.113.069.088 0 .177-.051.267-.152.128-.145.245-.322.348-.531.184-.367.276-.693.276-.978Zm8.502 2.033a.472.472 0 0 1-.25-.088l.399-1.377c.08-.279.154-.462.223-.548.101-.132.22-.199.357-.199a.28.28 0 0 1 .217.109c.062.072.094.177.094.316 0 .244-.041.489-.123.735a2.428 2.428 0 0 1-.307.63 1.253 1.253 0 0 1-.35.361.51.51 0 0 1-.26.061Zm-10.418-1.605h-3.205v.381h3.205v-.381Z" fill="#B4B4B4"/><path d="M4.7 160.015c.55-4.485 4.3-4 4.3-4m4 4.016c-.55-4.486-4.5-4.016-4.5-4.016M13 160c.55 4.486 4.395 4.027 4.5 4.015m3.8-4.014c-.55 4.486-4.5 4.016-4.5 4.016" stroke="#B4B4B4" stroke-linecap="round"/><path d="M13 178.534h8m-16 0v-7 7Zm8-7v7-7Zm8 0v7-7Zm-16 0h8-8Z" stroke="#000" stroke-linecap="round" stroke-linejoin="round"/><path d="M4 189.109c.043-1.022.745-4.579 1-4 .255.58.4 5.934.9 6.934s.63-3.502 1.1-2.934c.47.569.312 5.727.779 5.208.467-.519.666-6.406 1.221-7.208.555-.802.465 4.267 1 4 .535-.266.64-5.565 1.14-5.065.5.5.395 6.049.86 7.065.465 1.017.506-3.277 1-3 .494.278.517 4.737 1 4 .483-.736.431-6.194.931-6.944s.591 4.216 1.069 3.944c.478-.272.343-5.532.843-5.032.5.5.618 6.024 1.157 7.032.54 1.008.515-2.725 1-3 .485-.275.441 3.151.941 1.901.5-1.25.544-6.176 1.059-6.901.515-.725 1 4 1 4" stroke="#B4B4B4" stroke-width=".75"/><path d="m18 204.854 3 4m-16 0 3-8-3 8Zm13-4h-7 7Zm-10-4 3 4-3-4Z" stroke="#B4B4B4" stroke-linecap="round" stroke-linejoin="round"/><path fill-rule="evenodd" clip-rule="evenodd" d="M11 216.5a.5.5 0 1 1 1 0 .5.5 0 0 1-1 0Zm.009.871c-.43.154-.774.449-1.079.852-.483.639-.834 1.508-1.216 2.463l-.015.037c-.364.91-.76 1.899-1.331 2.656-.486.643-1.116 1.141-1.969 1.309a1 1 0 1 1-.077-1.008c.511-.132.905-.449 1.248-.903.483-.639.834-1.508 1.216-2.463l.015-.037c.364-.91.76-1.9 1.331-2.657.364-.481.809-.882 1.368-1.123a1 1 0 1 1 1.886.468c.045.103.1.222.16.355.215.459.52 1.067.883 1.673.365.609.779 1.195 1.206 1.622.192.192.372.337.538.44a.984.984 0 0 1 .392-.053l.107-.198c.243-.437.6-1.023 1.058-1.611.675-.867 1.63-1.822 2.813-2.234a1 1 0 1 1 .233.98c-.858.332-1.627 1.059-2.256 1.868a11.685 11.685 0 0 0-1.12 1.755 1 1 0 1 1-1.884.258 4.317 4.317 0 0 1-.588-.498c-.51-.51-.972-1.174-1.357-1.815a19.644 19.644 0 0 1-1.042-2.007H11.5a.995.995 0 0 1-.491-.129ZM4.5 223.75a.5.5 0 1 0 0 1 .5.5 0 0 0 0-1Zm11-2.25a.5.5 0 1 0 0 1 .5.5 0 0 0 0-1Zm4.5-4.25a.5.5 0 1 1 1 0 .5.5 0 0 1-1 0Z" fill="#B4B4B4"/><path d="M.5 230.5a2 2 0 0 1 2-2h46a2 2 0 0 1 2 2v71a2 2 0 0 1-2 2h-46a2 2 0 0 1-2-2v-71Z" fill="#222"/><path fill="#369EB3" d="M27.5 245.5h21v11h-21z"/><rect x="27.5" y="245.5" width="21" height="11" rx="1" fill="#369EB3"/><rect x="27.5" y="245.5" width="21" height="11" rx="1" stroke="#369EB3"/><path d="m46.55 236.016-4 4-8-8-4.3 4" stroke="#B4B4B4" stroke-linecap="round"/><path d="m38.4 247.016 8 8m-16 0v-8 8Zm8-8v8-8Zm-8 0 8 8-8-8Z" stroke="#000" stroke-linecap="round" stroke-linejoin="round"/><path d="M39.4 269.016h2m-10-3v-4 4Zm8 3v-6 6Zm-6-7v3-3Zm10 2v1.5-1.5Zm-8 1v5-5Zm6 .5v3.5-3.5Zm4-1.5v4-4Zm-8-1v7-7Zm-6-1h2-2Zm2 3h2-2Zm2 5h2-2Zm2-7h2-2Zm4 2.5h2-2Zm2-1.5h2-2Zm-14 2h2-2Zm16 2h2-2Z" stroke="#B4B4B4" stroke-linecap="round" stroke-linejoin="round"/><path fill-rule="evenodd" clip-rule="evenodd" d="M29 286.016h2v-5h-2v5Zm16.8 0h2v-5h-2v5Zm-12.7-2h-2v-3h2v3Zm12.6 0h-2v-3h2v3Zm-12.5-2.75h2v-.5h-2v.5Zm10.4 0h-2v-.5h2v.5Zm-8.3-.25h2v-3h-2v3Zm4.1 0h-2v-5h2v5Zm.1 0h2v-3h-2v3Z" fill="#B4B4B4"/><path d="m31.284 297.142.343-1.354h.413l.102-.343h-.425c.121-.494.282-.855.48-1.084.122-.142.24-.214.355-.214a.08.08 0 0 1 .057.021.07.07 0 0 1 .022.053.3.3 0 0 1-.048.111.307.307 0 0 0-.048.155c0 .069.025.127.076.176.05.049.115.073.193.073a.277.277 0 0 0 .211-.089.337.337 0 0 0 .085-.242.352.352 0 0 0-.127-.281c-.085-.072-.221-.108-.409-.108-.293 0-.559.086-.797.257-.238.172-.465.456-.68.853-.074.137-.144.225-.21.264-.067.039-.173.057-.32.055l-.096.343h.407l-.598 2.341c-.1.385-.167.622-.202.712a.852.852 0 0 1-.232.334.215.215 0 0 1-.149.055.06.06 0 0 1-.041-.014l-.015-.021c0-.009.015-.029.044-.06.03-.03.044-.076.044-.139a.226.226 0 0 0-.07-.17c-.047-.045-.114-.067-.202-.067a.362.362 0 0 0-.255.088.271.271 0 0 0-.097.208c0 .086.04.16.117.224.079.063.2.095.367.095.263 0 .497-.069.701-.207.204-.137.383-.35.535-.637.152-.287.308-.75.469-1.388Zm14.997-1.36.507-1.766h-.176l-.979.172-.032.118c.111-.006.194.01.25.049a.13.13 0 0 1 .058.112c0 .054-.022.155-.065.302l-.896 3.108c.36.189.7.284 1.022.284.434 0 .82-.182 1.16-.548.383-.414.575-.884.575-1.412a.999.999 0 0 0-.175-.584c-.116-.169-.291-.254-.526-.254a.697.697 0 0 0-.337.084c-.103.055-.232.167-.386.335Zm-4.573.117h1.409v-1.406h.384v1.406h1.409v.387H43.5v1.395h-.383v-1.395h-1.41v-.387Zm-3.36-.495-.57 1.949-.058.237a.376.376 0 0 0-.009.064.09.09 0 0 0 .025.062c.017.017.034.026.052.026.04 0 .097-.031.17-.094.029-.025.1-.115.21-.269l.103.053c-.139.254-.287.439-.444.555a.84.84 0 0 1-.508.174c-.111 0-.196-.029-.255-.086a.295.295 0 0 1-.088-.219c0-.076.031-.217.094-.424l.07-.238c-.226.389-.444.664-.653.827a.625.625 0 0 1-.387.14c-.18 0-.31-.074-.39-.221a1.032 1.032 0 0 1-.12-.5c0-.275.084-.591.252-.947.168-.357.389-.643.662-.86.225-.18.436-.27.633-.27.11 0 .197.032.264.095.066.064.115.18.146.348l.106-.361.694-.041Zm1.42-.041-1.022.176-.02.111c.075-.015.14-.023.192-.023.102 0 .186.044.252.132.106.137.252.553.44 1.248a6.663 6.663 0 0 1-.302.387.886.886 0 0 1-.223.19.33.33 0 0 1-.152.035.577.577 0 0 1-.21-.07.431.431 0 0 0-.18-.047.331.331 0 0 0-.342.343c0 .093.03.17.089.228.06.059.14.088.242.088a.63.63 0 0 0 .275-.061c.086-.041.194-.129.324-.263.13-.133.309-.346.537-.637.088.278.165.479.229.605a.708.708 0 0 0 .221.273.554.554 0 0 0 .312.083.641.641 0 0 0 .37-.132c.163-.113.331-.308.503-.586l-.105-.061c-.117.164-.204.266-.261.307a.224.224 0 0 1-.132.039c-.06 0-.12-.039-.179-.115-.1-.129-.232-.486-.398-1.072.148-.262.273-.433.375-.513a.376.376 0 0 1 .234-.088c.032 0 .088.012.169.034a.799.799 0 0 0 .215.034c.086 0 .158-.03.216-.09a.316.316 0 0 0 .086-.23.325.325 0 0 0-.087-.237.334.334 0 0 0-.247-.088.561.561 0 0 0-.271.069c-.085.046-.193.145-.324.297a7.33 7.33 0 0 0-.433.595 2.936 2.936 0 0 0-.393-.961Zm-4.274.068h-3.205v.381h3.205v-.381Zm1.916.53c0-.158-.025-.273-.074-.343a.167.167 0 0 0-.143-.073c-.06 0-.123.029-.188.088-.13.121-.272.367-.423.737-.151.37-.227.69-.227.959 0 .104.017.178.051.224.034.046.072.069.113.069.088 0 .177-.051.267-.152.128-.145.245-.322.348-.531.184-.367.276-.693.276-.978Zm8.502 2.033a.472.472 0 0 1-.25-.088l.399-1.377c.08-.279.154-.462.223-.548.101-.132.22-.199.357-.199a.28.28 0 0 1 .217.109c.062.072.094.177.094.316 0 .244-.041.489-.123.735a2.428 2.428 0 0 1-.307.63 1.253 1.253 0 0 1-.35.361.51.51 0 0 1-.26.061Zm-10.418-1.605h-3.205v.381h3.205v-.381Z" fill="#B4B4B4"/><path d="M4.7 236.015c.55-4.485 4.3-4 4.3-4m4 4.016c-.55-4.486-4.5-4.016-4.5-4.016M13 236c.55 4.486 4.395 4.027 4.5 4.015m3.8-4.014c-.55 4.486-4.5 4.016-4.5 4.016" stroke="#B4B4B4" stroke-linecap="round"/><path d="M13 254.534h8m-16 0v-7 7Zm8-7v7-7Zm8 0v7-7Zm-16 0h8-8Z" stroke="#B4B4B4" stroke-linecap="round" stroke-linejoin="round"/><path d="M4 265.109c.043-1.022.745-4.579 1-4 .255.58.4 5.934.9 6.934s.63-3.502 1.1-2.934c.47.569.312 5.727.779 5.208.467-.519.666-6.406 1.221-7.208.555-.802.465 4.267 1 4 .535-.266.64-5.565 1.14-5.065.5.5.395 6.049.86 7.065.465 1.017.506-3.277 1-3 .494.278.517 4.737 1 4 .483-.736.431-6.194.931-6.944s.591 4.216 1.069 3.944c.478-.272.343-5.532.843-5.032.5.5.618 6.024 1.157 7.032.54 1.008.515-2.725 1-3 .485-.275.441 3.151.941 1.901.5-1.25.544-6.176 1.059-6.901.515-.725 1 4 1 4" stroke="#B4B4B4" stroke-width=".75"/><path d="m18 280.854 3 4m-16 0 3-8-3 8Zm13-4h-7 7Zm-10-4 3 4-3-4Z" stroke="#B4B4B4" stroke-linecap="round" stroke-linejoin="round"/><path fill-rule="evenodd" clip-rule="evenodd" d="M11 292.5a.5.5 0 1 1 1 0 .5.5 0 0 1-1 0Zm.009.871c-.43.154-.774.449-1.079.852-.483.639-.834 1.508-1.216 2.463l-.015.037c-.364.91-.76 1.899-1.331 2.656-.486.643-1.116 1.141-1.969 1.309a1 1 0 1 1-.077-1.008c.511-.132.905-.449 1.248-.903.483-.639.834-1.508 1.216-2.463l.015-.037c.364-.91.76-1.9 1.331-2.657.364-.481.809-.882 1.368-1.123a1 1 0 1 1 1.886.468c.045.103.1.222.16.355.215.459.52 1.067.883 1.673.365.609.779 1.195 1.206 1.622.192.192.372.337.538.44a.984.984 0 0 1 .392-.053l.107-.198c.243-.437.6-1.023 1.058-1.611.675-.867 1.63-1.822 2.813-2.234a1 1 0 1 1 .233.98c-.858.332-1.627 1.059-2.256 1.868a11.685 11.685 0 0 0-1.12 1.755 1 1 0 1 1-1.884.258 4.317 4.317 0 0 1-.588-.498c-.51-.51-.972-1.174-1.357-1.815a19.644 19.644 0 0 1-1.042-2.007H11.5a.995.995 0 0 1-.491-.129ZM4.5 299.75a.5.5 0 1 0 0 1 .5.5 0 0 0 0-1Zm11-2.25a.5.5 0 1 0 0 1 .5.5 0 0 0 0-1Zm4.5-4.25a.5.5 0 1 1 1 0 .5.5 0 0 1-1 0Z" fill="#B4B4B4"/><path d="M.5 306.5a2 2 0 0 1 2-2h46a2 2 0 0 1 2 2v71a2 2 0 0 1-2 2h-46a2 2 0 0 1-2-2v-71Z" fill="#222"/><path fill="#369EB3" d="M2.5 336.5h21v11h-21z"/><rect x="2.5" y="336.5" width="21" height="11" rx="1" fill="#369EB3"/><rect x="2.5" y="336.5" width="21" height="11" rx="1" stroke="#369EB3"/><path d="m46.55 312.016-4 4-8-8-4.3 4" stroke="#B4B4B4" stroke-linecap="round"/><path d="m38.4 323.016 8 8m-16 0v-8 8Zm8-8v8-8Zm-8 0 8 8-8-8Zm9 22h2m-10-3v-4 4Zm8 3v-6 6Zm-6-7v3-3Zm10 2v1.5-1.5Zm-8 1v5-5Zm6 .5v3.5-3.5Zm4-1.5v4-4Zm-8-1v7-7Zm-6-1h2-2Zm2 3h2-2Zm2 5h2-2Zm2-7h2-2Zm4 2.5h2-2Zm2-1.5h2-2Zm-14 2h2-2Zm16 2h2-2Z" stroke="#B4B4B4" stroke-linecap="round" stroke-linejoin="round"/><path fill-rule="evenodd" clip-rule="evenodd" d="M29 362.016h2v-5h-2v5Zm16.8 0h2v-5h-2v5Zm-12.7-2h-2v-3h2v3Zm12.6 0h-2v-3h2v3Zm-12.5-2.75h2v-.5h-2v.5Zm10.4 0h-2v-.5h2v.5Zm-8.3-.25h2v-3h-2v3Zm4.1 0h-2v-5h2v5Zm.1 0h2v-3h-2v3Z" fill="#B4B4B4"/><path d="m31.284 373.142.343-1.354h.413l.102-.343h-.425c.121-.494.282-.855.48-1.084.122-.142.24-.214.355-.214a.08.08 0 0 1 .057.021.07.07 0 0 1 .022.053.3.3 0 0 1-.048.111.307.307 0 0 0-.048.155c0 .069.025.127.076.176.05.049.115.073.193.073a.277.277 0 0 0 .211-.089.337.337 0 0 0 .085-.242.352.352 0 0 0-.127-.281c-.085-.072-.221-.108-.409-.108-.293 0-.559.086-.797.257-.238.172-.465.456-.68.853-.074.137-.144.225-.21.264-.067.039-.173.057-.32.055l-.096.343h.407l-.598 2.341c-.1.385-.167.622-.202.712a.852.852 0 0 1-.232.334.215.215 0 0 1-.149.055.06.06 0 0 1-.041-.014l-.015-.021c0-.009.015-.029.044-.06.03-.03.044-.076.044-.139a.226.226 0 0 0-.07-.17c-.047-.045-.114-.067-.202-.067a.362.362 0 0 0-.255.088.271.271 0 0 0-.097.208c0 .086.04.16.117.224.079.063.2.095.367.095.263 0 .497-.069.701-.207.204-.137.383-.35.535-.637.152-.287.308-.75.469-1.388Zm14.997-1.36.507-1.766h-.176l-.979.172-.032.118c.111-.006.194.01.25.049a.13.13 0 0 1 .058.112c0 .054-.022.155-.065.302l-.896 3.108c.36.189.7.284 1.022.284.434 0 .82-.182 1.16-.548.383-.414.575-.884.575-1.412a.999.999 0 0 0-.175-.584c-.116-.169-.291-.254-.526-.254a.697.697 0 0 0-.337.084c-.103.055-.232.167-.386.335Zm-4.573.117h1.409v-1.406h.384v1.406h1.409v.387H43.5v1.395h-.383v-1.395h-1.41v-.387Zm-3.36-.495-.57 1.949-.058.237a.376.376 0 0 0-.009.064.09.09 0 0 0 .025.062c.017.017.034.026.052.026.04 0 .097-.031.17-.094.029-.025.1-.115.21-.269l.103.053c-.139.254-.287.439-.444.555a.84.84 0 0 1-.508.174c-.111 0-.196-.029-.255-.086a.295.295 0 0 1-.088-.219c0-.076.031-.217.094-.424l.07-.238c-.226.389-.444.664-.653.827a.625.625 0 0 1-.387.14c-.18 0-.31-.074-.39-.221a1.032 1.032 0 0 1-.12-.5c0-.275.084-.591.252-.947.168-.357.389-.643.662-.86.225-.18.436-.27.633-.27.11 0 .197.032.264.095.066.064.115.18.146.348l.106-.361.694-.041Zm1.42-.041-1.022.176-.02.111c.075-.015.14-.023.192-.023.102 0 .186.044.252.132.106.137.252.553.44 1.248a6.663 6.663 0 0 1-.302.387.886.886 0 0 1-.223.19.33.33 0 0 1-.152.035.577.577 0 0 1-.21-.07.431.431 0 0 0-.18-.047.331.331 0 0 0-.342.343c0 .093.03.17.089.228.06.059.14.088.242.088a.63.63 0 0 0 .275-.061c.086-.041.194-.129.324-.263.13-.133.309-.346.537-.637.088.278.165.479.229.605a.708.708 0 0 0 .221.273.554.554 0 0 0 .312.083.641.641 0 0 0 .37-.132c.163-.113.331-.308.503-.586l-.105-.061c-.117.164-.204.266-.261.307a.224.224 0 0 1-.132.039c-.06 0-.12-.039-.179-.115-.1-.129-.232-.486-.398-1.072.148-.262.273-.433.375-.513a.376.376 0 0 1 .234-.088c.032 0 .088.012.169.034a.799.799 0 0 0 .215.034c.086 0 .158-.03.216-.09a.316.316 0 0 0 .086-.23.325.325 0 0 0-.087-.237.334.334 0 0 0-.247-.088.561.561 0 0 0-.271.069c-.085.046-.193.145-.324.297a7.33 7.33 0 0 0-.433.595 2.936 2.936 0 0 0-.393-.961Zm-4.274.068h-3.205v.381h3.205v-.381Zm1.916.53c0-.158-.025-.273-.074-.343a.167.167 0 0 0-.143-.073c-.06 0-.123.029-.188.088-.13.121-.272.367-.423.737-.151.37-.227.69-.227.959 0 .104.017.178.051.224.034.046.072.069.113.069.088 0 .177-.051.267-.152.128-.145.245-.322.348-.531.184-.367.276-.693.276-.978Zm8.502 2.033a.472.472 0 0 1-.25-.088l.399-1.377c.08-.279.154-.462.223-.548.101-.132.22-.199.357-.199a.28.28 0 0 1 .217.109c.062.072.094.177.094.316 0 .244-.041.489-.123.735a2.428 2.428 0 0 1-.307.63 1.253 1.253 0 0 1-.35.361.51.51 0 0 1-.26.061Zm-10.418-1.605h-3.205v.381h3.205v-.381Z" fill="#B4B4B4"/><path d="M4.7 312.015c.55-4.485 4.3-4 4.3-4m4 4.016c-.55-4.486-4.5-4.016-4.5-4.016M13 312c.55 4.486 4.395 4.027 4.5 4.015m3.8-4.014c-.55 4.486-4.5 4.016-4.5 4.016" stroke="#B4B4B4" stroke-linecap="round"/><path d="M13 330.534h8m-16 0v-7 7Zm8-7v7-7Zm8 0v7-7Zm-16 0h8-8Z" stroke="#B4B4B4" stroke-linecap="round" stroke-linejoin="round"/><path d="M4 341.109c.043-1.022.745-4.579 1-4 .255.58.4 5.934.9 6.934s.63-3.502 1.1-2.934c.47.569.312 5.727.779 5.208.467-.519.666-6.406 1.221-7.208.555-.802.465 4.267 1 4 .535-.266.64-5.565 1.14-5.065.5.5.395 6.049.86 7.065.465 1.017.506-3.277 1-3 .494.278.517 4.737 1 4 .483-.736.431-6.194.931-6.944s.591 4.216 1.069 3.944c.478-.272.343-5.532.843-5.032.5.5.618 6.024 1.157 7.032.54 1.008.515-2.725 1-3 .485-.275.441 3.151.941 1.901.5-1.25.544-6.176 1.059-6.901.515-.725 1 4 1 4" stroke="#000" stroke-width=".75"/><path d="m18 356.854 3 4m-16 0 3-8-3 8Zm13-4h-7 7Zm-10-4 3 4-3-4Z" stroke="#B4B4B4" stroke-linecap="round" stroke-linejoin="round"/><path fill-rule="evenodd" clip-rule="evenodd" d="M11 368.5a.5.5 0 1 1 1 0 .5.5 0 0 1-1 0Zm.009.871c-.43.154-.774.449-1.079.852-.483.639-.834 1.508-1.216 2.463l-.015.037c-.364.91-.76 1.899-1.331 2.656-.486.643-1.116 1.141-1.969 1.309a1 1 0 1 1-.077-1.008c.511-.132.905-.449 1.248-.903.483-.639.834-1.508 1.216-2.463l.015-.037c.364-.91.76-1.9 1.331-2.657.364-.481.809-.882 1.368-1.123a1 1 0 1 1 1.886.468c.045.103.1.222.16.355.215.459.52 1.067.883 1.673.365.609.779 1.195 1.206 1.622.192.192.372.337.538.44a.984.984 0 0 1 .392-.053l.107-.198c.243-.437.6-1.023 1.058-1.611.675-.867 1.63-1.822 2.813-2.234a1 1 0 1 1 .233.98c-.858.332-1.627 1.059-2.256 1.868a11.685 11.685 0 0 0-1.12 1.755 1 1 0 1 1-1.884.258 4.317 4.317 0 0 1-.588-.498c-.51-.51-.972-1.174-1.357-1.815a19.644 19.644 0 0 1-1.042-2.007H11.5a.995.995 0 0 1-.491-.129ZM4.5 375.75a.5.5 0 1 0 0 1 .5.5 0 0 0 0-1Zm11-2.25a.5.5 0 1 0 0 1 .5.5 0 0 0 0-1Zm4.5-4.25a.5.5 0 1 1 1 0 .5.5 0 0 1-1 0Z" fill="#B4B4B4"/><path d="M.5 382.5a2 2 0 0 1 2-2h46a2 2 0 0 1 2 2v71a2 2 0 0 1-2 2h-46a2 2 0 0 1-2-2v-71Z" fill="#222"/><path fill="#369EB3" d="M27.5 412.5h21v11h-21z"/><rect x="27.5" y="412.5" width="21" height="11" rx="1" fill="#369EB3"/><rect x="27.5" y="412.5" width="21" height="11" rx="1" stroke="#369EB3"/><path d="m46.55 388.016-4 4-8-8-4.3 4" stroke="#B4B4B4" stroke-linecap="round"/><path d="m38.4 399.016 8 8m-16 0v-8 8Zm8-8v8-8Zm-8 0 8 8-8-8Z" stroke="#B4B4B4" stroke-linecap="round" stroke-linejoin="round"/><path d="M39.4 421.016h2m-10-3v-4 4Zm8 3v-6 6Zm-6-7v3-3Zm10 2v1.5-1.5Zm-8 1v5-5Zm6 .5v3.5-3.5Zm4-1.5v4-4Zm-8-1v7-7Zm-6-1h2-2Zm2 3h2-2Zm2 5h2-2Zm2-7h2-2Zm4 2.5h2-2Zm2-1.5h2-2Zm-14 2h2-2Zm16 2h2-2Z" stroke="#000" stroke-linecap="round" stroke-linejoin="round"/><path fill-rule="evenodd" clip-rule="evenodd" d="M29 438.016h2v-5h-2v5Zm16.8 0h2v-5h-2v5Zm-12.7-2h-2v-3h2v3Zm12.6 0h-2v-3h2v3Zm-12.5-2.75h2v-.5h-2v.5Zm10.4 0h-2v-.5h2v.5Zm-8.3-.25h2v-3h-2v3Zm4.1 0h-2v-5h2v5Zm.1 0h2v-3h-2v3Z" fill="#B4B4B4"/><path d="m31.284 449.142.343-1.354h.413l.102-.343h-.425c.121-.494.282-.855.48-1.084.122-.142.24-.214.355-.214a.08.08 0 0 1 .057.021.07.07 0 0 1 .022.053.3.3 0 0 1-.048.111.307.307 0 0 0-.048.155c0 .069.025.127.076.176.05.049.115.073.193.073a.277.277 0 0 0 .211-.089.337.337 0 0 0 .085-.242.352.352 0 0 0-.127-.281c-.085-.072-.221-.108-.409-.108-.293 0-.559.086-.797.257-.238.172-.465.456-.68.853-.074.137-.144.225-.21.264-.067.039-.173.057-.32.055l-.096.343h.407l-.598 2.341c-.1.385-.167.622-.202.712a.852.852 0 0 1-.232.334.215.215 0 0 1-.149.055.06.06 0 0 1-.041-.014l-.015-.021c0-.009.015-.029.044-.06.03-.03.044-.076.044-.139a.226.226 0 0 0-.07-.17c-.047-.045-.114-.067-.202-.067a.362.362 0 0 0-.255.088.271.271 0 0 0-.097.208c0 .086.04.16.117.224.079.063.2.095.367.095.263 0 .497-.069.701-.207.204-.137.383-.35.535-.637.152-.287.308-.75.469-1.388Zm14.997-1.36.507-1.766h-.176l-.979.172-.032.118c.111-.006.194.01.25.049a.13.13 0 0 1 .058.112c0 .054-.022.155-.065.302l-.896 3.108c.36.189.7.284 1.022.284.434 0 .82-.182 1.16-.548.383-.414.575-.884.575-1.412a.999.999 0 0 0-.175-.584c-.116-.169-.291-.254-.526-.254a.697.697 0 0 0-.337.084c-.103.055-.232.167-.386.335Zm-4.573.117h1.409v-1.406h.384v1.406h1.409v.387H43.5v1.395h-.383v-1.395h-1.41v-.387Zm-3.36-.495-.57 1.949-.058.237a.376.376 0 0 0-.009.064.09.09 0 0 0 .025.062c.017.017.034.026.052.026.04 0 .097-.031.17-.094.029-.025.1-.115.21-.269l.103.053c-.139.254-.287.439-.444.555a.84.84 0 0 1-.508.174c-.111 0-.196-.029-.255-.086a.295.295 0 0 1-.088-.219c0-.076.031-.217.094-.424l.07-.238c-.226.389-.444.664-.653.827a.625.625 0 0 1-.387.14c-.18 0-.31-.074-.39-.221a1.032 1.032 0 0 1-.12-.5c0-.275.084-.591.252-.947.168-.357.389-.643.662-.86.225-.18.436-.27.633-.27.11 0 .197.032.264.095.066.064.115.18.146.348l.106-.361.694-.041Zm1.42-.041-1.022.176-.02.111c.075-.015.14-.023.192-.023.102 0 .186.044.252.132.106.137.252.553.44 1.248a6.663 6.663 0 0 1-.302.387.886.886 0 0 1-.223.19.33.33 0 0 1-.152.035.577.577 0 0 1-.21-.07.431.431 0 0 0-.18-.047.331.331 0 0 0-.342.343c0 .093.03.17.089.228.06.059.14.088.242.088a.63.63 0 0 0 .275-.061c.086-.041.194-.129.324-.263.13-.133.309-.346.537-.637.088.278.165.479.229.605a.708.708 0 0 0 .221.273.554.554 0 0 0 .312.083.641.641 0 0 0 .37-.132c.163-.113.331-.308.503-.586l-.105-.061c-.117.164-.204.266-.261.307a.224.224 0 0 1-.132.039c-.06 0-.12-.039-.179-.115-.1-.129-.232-.486-.398-1.072.148-.262.273-.433.375-.513a.376.376 0 0 1 .234-.088c.032 0 .088.012.169.034a.799.799 0 0 0 .215.034c.086 0 .158-.03.216-.09a.316.316 0 0 0 .086-.23.325.325 0 0 0-.087-.237.334.334 0 0 0-.247-.088.561.561 0 0 0-.271.069c-.085.046-.193.145-.324.297a7.33 7.33 0 0 0-.433.595 2.936 2.936 0 0 0-.393-.961Zm-4.274.068h-3.205v.381h3.205v-.381Zm1.916.53c0-.158-.025-.273-.074-.343a.167.167 0 0 0-.143-.073c-.06 0-.123.029-.188.088-.13.121-.272.367-.423.737-.151.37-.227.69-.227.959 0 .104.017.178.051.224.034.046.072.069.113.069.088 0 .177-.051.267-.152.128-.145.245-.322.348-.531.184-.367.276-.693.276-.978Zm8.502 2.033a.472.472 0 0 1-.25-.088l.399-1.377c.08-.279.154-.462.223-.548.101-.132.22-.199.357-.199a.28.28 0 0 1 .217.109c.062.072.094.177.094.316 0 .244-.041.489-.123.735a2.428 2.428 0 0 1-.307.63 1.253 1.253 0 0 1-.35.361.51.51 0 0 1-.26.061Zm-10.418-1.605h-3.205v.381h3.205v-.381Z" fill="#B4B4B4"/><path d="M4.7 388.015c.55-4.485 4.3-4 4.3-4m4 4.016c-.55-4.486-4.5-4.016-4.5-4.016M13 388c.55 4.486 4.395 4.027 4.5 4.015m3.8-4.014c-.55 4.486-4.5 4.016-4.5 4.016" stroke="#B4B4B4" stroke-linecap="round"/><path d="M13 406.534h8m-16 0v-7 7Zm8-7v7-7Zm8 0v7-7Zm-16 0h8-8Z" stroke="#B4B4B4" stroke-linecap="round" stroke-linejoin="round"/><path d="M4 417.109c.043-1.022.745-4.579 1-4 .255.58.4 5.934.9 6.934s.63-3.502 1.1-2.934c.47.569.312 5.727.779 5.208.467-.519.666-6.406 1.221-7.208.555-.802.465 4.267 1 4 .535-.266.64-5.565 1.14-5.065.5.5.395 6.049.86 7.065.465 1.017.506-3.277 1-3 .494.278.517 4.737 1 4 .483-.736.431-6.194.931-6.944s.591 4.216 1.069 3.944c.478-.272.343-5.532.843-5.032.5.5.618 6.024 1.157 7.032.54 1.008.515-2.725 1-3 .485-.275.441 3.151.941 1.901.5-1.25.544-6.176 1.059-6.901.515-.725 1 4 1 4" stroke="#B4B4B4" stroke-width=".75"/><path d="m18 432.854 3 4m-16 0 3-8-3 8Zm13-4h-7 7Zm-10-4 3 4-3-4Z" stroke="#B4B4B4" stroke-linecap="round" stroke-linejoin="round"/><path fill-rule="evenodd" clip-rule="evenodd" d="M11 444.5a.5.5 0 1 1 1 0 .5.5 0 0 1-1 0Zm.009.871c-.43.154-.774.449-1.079.852-.483.639-.834 1.508-1.216 2.463l-.015.037c-.364.91-.76 1.899-1.331 2.656-.486.643-1.116 1.141-1.969 1.309a1 1 0 1 1-.077-1.008c.511-.132.905-.449 1.248-.903.483-.639.834-1.508 1.216-2.463l.015-.037c.364-.91.76-1.9 1.331-2.657.364-.481.809-.882 1.368-1.123a1 1 0 1 1 1.886.468c.045.103.1.222.16.355.215.459.52 1.067.883 1.673.365.609.779 1.195 1.206 1.622.192.192.372.337.538.44a.984.984 0 0 1 .392-.053l.107-.198c.243-.437.6-1.023 1.058-1.611.675-.867 1.63-1.822 2.813-2.234a1 1 0 1 1 .233.98c-.858.332-1.627 1.059-2.256 1.868a11.685 11.685 0 0 0-1.12 1.755 1 1 0 1 1-1.884.258 4.317 4.317 0 0 1-.588-.498c-.51-.51-.972-1.174-1.357-1.815a19.644 19.644 0 0 1-1.042-2.007H11.5a.995.995 0 0 1-.491-.129ZM4.5 451.75a.5.5 0 1 0 0 1 .5.5 0 0 0 0-1Zm11-2.25a.5.5 0 1 0 0 1 .5.5 0 0 0 0-1Zm4.5-4.25a.5.5 0 1 1 1 0 .5.5 0 0 1-1 0Z" fill="#B4B4B4"/><path d="M.5 458.5a2 2 0 0 1 2-2h46a2 2 0 0 1 2 2v71a2 2 0 0 1-2 2h-46a2 2 0 0 1-2-2v-71Z" fill="#222"/><path fill="#369EB3" d="M2.5 503.5h21v11h-21z"/><rect x="2.5" y="503.5" width="21" height="11" rx="1" fill="#369EB3"/><rect x="2.5" y="503.5" width="21" height="11" rx="1" stroke="#369EB3"/><path d="m46.55 464.016-4 4-8-8-4.3 4" stroke="#B4B4B4" stroke-linecap="round"/><path d="m38.4 475.016 8 8m-16 0v-8 8Zm8-8v8-8Zm-8 0 8 8-8-8Zm9 22h2m-10-3v-4 4Zm8 3v-6 6Zm-6-7v3-3Zm10 2v1.5-1.5Zm-8 1v5-5Zm6 .5v3.5-3.5Zm4-1.5v4-4Zm-8-1v7-7Zm-6-1h2-2Zm2 3h2-2Zm2 5h2-2Zm2-7h2-2Zm4 2.5h2-2Zm2-1.5h2-2Zm-14 2h2-2Zm16 2h2-2Z" stroke="#B4B4B4" stroke-linecap="round" stroke-linejoin="round"/><path fill-rule="evenodd" clip-rule="evenodd" d="M29 514.016h2v-5h-2v5Zm16.8 0h2v-5h-2v5Zm-12.7-2h-2v-3h2v3Zm12.6 0h-2v-3h2v3Zm-12.5-2.75h2v-.5h-2v.5Zm10.4 0h-2v-.5h2v.5Zm-8.3-.25h2v-3h-2v3Zm4.1 0h-2v-5h2v5Zm.1 0h2v-3h-2v3Z" fill="#B4B4B4"/><path d="m31.284 525.142.343-1.354h.413l.102-.343h-.425c.121-.494.282-.855.48-1.084.122-.142.24-.214.355-.214a.08.08 0 0 1 .057.021.07.07 0 0 1 .022.053.3.3 0 0 1-.048.111.307.307 0 0 0-.048.155c0 .069.025.127.076.176.05.049.115.073.193.073a.277.277 0 0 0 .211-.089.337.337 0 0 0 .085-.242.352.352 0 0 0-.127-.281c-.085-.072-.221-.108-.409-.108-.293 0-.559.086-.797.257-.238.172-.465.456-.68.853-.074.137-.144.225-.21.264-.067.039-.173.057-.32.055l-.096.343h.407l-.598 2.341c-.1.385-.167.622-.202.712a.852.852 0 0 1-.232.334.215.215 0 0 1-.149.055.06.06 0 0 1-.041-.014l-.015-.021c0-.009.015-.029.044-.06.03-.03.044-.076.044-.139a.226.226 0 0 0-.07-.17c-.047-.045-.114-.067-.202-.067a.362.362 0 0 0-.255.088.271.271 0 0 0-.097.208c0 .086.04.16.117.224.079.063.2.095.367.095.263 0 .497-.069.701-.207.204-.137.383-.35.535-.637.152-.287.308-.75.469-1.388Zm14.997-1.36.507-1.766h-.176l-.979.172-.032.118c.111-.006.194.01.25.049a.13.13 0 0 1 .058.112c0 .054-.022.155-.065.302l-.896 3.108c.36.189.7.284 1.022.284.434 0 .82-.182 1.16-.548.383-.414.575-.884.575-1.412a.999.999 0 0 0-.175-.584c-.116-.169-.291-.254-.526-.254a.697.697 0 0 0-.337.084c-.103.055-.232.167-.386.335Zm-4.573.117h1.409v-1.406h.384v1.406h1.409v.387H43.5v1.395h-.383v-1.395h-1.41v-.387Zm-3.36-.495-.57 1.949-.058.237a.376.376 0 0 0-.009.064.09.09 0 0 0 .025.062c.017.017.034.026.052.026.04 0 .097-.031.17-.094.029-.025.1-.115.21-.269l.103.053c-.139.254-.287.439-.444.555a.84.84 0 0 1-.508.174c-.111 0-.196-.029-.255-.086a.295.295 0 0 1-.088-.219c0-.076.031-.217.094-.424l.07-.238c-.226.389-.444.664-.653.827a.625.625 0 0 1-.387.14c-.18 0-.31-.074-.39-.221a1.032 1.032 0 0 1-.12-.5c0-.275.084-.591.252-.947.168-.357.389-.643.662-.86.225-.18.436-.27.633-.27.11 0 .197.032.264.095.066.064.115.18.146.348l.106-.361.694-.041Zm1.42-.041-1.022.176-.02.111c.075-.015.14-.023.192-.023.102 0 .186.044.252.132.106.137.252.553.44 1.248a6.663 6.663 0 0 1-.302.387.886.886 0 0 1-.223.19.33.33 0 0 1-.152.035.577.577 0 0 1-.21-.07.431.431 0 0 0-.18-.047.331.331 0 0 0-.342.343c0 .093.03.17.089.228.06.059.14.088.242.088a.63.63 0 0 0 .275-.061c.086-.041.194-.129.324-.263.13-.133.309-.346.537-.637.088.278.165.479.229.605a.708.708 0 0 0 .221.273.554.554 0 0 0 .312.083.641.641 0 0 0 .37-.132c.163-.113.331-.308.503-.586l-.105-.061c-.117.164-.204.266-.261.307a.224.224 0 0 1-.132.039c-.06 0-.12-.039-.179-.115-.1-.129-.232-.486-.398-1.072.148-.262.273-.433.375-.513a.376.376 0 0 1 .234-.088c.032 0 .088.012.169.034a.799.799 0 0 0 .215.034c.086 0 .158-.03.216-.09a.316.316 0 0 0 .086-.23.325.325 0 0 0-.087-.237.334.334 0 0 0-.247-.088.561.561 0 0 0-.271.069c-.085.046-.193.145-.324.297a7.33 7.33 0 0 0-.433.595 2.936 2.936 0 0 0-.393-.961Zm-4.274.068h-3.205v.381h3.205v-.381Zm1.916.53c0-.158-.025-.273-.074-.343a.167.167 0 0 0-.143-.073c-.06 0-.123.029-.188.088-.13.121-.272.367-.423.737-.151.37-.227.69-.227.959 0 .104.017.178.051.224.034.046.072.069.113.069.088 0 .177-.051.267-.152.128-.145.245-.322.348-.531.184-.367.276-.693.276-.978Zm8.502 2.033a.472.472 0 0 1-.25-.088l.399-1.377c.08-.279.154-.462.223-.548.101-.132.22-.199.357-.199a.28.28 0 0 1 .217.109c.062.072.094.177.094.316 0 .244-.041.489-.123.735a2.428 2.428 0 0 1-.307.63 1.253 1.253 0 0 1-.35.361.51.51 0 0 1-.26.061Zm-10.418-1.605h-3.205v.381h3.205v-.381Z" fill="#B4B4B4"/><path d="M4.7 464.015c.55-4.485 4.3-4 4.3-4m4 4.016c-.55-4.486-4.5-4.016-4.5-4.016M13 464c.55 4.486 4.395 4.027 4.5 4.015m3.8-4.014c-.55 4.486-4.5 4.016-4.5 4.016" stroke="#B4B4B4" stroke-linecap="round"/><path d="M13 482.534h8m-16 0v-7 7Zm8-7v7-7Zm8 0v7-7Zm-16 0h8-8Z" stroke="#B4B4B4" stroke-linecap="round" stroke-linejoin="round"/><path d="M4 493.109c.043-1.022.745-4.579 1-4 .255.58.4 5.934.9 6.934s.63-3.502 1.1-2.934c.47.569.312 5.727.779 5.208.467-.519.666-6.406 1.221-7.208.555-.802.465 4.267 1 4 .535-.266.64-5.565 1.14-5.065.5.5.395 6.049.86 7.065.465 1.017.506-3.277 1-3 .494.278.517 4.737 1 4 .483-.736.431-6.194.931-6.944s.591 4.216 1.069 3.944c.478-.272.343-5.532.843-5.032.5.5.618 6.024 1.157 7.032.54 1.008.515-2.725 1-3 .485-.275.441 3.151.941 1.901.5-1.25.544-6.176 1.059-6.901.515-.725 1 4 1 4" stroke="#B4B4B4" stroke-width=".75"/><path d="m18 508.854 3 4m-16 0 3-8-3 8Zm13-4h-7 7Zm-10-4 3 4-3-4Z" stroke="#000" stroke-linecap="round" stroke-linejoin="round"/><path fill-rule="evenodd" clip-rule="evenodd" d="M11 520.5a.5.5 0 1 1 1 0 .5.5 0 0 1-1 0Zm.009.871c-.43.154-.774.449-1.079.852-.483.639-.834 1.508-1.216 2.463l-.015.037c-.364.91-.76 1.899-1.331 2.656-.486.643-1.116 1.141-1.969 1.309a1 1 0 1 1-.077-1.008c.511-.132.905-.449 1.248-.903.483-.639.834-1.508 1.216-2.463l.015-.037c.364-.91.76-1.9 1.331-2.657.364-.481.809-.882 1.368-1.123a1 1 0 1 1 1.886.468c.045.103.1.222.16.355.215.459.52 1.067.883 1.673.365.609.779 1.195 1.206 1.622.192.192.372.337.538.44a.984.984 0 0 1 .392-.053l.107-.198c.243-.437.6-1.023 1.058-1.611.675-.867 1.63-1.822 2.813-2.234a1 1 0 1 1 .233.98c-.858.332-1.627 1.059-2.256 1.868a11.685 11.685 0 0 0-1.12 1.755 1 1 0 1 1-1.884.258 4.317 4.317 0 0 1-.588-.498c-.51-.51-.972-1.174-1.357-1.815a19.644 19.644 0 0 1-1.042-2.007H11.5a.995.995 0 0 1-.491-.129ZM4.5 527.75a.5.5 0 1 0 0 1 .5.5 0 0 0 0-1Zm11-2.25a.5.5 0 1 0 0 1 .5.5 0 0 0 0-1Zm4.5-4.25a.5.5 0 1 1 1 0 .5.5 0 0 1-1 0Z" fill="#B4B4B4"/><path d="M.5 534.5a2 2 0 0 1 2-2h46a2 2 0 0 1 2 2v71a2 2 0 0 1-2 2h-46a2 2 0 0 1-2-2v-71Z" fill="#222"/><path fill="#369EB3" d="M27.5 579.5h21v11h-21z"/><rect x="27.5" y="579.5" width="21" height="11" rx="1" fill="#369EB3"/><rect x="27.5" y="579.5" width="21" height="11" rx="1" stroke="#369EB3"/><path d="m46.55 540.016-4 4-8-8-4.3 4" stroke="#B4B4B4" stroke-linecap="round"/><path d="m38.4 551.016 8 8m-16 0v-8 8Zm8-8v8-8Zm-8 0 8 8-8-8Zm9 22h2m-10-3v-4 4Zm8 3v-6 6Zm-6-7v3-3Zm10 2v1.5-1.5Zm-8 1v5-5Zm6 .5v3.5-3.5Zm4-1.5v4-4Zm-8-1v7-7Zm-6-1h2-2Zm2 3h2-2Zm2 5h2-2Zm2-7h2-2Zm4 2.5h2-2Zm2-1.5h2-2Zm-14 2h2-2Zm16 2h2-2Z" stroke="#B4B4B4" stroke-linecap="round" stroke-linejoin="round"/><path fill-rule="evenodd" clip-rule="evenodd" d="M29 590.016h2v-5h-2v5Zm16.8 0h2v-5h-2v5Zm-12.7-2h-2v-3h2v3Zm12.6 0h-2v-3h2v3Zm-12.5-2.75h2v-.5h-2v.5Zm10.4 0h-2v-.5h2v.5Zm-8.3-.25h2v-3h-2v3Zm4.1 0h-2v-5h2v5Zm.1 0h2v-3h-2v3Z" fill="#000"/><path d="m31.284 601.142.343-1.354h.413l.102-.343h-.425c.121-.494.282-.855.48-1.084.122-.142.24-.214.355-.214a.08.08 0 0 1 .057.021.07.07 0 0 1 .022.053.3.3 0 0 1-.048.111.307.307 0 0 0-.048.155c0 .069.025.127.076.176.05.049.115.073.193.073a.277.277 0 0 0 .211-.089.337.337 0 0 0 .085-.242.352.352 0 0 0-.127-.281c-.085-.072-.221-.108-.409-.108-.293 0-.559.086-.797.257-.238.172-.465.456-.68.853-.074.137-.144.225-.21.264-.067.039-.173.057-.32.055l-.096.343h.407l-.598 2.341c-.1.385-.167.622-.202.712a.852.852 0 0 1-.232.334.215.215 0 0 1-.149.055.06.06 0 0 1-.041-.014l-.015-.021c0-.009.015-.029.044-.06.03-.03.044-.076.044-.139a.226.226 0 0 0-.07-.17c-.047-.045-.114-.067-.202-.067a.362.362 0 0 0-.255.088.271.271 0 0 0-.097.208c0 .086.04.16.117.224.079.063.2.095.367.095.263 0 .497-.069.701-.207.204-.137.383-.35.535-.637.152-.287.308-.75.469-1.388Zm14.997-1.36.507-1.766h-.176l-.979.172-.032.118c.111-.006.194.01.25.049a.13.13 0 0 1 .058.112c0 .054-.022.155-.065.302l-.896 3.108c.36.189.7.284 1.022.284.434 0 .82-.182 1.16-.548.383-.414.575-.884.575-1.412a.999.999 0 0 0-.175-.584c-.116-.169-.291-.254-.526-.254a.697.697 0 0 0-.337.084c-.103.055-.232.167-.386.335Zm-4.573.117h1.409v-1.406h.384v1.406h1.409v.387H43.5v1.395h-.383v-1.395h-1.41v-.387Zm-3.36-.495-.57 1.949-.058.237a.376.376 0 0 0-.009.064.09.09 0 0 0 .025.062c.017.017.034.026.052.026.04 0 .097-.031.17-.094.029-.025.1-.115.21-.269l.103.053c-.139.254-.287.439-.444.555a.84.84 0 0 1-.508.174c-.111 0-.196-.029-.255-.086a.295.295 0 0 1-.088-.219c0-.076.031-.217.094-.424l.07-.238c-.226.389-.444.664-.653.827a.625.625 0 0 1-.387.14c-.18 0-.31-.074-.39-.221a1.032 1.032 0 0 1-.12-.5c0-.275.084-.591.252-.947.168-.357.389-.643.662-.86.225-.18.436-.27.633-.27.11 0 .197.032.264.095.066.064.115.18.146.348l.106-.361.694-.041Zm1.42-.041-1.022.176-.02.111c.075-.015.14-.023.192-.023.102 0 .186.044.252.132.106.137.252.553.44 1.248a6.663 6.663 0 0 1-.302.387.886.886 0 0 1-.223.19.33.33 0 0 1-.152.035.577.577 0 0 1-.21-.07.431.431 0 0 0-.18-.047.331.331 0 0 0-.342.343c0 .093.03.17.089.228.06.059.14.088.242.088a.63.63 0 0 0 .275-.061c.086-.041.194-.129.324-.263.13-.133.309-.346.537-.637.088.278.165.479.229.605a.708.708 0 0 0 .221.273.554.554 0 0 0 .312.083.641.641 0 0 0 .37-.132c.163-.113.331-.308.503-.586l-.105-.061c-.117.164-.204.266-.261.307a.224.224 0 0 1-.132.039c-.06 0-.12-.039-.179-.115-.1-.129-.232-.486-.398-1.072.148-.262.273-.433.375-.513a.376.376 0 0 1 .234-.088c.032 0 .088.012.169.034a.799.799 0 0 0 .215.034c.086 0 .158-.03.216-.09a.316.316 0 0 0 .086-.23.325.325 0 0 0-.087-.237.334.334 0 0 0-.247-.088.561.561 0 0 0-.271.069c-.085.046-.193.145-.324.297a7.33 7.33 0 0 0-.433.595 2.936 2.936 0 0 0-.393-.961Zm-4.274.068h-3.205v.381h3.205v-.381Zm1.916.53c0-.158-.025-.273-.074-.343a.167.167 0 0 0-.143-.073c-.06 0-.123.029-.188.088-.13.121-.272.367-.423.737-.151.37-.227.69-.227.959 0 .104.017.178.051.224.034.046.072.069.113.069.088 0 .177-.051.267-.152.128-.145.245-.322.348-.531.184-.367.276-.693.276-.978Zm8.502 2.033a.472.472 0 0 1-.25-.088l.399-1.377c.08-.279.154-.462.223-.548.101-.132.22-.199.357-.199a.28.28 0 0 1 .217.109c.062.072.094.177.094.316 0 .244-.041.489-.123.735a2.428 2.428 0 0 1-.307.63 1.253 1.253 0 0 1-.35.361.51.51 0 0 1-.26.061Zm-10.418-1.605h-3.205v.381h3.205v-.381Z" fill="#B4B4B4"/><path d="M4.7 540.015c.55-4.485 4.3-4 4.3-4m4 4.016c-.55-4.486-4.5-4.016-4.5-4.016M13 540c.55 4.486 4.395 4.027 4.5 4.015m3.8-4.014c-.55 4.486-4.5 4.016-4.5 4.016" stroke="#B4B4B4" stroke-linecap="round"/><path d="M13 558.534h8m-16 0v-7 7Zm8-7v7-7Zm8 0v7-7Zm-16 0h8-8Z" stroke="#B4B4B4" stroke-linecap="round" stroke-linejoin="round"/><path d="M4 569.109c.043-1.022.745-4.579 1-4 .255.58.4 5.934.9 6.934s.63-3.502 1.1-2.934c.47.569.312 5.727.779 5.208.467-.519.666-6.406 1.221-7.208.555-.802.465 4.267 1 4 .535-.266.64-5.565 1.14-5.065.5.5.395 6.049.86 7.065.465 1.017.506-3.277 1-3 .494.278.517 4.737 1 4 .483-.736.431-6.194.931-6.944s.591 4.216 1.069 3.944c.478-.272.343-5.532.843-5.032.5.5.618 6.024 1.157 7.032.54 1.008.515-2.725 1-3 .485-.275.441 3.151.941 1.901.5-1.25.544-6.176 1.059-6.901.515-.725 1 4 1 4" stroke="#B4B4B4" stroke-width=".75"/><path d="m18 584.854 3 4m-16 0 3-8-3 8Zm13-4h-7 7Zm-10-4 3 4-3-4Z" stroke="#B4B4B4" stroke-linecap="round" stroke-linejoin="round"/><path fill-rule="evenodd" clip-rule="evenodd" d="M11 596.5a.5.5 0 1 1 1 0 .5.5 0 0 1-1 0Zm.009.871c-.43.154-.774.449-1.079.852-.483.639-.834 1.508-1.216 2.463l-.015.037c-.364.91-.76 1.899-1.331 2.656-.486.643-1.116 1.141-1.969 1.309a1 1 0 1 1-.077-1.008c.511-.132.905-.449 1.248-.903.483-.639.834-1.508 1.216-2.463l.015-.037c.364-.91.76-1.9 1.331-2.657.364-.481.809-.882 1.368-1.123a1 1 0 1 1 1.886.468c.045.103.1.222.16.355.215.459.52 1.067.883 1.673.365.609.779 1.195 1.206 1.622.192.192.372.337.538.44a.984.984 0 0 1 .392-.053l.107-.198c.243-.437.6-1.023 1.058-1.611.675-.867 1.63-1.822 2.813-2.234a1 1 0 1 1 .233.98c-.858.332-1.627 1.059-2.256 1.868a11.685 11.685 0 0 0-1.12 1.755 1 1 0 1 1-1.884.258 4.317 4.317 0 0 1-.588-.498c-.51-.51-.972-1.174-1.357-1.815a19.644 19.644 0 0 1-1.042-2.007H11.5a.995.995 0 0 1-.491-.129ZM4.5 603.75a.5.5 0 1 0 0 1 .5.5 0 0 0 0-1Zm11-2.25a.5.5 0 1 0 0 1 .5.5 0 0 0 0-1Zm4.5-4.25a.5.5 0 1 1 1 0 .5.5 0 0 1-1 0Z" fill="#B4B4B4"/><path d="M.5 610.5a2 2 0 0 1 2-2h46a2 2 0 0 1 2 2v71a2 2 0 0 1-2 2h-46a2 2 0 0 1-2-2v-71Z" fill="#222"/><path fill="#369EB3" d="M2.5 670.5h21v11h-21z"/><rect x="2.5" y="670.5" width="21" height="11" rx="1" fill="#369EB3"/><rect x="2.5" y="670.5" width="21" height="11" rx="1" stroke="#369EB3"/><path d="m46.55 616.016-4 4-8-8-4.3 4" stroke="#B4B4B4" stroke-linecap="round"/><path d="m38.4 627.016 8 8m-16 0v-8 8Zm8-8v8-8Zm-8 0 8 8-8-8Zm9 22h2m-10-3v-4 4Zm8 3v-6 6Zm-6-7v3-3Zm10 2v1.5-1.5Zm-8 1v5-5Zm6 .5v3.5-3.5Zm4-1.5v4-4Zm-8-1v7-7Zm-6-1h2-2Zm2 3h2-2Zm2 5h2-2Zm2-7h2-2Zm4 2.5h2-2Zm2-1.5h2-2Zm-14 2h2-2Zm16 2h2-2Z" stroke="#B4B4B4" stroke-linecap="round" stroke-linejoin="round"/><path fill-rule="evenodd" clip-rule="evenodd" d="M29 666.016h2v-5h-2v5Zm16.8 0h2v-5h-2v5Zm-12.7-2h-2v-3h2v3Zm12.6 0h-2v-3h2v3Zm-12.5-2.75h2v-.5h-2v.5Zm10.4 0h-2v-.5h2v.5Zm-8.3-.25h2v-3h-2v3Zm4.1 0h-2v-5h2v5Zm.1 0h2v-3h-2v3Z" fill="#B4B4B4"/><path d="m31.284 677.142.343-1.354h.413l.102-.343h-.425c.121-.494.282-.855.48-1.084.122-.142.24-.214.355-.214a.08.08 0 0 1 .057.021.07.07 0 0 1 .022.053.3.3 0 0 1-.048.111.307.307 0 0 0-.048.155c0 .069.025.127.076.176.05.049.115.073.193.073a.277.277 0 0 0 .211-.089.337.337 0 0 0 .085-.242.352.352 0 0 0-.127-.281c-.085-.072-.221-.108-.409-.108-.293 0-.559.086-.797.257-.238.172-.465.456-.68.853-.074.137-.144.225-.21.264-.067.039-.173.057-.32.055l-.096.343h.407l-.598 2.341c-.1.385-.167.622-.202.712a.852.852 0 0 1-.232.334.215.215 0 0 1-.149.055.06.06 0 0 1-.041-.014l-.015-.021c0-.009.015-.029.044-.06.03-.03.044-.076.044-.139a.226.226 0 0 0-.07-.17c-.047-.045-.114-.067-.202-.067a.362.362 0 0 0-.255.088.271.271 0 0 0-.097.208c0 .086.04.16.117.224.079.063.2.095.367.095.263 0 .497-.069.701-.207.204-.137.383-.35.535-.637.152-.287.308-.75.469-1.388Zm14.997-1.36.507-1.766h-.176l-.979.172-.032.118c.111-.006.194.01.25.049a.13.13 0 0 1 .058.112c0 .054-.022.155-.065.302l-.896 3.108c.36.189.7.284 1.022.284.434 0 .82-.182 1.16-.548.383-.414.575-.884.575-1.412a.999.999 0 0 0-.175-.584c-.116-.169-.291-.254-.526-.254a.697.697 0 0 0-.337.084c-.103.055-.232.167-.386.335Zm-4.573.117h1.409v-1.406h.384v1.406h1.409v.387H43.5v1.395h-.383v-1.395h-1.41v-.387Zm-3.36-.495-.57 1.949-.058.237a.376.376 0 0 0-.009.064.09.09 0 0 0 .025.062c.017.017.034.026.052.026.04 0 .097-.031.17-.094.029-.025.1-.115.21-.269l.103.053c-.139.254-.287.439-.444.555a.84.84 0 0 1-.508.174c-.111 0-.196-.029-.255-.086a.295.295 0 0 1-.088-.219c0-.076.031-.217.094-.424l.07-.238c-.226.389-.444.664-.653.827a.625.625 0 0 1-.387.14c-.18 0-.31-.074-.39-.221a1.032 1.032 0 0 1-.12-.5c0-.275.084-.591.252-.947.168-.357.389-.643.662-.86.225-.18.436-.27.633-.27.11 0 .197.032.264.095.066.064.115.18.146.348l.106-.361.694-.041Zm1.42-.041-1.022.176-.02.111c.075-.015.14-.023.192-.023.102 0 .186.044.252.132.106.137.252.553.44 1.248a6.663 6.663 0 0 1-.302.387.886.886 0 0 1-.223.19.33.33 0 0 1-.152.035.577.577 0 0 1-.21-.07.431.431 0 0 0-.18-.047.331.331 0 0 0-.342.343c0 .093.03.17.089.228.06.059.14.088.242.088a.63.63 0 0 0 .275-.061c.086-.041.194-.129.324-.263.13-.133.309-.346.537-.637.088.278.165.479.229.605a.708.708 0 0 0 .221.273.554.554 0 0 0 .312.083.641.641 0 0 0 .37-.132c.163-.113.331-.308.503-.586l-.105-.061c-.117.164-.204.266-.261.307a.224.224 0 0 1-.132.039c-.06 0-.12-.039-.179-.115-.1-.129-.232-.486-.398-1.072.148-.262.273-.433.375-.513a.376.376 0 0 1 .234-.088c.032 0 .088.012.169.034a.799.799 0 0 0 .215.034c.086 0 .158-.03.216-.09a.316.316 0 0 0 .086-.23.325.325 0 0 0-.087-.237.334.334 0 0 0-.247-.088.561.561 0 0 0-.271.069c-.085.046-.193.145-.324.297a7.33 7.33 0 0 0-.433.595 2.936 2.936 0 0 0-.393-.961Zm-4.274.068h-3.205v.381h3.205v-.381Zm1.916.53c0-.158-.025-.273-.074-.343a.167.167 0 0 0-.143-.073c-.06 0-.123.029-.188.088-.13.121-.272.367-.423.737-.151.37-.227.69-.227.959 0 .104.017.178.051.224.034.046.072.069.113.069.088 0 .177-.051.267-.152.128-.145.245-.322.348-.531.184-.367.276-.693.276-.978Zm8.502 2.033a.472.472 0 0 1-.25-.088l.399-1.377c.08-.279.154-.462.223-.548.101-.132.22-.199.357-.199a.28.28 0 0 1 .217.109c.062.072.094.177.094.316 0 .244-.041.489-.123.735a2.428 2.428 0 0 1-.307.63 1.253 1.253 0 0 1-.35.361.51.51 0 0 1-.26.061Zm-10.418-1.605h-3.205v.381h3.205v-.381Z" fill="#B4B4B4"/><path d="M4.7 616.015c.55-4.485 4.3-4 4.3-4m4 4.016c-.55-4.486-4.5-4.016-4.5-4.016M13 616c.55 4.486 4.395 4.027 4.5 4.015m3.8-4.014c-.55 4.486-4.5 4.016-4.5 4.016" stroke="#B4B4B4" stroke-linecap="round"/><path d="M13 634.534h8m-16 0v-7 7Zm8-7v7-7Zm8 0v7-7Zm-16 0h8-8Z" stroke="#B4B4B4" stroke-linecap="round" stroke-linejoin="round"/><path d="M4 645.109c.043-1.022.745-4.579 1-4 .255.58.4 5.934.9 6.934s.63-3.502 1.1-2.934c.47.569.312 5.727.779 5.208.467-.519.666-6.406 1.221-7.208.555-.802.465 4.267 1 4 .535-.266.64-5.565 1.14-5.065.5.5.395 6.049.86 7.065.465 1.017.506-3.277 1-3 .494.278.517 4.737 1 4 .483-.736.431-6.194.931-6.944s.591 4.216 1.069 3.944c.478-.272.343-5.532.843-5.032.5.5.618 6.024 1.157 7.032.54 1.008.515-2.725 1-3 .485-.275.441 3.151.941 1.901.5-1.25.544-6.176 1.059-6.901.515-.725 1 4 1 4" stroke="#B4B4B4" stroke-width=".75"/><path d="m18 660.854 3 4m-16 0 3-8-3 8Zm13-4h-7 7Zm-10-4 3 4-3-4Z" stroke="#B4B4B4" stroke-linecap="round" stroke-linejoin="round"/><path fill-rule="evenodd" clip-rule="evenodd" d="M11 672.5a.5.5 0 1 1 1 0 .5.5 0 0 1-1 0Zm.009.871c-.43.154-.774.449-1.079.852-.483.639-.834 1.508-1.216 2.463l-.015.037c-.364.91-.76 1.899-1.331 2.656-.486.643-1.116 1.141-1.969 1.309a1 1 0 1 1-.077-1.008c.511-.132.905-.449 1.248-.903.483-.639.834-1.508 1.216-2.463l.015-.037c.364-.91.76-1.9 1.331-2.657.364-.481.809-.882 1.368-1.123a1 1 0 1 1 1.886.468c.045.103.1.222.16.355.215.459.52 1.067.883 1.673.365.609.779 1.195 1.206 1.622.192.192.372.337.538.44a.984.984 0 0 1 .392-.053l.107-.198c.243-.437.6-1.023 1.058-1.611.675-.867 1.63-1.822 2.813-2.234a1 1 0 1 1 .233.98c-.858.332-1.627 1.059-2.256 1.868a11.685 11.685 0 0 0-1.12 1.755 1 1 0 1 1-1.884.258 4.317 4.317 0 0 1-.588-.498c-.51-.51-.972-1.174-1.357-1.815a19.644 19.644 0 0 1-1.042-2.007H11.5a.995.995 0 0 1-.491-.129ZM4.5 679.75a.5.5 0 1 0 0 1 .5.5 0 0 0 0-1Zm11-2.25a.5.5 0 1 0 0 1 .5.5 0 0 0 0-1Zm4.5-4.25a.5.5 0 1 1 1 0 .5.5 0 0 1-1 0Z" fill="#000"/><path d="M.5 686.5a2 2 0 0 1 2-2h46a2 2 0 0 1 2 2v71a2 2 0 0 1-2 2h-46a2 2 0 0 1-2-2v-71Z" fill="#222"/><path fill="#369EB3" d="M27.5 746.5h21v11h-21z"/><rect x="27.5" y="746.5" width="21" height="11" rx="1" fill="#369EB3"/><rect x="27.5" y="746.5" width="21" height="11" rx="1" stroke="#369EB3"/><path d="m46.55 692.016-4 4-8-8-4.3 4" stroke="#B4B4B4" stroke-linecap="round"/><path d="m38.4 703.016 8 8m-16 0v-8 8Zm8-8v8-8Zm-8 0 8 8-8-8Zm9 22h2m-10-3v-4 4Zm8 3v-6 6Zm-6-7v3-3Zm10 2v1.5-1.5Zm-8 1v5-5Zm6 .5v3.5-3.5Zm4-1.5v4-4Zm-8-1v7-7Zm-6-1h2-2Zm2 3h2-2Zm2 5h2-2Zm2-7h2-2Zm4 2.5h2-2Zm2-1.5h2-2Zm-14 2h2-2Zm16 2h2-2Z" stroke="#B4B4B4" stroke-linecap="round" stroke-linejoin="round"/><path fill-rule="evenodd" clip-rule="evenodd" d="M29 742.016h2v-5h-2v5Zm16.8 0h2v-5h-2v5Zm-12.7-2h-2v-3h2v3Zm12.6 0h-2v-3h2v3Zm-12.5-2.75h2v-.5h-2v.5Zm10.4 0h-2v-.5h2v.5Zm-8.3-.25h2v-3h-2v3Zm4.1 0h-2v-5h2v5Zm.1 0h2v-3h-2v3Z" fill="#B4B4B4"/><path d="m31.284 753.142.343-1.354h.413l.102-.343h-.425c.121-.494.282-.855.48-1.084.122-.142.24-.214.355-.214a.08.08 0 0 1 .057.021.07.07 0 0 1 .022.053.3.3 0 0 1-.048.111.307.307 0 0 0-.048.155c0 .069.025.127.076.176.05.049.115.073.193.073a.277.277 0 0 0 .211-.089.337.337 0 0 0 .085-.242.352.352 0 0 0-.127-.281c-.085-.072-.221-.108-.409-.108-.293 0-.559.086-.797.257-.238.172-.465.456-.68.853-.074.137-.144.225-.21.264-.067.039-.173.057-.32.055l-.096.343h.407l-.598 2.341c-.1.385-.167.622-.202.712a.852.852 0 0 1-.232.334.215.215 0 0 1-.149.055.06.06 0 0 1-.041-.014l-.015-.021c0-.009.015-.029.044-.06.03-.03.044-.076.044-.139a.226.226 0 0 0-.07-.17c-.047-.045-.114-.067-.202-.067a.362.362 0 0 0-.255.088.271.271 0 0 0-.097.208c0 .086.04.16.117.224.079.063.2.095.367.095.263 0 .497-.069.701-.207.204-.137.383-.35.535-.637.152-.287.308-.75.469-1.388Zm14.997-1.36.507-1.766h-.176l-.979.172-.032.118c.111-.006.194.01.25.049a.13.13 0 0 1 .058.112c0 .054-.022.155-.065.302l-.896 3.108c.36.189.7.284 1.022.284.434 0 .82-.182 1.16-.548.383-.414.575-.884.575-1.412a.999.999 0 0 0-.175-.584c-.116-.169-.291-.254-.526-.254a.697.697 0 0 0-.337.084c-.103.055-.232.167-.386.335Zm-4.573.117h1.409v-1.406h.384v1.406h1.409v.387H43.5v1.395h-.383v-1.395h-1.41v-.387Zm-3.36-.495-.57 1.949-.058.237a.376.376 0 0 0-.009.064.09.09 0 0 0 .025.062c.017.017.034.026.052.026.04 0 .097-.031.17-.094.029-.025.1-.115.21-.269l.103.053c-.139.254-.287.439-.444.555a.84.84 0 0 1-.508.174c-.111 0-.196-.029-.255-.086a.295.295 0 0 1-.088-.219c0-.076.031-.217.094-.424l.07-.238c-.226.389-.444.664-.653.827a.625.625 0 0 1-.387.14c-.18 0-.31-.074-.39-.221a1.032 1.032 0 0 1-.12-.5c0-.275.084-.591.252-.947.168-.357.389-.643.662-.86.225-.18.436-.27.633-.27.11 0 .197.032.264.095.066.064.115.18.146.348l.106-.361.694-.041Zm1.42-.041-1.022.176-.02.111c.075-.015.14-.023.192-.023.102 0 .186.044.252.132.106.137.252.553.44 1.248a6.663 6.663 0 0 1-.302.387.886.886 0 0 1-.223.19.33.33 0 0 1-.152.035.577.577 0 0 1-.21-.07.431.431 0 0 0-.18-.047.331.331 0 0 0-.342.343c0 .093.03.17.089.228.06.059.14.088.242.088a.63.63 0 0 0 .275-.061c.086-.041.194-.129.324-.263.13-.133.309-.346.537-.637.088.278.165.479.229.605a.708.708 0 0 0 .221.273.554.554 0 0 0 .312.083.641.641 0 0 0 .37-.132c.163-.113.331-.308.503-.586l-.105-.061c-.117.164-.204.266-.261.307a.224.224 0 0 1-.132.039c-.06 0-.12-.039-.179-.115-.1-.129-.232-.486-.398-1.072.148-.262.273-.433.375-.513a.376.376 0 0 1 .234-.088c.032 0 .088.012.169.034a.799.799 0 0 0 .215.034c.086 0 .158-.03.216-.09a.316.316 0 0 0 .086-.23.325.325 0 0 0-.087-.237.334.334 0 0 0-.247-.088.561.561 0 0 0-.271.069c-.085.046-.193.145-.324.297a7.33 7.33 0 0 0-.433.595 2.936 2.936 0 0 0-.393-.961Zm-4.274.068h-3.205v.381h3.205v-.381Zm1.916.53c0-.158-.025-.273-.074-.343a.167.167 0 0 0-.143-.073c-.06 0-.123.029-.188.088-.13.121-.272.367-.423.737-.151.37-.227.69-.227.959 0 .104.017.178.051.224.034.046.072.069.113.069.088 0 .177-.051.267-.152.128-.145.245-.322.348-.531.184-.367.276-.693.276-.978Zm8.502 2.033a.472.472 0 0 1-.25-.088l.399-1.377c.08-.279.154-.462.223-.548.101-.132.22-.199.357-.199a.28.28 0 0 1 .217.109c.062.072.094.177.094.316 0 .244-.041.489-.123.735a2.428 2.428 0 0 1-.307.63 1.253 1.253 0 0 1-.35.361.51.51 0 0 1-.26.061Zm-10.418-1.605h-3.205v.381h3.205v-.381Z" fill="#000"/><path d="M4.7 692.015c.55-4.485 4.3-4 4.3-4m4 4.016c-.55-4.486-4.5-4.016-4.5-4.016M13 692c.55 4.486 4.395 4.027 4.5 4.015m3.8-4.014c-.55 4.486-4.5 4.016-4.5 4.016" stroke="#B4B4B4" stroke-linecap="round"/><path d="M13 710.534h8m-16 0v-7 7Zm8-7v7-7Zm8 0v7-7Zm-16 0h8-8Z" stroke="#B4B4B4" stroke-linecap="round" stroke-linejoin="round"/><path d="M4 721.109c.043-1.022.745-4.579 1-4 .255.58.4 5.934.9 6.934s.63-3.502 1.1-2.934c.47.569.312 5.727.779 5.208.467-.519.666-6.406 1.221-7.208.555-.802.465 4.267 1 4 .535-.266.64-5.565 1.14-5.065.5.5.395 6.049.86 7.065.465 1.017.506-3.277 1-3 .494.278.517 4.737 1 4 .483-.736.431-6.194.931-6.944s.591 4.216 1.069 3.944c.478-.272.343-5.532.843-5.032.5.5.618 6.024 1.157 7.032.54 1.008.515-2.725 1-3 .485-.275.441 3.151.941 1.901.5-1.25.544-6.176 1.059-6.901.515-.725 1 4 1 4" stroke="#B4B4B4" stroke-width=".75"/><path d="m18 736.854 3 4m-16 0 3-8-3 8Zm13-4h-7 7Zm-10-4 3 4-3-4Z" stroke="#B4B4B4" stroke-linecap="round" stroke-linejoin="round"/><path fill-rule="evenodd" clip-rule="evenodd" d="M11 748.5a.5.5 0 1 1 1 0 .5.5 0 0 1-1 0Zm.009.871c-.43.154-.774.449-1.079.852-.483.639-.834 1.508-1.216 2.463l-.015.037c-.364.91-.76 1.899-1.331 2.656-.486.643-1.116 1.141-1.969 1.309a1 1 0 1 1-.077-1.008c.511-.132.905-.449 1.248-.903.483-.639.834-1.508 1.216-2.463l.015-.037c.364-.91.76-1.9 1.331-2.657.364-.481.809-.882 1.368-1.123a1 1 0 1 1 1.886.468c.045.103.1.222.16.355.215.459.52 1.067.883 1.673.365.609.779 1.195 1.206 1.622.192.192.372.337.538.44a.984.984 0 0 1 .392-.053l.107-.198c.243-.437.6-1.023 1.058-1.611.675-.867 1.63-1.822 2.813-2.234a1 1 0 1 1 .233.98c-.858.332-1.627 1.059-2.256 1.868a11.685 11.685 0 0 0-1.12 1.755 1 1 0 1 1-1.884.258 4.317 4.317 0 0 1-.588-.498c-.51-.51-.972-1.174-1.357-1.815a19.644 19.644 0 0 1-1.042-2.007H11.5a.995.995 0 0 1-.491-.129ZM4.5 755.75a.5.5 0 1 0 0 1 .5.5 0 0 0 0-1Zm11-2.25a.5.5 0 1 0 0 1 .5.5 0 0 0 0-1Zm4.5-4.25a.5.5 0 1 1 1 0 .5.5 0 0 1-1 0Z" fill="#B4B4B4"/></svg>