<svg width="51" height="28" fill="none" xmlns="http://www.w3.org/2000/svg"><path d="M.5 2.5a2 2 0 0 1 2-2h46a2 2 0 0 1 2 2v9a2 2 0 0 1-2 2h-46a2 2 0 0 1-2-2v-9Z" fill="#242424"/><path d="M13.38 8.932c.182 0 .343-.03.485-.088a.999.999 0 0 0 .364-.26 1.12 1.12 0 0 0 .224-.408 1.78 1.78 0 0 0 .08-.552V4.172h1.352v3.452c0 .357-.059.685-.176.984-.115.299-.28.556-.496.772a2.247 2.247 0 0 1-.788.504c-.31.12-.658.18-1.044.18-.39 0-.739-.06-1.048-.18a2.247 2.247 0 0 1-.788-.504 2.184 2.184 0 0 1-.496-.772 2.725 2.725 0 0 1-.172-.984V4.172h1.352V7.62c0 .205.025.39.076.552.053.16.13.297.228.412.099.112.219.199.36.26.144.059.306.088.488.088Zm4.3-2.632c.08-.075.163-.144.248-.208a1.515 1.515 0 0 1 .588-.264 1.64 1.64 0 0 1 .372-.04c.227 0 .427.04.6.12.176.077.324.187.444.328.12.139.211.305.272.5.062.192.092.401.092.628V10h-1.24V7.364c0-.203-.046-.36-.14-.472-.093-.115-.23-.172-.412-.172a.863.863 0 0 0-.384.088 1.502 1.502 0 0 0-.344.232V10h-1.24V5.852h.768c.155 0 .256.07.304.208l.072.24Zm4.567-.448V10h-1.24V5.852h1.24Zm.128-1.136c0 .099-.02.192-.06.28a.765.765 0 0 1-1.22.228.8.8 0 0 1-.16-.228.71.71 0 0 1-.056-.28.72.72 0 0 1 .056-.284.783.783 0 0 1 .16-.232.773.773 0 0 1 .236-.156.76.76 0 0 1 .576 0 .75.75 0 0 1 .408.388.68.68 0 0 1 .06.284Zm1.857 4.156a.822.822 0 0 0 .304.216c.11.043.224.064.344.064a.73.73 0 0 0 .316-.068.634.634 0 0 0 .248-.216c.072-.101.128-.232.168-.392.04-.16.06-.355.06-.584 0-.219-.016-.403-.048-.552a1.08 1.08 0 0 0-.136-.36.505.505 0 0 0-.472-.26.899.899 0 0 0-.448.1c-.118.067-.23.164-.336.292v1.76Zm-.076-2.508a2.12 2.12 0 0 1 .552-.424 1.54 1.54 0 0 1 .74-.168c.216 0 .416.048.6.144.184.096.342.235.476.416.133.181.237.404.312.668.077.261.116.559.116.892 0 .312-.044.6-.132.864a2.117 2.117 0 0 1-.364.688 1.65 1.65 0 0 1-.56.456c-.216.11-.456.164-.72.164-.216 0-.398-.03-.544-.092a1.478 1.478 0 0 1-.4-.248v1.592h-1.24V5.852h.768c.154 0 .256.07.304.208l.092.304Zm5.23-.576c.314 0 .6.05.86.148a1.864 1.864 0 0 1 1.095 1.096c.104.261.156.556.156.884 0 .33-.052.63-.156.896-.101.264-.245.49-.432.676a1.913 1.913 0 0 1-.664.428 2.395 2.395 0 0 1-.86.148c-.317 0-.606-.05-.868-.148a1.997 1.997 0 0 1-.672-.428 1.956 1.956 0 0 1-.436-.676 2.505 2.505 0 0 1-.152-.896c0-.328.05-.623.152-.884.104-.264.25-.488.436-.672.19-.184.414-.325.672-.424a2.44 2.44 0 0 1 .868-.148Zm0 3.356c.285 0 .494-.1.627-.3.136-.203.204-.51.204-.92 0-.41-.068-.716-.204-.916-.133-.2-.342-.3-.628-.3-.293 0-.508.1-.644.3-.136.2-.204.505-.204.916 0 .41.068.717.204.92.136.2.35.3.644.3Zm3.856-5.132V10h-1.24V4.012h1.24Zm2.858 4.3a4.03 4.03 0 0 0-.612.064c-.16.032-.287.072-.38.12a.476.476 0 0 0-.196.164.4.4 0 0 0-.052.2c0 .141.038.241.116.3.077.056.19.084.34.084.16 0 .3-.028.42-.084a1.29 1.29 0 0 0 .364-.272v-.576Zm-2.232-1.884c.25-.221.528-.385.832-.492.306-.11.634-.164.984-.164.25 0 .476.041.676.124a1.449 1.449 0 0 1 .836.856c.075.2.112.419.112.656V10h-.568a.594.594 0 0 1-.268-.048c-.059-.032-.108-.099-.148-.2l-.088-.228a3.998 3.998 0 0 1-.3.232 1.98 1.98 0 0 1-.3.172 1.42 1.42 0 0 1-.328.1 1.88 1.88 0 0 1-.384.036c-.19 0-.361-.024-.516-.072a1.122 1.122 0 0 1-.396-.22.974.974 0 0 1-.248-.356 1.308 1.308 0 0 1-.088-.496c0-.15.037-.3.112-.452a1.1 1.1 0 0 1 .388-.42c.184-.128.432-.235.744-.32.312-.085.705-.133 1.18-.144v-.176c0-.243-.05-.417-.152-.524-.099-.11-.24-.164-.424-.164a1.13 1.13 0 0 0-.36.048 1.707 1.707 0 0 0-.252.108c-.072.04-.143.076-.212.108a.588.588 0 0 1-.248.048.357.357 0 0 1-.216-.064.559.559 0 0 1-.144-.152l-.224-.388Zm5.273.064c.128-.224.274-.4.44-.528a.925.925 0 0 1 .575-.192.74.74 0 0 1 .456.132l-.08.912c-.013.059-.035.099-.067.12a.208.208 0 0 1-.125.032 1.14 1.14 0 0 1-.084-.004l-.108-.008a1.556 1.556 0 0 0-.116-.012.74.74 0 0 0-.103-.008.637.637 0 0 0-.437.144c-.106.096-.197.23-.271.4V10h-1.24V5.852h.736c.06 0 .111.005.151.016a.24.24 0 0 1 .104.052.17.17 0 0 1 .064.088c.017.037.03.083.04.136l.065.348Z" fill="#B4B4B4"/><path d="M.5 16.5a2 2 0 0 1 2-2h46a2 2 0 0 1 2 2v9a2 2 0 0 1-2 2h-46a2 2 0 0 1-2-2v-9Z" fill="#242424"/><rect x="2.5" y="16.5" width="46" height="9" rx="1" fill="#369EB3"/><rect x="2.5" y="16.5" width="46" height="9" rx="1" stroke="#369EB3"/><path d="M13.38 22.932c.182 0 .343-.03.485-.088a.999.999 0 0 0 .364-.26 1.12 1.12 0 0 0 .224-.408 1.78 1.78 0 0 0 .08-.552v-3.452h1.352v3.452c0 .357-.059.685-.176.984-.115.299-.28.556-.496.772a2.247 2.247 0 0 1-.788.504c-.31.12-.658.18-1.044.18-.39 0-.739-.06-1.048-.18a2.247 2.247 0 0 1-.788-.504 2.184 2.184 0 0 1-.496-.772 2.726 2.726 0 0 1-.172-.984v-3.452h1.352v3.448c0 .205.025.39.076.552.053.16.13.297.228.412.099.112.219.199.36.26.144.059.306.088.488.088Zm4.3-2.632c.08-.075.163-.144.248-.208a1.517 1.517 0 0 1 .588-.264c.115-.027.24-.04.372-.04.227 0 .427.04.6.12.176.077.324.187.444.328.12.139.211.305.272.5.062.192.092.401.092.628V24h-1.24v-2.636c0-.203-.046-.36-.14-.472-.093-.115-.23-.172-.412-.172a.862.862 0 0 0-.384.088 1.501 1.501 0 0 0-.344.232V24h-1.24v-4.148h.768c.155 0 .256.07.304.208l.072.24Zm4.567-.448V24h-1.24v-4.148h1.24Zm.128-1.136c0 .099-.02.192-.06.28a.765.765 0 0 1-1.22.228.8.8 0 0 1-.16-.228.71.71 0 0 1-.056-.28.72.72 0 0 1 .056-.284.783.783 0 0 1 .16-.232.772.772 0 0 1 .236-.156.76.76 0 0 1 .576 0 .749.749 0 0 1 .408.388.68.68 0 0 1 .06.284Zm1.857 4.156a.823.823 0 0 0 .304.216c.11.043.224.064.344.064.114 0 .22-.023.316-.068a.634.634 0 0 0 .248-.216c.072-.101.128-.232.168-.392.04-.16.06-.355.06-.584 0-.219-.016-.403-.048-.552a1.08 1.08 0 0 0-.136-.36.505.505 0 0 0-.472-.26.898.898 0 0 0-.448.1c-.118.067-.23.164-.336.292v1.76Zm-.076-2.508a2.12 2.12 0 0 1 .552-.424 1.54 1.54 0 0 1 .74-.168c.216 0 .416.048.6.144.184.096.342.235.476.416.133.181.237.404.312.668.077.261.116.559.116.892 0 .312-.044.6-.132.864a2.117 2.117 0 0 1-.364.688 1.65 1.65 0 0 1-.56.456c-.216.11-.456.164-.72.164-.216 0-.398-.03-.544-.092a1.477 1.477 0 0 1-.4-.248v1.592h-1.24v-5.464h.768c.154 0 .256.07.304.208l.092.304Zm5.23-.576c.314 0 .6.05.86.148a1.864 1.864 0 0 1 1.095 1.096c.104.261.156.556.156.884 0 .33-.052.63-.156.896-.101.264-.245.49-.432.676a1.912 1.912 0 0 1-.664.428 2.395 2.395 0 0 1-.86.148c-.317 0-.606-.05-.868-.148a1.997 1.997 0 0 1-.672-.428 1.956 1.956 0 0 1-.436-.676 2.505 2.505 0 0 1-.152-.896c0-.328.05-.623.152-.884.104-.264.25-.488.436-.672.19-.184.414-.325.672-.424.262-.099.55-.148.868-.148Zm0 3.356c.285 0 .494-.1.627-.3.136-.203.204-.51.204-.92 0-.41-.068-.716-.204-.916-.133-.2-.342-.3-.628-.3-.293 0-.508.1-.644.3-.136.2-.204.505-.204.916 0 .41.068.717.204.92.136.2.35.3.644.3Zm3.856-5.132V24h-1.24v-5.988h1.24Zm2.858 4.3a4.03 4.03 0 0 0-.612.064c-.16.032-.287.072-.38.12a.477.477 0 0 0-.196.164.4.4 0 0 0-.052.2c0 .141.038.241.116.3.077.056.19.084.34.084.16 0 .3-.028.42-.084a1.28 1.28 0 0 0 .364-.272v-.576Zm-2.232-1.884a2.5 2.5 0 0 1 .832-.492 2.91 2.91 0 0 1 .984-.164c.25 0 .476.041.676.124a1.449 1.449 0 0 1 .836.856c.075.2.112.419.112.656V24h-.568a.594.594 0 0 1-.268-.048c-.059-.032-.108-.099-.148-.2l-.088-.228a4.006 4.006 0 0 1-.3.232 1.977 1.977 0 0 1-.3.172c-.102.045-.21.079-.328.1a1.88 1.88 0 0 1-.384.036c-.19 0-.361-.024-.516-.072a1.122 1.122 0 0 1-.396-.22.974.974 0 0 1-.248-.356 1.308 1.308 0 0 1-.088-.496c0-.15.037-.3.112-.452a1.1 1.1 0 0 1 .388-.42 2.43 2.43 0 0 1 .744-.32c.312-.085.705-.133 1.18-.144v-.176c0-.243-.05-.417-.152-.524-.099-.11-.24-.164-.424-.164a1.13 1.13 0 0 0-.36.048 1.707 1.707 0 0 0-.252.108c-.072.04-.143.076-.212.108a.588.588 0 0 1-.248.048.357.357 0 0 1-.216-.064.559.559 0 0 1-.144-.152l-.224-.388Zm5.273.064c.128-.224.274-.4.44-.528a.925.925 0 0 1 .575-.192.74.74 0 0 1 .456.132l-.08.912c-.013.059-.035.099-.067.12a.208.208 0 0 1-.125.032c-.02 0-.049-.001-.084-.004l-.108-.008a1.589 1.589 0 0 0-.116-.012.744.744 0 0 0-.103-.008.637.637 0 0 0-.437.144c-.106.096-.197.23-.271.4V24h-1.24v-4.148h.736c.06 0 .111.005.151.016a.24.24 0 0 1 .104.052.17.17 0 0 1 .064.088c.017.037.03.083.04.136l.065.348Z" fill="#000"/></svg>