<svg width="26" height="39" fill="none" xmlns="http://www.w3.org/2000/svg"><path d="M3.5 6.5a3 3 0 1 1 6 0 3 3 0 0 1-6 0Z" fill="#369EB3" stroke="#369EB3"/><path d="M1 19.5a5.5 5.5 0 1 1 11 0 5.5 5.5 0 0 1-11 0Z" fill="#000" stroke="#fff"/><path d="M3 19.5a3.5 3.5 0 1 1 7 0 3.5 3.5 0 0 1-7 0Z" fill="#fff" stroke="#fff"/><path d="M1 32.5a5.5 5.5 0 1 1 11 0 5.5 5.5 0 0 1-11 0Z" fill="#369EB3" stroke="#000"/><path d="M3 32.5a3.5 3.5 0 1 1 7 0 3.5 3.5 0 0 1-7 0Z" fill="#000" stroke="#000"/><path d="m19.5 3.707 2.621 2.621L19.5 8.95l-2.621-2.622L19.5 3.707Z" stroke="#369EB3"/><path d="m19.5 16.707 2.621 2.621L19.5 21.95l-2.621-2.622 2.621-2.621Z" fill="#000" stroke="#fff"/><path d="m19.5 29.707 2.621 2.621L19.5 34.95l-2.621-2.622 2.621-2.621Z" fill="#369EB3" stroke="#000"/></svg>