<svg width="48" height="56" fill="none" xmlns="http://www.w3.org/2000/svg"><path d="M9 20c3.038 0 5.5-2.686 5.5-6S12.038 8 9 8s-5.5 2.686-5.5 6 2.462 6 5.5 6Z" fill="url(#a)"/><path d="M14 11.5a5 5 0 1 1-10 0 5 5 0 0 1 10 0Z" fill="url(#b)" stroke="url(#c)"/><path opacity=".5" d="M10 11.25H8a.5.5 0 0 0 0 1h2a.5.5 0 0 0 0-1Z" fill="#EEE"/><path d="M10 11H8a.5.5 0 0 0 0 1h2a.5.5 0 0 0 0-1Z" fill="#369EB3"/><path d="M33 20c3.038 0 5.5-2.686 5.5-6S36.038 8 33 8s-5.5 2.686-5.5 6 2.462 6 5.5 6Z" fill="url(#d)"/><path d="M38 11.5a5 5 0 1 1-10 0 5 5 0 0 1 10 0Z" fill="url(#e)" stroke="#369EB3"/><path opacity=".5" d="M34 11.25h-2a.5.5 0 0 0 0 1h2a.5.5 0 0 0 0-1Z" fill="#EEE"/><path d="M34 11h-2a.5.5 0 0 0 0 1h2a.5.5 0 0 0 0-1Z" fill="#fff"/><path d="M9 48c3.038 0 5.5-2.686 5.5-6s-2.462-6-5.5-6-5.5 2.686-5.5 6 2.462 6 5.5 6Z" fill="url(#f)"/><path d="M14 39.5a5 5 0 1 1-10 0 5 5 0 0 1 10 0Z" fill="url(#g)" stroke="url(#h)"/><path opacity=".5" d="M10 39.25H8a.5.5 0 0 0 0 1h2a.5.5 0 0 0 0-1Z" fill="#EEE"/><path d="M10 39H8a.5.5 0 0 0 0 1h2a.5.5 0 0 0 0-1Z" fill="#369EB3"/><path d="M33 48c3.038 0 5.5-2.686 5.5-6s-2.462-6-5.5-6-5.5 2.686-5.5 6 2.462 6 5.5 6Z" fill="url(#i)"/><path d="M38 39.5a5 5 0 1 1-10 0 5 5 0 0 1 10 0Z" fill="url(#j)" stroke="#369EB3"/><path opacity=".5" d="M34 39.25h-2a.5.5 0 0 0 0 1h2a.5.5 0 0 0 0-1Z" fill="#EEE"/><path d="M34 39h-2a.5.5 0 0 0 0 1h2a.5.5 0 0 0 0-1Z" fill="#fff"/><defs><linearGradient id="a" x1="9" y1="14" x2="9" y2="20" gradientUnits="userSpaceOnUse"><stop offset=".521"/><stop offset="1" stop-opacity="0"/></linearGradient><linearGradient id="b" x1="9" y1="6" x2="9" y2="17" gradientUnits="userSpaceOnUse"><stop/><stop offset="1" stop-color="#353535"/></linearGradient><linearGradient id="c" x1="9" y1="6" x2="9" y2="17" gradientUnits="userSpaceOnUse"><stop stop-color="#B4B4B4" stop-opacity=".25"/><stop offset="1" stop-color="#B4B4B4" stop-opacity=".4"/></linearGradient><linearGradient id="d" x1="33" y1="14" x2="33" y2="20" gradientUnits="userSpaceOnUse"><stop offset=".521"/><stop offset="1" stop-opacity="0"/></linearGradient><linearGradient id="e" x1="33" y1="6" x2="33" y2="17" gradientUnits="userSpaceOnUse"><stop stop-color="#369EB3"/><stop offset="1" stop-color="#000B0E"/></linearGradient><linearGradient id="f" x1="9" y1="42" x2="9" y2="48" gradientUnits="userSpaceOnUse"><stop offset=".521"/><stop offset="1" stop-opacity="0"/></linearGradient><linearGradient id="g" x1="9" y1="34" x2="9" y2="45" gradientUnits="userSpaceOnUse"><stop/><stop offset="1" stop-color="#353535"/></linearGradient><linearGradient id="h" x1="9" y1="34" x2="9" y2="45" gradientUnits="userSpaceOnUse"><stop stop-color="#B4B4B4" stop-opacity=".25"/><stop offset="1" stop-color="#B4B4B4" stop-opacity=".4"/></linearGradient><linearGradient id="i" x1="33" y1="42" x2="33" y2="48" gradientUnits="userSpaceOnUse"><stop offset=".521"/><stop offset="1" stop-opacity="0"/></linearGradient><linearGradient id="j" x1="33" y1="34" x2="33" y2="45" gradientUnits="userSpaceOnUse"><stop stop-color="#369EB3"/><stop offset="1" stop-color="#000B0E"/></linearGradient></defs></svg>