<svg width="12" height="306" fill="none" xmlns="http://www.w3.org/2000/svg"><rect x=".5" y="20" width="11" height="11" rx="1" fill="#369EB3"/><rect x=".5" y="20" width="11" height="11" rx="1" stroke="#369EB3"/><path d="M7.648 27.716v.784H4.743v-.784h.98v-2.573a5.475 5.475 0 0 1 .014-.399l-.58.483a.358.358 0 0 1-.155.074.469.469 0 0 1-.14 0 .382.382 0 0 1-.119-.045.287.287 0 0 1-.077-.07l-.343-.456 1.59-1.333h.895v4.319h.84Z" fill="#000"/><rect x=".5" y="38" width="11" height="11" rx="1" fill="#369EB3"/><rect x=".5" y="38" width="11" height="11" rx="1" stroke="#369EB3"/><path d="M7.386 45.52c.116 0 .209.033.276.098a.328.328 0 0 1 .102.252v.63H4.18v-.35c0-.068.014-.14.042-.217a.523.523 0 0 1 .147-.21l1.47-1.48a5.33 5.33 0 0 0 .329-.361 2.28 2.28 0 0 0 .23-.336 1.347 1.347 0 0 0 .182-.686c0-.203-.048-.358-.146-.465-.096-.11-.243-.165-.441-.165a.65.65 0 0 0-.637.445c-.05.128-.113.213-.193.255-.08.042-.192.051-.34.028l-.573-.102c.037-.254.108-.476.213-.665.108-.189.24-.346.396-.472a1.6 1.6 0 0 1 .542-.28c.203-.063.421-.095.655-.095.252 0 .478.038.679.112.203.073.375.174.518.305.142.13.25.287.325.469.077.18.116.378.116.595 0 .187-.027.36-.08.518a2.02 2.02 0 0 1-.214.455 3.237 3.237 0 0 1-.319.416c-.119.133-.246.269-.381.407l-.998 1.021a2.737 2.737 0 0 1 .732-.122h.952Z" fill="#000"/><rect x=".5" y="56" width="11" height="11" rx="1" fill="#369EB3"/><rect x=".5" y="56" width="11" height="11" rx="1" stroke="#369EB3"/><path d="M4.278 60.856c.037-.254.108-.476.213-.665.108-.189.24-.346.396-.472a1.6 1.6 0 0 1 .542-.28c.203-.063.421-.095.655-.095.252 0 .476.037.672.109.196.07.361.166.497.287a1.235 1.235 0 0 1 .413.927c0 .162-.017.304-.05.428a.976.976 0 0 1-.146.318.886.886 0 0 1-.238.228c-.094.06-.2.111-.322.154.564.198.847.583.847 1.154 0 .271-.05.507-.147.708-.098.2-.23.367-.396.5a1.69 1.69 0 0 1-.57.301 2.344 2.344 0 0 1-.68.098 2.49 2.49 0 0 1-.647-.077 1.536 1.536 0 0 1-.504-.245 1.676 1.676 0 0 1-.388-.427 2.908 2.908 0 0 1-.287-.616l.483-.196a.603.603 0 0 1 .35-.038.328.328 0 0 1 .23.16c.106.194.217.335.333.424a.69.69 0 0 0 .417.13.7.7 0 0 0 .539-.217.658.658 0 0 0 .136-.221.709.709 0 0 0 .046-.248c0-.11-.008-.208-.025-.294a.378.378 0 0 0-.126-.228.711.711 0 0 0-.318-.144 2.551 2.551 0 0 0-.588-.052v-.749c.212 0 .384-.016.514-.049a.788.788 0 0 0 .301-.133.412.412 0 0 0 .144-.21.979.979 0 0 0 .035-.27c0-.2-.05-.354-.147-.462-.096-.11-.243-.164-.441-.164a.65.65 0 0 0-.637.445c-.05.128-.113.213-.193.255-.08.042-.192.051-.34.028l-.573-.102Z" fill="#000"/><rect x=".5" y="74" width="11" height="11" rx="1" fill="#369EB3"/><rect x=".5" y="74" width="11" height="11" rx="1" stroke="#369EB3"/><path d="M6.402 80.519v-1.33c0-.082.003-.17.007-.262.007-.096.017-.195.028-.298l-1.347 1.89h1.312Zm1.47 0v.609c0 .054-.018.1-.056.14-.035.04-.086.06-.154.06h-.315V82.5h-.945v-1.172h-2.05a.302.302 0 0 1-.186-.064.27.27 0 0 1-.102-.157l-.112-.535 2.36-3.172h1.035v3.119h.525Z" fill="#000"/><rect x=".5" y="92" width="11" height="11" rx="1" fill="#369EB3"/><rect x=".5" y="92" width="11" height="11" rx="1" stroke="#369EB3"/><path d="M5.524 97.196a2.886 2.886 0 0 1 .536-.049c.268 0 .504.04.71.122.205.082.378.194.518.337.14.14.245.305.315.497.072.189.108.392.108.609 0 .272-.049.522-.147.748-.095.225-.23.418-.402.581-.173.164-.38.291-.62.382-.238.089-.5.133-.784.133a2.11 2.11 0 0 1-.476-.052 2.466 2.466 0 0 1-.423-.141 2.435 2.435 0 0 1-.364-.206 2.5 2.5 0 0 1-.305-.252l.336-.448a.347.347 0 0 1 .273-.143c.07 0 .136.02.196.059.063.037.13.08.203.126.075.044.161.085.26.123.097.037.219.055.363.055a.892.892 0 0 0 .371-.07.674.674 0 0 0 .249-.195.782.782 0 0 0 .14-.291 1.36 1.36 0 0 0 .045-.357c0-.247-.07-.435-.21-.563-.14-.131-.338-.197-.595-.197a1.82 1.82 0 0 0-.672.13l-.672-.182.434-2.552h2.611v.448a.562.562 0 0 1-.035.204.42.42 0 0 1-.112.16.522.522 0 0 1-.196.105 1.05 1.05 0 0 1-.294.036H5.667l-.143.843Z" fill="#000"/><rect x=".5" y="110" width="11" height="11" rx="1" fill="#369EB3"/><rect x=".5" y="110" width="11" height="11" rx="1" stroke="#369EB3"/><path d="M5.993 117.698a.766.766 0 0 0 .311-.063.77.77 0 0 0 .252-.171.834.834 0 0 0 .165-.259.97.97 0 0 0 .004-.676.703.703 0 0 0-.162-.259.71.71 0 0 0-.255-.161.925.925 0 0 0-.33-.056.74.74 0 0 0-.538.224.806.806 0 0 0-.154.259 1.167 1.167 0 0 0-.01.679c.03.101.076.187.14.259a.615.615 0 0 0 .237.168.918.918 0 0 0 .34.056Zm-.175-2.338c.163-.06.345-.091.546-.091.184 0 .366.031.546.091.18.061.34.154.483.28.142.126.256.286.343.48.088.191.133.418.133.679 0 .238-.045.464-.133.679a1.7 1.7 0 0 1-.963.938c-.228.093-.482.14-.76.14a2.08 2.08 0 0 1-.766-.133 1.678 1.678 0 0 1-.577-.378 1.65 1.65 0 0 1-.36-.578 2.14 2.14 0 0 1-.123-.738c0-.502.193-1.012.58-1.53l1.149-1.55a.651.651 0 0 1 .23-.175.803.803 0 0 1 .35-.074h.967l-1.512 1.806-.133.154Z" fill="#000"/><rect x=".5" y="128" width="11" height="11" rx="1" fill="#369EB3"/><rect x=".5" y="128" width="11" height="11" rx="1" stroke="#369EB3"/><path d="M7.83 131.4v.455a.985.985 0 0 1-.045.329 2.1 2.1 0 0 1-.088.207l-1.77 3.752a.724.724 0 0 1-.21.252.56.56 0 0 1-.358.105h-.79l1.82-3.651c.053-.098.107-.186.16-.266.056-.081.118-.158.186-.231H4.49a.254.254 0 0 1-.094-.017.348.348 0 0 1-.077-.053.338.338 0 0 1-.053-.077.212.212 0 0 1-.02-.091v-.714H7.83Z" fill="#000"/><rect x=".5" y="146" width="11" height="11" rx="1" fill="#369EB3"/><rect x=".5" y="146" width="11" height="11" rx="1" stroke="#369EB3"/><path d="M6 153.737a.815.815 0 0 0 .315-.056.59.59 0 0 0 .343-.378.938.938 0 0 0 .042-.284c0-.109-.012-.21-.035-.301a.568.568 0 0 0-.116-.231.513.513 0 0 0-.217-.15.867.867 0 0 0-.332-.056.894.894 0 0 0-.336.056.516.516 0 0 0-.214.15.567.567 0 0 0-.115.231 1.215 1.215 0 0 0 .003.585c.028.086.07.162.126.227a.63.63 0 0 0 .217.151.825.825 0 0 0 .319.056Zm0-3.602a.65.65 0 0 0-.277.053.52.52 0 0 0-.287.336.853.853 0 0 0-.031.231c0 .089.008.175.024.259a.595.595 0 0 0 .091.224.477.477 0 0 0 .182.157c.077.04.176.06.298.06.121 0 .22-.02.297-.06a.477.477 0 0 0 .182-.157.595.595 0 0 0 .091-.224 1.3 1.3 0 0 0 .025-.259.853.853 0 0 0-.032-.231.496.496 0 0 0-.105-.196.498.498 0 0 0-.185-.14.64.64 0 0 0-.273-.053Zm.962 1.705a1.5 1.5 0 0 1 .389.199 1.074 1.074 0 0 1 .42.613c.032.121.049.251.049.388 0 .229-.045.437-.133.623a1.35 1.35 0 0 1-.371.48c-.159.131-.35.232-.574.304a2.385 2.385 0 0 1-.742.109c-.27 0-.518-.036-.742-.109a1.754 1.754 0 0 1-.578-.304 1.404 1.404 0 0 1-.37-.48 1.463 1.463 0 0 1-.13-.623c0-.137.016-.267.049-.388.032-.124.083-.237.15-.34.07-.102.159-.193.266-.273.11-.079.24-.145.392-.199a1.147 1.147 0 0 1-.518-.434 1.264 1.264 0 0 1-.171-.672c0-.198.04-.382.122-.55.082-.17.196-.317.343-.441a1.65 1.65 0 0 1 .522-.29c.203-.072.424-.109.665-.109.24 0 .46.037.661.109.203.07.378.167.525.29.147.124.262.271.343.441.082.168.123.352.123.55 0 .261-.057.485-.172.672a1.147 1.147 0 0 1-.518.434Z" fill="#000"/><rect x=".5" y="164" width="11" height="11" rx="1" fill="#369EB3"/><rect x=".5" y="164" width="11" height="11" rx="1" stroke="#369EB3"/><path d="M5.275 168.958c0 .509.236.763.707.763.231 0 .409-.069.532-.207.126-.14.19-.325.19-.556a.877.877 0 0 0-.057-.326.626.626 0 0 0-.381-.381.866.866 0 0 0-.298-.049c-.11 0-.207.02-.294.059a.64.64 0 0 0-.353.399.94.94 0 0 0-.046.298Zm.868 1.61.095-.116a1.51 1.51 0 0 0 .084-.112 1.524 1.524 0 0 1-.732.172c-.165 0-.331-.029-.497-.088a1.362 1.362 0 0 1-.451-.273 1.39 1.39 0 0 1-.326-.458 1.568 1.568 0 0 1-.126-.655 1.645 1.645 0 0 1 .49-1.193c.159-.154.348-.275.567-.364.22-.091.465-.137.735-.137.276 0 .522.042.739.126a1.514 1.514 0 0 1 .896.896c.081.208.122.438.122.69 0 .334-.05.632-.15.896-.1.264-.235.512-.403.745l-1.099 1.561a.56.56 0 0 1-.224.172.768.768 0 0 1-.336.07h-1l1.616-1.932Z" fill="#000"/><rect x=".5" y="182" width="11" height="11" rx="1" fill="#369EB3"/><rect x=".5" y="182" width="11" height="11" rx="1" stroke="#369EB3"/><path d="M5.67 189.716v.784H2.765v-.784h.98v-2.573a5.541 5.541 0 0 1 .014-.399l-.58.483a.352.352 0 0 1-.155.074.469.469 0 0 1-.14 0 .375.375 0 0 1-.119-.046.272.272 0 0 1-.077-.07l-.343-.455 1.59-1.333h.895v4.319h.84Zm4.197-1.768c0 .446-.047.832-.143 1.159a2.359 2.359 0 0 1-.399.812 1.58 1.58 0 0 1-.602.479 1.782 1.782 0 0 1-.753.158c-.27 0-.521-.052-.752-.158a1.594 1.594 0 0 1-.595-.479 2.398 2.398 0 0 1-.396-.812 4.249 4.249 0 0 1-.14-1.159c0-.445.047-.831.14-1.158.096-.327.228-.597.396-.812.168-.215.366-.373.595-.476.231-.105.482-.158.753-.158.27 0 .521.053.752.158.233.103.434.261.602.476.17.215.303.485.399.812.096.327.143.713.143 1.158Zm-1.12 0c0-.352-.022-.64-.066-.864a1.741 1.741 0 0 0-.178-.532.624.624 0 0 0-.249-.263.603.603 0 0 0-.283-.073.603.603 0 0 0-.284.073.633.633 0 0 0-.245.263c-.07.128-.127.306-.171.532a4.839 4.839 0 0 0-.064.864c0 .355.022.644.064.868.044.224.101.402.171.532a.649.649 0 0 0 .245.266c.093.047.188.07.284.07.095 0 .19-.023.283-.07a.64.64 0 0 0 .248-.266 1.78 1.78 0 0 0 .179-.532c.044-.224.067-.513.067-.868Z" fill="#000"/><rect x=".5" y="200" width="11" height="11" rx="1" fill="#369EB3"/><rect x=".5" y="200" width="11" height="11" rx="1" stroke="#369EB3"/><path d="M5.67 207.716v.784H2.765v-.784h.98v-2.573a5.541 5.541 0 0 1 .014-.399l-.58.483a.352.352 0 0 1-.155.074.469.469 0 0 1-.14 0 .375.375 0 0 1-.119-.046.272.272 0 0 1-.077-.07l-.343-.455 1.59-1.333h.895v4.319h.84Zm3.956 0v.784H6.721v-.784h.98v-2.573a5.541 5.541 0 0 1 .014-.399l-.581.483a.352.352 0 0 1-.154.074.469.469 0 0 1-.14 0 .375.375 0 0 1-.119-.046.272.272 0 0 1-.077-.07l-.343-.455 1.589-1.333h.896v4.319h.84Z" fill="#000"/><rect x=".5" y="218" width="11" height="11" rx="1" fill="#369EB3"/><rect x=".5" y="218" width="11" height="11" rx="1" stroke="#369EB3"/><path d="M5.67 225.716v.784H2.765v-.784h.98v-2.573a5.541 5.541 0 0 1 .014-.399l-.58.483a.352.352 0 0 1-.155.074.469.469 0 0 1-.14 0 .375.375 0 0 1-.119-.046.272.272 0 0 1-.077-.07l-.343-.455 1.59-1.333h.895v4.319h.84Zm3.694-.196c.116 0 .208.033.276.098a.328.328 0 0 1 .101.252v.63H6.159v-.35c0-.068.013-.14.041-.217a.523.523 0 0 1 .147-.21l1.47-1.481a4.94 4.94 0 0 0 .33-.36 2.25 2.25 0 0 0 .23-.336 1.341 1.341 0 0 0 .182-.686c0-.203-.049-.358-.146-.466-.096-.109-.243-.164-.442-.164a.652.652 0 0 0-.636.444c-.05.129-.114.214-.193.256-.08.042-.192.051-.34.028l-.574-.102a1.94 1.94 0 0 1 .214-.665c.107-.189.24-.346.396-.472.158-.126.339-.219.542-.28.203-.063.421-.095.655-.095.252 0 .478.038.678.112.204.073.376.174.518.305.143.131.251.287.326.469.077.18.116.378.116.595 0 .187-.027.359-.081.518a2.02 2.02 0 0 1-.213.455 3.233 3.233 0 0 1-.319.416 11.29 11.29 0 0 1-.381.406l-.998 1.022c.128-.039.256-.07.382-.091.126-.021.242-.031.35-.031h.951Z" fill="#000"/><rect x=".5" y="236" width="11" height="11" rx="1" fill="#369EB3"/><rect x=".5" y="236" width="11" height="11" rx="1" stroke="#369EB3"/><path d="M5.67 243.716v.784H2.765v-.784h.98v-2.573a5.541 5.541 0 0 1 .014-.399l-.58.483a.352.352 0 0 1-.155.074.469.469 0 0 1-.14 0 .375.375 0 0 1-.119-.046.272.272 0 0 1-.077-.07l-.343-.455 1.59-1.333h.895v4.319h.84Zm.585-2.86a1.94 1.94 0 0 1 .214-.665c.107-.189.24-.346.395-.472.16-.126.34-.219.543-.28.203-.063.421-.095.655-.095.252 0 .476.037.671.109.197.07.362.166.497.287a1.237 1.237 0 0 1 .413.927c0 .161-.016.304-.048.427a.972.972 0 0 1-.148.319.88.88 0 0 1-.237.227 1.465 1.465 0 0 1-.323.154c.565.199.848.584.848 1.155 0 .271-.05.507-.147.707a1.44 1.44 0 0 1-.396.501 1.695 1.695 0 0 1-.57.301 2.354 2.354 0 0 1-.68.098 2.49 2.49 0 0 1-.647-.077 1.536 1.536 0 0 1-.504-.245 1.67 1.67 0 0 1-.389-.427 2.916 2.916 0 0 1-.287-.616l.483-.196a.606.606 0 0 1 .35-.039.33.33 0 0 1 .231.161c.106.194.216.335.333.424a.692.692 0 0 0 .417.129.761.761 0 0 0 .314-.059.702.702 0 0 0 .224-.158.65.65 0 0 0 .137-.22.713.713 0 0 0 .046-.249c0-.109-.009-.207-.025-.294a.38.38 0 0 0-.126-.227.714.714 0 0 0-.319-.144 2.556 2.556 0 0 0-.587-.052v-.749c.212 0 .383-.016.514-.049a.792.792 0 0 0 .301-.133.41.41 0 0 0 .144-.21.984.984 0 0 0 .034-.27c0-.2-.049-.354-.146-.462-.096-.109-.243-.164-.441-.164a.652.652 0 0 0-.637.444c-.05.129-.114.214-.193.256-.08.042-.192.051-.34.028l-.574-.102Z" fill="#000"/><rect x=".5" y="254" width="11" height="11" rx="1" fill="#369EB3"/><rect x=".5" y="254" width="11" height="11" rx="1" stroke="#369EB3"/><path d="M5.67 261.716v.784H2.765v-.784h.98v-2.573a5.541 5.541 0 0 1 .014-.399l-.58.483a.352.352 0 0 1-.155.074.469.469 0 0 1-.14 0 .375.375 0 0 1-.119-.046.272.272 0 0 1-.077-.07l-.343-.455 1.59-1.333h.895v4.319h.84Zm2.71-1.197v-1.33a5.3 5.3 0 0 1 .007-.263c.007-.095.016-.194.028-.297l-1.347 1.89H8.38Zm1.47 0v.609c0 .054-.019.1-.056.14-.035.04-.086.059-.154.059h-.315v1.173H8.38v-1.173H6.329a.302.302 0 0 1-.185-.063.269.269 0 0 1-.102-.157l-.112-.535 2.359-3.172h1.036v3.119h.525Z" fill="#000"/><rect x=".5" y="272" width="11" height="11" rx="1" fill="#369EB3"/><rect x=".5" y="272" width="11" height="11" rx="1" stroke="#369EB3"/><path d="M5.67 279.716v.784H2.765v-.784h.98v-2.573a5.541 5.541 0 0 1 .014-.399l-.58.483a.352.352 0 0 1-.155.074.469.469 0 0 1-.14 0 .375.375 0 0 1-.119-.046.272.272 0 0 1-.077-.07l-.343-.455 1.59-1.333h.895v4.319h.84Zm1.832-2.52c.095-.019.187-.032.276-.039.089-.007.175-.01.259-.01.268 0 .505.041.71.122.206.082.379.194.518.336.14.14.245.306.316.497.072.189.108.392.108.609 0 .273-.049.523-.147.749a1.73 1.73 0 0 1-.402.581c-.173.164-.38.291-.62.382-.238.089-.5.133-.784.133a2.11 2.11 0 0 1-.476-.052 2.466 2.466 0 0 1-.423-.141 2.435 2.435 0 0 1-.364-.206 2.472 2.472 0 0 1-.305-.252l.336-.448a.34.34 0 0 1 .123-.105.304.304 0 0 1 .15-.039c.07 0 .135.02.196.06.063.037.13.079.203.126.075.044.161.085.259.122.098.038.22.056.364.056a.887.887 0 0 0 .371-.07.67.67 0 0 0 .248-.196.778.778 0 0 0 .14-.29 1.36 1.36 0 0 0 .046-.357c0-.247-.07-.435-.21-.564-.14-.13-.338-.196-.595-.196-.229 0-.453.044-.672.13l-.672-.182.434-2.552H9.5v.448a.558.558 0 0 1-.035.203.412.412 0 0 1-.112.161.503.503 0 0 1-.196.105c-.082.024-.18.035-.294.035H7.645l-.143.844Z" fill="#000"/><rect x=".5" y="290" width="11" height="11" rx="1" fill="#369EB3"/><rect x=".5" y="290" width="11" height="11" rx="1" stroke="#369EB3"/><path d="M5.67 297.716v.784H2.765v-.784h.98v-2.573a5.541 5.541 0 0 1 .014-.399l-.58.483a.352.352 0 0 1-.155.074.469.469 0 0 1-.14 0 .375.375 0 0 1-.119-.046.272.272 0 0 1-.077-.07l-.343-.455 1.59-1.333h.895v4.319h.84Zm2.3-.018a.766.766 0 0 0 .312-.063.77.77 0 0 0 .252-.171.834.834 0 0 0 .164-.259.97.97 0 0 0 .004-.676.702.702 0 0 0-.161-.259.71.71 0 0 0-.255-.161.925.925 0 0 0-.33-.056.74.74 0 0 0-.538.224.806.806 0 0 0-.155.259 1.167 1.167 0 0 0-.01.679c.03.101.077.187.14.259a.615.615 0 0 0 .238.168.918.918 0 0 0 .34.056Zm-.175-2.338a1.58 1.58 0 0 1 .546-.091c.185 0 .367.031.546.091a1.38 1.38 0 0 1 .827.76c.088.191.133.418.133.679 0 .238-.045.464-.133.679a1.7 1.7 0 0 1-.963.938c-.229.093-.482.14-.76.14a2.08 2.08 0 0 1-.766-.133 1.678 1.678 0 0 1-.577-.378 1.65 1.65 0 0 1-.361-.578 2.14 2.14 0 0 1-.122-.738c0-.502.193-1.012.58-1.53l1.149-1.55a.652.652 0 0 1 .23-.175.803.803 0 0 1 .35-.074h.966l-1.511 1.806-.134.154Z" fill="#000"/></svg>