<svg width="555" height="179" fill="none" xmlns="http://www.w3.org/2000/svg"><path fill-rule="evenodd" clip-rule="evenodd" d="m98.714 26.25 37.591 25.54V.406H10.697C4.767.405 0 5.137 0 11.022v99.01l25.733 7.22c1.345.364 2.69-.425 3.117-1.699l6.418-23.054c.428-1.638 2.384-2.366 3.85-1.395l61.552 42.043c2.323 1.577.611 5.217-2.078 4.428L51.16 124.41c-1.344-.364-2.75.425-3.056 1.76l-6.296 23.054c-.428 1.638-2.445 2.366-3.85 1.395L0 124.532v53.873h124.753c6.357 0 11.491-5.157 11.491-11.406V66.594l-25.427-7.038a2.495 2.495 0 0 0-3.057 1.699l-6.601 23.114c-.489 1.638-2.384 2.306-3.85 1.396L35.695 43.66c-2.323-1.577-.611-5.217 2.078-4.429l47.432 13.165a2.494 2.494 0 0 0 3.056-1.698l6.601-23.115c.49-1.577 2.384-2.305 3.851-1.334Zm129.704-2.262-19.315.981c0-2.638-.795-4.662-2.323-6.196-1.528-1.534-3.667-2.27-6.418-2.27-2.322 0-4.217.552-5.623 1.718-1.406 1.166-2.078 2.76-2.078 4.785 0 1.84.794 3.252 2.445 4.233 1.772.92 5.012 1.963 9.718 3.13 8.558 2.269 14.792 5.091 18.765 8.404 3.973 3.313 5.929 7.914 5.929 13.742 0 7.73-2.567 13.559-7.763 17.485-5.256 3.865-11.857 5.828-19.803 5.828-9.108 0-16.443-2.147-22.066-6.503-5.562-4.417-8.313-10.552-8.252-18.405l19.315-.981c-.061 2.822.917 5.092 2.995 6.81 2.079 1.717 4.707 2.576 8.008 2.576 5.501 0 8.251-1.963 8.251-5.89 0-1.717-.978-3.19-2.812-4.355-1.894-1.227-5.073-2.393-9.596-3.62-7.212-1.779-12.897-4.049-17.053-6.81-4.89-3.19-7.335-8.282-7.335-15.153 0-6.81 2.261-12.454 6.846-16.81C184.898 2.21 191.499 0 200.057 0c8.496 0 15.342 2.147 20.598 6.38 5.012 4.295 7.641 10.123 7.763 17.608Zm65.708-22.822h18.826v42.331c0 10.184-2.873 18.098-8.619 23.804-5.684 5.705-13.569 8.589-23.716 8.589-10.207 0-18.153-2.884-23.899-8.59-5.746-5.705-8.618-13.619-8.618-23.803V1.166h18.948V43.19c0 10.552 4.523 15.829 13.63 15.829 9.047 0 13.509-5.277 13.509-15.829V1.166h-.061Zm101.525 73.619h-21.393l-13.019-24.601h-8.007v24.601h-18.948V1.165h33.128c7.519 0 13.448 2.21 17.848 6.565 4.401 4.356 6.541 10.368 6.541 17.976 0 10.06-3.668 17.116-11.003 21.226l14.853 27.853Zm-42.419-56.81v15.338h11.98c2.323 0 4.156-.675 5.501-2.086 1.284-1.35 1.956-3.252 1.956-5.583 0-2.331-.672-4.233-1.956-5.583-1.284-1.35-3.117-2.086-5.501-2.086h-11.98Zm96.269 14.847h35.757v6.074c0 10.981-3.178 19.816-9.596 26.687-6.418 6.81-15.036 10.245-25.978 10.245-11.185 0-20.354-3.435-27.566-10.245-7.029-6.749-10.574-15.951-10.574-27.669 0-11.656 3.545-20.92 10.574-27.669C429.33 3.435 438.499 0 449.684 0c8.68 0 16.137 2.209 22.249 6.564 6.113 4.356 10.33 10.43 12.531 18.221l-19.621 3.252c-2.323-7.485-7.457-11.227-15.403-11.227-5.99 0-10.635 1.779-13.814 5.337-3.178 3.559-4.829 8.773-4.829 15.767 0 6.933 1.59 12.209 4.829 15.767 3.179 3.558 7.824 5.337 13.814 5.337 7.274 0 12.102-3.129 14.609-9.325H449.44v-16.87h.061ZM553.166 1.166v16.81h-29.094v11.042h24.877V45.46h-24.877v12.515h29.217v16.81h-48.104V1.165h47.981Z" fill="#369EB3"/><path fill-rule="evenodd" clip-rule="evenodd" d="M188.871 112.945v6.012h-10.452v3.865h8.313v6.012h-8.313v10.491h-6.785v-26.38h17.237Zm24.877 26.38h-7.64l-4.707-8.834h-2.872v8.834h-6.785v-26.38h11.919c2.689 0 4.829.797 6.418 2.331 1.589 1.595 2.384 3.742 2.384 6.442 0 3.619-1.345 6.135-3.912 7.607l5.195 10Zm-15.281-20.368v5.522h4.279c.856 0 1.528-.246 1.956-.737.489-.49.672-1.165.672-2.024s-.244-1.534-.672-2.025c-.489-.49-1.1-.736-1.956-.736h-4.279Zm35.085-6.012v6.012H223.1v3.926h8.924v5.89H223.1v4.479h10.452v6.012h-17.298v-26.381h17.298v.062Zm20.599 0v6.012h-10.452v3.926h8.924v5.89h-8.924v4.479h10.452v6.012h-17.298v-26.381h17.298v.062Zm34.473 22.024-3.545 4.724-3.912-3.19c-2.139 2.147-4.828 3.19-7.946 3.19-3.117 0-5.562-.736-7.273-2.208-1.651-1.473-2.506-3.313-2.506-5.583 0-2.761 1.283-5.031 3.789-6.871-1.283-1.534-1.956-3.068-1.956-4.724 0-2.454.795-4.356 2.384-5.706 1.589-1.349 3.729-2.024 6.418-2.024 2.323 0 4.34.613 5.868 1.902 1.589 1.288 2.567 3.006 2.934 5.214l-6.602.552c-.183-1.472-.916-2.208-2.261-2.208-.611 0-1.161.184-1.467.552-.367.368-.55.92-.55 1.595 0 .736.305 1.35.856 1.963l.122.123.122.123c0 .061.061.061.061.122l.122.123.184.184c.183.184.305.246.367.307.489.368.733.552.794.613l4.829 3.927c.305-.859.611-1.963.917-3.374l5.99 1.533c-.55 2.148-1.223 4.049-2.017 5.767l4.278 3.374Zm-15.281-.981c1.162 0 2.262-.368 3.24-1.166l-5.134-4.172c-.734.675-1.101 1.534-1.101 2.7 0 .859.245 1.472.795 1.963.55.429 1.284.675 2.2.675Zm36.369-21.473c4.095 0 7.457 1.227 9.963 3.743 2.628 2.454 3.912 5.767 3.912 9.877s-1.284 7.362-3.912 9.877c-2.567 2.454-5.868 3.681-9.963 3.681-4.156 0-7.518-1.227-10.085-3.681-2.568-2.515-3.851-5.828-3.851-9.877 0-4.11 1.283-7.362 3.851-9.877 2.567-2.454 5.929-3.743 10.085-3.743Zm0 6.074c-2.139 0-3.851.675-5.134 2.025-1.284 1.349-1.895 3.19-1.895 5.521s.611 4.172 1.895 5.521c1.283 1.35 2.995 2.025 5.134 2.025 2.139 0 3.851-.675 5.073-2.025 1.284-1.349 1.895-3.19 1.895-5.521s-.611-4.172-1.895-5.521c-1.222-1.35-2.934-2.025-5.073-2.025Zm17.053 20.736v-26.38h12.042c2.689 0 4.828.797 6.418 2.392 1.589 1.596 2.383 3.743 2.383 6.442 0 2.7-.794 4.847-2.383 6.442-1.59 1.534-3.668 2.331-6.357 2.331h-5.257v8.773h-6.846Zm11.186-20.368h-4.401v5.583h4.401c.795 0 1.467-.245 1.956-.736.489-.491.733-1.166.733-2.025s-.244-1.534-.733-2.024c-.489-.552-1.161-.798-1.956-.798Zm29.156-6.012v6.012h-10.452v3.926h8.924v5.89h-8.924v4.479h10.452v6.012h-17.298v-26.381h17.298v.062Zm3.423-.552 15.036 12.883v-12.331h6.785v26.932l-15.037-12.822v12.27h-6.784v-26.932Zm52.077 8.711-6.907.368c0-.92-.306-1.656-.856-2.208-.55-.552-1.345-.798-2.323-.798-.855 0-1.528.184-2.017.614-.489.429-.733.981-.733 1.718 0 .674.305 1.165.856 1.533.611.307 1.772.736 3.484 1.105 3.056.797 5.317 1.84 6.723 3.006 1.406 1.165 2.14 2.822 2.14 4.908 0 2.76-.917 4.846-2.751 6.257-1.895 1.411-4.218 2.086-7.09 2.086-3.24 0-5.868-.797-7.885-2.331-2.017-1.595-2.995-3.804-2.934-6.626l6.907-.368c0 1.043.305 1.841 1.1 2.454.733.614 1.711.92 2.873.92 1.956 0 2.934-.736 2.934-2.147 0-.613-.367-1.166-1.039-1.595-.673-.429-1.834-.859-3.423-1.288-2.567-.614-4.646-1.473-6.113-2.454-1.772-1.166-2.628-2.945-2.628-5.46 0-2.454.795-4.479 2.445-6.013 1.65-1.595 4.034-2.392 7.09-2.392s5.501.736 7.396 2.27c1.773 1.656 2.69 3.742 2.751 6.441Zm16.503-8.589c4.095 0 7.457 1.227 9.963 3.743 2.629 2.454 3.912 5.767 3.912 9.877s-1.283 7.362-3.912 9.877c-2.567 2.454-5.868 3.681-9.963 3.681-4.156 0-7.518-1.227-10.085-3.681-2.567-2.515-3.851-5.828-3.851-9.877 0-4.11 1.284-7.362 3.851-9.877 2.567-2.454 5.929-3.743 10.085-3.743Zm0 6.074c-2.139 0-3.851.675-5.134 2.025-1.284 1.349-1.895 3.19-1.895 5.521s.611 4.172 1.895 5.521c1.283 1.35 2.995 2.025 5.134 2.025 2.139 0 3.851-.675 5.073-2.025 1.284-1.349 1.895-3.19 1.895-5.521s-.611-4.172-1.895-5.521c-1.283-1.35-2.934-2.025-5.073-2.025Zm33.373-5.644h6.724v15.153c0 3.62-1.039 6.503-3.117 8.528-2.017 2.024-4.89 3.067-8.497 3.067-3.667 0-6.54-1.043-8.557-3.067-2.078-2.025-3.117-4.908-3.117-8.528v-15.153h6.785v15.092c0 3.804 1.65 5.705 4.889 5.705 3.24 0 4.829-1.901 4.829-5.705v-15.092h.061Zm32.518 26.38h-7.64l-4.707-8.834h-2.873v8.834h-6.784v-26.38h11.919c2.689 0 4.828.797 6.418 2.331 1.589 1.595 2.383 3.742 2.383 6.442 0 3.619-1.344 6.135-3.912 7.607l5.196 10Zm-15.22-20.368v5.522h4.279c.856 0 1.528-.246 1.956-.737.489-.49.672-1.165.672-2.024s-.244-1.534-.672-2.025c-.489-.49-1.1-.736-1.956-.736h-4.279Zm30.684-6.442c3.301 0 6.113.921 8.496 2.761 2.384 1.841 3.79 4.356 4.279 7.423l-7.09.675c-.734-3.251-2.751-4.846-5.929-4.846-1.956 0-3.545.674-4.707 2.086-1.161 1.349-1.772 3.19-1.772 5.46 0 2.392.611 4.233 1.772 5.582 1.223 1.35 2.751 2.025 4.707 2.025 1.589 0 2.873-.429 3.912-1.227 1.039-.798 1.711-2.025 2.017-3.558l7.09.613c-.489 3.129-1.895 5.644-4.279 7.546-2.322 1.841-5.195 2.761-8.496 2.761-4.034 0-7.334-1.227-9.902-3.681-2.506-2.454-3.789-5.706-3.789-9.939 0-4.171 1.283-7.484 3.789-9.938 2.629-2.516 5.929-3.743 9.902-3.743Zm33.068.43v6.012h-10.452v3.926h8.924v5.89h-8.924v4.479h10.452v6.012h-17.298v-26.381h17.298v.062ZM194.005 151.35v26.38h-6.784v-10.429h-8.802v10.429h-6.785v-26.38h6.785v9.938h8.802v-9.938h6.784Zm28.178 0-9.963 16.748v9.693h-6.784v-9.693l-9.964-16.748h7.885l5.501 9.938 5.502-9.938h7.823Zm1.406 26.441v-26.38h11.736c2.628 0 4.645.614 6.173 1.902 1.528 1.288 2.262 3.129 2.262 5.583 0 1.902-.734 3.558-2.139 4.969.978.491 1.711 1.288 2.322 2.331.55 1.043.856 2.27.856 3.681 0 2.516-.795 4.417-2.384 5.829-1.589 1.411-3.728 2.085-6.418 2.085h-12.408Zm10.941-20.429h-4.156v3.988h4.095c1.589 0 2.384-.675 2.384-1.963 0-1.35-.795-2.025-2.323-2.025Zm.673 9.816h-4.768v4.54h4.829c1.772 0 2.628-.736 2.628-2.27-.061-1.534-.917-2.27-2.689-2.27Zm34.534 10.613h-7.64l-4.707-8.834h-2.873v8.834h-6.784v-26.38h11.919c2.689 0 4.829.798 6.418 2.331 1.589 1.595 2.384 3.743 2.384 6.442 0 3.62-1.345 6.135-3.912 7.607l5.195 10Zm-15.219-20.429v5.521h4.278c.856 0 1.528-.245 1.956-.736.489-.491.672-1.165.672-2.024s-.244-1.534-.672-2.025c-.489-.491-1.1-.736-1.956-.736h-4.278Zm24.143-6.012v26.38h-6.785v-26.38h6.785Zm3.484 26.441v-26.38h11.125c3.912 0 7.09 1.166 9.596 3.558 2.506 2.332 3.729 5.583 3.729 9.632 0 4.049-1.223 7.301-3.729 9.632-2.506 2.393-5.684 3.558-9.596 3.558h-11.125Zm11.247-20.552h-4.462v14.663h4.462c2.078 0 3.667-.614 4.829-1.841 1.1-1.227 1.711-3.067 1.711-5.46 0-2.454-.55-4.233-1.711-5.46-1.162-1.288-2.751-1.902-4.829-1.902Zm41.87 2.332-6.907.368c0-.921-.306-1.657-.856-2.209s-1.345-.797-2.323-.797c-.855 0-1.528.184-2.017.613-.489.429-.733.982-.733 1.718 0 .675.305 1.165.856 1.534.611.306 1.772.736 3.484 1.104 3.056.797 5.317 1.84 6.723 3.006 1.406 1.166 2.139 2.822 2.139 4.908 0 2.761-.916 4.847-2.75 6.258-1.895 1.411-4.218 2.086-7.09 2.086-3.24 0-5.868-.798-7.885-2.332-2.017-1.595-2.995-3.803-2.934-6.625l6.907-.369c0 1.043.305 1.841 1.1 2.454.733.614 1.711.921 2.873.921 1.956 0 2.934-.737 2.934-2.148 0-.613-.367-1.165-1.039-1.595-.673-.429-1.834-.859-3.423-1.288-2.568-.614-4.646-1.472-6.113-2.454-1.772-1.166-2.628-2.945-2.628-5.46 0-2.454.795-4.479 2.445-6.012 1.65-1.596 4.034-2.393 7.09-2.393s5.501.736 7.396 2.27c1.773 1.656 2.69 3.742 2.751 6.442Zm27.566-8.221-9.963 16.748v9.693h-6.784v-9.693l-9.964-16.748h7.885l5.501 9.938 5.502-9.938h7.823Zm1.467-.552 15.036 12.883V151.35h6.785v26.932L371.08 165.46v12.331h-6.785v-26.993Zm46.882.552v6.012h-8.191v20.368h-6.785v-20.368h-8.251v-6.012h23.227Zm24.205 0v26.38h-6.785v-10.429h-8.802v10.429h-6.785v-26.38h6.785v9.938h8.802v-9.938h6.785Zm20.72 0v6.012H445.65v3.926h8.924v5.89h-8.924v4.478h10.452v6.013h-17.237v-26.381h17.237v.062Zm22.433 8.221-6.907.368c0-.921-.306-1.657-.856-2.209s-1.345-.797-2.323-.797c-.855 0-1.528.184-2.017.613-.489.429-.733.982-.733 1.718 0 .675.305 1.165.855 1.534.612.306 1.773.736 3.485 1.104 3.056.797 5.317 1.84 6.723 3.006 1.406 1.166 2.139 2.822 2.139 4.908 0 2.761-.916 4.847-2.75 6.258-1.895 1.411-4.218 2.086-7.09 2.086-3.24 0-5.868-.798-7.885-2.332-2.017-1.595-2.995-3.803-2.934-6.625l6.907-.369c0 1.043.305 1.841 1.1 2.454.733.614 1.711.921 2.873.921 1.956 0 2.934-.737 2.934-2.148 0-.613-.367-1.165-1.039-1.595-.673-.429-1.834-.859-3.423-1.288-2.568-.614-4.646-1.472-6.113-2.454-1.772-1.166-2.628-2.945-2.628-5.46 0-2.454.795-4.479 2.445-6.012 1.65-1.596 4.034-2.393 7.09-2.393s5.501.736 7.396 2.27c1.773 1.656 2.751 3.742 2.751 6.442Zm9.718-8.221v26.38h-6.784v-26.38h6.784Zm22.249 0-10.024 20.368h9.902v6.012h-20.11l10.025-20.368h-9.658v-6.012h19.865Zm19.499 0v6.012h-10.453v3.926h8.924v5.89h-8.924v4.478h10.453v6.013h-17.298v-26.381h17.298v.062ZM555 177.791h-7.64l-4.707-8.834h-2.873v8.834h-6.784v-26.38h11.919c2.689 0 4.828.798 6.418 2.331 1.589 1.595 2.383 3.743 2.383 6.442 0 3.62-1.344 6.135-3.911 7.607l5.195 10Zm-15.22-20.429v5.521h4.279c.856 0 1.528-.245 1.956-.736.489-.491.672-1.165.672-2.024s-.244-1.534-.672-2.025c-.489-.491-1.1-.736-1.956-.736h-4.279Z" fill="#B4B4B4"/></svg>