<svg width="47" height="20" fill="none" xmlns="http://www.w3.org/2000/svg"><path d="M4.781 5.032h.216c.2 0 .344-.063.432-.188L6.741 2.94a.632.632 0 0 1 .248-.208.835.835 0 0 1 .336-.06h1.176L6.773 5.028c-.122.163-.254.28-.396.352.102.037.194.09.276.156.083.067.16.153.232.26L8.645 8.5H7.437c-.077 0-.144-.005-.2-.016a.508.508 0 0 1-.14-.048.436.436 0 0 1-.104-.076.89.89 0 0 1-.084-.108L5.59 6.224a.384.384 0 0 0-.184-.156.744.744 0 0 0-.296-.048h-.328V8.5H3.43V2.672h1.352v2.36Zm5.537-1.32v1.36h1.832v1h-1.832V7.46h2.392V8.5H8.958V2.672h3.752v1.04h-2.392Zm5.898 2.572V8.5h-1.352V6.284l-2.112-3.612h1.192c.117 0 .209.028.276.084a.644.644 0 0 1 .172.208l.824 1.696c.069.133.132.259.188.376.056.115.105.228.148.34a4.585 4.585 0 0 1 .32-.716l.816-1.696a.77.77 0 0 1 .068-.104.5.5 0 0 1 .216-.16.427.427 0 0 1 .156-.028h1.2l-2.112 3.612Zm6.635-2.54h-1.64V8.5H19.86V3.744h-1.64V2.672h4.632v1.072Zm2.463 1.668c.184 0 .34-.023.468-.068a.868.868 0 0 0 .32-.196.743.743 0 0 0 .18-.288 1.14 1.14 0 0 0 .056-.36c0-.256-.084-.456-.252-.6-.165-.144-.423-.216-.772-.216h-.544v1.728h.544ZM28.186 8.5h-1.224c-.227 0-.39-.085-.488-.256l-.968-1.692a.45.45 0 0 0-.152-.156.458.458 0 0 0-.24-.052h-.344V8.5h-1.352V2.672h1.896c.421 0 .78.044 1.076.132.299.085.541.205.728.36.19.155.327.337.412.548.085.21.128.44.128.688 0 .19-.025.368-.076.536-.05.168-.125.324-.224.468a1.711 1.711 0 0 1-.368.38 1.92 1.92 0 0 1-.5.276c.088.045.17.103.248.172.077.067.147.147.208.24l1.24 2.028Zm3.45-2.228-.54-1.596a7.043 7.043 0 0 1-.128-.356c-.046-.139-.09-.288-.136-.448a6.315 6.315 0 0 1-.256.812l-.536 1.588h1.596ZM33.784 8.5h-1.048a.466.466 0 0 1-.284-.08.536.536 0 0 1-.164-.212l-.344-1.016h-2.216l-.344 1.016a.495.495 0 0 1-.16.204.44.44 0 0 1-.28.088h-1.056l2.256-5.828h1.384L33.784 8.5Zm4.072-1.508c.032 0 .064.007.096.02.032.01.063.03.092.06l.536.564a2.24 2.24 0 0 1-.884.696c-.352.155-.77.232-1.252.232a3.03 3.03 0 0 1-1.192-.224 2.636 2.636 0 0 1-.892-.624 2.788 2.788 0 0 1-.56-.944 3.502 3.502 0 0 1-.196-1.188c0-.435.07-.833.212-1.196a2.678 2.678 0 0 1 1.516-1.56 3.07 3.07 0 0 1 1.18-.22c.219 0 .424.02.616.06a2.811 2.811 0 0 1 1.008.404c.141.096.267.2.376.312l-.456.612a.642.642 0 0 1-.104.104.28.28 0 0 1-.168.044.3.3 0 0 1-.136-.032 1.837 1.837 0 0 1-.136-.076 3.533 3.533 0 0 0-.16-.1 1.495 1.495 0 0 0-.48-.18 1.853 1.853 0 0 0-.368-.032c-.224 0-.43.041-.616.124a1.352 1.352 0 0 0-.48.364 1.692 1.692 0 0 0-.312.584c-.072.23-.108.492-.108.788 0 .299.04.564.12.796.083.232.193.428.332.588a1.44 1.44 0 0 0 1.092.484c.123 0 .235-.005.336-.016a1.306 1.306 0 0 0 .532-.172c.077-.048.156-.108.236-.18a.42.42 0 0 1 .104-.064.256.256 0 0 1 .116-.028Zm2.546-1.96h.216c.2 0 .344-.063.432-.188l1.312-1.904a.632.632 0 0 1 .248-.208c.09-.04.203-.06.336-.06h1.176l-1.728 2.356c-.122.163-.254.28-.396.352.102.037.194.09.276.156.083.067.16.153.232.26l1.76 2.704h-1.208c-.077 0-.144-.005-.2-.016a.508.508 0 0 1-.14-.048.435.435 0 0 1-.104-.076.877.877 0 0 1-.084-.108l-1.32-2.028a.384.384 0 0 0-.184-.156.744.744 0 0 0-.296-.048h-.328V8.5H39.05V2.672h1.352v2.36ZM44.5 11h-42a1 1 0 0 0-1 1v6a1 1 0 0 0 1 1h42a1 1 0 0 0 1-1v-6a1 1 0 0 0-1-1Z" fill="#369EB3"/><path d="M44.5 11h-42a1 1 0 0 0-1 1v6a1 1 0 0 0 1 1h42a1 1 0 0 0 1-1v-6a1 1 0 0 0-1-1Z" stroke="#369EB3"/><path d="M4.781 15.032h.216c.2 0 .344-.063.432-.188l1.312-1.904a.632.632 0 0 1 .248-.208.835.835 0 0 1 .336-.06h1.176l-1.728 2.356c-.122.163-.254.28-.396.352a.97.97 0 0 1 .276.156c.083.067.16.153.232.26l1.76 2.704H7.437c-.077 0-.144-.005-.2-.016a.51.51 0 0 1-.14-.048.436.436 0 0 1-.104-.076.89.89 0 0 1-.084-.108l-1.32-2.028a.383.383 0 0 0-.184-.156.744.744 0 0 0-.296-.048h-.328v2.48H3.43v-5.828h1.352v2.36Zm5.537-1.32v1.36h1.832v1h-1.832v1.388h2.392v1.04H8.958v-5.828h3.752v1.04h-2.392Zm5.898 2.572V18.5h-1.352v-2.216l-2.112-3.612h1.192c.117 0 .209.028.276.084a.644.644 0 0 1 .172.208l.824 1.696c.069.133.132.259.188.376.056.115.105.228.148.34a4.585 4.585 0 0 1 .32-.716l.816-1.696a.77.77 0 0 1 .068-.104.5.5 0 0 1 .216-.16.426.426 0 0 1 .156-.028h1.2l-2.112 3.612Zm6.635-2.54h-1.64V18.5H19.86v-4.756h-1.64v-1.072h4.632v1.072Zm2.463 1.668c.184 0 .34-.023.468-.068a.868.868 0 0 0 .32-.196.743.743 0 0 0 .18-.288 1.14 1.14 0 0 0 .056-.36c0-.256-.084-.456-.252-.6-.165-.144-.423-.216-.772-.216h-.544v1.728h.544Zm2.872 3.088h-1.224c-.227 0-.39-.085-.488-.256l-.968-1.692a.45.45 0 0 0-.152-.156.458.458 0 0 0-.24-.052h-.344V18.5h-1.352v-5.828h1.896c.421 0 .78.044 1.076.132.299.085.541.205.728.36.19.155.327.337.412.548.085.21.128.44.128.688 0 .19-.025.368-.076.536-.05.168-.125.324-.224.468a1.712 1.712 0 0 1-.368.38 1.92 1.92 0 0 1-.5.276c.088.045.17.103.248.172.077.067.147.147.208.24l1.24 2.028Zm3.45-2.228-.54-1.596a7.033 7.033 0 0 1-.128-.356c-.046-.139-.09-.288-.136-.448a6.315 6.315 0 0 1-.256.812l-.536 1.588h1.596Zm2.148 2.228h-1.048a.466.466 0 0 1-.284-.08.536.536 0 0 1-.164-.212l-.344-1.016h-2.216l-.344 1.016a.495.495 0 0 1-.16.204.44.44 0 0 1-.28.088h-1.056l2.256-5.828h1.384l2.256 5.828Zm4.072-1.508c.032 0 .064.007.096.02a.24.24 0 0 1 .092.06l.536.564a2.24 2.24 0 0 1-.884.696c-.352.155-.77.232-1.252.232a3.03 3.03 0 0 1-1.192-.224 2.636 2.636 0 0 1-.892-.624 2.788 2.788 0 0 1-.56-.944 3.502 3.502 0 0 1-.196-1.188c0-.435.07-.833.212-1.196a2.678 2.678 0 0 1 1.516-1.56 3.07 3.07 0 0 1 1.18-.22c.219 0 .424.02.616.06a2.811 2.811 0 0 1 1.008.404c.141.096.267.2.376.312l-.456.612a.643.643 0 0 1-.104.104.28.28 0 0 1-.168.044.3.3 0 0 1-.136-.032 1.837 1.837 0 0 1-.136-.076 3.56 3.56 0 0 0-.16-.1 1.493 1.493 0 0 0-.48-.18 1.855 1.855 0 0 0-.368-.032c-.224 0-.43.041-.616.124a1.352 1.352 0 0 0-.48.364 1.692 1.692 0 0 0-.312.584 2.63 2.63 0 0 0-.108.788c0 .299.04.564.12.796.083.232.193.428.332.588a1.44 1.44 0 0 0 1.092.484c.123 0 .235-.005.336-.016a1.306 1.306 0 0 0 .532-.172c.077-.048.156-.108.236-.18a.418.418 0 0 1 .104-.064.256.256 0 0 1 .116-.028Zm2.546-1.96h.216c.2 0 .344-.063.432-.188l1.312-1.904a.632.632 0 0 1 .248-.208c.09-.04.203-.06.336-.06h1.176l-1.728 2.356c-.122.163-.254.28-.396.352a.97.97 0 0 1 .276.156c.083.067.16.153.232.26l1.76 2.704h-1.208a1.08 1.08 0 0 1-.2-.016.51.51 0 0 1-.14-.048.435.435 0 0 1-.104-.076.877.877 0 0 1-.084-.108l-1.32-2.028a.384.384 0 0 0-.184-.156.744.744 0 0 0-.296-.048h-.328v2.48H39.05v-5.828h1.352v2.36Z" fill="#000"/></svg>