<svg width="34" height="47" fill="none" xmlns="http://www.w3.org/2000/svg"><path d="M31 .5H3A2.5 2.5 0 0 0 .5 3v41A2.5 2.5 0 0 0 3 46.5h28a2.5 2.5 0 0 0 2.5-2.5V3A2.5 2.5 0 0 0 31 .5Z" fill="url(#a)"/><path d="M31 1H3a2 2 0 0 0-2 2v10h32V3a2 2 0 0 0-2-2Z" fill="url(#b)"/><defs><linearGradient id="a" x1="17" y1=".5" x2="17" y2="46.5" gradientUnits="userSpaceOnUse"><stop/><stop offset="1" stop-opacity=".25"/></linearGradient><linearGradient id="b" x1="17" y1="1" x2="17" y2="13" gradientUnits="userSpaceOnUse"><stop/><stop offset="1" stop-opacity=".25"/></linearGradient></defs></svg>