<svg width="47" height="20" fill="none" xmlns="http://www.w3.org/2000/svg"><path d="M4.506 5.412c.184 0 .34-.023.468-.068a.868.868 0 0 0 .32-.196.741.741 0 0 0 .18-.288c.038-.112.056-.232.056-.36 0-.256-.084-.456-.252-.6-.165-.144-.422-.216-.772-.216h-.544v1.728h.544ZM7.378 8.5H6.154c-.226 0-.389-.085-.488-.256l-.968-1.692a.45.45 0 0 0-.152-.156.458.458 0 0 0-.24-.052h-.344V8.5H2.61V2.672h1.896c.422 0 .78.044 1.076.132.3.085.542.205.728.36.19.155.327.337.412.548.086.21.128.44.128.688 0 .19-.025.368-.076.536-.05.168-.125.324-.224.468a1.71 1.71 0 0 1-.368.38 1.92 1.92 0 0 1-.5.276c.088.045.171.103.248.172.078.067.147.147.208.24L7.378 8.5Zm1.73-4.788v1.36h1.832v1H9.108V7.46H11.5V8.5H7.748V2.672H11.5v1.04H9.108Zm7.294.032h-1.64V8.5H13.41V3.744h-1.64V2.672h4.632v1.072Zm2.463 1.668c.184 0 .34-.023.468-.068a.868.868 0 0 0 .32-.196.743.743 0 0 0 .18-.288c.038-.112.056-.232.056-.36 0-.256-.084-.456-.252-.6-.165-.144-.422-.216-.772-.216h-.544v1.728h.544ZM21.737 8.5h-1.224c-.227 0-.39-.085-.488-.256l-.968-1.692a.45.45 0 0 0-.152-.156.458.458 0 0 0-.24-.052h-.344V8.5H16.97V2.672h1.896c.422 0 .78.044 1.076.132.299.085.542.205.728.36.19.155.327.337.412.548.085.21.128.44.128.688 0 .19-.025.368-.076.536-.05.168-.125.324-.224.468a1.711 1.711 0 0 1-.368.38 1.92 1.92 0 0 1-.5.276c.088.045.17.103.248.172.077.067.147.147.208.24l1.24 2.028Zm1.73 0h-1.36V2.672h1.36V8.5Zm3.804-3.02h2.072v2.46a3.057 3.057 0 0 1-.956.476 3.729 3.729 0 0 1-1.056.148 3.69 3.69 0 0 1-1.312-.224 3.066 3.066 0 0 1-1.008-.624 2.764 2.764 0 0 1-.648-.944 3.062 3.062 0 0 1-.228-1.188c0-.435.072-.833.216-1.196.144-.365.35-.68.616-.944.27-.264.594-.47.972-.616a3.53 3.53 0 0 1 1.276-.22c.243 0 .471.02.684.06.214.04.41.095.588.164a2.689 2.689 0 0 1 .896.56l-.392.596a.377.377 0 0 1-.24.172c-.096.021-.2-.003-.312-.072a3.486 3.486 0 0 0-.304-.164 1.665 1.665 0 0 0-.288-.116 1.898 1.898 0 0 0-.312-.064 3.062 3.062 0 0 0-.368-.02c-.253 0-.481.045-.684.136a1.465 1.465 0 0 0-.52.376c-.141.163-.25.359-.328.588-.077.227-.116.48-.116.76 0 .31.043.584.128.824.086.24.206.443.36.608.158.165.344.292.56.38.219.085.46.128.724.128.163 0 .31-.016.44-.048.134-.032.263-.075.388-.128v-.884h-.576a.28.28 0 0 1-.2-.068.226.226 0 0 1-.072-.172V5.48Zm5.662 0h2.072v2.46a3.058 3.058 0 0 1-.956.476 3.729 3.729 0 0 1-1.056.148c-.48 0-.918-.075-1.312-.224a3.066 3.066 0 0 1-1.008-.624 2.764 2.764 0 0 1-.648-.944 3.062 3.062 0 0 1-.228-1.188c0-.435.072-.833.216-1.196.144-.365.349-.68.616-.944.269-.264.593-.47.972-.616a3.53 3.53 0 0 1 1.276-.22c.242 0 .47.02.684.06.213.04.409.095.588.164a2.692 2.692 0 0 1 .896.56l-.392.596a.377.377 0 0 1-.24.172c-.096.021-.2-.003-.312-.072a3.5 3.5 0 0 0-.304-.164 1.665 1.665 0 0 0-.288-.116 1.902 1.902 0 0 0-.312-.064 3.062 3.062 0 0 0-.368-.02c-.254 0-.482.045-.684.136a1.464 1.464 0 0 0-.52.376 1.715 1.715 0 0 0-.328.588c-.078.227-.116.48-.116.76 0 .31.042.584.128.824.085.24.205.443.36.608.157.165.344.292.56.38.218.085.46.128.724.128.162 0 .309-.016.44-.048.133-.032.262-.075.388-.128v-.884h-.576a.28.28 0 0 1-.2-.068.226.226 0 0 1-.072-.172V5.48Zm4.22-1.768v1.36h1.833v1h-1.832V7.46h2.392V8.5h-3.752V2.672h3.752v1.04h-2.392Zm5.003 1.7c.184 0 .34-.023.468-.068a.868.868 0 0 0 .32-.196.743.743 0 0 0 .18-.288 1.14 1.14 0 0 0 .056-.36c0-.256-.084-.456-.252-.6-.166-.144-.423-.216-.772-.216h-.544v1.728h.544ZM45.028 8.5h-1.224c-.227 0-.39-.085-.488-.256l-.968-1.692a.45.45 0 0 0-.152-.156.458.458 0 0 0-.24-.052h-.344V8.5H40.26V2.672h1.896c.421 0 .78.044 1.076.132.298.085.541.205.728.36.19.155.326.337.412.548.085.21.128.44.128.688 0 .19-.026.368-.076.536-.05.168-.126.324-.224.468a1.711 1.711 0 0 1-.368.38 1.92 1.92 0 0 1-.5.276c.088.045.17.103.248.172.077.067.146.147.208.24l1.24 2.028ZM44.5 11h-42a1 1 0 0 0-1 1v6a1 1 0 0 0 1 1h42a1 1 0 0 0 1-1v-6a1 1 0 0 0-1-1Z" fill="#369EB3"/><path d="M44.5 11h-42a1 1 0 0 0-1 1v6a1 1 0 0 0 1 1h42a1 1 0 0 0 1-1v-6a1 1 0 0 0-1-1Z" stroke="#369EB3"/><path d="M4.506 15.412c.184 0 .34-.023.468-.068a.867.867 0 0 0 .32-.196.742.742 0 0 0 .18-.288c.038-.112.056-.232.056-.36 0-.256-.084-.456-.252-.6-.165-.144-.422-.216-.772-.216h-.544v1.728h.544ZM7.378 18.5H6.154c-.226 0-.389-.085-.488-.256l-.968-1.692a.45.45 0 0 0-.152-.156.458.458 0 0 0-.24-.052h-.344V18.5H2.61v-5.828h1.896c.422 0 .78.044 1.076.132.3.085.542.205.728.36.19.155.327.337.412.548.086.21.128.44.128.688 0 .19-.025.368-.076.536-.05.168-.125.324-.224.468a1.71 1.71 0 0 1-.368.38 1.92 1.92 0 0 1-.5.276c.088.045.171.103.248.172.078.067.147.147.208.24l1.24 2.028Zm1.73-4.788v1.36h1.832v1H9.108v1.388H11.5v1.04H7.748v-5.828H11.5v1.04H9.108Zm7.294.032h-1.64V18.5H13.41v-4.756h-1.64v-1.072h4.632v1.072Zm2.463 1.668c.184 0 .34-.023.468-.068a.868.868 0 0 0 .32-.196.743.743 0 0 0 .18-.288c.038-.112.056-.232.056-.36 0-.256-.084-.456-.252-.6-.165-.144-.422-.216-.772-.216h-.544v1.728h.544Zm2.872 3.088h-1.224c-.227 0-.39-.085-.488-.256l-.968-1.692a.45.45 0 0 0-.152-.156.458.458 0 0 0-.24-.052h-.344V18.5H16.97v-5.828h1.896c.422 0 .78.044 1.076.132.299.085.542.205.728.36.19.155.327.337.412.548.085.21.128.44.128.688 0 .19-.025.368-.076.536-.05.168-.125.324-.224.468a1.712 1.712 0 0 1-.368.38 1.92 1.92 0 0 1-.5.276c.088.045.17.103.248.172.077.067.147.147.208.24l1.24 2.028Zm1.73 0h-1.36v-5.828h1.36V18.5Zm3.804-3.02h2.072v2.46a3.057 3.057 0 0 1-.956.476 3.728 3.728 0 0 1-1.056.148 3.69 3.69 0 0 1-1.312-.224 3.066 3.066 0 0 1-1.008-.624 2.764 2.764 0 0 1-.648-.944 3.062 3.062 0 0 1-.228-1.188c0-.435.072-.833.216-1.196.144-.365.35-.68.616-.944.27-.264.594-.47.972-.616a3.53 3.53 0 0 1 1.276-.22c.243 0 .471.02.684.06.214.04.41.095.588.164a2.687 2.687 0 0 1 .896.56l-.392.596a.377.377 0 0 1-.24.172c-.096.021-.2-.003-.312-.072a3.478 3.478 0 0 0-.304-.164 1.663 1.663 0 0 0-.288-.116 1.898 1.898 0 0 0-.312-.064 3.068 3.068 0 0 0-.368-.02c-.253 0-.481.045-.684.136a1.465 1.465 0 0 0-.52.376c-.141.163-.25.359-.328.588-.077.227-.116.48-.116.76 0 .31.043.584.128.824.086.24.206.443.36.608.158.165.344.292.56.38.219.085.46.128.724.128.163 0 .31-.016.44-.048.134-.032.263-.075.388-.128v-.884h-.576a.28.28 0 0 1-.2-.068.226.226 0 0 1-.072-.172v-.744Zm5.662 0h2.072v2.46a3.058 3.058 0 0 1-.956.476 3.728 3.728 0 0 1-1.056.148c-.48 0-.918-.075-1.312-.224a3.066 3.066 0 0 1-1.008-.624 2.764 2.764 0 0 1-.648-.944 3.062 3.062 0 0 1-.228-1.188c0-.435.072-.833.216-1.196.144-.365.349-.68.616-.944.269-.264.593-.47.972-.616.38-.147.806-.22 1.276-.22.242 0 .47.02.684.06.213.04.409.095.588.164a2.69 2.69 0 0 1 .896.56l-.392.596a.377.377 0 0 1-.24.172c-.096.021-.2-.003-.312-.072a3.492 3.492 0 0 0-.304-.164 1.663 1.663 0 0 0-.288-.116 1.902 1.902 0 0 0-.312-.064 3.068 3.068 0 0 0-.368-.02c-.254 0-.482.045-.684.136a1.464 1.464 0 0 0-.52.376 1.715 1.715 0 0 0-.328.588c-.078.227-.116.48-.116.76 0 .31.042.584.128.824.085.24.205.443.36.608.157.165.344.292.56.38.218.085.46.128.724.128.162 0 .309-.016.44-.048.133-.032.262-.075.388-.128v-.884h-.576a.28.28 0 0 1-.2-.068.226.226 0 0 1-.072-.172v-.744Zm4.22-1.768v1.36h1.833v1h-1.832v1.388h2.392v1.04h-3.752v-5.828h3.752v1.04h-2.392Zm5.003 1.7c.184 0 .34-.023.468-.068a.868.868 0 0 0 .32-.196.743.743 0 0 0 .18-.288 1.14 1.14 0 0 0 .056-.36c0-.256-.084-.456-.252-.6-.166-.144-.423-.216-.772-.216h-.544v1.728h.544Zm2.872 3.088h-1.224c-.227 0-.39-.085-.488-.256l-.968-1.692a.45.45 0 0 0-.152-.156.458.458 0 0 0-.24-.052h-.344V18.5H40.26v-5.828h1.896c.421 0 .78.044 1.076.132.298.085.541.205.728.36.19.155.326.337.412.548.085.21.128.44.128.688 0 .19-.026.368-.076.536-.05.168-.126.324-.224.468a1.712 1.712 0 0 1-.368.38 1.92 1.92 0 0 1-.5.276c.088.045.17.103.248.172.077.067.146.147.208.24l1.24 2.028Z" fill="#000"/></svg>