<svg width="11" height="22" fill="none" xmlns="http://www.w3.org/2000/svg"><path d="M.5 2.5a2 2 0 0 1 2-2h6a2 2 0 0 1 2 2v6a2 2 0 0 1-2 2h-6a2 2 0 0 1-2-2v-6Z" fill="#242424"/><path fill-rule="evenodd" clip-rule="evenodd" d="M6.275 3 3.4 5.849l1.725 1.71L8 4.708 6.275 3ZM4.626 8 3 6.388V8h1.626Z" fill="#B4B4B4"/><path d="M.5 13.5a2 2 0 0 1 2-2h6a2 2 0 0 1 2 2v6a2 2 0 0 1-2 2h-6a2 2 0 0 1-2-2v-6Z" fill="#242424"/><rect x="2.5" y="13.5" width="6" height="6" rx=".25" fill="#369EB3"/><rect x="2.5" y="13.5" width="6" height="6" rx=".25" stroke="#369EB3"/><path fill-rule="evenodd" clip-rule="evenodd" d="M6.275 14 3.4 16.849l1.725 1.71L8 15.708 6.275 14Zm-1.649 5L3 17.388V19h1.626Z" fill="#000"/></svg>