<svg width="13" height="52" fill="none" xmlns="http://www.w3.org/2000/svg"><path clip-rule="evenodd" d="M12.2 4.335c0-1.737-1.423-3.145-3.178-3.145A3.18 3.18 0 0 0 6.44 2.506 3.182 3.182 0 0 0 3.858 1.19C2.103 1.19.68 2.598.68 4.335c0 .246.032.484.086.714.441 2.712 3.49 5.575 5.674 6.361 2.184-.786 5.233-3.649 5.673-6.361a3.06 3.06 0 0 0 .087-.714Z" stroke="#369EB3"/><path clip-rule="evenodd" d="M12.1 17.335c0-1.737-1.423-3.145-3.178-3.145a3.18 3.18 0 0 0-2.582 1.316 3.182 3.182 0 0 0-2.582-1.316C2.003 14.19.58 15.598.58 17.335c0 .246.032.484.086.714.441 2.712 3.49 5.575 5.674 6.361 2.184-.786 5.233-3.649 5.674-6.361.054-.23.086-.468.086-.714Z" stroke="url(#a)"/><path fill-rule="evenodd" clip-rule="evenodd" d="M12.2 30.335c0-1.737-1.423-3.145-3.178-3.145a3.18 3.18 0 0 0-2.582 1.316 3.182 3.182 0 0 0-2.582-1.316C2.103 27.19.68 28.598.68 30.335c0 .246.032.484.086.714.441 2.712 3.49 5.575 5.674 6.361 2.184-.786 5.233-3.649 5.673-6.361a3.06 3.06 0 0 0 .087-.714Z" fill="#369EB3" stroke="#369EB3"/><path fill-rule="evenodd" clip-rule="evenodd" d="M12.2 43.335c0-1.737-1.423-3.145-3.178-3.145a3.18 3.18 0 0 0-2.582 1.316 3.182 3.182 0 0 0-2.582-1.316C2.103 40.19.68 41.598.68 43.335c0 .246.032.484.086.714.441 2.712 3.49 5.575 5.674 6.361 2.184-.786 5.233-3.649 5.673-6.361a3.06 3.06 0 0 0 .087-.714Z" fill="#369EB3" stroke="url(#b)"/><defs><linearGradient id="a" x1="6.34" y1="14.19" x2="6.34" y2="24.41" gradientUnits="userSpaceOnUse"><stop stop-color="#B4B4B4"/><stop offset="1" stop-color="#E4E4E4"/></linearGradient><linearGradient id="b" x1="6.44" y1="40.19" x2="6.44" y2="50.41" gradientUnits="userSpaceOnUse"><stop stop-color="#B4B4B4"/><stop offset="1" stop-color="#E4E4E4"/></linearGradient></defs></svg>