<svg width="134" height="208" fill="none" xmlns="http://www.w3.org/2000/svg"><path fill-rule="evenodd" clip-rule="evenodd" d="M1 160v3h120v8h7v2l4-2.5-4-2.5v2h-5v-10H1Z" fill="#fff" fill-opacity=".5"/><path d="M21.5 182.5h-6a2 2 0 0 0-2 2v6a2 2 0 0 0 2 2h6a2 2 0 0 0 2-2v-6a2 2 0 0 0-2-2Zm32 0h-6a2 2 0 0 0-2 2v6a2 2 0 0 0 2 2h6a2 2 0 0 0 2-2v-6a2 2 0 0 0-2-2Zm32 0h-6a2 2 0 0 0-2 2v6a2 2 0 0 0 2 2h6a2 2 0 0 0 2-2v-6a2 2 0 0 0-2-2Z" stroke="#fff" stroke-opacity=".5"/><path opacity=".5" d="M117 182.5h-6a2 2 0 0 0-2 2v6a2 2 0 0 0 2 2h6a2 2 0 0 0 2-2v-6a2 2 0 0 0-2-2Z" stroke="#fff" stroke-opacity=".5"/><path d="M38 188h-1v9.012h46V193h-1v3H38v-8Z" fill="#fff" fill-opacity=".5"/><path d="M20.092 189.352V190h-2.8v-.648h1.026v-2.95a6.4 6.4 0 0 1 .01-.361l-.728.609a.311.311 0 0 1-.126.063.32.32 0 0 1-.21-.035.212.212 0 0 1-.063-.059l-.273-.375 1.544-1.312h.71v4.42h.91Zm31.811-.157a.3.3 0 0 1 .22.08.269.269 0 0 1 .085.207V190h-3.472v-.287a.488.488 0 0 1 .154-.357l1.536-1.54c.128-.131.243-.256.343-.375.103-.119.188-.236.256-.353.067-.117.119-.235.154-.354.037-.121.056-.248.056-.381a.889.889 0 0 0-.053-.319.625.625 0 0 0-.15-.234.577.577 0 0 0-.231-.14.858.858 0 0 0-.301-.049.89.89 0 0 0-.287.045.726.726 0 0 0-.231.123.743.743 0 0 0-.172.182.802.802 0 0 0-.105.231c-.04.107-.09.178-.154.213-.063.035-.154.044-.273.025l-.455-.081a1.87 1.87 0 0 1 .203-.637 1.515 1.515 0 0 1 .893-.735c.196-.063.406-.094.63-.094.233 0 .447.035.64.105a1.326 1.326 0 0 1 .819.745c.077.178.116.375.116.592 0 .187-.028.359-.084.518a2.04 2.04 0 0 1-.22.455 2.92 2.92 0 0 1-.323.42c-.123.135-.253.273-.388.413l-1.141 1.165a2.461 2.461 0 0 1 .637-.101h1.298Zm28.945-2.846a1.85 1.85 0 0 1 .203-.637 1.515 1.515 0 0 1 .892-.735c.196-.063.406-.094.63-.094.234 0 .444.034.63.101.19.066.35.158.483.277a1.224 1.224 0 0 1 .413.927c0 .161-.018.304-.056.427a.918.918 0 0 1-.406.55c-.1.063-.213.115-.34.157.304.096.53.242.68.438.15.196.224.442.224.738a1.45 1.45 0 0 1-.518 1.159c-.159.131-.343.23-.553.297a2.112 2.112 0 0 1-.662.102 2.24 2.24 0 0 1-.665-.088 1.427 1.427 0 0 1-.493-.259 1.554 1.554 0 0 1-.357-.42 2.818 2.818 0 0 1-.252-.574l.381-.157a.444.444 0 0 1 .28-.032.271.271 0 0 1 .193.14 3.4 3.4 0 0 0 .136.242.922.922 0 0 0 .427.364.94.94 0 0 0 .34.056.971.971 0 0 0 .385-.07c.11-.049.2-.112.273-.189a.78.78 0 0 0 .22-.543 1.3 1.3 0 0 0-.038-.329.49.49 0 0 0-.161-.255.88.88 0 0 0-.354-.165 2.552 2.552 0 0 0-.612-.059v-.616c.212-.002.388-.022.528-.06a.884.884 0 0 0 .333-.154.53.53 0 0 0 .175-.241.925.925 0 0 0 .049-.308c0-.238-.067-.419-.2-.543-.133-.123-.31-.185-.532-.185a.86.86 0 0 0-.518.168.743.743 0 0 0-.171.182.802.802 0 0 0-.105.231c-.04.107-.092.178-.158.213-.063.035-.153.044-.27.025l-.454-.081Zm35.285-1.41V190h-.483a.466.466 0 0 1-.189-.035.468.468 0 0 1-.143-.126l-2.643-3.374c.014.154.021.296.021.427V190h-.829v-5.061h.493c.04 0 .074.002.102.007.03.002.056.009.077.021a.194.194 0 0 1 .066.045.62.62 0 0 1 .07.077l2.653 3.388a6.823 6.823 0 0 1-.024-.462v-3.076h.829Z" fill="#fff"/><g opacity=".5"><path opacity=".5" d="M34.5 180.5a5 5 0 1 0 0-10 5 5 0 0 0 0 10Z" stroke="#fff" stroke-opacity=".5"/><path opacity=".5" d="m36.444 172.495 1.061 1.061-1.946 1.945 1.945 1.943-1.06 1.061-1.946-1.943-1.943 1.943-1.06-1.06 1.942-1.943-1.945-1.942 1.06-1.062 1.946 1.944 1.946-1.947Z" fill="#EEE"/></g><g opacity=".5"><path opacity=".5" d="M66.5 180.5a5 5 0 1 0 0-10 5 5 0 0 0 0 10Z" stroke="#fff" stroke-opacity=".5"/><path opacity=".5" d="m68.444 172.495 1.061 1.061-1.946 1.945 1.945 1.943-1.06 1.061-1.946-1.943-1.943 1.943-1.06-1.06 1.942-1.943-1.945-1.942 1.06-1.062 1.946 1.944 1.946-1.947Z" fill="#EEE"/></g><path fill-rule="evenodd" clip-rule="evenodd" d="M82 168h-2l2.5-4 2.5 4h-3Z" fill="#fff" fill-opacity=".5"/><path d="M82 182v-14.5h1V182h-1Z" fill="#fff" fill-opacity=".5"/><g opacity=".5" fill="#fff" fill-opacity=".5"><path opacity=".5" fill-rule="evenodd" clip-rule="evenodd" d="M113.5 168h-2l2.5-4 2.5 4h-3Z"/><path opacity=".5" d="M113.5 182v-14.5h1V182h-1Z"/></g><path fill-rule="evenodd" clip-rule="evenodd" d="M50 168h-2l2.5-4 2.5 4h-3Z" fill="#fff" fill-opacity=".5"/><path d="M50 182v-14.5h1V182h-1Z" fill="#fff" fill-opacity=".5"/><path fill-rule="evenodd" clip-rule="evenodd" d="M18 168h-2l2.5-4 2.5 4h-3Z" fill="#fff" fill-opacity=".5"/><path d="M18 182v-14.5h1V182h-1Z" fill="#fff" fill-opacity=".5"/><g opacity=".5" fill="#fff" fill-opacity=".5"><path opacity=".5" fill-rule="evenodd" clip-rule="evenodd" d="M34 168h-2l2.5-4 2.5 4h-3Z"/><path opacity=".5" d="M34 170v-2.5h1v2.5h-1Z"/></g><g opacity=".5" fill="#fff" fill-opacity=".5"><path opacity=".5" fill-rule="evenodd" clip-rule="evenodd" d="M66 168h-2l2.5-4 2.5 4h-3Z"/><path opacity=".5" d="M66 170v-2.5h1v2.5h-1Z"/></g><g opacity=".5" fill="#fff" fill-opacity=".5"><path opacity=".5" fill-rule="evenodd" clip-rule="evenodd" d="M45 176v2l-4-2.5 4-2.5v3Z"/><path opacity=".5" d="M50 176h-5.5v-1H50v1Z"/></g><g opacity=".5" fill="#fff" fill-opacity=".5"><path opacity=".5" fill-rule="evenodd" clip-rule="evenodd" d="M77 176v2l-4-2.5 4-2.5v3Z"/><path opacity=".5" d="M82 176h-5.5v-1H82v1Z"/></g><path fill-rule="evenodd" clip-rule="evenodd" d="M29 188v2l-4-2.5 4-2.5v3Z" fill="#fff" fill-opacity=".5"/><path d="M45 188H28.5v-1H45v1Z" fill="#fff" fill-opacity=".5"/><g opacity=".5" fill="#fff" fill-opacity=".5"><path opacity=".5" fill-rule="evenodd" clip-rule="evenodd" d="M24 175v-2l4 2.5-4 2.5v-3Z"/><path opacity=".5" d="M19 175h5.5v1H19v-1Z"/></g><g opacity=".5" fill="#fff" fill-opacity=".5"><path opacity=".5" fill-rule="evenodd" clip-rule="evenodd" d="M56 175v-2l4 2.5-4 2.5v-3Z"/><path opacity=".5" d="M51 175h5.5v1H51v-1Z"/></g><path d="M1.5 200.5a2 2 0 0 1 2-2h126a2 2 0 0 1 2 2v5a2 2 0 0 1-2 2H3.5a2 2 0 0 1-2-2v-5Z" fill="url(#a)"/><path d="M11.932 200.4v5.1h-.616a.568.568 0 0 1-.231-.042.592.592 0 0 1-.182-.154l-2.405-3.042c.01.091.016.18.018.266.005.084.007.164.007.238v2.734H7.48v-5.1h.623c.051 0 .094.003.13.007a.307.307 0 0 1 .094.028c.028.012.055.03.08.053a.945.945 0 0 1 .088.094l2.426 3.063a4.185 4.185 0 0 1-.032-.546V200.4h1.043Zm5.89 2.548c0 .369-.065.712-.193 1.029a2.476 2.476 0 0 1-.536.83c-.23.233-.51.416-.836.549a2.81 2.81 0 0 1-1.082.2c-.396 0-.758-.066-1.085-.2a2.515 2.515 0 0 1-.84-.549 2.52 2.52 0 0 1-.539-.83 2.76 2.76 0 0 1-.189-1.029c0-.368.063-.711.19-1.029.128-.317.307-.592.538-.826.234-.233.514-.416.84-.549.327-.133.689-.2 1.085-.2.397 0 .757.068 1.082.203.326.133.605.317.836.55.231.233.41.509.536.826.128.317.192.659.192 1.025Zm-1.212 0a2.19 2.19 0 0 0-.098-.679 1.425 1.425 0 0 0-.283-.514 1.204 1.204 0 0 0-.448-.322 1.542 1.542 0 0 0-.606-.112c-.228 0-.433.037-.612.112a1.234 1.234 0 0 0-.452.322c-.121.14-.214.311-.28.514a2.188 2.188 0 0 0-.098.679c0 .255.033.483.098.686.066.201.159.371.28.511.124.14.274.248.452.322.18.073.384.109.612.109.227 0 .428-.036.606-.109.177-.074.327-.182.448-.322.123-.14.218-.31.283-.511.066-.203.098-.431.098-.686Zm4.508-1.638v1.292h1.743v.913h-1.743v1.985h-1.19v-5.1h3.283v.91h-2.093Zm8.402-.91v5.1h-1.043v-2.933c0-.068.002-.141.004-.221.005-.079.012-.159.021-.241l-1.354 2.621a.441.441 0 0 1-.413.249h-.162a.479.479 0 0 1-.245-.063.448.448 0 0 1-.168-.186l-1.354-2.628a7.388 7.388 0 0 1 .025.469v2.933h-1.043v-5.1h.902c.052 0 .096.002.133.004a.33.33 0 0 1 .105.021.21.21 0 0 1 .081.056c.026.023.05.057.073.101l1.313 2.587a6.494 6.494 0 0 1 .259.57 3.97 3.97 0 0 1 .262-.581l1.31-2.576a.418.418 0 0 1 .07-.101.242.242 0 0 1 .084-.056.321.321 0 0 1 .101-.021c.04-.002.085-.004.136-.004h.903Zm18.127 4.12a.38.38 0 0 1 .276.098.328.328 0 0 1 .102.252v.63H44.44v-.35c0-.068.014-.14.042-.217a.523.523 0 0 1 .147-.21l1.47-1.481c.126-.126.236-.246.329-.36.093-.114.17-.226.23-.336a1.342 1.342 0 0 0 .182-.686c0-.203-.048-.358-.146-.466-.096-.109-.243-.164-.441-.164a.652.652 0 0 0-.637.444c-.05.129-.113.214-.193.256-.079.042-.192.051-.34.028l-.573-.102a1.94 1.94 0 0 1 .213-.665c.108-.189.24-.346.396-.472.159-.126.34-.219.542-.28.203-.063.422-.095.655-.095.252 0 .478.038.679.112.203.073.375.174.518.305a1.3 1.3 0 0 1 .325.469c.077.18.116.378.116.595 0 .187-.027.359-.08.518a2.05 2.05 0 0 1-.214.455 3.236 3.236 0 0 1-.319.416c-.119.133-.246.269-.381.406l-.998 1.022a3.06 3.06 0 0 1 .382-.091c.126-.021.242-.031.35-.031h.952Zm8.763.196v.784h-2.905v-.784h.98v-2.573a5.378 5.378 0 0 1 .014-.399l-.58.483a.353.353 0 0 1-.155.074.469.469 0 0 1-.14 0 .375.375 0 0 1-.119-.046.271.271 0 0 1-.077-.07l-.343-.455 1.59-1.333h.895v4.319h.84ZM52.386 203l-2.812 2.143v-4.286L52.387 203Zm18.387-1.144a1.94 1.94 0 0 1 .214-.665c.107-.189.239-.346.395-.472a1.61 1.61 0 0 1 .543-.28c.203-.063.421-.095.654-.095.252 0 .476.037.672.109.196.07.362.166.497.287a1.237 1.237 0 0 1 .413.927c0 .161-.016.304-.049.427a.973.973 0 0 1-.147.319.879.879 0 0 1-.238.227c-.093.061-.2.112-.322.154.565.199.847.584.847 1.155 0 .271-.049.507-.147.707a1.45 1.45 0 0 1-.395.501 1.695 1.695 0 0 1-.57.301 2.354 2.354 0 0 1-.68.098 2.49 2.49 0 0 1-.647-.077 1.536 1.536 0 0 1-.504-.245 1.67 1.67 0 0 1-.389-.427 2.916 2.916 0 0 1-.287-.616l.483-.196a.606.606 0 0 1 .35-.039.33.33 0 0 1 .231.161c.105.194.216.335.333.424a.692.692 0 0 0 .416.129.701.701 0 0 0 .539-.217.649.649 0 0 0 .137-.22.714.714 0 0 0 .045-.249c0-.109-.008-.207-.024-.294a.38.38 0 0 0-.126-.227.715.715 0 0 0-.319-.144 2.556 2.556 0 0 0-.588-.052v-.749c.213 0 .384-.016.515-.049a.792.792 0 0 0 .3-.133.41.41 0 0 0 .144-.21.985.985 0 0 0 .035-.27c0-.2-.049-.354-.147-.462-.095-.109-.242-.164-.44-.164a.652.652 0 0 0-.638.444c-.049.129-.113.214-.192.256-.08.042-.193.051-.34.028l-.574-.102Zm13.124 2.664c.117 0 .21.033.277.098a.328.328 0 0 1 .101.252v.63h-3.584v-.35c0-.068.014-.14.042-.217a.523.523 0 0 1 .147-.21l1.47-1.481c.126-.126.236-.246.33-.36.093-.114.17-.226.23-.336a1.342 1.342 0 0 0 .182-.686c0-.203-.049-.358-.147-.466-.095-.109-.242-.164-.44-.164a.652.652 0 0 0-.638.444c-.049.129-.113.214-.192.256-.08.042-.193.051-.34.028l-.574-.102a1.94 1.94 0 0 1 .214-.665c.107-.189.239-.346.395-.472a1.61 1.61 0 0 1 .543-.28c.203-.063.421-.095.654-.095.252 0 .479.038.68.112.202.073.375.174.517.305a1.3 1.3 0 0 1 .326.469c.077.18.115.378.115.595 0 .187-.026.359-.08.518a2.05 2.05 0 0 1-.214.455 3.236 3.236 0 0 1-.318.416c-.12.133-.246.269-.382.406l-.997 1.022c.128-.039.255-.07.381-.091.126-.021.243-.031.35-.031h.952Zm10.279.196v.784H91.27v-.784h.98v-2.573a5.614 5.614 0 0 1 .014-.399l-.581.483a.352.352 0 0 1-.154.074.469.469 0 0 1-.14 0 .375.375 0 0 1-.12-.046.272.272 0 0 1-.076-.07l-.343-.455 1.589-1.333h.896v4.319h.84ZM78.761 203l-2.812 2.143v-4.286L78.762 203Zm10.313 0-2.813 2.143v-4.286L89.075 203Z" fill="#DBDBDB"/><path d="M128.511 200h-28a1 1 0 0 0-1 1v4a1 1 0 0 0 1 1h28a1 1 0 0 0 1-1v-4a1 1 0 0 0-1-1Z" fill="#fff" fill-opacity=".5"/><path d="M128.511 200h-28a1 1 0 0 0-1 1v4a1 1 0 0 0 1 1h28a1 1 0 0 0 1-1v-4a1 1 0 0 0-1-1Z" fill="#369EB3" stroke="#369EB3"/><path d="M105.881 204.52c.117 0 .209.033.277.098a.33.33 0 0 1 .101.252v.63h-3.584v-.35c0-.068.014-.14.042-.217a.523.523 0 0 1 .147-.21l1.47-1.481c.126-.126.236-.246.329-.36.094-.114.171-.226.231-.336a1.355 1.355 0 0 0 .182-.686c0-.203-.049-.358-.147-.466-.095-.109-.242-.164-.441-.164a.651.651 0 0 0-.637.444c-.049.129-.113.214-.192.256-.08.042-.193.051-.34.028l-.574-.102c.038-.254.109-.476.214-.665.107-.189.239-.346.395-.472a1.61 1.61 0 0 1 .543-.28c.203-.063.421-.095.654-.095.252 0 .479.038.679.112.203.073.376.174.518.305.143.131.251.287.326.469.077.18.115.378.115.595 0 .187-.027.359-.08.518a2.05 2.05 0 0 1-.214.455 3.258 3.258 0 0 1-.318.416c-.119.133-.246.269-.382.406l-.997 1.022c.128-.039.255-.07.381-.091.126-.021.243-.031.35-.031h.952Zm10.279.196v.784h-2.905v-.784h.98v-2.573l.003-.196c.003-.067.006-.135.011-.203l-.581.483a.358.358 0 0 1-.154.074.37.37 0 0 1-.259-.046.267.267 0 0 1-.077-.07l-.343-.455 1.589-1.333h.896v4.319h.84Zm6.645-2.86c.038-.254.109-.476.214-.665.107-.189.239-.346.395-.472a1.61 1.61 0 0 1 .543-.28c.203-.063.421-.095.654-.095.252 0 .476.037.672.109.196.07.362.166.497.287a1.237 1.237 0 0 1 .413.927c0 .161-.016.304-.049.427a.945.945 0 0 1-.147.319.875.875 0 0 1-.238.227c-.093.061-.2.112-.322.154.565.199.847.584.847 1.155 0 .271-.049.507-.147.707a1.45 1.45 0 0 1-.395.501 1.704 1.704 0 0 1-.571.301 2.352 2.352 0 0 1-.679.098 2.49 2.49 0 0 1-.647-.077 1.536 1.536 0 0 1-.504-.245 1.672 1.672 0 0 1-.389-.427 2.966 2.966 0 0 1-.287-.616l.483-.196a.606.606 0 0 1 .35-.039.327.327 0 0 1 .231.161c.105.194.216.335.333.424a.692.692 0 0 0 .416.129.698.698 0 0 0 .539-.217.656.656 0 0 0 .137-.22.72.72 0 0 0 .045-.249c0-.109-.008-.207-.024-.294a.38.38 0 0 0-.126-.227.713.713 0 0 0-.319-.144 2.556 2.556 0 0 0-.588-.052v-.749c.213 0 .384-.016.515-.049a.797.797 0 0 0 .301-.133.408.408 0 0 0 .143-.21.96.96 0 0 0 .035-.27c0-.2-.049-.354-.147-.462-.095-.109-.242-.164-.441-.164a.651.651 0 0 0-.637.444c-.049.129-.113.214-.192.256-.08.042-.193.051-.34.028l-.574-.102ZM110.761 203l-2.812 2.143v-4.286l2.812 2.143Zm7.5 0 2.813-2.143v4.286L118.261 203Z" fill="#000"/><path d="M3.5 199h126v-1H3.5v1Zm127.5 1.5v5h1v-5h-1Zm-1.5 6.5H3.5v1h126v-1ZM2 205.5v-5H1v5h1Zm1.5 1.5a1.5 1.5 0 0 1-1.5-1.5H1a2.5 2.5 0 0 0 2.5 2.5v-1Zm127.5-1.5a1.5 1.5 0 0 1-1.5 1.5v1a2.5 2.5 0 0 0 2.5-2.5h-1Zm-1.5-6.5a1.5 1.5 0 0 1 1.5 1.5h1a2.5 2.5 0 0 0-2.5-2.5v1Zm-126-1a2.5 2.5 0 0 0-2.5 2.5h1a1.5 1.5 0 0 1 1.5-1.5v-1Z" fill="url(#b)"/><path fill-rule="evenodd" clip-rule="evenodd" d="M1 108v3h120v8h7v2l4-2.5-4-2.5v2h-5v-10H1Z" fill="#fff" fill-opacity=".5"/><path d="M21.5 130.5h-6a2 2 0 0 0-2 2v6a2 2 0 0 0 2 2h6a2 2 0 0 0 2-2v-6a2 2 0 0 0-2-2Zm32 0h-6a2 2 0 0 0-2 2v6a2 2 0 0 0 2 2h6a2 2 0 0 0 2-2v-6a2 2 0 0 0-2-2Zm32 0h-6a2 2 0 0 0-2 2v6a2 2 0 0 0 2 2h6a2 2 0 0 0 2-2v-6a2 2 0 0 0-2-2Z" stroke="#fff" stroke-opacity=".5"/><path opacity=".5" d="M117 130.5h-6a2 2 0 0 0-2 2v6a2 2 0 0 0 2 2h6a2 2 0 0 0 2-2v-6a2 2 0 0 0-2-2Z" stroke="#fff" stroke-opacity=".5"/><path d="M20.092 137.352V138h-2.8v-.648h1.026v-2.95a6.4 6.4 0 0 1 .01-.361l-.728.609a.311.311 0 0 1-.126.063.32.32 0 0 1-.21-.035.212.212 0 0 1-.063-.059l-.273-.375 1.544-1.312h.71v4.42h.91Zm31.811-.157a.3.3 0 0 1 .22.08.269.269 0 0 1 .085.207V138h-3.472v-.287a.488.488 0 0 1 .154-.357l1.536-1.54c.128-.131.243-.256.343-.375.103-.119.188-.236.256-.353.067-.117.119-.235.154-.354.037-.121.056-.248.056-.381a.889.889 0 0 0-.053-.319.625.625 0 0 0-.15-.234.577.577 0 0 0-.231-.14.858.858 0 0 0-.301-.049.89.89 0 0 0-.287.045.726.726 0 0 0-.231.123.743.743 0 0 0-.172.182.802.802 0 0 0-.105.231c-.04.107-.09.178-.154.213-.063.035-.154.044-.273.025l-.455-.081a1.87 1.87 0 0 1 .203-.637 1.515 1.515 0 0 1 .893-.735c.196-.063.406-.094.63-.094.233 0 .447.035.64.105a1.326 1.326 0 0 1 .819.745c.077.178.116.375.116.592 0 .187-.028.359-.084.518a2.04 2.04 0 0 1-.22.455 2.92 2.92 0 0 1-.323.42c-.123.135-.253.273-.388.413l-1.141 1.165a2.461 2.461 0 0 1 .637-.101h1.298Zm28.945-2.846a1.85 1.85 0 0 1 .203-.637 1.515 1.515 0 0 1 .892-.735c.196-.063.406-.094.63-.094.234 0 .444.034.63.101.19.066.35.158.483.277a1.224 1.224 0 0 1 .413.927c0 .161-.018.304-.056.427a.918.918 0 0 1-.406.55c-.1.063-.213.115-.34.157.304.096.53.242.68.438.15.196.224.442.224.738a1.45 1.45 0 0 1-.518 1.159c-.159.131-.343.23-.553.297a2.112 2.112 0 0 1-.662.102 2.24 2.24 0 0 1-.665-.088 1.427 1.427 0 0 1-.493-.259 1.554 1.554 0 0 1-.357-.42 2.818 2.818 0 0 1-.252-.574l.381-.157a.444.444 0 0 1 .28-.032.271.271 0 0 1 .193.14 3.4 3.4 0 0 0 .136.242.922.922 0 0 0 .427.364.94.94 0 0 0 .34.056.971.971 0 0 0 .385-.07c.11-.049.2-.112.273-.189a.78.78 0 0 0 .22-.543 1.3 1.3 0 0 0-.038-.329.49.49 0 0 0-.161-.255.88.88 0 0 0-.354-.165 2.552 2.552 0 0 0-.612-.059v-.616c.212-.002.388-.022.528-.06a.884.884 0 0 0 .333-.154.53.53 0 0 0 .175-.241.925.925 0 0 0 .049-.308c0-.238-.067-.419-.2-.543-.133-.123-.31-.185-.532-.185a.86.86 0 0 0-.518.168.743.743 0 0 0-.171.182.802.802 0 0 0-.105.231c-.04.107-.092.178-.158.213-.063.035-.153.044-.27.025l-.454-.081Zm35.285-1.41V138h-.483a.466.466 0 0 1-.189-.035.468.468 0 0 1-.143-.126l-2.643-3.374c.014.154.021.296.021.427V138h-.829v-5.061h.493c.04 0 .074.002.102.007.03.002.056.009.077.021a.194.194 0 0 1 .066.045.62.62 0 0 1 .07.077l2.653 3.388a6.823 6.823 0 0 1-.024-.462v-3.076h.829Z" fill="#fff"/><g opacity=".5"><path opacity=".5" d="M34.5 128.5a5 5 0 1 0 0-10 5 5 0 0 0 0 10Z" stroke="#fff" stroke-opacity=".5"/><path opacity=".5" d="m36.444 120.495 1.061 1.061-1.946 1.945 1.945 1.943-1.06 1.061-1.946-1.943-1.943 1.943-1.06-1.06 1.942-1.943-1.945-1.942 1.06-1.062 1.946 1.944 1.946-1.947Z" fill="#EEE"/></g><g opacity=".5"><path opacity=".5" d="M66.5 128.5a5 5 0 1 0 0-10 5 5 0 0 0 0 10Z" stroke="#fff" stroke-opacity=".5"/><path opacity=".5" d="m68.444 120.495 1.061 1.061-1.946 1.945 1.945 1.943-1.06 1.061-1.946-1.943-1.943 1.943-1.06-1.06 1.942-1.943-1.945-1.942 1.06-1.062 1.946 1.944 1.946-1.947Z" fill="#EEE"/></g><path fill-rule="evenodd" clip-rule="evenodd" d="M82 116h-2l2.5-4 2.5 4h-3Z" fill="#fff" fill-opacity=".5"/><path d="M82 130v-14.5h1V130h-1Z" fill="#fff" fill-opacity=".5"/><g opacity=".5" fill="#fff" fill-opacity=".5"><path opacity=".5" fill-rule="evenodd" clip-rule="evenodd" d="M113.5 116h-2l2.5-4 2.5 4h-3Z"/><path opacity=".5" d="M113.5 130v-14.5h1V130h-1Z"/></g><path fill-rule="evenodd" clip-rule="evenodd" d="M50 116h-2l2.5-4 2.5 4h-3Z" fill="#fff" fill-opacity=".5"/><path d="M50 130v-14.5h1V130h-1Z" fill="#fff" fill-opacity=".5"/><path fill-rule="evenodd" clip-rule="evenodd" d="M18 116h-2l2.5-4 2.5 4h-3Z" fill="#fff" fill-opacity=".5"/><path d="M18 130v-14.5h1V130h-1Z" fill="#fff" fill-opacity=".5"/><g opacity=".5" fill="#fff" fill-opacity=".5"><path opacity=".5" fill-rule="evenodd" clip-rule="evenodd" d="M34 116h-2l2.5-4 2.5 4h-3Z"/><path opacity=".5" d="M34 118v-2.5h1v2.5h-1Z"/></g><g opacity=".5" fill="#fff" fill-opacity=".5"><path opacity=".5" fill-rule="evenodd" clip-rule="evenodd" d="M66 116h-2l2.5-4 2.5 4h-3Z"/><path opacity=".5" d="M66 118v-2.5h1v2.5h-1Z"/></g><g opacity=".5" fill="#fff" fill-opacity=".5"><path opacity=".5" fill-rule="evenodd" clip-rule="evenodd" d="M45 124v2l-4-2.5 4-2.5v3Z"/><path opacity=".5" d="M50 124h-5.5v-1H50v1Z"/></g><g opacity=".5" fill="#fff" fill-opacity=".5"><path opacity=".5" fill-rule="evenodd" clip-rule="evenodd" d="M77 124v2l-4-2.5 4-2.5v3Z"/><path opacity=".5" d="M82 124h-5.5v-1H82v1Z"/></g><path fill-rule="evenodd" clip-rule="evenodd" d="M61 136v2l-4-2.5 4-2.5v3Z" fill="#fff" fill-opacity=".5"/><path d="M77 136H60.5v-1H77v1Z" fill="#fff" fill-opacity=".5"/><path fill-rule="evenodd" clip-rule="evenodd" d="M29 136v2l-4-2.5 4-2.5v3Z" fill="#fff" fill-opacity=".5"/><path d="M45 136H28.5v-1H45v1Z" fill="#fff" fill-opacity=".5"/><g opacity=".5" fill="#fff" fill-opacity=".5"><path opacity=".5" fill-rule="evenodd" clip-rule="evenodd" d="M24 123v-2l4 2.5-4 2.5v-3Z"/><path opacity=".5" d="M19 123h5.5v1H19v-1Z"/></g><g opacity=".5" fill="#fff" fill-opacity=".5"><path opacity=".5" fill-rule="evenodd" clip-rule="evenodd" d="M56 123v-2l4 2.5-4 2.5v-3Z"/><path opacity=".5" d="M51 123h5.5v1H51v-1Z"/></g><path d="M1.5 148.5a2 2 0 0 1 2-2h126a2 2 0 0 1 2 2v5a2 2 0 0 1-2 2H3.5a2 2 0 0 1-2-2v-5Z" fill="url(#c)"/><path d="M11.932 148.4v5.1h-.616a.568.568 0 0 1-.231-.042.592.592 0 0 1-.182-.154l-2.405-3.042c.01.091.016.18.018.266.005.084.007.164.007.238v2.734H7.48v-5.1h.623c.051 0 .094.003.13.007a.307.307 0 0 1 .094.028c.028.012.055.03.08.053a.945.945 0 0 1 .088.094l2.426 3.063a4.185 4.185 0 0 1-.032-.546V148.4h1.043Zm5.89 2.548c0 .369-.065.712-.193 1.029a2.476 2.476 0 0 1-.536.83c-.23.233-.51.416-.836.549a2.81 2.81 0 0 1-1.082.2c-.396 0-.758-.066-1.085-.2a2.515 2.515 0 0 1-.84-.549 2.52 2.52 0 0 1-.539-.83 2.76 2.76 0 0 1-.189-1.029c0-.368.063-.711.19-1.029.128-.317.307-.592.538-.826.234-.233.514-.416.84-.549.327-.133.689-.2 1.085-.2.397 0 .757.068 1.082.203.326.133.605.317.836.55.231.233.41.509.536.826.128.317.192.659.192 1.025Zm-1.212 0a2.19 2.19 0 0 0-.098-.679 1.425 1.425 0 0 0-.283-.514 1.204 1.204 0 0 0-.448-.322 1.542 1.542 0 0 0-.606-.112c-.228 0-.433.037-.612.112a1.234 1.234 0 0 0-.452.322c-.121.14-.214.311-.28.514a2.188 2.188 0 0 0-.098.679c0 .255.033.483.098.686.066.201.159.371.28.511.124.14.274.248.452.322.18.073.384.109.612.109.227 0 .428-.036.606-.109.177-.074.327-.182.448-.322.123-.14.218-.31.283-.511.066-.203.098-.431.098-.686Zm4.508-1.638v1.292h1.743v.913h-1.743v1.985h-1.19v-5.1h3.283v.91h-2.093Zm8.402-.91v5.1h-1.043v-2.933c0-.068.002-.141.004-.221.005-.079.012-.159.021-.241l-1.354 2.621a.441.441 0 0 1-.413.249h-.162a.479.479 0 0 1-.245-.063.448.448 0 0 1-.168-.186l-1.354-2.628a7.388 7.388 0 0 1 .025.469v2.933h-1.043v-5.1h.902c.052 0 .096.002.133.004a.33.33 0 0 1 .105.021.21.21 0 0 1 .081.056c.026.023.05.057.073.101l1.313 2.587a6.494 6.494 0 0 1 .259.57 3.97 3.97 0 0 1 .262-.581l1.31-2.576a.418.418 0 0 1 .07-.101.242.242 0 0 1 .084-.056.321.321 0 0 1 .101-.021c.04-.002.085-.004.136-.004h.903Zm18.127 4.12a.38.38 0 0 1 .276.098.328.328 0 0 1 .102.252v.63H44.44v-.35c0-.068.014-.14.042-.217a.523.523 0 0 1 .147-.21l1.47-1.481c.126-.126.236-.246.329-.36.093-.114.17-.226.23-.336a1.342 1.342 0 0 0 .182-.686c0-.203-.048-.358-.146-.466-.096-.109-.243-.164-.441-.164a.652.652 0 0 0-.637.444c-.05.129-.113.214-.193.256-.079.042-.192.051-.34.028l-.573-.102a1.94 1.94 0 0 1 .213-.665c.108-.189.24-.346.396-.472.159-.126.34-.219.542-.28.203-.063.422-.095.655-.095.252 0 .478.038.679.112.203.073.375.174.518.305a1.3 1.3 0 0 1 .325.469c.077.18.116.378.116.595 0 .187-.027.359-.08.518a2.05 2.05 0 0 1-.214.455 3.236 3.236 0 0 1-.319.416c-.119.133-.246.269-.381.406l-.998 1.022a3.06 3.06 0 0 1 .382-.091c.126-.021.242-.031.35-.031h.952Zm8.763.196v.784h-2.905v-.784h.98v-2.573a5.378 5.378 0 0 1 .014-.399l-.58.483a.353.353 0 0 1-.155.074.469.469 0 0 1-.14 0 .375.375 0 0 1-.119-.046.271.271 0 0 1-.077-.07l-.343-.455 1.59-1.333h.895v4.319h.84ZM52.386 151l-2.812 2.143v-4.286L52.387 151Z" fill="#DBDBDB"/><path d="M96.511 148h-28a1 1 0 0 0-1 1v4a1 1 0 0 0 1 1h28a1 1 0 0 0 1-1v-4a1 1 0 0 0-1-1Z" fill="#369EB3"/><path d="M96.511 148h-28a1 1 0 0 0-1 1v4a1 1 0 0 0 1 1h28a1 1 0 0 0 1-1v-4a1 1 0 0 0-1-1Z" stroke="#369EB3"/><path d="M70.773 149.856a1.94 1.94 0 0 1 .214-.665c.107-.189.239-.346.395-.472a1.61 1.61 0 0 1 .543-.28c.203-.063.421-.095.654-.095.252 0 .476.037.672.109.196.07.362.166.497.287a1.237 1.237 0 0 1 .413.927c0 .161-.016.304-.049.427a.973.973 0 0 1-.147.319.879.879 0 0 1-.238.227c-.093.061-.2.112-.322.154.565.199.847.584.847 1.155 0 .271-.049.507-.147.707a1.45 1.45 0 0 1-.395.501 1.695 1.695 0 0 1-.57.301 2.354 2.354 0 0 1-.68.098 2.49 2.49 0 0 1-.647-.077 1.536 1.536 0 0 1-.504-.245 1.67 1.67 0 0 1-.389-.427 2.916 2.916 0 0 1-.287-.616l.483-.196a.606.606 0 0 1 .35-.039.33.33 0 0 1 .231.161c.105.194.216.335.333.424a.692.692 0 0 0 .416.129.701.701 0 0 0 .539-.217.649.649 0 0 0 .137-.22.714.714 0 0 0 .045-.249c0-.109-.008-.207-.024-.294a.38.38 0 0 0-.126-.227.715.715 0 0 0-.319-.144 2.556 2.556 0 0 0-.588-.052v-.749c.213 0 .384-.016.515-.049a.792.792 0 0 0 .3-.133.41.41 0 0 0 .144-.21.985.985 0 0 0 .035-.27c0-.2-.049-.354-.147-.462-.095-.109-.242-.164-.44-.164a.652.652 0 0 0-.638.444c-.049.129-.113.214-.192.256-.08.042-.193.051-.34.028l-.574-.102Zm13.124 2.664c.117 0 .21.033.277.098a.328.328 0 0 1 .101.252v.63h-3.584v-.35c0-.068.014-.14.042-.217a.523.523 0 0 1 .147-.21l1.47-1.481c.126-.126.236-.246.33-.36.093-.114.17-.226.23-.336a1.342 1.342 0 0 0 .182-.686c0-.203-.049-.358-.147-.466-.095-.109-.242-.164-.44-.164a.652.652 0 0 0-.638.444c-.049.129-.113.214-.192.256-.08.042-.193.051-.34.028l-.574-.102a1.94 1.94 0 0 1 .214-.665c.107-.189.239-.346.395-.472a1.61 1.61 0 0 1 .543-.28c.203-.063.421-.095.654-.095.252 0 .479.038.68.112.202.073.375.174.517.305a1.3 1.3 0 0 1 .326.469c.077.18.115.378.115.595 0 .187-.026.359-.08.518a2.05 2.05 0 0 1-.214.455 3.236 3.236 0 0 1-.318.416c-.12.133-.246.269-.382.406l-.997 1.022c.128-.039.255-.07.381-.091.126-.021.243-.031.35-.031h.952Zm10.279.196v.784H91.27v-.784h.98v-2.573a5.614 5.614 0 0 1 .014-.399l-.581.483a.352.352 0 0 1-.154.074.469.469 0 0 1-.14 0 .375.375 0 0 1-.12-.046.272.272 0 0 1-.076-.07l-.343-.455 1.589-1.333h.896v4.319h.84ZM78.761 151l-2.812 2.143v-4.286L78.762 151Zm10.313 0-2.813 2.143v-4.286L89.075 151Z" fill="#000"/><path d="M105.881 152.52c.117 0 .209.033.277.098a.33.33 0 0 1 .101.252v.63h-3.584v-.35c0-.068.014-.14.042-.217a.523.523 0 0 1 .147-.21l1.47-1.481c.126-.126.236-.246.329-.36.094-.114.171-.226.231-.336a1.355 1.355 0 0 0 .182-.686c0-.203-.049-.358-.147-.466-.095-.109-.242-.164-.441-.164a.651.651 0 0 0-.637.444c-.049.129-.113.214-.192.256-.08.042-.193.051-.34.028l-.574-.102c.038-.254.109-.476.214-.665.107-.189.239-.346.395-.472a1.61 1.61 0 0 1 .543-.28c.203-.063.421-.095.654-.095.252 0 .479.038.679.112.203.073.376.174.518.305.143.131.251.287.326.469.077.18.115.378.115.595 0 .187-.027.359-.08.518a2.05 2.05 0 0 1-.214.455 3.258 3.258 0 0 1-.318.416c-.119.133-.246.269-.382.406l-.997 1.022c.128-.039.255-.07.381-.091.126-.021.243-.031.35-.031h.952Zm10.279.196v.784h-2.905v-.784h.98v-2.573l.003-.196c.003-.067.006-.135.011-.203l-.581.483a.358.358 0 0 1-.154.074.37.37 0 0 1-.259-.046.267.267 0 0 1-.077-.07l-.343-.455 1.589-1.333h.896v4.319h.84Zm6.645-2.86c.038-.254.109-.476.214-.665.107-.189.239-.346.395-.472a1.61 1.61 0 0 1 .543-.28c.203-.063.421-.095.654-.095.252 0 .476.037.672.109.196.07.362.166.497.287a1.237 1.237 0 0 1 .413.927c0 .161-.016.304-.049.427a.945.945 0 0 1-.147.319.875.875 0 0 1-.238.227c-.093.061-.2.112-.322.154.565.199.847.584.847 1.155 0 .271-.049.507-.147.707a1.45 1.45 0 0 1-.395.501 1.704 1.704 0 0 1-.571.301 2.352 2.352 0 0 1-.679.098 2.49 2.49 0 0 1-.647-.077 1.536 1.536 0 0 1-.504-.245 1.672 1.672 0 0 1-.389-.427 2.966 2.966 0 0 1-.287-.616l.483-.196a.606.606 0 0 1 .35-.039.327.327 0 0 1 .231.161c.105.194.216.335.333.424a.692.692 0 0 0 .416.129.698.698 0 0 0 .539-.217.656.656 0 0 0 .137-.22.72.72 0 0 0 .045-.249c0-.109-.008-.207-.024-.294a.38.38 0 0 0-.126-.227.713.713 0 0 0-.319-.144 2.556 2.556 0 0 0-.588-.052v-.749c.213 0 .384-.016.515-.049a.797.797 0 0 0 .301-.133.408.408 0 0 0 .143-.21.96.96 0 0 0 .035-.27c0-.2-.049-.354-.147-.462-.095-.109-.242-.164-.441-.164a.651.651 0 0 0-.637.444c-.049.129-.113.214-.192.256-.08.042-.193.051-.34.028l-.574-.102ZM110.761 151l-2.812 2.143v-4.286l2.812 2.143Zm7.5 0 2.813-2.143v4.286L118.261 151Z" fill="#DBDBDB"/><path d="M3.5 147h126v-1H3.5v1Zm127.5 1.5v5h1v-5h-1Zm-1.5 6.5H3.5v1h126v-1ZM2 153.5v-5H1v5h1Zm1.5 1.5a1.5 1.5 0 0 1-1.5-1.5H1a2.5 2.5 0 0 0 2.5 2.5v-1Zm127.5-1.5a1.5 1.5 0 0 1-1.5 1.5v1a2.5 2.5 0 0 0 2.5-2.5h-1Zm-1.5-6.5a1.5 1.5 0 0 1 1.5 1.5h1a2.5 2.5 0 0 0-2.5-2.5v1Zm-126-1a2.5 2.5 0 0 0-2.5 2.5h1a1.5 1.5 0 0 1 1.5-1.5v-1Z" fill="url(#d)"/><path fill-rule="evenodd" clip-rule="evenodd" d="M1 56v3h120v8h7v2l4-2.5-4-2.5v2h-5V56H1Z" fill="#fff" fill-opacity=".5"/><path d="M21.5 78.5h-6a2 2 0 0 0-2 2v6a2 2 0 0 0 2 2h6a2 2 0 0 0 2-2v-6a2 2 0 0 0-2-2Zm32 0h-6a2 2 0 0 0-2 2v6a2 2 0 0 0 2 2h6a2 2 0 0 0 2-2v-6a2 2 0 0 0-2-2Zm32 0h-6a2 2 0 0 0-2 2v6a2 2 0 0 0 2 2h6a2 2 0 0 0 2-2v-6a2 2 0 0 0-2-2Z" stroke="#fff" stroke-opacity=".5"/><path opacity=".5" d="M117 78.5h-6a2 2 0 0 0-2 2v6a2 2 0 0 0 2 2h6a2 2 0 0 0 2-2v-6a2 2 0 0 0-2-2Z" stroke="#fff" stroke-opacity=".5"/><path d="M20.092 85.353V86h-2.8v-.647h1.026v-2.951c0-.117.003-.237.01-.36l-.728.608a.319.319 0 0 1-.126.063.32.32 0 0 1-.21-.034.223.223 0 0 1-.063-.06l-.273-.374 1.544-1.313h.71v4.42h.91Zm31.811-.158c.093 0 .167.027.22.08.057.052.085.12.085.207V86h-3.472v-.287a.488.488 0 0 1 .154-.357l1.536-1.54c.128-.13.243-.255.343-.374.103-.12.188-.237.256-.354a1.61 1.61 0 0 0 .154-.353c.037-.122.056-.249.056-.382a.885.885 0 0 0-.053-.318.624.624 0 0 0-.15-.235.58.58 0 0 0-.231-.14.865.865 0 0 0-.301-.049.882.882 0 0 0-.287.046.731.731 0 0 0-.231.122.749.749 0 0 0-.277.413c-.04.107-.09.179-.154.214-.063.035-.154.043-.273.024l-.455-.08a1.86 1.86 0 0 1 .203-.637c.1-.185.225-.338.375-.459a1.54 1.54 0 0 1 .518-.276c.196-.063.406-.095.63-.095.233 0 .447.035.64.105a1.326 1.326 0 0 1 .819.746c.077.177.116.374.116.591 0 .187-.028.36-.084.518a2.04 2.04 0 0 1-.22.455 2.954 2.954 0 0 1-.323.42c-.123.135-.253.273-.388.413l-1.141 1.166a2.402 2.402 0 0 1 .637-.102h1.298Zm28.945-2.845a1.86 1.86 0 0 1 .203-.637c.1-.185.225-.338.374-.459a1.54 1.54 0 0 1 .518-.276c.196-.063.406-.095.63-.095.234 0 .444.034.63.102a1.4 1.4 0 0 1 .483.276 1.225 1.225 0 0 1 .413.927c0 .162-.018.304-.056.428a.918.918 0 0 1-.406.55 1.59 1.59 0 0 1-.34.157c.304.095.53.241.68.437.15.196.224.442.224.739a1.453 1.453 0 0 1-.518 1.159 1.66 1.66 0 0 1-.553.297 2.12 2.12 0 0 1-.662.101c-.254 0-.476-.03-.665-.087a1.444 1.444 0 0 1-.85-.68 2.835 2.835 0 0 1-.252-.573l.381-.158a.444.444 0 0 1 .28-.031.268.268 0 0 1 .193.14c.042.081.087.162.136.241a.921.921 0 0 0 .427.364.933.933 0 0 0 .34.056.977.977 0 0 0 .385-.07c.11-.049.2-.112.273-.189a.783.783 0 0 0 .22-.543c0-.12-.013-.23-.038-.328a.49.49 0 0 0-.161-.256.876.876 0 0 0-.354-.164 2.513 2.513 0 0 0-.612-.06v-.616c.212-.002.388-.022.528-.06a.9.9 0 0 0 .333-.154.534.534 0 0 0 .175-.24.926.926 0 0 0 .049-.309c0-.238-.067-.419-.2-.542-.133-.124-.31-.186-.532-.186a.851.851 0 0 0-.518.168.749.749 0 0 0-.276.413c-.04.107-.092.179-.158.214-.063.035-.153.043-.27.024l-.454-.08Zm35.285-1.411V86h-.483a.46.46 0 0 1-.189-.035.46.46 0 0 1-.143-.126l-2.643-3.374c.014.154.021.296.021.427V86h-.829v-5.061h.493c.04 0 .074.002.102.007.03.002.056.01.077.021a.2.2 0 0 1 .066.046.555.555 0 0 1 .07.076l2.653 3.389a6.918 6.918 0 0 1-.024-.462v-3.077h.829Z" fill="#fff"/><g opacity=".5"><path opacity=".5" d="M34.5 76.5a5 5 0 1 0 0-10 5 5 0 0 0 0 10Z" stroke="#fff" stroke-opacity=".5"/><path opacity=".5" d="m36.444 68.495 1.061 1.06-1.946 1.946 1.945 1.943-1.06 1.061-1.946-1.943-1.943 1.943-1.06-1.06 1.942-1.943-1.945-1.942 1.06-1.062 1.946 1.944 1.946-1.947Z" fill="#EEE"/></g><g opacity=".5"><path opacity=".5" d="M66.5 76.5a5 5 0 1 0 0-10 5 5 0 0 0 0 10Z" stroke="#fff" stroke-opacity=".5"/><path opacity=".5" d="m68.444 68.495 1.061 1.06-1.946 1.946 1.945 1.943-1.06 1.061-1.946-1.943-1.943 1.943-1.06-1.06 1.942-1.943-1.945-1.942 1.06-1.062 1.946 1.944 1.946-1.947Z" fill="#EEE"/></g><path fill-rule="evenodd" clip-rule="evenodd" d="M82 64h-2l2.5-4 2.5 4h-3Z" fill="#fff" fill-opacity=".5"/><path d="M82 78V63.5h1V78h-1Z" fill="#fff" fill-opacity=".5"/><g opacity=".5" fill="#fff" fill-opacity=".5"><path opacity=".5" fill-rule="evenodd" clip-rule="evenodd" d="M113.5 64h-2l2.5-4 2.5 4h-3Z"/><path opacity=".5" d="M113.5 78V63.5h1V78h-1Z"/></g><path fill-rule="evenodd" clip-rule="evenodd" d="M50 64h-2l2.5-4 2.5 4h-3Z" fill="#fff" fill-opacity=".5"/><path d="M50 78V63.5h1V78h-1Z" fill="#fff" fill-opacity=".5"/><path fill-rule="evenodd" clip-rule="evenodd" d="M18 64h-2l2.5-4 2.5 4h-3Z" fill="#fff" fill-opacity=".5"/><path d="M18 78V63.5h1V78h-1Z" fill="#fff" fill-opacity=".5"/><g opacity=".5" fill="#fff" fill-opacity=".5"><path opacity=".5" fill-rule="evenodd" clip-rule="evenodd" d="M34 64h-2l2.5-4 2.5 4h-3Z"/><path opacity=".5" d="M34 66v-2.5h1V66h-1Z"/></g><g opacity=".5" fill="#fff" fill-opacity=".5"><path opacity=".5" fill-rule="evenodd" clip-rule="evenodd" d="M66 64h-2l2.5-4 2.5 4h-3Z"/><path opacity=".5" d="M66 66v-2.5h1V66h-1Z"/></g><g opacity=".5" fill="#fff" fill-opacity=".5"><path opacity=".5" fill-rule="evenodd" clip-rule="evenodd" d="M45 72v2l-4-2.5 4-2.5v3Z"/><path opacity=".5" d="M50 72h-5.5v-1H50v1Z"/></g><g opacity=".5" fill="#fff" fill-opacity=".5"><path opacity=".5" fill-rule="evenodd" clip-rule="evenodd" d="M77 72v2l-4-2.5 4-2.5v3Z"/><path opacity=".5" d="M82 72h-5.5v-1H82v1Z"/></g><path fill-rule="evenodd" clip-rule="evenodd" d="M29 84v2l-4-2.5 4-2.5v3Z" fill="#fff" fill-opacity=".5"/><path d="M45 84H28.5v-1H45v1Z" fill="#fff" fill-opacity=".5"/><g opacity=".5" fill="#fff" fill-opacity=".5"><path opacity=".5" fill-rule="evenodd" clip-rule="evenodd" d="M24 71v-2l4 2.5-4 2.5v-3Z"/><path opacity=".5" d="M19 71h5.5v1H19v-1Z"/></g><g opacity=".5" fill="#fff" fill-opacity=".5"><path opacity=".5" fill-rule="evenodd" clip-rule="evenodd" d="M56 71v-2l4 2.5-4 2.5v-3Z"/><path opacity=".5" d="M51 71h5.5v1H51v-1Z"/></g><path d="M1.5 96.5a2 2 0 0 1 2-2h126a2 2 0 0 1 2 2v5a2 2 0 0 1-2 2H3.5a2 2 0 0 1-2-2v-5Z" fill="url(#e)"/><path d="M11.932 96.4v5.1h-.616a.568.568 0 0 1-.231-.042.592.592 0 0 1-.182-.154l-2.405-3.041c.01.09.016.18.018.265.005.084.007.164.007.238v2.734H7.48v-5.1h.623c.051 0 .094.003.13.007a.299.299 0 0 1 .094.029.261.261 0 0 1 .08.052.914.914 0 0 1 .088.094l2.426 3.063a4.17 4.17 0 0 1-.032-.546V96.4h1.043Zm5.89 2.548c0 .37-.065.712-.193 1.03a2.479 2.479 0 0 1-.536.829c-.23.233-.51.416-.836.549a2.81 2.81 0 0 1-1.082.2c-.396 0-.758-.066-1.085-.2a2.515 2.515 0 0 1-.84-.549 2.523 2.523 0 0 1-.539-.83 2.763 2.763 0 0 1-.189-1.029c0-.368.063-.711.19-1.028.128-.318.307-.593.538-.826.234-.234.514-.417.84-.55.327-.133.689-.2 1.085-.2.397 0 .757.068 1.082.204.326.132.605.316.836.549.231.233.41.509.536.826.128.317.192.66.192 1.025Zm-1.212 0a2.19 2.19 0 0 0-.098-.678 1.427 1.427 0 0 0-.283-.515 1.2 1.2 0 0 0-.448-.322 1.548 1.548 0 0 0-.606-.112c-.228 0-.433.037-.612.112a1.23 1.23 0 0 0-.452.322c-.121.14-.214.312-.28.514a2.202 2.202 0 0 0-.098.68c0 .254.033.483.098.686.066.2.159.37.28.51.124.14.274.248.452.322.18.073.384.109.612.109.227 0 .428-.036.606-.109.177-.074.327-.182.448-.322.123-.14.218-.31.283-.51.066-.204.098-.432.098-.687Zm4.508-1.637v1.291h1.743v.913h-1.743v1.985h-1.19v-5.1h3.283v.91h-2.093Zm8.402-.91v5.099h-1.043v-2.933c0-.068.002-.141.004-.22.005-.08.012-.16.021-.242l-1.354 2.621a.441.441 0 0 1-.413.249h-.162a.479.479 0 0 1-.245-.063.448.448 0 0 1-.168-.186l-1.354-2.628a9.7 9.7 0 0 1 .017.249c.005.079.008.152.008.22v2.933h-1.043v-5.1h.902c.052 0 .096.002.133.004.04.002.075.01.105.021a.21.21 0 0 1 .081.056c.026.023.05.057.073.102l1.313 2.586a6.08 6.08 0 0 1 .259.571 3.907 3.907 0 0 1 .262-.581l1.31-2.576a.423.423 0 0 1 .07-.102.242.242 0 0 1 .084-.056.339.339 0 0 1 .101-.021c.04-.002.085-.004.136-.004h.903Z" fill="#DBDBDB"/><path d="M64.511 96h-28a1 1 0 0 0-1 1v4a1 1 0 0 0 1 1h28a1 1 0 0 0 1-1v-4a1 1 0 0 0-1-1Z" fill="#fff" fill-opacity=".5"/><path d="M64.511 96h-28a1 1 0 0 0-1 1v4a1 1 0 0 0 1 1h28a1 1 0 0 0 1-1v-4a1 1 0 0 0-1-1Z" fill="#369EB3" stroke="#369EB3"/><path d="M47.647 100.52a.38.38 0 0 1 .276.098.328.328 0 0 1 .102.252v.63H44.44v-.35c0-.068.014-.14.042-.217a.523.523 0 0 1 .147-.21l1.47-1.48c.126-.126.236-.247.329-.361.093-.114.17-.226.23-.336a1.348 1.348 0 0 0 .182-.686c0-.203-.048-.358-.146-.466-.096-.11-.243-.164-.441-.164a.65.65 0 0 0-.637.444c-.05.129-.113.214-.193.256-.079.042-.192.051-.34.028l-.573-.102c.037-.254.108-.475.213-.664.108-.19.24-.347.396-.473a1.6 1.6 0 0 1 .542-.28c.203-.063.422-.094.655-.094.252 0 .478.037.679.112.203.072.375.173.518.304.142.13.25.287.325.469.077.18.116.378.116.595 0 .187-.027.36-.08.518a2.05 2.05 0 0 1-.214.455 3.24 3.24 0 0 1-.319.416c-.119.133-.246.269-.381.407l-.998 1.021a3.06 3.06 0 0 1 .382-.091c.126-.021.242-.031.35-.031h.952Zm8.763.196v.784h-2.905v-.784h.98v-2.572a5.339 5.339 0 0 1 .014-.4l-.58.484a.358.358 0 0 1-.155.073.469.469 0 0 1-.14 0 .381.381 0 0 1-.119-.046.287.287 0 0 1-.077-.07l-.343-.454 1.59-1.334h.895v4.319h.84ZM52.386 99l-2.812 2.143v-4.286L52.387 99Z" fill="#000"/><path d="M70.773 97.856a1.95 1.95 0 0 1 .214-.664c.107-.19.239-.347.395-.473a1.6 1.6 0 0 1 .543-.28c.203-.063.421-.094.654-.094.252 0 .476.036.672.108.196.07.362.166.497.287a1.235 1.235 0 0 1 .413.928c0 .16-.016.303-.049.426a.977.977 0 0 1-.147.319.885.885 0 0 1-.238.228c-.093.06-.2.111-.322.153.565.199.847.584.847 1.156 0 .27-.049.506-.147.706a1.45 1.45 0 0 1-.395.501 1.695 1.695 0 0 1-.57.301 2.354 2.354 0 0 1-.68.098 2.49 2.49 0 0 1-.647-.077 1.536 1.536 0 0 1-.504-.245 1.67 1.67 0 0 1-.389-.427 2.916 2.916 0 0 1-.287-.616l.483-.196a.603.603 0 0 1 .35-.038.328.328 0 0 1 .231.16c.105.194.216.335.333.424a.692.692 0 0 0 .416.129.701.701 0 0 0 .539-.217.649.649 0 0 0 .137-.22.713.713 0 0 0 .045-.249c0-.11-.008-.207-.024-.293a.378.378 0 0 0-.126-.228.711.711 0 0 0-.319-.143 2.551 2.551 0 0 0-.588-.053v-.749c.213 0 .384-.016.515-.049a.787.787 0 0 0 .3-.133.412.412 0 0 0 .144-.21.98.98 0 0 0 .035-.27c0-.2-.049-.354-.147-.462-.095-.11-.242-.164-.44-.164a.65.65 0 0 0-.638.444c-.049.129-.113.214-.192.256-.08.042-.193.051-.34.028l-.574-.102Zm13.124 2.664c.117 0 .21.033.277.098a.328.328 0 0 1 .101.252v.63h-3.584v-.35c0-.068.014-.14.042-.217a.523.523 0 0 1 .147-.21l1.47-1.48c.126-.126.236-.247.33-.361.093-.114.17-.226.23-.336a1.348 1.348 0 0 0 .182-.686c0-.203-.049-.358-.147-.466-.095-.11-.242-.164-.44-.164a.65.65 0 0 0-.638.444c-.049.129-.113.214-.192.256-.08.042-.193.051-.34.028l-.574-.102a1.95 1.95 0 0 1 .214-.664c.107-.19.239-.347.395-.473a1.6 1.6 0 0 1 .543-.28c.203-.063.421-.094.654-.094.252 0 .479.037.68.112.202.072.375.173.517.304.143.13.251.287.326.469.077.18.115.378.115.595 0 .187-.026.36-.08.518a2.05 2.05 0 0 1-.214.455 3.24 3.24 0 0 1-.318.416c-.12.133-.246.269-.382.407l-.997 1.021c.128-.039.255-.07.381-.091.126-.021.243-.031.35-.031h.952Zm10.279.196v.784H91.27v-.784h.98v-2.572a5.57 5.57 0 0 1 .014-.4l-.581.484a.357.357 0 0 1-.154.073.469.469 0 0 1-.14 0 .382.382 0 0 1-.12-.046.288.288 0 0 1-.076-.07l-.343-.454 1.589-1.334h.896v4.319h.84ZM78.761 99l-2.812 2.143v-4.286L78.762 99Zm10.313 0-2.813 2.143v-4.286L89.075 99Zm16.807 1.52c.117 0 .209.033.277.098a.33.33 0 0 1 .101.252v.63h-3.584v-.35c0-.068.014-.14.042-.217a.523.523 0 0 1 .147-.21l1.47-1.48c.126-.126.236-.247.329-.361.094-.114.171-.226.231-.336a1.36 1.36 0 0 0 .182-.686c0-.203-.049-.358-.147-.466-.095-.11-.242-.164-.441-.164a.65.65 0 0 0-.637.444c-.049.129-.113.214-.192.256-.08.042-.193.051-.34.028l-.574-.102a1.95 1.95 0 0 1 .214-.664c.107-.19.239-.347.395-.473.159-.126.34-.22.543-.28.203-.063.421-.094.654-.094.252 0 .479.037.679.112.203.072.376.173.518.304.143.13.251.287.326.469.077.18.115.378.115.595 0 .187-.027.36-.08.518a2.05 2.05 0 0 1-.214.455 3.262 3.262 0 0 1-.318.416 11.57 11.57 0 0 1-.382.407l-.997 1.021c.128-.039.255-.07.381-.091.126-.021.243-.031.35-.031h.952Zm10.279.196v.784h-2.905v-.784h.98v-2.572a6.405 6.405 0 0 1 .014-.4l-.581.484a.363.363 0 0 1-.154.073.376.376 0 0 1-.259-.046.282.282 0 0 1-.077-.07l-.343-.454 1.589-1.334h.896v4.319h.84Zm6.645-2.86a1.95 1.95 0 0 1 .214-.664c.107-.19.239-.347.395-.473.159-.126.34-.22.543-.28.203-.063.421-.094.654-.094.252 0 .476.036.672.108.196.07.362.166.497.287a1.235 1.235 0 0 1 .413.928c0 .16-.016.303-.049.426a.949.949 0 0 1-.147.319.88.88 0 0 1-.238.228c-.093.06-.2.111-.322.153.565.199.847.584.847 1.156 0 .27-.049.506-.147.706a1.45 1.45 0 0 1-.395.501 1.704 1.704 0 0 1-.571.301 2.352 2.352 0 0 1-.679.098 2.49 2.49 0 0 1-.647-.077 1.536 1.536 0 0 1-.504-.245 1.672 1.672 0 0 1-.389-.427 2.966 2.966 0 0 1-.287-.616l.483-.196a.603.603 0 0 1 .35-.038.325.325 0 0 1 .231.16c.105.194.216.335.333.424a.692.692 0 0 0 .416.129.698.698 0 0 0 .539-.217.656.656 0 0 0 .137-.22.72.72 0 0 0 .045-.249c0-.11-.008-.207-.024-.293a.378.378 0 0 0-.126-.228.71.71 0 0 0-.319-.143 2.551 2.551 0 0 0-.588-.053v-.749c.213 0 .384-.016.515-.049a.792.792 0 0 0 .301-.133.41.41 0 0 0 .143-.21.954.954 0 0 0 .035-.27c0-.2-.049-.354-.147-.462-.095-.11-.242-.164-.441-.164a.65.65 0 0 0-.637.444c-.049.129-.113.214-.192.256-.08.042-.193.051-.34.028l-.574-.102ZM110.761 99l-2.812 2.143v-4.286L110.761 99Zm7.5 0 2.813-2.143v4.286L118.261 99Z" fill="#DBDBDB"/><path d="M3.5 95h126v-1H3.5v1ZM131 96.5v5h1v-5h-1Zm-1.5 6.5H3.5v1h126v-1ZM2 101.5v-5H1v5h1Zm1.5 1.5a1.5 1.5 0 0 1-1.5-1.5H1a2.5 2.5 0 0 0 2.5 2.5v-1Zm127.5-1.5a1.5 1.5 0 0 1-1.5 1.5v1a2.5 2.5 0 0 0 2.5-2.5h-1Zm-1.5-6.5a1.5 1.5 0 0 1 1.5 1.5h1a2.5 2.5 0 0 0-2.5-2.5v1Zm-126-1A2.5 2.5 0 0 0 1 96.5h1A1.5 1.5 0 0 1 3.5 95v-1Z" fill="url(#f)"/><path fill-rule="evenodd" clip-rule="evenodd" d="M1 4v3h120v8h7v2l4-2.5-4-2.5v2h-5V4H1Z" fill="#fff" fill-opacity=".5"/><path d="M21.5 26.5h-6a2 2 0 0 0-2 2v6a2 2 0 0 0 2 2h6a2 2 0 0 0 2-2v-6a2 2 0 0 0-2-2Zm32 0h-6a2 2 0 0 0-2 2v6a2 2 0 0 0 2 2h6a2 2 0 0 0 2-2v-6a2 2 0 0 0-2-2Zm32 0h-6a2 2 0 0 0-2 2v6a2 2 0 0 0 2 2h6a2 2 0 0 0 2-2v-6a2 2 0 0 0-2-2Z" stroke="#fff" stroke-opacity=".5"/><path opacity=".5" d="M117 26.5h-6a2 2 0 0 0-2 2v6a2 2 0 0 0 2 2h6a2 2 0 0 0 2-2v-6a2 2 0 0 0-2-2Z" stroke="#fff" stroke-opacity=".5"/><path d="M20.092 33.352V34h-2.8v-.648h1.026v-2.95c0-.117.003-.237.01-.36l-.728.608a.319.319 0 0 1-.126.064.32.32 0 0 1-.21-.035.223.223 0 0 1-.063-.06l-.273-.375 1.544-1.312h.71v4.42h.91Zm31.811-.157c.093 0 .167.027.22.08.057.052.085.12.085.207V34h-3.472v-.287a.488.488 0 0 1 .154-.357l1.536-1.54c.128-.13.243-.255.343-.374.103-.12.188-.237.256-.354a1.61 1.61 0 0 0 .154-.353c.037-.122.056-.249.056-.382a.885.885 0 0 0-.053-.318.624.624 0 0 0-.15-.235.58.58 0 0 0-.231-.14.865.865 0 0 0-.301-.049.882.882 0 0 0-.287.046.731.731 0 0 0-.231.122.749.749 0 0 0-.277.413c-.04.107-.09.179-.154.214-.063.035-.154.043-.273.024l-.455-.08a1.86 1.86 0 0 1 .203-.637c.1-.185.225-.338.375-.459a1.54 1.54 0 0 1 .518-.276c.196-.063.406-.095.63-.095.233 0 .447.035.64.105a1.326 1.326 0 0 1 .819.746c.077.177.116.374.116.591 0 .187-.028.36-.084.518a2.04 2.04 0 0 1-.22.455 2.953 2.953 0 0 1-.323.42c-.123.135-.253.273-.388.413l-1.141 1.166a2.402 2.402 0 0 1 .637-.102h1.298Zm28.945-2.845a1.86 1.86 0 0 1 .203-.637c.1-.185.225-.338.374-.459a1.54 1.54 0 0 1 .518-.276c.196-.063.406-.095.63-.095.234 0 .444.034.63.102a1.4 1.4 0 0 1 .483.276 1.225 1.225 0 0 1 .413.928c0 .16-.018.303-.056.427a.918.918 0 0 1-.406.55 1.59 1.59 0 0 1-.34.157c.304.095.53.241.68.437.15.196.224.442.224.739a1.453 1.453 0 0 1-.518 1.158 1.66 1.66 0 0 1-.553.298 2.12 2.12 0 0 1-.662.101c-.254 0-.476-.03-.665-.087a1.444 1.444 0 0 1-.85-.68 2.835 2.835 0 0 1-.252-.573l.381-.158a.444.444 0 0 1 .28-.031.268.268 0 0 1 .193.14c.042.081.087.162.136.241a.921.921 0 0 0 .427.364.933.933 0 0 0 .34.056.977.977 0 0 0 .385-.07c.11-.049.2-.112.273-.189a.783.783 0 0 0 .22-.542c0-.122-.013-.231-.038-.33a.49.49 0 0 0-.161-.255.876.876 0 0 0-.354-.164 2.512 2.512 0 0 0-.612-.06v-.616c.212-.002.388-.022.528-.06a.9.9 0 0 0 .333-.153.534.534 0 0 0 .175-.242.926.926 0 0 0 .049-.308c0-.238-.067-.419-.2-.542-.133-.124-.31-.186-.532-.186a.851.851 0 0 0-.518.168.749.749 0 0 0-.276.413c-.04.107-.092.179-.158.214-.063.035-.153.043-.27.024l-.454-.08Zm35.285-1.411V34h-.483a.46.46 0 0 1-.189-.035.46.46 0 0 1-.143-.126l-2.643-3.374c.014.154.021.296.021.427V34h-.829v-5.061h.493c.04 0 .074.002.102.007.03.002.056.01.077.021a.2.2 0 0 1 .066.046.555.555 0 0 1 .07.076l2.653 3.389a6.918 6.918 0 0 1-.024-.462v-3.077h.829Z" fill="#fff"/><g opacity=".5"><path opacity=".5" d="M34.5 24.5a5 5 0 1 0 0-10 5 5 0 0 0 0 10Z" stroke="#fff" stroke-opacity=".5"/><path opacity=".5" d="m36.444 16.495 1.061 1.06-1.946 1.946 1.945 1.943-1.06 1.061-1.946-1.943-1.943 1.943-1.06-1.06 1.942-1.943-1.945-1.942 1.06-1.062 1.946 1.944 1.946-1.947Z" fill="#EEE"/></g><g opacity=".5"><path opacity=".5" d="M66.5 24.5a5 5 0 1 0 0-10 5 5 0 0 0 0 10Z" stroke="#fff" stroke-opacity=".5"/><path opacity=".5" d="m68.444 16.495 1.061 1.06-1.946 1.946 1.945 1.943-1.06 1.061-1.946-1.943-1.943 1.943-1.06-1.06 1.942-1.943-1.945-1.942 1.06-1.062 1.946 1.944 1.946-1.947Z" fill="#EEE"/></g><path fill-rule="evenodd" clip-rule="evenodd" d="M82 12h-2l2.5-4 2.5 4h-3Z" fill="#fff" fill-opacity=".5"/><path d="M82 26V11.5h1V26h-1Z" fill="#fff" fill-opacity=".5"/><g opacity=".5" fill="#fff" fill-opacity=".5"><path opacity=".5" fill-rule="evenodd" clip-rule="evenodd" d="M113.5 12h-2l2.5-4 2.5 4h-3Z"/><path opacity=".5" d="M113.5 26V11.5h1V26h-1Z"/></g><path fill-rule="evenodd" clip-rule="evenodd" d="M50 12h-2l2.5-4 2.5 4h-3Z" fill="#fff" fill-opacity=".5"/><path d="M50 26V11.5h1V26h-1Z" fill="#fff" fill-opacity=".5"/><path fill-rule="evenodd" clip-rule="evenodd" d="M18 12h-2l2.5-4 2.5 4h-3Z" fill="#fff" fill-opacity=".5"/><path d="M18 26V11.5h1V26h-1Z" fill="#fff" fill-opacity=".5"/><g opacity=".5" fill="#fff" fill-opacity=".5"><path opacity=".5" fill-rule="evenodd" clip-rule="evenodd" d="M34 12h-2l2.5-4 2.5 4h-3Z"/><path opacity=".5" d="M34 14v-2.5h1V14h-1Z"/></g><g opacity=".5" fill="#fff" fill-opacity=".5"><path opacity=".5" fill-rule="evenodd" clip-rule="evenodd" d="M66 12h-2l2.5-4 2.5 4h-3Z"/><path opacity=".5" d="M66 14v-2.5h1V14h-1Z"/></g><g opacity=".5" fill="#fff" fill-opacity=".5"><path opacity=".5" fill-rule="evenodd" clip-rule="evenodd" d="M45 20v2l-4-2.5 4-2.5v3Z"/><path opacity=".5" d="M50 20h-5.5v-1H50v1Z"/></g><g opacity=".5" fill="#fff" fill-opacity=".5"><path opacity=".5" fill-rule="evenodd" clip-rule="evenodd" d="M77 20v2l-4-2.5 4-2.5v3Z"/><path opacity=".5" d="M82 20h-5.5v-1H82v1Z"/></g><g opacity=".5" fill="#fff" fill-opacity=".5"><path opacity=".5" fill-rule="evenodd" clip-rule="evenodd" d="M24 19v-2l4 2.5-4 2.5v-3Z"/><path opacity=".5" d="M19 19h5.5v1H19v-1Z"/></g><g opacity=".5" fill="#fff" fill-opacity=".5"><path opacity=".5" fill-rule="evenodd" clip-rule="evenodd" d="M56 19v-2l4 2.5-4 2.5v-3Z"/><path opacity=".5" d="M51 19h5.5v1H51v-1Z"/></g><path d="M1.5 44.5a2 2 0 0 1 2-2h126a2 2 0 0 1 2 2v5a2 2 0 0 1-2 2H3.5a2 2 0 0 1-2-2v-5Z" fill="url(#g)"/><path d="M32.5 44h-28a1 1 0 0 0-1 1v4a1 1 0 0 0 1 1h28a1 1 0 0 0 1-1v-4a1 1 0 0 0-1-1Z" fill="#fff" fill-opacity=".5"/><path d="M32.5 44h-28a1 1 0 0 0-1 1v4a1 1 0 0 0 1 1h28a1 1 0 0 0 1-1v-4a1 1 0 0 0-1-1Z" fill="#369EB3" stroke="#369EB3"/><path d="M11.932 44.4v5.1h-.616a.568.568 0 0 1-.231-.042.592.592 0 0 1-.182-.154l-2.405-3.041c.01.09.016.18.018.266.005.083.007.163.007.237V49.5H7.48v-5.1h.623a.95.95 0 0 1 .13.008.299.299 0 0 1 .094.027c.028.012.055.03.08.053a.914.914 0 0 1 .088.095l2.426 3.062a4.17 4.17 0 0 1-.032-.546v-2.698h1.043Zm5.89 2.549c0 .368-.065.711-.193 1.029a2.478 2.478 0 0 1-.536.829c-.23.233-.51.416-.836.55a2.83 2.83 0 0 1-1.082.199c-.396 0-.758-.066-1.085-.2a2.511 2.511 0 0 1-.84-.549 2.522 2.522 0 0 1-.539-.83 2.763 2.763 0 0 1-.189-1.028c0-.37.063-.712.19-1.03.128-.317.307-.592.538-.825.234-.234.514-.417.84-.55.327-.133.689-.2 1.085-.2.397 0 .757.068 1.082.203.326.134.605.317.836.55.231.233.41.509.536.826.128.317.192.66.192 1.026Zm-1.212 0a2.19 2.19 0 0 0-.098-.68 1.427 1.427 0 0 0-.283-.514 1.2 1.2 0 0 0-.448-.322 1.548 1.548 0 0 0-.606-.112c-.228 0-.433.037-.612.112a1.23 1.23 0 0 0-.452.322c-.121.14-.214.311-.28.514a2.206 2.206 0 0 0-.098.68c0 .254.033.483.098.686.066.2.159.37.28.51.124.14.274.248.452.322.18.073.384.109.612.109.227 0 .428-.036.606-.108a1.2 1.2 0 0 0 .448-.323c.123-.14.218-.31.283-.51.066-.203.098-.432.098-.686Zm4.508-1.639v1.292h1.743v.914h-1.743V49.5h-1.19v-5.1h3.283v.91h-2.093Zm8.402-.91v5.1h-1.043v-2.933c0-.068.002-.141.004-.22.005-.08.012-.16.021-.242l-1.354 2.622a.441.441 0 0 1-.413.248h-.162a.479.479 0 0 1-.245-.063.449.449 0 0 1-.168-.185l-1.354-2.629a9.7 9.7 0 0 1 .017.248c.005.08.008.153.008.221V49.5h-1.043v-5.1h.902c.052 0 .096.002.133.004.04.002.075.01.105.021a.21.21 0 0 1 .081.056c.026.023.05.057.073.102l1.313 2.586c.047.089.091.18.133.277.044.095.086.193.126.294a3.907 3.907 0 0 1 .262-.581l1.31-2.576a.423.423 0 0 1 .07-.102.242.242 0 0 1 .084-.056.339.339 0 0 1 .101-.021c.04-.002.085-.004.136-.004h.903Z" fill="#000"/><path d="M47.647 48.52a.38.38 0 0 1 .276.098.328.328 0 0 1 .102.252v.63H44.44v-.35c0-.068.014-.14.042-.217a.523.523 0 0 1 .147-.21l1.47-1.48c.126-.127.236-.247.329-.361.093-.114.17-.226.23-.336a1.348 1.348 0 0 0 .182-.686c0-.203-.048-.358-.146-.465-.096-.11-.243-.165-.441-.165a.65.65 0 0 0-.637.445c-.05.128-.113.213-.193.255-.079.042-.192.051-.34.028l-.573-.102c.037-.254.108-.476.213-.665.108-.189.24-.346.396-.472a1.6 1.6 0 0 1 .542-.28c.203-.063.422-.095.655-.095.252 0 .478.038.679.112.203.073.375.174.518.305.142.13.25.287.325.469.077.18.116.378.116.595 0 .187-.027.36-.08.518a2.05 2.05 0 0 1-.214.455 3.24 3.24 0 0 1-.319.416c-.119.133-.246.269-.381.407l-.998 1.021a2.737 2.737 0 0 1 .732-.122h.952Zm8.763.196v.784h-2.905v-.784h.98v-2.572a5.339 5.339 0 0 1 .014-.4l-.58.483a.358.358 0 0 1-.155.074.469.469 0 0 1-.14 0 .381.381 0 0 1-.119-.046.287.287 0 0 1-.077-.07l-.343-.455 1.59-1.333h.895v4.319h.84ZM52.386 47l-2.812 2.143v-4.286L52.387 47Zm18.387-1.144c.038-.254.109-.476.214-.665.107-.189.239-.346.395-.472a1.6 1.6 0 0 1 .543-.28c.203-.063.421-.095.654-.095.252 0 .476.037.672.109.196.07.362.166.497.287a1.235 1.235 0 0 1 .413.927c0 .162-.016.304-.049.428a.977.977 0 0 1-.147.318.885.885 0 0 1-.238.228c-.093.06-.2.111-.322.154.565.198.847.583.847 1.154 0 .271-.049.507-.147.708-.098.2-.23.367-.395.5a1.69 1.69 0 0 1-.57.301 2.343 2.343 0 0 1-.68.098 2.49 2.49 0 0 1-.647-.077 1.536 1.536 0 0 1-.504-.245 1.676 1.676 0 0 1-.389-.427 2.909 2.909 0 0 1-.287-.616l.483-.196a.603.603 0 0 1 .35-.038.328.328 0 0 1 .231.16c.105.194.216.335.333.424a.69.69 0 0 0 .416.13.7.7 0 0 0 .539-.217.657.657 0 0 0 .137-.221.71.71 0 0 0 .045-.248c0-.11-.008-.208-.024-.294a.378.378 0 0 0-.126-.228.711.711 0 0 0-.319-.144 2.551 2.551 0 0 0-.588-.052v-.749c.213 0 .384-.016.515-.049a.787.787 0 0 0 .3-.133.412.412 0 0 0 .144-.21.98.98 0 0 0 .035-.27c0-.2-.049-.354-.147-.462-.095-.11-.242-.164-.44-.164a.65.65 0 0 0-.638.445c-.049.128-.113.213-.192.255-.08.042-.193.051-.34.028l-.574-.102Zm13.124 2.664c.117 0 .21.033.277.098a.328.328 0 0 1 .101.252v.63h-3.584v-.35c0-.068.014-.14.042-.217a.523.523 0 0 1 .147-.21l1.47-1.48c.126-.127.236-.247.33-.361.093-.114.17-.226.23-.336a1.348 1.348 0 0 0 .182-.686c0-.203-.049-.358-.147-.465-.095-.11-.242-.165-.44-.165a.65.65 0 0 0-.638.445c-.049.128-.113.213-.192.255-.08.042-.193.051-.34.028l-.574-.102c.038-.254.109-.476.214-.665.107-.189.239-.346.395-.472a1.6 1.6 0 0 1 .543-.28c.203-.063.421-.095.654-.095.252 0 .479.038.68.112.202.073.375.174.517.305.143.13.251.287.326.469.077.18.115.378.115.595 0 .187-.026.36-.08.518a2.05 2.05 0 0 1-.214.455 3.24 3.24 0 0 1-.318.416c-.12.133-.246.269-.382.407l-.997 1.021c.128-.04.255-.07.381-.09a2.14 2.14 0 0 1 .35-.032h.952Zm10.279.196v.784H91.27v-.784h.98v-2.572a5.57 5.57 0 0 1 .014-.4l-.581.483a.357.357 0 0 1-.154.074.469.469 0 0 1-.14 0 .382.382 0 0 1-.12-.046.288.288 0 0 1-.076-.07l-.343-.455 1.589-1.333h.896v4.319h.84ZM78.761 47l-2.812 2.143v-4.286L78.762 47Zm10.313 0-2.813 2.143v-4.286L89.075 47Zm16.807 1.52c.117 0 .209.033.277.098a.33.33 0 0 1 .101.252v.63h-3.584v-.35c0-.068.014-.14.042-.217a.523.523 0 0 1 .147-.21l1.47-1.48c.126-.127.236-.247.329-.361.094-.114.171-.226.231-.336a1.36 1.36 0 0 0 .182-.686c0-.203-.049-.358-.147-.465-.095-.11-.242-.165-.441-.165a.65.65 0 0 0-.637.445c-.049.128-.113.213-.192.255-.08.042-.193.051-.34.028l-.574-.102c.038-.254.109-.476.214-.665.107-.189.239-.346.395-.472.159-.126.34-.22.543-.28.203-.063.421-.095.654-.095.252 0 .479.038.679.112.203.073.376.174.518.305.143.13.251.287.326.469.077.18.115.378.115.595 0 .187-.027.36-.08.518a2.05 2.05 0 0 1-.214.455 3.262 3.262 0 0 1-.318.416 11.57 11.57 0 0 1-.382.407l-.997 1.021a2.691 2.691 0 0 1 .731-.122h.952Zm10.279.196v.784h-2.905v-.784h.98v-2.572a6.405 6.405 0 0 1 .014-.4l-.581.483a.363.363 0 0 1-.154.074.376.376 0 0 1-.259-.046.282.282 0 0 1-.077-.07l-.343-.455 1.589-1.333h.896v4.319h.84Zm6.645-2.86c.038-.254.109-.476.214-.665.107-.189.239-.346.395-.472.159-.126.34-.22.543-.28.203-.063.421-.095.654-.095.252 0 .476.037.672.109.196.07.362.166.497.287a1.235 1.235 0 0 1 .413.927c0 .162-.016.304-.049.428a.949.949 0 0 1-.147.318.88.88 0 0 1-.238.228c-.093.06-.2.111-.322.154.565.198.847.583.847 1.154 0 .271-.049.507-.147.708-.098.2-.23.367-.395.5a1.699 1.699 0 0 1-.571.301 2.342 2.342 0 0 1-.679.098 2.49 2.49 0 0 1-.647-.077 1.536 1.536 0 0 1-.504-.245 1.677 1.677 0 0 1-.389-.427 2.96 2.96 0 0 1-.287-.616l.483-.196a.603.603 0 0 1 .35-.038.325.325 0 0 1 .231.16c.105.194.216.335.333.424a.69.69 0 0 0 .416.13.697.697 0 0 0 .539-.217.664.664 0 0 0 .137-.221.716.716 0 0 0 .045-.248c0-.11-.008-.208-.024-.294a.378.378 0 0 0-.126-.228.71.71 0 0 0-.319-.144 2.551 2.551 0 0 0-.588-.052v-.749c.213 0 .384-.016.515-.049a.792.792 0 0 0 .301-.133.41.41 0 0 0 .143-.21.954.954 0 0 0 .035-.27c0-.2-.049-.354-.147-.462-.095-.11-.242-.164-.441-.164a.65.65 0 0 0-.637.445c-.049.128-.113.213-.192.255-.08.042-.193.051-.34.028l-.574-.102ZM110.761 47l-2.812 2.143v-4.286L110.761 47Zm7.5 0 2.813-2.143v4.286L118.261 47Z" fill="#DBDBDB"/><path d="M3.5 43h126v-1H3.5v1ZM131 44.5v5h1v-5h-1Zm-1.5 6.5H3.5v1h126v-1ZM2 49.5v-5H1v5h1ZM3.5 51A1.5 1.5 0 0 1 2 49.5H1A2.5 2.5 0 0 0 3.5 52v-1ZM131 49.5a1.5 1.5 0 0 1-1.5 1.5v1a2.5 2.5 0 0 0 2.5-2.5h-1Zm-1.5-6.5a1.5 1.5 0 0 1 1.5 1.5h1a2.5 2.5 0 0 0-2.5-2.5v1Zm-126-1A2.5 2.5 0 0 0 1 44.5h1A1.5 1.5 0 0 1 3.5 43v-1Z" fill="url(#h)"/><defs><linearGradient id="a" x1="66.5" y1="198.5" x2="66.5" y2="207.5" gradientUnits="userSpaceOnUse"><stop stop-color="#545454"/><stop offset="1" stop-color="#383838"/></linearGradient><linearGradient id="b" x1="66.5" y1="198" x2="66.5" y2="208" gradientUnits="userSpaceOnUse"><stop stop-color="#545454"/><stop offset="1" stop-color="#383838"/></linearGradient><linearGradient id="c" x1="66.5" y1="146.5" x2="66.5" y2="155.5" gradientUnits="userSpaceOnUse"><stop stop-color="#545454"/><stop offset="1" stop-color="#383838"/></linearGradient><linearGradient id="d" x1="66.5" y1="146" x2="66.5" y2="156" gradientUnits="userSpaceOnUse"><stop stop-color="#545454"/><stop offset="1" stop-color="#383838"/></linearGradient><linearGradient id="e" x1="66.5" y1="94.5" x2="66.5" y2="103.5" gradientUnits="userSpaceOnUse"><stop stop-color="#545454"/><stop offset="1" stop-color="#383838"/></linearGradient><linearGradient id="f" x1="66.5" y1="94" x2="66.5" y2="104" gradientUnits="userSpaceOnUse"><stop stop-color="#545454"/><stop offset="1" stop-color="#383838"/></linearGradient><linearGradient id="g" x1="66.5" y1="42.5" x2="66.5" y2="51.5" gradientUnits="userSpaceOnUse"><stop stop-color="#545454"/><stop offset="1" stop-color="#383838"/></linearGradient><linearGradient id="h" x1="66.5" y1="42" x2="66.5" y2="52" gradientUnits="userSpaceOnUse"><stop stop-color="#545454"/><stop offset="1" stop-color="#383838"/></linearGradient></defs></svg>