<svg width="51" height="760" fill="none" xmlns="http://www.w3.org/2000/svg"><rect x="2" y="2" width="22" height="12" rx="1" fill="url(#a)" fill-opacity=".25"/><rect x="2" y="2" width="22" height="12" rx="1" stroke="url(#b)" stroke-opacity=".25"/><rect x="27" y="78" width="22" height="12" rx="1" fill="url(#c)" fill-opacity=".25"/><rect x="27" y="78" width="22" height="12" rx="1" stroke="url(#d)" stroke-opacity=".25"/><rect x="2" y="169" width="22" height="12" rx="1" fill="url(#e)" fill-opacity=".25"/><rect x="2" y="169" width="22" height="12" rx="1" stroke="url(#f)" stroke-opacity=".25"/><rect x="27" y="245" width="22" height="12" rx="1" fill="url(#g)" fill-opacity=".25"/><rect x="27" y="245" width="22" height="12" rx="1" stroke="url(#h)" stroke-opacity=".25"/><rect x="2" y="336" width="22" height="12" rx="1" fill="url(#i)" fill-opacity=".25"/><rect x="2" y="336" width="22" height="12" rx="1" stroke="url(#j)" stroke-opacity=".25"/><rect x="27" y="412" width="22" height="12" rx="1" fill="url(#k)" fill-opacity=".25"/><rect x="27" y="412" width="22" height="12" rx="1" stroke="url(#l)" stroke-opacity=".25"/><rect x="2" y="503" width="22" height="12" rx="1" fill="url(#m)" fill-opacity=".25"/><rect x="2" y="503" width="22" height="12" rx="1" stroke="url(#n)" stroke-opacity=".25"/><rect x="27" y="579" width="22" height="12" rx="1" fill="url(#o)" fill-opacity=".25"/><rect x="27" y="579" width="22" height="12" rx="1" stroke="url(#p)" stroke-opacity=".25"/><rect x="2" y="670" width="22" height="12" rx="1" fill="url(#q)" fill-opacity=".25"/><rect x="2" y="670" width="22" height="12" rx="1" stroke="url(#r)" stroke-opacity=".25"/><rect x="27" y="746" width="22" height="12" rx="1" fill="url(#s)" fill-opacity=".25"/><rect x="27" y="746" width="22" height="12" rx="1" stroke="url(#t)" stroke-opacity=".25"/><defs><linearGradient id="a" x1="13" y1="2" x2="13" y2="14" gradientUnits="userSpaceOnUse"><stop stop-color="#B4B4B4"/><stop offset="1" stop-color="#E4E4E4"/></linearGradient><linearGradient id="b" x1="13" y1="2" x2="13" y2="14" gradientUnits="userSpaceOnUse"><stop stop-color="#B4B4B4"/><stop offset="1" stop-color="#E4E4E4"/></linearGradient><linearGradient id="c" x1="38" y1="78" x2="38" y2="90" gradientUnits="userSpaceOnUse"><stop stop-color="#B4B4B4"/><stop offset="1" stop-color="#E4E4E4"/></linearGradient><linearGradient id="d" x1="38" y1="78" x2="38" y2="90" gradientUnits="userSpaceOnUse"><stop stop-color="#B4B4B4"/><stop offset="1" stop-color="#E4E4E4"/></linearGradient><linearGradient id="e" x1="13" y1="169" x2="13" y2="181" gradientUnits="userSpaceOnUse"><stop stop-color="#B4B4B4"/><stop offset="1" stop-color="#E4E4E4"/></linearGradient><linearGradient id="f" x1="13" y1="169" x2="13" y2="181" gradientUnits="userSpaceOnUse"><stop stop-color="#B4B4B4"/><stop offset="1" stop-color="#E4E4E4"/></linearGradient><linearGradient id="g" x1="38" y1="245" x2="38" y2="257" gradientUnits="userSpaceOnUse"><stop stop-color="#B4B4B4"/><stop offset="1" stop-color="#E4E4E4"/></linearGradient><linearGradient id="h" x1="38" y1="245" x2="38" y2="257" gradientUnits="userSpaceOnUse"><stop stop-color="#B4B4B4"/><stop offset="1" stop-color="#E4E4E4"/></linearGradient><linearGradient id="i" x1="13" y1="336" x2="13" y2="348" gradientUnits="userSpaceOnUse"><stop stop-color="#B4B4B4"/><stop offset="1" stop-color="#E4E4E4"/></linearGradient><linearGradient id="j" x1="13" y1="336" x2="13" y2="348" gradientUnits="userSpaceOnUse"><stop stop-color="#B4B4B4"/><stop offset="1" stop-color="#E4E4E4"/></linearGradient><linearGradient id="k" x1="38" y1="412" x2="38" y2="424" gradientUnits="userSpaceOnUse"><stop stop-color="#B4B4B4"/><stop offset="1" stop-color="#E4E4E4"/></linearGradient><linearGradient id="l" x1="38" y1="412" x2="38" y2="424" gradientUnits="userSpaceOnUse"><stop stop-color="#B4B4B4"/><stop offset="1" stop-color="#E4E4E4"/></linearGradient><linearGradient id="m" x1="13" y1="503" x2="13" y2="515" gradientUnits="userSpaceOnUse"><stop stop-color="#B4B4B4"/><stop offset="1" stop-color="#E4E4E4"/></linearGradient><linearGradient id="n" x1="13" y1="503" x2="13" y2="515" gradientUnits="userSpaceOnUse"><stop stop-color="#B4B4B4"/><stop offset="1" stop-color="#E4E4E4"/></linearGradient><linearGradient id="o" x1="38" y1="579" x2="38" y2="591" gradientUnits="userSpaceOnUse"><stop stop-color="#B4B4B4"/><stop offset="1" stop-color="#E4E4E4"/></linearGradient><linearGradient id="p" x1="38" y1="579" x2="38" y2="591" gradientUnits="userSpaceOnUse"><stop stop-color="#B4B4B4"/><stop offset="1" stop-color="#E4E4E4"/></linearGradient><linearGradient id="q" x1="13" y1="670" x2="13" y2="682" gradientUnits="userSpaceOnUse"><stop stop-color="#B4B4B4"/><stop offset="1" stop-color="#E4E4E4"/></linearGradient><linearGradient id="r" x1="13" y1="670" x2="13" y2="682" gradientUnits="userSpaceOnUse"><stop stop-color="#B4B4B4"/><stop offset="1" stop-color="#E4E4E4"/></linearGradient><linearGradient id="s" x1="38" y1="746" x2="38" y2="758" gradientUnits="userSpaceOnUse"><stop stop-color="#B4B4B4"/><stop offset="1" stop-color="#E4E4E4"/></linearGradient><linearGradient id="t" x1="38" y1="746" x2="38" y2="758" gradientUnits="userSpaceOnUse"><stop stop-color="#B4B4B4"/><stop offset="1" stop-color="#E4E4E4"/></linearGradient></defs></svg>