<svg width="12" height="306" fill="none" xmlns="http://www.w3.org/2000/svg"><rect x=".5" y="20" width="11" height="11" rx="1" fill="url(#a)" fill-opacity=".25"/><rect x=".5" y="20" width="11" height="11" rx="1" stroke="url(#b)" stroke-opacity=".25"/><rect x=".5" y="38" width="11" height="11" rx="1" fill="url(#c)" fill-opacity=".25"/><rect x=".5" y="38" width="11" height="11" rx="1" stroke="url(#d)" stroke-opacity=".25"/><rect x=".5" y="56" width="11" height="11" rx="1" fill="url(#e)" fill-opacity=".25"/><rect x=".5" y="56" width="11" height="11" rx="1" stroke="url(#f)" stroke-opacity=".25"/><rect x=".5" y="74" width="11" height="11" rx="1" fill="url(#g)" fill-opacity=".25"/><rect x=".5" y="74" width="11" height="11" rx="1" stroke="url(#h)" stroke-opacity=".25"/><rect x=".5" y="92" width="11" height="11" rx="1" fill="url(#i)" fill-opacity=".25"/><rect x=".5" y="92" width="11" height="11" rx="1" stroke="url(#j)" stroke-opacity=".25"/><rect x=".5" y="110" width="11" height="11" rx="1" fill="url(#k)" fill-opacity=".25"/><rect x=".5" y="110" width="11" height="11" rx="1" stroke="url(#l)" stroke-opacity=".25"/><rect x=".5" y="128" width="11" height="11" rx="1" fill="url(#m)" fill-opacity=".25"/><rect x=".5" y="128" width="11" height="11" rx="1" stroke="url(#n)" stroke-opacity=".25"/><rect x=".5" y="146" width="11" height="11" rx="1" fill="url(#o)" fill-opacity=".25"/><rect x=".5" y="146" width="11" height="11" rx="1" stroke="url(#p)" stroke-opacity=".25"/><rect x=".5" y="164" width="11" height="11" rx="1" fill="url(#q)" fill-opacity=".25"/><rect x=".5" y="164" width="11" height="11" rx="1" stroke="url(#r)" stroke-opacity=".25"/><rect x=".5" y="182" width="11" height="11" rx="1" fill="url(#s)" fill-opacity=".25"/><rect x=".5" y="182" width="11" height="11" rx="1" stroke="url(#t)" stroke-opacity=".25"/><rect x=".5" y="200" width="11" height="11" rx="1" fill="url(#u)" fill-opacity=".25"/><rect x=".5" y="200" width="11" height="11" rx="1" stroke="url(#v)" stroke-opacity=".25"/><rect x=".5" y="218" width="11" height="11" rx="1" fill="url(#w)" fill-opacity=".25"/><rect x=".5" y="218" width="11" height="11" rx="1" stroke="url(#x)" stroke-opacity=".25"/><rect x=".5" y="236" width="11" height="11" rx="1" fill="url(#y)" fill-opacity=".25"/><rect x=".5" y="236" width="11" height="11" rx="1" stroke="url(#z)" stroke-opacity=".25"/><rect x=".5" y="254" width="11" height="11" rx="1" fill="url(#A)" fill-opacity=".25"/><rect x=".5" y="254" width="11" height="11" rx="1" stroke="url(#B)" stroke-opacity=".25"/><rect x=".5" y="272" width="11" height="11" rx="1" fill="url(#C)" fill-opacity=".25"/><rect x=".5" y="272" width="11" height="11" rx="1" stroke="url(#D)" stroke-opacity=".25"/><rect x=".5" y="290" width="11" height="11" rx="1" fill="url(#E)" fill-opacity=".25"/><rect x=".5" y="290" width="11" height="11" rx="1" stroke="url(#F)" stroke-opacity=".25"/><defs><linearGradient id="a" x1="6" y1="20" x2="6" y2="31" gradientUnits="userSpaceOnUse"><stop stop-color="#B4B4B4"/><stop offset="1" stop-color="#E4E4E4"/></linearGradient><linearGradient id="b" x1="6" y1="20" x2="6" y2="31" gradientUnits="userSpaceOnUse"><stop stop-color="#B4B4B4"/><stop offset="1" stop-color="#E4E4E4"/></linearGradient><linearGradient id="c" x1="6" y1="38" x2="6" y2="49" gradientUnits="userSpaceOnUse"><stop stop-color="#B4B4B4"/><stop offset="1" stop-color="#E4E4E4"/></linearGradient><linearGradient id="d" x1="6" y1="38" x2="6" y2="49" gradientUnits="userSpaceOnUse"><stop stop-color="#B4B4B4"/><stop offset="1" stop-color="#E4E4E4"/></linearGradient><linearGradient id="e" x1="6" y1="56" x2="6" y2="67" gradientUnits="userSpaceOnUse"><stop stop-color="#B4B4B4"/><stop offset="1" stop-color="#E4E4E4"/></linearGradient><linearGradient id="f" x1="6" y1="56" x2="6" y2="67" gradientUnits="userSpaceOnUse"><stop stop-color="#B4B4B4"/><stop offset="1" stop-color="#E4E4E4"/></linearGradient><linearGradient id="g" x1="6" y1="74" x2="6" y2="85" gradientUnits="userSpaceOnUse"><stop stop-color="#B4B4B4"/><stop offset="1" stop-color="#E4E4E4"/></linearGradient><linearGradient id="h" x1="6" y1="74" x2="6" y2="85" gradientUnits="userSpaceOnUse"><stop stop-color="#B4B4B4"/><stop offset="1" stop-color="#E4E4E4"/></linearGradient><linearGradient id="i" x1="6" y1="92" x2="6" y2="103" gradientUnits="userSpaceOnUse"><stop stop-color="#B4B4B4"/><stop offset="1" stop-color="#E4E4E4"/></linearGradient><linearGradient id="j" x1="6" y1="92" x2="6" y2="103" gradientUnits="userSpaceOnUse"><stop stop-color="#B4B4B4"/><stop offset="1" stop-color="#E4E4E4"/></linearGradient><linearGradient id="k" x1="6" y1="110" x2="6" y2="121" gradientUnits="userSpaceOnUse"><stop stop-color="#B4B4B4"/><stop offset="1" stop-color="#E4E4E4"/></linearGradient><linearGradient id="l" x1="6" y1="110" x2="6" y2="121" gradientUnits="userSpaceOnUse"><stop stop-color="#B4B4B4"/><stop offset="1" stop-color="#E4E4E4"/></linearGradient><linearGradient id="m" x1="6" y1="128" x2="6" y2="139" gradientUnits="userSpaceOnUse"><stop stop-color="#B4B4B4"/><stop offset="1" stop-color="#E4E4E4"/></linearGradient><linearGradient id="n" x1="6" y1="128" x2="6" y2="139" gradientUnits="userSpaceOnUse"><stop stop-color="#B4B4B4"/><stop offset="1" stop-color="#E4E4E4"/></linearGradient><linearGradient id="o" x1="6" y1="146" x2="6" y2="157" gradientUnits="userSpaceOnUse"><stop stop-color="#B4B4B4"/><stop offset="1" stop-color="#E4E4E4"/></linearGradient><linearGradient id="p" x1="6" y1="146" x2="6" y2="157" gradientUnits="userSpaceOnUse"><stop stop-color="#B4B4B4"/><stop offset="1" stop-color="#E4E4E4"/></linearGradient><linearGradient id="q" x1="6" y1="164" x2="6" y2="175" gradientUnits="userSpaceOnUse"><stop stop-color="#B4B4B4"/><stop offset="1" stop-color="#E4E4E4"/></linearGradient><linearGradient id="r" x1="6" y1="164" x2="6" y2="175" gradientUnits="userSpaceOnUse"><stop stop-color="#B4B4B4"/><stop offset="1" stop-color="#E4E4E4"/></linearGradient><linearGradient id="s" x1="6" y1="182" x2="6" y2="193" gradientUnits="userSpaceOnUse"><stop stop-color="#B4B4B4"/><stop offset="1" stop-color="#E4E4E4"/></linearGradient><linearGradient id="t" x1="6" y1="182" x2="6" y2="193" gradientUnits="userSpaceOnUse"><stop stop-color="#B4B4B4"/><stop offset="1" stop-color="#E4E4E4"/></linearGradient><linearGradient id="u" x1="6" y1="200" x2="6" y2="211" gradientUnits="userSpaceOnUse"><stop stop-color="#B4B4B4"/><stop offset="1" stop-color="#E4E4E4"/></linearGradient><linearGradient id="v" x1="6" y1="200" x2="6" y2="211" gradientUnits="userSpaceOnUse"><stop stop-color="#B4B4B4"/><stop offset="1" stop-color="#E4E4E4"/></linearGradient><linearGradient id="w" x1="6" y1="218" x2="6" y2="229" gradientUnits="userSpaceOnUse"><stop stop-color="#B4B4B4"/><stop offset="1" stop-color="#E4E4E4"/></linearGradient><linearGradient id="x" x1="6" y1="218" x2="6" y2="229" gradientUnits="userSpaceOnUse"><stop stop-color="#B4B4B4"/><stop offset="1" stop-color="#E4E4E4"/></linearGradient><linearGradient id="y" x1="6" y1="236" x2="6" y2="247" gradientUnits="userSpaceOnUse"><stop stop-color="#B4B4B4"/><stop offset="1" stop-color="#E4E4E4"/></linearGradient><linearGradient id="z" x1="6" y1="236" x2="6" y2="247" gradientUnits="userSpaceOnUse"><stop stop-color="#B4B4B4"/><stop offset="1" stop-color="#E4E4E4"/></linearGradient><linearGradient id="A" x1="6" y1="254" x2="6" y2="265" gradientUnits="userSpaceOnUse"><stop stop-color="#B4B4B4"/><stop offset="1" stop-color="#E4E4E4"/></linearGradient><linearGradient id="B" x1="6" y1="254" x2="6" y2="265" gradientUnits="userSpaceOnUse"><stop stop-color="#B4B4B4"/><stop offset="1" stop-color="#E4E4E4"/></linearGradient><linearGradient id="C" x1="6" y1="272" x2="6" y2="283" gradientUnits="userSpaceOnUse"><stop stop-color="#B4B4B4"/><stop offset="1" stop-color="#E4E4E4"/></linearGradient><linearGradient id="D" x1="6" y1="272" x2="6" y2="283" gradientUnits="userSpaceOnUse"><stop stop-color="#B4B4B4"/><stop offset="1" stop-color="#E4E4E4"/></linearGradient><linearGradient id="E" x1="6" y1="290" x2="6" y2="301" gradientUnits="userSpaceOnUse"><stop stop-color="#B4B4B4"/><stop offset="1" stop-color="#E4E4E4"/></linearGradient><linearGradient id="F" x1="6" y1="290" x2="6" y2="301" gradientUnits="userSpaceOnUse"><stop stop-color="#B4B4B4"/><stop offset="1" stop-color="#E4E4E4"/></linearGradient></defs></svg>