<svg width="11" height="22" fill="none" xmlns="http://www.w3.org/2000/svg"><path d="M8.25 2.5h-5.5a.25.25 0 0 0-.25.25v5.5c0 .138.112.25.25.25h5.5a.25.25 0 0 0 .25-.25v-5.5a.25.25 0 0 0-.25-.25Z" fill="url(#a)" fill-opacity=".25"/><path d="M8.25 2.25h-5.5a.5.5 0 0 0-.5.5v5.5a.5.5 0 0 0 .5.5h5.5a.5.5 0 0 0 .5-.5v-5.5a.5.5 0 0 0-.5-.5Z" stroke="url(#b)" stroke-opacity=".5" stroke-width=".5"/><path d="M7.75 13.5h-4.5a.75.75 0 0 0-.75.75v4.5c0 .414.336.75.75.75h4.5a.75.75 0 0 0 .75-.75v-4.5a.75.75 0 0 0-.75-.75Z" fill="url(#c)" fill-opacity=".25"/><path d="M7.75 13.25h-4.5a1 1 0 0 0-1 1v4.5a1 1 0 0 0 1 1h4.5a1 1 0 0 0 1-1v-4.5a1 1 0 0 0-1-1Z" stroke="url(#d)" stroke-opacity=".5" stroke-width=".5"/><defs><linearGradient id="a" x1="5.5" y1="2.5" x2="5.5" y2="8.5" gradientUnits="userSpaceOnUse"><stop stop-color="#B4B4B4"/><stop offset="1" stop-color="#E4E4E4"/></linearGradient><linearGradient id="b" x1="5.5" y1="2.5" x2="5.5" y2="8.5" gradientUnits="userSpaceOnUse"><stop stop-color="#B4B4B4"/><stop offset="1" stop-color="#E4E4E4"/></linearGradient><linearGradient id="c" x1="5.5" y1="13.5" x2="5.5" y2="19.5" gradientUnits="userSpaceOnUse"><stop stop-color="#B4B4B4"/><stop offset="1" stop-color="#E4E4E4"/></linearGradient><linearGradient id="d" x1="5.5" y1="13.5" x2="5.5" y2="19.5" gradientUnits="userSpaceOnUse"><stop stop-color="#B4B4B4"/><stop offset="1" stop-color="#E4E4E4"/></linearGradient></defs></svg>