<svg width="51" height="117" fill="none" xmlns="http://www.w3.org/2000/svg"><path transform="translate(2.5 2)" fill="url(#a)" fill-opacity=".15" d="M0 0h46v10H0z"/><rect x="2.5" y="2" width="46" height="10" rx="1" fill="url(#b)" fill-opacity=".15"/><rect x="2.5" y="2" width="46" height="10" rx="1" stroke="url(#c)" stroke-opacity=".15"/><path transform="translate(2.5 53.5)" fill="url(#d)" fill-opacity=".15" d="M0 0h46v10H0z"/><rect x="2.5" y="53.5" width="46" height="10" rx="1" fill="url(#e)" fill-opacity=".15"/><rect x="2.5" y="53.5" width="46" height="10" rx="1" stroke="url(#f)" stroke-opacity=".15"/><path transform="translate(2.5 105)" fill="url(#g)" fill-opacity=".15" d="M0 0h46v10H0z"/><rect x="2.5" y="105" width="46" height="10" rx="1" fill="url(#h)" fill-opacity=".15"/><rect x="2.5" y="105" width="46" height="10" rx="1" stroke="url(#i)" stroke-opacity=".15"/><defs><linearGradient id="a" x1="23" y1="0" x2="23" y2="10" gradientUnits="userSpaceOnUse"><stop stop-color="#B4B4B4"/><stop offset="1" stop-color="#E4E4E4"/></linearGradient><linearGradient id="b" x1="25.5" y1="2" x2="25.5" y2="12" gradientUnits="userSpaceOnUse"><stop stop-color="#B4B4B4"/><stop offset="1" stop-color="#E4E4E4"/></linearGradient><linearGradient id="c" x1="25.5" y1="2" x2="25.5" y2="12" gradientUnits="userSpaceOnUse"><stop stop-color="#B4B4B4"/><stop offset="1" stop-color="#E4E4E4"/></linearGradient><linearGradient id="d" x1="23" y1="0" x2="23" y2="10" gradientUnits="userSpaceOnUse"><stop stop-color="#B4B4B4"/><stop offset="1" stop-color="#E4E4E4"/></linearGradient><linearGradient id="e" x1="25.5" y1="53.5" x2="25.5" y2="63.5" gradientUnits="userSpaceOnUse"><stop stop-color="#B4B4B4"/><stop offset="1" stop-color="#E4E4E4"/></linearGradient><linearGradient id="f" x1="25.5" y1="53.5" x2="25.5" y2="63.5" gradientUnits="userSpaceOnUse"><stop stop-color="#B4B4B4"/><stop offset="1" stop-color="#E4E4E4"/></linearGradient><linearGradient id="g" x1="23" y1="0" x2="23" y2="10" gradientUnits="userSpaceOnUse"><stop stop-color="#B4B4B4"/><stop offset="1" stop-color="#E4E4E4"/></linearGradient><linearGradient id="h" x1="25.5" y1="105" x2="25.5" y2="115" gradientUnits="userSpaceOnUse"><stop stop-color="#B4B4B4"/><stop offset="1" stop-color="#E4E4E4"/></linearGradient><linearGradient id="i" x1="25.5" y1="105" x2="25.5" y2="115" gradientUnits="userSpaceOnUse"><stop stop-color="#B4B4B4"/><stop offset="1" stop-color="#E4E4E4"/></linearGradient></defs></svg>