<svg width="49" height="18" fill="none" xmlns="http://www.w3.org/2000/svg"><path fill-rule="evenodd" clip-rule="evenodd" d="M.5 4V3c0-.276.098-.512.293-.707A.964.964 0 0 1 1.5 2h46c.276 0 .512.098.707.293A.963.963 0 0 1 48.5 3v9a.962.962 0 0 1-.293.707.962.962 0 0 1-.707.293h-46a.962.962 0 0 1-.707-.293A.964.964 0 0 1 .5 12V4Z" fill="url(#a)" fill-opacity=".25"/><path d="M.5 4V3c0-.276.098-.512.293-.707A.964.964 0 0 1 1.5 2h46c.276 0 .512.098.707.293A.963.963 0 0 1 48.5 3v9a.962.962 0 0 1-.293.707.962.962 0 0 1-.707.293h-46a.962.962 0 0 1-.707-.293A.964.964 0 0 1 .5 12V4Z" stroke="url(#b)" stroke-opacity=".25"/><defs><linearGradient id="a" x1="24.5" y1="2" x2="24.5" y2="13" gradientUnits="userSpaceOnUse"><stop stop-color="#B4B4B4"/><stop offset="1" stop-color="#E4E4E4"/></linearGradient><linearGradient id="b" x1="24.5" y1="2" x2="24.5" y2="13" gradientUnits="userSpaceOnUse"><stop stop-color="#B4B4B4"/><stop offset="1" stop-color="#E4E4E4"/></linearGradient></defs></svg>