<svg width="96" height="126" fill="none" xmlns="http://www.w3.org/2000/svg"><rect x="4.5" y="2" width="11" height="11" rx="1" fill="url(#a)" fill-opacity=".25"/><rect x="4.5" y="2" width="11" height="11" rx="1" stroke="url(#b)" stroke-opacity=".25"/><rect x="17.5" y="20" width="11" height="11" rx="1" fill="url(#c)" fill-opacity=".25"/><rect x="17.5" y="20" width="11" height="11" rx="1" stroke="url(#d)" stroke-opacity=".25"/><rect x="30.5" y="38" width="11" height="11" rx="1" fill="url(#e)" fill-opacity=".25"/><rect x="30.5" y="38" width="11" height="11" rx="1" stroke="url(#f)" stroke-opacity=".25"/><rect x="43.5" y="56" width="11" height="11" rx="1" fill="url(#g)" fill-opacity=".25"/><rect x="43.5" y="56" width="11" height="11" rx="1" stroke="url(#h)" stroke-opacity=".25"/><rect x="56.5" y="74" width="11" height="11" rx="1" fill="url(#i)" fill-opacity=".25"/><rect x="56.5" y="74" width="11" height="11" rx="1" stroke="url(#j)" stroke-opacity=".25"/><rect x="69.5" y="92" width="11" height="11" rx="1" fill="url(#k)" fill-opacity=".25"/><rect x="69.5" y="92" width="11" height="11" rx="1" stroke="url(#l)" stroke-opacity=".25"/><rect x="82.5" y="110" width="11" height="11" rx="1" fill="url(#m)" fill-opacity=".25"/><rect x="82.5" y="110" width="11" height="11" rx="1" stroke="url(#n)" stroke-opacity=".25"/><defs><linearGradient id="a" x1="10" y1="2" x2="10" y2="13" gradientUnits="userSpaceOnUse"><stop stop-color="#B4B4B4"/><stop offset="1" stop-color="#E4E4E4"/></linearGradient><linearGradient id="b" x1="10" y1="2" x2="10" y2="13" gradientUnits="userSpaceOnUse"><stop stop-color="#B4B4B4"/><stop offset="1" stop-color="#E4E4E4"/></linearGradient><linearGradient id="c" x1="23" y1="20" x2="23" y2="31" gradientUnits="userSpaceOnUse"><stop stop-color="#B4B4B4"/><stop offset="1" stop-color="#E4E4E4"/></linearGradient><linearGradient id="d" x1="23" y1="20" x2="23" y2="31" gradientUnits="userSpaceOnUse"><stop stop-color="#B4B4B4"/><stop offset="1" stop-color="#E4E4E4"/></linearGradient><linearGradient id="e" x1="36" y1="38" x2="36" y2="49" gradientUnits="userSpaceOnUse"><stop stop-color="#B4B4B4"/><stop offset="1" stop-color="#E4E4E4"/></linearGradient><linearGradient id="f" x1="36" y1="38" x2="36" y2="49" gradientUnits="userSpaceOnUse"><stop stop-color="#B4B4B4"/><stop offset="1" stop-color="#E4E4E4"/></linearGradient><linearGradient id="g" x1="49" y1="56" x2="49" y2="67" gradientUnits="userSpaceOnUse"><stop stop-color="#B4B4B4"/><stop offset="1" stop-color="#E4E4E4"/></linearGradient><linearGradient id="h" x1="49" y1="56" x2="49" y2="67" gradientUnits="userSpaceOnUse"><stop stop-color="#B4B4B4"/><stop offset="1" stop-color="#E4E4E4"/></linearGradient><linearGradient id="i" x1="62" y1="74" x2="62" y2="85" gradientUnits="userSpaceOnUse"><stop stop-color="#B4B4B4"/><stop offset="1" stop-color="#E4E4E4"/></linearGradient><linearGradient id="j" x1="62" y1="74" x2="62" y2="85" gradientUnits="userSpaceOnUse"><stop stop-color="#B4B4B4"/><stop offset="1" stop-color="#E4E4E4"/></linearGradient><linearGradient id="k" x1="75" y1="92" x2="75" y2="103" gradientUnits="userSpaceOnUse"><stop stop-color="#B4B4B4"/><stop offset="1" stop-color="#E4E4E4"/></linearGradient><linearGradient id="l" x1="75" y1="92" x2="75" y2="103" gradientUnits="userSpaceOnUse"><stop stop-color="#B4B4B4"/><stop offset="1" stop-color="#E4E4E4"/></linearGradient><linearGradient id="m" x1="88" y1="110" x2="88" y2="121" gradientUnits="userSpaceOnUse"><stop stop-color="#B4B4B4"/><stop offset="1" stop-color="#E4E4E4"/></linearGradient><linearGradient id="n" x1="88" y1="110" x2="88" y2="121" gradientUnits="userSpaceOnUse"><stop stop-color="#B4B4B4"/><stop offset="1" stop-color="#E4E4E4"/></linearGradient></defs></svg>