<svg width="106" height="18" fill="none" xmlns="http://www.w3.org/2000/svg"><path d="M1 3a2 2 0 0 1 2-2h98a2 2 0 0 1 2 2v11a2 2 0 0 1-2 2H3a2 2 0 0 1-2-2V3Z" fill="url(#a)" fill-opacity=".25"/><path d="M1.5 3A1.5 1.5 0 0 1 3 1.5h98a1.502 1.502 0 0 1 1.5 1.5v11a1.501 1.501 0 0 1-1.5 1.5H3A1.5 1.5 0 0 1 1.5 14V3Z" stroke="url(#b)" stroke-opacity=".25"/><defs><linearGradient id="a" x1="52" y1="1" x2="52" y2="16" gradientUnits="userSpaceOnUse"><stop stop-color="#B4B4B4"/><stop offset="1" stop-color="#E4E4E4"/></linearGradient><linearGradient id="b" x1="52" y1="1" x2="52" y2="16" gradientUnits="userSpaceOnUse"><stop stop-color="#B4B4B4"/><stop offset="1" stop-color="#E4E4E4"/></linearGradient></defs></svg>