<svg width="11" height="11" fill="none" xmlns="http://www.w3.org/2000/svg"><path d="M.5 2.5a2 2 0 0 1 2-2h6a2 2 0 0 1 2 2v6a2 2 0 0 1-2 2h-6a2 2 0 0 1-2-2v-6Z" fill="#242424"/><path d="M8.25 2.5h-5.5a.25.25 0 0 0-.25.25v5.5c0 .138.112.25.25.25h5.5a.25.25 0 0 0 .25-.25v-5.5a.25.25 0 0 0-.25-.25Z" fill="url(#a)" fill-opacity=".25"/><path d="M8.25 2.25h-5.5a.5.5 0 0 0-.5.5v5.5a.5.5 0 0 0 .5.5h5.5a.5.5 0 0 0 .5-.5v-5.5a.5.5 0 0 0-.5-.5Z" stroke="url(#b)" stroke-opacity=".5" stroke-width=".5"/><path fill-rule="evenodd" clip-rule="evenodd" d="m3 3 4.979.012L8 4l-4.979-.012L3 3Zm4.979 2.012L3 5l.021.988L8 6l-.021-.988ZM3 7l4.979.012L8 8l-4.979-.012L3 7Z" fill="#DBDBDB"/><defs><linearGradient id="a" x1="5.5" y1="2.5" x2="5.5" y2="8.5" gradientUnits="userSpaceOnUse"><stop stop-color="#B4B4B4"/><stop offset="1" stop-color="#E4E4E4"/></linearGradient><linearGradient id="b" x1="5.5" y1="2.5" x2="5.5" y2="8.5" gradientUnits="userSpaceOnUse"><stop stop-color="#B4B4B4"/><stop offset="1" stop-color="#E4E4E4"/></linearGradient></defs></svg>