<svg width="133" height="18" fill="none" xmlns="http://www.w3.org/2000/svg"><path d="M2 3.5a2 2 0 0 1 2-2h124a2 2 0 0 1 2 2v11a2 2 0 0 1-2 2H4a2 2 0 0 1-2-2v-11Z" fill="url(#a)" fill-opacity=".25"/><path d="M2.5 3.5A1.5 1.5 0 0 1 4 2h124a1.502 1.502 0 0 1 1.5 1.5v11A1.501 1.501 0 0 1 128 16H4a1.5 1.5 0 0 1-1.5-1.5v-11Z" stroke="url(#b)" stroke-opacity=".25"/><defs><linearGradient id="a" x1="66" y1="1.5" x2="66" y2="16.5" gradientUnits="userSpaceOnUse"><stop stop-color="#B4B4B4"/><stop offset="1" stop-color="#E4E4E4"/></linearGradient><linearGradient id="b" x1="66" y1="1.5" x2="66" y2="16.5" gradientUnits="userSpaceOnUse"><stop stop-color="#B4B4B4"/><stop offset="1" stop-color="#E4E4E4"/></linearGradient></defs></svg>