<svg width="11" height="22" fill="none" xmlns="http://www.w3.org/2000/svg"><path fill-rule="evenodd" clip-rule="evenodd" d="M1 3.5A2.5 2.5 0 0 1 3.5 1h4A2.5 2.5 0 0 1 10 3.5v4A2.5 2.5 0 0 1 7.5 10h-4A2.5 2.5 0 0 1 1 7.5v-4Z" fill="url(#a)" fill-opacity=".25"/><path fill-rule="evenodd" clip-rule="evenodd" d="M1 14.5A2.5 2.5 0 0 1 3.5 12h4a2.5 2.5 0 0 1 2.5 2.5v4A2.5 2.5 0 0 1 7.5 21h-4A2.5 2.5 0 0 1 1 18.5v-4Z" fill="url(#b)" fill-opacity=".25"/><defs><linearGradient id="a" x1="5.5" y1="1" x2="5.5" y2="10" gradientUnits="userSpaceOnUse"><stop stop-color="#B4B4B4"/><stop offset="1" stop-color="#E4E4E4"/></linearGradient><linearGradient id="b" x1="5.5" y1="12" x2="5.5" y2="21" gradientUnits="userSpaceOnUse"><stop stop-color="#B4B4B4"/><stop offset="1" stop-color="#E4E4E4"/></linearGradient></defs></svg>