<svg width="180" height="126" fill="none" xmlns="http://www.w3.org/2000/svg"><path fill-rule="evenodd" clip-rule="evenodd" d="M3 9h12V8H3v1Z" fill="#369EB3"/><path fill-rule="evenodd" clip-rule="evenodd" d="M3 9h12V8H3v1Z" fill="url(#a)" fill-opacity=".5"/><path d="M7.538 26.087c4.851.02 6.45 3.59 6.454 4.913L15 30.997c-.004-1.98-2.145-6.104-7.718-5.995H3v1.087h4.538v-.002Z" fill="#369EB3"/><path d="M7.538 26.087c4.851.02 6.45 3.59 6.454 4.913L15 30.997c-.004-1.98-2.145-6.104-7.718-5.995H3v1.087h4.538v-.002Z" fill="url(#b)" fill-opacity=".5"/><path fill-rule="evenodd" clip-rule="evenodd" d="M28 26h-7v-1h7c1.314 0 2.597.288 3.544 1.25C32.487 27.206 33 28.735 33 31h-1c0-2.136-.487-3.357-1.169-4.05-.678-.688-1.645-.95-2.831-.95Z" fill="#369EB3"/><path fill-rule="evenodd" clip-rule="evenodd" d="M28 26h-7v-1h7c1.314 0 2.597.288 3.544 1.25C32.487 27.206 33 28.735 33 31h-1c0-2.136-.487-3.357-1.169-4.05-.678-.688-1.645-.95-2.831-.95Z" fill="url(#c)" fill-opacity=".5"/><path d="M43.538 26.087c4.852.02 6.45 3.59 6.454 4.913L51 30.997c-.004-1.98-2.145-6.104-7.718-5.995H39v1.087h4.538v-.002Z" fill="#369EB3"/><path d="M43.538 26.087c4.852.02 6.45 3.59 6.454 4.913L51 30.997c-.004-1.98-2.145-6.104-7.718-5.995H39v1.087h4.538v-.002Z" fill="url(#d)" fill-opacity=".5"/><path d="M41.46 21.9h.158a.426.426 0 0 0 .158-.025.277.277 0 0 0 .107-.085l.998-1.262a.354.354 0 0 1 .13-.11.415.415 0 0 1 .175-.033h.58l-1.218 1.502a.674.674 0 0 1-.222.195.48.48 0 0 1 .147.085.618.618 0 0 1 .128.14L43.856 24h-.593a.39.39 0 0 1-.18-.032.296.296 0 0 1-.097-.1l-1.023-1.335a.267.267 0 0 0-.11-.096.463.463 0 0 0-.18-.027h-.212V24h-.673v-3.615h.673V21.9Zm2.623-.508c.026-.173.074-.325.145-.454a1.08 1.08 0 0 1 .638-.525c.14-.046.29-.068.45-.068.167 0 .317.024.45.073a1 1 0 0 1 .345.197.876.876 0 0 1 .295.663c0 .114-.013.216-.04.305a.659.659 0 0 1-.29.393 1.121 1.121 0 0 1-.242.111c.216.069.378.173.484.313.107.14.16.316.16.527a1.04 1.04 0 0 1-.37.828 1.187 1.187 0 0 1-.394.212 1.517 1.517 0 0 1-.473.073c-.182 0-.34-.02-.475-.063a1.031 1.031 0 0 1-.608-.485 2.024 2.024 0 0 1-.18-.41l.273-.112a.317.317 0 0 1 .2-.022.19.19 0 0 1 .138.1c.03.058.062.115.097.172a.657.657 0 0 0 .305.26.66.66 0 0 0 .242.04.599.599 0 0 0 .587-.367.562.562 0 0 0 .041-.205.93.93 0 0 0-.027-.236.35.35 0 0 0-.116-.182.625.625 0 0 0-.252-.117 1.798 1.798 0 0 0-.438-.043v-.44c.152-.002.278-.016.378-.043.1-.026.18-.063.238-.11a.382.382 0 0 0 .125-.172.663.663 0 0 0 .035-.22c0-.17-.048-.3-.143-.388a.536.536 0 0 0-.38-.132.606.606 0 0 0-.37.12.533.533 0 0 0-.197.295c-.029.077-.066.127-.113.152-.045.026-.11.031-.193.018l-.325-.058Zm3.646.306c.08-.017.157-.029.23-.035a1.89 1.89 0 0 1 .212-.013c.19 0 .358.028.503.085a.984.984 0 0 1 .587.588c.05.133.075.277.075.432 0 .192-.034.367-.102.525a1.187 1.187 0 0 1-.708.668 1.503 1.503 0 0 1-.535.092 1.44 1.44 0 0 1-.322-.035 1.705 1.705 0 0 1-.288-.092 1.838 1.838 0 0 1-.247-.136 1.693 1.693 0 0 1-.203-.162l.19-.262a.184.184 0 0 1 .158-.086c.041 0 .084.014.127.04l.148.088a.863.863 0 0 0 .472.128.764.764 0 0 0 .3-.055.58.58 0 0 0 .215-.153.649.649 0 0 0 .13-.235.951.951 0 0 0 .045-.297c0-.197-.057-.35-.172-.46-.113-.112-.282-.168-.505-.168-.172 0-.348.032-.528.095l-.385-.11.3-1.755h1.785v.262a.29.29 0 0 1-.082.216c-.055.055-.148.082-.28.082h-.993l-.127.753Z" fill="#369EB3"/><path d="M41.46 21.9h.158a.426.426 0 0 0 .158-.025.277.277 0 0 0 .107-.085l.998-1.262a.354.354 0 0 1 .13-.11.415.415 0 0 1 .175-.033h.58l-1.218 1.502a.674.674 0 0 1-.222.195.48.48 0 0 1 .147.085.618.618 0 0 1 .128.14L43.856 24h-.593a.39.39 0 0 1-.18-.032.296.296 0 0 1-.097-.1l-1.023-1.335a.267.267 0 0 0-.11-.096.463.463 0 0 0-.18-.027h-.212V24h-.673v-3.615h.673V21.9Zm2.623-.508c.026-.173.074-.325.145-.454a1.08 1.08 0 0 1 .638-.525c.14-.046.29-.068.45-.068.167 0 .317.024.45.073a1 1 0 0 1 .345.197.876.876 0 0 1 .295.663c0 .114-.013.216-.04.305a.659.659 0 0 1-.29.393 1.121 1.121 0 0 1-.242.111c.216.069.378.173.484.313.107.14.16.316.16.527a1.04 1.04 0 0 1-.37.828 1.187 1.187 0 0 1-.394.212 1.517 1.517 0 0 1-.473.073c-.182 0-.34-.02-.475-.063a1.031 1.031 0 0 1-.608-.485 2.024 2.024 0 0 1-.18-.41l.273-.112a.317.317 0 0 1 .2-.022.19.19 0 0 1 .138.1c.03.058.062.115.097.172a.657.657 0 0 0 .305.26.66.66 0 0 0 .242.04.599.599 0 0 0 .587-.367.562.562 0 0 0 .041-.205.93.93 0 0 0-.027-.236.35.35 0 0 0-.116-.182.625.625 0 0 0-.252-.117 1.798 1.798 0 0 0-.438-.043v-.44c.152-.002.278-.016.378-.043.1-.026.18-.063.238-.11a.382.382 0 0 0 .125-.172.663.663 0 0 0 .035-.22c0-.17-.048-.3-.143-.388a.536.536 0 0 0-.38-.132.606.606 0 0 0-.37.12.533.533 0 0 0-.197.295c-.029.077-.066.127-.113.152-.045.026-.11.031-.193.018l-.325-.058Zm3.646.306c.08-.017.157-.029.23-.035a1.89 1.89 0 0 1 .212-.013c.19 0 .358.028.503.085a.984.984 0 0 1 .587.588c.05.133.075.277.075.432 0 .192-.034.367-.102.525a1.187 1.187 0 0 1-.708.668 1.503 1.503 0 0 1-.535.092 1.44 1.44 0 0 1-.322-.035 1.705 1.705 0 0 1-.288-.092 1.838 1.838 0 0 1-.247-.136 1.693 1.693 0 0 1-.203-.162l.19-.262a.184.184 0 0 1 .158-.086c.041 0 .084.014.127.04l.148.088a.863.863 0 0 0 .472.128.764.764 0 0 0 .3-.055.58.58 0 0 0 .215-.153.649.649 0 0 0 .13-.235.951.951 0 0 0 .045-.297c0-.197-.057-.35-.172-.46-.113-.112-.282-.168-.505-.168-.172 0-.348.032-.528.095l-.385-.11.3-1.755h1.785v.262a.29.29 0 0 1-.082.216c-.055.055-.148.082-.28.082h-.993l-.127.753Z" fill="url(#e)" fill-opacity=".5"/><path fill-rule="evenodd" clip-rule="evenodd" d="m63.07 24.48.36-.952 3.096 1.658-.365.95-3.092-1.656Zm-.358.943-.437 1.155 3.082 1.65.442-1.152-3.087-1.653Zm-1.2 3.173.406-1.075 3.077 1.648-.412 1.072-3.072-1.645Zm-.358.943-.686 1.813-.936-.354 3.883-10.255.935.354-.563 1.488 3.1 1.66.646-1.68.934.36-3.935 10.235-.933-.359.622-1.62-3.067-1.642Z" fill="#369EB3"/><path fill-rule="evenodd" clip-rule="evenodd" d="m63.07 24.48.36-.952 3.096 1.658-.365.95-3.092-1.656Zm-.358.943-.437 1.155 3.082 1.65.442-1.152-3.087-1.653Zm-1.2 3.173.406-1.075 3.077 1.648-.412 1.072-3.072-1.645Zm-.358.943-.686 1.813-.936-.354 3.883-10.255.935.354-.563 1.488 3.1 1.66.646-1.68.934.36-3.935 10.235-.933-.359.622-1.62-3.067-1.642Z" fill="url(#f)" fill-opacity=".5"/><path d="M60.221 23.445V24h-2.117v-3.615h.672v3.06h1.445Z" fill="#369EB3"/><path d="M60.221 23.445V24h-2.117v-3.615h.672v3.06h1.445Z" fill="url(#g)" fill-opacity=".5"/><path fill-rule="evenodd" clip-rule="evenodd" d="m81.07 24.48.36-.952 3.096 1.658-.365.95-3.092-1.656Zm-.358.943-.437 1.155 3.081 1.65.443-1.152-3.087-1.653Zm-1.2 3.173.406-1.075 3.077 1.648-.412 1.072-3.072-1.645Zm-.358.943-.686 1.813-.936-.354 3.883-10.255.935.354-.563 1.488 3.1 1.66.646-1.68.934.36-3.935 10.235-.933-.359.622-1.62-3.067-1.642Z" fill="#369EB3"/><path fill-rule="evenodd" clip-rule="evenodd" d="m81.07 24.48.36-.952 3.096 1.658-.365.95-3.092-1.656Zm-.358.943-.437 1.155 3.081 1.65.443-1.152-3.087-1.653Zm-1.2 3.173.406-1.075 3.077 1.648-.412 1.072-3.072-1.645Zm-.358.943-.686 1.813-.936-.354 3.883-10.255.935.354-.563 1.488 3.1 1.66.646-1.68.934.36-3.935 10.235-.933-.359.622-1.62-3.067-1.642Z" fill="url(#h)" fill-opacity=".5"/><path d="M78.764 20.385 77.304 24h-.607l-1.46-3.615h.54c.058 0 .105.014.142.042a.261.261 0 0 1 .083.11l.852 2.206a4.833 4.833 0 0 1 .155.505c.02-.094.042-.183.065-.268.023-.087.05-.166.078-.238l.847-2.204a.24.24 0 0 1 .078-.105.226.226 0 0 1 .145-.048h.542Z" fill="#369EB3"/><path d="M78.764 20.385 77.304 24h-.607l-1.46-3.615h.54c.058 0 .105.014.142.042a.261.261 0 0 1 .083.11l.852 2.206a4.833 4.833 0 0 1 .155.505c.02-.094.042-.183.065-.268.023-.087.05-.166.078-.238l.847-2.204a.24.24 0 0 1 .078-.105.226.226 0 0 1 .145-.048h.542Z" fill="url(#i)" fill-opacity=".5"/><path fill-rule="evenodd" clip-rule="evenodd" d="m99.07 24.48.36-.952 3.096 1.658-.365.95-3.092-1.656Zm-.358.943-.437 1.155 3.082 1.65.442-1.152-3.087-1.653Zm-1.2 3.173.406-1.075 3.077 1.648-.412 1.072-3.072-1.645Zm-.358.943-.686 1.813-.936-.354 3.883-10.255.935.354-.563 1.488 3.1 1.66.646-1.68.934.36-3.935 10.235-.933-.359.622-1.62-3.067-1.642Z" fill="#369EB3"/><path fill-rule="evenodd" clip-rule="evenodd" d="m99.07 24.48.36-.952 3.096 1.658-.365.95-3.092-1.656Zm-.358.943-.437 1.155 3.082 1.65.442-1.152-3.087-1.653Zm-1.2 3.173.406-1.075 3.077 1.648-.412 1.072-3.072-1.645Zm-.358.943-.686 1.813-.936-.354 3.883-10.255.935.354-.563 1.488 3.1 1.66.646-1.68.934.36-3.935 10.235-.933-.359.622-1.62-3.067-1.642Z" fill="url(#j)" fill-opacity=".5"/><path d="M96.71 22.192c0 .265-.043.509-.132.73a1.676 1.676 0 0 1-.372.573c-.16.16-.353.284-.578.372a2.037 2.037 0 0 1-.75.133h-1.377v-3.615h1.377c.275 0 .525.045.75.135a1.65 1.65 0 0 1 .95.942c.088.222.133.465.133.73Zm-.69 0a1.63 1.63 0 0 0-.08-.532 1.068 1.068 0 0 0-.227-.4.97.97 0 0 0-.36-.253 1.225 1.225 0 0 0-.475-.087h-.702v2.545h.702c.177 0 .335-.03.475-.087a.985.985 0 0 0 .36-.25c.1-.11.176-.244.228-.4.053-.159.08-.337.08-.536Z" fill="#369EB3"/><path d="M96.71 22.192c0 .265-.043.509-.132.73a1.676 1.676 0 0 1-.372.573c-.16.16-.353.284-.578.372a2.037 2.037 0 0 1-.75.133h-1.377v-3.615h1.377c.275 0 .525.045.75.135a1.65 1.65 0 0 1 .95.942c.088.222.133.465.133.73Zm-.69 0a1.63 1.63 0 0 0-.08-.532 1.068 1.068 0 0 0-.227-.4.97.97 0 0 0-.36-.253 1.225 1.225 0 0 0-.475-.087h-.702v2.545h.702c.177 0 .335-.03.475-.087a.985.985 0 0 0 .36-.25c.1-.11.176-.244.228-.4.053-.159.08-.337.08-.536Z" fill="url(#k)" fill-opacity=".5"/><path d="M115.538 26.087c4.852.02 6.451 3.59 6.454 4.913l1.008-.003c-.004-1.98-2.145-6.104-7.718-5.995H111v1.087h4.538v-.002Z" fill="#369EB3"/><path d="M115.538 26.087c4.852.02 6.451 3.59 6.454 4.913l1.008-.003c-.004-1.98-2.145-6.104-7.718-5.995H111v1.087h4.538v-.002Z" fill="url(#l)" fill-opacity=".5"/><path d="M113.296 22.192c0 .265-.044.511-.132.738a1.72 1.72 0 0 1-.37.585c-.16.165-.353.294-.578.387a1.97 1.97 0 0 1-.75.138c-.273 0-.522-.046-.747-.137a1.722 1.722 0 0 1-.58-.388 1.759 1.759 0 0 1-.373-.585 2.02 2.02 0 0 1-.132-.738 2 2 0 0 1 .132-.735c.089-.226.213-.422.373-.587.161-.165.355-.293.58-.385.225-.093.474-.14.747-.14.184 0 .356.022.518.065.161.042.31.102.445.18.135.077.256.17.362.282.109.11.2.234.275.37.075.137.132.285.17.445.04.16.06.329.06.505Zm-.687 0c0-.198-.027-.375-.08-.532a1.144 1.144 0 0 0-.228-.402.966.966 0 0 0-.36-.253 1.224 1.224 0 0 0-.475-.087c-.176 0-.336.029-.477.087a1 1 0 0 0-.36.253c-.099.11-.174.244-.228.402-.053.157-.08.334-.08.532 0 .199.027.377.08.535.054.157.129.29.228.4.1.109.22.192.36.25.141.059.301.088.477.088.177 0 .335-.03.475-.087a.98.98 0 0 0 .36-.25c.099-.11.174-.244.228-.4a1.68 1.68 0 0 0 .08-.536Zm2.63 1.283c.125 0 .23-.015.315-.045a.534.534 0 0 0 .203-.12.422.422 0 0 0 .11-.175.647.647 0 0 0-.003-.423.387.387 0 0 0-.117-.16.538.538 0 0 0-.208-.102 1.132 1.132 0 0 0-.302-.035h-.678v1.06h.68Zm-.68-2.57v1.045h.535c.23 0 .404-.042.52-.125.119-.083.178-.216.178-.398 0-.188-.053-.322-.16-.402-.107-.08-.273-.12-.5-.12h-.573Zm.573-.52c.237 0 .439.022.607.067.169.045.306.11.413.193a.744.744 0 0 1 .237.303c.05.118.075.251.075.4a.697.697 0 0 1-.155.462.831.831 0 0 1-.2.183c-.08.055-.175.101-.287.14.497.111.745.38.745.805 0 .153-.029.295-.088.425a.941.941 0 0 1-.255.337 1.225 1.225 0 0 1-.412.22 1.81 1.81 0 0 1-.56.08h-1.365v-3.615h1.245Zm1.928 1.848h1.295v.514h-1.295v-.514ZM121.863 24h-.67a.17.17 0 0 1-.112-.035.298.298 0 0 1-.065-.08l-.838-1.388a.495.495 0 0 1-.047.108l-.803 1.28a.507.507 0 0 1-.07.08.14.14 0 0 1-.1.035h-.627l1.2-1.86-1.153-1.755h.67a.19.19 0 0 1 .1.02.167.167 0 0 1 .06.06l.823 1.325c.017-.042.037-.083.06-.125l.755-1.188a.205.205 0 0 1 .06-.07.142.142 0 0 1 .082-.022h.643l-1.163 1.727L121.863 24Zm1.769-1.91a.607.607 0 0 0-.495-.232.59.59 0 0 0-.253.052.5.5 0 0 0-.192.16.75.75 0 0 0-.123.27 1.552 1.552 0 0 0-.042.385c0 .15.011.277.035.383a.79.79 0 0 0 .105.255c.045.064.1.112.165.142a.537.537 0 0 0 .217.043.632.632 0 0 0 .328-.08.973.973 0 0 0 .255-.228v-1.15Zm.617-1.805V24h-.377c-.082 0-.134-.038-.155-.113l-.053-.247a1.28 1.28 0 0 1-.357.287.957.957 0 0 1-.468.11.85.85 0 0 1-.687-.34 1.238 1.238 0 0 1-.195-.412 2.112 2.112 0 0 1-.068-.56c0-.19.026-.367.078-.53.051-.163.126-.305.222-.425a1.03 1.03 0 0 1 .348-.28.992.992 0 0 1 .455-.102.9.9 0 0 1 .367.067.939.939 0 0 1 .273.183v-1.353h.617Z" fill="#369EB3"/><path d="M113.296 22.192c0 .265-.044.511-.132.738a1.72 1.72 0 0 1-.37.585c-.16.165-.353.294-.578.387a1.97 1.97 0 0 1-.75.138c-.273 0-.522-.046-.747-.137a1.722 1.722 0 0 1-.58-.388 1.759 1.759 0 0 1-.373-.585 2.02 2.02 0 0 1-.132-.738 2 2 0 0 1 .132-.735c.089-.226.213-.422.373-.587.161-.165.355-.293.58-.385.225-.093.474-.14.747-.14.184 0 .356.022.518.065.161.042.31.102.445.18.135.077.256.17.362.282.109.11.2.234.275.37.075.137.132.285.17.445.04.16.06.329.06.505Zm-.687 0c0-.198-.027-.375-.08-.532a1.144 1.144 0 0 0-.228-.402.966.966 0 0 0-.36-.253 1.224 1.224 0 0 0-.475-.087c-.176 0-.336.029-.477.087a1 1 0 0 0-.36.253c-.099.11-.174.244-.228.402-.053.157-.08.334-.08.532 0 .199.027.377.08.535.054.157.129.29.228.4.1.109.22.192.36.25.141.059.301.088.477.088.177 0 .335-.03.475-.087a.98.98 0 0 0 .36-.25c.099-.11.174-.244.228-.4a1.68 1.68 0 0 0 .08-.536Zm2.63 1.283c.125 0 .23-.015.315-.045a.534.534 0 0 0 .203-.12.422.422 0 0 0 .11-.175.647.647 0 0 0-.003-.423.387.387 0 0 0-.117-.16.538.538 0 0 0-.208-.102 1.132 1.132 0 0 0-.302-.035h-.678v1.06h.68Zm-.68-2.57v1.045h.535c.23 0 .404-.042.52-.125.119-.083.178-.216.178-.398 0-.188-.053-.322-.16-.402-.107-.08-.273-.12-.5-.12h-.573Zm.573-.52c.237 0 .439.022.607.067.169.045.306.11.413.193a.744.744 0 0 1 .237.303c.05.118.075.251.075.4a.697.697 0 0 1-.155.462.831.831 0 0 1-.2.183c-.08.055-.175.101-.287.14.497.111.745.38.745.805 0 .153-.029.295-.088.425a.941.941 0 0 1-.255.337 1.225 1.225 0 0 1-.412.22 1.81 1.81 0 0 1-.56.08h-1.365v-3.615h1.245Zm1.928 1.848h1.295v.514h-1.295v-.514ZM121.863 24h-.67a.17.17 0 0 1-.112-.035.298.298 0 0 1-.065-.08l-.838-1.388a.495.495 0 0 1-.047.108l-.803 1.28a.507.507 0 0 1-.07.08.14.14 0 0 1-.1.035h-.627l1.2-1.86-1.153-1.755h.67a.19.19 0 0 1 .1.02.167.167 0 0 1 .06.06l.823 1.325c.017-.042.037-.083.06-.125l.755-1.188a.205.205 0 0 1 .06-.07.142.142 0 0 1 .082-.022h.643l-1.163 1.727L121.863 24Zm1.769-1.91a.607.607 0 0 0-.495-.232.59.59 0 0 0-.253.052.5.5 0 0 0-.192.16.75.75 0 0 0-.123.27 1.552 1.552 0 0 0-.042.385c0 .15.011.277.035.383a.79.79 0 0 0 .105.255c.045.064.1.112.165.142a.537.537 0 0 0 .217.043.632.632 0 0 0 .328-.08.973.973 0 0 0 .255-.228v-1.15Zm.617-1.805V24h-.377c-.082 0-.134-.038-.155-.113l-.053-.247a1.28 1.28 0 0 1-.357.287.957.957 0 0 1-.468.11.85.85 0 0 1-.687-.34 1.238 1.238 0 0 1-.195-.412 2.112 2.112 0 0 1-.068-.56c0-.19.026-.367.078-.53.051-.163.126-.305.222-.425a1.03 1.03 0 0 1 .348-.28.992.992 0 0 1 .455-.102.9.9 0 0 1 .367.067.939.939 0 0 1 .273.183v-1.353h.617Z" fill="url(#m)" fill-opacity=".5"/><path fill-rule="evenodd" clip-rule="evenodd" d="M136 26h-7v-1h7c1.314 0 2.597.288 3.544 1.25.943.957 1.456 2.486 1.456 4.75h-1c0-2.136-.487-3.357-1.169-4.05-.678-.688-1.645-.95-2.831-.95Z" fill="#369EB3"/><path fill-rule="evenodd" clip-rule="evenodd" d="M136 26h-7v-1h7c1.314 0 2.597.288 3.544 1.25.943.957 1.456 2.486 1.456 4.75h-1c0-2.136-.487-3.357-1.169-4.05-.678-.688-1.645-.95-2.831-.95Z" fill="url(#n)" fill-opacity=".5"/><path d="M131.296 22.192c0 .265-.044.511-.132.738a1.72 1.72 0 0 1-.37.585c-.16.165-.353.294-.578.387a1.97 1.97 0 0 1-.75.138c-.273 0-.522-.046-.747-.137a1.722 1.722 0 0 1-.58-.388 1.759 1.759 0 0 1-.373-.585 2.02 2.02 0 0 1-.132-.738 2 2 0 0 1 .132-.735c.089-.226.213-.422.373-.587.161-.165.355-.293.58-.385.225-.093.474-.14.747-.14.184 0 .356.022.518.065.161.042.31.102.445.18.135.077.256.17.362.282.109.11.2.234.275.37.075.137.132.285.17.445.04.16.06.329.06.505Zm-.687 0c0-.198-.027-.375-.08-.532a1.144 1.144 0 0 0-.228-.402.966.966 0 0 0-.36-.253 1.224 1.224 0 0 0-.475-.087c-.176 0-.336.029-.477.087a1 1 0 0 0-.36.253c-.099.11-.174.244-.228.402-.053.157-.08.334-.08.532 0 .199.027.377.08.535.054.157.129.29.228.4.1.109.22.192.36.25.141.059.301.088.477.088.177 0 .335-.03.475-.087a.98.98 0 0 0 .36-.25c.099-.11.174-.244.228-.4a1.68 1.68 0 0 0 .08-.536Zm2.63 1.283c.125 0 .23-.015.315-.045a.534.534 0 0 0 .203-.12.422.422 0 0 0 .11-.175.647.647 0 0 0-.003-.423.387.387 0 0 0-.117-.16.538.538 0 0 0-.208-.102 1.132 1.132 0 0 0-.302-.035h-.678v1.06h.68Zm-.68-2.57v1.045h.535c.23 0 .404-.042.52-.125.119-.083.178-.216.178-.398 0-.188-.053-.322-.16-.402-.107-.08-.273-.12-.5-.12h-.573Zm.573-.52c.237 0 .439.022.607.067.169.045.306.11.413.193a.744.744 0 0 1 .237.303c.05.118.075.251.075.4a.697.697 0 0 1-.155.462.831.831 0 0 1-.2.183c-.08.055-.175.101-.287.14.497.111.745.38.745.805 0 .153-.029.295-.088.425a.941.941 0 0 1-.255.337 1.225 1.225 0 0 1-.412.22 1.81 1.81 0 0 1-.56.08h-1.365v-3.615h1.245Zm1.928 1.848h1.295v.514h-1.295v-.514ZM139.863 24h-.67a.17.17 0 0 1-.112-.035.298.298 0 0 1-.065-.08l-.838-1.388a.495.495 0 0 1-.047.108l-.803 1.28a.507.507 0 0 1-.07.08.14.14 0 0 1-.1.035h-.627l1.2-1.86-1.153-1.755h.67a.19.19 0 0 1 .1.02.167.167 0 0 1 .06.06l.823 1.325c.017-.042.037-.083.06-.125l.755-1.188a.205.205 0 0 1 .06-.07.142.142 0 0 1 .082-.022h.643l-1.163 1.727L139.863 24Zm1.769-1.91a.607.607 0 0 0-.495-.232.59.59 0 0 0-.253.052.5.5 0 0 0-.192.16.75.75 0 0 0-.123.27 1.552 1.552 0 0 0-.042.385c0 .15.011.277.035.383a.79.79 0 0 0 .105.255c.045.064.1.112.165.142a.537.537 0 0 0 .217.043.632.632 0 0 0 .328-.08.973.973 0 0 0 .255-.228v-1.15Zm.617-1.805V24h-.377c-.082 0-.134-.038-.155-.113l-.053-.247a1.28 1.28 0 0 1-.357.287.957.957 0 0 1-.468.11.85.85 0 0 1-.687-.34 1.238 1.238 0 0 1-.195-.412 2.112 2.112 0 0 1-.068-.56c0-.19.026-.367.078-.53.051-.163.126-.305.222-.425a1.03 1.03 0 0 1 .348-.28.992.992 0 0 1 .455-.102.9.9 0 0 1 .367.067.939.939 0 0 1 .273.183v-1.353h.617Z" fill="#369EB3"/><path d="M131.296 22.192c0 .265-.044.511-.132.738a1.72 1.72 0 0 1-.37.585c-.16.165-.353.294-.578.387a1.97 1.97 0 0 1-.75.138c-.273 0-.522-.046-.747-.137a1.722 1.722 0 0 1-.58-.388 1.759 1.759 0 0 1-.373-.585 2.02 2.02 0 0 1-.132-.738 2 2 0 0 1 .132-.735c.089-.226.213-.422.373-.587.161-.165.355-.293.58-.385.225-.093.474-.14.747-.14.184 0 .356.022.518.065.161.042.31.102.445.18.135.077.256.17.362.282.109.11.2.234.275.37.075.137.132.285.17.445.04.16.06.329.06.505Zm-.687 0c0-.198-.027-.375-.08-.532a1.144 1.144 0 0 0-.228-.402.966.966 0 0 0-.36-.253 1.224 1.224 0 0 0-.475-.087c-.176 0-.336.029-.477.087a1 1 0 0 0-.36.253c-.099.11-.174.244-.228.402-.053.157-.08.334-.08.532 0 .199.027.377.08.535.054.157.129.29.228.4.1.109.22.192.36.25.141.059.301.088.477.088.177 0 .335-.03.475-.087a.98.98 0 0 0 .36-.25c.099-.11.174-.244.228-.4a1.68 1.68 0 0 0 .08-.536Zm2.63 1.283c.125 0 .23-.015.315-.045a.534.534 0 0 0 .203-.12.422.422 0 0 0 .11-.175.647.647 0 0 0-.003-.423.387.387 0 0 0-.117-.16.538.538 0 0 0-.208-.102 1.132 1.132 0 0 0-.302-.035h-.678v1.06h.68Zm-.68-2.57v1.045h.535c.23 0 .404-.042.52-.125.119-.083.178-.216.178-.398 0-.188-.053-.322-.16-.402-.107-.08-.273-.12-.5-.12h-.573Zm.573-.52c.237 0 .439.022.607.067.169.045.306.11.413.193a.744.744 0 0 1 .237.303c.05.118.075.251.075.4a.697.697 0 0 1-.155.462.831.831 0 0 1-.2.183c-.08.055-.175.101-.287.14.497.111.745.38.745.805 0 .153-.029.295-.088.425a.941.941 0 0 1-.255.337 1.225 1.225 0 0 1-.412.22 1.81 1.81 0 0 1-.56.08h-1.365v-3.615h1.245Zm1.928 1.848h1.295v.514h-1.295v-.514ZM139.863 24h-.67a.17.17 0 0 1-.112-.035.298.298 0 0 1-.065-.08l-.838-1.388a.495.495 0 0 1-.047.108l-.803 1.28a.507.507 0 0 1-.07.08.14.14 0 0 1-.1.035h-.627l1.2-1.86-1.153-1.755h.67a.19.19 0 0 1 .1.02.167.167 0 0 1 .06.06l.823 1.325c.017-.042.037-.083.06-.125l.755-1.188a.205.205 0 0 1 .06-.07.142.142 0 0 1 .082-.022h.643l-1.163 1.727L139.863 24Zm1.769-1.91a.607.607 0 0 0-.495-.232.59.59 0 0 0-.253.052.5.5 0 0 0-.192.16.75.75 0 0 0-.123.27 1.552 1.552 0 0 0-.042.385c0 .15.011.277.035.383a.79.79 0 0 0 .105.255c.045.064.1.112.165.142a.537.537 0 0 0 .217.043.632.632 0 0 0 .328-.08.973.973 0 0 0 .255-.228v-1.15Zm.617-1.805V24h-.377c-.082 0-.134-.038-.155-.113l-.053-.247a1.28 1.28 0 0 1-.357.287.957.957 0 0 1-.468.11.85.85 0 0 1-.687-.34 1.238 1.238 0 0 1-.195-.412 2.112 2.112 0 0 1-.068-.56c0-.19.026-.367.078-.53.051-.163.126-.305.222-.425a1.03 1.03 0 0 1 .348-.28.992.992 0 0 1 .455-.102.9.9 0 0 1 .367.067.939.939 0 0 1 .273.183v-1.353h.617Z" fill="url(#o)" fill-opacity=".5"/><path d="M151.605 23.148c.037 0 .069.014.098.042l.265.287a1.459 1.459 0 0 1-.543.418 1.85 1.85 0 0 1-.77.145c-.268 0-.51-.046-.725-.137a1.594 1.594 0 0 1-.547-.383 1.674 1.674 0 0 1-.35-.585 2.217 2.217 0 0 1-.12-.742c0-.272.043-.52.13-.745a1.647 1.647 0 0 1 .93-.965c.218-.092.46-.138.725-.138.263 0 .496.043.7.13.205.087.379.2.522.34l-.225.313a.2.2 0 0 1-.052.052.14.14 0 0 1-.085.023.176.176 0 0 1-.078-.02 2.023 2.023 0 0 1-.087-.053 2.76 2.76 0 0 0-.11-.07 1.017 1.017 0 0 0-.338-.12 1.226 1.226 0 0 0-.25-.022c-.161 0-.31.029-.445.087a.953.953 0 0 0-.345.25 1.159 1.159 0 0 0-.225.4c-.053.157-.08.336-.08.537 0 .204.029.385.085.543.059.158.137.292.235.4a1.014 1.014 0 0 0 .778.335c.091 0 .174-.005.247-.015a1.015 1.015 0 0 0 .383-.13 1.25 1.25 0 0 0 .167-.127.202.202 0 0 1 .053-.035.116.116 0 0 1 .057-.015Zm5.633-2.763L156.116 24h-.608l-.79-2.47a1.924 1.924 0 0 1-.06-.22l-.03.117c-.01.037-.02.071-.032.103l-.798 2.47h-.61l-1.12-3.615h.563a.24.24 0 0 1 .145.042.19.19 0 0 1 .08.11l.615 2.163c.013.053.026.112.037.175.014.062.027.127.04.195.014-.07.028-.136.043-.198.017-.061.034-.119.052-.172l.71-2.162a.25.25 0 0 1 .078-.105.226.226 0 0 1 .145-.048h.197a.23.23 0 0 1 .143.042.254.254 0 0 1 .082.11l.708 2.163c.035.103.067.223.095.358.022-.132.046-.251.072-.358l.615-2.162a.189.189 0 0 1 .075-.108.247.247 0 0 1 .148-.045h.527Z" fill="#369EB3"/><path d="M151.605 23.148c.037 0 .069.014.098.042l.265.287a1.459 1.459 0 0 1-.543.418 1.85 1.85 0 0 1-.77.145c-.268 0-.51-.046-.725-.137a1.594 1.594 0 0 1-.547-.383 1.674 1.674 0 0 1-.35-.585 2.217 2.217 0 0 1-.12-.742c0-.272.043-.52.13-.745a1.647 1.647 0 0 1 .93-.965c.218-.092.46-.138.725-.138.263 0 .496.043.7.13.205.087.379.2.522.34l-.225.313a.2.2 0 0 1-.052.052.14.14 0 0 1-.085.023.176.176 0 0 1-.078-.02 2.023 2.023 0 0 1-.087-.053 2.76 2.76 0 0 0-.11-.07 1.017 1.017 0 0 0-.338-.12 1.226 1.226 0 0 0-.25-.022c-.161 0-.31.029-.445.087a.953.953 0 0 0-.345.25 1.159 1.159 0 0 0-.225.4c-.053.157-.08.336-.08.537 0 .204.029.385.085.543.059.158.137.292.235.4a1.014 1.014 0 0 0 .778.335c.091 0 .174-.005.247-.015a1.015 1.015 0 0 0 .383-.13 1.25 1.25 0 0 0 .167-.127.202.202 0 0 1 .053-.035.116.116 0 0 1 .057-.015Zm5.633-2.763L156.116 24h-.608l-.79-2.47a1.924 1.924 0 0 1-.06-.22l-.03.117c-.01.037-.02.071-.032.103l-.798 2.47h-.61l-1.12-3.615h.563a.24.24 0 0 1 .145.042.19.19 0 0 1 .08.11l.615 2.163c.013.053.026.112.037.175.014.062.027.127.04.195.014-.07.028-.136.043-.198.017-.061.034-.119.052-.172l.71-2.162a.25.25 0 0 1 .078-.105.226.226 0 0 1 .145-.048h.197a.23.23 0 0 1 .143.042.254.254 0 0 1 .082.11l.708 2.163c.035.103.067.223.095.358.022-.132.046-.251.072-.358l.615-2.162a.189.189 0 0 1 .075-.108.247.247 0 0 1 .148-.045h.527Z" fill="url(#p)" fill-opacity=".5"/><path d="M159 31c0-1.237-1-2.5-1-4s-.5-2.5-1-2.5-1 1-2 1-1 .5-1.5.5-.5-.5-1.5-.5h-5" stroke="#369EB3"/><path d="M159 31c0-1.237-1-2.5-1-4s-.5-2.5-1-2.5-1 1-2 1-1 .5-1.5.5-.5-.5-1.5-.5h-5" stroke="url(#q)" stroke-opacity=".5"/><path d="M168.301 22.105c.126 0 .236-.016.33-.047a.635.635 0 0 0 .232-.13.53.53 0 0 0 .138-.2.687.687 0 0 0 .045-.253.511.511 0 0 0-.183-.423c-.12-.098-.304-.147-.552-.147h-.43v1.2h.42Zm1.73 1.895h-.608c-.115 0-.198-.045-.25-.135l-.76-1.157a.26.26 0 0 0-.095-.093.319.319 0 0 0-.15-.027h-.287V24h-.673v-3.615h1.103c.245 0 .455.026.63.077.176.05.32.121.432.213a.83.83 0 0 1 .25.33c.053.127.08.267.08.42a1.06 1.06 0 0 1-.21.64c-.067.088-.15.166-.25.232-.098.067-.211.12-.337.158a.649.649 0 0 1 .22.21l.905 1.335Zm5.122-3.615L174.03 24h-.607l-.79-2.47a1.584 1.584 0 0 1-.06-.22l-.03.117c-.01.037-.021.071-.033.103l-.797 2.47h-.61l-1.12-3.615h.562c.059 0 .107.014.145.042a.19.19 0 0 1 .08.11l.615 2.163c.014.053.026.112.038.175l.04.195c.013-.07.027-.136.042-.198.017-.061.035-.119.053-.172l.71-2.162a.239.239 0 0 1 .077-.105.227.227 0 0 1 .145-.048h.198c.058 0 .106.014.142.042a.256.256 0 0 1 .083.11l.707 2.163c.035.103.067.223.095.358.022-.132.046-.251.073-.358l.615-2.162a.189.189 0 0 1 .075-.108.246.246 0 0 1 .147-.045h.528Z" fill="#369EB3"/><path d="M168.301 22.105c.126 0 .236-.016.33-.047a.635.635 0 0 0 .232-.13.53.53 0 0 0 .138-.2.687.687 0 0 0 .045-.253.511.511 0 0 0-.183-.423c-.12-.098-.304-.147-.552-.147h-.43v1.2h.42Zm1.73 1.895h-.608c-.115 0-.198-.045-.25-.135l-.76-1.157a.26.26 0 0 0-.095-.093.319.319 0 0 0-.15-.027h-.287V24h-.673v-3.615h1.103c.245 0 .455.026.63.077.176.05.32.121.432.213a.83.83 0 0 1 .25.33c.053.127.08.267.08.42a1.06 1.06 0 0 1-.21.64c-.067.088-.15.166-.25.232-.098.067-.211.12-.337.158a.649.649 0 0 1 .22.21l.905 1.335Zm5.122-3.615L174.03 24h-.607l-.79-2.47a1.584 1.584 0 0 1-.06-.22l-.03.117c-.01.037-.021.071-.033.103l-.797 2.47h-.61l-1.12-3.615h.562c.059 0 .107.014.145.042a.19.19 0 0 1 .08.11l.615 2.163c.014.053.026.112.038.175l.04.195c.013-.07.027-.136.042-.198.017-.061.035-.119.053-.172l.71-2.162a.239.239 0 0 1 .077-.105.227.227 0 0 1 .145-.048h.198c.058 0 .106.014.142.042a.256.256 0 0 1 .083.11l.707 2.163c.035.103.067.223.095.358.022-.132.046-.251.073-.358l.615-2.162a.189.189 0 0 1 .075-.108.246.246 0 0 1 .147-.045h.528Z" fill="url(#r)" fill-opacity=".5"/><path d="M177 31c0-1.237-1-2.5-1-4s-.5-2.5-1-2.5-1 1-2 1-1 .5-1.5.5-.5-.5-1.5-.5h-5" stroke="#369EB3"/><path d="M177 31c0-1.237-1-2.5-1-4s-.5-2.5-1-2.5-1 1-2 1-1 .5-1.5.5-.5-.5-1.5-.5h-5" stroke="url(#s)" stroke-opacity=".5"/><path fill-rule="evenodd" clip-rule="evenodd" d="M5.006 45.855C4.256 46.897 4 48.163 4 49H3c0-.997.295-2.48 1.194-3.73C5.112 43.996 6.637 43 9 43s3.888.996 4.806 2.27C14.706 46.52 15 48.003 15 49h-1c0-.837-.255-2.103-1.006-3.145C12.262 44.838 11.037 44 9 44s-3.262.838-3.994 1.855Z" fill="#369EB3"/><path fill-rule="evenodd" clip-rule="evenodd" d="M5.006 45.855C4.256 46.897 4 48.163 4 49H3c0-.997.295-2.48 1.194-3.73C5.112 43.996 6.637 43 9 43s3.888.996 4.806 2.27C14.706 46.52 15 48.003 15 49h-1c0-.837-.255-2.103-1.006-3.145C12.262 44.838 11.037 44 9 44s-3.262.838-3.994 1.855Z" fill="url(#t)" fill-opacity=".5"/><path d="M23 49c0-3 1-6 4-6s4 3 4 6" stroke="#369EB3"/><path d="M23 49c0-3 1-6 4-6s4 3 4 6" stroke="url(#u)" stroke-opacity=".5"/><path fill-rule="evenodd" clip-rule="evenodd" d="M41.006 45.855C40.256 46.897 40 48.163 40 49h-1c0-.997.295-2.48 1.194-3.73C41.112 43.996 42.637 43 45 43s3.888.996 4.806 2.27C50.706 46.52 51 48.003 51 49h-1c0-.837-.255-2.103-1.006-3.145C48.262 44.838 47.037 44 45 44s-3.262.838-3.994 1.855Z" fill="#369EB3"/><path fill-rule="evenodd" clip-rule="evenodd" d="M41.006 45.855C40.256 46.897 40 48.163 40 49h-1c0-.997.295-2.48 1.194-3.73C41.112 43.996 42.637 43 45 43s3.888.996 4.806 2.27C50.706 46.52 51 48.003 51 49h-1c0-.837-.255-2.103-1.006-3.145C48.262 44.838 47.037 44 45 44s-3.262.838-3.994 1.855Z" fill="url(#v)" fill-opacity=".5"/><path d="M41.296 40.193c0 .265-.044.51-.132.737a1.72 1.72 0 0 1-.37.585c-.16.165-.353.294-.578.388a1.97 1.97 0 0 1-.75.137c-.273 0-.522-.046-.747-.137a1.729 1.729 0 0 1-.58-.388 1.746 1.746 0 0 1-.373-.585 2.014 2.014 0 0 1-.132-.737 2 2 0 0 1 .132-.735 1.74 1.74 0 0 1 .373-.588 1.7 1.7 0 0 1 .58-.385c.225-.093.474-.14.747-.14.184 0 .356.022.518.065.161.042.31.102.445.18.135.077.256.17.362.282.109.11.2.234.275.37.075.137.132.286.17.446.04.16.06.328.06.505Zm-.687 0c0-.199-.027-.376-.08-.533a1.143 1.143 0 0 0-.228-.402.97.97 0 0 0-.36-.253 1.225 1.225 0 0 0-.475-.088c-.176 0-.336.03-.477.088a1 1 0 0 0-.36.252c-.098.11-.174.245-.228.403-.053.157-.08.334-.08.533 0 .198.027.376.08.535.054.156.13.29.228.4.1.108.22.191.36.25.142.058.3.087.477.087s.335-.03.475-.088a.985.985 0 0 0 .36-.25c.099-.11.174-.243.228-.4.053-.158.08-.336.08-.534Zm2.63 1.282c.125 0 .23-.015.315-.045a.531.531 0 0 0 .203-.12.423.423 0 0 0 .11-.175.64.64 0 0 0-.003-.422.386.386 0 0 0-.117-.16.538.538 0 0 0-.208-.103 1.136 1.136 0 0 0-.302-.035h-.678v1.06h.68Zm-.68-2.57v1.045h.535c.23 0 .404-.042.52-.125.119-.083.178-.216.178-.398 0-.188-.053-.322-.16-.402-.107-.08-.273-.12-.5-.12h-.573Zm.573-.52c.236 0 .439.023.607.068.169.044.306.109.413.192a.743.743 0 0 1 .237.302c.05.119.075.252.075.4a.71.71 0 0 1-.155.463.853.853 0 0 1-.2.182c-.08.056-.175.102-.287.14.496.112.745.38.745.806 0 .153-.03.294-.088.424a.95.95 0 0 1-.255.338 1.225 1.225 0 0 1-.412.22 1.81 1.81 0 0 1-.56.08h-1.365v-3.615h1.245Zm1.928 1.848h1.295v.515H45.06v-.515ZM49.863 42h-.67a.172.172 0 0 1-.112-.035.3.3 0 0 1-.065-.08l-.838-1.387a.49.49 0 0 1-.047.107l-.803 1.28a.523.523 0 0 1-.07.08.14.14 0 0 1-.1.035h-.627l1.2-1.86-1.153-1.755h.67a.19.19 0 0 1 .1.02.171.171 0 0 1 .06.06l.823 1.325c.017-.042.037-.083.06-.125l.755-1.188a.214.214 0 0 1 .06-.07.142.142 0 0 1 .082-.022h.643l-1.163 1.727L49.863 42Zm1.769-1.91a.605.605 0 0 0-.495-.233.59.59 0 0 0-.253.053.504.504 0 0 0-.192.16.75.75 0 0 0-.123.27 1.536 1.536 0 0 0-.042.385c0 .15.011.277.035.383a.79.79 0 0 0 .105.255c.045.065.1.112.165.142a.54.54 0 0 0 .217.042.632.632 0 0 0 .328-.08.973.973 0 0 0 .255-.227v-1.15Zm.617-1.805V42h-.377c-.082 0-.133-.038-.155-.112l-.053-.248a1.287 1.287 0 0 1-.357.288.955.955 0 0 1-.468.11.85.85 0 0 1-.687-.34 1.266 1.266 0 0 1-.195-.413 2.113 2.113 0 0 1 .01-1.09 1.29 1.29 0 0 1 .222-.425c.097-.12.213-.213.348-.28a.994.994 0 0 1 .455-.102c.143 0 .266.022.367.067a.94.94 0 0 1 .273.183v-1.353h.617Z" fill="#369EB3"/><path d="M41.296 40.193c0 .265-.044.51-.132.737a1.72 1.72 0 0 1-.37.585c-.16.165-.353.294-.578.388a1.97 1.97 0 0 1-.75.137c-.273 0-.522-.046-.747-.137a1.729 1.729 0 0 1-.58-.388 1.746 1.746 0 0 1-.373-.585 2.014 2.014 0 0 1-.132-.737 2 2 0 0 1 .132-.735 1.74 1.74 0 0 1 .373-.588 1.7 1.7 0 0 1 .58-.385c.225-.093.474-.14.747-.14.184 0 .356.022.518.065.161.042.31.102.445.18.135.077.256.17.362.282.109.11.2.234.275.37.075.137.132.286.17.446.04.16.06.328.06.505Zm-.687 0c0-.199-.027-.376-.08-.533a1.143 1.143 0 0 0-.228-.402.97.97 0 0 0-.36-.253 1.225 1.225 0 0 0-.475-.088c-.176 0-.336.03-.477.088a1 1 0 0 0-.36.252c-.098.11-.174.245-.228.403-.053.157-.08.334-.08.533 0 .198.027.376.08.535.054.156.13.29.228.4.1.108.22.191.36.25.142.058.3.087.477.087s.335-.03.475-.088a.985.985 0 0 0 .36-.25c.099-.11.174-.243.228-.4.053-.158.08-.336.08-.534Zm2.63 1.282c.125 0 .23-.015.315-.045a.531.531 0 0 0 .203-.12.423.423 0 0 0 .11-.175.64.64 0 0 0-.003-.422.386.386 0 0 0-.117-.16.538.538 0 0 0-.208-.103 1.136 1.136 0 0 0-.302-.035h-.678v1.06h.68Zm-.68-2.57v1.045h.535c.23 0 .404-.042.52-.125.119-.083.178-.216.178-.398 0-.188-.053-.322-.16-.402-.107-.08-.273-.12-.5-.12h-.573Zm.573-.52c.236 0 .439.023.607.068.169.044.306.109.413.192a.743.743 0 0 1 .237.302c.05.119.075.252.075.4a.71.71 0 0 1-.155.463.853.853 0 0 1-.2.182c-.08.056-.175.102-.287.14.496.112.745.38.745.806 0 .153-.03.294-.088.424a.95.95 0 0 1-.255.338 1.225 1.225 0 0 1-.412.22 1.81 1.81 0 0 1-.56.08h-1.365v-3.615h1.245Zm1.928 1.848h1.295v.515H45.06v-.515ZM49.863 42h-.67a.172.172 0 0 1-.112-.035.3.3 0 0 1-.065-.08l-.838-1.387a.49.49 0 0 1-.047.107l-.803 1.28a.523.523 0 0 1-.07.08.14.14 0 0 1-.1.035h-.627l1.2-1.86-1.153-1.755h.67a.19.19 0 0 1 .1.02.171.171 0 0 1 .06.06l.823 1.325c.017-.042.037-.083.06-.125l.755-1.188a.214.214 0 0 1 .06-.07.142.142 0 0 1 .082-.022h.643l-1.163 1.727L49.863 42Zm1.769-1.91a.605.605 0 0 0-.495-.233.59.59 0 0 0-.253.053.504.504 0 0 0-.192.16.75.75 0 0 0-.123.27 1.536 1.536 0 0 0-.042.385c0 .15.011.277.035.383a.79.79 0 0 0 .105.255c.045.065.1.112.165.142a.54.54 0 0 0 .217.042.632.632 0 0 0 .328-.08.973.973 0 0 0 .255-.227v-1.15Zm.617-1.805V42h-.377c-.082 0-.133-.038-.155-.112l-.053-.248a1.287 1.287 0 0 1-.357.288.955.955 0 0 1-.468.11.85.85 0 0 1-.687-.34 1.266 1.266 0 0 1-.195-.413 2.113 2.113 0 0 1 .01-1.09 1.29 1.29 0 0 1 .222-.425c.097-.12.213-.213.348-.28a.994.994 0 0 1 .455-.102c.143 0 .266.022.367.067a.94.94 0 0 1 .273.183v-1.353h.617Z" fill="url(#w)" fill-opacity=".5"/><path d="M59 49c0-2 1.5-1.5 1.5-3.5s.5-2 1-2 1 1 1.5 1 1-1 1.5-1 1 0 1 2S67 47 67 49" stroke="#369EB3"/><path d="M59 49c0-2 1.5-1.5 1.5-3.5s.5-2 1-2 1 1 1.5 1 1-1 1.5-1 1 0 1 2S67 47 67 49" stroke="url(#x)" stroke-opacity=".5"/><path d="M61.605 41.148c.037 0 .07.014.098.042l.265.288c-.147.181-.328.32-.543.417a1.85 1.85 0 0 1-.77.145c-.268 0-.51-.046-.725-.137a1.6 1.6 0 0 1-.897-.968 2.217 2.217 0 0 1-.12-.742c0-.272.043-.52.13-.745.086-.227.208-.422.365-.586a1.65 1.65 0 0 1 .565-.38c.218-.091.46-.137.725-.137.263 0 .496.043.7.13.205.087.379.2.522.34l-.225.313a.196.196 0 0 1-.052.052.14.14 0 0 1-.085.023.173.173 0 0 1-.078-.02 2.019 2.019 0 0 1-.087-.053 2.185 2.185 0 0 0-.11-.07 1.026 1.026 0 0 0-.337-.12 1.231 1.231 0 0 0-.25-.023c-.163 0-.31.03-.446.088a.948.948 0 0 0-.345.25 1.136 1.136 0 0 0-.225.4c-.053.157-.08.336-.08.538 0 .203.029.384.085.542.058.158.137.292.235.4a1.012 1.012 0 0 0 .778.335c.091 0 .174-.005.247-.015a1.026 1.026 0 0 0 .383-.13 1.14 1.14 0 0 0 .167-.128.206.206 0 0 1 .053-.035.118.118 0 0 1 .057-.014Zm5.633-2.763L66.116 42h-.608l-.79-2.47a1.673 1.673 0 0 1-.06-.22l-.03.117c-.01.037-.02.071-.032.103L63.798 42h-.61l-1.12-3.615h.563c.058 0 .106.014.145.043.04.026.066.063.08.11l.615 2.162a10.747 10.747 0 0 1 .078.37 2.599 2.599 0 0 1 .095-.37l.71-2.162a.24.24 0 0 1 .077-.105.226.226 0 0 1 .145-.048h.197c.059 0 .106.014.143.043a.261.261 0 0 1 .082.11l.708 2.162c.035.103.066.222.095.357.022-.131.046-.25.072-.357l.615-2.163a.189.189 0 0 1 .075-.107.246.246 0 0 1 .148-.045h.527Z" fill="#369EB3"/><path d="M61.605 41.148c.037 0 .07.014.098.042l.265.288c-.147.181-.328.32-.543.417a1.85 1.85 0 0 1-.77.145c-.268 0-.51-.046-.725-.137a1.6 1.6 0 0 1-.897-.968 2.217 2.217 0 0 1-.12-.742c0-.272.043-.52.13-.745.086-.227.208-.422.365-.586a1.65 1.65 0 0 1 .565-.38c.218-.091.46-.137.725-.137.263 0 .496.043.7.13.205.087.379.2.522.34l-.225.313a.196.196 0 0 1-.052.052.14.14 0 0 1-.085.023.173.173 0 0 1-.078-.02 2.019 2.019 0 0 1-.087-.053 2.185 2.185 0 0 0-.11-.07 1.026 1.026 0 0 0-.337-.12 1.231 1.231 0 0 0-.25-.023c-.163 0-.31.03-.446.088a.948.948 0 0 0-.345.25 1.136 1.136 0 0 0-.225.4c-.053.157-.08.336-.08.538 0 .203.029.384.085.542.058.158.137.292.235.4a1.012 1.012 0 0 0 .778.335c.091 0 .174-.005.247-.015a1.026 1.026 0 0 0 .383-.13 1.14 1.14 0 0 0 .167-.128.206.206 0 0 1 .053-.035.118.118 0 0 1 .057-.014Zm5.633-2.763L66.116 42h-.608l-.79-2.47a1.673 1.673 0 0 1-.06-.22l-.03.117c-.01.037-.02.071-.032.103L63.798 42h-.61l-1.12-3.615h.563c.058 0 .106.014.145.043.04.026.066.063.08.11l.615 2.162a10.747 10.747 0 0 1 .078.37 2.599 2.599 0 0 1 .095-.37l.71-2.162a.24.24 0 0 1 .077-.105.226.226 0 0 1 .145-.048h.197c.059 0 .106.014.143.043a.261.261 0 0 1 .082.11l.708 2.162c.035.103.066.222.095.357.022-.131.046-.25.072-.357l.615-2.163a.189.189 0 0 1 .075-.107.246.246 0 0 1 .148-.045h.527Z" fill="url(#y)" fill-opacity=".5"/><path d="M77 49c0-2 1.5-1.5 1.5-3.5s.5-2 1-2 1 1 1.5 1 1-1 1.5-1 1 0 1 2S85 47 85 49" stroke="#369EB3"/><path d="M77 49c0-2 1.5-1.5 1.5-3.5s.5-2 1-2 1 1 1.5 1 1-1 1.5-1 1 0 1 2S85 47 85 49" stroke="url(#z)" stroke-opacity=".5"/><path d="M78.3 40.105c.127 0 .237-.016.33-.047a.637.637 0 0 0 .233-.13.532.532 0 0 0 .138-.2.687.687 0 0 0 .045-.253.512.512 0 0 0-.183-.422c-.12-.099-.304-.148-.552-.148h-.43v1.2h.42ZM80.03 42h-.607c-.115 0-.198-.045-.25-.135l-.76-1.157a.263.263 0 0 0-.095-.093.321.321 0 0 0-.15-.028h-.287V42h-.673v-3.615h1.103c.245 0 .455.026.63.078.176.05.32.12.432.212a.83.83 0 0 1 .25.33c.053.127.08.267.08.42a1.07 1.07 0 0 1-.21.64c-.066.088-.15.166-.25.233a1.23 1.23 0 0 1-.337.157.63.63 0 0 1 .22.21L80.03 42Zm5.123-3.615L84.03 42h-.607l-.79-2.47a1.704 1.704 0 0 1-.06-.22l-.03.117a.89.89 0 0 1-.033.103L81.713 42h-.61l-1.12-3.615h.562c.059 0 .107.014.145.043.04.026.067.063.08.11l.615 2.162a9.27 9.27 0 0 1 .078.37c.013-.07.027-.136.042-.197.017-.062.035-.12.053-.173l.71-2.163a.24.24 0 0 1 .077-.105.226.226 0 0 1 .145-.047h.198a.226.226 0 0 1 .225.153l.707 2.162c.035.103.067.222.095.357a4.53 4.53 0 0 1 .073-.357l.615-2.163a.189.189 0 0 1 .075-.107.246.246 0 0 1 .147-.045h.528Z" fill="#369EB3"/><path d="M78.3 40.105c.127 0 .237-.016.33-.047a.637.637 0 0 0 .233-.13.532.532 0 0 0 .138-.2.687.687 0 0 0 .045-.253.512.512 0 0 0-.183-.422c-.12-.099-.304-.148-.552-.148h-.43v1.2h.42ZM80.03 42h-.607c-.115 0-.198-.045-.25-.135l-.76-1.157a.263.263 0 0 0-.095-.093.321.321 0 0 0-.15-.028h-.287V42h-.673v-3.615h1.103c.245 0 .455.026.63.078.176.05.32.12.432.212a.83.83 0 0 1 .25.33c.053.127.08.267.08.42a1.07 1.07 0 0 1-.21.64c-.066.088-.15.166-.25.233a1.23 1.23 0 0 1-.337.157.63.63 0 0 1 .22.21L80.03 42Zm5.123-3.615L84.03 42h-.607l-.79-2.47a1.704 1.704 0 0 1-.06-.22l-.03.117a.89.89 0 0 1-.033.103L81.713 42h-.61l-1.12-3.615h.562c.059 0 .107.014.145.043.04.026.067.063.08.11l.615 2.162a9.27 9.27 0 0 1 .078.37c.013-.07.027-.136.042-.197.017-.062.035-.12.053-.173l.71-2.163a.24.24 0 0 1 .077-.105.226.226 0 0 1 .145-.047h.198a.226.226 0 0 1 .225.153l.707 2.162c.035.103.067.222.095.357a4.53 4.53 0 0 1 .073-.357l.615-2.163a.189.189 0 0 1 .075-.107.246.246 0 0 1 .147-.045h.528Z" fill="url(#A)" fill-opacity=".5"/><path d="M10.462 62.087c-4.852.02-6.45 3.59-6.454 4.913L3 66.997c.004-1.98 2.145-6.104 7.719-5.995H15v1.087h-4.538v-.002Z" fill="#369EB3"/><path d="M10.462 62.087c-4.852.02-6.45 3.59-6.454 4.913L3 66.997c.004-1.98 2.145-6.104 7.719-5.995H15v1.087h-4.538v-.002Z" fill="url(#B)" fill-opacity=".5"/><path fill-rule="evenodd" clip-rule="evenodd" d="M26 62h7v-1h-7c-1.314 0-2.597.288-3.544 1.25C21.513 63.206 21 64.735 21 67h1c0-2.136.487-3.357 1.169-4.05.678-.688 1.645-.95 2.831-.95Z" fill="#369EB3"/><path fill-rule="evenodd" clip-rule="evenodd" d="M26 62h7v-1h-7c-1.314 0-2.597.288-3.544 1.25C21.513 63.206 21 64.735 21 67h1c0-2.136.487-3.357 1.169-4.05.678-.688 1.645-.95 2.831-.95Z" fill="url(#C)" fill-opacity=".5"/><path d="M46.462 62.087c-4.852.02-6.45 3.59-6.454 4.913L39 66.997c.004-1.98 2.145-6.104 7.718-5.995H51v1.087h-4.538v-.002Z" fill="#369EB3"/><path d="M46.462 62.087c-4.852.02-6.45 3.59-6.454 4.913L39 66.997c.004-1.98 2.145-6.104 7.718-5.995H51v1.087h-4.538v-.002Z" fill="url(#D)" fill-opacity=".5"/><path d="M41.46 57.9h.158a.426.426 0 0 0 .158-.025.277.277 0 0 0 .107-.085l.998-1.262a.354.354 0 0 1 .13-.11.415.415 0 0 1 .175-.033h.58l-1.218 1.503a.674.674 0 0 1-.222.195.48.48 0 0 1 .147.084.618.618 0 0 1 .128.14L43.856 60h-.593a.39.39 0 0 1-.18-.032.296.296 0 0 1-.097-.1l-1.023-1.336a.267.267 0 0 0-.11-.094.463.463 0 0 0-.18-.028h-.212V60h-.673v-3.615h.673V57.9Zm2.623-.508c.026-.173.074-.325.145-.455a1.08 1.08 0 0 1 .638-.524c.14-.045.29-.068.45-.068.167 0 .317.024.45.072a1 1 0 0 1 .345.198.876.876 0 0 1 .295.663c0 .114-.013.216-.04.305a.659.659 0 0 1-.29.392 1.121 1.121 0 0 1-.242.112c.216.069.378.173.484.313.107.14.16.316.16.528a1.04 1.04 0 0 1-.37.828 1.187 1.187 0 0 1-.394.212 1.517 1.517 0 0 1-.473.072c-.182 0-.34-.02-.475-.063a1.031 1.031 0 0 1-.608-.484 2.024 2.024 0 0 1-.18-.41l.273-.113a.317.317 0 0 1 .2-.023c.063.014.11.047.138.1.03.059.062.116.097.173a.657.657 0 0 0 .305.26.66.66 0 0 0 .242.04.599.599 0 0 0 .587-.367.562.562 0 0 0 .041-.206.93.93 0 0 0-.027-.235.35.35 0 0 0-.116-.182.625.625 0 0 0-.252-.117 1.798 1.798 0 0 0-.438-.043v-.44a1.62 1.62 0 0 0 .378-.042c.1-.027.18-.064.238-.11a.382.382 0 0 0 .125-.173.663.663 0 0 0 .035-.22c0-.17-.048-.3-.143-.387a.536.536 0 0 0-.38-.133.606.606 0 0 0-.37.12.533.533 0 0 0-.197.295c-.029.077-.066.127-.113.152-.045.026-.11.031-.193.018l-.325-.058Zm3.646.305a2.3 2.3 0 0 1 .23-.035 1.89 1.89 0 0 1 .212-.012c.19 0 .358.028.503.085a.984.984 0 0 1 .587.587c.05.134.075.278.075.433 0 .192-.034.367-.102.525a1.187 1.187 0 0 1-.708.667 1.503 1.503 0 0 1-.535.093 1.44 1.44 0 0 1-.322-.035 1.705 1.705 0 0 1-.288-.093 1.838 1.838 0 0 1-.247-.134 1.693 1.693 0 0 1-.203-.163l.19-.263a.184.184 0 0 1 .158-.084c.041 0 .084.013.127.04l.148.087c.056.032.122.06.197.087.077.027.169.04.275.04a.764.764 0 0 0 .3-.054.58.58 0 0 0 .215-.153.649.649 0 0 0 .13-.235.951.951 0 0 0 .045-.297c0-.197-.057-.35-.172-.46-.113-.112-.282-.168-.505-.168-.172 0-.348.032-.528.095l-.385-.11.3-1.755h1.785v.263a.29.29 0 0 1-.082.214c-.055.055-.148.083-.28.083h-.993l-.127.752Z" fill="#369EB3"/><path d="M41.46 57.9h.158a.426.426 0 0 0 .158-.025.277.277 0 0 0 .107-.085l.998-1.262a.354.354 0 0 1 .13-.11.415.415 0 0 1 .175-.033h.58l-1.218 1.503a.674.674 0 0 1-.222.195.48.48 0 0 1 .147.084.618.618 0 0 1 .128.14L43.856 60h-.593a.39.39 0 0 1-.18-.032.296.296 0 0 1-.097-.1l-1.023-1.336a.267.267 0 0 0-.11-.094.463.463 0 0 0-.18-.028h-.212V60h-.673v-3.615h.673V57.9Zm2.623-.508c.026-.173.074-.325.145-.455a1.08 1.08 0 0 1 .638-.524c.14-.045.29-.068.45-.068.167 0 .317.024.45.072a1 1 0 0 1 .345.198.876.876 0 0 1 .295.663c0 .114-.013.216-.04.305a.659.659 0 0 1-.29.392 1.121 1.121 0 0 1-.242.112c.216.069.378.173.484.313.107.14.16.316.16.528a1.04 1.04 0 0 1-.37.828 1.187 1.187 0 0 1-.394.212 1.517 1.517 0 0 1-.473.072c-.182 0-.34-.02-.475-.063a1.031 1.031 0 0 1-.608-.484 2.024 2.024 0 0 1-.18-.41l.273-.113a.317.317 0 0 1 .2-.023c.063.014.11.047.138.1.03.059.062.116.097.173a.657.657 0 0 0 .305.26.66.66 0 0 0 .242.04.599.599 0 0 0 .587-.367.562.562 0 0 0 .041-.206.93.93 0 0 0-.027-.235.35.35 0 0 0-.116-.182.625.625 0 0 0-.252-.117 1.798 1.798 0 0 0-.438-.043v-.44a1.62 1.62 0 0 0 .378-.042c.1-.027.18-.064.238-.11a.382.382 0 0 0 .125-.173.663.663 0 0 0 .035-.22c0-.17-.048-.3-.143-.387a.536.536 0 0 0-.38-.133.606.606 0 0 0-.37.12.533.533 0 0 0-.197.295c-.029.077-.066.127-.113.152-.045.026-.11.031-.193.018l-.325-.058Zm3.646.305a2.3 2.3 0 0 1 .23-.035 1.89 1.89 0 0 1 .212-.012c.19 0 .358.028.503.085a.984.984 0 0 1 .587.587c.05.134.075.278.075.433 0 .192-.034.367-.102.525a1.187 1.187 0 0 1-.708.667 1.503 1.503 0 0 1-.535.093 1.44 1.44 0 0 1-.322-.035 1.705 1.705 0 0 1-.288-.093 1.838 1.838 0 0 1-.247-.134 1.693 1.693 0 0 1-.203-.163l.19-.263a.184.184 0 0 1 .158-.084c.041 0 .084.013.127.04l.148.087c.056.032.122.06.197.087.077.027.169.04.275.04a.764.764 0 0 0 .3-.054.58.58 0 0 0 .215-.153.649.649 0 0 0 .13-.235.951.951 0 0 0 .045-.297c0-.197-.057-.35-.172-.46-.113-.112-.282-.168-.505-.168-.172 0-.348.032-.528.095l-.385-.11.3-1.755h1.785v.263a.29.29 0 0 1-.082.214c-.055.055-.148.083-.28.083h-.993l-.127.752Z" fill="url(#E)" fill-opacity=".5"/><path d="M64.462 62.087c-4.852.02-6.45 3.59-6.454 4.913L57 66.997c.004-1.98 2.145-6.104 7.719-5.995H69v1.087h-4.538v-.002Z" fill="#369EB3"/><path d="M64.462 62.087c-4.852.02-6.45 3.59-6.454 4.913L57 66.997c.004-1.98 2.145-6.104 7.719-5.995H69v1.087h-4.538v-.002Z" fill="url(#F)" fill-opacity=".5"/><path d="M59.296 58.193c0 .265-.044.51-.132.737a1.72 1.72 0 0 1-.37.585c-.16.165-.353.294-.578.388a1.97 1.97 0 0 1-.75.137c-.273 0-.522-.046-.747-.137a1.729 1.729 0 0 1-.58-.388 1.746 1.746 0 0 1-.373-.585 2.014 2.014 0 0 1-.132-.737 2 2 0 0 1 .132-.735 1.74 1.74 0 0 1 .373-.588 1.7 1.7 0 0 1 .58-.385c.225-.093.474-.14.747-.14.184 0 .356.022.518.065.161.042.31.102.445.18.135.077.256.17.362.282.109.11.2.234.275.37.075.137.132.286.17.446.04.16.06.328.06.505Zm-.687 0c0-.199-.027-.376-.08-.533a1.143 1.143 0 0 0-.228-.402.97.97 0 0 0-.36-.253 1.225 1.225 0 0 0-.475-.088c-.176 0-.336.03-.477.088a1 1 0 0 0-.36.252c-.098.11-.174.245-.228.403-.053.157-.08.334-.08.533 0 .198.027.376.08.535.054.156.13.29.228.4.1.108.22.191.36.25.142.058.3.087.477.087s.335-.03.475-.088a.985.985 0 0 0 .36-.25c.099-.11.174-.243.228-.4.053-.158.08-.336.08-.534Zm2.63 1.282c.125 0 .23-.015.315-.045a.531.531 0 0 0 .203-.12.423.423 0 0 0 .11-.175.64.64 0 0 0-.003-.422.386.386 0 0 0-.117-.16.538.538 0 0 0-.208-.103 1.136 1.136 0 0 0-.302-.035h-.678v1.06h.68Zm-.68-2.57v1.045h.535c.23 0 .404-.042.52-.125.119-.083.178-.216.178-.398 0-.188-.053-.322-.16-.402-.107-.08-.273-.12-.5-.12h-.573Zm.573-.52c.236 0 .439.023.607.068.169.044.306.109.413.192a.743.743 0 0 1 .237.302c.05.119.075.252.075.4a.71.71 0 0 1-.155.463.853.853 0 0 1-.2.182c-.08.056-.175.102-.287.14.496.112.745.38.745.806 0 .153-.03.294-.088.424a.95.95 0 0 1-.255.338 1.225 1.225 0 0 1-.412.22 1.81 1.81 0 0 1-.56.08h-1.365v-3.615h1.245Zm1.928 1.848h1.295v.515H63.06v-.515ZM67.863 60h-.67a.172.172 0 0 1-.112-.035.3.3 0 0 1-.065-.08l-.838-1.387a.49.49 0 0 1-.047.107l-.803 1.28a.523.523 0 0 1-.07.08.14.14 0 0 1-.1.035h-.627l1.2-1.86-1.153-1.755h.67a.19.19 0 0 1 .1.02.171.171 0 0 1 .06.06l.823 1.325c.017-.042.037-.083.06-.125l.755-1.188a.214.214 0 0 1 .06-.07.142.142 0 0 1 .082-.022h.643l-1.163 1.727L67.863 60Zm1.769-1.91a.605.605 0 0 0-.495-.233.59.59 0 0 0-.253.053.504.504 0 0 0-.192.16.75.75 0 0 0-.123.27 1.536 1.536 0 0 0-.042.385c0 .15.011.277.035.383a.79.79 0 0 0 .105.255c.045.065.1.112.165.142a.54.54 0 0 0 .217.042.632.632 0 0 0 .328-.08.973.973 0 0 0 .255-.227v-1.15Zm.617-1.805V60h-.377c-.082 0-.133-.038-.155-.112l-.053-.248a1.287 1.287 0 0 1-.357.288.955.955 0 0 1-.468.11.85.85 0 0 1-.687-.34 1.266 1.266 0 0 1-.195-.413 2.113 2.113 0 0 1 .01-1.09 1.29 1.29 0 0 1 .222-.425c.097-.12.213-.213.348-.28a.994.994 0 0 1 .455-.102c.143 0 .266.022.367.067a.94.94 0 0 1 .273.183v-1.353h.617Z" fill="#369EB3"/><path d="M59.296 58.193c0 .265-.044.51-.132.737a1.72 1.72 0 0 1-.37.585c-.16.165-.353.294-.578.388a1.97 1.97 0 0 1-.75.137c-.273 0-.522-.046-.747-.137a1.729 1.729 0 0 1-.58-.388 1.746 1.746 0 0 1-.373-.585 2.014 2.014 0 0 1-.132-.737 2 2 0 0 1 .132-.735 1.74 1.74 0 0 1 .373-.588 1.7 1.7 0 0 1 .58-.385c.225-.093.474-.14.747-.14.184 0 .356.022.518.065.161.042.31.102.445.18.135.077.256.17.362.282.109.11.2.234.275.37.075.137.132.286.17.446.04.16.06.328.06.505Zm-.687 0c0-.199-.027-.376-.08-.533a1.143 1.143 0 0 0-.228-.402.97.97 0 0 0-.36-.253 1.225 1.225 0 0 0-.475-.088c-.176 0-.336.03-.477.088a1 1 0 0 0-.36.252c-.098.11-.174.245-.228.403-.053.157-.08.334-.08.533 0 .198.027.376.08.535.054.156.13.29.228.4.1.108.22.191.36.25.142.058.3.087.477.087s.335-.03.475-.088a.985.985 0 0 0 .36-.25c.099-.11.174-.243.228-.4.053-.158.08-.336.08-.534Zm2.63 1.282c.125 0 .23-.015.315-.045a.531.531 0 0 0 .203-.12.423.423 0 0 0 .11-.175.64.64 0 0 0-.003-.422.386.386 0 0 0-.117-.16.538.538 0 0 0-.208-.103 1.136 1.136 0 0 0-.302-.035h-.678v1.06h.68Zm-.68-2.57v1.045h.535c.23 0 .404-.042.52-.125.119-.083.178-.216.178-.398 0-.188-.053-.322-.16-.402-.107-.08-.273-.12-.5-.12h-.573Zm.573-.52c.236 0 .439.023.607.068.169.044.306.109.413.192a.743.743 0 0 1 .237.302c.05.119.075.252.075.4a.71.71 0 0 1-.155.463.853.853 0 0 1-.2.182c-.08.056-.175.102-.287.14.496.112.745.38.745.806 0 .153-.03.294-.088.424a.95.95 0 0 1-.255.338 1.225 1.225 0 0 1-.412.22 1.81 1.81 0 0 1-.56.08h-1.365v-3.615h1.245Zm1.928 1.848h1.295v.515H63.06v-.515ZM67.863 60h-.67a.172.172 0 0 1-.112-.035.3.3 0 0 1-.065-.08l-.838-1.387a.49.49 0 0 1-.047.107l-.803 1.28a.523.523 0 0 1-.07.08.14.14 0 0 1-.1.035h-.627l1.2-1.86-1.153-1.755h.67a.19.19 0 0 1 .1.02.171.171 0 0 1 .06.06l.823 1.325c.017-.042.037-.083.06-.125l.755-1.188a.214.214 0 0 1 .06-.07.142.142 0 0 1 .082-.022h.643l-1.163 1.727L67.863 60Zm1.769-1.91a.605.605 0 0 0-.495-.233.59.59 0 0 0-.253.053.504.504 0 0 0-.192.16.75.75 0 0 0-.123.27 1.536 1.536 0 0 0-.042.385c0 .15.011.277.035.383a.79.79 0 0 0 .105.255c.045.065.1.112.165.142a.54.54 0 0 0 .217.042.632.632 0 0 0 .328-.08.973.973 0 0 0 .255-.227v-1.15Zm.617-1.805V60h-.377c-.082 0-.133-.038-.155-.112l-.053-.248a1.287 1.287 0 0 1-.357.288.955.955 0 0 1-.468.11.85.85 0 0 1-.687-.34 1.266 1.266 0 0 1-.195-.413 2.113 2.113 0 0 1 .01-1.09 1.29 1.29 0 0 1 .222-.425c.097-.12.213-.213.348-.28a.994.994 0 0 1 .455-.102c.143 0 .266.022.367.067a.94.94 0 0 1 .273.183v-1.353h.617Z" fill="url(#G)" fill-opacity=".5"/><path d="M75 67c0-1.237 1-2.5 1-4s.5-2.5 1-2.5 1 1 2 1 1 .5 1.5.5.5-.5 1.5-.5h5" stroke="#369EB3"/><path d="M75 67c0-1.237 1-2.5 1-4s.5-2.5 1-2.5 1 1 2 1 1 .5 1.5.5.5-.5 1.5-.5h5" stroke="url(#H)" stroke-opacity=".5"/><path d="M79.605 59.148c.037 0 .07.014.098.042l.265.288c-.147.181-.328.32-.543.417a1.85 1.85 0 0 1-.77.145c-.268 0-.51-.046-.725-.137a1.6 1.6 0 0 1-.897-.968 2.217 2.217 0 0 1-.12-.742c0-.272.043-.52.13-.745.086-.227.208-.422.365-.586a1.65 1.65 0 0 1 .565-.38c.218-.091.46-.137.725-.137.263 0 .496.043.7.13.205.087.379.2.522.34l-.225.313a.196.196 0 0 1-.052.052.14.14 0 0 1-.085.023.173.173 0 0 1-.078-.02 2.019 2.019 0 0 1-.087-.053 2.185 2.185 0 0 0-.11-.07 1.026 1.026 0 0 0-.338-.12 1.231 1.231 0 0 0-.25-.023c-.161 0-.31.03-.445.088a.948.948 0 0 0-.345.25 1.136 1.136 0 0 0-.225.4c-.053.157-.08.336-.08.538 0 .203.029.384.085.542.058.158.137.292.235.4a1.012 1.012 0 0 0 .778.335c.091 0 .174-.005.247-.015a1.026 1.026 0 0 0 .383-.13 1.14 1.14 0 0 0 .167-.128.206.206 0 0 1 .053-.035.118.118 0 0 1 .057-.014Zm5.633-2.763L84.116 60h-.608l-.79-2.47a1.673 1.673 0 0 1-.06-.22l-.03.117c-.01.037-.02.071-.032.103L81.798 60h-.61l-1.12-3.615h.563c.058 0 .106.014.145.043.04.026.067.063.08.11l.615 2.162a10.747 10.747 0 0 1 .078.37 2.599 2.599 0 0 1 .095-.37l.71-2.162a.24.24 0 0 1 .077-.105.226.226 0 0 1 .145-.048h.197c.059 0 .106.014.143.043a.261.261 0 0 1 .082.11l.708 2.162c.035.103.066.222.095.357.022-.131.046-.25.072-.357l.615-2.163a.189.189 0 0 1 .075-.107.246.246 0 0 1 .148-.045h.527Z" fill="#369EB3"/><path d="M79.605 59.148c.037 0 .07.014.098.042l.265.288c-.147.181-.328.32-.543.417a1.85 1.85 0 0 1-.77.145c-.268 0-.51-.046-.725-.137a1.6 1.6 0 0 1-.897-.968 2.217 2.217 0 0 1-.12-.742c0-.272.043-.52.13-.745.086-.227.208-.422.365-.586a1.65 1.65 0 0 1 .565-.38c.218-.091.46-.137.725-.137.263 0 .496.043.7.13.205.087.379.2.522.34l-.225.313a.196.196 0 0 1-.052.052.14.14 0 0 1-.085.023.173.173 0 0 1-.078-.02 2.019 2.019 0 0 1-.087-.053 2.185 2.185 0 0 0-.11-.07 1.026 1.026 0 0 0-.338-.12 1.231 1.231 0 0 0-.25-.023c-.161 0-.31.03-.445.088a.948.948 0 0 0-.345.25 1.136 1.136 0 0 0-.225.4c-.053.157-.08.336-.08.538 0 .203.029.384.085.542.058.158.137.292.235.4a1.012 1.012 0 0 0 .778.335c.091 0 .174-.005.247-.015a1.026 1.026 0 0 0 .383-.13 1.14 1.14 0 0 0 .167-.128.206.206 0 0 1 .053-.035.118.118 0 0 1 .057-.014Zm5.633-2.763L84.116 60h-.608l-.79-2.47a1.673 1.673 0 0 1-.06-.22l-.03.117c-.01.037-.02.071-.032.103L81.798 60h-.61l-1.12-3.615h.563c.058 0 .106.014.145.043.04.026.067.063.08.11l.615 2.162a10.747 10.747 0 0 1 .078.37 2.599 2.599 0 0 1 .095-.37l.71-2.162a.24.24 0 0 1 .077-.105.226.226 0 0 1 .145-.048h.197c.059 0 .106.014.143.043a.261.261 0 0 1 .082.11l.708 2.162c.035.103.066.222.095.357.022-.131.046-.25.072-.357l.615-2.163a.189.189 0 0 1 .075-.107.246.246 0 0 1 .148-.045h.527Z" fill="url(#I)" fill-opacity=".5"/><path d="M93 67c0-1.237 1-2.5 1-4s.5-2.5 1-2.5 1 1 2 1 1 .5 1.5.5.5-.5 1.5-.5h5" stroke="#369EB3"/><path d="M93 67c0-1.237 1-2.5 1-4s.5-2.5 1-2.5 1 1 2 1 1 .5 1.5.5.5-.5 1.5-.5h5" stroke="url(#J)" stroke-opacity=".5"/><path d="M96.3 58.105c.127 0 .237-.016.33-.047a.637.637 0 0 0 .233-.13.532.532 0 0 0 .138-.2.687.687 0 0 0 .045-.253.512.512 0 0 0-.183-.422c-.12-.099-.304-.148-.552-.148h-.43v1.2h.42ZM98.03 60h-.607c-.115 0-.198-.045-.25-.135l-.76-1.157a.263.263 0 0 0-.095-.093.321.321 0 0 0-.15-.028h-.287V60h-.673v-3.615h1.103c.245 0 .455.026.63.078.176.05.32.12.432.212a.83.83 0 0 1 .25.33c.053.127.08.267.08.42a1.07 1.07 0 0 1-.21.64c-.066.088-.15.166-.25.233a1.23 1.23 0 0 1-.337.157.63.63 0 0 1 .22.21L98.03 60Zm5.123-3.615L102.03 60h-.607l-.79-2.47a1.584 1.584 0 0 1-.06-.22l-.03.117c-.01.037-.021.071-.033.103L99.713 60h-.61l-1.12-3.615h.562c.059 0 .107.014.145.043.04.026.067.063.08.11l.615 2.162a9.27 9.27 0 0 1 .078.37c.013-.07.027-.136.042-.197.017-.062.035-.12.053-.173l.71-2.163a.239.239 0 0 1 .077-.105.227.227 0 0 1 .145-.047h.198a.22.22 0 0 1 .142.043.256.256 0 0 1 .083.11l.707 2.162c.035.103.067.222.095.357.022-.131.046-.25.073-.357l.615-2.163a.189.189 0 0 1 .075-.107.246.246 0 0 1 .147-.045h.528Z" fill="#369EB3"/><path d="M96.3 58.105c.127 0 .237-.016.33-.047a.637.637 0 0 0 .233-.13.532.532 0 0 0 .138-.2.687.687 0 0 0 .045-.253.512.512 0 0 0-.183-.422c-.12-.099-.304-.148-.552-.148h-.43v1.2h.42ZM98.03 60h-.607c-.115 0-.198-.045-.25-.135l-.76-1.157a.263.263 0 0 0-.095-.093.321.321 0 0 0-.15-.028h-.287V60h-.673v-3.615h1.103c.245 0 .455.026.63.078.176.05.32.12.432.212a.83.83 0 0 1 .25.33c.053.127.08.267.08.42a1.07 1.07 0 0 1-.21.64c-.066.088-.15.166-.25.233a1.23 1.23 0 0 1-.337.157.63.63 0 0 1 .22.21L98.03 60Zm5.123-3.615L102.03 60h-.607l-.79-2.47a1.584 1.584 0 0 1-.06-.22l-.03.117c-.01.037-.021.071-.033.103L99.713 60h-.61l-1.12-3.615h.562c.059 0 .107.014.145.043.04.026.067.063.08.11l.615 2.162a9.27 9.27 0 0 1 .078.37c.013-.07.027-.136.042-.197.017-.062.035-.12.053-.173l.71-2.163a.239.239 0 0 1 .077-.105.227.227 0 0 1 .145-.047h.198a.22.22 0 0 1 .142.043.256.256 0 0 1 .083.11l.707 2.162c.035.103.067.222.095.357.022-.131.046-.25.073-.357l.615-2.163a.189.189 0 0 1 .075-.107.246.246 0 0 1 .147-.045h.528Z" fill="url(#K)" fill-opacity=".5"/><path fill-rule="evenodd" clip-rule="evenodd" d="M6.613 80.697C6.001 80.29 5.163 80 4 80v-1c1.337 0 2.374.336 3.168.865.791.528 1.312 1.227 1.654 1.911.066.131.125.262.178.391.053-.13.112-.26.178-.39.342-.685.863-1.384 1.654-1.912.794-.53 1.83-.865 3.168-.865v1c-1.162 0-2.001.29-2.613.697-.616.41-1.032.96-1.315 1.527a5.645 5.645 0 0 0-.5 1.577 5.645 5.645 0 0 0-.072.693v.007a.5.5 0 0 1-1 0v-.007a1.995 1.995 0 0 0-.008-.173 5.645 5.645 0 0 0-.063-.52 5.645 5.645 0 0 0-.501-1.577c-.283-.566-.7-1.117-1.315-1.527Z" fill="#369EB3"/><path fill-rule="evenodd" clip-rule="evenodd" d="M6.613 80.697C6.001 80.29 5.163 80 4 80v-1c1.337 0 2.374.336 3.168.865.791.528 1.312 1.227 1.654 1.911.066.131.125.262.178.391.053-.13.112-.26.178-.39.342-.685.863-1.384 1.654-1.912.794-.53 1.83-.865 3.168-.865v1c-1.162 0-2.001.29-2.613.697-.616.41-1.032.96-1.315 1.527a5.645 5.645 0 0 0-.5 1.577 5.645 5.645 0 0 0-.072.693v.007a.5.5 0 0 1-1 0v-.007a1.995 1.995 0 0 0-.008-.173 5.645 5.645 0 0 0-.063-.52 5.645 5.645 0 0 0-.501-1.577c-.283-.566-.7-1.117-1.315-1.527Z" fill="url(#L)" fill-opacity=".5"/><path d="M25 79a1.8 1.8 0 0 1 1.012.303c.322.215.593.54.81.973.083.166.16.35.228.554.144-.402.329-.782.567-1.09.325-.418.782-.74 1.383-.74h3v1h-3c-.2 0-.392.095-.592.353-.207.267-.386.667-.527 1.16-.283.982-.381 2.181-.381 2.987a.5.5 0 0 1-1 0c0-1.975-.25-3.13-.572-3.776-.158-.316-.325-.492-.471-.59A.797.797 0 0 0 25 80h-3v-1h3Z" fill="#369EB3"/><path d="M25 79a1.8 1.8 0 0 1 1.012.303c.322.215.593.54.81.973.083.166.16.35.228.554.144-.402.329-.782.567-1.09.325-.418.782-.74 1.383-.74h3v1h-3c-.2 0-.392.095-.592.353-.207.267-.386.667-.527 1.16-.283.982-.381 2.181-.381 2.987a.5.5 0 0 1-1 0c0-1.975-.25-3.13-.572-3.776-.158-.316-.325-.492-.471-.59A.797.797 0 0 0 25 80h-3v-1h3Z" fill="url(#M)" fill-opacity=".5"/><path fill-rule="evenodd" clip-rule="evenodd" d="M42.613 80.697C42.001 80.29 41.163 80 40 80v-1c1.337 0 2.374.336 3.168.865.791.528 1.312 1.227 1.654 1.911.066.131.125.262.178.391.053-.13.112-.26.178-.39.342-.685.863-1.384 1.654-1.912.794-.53 1.83-.865 3.168-.865v1c-1.163 0-2.001.29-2.613.697-.615.41-1.032.96-1.315 1.527a5.647 5.647 0 0 0-.5 1.577 5.647 5.647 0 0 0-.072.693v.007a.5.5 0 0 1-1 0v-.007a1.857 1.857 0 0 0-.008-.173 5.647 5.647 0 0 0-.063-.52 5.647 5.647 0 0 0-.501-1.577c-.283-.566-.7-1.117-1.315-1.527Z" fill="#369EB3"/><path fill-rule="evenodd" clip-rule="evenodd" d="M42.613 80.697C42.001 80.29 41.163 80 40 80v-1c1.337 0 2.374.336 3.168.865.791.528 1.312 1.227 1.654 1.911.066.131.125.262.178.391.053-.13.112-.26.178-.39.342-.685.863-1.384 1.654-1.912.794-.53 1.83-.865 3.168-.865v1c-1.163 0-2.001.29-2.613.697-.615.41-1.032.96-1.315 1.527a5.647 5.647 0 0 0-.5 1.577 5.647 5.647 0 0 0-.072.693v.007a.5.5 0 0 1-1 0v-.007a1.857 1.857 0 0 0-.008-.173 5.647 5.647 0 0 0-.063-.52 5.647 5.647 0 0 0-.501-1.577c-.283-.566-.7-1.117-1.315-1.527Z" fill="url(#N)" fill-opacity=".5"/><path d="M41.296 76.192c0 .266-.044.511-.132.738a1.72 1.72 0 0 1-.37.585c-.16.165-.353.294-.578.388a1.97 1.97 0 0 1-.75.137c-.273 0-.522-.046-.747-.138a1.729 1.729 0 0 1-.58-.387 1.746 1.746 0 0 1-.373-.585 2.014 2.014 0 0 1-.132-.738c0-.264.044-.51.132-.734a1.74 1.74 0 0 1 .373-.588 1.7 1.7 0 0 1 .58-.385c.225-.093.474-.14.747-.14.184 0 .356.022.518.065.161.042.31.102.445.18.135.077.256.17.362.282.109.11.2.234.275.37.075.137.132.285.17.445.04.16.06.329.06.505Zm-.687 0c0-.198-.027-.375-.08-.532a1.143 1.143 0 0 0-.228-.403.97.97 0 0 0-.36-.252 1.225 1.225 0 0 0-.475-.087c-.176 0-.336.029-.477.087a1 1 0 0 0-.36.252c-.098.11-.174.245-.228.403-.053.157-.08.334-.08.532 0 .199.027.377.08.536.054.156.13.29.228.4.1.108.22.191.36.25.142.058.3.087.477.087s.335-.03.475-.088a.985.985 0 0 0 .36-.25c.099-.11.174-.243.228-.4.053-.158.08-.336.08-.535Zm2.63 1.283c.125 0 .23-.015.315-.045a.531.531 0 0 0 .203-.12.423.423 0 0 0 .11-.175.64.64 0 0 0-.003-.422.386.386 0 0 0-.117-.16.538.538 0 0 0-.208-.103 1.136 1.136 0 0 0-.302-.035h-.678v1.06h.68Zm-.68-2.57v1.045h.535c.23 0 .404-.042.52-.125.119-.083.178-.216.178-.398 0-.188-.053-.322-.16-.402-.107-.08-.273-.12-.5-.12h-.573Zm.573-.52c.236 0 .439.022.607.067.169.046.306.11.413.193a.743.743 0 0 1 .237.303c.05.118.075.251.075.4a.71.71 0 0 1-.155.463.853.853 0 0 1-.2.181c-.08.055-.175.102-.287.14.496.112.745.38.745.805 0 .154-.03.296-.088.425a.95.95 0 0 1-.255.338 1.225 1.225 0 0 1-.412.22 1.81 1.81 0 0 1-.56.08h-1.365v-3.615h1.245Zm1.928 1.847h1.295v.516H45.06v-.516ZM49.863 78h-.67a.172.172 0 0 1-.112-.035.3.3 0 0 1-.065-.08l-.838-1.388a.49.49 0 0 1-.047.108l-.803 1.28a.523.523 0 0 1-.07.08.14.14 0 0 1-.1.035h-.627l1.2-1.86-1.153-1.755h.67a.19.19 0 0 1 .1.02.171.171 0 0 1 .06.06l.823 1.325c.017-.042.037-.083.06-.125l.755-1.188a.214.214 0 0 1 .06-.07.142.142 0 0 1 .082-.022h.643l-1.163 1.727L49.863 78Zm1.769-1.91a.605.605 0 0 0-.495-.233.59.59 0 0 0-.253.053.504.504 0 0 0-.192.16.75.75 0 0 0-.123.27 1.536 1.536 0 0 0-.042.385c0 .15.011.278.035.383.025.103.06.188.105.254s.1.113.165.143a.54.54 0 0 0 .217.043.632.632 0 0 0 .328-.08.973.973 0 0 0 .255-.228v-1.15Zm.617-1.805V78h-.377c-.082 0-.133-.037-.155-.112l-.053-.248a1.287 1.287 0 0 1-.357.287.955.955 0 0 1-.468.11.85.85 0 0 1-.687-.34 1.266 1.266 0 0 1-.195-.412 2.113 2.113 0 0 1 .01-1.09 1.29 1.29 0 0 1 .222-.425c.097-.12.213-.213.348-.28a.994.994 0 0 1 .455-.102c.143 0 .266.022.367.067a.94.94 0 0 1 .273.183v-1.353h.617Z" fill="#369EB3"/><path d="M41.296 76.192c0 .266-.044.511-.132.738a1.72 1.72 0 0 1-.37.585c-.16.165-.353.294-.578.388a1.97 1.97 0 0 1-.75.137c-.273 0-.522-.046-.747-.138a1.729 1.729 0 0 1-.58-.387 1.746 1.746 0 0 1-.373-.585 2.014 2.014 0 0 1-.132-.738c0-.264.044-.51.132-.734a1.74 1.74 0 0 1 .373-.588 1.7 1.7 0 0 1 .58-.385c.225-.093.474-.14.747-.14.184 0 .356.022.518.065.161.042.31.102.445.18.135.077.256.17.362.282.109.11.2.234.275.37.075.137.132.285.17.445.04.16.06.329.06.505Zm-.687 0c0-.198-.027-.375-.08-.532a1.143 1.143 0 0 0-.228-.403.97.97 0 0 0-.36-.252 1.225 1.225 0 0 0-.475-.087c-.176 0-.336.029-.477.087a1 1 0 0 0-.36.252c-.098.11-.174.245-.228.403-.053.157-.08.334-.08.532 0 .199.027.377.08.536.054.156.13.29.228.4.1.108.22.191.36.25.142.058.3.087.477.087s.335-.03.475-.088a.985.985 0 0 0 .36-.25c.099-.11.174-.243.228-.4.053-.158.08-.336.08-.535Zm2.63 1.283c.125 0 .23-.015.315-.045a.531.531 0 0 0 .203-.12.423.423 0 0 0 .11-.175.64.64 0 0 0-.003-.422.386.386 0 0 0-.117-.16.538.538 0 0 0-.208-.103 1.136 1.136 0 0 0-.302-.035h-.678v1.06h.68Zm-.68-2.57v1.045h.535c.23 0 .404-.042.52-.125.119-.083.178-.216.178-.398 0-.188-.053-.322-.16-.402-.107-.08-.273-.12-.5-.12h-.573Zm.573-.52c.236 0 .439.022.607.067.169.046.306.11.413.193a.743.743 0 0 1 .237.303c.05.118.075.251.075.4a.71.71 0 0 1-.155.463.853.853 0 0 1-.2.181c-.08.055-.175.102-.287.14.496.112.745.38.745.805 0 .154-.03.296-.088.425a.95.95 0 0 1-.255.338 1.225 1.225 0 0 1-.412.22 1.81 1.81 0 0 1-.56.08h-1.365v-3.615h1.245Zm1.928 1.847h1.295v.516H45.06v-.516ZM49.863 78h-.67a.172.172 0 0 1-.112-.035.3.3 0 0 1-.065-.08l-.838-1.388a.49.49 0 0 1-.047.108l-.803 1.28a.523.523 0 0 1-.07.08.14.14 0 0 1-.1.035h-.627l1.2-1.86-1.153-1.755h.67a.19.19 0 0 1 .1.02.171.171 0 0 1 .06.06l.823 1.325c.017-.042.037-.083.06-.125l.755-1.188a.214.214 0 0 1 .06-.07.142.142 0 0 1 .082-.022h.643l-1.163 1.727L49.863 78Zm1.769-1.91a.605.605 0 0 0-.495-.233.59.59 0 0 0-.253.053.504.504 0 0 0-.192.16.75.75 0 0 0-.123.27 1.536 1.536 0 0 0-.042.385c0 .15.011.278.035.383.025.103.06.188.105.254s.1.113.165.143a.54.54 0 0 0 .217.043.632.632 0 0 0 .328-.08.973.973 0 0 0 .255-.228v-1.15Zm.617-1.805V78h-.377c-.082 0-.133-.037-.155-.112l-.053-.248a1.287 1.287 0 0 1-.357.287.955.955 0 0 1-.468.11.85.85 0 0 1-.687-.34 1.266 1.266 0 0 1-.195-.412 2.113 2.113 0 0 1 .01-1.09 1.29 1.29 0 0 1 .222-.425c.097-.12.213-.213.348-.28a.994.994 0 0 1 .455-.102c.143 0 .266.022.367.067a.94.94 0 0 1 .273.183v-1.353h.617Z" fill="url(#O)" fill-opacity=".5"/><path d="M68 79.5h-1.5c-1 0-2 1-2 2.5s0 2.5-.5 2.5 0-1.5-1-1.5-.5 1.5-1 1.5-.5-1-.5-2.5-1-2.5-2-2.5H58" stroke="#369EB3"/><path d="M68 79.5h-1.5c-1 0-2 1-2 2.5s0 2.5-.5 2.5 0-1.5-1-1.5-.5 1.5-1 1.5-.5-1-.5-2.5-1-2.5-2-2.5H58" stroke="url(#P)" stroke-opacity=".5"/><path d="M61.605 77.147c.037 0 .07.015.098.043l.265.288c-.147.181-.328.32-.543.417a1.85 1.85 0 0 1-.77.145c-.268 0-.51-.046-.725-.138a1.6 1.6 0 0 1-.897-.967 2.217 2.217 0 0 1-.12-.743c0-.271.043-.52.13-.744a1.637 1.637 0 0 1 .93-.965c.218-.092.46-.138.725-.138.263 0 .496.043.7.13.205.087.379.2.522.34l-.225.313a.196.196 0 0 1-.052.052.14.14 0 0 1-.085.022.173.173 0 0 1-.078-.02 2.019 2.019 0 0 1-.087-.052 2.185 2.185 0 0 0-.11-.07 1.026 1.026 0 0 0-.337-.12 1.231 1.231 0 0 0-.25-.022c-.163 0-.31.029-.446.087a.948.948 0 0 0-.345.25 1.136 1.136 0 0 0-.225.4c-.053.157-.08.336-.08.537 0 .204.029.385.085.543.058.158.137.292.235.4a1.012 1.012 0 0 0 .778.335c.091 0 .174-.005.247-.015a1.026 1.026 0 0 0 .383-.13 1.14 1.14 0 0 0 .167-.127.206.206 0 0 1 .053-.035.118.118 0 0 1 .057-.016Zm5.633-2.762L66.116 78h-.608l-.79-2.47a1.673 1.673 0 0 1-.06-.22l-.03.117c-.01.037-.02.071-.032.103L63.798 78h-.61l-1.12-3.615h.563c.058 0 .106.014.145.042.04.027.066.064.08.11l.615 2.163a10.747 10.747 0 0 1 .078.37 2.599 2.599 0 0 1 .095-.37l.71-2.163a.24.24 0 0 1 .077-.105.226.226 0 0 1 .145-.047h.197a.23.23 0 0 1 .143.042.261.261 0 0 1 .082.11l.708 2.163c.035.103.066.222.095.358.022-.132.046-.251.072-.358l.615-2.163a.189.189 0 0 1 .075-.107.246.246 0 0 1 .148-.045h.527Z" fill="#369EB3"/><path d="M61.605 77.147c.037 0 .07.015.098.043l.265.288c-.147.181-.328.32-.543.417a1.85 1.85 0 0 1-.77.145c-.268 0-.51-.046-.725-.138a1.6 1.6 0 0 1-.897-.967 2.217 2.217 0 0 1-.12-.743c0-.271.043-.52.13-.744a1.637 1.637 0 0 1 .93-.965c.218-.092.46-.138.725-.138.263 0 .496.043.7.13.205.087.379.2.522.34l-.225.313a.196.196 0 0 1-.052.052.14.14 0 0 1-.085.022.173.173 0 0 1-.078-.02 2.019 2.019 0 0 1-.087-.052 2.185 2.185 0 0 0-.11-.07 1.026 1.026 0 0 0-.337-.12 1.231 1.231 0 0 0-.25-.022c-.163 0-.31.029-.446.087a.948.948 0 0 0-.345.25 1.136 1.136 0 0 0-.225.4c-.053.157-.08.336-.08.537 0 .204.029.385.085.543.058.158.137.292.235.4a1.012 1.012 0 0 0 .778.335c.091 0 .174-.005.247-.015a1.026 1.026 0 0 0 .383-.13 1.14 1.14 0 0 0 .167-.127.206.206 0 0 1 .053-.035.118.118 0 0 1 .057-.016Zm5.633-2.762L66.116 78h-.608l-.79-2.47a1.673 1.673 0 0 1-.06-.22l-.03.117c-.01.037-.02.071-.032.103L63.798 78h-.61l-1.12-3.615h.563c.058 0 .106.014.145.042.04.027.066.064.08.11l.615 2.163a10.747 10.747 0 0 1 .078.37 2.599 2.599 0 0 1 .095-.37l.71-2.163a.24.24 0 0 1 .077-.105.226.226 0 0 1 .145-.047h.197a.23.23 0 0 1 .143.042.261.261 0 0 1 .082.11l.708 2.163c.035.103.066.222.095.358.022-.132.046-.251.072-.358l.615-2.163a.189.189 0 0 1 .075-.107.246.246 0 0 1 .148-.045h.527Z" fill="url(#Q)" fill-opacity=".5"/><path d="M86 79.5h-1.5c-1 0-2 1-2 2.5s0 2.5-.5 2.5 0-1.5-1-1.5-.5 1.5-1 1.5-.5-1-.5-2.5-1-2.5-2-2.5H76" stroke="#369EB3"/><path d="M86 79.5h-1.5c-1 0-2 1-2 2.5s0 2.5-.5 2.5 0-1.5-1-1.5-.5 1.5-1 1.5-.5-1-.5-2.5-1-2.5-2-2.5H76" stroke="url(#R)" stroke-opacity=".5"/><path d="M78.3 76.105c.127 0 .237-.016.33-.047a.637.637 0 0 0 .233-.13.532.532 0 0 0 .138-.2.687.687 0 0 0 .045-.253.512.512 0 0 0-.183-.422c-.12-.099-.304-.148-.552-.148h-.43v1.2h.42ZM80.03 78h-.607c-.115 0-.198-.045-.25-.135l-.76-1.157a.263.263 0 0 0-.095-.093.321.321 0 0 0-.15-.027h-.287V78h-.673v-3.615h1.103c.245 0 .455.026.63.078.176.05.32.12.432.212a.83.83 0 0 1 .25.33c.053.127.08.267.08.42a1.07 1.07 0 0 1-.21.64c-.066.088-.15.166-.25.233a1.23 1.23 0 0 1-.337.157.63.63 0 0 1 .22.21L80.03 78Zm5.123-3.615L84.03 78h-.607l-.79-2.47a1.704 1.704 0 0 1-.06-.22l-.03.117a.89.89 0 0 1-.033.103L81.713 78h-.61l-1.12-3.615h.562c.059 0 .107.014.145.042.04.027.067.064.08.11l.615 2.163a9.27 9.27 0 0 1 .078.37c.013-.07.027-.136.042-.197.017-.062.035-.12.053-.173l.71-2.163a.24.24 0 0 1 .077-.105.226.226 0 0 1 .145-.047h.198a.226.226 0 0 1 .225.152l.707 2.163c.035.103.067.222.095.358a4.53 4.53 0 0 1 .073-.358l.615-2.163a.189.189 0 0 1 .075-.107.246.246 0 0 1 .147-.045h.528Z" fill="#369EB3"/><path d="M78.3 76.105c.127 0 .237-.016.33-.047a.637.637 0 0 0 .233-.13.532.532 0 0 0 .138-.2.687.687 0 0 0 .045-.253.512.512 0 0 0-.183-.422c-.12-.099-.304-.148-.552-.148h-.43v1.2h.42ZM80.03 78h-.607c-.115 0-.198-.045-.25-.135l-.76-1.157a.263.263 0 0 0-.095-.093.321.321 0 0 0-.15-.027h-.287V78h-.673v-3.615h1.103c.245 0 .455.026.63.078.176.05.32.12.432.212a.83.83 0 0 1 .25.33c.053.127.08.267.08.42a1.07 1.07 0 0 1-.21.64c-.066.088-.15.166-.25.233a1.23 1.23 0 0 1-.337.157.63.63 0 0 1 .22.21L80.03 78Zm5.123-3.615L84.03 78h-.607l-.79-2.47a1.704 1.704 0 0 1-.06-.22l-.03.117a.89.89 0 0 1-.033.103L81.713 78h-.61l-1.12-3.615h.562c.059 0 .107.014.145.042.04.027.067.064.08.11l.615 2.163a9.27 9.27 0 0 1 .078.37c.013-.07.027-.136.042-.197.017-.062.035-.12.053-.173l.71-2.163a.24.24 0 0 1 .077-.105.226.226 0 0 1 .145-.047h.198a.226.226 0 0 1 .225.152l.707 2.163c.035.103.067.222.095.358a4.53 4.53 0 0 1 .073-.358l.615-2.163a.189.189 0 0 1 .075-.107.246.246 0 0 1 .147-.045h.528Z" fill="url(#S)" fill-opacity=".5"/><path d="M5 103c0-2 1.5-1.501 1.5-3.5 0-2 .5-2 1-2s1 1 1.5 1 1-1 1.5-1 1 0 1 2S13 101 13 103" stroke="#369EB3"/><path d="M5 103c0-2 1.5-1.501 1.5-3.5 0-2 .5-2 1-2s1 1 1.5 1 1-1 1.5-1 1 0 1 2S13 101 13 103" stroke="url(#T)" stroke-opacity=".5"/><path d="M8.08 92.938H6.99V96h-.673v-3.063h-1.09v-.552H8.08v.552Zm1.565 1.167c.127 0 .237-.016.33-.047a.637.637 0 0 0 .233-.13.531.531 0 0 0 .137-.2.687.687 0 0 0 .045-.253.512.512 0 0 0-.182-.422c-.12-.099-.304-.148-.553-.148h-.43v1.2h.42ZM11.375 96h-.607c-.115 0-.198-.045-.25-.135l-.76-1.157a.263.263 0 0 0-.095-.093.32.32 0 0 0-.15-.027h-.288V96h-.672v-3.615h1.102c.245 0 .455.026.63.078.177.05.321.12.433.212a.83.83 0 0 1 .25.33c.053.127.08.267.08.42a1.068 1.068 0 0 1-.21.64c-.067.088-.15.166-.25.233-.098.066-.21.119-.338.157a.63.63 0 0 1 .22.21L11.375 96Zm1.066 0h-.675v-3.615h.675V96Z" fill="#369EB3"/><path d="M8.08 92.938H6.99V96h-.673v-3.063h-1.09v-.552H8.08v.552Zm1.565 1.167c.127 0 .237-.016.33-.047a.637.637 0 0 0 .233-.13.531.531 0 0 0 .137-.2.687.687 0 0 0 .045-.253.512.512 0 0 0-.182-.422c-.12-.099-.304-.148-.553-.148h-.43v1.2h.42ZM11.375 96h-.607c-.115 0-.198-.045-.25-.135l-.76-1.157a.263.263 0 0 0-.095-.093.32.32 0 0 0-.15-.027h-.288V96h-.672v-3.615h1.102c.245 0 .455.026.63.078.177.05.321.12.433.212a.83.83 0 0 1 .25.33c.053.127.08.267.08.42a1.068 1.068 0 0 1-.21.64c-.067.088-.15.166-.25.233-.098.066-.21.119-.338.157a.63.63 0 0 1 .22.21L11.375 96Zm1.066 0h-.675v-3.615h.675V96Z" fill="url(#U)" fill-opacity=".5"/><path d="m7.64 118.089-.616-1.684a3.522 3.522 0 0 1-.094-.266 8.306 8.306 0 0 1-.098-.332c-.03.119-.062.231-.095.336a4.198 4.198 0 0 1-.094.269l-.613 1.677h1.61ZM9.303 120h-.728a.315.315 0 0 1-.2-.06.393.393 0 0 1-.115-.154l-.378-1.032H5.785l-.378 1.032a.332.332 0 0 1-.108.147.3.3 0 0 1-.2.067h-.735l1.992-5.061h.959L9.303 120Zm2.169-2.517c.172 0 .323-.021.451-.063a.87.87 0 0 0 .319-.185.764.764 0 0 0 .192-.294c.042-.117.063-.246.063-.389a1.02 1.02 0 0 0-.063-.367.724.724 0 0 0-.189-.28.827.827 0 0 0-.318-.175 1.468 1.468 0 0 0-.455-.063h-.704v1.816h.704Zm0-2.544c.338 0 .63.04.878.119.248.079.452.19.613.332.16.143.28.313.357.511.079.199.119.416.119.651 0 .245-.041.471-.123.676a1.402 1.402 0 0 1-.367.525 1.712 1.712 0 0 1-.616.343 2.718 2.718 0 0 1-.861.122h-.704V120h-.941v-5.061h1.645Z" fill="#369EB3"/><path d="m7.64 118.089-.616-1.684a3.522 3.522 0 0 1-.094-.266 8.306 8.306 0 0 1-.098-.332c-.03.119-.062.231-.095.336a4.198 4.198 0 0 1-.094.269l-.613 1.677h1.61ZM9.303 120h-.728a.315.315 0 0 1-.2-.06.393.393 0 0 1-.115-.154l-.378-1.032H5.785l-.378 1.032a.332.332 0 0 1-.108.147.3.3 0 0 1-.2.067h-.735l1.992-5.061h.959L9.303 120Zm2.169-2.517c.172 0 .323-.021.451-.063a.87.87 0 0 0 .319-.185.764.764 0 0 0 .192-.294c.042-.117.063-.246.063-.389a1.02 1.02 0 0 0-.063-.367.724.724 0 0 0-.189-.28.827.827 0 0 0-.318-.175 1.468 1.468 0 0 0-.455-.063h-.704v1.816h.704Zm0-2.544c.338 0 .63.04.878.119.248.079.452.19.613.332.16.143.28.313.357.511.079.199.119.416.119.651 0 .245-.041.471-.123.676a1.402 1.402 0 0 1-.367.525 1.712 1.712 0 0 1-.616.343 2.718 2.718 0 0 1-.861.122h-.704V120h-.941v-5.061h1.645Z" fill="url(#V)" fill-opacity=".5"/><path fill-rule="evenodd" clip-rule="evenodd" d="M21.922 116.862c-.332-.708-.694-.862-.922-.862v-1c.772 0 1.41.546 1.828 1.438.06.13.118.269.172.419a4.86 4.86 0 0 1 .172-.419C23.59 115.546 24.228 115 25 115a1.8 1.8 0 0 1 1.012.303c.322.215.593.539.81.973.083.166.16.35.228.554.144-.402.329-.782.567-1.09.325-.419.782-.74 1.383-.74.6 0 1.058.321 1.383.74.267.345.466.78.617 1.236.15-.456.35-.891.617-1.236.325-.419.783-.74 1.383-.74v1c-.2 0-.392.095-.592.353-.207.267-.386.667-.527 1.16-.283.982-.381 2.181-.381 2.987a.5.5 0 0 1-1 0c0-.806-.098-2.005-.38-2.987-.142-.493-.32-.893-.528-1.16-.2-.258-.392-.353-.592-.353-.2 0-.392.095-.592.353-.207.267-.386.667-.527 1.16-.283.982-.381 2.181-.381 2.987a.5.5 0 0 1-1 0c0-1.974-.25-3.131-.572-3.776-.158-.316-.325-.492-.471-.589A.795.795 0 0 0 25 116c-.228 0-.59.154-.922.862-.331.707-.578 1.874-.578 3.638a.5.5 0 0 1-1 0c0-1.764-.247-2.931-.578-3.638Z" fill="#369EB3"/><path fill-rule="evenodd" clip-rule="evenodd" d="M21.922 116.862c-.332-.708-.694-.862-.922-.862v-1c.772 0 1.41.546 1.828 1.438.06.13.118.269.172.419a4.86 4.86 0 0 1 .172-.419C23.59 115.546 24.228 115 25 115a1.8 1.8 0 0 1 1.012.303c.322.215.593.539.81.973.083.166.16.35.228.554.144-.402.329-.782.567-1.09.325-.419.782-.74 1.383-.74.6 0 1.058.321 1.383.74.267.345.466.78.617 1.236.15-.456.35-.891.617-1.236.325-.419.783-.74 1.383-.74v1c-.2 0-.392.095-.592.353-.207.267-.386.667-.527 1.16-.283.982-.381 2.181-.381 2.987a.5.5 0 0 1-1 0c0-.806-.098-2.005-.38-2.987-.142-.493-.32-.893-.528-1.16-.2-.258-.392-.353-.592-.353-.2 0-.392.095-.592.353-.207.267-.386.667-.527 1.16-.283.982-.381 2.181-.381 2.987a.5.5 0 0 1-1 0c0-1.974-.25-3.131-.572-3.776-.158-.316-.325-.492-.471-.589A.795.795 0 0 0 25 116c-.228 0-.59.154-.922.862-.331.707-.578 1.874-.578 3.638a.5.5 0 0 1-1 0c0-1.764-.247-2.931-.578-3.638Z" fill="url(#W)" fill-opacity=".5"/><path fill-rule="evenodd" clip-rule="evenodd" d="M39.922 119.138c-.332.708-.694.862-.922.862v1c.772 0 1.41-.546 1.828-1.438a5.2 5.2 0 0 0 .172-.419c.054.15.111.289.172.419.418.892 1.056 1.438 1.828 1.438a1.8 1.8 0 0 0 1.012-.303c.322-.215.593-.539.81-.973.083-.166.16-.35.228-.554.144.402.329.782.567 1.09.325.419.783.74 1.383.74s1.058-.321 1.383-.74c.267-.345.466-.78.617-1.236.15.456.35.891.617 1.236.325.419.783.74 1.383.74v-1c-.2 0-.392-.095-.592-.353-.207-.267-.386-.667-.528-1.16-.282-.982-.38-2.181-.38-2.987a.5.5 0 0 0-1 0c0 .806-.098 2.005-.38 2.987-.142.493-.32.893-.528 1.16-.2.258-.392.353-.592.353-.2 0-.392-.095-.592-.353-.207-.267-.386-.667-.528-1.16-.282-.982-.38-2.181-.38-2.987a.5.5 0 0 0-1 0c0 1.974-.25 3.131-.572 3.776-.158.316-.325.492-.471.589A.795.795 0 0 1 43 120c-.228 0-.59-.154-.922-.862-.331-.707-.578-1.874-.578-3.638a.5.5 0 0 0-1 0c0 1.764-.247 2.931-.578 3.638Z" fill="#369EB3"/><path fill-rule="evenodd" clip-rule="evenodd" d="M39.922 119.138c-.332.708-.694.862-.922.862v1c.772 0 1.41-.546 1.828-1.438a5.2 5.2 0 0 0 .172-.419c.054.15.111.289.172.419.418.892 1.056 1.438 1.828 1.438a1.8 1.8 0 0 0 1.012-.303c.322-.215.593-.539.81-.973.083-.166.16-.35.228-.554.144.402.329.782.567 1.09.325.419.783.74 1.383.74s1.058-.321 1.383-.74c.267-.345.466-.78.617-1.236.15.456.35.891.617 1.236.325.419.783.74 1.383.74v-1c-.2 0-.392-.095-.592-.353-.207-.267-.386-.667-.528-1.16-.282-.982-.38-2.181-.38-2.987a.5.5 0 0 0-1 0c0 .806-.098 2.005-.38 2.987-.142.493-.32.893-.528 1.16-.2.258-.392.353-.592.353-.2 0-.392-.095-.592-.353-.207-.267-.386-.667-.528-1.16-.282-.982-.38-2.181-.38-2.987a.5.5 0 0 0-1 0c0 1.974-.25 3.131-.572 3.776-.158.316-.325.492-.471.589A.795.795 0 0 1 43 120c-.228 0-.59-.154-.922-.862-.331-.707-.578-1.874-.578-3.638a.5.5 0 0 0-1 0c0 1.764-.247 2.931-.578 3.638Z" fill="url(#X)" fill-opacity=".5"/><path d="M59.108 115.859a.333.333 0 0 1-.09.109.198.198 0 0 1-.116.031.317.317 0 0 1-.161-.052 3.57 3.57 0 0 0-.203-.123 1.603 1.603 0 0 0-.28-.119 1.129 1.129 0 0 0-.375-.056c-.13 0-.245.017-.343.049a.73.73 0 0 0-.248.13.532.532 0 0 0-.147.203.646.646 0 0 0-.05.255.45.45 0 0 0 .099.298.86.86 0 0 0 .266.203c.11.056.234.106.374.15.14.045.284.093.43.144.148.049.291.107.431.175.14.065.265.149.375.252.11.1.197.224.262.371.068.147.102.325.102.535 0 .229-.04.444-.12.644a1.464 1.464 0 0 1-.342.522c-.15.147-.333.264-.55.35a2.055 2.055 0 0 1-.745.126c-.161 0-.32-.016-.476-.049a2.39 2.39 0 0 1-.854-.343 1.98 1.98 0 0 1-.336-.273l.276-.452a.283.283 0 0 1 .091-.08.224.224 0 0 1 .12-.035.33.33 0 0 1 .188.073c.068.047.148.1.242.158.093.058.201.112.325.161.126.047.277.07.452.07.268 0 .476-.063.623-.189.147-.128.22-.312.22-.55a.501.501 0 0 0-.101-.325.768.768 0 0 0-.263-.21 1.941 1.941 0 0 0-.374-.147c-.14-.04-.283-.083-.427-.13a3.456 3.456 0 0 1-.427-.168 1.375 1.375 0 0 1-.375-.255 1.191 1.191 0 0 1-.266-.392 1.543 1.543 0 0 1-.098-.585 1.4 1.4 0 0 1 .109-.539c.074-.175.182-.33.322-.465s.312-.244.518-.326c.205-.081.44-.122.707-.122.298 0 .574.047.826.14.252.093.466.224.644.392l-.235.444Zm2.256 1.775a1.206 1.206 0 0 0-.41.413.996.996 0 0 0-.059.836.799.799 0 0 0 .179.263.85.85 0 0 0 .591.22c.206 0 .394-.031.564-.094a1.62 1.62 0 0 0 .462-.27l-1.327-1.368Zm3.37 2.366h-.846a.626.626 0 0 1-.217-.032.478.478 0 0 1-.172-.133l-.35-.36a2.527 2.527 0 0 1-1.638.581c-.193 0-.385-.033-.574-.098a1.607 1.607 0 0 1-.5-.291 1.478 1.478 0 0 1-.357-.455 1.345 1.345 0 0 1-.133-.605c0-.159.026-.308.077-.448.051-.142.122-.274.213-.396.091-.121.2-.229.326-.325.126-.098.264-.182.413-.252a1.951 1.951 0 0 1-.273-.511 1.577 1.577 0 0 1-.084-.501c0-.175.031-.34.094-.497a1.21 1.21 0 0 1 .728-.689c.178-.07.378-.105.602-.105a1.5 1.5 0 0 1 .55.094c.163.063.302.147.416.252.117.105.208.226.273.361.068.135.108.275.12.42l-.55.116c-.103.02-.177-.024-.224-.134a.798.798 0 0 0-.084-.171.558.558 0 0 0-.5-.28.628.628 0 0 0-.46.189.674.674 0 0 0-.161.437c0 .07.008.138.022.203a.808.808 0 0 0 .07.196c.033.066.075.133.126.203.054.068.119.142.196.221l1.344 1.396a2.58 2.58 0 0 0 .276-.962.23.23 0 0 1 .056-.13.166.166 0 0 1 .126-.049h.54a3.056 3.056 0 0 1-.134.882c-.086.28-.21.538-.37.774l1.06 1.099Zm4.853-5.061V120h-.945v-2.212h-2.377V120h-.945v-5.061h.945v2.177h2.377v-2.177h.945Z" fill="#369EB3"/><path d="M59.108 115.859a.333.333 0 0 1-.09.109.198.198 0 0 1-.116.031.317.317 0 0 1-.161-.052 3.57 3.57 0 0 0-.203-.123 1.603 1.603 0 0 0-.28-.119 1.129 1.129 0 0 0-.375-.056c-.13 0-.245.017-.343.049a.73.73 0 0 0-.248.13.532.532 0 0 0-.147.203.646.646 0 0 0-.05.255.45.45 0 0 0 .099.298.86.86 0 0 0 .266.203c.11.056.234.106.374.15.14.045.284.093.43.144.148.049.291.107.431.175.14.065.265.149.375.252.11.1.197.224.262.371.068.147.102.325.102.535 0 .229-.04.444-.12.644a1.464 1.464 0 0 1-.342.522c-.15.147-.333.264-.55.35a2.055 2.055 0 0 1-.745.126c-.161 0-.32-.016-.476-.049a2.39 2.39 0 0 1-.854-.343 1.98 1.98 0 0 1-.336-.273l.276-.452a.283.283 0 0 1 .091-.08.224.224 0 0 1 .12-.035.33.33 0 0 1 .188.073c.068.047.148.1.242.158.093.058.201.112.325.161.126.047.277.07.452.07.268 0 .476-.063.623-.189.147-.128.22-.312.22-.55a.501.501 0 0 0-.101-.325.768.768 0 0 0-.263-.21 1.941 1.941 0 0 0-.374-.147c-.14-.04-.283-.083-.427-.13a3.456 3.456 0 0 1-.427-.168 1.375 1.375 0 0 1-.375-.255 1.191 1.191 0 0 1-.266-.392 1.543 1.543 0 0 1-.098-.585 1.4 1.4 0 0 1 .109-.539c.074-.175.182-.33.322-.465s.312-.244.518-.326c.205-.081.44-.122.707-.122.298 0 .574.047.826.14.252.093.466.224.644.392l-.235.444Zm2.256 1.775a1.206 1.206 0 0 0-.41.413.996.996 0 0 0-.059.836.799.799 0 0 0 .179.263.85.85 0 0 0 .591.22c.206 0 .394-.031.564-.094a1.62 1.62 0 0 0 .462-.27l-1.327-1.368Zm3.37 2.366h-.846a.626.626 0 0 1-.217-.032.478.478 0 0 1-.172-.133l-.35-.36a2.527 2.527 0 0 1-1.638.581c-.193 0-.385-.033-.574-.098a1.607 1.607 0 0 1-.5-.291 1.478 1.478 0 0 1-.357-.455 1.345 1.345 0 0 1-.133-.605c0-.159.026-.308.077-.448.051-.142.122-.274.213-.396.091-.121.2-.229.326-.325.126-.098.264-.182.413-.252a1.951 1.951 0 0 1-.273-.511 1.577 1.577 0 0 1-.084-.501c0-.175.031-.34.094-.497a1.21 1.21 0 0 1 .728-.689c.178-.07.378-.105.602-.105a1.5 1.5 0 0 1 .55.094c.163.063.302.147.416.252.117.105.208.226.273.361.068.135.108.275.12.42l-.55.116c-.103.02-.177-.024-.224-.134a.798.798 0 0 0-.084-.171.558.558 0 0 0-.5-.28.628.628 0 0 0-.46.189.674.674 0 0 0-.161.437c0 .07.008.138.022.203a.808.808 0 0 0 .07.196c.033.066.075.133.126.203.054.068.119.142.196.221l1.344 1.396a2.58 2.58 0 0 0 .276-.962.23.23 0 0 1 .056-.13.166.166 0 0 1 .126-.049h.54a3.056 3.056 0 0 1-.134.882c-.086.28-.21.538-.37.774l1.06 1.099Zm4.853-5.061V120h-.945v-2.212h-2.377V120h-.945v-5.061h.945v2.177h2.377v-2.177h.945Z" fill="url(#Y)" fill-opacity=".5"/><defs><linearGradient id="a" x1="9" y1="8" x2="9" y2="9" gradientUnits="userSpaceOnUse"><stop stop-color="#B4B4B4"/><stop offset="1" stop-color="#E4E4E4"/></linearGradient><linearGradient id="b" x1="9" y1="25" x2="9" y2="31" gradientUnits="userSpaceOnUse"><stop stop-color="#B4B4B4"/><stop offset="1" stop-color="#E4E4E4"/></linearGradient><linearGradient id="c" x1="27" y1="25" x2="27" y2="31" gradientUnits="userSpaceOnUse"><stop stop-color="#B4B4B4"/><stop offset="1" stop-color="#E4E4E4"/></linearGradient><linearGradient id="d" x1="45" y1="25" x2="45" y2="31" gradientUnits="userSpaceOnUse"><stop stop-color="#B4B4B4"/><stop offset="1" stop-color="#E4E4E4"/></linearGradient><linearGradient id="e" x1="45.062" y1="20.345" x2="45.062" y2="24.04" gradientUnits="userSpaceOnUse"><stop stop-color="#B4B4B4"/><stop offset="1" stop-color="#E4E4E4"/></linearGradient><linearGradient id="f" x1="63.999" y1="20.743" x2="63.999" y2="33.16" gradientUnits="userSpaceOnUse"><stop stop-color="#B4B4B4"/><stop offset="1" stop-color="#E4E4E4"/></linearGradient><linearGradient id="g" x1="59.162" y1="20.385" x2="59.162" y2="24" gradientUnits="userSpaceOnUse"><stop stop-color="#B4B4B4"/><stop offset="1" stop-color="#E4E4E4"/></linearGradient><linearGradient id="h" x1="82" y1="20.743" x2="82" y2="33.16" gradientUnits="userSpaceOnUse"><stop stop-color="#B4B4B4"/><stop offset="1" stop-color="#E4E4E4"/></linearGradient><linearGradient id="i" x1="77" y1="20.385" x2="77" y2="24" gradientUnits="userSpaceOnUse"><stop stop-color="#B4B4B4"/><stop offset="1" stop-color="#E4E4E4"/></linearGradient><linearGradient id="j" x1="100" y1="20.743" x2="100" y2="33.16" gradientUnits="userSpaceOnUse"><stop stop-color="#B4B4B4"/><stop offset="1" stop-color="#E4E4E4"/></linearGradient><linearGradient id="k" x1="95.106" y1="20.385" x2="95.106" y2="24" gradientUnits="userSpaceOnUse"><stop stop-color="#B4B4B4"/><stop offset="1" stop-color="#E4E4E4"/></linearGradient><linearGradient id="l" x1="117" y1="25" x2="117" y2="31" gradientUnits="userSpaceOnUse"><stop stop-color="#B4B4B4"/><stop offset="1" stop-color="#E4E4E4"/></linearGradient><linearGradient id="m" x1="116.942" y1="20.285" x2="116.942" y2="24.04" gradientUnits="userSpaceOnUse"><stop stop-color="#B4B4B4"/><stop offset="1" stop-color="#E4E4E4"/></linearGradient><linearGradient id="n" x1="135" y1="25" x2="135" y2="31" gradientUnits="userSpaceOnUse"><stop stop-color="#B4B4B4"/><stop offset="1" stop-color="#E4E4E4"/></linearGradient><linearGradient id="o" x1="134.941" y1="20.285" x2="134.941" y2="24.04" gradientUnits="userSpaceOnUse"><stop stop-color="#B4B4B4"/><stop offset="1" stop-color="#E4E4E4"/></linearGradient><linearGradient id="p" x1="153.076" y1="20.345" x2="153.076" y2="24.04" gradientUnits="userSpaceOnUse"><stop stop-color="#B4B4B4"/><stop offset="1" stop-color="#E4E4E4"/></linearGradient><linearGradient id="q" x1="153" y1="24.5" x2="153" y2="31" gradientUnits="userSpaceOnUse"><stop stop-color="#B4B4B4"/><stop offset="1" stop-color="#E4E4E4"/></linearGradient><linearGradient id="r" x1="171.18" y1="20.385" x2="171.18" y2="24" gradientUnits="userSpaceOnUse"><stop stop-color="#B4B4B4"/><stop offset="1" stop-color="#E4E4E4"/></linearGradient><linearGradient id="s" x1="171" y1="24.5" x2="171" y2="31" gradientUnits="userSpaceOnUse"><stop stop-color="#B4B4B4"/><stop offset="1" stop-color="#E4E4E4"/></linearGradient><linearGradient id="t" x1="9" y1="43" x2="9" y2="49" gradientUnits="userSpaceOnUse"><stop stop-color="#B4B4B4"/><stop offset="1" stop-color="#E4E4E4"/></linearGradient><linearGradient id="u" x1="27" y1="43" x2="27" y2="49" gradientUnits="userSpaceOnUse"><stop stop-color="#B4B4B4"/><stop offset="1" stop-color="#E4E4E4"/></linearGradient><linearGradient id="v" x1="45" y1="43" x2="45" y2="49" gradientUnits="userSpaceOnUse"><stop stop-color="#B4B4B4"/><stop offset="1" stop-color="#E4E4E4"/></linearGradient><linearGradient id="w" x1="44.942" y1="38.285" x2="44.942" y2="42.04" gradientUnits="userSpaceOnUse"><stop stop-color="#B4B4B4"/><stop offset="1" stop-color="#E4E4E4"/></linearGradient><linearGradient id="x" x1="63" y1="43.5" x2="63" y2="49" gradientUnits="userSpaceOnUse"><stop stop-color="#B4B4B4"/><stop offset="1" stop-color="#E4E4E4"/></linearGradient><linearGradient id="y" x1="63.076" y1="38.345" x2="63.076" y2="42.04" gradientUnits="userSpaceOnUse"><stop stop-color="#B4B4B4"/><stop offset="1" stop-color="#E4E4E4"/></linearGradient><linearGradient id="z" x1="81" y1="43.5" x2="81" y2="49" gradientUnits="userSpaceOnUse"><stop stop-color="#B4B4B4"/><stop offset="1" stop-color="#E4E4E4"/></linearGradient><linearGradient id="A" x1="81.18" y1="38.385" x2="81.18" y2="42" gradientUnits="userSpaceOnUse"><stop stop-color="#B4B4B4"/><stop offset="1" stop-color="#E4E4E4"/></linearGradient><linearGradient id="B" x1="9" y1="61" x2="9" y2="67" gradientUnits="userSpaceOnUse"><stop stop-color="#B4B4B4"/><stop offset="1" stop-color="#E4E4E4"/></linearGradient><linearGradient id="C" x1="27" y1="61" x2="27" y2="67" gradientUnits="userSpaceOnUse"><stop stop-color="#B4B4B4"/><stop offset="1" stop-color="#E4E4E4"/></linearGradient><linearGradient id="D" x1="45" y1="61" x2="45" y2="67" gradientUnits="userSpaceOnUse"><stop stop-color="#B4B4B4"/><stop offset="1" stop-color="#E4E4E4"/></linearGradient><linearGradient id="E" x1="45.062" y1="56.345" x2="45.062" y2="60.04" gradientUnits="userSpaceOnUse"><stop stop-color="#B4B4B4"/><stop offset="1" stop-color="#E4E4E4"/></linearGradient><linearGradient id="F" x1="63" y1="61" x2="63" y2="67" gradientUnits="userSpaceOnUse"><stop stop-color="#B4B4B4"/><stop offset="1" stop-color="#E4E4E4"/></linearGradient><linearGradient id="G" x1="62.942" y1="56.285" x2="62.942" y2="60.04" gradientUnits="userSpaceOnUse"><stop stop-color="#B4B4B4"/><stop offset="1" stop-color="#E4E4E4"/></linearGradient><linearGradient id="H" x1="81" y1="60.5" x2="81" y2="67" gradientUnits="userSpaceOnUse"><stop stop-color="#B4B4B4"/><stop offset="1" stop-color="#E4E4E4"/></linearGradient><linearGradient id="I" x1="81.076" y1="56.345" x2="81.076" y2="60.04" gradientUnits="userSpaceOnUse"><stop stop-color="#B4B4B4"/><stop offset="1" stop-color="#E4E4E4"/></linearGradient><linearGradient id="J" x1="99" y1="60.5" x2="99" y2="67" gradientUnits="userSpaceOnUse"><stop stop-color="#B4B4B4"/><stop offset="1" stop-color="#E4E4E4"/></linearGradient><linearGradient id="K" x1="99.181" y1="56.385" x2="99.181" y2="60" gradientUnits="userSpaceOnUse"><stop stop-color="#B4B4B4"/><stop offset="1" stop-color="#E4E4E4"/></linearGradient><linearGradient id="L" x1="9" y1="79" x2="9" y2="85" gradientUnits="userSpaceOnUse"><stop stop-color="#B4B4B4"/><stop offset="1" stop-color="#E4E4E4"/></linearGradient><linearGradient id="M" x1="27" y1="79" x2="27" y2="85" gradientUnits="userSpaceOnUse"><stop stop-color="#B4B4B4"/><stop offset="1" stop-color="#E4E4E4"/></linearGradient><linearGradient id="N" x1="45" y1="79" x2="45" y2="85" gradientUnits="userSpaceOnUse"><stop stop-color="#B4B4B4"/><stop offset="1" stop-color="#E4E4E4"/></linearGradient><linearGradient id="O" x1="44.942" y1="74.285" x2="44.942" y2="78.04" gradientUnits="userSpaceOnUse"><stop stop-color="#B4B4B4"/><stop offset="1" stop-color="#E4E4E4"/></linearGradient><linearGradient id="P" x1="63" y1="79.5" x2="63" y2="84.5" gradientUnits="userSpaceOnUse"><stop stop-color="#B4B4B4"/><stop offset="1" stop-color="#E4E4E4"/></linearGradient><linearGradient id="Q" x1="63.076" y1="74.345" x2="63.076" y2="78.04" gradientUnits="userSpaceOnUse"><stop stop-color="#B4B4B4"/><stop offset="1" stop-color="#E4E4E4"/></linearGradient><linearGradient id="R" x1="81" y1="79.5" x2="81" y2="84.5" gradientUnits="userSpaceOnUse"><stop stop-color="#B4B4B4"/><stop offset="1" stop-color="#E4E4E4"/></linearGradient><linearGradient id="S" x1="81.18" y1="74.385" x2="81.18" y2="78" gradientUnits="userSpaceOnUse"><stop stop-color="#B4B4B4"/><stop offset="1" stop-color="#E4E4E4"/></linearGradient><linearGradient id="T" x1="9" y1="97.5" x2="9" y2="103" gradientUnits="userSpaceOnUse"><stop stop-color="#B4B4B4"/><stop offset="1" stop-color="#E4E4E4"/></linearGradient><linearGradient id="U" x1="8.834" y1="92.385" x2="8.834" y2="96" gradientUnits="userSpaceOnUse"><stop stop-color="#B4B4B4"/><stop offset="1" stop-color="#E4E4E4"/></linearGradient><linearGradient id="V" x1="8.902" y1="114.939" x2="8.902" y2="120" gradientUnits="userSpaceOnUse"><stop stop-color="#B4B4B4"/><stop offset="1" stop-color="#E4E4E4"/></linearGradient><linearGradient id="W" x1="27" y1="115" x2="27" y2="121" gradientUnits="userSpaceOnUse"><stop stop-color="#B4B4B4"/><stop offset="1" stop-color="#E4E4E4"/></linearGradient><linearGradient id="X" x1="45" y1="115" x2="45" y2="121" gradientUnits="userSpaceOnUse"><stop stop-color="#B4B4B4"/><stop offset="1" stop-color="#E4E4E4"/></linearGradient><linearGradient id="Y" x1="62.799" y1="114.883" x2="62.799" y2="120.056" gradientUnits="userSpaceOnUse"><stop stop-color="#B4B4B4"/><stop offset="1" stop-color="#E4E4E4"/></linearGradient></defs></svg>