<svg width="48" height="56" fill="none" xmlns="http://www.w3.org/2000/svg"><path opacity=".3" d="M9 20A8.5 8.5 0 1 0 9 3a8.5 8.5 0 0 0 0 17Z" fill="url(#a)" fill-opacity=".75"/><path opacity=".3" d="M33 20a8.5 8.5 0 1 0 0-17 8.5 8.5 0 0 0 0 17Z" fill="url(#b)" fill-opacity=".75"/><path opacity=".3" d="M9 48a8.5 8.5 0 1 0 0-17 8.5 8.5 0 0 0 0 17Z" fill="url(#c)" fill-opacity=".75"/><path opacity=".3" d="M33 48a8.5 8.5 0 1 0 0-17 8.5 8.5 0 0 0 0 17Z" fill="url(#d)" fill-opacity=".75"/><defs><linearGradient id="a" x1="9" y1="3" x2="9" y2="20" gradientUnits="userSpaceOnUse"><stop stop-color="#B4B4B4"/><stop offset="1" stop-color="#E4E4E4"/></linearGradient><linearGradient id="b" x1="33" y1="3" x2="33" y2="20" gradientUnits="userSpaceOnUse"><stop stop-color="#B4B4B4"/><stop offset="1" stop-color="#E4E4E4"/></linearGradient><linearGradient id="c" x1="9" y1="31" x2="9" y2="48" gradientUnits="userSpaceOnUse"><stop stop-color="#B4B4B4"/><stop offset="1" stop-color="#E4E4E4"/></linearGradient><linearGradient id="d" x1="33" y1="31" x2="33" y2="48" gradientUnits="userSpaceOnUse"><stop stop-color="#B4B4B4"/><stop offset="1" stop-color="#E4E4E4"/></linearGradient></defs></svg>