<svg width="134" height="208" fill="none" xmlns="http://www.w3.org/2000/svg"><rect x="99.511" y="200" width="30" height="6" rx="1" fill="url(#a)" fill-opacity=".25"/><rect x="99.511" y="200" width="30" height="6" rx="1" stroke="url(#b)" stroke-opacity=".25"/><rect x="67.511" y="148" width="30" height="6" rx="1" fill="url(#c)" fill-opacity=".25"/><rect x="67.511" y="148" width="30" height="6" rx="1" stroke="url(#d)" stroke-opacity=".25"/><rect x="35.511" y="96" width="30" height="6" rx="1" fill="url(#e)" fill-opacity=".25"/><rect x="35.511" y="96" width="30" height="6" rx="1" stroke="url(#f)" stroke-opacity=".25"/><rect x="3.5" y="44" width="30" height="6" rx="1" fill="url(#g)" fill-opacity=".25"/><rect x="3.5" y="44" width="30" height="6" rx="1" stroke="url(#h)" stroke-opacity=".25"/><defs><linearGradient id="a" x1="114.511" y1="200" x2="114.511" y2="206" gradientUnits="userSpaceOnUse"><stop stop-color="#B4B4B4"/><stop offset="1" stop-color="#E4E4E4"/></linearGradient><linearGradient id="b" x1="114.511" y1="200" x2="114.511" y2="206" gradientUnits="userSpaceOnUse"><stop stop-color="#B4B4B4"/><stop offset="1" stop-color="#E4E4E4"/></linearGradient><linearGradient id="c" x1="82.511" y1="148" x2="82.511" y2="154" gradientUnits="userSpaceOnUse"><stop stop-color="#B4B4B4"/><stop offset="1" stop-color="#E4E4E4"/></linearGradient><linearGradient id="d" x1="82.511" y1="148" x2="82.511" y2="154" gradientUnits="userSpaceOnUse"><stop stop-color="#B4B4B4"/><stop offset="1" stop-color="#E4E4E4"/></linearGradient><linearGradient id="e" x1="50.511" y1="96" x2="50.511" y2="102" gradientUnits="userSpaceOnUse"><stop stop-color="#B4B4B4"/><stop offset="1" stop-color="#E4E4E4"/></linearGradient><linearGradient id="f" x1="50.511" y1="96" x2="50.511" y2="102" gradientUnits="userSpaceOnUse"><stop stop-color="#B4B4B4"/><stop offset="1" stop-color="#E4E4E4"/></linearGradient><linearGradient id="g" x1="18.5" y1="44" x2="18.5" y2="50" gradientUnits="userSpaceOnUse"><stop stop-color="#B4B4B4"/><stop offset="1" stop-color="#E4E4E4"/></linearGradient><linearGradient id="h" x1="18.5" y1="44" x2="18.5" y2="50" gradientUnits="userSpaceOnUse"><stop stop-color="#B4B4B4"/><stop offset="1" stop-color="#E4E4E4"/></linearGradient></defs></svg>