<svg width="56" height="48" fill="none" xmlns="http://www.w3.org/2000/svg"><path d="M11.5 17c3.038 0 5.5-2.686 5.5-6s-2.462-6-5.5-6S6 7.686 6 11s2.462 6 5.5 6Z" fill="url(#a)"/><path d="M16.5 8.5a5 5 0 1 1-10 0 5 5 0 0 1 10 0Z" fill="url(#b)" stroke="url(#c)"/><path opacity=".2" d="M11 7.75v2a.5.5 0 0 0 1 0v-2a.5.5 0 0 0-1 0Z" fill="#EEE"/><path d="M11 7.5v2a.5.5 0 0 0 1 0v-2a.5.5 0 0 0-1 0Z" fill="#369EB3"/><path d="M11.5 41c3.038 0 5.5-2.686 5.5-6s-2.462-6-5.5-6S6 31.686 6 35s2.462 6 5.5 6Z" fill="url(#d)"/><path d="M16.5 32.5a5 5 0 1 1-10 0 5 5 0 0 1 10 0Z" fill="url(#e)" stroke="url(#f)"/><path opacity=".2" d="M11 31.75v2a.5.5 0 0 0 1 0v-2a.5.5 0 0 0-1 0Z" fill="#EEE"/><path d="M11 31.5v2a.5.5 0 0 0 1 0v-2a.5.5 0 0 0-1 0Z" fill="#369EB3"/><path d="M39.5 17c3.038 0 5.5-2.686 5.5-6s-2.462-6-5.5-6S34 7.686 34 11s2.462 6 5.5 6Z" fill="url(#g)"/><path d="M44.5 8.5a5 5 0 1 1-10 0 5 5 0 0 1 10 0Z" fill="url(#h)" stroke="#369EB3"/><path opacity=".2" d="M39 7.75v2a.5.5 0 0 0 1 0v-2a.5.5 0 0 0-1 0Z" fill="#EEE"/><path d="M39 7.5v2a.5.5 0 0 0 1 0v-2a.5.5 0 0 0-1 0Z" fill="#fff"/><path d="M39.5 41c3.038 0 5.5-2.686 5.5-6s-2.462-6-5.5-6-5.5 2.686-5.5 6 2.462 6 5.5 6Z" fill="url(#i)"/><path d="M44.5 32.5a5 5 0 1 1-10 0 5 5 0 0 1 10 0Z" fill="url(#j)" stroke="#369EB3"/><path opacity=".2" d="M39 31.75v2a.5.5 0 0 0 1 0v-2a.5.5 0 0 0-1 0Z" fill="#EEE"/><path d="M39 31.5v2a.5.5 0 0 0 1 0v-2a.5.5 0 0 0-1 0Z" fill="#fff"/><defs><linearGradient id="a" x1="11.5" y1="11" x2="11.5" y2="17" gradientUnits="userSpaceOnUse"><stop offset=".521"/><stop offset="1" stop-opacity="0"/></linearGradient><linearGradient id="b" x1="11.5" y1="3" x2="11.5" y2="14" gradientUnits="userSpaceOnUse"><stop/><stop offset="1" stop-color="#353535"/></linearGradient><linearGradient id="c" x1="11.5" y1="3" x2="11.5" y2="14" gradientUnits="userSpaceOnUse"><stop stop-color="#B4B4B4" stop-opacity=".25"/><stop offset="1" stop-color="#B4B4B4" stop-opacity=".4"/></linearGradient><linearGradient id="d" x1="11.5" y1="35" x2="11.5" y2="41" gradientUnits="userSpaceOnUse"><stop offset=".521"/><stop offset="1" stop-opacity="0"/></linearGradient><linearGradient id="e" x1="11.5" y1="27" x2="11.5" y2="38" gradientUnits="userSpaceOnUse"><stop/><stop offset="1" stop-color="#353535"/></linearGradient><linearGradient id="f" x1="11.5" y1="27" x2="11.5" y2="38" gradientUnits="userSpaceOnUse"><stop stop-color="#B4B4B4" stop-opacity=".25"/><stop offset="1" stop-color="#B4B4B4" stop-opacity=".4"/></linearGradient><linearGradient id="g" x1="39.5" y1="11" x2="39.5" y2="17" gradientUnits="userSpaceOnUse"><stop offset=".521"/><stop offset="1" stop-opacity="0"/></linearGradient><linearGradient id="h" x1="39.5" y1="3" x2="39.5" y2="14" gradientUnits="userSpaceOnUse"><stop stop-color="#369EB3"/><stop offset="1" stop-color="#000B0E"/></linearGradient><linearGradient id="i" x1="39.5" y1="35" x2="39.5" y2="41" gradientUnits="userSpaceOnUse"><stop offset=".521"/><stop offset="1" stop-opacity="0"/></linearGradient><linearGradient id="j" x1="39.5" y1="27" x2="39.5" y2="38" gradientUnits="userSpaceOnUse"><stop stop-color="#369EB3"/><stop offset="1" stop-color="#000B0E"/></linearGradient></defs></svg>