<svg width="16" height="24" viewBox="0 0 16 24" fill="none" xmlns="http://www.w3.org/2000/svg">
<path d="M0.5 3.5C0.5 1.84315 1.84315 0.5 3.5 0.5H15.5V11.5H3.5C1.84315 11.5 0.5 10.1569 0.5 8.5V3.5Z" fill="url(#paint0_linear_2_87)"/>
<path d="M8.24997 4C7.0229 4 5.93692 4.55697 5.25278 5.41454L4 4.23525V8H8.00025L6.63931 6.71927C7.00092 5.68702 8.03217 4.94116 9.24989 4.94116C10.7695 4.94116 12 6.10018 12 7.52948C12 5.57998 10.3212 4 8.24997 4Z" fill="black"/>
<path d="M0.5 15.5C0.5 13.8431 1.84315 12.5 3.5 12.5H15.5V23.5H3.5C1.84315 23.5 0.5 22.1569 0.5 20.5V15.5Z" fill="url(#paint1_linear_2_87)"/>
<path d="M8.24997 16C7.0229 16 5.93692 16.557 5.25278 17.4145L4 16.2353V20H8.00025L6.63931 18.7193C7.00092 17.687 8.03217 16.9412 9.24989 16.9412C10.7695 16.9412 12 18.1002 12 19.5295C12 17.58 10.3212 16 8.24997 16Z" fill="black"/>
<defs>
<linearGradient id="paint0_linear_2_87" x1="8" y1="1.5" x2="8" y2="11" gradientUnits="userSpaceOnUse">
<stop offset="0.0520833" stop-color="#D9D9D9"/>
<stop offset="0.0521833" stop-color="#8E8E8E"/>
<stop offset="0.890625" stop-color="#858585"/>
<stop offset="0.911458" stop-color="#535353"/>
</linearGradient>
<linearGradient id="paint1_linear_2_87" x1="8" y1="13.5" x2="8" y2="23" gradientUnits="userSpaceOnUse">
<stop offset="0.0520833" stop-color="#D9D9D9"/>
<stop offset="0.0521833" stop-color="#8E8E8E"/>
<stop offset="0.890625" stop-color="#858585"/>
<stop offset="0.911458" stop-color="#535353"/>
</linearGradient>
</defs>
</svg>
