<svg width="48" height="56" viewBox="0 0 48 56" fill="none" xmlns="http://www.w3.org/2000/svg">
<rect x="16.15" y="2.35" width="18.3" height="13.3" rx="4.65" transform="rotate(90 16.15 2.35)" fill="url(#paint0_linear)" stroke="black" stroke-width="0.7"/>
<rect x="14.5" y="7" width="9" height="10" rx="2" transform="rotate(90 14.5 7)" fill="url(#paint1_linear)"/>
<rect x="26.5" y="2.5" width="13" height="18" rx="5" fill="#CFCFCF"/>
<path fill-rule="evenodd" clip-rule="evenodd" d="M37 5V15.8569C37 17.0397 36.0437 18 34.8658 18H29L29 7.14309C29 5.96031 29.9565 5 31.1344 5L37 5Z" fill="#CFCFCF"/>
<rect x="40.15" y="2.35" width="18.3" height="13.3" rx="4.65" transform="rotate(90 40.15 2.35)" fill="url(#paint2_linear)" stroke="black" stroke-width="0.7"/>
<rect x="38.5" y="7" width="9" height="10" rx="2" transform="rotate(90 38.5 7)" fill="url(#paint3_linear)"/>
<rect x="16.15" y="30.35" width="18.3" height="13.3" rx="4.65" transform="rotate(90 16.15 30.35)" fill="url(#paint4_linear)" stroke="black" stroke-width="0.7"/>
<rect x="14.5" y="35" width="9" height="10" rx="2" transform="rotate(90 14.5 35)" fill="url(#paint5_linear)"/>
<rect x="26.5" y="30.5" width="13" height="18" rx="5" fill="#CFCFCF"/>
<path fill-rule="evenodd" clip-rule="evenodd" d="M37 33V43.8569C37 45.0397 36.0437 46 34.8658 46H29L29 35.1431C29 33.9603 29.9565 33 31.1344 33H37Z" fill="#CFCFCF"/>
<rect x="40.15" y="30.35" width="18.3" height="13.3" rx="4.65" transform="rotate(90 40.15 30.35)" fill="url(#paint6_linear)" stroke="black" stroke-width="0.7"/>
<rect x="38.5" y="35" width="9" height="10" rx="2" transform="rotate(90 38.5 35)" fill="url(#paint7_linear)"/>
<defs>
<linearGradient id="paint0_linear" x1="35.5" y1="-0.500001" x2="35.5" y2="19.5" gradientUnits="userSpaceOnUse">
<stop stop-color="#E1E1E1"/>
<stop offset="1" stop-color="#626262"/>
</linearGradient>
<linearGradient id="paint1_linear" x1="23.5" y1="7" x2="23.5" y2="17" gradientUnits="userSpaceOnUse">
<stop offset="0.182158" stop-color="#636262"/>
<stop offset="0.980215" stop-color="#DFDFDF"/>
</linearGradient>
<linearGradient id="paint2_linear" x1="59.5" y1="2" x2="59.5" y2="15.3" gradientUnits="userSpaceOnUse">
<stop offset="0.0885417" stop-color="#71ACFD"/>
<stop offset="0.489583" stop-color="#4585EE"/>
<stop offset="0.614583" stop-color="#4585EE"/>
<stop offset="0.864583" stop-color="#535B66"/>
</linearGradient>
<linearGradient id="paint3_linear" x1="47.5" y1="7" x2="47.5" y2="16.5" gradientUnits="userSpaceOnUse">
<stop offset="0.15625" stop-color="#4F5661"/>
<stop offset="0.46875" stop-color="#4585EE"/>
<stop offset="0.916667" stop-color="#71ACFD"/>
</linearGradient>
<linearGradient id="paint4_linear" x1="35.5" y1="27.5" x2="35.5" y2="47.5" gradientUnits="userSpaceOnUse">
<stop stop-color="#959595"/>
<stop offset="1" stop-color="#212121"/>
</linearGradient>
<linearGradient id="paint5_linear" x1="23.5" y1="35" x2="23.5" y2="45" gradientUnits="userSpaceOnUse">
<stop offset="0.182158" stop-color="#2C2C2C"/>
<stop offset="0.980215" stop-color="#9B9B9B"/>
</linearGradient>
<linearGradient id="paint6_linear" x1="59.5" y1="30" x2="59.5" y2="43.3" gradientUnits="userSpaceOnUse">
<stop offset="0.0885417" stop-color="#71ACFD"/>
<stop offset="0.489583" stop-color="#4585EE"/>
<stop offset="0.614583" stop-color="#4585EE"/>
<stop offset="0.864583" stop-color="#535B66"/>
</linearGradient>
<linearGradient id="paint7_linear" x1="47.5" y1="35" x2="47.5" y2="44.5" gradientUnits="userSpaceOnUse">
<stop offset="0.15625" stop-color="#4F5661"/>
<stop offset="0.46875" stop-color="#4585EE"/>
<stop offset="0.916667" stop-color="#71ACFD"/>
</linearGradient>
</defs>
</svg>
