<svg width="31" height="24" viewBox="0 0 31 24" fill="none" xmlns="http://www.w3.org/2000/svg">
<path d="M0.5 3.5C0.5 1.84315 1.84315 0.5 3.5 0.5H27.5C29.1569 0.5 30.5 1.84315 30.5 3.5V8.5C30.5 10.1569 29.1569 11.5 27.5 11.5H3.5C1.84315 11.5 0.5 10.1569 0.5 8.5V3.5Z" fill="url(#paint0_linear)"/>
<path d="M11.6843 4.1H9.94031V9H8.86431V4.1H7.12031V3.216H11.6843V4.1ZM14.959 4.896V9H14.355C14.2243 9 14.1417 8.94 14.107 8.82L14.039 8.492C13.871 8.66267 13.6857 8.80133 13.483 8.908C13.2803 9.012 13.0417 9.064 12.767 9.064C12.543 9.064 12.3443 9.02667 12.171 8.952C12.0003 8.87467 11.8563 8.76667 11.739 8.628C11.6217 8.48933 11.5323 8.32533 11.471 8.136C11.4123 7.944 11.383 7.73333 11.383 7.504V4.896H12.371V7.504C12.371 7.75467 12.4283 7.94933 12.543 8.088C12.6603 8.224 12.835 8.292 13.067 8.292C13.2377 8.292 13.3977 8.25467 13.547 8.18C13.6963 8.10267 13.8377 7.99733 13.971 7.864V4.896H14.959ZM16.7426 5.4C16.8253 5.31733 16.912 5.24133 17.0026 5.172C17.096 5.1 17.1933 5.04 17.2946 4.992C17.3986 4.94133 17.5093 4.90267 17.6266 4.876C17.744 4.84667 17.872 4.832 18.0106 4.832C18.2346 4.832 18.4333 4.87067 18.6066 4.948C18.78 5.02267 18.924 5.12933 19.0386 5.268C19.156 5.404 19.244 5.568 19.3026 5.76C19.364 5.94933 19.3946 6.15867 19.3946 6.388V9H18.4066V6.388C18.4066 6.13733 18.3493 5.944 18.2346 5.808C18.12 5.66933 17.9453 5.6 17.7106 5.6C17.54 5.6 17.38 5.63867 17.2306 5.716C17.0813 5.79333 16.94 5.89867 16.8066 6.032V9H15.8186V4.896H16.4226C16.5506 4.896 16.6346 4.956 16.6746 5.076L16.7426 5.4ZM22.8582 6.476C22.8582 6.348 22.8396 6.228 22.8022 6.116C22.7676 6.00133 22.7142 5.90133 22.6422 5.816C22.5702 5.73067 22.4782 5.664 22.3662 5.616C22.2569 5.56533 22.1289 5.54 21.9822 5.54C21.6969 5.54 21.4716 5.62133 21.3062 5.784C21.1436 5.94667 21.0396 6.17733 20.9942 6.476H22.8582ZM20.9742 7.072C20.9902 7.28267 21.0276 7.46533 21.0862 7.62C21.1449 7.772 21.2222 7.89867 21.3182 8C21.4142 8.09867 21.5276 8.17333 21.6582 8.224C21.7916 8.272 21.9382 8.296 22.0982 8.296C22.2582 8.296 22.3956 8.27733 22.5102 8.24C22.6276 8.20267 22.7289 8.16133 22.8142 8.116C22.9022 8.07067 22.9782 8.02933 23.0422 7.992C23.1089 7.95467 23.1729 7.936 23.2342 7.936C23.3169 7.936 23.3782 7.96667 23.4182 8.028L23.7022 8.388C23.5929 8.516 23.4702 8.624 23.3342 8.712C23.1982 8.79733 23.0556 8.86667 22.9062 8.92C22.7596 8.97067 22.6089 9.00667 22.4542 9.028C22.3022 9.04933 22.1542 9.06 22.0102 9.06C21.7249 9.06 21.4596 9.01333 21.2142 8.92C20.9689 8.824 20.7556 8.684 20.5742 8.5C20.3929 8.31333 20.2502 8.084 20.1462 7.812C20.0422 7.53733 19.9902 7.22 19.9902 6.86C19.9902 6.58 20.0356 6.31733 20.1262 6.072C20.2169 5.824 20.3462 5.60933 20.5142 5.428C20.6849 5.244 20.8916 5.09867 21.1342 4.992C21.3796 4.88533 21.6556 4.832 21.9622 4.832C22.2209 4.832 22.4596 4.87333 22.6782 4.956C22.8969 5.03867 23.0849 5.16 23.2422 5.32C23.3996 5.47733 23.5222 5.672 23.6102 5.904C23.7009 6.13333 23.7462 6.396 23.7462 6.692C23.7462 6.84133 23.7302 6.94267 23.6982 6.996C23.6662 7.04667 23.6049 7.072 23.5142 7.072H20.9742Z" fill="black"/>
<path d="M3.5 0.875H27.5V0.125H3.5V0.875ZM30.125 3.5V8.5H30.875V3.5H30.125ZM27.5 11.125H3.5V11.875H27.5V11.125ZM0.875 8.5V3.5H0.125V8.5H0.875ZM3.5 11.125C2.05025 11.125 0.875 9.94975 0.875 8.5H0.125C0.125 10.364 1.63604 11.875 3.5 11.875V11.125ZM30.125 8.5C30.125 9.94975 28.9497 11.125 27.5 11.125V11.875C29.364 11.875 30.875 10.364 30.875 8.5H30.125ZM27.5 0.875C28.9497 0.875 30.125 2.05025 30.125 3.5H30.875C30.875 1.63604 29.364 0.125 27.5 0.125V0.875ZM3.5 0.125C1.63604 0.125 0.125 1.63604 0.125 3.5H0.875C0.875 2.05025 2.05025 0.875 3.5 0.875V0.125Z" fill="url(#paint1_linear)"/>
<path d="M0.5 15.5C0.5 13.8431 1.84315 12.5 3.5 12.5H27.5C29.1569 12.5 30.5 13.8431 30.5 15.5V20.5C30.5 22.1569 29.1569 23.5 27.5 23.5H3.5C1.84315 23.5 0.5 22.1569 0.5 20.5V15.5Z" fill="#979797"/>
<rect x="2" y="14" width="27" height="8" rx="1.5" fill="url(#paint2_linear)"/>
<rect x="2" y="14" width="27" height="8" rx="1.5" stroke="url(#paint3_linear)"/>
<path d="M11.6843 16.1H9.94031V21H8.86431V16.1H7.12031V15.216H11.6843V16.1ZM14.959 16.896V21H14.355C14.2243 21 14.1417 20.94 14.107 20.82L14.039 20.492C13.871 20.6627 13.6857 20.8013 13.483 20.908C13.2803 21.012 13.0417 21.064 12.767 21.064C12.543 21.064 12.3443 21.0267 12.171 20.952C12.0003 20.8747 11.8563 20.7667 11.739 20.628C11.6217 20.4893 11.5323 20.3253 11.471 20.136C11.4123 19.944 11.383 19.7333 11.383 19.504V16.896H12.371V19.504C12.371 19.7547 12.4283 19.9493 12.543 20.088C12.6603 20.224 12.835 20.292 13.067 20.292C13.2377 20.292 13.3977 20.2547 13.547 20.18C13.6963 20.1027 13.8377 19.9973 13.971 19.864V16.896H14.959ZM16.7426 17.4C16.8253 17.3173 16.912 17.2413 17.0026 17.172C17.096 17.1 17.1933 17.04 17.2946 16.992C17.3986 16.9413 17.5093 16.9027 17.6266 16.876C17.744 16.8467 17.872 16.832 18.0106 16.832C18.2346 16.832 18.4333 16.8707 18.6066 16.948C18.78 17.0227 18.924 17.1293 19.0386 17.268C19.156 17.404 19.244 17.568 19.3026 17.76C19.364 17.9493 19.3946 18.1587 19.3946 18.388V21H18.4066V18.388C18.4066 18.1373 18.3493 17.944 18.2346 17.808C18.12 17.6693 17.9453 17.6 17.7106 17.6C17.54 17.6 17.38 17.6387 17.2306 17.716C17.0813 17.7933 16.94 17.8987 16.8066 18.032V21H15.8186V16.896H16.4226C16.5506 16.896 16.6346 16.956 16.6746 17.076L16.7426 17.4ZM22.8582 18.476C22.8582 18.348 22.8396 18.228 22.8022 18.116C22.7676 18.0013 22.7142 17.9013 22.6422 17.816C22.5702 17.7307 22.4782 17.664 22.3662 17.616C22.2569 17.5653 22.1289 17.54 21.9822 17.54C21.6969 17.54 21.4716 17.6213 21.3062 17.784C21.1436 17.9467 21.0396 18.1773 20.9942 18.476H22.8582ZM20.9742 19.072C20.9902 19.2827 21.0276 19.4653 21.0862 19.62C21.1449 19.772 21.2222 19.8987 21.3182 20C21.4142 20.0987 21.5276 20.1733 21.6582 20.224C21.7916 20.272 21.9382 20.296 22.0982 20.296C22.2582 20.296 22.3956 20.2773 22.5102 20.24C22.6276 20.2027 22.7289 20.1613 22.8142 20.116C22.9022 20.0707 22.9782 20.0293 23.0422 19.992C23.1089 19.9547 23.1729 19.936 23.2342 19.936C23.3169 19.936 23.3782 19.9667 23.4182 20.028L23.7022 20.388C23.5929 20.516 23.4702 20.624 23.3342 20.712C23.1982 20.7973 23.0556 20.8667 22.9062 20.92C22.7596 20.9707 22.6089 21.0067 22.4542 21.028C22.3022 21.0493 22.1542 21.06 22.0102 21.06C21.7249 21.06 21.4596 21.0133 21.2142 20.92C20.9689 20.824 20.7556 20.684 20.5742 20.5C20.3929 20.3133 20.2502 20.084 20.1462 19.812C20.0422 19.5373 19.9902 19.22 19.9902 18.86C19.9902 18.58 20.0356 18.3173 20.1262 18.072C20.2169 17.824 20.3462 17.6093 20.5142 17.428C20.6849 17.244 20.8916 17.0987 21.1342 16.992C21.3796 16.8853 21.6556 16.832 21.9622 16.832C22.2209 16.832 22.4596 16.8733 22.6782 16.956C22.8969 17.0387 23.0849 17.16 23.2422 17.32C23.3996 17.4773 23.5222 17.672 23.6102 17.904C23.7009 18.1333 23.7462 18.396 23.7462 18.692C23.7462 18.8413 23.7302 18.9427 23.6982 18.996C23.6662 19.0467 23.6049 19.072 23.5142 19.072H20.9742Z" fill="black"/>
<path d="M3.5 12.875H27.5V12.125H3.5V12.875ZM30.125 15.5V20.5H30.875V15.5H30.125ZM27.5 23.125H3.5V23.875H27.5V23.125ZM0.875 20.5V15.5H0.125V20.5H0.875ZM3.5 23.125C2.05025 23.125 0.875 21.9497 0.875 20.5H0.125C0.125 22.364 1.63604 23.875 3.5 23.875V23.125ZM30.125 20.5C30.125 21.9497 28.9497 23.125 27.5 23.125V23.875C29.364 23.875 30.875 22.364 30.875 20.5H30.125ZM27.5 12.875C28.9497 12.875 30.125 14.0503 30.125 15.5H30.875C30.875 13.636 29.364 12.125 27.5 12.125V12.875ZM3.5 12.125C1.63604 12.125 0.125 13.636 0.125 15.5H0.875C0.875 14.0503 2.05025 12.875 3.5 12.875V12.125Z" fill="url(#paint4_linear)"/>
<defs>
<linearGradient id="paint0_linear" x1="15.5" y1="0.5" x2="15.5" y2="11.5" gradientUnits="userSpaceOnUse">
<stop offset="0.0520833" stop-color="#D9D9D9"/>
<stop offset="0.0521833" stop-color="#8E8E8E"/>
<stop offset="0.963542" stop-color="#858585"/>
<stop offset="0.984375" stop-color="#535353"/>
</linearGradient>
<linearGradient id="paint1_linear" x1="15.5" y1="0.5" x2="15.5" y2="11.5" gradientUnits="userSpaceOnUse">
<stop offset="0.0520833" stop-color="#D9D9D9"/>
<stop offset="0.0521833" stop-color="#8E8E8E"/>
<stop offset="0.963542" stop-color="#858585"/>
<stop offset="0.984375" stop-color="#535353"/>
</linearGradient>
<linearGradient id="paint2_linear" x1="15.5" y1="14.5" x2="15.5" y2="21.5" gradientUnits="userSpaceOnUse">
<stop stop-color="#D57A00"/>
<stop offset="0.145833" stop-color="#FF9300"/>
<stop offset="0.463542" stop-color="#FF9300"/>
<stop offset="0.776042" stop-color="#FFA632"/>
</linearGradient>
<linearGradient id="paint3_linear" x1="15.5" y1="14.5" x2="15.5" y2="21.5" gradientUnits="userSpaceOnUse">
<stop offset="0.00520833" stop-color="#BA6B00"/>
<stop offset="0.317708" stop-color="#FF9300"/>
<stop offset="0.46875" stop-color="#EA8700"/>
<stop offset="0.729167" stop-color="#FF9300"/>
<stop offset="1" stop-color="#FFDCAD"/>
</linearGradient>
<linearGradient id="paint4_linear" x1="15.5" y1="12.5" x2="15.5" y2="23.5" gradientUnits="userSpaceOnUse">
<stop offset="0.0520833" stop-color="#D9D9D9"/>
<stop offset="0.0521833" stop-color="#8E8E8E"/>
<stop offset="0.963542" stop-color="#858585"/>
<stop offset="0.984375" stop-color="#535353"/>
</linearGradient>
</defs>
</svg>
