<svg width="135" height="108" viewBox="0 0 135 108" fill="none" xmlns="http://www.w3.org/2000/svg">
<path d="M0.5 3.5C0.5 1.84315 1.84315 0.5 3.5 0.5H131.5C133.157 0.5 134.5 1.84315 134.5 3.5V23.5C134.5 25.1569 133.157 26.5 131.5 26.5H3.5C1.84314 26.5 0.5 25.1569 0.5 23.5V3.5Z" fill="#535353"/>
<rect x="35.5" y="2.5" width="30" height="22" rx="1" fill="url(#paint0_linear)" stroke="url(#paint1_linear)" stroke-width="2" stroke-linejoin="round"/>
<rect x="69.5" y="2.5" width="30" height="22" rx="1" fill="url(#paint2_linear)" stroke="url(#paint3_linear)" stroke-width="2" stroke-linejoin="round"/>
<rect x="103.5" y="2.5" width="29" height="22" rx="1" fill="url(#paint4_linear)" stroke="url(#paint5_linear)" stroke-width="2" stroke-linejoin="round"/>
<rect x="2.48389" y="2.5" width="29.0323" height="22" rx="1" fill="url(#paint6_linear)"/>
<rect x="2.48389" y="2.5" width="29.0323" height="22" rx="1" stroke="url(#paint7_linear)" stroke-width="2"/>
<path d="M15.5022 14.108C15.5022 14.532 15.4315 14.9253 15.2902 15.288C15.1515 15.648 14.9542 15.96 14.6982 16.224C14.4422 16.488 14.1342 16.6947 13.7742 16.844C13.4142 16.9907 13.0142 17.064 12.5742 17.064C12.1368 17.064 11.7382 16.9907 11.3782 16.844C11.0182 16.6947 10.7088 16.488 10.4502 16.224C10.1942 15.96 9.9955 15.648 9.85417 15.288C9.71283 14.9253 9.64217 14.532 9.64217 14.108C9.64217 13.684 9.71283 13.292 9.85417 12.932C9.9955 12.5693 10.1942 12.256 10.4502 11.992C10.7088 11.728 11.0182 11.5227 11.3782 11.376C11.7382 11.2267 12.1368 11.152 12.5742 11.152C12.8675 11.152 13.1435 11.1867 13.4022 11.256C13.6608 11.3227 13.8982 11.4187 14.1142 11.544C14.3302 11.6667 14.5235 11.8173 14.6942 11.996C14.8675 12.172 15.0142 12.3693 15.1342 12.588C15.2542 12.8067 15.3448 13.044 15.4062 13.3C15.4702 13.556 15.5022 13.8253 15.5022 14.108ZM14.4022 14.108C14.4022 13.7907 14.3595 13.5067 14.2742 13.256C14.1888 13.0027 14.0675 12.788 13.9102 12.612C13.7528 12.436 13.5608 12.3013 13.3342 12.208C13.1102 12.1147 12.8568 12.068 12.5742 12.068C12.2915 12.068 12.0368 12.1147 11.8102 12.208C11.5862 12.3013 11.3942 12.436 11.2342 12.612C11.0768 12.788 10.9555 13.0027 10.8702 13.256C10.7848 13.5067 10.7422 13.7907 10.7422 14.108C10.7422 14.4253 10.7848 14.7107 10.8702 14.964C10.9555 15.2147 11.0768 15.428 11.2342 15.604C11.3942 15.7773 11.5862 15.9107 11.8102 16.004C12.0368 16.0973 12.2915 16.144 12.5742 16.144C12.8568 16.144 13.1102 16.0973 13.3342 16.004C13.5608 15.9107 13.7528 15.7773 13.9102 15.604C14.0675 15.428 14.1888 15.2147 14.2742 14.964C14.3595 14.7107 14.4022 14.4253 14.4022 14.108ZM17.4071 12.072V13.784H19.5751V14.644H17.4071V17H16.3271V11.216H19.9751V12.072H17.4071ZM21.8184 12.072V13.784H23.9864V14.644H21.8184V17H20.7384V11.216H24.3864V12.072H21.8184Z" fill="black"/>
<g opacity="0.75">
<rect x="33" y="25" width="23" height="1" transform="rotate(-90 33 25)" fill="#535353"/>
</g>
<rect width="30" height="22" transform="translate(35.5 2.5)" fill="#535353"/>
<rect x="35.5" y="2.5" width="30" height="22" fill="url(#paint8_linear)"/>
<rect x="35.5" y="2.5" width="30" height="22" stroke="url(#paint9_linear)" stroke-width="2" stroke-linejoin="round"/>
<path d="M43.7829 12.268C43.7509 12.324 43.7162 12.3653 43.6789 12.392C43.6442 12.416 43.6002 12.428 43.5469 12.428C43.4909 12.428 43.4296 12.408 43.3629 12.368C43.2989 12.3253 43.2216 12.2787 43.1309 12.228C43.0402 12.1773 42.9336 12.132 42.8109 12.092C42.6909 12.0493 42.5482 12.028 42.3829 12.028C42.2336 12.028 42.1029 12.0467 41.9909 12.084C41.8789 12.1187 41.7842 12.168 41.7069 12.232C41.6322 12.296 41.5762 12.3733 41.5389 12.464C41.5016 12.552 41.4829 12.6493 41.4829 12.756C41.4829 12.892 41.5202 13.0053 41.5949 13.096C41.6722 13.1867 41.7736 13.264 41.8989 13.328C42.0242 13.392 42.1669 13.4493 42.3269 13.5C42.4869 13.5507 42.6509 13.6053 42.8189 13.664C42.9869 13.72 43.1509 13.7867 43.3109 13.864C43.4709 13.9387 43.6136 14.0347 43.7389 14.152C43.8642 14.2667 43.9642 14.408 44.0389 14.576C44.1162 14.744 44.1549 14.948 44.1549 15.188C44.1549 15.4493 44.1096 15.6947 44.0189 15.924C43.9309 16.1507 43.8002 16.3493 43.6269 16.52C43.4562 16.688 43.2469 16.8213 42.9989 16.92C42.7509 17.016 42.4669 17.064 42.1469 17.064C41.9629 17.064 41.7816 17.0453 41.6029 17.008C41.4242 16.9733 41.2522 16.9227 41.0869 16.856C40.9242 16.7893 40.7709 16.7093 40.6269 16.616C40.4829 16.5227 40.3549 16.4187 40.2429 16.304L40.5589 15.788C40.5856 15.7507 40.6202 15.72 40.6629 15.696C40.7056 15.6693 40.7509 15.656 40.7989 15.656C40.8656 15.656 40.9376 15.684 41.0149 15.74C41.0922 15.7933 41.1842 15.8533 41.2909 15.92C41.3976 15.9867 41.5216 16.048 41.6629 16.104C41.8069 16.1573 41.9789 16.184 42.1789 16.184C42.4856 16.184 42.7229 16.112 42.8909 15.968C43.0589 15.8213 43.1429 15.612 43.1429 15.34C43.1429 15.188 43.1042 15.064 43.0269 14.968C42.9522 14.872 42.8522 14.792 42.7269 14.728C42.6016 14.6613 42.4589 14.6053 42.2989 14.56C42.1389 14.5147 41.9762 14.4653 41.8109 14.412C41.6456 14.3587 41.4829 14.2947 41.3229 14.22C41.1629 14.1453 41.0202 14.048 40.8949 13.928C40.7696 13.808 40.6682 13.6587 40.5909 13.48C40.5162 13.2987 40.4789 13.076 40.4789 12.812C40.4789 12.6013 40.5202 12.396 40.6029 12.196C40.6882 11.996 40.8109 11.8187 40.9709 11.664C41.1309 11.5093 41.3282 11.3853 41.5629 11.292C41.7976 11.1987 42.0669 11.152 42.3709 11.152C42.7122 11.152 43.0269 11.2053 43.3149 11.312C43.6029 11.4187 43.8482 11.568 44.0509 11.76L43.7829 12.268ZM46.0535 12.072V13.676H48.0775V14.504H46.0535V16.14H48.6215V17H44.9735V11.216H48.6215V12.072H46.0535ZM54.3311 11.216V17H53.7791C53.6938 17 53.6218 16.9867 53.5631 16.96C53.5071 16.9307 53.4524 16.8827 53.3991 16.816L50.3791 12.96C50.3951 13.136 50.4031 13.2987 50.4031 13.448V17H49.4551V11.216H50.0191C50.0644 11.216 50.1031 11.2187 50.1351 11.224C50.1698 11.2267 50.1991 11.2347 50.2231 11.248C50.2498 11.2587 50.2751 11.276 50.2991 11.3C50.3231 11.3213 50.3498 11.3507 50.3791 11.388L53.4111 15.26C53.4031 15.1667 53.3964 15.0747 53.3911 14.984C53.3858 14.8933 53.3831 14.8093 53.3831 14.732V11.216H54.3311ZM60.6352 14.108C60.6352 14.532 60.5645 14.9213 60.4232 15.276C60.2818 15.6307 60.0832 15.936 59.8272 16.192C59.5712 16.448 59.2632 16.6467 58.9032 16.788C58.5432 16.9293 58.1432 17 57.7032 17H55.4992V11.216H57.7032C58.1432 11.216 58.5432 11.288 58.9032 11.432C59.2632 11.5733 59.5712 11.772 59.8272 12.028C60.0832 12.2813 60.2818 12.5853 60.4232 12.94C60.5645 13.2947 60.6352 13.684 60.6352 14.108ZM59.5312 14.108C59.5312 13.7907 59.4885 13.5067 59.4032 13.256C59.3205 13.0027 59.1992 12.7893 59.0392 12.616C58.8818 12.44 58.6898 12.3053 58.4632 12.212C58.2392 12.1187 57.9858 12.072 57.7032 12.072H56.5792V16.144H57.7032C57.9858 16.144 58.2392 16.0973 58.4632 16.004C58.6898 15.9107 58.8818 15.7773 59.0392 15.604C59.1992 15.428 59.3205 15.2147 59.4032 14.964C59.4885 14.7107 59.5312 14.4253 59.5312 14.108Z" fill="black"/>
<g opacity="0.75">
<rect x="67" y="25" width="23" height="1" transform="rotate(-90 67 25)" fill="#535353"/>
</g>
<rect x="69.5" y="2.5" width="30" height="22" fill="url(#paint10_linear)"/>
<rect x="69.5" y="2.5" width="30" height="22" stroke="url(#paint11_linear)" stroke-width="2" stroke-linejoin="round"/>
<path d="M76.3365 7.268C76.3045 7.324 76.2698 7.36533 76.2325 7.392C76.1978 7.416 76.1538 7.428 76.1005 7.428C76.0445 7.428 75.9832 7.408 75.9165 7.368C75.8525 7.32533 75.7752 7.27867 75.6845 7.228C75.5938 7.17733 75.4872 7.132 75.3645 7.092C75.2445 7.04933 75.1018 7.028 74.9365 7.028C74.7872 7.028 74.6565 7.04667 74.5445 7.084C74.4325 7.11867 74.3378 7.168 74.2605 7.232C74.1858 7.296 74.1298 7.37333 74.0925 7.464C74.0552 7.552 74.0365 7.64933 74.0365 7.756C74.0365 7.892 74.0738 8.00533 74.1485 8.096C74.2258 8.18667 74.3272 8.264 74.4525 8.328C74.5778 8.392 74.7205 8.44933 74.8805 8.5C75.0405 8.55067 75.2045 8.60533 75.3725 8.664C75.5405 8.72 75.7045 8.78667 75.8645 8.864C76.0245 8.93867 76.1672 9.03467 76.2925 9.152C76.4178 9.26667 76.5178 9.408 76.5925 9.576C76.6698 9.744 76.7085 9.948 76.7085 10.188C76.7085 10.4493 76.6632 10.6947 76.5725 10.924C76.4845 11.1507 76.3538 11.3493 76.1805 11.52C76.0098 11.688 75.8005 11.8213 75.5525 11.92C75.3045 12.016 75.0205 12.064 74.7005 12.064C74.5165 12.064 74.3352 12.0453 74.1565 12.008C73.9778 11.9733 73.8058 11.9227 73.6405 11.856C73.4778 11.7893 73.3245 11.7093 73.1805 11.616C73.0365 11.5227 72.9085 11.4187 72.7965 11.304L73.1125 10.788C73.1392 10.7507 73.1738 10.72 73.2165 10.696C73.2592 10.6693 73.3045 10.656 73.3525 10.656C73.4192 10.656 73.4912 10.684 73.5685 10.74C73.6458 10.7933 73.7378 10.8533 73.8445 10.92C73.9512 10.9867 74.0752 11.048 74.2165 11.104C74.3605 11.1573 74.5325 11.184 74.7325 11.184C75.0392 11.184 75.2765 11.112 75.4445 10.968C75.6125 10.8213 75.6965 10.612 75.6965 10.34C75.6965 10.188 75.6578 10.064 75.5805 9.968C75.5058 9.872 75.4058 9.792 75.2805 9.728C75.1552 9.66133 75.0125 9.60533 74.8525 9.56C74.6925 9.51467 74.5298 9.46533 74.3645 9.412C74.1992 9.35867 74.0365 9.29467 73.8765 9.22C73.7165 9.14533 73.5738 9.048 73.4485 8.928C73.3232 8.808 73.2218 8.65867 73.1445 8.48C73.0698 8.29867 73.0325 8.076 73.0325 7.812C73.0325 7.60133 73.0738 7.396 73.1565 7.196C73.2418 6.996 73.3645 6.81867 73.5245 6.664C73.6845 6.50933 73.8818 6.38533 74.1165 6.292C74.3512 6.19867 74.6205 6.152 74.9245 6.152C75.2658 6.152 75.5805 6.20533 75.8685 6.312C76.1565 6.41867 76.4018 6.568 76.6045 6.76L76.3365 7.268ZM82.4031 6.216V12H81.8511C81.7658 12 81.6938 11.9867 81.6351 11.96C81.5791 11.9307 81.5245 11.8827 81.4711 11.816L78.4511 7.96C78.4671 8.136 78.4751 8.29867 78.4751 8.448V12H77.5271V6.216H78.0911C78.1365 6.216 78.1751 6.21867 78.2071 6.224C78.2418 6.22667 78.2711 6.23467 78.2951 6.248C78.3218 6.25867 78.3471 6.276 78.3711 6.3C78.3951 6.32133 78.4218 6.35067 78.4511 6.388L81.4831 10.26C81.4751 10.1667 81.4685 10.0747 81.4631 9.984C81.4578 9.89333 81.4551 9.80933 81.4551 9.732V6.216H82.4031ZM88.7072 9.108C88.7072 9.532 88.6365 9.92133 88.4952 10.276C88.3539 10.6307 88.1552 10.936 87.8992 11.192C87.6432 11.448 87.3352 11.6467 86.9752 11.788C86.6152 11.9293 86.2152 12 85.7752 12H83.5712V6.216H85.7752C86.2152 6.216 86.6152 6.288 86.9752 6.432C87.3352 6.57333 87.6432 6.772 87.8992 7.028C88.1552 7.28133 88.3539 7.58533 88.4952 7.94C88.6365 8.29467 88.7072 8.684 88.7072 9.108ZM87.6032 9.108C87.6032 8.79067 87.5605 8.50667 87.4752 8.256C87.3925 8.00267 87.2712 7.78933 87.1112 7.616C86.9539 7.44 86.7619 7.30533 86.5352 7.212C86.3112 7.11867 86.0579 7.072 85.7752 7.072H84.6512V11.144H85.7752C86.0579 11.144 86.3112 11.0973 86.5352 11.004C86.7619 10.9107 86.9539 10.7773 87.1112 10.604C87.2712 10.428 87.3925 10.2147 87.4752 9.964C87.5605 9.71067 87.6032 9.42533 87.6032 9.108ZM92.6304 9.296C92.4171 9.43467 92.2611 9.592 92.1624 9.768C92.0664 9.94133 92.0184 10.128 92.0184 10.328C92.0184 10.4747 92.0438 10.6067 92.0944 10.724C92.1451 10.8413 92.2131 10.9413 92.2984 11.024C92.3864 11.104 92.4878 11.1667 92.6024 11.212C92.7198 11.2547 92.8438 11.276 92.9744 11.276C93.2091 11.276 93.4238 11.24 93.6184 11.168C93.8131 11.0933 93.9891 10.9907 94.1464 10.86L92.6304 9.296ZM96.4824 12H95.5144C95.4131 12 95.3304 11.988 95.2664 11.964C95.2051 11.94 95.1398 11.8893 95.0704 11.812L94.6704 11.4C94.4171 11.608 94.1331 11.7707 93.8184 11.888C93.5038 12.0053 93.1638 12.064 92.7984 12.064C92.5771 12.064 92.3584 12.0267 92.1424 11.952C91.9291 11.8747 91.7384 11.764 91.5704 11.62C91.4024 11.476 91.2664 11.3027 91.1624 11.1C91.0611 10.8947 91.0104 10.664 91.0104 10.408C91.0104 10.2267 91.0398 10.056 91.0984 9.896C91.1571 9.73333 91.2384 9.58267 91.3424 9.444C91.4464 9.30533 91.5704 9.18133 91.7144 9.072C91.8584 8.96 92.0158 8.864 92.1864 8.784C92.0424 8.584 91.9384 8.38933 91.8744 8.2C91.8104 8.008 91.7784 7.81733 91.7784 7.628C91.7784 7.428 91.8144 7.23867 91.8864 7.06C91.9611 6.87867 92.0678 6.72133 92.2064 6.588C92.3451 6.45467 92.5158 6.34933 92.7184 6.272C92.9211 6.192 93.1504 6.152 93.4064 6.152C93.6411 6.152 93.8504 6.188 94.0344 6.26C94.2211 6.332 94.3798 6.428 94.5104 6.548C94.6438 6.668 94.7478 6.80533 94.8224 6.96C94.8998 7.11467 94.9451 7.27467 94.9584 7.44L94.3304 7.572C94.2131 7.596 94.1278 7.54533 94.0744 7.42C94.0504 7.35067 94.0184 7.28533 93.9784 7.224C93.9411 7.16 93.8958 7.10533 93.8424 7.06C93.7891 7.012 93.7264 6.97467 93.6544 6.948C93.5824 6.91867 93.4998 6.904 93.4064 6.904C93.2944 6.904 93.1944 6.924 93.1064 6.964C93.0184 7.00133 92.9438 7.05333 92.8824 7.12C92.8238 7.184 92.7784 7.26 92.7464 7.348C92.7144 7.43333 92.6984 7.524 92.6984 7.62C92.6984 7.7 92.7064 7.77733 92.7224 7.852C92.7384 7.92667 92.7651 8.00133 92.8024 8.076C92.8398 8.15067 92.8878 8.228 92.9464 8.308C93.0078 8.38533 93.0824 8.46933 93.1704 8.56L94.7064 10.156C94.7944 9.988 94.8651 9.81067 94.9184 9.624C94.9718 9.43733 95.0064 9.248 95.0224 9.056C95.0304 8.99467 95.0518 8.94533 95.0864 8.908C95.1211 8.87067 95.1691 8.852 95.2304 8.852H95.8464C95.8438 9.204 95.7931 9.54 95.6944 9.86C95.5958 10.18 95.4544 10.4747 95.2704 10.744L96.4824 12ZM82.4187 19.1V21.44C82.1254 21.656 81.8121 21.8147 81.4787 21.916C81.1481 22.0147 80.7934 22.064 80.4147 22.064C79.9427 22.064 79.5147 21.9907 79.1307 21.844C78.7494 21.6973 78.4227 21.4933 78.1507 21.232C77.8814 20.9707 77.6734 20.6587 77.5267 20.296C77.3801 19.9333 77.3067 19.5373 77.3067 19.108C77.3067 18.6733 77.3774 18.2747 77.5187 17.912C77.6601 17.5493 77.8601 17.2373 78.1187 16.976C78.3801 16.7147 78.6961 16.512 79.0667 16.368C79.4374 16.224 79.8534 16.152 80.3147 16.152C80.5494 16.152 80.7681 16.1707 80.9707 16.208C81.1761 16.2453 81.3654 16.2973 81.5387 16.364C81.7147 16.428 81.8747 16.5067 82.0187 16.6C82.1627 16.6933 82.2947 16.796 82.4147 16.908L82.1067 17.396C82.0587 17.4733 81.9961 17.5213 81.9187 17.54C81.8414 17.556 81.7574 17.536 81.6667 17.48C81.5787 17.4293 81.4907 17.3787 81.4027 17.328C81.3147 17.2773 81.2161 17.2333 81.1067 17.196C81.0001 17.1587 80.8787 17.128 80.7427 17.104C80.6094 17.08 80.4547 17.068 80.2787 17.068C79.9934 17.068 79.7347 17.116 79.5027 17.212C79.2734 17.308 79.0774 17.4453 78.9147 17.624C78.7521 17.8027 78.6267 18.0173 78.5387 18.268C78.4507 18.5187 78.4067 18.7987 78.4067 19.108C78.4067 19.4387 78.4534 19.7347 78.5467 19.996C78.6427 20.2547 78.7761 20.4747 78.9467 20.656C79.1201 20.8347 79.3281 20.972 79.5707 21.068C79.8134 21.1613 80.0841 21.208 80.3827 21.208C80.5961 21.208 80.7867 21.1853 80.9547 21.14C81.1227 21.0947 81.2867 21.0333 81.4467 20.956V19.908H80.7187C80.6494 19.908 80.5947 19.8893 80.5547 19.852C80.5174 19.812 80.4987 19.764 80.4987 19.708V19.1H82.4187ZM86.7234 21.112V22H83.3354V16.216H84.4114V21.112H86.7234ZM89.5357 21.16C89.7357 21.16 89.9037 21.136 90.0397 21.088C90.1757 21.04 90.2837 20.976 90.3637 20.896C90.4463 20.816 90.505 20.7227 90.5397 20.616C90.577 20.5093 90.5957 20.396 90.5957 20.276C90.5957 20.1507 90.5757 20.0387 90.5357 19.94C90.4957 19.8387 90.433 19.7533 90.3477 19.684C90.2623 19.612 90.1517 19.5573 90.0157 19.52C89.8823 19.4827 89.721 19.464 89.5317 19.464H88.4477V21.16H89.5357ZM88.4477 17.048V18.72H89.3037C89.6717 18.72 89.949 18.6533 90.1357 18.52C90.325 18.3867 90.4197 18.1747 90.4197 17.884C90.4197 17.5827 90.3343 17.368 90.1637 17.24C89.993 17.112 89.7263 17.048 89.3637 17.048H88.4477ZM89.3637 16.216C89.7423 16.216 90.0663 16.252 90.3357 16.324C90.605 16.396 90.825 16.4987 90.9957 16.632C91.169 16.7653 91.2957 16.9267 91.3757 17.116C91.4557 17.3053 91.4957 17.5187 91.4957 17.756C91.4957 17.892 91.4757 18.0227 91.4357 18.148C91.3957 18.2707 91.333 18.3867 91.2477 18.496C91.165 18.6027 91.0583 18.7 90.9277 18.788C90.7997 18.876 90.6463 18.9507 90.4677 19.012C91.2623 19.1907 91.6597 19.62 91.6597 20.3C91.6597 20.5453 91.613 20.772 91.5197 20.98C91.4263 21.188 91.2903 21.368 91.1117 21.52C90.933 21.6693 90.713 21.7867 90.4517 21.872C90.1903 21.9573 89.8917 22 89.5557 22H87.3717V16.216H89.3637Z" fill="black"/>
<path opacity="0.5" d="M102 2H101V25H102V2Z" fill="#535353"/>
<rect x="103.5" y="2.5" width="29" height="22" fill="url(#paint12_linear)"/>
<rect x="103.5" y="2.5" width="29" height="22" stroke="url(#paint13_linear)" stroke-width="2" stroke-linejoin="round"/>
<path d="M114.886 14.816L114.182 12.892C114.148 12.8067 114.112 12.7053 114.074 12.588C114.037 12.4707 114 12.344 113.962 12.208C113.928 12.344 113.892 12.472 113.854 12.592C113.817 12.7093 113.781 12.812 113.746 12.9L113.046 14.816H114.886ZM116.786 17H115.954C115.861 17 115.785 16.9773 115.726 16.932C115.668 16.884 115.624 16.8253 115.594 16.756L115.162 15.576H112.766L112.334 16.756C112.313 16.8173 112.272 16.8733 112.21 16.924C112.149 16.9747 112.073 17 111.982 17H111.142L113.418 11.216H114.514L116.786 17ZM120.653 16.112V17H117.265V11.216H118.341V16.112H120.653ZM124.689 16.112V17H121.301V11.216H122.377V16.112H124.689Z" fill="black"/>
<path d="M3.5 1H131.5V0H3.5V1ZM134 3.5V23.5H135V3.5H134ZM131.5 26H3.5V27H131.5V26ZM1 23.5V3.5H0V23.5H1ZM3.5 26C2.11929 26 1 24.8807 1 23.5H0C0 25.433 1.567 27 3.5 27V26ZM134 23.5C134 24.8807 132.881 26 131.5 26V27C133.433 27 135 25.433 135 23.5H134ZM131.5 1C132.881 1 134 2.11929 134 3.5H135C135 1.567 133.433 0 131.5 0V1ZM3.5 0C1.567 0 0 1.567 0 3.5H1C1 2.11929 2.11929 1 3.5 1V0Z" fill="#535353"/>
<path d="M0.5 30.5C0.5 28.8431 1.84315 27.5 3.5 27.5H131.5C133.157 27.5 134.5 28.8431 134.5 30.5V50.5C134.5 52.1569 133.157 53.5 131.5 53.5H3.5C1.84314 53.5 0.5 52.1569 0.5 50.5V30.5Z" fill="#535353"/>
<rect x="2.5" y="29.5" width="29" height="22" rx="1" fill="url(#paint14_linear)" stroke="url(#paint15_linear)" stroke-width="2" stroke-linejoin="round"/>
<rect x="69.5" y="29.5" width="30" height="22" rx="1" fill="url(#paint16_linear)" stroke="url(#paint17_linear)" stroke-width="2" stroke-linejoin="round"/>
<rect x="103.5" y="29.5" width="29" height="22" rx="1" fill="url(#paint18_linear)" stroke="url(#paint19_linear)" stroke-width="2" stroke-linejoin="round"/>
<rect x="2.5" y="29.5" width="29" height="22" fill="url(#paint20_linear)"/>
<rect x="2.5" y="29.5" width="29" height="22" stroke="url(#paint21_linear)" stroke-width="2" stroke-linejoin="round"/>
<path d="M15.5183 41.108C15.5183 41.532 15.4476 41.9253 15.3063 42.288C15.1676 42.648 14.9703 42.96 14.7143 43.224C14.4583 43.488 14.1503 43.6947 13.7903 43.844C13.4303 43.9907 13.0303 44.064 12.5903 44.064C12.1529 44.064 11.7543 43.9907 11.3943 43.844C11.0343 43.6947 10.7249 43.488 10.4663 43.224C10.2103 42.96 10.0116 42.648 9.87028 42.288C9.72895 41.9253 9.65828 41.532 9.65828 41.108C9.65828 40.684 9.72895 40.292 9.87028 39.932C10.0116 39.5693 10.2103 39.256 10.4663 38.992C10.7249 38.728 11.0343 38.5227 11.3943 38.376C11.7543 38.2267 12.1529 38.152 12.5903 38.152C12.8836 38.152 13.1596 38.1867 13.4183 38.256C13.6769 38.3227 13.9143 38.4187 14.1303 38.544C14.3463 38.6667 14.5396 38.8173 14.7103 38.996C14.8836 39.172 15.0303 39.3693 15.1503 39.588C15.2703 39.8067 15.3609 40.044 15.4223 40.3C15.4863 40.556 15.5183 40.8253 15.5183 41.108ZM14.4183 41.108C14.4183 40.7907 14.3756 40.5067 14.2903 40.256C14.2049 40.0027 14.0836 39.788 13.9263 39.612C13.7689 39.436 13.5769 39.3013 13.3503 39.208C13.1263 39.1147 12.8729 39.068 12.5903 39.068C12.3076 39.068 12.0529 39.1147 11.8263 39.208C11.6023 39.3013 11.4103 39.436 11.2503 39.612C11.0929 39.788 10.9716 40.0027 10.8863 40.256C10.8009 40.5067 10.7583 40.7907 10.7583 41.108C10.7583 41.4253 10.8009 41.7107 10.8863 41.964C10.9716 42.2147 11.0929 42.428 11.2503 42.604C11.4103 42.7773 11.6023 42.9107 11.8263 43.004C12.0529 43.0973 12.3076 43.144 12.5903 43.144C12.8729 43.144 13.1263 43.0973 13.3503 43.004C13.5769 42.9107 13.7689 42.7773 13.9263 42.604C14.0836 42.428 14.2049 42.2147 14.2903 41.964C14.3756 41.7107 14.4183 41.4253 14.4183 41.108ZM17.4232 39.072V40.784H19.5912V41.644H17.4232V44H16.3432V38.216H19.9912V39.072H17.4232ZM21.8345 39.072V40.784H24.0025V41.644H21.8345V44H20.7545V38.216H24.4025V39.072H21.8345Z" fill="black"/>
<g opacity="0.75">
<rect x="33" y="52" width="23" height="1" transform="rotate(-90 33 52)" fill="#535353"/>
</g>
<rect x="35.5" y="29.5" width="30" height="22" rx="1" fill="url(#paint22_linear)"/>
<rect x="35.5" y="29.5" width="30" height="22" rx="1" stroke="url(#paint23_linear)" stroke-width="2"/>
<path d="M43.7829 39.268C43.7509 39.324 43.7162 39.3653 43.6789 39.392C43.6442 39.416 43.6002 39.428 43.5469 39.428C43.4909 39.428 43.4296 39.408 43.3629 39.368C43.2989 39.3253 43.2216 39.2787 43.1309 39.228C43.0402 39.1773 42.9336 39.132 42.8109 39.092C42.6909 39.0493 42.5482 39.028 42.3829 39.028C42.2336 39.028 42.1029 39.0467 41.9909 39.084C41.8789 39.1187 41.7842 39.168 41.7069 39.232C41.6322 39.296 41.5762 39.3733 41.5389 39.464C41.5016 39.552 41.4829 39.6493 41.4829 39.756C41.4829 39.892 41.5202 40.0053 41.5949 40.096C41.6722 40.1867 41.7736 40.264 41.8989 40.328C42.0242 40.392 42.1669 40.4493 42.3269 40.5C42.4869 40.5507 42.6509 40.6053 42.8189 40.664C42.9869 40.72 43.1509 40.7867 43.3109 40.864C43.4709 40.9387 43.6136 41.0347 43.7389 41.152C43.8642 41.2667 43.9642 41.408 44.0389 41.576C44.1162 41.744 44.1549 41.948 44.1549 42.188C44.1549 42.4493 44.1096 42.6947 44.0189 42.924C43.9309 43.1507 43.8002 43.3493 43.6269 43.52C43.4562 43.688 43.2469 43.8213 42.9989 43.92C42.7509 44.016 42.4669 44.064 42.1469 44.064C41.9629 44.064 41.7816 44.0453 41.6029 44.008C41.4242 43.9733 41.2522 43.9227 41.0869 43.856C40.9242 43.7893 40.7709 43.7093 40.6269 43.616C40.4829 43.5227 40.3549 43.4187 40.2429 43.304L40.5589 42.788C40.5856 42.7507 40.6202 42.72 40.6629 42.696C40.7056 42.6693 40.7509 42.656 40.7989 42.656C40.8656 42.656 40.9376 42.684 41.0149 42.74C41.0922 42.7933 41.1842 42.8533 41.2909 42.92C41.3976 42.9867 41.5216 43.048 41.6629 43.104C41.8069 43.1573 41.9789 43.184 42.1789 43.184C42.4856 43.184 42.7229 43.112 42.8909 42.968C43.0589 42.8213 43.1429 42.612 43.1429 42.34C43.1429 42.188 43.1042 42.064 43.0269 41.968C42.9522 41.872 42.8522 41.792 42.7269 41.728C42.6016 41.6613 42.4589 41.6053 42.2989 41.56C42.1389 41.5147 41.9762 41.4653 41.8109 41.412C41.6456 41.3587 41.4829 41.2947 41.3229 41.22C41.1629 41.1453 41.0202 41.048 40.8949 40.928C40.7696 40.808 40.6682 40.6587 40.5909 40.48C40.5162 40.2987 40.4789 40.076 40.4789 39.812C40.4789 39.6013 40.5202 39.396 40.6029 39.196C40.6882 38.996 40.8109 38.8187 40.9709 38.664C41.1309 38.5093 41.3282 38.3853 41.5629 38.292C41.7976 38.1987 42.0669 38.152 42.3709 38.152C42.7122 38.152 43.0269 38.2053 43.3149 38.312C43.6029 38.4187 43.8482 38.568 44.0509 38.76L43.7829 39.268ZM46.0535 39.072V40.676H48.0775V41.504H46.0535V43.14H48.6215V44H44.9735V38.216H48.6215V39.072H46.0535ZM54.3311 38.216V44H53.7791C53.6938 44 53.6218 43.9867 53.5631 43.96C53.5071 43.9307 53.4524 43.8827 53.3991 43.816L50.3791 39.96C50.3951 40.136 50.4031 40.2987 50.4031 40.448V44H49.4551V38.216H50.0191C50.0644 38.216 50.1031 38.2187 50.1351 38.224C50.1698 38.2267 50.1991 38.2347 50.2231 38.248C50.2498 38.2587 50.2751 38.276 50.2991 38.3C50.3231 38.3213 50.3498 38.3507 50.3791 38.388L53.4111 42.26C53.4031 42.1667 53.3964 42.0747 53.3911 41.984C53.3858 41.8933 53.3831 41.8093 53.3831 41.732V38.216H54.3311ZM60.6352 41.108C60.6352 41.532 60.5645 41.9213 60.4232 42.276C60.2818 42.6307 60.0832 42.936 59.8272 43.192C59.5712 43.448 59.2632 43.6467 58.9032 43.788C58.5432 43.9293 58.1432 44 57.7032 44H55.4992V38.216H57.7032C58.1432 38.216 58.5432 38.288 58.9032 38.432C59.2632 38.5733 59.5712 38.772 59.8272 39.028C60.0832 39.2813 60.2818 39.5853 60.4232 39.94C60.5645 40.2947 60.6352 40.684 60.6352 41.108ZM59.5312 41.108C59.5312 40.7907 59.4885 40.5067 59.4032 40.256C59.3205 40.0027 59.1992 39.7893 59.0392 39.616C58.8818 39.44 58.6898 39.3053 58.4632 39.212C58.2392 39.1187 57.9858 39.072 57.7032 39.072H56.5792V43.144H57.7032C57.9858 43.144 58.2392 43.0973 58.4632 43.004C58.6898 42.9107 58.8818 42.7773 59.0392 42.604C59.1992 42.428 59.3205 42.2147 59.4032 41.964C59.4885 41.7107 59.5312 41.4253 59.5312 41.108Z" fill="black"/>
<g opacity="0.75">
<rect x="67" y="52" width="23" height="1" transform="rotate(-90 67 52)" fill="#979797"/>
</g>
<rect x="69.5" y="29.5" width="30" height="22" fill="url(#paint24_linear)"/>
<rect x="69.5" y="29.5" width="30" height="22" stroke="url(#paint25_linear)" stroke-width="2" stroke-linejoin="round"/>
<path d="M76.3365 34.268C76.3045 34.324 76.2698 34.3653 76.2325 34.392C76.1978 34.416 76.1538 34.428 76.1005 34.428C76.0445 34.428 75.9832 34.408 75.9165 34.368C75.8525 34.3253 75.7752 34.2787 75.6845 34.228C75.5938 34.1773 75.4872 34.132 75.3645 34.092C75.2445 34.0493 75.1018 34.028 74.9365 34.028C74.7872 34.028 74.6565 34.0467 74.5445 34.084C74.4325 34.1187 74.3378 34.168 74.2605 34.232C74.1858 34.296 74.1298 34.3733 74.0925 34.464C74.0552 34.552 74.0365 34.6493 74.0365 34.756C74.0365 34.892 74.0738 35.0053 74.1485 35.096C74.2258 35.1867 74.3272 35.264 74.4525 35.328C74.5778 35.392 74.7205 35.4493 74.8805 35.5C75.0405 35.5507 75.2045 35.6053 75.3725 35.664C75.5405 35.72 75.7045 35.7867 75.8645 35.864C76.0245 35.9387 76.1672 36.0347 76.2925 36.152C76.4178 36.2667 76.5178 36.408 76.5925 36.576C76.6698 36.744 76.7085 36.948 76.7085 37.188C76.7085 37.4493 76.6632 37.6947 76.5725 37.924C76.4845 38.1507 76.3538 38.3493 76.1805 38.52C76.0098 38.688 75.8005 38.8213 75.5525 38.92C75.3045 39.016 75.0205 39.064 74.7005 39.064C74.5165 39.064 74.3352 39.0453 74.1565 39.008C73.9778 38.9733 73.8058 38.9227 73.6405 38.856C73.4778 38.7893 73.3245 38.7093 73.1805 38.616C73.0365 38.5227 72.9085 38.4187 72.7965 38.304L73.1125 37.788C73.1392 37.7507 73.1738 37.72 73.2165 37.696C73.2592 37.6693 73.3045 37.656 73.3525 37.656C73.4192 37.656 73.4912 37.684 73.5685 37.74C73.6458 37.7933 73.7378 37.8533 73.8445 37.92C73.9512 37.9867 74.0752 38.048 74.2165 38.104C74.3605 38.1573 74.5325 38.184 74.7325 38.184C75.0392 38.184 75.2765 38.112 75.4445 37.968C75.6125 37.8213 75.6965 37.612 75.6965 37.34C75.6965 37.188 75.6578 37.064 75.5805 36.968C75.5058 36.872 75.4058 36.792 75.2805 36.728C75.1552 36.6613 75.0125 36.6053 74.8525 36.56C74.6925 36.5147 74.5298 36.4653 74.3645 36.412C74.1992 36.3587 74.0365 36.2947 73.8765 36.22C73.7165 36.1453 73.5738 36.048 73.4485 35.928C73.3232 35.808 73.2218 35.6587 73.1445 35.48C73.0698 35.2987 73.0325 35.076 73.0325 34.812C73.0325 34.6013 73.0738 34.396 73.1565 34.196C73.2418 33.996 73.3645 33.8187 73.5245 33.664C73.6845 33.5093 73.8818 33.3853 74.1165 33.292C74.3512 33.1987 74.6205 33.152 74.9245 33.152C75.2658 33.152 75.5805 33.2053 75.8685 33.312C76.1565 33.4187 76.4018 33.568 76.6045 33.76L76.3365 34.268ZM82.4031 33.216V39H81.8511C81.7658 39 81.6938 38.9867 81.6351 38.96C81.5791 38.9307 81.5245 38.8827 81.4711 38.816L78.4511 34.96C78.4671 35.136 78.4751 35.2987 78.4751 35.448V39H77.5271V33.216H78.0911C78.1365 33.216 78.1751 33.2187 78.2071 33.224C78.2418 33.2267 78.2711 33.2347 78.2951 33.248C78.3218 33.2587 78.3471 33.276 78.3711 33.3C78.3951 33.3213 78.4218 33.3507 78.4511 33.388L81.4831 37.26C81.4751 37.1667 81.4685 37.0747 81.4631 36.984C81.4578 36.8933 81.4551 36.8093 81.4551 36.732V33.216H82.4031ZM88.7072 36.108C88.7072 36.532 88.6365 36.9213 88.4952 37.276C88.3539 37.6307 88.1552 37.936 87.8992 38.192C87.6432 38.448 87.3352 38.6467 86.9752 38.788C86.6152 38.9293 86.2152 39 85.7752 39H83.5712V33.216H85.7752C86.2152 33.216 86.6152 33.288 86.9752 33.432C87.3352 33.5733 87.6432 33.772 87.8992 34.028C88.1552 34.2813 88.3539 34.5853 88.4952 34.94C88.6365 35.2947 88.7072 35.684 88.7072 36.108ZM87.6032 36.108C87.6032 35.7907 87.5605 35.5067 87.4752 35.256C87.3925 35.0027 87.2712 34.7893 87.1112 34.616C86.9539 34.44 86.7619 34.3053 86.5352 34.212C86.3112 34.1187 86.0579 34.072 85.7752 34.072H84.6512V38.144H85.7752C86.0579 38.144 86.3112 38.0973 86.5352 38.004C86.7619 37.9107 86.9539 37.7773 87.1112 37.604C87.2712 37.428 87.3925 37.2147 87.4752 36.964C87.5605 36.7107 87.6032 36.4253 87.6032 36.108ZM92.6304 36.296C92.4171 36.4347 92.2611 36.592 92.1624 36.768C92.0664 36.9413 92.0184 37.128 92.0184 37.328C92.0184 37.4747 92.0438 37.6067 92.0944 37.724C92.1451 37.8413 92.2131 37.9413 92.2984 38.024C92.3864 38.104 92.4878 38.1667 92.6024 38.212C92.7198 38.2547 92.8438 38.276 92.9744 38.276C93.2091 38.276 93.4238 38.24 93.6184 38.168C93.8131 38.0933 93.9891 37.9907 94.1464 37.86L92.6304 36.296ZM96.4824 39H95.5144C95.4131 39 95.3304 38.988 95.2664 38.964C95.2051 38.94 95.1398 38.8893 95.0704 38.812L94.6704 38.4C94.4171 38.608 94.1331 38.7707 93.8184 38.888C93.5038 39.0053 93.1638 39.064 92.7984 39.064C92.5771 39.064 92.3584 39.0267 92.1424 38.952C91.9291 38.8747 91.7384 38.764 91.5704 38.62C91.4024 38.476 91.2664 38.3027 91.1624 38.1C91.0611 37.8947 91.0104 37.664 91.0104 37.408C91.0104 37.2267 91.0398 37.056 91.0984 36.896C91.1571 36.7333 91.2384 36.5827 91.3424 36.444C91.4464 36.3053 91.5704 36.1813 91.7144 36.072C91.8584 35.96 92.0158 35.864 92.1864 35.784C92.0424 35.584 91.9384 35.3893 91.8744 35.2C91.8104 35.008 91.7784 34.8173 91.7784 34.628C91.7784 34.428 91.8144 34.2387 91.8864 34.06C91.9611 33.8787 92.0678 33.7213 92.2064 33.588C92.3451 33.4547 92.5158 33.3493 92.7184 33.272C92.9211 33.192 93.1504 33.152 93.4064 33.152C93.6411 33.152 93.8504 33.188 94.0344 33.26C94.2211 33.332 94.3798 33.428 94.5104 33.548C94.6438 33.668 94.7478 33.8053 94.8224 33.96C94.8998 34.1147 94.9451 34.2747 94.9584 34.44L94.3304 34.572C94.2131 34.596 94.1278 34.5453 94.0744 34.42C94.0504 34.3507 94.0184 34.2853 93.9784 34.224C93.9411 34.16 93.8958 34.1053 93.8424 34.06C93.7891 34.012 93.7264 33.9747 93.6544 33.948C93.5824 33.9187 93.4998 33.904 93.4064 33.904C93.2944 33.904 93.1944 33.924 93.1064 33.964C93.0184 34.0013 92.9438 34.0533 92.8824 34.12C92.8238 34.184 92.7784 34.26 92.7464 34.348C92.7144 34.4333 92.6984 34.524 92.6984 34.62C92.6984 34.7 92.7064 34.7773 92.7224 34.852C92.7384 34.9267 92.7651 35.0013 92.8024 35.076C92.8398 35.1507 92.8878 35.228 92.9464 35.308C93.0078 35.3853 93.0824 35.4693 93.1704 35.56L94.7064 37.156C94.7944 36.988 94.8651 36.8107 94.9184 36.624C94.9718 36.4373 95.0064 36.248 95.0224 36.056C95.0304 35.9947 95.0518 35.9453 95.0864 35.908C95.1211 35.8707 95.1691 35.852 95.2304 35.852H95.8464C95.8438 36.204 95.7931 36.54 95.6944 36.86C95.5958 37.18 95.4544 37.4747 95.2704 37.744L96.4824 39ZM82.4187 46.1V48.44C82.1254 48.656 81.8121 48.8147 81.4787 48.916C81.1481 49.0147 80.7934 49.064 80.4147 49.064C79.9427 49.064 79.5147 48.9907 79.1307 48.844C78.7494 48.6973 78.4227 48.4933 78.1507 48.232C77.8814 47.9707 77.6734 47.6587 77.5267 47.296C77.3801 46.9333 77.3067 46.5373 77.3067 46.108C77.3067 45.6733 77.3774 45.2747 77.5187 44.912C77.6601 44.5493 77.8601 44.2373 78.1187 43.976C78.3801 43.7147 78.6961 43.512 79.0667 43.368C79.4374 43.224 79.8534 43.152 80.3147 43.152C80.5494 43.152 80.7681 43.1707 80.9707 43.208C81.1761 43.2453 81.3654 43.2973 81.5387 43.364C81.7147 43.428 81.8747 43.5067 82.0187 43.6C82.1627 43.6933 82.2947 43.796 82.4147 43.908L82.1067 44.396C82.0587 44.4733 81.9961 44.5213 81.9187 44.54C81.8414 44.556 81.7574 44.536 81.6667 44.48C81.5787 44.4293 81.4907 44.3787 81.4027 44.328C81.3147 44.2773 81.2161 44.2333 81.1067 44.196C81.0001 44.1587 80.8787 44.128 80.7427 44.104C80.6094 44.08 80.4547 44.068 80.2787 44.068C79.9934 44.068 79.7347 44.116 79.5027 44.212C79.2734 44.308 79.0774 44.4453 78.9147 44.624C78.7521 44.8027 78.6267 45.0173 78.5387 45.268C78.4507 45.5187 78.4067 45.7987 78.4067 46.108C78.4067 46.4387 78.4534 46.7347 78.5467 46.996C78.6427 47.2547 78.7761 47.4747 78.9467 47.656C79.1201 47.8347 79.3281 47.972 79.5707 48.068C79.8134 48.1613 80.0841 48.208 80.3827 48.208C80.5961 48.208 80.7867 48.1853 80.9547 48.14C81.1227 48.0947 81.2867 48.0333 81.4467 47.956V46.908H80.7187C80.6494 46.908 80.5947 46.8893 80.5547 46.852C80.5174 46.812 80.4987 46.764 80.4987 46.708V46.1H82.4187ZM86.7234 48.112V49H83.3354V43.216H84.4114V48.112H86.7234ZM89.5357 48.16C89.7357 48.16 89.9037 48.136 90.0397 48.088C90.1757 48.04 90.2837 47.976 90.3637 47.896C90.4463 47.816 90.505 47.7227 90.5397 47.616C90.577 47.5093 90.5957 47.396 90.5957 47.276C90.5957 47.1507 90.5757 47.0387 90.5357 46.94C90.4957 46.8387 90.433 46.7533 90.3477 46.684C90.2623 46.612 90.1517 46.5573 90.0157 46.52C89.8823 46.4827 89.721 46.464 89.5317 46.464H88.4477V48.16H89.5357ZM88.4477 44.048V45.72H89.3037C89.6717 45.72 89.949 45.6533 90.1357 45.52C90.325 45.3867 90.4197 45.1747 90.4197 44.884C90.4197 44.5827 90.3343 44.368 90.1637 44.24C89.993 44.112 89.7263 44.048 89.3637 44.048H88.4477ZM89.3637 43.216C89.7423 43.216 90.0663 43.252 90.3357 43.324C90.605 43.396 90.825 43.4987 90.9957 43.632C91.169 43.7653 91.2957 43.9267 91.3757 44.116C91.4557 44.3053 91.4957 44.5187 91.4957 44.756C91.4957 44.892 91.4757 45.0227 91.4357 45.148C91.3957 45.2707 91.333 45.3867 91.2477 45.496C91.165 45.6027 91.0583 45.7 90.9277 45.788C90.7997 45.876 90.6463 45.9507 90.4677 46.012C91.2623 46.1907 91.6597 46.62 91.6597 47.3C91.6597 47.5453 91.613 47.772 91.5197 47.98C91.4263 48.188 91.2903 48.368 91.1117 48.52C90.933 48.6693 90.713 48.7867 90.4517 48.872C90.1903 48.9573 89.8917 49 89.5557 49H87.3717V43.216H89.3637Z" fill="black"/>
<path opacity="0.5" d="M102 29H101V52H102V29Z" fill="#535353"/>
<rect x="103.5" y="29.5" width="29" height="22" fill="url(#paint26_linear)"/>
<rect x="103.5" y="29.5" width="29" height="22" stroke="url(#paint27_linear)" stroke-width="2" stroke-linejoin="round"/>
<path d="M114.886 41.816L114.182 39.892C114.148 39.8067 114.112 39.7053 114.074 39.588C114.037 39.4707 114 39.344 113.962 39.208C113.928 39.344 113.892 39.472 113.854 39.592C113.817 39.7093 113.781 39.812 113.746 39.9L113.046 41.816H114.886ZM116.786 44H115.954C115.861 44 115.785 43.9773 115.726 43.932C115.668 43.884 115.624 43.8253 115.594 43.756L115.162 42.576H112.766L112.334 43.756C112.313 43.8173 112.272 43.8733 112.21 43.924C112.149 43.9747 112.073 44 111.982 44H111.142L113.418 38.216H114.514L116.786 44ZM120.653 43.112V44H117.265V38.216H118.341V43.112H120.653ZM124.689 43.112V44H121.301V38.216H122.377V43.112H124.689Z" fill="black"/>
<path d="M3.5 28H131.5V27H3.5V28ZM134 30.5V50.5H135V30.5H134ZM131.5 53H3.5V54H131.5V53ZM1 50.5V30.5H0V50.5H1ZM3.5 53C2.11929 53 1 51.8807 1 50.5H0C0 52.433 1.567 54 3.5 54V53ZM134 50.5C134 51.8807 132.881 53 131.5 53V54C133.433 54 135 52.433 135 50.5H134ZM131.5 28C132.881 28 134 29.1193 134 30.5H135C135 28.567 133.433 27 131.5 27V28ZM3.5 27C1.567 27 0 28.567 0 30.5H1C1 29.1193 2.11929 28 3.5 28V27Z" fill="#535353"/>
<path d="M0.5 57.5C0.5 55.8431 1.84315 54.5 3.5 54.5H131.5C133.157 54.5 134.5 55.8431 134.5 57.5V77.5C134.5 79.1569 133.157 80.5 131.5 80.5H3.5C1.84314 80.5 0.5 79.1569 0.5 77.5V57.5Z" fill="#535353"/>
<rect x="2.5" y="56.5" width="29" height="22" rx="1" fill="url(#paint28_linear)" stroke="url(#paint29_linear)" stroke-width="2" stroke-linejoin="round"/>
<rect x="35.5" y="56.5" width="30" height="22" rx="1" fill="url(#paint30_linear)" stroke="url(#paint31_linear)" stroke-width="2" stroke-linejoin="round"/>
<rect x="103.5" y="56.5" width="29" height="22" rx="1" fill="url(#paint32_linear)" stroke="url(#paint33_linear)" stroke-width="2" stroke-linejoin="round"/>
<rect x="2.5" y="56.5" width="29" height="22" fill="url(#paint34_linear)"/>
<rect x="2.5" y="56.5" width="29" height="22" stroke="url(#paint35_linear)" stroke-width="2" stroke-linejoin="round"/>
<path d="M15.5183 68.108C15.5183 68.532 15.4476 68.9253 15.3063 69.288C15.1676 69.648 14.9703 69.96 14.7143 70.224C14.4583 70.488 14.1503 70.6947 13.7903 70.844C13.4303 70.9907 13.0303 71.064 12.5903 71.064C12.1529 71.064 11.7543 70.9907 11.3943 70.844C11.0343 70.6947 10.7249 70.488 10.4663 70.224C10.2103 69.96 10.0116 69.648 9.87028 69.288C9.72895 68.9253 9.65828 68.532 9.65828 68.108C9.65828 67.684 9.72895 67.292 9.87028 66.932C10.0116 66.5693 10.2103 66.256 10.4663 65.992C10.7249 65.728 11.0343 65.5227 11.3943 65.376C11.7543 65.2267 12.1529 65.152 12.5903 65.152C12.8836 65.152 13.1596 65.1867 13.4183 65.256C13.6769 65.3227 13.9143 65.4187 14.1303 65.544C14.3463 65.6667 14.5396 65.8173 14.7103 65.996C14.8836 66.172 15.0303 66.3693 15.1503 66.588C15.2703 66.8067 15.3609 67.044 15.4223 67.3C15.4863 67.556 15.5183 67.8253 15.5183 68.108ZM14.4183 68.108C14.4183 67.7907 14.3756 67.5067 14.2903 67.256C14.2049 67.0027 14.0836 66.788 13.9263 66.612C13.7689 66.436 13.5769 66.3013 13.3503 66.208C13.1263 66.1147 12.8729 66.068 12.5903 66.068C12.3076 66.068 12.0529 66.1147 11.8263 66.208C11.6023 66.3013 11.4103 66.436 11.2503 66.612C11.0929 66.788 10.9716 67.0027 10.8863 67.256C10.8009 67.5067 10.7583 67.7907 10.7583 68.108C10.7583 68.4253 10.8009 68.7107 10.8863 68.964C10.9716 69.2147 11.0929 69.428 11.2503 69.604C11.4103 69.7773 11.6023 69.9107 11.8263 70.004C12.0529 70.0973 12.3076 70.144 12.5903 70.144C12.8729 70.144 13.1263 70.0973 13.3503 70.004C13.5769 69.9107 13.7689 69.7773 13.9263 69.604C14.0836 69.428 14.2049 69.2147 14.2903 68.964C14.3756 68.7107 14.4183 68.4253 14.4183 68.108ZM17.4232 66.072V67.784H19.5912V68.644H17.4232V71H16.3432V65.216H19.9912V66.072H17.4232ZM21.8345 66.072V67.784H24.0025V68.644H21.8345V71H20.7545V65.216H24.4025V66.072H21.8345Z" fill="black"/>
<g opacity="0.75">
<rect x="33" y="79" width="23" height="1" transform="rotate(-90 33 79)" fill="#535353"/>
</g>
<rect x="35.5" y="56.5" width="30" height="22" fill="url(#paint36_linear)"/>
<rect x="35.5" y="56.5" width="30" height="22" stroke="url(#paint37_linear)" stroke-width="2" stroke-linejoin="round"/>
<path d="M43.7829 66.268C43.7509 66.324 43.7162 66.3653 43.6789 66.392C43.6442 66.416 43.6002 66.428 43.5469 66.428C43.4909 66.428 43.4296 66.408 43.3629 66.368C43.2989 66.3253 43.2216 66.2787 43.1309 66.228C43.0402 66.1773 42.9336 66.132 42.8109 66.092C42.6909 66.0493 42.5482 66.028 42.3829 66.028C42.2336 66.028 42.1029 66.0467 41.9909 66.084C41.8789 66.1187 41.7842 66.168 41.7069 66.232C41.6322 66.296 41.5762 66.3733 41.5389 66.464C41.5016 66.552 41.4829 66.6493 41.4829 66.756C41.4829 66.892 41.5202 67.0053 41.5949 67.096C41.6722 67.1867 41.7736 67.264 41.8989 67.328C42.0242 67.392 42.1669 67.4493 42.3269 67.5C42.4869 67.5507 42.6509 67.6053 42.8189 67.664C42.9869 67.72 43.1509 67.7867 43.3109 67.864C43.4709 67.9387 43.6136 68.0347 43.7389 68.152C43.8642 68.2667 43.9642 68.408 44.0389 68.576C44.1162 68.744 44.1549 68.948 44.1549 69.188C44.1549 69.4493 44.1096 69.6947 44.0189 69.924C43.9309 70.1507 43.8002 70.3493 43.6269 70.52C43.4562 70.688 43.2469 70.8213 42.9989 70.92C42.7509 71.016 42.4669 71.064 42.1469 71.064C41.9629 71.064 41.7816 71.0453 41.6029 71.008C41.4242 70.9733 41.2522 70.9227 41.0869 70.856C40.9242 70.7893 40.7709 70.7093 40.6269 70.616C40.4829 70.5227 40.3549 70.4187 40.2429 70.304L40.5589 69.788C40.5856 69.7507 40.6202 69.72 40.6629 69.696C40.7056 69.6693 40.7509 69.656 40.7989 69.656C40.8656 69.656 40.9376 69.684 41.0149 69.74C41.0922 69.7933 41.1842 69.8533 41.2909 69.92C41.3976 69.9867 41.5216 70.048 41.6629 70.104C41.8069 70.1573 41.9789 70.184 42.1789 70.184C42.4856 70.184 42.7229 70.112 42.8909 69.968C43.0589 69.8213 43.1429 69.612 43.1429 69.34C43.1429 69.188 43.1042 69.064 43.0269 68.968C42.9522 68.872 42.8522 68.792 42.7269 68.728C42.6016 68.6613 42.4589 68.6053 42.2989 68.56C42.1389 68.5147 41.9762 68.4653 41.8109 68.412C41.6456 68.3587 41.4829 68.2947 41.3229 68.22C41.1629 68.1453 41.0202 68.048 40.8949 67.928C40.7696 67.808 40.6682 67.6587 40.5909 67.48C40.5162 67.2987 40.4789 67.076 40.4789 66.812C40.4789 66.6013 40.5202 66.396 40.6029 66.196C40.6882 65.996 40.8109 65.8187 40.9709 65.664C41.1309 65.5093 41.3282 65.3853 41.5629 65.292C41.7976 65.1987 42.0669 65.152 42.3709 65.152C42.7122 65.152 43.0269 65.2053 43.3149 65.312C43.6029 65.4187 43.8482 65.568 44.0509 65.76L43.7829 66.268ZM46.0535 66.072V67.676H48.0775V68.504H46.0535V70.14H48.6215V71H44.9735V65.216H48.6215V66.072H46.0535ZM54.3311 65.216V71H53.7791C53.6938 71 53.6218 70.9867 53.5631 70.96C53.5071 70.9307 53.4524 70.8827 53.3991 70.816L50.3791 66.96C50.3951 67.136 50.4031 67.2987 50.4031 67.448V71H49.4551V65.216H50.0191C50.0644 65.216 50.1031 65.2187 50.1351 65.224C50.1698 65.2267 50.1991 65.2347 50.2231 65.248C50.2498 65.2587 50.2751 65.276 50.2991 65.3C50.3231 65.3213 50.3498 65.3507 50.3791 65.388L53.4111 69.26C53.4031 69.1667 53.3964 69.0747 53.3911 68.984C53.3858 68.8933 53.3831 68.8093 53.3831 68.732V65.216H54.3311ZM60.6352 68.108C60.6352 68.532 60.5645 68.9213 60.4232 69.276C60.2818 69.6307 60.0832 69.936 59.8272 70.192C59.5712 70.448 59.2632 70.6467 58.9032 70.788C58.5432 70.9293 58.1432 71 57.7032 71H55.4992V65.216H57.7032C58.1432 65.216 58.5432 65.288 58.9032 65.432C59.2632 65.5733 59.5712 65.772 59.8272 66.028C60.0832 66.2813 60.2818 66.5853 60.4232 66.94C60.5645 67.2947 60.6352 67.684 60.6352 68.108ZM59.5312 68.108C59.5312 67.7907 59.4885 67.5067 59.4032 67.256C59.3205 67.0027 59.1992 66.7893 59.0392 66.616C58.8818 66.44 58.6898 66.3053 58.4632 66.212C58.2392 66.1187 57.9858 66.072 57.7032 66.072H56.5792V70.144H57.7032C57.9858 70.144 58.2392 70.0973 58.4632 70.004C58.6898 69.9107 58.8818 69.7773 59.0392 69.604C59.1992 69.428 59.3205 69.2147 59.4032 68.964C59.4885 68.7107 59.5312 68.4253 59.5312 68.108Z" fill="black"/>
<g opacity="0.75">
<rect x="67" y="79" width="23" height="1" transform="rotate(-90 67 79)" fill="#535353"/>
</g>
<rect x="69.5" y="56.5" width="30" height="22" rx="1" fill="url(#paint38_linear)"/>
<rect x="69.5" y="56.5" width="30" height="22" rx="1" stroke="url(#paint39_linear)" stroke-width="2"/>
<path d="M76.3365 61.268C76.3045 61.324 76.2698 61.3653 76.2325 61.392C76.1978 61.416 76.1538 61.428 76.1005 61.428C76.0445 61.428 75.9832 61.408 75.9165 61.368C75.8525 61.3253 75.7752 61.2787 75.6845 61.228C75.5938 61.1773 75.4872 61.132 75.3645 61.092C75.2445 61.0493 75.1018 61.028 74.9365 61.028C74.7872 61.028 74.6565 61.0467 74.5445 61.084C74.4325 61.1187 74.3378 61.168 74.2605 61.232C74.1858 61.296 74.1298 61.3733 74.0925 61.464C74.0552 61.552 74.0365 61.6493 74.0365 61.756C74.0365 61.892 74.0738 62.0053 74.1485 62.096C74.2258 62.1867 74.3272 62.264 74.4525 62.328C74.5778 62.392 74.7205 62.4493 74.8805 62.5C75.0405 62.5507 75.2045 62.6053 75.3725 62.664C75.5405 62.72 75.7045 62.7867 75.8645 62.864C76.0245 62.9387 76.1672 63.0347 76.2925 63.152C76.4178 63.2667 76.5178 63.408 76.5925 63.576C76.6698 63.744 76.7085 63.948 76.7085 64.188C76.7085 64.4493 76.6632 64.6947 76.5725 64.924C76.4845 65.1507 76.3538 65.3493 76.1805 65.52C76.0098 65.688 75.8005 65.8213 75.5525 65.92C75.3045 66.016 75.0205 66.064 74.7005 66.064C74.5165 66.064 74.3352 66.0453 74.1565 66.008C73.9778 65.9733 73.8058 65.9227 73.6405 65.856C73.4778 65.7893 73.3245 65.7093 73.1805 65.616C73.0365 65.5227 72.9085 65.4187 72.7965 65.304L73.1125 64.788C73.1392 64.7507 73.1738 64.72 73.2165 64.696C73.2592 64.6693 73.3045 64.656 73.3525 64.656C73.4192 64.656 73.4912 64.684 73.5685 64.74C73.6458 64.7933 73.7378 64.8533 73.8445 64.92C73.9512 64.9867 74.0752 65.048 74.2165 65.104C74.3605 65.1573 74.5325 65.184 74.7325 65.184C75.0392 65.184 75.2765 65.112 75.4445 64.968C75.6125 64.8213 75.6965 64.612 75.6965 64.34C75.6965 64.188 75.6578 64.064 75.5805 63.968C75.5058 63.872 75.4058 63.792 75.2805 63.728C75.1552 63.6613 75.0125 63.6053 74.8525 63.56C74.6925 63.5147 74.5298 63.4653 74.3645 63.412C74.1992 63.3587 74.0365 63.2947 73.8765 63.22C73.7165 63.1453 73.5738 63.048 73.4485 62.928C73.3232 62.808 73.2218 62.6587 73.1445 62.48C73.0698 62.2987 73.0325 62.076 73.0325 61.812C73.0325 61.6013 73.0738 61.396 73.1565 61.196C73.2418 60.996 73.3645 60.8187 73.5245 60.664C73.6845 60.5093 73.8818 60.3853 74.1165 60.292C74.3512 60.1987 74.6205 60.152 74.9245 60.152C75.2658 60.152 75.5805 60.2053 75.8685 60.312C76.1565 60.4187 76.4018 60.568 76.6045 60.76L76.3365 61.268ZM82.4031 60.216V66H81.8511C81.7658 66 81.6938 65.9867 81.6351 65.96C81.5791 65.9307 81.5245 65.8827 81.4711 65.816L78.4511 61.96C78.4671 62.136 78.4751 62.2987 78.4751 62.448V66H77.5271V60.216H78.0911C78.1365 60.216 78.1751 60.2187 78.2071 60.224C78.2418 60.2267 78.2711 60.2347 78.2951 60.248C78.3218 60.2587 78.3471 60.276 78.3711 60.3C78.3951 60.3213 78.4218 60.3507 78.4511 60.388L81.4831 64.26C81.4751 64.1667 81.4685 64.0747 81.4631 63.984C81.4578 63.8933 81.4551 63.8093 81.4551 63.732V60.216H82.4031ZM88.7072 63.108C88.7072 63.532 88.6365 63.9213 88.4952 64.276C88.3539 64.6307 88.1552 64.936 87.8992 65.192C87.6432 65.448 87.3352 65.6467 86.9752 65.788C86.6152 65.9293 86.2152 66 85.7752 66H83.5712V60.216H85.7752C86.2152 60.216 86.6152 60.288 86.9752 60.432C87.3352 60.5733 87.6432 60.772 87.8992 61.028C88.1552 61.2813 88.3539 61.5853 88.4952 61.94C88.6365 62.2947 88.7072 62.684 88.7072 63.108ZM87.6032 63.108C87.6032 62.7907 87.5605 62.5067 87.4752 62.256C87.3925 62.0027 87.2712 61.7893 87.1112 61.616C86.9539 61.44 86.7619 61.3053 86.5352 61.212C86.3112 61.1187 86.0579 61.072 85.7752 61.072H84.6512V65.144H85.7752C86.0579 65.144 86.3112 65.0973 86.5352 65.004C86.7619 64.9107 86.9539 64.7773 87.1112 64.604C87.2712 64.428 87.3925 64.2147 87.4752 63.964C87.5605 63.7107 87.6032 63.4253 87.6032 63.108ZM92.6304 63.296C92.4171 63.4347 92.2611 63.592 92.1624 63.768C92.0664 63.9413 92.0184 64.128 92.0184 64.328C92.0184 64.4747 92.0438 64.6067 92.0944 64.724C92.1451 64.8413 92.2131 64.9413 92.2984 65.024C92.3864 65.104 92.4878 65.1667 92.6024 65.212C92.7198 65.2547 92.8438 65.276 92.9744 65.276C93.2091 65.276 93.4238 65.24 93.6184 65.168C93.8131 65.0933 93.9891 64.9907 94.1464 64.86L92.6304 63.296ZM96.4824 66H95.5144C95.4131 66 95.3304 65.988 95.2664 65.964C95.2051 65.94 95.1398 65.8893 95.0704 65.812L94.6704 65.4C94.4171 65.608 94.1331 65.7707 93.8184 65.888C93.5038 66.0053 93.1638 66.064 92.7984 66.064C92.5771 66.064 92.3584 66.0267 92.1424 65.952C91.9291 65.8747 91.7384 65.764 91.5704 65.62C91.4024 65.476 91.2664 65.3027 91.1624 65.1C91.0611 64.8947 91.0104 64.664 91.0104 64.408C91.0104 64.2267 91.0398 64.056 91.0984 63.896C91.1571 63.7333 91.2384 63.5827 91.3424 63.444C91.4464 63.3053 91.5704 63.1813 91.7144 63.072C91.8584 62.96 92.0158 62.864 92.1864 62.784C92.0424 62.584 91.9384 62.3893 91.8744 62.2C91.8104 62.008 91.7784 61.8173 91.7784 61.628C91.7784 61.428 91.8144 61.2387 91.8864 61.06C91.9611 60.8787 92.0678 60.7213 92.2064 60.588C92.3451 60.4547 92.5158 60.3493 92.7184 60.272C92.9211 60.192 93.1504 60.152 93.4064 60.152C93.6411 60.152 93.8504 60.188 94.0344 60.26C94.2211 60.332 94.3798 60.428 94.5104 60.548C94.6438 60.668 94.7478 60.8053 94.8224 60.96C94.8998 61.1147 94.9451 61.2747 94.9584 61.44L94.3304 61.572C94.2131 61.596 94.1278 61.5453 94.0744 61.42C94.0504 61.3507 94.0184 61.2853 93.9784 61.224C93.9411 61.16 93.8958 61.1053 93.8424 61.06C93.7891 61.012 93.7264 60.9747 93.6544 60.948C93.5824 60.9187 93.4998 60.904 93.4064 60.904C93.2944 60.904 93.1944 60.924 93.1064 60.964C93.0184 61.0013 92.9438 61.0533 92.8824 61.12C92.8238 61.184 92.7784 61.26 92.7464 61.348C92.7144 61.4333 92.6984 61.524 92.6984 61.62C92.6984 61.7 92.7064 61.7773 92.7224 61.852C92.7384 61.9267 92.7651 62.0013 92.8024 62.076C92.8398 62.1507 92.8878 62.228 92.9464 62.308C93.0078 62.3853 93.0824 62.4693 93.1704 62.56L94.7064 64.156C94.7944 63.988 94.8651 63.8107 94.9184 63.624C94.9718 63.4373 95.0064 63.248 95.0224 63.056C95.0304 62.9947 95.0518 62.9453 95.0864 62.908C95.1211 62.8707 95.1691 62.852 95.2304 62.852H95.8464C95.8438 63.204 95.7931 63.54 95.6944 63.86C95.5958 64.18 95.4544 64.4747 95.2704 64.744L96.4824 66ZM82.4187 73.1V75.44C82.1254 75.656 81.8121 75.8147 81.4787 75.916C81.1481 76.0147 80.7934 76.064 80.4147 76.064C79.9427 76.064 79.5147 75.9907 79.1307 75.844C78.7494 75.6973 78.4227 75.4933 78.1507 75.232C77.8814 74.9707 77.6734 74.6587 77.5267 74.296C77.3801 73.9333 77.3067 73.5373 77.3067 73.108C77.3067 72.6733 77.3774 72.2747 77.5187 71.912C77.6601 71.5493 77.8601 71.2373 78.1187 70.976C78.3801 70.7147 78.6961 70.512 79.0667 70.368C79.4374 70.224 79.8534 70.152 80.3147 70.152C80.5494 70.152 80.7681 70.1707 80.9707 70.208C81.1761 70.2453 81.3654 70.2973 81.5387 70.364C81.7147 70.428 81.8747 70.5067 82.0187 70.6C82.1627 70.6933 82.2947 70.796 82.4147 70.908L82.1067 71.396C82.0587 71.4733 81.9961 71.5213 81.9187 71.54C81.8414 71.556 81.7574 71.536 81.6667 71.48C81.5787 71.4293 81.4907 71.3787 81.4027 71.328C81.3147 71.2773 81.2161 71.2333 81.1067 71.196C81.0001 71.1587 80.8787 71.128 80.7427 71.104C80.6094 71.08 80.4547 71.068 80.2787 71.068C79.9934 71.068 79.7347 71.116 79.5027 71.212C79.2734 71.308 79.0774 71.4453 78.9147 71.624C78.7521 71.8027 78.6267 72.0173 78.5387 72.268C78.4507 72.5187 78.4067 72.7987 78.4067 73.108C78.4067 73.4387 78.4534 73.7347 78.5467 73.996C78.6427 74.2547 78.7761 74.4747 78.9467 74.656C79.1201 74.8347 79.3281 74.972 79.5707 75.068C79.8134 75.1613 80.0841 75.208 80.3827 75.208C80.5961 75.208 80.7867 75.1853 80.9547 75.14C81.1227 75.0947 81.2867 75.0333 81.4467 74.956V73.908H80.7187C80.6494 73.908 80.5947 73.8893 80.5547 73.852C80.5174 73.812 80.4987 73.764 80.4987 73.708V73.1H82.4187ZM86.7234 75.112V76H83.3354V70.216H84.4114V75.112H86.7234ZM89.5357 75.16C89.7357 75.16 89.9037 75.136 90.0397 75.088C90.1757 75.04 90.2837 74.976 90.3637 74.896C90.4463 74.816 90.505 74.7227 90.5397 74.616C90.577 74.5093 90.5957 74.396 90.5957 74.276C90.5957 74.1507 90.5757 74.0387 90.5357 73.94C90.4957 73.8387 90.433 73.7533 90.3477 73.684C90.2623 73.612 90.1517 73.5573 90.0157 73.52C89.8823 73.4827 89.721 73.464 89.5317 73.464H88.4477V75.16H89.5357ZM88.4477 71.048V72.72H89.3037C89.6717 72.72 89.949 72.6533 90.1357 72.52C90.325 72.3867 90.4197 72.1747 90.4197 71.884C90.4197 71.5827 90.3343 71.368 90.1637 71.24C89.993 71.112 89.7263 71.048 89.3637 71.048H88.4477ZM89.3637 70.216C89.7423 70.216 90.0663 70.252 90.3357 70.324C90.605 70.396 90.825 70.4987 90.9957 70.632C91.169 70.7653 91.2957 70.9267 91.3757 71.116C91.4557 71.3053 91.4957 71.5187 91.4957 71.756C91.4957 71.892 91.4757 72.0227 91.4357 72.148C91.3957 72.2707 91.333 72.3867 91.2477 72.496C91.165 72.6027 91.0583 72.7 90.9277 72.788C90.7997 72.876 90.6463 72.9507 90.4677 73.012C91.2623 73.1907 91.6597 73.62 91.6597 74.3C91.6597 74.5453 91.613 74.772 91.5197 74.98C91.4263 75.188 91.2903 75.368 91.1117 75.52C90.933 75.6693 90.713 75.7867 90.4517 75.872C90.1903 75.9573 89.8917 76 89.5557 76H87.3717V70.216H89.3637Z" fill="black"/>
<path opacity="0.5" d="M102 56H101V79H102V56Z" fill="#535353"/>
<rect x="103.5" y="56.5" width="29" height="22" fill="url(#paint40_linear)"/>
<rect x="103.5" y="56.5" width="29" height="22" stroke="url(#paint41_linear)" stroke-width="2" stroke-linejoin="round"/>
<path d="M114.886 68.816L114.182 66.892C114.148 66.8067 114.112 66.7053 114.074 66.588C114.037 66.4707 114 66.344 113.962 66.208C113.928 66.344 113.892 66.472 113.854 66.592C113.817 66.7093 113.781 66.812 113.746 66.9L113.046 68.816H114.886ZM116.786 71H115.954C115.861 71 115.785 70.9773 115.726 70.932C115.668 70.884 115.624 70.8253 115.594 70.756L115.162 69.576H112.766L112.334 70.756C112.313 70.8173 112.272 70.8733 112.21 70.924C112.149 70.9747 112.073 71 111.982 71H111.142L113.418 65.216H114.514L116.786 71ZM120.653 70.112V71H117.265V65.216H118.341V70.112H120.653ZM124.689 70.112V71H121.301V65.216H122.377V70.112H124.689Z" fill="black"/>
<path d="M3.5 55H131.5V54H3.5V55ZM134 57.5V77.5H135V57.5H134ZM131.5 80H3.5V81H131.5V80ZM1 77.5V57.5H0V77.5H1ZM3.5 80C2.11929 80 1 78.8807 1 77.5H0C0 79.433 1.567 81 3.5 81V80ZM134 77.5C134 78.8807 132.881 80 131.5 80V81C133.433 81 135 79.433 135 77.5H134ZM131.5 55C132.881 55 134 56.1193 134 57.5H135C135 55.567 133.433 54 131.5 54V55ZM3.5 54C1.567 54 0 55.567 0 57.5H1C1 56.1193 2.11929 55 3.5 55V54Z" fill="#535353"/>
<path d="M0.5 84.5C0.5 82.8431 1.84315 81.5 3.5 81.5H131.5C133.157 81.5 134.5 82.8431 134.5 84.5V104.5C134.5 106.157 133.157 107.5 131.5 107.5H3.5C1.84314 107.5 0.5 106.157 0.5 104.5V84.5Z" fill="#535353"/>
<rect x="2.5" y="83.5" width="29" height="22" rx="1" fill="url(#paint42_linear)" stroke="url(#paint43_linear)" stroke-width="2" stroke-linejoin="round"/>
<rect x="35.5" y="83.5" width="30" height="22" rx="1" fill="url(#paint44_linear)" stroke="url(#paint45_linear)" stroke-width="2" stroke-linejoin="round"/>
<rect x="69.5" y="83.5" width="30" height="22" rx="1" fill="url(#paint46_linear)" stroke="url(#paint47_linear)" stroke-width="2" stroke-linejoin="round"/>
<rect x="2.5" y="83.5" width="29" height="22" fill="url(#paint48_linear)"/>
<rect x="2.5" y="83.5" width="29" height="22" stroke="url(#paint49_linear)" stroke-width="2" stroke-linejoin="round"/>
<path d="M15.5183 95.108C15.5183 95.532 15.4476 95.9253 15.3063 96.288C15.1676 96.648 14.9703 96.96 14.7143 97.224C14.4583 97.488 14.1503 97.6947 13.7903 97.844C13.4303 97.9907 13.0303 98.064 12.5903 98.064C12.1529 98.064 11.7543 97.9907 11.3943 97.844C11.0343 97.6947 10.7249 97.488 10.4663 97.224C10.2103 96.96 10.0116 96.648 9.87028 96.288C9.72895 95.9253 9.65828 95.532 9.65828 95.108C9.65828 94.684 9.72895 94.292 9.87028 93.932C10.0116 93.5693 10.2103 93.256 10.4663 92.992C10.7249 92.728 11.0343 92.5227 11.3943 92.376C11.7543 92.2267 12.1529 92.152 12.5903 92.152C12.8836 92.152 13.1596 92.1867 13.4183 92.256C13.6769 92.3227 13.9143 92.4187 14.1303 92.544C14.3463 92.6667 14.5396 92.8173 14.7103 92.996C14.8836 93.172 15.0303 93.3693 15.1503 93.588C15.2703 93.8067 15.3609 94.044 15.4223 94.3C15.4863 94.556 15.5183 94.8253 15.5183 95.108ZM14.4183 95.108C14.4183 94.7907 14.3756 94.5067 14.2903 94.256C14.2049 94.0027 14.0836 93.788 13.9263 93.612C13.7689 93.436 13.5769 93.3013 13.3503 93.208C13.1263 93.1147 12.8729 93.068 12.5903 93.068C12.3076 93.068 12.0529 93.1147 11.8263 93.208C11.6023 93.3013 11.4103 93.436 11.2503 93.612C11.0929 93.788 10.9716 94.0027 10.8863 94.256C10.8009 94.5067 10.7583 94.7907 10.7583 95.108C10.7583 95.4253 10.8009 95.7107 10.8863 95.964C10.9716 96.2147 11.0929 96.428 11.2503 96.604C11.4103 96.7773 11.6023 96.9107 11.8263 97.004C12.0529 97.0973 12.3076 97.144 12.5903 97.144C12.8729 97.144 13.1263 97.0973 13.3503 97.004C13.5769 96.9107 13.7689 96.7773 13.9263 96.604C14.0836 96.428 14.2049 96.2147 14.2903 95.964C14.3756 95.7107 14.4183 95.4253 14.4183 95.108ZM17.4232 93.072V94.784H19.5912V95.644H17.4232V98H16.3432V92.216H19.9912V93.072H17.4232ZM21.8345 93.072V94.784H24.0025V95.644H21.8345V98H20.7545V92.216H24.4025V93.072H21.8345Z" fill="black"/>
<g opacity="0.75">
<rect x="33" y="106" width="23" height="1" transform="rotate(-90 33 106)" fill="#535353"/>
</g>
<rect x="35.5" y="83.5" width="30" height="22" fill="url(#paint50_linear)"/>
<rect x="35.5" y="83.5" width="30" height="22" stroke="url(#paint51_linear)" stroke-width="2" stroke-linejoin="round"/>
<path d="M43.7829 93.268C43.7509 93.324 43.7162 93.3653 43.6789 93.392C43.6442 93.416 43.6002 93.428 43.5469 93.428C43.4909 93.428 43.4296 93.408 43.3629 93.368C43.2989 93.3253 43.2216 93.2787 43.1309 93.228C43.0402 93.1773 42.9336 93.132 42.8109 93.092C42.6909 93.0493 42.5482 93.028 42.3829 93.028C42.2336 93.028 42.1029 93.0467 41.9909 93.084C41.8789 93.1187 41.7842 93.168 41.7069 93.232C41.6322 93.296 41.5762 93.3733 41.5389 93.464C41.5016 93.552 41.4829 93.6493 41.4829 93.756C41.4829 93.892 41.5202 94.0053 41.5949 94.096C41.6722 94.1867 41.7736 94.264 41.8989 94.328C42.0242 94.392 42.1669 94.4493 42.3269 94.5C42.4869 94.5507 42.6509 94.6053 42.8189 94.664C42.9869 94.72 43.1509 94.7867 43.3109 94.864C43.4709 94.9387 43.6136 95.0347 43.7389 95.152C43.8642 95.2667 43.9642 95.408 44.0389 95.576C44.1162 95.744 44.1549 95.948 44.1549 96.188C44.1549 96.4493 44.1096 96.6947 44.0189 96.924C43.9309 97.1507 43.8002 97.3493 43.6269 97.52C43.4562 97.688 43.2469 97.8213 42.9989 97.92C42.7509 98.016 42.4669 98.064 42.1469 98.064C41.9629 98.064 41.7816 98.0453 41.6029 98.008C41.4242 97.9733 41.2522 97.9227 41.0869 97.856C40.9242 97.7893 40.7709 97.7093 40.6269 97.616C40.4829 97.5227 40.3549 97.4187 40.2429 97.304L40.5589 96.788C40.5856 96.7507 40.6202 96.72 40.6629 96.696C40.7056 96.6693 40.7509 96.656 40.7989 96.656C40.8656 96.656 40.9376 96.684 41.0149 96.74C41.0922 96.7933 41.1842 96.8533 41.2909 96.92C41.3976 96.9867 41.5216 97.048 41.6629 97.104C41.8069 97.1573 41.9789 97.184 42.1789 97.184C42.4856 97.184 42.7229 97.112 42.8909 96.968C43.0589 96.8213 43.1429 96.612 43.1429 96.34C43.1429 96.188 43.1042 96.064 43.0269 95.968C42.9522 95.872 42.8522 95.792 42.7269 95.728C42.6016 95.6613 42.4589 95.6053 42.2989 95.56C42.1389 95.5147 41.9762 95.4653 41.8109 95.412C41.6456 95.3587 41.4829 95.2947 41.3229 95.22C41.1629 95.1453 41.0202 95.048 40.8949 94.928C40.7696 94.808 40.6682 94.6587 40.5909 94.48C40.5162 94.2987 40.4789 94.076 40.4789 93.812C40.4789 93.6013 40.5202 93.396 40.6029 93.196C40.6882 92.996 40.8109 92.8187 40.9709 92.664C41.1309 92.5093 41.3282 92.3853 41.5629 92.292C41.7976 92.1987 42.0669 92.152 42.3709 92.152C42.7122 92.152 43.0269 92.2053 43.3149 92.312C43.6029 92.4187 43.8482 92.568 44.0509 92.76L43.7829 93.268ZM46.0535 93.072V94.676H48.0775V95.504H46.0535V97.14H48.6215V98H44.9735V92.216H48.6215V93.072H46.0535ZM54.3311 92.216V98H53.7791C53.6938 98 53.6218 97.9867 53.5631 97.96C53.5071 97.9307 53.4524 97.8827 53.3991 97.816L50.3791 93.96C50.3951 94.136 50.4031 94.2987 50.4031 94.448V98H49.4551V92.216H50.0191C50.0644 92.216 50.1031 92.2187 50.1351 92.224C50.1698 92.2267 50.1991 92.2347 50.2231 92.248C50.2498 92.2587 50.2751 92.276 50.2991 92.3C50.3231 92.3213 50.3498 92.3507 50.3791 92.388L53.4111 96.26C53.4031 96.1667 53.3964 96.0747 53.3911 95.984C53.3858 95.8933 53.3831 95.8093 53.3831 95.732V92.216H54.3311ZM60.6352 95.108C60.6352 95.532 60.5645 95.9213 60.4232 96.276C60.2818 96.6307 60.0832 96.936 59.8272 97.192C59.5712 97.448 59.2632 97.6467 58.9032 97.788C58.5432 97.9293 58.1432 98 57.7032 98H55.4992V92.216H57.7032C58.1432 92.216 58.5432 92.288 58.9032 92.432C59.2632 92.5733 59.5712 92.772 59.8272 93.028C60.0832 93.2813 60.2818 93.5853 60.4232 93.94C60.5645 94.2947 60.6352 94.684 60.6352 95.108ZM59.5312 95.108C59.5312 94.7907 59.4885 94.5067 59.4032 94.256C59.3205 94.0027 59.1992 93.7893 59.0392 93.616C58.8818 93.44 58.6898 93.3053 58.4632 93.212C58.2392 93.1187 57.9858 93.072 57.7032 93.072H56.5792V97.144H57.7032C57.9858 97.144 58.2392 97.0973 58.4632 97.004C58.6898 96.9107 58.8818 96.7773 59.0392 96.604C59.1992 96.428 59.3205 96.2147 59.4032 95.964C59.4885 95.7107 59.5312 95.4253 59.5312 95.108Z" fill="black"/>
<g opacity="0.75">
<rect x="67" y="106" width="23" height="1" transform="rotate(-90 67 106)" fill="#535353"/>
</g>
<rect x="69.5" y="83.5" width="30" height="22" fill="url(#paint52_linear)"/>
<rect x="69.5" y="83.5" width="30" height="22" stroke="url(#paint53_linear)" stroke-width="2" stroke-linejoin="round"/>
<path d="M76.3365 88.268C76.3045 88.324 76.2698 88.3653 76.2325 88.392C76.1978 88.416 76.1538 88.428 76.1005 88.428C76.0445 88.428 75.9832 88.408 75.9165 88.368C75.8525 88.3253 75.7752 88.2787 75.6845 88.228C75.5938 88.1773 75.4872 88.132 75.3645 88.092C75.2445 88.0493 75.1018 88.028 74.9365 88.028C74.7872 88.028 74.6565 88.0467 74.5445 88.084C74.4325 88.1187 74.3378 88.168 74.2605 88.232C74.1858 88.296 74.1298 88.3733 74.0925 88.464C74.0552 88.552 74.0365 88.6493 74.0365 88.756C74.0365 88.892 74.0738 89.0053 74.1485 89.096C74.2258 89.1867 74.3272 89.264 74.4525 89.328C74.5778 89.392 74.7205 89.4493 74.8805 89.5C75.0405 89.5507 75.2045 89.6053 75.3725 89.664C75.5405 89.72 75.7045 89.7867 75.8645 89.864C76.0245 89.9387 76.1672 90.0347 76.2925 90.152C76.4178 90.2667 76.5178 90.408 76.5925 90.576C76.6698 90.744 76.7085 90.948 76.7085 91.188C76.7085 91.4493 76.6632 91.6947 76.5725 91.924C76.4845 92.1507 76.3538 92.3493 76.1805 92.52C76.0098 92.688 75.8005 92.8213 75.5525 92.92C75.3045 93.016 75.0205 93.064 74.7005 93.064C74.5165 93.064 74.3352 93.0453 74.1565 93.008C73.9778 92.9733 73.8058 92.9227 73.6405 92.856C73.4778 92.7893 73.3245 92.7093 73.1805 92.616C73.0365 92.5227 72.9085 92.4187 72.7965 92.304L73.1125 91.788C73.1392 91.7507 73.1738 91.72 73.2165 91.696C73.2592 91.6693 73.3045 91.656 73.3525 91.656C73.4192 91.656 73.4912 91.684 73.5685 91.74C73.6458 91.7933 73.7378 91.8533 73.8445 91.92C73.9512 91.9867 74.0752 92.048 74.2165 92.104C74.3605 92.1573 74.5325 92.184 74.7325 92.184C75.0392 92.184 75.2765 92.112 75.4445 91.968C75.6125 91.8213 75.6965 91.612 75.6965 91.34C75.6965 91.188 75.6578 91.064 75.5805 90.968C75.5058 90.872 75.4058 90.792 75.2805 90.728C75.1552 90.6613 75.0125 90.6053 74.8525 90.56C74.6925 90.5147 74.5298 90.4653 74.3645 90.412C74.1992 90.3587 74.0365 90.2947 73.8765 90.22C73.7165 90.1453 73.5738 90.048 73.4485 89.928C73.3232 89.808 73.2218 89.6587 73.1445 89.48C73.0698 89.2987 73.0325 89.076 73.0325 88.812C73.0325 88.6013 73.0738 88.396 73.1565 88.196C73.2418 87.996 73.3645 87.8187 73.5245 87.664C73.6845 87.5093 73.8818 87.3853 74.1165 87.292C74.3512 87.1987 74.6205 87.152 74.9245 87.152C75.2658 87.152 75.5805 87.2053 75.8685 87.312C76.1565 87.4187 76.4018 87.568 76.6045 87.76L76.3365 88.268ZM82.4031 87.216V93H81.8511C81.7658 93 81.6938 92.9867 81.6351 92.96C81.5791 92.9307 81.5245 92.8827 81.4711 92.816L78.4511 88.96C78.4671 89.136 78.4751 89.2987 78.4751 89.448V93H77.5271V87.216H78.0911C78.1365 87.216 78.1751 87.2187 78.2071 87.224C78.2418 87.2267 78.2711 87.2347 78.2951 87.248C78.3218 87.2587 78.3471 87.276 78.3711 87.3C78.3951 87.3213 78.4218 87.3507 78.4511 87.388L81.4831 91.26C81.4751 91.1667 81.4685 91.0747 81.4631 90.984C81.4578 90.8933 81.4551 90.8093 81.4551 90.732V87.216H82.4031ZM88.7072 90.108C88.7072 90.532 88.6365 90.9213 88.4952 91.276C88.3539 91.6307 88.1552 91.936 87.8992 92.192C87.6432 92.448 87.3352 92.6467 86.9752 92.788C86.6152 92.9293 86.2152 93 85.7752 93H83.5712V87.216H85.7752C86.2152 87.216 86.6152 87.288 86.9752 87.432C87.3352 87.5733 87.6432 87.772 87.8992 88.028C88.1552 88.2813 88.3539 88.5853 88.4952 88.94C88.6365 89.2947 88.7072 89.684 88.7072 90.108ZM87.6032 90.108C87.6032 89.7907 87.5605 89.5067 87.4752 89.256C87.3925 89.0027 87.2712 88.7893 87.1112 88.616C86.9539 88.44 86.7619 88.3053 86.5352 88.212C86.3112 88.1187 86.0579 88.072 85.7752 88.072H84.6512V92.144H85.7752C86.0579 92.144 86.3112 92.0973 86.5352 92.004C86.7619 91.9107 86.9539 91.7773 87.1112 91.604C87.2712 91.428 87.3925 91.2147 87.4752 90.964C87.5605 90.7107 87.6032 90.4253 87.6032 90.108ZM92.6304 90.296C92.4171 90.4347 92.2611 90.592 92.1624 90.768C92.0664 90.9413 92.0184 91.128 92.0184 91.328C92.0184 91.4747 92.0438 91.6067 92.0944 91.724C92.1451 91.8413 92.2131 91.9413 92.2984 92.024C92.3864 92.104 92.4878 92.1667 92.6024 92.212C92.7198 92.2547 92.8438 92.276 92.9744 92.276C93.2091 92.276 93.4238 92.24 93.6184 92.168C93.8131 92.0933 93.9891 91.9907 94.1464 91.86L92.6304 90.296ZM96.4824 93H95.5144C95.4131 93 95.3304 92.988 95.2664 92.964C95.2051 92.94 95.1398 92.8893 95.0704 92.812L94.6704 92.4C94.4171 92.608 94.1331 92.7707 93.8184 92.888C93.5038 93.0053 93.1638 93.064 92.7984 93.064C92.5771 93.064 92.3584 93.0267 92.1424 92.952C91.9291 92.8747 91.7384 92.764 91.5704 92.62C91.4024 92.476 91.2664 92.3027 91.1624 92.1C91.0611 91.8947 91.0104 91.664 91.0104 91.408C91.0104 91.2267 91.0398 91.056 91.0984 90.896C91.1571 90.7333 91.2384 90.5827 91.3424 90.444C91.4464 90.3053 91.5704 90.1813 91.7144 90.072C91.8584 89.96 92.0158 89.864 92.1864 89.784C92.0424 89.584 91.9384 89.3893 91.8744 89.2C91.8104 89.008 91.7784 88.8173 91.7784 88.628C91.7784 88.428 91.8144 88.2387 91.8864 88.06C91.9611 87.8787 92.0678 87.7213 92.2064 87.588C92.3451 87.4547 92.5158 87.3493 92.7184 87.272C92.9211 87.192 93.1504 87.152 93.4064 87.152C93.6411 87.152 93.8504 87.188 94.0344 87.26C94.2211 87.332 94.3798 87.428 94.5104 87.548C94.6438 87.668 94.7478 87.8053 94.8224 87.96C94.8998 88.1147 94.9451 88.2747 94.9584 88.44L94.3304 88.572C94.2131 88.596 94.1278 88.5453 94.0744 88.42C94.0504 88.3507 94.0184 88.2853 93.9784 88.224C93.9411 88.16 93.8958 88.1053 93.8424 88.06C93.7891 88.012 93.7264 87.9747 93.6544 87.948C93.5824 87.9187 93.4998 87.904 93.4064 87.904C93.2944 87.904 93.1944 87.924 93.1064 87.964C93.0184 88.0013 92.9438 88.0533 92.8824 88.12C92.8238 88.184 92.7784 88.26 92.7464 88.348C92.7144 88.4333 92.6984 88.524 92.6984 88.62C92.6984 88.7 92.7064 88.7773 92.7224 88.852C92.7384 88.9267 92.7651 89.0013 92.8024 89.076C92.8398 89.1507 92.8878 89.228 92.9464 89.308C93.0078 89.3853 93.0824 89.4693 93.1704 89.56L94.7064 91.156C94.7944 90.988 94.8651 90.8107 94.9184 90.624C94.9718 90.4373 95.0064 90.248 95.0224 90.056C95.0304 89.9947 95.0518 89.9453 95.0864 89.908C95.1211 89.8707 95.1691 89.852 95.2304 89.852H95.8464C95.8438 90.204 95.7931 90.54 95.6944 90.86C95.5958 91.18 95.4544 91.4747 95.2704 91.744L96.4824 93ZM82.4187 100.1V102.44C82.1254 102.656 81.8121 102.815 81.4787 102.916C81.1481 103.015 80.7934 103.064 80.4147 103.064C79.9427 103.064 79.5147 102.991 79.1307 102.844C78.7494 102.697 78.4227 102.493 78.1507 102.232C77.8814 101.971 77.6734 101.659 77.5267 101.296C77.3801 100.933 77.3067 100.537 77.3067 100.108C77.3067 99.6733 77.3774 99.2747 77.5187 98.912C77.6601 98.5493 77.8601 98.2373 78.1187 97.976C78.3801 97.7147 78.6961 97.512 79.0667 97.368C79.4374 97.224 79.8534 97.152 80.3147 97.152C80.5494 97.152 80.7681 97.1707 80.9707 97.208C81.1761 97.2453 81.3654 97.2973 81.5387 97.364C81.7147 97.428 81.8747 97.5067 82.0187 97.6C82.1627 97.6933 82.2947 97.796 82.4147 97.908L82.1067 98.396C82.0587 98.4733 81.9961 98.5213 81.9187 98.54C81.8414 98.556 81.7574 98.536 81.6667 98.48C81.5787 98.4293 81.4907 98.3787 81.4027 98.328C81.3147 98.2773 81.2161 98.2333 81.1067 98.196C81.0001 98.1587 80.8787 98.128 80.7427 98.104C80.6094 98.08 80.4547 98.068 80.2787 98.068C79.9934 98.068 79.7347 98.116 79.5027 98.212C79.2734 98.308 79.0774 98.4453 78.9147 98.624C78.7521 98.8027 78.6267 99.0173 78.5387 99.268C78.4507 99.5187 78.4067 99.7987 78.4067 100.108C78.4067 100.439 78.4534 100.735 78.5467 100.996C78.6427 101.255 78.7761 101.475 78.9467 101.656C79.1201 101.835 79.3281 101.972 79.5707 102.068C79.8134 102.161 80.0841 102.208 80.3827 102.208C80.5961 102.208 80.7867 102.185 80.9547 102.14C81.1227 102.095 81.2867 102.033 81.4467 101.956V100.908H80.7187C80.6494 100.908 80.5947 100.889 80.5547 100.852C80.5174 100.812 80.4987 100.764 80.4987 100.708V100.1H82.4187ZM86.7234 102.112V103H83.3354V97.216H84.4114V102.112H86.7234ZM89.5357 102.16C89.7357 102.16 89.9037 102.136 90.0397 102.088C90.1757 102.04 90.2837 101.976 90.3637 101.896C90.4463 101.816 90.505 101.723 90.5397 101.616C90.577 101.509 90.5957 101.396 90.5957 101.276C90.5957 101.151 90.5757 101.039 90.5357 100.94C90.4957 100.839 90.433 100.753 90.3477 100.684C90.2623 100.612 90.1517 100.557 90.0157 100.52C89.8823 100.483 89.721 100.464 89.5317 100.464H88.4477V102.16H89.5357ZM88.4477 98.048V99.72H89.3037C89.6717 99.72 89.949 99.6533 90.1357 99.52C90.325 99.3867 90.4197 99.1747 90.4197 98.884C90.4197 98.5827 90.3343 98.368 90.1637 98.24C89.993 98.112 89.7263 98.048 89.3637 98.048H88.4477ZM89.3637 97.216C89.7423 97.216 90.0663 97.252 90.3357 97.324C90.605 97.396 90.825 97.4987 90.9957 97.632C91.169 97.7653 91.2957 97.9267 91.3757 98.116C91.4557 98.3053 91.4957 98.5187 91.4957 98.756C91.4957 98.892 91.4757 99.0227 91.4357 99.148C91.3957 99.2707 91.333 99.3867 91.2477 99.496C91.165 99.6027 91.0583 99.7 90.9277 99.788C90.7997 99.876 90.6463 99.9507 90.4677 100.012C91.2623 100.191 91.6597 100.62 91.6597 101.3C91.6597 101.545 91.613 101.772 91.5197 101.98C91.4263 102.188 91.2903 102.368 91.1117 102.52C90.933 102.669 90.713 102.787 90.4517 102.872C90.1903 102.957 89.8917 103 89.5557 103H87.3717V97.216H89.3637Z" fill="black"/>
<path opacity="0.5" d="M102 83H101V106H102V83Z" fill="#535353"/>
<rect x="103.484" y="83.5" width="29.0323" height="22" rx="1" fill="url(#paint54_linear)"/>
<rect x="103.484" y="83.5" width="29.0323" height="22" rx="1" stroke="url(#paint55_linear)" stroke-width="2"/>
<path d="M114.87 95.816L114.166 93.892C114.132 93.8067 114.096 93.7053 114.058 93.588C114.021 93.4707 113.984 93.344 113.946 93.208C113.912 93.344 113.876 93.472 113.838 93.592C113.801 93.7093 113.765 93.812 113.73 93.9L113.03 95.816H114.87ZM116.77 98H115.938C115.845 98 115.769 97.9773 115.71 97.932C115.652 97.884 115.608 97.8253 115.578 97.756L115.146 96.576H112.75L112.318 97.756C112.297 97.8173 112.256 97.8733 112.194 97.924C112.133 97.9747 112.057 98 111.966 98H111.126L113.402 92.216H114.498L116.77 98ZM120.637 97.112V98H117.249V92.216H118.325V97.112H120.637ZM124.673 97.112V98H121.285V92.216H122.361V97.112H124.673Z" fill="black"/>
<path d="M3.5 82H131.5V81H3.5V82ZM134 84.5V104.5H135V84.5H134ZM131.5 107H3.5V108H131.5V107ZM1 104.5V84.5H0V104.5H1ZM3.5 107C2.11929 107 1 105.881 1 104.5H0C0 106.433 1.567 108 3.5 108V107ZM134 104.5C134 105.881 132.881 107 131.5 107V108C133.433 108 135 106.433 135 104.5H134ZM131.5 82C132.881 82 134 83.1193 134 84.5H135C135 82.567 133.433 81 131.5 81V82ZM3.5 81C1.567 81 0 82.567 0 84.5H1C1 83.1193 2.11929 82 3.5 82V81Z" fill="#535353"/>
<defs>
<linearGradient id="paint0_linear" x1="50.5" y1="2.5" x2="50.5" y2="24.5" gradientUnits="userSpaceOnUse">
<stop offset="0.0520833" stop-color="#D9D9D9"/>
<stop offset="0.0521833" stop-color="#8E8E8E"/>
<stop offset="0.963542" stop-color="#858585"/>
<stop offset="0.984375" stop-color="#535353"/>
</linearGradient>
<linearGradient id="paint1_linear" x1="50.5" y1="2.5" x2="50.5" y2="24.5" gradientUnits="userSpaceOnUse">
<stop offset="0.0520833" stop-color="#D9D9D9"/>
<stop offset="0.0521833" stop-color="#8E8E8E"/>
<stop offset="0.963542" stop-color="#858585"/>
<stop offset="0.984375" stop-color="#535353"/>
</linearGradient>
<linearGradient id="paint2_linear" x1="84.5" y1="2.5" x2="84.5" y2="24.5" gradientUnits="userSpaceOnUse">
<stop offset="0.0520833" stop-color="#D9D9D9"/>
<stop offset="0.0521833" stop-color="#8E8E8E"/>
<stop offset="0.963542" stop-color="#858585"/>
<stop offset="0.984375" stop-color="#535353"/>
</linearGradient>
<linearGradient id="paint3_linear" x1="84.5" y1="2.5" x2="84.5" y2="24.5" gradientUnits="userSpaceOnUse">
<stop offset="0.0520833" stop-color="#D9D9D9"/>
<stop offset="0.0521833" stop-color="#8E8E8E"/>
<stop offset="0.963542" stop-color="#858585"/>
<stop offset="0.984375" stop-color="#535353"/>
</linearGradient>
<linearGradient id="paint4_linear" x1="118" y1="2.5" x2="118" y2="24.5" gradientUnits="userSpaceOnUse">
<stop offset="0.0520833" stop-color="#D9D9D9"/>
<stop offset="0.0521833" stop-color="#8E8E8E"/>
<stop offset="0.963542" stop-color="#858585"/>
<stop offset="0.984375" stop-color="#535353"/>
</linearGradient>
<linearGradient id="paint5_linear" x1="118" y1="2.5" x2="118" y2="24.5" gradientUnits="userSpaceOnUse">
<stop offset="0.0520833" stop-color="#D9D9D9"/>
<stop offset="0.0521833" stop-color="#8E8E8E"/>
<stop offset="0.963542" stop-color="#858585"/>
<stop offset="0.984375" stop-color="#535353"/>
</linearGradient>
<linearGradient id="paint6_linear" x1="17" y1="2.5" x2="17" y2="24.5" gradientUnits="userSpaceOnUse">
<stop stop-color="#D57A00"/>
<stop offset="0.145833" stop-color="#FF9300"/>
<stop offset="0.463542" stop-color="#FF9300"/>
<stop offset="0.776042" stop-color="#FFA632"/>
</linearGradient>
<linearGradient id="paint7_linear" x1="17" y1="2.5" x2="17" y2="24.5" gradientUnits="userSpaceOnUse">
<stop offset="0.00520833" stop-color="#BA6B00"/>
<stop offset="0.317708" stop-color="#FF9300"/>
<stop offset="0.46875" stop-color="#EA8700"/>
<stop offset="0.729167" stop-color="#FF9300"/>
<stop offset="1" stop-color="#FFDCAD"/>
</linearGradient>
<linearGradient id="paint8_linear" x1="50.5" y1="2.5" x2="50.5" y2="24.5" gradientUnits="userSpaceOnUse">
<stop offset="0.0520833" stop-color="#D9D9D9"/>
<stop offset="0.0521833" stop-color="#8E8E8E"/>
<stop offset="0.963542" stop-color="#858585"/>
<stop offset="0.984375" stop-color="#535353"/>
</linearGradient>
<linearGradient id="paint9_linear" x1="50.5" y1="2.5" x2="50.5" y2="24.5" gradientUnits="userSpaceOnUse">
<stop offset="0.0520833" stop-color="#D9D9D9"/>
<stop offset="0.0521833" stop-color="#8E8E8E"/>
<stop offset="0.963542" stop-color="#858585"/>
<stop offset="0.984375" stop-color="#535353"/>
</linearGradient>
<linearGradient id="paint10_linear" x1="84.5" y1="2.5" x2="84.5" y2="24.5" gradientUnits="userSpaceOnUse">
<stop offset="0.0520833" stop-color="#D9D9D9"/>
<stop offset="0.0521833" stop-color="#8E8E8E"/>
<stop offset="0.963542" stop-color="#858585"/>
<stop offset="0.984375" stop-color="#535353"/>
</linearGradient>
<linearGradient id="paint11_linear" x1="84.5" y1="2.5" x2="84.5" y2="24.5" gradientUnits="userSpaceOnUse">
<stop offset="0.0520833" stop-color="#D9D9D9"/>
<stop offset="0.0521833" stop-color="#8E8E8E"/>
<stop offset="0.963542" stop-color="#858585"/>
<stop offset="0.984375" stop-color="#535353"/>
</linearGradient>
<linearGradient id="paint12_linear" x1="118" y1="2.5" x2="118" y2="24.5" gradientUnits="userSpaceOnUse">
<stop offset="0.0520833" stop-color="#D9D9D9"/>
<stop offset="0.0521833" stop-color="#8E8E8E"/>
<stop offset="0.963542" stop-color="#858585"/>
<stop offset="0.984375" stop-color="#535353"/>
</linearGradient>
<linearGradient id="paint13_linear" x1="118" y1="2.5" x2="118" y2="24.5" gradientUnits="userSpaceOnUse">
<stop offset="0.0520833" stop-color="#D9D9D9"/>
<stop offset="0.0521833" stop-color="#8E8E8E"/>
<stop offset="0.963542" stop-color="#858585"/>
<stop offset="0.984375" stop-color="#535353"/>
</linearGradient>
<linearGradient id="paint14_linear" x1="17" y1="29.5" x2="17" y2="51.5" gradientUnits="userSpaceOnUse">
<stop offset="0.0520833" stop-color="#D9D9D9"/>
<stop offset="0.0521833" stop-color="#8E8E8E"/>
<stop offset="0.963542" stop-color="#858585"/>
<stop offset="0.984375" stop-color="#535353"/>
</linearGradient>
<linearGradient id="paint15_linear" x1="17" y1="29.5" x2="17" y2="51.5" gradientUnits="userSpaceOnUse">
<stop offset="0.0520833" stop-color="#D9D9D9"/>
<stop offset="0.0521833" stop-color="#8E8E8E"/>
<stop offset="0.963542" stop-color="#858585"/>
<stop offset="0.984375" stop-color="#535353"/>
</linearGradient>
<linearGradient id="paint16_linear" x1="84.5" y1="29.5" x2="84.5" y2="51.5" gradientUnits="userSpaceOnUse">
<stop offset="0.0520833" stop-color="#D9D9D9"/>
<stop offset="0.0521833" stop-color="#8E8E8E"/>
<stop offset="0.963542" stop-color="#858585"/>
<stop offset="0.984375" stop-color="#535353"/>
</linearGradient>
<linearGradient id="paint17_linear" x1="84.5" y1="29.5" x2="84.5" y2="51.5" gradientUnits="userSpaceOnUse">
<stop offset="0.0520833" stop-color="#D9D9D9"/>
<stop offset="0.0521833" stop-color="#8E8E8E"/>
<stop offset="0.963542" stop-color="#858585"/>
<stop offset="0.984375" stop-color="#535353"/>
</linearGradient>
<linearGradient id="paint18_linear" x1="118" y1="29.5" x2="118" y2="51.5" gradientUnits="userSpaceOnUse">
<stop offset="0.0520833" stop-color="#D9D9D9"/>
<stop offset="0.0521833" stop-color="#8E8E8E"/>
<stop offset="0.963542" stop-color="#858585"/>
<stop offset="0.984375" stop-color="#535353"/>
</linearGradient>
<linearGradient id="paint19_linear" x1="118" y1="29.5" x2="118" y2="51.5" gradientUnits="userSpaceOnUse">
<stop offset="0.0520833" stop-color="#D9D9D9"/>
<stop offset="0.0521833" stop-color="#8E8E8E"/>
<stop offset="0.963542" stop-color="#858585"/>
<stop offset="0.984375" stop-color="#535353"/>
</linearGradient>
<linearGradient id="paint20_linear" x1="17" y1="29.5" x2="17" y2="51.5" gradientUnits="userSpaceOnUse">
<stop offset="0.0520833" stop-color="#D9D9D9"/>
<stop offset="0.0521833" stop-color="#8E8E8E"/>
<stop offset="0.963542" stop-color="#858585"/>
<stop offset="0.984375" stop-color="#535353"/>
</linearGradient>
<linearGradient id="paint21_linear" x1="17" y1="29.5" x2="17" y2="51.5" gradientUnits="userSpaceOnUse">
<stop offset="0.0520833" stop-color="#D9D9D9"/>
<stop offset="0.0521833" stop-color="#8E8E8E"/>
<stop offset="0.963542" stop-color="#858585"/>
<stop offset="0.984375" stop-color="#535353"/>
</linearGradient>
<linearGradient id="paint22_linear" x1="50.5" y1="29.5" x2="50.5" y2="51.5" gradientUnits="userSpaceOnUse">
<stop stop-color="#D57A00"/>
<stop offset="0.145833" stop-color="#FF9300"/>
<stop offset="0.463542" stop-color="#FF9300"/>
<stop offset="0.776042" stop-color="#FFA632"/>
</linearGradient>
<linearGradient id="paint23_linear" x1="50.5" y1="29.5" x2="50.5" y2="51.5" gradientUnits="userSpaceOnUse">
<stop offset="0.00520833" stop-color="#BA6B00"/>
<stop offset="0.317708" stop-color="#FF9300"/>
<stop offset="0.46875" stop-color="#EA8700"/>
<stop offset="0.729167" stop-color="#FF9300"/>
<stop offset="1" stop-color="#FFDCAD"/>
</linearGradient>
<linearGradient id="paint24_linear" x1="84.5" y1="29.5" x2="84.5" y2="51.5" gradientUnits="userSpaceOnUse">
<stop offset="0.0520833" stop-color="#D9D9D9"/>
<stop offset="0.0521833" stop-color="#8E8E8E"/>
<stop offset="0.963542" stop-color="#858585"/>
<stop offset="0.984375" stop-color="#535353"/>
</linearGradient>
<linearGradient id="paint25_linear" x1="84.5" y1="29.5" x2="84.5" y2="51.5" gradientUnits="userSpaceOnUse">
<stop offset="0.0520833" stop-color="#D9D9D9"/>
<stop offset="0.0521833" stop-color="#8E8E8E"/>
<stop offset="0.963542" stop-color="#858585"/>
<stop offset="0.984375" stop-color="#535353"/>
</linearGradient>
<linearGradient id="paint26_linear" x1="118" y1="29.5" x2="118" y2="51.5" gradientUnits="userSpaceOnUse">
<stop offset="0.0520833" stop-color="#D9D9D9"/>
<stop offset="0.0521833" stop-color="#8E8E8E"/>
<stop offset="0.963542" stop-color="#858585"/>
<stop offset="0.984375" stop-color="#535353"/>
</linearGradient>
<linearGradient id="paint27_linear" x1="118" y1="29.5" x2="118" y2="51.5" gradientUnits="userSpaceOnUse">
<stop offset="0.0520833" stop-color="#D9D9D9"/>
<stop offset="0.0521833" stop-color="#8E8E8E"/>
<stop offset="0.963542" stop-color="#858585"/>
<stop offset="0.984375" stop-color="#535353"/>
</linearGradient>
<linearGradient id="paint28_linear" x1="17" y1="56.5" x2="17" y2="78.5" gradientUnits="userSpaceOnUse">
<stop offset="0.0520833" stop-color="#D9D9D9"/>
<stop offset="0.0521833" stop-color="#8E8E8E"/>
<stop offset="0.963542" stop-color="#858585"/>
<stop offset="0.984375" stop-color="#535353"/>
</linearGradient>
<linearGradient id="paint29_linear" x1="17" y1="56.5" x2="17" y2="78.5" gradientUnits="userSpaceOnUse">
<stop offset="0.0520833" stop-color="#D9D9D9"/>
<stop offset="0.0521833" stop-color="#8E8E8E"/>
<stop offset="0.963542" stop-color="#858585"/>
<stop offset="0.984375" stop-color="#535353"/>
</linearGradient>
<linearGradient id="paint30_linear" x1="50.5" y1="56.5" x2="50.5" y2="78.5" gradientUnits="userSpaceOnUse">
<stop offset="0.0520833" stop-color="#D9D9D9"/>
<stop offset="0.0521833" stop-color="#8E8E8E"/>
<stop offset="0.963542" stop-color="#858585"/>
<stop offset="0.984375" stop-color="#535353"/>
</linearGradient>
<linearGradient id="paint31_linear" x1="50.5" y1="56.5" x2="50.5" y2="78.5" gradientUnits="userSpaceOnUse">
<stop offset="0.0520833" stop-color="#D9D9D9"/>
<stop offset="0.0521833" stop-color="#8E8E8E"/>
<stop offset="0.963542" stop-color="#858585"/>
<stop offset="0.984375" stop-color="#535353"/>
</linearGradient>
<linearGradient id="paint32_linear" x1="118" y1="56.5" x2="118" y2="78.5" gradientUnits="userSpaceOnUse">
<stop offset="0.0520833" stop-color="#D9D9D9"/>
<stop offset="0.0521833" stop-color="#8E8E8E"/>
<stop offset="0.963542" stop-color="#858585"/>
<stop offset="0.984375" stop-color="#535353"/>
</linearGradient>
<linearGradient id="paint33_linear" x1="118" y1="56.5" x2="118" y2="78.5" gradientUnits="userSpaceOnUse">
<stop offset="0.0520833" stop-color="#D9D9D9"/>
<stop offset="0.0521833" stop-color="#8E8E8E"/>
<stop offset="0.963542" stop-color="#858585"/>
<stop offset="0.984375" stop-color="#535353"/>
</linearGradient>
<linearGradient id="paint34_linear" x1="17" y1="56.5" x2="17" y2="78.5" gradientUnits="userSpaceOnUse">
<stop offset="0.0520833" stop-color="#D9D9D9"/>
<stop offset="0.0521833" stop-color="#8E8E8E"/>
<stop offset="0.963542" stop-color="#858585"/>
<stop offset="0.984375" stop-color="#535353"/>
</linearGradient>
<linearGradient id="paint35_linear" x1="17" y1="56.5" x2="17" y2="78.5" gradientUnits="userSpaceOnUse">
<stop offset="0.0520833" stop-color="#D9D9D9"/>
<stop offset="0.0521833" stop-color="#8E8E8E"/>
<stop offset="0.963542" stop-color="#858585"/>
<stop offset="0.984375" stop-color="#535353"/>
</linearGradient>
<linearGradient id="paint36_linear" x1="50.5" y1="56.5" x2="50.5" y2="78.5" gradientUnits="userSpaceOnUse">
<stop offset="0.0520833" stop-color="#D9D9D9"/>
<stop offset="0.0521833" stop-color="#8E8E8E"/>
<stop offset="0.963542" stop-color="#858585"/>
<stop offset="0.984375" stop-color="#535353"/>
</linearGradient>
<linearGradient id="paint37_linear" x1="50.5" y1="56.5" x2="50.5" y2="78.5" gradientUnits="userSpaceOnUse">
<stop offset="0.0520833" stop-color="#D9D9D9"/>
<stop offset="0.0521833" stop-color="#8E8E8E"/>
<stop offset="0.963542" stop-color="#858585"/>
<stop offset="0.984375" stop-color="#535353"/>
</linearGradient>
<linearGradient id="paint38_linear" x1="84.5" y1="56.5" x2="84.5" y2="78.5" gradientUnits="userSpaceOnUse">
<stop stop-color="#D57A00"/>
<stop offset="0.145833" stop-color="#FF9300"/>
<stop offset="0.463542" stop-color="#FF9300"/>
<stop offset="0.776042" stop-color="#FFA632"/>
</linearGradient>
<linearGradient id="paint39_linear" x1="84.5" y1="56.5" x2="84.5" y2="78.5" gradientUnits="userSpaceOnUse">
<stop offset="0.00520833" stop-color="#BA6B00"/>
<stop offset="0.317708" stop-color="#FF9300"/>
<stop offset="0.46875" stop-color="#EA8700"/>
<stop offset="0.729167" stop-color="#FF9300"/>
<stop offset="1" stop-color="#FFDCAD"/>
</linearGradient>
<linearGradient id="paint40_linear" x1="118" y1="56.5" x2="118" y2="78.5" gradientUnits="userSpaceOnUse">
<stop offset="0.0520833" stop-color="#D9D9D9"/>
<stop offset="0.0521833" stop-color="#8E8E8E"/>
<stop offset="0.963542" stop-color="#858585"/>
<stop offset="0.984375" stop-color="#535353"/>
</linearGradient>
<linearGradient id="paint41_linear" x1="118" y1="56.5" x2="118" y2="78.5" gradientUnits="userSpaceOnUse">
<stop offset="0.0520833" stop-color="#D9D9D9"/>
<stop offset="0.0521833" stop-color="#8E8E8E"/>
<stop offset="0.963542" stop-color="#858585"/>
<stop offset="0.984375" stop-color="#535353"/>
</linearGradient>
<linearGradient id="paint42_linear" x1="17" y1="83.5" x2="17" y2="105.5" gradientUnits="userSpaceOnUse">
<stop offset="0.0520833" stop-color="#D9D9D9"/>
<stop offset="0.0521833" stop-color="#8E8E8E"/>
<stop offset="0.963542" stop-color="#858585"/>
<stop offset="0.984375" stop-color="#535353"/>
</linearGradient>
<linearGradient id="paint43_linear" x1="17" y1="83.5" x2="17" y2="105.5" gradientUnits="userSpaceOnUse">
<stop offset="0.0520833" stop-color="#D9D9D9"/>
<stop offset="0.0521833" stop-color="#8E8E8E"/>
<stop offset="0.963542" stop-color="#858585"/>
<stop offset="0.984375" stop-color="#535353"/>
</linearGradient>
<linearGradient id="paint44_linear" x1="50.5" y1="83.5" x2="50.5" y2="105.5" gradientUnits="userSpaceOnUse">
<stop offset="0.0520833" stop-color="#D9D9D9"/>
<stop offset="0.0521833" stop-color="#8E8E8E"/>
<stop offset="0.963542" stop-color="#858585"/>
<stop offset="0.984375" stop-color="#535353"/>
</linearGradient>
<linearGradient id="paint45_linear" x1="50.5" y1="83.5" x2="50.5" y2="105.5" gradientUnits="userSpaceOnUse">
<stop offset="0.0520833" stop-color="#D9D9D9"/>
<stop offset="0.0521833" stop-color="#8E8E8E"/>
<stop offset="0.963542" stop-color="#858585"/>
<stop offset="0.984375" stop-color="#535353"/>
</linearGradient>
<linearGradient id="paint46_linear" x1="84.5" y1="83.5" x2="84.5" y2="105.5" gradientUnits="userSpaceOnUse">
<stop offset="0.0520833" stop-color="#D9D9D9"/>
<stop offset="0.0521833" stop-color="#8E8E8E"/>
<stop offset="0.963542" stop-color="#858585"/>
<stop offset="0.984375" stop-color="#535353"/>
</linearGradient>
<linearGradient id="paint47_linear" x1="84.5" y1="83.5" x2="84.5" y2="105.5" gradientUnits="userSpaceOnUse">
<stop offset="0.0520833" stop-color="#D9D9D9"/>
<stop offset="0.0521833" stop-color="#8E8E8E"/>
<stop offset="0.963542" stop-color="#858585"/>
<stop offset="0.984375" stop-color="#535353"/>
</linearGradient>
<linearGradient id="paint48_linear" x1="17" y1="83.5" x2="17" y2="105.5" gradientUnits="userSpaceOnUse">
<stop offset="0.0520833" stop-color="#D9D9D9"/>
<stop offset="0.0521833" stop-color="#8E8E8E"/>
<stop offset="0.963542" stop-color="#858585"/>
<stop offset="0.984375" stop-color="#535353"/>
</linearGradient>
<linearGradient id="paint49_linear" x1="17" y1="83.5" x2="17" y2="105.5" gradientUnits="userSpaceOnUse">
<stop offset="0.0520833" stop-color="#D9D9D9"/>
<stop offset="0.0521833" stop-color="#8E8E8E"/>
<stop offset="0.963542" stop-color="#858585"/>
<stop offset="0.984375" stop-color="#535353"/>
</linearGradient>
<linearGradient id="paint50_linear" x1="50.5" y1="83.5" x2="50.5" y2="105.5" gradientUnits="userSpaceOnUse">
<stop offset="0.0520833" stop-color="#D9D9D9"/>
<stop offset="0.0521833" stop-color="#8E8E8E"/>
<stop offset="0.963542" stop-color="#858585"/>
<stop offset="0.984375" stop-color="#535353"/>
</linearGradient>
<linearGradient id="paint51_linear" x1="50.5" y1="83.5" x2="50.5" y2="105.5" gradientUnits="userSpaceOnUse">
<stop offset="0.0520833" stop-color="#D9D9D9"/>
<stop offset="0.0521833" stop-color="#8E8E8E"/>
<stop offset="0.963542" stop-color="#858585"/>
<stop offset="0.984375" stop-color="#535353"/>
</linearGradient>
<linearGradient id="paint52_linear" x1="84.5" y1="83.5" x2="84.5" y2="105.5" gradientUnits="userSpaceOnUse">
<stop offset="0.0520833" stop-color="#D9D9D9"/>
<stop offset="0.0521833" stop-color="#8E8E8E"/>
<stop offset="0.963542" stop-color="#858585"/>
<stop offset="0.984375" stop-color="#535353"/>
</linearGradient>
<linearGradient id="paint53_linear" x1="84.5" y1="83.5" x2="84.5" y2="105.5" gradientUnits="userSpaceOnUse">
<stop offset="0.0520833" stop-color="#D9D9D9"/>
<stop offset="0.0521833" stop-color="#8E8E8E"/>
<stop offset="0.963542" stop-color="#858585"/>
<stop offset="0.984375" stop-color="#535353"/>
</linearGradient>
<linearGradient id="paint54_linear" x1="118" y1="83.5" x2="118" y2="105.5" gradientUnits="userSpaceOnUse">
<stop stop-color="#D57A00"/>
<stop offset="0.145833" stop-color="#FF9300"/>
<stop offset="0.463542" stop-color="#FF9300"/>
<stop offset="0.776042" stop-color="#FFA632"/>
</linearGradient>
<linearGradient id="paint55_linear" x1="118" y1="83.5" x2="118" y2="105.5" gradientUnits="userSpaceOnUse">
<stop offset="0.00520833" stop-color="#BA6B00"/>
<stop offset="0.317708" stop-color="#FF9300"/>
<stop offset="0.46875" stop-color="#EA8700"/>
<stop offset="0.729167" stop-color="#FF9300"/>
<stop offset="1" stop-color="#FFDCAD"/>
</linearGradient>
</defs>
</svg>
