<svg width="51" height="28" viewBox="0 0 51 28" fill="none" xmlns="http://www.w3.org/2000/svg">
<rect x="1.5" y="1.5" width="48" height="11" rx="2" fill="url(#paint0_linear)" stroke="url(#paint1_linear)"/>
<path d="M10.6433 9.2405C10.8253 9.2405 10.9875 9.21017 11.1298 9.1495C11.2745 9.08883 11.3958 9.00367 11.4938 8.894C11.5918 8.78433 11.6665 8.65133 11.7178 8.495C11.7715 8.33867 11.7983 8.16367 11.7983 7.97V4.939H12.7398V7.97C12.7398 8.271 12.6908 8.54983 12.5928 8.8065C12.4971 9.06083 12.3583 9.28133 12.1763 9.468C11.9966 9.65233 11.7773 9.797 11.5183 9.902C11.2593 10.0047 10.9676 10.056 10.6433 10.056C10.3166 10.056 10.0238 10.0047 9.76479 9.902C9.50579 9.797 9.28529 9.65233 9.10329 9.468C8.92363 9.28133 8.78479 9.06083 8.68679 8.8065C8.59113 8.54983 8.54329 8.271 8.54329 7.97V4.939H9.48479V7.9665C9.48479 8.16017 9.51046 8.33517 9.56179 8.4915C9.61546 8.64783 9.69129 8.782 9.78929 8.894C9.88963 9.00367 10.011 9.08883 10.1533 9.1495C10.298 9.21017 10.4613 9.2405 10.6433 9.2405ZM17.9631 4.939V10H17.4801C17.4054 10 17.3424 9.98833 17.2911 9.965C17.2421 9.93933 17.1943 9.89733 17.1476 9.839L14.5051 6.465C14.5191 6.619 14.5261 6.76133 14.5261 6.892V10H13.6966V4.939H14.1901C14.2298 4.939 14.2636 4.94133 14.2916 4.946C14.3219 4.94833 14.3476 4.95533 14.3686 4.967C14.3919 4.97633 14.4141 4.9915 14.4351 5.0125C14.4561 5.03117 14.4794 5.05683 14.5051 5.0895L17.1581 8.4775C17.1511 8.39583 17.1453 8.31533 17.1406 8.236C17.1359 8.15667 17.1336 8.08317 17.1336 8.0155V4.939H17.9631ZM19.9302 10H18.9852V4.939H19.9302V10ZM22.6033 7.4835C22.776 7.4835 22.9265 7.4625 23.0548 7.4205C23.1831 7.37617 23.2893 7.31433 23.3733 7.235C23.4596 7.15333 23.5238 7.05533 23.5658 6.941C23.6078 6.82433 23.6288 6.69483 23.6288 6.5525C23.6288 6.41717 23.6078 6.29467 23.5658 6.185C23.5238 6.07533 23.4608 5.982 23.3768 5.905C23.2928 5.828 23.1866 5.76967 23.0583 5.73C22.93 5.688 22.7783 5.667 22.6033 5.667H21.8998V7.4835H22.6033ZM22.6033 4.939C22.9416 4.939 23.2345 4.97867 23.4818 5.058C23.7291 5.13733 23.9333 5.24817 24.0943 5.3905C24.2553 5.53283 24.3743 5.70317 24.4513 5.9015C24.5306 6.09983 24.5703 6.31683 24.5703 6.5525C24.5703 6.7975 24.5295 7.02267 24.4478 7.228C24.3661 7.431 24.2436 7.606 24.0803 7.753C23.917 7.9 23.7116 8.01433 23.4643 8.096C23.2193 8.17767 22.9323 8.2185 22.6033 8.2185H21.8998V10H20.9583V4.939H22.6033ZM30.0138 7.4695C30.0138 7.8405 29.9519 8.18467 29.8283 8.502C29.7069 8.817 29.5343 9.09 29.3103 9.321C29.0863 9.552 28.8168 9.73283 28.5018 9.8635C28.1868 9.99183 27.8368 10.056 27.4518 10.056C27.0691 10.056 26.7203 9.99183 26.4053 9.8635C26.0903 9.73283 25.8196 9.552 25.5933 9.321C25.3693 9.09 25.1954 8.817 25.0718 8.502C24.9481 8.18467 24.8863 7.8405 24.8863 7.4695C24.8863 7.0985 24.9481 6.7555 25.0718 6.4405C25.1954 6.12317 25.3693 5.849 25.5933 5.618C25.8196 5.387 26.0903 5.20733 26.4053 5.079C26.7203 4.94833 27.0691 4.883 27.4518 4.883C27.7084 4.883 27.9499 4.91333 28.1763 4.974C28.4026 5.03233 28.6103 5.11633 28.7993 5.226C28.9883 5.33333 29.1574 5.46517 29.3068 5.6215C29.4584 5.7755 29.5868 5.94817 29.6918 6.1395C29.7968 6.33083 29.8761 6.5385 29.9298 6.7625C29.9858 6.9865 30.0138 7.22217 30.0138 7.4695ZM29.0513 7.4695C29.0513 7.19183 29.0139 6.94333 28.9393 6.724C28.8646 6.50233 28.7584 6.3145 28.6208 6.1605C28.4831 6.0065 28.3151 5.88867 28.1168 5.807C27.9208 5.72533 27.6991 5.6845 27.4518 5.6845C27.2044 5.6845 26.9816 5.72533 26.7833 5.807C26.5873 5.88867 26.4193 6.0065 26.2793 6.1605C26.1416 6.3145 26.0354 6.50233 25.9608 6.724C25.8861 6.94333 25.8488 7.19183 25.8488 7.4695C25.8488 7.74717 25.8861 7.99683 25.9608 8.2185C26.0354 8.43783 26.1416 8.6245 26.2793 8.7785C26.4193 8.93017 26.5873 9.04683 26.7833 9.1285C26.9816 9.21017 27.2044 9.251 27.4518 9.251C27.6991 9.251 27.9208 9.21017 28.1168 9.1285C28.3151 9.04683 28.4831 8.93017 28.6208 8.7785C28.7584 8.6245 28.8646 8.43783 28.9393 8.2185C29.0139 7.99683 29.0513 7.74717 29.0513 7.4695ZM33.7001 9.223V10H30.7356V4.939H31.6771V9.223H33.7001ZM36.9413 8.089L36.3253 6.4055C36.295 6.33083 36.2635 6.24217 36.2308 6.1395C36.1981 6.03683 36.1655 5.926 36.1328 5.807C36.1025 5.926 36.071 6.038 36.0383 6.143C36.0056 6.24567 35.9741 6.3355 35.9438 6.4125L35.3313 8.089H36.9413ZM38.6038 10H37.8758C37.7941 10 37.7276 9.98017 37.6763 9.9405C37.625 9.8985 37.5865 9.84717 37.5608 9.7865L37.1828 8.754H35.0863L34.7083 9.7865C34.6896 9.84017 34.6535 9.88917 34.5998 9.9335C34.5461 9.97783 34.4796 10 34.4003 10H33.6653L35.6568 4.939H36.6158L38.6038 10ZM40.5522 7.347C40.7295 7.347 40.8835 7.32483 41.0142 7.2805C41.1472 7.23617 41.2557 7.1755 41.3397 7.0985C41.426 7.01917 41.4902 6.92583 41.5322 6.8185C41.5742 6.71117 41.5952 6.59333 41.5952 6.465C41.5952 6.20833 41.51 6.01117 41.3397 5.8735C41.1717 5.73583 40.9138 5.667 40.5662 5.667H39.9642V7.347H40.5522ZM42.9742 10H42.1237C41.9627 10 41.846 9.937 41.7737 9.811L40.7097 8.1905C40.67 8.12983 40.6257 8.08667 40.5767 8.061C40.53 8.03533 40.46 8.0225 40.3667 8.0225H39.9642V10H39.0227V4.939H40.5662C40.9092 4.939 41.2032 4.97517 41.4482 5.0475C41.6955 5.1175 41.8973 5.21667 42.0537 5.345C42.2123 5.47333 42.329 5.62733 42.4037 5.807C42.4783 5.98433 42.5157 6.18033 42.5157 6.395C42.5157 6.56533 42.49 6.72633 42.4387 6.878C42.3897 7.02967 42.3173 7.16733 42.2217 7.291C42.1283 7.41467 42.0117 7.52317 41.8717 7.6165C41.734 7.70983 41.5765 7.78333 41.3992 7.837C41.4598 7.872 41.5158 7.914 41.5672 7.963C41.6185 8.00967 41.6652 8.06567 41.7072 8.131L42.9742 10Z" fill="black"/>
<path d="M0.5 17.5C0.5 15.8431 1.84315 14.5 3.5 14.5H47.5C49.1569 14.5 50.5 15.8431 50.5 17.5V24.5C50.5 26.1569 49.1569 27.5 47.5 27.5H3.5C1.84315 27.5 0.5 26.1569 0.5 24.5V17.5Z" fill="#787878"/>
<rect x="2" y="16" width="47" height="10" rx="1.5" fill="url(#paint2_linear)"/>
<rect x="2" y="16" width="47" height="10" rx="1.5" stroke="url(#paint3_linear)"/>
<path d="M10.6433 23.2405C10.8253 23.2405 10.9875 23.2102 11.1298 23.1495C11.2745 23.0888 11.3958 23.0037 11.4938 22.894C11.5918 22.7843 11.6665 22.6513 11.7178 22.495C11.7715 22.3387 11.7983 22.1637 11.7983 21.97V18.939H12.7398V21.97C12.7398 22.271 12.6908 22.5498 12.5928 22.8065C12.4971 23.0608 12.3583 23.2813 12.1763 23.468C11.9966 23.6523 11.7773 23.797 11.5183 23.902C11.2593 24.0047 10.9676 24.056 10.6433 24.056C10.3166 24.056 10.0238 24.0047 9.76479 23.902C9.50579 23.797 9.28529 23.6523 9.10329 23.468C8.92363 23.2813 8.78479 23.0608 8.68679 22.8065C8.59113 22.5498 8.54329 22.271 8.54329 21.97V18.939H9.48479V21.9665C9.48479 22.1602 9.51046 22.3352 9.56179 22.4915C9.61546 22.6478 9.69129 22.782 9.78929 22.894C9.88963 23.0037 10.011 23.0888 10.1533 23.1495C10.298 23.2102 10.4613 23.2405 10.6433 23.2405ZM17.9631 18.939V24H17.4801C17.4054 24 17.3424 23.9883 17.2911 23.965C17.2421 23.9393 17.1943 23.8973 17.1476 23.839L14.5051 20.465C14.5191 20.619 14.5261 20.7613 14.5261 20.892V24H13.6966V18.939H14.1901C14.2298 18.939 14.2636 18.9413 14.2916 18.946C14.3219 18.9483 14.3476 18.9553 14.3686 18.967C14.3919 18.9763 14.4141 18.9915 14.4351 19.0125C14.4561 19.0312 14.4794 19.0568 14.5051 19.0895L17.1581 22.4775C17.1511 22.3958 17.1453 22.3153 17.1406 22.236C17.1359 22.1567 17.1336 22.0832 17.1336 22.0155V18.939H17.9631ZM19.9302 24H18.9852V18.939H19.9302V24ZM22.6033 21.4835C22.776 21.4835 22.9265 21.4625 23.0548 21.4205C23.1831 21.3762 23.2893 21.3143 23.3733 21.235C23.4596 21.1533 23.5238 21.0553 23.5658 20.941C23.6078 20.8243 23.6288 20.6948 23.6288 20.5525C23.6288 20.4172 23.6078 20.2947 23.5658 20.185C23.5238 20.0753 23.4608 19.982 23.3768 19.905C23.2928 19.828 23.1866 19.7697 23.0583 19.73C22.93 19.688 22.7783 19.667 22.6033 19.667H21.8998V21.4835H22.6033ZM22.6033 18.939C22.9416 18.939 23.2345 18.9787 23.4818 19.058C23.7291 19.1373 23.9333 19.2482 24.0943 19.3905C24.2553 19.5328 24.3743 19.7032 24.4513 19.9015C24.5306 20.0998 24.5703 20.3168 24.5703 20.5525C24.5703 20.7975 24.5295 21.0227 24.4478 21.228C24.3661 21.431 24.2436 21.606 24.0803 21.753C23.917 21.9 23.7116 22.0143 23.4643 22.096C23.2193 22.1777 22.9323 22.2185 22.6033 22.2185H21.8998V24H20.9583V18.939H22.6033ZM30.0138 21.4695C30.0138 21.8405 29.9519 22.1847 29.8283 22.502C29.7069 22.817 29.5343 23.09 29.3103 23.321C29.0863 23.552 28.8168 23.7328 28.5018 23.8635C28.1868 23.9918 27.8368 24.056 27.4518 24.056C27.0691 24.056 26.7203 23.9918 26.4053 23.8635C26.0903 23.7328 25.8196 23.552 25.5933 23.321C25.3693 23.09 25.1954 22.817 25.0718 22.502C24.9481 22.1847 24.8863 21.8405 24.8863 21.4695C24.8863 21.0985 24.9481 20.7555 25.0718 20.4405C25.1954 20.1232 25.3693 19.849 25.5933 19.618C25.8196 19.387 26.0903 19.2073 26.4053 19.079C26.7203 18.9483 27.0691 18.883 27.4518 18.883C27.7084 18.883 27.9499 18.9133 28.1763 18.974C28.4026 19.0323 28.6103 19.1163 28.7993 19.226C28.9883 19.3333 29.1574 19.4652 29.3068 19.6215C29.4584 19.7755 29.5868 19.9482 29.6918 20.1395C29.7968 20.3308 29.8761 20.5385 29.9298 20.7625C29.9858 20.9865 30.0138 21.2222 30.0138 21.4695ZM29.0513 21.4695C29.0513 21.1918 29.0139 20.9433 28.9393 20.724C28.8646 20.5023 28.7584 20.3145 28.6208 20.1605C28.4831 20.0065 28.3151 19.8887 28.1168 19.807C27.9208 19.7253 27.6991 19.6845 27.4518 19.6845C27.2044 19.6845 26.9816 19.7253 26.7833 19.807C26.5873 19.8887 26.4193 20.0065 26.2793 20.1605C26.1416 20.3145 26.0354 20.5023 25.9608 20.724C25.8861 20.9433 25.8488 21.1918 25.8488 21.4695C25.8488 21.7472 25.8861 21.9968 25.9608 22.2185C26.0354 22.4378 26.1416 22.6245 26.2793 22.7785C26.4193 22.9302 26.5873 23.0468 26.7833 23.1285C26.9816 23.2102 27.2044 23.251 27.4518 23.251C27.6991 23.251 27.9208 23.2102 28.1168 23.1285C28.3151 23.0468 28.4831 22.9302 28.6208 22.7785C28.7584 22.6245 28.8646 22.4378 28.9393 22.2185C29.0139 21.9968 29.0513 21.7472 29.0513 21.4695ZM33.7001 23.223V24H30.7356V18.939H31.6771V23.223H33.7001ZM36.9413 22.089L36.3253 20.4055C36.295 20.3308 36.2635 20.2422 36.2308 20.1395C36.1981 20.0368 36.1655 19.926 36.1328 19.807C36.1025 19.926 36.071 20.038 36.0383 20.143C36.0056 20.2457 35.9741 20.3355 35.9438 20.4125L35.3313 22.089H36.9413ZM38.6038 24H37.8758C37.7941 24 37.7276 23.9802 37.6763 23.9405C37.625 23.8985 37.5865 23.8472 37.5608 23.7865L37.1828 22.754H35.0863L34.7083 23.7865C34.6896 23.8402 34.6535 23.8892 34.5998 23.9335C34.5461 23.9778 34.4796 24 34.4003 24H33.6653L35.6568 18.939H36.6158L38.6038 24ZM40.5522 21.347C40.7295 21.347 40.8835 21.3248 41.0142 21.2805C41.1472 21.2362 41.2557 21.1755 41.3397 21.0985C41.426 21.0192 41.4902 20.9258 41.5322 20.8185C41.5742 20.7112 41.5952 20.5933 41.5952 20.465C41.5952 20.2083 41.51 20.0112 41.3397 19.8735C41.1717 19.7358 40.9138 19.667 40.5662 19.667H39.9642V21.347H40.5522ZM42.9742 24H42.1237C41.9627 24 41.846 23.937 41.7737 23.811L40.7097 22.1905C40.67 22.1298 40.6257 22.0867 40.5767 22.061C40.53 22.0353 40.46 22.0225 40.3667 22.0225H39.9642V24H39.0227V18.939H40.5662C40.9092 18.939 41.2032 18.9752 41.4482 19.0475C41.6955 19.1175 41.8973 19.2167 42.0537 19.345C42.2123 19.4733 42.329 19.6273 42.4037 19.807C42.4783 19.9843 42.5157 20.1803 42.5157 20.395C42.5157 20.5653 42.49 20.7263 42.4387 20.878C42.3897 21.0297 42.3173 21.1673 42.2217 21.291C42.1283 21.4147 42.0117 21.5232 41.8717 21.6165C41.734 21.7098 41.5765 21.7833 41.3992 21.837C41.4598 21.872 41.5158 21.914 41.5672 21.963C41.6185 22.0097 41.6652 22.0657 41.7072 22.131L42.9742 24Z" fill="black"/>
<path d="M3.5 15H47.5V14H3.5V15ZM50 17.5V24.5H51V17.5H50ZM47.5 27H3.5V28H47.5V27ZM1 24.5V17.5H0V24.5H1ZM3.5 27C2.11929 27 1 25.8807 1 24.5H0C0 26.433 1.567 28 3.5 28V27ZM50 24.5C50 25.8807 48.8807 27 47.5 27V28C49.433 28 51 26.433 51 24.5H50ZM47.5 15C48.8807 15 50 16.1193 50 17.5H51C51 15.567 49.433 14 47.5 14V15ZM3.5 14C1.567 14 0 15.567 0 17.5H1C1 16.1193 2.11929 15 3.5 15V14Z" fill="url(#paint4_linear)"/>
<path d="M3.5 1H47.5V0H3.5V1ZM50 3.5V10.5H51V3.5H50ZM47.5 13H3.5V14H47.5V13ZM1 10.5V3.5H0V10.5H1ZM3.5 13C2.11929 13 1 11.8807 1 10.5H0C0 12.433 1.567 14 3.5 14V13ZM50 10.5C50 11.8807 48.8807 13 47.5 13V14C49.433 14 51 12.433 51 10.5H50ZM47.5 1C48.8807 1 50 2.11929 50 3.5H51C51 1.567 49.433 0 47.5 0V1ZM3.5 0C1.567 0 0 1.567 0 3.5H1C1 2.11929 2.11929 1 3.5 1V0Z" fill="#595959"/>
<defs>
<linearGradient id="paint0_linear" x1="25.5" y1="2" x2="25.5" y2="12" gradientUnits="userSpaceOnUse">
<stop offset="0.0520833" stop-color="#D9D9D9"/>
<stop offset="0.0521833" stop-color="#8E8E8E"/>
<stop offset="0.963542" stop-color="#858585"/>
<stop offset="0.984375" stop-color="#535353"/>
</linearGradient>
<linearGradient id="paint1_linear" x1="25.5" y1="2" x2="25.5" y2="12" gradientUnits="userSpaceOnUse">
<stop offset="0.0520833" stop-color="#D9D9D9"/>
<stop offset="0.0521833" stop-color="#8E8E8E"/>
<stop offset="0.963542" stop-color="#858585"/>
<stop offset="0.984375" stop-color="#535353"/>
</linearGradient>
<linearGradient id="paint2_linear" x1="25.5" y1="16.5" x2="25.5" y2="25.5" gradientUnits="userSpaceOnUse">
<stop stop-color="#D57A00"/>
<stop offset="0.145833" stop-color="#FF9300"/>
<stop offset="0.463542" stop-color="#FF9300"/>
<stop offset="0.776042" stop-color="#FFA632"/>
</linearGradient>
<linearGradient id="paint3_linear" x1="25.5" y1="16.5" x2="25.5" y2="25.5" gradientUnits="userSpaceOnUse">
<stop offset="0.00520833" stop-color="#BA6B00"/>
<stop offset="0.317708" stop-color="#FF9300"/>
<stop offset="0.46875" stop-color="#EA8700"/>
<stop offset="0.729167" stop-color="#FF9300"/>
<stop offset="1" stop-color="#FFDCAD"/>
</linearGradient>
<linearGradient id="paint4_linear" x1="25.5" y1="14.5" x2="25.5" y2="27.5" gradientUnits="userSpaceOnUse">
<stop offset="0.0520833" stop-color="#D9D9D9"/>
<stop offset="0.0521833" stop-color="#8E8E8E"/>
<stop offset="0.963542" stop-color="#858585"/>
<stop offset="0.984375" stop-color="#535353"/>
</linearGradient>
</defs>
</svg>
