<svg width="135" height="36" viewBox="0 0 135 36" fill="none" xmlns="http://www.w3.org/2000/svg">
<g clip-path="url(#clip0_3_2)">
<path d="M0.5 3.5C0.5 1.84315 1.84315 0.5 3.5 0.5H131.5C133.157 0.5 134.5 1.84315 134.5 3.5V8.5C134.5 10.1569 133.157 11.5 131.5 11.5H3.5C1.84314 11.5 0.5 10.1569 0.5 8.5V3.5Z" fill="#979797"/>
<path d="M43.5 2H3.5C2.67157 2 2 2.67157 2 3.5V8.5C2 9.32843 2.67157 10 3.5 10H43.5C44.3284 10 45 9.32843 45 8.5V3.5C45 2.67157 44.3284 2 43.5 2Z" fill="url(#paint0_linear_3_2)"/>
<path d="M43.5 2H3.5C2.67157 2 2 2.67157 2 3.5V8.5C2 9.32843 2.67157 10 3.5 10H43.5C44.3284 10 45 9.32843 45 8.5V3.5C45 2.67157 44.3284 2 43.5 2Z" stroke="url(#paint1_linear_3_2)"/>
<path d="M18.8794 3.216L17.0834 9H16.1114L14.8474 5.048C14.8127 4.952 14.7807 4.83467 14.7514 4.696C14.7354 4.76267 14.7194 4.82533 14.7034 4.884C14.6874 4.94267 14.67 4.99733 14.6514 5.048L13.3754 9H12.3994L10.6074 3.216H11.5074C11.6007 3.216 11.678 3.23867 11.7394 3.284C11.8034 3.32667 11.846 3.38533 11.8674 3.46L12.8514 6.92C12.8727 7.00533 12.8927 7.09867 12.9114 7.2C12.9327 7.29867 12.954 7.40267 12.9754 7.512C12.9967 7.4 13.0194 7.29467 13.0434 7.196C13.07 7.09733 13.098 7.00533 13.1274 6.92L14.2634 3.46C14.2847 3.39867 14.326 3.34267 14.3874 3.292C14.4514 3.24133 14.5287 3.216 14.6194 3.216H14.9354C15.0287 3.216 15.1047 3.23867 15.1634 3.284C15.222 3.32933 15.266 3.388 15.2954 3.46L16.4274 6.92C16.4834 7.08533 16.534 7.276 16.5794 7.492C16.614 7.28133 16.6527 7.09067 16.6954 6.92L17.6794 3.46C17.6954 3.39333 17.7354 3.336 17.7994 3.288C17.866 3.24 17.9447 3.216 18.0354 3.216H18.8794ZM22.1428 6.816L21.4388 4.892C21.4041 4.80667 21.3681 4.70533 21.3308 4.588C21.2935 4.47067 21.2561 4.344 21.2188 4.208C21.1841 4.344 21.1481 4.472 21.1108 4.592C21.0735 4.70933 21.0375 4.812 21.0028 4.9L20.3028 6.816H22.1428ZM24.0428 9H23.2108C23.1175 9 23.0415 8.97733 22.9828 8.932C22.9241 8.884 22.8801 8.82533 22.8508 8.756L22.4188 7.576H20.0228L19.5908 8.756C19.5695 8.81733 19.5281 8.87333 19.4668 8.924C19.4055 8.97467 19.3295 9 19.2388 9H18.3988L20.6748 3.216H21.7708L24.0428 9ZM26.2695 5.968C26.4722 5.968 26.6482 5.94267 26.7975 5.892C26.9495 5.84133 27.0735 5.772 27.1695 5.684C27.2682 5.59333 27.3415 5.48667 27.3895 5.364C27.4375 5.24133 27.4615 5.10667 27.4615 4.96C27.4615 4.66667 27.3642 4.44133 27.1695 4.284C26.9775 4.12667 26.6828 4.048 26.2855 4.048H25.5975V5.968H26.2695ZM29.0375 9H28.0655C27.8815 9 27.7482 8.928 27.6655 8.784L26.4495 6.932C26.4042 6.86267 26.3535 6.81333 26.2975 6.784C26.2442 6.75467 26.1642 6.74 26.0575 6.74H25.5975V9H24.5215V3.216H26.2855C26.6775 3.216 27.0135 3.25733 27.2935 3.34C27.5762 3.42 27.8068 3.53333 27.9855 3.68C28.1668 3.82667 28.3002 4.00267 28.3855 4.208C28.4708 4.41067 28.5135 4.63467 28.5135 4.88C28.5135 5.07467 28.4842 5.25867 28.4255 5.432C28.3695 5.60533 28.2868 5.76267 28.1775 5.904C28.0708 6.04533 27.9375 6.16933 27.7775 6.276C27.6202 6.38267 27.4402 6.46667 27.2375 6.528C27.3068 6.568 27.3708 6.616 27.4295 6.672C27.4882 6.72533 27.5415 6.78933 27.5895 6.864L29.0375 9ZM35.8141 3.216V9H34.8661V5.264C34.8661 5.11467 34.8741 4.95333 34.8901 4.78L33.1421 8.064C33.0595 8.22133 32.9328 8.3 32.7621 8.3H32.6101C32.4395 8.3 32.3128 8.22133 32.2301 8.064L30.4621 4.768C30.4701 4.856 30.4768 4.94267 30.4821 5.028C30.4875 5.11333 30.4901 5.192 30.4901 5.264V9H29.5421V3.216H30.3541C30.4021 3.216 30.4435 3.21733 30.4781 3.22C30.5128 3.22267 30.5435 3.22933 30.5701 3.24C30.5995 3.25067 30.6248 3.268 30.6461 3.292C30.6701 3.316 30.6928 3.348 30.7141 3.388L32.4461 6.6C32.4915 6.68533 32.5328 6.77333 32.5701 6.864C32.6101 6.95467 32.6488 7.048 32.6861 7.144C32.7235 7.04533 32.7621 6.95067 32.8021 6.86C32.8421 6.76667 32.8848 6.67733 32.9301 6.592L34.6381 3.388C34.6595 3.348 34.6821 3.316 34.7061 3.292C34.7301 3.268 34.7555 3.25067 34.7821 3.24C34.8115 3.22933 34.8435 3.22267 34.8781 3.22C34.9128 3.21733 34.9541 3.216 35.0021 3.216H35.8141Z" fill="black"/>
<g opacity="0.75">
<path d="M45.5 2V10H46.5V2H45.5Z" fill="#535353"/>
</g>
<g opacity="0.75">
<path d="M88.5 2V10H89.5V2H88.5Z" fill="#535353"/>
</g>
<path d="M99.8346 8.16C100.035 8.16 100.203 8.136 100.339 8.088C100.475 8.04 100.583 7.976 100.663 7.896C100.745 7.816 100.804 7.72267 100.839 7.616C100.876 7.50933 100.895 7.396 100.895 7.276C100.895 7.15067 100.875 7.03867 100.835 6.94C100.795 6.83867 100.732 6.75333 100.647 6.684C100.561 6.612 100.451 6.55733 100.315 6.52C100.181 6.48267 100.02 6.464 99.8306 6.464H98.7466V8.16H99.8346ZM98.7466 4.048V5.72H99.6026C99.9706 5.72 100.248 5.65333 100.435 5.52C100.624 5.38667 100.719 5.17467 100.719 4.884C100.719 4.58267 100.633 4.368 100.463 4.24C100.292 4.112 100.025 4.048 99.6626 4.048H98.7466ZM99.6626 3.216C100.041 3.216 100.365 3.252 100.635 3.324C100.904 3.396 101.124 3.49867 101.295 3.632C101.468 3.76533 101.595 3.92667 101.675 4.116C101.755 4.30533 101.795 4.51867 101.795 4.756C101.795 4.892 101.775 5.02267 101.735 5.148C101.695 5.27067 101.632 5.38667 101.547 5.496C101.464 5.60267 101.357 5.7 101.227 5.788C101.099 5.876 100.945 5.95067 100.767 6.012C101.561 6.19067 101.959 6.62 101.959 7.3C101.959 7.54533 101.912 7.772 101.819 7.98C101.725 8.188 101.589 8.368 101.411 8.52C101.232 8.66933 101.012 8.78667 100.751 8.872C100.489 8.95733 100.191 9 99.8546 9H97.6706V3.216H99.6626ZM104.564 5.968C104.767 5.968 104.943 5.94267 105.092 5.892C105.244 5.84133 105.368 5.772 105.464 5.684C105.563 5.59333 105.636 5.48667 105.684 5.364C105.732 5.24133 105.756 5.10667 105.756 4.96C105.756 4.66667 105.659 4.44133 105.464 4.284C105.272 4.12667 104.978 4.048 104.58 4.048H103.892V5.968H104.564ZM107.332 9H106.36C106.176 9 106.043 8.928 105.96 8.784L104.744 6.932C104.699 6.86267 104.648 6.81333 104.592 6.784C104.539 6.75467 104.459 6.74 104.352 6.74H103.892V9H102.816V3.216H104.58C104.972 3.216 105.308 3.25733 105.588 3.34C105.871 3.42 106.102 3.53333 106.28 3.68C106.462 3.82667 106.595 4.00267 106.68 4.208C106.766 4.41067 106.808 4.63467 106.808 4.88C106.808 5.07467 106.779 5.25867 106.72 5.432C106.664 5.60533 106.582 5.76267 106.472 5.904C106.366 6.04533 106.232 6.16933 106.072 6.276C105.915 6.38267 105.735 6.46667 105.532 6.528C105.602 6.568 105.666 6.616 105.724 6.672C105.783 6.72533 105.836 6.78933 105.884 6.864L107.332 9ZM108.917 9H107.837V3.216H108.917V9ZM114.86 6.1V8.44C114.566 8.656 114.253 8.81467 113.92 8.916C113.589 9.01467 113.234 9.064 112.856 9.064C112.384 9.064 111.956 8.99067 111.572 8.844C111.19 8.69733 110.864 8.49333 110.592 8.232C110.322 7.97067 110.114 7.65867 109.968 7.296C109.821 6.93333 109.748 6.53733 109.748 6.108C109.748 5.67333 109.818 5.27467 109.96 4.912C110.101 4.54933 110.301 4.23733 110.56 3.976C110.821 3.71467 111.137 3.512 111.508 3.368C111.878 3.224 112.294 3.152 112.756 3.152C112.99 3.152 113.209 3.17067 113.412 3.208C113.617 3.24533 113.806 3.29733 113.98 3.364C114.156 3.428 114.316 3.50667 114.46 3.6C114.604 3.69333 114.736 3.796 114.856 3.908L114.548 4.396C114.5 4.47333 114.437 4.52133 114.36 4.54C114.282 4.556 114.198 4.536 114.108 4.48C114.02 4.42933 113.932 4.37867 113.844 4.328C113.756 4.27733 113.657 4.23333 113.548 4.196C113.441 4.15867 113.32 4.128 113.184 4.104C113.05 4.08 112.896 4.068 112.72 4.068C112.434 4.068 112.176 4.116 111.944 4.212C111.714 4.308 111.518 4.44533 111.356 4.624C111.193 4.80267 111.068 5.01733 110.98 5.268C110.892 5.51867 110.848 5.79867 110.848 6.108C110.848 6.43867 110.894 6.73467 110.988 6.996C111.084 7.25467 111.217 7.47467 111.388 7.656C111.561 7.83467 111.769 7.972 112.012 8.068C112.254 8.16133 112.525 8.208 112.824 8.208C113.037 8.208 113.228 8.18533 113.396 8.14C113.564 8.09467 113.728 8.03333 113.888 7.956V6.908H113.16C113.09 6.908 113.036 6.88933 112.996 6.852C112.958 6.812 112.94 6.764 112.94 6.708V6.1H114.86ZM120.653 3.216V9H119.572V6.472H116.856V9H115.776V3.216H116.856V5.704H119.572V3.216H120.653ZM125.861 4.1H124.117V9H123.041V4.1H121.297V3.216H125.861V4.1Z" fill="black"/>
<path d="M3.5 1H131.5V0H3.5V1ZM134 3.5V8.5H135V3.5H134ZM131.5 11H3.5V12H131.5V11ZM1 8.5V3.5H0V8.5H1ZM3.5 11C2.11929 11 1 9.88071 1 8.5H0C0 10.433 1.567 12 3.5 12V11ZM134 8.5C134 9.88071 132.881 11 131.5 11V12C133.433 12 135 10.433 135 8.5H134ZM131.5 1C132.881 1 134 2.11929 134 3.5H135C135 1.567 133.433 0 131.5 0V1ZM3.5 0C1.567 0 0 1.567 0 3.5H1C1 2.11929 2.11929 1 3.5 1V0Z" fill="url(#paint2_linear_3_2)"/>
<path d="M0.5 15.5C0.5 13.8431 1.84315 12.5 3.5 12.5H131.5C133.157 12.5 134.5 13.8431 134.5 15.5V20.5C134.5 22.1569 133.157 23.5 131.5 23.5H3.5C1.84314 23.5 0.5 22.1569 0.5 20.5V15.5Z" fill="#979797"/>
<path d="M18.8794 15.216L17.0834 21H16.1114L14.8474 17.048C14.8127 16.952 14.7807 16.8347 14.7514 16.696C14.7354 16.7627 14.7194 16.8253 14.7034 16.884C14.6874 16.9427 14.67 16.9973 14.6514 17.048L13.3754 21H12.3994L10.6074 15.216H11.5074C11.6007 15.216 11.678 15.2387 11.7394 15.284C11.8034 15.3267 11.846 15.3853 11.8674 15.46L12.8514 18.92C12.8727 19.0053 12.8927 19.0987 12.9114 19.2C12.9327 19.2987 12.954 19.4027 12.9754 19.512C12.9967 19.4 13.0194 19.2947 13.0434 19.196C13.07 19.0973 13.098 19.0053 13.1274 18.92L14.2634 15.46C14.2847 15.3987 14.326 15.3427 14.3874 15.292C14.4514 15.2413 14.5287 15.216 14.6194 15.216H14.9354C15.0287 15.216 15.1047 15.2387 15.1634 15.284C15.222 15.3293 15.266 15.388 15.2954 15.46L16.4274 18.92C16.4834 19.0853 16.534 19.276 16.5794 19.492C16.614 19.2813 16.6527 19.0907 16.6954 18.92L17.6794 15.46C17.6954 15.3933 17.7354 15.336 17.7994 15.288C17.866 15.24 17.9447 15.216 18.0354 15.216H18.8794ZM22.1428 18.816L21.4388 16.892C21.4041 16.8067 21.3681 16.7053 21.3308 16.588C21.2935 16.4707 21.2561 16.344 21.2188 16.208C21.1841 16.344 21.1481 16.472 21.1108 16.592C21.0735 16.7093 21.0375 16.812 21.0028 16.9L20.3028 18.816H22.1428ZM24.0428 21H23.2108C23.1175 21 23.0415 20.9773 22.9828 20.932C22.9241 20.884 22.8801 20.8253 22.8508 20.756L22.4188 19.576H20.0228L19.5908 20.756C19.5695 20.8173 19.5281 20.8733 19.4668 20.924C19.4055 20.9747 19.3295 21 19.2388 21H18.3988L20.6748 15.216H21.7708L24.0428 21ZM26.2695 17.968C26.4722 17.968 26.6482 17.9427 26.7975 17.892C26.9495 17.8413 27.0735 17.772 27.1695 17.684C27.2682 17.5933 27.3415 17.4867 27.3895 17.364C27.4375 17.2413 27.4615 17.1067 27.4615 16.96C27.4615 16.6667 27.3642 16.4413 27.1695 16.284C26.9775 16.1267 26.6828 16.048 26.2855 16.048H25.5975V17.968H26.2695ZM29.0375 21H28.0655C27.8815 21 27.7482 20.928 27.6655 20.784L26.4495 18.932C26.4042 18.8627 26.3535 18.8133 26.2975 18.784C26.2442 18.7547 26.1642 18.74 26.0575 18.74H25.5975V21H24.5215V15.216H26.2855C26.6775 15.216 27.0135 15.2573 27.2935 15.34C27.5762 15.42 27.8068 15.5333 27.9855 15.68C28.1668 15.8267 28.3002 16.0027 28.3855 16.208C28.4708 16.4107 28.5135 16.6347 28.5135 16.88C28.5135 17.0747 28.4842 17.2587 28.4255 17.432C28.3695 17.6053 28.2868 17.7627 28.1775 17.904C28.0708 18.0453 27.9375 18.1693 27.7775 18.276C27.6202 18.3827 27.4402 18.4667 27.2375 18.528C27.3068 18.568 27.3708 18.616 27.4295 18.672C27.4882 18.7253 27.5415 18.7893 27.5895 18.864L29.0375 21ZM35.8141 15.216V21H34.8661V17.264C34.8661 17.1147 34.8741 16.9533 34.8901 16.78L33.1421 20.064C33.0595 20.2213 32.9328 20.3 32.7621 20.3H32.6101C32.4395 20.3 32.3128 20.2213 32.2301 20.064L30.4621 16.768C30.4701 16.856 30.4768 16.9427 30.4821 17.028C30.4875 17.1133 30.4901 17.192 30.4901 17.264V21H29.5421V15.216H30.3541C30.4021 15.216 30.4435 15.2173 30.4781 15.22C30.5128 15.2227 30.5435 15.2293 30.5701 15.24C30.5995 15.2507 30.6248 15.268 30.6461 15.292C30.6701 15.316 30.6928 15.348 30.7141 15.388L32.4461 18.6C32.4915 18.6853 32.5328 18.7733 32.5701 18.864C32.6101 18.9547 32.6488 19.048 32.6861 19.144C32.7235 19.0453 32.7621 18.9507 32.8021 18.86C32.8421 18.7667 32.8848 18.6773 32.9301 18.592L34.6381 15.388C34.6595 15.348 34.6821 15.316 34.7061 15.292C34.7301 15.268 34.7555 15.2507 34.7821 15.24C34.8115 15.2293 34.8435 15.2227 34.8781 15.22C34.9128 15.2173 34.9541 15.216 35.0021 15.216H35.8141Z" fill="black"/>
<g opacity="0.75">
<path d="M45.5 14V22H46.5V14H45.5Z" fill="#535353"/>
</g>
<path d="M86.5 14H48.5C47.6716 14 47 14.6716 47 15.5V20.5C47 21.3284 47.6716 22 48.5 22H86.5C87.3284 22 88 21.3284 88 20.5V15.5C88 14.6716 87.3284 14 86.5 14Z" fill="url(#paint3_linear_3_2)"/>
<path d="M54.52 15.216V21H53.968C53.8827 21 53.8107 20.9867 53.752 20.96C53.696 20.9307 53.6413 20.8827 53.588 20.816L50.568 16.96C50.584 17.136 50.592 17.2987 50.592 17.448V21H49.644V15.216H50.208C50.2533 15.216 50.292 15.2187 50.324 15.224C50.3587 15.2267 50.388 15.2347 50.412 15.248C50.4387 15.2587 50.464 15.276 50.488 15.3C50.512 15.3213 50.5387 15.3507 50.568 15.388L53.6 19.26C53.592 19.1667 53.5853 19.0747 53.58 18.984C53.5747 18.8933 53.572 18.8093 53.572 18.732V15.216H54.52ZM56.8881 16.072V17.676H58.9121V18.504H56.8881V20.14H59.4561V21H55.8081V15.216H59.4561V16.072H56.8881ZM62.7376 20.132C62.9456 20.132 63.131 20.0973 63.2936 20.028C63.459 19.9587 63.5976 19.8613 63.7096 19.736C63.8216 19.6107 63.907 19.4587 63.9656 19.28C64.027 19.1013 64.0576 18.9013 64.0576 18.68V15.216H65.1336V18.68C65.1336 19.024 65.0776 19.3427 64.9656 19.636C64.8563 19.9267 64.6976 20.1787 64.4896 20.392C64.2843 20.6027 64.0336 20.768 63.7376 20.888C63.4416 21.0053 63.1083 21.064 62.7376 21.064C62.3643 21.064 62.0296 21.0053 61.7336 20.888C61.4376 20.768 61.1856 20.6027 60.9776 20.392C60.7723 20.1787 60.6136 19.9267 60.5016 19.636C60.3923 19.3427 60.3376 19.024 60.3376 18.68V15.216H61.4136V18.676C61.4136 18.8973 61.443 19.0973 61.5016 19.276C61.563 19.4547 61.6496 19.608 61.7616 19.736C61.8763 19.8613 62.015 19.9587 62.1776 20.028C62.343 20.0973 62.5296 20.132 62.7376 20.132ZM70.3871 16.1H68.6431V21H67.5671V16.1H65.8231V15.216H70.3871V16.1ZM72.892 17.968C73.0947 17.968 73.2707 17.9427 73.42 17.892C73.572 17.8413 73.696 17.772 73.792 17.684C73.8907 17.5933 73.964 17.4867 74.012 17.364C74.06 17.2413 74.084 17.1067 74.084 16.96C74.084 16.6667 73.9867 16.4413 73.792 16.284C73.6 16.1267 73.3053 16.048 72.908 16.048H72.22V17.968H72.892ZM75.66 21H74.688C74.504 21 74.3707 20.928 74.288 20.784L73.072 18.932C73.0267 18.8627 72.976 18.8133 72.92 18.784C72.8667 18.7547 72.7867 18.74 72.68 18.74H72.22V21H71.144V15.216H72.908C73.3 15.216 73.636 15.2573 73.916 15.34C74.1987 15.42 74.4293 15.5333 74.608 15.68C74.7893 15.8267 74.9227 16.0027 75.008 16.208C75.0933 16.4107 75.136 16.6347 75.136 16.88C75.136 17.0747 75.1067 17.2587 75.048 17.432C74.992 17.6053 74.9093 17.7627 74.8 17.904C74.6933 18.0453 74.56 18.1693 74.4 18.276C74.2427 18.3827 74.0627 18.4667 73.86 18.528C73.9293 18.568 73.9933 18.616 74.052 18.672C74.1107 18.7253 74.164 18.7893 74.212 18.864L75.66 21ZM79.3406 18.816L78.6366 16.892C78.602 16.8067 78.566 16.7053 78.5286 16.588C78.4913 16.4707 78.454 16.344 78.4166 16.208C78.382 16.344 78.346 16.472 78.3086 16.592C78.2713 16.7093 78.2353 16.812 78.2006 16.9L77.5006 18.816H79.3406ZM81.2406 21H80.4086C80.3153 21 80.2393 20.9773 80.1806 20.932C80.122 20.884 80.078 20.8253 80.0486 20.756L79.6166 19.576H77.2206L76.7886 20.756C76.7673 20.8173 76.726 20.8733 76.6646 20.924C76.6033 20.9747 76.5273 21 76.4366 21H75.5966L77.8726 15.216H78.9686L81.2406 21ZM85.2273 20.112V21H81.8393V15.216H82.9153V20.112H85.2273Z" fill="black"/>
<path d="M86.5 14H48.5C47.6716 14 47 14.6716 47 15.5V20.5C47 21.3284 47.6716 22 48.5 22H86.5C87.3284 22 88 21.3284 88 20.5V15.5C88 14.6716 87.3284 14 86.5 14Z" stroke="url(#paint4_linear_3_2)"/>
<g opacity="0.75">
<path d="M88.5 14V22H89.5V14H88.5Z" fill="#535353"/>
</g>
<path d="M99.8346 20.16C100.035 20.16 100.203 20.136 100.339 20.088C100.475 20.04 100.583 19.976 100.663 19.896C100.745 19.816 100.804 19.7227 100.839 19.616C100.876 19.5093 100.895 19.396 100.895 19.276C100.895 19.1507 100.875 19.0387 100.835 18.94C100.795 18.8387 100.732 18.7533 100.647 18.684C100.561 18.612 100.451 18.5573 100.315 18.52C100.181 18.4827 100.02 18.464 99.8306 18.464H98.7466V20.16H99.8346ZM98.7466 16.048V17.72H99.6026C99.9706 17.72 100.248 17.6533 100.435 17.52C100.624 17.3867 100.719 17.1747 100.719 16.884C100.719 16.5827 100.633 16.368 100.463 16.24C100.292 16.112 100.025 16.048 99.6626 16.048H98.7466ZM99.6626 15.216C100.041 15.216 100.365 15.252 100.635 15.324C100.904 15.396 101.124 15.4987 101.295 15.632C101.468 15.7653 101.595 15.9267 101.675 16.116C101.755 16.3053 101.795 16.5187 101.795 16.756C101.795 16.892 101.775 17.0227 101.735 17.148C101.695 17.2707 101.632 17.3867 101.547 17.496C101.464 17.6027 101.357 17.7 101.227 17.788C101.099 17.876 100.945 17.9507 100.767 18.012C101.561 18.1907 101.959 18.62 101.959 19.3C101.959 19.5453 101.912 19.772 101.819 19.98C101.725 20.188 101.589 20.368 101.411 20.52C101.232 20.6693 101.012 20.7867 100.751 20.872C100.489 20.9573 100.191 21 99.8546 21H97.6706V15.216H99.6626ZM104.564 17.968C104.767 17.968 104.943 17.9427 105.092 17.892C105.244 17.8413 105.368 17.772 105.464 17.684C105.563 17.5933 105.636 17.4867 105.684 17.364C105.732 17.2413 105.756 17.1067 105.756 16.96C105.756 16.6667 105.659 16.4413 105.464 16.284C105.272 16.1267 104.978 16.048 104.58 16.048H103.892V17.968H104.564ZM107.332 21H106.36C106.176 21 106.043 20.928 105.96 20.784L104.744 18.932C104.699 18.8627 104.648 18.8133 104.592 18.784C104.539 18.7547 104.459 18.74 104.352 18.74H103.892V21H102.816V15.216H104.58C104.972 15.216 105.308 15.2573 105.588 15.34C105.871 15.42 106.102 15.5333 106.28 15.68C106.462 15.8267 106.595 16.0027 106.68 16.208C106.766 16.4107 106.808 16.6347 106.808 16.88C106.808 17.0747 106.779 17.2587 106.72 17.432C106.664 17.6053 106.582 17.7627 106.472 17.904C106.366 18.0453 106.232 18.1693 106.072 18.276C105.915 18.3827 105.735 18.4667 105.532 18.528C105.602 18.568 105.666 18.616 105.724 18.672C105.783 18.7253 105.836 18.7893 105.884 18.864L107.332 21ZM108.917 21H107.837V15.216H108.917V21ZM114.86 18.1V20.44C114.566 20.656 114.253 20.8147 113.92 20.916C113.589 21.0147 113.234 21.064 112.856 21.064C112.384 21.064 111.956 20.9907 111.572 20.844C111.19 20.6973 110.864 20.4933 110.592 20.232C110.322 19.9707 110.114 19.6587 109.968 19.296C109.821 18.9333 109.748 18.5373 109.748 18.108C109.748 17.6733 109.818 17.2747 109.96 16.912C110.101 16.5493 110.301 16.2373 110.56 15.976C110.821 15.7147 111.137 15.512 111.508 15.368C111.878 15.224 112.294 15.152 112.756 15.152C112.99 15.152 113.209 15.1707 113.412 15.208C113.617 15.2453 113.806 15.2973 113.98 15.364C114.156 15.428 114.316 15.5067 114.46 15.6C114.604 15.6933 114.736 15.796 114.856 15.908L114.548 16.396C114.5 16.4733 114.437 16.5213 114.36 16.54C114.282 16.556 114.198 16.536 114.108 16.48C114.02 16.4293 113.932 16.3787 113.844 16.328C113.756 16.2773 113.657 16.2333 113.548 16.196C113.441 16.1587 113.32 16.128 113.184 16.104C113.05 16.08 112.896 16.068 112.72 16.068C112.434 16.068 112.176 16.116 111.944 16.212C111.714 16.308 111.518 16.4453 111.356 16.624C111.193 16.8027 111.068 17.0173 110.98 17.268C110.892 17.5187 110.848 17.7987 110.848 18.108C110.848 18.4387 110.894 18.7347 110.988 18.996C111.084 19.2547 111.217 19.4747 111.388 19.656C111.561 19.8347 111.769 19.972 112.012 20.068C112.254 20.1613 112.525 20.208 112.824 20.208C113.037 20.208 113.228 20.1853 113.396 20.14C113.564 20.0947 113.728 20.0333 113.888 19.956V18.908H113.16C113.09 18.908 113.036 18.8893 112.996 18.852C112.958 18.812 112.94 18.764 112.94 18.708V18.1H114.86ZM120.653 15.216V21H119.572V18.472H116.856V21H115.776V15.216H116.856V17.704H119.572V15.216H120.653ZM125.861 16.1H124.117V21H123.041V16.1H121.297V15.216H125.861V16.1Z" fill="black"/>
<path d="M3.5 13H131.5V12H3.5V13ZM134 15.5V20.5H135V15.5H134ZM131.5 23H3.5V24H131.5V23ZM1 20.5V15.5H0V20.5H1ZM3.5 23C2.11929 23 1 21.8807 1 20.5H0C0 22.433 1.567 24 3.5 24V23ZM134 20.5C134 21.8807 132.881 23 131.5 23V24C133.433 24 135 22.433 135 20.5H134ZM131.5 13C132.881 13 134 14.1193 134 15.5H135C135 13.567 133.433 12 131.5 12V13ZM3.5 12C1.567 12 0 13.567 0 15.5H1C1 14.1193 2.11929 13 3.5 13V12Z" fill="url(#paint5_linear_3_2)"/>
<path d="M0.5 27.5C0.5 25.8431 1.84315 24.5 3.5 24.5H131.5C133.157 24.5 134.5 25.8431 134.5 27.5V32.5C134.5 34.1569 133.157 35.5 131.5 35.5H3.5C1.84314 35.5 0.5 34.1569 0.5 32.5V27.5Z" fill="#979797"/>
<path d="M54.52 27.216V33H53.968C53.8827 33 53.8107 32.9867 53.752 32.96C53.696 32.9307 53.6413 32.8827 53.588 32.816L50.568 28.96C50.584 29.136 50.592 29.2987 50.592 29.448V33H49.644V27.216H50.208C50.2533 27.216 50.292 27.2187 50.324 27.224C50.3587 27.2267 50.388 27.2347 50.412 27.248C50.4387 27.2587 50.464 27.276 50.488 27.3C50.512 27.3213 50.5387 27.3507 50.568 27.388L53.6 31.26C53.592 31.1667 53.5853 31.0747 53.58 30.984C53.5747 30.8933 53.572 30.8093 53.572 30.732V27.216H54.52ZM56.8881 28.072V29.676H58.9121V30.504H56.8881V32.14H59.4561V33H55.8081V27.216H59.4561V28.072H56.8881ZM62.7376 32.132C62.9456 32.132 63.131 32.0973 63.2936 32.028C63.459 31.9587 63.5976 31.8613 63.7096 31.736C63.8216 31.6107 63.907 31.4587 63.9656 31.28C64.027 31.1013 64.0576 30.9013 64.0576 30.68V27.216H65.1336V30.68C65.1336 31.024 65.0776 31.3427 64.9656 31.636C64.8563 31.9267 64.6976 32.1787 64.4896 32.392C64.2843 32.6027 64.0336 32.768 63.7376 32.888C63.4416 33.0053 63.1083 33.064 62.7376 33.064C62.3643 33.064 62.0296 33.0053 61.7336 32.888C61.4376 32.768 61.1856 32.6027 60.9776 32.392C60.7723 32.1787 60.6136 31.9267 60.5016 31.636C60.3923 31.3427 60.3376 31.024 60.3376 30.68V27.216H61.4136V30.676C61.4136 30.8973 61.443 31.0973 61.5016 31.276C61.563 31.4547 61.6496 31.608 61.7616 31.736C61.8763 31.8613 62.015 31.9587 62.1776 32.028C62.343 32.0973 62.5296 32.132 62.7376 32.132ZM70.3871 28.1H68.6431V33H67.5671V28.1H65.8231V27.216H70.3871V28.1ZM72.892 29.968C73.0947 29.968 73.2707 29.9427 73.42 29.892C73.572 29.8413 73.696 29.772 73.792 29.684C73.8907 29.5933 73.964 29.4867 74.012 29.364C74.06 29.2413 74.084 29.1067 74.084 28.96C74.084 28.6667 73.9867 28.4413 73.792 28.284C73.6 28.1267 73.3053 28.048 72.908 28.048H72.22V29.968H72.892ZM75.66 33H74.688C74.504 33 74.3707 32.928 74.288 32.784L73.072 30.932C73.0267 30.8627 72.976 30.8133 72.92 30.784C72.8667 30.7547 72.7867 30.74 72.68 30.74H72.22V33H71.144V27.216H72.908C73.3 27.216 73.636 27.2573 73.916 27.34C74.1987 27.42 74.4293 27.5333 74.608 27.68C74.7893 27.8267 74.9227 28.0027 75.008 28.208C75.0933 28.4107 75.136 28.6347 75.136 28.88C75.136 29.0747 75.1067 29.2587 75.048 29.432C74.992 29.6053 74.9093 29.7627 74.8 29.904C74.6933 30.0453 74.56 30.1693 74.4 30.276C74.2427 30.3827 74.0627 30.4667 73.86 30.528C73.9293 30.568 73.9933 30.616 74.052 30.672C74.1107 30.7253 74.164 30.7893 74.212 30.864L75.66 33ZM79.3406 30.816L78.6366 28.892C78.602 28.8067 78.566 28.7053 78.5286 28.588C78.4913 28.4707 78.454 28.344 78.4166 28.208C78.382 28.344 78.346 28.472 78.3086 28.592C78.2713 28.7093 78.2353 28.812 78.2006 28.9L77.5006 30.816H79.3406ZM81.2406 33H80.4086C80.3153 33 80.2393 32.9773 80.1806 32.932C80.122 32.884 80.078 32.8253 80.0486 32.756L79.6166 31.576H77.2206L76.7886 32.756C76.7673 32.8173 76.726 32.8733 76.6646 32.924C76.6033 32.9747 76.5273 33 76.4366 33H75.5966L77.8726 27.216H78.9686L81.2406 33ZM85.2273 32.112V33H81.8393V27.216H82.9153V32.112H85.2273Z" fill="black"/>
<path d="M18.8794 27.216L17.0834 33H16.1114L14.8474 29.048C14.8127 28.952 14.7807 28.8347 14.7514 28.696C14.7354 28.7627 14.7194 28.8253 14.7034 28.884C14.6874 28.9427 14.67 28.9973 14.6514 29.048L13.3754 33H12.3994L10.6074 27.216H11.5074C11.6007 27.216 11.678 27.2387 11.7394 27.284C11.8034 27.3267 11.846 27.3853 11.8674 27.46L12.8514 30.92C12.8727 31.0053 12.8927 31.0987 12.9114 31.2C12.9327 31.2987 12.954 31.4027 12.9754 31.512C12.9967 31.4 13.0194 31.2947 13.0434 31.196C13.07 31.0973 13.098 31.0053 13.1274 30.92L14.2634 27.46C14.2847 27.3987 14.326 27.3427 14.3874 27.292C14.4514 27.2413 14.5287 27.216 14.6194 27.216H14.9354C15.0287 27.216 15.1047 27.2387 15.1634 27.284C15.222 27.3293 15.266 27.388 15.2954 27.46L16.4274 30.92C16.4834 31.0853 16.534 31.276 16.5794 31.492C16.614 31.2813 16.6527 31.0907 16.6954 30.92L17.6794 27.46C17.6954 27.3933 17.7354 27.336 17.7994 27.288C17.866 27.24 17.9447 27.216 18.0354 27.216H18.8794ZM22.1428 30.816L21.4388 28.892C21.4041 28.8067 21.3681 28.7053 21.3308 28.588C21.2935 28.4707 21.2561 28.344 21.2188 28.208C21.1841 28.344 21.1481 28.472 21.1108 28.592C21.0735 28.7093 21.0375 28.812 21.0028 28.9L20.3028 30.816H22.1428ZM24.0428 33H23.2108C23.1175 33 23.0415 32.9773 22.9828 32.932C22.9241 32.884 22.8801 32.8253 22.8508 32.756L22.4188 31.576H20.0228L19.5908 32.756C19.5695 32.8173 19.5281 32.8733 19.4668 32.924C19.4055 32.9747 19.3295 33 19.2388 33H18.3988L20.6748 27.216H21.7708L24.0428 33ZM26.2695 29.968C26.4722 29.968 26.6482 29.9427 26.7975 29.892C26.9495 29.8413 27.0735 29.772 27.1695 29.684C27.2682 29.5933 27.3415 29.4867 27.3895 29.364C27.4375 29.2413 27.4615 29.1067 27.4615 28.96C27.4615 28.6667 27.3642 28.4413 27.1695 28.284C26.9775 28.1267 26.6828 28.048 26.2855 28.048H25.5975V29.968H26.2695ZM29.0375 33H28.0655C27.8815 33 27.7482 32.928 27.6655 32.784L26.4495 30.932C26.4042 30.8627 26.3535 30.8133 26.2975 30.784C26.2442 30.7547 26.1642 30.74 26.0575 30.74H25.5975V33H24.5215V27.216H26.2855C26.6775 27.216 27.0135 27.2573 27.2935 27.34C27.5762 27.42 27.8068 27.5333 27.9855 27.68C28.1668 27.8267 28.3002 28.0027 28.3855 28.208C28.4708 28.4107 28.5135 28.6347 28.5135 28.88C28.5135 29.0747 28.4842 29.2587 28.4255 29.432C28.3695 29.6053 28.2868 29.7627 28.1775 29.904C28.0708 30.0453 27.9375 30.1693 27.7775 30.276C27.6202 30.3827 27.4402 30.4667 27.2375 30.528C27.3068 30.568 27.3708 30.616 27.4295 30.672C27.4882 30.7253 27.5415 30.7893 27.5895 30.864L29.0375 33ZM35.8141 27.216V33H34.8661V29.264C34.8661 29.1147 34.8741 28.9533 34.8901 28.78L33.1421 32.064C33.0595 32.2213 32.9328 32.3 32.7621 32.3H32.6101C32.4395 32.3 32.3128 32.2213 32.2301 32.064L30.4621 28.768C30.4701 28.856 30.4768 28.9427 30.4821 29.028C30.4875 29.1133 30.4901 29.192 30.4901 29.264V33H29.5421V27.216H30.3541C30.4021 27.216 30.4435 27.2173 30.4781 27.22C30.5128 27.2227 30.5435 27.2293 30.5701 27.24C30.5995 27.2507 30.6248 27.268 30.6461 27.292C30.6701 27.316 30.6928 27.348 30.7141 27.388L32.4461 30.6C32.4915 30.6853 32.5328 30.7733 32.5701 30.864C32.6101 30.9547 32.6488 31.048 32.6861 31.144C32.7235 31.0453 32.7621 30.9507 32.8021 30.86C32.8421 30.7667 32.8848 30.6773 32.9301 30.592L34.6381 27.388C34.6595 27.348 34.6821 27.316 34.7061 27.292C34.7301 27.268 34.7555 27.2507 34.7821 27.24C34.8115 27.2293 34.8435 27.2227 34.8781 27.22C34.9128 27.2173 34.9541 27.216 35.0021 27.216H35.8141Z" fill="black"/>
<g opacity="0.75">
<path d="M45.5 26V34H46.5V26H45.5Z" fill="#535353"/>
</g>
<g opacity="0.75">
<path d="M88.5 26V34H89.5V26H88.5Z" fill="#535353"/>
</g>
<path d="M131.5 26H91.5C90.6716 26 90 26.6716 90 27.5V32.5C90 33.3284 90.6716 34 91.5 34H131.5C132.328 34 133 33.3284 133 32.5V27.5C133 26.6716 132.328 26 131.5 26Z" fill="url(#paint6_linear_3_2)"/>
<path d="M131.5 26H91.5C90.6716 26 90 26.6716 90 27.5V32.5C90 33.3284 90.6716 34 91.5 34H131.5C132.328 34 133 33.3284 133 32.5V27.5C133 26.6716 132.328 26 131.5 26Z" stroke="url(#paint7_linear_3_2)"/>
<path d="M99.8346 32.16C100.035 32.16 100.203 32.136 100.339 32.088C100.475 32.04 100.583 31.976 100.663 31.896C100.745 31.816 100.804 31.7227 100.839 31.616C100.876 31.5093 100.895 31.396 100.895 31.276C100.895 31.1507 100.875 31.0387 100.835 30.94C100.795 30.8387 100.732 30.7533 100.647 30.684C100.561 30.612 100.451 30.5573 100.315 30.52C100.181 30.4827 100.02 30.464 99.8306 30.464H98.7466V32.16H99.8346ZM98.7466 28.048V29.72H99.6026C99.9706 29.72 100.248 29.6533 100.435 29.52C100.624 29.3867 100.719 29.1747 100.719 28.884C100.719 28.5827 100.633 28.368 100.463 28.24C100.292 28.112 100.025 28.048 99.6626 28.048H98.7466ZM99.6626 27.216C100.041 27.216 100.365 27.252 100.635 27.324C100.904 27.396 101.124 27.4987 101.295 27.632C101.468 27.7653 101.595 27.9267 101.675 28.116C101.755 28.3053 101.795 28.5187 101.795 28.756C101.795 28.892 101.775 29.0227 101.735 29.148C101.695 29.2707 101.632 29.3867 101.547 29.496C101.464 29.6027 101.357 29.7 101.227 29.788C101.099 29.876 100.945 29.9507 100.767 30.012C101.561 30.1907 101.959 30.62 101.959 31.3C101.959 31.5453 101.912 31.772 101.819 31.98C101.725 32.188 101.589 32.368 101.411 32.52C101.232 32.6693 101.012 32.7867 100.751 32.872C100.489 32.9573 100.191 33 99.8546 33H97.6706V27.216H99.6626ZM104.564 29.968C104.767 29.968 104.943 29.9427 105.092 29.892C105.244 29.8413 105.368 29.772 105.464 29.684C105.563 29.5933 105.636 29.4867 105.684 29.364C105.732 29.2413 105.756 29.1067 105.756 28.96C105.756 28.6667 105.659 28.4413 105.464 28.284C105.272 28.1267 104.978 28.048 104.58 28.048H103.892V29.968H104.564ZM107.332 33H106.36C106.176 33 106.043 32.928 105.96 32.784L104.744 30.932C104.699 30.8627 104.648 30.8133 104.592 30.784C104.539 30.7547 104.459 30.74 104.352 30.74H103.892V33H102.816V27.216H104.58C104.972 27.216 105.308 27.2573 105.588 27.34C105.871 27.42 106.102 27.5333 106.28 27.68C106.462 27.8267 106.595 28.0027 106.68 28.208C106.766 28.4107 106.808 28.6347 106.808 28.88C106.808 29.0747 106.779 29.2587 106.72 29.432C106.664 29.6053 106.582 29.7627 106.472 29.904C106.366 30.0453 106.232 30.1693 106.072 30.276C105.915 30.3827 105.735 30.4667 105.532 30.528C105.602 30.568 105.666 30.616 105.724 30.672C105.783 30.7253 105.836 30.7893 105.884 30.864L107.332 33ZM108.917 33H107.837V27.216H108.917V33ZM114.86 30.1V32.44C114.566 32.656 114.253 32.8147 113.92 32.916C113.589 33.0147 113.234 33.064 112.856 33.064C112.384 33.064 111.956 32.9907 111.572 32.844C111.19 32.6973 110.864 32.4933 110.592 32.232C110.322 31.9707 110.114 31.6587 109.968 31.296C109.821 30.9333 109.748 30.5373 109.748 30.108C109.748 29.6733 109.818 29.2747 109.96 28.912C110.101 28.5493 110.301 28.2373 110.56 27.976C110.821 27.7147 111.137 27.512 111.508 27.368C111.878 27.224 112.294 27.152 112.756 27.152C112.99 27.152 113.209 27.1707 113.412 27.208C113.617 27.2453 113.806 27.2973 113.98 27.364C114.156 27.428 114.316 27.5067 114.46 27.6C114.604 27.6933 114.736 27.796 114.856 27.908L114.548 28.396C114.5 28.4733 114.437 28.5213 114.36 28.54C114.282 28.556 114.198 28.536 114.108 28.48C114.02 28.4293 113.932 28.3787 113.844 28.328C113.756 28.2773 113.657 28.2333 113.548 28.196C113.441 28.1587 113.32 28.128 113.184 28.104C113.05 28.08 112.896 28.068 112.72 28.068C112.434 28.068 112.176 28.116 111.944 28.212C111.714 28.308 111.518 28.4453 111.356 28.624C111.193 28.8027 111.068 29.0173 110.98 29.268C110.892 29.5187 110.848 29.7987 110.848 30.108C110.848 30.4387 110.894 30.7347 110.988 30.996C111.084 31.2547 111.217 31.4747 111.388 31.656C111.561 31.8347 111.769 31.972 112.012 32.068C112.254 32.1613 112.525 32.208 112.824 32.208C113.037 32.208 113.228 32.1853 113.396 32.14C113.564 32.0947 113.728 32.0333 113.888 31.956V30.908H113.16C113.09 30.908 113.036 30.8893 112.996 30.852C112.958 30.812 112.94 30.764 112.94 30.708V30.1H114.86ZM120.653 27.216V33H119.572V30.472H116.856V33H115.776V27.216H116.856V29.704H119.572V27.216H120.653ZM125.861 28.1H124.117V33H123.041V28.1H121.297V27.216H125.861V28.1Z" fill="black"/>
<path d="M3.5 25H131.5V24H3.5V25ZM134 27.5V32.5H135V27.5H134ZM131.5 35H3.5V36H131.5V35ZM1 32.5V27.5H0V32.5H1ZM3.5 35C2.11929 35 1 33.8807 1 32.5H0C0 34.433 1.567 36 3.5 36V35ZM134 32.5C134 33.8807 132.881 35 131.5 35V36C133.433 36 135 34.433 135 32.5H134ZM131.5 25C132.881 25 134 26.1193 134 27.5H135C135 25.567 133.433 24 131.5 24V25ZM3.5 24C1.567 24 0 25.567 0 27.5H1C1 26.1193 2.11929 25 3.5 25V24Z" fill="url(#paint8_linear_3_2)"/>
<path d="M54.52 3.216V9H53.968C53.8827 9 53.8107 8.98667 53.752 8.96C53.696 8.93067 53.6413 8.88267 53.588 8.816L50.568 4.96C50.584 5.136 50.592 5.29867 50.592 5.448V9H49.644V3.216H50.208C50.2533 3.216 50.292 3.21867 50.324 3.224C50.3587 3.22667 50.388 3.23467 50.412 3.248C50.4387 3.25867 50.464 3.276 50.488 3.3C50.512 3.32133 50.5387 3.35067 50.568 3.388L53.6 7.26C53.592 7.16667 53.5853 7.07467 53.58 6.984C53.5747 6.89333 53.572 6.80933 53.572 6.732V3.216H54.52ZM56.8881 4.072V5.676H58.9121V6.504H56.8881V8.14H59.4561V9H55.8081V3.216H59.4561V4.072H56.8881ZM62.7376 8.132C62.9456 8.132 63.131 8.09733 63.2936 8.028C63.459 7.95867 63.5976 7.86133 63.7096 7.736C63.8216 7.61067 63.907 7.45867 63.9656 7.28C64.027 7.10133 64.0576 6.90133 64.0576 6.68V3.216H65.1336V6.68C65.1336 7.024 65.0776 7.34267 64.9656 7.636C64.8563 7.92667 64.6976 8.17867 64.4896 8.392C64.2843 8.60267 64.0336 8.768 63.7376 8.888C63.4416 9.00533 63.1083 9.064 62.7376 9.064C62.3643 9.064 62.0296 9.00533 61.7336 8.888C61.4376 8.768 61.1856 8.60267 60.9776 8.392C60.7723 8.17867 60.6136 7.92667 60.5016 7.636C60.3923 7.34267 60.3376 7.024 60.3376 6.68V3.216H61.4136V6.676C61.4136 6.89733 61.443 7.09733 61.5016 7.276C61.563 7.45467 61.6496 7.608 61.7616 7.736C61.8763 7.86133 62.015 7.95867 62.1776 8.028C62.343 8.09733 62.5296 8.132 62.7376 8.132ZM70.3871 4.1H68.6431V9H67.5671V4.1H65.8231V3.216H70.3871V4.1ZM72.892 5.968C73.0947 5.968 73.2707 5.94267 73.42 5.892C73.572 5.84133 73.696 5.772 73.792 5.684C73.8907 5.59333 73.964 5.48667 74.012 5.364C74.06 5.24133 74.084 5.10667 74.084 4.96C74.084 4.66667 73.9867 4.44133 73.792 4.284C73.6 4.12667 73.3053 4.048 72.908 4.048H72.22V5.968H72.892ZM75.66 9H74.688C74.504 9 74.3707 8.928 74.288 8.784L73.072 6.932C73.0267 6.86267 72.976 6.81333 72.92 6.784C72.8667 6.75467 72.7867 6.74 72.68 6.74H72.22V9H71.144V3.216H72.908C73.3 3.216 73.636 3.25733 73.916 3.34C74.1987 3.42 74.4293 3.53333 74.608 3.68C74.7893 3.82667 74.9227 4.00267 75.008 4.208C75.0933 4.41067 75.136 4.63467 75.136 4.88C75.136 5.07467 75.1067 5.25867 75.048 5.432C74.992 5.60533 74.9093 5.76267 74.8 5.904C74.6933 6.04533 74.56 6.16933 74.4 6.276C74.2427 6.38267 74.0627 6.46667 73.86 6.528C73.9293 6.568 73.9933 6.616 74.052 6.672C74.1107 6.72533 74.164 6.78933 74.212 6.864L75.66 9ZM79.3406 6.816L78.6366 4.892C78.602 4.80667 78.566 4.70533 78.5286 4.588C78.4913 4.47067 78.454 4.344 78.4166 4.208C78.382 4.344 78.346 4.472 78.3086 4.592C78.2713 4.70933 78.2353 4.812 78.2006 4.9L77.5006 6.816H79.3406ZM81.2406 9H80.4086C80.3153 9 80.2393 8.97733 80.1806 8.932C80.122 8.884 80.078 8.82533 80.0486 8.756L79.6166 7.576H77.2206L76.7886 8.756C76.7673 8.81733 76.726 8.87333 76.6646 8.924C76.6033 8.97467 76.5273 9 76.4366 9H75.5966L77.8726 3.216H78.9686L81.2406 9ZM85.2273 8.112V9H81.8393V3.216H82.9153V8.112H85.2273Z" fill="black"/>
</g>
<defs>
<linearGradient id="paint0_linear_3_2" x1="23.5" y1="2.5" x2="23.5" y2="9.5" gradientUnits="userSpaceOnUse">
<stop stop-color="#D57A00"/>
<stop offset="0.145833" stop-color="#FF9300"/>
<stop offset="0.463542" stop-color="#FF9300"/>
<stop offset="0.776042" stop-color="#FFA632"/>
</linearGradient>
<linearGradient id="paint1_linear_3_2" x1="23.5" y1="2.5" x2="23.5" y2="9.5" gradientUnits="userSpaceOnUse">
<stop offset="0.00520833" stop-color="#BA6B00"/>
<stop offset="0.317708" stop-color="#FF9300"/>
<stop offset="0.46875" stop-color="#EA8700"/>
<stop offset="0.729167" stop-color="#FF9300"/>
<stop offset="1" stop-color="#FFDCAD"/>
</linearGradient>
<linearGradient id="paint2_linear_3_2" x1="67.5" y1="0.5" x2="67.5" y2="11.5" gradientUnits="userSpaceOnUse">
<stop offset="0.0520833" stop-color="#D9D9D9"/>
<stop offset="0.0521833" stop-color="#8E8E8E"/>
<stop offset="0.963542" stop-color="#858585"/>
<stop offset="0.984375" stop-color="#535353"/>
</linearGradient>
<linearGradient id="paint3_linear_3_2" x1="67.5" y1="14.5" x2="67.5" y2="21.5" gradientUnits="userSpaceOnUse">
<stop stop-color="#D57A00"/>
<stop offset="0.145833" stop-color="#FF9300"/>
<stop offset="0.463542" stop-color="#FF9300"/>
<stop offset="0.776042" stop-color="#FFA632"/>
</linearGradient>
<linearGradient id="paint4_linear_3_2" x1="67.5" y1="14.5" x2="67.5" y2="21.5" gradientUnits="userSpaceOnUse">
<stop offset="0.00520833" stop-color="#BA6B00"/>
<stop offset="0.317708" stop-color="#FF9300"/>
<stop offset="0.46875" stop-color="#EA8700"/>
<stop offset="0.729167" stop-color="#FF9300"/>
<stop offset="1" stop-color="#FFDCAD"/>
</linearGradient>
<linearGradient id="paint5_linear_3_2" x1="67.5" y1="12.5" x2="67.5" y2="23.5" gradientUnits="userSpaceOnUse">
<stop offset="0.0520833" stop-color="#D9D9D9"/>
<stop offset="0.0521833" stop-color="#8E8E8E"/>
<stop offset="0.963542" stop-color="#858585"/>
<stop offset="0.984375" stop-color="#535353"/>
</linearGradient>
<linearGradient id="paint6_linear_3_2" x1="111.5" y1="26.5" x2="111.5" y2="33.5" gradientUnits="userSpaceOnUse">
<stop stop-color="#D57A00"/>
<stop offset="0.145833" stop-color="#FF9300"/>
<stop offset="0.463542" stop-color="#FF9300"/>
<stop offset="0.776042" stop-color="#FFA632"/>
</linearGradient>
<linearGradient id="paint7_linear_3_2" x1="111.5" y1="26.5" x2="111.5" y2="33.5" gradientUnits="userSpaceOnUse">
<stop offset="0.00520833" stop-color="#BA6B00"/>
<stop offset="0.317708" stop-color="#FF9300"/>
<stop offset="0.46875" stop-color="#EA8700"/>
<stop offset="0.729167" stop-color="#FF9300"/>
<stop offset="1" stop-color="#FFDCAD"/>
</linearGradient>
<linearGradient id="paint8_linear_3_2" x1="67.5" y1="24.5" x2="67.5" y2="35.5" gradientUnits="userSpaceOnUse">
<stop offset="0.0520833" stop-color="#D9D9D9"/>
<stop offset="0.0521833" stop-color="#8E8E8E"/>
<stop offset="0.963542" stop-color="#858585"/>
<stop offset="0.984375" stop-color="#535353"/>
</linearGradient>
<clipPath id="clip0_3_2">
<rect width="135" height="36" fill="white"/>
</clipPath>
</defs>
</svg>
