<svg width="31" height="24" viewBox="0 0 31 24" fill="none" xmlns="http://www.w3.org/2000/svg">
<path d="M0.5 3.5C0.5 1.84315 1.84315 0.5 3.5 0.5H27.5C29.1569 0.5 30.5 1.84315 30.5 3.5V8.5C30.5 10.1569 29.1569 11.5 27.5 11.5H3.5C1.84315 11.5 0.5 10.1569 0.5 8.5V3.5Z" fill="url(#paint0_linear)"/>
<path d="M13.9774 3.216V9H13.0294V5.264C13.0294 5.11467 13.0374 4.95333 13.0534 4.78L11.3054 8.064C11.2227 8.22133 11.0961 8.3 10.9254 8.3H10.7734C10.6027 8.3 10.4761 8.22133 10.3934 8.064L8.62541 4.768C8.63341 4.856 8.64007 4.94267 8.64541 5.028C8.65074 5.11333 8.65341 5.192 8.65341 5.264V9H7.70541V3.216H8.51741C8.56541 3.216 8.60674 3.21733 8.64141 3.22C8.67607 3.22267 8.70674 3.22933 8.73341 3.24C8.76274 3.25067 8.78807 3.268 8.80941 3.292C8.83341 3.316 8.85607 3.348 8.87741 3.388L10.6094 6.6C10.6547 6.68533 10.6961 6.77333 10.7334 6.864C10.7734 6.95467 10.8121 7.048 10.8494 7.144C10.8867 7.04533 10.9254 6.95067 10.9654 6.86C11.0054 6.76667 11.0481 6.67733 11.0934 6.592L12.8014 3.388C12.8227 3.348 12.8454 3.316 12.8694 3.292C12.8934 3.268 12.9187 3.25067 12.9454 3.24C12.9747 3.22933 13.0067 3.22267 13.0414 3.22C13.0761 3.21733 13.1174 3.216 13.1654 3.216H13.9774ZM17.0279 6.124C17.2252 6.124 17.3972 6.1 17.5439 6.052C17.6906 6.00133 17.8119 5.93067 17.9079 5.84C18.0066 5.74667 18.0799 5.63467 18.1279 5.504C18.1759 5.37067 18.1999 5.22267 18.1999 5.06C18.1999 4.90533 18.1759 4.76533 18.1279 4.64C18.0799 4.51467 18.0079 4.408 17.9119 4.32C17.8159 4.232 17.6946 4.16533 17.5479 4.12C17.4012 4.072 17.2279 4.048 17.0279 4.048H16.2239V6.124H17.0279ZM17.0279 3.216C17.4146 3.216 17.7492 3.26133 18.0319 3.352C18.3146 3.44267 18.5479 3.56933 18.7319 3.732C18.9159 3.89467 19.0519 4.08933 19.1399 4.316C19.2306 4.54267 19.2759 4.79067 19.2759 5.06C19.2759 5.34 19.2292 5.59733 19.1359 5.832C19.0426 6.064 18.9026 6.264 18.7159 6.432C18.5292 6.6 18.2946 6.73067 18.0119 6.824C17.7319 6.91733 17.4039 6.964 17.0279 6.964H16.2239V9H15.1479V3.216H17.0279ZM21.061 4.072V5.676H23.085V6.504H21.061V8.14H23.629V9H19.981V3.216H23.629V4.072H21.061Z" fill="black"/>
<path d="M3.5 0.875H27.5V0.125H3.5V0.875ZM30.125 3.5V8.5H30.875V3.5H30.125ZM27.5 11.125H3.5V11.875H27.5V11.125ZM0.875 8.5V3.5H0.125V8.5H0.875ZM3.5 11.125C2.05025 11.125 0.875 9.94975 0.875 8.5H0.125C0.125 10.364 1.63604 11.875 3.5 11.875V11.125ZM30.125 8.5C30.125 9.94975 28.9497 11.125 27.5 11.125V11.875C29.364 11.875 30.875 10.364 30.875 8.5H30.125ZM27.5 0.875C28.9497 0.875 30.125 2.05025 30.125 3.5H30.875C30.875 1.63604 29.364 0.125 27.5 0.125V0.875ZM3.5 0.125C1.63604 0.125 0.125 1.63604 0.125 3.5H0.875C0.875 2.05025 2.05025 0.875 3.5 0.875V0.125Z" fill="url(#paint1_linear)"/>
<path d="M0.5 15.5C0.5 13.8431 1.84315 12.5 3.5 12.5H27.5C29.1569 12.5 30.5 13.8431 30.5 15.5V20.5C30.5 22.1569 29.1569 23.5 27.5 23.5H3.5C1.84315 23.5 0.5 22.1569 0.5 20.5V15.5Z" fill="#979797"/>
<rect x="2" y="14" width="27" height="8" rx="1.5" fill="url(#paint2_linear)"/>
<rect x="2" y="14" width="27" height="8" rx="1.5" stroke="url(#paint3_linear)"/>
<path d="M13.9774 15.216V21H13.0294V17.264C13.0294 17.1147 13.0374 16.9533 13.0534 16.78L11.3054 20.064C11.2227 20.2213 11.0961 20.3 10.9254 20.3H10.7734C10.6027 20.3 10.4761 20.2213 10.3934 20.064L8.62541 16.768C8.63341 16.856 8.64007 16.9427 8.64541 17.028C8.65074 17.1133 8.65341 17.192 8.65341 17.264V21H7.70541V15.216H8.51741C8.56541 15.216 8.60674 15.2173 8.64141 15.22C8.67607 15.2227 8.70674 15.2293 8.73341 15.24C8.76274 15.2507 8.78807 15.268 8.80941 15.292C8.83341 15.316 8.85607 15.348 8.87741 15.388L10.6094 18.6C10.6547 18.6853 10.6961 18.7733 10.7334 18.864C10.7734 18.9547 10.8121 19.048 10.8494 19.144C10.8867 19.0453 10.9254 18.9507 10.9654 18.86C11.0054 18.7667 11.0481 18.6773 11.0934 18.592L12.8014 15.388C12.8227 15.348 12.8454 15.316 12.8694 15.292C12.8934 15.268 12.9187 15.2507 12.9454 15.24C12.9747 15.2293 13.0067 15.2227 13.0414 15.22C13.0761 15.2173 13.1174 15.216 13.1654 15.216H13.9774ZM17.0279 18.124C17.2252 18.124 17.3972 18.1 17.5439 18.052C17.6906 18.0013 17.8119 17.9307 17.9079 17.84C18.0066 17.7467 18.0799 17.6347 18.1279 17.504C18.1759 17.3707 18.1999 17.2227 18.1999 17.06C18.1999 16.9053 18.1759 16.7653 18.1279 16.64C18.0799 16.5147 18.0079 16.408 17.9119 16.32C17.8159 16.232 17.6946 16.1653 17.5479 16.12C17.4012 16.072 17.2279 16.048 17.0279 16.048H16.2239V18.124H17.0279ZM17.0279 15.216C17.4146 15.216 17.7492 15.2613 18.0319 15.352C18.3146 15.4427 18.5479 15.5693 18.7319 15.732C18.9159 15.8947 19.0519 16.0893 19.1399 16.316C19.2306 16.5427 19.2759 16.7907 19.2759 17.06C19.2759 17.34 19.2292 17.5973 19.1359 17.832C19.0426 18.064 18.9026 18.264 18.7159 18.432C18.5292 18.6 18.2946 18.7307 18.0119 18.824C17.7319 18.9173 17.4039 18.964 17.0279 18.964H16.2239V21H15.1479V15.216H17.0279ZM21.061 16.072V17.676H23.085V18.504H21.061V20.14H23.629V21H19.981V15.216H23.629V16.072H21.061Z" fill="black"/>
<path d="M3.5 12.875H27.5V12.125H3.5V12.875ZM30.125 15.5V20.5H30.875V15.5H30.125ZM27.5 23.125H3.5V23.875H27.5V23.125ZM0.875 20.5V15.5H0.125V20.5H0.875ZM3.5 23.125C2.05025 23.125 0.875 21.9497 0.875 20.5H0.125C0.125 22.364 1.63604 23.875 3.5 23.875V23.125ZM30.125 20.5C30.125 21.9497 28.9497 23.125 27.5 23.125V23.875C29.364 23.875 30.875 22.364 30.875 20.5H30.125ZM27.5 12.875C28.9497 12.875 30.125 14.0503 30.125 15.5H30.875C30.875 13.636 29.364 12.125 27.5 12.125V12.875ZM3.5 12.125C1.63604 12.125 0.125 13.636 0.125 15.5H0.875C0.875 14.0503 2.05025 12.875 3.5 12.875V12.125Z" fill="url(#paint4_linear)"/>
<defs>
<linearGradient id="paint0_linear" x1="15.5" y1="0.5" x2="15.5" y2="11.5" gradientUnits="userSpaceOnUse">
<stop offset="0.0520833" stop-color="#D9D9D9"/>
<stop offset="0.0521833" stop-color="#8E8E8E"/>
<stop offset="0.963542" stop-color="#858585"/>
<stop offset="0.984375" stop-color="#535353"/>
</linearGradient>
<linearGradient id="paint1_linear" x1="15.5" y1="0.5" x2="15.5" y2="11.5" gradientUnits="userSpaceOnUse">
<stop offset="0.0520833" stop-color="#D9D9D9"/>
<stop offset="0.0521833" stop-color="#8E8E8E"/>
<stop offset="0.963542" stop-color="#858585"/>
<stop offset="0.984375" stop-color="#535353"/>
</linearGradient>
<linearGradient id="paint2_linear" x1="15.5" y1="14.5" x2="15.5" y2="21.5" gradientUnits="userSpaceOnUse">
<stop stop-color="#D57A00"/>
<stop offset="0.145833" stop-color="#FF9300"/>
<stop offset="0.463542" stop-color="#FF9300"/>
<stop offset="0.776042" stop-color="#FFA632"/>
</linearGradient>
<linearGradient id="paint3_linear" x1="15.5" y1="14.5" x2="15.5" y2="21.5" gradientUnits="userSpaceOnUse">
<stop offset="0.00520833" stop-color="#BA6B00"/>
<stop offset="0.317708" stop-color="#FF9300"/>
<stop offset="0.46875" stop-color="#EA8700"/>
<stop offset="0.729167" stop-color="#FF9300"/>
<stop offset="1" stop-color="#FFDCAD"/>
</linearGradient>
<linearGradient id="paint4_linear" x1="15.5" y1="12.5" x2="15.5" y2="23.5" gradientUnits="userSpaceOnUse">
<stop offset="0.0520833" stop-color="#D9D9D9"/>
<stop offset="0.0521833" stop-color="#8E8E8E"/>
<stop offset="0.963542" stop-color="#858585"/>
<stop offset="0.984375" stop-color="#535353"/>
</linearGradient>
</defs>
</svg>
