<svg width="50" height="15" viewBox="0 0 50 15" fill="none" xmlns="http://www.w3.org/2000/svg">
<path d="M0.5 3.5C0.5 1.84315 1.84315 0.5 3.5 0.5H46.5C48.1569 0.5 49.5 1.84315 49.5 3.5V11.5C49.5 13.1569 48.1569 14.5 46.5 14.5H3.5C1.84314 14.5 0.5 13.1569 0.5 11.5V3.5Z" fill="url(#paint0_linear)"/>
<path d="M23.7052 5.172V11H22.5132V7.648C22.5132 7.57067 22.5145 7.48667 22.5172 7.396C22.5225 7.30533 22.5305 7.21333 22.5412 7.12L20.9932 10.116C20.9452 10.2093 20.8798 10.28 20.7972 10.328C20.7172 10.376 20.6252 10.4 20.5212 10.4H20.3372C20.2332 10.4 20.1398 10.376 20.0572 10.328C19.9772 10.28 19.9132 10.2093 19.8652 10.116L18.3172 7.112C18.3252 7.208 18.3318 7.30267 18.3372 7.396C18.3425 7.48667 18.3452 7.57067 18.3452 7.648V11H17.1532V5.172H18.1852C18.2438 5.172 18.2945 5.17333 18.3372 5.176C18.3825 5.17867 18.4225 5.18667 18.4572 5.2C18.4918 5.21333 18.5225 5.23467 18.5492 5.264C18.5785 5.29067 18.6065 5.32933 18.6332 5.38L20.1332 8.336C20.1865 8.43733 20.2372 8.54267 20.2852 8.652C20.3358 8.76133 20.3838 8.87333 20.4292 8.988C20.4745 8.87067 20.5212 8.756 20.5692 8.644C20.6198 8.532 20.6732 8.42533 20.7292 8.324L22.2252 5.38C22.2518 5.32933 22.2785 5.29067 22.3052 5.264C22.3345 5.23467 22.3665 5.21333 22.4012 5.2C22.4358 5.18667 22.4745 5.17867 22.5172 5.176C22.5625 5.17333 22.6145 5.172 22.6732 5.172H23.7052ZM26.0729 6.212V7.572H27.9049V8.572H26.0729V9.96H28.4649V11H24.7129V5.172H28.4649V6.212H26.0729ZM34.2668 5.172V11H33.5628C33.4588 11 33.3708 10.984 33.2988 10.952C33.2295 10.9173 33.1601 10.8587 33.0908 10.776L30.3428 7.3C30.3535 7.404 30.3601 7.50533 30.3628 7.604C30.3681 7.7 30.3708 7.79067 30.3708 7.876V11H29.1788V5.172H29.8908C29.9495 5.172 29.9988 5.17467 30.0388 5.18C30.0788 5.18533 30.1148 5.196 30.1468 5.212C30.1788 5.22533 30.2095 5.24533 30.2388 5.272C30.2681 5.29867 30.3015 5.33467 30.3388 5.38L33.1108 8.88C33.0975 8.768 33.0881 8.66 33.0828 8.556C33.0775 8.44933 33.0748 8.34933 33.0748 8.256V5.172H34.2668ZM37.7096 9.932C37.8909 9.932 38.0522 9.90267 38.1936 9.844C38.3376 9.78267 38.4589 9.696 38.5576 9.584C38.6562 9.472 38.7309 9.336 38.7816 9.176C38.8349 9.01333 38.8616 8.82933 38.8616 8.624V5.172H40.2136V8.624C40.2136 8.98133 40.1549 9.30933 40.0376 9.608C39.9229 9.90667 39.7576 10.164 39.5416 10.38C39.3256 10.596 39.0629 10.764 38.7536 10.884C38.4442 11.004 38.0962 11.064 37.7096 11.064C37.3202 11.064 36.9709 11.004 36.6616 10.884C36.3522 10.764 36.0896 10.596 35.8736 10.38C35.6576 10.164 35.4922 9.90667 35.3776 9.608C35.2629 9.30933 35.2056 8.98133 35.2056 8.624V5.172H36.5576V8.62C36.5576 8.82533 36.5829 9.00933 36.6336 9.172C36.6869 9.332 36.7629 9.46933 36.8616 9.584C36.9602 9.696 37.0802 9.78267 37.2216 9.844C37.3656 9.90267 37.5282 9.932 37.7096 9.932Z" fill="black"/>
<path d="M11.0566 4.83896L13.125 5.91513V3.75H6.21356C5.88733 3.75 5.625 3.94939 5.625 4.19734V8.36912L7.04092 8.67331C7.11491 8.68865 7.1889 8.65542 7.21244 8.60174L7.56558 7.63037C7.58913 7.56135 7.69675 7.53067 7.77747 7.57157L11.1642 9.34305C11.292 9.40951 11.1979 9.56288 11.0499 9.52965L8.44002 8.97495C8.36603 8.95961 8.28868 8.99284 8.27186 9.04908L7.92545 10.0205C7.90191 10.0895 7.79092 10.1201 7.71357 10.0792L5.625 8.98006V11.25H12.4893C12.8391 11.25 13.1216 11.0327 13.1216 10.7694V6.53885L11.7225 6.24233C11.6485 6.22699 11.5745 6.26022 11.5544 6.31391L11.1911 7.28783C11.1642 7.35685 11.06 7.38497 10.9793 7.34662L7.58913 5.5726C7.46132 5.50613 7.55549 5.35276 7.70348 5.38599L10.3133 5.9407C10.3873 5.95603 10.4613 5.9228 10.4815 5.86912L10.8447 4.89519C10.8716 4.82873 10.9759 4.79806 11.0566 4.83896Z" fill="#FF9000"/>
<defs>
<linearGradient id="paint0_linear" x1="25" y1="1.77273" x2="25" y2="13.8636" gradientUnits="userSpaceOnUse">
<stop offset="0.0520833" stop-color="#D9D9D9"/>
<stop offset="0.0521833" stop-color="#8E8E8E"/>
<stop offset="0.890625" stop-color="#858585"/>
<stop offset="0.911458" stop-color="#535353"/>
</linearGradient>
</defs>
</svg>
