<svg width="12" height="34" viewBox="0 0 12 34" fill="none" xmlns="http://www.w3.org/2000/svg">
<path d="M1.5 22.5C1.5 20.8431 2.84315 19.5 4.5 19.5H7.5C9.15685 19.5 10.5 20.8431 10.5 22.5V28.5C10.5 30.1569 9.15685 31.5 7.5 31.5H4.5C2.84315 31.5 1.5 30.1569 1.5 28.5V22.5Z" fill="#979797"/>
<rect x="3" y="21" width="6" height="9" rx="1.5" fill="url(#paint0_linear)"/>
<rect x="3" y="21" width="6" height="9" rx="1.5" stroke="url(#paint1_linear)"/>
<path d="M4.5 20H7.5V19H4.5V20ZM10 22.5V28.5H11V22.5H10ZM7.5 31H4.5V32H7.5V31ZM2 28.5V22.5H1V28.5H2ZM4.5 31C3.11929 31 2 29.8807 2 28.5H1C1 30.433 2.567 32 4.5 32V31ZM10 28.5C10 29.8807 8.88071 31 7.5 31V32C9.433 32 11 30.433 11 28.5H10ZM7.5 20C8.88071 20 10 21.1193 10 22.5H11C11 20.567 9.433 19 7.5 19V20ZM4.5 19C2.567 19 1 20.567 1 22.5H2C2 21.1193 3.11929 20 4.5 20V19Z" fill="#595959"/>
<path d="M6.5 28H5.5V26H3.5V25H5.5V23H6.5V25H8.5V26H6.5V28Z" fill="black"/>
<path d="M1.5 4.5C1.5 2.84315 2.84315 1.5 4.5 1.5H7.5C9.15685 1.5 10.5 2.84315 10.5 4.5V10.5C10.5 12.1569 9.15685 13.5 7.5 13.5H4.5C2.84315 13.5 1.5 12.1569 1.5 10.5V4.5Z" fill="url(#paint2_linear)"/>
<path d="M4.5 2H7.5V1H4.5V2ZM10 4.5V10.5H11V4.5H10ZM7.5 13H4.5V14H7.5V13ZM2 10.5V4.5H1V10.5H2ZM4.5 13C3.11929 13 2 11.8807 2 10.5H1C1 12.433 2.567 14 4.5 14V13ZM10 10.5C10 11.8807 8.88071 13 7.5 13V14C9.433 14 11 12.433 11 10.5H10ZM7.5 2C8.88071 2 10 3.11929 10 4.5H11C11 2.567 9.433 1 7.5 1V2ZM4.5 1C2.567 1 1 2.567 1 4.5H2C2 3.11929 3.11929 2 4.5 2V1Z" fill="url(#paint3_linear)"/>
<path d="M6.5 10H5.5V8H3.5V7H5.5V5H6.5V7H8.5V8H6.5V10Z" fill="black"/>
<defs>
<linearGradient id="paint0_linear" x1="6" y1="21.5" x2="6" y2="29.5" gradientUnits="userSpaceOnUse">
<stop stop-color="#D57A00"/>
<stop offset="0.145833" stop-color="#FF9300"/>
<stop offset="0.463542" stop-color="#FF9300"/>
<stop offset="0.776042" stop-color="#FFA632"/>
</linearGradient>
<linearGradient id="paint1_linear" x1="6" y1="21.5" x2="6" y2="29.5" gradientUnits="userSpaceOnUse">
<stop offset="0.00520833" stop-color="#BA6B00"/>
<stop offset="0.317708" stop-color="#FF9300"/>
<stop offset="0.46875" stop-color="#EA8700"/>
<stop offset="0.729167" stop-color="#FF9300"/>
<stop offset="1" stop-color="#FFDCAD"/>
</linearGradient>
<linearGradient id="paint2_linear" x1="6" y1="1.5" x2="6" y2="13.5" gradientUnits="userSpaceOnUse">
<stop offset="0.0520833" stop-color="#D9D9D9"/>
<stop offset="0.0521833" stop-color="#8E8E8E"/>
<stop offset="0.963542" stop-color="#858585"/>
<stop offset="0.984375" stop-color="#535353"/>
</linearGradient>
<linearGradient id="paint3_linear" x1="6" y1="1.5" x2="6" y2="13.5" gradientUnits="userSpaceOnUse">
<stop offset="0.0520833" stop-color="#D9D9D9"/>
<stop offset="0.0521833" stop-color="#8E8E8E"/>
<stop offset="0.963542" stop-color="#858585"/>
<stop offset="0.984375" stop-color="#535353"/>
</linearGradient>
</defs>
</svg>
