<svg width="40" height="85" viewBox="0 0 40 85" fill="none" xmlns="http://www.w3.org/2000/svg">
<rect x="0.5" y="0.5" width="39" height="41" rx="3" fill="url(#paint0_linear)"/>
<rect x="1.61292" y="1.41302" width="36.7742" height="18.1739" rx="1" fill="url(#paint1_linear)"/>
<rect x="1.61292" y="1.41302" width="36.7742" height="18.1739" rx="1" stroke="url(#paint2_linear)"/>
<path d="M21.9582 12.545L20.5502 8.69702C20.4809 8.52636 20.4089 8.32369 20.3342 8.08902C20.2596 7.85436 20.1849 7.60102 20.1102 7.32902C20.0409 7.60102 19.9689 7.85702 19.8942 8.09702C19.8196 8.33169 19.7476 8.53702 19.6782 8.71302L18.2782 12.545H21.9582ZM25.7582 16.913H24.0942C23.9076 16.913 23.7556 16.8677 23.6382 16.777C23.5209 16.681 23.4329 16.5637 23.3742 16.425L22.5102 14.065H17.7182L16.8542 16.425C16.8116 16.5477 16.7289 16.6597 16.6062 16.761C16.4836 16.8624 16.3316 16.913 16.1502 16.913H14.4702L19.0222 5.34502H21.2142L25.7582 16.913Z" fill="black"/>
<rect x="1.61298" y="22.4128" width="36.7742" height="18.1739" rx="1" fill="url(#paint3_linear)"/>
<rect x="1.61298" y="22.4128" width="36.7742" height="18.1739" rx="1" stroke="url(#paint4_linear)"/>
<path opacity="0.5" d="M38 20.5H2V21.5H38V20.5Z" fill="#535353"/>
<path d="M20.3504 35.32C20.7504 35.32 21.0864 35.272 21.3584 35.176C21.6304 35.08 21.8464 34.952 22.0064 34.792C22.1717 34.632 22.289 34.4453 22.3584 34.232C22.433 34.0187 22.4704 33.792 22.4704 33.552C22.4704 33.3013 22.4304 33.0773 22.3504 32.88C22.2704 32.6773 22.145 32.5067 21.9744 32.368C21.8037 32.224 21.5824 32.1147 21.3104 32.04C21.0437 31.9653 20.721 31.928 20.3424 31.928H18.1744V35.32H20.3504ZM18.1744 27.096V30.44H19.8864C20.6224 30.44 21.177 30.3067 21.5504 30.04C21.929 29.7733 22.1184 29.3493 22.1184 28.768C22.1184 28.1653 21.9477 27.736 21.6064 27.48C21.265 27.224 20.7317 27.096 20.0064 27.096H18.1744ZM20.0064 25.432C20.7637 25.432 21.4117 25.504 21.9504 25.648C22.489 25.792 22.929 25.9973 23.2704 26.264C23.617 26.5307 23.8704 26.8533 24.0304 27.232C24.1904 27.6107 24.2704 28.0373 24.2704 28.512C24.2704 28.784 24.2304 29.0453 24.1504 29.296C24.0704 29.5413 23.945 29.7733 23.7744 29.992C23.609 30.2053 23.3957 30.4 23.1344 30.576C22.8784 30.752 22.5717 30.9013 22.2144 31.024C23.8037 31.3813 24.5984 32.24 24.5984 33.6C24.5984 34.0907 24.505 34.544 24.3184 34.96C24.1317 35.376 23.8597 35.736 23.5024 36.04C23.145 36.3387 22.705 36.5733 22.1824 36.744C21.6597 36.9147 21.0624 37 20.3904 37H16.0224V25.432H20.0064Z" fill="black"/>
<rect x="0.5" y="0.5" width="39" height="41" rx="3" stroke="#535353"/>
<rect x="0.5" y="43" width="39" height="41" rx="3" fill="url(#paint5_linear)"/>
<rect x="1.61292" y="43.913" width="36.7742" height="18.1739" rx="1" fill="url(#paint6_linear)"/>
<rect x="1.61292" y="43.913" width="36.7742" height="18.1739" rx="1" stroke="url(#paint7_linear)"/>
<path d="M21.9582 55.045L20.5502 51.197C20.4809 51.0264 20.4089 50.8237 20.3342 50.589C20.2596 50.3544 20.1849 50.101 20.1102 49.829C20.0409 50.101 19.9689 50.357 19.8942 50.597C19.8196 50.8317 19.7476 51.037 19.6782 51.213L18.2782 55.045H21.9582ZM25.7582 59.413H24.0942C23.9076 59.413 23.7556 59.3677 23.6382 59.277C23.5209 59.181 23.4329 59.0637 23.3742 58.925L22.5102 56.565H17.7182L16.8542 58.925C16.8116 59.0477 16.7289 59.1597 16.6062 59.261C16.4836 59.3624 16.3316 59.413 16.1502 59.413H14.4702L19.0222 47.845H21.2142L25.7582 59.413Z" fill="black"/>
<rect x="1.61298" y="64.9128" width="36.7742" height="18.1739" rx="1" fill="url(#paint8_linear)"/>
<rect x="1.61298" y="64.9128" width="36.7742" height="18.1739" rx="1" stroke="url(#paint9_linear)"/>
<path opacity="0.5" d="M38 63H2V64H38V63Z" fill="#535353"/>
<path d="M20.3504 77.82C20.7504 77.82 21.0864 77.772 21.3584 77.676C21.6304 77.58 21.8464 77.452 22.0064 77.292C22.1717 77.132 22.289 76.9453 22.3584 76.732C22.433 76.5187 22.4704 76.292 22.4704 76.052C22.4704 75.8013 22.4304 75.5773 22.3504 75.38C22.2704 75.1773 22.145 75.0067 21.9744 74.868C21.8037 74.724 21.5824 74.6147 21.3104 74.54C21.0437 74.4653 20.721 74.428 20.3424 74.428H18.1744V77.82H20.3504ZM18.1744 69.596V72.94H19.8864C20.6224 72.94 21.177 72.8067 21.5504 72.54C21.929 72.2733 22.1184 71.8493 22.1184 71.268C22.1184 70.6653 21.9477 70.236 21.6064 69.98C21.265 69.724 20.7317 69.596 20.0064 69.596H18.1744ZM20.0064 67.932C20.7637 67.932 21.4117 68.004 21.9504 68.148C22.489 68.292 22.929 68.4973 23.2704 68.764C23.617 69.0307 23.8704 69.3533 24.0304 69.732C24.1904 70.1107 24.2704 70.5373 24.2704 71.012C24.2704 71.284 24.2304 71.5453 24.1504 71.796C24.0704 72.0413 23.945 72.2733 23.7744 72.492C23.609 72.7053 23.3957 72.9 23.1344 73.076C22.8784 73.252 22.5717 73.4013 22.2144 73.524C23.8037 73.8813 24.5984 74.74 24.5984 76.1C24.5984 76.5907 24.505 77.044 24.3184 77.46C24.1317 77.876 23.8597 78.236 23.5024 78.54C23.145 78.8387 22.705 79.0733 22.1824 79.244C21.6597 79.4147 21.0624 79.5 20.3904 79.5H16.0224V67.932H20.0064Z" fill="black"/>
<rect x="0.5" y="43" width="39" height="41" rx="3" stroke="#535353"/>
<defs>
<linearGradient id="paint0_linear" x1="39.5" y1="-6.82143" x2="39.5" y2="51.75" gradientUnits="userSpaceOnUse">
<stop stop-color="#959595"/>
<stop offset="1" stop-color="#212121"/>
</linearGradient>
<linearGradient id="paint1_linear" x1="20" y1="1.41302" x2="20" y2="19.5869" gradientUnits="userSpaceOnUse">
<stop stop-color="#D57A00"/>
<stop offset="0.145833" stop-color="#FF9300"/>
<stop offset="0.463542" stop-color="#FF9300"/>
<stop offset="0.776042" stop-color="#FFA632"/>
</linearGradient>
<linearGradient id="paint2_linear" x1="20" y1="1.41302" x2="20" y2="19.5869" gradientUnits="userSpaceOnUse">
<stop offset="0.00520833" stop-color="#BA6B00"/>
<stop offset="0.317708" stop-color="#FF9300"/>
<stop offset="0.46875" stop-color="#EA8700"/>
<stop offset="0.729167" stop-color="#FF9300"/>
<stop offset="1" stop-color="#FFDCAD"/>
</linearGradient>
<linearGradient id="paint3_linear" x1="20.0001" y1="22.4128" x2="20.0001" y2="40.5868" gradientUnits="userSpaceOnUse">
<stop offset="0.0520833" stop-color="#D9D9D9"/>
<stop offset="0.0521833" stop-color="#8E8E8E"/>
<stop offset="0.963542" stop-color="#858585"/>
<stop offset="0.984375" stop-color="#535353"/>
</linearGradient>
<linearGradient id="paint4_linear" x1="20.0001" y1="22.4128" x2="20.0001" y2="40.5868" gradientUnits="userSpaceOnUse">
<stop offset="0.0520833" stop-color="#D9D9D9"/>
<stop offset="0.0521833" stop-color="#8E8E8E"/>
<stop offset="0.963542" stop-color="#858585"/>
<stop offset="0.984375" stop-color="#535353"/>
</linearGradient>
<linearGradient id="paint5_linear" x1="39.5" y1="35.6786" x2="39.5" y2="94.25" gradientUnits="userSpaceOnUse">
<stop stop-color="#959595"/>
<stop offset="1" stop-color="#212121"/>
</linearGradient>
<linearGradient id="paint6_linear" x1="20" y1="43.913" x2="20" y2="62.0869" gradientUnits="userSpaceOnUse">
<stop offset="0.0520833" stop-color="#D9D9D9"/>
<stop offset="0.0521833" stop-color="#8E8E8E"/>
<stop offset="0.963542" stop-color="#858585"/>
<stop offset="0.984375" stop-color="#535353"/>
</linearGradient>
<linearGradient id="paint7_linear" x1="20" y1="43.913" x2="20" y2="62.0869" gradientUnits="userSpaceOnUse">
<stop offset="0.0520833" stop-color="#D9D9D9"/>
<stop offset="0.0521833" stop-color="#8E8E8E"/>
<stop offset="0.963542" stop-color="#858585"/>
<stop offset="0.984375" stop-color="#535353"/>
</linearGradient>
<linearGradient id="paint8_linear" x1="20.0001" y1="64.9128" x2="20.0001" y2="83.0868" gradientUnits="userSpaceOnUse">
<stop stop-color="#D57A00"/>
<stop offset="0.145833" stop-color="#FF9300"/>
<stop offset="0.463542" stop-color="#FF9300"/>
<stop offset="0.776042" stop-color="#FFA632"/>
</linearGradient>
<linearGradient id="paint9_linear" x1="20.0001" y1="64.9128" x2="20.0001" y2="83.0868" gradientUnits="userSpaceOnUse">
<stop offset="0.00520833" stop-color="#BA6B00"/>
<stop offset="0.317708" stop-color="#FF9300"/>
<stop offset="0.46875" stop-color="#EA8700"/>
<stop offset="0.729167" stop-color="#FF9300"/>
<stop offset="1" stop-color="#FFDCAD"/>
</linearGradient>
</defs>
</svg>
