<svg width="56" height="48" viewBox="0 0 56 48" fill="none" xmlns="http://www.w3.org/2000/svg">
<rect opacity="0.25" x="2" y="4" width="19" height="14" rx="5" fill="black"/>
<rect opacity="0.25" x="2" y="28" width="19" height="14" rx="5" fill="black"/>
<rect opacity="0.25" x="30" y="28" width="19" height="14" rx="5" fill="black"/>
<rect opacity="0.25" x="30" y="2" width="19" height="16" rx="5" fill="black"/>
<rect x="2.35" y="1.85" width="18.3" height="13.3" rx="4.65" fill="url(#paint0_linear)" stroke="black" stroke-width="0.7"/>
<rect x="7" y="3.5" width="9" height="10" rx="2" fill="url(#paint1_linear)"/>
<rect opacity="0.25" x="7" y="3.5" width="9" height="10" rx="2" fill="url(#paint2_linear)"/>
<rect x="2.35" y="25.85" width="18.3" height="13.3" rx="4.65" fill="url(#paint3_linear)" stroke="#1F1F1F" stroke-width="0.7"/>
<rect x="7" y="27.5" width="9" height="10" rx="2" fill="url(#paint4_linear)"/>
<rect opacity="0.25" x="7" y="27.5" width="9" height="10" rx="2" fill="url(#paint5_linear)"/>
<rect opacity="0.25" x="35" y="3.5" width="9" height="10" rx="2" fill="url(#paint6_linear)"/>
<rect x="30.35" y="1.85" width="18.3" height="13.3" rx="4.65" fill="url(#paint7_linear)" stroke="black" stroke-width="0.7"/>
<rect x="35" y="3.5" width="9" height="10" rx="2" fill="url(#paint8_linear)"/>
<rect opacity="0.5" x="35" y="3.5" width="9" height="10" rx="2" fill="url(#paint9_linear)"/>
<rect x="30.35" y="25.85" width="18.3" height="13.3" rx="4.65" fill="url(#paint10_linear)" stroke="#1F1F1F" stroke-width="0.7"/>
<rect x="35" y="27.5" width="9" height="10" rx="2" fill="url(#paint11_linear)"/>
<rect opacity="0.25" x="35" y="27.5" width="9" height="10" rx="2" fill="url(#paint12_linear)"/>
<rect x="30.35" y="25.85" width="18.3" height="13.3" rx="4.65" fill="url(#paint13_linear)" stroke="black" stroke-width="0.7"/>
<rect x="35" y="27.5" width="9" height="10" rx="2" fill="url(#paint14_linear)"/>
<rect opacity="0.5" x="35" y="27.5" width="9" height="10" rx="2" fill="url(#paint15_linear)"/>
<defs>
<linearGradient id="paint0_linear" x1="3" y1="15" x2="3" y2="2" gradientUnits="userSpaceOnUse">
<stop offset="0.192708" stop-color="#777777"/>
<stop offset="0.609375" stop-color="#858585"/>
<stop offset="0.822917" stop-color="#DADADA"/>
</linearGradient>
<linearGradient id="paint1_linear" x1="18" y1="3.5" x2="5" y2="3.5" gradientUnits="userSpaceOnUse">
<stop stop-color="#4A4A4A"/>
<stop offset="0.497963" stop-color="#D2D2D2"/>
<stop offset="0.885417" stop-color="#414141"/>
</linearGradient>
<linearGradient id="paint2_linear" x1="7" y1="13.5" x2="7" y2="3.5" gradientUnits="userSpaceOnUse">
<stop stop-color="#E8E8E8"/>
<stop offset="0.609375" stop-color="#ABABAB"/>
<stop offset="1" stop-color="#3E3E3E"/>
</linearGradient>
<linearGradient id="paint3_linear" x1="21" y1="25.5" x2="2" y2="26" gradientUnits="userSpaceOnUse">
<stop offset="0.182158" stop-color="#3E3E3E"/>
<stop offset="0.980215" stop-color="#9B9B9B"/>
</linearGradient>
<linearGradient id="paint4_linear" x1="18" y1="27.5" x2="5" y2="27.5" gradientUnits="userSpaceOnUse">
<stop stop-color="#4A4A4A"/>
<stop offset="0.497963" stop-color="#D2D2D2"/>
<stop offset="0.885417" stop-color="#414141"/>
</linearGradient>
<linearGradient id="paint5_linear" x1="7" y1="37.5" x2="7" y2="27.5" gradientUnits="userSpaceOnUse">
<stop stop-color="#E8E8E8"/>
<stop offset="0.609375" stop-color="#ABABAB"/>
<stop offset="1" stop-color="#3E3E3E"/>
</linearGradient>
<linearGradient id="paint6_linear" x1="35" y1="13.5" x2="35" y2="3.5" gradientUnits="userSpaceOnUse">
<stop stop-color="#E8E8E8"/>
<stop offset="0.609375" stop-color="#ABABAB"/>
<stop offset="1" stop-color="#3E3E3E"/>
</linearGradient>
<linearGradient id="paint7_linear" x1="31.5" y1="15" x2="31.5" y2="1.5" gradientUnits="userSpaceOnUse">
<stop stop-color="#606060"/>
<stop offset="0.0001" stop-color="#676768"/>
<stop offset="0.302083" stop-color="#4487F6"/>
<stop offset="0.651042" stop-color="#4487F6"/>
<stop offset="0.755208" stop-color="#74AEFE"/>
</linearGradient>
<linearGradient id="paint8_linear" x1="35" y1="13" x2="35" y2="4.5" gradientUnits="userSpaceOnUse">
<stop offset="0.100332" stop-color="#71ACFD"/>
<stop offset="0.46875" stop-color="#4585EE"/>
<stop offset="0.903246" stop-color="#5B6677"/>
</linearGradient>
<linearGradient id="paint9_linear" x1="44" y1="3.5" x2="35" y2="3.5" gradientUnits="userSpaceOnUse">
<stop stop-color="#414141"/>
<stop offset="0.497963" stop-color="#4B97FF"/>
<stop offset="1" stop-color="#414141"/>
</linearGradient>
<linearGradient id="paint10_linear" x1="31" y1="39" x2="31" y2="26" gradientUnits="userSpaceOnUse">
<stop offset="0.192708" stop-color="#777777"/>
<stop offset="0.609375" stop-color="#858585"/>
<stop offset="0.822917" stop-color="#DADADA"/>
</linearGradient>
<linearGradient id="paint11_linear" x1="46" y1="27.5" x2="33" y2="27.5" gradientUnits="userSpaceOnUse">
<stop stop-color="#4A4A4A"/>
<stop offset="0.497963" stop-color="#D2D2D2"/>
<stop offset="0.885417" stop-color="#414141"/>
</linearGradient>
<linearGradient id="paint12_linear" x1="35" y1="37.5" x2="35" y2="27.5" gradientUnits="userSpaceOnUse">
<stop stop-color="#E8E8E8"/>
<stop offset="0.609375" stop-color="#ABABAB"/>
<stop offset="1" stop-color="#3E3E3E"/>
</linearGradient>
<linearGradient id="paint13_linear" x1="31.5" y1="39" x2="31.5" y2="25.5" gradientUnits="userSpaceOnUse">
<stop stop-color="#606060"/>
<stop offset="0.0001" stop-color="#676768"/>
<stop offset="0.302083" stop-color="#4487F6"/>
<stop offset="0.651042" stop-color="#4487F6"/>
<stop offset="0.755208" stop-color="#74AEFE"/>
</linearGradient>
<linearGradient id="paint14_linear" x1="35" y1="37" x2="35" y2="28.5" gradientUnits="userSpaceOnUse">
<stop offset="0.100332" stop-color="#71ACFD"/>
<stop offset="0.46875" stop-color="#4585EE"/>
<stop offset="0.903246" stop-color="#5B6677"/>
</linearGradient>
<linearGradient id="paint15_linear" x1="44" y1="27.5" x2="35" y2="27.5" gradientUnits="userSpaceOnUse">
<stop stop-color="#414141"/>
<stop offset="0.497963" stop-color="#4B97FF"/>
<stop offset="1" stop-color="#414141"/>
</linearGradient>
</defs>
</svg>
