<svg width="37" height="12" viewBox="0 0 37 12" fill="none" xmlns="http://www.w3.org/2000/svg">
<path d="M0.5 3.5C0.5 1.84315 1.84315 0.5 3.5 0.5H33.5C35.1569 0.5 36.5 1.84315 36.5 3.5V8.5C36.5 10.1569 35.1569 11.5 33.5 11.5H3.5C1.84315 11.5 0.5 10.1569 0.5 8.5V3.5Z" fill="url(#paint0_linear)"/>
<path d="M12.6423 4.268C12.6103 4.324 12.5756 4.36533 12.5383 4.392C12.5036 4.416 12.4596 4.428 12.4063 4.428C12.3503 4.428 12.2889 4.408 12.2223 4.368C12.1583 4.32533 12.0809 4.27867 11.9903 4.228C11.8996 4.17733 11.7929 4.132 11.6703 4.092C11.5503 4.04933 11.4076 4.028 11.2423 4.028C11.0929 4.028 10.9623 4.04667 10.8503 4.084C10.7383 4.11867 10.6436 4.168 10.5663 4.232C10.4916 4.296 10.4356 4.37333 10.3983 4.464C10.3609 4.552 10.3423 4.64933 10.3423 4.756C10.3423 4.892 10.3796 5.00533 10.4543 5.096C10.5316 5.18667 10.6329 5.264 10.7583 5.328C10.8836 5.392 11.0263 5.44933 11.1863 5.5C11.3463 5.55067 11.5103 5.60533 11.6783 5.664C11.8463 5.72 12.0103 5.78667 12.1703 5.864C12.3303 5.93867 12.4729 6.03467 12.5983 6.152C12.7236 6.26667 12.8236 6.408 12.8983 6.576C12.9756 6.744 13.0143 6.948 13.0143 7.188C13.0143 7.44933 12.9689 7.69467 12.8783 7.924C12.7903 8.15067 12.6596 8.34933 12.4863 8.52C12.3156 8.688 12.1063 8.82133 11.8583 8.92C11.6103 9.016 11.3263 9.064 11.0063 9.064C10.8223 9.064 10.6409 9.04533 10.4623 9.008C10.2836 8.97333 10.1116 8.92267 9.94628 8.856C9.78361 8.78933 9.63028 8.70933 9.48628 8.616C9.34228 8.52267 9.21428 8.41867 9.10228 8.304L9.41828 7.788C9.44495 7.75067 9.47961 7.72 9.52228 7.696C9.56495 7.66933 9.61028 7.656 9.65828 7.656C9.72495 7.656 9.79695 7.684 9.87428 7.74C9.95161 7.79333 10.0436 7.85333 10.1503 7.92C10.2569 7.98667 10.3809 8.048 10.5223 8.104C10.6663 8.15733 10.8383 8.184 11.0383 8.184C11.3449 8.184 11.5823 8.112 11.7503 7.968C11.9183 7.82133 12.0023 7.612 12.0023 7.34C12.0023 7.188 11.9636 7.064 11.8863 6.968C11.8116 6.872 11.7116 6.792 11.5863 6.728C11.4609 6.66133 11.3183 6.60533 11.1583 6.56C10.9983 6.51467 10.8356 6.46533 10.6703 6.412C10.5049 6.35867 10.3423 6.29467 10.1823 6.22C10.0223 6.14533 9.87961 6.048 9.75428 5.928C9.62895 5.808 9.52761 5.65867 9.45028 5.48C9.37561 5.29867 9.33828 5.076 9.33828 4.812C9.33828 4.60133 9.37961 4.396 9.46228 4.196C9.54761 3.996 9.67028 3.81867 9.83028 3.664C9.99028 3.50933 10.1876 3.38533 10.4223 3.292C10.6569 3.19867 10.9263 3.152 11.2303 3.152C11.5716 3.152 11.8863 3.20533 12.1743 3.312C12.4623 3.41867 12.7076 3.568 12.9103 3.76L12.6423 4.268ZM16.7717 6.816L16.0677 4.892C16.0331 4.80667 15.9971 4.70533 15.9597 4.588C15.9224 4.47067 15.8851 4.344 15.8477 4.208C15.8131 4.344 15.7771 4.472 15.7397 4.592C15.7024 4.70933 15.6664 4.812 15.6317 4.9L14.9317 6.816H16.7717ZM18.6717 9H17.8397C17.7464 9 17.6704 8.97733 17.6117 8.932C17.5531 8.884 17.5091 8.82533 17.4797 8.756L17.0477 7.576H14.6517L14.2197 8.756C14.1984 8.81733 14.1571 8.87333 14.0957 8.924C14.0344 8.97467 13.9584 9 13.8677 9H13.0277L15.3037 3.216H16.3997L18.6717 9ZM23.6455 3.216L21.3095 9H20.3375L18.0015 3.216H18.8655C18.9588 3.216 19.0348 3.23867 19.0935 3.284C19.1521 3.32933 19.1961 3.388 19.2255 3.46L20.5895 6.988C20.6348 7.10267 20.6775 7.22933 20.7175 7.368C20.7601 7.504 20.8001 7.64667 20.8375 7.796C20.8695 7.64667 20.9041 7.504 20.9415 7.368C20.9788 7.22933 21.0201 7.10267 21.0655 6.988L22.4215 3.46C22.4428 3.39867 22.4841 3.34267 22.5455 3.292C22.6095 3.24133 22.6868 3.216 22.7775 3.216H23.6455ZM25.2042 4.072V5.676H27.2282V6.504H25.2042V8.14H27.7722V9H24.1242V3.216H27.7722V4.072H25.2042Z" fill="black"/>
<defs>
<linearGradient id="paint0_linear" x1="18.5" y1="1.5" x2="18.5" y2="11" gradientUnits="userSpaceOnUse">
<stop offset="0.0520833" stop-color="#D9D9D9"/>
<stop offset="0.0521833" stop-color="#8E8E8E"/>
<stop offset="0.890625" stop-color="#858585"/>
<stop offset="0.911458" stop-color="#535353"/>
</linearGradient>
</defs>
</svg>
