<svg width="16" height="24" viewBox="0 0 16 24" fill="none" xmlns="http://www.w3.org/2000/svg">
<path d="M15.5 3.5C15.5 1.84315 14.1569 0.5 12.5 0.5H0.5V11.5H12.5C14.1569 11.5 15.5 10.1569 15.5 8.5V3.5Z" fill="url(#paint0_linear_2_89)"/>
<path d="M7.75003 4C8.9771 4 10.0631 4.55697 10.7472 5.41454L12 4.23525V8H7.99975L9.36069 6.71927C8.99908 5.68702 7.96783 4.94116 6.75011 4.94116C5.2305 4.94116 4 6.10018 4 7.52948C3.99998 5.57998 5.67883 4 7.75003 4Z" fill="black"/>
<path d="M15.5 15.5C15.5 13.8431 14.1569 12.5 12.5 12.5H0.5V23.5H12.5C14.1569 23.5 15.5 22.1569 15.5 20.5V15.5Z" fill="url(#paint1_linear_2_89)"/>
<path d="M7.75003 16C8.9771 16 10.0631 16.557 10.7472 17.4145L12 16.2353V20H7.99975L9.36069 18.7193C8.99908 17.687 7.96783 16.9412 6.75011 16.9412C5.2305 16.9412 4 18.1002 4 19.5295C3.99998 17.58 5.67883 16 7.75003 16Z" fill="black"/>
<defs>
<linearGradient id="paint0_linear_2_89" x1="8" y1="1.5" x2="8" y2="11" gradientUnits="userSpaceOnUse">
<stop offset="0.0520833" stop-color="#D9D9D9"/>
<stop offset="0.0521833" stop-color="#8E8E8E"/>
<stop offset="0.890625" stop-color="#858585"/>
<stop offset="0.911458" stop-color="#535353"/>
</linearGradient>
<linearGradient id="paint1_linear_2_89" x1="8" y1="13.5" x2="8" y2="23" gradientUnits="userSpaceOnUse">
<stop offset="0.0520833" stop-color="#D9D9D9"/>
<stop offset="0.0521833" stop-color="#8E8E8E"/>
<stop offset="0.890625" stop-color="#858585"/>
<stop offset="0.911458" stop-color="#535353"/>
</linearGradient>
</defs>
</svg>
