<svg width="51" height="117" viewBox="0 0 51 117" fill="none" xmlns="http://www.w3.org/2000/svg">
<g clip-path="url(#clip0)">
<path d="M0.5 3.5C0.5 1.84315 1.84315 0.5 3.5 0.5H47.5C49.1569 0.5 50.5 1.84315 50.5 3.5V35.5C50.5 37.1569 49.1569 38.5 47.5 38.5H3.5C1.84315 38.5 0.5 37.1569 0.5 35.5V3.5Z" fill="#787878"/>
<path fill-rule="evenodd" clip-rule="evenodd" d="M1.5 26.5V35.5C1.5 36.6046 2.39543 37.5 3.5 37.5H47.5C48.6046 37.5 49.5 36.6046 49.5 35.5V26.5H1.5Z" fill="url(#paint0_linear)"/>
<path d="M1.5 26.5V26H1V26.5H1.5ZM49.5 26.5H50V26H49.5V26.5ZM2 35.5V26.5H1V35.5H2ZM3.5 37C2.67157 37 2 36.3284 2 35.5H1C1 36.8807 2.11929 38 3.5 38V37ZM47.5 37H3.5V38H47.5V37ZM49 35.5C49 36.3284 48.3284 37 47.5 37V38C48.8807 38 50 36.8807 50 35.5H49ZM49 26.5V35.5H50V26.5H49ZM49.5 26H1.5V27H49.5V26Z" fill="url(#paint1_linear)"/>
<path fill-rule="evenodd" clip-rule="evenodd" d="M1.5 26.5V35.5C1.5 36.6046 2.39543 37.5 3.5 37.5H47.5C48.6046 37.5 49.5 36.6046 49.5 35.5V26.5H1.5Z" fill="url(#paint2_linear)"/>
<path d="M1.5 26.5V26H1V26.5H1.5ZM49.5 26.5H50V26H49.5V26.5ZM2 35.5V26.5H1V35.5H2ZM3.5 37C2.67157 37 2 36.3284 2 35.5H1C1 36.8807 2.11929 38 3.5 38V37ZM47.5 37H3.5V38H47.5V37ZM49 35.5C49 36.3284 48.3284 37 47.5 37V38C48.8807 38 50 36.8807 50 35.5H49ZM49 26.5V35.5H50V26.5H49ZM49.5 26H1.5V27H49.5V26Z" fill="url(#paint3_linear)"/>
<rect x="1.5" y="14" width="48" height="11" fill="url(#paint4_linear)" stroke="url(#paint5_linear)" stroke-width="0.956522"/>
<path d="M1.5 3.5C1.5 2.39543 2.39543 1.5 3.5 1.5H47.5C48.6046 1.5 49.5 2.39543 49.5 3.5V10.5C49.5 11.6046 48.6046 12.5 47.5 12.5H3.5C2.39543 12.5 1.5 11.6046 1.5 10.5V3.5Z" fill="url(#paint6_linear)"/>
<path d="M1.5 9.5H49.5V12.5H1.5V9.5Z" fill="url(#paint7_linear)"/>
<path d="M1.5 3.5C1.5 2.39543 2.39543 1.5 3.5 1.5H47.5C48.6046 1.5 49.5 2.39543 49.5 3.5V10.5C49.5 11.6046 48.6046 12.5 47.5 12.5H3.5C2.39543 12.5 1.5 11.6046 1.5 10.5V3.5Z" stroke="url(#paint8_linear)"/>
<path d="M1.5 9.5H49.5V12.5H1.5V9.5Z" stroke="url(#paint9_linear)"/>
<path d="M2.5 2.5H48.5V11H2.5V2.5Z" fill="#FF9A10"/>
<path d="M48.5 11.5H49V11V3.5C49 2.67157 48.3284 2 47.5 2H3.5C2.67157 2 2 2.67157 2 3.5V11V11.5H2.5H48.5Z" fill="url(#paint10_linear)"/>
<path d="M48.5 11.5H49V11V3.5C49 2.67157 48.3284 2 47.5 2H3.5C2.67157 2 2 2.67157 2 3.5V11V11.5H2.5H48.5Z" stroke="url(#paint11_linear)"/>
<path d="M11.5427 5.688V7.186H13.4397V7.9385H11.5427V10H10.5977V4.939H13.7897V5.688H11.5427ZM15.9871 7.347C16.1644 7.347 16.3184 7.32483 16.4491 7.2805C16.5821 7.23617 16.6906 7.1755 16.7746 7.0985C16.8609 7.01917 16.9251 6.92583 16.9671 6.8185C17.0091 6.71117 17.0301 6.59333 17.0301 6.465C17.0301 6.20833 16.9449 6.01117 16.7746 5.8735C16.6066 5.73583 16.3487 5.667 16.0011 5.667H15.3991V7.347H15.9871ZM18.4091 10H17.5586C17.3976 10 17.2809 9.937 17.2086 9.811L16.1446 8.1905C16.1049 8.12983 16.0606 8.08667 16.0116 8.061C15.9649 8.03533 15.8949 8.0225 15.8016 8.0225H15.3991V10H14.4576V4.939H16.0011C16.3441 4.939 16.6381 4.97517 16.8831 5.0475C17.1304 5.1175 17.3322 5.21667 17.4886 5.345C17.6472 5.47333 17.7639 5.62733 17.8386 5.807C17.9132 5.98433 17.9506 6.18033 17.9506 6.395C17.9506 6.56533 17.9249 6.72633 17.8736 6.878C17.8246 7.02967 17.7522 7.16733 17.6566 7.291C17.5632 7.41467 17.4466 7.52317 17.3066 7.6165C17.1689 7.70983 17.0114 7.78333 16.8341 7.837C16.8947 7.872 16.9507 7.914 17.0021 7.963C17.0534 8.00967 17.1001 8.06567 17.1421 8.131L18.4091 10ZM19.7956 5.688V7.0915H21.5666V7.816H19.7956V9.2475H22.0426V10H18.8506V4.939H22.0426V5.688H19.7956ZM23.717 5.688V7.0915H25.488V7.816H23.717V9.2475H25.964V10H22.772V4.939H25.964V5.688H23.717ZM28.2229 7.347C28.4002 7.347 28.5542 7.32483 28.6849 7.2805C28.8179 7.23617 28.9264 7.1755 29.0104 7.0985C29.0967 7.01917 29.1609 6.92583 29.2029 6.8185C29.2449 6.71117 29.2659 6.59333 29.2659 6.465C29.2659 6.20833 29.1807 6.01117 29.0104 5.8735C28.8424 5.73583 28.5845 5.667 28.2369 5.667H27.6349V7.347H28.2229ZM30.6449 10H29.7944C29.6334 10 29.5167 9.937 29.4444 9.811L28.3804 8.1905C28.3407 8.12983 28.2964 8.08667 28.2474 8.061C28.2007 8.03533 28.1307 8.0225 28.0374 8.0225H27.6349V10H26.6934V4.939H28.2369C28.5799 4.939 28.8739 4.97517 29.1189 5.0475C29.3662 5.1175 29.568 5.21667 29.7244 5.345C29.883 5.47333 29.9997 5.62733 30.0744 5.807C30.149 5.98433 30.1864 6.18033 30.1864 6.395C30.1864 6.56533 30.1607 6.72633 30.1094 6.878C30.0604 7.02967 29.988 7.16733 29.8924 7.291C29.799 7.41467 29.6824 7.52317 29.5424 7.6165C29.4047 7.70983 29.2472 7.78333 29.0699 7.837C29.1305 7.872 29.1865 7.914 29.2379 7.963C29.2892 8.00967 29.3359 8.06567 29.3779 8.131L30.6449 10ZM33.0824 9.2405C33.2644 9.2405 33.4266 9.21017 33.5689 9.1495C33.7136 9.08883 33.8349 9.00367 33.9329 8.894C34.0309 8.78433 34.1056 8.65133 34.1569 8.495C34.2106 8.33867 34.2374 8.16367 34.2374 7.97V4.939H35.1789V7.97C35.1789 8.271 35.1299 8.54983 35.0319 8.8065C34.9362 9.06083 34.7974 9.28133 34.6154 9.468C34.4357 9.65233 34.2164 9.797 33.9574 9.902C33.6984 10.0047 33.4067 10.056 33.0824 10.056C32.7557 10.056 32.4629 10.0047 32.2039 9.902C31.9449 9.797 31.7244 9.65233 31.5424 9.468C31.3627 9.28133 31.2239 9.06083 31.1259 8.8065C31.0302 8.54983 30.9824 8.271 30.9824 7.97V4.939H31.9239V7.9665C31.9239 8.16017 31.9496 8.33517 32.0009 8.4915C32.0546 8.64783 32.1304 8.782 32.2284 8.894C32.3287 9.00367 32.4501 9.08883 32.5924 9.1495C32.7371 9.21017 32.9004 9.2405 33.0824 9.2405ZM40.4022 4.939V10H39.9192C39.8445 10 39.7815 9.98833 39.7302 9.965C39.6812 9.93933 39.6334 9.89733 39.5867 9.839L36.9442 6.465C36.9582 6.619 36.9652 6.76133 36.9652 6.892V10H36.1357V4.939H36.6292C36.6689 4.939 36.7027 4.94133 36.7307 4.946C36.761 4.94833 36.7867 4.95533 36.8077 4.967C36.831 4.97633 36.8532 4.9915 36.8742 5.0125C36.8952 5.03117 36.9185 5.05683 36.9442 5.0895L39.5972 8.4775C39.5902 8.39583 39.5844 8.31533 39.5797 8.236C39.575 8.15667 39.5727 8.08317 39.5727 8.0155V4.939H40.4022Z" fill="black"/>
<path d="M6.06734 19.56H6.28784C6.37651 19.56 6.45001 19.5483 6.50834 19.525C6.56668 19.4993 6.61684 19.4597 6.65884 19.406L8.05534 17.6385C8.11368 17.5638 8.17434 17.5125 8.23734 17.4845C8.30268 17.4542 8.38434 17.439 8.48234 17.439H9.29434L7.58984 19.5425C7.48951 19.6708 7.38568 19.7618 7.27834 19.8155C7.35534 19.8435 7.42418 19.8832 7.48484 19.9345C7.54784 19.9835 7.60734 20.0488 7.66334 20.1305L9.42034 22.5H8.59084C8.47884 22.5 8.39484 22.4848 8.33884 22.4545C8.28518 22.4218 8.23968 22.3752 8.20234 22.3145L6.77084 20.4455C6.72651 20.3825 6.67518 20.3382 6.61684 20.3125C6.55851 20.2868 6.47451 20.274 6.36484 20.274H6.06734V22.5H5.12584V17.439H6.06734V19.56ZM10.7647 18.188V19.5915H12.5357V20.316H10.7647V21.7475H13.0117V22.5H9.81967V17.439H13.0117V18.188H10.7647ZM15.9145 20.54V22.5H14.9765V20.54L13.132 17.439H13.9615C14.0432 17.439 14.1074 17.4588 14.154 17.4985C14.203 17.5382 14.2439 17.5883 14.2765 17.649L15.2005 19.3395C15.2542 19.4398 15.3009 19.5343 15.3405 19.623C15.3825 19.7117 15.4199 19.8003 15.4525 19.889C15.4829 19.8003 15.5179 19.7117 15.5575 19.623C15.5972 19.5343 15.6427 19.4398 15.694 19.3395L16.6145 17.649C16.6402 17.5977 16.6787 17.5498 16.73 17.5055C16.7814 17.4612 16.8467 17.439 16.926 17.439H17.759L15.9145 20.54ZM21.7101 18.2125H20.1841V22.5H19.2426V18.2125H17.7166V17.439H21.7101V18.2125ZM23.7969 19.847C23.9742 19.847 24.1282 19.8248 24.2589 19.7805C24.3919 19.7362 24.5004 19.6755 24.5844 19.5985C24.6707 19.5192 24.7349 19.4258 24.7769 19.3185C24.8189 19.2112 24.8399 19.0933 24.8399 18.965C24.8399 18.7083 24.7547 18.5112 24.5844 18.3735C24.4164 18.2358 24.1585 18.167 23.8109 18.167H23.2089V19.847H23.7969ZM26.2189 22.5H25.3684C25.2074 22.5 25.0907 22.437 25.0184 22.311L23.9544 20.6905C23.9147 20.6298 23.8704 20.5867 23.8214 20.561C23.7747 20.5353 23.7047 20.5225 23.6114 20.5225H23.2089V22.5H22.2674V17.439H23.8109C24.1539 17.439 24.4479 17.4752 24.6929 17.5475C24.9402 17.6175 25.142 17.7167 25.2984 17.845C25.457 17.9733 25.5737 18.1273 25.6484 18.307C25.723 18.4843 25.7604 18.6803 25.7604 18.895C25.7604 19.0653 25.7347 19.2263 25.6834 19.378C25.6344 19.5297 25.562 19.6673 25.4664 19.791C25.373 19.9147 25.2564 20.0232 25.1164 20.1165C24.9787 20.2098 24.8212 20.2833 24.6439 20.337C24.7045 20.372 24.7605 20.414 24.8119 20.463C24.8632 20.5097 24.9099 20.5657 24.9519 20.631L26.2189 22.5ZM27.6054 22.5H26.6604V17.439H27.6054V22.5ZM32.8055 19.9625V22.01C32.5489 22.199 32.2747 22.3378 31.983 22.4265C31.6937 22.5128 31.3834 22.556 31.052 22.556C30.639 22.556 30.2645 22.4918 29.9285 22.3635C29.5949 22.2352 29.309 22.0567 29.071 21.828C28.8354 21.5993 28.6534 21.3263 28.525 21.009C28.3967 20.6917 28.3325 20.3452 28.3325 19.9695C28.3325 19.5892 28.3944 19.2403 28.518 18.923C28.6417 18.6057 28.8167 18.3327 29.043 18.104C29.2717 17.8753 29.5482 17.698 29.8725 17.572C30.1969 17.446 30.5609 17.383 30.9645 17.383C31.1699 17.383 31.3612 17.3993 31.5385 17.432C31.7182 17.4647 31.8839 17.5102 32.0355 17.5685C32.1895 17.6245 32.3295 17.6933 32.4555 17.775C32.5815 17.8567 32.697 17.9465 32.802 18.0445L32.5325 18.4715C32.4905 18.5392 32.4357 18.5812 32.368 18.5975C32.3004 18.6115 32.2269 18.594 32.1475 18.545C32.0705 18.5007 31.9935 18.4563 31.9165 18.412C31.8395 18.3677 31.7532 18.3292 31.6575 18.2965C31.5642 18.2638 31.458 18.237 31.339 18.216C31.2224 18.195 31.087 18.1845 30.933 18.1845C30.6834 18.1845 30.457 18.2265 30.254 18.3105C30.0534 18.3945 29.8819 18.5147 29.7395 18.671C29.5972 18.8273 29.4875 19.0152 29.4105 19.2345C29.3335 19.4538 29.295 19.6988 29.295 19.9695C29.295 20.2588 29.3359 20.5178 29.4175 20.7465C29.5015 20.9728 29.6182 21.1653 29.7675 21.324C29.9192 21.4803 30.1012 21.6005 30.3135 21.6845C30.5259 21.7662 30.7627 21.807 31.024 21.807C31.2107 21.807 31.3775 21.7872 31.5245 21.7475C31.6715 21.7078 31.815 21.6542 31.955 21.5865V20.6695H31.318C31.2574 20.6695 31.2095 20.6532 31.1745 20.6205C31.1419 20.5855 31.1255 20.5435 31.1255 20.4945V19.9625H32.8055ZM37.7796 19.9625V22.01C37.523 22.199 37.2488 22.3378 36.9571 22.4265C36.6678 22.5128 36.3575 22.556 36.0261 22.556C35.6131 22.556 35.2386 22.4918 34.9026 22.3635C34.569 22.2352 34.2831 22.0567 34.0451 21.828C33.8095 21.5993 33.6275 21.3263 33.4991 21.009C33.3708 20.6917 33.3066 20.3452 33.3066 19.9695C33.3066 19.5892 33.3685 19.2403 33.4921 18.923C33.6158 18.6057 33.7908 18.3327 34.0171 18.104C34.2458 17.8753 34.5223 17.698 34.8466 17.572C35.171 17.446 35.535 17.383 35.9386 17.383C36.144 17.383 36.3353 17.3993 36.5126 17.432C36.6923 17.4647 36.858 17.5102 37.0096 17.5685C37.1636 17.6245 37.3036 17.6933 37.4296 17.775C37.5556 17.8567 37.6711 17.9465 37.7761 18.0445L37.5066 18.4715C37.4646 18.5392 37.4098 18.5812 37.3421 18.5975C37.2745 18.6115 37.201 18.594 37.1216 18.545C37.0446 18.5007 36.9676 18.4563 36.8906 18.412C36.8136 18.3677 36.7273 18.3292 36.6316 18.2965C36.5383 18.2638 36.4321 18.237 36.3131 18.216C36.1965 18.195 36.0611 18.1845 35.9071 18.1845C35.6575 18.1845 35.4311 18.2265 35.2281 18.3105C35.0275 18.3945 34.856 18.5147 34.7136 18.671C34.5713 18.8273 34.4616 19.0152 34.3846 19.2345C34.3076 19.4538 34.2691 19.6988 34.2691 19.9695C34.2691 20.2588 34.31 20.5178 34.3916 20.7465C34.4756 20.9728 34.5923 21.1653 34.7416 21.324C34.8933 21.4803 35.0753 21.6005 35.2876 21.6845C35.5 21.7662 35.7368 21.807 35.9981 21.807C36.1848 21.807 36.3516 21.7872 36.4986 21.7475C36.6456 21.7078 36.7891 21.6542 36.9291 21.5865V20.6695H36.2921C36.2315 20.6695 36.1836 20.6532 36.1486 20.6205C36.116 20.5855 36.0996 20.5435 36.0996 20.4945V19.9625H37.7796ZM39.5267 18.188V19.5915H41.2977V20.316H39.5267V21.7475H41.7737V22.5H38.5817V17.439H41.7737V18.188H39.5267ZM44.0326 19.847C44.2099 19.847 44.3639 19.8248 44.4946 19.7805C44.6276 19.7362 44.7361 19.6755 44.8201 19.5985C44.9064 19.5192 44.9706 19.4258 45.0126 19.3185C45.0546 19.2112 45.0756 19.0933 45.0756 18.965C45.0756 18.7083 44.9904 18.5112 44.8201 18.3735C44.6521 18.2358 44.3943 18.167 44.0466 18.167H43.4446V19.847H44.0326ZM46.4546 22.5H45.6041C45.4431 22.5 45.3264 22.437 45.2541 22.311L44.1901 20.6905C44.1504 20.6298 44.1061 20.5867 44.0571 20.561C44.0104 20.5353 43.9404 20.5225 43.8471 20.5225H43.4446V22.5H42.5031V17.439H44.0466C44.3896 17.439 44.6836 17.4752 44.9286 17.5475C45.1759 17.6175 45.3778 17.7167 45.5341 17.845C45.6928 17.9733 45.8094 18.1273 45.8841 18.307C45.9588 18.4843 45.9961 18.6803 45.9961 18.895C45.9961 19.0653 45.9704 19.2263 45.9191 19.378C45.8701 19.5297 45.7978 19.6673 45.7021 19.791C45.6088 19.9147 45.4921 20.0232 45.3521 20.1165C45.2144 20.2098 45.0569 20.2833 44.8796 20.337C44.9403 20.372 44.9963 20.414 45.0476 20.463C45.0989 20.5097 45.1456 20.5657 45.1876 20.631L46.4546 22.5Z" fill="black"/>
<path d="M11.6817 32.097C11.859 32.097 12.013 32.0748 12.1437 32.0305C12.2767 31.9862 12.3852 31.9255 12.4692 31.8485C12.5555 31.7692 12.6197 31.6758 12.6617 31.5685C12.7037 31.4612 12.7247 31.3433 12.7247 31.215C12.7247 30.9583 12.6395 30.7612 12.4692 30.6235C12.3012 30.4858 12.0433 30.417 11.6957 30.417H11.0937V32.097H11.6817ZM14.1037 34.75H13.2532C13.0922 34.75 12.9755 34.687 12.9032 34.561L11.8392 32.9405C11.7995 32.8798 11.7552 32.8367 11.7062 32.811C11.6595 32.7853 11.5895 32.7725 11.4962 32.7725H11.0937V34.75H10.1522V29.689H11.6957C12.0387 29.689 12.3327 29.7252 12.5777 29.7975C12.825 29.8675 13.0268 29.9667 13.1832 30.095C13.3418 30.2233 13.4585 30.3773 13.5332 30.557C13.6078 30.7343 13.6452 30.9303 13.6452 31.145C13.6452 31.3153 13.6195 31.4763 13.5682 31.628C13.5192 31.7797 13.4468 31.9173 13.3512 32.041C13.2578 32.1647 13.1412 32.2732 13.0012 32.3665C12.8635 32.4598 12.706 32.5333 12.5287 32.587C12.5893 32.622 12.6453 32.664 12.6967 32.713C12.748 32.7597 12.7947 32.8157 12.8367 32.881L14.1037 34.75ZM17.2192 32.839L16.6032 31.1555C16.5729 31.0808 16.5414 30.9922 16.5087 30.8895C16.4761 30.7868 16.4434 30.676 16.4107 30.557C16.3804 30.676 16.3489 30.788 16.3162 30.893C16.2836 30.9957 16.2521 31.0855 16.2217 31.1625L15.6092 32.839H17.2192ZM18.8817 34.75H18.1537C18.0721 34.75 18.0056 34.7302 17.9542 34.6905C17.9029 34.6485 17.8644 34.5972 17.8387 34.5365L17.4607 33.504H15.3642L14.9862 34.5365C14.9676 34.5902 14.9314 34.6392 14.8777 34.6835C14.8241 34.7278 14.7576 34.75 14.6782 34.75H13.9432L15.9347 29.689H16.8937L18.8817 34.75ZM23.5671 29.689V34.75H23.0841C23.0094 34.75 22.9464 34.7383 22.8951 34.715C22.8461 34.6893 22.7982 34.6473 22.7516 34.589L20.1091 31.215C20.1231 31.369 20.1301 31.5113 20.1301 31.642V34.75H19.3006V29.689H19.7941C19.8337 29.689 19.8676 29.6913 19.8956 29.696C19.9259 29.6983 19.9516 29.7053 19.9726 29.717C19.9959 29.7263 20.0181 29.7415 20.0391 29.7625C20.0601 29.7812 20.0834 29.8068 20.1091 29.8395L22.7621 33.2275C22.7551 33.1458 22.7492 33.0653 22.7446 32.986C22.7399 32.9067 22.7376 32.8332 22.7376 32.7655V29.689H23.5671ZM29.0831 32.2195C29.0831 32.5905 29.0213 32.9312 28.8976 33.2415C28.774 33.5518 28.6001 33.819 28.3761 34.043C28.1521 34.267 27.8826 34.4408 27.5676 34.5645C27.2526 34.6882 26.9026 34.75 26.5176 34.75H24.5891V29.689H26.5176C26.9026 29.689 27.2526 29.752 27.5676 29.878C27.8826 30.0017 28.1521 30.1755 28.3761 30.3995C28.6001 30.6212 28.774 30.8872 28.8976 31.1975C29.0213 31.5078 29.0831 31.8485 29.0831 32.2195ZM28.1171 32.2195C28.1171 31.9418 28.0798 31.6933 28.0051 31.474C27.9328 31.2523 27.8266 31.0657 27.6866 30.914C27.549 30.76 27.381 30.6422 27.1826 30.5605C26.9866 30.4788 26.765 30.438 26.5176 30.438H25.5341V34.001H26.5176C26.765 34.001 26.9866 33.9602 27.1826 33.8785C27.381 33.7968 27.549 33.6802 27.6866 33.5285C27.8266 33.3745 27.9328 33.1878 28.0051 32.9685C28.0798 32.7468 28.1171 32.4972 28.1171 32.2195ZM34.6358 32.2195C34.6358 32.5905 34.574 32.9347 34.4503 33.252C34.329 33.567 34.1563 33.84 33.9323 34.071C33.7083 34.302 33.4388 34.4828 33.1238 34.6135C32.8088 34.7418 32.4588 34.806 32.0738 34.806C31.6912 34.806 31.3423 34.7418 31.0273 34.6135C30.7123 34.4828 30.4417 34.302 30.2153 34.071C29.9913 33.84 29.8175 33.567 29.6938 33.252C29.5702 32.9347 29.5083 32.5905 29.5083 32.2195C29.5083 31.8485 29.5702 31.5055 29.6938 31.1905C29.8175 30.8732 29.9913 30.599 30.2153 30.368C30.4417 30.137 30.7123 29.9573 31.0273 29.829C31.3423 29.6983 31.6912 29.633 32.0738 29.633C32.3305 29.633 32.572 29.6633 32.7983 29.724C33.0247 29.7823 33.2323 29.8663 33.4213 29.976C33.6103 30.0833 33.7795 30.2152 33.9288 30.3715C34.0805 30.5255 34.2088 30.6982 34.3138 30.8895C34.4188 31.0808 34.4982 31.2885 34.5518 31.5125C34.6078 31.7365 34.6358 31.9722 34.6358 32.2195ZM33.6733 32.2195C33.6733 31.9418 33.636 31.6933 33.5613 31.474C33.4867 31.2523 33.3805 31.0645 33.2428 30.9105C33.1052 30.7565 32.9372 30.6387 32.7388 30.557C32.5428 30.4753 32.3212 30.4345 32.0738 30.4345C31.8265 30.4345 31.6037 30.4753 31.4053 30.557C31.2093 30.6387 31.0413 30.7565 30.9013 30.9105C30.7637 31.0645 30.6575 31.2523 30.5828 31.474C30.5082 31.6933 30.4708 31.9418 30.4708 32.2195C30.4708 32.4972 30.5082 32.7468 30.5828 32.9685C30.6575 33.1878 30.7637 33.3745 30.9013 33.5285C31.0413 33.6802 31.2093 33.7968 31.4053 33.8785C31.6037 33.9602 31.8265 34.001 32.0738 34.001C32.3212 34.001 32.5428 33.9602 32.7388 33.8785C32.9372 33.7968 33.1052 33.6802 33.2428 33.5285C33.3805 33.3745 33.4867 33.1878 33.5613 32.9685C33.636 32.7468 33.6733 32.4972 33.6733 32.2195ZM40.8456 29.689V34.75H40.0161V31.481C40.0161 31.3503 40.0231 31.2092 40.0371 31.0575L38.5076 33.931C38.4353 34.0687 38.3245 34.1375 38.1751 34.1375H38.0421C37.8928 34.1375 37.782 34.0687 37.7096 33.931L36.1626 31.047C36.1696 31.124 36.1755 31.1998 36.1801 31.2745C36.1848 31.3492 36.1871 31.418 36.1871 31.481V34.75H35.3576V29.689H36.0681C36.1101 29.689 36.1463 29.6902 36.1766 29.6925C36.207 29.6948 36.2338 29.7007 36.2571 29.71C36.2828 29.7193 36.305 29.7345 36.3236 29.7555C36.3446 29.7765 36.3645 29.8045 36.3831 29.8395L37.8986 32.65C37.9383 32.7247 37.9745 32.8017 38.0071 32.881C38.0421 32.9603 38.076 33.042 38.1086 33.126C38.1413 33.0397 38.1751 32.9568 38.2101 32.8775C38.2451 32.7958 38.2825 32.7177 38.3221 32.643L39.8166 29.8395C39.8353 29.8045 39.8551 29.7765 39.8761 29.7555C39.8971 29.7345 39.9193 29.7193 39.9426 29.71C39.9683 29.7007 39.9963 29.6948 40.0266 29.6925C40.057 29.6902 40.0931 29.689 40.1351 29.689H40.8456Z" fill="black"/>
</g>
<path d="M3.5 1H47.5V0H3.5V1ZM50 3.5V35.5H51V3.5H50ZM47.5 38H3.5V39H47.5V38ZM1 35.5V3.5H0V35.5H1ZM3.5 38C2.11929 38 1 36.8807 1 35.5H0C0 37.433 1.567 39 3.5 39V38ZM50 35.5C50 36.8807 48.8807 38 47.5 38V39C49.433 39 51 37.433 51 35.5H50ZM47.5 1C48.8807 1 50 2.11929 50 3.5H51C51 1.567 49.433 0 47.5 0V1ZM3.5 0C1.567 0 0 1.567 0 3.5H1C1 2.11929 2.11929 1 3.5 1V0Z" fill="#595959"/>
<path d="M0.5 42.5C0.5 40.8431 1.84315 39.5 3.5 39.5H47.5C49.1569 39.5 50.5 40.8431 50.5 42.5V74.5C50.5 76.1569 49.1569 77.5 47.5 77.5H3.5C1.84315 77.5 0.5 76.1569 0.5 74.5V42.5Z" fill="#787878"/>
<path fill-rule="evenodd" clip-rule="evenodd" d="M1.5 65.5V74.5C1.5 75.6046 2.39543 76.5 3.5 76.5H47.5C48.6046 76.5 49.5 75.6046 49.5 74.5V65.5H1.5Z" fill="url(#paint12_linear)"/>
<path d="M1.5 65.5V65H1V65.5H1.5ZM49.5 65.5H50V65H49.5V65.5ZM2 74.5V65.5H1V74.5H2ZM3.5 76C2.67157 76 2 75.3284 2 74.5H1C1 75.8807 2.11929 77 3.5 77V76ZM47.5 76H3.5V77H47.5V76ZM49 74.5C49 75.3284 48.3284 76 47.5 76V77C48.8807 77 50 75.8807 50 74.5H49ZM49 65.5V74.5H50V65.5H49ZM49.5 65H1.5V66H49.5V65Z" fill="url(#paint13_linear)"/>
<path fill-rule="evenodd" clip-rule="evenodd" d="M1.5 65.5V74.5C1.5 75.6046 2.39543 76.5 3.5 76.5H47.5C48.6046 76.5 49.5 75.6046 49.5 74.5V65.5H1.5Z" fill="url(#paint14_linear)"/>
<path d="M1.5 65.5V65H1V65.5H1.5ZM49.5 65.5H50V65H49.5V65.5ZM2 74.5V65.5H1V74.5H2ZM3.5 76C2.67157 76 2 75.3284 2 74.5H1C1 75.8807 2.11929 77 3.5 77V76ZM47.5 76H3.5V77H47.5V76ZM49 74.5C49 75.3284 48.3284 76 47.5 76V77C48.8807 77 50 75.8807 50 74.5H49ZM49 65.5V74.5H50V65.5H49ZM49.5 65H1.5V66H49.5V65Z" fill="url(#paint15_linear)"/>
<rect x="1.5" y="53" width="48" height="11" fill="url(#paint16_linear)" stroke="url(#paint17_linear)" stroke-width="0.956522"/>
<path d="M1.5 42.5C1.5 41.3954 2.39543 40.5 3.5 40.5H47.5C48.6046 40.5 49.5 41.3954 49.5 42.5V49.5C49.5 50.6046 48.6046 51.5 47.5 51.5H3.5C2.39543 51.5 1.5 50.6046 1.5 49.5V42.5Z" fill="url(#paint18_linear)"/>
<path d="M1.5 48.5H49.5V51.5H1.5V48.5Z" fill="url(#paint19_linear)"/>
<path d="M1.5 42.5C1.5 41.3954 2.39543 40.5 3.5 40.5H47.5C48.6046 40.5 49.5 41.3954 49.5 42.5V49.5C49.5 50.6046 48.6046 51.5 47.5 51.5H3.5C2.39543 51.5 1.5 50.6046 1.5 49.5V42.5Z" stroke="url(#paint20_linear)"/>
<path d="M1.5 48.5H49.5V51.5H1.5V48.5Z" stroke="url(#paint21_linear)"/>
<path d="M11.5427 44.688V46.186H13.4397V46.9385H11.5427V49H10.5977V43.939H13.7897V44.688H11.5427ZM15.9871 46.347C16.1644 46.347 16.3184 46.3248 16.4491 46.2805C16.5821 46.2362 16.6906 46.1755 16.7746 46.0985C16.8609 46.0192 16.9251 45.9258 16.9671 45.8185C17.0091 45.7112 17.0301 45.5933 17.0301 45.465C17.0301 45.2083 16.9449 45.0112 16.7746 44.8735C16.6066 44.7358 16.3487 44.667 16.0011 44.667H15.3991V46.347H15.9871ZM18.4091 49H17.5586C17.3976 49 17.2809 48.937 17.2086 48.811L16.1446 47.1905C16.1049 47.1298 16.0606 47.0867 16.0116 47.061C15.9649 47.0353 15.8949 47.0225 15.8016 47.0225H15.3991V49H14.4576V43.939H16.0011C16.3441 43.939 16.6381 43.9752 16.8831 44.0475C17.1304 44.1175 17.3322 44.2167 17.4886 44.345C17.6472 44.4733 17.7639 44.6273 17.8386 44.807C17.9132 44.9843 17.9506 45.1803 17.9506 45.395C17.9506 45.5653 17.9249 45.7263 17.8736 45.878C17.8246 46.0297 17.7522 46.1673 17.6566 46.291C17.5632 46.4147 17.4466 46.5232 17.3066 46.6165C17.1689 46.7098 17.0114 46.7833 16.8341 46.837C16.8947 46.872 16.9507 46.914 17.0021 46.963C17.0534 47.0097 17.1001 47.0657 17.1421 47.131L18.4091 49ZM19.7956 44.688V46.0915H21.5666V46.816H19.7956V48.2475H22.0426V49H18.8506V43.939H22.0426V44.688H19.7956ZM23.717 44.688V46.0915H25.488V46.816H23.717V48.2475H25.964V49H22.772V43.939H25.964V44.688H23.717ZM28.2229 46.347C28.4002 46.347 28.5542 46.3248 28.6849 46.2805C28.8179 46.2362 28.9264 46.1755 29.0104 46.0985C29.0967 46.0192 29.1609 45.9258 29.2029 45.8185C29.2449 45.7112 29.2659 45.5933 29.2659 45.465C29.2659 45.2083 29.1807 45.0112 29.0104 44.8735C28.8424 44.7358 28.5845 44.667 28.2369 44.667H27.6349V46.347H28.2229ZM30.6449 49H29.7944C29.6334 49 29.5167 48.937 29.4444 48.811L28.3804 47.1905C28.3407 47.1298 28.2964 47.0867 28.2474 47.061C28.2007 47.0353 28.1307 47.0225 28.0374 47.0225H27.6349V49H26.6934V43.939H28.2369C28.5799 43.939 28.8739 43.9752 29.1189 44.0475C29.3662 44.1175 29.568 44.2167 29.7244 44.345C29.883 44.4733 29.9997 44.6273 30.0744 44.807C30.149 44.9843 30.1864 45.1803 30.1864 45.395C30.1864 45.5653 30.1607 45.7263 30.1094 45.878C30.0604 46.0297 29.988 46.1673 29.8924 46.291C29.799 46.4147 29.6824 46.5232 29.5424 46.6165C29.4047 46.7098 29.2472 46.7833 29.0699 46.837C29.1305 46.872 29.1865 46.914 29.2379 46.963C29.2892 47.0097 29.3359 47.0657 29.3779 47.131L30.6449 49ZM33.0824 48.2405C33.2644 48.2405 33.4266 48.2102 33.5689 48.1495C33.7136 48.0888 33.8349 48.0037 33.9329 47.894C34.0309 47.7843 34.1056 47.6513 34.1569 47.495C34.2106 47.3387 34.2374 47.1637 34.2374 46.97V43.939H35.1789V46.97C35.1789 47.271 35.1299 47.5498 35.0319 47.8065C34.9362 48.0608 34.7974 48.2813 34.6154 48.468C34.4357 48.6523 34.2164 48.797 33.9574 48.902C33.6984 49.0047 33.4067 49.056 33.0824 49.056C32.7557 49.056 32.4629 49.0047 32.2039 48.902C31.9449 48.797 31.7244 48.6523 31.5424 48.468C31.3627 48.2813 31.2239 48.0608 31.1259 47.8065C31.0302 47.5498 30.9824 47.271 30.9824 46.97V43.939H31.9239V46.9665C31.9239 47.1602 31.9496 47.3352 32.0009 47.4915C32.0546 47.6478 32.1304 47.782 32.2284 47.894C32.3287 48.0037 32.4501 48.0888 32.5924 48.1495C32.7371 48.2102 32.9004 48.2405 33.0824 48.2405ZM40.4022 43.939V49H39.9192C39.8445 49 39.7815 48.9883 39.7302 48.965C39.6812 48.9393 39.6334 48.8973 39.5867 48.839L36.9442 45.465C36.9582 45.619 36.9652 45.7613 36.9652 45.892V49H36.1357V43.939H36.6292C36.6689 43.939 36.7027 43.9413 36.7307 43.946C36.761 43.9483 36.7867 43.9553 36.8077 43.967C36.831 43.9763 36.8532 43.9915 36.8742 44.0125C36.8952 44.0312 36.9185 44.0568 36.9442 44.0895L39.5972 47.4775C39.5902 47.3958 39.5844 47.3153 39.5797 47.236C39.575 47.1567 39.5727 47.0832 39.5727 47.0155V43.939H40.4022Z" fill="black"/>
<path d="M2.5 55C2.5 54.4477 2.94772 54 3.5 54H47.5C48.0523 54 48.5 54.4477 48.5 55V62C48.5 62.5523 48.0523 63 47.5 63H3.5C2.94772 63 2.5 62.5523 2.5 62V55Z" fill="#FF9A10"/>
<rect x="2" y="53.5" width="47" height="10" fill="url(#paint22_linear)"/>
<rect x="2" y="53.5" width="47" height="10" stroke="url(#paint23_linear)"/>
<path d="M6.06734 58.56H6.28784C6.37651 58.56 6.45001 58.5483 6.50834 58.525C6.56668 58.4993 6.61684 58.4597 6.65884 58.406L8.05534 56.6385C8.11368 56.5638 8.17434 56.5125 8.23734 56.4845C8.30268 56.4542 8.38434 56.439 8.48234 56.439H9.29434L7.58984 58.5425C7.48951 58.6708 7.38568 58.7618 7.27834 58.8155C7.35534 58.8435 7.42418 58.8832 7.48484 58.9345C7.54784 58.9835 7.60734 59.0488 7.66334 59.1305L9.42034 61.5H8.59084C8.47884 61.5 8.39484 61.4848 8.33884 61.4545C8.28518 61.4218 8.23968 61.3752 8.20234 61.3145L6.77084 59.4455C6.72651 59.3825 6.67518 59.3382 6.61684 59.3125C6.55851 59.2868 6.47451 59.274 6.36484 59.274H6.06734V61.5H5.12584V56.439H6.06734V58.56ZM10.7647 57.188V58.5915H12.5357V59.316H10.7647V60.7475H13.0117V61.5H9.81967V56.439H13.0117V57.188H10.7647ZM15.9145 59.54V61.5H14.9765V59.54L13.132 56.439H13.9615C14.0432 56.439 14.1074 56.4588 14.154 56.4985C14.203 56.5382 14.2439 56.5883 14.2765 56.649L15.2005 58.3395C15.2542 58.4398 15.3009 58.5343 15.3405 58.623C15.3825 58.7117 15.4199 58.8003 15.4525 58.889C15.4829 58.8003 15.5179 58.7117 15.5575 58.623C15.5972 58.5343 15.6427 58.4398 15.694 58.3395L16.6145 56.649C16.6402 56.5977 16.6787 56.5498 16.73 56.5055C16.7814 56.4612 16.8467 56.439 16.926 56.439H17.759L15.9145 59.54ZM21.7101 57.2125H20.1841V61.5H19.2426V57.2125H17.7166V56.439H21.7101V57.2125ZM23.7969 58.847C23.9742 58.847 24.1282 58.8248 24.2589 58.7805C24.3919 58.7362 24.5004 58.6755 24.5844 58.5985C24.6707 58.5192 24.7349 58.4258 24.7769 58.3185C24.8189 58.2112 24.8399 58.0933 24.8399 57.965C24.8399 57.7083 24.7547 57.5112 24.5844 57.3735C24.4164 57.2358 24.1585 57.167 23.8109 57.167H23.2089V58.847H23.7969ZM26.2189 61.5H25.3684C25.2074 61.5 25.0907 61.437 25.0184 61.311L23.9544 59.6905C23.9147 59.6298 23.8704 59.5867 23.8214 59.561C23.7747 59.5353 23.7047 59.5225 23.6114 59.5225H23.2089V61.5H22.2674V56.439H23.8109C24.1539 56.439 24.4479 56.4752 24.6929 56.5475C24.9402 56.6175 25.142 56.7167 25.2984 56.845C25.457 56.9733 25.5737 57.1273 25.6484 57.307C25.723 57.4843 25.7604 57.6803 25.7604 57.895C25.7604 58.0653 25.7347 58.2263 25.6834 58.378C25.6344 58.5297 25.562 58.6673 25.4664 58.791C25.373 58.9147 25.2564 59.0232 25.1164 59.1165C24.9787 59.2098 24.8212 59.2833 24.6439 59.337C24.7045 59.372 24.7605 59.414 24.8119 59.463C24.8632 59.5097 24.9099 59.5657 24.9519 59.631L26.2189 61.5ZM27.6054 61.5H26.6604V56.439H27.6054V61.5ZM32.8055 58.9625V61.01C32.5489 61.199 32.2747 61.3378 31.983 61.4265C31.6937 61.5128 31.3834 61.556 31.052 61.556C30.639 61.556 30.2645 61.4918 29.9285 61.3635C29.5949 61.2352 29.309 61.0567 29.071 60.828C28.8354 60.5993 28.6534 60.3263 28.525 60.009C28.3967 59.6917 28.3325 59.3452 28.3325 58.9695C28.3325 58.5892 28.3944 58.2403 28.518 57.923C28.6417 57.6057 28.8167 57.3327 29.043 57.104C29.2717 56.8753 29.5482 56.698 29.8725 56.572C30.1969 56.446 30.5609 56.383 30.9645 56.383C31.1699 56.383 31.3612 56.3993 31.5385 56.432C31.7182 56.4647 31.8839 56.5102 32.0355 56.5685C32.1895 56.6245 32.3295 56.6933 32.4555 56.775C32.5815 56.8567 32.697 56.9465 32.802 57.0445L32.5325 57.4715C32.4905 57.5392 32.4357 57.5812 32.368 57.5975C32.3004 57.6115 32.2269 57.594 32.1475 57.545C32.0705 57.5007 31.9935 57.4563 31.9165 57.412C31.8395 57.3677 31.7532 57.3292 31.6575 57.2965C31.5642 57.2638 31.458 57.237 31.339 57.216C31.2224 57.195 31.087 57.1845 30.933 57.1845C30.6834 57.1845 30.457 57.2265 30.254 57.3105C30.0534 57.3945 29.8819 57.5147 29.7395 57.671C29.5972 57.8273 29.4875 58.0152 29.4105 58.2345C29.3335 58.4538 29.295 58.6988 29.295 58.9695C29.295 59.2588 29.3359 59.5178 29.4175 59.7465C29.5015 59.9728 29.6182 60.1653 29.7675 60.324C29.9192 60.4803 30.1012 60.6005 30.3135 60.6845C30.5259 60.7662 30.7627 60.807 31.024 60.807C31.2107 60.807 31.3775 60.7872 31.5245 60.7475C31.6715 60.7078 31.815 60.6542 31.955 60.5865V59.6695H31.318C31.2574 59.6695 31.2095 59.6532 31.1745 59.6205C31.1419 59.5855 31.1255 59.5435 31.1255 59.4945V58.9625H32.8055ZM37.7796 58.9625V61.01C37.523 61.199 37.2488 61.3378 36.9571 61.4265C36.6678 61.5128 36.3575 61.556 36.0261 61.556C35.6131 61.556 35.2386 61.4918 34.9026 61.3635C34.569 61.2352 34.2831 61.0567 34.0451 60.828C33.8095 60.5993 33.6275 60.3263 33.4991 60.009C33.3708 59.6917 33.3066 59.3452 33.3066 58.9695C33.3066 58.5892 33.3685 58.2403 33.4921 57.923C33.6158 57.6057 33.7908 57.3327 34.0171 57.104C34.2458 56.8753 34.5223 56.698 34.8466 56.572C35.171 56.446 35.535 56.383 35.9386 56.383C36.144 56.383 36.3353 56.3993 36.5126 56.432C36.6923 56.4647 36.858 56.5102 37.0096 56.5685C37.1636 56.6245 37.3036 56.6933 37.4296 56.775C37.5556 56.8567 37.6711 56.9465 37.7761 57.0445L37.5066 57.4715C37.4646 57.5392 37.4098 57.5812 37.3421 57.5975C37.2745 57.6115 37.201 57.594 37.1216 57.545C37.0446 57.5007 36.9676 57.4563 36.8906 57.412C36.8136 57.3677 36.7273 57.3292 36.6316 57.2965C36.5383 57.2638 36.4321 57.237 36.3131 57.216C36.1965 57.195 36.0611 57.1845 35.9071 57.1845C35.6575 57.1845 35.4311 57.2265 35.2281 57.3105C35.0275 57.3945 34.856 57.5147 34.7136 57.671C34.5713 57.8273 34.4616 58.0152 34.3846 58.2345C34.3076 58.4538 34.2691 58.6988 34.2691 58.9695C34.2691 59.2588 34.31 59.5178 34.3916 59.7465C34.4756 59.9728 34.5923 60.1653 34.7416 60.324C34.8933 60.4803 35.0753 60.6005 35.2876 60.6845C35.5 60.7662 35.7368 60.807 35.9981 60.807C36.1848 60.807 36.3516 60.7872 36.4986 60.7475C36.6456 60.7078 36.7891 60.6542 36.9291 60.5865V59.6695H36.2921C36.2315 59.6695 36.1836 59.6532 36.1486 59.6205C36.116 59.5855 36.0996 59.5435 36.0996 59.4945V58.9625H37.7796ZM39.5267 57.188V58.5915H41.2977V59.316H39.5267V60.7475H41.7737V61.5H38.5817V56.439H41.7737V57.188H39.5267ZM44.0326 58.847C44.2099 58.847 44.3639 58.8248 44.4946 58.7805C44.6276 58.7362 44.7361 58.6755 44.8201 58.5985C44.9064 58.5192 44.9706 58.4258 45.0126 58.3185C45.0546 58.2112 45.0756 58.0933 45.0756 57.965C45.0756 57.7083 44.9904 57.5112 44.8201 57.3735C44.6521 57.2358 44.3943 57.167 44.0466 57.167H43.4446V58.847H44.0326ZM46.4546 61.5H45.6041C45.4431 61.5 45.3264 61.437 45.2541 61.311L44.1901 59.6905C44.1504 59.6298 44.1061 59.5867 44.0571 59.561C44.0104 59.5353 43.9404 59.5225 43.8471 59.5225H43.4446V61.5H42.5031V56.439H44.0466C44.3896 56.439 44.6836 56.4752 44.9286 56.5475C45.1759 56.6175 45.3778 56.7167 45.5341 56.845C45.6928 56.9733 45.8094 57.1273 45.8841 57.307C45.9588 57.4843 45.9961 57.6803 45.9961 57.895C45.9961 58.0653 45.9704 58.2263 45.9191 58.378C45.8701 58.5297 45.7978 58.6673 45.7021 58.791C45.6088 58.9147 45.4921 59.0232 45.3521 59.1165C45.2144 59.2098 45.0569 59.2833 44.8796 59.337C44.9403 59.372 44.9963 59.414 45.0476 59.463C45.0989 59.5097 45.1456 59.5657 45.1876 59.631L46.4546 61.5Z" fill="black"/>
<path d="M11.6817 71.097C11.859 71.097 12.013 71.0748 12.1437 71.0305C12.2767 70.9862 12.3852 70.9255 12.4692 70.8485C12.5555 70.7692 12.6197 70.6758 12.6617 70.5685C12.7037 70.4612 12.7247 70.3433 12.7247 70.215C12.7247 69.9583 12.6395 69.7612 12.4692 69.6235C12.3012 69.4858 12.0433 69.417 11.6957 69.417H11.0937V71.097H11.6817ZM14.1037 73.75H13.2532C13.0922 73.75 12.9755 73.687 12.9032 73.561L11.8392 71.9405C11.7995 71.8798 11.7552 71.8367 11.7062 71.811C11.6595 71.7853 11.5895 71.7725 11.4962 71.7725H11.0937V73.75H10.1522V68.689H11.6957C12.0387 68.689 12.3327 68.7252 12.5777 68.7975C12.825 68.8675 13.0268 68.9667 13.1832 69.095C13.3418 69.2233 13.4585 69.3773 13.5332 69.557C13.6078 69.7343 13.6452 69.9303 13.6452 70.145C13.6452 70.3153 13.6195 70.4763 13.5682 70.628C13.5192 70.7797 13.4468 70.9173 13.3512 71.041C13.2578 71.1647 13.1412 71.2732 13.0012 71.3665C12.8635 71.4598 12.706 71.5333 12.5287 71.587C12.5893 71.622 12.6453 71.664 12.6967 71.713C12.748 71.7597 12.7947 71.8157 12.8367 71.881L14.1037 73.75ZM17.2192 71.839L16.6032 70.1555C16.5729 70.0808 16.5414 69.9922 16.5087 69.8895C16.4761 69.7868 16.4434 69.676 16.4107 69.557C16.3804 69.676 16.3489 69.788 16.3162 69.893C16.2836 69.9957 16.2521 70.0855 16.2217 70.1625L15.6092 71.839H17.2192ZM18.8817 73.75H18.1537C18.0721 73.75 18.0056 73.7302 17.9542 73.6905C17.9029 73.6485 17.8644 73.5972 17.8387 73.5365L17.4607 72.504H15.3642L14.9862 73.5365C14.9676 73.5902 14.9314 73.6392 14.8777 73.6835C14.8241 73.7278 14.7576 73.75 14.6782 73.75H13.9432L15.9347 68.689H16.8937L18.8817 73.75ZM23.5671 68.689V73.75H23.0841C23.0094 73.75 22.9464 73.7383 22.8951 73.715C22.8461 73.6893 22.7982 73.6473 22.7516 73.589L20.1091 70.215C20.1231 70.369 20.1301 70.5113 20.1301 70.642V73.75H19.3006V68.689H19.7941C19.8337 68.689 19.8676 68.6913 19.8956 68.696C19.9259 68.6983 19.9516 68.7053 19.9726 68.717C19.9959 68.7263 20.0181 68.7415 20.0391 68.7625C20.0601 68.7812 20.0834 68.8068 20.1091 68.8395L22.7621 72.2275C22.7551 72.1458 22.7492 72.0653 22.7446 71.986C22.7399 71.9067 22.7376 71.8332 22.7376 71.7655V68.689H23.5671ZM29.0831 71.2195C29.0831 71.5905 29.0213 71.9312 28.8976 72.2415C28.774 72.5518 28.6001 72.819 28.3761 73.043C28.1521 73.267 27.8826 73.4408 27.5676 73.5645C27.2526 73.6882 26.9026 73.75 26.5176 73.75H24.5891V68.689H26.5176C26.9026 68.689 27.2526 68.752 27.5676 68.878C27.8826 69.0017 28.1521 69.1755 28.3761 69.3995C28.6001 69.6212 28.774 69.8872 28.8976 70.1975C29.0213 70.5078 29.0831 70.8485 29.0831 71.2195ZM28.1171 71.2195C28.1171 70.9418 28.0798 70.6933 28.0051 70.474C27.9328 70.2523 27.8266 70.0657 27.6866 69.914C27.549 69.76 27.381 69.6422 27.1826 69.5605C26.9866 69.4788 26.765 69.438 26.5176 69.438H25.5341V73.001H26.5176C26.765 73.001 26.9866 72.9602 27.1826 72.8785C27.381 72.7968 27.549 72.6802 27.6866 72.5285C27.8266 72.3745 27.9328 72.1878 28.0051 71.9685C28.0798 71.7468 28.1171 71.4972 28.1171 71.2195ZM34.6358 71.2195C34.6358 71.5905 34.574 71.9347 34.4503 72.252C34.329 72.567 34.1563 72.84 33.9323 73.071C33.7083 73.302 33.4388 73.4828 33.1238 73.6135C32.8088 73.7418 32.4588 73.806 32.0738 73.806C31.6912 73.806 31.3423 73.7418 31.0273 73.6135C30.7123 73.4828 30.4417 73.302 30.2153 73.071C29.9913 72.84 29.8175 72.567 29.6938 72.252C29.5702 71.9347 29.5083 71.5905 29.5083 71.2195C29.5083 70.8485 29.5702 70.5055 29.6938 70.1905C29.8175 69.8732 29.9913 69.599 30.2153 69.368C30.4417 69.137 30.7123 68.9573 31.0273 68.829C31.3423 68.6983 31.6912 68.633 32.0738 68.633C32.3305 68.633 32.572 68.6633 32.7983 68.724C33.0247 68.7823 33.2323 68.8663 33.4213 68.976C33.6103 69.0833 33.7795 69.2152 33.9288 69.3715C34.0805 69.5255 34.2088 69.6982 34.3138 69.8895C34.4188 70.0808 34.4982 70.2885 34.5518 70.5125C34.6078 70.7365 34.6358 70.9722 34.6358 71.2195ZM33.6733 71.2195C33.6733 70.9418 33.636 70.6933 33.5613 70.474C33.4867 70.2523 33.3805 70.0645 33.2428 69.9105C33.1052 69.7565 32.9372 69.6387 32.7388 69.557C32.5428 69.4753 32.3212 69.4345 32.0738 69.4345C31.8265 69.4345 31.6037 69.4753 31.4053 69.557C31.2093 69.6387 31.0413 69.7565 30.9013 69.9105C30.7637 70.0645 30.6575 70.2523 30.5828 70.474C30.5082 70.6933 30.4708 70.9418 30.4708 71.2195C30.4708 71.4972 30.5082 71.7468 30.5828 71.9685C30.6575 72.1878 30.7637 72.3745 30.9013 72.5285C31.0413 72.6802 31.2093 72.7968 31.4053 72.8785C31.6037 72.9602 31.8265 73.001 32.0738 73.001C32.3212 73.001 32.5428 72.9602 32.7388 72.8785C32.9372 72.7968 33.1052 72.6802 33.2428 72.5285C33.3805 72.3745 33.4867 72.1878 33.5613 71.9685C33.636 71.7468 33.6733 71.4972 33.6733 71.2195ZM40.8456 68.689V73.75H40.0161V70.481C40.0161 70.3503 40.0231 70.2092 40.0371 70.0575L38.5076 72.931C38.4353 73.0687 38.3245 73.1375 38.1751 73.1375H38.0421C37.8928 73.1375 37.782 73.0687 37.7096 72.931L36.1626 70.047C36.1696 70.124 36.1755 70.1998 36.1801 70.2745C36.1848 70.3492 36.1871 70.418 36.1871 70.481V73.75H35.3576V68.689H36.0681C36.1101 68.689 36.1463 68.6902 36.1766 68.6925C36.207 68.6948 36.2338 68.7007 36.2571 68.71C36.2828 68.7193 36.305 68.7345 36.3236 68.7555C36.3446 68.7765 36.3645 68.8045 36.3831 68.8395L37.8986 71.65C37.9383 71.7247 37.9745 71.8017 38.0071 71.881C38.0421 71.9603 38.076 72.042 38.1086 72.126C38.1413 72.0397 38.1751 71.9568 38.2101 71.8775C38.2451 71.7958 38.2825 71.7177 38.3221 71.643L39.8166 68.8395C39.8353 68.8045 39.8551 68.7765 39.8761 68.7555C39.8971 68.7345 39.9193 68.7193 39.9426 68.71C39.9683 68.7007 39.9963 68.6948 40.0266 68.6925C40.057 68.6902 40.0931 68.689 40.1351 68.689H40.8456Z" fill="black"/>
<path d="M3.5 40H47.5V39H3.5V40ZM50 42.5V74.5H51V42.5H50ZM47.5 77H3.5V78H47.5V77ZM1 74.5V42.5H0V74.5H1ZM3.5 77C2.11929 77 1 75.8807 1 74.5H0C0 76.433 1.567 78 3.5 78V77ZM50 74.5C50 75.8807 48.8807 77 47.5 77V78C49.433 78 51 76.433 51 74.5H50ZM47.5 40C48.8807 40 50 41.1193 50 42.5H51C51 40.567 49.433 39 47.5 39V40ZM3.5 39C1.567 39 0 40.567 0 42.5H1C1 41.1193 2.11929 40 3.5 40V39Z" fill="#595959"/>
<g clip-path="url(#clip1)">
<path d="M0.5 81.5C0.5 79.8432 1.84315 78.5 3.5 78.5H47.5C49.1569 78.5 50.5 79.8432 50.5 81.5V113.5C50.5 115.157 49.1569 116.5 47.5 116.5H3.5C1.84315 116.5 0.5 115.157 0.5 113.5V81.5Z" fill="#787878"/>
<path fill-rule="evenodd" clip-rule="evenodd" d="M1.5 104.5V113.5C1.5 114.605 2.39543 115.5 3.5 115.5H47.5C48.6046 115.5 49.5 114.605 49.5 113.5V104.5H1.5Z" fill="url(#paint24_linear)"/>
<path d="M1.5 104.5V104H1V104.5H1.5ZM49.5 104.5H50V104H49.5V104.5ZM2 113.5V104.5H1V113.5H2ZM3.5 115C2.67157 115 2 114.328 2 113.5H1C1 114.881 2.11929 116 3.5 116V115ZM47.5 115H3.5V116H47.5V115ZM49 113.5C49 114.328 48.3284 115 47.5 115V116C48.8807 116 50 114.881 50 113.5H49ZM49 104.5V113.5H50V104.5H49ZM49.5 104H1.5V105H49.5V104Z" fill="url(#paint25_linear)"/>
<mask id="path-31-inside-1" fill="white">
<path fill-rule="evenodd" clip-rule="evenodd" d="M1.5 104.5V113.5C1.5 114.605 2.39543 115.5 3.5 115.5H47.5C48.6046 115.5 49.5 114.605 49.5 113.5V104.5H1.5Z"/>
</mask>
<path fill-rule="evenodd" clip-rule="evenodd" d="M1.5 104.5V113.5C1.5 114.605 2.39543 115.5 3.5 115.5H47.5C48.6046 115.5 49.5 114.605 49.5 113.5V104.5H1.5Z" fill="url(#paint26_linear)"/>
<path d="M1.5 104.5V103.5H0.5V104.5H1.5ZM49.5 104.5H50.5V103.5H49.5V104.5ZM2.5 113.5V104.5H0.5V113.5H2.5ZM3.5 114.5C2.94772 114.5 2.5 114.052 2.5 113.5H0.5C0.5 115.157 1.84315 116.5 3.5 116.5V114.5ZM47.5 114.5H3.5V116.5H47.5V114.5ZM48.5 113.5C48.5 114.052 48.0523 114.5 47.5 114.5V116.5C49.1569 116.5 50.5 115.157 50.5 113.5H48.5ZM48.5 104.5V113.5H50.5V104.5H48.5ZM49.5 103.5H1.5V105.5H49.5V103.5Z" fill="url(#paint27_linear)" mask="url(#path-31-inside-1)"/>
<rect x="1.5" y="92" width="48" height="11" fill="url(#paint28_linear)" stroke="url(#paint29_linear)" stroke-width="0.956522"/>
<path d="M1.5 81.5C1.5 80.3954 2.39543 79.5 3.5 79.5H47.5C48.6046 79.5 49.5 80.3954 49.5 81.5V88.5C49.5 89.6046 48.6046 90.5 47.5 90.5H3.5C2.39543 90.5 1.5 89.6046 1.5 88.5V81.5Z" fill="url(#paint30_linear)"/>
<path d="M1.5 87.5H49.5V90.5H1.5V87.5Z" fill="url(#paint31_linear)"/>
<path d="M1.5 81.5C1.5 80.3954 2.39543 79.5 3.5 79.5H47.5C48.6046 79.5 49.5 80.3954 49.5 81.5V88.5C49.5 89.6046 48.6046 90.5 47.5 90.5H3.5C2.39543 90.5 1.5 89.6046 1.5 88.5V81.5Z" stroke="url(#paint32_linear)"/>
<path d="M1.5 87.5H49.5V90.5H1.5V87.5Z" stroke="url(#paint33_linear)"/>
<path d="M11.5427 83.688V85.186H13.4397V85.9385H11.5427V88H10.5977V82.939H13.7897V83.688H11.5427ZM15.9871 85.347C16.1644 85.347 16.3184 85.3248 16.4491 85.2805C16.5821 85.2362 16.6906 85.1755 16.7746 85.0985C16.8609 85.0192 16.9251 84.9258 16.9671 84.8185C17.0091 84.7112 17.0301 84.5933 17.0301 84.465C17.0301 84.2083 16.9449 84.0112 16.7746 83.8735C16.6066 83.7358 16.3487 83.667 16.0011 83.667H15.3991V85.347H15.9871ZM18.4091 88H17.5586C17.3976 88 17.2809 87.937 17.2086 87.811L16.1446 86.1905C16.1049 86.1298 16.0606 86.0867 16.0116 86.061C15.9649 86.0353 15.8949 86.0225 15.8016 86.0225H15.3991V88H14.4576V82.939H16.0011C16.3441 82.939 16.6381 82.9752 16.8831 83.0475C17.1304 83.1175 17.3322 83.2167 17.4886 83.345C17.6472 83.4733 17.7639 83.6273 17.8386 83.807C17.9132 83.9843 17.9506 84.1803 17.9506 84.395C17.9506 84.5653 17.9249 84.7263 17.8736 84.878C17.8246 85.0297 17.7522 85.1673 17.6566 85.291C17.5632 85.4147 17.4466 85.5232 17.3066 85.6165C17.1689 85.7098 17.0114 85.7833 16.8341 85.837C16.8947 85.872 16.9507 85.914 17.0021 85.963C17.0534 86.0097 17.1001 86.0657 17.1421 86.131L18.4091 88ZM19.7956 83.688V85.0915H21.5666V85.816H19.7956V87.2475H22.0426V88H18.8506V82.939H22.0426V83.688H19.7956ZM23.717 83.688V85.0915H25.488V85.816H23.717V87.2475H25.964V88H22.772V82.939H25.964V83.688H23.717ZM28.2229 85.347C28.4002 85.347 28.5542 85.3248 28.6849 85.2805C28.8179 85.2362 28.9264 85.1755 29.0104 85.0985C29.0967 85.0192 29.1609 84.9258 29.2029 84.8185C29.2449 84.7112 29.2659 84.5933 29.2659 84.465C29.2659 84.2083 29.1807 84.0112 29.0104 83.8735C28.8424 83.7358 28.5845 83.667 28.2369 83.667H27.6349V85.347H28.2229ZM30.6449 88H29.7944C29.6334 88 29.5167 87.937 29.4444 87.811L28.3804 86.1905C28.3407 86.1298 28.2964 86.0867 28.2474 86.061C28.2007 86.0353 28.1307 86.0225 28.0374 86.0225H27.6349V88H26.6934V82.939H28.2369C28.5799 82.939 28.8739 82.9752 29.1189 83.0475C29.3662 83.1175 29.568 83.2167 29.7244 83.345C29.883 83.4733 29.9997 83.6273 30.0744 83.807C30.149 83.9843 30.1864 84.1803 30.1864 84.395C30.1864 84.5653 30.1607 84.7263 30.1094 84.878C30.0604 85.0297 29.988 85.1673 29.8924 85.291C29.799 85.4147 29.6824 85.5232 29.5424 85.6165C29.4047 85.7098 29.2472 85.7833 29.0699 85.837C29.1305 85.872 29.1865 85.914 29.2379 85.963C29.2892 86.0097 29.3359 86.0657 29.3779 86.131L30.6449 88ZM33.0824 87.2405C33.2644 87.2405 33.4266 87.2102 33.5689 87.1495C33.7136 87.0888 33.8349 87.0037 33.9329 86.894C34.0309 86.7843 34.1056 86.6513 34.1569 86.495C34.2106 86.3387 34.2374 86.1637 34.2374 85.97V82.939H35.1789V85.97C35.1789 86.271 35.1299 86.5498 35.0319 86.8065C34.9362 87.0608 34.7974 87.2813 34.6154 87.468C34.4357 87.6523 34.2164 87.797 33.9574 87.902C33.6984 88.0047 33.4067 88.056 33.0824 88.056C32.7557 88.056 32.4629 88.0047 32.2039 87.902C31.9449 87.797 31.7244 87.6523 31.5424 87.468C31.3627 87.2813 31.2239 87.0608 31.1259 86.8065C31.0302 86.5498 30.9824 86.271 30.9824 85.97V82.939H31.9239V85.9665C31.9239 86.1602 31.9496 86.3352 32.0009 86.4915C32.0546 86.6478 32.1304 86.782 32.2284 86.894C32.3287 87.0037 32.4501 87.0888 32.5924 87.1495C32.7371 87.2102 32.9004 87.2405 33.0824 87.2405ZM40.4022 82.939V88H39.9192C39.8445 88 39.7815 87.9883 39.7302 87.965C39.6812 87.9393 39.6334 87.8973 39.5867 87.839L36.9442 84.465C36.9582 84.619 36.9652 84.7613 36.9652 84.892V88H36.1357V82.939H36.6292C36.6689 82.939 36.7027 82.9413 36.7307 82.946C36.761 82.9483 36.7867 82.9553 36.8077 82.967C36.831 82.9763 36.8532 82.9915 36.8742 83.0125C36.8952 83.0312 36.9185 83.0568 36.9442 83.0895L39.5972 86.4775C39.5902 86.3958 39.5844 86.3153 39.5797 86.236C39.575 86.1567 39.5727 86.0832 39.5727 86.0155V82.939H40.4022Z" fill="black"/>
<path d="M6.06734 97.56H6.28784C6.37651 97.56 6.45001 97.5483 6.50834 97.525C6.56668 97.4993 6.61684 97.4597 6.65884 97.406L8.05534 95.6385C8.11368 95.5638 8.17434 95.5125 8.23734 95.4845C8.30268 95.4542 8.38434 95.439 8.48234 95.439H9.29434L7.58984 97.5425C7.48951 97.6708 7.38568 97.7618 7.27834 97.8155C7.35534 97.8435 7.42418 97.8832 7.48484 97.9345C7.54784 97.9835 7.60734 98.0488 7.66334 98.1305L9.42034 100.5H8.59084C8.47884 100.5 8.39484 100.485 8.33884 100.455C8.28518 100.422 8.23968 100.375 8.20234 100.315L6.77084 98.4455C6.72651 98.3825 6.67518 98.3382 6.61684 98.3125C6.55851 98.2868 6.47451 98.274 6.36484 98.274H6.06734V100.5H5.12584V95.439H6.06734V97.56ZM10.7647 96.188V97.5915H12.5357V98.316H10.7647V99.7475H13.0117V100.5H9.81967V95.439H13.0117V96.188H10.7647ZM15.9145 98.54V100.5H14.9765V98.54L13.132 95.439H13.9615C14.0432 95.439 14.1074 95.4588 14.154 95.4985C14.203 95.5382 14.2439 95.5883 14.2765 95.649L15.2005 97.3395C15.2542 97.4398 15.3009 97.5343 15.3405 97.623C15.3825 97.7117 15.4199 97.8003 15.4525 97.889C15.4829 97.8003 15.5179 97.7117 15.5575 97.623C15.5972 97.5343 15.6427 97.4398 15.694 97.3395L16.6145 95.649C16.6402 95.5977 16.6787 95.5498 16.73 95.5055C16.7814 95.4612 16.8467 95.439 16.926 95.439H17.759L15.9145 98.54ZM21.7101 96.2125H20.1841V100.5H19.2426V96.2125H17.7166V95.439H21.7101V96.2125ZM23.7969 97.847C23.9742 97.847 24.1282 97.8248 24.2589 97.7805C24.3919 97.7362 24.5004 97.6755 24.5844 97.5985C24.6707 97.5192 24.7349 97.4258 24.7769 97.3185C24.8189 97.2112 24.8399 97.0933 24.8399 96.965C24.8399 96.7083 24.7547 96.5112 24.5844 96.3735C24.4164 96.2358 24.1585 96.167 23.8109 96.167H23.2089V97.847H23.7969ZM26.2189 100.5H25.3684C25.2074 100.5 25.0907 100.437 25.0184 100.311L23.9544 98.6905C23.9147 98.6298 23.8704 98.5867 23.8214 98.561C23.7747 98.5353 23.7047 98.5225 23.6114 98.5225H23.2089V100.5H22.2674V95.439H23.8109C24.1539 95.439 24.4479 95.4752 24.6929 95.5475C24.9402 95.6175 25.142 95.7167 25.2984 95.845C25.457 95.9733 25.5737 96.1273 25.6484 96.307C25.723 96.4843 25.7604 96.6803 25.7604 96.895C25.7604 97.0653 25.7347 97.2263 25.6834 97.378C25.6344 97.5297 25.562 97.6673 25.4664 97.791C25.373 97.9147 25.2564 98.0232 25.1164 98.1165C24.9787 98.2098 24.8212 98.2833 24.6439 98.337C24.7045 98.372 24.7605 98.414 24.8119 98.463C24.8632 98.5097 24.9099 98.5657 24.9519 98.631L26.2189 100.5ZM27.6054 100.5H26.6604V95.439H27.6054V100.5ZM32.8055 97.9625V100.01C32.5489 100.199 32.2747 100.338 31.983 100.427C31.6937 100.513 31.3834 100.556 31.052 100.556C30.639 100.556 30.2645 100.492 29.9285 100.364C29.5949 100.235 29.309 100.057 29.071 99.828C28.8354 99.5993 28.6534 99.3263 28.525 99.009C28.3967 98.6917 28.3325 98.3452 28.3325 97.9695C28.3325 97.5892 28.3944 97.2403 28.518 96.923C28.6417 96.6057 28.8167 96.3327 29.043 96.104C29.2717 95.8753 29.5482 95.698 29.8725 95.572C30.1969 95.446 30.5609 95.383 30.9645 95.383C31.1699 95.383 31.3612 95.3993 31.5385 95.432C31.7182 95.4647 31.8839 95.5102 32.0355 95.5685C32.1895 95.6245 32.3295 95.6933 32.4555 95.775C32.5815 95.8567 32.697 95.9465 32.802 96.0445L32.5325 96.4715C32.4905 96.5392 32.4357 96.5812 32.368 96.5975C32.3004 96.6115 32.2269 96.594 32.1475 96.545C32.0705 96.5007 31.9935 96.4563 31.9165 96.412C31.8395 96.3677 31.7532 96.3292 31.6575 96.2965C31.5642 96.2638 31.458 96.237 31.339 96.216C31.2224 96.195 31.087 96.1845 30.933 96.1845C30.6834 96.1845 30.457 96.2265 30.254 96.3105C30.0534 96.3945 29.8819 96.5147 29.7395 96.671C29.5972 96.8273 29.4875 97.0152 29.4105 97.2345C29.3335 97.4538 29.295 97.6988 29.295 97.9695C29.295 98.2588 29.3359 98.5178 29.4175 98.7465C29.5015 98.9728 29.6182 99.1653 29.7675 99.324C29.9192 99.4803 30.1012 99.6005 30.3135 99.6845C30.5259 99.7662 30.7627 99.807 31.024 99.807C31.2107 99.807 31.3775 99.7872 31.5245 99.7475C31.6715 99.7078 31.815 99.6542 31.955 99.5865V98.6695H31.318C31.2574 98.6695 31.2095 98.6532 31.1745 98.6205C31.1419 98.5855 31.1255 98.5435 31.1255 98.4945V97.9625H32.8055ZM37.7796 97.9625V100.01C37.523 100.199 37.2488 100.338 36.9571 100.427C36.6678 100.513 36.3575 100.556 36.0261 100.556C35.6131 100.556 35.2386 100.492 34.9026 100.364C34.569 100.235 34.2831 100.057 34.0451 99.828C33.8095 99.5993 33.6275 99.3263 33.4991 99.009C33.3708 98.6917 33.3066 98.3452 33.3066 97.9695C33.3066 97.5892 33.3685 97.2403 33.4921 96.923C33.6158 96.6057 33.7908 96.3327 34.0171 96.104C34.2458 95.8753 34.5223 95.698 34.8466 95.572C35.171 95.446 35.535 95.383 35.9386 95.383C36.144 95.383 36.3353 95.3993 36.5126 95.432C36.6923 95.4647 36.858 95.5102 37.0096 95.5685C37.1636 95.6245 37.3036 95.6933 37.4296 95.775C37.5556 95.8567 37.6711 95.9465 37.7761 96.0445L37.5066 96.4715C37.4646 96.5392 37.4098 96.5812 37.3421 96.5975C37.2745 96.6115 37.201 96.594 37.1216 96.545C37.0446 96.5007 36.9676 96.4563 36.8906 96.412C36.8136 96.3677 36.7273 96.3292 36.6316 96.2965C36.5383 96.2638 36.4321 96.237 36.3131 96.216C36.1965 96.195 36.0611 96.1845 35.9071 96.1845C35.6575 96.1845 35.4311 96.2265 35.2281 96.3105C35.0275 96.3945 34.856 96.5147 34.7136 96.671C34.5713 96.8273 34.4616 97.0152 34.3846 97.2345C34.3076 97.4538 34.2691 97.6988 34.2691 97.9695C34.2691 98.2588 34.31 98.5178 34.3916 98.7465C34.4756 98.9728 34.5923 99.1653 34.7416 99.324C34.8933 99.4803 35.0753 99.6005 35.2876 99.6845C35.5 99.7662 35.7368 99.807 35.9981 99.807C36.1848 99.807 36.3516 99.7872 36.4986 99.7475C36.6456 99.7078 36.7891 99.6542 36.9291 99.5865V98.6695H36.2921C36.2315 98.6695 36.1836 98.6532 36.1486 98.6205C36.116 98.5855 36.0996 98.5435 36.0996 98.4945V97.9625H37.7796ZM39.5267 96.188V97.5915H41.2977V98.316H39.5267V99.7475H41.7737V100.5H38.5817V95.439H41.7737V96.188H39.5267ZM44.0326 97.847C44.2099 97.847 44.3639 97.8248 44.4946 97.7805C44.6276 97.7362 44.7361 97.6755 44.8201 97.5985C44.9064 97.5192 44.9706 97.4258 45.0126 97.3185C45.0546 97.2112 45.0756 97.0933 45.0756 96.965C45.0756 96.7083 44.9904 96.5112 44.8201 96.3735C44.6521 96.2358 44.3943 96.167 44.0466 96.167H43.4446V97.847H44.0326ZM46.4546 100.5H45.6041C45.4431 100.5 45.3264 100.437 45.2541 100.311L44.1901 98.6905C44.1504 98.6298 44.1061 98.5867 44.0571 98.561C44.0104 98.5353 43.9404 98.5225 43.8471 98.5225H43.4446V100.5H42.5031V95.439H44.0466C44.3896 95.439 44.6836 95.4752 44.9286 95.5475C45.1759 95.6175 45.3778 95.7167 45.5341 95.845C45.6928 95.9733 45.8094 96.1273 45.8841 96.307C45.9588 96.4843 45.9961 96.6803 45.9961 96.895C45.9961 97.0653 45.9704 97.2263 45.9191 97.378C45.8701 97.5297 45.7978 97.6673 45.7021 97.791C45.6088 97.9147 45.4921 98.0232 45.3521 98.1165C45.2144 98.2098 45.0569 98.2833 44.8796 98.337C44.9403 98.372 44.9963 98.414 45.0476 98.463C45.0989 98.5097 45.1456 98.5657 45.1876 98.631L46.4546 100.5Z" fill="black"/>
<path d="M11.6817 110.097C11.859 110.097 12.013 110.075 12.1437 110.031C12.2767 109.986 12.3852 109.926 12.4692 109.849C12.5555 109.769 12.6197 109.676 12.6617 109.569C12.7037 109.461 12.7247 109.343 12.7247 109.215C12.7247 108.958 12.6395 108.761 12.4692 108.624C12.3012 108.486 12.0433 108.417 11.6957 108.417H11.0937V110.097H11.6817ZM14.1037 112.75H13.2532C13.0922 112.75 12.9755 112.687 12.9032 112.561L11.8392 110.941C11.7995 110.88 11.7552 110.837 11.7062 110.811C11.6595 110.785 11.5895 110.773 11.4962 110.773H11.0937V112.75H10.1522V107.689H11.6957C12.0387 107.689 12.3327 107.725 12.5777 107.798C12.825 107.868 13.0268 107.967 13.1832 108.095C13.3418 108.223 13.4585 108.377 13.5332 108.557C13.6078 108.734 13.6452 108.93 13.6452 109.145C13.6452 109.315 13.6195 109.476 13.5682 109.628C13.5192 109.78 13.4468 109.917 13.3512 110.041C13.2578 110.165 13.1412 110.273 13.0012 110.367C12.8635 110.46 12.706 110.533 12.5287 110.587C12.5893 110.622 12.6453 110.664 12.6967 110.713C12.748 110.76 12.7947 110.816 12.8367 110.881L14.1037 112.75ZM17.2192 110.839L16.6032 109.156C16.5729 109.081 16.5414 108.992 16.5087 108.89C16.4761 108.787 16.4434 108.676 16.4107 108.557C16.3804 108.676 16.3489 108.788 16.3162 108.893C16.2836 108.996 16.2521 109.086 16.2217 109.163L15.6092 110.839H17.2192ZM18.8817 112.75H18.1537C18.0721 112.75 18.0056 112.73 17.9542 112.691C17.9029 112.649 17.8644 112.597 17.8387 112.537L17.4607 111.504H15.3642L14.9862 112.537C14.9676 112.59 14.9314 112.639 14.8777 112.684C14.8241 112.728 14.7576 112.75 14.6782 112.75H13.9432L15.9347 107.689H16.8937L18.8817 112.75ZM23.5671 107.689V112.75H23.0841C23.0094 112.75 22.9464 112.738 22.8951 112.715C22.8461 112.689 22.7982 112.647 22.7516 112.589L20.1091 109.215C20.1231 109.369 20.1301 109.511 20.1301 109.642V112.75H19.3006V107.689H19.7941C19.8337 107.689 19.8676 107.691 19.8956 107.696C19.9259 107.698 19.9516 107.705 19.9726 107.717C19.9959 107.726 20.0181 107.742 20.0391 107.763C20.0601 107.781 20.0834 107.807 20.1091 107.84L22.7621 111.228C22.7551 111.146 22.7492 111.065 22.7446 110.986C22.7399 110.907 22.7376 110.833 22.7376 110.766V107.689H23.5671ZM29.0831 110.22C29.0831 110.591 29.0213 110.931 28.8976 111.242C28.774 111.552 28.6001 111.819 28.3761 112.043C28.1521 112.267 27.8826 112.441 27.5676 112.565C27.2526 112.688 26.9026 112.75 26.5176 112.75H24.5891V107.689H26.5176C26.9026 107.689 27.2526 107.752 27.5676 107.878C27.8826 108.002 28.1521 108.176 28.3761 108.4C28.6001 108.621 28.774 108.887 28.8976 109.198C29.0213 109.508 29.0831 109.849 29.0831 110.22ZM28.1171 110.22C28.1171 109.942 28.0798 109.693 28.0051 109.474C27.9328 109.252 27.8266 109.066 27.6866 108.914C27.549 108.76 27.381 108.642 27.1826 108.561C26.9866 108.479 26.765 108.438 26.5176 108.438H25.5341V112.001H26.5176C26.765 112.001 26.9866 111.96 27.1826 111.879C27.381 111.797 27.549 111.68 27.6866 111.529C27.8266 111.375 27.9328 111.188 28.0051 110.969C28.0798 110.747 28.1171 110.497 28.1171 110.22ZM34.6358 110.22C34.6358 110.591 34.574 110.935 34.4503 111.252C34.329 111.567 34.1563 111.84 33.9323 112.071C33.7083 112.302 33.4388 112.483 33.1238 112.614C32.8088 112.742 32.4588 112.806 32.0738 112.806C31.6912 112.806 31.3423 112.742 31.0273 112.614C30.7123 112.483 30.4417 112.302 30.2153 112.071C29.9913 111.84 29.8175 111.567 29.6938 111.252C29.5702 110.935 29.5083 110.591 29.5083 110.22C29.5083 109.849 29.5702 109.506 29.6938 109.191C29.8175 108.873 29.9913 108.599 30.2153 108.368C30.4417 108.137 30.7123 107.957 31.0273 107.829C31.3423 107.698 31.6912 107.633 32.0738 107.633C32.3305 107.633 32.572 107.663 32.7983 107.724C33.0247 107.782 33.2323 107.866 33.4213 107.976C33.6103 108.083 33.7795 108.215 33.9288 108.372C34.0805 108.526 34.2088 108.698 34.3138 108.89C34.4188 109.081 34.4982 109.289 34.5518 109.513C34.6078 109.737 34.6358 109.972 34.6358 110.22ZM33.6733 110.22C33.6733 109.942 33.636 109.693 33.5613 109.474C33.4867 109.252 33.3805 109.065 33.2428 108.911C33.1052 108.757 32.9372 108.639 32.7388 108.557C32.5428 108.475 32.3212 108.435 32.0738 108.435C31.8265 108.435 31.6037 108.475 31.4053 108.557C31.2093 108.639 31.0413 108.757 30.9013 108.911C30.7637 109.065 30.6575 109.252 30.5828 109.474C30.5082 109.693 30.4708 109.942 30.4708 110.22C30.4708 110.497 30.5082 110.747 30.5828 110.969C30.6575 111.188 30.7637 111.375 30.9013 111.529C31.0413 111.68 31.2093 111.797 31.4053 111.879C31.6037 111.96 31.8265 112.001 32.0738 112.001C32.3212 112.001 32.5428 111.96 32.7388 111.879C32.9372 111.797 33.1052 111.68 33.2428 111.529C33.3805 111.375 33.4867 111.188 33.5613 110.969C33.636 110.747 33.6733 110.497 33.6733 110.22ZM40.8456 107.689V112.75H40.0161V109.481C40.0161 109.35 40.0231 109.209 40.0371 109.058L38.5076 111.931C38.4353 112.069 38.3245 112.138 38.1751 112.138H38.0421C37.8928 112.138 37.782 112.069 37.7096 111.931L36.1626 109.047C36.1696 109.124 36.1755 109.2 36.1801 109.275C36.1848 109.349 36.1871 109.418 36.1871 109.481V112.75H35.3576V107.689H36.0681C36.1101 107.689 36.1463 107.69 36.1766 107.693C36.207 107.695 36.2338 107.701 36.2571 107.71C36.2828 107.719 36.305 107.735 36.3236 107.756C36.3446 107.777 36.3645 107.805 36.3831 107.84L37.8986 110.65C37.9383 110.725 37.9745 110.802 38.0071 110.881C38.0421 110.96 38.076 111.042 38.1086 111.126C38.1413 111.04 38.1751 110.957 38.2101 110.878C38.2451 110.796 38.2825 110.718 38.3221 110.643L39.8166 107.84C39.8353 107.805 39.8551 107.777 39.8761 107.756C39.8971 107.735 39.9193 107.719 39.9426 107.71C39.9683 107.701 39.9963 107.695 40.0266 107.693C40.057 107.69 40.0931 107.689 40.1351 107.689H40.8456Z" fill="black"/>
</g>
<path d="M3.5 79H47.5V78H3.5V79ZM50 81.5V113.5H51V81.5H50ZM47.5 116H3.5V117H47.5V116ZM1 113.5V81.5H0V113.5H1ZM3.5 116C2.11929 116 1 114.881 1 113.5H0C0 115.433 1.567 117 3.5 117V116ZM50 113.5C50 114.881 48.8807 116 47.5 116V117C49.433 117 51 115.433 51 113.5H50ZM47.5 79C48.8807 79 50 80.1193 50 81.5H51C51 79.567 49.433 78 47.5 78V79ZM3.5 78C1.567 78 0 79.567 0 81.5H1C1 80.1193 2.11929 79 3.5 79V78Z" fill="#595959"/>
<defs>
<linearGradient id="paint0_linear" x1="25.5" y1="26.5" x2="25.5" y2="37.5" gradientUnits="userSpaceOnUse">
<stop offset="0.0520833" stop-color="#D9D9D9"/>
<stop offset="0.0521833" stop-color="#8E8E8E"/>
<stop offset="0.963542" stop-color="#858585"/>
<stop offset="0.984375" stop-color="#535353"/>
</linearGradient>
<linearGradient id="paint1_linear" x1="25.5" y1="26.5" x2="25.5" y2="37.5" gradientUnits="userSpaceOnUse">
<stop offset="0.0520833" stop-color="#D9D9D9"/>
<stop offset="0.0521833" stop-color="#8E8E8E"/>
<stop offset="0.963542" stop-color="#858585"/>
<stop offset="0.984375" stop-color="#535353"/>
</linearGradient>
<linearGradient id="paint2_linear" x1="25.5" y1="26.5" x2="25.5" y2="37.5" gradientUnits="userSpaceOnUse">
<stop offset="0.0520833" stop-color="#D9D9D9"/>
<stop offset="0.0521833" stop-color="#8E8E8E"/>
<stop offset="0.963542" stop-color="#858585"/>
<stop offset="0.984375" stop-color="#535353"/>
</linearGradient>
<linearGradient id="paint3_linear" x1="25.5" y1="26.5" x2="25.5" y2="37.5" gradientUnits="userSpaceOnUse">
<stop offset="0.0520833" stop-color="#D9D9D9"/>
<stop offset="0.0521833" stop-color="#8E8E8E"/>
<stop offset="0.963542" stop-color="#858585"/>
<stop offset="0.984375" stop-color="#535353"/>
</linearGradient>
<linearGradient id="paint4_linear" x1="25.5" y1="14" x2="25.5" y2="25" gradientUnits="userSpaceOnUse">
<stop offset="0.0520833" stop-color="#D9D9D9"/>
<stop offset="0.0521833" stop-color="#8E8E8E"/>
<stop offset="0.963542" stop-color="#858585"/>
<stop offset="0.984375" stop-color="#535353"/>
</linearGradient>
<linearGradient id="paint5_linear" x1="25.5" y1="14" x2="25.5" y2="25" gradientUnits="userSpaceOnUse">
<stop offset="0.0520833" stop-color="#D9D9D9"/>
<stop offset="0.0521833" stop-color="#8E8E8E"/>
<stop offset="0.963542" stop-color="#858585"/>
<stop offset="0.984375" stop-color="#535353"/>
</linearGradient>
<linearGradient id="paint6_linear" x1="25.5" y1="1.5" x2="25.5" y2="12.5" gradientUnits="userSpaceOnUse">
<stop offset="0.0520833" stop-color="#D9D9D9"/>
<stop offset="0.0521833" stop-color="#8E8E8E"/>
<stop offset="0.963542" stop-color="#858585"/>
<stop offset="0.984375" stop-color="#535353"/>
</linearGradient>
<linearGradient id="paint7_linear" x1="25.5" y1="1.5" x2="25.5" y2="12.5" gradientUnits="userSpaceOnUse">
<stop offset="0.0520833" stop-color="#D9D9D9"/>
<stop offset="0.0521833" stop-color="#8E8E8E"/>
<stop offset="0.963542" stop-color="#858585"/>
<stop offset="0.984375" stop-color="#535353"/>
</linearGradient>
<linearGradient id="paint8_linear" x1="25.5" y1="1.5" x2="25.5" y2="12.5" gradientUnits="userSpaceOnUse">
<stop offset="0.0520833" stop-color="#D9D9D9"/>
<stop offset="0.0521833" stop-color="#8E8E8E"/>
<stop offset="0.963542" stop-color="#858585"/>
<stop offset="0.984375" stop-color="#535353"/>
</linearGradient>
<linearGradient id="paint9_linear" x1="25.5" y1="1.5" x2="25.5" y2="12.5" gradientUnits="userSpaceOnUse">
<stop offset="0.0520833" stop-color="#D9D9D9"/>
<stop offset="0.0521833" stop-color="#8E8E8E"/>
<stop offset="0.963542" stop-color="#858585"/>
<stop offset="0.984375" stop-color="#535353"/>
</linearGradient>
<linearGradient id="paint10_linear" x1="25.5" y1="2.5" x2="25.5" y2="11" gradientUnits="userSpaceOnUse">
<stop stop-color="#D57A00"/>
<stop offset="0.145833" stop-color="#FF9300"/>
<stop offset="0.463542" stop-color="#FF9300"/>
<stop offset="0.776042" stop-color="#FFA632"/>
</linearGradient>
<linearGradient id="paint11_linear" x1="25.5" y1="2.5" x2="25.5" y2="11" gradientUnits="userSpaceOnUse">
<stop offset="0.00520833" stop-color="#BA6B00"/>
<stop offset="0.317708" stop-color="#FF9300"/>
<stop offset="0.46875" stop-color="#EA8700"/>
<stop offset="0.729167" stop-color="#FF9300"/>
<stop offset="1" stop-color="#FFDCAD"/>
</linearGradient>
<linearGradient id="paint12_linear" x1="25.5" y1="65.5" x2="25.5" y2="76.5" gradientUnits="userSpaceOnUse">
<stop offset="0.0520833" stop-color="#D9D9D9"/>
<stop offset="0.0521833" stop-color="#8E8E8E"/>
<stop offset="0.963542" stop-color="#858585"/>
<stop offset="0.984375" stop-color="#535353"/>
</linearGradient>
<linearGradient id="paint13_linear" x1="25.5" y1="65.5" x2="25.5" y2="76.5" gradientUnits="userSpaceOnUse">
<stop offset="0.0520833" stop-color="#D9D9D9"/>
<stop offset="0.0521833" stop-color="#8E8E8E"/>
<stop offset="0.963542" stop-color="#858585"/>
<stop offset="0.984375" stop-color="#535353"/>
</linearGradient>
<linearGradient id="paint14_linear" x1="25.5" y1="65.5" x2="25.5" y2="76.5" gradientUnits="userSpaceOnUse">
<stop offset="0.0520833" stop-color="#D9D9D9"/>
<stop offset="0.0521833" stop-color="#8E8E8E"/>
<stop offset="0.963542" stop-color="#858585"/>
<stop offset="0.984375" stop-color="#535353"/>
</linearGradient>
<linearGradient id="paint15_linear" x1="25.5" y1="65.5" x2="25.5" y2="76.5" gradientUnits="userSpaceOnUse">
<stop offset="0.0520833" stop-color="#D9D9D9"/>
<stop offset="0.0521833" stop-color="#8E8E8E"/>
<stop offset="0.963542" stop-color="#858585"/>
<stop offset="0.984375" stop-color="#535353"/>
</linearGradient>
<linearGradient id="paint16_linear" x1="25.5" y1="53" x2="25.5" y2="64" gradientUnits="userSpaceOnUse">
<stop offset="0.0520833" stop-color="#D9D9D9"/>
<stop offset="0.0521833" stop-color="#8E8E8E"/>
<stop offset="0.963542" stop-color="#858585"/>
<stop offset="0.984375" stop-color="#535353"/>
</linearGradient>
<linearGradient id="paint17_linear" x1="25.5" y1="53" x2="25.5" y2="64" gradientUnits="userSpaceOnUse">
<stop offset="0.0520833" stop-color="#D9D9D9"/>
<stop offset="0.0521833" stop-color="#8E8E8E"/>
<stop offset="0.963542" stop-color="#858585"/>
<stop offset="0.984375" stop-color="#535353"/>
</linearGradient>
<linearGradient id="paint18_linear" x1="25.5" y1="40.5" x2="25.5" y2="51.5" gradientUnits="userSpaceOnUse">
<stop offset="0.0520833" stop-color="#D9D9D9"/>
<stop offset="0.0521833" stop-color="#8E8E8E"/>
<stop offset="0.963542" stop-color="#858585"/>
<stop offset="0.984375" stop-color="#535353"/>
</linearGradient>
<linearGradient id="paint19_linear" x1="25.5" y1="40.5" x2="25.5" y2="51.5" gradientUnits="userSpaceOnUse">
<stop offset="0.0520833" stop-color="#D9D9D9"/>
<stop offset="0.0521833" stop-color="#8E8E8E"/>
<stop offset="0.963542" stop-color="#858585"/>
<stop offset="0.984375" stop-color="#535353"/>
</linearGradient>
<linearGradient id="paint20_linear" x1="25.5" y1="40.5" x2="25.5" y2="51.5" gradientUnits="userSpaceOnUse">
<stop offset="0.0520833" stop-color="#D9D9D9"/>
<stop offset="0.0521833" stop-color="#8E8E8E"/>
<stop offset="0.963542" stop-color="#858585"/>
<stop offset="0.984375" stop-color="#535353"/>
</linearGradient>
<linearGradient id="paint21_linear" x1="25.5" y1="40.5" x2="25.5" y2="51.5" gradientUnits="userSpaceOnUse">
<stop offset="0.0520833" stop-color="#D9D9D9"/>
<stop offset="0.0521833" stop-color="#8E8E8E"/>
<stop offset="0.963542" stop-color="#858585"/>
<stop offset="0.984375" stop-color="#535353"/>
</linearGradient>
<linearGradient id="paint22_linear" x1="25.5" y1="54" x2="25.5" y2="63" gradientUnits="userSpaceOnUse">
<stop stop-color="#D57A00"/>
<stop offset="0.145833" stop-color="#FF9300"/>
<stop offset="0.463542" stop-color="#FF9300"/>
<stop offset="0.776042" stop-color="#FFA632"/>
</linearGradient>
<linearGradient id="paint23_linear" x1="25.5" y1="54" x2="25.5" y2="63" gradientUnits="userSpaceOnUse">
<stop offset="0.00520833" stop-color="#BA6B00"/>
<stop offset="0.317708" stop-color="#FF9300"/>
<stop offset="0.46875" stop-color="#EA8700"/>
<stop offset="0.729167" stop-color="#FF9300"/>
<stop offset="1" stop-color="#FFDCAD"/>
</linearGradient>
<linearGradient id="paint24_linear" x1="25.5" y1="104.5" x2="25.5" y2="115.5" gradientUnits="userSpaceOnUse">
<stop offset="0.0520833" stop-color="#D9D9D9"/>
<stop offset="0.0521833" stop-color="#8E8E8E"/>
<stop offset="0.963542" stop-color="#858585"/>
<stop offset="0.984375" stop-color="#535353"/>
</linearGradient>
<linearGradient id="paint25_linear" x1="25.5" y1="104.5" x2="25.5" y2="115.5" gradientUnits="userSpaceOnUse">
<stop offset="0.0520833" stop-color="#D9D9D9"/>
<stop offset="0.0521833" stop-color="#8E8E8E"/>
<stop offset="0.963542" stop-color="#858585"/>
<stop offset="0.984375" stop-color="#535353"/>
</linearGradient>
<linearGradient id="paint26_linear" x1="25.5" y1="104.5" x2="25.5" y2="115.5" gradientUnits="userSpaceOnUse">
<stop stop-color="#D57A00"/>
<stop offset="0.145833" stop-color="#FF9300"/>
<stop offset="0.463542" stop-color="#FF9300"/>
<stop offset="0.776042" stop-color="#FFA632"/>
</linearGradient>
<linearGradient id="paint27_linear" x1="25.5" y1="104.5" x2="25.5" y2="115.5" gradientUnits="userSpaceOnUse">
<stop offset="0.00520833" stop-color="#BA6B00"/>
<stop offset="0.317708" stop-color="#FF9300"/>
<stop offset="0.46875" stop-color="#EA8700"/>
<stop offset="0.729167" stop-color="#FF9300"/>
<stop offset="1" stop-color="#FFDCAD"/>
</linearGradient>
<linearGradient id="paint28_linear" x1="25.5" y1="92" x2="25.5" y2="103" gradientUnits="userSpaceOnUse">
<stop offset="0.0520833" stop-color="#D9D9D9"/>
<stop offset="0.0521833" stop-color="#8E8E8E"/>
<stop offset="0.963542" stop-color="#858585"/>
<stop offset="0.984375" stop-color="#535353"/>
</linearGradient>
<linearGradient id="paint29_linear" x1="25.5" y1="92" x2="25.5" y2="103" gradientUnits="userSpaceOnUse">
<stop offset="0.0520833" stop-color="#D9D9D9"/>
<stop offset="0.0521833" stop-color="#8E8E8E"/>
<stop offset="0.963542" stop-color="#858585"/>
<stop offset="0.984375" stop-color="#535353"/>
</linearGradient>
<linearGradient id="paint30_linear" x1="25.5" y1="79.5" x2="25.5" y2="90.5" gradientUnits="userSpaceOnUse">
<stop offset="0.0520833" stop-color="#D9D9D9"/>
<stop offset="0.0521833" stop-color="#8E8E8E"/>
<stop offset="0.963542" stop-color="#858585"/>
<stop offset="0.984375" stop-color="#535353"/>
</linearGradient>
<linearGradient id="paint31_linear" x1="25.5" y1="79.5" x2="25.5" y2="90.5" gradientUnits="userSpaceOnUse">
<stop offset="0.0520833" stop-color="#D9D9D9"/>
<stop offset="0.0521833" stop-color="#8E8E8E"/>
<stop offset="0.963542" stop-color="#858585"/>
<stop offset="0.984375" stop-color="#535353"/>
</linearGradient>
<linearGradient id="paint32_linear" x1="25.5" y1="79.5" x2="25.5" y2="90.5" gradientUnits="userSpaceOnUse">
<stop offset="0.0520833" stop-color="#D9D9D9"/>
<stop offset="0.0521833" stop-color="#8E8E8E"/>
<stop offset="0.963542" stop-color="#858585"/>
<stop offset="0.984375" stop-color="#535353"/>
</linearGradient>
<linearGradient id="paint33_linear" x1="25.5" y1="79.5" x2="25.5" y2="90.5" gradientUnits="userSpaceOnUse">
<stop offset="0.0520833" stop-color="#D9D9D9"/>
<stop offset="0.0521833" stop-color="#8E8E8E"/>
<stop offset="0.963542" stop-color="#858585"/>
<stop offset="0.984375" stop-color="#535353"/>
</linearGradient>
<clipPath id="clip0">
<path d="M0.5 3.5C0.5 1.84315 1.84315 0.5 3.5 0.5H47.5C49.1569 0.5 50.5 1.84315 50.5 3.5V35.5C50.5 37.1569 49.1569 38.5 47.5 38.5H3.5C1.84315 38.5 0.5 37.1569 0.5 35.5V3.5Z" fill="white"/>
</clipPath>
<clipPath id="clip1">
<path d="M0.5 81.5C0.5 79.8432 1.84315 78.5 3.5 78.5H47.5C49.1569 78.5 50.5 79.8432 50.5 81.5V113.5C50.5 115.157 49.1569 116.5 47.5 116.5H3.5C1.84315 116.5 0.5 115.157 0.5 113.5V81.5Z" fill="white"/>
</clipPath>
</defs>
</svg>
