<svg width="28" height="24" viewBox="0 0 28 24" fill="none" xmlns="http://www.w3.org/2000/svg">
<path d="M2.49988 7.49982C2.49988 4.73839 4.73845 2.49982 7.49988 2.49982H15.4999C18.2613 2.49982 20.4999 4.73839 20.4999 7.49982V10.4998C20.4999 13.2612 18.2613 15.4998 15.4999 15.4998H7.49988C4.73845 15.4998 2.49988 13.2612 2.49988 10.4998V7.49982Z" fill="#CFCFCF"/>
<path fill-rule="evenodd" clip-rule="evenodd" d="M18 4.5L7.14309 4.5C5.96031 4.5 5 5.57586 5 6.90096L5 13.5L15.8569 13.5C17.0397 13.5 18 12.4239 18 11.0988L18 4.5Z" fill="#CFCFCF"/>
<path d="M10.9999 13.9998L10.9999 3.99982L11.9999 3.99982L11.9999 13.9998H10.9999Z" fill="#393B45"/>
<path d="M16.9554 7.5425C16.9354 7.5775 16.9138 7.60333 16.8904 7.62C16.8688 7.635 16.8413 7.6425 16.8079 7.6425C16.7729 7.6425 16.7346 7.63 16.6929 7.605C16.6529 7.57833 16.6046 7.54917 16.5479 7.5175C16.4913 7.48583 16.4246 7.4575 16.3479 7.4325C16.2729 7.40583 16.1838 7.3925 16.0804 7.3925C15.9871 7.3925 15.9054 7.40417 15.8354 7.4275C15.7654 7.44917 15.7063 7.48 15.6579 7.52C15.6113 7.56 15.5763 7.60833 15.5529 7.665C15.5296 7.72 15.5179 7.78083 15.5179 7.8475C15.5179 7.9325 15.5413 8.00333 15.5879 8.06C15.6363 8.11667 15.6996 8.165 15.7779 8.205C15.8563 8.245 15.9454 8.28083 16.0454 8.3125C16.1454 8.34417 16.2479 8.37833 16.3529 8.415C16.4579 8.45 16.5604 8.49167 16.6604 8.54C16.7604 8.58667 16.8496 8.64667 16.9279 8.72C17.0063 8.79167 17.0688 8.88 17.1154 8.985C17.1638 9.09 17.1879 9.2175 17.1879 9.3675C17.1879 9.53083 17.1596 9.68417 17.1029 9.8275C17.0479 9.96917 16.9663 10.0933 16.8579 10.2C16.7513 10.305 16.6204 10.3883 16.4654 10.45C16.3104 10.51 16.1329 10.54 15.9329 10.54C15.8179 10.54 15.7046 10.5283 15.5929 10.505C15.4813 10.4833 15.3738 10.4517 15.2704 10.41C15.1688 10.3683 15.0729 10.3183 14.9829 10.26C14.8929 10.2017 14.8129 10.1367 14.7429 10.065L14.9404 9.7425C14.9571 9.71917 14.9788 9.7 15.0054 9.685C15.0321 9.66833 15.0604 9.66 15.0904 9.66C15.1321 9.66 15.1771 9.6775 15.2254 9.7125C15.2738 9.74583 15.3313 9.78333 15.3979 9.825C15.4646 9.86667 15.5421 9.905 15.6304 9.94C15.7204 9.97333 15.8279 9.99 15.9529 9.99C16.1446 9.99 16.2929 9.945 16.3979 9.855C16.5029 9.76333 16.5554 9.6325 16.5554 9.4625C16.5554 9.3675 16.5313 9.29 16.4829 9.23C16.4363 9.17 16.3738 9.12 16.2954 9.08C16.2171 9.03833 16.1279 9.00333 16.0279 8.975C15.9279 8.94667 15.8263 8.91583 15.7229 8.8825C15.6196 8.84917 15.5179 8.80917 15.4179 8.7625C15.3179 8.71583 15.2288 8.655 15.1504 8.58C15.0721 8.505 15.0088 8.41167 14.9604 8.3C14.9138 8.18667 14.8904 8.0475 14.8904 7.8825C14.8904 7.75083 14.9163 7.6225 14.9679 7.4975C15.0213 7.3725 15.0979 7.26167 15.1979 7.165C15.2979 7.06833 15.4213 6.99083 15.5679 6.9325C15.7146 6.87417 15.8829 6.845 16.0729 6.845C16.2863 6.845 16.4829 6.87833 16.6629 6.945C16.8429 7.01167 16.9963 7.105 17.1229 7.225L16.9554 7.5425Z" fill="#393B45"/>
<rect x="2.35" y="1.85" width="18.3" height="13.3" rx="4.65" fill="url(#paint0_linear)" stroke="black" stroke-width="0.7"/>
<rect x="7" y="3.5" width="9" height="10" rx="2" fill="url(#paint1_linear)"/>
<g filter="url(#filter0_d)">
<path d="M13.3513 6.794C13.3113 6.858 13.2693 6.904 13.2253 6.932C13.1813 6.956 13.1253 6.968 13.0573 6.968C12.9853 6.968 12.9073 6.948 12.8233 6.908C12.7433 6.868 12.6493 6.824 12.5413 6.776C12.4333 6.724 12.3093 6.678 12.1693 6.638C12.0333 6.598 11.8713 6.578 11.6833 6.578C11.3913 6.578 11.1613 6.64 10.9933 6.764C10.8293 6.888 10.7473 7.05 10.7473 7.25C10.7473 7.382 10.7893 7.494 10.8733 7.586C10.9613 7.674 11.0753 7.752 11.2153 7.82C11.3593 7.888 11.5213 7.95 11.7013 8.006C11.8813 8.058 12.0633 8.116 12.2473 8.18C12.4353 8.244 12.6193 8.318 12.7993 8.402C12.9793 8.482 13.1393 8.586 13.2793 8.714C13.4233 8.838 13.5373 8.988 13.6213 9.164C13.7093 9.34 13.7533 9.552 13.7533 9.8C13.7533 10.096 13.6993 10.37 13.5913 10.622C13.4873 10.87 13.3313 11.086 13.1233 11.27C12.9153 11.45 12.6573 11.592 12.3493 11.696C12.0453 11.796 11.6933 11.846 11.2933 11.846C11.0813 11.846 10.8733 11.826 10.6693 11.786C10.4693 11.75 10.2753 11.698 10.0873 11.63C9.90328 11.562 9.73128 11.482 9.57128 11.39C9.41528 11.298 9.27728 11.198 9.15728 11.09L9.49928 10.526C9.54328 10.458 9.59528 10.406 9.65528 10.37C9.71528 10.334 9.79128 10.316 9.88328 10.316C9.97528 10.316 10.0613 10.342 10.1413 10.394C10.2253 10.446 10.3213 10.502 10.4293 10.562C10.5373 10.622 10.6633 10.678 10.8073 10.73C10.9553 10.782 11.1413 10.808 11.3653 10.808C11.5413 10.808 11.6913 10.788 11.8153 10.748C11.9433 10.704 12.0473 10.648 12.1273 10.58C12.2113 10.512 12.2713 10.434 12.3073 10.346C12.3473 10.254 12.3673 10.16 12.3673 10.064C12.3673 9.92 12.3233 9.802 12.2353 9.71C12.1513 9.618 12.0373 9.538 11.8933 9.47C11.7533 9.402 11.5913 9.342 11.4073 9.29C11.2273 9.234 11.0413 9.174 10.8493 9.11C10.6613 9.046 10.4753 8.972 10.2913 8.888C10.1113 8.8 9.94928 8.69 9.80528 8.558C9.66528 8.426 9.55128 8.264 9.46328 8.072C9.37928 7.88 9.33728 7.648 9.33728 7.376C9.33728 7.124 9.38728 6.884 9.48728 6.656C9.58728 6.428 9.73328 6.23 9.92528 6.062C10.1213 5.89 10.3633 5.754 10.6513 5.654C10.9433 5.55 11.2793 5.498 11.6593 5.498C12.0833 5.498 12.4693 5.568 12.8173 5.708C13.1653 5.848 13.4553 6.032 13.6873 6.26L13.3513 6.794Z" fill="black"/>
</g>
<defs>
<filter id="filter0_d" x="5.15723" y="5.498" width="12.5961" height="14.348" filterUnits="userSpaceOnUse" color-interpolation-filters="sRGB">
<feFlood flood-opacity="0" result="BackgroundImageFix"/>
<feColorMatrix in="SourceAlpha" type="matrix" values="0 0 0 0 0 0 0 0 0 0 0 0 0 0 0 0 0 0 127 0" result="hardAlpha"/>
<feOffset dy="4"/>
<feGaussianBlur stdDeviation="2"/>
<feComposite in2="hardAlpha" operator="out"/>
<feColorMatrix type="matrix" values="0 0 0 0 0 0 0 0 0 0 0 0 0 0 0 0 0 0 0.25 0"/>
<feBlend mode="normal" in2="BackgroundImageFix" result="effect1_dropShadow"/>
<feBlend mode="normal" in="SourceGraphic" in2="effect1_dropShadow" result="shape"/>
</filter>
<linearGradient id="paint0_linear" x1="3" y1="15" x2="3" y2="2" gradientUnits="userSpaceOnUse">
<stop offset="0.192708" stop-color="#777777"/>
<stop offset="0.609375" stop-color="#858585"/>
<stop offset="0.822917" stop-color="#DADADA"/>
</linearGradient>
<linearGradient id="paint1_linear" x1="7" y1="13.5" x2="7" y2="3.5" gradientUnits="userSpaceOnUse">
<stop stop-color="#E8E8E8"/>
<stop offset="0.609375" stop-color="#ABABAB"/>
<stop offset="1" stop-color="#3E3E3E"/>
</linearGradient>
</defs>
</svg>
