<svg width="56" height="48" viewBox="0 0 56 48" fill="none" xmlns="http://www.w3.org/2000/svg">
<rect x="2" y="1.5" width="19" height="14" rx="5" fill="url(#paint0_linear)" stroke="#EEEEEE" stroke-width="0.7"/>
<rect x="7" y="3.5" width="9" height="10" rx="2" fill="url(#paint1_linear)"/>
<path d="M7 5.5C7 4.39543 7.89543 3.5 9 3.5H14C15.1046 3.5 16 4.39543 16 5.5L16 11.5C16 12.6046 15.1046 13.5 14 13.5H9C7.89543 13.5 7 12.6046 7 11.5L7 5.5Z" fill="url(#paint2_linear)"/>
<rect x="2" y="25.5" width="19" height="14" rx="5" fill="url(#paint3_linear)" stroke="#EEEEEE" stroke-width="0.7"/>
<rect x="7" y="27.5" width="9" height="10" rx="2" fill="url(#paint4_linear)"/>
<path opacity="0.25" d="M7 29.5C7 28.3954 7.89543 27.5 9 27.5H14C15.1046 27.5 16 28.3954 16 29.5L16 35.5C16 36.6046 15.1046 37.5 14 37.5H9C7.89543 37.5 7 36.6046 7 35.5L7 29.5Z" fill="url(#paint5_linear)"/>
<rect x="30" y="1.5" width="19" height="14" rx="5" fill="url(#paint6_linear)" stroke="#EEEEEE" stroke-width="0.7"/>
<path opacity="0.25" d="M35 5.5C35 4.39543 35.8954 3.5 37 3.5H42C43.1046 3.5 44 4.39543 44 5.5L44 11.5C44 12.6046 43.1046 13.5 42 13.5H37C35.8954 13.5 35 12.6046 35 11.5L35 5.5Z" fill="url(#paint7_linear)"/>
<rect x="35" y="3.5" width="9" height="10" rx="2" fill="url(#paint8_linear)"/>
<rect x="30" y="25.5" width="19" height="14" rx="5" fill="url(#paint9_linear)" stroke="#EEEEEE" stroke-width="0.7"/>
<rect x="35" y="27.5" width="9" height="10" rx="2" fill="url(#paint10_linear)"/>
<path opacity="0.25" d="M35 29.5C35 28.3954 35.8954 27.5 37 27.5H42C43.1046 27.5 44 28.3954 44 29.5L44 35.5C44 36.6046 43.1046 37.5 42 37.5H37C35.8954 37.5 35 36.6046 35 35.5L35 29.5Z" fill="url(#paint11_linear)"/>
<defs>
<linearGradient id="paint0_linear" x1="3" y1="15" x2="3" y2="2" gradientUnits="userSpaceOnUse">
<stop offset="0.192708" stop-color="#777777"/>
<stop offset="0.609375" stop-color="#858585"/>
<stop offset="0.822917" stop-color="#DADADA"/>
</linearGradient>
<linearGradient id="paint1_linear" x1="7" y1="13.5" x2="7" y2="3.5" gradientUnits="userSpaceOnUse">
<stop stop-color="#E8E8E8"/>
<stop offset="0.609375" stop-color="#ABABAB"/>
<stop offset="1" stop-color="#3E3E3E"/>
</linearGradient>
<linearGradient id="paint2_linear" x1="18" y1="3.5" x2="5" y2="3.5" gradientUnits="userSpaceOnUse">
<stop stop-color="#4A4A4A"/>
<stop offset="0.497963" stop-color="#D2D2D2"/>
<stop offset="0.885417" stop-color="#414141"/>
</linearGradient>
<linearGradient id="paint3_linear" x1="21" y1="25.5" x2="2" y2="26" gradientUnits="userSpaceOnUse">
<stop offset="0.182158" stop-color="#3E3E3E"/>
<stop offset="0.980215" stop-color="#9B9B9B"/>
</linearGradient>
<linearGradient id="paint4_linear" x1="18" y1="27.5" x2="5" y2="27.5" gradientUnits="userSpaceOnUse">
<stop stop-color="#4A4A4A"/>
<stop offset="0.497963" stop-color="#D2D2D2"/>
<stop offset="0.885417" stop-color="#414141"/>
</linearGradient>
<linearGradient id="paint5_linear" x1="7" y1="28" x2="16" y2="28" gradientUnits="userSpaceOnUse">
<stop offset="0.182158" stop-color="#2E2E2E"/>
<stop offset="0.980215" stop-color="#A6A6A6"/>
</linearGradient>
<linearGradient id="paint6_linear" x1="31.5" y1="15" x2="31.5" y2="1.5" gradientUnits="userSpaceOnUse">
<stop stop-color="#606060"/>
<stop offset="0.0001" stop-color="#676768"/>
<stop offset="0.302083" stop-color="#4487F6"/>
<stop offset="0.651042" stop-color="#4487F6"/>
<stop offset="0.755208" stop-color="#74AEFE"/>
</linearGradient>
<linearGradient id="paint7_linear" x1="35" y1="13" x2="35" y2="4.5" gradientUnits="userSpaceOnUse">
<stop offset="0.100332" stop-color="#71ACFD"/>
<stop offset="0.46875" stop-color="#4585EE"/>
<stop offset="0.903246" stop-color="#5B6677"/>
</linearGradient>
<linearGradient id="paint8_linear" x1="44" y1="3.5" x2="35" y2="3.5" gradientUnits="userSpaceOnUse">
<stop stop-color="#414141"/>
<stop offset="0.497963" stop-color="#4B97FF"/>
<stop offset="1" stop-color="#414141"/>
</linearGradient>
<linearGradient id="paint9_linear" x1="31.5" y1="39" x2="31.5" y2="25.5" gradientUnits="userSpaceOnUse">
<stop stop-color="#606060"/>
<stop offset="0.0001" stop-color="#676768"/>
<stop offset="0.302083" stop-color="#4487F6"/>
<stop offset="0.651042" stop-color="#4487F6"/>
<stop offset="0.755208" stop-color="#74AEFE"/>
</linearGradient>
<linearGradient id="paint10_linear" x1="44" y1="27.5" x2="35" y2="27.5" gradientUnits="userSpaceOnUse">
<stop stop-color="#414141"/>
<stop offset="0.497963" stop-color="#4B97FF"/>
<stop offset="1" stop-color="#414141"/>
</linearGradient>
<linearGradient id="paint11_linear" x1="35" y1="37" x2="35" y2="28.5" gradientUnits="userSpaceOnUse">
<stop offset="0.100332" stop-color="#71ACFD"/>
<stop offset="0.46875" stop-color="#4585EE"/>
<stop offset="0.903246" stop-color="#5B6677"/>
</linearGradient>
</defs>
</svg>
