<svg width="51" height="117" viewBox="0 0 51 117" fill="none" xmlns="http://www.w3.org/2000/svg">
<g clip-path="url(#clip0)">
<path d="M2.5 3.5C2.5 2.94772 2.94772 2.5 3.5 2.5H47.5C48.0523 2.5 48.5 2.94772 48.5 3.5V11H2.5V3.5Z" fill="#F1BB72"/>
<path d="M2.5 3.5C2.5 2.94772 2.94772 2.5 3.5 2.5H47.5C48.0523 2.5 48.5 2.94772 48.5 3.5V11H2.5V3.5Z" stroke="#F1BB72"/>
<path d="M11.5427 5.688V7.186H13.4397V7.9385H11.5427V10H10.5977V4.939H13.7897V5.688H11.5427ZM15.9871 7.347C16.1644 7.347 16.3184 7.32483 16.4491 7.2805C16.5821 7.23617 16.6906 7.1755 16.7746 7.0985C16.8609 7.01917 16.9251 6.92583 16.9671 6.8185C17.0091 6.71117 17.0301 6.59333 17.0301 6.465C17.0301 6.20833 16.9449 6.01117 16.7746 5.8735C16.6066 5.73583 16.3487 5.667 16.0011 5.667H15.3991V7.347H15.9871ZM18.4091 10H17.5586C17.3976 10 17.2809 9.937 17.2086 9.811L16.1446 8.1905C16.1049 8.12983 16.0606 8.08667 16.0116 8.061C15.9649 8.03533 15.8949 8.0225 15.8016 8.0225H15.3991V10H14.4576V4.939H16.0011C16.3441 4.939 16.6381 4.97517 16.8831 5.0475C17.1304 5.1175 17.3322 5.21667 17.4886 5.345C17.6472 5.47333 17.7639 5.62733 17.8386 5.807C17.9132 5.98433 17.9506 6.18033 17.9506 6.395C17.9506 6.56533 17.9249 6.72633 17.8736 6.878C17.8246 7.02967 17.7522 7.16733 17.6566 7.291C17.5632 7.41467 17.4466 7.52317 17.3066 7.6165C17.1689 7.70983 17.0114 7.78333 16.8341 7.837C16.8947 7.872 16.9507 7.914 17.0021 7.963C17.0534 8.00967 17.1001 8.06567 17.1421 8.131L18.4091 10ZM19.7956 5.688V7.0915H21.5666V7.816H19.7956V9.2475H22.0426V10H18.8506V4.939H22.0426V5.688H19.7956ZM23.717 5.688V7.0915H25.488V7.816H23.717V9.2475H25.964V10H22.772V4.939H25.964V5.688H23.717ZM28.2229 7.347C28.4002 7.347 28.5542 7.32483 28.6849 7.2805C28.8179 7.23617 28.9264 7.1755 29.0104 7.0985C29.0967 7.01917 29.1609 6.92583 29.2029 6.8185C29.2449 6.71117 29.2659 6.59333 29.2659 6.465C29.2659 6.20833 29.1807 6.01117 29.0104 5.8735C28.8424 5.73583 28.5845 5.667 28.2369 5.667H27.6349V7.347H28.2229ZM30.6449 10H29.7944C29.6334 10 29.5167 9.937 29.4444 9.811L28.3804 8.1905C28.3407 8.12983 28.2964 8.08667 28.2474 8.061C28.2007 8.03533 28.1307 8.0225 28.0374 8.0225H27.6349V10H26.6934V4.939H28.2369C28.5799 4.939 28.8739 4.97517 29.1189 5.0475C29.3662 5.1175 29.568 5.21667 29.7244 5.345C29.883 5.47333 29.9997 5.62733 30.0744 5.807C30.149 5.98433 30.1864 6.18033 30.1864 6.395C30.1864 6.56533 30.1607 6.72633 30.1094 6.878C30.0604 7.02967 29.988 7.16733 29.8924 7.291C29.799 7.41467 29.6824 7.52317 29.5424 7.6165C29.4047 7.70983 29.2472 7.78333 29.0699 7.837C29.1305 7.872 29.1865 7.914 29.2379 7.963C29.2892 8.00967 29.3359 8.06567 29.3779 8.131L30.6449 10ZM33.0824 9.2405C33.2644 9.2405 33.4266 9.21017 33.5689 9.1495C33.7136 9.08883 33.8349 9.00367 33.9329 8.894C34.0309 8.78433 34.1056 8.65133 34.1569 8.495C34.2106 8.33867 34.2374 8.16367 34.2374 7.97V4.939H35.1789V7.97C35.1789 8.271 35.1299 8.54983 35.0319 8.8065C34.9362 9.06083 34.7974 9.28133 34.6154 9.468C34.4357 9.65233 34.2164 9.797 33.9574 9.902C33.6984 10.0047 33.4067 10.056 33.0824 10.056C32.7557 10.056 32.4629 10.0047 32.2039 9.902C31.9449 9.797 31.7244 9.65233 31.5424 9.468C31.3627 9.28133 31.2239 9.06083 31.1259 8.8065C31.0302 8.54983 30.9824 8.271 30.9824 7.97V4.939H31.9239V7.9665C31.9239 8.16017 31.9496 8.33517 32.0009 8.4915C32.0546 8.64783 32.1304 8.782 32.2284 8.894C32.3287 9.00367 32.4501 9.08883 32.5924 9.1495C32.7371 9.21017 32.9004 9.2405 33.0824 9.2405ZM40.4022 4.939V10H39.9192C39.8445 10 39.7815 9.98833 39.7302 9.965C39.6812 9.93933 39.6334 9.89733 39.5867 9.839L36.9442 6.465C36.9582 6.619 36.9652 6.76133 36.9652 6.892V10H36.1357V4.939H36.6292C36.6689 4.939 36.7027 4.94133 36.7307 4.946C36.761 4.94833 36.7867 4.95533 36.8077 4.967C36.831 4.97633 36.8532 4.9915 36.8742 5.0125C36.8952 5.03117 36.9185 5.05683 36.9442 5.0895L39.5972 8.4775C39.5902 8.39583 39.5844 8.31533 39.5797 8.236C39.575 8.15667 39.5727 8.08317 39.5727 8.0155V4.939H40.4022Z" fill="black"/>
</g>
<rect x="2.5" y="54" width="46" height="9" fill="#F1BB72"/>
<rect x="2.5" y="54" width="46" height="9" stroke="#F1BB72"/>
<path d="M6.06734 58.56H6.28784C6.37651 58.56 6.45001 58.5483 6.50834 58.525C6.56668 58.4993 6.61684 58.4597 6.65884 58.406L8.05534 56.6385C8.11368 56.5638 8.17434 56.5125 8.23734 56.4845C8.30268 56.4542 8.38434 56.439 8.48234 56.439H9.29434L7.58984 58.5425C7.48951 58.6708 7.38568 58.7618 7.27834 58.8155C7.35534 58.8435 7.42418 58.8832 7.48484 58.9345C7.54784 58.9835 7.60734 59.0488 7.66334 59.1305L9.42034 61.5H8.59084C8.47884 61.5 8.39484 61.4848 8.33884 61.4545C8.28518 61.4218 8.23968 61.3752 8.20234 61.3145L6.77084 59.4455C6.72651 59.3825 6.67518 59.3382 6.61684 59.3125C6.55851 59.2868 6.47451 59.274 6.36484 59.274H6.06734V61.5H5.12584V56.439H6.06734V58.56ZM10.7647 57.188V58.5915H12.5357V59.316H10.7647V60.7475H13.0117V61.5H9.81967V56.439H13.0117V57.188H10.7647ZM15.9145 59.54V61.5H14.9765V59.54L13.132 56.439H13.9615C14.0432 56.439 14.1074 56.4588 14.154 56.4985C14.203 56.5382 14.2439 56.5883 14.2765 56.649L15.2005 58.3395C15.2542 58.4398 15.3009 58.5343 15.3405 58.623C15.3825 58.7117 15.4199 58.8003 15.4525 58.889C15.4829 58.8003 15.5179 58.7117 15.5575 58.623C15.5972 58.5343 15.6427 58.4398 15.694 58.3395L16.6145 56.649C16.6402 56.5977 16.6787 56.5498 16.73 56.5055C16.7814 56.4612 16.8467 56.439 16.926 56.439H17.759L15.9145 59.54ZM21.7101 57.2125H20.1841V61.5H19.2426V57.2125H17.7166V56.439H21.7101V57.2125ZM23.7969 58.847C23.9742 58.847 24.1282 58.8248 24.2589 58.7805C24.3919 58.7362 24.5004 58.6755 24.5844 58.5985C24.6707 58.5192 24.7349 58.4258 24.7769 58.3185C24.8189 58.2112 24.8399 58.0933 24.8399 57.965C24.8399 57.7083 24.7547 57.5112 24.5844 57.3735C24.4164 57.2358 24.1585 57.167 23.8109 57.167H23.2089V58.847H23.7969ZM26.2189 61.5H25.3684C25.2074 61.5 25.0907 61.437 25.0184 61.311L23.9544 59.6905C23.9147 59.6298 23.8704 59.5867 23.8214 59.561C23.7747 59.5353 23.7047 59.5225 23.6114 59.5225H23.2089V61.5H22.2674V56.439H23.8109C24.1539 56.439 24.4479 56.4752 24.6929 56.5475C24.9402 56.6175 25.142 56.7167 25.2984 56.845C25.457 56.9733 25.5737 57.1273 25.6484 57.307C25.723 57.4843 25.7604 57.6803 25.7604 57.895C25.7604 58.0653 25.7347 58.2263 25.6834 58.378C25.6344 58.5297 25.562 58.6673 25.4664 58.791C25.373 58.9147 25.2564 59.0232 25.1164 59.1165C24.9787 59.2098 24.8212 59.2833 24.6439 59.337C24.7045 59.372 24.7605 59.414 24.8119 59.463C24.8632 59.5097 24.9099 59.5657 24.9519 59.631L26.2189 61.5ZM27.6054 61.5H26.6604V56.439H27.6054V61.5ZM32.8055 58.9625V61.01C32.5489 61.199 32.2747 61.3378 31.983 61.4265C31.6937 61.5128 31.3834 61.556 31.052 61.556C30.639 61.556 30.2645 61.4918 29.9285 61.3635C29.5949 61.2352 29.309 61.0567 29.071 60.828C28.8354 60.5993 28.6534 60.3263 28.525 60.009C28.3967 59.6917 28.3325 59.3452 28.3325 58.9695C28.3325 58.5892 28.3944 58.2403 28.518 57.923C28.6417 57.6057 28.8167 57.3327 29.043 57.104C29.2717 56.8753 29.5482 56.698 29.8725 56.572C30.1969 56.446 30.5609 56.383 30.9645 56.383C31.1699 56.383 31.3612 56.3993 31.5385 56.432C31.7182 56.4647 31.8839 56.5102 32.0355 56.5685C32.1895 56.6245 32.3295 56.6933 32.4555 56.775C32.5815 56.8567 32.697 56.9465 32.802 57.0445L32.5325 57.4715C32.4905 57.5392 32.4357 57.5812 32.368 57.5975C32.3004 57.6115 32.2269 57.594 32.1475 57.545C32.0705 57.5007 31.9935 57.4563 31.9165 57.412C31.8395 57.3677 31.7532 57.3292 31.6575 57.2965C31.5642 57.2638 31.458 57.237 31.339 57.216C31.2224 57.195 31.087 57.1845 30.933 57.1845C30.6834 57.1845 30.457 57.2265 30.254 57.3105C30.0534 57.3945 29.8819 57.5147 29.7395 57.671C29.5972 57.8273 29.4875 58.0152 29.4105 58.2345C29.3335 58.4538 29.295 58.6988 29.295 58.9695C29.295 59.2588 29.3359 59.5178 29.4175 59.7465C29.5015 59.9728 29.6182 60.1653 29.7675 60.324C29.9192 60.4803 30.1012 60.6005 30.3135 60.6845C30.5259 60.7662 30.7627 60.807 31.024 60.807C31.2107 60.807 31.3775 60.7872 31.5245 60.7475C31.6715 60.7078 31.815 60.6542 31.955 60.5865V59.6695H31.318C31.2574 59.6695 31.2095 59.6532 31.1745 59.6205C31.1419 59.5855 31.1255 59.5435 31.1255 59.4945V58.9625H32.8055ZM37.7796 58.9625V61.01C37.523 61.199 37.2488 61.3378 36.9571 61.4265C36.6678 61.5128 36.3575 61.556 36.0261 61.556C35.6131 61.556 35.2386 61.4918 34.9026 61.3635C34.569 61.2352 34.2831 61.0567 34.0451 60.828C33.8095 60.5993 33.6275 60.3263 33.4991 60.009C33.3708 59.6917 33.3066 59.3452 33.3066 58.9695C33.3066 58.5892 33.3685 58.2403 33.4921 57.923C33.6158 57.6057 33.7908 57.3327 34.0171 57.104C34.2458 56.8753 34.5223 56.698 34.8466 56.572C35.171 56.446 35.535 56.383 35.9386 56.383C36.144 56.383 36.3353 56.3993 36.5126 56.432C36.6923 56.4647 36.858 56.5102 37.0096 56.5685C37.1636 56.6245 37.3036 56.6933 37.4296 56.775C37.5556 56.8567 37.6711 56.9465 37.7761 57.0445L37.5066 57.4715C37.4646 57.5392 37.4098 57.5812 37.3421 57.5975C37.2745 57.6115 37.201 57.594 37.1216 57.545C37.0446 57.5007 36.9676 57.4563 36.8906 57.412C36.8136 57.3677 36.7273 57.3292 36.6316 57.2965C36.5383 57.2638 36.4321 57.237 36.3131 57.216C36.1965 57.195 36.0611 57.1845 35.9071 57.1845C35.6575 57.1845 35.4311 57.2265 35.2281 57.3105C35.0275 57.3945 34.856 57.5147 34.7136 57.671C34.5713 57.8273 34.4616 58.0152 34.3846 58.2345C34.3076 58.4538 34.2691 58.6988 34.2691 58.9695C34.2691 59.2588 34.31 59.5178 34.3916 59.7465C34.4756 59.9728 34.5923 60.1653 34.7416 60.324C34.8933 60.4803 35.0753 60.6005 35.2876 60.6845C35.5 60.7662 35.7368 60.807 35.9981 60.807C36.1848 60.807 36.3516 60.7872 36.4986 60.7475C36.6456 60.7078 36.7891 60.6542 36.9291 60.5865V59.6695H36.2921C36.2315 59.6695 36.1836 59.6532 36.1486 59.6205C36.116 59.5855 36.0996 59.5435 36.0996 59.4945V58.9625H37.7796ZM39.5267 57.188V58.5915H41.2977V59.316H39.5267V60.7475H41.7737V61.5H38.5817V56.439H41.7737V57.188H39.5267ZM44.0326 58.847C44.2099 58.847 44.3639 58.8248 44.4946 58.7805C44.6276 58.7362 44.7361 58.6755 44.8201 58.5985C44.9064 58.5192 44.9706 58.4258 45.0126 58.3185C45.0546 58.2112 45.0756 58.0933 45.0756 57.965C45.0756 57.7083 44.9904 57.5112 44.8201 57.3735C44.6521 57.2358 44.3943 57.167 44.0466 57.167H43.4446V58.847H44.0326ZM46.4546 61.5H45.6041C45.4431 61.5 45.3264 61.437 45.2541 61.311L44.1901 59.6905C44.1504 59.6298 44.1061 59.5867 44.0571 59.561C44.0104 59.5353 43.9404 59.5225 43.8471 59.5225H43.4446V61.5H42.5031V56.439H44.0466C44.3896 56.439 44.6836 56.4752 44.9286 56.5475C45.1759 56.6175 45.3778 56.7167 45.5341 56.845C45.6928 56.9733 45.8094 57.1273 45.8841 57.307C45.9588 57.4843 45.9961 57.6803 45.9961 57.895C45.9961 58.0653 45.9704 58.2263 45.9191 58.378C45.8701 58.5297 45.7978 58.6673 45.7021 58.791C45.6088 58.9147 45.4921 59.0232 45.3521 59.1165C45.2144 59.2098 45.0569 59.2833 44.8796 59.337C44.9403 59.372 44.9963 59.414 45.0476 59.463C45.0989 59.5097 45.1456 59.5657 45.1876 59.631L46.4546 61.5Z" fill="black"/>
<g clip-path="url(#clip1)">
<path fill-rule="evenodd" clip-rule="evenodd" d="M1.5 104.5V113.5C1.5 114.605 2.39543 115.5 3.5 115.5H47.5C48.6046 115.5 49.5 114.605 49.5 113.5V104.5H1.5Z" fill="#F1BB72"/>
<path d="M11.6817 110.097C11.859 110.097 12.013 110.075 12.1437 110.031C12.2767 109.986 12.3852 109.926 12.4692 109.849C12.5555 109.769 12.6197 109.676 12.6617 109.569C12.7037 109.461 12.7247 109.343 12.7247 109.215C12.7247 108.958 12.6395 108.761 12.4692 108.624C12.3012 108.486 12.0433 108.417 11.6957 108.417H11.0937V110.097H11.6817ZM14.1037 112.75H13.2532C13.0922 112.75 12.9755 112.687 12.9032 112.561L11.8392 110.941C11.7995 110.88 11.7552 110.837 11.7062 110.811C11.6595 110.785 11.5895 110.773 11.4962 110.773H11.0937V112.75H10.1522V107.689H11.6957C12.0387 107.689 12.3327 107.725 12.5777 107.798C12.825 107.868 13.0268 107.967 13.1832 108.095C13.3418 108.223 13.4585 108.377 13.5332 108.557C13.6078 108.734 13.6452 108.93 13.6452 109.145C13.6452 109.315 13.6195 109.476 13.5682 109.628C13.5192 109.78 13.4468 109.917 13.3512 110.041C13.2578 110.165 13.1412 110.273 13.0012 110.367C12.8635 110.46 12.706 110.533 12.5287 110.587C12.5893 110.622 12.6453 110.664 12.6967 110.713C12.748 110.76 12.7947 110.816 12.8367 110.881L14.1037 112.75ZM17.2192 110.839L16.6032 109.156C16.5729 109.081 16.5414 108.992 16.5087 108.89C16.4761 108.787 16.4434 108.676 16.4107 108.557C16.3804 108.676 16.3489 108.788 16.3162 108.893C16.2836 108.996 16.2521 109.086 16.2217 109.163L15.6092 110.839H17.2192ZM18.8817 112.75H18.1537C18.0721 112.75 18.0056 112.73 17.9542 112.691C17.9029 112.649 17.8644 112.597 17.8387 112.537L17.4607 111.504H15.3642L14.9862 112.537C14.9676 112.59 14.9314 112.639 14.8777 112.684C14.8241 112.728 14.7576 112.75 14.6782 112.75H13.9432L15.9347 107.689H16.8937L18.8817 112.75ZM23.5671 107.689V112.75H23.0841C23.0094 112.75 22.9464 112.738 22.8951 112.715C22.8461 112.689 22.7982 112.647 22.7516 112.589L20.1091 109.215C20.1231 109.369 20.1301 109.511 20.1301 109.642V112.75H19.3006V107.689H19.7941C19.8337 107.689 19.8676 107.691 19.8956 107.696C19.9259 107.698 19.9516 107.705 19.9726 107.717C19.9959 107.726 20.0181 107.742 20.0391 107.763C20.0601 107.781 20.0834 107.807 20.1091 107.84L22.7621 111.228C22.7551 111.146 22.7492 111.065 22.7446 110.986C22.7399 110.907 22.7376 110.833 22.7376 110.766V107.689H23.5671ZM29.0831 110.22C29.0831 110.591 29.0213 110.931 28.8976 111.242C28.774 111.552 28.6001 111.819 28.3761 112.043C28.1521 112.267 27.8826 112.441 27.5676 112.565C27.2526 112.688 26.9026 112.75 26.5176 112.75H24.5891V107.689H26.5176C26.9026 107.689 27.2526 107.752 27.5676 107.878C27.8826 108.002 28.1521 108.176 28.3761 108.4C28.6001 108.621 28.774 108.887 28.8976 109.198C29.0213 109.508 29.0831 109.849 29.0831 110.22ZM28.1171 110.22C28.1171 109.942 28.0798 109.693 28.0051 109.474C27.9328 109.252 27.8266 109.066 27.6866 108.914C27.549 108.76 27.381 108.642 27.1826 108.561C26.9866 108.479 26.765 108.438 26.5176 108.438H25.5341V112.001H26.5176C26.765 112.001 26.9866 111.96 27.1826 111.879C27.381 111.797 27.549 111.68 27.6866 111.529C27.8266 111.375 27.9328 111.188 28.0051 110.969C28.0798 110.747 28.1171 110.497 28.1171 110.22ZM34.6358 110.22C34.6358 110.591 34.574 110.935 34.4503 111.252C34.329 111.567 34.1563 111.84 33.9323 112.071C33.7083 112.302 33.4388 112.483 33.1238 112.614C32.8088 112.742 32.4588 112.806 32.0738 112.806C31.6912 112.806 31.3423 112.742 31.0273 112.614C30.7123 112.483 30.4417 112.302 30.2153 112.071C29.9913 111.84 29.8175 111.567 29.6938 111.252C29.5702 110.935 29.5083 110.591 29.5083 110.22C29.5083 109.849 29.5702 109.506 29.6938 109.191C29.8175 108.873 29.9913 108.599 30.2153 108.368C30.4417 108.137 30.7123 107.957 31.0273 107.829C31.3423 107.698 31.6912 107.633 32.0738 107.633C32.3305 107.633 32.572 107.663 32.7983 107.724C33.0247 107.782 33.2323 107.866 33.4213 107.976C33.6103 108.083 33.7795 108.215 33.9288 108.372C34.0805 108.526 34.2088 108.698 34.3138 108.89C34.4188 109.081 34.4982 109.289 34.5518 109.513C34.6078 109.737 34.6358 109.972 34.6358 110.22ZM33.6733 110.22C33.6733 109.942 33.636 109.693 33.5613 109.474C33.4867 109.252 33.3805 109.065 33.2428 108.911C33.1052 108.757 32.9372 108.639 32.7388 108.557C32.5428 108.475 32.3212 108.435 32.0738 108.435C31.8265 108.435 31.6037 108.475 31.4053 108.557C31.2093 108.639 31.0413 108.757 30.9013 108.911C30.7637 109.065 30.6575 109.252 30.5828 109.474C30.5082 109.693 30.4708 109.942 30.4708 110.22C30.4708 110.497 30.5082 110.747 30.5828 110.969C30.6575 111.188 30.7637 111.375 30.9013 111.529C31.0413 111.68 31.2093 111.797 31.4053 111.879C31.6037 111.96 31.8265 112.001 32.0738 112.001C32.3212 112.001 32.5428 111.96 32.7388 111.879C32.9372 111.797 33.1052 111.68 33.2428 111.529C33.3805 111.375 33.4867 111.188 33.5613 110.969C33.636 110.747 33.6733 110.497 33.6733 110.22ZM40.8456 107.689V112.75H40.0161V109.481C40.0161 109.35 40.0231 109.209 40.0371 109.058L38.5076 111.931C38.4353 112.069 38.3245 112.138 38.1751 112.138H38.0421C37.8928 112.138 37.782 112.069 37.7096 111.931L36.1626 109.047C36.1696 109.124 36.1755 109.2 36.1801 109.275C36.1848 109.349 36.1871 109.418 36.1871 109.481V112.75H35.3576V107.689H36.0681C36.1101 107.689 36.1463 107.69 36.1766 107.693C36.207 107.695 36.2338 107.701 36.2571 107.71C36.2828 107.719 36.305 107.735 36.3236 107.756C36.3446 107.777 36.3645 107.805 36.3831 107.84L37.8986 110.65C37.9383 110.725 37.9745 110.802 38.0071 110.881C38.0421 110.96 38.076 111.042 38.1086 111.126C38.1413 111.04 38.1751 110.957 38.2101 110.878C38.2451 110.796 38.2825 110.718 38.3221 110.643L39.8166 107.84C39.8353 107.805 39.8551 107.777 39.8761 107.756C39.8971 107.735 39.9193 107.719 39.9426 107.71C39.9683 107.701 39.9963 107.695 40.0266 107.693C40.057 107.69 40.0931 107.689 40.1351 107.689H40.8456Z" fill="black"/>
</g>
<defs>
<clipPath id="clip0">
<path d="M0.5 3.5C0.5 1.84315 1.84315 0.5 3.5 0.5H47.5C49.1569 0.5 50.5 1.84315 50.5 3.5V35.5C50.5 37.1569 49.1569 38.5 47.5 38.5H3.5C1.84315 38.5 0.5 37.1569 0.5 35.5V3.5Z" fill="white"/>
</clipPath>
<clipPath id="clip1">
<path d="M0.5 81.5C0.5 79.8432 1.84315 78.5 3.5 78.5H47.5C49.1569 78.5 50.5 79.8432 50.5 81.5V113.5C50.5 115.157 49.1569 116.5 47.5 116.5H3.5C1.84315 116.5 0.5 115.157 0.5 113.5V81.5Z" fill="white"/>
</clipPath>
</defs>
</svg>
