<svg width="135" height="36" viewBox="0 0 135 36" fill="none" xmlns="http://www.w3.org/2000/svg">
<path d="M43.5 2.5H3.5C2.94772 2.5 2.5 2.94772 2.5 3.5V8.5C2.5 9.05228 2.94772 9.5 3.5 9.5H43.5C44.0523 9.5 44.5 9.05228 44.5 8.5V3.5C44.5 2.94772 44.0523 2.5 43.5 2.5Z" fill="#F1BB72"/>
<path d="M43.5 2.5H3.5C2.94772 2.5 2.5 2.94772 2.5 3.5V8.5C2.5 9.05228 2.94772 9.5 3.5 9.5H43.5C44.0523 9.5 44.5 9.05228 44.5 8.5V3.5C44.5 2.94772 44.0523 2.5 43.5 2.5Z" stroke="#F1BB72"/>
<path d="M18.8794 3.216L17.0834 9H16.1114L14.8474 5.048C14.8127 4.952 14.7807 4.83467 14.7514 4.696C14.7354 4.76267 14.7194 4.82533 14.7034 4.884C14.6874 4.94267 14.67 4.99733 14.6514 5.048L13.3754 9H12.3994L10.6074 3.216H11.5074C11.6007 3.216 11.678 3.23867 11.7394 3.284C11.8034 3.32667 11.846 3.38533 11.8674 3.46L12.8514 6.92C12.8727 7.00533 12.8927 7.09867 12.9114 7.2C12.9327 7.29867 12.954 7.40267 12.9754 7.512C12.9967 7.4 13.0194 7.29467 13.0434 7.196C13.07 7.09733 13.098 7.00533 13.1274 6.92L14.2634 3.46C14.2847 3.39867 14.326 3.34267 14.3874 3.292C14.4514 3.24133 14.5287 3.216 14.6194 3.216H14.9354C15.0287 3.216 15.1047 3.23867 15.1634 3.284C15.222 3.32933 15.266 3.388 15.2954 3.46L16.4274 6.92C16.4834 7.08533 16.534 7.276 16.5794 7.492C16.614 7.28133 16.6527 7.09067 16.6954 6.92L17.6794 3.46C17.6954 3.39333 17.7354 3.336 17.7994 3.288C17.866 3.24 17.9447 3.216 18.0354 3.216H18.8794ZM22.1428 6.816L21.4388 4.892C21.4041 4.80667 21.3681 4.70533 21.3308 4.588C21.2935 4.47067 21.2561 4.344 21.2188 4.208C21.1841 4.344 21.1481 4.472 21.1108 4.592C21.0735 4.70933 21.0375 4.812 21.0028 4.9L20.3028 6.816H22.1428ZM24.0428 9H23.2108C23.1175 9 23.0415 8.97733 22.9828 8.932C22.9241 8.884 22.8801 8.82533 22.8508 8.756L22.4188 7.576H20.0228L19.5908 8.756C19.5695 8.81733 19.5281 8.87333 19.4668 8.924C19.4055 8.97467 19.3295 9 19.2388 9H18.3988L20.6748 3.216H21.7708L24.0428 9ZM26.2695 5.968C26.4722 5.968 26.6482 5.94267 26.7975 5.892C26.9495 5.84133 27.0735 5.772 27.1695 5.684C27.2682 5.59333 27.3415 5.48667 27.3895 5.364C27.4375 5.24133 27.4615 5.10667 27.4615 4.96C27.4615 4.66667 27.3642 4.44133 27.1695 4.284C26.9775 4.12667 26.6828 4.048 26.2855 4.048H25.5975V5.968H26.2695ZM29.0375 9H28.0655C27.8815 9 27.7482 8.928 27.6655 8.784L26.4495 6.932C26.4042 6.86267 26.3535 6.81333 26.2975 6.784C26.2442 6.75467 26.1642 6.74 26.0575 6.74H25.5975V9H24.5215V3.216H26.2855C26.6775 3.216 27.0135 3.25733 27.2935 3.34C27.5762 3.42 27.8068 3.53333 27.9855 3.68C28.1668 3.82667 28.3002 4.00267 28.3855 4.208C28.4708 4.41067 28.5135 4.63467 28.5135 4.88C28.5135 5.07467 28.4842 5.25867 28.4255 5.432C28.3695 5.60533 28.2868 5.76267 28.1775 5.904C28.0708 6.04533 27.9375 6.16933 27.7775 6.276C27.6202 6.38267 27.4402 6.46667 27.2375 6.528C27.3068 6.568 27.3708 6.616 27.4295 6.672C27.4882 6.72533 27.5415 6.78933 27.5895 6.864L29.0375 9ZM35.8141 3.216V9H34.8661V5.264C34.8661 5.11467 34.8741 4.95333 34.8901 4.78L33.1421 8.064C33.0595 8.22133 32.9328 8.3 32.7621 8.3H32.6101C32.4395 8.3 32.3128 8.22133 32.2301 8.064L30.4621 4.768C30.4701 4.856 30.4768 4.94267 30.4821 5.028C30.4875 5.11333 30.4901 5.192 30.4901 5.264V9H29.5421V3.216H30.3541C30.4021 3.216 30.4435 3.21733 30.4781 3.22C30.5128 3.22267 30.5435 3.22933 30.5701 3.24C30.5995 3.25067 30.6248 3.268 30.6461 3.292C30.6701 3.316 30.6928 3.348 30.7141 3.388L32.4461 6.6C32.4915 6.68533 32.5328 6.77333 32.5701 6.864C32.6101 6.95467 32.6488 7.048 32.6861 7.144C32.7235 7.04533 32.7621 6.95067 32.8021 6.86C32.8421 6.76667 32.8848 6.67733 32.9301 6.592L34.6381 3.388C34.6595 3.348 34.6821 3.316 34.7061 3.292C34.7301 3.268 34.7555 3.25067 34.7821 3.24C34.8115 3.22933 34.8435 3.22267 34.8781 3.22C34.9128 3.21733 34.9541 3.216 35.0021 3.216H35.8141Z" fill="black"/>
<path d="M86.5 14.5H48.5C47.9477 14.5 47.5 14.9477 47.5 15.5V20.5C47.5 21.0523 47.9477 21.5 48.5 21.5H86.5C87.0523 21.5 87.5 21.0523 87.5 20.5V15.5C87.5 14.9477 87.0523 14.5 86.5 14.5Z" fill="#F1BB72"/>
<path d="M86.5 14.5H48.5C47.9477 14.5 47.5 14.9477 47.5 15.5V20.5C47.5 21.0523 47.9477 21.5 48.5 21.5H86.5C87.0523 21.5 87.5 21.0523 87.5 20.5V15.5C87.5 14.9477 87.0523 14.5 86.5 14.5Z" stroke="#F1BB72"/>
<path d="M131.5 26.5H91.5C90.9477 26.5 90.5 26.9477 90.5 27.5V32.5C90.5 33.0523 90.9477 33.5 91.5 33.5H131.5C132.052 33.5 132.5 33.0523 132.5 32.5V27.5C132.5 26.9477 132.052 26.5 131.5 26.5Z" fill="#F1BB72"/>
<path d="M131.5 26.5H91.5C90.9477 26.5 90.5 26.9477 90.5 27.5V32.5C90.5 33.0523 90.9477 33.5 91.5 33.5H131.5C132.052 33.5 132.5 33.0523 132.5 32.5V27.5C132.5 26.9477 132.052 26.5 131.5 26.5Z" stroke="#F1BB72"/>
<path d="M99.8346 32.16C100.035 32.16 100.203 32.136 100.339 32.088C100.475 32.04 100.583 31.976 100.663 31.896C100.745 31.816 100.804 31.7227 100.839 31.616C100.876 31.5093 100.895 31.396 100.895 31.276C100.895 31.1507 100.875 31.0387 100.835 30.94C100.795 30.8387 100.732 30.7533 100.647 30.684C100.561 30.612 100.451 30.5573 100.315 30.52C100.181 30.4827 100.02 30.464 99.8306 30.464H98.7466V32.16H99.8346ZM98.7466 28.048V29.72H99.6026C99.9706 29.72 100.248 29.6533 100.435 29.52C100.624 29.3867 100.719 29.1747 100.719 28.884C100.719 28.5827 100.633 28.368 100.463 28.24C100.292 28.112 100.025 28.048 99.6626 28.048H98.7466ZM99.6626 27.216C100.041 27.216 100.365 27.252 100.635 27.324C100.904 27.396 101.124 27.4987 101.295 27.632C101.468 27.7653 101.595 27.9267 101.675 28.116C101.755 28.3053 101.795 28.5187 101.795 28.756C101.795 28.892 101.775 29.0227 101.735 29.148C101.695 29.2707 101.632 29.3867 101.547 29.496C101.464 29.6027 101.357 29.7 101.227 29.788C101.099 29.876 100.945 29.9507 100.767 30.012C101.561 30.1907 101.959 30.62 101.959 31.3C101.959 31.5453 101.912 31.772 101.819 31.98C101.725 32.188 101.589 32.368 101.411 32.52C101.232 32.6693 101.012 32.7867 100.751 32.872C100.489 32.9573 100.191 33 99.8546 33H97.6706V27.216H99.6626ZM104.564 29.968C104.767 29.968 104.943 29.9427 105.092 29.892C105.244 29.8413 105.368 29.772 105.464 29.684C105.563 29.5933 105.636 29.4867 105.684 29.364C105.732 29.2413 105.756 29.1067 105.756 28.96C105.756 28.6667 105.659 28.4413 105.464 28.284C105.272 28.1267 104.978 28.048 104.58 28.048H103.892V29.968H104.564ZM107.332 33H106.36C106.176 33 106.043 32.928 105.96 32.784L104.744 30.932C104.699 30.8627 104.648 30.8133 104.592 30.784C104.539 30.7547 104.459 30.74 104.352 30.74H103.892V33H102.816V27.216H104.58C104.972 27.216 105.308 27.2573 105.588 27.34C105.871 27.42 106.102 27.5333 106.28 27.68C106.462 27.8267 106.595 28.0027 106.68 28.208C106.766 28.4107 106.808 28.6347 106.808 28.88C106.808 29.0747 106.779 29.2587 106.72 29.432C106.664 29.6053 106.582 29.7627 106.472 29.904C106.366 30.0453 106.232 30.1693 106.072 30.276C105.915 30.3827 105.735 30.4667 105.532 30.528C105.602 30.568 105.666 30.616 105.724 30.672C105.783 30.7253 105.836 30.7893 105.884 30.864L107.332 33ZM108.917 33H107.837V27.216H108.917V33ZM114.86 30.1V32.44C114.566 32.656 114.253 32.8147 113.92 32.916C113.589 33.0147 113.234 33.064 112.856 33.064C112.384 33.064 111.956 32.9907 111.572 32.844C111.19 32.6973 110.864 32.4933 110.592 32.232C110.322 31.9707 110.114 31.6587 109.968 31.296C109.821 30.9333 109.748 30.5373 109.748 30.108C109.748 29.6733 109.818 29.2747 109.96 28.912C110.101 28.5493 110.301 28.2373 110.56 27.976C110.821 27.7147 111.137 27.512 111.508 27.368C111.878 27.224 112.294 27.152 112.756 27.152C112.99 27.152 113.209 27.1707 113.412 27.208C113.617 27.2453 113.806 27.2973 113.98 27.364C114.156 27.428 114.316 27.5067 114.46 27.6C114.604 27.6933 114.736 27.796 114.856 27.908L114.548 28.396C114.5 28.4733 114.437 28.5213 114.36 28.54C114.282 28.556 114.198 28.536 114.108 28.48C114.02 28.4293 113.932 28.3787 113.844 28.328C113.756 28.2773 113.657 28.2333 113.548 28.196C113.441 28.1587 113.32 28.128 113.184 28.104C113.05 28.08 112.896 28.068 112.72 28.068C112.434 28.068 112.176 28.116 111.944 28.212C111.714 28.308 111.518 28.4453 111.356 28.624C111.193 28.8027 111.068 29.0173 110.98 29.268C110.892 29.5187 110.848 29.7987 110.848 30.108C110.848 30.4387 110.894 30.7347 110.988 30.996C111.084 31.2547 111.217 31.4747 111.388 31.656C111.561 31.8347 111.769 31.972 112.012 32.068C112.254 32.1613 112.525 32.208 112.824 32.208C113.037 32.208 113.228 32.1853 113.396 32.14C113.564 32.0947 113.728 32.0333 113.888 31.956V30.908H113.16C113.09 30.908 113.036 30.8893 112.996 30.852C112.958 30.812 112.94 30.764 112.94 30.708V30.1H114.86ZM120.653 27.216V33H119.572V30.472H116.856V33H115.776V27.216H116.856V29.704H119.572V27.216H120.653ZM125.861 28.1H124.117V33H123.041V28.1H121.297V27.216H125.861V28.1Z" fill="black"/>
<path d="M54.52 15.216V21H53.968C53.8827 21 53.8107 20.9867 53.752 20.96C53.696 20.9307 53.6413 20.8827 53.588 20.816L50.568 16.96C50.584 17.136 50.592 17.2987 50.592 17.448V21H49.644V15.216H50.208C50.2533 15.216 50.292 15.2187 50.324 15.224C50.3587 15.2267 50.388 15.2347 50.412 15.248C50.4387 15.2587 50.464 15.276 50.488 15.3C50.512 15.3213 50.5387 15.3507 50.568 15.388L53.6 19.26C53.592 19.1667 53.5853 19.0747 53.58 18.984C53.5747 18.8933 53.572 18.8093 53.572 18.732V15.216H54.52ZM56.8881 16.072V17.676H58.9121V18.504H56.8881V20.14H59.4561V21H55.8081V15.216H59.4561V16.072H56.8881ZM62.7376 20.132C62.9456 20.132 63.131 20.0973 63.2936 20.028C63.459 19.9587 63.5976 19.8613 63.7096 19.736C63.8216 19.6107 63.907 19.4587 63.9656 19.28C64.027 19.1013 64.0576 18.9013 64.0576 18.68V15.216H65.1336V18.68C65.1336 19.024 65.0776 19.3427 64.9656 19.636C64.8563 19.9267 64.6976 20.1787 64.4896 20.392C64.2843 20.6027 64.0336 20.768 63.7376 20.888C63.4416 21.0053 63.1083 21.064 62.7376 21.064C62.3643 21.064 62.0296 21.0053 61.7336 20.888C61.4376 20.768 61.1856 20.6027 60.9776 20.392C60.7723 20.1787 60.6136 19.9267 60.5016 19.636C60.3923 19.3427 60.3376 19.024 60.3376 18.68V15.216H61.4136V18.676C61.4136 18.8973 61.443 19.0973 61.5016 19.276C61.563 19.4547 61.6496 19.608 61.7616 19.736C61.8763 19.8613 62.015 19.9587 62.1776 20.028C62.343 20.0973 62.5296 20.132 62.7376 20.132ZM70.3871 16.1H68.6431V21H67.5671V16.1H65.8231V15.216H70.3871V16.1ZM72.892 17.968C73.0947 17.968 73.2707 17.9427 73.42 17.892C73.572 17.8413 73.696 17.772 73.792 17.684C73.8907 17.5933 73.964 17.4867 74.012 17.364C74.06 17.2413 74.084 17.1067 74.084 16.96C74.084 16.6667 73.9867 16.4413 73.792 16.284C73.6 16.1267 73.3053 16.048 72.908 16.048H72.22V17.968H72.892ZM75.66 21H74.688C74.504 21 74.3707 20.928 74.288 20.784L73.072 18.932C73.0267 18.8627 72.976 18.8133 72.92 18.784C72.8667 18.7547 72.7867 18.74 72.68 18.74H72.22V21H71.144V15.216H72.908C73.3 15.216 73.636 15.2573 73.916 15.34C74.1987 15.42 74.4293 15.5333 74.608 15.68C74.7893 15.8267 74.9227 16.0027 75.008 16.208C75.0933 16.4107 75.136 16.6347 75.136 16.88C75.136 17.0747 75.1067 17.2587 75.048 17.432C74.992 17.6053 74.9093 17.7627 74.8 17.904C74.6933 18.0453 74.56 18.1693 74.4 18.276C74.2427 18.3827 74.0627 18.4667 73.86 18.528C73.9293 18.568 73.9933 18.616 74.052 18.672C74.1107 18.7253 74.164 18.7893 74.212 18.864L75.66 21ZM79.3406 18.816L78.6366 16.892C78.602 16.8067 78.566 16.7053 78.5286 16.588C78.4913 16.4707 78.454 16.344 78.4166 16.208C78.382 16.344 78.346 16.472 78.3086 16.592C78.2713 16.7093 78.2353 16.812 78.2006 16.9L77.5006 18.816H79.3406ZM81.2406 21H80.4086C80.3153 21 80.2393 20.9773 80.1806 20.932C80.122 20.884 80.078 20.8253 80.0486 20.756L79.6166 19.576H77.2206L76.7886 20.756C76.7673 20.8173 76.726 20.8733 76.6646 20.924C76.6033 20.9747 76.5273 21 76.4366 21H75.5966L77.8726 15.216H78.9686L81.2406 21ZM85.2273 20.112V21H81.8393V15.216H82.9153V20.112H85.2273Z" fill="black"/>
</svg>
