<svg width="28" height="24" viewBox="0 0 28 24" fill="none" xmlns="http://www.w3.org/2000/svg">
<path fill-rule="evenodd" clip-rule="evenodd" d="M18 4.5L7.14309 4.5C5.96031 4.5 5 5.57586 5 6.90096L5 13.5L15.8569 13.5C17.0397 13.5 18 12.4239 18 11.0988L18 4.5Z" fill="#CFCFCF"/>
<path d="M10.9999 13.9998L10.9999 3.99982L11.9999 3.99982L11.9999 13.9998H10.9999Z" fill="url(#paint0_linear)"/>
<path d="M7.49988 2.49982C4.73845 2.49982 2.49988 4.73839 2.49988 7.49982L2.49988 10.4998C2.49988 13.2612 4.73845 15.4998 7.49988 15.4998H15.4999C18.2613 15.4998 20.4999 13.2612 20.4999 10.4998V7.49982C20.4999 4.73839 18.2613 2.49982 15.4999 2.49982L7.49988 2.49982Z" stroke="black"/>
<g clip-path="url(#clip0)">
<path d="M16 2.35001H6.99998C4.43185 2.35001 2.34998 4.43188 2.34998 7.00001V11C2.34998 13.5681 4.43185 15.65 6.99998 15.65H16C18.5681 15.65 20.65 13.5681 20.65 11V7.00001C20.65 4.43188 18.5681 2.35001 16 2.35001Z" fill="url(#paint1_linear)" stroke="#EEEEEE" stroke-width="0.7"/>
<path d="M14 4H9C7.89543 4 7 4.89543 7 6V12C7 13.1046 7.89543 14 9 14H14C15.1046 14 16 13.1046 16 12V6C16 4.89543 15.1046 4 14 4Z" fill="url(#paint2_linear)"/>
<path d="M13.6013 7.294C13.5613 7.358 13.5193 7.404 13.4753 7.432C13.4313 7.456 13.3753 7.468 13.3073 7.468C13.2353 7.468 13.1573 7.448 13.0733 7.408C12.9933 7.368 12.8993 7.324 12.7913 7.276C12.6833 7.224 12.5593 7.178 12.4193 7.138C12.2833 7.098 12.1213 7.078 11.9333 7.078C11.6413 7.078 11.4113 7.14 11.2433 7.264C11.0793 7.388 10.9973 7.55 10.9973 7.75C10.9973 7.882 11.0393 7.994 11.1233 8.086C11.2113 8.174 11.3253 8.252 11.4653 8.32C11.6093 8.388 11.7713 8.45 11.9513 8.506C12.1313 8.558 12.3133 8.616 12.4973 8.68C12.6853 8.744 12.8693 8.818 13.0493 8.902C13.2293 8.982 13.3893 9.086 13.5293 9.214C13.6733 9.338 13.7873 9.488 13.8713 9.664C13.9593 9.84 14.0033 10.052 14.0033 10.3C14.0033 10.596 13.9493 10.87 13.8413 11.122C13.7373 11.37 13.5813 11.586 13.3733 11.77C13.1653 11.95 12.9073 12.092 12.5993 12.196C12.2953 12.296 11.9433 12.346 11.5433 12.346C11.3313 12.346 11.1233 12.326 10.9193 12.286C10.7193 12.25 10.5253 12.198 10.3373 12.13C10.1533 12.062 9.98128 11.982 9.82128 11.89C9.66528 11.798 9.52728 11.698 9.40728 11.59L9.74928 11.026C9.79328 10.958 9.84528 10.906 9.90528 10.87C9.96528 10.834 10.0413 10.816 10.1333 10.816C10.2253 10.816 10.3113 10.842 10.3913 10.894C10.4753 10.946 10.5713 11.002 10.6793 11.062C10.7873 11.122 10.9133 11.178 11.0573 11.23C11.2053 11.282 11.3913 11.308 11.6153 11.308C11.7913 11.308 11.9413 11.288 12.0653 11.248C12.1933 11.204 12.2973 11.148 12.3773 11.08C12.4613 11.012 12.5213 10.934 12.5573 10.846C12.5973 10.754 12.6173 10.66 12.6173 10.564C12.6173 10.42 12.5733 10.302 12.4853 10.21C12.4013 10.118 12.2873 10.038 12.1433 9.97C12.0033 9.902 11.8413 9.842 11.6573 9.79C11.4773 9.734 11.2913 9.674 11.0993 9.61C10.9113 9.546 10.7253 9.472 10.5413 9.388C10.3613 9.3 10.1993 9.19 10.0553 9.058C9.91528 8.926 9.80128 8.764 9.71328 8.572C9.62928 8.38 9.58728 8.148 9.58728 7.876C9.58728 7.624 9.63728 7.384 9.73728 7.156C9.83728 6.928 9.98328 6.73 10.1753 6.562C10.3713 6.39 10.6133 6.254 10.9013 6.154C11.1933 6.05 11.5293 5.998 11.9093 5.998C12.3333 5.998 12.7193 6.068 13.0673 6.208C13.4153 6.348 13.7053 6.532 13.9373 6.76L13.6013 7.294Z" fill="black"/>
</g>
<defs>
<linearGradient id="paint0_linear" x1="11.4999" y1="3.99982" x2="11.4999" y2="13.9998" gradientUnits="userSpaceOnUse">
<stop stop-color="#D57A00"/>
<stop offset="0.145833" stop-color="#FF9300"/>
<stop offset="0.463542" stop-color="#FF9300"/>
<stop offset="0.776042" stop-color="#FFA632"/>
</linearGradient>
<linearGradient id="paint1_linear" x1="3.31313" y1="15.175" x2="3.31313" y2="2.82501" gradientUnits="userSpaceOnUse">
<stop offset="0.192708" stop-color="#777777"/>
<stop offset="0.609375" stop-color="#858585"/>
<stop offset="0.822917" stop-color="#DADADA"/>
</linearGradient>
<linearGradient id="paint2_linear" x1="7" y1="14" x2="7" y2="4" gradientUnits="userSpaceOnUse">
<stop stop-color="#E8E8E8"/>
<stop offset="0.609375" stop-color="#ABABAB"/>
<stop offset="1" stop-color="#3E3E3E"/>
</linearGradient>
<clipPath id="clip0">
<rect width="19" height="16" fill="white" transform="translate(2 1.5)"/>
</clipPath>
</defs>
</svg>
