<svg width="32" height="24" viewBox="0 0 32 24" fill="none" xmlns="http://www.w3.org/2000/svg">
<path d="M31.5 3.5C31.5 1.84315 30.1569 0.5 28.5 0.5L3.5 0.499998C1.84315 0.499997 0.5 1.84314 0.5 3.5L0.499999 8.5C0.499999 10.1569 1.84314 11.5 3.5 11.5L28.5 11.5C30.1569 11.5 31.5 10.1569 31.5 8.5L31.5 3.5Z" fill="url(#paint0_linear)"/>
<g clip-path="url(#clip0)">
<path fill-rule="evenodd" clip-rule="evenodd" d="M23.5 3L27.5 6L23.5 9L23.5 7L19.5 7L19.5 5L23.5 5L23.5 3Z" fill="#313131"/>
</g>
<g opacity="0.75">
<rect width="8" height="1" transform="matrix(1.31134e-07 -1 -1 -1.31134e-07 16.5 10)" fill="url(#paint1_linear)"/>
</g>
<path d="M2.5 4C2.5 2.89543 3.39543 2 4.5 2H14.5L14.5 10H4.5C3.39543 10 2.5 9.10457 2.5 8L2.5 4Z" fill="#F1BB72"/>
<g clip-path="url(#clip1)">
<path fill-rule="evenodd" clip-rule="evenodd" d="M8.5 3L4.5 6L8.5 9L8.5 7H12.5L12.5 5H8.5L8.5 3Z" fill="black"/>
</g>
<path d="M0.5 15.5C0.5 13.8431 1.84315 12.5 3.5 12.5L28.5 12.5C30.1569 12.5 31.5 13.8431 31.5 15.5V20.5C31.5 22.1569 30.1569 23.5 28.5 23.5L3.5 23.5C1.84315 23.5 0.5 22.1569 0.5 20.5L0.5 15.5Z" fill="url(#paint2_linear)"/>
<g clip-path="url(#clip2)">
<path fill-rule="evenodd" clip-rule="evenodd" d="M8.5 15L4.5 18L8.5 21L8.5 19L12.5 19L12.5 17L8.5 17L8.5 15Z" fill="#313131"/>
</g>
<g opacity="0.75">
<rect x="15.5" y="22" width="8" height="1" transform="rotate(-90 15.5 22)" fill="url(#paint3_linear)"/>
</g>
<path d="M29.5 16C29.5 14.8954 28.6046 14 27.5 14L17.5 14L17.5 22L27.5 22C28.6046 22 29.5 21.1046 29.5 20L29.5 16Z" fill="#F1BB72"/>
<g clip-path="url(#clip3)">
<path fill-rule="evenodd" clip-rule="evenodd" d="M23.5 15L27.5 18L23.5 21L23.5 19L19.5 19L19.5 17L23.5 17L23.5 15Z" fill="black"/>
</g>
<defs>
<linearGradient id="paint0_linear" x1="16" y1="1.5" x2="16" y2="11" gradientUnits="userSpaceOnUse">
<stop offset="0.0520833" stop-color="#D9D9D9"/>
<stop offset="0.0521833" stop-color="#8E8E8E"/>
<stop offset="0.890625" stop-color="#858585"/>
<stop offset="0.911458" stop-color="#535353"/>
</linearGradient>
<linearGradient id="paint1_linear" x1="4" y1="0" x2="4" y2="1" gradientUnits="userSpaceOnUse">
<stop offset="0.0520833" stop-color="#D9D9D9"/>
<stop offset="0.0521833" stop-color="#8E8E8E"/>
<stop offset="0.963542" stop-color="#858585"/>
<stop offset="0.984375" stop-color="#535353"/>
</linearGradient>
<linearGradient id="paint2_linear" x1="16" y1="13.5" x2="16" y2="23" gradientUnits="userSpaceOnUse">
<stop offset="0.0520833" stop-color="#D9D9D9"/>
<stop offset="0.0521833" stop-color="#8E8E8E"/>
<stop offset="0.890625" stop-color="#858585"/>
<stop offset="0.911458" stop-color="#535353"/>
</linearGradient>
<linearGradient id="paint3_linear" x1="19.5" y1="22" x2="19.5" y2="23" gradientUnits="userSpaceOnUse">
<stop offset="0.0520833" stop-color="#D9D9D9"/>
<stop offset="0.0521833" stop-color="#8E8E8E"/>
<stop offset="0.963542" stop-color="#858585"/>
<stop offset="0.984375" stop-color="#535353"/>
</linearGradient>
<clipPath id="clip0">
<path d="M17.5 2L27.5 2C28.6046 2 29.5 2.89543 29.5 4L29.5 8C29.5 9.10457 28.6046 10 27.5 10L17.5 10L17.5 2Z" fill="white"/>
</clipPath>
<clipPath id="clip1">
<path d="M14.5 2H4.5C3.39543 2 2.5 2.89543 2.5 4L2.5 8C2.5 9.10457 3.39543 10 4.5 10H14.5L14.5 2Z" fill="white"/>
</clipPath>
<clipPath id="clip2">
<path d="M14.5 14L4.5 14C3.39543 14 2.5 14.8954 2.5 16L2.5 20C2.5 21.1046 3.39543 22 4.5 22L14.5 22L14.5 14Z" fill="white"/>
</clipPath>
<clipPath id="clip3">
<path d="M17.5 14L27.5 14C28.6046 14 29.5 14.8954 29.5 16L29.5 20C29.5 21.1046 28.6046 22 27.5 22L17.5 22L17.5 14Z" fill="white"/>
</clipPath>
</defs>
</svg>
