<svg width="40" height="84" viewBox="0 0 40 84" fill="none" xmlns="http://www.w3.org/2000/svg">
<rect x="0.5" y="42.5" width="39" height="41" rx="3" fill="url(#paint0_linear)"/>
<rect x="1.61292" y="43.413" width="36.7742" height="18.1739" rx="1" fill="url(#paint1_linear)"/>
<rect x="1.61292" y="43.413" width="36.7742" height="18.1739" rx="1" stroke="url(#paint2_linear)"/>
<path d="M21.9582 54.545L20.5502 50.697C20.4809 50.5264 20.4089 50.3237 20.3342 50.089C20.2596 49.8544 20.1849 49.601 20.1102 49.329C20.0409 49.601 19.9689 49.857 19.8942 50.097C19.8196 50.3317 19.7476 50.537 19.6782 50.713L18.2782 54.545H21.9582ZM25.7582 58.913H24.0942C23.9076 58.913 23.7556 58.8677 23.6382 58.777C23.5209 58.681 23.4329 58.5637 23.3742 58.425L22.5102 56.065H17.7182L16.8542 58.425C16.8116 58.5477 16.7289 58.6597 16.6062 58.761C16.4836 58.8624 16.3316 58.913 16.1502 58.913H14.4702L19.0222 47.345H21.2142L25.7582 58.913Z" fill="black"/>
<rect x="1.61298" y="64.4128" width="36.7742" height="18.1739" rx="1" fill="#F1BB72"/>
<rect x="1.61298" y="64.4128" width="36.7742" height="18.1739" rx="1" stroke="#F1BB72"/>
<path opacity="0.5" d="M38 62.5H2V63.5H38V62.5Z" fill="#535353"/>
<path d="M20.3504 77.32C20.7504 77.32 21.0864 77.272 21.3584 77.176C21.6304 77.08 21.8464 76.952 22.0064 76.792C22.1717 76.632 22.289 76.4453 22.3584 76.232C22.433 76.0187 22.4704 75.792 22.4704 75.552C22.4704 75.3013 22.4304 75.0773 22.3504 74.88C22.2704 74.6773 22.145 74.5067 21.9744 74.368C21.8037 74.224 21.5824 74.1147 21.3104 74.04C21.0437 73.9653 20.721 73.928 20.3424 73.928H18.1744V77.32H20.3504ZM18.1744 69.096V72.44H19.8864C20.6224 72.44 21.177 72.3067 21.5504 72.04C21.929 71.7733 22.1184 71.3493 22.1184 70.768C22.1184 70.1653 21.9477 69.736 21.6064 69.48C21.265 69.224 20.7317 69.096 20.0064 69.096H18.1744ZM20.0064 67.432C20.7637 67.432 21.4117 67.504 21.9504 67.648C22.489 67.792 22.929 67.9973 23.2704 68.264C23.617 68.5307 23.8704 68.8533 24.0304 69.232C24.1904 69.6107 24.2704 70.0373 24.2704 70.512C24.2704 70.784 24.2304 71.0453 24.1504 71.296C24.0704 71.5413 23.945 71.7733 23.7744 71.992C23.609 72.2053 23.3957 72.4 23.1344 72.576C22.8784 72.752 22.5717 72.9013 22.2144 73.024C23.8037 73.3813 24.5984 74.24 24.5984 75.6C24.5984 76.0907 24.505 76.544 24.3184 76.96C24.1317 77.376 23.8597 77.736 23.5024 78.04C23.145 78.3387 22.705 78.5733 22.1824 78.744C21.6597 78.9147 21.0624 79 20.3904 79H16.0224V67.432H20.0064Z" fill="black"/>
<rect x="0.5" y="42.5" width="39" height="41" rx="3" stroke="#535353"/>
<rect x="0.5" y="0.5" width="39" height="41" rx="3" fill="url(#paint3_linear)"/>
<rect x="1.61292" y="1.41302" width="36.7742" height="18.1739" rx="1" fill="#F1BB72"/>
<rect x="1.61292" y="1.41302" width="36.7742" height="18.1739" rx="1" stroke="#F1BB72"/>
<path d="M21.9582 12.795L20.5502 8.94702C20.4809 8.77636 20.4089 8.57369 20.3342 8.33902C20.2596 8.10436 20.1849 7.85102 20.1102 7.57902C20.0409 7.85102 19.9689 8.10702 19.8942 8.34702C19.8196 8.58169 19.7476 8.78702 19.6782 8.96302L18.2782 12.795H21.9582ZM25.7582 17.163H24.0942C23.9076 17.163 23.7556 17.1177 23.6382 17.027C23.5209 16.931 23.4329 16.8137 23.3742 16.675L22.5102 14.315H17.7182L16.8542 16.675C16.8116 16.7977 16.7289 16.9097 16.6062 17.011C16.4836 17.1124 16.3316 17.163 16.1502 17.163H14.4702L19.0222 5.59502H21.2142L25.7582 17.163Z" fill="black"/>
<rect x="1.61298" y="22.4128" width="36.7742" height="18.1739" rx="1" fill="url(#paint4_linear)"/>
<rect x="1.61298" y="22.4128" width="36.7742" height="18.1739" rx="1" stroke="url(#paint5_linear)"/>
<path opacity="0.5" d="M38 20.5H2V21.5H38V20.5Z" fill="#535353"/>
<path d="M20.3504 36.07C20.7504 36.07 21.0864 36.022 21.3584 35.926C21.6304 35.83 21.8464 35.702 22.0064 35.542C22.1717 35.382 22.289 35.1953 22.3584 34.982C22.433 34.7687 22.4704 34.542 22.4704 34.302C22.4704 34.0513 22.4304 33.8273 22.3504 33.63C22.2704 33.4273 22.145 33.2567 21.9744 33.118C21.8037 32.974 21.5824 32.8647 21.3104 32.79C21.0437 32.7153 20.721 32.678 20.3424 32.678H18.1744V36.07H20.3504ZM18.1744 27.846V31.19H19.8864C20.6224 31.19 21.177 31.0567 21.5504 30.79C21.929 30.5233 22.1184 30.0993 22.1184 29.518C22.1184 28.9153 21.9477 28.486 21.6064 28.23C21.265 27.974 20.7317 27.846 20.0064 27.846H18.1744ZM20.0064 26.182C20.7637 26.182 21.4117 26.254 21.9504 26.398C22.489 26.542 22.929 26.7473 23.2704 27.014C23.617 27.2807 23.8704 27.6033 24.0304 27.982C24.1904 28.3607 24.2704 28.7873 24.2704 29.262C24.2704 29.534 24.2304 29.7953 24.1504 30.046C24.0704 30.2913 23.945 30.5233 23.7744 30.742C23.609 30.9553 23.3957 31.15 23.1344 31.326C22.8784 31.502 22.5717 31.6513 22.2144 31.774C23.8037 32.1313 24.5984 32.99 24.5984 34.35C24.5984 34.8407 24.505 35.294 24.3184 35.71C24.1317 36.126 23.8597 36.486 23.5024 36.79C23.145 37.0887 22.705 37.3233 22.1824 37.494C21.6597 37.6647 21.0624 37.75 20.3904 37.75H16.0224V26.182H20.0064Z" fill="black"/>
<rect x="0.5" y="0.5" width="39" height="41" rx="3" stroke="#535353"/>
<defs>
<linearGradient id="paint0_linear" x1="39.5" y1="35.1786" x2="39.5" y2="93.75" gradientUnits="userSpaceOnUse">
<stop stop-color="#959595"/>
<stop offset="1" stop-color="#212121"/>
</linearGradient>
<linearGradient id="paint1_linear" x1="20" y1="43.413" x2="20" y2="61.5869" gradientUnits="userSpaceOnUse">
<stop stop-color="#D57A00"/>
<stop offset="0.145833" stop-color="#FF9300"/>
<stop offset="0.463542" stop-color="#FF9300"/>
<stop offset="0.776042" stop-color="#FFA632"/>
</linearGradient>
<linearGradient id="paint2_linear" x1="20" y1="43.413" x2="20" y2="61.5869" gradientUnits="userSpaceOnUse">
<stop offset="0.00520833" stop-color="#BA6B00"/>
<stop offset="0.317708" stop-color="#FF9300"/>
<stop offset="0.46875" stop-color="#EA8700"/>
<stop offset="0.729167" stop-color="#FF9300"/>
<stop offset="1" stop-color="#FFDCAD"/>
</linearGradient>
<linearGradient id="paint3_linear" x1="39.5" y1="-6.82143" x2="39.5" y2="51.75" gradientUnits="userSpaceOnUse">
<stop stop-color="#959595"/>
<stop offset="1" stop-color="#212121"/>
</linearGradient>
<linearGradient id="paint4_linear" x1="20.0001" y1="22.4128" x2="20.0001" y2="40.5868" gradientUnits="userSpaceOnUse">
<stop stop-color="#D57A00"/>
<stop offset="0.145833" stop-color="#FF9300"/>
<stop offset="0.463542" stop-color="#FF9300"/>
<stop offset="0.776042" stop-color="#FFA632"/>
</linearGradient>
<linearGradient id="paint5_linear" x1="20.0001" y1="22.4128" x2="20.0001" y2="40.5868" gradientUnits="userSpaceOnUse">
<stop offset="0.00520833" stop-color="#BA6B00"/>
<stop offset="0.317708" stop-color="#FF9300"/>
<stop offset="0.46875" stop-color="#EA8700"/>
<stop offset="0.729167" stop-color="#FF9300"/>
<stop offset="1" stop-color="#FFDCAD"/>
</linearGradient>
</defs>
</svg>
