<svg width="48" height="56" viewBox="0 0 48 56" fill="none" xmlns="http://www.w3.org/2000/svg">
<rect x="2.5" y="2.5" width="13" height="18" rx="5" fill="#CFCFCF"/>
<path fill-rule="evenodd" clip-rule="evenodd" d="M13 5L13 15.8569C13 17.0397 12.0437 18 10.8658 18L5 18L5 7.14309C5 5.96031 5.95651 5 7.13438 5L13 5Z" fill="#CFCFCF"/>
<path d="M4 12L4 11L14 11L14 12L4 12Z" fill="url(#paint0_linear)"/>
<rect x="16.5" y="2" width="19" height="14" rx="5" transform="rotate(90 16.5 2)" fill="url(#paint1_linear)" stroke="#EEEEEE" stroke-width="0.7"/>
<rect x="14.15" y="7.35" width="8.3" height="9.3" rx="1.65" transform="rotate(90 14.15 7.35)" fill="url(#paint2_linear)" stroke="url(#paint3_linear)" stroke-width="0.7"/>
<rect x="40.5" y="2" width="19" height="14" rx="5" transform="rotate(90 40.5 2)" fill="url(#paint4_linear)" stroke="#EEEEEE" stroke-width="0.7"/>
<rect x="38.5" y="7" width="9" height="10" rx="2" transform="rotate(90 38.5 7)" fill="url(#paint5_linear)"/>
<rect x="2.5" y="30.5" width="13" height="18" rx="5" fill="#CFCFCF"/>
<path fill-rule="evenodd" clip-rule="evenodd" d="M13 33L13 43.8569C13 45.0397 12.0437 46 10.8658 46L5 46L5 35.1431C5 33.9603 5.95651 33 7.13438 33L13 33Z" fill="#CFCFCF"/>
<path d="M4 40L4 39L14 39L14 40L4 40Z" fill="url(#paint6_linear)"/>
<rect x="16.85" y="29.65" width="19.7" height="14.7" rx="5.35" transform="rotate(90 16.85 29.65)" fill="url(#paint7_linear)" stroke="url(#paint8_linear)" stroke-width="0.7"/>
<rect x="14.5" y="35" width="9" height="10" rx="2" transform="rotate(90 14.5 35)" fill="url(#paint9_linear)"/>
<rect x="26.5" y="30.5" width="13" height="18" rx="5" fill="#CFCFCF"/>
<path fill-rule="evenodd" clip-rule="evenodd" d="M37 33L37 43.8569C37 45.0397 36.0437 46 34.8658 46L29 46L29 35.1431C29 33.9603 29.9565 33 31.1344 33L37 33Z" fill="#CFCFCF"/>
<path d="M31.5 48.5C28.7386 48.5 26.5 46.2614 26.5 43.5L26.5 35.5C26.5 32.7386 28.7386 30.5 31.5 30.5L34.5 30.5C37.2614 30.5 39.5 32.7386 39.5 35.5L39.5 43.5C39.5 46.2614 37.2614 48.5 34.5 48.5L31.5 48.5Z" fill="#4487F6"/>
<path d="M28 40L28 39L38 39L38 40L28 40Z" fill="url(#paint10_linear)"/>
<rect x="40.5" y="30" width="19" height="14" rx="5" transform="rotate(90 40.5 30)" fill="url(#paint11_linear)" stroke="#EEEEEE" stroke-width="0.7"/>
<rect x="38.5" y="35" width="9" height="10" rx="2" transform="rotate(90 38.5 35)" fill="url(#paint12_linear)"/>
<defs>
<linearGradient id="paint0_linear" x1="4" y1="11.5" x2="14" y2="11.5" gradientUnits="userSpaceOnUse">
<stop stop-color="#D57A00"/>
<stop offset="0.145833" stop-color="#FF9300"/>
<stop offset="0.463542" stop-color="#FF9300"/>
<stop offset="0.776042" stop-color="#FFA632"/>
</linearGradient>
<linearGradient id="paint1_linear" x1="35.5" y1="-0.500001" x2="35.5" y2="19.5" gradientUnits="userSpaceOnUse">
<stop stop-color="#E1E1E1"/>
<stop offset="1" stop-color="#626262"/>
</linearGradient>
<linearGradient id="paint2_linear" x1="23.5" y1="7" x2="23.5" y2="17" gradientUnits="userSpaceOnUse">
<stop offset="0.182158" stop-color="#636262"/>
<stop offset="0.980215" stop-color="#DFDFDF"/>
</linearGradient>
<linearGradient id="paint3_linear" x1="23.5" y1="7" x2="23.5" y2="17" gradientUnits="userSpaceOnUse">
<stop offset="0.182158" stop-color="#636262"/>
<stop offset="0.980215" stop-color="#DFDFDF"/>
</linearGradient>
<linearGradient id="paint4_linear" x1="59.5" y1="2" x2="59.5" y2="15.3" gradientUnits="userSpaceOnUse">
<stop offset="0.0885417" stop-color="#71ACFD"/>
<stop offset="0.489583" stop-color="#4585EE"/>
<stop offset="0.614583" stop-color="#4585EE"/>
<stop offset="0.864583" stop-color="#535B66"/>
</linearGradient>
<linearGradient id="paint5_linear" x1="47.5" y1="7" x2="47.5" y2="16.5" gradientUnits="userSpaceOnUse">
<stop offset="0.15625" stop-color="#4F5661"/>
<stop offset="0.46875" stop-color="#4585EE"/>
<stop offset="0.916667" stop-color="#71ACFD"/>
</linearGradient>
<linearGradient id="paint6_linear" x1="4" y1="39.5" x2="14" y2="39.5" gradientUnits="userSpaceOnUse">
<stop stop-color="#D57A00"/>
<stop offset="0.145833" stop-color="#FF9300"/>
<stop offset="0.463542" stop-color="#FF9300"/>
<stop offset="0.776042" stop-color="#FFA632"/>
</linearGradient>
<linearGradient id="paint7_linear" x1="35.5" y1="27.5" x2="35.5" y2="47.5" gradientUnits="userSpaceOnUse">
<stop stop-color="#959595"/>
<stop offset="1" stop-color="#212121"/>
</linearGradient>
<linearGradient id="paint8_linear" x1="35.5" y1="30" x2="35.5" y2="44" gradientUnits="userSpaceOnUse">
<stop offset="0.182158" stop-color="#636262"/>
<stop offset="0.980215" stop-color="#DFDFDF"/>
</linearGradient>
<linearGradient id="paint9_linear" x1="23.5" y1="35" x2="23.5" y2="45" gradientUnits="userSpaceOnUse">
<stop offset="0.182158" stop-color="#2C2C2C"/>
<stop offset="0.980215" stop-color="#9B9B9B"/>
</linearGradient>
<linearGradient id="paint10_linear" x1="28" y1="39.5" x2="38" y2="39.5" gradientUnits="userSpaceOnUse">
<stop stop-color="#D57A00"/>
<stop offset="0.145833" stop-color="#FF9300"/>
<stop offset="0.463542" stop-color="#FF9300"/>
<stop offset="0.776042" stop-color="#FFA632"/>
</linearGradient>
<linearGradient id="paint11_linear" x1="59.5" y1="30" x2="59.5" y2="43.3" gradientUnits="userSpaceOnUse">
<stop offset="0.0885417" stop-color="#71ACFD"/>
<stop offset="0.489583" stop-color="#4585EE"/>
<stop offset="0.614583" stop-color="#4585EE"/>
<stop offset="0.864583" stop-color="#535B66"/>
</linearGradient>
<linearGradient id="paint12_linear" x1="47.5" y1="35" x2="47.5" y2="44.5" gradientUnits="userSpaceOnUse">
<stop offset="0.15625" stop-color="#4F5661"/>
<stop offset="0.46875" stop-color="#4585EE"/>
<stop offset="0.916667" stop-color="#71ACFD"/>
</linearGradient>
</defs>
</svg>
