<svg width="28" height="24" viewBox="0 0 28 24" fill="none" xmlns="http://www.w3.org/2000/svg">
<rect x="2.5" y="2.5" width="13" height="18" rx="5" fill="#CFCFCF"/>
<path fill-rule="evenodd" clip-rule="evenodd" d="M13 5V15.8569C13 17.0397 12.0437 18 10.8658 18H5V7.14309C5 5.96031 5.95651 5 7.13438 5H13Z" fill="#CFCFCF"/>
<path d="M4 12L4 11L14 11L14 12L4 12Z" fill="url(#paint0_linear)"/>
<path d="M10.4285 6.9375H9.33848V10H8.66598V6.9375H7.57598V6.385H10.4285V6.9375Z" fill="#393B45"/>
<path d="M9.95543 14.0425C9.93543 14.0775 9.91376 14.1033 9.89043 14.12C9.86876 14.135 9.84126 14.1425 9.80793 14.1425C9.77293 14.1425 9.7346 14.13 9.69293 14.105C9.65293 14.0783 9.6046 14.0492 9.54793 14.0175C9.49126 13.9858 9.4246 13.9575 9.34793 13.9325C9.27293 13.9058 9.18376 13.8925 9.08043 13.8925C8.9871 13.8925 8.90543 13.9042 8.83543 13.9275C8.76543 13.9492 8.70626 13.98 8.65793 14.02C8.61126 14.06 8.57626 14.1083 8.55293 14.165C8.5296 14.22 8.51793 14.2808 8.51793 14.3475C8.51793 14.4325 8.54126 14.5033 8.58793 14.56C8.63626 14.6167 8.6996 14.665 8.77793 14.705C8.85626 14.745 8.94543 14.7808 9.04543 14.8125C9.14543 14.8442 9.24793 14.8783 9.35293 14.915C9.45793 14.95 9.56043 14.9917 9.66043 15.04C9.76043 15.0867 9.8496 15.1467 9.92793 15.22C10.0063 15.2917 10.0688 15.38 10.1154 15.485C10.1638 15.59 10.1879 15.7175 10.1879 15.8675C10.1879 16.0308 10.1596 16.1842 10.1029 16.3275C10.0479 16.4692 9.96626 16.5933 9.85793 16.7C9.75126 16.805 9.62043 16.8883 9.46543 16.95C9.31043 17.01 9.13293 17.04 8.93293 17.04C8.81793 17.04 8.7046 17.0283 8.59293 17.005C8.48126 16.9833 8.37376 16.9517 8.27043 16.91C8.16876 16.8683 8.07293 16.8183 7.98293 16.76C7.89293 16.7017 7.81293 16.6367 7.74293 16.565L7.94043 16.2425C7.9571 16.2192 7.97876 16.2 8.00543 16.185C8.0321 16.1683 8.06043 16.16 8.09043 16.16C8.1321 16.16 8.1771 16.1775 8.22543 16.2125C8.27376 16.2458 8.33126 16.2833 8.39793 16.325C8.4646 16.3667 8.5421 16.405 8.63043 16.44C8.72043 16.4733 8.82793 16.49 8.95293 16.49C9.1446 16.49 9.29293 16.445 9.39793 16.355C9.50293 16.2633 9.55543 16.1325 9.55543 15.9625C9.55543 15.8675 9.53126 15.79 9.48293 15.73C9.43626 15.67 9.37376 15.62 9.29543 15.58C9.2171 15.5383 9.12793 15.5033 9.02793 15.475C8.92793 15.4467 8.82626 15.4158 8.72293 15.3825C8.6196 15.3492 8.51793 15.3092 8.41793 15.2625C8.31793 15.2158 8.22876 15.155 8.15043 15.08C8.0721 15.005 8.00876 14.9117 7.96043 14.8C7.91376 14.6867 7.89043 14.5475 7.89043 14.3825C7.89043 14.2508 7.91626 14.1225 7.96793 13.9975C8.02126 13.8725 8.09793 13.7617 8.19793 13.665C8.29793 13.5683 8.42126 13.4908 8.56793 13.4325C8.7146 13.3742 8.88293 13.345 9.07293 13.345C9.28626 13.345 9.48293 13.3783 9.66293 13.445C9.84293 13.5117 9.99626 13.605 10.1229 13.725L9.95543 14.0425Z" fill="#393B45"/>
<rect x="2.5" y="2.5" width="13" height="18" rx="5" fill="#CFCFCF"/>
<path d="M7.5 20.5C4.73858 20.5 2.5 18.2614 2.5 15.5L2.5 7.5C2.5 4.73858 4.73858 2.5 7.5 2.5L10.5 2.5C13.2614 2.5 15.5 4.73857 15.5 7.5L15.5 15.5C15.5 18.2614 13.2614 20.5 10.5 20.5L7.5 20.5Z" fill="#4487F6"/>
<path d="M4 12L4 11L14 11L14 12L4 12Z" fill="#393B45"/>
<path d="M10.4285 6.9375H9.33848V10H8.66598V6.9375H7.57598V6.385H10.4285V6.9375Z" fill="#393B45"/>
<path d="M10.5002 2.49991C13.2617 2.49991 15.5002 4.73848 15.5002 7.49991L15.5002 15.4999C15.5002 18.2613 13.2617 20.4999 10.5002 20.4999L7.50024 20.4999C4.73882 20.4999 2.50024 18.2613 2.50024 15.4999L2.50024 7.49991C2.50024 4.73848 4.73882 2.49991 7.50024 2.49991L10.5002 2.49991Z" fill="#CFCFCF"/>
<path fill-rule="evenodd" clip-rule="evenodd" d="M13.5 18V7.14309C13.5 5.96031 12.4241 5 11.099 5H4.5V15.8569C4.5 17.0397 5.57608 18 6.90118 18H13.5Z" fill="#CFCFCF"/>
<path d="M10.5 20.5C13.2614 20.5 15.5 18.2614 15.5 15.5L15.5 7.5C15.5 4.73858 13.2614 2.5 10.5 2.5L7.5 2.5C4.73858 2.5 2.5 4.73858 2.5 7.5L2.5 15.5C2.5 18.2614 4.73857 20.5 7.5 20.5L10.5 20.5Z" fill="#4487F6"/>
<path d="M4.00024 10.9999L14.0002 10.9999L14.0002 11.9999L4.00024 11.9999L4.00024 10.9999Z" fill="#393B45"/>
<path d="M10.4575 16.9554C10.4225 16.9354 10.3967 16.9138 10.38 16.8904C10.365 16.8688 10.3575 16.8413 10.3575 16.8079C10.3575 16.7729 10.37 16.7346 10.395 16.6929C10.4217 16.6529 10.4508 16.6046 10.4825 16.5479C10.5142 16.4913 10.5425 16.4246 10.5675 16.3479C10.5942 16.2729 10.6075 16.1838 10.6075 16.0804C10.6075 15.9871 10.5958 15.9054 10.5725 15.8354C10.5508 15.7654 10.52 15.7063 10.48 15.6579C10.44 15.6113 10.3917 15.5763 10.335 15.5529C10.28 15.5296 10.2192 15.5179 10.1525 15.5179C10.0675 15.5179 9.99667 15.5413 9.94 15.5879C9.88333 15.6363 9.835 15.6996 9.795 15.7779C9.755 15.8563 9.71917 15.9454 9.6875 16.0454C9.65583 16.1454 9.62167 16.2479 9.585 16.3529C9.55 16.4579 9.50833 16.5604 9.46 16.6604C9.41333 16.7604 9.35333 16.8496 9.28 16.9279C9.20833 17.0063 9.12 17.0688 9.015 17.1154C8.91 17.1638 8.7825 17.1879 8.6325 17.1879C8.46917 17.1879 8.31583 17.1596 8.1725 17.1029C8.03083 17.0479 7.90667 16.9663 7.8 16.8579C7.695 16.7513 7.61167 16.6204 7.55 16.4654C7.49 16.3104 7.46 16.1329 7.46 15.9329C7.46 15.8179 7.47167 15.7046 7.495 15.5929C7.51667 15.4813 7.54833 15.3738 7.59 15.2704C7.63167 15.1688 7.68167 15.0729 7.74 14.9829C7.79833 14.8929 7.86333 14.8129 7.935 14.7429L8.2575 14.9404C8.28083 14.9571 8.3 14.9788 8.315 15.0054C8.33167 15.0321 8.34 15.0604 8.34 15.0904C8.34 15.1321 8.3225 15.1771 8.2875 15.2254C8.25417 15.2738 8.21667 15.3313 8.175 15.3979C8.13333 15.4646 8.095 15.5421 8.06 15.6304C8.02667 15.7204 8.01 15.8279 8.01 15.9529C8.01 16.1446 8.055 16.2929 8.145 16.3979C8.23667 16.5029 8.3675 16.5554 8.5375 16.5554C8.6325 16.5554 8.71 16.5313 8.77 16.4829C8.83 16.4363 8.88 16.3738 8.92 16.2954C8.96167 16.2171 8.99667 16.1279 9.025 16.0279C9.05333 15.9279 9.08417 15.8263 9.1175 15.7229C9.15083 15.6196 9.19083 15.5179 9.2375 15.4179C9.28417 15.3179 9.345 15.2288 9.42 15.1504C9.495 15.0721 9.58833 15.0088 9.7 14.9604C9.81333 14.9138 9.9525 14.8904 10.1175 14.8904C10.2492 14.8904 10.3775 14.9163 10.5025 14.9679C10.6275 15.0213 10.7383 15.0979 10.835 15.1979C10.9317 15.2979 11.0092 15.4213 11.0675 15.5679C11.1258 15.7146 11.155 15.8829 11.155 16.0729C11.155 16.2863 11.1217 16.4829 11.055 16.6629C10.9883 16.8429 10.895 16.9963 10.775 17.1229L10.4575 16.9554Z" fill="#393B45"/>
<rect x="16.5" y="2" width="19" height="14" rx="5" transform="rotate(90 16.5 2)" fill="url(#paint1_linear)" stroke="#EEEEEE" stroke-width="0.7"/>
<rect x="14.5" y="7" width="9" height="10" rx="2" transform="rotate(90 14.5 7)" fill="url(#paint2_linear)"/>
<g filter="url(#filter0_d)">
<path d="M11.3513 9.794C11.3113 9.858 11.2693 9.904 11.2253 9.932C11.1813 9.956 11.1253 9.968 11.0573 9.968C10.9853 9.968 10.9073 9.948 10.8233 9.908C10.7433 9.868 10.6493 9.824 10.5413 9.776C10.4333 9.724 10.3093 9.678 10.1693 9.638C10.0333 9.598 9.87128 9.578 9.68328 9.578C9.39128 9.578 9.16128 9.64 8.99328 9.764C8.82928 9.888 8.74728 10.05 8.74728 10.25C8.74728 10.382 8.78928 10.494 8.87328 10.586C8.96128 10.674 9.07528 10.752 9.21528 10.82C9.35928 10.888 9.52128 10.95 9.70128 11.006C9.88128 11.058 10.0633 11.116 10.2473 11.18C10.4353 11.244 10.6193 11.318 10.7993 11.402C10.9793 11.482 11.1393 11.586 11.2793 11.714C11.4233 11.838 11.5373 11.988 11.6213 12.164C11.7093 12.34 11.7533 12.552 11.7533 12.8C11.7533 13.096 11.6993 13.37 11.5913 13.622C11.4873 13.87 11.3313 14.086 11.1233 14.27C10.9153 14.45 10.6573 14.592 10.3493 14.696C10.0453 14.796 9.69328 14.846 9.29328 14.846C9.08128 14.846 8.87328 14.826 8.66928 14.786C8.46928 14.75 8.27528 14.698 8.08728 14.63C7.90328 14.562 7.73128 14.482 7.57128 14.39C7.41528 14.298 7.27728 14.198 7.15728 14.09L7.49928 13.526C7.54328 13.458 7.59528 13.406 7.65528 13.37C7.71528 13.334 7.79128 13.316 7.88328 13.316C7.97528 13.316 8.06128 13.342 8.14128 13.394C8.22528 13.446 8.32128 13.502 8.42928 13.562C8.53728 13.622 8.66328 13.678 8.80728 13.73C8.95528 13.782 9.14128 13.808 9.36528 13.808C9.54128 13.808 9.69128 13.788 9.81528 13.748C9.94328 13.704 10.0473 13.648 10.1273 13.58C10.2113 13.512 10.2713 13.434 10.3073 13.346C10.3473 13.254 10.3673 13.16 10.3673 13.064C10.3673 12.92 10.3233 12.802 10.2353 12.71C10.1513 12.618 10.0373 12.538 9.89328 12.47C9.75328 12.402 9.59128 12.342 9.40728 12.29C9.22728 12.234 9.04128 12.174 8.84928 12.11C8.66128 12.046 8.47528 11.972 8.29128 11.888C8.11128 11.8 7.94928 11.69 7.80528 11.558C7.66528 11.426 7.55128 11.264 7.46328 11.072C7.37928 10.88 7.33728 10.648 7.33728 10.376C7.33728 10.124 7.38728 9.884 7.48728 9.656C7.58728 9.428 7.73328 9.23 7.92528 9.062C8.12128 8.89 8.36328 8.754 8.65128 8.654C8.94328 8.55 9.27928 8.498 9.65928 8.498C10.0833 8.498 10.4693 8.568 10.8173 8.708C11.1653 8.848 11.4553 9.032 11.6873 9.26L11.3513 9.794Z" fill="black"/>
</g>
<defs>
<filter id="filter0_d" x="3.15723" y="8.49799" width="12.5961" height="14.348" filterUnits="userSpaceOnUse" color-interpolation-filters="sRGB">
<feFlood flood-opacity="0" result="BackgroundImageFix"/>
<feColorMatrix in="SourceAlpha" type="matrix" values="0 0 0 0 0 0 0 0 0 0 0 0 0 0 0 0 0 0 127 0" result="hardAlpha"/>
<feOffset dy="4"/>
<feGaussianBlur stdDeviation="2"/>
<feComposite in2="hardAlpha" operator="out"/>
<feColorMatrix type="matrix" values="0 0 0 0 0 0 0 0 0 0 0 0 0 0 0 0 0 0 0.25 0"/>
<feBlend mode="normal" in2="BackgroundImageFix" result="effect1_dropShadow"/>
<feBlend mode="normal" in="SourceGraphic" in2="effect1_dropShadow" result="shape"/>
</filter>
<linearGradient id="paint0_linear" x1="4" y1="11.5" x2="14" y2="11.5" gradientUnits="userSpaceOnUse">
<stop stop-color="#D57A00"/>
<stop offset="0.145833" stop-color="#FF9300"/>
<stop offset="0.463542" stop-color="#FF9300"/>
<stop offset="0.776042" stop-color="#FFA632"/>
</linearGradient>
<linearGradient id="paint1_linear" x1="17.5" y1="15.5" x2="17.5" y2="2.5" gradientUnits="userSpaceOnUse">
<stop offset="0.192708" stop-color="#777777"/>
<stop offset="0.609375" stop-color="#858585"/>
<stop offset="0.822917" stop-color="#DADADA"/>
</linearGradient>
<linearGradient id="paint2_linear" x1="14.5" y1="17" x2="14.5" y2="7" gradientUnits="userSpaceOnUse">
<stop stop-color="#E8E8E8"/>
<stop offset="0.609375" stop-color="#ABABAB"/>
<stop offset="1" stop-color="#3E3E3E"/>
</linearGradient>
</defs>
</svg>
