<svg width="50" height="15" viewBox="0 0 50 15" fill="none" xmlns="http://www.w3.org/2000/svg">
<rect x="2.5" y="2.5" width="45" height="10" rx="1" fill="#F1BB72"/>
<rect x="2.5" y="2.5" width="45" height="10" rx="1" stroke="#F1BB72"/>
<path d="M24.921 5.172V11H23.729V7.648C23.729 7.57067 23.7303 7.48667 23.733 7.396C23.7383 7.30533 23.7463 7.21333 23.757 7.12L22.209 10.116C22.161 10.2093 22.0957 10.28 22.013 10.328C21.933 10.376 21.841 10.4 21.737 10.4H21.553C21.449 10.4 21.3557 10.376 21.273 10.328C21.193 10.28 21.129 10.2093 21.081 10.116L19.533 7.112C19.541 7.208 19.5477 7.30267 19.553 7.396C19.5583 7.48667 19.561 7.57067 19.561 7.648V11H18.369V5.172H19.401C19.4597 5.172 19.5103 5.17333 19.553 5.176C19.5983 5.17867 19.6383 5.18667 19.673 5.2C19.7077 5.21333 19.7383 5.23467 19.765 5.264C19.7943 5.29067 19.8223 5.32933 19.849 5.38L21.349 8.336C21.4023 8.43733 21.453 8.54267 21.501 8.652C21.5517 8.76133 21.5997 8.87333 21.645 8.988C21.6903 8.87067 21.737 8.756 21.785 8.644C21.8357 8.532 21.889 8.42533 21.945 8.324L23.441 5.38C23.4677 5.32933 23.4943 5.29067 23.521 5.264C23.5503 5.23467 23.5823 5.21333 23.617 5.2C23.6517 5.18667 23.6903 5.17867 23.733 5.176C23.7783 5.17333 23.8303 5.172 23.889 5.172H24.921ZM27.2887 6.212V7.572H29.1207V8.572H27.2887V9.96H29.6807V11H25.9287V5.172H29.6807V6.212H27.2887ZM35.4826 5.172V11H34.7786C34.6746 11 34.5866 10.984 34.5146 10.952C34.4453 10.9173 34.376 10.8587 34.3066 10.776L31.5586 7.3C31.5693 7.404 31.576 7.50533 31.5786 7.604C31.584 7.7 31.5866 7.79067 31.5866 7.876V11H30.3946V5.172H31.1066C31.1653 5.172 31.2146 5.17467 31.2546 5.18C31.2946 5.18533 31.3306 5.196 31.3626 5.212C31.3946 5.22533 31.4253 5.24533 31.4546 5.272C31.484 5.29867 31.5173 5.33467 31.5546 5.38L34.3266 8.88C34.3133 8.768 34.304 8.66 34.2986 8.556C34.2933 8.44933 34.2906 8.34933 34.2906 8.256V5.172H35.4826ZM38.9254 9.932C39.1067 9.932 39.268 9.90267 39.4094 9.844C39.5534 9.78267 39.6747 9.696 39.7734 9.584C39.872 9.472 39.9467 9.336 39.9974 9.176C40.0507 9.01333 40.0774 8.82933 40.0774 8.624V5.172H41.4294V8.624C41.4294 8.98133 41.3707 9.30933 41.2534 9.608C41.1387 9.90667 40.9734 10.164 40.7574 10.38C40.5414 10.596 40.2787 10.764 39.9694 10.884C39.66 11.004 39.312 11.064 38.9254 11.064C38.536 11.064 38.1867 11.004 37.8774 10.884C37.568 10.764 37.3054 10.596 37.0894 10.38C36.8734 10.164 36.708 9.90667 36.5934 9.608C36.4787 9.30933 36.4214 8.98133 36.4214 8.624V5.172H37.7734V8.62C37.7734 8.82533 37.7987 9.00933 37.8494 9.172C37.9027 9.332 37.9787 9.46933 38.0774 9.584C38.176 9.696 38.296 9.78267 38.4374 9.844C38.5814 9.90267 38.744 9.932 38.9254 9.932Z" fill="black"/>
<path d="M11.0566 4.83896L13.125 5.91513V3.75H6.21356C5.88733 3.75 5.625 3.94939 5.625 4.19734V8.36912L7.04092 8.67331C7.11491 8.68865 7.1889 8.65542 7.21244 8.60174L7.56558 7.63037C7.58913 7.56135 7.69675 7.53067 7.77747 7.57157L11.1642 9.34305C11.292 9.40951 11.1979 9.56288 11.0499 9.52965L8.44002 8.97495C8.36603 8.95961 8.28868 8.99284 8.27186 9.04908L7.92545 10.0205C7.90191 10.0895 7.79092 10.1201 7.71357 10.0792L5.625 8.98006V11.25H12.4893C12.8391 11.25 13.1216 11.0327 13.1216 10.7694V6.53885L11.7225 6.24233C11.6485 6.22699 11.5746 6.26022 11.5544 6.31391L11.1911 7.28783C11.1642 7.35685 11.06 7.38497 10.9793 7.34662L7.58913 5.5726C7.46132 5.50613 7.55549 5.35276 7.70348 5.38599L10.3133 5.9407C10.3873 5.95603 10.4613 5.9228 10.4815 5.86912L10.8447 4.89519C10.8716 4.82873 10.9759 4.79806 11.0566 4.83896Z" fill="white"/>
</svg>
