<svg width="135" height="110" viewBox="0 0 135 110" fill="none" xmlns="http://www.w3.org/2000/svg">
<rect x="2.5" y="2.5" width="29" height="22" rx="1" fill="#F1BB72"/>
<path d="M15.5183 14.108C15.5183 14.532 15.4476 14.9253 15.3063 15.288C15.1676 15.648 14.9703 15.96 14.7143 16.224C14.4583 16.488 14.1503 16.6947 13.7903 16.844C13.4303 16.9907 13.0303 17.064 12.5903 17.064C12.1529 17.064 11.7543 16.9907 11.3943 16.844C11.0343 16.6947 10.7249 16.488 10.4663 16.224C10.2103 15.96 10.0116 15.648 9.87028 15.288C9.72895 14.9253 9.65828 14.532 9.65828 14.108C9.65828 13.684 9.72895 13.292 9.87028 12.932C10.0116 12.5693 10.2103 12.256 10.4663 11.992C10.7249 11.728 11.0343 11.5227 11.3943 11.376C11.7543 11.2267 12.1529 11.152 12.5903 11.152C12.8836 11.152 13.1596 11.1867 13.4183 11.256C13.6769 11.3227 13.9143 11.4187 14.1303 11.544C14.3463 11.6667 14.5396 11.8173 14.7103 11.996C14.8836 12.172 15.0303 12.3693 15.1503 12.588C15.2703 12.8067 15.3609 13.044 15.4223 13.3C15.4863 13.556 15.5183 13.8253 15.5183 14.108ZM14.4183 14.108C14.4183 13.7907 14.3756 13.5067 14.2903 13.256C14.2049 13.0027 14.0836 12.788 13.9263 12.612C13.7689 12.436 13.5769 12.3013 13.3503 12.208C13.1263 12.1147 12.8729 12.068 12.5903 12.068C12.3076 12.068 12.0529 12.1147 11.8263 12.208C11.6023 12.3013 11.4103 12.436 11.2503 12.612C11.0929 12.788 10.9716 13.0027 10.8863 13.256C10.8009 13.5067 10.7583 13.7907 10.7583 14.108C10.7583 14.4253 10.8009 14.7107 10.8863 14.964C10.9716 15.2147 11.0929 15.428 11.2503 15.604C11.4103 15.7773 11.6023 15.9107 11.8263 16.004C12.0529 16.0973 12.3076 16.144 12.5903 16.144C12.8729 16.144 13.1263 16.0973 13.3503 16.004C13.5769 15.9107 13.7689 15.7773 13.9263 15.604C14.0836 15.428 14.2049 15.2147 14.2903 14.964C14.3756 14.7107 14.4183 14.4253 14.4183 14.108ZM17.4232 12.072V13.784H19.5912V14.644H17.4232V17H16.3432V11.216H19.9912V12.072H17.4232ZM21.8345 12.072V13.784H24.0025V14.644H21.8345V17H20.7545V11.216H24.4025V12.072H21.8345Z" fill="black"/>
<rect x="35.5" y="29.5" width="30" height="22" rx="1" fill="#F1BB72"/>
<path d="M43.7829 39.268C43.7509 39.324 43.7162 39.3653 43.6789 39.392C43.6442 39.416 43.6002 39.428 43.5469 39.428C43.4909 39.428 43.4296 39.408 43.3629 39.368C43.2989 39.3253 43.2216 39.2787 43.1309 39.228C43.0402 39.1773 42.9336 39.132 42.8109 39.092C42.6909 39.0493 42.5482 39.028 42.3829 39.028C42.2336 39.028 42.1029 39.0467 41.9909 39.084C41.8789 39.1187 41.7842 39.168 41.7069 39.232C41.6322 39.296 41.5762 39.3733 41.5389 39.464C41.5016 39.552 41.4829 39.6493 41.4829 39.756C41.4829 39.892 41.5202 40.0053 41.5949 40.096C41.6722 40.1867 41.7736 40.264 41.8989 40.328C42.0242 40.392 42.1669 40.4493 42.3269 40.5C42.4869 40.5507 42.6509 40.6053 42.8189 40.664C42.9869 40.72 43.1509 40.7867 43.3109 40.864C43.4709 40.9387 43.6136 41.0347 43.7389 41.152C43.8642 41.2667 43.9642 41.408 44.0389 41.576C44.1162 41.744 44.1549 41.948 44.1549 42.188C44.1549 42.4493 44.1096 42.6947 44.0189 42.924C43.9309 43.1507 43.8002 43.3493 43.6269 43.52C43.4562 43.688 43.2469 43.8213 42.9989 43.92C42.7509 44.016 42.4669 44.064 42.1469 44.064C41.9629 44.064 41.7816 44.0453 41.6029 44.008C41.4242 43.9733 41.2522 43.9227 41.0869 43.856C40.9242 43.7893 40.7709 43.7093 40.6269 43.616C40.4829 43.5227 40.3549 43.4187 40.2429 43.304L40.5589 42.788C40.5856 42.7507 40.6202 42.72 40.6629 42.696C40.7056 42.6693 40.7509 42.656 40.7989 42.656C40.8656 42.656 40.9376 42.684 41.0149 42.74C41.0922 42.7933 41.1842 42.8533 41.2909 42.92C41.3976 42.9867 41.5216 43.048 41.6629 43.104C41.8069 43.1573 41.9789 43.184 42.1789 43.184C42.4856 43.184 42.7229 43.112 42.8909 42.968C43.0589 42.8213 43.1429 42.612 43.1429 42.34C43.1429 42.188 43.1042 42.064 43.0269 41.968C42.9522 41.872 42.8522 41.792 42.7269 41.728C42.6016 41.6613 42.4589 41.6053 42.2989 41.56C42.1389 41.5147 41.9762 41.4653 41.8109 41.412C41.6456 41.3587 41.4829 41.2947 41.3229 41.22C41.1629 41.1453 41.0202 41.048 40.8949 40.928C40.7696 40.808 40.6682 40.6587 40.5909 40.48C40.5162 40.2987 40.4789 40.076 40.4789 39.812C40.4789 39.6013 40.5202 39.396 40.6029 39.196C40.6882 38.996 40.8109 38.8187 40.9709 38.664C41.1309 38.5093 41.3282 38.3853 41.5629 38.292C41.7976 38.1987 42.0669 38.152 42.3709 38.152C42.7122 38.152 43.0269 38.2053 43.3149 38.312C43.6029 38.4187 43.8482 38.568 44.0509 38.76L43.7829 39.268ZM46.0535 39.072V40.676H48.0775V41.504H46.0535V43.14H48.6215V44H44.9735V38.216H48.6215V39.072H46.0535ZM54.3311 38.216V44H53.7791C53.6938 44 53.6218 43.9867 53.5631 43.96C53.5071 43.9307 53.4524 43.8827 53.3991 43.816L50.3791 39.96C50.3951 40.136 50.4031 40.2987 50.4031 40.448V44H49.4551V38.216H50.0191C50.0644 38.216 50.1031 38.2187 50.1351 38.224C50.1698 38.2267 50.1991 38.2347 50.2231 38.248C50.2498 38.2587 50.2751 38.276 50.2991 38.3C50.3231 38.3213 50.3498 38.3507 50.3791 38.388L53.4111 42.26C53.4031 42.1667 53.3964 42.0747 53.3911 41.984C53.3858 41.8933 53.3831 41.8093 53.3831 41.732V38.216H54.3311ZM60.6352 41.108C60.6352 41.532 60.5645 41.9213 60.4232 42.276C60.2818 42.6307 60.0832 42.936 59.8272 43.192C59.5712 43.448 59.2632 43.6467 58.9032 43.788C58.5432 43.9293 58.1432 44 57.7032 44H55.4992V38.216H57.7032C58.1432 38.216 58.5432 38.288 58.9032 38.432C59.2632 38.5733 59.5712 38.772 59.8272 39.028C60.0832 39.2813 60.2818 39.5853 60.4232 39.94C60.5645 40.2947 60.6352 40.684 60.6352 41.108ZM59.5312 41.108C59.5312 40.7907 59.4885 40.5067 59.4032 40.256C59.3205 40.0027 59.1992 39.7893 59.0392 39.616C58.8818 39.44 58.6898 39.3053 58.4632 39.212C58.2392 39.1187 57.9858 39.072 57.7032 39.072H56.5792V43.144H57.7032C57.9858 43.144 58.2392 43.0973 58.4632 43.004C58.6898 42.9107 58.8818 42.7773 59.0392 42.604C59.1992 42.428 59.3205 42.2147 59.4032 41.964C59.4885 41.7107 59.5312 41.4253 59.5312 41.108Z" fill="black"/>
<rect x="69.5" y="56.5" width="30" height="22" rx="1" fill="#F1BB72"/>
<path d="M76.3365 61.268C76.3045 61.324 76.2698 61.3653 76.2325 61.392C76.1978 61.416 76.1538 61.428 76.1005 61.428C76.0445 61.428 75.9832 61.408 75.9165 61.368C75.8525 61.3253 75.7752 61.2787 75.6845 61.228C75.5938 61.1773 75.4872 61.132 75.3645 61.092C75.2445 61.0493 75.1018 61.028 74.9365 61.028C74.7872 61.028 74.6565 61.0467 74.5445 61.084C74.4325 61.1187 74.3378 61.168 74.2605 61.232C74.1858 61.296 74.1298 61.3733 74.0925 61.464C74.0552 61.552 74.0365 61.6493 74.0365 61.756C74.0365 61.892 74.0738 62.0053 74.1485 62.096C74.2258 62.1867 74.3272 62.264 74.4525 62.328C74.5778 62.392 74.7205 62.4493 74.8805 62.5C75.0405 62.5507 75.2045 62.6053 75.3725 62.664C75.5405 62.72 75.7045 62.7867 75.8645 62.864C76.0245 62.9387 76.1672 63.0347 76.2925 63.152C76.4178 63.2667 76.5178 63.408 76.5925 63.576C76.6698 63.744 76.7085 63.948 76.7085 64.188C76.7085 64.4493 76.6632 64.6947 76.5725 64.924C76.4845 65.1507 76.3538 65.3493 76.1805 65.52C76.0098 65.688 75.8005 65.8213 75.5525 65.92C75.3045 66.016 75.0205 66.064 74.7005 66.064C74.5165 66.064 74.3352 66.0453 74.1565 66.008C73.9778 65.9733 73.8058 65.9227 73.6405 65.856C73.4778 65.7893 73.3245 65.7093 73.1805 65.616C73.0365 65.5227 72.9085 65.4187 72.7965 65.304L73.1125 64.788C73.1392 64.7507 73.1738 64.72 73.2165 64.696C73.2592 64.6693 73.3045 64.656 73.3525 64.656C73.4192 64.656 73.4912 64.684 73.5685 64.74C73.6458 64.7933 73.7378 64.8533 73.8445 64.92C73.9512 64.9867 74.0752 65.048 74.2165 65.104C74.3605 65.1573 74.5325 65.184 74.7325 65.184C75.0392 65.184 75.2765 65.112 75.4445 64.968C75.6125 64.8213 75.6965 64.612 75.6965 64.34C75.6965 64.188 75.6578 64.064 75.5805 63.968C75.5058 63.872 75.4058 63.792 75.2805 63.728C75.1552 63.6613 75.0125 63.6053 74.8525 63.56C74.6925 63.5147 74.5298 63.4653 74.3645 63.412C74.1992 63.3587 74.0365 63.2947 73.8765 63.22C73.7165 63.1453 73.5738 63.048 73.4485 62.928C73.3232 62.808 73.2218 62.6587 73.1445 62.48C73.0698 62.2987 73.0325 62.076 73.0325 61.812C73.0325 61.6013 73.0738 61.396 73.1565 61.196C73.2418 60.996 73.3645 60.8187 73.5245 60.664C73.6845 60.5093 73.8818 60.3853 74.1165 60.292C74.3512 60.1987 74.6205 60.152 74.9245 60.152C75.2658 60.152 75.5805 60.2053 75.8685 60.312C76.1565 60.4187 76.4018 60.568 76.6045 60.76L76.3365 61.268ZM82.4031 60.216V66H81.8511C81.7658 66 81.6938 65.9867 81.6351 65.96C81.5791 65.9307 81.5245 65.8827 81.4711 65.816L78.4511 61.96C78.4671 62.136 78.4751 62.2987 78.4751 62.448V66H77.5271V60.216H78.0911C78.1365 60.216 78.1751 60.2187 78.2071 60.224C78.2418 60.2267 78.2711 60.2347 78.2951 60.248C78.3218 60.2587 78.3471 60.276 78.3711 60.3C78.3951 60.3213 78.4218 60.3507 78.4511 60.388L81.4831 64.26C81.4751 64.1667 81.4685 64.0747 81.4631 63.984C81.4578 63.8933 81.4551 63.8093 81.4551 63.732V60.216H82.4031ZM88.7072 63.108C88.7072 63.532 88.6365 63.9213 88.4952 64.276C88.3539 64.6307 88.1552 64.936 87.8992 65.192C87.6432 65.448 87.3352 65.6467 86.9752 65.788C86.6152 65.9293 86.2152 66 85.7752 66H83.5712V60.216H85.7752C86.2152 60.216 86.6152 60.288 86.9752 60.432C87.3352 60.5733 87.6432 60.772 87.8992 61.028C88.1552 61.2813 88.3539 61.5853 88.4952 61.94C88.6365 62.2947 88.7072 62.684 88.7072 63.108ZM87.6032 63.108C87.6032 62.7907 87.5605 62.5067 87.4752 62.256C87.3925 62.0027 87.2712 61.7893 87.1112 61.616C86.9539 61.44 86.7619 61.3053 86.5352 61.212C86.3112 61.1187 86.0579 61.072 85.7752 61.072H84.6512V65.144H85.7752C86.0579 65.144 86.3112 65.0973 86.5352 65.004C86.7619 64.9107 86.9539 64.7773 87.1112 64.604C87.2712 64.428 87.3925 64.2147 87.4752 63.964C87.5605 63.7107 87.6032 63.4253 87.6032 63.108ZM92.6304 63.296C92.4171 63.4347 92.2611 63.592 92.1624 63.768C92.0664 63.9413 92.0184 64.128 92.0184 64.328C92.0184 64.4747 92.0438 64.6067 92.0944 64.724C92.1451 64.8413 92.2131 64.9413 92.2984 65.024C92.3864 65.104 92.4878 65.1667 92.6024 65.212C92.7198 65.2547 92.8438 65.276 92.9744 65.276C93.2091 65.276 93.4238 65.24 93.6184 65.168C93.8131 65.0933 93.9891 64.9907 94.1464 64.86L92.6304 63.296ZM96.4824 66H95.5144C95.4131 66 95.3304 65.988 95.2664 65.964C95.2051 65.94 95.1398 65.8893 95.0704 65.812L94.6704 65.4C94.4171 65.608 94.1331 65.7707 93.8184 65.888C93.5038 66.0053 93.1638 66.064 92.7984 66.064C92.5771 66.064 92.3584 66.0267 92.1424 65.952C91.9291 65.8747 91.7384 65.764 91.5704 65.62C91.4024 65.476 91.2664 65.3027 91.1624 65.1C91.0611 64.8947 91.0104 64.664 91.0104 64.408C91.0104 64.2267 91.0398 64.056 91.0984 63.896C91.1571 63.7333 91.2384 63.5827 91.3424 63.444C91.4464 63.3053 91.5704 63.1813 91.7144 63.072C91.8584 62.96 92.0158 62.864 92.1864 62.784C92.0424 62.584 91.9384 62.3893 91.8744 62.2C91.8104 62.008 91.7784 61.8173 91.7784 61.628C91.7784 61.428 91.8144 61.2387 91.8864 61.06C91.9611 60.8787 92.0678 60.7213 92.2064 60.588C92.3451 60.4547 92.5158 60.3493 92.7184 60.272C92.9211 60.192 93.1504 60.152 93.4064 60.152C93.6411 60.152 93.8504 60.188 94.0344 60.26C94.2211 60.332 94.3798 60.428 94.5104 60.548C94.6438 60.668 94.7478 60.8053 94.8224 60.96C94.8998 61.1147 94.9451 61.2747 94.9584 61.44L94.3304 61.572C94.2131 61.596 94.1278 61.5453 94.0744 61.42C94.0504 61.3507 94.0184 61.2853 93.9784 61.224C93.9411 61.16 93.8958 61.1053 93.8424 61.06C93.7891 61.012 93.7264 60.9747 93.6544 60.948C93.5824 60.9187 93.4998 60.904 93.4064 60.904C93.2944 60.904 93.1944 60.924 93.1064 60.964C93.0184 61.0013 92.9438 61.0533 92.8824 61.12C92.8238 61.184 92.7784 61.26 92.7464 61.348C92.7144 61.4333 92.6984 61.524 92.6984 61.62C92.6984 61.7 92.7064 61.7773 92.7224 61.852C92.7384 61.9267 92.7651 62.0013 92.8024 62.076C92.8398 62.1507 92.8878 62.228 92.9464 62.308C93.0078 62.3853 93.0824 62.4693 93.1704 62.56L94.7064 64.156C94.7944 63.988 94.8651 63.8107 94.9184 63.624C94.9718 63.4373 95.0064 63.248 95.0224 63.056C95.0304 62.9947 95.0518 62.9453 95.0864 62.908C95.1211 62.8707 95.1691 62.852 95.2304 62.852H95.8464C95.8438 63.204 95.7931 63.54 95.6944 63.86C95.5958 64.18 95.4544 64.4747 95.2704 64.744L96.4824 66ZM82.4187 73.1V75.44C82.1254 75.656 81.8121 75.8147 81.4787 75.916C81.1481 76.0147 80.7934 76.064 80.4147 76.064C79.9427 76.064 79.5147 75.9907 79.1307 75.844C78.7494 75.6973 78.4227 75.4933 78.1507 75.232C77.8814 74.9707 77.6734 74.6587 77.5267 74.296C77.3801 73.9333 77.3067 73.5373 77.3067 73.108C77.3067 72.6733 77.3774 72.2747 77.5187 71.912C77.6601 71.5493 77.8601 71.2373 78.1187 70.976C78.3801 70.7147 78.6961 70.512 79.0667 70.368C79.4374 70.224 79.8534 70.152 80.3147 70.152C80.5494 70.152 80.7681 70.1707 80.9707 70.208C81.1761 70.2453 81.3654 70.2973 81.5387 70.364C81.7147 70.428 81.8747 70.5067 82.0187 70.6C82.1627 70.6933 82.2947 70.796 82.4147 70.908L82.1067 71.396C82.0587 71.4733 81.9961 71.5213 81.9187 71.54C81.8414 71.556 81.7574 71.536 81.6667 71.48C81.5787 71.4293 81.4907 71.3787 81.4027 71.328C81.3147 71.2773 81.2161 71.2333 81.1067 71.196C81.0001 71.1587 80.8787 71.128 80.7427 71.104C80.6094 71.08 80.4547 71.068 80.2787 71.068C79.9934 71.068 79.7347 71.116 79.5027 71.212C79.2734 71.308 79.0774 71.4453 78.9147 71.624C78.7521 71.8027 78.6267 72.0173 78.5387 72.268C78.4507 72.5187 78.4067 72.7987 78.4067 73.108C78.4067 73.4387 78.4534 73.7347 78.5467 73.996C78.6427 74.2547 78.7761 74.4747 78.9467 74.656C79.1201 74.8347 79.3281 74.972 79.5707 75.068C79.8134 75.1613 80.0841 75.208 80.3827 75.208C80.5961 75.208 80.7867 75.1853 80.9547 75.14C81.1227 75.0947 81.2867 75.0333 81.4467 74.956V73.908H80.7187C80.6494 73.908 80.5947 73.8893 80.5547 73.852C80.5174 73.812 80.4987 73.764 80.4987 73.708V73.1H82.4187ZM86.7234 75.112V76H83.3354V70.216H84.4114V75.112H86.7234ZM89.5357 75.16C89.7357 75.16 89.9037 75.136 90.0397 75.088C90.1757 75.04 90.2837 74.976 90.3637 74.896C90.4463 74.816 90.505 74.7227 90.5397 74.616C90.577 74.5093 90.5957 74.396 90.5957 74.276C90.5957 74.1507 90.5757 74.0387 90.5357 73.94C90.4957 73.8387 90.433 73.7533 90.3477 73.684C90.2623 73.612 90.1517 73.5573 90.0157 73.52C89.8823 73.4827 89.721 73.464 89.5317 73.464H88.4477V75.16H89.5357ZM88.4477 71.048V72.72H89.3037C89.6717 72.72 89.949 72.6533 90.1357 72.52C90.325 72.3867 90.4197 72.1747 90.4197 71.884C90.4197 71.5827 90.3343 71.368 90.1637 71.24C89.993 71.112 89.7263 71.048 89.3637 71.048H88.4477ZM89.3637 70.216C89.7423 70.216 90.0663 70.252 90.3357 70.324C90.605 70.396 90.825 70.4987 90.9957 70.632C91.169 70.7653 91.2957 70.9267 91.3757 71.116C91.4557 71.3053 91.4957 71.5187 91.4957 71.756C91.4957 71.892 91.4757 72.0227 91.4357 72.148C91.3957 72.2707 91.333 72.3867 91.2477 72.496C91.165 72.6027 91.0583 72.7 90.9277 72.788C90.7997 72.876 90.6463 72.9507 90.4677 73.012C91.2623 73.1907 91.6597 73.62 91.6597 74.3C91.6597 74.5453 91.613 74.772 91.5197 74.98C91.4263 75.188 91.2903 75.368 91.1117 75.52C90.933 75.6693 90.713 75.7867 90.4517 75.872C90.1903 75.9573 89.8917 76 89.5557 76H87.3717V70.216H89.3637Z" fill="black"/>
<rect x="103.5" y="83.5" width="29" height="22" rx="1" fill="#F1BB72"/>
<path d="M114.886 95.816L114.182 93.892C114.148 93.8067 114.112 93.7053 114.074 93.588C114.037 93.4707 114 93.344 113.962 93.208C113.928 93.344 113.892 93.472 113.854 93.592C113.817 93.7093 113.781 93.812 113.746 93.9L113.046 95.816H114.886ZM116.786 98H115.954C115.861 98 115.785 97.9773 115.726 97.932C115.668 97.884 115.624 97.8253 115.594 97.756L115.162 96.576H112.766L112.334 97.756C112.313 97.8173 112.272 97.8733 112.21 97.924C112.149 97.9747 112.073 98 111.982 98H111.142L113.418 92.216H114.514L116.786 98ZM120.653 97.112V98H117.265V92.216H118.341V97.112H120.653ZM124.689 97.112V98H121.301V92.216H122.377V97.112H124.689Z" fill="black"/>
</svg>
