<svg width="51" height="760" viewBox="0 0 51 760" fill="none" xmlns="http://www.w3.org/2000/svg">
<rect x="2.5" y="2.5" width="21" height="11" rx="1" fill="#F1BB72"/>
<rect x="2.5" y="2.5" width="21" height="11" rx="1" stroke="#F1BB72"/>
<path d="M30.25 8.01562L34.55 4.01563L30.25 8.01562Z" fill="#313131"/>
<path d="M30.4 27.0156L30.4 19.0156L30.4 27.0156ZM38.4 19.0156L38.4 27.0156L38.4 19.0156ZM30.4 19.0156L38.4 27.0156L30.4 19.0156ZM38.4 19.0156L46.4 27.0156L38.4 19.0156Z" fill="#313131"/>
<path d="M31.4 38.0156L31.4 34.0156L31.4 38.0156ZM39.4 41.0156L39.4 35.0156L39.4 41.0156ZM33.4 34.0156L33.4 37.0156L33.4 34.0156ZM43.4 36.0156L43.4 37.5156L43.4 36.0156ZM35.4 37.0156L35.4 42.0156L35.4 37.0156ZM41.4 37.5156L41.4 41.0156L41.4 37.5156ZM45.4 36.0156L45.4 40.0156L45.4 36.0156ZM37.4 35.0156L37.4 42.0156L37.4 35.0156ZM31.4 34.0156L33.4 34.0156L31.4 34.0156ZM33.4 37.0156H35.4H33.4ZM35.4 42.0156H37.4H35.4ZM37.4 35.0156H39.4H37.4ZM41.4 37.5156H43.4H41.4ZM43.4 36.0156L45.4 36.0156L43.4 36.0156ZM29.4 38.0156H31.4H29.4ZM45.4 40.0156H47.4H45.4ZM39.4 41.0156L41.4 41.0156L39.4 41.0156Z" fill="#313131"/>
<path d="M4.7 8.0154C5.25089 3.52956 9 4.0154 9 4.0154M13 8.0308C12.4491 3.54496 8.5 4.0154 8.5 4.0154M13 8C13.5509 12.4858 17.3951 12.0271 17.5 12.0154M21.3 8.00126C20.7491 12.4871 16.8 12.0167 16.8 12.0167" stroke="black" stroke-linecap="round"/>
<path d="M5 26.5337L5 19.5337L5 26.5337ZM13 19.5337L13 26.5337L13 19.5337ZM21 19.5337L21 26.5337L21 19.5337ZM5 19.5337L13 19.5337L5 19.5337ZM13 26.5337L21 26.5337L13 26.5337Z" fill="#313131"/>
<path d="M5 56.8535L8 48.8535L5 56.8535ZM18 52.8535L11 52.8535L18 52.8535ZM8 48.8535L11 52.8535L8 48.8535ZM18 52.8535L21 56.8535L18 52.8535Z" fill="#313131"/>
<rect x="27.5" y="78.5" width="21" height="11" rx="1" fill="#F1BB72"/>
<rect x="27.5" y="78.5" width="21" height="11" rx="1" stroke="#F1BB72"/>
<path d="M30.25 84.0156L34.55 80.0156L30.25 84.0156Z" fill="#313131"/>
<path d="M46.55 84.0156L42.55 88.0156L34.55 80.0156L30.25 84.0156" stroke="black" stroke-linecap="round"/>
<path d="M30.4 103.016L30.4 95.0156L30.4 103.016ZM38.4 95.0156L38.4 103.016L38.4 95.0156ZM30.4 95.0156L38.4 103.016L30.4 95.0156ZM38.4 95.0156L46.4 103.016L38.4 95.0156Z" fill="#313131"/>
<path d="M31.4 114.016L31.4 110.016L31.4 114.016ZM39.4 117.016L39.4 111.016L39.4 117.016ZM33.4 110.016L33.4 113.016L33.4 110.016ZM43.4 112.016L43.4 113.516L43.4 112.016ZM35.4 113.016L35.4 118.016L35.4 113.016ZM41.4 113.516L41.4 117.016L41.4 113.516ZM45.4 112.016L45.4 116.016L45.4 112.016ZM37.4 111.016L37.4 118.016L37.4 111.016ZM31.4 110.016H33.4H31.4ZM33.4 113.016L35.4 113.016L33.4 113.016ZM35.4 118.016H37.4H35.4ZM37.4 111.016H39.4H37.4ZM41.4 113.516L43.4 113.516L41.4 113.516ZM43.4 112.016H45.4H43.4ZM29.4 114.016H31.4H29.4ZM45.4 116.016H47.4H45.4ZM39.4 117.016H41.4H39.4Z" fill="#313131"/>
<path d="M5 102.534L5 95.5337L5 102.534ZM13 95.5337L13 102.534L13 95.5337ZM21 95.5337L21 102.534L21 95.5337ZM5 95.5337L13 95.5337L5 95.5337ZM13 102.534L21 102.534L13 102.534Z" fill="#313131"/>
<path d="M5 132.854L8 124.854L5 132.854ZM18 128.854L11 128.854L18 128.854ZM8 124.854L11 128.854L8 124.854ZM18 128.854L21 132.854L18 128.854Z" fill="#313131"/>
<rect x="2.5" y="169.5" width="21" height="11" rx="1" fill="#F1BB72"/>
<rect x="2.5" y="169.5" width="21" height="11" rx="1" stroke="#F1BB72"/>
<path d="M30.25 160.016L34.55 156.016L30.25 160.016Z" fill="#313131"/>
<path d="M30.4 179.016L30.4 171.016L30.4 179.016ZM38.4 171.016L38.4 179.016L38.4 171.016ZM30.4 171.016L38.4 179.016L30.4 171.016ZM38.4 171.016L46.4 179.016L38.4 171.016Z" fill="#313131"/>
<path d="M31.4 190.016L31.4 186.016L31.4 190.016ZM39.4 193.016L39.4 187.016L39.4 193.016ZM33.4 186.016L33.4 189.016L33.4 186.016ZM43.4 188.016L43.4 189.516L43.4 188.016ZM35.4 189.016L35.4 194.016L35.4 189.016ZM41.4 189.516L41.4 193.016L41.4 189.516ZM45.4 188.016L45.4 192.016L45.4 188.016ZM37.4 187.016L37.4 194.016L37.4 187.016ZM31.4 186.016H33.4H31.4ZM33.4 189.016H35.4H33.4ZM35.4 194.016H37.4H35.4ZM37.4 187.016L39.4 187.016L37.4 187.016ZM41.4 189.516H43.4H41.4ZM43.4 188.016H45.4H43.4ZM29.4 190.016H31.4H29.4ZM45.4 192.016H47.4H45.4ZM39.4 193.016H41.4H39.4Z" fill="#313131"/>
<path d="M5 178.534L5 171.534L5 178.534ZM13 171.534L13 178.534L13 171.534ZM21 171.534L21 178.534L21 171.534ZM5 171.534H13H5ZM13 178.534L21 178.534L13 178.534Z" fill="#313131"/>
<path d="M13 178.534L21 178.534M5 178.534L5 171.534L5 178.534ZM13 171.534L13 178.534L13 171.534ZM21 171.534L21 178.534L21 171.534ZM5 171.534H13H5Z" stroke="black" stroke-linecap="round" stroke-linejoin="round"/>
<path d="M5 208.854L8 200.854L5 208.854ZM18 204.854L11 204.854L18 204.854ZM8 200.854L11 204.854L8 200.854ZM18 204.854L21 208.854L18 204.854Z" fill="#313131"/>
<path d="M27.3548 248.261C27.3548 246.604 28.698 245.261 30.3548 245.261L45.6452 245.261C47.302 245.261 48.6452 246.604 48.6452 248.261L48.6452 253.739C48.6452 255.396 47.302 256.739 45.6452 256.739L30.3548 256.739C28.698 256.739 27.3548 255.396 27.3548 253.739L27.3548 248.261Z" fill="#F1BB72"/>
<rect x="27.3548" y="245.261" width="21.2903" height="11.4783" rx="1" fill="#F1BB72"/>
<rect x="27.3548" y="245.261" width="21.2903" height="11.4783" rx="1" stroke="#F1BB72"/>
<path d="M30.25 236.016L34.55 232.016L30.25 236.016Z" fill="#313131"/>
<path d="M30.4 255.016L30.4 247.016L30.4 255.016ZM38.4 247.016L38.4 255.016L38.4 247.016ZM30.4 247.016L38.4 255.016L30.4 247.016ZM38.4 247.016L46.4 255.016L38.4 247.016Z" fill="#313131"/>
<path d="M38.4 247.016L46.4 255.016M30.4 255.016L30.4 247.016L30.4 255.016ZM38.4 247.016L38.4 255.016L38.4 247.016ZM30.4 247.016L38.4 255.016L30.4 247.016Z" stroke="black" stroke-linecap="round" stroke-linejoin="round"/>
<path d="M31.4 266.016L31.4 262.016L31.4 266.016ZM39.4 269.016L39.4 263.016L39.4 269.016ZM33.4 262.016L33.4 265.016L33.4 262.016ZM43.4 264.016L43.4 265.516L43.4 264.016ZM35.4 265.016L35.4 270.016L35.4 265.016ZM41.4 265.516L41.4 269.016L41.4 265.516ZM45.4 264.016L45.4 268.016L45.4 264.016ZM37.4 263.016L37.4 270.016L37.4 263.016ZM31.4 262.016H33.4H31.4ZM33.4 265.016H35.4H33.4ZM35.4 270.016H37.4H35.4ZM37.4 263.016H39.4H37.4ZM41.4 265.516H43.4H41.4ZM43.4 264.016H45.4H43.4ZM29.4 266.016H31.4H29.4ZM45.4 268.016L47.4 268.016L45.4 268.016ZM39.4 269.016H41.4H39.4Z" fill="#313131"/>
<path d="M5 254.534L5 247.534L5 254.534ZM13 247.534L13 254.534L13 247.534ZM21 247.534L21 254.534L21 247.534ZM5 247.534H13H5ZM13 254.534L21 254.534L13 254.534Z" fill="#313131"/>
<path d="M5 284.854L8 276.854L5 284.854ZM18 280.854H11H18ZM8 276.854L11 280.854L8 276.854ZM18 280.854L21 284.854L18 280.854Z" fill="#313131"/>
<path d="M2.35484 339.261C2.35484 337.604 3.69799 336.261 5.35484 336.261L20.6452 336.261C22.302 336.261 23.6452 337.604 23.6452 339.261L23.6452 344.739C23.6452 346.396 22.302 347.739 20.6452 347.739L5.35484 347.739C3.69799 347.739 2.35484 346.396 2.35484 344.739L2.35484 339.261Z" fill="#F1BB72"/>
<rect x="2.35484" y="336.261" width="21.2903" height="11.4783" rx="1" fill="#F1BB72"/>
<rect x="2.35484" y="336.261" width="21.2903" height="11.4783" rx="1" stroke="#F1BB72"/>
<path d="M30.25 312.016L34.55 308.016L30.25 312.016Z" fill="#313131"/>
<path d="M30.4 331.016L30.4 323.016L30.4 331.016ZM38.4 323.016L38.4 331.016L38.4 323.016ZM30.4 323.016L38.4 331.016L30.4 323.016ZM38.4 323.016L46.4 331.016L38.4 323.016Z" fill="#313131"/>
<path d="M31.4 342.016L31.4 338.016L31.4 342.016ZM39.4 345.016L39.4 339.016L39.4 345.016ZM33.4 338.016L33.4 341.016L33.4 338.016ZM43.4 340.016L43.4 341.516L43.4 340.016ZM35.4 341.016L35.4 346.016L35.4 341.016ZM41.4 341.516L41.4 345.016L41.4 341.516ZM45.4 340.016L45.4 344.016L45.4 340.016ZM37.4 339.016L37.4 346.016L37.4 339.016ZM31.4 338.016H33.4H31.4ZM33.4 341.016H35.4H33.4ZM35.4 346.016H37.4H35.4ZM37.4 339.016H39.4H37.4ZM41.4 341.516H43.4H41.4ZM43.4 340.016H45.4H43.4ZM29.4 342.016H31.4H29.4ZM45.4 344.016L47.4 344.016L45.4 344.016ZM39.4 345.016H41.4H39.4Z" fill="#313131"/>
<path d="M5 330.534L5 323.534L5 330.534ZM13 323.534L13 330.534L13 323.534ZM21 323.534L21 330.534L21 323.534ZM5 323.534H13H5ZM13 330.534H21H13Z" fill="#313131"/>
<path d="M4 341.109C4.04326 340.087 4.74512 336.53 5 337.109C5.25488 337.689 5.40018 343.043 5.90018 344.043C6.40018 345.043 6.53032 340.541 7 341.109C7.46968 341.678 7.31225 346.836 7.77889 346.317C8.24553 345.798 8.44472 339.911 9 339.109C9.55528 338.307 9.4648 343.376 10 343.109C10.5352 342.843 10.6408 337.544 11.1408 338.044C11.6408 338.544 11.5352 344.093 12 345.109C12.4648 346.126 12.5062 341.832 13 342.109C13.4938 342.387 13.5172 346.846 14 346.109C14.4828 345.373 14.4312 339.915 14.9312 339.165C15.4312 338.415 15.5221 343.381 16 343.109C16.4779 342.837 16.3428 337.577 16.8428 338.077C17.3428 338.577 17.4607 344.101 18 345.109C18.5393 346.117 18.5148 342.384 19 342.109C19.4853 341.834 19.4411 345.26 19.9411 344.01C20.441 342.76 20.4853 337.834 21 337.109C21.5147 336.384 22 341.109 22 341.109" fill="#313131"/>
<path d="M4 341.109C4.04326 340.087 4.74512 336.53 5 337.109C5.25488 337.689 5.40018 343.043 5.90018 344.043C6.40018 345.043 6.53032 340.541 7 341.109C7.46968 341.678 7.31225 346.836 7.77889 346.317C8.24553 345.798 8.44472 339.911 9 339.109C9.55528 338.307 9.4648 343.376 10 343.109C10.5352 342.843 10.6408 337.544 11.1408 338.044C11.6408 338.544 11.5352 344.093 12 345.109C12.4648 346.126 12.5062 341.832 13 342.109C13.4938 342.387 13.5172 346.846 14 346.109C14.4828 345.373 14.4312 339.915 14.9312 339.165C15.4312 338.415 15.5221 343.381 16 343.109C16.4779 342.837 16.3428 337.577 16.8428 338.077C17.3428 338.577 17.4607 344.101 18 345.109C18.5393 346.117 18.5148 342.384 19 342.109C19.4853 341.834 19.4411 345.26 19.9411 344.01C20.441 342.76 20.4853 337.834 21 337.109C21.5147 336.384 22 341.109 22 341.109" stroke="black" stroke-width="0.75"/>
<path d="M5 360.854L8 352.854L5 360.854ZM18 356.854H11H18ZM8 352.854L11 356.854L8 352.854ZM18 356.854L21 360.854L18 356.854Z" fill="#313131"/>
<rect x="27.5" y="412.5" width="21" height="11" rx="1" fill="#F1BB72"/>
<rect x="27.5" y="412.5" width="21" height="11" rx="1" stroke="#F1BB72"/>
<path d="M30.25 388.016L34.55 384.016L30.25 388.016Z" fill="#313131"/>
<path d="M30.4 407.016L30.4 399.016L30.4 407.016ZM38.4 399.016L38.4 407.016L38.4 399.016ZM30.4 399.016L38.4 407.016L30.4 399.016ZM38.4 399.016L46.4 407.016L38.4 399.016Z" fill="#313131"/>
<path d="M31.4 418.016L31.4 414.016L31.4 418.016ZM39.4 421.016L39.4 415.016L39.4 421.016ZM33.4 414.016L33.4 417.016L33.4 414.016ZM43.4 416.016L43.4 417.516L43.4 416.016ZM35.4 417.016L35.4 422.016L35.4 417.016ZM41.4 417.516L41.4 421.016L41.4 417.516ZM45.4 416.016L45.4 420.016L45.4 416.016ZM37.4 415.016L37.4 422.016L37.4 415.016ZM31.4 414.016H33.4H31.4ZM33.4 417.016H35.4H33.4ZM35.4 422.016H37.4H35.4ZM37.4 415.016H39.4H37.4ZM41.4 417.516H43.4H41.4ZM43.4 416.016H45.4H43.4ZM29.4 418.016H31.4H29.4ZM45.4 420.016L47.4 420.016L45.4 420.016ZM39.4 421.016H41.4H39.4Z" fill="#313131"/>
<path d="M39.4 421.016H41.4M31.4 418.016L31.4 414.016L31.4 418.016ZM39.4 421.016L39.4 415.016L39.4 421.016ZM33.4 414.016L33.4 417.016L33.4 414.016ZM43.4 416.016L43.4 417.516L43.4 416.016ZM35.4 417.016L35.4 422.016L35.4 417.016ZM41.4 417.516L41.4 421.016L41.4 417.516ZM45.4 416.016L45.4 420.016L45.4 416.016ZM37.4 415.016L37.4 422.016L37.4 415.016ZM31.4 414.016H33.4H31.4ZM33.4 417.016H35.4H33.4ZM35.4 422.016H37.4H35.4ZM37.4 415.016H39.4H37.4ZM41.4 417.516H43.4H41.4ZM43.4 416.016H45.4H43.4ZM29.4 418.016H31.4H29.4ZM45.4 420.016L47.4 420.016L45.4 420.016Z" stroke="black" stroke-linecap="round" stroke-linejoin="round"/>
<path d="M5 406.534L5 399.534L5 406.534ZM13 399.534L13 406.534L13 399.534ZM21 399.534L21 406.534L21 399.534ZM5 399.534H13H5ZM13 406.534H21H13Z" fill="#313131"/>
<path d="M5 436.854L8 428.854L5 436.854ZM18 432.854H11H18ZM8 428.854L11 432.854L8 428.854ZM18 432.854L21 436.854L18 432.854Z" fill="#313131"/>
<rect x="2.5" y="503.5" width="21" height="11" rx="1" fill="#F1BB72"/>
<rect x="2.5" y="503.5" width="21" height="11" rx="1" stroke="#F1BB72"/>
<path d="M30.25 464.016L34.55 460.016L30.25 464.016Z" fill="#313131"/>
<path d="M30.4 483.016L30.4 475.016L30.4 483.016ZM38.4 475.016L38.4 483.016L38.4 475.016ZM30.4 475.016L38.4 483.016L30.4 475.016ZM38.4 475.016L46.4 483.016L38.4 475.016Z" fill="#313131"/>
<path d="M31.4 494.016L31.4 490.016L31.4 494.016ZM39.4 497.016L39.4 491.016L39.4 497.016ZM33.4 490.016L33.4 493.016L33.4 490.016ZM43.4 492.016L43.4 493.516L43.4 492.016ZM35.4 493.016L35.4 498.016L35.4 493.016ZM41.4 493.516L41.4 497.016L41.4 493.516ZM45.4 492.016L45.4 496.016L45.4 492.016ZM37.4 491.016L37.4 498.016L37.4 491.016ZM31.4 490.016H33.4H31.4ZM33.4 493.016H35.4H33.4ZM35.4 498.016H37.4H35.4ZM37.4 491.016H39.4H37.4ZM41.4 493.516H43.4H41.4ZM43.4 492.016H45.4H43.4ZM29.4 494.016H31.4H29.4ZM45.4 496.016L47.4 496.016L45.4 496.016ZM39.4 497.016H41.4H39.4Z" fill="#313131"/>
<path d="M5 482.534L5 475.534L5 482.534ZM13 475.534L13 482.534L13 475.534ZM21 475.534L21 482.534L21 475.534ZM5 475.534H13H5ZM13 482.534H21H13Z" fill="#313131"/>
<path d="M5 512.854L8 504.854L5 512.854ZM18 508.854H11H18ZM8 504.854L11 508.854L8 504.854ZM18 508.854L21 512.854L18 508.854Z" fill="#313131"/>
<path d="M18 508.854L21 512.854M5 512.854L8 504.854L5 512.854ZM18 508.854H11H18ZM8 504.854L11 508.854L8 504.854Z" stroke="black" stroke-linecap="round" stroke-linejoin="round"/>
<rect x="27.5" y="579.5" width="21" height="11" rx="1" fill="#F1BB72"/>
<rect x="27.5" y="579.5" width="21" height="11" rx="1" stroke="#F1BB72"/>
<path d="M30.25 540.016L34.55 536.016L30.25 540.016Z" fill="#313131"/>
<path d="M30.4 559.016L30.4 551.016L30.4 559.016ZM38.4 551.016L38.4 559.016L38.4 551.016ZM30.4 551.016L38.4 559.016L30.4 551.016ZM38.4 551.016L46.4 559.016L38.4 551.016Z" fill="#313131"/>
<path d="M31.4 570.016L31.4 566.016L31.4 570.016ZM39.4 573.016L39.4 567.016L39.4 573.016ZM33.4 566.016L33.4 569.016L33.4 566.016ZM43.4 568.016L43.4 569.516L43.4 568.016ZM35.4 569.016L35.4 574.016L35.4 569.016ZM41.4 569.516L41.4 573.016L41.4 569.516ZM45.4 568.016L45.4 572.016L45.4 568.016ZM37.4 567.016L37.4 574.016L37.4 567.016ZM31.4 566.016H33.4H31.4ZM33.4 569.016H35.4H33.4ZM35.4 574.016H37.4H35.4ZM37.4 567.016H39.4H37.4ZM41.4 569.516H43.4H41.4ZM43.4 568.016H45.4H43.4ZM29.4 570.016H31.4H29.4ZM45.4 572.016H47.4H45.4ZM39.4 573.016H41.4H39.4Z" fill="#313131"/>
<path d="M30.5 589.516L30.5 585.516H29.5L29.5 589.516H30.5ZM41 582.516H40L40 584.516H41L41 582.516ZM45.2 585.516H44.2L44.2 587.516H45.2L45.2 585.516ZM37.9 580.516L37.9 584.516H38.9L38.9 580.516H37.9ZM35.8 582.516L35.8 584.516H36.8L36.8 582.516H35.8ZM47.3 585.516H46.3L46.3 589.516H47.3L47.3 585.516ZM32.6 587.516V585.516H31.6L31.6 587.516H32.6Z" fill="black" stroke="#313131"/>
<path d="M5 558.534L5 551.534L5 558.534ZM13 551.534L13 558.534L13 551.534ZM21 551.534L21 558.534L21 551.534ZM5 551.534H13H5ZM13 558.534H21H13Z" fill="#313131"/>
<path d="M5 588.854L8 580.854L5 588.854ZM18 584.854H11H18ZM8 580.854L11 584.854L8 580.854ZM18 584.854L21 588.854L18 584.854Z" fill="#313131"/>
<path d="M2.35484 673.261C2.35484 671.604 3.69799 670.261 5.35484 670.261H20.6452C22.302 670.261 23.6452 671.604 23.6452 673.261L23.6452 678.739C23.6452 680.396 22.302 681.739 20.6452 681.739H5.35484C3.69799 681.739 2.35484 680.396 2.35484 678.739L2.35484 673.261Z" fill="#F1BB72"/>
<rect x="2.35484" y="670.261" width="21.2903" height="11.4783" rx="1" fill="#F1BB72"/>
<rect x="2.35484" y="670.261" width="21.2903" height="11.4783" rx="1" stroke="#F1BB72"/>
<path d="M30.25 616.016L34.55 612.016L30.25 616.016Z" fill="#313131"/>
<path d="M30.4 635.016L30.4 627.016L30.4 635.016ZM38.4 627.016L38.4 635.016L38.4 627.016ZM30.4 627.016L38.4 635.016L30.4 627.016ZM38.4 627.016L46.4 635.016L38.4 627.016Z" fill="#313131"/>
<path d="M31.4 646.016L31.4 642.016L31.4 646.016ZM39.4 649.016L39.4 643.016L39.4 649.016ZM33.4 642.016L33.4 645.016L33.4 642.016ZM43.4 644.016L43.4 645.516L43.4 644.016ZM35.4 645.016L35.4 650.016L35.4 645.016ZM41.4 645.516L41.4 649.016L41.4 645.516ZM45.4 644.016L45.4 648.016L45.4 644.016ZM37.4 643.016L37.4 650.016L37.4 643.016ZM31.4 642.016H33.4H31.4ZM33.4 645.016H35.4H33.4ZM35.4 650.016H37.4H35.4ZM37.4 643.016H39.4H37.4ZM41.4 645.516H43.4H41.4ZM43.4 644.016H45.4H43.4ZM29.4 646.016H31.4H29.4ZM45.4 648.016H47.4H45.4ZM39.4 649.016H41.4H39.4Z" fill="#313131"/>
<path d="M5 634.534L5 627.534L5 634.534ZM13 627.534L13 634.534L13 627.534ZM21 627.534L21 634.534L21 627.534ZM5 627.534H13H5ZM13 634.534H21H13Z" fill="#313131"/>
<path d="M5 664.854L8 656.854L5 664.854ZM18 660.854H11H18ZM8 656.854L11 660.854L8 656.854ZM18 660.854L21 664.854L18 660.854Z" fill="#313131"/>
<path fill-rule="evenodd" clip-rule="evenodd" d="M11 672.5C11 672.224 11.2239 672 11.5 672C11.7761 672 12 672.224 12 672.5C12 672.776 11.7761 673 11.5 673C11.2239 673 11 672.776 11 672.5ZM11.009 673.371C10.5785 673.525 10.2346 673.82 9.93018 674.223C9.44736 674.862 9.09609 675.731 8.71424 676.686L8.69937 676.723C8.33533 677.633 7.93957 678.623 7.36768 679.38C6.8822 680.022 6.25202 680.521 5.3989 680.689C5.23638 681.021 4.89493 681.25 4.5 681.25C3.94772 681.25 3.5 680.802 3.5 680.25C3.5 679.698 3.94772 679.25 4.5 679.25C4.84071 679.25 5.14162 679.42 5.32217 679.681C5.83322 679.548 6.2266 679.231 6.56982 678.777C7.05264 678.138 7.40391 677.269 7.78576 676.314L7.80063 676.277C8.16466 675.367 8.56043 674.377 9.13232 673.62C9.49603 673.139 9.94096 672.739 10.5 672.497C10.5015 671.946 10.9486 671.5 11.5 671.5C12.0523 671.5 12.5 671.948 12.5 672.5C12.5 672.668 12.4586 672.826 12.3855 672.965C12.431 673.068 12.4851 673.187 12.5468 673.32C12.761 673.779 13.0655 674.387 13.4287 674.993C13.7944 675.602 14.2075 676.188 14.6348 676.615C14.8267 676.807 15.0065 676.952 15.1728 677.055C15.2753 677.019 15.3854 677 15.5 677C15.5217 677 15.5432 677.001 15.5645 677.002C15.5976 676.94 15.6335 676.874 15.6723 676.804C15.9151 676.367 16.2727 675.781 16.7303 675.193C17.4048 674.326 18.36 673.371 19.5431 672.959C19.6677 672.549 20.049 672.25 20.5 672.25C21.0523 672.25 21.5 672.698 21.5 673.25C21.5 673.802 21.0523 674.25 20.5 674.25C20.215 674.25 19.9578 674.131 19.7756 673.939C18.9177 674.271 18.1489 674.998 17.5197 675.807C17.1023 676.344 16.7724 676.883 16.5465 677.29C16.4909 677.39 16.4418 677.481 16.3995 677.562C16.4639 677.695 16.5 677.843 16.5 678C16.5 678.552 16.0523 679 15.5 679C14.9477 679 14.5 678.552 14.5 678C14.5 677.938 14.5056 677.878 14.5162 677.82C14.3048 677.674 14.1079 677.503 13.9277 677.322C13.4175 676.812 12.9556 676.148 12.5713 675.507C12.1845 674.863 11.864 674.221 11.6407 673.743C11.6003 673.656 11.563 673.575 11.529 673.5C11.5194 673.5 11.5097 673.5 11.5 673.5C11.3215 673.5 11.154 673.453 11.009 673.371ZM4.5 679.75C4.22386 679.75 4 679.974 4 680.25C4 680.526 4.22386 680.75 4.5 680.75C4.77614 680.75 5 680.526 5 680.25C5 679.974 4.77614 679.75 4.5 679.75ZM15.5 677.5C15.2239 677.5 15 677.724 15 678C15 678.276 15.2239 678.5 15.5 678.5C15.7761 678.5 16 678.276 16 678C16 677.724 15.7761 677.5 15.5 677.5ZM20 673.25C20 672.974 20.2239 672.75 20.5 672.75C20.7761 672.75 21 672.974 21 673.25C21 673.526 20.7761 673.75 20.5 673.75C20.2239 673.75 20 673.526 20 673.25Z" fill="black"/>
<rect x="27.5" y="746.5" width="21" height="11" rx="1" fill="#F1BB72"/>
<rect x="27.5" y="746.5" width="21" height="11" rx="1" stroke="#F1BB72"/>
<path d="M30.25 692.016L34.55 688.016L30.25 692.016Z" fill="#313131"/>
<path d="M30.4 711.016L30.4 703.016L30.4 711.016ZM38.4 703.016L38.4 711.016L38.4 703.016ZM30.4 703.016L38.4 711.016L30.4 703.016ZM38.4 703.016L46.4 711.016L38.4 703.016Z" fill="#313131"/>
<path d="M31.4 722.016L31.4 718.016L31.4 722.016ZM39.4 725.016L39.4 719.016L39.4 725.016ZM33.4 718.016L33.4 721.016L33.4 718.016ZM43.4 720.016L43.4 721.516L43.4 720.016ZM35.4 721.016L35.4 726.016L35.4 721.016ZM41.4 721.516L41.4 725.016L41.4 721.516ZM45.4 720.016L45.4 724.016L45.4 720.016ZM37.4 719.016L37.4 726.016L37.4 719.016ZM31.4 718.016H33.4H31.4ZM33.4 721.016H35.4H33.4ZM35.4 726.016H37.4H35.4ZM37.4 719.016H39.4H37.4ZM41.4 721.516H43.4H41.4ZM43.4 720.016H45.4H43.4ZM29.4 722.016H31.4H29.4ZM45.4 724.016H47.4H45.4ZM39.4 725.016H41.4H39.4Z" fill="#313131"/>
<path d="M31.2838 753.142L31.6265 751.788H32.0396L32.1422 751.445H31.7174C31.8385 750.951 31.9986 750.59 32.1978 750.361C32.3189 750.219 32.4371 750.147 32.5523 750.147C32.5758 750.147 32.5948 750.154 32.6094 750.168C32.6241 750.182 32.6314 750.199 32.6314 750.221C32.6314 750.24 32.6153 750.277 32.5831 750.332C32.5509 750.387 32.5347 750.438 32.5347 750.487C32.5347 750.556 32.5601 750.614 32.6109 750.663C32.6617 750.712 32.7262 750.736 32.8043 750.736C32.8883 750.736 32.9586 750.707 33.0152 750.647C33.0719 750.587 33.1002 750.507 33.1002 750.405C33.1002 750.29 33.0577 750.196 32.9727 750.124C32.8878 750.052 32.7515 750.016 32.564 750.016C32.2711 750.016 32.0054 750.102 31.7672 750.273C31.5289 750.445 31.3023 750.729 31.0875 751.126C31.0133 751.263 30.9429 751.351 30.8765 751.39C30.8101 751.429 30.7037 751.447 30.5572 751.445L30.4605 751.788H30.8677L30.2701 754.129C30.1705 754.514 30.1031 754.751 30.0679 754.841C30.0172 754.972 29.94 755.083 29.8365 755.175C29.7955 755.212 29.7457 755.23 29.6871 755.23C29.6715 755.23 29.6578 755.226 29.6461 755.216L29.6314 755.195C29.6314 755.186 29.6461 755.166 29.6754 755.135C29.7047 755.105 29.7193 755.059 29.7193 754.996C29.7193 754.928 29.6959 754.871 29.649 754.826C29.6021 754.781 29.5347 754.759 29.4469 754.759C29.3414 754.759 29.2564 754.788 29.192 754.847C29.1275 754.905 29.0953 754.975 29.0953 755.055C29.0953 755.141 29.1344 755.215 29.2125 755.279C29.2906 755.342 29.4127 755.374 29.5787 755.374C29.8424 755.374 30.0762 755.305 30.2803 755.167C30.4844 755.03 30.6627 754.817 30.815 754.53C30.9674 754.243 31.1236 753.78 31.2838 753.142ZM46.2808 751.782L46.7877 750.016H46.6119L45.6334 750.188L45.6012 750.306C45.7125 750.3 45.7955 750.316 45.8502 750.355C45.8893 750.383 45.9088 750.42 45.9088 750.467C45.9088 750.521 45.8873 750.622 45.8443 750.769L44.9478 753.877C45.3072 754.066 45.648 754.161 45.9703 754.161C46.4039 754.161 46.7906 753.979 47.1305 753.613C47.5133 753.199 47.7047 752.729 47.7047 752.201C47.7047 751.98 47.6466 751.786 47.5304 751.617C47.4141 751.448 47.2388 751.363 47.0045 751.363C46.8834 751.363 46.7711 751.391 46.6676 751.447C46.5641 751.502 46.4351 751.614 46.2808 751.782ZM41.7076 751.899H43.1168V750.493H43.5006V751.899H44.9097V752.286H43.5006L43.5006 753.681H43.1168L43.1168 752.286H41.7076V751.899ZM38.3472 751.404L37.7789 753.353L37.7203 753.59C37.7144 753.619 37.7115 753.641 37.7115 753.654C37.7115 753.678 37.7198 753.698 37.7364 753.716C37.753 753.733 37.7701 753.742 37.7877 753.742C37.8287 753.742 37.8853 753.711 37.9576 753.648C37.9869 753.623 38.0572 753.533 38.1685 753.379L38.2711 753.432C38.1324 753.686 37.9845 753.871 37.8272 753.987C37.67 754.103 37.5006 754.161 37.3189 754.161C37.2076 754.161 37.1226 754.132 37.064 754.075C37.0054 754.017 36.9761 753.944 36.9761 753.856C36.9761 753.78 37.0074 753.639 37.0699 753.432L37.1402 753.194C36.9137 753.583 36.6959 753.858 36.4869 754.021C36.3658 754.114 36.2369 754.161 36.1002 754.161C35.9205 754.161 35.7906 754.087 35.7105 753.94C35.6304 753.792 35.5904 753.626 35.5904 753.44C35.5904 753.165 35.6744 752.849 35.8424 752.493C36.0103 752.136 36.231 751.85 36.5045 751.633C36.7291 751.453 36.94 751.363 37.1373 751.363C37.2467 751.363 37.3346 751.395 37.401 751.458C37.4674 751.522 37.5162 751.638 37.5474 751.806L37.6529 751.445L38.3472 751.404ZM39.7681 751.363L38.7457 751.539L38.7252 751.65C38.8013 751.635 38.8658 751.627 38.9185 751.627C39.0201 751.627 39.1041 751.671 39.1705 751.759C39.276 751.896 39.4224 752.312 39.6099 753.007C39.4634 753.204 39.3629 753.333 39.3082 753.394C39.2183 753.491 39.1441 753.555 39.0855 753.584C39.0406 753.607 38.9898 753.619 38.9332 753.619C38.8902 753.619 38.8199 753.596 38.7222 753.549C38.6558 753.518 38.5962 753.502 38.5435 753.502C38.4439 753.502 38.3619 753.534 38.2974 753.599C38.233 753.663 38.2008 753.745 38.2008 753.845C38.2008 753.938 38.2305 754.015 38.2901 754.073C38.3497 754.132 38.4302 754.161 38.5318 754.161C38.6295 754.161 38.7213 754.141 38.8072 754.1C38.8931 754.059 39.001 753.971 39.1309 753.837C39.2608 753.704 39.44 753.491 39.6685 753.2C39.7564 753.478 39.8326 753.679 39.8971 753.805C39.9615 753.931 40.0352 754.022 40.1182 754.078C40.2013 754.133 40.3053 754.161 40.4303 754.161C40.5514 754.161 40.6744 754.117 40.7994 754.029C40.9635 753.916 41.1314 753.721 41.3033 753.443L41.1978 753.382C41.0807 753.546 40.9938 753.648 40.9371 753.689C40.9 753.715 40.856 753.728 40.8053 753.728C40.7447 753.728 40.6851 753.689 40.6265 753.613C40.5269 753.484 40.3941 753.127 40.2281 752.541C40.3766 752.279 40.5016 752.108 40.6031 752.028C40.6773 751.97 40.7554 751.94 40.8375 751.94C40.8688 751.94 40.9249 751.952 41.0059 751.974C41.087 751.997 41.1588 752.008 41.2213 752.008C41.3072 752.008 41.379 751.978 41.4366 751.918C41.4942 751.859 41.523 751.782 41.523 751.688C41.523 751.589 41.4942 751.51 41.4366 751.451C41.379 751.393 41.2965 751.363 41.189 751.363C41.0933 751.363 41.003 751.386 40.918 751.432C40.8331 751.478 40.7252 751.577 40.5943 751.729C40.4966 751.843 40.3521 752.041 40.1607 752.324C40.0846 751.975 39.9537 751.654 39.7681 751.363ZM35.4937 751.431H32.2886V751.812H35.4937V751.431ZM37.4097 751.961C37.4097 751.803 37.3853 751.688 37.3365 751.618C37.3013 751.569 37.2535 751.545 37.1929 751.545C37.1324 751.545 37.0699 751.574 37.0054 751.633C36.8746 751.754 36.7335 752 36.5821 752.37C36.4307 752.74 36.3551 753.06 36.3551 753.329C36.3551 753.433 36.3721 753.507 36.4063 753.553C36.4405 753.599 36.4781 753.622 36.5191 753.622C36.607 753.622 36.6959 753.571 36.7857 753.47C36.9146 753.325 37.0308 753.148 37.1344 752.939C37.318 752.572 37.4097 752.246 37.4097 751.961ZM45.9117 753.994C45.8375 753.994 45.7545 753.965 45.6627 753.906L46.0611 752.529C46.1412 752.25 46.2154 752.067 46.2838 751.981C46.3853 751.849 46.5045 751.782 46.6412 751.782C46.7232 751.782 46.7955 751.818 46.858 751.891C46.9205 751.963 46.9517 752.068 46.9517 752.207C46.9517 752.451 46.9107 752.696 46.8287 752.942C46.7466 753.188 46.6446 753.398 46.5225 753.572C46.4004 753.746 46.2837 753.866 46.1724 753.933C46.1021 753.974 46.0152 753.994 45.9117 753.994ZM35.4937 752.389H32.2886V752.77H35.4937V752.389Z" fill="black"/>
<path d="M5 710.534L5 703.534L5 710.534ZM13 703.534L13 710.534L13 703.534ZM21 703.534L21 710.534L21 703.534ZM5 703.534H13H5ZM13 710.534H21H13Z" fill="#313131"/>
<path d="M5 740.854L8 732.854L5 740.854ZM18 736.854H11H18ZM8 732.854L11 736.854L8 732.854ZM18 736.854L21 740.854L18 736.854Z" fill="#313131"/>
</svg>
