<?xml version="1.0" encoding="UTF-8" standalone="no"?>
<!-- Generator: Adobe Illustrator 22.0.0, SVG Export Plug-In . SVG Version: 6.00 Build 0)  -->

<svg
   version="1.1"
   id="svg6"
   inkscape:version="1.1 (c68e22c387, 2021-05-23)"
   sodipodi:docname="bmp00168.svg"
   x="0px"
   y="0px"
   width="106px"
   height="18px"
   viewBox="0 0 106 18"
   xml:space="preserve"
   xmlns:inkscape="http://www.inkscape.org/namespaces/inkscape"
   xmlns:sodipodi="http://sodipodi.sourceforge.net/DTD/sodipodi-0.dtd"
   xmlns="http://www.w3.org/2000/svg"
   xmlns:svg="http://www.w3.org/2000/svg"><defs
   id="defs9" />
<style
   type="text/css"
   id="style2">
	.st0{fill:#595959;stroke:#333333;stroke-width:0.302;stroke-opacity:0.828;}
	.st1{fill:#000001;}
	.st2{fill:#D9D9D9;}
</style>
<sodipodi:namedview
   bordercolor="#666666"
   borderopacity="1.0"
   id="namedview8"
   inkscape:current-layer="svg6"
   inkscape:cx="43.031191"
   inkscape:cy="8.9669187"
   inkscape:pagecheckerboard="0"
   inkscape:pageopacity="0.0"
   inkscape:pageshadow="2"
   inkscape:window-height="1017"
   inkscape:window-maximized="1"
   inkscape:window-width="1920"
   inkscape:window-x="-8"
   inkscape:window-y="-8"
   inkscape:zoom="9.9811321"
   pagecolor="#ffffff"
   showgrid="false">
	</sodipodi:namedview>
<path
   id="rect1914"
   class="st0"
   d="M2.6,1.2h98.8c0.6,0,1,0.4,1,1v13.1c0,0.6-0.4,1-1,1H2.6c-0.6,0-1-0.4-1-1V2.2  C1.6,1.6,2,1.2,2.6,1.2z" />
<path
   id="path2"
   sodipodi:nodetypes="cccccccccccccccccccccccccccccccccccccccc"
   class="st1"
   d="M3,1.5h98v-1H3V1.5z M102.5,3v11.6  h1V3H102.5z M101,16.1H3v1h98V16.1z M1.5,14.6V3h-1v11.6L1.5,14.6z M3,16.1c-0.8,0-1.5-0.7-1.5-1.5h-1c0,1.4,1.1,2.5,2.5,2.5V16.1z   M102.5,14.6c0,0.8-0.7,1.5-1.5,1.5v1c1.4,0,2.5-1.1,2.5-2.5H102.5z M101,1.5c0.8,0,1.5,0.7,1.5,1.5h1c0-1.4-1.1-2.5-2.5-2.5V1.5z   M3,0.5C1.6,0.5,0.5,1.6,0.5,3h1c0-0.8,0.7-1.5,1.5-1.5V0.5z" />
<path
   id="path4"
   class="st2"
   d="M96,10.5l-2.5-3h5L96,10.5z" />
</svg>
