<?xml version="1.0" encoding="utf-8"?>
<!-- Generator: Adobe Illustrator 22.0.0, SVG Export Plug-In . SVG Version: 6.00 Build 0)  -->
<svg version="1.1" id="Layer_1" xmlns="http://www.w3.org/2000/svg" xmlns:xlink="http://www.w3.org/1999/xlink" x="0px" y="0px"
	 width="40px" height="168px" viewBox="0 0 40 168" style="enable-background:new 0 0 40 168;" xml:space="preserve">
<style type="text/css">
	.st0{fill:#595959;}
	.st1{fill:#FF9000;}
	.st2{fill:none;stroke:#FF9000;}
	.st3{opacity:0.75;}
	.st4{fill:#B4B4B4;}
</style>
<path class="st0" d="M0.5,2.5c0-1.105,0.895-2,2-2h35c1.105,0,2,0.895,2,2v37c0,1.105-0.895,2-2,2h-35c-1.105,0-2-0.895-2-2V2.5z"/>
<path class="st1" d="M3.5,2h33c0.552,0,1,0.448,1,1v6c0,0.552-0.448,1-1,1h-33c-0.552,0-1-0.448-1-1V3C2.5,2.448,2.948,2,3.5,2z"/>
<path class="st2" d="M3.5,2h33c0.552,0,1,0.448,1,1v6c0,0.552-0.448,1-1,1h-33c-0.552,0-1-0.448-1-1V3C2.5,2.448,2.948,2,3.5,2z"/>
<path d="M14.037,4.437c-0.035,0.056-0.072,0.098-0.112,0.126c-0.037,0.028-0.086,0.042-0.147,0.042
	c-0.054,0-0.112-0.016-0.175-0.049c-0.061-0.035-0.131-0.074-0.21-0.115c-0.077-0.042-0.166-0.079-0.266-0.112
	c-0.1-0.035-0.215-0.053-0.343-0.053c-0.222,0-0.387,0.048-0.497,0.144C12.18,4.512,12.126,4.64,12.126,4.8
	c0,0.103,0.033,0.188,0.098,0.256c0.065,0.068,0.151,0.126,0.256,0.175c0.107,0.049,0.229,0.095,0.364,0.136
	c0.138,0.04,0.278,0.085,0.42,0.137c0.142,0.049,0.281,0.107,0.417,0.175c0.138,0.068,0.259,0.154,0.364,0.259
	c0.107,0.105,0.194,0.233,0.259,0.385c0.065,0.149,0.098,0.33,0.098,0.543c0,0.236-0.041,0.456-0.122,0.661
	c-0.082,0.205-0.201,0.385-0.357,0.539c-0.154,0.152-0.345,0.272-0.574,0.361c-0.226,0.086-0.484,0.129-0.774,0.129
	c-0.159,0-0.321-0.016-0.486-0.049c-0.163-0.033-0.322-0.078-0.476-0.137c-0.154-0.061-0.299-0.132-0.434-0.214
	c-0.135-0.082-0.253-0.173-0.354-0.273l0.35-0.553c0.028-0.04,0.064-0.072,0.108-0.098c0.047-0.028,0.097-0.042,0.151-0.042
	c0.07,0,0.14,0.022,0.21,0.067c0.072,0.044,0.153,0.093,0.241,0.147c0.091,0.054,0.195,0.103,0.311,0.147
	c0.117,0.044,0.254,0.067,0.413,0.067c0.215,0,0.382-0.047,0.501-0.14c0.119-0.096,0.178-0.246,0.178-0.451
	c0-0.119-0.033-0.216-0.098-0.291C13.125,6.661,13.039,6.6,12.931,6.55c-0.105-0.049-0.225-0.092-0.361-0.129
	c-0.135-0.037-0.274-0.078-0.417-0.122c-0.142-0.047-0.281-0.103-0.417-0.168c-0.135-0.068-0.257-0.155-0.364-0.262
	c-0.105-0.11-0.19-0.245-0.256-0.406C11.053,5.299,11.02,5.098,11.02,4.86c0-0.191,0.038-0.378,0.115-0.56
	c0.077-0.182,0.19-0.344,0.34-0.487c0.149-0.142,0.333-0.255,0.55-0.339c0.217-0.086,0.465-0.129,0.745-0.129
	c0.156,0,0.308,0.013,0.455,0.038c0.149,0.023,0.29,0.06,0.424,0.109c0.133,0.047,0.257,0.104,0.371,0.172
	c0.117,0.065,0.22,0.14,0.311,0.224L14.037,4.437z M15.974,4.871V8.5h-1.085V4.871H15.974z M16.086,3.876
	c0,0.086-0.017,0.168-0.052,0.245c-0.035,0.075-0.083,0.141-0.144,0.2c-0.061,0.056-0.132,0.102-0.214,0.136
	c-0.079,0.033-0.165,0.049-0.255,0.049c-0.089,0-0.172-0.016-0.248-0.049c-0.077-0.035-0.146-0.081-0.207-0.136
	c-0.058-0.058-0.105-0.125-0.14-0.2c-0.033-0.077-0.049-0.159-0.049-0.245c0-0.089,0.016-0.171,0.049-0.248
	c0.035-0.077,0.082-0.145,0.14-0.203c0.061-0.058,0.13-0.104,0.207-0.136s0.16-0.049,0.248-0.049c0.091,0,0.176,0.016,0.255,0.049
	c0.082,0.033,0.153,0.078,0.214,0.136c0.061,0.058,0.109,0.126,0.144,0.203S16.086,3.788,16.086,3.876z M17.627,5.262
	c0.07-0.065,0.142-0.126,0.217-0.182c0.075-0.056,0.154-0.103,0.238-0.14c0.086-0.04,0.178-0.07,0.277-0.091
	c0.1-0.023,0.209-0.035,0.325-0.035c0.198,0,0.373,0.035,0.525,0.105c0.154,0.068,0.283,0.163,0.389,0.287
	c0.105,0.121,0.184,0.267,0.238,0.438c0.054,0.168,0.08,0.351,0.08,0.549V8.5h-1.085V6.194c0-0.177-0.041-0.315-0.123-0.413
	c-0.082-0.1-0.202-0.15-0.36-0.15c-0.119,0-0.231,0.026-0.336,0.077c-0.103,0.049-0.203,0.117-0.301,0.203V8.5h-1.085V4.871h0.672
	c0.135,0,0.224,0.061,0.266,0.182L17.627,5.262z M21.896,6.495c0.18,0,0.309-0.044,0.389-0.133c0.082-0.091,0.122-0.208,0.122-0.35
	c0-0.147-0.041-0.262-0.122-0.346c-0.079-0.084-0.209-0.126-0.389-0.126c-0.18,0-0.31,0.042-0.392,0.126
	c-0.079,0.084-0.119,0.2-0.119,0.346c0,0.07,0.009,0.134,0.028,0.193c0.021,0.058,0.052,0.11,0.094,0.154
	c0.042,0.042,0.094,0.076,0.157,0.102C21.73,6.483,21.807,6.495,21.896,6.495z M22.736,8.633c0-0.086-0.038-0.148-0.116-0.186
	c-0.077-0.04-0.177-0.068-0.301-0.084c-0.124-0.016-0.263-0.026-0.417-0.028c-0.152-0.005-0.303-0.014-0.455-0.028
	c-0.068,0.047-0.124,0.099-0.168,0.158c-0.042,0.056-0.063,0.12-0.063,0.193c0,0.051,0.01,0.098,0.031,0.14
	c0.023,0.042,0.063,0.078,0.119,0.109c0.056,0.03,0.131,0.054,0.224,0.07c0.096,0.019,0.216,0.028,0.361,0.028
	c0.156,0,0.285-0.009,0.385-0.028c0.1-0.019,0.18-0.044,0.238-0.077c0.061-0.033,0.103-0.072,0.126-0.119
	C22.724,8.736,22.736,8.687,22.736,8.633z M23.807,4.983v0.395c0,0.061-0.017,0.109-0.052,0.144
	c-0.033,0.035-0.09,0.062-0.171,0.081L23.32,5.661c0.014,0.051,0.024,0.104,0.031,0.157c0.009,0.054,0.014,0.11,0.014,0.168
	c0,0.182-0.038,0.345-0.115,0.49c-0.075,0.145-0.179,0.268-0.312,0.371c-0.131,0.1-0.286,0.179-0.465,0.234
	c-0.18,0.054-0.372,0.081-0.577,0.081c-0.056,0-0.111-0.001-0.165-0.003c-0.054-0.005-0.106-0.012-0.157-0.021
	c-0.079,0.049-0.119,0.104-0.119,0.164s0.033,0.105,0.098,0.133c0.065,0.026,0.152,0.044,0.259,0.056
	c0.107,0.009,0.229,0.016,0.364,0.021c0.138,0.002,0.278,0.01,0.42,0.024c0.142,0.012,0.281,0.033,0.417,0.063
	c0.138,0.03,0.26,0.079,0.368,0.147c0.107,0.068,0.194,0.159,0.259,0.273c0.065,0.112,0.098,0.255,0.098,0.431
	c0,0.163-0.04,0.323-0.119,0.479c-0.079,0.156-0.196,0.295-0.35,0.417s-0.343,0.218-0.567,0.29c-0.224,0.075-0.481,0.112-0.77,0.112
	c-0.285,0-0.531-0.027-0.739-0.081c-0.205-0.054-0.377-0.125-0.514-0.214c-0.135-0.086-0.236-0.187-0.301-0.301
	c-0.065-0.114-0.098-0.233-0.098-0.357c0-0.161,0.047-0.295,0.14-0.402c0.093-0.107,0.224-0.194,0.392-0.259
	c-0.089-0.054-0.159-0.122-0.21-0.206c-0.051-0.084-0.077-0.193-0.077-0.326c0-0.054,0.009-0.11,0.028-0.168
	c0.019-0.061,0.048-0.119,0.087-0.175c0.042-0.058,0.093-0.113,0.154-0.165C20.854,7.045,20.926,7,21.01,6.96
	c-0.189-0.1-0.338-0.232-0.448-0.396c-0.11-0.166-0.165-0.358-0.165-0.577c0-0.182,0.038-0.345,0.116-0.49
	c0.077-0.147,0.182-0.271,0.315-0.371c0.135-0.103,0.294-0.181,0.476-0.234c0.182-0.056,0.379-0.084,0.592-0.084
	c0.308,0,0.581,0.058,0.819,0.175H23.807z M25.239,3.26V8.5h-1.085V3.26H25.239z M28.125,6.249c0-0.086-0.012-0.17-0.035-0.252
	c-0.021-0.082-0.057-0.154-0.108-0.217c-0.049-0.065-0.114-0.118-0.196-0.157s-0.181-0.06-0.298-0.06
	c-0.205,0-0.366,0.06-0.483,0.179c-0.117,0.117-0.194,0.286-0.231,0.507H28.125z M26.76,6.879c0.035,0.303,0.127,0.524,0.276,0.661
	c0.149,0.135,0.342,0.203,0.578,0.203c0.126,0,0.234-0.015,0.325-0.045c0.091-0.03,0.172-0.064,0.242-0.102
	c0.072-0.037,0.138-0.071,0.196-0.102c0.061-0.03,0.124-0.046,0.189-0.046c0.086,0,0.152,0.032,0.196,0.095l0.315,0.389
	c-0.112,0.128-0.233,0.233-0.364,0.315c-0.128,0.079-0.261,0.142-0.399,0.189c-0.135,0.044-0.272,0.075-0.41,0.091
	c-0.135,0.019-0.265,0.028-0.389,0.028c-0.254,0-0.493-0.041-0.717-0.122c-0.222-0.084-0.417-0.208-0.585-0.371
	c-0.166-0.163-0.297-0.366-0.395-0.609c-0.096-0.243-0.144-0.525-0.144-0.847c0-0.243,0.041-0.473,0.123-0.69
	c0.084-0.217,0.203-0.407,0.357-0.57c0.156-0.163,0.344-0.293,0.564-0.388c0.222-0.096,0.471-0.144,0.749-0.144
	c0.24,0,0.46,0.037,0.658,0.112c0.201,0.075,0.372,0.183,0.514,0.326c0.145,0.142,0.257,0.317,0.336,0.525
	c0.082,0.205,0.122,0.439,0.122,0.7c0,0.082-0.003,0.148-0.01,0.199c-0.007,0.051-0.02,0.092-0.038,0.122
	c-0.019,0.03-0.044,0.051-0.077,0.063c-0.03,0.012-0.07,0.017-0.119,0.017H26.76z"/>
<g class="st3">
	<rect x="2" y="10.5" width="36" height="1"/>
</g>
<path class="st4" d="M8.213,15.465h0.189c0.175,0,0.301-0.055,0.378-0.165l1.148-1.666c0.068-0.089,0.14-0.149,0.217-0.182
	c0.079-0.035,0.177-0.052,0.294-0.052h1.029l-1.512,2.061c-0.107,0.142-0.223,0.245-0.347,0.308
	c0.089,0.033,0.169,0.078,0.241,0.136c0.072,0.058,0.14,0.134,0.203,0.228l1.54,2.366h-1.057c-0.068,0-0.126-0.005-0.175-0.014
	c-0.047-0.009-0.087-0.023-0.123-0.042c-0.035-0.019-0.065-0.041-0.091-0.066c-0.026-0.028-0.05-0.059-0.073-0.094L8.92,16.508
	c-0.042-0.065-0.096-0.111-0.161-0.136C8.696,16.344,8.609,16.33,8.5,16.33H8.213v2.17H7.03v-5.099h1.183V15.465z M13.746,16.25
	c0-0.086-0.012-0.17-0.035-0.252c-0.021-0.082-0.057-0.154-0.109-0.217c-0.049-0.065-0.114-0.118-0.196-0.158
	c-0.082-0.04-0.181-0.059-0.298-0.059c-0.205,0-0.366,0.059-0.483,0.178c-0.117,0.117-0.194,0.286-0.231,0.508H13.746z
	 M12.381,16.879c0.035,0.303,0.127,0.524,0.276,0.662c0.149,0.135,0.342,0.203,0.578,0.203c0.126,0,0.234-0.015,0.325-0.045
	c0.091-0.03,0.172-0.064,0.241-0.101c0.072-0.037,0.138-0.071,0.196-0.101c0.061-0.03,0.124-0.045,0.189-0.045
	c0.086,0,0.152,0.031,0.196,0.094l0.315,0.389c-0.112,0.128-0.233,0.233-0.364,0.315c-0.128,0.079-0.261,0.142-0.399,0.189
	c-0.135,0.044-0.272,0.075-0.41,0.091c-0.135,0.019-0.265,0.028-0.389,0.028c-0.254,0-0.493-0.041-0.717-0.122
	c-0.222-0.084-0.417-0.208-0.585-0.371c-0.166-0.163-0.297-0.366-0.395-0.609c-0.096-0.243-0.144-0.525-0.144-0.847
	c0-0.243,0.041-0.472,0.122-0.69c0.084-0.217,0.203-0.407,0.357-0.57c0.156-0.163,0.344-0.293,0.564-0.389
	c0.222-0.096,0.471-0.144,0.749-0.144c0.24,0,0.46,0.037,0.658,0.112c0.201,0.075,0.372,0.183,0.514,0.325
	c0.145,0.142,0.257,0.317,0.336,0.525c0.082,0.205,0.123,0.439,0.123,0.7c0,0.082-0.003,0.148-0.01,0.2
	c-0.007,0.051-0.02,0.092-0.039,0.122c-0.019,0.03-0.044,0.051-0.077,0.063c-0.03,0.012-0.07,0.017-0.119,0.017H12.381z
	 M18.488,14.87l-1.939,4.571c-0.033,0.072-0.072,0.125-0.119,0.158c-0.047,0.035-0.121,0.052-0.224,0.052h-0.812l0.7-1.47
	l-1.449-3.311h0.959c0.084,0,0.148,0.019,0.193,0.056c0.047,0.037,0.08,0.082,0.101,0.133l0.595,1.565
	c0.056,0.142,0.101,0.288,0.136,0.438c0.026-0.075,0.051-0.149,0.077-0.224c0.026-0.075,0.052-0.148,0.08-0.22l0.539-1.558
	c0.021-0.054,0.058-0.098,0.112-0.133c0.054-0.037,0.112-0.056,0.175-0.056H18.488z M22.983,14.436
	c-0.035,0.056-0.072,0.098-0.112,0.126c-0.037,0.028-0.086,0.042-0.147,0.042c-0.054,0-0.112-0.016-0.175-0.049
	c-0.061-0.035-0.131-0.073-0.21-0.116c-0.077-0.042-0.166-0.079-0.266-0.112c-0.1-0.035-0.215-0.052-0.343-0.052
	c-0.222,0-0.387,0.048-0.497,0.143c-0.107,0.093-0.161,0.22-0.161,0.382c0,0.103,0.033,0.188,0.098,0.255
	c0.065,0.068,0.15,0.126,0.255,0.175c0.107,0.049,0.229,0.094,0.364,0.137c0.138,0.04,0.278,0.085,0.42,0.136
	c0.142,0.049,0.281,0.107,0.417,0.175c0.138,0.068,0.259,0.154,0.364,0.259c0.107,0.105,0.194,0.233,0.259,0.385
	c0.065,0.149,0.098,0.33,0.098,0.542c0,0.236-0.041,0.456-0.123,0.662c-0.082,0.205-0.201,0.385-0.357,0.539
	c-0.154,0.152-0.345,0.272-0.574,0.361c-0.226,0.086-0.484,0.129-0.774,0.129c-0.159,0-0.321-0.016-0.486-0.049
	c-0.163-0.033-0.322-0.078-0.476-0.136c-0.154-0.061-0.299-0.132-0.434-0.214c-0.135-0.082-0.253-0.173-0.354-0.273l0.35-0.553
	c0.028-0.04,0.064-0.072,0.108-0.098c0.047-0.028,0.097-0.042,0.151-0.042c0.07,0,0.14,0.022,0.21,0.066
	c0.072,0.044,0.153,0.093,0.242,0.147c0.091,0.054,0.195,0.103,0.311,0.147c0.117,0.044,0.254,0.066,0.413,0.066
	c0.215,0,0.382-0.047,0.501-0.14c0.119-0.096,0.178-0.246,0.178-0.451c0-0.119-0.033-0.216-0.098-0.291
	c-0.065-0.075-0.152-0.136-0.259-0.185c-0.105-0.049-0.225-0.092-0.361-0.13c-0.135-0.037-0.274-0.078-0.417-0.122
	c-0.142-0.047-0.281-0.103-0.417-0.168c-0.135-0.068-0.257-0.155-0.364-0.263c-0.105-0.11-0.19-0.245-0.256-0.406
	c-0.065-0.163-0.098-0.364-0.098-0.602c0-0.191,0.038-0.378,0.115-0.56s0.19-0.344,0.34-0.486c0.149-0.142,0.333-0.256,0.549-0.34
	c0.217-0.086,0.465-0.13,0.746-0.13c0.156,0,0.308,0.013,0.455,0.039c0.149,0.023,0.29,0.059,0.424,0.108
	c0.133,0.047,0.257,0.104,0.371,0.172c0.117,0.065,0.22,0.14,0.311,0.224L22.983,14.436z M24.834,17.513
	c0.082,0.089,0.17,0.152,0.266,0.189c0.096,0.037,0.196,0.056,0.301,0.056c0.1,0,0.192-0.02,0.276-0.059s0.156-0.103,0.217-0.189
	c0.063-0.089,0.112-0.203,0.147-0.343s0.052-0.31,0.052-0.511c0-0.191-0.014-0.352-0.042-0.483
	c-0.028-0.131-0.068-0.236-0.119-0.315c-0.049-0.082-0.108-0.14-0.179-0.175c-0.07-0.035-0.148-0.052-0.234-0.052
	c-0.159,0-0.289,0.029-0.392,0.087c-0.103,0.058-0.201,0.144-0.294,0.255V17.513z M24.767,15.318
	c0.142-0.152,0.303-0.275,0.483-0.371c0.182-0.098,0.398-0.147,0.648-0.147c0.189,0,0.364,0.042,0.525,0.126
	c0.161,0.084,0.3,0.205,0.417,0.364c0.117,0.159,0.208,0.354,0.273,0.585c0.068,0.229,0.101,0.489,0.101,0.781
	c0,0.273-0.038,0.525-0.115,0.756c-0.075,0.231-0.181,0.432-0.319,0.602c-0.135,0.17-0.299,0.303-0.49,0.399
	c-0.189,0.096-0.399,0.143-0.63,0.143c-0.189,0-0.348-0.027-0.476-0.08c-0.128-0.054-0.245-0.126-0.35-0.217v1.393h-1.085V14.87
	h0.672c0.135,0,0.224,0.061,0.266,0.182L24.767,15.318z M28.755,13.26v5.24H27.67v-5.24H28.755z M30.493,14.87v3.63h-1.085v-3.63
	H30.493z M30.605,13.877c0,0.086-0.017,0.168-0.052,0.245c-0.035,0.075-0.083,0.141-0.144,0.2c-0.061,0.056-0.132,0.101-0.213,0.137
	c-0.079,0.033-0.165,0.049-0.256,0.049c-0.089,0-0.171-0.016-0.248-0.049c-0.077-0.035-0.146-0.081-0.207-0.137
	c-0.058-0.058-0.105-0.125-0.14-0.2c-0.033-0.077-0.049-0.159-0.049-0.245c0-0.089,0.016-0.172,0.049-0.248
	c0.035-0.077,0.082-0.145,0.14-0.203c0.061-0.058,0.129-0.104,0.207-0.137c0.077-0.033,0.16-0.049,0.248-0.049
	c0.091,0,0.176,0.016,0.256,0.049c0.082,0.033,0.153,0.078,0.213,0.137c0.061,0.058,0.108,0.126,0.144,0.203
	C30.588,13.705,30.605,13.788,30.605,13.877z M32.443,18.556c-0.173,0-0.325-0.024-0.458-0.073
	c-0.131-0.051-0.242-0.122-0.333-0.214c-0.089-0.093-0.156-0.205-0.203-0.336c-0.047-0.131-0.07-0.277-0.07-0.438V15.62h-0.308
	c-0.056,0-0.104-0.017-0.144-0.052c-0.04-0.037-0.059-0.091-0.059-0.161v-0.424l0.578-0.112l0.213-0.885
	c0.028-0.112,0.107-0.168,0.238-0.168h0.567v1.06h0.9v0.742h-0.9v1.803c0,0.084,0.02,0.154,0.06,0.21
	c0.042,0.054,0.102,0.08,0.179,0.08c0.04,0,0.072-0.003,0.098-0.01c0.028-0.009,0.051-0.019,0.07-0.028
	c0.021-0.012,0.04-0.021,0.056-0.028c0.019-0.009,0.04-0.014,0.063-0.014c0.033,0,0.058,0.008,0.077,0.024
	c0.021,0.014,0.042,0.037,0.063,0.07l0.329,0.514c-0.14,0.105-0.298,0.184-0.472,0.238C32.811,18.53,32.63,18.556,32.443,18.556z"/>
<g class="st3">
	<rect x="2" y="20.5" width="36" height="1"/>
</g>
<path class="st4" d="M8.39,27.181c0.028,0,0.056,0.006,0.084,0.017c0.028,0.009,0.055,0.027,0.081,0.052l0.469,0.493
	c-0.205,0.268-0.463,0.471-0.774,0.609c-0.308,0.135-0.673,0.203-1.095,0.203c-0.387,0-0.735-0.065-1.043-0.196
	c-0.306-0.133-0.566-0.315-0.78-0.546c-0.212-0.233-0.376-0.509-0.49-0.826c-0.114-0.32-0.171-0.666-0.171-1.04
	c0-0.38,0.062-0.729,0.185-1.046c0.124-0.32,0.298-0.595,0.522-0.826c0.224-0.231,0.492-0.411,0.805-0.539
	c0.313-0.128,0.657-0.193,1.032-0.193c0.191,0,0.371,0.017,0.539,0.052c0.17,0.033,0.329,0.079,0.476,0.14
	c0.147,0.058,0.282,0.129,0.406,0.213c0.124,0.084,0.233,0.175,0.329,0.273l-0.399,0.535c-0.026,0.033-0.056,0.063-0.091,0.091
	c-0.035,0.026-0.084,0.038-0.147,0.038c-0.042,0-0.082-0.009-0.119-0.028c-0.037-0.019-0.077-0.041-0.119-0.066
	C8.047,24.566,8,24.537,7.949,24.507C7.9,24.474,7.84,24.445,7.77,24.419c-0.068-0.028-0.148-0.051-0.241-0.07
	c-0.091-0.019-0.198-0.028-0.322-0.028c-0.196,0-0.376,0.036-0.539,0.109c-0.161,0.072-0.301,0.178-0.42,0.318
	c-0.117,0.138-0.208,0.308-0.273,0.511C5.912,25.46,5.88,25.69,5.88,25.948c0,0.261,0.035,0.493,0.105,0.697
	c0.072,0.203,0.169,0.375,0.29,0.514c0.124,0.138,0.267,0.243,0.431,0.315c0.163,0.072,0.338,0.108,0.525,0.108
	c0.107,0,0.205-0.005,0.294-0.014c0.089-0.012,0.171-0.029,0.248-0.052c0.077-0.026,0.149-0.058,0.217-0.098
	c0.068-0.042,0.137-0.095,0.207-0.158c0.028-0.023,0.058-0.042,0.091-0.056C8.321,27.189,8.355,27.181,8.39,27.181z M10.394,25.189
	c0.131-0.112,0.272-0.202,0.424-0.269c0.154-0.07,0.337-0.105,0.55-0.105c0.198,0,0.373,0.035,0.525,0.105
	c0.154,0.068,0.284,0.163,0.389,0.287c0.105,0.121,0.184,0.267,0.238,0.438c0.054,0.168,0.08,0.351,0.08,0.55V28.5h-1.085v-2.306
	c0-0.177-0.041-0.315-0.122-0.413c-0.082-0.1-0.202-0.151-0.361-0.151c-0.119,0-0.231,0.026-0.336,0.077
	c-0.103,0.049-0.203,0.117-0.301,0.203v2.59H9.309v-5.24h1.085V25.189z M15.068,27.023c-0.217,0.009-0.396,0.028-0.536,0.056
	c-0.14,0.028-0.251,0.063-0.332,0.105c-0.082,0.042-0.139,0.09-0.172,0.143c-0.03,0.054-0.045,0.112-0.045,0.175
	c0,0.124,0.034,0.211,0.101,0.262c0.068,0.049,0.167,0.073,0.297,0.073c0.14,0,0.263-0.024,0.368-0.073
	c0.105-0.049,0.211-0.128,0.319-0.238V27.023z M13.115,25.375c0.219-0.194,0.462-0.337,0.728-0.431
	c0.268-0.096,0.555-0.143,0.861-0.143c0.219,0,0.417,0.036,0.592,0.108c0.177,0.07,0.327,0.169,0.448,0.297
	c0.124,0.126,0.218,0.277,0.283,0.452c0.065,0.175,0.098,0.366,0.098,0.574V28.5h-0.497c-0.103,0-0.181-0.014-0.234-0.042
	c-0.051-0.028-0.094-0.086-0.13-0.175l-0.077-0.2c-0.091,0.077-0.179,0.145-0.262,0.203s-0.172,0.108-0.262,0.15
	c-0.089,0.04-0.184,0.069-0.287,0.087c-0.1,0.021-0.212,0.031-0.336,0.031c-0.166,0-0.316-0.021-0.451-0.063
	c-0.135-0.044-0.251-0.108-0.347-0.192c-0.093-0.084-0.166-0.188-0.217-0.312c-0.051-0.126-0.077-0.271-0.077-0.434
	c0-0.131,0.033-0.263,0.098-0.396c0.065-0.135,0.179-0.258,0.34-0.368c0.161-0.112,0.378-0.205,0.651-0.28
	c0.273-0.075,0.617-0.117,1.033-0.126v-0.154c0-0.212-0.044-0.365-0.133-0.458c-0.086-0.096-0.21-0.144-0.371-0.144
	c-0.128,0-0.233,0.014-0.315,0.042c-0.082,0.028-0.155,0.059-0.22,0.094c-0.063,0.035-0.125,0.066-0.186,0.094
	c-0.061,0.028-0.133,0.042-0.217,0.042c-0.075,0-0.138-0.019-0.189-0.056c-0.051-0.037-0.093-0.082-0.126-0.133L13.115,25.375z
	 M17.715,25.263c0.07-0.065,0.142-0.126,0.217-0.182c0.075-0.056,0.154-0.103,0.238-0.14c0.086-0.04,0.178-0.07,0.277-0.091
	c0.1-0.023,0.209-0.035,0.325-0.035c0.198,0,0.373,0.035,0.525,0.105c0.154,0.068,0.283,0.163,0.388,0.287
	c0.105,0.121,0.184,0.267,0.238,0.438c0.054,0.168,0.08,0.351,0.08,0.55V28.5h-1.085v-2.306c0-0.177-0.041-0.315-0.123-0.413
	c-0.082-0.1-0.202-0.151-0.36-0.151c-0.119,0-0.231,0.026-0.336,0.077c-0.103,0.049-0.203,0.117-0.301,0.203v2.59h-1.085v-3.629
	h0.672c0.135,0,0.224,0.061,0.266,0.182L17.715,25.263z M25.06,24.437c-0.035,0.056-0.072,0.098-0.112,0.126
	c-0.037,0.028-0.086,0.042-0.147,0.042c-0.054,0-0.112-0.016-0.175-0.049c-0.061-0.035-0.131-0.073-0.21-0.115
	c-0.077-0.042-0.166-0.079-0.266-0.112c-0.1-0.035-0.215-0.052-0.343-0.052c-0.222,0-0.387,0.048-0.497,0.144
	c-0.107,0.093-0.161,0.22-0.161,0.382c0,0.103,0.033,0.188,0.098,0.255c0.065,0.068,0.151,0.126,0.256,0.175
	c0.107,0.049,0.229,0.094,0.364,0.136c0.138,0.04,0.278,0.085,0.42,0.136c0.142,0.049,0.281,0.107,0.417,0.175
	c0.138,0.068,0.259,0.154,0.364,0.259c0.107,0.105,0.194,0.233,0.259,0.385c0.065,0.149,0.098,0.33,0.098,0.542
	c0,0.236-0.041,0.456-0.122,0.662c-0.082,0.205-0.201,0.385-0.357,0.539c-0.154,0.152-0.345,0.272-0.574,0.361
	c-0.226,0.086-0.484,0.129-0.774,0.129c-0.159,0-0.321-0.016-0.486-0.049c-0.163-0.033-0.322-0.078-0.476-0.136
	c-0.154-0.061-0.299-0.132-0.434-0.214c-0.135-0.082-0.253-0.173-0.354-0.273l0.35-0.553c0.028-0.04,0.064-0.072,0.108-0.098
	c0.047-0.028,0.097-0.042,0.15-0.042c0.07,0,0.14,0.022,0.21,0.066c0.072,0.044,0.153,0.093,0.242,0.147
	c0.091,0.054,0.195,0.103,0.311,0.147c0.117,0.044,0.254,0.066,0.413,0.066c0.215,0,0.382-0.047,0.5-0.14
	c0.119-0.096,0.179-0.246,0.179-0.451c0-0.119-0.033-0.216-0.098-0.291c-0.065-0.075-0.152-0.136-0.259-0.185
	c-0.105-0.049-0.225-0.092-0.361-0.13c-0.135-0.037-0.274-0.078-0.417-0.122c-0.142-0.047-0.281-0.103-0.417-0.168
	c-0.135-0.068-0.257-0.155-0.364-0.263c-0.105-0.11-0.19-0.245-0.255-0.406c-0.065-0.163-0.098-0.364-0.098-0.602
	c0-0.191,0.038-0.378,0.115-0.56c0.077-0.182,0.19-0.344,0.34-0.486c0.149-0.142,0.332-0.255,0.549-0.339
	c0.217-0.086,0.465-0.13,0.746-0.13c0.156,0,0.308,0.013,0.455,0.038c0.149,0.023,0.29,0.059,0.424,0.109
	c0.133,0.047,0.257,0.104,0.371,0.171c0.117,0.065,0.221,0.14,0.312,0.224L25.06,24.437z M26.911,27.513
	c0.082,0.089,0.17,0.152,0.266,0.189c0.096,0.037,0.196,0.056,0.301,0.056c0.1,0,0.193-0.02,0.277-0.059s0.156-0.103,0.217-0.189
	c0.063-0.089,0.112-0.203,0.147-0.343s0.052-0.31,0.052-0.511c0-0.191-0.014-0.352-0.042-0.483
	c-0.028-0.131-0.068-0.236-0.119-0.315c-0.049-0.082-0.109-0.14-0.179-0.175c-0.07-0.035-0.148-0.053-0.234-0.053
	c-0.159,0-0.289,0.029-0.392,0.088c-0.103,0.058-0.201,0.143-0.294,0.255V27.513z M26.844,25.319
	c0.142-0.152,0.303-0.275,0.483-0.371c0.182-0.098,0.398-0.147,0.648-0.147c0.189,0,0.364,0.042,0.525,0.126
	c0.161,0.084,0.3,0.205,0.417,0.364c0.117,0.159,0.208,0.353,0.273,0.584c0.068,0.229,0.102,0.489,0.102,0.781
	c0,0.273-0.039,0.525-0.116,0.756c-0.075,0.231-0.181,0.432-0.318,0.602c-0.135,0.17-0.299,0.303-0.49,0.399
	c-0.189,0.096-0.399,0.143-0.63,0.143c-0.189,0-0.348-0.027-0.476-0.08c-0.128-0.054-0.245-0.126-0.35-0.217v1.393h-1.085v-4.781
	h0.672c0.135,0,0.224,0.061,0.266,0.182L26.844,25.319z M30.832,23.26v5.24h-1.085v-5.24H30.832z M32.57,24.871V28.5h-1.085v-3.629
	H32.57z M32.682,23.876c0,0.086-0.018,0.168-0.053,0.245c-0.035,0.075-0.083,0.141-0.143,0.199
	c-0.061,0.056-0.132,0.102-0.214,0.137c-0.079,0.033-0.165,0.049-0.256,0.049c-0.089,0-0.171-0.016-0.248-0.049
	c-0.077-0.035-0.146-0.08-0.207-0.137c-0.058-0.058-0.105-0.125-0.14-0.199c-0.033-0.077-0.049-0.159-0.049-0.245
	c0-0.089,0.016-0.171,0.049-0.248c0.035-0.077,0.082-0.145,0.14-0.203c0.061-0.058,0.13-0.104,0.207-0.136s0.16-0.049,0.248-0.049
	c0.091,0,0.176,0.016,0.256,0.049c0.082,0.033,0.153,0.078,0.214,0.136c0.061,0.058,0.108,0.126,0.143,0.203
	S32.682,23.788,32.682,23.876z M34.52,28.556c-0.173,0-0.326-0.024-0.458-0.073c-0.131-0.051-0.241-0.122-0.333-0.214
	c-0.089-0.093-0.156-0.205-0.203-0.336c-0.047-0.131-0.07-0.277-0.07-0.438v-1.876h-0.308c-0.056,0-0.104-0.017-0.144-0.052
	c-0.04-0.037-0.059-0.091-0.059-0.161v-0.424l0.577-0.112l0.213-0.885c0.028-0.112,0.107-0.168,0.238-0.168h0.567v1.061h0.9v0.742
	h-0.9v1.803c0,0.084,0.02,0.154,0.06,0.21c0.042,0.054,0.102,0.08,0.179,0.08c0.04,0,0.072-0.003,0.098-0.01
	c0.028-0.009,0.051-0.019,0.07-0.028c0.021-0.012,0.04-0.021,0.056-0.028c0.019-0.009,0.04-0.014,0.063-0.014
	c0.033,0,0.058,0.008,0.077,0.024c0.021,0.014,0.042,0.037,0.063,0.07l0.329,0.514c-0.14,0.105-0.297,0.184-0.472,0.238
	C34.888,28.53,34.707,28.556,34.52,28.556z"/>
<g class="st3">
	<rect x="2" y="30.5" width="36" height="1"/>
</g>
<path class="st4" d="M17.919,35.949c0,0.369-0.064,0.709-0.192,1.022c-0.126,0.31-0.305,0.58-0.536,0.808
	c-0.231,0.226-0.51,0.404-0.836,0.532C16.03,38.437,15.67,38.5,15.273,38.5h-1.981v-5.099h1.981c0.397,0,0.757,0.064,1.082,0.192
	c0.327,0.128,0.605,0.306,0.836,0.532c0.231,0.226,0.41,0.496,0.536,0.808C17.855,35.244,17.919,35.582,17.919,35.949z
	 M16.708,35.949c0-0.252-0.033-0.479-0.098-0.683c-0.065-0.203-0.16-0.375-0.284-0.514c-0.121-0.142-0.271-0.251-0.448-0.326
	c-0.177-0.077-0.379-0.115-0.606-0.115h-0.791v3.279h0.791c0.226,0,0.428-0.037,0.606-0.112c0.177-0.077,0.327-0.186,0.448-0.326
	c0.124-0.142,0.218-0.315,0.284-0.518C16.675,36.431,16.708,36.203,16.708,35.949z M21.6,34.87v3.63h-0.672
	c-0.135,0-0.224-0.061-0.266-0.182l-0.063-0.21c-0.07,0.068-0.142,0.129-0.217,0.185c-0.075,0.054-0.155,0.1-0.241,0.14
	c-0.084,0.037-0.176,0.067-0.277,0.088c-0.098,0.023-0.205,0.035-0.322,0.035c-0.198,0-0.374-0.034-0.528-0.102
	c-0.152-0.07-0.28-0.167-0.385-0.29c-0.105-0.124-0.184-0.27-0.238-0.438c-0.054-0.168-0.08-0.352-0.08-0.553V34.87h1.085v2.303
	c0,0.18,0.041,0.319,0.122,0.417c0.082,0.098,0.202,0.147,0.361,0.147c0.119,0,0.23-0.024,0.333-0.073
	c0.105-0.051,0.206-0.12,0.305-0.207V34.87H21.6z M24.105,37.023c-0.217,0.009-0.396,0.028-0.535,0.056s-0.251,0.063-0.333,0.105
	c-0.082,0.042-0.139,0.09-0.171,0.144c-0.03,0.054-0.045,0.112-0.045,0.175c0,0.124,0.034,0.211,0.101,0.263
	c0.068,0.049,0.167,0.074,0.298,0.074c0.14,0,0.262-0.025,0.368-0.074c0.105-0.049,0.211-0.128,0.318-0.238V37.023z M22.152,35.375
	c0.219-0.194,0.462-0.337,0.728-0.431c0.268-0.096,0.555-0.144,0.861-0.144c0.219,0,0.417,0.036,0.592,0.109
	c0.177,0.07,0.327,0.169,0.448,0.298c0.124,0.126,0.218,0.277,0.283,0.451c0.065,0.175,0.098,0.366,0.098,0.574V38.5h-0.497
	c-0.103,0-0.181-0.014-0.235-0.042c-0.051-0.028-0.094-0.086-0.129-0.175l-0.077-0.2c-0.091,0.077-0.179,0.145-0.263,0.203
	s-0.171,0.109-0.263,0.151c-0.089,0.04-0.184,0.069-0.287,0.088c-0.1,0.021-0.212,0.031-0.336,0.031
	c-0.166,0-0.316-0.021-0.451-0.063c-0.135-0.044-0.251-0.109-0.347-0.193c-0.093-0.084-0.166-0.188-0.217-0.312
	c-0.051-0.126-0.077-0.271-0.077-0.434c0-0.131,0.033-0.263,0.098-0.396c0.065-0.135,0.178-0.258,0.339-0.368
	c0.161-0.112,0.378-0.205,0.651-0.28s0.617-0.117,1.032-0.126v-0.154c0-0.212-0.044-0.365-0.133-0.458
	c-0.086-0.096-0.21-0.143-0.371-0.143c-0.128,0-0.233,0.014-0.315,0.042c-0.082,0.028-0.155,0.059-0.22,0.094
	c-0.063,0.035-0.125,0.067-0.186,0.095c-0.061,0.028-0.133,0.042-0.217,0.042c-0.075,0-0.138-0.019-0.189-0.056
	c-0.051-0.037-0.093-0.082-0.126-0.133L22.152,35.375z M26.836,33.261V38.5H25.75v-5.239H26.836z"/>
<path d="M2.5,1h35V0h-35V1z M39,2.5v37h1v-37H39z M37.5,41h-35v1h35V41z M1,39.5v-37H0v37H1z M2.5,41C1.672,41,1,40.328,1,39.5H0
	C0,40.881,1.119,42,2.5,42V41z M39,39.5c0,0.828-0.672,1.5-1.5,1.5v1c1.381,0,2.5-1.119,2.5-2.5H39z M37.5,1
	C38.328,1,39,1.672,39,2.5h1C40,1.119,38.881,0,37.5,0V1z M2.5,0C1.119,0,0,1.119,0,2.5h1C1,1.672,1.672,1,2.5,1V0z"/>
<path class="st0" d="M0.5,44.5c0-1.105,0.895-2,2-2h35c1.105,0,2,0.895,2,2v37c0,1.105-0.895,2-2,2h-35c-1.105,0-2-0.895-2-2V44.5z"
	/>
<path class="st4" d="M14.037,46.437c-0.035,0.056-0.072,0.098-0.112,0.126c-0.037,0.028-0.086,0.042-0.147,0.042
	c-0.054,0-0.112-0.016-0.175-0.049c-0.061-0.035-0.131-0.074-0.21-0.116c-0.077-0.042-0.166-0.079-0.266-0.112
	c-0.1-0.035-0.215-0.052-0.343-0.052c-0.222,0-0.387,0.048-0.497,0.143c-0.107,0.093-0.161,0.221-0.161,0.382
	c0,0.103,0.033,0.188,0.098,0.256c0.065,0.068,0.151,0.126,0.256,0.175c0.107,0.049,0.229,0.095,0.364,0.137
	c0.138,0.04,0.278,0.085,0.42,0.137c0.142,0.049,0.281,0.107,0.417,0.175c0.138,0.068,0.259,0.154,0.364,0.259
	c0.107,0.105,0.194,0.233,0.259,0.385c0.065,0.149,0.098,0.33,0.098,0.542c0,0.236-0.041,0.456-0.122,0.661
	c-0.082,0.205-0.201,0.385-0.357,0.539c-0.154,0.152-0.345,0.272-0.574,0.36c-0.226,0.086-0.484,0.13-0.774,0.13
	c-0.159,0-0.321-0.016-0.486-0.049c-0.163-0.033-0.322-0.078-0.476-0.137c-0.154-0.061-0.299-0.132-0.434-0.213
	c-0.135-0.082-0.253-0.173-0.354-0.273l0.35-0.553c0.028-0.04,0.064-0.072,0.108-0.098c0.047-0.028,0.097-0.042,0.151-0.042
	c0.07,0,0.14,0.022,0.21,0.066c0.072,0.044,0.153,0.093,0.241,0.147c0.091,0.054,0.195,0.103,0.311,0.147
	c0.117,0.044,0.254,0.067,0.413,0.067c0.215,0,0.382-0.047,0.501-0.14c0.119-0.096,0.178-0.246,0.178-0.451
	c0-0.119-0.033-0.216-0.098-0.291c-0.065-0.075-0.152-0.137-0.259-0.186c-0.105-0.049-0.225-0.092-0.361-0.129
	c-0.135-0.037-0.274-0.078-0.417-0.123c-0.142-0.047-0.281-0.103-0.417-0.168c-0.135-0.068-0.257-0.155-0.364-0.263
	c-0.105-0.11-0.19-0.245-0.256-0.406c-0.065-0.163-0.098-0.364-0.098-0.602c0-0.191,0.038-0.378,0.115-0.56
	c0.077-0.182,0.19-0.344,0.34-0.486c0.149-0.142,0.333-0.256,0.55-0.34c0.217-0.086,0.465-0.129,0.745-0.129
	c0.156,0,0.308,0.013,0.455,0.038c0.149,0.023,0.29,0.06,0.424,0.109c0.133,0.047,0.257,0.104,0.371,0.171
	c0.117,0.065,0.22,0.14,0.311,0.224L14.037,46.437z M15.974,46.87v3.63h-1.085v-3.63H15.974z M16.086,45.876
	c0,0.086-0.017,0.168-0.052,0.245c-0.035,0.075-0.083,0.141-0.144,0.2c-0.061,0.056-0.132,0.102-0.214,0.137
	c-0.079,0.033-0.165,0.049-0.255,0.049c-0.089,0-0.172-0.016-0.248-0.049c-0.077-0.035-0.146-0.081-0.207-0.137
	c-0.058-0.058-0.105-0.125-0.14-0.2c-0.033-0.077-0.049-0.159-0.049-0.245c0-0.089,0.016-0.171,0.049-0.249
	c0.035-0.077,0.082-0.145,0.14-0.203c0.061-0.058,0.13-0.104,0.207-0.136c0.077-0.033,0.16-0.049,0.248-0.049
	c0.091,0,0.176,0.016,0.255,0.049c0.082,0.033,0.153,0.078,0.214,0.136c0.061,0.058,0.109,0.126,0.144,0.203
	C16.069,45.705,16.086,45.788,16.086,45.876z M17.627,47.263c0.07-0.065,0.142-0.126,0.217-0.182
	c0.075-0.056,0.154-0.103,0.238-0.14c0.086-0.04,0.178-0.07,0.277-0.091c0.1-0.023,0.209-0.035,0.325-0.035
	c0.198,0,0.373,0.035,0.525,0.105c0.154,0.068,0.283,0.163,0.389,0.287c0.105,0.121,0.184,0.267,0.238,0.438
	c0.054,0.168,0.08,0.351,0.08,0.549V50.5h-1.085v-2.306c0-0.177-0.041-0.315-0.123-0.413c-0.082-0.1-0.202-0.15-0.36-0.15
	c-0.119,0-0.231,0.026-0.336,0.077c-0.103,0.049-0.203,0.117-0.301,0.203v2.59h-1.085v-3.63h0.672c0.135,0,0.224,0.061,0.266,0.182
	L17.627,47.263z M21.896,48.494c0.18,0,0.309-0.044,0.389-0.133c0.082-0.091,0.122-0.208,0.122-0.35
	c0-0.147-0.041-0.263-0.122-0.347c-0.079-0.084-0.209-0.126-0.389-0.126c-0.18,0-0.31,0.042-0.392,0.126
	c-0.079,0.084-0.119,0.199-0.119,0.347c0,0.07,0.009,0.134,0.028,0.192c0.021,0.058,0.052,0.11,0.094,0.154
	c0.042,0.042,0.094,0.076,0.157,0.101C21.73,48.483,21.807,48.494,21.896,48.494z M22.736,50.633c0-0.086-0.038-0.148-0.116-0.186
	c-0.077-0.04-0.177-0.068-0.301-0.084c-0.124-0.016-0.263-0.026-0.417-0.028c-0.152-0.005-0.303-0.014-0.455-0.028
	c-0.068,0.047-0.124,0.099-0.168,0.158c-0.042,0.056-0.063,0.12-0.063,0.193c0,0.051,0.01,0.098,0.031,0.14
	c0.023,0.042,0.063,0.078,0.119,0.108c0.056,0.03,0.131,0.054,0.224,0.07c0.096,0.019,0.216,0.028,0.361,0.028
	c0.156,0,0.285-0.009,0.385-0.028c0.1-0.019,0.18-0.044,0.238-0.077c0.061-0.033,0.103-0.072,0.126-0.119
	C22.724,50.736,22.736,50.687,22.736,50.633z M23.807,46.982v0.396c0,0.061-0.017,0.109-0.052,0.144
	c-0.033,0.035-0.09,0.062-0.171,0.081l-0.263,0.059c0.014,0.051,0.024,0.104,0.031,0.158c0.009,0.054,0.014,0.11,0.014,0.168
	c0,0.182-0.038,0.345-0.115,0.49c-0.075,0.145-0.179,0.268-0.312,0.371c-0.131,0.1-0.286,0.179-0.465,0.235
	c-0.18,0.054-0.372,0.08-0.577,0.08c-0.056,0-0.111-0.001-0.165-0.003c-0.054-0.005-0.106-0.012-0.157-0.021
	c-0.079,0.049-0.119,0.104-0.119,0.165c0,0.061,0.033,0.105,0.098,0.133c0.065,0.026,0.152,0.044,0.259,0.056
	c0.107,0.009,0.229,0.016,0.364,0.021c0.138,0.002,0.278,0.01,0.42,0.024c0.142,0.012,0.281,0.033,0.417,0.063
	c0.138,0.03,0.26,0.079,0.368,0.147c0.107,0.068,0.194,0.159,0.259,0.273c0.065,0.112,0.098,0.256,0.098,0.431
	c0,0.163-0.04,0.323-0.119,0.479c-0.079,0.156-0.196,0.295-0.35,0.417s-0.343,0.218-0.567,0.291
	c-0.224,0.075-0.481,0.112-0.77,0.112c-0.285,0-0.531-0.027-0.739-0.081c-0.205-0.054-0.377-0.125-0.514-0.213
	c-0.135-0.086-0.236-0.187-0.301-0.301c-0.065-0.114-0.098-0.233-0.098-0.357c0-0.161,0.047-0.295,0.14-0.403
	c0.093-0.107,0.224-0.194,0.392-0.259c-0.089-0.054-0.159-0.123-0.21-0.207c-0.051-0.084-0.077-0.193-0.077-0.326
	c0-0.054,0.009-0.11,0.028-0.168c0.019-0.061,0.048-0.119,0.087-0.175c0.042-0.058,0.093-0.113,0.154-0.165
	c0.061-0.051,0.133-0.097,0.217-0.137c-0.189-0.1-0.338-0.232-0.448-0.396c-0.11-0.166-0.165-0.358-0.165-0.577
	c0-0.182,0.038-0.345,0.116-0.49c0.077-0.147,0.182-0.271,0.315-0.371c0.135-0.103,0.294-0.181,0.476-0.235
	c0.182-0.056,0.379-0.084,0.592-0.084c0.308,0,0.581,0.058,0.819,0.175H23.807z M25.239,45.261V50.5h-1.085v-5.239H25.239z
	 M28.125,48.25c0-0.086-0.012-0.17-0.035-0.252c-0.021-0.082-0.057-0.154-0.108-0.217c-0.049-0.065-0.114-0.118-0.196-0.157
	s-0.181-0.06-0.298-0.06c-0.205,0-0.366,0.06-0.483,0.179c-0.117,0.117-0.194,0.286-0.231,0.507H28.125z M26.76,48.88
	c0.035,0.303,0.127,0.524,0.276,0.661c0.149,0.135,0.342,0.203,0.578,0.203c0.126,0,0.234-0.015,0.325-0.045
	c0.091-0.03,0.172-0.064,0.242-0.102c0.072-0.037,0.138-0.071,0.196-0.102c0.061-0.03,0.124-0.045,0.189-0.045
	c0.086,0,0.152,0.031,0.196,0.094l0.315,0.389c-0.112,0.128-0.233,0.233-0.364,0.315c-0.128,0.079-0.261,0.142-0.399,0.189
	c-0.135,0.044-0.272,0.075-0.41,0.091c-0.135,0.019-0.265,0.028-0.389,0.028c-0.254,0-0.493-0.041-0.717-0.123
	c-0.222-0.084-0.417-0.208-0.585-0.371c-0.166-0.163-0.297-0.366-0.395-0.609c-0.096-0.243-0.144-0.525-0.144-0.847
	c0-0.243,0.041-0.472,0.123-0.689c0.084-0.217,0.203-0.407,0.357-0.57c0.156-0.163,0.344-0.293,0.564-0.389
	c0.222-0.096,0.471-0.144,0.749-0.144c0.24,0,0.46,0.037,0.658,0.112c0.201,0.075,0.372,0.183,0.514,0.326
	c0.145,0.142,0.257,0.317,0.336,0.525c0.082,0.205,0.122,0.439,0.122,0.7c0,0.082-0.003,0.148-0.01,0.199s-0.02,0.092-0.038,0.123
	s-0.044,0.051-0.077,0.063c-0.03,0.012-0.07,0.018-0.119,0.018H26.76z"/>
<g class="st3">
	<rect x="2" y="52.5" width="36" height="1"/>
</g>
<path class="st1" d="M3.5,54h33c0.552,0,1,0.448,1,1v6c0,0.552-0.448,1-1,1h-33c-0.552,0-1-0.448-1-1v-6C2.5,54.448,2.948,54,3.5,54
	z"/>
<path class="st2" d="M3.5,54h33c0.552,0,1,0.448,1,1v6c0,0.552-0.448,1-1,1h-33c-0.552,0-1-0.448-1-1v-6C2.5,54.448,2.948,54,3.5,54
	z"/>
<path d="M8.213,57.465h0.189c0.175,0,0.301-0.055,0.378-0.165l1.148-1.666c0.068-0.089,0.14-0.149,0.217-0.182
	c0.079-0.035,0.177-0.052,0.294-0.052h1.029l-1.512,2.062c-0.107,0.142-0.223,0.245-0.347,0.308
	c0.089,0.033,0.169,0.078,0.241,0.137c0.072,0.058,0.14,0.134,0.203,0.227l1.54,2.366h-1.057c-0.068,0-0.126-0.005-0.175-0.014
	c-0.047-0.009-0.087-0.023-0.123-0.042c-0.035-0.019-0.065-0.041-0.091-0.067c-0.026-0.028-0.05-0.059-0.073-0.094L8.92,58.508
	c-0.042-0.065-0.096-0.111-0.161-0.136C8.696,58.344,8.609,58.33,8.5,58.33H8.213v2.17H7.03v-5.099h1.183V57.465z M13.746,58.25
	c0-0.086-0.012-0.17-0.035-0.252c-0.021-0.082-0.057-0.154-0.109-0.217c-0.049-0.065-0.114-0.118-0.196-0.157
	c-0.082-0.04-0.181-0.06-0.298-0.06c-0.205,0-0.366,0.06-0.483,0.179c-0.117,0.117-0.194,0.286-0.231,0.507H13.746z M12.381,58.88
	c0.035,0.303,0.127,0.524,0.276,0.661c0.149,0.135,0.342,0.203,0.578,0.203c0.126,0,0.234-0.015,0.325-0.045
	c0.091-0.03,0.172-0.064,0.241-0.102c0.072-0.037,0.138-0.071,0.196-0.102c0.061-0.03,0.124-0.045,0.189-0.045
	c0.086,0,0.152,0.031,0.196,0.094l0.315,0.389c-0.112,0.128-0.233,0.233-0.364,0.315c-0.128,0.079-0.261,0.142-0.399,0.189
	c-0.135,0.044-0.272,0.075-0.41,0.091c-0.135,0.019-0.265,0.028-0.389,0.028c-0.254,0-0.493-0.041-0.717-0.123
	c-0.222-0.084-0.417-0.208-0.585-0.371c-0.166-0.163-0.297-0.366-0.395-0.609c-0.096-0.243-0.144-0.525-0.144-0.847
	c0-0.243,0.041-0.472,0.122-0.689c0.084-0.217,0.203-0.407,0.357-0.57c0.156-0.163,0.344-0.293,0.564-0.389
	c0.222-0.096,0.471-0.144,0.749-0.144c0.24,0,0.46,0.037,0.658,0.112c0.201,0.075,0.372,0.183,0.514,0.326
	c0.145,0.142,0.257,0.317,0.336,0.525c0.082,0.205,0.123,0.439,0.123,0.7c0,0.082-0.003,0.148-0.01,0.199
	c-0.007,0.051-0.02,0.092-0.039,0.123c-0.019,0.03-0.044,0.051-0.077,0.063c-0.03,0.012-0.07,0.018-0.119,0.018H12.381z
	 M18.488,56.87l-1.939,4.571c-0.033,0.072-0.072,0.125-0.119,0.157c-0.047,0.035-0.121,0.053-0.224,0.053h-0.812l0.7-1.47
	l-1.449-3.311h0.959c0.084,0,0.148,0.019,0.193,0.056c0.047,0.037,0.08,0.082,0.101,0.133l0.595,1.564
	c0.056,0.142,0.101,0.288,0.136,0.438c0.026-0.075,0.051-0.149,0.077-0.224c0.026-0.075,0.052-0.148,0.08-0.221l0.539-1.557
	c0.021-0.054,0.058-0.098,0.112-0.133c0.054-0.037,0.112-0.056,0.175-0.056H18.488z M22.983,56.437
	c-0.035,0.056-0.072,0.098-0.112,0.126c-0.037,0.028-0.086,0.042-0.147,0.042c-0.054,0-0.112-0.016-0.175-0.049
	c-0.061-0.035-0.131-0.074-0.21-0.116c-0.077-0.042-0.166-0.079-0.266-0.112c-0.1-0.035-0.215-0.052-0.343-0.052
	c-0.222,0-0.387,0.048-0.497,0.143c-0.107,0.093-0.161,0.221-0.161,0.382c0,0.103,0.033,0.188,0.098,0.256
	c0.065,0.068,0.15,0.126,0.255,0.175c0.107,0.049,0.229,0.095,0.364,0.137c0.138,0.04,0.278,0.085,0.42,0.137
	c0.142,0.049,0.281,0.107,0.417,0.175c0.138,0.068,0.259,0.154,0.364,0.259c0.107,0.105,0.194,0.233,0.259,0.385
	c0.065,0.149,0.098,0.33,0.098,0.542c0,0.236-0.041,0.456-0.123,0.661c-0.082,0.205-0.201,0.385-0.357,0.539
	c-0.154,0.152-0.345,0.272-0.574,0.36c-0.226,0.086-0.484,0.13-0.774,0.13c-0.159,0-0.321-0.016-0.486-0.049
	c-0.163-0.033-0.322-0.078-0.476-0.137c-0.154-0.061-0.299-0.132-0.434-0.213c-0.135-0.082-0.253-0.173-0.354-0.273l0.35-0.553
	c0.028-0.04,0.064-0.072,0.108-0.098c0.047-0.028,0.097-0.042,0.151-0.042c0.07,0,0.14,0.022,0.21,0.066
	c0.072,0.044,0.153,0.093,0.242,0.147c0.091,0.054,0.195,0.103,0.311,0.147c0.117,0.044,0.254,0.067,0.413,0.067
	c0.215,0,0.382-0.047,0.501-0.14c0.119-0.096,0.178-0.246,0.178-0.451c0-0.119-0.033-0.216-0.098-0.291
	c-0.065-0.075-0.152-0.137-0.259-0.186c-0.105-0.049-0.225-0.092-0.361-0.129c-0.135-0.037-0.274-0.078-0.417-0.123
	c-0.142-0.047-0.281-0.103-0.417-0.168c-0.135-0.068-0.257-0.155-0.364-0.263c-0.105-0.11-0.19-0.245-0.256-0.406
	c-0.065-0.163-0.098-0.364-0.098-0.602c0-0.191,0.038-0.378,0.115-0.56s0.19-0.344,0.34-0.486c0.149-0.142,0.333-0.256,0.549-0.34
	c0.217-0.086,0.465-0.129,0.746-0.129c0.156,0,0.308,0.013,0.455,0.038c0.149,0.023,0.29,0.06,0.424,0.109
	c0.133,0.047,0.257,0.104,0.371,0.171c0.117,0.065,0.22,0.14,0.311,0.224L22.983,56.437z M24.834,59.513
	c0.082,0.089,0.17,0.152,0.266,0.189c0.096,0.037,0.196,0.056,0.301,0.056c0.1,0,0.192-0.02,0.276-0.059
	c0.084-0.04,0.156-0.103,0.217-0.189c0.063-0.089,0.112-0.203,0.147-0.343s0.052-0.31,0.052-0.511c0-0.191-0.014-0.352-0.042-0.483
	s-0.068-0.236-0.119-0.315c-0.049-0.082-0.108-0.14-0.179-0.175c-0.07-0.035-0.148-0.052-0.234-0.052
	c-0.159,0-0.289,0.029-0.392,0.087c-0.103,0.058-0.201,0.144-0.294,0.256V59.513z M24.767,57.319
	c0.142-0.152,0.303-0.275,0.483-0.371c0.182-0.098,0.398-0.147,0.648-0.147c0.189,0,0.364,0.042,0.525,0.126
	c0.161,0.084,0.3,0.205,0.417,0.364c0.117,0.159,0.208,0.354,0.273,0.584c0.068,0.229,0.101,0.489,0.101,0.78
	c0,0.273-0.038,0.525-0.115,0.756c-0.075,0.231-0.181,0.432-0.319,0.602c-0.135,0.17-0.299,0.303-0.49,0.399
	c-0.189,0.096-0.399,0.144-0.63,0.144c-0.189,0-0.348-0.027-0.476-0.081c-0.128-0.054-0.245-0.126-0.35-0.217v1.393h-1.085V56.87
	h0.672c0.135,0,0.224,0.061,0.266,0.182L24.767,57.319z M28.755,55.261V60.5H27.67v-5.239H28.755z M30.493,56.87v3.63h-1.085v-3.63
	H30.493z M30.605,55.876c0,0.086-0.017,0.168-0.052,0.245c-0.035,0.075-0.083,0.141-0.144,0.2c-0.061,0.056-0.132,0.102-0.213,0.137
	c-0.079,0.033-0.165,0.049-0.256,0.049c-0.089,0-0.171-0.016-0.248-0.049c-0.077-0.035-0.146-0.081-0.207-0.137
	c-0.058-0.058-0.105-0.125-0.14-0.2c-0.033-0.077-0.049-0.159-0.049-0.245c0-0.089,0.016-0.171,0.049-0.249
	c0.035-0.077,0.082-0.145,0.14-0.203c0.061-0.058,0.129-0.104,0.207-0.136c0.077-0.033,0.16-0.049,0.248-0.049
	c0.091,0,0.176,0.016,0.256,0.049c0.082,0.033,0.153,0.078,0.213,0.136c0.061,0.058,0.108,0.126,0.144,0.203
	C30.588,55.705,30.605,55.788,30.605,55.876z M32.443,60.556c-0.173,0-0.325-0.024-0.458-0.074
	c-0.131-0.051-0.242-0.122-0.333-0.213c-0.089-0.093-0.156-0.205-0.203-0.336c-0.047-0.131-0.07-0.276-0.07-0.438v-1.876h-0.308
	c-0.056,0-0.104-0.017-0.144-0.052c-0.04-0.037-0.059-0.091-0.059-0.161v-0.424l0.578-0.112l0.213-0.885
	c0.028-0.112,0.107-0.168,0.238-0.168h0.567v1.06h0.9v0.742h-0.9v1.803c0,0.084,0.02,0.154,0.06,0.21
	c0.042,0.054,0.102,0.081,0.179,0.081c0.04,0,0.072-0.004,0.098-0.011c0.028-0.009,0.051-0.019,0.07-0.028
	c0.021-0.012,0.04-0.021,0.056-0.028c0.019-0.009,0.04-0.014,0.063-0.014c0.033,0,0.058,0.008,0.077,0.025
	c0.021,0.014,0.042,0.037,0.063,0.07l0.329,0.514c-0.14,0.105-0.298,0.184-0.472,0.238C32.811,60.53,32.63,60.556,32.443,60.556z"/>
<g class="st3">
	<rect x="2" y="62.5" width="36" height="1"/>
</g>
<path class="st4" d="M8.39,69.18c0.028,0,0.056,0.006,0.084,0.018c0.028,0.009,0.055,0.027,0.081,0.053l0.469,0.493
	c-0.205,0.268-0.463,0.471-0.774,0.609c-0.308,0.135-0.673,0.203-1.095,0.203c-0.387,0-0.735-0.065-1.043-0.196
	c-0.306-0.133-0.566-0.315-0.78-0.546c-0.212-0.233-0.376-0.509-0.49-0.826c-0.114-0.32-0.171-0.666-0.171-1.039
	c0-0.38,0.062-0.729,0.185-1.047c0.124-0.32,0.298-0.595,0.522-0.826c0.224-0.231,0.492-0.411,0.805-0.539
	c0.313-0.128,0.657-0.193,1.032-0.193c0.191,0,0.371,0.018,0.539,0.053c0.17,0.033,0.329,0.079,0.476,0.14
	c0.147,0.058,0.282,0.129,0.406,0.214c0.124,0.084,0.233,0.175,0.329,0.273l-0.399,0.535c-0.026,0.033-0.056,0.063-0.091,0.091
	c-0.035,0.026-0.084,0.038-0.147,0.038c-0.042,0-0.082-0.009-0.119-0.028c-0.037-0.019-0.077-0.041-0.119-0.066
	C8.047,66.566,8,66.537,7.949,66.507C7.9,66.474,7.84,66.445,7.77,66.419c-0.068-0.028-0.148-0.051-0.241-0.07
	c-0.091-0.019-0.198-0.028-0.322-0.028c-0.196,0-0.376,0.036-0.539,0.108c-0.161,0.072-0.301,0.179-0.42,0.319
	c-0.117,0.138-0.208,0.308-0.273,0.511c-0.063,0.201-0.095,0.43-0.095,0.689c0,0.261,0.035,0.493,0.105,0.696
	c0.072,0.203,0.169,0.375,0.29,0.515c0.124,0.138,0.267,0.243,0.431,0.315c0.163,0.072,0.338,0.108,0.525,0.108
	c0.107,0,0.205-0.005,0.294-0.014c0.089-0.012,0.171-0.029,0.248-0.052c0.077-0.026,0.149-0.058,0.217-0.098
	c0.068-0.042,0.137-0.095,0.207-0.158c0.028-0.023,0.058-0.042,0.091-0.056C8.321,69.189,8.355,69.18,8.39,69.18z M10.394,67.189
	c0.131-0.112,0.272-0.202,0.424-0.27c0.154-0.07,0.337-0.105,0.55-0.105c0.198,0,0.373,0.035,0.525,0.105
	c0.154,0.068,0.284,0.163,0.389,0.287c0.105,0.121,0.184,0.267,0.238,0.438c0.054,0.168,0.08,0.351,0.08,0.549V70.5h-1.085v-2.307
	c0-0.177-0.041-0.315-0.122-0.413c-0.082-0.1-0.202-0.151-0.361-0.151c-0.119,0-0.231,0.026-0.336,0.077
	c-0.103,0.049-0.203,0.117-0.301,0.203v2.59H9.309v-5.24h1.085V67.189z M15.068,69.023c-0.217,0.009-0.396,0.028-0.536,0.056
	c-0.14,0.028-0.251,0.063-0.332,0.105c-0.082,0.042-0.139,0.09-0.172,0.144c-0.03,0.054-0.045,0.112-0.045,0.175
	c0,0.124,0.034,0.211,0.101,0.262c0.068,0.049,0.167,0.074,0.297,0.074c0.14,0,0.263-0.024,0.368-0.074
	c0.105-0.049,0.211-0.128,0.319-0.238V69.023z M13.115,67.374c0.219-0.194,0.462-0.337,0.728-0.43
	c0.268-0.096,0.555-0.144,0.861-0.144c0.219,0,0.417,0.036,0.592,0.108c0.177,0.07,0.327,0.169,0.448,0.298
	c0.124,0.126,0.218,0.277,0.283,0.451c0.065,0.175,0.098,0.366,0.098,0.574V70.5h-0.497c-0.103,0-0.181-0.014-0.234-0.042
	c-0.051-0.028-0.094-0.086-0.13-0.175l-0.077-0.199c-0.091,0.077-0.179,0.145-0.262,0.203c-0.084,0.058-0.172,0.108-0.262,0.15
	c-0.089,0.04-0.184,0.069-0.287,0.088c-0.1,0.021-0.212,0.032-0.336,0.032c-0.166,0-0.316-0.021-0.451-0.063
	c-0.135-0.044-0.251-0.108-0.347-0.192c-0.093-0.084-0.166-0.188-0.217-0.312c-0.051-0.126-0.077-0.271-0.077-0.434
	c0-0.131,0.033-0.262,0.098-0.396c0.065-0.135,0.179-0.258,0.34-0.368c0.161-0.112,0.378-0.205,0.651-0.28s0.617-0.117,1.033-0.126
	v-0.154c0-0.212-0.044-0.365-0.133-0.459c-0.086-0.096-0.21-0.144-0.371-0.144c-0.128,0-0.233,0.014-0.315,0.042
	c-0.082,0.028-0.155,0.06-0.22,0.095c-0.063,0.035-0.125,0.066-0.186,0.094c-0.061,0.028-0.133,0.042-0.217,0.042
	c-0.075,0-0.138-0.019-0.189-0.056c-0.051-0.037-0.093-0.082-0.126-0.133L13.115,67.374z M17.715,67.262
	c0.07-0.065,0.142-0.126,0.217-0.182c0.075-0.056,0.154-0.103,0.238-0.14c0.086-0.04,0.178-0.07,0.277-0.091
	c0.1-0.023,0.209-0.035,0.325-0.035c0.198,0,0.373,0.035,0.525,0.105c0.154,0.068,0.283,0.163,0.388,0.287
	c0.105,0.121,0.184,0.267,0.238,0.438c0.054,0.168,0.08,0.351,0.08,0.549V70.5h-1.085v-2.307c0-0.177-0.041-0.315-0.123-0.413
	c-0.082-0.1-0.202-0.151-0.36-0.151c-0.119,0-0.231,0.026-0.336,0.077c-0.103,0.049-0.203,0.117-0.301,0.203v2.59h-1.085v-3.63
	h0.672c0.135,0,0.224,0.061,0.266,0.182L17.715,67.262z M25.06,66.437c-0.035,0.056-0.072,0.098-0.112,0.126
	c-0.037,0.028-0.086,0.042-0.147,0.042c-0.054,0-0.112-0.016-0.175-0.049c-0.061-0.035-0.131-0.073-0.21-0.115
	c-0.077-0.042-0.166-0.079-0.266-0.112c-0.1-0.035-0.215-0.053-0.343-0.053c-0.222,0-0.387,0.048-0.497,0.144
	c-0.107,0.093-0.161,0.221-0.161,0.382c0,0.103,0.033,0.188,0.098,0.256c0.065,0.068,0.151,0.126,0.256,0.175
	c0.107,0.049,0.229,0.094,0.364,0.136c0.138,0.04,0.278,0.085,0.42,0.136c0.142,0.049,0.281,0.107,0.417,0.175
	c0.138,0.068,0.259,0.154,0.364,0.259c0.107,0.105,0.194,0.233,0.259,0.385c0.065,0.149,0.098,0.33,0.098,0.543
	c0,0.236-0.041,0.456-0.122,0.661c-0.082,0.205-0.201,0.385-0.357,0.539c-0.154,0.152-0.345,0.272-0.574,0.36
	c-0.226,0.086-0.484,0.13-0.774,0.13c-0.159,0-0.321-0.016-0.486-0.049c-0.163-0.033-0.322-0.078-0.476-0.137
	c-0.154-0.061-0.299-0.132-0.434-0.214c-0.135-0.082-0.253-0.173-0.354-0.273l0.35-0.553c0.028-0.04,0.064-0.072,0.108-0.098
	c0.047-0.028,0.097-0.042,0.15-0.042c0.07,0,0.14,0.022,0.21,0.066c0.072,0.044,0.153,0.093,0.242,0.147
	c0.091,0.054,0.195,0.103,0.311,0.147c0.117,0.044,0.254,0.066,0.413,0.066c0.215,0,0.382-0.047,0.5-0.14
	c0.119-0.096,0.179-0.246,0.179-0.451c0-0.119-0.033-0.216-0.098-0.29c-0.065-0.075-0.152-0.136-0.259-0.186
	c-0.105-0.049-0.225-0.092-0.361-0.13c-0.135-0.037-0.274-0.078-0.417-0.122c-0.142-0.047-0.281-0.103-0.417-0.168
	c-0.135-0.068-0.257-0.155-0.364-0.263c-0.105-0.11-0.19-0.245-0.255-0.406c-0.065-0.163-0.098-0.364-0.098-0.602
	c0-0.191,0.038-0.378,0.115-0.56c0.077-0.182,0.19-0.344,0.34-0.487c0.149-0.142,0.332-0.256,0.549-0.34
	c0.217-0.086,0.465-0.13,0.746-0.13c0.156,0,0.308,0.013,0.455,0.039c0.149,0.023,0.29,0.059,0.424,0.108
	c0.133,0.047,0.257,0.104,0.371,0.172c0.117,0.065,0.221,0.14,0.312,0.224L25.06,66.437z M26.911,69.513
	c0.082,0.089,0.17,0.152,0.266,0.189c0.096,0.037,0.196,0.056,0.301,0.056c0.1,0,0.193-0.02,0.277-0.06
	c0.084-0.04,0.156-0.103,0.217-0.189c0.063-0.089,0.112-0.203,0.147-0.343c0.035-0.14,0.052-0.31,0.052-0.511
	c0-0.191-0.014-0.352-0.042-0.483s-0.068-0.236-0.119-0.315c-0.049-0.082-0.109-0.14-0.179-0.175
	c-0.07-0.035-0.148-0.053-0.234-0.053c-0.159,0-0.289,0.029-0.392,0.088c-0.103,0.058-0.201,0.144-0.294,0.256V69.513z
	 M26.844,67.318c0.142-0.152,0.303-0.275,0.483-0.371c0.182-0.098,0.398-0.147,0.648-0.147c0.189,0,0.364,0.042,0.525,0.126
	c0.161,0.084,0.3,0.205,0.417,0.364c0.117,0.159,0.208,0.354,0.273,0.585c0.068,0.229,0.102,0.489,0.102,0.781
	c0,0.273-0.039,0.525-0.116,0.756c-0.075,0.231-0.181,0.432-0.318,0.602c-0.135,0.17-0.299,0.303-0.49,0.399
	c-0.189,0.096-0.399,0.144-0.63,0.144c-0.189,0-0.348-0.027-0.476-0.08c-0.128-0.054-0.245-0.126-0.35-0.217v1.393h-1.085V66.87
	h0.672c0.135,0,0.224,0.061,0.266,0.182L26.844,67.318z M30.832,65.26v5.24h-1.085v-5.24H30.832z M32.57,66.87v3.63h-1.085v-3.63
	H32.57z M32.682,65.877c0,0.086-0.018,0.168-0.053,0.245c-0.035,0.075-0.083,0.141-0.143,0.2c-0.061,0.056-0.132,0.102-0.214,0.136
	c-0.079,0.033-0.165,0.049-0.256,0.049c-0.089,0-0.171-0.016-0.248-0.049c-0.077-0.035-0.146-0.08-0.207-0.136
	c-0.058-0.058-0.105-0.125-0.14-0.2c-0.033-0.077-0.049-0.159-0.049-0.245c0-0.089,0.016-0.172,0.049-0.249
	c0.035-0.077,0.082-0.145,0.14-0.203c0.061-0.058,0.13-0.104,0.207-0.137s0.16-0.049,0.248-0.049c0.091,0,0.176,0.016,0.256,0.049
	c0.082,0.033,0.153,0.078,0.214,0.137c0.061,0.058,0.108,0.126,0.143,0.203C32.664,65.705,32.682,65.788,32.682,65.877z
	 M34.52,70.556c-0.173,0-0.326-0.024-0.458-0.074c-0.131-0.051-0.241-0.122-0.333-0.214c-0.089-0.093-0.156-0.205-0.203-0.336
	c-0.047-0.131-0.07-0.276-0.07-0.438v-1.876h-0.308c-0.056,0-0.104-0.018-0.144-0.052c-0.04-0.037-0.059-0.091-0.059-0.161v-0.424
	l0.577-0.112l0.213-0.885c0.028-0.112,0.107-0.168,0.238-0.168h0.567v1.061h0.9v0.742h-0.9v1.802c0,0.084,0.02,0.154,0.06,0.21
	c0.042,0.054,0.102,0.08,0.179,0.08c0.04,0,0.072-0.004,0.098-0.01c0.028-0.009,0.051-0.019,0.07-0.028
	c0.021-0.012,0.04-0.021,0.056-0.028c0.019-0.009,0.04-0.014,0.063-0.014c0.033,0,0.058,0.008,0.077,0.024
	c0.021,0.014,0.042,0.037,0.063,0.07l0.329,0.514c-0.14,0.105-0.297,0.184-0.472,0.238C34.888,70.53,34.707,70.556,34.52,70.556z"/>
<g class="st3">
	<rect x="2" y="72.5" width="36" height="1"/>
</g>
<path class="st4" d="M17.919,77.949c0,0.369-0.064,0.709-0.192,1.022c-0.126,0.31-0.305,0.58-0.536,0.809
	c-0.231,0.226-0.51,0.404-0.836,0.532C16.03,80.437,15.67,80.5,15.273,80.5h-1.981v-5.1h1.981c0.397,0,0.757,0.064,1.082,0.193
	c0.327,0.128,0.605,0.306,0.836,0.532c0.231,0.226,0.41,0.496,0.536,0.809C17.855,77.244,17.919,77.582,17.919,77.949z
	 M16.708,77.949c0-0.252-0.033-0.479-0.098-0.683c-0.065-0.203-0.16-0.374-0.284-0.514c-0.121-0.142-0.271-0.251-0.448-0.326
	c-0.177-0.077-0.379-0.116-0.606-0.116h-0.791v3.279h0.791c0.226,0,0.428-0.037,0.606-0.112c0.177-0.077,0.327-0.185,0.448-0.326
	c0.124-0.142,0.218-0.315,0.284-0.518C16.675,78.432,16.708,78.203,16.708,77.949z M21.6,76.87v3.63h-0.672
	c-0.135,0-0.224-0.061-0.266-0.182l-0.063-0.21c-0.07,0.068-0.142,0.13-0.217,0.186c-0.075,0.054-0.155,0.1-0.241,0.14
	c-0.084,0.037-0.176,0.066-0.277,0.088c-0.098,0.023-0.205,0.035-0.322,0.035c-0.198,0-0.374-0.034-0.528-0.102
	c-0.152-0.07-0.28-0.167-0.385-0.29c-0.105-0.124-0.184-0.27-0.238-0.438c-0.054-0.168-0.08-0.352-0.08-0.553V76.87h1.085v2.303
	c0,0.18,0.041,0.318,0.122,0.416c0.082,0.098,0.202,0.147,0.361,0.147c0.119,0,0.23-0.024,0.333-0.074
	c0.105-0.051,0.206-0.12,0.305-0.206V76.87H21.6z M24.105,79.023c-0.217,0.009-0.396,0.028-0.535,0.056s-0.251,0.063-0.333,0.105
	c-0.082,0.042-0.139,0.09-0.171,0.144c-0.03,0.054-0.045,0.112-0.045,0.175c0,0.124,0.034,0.211,0.101,0.262
	c0.068,0.049,0.167,0.074,0.298,0.074c0.14,0,0.262-0.024,0.368-0.074c0.105-0.049,0.211-0.128,0.318-0.238V79.023z M22.152,77.374
	c0.219-0.194,0.462-0.337,0.728-0.43c0.268-0.096,0.555-0.144,0.861-0.144c0.219,0,0.417,0.036,0.592,0.108
	c0.177,0.07,0.327,0.169,0.448,0.298c0.124,0.126,0.218,0.277,0.283,0.451c0.065,0.175,0.098,0.366,0.098,0.574V80.5h-0.497
	c-0.103,0-0.181-0.014-0.235-0.042c-0.051-0.028-0.094-0.086-0.129-0.175l-0.077-0.199c-0.091,0.077-0.179,0.145-0.263,0.203
	c-0.084,0.058-0.171,0.108-0.263,0.15c-0.089,0.04-0.184,0.069-0.287,0.088c-0.1,0.021-0.212,0.032-0.336,0.032
	c-0.166,0-0.316-0.021-0.451-0.063c-0.135-0.044-0.251-0.108-0.347-0.192c-0.093-0.084-0.166-0.188-0.217-0.312
	c-0.051-0.126-0.077-0.271-0.077-0.434c0-0.131,0.033-0.262,0.098-0.396c0.065-0.135,0.178-0.258,0.339-0.368
	c0.161-0.112,0.378-0.205,0.651-0.28s0.617-0.117,1.032-0.126v-0.154c0-0.212-0.044-0.365-0.133-0.459
	c-0.086-0.096-0.21-0.144-0.371-0.144c-0.128,0-0.233,0.014-0.315,0.042c-0.082,0.028-0.155,0.06-0.22,0.095
	c-0.063,0.035-0.125,0.066-0.186,0.094c-0.061,0.028-0.133,0.042-0.217,0.042c-0.075,0-0.138-0.019-0.189-0.056
	c-0.051-0.037-0.093-0.082-0.126-0.133L22.152,77.374z M26.836,75.26v5.24H25.75v-5.24H26.836z"/>
<path d="M2.5,43h35v-1h-35V43z M39,44.5v37h1v-37H39z M37.5,83h-35v1h35V83z M1,81.5v-37H0v37H1z M2.5,83C1.672,83,1,82.328,1,81.5
	H0C0,82.881,1.119,84,2.5,84V83z M39,81.5c0,0.828-0.672,1.5-1.5,1.5v1c1.381,0,2.5-1.119,2.5-2.5H39z M37.5,43
	c0.828,0,1.5,0.672,1.5,1.5h1c0-1.381-1.119-2.5-2.5-2.5V43z M2.5,42C1.119,42,0,43.119,0,44.5h1C1,43.672,1.672,43,2.5,43V42z"/>
<path class="st0" d="M0.5,86.5c0-1.105,0.895-2,2-2h35c1.105,0,2,0.895,2,2v37c0,1.105-0.895,2-2,2h-35c-1.105,0-2-0.895-2-2V86.5z"
	/>
<path class="st4" d="M14.037,88.437c-0.035,0.056-0.072,0.098-0.112,0.126c-0.037,0.028-0.086,0.042-0.147,0.042
	c-0.054,0-0.112-0.016-0.175-0.049c-0.061-0.035-0.131-0.073-0.21-0.115c-0.077-0.042-0.166-0.079-0.266-0.112
	c-0.1-0.035-0.215-0.053-0.343-0.053c-0.222,0-0.387,0.048-0.497,0.144c-0.107,0.093-0.161,0.221-0.161,0.382
	c0,0.103,0.033,0.188,0.098,0.256c0.065,0.068,0.151,0.126,0.256,0.175c0.107,0.049,0.229,0.094,0.364,0.136
	c0.138,0.04,0.278,0.085,0.42,0.136c0.142,0.049,0.281,0.107,0.417,0.175c0.138,0.068,0.259,0.154,0.364,0.259
	c0.107,0.105,0.194,0.233,0.259,0.385c0.065,0.149,0.098,0.33,0.098,0.543c0,0.236-0.041,0.456-0.122,0.661
	c-0.082,0.205-0.201,0.385-0.357,0.539c-0.154,0.152-0.345,0.272-0.574,0.36c-0.226,0.086-0.484,0.13-0.774,0.13
	c-0.159,0-0.321-0.016-0.486-0.049c-0.163-0.033-0.322-0.078-0.476-0.137c-0.154-0.061-0.299-0.132-0.434-0.214
	c-0.135-0.082-0.253-0.173-0.354-0.273l0.35-0.553c0.028-0.04,0.064-0.072,0.108-0.098c0.047-0.028,0.097-0.042,0.151-0.042
	c0.07,0,0.14,0.022,0.21,0.066c0.072,0.044,0.153,0.093,0.241,0.147c0.091,0.054,0.195,0.103,0.311,0.147
	c0.117,0.044,0.254,0.066,0.413,0.066c0.215,0,0.382-0.047,0.501-0.14c0.119-0.096,0.178-0.246,0.178-0.451
	c0-0.119-0.033-0.216-0.098-0.29c-0.065-0.075-0.152-0.136-0.259-0.186c-0.105-0.049-0.225-0.092-0.361-0.13
	c-0.135-0.037-0.274-0.078-0.417-0.122c-0.142-0.047-0.281-0.103-0.417-0.168c-0.135-0.068-0.257-0.155-0.364-0.263
	c-0.105-0.11-0.19-0.245-0.256-0.406c-0.065-0.163-0.098-0.364-0.098-0.602c0-0.191,0.038-0.378,0.115-0.56
	c0.077-0.182,0.19-0.344,0.34-0.487c0.149-0.142,0.333-0.256,0.55-0.34c0.217-0.086,0.465-0.13,0.745-0.13
	c0.156,0,0.308,0.013,0.455,0.039c0.149,0.023,0.29,0.059,0.424,0.108c0.133,0.047,0.257,0.104,0.371,0.172
	c0.117,0.065,0.22,0.14,0.311,0.224L14.037,88.437z M15.974,88.87v3.63h-1.085v-3.63H15.974z M16.086,87.877
	c0,0.086-0.017,0.168-0.052,0.245c-0.035,0.075-0.083,0.141-0.144,0.2c-0.061,0.056-0.132,0.102-0.214,0.136
	c-0.079,0.033-0.165,0.049-0.255,0.049c-0.089,0-0.172-0.016-0.248-0.049c-0.077-0.035-0.146-0.08-0.207-0.136
	c-0.058-0.058-0.105-0.125-0.14-0.2c-0.033-0.077-0.049-0.159-0.049-0.245c0-0.089,0.016-0.172,0.049-0.249
	c0.035-0.077,0.082-0.145,0.14-0.203c0.061-0.058,0.13-0.104,0.207-0.137s0.16-0.049,0.248-0.049c0.091,0,0.176,0.016,0.255,0.049
	c0.082,0.033,0.153,0.078,0.214,0.137c0.061,0.058,0.109,0.126,0.144,0.203C16.069,87.705,16.086,87.788,16.086,87.877z
	 M17.627,89.262c0.07-0.065,0.142-0.126,0.217-0.182c0.075-0.056,0.154-0.103,0.238-0.14c0.086-0.04,0.178-0.07,0.277-0.091
	c0.1-0.023,0.209-0.035,0.325-0.035c0.198,0,0.373,0.035,0.525,0.105c0.154,0.068,0.283,0.163,0.389,0.287
	c0.105,0.121,0.184,0.267,0.238,0.438c0.054,0.168,0.08,0.351,0.08,0.549V92.5h-1.085v-2.307c0-0.177-0.041-0.315-0.123-0.413
	c-0.082-0.1-0.202-0.151-0.36-0.151c-0.119,0-0.231,0.026-0.336,0.077c-0.103,0.049-0.203,0.117-0.301,0.203v2.59h-1.085v-3.63
	h0.672c0.135,0,0.224,0.061,0.266,0.182L17.627,89.262z M21.896,90.494c0.18,0,0.309-0.044,0.389-0.133
	c0.082-0.091,0.122-0.208,0.122-0.35c0-0.147-0.041-0.262-0.122-0.346c-0.079-0.084-0.209-0.126-0.389-0.126
	c-0.18,0-0.31,0.042-0.392,0.126c-0.079,0.084-0.119,0.2-0.119,0.346c0,0.07,0.009,0.134,0.028,0.193
	c0.021,0.058,0.052,0.11,0.094,0.154c0.042,0.042,0.094,0.076,0.157,0.102C21.73,90.483,21.807,90.494,21.896,90.494z
	 M22.736,92.633c0-0.086-0.038-0.148-0.116-0.186c-0.077-0.04-0.177-0.068-0.301-0.084c-0.124-0.016-0.263-0.026-0.417-0.028
	c-0.152-0.005-0.303-0.014-0.455-0.028c-0.068,0.047-0.124,0.099-0.168,0.157c-0.042,0.056-0.063,0.12-0.063,0.193
	c0,0.051,0.01,0.098,0.031,0.14c0.023,0.042,0.063,0.078,0.119,0.108c0.056,0.03,0.131,0.054,0.224,0.07
	c0.096,0.019,0.216,0.028,0.361,0.028c0.156,0,0.285-0.009,0.385-0.028c0.1-0.019,0.18-0.044,0.238-0.077
	c0.061-0.033,0.103-0.072,0.126-0.119C22.724,92.736,22.736,92.687,22.736,92.633z M23.807,88.982v0.396
	c0,0.061-0.017,0.109-0.052,0.144c-0.033,0.035-0.09,0.062-0.171,0.08l-0.263,0.06c0.014,0.051,0.024,0.104,0.031,0.158
	c0.009,0.054,0.014,0.11,0.014,0.168c0,0.182-0.038,0.345-0.115,0.49c-0.075,0.145-0.179,0.268-0.312,0.371
	c-0.131,0.1-0.286,0.178-0.465,0.234c-0.18,0.054-0.372,0.081-0.577,0.081c-0.056,0-0.111-0.001-0.165-0.004
	c-0.054-0.005-0.106-0.012-0.157-0.021c-0.079,0.049-0.119,0.104-0.119,0.165s0.033,0.105,0.098,0.133
	c0.065,0.026,0.152,0.044,0.259,0.056c0.107,0.009,0.229,0.016,0.364,0.021c0.138,0.002,0.278,0.01,0.42,0.024
	c0.142,0.012,0.281,0.033,0.417,0.063c0.138,0.03,0.26,0.079,0.368,0.147c0.107,0.068,0.194,0.159,0.259,0.273
	c0.065,0.112,0.098,0.256,0.098,0.43c0,0.163-0.04,0.323-0.119,0.479c-0.079,0.156-0.196,0.295-0.35,0.417s-0.343,0.218-0.567,0.29
	c-0.224,0.075-0.481,0.112-0.77,0.112c-0.285,0-0.531-0.027-0.739-0.08c-0.205-0.054-0.377-0.125-0.514-0.214
	c-0.135-0.086-0.236-0.187-0.301-0.301c-0.065-0.114-0.098-0.233-0.098-0.357c0-0.161,0.047-0.295,0.14-0.403
	c0.093-0.107,0.224-0.194,0.392-0.259c-0.089-0.054-0.159-0.123-0.21-0.207c-0.051-0.084-0.077-0.192-0.077-0.326
	c0-0.054,0.009-0.11,0.028-0.168c0.019-0.061,0.048-0.119,0.087-0.175c0.042-0.058,0.093-0.113,0.154-0.165
	c0.061-0.051,0.133-0.097,0.217-0.136c-0.189-0.1-0.338-0.232-0.448-0.396c-0.11-0.166-0.165-0.358-0.165-0.577
	c0-0.182,0.038-0.345,0.116-0.49c0.077-0.147,0.182-0.271,0.315-0.371c0.135-0.103,0.294-0.181,0.476-0.234
	c0.182-0.056,0.379-0.084,0.592-0.084c0.308,0,0.581,0.058,0.819,0.175H23.807z M25.239,87.26v5.24h-1.085v-5.24H25.239z
	 M28.125,90.249c0-0.086-0.012-0.17-0.035-0.252c-0.021-0.082-0.057-0.154-0.108-0.217c-0.049-0.065-0.114-0.118-0.196-0.158
	c-0.082-0.04-0.181-0.06-0.298-0.06c-0.205,0-0.366,0.06-0.483,0.178c-0.117,0.117-0.194,0.286-0.231,0.507H28.125z M26.76,90.88
	c0.035,0.303,0.127,0.524,0.276,0.661c0.149,0.135,0.342,0.203,0.578,0.203c0.126,0,0.234-0.015,0.325-0.046
	c0.091-0.03,0.172-0.064,0.242-0.102c0.072-0.037,0.138-0.071,0.196-0.102c0.061-0.03,0.124-0.046,0.189-0.046
	c0.086,0,0.152,0.032,0.196,0.095l0.315,0.388c-0.112,0.128-0.233,0.233-0.364,0.315c-0.128,0.079-0.261,0.142-0.399,0.189
	c-0.135,0.044-0.272,0.075-0.41,0.091c-0.135,0.019-0.265,0.028-0.389,0.028c-0.254,0-0.493-0.041-0.717-0.122
	c-0.222-0.084-0.417-0.208-0.585-0.371c-0.166-0.163-0.297-0.366-0.395-0.609c-0.096-0.243-0.144-0.525-0.144-0.847
	c0-0.243,0.041-0.472,0.123-0.689c0.084-0.217,0.203-0.407,0.357-0.571c0.156-0.163,0.344-0.293,0.564-0.388
	c0.222-0.096,0.471-0.144,0.749-0.144c0.24,0,0.46,0.037,0.658,0.112c0.201,0.075,0.372,0.183,0.514,0.326
	c0.145,0.142,0.257,0.317,0.336,0.525c0.082,0.205,0.122,0.439,0.122,0.7c0,0.082-0.003,0.148-0.01,0.2s-0.02,0.092-0.038,0.123
	c-0.019,0.03-0.044,0.051-0.077,0.063c-0.03,0.012-0.07,0.018-0.119,0.018H26.76z"/>
<g class="st3">
	<rect x="2" y="94.5" width="36" height="1"/>
</g>
<path class="st4" d="M8.213,99.465h0.189c0.175,0,0.301-0.055,0.378-0.164l1.148-1.666c0.068-0.089,0.14-0.149,0.217-0.182
	c0.079-0.035,0.177-0.053,0.294-0.053h1.029l-1.512,2.062c-0.107,0.142-0.223,0.245-0.347,0.308
	c0.089,0.033,0.169,0.078,0.241,0.137c0.072,0.058,0.14,0.134,0.203,0.228l1.54,2.366h-1.057c-0.068,0-0.126-0.005-0.175-0.014
	c-0.047-0.009-0.087-0.023-0.123-0.042c-0.035-0.019-0.065-0.041-0.091-0.067c-0.026-0.028-0.05-0.059-0.073-0.094l-1.155-1.775
	c-0.042-0.065-0.096-0.11-0.161-0.136c-0.063-0.028-0.149-0.042-0.259-0.042H8.213v2.17H7.03v-5.1h1.183V99.465z M13.746,100.249
	c0-0.086-0.012-0.17-0.035-0.252c-0.021-0.082-0.057-0.154-0.109-0.217c-0.049-0.065-0.114-0.118-0.196-0.158
	c-0.082-0.04-0.181-0.06-0.298-0.06c-0.205,0-0.366,0.06-0.483,0.178c-0.117,0.117-0.194,0.286-0.231,0.507H13.746z M12.381,100.879
	c0.035,0.304,0.127,0.524,0.276,0.662c0.149,0.135,0.342,0.203,0.578,0.203c0.126,0,0.234-0.015,0.325-0.046
	c0.091-0.03,0.172-0.064,0.241-0.101c0.072-0.037,0.138-0.071,0.196-0.102c0.061-0.03,0.124-0.045,0.189-0.045
	c0.086,0,0.152,0.031,0.196,0.094l0.315,0.389c-0.112,0.128-0.233,0.233-0.364,0.315c-0.128,0.079-0.261,0.142-0.399,0.189
	c-0.135,0.044-0.272,0.075-0.41,0.091c-0.135,0.019-0.265,0.028-0.389,0.028c-0.254,0-0.493-0.041-0.717-0.123
	c-0.222-0.084-0.417-0.207-0.585-0.371c-0.166-0.163-0.297-0.366-0.395-0.609c-0.096-0.242-0.144-0.525-0.144-0.847
	c0-0.242,0.041-0.472,0.122-0.689c0.084-0.217,0.203-0.407,0.357-0.571c0.156-0.163,0.344-0.293,0.564-0.388
	c0.222-0.096,0.471-0.144,0.749-0.144c0.24,0,0.46,0.037,0.658,0.112c0.201,0.075,0.372,0.183,0.514,0.326
	c0.145,0.142,0.257,0.317,0.336,0.525c0.082,0.205,0.123,0.439,0.123,0.7c0,0.082-0.003,0.148-0.01,0.199
	c-0.007,0.052-0.02,0.093-0.039,0.123c-0.019,0.03-0.044,0.051-0.077,0.063c-0.03,0.012-0.07,0.017-0.119,0.017H12.381z
	 M18.488,98.87l-1.939,4.572c-0.033,0.072-0.072,0.124-0.119,0.157c-0.047,0.035-0.121,0.053-0.224,0.053h-0.812l0.7-1.471
	l-1.449-3.311h0.959c0.084,0,0.148,0.019,0.193,0.056c0.047,0.037,0.08,0.082,0.101,0.133l0.595,1.564
	c0.056,0.142,0.101,0.288,0.136,0.437c0.026-0.074,0.051-0.149,0.077-0.224c0.026-0.074,0.052-0.148,0.08-0.22l0.539-1.557
	c0.021-0.054,0.058-0.098,0.112-0.133c0.054-0.037,0.112-0.056,0.175-0.056H18.488z M22.983,98.437
	c-0.035,0.056-0.072,0.098-0.112,0.126c-0.037,0.028-0.086,0.042-0.147,0.042c-0.054,0-0.112-0.016-0.175-0.049
	c-0.061-0.035-0.131-0.073-0.21-0.115c-0.077-0.042-0.166-0.079-0.266-0.112c-0.1-0.035-0.215-0.053-0.343-0.053
	c-0.222,0-0.387,0.048-0.497,0.144c-0.107,0.093-0.161,0.221-0.161,0.382c0,0.103,0.033,0.188,0.098,0.256
	c0.065,0.068,0.15,0.126,0.255,0.175c0.107,0.049,0.229,0.094,0.364,0.136c0.138,0.04,0.278,0.085,0.42,0.136
	c0.142,0.049,0.281,0.107,0.417,0.175c0.138,0.068,0.259,0.154,0.364,0.259c0.107,0.105,0.194,0.233,0.259,0.385
	c0.065,0.149,0.098,0.33,0.098,0.542c0,0.236-0.041,0.457-0.123,0.662c-0.082,0.205-0.201,0.385-0.357,0.539
	c-0.154,0.152-0.345,0.272-0.574,0.36c-0.226,0.087-0.484,0.13-0.774,0.13c-0.159,0-0.321-0.016-0.486-0.049
	c-0.163-0.033-0.322-0.078-0.476-0.137c-0.154-0.06-0.299-0.131-0.434-0.213c-0.135-0.082-0.253-0.173-0.354-0.273l0.35-0.553
	c0.028-0.04,0.064-0.072,0.108-0.098c0.047-0.028,0.097-0.042,0.151-0.042c0.07,0,0.14,0.022,0.21,0.066
	c0.072,0.045,0.153,0.094,0.242,0.147c0.091,0.054,0.195,0.103,0.311,0.147c0.117,0.045,0.254,0.067,0.413,0.067
	c0.215,0,0.382-0.047,0.501-0.14c0.119-0.096,0.178-0.246,0.178-0.452c0-0.119-0.033-0.215-0.098-0.29
	c-0.065-0.075-0.152-0.137-0.259-0.186c-0.105-0.049-0.225-0.092-0.361-0.129c-0.135-0.037-0.274-0.078-0.417-0.123
	c-0.142-0.046-0.281-0.102-0.417-0.168c-0.135-0.067-0.257-0.155-0.364-0.262c-0.105-0.11-0.19-0.245-0.256-0.406
	c-0.065-0.163-0.098-0.364-0.098-0.602c0-0.191,0.038-0.378,0.115-0.56c0.077-0.182,0.19-0.344,0.34-0.487
	c0.149-0.142,0.333-0.256,0.549-0.34c0.217-0.086,0.465-0.13,0.746-0.13c0.156,0,0.308,0.013,0.455,0.039
	c0.149,0.023,0.29,0.059,0.424,0.108c0.133,0.047,0.257,0.104,0.371,0.172c0.117,0.065,0.22,0.14,0.311,0.224L22.983,98.437z
	 M24.834,101.513c0.082,0.089,0.17,0.152,0.266,0.189c0.096,0.037,0.196,0.056,0.301,0.056c0.1,0,0.192-0.02,0.276-0.06
	c0.084-0.039,0.156-0.102,0.217-0.189c0.063-0.088,0.112-0.203,0.147-0.343s0.052-0.31,0.052-0.511c0-0.191-0.014-0.352-0.042-0.483
	c-0.028-0.13-0.068-0.235-0.119-0.314c-0.049-0.082-0.108-0.14-0.179-0.175c-0.07-0.035-0.148-0.053-0.234-0.053
	c-0.159,0-0.289,0.029-0.392,0.088c-0.103,0.058-0.201,0.144-0.294,0.256V101.513z M24.767,99.318
	c0.142-0.152,0.303-0.275,0.483-0.371c0.182-0.098,0.398-0.147,0.648-0.147c0.189,0,0.364,0.042,0.525,0.126s0.3,0.205,0.417,0.364
	c0.117,0.159,0.208,0.354,0.273,0.585c0.068,0.229,0.101,0.489,0.101,0.78c0,0.273-0.038,0.525-0.115,0.756
	c-0.075,0.231-0.181,0.432-0.319,0.602c-0.135,0.171-0.299,0.304-0.49,0.399c-0.189,0.096-0.399,0.144-0.63,0.144
	c-0.189,0-0.348-0.027-0.476-0.081c-0.128-0.053-0.245-0.126-0.35-0.217v1.394h-1.085V98.87h0.672c0.135,0,0.224,0.061,0.266,0.182
	L24.767,99.318z M28.755,97.26v5.24H27.67v-5.24H28.755z M30.493,98.87v3.63h-1.085v-3.63H30.493z M30.605,97.877
	c0,0.086-0.017,0.168-0.052,0.245c-0.035,0.075-0.083,0.141-0.144,0.2c-0.061,0.056-0.132,0.102-0.213,0.136
	c-0.079,0.033-0.165,0.049-0.256,0.049c-0.089,0-0.171-0.016-0.248-0.049c-0.077-0.035-0.146-0.08-0.207-0.136
	c-0.058-0.058-0.105-0.125-0.14-0.2c-0.033-0.077-0.049-0.159-0.049-0.245c0-0.089,0.016-0.172,0.049-0.249
	c0.035-0.077,0.082-0.145,0.14-0.203c0.061-0.058,0.129-0.104,0.207-0.137c0.077-0.033,0.16-0.049,0.248-0.049
	c0.091,0,0.176,0.016,0.256,0.049c0.082,0.033,0.153,0.078,0.213,0.137c0.061,0.058,0.108,0.126,0.144,0.203
	C30.588,97.705,30.605,97.788,30.605,97.877z M32.443,102.556c-0.173,0-0.325-0.024-0.458-0.074
	c-0.131-0.051-0.242-0.122-0.333-0.213c-0.089-0.093-0.156-0.205-0.203-0.336c-0.047-0.131-0.07-0.277-0.07-0.438v-1.876h-0.308
	c-0.056,0-0.104-0.018-0.144-0.052c-0.04-0.037-0.059-0.091-0.059-0.161v-0.424l0.578-0.112l0.213-0.885
	c0.028-0.112,0.107-0.168,0.238-0.168h0.567v1.061h0.9v0.742h-0.9v1.802c0,0.084,0.02,0.154,0.06,0.21
	c0.042,0.054,0.102,0.08,0.179,0.08c0.04,0,0.072-0.003,0.098-0.01c0.028-0.009,0.051-0.019,0.07-0.028
	c0.021-0.012,0.04-0.021,0.056-0.028c0.019-0.009,0.04-0.014,0.063-0.014c0.033,0,0.058,0.008,0.077,0.024
	c0.021,0.014,0.042,0.038,0.063,0.07l0.329,0.515c-0.14,0.105-0.298,0.184-0.472,0.238C32.811,102.53,32.63,102.556,32.443,102.556z
	"/>
<g class="st3">
	<rect x="2" y="104.5" width="36" height="1"/>
</g>
<path class="st1" d="M3.5,106h33c0.552,0,1,0.448,1,1v6c0,0.552-0.448,1-1,1h-33c-0.552,0-1-0.448-1-1v-6
	C2.5,106.448,2.948,106,3.5,106z"/>
<path class="st2" d="M3.5,106h33c0.552,0,1,0.448,1,1v6c0,0.552-0.448,1-1,1h-33c-0.552,0-1-0.448-1-1v-6
	C2.5,106.448,2.948,106,3.5,106z"/>
<path d="M8.39,111.18c0.028,0,0.056,0.006,0.084,0.018c0.028,0.009,0.055,0.027,0.081,0.052l0.469,0.494
	c-0.205,0.268-0.463,0.471-0.774,0.609c-0.308,0.135-0.673,0.203-1.095,0.203c-0.387,0-0.735-0.065-1.043-0.196
	c-0.306-0.133-0.566-0.315-0.78-0.546c-0.212-0.233-0.376-0.509-0.49-0.826c-0.114-0.32-0.171-0.666-0.171-1.04
	c0-0.38,0.062-0.729,0.185-1.046c0.124-0.32,0.298-0.595,0.522-0.826c0.224-0.231,0.492-0.411,0.805-0.539
	c0.313-0.128,0.657-0.193,1.032-0.193c0.191,0,0.371,0.018,0.539,0.053c0.17,0.033,0.329,0.079,0.476,0.14
	c0.147,0.058,0.282,0.129,0.406,0.213c0.124,0.084,0.233,0.175,0.329,0.273l-0.399,0.536c-0.026,0.033-0.056,0.063-0.091,0.091
	c-0.035,0.026-0.084,0.038-0.147,0.038c-0.042,0-0.082-0.009-0.119-0.028c-0.037-0.018-0.077-0.04-0.119-0.066
	c-0.042-0.028-0.089-0.057-0.14-0.088c-0.049-0.032-0.109-0.061-0.179-0.087c-0.068-0.028-0.148-0.051-0.241-0.07
	c-0.091-0.019-0.198-0.028-0.322-0.028c-0.196,0-0.376,0.036-0.539,0.108c-0.161,0.073-0.301,0.179-0.42,0.319
	c-0.117,0.138-0.208,0.308-0.273,0.511c-0.063,0.201-0.095,0.43-0.095,0.689c0,0.262,0.035,0.494,0.105,0.697
	c0.072,0.203,0.169,0.374,0.29,0.514c0.124,0.138,0.267,0.243,0.431,0.315c0.163,0.073,0.338,0.109,0.525,0.109
	c0.107,0,0.205-0.005,0.294-0.014c0.089-0.012,0.171-0.029,0.248-0.053c0.077-0.025,0.149-0.058,0.217-0.098
	c0.068-0.042,0.137-0.094,0.207-0.157c0.028-0.023,0.058-0.042,0.091-0.056C8.321,111.189,8.355,111.18,8.39,111.18z
	 M10.394,109.189c0.131-0.112,0.272-0.202,0.424-0.27c0.154-0.07,0.337-0.105,0.55-0.105c0.198,0,0.373,0.035,0.525,0.105
	c0.154,0.068,0.284,0.164,0.389,0.287c0.105,0.122,0.184,0.268,0.238,0.438c0.054,0.168,0.08,0.351,0.08,0.549v2.307h-1.085v-2.307
	c0-0.177-0.041-0.315-0.122-0.413c-0.082-0.1-0.202-0.15-0.361-0.15c-0.119,0-0.231,0.026-0.336,0.077
	c-0.103,0.049-0.203,0.117-0.301,0.203v2.59H9.309v-5.24h1.085V109.189z M15.068,111.023c-0.217,0.009-0.396,0.028-0.536,0.056
	c-0.14,0.028-0.251,0.063-0.332,0.105c-0.082,0.042-0.139,0.09-0.172,0.143c-0.03,0.054-0.045,0.112-0.045,0.175
	c0,0.124,0.034,0.212,0.101,0.263c0.068,0.049,0.167,0.073,0.297,0.073c0.14,0,0.263-0.024,0.368-0.073
	c0.105-0.049,0.211-0.128,0.319-0.238V111.023z M13.115,109.374c0.219-0.193,0.462-0.337,0.728-0.43
	c0.268-0.096,0.555-0.144,0.861-0.144c0.219,0,0.417,0.037,0.592,0.109c0.177,0.07,0.327,0.169,0.448,0.297
	c0.124,0.126,0.218,0.277,0.283,0.452c0.065,0.175,0.098,0.366,0.098,0.574v2.268h-0.497c-0.103,0-0.181-0.014-0.234-0.042
	c-0.051-0.028-0.094-0.086-0.13-0.175l-0.077-0.2c-0.091,0.077-0.179,0.145-0.262,0.203c-0.084,0.059-0.172,0.109-0.262,0.151
	c-0.089,0.04-0.184,0.069-0.287,0.088c-0.1,0.021-0.212,0.031-0.336,0.031c-0.166,0-0.316-0.021-0.451-0.063
	c-0.135-0.044-0.251-0.109-0.347-0.193c-0.093-0.084-0.166-0.187-0.217-0.311c-0.051-0.126-0.077-0.271-0.077-0.434
	c0-0.131,0.033-0.263,0.098-0.396c0.065-0.135,0.179-0.257,0.34-0.367c0.161-0.112,0.378-0.205,0.651-0.28
	c0.273-0.075,0.617-0.117,1.033-0.126v-0.154c0-0.212-0.044-0.365-0.133-0.459c-0.086-0.095-0.21-0.143-0.371-0.143
	c-0.128,0-0.233,0.014-0.315,0.042c-0.082,0.028-0.155,0.059-0.22,0.094c-0.063,0.035-0.125,0.067-0.186,0.095
	c-0.061,0.028-0.133,0.042-0.217,0.042c-0.075,0-0.138-0.019-0.189-0.056c-0.051-0.037-0.093-0.082-0.126-0.133L13.115,109.374z
	 M17.715,109.262c0.07-0.065,0.142-0.126,0.217-0.182c0.075-0.056,0.154-0.102,0.238-0.14c0.086-0.039,0.178-0.07,0.277-0.091
	c0.1-0.023,0.209-0.035,0.325-0.035c0.198,0,0.373,0.035,0.525,0.105c0.154,0.068,0.283,0.164,0.388,0.287
	c0.105,0.122,0.184,0.268,0.238,0.438c0.054,0.168,0.08,0.351,0.08,0.549v2.307h-1.085v-2.307c0-0.177-0.041-0.315-0.123-0.413
	c-0.082-0.1-0.202-0.15-0.36-0.15c-0.119,0-0.231,0.026-0.336,0.077c-0.103,0.049-0.203,0.117-0.301,0.203v2.59h-1.085v-3.63h0.672
	c0.135,0,0.224,0.061,0.266,0.182L17.715,109.262z M25.06,108.436c-0.035,0.056-0.072,0.098-0.112,0.126
	c-0.037,0.028-0.086,0.042-0.147,0.042c-0.054,0-0.112-0.016-0.175-0.049c-0.061-0.035-0.131-0.073-0.21-0.115
	c-0.077-0.042-0.166-0.079-0.266-0.112c-0.1-0.035-0.215-0.053-0.343-0.053c-0.222,0-0.387,0.048-0.497,0.144
	c-0.107,0.093-0.161,0.22-0.161,0.381c0,0.103,0.033,0.188,0.098,0.256c0.065,0.068,0.151,0.126,0.256,0.175
	c0.107,0.049,0.229,0.094,0.364,0.136c0.138,0.04,0.278,0.086,0.42,0.137c0.142,0.049,0.281,0.107,0.417,0.175
	c0.138,0.068,0.259,0.154,0.364,0.259c0.107,0.105,0.194,0.233,0.259,0.385c0.065,0.149,0.098,0.33,0.098,0.542
	c0,0.236-0.041,0.457-0.122,0.662c-0.082,0.205-0.201,0.385-0.357,0.539c-0.154,0.152-0.345,0.272-0.574,0.36
	c-0.226,0.087-0.484,0.13-0.774,0.13c-0.159,0-0.321-0.016-0.486-0.049c-0.163-0.033-0.322-0.078-0.476-0.137
	c-0.154-0.06-0.299-0.131-0.434-0.213c-0.135-0.082-0.253-0.173-0.354-0.273l0.35-0.553c0.028-0.04,0.064-0.072,0.108-0.098
	c0.047-0.028,0.097-0.042,0.15-0.042c0.07,0,0.14,0.022,0.21,0.066c0.072,0.045,0.153,0.094,0.242,0.147
	c0.091,0.054,0.195,0.103,0.311,0.147c0.117,0.045,0.254,0.067,0.413,0.067c0.215,0,0.382-0.047,0.5-0.14
	c0.119-0.096,0.179-0.246,0.179-0.452c0-0.119-0.033-0.215-0.098-0.29c-0.065-0.075-0.152-0.137-0.259-0.186
	c-0.105-0.049-0.225-0.092-0.361-0.129c-0.135-0.037-0.274-0.078-0.417-0.123c-0.142-0.046-0.281-0.102-0.417-0.168
	c-0.135-0.067-0.257-0.155-0.364-0.262c-0.105-0.11-0.19-0.245-0.255-0.406c-0.065-0.163-0.098-0.364-0.098-0.602
	c0-0.191,0.038-0.378,0.115-0.56c0.077-0.182,0.19-0.344,0.34-0.487c0.149-0.142,0.332-0.255,0.549-0.339
	c0.217-0.086,0.465-0.13,0.746-0.13c0.156,0,0.308,0.013,0.455,0.039c0.149,0.023,0.29,0.059,0.424,0.108
	c0.133,0.047,0.257,0.104,0.371,0.172c0.117,0.065,0.221,0.14,0.312,0.224L25.06,108.436z M26.911,111.513
	c0.082,0.089,0.17,0.152,0.266,0.189c0.096,0.037,0.196,0.056,0.301,0.056c0.1,0,0.193-0.02,0.277-0.06
	c0.084-0.039,0.156-0.102,0.217-0.189c0.063-0.088,0.112-0.203,0.147-0.343s0.052-0.31,0.052-0.511c0-0.191-0.014-0.352-0.042-0.483
	c-0.028-0.13-0.068-0.235-0.119-0.315c-0.049-0.081-0.109-0.14-0.179-0.175c-0.07-0.035-0.148-0.052-0.234-0.052
	c-0.159,0-0.289,0.029-0.392,0.087c-0.103,0.059-0.201,0.144-0.294,0.256V111.513z M26.844,109.318
	c0.142-0.151,0.303-0.275,0.483-0.371c0.182-0.098,0.398-0.147,0.648-0.147c0.189,0,0.364,0.042,0.525,0.126
	c0.161,0.084,0.3,0.206,0.417,0.364c0.117,0.159,0.208,0.354,0.273,0.585c0.068,0.229,0.102,0.489,0.102,0.78
	c0,0.273-0.039,0.525-0.116,0.756c-0.075,0.231-0.181,0.432-0.318,0.602c-0.135,0.171-0.299,0.304-0.49,0.399
	c-0.189,0.096-0.399,0.144-0.63,0.144c-0.189,0-0.348-0.027-0.476-0.081c-0.128-0.053-0.245-0.126-0.35-0.217v1.394h-1.085v-4.782
	h0.672c0.135,0,0.224,0.061,0.266,0.182L26.844,109.318z M30.832,107.26v5.24h-1.085v-5.24H30.832z M32.57,108.87v3.63h-1.085v-3.63
	H32.57z M32.682,107.876c0,0.087-0.018,0.168-0.053,0.245c-0.035,0.075-0.083,0.142-0.143,0.2c-0.061,0.056-0.132,0.101-0.214,0.136
	c-0.079,0.033-0.165,0.049-0.256,0.049c-0.089,0-0.171-0.016-0.248-0.049c-0.077-0.035-0.146-0.08-0.207-0.136
	c-0.058-0.058-0.105-0.125-0.14-0.2c-0.033-0.077-0.049-0.158-0.049-0.245c0-0.088,0.016-0.171,0.049-0.248
	c0.035-0.077,0.082-0.145,0.14-0.203c0.061-0.058,0.13-0.104,0.207-0.137c0.077-0.032,0.16-0.049,0.248-0.049
	c0.091,0,0.176,0.017,0.256,0.049c0.082,0.033,0.153,0.079,0.214,0.137c0.061,0.058,0.108,0.126,0.143,0.203
	C32.664,107.705,32.682,107.788,32.682,107.876z M34.52,112.556c-0.173,0-0.326-0.024-0.458-0.074
	c-0.131-0.051-0.241-0.122-0.333-0.213c-0.089-0.093-0.156-0.205-0.203-0.336c-0.047-0.131-0.07-0.277-0.07-0.438v-1.876h-0.308
	c-0.056,0-0.104-0.017-0.144-0.052c-0.04-0.037-0.059-0.091-0.059-0.161v-0.423l0.577-0.113l0.213-0.885
	c0.028-0.112,0.107-0.168,0.238-0.168h0.567v1.06h0.9v0.742h-0.9v1.803c0,0.084,0.02,0.154,0.06,0.21
	c0.042,0.054,0.102,0.08,0.179,0.08c0.04,0,0.072-0.003,0.098-0.01c0.028-0.009,0.051-0.019,0.07-0.028
	c0.021-0.012,0.04-0.021,0.056-0.028c0.019-0.009,0.04-0.014,0.063-0.014c0.033,0,0.058,0.008,0.077,0.024
	c0.021,0.014,0.042,0.038,0.063,0.07l0.329,0.515c-0.14,0.105-0.297,0.184-0.472,0.238C34.888,112.53,34.707,112.556,34.52,112.556z
	"/>
<g class="st3">
	<rect x="2" y="114.5" width="36" height="1"/>
</g>
<path class="st4" d="M17.919,119.948c0,0.369-0.064,0.71-0.192,1.022c-0.126,0.311-0.305,0.58-0.536,0.809
	c-0.231,0.226-0.51,0.404-0.836,0.532c-0.324,0.126-0.685,0.189-1.082,0.189h-1.981v-5.1h1.981c0.397,0,0.757,0.065,1.082,0.193
	c0.327,0.128,0.605,0.306,0.836,0.532c0.231,0.226,0.41,0.496,0.536,0.808C17.855,119.244,17.919,119.582,17.919,119.948z
	 M16.708,119.948c0-0.252-0.033-0.479-0.098-0.682c-0.065-0.203-0.16-0.375-0.284-0.515c-0.121-0.142-0.271-0.25-0.448-0.325
	c-0.177-0.077-0.379-0.116-0.606-0.116h-0.791v3.28h0.791c0.226,0,0.428-0.037,0.606-0.112c0.177-0.077,0.327-0.186,0.448-0.326
	c0.124-0.142,0.218-0.315,0.284-0.518C16.675,120.431,16.708,120.203,16.708,119.948z M21.6,118.87v3.63h-0.672
	c-0.135,0-0.224-0.061-0.266-0.182l-0.063-0.21c-0.07,0.068-0.142,0.129-0.217,0.185c-0.075,0.054-0.155,0.101-0.241,0.14
	c-0.084,0.038-0.176,0.067-0.277,0.088c-0.098,0.023-0.205,0.035-0.322,0.035c-0.198,0-0.374-0.034-0.528-0.102
	c-0.152-0.07-0.28-0.166-0.385-0.29c-0.105-0.124-0.184-0.27-0.238-0.438c-0.054-0.168-0.08-0.352-0.08-0.553v-2.303h1.085v2.303
	c0,0.18,0.041,0.319,0.122,0.417c0.082,0.098,0.202,0.147,0.361,0.147c0.119,0,0.23-0.025,0.333-0.074
	c0.105-0.051,0.206-0.12,0.305-0.206v-2.587H21.6z M24.105,121.023c-0.217,0.009-0.396,0.028-0.535,0.056s-0.251,0.063-0.333,0.105
	c-0.082,0.042-0.139,0.09-0.171,0.143c-0.03,0.054-0.045,0.112-0.045,0.175c0,0.124,0.034,0.212,0.101,0.263
	c0.068,0.049,0.167,0.073,0.298,0.073c0.14,0,0.262-0.024,0.368-0.073c0.105-0.049,0.211-0.128,0.318-0.238V121.023z
	 M22.152,119.374c0.219-0.193,0.462-0.337,0.728-0.43c0.268-0.096,0.555-0.144,0.861-0.144c0.219,0,0.417,0.037,0.592,0.109
	c0.177,0.07,0.327,0.169,0.448,0.297c0.124,0.126,0.218,0.277,0.283,0.452c0.065,0.175,0.098,0.366,0.098,0.574v2.268h-0.497
	c-0.103,0-0.181-0.014-0.235-0.042c-0.051-0.028-0.094-0.086-0.129-0.175l-0.077-0.2c-0.091,0.077-0.179,0.145-0.263,0.203
	c-0.084,0.059-0.171,0.109-0.263,0.151c-0.089,0.04-0.184,0.069-0.287,0.088c-0.1,0.021-0.212,0.031-0.336,0.031
	c-0.166,0-0.316-0.021-0.451-0.063c-0.135-0.044-0.251-0.109-0.347-0.193c-0.093-0.084-0.166-0.187-0.217-0.311
	c-0.051-0.126-0.077-0.271-0.077-0.434c0-0.131,0.033-0.263,0.098-0.396c0.065-0.135,0.178-0.257,0.339-0.367
	c0.161-0.112,0.378-0.205,0.651-0.28c0.273-0.075,0.617-0.117,1.032-0.126v-0.154c0-0.212-0.044-0.365-0.133-0.459
	c-0.086-0.095-0.21-0.143-0.371-0.143c-0.128,0-0.233,0.014-0.315,0.042c-0.082,0.028-0.155,0.059-0.22,0.094
	c-0.063,0.035-0.125,0.067-0.186,0.095c-0.061,0.028-0.133,0.042-0.217,0.042c-0.075,0-0.138-0.019-0.189-0.056
	c-0.051-0.037-0.093-0.082-0.126-0.133L22.152,119.374z M26.836,117.26v5.24H25.75v-5.24H26.836z"/>
<path d="M2.5,85h35v-1h-35V85z M39,86.5v37h1v-37H39z M37.5,125h-35v1h35V125z M1,123.5v-37H0v37H1z M2.5,125
	c-0.828,0-1.5-0.672-1.5-1.5H0c0,1.381,1.119,2.5,2.5,2.5V125z M39,123.5c0,0.828-0.672,1.5-1.5,1.5v1c1.381,0,2.5-1.119,2.5-2.5H39
	z M37.5,85c0.828,0,1.5,0.672,1.5,1.5h1c0-1.381-1.119-2.5-2.5-2.5V85z M2.5,84C1.119,84,0,85.119,0,86.5h1
	C1,85.672,1.672,85,2.5,85V84z"/>
<path class="st0" d="M0.5,128.5c0-1.105,0.895-2,2-2h35c1.105,0,2,0.895,2,2v37c0,1.105-0.895,2-2,2h-35c-1.105,0-2-0.895-2-2V128.5
	z"/>
<path class="st4" d="M14.037,130.436c-0.035,0.056-0.072,0.098-0.112,0.126c-0.037,0.028-0.086,0.042-0.147,0.042
	c-0.054,0-0.112-0.016-0.175-0.049c-0.061-0.035-0.131-0.073-0.21-0.115c-0.077-0.042-0.166-0.079-0.266-0.112
	c-0.1-0.035-0.215-0.053-0.343-0.053c-0.222,0-0.387,0.048-0.497,0.144c-0.107,0.093-0.161,0.22-0.161,0.381
	c0,0.103,0.033,0.188,0.098,0.256c0.065,0.068,0.151,0.126,0.256,0.175c0.107,0.049,0.229,0.094,0.364,0.136
	c0.138,0.04,0.278,0.086,0.42,0.137c0.142,0.049,0.281,0.107,0.417,0.175c0.138,0.068,0.259,0.154,0.364,0.259
	c0.107,0.105,0.194,0.233,0.259,0.385c0.065,0.149,0.098,0.33,0.098,0.542c0,0.236-0.041,0.457-0.122,0.662
	c-0.082,0.205-0.201,0.385-0.357,0.539c-0.154,0.152-0.345,0.272-0.574,0.36c-0.226,0.087-0.484,0.13-0.774,0.13
	c-0.159,0-0.321-0.016-0.486-0.049c-0.163-0.033-0.322-0.078-0.476-0.137c-0.154-0.06-0.299-0.131-0.434-0.213
	c-0.135-0.082-0.253-0.173-0.354-0.273l0.35-0.553c0.028-0.04,0.064-0.072,0.108-0.098c0.047-0.028,0.097-0.042,0.151-0.042
	c0.07,0,0.14,0.022,0.21,0.066c0.072,0.045,0.153,0.094,0.241,0.147c0.091,0.054,0.195,0.103,0.311,0.147
	c0.117,0.045,0.254,0.067,0.413,0.067c0.215,0,0.382-0.047,0.501-0.14c0.119-0.096,0.178-0.246,0.178-0.452
	c0-0.119-0.033-0.215-0.098-0.29c-0.065-0.075-0.152-0.137-0.259-0.186c-0.105-0.049-0.225-0.092-0.361-0.129
	c-0.135-0.037-0.274-0.078-0.417-0.123c-0.142-0.046-0.281-0.102-0.417-0.168c-0.135-0.067-0.257-0.155-0.364-0.262
	c-0.105-0.11-0.19-0.245-0.256-0.406c-0.065-0.163-0.098-0.364-0.098-0.602c0-0.191,0.038-0.378,0.115-0.56
	c0.077-0.182,0.19-0.344,0.34-0.487c0.149-0.142,0.333-0.255,0.55-0.339c0.217-0.086,0.465-0.13,0.745-0.13
	c0.156,0,0.308,0.013,0.455,0.039c0.149,0.023,0.29,0.059,0.424,0.108c0.133,0.047,0.257,0.104,0.371,0.172
	c0.117,0.065,0.22,0.14,0.311,0.224L14.037,130.436z M15.974,130.87v3.63h-1.085v-3.63H15.974z M16.086,129.876
	c0,0.087-0.017,0.168-0.052,0.245c-0.035,0.075-0.083,0.142-0.144,0.2c-0.061,0.056-0.132,0.101-0.214,0.136
	c-0.079,0.033-0.165,0.049-0.255,0.049c-0.089,0-0.172-0.016-0.248-0.049c-0.077-0.035-0.146-0.08-0.207-0.136
	c-0.058-0.058-0.105-0.125-0.14-0.2c-0.033-0.077-0.049-0.158-0.049-0.245c0-0.088,0.016-0.171,0.049-0.248
	c0.035-0.077,0.082-0.145,0.14-0.203c0.061-0.058,0.13-0.104,0.207-0.137c0.077-0.032,0.16-0.049,0.248-0.049
	c0.091,0,0.176,0.017,0.255,0.049c0.082,0.033,0.153,0.079,0.214,0.137c0.061,0.058,0.109,0.126,0.144,0.203
	C16.069,129.705,16.086,129.788,16.086,129.876z M17.627,131.262c0.07-0.065,0.142-0.126,0.217-0.182
	c0.075-0.056,0.154-0.102,0.238-0.14c0.086-0.039,0.178-0.07,0.277-0.091c0.1-0.023,0.209-0.035,0.325-0.035
	c0.198,0,0.373,0.035,0.525,0.105c0.154,0.068,0.283,0.164,0.389,0.287c0.105,0.122,0.184,0.268,0.238,0.438
	c0.054,0.168,0.08,0.351,0.08,0.549v2.307h-1.085v-2.307c0-0.177-0.041-0.315-0.123-0.413c-0.082-0.1-0.202-0.15-0.36-0.15
	c-0.119,0-0.231,0.026-0.336,0.077c-0.103,0.049-0.203,0.117-0.301,0.203v2.59h-1.085v-3.63h0.672c0.135,0,0.224,0.061,0.266,0.182
	L17.627,131.262z M21.896,132.494c0.18,0,0.309-0.044,0.389-0.133c0.082-0.091,0.122-0.207,0.122-0.35
	c0-0.147-0.041-0.262-0.122-0.346c-0.079-0.084-0.209-0.126-0.389-0.126c-0.18,0-0.31,0.042-0.392,0.126
	c-0.079,0.084-0.119,0.199-0.119,0.346c0,0.07,0.009,0.135,0.028,0.193c0.021,0.058,0.052,0.11,0.094,0.154
	c0.042,0.042,0.094,0.076,0.157,0.101C21.73,132.483,21.807,132.494,21.896,132.494z M22.736,134.633
	c0-0.086-0.038-0.148-0.116-0.186c-0.077-0.039-0.177-0.067-0.301-0.084c-0.124-0.016-0.263-0.025-0.417-0.028
	c-0.152-0.004-0.303-0.014-0.455-0.028c-0.068,0.047-0.124,0.1-0.168,0.158c-0.042,0.056-0.063,0.12-0.063,0.193
	c0,0.051,0.01,0.098,0.031,0.14c0.023,0.042,0.063,0.078,0.119,0.108c0.056,0.03,0.131,0.054,0.224,0.07
	c0.096,0.019,0.216,0.028,0.361,0.028c0.156,0,0.285-0.009,0.385-0.028c0.1-0.019,0.18-0.044,0.238-0.077
	c0.061-0.033,0.103-0.072,0.126-0.119C22.724,134.736,22.736,134.687,22.736,134.633z M23.807,130.983v0.395
	c0,0.061-0.017,0.108-0.052,0.143c-0.033,0.035-0.09,0.062-0.171,0.081l-0.263,0.059c0.014,0.052,0.024,0.104,0.031,0.158
	c0.009,0.054,0.014,0.11,0.014,0.168c0,0.182-0.038,0.345-0.115,0.49c-0.075,0.145-0.179,0.268-0.312,0.371
	c-0.131,0.1-0.286,0.178-0.465,0.234c-0.18,0.054-0.372,0.081-0.577,0.081c-0.056,0-0.111-0.001-0.165-0.004
	c-0.054-0.004-0.106-0.011-0.157-0.021c-0.079,0.049-0.119,0.104-0.119,0.165c0,0.061,0.033,0.105,0.098,0.133
	c0.065,0.026,0.152,0.044,0.259,0.056c0.107,0.009,0.229,0.016,0.364,0.021c0.138,0.002,0.278,0.01,0.42,0.024
	c0.142,0.012,0.281,0.033,0.417,0.064c0.138,0.03,0.26,0.079,0.368,0.146c0.107,0.068,0.194,0.159,0.259,0.273
	c0.065,0.112,0.098,0.256,0.098,0.431c0,0.163-0.04,0.323-0.119,0.48c-0.079,0.156-0.196,0.295-0.35,0.416s-0.343,0.218-0.567,0.291
	c-0.224,0.074-0.481,0.112-0.77,0.112c-0.285,0-0.531-0.027-0.739-0.081c-0.205-0.054-0.377-0.125-0.514-0.213
	c-0.135-0.087-0.236-0.187-0.301-0.301c-0.065-0.115-0.098-0.234-0.098-0.357c0-0.161,0.047-0.296,0.14-0.403
	c0.093-0.107,0.224-0.194,0.392-0.259c-0.089-0.054-0.159-0.123-0.21-0.207c-0.051-0.084-0.077-0.192-0.077-0.325
	c0-0.054,0.009-0.11,0.028-0.168c0.019-0.061,0.048-0.119,0.087-0.175c0.042-0.058,0.093-0.113,0.154-0.165
	c0.061-0.051,0.133-0.096,0.217-0.136c-0.189-0.1-0.338-0.232-0.448-0.396c-0.11-0.165-0.165-0.358-0.165-0.577
	c0-0.182,0.038-0.345,0.116-0.49c0.077-0.147,0.182-0.271,0.315-0.371c0.135-0.103,0.294-0.181,0.476-0.235
	c0.182-0.056,0.379-0.084,0.592-0.084c0.308,0,0.581,0.059,0.819,0.176H23.807z M25.239,129.26v5.24h-1.085v-5.24H25.239z
	 M28.125,132.249c0-0.086-0.012-0.17-0.035-0.252c-0.021-0.081-0.057-0.154-0.108-0.217c-0.049-0.065-0.114-0.117-0.196-0.157
	c-0.082-0.04-0.181-0.06-0.298-0.06c-0.205,0-0.366,0.06-0.483,0.179c-0.117,0.117-0.194,0.286-0.231,0.507H28.125z M26.76,132.879
	c0.035,0.304,0.127,0.524,0.276,0.662c0.149,0.135,0.342,0.203,0.578,0.203c0.126,0,0.234-0.015,0.325-0.046
	c0.091-0.03,0.172-0.064,0.242-0.101c0.072-0.037,0.138-0.071,0.196-0.102c0.061-0.03,0.124-0.045,0.189-0.045
	c0.086,0,0.152,0.031,0.196,0.094l0.315,0.389c-0.112,0.128-0.233,0.233-0.364,0.315c-0.128,0.079-0.261,0.142-0.399,0.189
	c-0.135,0.044-0.272,0.075-0.41,0.091c-0.135,0.019-0.265,0.028-0.389,0.028c-0.254,0-0.493-0.041-0.717-0.123
	c-0.222-0.084-0.417-0.207-0.585-0.371c-0.166-0.163-0.297-0.366-0.395-0.609c-0.096-0.242-0.144-0.525-0.144-0.847
	c0-0.242,0.041-0.472,0.123-0.689c0.084-0.217,0.203-0.407,0.357-0.571c0.156-0.163,0.344-0.292,0.564-0.388
	c0.222-0.096,0.471-0.144,0.749-0.144c0.24,0,0.46,0.038,0.658,0.112c0.201,0.075,0.372,0.184,0.514,0.326
	c0.145,0.142,0.257,0.317,0.336,0.525c0.082,0.205,0.122,0.439,0.122,0.7c0,0.082-0.003,0.148-0.01,0.199
	c-0.007,0.052-0.02,0.093-0.038,0.123s-0.044,0.051-0.077,0.063c-0.03,0.012-0.07,0.017-0.119,0.017H26.76z"/>
<g class="st3">
	<rect x="2" y="136.5" width="36" height="1"/>
</g>
<path class="st4" d="M8.213,141.465h0.189c0.175,0,0.301-0.054,0.378-0.164l1.148-1.666c0.068-0.089,0.14-0.149,0.217-0.182
	c0.079-0.035,0.177-0.053,0.294-0.053h1.029l-1.512,2.062c-0.107,0.142-0.223,0.245-0.347,0.308
	c0.089,0.033,0.169,0.078,0.241,0.136c0.072,0.059,0.14,0.135,0.203,0.228l1.54,2.366h-1.057c-0.068,0-0.126-0.005-0.175-0.014
	c-0.047-0.009-0.087-0.023-0.123-0.042c-0.035-0.019-0.065-0.041-0.091-0.067c-0.026-0.028-0.05-0.059-0.073-0.094l-1.155-1.775
	c-0.042-0.065-0.096-0.11-0.161-0.136c-0.063-0.028-0.149-0.042-0.259-0.042H8.213v2.17H7.03v-5.1h1.183V141.465z M13.746,142.249
	c0-0.086-0.012-0.17-0.035-0.252c-0.021-0.081-0.057-0.154-0.109-0.217c-0.049-0.065-0.114-0.117-0.196-0.157
	c-0.082-0.04-0.181-0.06-0.298-0.06c-0.205,0-0.366,0.06-0.483,0.179c-0.117,0.117-0.194,0.286-0.231,0.507H13.746z M12.381,142.879
	c0.035,0.304,0.127,0.524,0.276,0.662c0.149,0.135,0.342,0.203,0.578,0.203c0.126,0,0.234-0.015,0.325-0.046
	c0.091-0.03,0.172-0.064,0.241-0.101c0.072-0.037,0.138-0.071,0.196-0.102c0.061-0.03,0.124-0.045,0.189-0.045
	c0.086,0,0.152,0.031,0.196,0.094l0.315,0.389c-0.112,0.128-0.233,0.233-0.364,0.315c-0.128,0.079-0.261,0.142-0.399,0.189
	c-0.135,0.044-0.272,0.075-0.41,0.091c-0.135,0.019-0.265,0.028-0.389,0.028c-0.254,0-0.493-0.041-0.717-0.123
	c-0.222-0.084-0.417-0.207-0.585-0.371c-0.166-0.163-0.297-0.366-0.395-0.609c-0.096-0.242-0.144-0.525-0.144-0.847
	c0-0.242,0.041-0.472,0.122-0.689c0.084-0.217,0.203-0.407,0.357-0.571c0.156-0.163,0.344-0.292,0.564-0.388
	c0.222-0.096,0.471-0.144,0.749-0.144c0.24,0,0.46,0.038,0.658,0.112c0.201,0.075,0.372,0.184,0.514,0.326
	c0.145,0.142,0.257,0.317,0.336,0.525c0.082,0.205,0.123,0.439,0.123,0.7c0,0.082-0.003,0.148-0.01,0.199
	c-0.007,0.052-0.02,0.093-0.039,0.123c-0.019,0.03-0.044,0.051-0.077,0.063c-0.03,0.012-0.07,0.017-0.119,0.017H12.381z
	 M18.488,140.87l-1.939,4.572c-0.033,0.072-0.072,0.124-0.119,0.157c-0.047,0.035-0.121,0.053-0.224,0.053h-0.812l0.7-1.471
	l-1.449-3.311h0.959c0.084,0,0.148,0.019,0.193,0.056c0.047,0.038,0.08,0.082,0.101,0.133l0.595,1.565
	c0.056,0.142,0.101,0.288,0.136,0.437c0.026-0.074,0.051-0.149,0.077-0.224c0.026-0.074,0.052-0.148,0.08-0.22l0.539-1.558
	c0.021-0.053,0.058-0.098,0.112-0.133c0.054-0.037,0.112-0.056,0.175-0.056H18.488z M22.983,140.436
	c-0.035,0.056-0.072,0.098-0.112,0.126c-0.037,0.028-0.086,0.042-0.147,0.042c-0.054,0-0.112-0.016-0.175-0.049
	c-0.061-0.035-0.131-0.073-0.21-0.115c-0.077-0.042-0.166-0.079-0.266-0.112c-0.1-0.035-0.215-0.053-0.343-0.053
	c-0.222,0-0.387,0.048-0.497,0.144c-0.107,0.093-0.161,0.22-0.161,0.381c0,0.103,0.033,0.188,0.098,0.256
	c0.065,0.068,0.15,0.126,0.255,0.175c0.107,0.049,0.229,0.094,0.364,0.136c0.138,0.04,0.278,0.086,0.42,0.137
	c0.142,0.049,0.281,0.107,0.417,0.175c0.138,0.068,0.259,0.154,0.364,0.259c0.107,0.105,0.194,0.233,0.259,0.385
	c0.065,0.149,0.098,0.33,0.098,0.542c0,0.236-0.041,0.457-0.123,0.662c-0.082,0.205-0.201,0.385-0.357,0.539
	c-0.154,0.152-0.345,0.272-0.574,0.36c-0.226,0.087-0.484,0.13-0.774,0.13c-0.159,0-0.321-0.016-0.486-0.049
	c-0.163-0.033-0.322-0.078-0.476-0.137c-0.154-0.06-0.299-0.131-0.434-0.213c-0.135-0.082-0.253-0.173-0.354-0.273l0.35-0.553
	c0.028-0.04,0.064-0.072,0.108-0.098c0.047-0.028,0.097-0.042,0.151-0.042c0.07,0,0.14,0.022,0.21,0.066
	c0.072,0.045,0.153,0.094,0.242,0.147c0.091,0.054,0.195,0.103,0.311,0.147c0.117,0.045,0.254,0.067,0.413,0.067
	c0.215,0,0.382-0.047,0.501-0.14c0.119-0.096,0.178-0.246,0.178-0.452c0-0.119-0.033-0.215-0.098-0.29
	c-0.065-0.075-0.152-0.137-0.259-0.186c-0.105-0.049-0.225-0.092-0.361-0.129c-0.135-0.037-0.274-0.078-0.417-0.123
	c-0.142-0.046-0.281-0.102-0.417-0.168c-0.135-0.067-0.257-0.155-0.364-0.262c-0.105-0.11-0.19-0.245-0.256-0.406
	c-0.065-0.163-0.098-0.364-0.098-0.602c0-0.191,0.038-0.378,0.115-0.56c0.077-0.182,0.19-0.344,0.34-0.487
	c0.149-0.142,0.333-0.255,0.549-0.339c0.217-0.086,0.465-0.13,0.746-0.13c0.156,0,0.308,0.013,0.455,0.039
	c0.149,0.023,0.29,0.059,0.424,0.108c0.133,0.047,0.257,0.104,0.371,0.172c0.117,0.065,0.22,0.14,0.311,0.224L22.983,140.436z
	 M24.834,143.513c0.082,0.089,0.17,0.152,0.266,0.189c0.096,0.037,0.196,0.056,0.301,0.056c0.1,0,0.192-0.02,0.276-0.06
	c0.084-0.039,0.156-0.102,0.217-0.189c0.063-0.088,0.112-0.203,0.147-0.343s0.052-0.31,0.052-0.511c0-0.191-0.014-0.352-0.042-0.483
	c-0.028-0.13-0.068-0.235-0.119-0.315c-0.049-0.081-0.108-0.14-0.179-0.175c-0.07-0.035-0.148-0.052-0.234-0.052
	c-0.159,0-0.289,0.029-0.392,0.087c-0.103,0.059-0.201,0.144-0.294,0.256V143.513z M24.767,141.318
	c0.142-0.151,0.303-0.275,0.483-0.371c0.182-0.098,0.398-0.147,0.648-0.147c0.189,0,0.364,0.042,0.525,0.126s0.3,0.206,0.417,0.364
	c0.117,0.159,0.208,0.354,0.273,0.585c0.068,0.229,0.101,0.489,0.101,0.78c0,0.273-0.038,0.525-0.115,0.756
	c-0.075,0.231-0.181,0.432-0.319,0.602c-0.135,0.171-0.299,0.304-0.49,0.399c-0.189,0.096-0.399,0.144-0.63,0.144
	c-0.189,0-0.348-0.027-0.476-0.081c-0.128-0.053-0.245-0.126-0.35-0.217v1.394h-1.085v-4.782h0.672c0.135,0,0.224,0.061,0.266,0.182
	L24.767,141.318z M28.755,139.26v5.24H27.67v-5.24H28.755z M30.493,140.87v3.63h-1.085v-3.63H30.493z M30.605,139.876
	c0,0.087-0.017,0.168-0.052,0.245c-0.035,0.075-0.083,0.142-0.144,0.2c-0.061,0.056-0.132,0.101-0.213,0.136
	c-0.079,0.033-0.165,0.049-0.256,0.049c-0.089,0-0.171-0.016-0.248-0.049c-0.077-0.035-0.146-0.08-0.207-0.136
	c-0.058-0.058-0.105-0.125-0.14-0.2c-0.033-0.077-0.049-0.158-0.049-0.245c0-0.088,0.016-0.171,0.049-0.248
	c0.035-0.077,0.082-0.145,0.14-0.203c0.061-0.058,0.129-0.104,0.207-0.137c0.077-0.032,0.16-0.049,0.248-0.049
	c0.091,0,0.176,0.017,0.256,0.049c0.082,0.033,0.153,0.079,0.213,0.137c0.061,0.058,0.108,0.126,0.144,0.203
	C30.588,139.705,30.605,139.788,30.605,139.876z M32.443,144.556c-0.173,0-0.325-0.024-0.458-0.074
	c-0.131-0.051-0.242-0.122-0.333-0.213c-0.089-0.093-0.156-0.205-0.203-0.336c-0.047-0.131-0.07-0.277-0.07-0.438v-1.876h-0.308
	c-0.056,0-0.104-0.017-0.144-0.052c-0.04-0.037-0.059-0.091-0.059-0.161v-0.423l0.578-0.113l0.213-0.885
	c0.028-0.112,0.107-0.168,0.238-0.168h0.567v1.06h0.9v0.742h-0.9v1.803c0,0.084,0.02,0.154,0.06,0.21
	c0.042,0.054,0.102,0.08,0.179,0.08c0.04,0,0.072-0.003,0.098-0.01c0.028-0.009,0.051-0.019,0.07-0.028
	c0.021-0.012,0.04-0.021,0.056-0.028c0.019-0.009,0.04-0.014,0.063-0.014c0.033,0,0.058,0.008,0.077,0.024
	c0.021,0.014,0.042,0.038,0.063,0.07l0.329,0.515c-0.14,0.105-0.298,0.184-0.472,0.238C32.811,144.53,32.63,144.556,32.443,144.556z
	"/>
<g class="st3">
	<rect x="2" y="146.5" width="36" height="1"/>
</g>
<path class="st4" d="M8.39,153.18c0.028,0,0.056,0.006,0.084,0.018c0.028,0.009,0.055,0.027,0.081,0.052l0.469,0.494
	c-0.205,0.268-0.463,0.471-0.774,0.609c-0.308,0.135-0.673,0.203-1.095,0.203c-0.387,0-0.735-0.065-1.043-0.196
	c-0.306-0.133-0.566-0.315-0.78-0.546c-0.212-0.233-0.376-0.509-0.49-0.826c-0.114-0.32-0.171-0.666-0.171-1.04
	c0-0.38,0.062-0.729,0.185-1.046c0.124-0.32,0.298-0.595,0.522-0.826s0.492-0.411,0.805-0.539c0.313-0.128,0.657-0.193,1.032-0.193
	c0.191,0,0.371,0.018,0.539,0.053c0.17,0.033,0.329,0.079,0.476,0.14c0.147,0.058,0.282,0.129,0.406,0.213
	c0.124,0.084,0.233,0.175,0.329,0.273l-0.399,0.536c-0.026,0.033-0.056,0.063-0.091,0.091c-0.035,0.026-0.084,0.038-0.147,0.038
	c-0.042,0-0.082-0.009-0.119-0.028c-0.037-0.018-0.077-0.04-0.119-0.066c-0.042-0.028-0.089-0.057-0.14-0.088
	c-0.049-0.032-0.109-0.061-0.179-0.087c-0.068-0.028-0.148-0.051-0.241-0.07c-0.091-0.019-0.198-0.028-0.322-0.028
	c-0.196,0-0.376,0.036-0.539,0.108c-0.161,0.073-0.301,0.179-0.42,0.319c-0.117,0.138-0.208,0.308-0.273,0.511
	c-0.063,0.201-0.095,0.43-0.095,0.689c0,0.262,0.035,0.494,0.105,0.697c0.072,0.203,0.169,0.374,0.29,0.514
	c0.124,0.138,0.267,0.243,0.431,0.315c0.163,0.073,0.338,0.109,0.525,0.109c0.107,0,0.205-0.005,0.294-0.014
	c0.089-0.012,0.171-0.029,0.248-0.053c0.077-0.025,0.149-0.058,0.217-0.098c0.068-0.042,0.137-0.094,0.207-0.157
	c0.028-0.023,0.058-0.042,0.091-0.056C8.321,153.189,8.355,153.18,8.39,153.18z M10.394,151.189c0.131-0.112,0.272-0.202,0.424-0.27
	c0.154-0.07,0.337-0.105,0.55-0.105c0.198,0,0.373,0.035,0.525,0.105c0.154,0.068,0.284,0.164,0.389,0.287
	c0.105,0.122,0.184,0.268,0.238,0.438c0.054,0.168,0.08,0.351,0.08,0.549v2.307h-1.085v-2.307c0-0.177-0.041-0.315-0.122-0.413
	c-0.082-0.1-0.202-0.15-0.361-0.15c-0.119,0-0.231,0.026-0.336,0.077c-0.103,0.049-0.203,0.117-0.301,0.203v2.59H9.309v-5.24h1.085
	V151.189z M15.068,153.023c-0.217,0.009-0.396,0.028-0.536,0.056c-0.14,0.028-0.251,0.063-0.332,0.105
	c-0.082,0.042-0.139,0.09-0.172,0.143c-0.03,0.054-0.045,0.112-0.045,0.175c0,0.124,0.034,0.212,0.101,0.263
	c0.068,0.049,0.167,0.073,0.297,0.073c0.14,0,0.263-0.024,0.368-0.073c0.105-0.049,0.211-0.128,0.319-0.238V153.023z
	 M13.115,151.374c0.219-0.193,0.462-0.337,0.728-0.43c0.268-0.096,0.555-0.144,0.861-0.144c0.219,0,0.417,0.037,0.592,0.109
	c0.177,0.07,0.327,0.169,0.448,0.297c0.124,0.126,0.218,0.277,0.283,0.452c0.065,0.175,0.098,0.366,0.098,0.574v2.268h-0.497
	c-0.103,0-0.181-0.014-0.234-0.042c-0.051-0.028-0.094-0.086-0.13-0.175l-0.077-0.2c-0.091,0.077-0.179,0.145-0.262,0.203
	c-0.084,0.059-0.172,0.109-0.262,0.151c-0.089,0.04-0.184,0.069-0.287,0.088c-0.1,0.021-0.212,0.031-0.336,0.031
	c-0.166,0-0.316-0.021-0.451-0.063c-0.135-0.044-0.251-0.109-0.347-0.193c-0.093-0.084-0.166-0.187-0.217-0.311
	c-0.051-0.126-0.077-0.271-0.077-0.434c0-0.131,0.033-0.263,0.098-0.396c0.065-0.135,0.179-0.257,0.34-0.367
	c0.161-0.112,0.378-0.205,0.651-0.28c0.273-0.075,0.617-0.117,1.033-0.126v-0.154c0-0.212-0.044-0.365-0.133-0.459
	c-0.086-0.095-0.21-0.143-0.371-0.143c-0.128,0-0.233,0.014-0.315,0.042c-0.082,0.028-0.155,0.059-0.22,0.094
	c-0.063,0.035-0.125,0.067-0.186,0.095c-0.061,0.028-0.133,0.042-0.217,0.042c-0.075,0-0.138-0.019-0.189-0.056
	c-0.051-0.037-0.093-0.082-0.126-0.133L13.115,151.374z M17.715,151.262c0.07-0.065,0.142-0.126,0.217-0.182
	c0.075-0.056,0.154-0.102,0.238-0.14c0.086-0.039,0.178-0.07,0.277-0.091c0.1-0.023,0.209-0.035,0.325-0.035
	c0.198,0,0.373,0.035,0.525,0.105c0.154,0.068,0.283,0.164,0.388,0.287c0.105,0.122,0.184,0.268,0.238,0.438
	c0.054,0.168,0.08,0.351,0.08,0.549v2.307h-1.085v-2.307c0-0.177-0.041-0.315-0.123-0.413c-0.082-0.1-0.202-0.15-0.36-0.15
	c-0.119,0-0.231,0.026-0.336,0.077c-0.103,0.049-0.203,0.117-0.301,0.203v2.59h-1.085v-3.63h0.672c0.135,0,0.224,0.061,0.266,0.182
	L17.715,151.262z M25.06,150.436c-0.035,0.056-0.072,0.098-0.112,0.126c-0.037,0.028-0.086,0.042-0.147,0.042
	c-0.054,0-0.112-0.016-0.175-0.049c-0.061-0.035-0.131-0.073-0.21-0.115c-0.077-0.042-0.166-0.079-0.266-0.112
	c-0.1-0.035-0.215-0.053-0.343-0.053c-0.222,0-0.387,0.048-0.497,0.144c-0.107,0.093-0.161,0.22-0.161,0.381
	c0,0.103,0.033,0.188,0.098,0.256c0.065,0.068,0.151,0.126,0.256,0.175c0.107,0.049,0.229,0.094,0.364,0.136
	c0.138,0.04,0.278,0.086,0.42,0.137c0.142,0.049,0.281,0.107,0.417,0.175c0.138,0.068,0.259,0.154,0.364,0.259
	c0.107,0.105,0.194,0.233,0.259,0.385c0.065,0.149,0.098,0.33,0.098,0.542c0,0.236-0.041,0.457-0.122,0.662
	c-0.082,0.205-0.201,0.385-0.357,0.539c-0.154,0.152-0.345,0.272-0.574,0.36c-0.226,0.087-0.484,0.13-0.774,0.13
	c-0.159,0-0.321-0.016-0.486-0.049c-0.163-0.033-0.322-0.078-0.476-0.137c-0.154-0.06-0.299-0.131-0.434-0.213
	c-0.135-0.082-0.253-0.173-0.354-0.273l0.35-0.553c0.028-0.04,0.064-0.072,0.108-0.098c0.047-0.028,0.097-0.042,0.15-0.042
	c0.07,0,0.14,0.022,0.21,0.066c0.072,0.045,0.153,0.094,0.242,0.147c0.091,0.054,0.195,0.103,0.311,0.147
	c0.117,0.045,0.254,0.067,0.413,0.067c0.215,0,0.382-0.047,0.5-0.14c0.119-0.096,0.179-0.246,0.179-0.452
	c0-0.119-0.033-0.215-0.098-0.29c-0.065-0.075-0.152-0.137-0.259-0.186c-0.105-0.049-0.225-0.092-0.361-0.129
	c-0.135-0.037-0.274-0.078-0.417-0.123c-0.142-0.046-0.281-0.102-0.417-0.168c-0.135-0.067-0.257-0.155-0.364-0.262
	c-0.105-0.11-0.19-0.245-0.255-0.406c-0.065-0.163-0.098-0.364-0.098-0.602c0-0.191,0.038-0.378,0.115-0.56
	c0.077-0.182,0.19-0.344,0.34-0.487c0.149-0.142,0.332-0.255,0.549-0.339c0.217-0.086,0.465-0.13,0.746-0.13
	c0.156,0,0.308,0.013,0.455,0.039c0.149,0.023,0.29,0.059,0.424,0.108c0.133,0.047,0.257,0.104,0.371,0.172
	c0.117,0.065,0.221,0.14,0.312,0.224L25.06,150.436z M26.911,153.513c0.082,0.089,0.17,0.152,0.266,0.189
	c0.096,0.037,0.196,0.056,0.301,0.056c0.1,0,0.193-0.02,0.277-0.06c0.084-0.039,0.156-0.102,0.217-0.189
	c0.063-0.088,0.112-0.203,0.147-0.343s0.052-0.31,0.052-0.511c0-0.191-0.014-0.352-0.042-0.483c-0.028-0.13-0.068-0.235-0.119-0.315
	c-0.049-0.081-0.109-0.14-0.179-0.175c-0.07-0.035-0.148-0.052-0.234-0.052c-0.159,0-0.289,0.029-0.392,0.087
	c-0.103,0.059-0.201,0.144-0.294,0.256V153.513z M26.844,151.318c0.142-0.151,0.303-0.275,0.483-0.371
	c0.182-0.098,0.398-0.147,0.648-0.147c0.189,0,0.364,0.042,0.525,0.126c0.161,0.084,0.3,0.206,0.417,0.364
	c0.117,0.159,0.208,0.354,0.273,0.585c0.068,0.229,0.102,0.489,0.102,0.78c0,0.273-0.039,0.525-0.116,0.756
	c-0.075,0.231-0.181,0.432-0.318,0.602c-0.135,0.171-0.299,0.304-0.49,0.399c-0.189,0.096-0.399,0.144-0.63,0.144
	c-0.189,0-0.348-0.027-0.476-0.081c-0.128-0.053-0.245-0.126-0.35-0.217v1.394h-1.085v-4.782h0.672c0.135,0,0.224,0.061,0.266,0.182
	L26.844,151.318z M30.832,149.26v5.24h-1.085v-5.24H30.832z M32.57,150.87v3.63h-1.085v-3.63H32.57z M32.682,149.876
	c0,0.087-0.018,0.168-0.053,0.245c-0.035,0.075-0.083,0.142-0.143,0.2c-0.061,0.056-0.132,0.101-0.214,0.136
	c-0.079,0.033-0.165,0.049-0.256,0.049c-0.089,0-0.171-0.016-0.248-0.049c-0.077-0.035-0.146-0.08-0.207-0.136
	c-0.058-0.058-0.105-0.125-0.14-0.2c-0.033-0.077-0.049-0.158-0.049-0.245c0-0.088,0.016-0.171,0.049-0.248
	c0.035-0.077,0.082-0.145,0.14-0.203c0.061-0.058,0.13-0.104,0.207-0.137c0.077-0.032,0.16-0.049,0.248-0.049
	c0.091,0,0.176,0.017,0.256,0.049c0.082,0.033,0.153,0.079,0.214,0.137c0.061,0.058,0.108,0.126,0.143,0.203
	C32.664,149.705,32.682,149.788,32.682,149.876z M34.52,154.556c-0.173,0-0.326-0.024-0.458-0.074
	c-0.131-0.051-0.241-0.122-0.333-0.213c-0.089-0.093-0.156-0.205-0.203-0.336c-0.047-0.131-0.07-0.277-0.07-0.438v-1.876h-0.308
	c-0.056,0-0.104-0.017-0.144-0.052c-0.04-0.037-0.059-0.091-0.059-0.161v-0.423l0.577-0.113l0.213-0.885
	c0.028-0.112,0.107-0.168,0.238-0.168h0.567v1.06h0.9v0.742h-0.9v1.803c0,0.084,0.02,0.154,0.06,0.21
	c0.042,0.054,0.102,0.08,0.179,0.08c0.04,0,0.072-0.003,0.098-0.01c0.028-0.009,0.051-0.019,0.07-0.028
	c0.021-0.012,0.04-0.021,0.056-0.028c0.019-0.009,0.04-0.014,0.063-0.014c0.033,0,0.058,0.008,0.077,0.024
	c0.021,0.014,0.042,0.038,0.063,0.07l0.329,0.515c-0.14,0.105-0.297,0.184-0.472,0.238C34.888,154.53,34.707,154.556,34.52,154.556z
	"/>
<g class="st3">
	<rect x="2" y="156.5" width="36" height="1"/>
</g>
<path class="st1" d="M3.5,158h33c0.552,0,1,0.448,1,1v6c0,0.552-0.448,1-1,1h-33c-0.552,0-1-0.448-1-1v-6
	C2.5,158.448,2.948,158,3.5,158z"/>
<path class="st2" d="M3.5,158h33c0.552,0,1,0.448,1,1v6c0,0.552-0.448,1-1,1h-33c-0.552,0-1-0.448-1-1v-6
	C2.5,158.448,2.948,158,3.5,158z"/>
<path d="M17.919,161.948c0,0.369-0.064,0.71-0.192,1.022c-0.126,0.311-0.305,0.58-0.536,0.809c-0.231,0.226-0.51,0.404-0.836,0.532
	c-0.324,0.126-0.685,0.189-1.082,0.189h-1.981v-5.1h1.981c0.397,0,0.757,0.065,1.082,0.193c0.327,0.128,0.605,0.306,0.836,0.532
	c0.231,0.226,0.41,0.496,0.536,0.808C17.855,161.244,17.919,161.582,17.919,161.948z M16.708,161.948
	c0-0.252-0.033-0.479-0.098-0.682c-0.065-0.203-0.16-0.375-0.284-0.515c-0.121-0.142-0.271-0.25-0.448-0.325
	c-0.177-0.077-0.379-0.116-0.606-0.116h-0.791v3.28h0.791c0.226,0,0.428-0.037,0.606-0.112c0.177-0.077,0.327-0.186,0.448-0.326
	c0.124-0.142,0.218-0.315,0.284-0.518S16.708,162.203,16.708,161.948z M21.6,160.87v3.63h-0.672c-0.135,0-0.224-0.061-0.266-0.182
	l-0.063-0.21c-0.07,0.068-0.142,0.129-0.217,0.185c-0.075,0.054-0.155,0.101-0.241,0.14c-0.084,0.038-0.176,0.067-0.277,0.088
	c-0.098,0.023-0.205,0.035-0.322,0.035c-0.198,0-0.374-0.034-0.528-0.102c-0.152-0.07-0.28-0.166-0.385-0.29
	c-0.105-0.124-0.184-0.27-0.238-0.438c-0.054-0.168-0.08-0.352-0.08-0.553v-2.303h1.085v2.303c0,0.18,0.041,0.319,0.122,0.417
	c0.082,0.098,0.202,0.147,0.361,0.147c0.119,0,0.23-0.025,0.333-0.074c0.105-0.051,0.206-0.12,0.305-0.206v-2.587H21.6z
	 M24.105,163.023c-0.217,0.009-0.396,0.028-0.535,0.056s-0.251,0.063-0.333,0.105c-0.082,0.042-0.139,0.09-0.171,0.143
	c-0.03,0.054-0.045,0.112-0.045,0.175c0,0.124,0.034,0.212,0.101,0.263c0.068,0.049,0.167,0.073,0.298,0.073
	c0.14,0,0.262-0.024,0.368-0.073c0.105-0.049,0.211-0.128,0.318-0.238V163.023z M22.152,161.374c0.219-0.193,0.462-0.337,0.728-0.43
	c0.268-0.096,0.555-0.144,0.861-0.144c0.219,0,0.417,0.037,0.592,0.109c0.177,0.07,0.327,0.169,0.448,0.297
	c0.124,0.126,0.218,0.277,0.283,0.452c0.065,0.175,0.098,0.366,0.098,0.574v2.268h-0.497c-0.103,0-0.181-0.014-0.235-0.042
	c-0.051-0.028-0.094-0.086-0.129-0.175l-0.077-0.2c-0.091,0.077-0.179,0.145-0.263,0.203c-0.084,0.059-0.171,0.109-0.263,0.151
	c-0.089,0.04-0.184,0.069-0.287,0.088c-0.1,0.021-0.212,0.031-0.336,0.031c-0.166,0-0.316-0.021-0.451-0.063
	c-0.135-0.044-0.251-0.109-0.347-0.193c-0.093-0.084-0.166-0.187-0.217-0.311c-0.051-0.126-0.077-0.271-0.077-0.434
	c0-0.131,0.033-0.263,0.098-0.396c0.065-0.135,0.178-0.257,0.339-0.367c0.161-0.112,0.378-0.205,0.651-0.28
	c0.273-0.075,0.617-0.117,1.032-0.126v-0.154c0-0.212-0.044-0.365-0.133-0.459c-0.086-0.095-0.21-0.143-0.371-0.143
	c-0.128,0-0.233,0.014-0.315,0.042c-0.082,0.028-0.155,0.059-0.22,0.094c-0.063,0.035-0.125,0.067-0.186,0.095
	c-0.061,0.028-0.133,0.042-0.217,0.042c-0.075,0-0.138-0.019-0.189-0.056c-0.051-0.037-0.093-0.082-0.126-0.133L22.152,161.374z
	 M26.836,159.26v5.24H25.75v-5.24H26.836z"/>
<path d="M2.5,127h35v-1h-35V127z M39,128.5v37h1v-37H39z M37.5,167h-35v1h35V167z M1,165.5v-37H0v37H1z M2.5,167
	c-0.828,0-1.5-0.672-1.5-1.5H0c0,1.381,1.119,2.5,2.5,2.5V167z M39,165.5c0,0.828-0.672,1.5-1.5,1.5v1c1.381,0,2.5-1.119,2.5-2.5H39
	z M37.5,127c0.828,0,1.5,0.672,1.5,1.5h1c0-1.381-1.119-2.5-2.5-2.5V127z M2.5,126c-1.381,0-2.5,1.119-2.5,2.5h1
	c0-0.828,0.672-1.5,1.5-1.5V126z"/>
</svg>
