<svg width="16" height="24" viewBox="0 0 16 24" fill="none" xmlns="http://www.w3.org/2000/svg">
<path d="M15.5 2.5C15.5 1.39543 14.6046 0.5 13.5 0.5H0.5V11.5H13.5C14.6046 11.5 15.5 10.6046 15.5 9.5V2.5Z" fill="#595959"/>
<path d="M15.5 2.5C15.5 1.39543 14.6046 0.5 13.5 0.5H0.5V11.5H13.5C14.6046 11.5 15.5 10.6046 15.5 9.5V2.5Z" stroke="black"/>
<path d="M7.75003 4C8.9771 4 10.0631 4.55697 10.7472 5.41454L12 4.23525V8H7.99975L9.36069 6.71927C8.99908 5.68702 7.96783 4.94116 6.75011 4.94116C5.2305 4.94116 4 6.10018 4 7.52948C3.99998 5.57998 5.67883 4 7.75003 4Z" fill="#B4B4B4"/>
<path d="M15.5 14.5C15.5 13.3954 14.6046 12.5 13.5 12.5H0.5V23.5H13.5C14.6046 23.5 15.5 22.6046 15.5 21.5V14.5Z" fill="#595959"/>
<path d="M13.5 15.5C13.5 14.9477 13.0523 14.5 12.5 14.5H2.5V21.5H12.5C13.0523 21.5 13.5 21.0523 13.5 20.5V15.5Z" fill="#595959"/>
<path d="M13.5 15.5C13.5 14.9477 13.0523 14.5 12.5 14.5H2.5V21.5H12.5C13.0523 21.5 13.5 21.0523 13.5 20.5V15.5Z" stroke="#595959"/>
<path d="M15.5 14.5C15.5 13.3954 14.6046 12.5 13.5 12.5H0.5V23.5H13.5C14.6046 23.5 15.5 22.6046 15.5 21.5V14.5Z" stroke="black"/>
<path d="M7.75003 16C8.9771 16 10.0631 16.557 10.7472 17.4145L12 16.2353V20H7.99975L9.36069 18.7193C8.99908 17.687 7.96783 16.9412 6.75011 16.9412C5.2305 16.9412 4 18.1002 4 19.5295C3.99998 17.58 5.67883 16 7.75003 16Z" fill="#B4B4B4"/>
</svg>
