<?xml version="1.0" encoding="utf-8"?>
<!-- Generator: Adobe Illustrator 22.0.0, SVG Export Plug-In . SVG Version: 6.00 Build 0)  -->
<svg version="1.1" baseProfile="basic"
	 id="svg662" inkscape:version="1.1 (c68e22c387, 2021-05-23)" sodipodi:docname="bmp00166.svg" xmlns:inkscape="http://www.inkscape.org/namespaces/inkscape" xmlns:sodipodi="http://sodipodi.sourceforge.net/DTD/sodipodi-0.dtd" xmlns:svg="http://www.w3.org/2000/svg"
	 xmlns="http://www.w3.org/2000/svg" xmlns:xlink="http://www.w3.org/1999/xlink" x="0px" y="0px" width="51px" height="760px"
	 viewBox="0 0 51 760" xml:space="preserve">
<style type="text/css">
	.st0{fill:#595959;}
	.st1{fill:#399DFF;}
	.st2{fill:#FF9300;stroke:#FF9300;}
	.st3{opacity:0.75;}
	.st4{fill:none;stroke:#B4B4B4;stroke-linecap:round;}
	.st5{fill:none;stroke:#B4B4B4;stroke-linecap:round;stroke-linejoin:round;}
	.st6{fill:#B4B4B4;}
	.st7{fill:none;stroke:#000001;stroke-linecap:round;}
	.st8{fill:none;stroke:#B4B4B4;stroke-width:0.75;}
	.st9{fill:#FF9300;}
	.st10{fill:none;stroke:#FF9300;}
	.st11{fill:none;stroke:#000001;stroke-linecap:round;stroke-linejoin:round;}
	.st12{fill:none;stroke:#000001;stroke-width:0.75;}
	.st13{fill:#000001;}
</style>
<sodipodi:namedview  bordercolor="#666666" borderopacity="1.0" id="namedview664" inkscape:current-layer="svg662" inkscape:cx="25.101493" inkscape:cy="701.63112" inkscape:pagecheckerboard="0" inkscape:pageopacity="0.0" inkscape:pageshadow="2" inkscape:window-height="1017" inkscape:window-maximized="1" inkscape:window-width="1920" inkscape:window-x="-8" inkscape:window-y="-8" inkscape:zoom="6.1948506" pagecolor="#ffffff" showgrid="false">
	</sodipodi:namedview>
<path id="path2" class="st0" d="M0.5,2.5c0-1.1,0.9-2,2-2h46c1.1,0,2,0.9,2,2v71c0,1.1-0.9,2-2,2h-46c-1.1,0-2-0.9-2-2V2.5z"/>
<rect id="rect4" x="2.5" y="2.5" class="st1" width="21" height="11"/>
<path id="rect6" class="st1" d="M3.5,2.5h19c0.6,0,1,0.4,1,1v9c0,0.6-0.4,1-1,1h-19c-0.6,0-1-0.4-1-1v-9C2.5,2.9,2.9,2.5,3.5,2.5z"
	/>
<path id="rect8" class="st2" d="M3.5,2.5h19c0.6,0,1,0.4,1,1v9c0,0.6-0.4,1-1,1h-19c-0.6,0-1-0.4-1-1v-9C2.5,2.9,2.9,2.5,3.5,2.5z"
	/>
<g id="g12" class="st3">
	<rect id="rect10" x="1" y="15" width="24" height="1"/>
</g>
<g id="g16" class="st3">
	<rect id="rect14" x="1" y="30" width="24" height="1"/>
</g>
<g id="g20" class="st3">
	<rect id="rect18" x="1" y="45" width="24" height="1"/>
</g>
<g id="g24" class="st3">
	<rect id="rect22" x="1" y="60" width="24" height="1"/>
</g>
<g id="g28" class="st3">
	<rect id="rect26" x="25" y="1" width="1" height="74"/>
</g>
<g id="g32" class="st3">
	<rect id="rect30" x="26" y="15" width="24" height="1"/>
</g>
<g id="g36" class="st3">
	<rect id="rect34" x="26" y="30" width="24" height="1"/>
</g>
<g id="g40" class="st3">
	<rect id="rect38" x="26" y="45" width="24" height="1"/>
</g>
<g id="g44" class="st3">
	<rect id="rect42" x="26" y="60" width="24" height="1"/>
</g>
<path id="path46" class="st4" d="M46.5,8l-4,4l-8-8l-4.3,4"/>
<path id="path48" class="st5" d="M38.4,19l8,8 M30.4,27v-8V27z M38.4,19v8V19z M30.4,19l8,8L30.4,19z"/>
<path id="path50" class="st5" d="M39.4,41h2 M31.4,38v-4V38z M39.4,41v-6V41z M33.4,34v3V34z M43.4,36v1.5V36z M35.4,37v5V37z
	 M41.4,37.5V41V37.5z M45.4,36v4V36z M37.4,35v7V35z M31.4,34h2H31.4z M33.4,37h2H33.4z M35.4,42h2H35.4z M37.4,35h2H37.4z
	 M41.4,37.5h2H41.4z M43.4,36h2H43.4z M29.4,38h2H29.4z M45.4,40h2H45.4z"/>
<path id="path52" class="st6" d="M29,58h2v-5h-2V58z M45.8,58h2v-5h-2V58z M33.1,56h-2v-3h2V56z M45.7,56h-2v-3h2V56z M33.2,53.3h2
	v-0.5h-2V53.3z M43.6,53.3h-2v-0.5h2V53.3z M35.3,53h2v-3h-2V53z M39.4,53h-2v-5h2V53z M39.5,53h2v-3h-2V53z"/>
<path id="path54" class="st6" d="M31.3,69.1l0.3-1.4H32l0.1-0.3h-0.4c0.1-0.5,0.3-0.9,0.5-1.1c0.1-0.1,0.2-0.2,0.4-0.2
	c0,0,0,0,0.1,0c0,0,0,0,0,0.1c0,0,0,0.1,0,0.1s0,0.1,0,0.2c0,0.1,0,0.1,0.1,0.2s0.1,0.1,0.2,0.1c0.1,0,0.2,0,0.2-0.1
	c0.1-0.1,0.1-0.1,0.1-0.2c0-0.1,0-0.2-0.1-0.3c-0.1-0.1-0.2-0.1-0.4-0.1c-0.3,0-0.6,0.1-0.8,0.3c-0.2,0.2-0.5,0.5-0.7,0.9
	c-0.1,0.1-0.1,0.2-0.2,0.3c-0.1,0-0.2,0.1-0.3,0.1l-0.1,0.3h0.4l-0.6,2.3c-0.1,0.4-0.2,0.6-0.2,0.7c-0.1,0.1-0.1,0.2-0.2,0.3
	c0,0-0.1,0.1-0.1,0.1c0,0,0,0,0,0l0,0c0,0,0,0,0-0.1c0,0,0-0.1,0-0.1c0-0.1,0-0.1-0.1-0.2c0,0-0.1-0.1-0.2-0.1c-0.1,0-0.2,0-0.3,0.1
	c-0.1,0.1-0.1,0.1-0.1,0.2c0,0.1,0,0.2,0.1,0.2s0.2,0.1,0.4,0.1c0.3,0,0.5-0.1,0.7-0.2c0.2-0.1,0.4-0.4,0.5-0.6
	C31,70.2,31.1,69.8,31.3,69.1z M46.3,67.8l0.5-1.8h-0.2l-1,0.2l0,0.1c0.1,0,0.2,0,0.2,0c0,0,0.1,0.1,0.1,0.1c0,0.1,0,0.2-0.1,0.3
	l-0.9,3.1c0.4,0.2,0.7,0.3,1,0.3c0.4,0,0.8-0.2,1.2-0.5c0.4-0.4,0.6-0.9,0.6-1.4c0-0.2-0.1-0.4-0.2-0.6c-0.1-0.2-0.3-0.3-0.5-0.3
	c-0.1,0-0.2,0-0.3,0.1C46.6,67.5,46.4,67.6,46.3,67.8z M41.7,67.9h1.4v-1.4h0.4v1.4h1.4v0.4h-1.4v1.4h-0.4v-1.4h-1.4V67.9z
	 M38.3,67.4l-0.6,1.9l-0.1,0.2c0,0,0,0.1,0,0.1c0,0,0,0,0,0.1c0,0,0,0,0.1,0c0,0,0.1,0,0.2-0.1c0,0,0.1-0.1,0.2-0.3l0.1,0.1
	c-0.1,0.3-0.3,0.4-0.4,0.6c-0.2,0.1-0.3,0.2-0.5,0.2c-0.1,0-0.2,0-0.3-0.1C37,70,37,69.9,37,69.9c0-0.1,0-0.2,0.1-0.4l0.1-0.2
	c-0.2,0.4-0.4,0.7-0.7,0.8c-0.1,0.1-0.3,0.1-0.4,0.1c-0.2,0-0.3-0.1-0.4-0.2c-0.1-0.1-0.1-0.3-0.1-0.5c0-0.3,0.1-0.6,0.3-0.9
	c0.2-0.4,0.4-0.6,0.7-0.9c0.2-0.2,0.4-0.3,0.6-0.3c0.1,0,0.2,0,0.3,0.1c0.1,0.1,0.1,0.2,0.1,0.3l0.1-0.4L38.3,67.4z M39.8,67.4
	l-1,0.2l0,0.1c0.1,0,0.1,0,0.2,0c0.1,0,0.2,0,0.3,0.1c0.1,0.1,0.3,0.6,0.4,1.2c-0.1,0.2-0.2,0.3-0.3,0.4c-0.1,0.1-0.2,0.2-0.2,0.2
	c0,0-0.1,0-0.2,0c0,0-0.1,0-0.2-0.1c-0.1,0-0.1,0-0.2,0c-0.1,0-0.2,0-0.2,0.1c-0.1,0.1-0.1,0.1-0.1,0.2c0,0.1,0,0.2,0.1,0.2
	c0.1,0.1,0.1,0.1,0.2,0.1c0.1,0,0.2,0,0.3-0.1c0.1,0,0.2-0.1,0.3-0.3c0.1-0.1,0.3-0.3,0.5-0.6c0.1,0.3,0.2,0.5,0.2,0.6
	c0.1,0.1,0.1,0.2,0.2,0.3c0.1,0.1,0.2,0.1,0.3,0.1c0.1,0,0.2,0,0.4-0.1c0.2-0.1,0.3-0.3,0.5-0.6l-0.1-0.1c-0.1,0.2-0.2,0.3-0.3,0.3
	c0,0-0.1,0-0.1,0c-0.1,0-0.1,0-0.2-0.1c-0.1-0.1-0.2-0.5-0.4-1.1c0.1-0.3,0.3-0.4,0.4-0.5c0.1-0.1,0.2-0.1,0.2-0.1c0,0,0.1,0,0.2,0
	c0.1,0,0.2,0,0.2,0c0.1,0,0.2,0,0.2-0.1c0.1-0.1,0.1-0.1,0.1-0.2c0-0.1,0-0.2-0.1-0.2c-0.1-0.1-0.1-0.1-0.2-0.1
	c-0.1,0-0.2,0-0.3,0.1c-0.1,0-0.2,0.1-0.3,0.3c-0.1,0.1-0.2,0.3-0.4,0.6C40.1,68,40,67.7,39.8,67.4z M35.5,67.4h-3.2v0.4h3.2V67.4z
	 M37.4,68c0-0.2,0-0.3-0.1-0.3c0,0-0.1-0.1-0.1-0.1c-0.1,0-0.1,0-0.2,0.1c-0.1,0.1-0.3,0.4-0.4,0.7s-0.2,0.7-0.2,1
	c0,0.1,0,0.2,0.1,0.2s0.1,0.1,0.1,0.1c0.1,0,0.2-0.1,0.3-0.2c0.1-0.1,0.2-0.3,0.3-0.5C37.3,68.6,37.4,68.2,37.4,68z M45.9,70
	c-0.1,0-0.2,0-0.2-0.1l0.4-1.4c0.1-0.3,0.2-0.5,0.2-0.5c0.1-0.1,0.2-0.2,0.4-0.2c0.1,0,0.2,0,0.2,0.1c0.1,0.1,0.1,0.2,0.1,0.3
	c0,0.2,0,0.5-0.1,0.7c-0.1,0.2-0.2,0.5-0.3,0.6c-0.1,0.2-0.2,0.3-0.4,0.4C46.1,70,46,70,45.9,70z M35.5,68.4h-3.2v0.4h3.2V68.4z"/>
<path id="path56" class="st7" d="M4.7,8C5.3,3.5,9,4,9,4 M13,8c-0.6-4.5-4.5-4-4.5-4 M13,8c0.6,4.5,4.4,4,4.5,4 M21.3,8
	c-0.6,4.5-4.5,4-4.5,4"/>
<path id="path58" class="st5" d="M13,26.5h8 M5,26.5v-7V26.5z M13,19.5v7V19.5z M21,19.5v7V19.5z M5,19.5h8H5z"/>
<path id="path60" class="st8" d="M4,37.1c0-1,0.7-4.6,1-4C5.3,33.7,5.4,39,5.9,40s0.6-3.5,1.1-2.9c0.5,0.6,0.3,5.7,0.8,5.2
	c0.5-0.5,0.7-6.4,1.2-7.2c0.6-0.8,0.5,4.3,1,4c0.5-0.3,0.6-5.6,1.1-5.1s0.4,6,0.9,7.1c0.5,1,0.5-3.3,1-3c0.5,0.3,0.5,4.7,1,4
	c0.5-0.7,0.4-6.2,0.9-6.9s0.6,4.2,1.1,3.9c0.5-0.3,0.3-5.5,0.8-5c0.5,0.5,0.6,6,1.2,7c0.5,1,0.5-2.7,1-3c0.5-0.3,0.4,3.2,0.9,1.9
	c0.5-1.3,0.5-6.2,1.1-6.9c0.5-0.7,1,4,1,4"/>
<path id="path62" class="st5" d="M18,52.9l3,4 M5,56.9l3-8L5,56.9z M18,52.9h-7H18z M8,48.9l3,4L8,48.9z"/>
<path id="path64" class="st6" d="M11,64.5c0-0.3,0.2-0.5,0.5-0.5s0.5,0.2,0.5,0.5S11.8,65,11.5,65S11,64.8,11,64.5z M11,65.4
	c-0.4,0.2-0.8,0.4-1.1,0.9c-0.5,0.6-0.8,1.5-1.2,2.5l0,0c-0.4,0.9-0.8,1.9-1.3,2.7c-0.5,0.6-1.1,1.1-2,1.3c-0.2,0.3-0.5,0.6-0.9,0.6
	c-0.6,0-1-0.4-1-1s0.4-1,1-1c0.3,0,0.6,0.2,0.8,0.4c0.5-0.1,0.9-0.4,1.2-0.9c0.5-0.6,0.8-1.5,1.2-2.5l0,0c0.4-0.9,0.8-1.9,1.3-2.7
	c0.4-0.5,0.8-0.9,1.4-1.1c0-0.6,0.4-1,1-1c0.6,0,1,0.4,1,1c0,0.2,0,0.3-0.1,0.5c0,0.1,0.1,0.2,0.2,0.4c0.2,0.5,0.5,1.1,0.9,1.7
	c0.4,0.6,0.8,1.2,1.2,1.6c0.2,0.2,0.4,0.3,0.5,0.4c0.1,0,0.2-0.1,0.3-0.1c0,0,0,0,0.1,0c0-0.1,0.1-0.1,0.1-0.2
	c0.2-0.4,0.6-1,1.1-1.6c0.7-0.9,1.6-1.8,2.8-2.2c0.1-0.4,0.5-0.7,1-0.7c0.6,0,1,0.4,1,1s-0.4,1-1,1c-0.3,0-0.5-0.1-0.7-0.3
	c-0.9,0.3-1.6,1.1-2.3,1.9c-0.4,0.5-0.7,1.1-1,1.5c-0.1,0.1-0.1,0.2-0.1,0.3c0.1,0.1,0.1,0.3,0.1,0.4c0,0.6-0.4,1-1,1
	c-0.6,0-1-0.4-1-1c0-0.1,0-0.1,0-0.2c-0.2-0.1-0.4-0.3-0.6-0.5c-0.5-0.5-1-1.2-1.4-1.8c-0.4-0.6-0.7-1.3-0.9-1.8
	c0-0.1-0.1-0.2-0.1-0.2c0,0,0,0,0,0C11.3,65.5,11.2,65.5,11,65.4z M4.5,71.8C4.2,71.8,4,72,4,72.3s0.2,0.5,0.5,0.5S5,72.5,5,72.3
	S4.8,71.8,4.5,71.8z M15.5,69.5c-0.3,0-0.5,0.2-0.5,0.5s0.2,0.5,0.5,0.5S16,70.3,16,70S15.8,69.5,15.5,69.5z M20,65.3
	c0-0.3,0.2-0.5,0.5-0.5S21,65,21,65.3s-0.2,0.5-0.5,0.5S20,65.5,20,65.3z"/>
<path id="path66" d="M2.5,1h46V0h-46V1z M50,2.5v71h1v-71H50z M48.5,75h-46v1h46V75z M1,73.5v-71H0v71H1z M2.5,75
	C1.7,75,1,74.3,1,73.5H0C0,74.9,1.1,76,2.5,76V75z M50,73.5c0,0.8-0.7,1.5-1.5,1.5v1c1.4,0,2.5-1.1,2.5-2.5H50z M48.5,1
	C49.3,1,50,1.7,50,2.5h1C51,1.1,49.9,0,48.5,0V1z M2.5,0C1.1,0,0,1.1,0,2.5h1C1,1.7,1.7,1,2.5,1V0z"/>
<path id="path68" class="st0" d="M0.5,78.5c0-1.1,0.9-2,2-2h46c1.1,0,2,0.9,2,2v71c0,1.1-0.9,2-2,2h-46c-1.1,0-2-0.9-2-2V78.5z"/>
<g id="g72" class="st3">
	<rect id="rect70" x="1" y="91" width="24" height="1"/>
</g>
<g id="g76" class="st3">
	<rect id="rect74" x="1" y="106" width="24" height="1"/>
</g>
<g id="g80" class="st3">
	<rect id="rect78" x="1" y="121" width="24" height="1"/>
</g>
<g id="g84" class="st3">
	<rect id="rect82" x="1" y="136" width="24" height="1"/>
</g>
<g id="g88" class="st3">
	<rect id="rect86" x="25" y="77" width="1" height="74"/>
</g>
<rect id="rect90" x="27.5" y="78.5" class="st1" width="21" height="11"/>
<path id="rect92" class="st9" d="M28.5,78.5h19c0.6,0,1,0.4,1,1v9c0,0.6-0.4,1-1,1h-19c-0.6,0-1-0.4-1-1v-9
	C27.5,78.9,27.9,78.5,28.5,78.5z"/>
<path id="rect94" class="st10" d="M28.5,78.5h19c0.6,0,1,0.4,1,1v9c0,0.6-0.4,1-1,1h-19c-0.6,0-1-0.4-1-1v-9
	C27.5,78.9,27.9,78.5,28.5,78.5z"/>
<g id="g98" class="st3">
	<rect id="rect96" x="26" y="91" width="24" height="1"/>
</g>
<g id="g102" class="st3">
	<rect id="rect100" x="26" y="106" width="24" height="1"/>
</g>
<g id="g106" class="st3">
	<rect id="rect104" x="26" y="121" width="24" height="1"/>
</g>
<g id="g110" class="st3">
	<rect id="rect108" x="26" y="136" width="24" height="1"/>
</g>
<path id="path112" class="st7" d="M46.5,84l-4,4l-8-8l-4.3,4"/>
<path id="path114" class="st5" d="M38.4,95l8,8 M30.4,103v-8V103z M38.4,95v8V95z M30.4,95l8,8L30.4,95z"/>
<path id="path116" class="st5" d="M39.4,117h2 M31.4,114v-4V114z M39.4,117v-6V117z M33.4,110v3V110z M43.4,112v1.5V112z M35.4,113
	v5V113z M41.4,113.5v3.5V113.5z M45.4,112v4V112z M37.4,111v7V111z M31.4,110h2H31.4z M33.4,113h2H33.4z M35.4,118h2H35.4z
	 M37.4,111h2H37.4z M41.4,113.5h2H41.4z M43.4,112h2H43.4z M29.4,114h2H29.4z M45.4,116h2H45.4z"/>
<path id="path118" class="st6" d="M29,134h2v-5h-2V134z M45.8,134h2v-5h-2V134z M33.1,132h-2v-3h2V132z M45.7,132h-2v-3h2V132z
	 M33.2,129.3h2v-0.5h-2V129.3z M43.6,129.3h-2v-0.5h2V129.3z M35.3,129h2v-3h-2V129z M39.4,129h-2v-5h2V129z M39.5,129h2v-3h-2V129z
	"/>
<path id="path120" class="st6" d="M31.3,145.1l0.3-1.4H32l0.1-0.3h-0.4c0.1-0.5,0.3-0.9,0.5-1.1c0.1-0.1,0.2-0.2,0.4-0.2
	c0,0,0,0,0.1,0c0,0,0,0,0,0.1c0,0,0,0.1,0,0.1c0,0.1,0,0.1,0,0.2c0,0.1,0,0.1,0.1,0.2c0.1,0,0.1,0.1,0.2,0.1c0.1,0,0.2,0,0.2-0.1
	c0.1-0.1,0.1-0.1,0.1-0.2c0-0.1,0-0.2-0.1-0.3c-0.1-0.1-0.2-0.1-0.4-0.1c-0.3,0-0.6,0.1-0.8,0.3c-0.2,0.2-0.5,0.5-0.7,0.9
	c-0.1,0.1-0.1,0.2-0.2,0.3c-0.1,0-0.2,0.1-0.3,0.1l-0.1,0.3h0.4l-0.6,2.3c-0.1,0.4-0.2,0.6-0.2,0.7c-0.1,0.1-0.1,0.2-0.2,0.3
	c0,0-0.1,0.1-0.1,0.1c0,0,0,0,0,0l0,0c0,0,0,0,0-0.1c0,0,0-0.1,0-0.1c0-0.1,0-0.1-0.1-0.2s-0.1-0.1-0.2-0.1c-0.1,0-0.2,0-0.3,0.1
	c-0.1,0.1-0.1,0.1-0.1,0.2c0,0.1,0,0.2,0.1,0.2c0.1,0.1,0.2,0.1,0.4,0.1c0.3,0,0.5-0.1,0.7-0.2c0.2-0.1,0.4-0.4,0.5-0.6
	C31,146.2,31.1,145.8,31.3,145.1z M46.3,143.8l0.5-1.8h-0.2l-1,0.2l0,0.1c0.1,0,0.2,0,0.2,0c0,0,0.1,0.1,0.1,0.1
	c0,0.1,0,0.2-0.1,0.3l-0.9,3.1c0.4,0.2,0.7,0.3,1,0.3c0.4,0,0.8-0.2,1.2-0.5c0.4-0.4,0.6-0.9,0.6-1.4c0-0.2-0.1-0.4-0.2-0.6
	c-0.1-0.2-0.3-0.3-0.5-0.3c-0.1,0-0.2,0-0.3,0.1C46.6,143.5,46.4,143.6,46.3,143.8z M41.7,143.9h1.4v-1.4h0.4v1.4h1.4v0.4h-1.4v1.4
	h-0.4v-1.4h-1.4V143.9z M38.3,143.4l-0.6,1.9l-0.1,0.2c0,0,0,0.1,0,0.1c0,0,0,0,0,0.1c0,0,0,0,0.1,0c0,0,0.1,0,0.2-0.1
	c0,0,0.1-0.1,0.2-0.3l0.1,0.1c-0.1,0.3-0.3,0.4-0.4,0.6c-0.2,0.1-0.3,0.2-0.5,0.2c-0.1,0-0.2,0-0.3-0.1c-0.1-0.1-0.1-0.1-0.1-0.2
	c0-0.1,0-0.2,0.1-0.4l0.1-0.2c-0.2,0.4-0.4,0.7-0.7,0.8c-0.1,0.1-0.3,0.1-0.4,0.1c-0.2,0-0.3-0.1-0.4-0.2c-0.1-0.1-0.1-0.3-0.1-0.5
	c0-0.3,0.1-0.6,0.3-0.9c0.2-0.4,0.4-0.6,0.7-0.9c0.2-0.2,0.4-0.3,0.6-0.3c0.1,0,0.2,0,0.3,0.1c0.1,0.1,0.1,0.2,0.1,0.3l0.1-0.4
	L38.3,143.4z M39.8,143.4l-1,0.2l0,0.1c0.1,0,0.1,0,0.2,0c0.1,0,0.2,0,0.3,0.1c0.1,0.1,0.3,0.6,0.4,1.2c-0.1,0.2-0.2,0.3-0.3,0.4
	c-0.1,0.1-0.2,0.2-0.2,0.2c0,0-0.1,0-0.2,0c0,0-0.1,0-0.2-0.1c-0.1,0-0.1,0-0.2,0c-0.1,0-0.2,0-0.2,0.1c-0.1,0.1-0.1,0.1-0.1,0.2
	c0,0.1,0,0.2,0.1,0.2c0.1,0.1,0.1,0.1,0.2,0.1c0.1,0,0.2,0,0.3-0.1c0.1,0,0.2-0.1,0.3-0.3c0.1-0.1,0.3-0.3,0.5-0.6
	c0.1,0.3,0.2,0.5,0.2,0.6c0.1,0.1,0.1,0.2,0.2,0.3c0.1,0.1,0.2,0.1,0.3,0.1c0.1,0,0.2,0,0.4-0.1c0.2-0.1,0.3-0.3,0.5-0.6l-0.1-0.1
	c-0.1,0.2-0.2,0.3-0.3,0.3c0,0-0.1,0-0.1,0c-0.1,0-0.1,0-0.2-0.1c-0.1-0.1-0.2-0.5-0.4-1.1c0.1-0.3,0.3-0.4,0.4-0.5
	c0.1-0.1,0.2-0.1,0.2-0.1c0,0,0.1,0,0.2,0c0.1,0,0.2,0,0.2,0c0.1,0,0.2,0,0.2-0.1c0.1-0.1,0.1-0.1,0.1-0.2c0-0.1,0-0.2-0.1-0.2
	c-0.1-0.1-0.1-0.1-0.2-0.1c-0.1,0-0.2,0-0.3,0.1c-0.1,0-0.2,0.1-0.3,0.3c-0.1,0.1-0.2,0.3-0.4,0.6C40.1,144,40,143.7,39.8,143.4z
	 M35.5,143.4h-3.2v0.4h3.2V143.4z M37.4,144c0-0.2,0-0.3-0.1-0.3c0,0-0.1-0.1-0.1-0.1c-0.1,0-0.1,0-0.2,0.1
	c-0.1,0.1-0.3,0.4-0.4,0.7c-0.2,0.4-0.2,0.7-0.2,1c0,0.1,0,0.2,0.1,0.2c0,0,0.1,0.1,0.1,0.1c0.1,0,0.2-0.1,0.3-0.2
	c0.1-0.1,0.2-0.3,0.3-0.5C37.3,144.6,37.4,144.2,37.4,144z M45.9,146c-0.1,0-0.2,0-0.2-0.1l0.4-1.4c0.1-0.3,0.2-0.5,0.2-0.5
	c0.1-0.1,0.2-0.2,0.4-0.2c0.1,0,0.2,0,0.2,0.1c0.1,0.1,0.1,0.2,0.1,0.3c0,0.2,0,0.5-0.1,0.7c-0.1,0.2-0.2,0.5-0.3,0.6
	c-0.1,0.2-0.2,0.3-0.4,0.4C46.1,146,46,146,45.9,146z M35.5,144.4h-3.2v0.4h3.2V144.4z"/>
<path id="path122" class="st4" d="M4.7,84C5.3,79.5,9,80,9,80 M13,84c-0.6-4.5-4.5-4-4.5-4 M13,84c0.6,4.5,4.4,4,4.5,4 M21.3,84
	c-0.6,4.5-4.5,4-4.5,4"/>
<path id="path124" class="st5" d="M13,102.5h8 M5,102.5v-7V102.5z M13,95.5v7V95.5z M21,95.5v7V95.5z M5,95.5h8H5z"/>
<path id="path126" class="st8" d="M4,113.1c0-1,0.7-4.6,1-4c0.3,0.6,0.4,5.9,0.9,6.9s0.6-3.5,1.1-2.9c0.5,0.6,0.3,5.7,0.8,5.2
	c0.5-0.5,0.7-6.4,1.2-7.2s0.5,4.3,1,4c0.5-0.3,0.6-5.6,1.1-5.1s0.4,6,0.9,7.1c0.5,1,0.5-3.3,1-3c0.5,0.3,0.5,4.7,1,4
	c0.5-0.7,0.4-6.2,0.9-6.9s0.6,4.2,1.1,3.9c0.5-0.3,0.3-5.5,0.8-5s0.6,6,1.2,7c0.5,1,0.5-2.7,1-3c0.5-0.3,0.4,3.2,0.9,1.9
	c0.5-1.3,0.5-6.2,1.1-6.9s1,4,1,4"/>
<path id="path128" class="st5" d="M18,128.9l3,4 M5,132.9l3-8L5,132.9z M18,128.9h-7H18z M8,124.9l3,4L8,124.9z"/>
<path id="path130" class="st6" d="M11,140.5c0-0.3,0.2-0.5,0.5-0.5s0.5,0.2,0.5,0.5s-0.2,0.5-0.5,0.5S11,140.8,11,140.5z M11,141.4
	c-0.4,0.2-0.8,0.4-1.1,0.9c-0.5,0.6-0.8,1.5-1.2,2.5l0,0c-0.4,0.9-0.8,1.9-1.3,2.7c-0.5,0.6-1.1,1.1-2,1.3c-0.2,0.3-0.5,0.6-0.9,0.6
	c-0.6,0-1-0.4-1-1s0.4-1,1-1c0.3,0,0.6,0.2,0.8,0.4c0.5-0.1,0.9-0.4,1.2-0.9c0.5-0.6,0.8-1.5,1.2-2.5l0,0c0.4-0.9,0.8-1.9,1.3-2.7
	c0.4-0.5,0.8-0.9,1.4-1.1c0-0.6,0.4-1,1-1c0.6,0,1,0.4,1,1c0,0.2,0,0.3-0.1,0.5c0,0.1,0.1,0.2,0.2,0.4c0.2,0.5,0.5,1.1,0.9,1.7
	c0.4,0.6,0.8,1.2,1.2,1.6c0.2,0.2,0.4,0.3,0.5,0.4c0.1,0,0.2-0.1,0.3-0.1c0,0,0,0,0.1,0c0-0.1,0.1-0.1,0.1-0.2
	c0.2-0.4,0.6-1,1.1-1.6c0.7-0.9,1.6-1.8,2.8-2.2c0.1-0.4,0.5-0.7,1-0.7c0.6,0,1,0.4,1,1s-0.4,1-1,1c-0.3,0-0.5-0.1-0.7-0.3
	c-0.9,0.3-1.6,1.1-2.3,1.9c-0.4,0.5-0.7,1.1-1,1.5c-0.1,0.1-0.1,0.2-0.1,0.3c0.1,0.1,0.1,0.3,0.1,0.4c0,0.6-0.4,1-1,1
	c-0.6,0-1-0.4-1-1c0-0.1,0-0.1,0-0.2c-0.2-0.1-0.4-0.3-0.6-0.5c-0.5-0.5-1-1.2-1.4-1.8c-0.4-0.6-0.7-1.3-0.9-1.8
	c0-0.1-0.1-0.2-0.1-0.2c0,0,0,0,0,0C11.3,141.5,11.2,141.5,11,141.4z M4.5,147.8c-0.3,0-0.5,0.2-0.5,0.5s0.2,0.5,0.5,0.5
	s0.5-0.2,0.5-0.5S4.8,147.8,4.5,147.8z M15.5,145.5c-0.3,0-0.5,0.2-0.5,0.5s0.2,0.5,0.5,0.5s0.5-0.2,0.5-0.5S15.8,145.5,15.5,145.5z
	 M20,141.3c0-0.3,0.2-0.5,0.5-0.5s0.5,0.2,0.5,0.5s-0.2,0.5-0.5,0.5S20,141.5,20,141.3z"/>
<path id="path132" d="M2.5,77h46v-1h-46V77z M50,78.5v71h1v-71H50z M48.5,151h-46v1h46V151z M1,149.5v-71H0v71H1z M2.5,151
	c-0.8,0-1.5-0.7-1.5-1.5H0c0,1.4,1.1,2.5,2.5,2.5V151z M50,149.5c0,0.8-0.7,1.5-1.5,1.5v1c1.4,0,2.5-1.1,2.5-2.5H50z M48.5,77
	c0.8,0,1.5,0.7,1.5,1.5h1c0-1.4-1.1-2.5-2.5-2.5V77z M2.5,76C1.1,76,0,77.1,0,78.5h1C1,77.7,1.7,77,2.5,77V76z"/>
<path id="path134" class="st0" d="M0.5,154.5c0-1.1,0.9-2,2-2h46c1.1,0,2,0.9,2,2v71c0,1.1-0.9,2-2,2h-46c-1.1,0-2-0.9-2-2V154.5z"
	/>
<g id="g138" class="st3">
	<rect id="rect136" x="1" y="167" width="24" height="1"/>
</g>
<rect id="rect140" x="2.5" y="169.5" class="st1" width="21" height="11"/>
<path id="rect142" class="st9" d="M3.5,169.5h19c0.6,0,1,0.4,1,1v9c0,0.6-0.4,1-1,1h-19c-0.6,0-1-0.4-1-1v-9
	C2.5,169.9,2.9,169.5,3.5,169.5z"/>
<path id="rect144" class="st10" d="M3.5,169.5h19c0.6,0,1,0.4,1,1v9c0,0.6-0.4,1-1,1h-19c-0.6,0-1-0.4-1-1v-9
	C2.5,169.9,2.9,169.5,3.5,169.5z"/>
<g id="g148" class="st3">
	<rect id="rect146" x="1" y="182" width="24" height="1"/>
</g>
<g id="g152" class="st3">
	<rect id="rect150" x="1" y="197" width="24" height="1"/>
</g>
<g id="g156" class="st3">
	<rect id="rect154" x="1" y="212" width="24" height="1"/>
</g>
<g id="g160" class="st3">
	<rect id="rect158" x="25" y="153" width="1" height="74"/>
</g>
<g id="g164" class="st3">
	<rect id="rect162" x="26" y="167" width="24" height="1"/>
</g>
<g id="g168" class="st3">
	<rect id="rect166" x="26" y="182" width="24" height="1"/>
</g>
<g id="g172" class="st3">
	<rect id="rect170" x="26" y="197" width="24" height="1"/>
</g>
<g id="g176" class="st3">
	<rect id="rect174" x="26" y="212" width="24" height="1"/>
</g>
<path id="path178" class="st4" d="M46.5,160l-4,4l-8-8l-4.3,4"/>
<path id="path180" class="st5" d="M38.4,171l8,8 M30.4,179v-8V179z M38.4,171v8V171z M30.4,171l8,8L30.4,171z"/>
<path id="path182" class="st5" d="M39.4,193h2 M31.4,190v-4V190z M39.4,193v-6V193z M33.4,186v3V186z M43.4,188v1.5V188z M35.4,189
	v5V189z M41.4,189.5v3.5V189.5z M45.4,188v4V188z M37.4,187v7V187z M31.4,186h2H31.4z M33.4,189h2H33.4z M35.4,194h2H35.4z
	 M37.4,187h2H37.4z M41.4,189.5h2H41.4z M43.4,188h2H43.4z M29.4,190h2H29.4z M45.4,192h2H45.4z"/>
<path id="path184" class="st6" d="M29,210h2v-5h-2V210z M45.8,210h2v-5h-2V210z M33.1,208h-2v-3h2V208z M45.7,208h-2v-3h2V208z
	 M33.2,205.3h2v-0.5h-2V205.3z M43.6,205.3h-2v-0.5h2V205.3z M35.3,205h2v-3h-2V205z M39.4,205h-2v-5h2V205z M39.5,205h2v-3h-2V205z
	"/>
<path id="path186" class="st6" d="M31.3,221.1l0.3-1.4H32l0.1-0.3h-0.4c0.1-0.5,0.3-0.9,0.5-1.1c0.1-0.1,0.2-0.2,0.4-0.2
	c0,0,0,0,0.1,0c0,0,0,0,0,0.1c0,0,0,0.1,0,0.1c0,0.1,0,0.1,0,0.2c0,0.1,0,0.1,0.1,0.2c0.1,0,0.1,0.1,0.2,0.1c0.1,0,0.2,0,0.2-0.1
	c0.1-0.1,0.1-0.1,0.1-0.2c0-0.1,0-0.2-0.1-0.3c-0.1-0.1-0.2-0.1-0.4-0.1c-0.3,0-0.6,0.1-0.8,0.3c-0.2,0.2-0.5,0.5-0.7,0.9
	c-0.1,0.1-0.1,0.2-0.2,0.3c-0.1,0-0.2,0.1-0.3,0.1l-0.1,0.3h0.4l-0.6,2.3c-0.1,0.4-0.2,0.6-0.2,0.7c-0.1,0.1-0.1,0.2-0.2,0.3
	c0,0-0.1,0.1-0.1,0.1c0,0,0,0,0,0l0,0c0,0,0,0,0-0.1c0,0,0-0.1,0-0.1c0-0.1,0-0.1-0.1-0.2s-0.1-0.1-0.2-0.1c-0.1,0-0.2,0-0.3,0.1
	c-0.1,0.1-0.1,0.1-0.1,0.2c0,0.1,0,0.2,0.1,0.2c0.1,0.1,0.2,0.1,0.4,0.1c0.3,0,0.5-0.1,0.7-0.2c0.2-0.1,0.4-0.4,0.5-0.6
	C31,222.2,31.1,221.8,31.3,221.1z M46.3,219.8l0.5-1.8h-0.2l-1,0.2l0,0.1c0.1,0,0.2,0,0.2,0c0,0,0.1,0.1,0.1,0.1
	c0,0.1,0,0.2-0.1,0.3l-0.9,3.1c0.4,0.2,0.7,0.3,1,0.3c0.4,0,0.8-0.2,1.2-0.5c0.4-0.4,0.6-0.9,0.6-1.4c0-0.2-0.1-0.4-0.2-0.6
	c-0.1-0.2-0.3-0.3-0.5-0.3c-0.1,0-0.2,0-0.3,0.1C46.6,219.5,46.4,219.6,46.3,219.8z M41.7,219.9h1.4v-1.4h0.4v1.4h1.4v0.4h-1.4v1.4
	h-0.4v-1.4h-1.4V219.9z M38.3,219.4l-0.6,1.9l-0.1,0.2c0,0,0,0.1,0,0.1c0,0,0,0,0,0.1c0,0,0,0,0.1,0c0,0,0.1,0,0.2-0.1
	c0,0,0.1-0.1,0.2-0.3l0.1,0.1c-0.1,0.3-0.3,0.4-0.4,0.6c-0.2,0.1-0.3,0.2-0.5,0.2c-0.1,0-0.2,0-0.3-0.1c-0.1-0.1-0.1-0.1-0.1-0.2
	c0-0.1,0-0.2,0.1-0.4l0.1-0.2c-0.2,0.4-0.4,0.7-0.7,0.8c-0.1,0.1-0.3,0.1-0.4,0.1c-0.2,0-0.3-0.1-0.4-0.2c-0.1-0.1-0.1-0.3-0.1-0.5
	c0-0.3,0.1-0.6,0.3-0.9c0.2-0.4,0.4-0.6,0.7-0.9c0.2-0.2,0.4-0.3,0.6-0.3c0.1,0,0.2,0,0.3,0.1c0.1,0.1,0.1,0.2,0.1,0.3l0.1-0.4
	L38.3,219.4z M39.8,219.4l-1,0.2l0,0.1c0.1,0,0.1,0,0.2,0c0.1,0,0.2,0,0.3,0.1c0.1,0.1,0.3,0.6,0.4,1.2c-0.1,0.2-0.2,0.3-0.3,0.4
	c-0.1,0.1-0.2,0.2-0.2,0.2c0,0-0.1,0-0.2,0c0,0-0.1,0-0.2-0.1c-0.1,0-0.1,0-0.2,0c-0.1,0-0.2,0-0.2,0.1c-0.1,0.1-0.1,0.1-0.1,0.2
	c0,0.1,0,0.2,0.1,0.2c0.1,0.1,0.1,0.1,0.2,0.1c0.1,0,0.2,0,0.3-0.1c0.1,0,0.2-0.1,0.3-0.3c0.1-0.1,0.3-0.3,0.5-0.6
	c0.1,0.3,0.2,0.5,0.2,0.6c0.1,0.1,0.1,0.2,0.2,0.3c0.1,0.1,0.2,0.1,0.3,0.1c0.1,0,0.2,0,0.4-0.1c0.2-0.1,0.3-0.3,0.5-0.6l-0.1-0.1
	c-0.1,0.2-0.2,0.3-0.3,0.3c0,0-0.1,0-0.1,0c-0.1,0-0.1,0-0.2-0.1c-0.1-0.1-0.2-0.5-0.4-1.1c0.1-0.3,0.3-0.4,0.4-0.5
	c0.1-0.1,0.2-0.1,0.2-0.1c0,0,0.1,0,0.2,0c0.1,0,0.2,0,0.2,0c0.1,0,0.2,0,0.2-0.1c0.1-0.1,0.1-0.1,0.1-0.2c0-0.1,0-0.2-0.1-0.2
	c-0.1-0.1-0.1-0.1-0.2-0.1c-0.1,0-0.2,0-0.3,0.1c-0.1,0-0.2,0.1-0.3,0.3c-0.1,0.1-0.2,0.3-0.4,0.6C40.1,220,40,219.7,39.8,219.4z
	 M35.5,219.4h-3.2v0.4h3.2V219.4z M37.4,220c0-0.2,0-0.3-0.1-0.3c0,0-0.1-0.1-0.1-0.1c-0.1,0-0.1,0-0.2,0.1
	c-0.1,0.1-0.3,0.4-0.4,0.7c-0.2,0.4-0.2,0.7-0.2,1c0,0.1,0,0.2,0.1,0.2c0,0,0.1,0.1,0.1,0.1c0.1,0,0.2-0.1,0.3-0.2
	c0.1-0.1,0.2-0.3,0.3-0.5C37.3,220.6,37.4,220.2,37.4,220z M45.9,222c-0.1,0-0.2,0-0.2-0.1l0.4-1.4c0.1-0.3,0.2-0.5,0.2-0.5
	c0.1-0.1,0.2-0.2,0.4-0.2c0.1,0,0.2,0,0.2,0.1c0.1,0.1,0.1,0.2,0.1,0.3c0,0.2,0,0.5-0.1,0.7c-0.1,0.2-0.2,0.5-0.3,0.6
	c-0.1,0.2-0.2,0.3-0.4,0.4C46.1,222,46,222,45.9,222z M35.5,220.4h-3.2v0.4h3.2V220.4z"/>
<path id="path188" class="st4" d="M4.7,160c0.6-4.5,4.3-4,4.3-4 M13,160c-0.6-4.5-4.5-4-4.5-4 M13,160c0.6,4.5,4.4,4,4.5,4
	 M21.3,160c-0.6,4.5-4.5,4-4.5,4"/>
<path id="path190" class="st11" d="M13,178.5h8 M5,178.5v-7V178.5z M13,171.5v7V171.5z M21,171.5v7V171.5z M5,171.5h8H5z"/>
<path id="path192" class="st8" d="M4,189.1c0-1,0.7-4.6,1-4c0.3,0.6,0.4,5.9,0.9,6.9s0.6-3.5,1.1-2.9c0.5,0.6,0.3,5.7,0.8,5.2
	s0.7-6.4,1.2-7.2c0.6-0.8,0.5,4.3,1,4c0.5-0.3,0.6-5.6,1.1-5.1s0.4,6,0.9,7.1c0.5,1,0.5-3.3,1-3c0.5,0.3,0.5,4.7,1,4
	c0.5-0.7,0.4-6.2,0.9-6.9s0.6,4.2,1.1,3.9c0.5-0.3,0.3-5.5,0.8-5s0.6,6,1.2,7c0.5,1,0.5-2.7,1-3c0.5-0.3,0.4,3.2,0.9,1.9
	c0.5-1.3,0.5-6.2,1.1-6.9c0.5-0.7,1,4,1,4"/>
<path id="path194" class="st5" d="M18,204.9l3,4 M5,208.9l3-8L5,208.9z M18,204.9h-7H18z M8,200.9l3,4L8,200.9z"/>
<path id="path196" class="st6" d="M11,216.5c0-0.3,0.2-0.5,0.5-0.5s0.5,0.2,0.5,0.5s-0.2,0.5-0.5,0.5S11,216.8,11,216.5z M11,217.4
	c-0.4,0.2-0.8,0.4-1.1,0.9c-0.5,0.6-0.8,1.5-1.2,2.5l0,0c-0.4,0.9-0.8,1.9-1.3,2.7c-0.5,0.6-1.1,1.1-2,1.3c-0.2,0.3-0.5,0.6-0.9,0.6
	c-0.6,0-1-0.4-1-1s0.4-1,1-1c0.3,0,0.6,0.2,0.8,0.4c0.5-0.1,0.9-0.4,1.2-0.9c0.5-0.6,0.8-1.5,1.2-2.5l0,0c0.4-0.9,0.8-1.9,1.3-2.7
	c0.4-0.5,0.8-0.9,1.4-1.1c0-0.6,0.4-1,1-1c0.6,0,1,0.4,1,1c0,0.2,0,0.3-0.1,0.5c0,0.1,0.1,0.2,0.2,0.4c0.2,0.5,0.5,1.1,0.9,1.7
	c0.4,0.6,0.8,1.2,1.2,1.6c0.2,0.2,0.4,0.3,0.5,0.4c0.1,0,0.2-0.1,0.3-0.1c0,0,0,0,0.1,0c0-0.1,0.1-0.1,0.1-0.2
	c0.2-0.4,0.6-1,1.1-1.6c0.7-0.9,1.6-1.8,2.8-2.2c0.1-0.4,0.5-0.7,1-0.7c0.6,0,1,0.4,1,1s-0.4,1-1,1c-0.3,0-0.5-0.1-0.7-0.3
	c-0.9,0.3-1.6,1.1-2.3,1.9c-0.4,0.5-0.7,1.1-1,1.5c-0.1,0.1-0.1,0.2-0.1,0.3c0.1,0.1,0.1,0.3,0.1,0.4c0,0.6-0.4,1-1,1
	c-0.6,0-1-0.4-1-1c0-0.1,0-0.1,0-0.2c-0.2-0.1-0.4-0.3-0.6-0.5c-0.5-0.5-1-1.2-1.4-1.8c-0.4-0.6-0.7-1.3-0.9-1.8
	c0-0.1-0.1-0.2-0.1-0.2c0,0,0,0,0,0C11.3,217.5,11.2,217.5,11,217.4z M4.5,223.8c-0.3,0-0.5,0.2-0.5,0.5s0.2,0.5,0.5,0.5
	s0.5-0.2,0.5-0.5S4.8,223.8,4.5,223.8z M15.5,221.5c-0.3,0-0.5,0.2-0.5,0.5s0.2,0.5,0.5,0.5s0.5-0.2,0.5-0.5S15.8,221.5,15.5,221.5z
	 M20,217.3c0-0.3,0.2-0.5,0.5-0.5s0.5,0.2,0.5,0.5s-0.2,0.5-0.5,0.5S20,217.5,20,217.3z"/>
<path id="path198" d="M2.5,153h46v-1h-46V153z M50,154.5v71h1v-71H50z M48.5,227h-46v1h46V227z M1,225.5v-71H0v71H1z M2.5,227
	c-0.8,0-1.5-0.7-1.5-1.5H0c0,1.4,1.1,2.5,2.5,2.5V227z M50,225.5c0,0.8-0.7,1.5-1.5,1.5v1c1.4,0,2.5-1.1,2.5-2.5H50z M48.5,153
	c0.8,0,1.5,0.7,1.5,1.5h1c0-1.4-1.1-2.5-2.5-2.5V153z M2.5,152c-1.4,0-2.5,1.1-2.5,2.5h1c0-0.8,0.7-1.5,1.5-1.5V152z"/>
<path id="path200" class="st0" d="M0.5,230.5c0-1.1,0.9-2,2-2h46c1.1,0,2,0.9,2,2v71c0,1.1-0.9,2-2,2h-46c-1.1,0-2-0.9-2-2V230.5z"
	/>
<g id="g204" class="st3">
	<rect id="rect202" x="1" y="243" width="24" height="1"/>
</g>
<g id="g208" class="st3">
	<rect id="rect206" x="1" y="258" width="24" height="1"/>
</g>
<g id="g212" class="st3">
	<rect id="rect210" x="1" y="273" width="24" height="1"/>
</g>
<g id="g216" class="st3">
	<rect id="rect214" x="1" y="288" width="24" height="1"/>
</g>
<g id="g220" class="st3">
	<rect id="rect218" x="25" y="229" width="1" height="74"/>
</g>
<g id="g224" class="st3">
	<rect id="rect222" x="26" y="243" width="24" height="1"/>
</g>
<rect id="rect226" x="27.5" y="245.5" class="st1" width="21" height="11"/>
<path id="rect228" class="st9" d="M28.5,245.5h19c0.6,0,1,0.4,1,1v9c0,0.6-0.4,1-1,1h-19c-0.6,0-1-0.4-1-1v-9
	C27.5,245.9,27.9,245.5,28.5,245.5z"/>
<path id="rect230" class="st10" d="M28.5,245.5h19c0.6,0,1,0.4,1,1v9c0,0.6-0.4,1-1,1h-19c-0.6,0-1-0.4-1-1v-9
	C27.5,245.9,27.9,245.5,28.5,245.5z"/>
<g id="g234" class="st3">
	<rect id="rect232" x="26" y="258" width="24" height="1"/>
</g>
<g id="g238" class="st3">
	<rect id="rect236" x="26" y="273" width="24" height="1"/>
</g>
<g id="g242" class="st3">
	<rect id="rect240" x="26" y="288" width="24" height="1"/>
</g>
<path id="path244" class="st4" d="M46.5,236l-4,4l-8-8l-4.3,4"/>
<path id="path246" class="st11" d="M38.4,247l8,8 M30.4,255v-8V255z M38.4,247v8V247z M30.4,247l8,8L30.4,247z"/>
<path id="path248" class="st5" d="M39.4,269h2 M31.4,266v-4V266z M39.4,269v-6V269z M33.4,262v3V262z M43.4,264v1.5V264z M35.4,265
	v5V265z M41.4,265.5v3.5V265.5z M45.4,264v4V264z M37.4,263v7V263z M31.4,262h2H31.4z M33.4,265h2H33.4z M35.4,270h2H35.4z
	 M37.4,263h2H37.4z M41.4,265.5h2H41.4z M43.4,264h2H43.4z M29.4,266h2H29.4z M45.4,268h2H45.4z"/>
<path id="path250" class="st6" d="M29,286h2v-5h-2V286z M45.8,286h2v-5h-2V286z M33.1,284h-2v-3h2V284z M45.7,284h-2v-3h2V284z
	 M33.2,281.3h2v-0.5h-2V281.3z M43.6,281.3h-2v-0.5h2V281.3z M35.3,281h2v-3h-2V281z M39.4,281h-2v-5h2V281z M39.5,281h2v-3h-2V281z
	"/>
<path id="path252" class="st6" d="M31.3,297.1l0.3-1.4H32l0.1-0.3h-0.4c0.1-0.5,0.3-0.9,0.5-1.1c0.1-0.1,0.2-0.2,0.4-0.2
	c0,0,0,0,0.1,0c0,0,0,0,0,0.1c0,0,0,0.1,0,0.1s0,0.1,0,0.2c0,0.1,0,0.1,0.1,0.2c0.1,0,0.1,0.1,0.2,0.1c0.1,0,0.2,0,0.2-0.1
	c0.1-0.1,0.1-0.1,0.1-0.2c0-0.1,0-0.2-0.1-0.3c-0.1-0.1-0.2-0.1-0.4-0.1c-0.3,0-0.6,0.1-0.8,0.3c-0.2,0.2-0.5,0.5-0.7,0.9
	c-0.1,0.1-0.1,0.2-0.2,0.3c-0.1,0-0.2,0.1-0.3,0.1l-0.1,0.3h0.4l-0.6,2.3c-0.1,0.4-0.2,0.6-0.2,0.7c-0.1,0.1-0.1,0.2-0.2,0.3
	c0,0-0.1,0.1-0.1,0.1c0,0,0,0,0,0l0,0c0,0,0,0,0-0.1c0,0,0-0.1,0-0.1c0-0.1,0-0.1-0.1-0.2c0,0-0.1-0.1-0.2-0.1c-0.1,0-0.2,0-0.3,0.1
	c-0.1,0.1-0.1,0.1-0.1,0.2c0,0.1,0,0.2,0.1,0.2c0.1,0.1,0.2,0.1,0.4,0.1c0.3,0,0.5-0.1,0.7-0.2c0.2-0.1,0.4-0.4,0.5-0.6
	C31,298.2,31.1,297.8,31.3,297.1z M46.3,295.8l0.5-1.8h-0.2l-1,0.2l0,0.1c0.1,0,0.2,0,0.2,0c0,0,0.1,0.1,0.1,0.1
	c0,0.1,0,0.2-0.1,0.3l-0.9,3.1c0.4,0.2,0.7,0.3,1,0.3c0.4,0,0.8-0.2,1.2-0.5c0.4-0.4,0.6-0.9,0.6-1.4c0-0.2-0.1-0.4-0.2-0.6
	c-0.1-0.2-0.3-0.3-0.5-0.3c-0.1,0-0.2,0-0.3,0.1C46.6,295.5,46.4,295.6,46.3,295.8z M41.7,295.9h1.4v-1.4h0.4v1.4h1.4v0.4h-1.4v1.4
	h-0.4v-1.4h-1.4V295.9z M38.3,295.4l-0.6,1.9l-0.1,0.2c0,0,0,0.1,0,0.1c0,0,0,0,0,0.1c0,0,0,0,0.1,0c0,0,0.1,0,0.2-0.1
	c0,0,0.1-0.1,0.2-0.3l0.1,0.1c-0.1,0.3-0.3,0.4-0.4,0.6c-0.2,0.1-0.3,0.2-0.5,0.2c-0.1,0-0.2,0-0.3-0.1c-0.1-0.1-0.1-0.1-0.1-0.2
	c0-0.1,0-0.2,0.1-0.4l0.1-0.2c-0.2,0.4-0.4,0.7-0.7,0.8c-0.1,0.1-0.3,0.1-0.4,0.1c-0.2,0-0.3-0.1-0.4-0.2c-0.1-0.1-0.1-0.3-0.1-0.5
	c0-0.3,0.1-0.6,0.3-0.9c0.2-0.4,0.4-0.6,0.7-0.9c0.2-0.2,0.4-0.3,0.6-0.3c0.1,0,0.2,0,0.3,0.1c0.1,0.1,0.1,0.2,0.1,0.3l0.1-0.4
	L38.3,295.4z M39.8,295.4l-1,0.2l0,0.1c0.1,0,0.1,0,0.2,0c0.1,0,0.2,0,0.3,0.1c0.1,0.1,0.3,0.6,0.4,1.2c-0.1,0.2-0.2,0.3-0.3,0.4
	c-0.1,0.1-0.2,0.2-0.2,0.2c0,0-0.1,0-0.2,0c0,0-0.1,0-0.2-0.1c-0.1,0-0.1,0-0.2,0c-0.1,0-0.2,0-0.2,0.1c-0.1,0.1-0.1,0.1-0.1,0.2
	c0,0.1,0,0.2,0.1,0.2c0.1,0.1,0.1,0.1,0.2,0.1c0.1,0,0.2,0,0.3-0.1c0.1,0,0.2-0.1,0.3-0.3c0.1-0.1,0.3-0.3,0.5-0.6
	c0.1,0.3,0.2,0.5,0.2,0.6c0.1,0.1,0.1,0.2,0.2,0.3c0.1,0.1,0.2,0.1,0.3,0.1c0.1,0,0.2,0,0.4-0.1c0.2-0.1,0.3-0.3,0.5-0.6l-0.1-0.1
	c-0.1,0.2-0.2,0.3-0.3,0.3c0,0-0.1,0-0.1,0c-0.1,0-0.1,0-0.2-0.1c-0.1-0.1-0.2-0.5-0.4-1.1c0.1-0.3,0.3-0.4,0.4-0.5
	c0.1-0.1,0.2-0.1,0.2-0.1c0,0,0.1,0,0.2,0c0.1,0,0.2,0,0.2,0c0.1,0,0.2,0,0.2-0.1c0.1-0.1,0.1-0.1,0.1-0.2c0-0.1,0-0.2-0.1-0.2
	c-0.1-0.1-0.1-0.1-0.2-0.1c-0.1,0-0.2,0-0.3,0.1c-0.1,0-0.2,0.1-0.3,0.3c-0.1,0.1-0.2,0.3-0.4,0.6C40.1,296,40,295.7,39.8,295.4z
	 M35.5,295.4h-3.2v0.4h3.2V295.4z M37.4,296c0-0.2,0-0.3-0.1-0.3c0,0-0.1-0.1-0.1-0.1c-0.1,0-0.1,0-0.2,0.1
	c-0.1,0.1-0.3,0.4-0.4,0.7s-0.2,0.7-0.2,1c0,0.1,0,0.2,0.1,0.2c0,0,0.1,0.1,0.1,0.1c0.1,0,0.2-0.1,0.3-0.2c0.1-0.1,0.2-0.3,0.3-0.5
	C37.3,296.6,37.4,296.2,37.4,296z M45.9,298c-0.1,0-0.2,0-0.2-0.1l0.4-1.4c0.1-0.3,0.2-0.5,0.2-0.5c0.1-0.1,0.2-0.2,0.4-0.2
	c0.1,0,0.2,0,0.2,0.1c0.1,0.1,0.1,0.2,0.1,0.3c0,0.2,0,0.5-0.1,0.7c-0.1,0.2-0.2,0.5-0.3,0.6c-0.1,0.2-0.2,0.3-0.4,0.4
	C46.1,298,46,298,45.9,298z M35.5,296.4h-3.2v0.4h3.2V296.4z"/>
<path id="path254" class="st4" d="M4.7,236c0.6-4.5,4.3-4,4.3-4 M13,236c-0.6-4.5-4.5-4-4.5-4 M13,236c0.6,4.5,4.4,4,4.5,4
	 M21.3,236c-0.6,4.5-4.5,4-4.5,4"/>
<path id="path256" class="st5" d="M13,254.5h8 M5,254.5v-7V254.5z M13,247.5v7V247.5z M21,247.5v7V247.5z M5,247.5h8H5z"/>
<path id="path258" class="st8" d="M4,265.1c0-1,0.7-4.6,1-4c0.3,0.6,0.4,5.9,0.9,6.9s0.6-3.5,1.1-2.9c0.5,0.6,0.3,5.7,0.8,5.2
	c0.5-0.5,0.7-6.4,1.2-7.2s0.5,4.3,1,4c0.5-0.3,0.6-5.6,1.1-5.1s0.4,6,0.9,7.1c0.5,1,0.5-3.3,1-3c0.5,0.3,0.5,4.7,1,4
	c0.5-0.7,0.4-6.2,0.9-6.9s0.6,4.2,1.1,3.9s0.3-5.5,0.8-5s0.6,6,1.2,7s0.5-2.7,1-3c0.5-0.3,0.4,3.2,0.9,1.9c0.5-1.3,0.5-6.2,1.1-6.9
	s1,4,1,4"/>
<path id="path260" class="st5" d="M18,280.9l3,4 M5,284.9l3-8L5,284.9z M18,280.9h-7H18z M8,276.9l3,4L8,276.9z"/>
<path id="path262" class="st6" d="M11,292.5c0-0.3,0.2-0.5,0.5-0.5s0.5,0.2,0.5,0.5s-0.2,0.5-0.5,0.5S11,292.8,11,292.5z M11,293.4
	c-0.4,0.2-0.8,0.4-1.1,0.9c-0.5,0.6-0.8,1.5-1.2,2.5l0,0c-0.4,0.9-0.8,1.9-1.3,2.7c-0.5,0.6-1.1,1.1-2,1.3c-0.2,0.3-0.5,0.6-0.9,0.6
	c-0.6,0-1-0.4-1-1s0.4-1,1-1c0.3,0,0.6,0.2,0.8,0.4c0.5-0.1,0.9-0.5,1.2-0.9c0.5-0.6,0.8-1.5,1.2-2.5l0,0c0.4-0.9,0.8-1.9,1.3-2.7
	c0.4-0.5,0.8-0.9,1.4-1.1c0-0.6,0.4-1,1-1c0.6,0,1,0.4,1,1c0,0.2,0,0.3-0.1,0.5c0,0.1,0.1,0.2,0.2,0.4c0.2,0.5,0.5,1.1,0.9,1.7
	c0.4,0.6,0.8,1.2,1.2,1.6c0.2,0.2,0.4,0.3,0.5,0.4c0.1,0,0.2-0.1,0.3-0.1c0,0,0,0,0.1,0c0-0.1,0.1-0.1,0.1-0.2
	c0.2-0.4,0.6-1,1.1-1.6c0.7-0.9,1.6-1.8,2.8-2.2c0.1-0.4,0.5-0.7,1-0.7c0.6,0,1,0.4,1,1s-0.4,1-1,1c-0.3,0-0.5-0.1-0.7-0.3
	c-0.9,0.3-1.6,1.1-2.3,1.9c-0.4,0.5-0.7,1.1-1,1.5c-0.1,0.1-0.1,0.2-0.1,0.3c0.1,0.1,0.1,0.3,0.1,0.4c0,0.6-0.4,1-1,1
	c-0.6,0-1-0.4-1-1c0-0.1,0-0.1,0-0.2c-0.2-0.1-0.4-0.3-0.6-0.5c-0.5-0.5-1-1.2-1.4-1.8c-0.4-0.6-0.7-1.3-0.9-1.8
	c0-0.1-0.1-0.2-0.1-0.2c0,0,0,0,0,0C11.3,293.5,11.2,293.5,11,293.4z M4.5,299.8c-0.3,0-0.5,0.2-0.5,0.5s0.2,0.5,0.5,0.5
	s0.5-0.2,0.5-0.5S4.8,299.8,4.5,299.8z M15.5,297.5c-0.3,0-0.5,0.2-0.5,0.5s0.2,0.5,0.5,0.5s0.5-0.2,0.5-0.5S15.8,297.5,15.5,297.5z
	 M20,293.3c0-0.3,0.2-0.5,0.5-0.5s0.5,0.2,0.5,0.5s-0.2,0.5-0.5,0.5S20,293.5,20,293.3z"/>
<path id="path264" d="M2.5,229h46v-1h-46V229z M50,230.5v71h1v-71H50z M48.5,303h-46v1h46V303z M1,301.5v-71H0v71H1z M2.5,303
	c-0.8,0-1.5-0.7-1.5-1.5H0c0,1.4,1.1,2.5,2.5,2.5V303z M50,301.5c0,0.8-0.7,1.5-1.5,1.5v1c1.4,0,2.5-1.1,2.5-2.5H50z M48.5,229
	c0.8,0,1.5,0.7,1.5,1.5h1c0-1.4-1.1-2.5-2.5-2.5V229z M2.5,228c-1.4,0-2.5,1.1-2.5,2.5h1c0-0.8,0.7-1.5,1.5-1.5V228z"/>
<path id="path266" class="st0" d="M0.5,306.5c0-1.1,0.9-2,2-2h46c1.1,0,2,0.9,2,2v71c0,1.1-0.9,2-2,2h-46c-1.1,0-2-0.9-2-2V306.5z"
	/>
<g id="g270" class="st3">
	<rect id="rect268" x="1" y="319" width="24" height="1"/>
</g>
<g id="g274" class="st3">
	<rect id="rect272" x="1" y="334" width="24" height="1"/>
</g>
<rect id="rect276" x="2.5" y="336.5" class="st1" width="21" height="11"/>
<path id="rect278" class="st9" d="M3.5,336.5h19c0.6,0,1,0.4,1,1v9c0,0.6-0.4,1-1,1h-19c-0.6,0-1-0.4-1-1v-9
	C2.5,336.9,2.9,336.5,3.5,336.5z"/>
<path id="rect280" class="st10" d="M3.5,336.5h19c0.6,0,1,0.4,1,1v9c0,0.6-0.4,1-1,1h-19c-0.6,0-1-0.4-1-1v-9
	C2.5,336.9,2.9,336.5,3.5,336.5z"/>
<g id="g284" class="st3">
	<rect id="rect282" x="1" y="349" width="24" height="1"/>
</g>
<g id="g288" class="st3">
	<rect id="rect286" x="1" y="364" width="24" height="1"/>
</g>
<g id="g292" class="st3">
	<rect id="rect290" x="25" y="305" width="1" height="74"/>
</g>
<g id="g296" class="st3">
	<rect id="rect294" x="26" y="319" width="24" height="1"/>
</g>
<g id="g300" class="st3">
	<rect id="rect298" x="26" y="334" width="24" height="1"/>
</g>
<g id="g304" class="st3">
	<rect id="rect302" x="26" y="349" width="24" height="1"/>
</g>
<g id="g308" class="st3">
	<rect id="rect306" x="26" y="364" width="24" height="1"/>
</g>
<path id="path310" class="st4" d="M46.5,312l-4,4l-8-8l-4.3,4"/>
<path id="path312" class="st5" d="M38.4,323l8,8 M30.4,331v-8V331z M38.4,323v8V323z M30.4,323l8,8L30.4,323z"/>
<path id="path314" class="st5" d="M39.4,345h2 M31.4,342v-4V342z M39.4,345v-6V345z M33.4,338v3V338z M43.4,340v1.5V340z M35.4,341
	v5V341z M41.4,341.5v3.5V341.5z M45.4,340v4V340z M37.4,339v7V339z M31.4,338h2H31.4z M33.4,341h2H33.4z M35.4,346h2H35.4z
	 M37.4,339h2H37.4z M41.4,341.5h2H41.4z M43.4,340h2H43.4z M29.4,342h2H29.4z M45.4,344h2H45.4z"/>
<path id="path316" class="st6" d="M29,362h2v-5h-2V362z M45.8,362h2v-5h-2V362z M33.1,360h-2v-3h2V360z M45.7,360h-2v-3h2V360z
	 M33.2,357.3h2v-0.5h-2V357.3z M43.6,357.3h-2v-0.5h2V357.3z M35.3,357h2v-3h-2V357z M39.4,357h-2v-5h2V357z M39.5,357h2v-3h-2V357z
	"/>
<path id="path318" class="st6" d="M31.3,373.1l0.3-1.4H32l0.1-0.3h-0.4c0.1-0.5,0.3-0.9,0.5-1.1c0.1-0.1,0.2-0.2,0.4-0.2
	c0,0,0,0,0.1,0c0,0,0,0,0,0.1c0,0,0,0.1,0,0.1s0,0.1,0,0.2c0,0.1,0,0.1,0.1,0.2c0.1,0,0.1,0.1,0.2,0.1c0.1,0,0.2,0,0.2-0.1
	c0.1-0.1,0.1-0.1,0.1-0.2c0-0.1,0-0.2-0.1-0.3c-0.1-0.1-0.2-0.1-0.4-0.1c-0.3,0-0.6,0.1-0.8,0.3c-0.2,0.2-0.5,0.5-0.7,0.9
	c-0.1,0.1-0.1,0.2-0.2,0.3c-0.1,0-0.2,0.1-0.3,0.1l-0.1,0.3h0.4l-0.6,2.3c-0.1,0.4-0.2,0.6-0.2,0.7c-0.1,0.1-0.1,0.2-0.2,0.3
	c0,0-0.1,0.1-0.1,0.1c0,0,0,0,0,0l0,0c0,0,0,0,0-0.1c0,0,0-0.1,0-0.1c0-0.1,0-0.1-0.1-0.2c0,0-0.1-0.1-0.2-0.1c-0.1,0-0.2,0-0.3,0.1
	c-0.1,0.1-0.1,0.1-0.1,0.2c0,0.1,0,0.2,0.1,0.2c0.1,0.1,0.2,0.1,0.4,0.1c0.3,0,0.5-0.1,0.7-0.2c0.2-0.1,0.4-0.4,0.5-0.6
	C31,374.2,31.1,373.8,31.3,373.1z M46.3,371.8l0.5-1.8h-0.2l-1,0.2l0,0.1c0.1,0,0.2,0,0.2,0c0,0,0.1,0.1,0.1,0.1
	c0,0.1,0,0.2-0.1,0.3l-0.9,3.1c0.4,0.2,0.7,0.3,1,0.3c0.4,0,0.8-0.2,1.2-0.5c0.4-0.4,0.6-0.9,0.6-1.4c0-0.2-0.1-0.4-0.2-0.6
	c-0.1-0.2-0.3-0.3-0.5-0.3c-0.1,0-0.2,0-0.3,0.1C46.6,371.5,46.4,371.6,46.3,371.8z M41.7,371.9h1.4v-1.4h0.4v1.4h1.4v0.4h-1.4v1.4
	h-0.4v-1.4h-1.4V371.9z M38.3,371.4l-0.6,1.9l-0.1,0.2c0,0,0,0.1,0,0.1c0,0,0,0,0,0.1c0,0,0,0,0.1,0c0,0,0.1,0,0.2-0.1
	c0,0,0.1-0.1,0.2-0.3l0.1,0.1c-0.1,0.3-0.3,0.4-0.4,0.6c-0.2,0.1-0.3,0.2-0.5,0.2c-0.1,0-0.2,0-0.3-0.1c-0.1-0.1-0.1-0.1-0.1-0.2
	c0-0.1,0-0.2,0.1-0.4l0.1-0.2c-0.2,0.4-0.4,0.7-0.7,0.8c-0.1,0.1-0.3,0.1-0.4,0.1c-0.2,0-0.3-0.1-0.4-0.2c-0.1-0.1-0.1-0.3-0.1-0.5
	c0-0.3,0.1-0.6,0.3-0.9c0.2-0.4,0.4-0.6,0.7-0.9c0.2-0.2,0.4-0.3,0.6-0.3c0.1,0,0.2,0,0.3,0.1c0.1,0.1,0.1,0.2,0.1,0.3l0.1-0.4
	L38.3,371.4z M39.8,371.4l-1,0.2l0,0.1c0.1,0,0.1,0,0.2,0c0.1,0,0.2,0,0.3,0.1c0.1,0.1,0.3,0.6,0.4,1.2c-0.1,0.2-0.2,0.3-0.3,0.4
	c-0.1,0.1-0.2,0.2-0.2,0.2c0,0-0.1,0-0.2,0c0,0-0.1,0-0.2-0.1c-0.1,0-0.1,0-0.2,0c-0.1,0-0.2,0-0.2,0.1c-0.1,0.1-0.1,0.1-0.1,0.2
	c0,0.1,0,0.2,0.1,0.2c0.1,0.1,0.1,0.1,0.2,0.1c0.1,0,0.2,0,0.3-0.1c0.1,0,0.2-0.1,0.3-0.3c0.1-0.1,0.3-0.3,0.5-0.6
	c0.1,0.3,0.2,0.5,0.2,0.6c0.1,0.1,0.1,0.2,0.2,0.3c0.1,0.1,0.2,0.1,0.3,0.1c0.1,0,0.2,0,0.4-0.1c0.2-0.1,0.3-0.3,0.5-0.6l-0.1-0.1
	c-0.1,0.2-0.2,0.3-0.3,0.3c0,0-0.1,0-0.1,0c-0.1,0-0.1,0-0.2-0.1c-0.1-0.1-0.2-0.5-0.4-1.1c0.1-0.3,0.3-0.4,0.4-0.5
	c0.1-0.1,0.2-0.1,0.2-0.1c0,0,0.1,0,0.2,0c0.1,0,0.2,0,0.2,0c0.1,0,0.2,0,0.2-0.1c0.1-0.1,0.1-0.1,0.1-0.2c0-0.1,0-0.2-0.1-0.2
	c-0.1-0.1-0.1-0.1-0.2-0.1c-0.1,0-0.2,0-0.3,0.1c-0.1,0-0.2,0.1-0.3,0.3c-0.1,0.1-0.2,0.3-0.4,0.6C40.1,372,40,371.7,39.8,371.4z
	 M35.5,371.4h-3.2v0.4h3.2V371.4z M37.4,372c0-0.2,0-0.3-0.1-0.3c0,0-0.1-0.1-0.1-0.1c-0.1,0-0.1,0-0.2,0.1
	c-0.1,0.1-0.3,0.4-0.4,0.7s-0.2,0.7-0.2,1c0,0.1,0,0.2,0.1,0.2c0,0,0.1,0.1,0.1,0.1c0.1,0,0.2-0.1,0.3-0.2c0.1-0.1,0.2-0.3,0.3-0.5
	C37.3,372.6,37.4,372.2,37.4,372z M45.9,374c-0.1,0-0.2,0-0.2-0.1l0.4-1.4c0.1-0.3,0.2-0.5,0.2-0.5c0.1-0.1,0.2-0.2,0.4-0.2
	c0.1,0,0.2,0,0.2,0.1c0.1,0.1,0.1,0.2,0.1,0.3c0,0.2,0,0.5-0.1,0.7c-0.1,0.2-0.2,0.5-0.3,0.6c-0.1,0.2-0.2,0.3-0.4,0.4
	C46.1,374,46,374,45.9,374z M35.5,372.4h-3.2v0.4h3.2V372.4z"/>
<path id="path320" class="st4" d="M4.7,312c0.6-4.5,4.3-4,4.3-4 M13,312c-0.6-4.5-4.5-4-4.5-4 M13,312c0.6,4.5,4.4,4,4.5,4
	 M21.3,312c-0.6,4.5-4.5,4-4.5,4"/>
<path id="path322" class="st5" d="M13,330.5h8 M5,330.5v-7V330.5z M13,323.5v7V323.5z M21,323.5v7V323.5z M5,323.5h8H5z"/>
<path id="path324" class="st12" d="M4,341.1c0-1,0.7-4.6,1-4c0.3,0.6,0.4,5.9,0.9,6.9s0.6-3.5,1.1-2.9c0.5,0.6,0.3,5.7,0.8,5.2
	c0.5-0.5,0.7-6.4,1.2-7.2s0.5,4.3,1,4c0.5-0.3,0.6-5.6,1.1-5.1s0.4,6,0.9,7.1c0.5,1,0.5-3.3,1-3c0.5,0.3,0.5,4.7,1,4
	c0.5-0.7,0.4-6.2,0.9-6.9s0.6,4.2,1.1,3.9s0.3-5.5,0.8-5s0.6,6,1.2,7s0.5-2.7,1-3c0.5-0.3,0.4,3.2,0.9,1.9c0.5-1.3,0.5-6.2,1.1-6.9
	s1,4,1,4"/>
<path id="path326" class="st5" d="M18,356.9l3,4 M5,360.9l3-8L5,360.9z M18,356.9h-7H18z M8,352.9l3,4L8,352.9z"/>
<path id="path328" class="st6" d="M11,368.5c0-0.3,0.2-0.5,0.5-0.5s0.5,0.2,0.5,0.5s-0.2,0.5-0.5,0.5S11,368.8,11,368.5z M11,369.4
	c-0.4,0.2-0.8,0.4-1.1,0.9c-0.5,0.6-0.8,1.5-1.2,2.5l0,0c-0.4,0.9-0.8,1.9-1.3,2.7c-0.5,0.6-1.1,1.1-2,1.3c-0.2,0.3-0.5,0.6-0.9,0.6
	c-0.6,0-1-0.4-1-1s0.4-1,1-1c0.3,0,0.6,0.2,0.8,0.4c0.5-0.1,0.9-0.5,1.2-0.9c0.5-0.6,0.8-1.5,1.2-2.5l0,0c0.4-0.9,0.8-1.9,1.3-2.7
	c0.4-0.5,0.8-0.9,1.4-1.1c0-0.6,0.4-1,1-1c0.6,0,1,0.4,1,1c0,0.2,0,0.3-0.1,0.5c0,0.1,0.1,0.2,0.2,0.4c0.2,0.5,0.5,1.1,0.9,1.7
	c0.4,0.6,0.8,1.2,1.2,1.6c0.2,0.2,0.4,0.3,0.5,0.4c0.1,0,0.2-0.1,0.3-0.1c0,0,0,0,0.1,0c0-0.1,0.1-0.1,0.1-0.2
	c0.2-0.4,0.6-1,1.1-1.6c0.7-0.9,1.6-1.8,2.8-2.2c0.1-0.4,0.5-0.7,1-0.7c0.6,0,1,0.4,1,1s-0.4,1-1,1c-0.3,0-0.5-0.1-0.7-0.3
	c-0.9,0.3-1.6,1.1-2.3,1.9c-0.4,0.5-0.7,1.1-1,1.5c-0.1,0.1-0.1,0.2-0.1,0.3c0.1,0.1,0.1,0.3,0.1,0.4c0,0.6-0.4,1-1,1
	c-0.6,0-1-0.4-1-1c0-0.1,0-0.1,0-0.2c-0.2-0.1-0.4-0.3-0.6-0.5c-0.5-0.5-1-1.2-1.4-1.8c-0.4-0.6-0.7-1.3-0.9-1.8
	c0-0.1-0.1-0.2-0.1-0.2c0,0,0,0,0,0C11.3,369.5,11.2,369.5,11,369.4z M4.5,375.8c-0.3,0-0.5,0.2-0.5,0.5s0.2,0.5,0.5,0.5
	s0.5-0.2,0.5-0.5S4.8,375.8,4.5,375.8z M15.5,373.5c-0.3,0-0.5,0.2-0.5,0.5s0.2,0.5,0.5,0.5s0.5-0.2,0.5-0.5S15.8,373.5,15.5,373.5z
	 M20,369.3c0-0.3,0.2-0.5,0.5-0.5s0.5,0.2,0.5,0.5s-0.2,0.5-0.5,0.5S20,369.5,20,369.3z"/>
<path id="path330" d="M2.5,305h46v-1h-46V305z M50,306.5v71h1v-71H50z M48.5,379h-46v1h46V379z M1,377.5v-71H0v71H1z M2.5,379
	c-0.8,0-1.5-0.7-1.5-1.5H0c0,1.4,1.1,2.5,2.5,2.5V379z M50,377.5c0,0.8-0.7,1.5-1.5,1.5v1c1.4,0,2.5-1.1,2.5-2.5H50z M48.5,305
	c0.8,0,1.5,0.7,1.5,1.5h1c0-1.4-1.1-2.5-2.5-2.5V305z M2.5,304c-1.4,0-2.5,1.1-2.5,2.5h1c0-0.8,0.7-1.5,1.5-1.5V304z"/>
<path id="path332" class="st0" d="M0.5,382.5c0-1.1,0.9-2,2-2h46c1.1,0,2,0.9,2,2v71c0,1.1-0.9,2-2,2h-46c-1.1,0-2-0.9-2-2V382.5z"
	/>
<g id="g336" class="st3">
	<rect id="rect334" x="1" y="395" width="24" height="1"/>
</g>
<g id="g340" class="st3">
	<rect id="rect338" x="1" y="410" width="24" height="1"/>
</g>
<g id="g344" class="st3">
	<rect id="rect342" x="1" y="425" width="24" height="1"/>
</g>
<g id="g348" class="st3">
	<rect id="rect346" x="1" y="440" width="24" height="1"/>
</g>
<g id="g352" class="st3">
	<rect id="rect350" x="25" y="381" width="1" height="74"/>
</g>
<g id="g356" class="st3">
	<rect id="rect354" x="26" y="395" width="24" height="1"/>
</g>
<g id="g360" class="st3">
	<rect id="rect358" x="26" y="410" width="24" height="1"/>
</g>
<rect id="rect362" x="27.5" y="412.5" class="st1" width="21" height="11"/>
<path id="rect364" class="st9" d="M28.5,412.5h19c0.6,0,1,0.4,1,1v9c0,0.6-0.4,1-1,1h-19c-0.6,0-1-0.4-1-1v-9
	C27.5,412.9,27.9,412.5,28.5,412.5z"/>
<path id="rect366" class="st10" d="M28.5,412.5h19c0.6,0,1,0.4,1,1v9c0,0.6-0.4,1-1,1h-19c-0.6,0-1-0.4-1-1v-9
	C27.5,412.9,27.9,412.5,28.5,412.5z"/>
<g id="g370" class="st3">
	<rect id="rect368" x="26" y="425" width="24" height="1"/>
</g>
<g id="g374" class="st3">
	<rect id="rect372" x="26" y="440" width="24" height="1"/>
</g>
<path id="path376" class="st4" d="M46.5,388l-4,4l-8-8l-4.3,4"/>
<path id="path378" class="st5" d="M38.4,399l8,8 M30.4,407v-8V407z M38.4,399v8V399z M30.4,399l8,8L30.4,399z"/>
<path id="path380" class="st11" d="M39.4,421h2 M31.4,418v-4V418z M39.4,421v-6V421z M33.4,414v3V414z M43.4,416v1.5V416z M35.4,417
	v5V417z M41.4,417.5v3.5V417.5z M45.4,416v4V416z M37.4,415v7V415z M31.4,414h2H31.4z M33.4,417h2H33.4z M35.4,422h2H35.4z
	 M37.4,415h2H37.4z M41.4,417.5h2H41.4z M43.4,416h2H43.4z M29.4,418h2H29.4z M45.4,420h2H45.4z"/>
<path id="path382" class="st6" d="M29,438h2v-5h-2V438z M45.8,438h2v-5h-2V438z M33.1,436h-2v-3h2V436z M45.7,436h-2v-3h2V436z
	 M33.2,433.3h2v-0.5h-2V433.3z M43.6,433.3h-2v-0.5h2V433.3z M35.3,433h2v-3h-2V433z M39.4,433h-2v-5h2V433z M39.5,433h2v-3h-2V433z
	"/>
<path id="path384" class="st6" d="M31.3,449.1l0.3-1.4H32l0.1-0.3h-0.4c0.1-0.5,0.3-0.9,0.5-1.1c0.1-0.1,0.2-0.2,0.4-0.2
	c0,0,0,0,0.1,0c0,0,0,0,0,0.1c0,0,0,0.1,0,0.1s0,0.1,0,0.2c0,0.1,0,0.1,0.1,0.2c0.1,0,0.1,0.1,0.2,0.1c0.1,0,0.2,0,0.2-0.1
	c0.1-0.1,0.1-0.1,0.1-0.2c0-0.1,0-0.2-0.1-0.3c-0.1-0.1-0.2-0.1-0.4-0.1c-0.3,0-0.6,0.1-0.8,0.3c-0.2,0.2-0.5,0.5-0.7,0.9
	c-0.1,0.1-0.1,0.2-0.2,0.3c-0.1,0-0.2,0.1-0.3,0.1l-0.1,0.3h0.4l-0.6,2.3c-0.1,0.4-0.2,0.6-0.2,0.7c-0.1,0.1-0.1,0.2-0.2,0.3
	c0,0-0.1,0.1-0.1,0.1c0,0,0,0,0,0l0,0c0,0,0,0,0-0.1c0,0,0-0.1,0-0.1c0-0.1,0-0.1-0.1-0.2c0,0-0.1-0.1-0.2-0.1c-0.1,0-0.2,0-0.3,0.1
	c-0.1,0.1-0.1,0.1-0.1,0.2c0,0.1,0,0.2,0.1,0.2c0.1,0.1,0.2,0.1,0.4,0.1c0.3,0,0.5-0.1,0.7-0.2c0.2-0.1,0.4-0.4,0.5-0.6
	C31,450.2,31.1,449.8,31.3,449.1z M46.3,447.8l0.5-1.8h-0.2l-1,0.2l0,0.1c0.1,0,0.2,0,0.2,0c0,0,0.1,0.1,0.1,0.1
	c0,0.1,0,0.2-0.1,0.3l-0.9,3.1c0.4,0.2,0.7,0.3,1,0.3c0.4,0,0.8-0.2,1.2-0.5c0.4-0.4,0.6-0.9,0.6-1.4c0-0.2-0.1-0.4-0.2-0.6
	c-0.1-0.2-0.3-0.3-0.5-0.3c-0.1,0-0.2,0-0.3,0.1C46.6,447.5,46.4,447.6,46.3,447.8z M41.7,447.9h1.4v-1.4h0.4v1.4h1.4v0.4h-1.4v1.4
	h-0.4v-1.4h-1.4V447.9z M38.3,447.4l-0.6,1.9l-0.1,0.2c0,0,0,0.1,0,0.1c0,0,0,0,0,0.1c0,0,0,0,0.1,0c0,0,0.1,0,0.2-0.1
	c0,0,0.1-0.1,0.2-0.3l0.1,0.1c-0.1,0.3-0.3,0.4-0.4,0.6c-0.2,0.1-0.3,0.2-0.5,0.2c-0.1,0-0.2,0-0.3-0.1c-0.1-0.1-0.1-0.1-0.1-0.2
	c0-0.1,0-0.2,0.1-0.4l0.1-0.2c-0.2,0.4-0.4,0.7-0.7,0.8c-0.1,0.1-0.3,0.1-0.4,0.1c-0.2,0-0.3-0.1-0.4-0.2c-0.1-0.1-0.1-0.3-0.1-0.5
	c0-0.3,0.1-0.6,0.3-0.9c0.2-0.4,0.4-0.6,0.7-0.9c0.2-0.2,0.4-0.3,0.6-0.3c0.1,0,0.2,0,0.3,0.1c0.1,0.1,0.1,0.2,0.1,0.3l0.1-0.4
	L38.3,447.4z M39.8,447.4l-1,0.2l0,0.1c0.1,0,0.1,0,0.2,0c0.1,0,0.2,0,0.3,0.1c0.1,0.1,0.3,0.6,0.4,1.2c-0.1,0.2-0.2,0.3-0.3,0.4
	c-0.1,0.1-0.2,0.2-0.2,0.2c0,0-0.1,0-0.2,0c0,0-0.1,0-0.2-0.1c-0.1,0-0.1,0-0.2,0c-0.1,0-0.2,0-0.2,0.1c-0.1,0.1-0.1,0.1-0.1,0.2
	c0,0.1,0,0.2,0.1,0.2c0.1,0.1,0.1,0.1,0.2,0.1c0.1,0,0.2,0,0.3-0.1c0.1,0,0.2-0.1,0.3-0.3c0.1-0.1,0.3-0.3,0.5-0.6
	c0.1,0.3,0.2,0.5,0.2,0.6c0.1,0.1,0.1,0.2,0.2,0.3c0.1,0.1,0.2,0.1,0.3,0.1c0.1,0,0.2,0,0.4-0.1c0.2-0.1,0.3-0.3,0.5-0.6l-0.1-0.1
	c-0.1,0.2-0.2,0.3-0.3,0.3c0,0-0.1,0-0.1,0c-0.1,0-0.1,0-0.2-0.1c-0.1-0.1-0.2-0.5-0.4-1.1c0.1-0.3,0.3-0.4,0.4-0.5
	c0.1-0.1,0.2-0.1,0.2-0.1c0,0,0.1,0,0.2,0c0.1,0,0.2,0,0.2,0c0.1,0,0.2,0,0.2-0.1c0.1-0.1,0.1-0.1,0.1-0.2c0-0.1,0-0.2-0.1-0.2
	c-0.1-0.1-0.1-0.1-0.2-0.1c-0.1,0-0.2,0-0.3,0.1c-0.1,0-0.2,0.1-0.3,0.3c-0.1,0.1-0.2,0.3-0.4,0.6C40.1,448,40,447.7,39.8,447.4z
	 M35.5,447.4h-3.2v0.4h3.2V447.4z M37.4,448c0-0.2,0-0.3-0.1-0.3c0,0-0.1-0.1-0.1-0.1c-0.1,0-0.1,0-0.2,0.1
	c-0.1,0.1-0.3,0.4-0.4,0.7s-0.2,0.7-0.2,1c0,0.1,0,0.2,0.1,0.2c0,0,0.1,0.1,0.1,0.1c0.1,0,0.2-0.1,0.3-0.2c0.1-0.1,0.2-0.3,0.3-0.5
	C37.3,448.6,37.4,448.2,37.4,448z M45.9,450c-0.1,0-0.2,0-0.2-0.1l0.4-1.4c0.1-0.3,0.2-0.5,0.2-0.5c0.1-0.1,0.2-0.2,0.4-0.2
	c0.1,0,0.2,0,0.2,0.1c0.1,0.1,0.1,0.2,0.1,0.3c0,0.2,0,0.5-0.1,0.7c-0.1,0.2-0.2,0.5-0.3,0.6c-0.1,0.2-0.2,0.3-0.4,0.4
	C46.1,450,46,450,45.9,450z M35.5,448.4h-3.2v0.4h3.2V448.4z"/>
<path id="path386" class="st4" d="M4.7,388c0.6-4.5,4.3-4,4.3-4 M13,388c-0.6-4.5-4.5-4-4.5-4 M13,388c0.6,4.5,4.4,4,4.5,4
	 M21.3,388c-0.6,4.5-4.5,4-4.5,4"/>
<path id="path388" class="st5" d="M13,406.5h8 M5,406.5v-7V406.5z M13,399.5v7V399.5z M21,399.5v7V399.5z M5,399.5h8H5z"/>
<path id="path390" class="st8" d="M4,417.1c0-1,0.7-4.6,1-4c0.3,0.6,0.4,5.9,0.9,6.9s0.6-3.5,1.1-2.9c0.5,0.6,0.3,5.7,0.8,5.2
	c0.5-0.5,0.7-6.4,1.2-7.2s0.5,4.3,1,4c0.5-0.3,0.6-5.6,1.1-5.1s0.4,6,0.9,7.1c0.5,1,0.5-3.3,1-3c0.5,0.3,0.5,4.7,1,4
	c0.5-0.7,0.4-6.2,0.9-6.9s0.6,4.2,1.1,3.9s0.3-5.5,0.8-5s0.6,6,1.2,7s0.5-2.7,1-3c0.5-0.3,0.4,3.2,0.9,1.9c0.5-1.3,0.5-6.2,1.1-6.9
	s1,4,1,4"/>
<path id="path392" class="st5" d="M18,432.9l3,4 M5,436.9l3-8L5,436.9z M18,432.9h-7H18z M8,428.9l3,4L8,428.9z"/>
<path id="path394" class="st6" d="M11,444.5c0-0.3,0.2-0.5,0.5-0.5s0.5,0.2,0.5,0.5s-0.2,0.5-0.5,0.5S11,444.8,11,444.5z M11,445.4
	c-0.4,0.2-0.8,0.4-1.1,0.9c-0.5,0.6-0.8,1.5-1.2,2.5l0,0c-0.4,0.9-0.8,1.9-1.3,2.7c-0.5,0.6-1.1,1.1-2,1.3c-0.2,0.3-0.5,0.6-0.9,0.6
	c-0.6,0-1-0.4-1-1s0.4-1,1-1c0.3,0,0.6,0.2,0.8,0.4c0.5-0.1,0.9-0.5,1.2-0.9c0.5-0.6,0.8-1.5,1.2-2.5l0,0c0.4-0.9,0.8-1.9,1.3-2.7
	c0.4-0.5,0.8-0.9,1.4-1.1c0-0.6,0.4-1,1-1c0.6,0,1,0.4,1,1c0,0.2,0,0.3-0.1,0.5c0,0.1,0.1,0.2,0.2,0.4c0.2,0.5,0.5,1.1,0.9,1.7
	c0.4,0.6,0.8,1.2,1.2,1.6c0.2,0.2,0.4,0.3,0.5,0.4c0.1,0,0.2-0.1,0.3-0.1c0,0,0,0,0.1,0c0-0.1,0.1-0.1,0.1-0.2
	c0.2-0.4,0.6-1,1.1-1.6c0.7-0.9,1.6-1.8,2.8-2.2c0.1-0.4,0.5-0.7,1-0.7c0.6,0,1,0.4,1,1s-0.4,1-1,1c-0.3,0-0.5-0.1-0.7-0.3
	c-0.9,0.3-1.6,1.1-2.3,1.9c-0.4,0.5-0.7,1.1-1,1.5c-0.1,0.1-0.1,0.2-0.1,0.3c0.1,0.1,0.1,0.3,0.1,0.4c0,0.6-0.4,1-1,1
	c-0.6,0-1-0.4-1-1c0-0.1,0-0.1,0-0.2c-0.2-0.1-0.4-0.3-0.6-0.5c-0.5-0.5-1-1.2-1.4-1.8c-0.4-0.6-0.7-1.3-0.9-1.8
	c0-0.1-0.1-0.2-0.1-0.2c0,0,0,0,0,0C11.3,445.5,11.2,445.5,11,445.4z M4.5,451.8c-0.3,0-0.5,0.2-0.5,0.5s0.2,0.5,0.5,0.5
	s0.5-0.2,0.5-0.5S4.8,451.8,4.5,451.8z M15.5,449.5c-0.3,0-0.5,0.2-0.5,0.5s0.2,0.5,0.5,0.5s0.5-0.2,0.5-0.5S15.8,449.5,15.5,449.5z
	 M20,445.3c0-0.3,0.2-0.5,0.5-0.5s0.5,0.2,0.5,0.5s-0.2,0.5-0.5,0.5S20,445.5,20,445.3z"/>
<path id="path396" d="M2.5,381h46v-1h-46V381z M50,382.5v71h1v-71H50z M48.5,455h-46v1h46V455z M1,453.5v-71H0v71H1z M2.5,455
	c-0.8,0-1.5-0.7-1.5-1.5H0c0,1.4,1.1,2.5,2.5,2.5V455z M50,453.5c0,0.8-0.7,1.5-1.5,1.5v1c1.4,0,2.5-1.1,2.5-2.5H50z M48.5,381
	c0.8,0,1.5,0.7,1.5,1.5h1c0-1.4-1.1-2.5-2.5-2.5V381z M2.5,380c-1.4,0-2.5,1.1-2.5,2.5h1c0-0.8,0.7-1.5,1.5-1.5V380z"/>
<path id="path398" class="st0" d="M0.5,458.5c0-1.1,0.9-2,2-2h46c1.1,0,2,0.9,2,2v71c0,1.1-0.9,2-2,2h-46c-1.1,0-2-0.9-2-2V458.5z"
	/>
<g id="g402" class="st3">
	<rect id="rect400" x="1" y="471" width="24" height="1"/>
</g>
<g id="g406" class="st3">
	<rect id="rect404" x="1" y="486" width="24" height="1"/>
</g>
<g id="g410" class="st3">
	<rect id="rect408" x="1" y="501" width="24" height="1"/>
</g>
<rect id="rect412" x="2.5" y="503.5" class="st1" width="21" height="11"/>
<path id="rect414" class="st9" d="M3.5,503.5h19c0.6,0,1,0.4,1,1v9c0,0.6-0.4,1-1,1h-19c-0.6,0-1-0.4-1-1v-9
	C2.5,503.9,2.9,503.5,3.5,503.5z"/>
<path id="rect416" class="st10" d="M3.5,503.5h19c0.6,0,1,0.4,1,1v9c0,0.6-0.4,1-1,1h-19c-0.6,0-1-0.4-1-1v-9
	C2.5,503.9,2.9,503.5,3.5,503.5z"/>
<g id="g420" class="st3">
	<rect id="rect418" x="1" y="516" width="24" height="1"/>
</g>
<g id="g424" class="st3">
	<rect id="rect422" x="25" y="457" width="1" height="74"/>
</g>
<g id="g428" class="st3">
	<rect id="rect426" x="26" y="471" width="24" height="1"/>
</g>
<g id="g432" class="st3">
	<rect id="rect430" x="26" y="486" width="24" height="1"/>
</g>
<g id="g436" class="st3">
	<rect id="rect434" x="26" y="501" width="24" height="1"/>
</g>
<g id="g440" class="st3">
	<rect id="rect438" x="26" y="516" width="24" height="1"/>
</g>
<path id="path442" class="st4" d="M46.5,464l-4,4l-8-8l-4.3,4"/>
<path id="path444" class="st5" d="M38.4,475l8,8 M30.4,483v-8V483z M38.4,475v8V475z M30.4,475l8,8L30.4,475z"/>
<path id="path446" class="st5" d="M39.4,497h2 M31.4,494v-4V494z M39.4,497v-6V497z M33.4,490v3V490z M43.4,492v1.5V492z M35.4,493
	v5V493z M41.4,493.5v3.5V493.5z M45.4,492v4V492z M37.4,491v7V491z M31.4,490h2H31.4z M33.4,493h2H33.4z M35.4,498h2H35.4z
	 M37.4,491h2H37.4z M41.4,493.5h2H41.4z M43.4,492h2H43.4z M29.4,494h2H29.4z M45.4,496h2H45.4z"/>
<path id="path448" class="st6" d="M29,514h2v-5h-2V514z M45.8,514h2v-5h-2V514z M33.1,512h-2v-3h2V512z M45.7,512h-2v-3h2V512z
	 M33.2,509.3h2v-0.5h-2V509.3z M43.6,509.3h-2v-0.5h2V509.3z M35.3,509h2v-3h-2V509z M39.4,509h-2v-5h2V509z M39.5,509h2v-3h-2V509z
	"/>
<path id="path450" class="st6" d="M31.3,525.1l0.3-1.4H32l0.1-0.3h-0.4c0.1-0.5,0.3-0.9,0.5-1.1c0.1-0.1,0.2-0.2,0.4-0.2
	c0,0,0,0,0.1,0c0,0,0,0,0,0.1c0,0,0,0.1,0,0.1c0,0.1,0,0.1,0,0.2c0,0.1,0,0.1,0.1,0.2c0.1,0,0.1,0.1,0.2,0.1c0.1,0,0.2,0,0.2-0.1
	c0.1-0.1,0.1-0.1,0.1-0.2c0-0.1,0-0.2-0.1-0.3c-0.1-0.1-0.2-0.1-0.4-0.1c-0.3,0-0.6,0.1-0.8,0.3c-0.2,0.2-0.5,0.5-0.7,0.9
	c-0.1,0.1-0.1,0.2-0.2,0.3c-0.1,0-0.2,0.1-0.3,0.1l-0.1,0.3h0.4l-0.6,2.3c-0.1,0.4-0.2,0.6-0.2,0.7c-0.1,0.1-0.1,0.2-0.2,0.3
	c0,0-0.1,0.1-0.1,0.1c0,0,0,0,0,0l0,0c0,0,0,0,0-0.1c0,0,0-0.1,0-0.1c0-0.1,0-0.1-0.1-0.2s-0.1-0.1-0.2-0.1c-0.1,0-0.2,0-0.3,0.1
	c-0.1,0.1-0.1,0.1-0.1,0.2c0,0.1,0,0.2,0.1,0.2c0.1,0.1,0.2,0.1,0.4,0.1c0.3,0,0.5-0.1,0.7-0.2c0.2-0.1,0.4-0.3,0.5-0.6
	C31,526.2,31.1,525.8,31.3,525.1z M46.3,523.8l0.5-1.8h-0.2l-1,0.2l0,0.1c0.1,0,0.2,0,0.2,0c0,0,0.1,0.1,0.1,0.1
	c0,0.1,0,0.2-0.1,0.3l-0.9,3.1c0.4,0.2,0.7,0.3,1,0.3c0.4,0,0.8-0.2,1.2-0.5c0.4-0.4,0.6-0.9,0.6-1.4c0-0.2-0.1-0.4-0.2-0.6
	c-0.1-0.2-0.3-0.3-0.5-0.3c-0.1,0-0.2,0-0.3,0.1C46.6,523.5,46.4,523.6,46.3,523.8z M41.7,523.9h1.4v-1.4h0.4v1.4h1.4v0.4h-1.4v1.4
	h-0.4v-1.4h-1.4V523.9z M38.3,523.4l-0.6,1.9l-0.1,0.2c0,0,0,0.1,0,0.1c0,0,0,0,0,0.1c0,0,0,0,0.1,0c0,0,0.1,0,0.2-0.1
	c0,0,0.1-0.1,0.2-0.3l0.1,0.1c-0.1,0.3-0.3,0.4-0.4,0.6c-0.2,0.1-0.3,0.2-0.5,0.2c-0.1,0-0.2,0-0.3-0.1c-0.1-0.1-0.1-0.1-0.1-0.2
	c0-0.1,0-0.2,0.1-0.4l0.1-0.2c-0.2,0.4-0.4,0.7-0.7,0.8c-0.1,0.1-0.3,0.1-0.4,0.1c-0.2,0-0.3-0.1-0.4-0.2c-0.1-0.1-0.1-0.3-0.1-0.5
	c0-0.3,0.1-0.6,0.3-0.9c0.2-0.4,0.4-0.6,0.7-0.9c0.2-0.2,0.4-0.3,0.6-0.3c0.1,0,0.2,0,0.3,0.1c0.1,0.1,0.1,0.2,0.1,0.3l0.1-0.4
	L38.3,523.4z M39.8,523.4l-1,0.2l0,0.1c0.1,0,0.1,0,0.2,0c0.1,0,0.2,0,0.3,0.1c0.1,0.1,0.3,0.6,0.4,1.2c-0.1,0.2-0.2,0.3-0.3,0.4
	c-0.1,0.1-0.2,0.2-0.2,0.2c0,0-0.1,0-0.2,0c0,0-0.1,0-0.2-0.1c-0.1,0-0.1,0-0.2,0c-0.1,0-0.2,0-0.2,0.1c-0.1,0.1-0.1,0.1-0.1,0.2
	c0,0.1,0,0.2,0.1,0.2c0.1,0.1,0.1,0.1,0.2,0.1c0.1,0,0.2,0,0.3-0.1c0.1,0,0.2-0.1,0.3-0.3c0.1-0.1,0.3-0.3,0.5-0.6
	c0.1,0.3,0.2,0.5,0.2,0.6c0.1,0.1,0.1,0.2,0.2,0.3c0.1,0.1,0.2,0.1,0.3,0.1c0.1,0,0.2,0,0.4-0.1c0.2-0.1,0.3-0.3,0.5-0.6l-0.1-0.1
	c-0.1,0.2-0.2,0.3-0.3,0.3c0,0-0.1,0-0.1,0c-0.1,0-0.1,0-0.2-0.1c-0.1-0.1-0.2-0.5-0.4-1.1c0.1-0.3,0.3-0.4,0.4-0.5
	c0.1-0.1,0.2-0.1,0.2-0.1c0,0,0.1,0,0.2,0c0.1,0,0.2,0,0.2,0c0.1,0,0.2,0,0.2-0.1c0.1-0.1,0.1-0.1,0.1-0.2c0-0.1,0-0.2-0.1-0.2
	c-0.1-0.1-0.1-0.1-0.2-0.1c-0.1,0-0.2,0-0.3,0.1c-0.1,0-0.2,0.1-0.3,0.3c-0.1,0.1-0.2,0.3-0.4,0.6C40.1,524,40,523.7,39.8,523.4z
	 M35.5,523.4h-3.2v0.4h3.2V523.4z M37.4,524c0-0.2,0-0.3-0.1-0.3c0,0-0.1-0.1-0.1-0.1c-0.1,0-0.1,0-0.2,0.1
	c-0.1,0.1-0.3,0.4-0.4,0.7s-0.2,0.7-0.2,1c0,0.1,0,0.2,0.1,0.2c0,0,0.1,0.1,0.1,0.1c0.1,0,0.2-0.1,0.3-0.2c0.1-0.1,0.2-0.3,0.3-0.5
	C37.3,524.6,37.4,524.2,37.4,524z M45.9,526c-0.1,0-0.2,0-0.2-0.1l0.4-1.4c0.1-0.3,0.2-0.5,0.2-0.5c0.1-0.1,0.2-0.2,0.4-0.2
	c0.1,0,0.2,0,0.2,0.1c0.1,0.1,0.1,0.2,0.1,0.3c0,0.2,0,0.5-0.1,0.7c-0.1,0.2-0.2,0.5-0.3,0.6c-0.1,0.2-0.2,0.3-0.4,0.4
	C46.1,526,46,526,45.9,526z M35.5,524.4h-3.2v0.4h3.2V524.4z"/>
<path id="path452" class="st4" d="M4.7,464c0.6-4.5,4.3-4,4.3-4 M13,464c-0.6-4.5-4.5-4-4.5-4 M13,464c0.6,4.5,4.4,4,4.5,4
	 M21.3,464c-0.6,4.5-4.5,4-4.5,4"/>
<path id="path454" class="st5" d="M13,482.5h8 M5,482.5v-7V482.5z M13,475.5v7V475.5z M21,475.5v7V475.5z M5,475.5h8H5z"/>
<path id="path456" class="st8" d="M4,493.1c0-1,0.7-4.6,1-4c0.3,0.6,0.4,5.9,0.9,6.9s0.6-3.5,1.1-2.9c0.5,0.6,0.3,5.7,0.8,5.2
	c0.5-0.5,0.7-6.4,1.2-7.2s0.5,4.3,1,4c0.5-0.3,0.6-5.6,1.1-5.1s0.4,6,0.9,7.1c0.5,1,0.5-3.3,1-3c0.5,0.3,0.5,4.7,1,4
	c0.5-0.7,0.4-6.2,0.9-6.9s0.6,4.2,1.1,3.9s0.3-5.5,0.8-5s0.6,6,1.2,7s0.5-2.7,1-3c0.5-0.3,0.4,3.2,0.9,1.9c0.5-1.3,0.5-6.2,1.1-6.9
	s1,4,1,4"/>
<path id="path458" class="st11" d="M18,508.9l3,4 M5,512.9l3-8L5,512.9z M18,508.9h-7H18z M8,504.9l3,4L8,504.9z"/>
<path id="path460" class="st6" d="M11,520.5c0-0.3,0.2-0.5,0.5-0.5s0.5,0.2,0.5,0.5s-0.2,0.5-0.5,0.5S11,520.8,11,520.5z M11,521.4
	c-0.4,0.2-0.8,0.4-1.1,0.9c-0.5,0.6-0.8,1.5-1.2,2.5l0,0c-0.4,0.9-0.8,1.9-1.3,2.7c-0.5,0.6-1.1,1.1-2,1.3c-0.2,0.3-0.5,0.6-0.9,0.6
	c-0.6,0-1-0.4-1-1s0.4-1,1-1c0.3,0,0.6,0.2,0.8,0.4c0.5-0.1,0.9-0.5,1.2-0.9c0.5-0.6,0.8-1.5,1.2-2.5l0,0c0.4-0.9,0.8-1.9,1.3-2.7
	c0.4-0.5,0.8-0.9,1.4-1.1c0-0.6,0.4-1,1-1c0.6,0,1,0.4,1,1c0,0.2,0,0.3-0.1,0.5c0,0.1,0.1,0.2,0.2,0.4c0.2,0.5,0.5,1.1,0.9,1.7
	c0.4,0.6,0.8,1.2,1.2,1.6c0.2,0.2,0.4,0.3,0.5,0.4c0.1,0,0.2-0.1,0.3-0.1c0,0,0,0,0.1,0c0-0.1,0.1-0.1,0.1-0.2
	c0.2-0.4,0.6-1,1.1-1.6c0.7-0.9,1.6-1.8,2.8-2.2c0.1-0.4,0.5-0.7,1-0.7c0.6,0,1,0.4,1,1s-0.4,1-1,1c-0.3,0-0.5-0.1-0.7-0.3
	c-0.9,0.3-1.6,1.1-2.3,1.9c-0.4,0.5-0.7,1.1-1,1.5c-0.1,0.1-0.1,0.2-0.1,0.3c0.1,0.1,0.1,0.3,0.1,0.4c0,0.6-0.4,1-1,1
	c-0.6,0-1-0.4-1-1c0-0.1,0-0.1,0-0.2c-0.2-0.1-0.4-0.3-0.6-0.5c-0.5-0.5-1-1.2-1.4-1.8c-0.4-0.6-0.7-1.3-0.9-1.8
	c0-0.1-0.1-0.2-0.1-0.2c0,0,0,0,0,0C11.3,521.5,11.2,521.5,11,521.4z M4.5,527.8c-0.3,0-0.5,0.2-0.5,0.5s0.2,0.5,0.5,0.5
	s0.5-0.2,0.5-0.5S4.8,527.8,4.5,527.8z M15.5,525.5c-0.3,0-0.5,0.2-0.5,0.5s0.2,0.5,0.5,0.5s0.5-0.2,0.5-0.5S15.8,525.5,15.5,525.5z
	 M20,521.3c0-0.3,0.2-0.5,0.5-0.5s0.5,0.2,0.5,0.5s-0.2,0.5-0.5,0.5S20,521.5,20,521.3z"/>
<path id="path462" d="M2.5,457h46v-1h-46V457z M50,458.5v71h1v-71H50z M48.5,531h-46v1h46V531z M1,529.5v-71H0v71H1z M2.5,531
	c-0.8,0-1.5-0.7-1.5-1.5H0c0,1.4,1.1,2.5,2.5,2.5V531z M50,529.5c0,0.8-0.7,1.5-1.5,1.5v1c1.4,0,2.5-1.1,2.5-2.5H50z M48.5,457
	c0.8,0,1.5,0.7,1.5,1.5h1c0-1.4-1.1-2.5-2.5-2.5V457z M2.5,456c-1.4,0-2.5,1.1-2.5,2.5h1c0-0.8,0.7-1.5,1.5-1.5V456z"/>
<path id="path464" class="st0" d="M0.5,534.5c0-1.1,0.9-2,2-2h46c1.1,0,2,0.9,2,2v71c0,1.1-0.9,2-2,2h-46c-1.1,0-2-0.9-2-2V534.5z"
	/>
<g id="g468" class="st3">
	<rect id="rect466" x="1" y="547" width="24" height="1"/>
</g>
<g id="g472" class="st3">
	<rect id="rect470" x="1" y="562" width="24" height="1"/>
</g>
<g id="g476" class="st3">
	<rect id="rect474" x="1" y="577" width="24" height="1"/>
</g>
<g id="g480" class="st3">
	<rect id="rect478" x="1" y="592" width="24" height="1"/>
</g>
<g id="g484" class="st3">
	<rect id="rect482" x="25" y="533" width="1" height="74"/>
</g>
<g id="g488" class="st3">
	<rect id="rect486" x="26" y="547" width="24" height="1"/>
</g>
<g id="g492" class="st3">
	<rect id="rect490" x="26" y="562" width="24" height="1"/>
</g>
<g id="g496" class="st3">
	<rect id="rect494" x="26" y="577" width="24" height="1"/>
</g>
<rect id="rect498" x="27.5" y="579.5" class="st1" width="21" height="11"/>
<path id="rect500" class="st9" d="M28.5,579.5h19c0.6,0,1,0.4,1,1v9c0,0.6-0.4,1-1,1h-19c-0.6,0-1-0.4-1-1v-9
	C27.5,579.9,27.9,579.5,28.5,579.5z"/>
<path id="rect502" class="st10" d="M28.5,579.5h19c0.6,0,1,0.4,1,1v9c0,0.6-0.4,1-1,1h-19c-0.6,0-1-0.4-1-1v-9
	C27.5,579.9,27.9,579.5,28.5,579.5z"/>
<g id="g506" class="st3">
	<rect id="rect504" x="26" y="592" width="24" height="1"/>
</g>
<path id="path508" class="st4" d="M46.5,540l-4,4l-8-8l-4.3,4"/>
<path id="path510" class="st5" d="M38.4,551l8,8 M30.4,559v-8V559z M38.4,551v8V551z M30.4,551l8,8L30.4,551z"/>
<path id="path512" class="st5" d="M39.4,573h2 M31.4,570v-4V570z M39.4,573v-6V573z M33.4,566v3V566z M43.4,568v1.5V568z M35.4,569
	v5V569z M41.4,569.5v3.5V569.5z M45.4,568v4V568z M37.4,567v7V567z M31.4,566h2H31.4z M33.4,569h2H33.4z M35.4,574h2H35.4z
	 M37.4,567h2H37.4z M41.4,569.5h2H41.4z M43.4,568h2H43.4z M29.4,570h2H29.4z M45.4,572h2H45.4z"/>
<path id="path514" class="st13" d="M29,590h2v-5h-2V590z M45.8,590h2v-5h-2V590z M33.1,588h-2v-3h2V588z M45.7,588h-2v-3h2V588z
	 M33.2,585.3h2v-0.5h-2V585.3z M43.6,585.3h-2v-0.5h2V585.3z M35.3,585h2v-3h-2V585z M39.4,585h-2v-5h2V585z M39.5,585h2v-3h-2V585z
	"/>
<path id="path516" class="st6" d="M31.3,601.1l0.3-1.4H32l0.1-0.3h-0.4c0.1-0.5,0.3-0.9,0.5-1.1c0.1-0.1,0.2-0.2,0.4-0.2
	c0,0,0,0,0.1,0c0,0,0,0,0,0.1c0,0,0,0.1,0,0.1c0,0.1,0,0.1,0,0.2c0,0.1,0,0.1,0.1,0.2c0.1,0,0.1,0.1,0.2,0.1c0.1,0,0.2,0,0.2-0.1
	c0.1-0.1,0.1-0.1,0.1-0.2c0-0.1,0-0.2-0.1-0.3c-0.1-0.1-0.2-0.1-0.4-0.1c-0.3,0-0.6,0.1-0.8,0.3c-0.2,0.2-0.5,0.5-0.7,0.9
	c-0.1,0.1-0.1,0.2-0.2,0.3c-0.1,0-0.2,0.1-0.3,0.1l-0.1,0.3h0.4l-0.6,2.3c-0.1,0.4-0.2,0.6-0.2,0.7c-0.1,0.1-0.1,0.2-0.2,0.3
	c0,0-0.1,0.1-0.1,0.1c0,0,0,0,0,0l0,0c0,0,0,0,0-0.1c0,0,0-0.1,0-0.1c0-0.1,0-0.1-0.1-0.2s-0.1-0.1-0.2-0.1c-0.1,0-0.2,0-0.3,0.1
	c-0.1,0.1-0.1,0.1-0.1,0.2c0,0.1,0,0.2,0.1,0.2c0.1,0.1,0.2,0.1,0.4,0.1c0.3,0,0.5-0.1,0.7-0.2c0.2-0.1,0.4-0.3,0.5-0.6
	C31,602.2,31.1,601.8,31.3,601.1z M46.3,599.8l0.5-1.8h-0.2l-1,0.2l0,0.1c0.1,0,0.2,0,0.2,0c0,0,0.1,0.1,0.1,0.1
	c0,0.1,0,0.2-0.1,0.3l-0.9,3.1c0.4,0.2,0.7,0.3,1,0.3c0.4,0,0.8-0.2,1.2-0.5c0.4-0.4,0.6-0.9,0.6-1.4c0-0.2-0.1-0.4-0.2-0.6
	c-0.1-0.2-0.3-0.3-0.5-0.3c-0.1,0-0.2,0-0.3,0.1C46.6,599.5,46.4,599.6,46.3,599.8z M41.7,599.9h1.4v-1.4h0.4v1.4h1.4v0.4h-1.4v1.4
	h-0.4v-1.4h-1.4V599.9z M38.3,599.4l-0.6,1.9l-0.1,0.2c0,0,0,0.1,0,0.1c0,0,0,0,0,0.1c0,0,0,0,0.1,0c0,0,0.1,0,0.2-0.1
	c0,0,0.1-0.1,0.2-0.3l0.1,0.1c-0.1,0.3-0.3,0.4-0.4,0.6c-0.2,0.1-0.3,0.2-0.5,0.2c-0.1,0-0.2,0-0.3-0.1c-0.1-0.1-0.1-0.1-0.1-0.2
	c0-0.1,0-0.2,0.1-0.4l0.1-0.2c-0.2,0.4-0.4,0.7-0.7,0.8c-0.1,0.1-0.3,0.1-0.4,0.1c-0.2,0-0.3-0.1-0.4-0.2c-0.1-0.1-0.1-0.3-0.1-0.5
	c0-0.3,0.1-0.6,0.3-0.9c0.2-0.4,0.4-0.6,0.7-0.9c0.2-0.2,0.4-0.3,0.6-0.3c0.1,0,0.2,0,0.3,0.1c0.1,0.1,0.1,0.2,0.1,0.3l0.1-0.4
	L38.3,599.4z M39.8,599.4l-1,0.2l0,0.1c0.1,0,0.1,0,0.2,0c0.1,0,0.2,0,0.3,0.1c0.1,0.1,0.3,0.6,0.4,1.2c-0.1,0.2-0.2,0.3-0.3,0.4
	c-0.1,0.1-0.2,0.2-0.2,0.2c0,0-0.1,0-0.2,0c0,0-0.1,0-0.2-0.1c-0.1,0-0.1,0-0.2,0c-0.1,0-0.2,0-0.2,0.1c-0.1,0.1-0.1,0.1-0.1,0.2
	c0,0.1,0,0.2,0.1,0.2c0.1,0.1,0.1,0.1,0.2,0.1c0.1,0,0.2,0,0.3-0.1c0.1,0,0.2-0.1,0.3-0.3c0.1-0.1,0.3-0.3,0.5-0.6
	c0.1,0.3,0.2,0.5,0.2,0.6c0.1,0.1,0.1,0.2,0.2,0.3c0.1,0.1,0.2,0.1,0.3,0.1c0.1,0,0.2,0,0.4-0.1c0.2-0.1,0.3-0.3,0.5-0.6l-0.1-0.1
	c-0.1,0.2-0.2,0.3-0.3,0.3c0,0-0.1,0-0.1,0c-0.1,0-0.1,0-0.2-0.1c-0.1-0.1-0.2-0.5-0.4-1.1c0.1-0.3,0.3-0.4,0.4-0.5
	c0.1-0.1,0.2-0.1,0.2-0.1c0,0,0.1,0,0.2,0c0.1,0,0.2,0,0.2,0c0.1,0,0.2,0,0.2-0.1c0.1-0.1,0.1-0.1,0.1-0.2c0-0.1,0-0.2-0.1-0.2
	c-0.1-0.1-0.1-0.1-0.2-0.1c-0.1,0-0.2,0-0.3,0.1c-0.1,0-0.2,0.1-0.3,0.3c-0.1,0.1-0.2,0.3-0.4,0.6C40.1,600,40,599.7,39.8,599.4z
	 M35.5,599.4h-3.2v0.4h3.2V599.4z M37.4,600c0-0.2,0-0.3-0.1-0.3c0,0-0.1-0.1-0.1-0.1c-0.1,0-0.1,0-0.2,0.1
	c-0.1,0.1-0.3,0.4-0.4,0.7s-0.2,0.7-0.2,1c0,0.1,0,0.2,0.1,0.2c0,0,0.1,0.1,0.1,0.1c0.1,0,0.2-0.1,0.3-0.2c0.1-0.1,0.2-0.3,0.3-0.5
	C37.3,600.6,37.4,600.2,37.4,600z M45.9,602c-0.1,0-0.2,0-0.2-0.1l0.4-1.4c0.1-0.3,0.2-0.5,0.2-0.5c0.1-0.1,0.2-0.2,0.4-0.2
	c0.1,0,0.2,0,0.2,0.1c0.1,0.1,0.1,0.2,0.1,0.3c0,0.2,0,0.5-0.1,0.7c-0.1,0.2-0.2,0.5-0.3,0.6c-0.1,0.2-0.2,0.3-0.4,0.4
	C46.1,602,46,602,45.9,602z M35.5,600.4h-3.2v0.4h3.2V600.4z"/>
<path id="path518" class="st4" d="M4.7,540c0.6-4.5,4.3-4,4.3-4 M13,540c-0.6-4.5-4.5-4-4.5-4 M13,540c0.6,4.5,4.4,4,4.5,4
	 M21.3,540c-0.6,4.5-4.5,4-4.5,4"/>
<path id="path520" class="st5" d="M13,558.5h8 M5,558.5v-7V558.5z M13,551.5v7V551.5z M21,551.5v7V551.5z M5,551.5h8H5z"/>
<path id="path522" class="st8" d="M4,569.1c0-1,0.7-4.6,1-4c0.3,0.6,0.4,5.9,0.9,6.9s0.6-3.5,1.1-2.9c0.5,0.6,0.3,5.7,0.8,5.2
	c0.5-0.5,0.7-6.4,1.2-7.2s0.5,4.3,1,4c0.5-0.3,0.6-5.6,1.1-5.1s0.4,6,0.9,7.1c0.5,1,0.5-3.3,1-3c0.5,0.3,0.5,4.7,1,4
	c0.5-0.7,0.4-6.2,0.9-6.9s0.6,4.2,1.1,3.9c0.5-0.3,0.3-5.5,0.8-5s0.6,6,1.2,7s0.5-2.7,1-3c0.5-0.3,0.4,3.2,0.9,1.9
	c0.5-1.3,0.5-6.2,1.1-6.9c0.5-0.7,1,4,1,4"/>
<path id="path524" class="st5" d="M18,584.9l3,4 M5,588.9l3-8L5,588.9z M18,584.9h-7H18z M8,580.9l3,4L8,580.9z"/>
<path id="path526" class="st6" d="M11,596.5c0-0.3,0.2-0.5,0.5-0.5s0.5,0.2,0.5,0.5s-0.2,0.5-0.5,0.5S11,596.8,11,596.5z M11,597.4
	c-0.4,0.2-0.8,0.4-1.1,0.9c-0.5,0.6-0.8,1.5-1.2,2.5l0,0c-0.4,0.9-0.8,1.9-1.3,2.7c-0.5,0.6-1.1,1.1-2,1.3c-0.2,0.3-0.5,0.6-0.9,0.6
	c-0.6,0-1-0.4-1-1s0.4-1,1-1c0.3,0,0.6,0.2,0.8,0.4c0.5-0.1,0.9-0.5,1.2-0.9c0.5-0.6,0.8-1.5,1.2-2.5l0,0c0.4-0.9,0.8-1.9,1.3-2.7
	c0.4-0.5,0.8-0.9,1.4-1.1c0-0.6,0.4-1,1-1c0.6,0,1,0.4,1,1c0,0.2,0,0.3-0.1,0.5c0,0.1,0.1,0.2,0.2,0.4c0.2,0.5,0.5,1.1,0.9,1.7
	c0.4,0.6,0.8,1.2,1.2,1.6c0.2,0.2,0.4,0.3,0.5,0.4c0.1,0,0.2-0.1,0.3-0.1c0,0,0,0,0.1,0c0-0.1,0.1-0.1,0.1-0.2
	c0.2-0.4,0.6-1,1.1-1.6c0.7-0.9,1.6-1.8,2.8-2.2c0.1-0.4,0.5-0.7,1-0.7c0.6,0,1,0.4,1,1s-0.4,1-1,1c-0.3,0-0.5-0.1-0.7-0.3
	c-0.9,0.3-1.6,1.1-2.3,1.9c-0.4,0.5-0.7,1.1-1,1.5c-0.1,0.1-0.1,0.2-0.1,0.3c0.1,0.1,0.1,0.3,0.1,0.4c0,0.6-0.4,1-1,1
	c-0.6,0-1-0.4-1-1c0-0.1,0-0.1,0-0.2c-0.2-0.1-0.4-0.3-0.6-0.5c-0.5-0.5-1-1.2-1.4-1.8c-0.4-0.6-0.7-1.3-0.9-1.8
	c0-0.1-0.1-0.2-0.1-0.2c0,0,0,0,0,0C11.3,597.5,11.2,597.5,11,597.4z M4.5,603.8c-0.3,0-0.5,0.2-0.5,0.5s0.2,0.5,0.5,0.5
	s0.5-0.2,0.5-0.5S4.8,603.8,4.5,603.8z M15.5,601.5c-0.3,0-0.5,0.2-0.5,0.5s0.2,0.5,0.5,0.5s0.5-0.2,0.5-0.5S15.8,601.5,15.5,601.5z
	 M20,597.3c0-0.3,0.2-0.5,0.5-0.5s0.5,0.2,0.5,0.5s-0.2,0.5-0.5,0.5S20,597.5,20,597.3z"/>
<path id="path528" d="M2.5,533h46v-1h-46V533z M50,534.5v71h1v-71H50z M48.5,607h-46v1h46V607z M1,605.5v-71H0v71H1z M2.5,607
	c-0.8,0-1.5-0.7-1.5-1.5H0c0,1.4,1.1,2.5,2.5,2.5V607z M50,605.5c0,0.8-0.7,1.5-1.5,1.5v1c1.4,0,2.5-1.1,2.5-2.5H50z M48.5,533
	c0.8,0,1.5,0.7,1.5,1.5h1c0-1.4-1.1-2.5-2.5-2.5V533z M2.5,532c-1.4,0-2.5,1.1-2.5,2.5h1c0-0.8,0.7-1.5,1.5-1.5V532z"/>
<path id="path530" class="st0" d="M0.5,610.5c0-1.1,0.9-2,2-2h46c1.1,0,2,0.9,2,2v71c0,1.1-0.9,2-2,2h-46c-1.1,0-2-0.9-2-2V610.5z"
	/>
<g id="g534" class="st3">
	<rect id="rect532" x="1" y="623" width="24" height="1"/>
</g>
<g id="g538" class="st3">
	<rect id="rect536" x="1" y="638" width="24" height="1"/>
</g>
<g id="g542" class="st3">
	<rect id="rect540" x="1" y="653" width="24" height="1"/>
</g>
<g id="g546" class="st3">
	<rect id="rect544" x="1" y="668" width="24" height="1"/>
</g>
<rect id="rect548" x="2.5" y="670.5" class="st1" width="21" height="11"/>
<path id="rect550" class="st9" d="M3.5,670.5h19c0.6,0,1,0.4,1,1v9c0,0.6-0.4,1-1,1h-19c-0.6,0-1-0.4-1-1v-9
	C2.5,670.9,2.9,670.5,3.5,670.5z"/>
<path id="rect552" class="st10" d="M3.5,670.5h19c0.6,0,1,0.4,1,1v9c0,0.6-0.4,1-1,1h-19c-0.6,0-1-0.4-1-1v-9
	C2.5,670.9,2.9,670.5,3.5,670.5z"/>
<g id="g556" class="st3">
	<rect id="rect554" x="25" y="609" width="1" height="74"/>
</g>
<g id="g560" class="st3">
	<rect id="rect558" x="26" y="623" width="24" height="1"/>
</g>
<g id="g564" class="st3">
	<rect id="rect562" x="26" y="638" width="24" height="1"/>
</g>
<g id="g568" class="st3">
	<rect id="rect566" x="26" y="653" width="24" height="1"/>
</g>
<g id="g572" class="st3">
	<rect id="rect570" x="26" y="668" width="24" height="1"/>
</g>
<path id="path574" class="st4" d="M46.5,616l-4,4l-8-8l-4.3,4"/>
<path id="path576" class="st5" d="M38.4,627l8,8 M30.4,635v-8V635z M38.4,627v8V627z M30.4,627l8,8L30.4,627z"/>
<path id="path578" class="st5" d="M39.4,649h2 M31.4,646v-4V646z M39.4,649v-6V649z M33.4,642v3V642z M43.4,644v1.5V644z M35.4,645
	v5V645z M41.4,645.5v3.5V645.5z M45.4,644v4V644z M37.4,643v7V643z M31.4,642h2H31.4z M33.4,645h2H33.4z M35.4,650h2H35.4z
	 M37.4,643h2H37.4z M41.4,645.5h2H41.4z M43.4,644h2H43.4z M29.4,646h2H29.4z M45.4,648h2H45.4z"/>
<path id="path580" class="st6" d="M29,666h2v-5h-2V666z M45.8,666h2v-5h-2V666z M33.1,664h-2v-3h2V664z M45.7,664h-2v-3h2V664z
	 M33.2,661.3h2v-0.5h-2V661.3z M43.6,661.3h-2v-0.5h2V661.3z M35.3,661h2v-3h-2V661z M39.4,661h-2v-5h2V661z M39.5,661h2v-3h-2V661z
	"/>
<path id="path582" class="st6" d="M31.3,677.1l0.3-1.4H32l0.1-0.3h-0.4c0.1-0.5,0.3-0.9,0.5-1.1c0.1-0.1,0.2-0.2,0.4-0.2
	c0,0,0,0,0.1,0c0,0,0,0,0,0.1c0,0,0,0.1,0,0.1c0,0.1,0,0.1,0,0.2c0,0.1,0,0.1,0.1,0.2c0.1,0,0.1,0.1,0.2,0.1c0.1,0,0.2,0,0.2-0.1
	c0.1-0.1,0.1-0.1,0.1-0.2c0-0.1,0-0.2-0.1-0.3c-0.1-0.1-0.2-0.1-0.4-0.1c-0.3,0-0.6,0.1-0.8,0.3c-0.2,0.2-0.5,0.5-0.7,0.9
	c-0.1,0.1-0.1,0.2-0.2,0.3c-0.1,0-0.2,0.1-0.3,0.1l-0.1,0.3h0.4l-0.6,2.3c-0.1,0.4-0.2,0.6-0.2,0.7c-0.1,0.1-0.1,0.2-0.2,0.3
	c0,0-0.1,0.1-0.1,0.1c0,0,0,0,0,0l0,0c0,0,0,0,0-0.1c0,0,0-0.1,0-0.1c0-0.1,0-0.1-0.1-0.2s-0.1-0.1-0.2-0.1c-0.1,0-0.2,0-0.3,0.1
	c-0.1,0.1-0.1,0.1-0.1,0.2c0,0.1,0,0.2,0.1,0.2c0.1,0.1,0.2,0.1,0.4,0.1c0.3,0,0.5-0.1,0.7-0.2c0.2-0.1,0.4-0.3,0.5-0.6
	C31,678.2,31.1,677.8,31.3,677.1z M46.3,675.8l0.5-1.8h-0.2l-1,0.2l0,0.1c0.1,0,0.2,0,0.2,0c0,0,0.1,0.1,0.1,0.1
	c0,0.1,0,0.2-0.1,0.3l-0.9,3.1c0.4,0.2,0.7,0.3,1,0.3c0.4,0,0.8-0.2,1.2-0.5c0.4-0.4,0.6-0.9,0.6-1.4c0-0.2-0.1-0.4-0.2-0.6
	c-0.1-0.2-0.3-0.3-0.5-0.3c-0.1,0-0.2,0-0.3,0.1C46.6,675.5,46.4,675.6,46.3,675.8z M41.7,675.9h1.4v-1.4h0.4v1.4h1.4v0.4h-1.4v1.4
	h-0.4v-1.4h-1.4V675.9z M38.3,675.4l-0.6,1.9l-0.1,0.2c0,0,0,0.1,0,0.1c0,0,0,0,0,0.1c0,0,0,0,0.1,0c0,0,0.1,0,0.2-0.1
	c0,0,0.1-0.1,0.2-0.3l0.1,0.1c-0.1,0.3-0.3,0.4-0.4,0.6c-0.2,0.1-0.3,0.2-0.5,0.2c-0.1,0-0.2,0-0.3-0.1c-0.1-0.1-0.1-0.1-0.1-0.2
	c0-0.1,0-0.2,0.1-0.4l0.1-0.2c-0.2,0.4-0.4,0.7-0.7,0.8c-0.1,0.1-0.3,0.1-0.4,0.1c-0.2,0-0.3-0.1-0.4-0.2c-0.1-0.1-0.1-0.3-0.1-0.5
	c0-0.3,0.1-0.6,0.3-0.9c0.2-0.4,0.4-0.6,0.7-0.9c0.2-0.2,0.4-0.3,0.6-0.3c0.1,0,0.2,0,0.3,0.1c0.1,0.1,0.1,0.2,0.1,0.3l0.1-0.4
	L38.3,675.4z M39.8,675.4l-1,0.2l0,0.1c0.1,0,0.1,0,0.2,0c0.1,0,0.2,0,0.3,0.1c0.1,0.1,0.3,0.6,0.4,1.2c-0.1,0.2-0.2,0.3-0.3,0.4
	c-0.1,0.1-0.2,0.2-0.2,0.2c0,0-0.1,0-0.2,0c0,0-0.1,0-0.2-0.1c-0.1,0-0.1,0-0.2,0c-0.1,0-0.2,0-0.2,0.1c-0.1,0.1-0.1,0.1-0.1,0.2
	c0,0.1,0,0.2,0.1,0.2c0.1,0.1,0.1,0.1,0.2,0.1c0.1,0,0.2,0,0.3-0.1c0.1,0,0.2-0.1,0.3-0.3c0.1-0.1,0.3-0.3,0.5-0.6
	c0.1,0.3,0.2,0.5,0.2,0.6c0.1,0.1,0.1,0.2,0.2,0.3c0.1,0.1,0.2,0.1,0.3,0.1c0.1,0,0.2,0,0.4-0.1c0.2-0.1,0.3-0.3,0.5-0.6l-0.1-0.1
	c-0.1,0.2-0.2,0.3-0.3,0.3c0,0-0.1,0-0.1,0c-0.1,0-0.1,0-0.2-0.1c-0.1-0.1-0.2-0.5-0.4-1.1c0.1-0.3,0.3-0.4,0.4-0.5
	c0.1-0.1,0.2-0.1,0.2-0.1c0,0,0.1,0,0.2,0c0.1,0,0.2,0,0.2,0c0.1,0,0.2,0,0.2-0.1c0.1-0.1,0.1-0.1,0.1-0.2c0-0.1,0-0.2-0.1-0.2
	c-0.1-0.1-0.1-0.1-0.2-0.1c-0.1,0-0.2,0-0.3,0.1c-0.1,0-0.2,0.1-0.3,0.3c-0.1,0.1-0.2,0.3-0.4,0.6C40.1,676,40,675.7,39.8,675.4z
	 M35.5,675.4h-3.2v0.4h3.2V675.4z M37.4,676c0-0.2,0-0.3-0.1-0.3c0,0-0.1-0.1-0.1-0.1c-0.1,0-0.1,0-0.2,0.1
	c-0.1,0.1-0.3,0.4-0.4,0.7s-0.2,0.7-0.2,1c0,0.1,0,0.2,0.1,0.2c0,0,0.1,0.1,0.1,0.1c0.1,0,0.2-0.1,0.3-0.2c0.1-0.1,0.2-0.3,0.3-0.5
	C37.3,676.6,37.4,676.2,37.4,676z M45.9,678c-0.1,0-0.2,0-0.2-0.1l0.4-1.4c0.1-0.3,0.2-0.5,0.2-0.5c0.1-0.1,0.2-0.2,0.4-0.2
	c0.1,0,0.2,0,0.2,0.1c0.1,0.1,0.1,0.2,0.1,0.3c0,0.2,0,0.5-0.1,0.7c-0.1,0.2-0.2,0.5-0.3,0.6c-0.1,0.2-0.2,0.3-0.4,0.4
	C46.1,678,46,678,45.9,678z M35.5,676.4h-3.2v0.4h3.2V676.4z"/>
<path id="path584" class="st4" d="M4.7,616c0.6-4.5,4.3-4,4.3-4 M13,616c-0.6-4.5-4.5-4-4.5-4 M13,616c0.6,4.5,4.4,4,4.5,4
	 M21.3,616c-0.6,4.5-4.5,4-4.5,4"/>
<path id="path586" class="st5" d="M13,634.5h8 M5,634.5v-7V634.5z M13,627.5v7V627.5z M21,627.5v7V627.5z M5,627.5h8H5z"/>
<path id="path588" class="st8" d="M4,645.1c0-1,0.7-4.6,1-4c0.3,0.6,0.4,5.9,0.9,6.9s0.6-3.5,1.1-2.9c0.5,0.6,0.3,5.7,0.8,5.2
	c0.5-0.5,0.7-6.4,1.2-7.2s0.5,4.3,1,4c0.5-0.3,0.6-5.6,1.1-5.1s0.4,6,0.9,7.1c0.5,1,0.5-3.3,1-3c0.5,0.3,0.5,4.7,1,4
	c0.5-0.7,0.4-6.2,0.9-6.9s0.6,4.2,1.1,3.9c0.5-0.3,0.3-5.5,0.8-5s0.6,6,1.2,7s0.5-2.7,1-3c0.5-0.3,0.4,3.2,0.9,1.9
	c0.5-1.3,0.5-6.2,1.1-6.9c0.5-0.7,1,4,1,4"/>
<path id="path590" class="st5" d="M18,660.9l3,4 M5,664.9l3-8L5,664.9z M18,660.9h-7H18z M8,656.9l3,4L8,656.9z"/>
<path id="path592" class="st13" d="M11,672.5c0-0.3,0.2-0.5,0.5-0.5s0.5,0.2,0.5,0.5s-0.2,0.5-0.5,0.5S11,672.8,11,672.5z M11,673.4
	c-0.4,0.2-0.8,0.4-1.1,0.9c-0.5,0.6-0.8,1.5-1.2,2.5l0,0c-0.4,0.9-0.8,1.9-1.3,2.7c-0.5,0.6-1.1,1.1-2,1.3c-0.2,0.3-0.5,0.6-0.9,0.6
	c-0.6,0-1-0.4-1-1s0.4-1,1-1c0.3,0,0.6,0.2,0.8,0.4c0.5-0.1,0.9-0.5,1.2-0.9c0.5-0.6,0.8-1.5,1.2-2.5l0,0c0.4-0.9,0.8-1.9,1.3-2.7
	c0.4-0.5,0.8-0.9,1.4-1.1c0-0.6,0.4-1,1-1c0.6,0,1,0.4,1,1c0,0.2,0,0.3-0.1,0.5c0,0.1,0.1,0.2,0.2,0.4c0.2,0.5,0.5,1.1,0.9,1.7
	c0.4,0.6,0.8,1.2,1.2,1.6c0.2,0.2,0.4,0.3,0.5,0.4c0.1,0,0.2-0.1,0.3-0.1c0,0,0,0,0.1,0c0-0.1,0.1-0.1,0.1-0.2
	c0.2-0.4,0.6-1,1.1-1.6c0.7-0.9,1.6-1.8,2.8-2.2c0.1-0.4,0.5-0.7,1-0.7c0.6,0,1,0.4,1,1s-0.4,1-1,1c-0.3,0-0.5-0.1-0.7-0.3
	c-0.9,0.3-1.6,1.1-2.3,1.9c-0.4,0.5-0.7,1.1-1,1.5c-0.1,0.1-0.1,0.2-0.1,0.3c0.1,0.1,0.1,0.3,0.1,0.4c0,0.6-0.4,1-1,1
	c-0.6,0-1-0.4-1-1c0-0.1,0-0.1,0-0.2c-0.2-0.1-0.4-0.3-0.6-0.5c-0.5-0.5-1-1.2-1.4-1.8c-0.4-0.6-0.7-1.3-0.9-1.8
	c0-0.1-0.1-0.2-0.1-0.2c0,0,0,0,0,0C11.3,673.5,11.2,673.5,11,673.4z M4.5,679.8c-0.3,0-0.5,0.2-0.5,0.5s0.2,0.5,0.5,0.5
	s0.5-0.2,0.5-0.5S4.8,679.8,4.5,679.8z M15.5,677.5c-0.3,0-0.5,0.2-0.5,0.5s0.2,0.5,0.5,0.5s0.5-0.2,0.5-0.5S15.8,677.5,15.5,677.5z
	 M20,673.3c0-0.3,0.2-0.5,0.5-0.5s0.5,0.2,0.5,0.5s-0.2,0.5-0.5,0.5S20,673.5,20,673.3z"/>
<path id="path594" d="M2.5,609h46v-1h-46V609z M50,610.5v71h1v-71H50z M48.5,683h-46v1h46V683z M1,681.5v-71H0v71H1z M2.5,683
	c-0.8,0-1.5-0.7-1.5-1.5H0c0,1.4,1.1,2.5,2.5,2.5V683z M50,681.5c0,0.8-0.7,1.5-1.5,1.5v1c1.4,0,2.5-1.1,2.5-2.5H50z M48.5,609
	c0.8,0,1.5,0.7,1.5,1.5h1c0-1.4-1.1-2.5-2.5-2.5V609z M2.5,608c-1.4,0-2.5,1.1-2.5,2.5h1c0-0.8,0.7-1.5,1.5-1.5V608z"/>
<path id="path596" class="st0" d="M0.5,686.5c0-1.1,0.9-2,2-2h46c1.1,0,2,0.9,2,2v71c0,1.1-0.9,2-2,2h-46c-1.1,0-2-0.9-2-2V686.5z"
	/>
<g id="g600" class="st3">
	<rect id="rect598" x="1" y="699" width="24" height="1"/>
</g>
<g id="g604" class="st3">
	<rect id="rect602" x="1" y="714" width="24" height="1"/>
</g>
<g id="g608" class="st3">
	<rect id="rect606" x="1" y="729" width="24" height="1"/>
</g>
<g id="g612" class="st3">
	<rect id="rect610" x="1" y="744" width="24" height="1"/>
</g>
<g id="g616" class="st3">
	<rect id="rect614" x="25" y="685" width="1" height="74"/>
</g>
<g id="g620" class="st3">
	<rect id="rect618" x="26" y="699" width="24" height="1"/>
</g>
<g id="g624" class="st3">
	<rect id="rect622" x="26" y="714" width="24" height="1"/>
</g>
<g id="g628" class="st3">
	<rect id="rect626" x="26" y="729" width="24" height="1"/>
</g>
<g id="g632" class="st3">
	<rect id="rect630" x="26" y="744" width="24" height="1"/>
</g>
<rect id="rect634" x="27.5" y="746.5" class="st1" width="21" height="11"/>
<path id="rect636" class="st1" d="M28.5,746.5h19c0.6,0,1,0.4,1,1v9c0,0.6-0.4,1-1,1h-19c-0.6,0-1-0.4-1-1v-9
	C27.5,746.9,27.9,746.5,28.5,746.5z"/>
<path id="rect638" class="st2" d="M28.5,746.5h19c0.6,0,1,0.4,1,1v9c0,0.6-0.4,1-1,1h-19c-0.6,0-1-0.4-1-1v-9
	C27.5,746.9,27.9,746.5,28.5,746.5z"/>
<path id="path640" class="st4" d="M46.5,692l-4,4l-8-8l-4.3,4"/>
<path id="path642" class="st5" d="M38.4,703l8,8 M30.4,711v-8V711z M38.4,703v8V703z M30.4,703l8,8L30.4,703z"/>
<path id="path644" class="st5" d="M39.4,725h2 M31.4,722v-4V722z M39.4,725v-6V725z M33.4,718v3V718z M43.4,720v1.5V720z M35.4,721
	v5V721z M41.4,721.5v3.5V721.5z M45.4,720v4V720z M37.4,719v7V719z M31.4,718h2H31.4z M33.4,721h2H33.4z M35.4,726h2H35.4z
	 M37.4,719h2H37.4z M41.4,721.5h2H41.4z M43.4,720h2H43.4z M29.4,722h2H29.4z M45.4,724h2H45.4z"/>
<path id="path646" class="st6" d="M29,742h2v-5h-2V742z M45.8,742h2v-5h-2V742z M33.1,740h-2v-3h2V740z M45.7,740h-2v-3h2V740z
	 M33.2,737.3h2v-0.5h-2V737.3z M43.6,737.3h-2v-0.5h2V737.3z M35.3,737h2v-3h-2V737z M39.4,737h-2v-5h2V737z M39.5,737h2v-3h-2V737z
	"/>
<path id="path648" class="st13" d="M31.3,753.1l0.3-1.4H32l0.1-0.3h-0.4c0.1-0.5,0.3-0.9,0.5-1.1c0.1-0.1,0.2-0.2,0.4-0.2
	c0,0,0,0,0.1,0c0,0,0,0,0,0.1c0,0,0,0.1,0,0.1c0,0.1,0,0.1,0,0.2c0,0.1,0,0.1,0.1,0.2c0.1,0,0.1,0.1,0.2,0.1c0.1,0,0.2,0,0.2-0.1
	c0.1-0.1,0.1-0.1,0.1-0.2c0-0.1,0-0.2-0.1-0.3c-0.1-0.1-0.2-0.1-0.4-0.1c-0.3,0-0.6,0.1-0.8,0.3c-0.2,0.2-0.5,0.5-0.7,0.9
	c-0.1,0.1-0.1,0.2-0.2,0.3c-0.1,0-0.2,0.1-0.3,0.1l-0.1,0.3h0.4l-0.6,2.3c-0.1,0.4-0.2,0.6-0.2,0.7c-0.1,0.1-0.1,0.2-0.2,0.3
	c0,0-0.1,0.1-0.1,0.1c0,0,0,0,0,0l0,0c0,0,0,0,0-0.1c0,0,0-0.1,0-0.1c0-0.1,0-0.1-0.1-0.2s-0.1-0.1-0.2-0.1c-0.1,0-0.2,0-0.3,0.1
	c-0.1,0.1-0.1,0.1-0.1,0.2c0,0.1,0,0.2,0.1,0.2c0.1,0.1,0.2,0.1,0.4,0.1c0.3,0,0.5-0.1,0.7-0.2c0.2-0.1,0.4-0.3,0.5-0.6
	C31,754.2,31.1,753.8,31.3,753.1z M46.3,751.8l0.5-1.8h-0.2l-1,0.2l0,0.1c0.1,0,0.2,0,0.2,0c0,0,0.1,0.1,0.1,0.1
	c0,0.1,0,0.2-0.1,0.3l-0.9,3.1c0.4,0.2,0.7,0.3,1,0.3c0.4,0,0.8-0.2,1.2-0.5c0.4-0.4,0.6-0.9,0.6-1.4c0-0.2-0.1-0.4-0.2-0.6
	c-0.1-0.2-0.3-0.3-0.5-0.3c-0.1,0-0.2,0-0.3,0.1C46.6,751.5,46.4,751.6,46.3,751.8z M41.7,751.9h1.4v-1.4h0.4v1.4h1.4v0.4h-1.4v1.4
	h-0.4v-1.4h-1.4V751.9z M38.3,751.4l-0.6,1.9l-0.1,0.2c0,0,0,0.1,0,0.1c0,0,0,0,0,0.1c0,0,0,0,0.1,0c0,0,0.1,0,0.2-0.1
	c0,0,0.1-0.1,0.2-0.3l0.1,0.1c-0.1,0.3-0.3,0.4-0.4,0.6c-0.2,0.1-0.3,0.2-0.5,0.2c-0.1,0-0.2,0-0.3-0.1c-0.1-0.1-0.1-0.1-0.1-0.2
	c0-0.1,0-0.2,0.1-0.4l0.1-0.2c-0.2,0.4-0.4,0.7-0.7,0.8c-0.1,0.1-0.3,0.1-0.4,0.1c-0.2,0-0.3-0.1-0.4-0.2c-0.1-0.1-0.1-0.3-0.1-0.5
	c0-0.3,0.1-0.6,0.3-0.9c0.2-0.4,0.4-0.6,0.7-0.9c0.2-0.2,0.4-0.3,0.6-0.3c0.1,0,0.2,0,0.3,0.1c0.1,0.1,0.1,0.2,0.1,0.3l0.1-0.4
	L38.3,751.4z M39.8,751.4l-1,0.2l0,0.1c0.1,0,0.1,0,0.2,0c0.1,0,0.2,0,0.3,0.1c0.1,0.1,0.3,0.6,0.4,1.2c-0.1,0.2-0.2,0.3-0.3,0.4
	c-0.1,0.1-0.2,0.2-0.2,0.2c0,0-0.1,0-0.2,0c0,0-0.1,0-0.2-0.1c-0.1,0-0.1,0-0.2,0c-0.1,0-0.2,0-0.2,0.1c-0.1,0.1-0.1,0.1-0.1,0.2
	c0,0.1,0,0.2,0.1,0.2c0.1,0.1,0.1,0.1,0.2,0.1c0.1,0,0.2,0,0.3-0.1c0.1,0,0.2-0.1,0.3-0.3c0.1-0.1,0.3-0.3,0.5-0.6
	c0.1,0.3,0.2,0.5,0.2,0.6c0.1,0.1,0.1,0.2,0.2,0.3c0.1,0.1,0.2,0.1,0.3,0.1c0.1,0,0.2,0,0.4-0.1c0.2-0.1,0.3-0.3,0.5-0.6l-0.1-0.1
	c-0.1,0.2-0.2,0.3-0.3,0.3c0,0-0.1,0-0.1,0c-0.1,0-0.1,0-0.2-0.1c-0.1-0.1-0.2-0.5-0.4-1.1c0.1-0.3,0.3-0.4,0.4-0.5
	c0.1-0.1,0.2-0.1,0.2-0.1c0,0,0.1,0,0.2,0c0.1,0,0.2,0,0.2,0c0.1,0,0.2,0,0.2-0.1c0.1-0.1,0.1-0.1,0.1-0.2c0-0.1,0-0.2-0.1-0.2
	c-0.1-0.1-0.1-0.1-0.2-0.1c-0.1,0-0.2,0-0.3,0.1c-0.1,0-0.2,0.1-0.3,0.3c-0.1,0.1-0.2,0.3-0.4,0.6C40.1,752,40,751.7,39.8,751.4z
	 M35.5,751.4h-3.2v0.4h3.2V751.4z M37.4,752c0-0.2,0-0.3-0.1-0.3c0,0-0.1-0.1-0.1-0.1c-0.1,0-0.1,0-0.2,0.1
	c-0.1,0.1-0.3,0.4-0.4,0.7s-0.2,0.7-0.2,1c0,0.1,0,0.2,0.1,0.2c0,0,0.1,0.1,0.1,0.1c0.1,0,0.2-0.1,0.3-0.2c0.1-0.1,0.2-0.3,0.3-0.5
	C37.3,752.6,37.4,752.2,37.4,752z M45.9,754c-0.1,0-0.2,0-0.2-0.1l0.4-1.4c0.1-0.3,0.2-0.5,0.2-0.5c0.1-0.1,0.2-0.2,0.4-0.2
	c0.1,0,0.2,0,0.2,0.1c0.1,0.1,0.1,0.2,0.1,0.3c0,0.2,0,0.5-0.1,0.7c-0.1,0.2-0.2,0.5-0.3,0.6c-0.1,0.2-0.2,0.3-0.4,0.4
	C46.1,754,46,754,45.9,754z M35.5,752.4h-3.2v0.4h3.2V752.4z"/>
<path id="path650" class="st4" d="M4.7,692c0.6-4.5,4.3-4,4.3-4 M13,692c-0.6-4.5-4.5-4-4.5-4 M13,692c0.6,4.5,4.4,4,4.5,4
	 M21.3,692c-0.6,4.5-4.5,4-4.5,4"/>
<path id="path652" class="st5" d="M13,710.5h8 M5,710.5v-7V710.5z M13,703.5v7V703.5z M21,703.5v7V703.5z M5,703.5h8H5z"/>
<path id="path654" class="st8" d="M4,721.1c0-1,0.7-4.6,1-4c0.3,0.6,0.4,5.9,0.9,6.9s0.6-3.5,1.1-2.9c0.5,0.6,0.3,5.7,0.8,5.2
	c0.5-0.5,0.7-6.4,1.2-7.2s0.5,4.3,1,4c0.5-0.3,0.6-5.6,1.1-5.1s0.4,6,0.9,7.1c0.5,1,0.5-3.3,1-3c0.5,0.3,0.5,4.7,1,4
	c0.5-0.7,0.4-6.2,0.9-6.9s0.6,4.2,1.1,3.9c0.5-0.3,0.3-5.5,0.8-5s0.6,6,1.2,7s0.5-2.7,1-3c0.5-0.3,0.4,3.2,0.9,1.9
	c0.5-1.3,0.5-6.2,1.1-6.9c0.5-0.7,1,4,1,4"/>
<path id="path656" class="st5" d="M18,736.9l3,4 M5,740.9l3-8L5,740.9z M18,736.9h-7H18z M8,732.9l3,4L8,732.9z"/>
<path id="path658" class="st6" d="M11,748.5c0-0.3,0.2-0.5,0.5-0.5s0.5,0.2,0.5,0.5s-0.2,0.5-0.5,0.5S11,748.8,11,748.5z M11,749.4
	c-0.4,0.2-0.8,0.4-1.1,0.9c-0.5,0.6-0.8,1.5-1.2,2.5l0,0c-0.4,0.9-0.8,1.9-1.3,2.7c-0.5,0.6-1.1,1.1-2,1.3c-0.2,0.3-0.5,0.6-0.9,0.6
	c-0.6,0-1-0.4-1-1s0.4-1,1-1c0.3,0,0.6,0.2,0.8,0.4c0.5-0.1,0.9-0.5,1.2-0.9c0.5-0.6,0.8-1.5,1.2-2.5l0,0c0.4-0.9,0.8-1.9,1.3-2.7
	c0.4-0.5,0.8-0.9,1.4-1.1c0-0.6,0.4-1,1-1c0.6,0,1,0.4,1,1c0,0.2,0,0.3-0.1,0.5c0,0.1,0.1,0.2,0.2,0.4c0.2,0.5,0.5,1.1,0.9,1.7
	c0.4,0.6,0.8,1.2,1.2,1.6c0.2,0.2,0.4,0.3,0.5,0.4c0.1,0,0.2-0.1,0.3-0.1c0,0,0,0,0.1,0c0-0.1,0.1-0.1,0.1-0.2
	c0.2-0.4,0.6-1,1.1-1.6c0.7-0.9,1.6-1.8,2.8-2.2c0.1-0.4,0.5-0.7,1-0.7c0.6,0,1,0.4,1,1s-0.4,1-1,1c-0.3,0-0.5-0.1-0.7-0.3
	c-0.9,0.3-1.6,1.1-2.3,1.9c-0.4,0.5-0.7,1.1-1,1.5c-0.1,0.1-0.1,0.2-0.1,0.3c0.1,0.1,0.1,0.3,0.1,0.4c0,0.6-0.4,1-1,1
	c-0.6,0-1-0.4-1-1c0-0.1,0-0.1,0-0.2c-0.2-0.1-0.4-0.3-0.6-0.5c-0.5-0.5-1-1.2-1.4-1.8c-0.4-0.6-0.7-1.3-0.9-1.8
	c0-0.1-0.1-0.2-0.1-0.2c0,0,0,0,0,0C11.3,749.5,11.2,749.5,11,749.4z M4.5,755.8c-0.3,0-0.5,0.2-0.5,0.5s0.2,0.5,0.5,0.5
	s0.5-0.2,0.5-0.5S4.8,755.8,4.5,755.8z M15.5,753.5c-0.3,0-0.5,0.2-0.5,0.5s0.2,0.5,0.5,0.5s0.5-0.2,0.5-0.5S15.8,753.5,15.5,753.5z
	 M20,749.3c0-0.3,0.2-0.5,0.5-0.5s0.5,0.2,0.5,0.5s-0.2,0.5-0.5,0.5S20,749.5,20,749.3z"/>
<path id="path660" d="M2.5,685h46v-1h-46V685z M50,686.5v71h1v-71H50z M48.5,759h-46v1h46V759z M1,757.5v-71H0v71H1z M2.5,759
	c-0.8,0-1.5-0.7-1.5-1.5H0c0,1.4,1.1,2.5,2.5,2.5V759z M50,757.5c0,0.8-0.7,1.5-1.5,1.5v1c1.4,0,2.5-1.1,2.5-2.5H50z M48.5,685
	c0.8,0,1.5,0.7,1.5,1.5h1c0-1.4-1.1-2.5-2.5-2.5V685z M2.5,684c-1.4,0-2.5,1.1-2.5,2.5h1c0-0.8,0.7-1.5,1.5-1.5V684z"/>
</svg>
