<?xml version="1.0" encoding="utf-8"?>
<!-- Generator: Adobe Illustrator 22.0.0, SVG Export Plug-In . SVG Version: 6.00 Build 0)  -->
<svg version="1.1" baseProfile="basic" id="Layer_1"
	 xmlns="http://www.w3.org/2000/svg" xmlns:xlink="http://www.w3.org/1999/xlink" x="0px" y="0px" width="180px" height="72px"
	 viewBox="0 0 180 72" xml:space="preserve">
<style type="text/css">
	.st0{clip-path:url(#SVGID_2_);}
	.st1{fill:#60C4FF;}
	.st2{fill:#FFFFFF;}
	.st3{fill:#EEEEEE;}
	.st4{fill:none;stroke:#60C4FF;}
	.st5{fill:none;stroke:#FFFFFF;}
	.st6{fill:#1A1A18;}
</style>
<desc>Created with Lunacy</desc>
<g>
	<defs>
		<rect id="SVGID_1_" width="180" height="72"/>
	</defs>
	<clipPath id="SVGID_2_">
		<use xlink:href="#SVGID_1_"  style="overflow:visible;"/>
	</clipPath>
	<g id="bmp00180" class="st0">
		<g id="Discord" transform="translate(147.74414 0.9001465)">
			<g id="Discord-Hover" transform="translate(0 36)">
				<path id="Shape" class="st1" d="M11.2,14.4c-1,0-1.7,0.8-1.7,1.8c0,1,0.8,1.8,1.7,1.8c1,0,1.7-0.8,1.7-1.8
					C12.9,15.2,12.2,14.4,11.2,14.4L11.2,14.4z M17.3,14.4c-1,0-1.7,0.8-1.7,1.8c0,1,0.8,1.8,1.7,1.8c1,0,1.7-0.8,1.7-1.8
					C19,15.2,18.3,14.4,17.3,14.4L17.3,14.4z"/>
				<path id="Shape_1_" class="st1" d="M25.2,0H3.3C1.5,0,0,1.6,0,3.5v23.1c0,1.9,1.5,3.5,3.3,3.5h18.5L21,27l2.1,2l2,1.9l3.5,3.2
					V3.5C28.5,1.6,27,0,25.2,0L25.2,0z M18.9,22.3c0,0-0.6-0.7-1.1-1.4c2.1-0.6,2.9-2,2.9-2c-0.7,0.5-1.3,0.8-1.9,1
					c-0.8,0.4-1.6,0.6-2.4,0.7c-1.6,0.3-3,0.2-4.2,0c-0.9-0.2-1.7-0.5-2.4-0.7c-0.4-0.2-0.8-0.3-1.2-0.6c0,0-0.1-0.1-0.1-0.1
					c0,0,0,0-0.1-0.1C8.2,19,8,18.9,8,18.9s0.8,1.4,2.9,2c-0.5,0.6-1.1,1.4-1.1,1.4c-3.6-0.1-5-2.6-5-2.6c0-5.5,2.3-10,2.3-10
					C9.5,7.9,11.8,8,11.8,8l0.2,0.2C9,9.1,7.6,10.4,7.6,10.4s0.4-0.2,1-0.5c1.7-0.8,3.1-1,3.7-1.1c0.1,0,0.2,0,0.3,0
					c1-0.1,2.1-0.2,3.3,0c1.5,0.2,3.2,0.7,4.9,1.6c0,0-1.3-1.3-4.1-2.2L16.9,8c0,0,2.2-0.1,4.6,1.8c0,0,2.3,4.5,2.3,10
					C23.9,19.7,22.5,22.2,18.9,22.3L18.9,22.3L18.9,22.3z"/>
			</g>
			<g id="Discord-Normal">
				<path id="Shape_2_" class="st2" d="M11.2,14.4c-1,0-1.7,0.8-1.7,1.8c0,1,0.8,1.8,1.7,1.8c1,0,1.7-0.8,1.7-1.8
					C12.9,15.2,12.2,14.4,11.2,14.4L11.2,14.4z M17.3,14.4c-1,0-1.7,0.8-1.7,1.8c0,1,0.8,1.8,1.7,1.8c1,0,1.7-0.8,1.7-1.8
					C19,15.2,18.3,14.4,17.3,14.4L17.3,14.4z"/>
				<path id="Shape_3_" class="st2" d="M25.2,0H3.3C1.5,0,0,1.6,0,3.5v23.1c0,1.9,1.5,3.5,3.3,3.5h18.5L21,27l2.1,2l2,1.9l3.5,3.2
					V3.5C28.5,1.6,27,0,25.2,0L25.2,0z M18.9,22.3c0,0-0.6-0.7-1.1-1.4c2.1-0.6,2.9-2,2.9-2c-0.7,0.5-1.3,0.8-1.9,1
					c-0.8,0.4-1.6,0.6-2.4,0.7c-1.6,0.3-3,0.2-4.2,0c-0.9-0.2-1.7-0.5-2.4-0.7c-0.4-0.2-0.8-0.3-1.2-0.6c0,0-0.1-0.1-0.1-0.1
					c0,0,0,0-0.1-0.1C8.2,19,8,18.9,8,18.9s0.8,1.4,2.9,2c-0.5,0.6-1.1,1.4-1.1,1.4c-3.6-0.1-5-2.6-5-2.6c0-5.5,2.3-10,2.3-10
					C9.5,7.9,11.8,8,11.8,8l0.2,0.2C9,9.1,7.6,10.4,7.6,10.4s0.4-0.2,1-0.5c1.7-0.8,3.1-1,3.7-1.1c0.1,0,0.2,0,0.3,0
					c1-0.1,2.1-0.2,3.3,0c1.5,0.2,3.2,0.7,4.9,1.6c0,0-1.3-1.3-4.1-2.2L16.9,8c0,0,2.2-0.1,4.6,1.8c0,0,2.3,4.5,2.3,10
					C23.9,19.7,22.5,22.2,18.9,22.3L18.9,22.3L18.9,22.3z"/>
			</g>
		</g>
		<g id="GPLv3" transform="translate(111.60002 1.2000351)">
			<g id="GPLv3-Hover" transform="translate(0 36)">
				<path id="Shape_4_" class="st1" d="M19.9,0h8.9L15.1,24c-0.8,1.3-1.5,2.4-2.3,3.1c-0.7,0.7-1.4,1.2-2.1,1.6
					c-0.6,0.3-1.2,0.5-1.6,0.6c-0.5,0.1-0.8,0.1-0.9,0.1H0V8.6h7.6l0,14.3L19.9,0L19.9,0z"/>
				<path id="Shape_5_" class="st1" d="M2.9,32c0-0.1,0-0.2,0-0.2h0c0,0-0.1,0-0.2,0H1.2c-0.1,0-0.2,0-0.2,0.1
					c-0.1,0-0.1,0.1-0.1,0.1l-0.2,0.4h1l-0.1,0.3h-1l-0.3,0.9H0L0.6,32c0-0.1,0.1-0.3,0.3-0.3c0.1-0.1,0.3-0.1,0.5-0.1h1.4
					c0.2,0,0.3,0,0.3,0.1c0.1,0.1,0.1,0.2,0.1,0.4L2.9,32L2.9,32L2.9,32z"/>
				<path id="Shape_6_" class="st1" d="M5,32.6c0-0.1,0-0.1-0.1-0.2c0,0,0,0-0.1,0c0,0-0.1,0-0.1,0H4.1c-0.1,0-0.1,0-0.2,0
					c-0.1,0-0.1,0.1-0.1,0.1l-0.4,1.1H3l0.5-1.5h0.3l0,0.1c0.1,0,0.1,0,0.2,0c0,0,0.1,0,0.1,0h0.7c0.1,0,0.2,0,0.3,0.1
					c0.1,0.1,0.1,0.2,0.1,0.4H5L5,32.6z"/>
				<path id="Shape_7_" class="st1" d="M7.6,32.5c0,0.1-0.2,0.3-0.3,0.4C7.1,33,7,33,6.8,33H6.1c0,0-0.1,0-0.1,0c0,0-0.1,0-0.1,0
					l-0.1,0.2l0,0c0,0,0,0.1,0.1,0.1c0,0,0.1,0,0.1,0c0,0,0.1,0,0.1,0h0.7c0,0,0.1,0,0.1,0c0,0,0.1,0,0.1,0c0.1,0,0.1-0.1,0.2-0.2
					h0.3c-0.1,0.2-0.2,0.3-0.4,0.4c-0.1,0.1-0.3,0.1-0.4,0.1H5.9c-0.1,0-0.2,0-0.3-0.1c-0.1-0.1-0.1-0.2-0.1-0.4l0.2-0.6
					c0.1-0.1,0.2-0.3,0.3-0.3c0.1-0.1,0.3-0.1,0.4-0.1h0.7c0.1,0,0.3,0,0.3,0.1C7.6,32.3,7.6,32.4,7.6,32.5L7.6,32.5z M7.3,32.6
					c0-0.1,0-0.1,0-0.2c0-0.1-0.1-0.1-0.2-0.1H6.4c-0.1,0-0.1,0-0.2,0.1c-0.1,0-0.1,0.1-0.1,0.2c0,0.1,0,0.1,0.1,0.2
					c0.1,0,0.1,0.1,0.2,0.1h0.7c0.1,0,0.2,0,0.2-0.1C7.2,32.7,7.3,32.6,7.3,32.6L7.3,32.6z"/>
				<path id="Shape_8_" class="st1" d="M9.9,32.5c0,0.1-0.2,0.3-0.3,0.4C9.4,33,9.3,33,9.1,33H8.4c0,0-0.1,0-0.1,0c0,0-0.1,0-0.1,0
					l-0.1,0.2l0,0c0,0,0,0.1,0.1,0.1c0,0,0.1,0,0.1,0c0,0,0.1,0,0.1,0H9c0,0,0.1,0,0.1,0c0,0,0.1,0,0.1,0c0.1,0,0.1-0.1,0.2-0.2h0.3
					c-0.1,0.2-0.2,0.3-0.4,0.4c-0.1,0.1-0.3,0.1-0.4,0.1H8.2c-0.1,0-0.2,0-0.3-0.1c-0.1-0.1-0.1-0.2-0.1-0.4L8,32.5
					c0.1-0.1,0.2-0.3,0.3-0.3c0.1-0.1,0.3-0.1,0.4-0.1h0.7c0.1,0,0.3,0,0.3,0.1C9.9,32.3,9.9,32.4,9.9,32.5L9.9,32.5z M9.6,32.6
					c0-0.1,0-0.1,0-0.2c0-0.1-0.1-0.1-0.2-0.1H8.7c-0.1,0-0.1,0-0.2,0.1c-0.1,0-0.1,0.1-0.1,0.2c0,0.1,0,0.1,0.1,0.2
					c0.1,0,0.1,0.1,0.2,0.1h0.7c0.1,0,0.2,0,0.2-0.1C9.5,32.7,9.6,32.6,9.6,32.6L9.6,32.6z"/>
				<path id="Shape_9_" class="st1" d="M14.3,33.5c-0.1,0.1-0.3,0.1-0.5,0.1h-1.4c-0.1,0-0.3,0-0.3-0.1C12,33.4,12,33.3,12,33.1h0.3
					c0,0.1,0,0.1,0,0.2h0c0,0,0.1,0,0.2,0h1.4c0.1,0,0.2,0,0.2-0.1c0.1,0,0.1-0.1,0.1-0.1l0.1-0.2c0,0,0-0.1,0-0.1
					c0,0-0.1-0.1-0.2-0.1h-1.4c-0.2,0-0.3,0-0.4-0.1c-0.1-0.1-0.1-0.2-0.1-0.4l0.1-0.2c0-0.1,0.1-0.3,0.3-0.3
					c0.1-0.1,0.3-0.1,0.5-0.1h1.4c0.1,0,0.3,0,0.3,0.1C15,31.7,15,31.8,15,32h-0.3c0-0.1,0-0.1,0-0.2h0c0,0-0.1,0-0.2,0H13
					c-0.1,0-0.2,0-0.2,0.1c-0.1,0-0.1,0.1-0.1,0.1l-0.1,0.2c0,0,0,0.1,0,0.1c0,0,0.1,0.1,0.2,0.1h1.4c0.2,0,0.3,0,0.4,0.1
					c0.1,0.1,0.1,0.2,0.1,0.4l-0.1,0.2C14.5,33.3,14.4,33.4,14.3,33.5L14.3,33.5z"/>
				<path id="Shape_10_" class="st1" d="M16.5,33.5c-0.1,0.1-0.3,0.1-0.4,0.1h-0.7c-0.1,0-0.3,0-0.3-0.1C15,33.4,15,33.3,15,33.2
					l0.2-0.6c0-0.1,0.2-0.3,0.3-0.4c0.1-0.1,0.3-0.1,0.4-0.1h0.7c0.1,0,0.2,0,0.3,0.1c0.1,0.1,0.1,0.2,0.1,0.4l-0.2,0.6
					C16.8,33.3,16.7,33.4,16.5,33.5L16.5,33.5z M16.8,32.6c0,0,0-0.1-0.1-0.1c0,0-0.1,0-0.2,0h-0.7c-0.1,0-0.1,0-0.2,0
					c-0.1,0-0.1,0.1-0.1,0.1l-0.2,0.7c0,0,0,0.1,0.1,0.1c0.1,0,0.1,0,0.2,0h0.7c0,0,0.1,0,0.1,0c0,0,0.1,0,0.1,0
					c0.1,0,0.1-0.1,0.1-0.1L16.8,32.6L16.8,32.6z"/>
				<path id="Shape_11_" class="st1" d="M17.9,32.4l-0.5,1.2h-0.3l0.6-1.7c0.1-0.1,0.2-0.3,0.3-0.3c0.1-0.1,0.3-0.1,0.5-0.1
					l-0.1,0.3c-0.1,0-0.2,0-0.3,0.1c-0.1,0-0.1,0.1-0.1,0.1l-0.1,0.1h0.3l-0.1,0.3L17.9,32.4L17.9,32.4L17.9,32.4z"/>
				<path id="Shape_12_" class="st1" d="M19.4,32.4l-0.6,1.2h-0.4l0.6-1.2h-0.4l0.1-0.3h0.4l0.3-0.6h0.4l-0.3,0.6h0.4l-0.1,0.3H19.4
					L19.4,32.4z"/>
				<path id="Shape_13_" class="st1" d="M21.4,33.5c-0.1,0.1-0.3,0.1-0.4,0.1c-0.1,0-0.2,0-0.2,0c-0.1,0-0.1-0.1-0.2-0.1
					c-0.1,0.1-0.2,0.1-0.3,0.1c-0.1,0-0.2,0-0.3,0c-0.1,0-0.3,0-0.3-0.1c-0.1-0.1-0.1-0.2,0-0.4l0.4-1.1h0.3L20,33.2
					c0,0,0,0.1,0,0.1c0,0,0.1,0,0.2,0c0.1,0,0.2,0,0.2,0c0.1,0,0.1-0.1,0.1-0.1l0.2-0.7h0.3l-0.2,0.7c0,0,0,0.1,0,0.1
					c0,0,0.1,0,0.2,0c0.1,0,0.2,0,0.2,0c0.1,0,0.1-0.1,0.1-0.1l0.4-1.1h0.3l-0.4,1.1C21.7,33.3,21.6,33.4,21.4,33.5L21.4,33.5z"/>
				<path id="Shape_14_" class="st1" d="M23.6,33.5c-0.1,0.1-0.3,0.1-0.4,0.1h-0.7c-0.1,0-0.3,0-0.3-0.1c-0.1-0.1-0.1-0.2-0.1-0.4
					c0.1-0.1,0.2-0.3,0.3-0.3c0.1-0.1,0.3-0.1,0.4-0.1h0.7c0,0,0.1,0,0.1,0c0,0,0.1,0,0.1,0l0.1-0.2c0,0,0-0.1-0.1-0.1
					c0,0-0.1,0-0.2,0H23c0,0-0.1,0-0.1,0c0,0-0.1,0-0.1,0c-0.1,0-0.1,0.1-0.2,0.2h-0.3c0.1-0.2,0.2-0.3,0.4-0.4
					c0.1-0.1,0.3-0.1,0.4-0.1h0.7c0.1,0,0.2,0,0.3,0.1c0.1,0.1,0.1,0.2,0.1,0.4L24,33.2C23.9,33.3,23.8,33.4,23.6,33.5L23.6,33.5z
					 M23.7,33.2c0-0.1,0-0.1-0.1-0.2c-0.1,0-0.1-0.1-0.2-0.1h-0.7c-0.1,0-0.2,0-0.2,0.1c-0.1,0-0.1,0.1-0.1,0.2c0,0.1,0,0.1,0,0.2
					c0,0.1,0.1,0.1,0.2,0.1h0.7c0.1,0,0.1,0,0.2-0.1C23.6,33.3,23.7,33.2,23.7,33.2L23.7,33.2z"/>
				<path id="Shape_15_" class="st1" d="M26.2,32.6c0-0.1,0-0.1-0.1-0.2c0,0,0,0-0.1,0c0,0-0.1,0-0.1,0h-0.7c-0.1,0-0.1,0-0.2,0
					c-0.1,0-0.1,0.1-0.1,0.1l-0.4,1.1h-0.3l0.5-1.5h0.3l0,0.1c0.1,0,0.1,0,0.2,0c0,0,0.1,0,0.2,0h0.7c0.1,0,0.2,0,0.3,0.1
					c0.1,0.1,0.1,0.2,0.1,0.4H26.2L26.2,32.6z"/>
				<path id="Shape_16_" class="st1" d="M28.8,32.5c0,0.1-0.2,0.3-0.3,0.4C28.3,33,28.2,33,28,33h-0.7c0,0-0.1,0-0.1,0
					c0,0-0.1,0-0.1,0L27,33.2l0,0c0,0,0,0.1,0.1,0.1c0,0,0.1,0,0.1,0c0,0,0.1,0,0.1,0h0.7c0,0,0.1,0,0.1,0c0,0,0.1,0,0.1,0
					c0.1,0,0.1-0.1,0.2-0.2h0.3c-0.1,0.2-0.2,0.3-0.4,0.4c-0.1,0.1-0.3,0.1-0.4,0.1h-0.7c-0.1,0-0.2,0-0.3-0.1
					c-0.1-0.1-0.1-0.2-0.1-0.4l0.2-0.6c0.1-0.1,0.2-0.3,0.3-0.3c0.1-0.1,0.3-0.1,0.4-0.1h0.7c0.1,0,0.3,0,0.3,0.1
					C28.8,32.3,28.8,32.4,28.8,32.5L28.8,32.5z M28.5,32.6c0-0.1,0-0.1,0-0.2c0-0.1-0.1-0.1-0.2-0.1h-0.7c-0.1,0-0.1,0-0.2,0.1
					c-0.1,0-0.1,0.1-0.1,0.2c0,0.1,0,0.1,0.1,0.2c0.1,0,0.1,0.1,0.2,0.1h0.7c0.1,0,0.2,0,0.2-0.1C28.5,32.7,28.5,32.6,28.5,32.6
					L28.5,32.6z"/>
				<path id="Shape_17_" class="st1" d="M28.8,27.8c0,0.4-0.2,0.8-0.6,1.1c-0.3,0.3-0.8,0.4-1.3,0.4h-4.5c-0.5,0-0.9-0.1-1.2-0.4
					c-0.4-0.3-0.6-0.7-0.7-1.3h0.9c0.1,0.3,0.2,0.5,0.4,0.6h0c0.2,0.1,0.4,0.2,0.6,0.2H27c0.3,0,0.5-0.1,0.7-0.2
					c0.2-0.1,0.3-0.2,0.3-0.4V27c0-0.1-0.1-0.3-0.3-0.4c-0.2-0.1-0.4-0.2-0.7-0.2h-2.4v-1H27c0.3,0,0.5-0.1,0.7-0.2
					c0.2-0.1,0.3-0.2,0.3-0.4v-0.8c0-0.1-0.1-0.3-0.3-0.4c-0.2-0.1-0.4-0.2-0.7-0.2h-4.5c-0.2,0-0.4,0.1-0.6,0.2h0
					c-0.2,0.1-0.3,0.3-0.4,0.6h-0.9c0.1-0.6,0.3-1,0.7-1.3c0.3-0.3,0.7-0.4,1.2-0.4H27c0.5,0,0.9,0.1,1.3,0.4
					c0.4,0.3,0.6,0.7,0.6,1.1c0,0.4,0,0.7,0,1c0,0.2-0.1,0.3-0.1,0.4c0,0.1-0.1,0.1-0.1,0.2c-0.1,0.1-0.1,0.1-0.2,0.2
					c0.1,0.1,0.3,0.3,0.3,0.4c0.1,0.1,0.1,0.3,0.1,0.4C28.8,27.1,28.8,27.4,28.8,27.8L28.8,27.8z"/>
				<path id="Shape_18_" class="st1" d="M5.3,24l-0.6,0.4v2.4l0.6,0.4v0.5c-0.3-0.2-0.5-0.3-0.8-0.5C4.2,27,4,26.9,3.7,26.7
					c-0.3-0.2-0.5-0.3-0.7-0.5c-0.2-0.2-0.5-0.3-0.7-0.4c-0.1,0-0.1-0.1-0.1-0.2c0-0.1,0-0.2,0.1-0.2l3-1.9L5.3,24L5.3,24L5.3,24z
					 M4.3,26.5v-1.8l-1.4,0.8c0,0-0.1,0.1-0.1,0.1c0,0,0,0,0.1,0.1L4.3,26.5L4.3,26.5z"/>
				<path id="Shape_19_" class="st1" d="M5.1,19.3c0.1,0.2,0.2,0.4,0.2,0.6v2.2c0,0.3-0.1,0.5-0.2,0.6c-0.1,0.2-0.3,0.3-0.5,0.3H2.9
					c-0.2,0-0.4-0.1-0.5-0.3c-0.1-0.2-0.2-0.4-0.2-0.6V20c0-0.2,0.1-0.4,0.2-0.6c0.1-0.2,0.3-0.3,0.6-0.3v0.5
					c-0.1,0-0.2,0.1-0.3,0.2c0,0.1-0.1,0.2-0.1,0.3v2.2c0,0.1,0,0.2,0.1,0.3c0,0.1,0.1,0.1,0.2,0.1h1.7c0.1,0,0.1,0,0.2-0.1l0,0
					c0.1-0.1,0.1-0.2,0.1-0.3V20c0-0.1,0-0.2-0.1-0.3c0-0.1-0.1-0.2-0.2-0.2H3.9v1.8H3.5v-2.2h1.1C4.8,19.1,4.9,19.2,5.1,19.3
					L5.1,19.3z"/>
				<path id="Shape_20_" class="st1" d="M3.7,14.6c0.1,0.2,0.2,0.4,0.2,0.6v2.7h1.3v0.5H2.9c-0.2,0-0.4-0.1-0.5-0.3
					c-0.1-0.2-0.2-0.4-0.2-0.6v-2.2c0-0.2,0.1-0.5,0.2-0.6c0.1-0.2,0.3-0.3,0.5-0.3h0.4C3.4,14.3,3.6,14.4,3.7,14.6L3.7,14.6z
					 M3.1,14.8c-0.1,0-0.2,0-0.3,0.1c-0.1,0.1-0.1,0.2-0.1,0.3v2.2c0,0.1,0,0.2,0.1,0.3c0.1,0.1,0.2,0.2,0.3,0.2h1v-2.7
					c0-0.1,0-0.2-0.1-0.3c-0.1-0.1-0.2-0.1-0.3-0.1H3.1L3.1,14.8z"/>
				<path id="Shape_21_" class="st1" d="M4.6,9.6c0.2,0,0.4,0.1,0.5,0.3c0.1,0.2,0.2,0.4,0.2,0.6v2.2c0,0.2-0.1,0.5-0.2,0.6
					c-0.1,0.2-0.3,0.3-0.5,0.3H2.2v-0.5h2.4c0.1,0,0.1,0,0.2-0.1l0,0c0.1-0.1,0.1-0.2,0.1-0.3v-2.2c0-0.1,0-0.2-0.1-0.3v0
					c-0.1-0.1-0.1-0.1-0.3-0.2L4.6,9.6L4.6,9.6L4.6,9.6z"/>
			</g>
			<g id="GPLv3-Normal">
				<path id="Shape_22_" class="st3" d="M19.9,0h8.9L15.1,24c-0.8,1.3-1.5,2.4-2.3,3.1c-0.7,0.7-1.4,1.2-2.1,1.6
					c-0.6,0.3-1.2,0.5-1.6,0.6c-0.5,0.1-0.8,0.1-0.9,0.1H0V8.6h7.6l0,14.3L19.9,0L19.9,0z"/>
				<path id="Shape_23_" class="st3" d="M2.9,32c0-0.1,0-0.2,0-0.2h0c0,0-0.1,0-0.2,0H1.2c-0.1,0-0.2,0-0.2,0.1
					c-0.1,0-0.1,0.1-0.1,0.1l-0.2,0.4h1l-0.1,0.3h-1l-0.3,0.9H0L0.6,32c0-0.1,0.1-0.3,0.3-0.3c0.1-0.1,0.3-0.1,0.5-0.1h1.4
					c0.2,0,0.3,0,0.3,0.1c0.1,0.1,0.1,0.2,0.1,0.4L2.9,32L2.9,32L2.9,32z"/>
				<path id="Shape_24_" class="st3" d="M5,32.6c0-0.1,0-0.1-0.1-0.2c0,0,0,0-0.1,0c0,0-0.1,0-0.1,0H4.1c-0.1,0-0.1,0-0.2,0
					c-0.1,0-0.1,0.1-0.1,0.1l-0.4,1.1H3l0.5-1.5h0.3l0,0.1c0.1,0,0.1,0,0.2,0c0,0,0.1,0,0.1,0h0.7c0.1,0,0.2,0,0.3,0.1
					c0.1,0.1,0.1,0.2,0.1,0.4H5L5,32.6z"/>
				<path id="Shape_25_" class="st3" d="M7.6,32.5c0,0.1-0.2,0.3-0.3,0.4C7.1,33,7,33,6.8,33H6.1c0,0-0.1,0-0.1,0c0,0-0.1,0-0.1,0
					l-0.1,0.2l0,0c0,0,0,0.1,0.1,0.1c0,0,0.1,0,0.1,0c0,0,0.1,0,0.1,0h0.7c0,0,0.1,0,0.1,0c0,0,0.1,0,0.1,0c0.1,0,0.1-0.1,0.2-0.2
					h0.3c-0.1,0.2-0.2,0.3-0.4,0.4c-0.1,0.1-0.3,0.1-0.4,0.1H5.9c-0.1,0-0.2,0-0.3-0.1c-0.1-0.1-0.1-0.2-0.1-0.4l0.2-0.6
					c0.1-0.1,0.2-0.3,0.3-0.3c0.1-0.1,0.3-0.1,0.4-0.1h0.7c0.1,0,0.3,0,0.3,0.1C7.6,32.3,7.6,32.4,7.6,32.5L7.6,32.5z M7.3,32.6
					c0-0.1,0-0.1,0-0.2c0-0.1-0.1-0.1-0.2-0.1H6.4c-0.1,0-0.1,0-0.2,0.1c-0.1,0-0.1,0.1-0.1,0.2c0,0.1,0,0.1,0.1,0.2
					c0.1,0,0.1,0.1,0.2,0.1h0.7c0.1,0,0.2,0,0.2-0.1C7.2,32.7,7.3,32.6,7.3,32.6L7.3,32.6z"/>
				<path id="Shape_26_" class="st3" d="M9.9,32.5c0,0.1-0.2,0.3-0.3,0.4C9.4,33,9.3,33,9.1,33H8.4c0,0-0.1,0-0.1,0c0,0-0.1,0-0.1,0
					l-0.1,0.2l0,0c0,0,0,0.1,0.1,0.1c0,0,0.1,0,0.1,0c0,0,0.1,0,0.1,0H9c0,0,0.1,0,0.1,0c0,0,0.1,0,0.1,0c0.1,0,0.1-0.1,0.2-0.2h0.3
					c-0.1,0.2-0.2,0.3-0.4,0.4c-0.1,0.1-0.3,0.1-0.4,0.1H8.2c-0.1,0-0.2,0-0.3-0.1c-0.1-0.1-0.1-0.2-0.1-0.4L8,32.5
					c0.1-0.1,0.2-0.3,0.3-0.3c0.1-0.1,0.3-0.1,0.4-0.1h0.7c0.1,0,0.3,0,0.3,0.1C9.9,32.3,9.9,32.4,9.9,32.5L9.9,32.5z M9.6,32.6
					c0-0.1,0-0.1,0-0.2c0-0.1-0.1-0.1-0.2-0.1H8.7c-0.1,0-0.1,0-0.2,0.1c-0.1,0-0.1,0.1-0.1,0.2c0,0.1,0,0.1,0.1,0.2
					c0.1,0,0.1,0.1,0.2,0.1h0.7c0.1,0,0.2,0,0.2-0.1C9.5,32.7,9.6,32.6,9.6,32.6L9.6,32.6z"/>
				<path id="Shape_27_" class="st3" d="M14.3,33.5c-0.1,0.1-0.3,0.1-0.5,0.1h-1.4c-0.1,0-0.3,0-0.3-0.1C12,33.4,12,33.3,12,33.1
					h0.3c0,0.1,0,0.1,0,0.2h0c0,0,0.1,0,0.2,0h1.4c0.1,0,0.2,0,0.2-0.1c0.1,0,0.1-0.1,0.1-0.1l0.1-0.2c0,0,0-0.1,0-0.1
					c0,0-0.1-0.1-0.2-0.1h-1.4c-0.2,0-0.3,0-0.4-0.1c-0.1-0.1-0.1-0.2-0.1-0.4l0.1-0.2c0-0.1,0.1-0.3,0.3-0.3
					c0.1-0.1,0.3-0.1,0.5-0.1h1.4c0.1,0,0.3,0,0.3,0.1C15,31.7,15,31.8,15,32h-0.3c0-0.1,0-0.1,0-0.2h0c0,0-0.1,0-0.2,0H13
					c-0.1,0-0.2,0-0.2,0.1c-0.1,0-0.1,0.1-0.1,0.1l-0.1,0.2c0,0,0,0.1,0,0.1c0,0,0.1,0.1,0.2,0.1h1.4c0.2,0,0.3,0,0.4,0.1
					c0.1,0.1,0.1,0.2,0.1,0.4l-0.1,0.2C14.5,33.3,14.4,33.4,14.3,33.5L14.3,33.5z"/>
				<path id="Shape_28_" class="st3" d="M16.5,33.5c-0.1,0.1-0.3,0.1-0.4,0.1h-0.7c-0.1,0-0.3,0-0.3-0.1C15,33.4,15,33.3,15,33.2
					l0.2-0.6c0-0.1,0.2-0.3,0.3-0.4c0.1-0.1,0.3-0.1,0.4-0.1h0.7c0.1,0,0.2,0,0.3,0.1c0.1,0.1,0.1,0.2,0.1,0.4l-0.2,0.6
					C16.8,33.3,16.7,33.4,16.5,33.5L16.5,33.5z M16.8,32.6c0,0,0-0.1-0.1-0.1c0,0-0.1,0-0.2,0h-0.7c-0.1,0-0.1,0-0.2,0
					c-0.1,0-0.1,0.1-0.1,0.1l-0.2,0.7c0,0,0,0.1,0.1,0.1c0.1,0,0.1,0,0.2,0h0.7c0,0,0.1,0,0.1,0c0,0,0.1,0,0.1,0
					c0.1,0,0.1-0.1,0.1-0.1L16.8,32.6L16.8,32.6z"/>
				<path id="Shape_29_" class="st3" d="M17.9,32.4l-0.5,1.2h-0.3l0.6-1.7c0.1-0.1,0.2-0.3,0.3-0.3c0.1-0.1,0.3-0.1,0.5-0.1
					l-0.1,0.3c-0.1,0-0.2,0-0.3,0.1c-0.1,0-0.1,0.1-0.1,0.1l-0.1,0.1h0.3l-0.1,0.3L17.9,32.4L17.9,32.4L17.9,32.4z"/>
				<path id="Shape_30_" class="st3" d="M19.4,32.4l-0.6,1.2h-0.4l0.6-1.2h-0.4l0.1-0.3h0.4l0.3-0.6h0.4l-0.3,0.6h0.4l-0.1,0.3H19.4
					L19.4,32.4z"/>
				<path id="Shape_31_" class="st3" d="M21.4,33.5c-0.1,0.1-0.3,0.1-0.4,0.1c-0.1,0-0.2,0-0.2,0c-0.1,0-0.1-0.1-0.2-0.1
					c-0.1,0.1-0.2,0.1-0.3,0.1c-0.1,0-0.2,0-0.3,0c-0.1,0-0.3,0-0.3-0.1c-0.1-0.1-0.1-0.2,0-0.4l0.4-1.1h0.3L20,33.2
					c0,0,0,0.1,0,0.1c0,0,0.1,0,0.2,0c0.1,0,0.2,0,0.2,0c0.1,0,0.1-0.1,0.1-0.1l0.2-0.7h0.3l-0.2,0.7c0,0,0,0.1,0,0.1
					c0,0,0.1,0,0.2,0c0.1,0,0.2,0,0.2,0c0.1,0,0.1-0.1,0.1-0.1l0.4-1.1h0.3l-0.4,1.1C21.7,33.3,21.6,33.4,21.4,33.5L21.4,33.5z"/>
				<path id="Shape_32_" class="st3" d="M23.6,33.5c-0.1,0.1-0.3,0.1-0.4,0.1h-0.7c-0.1,0-0.3,0-0.3-0.1c-0.1-0.1-0.1-0.2-0.1-0.4
					c0.1-0.1,0.2-0.3,0.3-0.3c0.1-0.1,0.3-0.1,0.4-0.1h0.7c0,0,0.1,0,0.1,0c0,0,0.1,0,0.1,0l0.1-0.2c0,0,0-0.1-0.1-0.1
					c0,0-0.1,0-0.2,0H23c0,0-0.1,0-0.1,0c0,0-0.1,0-0.1,0c-0.1,0-0.1,0.1-0.2,0.2h-0.3c0.1-0.2,0.2-0.3,0.4-0.4
					c0.1-0.1,0.3-0.1,0.4-0.1h0.7c0.1,0,0.2,0,0.3,0.1c0.1,0.1,0.1,0.2,0.1,0.4L24,33.2C23.9,33.3,23.8,33.4,23.6,33.5L23.6,33.5z
					 M23.7,33.2c0-0.1,0-0.1-0.1-0.2c-0.1,0-0.1-0.1-0.2-0.1h-0.7c-0.1,0-0.2,0-0.2,0.1c-0.1,0-0.1,0.1-0.1,0.2c0,0.1,0,0.1,0,0.2
					c0,0.1,0.1,0.1,0.2,0.1h0.7c0.1,0,0.1,0,0.2-0.1C23.6,33.3,23.7,33.2,23.7,33.2L23.7,33.2z"/>
				<path id="Shape_33_" class="st3" d="M26.2,32.6c0-0.1,0-0.1-0.1-0.2c0,0,0,0-0.1,0c0,0-0.1,0-0.1,0h-0.7c-0.1,0-0.1,0-0.2,0
					c-0.1,0-0.1,0.1-0.1,0.1l-0.4,1.1h-0.3l0.5-1.5h0.3l0,0.1c0.1,0,0.1,0,0.2,0c0,0,0.1,0,0.2,0h0.7c0.1,0,0.2,0,0.3,0.1
					c0.1,0.1,0.1,0.2,0.1,0.4H26.2L26.2,32.6z"/>
				<path id="Shape_34_" class="st3" d="M28.8,32.5c0,0.1-0.2,0.3-0.3,0.4C28.3,33,28.2,33,28,33h-0.7c0,0-0.1,0-0.1,0
					c0,0-0.1,0-0.1,0L27,33.2l0,0c0,0,0,0.1,0.1,0.1c0,0,0.1,0,0.1,0c0,0,0.1,0,0.1,0h0.7c0,0,0.1,0,0.1,0c0,0,0.1,0,0.1,0
					c0.1,0,0.1-0.1,0.2-0.2h0.3c-0.1,0.2-0.2,0.3-0.4,0.4c-0.1,0.1-0.3,0.1-0.4,0.1h-0.7c-0.1,0-0.2,0-0.3-0.1
					c-0.1-0.1-0.1-0.2-0.1-0.4l0.2-0.6c0.1-0.1,0.2-0.3,0.3-0.3c0.1-0.1,0.3-0.1,0.4-0.1h0.7c0.1,0,0.3,0,0.3,0.1
					C28.8,32.3,28.8,32.4,28.8,32.5L28.8,32.5z M28.5,32.6c0-0.1,0-0.1,0-0.2c0-0.1-0.1-0.1-0.2-0.1h-0.7c-0.1,0-0.1,0-0.2,0.1
					c-0.1,0-0.1,0.1-0.1,0.2c0,0.1,0,0.1,0.1,0.2c0.1,0,0.1,0.1,0.2,0.1h0.7c0.1,0,0.2,0,0.2-0.1C28.5,32.7,28.5,32.6,28.5,32.6
					L28.5,32.6z"/>
				<path id="Shape_35_" class="st3" d="M28.8,27.8c0,0.4-0.2,0.8-0.6,1.1c-0.3,0.3-0.8,0.4-1.3,0.4h-4.5c-0.5,0-0.9-0.1-1.2-0.4
					c-0.4-0.3-0.6-0.7-0.7-1.3h0.9c0.1,0.3,0.2,0.5,0.4,0.6h0c0.2,0.1,0.4,0.2,0.6,0.2H27c0.3,0,0.5-0.1,0.7-0.2
					c0.2-0.1,0.3-0.2,0.3-0.4V27c0-0.1-0.1-0.3-0.3-0.4c-0.2-0.1-0.4-0.2-0.7-0.2h-2.4v-1H27c0.3,0,0.5-0.1,0.7-0.2
					c0.2-0.1,0.3-0.2,0.3-0.4v-0.8c0-0.1-0.1-0.3-0.3-0.4c-0.2-0.1-0.4-0.2-0.7-0.2h-4.5c-0.2,0-0.4,0.1-0.6,0.2h0
					c-0.2,0.1-0.3,0.3-0.4,0.6h-0.9c0.1-0.6,0.3-1,0.7-1.3c0.3-0.3,0.7-0.4,1.2-0.4H27c0.5,0,0.9,0.1,1.3,0.4
					c0.4,0.3,0.6,0.7,0.6,1.1c0,0.4,0,0.7,0,1c0,0.2-0.1,0.3-0.1,0.4c0,0.1-0.1,0.1-0.1,0.2c-0.1,0.1-0.1,0.1-0.2,0.2
					c0.1,0.1,0.3,0.3,0.3,0.4c0.1,0.1,0.1,0.3,0.1,0.4C28.8,27.1,28.8,27.4,28.8,27.8L28.8,27.8z"/>
				<path id="Shape_36_" class="st3" d="M5.3,24l-0.6,0.4v2.4l0.6,0.4v0.5c-0.3-0.2-0.5-0.3-0.8-0.5C4.2,27,4,26.9,3.7,26.7
					c-0.3-0.2-0.5-0.3-0.7-0.5c-0.2-0.2-0.5-0.3-0.7-0.4c-0.1,0-0.1-0.1-0.1-0.2c0-0.1,0-0.2,0.1-0.2l3-1.9L5.3,24L5.3,24L5.3,24z
					 M4.3,26.5v-1.8l-1.4,0.8c0,0-0.1,0.1-0.1,0.1c0,0,0,0,0.1,0.1L4.3,26.5L4.3,26.5z"/>
				<path id="Shape_37_" class="st3" d="M5.1,19.3c0.1,0.2,0.2,0.4,0.2,0.6v2.2c0,0.3-0.1,0.5-0.2,0.6c-0.1,0.2-0.3,0.3-0.5,0.3H2.9
					c-0.2,0-0.4-0.1-0.5-0.3c-0.1-0.2-0.2-0.4-0.2-0.6V20c0-0.2,0.1-0.4,0.2-0.6c0.1-0.2,0.3-0.3,0.6-0.3v0.5
					c-0.1,0-0.2,0.1-0.3,0.2c0,0.1-0.1,0.2-0.1,0.3v2.2c0,0.1,0,0.2,0.1,0.3c0,0.1,0.1,0.1,0.2,0.1h1.7c0.1,0,0.1,0,0.2-0.1l0,0
					c0.1-0.1,0.1-0.2,0.1-0.3V20c0-0.1,0-0.2-0.1-0.3c0-0.1-0.1-0.2-0.2-0.2H3.9v1.8H3.5v-2.2h1.1C4.8,19.1,4.9,19.2,5.1,19.3
					L5.1,19.3z"/>
				<path id="Shape_38_" class="st3" d="M3.7,14.6c0.1,0.2,0.2,0.4,0.2,0.6v2.7h1.3v0.5H2.9c-0.2,0-0.4-0.1-0.5-0.3
					c-0.1-0.2-0.2-0.4-0.2-0.6v-2.2c0-0.2,0.1-0.5,0.2-0.6c0.1-0.2,0.3-0.3,0.5-0.3h0.4C3.4,14.3,3.6,14.4,3.7,14.6L3.7,14.6z
					 M3.1,14.8c-0.1,0-0.2,0-0.3,0.1c-0.1,0.1-0.1,0.2-0.1,0.3v2.2c0,0.1,0,0.2,0.1,0.3c0.1,0.1,0.2,0.2,0.3,0.2h1v-2.7
					c0-0.1,0-0.2-0.1-0.3c-0.1-0.1-0.2-0.1-0.3-0.1H3.1L3.1,14.8z"/>
				<path id="Shape_39_" class="st3" d="M4.6,9.6c0.2,0,0.4,0.1,0.5,0.3c0.1,0.2,0.2,0.4,0.2,0.6v2.2c0,0.2-0.1,0.5-0.2,0.6
					c-0.1,0.2-0.3,0.3-0.5,0.3H2.2v-0.5h2.4c0.1,0,0.1,0,0.2-0.1l0,0c0.1-0.1,0.1-0.2,0.1-0.3v-2.2c0-0.1,0-0.2-0.1-0.3v0
					c-0.1-0.1-0.1-0.1-0.3-0.2L4.6,9.6L4.6,9.6L4.6,9.6z"/>
			</g>
		</g>
		<g id="AU" transform="translate(72.5 0.5)">
			<g id="AU-Hover" transform="translate(0 36)">
				<path id="path16" class="st4" d="M35,35H0V0h35V35z"/>
				<path id="path18" class="st1" d="M8.3,14.9c0,2.1,0.7,4.2,2.1,5.8l1-0.8c-1.1-1.4-1.8-3.2-1.8-5c0-1.8,0.6-3.6,1.8-5l-1-0.8
					C9,10.8,8.3,12.8,8.3,14.9"/>
				<path id="path20" class="st1" d="M5.7,14.9c0,2.7,0.9,5.3,2.6,7.4l1-0.8c-1.5-1.8-2.3-4.2-2.3-6.6c0-2.4,0.8-4.7,2.3-6.6l-1-0.8
					C6.7,9.6,5.7,12.2,5.7,14.9"/>
				<path id="path22" class="st1" d="M3.2,14.9c0,3.3,1.1,6.5,3.2,9l1-0.8c-1.9-2.3-2.9-5.2-2.9-8.1c0-3,1-5.8,2.9-8.1l-1-0.8
					C4.3,8.5,3.2,11.7,3.2,14.9"/>
				<path id="path24" class="st1" d="M23.6,10c1.1,1.4,1.8,3.2,1.8,5c0,1.8-0.6,3.6-1.8,5l1,0.8c1.3-1.6,2.1-3.7,2.1-5.8
					c0-2.1-0.7-4.2-2.1-5.8L23.6,10"/>
				<path id="path26" class="st1" d="M25.6,8.4c1.5,1.8,2.3,4.2,2.3,6.6c0,2.4-0.8,4.7-2.3,6.6l1,0.8c1.7-2.1,2.6-4.7,2.6-7.4
					c0-2.7-0.9-5.3-2.6-7.4L25.6,8.4"/>
				<path id="path28" class="st1" d="M27.6,6.8c1.9,2.3,2.9,5.2,2.9,8.1c0,3-1,5.9-2.9,8.1l1,0.8c2.1-2.5,3.2-5.7,3.2-9
					c0-3.3-1.1-6.4-3.2-9L27.6,6.8"/>
				<path id="path30" class="st1" d="M11.5,14.9c0,3.3,2.7,6,6,6c3.3,0,6-2.7,6-6c0-3.3-2.7-6-6-6C14.2,8.9,11.5,11.6,11.5,14.9
					L11.5,14.9z M12.7,14.9c0-2.6,2.1-4.7,4.8-4.7c2.6,0,4.7,2.1,4.7,4.7c0,2.6-2.1,4.7-4.7,4.7C14.9,19.7,12.7,17.5,12.7,14.9"/>
				<path id="path32" class="st1" d="M6.6,31.5H5.9l-0.4-1.1H4.3l-0.3,1.1H3.3l1.3-3.9h0.8L6.6,31.5 M5.4,29.9l-0.3-1
					c0-0.1-0.1-0.3-0.2-0.7h0c0,0.2-0.1,0.4-0.2,0.7l-0.3,1H5.4"/>
				<path id="path34" class="st1" d="M9.4,31.5H8.9l0-0.4h0c-0.2,0.3-0.5,0.5-0.9,0.5c-0.3,0-0.5-0.1-0.7-0.3
					c-0.2-0.2-0.3-0.5-0.3-1v-1.7h0.6v1.6c0,0.5,0.2,0.8,0.6,0.8c0.3,0,0.5-0.1,0.6-0.4c0-0.1,0-0.1,0-0.2v-1.7h0.6v2
					C9.4,31,9.4,31.2,9.4,31.5"/>
				<path id="path36" class="st1" d="M12.7,31.5h-0.6l0-0.4h0c-0.2,0.3-0.5,0.5-0.9,0.5c-0.3,0-0.6-0.1-0.8-0.4
					c-0.2-0.3-0.3-0.6-0.3-1c0-0.5,0.1-0.8,0.4-1.1c0.2-0.3,0.5-0.4,0.9-0.4c0.4,0,0.6,0.1,0.8,0.4v-1.6h0.6v3.3
					C12.7,31,12.7,31.3,12.7,31.5 M12,30.3v-0.5c0-0.1,0-0.1,0-0.2c0-0.1-0.1-0.3-0.2-0.4c-0.1-0.1-0.3-0.2-0.4-0.2
					c-0.2,0-0.4,0.1-0.5,0.3c-0.1,0.2-0.2,0.4-0.2,0.7c0,0.3,0.1,0.5,0.2,0.7c0.1,0.2,0.3,0.3,0.5,0.3c0.2,0,0.4-0.1,0.5-0.2
					C12,30.7,12,30.5,12,30.3"/>
				<path id="path38" class="st1" d="M14.1,27.9c0,0.1,0,0.2-0.1,0.3c-0.1,0.1-0.2,0.1-0.3,0.1c-0.1,0-0.2,0-0.3-0.1
					c-0.1-0.1-0.1-0.2-0.1-0.3c0-0.1,0-0.2,0.1-0.3c0.1-0.1,0.2-0.1,0.3-0.1c0.1,0,0.2,0,0.3,0.1C14.1,27.7,14.1,27.7,14.1,27.9
					 M14.1,31.5h-0.6v-2.8h0.6V31.5"/>
				<path id="path40" class="st1" d="M17.4,30.1c0,0.4-0.1,0.8-0.4,1.1c-0.3,0.3-0.6,0.4-1,0.4c-0.4,0-0.7-0.1-1-0.4
					c-0.2-0.3-0.4-0.6-0.4-1c0-0.4,0.1-0.8,0.4-1.1c0.3-0.3,0.6-0.4,1-0.4c0.4,0,0.7,0.1,1,0.4C17.3,29.3,17.4,29.7,17.4,30.1
					 M16.8,30.1c0-0.3-0.1-0.5-0.2-0.7c-0.1-0.2-0.3-0.3-0.6-0.3c-0.3,0-0.4,0.1-0.6,0.3c-0.1,0.2-0.2,0.4-0.2,0.7
					c0,0.3,0.1,0.5,0.2,0.7c0.1,0.2,0.3,0.3,0.6,0.3c0.2,0,0.4-0.1,0.6-0.3C16.7,30.6,16.8,30.4,16.8,30.1"/>
				<path id="path42" class="st1" d="M22.4,29.9c0,0.6-0.1,1-0.4,1.3c-0.3,0.3-0.6,0.4-1.1,0.4c-1,0-1.4-0.6-1.4-1.7v-2.3h0.6v2.3
					c0,0.4,0.1,0.7,0.2,0.9c0.1,0.2,0.3,0.3,0.6,0.3c0.6,0,0.8-0.4,0.8-1.1v-2.3h0.6V29.9"/>
				<path id="path44" class="st1" d="M25.6,31.5h-0.6v-1.6c0-0.5-0.2-0.7-0.6-0.7c-0.2,0-0.3,0.1-0.5,0.2c-0.1,0.1-0.2,0.3-0.2,0.5
					v1.7h-0.6v-2c0-0.2,0-0.5,0-0.8h0.6l0,0.4h0c0.1-0.1,0.2-0.2,0.3-0.3c0.2-0.1,0.4-0.2,0.6-0.2c0.3,0,0.5,0.1,0.7,0.3
					c0.2,0.2,0.3,0.5,0.3,0.9V31.5"/>
				<path id="path46" class="st1" d="M27,27.9c0,0.1,0,0.2-0.1,0.3c-0.1,0.1-0.2,0.1-0.3,0.1c-0.1,0-0.2,0-0.3-0.1
					c-0.1-0.1-0.1-0.2-0.1-0.3c0-0.1,0-0.2,0.1-0.3c0.1-0.1,0.2-0.1,0.3-0.1c0.1,0,0.2,0,0.3,0.1C27,27.7,27,27.7,27,27.9
					 M26.9,31.5h-0.6v-2.8h0.6V31.5"/>
				<path id="path48" class="st1" d="M29.1,29.2h-0.7v1.4c0,0.3,0.1,0.5,0.4,0.5c0.1,0,0.2,0,0.3,0l0,0.5c-0.1,0-0.3,0.1-0.5,0.1
					c-0.2,0-0.4-0.1-0.6-0.2c-0.1-0.2-0.2-0.4-0.2-0.8v-1.4h-0.4v-0.5h0.4v-0.5l0.6-0.2v0.7h0.7V29.2"/>
				<path id="path50" class="st1" d="M31.4,30.7c0,0.3-0.1,0.5-0.3,0.6c-0.2,0.2-0.5,0.2-0.8,0.2c-0.3,0-0.6-0.1-0.8-0.2l0.1-0.5
					c0.2,0.1,0.4,0.2,0.7,0.2c0.3,0,0.5-0.1,0.5-0.4c0-0.1,0-0.2-0.1-0.3c-0.1-0.1-0.2-0.1-0.4-0.2c-0.5-0.2-0.8-0.5-0.8-0.8
					c0-0.2,0.1-0.4,0.3-0.6c0.2-0.2,0.4-0.2,0.7-0.2c0.3,0,0.5,0.1,0.7,0.2l-0.1,0.4c-0.2-0.1-0.4-0.2-0.6-0.2c-0.1,0-0.2,0-0.3,0.1
					c-0.1,0.1-0.1,0.1-0.1,0.2c0,0.1,0,0.2,0.1,0.2c0.1,0.1,0.2,0.1,0.4,0.2C31.2,30,31.4,30.3,31.4,30.7"/>
			</g>
			<g id="AU-Normal">
				<path id="path16_1_" class="st5" d="M35,35H0V0h35V35z"/>
				<path id="path18_1_" class="st2" d="M8.3,14.9c0,2.1,0.7,4.2,2.1,5.8l1-0.8c-1.1-1.4-1.8-3.2-1.8-5c0-1.8,0.6-3.6,1.8-5l-1-0.8
					C9,10.8,8.3,12.8,8.3,14.9"/>
				<path id="path20_1_" class="st2" d="M5.7,14.9c0,2.7,0.9,5.3,2.6,7.4l1-0.8c-1.5-1.8-2.3-4.2-2.3-6.6c0-2.4,0.8-4.7,2.3-6.6
					l-1-0.8C6.7,9.6,5.7,12.2,5.7,14.9"/>
				<path id="path22_1_" class="st2" d="M3.2,14.9c0,3.3,1.1,6.5,3.2,9l1-0.8c-1.9-2.3-2.9-5.2-2.9-8.1c0-3,1-5.8,2.9-8.1l-1-0.8
					C4.3,8.5,3.2,11.7,3.2,14.9"/>
				<path id="path24_1_" class="st2" d="M23.6,10c1.1,1.4,1.8,3.2,1.8,5c0,1.8-0.6,3.6-1.8,5l1,0.8c1.3-1.6,2.1-3.7,2.1-5.8
					c0-2.1-0.7-4.2-2.1-5.8L23.6,10"/>
				<path id="path26_1_" class="st2" d="M25.6,8.4c1.5,1.8,2.3,4.2,2.3,6.6c0,2.4-0.8,4.7-2.3,6.6l1,0.8c1.7-2.1,2.6-4.7,2.6-7.4
					c0-2.7-0.9-5.3-2.6-7.4L25.6,8.4"/>
				<path id="path28_1_" class="st2" d="M27.6,6.8c1.9,2.3,2.9,5.2,2.9,8.1c0,3-1,5.9-2.9,8.1l1,0.8c2.1-2.5,3.2-5.7,3.2-9
					c0-3.3-1.1-6.4-3.2-9L27.6,6.8"/>
				<path id="path30_1_" class="st2" d="M11.5,14.9c0,3.3,2.7,6,6,6c3.3,0,6-2.7,6-6c0-3.3-2.7-6-6-6C14.2,8.9,11.5,11.6,11.5,14.9
					L11.5,14.9z M12.7,14.9c0-2.6,2.1-4.7,4.8-4.7c2.6,0,4.7,2.1,4.7,4.7c0,2.6-2.1,4.7-4.7,4.7C14.9,19.7,12.7,17.5,12.7,14.9"/>
				<path id="path32_1_" class="st2" d="M6.6,31.5H5.9l-0.4-1.1H4.3l-0.3,1.1H3.3l1.3-3.9h0.8L6.6,31.5 M5.4,29.9l-0.3-1
					c0-0.1-0.1-0.3-0.2-0.7h0c0,0.2-0.1,0.4-0.2,0.7l-0.3,1H5.4"/>
				<path id="path34_1_" class="st2" d="M9.4,31.5H8.9l0-0.4h0c-0.2,0.3-0.5,0.5-0.9,0.5c-0.3,0-0.5-0.1-0.7-0.3
					c-0.2-0.2-0.3-0.5-0.3-1v-1.7h0.6v1.6c0,0.5,0.2,0.8,0.6,0.8c0.3,0,0.5-0.1,0.6-0.4c0-0.1,0-0.1,0-0.2v-1.7h0.6v2
					C9.4,31,9.4,31.2,9.4,31.5"/>
				<path id="path36_1_" class="st2" d="M12.7,31.5h-0.6l0-0.4h0c-0.2,0.3-0.5,0.5-0.9,0.5c-0.3,0-0.6-0.1-0.8-0.4
					c-0.2-0.3-0.3-0.6-0.3-1c0-0.5,0.1-0.8,0.4-1.1c0.2-0.3,0.5-0.4,0.9-0.4c0.4,0,0.6,0.1,0.8,0.4v-1.6h0.6v3.3
					C12.7,31,12.7,31.3,12.7,31.5 M12,30.3v-0.5c0-0.1,0-0.1,0-0.2c0-0.1-0.1-0.3-0.2-0.4c-0.1-0.1-0.3-0.2-0.4-0.2
					c-0.2,0-0.4,0.1-0.5,0.3c-0.1,0.2-0.2,0.4-0.2,0.7c0,0.3,0.1,0.5,0.2,0.7c0.1,0.2,0.3,0.3,0.5,0.3c0.2,0,0.4-0.1,0.5-0.2
					C12,30.7,12,30.5,12,30.3"/>
				<path id="path38_1_" class="st2" d="M14.1,27.9c0,0.1,0,0.2-0.1,0.3c-0.1,0.1-0.2,0.1-0.3,0.1c-0.1,0-0.2,0-0.3-0.1
					c-0.1-0.1-0.1-0.2-0.1-0.3c0-0.1,0-0.2,0.1-0.3c0.1-0.1,0.2-0.1,0.3-0.1c0.1,0,0.2,0,0.3,0.1C14.1,27.7,14.1,27.7,14.1,27.9
					 M14.1,31.5h-0.6v-2.8h0.6V31.5"/>
				<path id="path40_1_" class="st2" d="M17.4,30.1c0,0.4-0.1,0.8-0.4,1.1c-0.3,0.3-0.6,0.4-1,0.4c-0.4,0-0.7-0.1-1-0.4
					c-0.2-0.3-0.4-0.6-0.4-1c0-0.4,0.1-0.8,0.4-1.1c0.3-0.3,0.6-0.4,1-0.4c0.4,0,0.7,0.1,1,0.4C17.3,29.3,17.4,29.7,17.4,30.1
					 M16.8,30.1c0-0.3-0.1-0.5-0.2-0.7c-0.1-0.2-0.3-0.3-0.6-0.3c-0.3,0-0.4,0.1-0.6,0.3c-0.1,0.2-0.2,0.4-0.2,0.7
					c0,0.3,0.1,0.5,0.2,0.7c0.1,0.2,0.3,0.3,0.6,0.3c0.2,0,0.4-0.1,0.6-0.3C16.7,30.6,16.8,30.4,16.8,30.1"/>
				<path id="path42_1_" class="st2" d="M22.4,29.9c0,0.6-0.1,1-0.4,1.3c-0.3,0.3-0.6,0.4-1.1,0.4c-1,0-1.4-0.6-1.4-1.7v-2.3h0.6
					v2.3c0,0.4,0.1,0.7,0.2,0.9c0.1,0.2,0.3,0.3,0.6,0.3c0.6,0,0.8-0.4,0.8-1.1v-2.3h0.6V29.9"/>
				<path id="path44_1_" class="st2" d="M25.6,31.5H25v-1.6c0-0.5-0.2-0.7-0.6-0.7c-0.2,0-0.3,0.1-0.5,0.2c-0.1,0.1-0.2,0.3-0.2,0.5
					v1.7h-0.6v-2c0-0.2,0-0.5,0-0.8h0.6l0,0.4h0c0.1-0.1,0.2-0.2,0.3-0.3c0.2-0.1,0.4-0.2,0.6-0.2c0.3,0,0.5,0.1,0.7,0.3
					c0.2,0.2,0.3,0.5,0.3,0.9V31.5"/>
				<path id="path46_1_" class="st2" d="M27,27.9c0,0.1,0,0.2-0.1,0.3c-0.1,0.1-0.2,0.1-0.3,0.1c-0.1,0-0.2,0-0.3-0.1
					c-0.1-0.1-0.1-0.2-0.1-0.3c0-0.1,0-0.2,0.1-0.3c0.1-0.1,0.2-0.1,0.3-0.1c0.1,0,0.2,0,0.3,0.1C27,27.7,27,27.7,27,27.9
					 M26.9,31.5h-0.6v-2.8h0.6V31.5"/>
				<path id="path48_1_" class="st2" d="M29.1,29.2h-0.7v1.4c0,0.3,0.1,0.5,0.4,0.5c0.1,0,0.2,0,0.3,0l0,0.5c-0.1,0-0.3,0.1-0.5,0.1
					c-0.2,0-0.4-0.1-0.6-0.2c-0.1-0.2-0.2-0.4-0.2-0.8v-1.4h-0.4v-0.5h0.4v-0.5l0.6-0.2v0.7h0.7V29.2"/>
				<path id="path50_1_" class="st2" d="M31.4,30.7c0,0.3-0.1,0.5-0.3,0.6c-0.2,0.2-0.5,0.2-0.8,0.2c-0.3,0-0.6-0.1-0.8-0.2l0.1-0.5
					c0.2,0.1,0.4,0.2,0.7,0.2c0.3,0,0.5-0.1,0.5-0.4c0-0.1,0-0.2-0.1-0.3c-0.1-0.1-0.2-0.1-0.4-0.2c-0.5-0.2-0.8-0.5-0.8-0.8
					c0-0.2,0.1-0.4,0.3-0.6c0.2-0.2,0.4-0.2,0.7-0.2c0.3,0,0.5,0.1,0.7,0.2l-0.1,0.4c-0.2-0.1-0.4-0.2-0.6-0.2c-0.1,0-0.2,0-0.3,0.1
					c-0.1,0.1-0.1,0.1-0.1,0.2c0,0.1,0,0.2,0.1,0.2c0.1,0.1,0.2,0.1,0.4,0.2C31.2,30,31.4,30.3,31.4,30.7"/>
			</g>
		</g>
		<g id="VST3" transform="translate(35.999992 6.375)">
			<g id="VST-Hover" transform="translate(0 35.999996)">
				<g id="Group">
					<path id="Shape_40_" class="st1" d="M35.7,0.3v22.5H0.3V0.3H35.7 M36,0h-0.3H0.3H0v0.3v22.5v0.3h0.3h35.3H36v-0.3V0.3V0L36,0
						L36,0z"/>
				</g>
				<g id="Group_1_" transform="translate(3.1617422 15.746085)">
					<path id="Shape_41_" class="st1" d="M3.1,2.5c-0.1,0.3-0.5,1-1.5,1C0.8,3.6,0,3,0,1.8C0,1,0.4,0,1.6,0C2.5,0,2.8,0.6,3,1
						L2.3,1.2c0-0.4-0.3-0.6-0.7-0.6C1.1,0.6,0.7,1,0.7,1.8c0,0.5,0.2,1.2,0.9,1.2c0.4,0,0.7-0.3,0.8-0.7L3.1,2.5L3.1,2.5z"/>
					<path id="Shape_42_" class="st1" d="M5.1,0c1,0,1.6,0.8,1.6,1.8c0,0.8-0.4,1.8-1.6,1.8c-1,0-1.6-0.8-1.6-1.8
						C3.5,0.8,4.1,0,5.1,0L5.1,0z M5.1,3c0.5,0,1-0.4,1-1.2c0-0.6-0.3-1.2-1-1.2c-0.6,0-1,0.4-1,1.2C4.1,2.3,4.4,3,5.1,3L5.1,3z"/>
					<path id="Shape_43_" class="st1" d="M9.8,3.5c0-0.1,0.1-2.8,0.1-2.8L9.2,3.5H8.6L7.9,0.7c0,0,0.1,2.7,0.1,2.8H7.3V0.1h0.9
						l0.7,2.5l0.7-2.5h0.9v3.4H9.8L9.8,3.5z"/>
					<path id="Shape_44_" class="st1" d="M12.7,0.1c0.7,0,1.2,0.4,1.2,1.1c0,0.6-0.3,1.1-1.3,1.1H12v1.2h-0.6V0.1H12.7L12.7,0.1z
						 M12.1,1.8h0.6c0.4,0,0.7-0.2,0.7-0.6c0-0.5-0.4-0.6-0.8-0.6h-0.5L12.1,1.8L12.1,1.8z"/>
					<path id="Shape_45_" class="st1" d="M16.3,3.5l-0.2-0.7h-1.3l-0.2,0.7H14l1.1-3.4h0.7L17,3.5H16.3L16.3,3.5z M15.5,0.7L15,2.3
						h0.9L15.5,0.7L15.5,0.7z"/>
					<path id="Shape_46_" class="st1" d="M18.3,0.7v2.8h-0.6V0.7h-0.9V0.1h2.5v0.6H18.3L18.3,0.7z"/>
					<path id="Shape_47_" class="st1" d="M19.7,3.5V0.1h0.6v3.4H19.7L19.7,3.5z"/>
					<path id="Shape_48_" class="st1" d="M22.8,0.1c0.7,0,1,0.4,1,0.8c0,0.3-0.2,0.7-0.6,0.7C23.6,1.7,24,1.9,24,2.5
						c0,0.5-0.3,1-1.1,1h-1.6V0.1H22.8L22.8,0.1z M21.9,1.5h0.6c0.3,0,0.6-0.1,0.6-0.4c0-0.3-0.3-0.4-0.6-0.4h-0.7V1.5L21.9,1.5z
						 M21.9,2.9h0.8c0.4,0,0.6-0.2,0.6-0.5c0-0.5-0.5-0.5-0.7-0.5h-0.7L21.9,2.9L21.9,2.9z"/>
					<path id="Shape_49_" class="st1" d="M24.8,3.5V0.1h0.6v2.8h1.3v0.6H24.8L24.8,3.5z"/>
					<path id="Shape_50_" class="st1" d="M27.2,3.5V0.1h2.4v0.6h-1.8v0.8h1.6V2h-1.6v0.9h1.9v0.6L27.2,3.5L27.2,3.5z"/>
				</g>
				<path id="Shape_51_" class="st1" d="M21.6,5.9h11.3l0,2h-0.5c-0.2-0.7-0.7-1.2-1.5-1.4c-0.5-0.1-1.2-0.2-2.1-0.2v5
					c0,0.3,0.1,0.5,0.3,0.6c0.3,0.1,0.8,0.1,1.5,0.1v0.4h-6.7v-0.4c0.7,0,1.2-0.1,1.5-0.2c0.3-0.1,0.4-0.2,0.4-0.6v-5
					c-0.9,0-1.6,0.1-2.1,0.2c-0.9,0.3-1.4,0.7-1.5,1.4c-0.2,0-0.5,0-0.5,0L21.6,5.9L21.6,5.9z"/>
				<g id="Group_2_" transform="translate(12.615649 3.9130437)">
					<path id="Shape_52_" class="st1" d="M0.1,5.4l1,0.1l0,0c0.4,0.8,1.1,1.5,2,1.9C4,7.8,5.1,8,6.3,8c1.2,0,2-0.1,2.4-0.4
						c0.5-0.3,0.7-0.5,0.7-0.8c0-0.3-0.3-0.6-0.7-0.8c-0.3-0.2-1-0.3-2-0.6L5,5.1C3.3,4.7,2.2,4.3,1.5,3.9c-0.7-0.4-1-0.9-1-1.4
						c0-0.6,0.5-1.2,1.4-1.7C2.8,0.3,4.1,0.1,6,0.1c0.9,0,1.8,0.1,2.7,0.2c0.6,0.1,1.3,0.2,1.5,0.2c0.3,0,0.5-0.1,0.5-0.1
						c0.1-0.1,0.2-0.2,0.3-0.3l0,0h0.9v2.7H11l0,0C10.6,2.1,10,1.6,9.1,1.2C8.3,0.8,7.3,0.6,6.1,0.6c-0.8,0-1.5,0.1-2,0.3
						C3.6,1.1,3.4,1.3,3.4,1.6C3.4,2,3.6,2.2,4,2.4c0.5,0.2,1.5,0.5,3.1,0.8L9,3.7c0.8,0.2,1.5,0.4,2,0.7c1,0.5,1.5,1,1.5,1.7
						c0,0.6-0.5,1.2-1.6,1.8c-1,0.5-2.7,0.8-4.9,0.8c-0.5,0-1,0-1.6-0.1C4,8.5,3.4,8.4,2.9,8.3L2.4,8.2c-0.1,0-0.2,0-0.3,0
						c-0.1,0-0.2,0-0.3,0c-0.3,0-0.4,0-0.5,0.1C1.3,8.3,1.2,8.4,1.1,8.5l0,0h-1V5.4L0.1,5.4z"/>
					<path id="Shape_53_" d="M11.7,0.2v2.6H11C10.6,2.1,10,1.6,9.2,1.2C8.4,0.8,7.3,0.5,6.1,0.5c-0.9,0-1.5,0.1-2,0.3
						C3.6,1.1,3.3,1.3,3.3,1.6C3.3,2,3.6,2.3,4,2.5c0.5,0.2,1.5,0.5,3.1,0.8L9,3.7c0.8,0.2,1.5,0.4,2,0.7c0.9,0.4,1.4,1,1.4,1.6
						c0,0.6-0.5,1.2-1.5,1.7c-1,0.5-2.6,0.8-4.9,0.8c-0.5,0-1,0-1.6-0.1C4,8.4,3.5,8.3,3,8.2L2.5,8.1c-0.1,0-0.2,0-0.3,0
						c-0.1,0-0.2,0-0.3,0c-0.3,0-0.4,0-0.5,0.1C1.2,8.2,1.1,8.3,1.1,8.5H0.2v-3l0.9,0.1c0.4,0.9,1.1,1.5,2,1.9C4,7.9,5,8.1,6.2,8.1
						c1.2,0,2-0.1,2.5-0.4c0.5-0.3,0.7-0.6,0.7-0.9c0-0.3-0.3-0.6-0.8-0.9c-0.3-0.2-1-0.3-2-0.6L4.9,5C3.3,4.6,2.2,4.2,1.5,3.9
						c-0.7-0.4-1-0.8-1-1.4c0-0.6,0.4-1.1,1.3-1.6C2.7,0.3,4,0.1,5.9,0.1c0.9,0,1.8,0.1,2.7,0.2c0.9,0.1,1.4,0.2,1.5,0.2
						c0.3,0,0.5,0,0.6-0.1c0.1-0.1,0.2-0.2,0.3-0.3L11.7,0.2 M11.8,0h-0.2H11h-0.1l0,0.1c-0.1,0.1-0.1,0.2-0.2,0.3
						c0,0-0.2,0.1-0.5,0.1C10,0.4,9,0.3,8.6,0.2C7.8,0.1,6.9,0,5.9,0C4.1,0,2.7,0.3,1.8,0.8C0.8,1.3,0.3,1.9,0.3,2.6
						c0,0.6,0.4,1.1,1.1,1.5c0.7,0.4,1.8,0.8,3.5,1.1l1.7,0.4c1,0.2,1.7,0.4,2,0.6c0.4,0.2,0.7,0.4,0.7,0.7c0,0.3-0.2,0.5-0.7,0.8
						C8.2,7.9,7.4,8,6.3,8C5.1,8,4,7.8,3.1,7.4c-0.9-0.4-1.6-1-2-1.8l0-0.1H1L0.1,5.3H0v0.2v3v0.2h0.2h0.9h0.1l0-0.1
						c0.1-0.1,0.1-0.2,0.2-0.3c0,0,0.2-0.1,0.5-0.1c0.1,0,0.2,0,0.3,0c0.1,0,0.2,0,0.3,0L3,8.4c0.5,0.1,1,0.2,1.6,0.2
						c0.5,0,1.1,0.1,1.6,0.1c2.3,0,3.9-0.3,4.9-0.8c1.1-0.6,1.6-1.2,1.6-1.8c0-0.7-0.5-1.3-1.5-1.8C10.6,4,9.9,3.8,9.1,3.6L7.2,3.2
						C5.6,2.8,4.6,2.6,4.1,2.4C3.7,2.2,3.5,2,3.5,1.7c0-0.3,0.2-0.5,0.7-0.7c0.5-0.2,1.2-0.3,2-0.3c1.2,0,2.2,0.2,3,0.6
						c0.8,0.4,1.4,0.9,1.8,1.5l0,0.1h0.1h0.7h0.2V2.7V0.2L11.8,0L11.8,0L11.8,0z"/>
				</g>
				<g id="Group_4_" transform="translate(2.0973902 5.947826)">
					<g id="Group_3_">
						<path id="Shape_54_" class="st1" d="M6.6,6.7L1.9,1.2C1.7,1,1.5,0.8,1.3,0.7C1.2,0.6,0.6,0.6,0.2,0.6H0.1V0.1h6.6v0.5H6.6
							c-0.7,0-1.1,0.1-1.3,0.1S5.1,0.8,5.1,0.9c0,0,0,0.1,0,0.1c0,0,0,0.1,0.1,0.1l2.8,3.4h0l2.4-3.1c0.1-0.1,0.1-0.1,0.1-0.2
							C10.5,1.1,10.5,1,10.5,1c0-0.1,0-0.2-0.3-0.3c-0.2,0-0.6-0.1-1.3-0.1H9V0.2h4.3v0.4h-0.1c-0.5,0-1.1,0.1-1.3,0.2
							c-0.2,0.1-0.4,0.3-0.6,0.5L7.2,6.7H6.6L6.6,6.7z"/>
						<path id="Shape_55_" d="M13.3,0.2v0.3c-0.4,0-1.1,0.1-1.3,0.2c-0.2,0.1-0.4,0.3-0.7,0.6L7.2,6.7H6.7L1.9,1.1
							C1.8,0.9,1.6,0.8,1.3,0.7C1.2,0.6,0.6,0.5,0.1,0.5V0.2h6.4v0.3c-0.7,0-1.1,0.1-1.3,0.1C5.1,0.6,5,0.7,5,0.8c0,0,0,0.1,0,0.1
							c0,0,0.1,0.1,0.1,0.1l2.8,3.4H8l2.4-3.1c0.1-0.1,0.1-0.1,0.2-0.2c0.1-0.1,0.1-0.2,0.1-0.3c0-0.2-0.1-0.3-0.3-0.3
							c-0.2,0-0.6-0.1-1.3-0.1V0.2H13.3 M13.4,0h-0.2H9.1H9v0.2v0.3v0.2h0.2c0.6,0,1,0.1,1.2,0.1c0.2,0,0.2,0.1,0.2,0.2
							c0,0,0,0.1-0.1,0.2c0,0.1-0.1,0.1-0.1,0.2L8,4.4L5.2,1c0,0-0.1-0.1-0.1-0.1s0-0.1,0-0.1c0,0,0-0.1,0.2-0.1
							c0.2,0,0.6-0.1,1.3-0.1h0.2V0.5V0.2V0H6.6H0.2H0v0.2v0.3v0.1h0.1c0.5,0,1,0.1,1.2,0.2C1.5,0.8,1.7,1,1.8,1.2l4.7,5.5l0,0.1
							h0.1h0.5h0.1l0-0.1l4.2-5.4c0.2-0.3,0.4-0.4,0.6-0.5c0.2-0.1,0.7-0.2,1.2-0.2h0.1V0.5V0.2L13.4,0L13.4,0L13.4,0z"/>
					</g>
				</g>
				<g id="Group_5_" transform="translate(31.460857 1.8782614)">
					<path id="Shape_56_" class="st1" d="M1.4,2.8C0.6,2.8,0,2.1,0,1.4C0,0.6,0.6,0,1.4,0c0.8,0,1.4,0.6,1.4,1.3
						C2.8,2.1,2.2,2.8,1.4,2.8L1.4,2.8z M1.4,0.1c-0.7,0-1.3,0.6-1.3,1.3c0,0.7,0.5,1.3,1.3,1.3c0.7,0,1.3-0.6,1.3-1.2
						C2.6,0.7,2.1,0.1,1.4,0.1L1.4,0.1z M1.3,0.5C1.8,0.5,2,0.6,2,1c0,0.3-0.1,0.4-0.4,0.5L2,2.2H1.7L1.3,1.5H1.1v0.7H0.8V0.5H1.3
						L1.3,0.5z M1.1,1.3h0.2c0.3,0,0.3-0.1,0.3-0.3c0-0.2-0.1-0.3-0.4-0.3H1.1V1.3L1.1,1.3z"/>
				</g>
			</g>
			<g id="VST-Normal">
				<g id="Group_6_">
					<path id="Shape_57_" class="st2" d="M35.7,0.3v22.5H0.3V0.3H35.7 M36,0h-0.3H0.3H0v0.3v22.5v0.3h0.3h35.3H36v-0.3V0.3V0L36,0
						L36,0z"/>
				</g>
				<g id="Group_7_" transform="translate(3.1617393 15.746086)">
					<path id="Shape_58_" class="st2" d="M3.1,2.5c-0.1,0.3-0.5,1-1.5,1C0.8,3.6,0,3,0,1.8C0,1,0.4,0,1.6,0C2.5,0,2.8,0.6,3,1
						L2.3,1.2c0-0.4-0.3-0.6-0.7-0.6C1.1,0.6,0.7,1,0.7,1.8c0,0.5,0.2,1.2,0.9,1.2c0.4,0,0.7-0.3,0.8-0.7L3.1,2.5L3.1,2.5z"/>
					<path id="Shape_59_" class="st2" d="M5.1,0c1,0,1.6,0.8,1.6,1.8c0,0.8-0.4,1.8-1.6,1.8c-1,0-1.6-0.8-1.6-1.8
						C3.5,0.8,4.1,0,5.1,0L5.1,0z M5.1,3c0.5,0,1-0.4,1-1.2c0-0.6-0.3-1.2-1-1.2c-0.6,0-1,0.4-1,1.2C4.1,2.3,4.4,3,5.1,3L5.1,3z"/>
					<path id="Shape_60_" class="st2" d="M9.8,3.5c0-0.1,0.1-2.8,0.1-2.8L9.2,3.5H8.6L7.9,0.7c0,0,0.1,2.7,0.1,2.8H7.3V0.1h0.9
						l0.7,2.5l0.7-2.5h0.9v3.4H9.8L9.8,3.5z"/>
					<path id="Shape_61_" class="st2" d="M12.7,0.1c0.7,0,1.2,0.4,1.2,1.1c0,0.6-0.3,1.1-1.3,1.1H12v1.2h-0.6V0.1H12.7L12.7,0.1z
						 M12.1,1.8h0.6c0.4,0,0.7-0.2,0.7-0.6c0-0.5-0.4-0.6-0.8-0.6h-0.5L12.1,1.8L12.1,1.8z"/>
					<path id="Shape_62_" class="st2" d="M16.3,3.5l-0.2-0.7h-1.3l-0.2,0.7H14l1.1-3.4h0.7L17,3.5H16.3L16.3,3.5z M15.5,0.7L15,2.3
						h0.9L15.5,0.7L15.5,0.7z"/>
					<path id="Shape_63_" class="st2" d="M18.3,0.7v2.8h-0.6V0.7h-0.9V0.1h2.5v0.6H18.3L18.3,0.7z"/>
					<path id="Shape_64_" class="st2" d="M19.7,3.5V0.1h0.6v3.4H19.7L19.7,3.5z"/>
					<path id="Shape_65_" class="st2" d="M22.8,0.1c0.7,0,1,0.4,1,0.8c0,0.3-0.2,0.7-0.6,0.7C23.6,1.7,24,1.9,24,2.5
						c0,0.5-0.3,1-1.1,1h-1.6V0.1H22.8L22.8,0.1z M21.9,1.5h0.6c0.3,0,0.6-0.1,0.6-0.4c0-0.3-0.3-0.4-0.6-0.4h-0.7V1.5L21.9,1.5z
						 M21.9,2.9h0.8c0.4,0,0.6-0.2,0.6-0.5c0-0.5-0.5-0.5-0.7-0.5h-0.7L21.9,2.9L21.9,2.9z"/>
					<path id="Shape_66_" class="st2" d="M24.8,3.5V0.1h0.6v2.8h1.3v0.6H24.8L24.8,3.5z"/>
					<path id="Shape_67_" class="st2" d="M27.2,3.5V0.1h2.4v0.6h-1.8v0.8h1.6V2h-1.6v0.9h1.9v0.6L27.2,3.5L27.2,3.5z"/>
				</g>
				<path id="Shape_68_" class="st2" d="M21.6,5.9h11.3l0,2h-0.5c-0.2-0.7-0.7-1.2-1.5-1.4c-0.5-0.1-1.2-0.2-2.1-0.2v5
					c0,0.3,0.1,0.5,0.3,0.6c0.3,0.1,0.8,0.1,1.5,0.1v0.4h-6.7v-0.4c0.7,0,1.2-0.1,1.5-0.2c0.3-0.1,0.4-0.2,0.4-0.6v-5
					c-0.9,0-1.6,0.1-2.1,0.2c-0.9,0.3-1.4,0.7-1.5,1.4c-0.2,0-0.5,0-0.5,0L21.6,5.9L21.6,5.9z"/>
				<g id="Group_8_" transform="translate(12.615643 3.913044)">
					<path id="Shape_69_" class="st2" d="M0.1,5.4l1,0.1l0,0c0.4,0.8,1.1,1.5,2,1.9C4,7.8,5.1,8,6.3,8c1.2,0,2-0.1,2.4-0.4
						c0.5-0.3,0.7-0.5,0.7-0.8c0-0.3-0.3-0.6-0.7-0.8c-0.3-0.2-1-0.3-2-0.6L5,5.1C3.3,4.7,2.2,4.3,1.5,3.9c-0.7-0.4-1-0.9-1-1.4
						c0-0.6,0.5-1.2,1.4-1.7C2.8,0.3,4.1,0.1,6,0.1c0.9,0,1.8,0.1,2.7,0.2c0.6,0.1,1.3,0.2,1.5,0.2c0.3,0,0.5-0.1,0.5-0.1
						c0.1-0.1,0.2-0.2,0.3-0.3l0,0h0.9v2.7H11l0,0C10.6,2.1,10,1.6,9.1,1.2C8.3,0.8,7.3,0.6,6.1,0.6c-0.8,0-1.5,0.1-2,0.3
						C3.6,1.1,3.4,1.3,3.4,1.6C3.4,2,3.6,2.2,4,2.4c0.5,0.2,1.5,0.5,3.1,0.8L9,3.7c0.8,0.2,1.5,0.4,2,0.7c1,0.5,1.5,1,1.5,1.7
						c0,0.6-0.5,1.2-1.6,1.8c-1,0.5-2.7,0.8-4.9,0.8c-0.5,0-1,0-1.6-0.1C4,8.5,3.4,8.4,2.9,8.3L2.4,8.2c-0.1,0-0.2,0-0.3,0
						c-0.1,0-0.2,0-0.3,0c-0.3,0-0.4,0-0.5,0.1C1.3,8.3,1.2,8.4,1.1,8.5l0,0h-1V5.4L0.1,5.4z"/>
					<path id="Shape_70_" class="st6" d="M11.7,0.2v2.6H11C10.6,2.1,10,1.6,9.2,1.2C8.4,0.8,7.3,0.5,6.1,0.5c-0.9,0-1.5,0.1-2,0.3
						C3.6,1.1,3.3,1.3,3.3,1.6C3.3,2,3.6,2.3,4,2.5c0.5,0.2,1.5,0.5,3.1,0.8L9,3.7c0.8,0.2,1.5,0.4,2,0.7c0.9,0.4,1.4,1,1.4,1.6
						c0,0.6-0.5,1.2-1.5,1.7c-1,0.5-2.6,0.8-4.9,0.8c-0.5,0-1,0-1.6-0.1C4,8.4,3.5,8.3,3,8.2L2.5,8.1c-0.1,0-0.2,0-0.3,0
						c-0.1,0-0.2,0-0.3,0c-0.3,0-0.4,0-0.5,0.1C1.2,8.2,1.1,8.3,1.1,8.5H0.2v-3l0.9,0.1c0.4,0.9,1.1,1.5,2,1.9C4,7.9,5,8.1,6.2,8.1
						c1.2,0,2-0.1,2.5-0.4c0.5-0.3,0.7-0.6,0.7-0.9c0-0.3-0.3-0.6-0.8-0.9c-0.3-0.2-1-0.3-2-0.6L4.9,5C3.3,4.6,2.2,4.2,1.5,3.9
						c-0.7-0.4-1-0.8-1-1.4c0-0.6,0.4-1.1,1.3-1.6C2.7,0.3,4,0.1,5.9,0.1c0.9,0,1.8,0.1,2.7,0.2c0.9,0.1,1.4,0.2,1.5,0.2
						c0.3,0,0.5,0,0.6-0.1c0.1-0.1,0.2-0.2,0.3-0.3L11.7,0.2 M11.8,0h-0.2H11h-0.1l0,0.1c-0.1,0.1-0.1,0.2-0.2,0.3
						c0,0-0.2,0.1-0.5,0.1C10,0.4,9,0.3,8.6,0.2C7.8,0.1,6.9,0,5.9,0C4.1,0,2.7,0.3,1.8,0.8C0.8,1.3,0.3,1.9,0.3,2.6
						c0,0.6,0.4,1.1,1.1,1.5c0.7,0.4,1.8,0.8,3.5,1.1l1.7,0.4c1,0.2,1.7,0.4,2,0.6c0.4,0.2,0.7,0.4,0.7,0.7c0,0.3-0.2,0.5-0.7,0.8
						C8.2,7.9,7.4,8,6.3,8C5.1,8,4,7.8,3.1,7.4c-0.9-0.4-1.6-1-2-1.8l0-0.1H1L0.1,5.3H0v0.2v3v0.2h0.2h0.9h0.1l0-0.1
						c0.1-0.1,0.1-0.2,0.2-0.3c0,0,0.2-0.1,0.5-0.1c0.1,0,0.2,0,0.3,0c0.1,0,0.2,0,0.3,0L3,8.4c0.5,0.1,1,0.2,1.6,0.2
						c0.5,0,1.1,0.1,1.6,0.1c2.3,0,3.9-0.3,4.9-0.8c1.1-0.6,1.6-1.2,1.6-1.8c0-0.7-0.5-1.3-1.5-1.8C10.6,4,9.9,3.8,9.1,3.6L7.2,3.2
						C5.6,2.8,4.6,2.6,4.1,2.4C3.7,2.2,3.5,2,3.5,1.7c0-0.3,0.2-0.5,0.7-0.7c0.5-0.2,1.2-0.3,2-0.3c1.2,0,2.2,0.2,3,0.6
						c0.8,0.4,1.4,0.9,1.8,1.5l0,0.1h0.1h0.7h0.2V2.7V0.2L11.8,0L11.8,0L11.8,0z"/>
				</g>
				<g id="Group_10_" transform="translate(2.097393 5.9478226)">
					<g id="Group_9_">
						<path id="Shape_71_" class="st2" d="M6.6,6.7L1.9,1.2C1.7,1,1.5,0.8,1.3,0.7C1.2,0.6,0.6,0.6,0.2,0.6H0.1V0.1h6.6v0.5H6.6
							c-0.7,0-1.1,0.1-1.3,0.1S5.1,0.8,5.1,0.9c0,0,0,0.1,0,0.1c0,0,0,0.1,0.1,0.1l2.8,3.4h0l2.4-3.1c0.1-0.1,0.1-0.1,0.1-0.2
							C10.5,1.1,10.5,1,10.5,1c0-0.1,0-0.2-0.3-0.3c-0.2,0-0.6-0.1-1.3-0.1H9V0.2h4.3v0.4h-0.1c-0.5,0-1.1,0.1-1.3,0.2
							c-0.2,0.1-0.4,0.3-0.6,0.5L7.2,6.7H6.6L6.6,6.7z"/>
						<path id="Shape_72_" class="st6" d="M13.3,0.2v0.3c-0.4,0-1.1,0.1-1.3,0.2c-0.2,0.1-0.4,0.3-0.7,0.6L7.2,6.7H6.7L1.9,1.1
							C1.8,0.9,1.6,0.8,1.3,0.7C1.2,0.6,0.6,0.5,0.1,0.5V0.2h6.4v0.3c-0.7,0-1.1,0.1-1.3,0.1C5.1,0.6,5,0.7,5,0.8c0,0,0,0.1,0,0.1
							c0,0,0.1,0.1,0.1,0.1l2.8,3.4H8l2.4-3.1c0.1-0.1,0.1-0.1,0.2-0.2c0.1-0.1,0.1-0.2,0.1-0.3c0-0.2-0.1-0.3-0.3-0.3
							c-0.2,0-0.6-0.1-1.3-0.1V0.2H13.3 M13.4,0h-0.2H9.1H9v0.2v0.3v0.2h0.2c0.6,0,1,0.1,1.2,0.1c0.2,0,0.2,0.1,0.2,0.2
							c0,0,0,0.1-0.1,0.2c0,0.1-0.1,0.1-0.1,0.2L8,4.4L5.2,1c0,0-0.1-0.1-0.1-0.1c0,0,0-0.1,0-0.1c0,0,0-0.1,0.2-0.1
							c0.2,0,0.6-0.1,1.3-0.1h0.2V0.5V0.2V0H6.6H0.2H0v0.2v0.3v0.1h0.1c0.5,0,1,0.1,1.2,0.2C1.5,0.8,1.7,1,1.8,1.2l4.7,5.5l0,0.1
							h0.1h0.5h0.1l0-0.1l4.2-5.4c0.2-0.3,0.4-0.4,0.6-0.5c0.2-0.1,0.7-0.2,1.2-0.2h0.1V0.5V0.2L13.4,0L13.4,0L13.4,0z"/>
					</g>
				</g>
				<g id="Group_11_" transform="translate(31.460854 1.8782616)">
					<path id="Shape_73_" class="st2" d="M1.4,2.8C0.6,2.8,0,2.1,0,1.4C0,0.6,0.6,0,1.4,0c0.8,0,1.4,0.6,1.4,1.3
						C2.8,2.1,2.2,2.8,1.4,2.8L1.4,2.8z M1.4,0.1c-0.7,0-1.3,0.6-1.3,1.3c0,0.7,0.5,1.3,1.3,1.3c0.7,0,1.3-0.6,1.3-1.2
						C2.6,0.7,2.1,0.1,1.4,0.1L1.4,0.1z M1.3,0.5C1.8,0.5,2,0.6,2,1c0,0.3-0.1,0.4-0.4,0.5L2,2.2H1.7L1.3,1.5H1.1v0.7H0.8V0.5H1.3
						L1.3,0.5z M1.1,1.3h0.2c0.3,0,0.3-0.1,0.3-0.3c0-0.2-0.1-0.3-0.4-0.3H1.1V1.3L1.1,1.3z"/>
				</g>
			</g>
		</g>
		<g id="GitHub" transform="translate(3.6000023 3.2999268)">
			<path id="GitHub-Hover" class="st1" d="M14.4,36C6.4,36,0,42.7,0,51c0,6.6,4.1,12.2,9.8,14.2c0.7,0.1,1-0.3,1-0.7
				c0-0.4,0-1.5,0-2.8C7.2,62.4,6.3,60.8,6,60c-0.2-0.4-0.9-1.8-1.5-2.1c-0.5-0.3-1.2-1,0-1c1.1,0,1.9,1.1,2.2,1.5
				c1.3,2.3,3.4,1.6,4.2,1.2c0.1-1,0.5-1.6,0.9-2c-3.2-0.4-6.6-1.7-6.6-7.4c0-1.6,0.6-3,1.5-4c-0.1-0.4-0.6-1.9,0.1-4
				c0,0,1.2-0.4,4,1.5c1.2-0.3,2.4-0.5,3.6-0.5s2.4,0.2,3.6,0.5c2.8-2,4-1.5,4-1.5c0.8,2.1,0.3,3.6,0.1,4c0.9,1.1,1.5,2.4,1.5,4
				c0,5.8-3.4,7-6.6,7.4c0.5,0.5,1,1.4,1,2.8c0,2,0,3.6,0,4.1c0,0.4,0.3,0.9,1,0.7c5.7-2,9.8-7.6,9.8-14.2
				C28.8,42.7,22.4,36,14.4,36L14.4,36z"/>
			<path id="GitHub-Normal" class="st2" d="M14.4,0C6.4,0,0,6.7,0,15c0,6.6,4.1,12.2,9.8,14.2c0.7,0.1,1-0.3,1-0.7
				c0-0.4,0-1.5,0-2.8C7.2,26.4,6.3,24.8,6,24c-0.2-0.4-0.9-1.8-1.5-2.1c-0.5-0.3-1.2-1,0-1c1.1,0,1.9,1.1,2.2,1.5
				c1.3,2.3,3.4,1.6,4.2,1.2c0.1-1,0.5-1.6,0.9-2c-3.2-0.4-6.6-1.7-6.6-7.4c0-1.6,0.6-3,1.5-4c-0.1-0.4-0.6-1.9,0.1-4
				c0,0,1.2-0.4,4,1.5c1.2-0.3,2.4-0.5,3.6-0.5s2.4,0.2,3.6,0.5c2.8-2,4-1.5,4-1.5c0.8,2.1,0.3,3.6,0.1,4c0.9,1.1,1.5,2.4,1.5,4
				c0,5.8-3.4,7-6.6,7.4c0.5,0.5,1,1.4,1,2.8c0,2,0,3.6,0,4.1c0,0.4,0.3,0.9,1,0.7c5.7-2,9.8-7.6,9.8-14.2C28.8,6.7,22.4,0,14.4,0
				L14.4,0z"/>
		</g>
	</g>
</g>
</svg>
