<?xml version="1.0" encoding="utf-8"?>
<!-- Generator: Adobe Illustrator 22.0.0, SVG Export Plug-In . SVG Version: 6.00 Build 0)  -->
<svg version="1.1" id="Layer_1" xmlns="http://www.w3.org/2000/svg" xmlns:xlink="http://www.w3.org/1999/xlink" x="0px" y="0px"
	 width="20px" height="180px" viewBox="0 0 20 180" style="enable-background:new 0 0 20 180;" xml:space="preserve">
<style type="text/css">
	.st0{fill:#2D2D2E;}
	.st1{opacity:0.35;fill:#2D2D2E;enable-background:new    ;}
	.st2{fill:#6B6B6B;}
	.st3{opacity:0.35;fill:#FF9000;enable-background:new    ;}
</style>
<rect y="1" class="st0" width="20" height="16"/>
<path class="st1" d="M20,1H0v16h20V1z"/>
<path class="st2" d="M20,17H0C4.479,6.333,11.146,1,20,1V17z"/>
<path class="st3" d="M6,1H0v16h6V1z"/>
<rect y="19" class="st0" width="20" height="16"/>
<path class="st1" d="M20,19H0v16h20V19z"/>
<path class="st2" d="M0,35l20-16v16H0z"/>
<path class="st3" d="M13,19H7v16h6V19z"/>
<rect y="37" class="st0" width="20" height="16"/>
<path class="st1" d="M20,37H0v16h20V37z"/>
<path class="st2" d="M20,53H0c8,0,14.667-5.333,20-16V53z"/>
<path class="st3" d="M20,37h-6v16h6V37z"/>
<rect y="55" class="st0" width="20" height="16"/>
<path class="st1" d="M20,55H0v16h20V55z"/>
<path class="st2" d="M0,55v16h20v-8L0,55z"/>
<path class="st3" d="M6,55H0v16h6V55z"/>
<rect y="73" class="st0" width="20" height="16"/>
<path class="st1" d="M20,73H0v16h20V73z"/>
<path class="st2" d="M0,73v16h20v-8C14,81,7.333,78.333,0,73L0,73z"/>
<path class="st3" d="M13,73H7v16h6V73z"/>
<rect y="91" class="st0" width="20" height="16"/>
<path class="st1" d="M20,91H0v16h20V91z"/>
<path class="st2" d="M0,91v16h20v-8C9.333,99,2.667,96.333,0,91L0,91z"/>
<path class="st3" d="M20,91h-6v16h6V91z"/>
<rect y="109" class="st0" width="20" height="16"/>
<path class="st1" d="M20,109H0v16h20V109z"/>
<path class="st2" d="M0,117v8h20L0,117z"/>
<path class="st3" d="M6,109H0v16h6V109z"/>
<rect y="127" class="st0" width="20" height="16"/>
<path class="st1" d="M20,127H0v16h20V127z"/>
<path class="st2" d="M0,135v8h20C9.282,140.621,3.333,138.243,0,135z"/>
<path class="st3" d="M13,127H7v16h6V127z"/>
<rect y="145" class="st0" width="20" height="16"/>
<path class="st1" d="M20,145H0v16h20V145z"/>
<path class="st2" d="M0,153v8h20C9.333,159.667,2.667,157,0,153z"/>
<path class="st3" d="M20,145h-6v16h6V145z"/>
<rect y="163" class="st0" width="20" height="16"/>
<path class="st1" d="M20,163H0v16h20V163z"/>
<rect y="171" class="st2" width="20" height="8"/>
</svg>
