<?xml version="1.0" encoding="utf-8"?>
<!-- Generator: Adobe Illustrator 22.0.0, SVG Export Plug-In . SVG Version: 6.00 Build 0)  -->
<svg version="1.1" id="Layer_1" xmlns="http://www.w3.org/2000/svg" xmlns:xlink="http://www.w3.org/1999/xlink" x="0px" y="0px"
	 width="134px" height="208px" viewBox="0 0 134 208" style="enable-background:new 0 0 134 208;" xml:space="preserve">
<style type="text/css">
	.st0{fill:#FF9000;}
	.st1{fill:none;stroke:#FF9000;}
	.st2{opacity:0.5;fill:none;stroke:#FF9000;enable-background:new    ;}
	.st3{fill:#FFFFFF;}
	.st4{opacity:0.5;}
	.st5{fill:#EEEEEE;}
	.st6{fill:#595959;}
	.st7{fill:#B4B4B4;}
</style>
<path class="st0" d="M1,159.6v3h120v8h7v2l4-2.5l-4-2.5v2h-5v-10H1z"/>
<path class="st1" d="M15.5,182.1h6c1.105,0,2,0.895,2,2v6c0,1.105-0.895,2-2,2h-6c-1.105,0-2-0.895-2-2v-6
	C13.5,182.995,14.395,182.1,15.5,182.1z"/>
<path class="st1" d="M47.5,182.1h6c1.105,0,2,0.895,2,2v6c0,1.105-0.895,2-2,2h-6c-1.105,0-2-0.895-2-2v-6
	C45.5,182.995,46.395,182.1,47.5,182.1z"/>
<path class="st1" d="M79.5,182.1h6c1.105,0,2,0.895,2,2v6c0,1.105-0.895,2-2,2h-6c-1.105,0-2-0.895-2-2v-6
	C77.5,182.995,78.395,182.1,79.5,182.1z"/>
<path class="st2" d="M117,182.1h-6c-1.105,0-2,0.895-2,2v6c0,1.105,0.895,2,2,2h6c1.105,0,2-0.895,2-2v-6
	C119,182.995,118.105,182.1,117,182.1z"/>
<path class="st0" d="M38,187.6h-1v9.012h46V192.6h-1v3H38V187.6z"/>
<path class="st3" d="M20.092,188.952v0.648h-2.8v-0.648h1.025v-2.95c0-0.117,0.003-0.237,0.01-0.361L17.6,186.25
	c-0.042,0.033-0.084,0.054-0.126,0.063c-0.04,0.007-0.078,0.007-0.115,0c-0.035-0.007-0.066-0.018-0.094-0.035
	c-0.028-0.018-0.049-0.038-0.063-0.059l-0.273-0.375l1.544-1.312h0.71v4.42L20.092,188.952L20.092,188.952z"/>
<path class="st3" d="M51.903,188.795c0.093,0,0.167,0.027,0.221,0.08c0.056,0.052,0.084,0.121,0.084,0.207v0.518h-3.472v-0.287
	c0-0.058,0.012-0.119,0.035-0.182c0.026-0.065,0.065-0.124,0.119-0.175l1.536-1.54c0.128-0.131,0.243-0.256,0.343-0.375
	c0.103-0.119,0.188-0.236,0.256-0.353s0.119-0.235,0.154-0.354c0.037-0.121,0.056-0.248,0.056-0.381
	c0-0.121-0.017-0.228-0.052-0.319c-0.035-0.093-0.085-0.171-0.151-0.234c-0.063-0.063-0.14-0.11-0.231-0.14
	c-0.089-0.033-0.189-0.049-0.301-0.049c-0.103,0-0.198,0.015-0.287,0.045c-0.086,0.028-0.163,0.069-0.231,0.123
	c-0.068,0.051-0.125,0.112-0.172,0.182s-0.082,0.147-0.105,0.231c-0.04,0.107-0.091,0.178-0.154,0.213s-0.154,0.044-0.273,0.025
	l-0.455-0.081c0.035-0.242,0.103-0.455,0.203-0.637c0.1-0.184,0.225-0.337,0.375-0.458c0.152-0.124,0.324-0.216,0.518-0.277
	c0.196-0.063,0.406-0.094,0.63-0.094c0.233,0,0.447,0.035,0.641,0.105c0.194,0.068,0.359,0.164,0.497,0.29
	c0.138,0.126,0.245,0.278,0.322,0.455c0.077,0.178,0.115,0.375,0.115,0.592c0,0.187-0.028,0.359-0.084,0.518
	c-0.054,0.159-0.127,0.31-0.221,0.455c-0.091,0.145-0.198,0.285-0.322,0.42c-0.124,0.135-0.253,0.273-0.389,0.413l-1.141,1.165
	c0.11-0.032,0.218-0.057,0.326-0.073c0.11-0.019,0.213-0.028,0.311-0.028L51.903,188.795L51.903,188.795z"/>
<path class="st3" d="M80.848,185.949c0.035-0.242,0.103-0.455,0.203-0.637c0.1-0.184,0.225-0.337,0.375-0.458
	c0.152-0.124,0.324-0.216,0.518-0.277c0.196-0.063,0.406-0.094,0.63-0.094c0.233,0,0.443,0.034,0.63,0.101
	c0.189,0.066,0.35,0.158,0.483,0.277c0.133,0.117,0.234,0.254,0.304,0.413c0.072,0.159,0.108,0.33,0.108,0.514
	c0,0.161-0.019,0.304-0.056,0.427c-0.035,0.122-0.086,0.228-0.154,0.319s-0.152,0.168-0.252,0.231s-0.214,0.115-0.34,0.157
	c0.303,0.096,0.53,0.242,0.679,0.438s0.224,0.442,0.224,0.738c0,0.252-0.047,0.475-0.14,0.669s-0.219,0.357-0.378,0.49
	c-0.159,0.131-0.343,0.23-0.553,0.297c-0.208,0.068-0.428,0.102-0.661,0.102c-0.254,0-0.476-0.029-0.665-0.088
	c-0.189-0.058-0.354-0.144-0.493-0.259c-0.14-0.114-0.259-0.254-0.357-0.42c-0.098-0.165-0.182-0.357-0.252-0.574l0.382-0.157
	c0.1-0.042,0.194-0.053,0.28-0.032c0.089,0.019,0.153,0.066,0.193,0.14c0.042,0.082,0.087,0.163,0.136,0.242
	c0.051,0.079,0.112,0.15,0.182,0.213c0.07,0.061,0.152,0.111,0.245,0.151c0.096,0.037,0.209,0.056,0.34,0.056
	c0.147,0,0.275-0.023,0.385-0.07c0.11-0.049,0.201-0.112,0.273-0.189c0.075-0.077,0.13-0.162,0.164-0.256
	c0.037-0.095,0.056-0.191,0.056-0.287c0-0.121-0.013-0.231-0.038-0.329c-0.026-0.1-0.079-0.185-0.161-0.255s-0.2-0.125-0.354-0.165
	c-0.152-0.039-0.356-0.059-0.613-0.059v-0.616c0.212-0.002,0.388-0.022,0.529-0.06c0.14-0.037,0.251-0.088,0.332-0.154
	c0.084-0.067,0.142-0.148,0.175-0.241c0.033-0.093,0.049-0.196,0.049-0.308c0-0.238-0.066-0.419-0.2-0.543
	c-0.133-0.123-0.31-0.185-0.532-0.185c-0.103,0-0.197,0.015-0.284,0.045c-0.086,0.028-0.164,0.069-0.234,0.123
	c-0.068,0.051-0.125,0.112-0.172,0.182s-0.082,0.147-0.105,0.231c-0.04,0.107-0.092,0.178-0.158,0.213
	c-0.063,0.035-0.153,0.044-0.27,0.025L80.848,185.949z"/>
<path class="st3" d="M116.133,184.539v5.061h-0.483c-0.074,0-0.137-0.012-0.189-0.035c-0.049-0.026-0.097-0.068-0.143-0.126
	l-2.643-3.374c0.014,0.154,0.021,0.296,0.021,0.427v3.108h-0.829v-5.061h0.493c0.04,0,0.074,0.002,0.102,0.007
	c0.03,0.002,0.056,0.009,0.077,0.021c0.023,0.009,0.045,0.024,0.066,0.045c0.021,0.019,0.045,0.045,0.07,0.077l2.653,3.388
	c-0.007-0.081-0.013-0.162-0.017-0.241c-0.005-0.079-0.007-0.153-0.007-0.221v-3.076H116.133z"/>
<g class="st4">
	<path class="st1" d="M34.5,180.1c2.761,0,5-2.239,5-5s-2.239-5-5-5s-5,2.239-5,5S31.739,180.1,34.5,180.1z"/>
	<path class="st5" d="M36.444,172.095l1.061,1.061l-1.946,1.945l1.945,1.943l-1.06,1.061l-1.946-1.943l-1.943,1.943l-1.061-1.06
		l1.942-1.943l-1.945-1.942l1.06-1.062l1.946,1.944L36.444,172.095z"/>
</g>
<g class="st4">
	<path class="st1" d="M66.5,180.1c2.761,0,5-2.239,5-5s-2.239-5-5-5s-5,2.239-5,5S63.739,180.1,66.5,180.1z"/>
	<path class="st5" d="M68.445,172.095l1.061,1.061l-1.946,1.945l1.945,1.943l-1.06,1.061l-1.946-1.943l-1.943,1.943l-1.061-1.06
		l1.942-1.943l-1.945-1.942l1.06-1.062l1.946,1.944L68.445,172.095z"/>
</g>
<path class="st0" d="M82,167.6h-2l2.5-4l2.5,4h-2H82z"/>
<path class="st0" d="M82,181.6v-14.5h1v14.5H82z"/>
<g class="st4">
	<path class="st0" d="M113.5,167.6h-2l2.5-4l2.5,4h-2H113.5z"/>
	<path class="st0" d="M113.5,181.6v-14.5h1v14.5H113.5z"/>
</g>
<path class="st0" d="M50,167.6h-2l2.5-4l2.5,4h-2H50z"/>
<path class="st0" d="M50,181.6v-14.5h1v14.5H50z"/>
<path class="st0" d="M18,167.6h-2l2.5-4l2.5,4h-2H18z"/>
<path class="st0" d="M18,181.6v-14.5h1v14.5H18z"/>
<g class="st4">
	<path class="st0" d="M34,167.6h-2l2.5-4l2.5,4h-2H34z"/>
	<path class="st0" d="M34,169.6v-2.5h1v2.5H34z"/>
</g>
<g class="st4">
	<path class="st0" d="M66,167.6h-2l2.5-4l2.5,4h-2H66z"/>
	<path class="st0" d="M66,169.6v-2.5h1v2.5H66z"/>
</g>
<g class="st4">
	<path class="st0" d="M45,175.6v2l-4-2.5l4-2.5v2V175.6z"/>
	<path class="st0" d="M50,175.6h-5.5v-1H50V175.6z"/>
</g>
<g class="st4">
	<path class="st0" d="M77,175.6v2l-4-2.5l4-2.5v2V175.6z"/>
	<path class="st0" d="M82,175.6h-5.5v-1H82V175.6z"/>
</g>
<path class="st0" d="M29,187.6v2l-4-2.5l4-2.5v2V187.6z"/>
<path class="st0" d="M45,187.6H28.5v-1H45V187.6z"/>
<g class="st4">
	<path class="st0" d="M24,174.6v-2l4,2.5l-4,2.5v-2V174.6z"/>
	<path class="st0" d="M19,174.6h5.5v1H19V174.6z"/>
</g>
<g class="st4">
	<path class="st0" d="M56,174.6v-2l4,2.5l-4,2.5v-2V174.6z"/>
	<path class="st0" d="M51,174.6h5.5v1H51V174.6z"/>
</g>
<path class="st6" d="M1.5,200.1c0-1.105,0.895-2,2-2h126c1.105,0,2,0.895,2,2v5c0,1.105-0.895,2-2,2H3.5c-1.105,0-2-0.895-2-2V200.1
	z"/>
<path class="st7" d="M11.932,200v5.1h-0.616c-0.091,0-0.168-0.014-0.231-0.042c-0.061-0.03-0.121-0.082-0.182-0.154l-2.405-3.042
	c0.009,0.091,0.015,0.18,0.017,0.266c0.005,0.084,0.007,0.164,0.007,0.238v2.734H7.48V200h0.623c0.051,0,0.094,0.003,0.13,0.007
	c0.035,0.005,0.066,0.014,0.094,0.028c0.028,0.012,0.055,0.03,0.08,0.053c0.026,0.023,0.055,0.055,0.088,0.094l2.426,3.063
	c-0.012-0.098-0.02-0.193-0.024-0.284c-0.005-0.093-0.007-0.18-0.007-0.262V200H11.932z M17.821,202.548
	c0,0.369-0.064,0.712-0.193,1.029c-0.126,0.318-0.304,0.594-0.535,0.83c-0.231,0.233-0.51,0.416-0.837,0.549
	c-0.324,0.134-0.685,0.2-1.082,0.2c-0.397,0-0.758-0.066-1.085-0.2c-0.327-0.133-0.607-0.316-0.84-0.549
	c-0.231-0.236-0.411-0.512-0.539-0.83c-0.126-0.317-0.189-0.66-0.189-1.029c0-0.368,0.063-0.711,0.189-1.029
	c0.128-0.317,0.308-0.592,0.539-0.826c0.233-0.233,0.513-0.416,0.84-0.549s0.688-0.2,1.085-0.2s0.757,0.068,1.082,0.203
	c0.327,0.133,0.606,0.317,0.837,0.55c0.231,0.233,0.41,0.509,0.535,0.826C17.757,201.84,17.821,202.182,17.821,202.548z
	 M16.61,202.548c0-0.252-0.033-0.478-0.098-0.679c-0.065-0.203-0.16-0.374-0.284-0.514c-0.121-0.14-0.271-0.247-0.448-0.322
	c-0.177-0.075-0.379-0.112-0.606-0.112c-0.229,0-0.433,0.037-0.612,0.112c-0.177,0.075-0.328,0.182-0.451,0.322
	c-0.121,0.14-0.215,0.311-0.28,0.514c-0.065,0.201-0.098,0.427-0.098,0.679c0,0.255,0.033,0.483,0.098,0.686
	c0.065,0.201,0.159,0.371,0.28,0.511c0.124,0.14,0.274,0.248,0.451,0.322c0.18,0.073,0.384,0.109,0.612,0.109
	c0.226,0,0.428-0.036,0.606-0.109c0.177-0.074,0.327-0.182,0.448-0.322c0.124-0.14,0.218-0.31,0.284-0.511
	C16.578,203.031,16.61,202.803,16.61,202.548z M21.118,200.91v1.292h1.743v0.913h-1.743v1.985h-1.19V200h3.283v0.91H21.118z
	 M29.52,200v5.1h-1.043v-2.933c0-0.068,0.001-0.141,0.003-0.221c0.005-0.079,0.012-0.159,0.021-0.241l-1.354,2.621
	c-0.042,0.082-0.099,0.144-0.171,0.186c-0.07,0.042-0.151,0.063-0.242,0.063h-0.161c-0.091,0-0.173-0.021-0.245-0.063
	c-0.07-0.042-0.126-0.104-0.168-0.186l-1.354-2.628c0.007,0.084,0.013,0.167,0.017,0.248c0.005,0.08,0.007,0.153,0.007,0.221v2.933
	h-1.043V200h0.903c0.051,0,0.096,0.002,0.133,0.004c0.04,0.002,0.075,0.009,0.105,0.021c0.03,0.012,0.057,0.03,0.08,0.056
	c0.026,0.023,0.05,0.057,0.073,0.101l1.313,2.587c0.047,0.089,0.091,0.181,0.133,0.276c0.044,0.096,0.086,0.194,0.126,0.294
	c0.04-0.102,0.08-0.203,0.122-0.301c0.044-0.098,0.091-0.191,0.14-0.28l1.309-2.576c0.023-0.044,0.047-0.078,0.07-0.101
	c0.026-0.026,0.054-0.044,0.084-0.056c0.03-0.012,0.064-0.019,0.101-0.021c0.04-0.002,0.085-0.004,0.136-0.004L29.52,200L29.52,200z
	"/>
<path class="st7" d="M47.647,204.12c0.117,0,0.209,0.033,0.277,0.098c0.068,0.063,0.101,0.147,0.101,0.252v0.63h-3.584v-0.35
	c0-0.068,0.014-0.14,0.042-0.217s0.077-0.147,0.147-0.21l1.47-1.481c0.126-0.126,0.236-0.246,0.329-0.36s0.17-0.226,0.231-0.336
	c0.061-0.112,0.106-0.223,0.136-0.333c0.03-0.112,0.046-0.229,0.046-0.353c0-0.203-0.049-0.358-0.147-0.466
	c-0.096-0.109-0.243-0.164-0.441-0.164c-0.161,0-0.298,0.043-0.41,0.129c-0.11,0.084-0.186,0.189-0.228,0.315
	c-0.049,0.129-0.113,0.214-0.192,0.256c-0.079,0.042-0.193,0.051-0.34,0.028l-0.574-0.102c0.037-0.254,0.109-0.476,0.214-0.665
	c0.107-0.189,0.239-0.346,0.396-0.472c0.159-0.126,0.34-0.219,0.542-0.28c0.203-0.063,0.421-0.095,0.654-0.095
	c0.252,0,0.478,0.038,0.679,0.112c0.203,0.073,0.376,0.174,0.518,0.305c0.142,0.131,0.251,0.287,0.325,0.469
	c0.077,0.18,0.116,0.378,0.116,0.595c0,0.187-0.027,0.359-0.081,0.518c-0.051,0.159-0.122,0.31-0.213,0.455
	c-0.091,0.142-0.197,0.281-0.319,0.416c-0.119,0.133-0.246,0.269-0.382,0.406l-0.998,1.022c0.128-0.039,0.256-0.07,0.382-0.091
	s0.243-0.031,0.35-0.031H47.647z M56.41,204.316v0.784h-2.905v-0.784h0.98v-2.573c0-0.065,0.001-0.13,0.004-0.196
	c0.002-0.067,0.006-0.135,0.01-0.203l-0.581,0.483c-0.051,0.04-0.103,0.065-0.154,0.074c-0.049,0.007-0.096,0.007-0.14,0
	c-0.044-0.009-0.084-0.025-0.119-0.046c-0.035-0.023-0.061-0.046-0.077-0.07l-0.343-0.455l1.589-1.333h0.896v4.319H56.41z"/>
<path class="st7" d="M52.387,202.6l-2.813,2.143v-4.286L52.387,202.6z"/>
<path class="st7" d="M70.773,201.456c0.037-0.254,0.108-0.476,0.214-0.665c0.107-0.189,0.239-0.346,0.396-0.472
	c0.159-0.126,0.34-0.219,0.542-0.28c0.203-0.063,0.421-0.095,0.655-0.095c0.252,0,0.476,0.037,0.672,0.109
	c0.196,0.07,0.362,0.166,0.497,0.287s0.238,0.262,0.308,0.423c0.07,0.159,0.105,0.327,0.105,0.504c0,0.161-0.016,0.304-0.049,0.427
	c-0.033,0.122-0.082,0.228-0.147,0.319c-0.063,0.089-0.142,0.164-0.238,0.227c-0.093,0.061-0.201,0.112-0.322,0.154
	c0.565,0.199,0.847,0.584,0.847,1.155c0,0.271-0.049,0.507-0.147,0.707c-0.098,0.201-0.23,0.368-0.396,0.501
	c-0.163,0.133-0.354,0.233-0.571,0.301c-0.217,0.065-0.443,0.098-0.679,0.098c-0.243,0-0.458-0.026-0.647-0.077
	c-0.189-0.054-0.357-0.135-0.504-0.245c-0.147-0.112-0.276-0.254-0.389-0.427c-0.11-0.173-0.205-0.378-0.287-0.616l0.483-0.196
	c0.126-0.049,0.243-0.062,0.35-0.039c0.107,0.024,0.184,0.077,0.231,0.161c0.105,0.194,0.216,0.335,0.333,0.424
	c0.119,0.086,0.258,0.129,0.416,0.129c0.121,0,0.226-0.019,0.315-0.059c0.091-0.042,0.166-0.095,0.224-0.158
	c0.061-0.065,0.106-0.138,0.136-0.22s0.046-0.165,0.046-0.249c0-0.109-0.008-0.207-0.024-0.294
	c-0.014-0.088-0.056-0.164-0.126-0.227s-0.176-0.111-0.319-0.144c-0.14-0.035-0.336-0.052-0.588-0.052v-0.749
	c0.212,0,0.384-0.016,0.515-0.049c0.131-0.033,0.231-0.077,0.301-0.133c0.072-0.058,0.12-0.128,0.144-0.21
	c0.023-0.082,0.035-0.172,0.035-0.27c0-0.2-0.049-0.354-0.147-0.462c-0.096-0.109-0.243-0.164-0.441-0.164
	c-0.161,0-0.298,0.043-0.41,0.129c-0.11,0.084-0.185,0.189-0.227,0.315c-0.049,0.129-0.113,0.214-0.193,0.256
	c-0.079,0.042-0.192,0.051-0.34,0.028L70.773,201.456z M83.897,204.12c0.117,0,0.209,0.033,0.276,0.098
	c0.068,0.063,0.102,0.147,0.102,0.252v0.63h-3.584v-0.35c0-0.068,0.014-0.14,0.042-0.217s0.077-0.147,0.147-0.21l1.47-1.481
	c0.126-0.126,0.236-0.246,0.329-0.36s0.17-0.226,0.231-0.336c0.061-0.112,0.106-0.223,0.136-0.333
	c0.03-0.112,0.046-0.229,0.046-0.353c0-0.203-0.049-0.358-0.147-0.466c-0.096-0.109-0.243-0.164-0.441-0.164
	c-0.161,0-0.298,0.043-0.41,0.129c-0.11,0.084-0.186,0.189-0.228,0.315c-0.049,0.129-0.113,0.214-0.193,0.256
	c-0.079,0.042-0.192,0.051-0.34,0.028l-0.574-0.102c0.037-0.254,0.108-0.476,0.214-0.665c0.107-0.189,0.239-0.346,0.396-0.472
	c0.159-0.126,0.34-0.219,0.542-0.28c0.203-0.063,0.421-0.095,0.655-0.095c0.252,0,0.478,0.038,0.679,0.112
	c0.203,0.073,0.376,0.174,0.518,0.305s0.251,0.287,0.326,0.469c0.077,0.18,0.116,0.378,0.116,0.595c0,0.187-0.027,0.359-0.08,0.518
	c-0.051,0.159-0.123,0.31-0.214,0.455c-0.091,0.142-0.197,0.281-0.319,0.416c-0.119,0.133-0.246,0.269-0.382,0.406l-0.997,1.022
	c0.128-0.039,0.256-0.07,0.382-0.091c0.126-0.021,0.243-0.031,0.35-0.031H83.897z M94.176,204.316v0.784h-2.905v-0.784h0.98v-2.573
	c0-0.065,0.001-0.13,0.004-0.196c0.002-0.067,0.006-0.135,0.01-0.203l-0.581,0.483c-0.051,0.04-0.103,0.065-0.154,0.074
	c-0.049,0.007-0.096,0.007-0.14,0c-0.044-0.009-0.084-0.025-0.119-0.046c-0.035-0.023-0.061-0.046-0.077-0.07l-0.343-0.455
	l1.589-1.333h0.896v4.319H94.176z"/>
<path class="st7" d="M78.761,202.6l-2.813,2.143v-4.286L78.761,202.6z"/>
<path class="st7" d="M89.074,202.6l-2.813,2.143v-4.286L89.074,202.6z"/>
<path class="st0" d="M100.511,199.6h28c0.552,0,1,0.448,1,1v4c0,0.552-0.448,1-1,1h-28c-0.552,0-1-0.448-1-1v-4
	C99.511,200.048,99.959,199.6,100.511,199.6z"/>
<path class="st1" d="M100.511,199.6h28c0.552,0,1,0.448,1,1v4c0,0.552-0.448,1-1,1h-28c-0.552,0-1-0.448-1-1v-4
	C99.511,200.048,99.959,199.6,100.511,199.6z"/>
<path d="M105.881,204.12c0.117,0,0.209,0.033,0.277,0.098c0.067,0.063,0.101,0.147,0.101,0.252v0.63h-3.584v-0.35
	c0-0.068,0.014-0.14,0.042-0.217s0.077-0.147,0.147-0.21l1.47-1.481c0.126-0.126,0.236-0.246,0.329-0.36
	c0.094-0.114,0.171-0.226,0.231-0.336c0.061-0.112,0.106-0.223,0.137-0.333c0.03-0.112,0.045-0.229,0.045-0.353
	c0-0.203-0.049-0.358-0.147-0.466c-0.095-0.109-0.242-0.164-0.441-0.164c-0.161,0-0.297,0.043-0.409,0.129
	c-0.11,0.084-0.186,0.189-0.228,0.315c-0.049,0.129-0.113,0.214-0.192,0.256c-0.08,0.042-0.193,0.051-0.34,0.028l-0.574-0.102
	c0.038-0.254,0.109-0.476,0.214-0.665c0.107-0.189,0.239-0.346,0.395-0.472c0.159-0.126,0.34-0.219,0.543-0.28
	c0.203-0.063,0.421-0.095,0.654-0.095c0.252,0,0.479,0.038,0.679,0.112c0.203,0.073,0.376,0.174,0.518,0.305
	c0.143,0.131,0.251,0.287,0.326,0.469c0.077,0.18,0.115,0.378,0.115,0.595c0,0.187-0.027,0.359-0.08,0.518
	c-0.052,0.159-0.123,0.31-0.214,0.455c-0.091,0.142-0.197,0.281-0.318,0.416c-0.119,0.133-0.246,0.269-0.382,0.406l-0.997,1.022
	c0.128-0.039,0.255-0.07,0.381-0.091s0.243-0.031,0.35-0.031H105.881z M116.16,204.316v0.784h-2.905v-0.784h0.98v-2.573
	c0-0.065,0.001-0.13,0.003-0.196c0.003-0.067,0.006-0.135,0.011-0.203l-0.581,0.483c-0.052,0.04-0.103,0.065-0.154,0.074
	c-0.049,0.007-0.096,0.007-0.14,0c-0.045-0.009-0.084-0.025-0.119-0.046c-0.035-0.023-0.061-0.046-0.077-0.07l-0.343-0.455
	l1.589-1.333h0.896v4.319H116.16z M122.805,201.456c0.038-0.254,0.109-0.476,0.214-0.665c0.107-0.189,0.239-0.346,0.395-0.472
	c0.159-0.126,0.34-0.219,0.543-0.28c0.203-0.063,0.421-0.095,0.654-0.095c0.252,0,0.476,0.037,0.672,0.109
	c0.196,0.07,0.362,0.166,0.497,0.287c0.136,0.121,0.238,0.262,0.308,0.423c0.07,0.159,0.105,0.327,0.105,0.504
	c0,0.161-0.016,0.304-0.049,0.427c-0.032,0.122-0.081,0.228-0.147,0.319c-0.063,0.089-0.142,0.164-0.238,0.227
	c-0.093,0.061-0.2,0.112-0.322,0.154c0.565,0.199,0.847,0.584,0.847,1.155c0,0.271-0.049,0.507-0.147,0.707
	c-0.098,0.201-0.23,0.368-0.395,0.501c-0.164,0.133-0.354,0.233-0.571,0.301c-0.217,0.065-0.443,0.098-0.679,0.098
	c-0.242,0-0.458-0.026-0.647-0.077c-0.189-0.054-0.357-0.135-0.504-0.245c-0.147-0.112-0.277-0.254-0.389-0.427
	c-0.109-0.173-0.205-0.378-0.287-0.616l0.483-0.196c0.126-0.049,0.243-0.062,0.35-0.039c0.108,0.024,0.185,0.077,0.231,0.161
	c0.105,0.194,0.216,0.335,0.333,0.424c0.119,0.086,0.258,0.129,0.416,0.129c0.122,0,0.227-0.019,0.315-0.059
	c0.091-0.042,0.166-0.095,0.224-0.158c0.061-0.065,0.106-0.138,0.137-0.22c0.03-0.082,0.045-0.165,0.045-0.249
	c0-0.109-0.008-0.207-0.024-0.294c-0.014-0.088-0.056-0.164-0.126-0.227s-0.176-0.111-0.319-0.144
	c-0.14-0.035-0.336-0.052-0.588-0.052v-0.749c0.213,0,0.384-0.016,0.515-0.049c0.13-0.033,0.231-0.077,0.301-0.133
	c0.072-0.058,0.12-0.128,0.143-0.21c0.024-0.082,0.035-0.172,0.035-0.27c0-0.2-0.049-0.354-0.147-0.462
	c-0.095-0.109-0.242-0.164-0.441-0.164c-0.161,0-0.297,0.043-0.409,0.129c-0.11,0.084-0.186,0.189-0.228,0.315
	c-0.049,0.129-0.113,0.214-0.192,0.256c-0.08,0.042-0.193,0.051-0.34,0.028L122.805,201.456z"/>
<path d="M110.761,202.6l-2.812,2.143v-4.286L110.761,202.6z"/>
<path d="M118.261,202.6l2.813-2.143v4.286L118.261,202.6z"/>
<path d="M3.5,198.6h126v-1H3.5V198.6z M131,200.1v5h1v-5H131z M129.5,206.6H3.5v1h126V206.6z M2,205.1v-5H1v5H2z M3.5,206.6
	c-0.828,0-1.5-0.672-1.5-1.5H1c0,1.381,1.119,2.5,2.5,2.5V206.6z M131,205.1c0,0.828-0.672,1.5-1.5,1.5v1c1.381,0,2.5-1.119,2.5-2.5
	H131z M129.5,198.6c0.828,0,1.5,0.672,1.5,1.5h1c0-1.381-1.119-2.5-2.5-2.5V198.6z M3.5,197.6c-1.381,0-2.5,1.119-2.5,2.5h1
	c0-0.828,0.672-1.5,1.5-1.5V197.6z"/>
<path class="st0" d="M1,107.6v3h120v8h7v2l4-2.5l-4-2.5v2h-5v-10H1z"/>
<path class="st1" d="M15.5,130.1h6c1.105,0,2,0.895,2,2v6c0,1.105-0.895,2-2,2h-6c-1.105,0-2-0.895-2-2v-6
	C13.5,130.995,14.395,130.1,15.5,130.1z"/>
<path class="st1" d="M47.5,130.1h6c1.105,0,2,0.895,2,2v6c0,1.105-0.895,2-2,2h-6c-1.105,0-2-0.895-2-2v-6
	C45.5,130.995,46.395,130.1,47.5,130.1z"/>
<path class="st1" d="M79.5,130.1h6c1.105,0,2,0.895,2,2v6c0,1.105-0.895,2-2,2h-6c-1.105,0-2-0.895-2-2v-6
	C77.5,130.995,78.395,130.1,79.5,130.1z"/>
<path class="st2" d="M117,130.1h-6c-1.105,0-2,0.895-2,2v6c0,1.105,0.895,2,2,2h6c1.105,0,2-0.895,2-2v-6
	C119,130.995,118.105,130.1,117,130.1z"/>
<path class="st3" d="M20.092,136.952v0.648h-2.8v-0.648h1.025v-2.95c0-0.117,0.003-0.237,0.01-0.361L17.6,134.25
	c-0.042,0.033-0.084,0.054-0.126,0.063c-0.04,0.007-0.078,0.007-0.115,0c-0.035-0.007-0.066-0.018-0.094-0.035
	c-0.028-0.018-0.049-0.038-0.063-0.059l-0.273-0.375l1.544-1.312h0.71v4.42L20.092,136.952L20.092,136.952z"/>
<path class="st3" d="M51.903,136.795c0.093,0,0.167,0.027,0.221,0.08c0.056,0.052,0.084,0.121,0.084,0.207v0.518h-3.472v-0.287
	c0-0.058,0.012-0.119,0.035-0.182c0.026-0.065,0.065-0.124,0.119-0.175l1.536-1.54c0.128-0.131,0.243-0.256,0.343-0.375
	c0.103-0.119,0.188-0.236,0.256-0.353s0.119-0.235,0.154-0.354c0.037-0.121,0.056-0.248,0.056-0.381
	c0-0.121-0.017-0.228-0.052-0.319c-0.035-0.093-0.085-0.171-0.151-0.234c-0.063-0.063-0.14-0.11-0.231-0.14
	c-0.089-0.033-0.189-0.049-0.301-0.049c-0.103,0-0.198,0.015-0.287,0.045c-0.086,0.028-0.163,0.069-0.231,0.123
	c-0.068,0.051-0.125,0.112-0.172,0.182s-0.082,0.147-0.105,0.231c-0.04,0.107-0.091,0.178-0.154,0.213s-0.154,0.044-0.273,0.025
	l-0.455-0.081c0.035-0.242,0.103-0.455,0.203-0.637c0.1-0.184,0.225-0.337,0.375-0.458c0.152-0.124,0.324-0.216,0.518-0.277
	c0.196-0.063,0.406-0.094,0.63-0.094c0.233,0,0.447,0.035,0.641,0.105c0.194,0.068,0.359,0.164,0.497,0.29
	c0.138,0.126,0.245,0.278,0.322,0.455c0.077,0.178,0.115,0.375,0.115,0.592c0,0.187-0.028,0.359-0.084,0.518
	c-0.054,0.159-0.127,0.31-0.221,0.455c-0.091,0.145-0.198,0.285-0.322,0.42c-0.124,0.135-0.253,0.273-0.389,0.413l-1.141,1.165
	c0.11-0.032,0.218-0.057,0.326-0.073c0.11-0.019,0.213-0.028,0.311-0.028L51.903,136.795L51.903,136.795z"/>
<path class="st3" d="M80.848,133.949c0.035-0.242,0.103-0.455,0.203-0.637c0.1-0.184,0.225-0.337,0.375-0.458
	c0.152-0.124,0.324-0.216,0.518-0.277c0.196-0.063,0.406-0.094,0.63-0.094c0.233,0,0.443,0.034,0.63,0.101
	c0.189,0.066,0.35,0.158,0.483,0.277c0.133,0.117,0.234,0.254,0.304,0.413c0.072,0.159,0.108,0.33,0.108,0.514
	c0,0.161-0.019,0.304-0.056,0.427c-0.035,0.122-0.086,0.228-0.154,0.319s-0.152,0.168-0.252,0.231s-0.214,0.115-0.34,0.157
	c0.303,0.096,0.53,0.242,0.679,0.438s0.224,0.442,0.224,0.738c0,0.252-0.047,0.475-0.14,0.669s-0.219,0.357-0.378,0.49
	c-0.159,0.131-0.343,0.23-0.553,0.297c-0.208,0.068-0.428,0.102-0.661,0.102c-0.254,0-0.476-0.029-0.665-0.088
	c-0.189-0.058-0.354-0.144-0.493-0.259c-0.14-0.114-0.259-0.254-0.357-0.42c-0.098-0.165-0.182-0.357-0.252-0.574l0.382-0.157
	c0.1-0.042,0.194-0.053,0.28-0.032c0.089,0.019,0.153,0.066,0.193,0.14c0.042,0.082,0.087,0.163,0.136,0.242
	c0.051,0.079,0.112,0.15,0.182,0.213c0.07,0.061,0.152,0.111,0.245,0.151c0.096,0.037,0.209,0.056,0.34,0.056
	c0.147,0,0.275-0.023,0.385-0.07c0.11-0.049,0.201-0.112,0.273-0.189c0.075-0.077,0.13-0.162,0.164-0.256
	c0.037-0.095,0.056-0.191,0.056-0.287c0-0.121-0.013-0.231-0.038-0.329c-0.026-0.1-0.079-0.185-0.161-0.255s-0.2-0.125-0.354-0.165
	c-0.152-0.039-0.356-0.059-0.613-0.059v-0.616c0.212-0.002,0.388-0.022,0.529-0.06c0.14-0.037,0.251-0.088,0.332-0.154
	c0.084-0.067,0.142-0.148,0.175-0.241c0.033-0.093,0.049-0.196,0.049-0.308c0-0.238-0.066-0.419-0.2-0.543
	c-0.133-0.123-0.31-0.185-0.532-0.185c-0.103,0-0.197,0.015-0.284,0.045c-0.086,0.028-0.164,0.069-0.234,0.123
	c-0.068,0.051-0.125,0.112-0.172,0.182s-0.082,0.147-0.105,0.231c-0.04,0.107-0.092,0.178-0.158,0.213
	c-0.063,0.035-0.153,0.044-0.27,0.025L80.848,133.949z"/>
<path class="st3" d="M116.133,132.539v5.061h-0.483c-0.074,0-0.137-0.012-0.189-0.035c-0.049-0.026-0.097-0.068-0.143-0.126
	l-2.643-3.374c0.014,0.154,0.021,0.296,0.021,0.427v3.108h-0.829v-5.061h0.493c0.04,0,0.074,0.002,0.102,0.007
	c0.03,0.002,0.056,0.009,0.077,0.021c0.023,0.009,0.045,0.024,0.066,0.045c0.021,0.019,0.045,0.045,0.07,0.077l2.653,3.388
	c-0.007-0.081-0.013-0.162-0.017-0.241c-0.005-0.079-0.007-0.153-0.007-0.221v-3.076H116.133z"/>
<g class="st4">
	<path class="st1" d="M34.5,128.1c2.761,0,5-2.239,5-5s-2.239-5-5-5s-5,2.239-5,5S31.739,128.1,34.5,128.1z"/>
	<path class="st5" d="M36.444,120.095l1.061,1.061l-1.946,1.945l1.945,1.943l-1.06,1.061l-1.946-1.943l-1.943,1.943l-1.061-1.06
		l1.942-1.943l-1.945-1.942l1.06-1.062l1.946,1.944L36.444,120.095z"/>
</g>
<g class="st4">
	<path class="st1" d="M66.5,128.1c2.761,0,5-2.239,5-5s-2.239-5-5-5s-5,2.239-5,5S63.739,128.1,66.5,128.1z"/>
	<path class="st5" d="M68.445,120.095l1.061,1.061l-1.946,1.945l1.945,1.943l-1.06,1.061l-1.946-1.943l-1.943,1.943l-1.061-1.06
		l1.942-1.943l-1.945-1.942l1.06-1.062l1.946,1.944L68.445,120.095z"/>
</g>
<path class="st0" d="M82,115.6h-2l2.5-4l2.5,4h-2H82z"/>
<path class="st0" d="M82,129.6v-14.5h1v14.5H82z"/>
<g class="st4">
	<path class="st0" d="M113.5,115.6h-2l2.5-4l2.5,4h-2H113.5z"/>
	<path class="st0" d="M113.5,129.6v-14.5h1v14.5H113.5z"/>
</g>
<path class="st0" d="M50,115.6h-2l2.5-4l2.5,4h-2H50z"/>
<path class="st0" d="M50,129.6v-14.5h1v14.5H50z"/>
<path class="st0" d="M18,115.6h-2l2.5-4l2.5,4h-2H18z"/>
<path class="st0" d="M18,129.6v-14.5h1v14.5H18z"/>
<g class="st4">
	<path class="st0" d="M34,115.6h-2l2.5-4l2.5,4h-2H34z"/>
	<path class="st0" d="M34,117.6v-2.5h1v2.5H34z"/>
</g>
<g class="st4">
	<path class="st0" d="M66,115.6h-2l2.5-4l2.5,4h-2H66z"/>
	<path class="st0" d="M66,117.6v-2.5h1v2.5H66z"/>
</g>
<g class="st4">
	<path class="st0" d="M45,123.6v2l-4-2.5l4-2.5v2V123.6z"/>
	<path class="st0" d="M50,123.6h-5.5v-1H50V123.6z"/>
</g>
<g class="st4">
	<path class="st0" d="M77,123.6v2l-4-2.5l4-2.5v2V123.6z"/>
	<path class="st0" d="M82,123.6h-5.5v-1H82V123.6z"/>
</g>
<path class="st0" d="M61,135.6v2l-4-2.5l4-2.5v2V135.6z"/>
<path class="st0" d="M77,135.6H60.5v-1H77V135.6z"/>
<path class="st0" d="M29,135.6v2l-4-2.5l4-2.5v2V135.6z"/>
<path class="st0" d="M45,135.6H28.5v-1H45V135.6z"/>
<g class="st4">
	<path class="st0" d="M24,122.6v-2l4,2.5l-4,2.5v-2V122.6z"/>
	<path class="st0" d="M19,122.6h5.5v1H19V122.6z"/>
</g>
<g class="st4">
	<path class="st0" d="M56,122.6v-2l4,2.5l-4,2.5v-2V122.6z"/>
	<path class="st0" d="M51,122.6h5.5v1H51V122.6z"/>
</g>
<path class="st6" d="M1.5,148.1c0-1.105,0.895-2,2-2h126c1.105,0,2,0.895,2,2v5c0,1.105-0.895,2-2,2H3.5c-1.105,0-2-0.895-2-2V148.1
	z"/>
<path class="st7" d="M11.932,148v5.1h-0.616c-0.091,0-0.168-0.014-0.231-0.042c-0.061-0.03-0.121-0.082-0.182-0.154l-2.405-3.042
	c0.009,0.091,0.015,0.18,0.017,0.266c0.005,0.084,0.007,0.164,0.007,0.238v2.734H7.48V148h0.623c0.051,0,0.094,0.003,0.13,0.007
	c0.035,0.005,0.066,0.014,0.094,0.028c0.028,0.012,0.055,0.03,0.08,0.053c0.026,0.023,0.055,0.055,0.088,0.094l2.426,3.063
	c-0.012-0.098-0.02-0.193-0.024-0.284c-0.005-0.093-0.007-0.18-0.007-0.262V148H11.932z M17.821,150.548
	c0,0.369-0.064,0.712-0.193,1.029c-0.126,0.318-0.304,0.594-0.535,0.83c-0.231,0.233-0.51,0.416-0.837,0.549
	c-0.324,0.134-0.685,0.2-1.082,0.2c-0.397,0-0.758-0.066-1.085-0.2c-0.327-0.133-0.607-0.316-0.84-0.549
	c-0.231-0.236-0.411-0.512-0.539-0.83c-0.126-0.317-0.189-0.66-0.189-1.029c0-0.368,0.063-0.711,0.189-1.029
	c0.128-0.317,0.308-0.592,0.539-0.826c0.233-0.233,0.513-0.416,0.84-0.549s0.688-0.2,1.085-0.2s0.757,0.068,1.082,0.203
	c0.327,0.133,0.606,0.317,0.837,0.55c0.231,0.233,0.41,0.509,0.535,0.826C17.757,149.84,17.821,150.182,17.821,150.548z
	 M16.61,150.548c0-0.252-0.033-0.478-0.098-0.679c-0.065-0.203-0.16-0.374-0.284-0.514c-0.121-0.14-0.271-0.247-0.448-0.322
	c-0.177-0.075-0.379-0.112-0.606-0.112c-0.229,0-0.433,0.037-0.612,0.112c-0.177,0.075-0.328,0.182-0.451,0.322
	c-0.121,0.14-0.215,0.311-0.28,0.514c-0.065,0.201-0.098,0.427-0.098,0.679c0,0.255,0.033,0.483,0.098,0.686
	c0.065,0.201,0.159,0.371,0.28,0.511c0.124,0.14,0.274,0.248,0.451,0.322c0.18,0.073,0.384,0.109,0.612,0.109
	c0.226,0,0.428-0.036,0.606-0.109c0.177-0.074,0.327-0.182,0.448-0.322c0.124-0.14,0.218-0.31,0.284-0.511
	C16.578,151.031,16.61,150.803,16.61,150.548z M21.118,148.91v1.292h1.743v0.913h-1.743v1.985h-1.19V148h3.283v0.91H21.118z
	 M29.52,148v5.1h-1.043v-2.933c0-0.068,0.001-0.141,0.003-0.221c0.005-0.079,0.012-0.159,0.021-0.241l-1.354,2.621
	c-0.042,0.082-0.099,0.144-0.171,0.186c-0.07,0.042-0.151,0.063-0.242,0.063h-0.161c-0.091,0-0.173-0.021-0.245-0.063
	c-0.07-0.042-0.126-0.104-0.168-0.186l-1.354-2.628c0.007,0.084,0.013,0.167,0.017,0.248c0.005,0.08,0.007,0.153,0.007,0.221v2.933
	h-1.043V148h0.903c0.051,0,0.096,0.002,0.133,0.004c0.04,0.002,0.075,0.009,0.105,0.021c0.03,0.012,0.057,0.03,0.08,0.056
	c0.026,0.023,0.05,0.057,0.073,0.101l1.313,2.587c0.047,0.089,0.091,0.181,0.133,0.276c0.044,0.096,0.086,0.194,0.126,0.294
	c0.04-0.102,0.08-0.203,0.122-0.301c0.044-0.098,0.091-0.191,0.14-0.28l1.309-2.576c0.023-0.044,0.047-0.078,0.07-0.101
	c0.026-0.026,0.054-0.044,0.084-0.056c0.03-0.012,0.064-0.019,0.101-0.021c0.04-0.002,0.085-0.004,0.136-0.004L29.52,148L29.52,148z
	"/>
<path class="st7" d="M47.647,152.12c0.117,0,0.209,0.033,0.277,0.098c0.068,0.063,0.101,0.147,0.101,0.252v0.63h-3.584v-0.35
	c0-0.068,0.014-0.14,0.042-0.217s0.077-0.147,0.147-0.21l1.47-1.481c0.126-0.126,0.236-0.246,0.329-0.36s0.17-0.226,0.231-0.336
	c0.061-0.112,0.106-0.223,0.136-0.333c0.03-0.112,0.046-0.229,0.046-0.353c0-0.203-0.049-0.358-0.147-0.466
	c-0.096-0.109-0.243-0.164-0.441-0.164c-0.161,0-0.298,0.043-0.41,0.129c-0.11,0.084-0.186,0.189-0.228,0.315
	c-0.049,0.129-0.113,0.214-0.192,0.256c-0.079,0.042-0.193,0.051-0.34,0.028l-0.574-0.102c0.037-0.254,0.109-0.476,0.214-0.665
	c0.107-0.189,0.239-0.346,0.396-0.472c0.159-0.126,0.34-0.219,0.542-0.28c0.203-0.063,0.421-0.095,0.654-0.095
	c0.252,0,0.478,0.038,0.679,0.112c0.203,0.073,0.376,0.174,0.518,0.305c0.142,0.131,0.251,0.287,0.325,0.469
	c0.077,0.18,0.116,0.378,0.116,0.595c0,0.187-0.027,0.359-0.081,0.518c-0.051,0.159-0.122,0.31-0.213,0.455
	c-0.091,0.142-0.197,0.281-0.319,0.416c-0.119,0.133-0.246,0.269-0.382,0.406l-0.998,1.022c0.128-0.039,0.256-0.07,0.382-0.091
	s0.243-0.031,0.35-0.031H47.647z M56.41,152.316v0.784h-2.905v-0.784h0.98v-2.573c0-0.065,0.001-0.13,0.004-0.196
	c0.002-0.067,0.006-0.135,0.01-0.203l-0.581,0.483c-0.051,0.04-0.103,0.065-0.154,0.074c-0.049,0.007-0.096,0.007-0.14,0
	c-0.044-0.009-0.084-0.025-0.119-0.046c-0.035-0.023-0.061-0.046-0.077-0.07l-0.343-0.455l1.589-1.333h0.896v4.319H56.41z"/>
<path class="st7" d="M52.387,150.6l-2.813,2.143v-4.286L52.387,150.6z"/>
<path class="st0" d="M68.511,147.6h28c0.552,0,1,0.448,1,1v4c0,0.552-0.448,1-1,1h-28c-0.552,0-1-0.448-1-1v-4
	C67.511,148.048,67.959,147.6,68.511,147.6z"/>
<path class="st1" d="M68.511,147.6h28c0.552,0,1,0.448,1,1v4c0,0.552-0.448,1-1,1h-28c-0.552,0-1-0.448-1-1v-4
	C67.511,148.048,67.959,147.6,68.511,147.6z"/>
<path d="M70.773,149.456c0.037-0.254,0.108-0.476,0.214-0.665c0.107-0.189,0.239-0.346,0.396-0.472
	c0.159-0.126,0.34-0.219,0.542-0.28c0.203-0.063,0.421-0.095,0.655-0.095c0.252,0,0.476,0.037,0.672,0.109
	c0.196,0.07,0.362,0.166,0.497,0.287s0.238,0.262,0.308,0.423c0.07,0.159,0.105,0.327,0.105,0.504c0,0.161-0.016,0.304-0.049,0.427
	c-0.033,0.122-0.082,0.228-0.147,0.319c-0.063,0.089-0.142,0.164-0.238,0.227c-0.093,0.061-0.201,0.112-0.322,0.154
	c0.565,0.199,0.847,0.584,0.847,1.155c0,0.271-0.049,0.507-0.147,0.707c-0.098,0.201-0.23,0.368-0.396,0.501
	c-0.163,0.133-0.354,0.233-0.571,0.301c-0.217,0.065-0.443,0.098-0.679,0.098c-0.243,0-0.458-0.026-0.647-0.077
	c-0.189-0.054-0.357-0.135-0.504-0.245c-0.147-0.112-0.276-0.254-0.389-0.427c-0.11-0.173-0.205-0.378-0.287-0.616l0.483-0.196
	c0.126-0.049,0.243-0.062,0.35-0.039c0.107,0.024,0.184,0.077,0.231,0.161c0.105,0.194,0.216,0.335,0.333,0.424
	c0.119,0.086,0.258,0.129,0.416,0.129c0.121,0,0.226-0.019,0.315-0.059c0.091-0.042,0.166-0.095,0.224-0.158
	c0.061-0.065,0.106-0.138,0.136-0.22s0.046-0.165,0.046-0.249c0-0.109-0.008-0.207-0.024-0.294
	c-0.014-0.088-0.056-0.164-0.126-0.227s-0.176-0.111-0.319-0.144c-0.14-0.035-0.336-0.052-0.588-0.052v-0.749
	c0.212,0,0.384-0.016,0.515-0.049c0.131-0.033,0.231-0.077,0.301-0.133c0.072-0.058,0.12-0.128,0.144-0.21
	c0.023-0.082,0.035-0.172,0.035-0.27c0-0.2-0.049-0.354-0.147-0.462c-0.096-0.109-0.243-0.164-0.441-0.164
	c-0.161,0-0.298,0.043-0.41,0.129c-0.11,0.084-0.185,0.189-0.227,0.315c-0.049,0.129-0.113,0.214-0.193,0.256
	c-0.079,0.042-0.192,0.051-0.34,0.028L70.773,149.456z M83.897,152.12c0.117,0,0.209,0.033,0.276,0.098
	c0.068,0.063,0.102,0.147,0.102,0.252v0.63h-3.584v-0.35c0-0.068,0.014-0.14,0.042-0.217s0.077-0.147,0.147-0.21l1.47-1.481
	c0.126-0.126,0.236-0.246,0.329-0.36s0.17-0.226,0.231-0.336c0.061-0.112,0.106-0.223,0.136-0.333
	c0.03-0.112,0.046-0.229,0.046-0.353c0-0.203-0.049-0.358-0.147-0.466c-0.096-0.109-0.243-0.164-0.441-0.164
	c-0.161,0-0.298,0.043-0.41,0.129c-0.11,0.084-0.186,0.189-0.228,0.315c-0.049,0.129-0.113,0.214-0.193,0.256
	c-0.079,0.042-0.192,0.051-0.34,0.028l-0.574-0.102c0.037-0.254,0.108-0.476,0.214-0.665c0.107-0.189,0.239-0.346,0.396-0.472
	c0.159-0.126,0.34-0.219,0.542-0.28c0.203-0.063,0.421-0.095,0.655-0.095c0.252,0,0.478,0.038,0.679,0.112
	c0.203,0.073,0.376,0.174,0.518,0.305s0.251,0.287,0.326,0.469c0.077,0.18,0.116,0.378,0.116,0.595c0,0.187-0.027,0.359-0.08,0.518
	c-0.051,0.159-0.123,0.31-0.214,0.455c-0.091,0.142-0.197,0.281-0.319,0.416c-0.119,0.133-0.246,0.269-0.382,0.406l-0.997,1.022
	c0.128-0.039,0.256-0.07,0.382-0.091c0.126-0.021,0.243-0.031,0.35-0.031H83.897z M94.176,152.316v0.784h-2.905v-0.784h0.98v-2.573
	c0-0.065,0.001-0.13,0.004-0.196c0.002-0.067,0.006-0.135,0.01-0.203l-0.581,0.483c-0.051,0.04-0.103,0.065-0.154,0.074
	c-0.049,0.007-0.096,0.007-0.14,0c-0.044-0.009-0.084-0.025-0.119-0.046c-0.035-0.023-0.061-0.046-0.077-0.07l-0.343-0.455
	l1.589-1.333h0.896v4.319H94.176z"/>
<path d="M78.761,150.6l-2.813,2.143v-4.286L78.761,150.6z"/>
<path d="M89.074,150.6l-2.813,2.143v-4.286L89.074,150.6z"/>
<path class="st7" d="M105.881,152.12c0.117,0,0.209,0.033,0.277,0.098c0.067,0.063,0.101,0.147,0.101,0.252v0.63h-3.584v-0.35
	c0-0.068,0.014-0.14,0.042-0.217s0.077-0.147,0.147-0.21l1.47-1.481c0.126-0.126,0.236-0.246,0.329-0.36
	c0.094-0.114,0.171-0.226,0.231-0.336c0.061-0.112,0.106-0.223,0.137-0.333c0.03-0.112,0.045-0.229,0.045-0.353
	c0-0.203-0.049-0.358-0.147-0.466c-0.095-0.109-0.242-0.164-0.441-0.164c-0.161,0-0.297,0.043-0.409,0.129
	c-0.11,0.084-0.186,0.189-0.228,0.315c-0.049,0.129-0.113,0.214-0.192,0.256c-0.08,0.042-0.193,0.051-0.34,0.028l-0.574-0.102
	c0.038-0.254,0.109-0.476,0.214-0.665c0.107-0.189,0.239-0.346,0.395-0.472c0.159-0.126,0.34-0.219,0.543-0.28
	c0.203-0.063,0.421-0.095,0.654-0.095c0.252,0,0.479,0.038,0.679,0.112c0.203,0.073,0.376,0.174,0.518,0.305
	c0.143,0.131,0.251,0.287,0.326,0.469c0.077,0.18,0.115,0.378,0.115,0.595c0,0.187-0.027,0.359-0.08,0.518
	c-0.052,0.159-0.123,0.31-0.214,0.455c-0.091,0.142-0.197,0.281-0.318,0.416c-0.119,0.133-0.246,0.269-0.382,0.406l-0.997,1.022
	c0.128-0.039,0.255-0.07,0.381-0.091s0.243-0.031,0.35-0.031H105.881z M116.16,152.316v0.784h-2.905v-0.784h0.98v-2.573
	c0-0.065,0.001-0.13,0.003-0.196c0.003-0.067,0.006-0.135,0.011-0.203l-0.581,0.483c-0.052,0.04-0.103,0.065-0.154,0.074
	c-0.049,0.007-0.096,0.007-0.14,0c-0.045-0.009-0.084-0.025-0.119-0.046c-0.035-0.023-0.061-0.046-0.077-0.07l-0.343-0.455
	l1.589-1.333h0.896v4.319H116.16z M122.805,149.456c0.038-0.254,0.109-0.476,0.214-0.665c0.107-0.189,0.239-0.346,0.395-0.472
	c0.159-0.126,0.34-0.219,0.543-0.28c0.203-0.063,0.421-0.095,0.654-0.095c0.252,0,0.476,0.037,0.672,0.109
	c0.196,0.07,0.362,0.166,0.497,0.287c0.136,0.121,0.238,0.262,0.308,0.423c0.07,0.159,0.105,0.327,0.105,0.504
	c0,0.161-0.016,0.304-0.049,0.427c-0.032,0.122-0.081,0.228-0.147,0.319c-0.063,0.089-0.142,0.164-0.238,0.227
	c-0.093,0.061-0.2,0.112-0.322,0.154c0.565,0.199,0.847,0.584,0.847,1.155c0,0.271-0.049,0.507-0.147,0.707
	c-0.098,0.201-0.23,0.368-0.395,0.501c-0.164,0.133-0.354,0.233-0.571,0.301c-0.217,0.065-0.443,0.098-0.679,0.098
	c-0.242,0-0.458-0.026-0.647-0.077c-0.189-0.054-0.357-0.135-0.504-0.245c-0.147-0.112-0.277-0.254-0.389-0.427
	c-0.109-0.173-0.205-0.378-0.287-0.616l0.483-0.196c0.126-0.049,0.243-0.062,0.35-0.039c0.108,0.024,0.185,0.077,0.231,0.161
	c0.105,0.194,0.216,0.335,0.333,0.424c0.119,0.086,0.258,0.129,0.416,0.129c0.122,0,0.227-0.019,0.315-0.059
	c0.091-0.042,0.166-0.095,0.224-0.158c0.061-0.065,0.106-0.138,0.137-0.22c0.03-0.082,0.045-0.165,0.045-0.249
	c0-0.109-0.008-0.207-0.024-0.294c-0.014-0.088-0.056-0.164-0.126-0.227s-0.176-0.111-0.319-0.144
	c-0.14-0.035-0.336-0.052-0.588-0.052v-0.749c0.213,0,0.384-0.016,0.515-0.049c0.13-0.033,0.231-0.077,0.301-0.133
	c0.072-0.058,0.12-0.128,0.143-0.21c0.024-0.082,0.035-0.172,0.035-0.27c0-0.2-0.049-0.354-0.147-0.462
	c-0.095-0.109-0.242-0.164-0.441-0.164c-0.161,0-0.297,0.043-0.409,0.129c-0.11,0.084-0.186,0.189-0.228,0.315
	c-0.049,0.129-0.113,0.214-0.192,0.256c-0.08,0.042-0.193,0.051-0.34,0.028L122.805,149.456z"/>
<path class="st7" d="M110.761,150.6l-2.812,2.143v-4.286L110.761,150.6z"/>
<path class="st7" d="M118.261,150.6l2.813-2.143v4.286L118.261,150.6z"/>
<path d="M3.5,146.6h126v-1H3.5V146.6z M131,148.1v5h1v-5H131z M129.5,154.6H3.5v1h126V154.6z M2,153.1v-5H1v5H2z M3.5,154.6
	c-0.828,0-1.5-0.672-1.5-1.5H1c0,1.381,1.119,2.5,2.5,2.5V154.6z M131,153.1c0,0.828-0.672,1.5-1.5,1.5v1c1.381,0,2.5-1.119,2.5-2.5
	H131z M129.5,146.6c0.828,0,1.5,0.672,1.5,1.5h1c0-1.381-1.119-2.5-2.5-2.5V146.6z M3.5,145.6c-1.381,0-2.5,1.119-2.5,2.5h1
	c0-0.828,0.672-1.5,1.5-1.5V145.6z"/>
<path class="st0" d="M1,55.6v3h120v8h7v2l4-2.5l-4-2.5v2h-5v-10H1z"/>
<path class="st1" d="M15.5,78.1h6c1.105,0,2,0.895,2,2v6c0,1.105-0.895,2-2,2h-6c-1.105,0-2-0.895-2-2v-6
	C13.5,78.995,14.395,78.1,15.5,78.1z"/>
<path class="st1" d="M47.5,78.1h6c1.105,0,2,0.895,2,2v6c0,1.105-0.895,2-2,2h-6c-1.105,0-2-0.895-2-2v-6
	C45.5,78.995,46.395,78.1,47.5,78.1z"/>
<path class="st1" d="M79.5,78.1h6c1.105,0,2,0.895,2,2v6c0,1.105-0.895,2-2,2h-6c-1.105,0-2-0.895-2-2v-6
	C77.5,78.995,78.395,78.1,79.5,78.1z"/>
<path class="st2" d="M117,78.1h-6c-1.105,0-2,0.895-2,2v6c0,1.105,0.895,2,2,2h6c1.105,0,2-0.895,2-2v-6
	C119,78.995,118.105,78.1,117,78.1z"/>
<path class="st3" d="M20.092,84.953V85.6h-2.8v-0.647h1.025v-2.951c0-0.117,0.003-0.237,0.01-0.361L17.6,82.25
	c-0.042,0.033-0.084,0.054-0.126,0.063c-0.04,0.007-0.078,0.007-0.115,0c-0.035-0.007-0.066-0.019-0.094-0.035
	c-0.028-0.019-0.049-0.038-0.063-0.059l-0.273-0.375l1.544-1.313h0.71v4.421L20.092,84.953L20.092,84.953z"/>
<path class="st3" d="M51.903,84.795c0.093,0,0.167,0.027,0.221,0.08c0.056,0.051,0.084,0.12,0.084,0.207V85.6h-3.472v-0.287
	c0-0.058,0.012-0.119,0.035-0.182c0.026-0.065,0.065-0.124,0.119-0.175l1.536-1.54c0.128-0.131,0.243-0.256,0.343-0.375
	c0.103-0.119,0.188-0.237,0.256-0.354s0.119-0.234,0.154-0.354c0.037-0.121,0.056-0.248,0.056-0.382
	c0-0.121-0.017-0.227-0.052-0.318c-0.035-0.093-0.085-0.172-0.151-0.234c-0.063-0.063-0.14-0.11-0.231-0.14
	c-0.089-0.033-0.189-0.049-0.301-0.049c-0.103,0-0.198,0.015-0.287,0.046c-0.086,0.028-0.163,0.069-0.231,0.122
	c-0.068,0.051-0.125,0.112-0.172,0.182s-0.082,0.147-0.105,0.231c-0.04,0.107-0.091,0.178-0.154,0.214
	c-0.063,0.035-0.154,0.043-0.273,0.024l-0.455-0.08c0.035-0.243,0.103-0.455,0.203-0.637c0.1-0.184,0.225-0.337,0.375-0.459
	c0.152-0.124,0.324-0.216,0.518-0.276c0.196-0.063,0.406-0.094,0.63-0.094c0.233,0,0.447,0.035,0.641,0.105
	c0.194,0.068,0.359,0.164,0.497,0.291c0.138,0.126,0.245,0.278,0.322,0.455s0.115,0.375,0.115,0.591
	c0,0.187-0.028,0.359-0.084,0.518c-0.054,0.159-0.127,0.31-0.221,0.455c-0.091,0.145-0.198,0.285-0.322,0.42
	c-0.124,0.135-0.253,0.273-0.389,0.413l-1.141,1.166c0.11-0.033,0.218-0.057,0.326-0.074c0.11-0.019,0.213-0.028,0.311-0.028H51.903
	z"/>
<path class="st3" d="M80.848,81.95c0.035-0.243,0.103-0.455,0.203-0.637c0.1-0.184,0.225-0.337,0.375-0.459
	c0.152-0.124,0.324-0.216,0.518-0.276c0.196-0.063,0.406-0.094,0.63-0.094c0.233,0,0.443,0.034,0.63,0.101
	c0.189,0.065,0.35,0.158,0.483,0.277c0.133,0.117,0.234,0.254,0.304,0.413c0.072,0.159,0.108,0.33,0.108,0.514
	c0,0.161-0.019,0.303-0.056,0.427c-0.035,0.121-0.086,0.228-0.154,0.318c-0.068,0.091-0.152,0.168-0.252,0.231
	s-0.214,0.116-0.34,0.158c0.303,0.096,0.53,0.242,0.679,0.438c0.149,0.196,0.224,0.442,0.224,0.738c0,0.252-0.047,0.475-0.14,0.669
	s-0.219,0.357-0.378,0.49c-0.159,0.131-0.343,0.23-0.553,0.298c-0.208,0.068-0.428,0.102-0.661,0.102
	c-0.254,0-0.476-0.029-0.665-0.088c-0.189-0.058-0.354-0.145-0.493-0.259c-0.14-0.114-0.259-0.254-0.357-0.42
	s-0.182-0.357-0.252-0.574l0.382-0.158c0.1-0.042,0.194-0.052,0.28-0.032c0.089,0.019,0.153,0.065,0.193,0.14
	c0.042,0.082,0.087,0.162,0.136,0.242c0.051,0.079,0.112,0.151,0.182,0.214c0.07,0.061,0.152,0.111,0.245,0.151
	c0.096,0.037,0.209,0.056,0.34,0.056c0.147,0,0.275-0.023,0.385-0.07c0.11-0.049,0.201-0.112,0.273-0.189
	c0.075-0.077,0.13-0.162,0.164-0.256c0.037-0.096,0.056-0.191,0.056-0.287c0-0.121-0.013-0.231-0.038-0.329
	c-0.026-0.1-0.079-0.186-0.161-0.256s-0.2-0.125-0.354-0.165c-0.152-0.04-0.356-0.059-0.613-0.059v-0.616
	c0.212-0.002,0.388-0.022,0.529-0.059c0.14-0.037,0.251-0.089,0.332-0.154c0.084-0.068,0.142-0.148,0.175-0.241
	c0.033-0.093,0.049-0.196,0.049-0.308c0-0.238-0.066-0.419-0.2-0.542c-0.133-0.124-0.31-0.186-0.532-0.186
	c-0.103,0-0.197,0.015-0.284,0.046c-0.086,0.028-0.164,0.069-0.234,0.122c-0.068,0.051-0.125,0.112-0.172,0.182
	s-0.082,0.147-0.105,0.231c-0.04,0.107-0.092,0.178-0.158,0.214c-0.063,0.035-0.153,0.043-0.27,0.024L80.848,81.95z"/>
<path class="st3" d="M116.133,80.539V85.6h-0.483c-0.074,0-0.137-0.012-0.189-0.035c-0.049-0.026-0.097-0.068-0.143-0.126
	l-2.643-3.374c0.014,0.154,0.021,0.296,0.021,0.427V85.6h-0.829v-5.061h0.493c0.04,0,0.074,0.002,0.102,0.007
	c0.03,0.002,0.056,0.009,0.077,0.021c0.023,0.009,0.045,0.024,0.066,0.045c0.021,0.019,0.045,0.044,0.07,0.077l2.653,3.388
	c-0.007-0.082-0.013-0.162-0.017-0.242c-0.005-0.079-0.007-0.153-0.007-0.22v-3.076L116.133,80.539L116.133,80.539z"/>
<g class="st4">
	<path class="st1" d="M34.5,76.1c2.761,0,5-2.239,5-5s-2.239-5-5-5s-5,2.239-5,5S31.739,76.1,34.5,76.1z"/>
	<path class="st5" d="M36.444,68.095l1.061,1.061l-1.946,1.946l1.945,1.942l-1.06,1.062l-1.946-1.943l-1.943,1.943l-1.061-1.061
		l1.942-1.942l-1.945-1.942l1.06-1.061l1.946,1.943L36.444,68.095z"/>
</g>
<g class="st4">
	<path class="st1" d="M66.5,76.1c2.761,0,5-2.239,5-5s-2.239-5-5-5s-5,2.239-5,5S63.739,76.1,66.5,76.1z"/>
	<path class="st5" d="M68.445,68.095l1.061,1.061l-1.946,1.946l1.945,1.942l-1.06,1.062l-1.946-1.943l-1.943,1.943l-1.061-1.061
		l1.942-1.942l-1.945-1.942l1.06-1.061l1.946,1.943L68.445,68.095z"/>
</g>
<path class="st0" d="M82,63.6h-2l2.5-4l2.5,4h-2H82z"/>
<path class="st0" d="M82,77.6V63.1h1v14.5H82z"/>
<g class="st4">
	<path class="st0" d="M113.5,63.6h-2l2.5-4l2.5,4h-2H113.5z"/>
	<path class="st0" d="M113.5,77.6V63.1h1v14.5H113.5z"/>
</g>
<path class="st0" d="M50,63.6h-2l2.5-4l2.5,4h-2H50z"/>
<path class="st0" d="M50,77.6V63.1h1v14.5H50z"/>
<path class="st0" d="M18,63.6h-2l2.5-4l2.5,4h-2H18z"/>
<path class="st0" d="M18,77.6V63.1h1v14.5H18z"/>
<g class="st4">
	<path class="st0" d="M34,63.6h-2l2.5-4l2.5,4h-2H34z"/>
	<path class="st0" d="M34,65.6v-2.5h1v2.5H34z"/>
</g>
<g class="st4">
	<path class="st0" d="M66,63.6h-2l2.5-4l2.5,4h-2H66z"/>
	<path class="st0" d="M66,65.6v-2.5h1v2.5H66z"/>
</g>
<g class="st4">
	<path class="st0" d="M45,71.6v2l-4-2.5l4-2.5v2V71.6z"/>
	<path class="st0" d="M50,71.6h-5.5v-1H50V71.6z"/>
</g>
<g class="st4">
	<path class="st0" d="M77,71.6v2l-4-2.5l4-2.5v2V71.6z"/>
	<path class="st0" d="M82,71.6h-5.5v-1H82V71.6z"/>
</g>
<path class="st0" d="M29,83.6v2l-4-2.5l4-2.5v2V83.6z"/>
<path class="st0" d="M45,83.6H28.5v-1H45V83.6z"/>
<g class="st4">
	<path class="st0" d="M24,70.6v-2l4,2.5l-4,2.5v-2V70.6z"/>
	<path class="st0" d="M19,70.6h5.5v1H19V70.6z"/>
</g>
<g class="st4">
	<path class="st0" d="M56,70.6v-2l4,2.5l-4,2.5v-2V70.6z"/>
	<path class="st0" d="M51,70.6h5.5v1H51V70.6z"/>
</g>
<path class="st6" d="M1.5,96.1c0-1.105,0.895-2,2-2h126c1.105,0,2,0.895,2,2v5c0,1.105-0.895,2-2,2H3.5c-1.105,0-2-0.895-2-2V96.1z"
	/>
<path class="st7" d="M11.932,96v5.1h-0.616c-0.091,0-0.168-0.014-0.231-0.042c-0.061-0.03-0.121-0.082-0.182-0.154l-2.405-3.042
	c0.009,0.091,0.015,0.18,0.017,0.266c0.005,0.084,0.007,0.163,0.007,0.238v2.733H7.48v-5.1h0.623c0.051,0,0.094,0.002,0.13,0.007
	c0.035,0.005,0.066,0.014,0.094,0.028c0.028,0.012,0.055,0.029,0.08,0.052c0.026,0.023,0.055,0.055,0.088,0.094l2.426,3.063
	c-0.012-0.098-0.02-0.192-0.024-0.283c-0.005-0.093-0.007-0.181-0.007-0.263V96H11.932z M17.821,98.549
	c0,0.369-0.064,0.712-0.193,1.029c-0.126,0.317-0.304,0.593-0.535,0.829c-0.231,0.233-0.51,0.416-0.837,0.549
	c-0.324,0.134-0.685,0.2-1.082,0.2c-0.397,0-0.758-0.066-1.085-0.2c-0.327-0.133-0.607-0.316-0.84-0.549
	c-0.231-0.236-0.411-0.512-0.539-0.829c-0.126-0.317-0.189-0.66-0.189-1.029s0.063-0.712,0.189-1.029
	c0.128-0.317,0.308-0.593,0.539-0.826c0.233-0.233,0.513-0.416,0.84-0.549s0.688-0.2,1.085-0.2s0.757,0.068,1.082,0.203
	c0.327,0.133,0.606,0.316,0.837,0.549c0.231,0.233,0.41,0.509,0.535,0.826C17.757,97.84,17.821,98.182,17.821,98.549z M16.61,98.549
	c0-0.252-0.033-0.478-0.098-0.679c-0.065-0.203-0.16-0.375-0.284-0.515c-0.121-0.14-0.271-0.247-0.448-0.322
	s-0.379-0.112-0.606-0.112c-0.229,0-0.433,0.037-0.612,0.112c-0.177,0.075-0.328,0.182-0.451,0.322
	c-0.121,0.14-0.215,0.312-0.28,0.515c-0.065,0.201-0.098,0.427-0.098,0.679c0,0.254,0.033,0.483,0.098,0.686
	c0.065,0.201,0.159,0.37,0.28,0.51c0.124,0.14,0.274,0.248,0.451,0.322c0.18,0.073,0.384,0.109,0.612,0.109
	c0.226,0,0.428-0.036,0.606-0.109c0.177-0.074,0.327-0.182,0.448-0.322c0.124-0.14,0.218-0.31,0.284-0.51
	C16.578,99.032,16.61,98.803,16.61,98.549z M21.118,96.911v1.291h1.743v0.914h-1.743v1.984h-1.19V96h3.283v0.91L21.118,96.911
	L21.118,96.911z M29.52,96v5.1h-1.043v-2.933c0-0.068,0.001-0.141,0.003-0.221c0.005-0.079,0.012-0.16,0.021-0.241l-1.354,2.621
	c-0.042,0.082-0.099,0.144-0.171,0.186c-0.07,0.042-0.151,0.063-0.242,0.063h-0.161c-0.091,0-0.173-0.021-0.245-0.063
	c-0.07-0.042-0.126-0.104-0.168-0.186l-1.354-2.628c0.007,0.084,0.013,0.167,0.017,0.248c0.005,0.079,0.007,0.153,0.007,0.221v2.933
	h-1.043V96h0.903c0.051,0,0.096,0.001,0.133,0.004c0.04,0.002,0.075,0.009,0.105,0.021c0.03,0.012,0.057,0.03,0.08,0.056
	c0.026,0.023,0.05,0.057,0.073,0.101l1.313,2.587c0.047,0.089,0.091,0.181,0.133,0.277c0.044,0.096,0.086,0.194,0.126,0.294
	c0.04-0.103,0.08-0.203,0.122-0.301c0.044-0.098,0.091-0.191,0.14-0.28l1.309-2.576c0.023-0.044,0.047-0.078,0.07-0.101
	c0.026-0.026,0.054-0.044,0.084-0.056c0.03-0.012,0.064-0.019,0.101-0.021c0.04-0.002,0.085-0.004,0.136-0.004h0.905V96z"/>
<path class="st0" d="M36.512,95.6h28c0.552,0,1,0.448,1,1v4c0,0.552-0.448,1-1,1h-28c-0.552,0-1-0.448-1-1v-4
	C35.512,96.048,35.959,95.6,36.512,95.6z"/>
<path class="st1" d="M36.512,95.6h28c0.552,0,1,0.448,1,1v4c0,0.552-0.448,1-1,1h-28c-0.552,0-1-0.448-1-1v-4
	C35.512,96.048,35.959,95.6,36.512,95.6z"/>
<path d="M47.647,100.12c0.117,0,0.209,0.033,0.277,0.098c0.068,0.063,0.101,0.147,0.101,0.252v0.63h-3.584v-0.35
	c0-0.068,0.014-0.14,0.042-0.217s0.077-0.147,0.147-0.21l1.47-1.48c0.126-0.126,0.236-0.246,0.329-0.36s0.17-0.226,0.231-0.336
	c0.061-0.112,0.106-0.223,0.136-0.332c0.03-0.112,0.046-0.23,0.046-0.354c0-0.203-0.049-0.358-0.147-0.465
	c-0.096-0.11-0.243-0.164-0.441-0.164c-0.161,0-0.298,0.043-0.41,0.129c-0.11,0.084-0.186,0.189-0.228,0.315
	c-0.049,0.128-0.113,0.214-0.192,0.256c-0.079,0.042-0.193,0.051-0.34,0.028l-0.574-0.102c0.037-0.254,0.109-0.476,0.214-0.665
	c0.107-0.189,0.239-0.346,0.396-0.472c0.159-0.126,0.34-0.219,0.542-0.28c0.203-0.063,0.421-0.095,0.654-0.095
	c0.252,0,0.478,0.037,0.679,0.112c0.203,0.072,0.376,0.174,0.518,0.305c0.142,0.131,0.251,0.287,0.325,0.469
	c0.077,0.18,0.116,0.378,0.116,0.595c0,0.187-0.027,0.359-0.081,0.518c-0.051,0.159-0.122,0.31-0.213,0.455
	c-0.091,0.142-0.197,0.281-0.319,0.417c-0.119,0.133-0.246,0.268-0.382,0.406l-0.998,1.021c0.128-0.039,0.256-0.07,0.382-0.091
	s0.243-0.031,0.35-0.031h0.954V100.12z M56.41,100.316v0.784h-2.905v-0.784h0.98v-2.573c0-0.065,0.001-0.131,0.004-0.196
	c0.002-0.068,0.006-0.135,0.01-0.203l-0.581,0.483c-0.051,0.04-0.103,0.064-0.154,0.074c-0.049,0.007-0.096,0.007-0.14,0
	c-0.044-0.009-0.084-0.025-0.119-0.046c-0.035-0.023-0.061-0.047-0.077-0.07l-0.343-0.455l1.589-1.333h0.896v4.319H56.41z"/>
<path d="M52.387,98.6l-2.813,2.143v-4.286L52.387,98.6z"/>
<path class="st7" d="M70.773,97.456c0.037-0.254,0.108-0.476,0.214-0.665c0.107-0.189,0.239-0.346,0.396-0.472
	c0.159-0.126,0.34-0.219,0.542-0.28c0.203-0.063,0.421-0.095,0.655-0.095c0.252,0,0.476,0.036,0.672,0.109
	c0.196,0.07,0.362,0.166,0.497,0.287s0.238,0.263,0.308,0.424c0.07,0.159,0.105,0.327,0.105,0.504c0,0.161-0.016,0.303-0.049,0.427
	c-0.033,0.121-0.082,0.228-0.147,0.319c-0.063,0.089-0.142,0.164-0.238,0.228c-0.093,0.061-0.201,0.112-0.322,0.154
	c0.565,0.198,0.847,0.583,0.847,1.155c0,0.271-0.049,0.507-0.147,0.706c-0.098,0.201-0.23,0.368-0.396,0.501
	c-0.163,0.133-0.354,0.233-0.571,0.301c-0.217,0.065-0.443,0.098-0.679,0.098c-0.243,0-0.458-0.026-0.647-0.077
	c-0.189-0.054-0.357-0.135-0.504-0.245c-0.147-0.112-0.276-0.254-0.389-0.427c-0.11-0.173-0.205-0.378-0.287-0.616l0.483-0.196
	c0.126-0.049,0.243-0.062,0.35-0.039s0.184,0.076,0.231,0.16c0.105,0.194,0.216,0.335,0.333,0.424
	c0.119,0.086,0.258,0.129,0.416,0.129c0.121,0,0.226-0.019,0.315-0.059c0.091-0.042,0.166-0.095,0.224-0.158
	c0.061-0.065,0.106-0.138,0.136-0.22s0.046-0.165,0.046-0.249c0-0.11-0.008-0.208-0.024-0.294c-0.014-0.089-0.056-0.164-0.126-0.228
	c-0.07-0.063-0.176-0.111-0.319-0.143c-0.14-0.035-0.336-0.053-0.588-0.053v-0.749c0.212,0,0.384-0.016,0.515-0.049
	s0.231-0.077,0.301-0.133c0.072-0.058,0.12-0.128,0.144-0.21s0.035-0.172,0.035-0.27c0-0.201-0.049-0.355-0.147-0.462
	c-0.096-0.11-0.243-0.164-0.441-0.164c-0.161,0-0.298,0.043-0.41,0.129c-0.11,0.084-0.185,0.189-0.227,0.315
	c-0.049,0.128-0.113,0.214-0.193,0.256s-0.192,0.051-0.34,0.028L70.773,97.456z M83.897,100.12c0.117,0,0.209,0.033,0.276,0.098
	c0.068,0.063,0.102,0.147,0.102,0.252v0.63h-3.584v-0.35c0-0.068,0.014-0.14,0.042-0.217s0.077-0.147,0.147-0.21l1.47-1.48
	c0.126-0.126,0.236-0.246,0.329-0.36s0.17-0.226,0.231-0.336c0.061-0.112,0.106-0.223,0.136-0.332
	c0.03-0.112,0.046-0.23,0.046-0.354c0-0.203-0.049-0.358-0.147-0.465c-0.096-0.11-0.243-0.164-0.441-0.164
	c-0.161,0-0.298,0.043-0.41,0.129c-0.11,0.084-0.186,0.189-0.228,0.315c-0.049,0.128-0.113,0.214-0.193,0.256
	s-0.192,0.051-0.34,0.028l-0.574-0.102c0.037-0.254,0.108-0.476,0.214-0.665c0.107-0.189,0.239-0.346,0.396-0.472
	c0.159-0.126,0.34-0.219,0.542-0.28c0.203-0.063,0.421-0.095,0.655-0.095c0.252,0,0.478,0.037,0.679,0.112
	c0.203,0.072,0.376,0.174,0.518,0.305s0.251,0.287,0.326,0.469c0.077,0.18,0.116,0.378,0.116,0.595c0,0.187-0.027,0.359-0.08,0.518
	c-0.051,0.159-0.123,0.31-0.214,0.455c-0.091,0.142-0.197,0.281-0.319,0.417c-0.119,0.133-0.246,0.268-0.382,0.406l-0.997,1.021
	c0.128-0.039,0.256-0.07,0.382-0.091c0.126-0.021,0.243-0.031,0.35-0.031h0.952V100.12z M94.176,100.316v0.784h-2.905v-0.784h0.98
	v-2.573c0-0.065,0.001-0.131,0.004-0.196c0.002-0.068,0.006-0.135,0.01-0.203l-0.581,0.483c-0.051,0.04-0.103,0.064-0.154,0.074
	c-0.049,0.007-0.096,0.007-0.14,0c-0.044-0.009-0.084-0.025-0.119-0.046c-0.035-0.023-0.061-0.047-0.077-0.07l-0.343-0.455
	l1.589-1.333h0.896v4.319H94.176z"/>
<path class="st7" d="M78.761,98.6l-2.813,2.143v-4.286L78.761,98.6z"/>
<path class="st7" d="M89.074,98.6l-2.813,2.143v-4.286L89.074,98.6z"/>
<path class="st7" d="M105.881,100.12c0.117,0,0.209,0.033,0.277,0.098c0.067,0.063,0.101,0.147,0.101,0.252v0.63h-3.584v-0.35
	c0-0.068,0.014-0.14,0.042-0.217s0.077-0.147,0.147-0.21l1.47-1.48c0.126-0.126,0.236-0.246,0.329-0.36
	c0.094-0.114,0.171-0.226,0.231-0.336c0.061-0.112,0.106-0.223,0.137-0.332c0.03-0.112,0.045-0.23,0.045-0.354
	c0-0.203-0.049-0.358-0.147-0.465c-0.095-0.11-0.242-0.164-0.441-0.164c-0.161,0-0.297,0.043-0.409,0.129
	c-0.11,0.084-0.186,0.189-0.228,0.315c-0.049,0.128-0.113,0.214-0.192,0.256c-0.08,0.042-0.193,0.051-0.34,0.028l-0.574-0.102
	c0.038-0.254,0.109-0.476,0.214-0.665c0.107-0.189,0.239-0.346,0.395-0.472c0.159-0.126,0.34-0.219,0.543-0.28
	c0.203-0.063,0.421-0.095,0.654-0.095c0.252,0,0.479,0.037,0.679,0.112c0.203,0.072,0.376,0.174,0.518,0.305
	c0.143,0.131,0.251,0.287,0.326,0.469c0.077,0.18,0.115,0.378,0.115,0.595c0,0.187-0.027,0.359-0.08,0.518
	c-0.052,0.159-0.123,0.31-0.214,0.455c-0.091,0.142-0.197,0.281-0.318,0.417c-0.119,0.133-0.246,0.268-0.382,0.406l-0.997,1.021
	c0.128-0.039,0.255-0.07,0.381-0.091s0.243-0.031,0.35-0.031h0.952V100.12z M116.16,100.316v0.784h-2.905v-0.784h0.98v-2.573
	c0-0.065,0.001-0.131,0.003-0.196c0.003-0.068,0.006-0.135,0.011-0.203l-0.581,0.483c-0.052,0.04-0.103,0.064-0.154,0.074
	c-0.049,0.007-0.096,0.007-0.14,0c-0.045-0.009-0.084-0.025-0.119-0.046c-0.035-0.023-0.061-0.047-0.077-0.07l-0.343-0.455
	l1.589-1.333h0.896v4.319H116.16z M122.805,97.456c0.038-0.254,0.109-0.476,0.214-0.665c0.107-0.189,0.239-0.346,0.395-0.472
	c0.159-0.126,0.34-0.219,0.543-0.28c0.203-0.063,0.421-0.095,0.654-0.095c0.252,0,0.476,0.036,0.672,0.109
	c0.196,0.07,0.362,0.166,0.497,0.287c0.136,0.121,0.238,0.263,0.308,0.424c0.07,0.159,0.105,0.327,0.105,0.504
	c0,0.161-0.016,0.303-0.049,0.427c-0.032,0.121-0.081,0.228-0.147,0.319c-0.063,0.089-0.142,0.164-0.238,0.228
	c-0.093,0.061-0.2,0.112-0.322,0.154c0.565,0.198,0.847,0.583,0.847,1.155c0,0.271-0.049,0.507-0.147,0.706
	c-0.098,0.201-0.23,0.368-0.395,0.501c-0.164,0.133-0.354,0.233-0.571,0.301c-0.217,0.065-0.443,0.098-0.679,0.098
	c-0.242,0-0.458-0.026-0.647-0.077c-0.189-0.054-0.357-0.135-0.504-0.245c-0.147-0.112-0.277-0.254-0.389-0.427
	c-0.109-0.173-0.205-0.378-0.287-0.616l0.483-0.196c0.126-0.049,0.243-0.062,0.35-0.039c0.108,0.023,0.185,0.076,0.231,0.16
	c0.105,0.194,0.216,0.335,0.333,0.424c0.119,0.086,0.258,0.129,0.416,0.129c0.122,0,0.227-0.019,0.315-0.059
	c0.091-0.042,0.166-0.095,0.224-0.158c0.061-0.065,0.106-0.138,0.137-0.22c0.03-0.082,0.045-0.165,0.045-0.249
	c0-0.11-0.008-0.208-0.024-0.294c-0.014-0.089-0.056-0.164-0.126-0.228c-0.07-0.063-0.176-0.111-0.319-0.143
	c-0.14-0.035-0.336-0.053-0.588-0.053v-0.749c0.213,0,0.384-0.016,0.515-0.049c0.13-0.033,0.231-0.077,0.301-0.133
	c0.072-0.058,0.12-0.128,0.143-0.21c0.024-0.082,0.035-0.172,0.035-0.27c0-0.201-0.049-0.355-0.147-0.462
	c-0.095-0.11-0.242-0.164-0.441-0.164c-0.161,0-0.297,0.043-0.409,0.129c-0.11,0.084-0.186,0.189-0.228,0.315
	c-0.049,0.128-0.113,0.214-0.192,0.256c-0.08,0.042-0.193,0.051-0.34,0.028L122.805,97.456z"/>
<path class="st7" d="M110.761,98.6l-2.812,2.143v-4.286L110.761,98.6z"/>
<path class="st7" d="M118.261,98.6l2.813-2.143v4.286L118.261,98.6z"/>
<path d="M3.5,94.6h126v-1H3.5V94.6z M131,96.1v5h1v-5H131z M129.5,102.6H3.5v1h126V102.6z M2,101.1v-5H1v5H2z M3.5,102.6
	c-0.828,0-1.5-0.672-1.5-1.5H1c0,1.381,1.119,2.5,2.5,2.5V102.6z M131,101.1c0,0.828-0.672,1.5-1.5,1.5v1c1.381,0,2.5-1.119,2.5-2.5
	H131z M129.5,94.6c0.828,0,1.5,0.672,1.5,1.5h1c0-1.381-1.119-2.5-2.5-2.5V94.6z M3.5,93.6c-1.381,0-2.5,1.119-2.5,2.5h1
	c0-0.828,0.672-1.5,1.5-1.5V93.6z"/>
<path class="st0" d="M1,3.6v3h120v8h7v2l4-2.5l-4-2.5v2h-5v-10H1z"/>
<path class="st1" d="M15.5,26.1h6c1.105,0,2,0.895,2,2v6c0,1.105-0.895,2-2,2h-6c-1.105,0-2-0.895-2-2v-6
	C13.5,26.995,14.395,26.1,15.5,26.1z"/>
<path class="st1" d="M47.5,26.1h6c1.105,0,2,0.895,2,2v6c0,1.105-0.895,2-2,2h-6c-1.105,0-2-0.895-2-2v-6
	C45.5,26.995,46.395,26.1,47.5,26.1z"/>
<path class="st1" d="M79.5,26.1h6c1.105,0,2,0.895,2,2v6c0,1.105-0.895,2-2,2h-6c-1.105,0-2-0.895-2-2v-6
	C77.5,26.995,78.395,26.1,79.5,26.1z"/>
<path class="st2" d="M117,26.1h-6c-1.105,0-2,0.895-2,2v6c0,1.105,0.895,2,2,2h6c1.105,0,2-0.895,2-2v-6
	C119,26.995,118.105,26.1,117,26.1z"/>
<path class="st3" d="M20.092,32.953V33.6h-2.8v-0.647h1.025v-2.951c0-0.117,0.003-0.237,0.01-0.361L17.6,30.25
	c-0.042,0.033-0.084,0.054-0.126,0.063c-0.04,0.007-0.078,0.007-0.115,0c-0.035-0.007-0.066-0.019-0.094-0.035
	c-0.028-0.019-0.049-0.038-0.063-0.059l-0.273-0.375l1.544-1.313h0.71v4.421L20.092,32.953L20.092,32.953z"/>
<path class="st3" d="M51.903,32.795c0.093,0,0.167,0.027,0.221,0.081c0.056,0.051,0.084,0.12,0.084,0.206V33.6h-3.472v-0.287
	c0-0.058,0.012-0.119,0.035-0.182c0.026-0.065,0.065-0.124,0.119-0.175l1.536-1.54c0.128-0.131,0.243-0.256,0.343-0.375
	c0.103-0.119,0.188-0.237,0.256-0.354s0.119-0.234,0.154-0.353c0.037-0.121,0.056-0.249,0.056-0.382
	c0-0.121-0.017-0.228-0.052-0.319c-0.035-0.093-0.085-0.171-0.151-0.235c-0.063-0.063-0.14-0.11-0.231-0.14
	c-0.089-0.033-0.189-0.049-0.301-0.049c-0.103,0-0.198,0.015-0.287,0.045c-0.086,0.028-0.163,0.069-0.231,0.122
	c-0.068,0.051-0.125,0.112-0.172,0.182s-0.082,0.147-0.105,0.231c-0.04,0.107-0.091,0.179-0.154,0.214s-0.154,0.043-0.273,0.024
	l-0.455-0.08c0.035-0.243,0.103-0.455,0.203-0.637c0.1-0.184,0.225-0.337,0.375-0.458c0.152-0.124,0.324-0.216,0.518-0.276
	c0.196-0.063,0.406-0.095,0.63-0.095c0.233,0,0.447,0.035,0.641,0.105c0.194,0.068,0.359,0.164,0.497,0.29
	c0.138,0.126,0.245,0.278,0.322,0.455s0.115,0.375,0.115,0.592c0,0.187-0.028,0.359-0.084,0.518
	c-0.054,0.159-0.127,0.31-0.221,0.455c-0.091,0.145-0.198,0.285-0.322,0.42c-0.124,0.135-0.253,0.273-0.389,0.413l-1.141,1.166
	c0.11-0.033,0.218-0.057,0.326-0.074c0.11-0.019,0.213-0.028,0.311-0.028h1.299V32.795z"/>
<path class="st3" d="M80.848,29.95c0.035-0.243,0.103-0.455,0.203-0.637c0.1-0.184,0.225-0.337,0.375-0.458
	c0.152-0.124,0.324-0.216,0.518-0.276c0.196-0.063,0.406-0.095,0.63-0.095c0.233,0,0.443,0.034,0.63,0.102
	c0.189,0.065,0.35,0.157,0.483,0.276c0.133,0.117,0.234,0.254,0.304,0.413c0.072,0.159,0.108,0.33,0.108,0.514
	c0,0.161-0.019,0.303-0.056,0.427c-0.035,0.121-0.086,0.228-0.154,0.319s-0.152,0.168-0.252,0.231
	c-0.1,0.063-0.214,0.115-0.34,0.157c0.303,0.096,0.53,0.241,0.679,0.438c0.149,0.196,0.224,0.442,0.224,0.739
	c0,0.252-0.047,0.475-0.14,0.668c-0.093,0.194-0.219,0.357-0.378,0.49c-0.159,0.131-0.343,0.23-0.553,0.297
	c-0.208,0.068-0.428,0.102-0.661,0.102c-0.254,0-0.476-0.029-0.665-0.088s-0.354-0.145-0.493-0.259s-0.259-0.254-0.357-0.42
	c-0.098-0.166-0.182-0.357-0.252-0.574l0.382-0.158c0.1-0.042,0.194-0.052,0.28-0.031c0.089,0.019,0.153,0.065,0.193,0.14
	c0.042,0.082,0.087,0.162,0.136,0.242c0.051,0.079,0.112,0.15,0.182,0.213c0.07,0.061,0.152,0.111,0.245,0.151
	c0.096,0.037,0.209,0.056,0.34,0.056c0.147,0,0.275-0.023,0.385-0.07c0.11-0.049,0.201-0.112,0.273-0.189
	c0.075-0.077,0.13-0.162,0.164-0.256c0.037-0.096,0.056-0.191,0.056-0.287c0-0.121-0.013-0.231-0.038-0.329
	c-0.026-0.1-0.079-0.185-0.161-0.255c-0.082-0.07-0.2-0.125-0.354-0.164c-0.152-0.04-0.356-0.059-0.613-0.059v-0.616
	c0.212-0.002,0.388-0.022,0.529-0.059c0.14-0.037,0.251-0.089,0.332-0.154c0.084-0.068,0.142-0.148,0.175-0.242
	c0.033-0.093,0.049-0.196,0.049-0.308c0-0.238-0.066-0.419-0.2-0.543c-0.133-0.124-0.31-0.185-0.532-0.185
	c-0.103,0-0.197,0.015-0.284,0.045c-0.086,0.028-0.164,0.069-0.234,0.122c-0.068,0.051-0.125,0.112-0.172,0.182
	s-0.082,0.147-0.105,0.231c-0.04,0.107-0.092,0.179-0.158,0.214c-0.063,0.035-0.153,0.043-0.27,0.024L80.848,29.95z"/>
<path class="st3" d="M116.133,28.539V33.6h-0.483c-0.074,0-0.137-0.012-0.189-0.035c-0.049-0.026-0.097-0.068-0.143-0.126
	l-2.643-3.374c0.014,0.154,0.021,0.296,0.021,0.427V33.6h-0.829v-5.061h0.493c0.04,0,0.074,0.002,0.102,0.007
	c0.03,0.002,0.056,0.009,0.077,0.021c0.023,0.009,0.045,0.025,0.066,0.046c0.021,0.019,0.045,0.044,0.07,0.077l2.653,3.388
	c-0.007-0.082-0.013-0.162-0.017-0.242c-0.005-0.079-0.007-0.153-0.007-0.221v-3.076C115.304,28.539,116.133,28.539,116.133,28.539z
	"/>
<g class="st4">
	<path class="st1" d="M34.5,24.1c2.761,0,5-2.239,5-5s-2.239-5-5-5s-5,2.239-5,5S31.739,24.1,34.5,24.1z"/>
	<path class="st5" d="M36.444,16.095l1.061,1.061l-1.946,1.946l1.945,1.942l-1.06,1.062l-1.946-1.943l-1.943,1.943l-1.061-1.061
		l1.942-1.942l-1.945-1.942l1.06-1.061l1.946,1.943L36.444,16.095z"/>
</g>
<g class="st4">
	<path class="st1" d="M66.5,24.1c2.761,0,5-2.239,5-5s-2.239-5-5-5s-5,2.239-5,5S63.739,24.1,66.5,24.1z"/>
	<path class="st5" d="M68.445,16.095l1.061,1.061l-1.946,1.946l1.945,1.942l-1.06,1.062l-1.946-1.943l-1.943,1.943l-1.061-1.061
		l1.942-1.942l-1.945-1.942l1.06-1.061l1.946,1.943L68.445,16.095z"/>
</g>
<path class="st0" d="M82,11.6h-2l2.5-4l2.5,4h-2H82z"/>
<path class="st0" d="M82,25.6V11.1h1v14.5H82z"/>
<g class="st4">
	<path class="st0" d="M113.5,11.6h-2l2.5-4l2.5,4h-2H113.5z"/>
	<path class="st0" d="M113.5,25.6V11.1h1v14.5H113.5z"/>
</g>
<path class="st0" d="M50,11.6h-2l2.5-4l2.5,4h-2H50z"/>
<path class="st0" d="M50,25.6V11.1h1v14.5H50z"/>
<path class="st0" d="M18,11.6h-2l2.5-4l2.5,4h-2H18z"/>
<path class="st0" d="M18,25.6V11.1h1v14.5H18z"/>
<g class="st4">
	<path class="st0" d="M34,11.6h-2l2.5-4l2.5,4h-2H34z"/>
	<path class="st0" d="M34,13.6v-2.5h1v2.5H34z"/>
</g>
<g class="st4">
	<path class="st0" d="M66,11.6h-2l2.5-4l2.5,4h-2H66z"/>
	<path class="st0" d="M66,13.6v-2.5h1v2.5H66z"/>
</g>
<g class="st4">
	<path class="st0" d="M45,19.6v2l-4-2.5l4-2.5v2V19.6z"/>
	<path class="st0" d="M50,19.6h-5.5v-1H50V19.6z"/>
</g>
<g class="st4">
	<path class="st0" d="M77,19.6v2l-4-2.5l4-2.5v2V19.6z"/>
	<path class="st0" d="M82,19.6h-5.5v-1H82V19.6z"/>
</g>
<g class="st4">
	<path class="st0" d="M24,18.6v-2l4,2.5l-4,2.5v-2V18.6z"/>
	<path class="st0" d="M19,18.6h5.5v1H19V18.6z"/>
</g>
<g class="st4">
	<path class="st0" d="M56,18.6v-2l4,2.5l-4,2.5v-2V18.6z"/>
	<path class="st0" d="M51,18.6h5.5v1H51V18.6z"/>
</g>
<path class="st6" d="M1.5,44.1c0-1.105,0.895-2,2-2h126c1.105,0,2,0.895,2,2v5c0,1.105-0.895,2-2,2H3.5c-1.105,0-2-0.895-2-2V44.1z"
	/>
<path class="st0" d="M4.5,43.6h28c0.552,0,1,0.448,1,1v4c0,0.552-0.448,1-1,1h-28c-0.552,0-1-0.448-1-1v-4
	C3.5,44.048,3.948,43.6,4.5,43.6z"/>
<path class="st1" d="M4.5,43.6h28c0.552,0,1,0.448,1,1v4c0,0.552-0.448,1-1,1h-28c-0.552,0-1-0.448-1-1v-4
	C3.5,44.048,3.948,43.6,4.5,43.6z"/>
<path d="M11.932,44.001V49.1h-0.616c-0.091,0-0.168-0.014-0.231-0.042c-0.061-0.03-0.121-0.082-0.182-0.154l-2.405-3.042
	c0.009,0.091,0.015,0.18,0.017,0.266c0.005,0.084,0.007,0.163,0.007,0.238V49.1H7.48v-5.099h0.623c0.051,0,0.094,0.002,0.13,0.007
	c0.035,0.005,0.066,0.014,0.094,0.028c0.028,0.012,0.055,0.029,0.08,0.052c0.026,0.023,0.055,0.055,0.088,0.095l2.426,3.063
	c-0.012-0.098-0.02-0.193-0.024-0.284c-0.005-0.093-0.007-0.181-0.007-0.263v-2.698H11.932z M17.821,46.549
	c0,0.369-0.064,0.712-0.193,1.029c-0.126,0.317-0.304,0.594-0.535,0.829c-0.231,0.233-0.51,0.417-0.837,0.549
	c-0.324,0.133-0.685,0.2-1.082,0.2c-0.397,0-0.758-0.067-1.085-0.2s-0.607-0.316-0.84-0.549c-0.231-0.236-0.411-0.512-0.539-0.829
	c-0.126-0.317-0.189-0.66-0.189-1.029s0.063-0.712,0.189-1.029c0.128-0.317,0.308-0.593,0.539-0.826
	c0.233-0.233,0.513-0.417,0.84-0.549c0.327-0.133,0.688-0.199,1.085-0.199s0.757,0.068,1.082,0.203
	c0.327,0.133,0.606,0.316,0.837,0.549c0.231,0.233,0.41,0.509,0.535,0.826C17.757,45.84,17.821,46.182,17.821,46.549z M16.61,46.549
	c0-0.252-0.033-0.478-0.098-0.679c-0.065-0.203-0.16-0.375-0.284-0.514c-0.121-0.14-0.271-0.247-0.448-0.322
	c-0.177-0.075-0.379-0.112-0.606-0.112c-0.229,0-0.433,0.037-0.612,0.112c-0.177,0.075-0.328,0.182-0.451,0.322
	c-0.121,0.14-0.215,0.312-0.28,0.514c-0.065,0.201-0.098,0.427-0.098,0.679c0,0.254,0.033,0.483,0.098,0.686
	c0.065,0.201,0.159,0.371,0.28,0.511c0.124,0.14,0.274,0.247,0.451,0.322c0.18,0.072,0.384,0.109,0.612,0.109
	c0.226,0,0.428-0.036,0.606-0.109c0.177-0.075,0.327-0.182,0.448-0.322c0.124-0.14,0.218-0.31,0.284-0.511
	C16.578,47.031,16.61,46.803,16.61,46.549z M21.118,44.911v1.292h1.743v0.913h-1.743V49.1h-1.19v-5.099h3.283v0.91H21.118z
	 M29.52,44.001V49.1h-1.043v-2.933c0-0.068,0.001-0.141,0.003-0.221c0.005-0.079,0.012-0.16,0.021-0.242l-1.354,2.622
	c-0.042,0.082-0.099,0.143-0.171,0.185c-0.07,0.042-0.151,0.063-0.242,0.063h-0.161c-0.091,0-0.173-0.021-0.245-0.063
	c-0.07-0.042-0.126-0.104-0.168-0.185l-1.354-2.629c0.007,0.084,0.013,0.167,0.017,0.249c0.005,0.079,0.007,0.153,0.007,0.221V49.1
	h-1.043v-5.099h0.903c0.051,0,0.096,0.001,0.133,0.003c0.04,0.002,0.075,0.009,0.105,0.021s0.057,0.03,0.08,0.056
	c0.026,0.023,0.05,0.057,0.073,0.102l1.313,2.586c0.047,0.089,0.091,0.181,0.133,0.277c0.044,0.096,0.086,0.194,0.126,0.294
	c0.04-0.103,0.08-0.203,0.122-0.301c0.044-0.098,0.091-0.191,0.14-0.28l1.309-2.576c0.023-0.044,0.047-0.078,0.07-0.102
	c0.026-0.026,0.054-0.044,0.084-0.056s0.064-0.019,0.101-0.021c0.04-0.002,0.085-0.003,0.136-0.003H29.52z"/>
<path class="st7" d="M47.647,48.12c0.117,0,0.209,0.033,0.277,0.098c0.068,0.063,0.101,0.147,0.101,0.252v0.63h-3.584v-0.35
	c0-0.068,0.014-0.14,0.042-0.217s0.077-0.147,0.147-0.21l1.47-1.48c0.126-0.126,0.236-0.246,0.329-0.361
	c0.093-0.114,0.17-0.226,0.231-0.336c0.061-0.112,0.106-0.223,0.136-0.333c0.03-0.112,0.046-0.23,0.046-0.354
	c0-0.203-0.049-0.358-0.147-0.465c-0.096-0.11-0.243-0.165-0.441-0.165c-0.161,0-0.298,0.043-0.41,0.13
	c-0.11,0.084-0.186,0.189-0.228,0.315c-0.049,0.128-0.113,0.214-0.192,0.256c-0.079,0.042-0.193,0.051-0.34,0.028l-0.574-0.102
	c0.037-0.254,0.109-0.476,0.214-0.665c0.107-0.189,0.239-0.347,0.396-0.472c0.159-0.126,0.34-0.219,0.542-0.28
	c0.203-0.063,0.421-0.094,0.654-0.094c0.252,0,0.478,0.037,0.679,0.112c0.203,0.072,0.376,0.174,0.518,0.305
	c0.142,0.131,0.251,0.287,0.325,0.469c0.077,0.18,0.116,0.378,0.116,0.595c0,0.187-0.027,0.359-0.081,0.518
	c-0.051,0.159-0.122,0.31-0.213,0.455c-0.091,0.142-0.197,0.281-0.319,0.417c-0.119,0.133-0.246,0.268-0.382,0.406l-0.998,1.022
	c0.128-0.04,0.256-0.07,0.382-0.091s0.243-0.031,0.35-0.031h0.954V48.12z M56.41,48.316V49.1h-2.905v-0.784h0.98v-2.572
	c0-0.065,0.001-0.131,0.004-0.196c0.002-0.068,0.006-0.135,0.01-0.203l-0.581,0.483c-0.051,0.04-0.103,0.064-0.154,0.073
	c-0.049,0.007-0.096,0.007-0.14,0c-0.044-0.009-0.084-0.024-0.119-0.045c-0.035-0.023-0.061-0.047-0.077-0.07l-0.343-0.455
	l1.589-1.333h0.896v4.319h0.84V48.316z"/>
<path class="st7" d="M52.387,46.6l-2.813,2.143v-4.286L52.387,46.6z"/>
<path class="st7" d="M70.773,45.456c0.037-0.254,0.108-0.476,0.214-0.665c0.107-0.189,0.239-0.347,0.396-0.472
	c0.159-0.126,0.34-0.219,0.542-0.28c0.203-0.063,0.421-0.094,0.655-0.094c0.252,0,0.476,0.036,0.672,0.108
	c0.196,0.07,0.362,0.166,0.497,0.287s0.238,0.262,0.308,0.424c0.07,0.159,0.105,0.327,0.105,0.504c0,0.161-0.016,0.303-0.049,0.427
	c-0.033,0.121-0.082,0.227-0.147,0.318c-0.063,0.089-0.142,0.165-0.238,0.228c-0.093,0.061-0.201,0.112-0.322,0.154
	c0.565,0.198,0.847,0.583,0.847,1.155c0,0.271-0.049,0.506-0.147,0.707s-0.23,0.367-0.396,0.5c-0.163,0.133-0.354,0.233-0.571,0.301
	c-0.217,0.065-0.443,0.098-0.679,0.098c-0.243,0-0.458-0.026-0.647-0.077c-0.189-0.054-0.357-0.135-0.504-0.245
	c-0.147-0.112-0.276-0.254-0.389-0.427c-0.11-0.173-0.205-0.378-0.287-0.616l0.483-0.196c0.126-0.049,0.243-0.062,0.35-0.038
	s0.184,0.077,0.231,0.161c0.105,0.194,0.216,0.335,0.333,0.424c0.119,0.086,0.258,0.13,0.416,0.13c0.121,0,0.226-0.02,0.315-0.06
	c0.091-0.042,0.166-0.095,0.224-0.158c0.061-0.065,0.106-0.139,0.136-0.22c0.03-0.082,0.046-0.165,0.046-0.249
	c0-0.11-0.008-0.208-0.024-0.294c-0.014-0.089-0.056-0.164-0.126-0.227s-0.176-0.111-0.319-0.144
	c-0.14-0.035-0.336-0.053-0.588-0.053v-0.749c0.212,0,0.384-0.016,0.515-0.049s0.231-0.077,0.301-0.133
	c0.072-0.058,0.12-0.128,0.144-0.21s0.035-0.172,0.035-0.27c0-0.201-0.049-0.355-0.147-0.462c-0.096-0.11-0.243-0.165-0.441-0.165
	c-0.161,0-0.298,0.043-0.41,0.13c-0.11,0.084-0.185,0.189-0.227,0.315c-0.049,0.128-0.113,0.214-0.193,0.256
	s-0.192,0.051-0.34,0.028L70.773,45.456z M83.897,48.12c0.117,0,0.209,0.033,0.276,0.098c0.068,0.063,0.102,0.147,0.102,0.252v0.63
	h-3.584v-0.35c0-0.068,0.014-0.14,0.042-0.217s0.077-0.147,0.147-0.21l1.47-1.48c0.126-0.126,0.236-0.246,0.329-0.361
	s0.17-0.226,0.231-0.336c0.061-0.112,0.106-0.223,0.136-0.333c0.03-0.112,0.046-0.23,0.046-0.354c0-0.203-0.049-0.358-0.147-0.465
	c-0.096-0.11-0.243-0.165-0.441-0.165c-0.161,0-0.298,0.043-0.41,0.13c-0.11,0.084-0.186,0.189-0.228,0.315
	c-0.049,0.128-0.113,0.214-0.193,0.256s-0.192,0.051-0.34,0.028l-0.574-0.102c0.037-0.254,0.108-0.476,0.214-0.665
	c0.107-0.189,0.239-0.347,0.396-0.472c0.159-0.126,0.34-0.219,0.542-0.28c0.203-0.063,0.421-0.094,0.655-0.094
	c0.252,0,0.478,0.037,0.679,0.112c0.203,0.072,0.376,0.174,0.518,0.305s0.251,0.287,0.326,0.469c0.077,0.18,0.116,0.378,0.116,0.595
	c0,0.187-0.027,0.359-0.08,0.518c-0.051,0.159-0.123,0.31-0.214,0.455c-0.091,0.142-0.197,0.281-0.319,0.417
	c-0.119,0.133-0.246,0.268-0.382,0.406l-0.997,1.022c0.128-0.04,0.256-0.07,0.382-0.091s0.243-0.031,0.35-0.031h0.952V48.12z
	 M94.176,48.316V49.1h-2.905v-0.784h0.98v-2.572c0-0.065,0.001-0.131,0.004-0.196c0.002-0.068,0.006-0.135,0.01-0.203l-0.581,0.483
	c-0.051,0.04-0.103,0.064-0.154,0.073c-0.049,0.007-0.096,0.007-0.14,0c-0.044-0.009-0.084-0.024-0.119-0.045
	c-0.035-0.023-0.061-0.047-0.077-0.07l-0.343-0.455l1.589-1.333h0.896v4.319h0.84V48.316z"/>
<path class="st7" d="M78.761,46.6l-2.813,2.143v-4.286L78.761,46.6z"/>
<path class="st7" d="M89.074,46.6l-2.813,2.143v-4.286L89.074,46.6z"/>
<path class="st7" d="M105.881,48.12c0.117,0,0.209,0.033,0.277,0.098c0.067,0.063,0.101,0.147,0.101,0.252v0.63h-3.584v-0.35
	c0-0.068,0.014-0.14,0.042-0.217s0.077-0.147,0.147-0.21l1.47-1.48c0.126-0.126,0.236-0.246,0.329-0.361
	c0.094-0.114,0.171-0.226,0.231-0.336c0.061-0.112,0.106-0.223,0.137-0.333c0.03-0.112,0.045-0.23,0.045-0.354
	c0-0.203-0.049-0.358-0.147-0.465c-0.095-0.11-0.242-0.165-0.441-0.165c-0.161,0-0.297,0.043-0.409,0.13
	c-0.11,0.084-0.186,0.189-0.228,0.315c-0.049,0.128-0.113,0.214-0.192,0.256c-0.08,0.042-0.193,0.051-0.34,0.028l-0.574-0.102
	c0.038-0.254,0.109-0.476,0.214-0.665c0.107-0.189,0.239-0.347,0.395-0.472c0.159-0.126,0.34-0.219,0.543-0.28
	c0.203-0.063,0.421-0.094,0.654-0.094c0.252,0,0.479,0.037,0.679,0.112c0.203,0.072,0.376,0.174,0.518,0.305
	c0.143,0.131,0.251,0.287,0.326,0.469c0.077,0.18,0.115,0.378,0.115,0.595c0,0.187-0.027,0.359-0.08,0.518
	c-0.052,0.159-0.123,0.31-0.214,0.455c-0.091,0.142-0.197,0.281-0.318,0.417c-0.119,0.133-0.246,0.268-0.382,0.406l-0.997,1.022
	c0.128-0.04,0.255-0.07,0.381-0.091s0.243-0.031,0.35-0.031h0.952V48.12z M116.16,48.316V49.1h-2.905v-0.784h0.98v-2.572
	c0-0.065,0.001-0.131,0.003-0.196c0.003-0.068,0.006-0.135,0.011-0.203l-0.581,0.483c-0.052,0.04-0.103,0.064-0.154,0.073
	c-0.049,0.007-0.096,0.007-0.14,0c-0.045-0.009-0.084-0.024-0.119-0.045c-0.035-0.023-0.061-0.047-0.077-0.07l-0.343-0.455
	l1.589-1.333h0.896v4.319h0.84V48.316z M122.805,45.456c0.038-0.254,0.109-0.476,0.214-0.665c0.107-0.189,0.239-0.347,0.395-0.472
	c0.159-0.126,0.34-0.219,0.543-0.28c0.203-0.063,0.421-0.094,0.654-0.094c0.252,0,0.476,0.036,0.672,0.108
	c0.196,0.07,0.362,0.166,0.497,0.287c0.136,0.121,0.238,0.262,0.308,0.424c0.07,0.159,0.105,0.327,0.105,0.504
	c0,0.161-0.016,0.303-0.049,0.427c-0.032,0.121-0.081,0.227-0.147,0.318c-0.063,0.089-0.142,0.165-0.238,0.228
	c-0.093,0.061-0.2,0.112-0.322,0.154c0.565,0.198,0.847,0.583,0.847,1.155c0,0.271-0.049,0.506-0.147,0.707s-0.23,0.367-0.395,0.5
	c-0.164,0.133-0.354,0.233-0.571,0.301c-0.217,0.065-0.443,0.098-0.679,0.098c-0.242,0-0.458-0.026-0.647-0.077
	c-0.189-0.054-0.357-0.135-0.504-0.245c-0.147-0.112-0.277-0.254-0.389-0.427c-0.109-0.173-0.205-0.378-0.287-0.616l0.483-0.196
	c0.126-0.049,0.243-0.062,0.35-0.038c0.108,0.023,0.185,0.077,0.231,0.161c0.105,0.194,0.216,0.335,0.333,0.424
	c0.119,0.086,0.258,0.13,0.416,0.13c0.122,0,0.227-0.02,0.315-0.06c0.091-0.042,0.166-0.095,0.224-0.158
	c0.061-0.065,0.106-0.139,0.137-0.22c0.03-0.082,0.045-0.165,0.045-0.249c0-0.11-0.008-0.208-0.024-0.294
	c-0.014-0.089-0.056-0.164-0.126-0.227s-0.176-0.111-0.319-0.144c-0.14-0.035-0.336-0.053-0.588-0.053v-0.749
	c0.213,0,0.384-0.016,0.515-0.049c0.13-0.033,0.231-0.077,0.301-0.133c0.072-0.058,0.12-0.128,0.143-0.21
	c0.024-0.082,0.035-0.172,0.035-0.27c0-0.201-0.049-0.355-0.147-0.462c-0.095-0.11-0.242-0.165-0.441-0.165
	c-0.161,0-0.297,0.043-0.409,0.13c-0.11,0.084-0.186,0.189-0.228,0.315c-0.049,0.128-0.113,0.214-0.192,0.256
	c-0.08,0.042-0.193,0.051-0.34,0.028L122.805,45.456z"/>
<path class="st7" d="M110.761,46.6l-2.812,2.143v-4.286L110.761,46.6z"/>
<path class="st7" d="M118.261,46.6l2.813-2.143v4.286L118.261,46.6z"/>
<path d="M3.5,42.6h126v-1H3.5V42.6z M131,44.1v5h1v-5H131z M129.5,50.6H3.5v1h126V50.6z M2,49.1v-5H1v5H2z M3.5,50.6
	c-0.828,0-1.5-0.672-1.5-1.5H1c0,1.381,1.119,2.5,2.5,2.5V50.6z M131,49.1c0,0.828-0.672,1.5-1.5,1.5v1c1.381,0,2.5-1.119,2.5-2.5
	H131z M129.5,42.6c0.828,0,1.5,0.672,1.5,1.5h1c0-1.381-1.119-2.5-2.5-2.5V42.6z M3.5,41.6c-1.381,0-2.5,1.119-2.5,2.5h1
	c0-0.828,0.672-1.5,1.5-1.5V41.6z"/>
</svg>
