<svg width="16" height="24" viewBox="0 0 16 24" fill="none" xmlns="http://www.w3.org/2000/svg">
<path d="M0.5 2.5C0.5 1.39543 1.39543 0.5 2.5 0.5H15.5V11.5H2.5C1.39543 11.5 0.5 10.6046 0.5 9.5V2.5Z" fill="#595959"/>
<path d="M0.5 2.5C0.5 1.39543 1.39543 0.5 2.5 0.5H15.5V11.5H2.5C1.39543 11.5 0.5 10.6046 0.5 9.5V2.5Z" stroke="black"/>
<path d="M8.24997 4C7.0229 4 5.93692 4.55697 5.25278 5.41454L4 4.23525V8H8.00025L6.63931 6.71927C7.00092 5.68702 8.03217 4.94116 9.24989 4.94116C10.7695 4.94116 12 6.10018 12 7.52948C12 5.57998 10.3212 4 8.24997 4Z" fill="#B4B4B4"/>
<path d="M0.5 14.5C0.5 13.3954 1.39543 12.5 2.5 12.5H15.5V23.5H2.5C1.39543 23.5 0.5 22.6046 0.5 21.5V14.5Z" fill="#595959"/>
<path d="M2.5 15.5C2.5 14.9477 2.94772 14.5 3.5 14.5H13.5V21.5H3.5C2.94771 21.5 2.5 21.0523 2.5 20.5V15.5Z" fill="#595959"/>
<path d="M2.5 15.5C2.5 14.9477 2.94772 14.5 3.5 14.5H13.5V21.5H3.5C2.94771 21.5 2.5 21.0523 2.5 20.5V15.5Z" stroke="#595959"/>
<path d="M0.5 14.5C0.5 13.3954 1.39543 12.5 2.5 12.5H15.5V23.5H2.5C1.39543 23.5 0.5 22.6046 0.5 21.5V14.5Z" stroke="black"/>
<path d="M8.24997 16C7.0229 16 5.93692 16.557 5.25278 17.4145L4 16.2353V20H8.00025L6.63931 18.7193C7.00092 17.687 8.03217 16.9412 9.24989 16.9412C10.7695 16.9412 12 18.1002 12 19.5295C12 17.58 10.3212 16 8.24997 16Z" fill="#B4B4B4"/>
</svg>
