<?xml version="1.0" encoding="utf-8"?>
<!-- Generator: Adobe Illustrator 22.0.0, SVG Export Plug-In . SVG Version: 6.00 Build 0)  -->
<svg version="1.1" baseProfile="basic" id="Layer_1"
	 xmlns="http://www.w3.org/2000/svg" xmlns:xlink="http://www.w3.org/1999/xlink" x="0px" y="0px" width="26px" height="39px"
	 viewBox="0 0 26 39" xml:space="preserve">
<style type="text/css">
	.st0{fill:#40ADFF;stroke:#40ADFF;}
	.st1{opacity:0.5;fill:none;stroke:#C0EBFF;}
	.st2{fill:#C0EBFF;stroke:#C0EBFF;}
	.st3{opacity:0.5;fill:none;stroke:#EEEEEE;}
	.st4{fill:#EEEEEE;stroke:#EEEEEE;}
	.st5{fill:#1D8ADC;stroke:#1D8ADC;}
	.st6{fill:#FF9915;}
	.st7{fill:#9DC8DC;}
	.st8{fill:none;stroke:#9DC8DC;}
	.st9{opacity:0.5;fill:none;stroke:#9DC8DC;}
</style>
<path class="st0" d="M3.5,6.5c0-1.7,1.3-3,3-3s3,1.3,3,3s-1.3,3-3,3S3.5,8.2,3.5,6.5z"/>
<path class="st1" d="M1,19.5c0-3,2.5-5.5,5.5-5.5s5.5,2.5,5.5,5.5S9.5,25,6.5,25S1,22.5,1,19.5z"/>
<path class="st2" d="M3.5,19.5c0-1.7,1.3-3,3-3s3,1.3,3,3s-1.3,3-3,3S3.5,21.2,3.5,19.5z"/>
<path class="st3" d="M1,32.5c0-3,2.5-5.5,5.5-5.5s5.5,2.5,5.5,5.5S9.5,38,6.5,38S1,35.5,1,32.5z"/>
<path class="st4" d="M3.5,32.5c0-1.7,1.3-3,3-3s3,1.3,3,3s-1.3,3-3,3S3.5,34.2,3.5,32.5z"/>
<rect x="17.5" y="4.3" transform="matrix(0.7071 -0.7071 0.7071 0.7071 1.2365 15.6421)" class="st5" width="4" height="4"/>
<rect x="17.5" y="17.3" transform="matrix(0.7071 -0.7071 0.7071 0.7071 -7.9558 19.4497)" class="st6" width="4" height="4"/>
<rect x="17.5" y="17.3" transform="matrix(0.7071 -0.7071 0.7071 0.7071 -7.9558 19.4497)" class="st7" width="4" height="4"/>
<rect x="17.5" y="17.3" transform="matrix(0.7071 -0.7071 0.7071 0.7071 -7.9558 19.4497)" class="st8" width="4" height="4"/>
<rect x="15.5" y="15.4" transform="matrix(0.7071 -0.7071 0.7071 0.7071 -7.9457 19.4455)" class="st9" width="7.9" height="7.9"/>
<rect x="17.5" y="30.3" transform="matrix(0.7071 -0.7071 0.7071 0.7071 -17.1482 23.2574)" class="st4" width="4" height="4"/>
<rect x="15.5" y="28.4" transform="matrix(0.7071 -0.7071 0.7071 0.7071 -17.1381 23.2532)" class="st3" width="7.9" height="7.9"/>
</svg>
