<?xml version="1.0" encoding="utf-8"?>
<!-- Generator: Adobe Illustrator 22.0.0, SVG Export Plug-In . SVG Version: 6.00 Build 0)  -->
<svg version="1.1" baseProfile="basic" id="Layer_1"
	 xmlns="http://www.w3.org/2000/svg" xmlns:xlink="http://www.w3.org/1999/xlink" x="0px" y="0px" width="12px" height="14px"
	 viewBox="0 0 12 14" xml:space="preserve">
<style type="text/css">
	.st0{clip-path:url(#SVGID_2_);}
	.st1{fill:#FF9000;}
</style>
<desc>Created with Lunacy</desc>
<g>
	<defs>
		<rect id="SVGID_1_" width="12" height="14"/>
	</defs>
	<clipPath id="SVGID_2_">
		<use xlink:href="#SVGID_1_"  style="overflow:visible;"/>
	</clipPath>
	<g id="bmp00170" class="st0">
		<path id="Logo" class="st1" d="M8.2,2.7L11,4.5L11,1H1.8C1.4,1,1,1.4,1,1.8l0,6.6l1.9,0.5c0.1,0,0.2,0,0.2-0.1l0.5-1.6
			c0-0.1,0.2-0.2,0.3-0.1l4.5,2.8c0.2,0.1,0,0.4-0.2,0.3L4.8,9.4c-0.1,0-0.2,0-0.2,0.1L4.1,11c0,0.1-0.2,0.2-0.3,0.1L1,9.4L1,13h9.2
			c0.5,0,0.8-0.4,0.8-0.8l0-6.7L9.1,5C9,5,8.9,5,8.9,5.1L8.4,6.7c0,0.1-0.2,0.2-0.3,0.1L3.6,3.9c-0.2-0.1,0-0.4,0.2-0.3l3.5,0.9
			c0.1,0,0.2,0,0.2-0.1L8,2.8C8,2.7,8.1,2.7,8.2,2.7L8.2,2.7L8.2,2.7z"/>
	</g>
</g>
</svg>
