<?xml version="1.0" encoding="utf-8"?>
<!-- Generator: Adobe Illustrator 22.0.0, SVG Export Plug-In . SVG Version: 6.00 Build 0)  -->
<svg version="1.1" baseProfile="basic"
	 id="svg14" inkscape:version="1.1 (c68e22c387, 2021-05-23)" sodipodi:docname="bmp00134.svg" xmlns:inkscape="http://www.inkscape.org/namespaces/inkscape" xmlns:sodipodi="http://sodipodi.sourceforge.net/DTD/sodipodi-0.dtd" xmlns:svg="http://www.w3.org/2000/svg"
	 xmlns="http://www.w3.org/2000/svg" xmlns:xlink="http://www.w3.org/1999/xlink" x="0px" y="0px" width="22px" height="30px"
	 viewBox="0 0 22 30" xml:space="preserve">
<style type="text/css">
	.st0{fill:#595959;}
	.st1{fill:none;stroke:#000000;}
	.st2{fill:#B4B4B4;}
	.st3{fill:#2F5DAA;}
	.st4{fill:#FFFFFF;}
</style>
<sodipodi:namedview  bordercolor="#666666" borderopacity="1.0" id="namedview16" inkscape:current-layer="svg14" inkscape:cx="11.015625" inkscape:cy="14.981971" inkscape:pagecheckerboard="0" inkscape:pageopacity="0.0" inkscape:pageshadow="2" inkscape:window-height="1017" inkscape:window-maximized="1" inkscape:window-width="1920" inkscape:window-x="-8" inkscape:window-y="-8" inkscape:zoom="27.733333" pagecolor="#ffffff" showgrid="false">
	</sodipodi:namedview>
<path id="rect2" class="st0" d="M3.5,2h13c0.6,0,1,0.4,1,1v6c0,0.6-0.4,1-1,1h-13c-0.6,0-1-0.4-1-1V3C2.5,2.4,2.9,2,3.5,2z"/>
<path id="rect4" class="st1" d="M3.5,2h13c0.6,0,1,0.4,1,1v6c0,0.6-0.4,1-1,1h-13c-0.6,0-1-0.4-1-1V3C2.5,2.4,2.9,2,3.5,2z"/>
<path id="path6" class="st2" d="M12.9,3.4v5.1h-1V5.6c0-0.1,0-0.1,0-0.2c0-0.1,0-0.2,0-0.2l-1.4,2.6c0,0.1-0.1,0.1-0.2,0.2
	C10.3,8,10.2,8,10.1,8H9.9C9.8,8,9.7,8,9.7,7.9c-0.1,0-0.1-0.1-0.2-0.2L8.2,5.1c0,0.1,0,0.2,0,0.2c0,0.1,0,0.2,0,0.2v2.9h-1V3.4H8
	c0.1,0,0.1,0,0.1,0c0,0,0.1,0,0.1,0c0,0,0.1,0,0.1,0.1c0,0,0.1,0.1,0.1,0.1l1.3,2.6c0,0.1,0.1,0.2,0.1,0.3c0,0.1,0.1,0.2,0.1,0.3
	c0-0.1,0.1-0.2,0.1-0.3c0-0.1,0.1-0.2,0.1-0.3l1.3-2.6c0,0,0-0.1,0.1-0.1c0,0,0.1,0,0.1-0.1c0,0,0.1,0,0.1,0c0,0,0.1,0,0.1,0H12.9z"
	/>
<path id="rect8" class="st3" d="M3.5,17h13c0.6,0,1,0.4,1,1v6c0,0.6-0.4,1-1,1h-13c-0.6,0-1-0.4-1-1v-6C2.5,17.4,2.9,17,3.5,17z"/>
<path id="rect10" class="st1" d="M3.5,17h13c0.6,0,1,0.4,1,1v6c0,0.6-0.4,1-1,1h-13c-0.6,0-1-0.4-1-1v-6C2.5,17.4,2.9,17,3.5,17z"/>
<path id="path12" class="st4" d="M12.9,18.4v5.1h-1v-2.9c0-0.1,0-0.1,0-0.2c0-0.1,0-0.2,0-0.2l-1.4,2.6c0,0.1-0.1,0.1-0.2,0.2
	c-0.1,0-0.2,0.1-0.2,0.1H9.9c-0.1,0-0.2,0-0.2-0.1c-0.1,0-0.1-0.1-0.2-0.2l-1.4-2.6c0,0.1,0,0.2,0,0.2c0,0.1,0,0.2,0,0.2v2.9h-1
	v-5.1H8c0.1,0,0.1,0,0.1,0c0,0,0.1,0,0.1,0c0,0,0.1,0,0.1,0.1c0,0,0.1,0.1,0.1,0.1l1.3,2.6c0,0.1,0.1,0.2,0.1,0.3
	c0,0.1,0.1,0.2,0.1,0.3c0-0.1,0.1-0.2,0.1-0.3c0-0.1,0.1-0.2,0.1-0.3l1.3-2.6c0,0,0-0.1,0.1-0.1c0,0,0.1,0,0.1-0.1c0,0,0.1,0,0.1,0
	c0,0,0.1,0,0.1,0H12.9z"/>
</svg>
