<?xml version="1.0" encoding="utf-8"?>
<!-- Generator: Adobe Illustrator 22.0.0, SVG Export Plug-In . SVG Version: 6.00 Build 0)  -->
<svg version="1.1" baseProfile="basic"
	 id="svg18" inkscape:version="1.1 (c68e22c387, 2021-05-23)" sodipodi:docname="bmp00172.svg" xmlns:inkscape="http://www.inkscape.org/namespaces/inkscape" xmlns:sodipodi="http://sodipodi.sourceforge.net/DTD/sodipodi-0.dtd" xmlns:svg="http://www.w3.org/2000/svg"
	 xmlns="http://www.w3.org/2000/svg" xmlns:xlink="http://www.w3.org/1999/xlink" x="0px" y="0px" width="32px" height="24px"
	 viewBox="0 0 32 24" xml:space="preserve">
<style type="text/css">
	.st0{fill:#595959;}
	.st1{fill:#B4B4B4;}
	.st2{fill:#FF9300;}
	.st3{fill:none;stroke:#FF9300;}
</style>
<sodipodi:namedview  bordercolor="#666666" borderopacity="1.0" id="namedview20" inkscape:current-layer="svg18" inkscape:cx="15.984877" inkscape:cy="11.992439" inkscape:pagecheckerboard="0" inkscape:pageopacity="0.0" inkscape:pageshadow="2" inkscape:window-height="1017" inkscape:window-maximized="1" inkscape:window-width="1920" inkscape:window-x="-8" inkscape:window-y="-8" inkscape:zoom="33.0625" pagecolor="#ffffff" showgrid="false">
	</sodipodi:namedview>
<path id="path2" class="st0" d="M0.6,2.5c0-1.1,0.9-2,2-2h26c1.1,0,2,0.9,2,2v7c0,1.1-0.9,2-2,2h-26c-1.1,0-2-0.9-2-2V2.5z"/>
<path id="path4" class="st1" d="M10,3.7c0,0.1,0,0.1,0,0.2C10,3.9,9.9,4,9.9,4.1L7.2,8h2.8v1H5.4V8.5c0-0.1,0-0.1,0-0.2
	c0-0.1,0.1-0.1,0.1-0.2l2.7-3.9H5.7v-1H10V3.7z M12.3,4.8c0.3,0,0.6,0,0.9,0.1c0.3,0.1,0.5,0.2,0.7,0.4C14,5.5,14.1,5.8,14.2,6
	c0.1,0.3,0.2,0.6,0.2,0.9c0,0.3-0.1,0.6-0.2,0.9c-0.1,0.3-0.2,0.5-0.4,0.7c-0.2,0.2-0.4,0.3-0.7,0.4c-0.3,0.1-0.5,0.1-0.9,0.1
	c-0.3,0-0.6,0-0.9-0.1c-0.3-0.1-0.5-0.2-0.7-0.4c-0.2-0.2-0.3-0.4-0.4-0.7c-0.1-0.3-0.2-0.6-0.2-0.9c0-0.3,0.1-0.6,0.2-0.9
	c0.1-0.3,0.2-0.5,0.4-0.7c0.2-0.2,0.4-0.3,0.7-0.4C11.7,4.8,11.9,4.8,12.3,4.8z M12.3,8.1c0.3,0,0.5-0.1,0.6-0.3
	c0.1-0.2,0.2-0.5,0.2-0.9c0-0.4-0.1-0.7-0.2-0.9c-0.1-0.2-0.3-0.3-0.6-0.3c-0.3,0-0.5,0.1-0.6,0.3c-0.1,0.2-0.2,0.5-0.2,0.9
	c0,0.4,0.1,0.7,0.2,0.9C11.8,8,12,8.1,12.3,8.1z M16.8,4.8c0.3,0,0.6,0,0.9,0.1c0.3,0.1,0.5,0.2,0.7,0.4c0.2,0.2,0.3,0.4,0.4,0.7
	c0.1,0.3,0.2,0.6,0.2,0.9c0,0.3-0.1,0.6-0.2,0.9c-0.1,0.3-0.2,0.5-0.4,0.7c-0.2,0.2-0.4,0.3-0.7,0.4c-0.3,0.1-0.5,0.1-0.9,0.1
	c-0.3,0-0.6,0-0.9-0.1c-0.3-0.1-0.5-0.2-0.7-0.4c-0.2-0.2-0.3-0.4-0.4-0.7c-0.1-0.3-0.2-0.6-0.2-0.9c0-0.3,0.1-0.6,0.2-0.9
	c0.1-0.3,0.2-0.5,0.4-0.7c0.2-0.2,0.4-0.3,0.7-0.4C16.2,4.8,16.5,4.8,16.8,4.8z M16.8,8.1c0.3,0,0.5-0.1,0.6-0.3
	c0.1-0.2,0.2-0.5,0.2-0.9c0-0.4-0.1-0.7-0.2-0.9c-0.1-0.2-0.3-0.3-0.6-0.3c-0.3,0-0.5,0.1-0.6,0.3c-0.1,0.2-0.2,0.5-0.2,0.9
	c0,0.4,0.1,0.7,0.2,0.9C16.3,8,16.5,8.1,16.8,8.1z M19.4,9V4.9h0.8c0.2,0,0.3,0.1,0.3,0.2l0.1,0.2c0.1-0.1,0.1-0.1,0.2-0.2
	C20.8,5,20.9,5,21,4.9c0.1,0,0.2-0.1,0.3-0.1c0.1,0,0.2,0,0.3,0c0.3,0,0.5,0.1,0.6,0.2c0.2,0.1,0.3,0.3,0.4,0.5
	c0.1-0.1,0.2-0.2,0.3-0.3C23,5.1,23.1,5,23.2,5c0.1-0.1,0.2-0.1,0.4-0.1c0.1,0,0.3,0,0.4,0c0.2,0,0.4,0,0.6,0.1
	C24.8,5,24.9,5.1,25,5.2c0.1,0.1,0.2,0.3,0.3,0.5c0.1,0.2,0.1,0.4,0.1,0.7V9h-1.2V6.4c0-0.4-0.2-0.6-0.6-0.6c-0.2,0-0.3,0.1-0.4,0.2
	C23.1,6,23,6.2,23,6.4V9h-1.2V6.4c0-0.2,0-0.4-0.1-0.5c-0.1-0.1-0.2-0.1-0.4-0.1c-0.1,0-0.2,0-0.3,0.1c-0.1,0.1-0.2,0.1-0.3,0.2v3
	H19.4z"/>
<path id="path6" d="M2.6,1h26V0h-26V1z M30.1,2.5v7h1v-7H30.1z M28.6,11h-26v1h26V11z M1.1,9.5v-7h-1v7H1.1z M2.6,11
	c-0.8,0-1.5-0.7-1.5-1.5h-1c0,1.4,1.1,2.5,2.5,2.5V11z M30.1,9.5c0,0.8-0.7,1.5-1.5,1.5v1c1.4,0,2.5-1.1,2.5-2.5H30.1z M28.6,1
	c0.8,0,1.5,0.7,1.5,1.5h1c0-1.4-1.1-2.5-2.5-2.5V1z M2.6,0C1.2,0,0.1,1.1,0.1,2.5h1C1.1,1.7,1.7,1,2.6,1V0z"/>
<path id="path8" class="st2" d="M0.6,14.5c0-1.1,0.9-2,2-2h26c1.1,0,2,0.9,2,2v7c0,1.1-0.9,2-2,2h-26c-1.1,0-2-0.9-2-2V14.5z"/>
<path id="rect10" class="st2" d="M3.6,14.5h24c0.6,0,1,0.4,1,1v5c0,0.6-0.4,1-1,1h-24c-0.6,0-1-0.4-1-1v-5C2.6,14.9,3,14.5,3.6,14.5
	z"/>
<path id="rect12" class="st3" d="M3.6,14.5h24c0.6,0,1,0.4,1,1v5c0,0.6-0.4,1-1,1h-24c-0.6,0-1-0.4-1-1v-5C2.6,14.9,3,14.5,3.6,14.5
	z"/>
<path id="path14" d="M10,15.7c0,0.1,0,0.1,0,0.2c0,0.1-0.1,0.1-0.1,0.2L7.2,20h2.8v1H5.4v-0.5c0-0.1,0-0.1,0-0.2
	c0-0.1,0.1-0.1,0.1-0.2l2.7-3.9H5.7v-1H10V15.7z M12.3,16.8c0.3,0,0.6,0,0.9,0.1c0.3,0.1,0.5,0.2,0.7,0.4c0.2,0.2,0.3,0.4,0.4,0.7
	c0.1,0.3,0.2,0.6,0.2,0.9c0,0.3-0.1,0.6-0.2,0.9c-0.1,0.3-0.2,0.5-0.4,0.7c-0.2,0.2-0.4,0.3-0.7,0.4c-0.3,0.1-0.5,0.1-0.9,0.1
	c-0.3,0-0.6,0-0.9-0.1c-0.3-0.1-0.5-0.2-0.7-0.4c-0.2-0.2-0.3-0.4-0.4-0.7c-0.1-0.3-0.2-0.6-0.2-0.9c0-0.3,0.1-0.6,0.2-0.9
	c0.1-0.3,0.2-0.5,0.4-0.7c0.2-0.2,0.4-0.3,0.7-0.4C11.7,16.8,11.9,16.8,12.3,16.8z M12.3,20.1c0.3,0,0.5-0.1,0.6-0.3
	c0.1-0.2,0.2-0.5,0.2-0.9S13,18.2,12.9,18c-0.1-0.2-0.3-0.3-0.6-0.3c-0.3,0-0.5,0.1-0.6,0.3c-0.1,0.2-0.2,0.5-0.2,0.9
	s0.1,0.7,0.2,0.9C11.8,20,12,20.1,12.3,20.1z M16.8,16.8c0.3,0,0.6,0,0.9,0.1c0.3,0.1,0.5,0.2,0.7,0.4c0.2,0.2,0.3,0.4,0.4,0.7
	c0.1,0.3,0.2,0.6,0.2,0.9c0,0.3-0.1,0.6-0.2,0.9c-0.1,0.3-0.2,0.5-0.4,0.7c-0.2,0.2-0.4,0.3-0.7,0.4c-0.3,0.1-0.5,0.1-0.9,0.1
	c-0.3,0-0.6,0-0.9-0.1c-0.3-0.1-0.5-0.2-0.7-0.4c-0.2-0.2-0.3-0.4-0.4-0.7c-0.1-0.3-0.2-0.6-0.2-0.9c0-0.3,0.1-0.6,0.2-0.9
	c0.1-0.3,0.2-0.5,0.4-0.7c0.2-0.2,0.4-0.3,0.7-0.4C16.2,16.8,16.5,16.8,16.8,16.8z M16.8,20.1c0.3,0,0.5-0.1,0.6-0.3
	c0.1-0.2,0.2-0.5,0.2-0.9s-0.1-0.7-0.2-0.9c-0.1-0.2-0.3-0.3-0.6-0.3c-0.3,0-0.5,0.1-0.6,0.3c-0.1,0.2-0.2,0.5-0.2,0.9
	s0.1,0.7,0.2,0.9C16.3,20,16.5,20.1,16.8,20.1z M19.4,21v-4.1h0.8c0.2,0,0.3,0.1,0.3,0.2l0.1,0.2c0.1-0.1,0.1-0.1,0.2-0.2
	c0.1-0.1,0.2-0.1,0.2-0.2c0.1,0,0.2-0.1,0.3-0.1c0.1,0,0.2,0,0.3,0c0.3,0,0.5,0.1,0.6,0.2c0.2,0.1,0.3,0.3,0.4,0.5
	c0.1-0.1,0.2-0.2,0.3-0.3c0.1-0.1,0.2-0.2,0.3-0.2c0.1-0.1,0.2-0.1,0.4-0.1c0.1,0,0.3,0,0.4,0c0.2,0,0.4,0,0.6,0.1
	c0.2,0.1,0.3,0.2,0.5,0.3c0.1,0.1,0.2,0.3,0.3,0.5c0.1,0.2,0.1,0.4,0.1,0.7V21h-1.2v-2.6c0-0.4-0.2-0.6-0.6-0.6
	c-0.2,0-0.3,0.1-0.4,0.2C23.1,18,23,18.2,23,18.4V21h-1.2v-2.6c0-0.2,0-0.4-0.1-0.5c-0.1-0.1-0.2-0.1-0.4-0.1c-0.1,0-0.2,0-0.3,0.1
	c-0.1,0.1-0.2,0.1-0.3,0.2v3H19.4z"/>
<path id="path16" d="M2.6,13h26v-1h-26V13z M30.1,14.5v7h1v-7H30.1z M28.6,23h-26v1h26V23z M1.1,21.5v-7h-1v7H1.1z M2.6,23
	c-0.8,0-1.5-0.7-1.5-1.5h-1c0,1.4,1.1,2.5,2.5,2.5V23z M30.1,21.5c0,0.8-0.7,1.5-1.5,1.5v1c1.4,0,2.5-1.1,2.5-2.5H30.1z M28.6,13
	c0.8,0,1.5,0.7,1.5,1.5h1c0-1.4-1.1-2.5-2.5-2.5V13z M2.6,12c-1.4,0-2.5,1.1-2.5,2.5h1c0-0.8,0.7-1.5,1.5-1.5V12z"/>
</svg>
