<?xml version="1.0" encoding="utf-8"?>
<!-- Generator: Adobe Illustrator 22.0.0, SVG Export Plug-In . SVG Version: 6.00 Build 0)  -->
<svg version="1.1" baseProfile="basic" id="Layer_1"
	 xmlns="http://www.w3.org/2000/svg" xmlns:xlink="http://www.w3.org/1999/xlink" x="0px" y="0px" width="16px" height="16px"
	 viewBox="0 0 16 16" xml:space="preserve">
<style type="text/css">
	.st0{clip-path:url(#SVGID_2_);}
	.st1{fill:#399DFF;}
	.st2{fill:none;stroke:#000000;}
</style>
<g>
	<defs>
		<rect id="SVGID_1_" width="16" height="16"/>
	</defs>
	<clipPath id="SVGID_2_">
		<use xlink:href="#SVGID_1_"  style="overflow:visible;"/>
	</clipPath>
	<g id="bmp00182" class="st0">
		<g id="index" transform="translate(1.5 1.5000478)">
			<path id="BG" d="M8.2,0v1.5c0,0.1-0.1,0.1-0.1,0.1H5c-0.1,0-0.1-0.1-0.1-0.1V0C2,0.8,0,3.3,0,6.4C0,10,2.9,13,6.5,13
				c3.6,0,6.5-3,6.5-6.6C13,3.3,11,0.8,8.2,0L8.2,0z"/>
			<path id="Port" class="st1" d="M8.2,0v1.5c0,0.1-0.1,0.1-0.1,0.1H5c-0.1,0-0.1-0.1-0.1-0.1V0C2,0.8,0,3.3,0,6.4
				C0,10,2.9,13,6.5,13c3.6,0,6.5-3,6.5-6.6C13,3.3,11,0.8,8.2,0L8.2,0z M2.5,7.7c-0.3,0-0.6-0.2-0.7-0.5H1.6C1.4,7.1,1.2,7.1,1.2,7
				c0-0.1,0.2-0.2,0.4-0.2h0.2c0.1-0.3,0.4-0.5,0.7-0.5s0.6,0.2,0.7,0.5h0.1c0.2,0,0.4,0.1,0.4,0.2c0,0.1-0.2,0.2-0.4,0.2H3.2
				C3.1,7.4,2.8,7.7,2.5,7.7L2.5,7.7z M4,10c-0.1,0-0.2,0-0.2,0l-0.1,0.1c-0.1,0.2-0.3,0.3-0.4,0.3c-0.1-0.1-0.1-0.3,0.1-0.5
				l0.1-0.2C3.3,9.7,3.3,9.5,3.3,9.3c0-0.4,0.3-0.7,0.7-0.7c0.1,0,0.1,0,0.1,0l0.1-0.1c0.1-0.2,0.3-0.3,0.4-0.3
				c0.1,0.1,0.1,0.3-0.1,0.5L4.5,8.8c0.2,0.1,0.2,0.3,0.2,0.5C4.7,9.7,4.4,10,4,10L4,10z M6.7,11.1v0.2c0,0.2-0.1,0.4-0.2,0.4
				s-0.2-0.2-0.2-0.4v-0.2C6,11,5.8,10.7,5.8,10.4c0-0.3,0.2-0.6,0.5-0.7V9.6c0-0.2,0.1-0.4,0.2-0.4s0.2,0.2,0.2,0.4v0.1
				c0.3,0.1,0.5,0.4,0.5,0.7C7.2,10.7,7,11,6.7,11.1L6.7,11.1z M9.7,10.4c-0.1,0-0.3-0.1-0.4-0.3L9.2,10c-0.1,0-0.1,0-0.2,0
				c-0.4,0-0.7-0.3-0.7-0.7c0-0.2,0.1-0.4,0.2-0.5L8.5,8.7C8.4,8.5,8.3,8.3,8.4,8.2c0.1,0,0.3,0.1,0.4,0.3l0.1,0.1
				c0.1,0,0.1,0,0.2,0c0.4,0,0.7,0.3,0.7,0.7c0,0.2-0.1,0.4-0.2,0.5L9.6,10C9.8,10.2,9.8,10.4,9.7,10.4L9.7,10.4z M11.4,7.1h-0.1
				c-0.1,0.3-0.4,0.5-0.7,0.5c-0.3,0-0.6-0.2-0.7-0.5H9.7C9.5,7.1,9.3,7.1,9.3,7c0-0.1,0.2-0.2,0.4-0.2h0.1c0.1-0.3,0.4-0.5,0.7-0.5
				c0.3,0,0.6,0.2,0.7,0.5h0.1c0.2,0,0.4,0.1,0.4,0.2C11.8,7.1,11.6,7.1,11.4,7.1L11.4,7.1z"/>
			<path id="Border" class="st2" d="M8.2,0v1.5c0,0.1-0.1,0.1-0.1,0.1H5c-0.1,0-0.1-0.1-0.1-0.1V0C2,0.8,0,3.3,0,6.4
				C0,10,2.9,13,6.5,13c3.6,0,6.5-3,6.5-6.6C13,3.3,11,0.8,8.2,0L8.2,0z"/>
		</g>
	</g>
</g>
</svg>
