<?xml version="1.0" encoding="utf-8"?>
<!-- Generator: Adobe Illustrator 22.0.0, SVG Export Plug-In . SVG Version: 6.00 Build 0)  -->
<svg version="1.1" id="Layer_1" xmlns="http://www.w3.org/2000/svg" xmlns:xlink="http://www.w3.org/1999/xlink" x="0px" y="0px"
	 width="96px" height="126px" viewBox="0 0 96 126" style="enable-background:new 0 0 96 126;" xml:space="preserve">
<style type="text/css">
	.st0{fill:#FF9300;}
	.st1{fill:none;stroke:#FF9300;}
	.st2{fill:#FF9000;}
</style>
<g>
	<path class="st0" d="M5.5,2h9c0.552,0,1,0.448,1,1v9c0,0.552-0.448,1-1,1h-9c-0.552,0-1-0.448-1-1V3C4.5,2.448,4.948,2,5.5,2z"/>
	<path class="st1" d="M5.5,2h9c0.552,0,1,0.448,1,1v9c0,0.552-0.448,1-1,1h-9c-0.552,0-1-0.448-1-1V3C4.5,2.448,4.948,2,5.5,2z"/>
	<path d="M6.66,7.568h2.16v1H6.66V7.568z M9.468,6.336c0.043-0.291,0.124-0.544,0.244-0.76c0.123-0.216,0.273-0.396,0.452-0.54
		c0.181-0.144,0.388-0.251,0.62-0.32c0.232-0.072,0.481-0.108,0.748-0.108c0.288,0,0.544,0.041,0.768,0.124
		c0.224,0.08,0.413,0.189,0.568,0.328c0.155,0.139,0.272,0.3,0.352,0.484c0.08,0.181,0.12,0.373,0.12,0.576
		c0,0.184-0.019,0.347-0.056,0.488c-0.037,0.139-0.093,0.26-0.168,0.364c-0.072,0.101-0.163,0.188-0.272,0.26
		c-0.107,0.069-0.229,0.128-0.368,0.176c0.645,0.227,0.968,0.667,0.968,1.32c0,0.309-0.056,0.579-0.168,0.808
		c-0.112,0.229-0.263,0.42-0.452,0.572c-0.187,0.152-0.404,0.267-0.652,0.344c-0.248,0.075-0.507,0.112-0.776,0.112
		c-0.277,0-0.524-0.029-0.74-0.088c-0.216-0.061-0.408-0.155-0.576-0.28c-0.168-0.128-0.316-0.291-0.444-0.488
		C9.51,9.511,9.401,9.276,9.308,9.004L9.86,8.78c0.144-0.056,0.277-0.071,0.4-0.044c0.123,0.027,0.211,0.088,0.264,0.184
		c0.12,0.221,0.247,0.383,0.38,0.484c0.136,0.099,0.295,0.148,0.476,0.148c0.139,0,0.259-0.023,0.36-0.068
		c0.104-0.048,0.189-0.108,0.256-0.18c0.069-0.075,0.121-0.159,0.156-0.252c0.035-0.093,0.052-0.188,0.052-0.284
		c0-0.125-0.009-0.237-0.028-0.336c-0.016-0.101-0.064-0.188-0.144-0.26c-0.08-0.072-0.201-0.127-0.364-0.164
		c-0.16-0.04-0.384-0.06-0.672-0.06V7.092c0.243,0,0.439-0.019,0.588-0.056c0.149-0.037,0.264-0.088,0.344-0.152
		c0.083-0.067,0.137-0.147,0.164-0.24c0.027-0.093,0.04-0.196,0.04-0.308c0-0.229-0.056-0.405-0.168-0.528
		C11.854,5.683,11.686,5.62,11.46,5.62c-0.184,0-0.34,0.049-0.468,0.148c-0.125,0.096-0.212,0.216-0.26,0.36
		c-0.056,0.147-0.129,0.244-0.22,0.292c-0.091,0.048-0.22,0.059-0.388,0.032L9.468,6.336z"/>
</g>
<path class="st2" d="M19.66,7.568h2.16v1h-2.16V7.568z M26.02,9.38c0.133,0,0.239,0.037,0.316,0.112
	c0.077,0.072,0.116,0.168,0.116,0.288v0.72h-4.096v-0.4c0-0.077,0.016-0.16,0.048-0.248c0.032-0.088,0.088-0.168,0.168-0.24
	l1.68-1.692c0.144-0.144,0.269-0.281,0.376-0.412c0.107-0.131,0.195-0.259,0.264-0.384c0.069-0.128,0.121-0.255,0.156-0.38
	C25.082,6.616,25.1,6.481,25.1,6.34c0-0.232-0.056-0.409-0.168-0.532c-0.109-0.125-0.277-0.188-0.504-0.188
	c-0.184,0-0.34,0.049-0.468,0.148c-0.125,0.096-0.212,0.216-0.26,0.36c-0.056,0.147-0.129,0.244-0.22,0.292
	c-0.091,0.048-0.22,0.059-0.388,0.032l-0.656-0.116c0.043-0.291,0.124-0.544,0.244-0.76c0.123-0.216,0.273-0.396,0.452-0.54
	c0.181-0.144,0.388-0.251,0.62-0.32c0.232-0.072,0.481-0.108,0.748-0.108c0.288,0,0.547,0.043,0.776,0.128
	c0.232,0.083,0.429,0.199,0.592,0.348c0.163,0.149,0.287,0.328,0.372,0.536c0.088,0.205,0.132,0.432,0.132,0.68
	c0,0.213-0.031,0.411-0.092,0.592c-0.059,0.181-0.14,0.355-0.244,0.52c-0.104,0.163-0.225,0.321-0.364,0.476
	c-0.136,0.152-0.281,0.307-0.436,0.464l-1.14,1.168c0.147-0.045,0.292-0.08,0.436-0.104c0.144-0.024,0.277-0.036,0.4-0.036H26.02z"
	/>
<path class="st2" d="M32.66,7.568h2.16v1h-2.16V7.568z M39.32,9.604V10.5H36V9.604h1.12v-2.94c0-0.075,0.001-0.149,0.004-0.224
	c0.003-0.077,0.007-0.155,0.012-0.232L36.472,6.76c-0.059,0.045-0.117,0.073-0.176,0.084c-0.056,0.008-0.109,0.008-0.16,0
	C36.085,6.833,36.04,6.816,36,6.792c-0.04-0.027-0.069-0.053-0.088-0.08l-0.392-0.52l1.816-1.524h1.024v4.936H39.32z"/>
<path class="st2" d="M51.16,7.584c0,0.509-0.055,0.951-0.164,1.324c-0.109,0.373-0.261,0.683-0.456,0.928
	c-0.192,0.245-0.421,0.428-0.688,0.548c-0.264,0.12-0.551,0.18-0.86,0.18s-0.596-0.06-0.86-0.18c-0.261-0.12-0.488-0.303-0.68-0.548
	C47.26,9.591,47.109,9.281,47,8.908c-0.107-0.373-0.16-0.815-0.16-1.324S46.893,6.633,47,6.26c0.109-0.373,0.26-0.683,0.452-0.928
	c0.192-0.245,0.419-0.427,0.68-0.544c0.264-0.12,0.551-0.18,0.86-0.18s0.596,0.06,0.86,0.18c0.267,0.117,0.496,0.299,0.688,0.544
	c0.195,0.245,0.347,0.555,0.456,0.928C51.105,6.633,51.16,7.075,51.16,7.584z M49.88,7.584c0-0.403-0.025-0.732-0.076-0.988
	c-0.051-0.259-0.119-0.461-0.204-0.608c-0.083-0.147-0.177-0.247-0.284-0.3c-0.107-0.056-0.215-0.084-0.324-0.084
	c-0.109,0-0.217,0.028-0.324,0.084c-0.104,0.053-0.197,0.153-0.28,0.3c-0.08,0.147-0.145,0.349-0.196,0.608
	c-0.048,0.256-0.072,0.585-0.072,0.988c0,0.405,0.024,0.736,0.072,0.992c0.051,0.256,0.116,0.459,0.196,0.608
	c0.083,0.147,0.176,0.248,0.28,0.304c0.107,0.053,0.215,0.08,0.324,0.08c0.109,0,0.217-0.027,0.324-0.08
	c0.107-0.056,0.201-0.157,0.284-0.304c0.085-0.149,0.153-0.352,0.204-0.608C49.854,8.32,49.88,7.989,49.88,7.584z"/>
<path class="st2" d="M61.719,8.256h-1.48v1.592h-1.008V8.256h-1.472V7.368h1.472V5.784h1.008v1.584h1.48V8.256z M66.144,9.604V10.5
	h-3.32V9.604h1.12v-2.94c0-0.075,0.001-0.149,0.004-0.224c0.003-0.077,0.007-0.155,0.012-0.232L63.296,6.76
	c-0.059,0.045-0.117,0.073-0.176,0.084c-0.056,0.008-0.109,0.008-0.16,0c-0.051-0.011-0.096-0.028-0.136-0.052
	c-0.04-0.027-0.069-0.053-0.088-0.08l-0.392-0.52l1.816-1.524h1.024v4.936H66.144z"/>
<path class="st2" d="M74.719,8.256h-1.48v1.592h-1.008V8.256h-1.472V7.368h1.472V5.784h1.008v1.584h1.48V8.256z M78.844,9.38
	c0.133,0,0.239,0.037,0.316,0.112c0.077,0.072,0.116,0.168,0.116,0.288v0.72H75.18v-0.4c0-0.077,0.016-0.16,0.048-0.248
	c0.032-0.088,0.088-0.168,0.168-0.24l1.68-1.692c0.144-0.144,0.269-0.281,0.376-0.412c0.107-0.131,0.195-0.259,0.264-0.384
	c0.069-0.128,0.121-0.255,0.156-0.38c0.035-0.128,0.052-0.263,0.052-0.404c0-0.232-0.056-0.409-0.168-0.532
	c-0.109-0.125-0.277-0.188-0.504-0.188c-0.184,0-0.34,0.049-0.468,0.148c-0.125,0.096-0.212,0.216-0.26,0.36
	c-0.056,0.147-0.129,0.244-0.22,0.292s-0.22,0.059-0.388,0.032L75.26,6.336c0.043-0.291,0.124-0.544,0.244-0.76
	c0.123-0.216,0.273-0.396,0.452-0.54c0.181-0.144,0.388-0.251,0.62-0.32c0.232-0.072,0.481-0.108,0.748-0.108
	c0.288,0,0.547,0.043,0.776,0.128c0.232,0.083,0.429,0.199,0.592,0.348c0.163,0.149,0.287,0.328,0.372,0.536
	c0.088,0.205,0.132,0.432,0.132,0.68c0,0.213-0.031,0.411-0.092,0.592c-0.059,0.181-0.14,0.355-0.244,0.52
	c-0.104,0.163-0.225,0.321-0.364,0.476C78.36,8.04,78.215,8.195,78.06,8.352L76.92,9.52c0.147-0.045,0.292-0.08,0.436-0.104
	c0.144-0.024,0.277-0.036,0.4-0.036H78.844z"/>
<path class="st2" d="M87.719,8.256h-1.48v1.592h-1.008V8.256h-1.472V7.368h1.472V5.784h1.008v1.584h1.48V8.256z M88.292,6.336
	c0.043-0.291,0.124-0.544,0.244-0.76c0.123-0.216,0.273-0.396,0.452-0.54c0.181-0.144,0.388-0.251,0.62-0.32
	c0.232-0.072,0.481-0.108,0.748-0.108c0.288,0,0.544,0.041,0.768,0.124c0.224,0.08,0.413,0.189,0.568,0.328s0.272,0.3,0.352,0.484
	c0.08,0.181,0.12,0.373,0.12,0.576c0,0.184-0.019,0.347-0.056,0.488c-0.037,0.139-0.093,0.26-0.168,0.364
	c-0.072,0.101-0.163,0.188-0.272,0.26C91.561,7.301,91.439,7.36,91.3,7.408c0.645,0.227,0.968,0.667,0.968,1.32
	c0,0.309-0.056,0.579-0.168,0.808s-0.263,0.42-0.452,0.572c-0.187,0.152-0.404,0.267-0.652,0.344
	c-0.248,0.075-0.507,0.112-0.776,0.112c-0.277,0-0.524-0.029-0.74-0.088c-0.216-0.061-0.408-0.155-0.576-0.28
	c-0.168-0.128-0.316-0.291-0.444-0.488c-0.125-0.197-0.235-0.432-0.328-0.704l0.552-0.224c0.144-0.056,0.277-0.071,0.4-0.044
	c0.123,0.027,0.211,0.088,0.264,0.184c0.12,0.221,0.247,0.383,0.38,0.484c0.136,0.099,0.295,0.148,0.476,0.148
	c0.139,0,0.259-0.023,0.36-0.068c0.104-0.048,0.189-0.108,0.256-0.18c0.069-0.075,0.121-0.159,0.156-0.252s0.052-0.188,0.052-0.284
	c0-0.125-0.009-0.237-0.028-0.336c-0.016-0.101-0.064-0.188-0.144-0.26c-0.08-0.072-0.201-0.127-0.364-0.164
	c-0.16-0.04-0.384-0.06-0.672-0.06V7.092c0.243,0,0.439-0.019,0.588-0.056c0.149-0.037,0.264-0.088,0.344-0.152
	c0.083-0.067,0.137-0.147,0.164-0.24s0.04-0.196,0.04-0.308c0-0.229-0.056-0.405-0.168-0.528c-0.109-0.125-0.277-0.188-0.504-0.188
	c-0.184,0-0.34,0.049-0.468,0.148c-0.125,0.096-0.212,0.216-0.26,0.36c-0.056,0.147-0.129,0.244-0.22,0.292s-0.22,0.059-0.388,0.032
	L88.292,6.336z"/>
<path class="st2" d="M6.66,25.568h2.16v1H6.66V25.568z M9.468,24.336c0.043-0.291,0.124-0.544,0.244-0.76
	c0.123-0.216,0.273-0.396,0.452-0.54c0.181-0.144,0.388-0.251,0.62-0.32c0.232-0.072,0.481-0.108,0.748-0.108
	c0.288,0,0.544,0.041,0.768,0.124c0.224,0.08,0.413,0.189,0.568,0.328c0.155,0.139,0.272,0.3,0.352,0.484
	c0.08,0.181,0.12,0.373,0.12,0.576c0,0.184-0.019,0.347-0.056,0.488c-0.037,0.139-0.093,0.26-0.168,0.364
	c-0.072,0.101-0.163,0.188-0.272,0.26c-0.107,0.069-0.229,0.128-0.368,0.176c0.645,0.227,0.968,0.667,0.968,1.32
	c0,0.309-0.056,0.579-0.168,0.808c-0.112,0.229-0.263,0.42-0.452,0.572c-0.187,0.152-0.404,0.267-0.652,0.344
	c-0.248,0.075-0.507,0.112-0.776,0.112c-0.277,0-0.524-0.029-0.74-0.088c-0.216-0.061-0.408-0.155-0.576-0.28
	c-0.168-0.128-0.316-0.291-0.444-0.488c-0.125-0.197-0.235-0.432-0.328-0.704L9.86,26.78c0.144-0.056,0.277-0.071,0.4-0.044
	c0.123,0.027,0.211,0.088,0.264,0.184c0.12,0.221,0.247,0.383,0.38,0.484c0.136,0.099,0.295,0.148,0.476,0.148
	c0.139,0,0.259-0.023,0.36-0.068c0.104-0.048,0.189-0.108,0.256-0.18c0.069-0.075,0.121-0.159,0.156-0.252
	c0.035-0.093,0.052-0.188,0.052-0.284c0-0.125-0.009-0.237-0.028-0.336c-0.016-0.101-0.064-0.188-0.144-0.26
	c-0.08-0.072-0.201-0.127-0.364-0.164c-0.16-0.04-0.384-0.06-0.672-0.06v-0.856c0.243,0,0.439-0.019,0.588-0.056
	c0.149-0.037,0.264-0.088,0.344-0.152c0.083-0.067,0.137-0.147,0.164-0.24c0.027-0.093,0.04-0.196,0.04-0.308
	c0-0.229-0.056-0.405-0.168-0.528c-0.109-0.125-0.277-0.188-0.504-0.188c-0.184,0-0.34,0.049-0.468,0.148
	c-0.125,0.096-0.212,0.216-0.26,0.36c-0.056,0.147-0.129,0.244-0.22,0.292c-0.091,0.048-0.22,0.059-0.388,0.032L9.468,24.336z"/>
<g>
	<path class="st0" d="M18.5,20h9c0.552,0,1,0.448,1,1v9c0,0.552-0.448,1-1,1h-9c-0.552,0-1-0.448-1-1v-9
		C17.5,20.448,17.948,20,18.5,20z"/>
	<path class="st1" d="M18.5,20h9c0.552,0,1,0.448,1,1v9c0,0.552-0.448,1-1,1h-9c-0.552,0-1-0.448-1-1v-9
		C17.5,20.448,17.948,20,18.5,20z"/>
	<path d="M19.66,25.568h2.16v1h-2.16V25.568z M26.02,27.38c0.133,0,0.239,0.037,0.316,0.112c0.077,0.072,0.116,0.168,0.116,0.288
		v0.72h-4.096v-0.4c0-0.077,0.016-0.16,0.048-0.248c0.032-0.088,0.088-0.168,0.168-0.24l1.68-1.692
		c0.144-0.144,0.269-0.281,0.376-0.412c0.107-0.131,0.195-0.259,0.264-0.384c0.069-0.128,0.121-0.255,0.156-0.38
		c0.035-0.128,0.052-0.263,0.052-0.404c0-0.232-0.056-0.409-0.168-0.532c-0.109-0.125-0.277-0.188-0.504-0.188
		c-0.184,0-0.34,0.049-0.468,0.148c-0.125,0.096-0.212,0.216-0.26,0.36c-0.056,0.147-0.129,0.244-0.22,0.292
		c-0.091,0.048-0.22,0.059-0.388,0.032l-0.656-0.116c0.043-0.291,0.124-0.544,0.244-0.76c0.123-0.216,0.273-0.396,0.452-0.54
		c0.181-0.144,0.388-0.251,0.62-0.32c0.232-0.072,0.481-0.108,0.748-0.108c0.288,0,0.547,0.043,0.776,0.128
		c0.232,0.083,0.429,0.199,0.592,0.348c0.163,0.149,0.287,0.328,0.372,0.536c0.088,0.205,0.132,0.432,0.132,0.68
		c0,0.213-0.031,0.411-0.092,0.592c-0.059,0.181-0.14,0.355-0.244,0.52c-0.104,0.163-0.225,0.321-0.364,0.476
		c-0.136,0.152-0.281,0.307-0.436,0.464l-1.14,1.168c0.147-0.045,0.292-0.08,0.436-0.104c0.144-0.024,0.277-0.036,0.4-0.036H26.02z"
		/>
</g>
<path class="st2" d="M32.66,25.568h2.16v1h-2.16V25.568z M39.32,27.604V28.5H36v-0.896h1.12v-2.94c0-0.075,0.001-0.149,0.004-0.224
	c0.003-0.077,0.007-0.155,0.012-0.232l-0.664,0.552c-0.059,0.045-0.117,0.073-0.176,0.084c-0.056,0.008-0.109,0.008-0.16,0
	c-0.051-0.011-0.096-0.028-0.136-0.052c-0.04-0.027-0.069-0.053-0.088-0.08l-0.392-0.52l1.816-1.524h1.024v4.936H39.32z"/>
<path class="st2" d="M51.16,25.584c0,0.509-0.055,0.951-0.164,1.324c-0.109,0.373-0.261,0.683-0.456,0.928
	c-0.192,0.245-0.421,0.428-0.688,0.548c-0.264,0.12-0.551,0.18-0.86,0.18s-0.596-0.06-0.86-0.18c-0.261-0.12-0.488-0.303-0.68-0.548
	c-0.192-0.245-0.343-0.555-0.452-0.928c-0.107-0.373-0.16-0.815-0.16-1.324s0.053-0.951,0.16-1.324
	c0.109-0.373,0.26-0.683,0.452-0.928c0.192-0.245,0.419-0.427,0.68-0.544c0.264-0.12,0.551-0.18,0.86-0.18s0.596,0.06,0.86,0.18
	c0.267,0.117,0.496,0.299,0.688,0.544c0.195,0.245,0.347,0.555,0.456,0.928C51.105,24.633,51.16,25.075,51.16,25.584z M49.88,25.584
	c0-0.403-0.025-0.732-0.076-0.988c-0.051-0.259-0.119-0.461-0.204-0.608c-0.083-0.147-0.177-0.247-0.284-0.3
	c-0.107-0.056-0.215-0.084-0.324-0.084c-0.109,0-0.217,0.028-0.324,0.084c-0.104,0.053-0.197,0.153-0.28,0.3
	c-0.08,0.147-0.145,0.349-0.196,0.608c-0.048,0.256-0.072,0.585-0.072,0.988c0,0.405,0.024,0.736,0.072,0.992
	c0.051,0.256,0.116,0.459,0.196,0.608c0.083,0.147,0.176,0.248,0.28,0.304c0.107,0.053,0.215,0.08,0.324,0.08
	c0.109,0,0.217-0.027,0.324-0.08c0.107-0.056,0.201-0.157,0.284-0.304c0.085-0.149,0.153-0.352,0.204-0.608
	S49.88,25.989,49.88,25.584z"/>
<path class="st2" d="M61.719,26.256h-1.48v1.592h-1.008v-1.592h-1.472v-0.888h1.472v-1.584h1.008v1.584h1.48V26.256z M66.144,27.604
	V28.5h-3.32v-0.896h1.12v-2.94c0-0.075,0.001-0.149,0.004-0.224c0.003-0.077,0.007-0.155,0.012-0.232l-0.664,0.552
	c-0.059,0.045-0.117,0.073-0.176,0.084c-0.056,0.008-0.109,0.008-0.16,0c-0.051-0.011-0.096-0.028-0.136-0.052
	c-0.04-0.027-0.069-0.053-0.088-0.08l-0.392-0.52l1.816-1.524h1.024v4.936H66.144z"/>
<path class="st2" d="M74.719,26.256h-1.48v1.592h-1.008v-1.592h-1.472v-0.888h1.472v-1.584h1.008v1.584h1.48V26.256z M78.844,27.38
	c0.133,0,0.239,0.037,0.316,0.112c0.077,0.072,0.116,0.168,0.116,0.288v0.72H75.18v-0.4c0-0.077,0.016-0.16,0.048-0.248
	c0.032-0.088,0.088-0.168,0.168-0.24l1.68-1.692c0.144-0.144,0.269-0.281,0.376-0.412c0.107-0.131,0.195-0.259,0.264-0.384
	c0.069-0.128,0.121-0.255,0.156-0.38c0.035-0.128,0.052-0.263,0.052-0.404c0-0.232-0.056-0.409-0.168-0.532
	c-0.109-0.125-0.277-0.188-0.504-0.188c-0.184,0-0.34,0.049-0.468,0.148c-0.125,0.096-0.212,0.216-0.26,0.36
	c-0.056,0.147-0.129,0.244-0.22,0.292s-0.22,0.059-0.388,0.032l-0.656-0.116c0.043-0.291,0.124-0.544,0.244-0.76
	c0.123-0.216,0.273-0.396,0.452-0.54c0.181-0.144,0.388-0.251,0.62-0.32c0.232-0.072,0.481-0.108,0.748-0.108
	c0.288,0,0.547,0.043,0.776,0.128c0.232,0.083,0.429,0.199,0.592,0.348c0.163,0.149,0.287,0.328,0.372,0.536
	c0.088,0.205,0.132,0.432,0.132,0.68c0,0.213-0.031,0.411-0.092,0.592c-0.059,0.181-0.14,0.355-0.244,0.52
	c-0.104,0.163-0.225,0.321-0.364,0.476c-0.136,0.152-0.281,0.307-0.436,0.464l-1.14,1.168c0.147-0.045,0.292-0.08,0.436-0.104
	c0.144-0.024,0.277-0.036,0.4-0.036H78.844z"/>
<path class="st2" d="M87.719,26.256h-1.48v1.592h-1.008v-1.592h-1.472v-0.888h1.472v-1.584h1.008v1.584h1.48V26.256z M88.292,24.336
	c0.043-0.291,0.124-0.544,0.244-0.76c0.123-0.216,0.273-0.396,0.452-0.54c0.181-0.144,0.388-0.251,0.62-0.32
	c0.232-0.072,0.481-0.108,0.748-0.108c0.288,0,0.544,0.041,0.768,0.124c0.224,0.08,0.413,0.189,0.568,0.328
	c0.155,0.139,0.272,0.3,0.352,0.484c0.08,0.181,0.12,0.373,0.12,0.576c0,0.184-0.019,0.347-0.056,0.488
	c-0.037,0.139-0.093,0.26-0.168,0.364c-0.072,0.101-0.163,0.188-0.272,0.26c-0.107,0.069-0.229,0.128-0.368,0.176
	c0.645,0.227,0.968,0.667,0.968,1.32c0,0.309-0.056,0.579-0.168,0.808c-0.112,0.229-0.263,0.42-0.452,0.572
	c-0.187,0.152-0.404,0.267-0.652,0.344c-0.248,0.075-0.507,0.112-0.776,0.112c-0.277,0-0.524-0.029-0.74-0.088
	c-0.216-0.061-0.408-0.155-0.576-0.28c-0.168-0.128-0.316-0.291-0.444-0.488c-0.125-0.197-0.235-0.432-0.328-0.704l0.552-0.224
	c0.144-0.056,0.277-0.071,0.4-0.044c0.123,0.027,0.211,0.088,0.264,0.184c0.12,0.221,0.247,0.383,0.38,0.484
	c0.136,0.099,0.295,0.148,0.476,0.148c0.139,0,0.259-0.023,0.36-0.068c0.104-0.048,0.189-0.108,0.256-0.18
	c0.069-0.075,0.121-0.159,0.156-0.252s0.052-0.188,0.052-0.284c0-0.125-0.009-0.237-0.028-0.336
	c-0.016-0.101-0.064-0.188-0.144-0.26c-0.08-0.072-0.201-0.127-0.364-0.164c-0.16-0.04-0.384-0.06-0.672-0.06v-0.856
	c0.243,0,0.439-0.019,0.588-0.056s0.264-0.088,0.344-0.152c0.083-0.067,0.137-0.147,0.164-0.24c0.027-0.093,0.04-0.196,0.04-0.308
	c0-0.229-0.056-0.405-0.168-0.528c-0.109-0.125-0.277-0.188-0.504-0.188c-0.184,0-0.34,0.049-0.468,0.148
	c-0.125,0.096-0.212,0.216-0.26,0.36c-0.056,0.147-0.129,0.244-0.22,0.292s-0.22,0.059-0.388,0.032L88.292,24.336z"/>
<path class="st2" d="M6.66,43.568h2.16v1H6.66V43.568z M9.468,42.336c0.043-0.291,0.124-0.544,0.244-0.76
	c0.123-0.216,0.273-0.396,0.452-0.54c0.181-0.144,0.388-0.251,0.62-0.32c0.232-0.072,0.481-0.108,0.748-0.108
	c0.288,0,0.544,0.041,0.768,0.124c0.224,0.08,0.413,0.189,0.568,0.328c0.155,0.139,0.272,0.3,0.352,0.484
	c0.08,0.181,0.12,0.373,0.12,0.576c0,0.184-0.019,0.347-0.056,0.488c-0.037,0.139-0.093,0.26-0.168,0.364
	c-0.072,0.101-0.163,0.188-0.272,0.26c-0.107,0.069-0.229,0.128-0.368,0.176c0.645,0.227,0.968,0.667,0.968,1.32
	c0,0.309-0.056,0.579-0.168,0.808c-0.112,0.229-0.263,0.42-0.452,0.572c-0.187,0.152-0.404,0.267-0.652,0.344
	c-0.248,0.075-0.507,0.112-0.776,0.112c-0.277,0-0.524-0.029-0.74-0.088c-0.216-0.061-0.408-0.155-0.576-0.28
	c-0.168-0.128-0.316-0.291-0.444-0.488c-0.125-0.197-0.235-0.432-0.328-0.704L9.86,44.78c0.144-0.056,0.277-0.071,0.4-0.044
	c0.123,0.027,0.211,0.088,0.264,0.184c0.12,0.221,0.247,0.383,0.38,0.484c0.136,0.099,0.295,0.148,0.476,0.148
	c0.139,0,0.259-0.023,0.36-0.068c0.104-0.048,0.189-0.108,0.256-0.18c0.069-0.075,0.121-0.159,0.156-0.252
	c0.035-0.093,0.052-0.188,0.052-0.284c0-0.125-0.009-0.237-0.028-0.336c-0.016-0.101-0.064-0.188-0.144-0.26
	c-0.08-0.072-0.201-0.127-0.364-0.164c-0.16-0.04-0.384-0.06-0.672-0.06v-0.856c0.243,0,0.439-0.019,0.588-0.056
	c0.149-0.037,0.264-0.088,0.344-0.152c0.083-0.067,0.137-0.147,0.164-0.24c0.027-0.093,0.04-0.196,0.04-0.308
	c0-0.229-0.056-0.405-0.168-0.528c-0.109-0.125-0.277-0.188-0.504-0.188c-0.184,0-0.34,0.049-0.468,0.148
	c-0.125,0.096-0.212,0.216-0.26,0.36c-0.056,0.147-0.129,0.244-0.22,0.292c-0.091,0.048-0.22,0.059-0.388,0.032L9.468,42.336z"/>
<path class="st2" d="M19.66,43.568h2.16v1h-2.16V43.568z M26.02,45.38c0.133,0,0.239,0.037,0.316,0.112
	c0.077,0.072,0.116,0.168,0.116,0.288v0.72h-4.096v-0.4c0-0.077,0.016-0.16,0.048-0.248c0.032-0.088,0.088-0.168,0.168-0.24
	l1.68-1.692c0.144-0.144,0.269-0.281,0.376-0.412c0.107-0.131,0.195-0.259,0.264-0.384c0.069-0.128,0.121-0.255,0.156-0.38
	c0.035-0.128,0.052-0.263,0.052-0.404c0-0.232-0.056-0.409-0.168-0.532c-0.109-0.125-0.277-0.188-0.504-0.188
	c-0.184,0-0.34,0.049-0.468,0.148c-0.125,0.096-0.212,0.216-0.26,0.36c-0.056,0.147-0.129,0.244-0.22,0.292
	c-0.091,0.048-0.22,0.059-0.388,0.032l-0.656-0.116c0.043-0.291,0.124-0.544,0.244-0.76c0.123-0.216,0.273-0.396,0.452-0.54
	c0.181-0.144,0.388-0.251,0.62-0.32c0.232-0.072,0.481-0.108,0.748-0.108c0.288,0,0.547,0.043,0.776,0.128
	c0.232,0.083,0.429,0.199,0.592,0.348c0.163,0.149,0.287,0.328,0.372,0.536c0.088,0.205,0.132,0.432,0.132,0.68
	c0,0.213-0.031,0.411-0.092,0.592c-0.059,0.181-0.14,0.355-0.244,0.52c-0.104,0.163-0.225,0.321-0.364,0.476
	c-0.136,0.152-0.281,0.307-0.436,0.464l-1.14,1.168c0.147-0.045,0.292-0.08,0.436-0.104c0.144-0.024,0.277-0.036,0.4-0.036H26.02z"
	/>
<g>
	<path class="st0" d="M31.5,38h9c0.552,0,1,0.448,1,1v9c0,0.552-0.448,1-1,1h-9c-0.552,0-1-0.448-1-1v-9
		C30.5,38.448,30.948,38,31.5,38z"/>
	<path class="st1" d="M31.5,38h9c0.552,0,1,0.448,1,1v9c0,0.552-0.448,1-1,1h-9c-0.552,0-1-0.448-1-1v-9
		C30.5,38.448,30.948,38,31.5,38z"/>
	<path d="M32.66,43.568h2.16v1h-2.16V43.568z M39.32,45.604V46.5H36v-0.896h1.12v-2.94c0-0.075,0.001-0.149,0.004-0.224
		c0.003-0.077,0.007-0.155,0.012-0.232l-0.664,0.552c-0.059,0.045-0.117,0.073-0.176,0.084c-0.056,0.008-0.109,0.008-0.16,0
		c-0.051-0.011-0.096-0.028-0.136-0.052c-0.04-0.027-0.069-0.053-0.088-0.08l-0.392-0.52l1.816-1.524h1.024v4.936H39.32z"/>
</g>
<path class="st2" d="M51.16,43.584c0,0.509-0.055,0.951-0.164,1.324c-0.109,0.373-0.261,0.683-0.456,0.928
	c-0.192,0.245-0.421,0.428-0.688,0.548c-0.264,0.12-0.551,0.18-0.86,0.18s-0.596-0.06-0.86-0.18c-0.261-0.12-0.488-0.303-0.68-0.548
	c-0.192-0.245-0.343-0.555-0.452-0.928c-0.107-0.373-0.16-0.815-0.16-1.324s0.053-0.951,0.16-1.324
	c0.109-0.373,0.26-0.683,0.452-0.928c0.192-0.245,0.419-0.427,0.68-0.544c0.264-0.12,0.551-0.18,0.86-0.18s0.596,0.06,0.86,0.18
	c0.267,0.117,0.496,0.299,0.688,0.544c0.195,0.245,0.347,0.555,0.456,0.928C51.105,42.633,51.16,43.075,51.16,43.584z M49.88,43.584
	c0-0.403-0.025-0.732-0.076-0.988c-0.051-0.259-0.119-0.461-0.204-0.608c-0.083-0.147-0.177-0.247-0.284-0.3
	c-0.107-0.056-0.215-0.084-0.324-0.084c-0.109,0-0.217,0.028-0.324,0.084c-0.104,0.053-0.197,0.153-0.28,0.3
	c-0.08,0.147-0.145,0.349-0.196,0.608c-0.048,0.256-0.072,0.585-0.072,0.988c0,0.405,0.024,0.736,0.072,0.992
	c0.051,0.256,0.116,0.459,0.196,0.608c0.083,0.147,0.176,0.248,0.28,0.304c0.107,0.053,0.215,0.08,0.324,0.08
	c0.109,0,0.217-0.027,0.324-0.08c0.107-0.056,0.201-0.157,0.284-0.304c0.085-0.149,0.153-0.352,0.204-0.608
	S49.88,43.989,49.88,43.584z"/>
<path class="st2" d="M61.719,44.256h-1.48v1.592h-1.008v-1.592h-1.472v-0.888h1.472v-1.584h1.008v1.584h1.48V44.256z M66.144,45.604
	V46.5h-3.32v-0.896h1.12v-2.94c0-0.075,0.001-0.149,0.004-0.224c0.003-0.077,0.007-0.155,0.012-0.232l-0.664,0.552
	c-0.059,0.045-0.117,0.073-0.176,0.084c-0.056,0.008-0.109,0.008-0.16,0c-0.051-0.011-0.096-0.028-0.136-0.052
	c-0.04-0.027-0.069-0.053-0.088-0.08l-0.392-0.52l1.816-1.524h1.024v4.936H66.144z"/>
<path class="st2" d="M74.719,44.256h-1.48v1.592h-1.008v-1.592h-1.472v-0.888h1.472v-1.584h1.008v1.584h1.48V44.256z M78.844,45.38
	c0.133,0,0.239,0.037,0.316,0.112c0.077,0.072,0.116,0.168,0.116,0.288v0.72H75.18v-0.4c0-0.077,0.016-0.16,0.048-0.248
	c0.032-0.088,0.088-0.168,0.168-0.24l1.68-1.692c0.144-0.144,0.269-0.281,0.376-0.412c0.107-0.131,0.195-0.259,0.264-0.384
	c0.069-0.128,0.121-0.255,0.156-0.38c0.035-0.128,0.052-0.263,0.052-0.404c0-0.232-0.056-0.409-0.168-0.532
	c-0.109-0.125-0.277-0.188-0.504-0.188c-0.184,0-0.34,0.049-0.468,0.148c-0.125,0.096-0.212,0.216-0.26,0.36
	c-0.056,0.147-0.129,0.244-0.22,0.292c-0.091,0.048-0.22,0.059-0.388,0.032l-0.656-0.116c0.043-0.291,0.124-0.544,0.244-0.76
	c0.123-0.216,0.273-0.396,0.452-0.54c0.181-0.144,0.388-0.251,0.62-0.32c0.232-0.072,0.481-0.108,0.748-0.108
	c0.288,0,0.547,0.043,0.776,0.128c0.232,0.083,0.429,0.199,0.592,0.348c0.163,0.149,0.287,0.328,0.372,0.536
	c0.088,0.205,0.132,0.432,0.132,0.68c0,0.213-0.031,0.411-0.092,0.592c-0.059,0.181-0.14,0.355-0.244,0.52
	c-0.104,0.163-0.225,0.321-0.364,0.476c-0.136,0.152-0.281,0.307-0.436,0.464l-1.14,1.168c0.147-0.045,0.292-0.08,0.436-0.104
	c0.144-0.024,0.277-0.036,0.4-0.036H78.844z"/>
<path class="st2" d="M87.719,44.256h-1.48v1.592h-1.008v-1.592h-1.472v-0.888h1.472v-1.584h1.008v1.584h1.48V44.256z M88.292,42.336
	c0.043-0.291,0.124-0.544,0.244-0.76c0.123-0.216,0.273-0.396,0.452-0.54c0.181-0.144,0.388-0.251,0.62-0.32
	c0.232-0.072,0.481-0.108,0.748-0.108c0.288,0,0.544,0.041,0.768,0.124c0.224,0.08,0.413,0.189,0.568,0.328
	c0.155,0.139,0.272,0.3,0.352,0.484c0.08,0.181,0.12,0.373,0.12,0.576c0,0.184-0.019,0.347-0.056,0.488
	c-0.037,0.139-0.093,0.26-0.168,0.364c-0.072,0.101-0.163,0.188-0.272,0.26c-0.107,0.069-0.229,0.128-0.368,0.176
	c0.645,0.227,0.968,0.667,0.968,1.32c0,0.309-0.056,0.579-0.168,0.808c-0.112,0.229-0.263,0.42-0.452,0.572
	c-0.187,0.152-0.404,0.267-0.652,0.344c-0.248,0.075-0.507,0.112-0.776,0.112c-0.277,0-0.524-0.029-0.74-0.088
	c-0.216-0.061-0.408-0.155-0.576-0.28c-0.168-0.128-0.316-0.291-0.444-0.488c-0.125-0.197-0.235-0.432-0.328-0.704l0.552-0.224
	c0.144-0.056,0.277-0.071,0.4-0.044c0.123,0.027,0.211,0.088,0.264,0.184c0.12,0.221,0.247,0.383,0.38,0.484
	c0.136,0.099,0.295,0.148,0.476,0.148c0.139,0,0.259-0.023,0.36-0.068c0.104-0.048,0.189-0.108,0.256-0.18
	c0.069-0.075,0.121-0.159,0.156-0.252c0.035-0.093,0.052-0.188,0.052-0.284c0-0.125-0.009-0.237-0.028-0.336
	c-0.016-0.101-0.064-0.188-0.144-0.26c-0.08-0.072-0.201-0.127-0.364-0.164c-0.16-0.04-0.384-0.06-0.672-0.06v-0.856
	c0.243,0,0.439-0.019,0.588-0.056s0.264-0.088,0.344-0.152c0.083-0.067,0.137-0.147,0.164-0.24s0.04-0.196,0.04-0.308
	c0-0.229-0.056-0.405-0.168-0.528c-0.109-0.125-0.277-0.188-0.504-0.188c-0.184,0-0.34,0.049-0.468,0.148
	c-0.125,0.096-0.212,0.216-0.26,0.36c-0.056,0.147-0.129,0.244-0.22,0.292c-0.091,0.048-0.22,0.059-0.388,0.032L88.292,42.336z"/>
<path class="st2" d="M6.66,61.568h2.16v1H6.66V61.568z M9.468,60.336c0.043-0.291,0.124-0.544,0.244-0.76
	c0.123-0.216,0.273-0.396,0.452-0.54c0.181-0.144,0.388-0.251,0.62-0.32c0.232-0.072,0.481-0.108,0.748-0.108
	c0.288,0,0.544,0.041,0.768,0.124c0.224,0.08,0.413,0.189,0.568,0.328c0.155,0.139,0.272,0.3,0.352,0.484
	c0.08,0.181,0.12,0.373,0.12,0.576c0,0.184-0.019,0.347-0.056,0.488c-0.037,0.139-0.093,0.26-0.168,0.364
	c-0.072,0.101-0.163,0.188-0.272,0.26c-0.107,0.069-0.229,0.128-0.368,0.176c0.645,0.227,0.968,0.667,0.968,1.32
	c0,0.309-0.056,0.579-0.168,0.808c-0.112,0.229-0.263,0.42-0.452,0.572c-0.187,0.152-0.404,0.267-0.652,0.344
	c-0.248,0.075-0.507,0.112-0.776,0.112c-0.277,0-0.524-0.029-0.74-0.088c-0.216-0.061-0.408-0.155-0.576-0.28
	c-0.168-0.128-0.316-0.291-0.444-0.488c-0.125-0.197-0.235-0.432-0.328-0.704L9.86,62.78c0.144-0.056,0.277-0.071,0.4-0.044
	c0.123,0.027,0.211,0.088,0.264,0.184c0.12,0.221,0.247,0.383,0.38,0.484c0.136,0.099,0.295,0.148,0.476,0.148
	c0.139,0,0.259-0.023,0.36-0.068c0.104-0.048,0.189-0.108,0.256-0.18c0.069-0.075,0.121-0.159,0.156-0.252
	c0.035-0.093,0.052-0.188,0.052-0.284c0-0.125-0.009-0.237-0.028-0.336c-0.016-0.101-0.064-0.188-0.144-0.26
	c-0.08-0.072-0.201-0.127-0.364-0.164c-0.16-0.04-0.384-0.06-0.672-0.06v-0.856c0.243,0,0.439-0.019,0.588-0.056
	c0.149-0.037,0.264-0.088,0.344-0.152c0.083-0.067,0.137-0.147,0.164-0.24c0.027-0.093,0.04-0.196,0.04-0.308
	c0-0.229-0.056-0.405-0.168-0.528c-0.109-0.125-0.277-0.188-0.504-0.188c-0.184,0-0.34,0.049-0.468,0.148
	c-0.125,0.096-0.212,0.216-0.26,0.36c-0.056,0.147-0.129,0.244-0.22,0.292c-0.091,0.048-0.22,0.059-0.388,0.032L9.468,60.336z"/>
<path class="st2" d="M19.66,61.568h2.16v1h-2.16V61.568z M26.02,63.38c0.133,0,0.239,0.037,0.316,0.112
	c0.077,0.072,0.116,0.168,0.116,0.288v0.72h-4.096v-0.4c0-0.077,0.016-0.16,0.048-0.248c0.032-0.088,0.088-0.168,0.168-0.24
	l1.68-1.692c0.144-0.144,0.269-0.281,0.376-0.412c0.107-0.131,0.195-0.259,0.264-0.384c0.069-0.128,0.121-0.255,0.156-0.38
	c0.035-0.128,0.052-0.263,0.052-0.404c0-0.232-0.056-0.409-0.168-0.532c-0.109-0.125-0.277-0.188-0.504-0.188
	c-0.184,0-0.34,0.049-0.468,0.148c-0.125,0.096-0.212,0.216-0.26,0.36c-0.056,0.147-0.129,0.244-0.22,0.292
	c-0.091,0.048-0.22,0.059-0.388,0.032l-0.656-0.116c0.043-0.291,0.124-0.544,0.244-0.76c0.123-0.216,0.273-0.396,0.452-0.54
	c0.181-0.144,0.388-0.251,0.62-0.32c0.232-0.072,0.481-0.108,0.748-0.108c0.288,0,0.547,0.043,0.776,0.128
	c0.232,0.083,0.429,0.199,0.592,0.348c0.163,0.149,0.287,0.328,0.372,0.536c0.088,0.205,0.132,0.432,0.132,0.68
	c0,0.213-0.031,0.411-0.092,0.592c-0.059,0.181-0.14,0.355-0.244,0.52c-0.104,0.163-0.225,0.321-0.364,0.476
	c-0.136,0.152-0.281,0.307-0.436,0.464l-1.14,1.168c0.147-0.045,0.292-0.08,0.436-0.104c0.144-0.024,0.277-0.036,0.4-0.036H26.02z"
	/>
<path class="st2" d="M32.66,61.568h2.16v1h-2.16V61.568z M39.32,63.604V64.5H36v-0.896h1.12v-2.94c0-0.075,0.001-0.149,0.004-0.224
	c0.003-0.077,0.007-0.155,0.012-0.232l-0.664,0.552c-0.059,0.045-0.117,0.073-0.176,0.084c-0.056,0.008-0.109,0.008-0.16,0
	c-0.051-0.011-0.096-0.028-0.136-0.052c-0.04-0.027-0.069-0.053-0.088-0.08l-0.392-0.52l1.816-1.524h1.024v4.936H39.32z"/>
<g>
	<path class="st0" d="M44.5,56h9c0.552,0,1,0.448,1,1v9c0,0.552-0.448,1-1,1h-9c-0.552,0-1-0.448-1-1v-9
		C43.5,56.448,43.948,56,44.5,56z"/>
	<path class="st1" d="M44.5,56h9c0.552,0,1,0.448,1,1v9c0,0.552-0.448,1-1,1h-9c-0.552,0-1-0.448-1-1v-9
		C43.5,56.448,43.948,56,44.5,56z"/>
	<path d="M51.16,61.584c0,0.509-0.055,0.951-0.164,1.324c-0.109,0.373-0.261,0.683-0.456,0.928
		c-0.192,0.245-0.421,0.428-0.688,0.548c-0.264,0.12-0.551,0.18-0.86,0.18s-0.596-0.06-0.86-0.18
		c-0.261-0.12-0.488-0.303-0.68-0.548c-0.192-0.245-0.343-0.555-0.452-0.928c-0.107-0.373-0.16-0.815-0.16-1.324
		s0.053-0.951,0.16-1.324c0.109-0.373,0.26-0.683,0.452-0.928c0.192-0.245,0.419-0.427,0.68-0.544c0.264-0.12,0.551-0.18,0.86-0.18
		s0.596,0.06,0.86,0.18c0.267,0.117,0.496,0.299,0.688,0.544c0.195,0.245,0.347,0.555,0.456,0.928
		C51.105,60.633,51.16,61.075,51.16,61.584z M49.88,61.584c0-0.403-0.025-0.732-0.076-0.988c-0.051-0.259-0.119-0.461-0.204-0.608
		c-0.083-0.147-0.177-0.247-0.284-0.3c-0.107-0.056-0.215-0.084-0.324-0.084c-0.109,0-0.217,0.028-0.324,0.084
		c-0.104,0.053-0.197,0.153-0.28,0.3c-0.08,0.147-0.145,0.349-0.196,0.608c-0.048,0.256-0.072,0.585-0.072,0.988
		c0,0.405,0.024,0.736,0.072,0.992c0.051,0.256,0.116,0.459,0.196,0.608c0.083,0.147,0.176,0.248,0.28,0.304
		c0.107,0.053,0.215,0.08,0.324,0.08c0.109,0,0.217-0.027,0.324-0.08c0.107-0.056,0.201-0.157,0.284-0.304
		c0.085-0.149,0.153-0.352,0.204-0.608S49.88,61.989,49.88,61.584z"/>
</g>
<path class="st2" d="M61.719,62.256h-1.48v1.592h-1.008v-1.592h-1.472v-0.888h1.472v-1.584h1.008v1.584h1.48V62.256z M66.144,63.604
	V64.5h-3.32v-0.896h1.12v-2.94c0-0.075,0.001-0.149,0.004-0.224c0.003-0.077,0.007-0.155,0.012-0.232l-0.664,0.552
	c-0.059,0.045-0.117,0.073-0.176,0.084c-0.056,0.008-0.109,0.008-0.16,0c-0.051-0.011-0.096-0.028-0.136-0.052
	c-0.04-0.027-0.069-0.053-0.088-0.08l-0.392-0.52l1.816-1.524h1.024v4.936H66.144z"/>
<path class="st2" d="M74.719,62.256h-1.48v1.592h-1.008v-1.592h-1.472v-0.888h1.472v-1.584h1.008v1.584h1.48V62.256z M78.844,63.38
	c0.133,0,0.239,0.037,0.316,0.112c0.077,0.072,0.116,0.168,0.116,0.288v0.72H75.18v-0.4c0-0.077,0.016-0.16,0.048-0.248
	c0.032-0.088,0.088-0.168,0.168-0.24l1.68-1.692c0.144-0.144,0.269-0.281,0.376-0.412c0.107-0.131,0.195-0.259,0.264-0.384
	c0.069-0.128,0.121-0.255,0.156-0.38c0.035-0.128,0.052-0.263,0.052-0.404c0-0.232-0.056-0.409-0.168-0.532
	c-0.109-0.125-0.277-0.188-0.504-0.188c-0.184,0-0.34,0.049-0.468,0.148c-0.125,0.096-0.212,0.216-0.26,0.36
	c-0.056,0.147-0.129,0.244-0.22,0.292c-0.091,0.048-0.22,0.059-0.388,0.032l-0.656-0.116c0.043-0.291,0.124-0.544,0.244-0.76
	c0.123-0.216,0.273-0.396,0.452-0.54c0.181-0.144,0.388-0.251,0.62-0.32c0.232-0.072,0.481-0.108,0.748-0.108
	c0.288,0,0.547,0.043,0.776,0.128c0.232,0.083,0.429,0.199,0.592,0.348c0.163,0.149,0.287,0.328,0.372,0.536
	c0.088,0.205,0.132,0.432,0.132,0.68c0,0.213-0.031,0.411-0.092,0.592c-0.059,0.181-0.14,0.355-0.244,0.52
	c-0.104,0.163-0.225,0.321-0.364,0.476c-0.136,0.152-0.281,0.307-0.436,0.464l-1.14,1.168c0.147-0.045,0.292-0.08,0.436-0.104
	c0.144-0.024,0.277-0.036,0.4-0.036H78.844z"/>
<path class="st2" d="M87.719,62.256h-1.48v1.592h-1.008v-1.592h-1.472v-0.888h1.472v-1.584h1.008v1.584h1.48V62.256z M88.292,60.336
	c0.043-0.291,0.124-0.544,0.244-0.76c0.123-0.216,0.273-0.396,0.452-0.54c0.181-0.144,0.388-0.251,0.62-0.32
	c0.232-0.072,0.481-0.108,0.748-0.108c0.288,0,0.544,0.041,0.768,0.124c0.224,0.08,0.413,0.189,0.568,0.328
	c0.155,0.139,0.272,0.3,0.352,0.484c0.08,0.181,0.12,0.373,0.12,0.576c0,0.184-0.019,0.347-0.056,0.488
	c-0.037,0.139-0.093,0.26-0.168,0.364c-0.072,0.101-0.163,0.188-0.272,0.26c-0.107,0.069-0.229,0.128-0.368,0.176
	c0.645,0.227,0.968,0.667,0.968,1.32c0,0.309-0.056,0.579-0.168,0.808c-0.112,0.229-0.263,0.42-0.452,0.572
	c-0.187,0.152-0.404,0.267-0.652,0.344c-0.248,0.075-0.507,0.112-0.776,0.112c-0.277,0-0.524-0.029-0.74-0.088
	c-0.216-0.061-0.408-0.155-0.576-0.28c-0.168-0.128-0.316-0.291-0.444-0.488c-0.125-0.197-0.235-0.432-0.328-0.704l0.552-0.224
	c0.144-0.056,0.277-0.071,0.4-0.044c0.123,0.027,0.211,0.088,0.264,0.184c0.12,0.221,0.247,0.383,0.38,0.484
	c0.136,0.099,0.295,0.148,0.476,0.148c0.139,0,0.259-0.023,0.36-0.068c0.104-0.048,0.189-0.108,0.256-0.18
	c0.069-0.075,0.121-0.159,0.156-0.252c0.035-0.093,0.052-0.188,0.052-0.284c0-0.125-0.009-0.237-0.028-0.336
	c-0.016-0.101-0.064-0.188-0.144-0.26c-0.08-0.072-0.201-0.127-0.364-0.164c-0.16-0.04-0.384-0.06-0.672-0.06v-0.856
	c0.243,0,0.439-0.019,0.588-0.056s0.264-0.088,0.344-0.152c0.083-0.067,0.137-0.147,0.164-0.24s0.04-0.196,0.04-0.308
	c0-0.229-0.056-0.405-0.168-0.528c-0.109-0.125-0.277-0.188-0.504-0.188c-0.184,0-0.34,0.049-0.468,0.148
	c-0.125,0.096-0.212,0.216-0.26,0.36c-0.056,0.147-0.129,0.244-0.22,0.292c-0.091,0.048-0.22,0.059-0.388,0.032L88.292,60.336z"/>
<path class="st2" d="M6.66,79.568h2.16v1H6.66V79.568z M9.468,78.336c0.043-0.291,0.124-0.544,0.244-0.76
	c0.123-0.216,0.273-0.396,0.452-0.54c0.181-0.144,0.388-0.251,0.62-0.32c0.232-0.072,0.481-0.108,0.748-0.108
	c0.288,0,0.544,0.041,0.768,0.124c0.224,0.08,0.413,0.189,0.568,0.328c0.155,0.139,0.272,0.3,0.352,0.484
	c0.08,0.181,0.12,0.373,0.12,0.576c0,0.184-0.019,0.347-0.056,0.488c-0.037,0.139-0.093,0.26-0.168,0.364
	c-0.072,0.101-0.163,0.188-0.272,0.26c-0.107,0.069-0.229,0.128-0.368,0.176c0.645,0.227,0.968,0.667,0.968,1.32
	c0,0.309-0.056,0.579-0.168,0.808c-0.112,0.229-0.263,0.42-0.452,0.572c-0.187,0.152-0.404,0.267-0.652,0.344
	c-0.248,0.075-0.507,0.112-0.776,0.112c-0.277,0-0.524-0.029-0.74-0.088c-0.216-0.061-0.408-0.155-0.576-0.28
	c-0.168-0.128-0.316-0.291-0.444-0.488c-0.125-0.197-0.235-0.432-0.328-0.704L9.86,80.78c0.144-0.056,0.277-0.071,0.4-0.044
	c0.123,0.027,0.211,0.088,0.264,0.184c0.12,0.221,0.247,0.383,0.38,0.484c0.136,0.099,0.295,0.148,0.476,0.148
	c0.139,0,0.259-0.023,0.36-0.068c0.104-0.048,0.189-0.108,0.256-0.18c0.069-0.075,0.121-0.159,0.156-0.252
	c0.035-0.093,0.052-0.188,0.052-0.284c0-0.125-0.009-0.237-0.028-0.336c-0.016-0.101-0.064-0.188-0.144-0.26
	c-0.08-0.072-0.201-0.127-0.364-0.164c-0.16-0.04-0.384-0.06-0.672-0.06v-0.856c0.243,0,0.439-0.019,0.588-0.056
	c0.149-0.037,0.264-0.088,0.344-0.152c0.083-0.067,0.137-0.147,0.164-0.24c0.027-0.093,0.04-0.196,0.04-0.308
	c0-0.229-0.056-0.405-0.168-0.528c-0.109-0.125-0.277-0.188-0.504-0.188c-0.184,0-0.34,0.049-0.468,0.148
	c-0.125,0.096-0.212,0.216-0.26,0.36c-0.056,0.147-0.129,0.244-0.22,0.292c-0.091,0.048-0.22,0.059-0.388,0.032L9.468,78.336z"/>
<path class="st2" d="M19.66,79.568h2.16v1h-2.16V79.568z M26.02,81.38c0.133,0,0.239,0.037,0.316,0.112
	c0.077,0.072,0.116,0.168,0.116,0.288v0.72h-4.096v-0.4c0-0.077,0.016-0.16,0.048-0.248c0.032-0.088,0.088-0.168,0.168-0.24
	l1.68-1.692c0.144-0.144,0.269-0.281,0.376-0.412c0.107-0.131,0.195-0.259,0.264-0.384c0.069-0.128,0.121-0.255,0.156-0.38
	c0.035-0.128,0.052-0.263,0.052-0.404c0-0.232-0.056-0.409-0.168-0.532c-0.109-0.125-0.277-0.188-0.504-0.188
	c-0.184,0-0.34,0.049-0.468,0.148c-0.125,0.096-0.212,0.216-0.26,0.36c-0.056,0.147-0.129,0.244-0.22,0.292
	c-0.091,0.048-0.22,0.059-0.388,0.032l-0.656-0.116c0.043-0.291,0.124-0.544,0.244-0.76c0.123-0.216,0.273-0.396,0.452-0.54
	c0.181-0.144,0.388-0.251,0.62-0.32c0.232-0.072,0.481-0.108,0.748-0.108c0.288,0,0.547,0.043,0.776,0.128
	c0.232,0.083,0.429,0.199,0.592,0.348c0.163,0.149,0.287,0.328,0.372,0.536c0.088,0.205,0.132,0.432,0.132,0.68
	c0,0.213-0.031,0.411-0.092,0.592c-0.059,0.181-0.14,0.355-0.244,0.52c-0.104,0.163-0.225,0.321-0.364,0.476
	c-0.136,0.152-0.281,0.307-0.436,0.464l-1.14,1.168c0.147-0.045,0.292-0.08,0.436-0.104c0.144-0.024,0.277-0.036,0.4-0.036H26.02z"
	/>
<path class="st2" d="M32.66,79.568h2.16v1h-2.16V79.568z M39.32,81.604V82.5H36v-0.896h1.12v-2.94c0-0.075,0.001-0.149,0.004-0.224
	c0.003-0.077,0.007-0.155,0.012-0.232l-0.664,0.552c-0.059,0.045-0.117,0.073-0.176,0.084c-0.056,0.008-0.109,0.008-0.16,0
	c-0.051-0.011-0.096-0.028-0.136-0.052c-0.04-0.027-0.069-0.053-0.088-0.08l-0.392-0.52l1.816-1.524h1.024v4.936H39.32z"/>
<path class="st2" d="M51.16,79.584c0,0.509-0.055,0.951-0.164,1.324c-0.109,0.373-0.261,0.683-0.456,0.928
	c-0.192,0.245-0.421,0.428-0.688,0.548c-0.264,0.12-0.551,0.18-0.86,0.18s-0.596-0.06-0.86-0.18c-0.261-0.12-0.488-0.303-0.68-0.548
	c-0.192-0.245-0.343-0.555-0.452-0.928c-0.107-0.373-0.16-0.815-0.16-1.324s0.053-0.951,0.16-1.324
	c0.109-0.373,0.26-0.683,0.452-0.928c0.192-0.245,0.419-0.427,0.68-0.544c0.264-0.12,0.551-0.18,0.86-0.18s0.596,0.06,0.86,0.18
	c0.267,0.117,0.496,0.299,0.688,0.544c0.195,0.245,0.347,0.555,0.456,0.928C51.105,78.633,51.16,79.075,51.16,79.584z M49.88,79.584
	c0-0.403-0.025-0.732-0.076-0.988c-0.051-0.259-0.119-0.461-0.204-0.608c-0.083-0.147-0.177-0.247-0.284-0.3
	c-0.107-0.056-0.215-0.084-0.324-0.084c-0.109,0-0.217,0.028-0.324,0.084c-0.104,0.053-0.197,0.153-0.28,0.3
	c-0.08,0.147-0.145,0.349-0.196,0.608c-0.048,0.256-0.072,0.585-0.072,0.988c0,0.405,0.024,0.736,0.072,0.992
	c0.051,0.256,0.116,0.459,0.196,0.608c0.083,0.147,0.176,0.248,0.28,0.304c0.107,0.053,0.215,0.08,0.324,0.08
	c0.109,0,0.217-0.027,0.324-0.08c0.107-0.056,0.201-0.157,0.284-0.304c0.085-0.149,0.153-0.352,0.204-0.608
	C49.854,80.32,49.88,79.989,49.88,79.584z"/>
<g>
	<path class="st0" d="M57.5,74h9c0.552,0,1,0.448,1,1v9c0,0.552-0.448,1-1,1h-9c-0.552,0-1-0.448-1-1v-9
		C56.5,74.448,56.948,74,57.5,74z"/>
	<path class="st1" d="M57.5,74h9c0.552,0,1,0.448,1,1v9c0,0.552-0.448,1-1,1h-9c-0.552,0-1-0.448-1-1v-9
		C56.5,74.448,56.948,74,57.5,74z"/>
	<path d="M61.719,80.256h-1.48v1.592h-1.008v-1.592h-1.472v-0.888h1.472v-1.584h1.008v1.584h1.48V80.256z M66.144,81.604V82.5h-3.32
		v-0.896h1.12v-2.94c0-0.075,0.001-0.149,0.004-0.224c0.003-0.077,0.007-0.155,0.012-0.232l-0.664,0.552
		c-0.059,0.045-0.117,0.073-0.176,0.084c-0.056,0.008-0.109,0.008-0.16,0c-0.051-0.011-0.096-0.028-0.136-0.052
		c-0.04-0.027-0.069-0.053-0.088-0.08l-0.392-0.52l1.816-1.524h1.024v4.936H66.144z"/>
</g>
<path class="st2" d="M74.719,80.256h-1.48v1.592h-1.008v-1.592h-1.472v-0.888h1.472v-1.584h1.008v1.584h1.48V80.256z M78.844,81.38
	c0.133,0,0.239,0.037,0.316,0.112c0.077,0.072,0.116,0.168,0.116,0.288v0.72H75.18v-0.4c0-0.077,0.016-0.16,0.048-0.248
	c0.032-0.088,0.088-0.168,0.168-0.24l1.68-1.692c0.144-0.144,0.269-0.281,0.376-0.412c0.107-0.131,0.195-0.259,0.264-0.384
	c0.069-0.128,0.121-0.255,0.156-0.38c0.035-0.128,0.052-0.263,0.052-0.404c0-0.232-0.056-0.409-0.168-0.532
	c-0.109-0.125-0.277-0.188-0.504-0.188c-0.184,0-0.34,0.049-0.468,0.148c-0.125,0.096-0.212,0.216-0.26,0.36
	c-0.056,0.147-0.129,0.244-0.22,0.292c-0.091,0.048-0.22,0.059-0.388,0.032l-0.656-0.116c0.043-0.291,0.124-0.544,0.244-0.76
	c0.123-0.216,0.273-0.396,0.452-0.54c0.181-0.144,0.388-0.251,0.62-0.32c0.232-0.072,0.481-0.108,0.748-0.108
	c0.288,0,0.547,0.043,0.776,0.128c0.232,0.083,0.429,0.199,0.592,0.348c0.163,0.149,0.287,0.328,0.372,0.536
	c0.088,0.205,0.132,0.432,0.132,0.68c0,0.213-0.031,0.411-0.092,0.592c-0.059,0.181-0.14,0.355-0.244,0.52
	c-0.104,0.163-0.225,0.321-0.364,0.476c-0.136,0.152-0.281,0.307-0.436,0.464l-1.14,1.168c0.147-0.045,0.292-0.08,0.436-0.104
	c0.144-0.024,0.277-0.036,0.4-0.036H78.844z"/>
<path class="st2" d="M87.719,80.256h-1.48v1.592h-1.008v-1.592h-1.472v-0.888h1.472v-1.584h1.008v1.584h1.48V80.256z M88.292,78.336
	c0.043-0.291,0.124-0.544,0.244-0.76c0.123-0.216,0.273-0.396,0.452-0.54c0.181-0.144,0.388-0.251,0.62-0.32
	c0.232-0.072,0.481-0.108,0.748-0.108c0.288,0,0.544,0.041,0.768,0.124c0.224,0.08,0.413,0.189,0.568,0.328
	c0.155,0.139,0.272,0.3,0.352,0.484c0.08,0.181,0.12,0.373,0.12,0.576c0,0.184-0.019,0.347-0.056,0.488
	c-0.037,0.139-0.093,0.26-0.168,0.364c-0.072,0.101-0.163,0.188-0.272,0.26c-0.107,0.069-0.229,0.128-0.368,0.176
	c0.645,0.227,0.968,0.667,0.968,1.32c0,0.309-0.056,0.579-0.168,0.808c-0.112,0.229-0.263,0.42-0.452,0.572
	c-0.187,0.152-0.404,0.267-0.652,0.344c-0.248,0.075-0.507,0.112-0.776,0.112c-0.277,0-0.524-0.029-0.74-0.088
	c-0.216-0.061-0.408-0.155-0.576-0.28c-0.168-0.128-0.316-0.291-0.444-0.488c-0.125-0.197-0.235-0.432-0.328-0.704l0.552-0.224
	c0.144-0.056,0.277-0.071,0.4-0.044c0.123,0.027,0.211,0.088,0.264,0.184c0.12,0.221,0.247,0.383,0.38,0.484
	c0.136,0.099,0.295,0.148,0.476,0.148c0.139,0,0.259-0.023,0.36-0.068c0.104-0.048,0.189-0.108,0.256-0.18
	c0.069-0.075,0.121-0.159,0.156-0.252s0.052-0.188,0.052-0.284c0-0.125-0.009-0.237-0.028-0.336
	c-0.016-0.101-0.064-0.188-0.144-0.26c-0.08-0.072-0.201-0.127-0.364-0.164c-0.16-0.04-0.384-0.06-0.672-0.06v-0.856
	c0.243,0,0.439-0.019,0.588-0.056s0.264-0.088,0.344-0.152c0.083-0.067,0.137-0.147,0.164-0.24s0.04-0.196,0.04-0.308
	c0-0.229-0.056-0.405-0.168-0.528c-0.109-0.125-0.277-0.188-0.504-0.188c-0.184,0-0.34,0.049-0.468,0.148
	c-0.125,0.096-0.212,0.216-0.26,0.36c-0.056,0.147-0.129,0.244-0.22,0.292c-0.091,0.048-0.22,0.059-0.388,0.032L88.292,78.336z"/>
<path class="st2" d="M6.66,97.568h2.16v1H6.66V97.568z M9.468,96.336c0.043-0.291,0.124-0.544,0.244-0.76
	c0.123-0.216,0.273-0.396,0.452-0.54c0.181-0.144,0.388-0.251,0.62-0.32c0.232-0.072,0.481-0.108,0.748-0.108
	c0.288,0,0.544,0.041,0.768,0.124c0.224,0.08,0.413,0.189,0.568,0.328c0.155,0.139,0.272,0.3,0.352,0.484
	c0.08,0.181,0.12,0.373,0.12,0.576c0,0.184-0.019,0.347-0.056,0.488c-0.037,0.139-0.093,0.26-0.168,0.364
	c-0.072,0.101-0.163,0.188-0.272,0.26c-0.107,0.069-0.229,0.128-0.368,0.176c0.645,0.227,0.968,0.667,0.968,1.32
	c0,0.309-0.056,0.579-0.168,0.808c-0.112,0.229-0.263,0.42-0.452,0.572c-0.187,0.152-0.404,0.267-0.652,0.344
	c-0.248,0.075-0.507,0.112-0.776,0.112c-0.277,0-0.524-0.029-0.74-0.088c-0.216-0.061-0.408-0.155-0.576-0.28
	c-0.168-0.128-0.316-0.291-0.444-0.488c-0.125-0.197-0.235-0.432-0.328-0.704L9.86,98.78c0.144-0.056,0.277-0.071,0.4-0.044
	c0.123,0.027,0.211,0.088,0.264,0.184c0.12,0.221,0.247,0.383,0.38,0.484c0.136,0.099,0.295,0.148,0.476,0.148
	c0.139,0,0.259-0.023,0.36-0.068c0.104-0.048,0.189-0.108,0.256-0.18c0.069-0.075,0.121-0.159,0.156-0.252
	c0.035-0.093,0.052-0.188,0.052-0.284c0-0.125-0.009-0.237-0.028-0.336c-0.016-0.101-0.064-0.188-0.144-0.26
	c-0.08-0.072-0.201-0.127-0.364-0.164c-0.16-0.04-0.384-0.06-0.672-0.06v-0.856c0.243,0,0.439-0.019,0.588-0.056
	c0.149-0.037,0.264-0.088,0.344-0.152c0.083-0.067,0.137-0.147,0.164-0.24c0.027-0.093,0.04-0.196,0.04-0.308
	c0-0.229-0.056-0.405-0.168-0.528c-0.109-0.125-0.277-0.188-0.504-0.188c-0.184,0-0.34,0.049-0.468,0.148
	c-0.125,0.096-0.212,0.216-0.26,0.36c-0.056,0.147-0.129,0.244-0.22,0.292c-0.091,0.048-0.22,0.059-0.388,0.032L9.468,96.336z"/>
<path class="st2" d="M19.66,97.568h2.16v1h-2.16V97.568z M26.02,99.38c0.133,0,0.239,0.037,0.316,0.112
	c0.077,0.072,0.116,0.168,0.116,0.288v0.72h-4.096v-0.4c0-0.077,0.016-0.16,0.048-0.248c0.032-0.088,0.088-0.168,0.168-0.24
	l1.68-1.692c0.144-0.144,0.269-0.281,0.376-0.412c0.107-0.131,0.195-0.259,0.264-0.384c0.069-0.128,0.121-0.255,0.156-0.38
	c0.035-0.128,0.052-0.263,0.052-0.404c0-0.232-0.056-0.409-0.168-0.532c-0.109-0.125-0.277-0.188-0.504-0.188
	c-0.184,0-0.34,0.049-0.468,0.148c-0.125,0.096-0.212,0.216-0.26,0.36c-0.056,0.147-0.129,0.244-0.22,0.292
	c-0.091,0.048-0.22,0.059-0.388,0.032l-0.656-0.116c0.043-0.291,0.124-0.544,0.244-0.76c0.123-0.216,0.273-0.396,0.452-0.54
	c0.181-0.144,0.388-0.251,0.62-0.32c0.232-0.072,0.481-0.108,0.748-0.108c0.288,0,0.547,0.043,0.776,0.128
	c0.232,0.083,0.429,0.199,0.592,0.348c0.163,0.149,0.287,0.328,0.372,0.536c0.088,0.205,0.132,0.432,0.132,0.68
	c0,0.213-0.031,0.411-0.092,0.592c-0.059,0.181-0.14,0.355-0.244,0.52c-0.104,0.163-0.225,0.321-0.364,0.476
	c-0.136,0.152-0.281,0.307-0.436,0.464l-1.14,1.168c0.147-0.045,0.292-0.08,0.436-0.104c0.144-0.024,0.277-0.036,0.4-0.036H26.02z"
	/>
<path class="st2" d="M32.66,97.568h2.16v1h-2.16V97.568z M39.32,99.604v0.896H36v-0.896h1.12v-2.94c0-0.075,0.001-0.149,0.004-0.224
	c0.003-0.077,0.007-0.155,0.012-0.232l-0.664,0.552c-0.059,0.045-0.117,0.073-0.176,0.084c-0.056,0.008-0.109,0.008-0.16,0
	c-0.051-0.011-0.096-0.028-0.136-0.052c-0.04-0.027-0.069-0.053-0.088-0.08l-0.392-0.52l1.816-1.524h1.024v4.936H39.32z"/>
<path class="st2" d="M51.16,97.584c0,0.509-0.055,0.951-0.164,1.324c-0.109,0.373-0.261,0.683-0.456,0.928
	c-0.192,0.245-0.421,0.428-0.688,0.548c-0.264,0.12-0.551,0.18-0.86,0.18s-0.596-0.06-0.86-0.18c-0.261-0.12-0.488-0.303-0.68-0.548
	c-0.192-0.245-0.343-0.555-0.452-0.928c-0.107-0.373-0.16-0.815-0.16-1.324s0.053-0.951,0.16-1.324
	c0.109-0.373,0.26-0.683,0.452-0.928c0.192-0.245,0.419-0.427,0.68-0.544c0.264-0.12,0.551-0.18,0.86-0.18s0.596,0.06,0.86,0.18
	c0.267,0.117,0.496,0.299,0.688,0.544c0.195,0.245,0.347,0.555,0.456,0.928C51.105,96.633,51.16,97.075,51.16,97.584z M49.88,97.584
	c0-0.403-0.025-0.732-0.076-0.988c-0.051-0.259-0.119-0.461-0.204-0.608c-0.083-0.147-0.177-0.247-0.284-0.3
	c-0.107-0.056-0.215-0.084-0.324-0.084c-0.109,0-0.217,0.028-0.324,0.084c-0.104,0.053-0.197,0.153-0.28,0.3
	c-0.08,0.147-0.145,0.349-0.196,0.608c-0.048,0.256-0.072,0.585-0.072,0.988c0,0.405,0.024,0.736,0.072,0.992
	c0.051,0.256,0.116,0.459,0.196,0.608c0.083,0.147,0.176,0.248,0.28,0.304c0.107,0.053,0.215,0.08,0.324,0.08
	c0.109,0,0.217-0.027,0.324-0.08c0.107-0.056,0.201-0.157,0.284-0.304c0.085-0.149,0.153-0.352,0.204-0.608
	C49.854,98.32,49.88,97.989,49.88,97.584z"/>
<path class="st2" d="M61.719,98.256h-1.48v1.592h-1.008v-1.592h-1.472v-0.888h1.472v-1.584h1.008v1.584h1.48V98.256z M66.144,99.604
	v0.896h-3.32v-0.896h1.12v-2.94c0-0.075,0.001-0.149,0.004-0.224c0.003-0.077,0.007-0.155,0.012-0.232l-0.664,0.552
	c-0.059,0.045-0.117,0.073-0.176,0.084c-0.056,0.008-0.109,0.008-0.16,0c-0.051-0.011-0.096-0.028-0.136-0.052
	c-0.04-0.027-0.069-0.053-0.088-0.08l-0.392-0.52l1.816-1.524h1.024v4.936H66.144z"/>
<g>
	<path class="st0" d="M70.5,92h9c0.552,0,1,0.448,1,1v9c0,0.552-0.448,1-1,1h-9c-0.552,0-1-0.448-1-1v-9
		C69.5,92.448,69.948,92,70.5,92z"/>
	<path class="st1" d="M70.5,92h9c0.552,0,1,0.448,1,1v9c0,0.552-0.448,1-1,1h-9c-0.552,0-1-0.448-1-1v-9
		C69.5,92.448,69.948,92,70.5,92z"/>
	<path d="M74.719,98.256h-1.48v1.592h-1.008v-1.592h-1.472v-0.888h1.472v-1.584h1.008v1.584h1.48V98.256z M78.844,99.38
		c0.133,0,0.239,0.037,0.316,0.112c0.077,0.072,0.116,0.168,0.116,0.288v0.72H75.18v-0.4c0-0.077,0.016-0.16,0.048-0.248
		c0.032-0.088,0.088-0.168,0.168-0.24l1.68-1.692c0.144-0.144,0.269-0.281,0.376-0.412c0.107-0.131,0.195-0.259,0.264-0.384
		c0.069-0.128,0.121-0.255,0.156-0.38c0.035-0.128,0.052-0.263,0.052-0.404c0-0.232-0.056-0.409-0.168-0.532
		c-0.109-0.125-0.277-0.188-0.504-0.188c-0.184,0-0.34,0.049-0.468,0.148c-0.125,0.096-0.212,0.216-0.26,0.36
		c-0.056,0.147-0.129,0.244-0.22,0.292c-0.091,0.048-0.22,0.059-0.388,0.032l-0.656-0.116c0.043-0.291,0.124-0.544,0.244-0.76
		c0.123-0.216,0.273-0.396,0.452-0.54c0.181-0.144,0.388-0.251,0.62-0.32c0.232-0.072,0.481-0.108,0.748-0.108
		c0.288,0,0.547,0.043,0.776,0.128c0.232,0.083,0.429,0.199,0.592,0.348c0.163,0.149,0.287,0.328,0.372,0.536
		c0.088,0.205,0.132,0.432,0.132,0.68c0,0.213-0.031,0.411-0.092,0.592c-0.059,0.181-0.14,0.355-0.244,0.52
		c-0.104,0.163-0.225,0.321-0.364,0.476c-0.136,0.152-0.281,0.307-0.436,0.464l-1.14,1.168c0.147-0.045,0.292-0.08,0.436-0.104
		c0.144-0.024,0.277-0.036,0.4-0.036H78.844z"/>
</g>
<path class="st2" d="M87.719,98.256h-1.48v1.592h-1.008v-1.592h-1.472v-0.888h1.472v-1.584h1.008v1.584h1.48V98.256z M88.292,96.336
	c0.043-0.291,0.124-0.544,0.244-0.76c0.123-0.216,0.273-0.396,0.452-0.54c0.181-0.144,0.388-0.251,0.62-0.32
	c0.232-0.072,0.481-0.108,0.748-0.108c0.288,0,0.544,0.041,0.768,0.124c0.224,0.08,0.413,0.189,0.568,0.328
	c0.155,0.139,0.272,0.3,0.352,0.484c0.08,0.181,0.12,0.373,0.12,0.576c0,0.184-0.019,0.347-0.056,0.488
	c-0.037,0.139-0.093,0.26-0.168,0.364c-0.072,0.101-0.163,0.188-0.272,0.26c-0.107,0.069-0.229,0.128-0.368,0.176
	c0.645,0.227,0.968,0.667,0.968,1.32c0,0.309-0.056,0.579-0.168,0.808c-0.112,0.229-0.263,0.42-0.452,0.572
	c-0.187,0.152-0.404,0.267-0.652,0.344c-0.248,0.075-0.507,0.112-0.776,0.112c-0.277,0-0.524-0.029-0.74-0.088
	c-0.216-0.061-0.408-0.155-0.576-0.28c-0.168-0.128-0.316-0.291-0.444-0.488c-0.125-0.197-0.235-0.432-0.328-0.704l0.552-0.224
	c0.144-0.056,0.277-0.071,0.4-0.044c0.123,0.027,0.211,0.088,0.264,0.184c0.12,0.221,0.247,0.383,0.38,0.484
	c0.136,0.099,0.295,0.148,0.476,0.148c0.139,0,0.259-0.023,0.36-0.068c0.104-0.048,0.189-0.108,0.256-0.18
	c0.069-0.075,0.121-0.159,0.156-0.252s0.052-0.188,0.052-0.284c0-0.125-0.009-0.237-0.028-0.336
	c-0.016-0.101-0.064-0.188-0.144-0.26c-0.08-0.072-0.201-0.127-0.364-0.164c-0.16-0.04-0.384-0.06-0.672-0.06v-0.856
	c0.243,0,0.439-0.019,0.588-0.056s0.264-0.088,0.344-0.152c0.083-0.067,0.137-0.147,0.164-0.24s0.04-0.196,0.04-0.308
	c0-0.229-0.056-0.405-0.168-0.528c-0.109-0.125-0.277-0.188-0.504-0.188c-0.184,0-0.34,0.049-0.468,0.148
	c-0.125,0.096-0.212,0.216-0.26,0.36c-0.056,0.147-0.129,0.244-0.22,0.292c-0.091,0.048-0.22,0.059-0.388,0.032L88.292,96.336z"/>
<path class="st2" d="M6.66,115.568h2.16v1H6.66V115.568z M9.468,114.336c0.043-0.291,0.124-0.544,0.244-0.76
	c0.123-0.216,0.273-0.396,0.452-0.54c0.181-0.144,0.388-0.251,0.62-0.32c0.232-0.072,0.481-0.108,0.748-0.108
	c0.288,0,0.544,0.041,0.768,0.124c0.224,0.08,0.413,0.189,0.568,0.328c0.155,0.139,0.272,0.3,0.352,0.484
	c0.08,0.181,0.12,0.373,0.12,0.576c0,0.184-0.019,0.347-0.056,0.488c-0.037,0.139-0.093,0.26-0.168,0.364
	c-0.072,0.101-0.163,0.188-0.272,0.26c-0.107,0.069-0.229,0.128-0.368,0.176c0.645,0.227,0.968,0.667,0.968,1.32
	c0,0.309-0.056,0.579-0.168,0.808c-0.112,0.229-0.263,0.42-0.452,0.572c-0.187,0.152-0.404,0.267-0.652,0.344
	c-0.248,0.075-0.507,0.112-0.776,0.112c-0.277,0-0.524-0.029-0.74-0.088c-0.216-0.061-0.408-0.155-0.576-0.28
	c-0.168-0.128-0.316-0.291-0.444-0.488c-0.125-0.197-0.235-0.432-0.328-0.704l0.552-0.224c0.144-0.056,0.277-0.071,0.4-0.044
	c0.123,0.027,0.211,0.088,0.264,0.184c0.12,0.221,0.247,0.383,0.38,0.484c0.136,0.099,0.295,0.148,0.476,0.148
	c0.139,0,0.259-0.023,0.36-0.068c0.104-0.048,0.189-0.108,0.256-0.18c0.069-0.075,0.121-0.159,0.156-0.252
	c0.035-0.093,0.052-0.188,0.052-0.284c0-0.125-0.009-0.237-0.028-0.336c-0.016-0.101-0.064-0.188-0.144-0.26
	c-0.08-0.072-0.201-0.127-0.364-0.164c-0.16-0.04-0.384-0.06-0.672-0.06v-0.856c0.243,0,0.439-0.019,0.588-0.056
	c0.149-0.037,0.264-0.088,0.344-0.152c0.083-0.067,0.137-0.147,0.164-0.24c0.027-0.093,0.04-0.196,0.04-0.308
	c0-0.229-0.056-0.405-0.168-0.528c-0.109-0.125-0.277-0.188-0.504-0.188c-0.184,0-0.34,0.049-0.468,0.148
	c-0.125,0.096-0.212,0.216-0.26,0.36c-0.056,0.147-0.129,0.244-0.22,0.292c-0.091,0.048-0.22,0.059-0.388,0.032L9.468,114.336z"/>
<path class="st2" d="M19.66,115.568h2.16v1h-2.16V115.568z M26.02,117.38c0.133,0,0.239,0.037,0.316,0.112
	c0.077,0.072,0.116,0.168,0.116,0.288v0.72h-4.096v-0.4c0-0.077,0.016-0.16,0.048-0.248c0.032-0.088,0.088-0.168,0.168-0.24
	l1.68-1.692c0.144-0.144,0.269-0.281,0.376-0.412c0.107-0.131,0.195-0.259,0.264-0.384c0.069-0.128,0.121-0.255,0.156-0.38
	c0.035-0.128,0.052-0.263,0.052-0.404c0-0.232-0.056-0.409-0.168-0.532c-0.109-0.125-0.277-0.188-0.504-0.188
	c-0.184,0-0.34,0.049-0.468,0.148c-0.125,0.096-0.212,0.216-0.26,0.36c-0.056,0.147-0.129,0.244-0.22,0.292
	c-0.091,0.048-0.22,0.059-0.388,0.032l-0.656-0.116c0.043-0.291,0.124-0.544,0.244-0.76c0.123-0.216,0.273-0.396,0.452-0.54
	c0.181-0.144,0.388-0.251,0.62-0.32c0.232-0.072,0.481-0.108,0.748-0.108c0.288,0,0.547,0.043,0.776,0.128
	c0.232,0.083,0.429,0.199,0.592,0.348c0.163,0.149,0.287,0.328,0.372,0.536c0.088,0.205,0.132,0.432,0.132,0.68
	c0,0.213-0.031,0.411-0.092,0.592c-0.059,0.181-0.14,0.355-0.244,0.52c-0.104,0.163-0.225,0.321-0.364,0.476
	c-0.136,0.152-0.281,0.307-0.436,0.464l-1.14,1.168c0.147-0.045,0.292-0.08,0.436-0.104c0.144-0.024,0.277-0.036,0.4-0.036H26.02z"
	/>
<path class="st2" d="M32.66,115.568h2.16v1h-2.16V115.568z M39.32,117.604v0.896H36v-0.896h1.12v-2.94
	c0-0.075,0.001-0.149,0.004-0.224c0.003-0.077,0.007-0.155,0.012-0.232l-0.664,0.552c-0.059,0.045-0.117,0.073-0.176,0.084
	c-0.056,0.008-0.109,0.008-0.16,0c-0.051-0.011-0.096-0.028-0.136-0.052c-0.04-0.027-0.069-0.053-0.088-0.08l-0.392-0.52
	l1.816-1.524h1.024v4.936H39.32z"/>
<path class="st2" d="M51.16,115.584c0,0.509-0.055,0.951-0.164,1.324c-0.109,0.373-0.261,0.683-0.456,0.928
	c-0.192,0.245-0.421,0.428-0.688,0.548c-0.264,0.12-0.551,0.18-0.86,0.18s-0.596-0.06-0.86-0.18c-0.261-0.12-0.488-0.303-0.68-0.548
	c-0.192-0.245-0.343-0.555-0.452-0.928c-0.107-0.373-0.16-0.815-0.16-1.324s0.053-0.951,0.16-1.324
	c0.109-0.373,0.26-0.683,0.452-0.928c0.192-0.245,0.419-0.427,0.68-0.544c0.264-0.12,0.551-0.18,0.86-0.18s0.596,0.06,0.86,0.18
	c0.267,0.117,0.496,0.299,0.688,0.544c0.195,0.245,0.347,0.555,0.456,0.928C51.105,114.633,51.16,115.075,51.16,115.584z
	 M49.88,115.584c0-0.403-0.025-0.732-0.076-0.988c-0.051-0.259-0.119-0.461-0.204-0.608c-0.083-0.147-0.177-0.247-0.284-0.3
	c-0.107-0.056-0.215-0.084-0.324-0.084c-0.109,0-0.217,0.028-0.324,0.084c-0.104,0.053-0.197,0.153-0.28,0.3
	c-0.08,0.147-0.145,0.349-0.196,0.608c-0.048,0.256-0.072,0.585-0.072,0.988c0,0.405,0.024,0.736,0.072,0.992
	c0.051,0.256,0.116,0.459,0.196,0.608c0.083,0.147,0.176,0.248,0.28,0.304c0.107,0.053,0.215,0.08,0.324,0.08
	c0.109,0,0.217-0.027,0.324-0.08c0.107-0.056,0.201-0.157,0.284-0.304c0.085-0.149,0.153-0.352,0.204-0.608
	C49.854,116.32,49.88,115.989,49.88,115.584z"/>
<path class="st2" d="M61.719,116.256h-1.48v1.592h-1.008v-1.592h-1.472v-0.888h1.472v-1.584h1.008v1.584h1.48V116.256z
	 M66.144,117.604v0.896h-3.32v-0.896h1.12v-2.94c0-0.075,0.001-0.149,0.004-0.224c0.003-0.077,0.007-0.155,0.012-0.232l-0.664,0.552
	c-0.059,0.045-0.117,0.073-0.176,0.084c-0.056,0.008-0.109,0.008-0.16,0c-0.051-0.011-0.096-0.028-0.136-0.052
	c-0.04-0.027-0.069-0.053-0.088-0.08l-0.392-0.52l1.816-1.524h1.024v4.936H66.144z"/>
<path class="st2" d="M74.719,116.256h-1.48v1.592h-1.008v-1.592h-1.472v-0.888h1.472v-1.584h1.008v1.584h1.48V116.256z
	 M78.844,117.38c0.133,0,0.239,0.037,0.316,0.112c0.077,0.072,0.116,0.168,0.116,0.288v0.72H75.18v-0.4
	c0-0.077,0.016-0.16,0.048-0.248c0.032-0.088,0.088-0.168,0.168-0.24l1.68-1.692c0.144-0.144,0.269-0.281,0.376-0.412
	c0.107-0.131,0.195-0.259,0.264-0.384c0.069-0.128,0.121-0.255,0.156-0.38c0.035-0.128,0.052-0.263,0.052-0.404
	c0-0.232-0.056-0.409-0.168-0.532c-0.109-0.125-0.277-0.188-0.504-0.188c-0.184,0-0.34,0.049-0.468,0.148
	c-0.125,0.096-0.212,0.216-0.26,0.36c-0.056,0.147-0.129,0.244-0.22,0.292c-0.091,0.048-0.22,0.059-0.388,0.032l-0.656-0.116
	c0.043-0.291,0.124-0.544,0.244-0.76c0.123-0.216,0.273-0.396,0.452-0.54c0.181-0.144,0.388-0.251,0.62-0.32
	c0.232-0.072,0.481-0.108,0.748-0.108c0.288,0,0.547,0.043,0.776,0.128c0.232,0.083,0.429,0.199,0.592,0.348
	c0.163,0.149,0.287,0.328,0.372,0.536c0.088,0.205,0.132,0.432,0.132,0.68c0,0.213-0.031,0.411-0.092,0.592
	c-0.059,0.181-0.14,0.355-0.244,0.52c-0.104,0.163-0.225,0.321-0.364,0.476c-0.136,0.152-0.281,0.307-0.436,0.464l-1.14,1.168
	c0.147-0.045,0.292-0.08,0.436-0.104c0.144-0.024,0.277-0.036,0.4-0.036H78.844z"/>
<g>
	<path class="st0" d="M83.5,110h9c0.552,0,1,0.448,1,1v9c0,0.552-0.448,1-1,1h-9c-0.552,0-1-0.448-1-1v-9
		C82.5,110.448,82.948,110,83.5,110z"/>
	<path class="st1" d="M83.5,110h9c0.552,0,1,0.448,1,1v9c0,0.552-0.448,1-1,1h-9c-0.552,0-1-0.448-1-1v-9
		C82.5,110.448,82.948,110,83.5,110z"/>
	<path d="M87.719,116.256h-1.48v1.592h-1.008v-1.592h-1.472v-0.888h1.472v-1.584h1.008v1.584h1.48V116.256z M88.292,114.336
		c0.043-0.291,0.124-0.544,0.244-0.76c0.123-0.216,0.273-0.396,0.452-0.54c0.181-0.144,0.388-0.251,0.62-0.32
		c0.232-0.072,0.481-0.108,0.748-0.108c0.288,0,0.544,0.041,0.768,0.124c0.224,0.08,0.413,0.189,0.568,0.328s0.272,0.3,0.352,0.484
		c0.08,0.181,0.12,0.373,0.12,0.576c0,0.184-0.019,0.347-0.056,0.488c-0.037,0.139-0.093,0.26-0.168,0.364
		c-0.072,0.101-0.163,0.188-0.272,0.26c-0.107,0.069-0.229,0.128-0.368,0.176c0.645,0.227,0.968,0.667,0.968,1.32
		c0,0.309-0.056,0.579-0.168,0.808c-0.112,0.229-0.263,0.42-0.452,0.572c-0.187,0.152-0.404,0.267-0.652,0.344
		c-0.248,0.075-0.507,0.112-0.776,0.112c-0.277,0-0.524-0.029-0.74-0.088c-0.216-0.061-0.408-0.155-0.576-0.28
		c-0.168-0.128-0.316-0.291-0.444-0.488c-0.125-0.197-0.235-0.432-0.328-0.704l0.552-0.224c0.144-0.056,0.277-0.071,0.4-0.044
		c0.123,0.027,0.211,0.088,0.264,0.184c0.12,0.221,0.247,0.383,0.38,0.484c0.136,0.099,0.295,0.148,0.476,0.148
		c0.139,0,0.259-0.023,0.36-0.068c0.104-0.048,0.189-0.108,0.256-0.18c0.069-0.075,0.121-0.159,0.156-0.252
		c0.035-0.093,0.052-0.188,0.052-0.284c0-0.125-0.009-0.237-0.028-0.336c-0.016-0.101-0.064-0.188-0.144-0.26
		c-0.08-0.072-0.201-0.127-0.364-0.164c-0.16-0.04-0.384-0.06-0.672-0.06v-0.856c0.243,0,0.439-0.019,0.588-0.056
		c0.149-0.037,0.264-0.088,0.344-0.152c0.083-0.067,0.137-0.147,0.164-0.24c0.027-0.093,0.04-0.196,0.04-0.308
		c0-0.229-0.056-0.405-0.168-0.528c-0.109-0.125-0.277-0.188-0.504-0.188c-0.184,0-0.34,0.049-0.468,0.148
		c-0.125,0.096-0.212,0.216-0.26,0.36c-0.056,0.147-0.129,0.244-0.22,0.292c-0.091,0.048-0.22,0.059-0.388,0.032L88.292,114.336z"/>
</g>
</svg>
