<?xml version="1.0" encoding="utf-8"?>
<!-- Generator: Adobe Illustrator 22.0.0, SVG Export Plug-In . SVG Version: 6.00 Build 0)  -->
<svg version="1.1" baseProfile="basic"
	 id="svg18" inkscape:version="1.1 (c68e22c387, 2021-05-23)" sodipodi:docname="bmp00177.svg" xmlns:inkscape="http://www.inkscape.org/namespaces/inkscape" xmlns:sodipodi="http://sodipodi.sourceforge.net/DTD/sodipodi-0.dtd" xmlns:svg="http://www.w3.org/2000/svg"
	 xmlns="http://www.w3.org/2000/svg" xmlns:xlink="http://www.w3.org/1999/xlink" x="0px" y="0px" width="11px" height="22px"
	 viewBox="0 0 11 22" xml:space="preserve">
<style type="text/css">
	.st0{fill:#595959;}
	.st1{fill:#B4B4B4;}
	.st2{fill:#FF9300;}
	.st3{fill:#399DFF;}
	.st4{fill:#FF9300;stroke:#FF9300;}
	.st5{fill:#000001;}
</style>
<sodipodi:namedview  bordercolor="#666666" borderopacity="1.0" id="namedview20" inkscape:current-layer="svg18" inkscape:cx="5.4867788" inkscape:cy="10.986779" inkscape:pagecheckerboard="0" inkscape:pageopacity="0.0" inkscape:pageshadow="2" inkscape:window-height="1017" inkscape:window-maximized="1" inkscape:window-width="1920" inkscape:window-x="-8" inkscape:window-y="-8" inkscape:zoom="37.818182" pagecolor="#ffffff" showgrid="false">
	</sodipodi:namedview>
<path id="path2" class="st0" d="M0.5,2.5c0-1.1,0.9-2,2-2h6c1.1,0,2,0.9,2,2v6c0,1.1-0.9,2-2,2h-6c-1.1,0-2-0.9-2-2V2.5z"/>
<path id="path4" d="M2.5,1h6V0h-6V1z M10,2.5v6h1v-6H10z M8.5,10h-6v1h6V10z M1,8.5v-6H0v6H1z M2.5,10C1.7,10,1,9.3,1,8.5H0
	C0,9.9,1.1,11,2.5,11V10z M10,8.5C10,9.3,9.3,10,8.5,10v1C9.9,11,11,9.9,11,8.5H10z M8.5,1C9.3,1,10,1.7,10,2.5h1
	C11,1.1,9.9,0,8.5,0V1z M2.5,0C1.1,0,0,1.1,0,2.5h1C1,1.7,1.7,1,2.5,1V0z"/>
<path id="path6" class="st1" d="M6.3,3L3.4,5.8l1.7,1.7L8,4.7L6.3,3z M4.6,8L3,6.4V8H4.6z"/>
<path id="path8" class="st2" d="M0.5,13.5c0-1.1,0.9-2,2-2h6c1.1,0,2,0.9,2,2v6c0,1.1-0.9,2-2,2h-6c-1.1,0-2-0.9-2-2V13.5z"/>
<path id="rect10" class="st3" d="M2.8,13.5h5.5c0.1,0,0.3,0.1,0.3,0.3v5.5c0,0.1-0.1,0.3-0.3,0.3H2.8c-0.1,0-0.3-0.1-0.3-0.3v-5.5
	C2.5,13.6,2.6,13.5,2.8,13.5z"/>
<path id="rect12" class="st4" d="M2.8,13.5h5.5c0.1,0,0.3,0.1,0.3,0.3v5.5c0,0.1-0.1,0.3-0.3,0.3H2.8c-0.1,0-0.3-0.1-0.3-0.3v-5.5
	C2.5,13.6,2.6,13.5,2.8,13.5z"/>
<path id="path14" d="M2.5,12h6v-1h-6V12z M10,13.5v6h1v-6H10z M8.5,21h-6v1h6V21z M1,19.5v-6H0v6H1z M2.5,21C1.7,21,1,20.3,1,19.5H0
	C0,20.9,1.1,22,2.5,22V21z M10,19.5c0,0.8-0.7,1.5-1.5,1.5v1c1.4,0,2.5-1.1,2.5-2.5H10z M8.5,12c0.8,0,1.5,0.7,1.5,1.5h1
	c0-1.4-1.1-2.5-2.5-2.5V12z M2.5,11C1.1,11,0,12.1,0,13.5h1C1,12.7,1.7,12,2.5,12V11z"/>
<path id="path16" class="st5" d="M6.3,14l-2.9,2.8l1.7,1.7L8,15.7L6.3,14z M4.6,19L3,17.4V19H4.6z"/>
</svg>
