<?xml version="1.0" encoding="utf-8"?>
<!-- Generator: Adobe Illustrator 22.0.0, SVG Export Plug-In . SVG Version: 6.00 Build 0)  -->
<svg version="1.1" baseProfile="basic"
	 id="svg18" inkscape:version="1.1 (c68e22c387, 2021-05-23)" sodipodi:docname="bmp00121.svg" xmlns:inkscape="http://www.inkscape.org/namespaces/inkscape" xmlns:sodipodi="http://sodipodi.sourceforge.net/DTD/sodipodi-0.dtd" xmlns:svg="http://www.w3.org/2000/svg"
	 xmlns="http://www.w3.org/2000/svg" xmlns:xlink="http://www.w3.org/1999/xlink" x="0px" y="0px" width="12px" height="34px"
	 viewBox="0 0 12 34" xml:space="preserve">
<style type="text/css">
	.st0{fill:#FF9300;}
	.st1{fill:none;stroke:#FF9300;}
	.st2{fill:#595959;}
	.st3{fill:#B4B4B4;}
</style>
<sodipodi:namedview  bordercolor="#666666" borderopacity="1.0" id="namedview20" inkscape:current-layer="svg18" inkscape:cx="5.9867788" inkscape:cy="17.020433" inkscape:pagecheckerboard="0" inkscape:pageopacity="0.0" inkscape:pageshadow="2" inkscape:window-height="1017" inkscape:window-maximized="1" inkscape:window-width="1920" inkscape:window-x="-8" inkscape:window-y="-8" inkscape:zoom="24.470588" pagecolor="#ffffff" showgrid="false">
	</sodipodi:namedview>
<path id="path2" class="st0" d="M1.5,21.5c0-1.1,0.9-2,2-2h5c1.1,0,2,0.9,2,2v8c0,1.1-0.9,2-2,2h-5c-1.1,0-2-0.9-2-2V21.5z"/>
<path id="rect4" class="st0" d="M4,21.5h4c0.3,0,0.5,0.2,0.5,0.5v7c0,0.3-0.2,0.5-0.5,0.5H4c-0.3,0-0.5-0.2-0.5-0.5v-7
	C3.5,21.7,3.7,21.5,4,21.5z"/>
<path id="rect6" class="st1" d="M4,21.5h4c0.3,0,0.5,0.2,0.5,0.5v7c0,0.3-0.2,0.5-0.5,0.5H4c-0.3,0-0.5-0.2-0.5-0.5v-7
	C3.5,21.7,3.7,21.5,4,21.5z"/>
<path id="path8" d="M3.5,20h5v-1h-5V20z M10,21.5v8h1v-8H10z M8.5,31h-5v1h5V31z M2,29.5v-8H1v8H2z M3.5,31C2.7,31,2,30.3,2,29.5H1
	C1,30.9,2.1,32,3.5,32V31z M10,29.5c0,0.8-0.7,1.5-1.5,1.5v1c1.4,0,2.5-1.1,2.5-2.5H10z M8.5,20c0.8,0,1.5,0.7,1.5,1.5h1
	c0-1.4-1.1-2.5-2.5-2.5V20z M3.5,19C2.1,19,1,20.1,1,21.5h1C2,20.7,2.7,20,3.5,20V19z"/>
<path id="path10" d="M6.5,28h-1v-2h-2v-1h2v-2h1v2h2v1h-2V28z"/>
<path id="path12" class="st2" d="M1.5,3.5c0-1.1,0.9-2,2-2h5c1.1,0,2,0.9,2,2v8c0,1.1-0.9,2-2,2h-5c-1.1,0-2-0.9-2-2V3.5z"/>
<path id="path14" d="M3.5,2h5V1h-5V2z M10,3.5v8h1v-8H10z M8.5,13h-5v1h5V13z M2,11.5v-8H1v8H2z M3.5,13C2.7,13,2,12.3,2,11.5H1
	C1,12.9,2.1,14,3.5,14V13z M10,11.5c0,0.8-0.7,1.5-1.5,1.5v1c1.4,0,2.5-1.1,2.5-2.5H10z M8.5,2C9.3,2,10,2.7,10,3.5h1
	C11,2.1,9.9,1,8.5,1V2z M3.5,1C2.1,1,1,2.1,1,3.5h1C2,2.7,2.7,2,3.5,2V1z"/>
<path id="path16" class="st3" d="M6.5,10h-1V8h-2V7h2V5h1v2h2v1h-2V10z"/>
</svg>
