<?xml version="1.0" encoding="utf-8"?>
<!-- Generator: Adobe Illustrator 22.0.0, SVG Export Plug-In . SVG Version: 6.00 Build 0)  -->
<svg version="1.1" id="Layer_1" xmlns="http://www.w3.org/2000/svg" xmlns:xlink="http://www.w3.org/1999/xlink" x="0px" y="0px"
	 width="45px" height="18px" viewBox="0 0 45 18" style="enable-background:new 0 0 45 18;" xml:space="preserve">
<style type="text/css">
	.st0{fill:#399DFF;}
	.st1{fill:none;stroke:#399DFF;}
	.st2{fill:#FFFFFF;}
	.st3{fill:#FF9300;}
	.st4{fill:none;stroke:#FFFFFF;}
</style>
<path class="st0" d="M1.5,0.5h42c0.6,0,1,0.4,1,1v6c0,0.6-0.4,1-1,1h-42c-0.6,0-1-0.4-1-1v-6C0.5,0.9,0.9,0.5,1.5,0.5z"/>
<path class="st1" d="M1.5,0.5h42c0.6,0,1,0.4,1,1v6c0,0.6-0.4,1-1,1h-42c-0.6,0-1-0.4-1-1v-6C0.5,0.9,0.9,0.5,1.5,0.5z"/>
<path class="st2" d="M3.8,4.5H4c0.2,0,0.3-0.1,0.4-0.2l1.3-1.9C5.8,2.3,5.9,2.3,6,2.2c0.1,0,0.2-0.1,0.3-0.1h1.2L5.8,4.5
	C5.7,4.7,5.5,4.8,5.4,4.9C5.5,4.9,5.6,5,5.7,5c0.1,0.1,0.2,0.2,0.2,0.3L7.6,8H6.4c0,0-0.1,0-0.2,0C6.1,8,6.1,8,6.1,8S6,8,6,7.9
	L5.9,7.8l-1.3-2c0-0.1-0.1-0.1-0.2-0.2c-0.1,0-0.2,0-0.3,0H3.8V8H2.4V2.2h1.4C3.8,2.2,3.8,4.5,3.8,4.5z M9.3,3.2v1.4h1.8v1H9.3V7
	h2.4v1H8V2.2h3.8v1H9.3z M15.2,5.8V8h-1.4V5.8l-2.1-3.6h1.2c0.1,0,0.2,0,0.3,0.1s0.1,0.1,0.2,0.2l0.8,1.7c0.1,0.1,0.1,0.3,0.2,0.4
	c0.1,0.1,0.1,0.2,0.1,0.3c0-0.1,0.1-0.2,0.1-0.3c0.1-0.1,0.1-0.2,0.2-0.4l0.8-1.7c0,0,0-0.1,0.1-0.1l0.1-0.1l0.1-0.1
	c0,0,0.1,0,0.2,0h1.2L15.2,5.8z M21.9,3.2h-1.6V8h-1.4V3.2h-1.6v-1h4.6V3.2z M24.3,4.9c0.2,0,0.3,0,0.5-0.1c0.1,0,0.2-0.1,0.3-0.2
	c0.1-0.1,0.1-0.2,0.2-0.3c0-0.1,0.1-0.2,0.1-0.4c0-0.3-0.1-0.5-0.3-0.6c-0.2-0.1-0.4-0.2-0.8-0.2h-0.5v1.7h0.5V4.9z M27.2,8H26
	c-0.2,0-0.4-0.1-0.5-0.3l-1-1.7c0-0.1-0.1-0.1-0.2-0.2c-0.1,0-0.1-0.1-0.2-0.1h-0.3V8h-1.4V2.2h1.9c0.4,0,0.8,0,1.1,0.1
	c0.3,0.1,0.5,0.2,0.7,0.4s0.3,0.3,0.4,0.5s0.1,0.4,0.1,0.7c0,0.2,0,0.4-0.1,0.5c-0.1,0.2-0.1,0.3-0.2,0.5c0,0.1-0.2,0.3-0.3,0.4
	c-0.1,0.1-0.3,0.2-0.5,0.3c0.1,0,0.2,0.1,0.2,0.2c0.1,0.1,0.1,0.1,0.2,0.2L27.2,8z M30.6,5.8l-0.5-1.6C30.1,4.1,30,4,30,3.8
	c0-0.1-0.1-0.3-0.1-0.4c0,0.2-0.1,0.3-0.1,0.5c0,0.1-0.1,0.3-0.1,0.4L29,5.8H30.6z M32.8,8h-1c-0.1,0-0.2,0-0.3-0.1
	c-0.1-0.1-0.1-0.1-0.2-0.2l-0.3-1h-2.2l-0.3,1c0,0.1-0.1,0.1-0.2,0.2C28.1,8,28.1,8,27.9,8h-1.1l2.3-5.8h1.4L32.8,8z M36.9,6.5
	L36.9,6.5c0.1,0,0.1,0,0.1,0.1l0.5,0.6c-0.2,0.3-0.5,0.5-0.9,0.7s-0.8,0.2-1.3,0.2c-0.4,0-0.8-0.1-1.2-0.2c-0.3-0.2-0.6-0.4-0.9-0.6
	C33,7,32.8,6.7,32.6,6.4c-0.1-0.4-0.2-0.8-0.2-1.2c0-0.4,0.1-0.8,0.2-1.2c0.1-0.4,0.3-0.7,0.6-0.9c0.3-0.3,0.6-0.5,0.9-0.6
	c0.4-0.1,0.8-0.2,1.2-0.2c0.2,0,0.4,0,0.6,0.1c0.2,0,0.4,0.1,0.5,0.2c0.2,0.1,0.3,0.1,0.5,0.2C37,2.9,37.2,3,37.3,3.1l-0.5,0.6
	l-0.1,0.1c0,0-0.1,0-0.2,0h-0.1c0,0-0.1,0-0.1-0.1c0,0-0.1-0.1-0.2-0.1c-0.1,0-0.1-0.1-0.2-0.1c-0.1,0-0.2-0.1-0.3-0.1s-0.2,0-0.4,0
	s-0.4,0-0.6,0.1c-0.2,0.1-0.3,0.2-0.5,0.4c-0.1,0.2-0.2,0.4-0.3,0.6C34,4.5,34,4.8,34,5.1c0,0.3,0,0.6,0.1,0.8
	c0.1,0.2,0.2,0.4,0.3,0.6s0.3,0.3,0.5,0.4c0.2,0,0.4,0.1,0.6,0.1c0.1,0,0.2,0,0.3,0s0.2,0,0.3-0.1c0.1,0,0.2-0.1,0.2-0.1
	c0.1,0,0.2-0.1,0.2-0.2c0,0,0.1,0,0.1-0.1C36.8,6.5,36.8,6.5,36.9,6.5z M39.4,4.5h0.2c0.2,0,0.3-0.1,0.4-0.2l1.3-1.9
	c0.1-0.1,0.2-0.2,0.2-0.2c0.1,0,0.2-0.1,0.3-0.1H43l-1.7,2.4c-0.1,0.2-0.3,0.3-0.4,0.4c0.1,0,0.2,0.1,0.3,0.2s0.2,0.2,0.2,0.3
	L43.3,8h-1.2C42,8,42,8,41.9,8c-0.1,0-0.1,0-0.1,0s-0.1,0-0.1-0.1l-0.1-0.1l-1.3-2c0-0.1-0.1-0.1-0.2-0.2c-0.1,0-0.2,0-0.3,0h-0.3V8
	h-1.4V2.2h1.4v2.3H39.4z"/>
<path class="st3" d="M1.5,9.5h42c0.6,0,1,0.4,1,1v6c0,0.6-0.4,1-1,1h-42c-0.6,0-1-0.4-1-1v-6C0.5,9.9,0.9,9.5,1.5,9.5z"/>
<path class="st4" d="M1.5,9.5h42c0.6,0,1,0.4,1,1v6c0,0.6-0.4,1-1,1h-42c-0.6,0-1-0.4-1-1v-6C0.5,9.9,0.9,9.5,1.5,9.5z"/>
<path d="M3.8,13.5H4c0.2,0,0.3-0.1,0.4-0.2l1.3-1.9c0.1-0.1,0.2-0.2,0.2-0.2c0.1,0,0.2-0.1,0.3-0.1h1.2l-1.7,2.4
	c-0.1,0.2-0.3,0.3-0.4,0.4c0.1,0,0.2,0.1,0.3,0.2c0.1,0.1,0.2,0.2,0.2,0.3L7.6,17H6.4c-0.1,0-0.1,0-0.2,0s-0.1,0-0.1,0S6,17,6,16.9
	l-0.1-0.1l-1.3-2c0-0.1-0.1-0.1-0.2-0.2c-0.1,0-0.2,0-0.3,0H3.8V17H2.4v-5.8h1.4C3.8,11.2,3.8,13.5,3.8,13.5z M9.3,12.2v1.4h1.8v1
	H9.3V16h2.4v1H8v-5.8h3.8v1H9.3z M15.2,14.8V17h-1.4v-2.2l-2.1-3.6h1.2c0.1,0,0.2,0,0.3,0.1s0.1,0.1,0.2,0.2l0.8,1.7
	c0.1,0.1,0.1,0.3,0.2,0.4c0.1,0.1,0.1,0.2,0.1,0.3c0-0.1,0.1-0.2,0.1-0.3c0.1-0.1,0.1-0.2,0.2-0.4l0.8-1.7c0,0,0-0.1,0.1-0.1
	l0.1-0.1l0.1-0.1c0,0,0.1,0,0.2,0h1.2L15.2,14.8z M21.9,12.2h-1.6V17h-1.4v-4.8h-1.6v-1.1h4.6V12.2z M24.3,13.9c0.2,0,0.3,0,0.5-0.1
	c0.1,0,0.2-0.1,0.3-0.2c0.1-0.1,0.1-0.2,0.2-0.3c0-0.1,0.1-0.2,0.1-0.4c0-0.3-0.1-0.5-0.3-0.6c-0.2-0.1-0.4-0.2-0.8-0.2h-0.5v1.7
	h0.5V13.9z M27.2,17H26c-0.2,0-0.4-0.1-0.5-0.3l-1-1.7c0-0.1-0.1-0.1-0.2-0.2c-0.1,0-0.1-0.1-0.2-0.1h-0.3V17h-1.4v-5.8h1.9
	c0.4,0,0.8,0,1.1,0.1c0.3,0.1,0.5,0.2,0.7,0.4s0.3,0.3,0.4,0.5s0.1,0.4,0.1,0.7c0,0.2,0,0.4-0.1,0.5c-0.1,0.2-0.1,0.3-0.2,0.5
	c-0.1,0.1-0.2,0.3-0.4,0.4c-0.1,0.1-0.3,0.2-0.5,0.3c0.1,0,0.2,0.1,0.2,0.2c0.1,0.1,0.1,0.1,0.2,0.2L27.2,17z M30.6,14.8l-0.5-1.6
	c0-0.1-0.1-0.2-0.1-0.4c0-0.1-0.1-0.3-0.1-0.4c0,0.2-0.1,0.3-0.1,0.5c0,0.1-0.1,0.3-0.1,0.4L29,14.8H30.6z M32.8,17h-1
	c-0.1,0-0.2,0-0.3-0.1c-0.1-0.1-0.1-0.1-0.2-0.2l-0.3-1h-2.2l-0.3,1c0,0.1-0.1,0.1-0.2,0.2C28.1,17,28.1,17,27.9,17h-1.1l2.3-5.8
	h1.4L32.8,17z M36.9,15.5L36.9,15.5c0.1,0,0.2,0.1,0.2,0.1l0.5,0.6c-0.2,0.3-0.5,0.5-0.9,0.7s-0.8,0.2-1.3,0.2
	c-0.4,0-0.8-0.1-1.2-0.2c-0.3-0.2-0.6-0.4-0.9-0.6c-0.2-0.3-0.4-0.6-0.6-0.9c-0.1-0.4-0.2-0.8-0.2-1.2s0.1-0.8,0.2-1.2
	c0.1-0.4,0.3-0.7,0.6-0.9c0.3-0.3,0.6-0.5,0.9-0.6c0.4-0.1,0.8-0.2,1.2-0.2c0.2,0,0.4,0,0.6,0.1c0.2,0,0.4,0.1,0.5,0.2
	c0.2,0.1,0.3,0.1,0.5,0.2c0.1,0.1,0.3,0.2,0.4,0.3l-0.5,0.6l-0.1,0.1c0,0-0.1,0-0.2,0h-0.1c0,0-0.1,0-0.1-0.1c0,0-0.1-0.1-0.2-0.1
	c-0.1,0-0.1-0.1-0.2-0.1c-0.1,0-0.2-0.1-0.3-0.1s-0.2,0-0.4,0s-0.4,0-0.6,0.1c-0.2,0.1-0.3,0.2-0.5,0.4c-0.1,0.2-0.2,0.4-0.3,0.6
	c0.1,0,0.1,0.3,0.1,0.6s0,0.6,0.1,0.8s0.2,0.4,0.3,0.6c0.1,0.2,0.3,0.3,0.5,0.4s0.4,0.1,0.6,0.1c0.1,0,0.2,0,0.3,0s0.2,0,0.3-0.1
	c0.1,0,0.2-0.1,0.2-0.1c0.1,0,0.2-0.1,0.2-0.2c0,0,0.1,0,0.1-0.1C36.8,15.5,36.8,15.5,36.9,15.5z M39.4,13.5h0.2
	c0.2,0,0.3-0.1,0.4-0.2l1.3-1.9c0.1-0.1,0.2-0.2,0.2-0.2c0.1,0,0.2-0.1,0.3-0.1H43l-1.7,2.4c-0.1,0.2-0.3,0.3-0.4,0.4
	c0.1,0,0.2,0.1,0.3,0.2c0.1,0.1,0.2,0.2,0.2,0.3l1.8,2.7H42c-0.1,0-0.1,0-0.2,0c-0.1,0-0.1,0-0.1,0s-0.1,0-0.1-0.1l-0.1-0.1l-1.3-2
	c0-0.1-0.1-0.1-0.2-0.2c-0.1,0-0.2,0-0.3,0h-0.3V17H38v-5.8h1.4C39.4,11.2,39.4,13.5,39.4,13.5z"/>
</svg>
