<?xml version="1.0" encoding="utf-8"?>
<!-- Generator: Adobe Illustrator 22.0.0, SVG Export Plug-In . SVG Version: 6.00 Build 0)  -->
<svg version="1.1" baseProfile="basic" id="Layer_1"
	 xmlns="http://www.w3.org/2000/svg" xmlns:xlink="http://www.w3.org/1999/xlink" x="0px" y="0px" width="12px" height="34px"
	 viewBox="0 0 12 34" xml:space="preserve">
<style type="text/css">
	.st0{fill:#FF9300;}
	.st1{fill:none;stroke:#FFFFFF;}
	.st2{fill:#399DFF;}
	.st3{fill:none;stroke:#399DFF;}
	.st4{fill:#FFFFFF;}
</style>
<path class="st0" d="M3.5,20.5h5c0.6,0,1,0.4,1,1v8c0,0.6-0.4,1-1,1h-5c-0.6,0-1-0.4-1-1v-8C2.5,20.9,2.9,20.5,3.5,20.5z"/>
<path class="st1" d="M3.5,20.5h5c0.6,0,1,0.4,1,1v8c0,0.6-0.4,1-1,1h-5c-0.6,0-1-0.4-1-1v-8C2.5,20.9,2.9,20.5,3.5,20.5z"/>
<path d="M6.5,28h-1v-2h-2v-1h2v-2h1v2h2v1h-2V28z"/>
<path class="st2" d="M4,3.5h4c0.3,0,0.5,0.2,0.5,0.5v7c0,0.3-0.2,0.5-0.5,0.5H4c-0.3,0-0.5-0.2-0.5-0.5V4C3.5,3.7,3.7,3.5,4,3.5z"/>
<path class="st3" d="M4,3.5h4c0.3,0,0.5,0.2,0.5,0.5v7c0,0.3-0.2,0.5-0.5,0.5H4c-0.3,0-0.5-0.2-0.5-0.5V4C3.5,3.7,3.7,3.5,4,3.5z"/>
<path class="st4" d="M6.5,10h-1V8h-2V7h2V5h1v2h2v1h-2V10z"/>
</svg>
