<?xml version="1.0" encoding="utf-8"?>
<!-- Generator: Adobe Illustrator 22.0.0, SVG Export Plug-In . SVG Version: 6.00 Build 0)  -->
<svg version="1.1" baseProfile="basic" id="Layer_1"
	 xmlns="http://www.w3.org/2000/svg" xmlns:xlink="http://www.w3.org/1999/xlink" x="0px" y="0px" width="22px" height="30px"
	 viewBox="0 0 22 30" xml:space="preserve">
<style type="text/css">
	.st0{fill:#FF9300;}
	.st1{fill:none;stroke:#000000;}
	.st2{fill:#FFFFFF;}
	.st3{fill:#399DFF;}
	.st4{fill:none;stroke:#FFFFFF;}
</style>
<path class="st0" d="M3.5,2h13c0.6,0,1,0.4,1,1v6c0,0.6-0.4,1-1,1h-13c-0.6,0-1-0.4-1-1V3C2.5,2.4,2.9,2,3.5,2z"/>
<path class="st1" d="M3.5,2h13c0.6,0,1,0.4,1,1v6c0,0.6-0.4,1-1,1h-13c-0.6,0-1-0.4-1-1V3C2.5,2.4,2.9,2,3.5,2z"/>
<path class="st2" d="M12.9,3.4v5.1h-1V5.6c0-0.1,0-0.1,0-0.2c0-0.1,0-0.2,0-0.2l-1.4,2.6c0,0.1-0.1,0.1-0.2,0.2
	C10.3,8,10.2,8,10.1,8H9.9C9.8,8,9.7,8,9.7,7.9c-0.1,0-0.1-0.1-0.2-0.2L8.2,5.1c0,0.1,0,0.2,0,0.2c0,0.1,0,0.2,0,0.2v2.9h-1V3.4H8
	c0.1,0,0.1,0,0.1,0c0,0,0.1,0,0.1,0c0,0,0.1,0,0.1,0.1c0,0,0.1,0.1,0.1,0.1l1.3,2.6c0,0.1,0.1,0.2,0.1,0.3c0,0.1,0.1,0.2,0.1,0.3
	c0-0.1,0.1-0.2,0.1-0.3c0-0.1,0.1-0.2,0.1-0.3l1.3-2.6c0,0,0-0.1,0.1-0.1c0,0,0.1,0,0.1-0.1c0,0,0.1,0,0.1,0c0,0,0.1,0,0.1,0H12.9z"
	/>
<path class="st3" d="M3.5,17h13c0.6,0,1,0.4,1,1v6c0,0.6-0.4,1-1,1h-13c-0.6,0-1-0.4-1-1v-6C2.5,17.4,2.9,17,3.5,17z"/>
<path class="st4" d="M3.5,17h13c0.6,0,1,0.4,1,1v6c0,0.6-0.4,1-1,1h-13c-0.6,0-1-0.4-1-1v-6C2.5,17.4,2.9,17,3.5,17z"/>
<path class="st2" d="M12.9,18.4v5.1h-1v-2.9c0-0.1,0-0.1,0-0.2c0-0.1,0-0.2,0-0.2l-1.4,2.6c0,0.1-0.1,0.1-0.2,0.2
	c-0.1,0-0.2,0.1-0.2,0.1H9.9c-0.1,0-0.2,0-0.2-0.1c-0.1,0-0.1-0.1-0.2-0.2l-1.4-2.6c0,0.1,0,0.2,0,0.2c0,0.1,0,0.2,0,0.2v2.9h-1
	v-5.1H8c0.1,0,0.1,0,0.1,0c0,0,0.1,0,0.1,0c0,0,0.1,0,0.1,0.1c0,0,0.1,0.1,0.1,0.1l1.3,2.6c0,0.1,0.1,0.2,0.1,0.3
	c0,0.1,0.1,0.2,0.1,0.3c0-0.1,0.1-0.2,0.1-0.3c0-0.1,0.1-0.2,0.1-0.3l1.3-2.6c0,0,0-0.1,0.1-0.1c0,0,0.1,0,0.1-0.1c0,0,0.1,0,0.1,0
	c0,0,0.1,0,0.1,0H12.9z"/>
</svg>
