<?xml version="1.0" encoding="utf-8"?>
<!-- Generator: Adobe Illustrator 22.0.0, SVG Export Plug-In . SVG Version: 6.00 Build 0)  -->
<svg version="1.1" id="Layer_1" xmlns="http://www.w3.org/2000/svg" xmlns:xlink="http://www.w3.org/1999/xlink" x="0px" y="0px"
	 width="11px" height="22px" viewBox="0 0 11 22" style="enable-background:new 0 0 11 22;" xml:space="preserve">
<style type="text/css">
	.st0{fill:#399DFF;}
	.st1{fill:#B4B4B4;}
	.st2{fill:none;stroke:#FFFFFF;}
	.st3{fill:#FF9300;}
	.st4{fill:none;stroke:#000000;}
</style>
<path class="st0" d="M1,3.5C1,2.1,2.1,1,3.5,1h4C8.9,1,10,2.1,10,3.5v4C10,8.9,8.9,10,7.5,10h-4C2.1,10,1,8.9,1,7.5V3.5z"/>
<path class="st1" d="M5,10V1h1v9H5z"/>
<path class="st1" d="M1,5h9v1H1V5z"/>
<path class="st2" d="M9,3.5c-1.3,0-2,0-2,0c-1.5,0-1.5,4-3,4c0,0-0.7,0-2,0"/>
<path class="st3" d="M1,14.5C1,13.1,2.1,12,3.5,12h4c1.4,0,2.5,1.1,2.5,2.5v4c0,1.4-1.1,2.5-2.5,2.5h-4C2.1,21,1,19.9,1,18.5V14.5z"
	/>
<path class="st1" d="M5,21v-9h1v9H5z"/>
<path class="st1" d="M1,16h9v1H1V16z"/>
<path class="st4" d="M9,14.5c-1.3,0-2,0-2,0c-1.5,0-1.5,4-3,4c0,0-0.7,0-2,0"/>
</svg>
