<?xml version="1.0" encoding="utf-8"?>
<!-- Generator: Adobe Illustrator 22.0.0, SVG Export Plug-In . SVG Version: 6.00 Build 0)  -->
<svg version="1.1" baseProfile="basic" id="Layer_1"
	 xmlns="http://www.w3.org/2000/svg" xmlns:xlink="http://www.w3.org/1999/xlink" x="0px" y="0px" width="32px" height="12px"
	 viewBox="0 0 32 12" xml:space="preserve">
<style type="text/css">
	.st0{fill:#399DFF;}
	.st1{fill:none;stroke:#399DFF;}
</style>
<path class="st0" d="M3.5,2.5h25c0.6,0,1,0.4,1,1v5c0,0.6-0.4,1-1,1h-25c-0.6,0-1-0.4-1-1v-5C2.5,2.9,2.9,2.5,3.5,2.5z"/>
<path class="st1" d="M3.5,2.5h25c0.6,0,1,0.4,1,1v5c0,0.6-0.4,1-1,1h-25c-0.6,0-1-0.4-1-1v-5C2.5,2.9,2.9,2.5,3.5,2.5z"/>
</svg>
