<?xml version="1.0" encoding="utf-8"?>
<!-- Generator: Adobe Illustrator 22.0.0, SVG Export Plug-In . SVG Version: 6.00 Build 0)  -->
<svg version="1.1" baseProfile="basic" id="Layer_1"
	 xmlns="http://www.w3.org/2000/svg" xmlns:xlink="http://www.w3.org/1999/xlink" x="0px" y="0px" width="31px" height="24px"
	 viewBox="0 0 31 24" xml:space="preserve">
<style type="text/css">
	.st0{fill:#399DFF;}
	.st1{fill:none;stroke:#399DFF;}
	.st2{fill:#FFFFFF;}
	.st3{fill:#FF9300;}
	.st4{fill:none;stroke:#FFFFFF;}
</style>
<path class="st0" d="M3.6,2.5h24c0.6,0,1,0.4,1,1v5c0,0.6-0.4,1-1,1h-24c-0.6,0-1-0.4-1-1v-5C2.6,2.9,3,2.5,3.6,2.5z"/>
<path class="st1" d="M3.6,2.5h24c0.6,0,1,0.4,1,1v5c0,0.6-0.4,1-1,1h-24c-0.6,0-1-0.4-1-1v-5C2.6,2.9,3,2.5,3.6,2.5z"/>
<path class="st2" d="M10,3.7c0,0.1,0,0.1,0,0.2C10,3.9,9.9,4,9.9,4.1L7.2,8h2.8v1H5.4V8.5c0-0.1,0-0.1,0-0.2c0-0.1,0.1-0.1,0.1-0.2
	l2.7-3.9H5.7v-1H10V3.7z M12.3,4.8c0.3,0,0.6,0,0.9,0.1c0.3,0.1,0.5,0.2,0.7,0.4C14,5.5,14.1,5.8,14.2,6c0.1,0.3,0.2,0.6,0.2,0.9
	c0,0.3-0.1,0.6-0.2,0.9c-0.1,0.3-0.2,0.5-0.4,0.7c-0.2,0.2-0.4,0.3-0.7,0.4c-0.3,0.1-0.5,0.1-0.9,0.1c-0.3,0-0.6,0-0.9-0.1
	c-0.3-0.1-0.5-0.2-0.7-0.4c-0.2-0.2-0.3-0.4-0.4-0.7c-0.1-0.3-0.2-0.6-0.2-0.9c0-0.3,0.1-0.6,0.2-0.9c0.1-0.3,0.2-0.5,0.4-0.7
	c0.2-0.2,0.4-0.3,0.7-0.4C11.7,4.8,11.9,4.8,12.3,4.8z M12.3,8.1c0.3,0,0.5-0.1,0.6-0.3c0.1-0.2,0.2-0.5,0.2-0.9
	c0-0.4-0.1-0.7-0.2-0.9c-0.1-0.2-0.3-0.3-0.6-0.3c-0.3,0-0.5,0.1-0.6,0.3c-0.1,0.2-0.2,0.5-0.2,0.9c0,0.4,0.1,0.7,0.2,0.9
	C11.8,8,12,8.1,12.3,8.1z M16.8,4.8c0.3,0,0.6,0,0.9,0.1c0.3,0.1,0.5,0.2,0.7,0.4c0.2,0.2,0.3,0.4,0.4,0.7c0.1,0.3,0.2,0.6,0.2,0.9
	c0,0.3-0.1,0.6-0.2,0.9c-0.1,0.3-0.2,0.5-0.4,0.7c-0.2,0.2-0.4,0.3-0.7,0.4c-0.3,0.1-0.5,0.1-0.9,0.1c-0.3,0-0.6,0-0.9-0.1
	c-0.3-0.1-0.5-0.2-0.7-0.4c-0.2-0.2-0.3-0.4-0.4-0.7c-0.1-0.3-0.2-0.6-0.2-0.9c0-0.3,0.1-0.6,0.2-0.9c0.1-0.3,0.2-0.5,0.4-0.7
	c0.2-0.2,0.4-0.3,0.7-0.4C16.2,4.8,16.5,4.8,16.8,4.8z M16.8,8.1c0.3,0,0.5-0.1,0.6-0.3c0.1-0.2,0.2-0.5,0.2-0.9
	c0-0.4-0.1-0.7-0.2-0.9c-0.1-0.2-0.3-0.3-0.6-0.3c-0.3,0-0.5,0.1-0.6,0.3c-0.1,0.2-0.2,0.5-0.2,0.9c0,0.4,0.1,0.7,0.2,0.9
	C16.3,8,16.5,8.1,16.8,8.1z M19.4,9V4.9h0.8c0.2,0,0.3,0.1,0.3,0.2l0.1,0.2c0.1-0.1,0.1-0.1,0.2-0.2C20.8,5,20.9,5,21,4.9
	c0.1,0,0.2-0.1,0.3-0.1c0.1,0,0.2,0,0.3,0c0.3,0,0.5,0.1,0.6,0.2c0.2,0.1,0.3,0.3,0.4,0.5c0.1-0.1,0.2-0.2,0.3-0.3
	C23,5.1,23.1,5,23.2,5c0.1-0.1,0.2-0.1,0.4-0.1c0.1,0,0.3,0,0.4,0c0.2,0,0.4,0,0.6,0.1C24.8,5,24.9,5.1,25,5.2
	c0.1,0.1,0.2,0.3,0.3,0.5c0.1,0.2,0.1,0.4,0.1,0.7V9h-1.2V6.4c0-0.4-0.2-0.6-0.6-0.6c-0.2,0-0.3,0.1-0.4,0.2C23.1,6,23,6.2,23,6.4V9
	h-1.2V6.4c0-0.2,0-0.4-0.1-0.5c-0.1-0.1-0.2-0.1-0.4-0.1c-0.1,0-0.2,0-0.3,0.1c-0.1,0.1-0.2,0.1-0.3,0.2v3H19.4z"/>
<path class="st3" d="M2.6,13.5h26c0.6,0,1,0.4,1,1v7c0,0.6-0.4,1-1,1h-26c-0.6,0-1-0.4-1-1v-7C1.6,13.9,2,13.5,2.6,13.5z"/>
<path class="st4" d="M2.6,13.5h26c0.6,0,1,0.4,1,1v7c0,0.6-0.4,1-1,1h-26c-0.6,0-1-0.4-1-1v-7C1.6,13.9,2,13.5,2.6,13.5z"/>
<path d="M10,15.7c0,0.1,0,0.1,0,0.2c0,0.1-0.1,0.1-0.1,0.2L7.2,20h2.8v1H5.4v-0.5c0-0.1,0-0.1,0-0.2c0-0.1,0.1-0.1,0.1-0.2l2.7-3.9
	H5.7v-1H10V15.7z M12.3,16.8c0.3,0,0.6,0,0.9,0.1c0.3,0.1,0.5,0.2,0.7,0.4c0.2,0.2,0.3,0.4,0.4,0.7c0.1,0.3,0.2,0.6,0.2,0.9
	c0,0.3-0.1,0.6-0.2,0.9c-0.1,0.3-0.2,0.5-0.4,0.7c-0.2,0.2-0.4,0.3-0.7,0.4c-0.3,0.1-0.5,0.1-0.9,0.1c-0.3,0-0.6,0-0.9-0.1
	c-0.3-0.1-0.5-0.2-0.7-0.4c-0.2-0.2-0.3-0.4-0.4-0.7c-0.1-0.3-0.2-0.6-0.2-0.9c0-0.3,0.1-0.6,0.2-0.9c0.1-0.3,0.2-0.5,0.4-0.7
	c0.2-0.2,0.4-0.3,0.7-0.4C11.7,16.8,11.9,16.8,12.3,16.8z M12.3,20.1c0.3,0,0.5-0.1,0.6-0.3c0.1-0.2,0.2-0.5,0.2-0.9
	S13,18.2,12.9,18c-0.1-0.2-0.3-0.3-0.6-0.3c-0.3,0-0.5,0.1-0.6,0.3c-0.1,0.2-0.2,0.5-0.2,0.9s0.1,0.7,0.2,0.9
	C11.8,20,12,20.1,12.3,20.1z M16.8,16.8c0.3,0,0.6,0,0.9,0.1c0.3,0.1,0.5,0.2,0.7,0.4c0.2,0.2,0.3,0.4,0.4,0.7
	c0.1,0.3,0.2,0.6,0.2,0.9c0,0.3-0.1,0.6-0.2,0.9c-0.1,0.3-0.2,0.5-0.4,0.7c-0.2,0.2-0.4,0.3-0.7,0.4c-0.3,0.1-0.5,0.1-0.9,0.1
	c-0.3,0-0.6,0-0.9-0.1c-0.3-0.1-0.5-0.2-0.7-0.4c-0.2-0.2-0.3-0.4-0.4-0.7c-0.1-0.3-0.2-0.6-0.2-0.9c0-0.3,0.1-0.6,0.2-0.9
	c0.1-0.3,0.2-0.5,0.4-0.7c0.2-0.2,0.4-0.3,0.7-0.4C16.2,16.8,16.5,16.8,16.8,16.8z M16.8,20.1c0.3,0,0.5-0.1,0.6-0.3
	c0.1-0.2,0.2-0.5,0.2-0.9s-0.1-0.7-0.2-0.9c-0.1-0.2-0.3-0.3-0.6-0.3c-0.3,0-0.5,0.1-0.6,0.3c-0.1,0.2-0.2,0.5-0.2,0.9
	s0.1,0.7,0.2,0.9C16.3,20,16.5,20.1,16.8,20.1z M19.4,21v-4.1h0.8c0.2,0,0.3,0.1,0.3,0.2l0.1,0.2c0.1-0.1,0.1-0.1,0.2-0.2
	c0.1-0.1,0.2-0.1,0.2-0.2c0.1,0,0.2-0.1,0.3-0.1c0.1,0,0.2,0,0.3,0c0.3,0,0.5,0.1,0.6,0.2c0.2,0.1,0.3,0.3,0.4,0.5
	c0.1-0.1,0.2-0.2,0.3-0.3c0.1-0.1,0.2-0.2,0.3-0.2c0.1-0.1,0.2-0.1,0.4-0.1c0.1,0,0.3,0,0.4,0c0.2,0,0.4,0,0.6,0.1
	c0.2,0.1,0.3,0.2,0.5,0.3c0.1,0.1,0.2,0.3,0.3,0.5c0.1,0.2,0.1,0.4,0.1,0.7V21h-1.2v-2.6c0-0.4-0.2-0.6-0.6-0.6
	c-0.2,0-0.3,0.1-0.4,0.2C23.1,18,23,18.2,23,18.4V21h-1.2v-2.6c0-0.2,0-0.4-0.1-0.5c-0.1-0.1-0.2-0.1-0.4-0.1c-0.1,0-0.2,0-0.3,0.1
	c-0.1,0.1-0.2,0.1-0.3,0.2v3H19.4z"/>
</svg>
