<?xml version="1.0" encoding="utf-8"?>
<!-- Generator: Adobe Illustrator 22.0.0, SVG Export Plug-In . SVG Version: 6.00 Build 0)  -->
<svg version="1.1" baseProfile="basic" id="Layer_1"
	 xmlns="http://www.w3.org/2000/svg" xmlns:xlink="http://www.w3.org/1999/xlink" x="0px" y="0px" width="50px" height="282px"
	 viewBox="0 0 50 282" xml:space="preserve">
<style type="text/css">
	.st0{fill:#FF9000;}
	.st1{fill:none;stroke:#FFFFFF;}
</style>
<path class="st0" d="M2,55.3h46c0.6,0,1,0.4,1,1v5c0,0.6-0.4,1-1,1H2c-0.6,0-1-0.4-1-1v-5C1,55.7,1.4,55.3,2,55.3z"/>
<path class="st1" d="M2,55.3h46c0.6,0,1,0.4,1,1v5c0,0.6-0.4,1-1,1H2c-0.6,0-1-0.4-1-1v-5C1,55.7,1.4,55.3,2,55.3z"/>
<path d="M7.7,56.7v5.1h-1v-2.9c0-0.1,0-0.1,0-0.2c0-0.1,0-0.2,0-0.2L5.4,61c0,0.1-0.1,0.1-0.2,0.2c-0.1,0-0.2,0.1-0.2,0.1H4.8
	c-0.1,0-0.2,0-0.2-0.1c-0.1,0-0.1-0.1-0.2-0.2L3,58.3c0,0.1,0,0.2,0,0.2c0,0.1,0,0.2,0,0.2v2.9H2v-5.1h0.9c0.1,0,0.1,0,0.1,0
	c0,0,0.1,0,0.1,0s0.1,0,0.1,0.1c0,0,0.1,0.1,0.1,0.1l1.3,2.6c0,0.1,0.1,0.2,0.1,0.3c0,0.1,0.1,0.2,0.1,0.3c0-0.1,0.1-0.2,0.1-0.3
	c0-0.1,0.1-0.2,0.1-0.3l1.3-2.6c0,0,0-0.1,0.1-0.1c0,0,0.1,0,0.1-0.1c0,0,0.1,0,0.1,0c0,0,0.1,0,0.1,0H7.7z M13.6,59.2
	c0,0.4-0.1,0.7-0.2,1c-0.1,0.3-0.3,0.6-0.5,0.8c-0.2,0.2-0.5,0.4-0.8,0.5c-0.3,0.1-0.7,0.2-1.1,0.2c-0.4,0-0.8-0.1-1.1-0.2
	c-0.3-0.1-0.6-0.3-0.8-0.5c-0.2-0.2-0.4-0.5-0.5-0.8c-0.1-0.3-0.2-0.7-0.2-1c0-0.4,0.1-0.7,0.2-1c0.1-0.3,0.3-0.6,0.5-0.8
	c0.2-0.2,0.5-0.4,0.8-0.5c0.3-0.1,0.7-0.2,1.1-0.2c0.4,0,0.8,0.1,1.1,0.2c0.3,0.1,0.6,0.3,0.8,0.5c0.2,0.2,0.4,0.5,0.5,0.8
	C13.5,58.5,13.6,58.8,13.6,59.2z M12.4,59.2c0-0.3,0-0.5-0.1-0.7c-0.1-0.2-0.2-0.4-0.3-0.5c-0.1-0.1-0.3-0.2-0.4-0.3
	c-0.2-0.1-0.4-0.1-0.6-0.1c-0.2,0-0.4,0-0.6,0.1c-0.2,0.1-0.3,0.2-0.5,0.3c-0.1,0.1-0.2,0.3-0.3,0.5c-0.1,0.2-0.1,0.4-0.1,0.7
	c0,0.3,0,0.5,0.1,0.7c0.1,0.2,0.2,0.4,0.3,0.5c0.1,0.1,0.3,0.2,0.5,0.3c0.2,0.1,0.4,0.1,0.6,0.1c0.2,0,0.4,0,0.6-0.1
	c0.2-0.1,0.3-0.2,0.4-0.3c0.1-0.1,0.2-0.3,0.3-0.5C12.4,59.7,12.4,59.5,12.4,59.2z M18.7,56.7v5.1H18c-0.1,0-0.2,0-0.2,0
	c-0.1,0-0.1-0.1-0.2-0.2l-2.4-3c0,0.1,0,0.2,0,0.3c0,0.1,0,0.2,0,0.2v2.7h-1v-5.1h0.6c0.1,0,0.1,0,0.1,0c0,0,0.1,0,0.1,0
	c0,0,0.1,0,0.1,0.1c0,0,0.1,0.1,0.1,0.1l2.4,3.1c0-0.1,0-0.2,0-0.3c0-0.1,0-0.2,0-0.3v-2.7H18.7z M24.5,59.2c0,0.4-0.1,0.7-0.2,1
	c-0.1,0.3-0.3,0.6-0.5,0.8c-0.2,0.2-0.5,0.4-0.8,0.5c-0.3,0.1-0.7,0.2-1.1,0.2s-0.8-0.1-1.1-0.2s-0.6-0.3-0.8-0.5
	c-0.2-0.2-0.4-0.5-0.5-0.8c-0.1-0.3-0.2-0.7-0.2-1c0-0.4,0.1-0.7,0.2-1c0.1-0.3,0.3-0.6,0.5-0.8c0.2-0.2,0.5-0.4,0.8-0.5
	s0.7-0.2,1.1-0.2s0.8,0.1,1.1,0.2c0.3,0.1,0.6,0.3,0.8,0.5c0.2,0.2,0.4,0.5,0.5,0.8C24.5,58.5,24.5,58.8,24.5,59.2z M23.3,59.2
	c0-0.3,0-0.5-0.1-0.7c-0.1-0.2-0.2-0.4-0.3-0.5c-0.1-0.1-0.3-0.2-0.4-0.3c-0.2-0.1-0.4-0.1-0.6-0.1c-0.2,0-0.4,0-0.6,0.1
	c-0.2,0.1-0.3,0.2-0.5,0.3c-0.1,0.1-0.2,0.3-0.3,0.5c-0.1,0.2-0.1,0.4-0.1,0.7c0,0.3,0,0.5,0.1,0.7c0.1,0.2,0.2,0.4,0.3,0.5
	c0.1,0.1,0.3,0.2,0.5,0.3c0.2,0.1,0.4,0.1,0.6,0.1c0.2,0,0.4,0,0.6-0.1c0.2-0.1,0.3-0.2,0.4-0.3c0.1-0.1,0.2-0.3,0.3-0.5
	C23.3,59.7,23.3,59.5,23.3,59.2z"/>
<path class="st0" d="M2,110h46c0.6,0,1,0.4,1,1v5c0,0.6-0.4,1-1,1H2c-0.6,0-1-0.4-1-1v-5C1,110.4,1.4,110,2,110z"/>
<path class="st1" d="M2,110h46c0.6,0,1,0.4,1,1v5c0,0.6-0.4,1-1,1H2c-0.6,0-1-0.4-1-1v-5C1,110.4,1.4,110,2,110z"/>
<path d="M7.7,111.4v5.1h-1v-2.9c0-0.1,0-0.1,0-0.2c0-0.1,0-0.2,0-0.2l-1.4,2.6c0,0.1-0.1,0.1-0.2,0.2C5.1,116,5,116,4.9,116H4.8
	c-0.1,0-0.2,0-0.2-0.1c-0.1,0-0.1-0.1-0.2-0.2L3,113.1c0,0.1,0,0.2,0,0.2c0,0.1,0,0.2,0,0.2v2.9H2v-5.1h0.9c0.1,0,0.1,0,0.1,0
	c0,0,0.1,0,0.1,0c0,0,0.1,0,0.1,0.1c0,0,0.1,0.1,0.1,0.1l1.3,2.6c0,0.1,0.1,0.2,0.1,0.3c0,0.1,0.1,0.2,0.1,0.3
	c0-0.1,0.1-0.2,0.1-0.3c0-0.1,0.1-0.2,0.1-0.3l1.3-2.6c0,0,0-0.1,0.1-0.1c0,0,0.1,0,0.1-0.1c0,0,0.1,0,0.1,0c0,0,0.1,0,0.1,0H7.7z
	 M13.6,113.9c0,0.4-0.1,0.7-0.2,1c-0.1,0.3-0.3,0.6-0.5,0.8c-0.2,0.2-0.5,0.4-0.8,0.5c-0.3,0.1-0.7,0.2-1.1,0.2
	c-0.4,0-0.8-0.1-1.1-0.2c-0.3-0.1-0.6-0.3-0.8-0.5c-0.2-0.2-0.4-0.5-0.5-0.8c-0.1-0.3-0.2-0.7-0.2-1c0-0.4,0.1-0.7,0.2-1
	c0.1-0.3,0.3-0.6,0.5-0.8c0.2-0.2,0.5-0.4,0.8-0.5c0.3-0.1,0.7-0.2,1.1-0.2c0.4,0,0.8,0.1,1.1,0.2c0.3,0.1,0.6,0.3,0.8,0.6
	c0.2,0.2,0.4,0.5,0.5,0.8C13.5,113.2,13.6,113.6,13.6,113.9z M12.4,113.9c0-0.3,0-0.5-0.1-0.7c-0.1-0.2-0.2-0.4-0.3-0.5
	c-0.1-0.1-0.3-0.2-0.4-0.3c-0.2-0.1-0.4-0.1-0.6-0.1c-0.2,0-0.4,0-0.6,0.1c-0.2,0.1-0.3,0.2-0.5,0.3c-0.1,0.1-0.2,0.3-0.3,0.5
	c-0.1,0.2-0.1,0.4-0.1,0.7c0,0.3,0,0.5,0.1,0.7c0.1,0.2,0.2,0.4,0.3,0.5c0.1,0.1,0.3,0.2,0.5,0.3c0.2,0.1,0.4,0.1,0.6,0.1
	c0.2,0,0.4,0,0.6-0.1c0.2-0.1,0.3-0.2,0.4-0.3c0.1-0.1,0.2-0.3,0.3-0.5C12.4,114.4,12.4,114.2,12.4,113.9z M18.7,111.4v5.1H18
	c-0.1,0-0.2,0-0.2,0c-0.1,0-0.1-0.1-0.2-0.2l-2.4-3c0,0.1,0,0.2,0,0.3c0,0.1,0,0.2,0,0.2v2.7h-1v-5.1h0.6c0.1,0,0.1,0,0.1,0
	c0,0,0.1,0,0.1,0c0,0,0.1,0,0.1,0.1c0,0,0.1,0.1,0.1,0.1l2.4,3.1c0-0.1,0-0.2,0-0.3c0-0.1,0-0.2,0-0.3v-2.7H18.7z M24.5,113.9
	c0,0.4-0.1,0.7-0.2,1c-0.1,0.3-0.3,0.6-0.5,0.8c-0.2,0.2-0.5,0.4-0.8,0.5c-0.3,0.1-0.7,0.2-1.1,0.2s-0.8-0.1-1.1-0.2
	c-0.3-0.1-0.6-0.3-0.8-0.5c-0.2-0.2-0.4-0.5-0.5-0.8c-0.1-0.3-0.2-0.7-0.2-1c0-0.4,0.1-0.7,0.2-1c0.1-0.3,0.3-0.6,0.5-0.8
	c0.2-0.2,0.5-0.4,0.8-0.5c0.3-0.1,0.7-0.2,1.1-0.2s0.8,0.1,1.1,0.2c0.3,0.1,0.6,0.3,0.8,0.6c0.2,0.2,0.4,0.5,0.5,0.8
	C24.5,113.2,24.5,113.6,24.5,113.9z M23.3,113.9c0-0.3,0-0.5-0.1-0.7c-0.1-0.2-0.2-0.4-0.3-0.5c-0.1-0.1-0.3-0.2-0.4-0.3
	c-0.2-0.1-0.4-0.1-0.6-0.1c-0.2,0-0.4,0-0.6,0.1c-0.2,0.1-0.3,0.2-0.5,0.3c-0.1,0.1-0.2,0.3-0.3,0.5c-0.1,0.2-0.1,0.4-0.1,0.7
	c0,0.3,0,0.5,0.1,0.7c0.1,0.2,0.2,0.4,0.3,0.5c0.1,0.1,0.3,0.2,0.5,0.3c0.2,0.1,0.4,0.1,0.6,0.1c0.2,0,0.4,0,0.6-0.1
	c0.2-0.1,0.3-0.2,0.4-0.3c0.1-0.1,0.2-0.3,0.3-0.5C23.3,114.4,23.3,114.2,23.3,113.9z M29.5,112.4c0,0.1-0.1,0.1-0.1,0.1
	c0,0-0.1,0-0.1,0c-0.1,0-0.1,0-0.2,0c-0.1,0-0.1-0.1-0.2-0.1c-0.1,0-0.2-0.1-0.3-0.1c-0.1,0-0.2-0.1-0.3-0.1c-0.2,0-0.4,0-0.5,0.1
	c-0.1,0.1-0.2,0.2-0.2,0.4c0,0.1,0,0.2,0.1,0.3c0.1,0.1,0.2,0.1,0.3,0.2c0.1,0,0.2,0.1,0.4,0.1c0.1,0,0.3,0.1,0.4,0.1
	c0.1,0,0.3,0.1,0.4,0.2c0.1,0.1,0.3,0.2,0.4,0.3c0.1,0.1,0.2,0.2,0.3,0.4c0.1,0.1,0.1,0.3,0.1,0.5c0,0.2,0,0.5-0.1,0.7
	c-0.1,0.2-0.2,0.4-0.4,0.5c-0.2,0.2-0.3,0.3-0.6,0.4c-0.2,0.1-0.5,0.1-0.8,0.1c-0.2,0-0.3,0-0.5,0c-0.2,0-0.3-0.1-0.5-0.1
	c-0.2-0.1-0.3-0.1-0.4-0.2s-0.3-0.2-0.4-0.3l0.4-0.6c0,0,0.1-0.1,0.1-0.1c0,0,0.1,0,0.2,0c0.1,0,0.1,0,0.2,0.1
	c0.1,0,0.2,0.1,0.2,0.1c0.1,0.1,0.2,0.1,0.3,0.1c0.1,0,0.3,0.1,0.4,0.1c0.2,0,0.4,0,0.5-0.1c0.1-0.1,0.2-0.2,0.2-0.5
	c0-0.1,0-0.2-0.1-0.3s-0.2-0.1-0.3-0.2c-0.1,0-0.2-0.1-0.4-0.1c-0.1,0-0.3-0.1-0.4-0.1c-0.1,0-0.3-0.1-0.4-0.2
	c-0.1-0.1-0.3-0.2-0.4-0.3c-0.1-0.1-0.2-0.2-0.3-0.4c-0.1-0.2-0.1-0.4-0.1-0.6c0-0.2,0-0.4,0.1-0.6c0.1-0.2,0.2-0.3,0.3-0.5
	c0.1-0.1,0.3-0.3,0.5-0.3c0.2-0.1,0.5-0.1,0.7-0.1c0.2,0,0.3,0,0.5,0c0.1,0,0.3,0.1,0.4,0.1c0.1,0,0.3,0.1,0.4,0.2
	c0.1,0.1,0.2,0.1,0.3,0.2L29.5,112.4z M34.1,112.3h-1.4v4.2h-1.2v-4.2H30v-0.9h4.1V112.3z"/>
<path class="st0" d="M2,164.8h46c0.6,0,1,0.4,1,1v5c0,0.6-0.4,1-1,1H2c-0.6,0-1-0.4-1-1v-5C1,165.2,1.4,164.8,2,164.8z"/>
<path class="st1" d="M2,164.8h46c0.6,0,1,0.4,1,1v5c0,0.6-0.4,1-1,1H2c-0.6,0-1-0.4-1-1v-5C1,165.2,1.4,164.8,2,164.8z"/>
<path d="M7.7,166.1v5.1h-1v-2.9c0-0.1,0-0.1,0-0.2c0-0.1,0-0.2,0-0.2l-1.4,2.6c0,0.1-0.1,0.1-0.2,0.2c-0.1,0-0.2,0.1-0.2,0.1H4.8
	c-0.1,0-0.2,0-0.2-0.1c-0.1,0-0.1-0.1-0.2-0.2L3,167.8c0,0.1,0,0.2,0,0.2c0,0.1,0,0.2,0,0.2v2.9H2v-5.1h0.9c0.1,0,0.1,0,0.1,0
	c0,0,0.1,0,0.1,0c0,0,0.1,0,0.1,0.1c0,0,0.1,0.1,0.1,0.1l1.3,2.6c0,0.1,0.1,0.2,0.1,0.3c0,0.1,0.1,0.2,0.1,0.3
	c0-0.1,0.1-0.2,0.1-0.3c0-0.1,0.1-0.2,0.1-0.3l1.3-2.6c0,0,0-0.1,0.1-0.1c0,0,0.1,0,0.1-0.1c0,0,0.1,0,0.1,0c0,0,0.1,0,0.1,0H7.7z
	 M13.6,168.7c0,0.4-0.1,0.7-0.2,1c-0.1,0.3-0.3,0.6-0.5,0.8c-0.2,0.2-0.5,0.4-0.8,0.5c-0.3,0.1-0.7,0.2-1.1,0.2
	c-0.4,0-0.8-0.1-1.1-0.2c-0.3-0.1-0.6-0.3-0.8-0.5c-0.2-0.2-0.4-0.5-0.5-0.8c-0.1-0.3-0.2-0.7-0.2-1c0-0.4,0.1-0.7,0.2-1
	c0.1-0.3,0.3-0.6,0.5-0.8c0.2-0.2,0.5-0.4,0.8-0.5c0.3-0.1,0.7-0.2,1.1-0.2c0.4,0,0.8,0.1,1.1,0.2c0.3,0.1,0.6,0.3,0.8,0.6
	c0.2,0.2,0.4,0.5,0.5,0.8C13.5,168,13.6,168.3,13.6,168.7z M12.4,168.7c0-0.3,0-0.5-0.1-0.7c-0.1-0.2-0.2-0.4-0.3-0.5
	c-0.1-0.1-0.3-0.2-0.4-0.3c-0.2-0.1-0.4-0.1-0.6-0.1c-0.2,0-0.4,0-0.6,0.1c-0.2,0.1-0.3,0.2-0.5,0.3c-0.1,0.1-0.2,0.3-0.3,0.5
	c-0.1,0.2-0.1,0.4-0.1,0.7c0,0.3,0,0.5,0.1,0.7c0.1,0.2,0.2,0.4,0.3,0.5c0.1,0.1,0.3,0.2,0.5,0.3c0.2,0.1,0.4,0.1,0.6,0.1
	c0.2,0,0.4,0,0.6-0.1c0.2-0.1,0.3-0.2,0.4-0.3c0.1-0.1,0.2-0.3,0.3-0.5C12.4,169.2,12.4,169,12.4,168.7z M18.7,166.1v5.1H18
	c-0.1,0-0.2,0-0.2,0c-0.1,0-0.1-0.1-0.2-0.2l-2.4-3c0,0.1,0,0.2,0,0.3c0,0.1,0,0.2,0,0.2v2.7h-1v-5.1h0.6c0.1,0,0.1,0,0.1,0
	c0,0,0.1,0,0.1,0c0,0,0.1,0,0.1,0.1c0,0,0.1,0.1,0.1,0.1l2.4,3.1c0-0.1,0-0.2,0-0.3c0-0.1,0-0.2,0-0.3v-2.7H18.7z M24.5,168.7
	c0,0.4-0.1,0.7-0.2,1c-0.1,0.3-0.3,0.6-0.5,0.8c-0.2,0.2-0.5,0.4-0.8,0.5c-0.3,0.1-0.7,0.2-1.1,0.2s-0.8-0.1-1.1-0.2
	c-0.3-0.1-0.6-0.3-0.8-0.5c-0.2-0.2-0.4-0.5-0.5-0.8c-0.1-0.3-0.2-0.7-0.2-1c0-0.4,0.1-0.7,0.2-1c0.1-0.3,0.3-0.6,0.5-0.8
	c0.2-0.2,0.5-0.4,0.8-0.5c0.3-0.1,0.7-0.2,1.1-0.2s0.8,0.1,1.1,0.2c0.3,0.1,0.6,0.3,0.8,0.6c0.2,0.2,0.4,0.5,0.5,0.8
	C24.5,168,24.5,168.3,24.5,168.7z M23.3,168.7c0-0.3,0-0.5-0.1-0.7c-0.1-0.2-0.2-0.4-0.3-0.5c-0.1-0.1-0.3-0.2-0.4-0.3
	c-0.2-0.1-0.4-0.1-0.6-0.1c-0.2,0-0.4,0-0.6,0.1c-0.2,0.1-0.3,0.2-0.5,0.3c-0.1,0.1-0.2,0.3-0.3,0.5c-0.1,0.2-0.1,0.4-0.1,0.7
	c0,0.3,0,0.5,0.1,0.7c0.1,0.2,0.2,0.4,0.3,0.5c0.1,0.1,0.3,0.2,0.5,0.3c0.2,0.1,0.4,0.1,0.6,0.1c0.2,0,0.4,0,0.6-0.1
	c0.2-0.1,0.3-0.2,0.4-0.3c0.1-0.1,0.2-0.3,0.3-0.5C23.3,169.2,23.3,169,23.3,168.7z M27.8,167.1v1.3h1.7v0.9h-1.7v2h-1.2v-5.1h3.3
	v0.9H27.8z M32.3,168.7c0.3,0,0.5-0.1,0.7-0.2c0.1-0.1,0.2-0.4,0.2-0.6c0-0.1,0-0.2-0.1-0.3c0-0.1-0.1-0.2-0.2-0.2
	c-0.1-0.1-0.2-0.1-0.3-0.2c-0.1,0-0.2-0.1-0.4-0.1h-0.6v1.6H32.3z M32.3,166.1c0.4,0,0.7,0,0.9,0.1c0.3,0.1,0.5,0.2,0.6,0.4
	c0.2,0.1,0.3,0.3,0.4,0.5c0.1,0.2,0.1,0.4,0.1,0.7c0,0.3,0,0.5-0.1,0.7c-0.1,0.2-0.2,0.4-0.4,0.5c-0.2,0.2-0.4,0.3-0.6,0.4
	c-0.3,0.1-0.6,0.1-0.9,0.1h-0.6v1.7h-1.2v-5.1H32.3z"/>
<path class="st0" d="M2,219.5h46c0.6,0,1,0.4,1,1v5c0,0.6-0.4,1-1,1H2c-0.6,0-1-0.4-1-1v-5C1,219.9,1.4,219.5,2,219.5z"/>
<path class="st1" d="M2,219.5h46c0.6,0,1,0.4,1,1v5c0,0.6-0.4,1-1,1H2c-0.6,0-1-0.4-1-1v-5C1,219.9,1.4,219.5,2,219.5z"/>
<path d="M7.7,220.9v5.1h-1v-2.9c0-0.1,0-0.1,0-0.2c0-0.1,0-0.2,0-0.2l-1.4,2.6c0,0.1-0.1,0.1-0.2,0.2c-0.1,0-0.2,0.1-0.2,0.1H4.8
	c-0.1,0-0.2,0-0.2-0.1c-0.1,0-0.1-0.1-0.2-0.2L3,222.6c0,0.1,0,0.2,0,0.2c0,0.1,0,0.2,0,0.2v2.9H2v-5.1h0.9c0.1,0,0.1,0,0.1,0
	c0,0,0.1,0,0.1,0c0,0,0.1,0,0.1,0.1c0,0,0.1,0.1,0.1,0.1l1.3,2.6c0,0.1,0.1,0.2,0.1,0.3c0,0.1,0.1,0.2,0.1,0.3
	c0-0.1,0.1-0.2,0.1-0.3c0-0.1,0.1-0.2,0.1-0.3l1.3-2.6c0,0,0-0.1,0.1-0.1c0,0,0.1,0,0.1-0.1c0,0,0.1,0,0.1,0c0,0,0.1,0,0.1,0H7.7z
	 M13.6,223.4c0,0.4-0.1,0.7-0.2,1c-0.1,0.3-0.3,0.6-0.5,0.8c-0.2,0.2-0.5,0.4-0.8,0.5c-0.3,0.1-0.7,0.2-1.1,0.2
	c-0.4,0-0.8-0.1-1.1-0.2c-0.3-0.1-0.6-0.3-0.8-0.5c-0.2-0.2-0.4-0.5-0.5-0.8c-0.1-0.3-0.2-0.7-0.2-1c0-0.4,0.1-0.7,0.2-1
	c0.1-0.3,0.3-0.6,0.5-0.8c0.2-0.2,0.5-0.4,0.8-0.5c0.3-0.1,0.7-0.2,1.1-0.2c0.4,0,0.8,0.1,1.1,0.2c0.3,0.1,0.6,0.3,0.8,0.6
	c0.2,0.2,0.4,0.5,0.5,0.8C13.5,222.7,13.6,223.1,13.6,223.4z M12.4,223.4c0-0.3,0-0.5-0.1-0.7c-0.1-0.2-0.2-0.4-0.3-0.5
	c-0.1-0.1-0.3-0.2-0.4-0.3c-0.2-0.1-0.4-0.1-0.6-0.1c-0.2,0-0.4,0-0.6,0.1c-0.2,0.1-0.3,0.2-0.5,0.3c-0.1,0.1-0.2,0.3-0.3,0.5
	c-0.1,0.2-0.1,0.4-0.1,0.7c0,0.3,0,0.5,0.1,0.7c0.1,0.2,0.2,0.4,0.3,0.5c0.1,0.1,0.3,0.2,0.5,0.3c0.2,0.1,0.4,0.1,0.6,0.1
	c0.2,0,0.4,0,0.6-0.1c0.2-0.1,0.3-0.2,0.4-0.3c0.1-0.1,0.2-0.3,0.3-0.5C12.4,223.9,12.4,223.7,12.4,223.4z M18.7,220.9v5.1H18
	c-0.1,0-0.2,0-0.2,0c-0.1,0-0.1-0.1-0.2-0.2l-2.4-3c0,0.1,0,0.2,0,0.3c0,0.1,0,0.2,0,0.2v2.7h-1v-5.1h0.6c0.1,0,0.1,0,0.1,0
	c0,0,0.1,0,0.1,0c0,0,0.1,0,0.1,0.1c0,0,0.1,0.1,0.1,0.1l2.4,3.1c0-0.1,0-0.2,0-0.3c0-0.1,0-0.2,0-0.3v-2.7H18.7z M24.5,223.4
	c0,0.4-0.1,0.7-0.2,1c-0.1,0.3-0.3,0.6-0.5,0.8c-0.2,0.2-0.5,0.4-0.8,0.5c-0.3,0.1-0.7,0.2-1.1,0.2s-0.8-0.1-1.1-0.2
	c-0.3-0.1-0.6-0.3-0.8-0.5c-0.2-0.2-0.4-0.5-0.5-0.8c-0.1-0.3-0.2-0.7-0.2-1c0-0.4,0.1-0.7,0.2-1c0.1-0.3,0.3-0.6,0.5-0.8
	c0.2-0.2,0.5-0.4,0.8-0.5c0.3-0.1,0.7-0.2,1.1-0.2s0.8,0.1,1.1,0.2c0.3,0.1,0.6,0.3,0.8,0.6c0.2,0.2,0.4,0.5,0.5,0.8
	C24.5,222.7,24.5,223.1,24.5,223.4z M23.3,223.4c0-0.3,0-0.5-0.1-0.7c-0.1-0.2-0.2-0.4-0.3-0.5c-0.1-0.1-0.3-0.2-0.4-0.3
	c-0.2-0.1-0.4-0.1-0.6-0.1c-0.2,0-0.4,0-0.6,0.1c-0.2,0.1-0.3,0.2-0.5,0.3c-0.1,0.1-0.2,0.3-0.3,0.5c-0.1,0.2-0.1,0.4-0.1,0.7
	c0,0.3,0,0.5,0.1,0.7c0.1,0.2,0.2,0.4,0.3,0.5c0.1,0.1,0.3,0.2,0.5,0.3c0.2,0.1,0.4,0.1,0.6,0.1c0.2,0,0.4,0,0.6-0.1
	c0.2-0.1,0.3-0.2,0.4-0.3c0.1-0.1,0.2-0.3,0.3-0.5C23.3,223.9,23.3,223.7,23.3,223.4z M29.5,221.9c0,0.1-0.1,0.1-0.1,0.1
	c0,0-0.1,0-0.1,0c-0.1,0-0.1,0-0.2,0c-0.1,0-0.1-0.1-0.2-0.1c-0.1,0-0.2-0.1-0.3-0.1c-0.1,0-0.2-0.1-0.3-0.1c-0.2,0-0.4,0-0.5,0.1
	c-0.1,0.1-0.2,0.2-0.2,0.4c0,0.1,0,0.2,0.1,0.3c0.1,0.1,0.2,0.1,0.3,0.2c0.1,0,0.2,0.1,0.4,0.1c0.1,0,0.3,0.1,0.4,0.1
	c0.1,0,0.3,0.1,0.4,0.2c0.1,0.1,0.3,0.2,0.4,0.3c0.1,0.1,0.2,0.2,0.3,0.4c0.1,0.1,0.1,0.3,0.1,0.5c0,0.2,0,0.5-0.1,0.7
	c-0.1,0.2-0.2,0.4-0.4,0.5c-0.2,0.2-0.3,0.3-0.6,0.4c-0.2,0.1-0.5,0.1-0.8,0.1c-0.2,0-0.3,0-0.5,0c-0.2,0-0.3-0.1-0.5-0.1
	c-0.2-0.1-0.3-0.1-0.4-0.2s-0.3-0.2-0.4-0.3l0.4-0.6c0,0,0.1-0.1,0.1-0.1c0,0,0.1,0,0.2,0c0.1,0,0.1,0,0.2,0.1
	c0.1,0,0.2,0.1,0.2,0.1c0.1,0.1,0.2,0.1,0.3,0.1c0.1,0,0.3,0.1,0.4,0.1c0.2,0,0.4,0,0.5-0.1c0.1-0.1,0.2-0.2,0.2-0.5
	c0-0.1,0-0.2-0.1-0.3c-0.1-0.1-0.2-0.1-0.3-0.2c-0.1,0-0.2-0.1-0.4-0.1c-0.1,0-0.3-0.1-0.4-0.1c-0.1,0-0.3-0.1-0.4-0.2
	c-0.1-0.1-0.3-0.2-0.4-0.3c-0.1-0.1-0.2-0.2-0.3-0.4c-0.1-0.2-0.1-0.4-0.1-0.6c0-0.2,0-0.4,0.1-0.6c0.1-0.2,0.2-0.3,0.3-0.5
	c0.1-0.1,0.3-0.3,0.5-0.3c0.2-0.1,0.5-0.1,0.7-0.1c0.2,0,0.3,0,0.5,0c0.1,0,0.3,0.1,0.4,0.1c0.1,0,0.3,0.1,0.4,0.2
	c0.1,0.1,0.2,0.1,0.3,0.2L29.5,221.9z M34.1,221.8h-1.4v4.2h-1.2v-4.2H30v-0.9h4.1V221.8z M37.9,224h-1.3v1.4h-0.9V224h-1.3v-0.8
	h1.3v-1.4h0.9v1.4h1.3V224z M39.7,221.8v1.3h1.7v0.9h-1.7v2h-1.2v-5.1h3.3v0.9H39.7z M44.2,223.4c0.3,0,0.5-0.1,0.7-0.2
	c0.1-0.1,0.2-0.4,0.2-0.6c0-0.1,0-0.2-0.1-0.3c0-0.1-0.1-0.2-0.2-0.2c-0.1-0.1-0.2-0.1-0.3-0.2c-0.1,0-0.2-0.1-0.4-0.1h-0.6v1.6
	H44.2z M44.2,220.9c0.4,0,0.7,0,0.9,0.1c0.3,0.1,0.5,0.2,0.6,0.4c0.2,0.1,0.3,0.3,0.4,0.5c0.1,0.2,0.1,0.4,0.1,0.7
	c0,0.3,0,0.5-0.1,0.7c-0.1,0.2-0.2,0.4-0.4,0.5c-0.2,0.2-0.4,0.3-0.6,0.4c-0.3,0.1-0.6,0.1-0.9,0.1h-0.6v1.7h-1.2v-5.1H44.2z"/>
<path class="st0" d="M2,274.3h46c0.6,0,1,0.4,1,1v5c0,0.6-0.4,1-1,1H2c-0.6,0-1-0.4-1-1v-5C1,274.7,1.4,274.3,2,274.3z"/>
<path class="st1" d="M2,274.3h46c0.6,0,1,0.4,1,1v5c0,0.6-0.4,1-1,1H2c-0.6,0-1-0.4-1-1v-5C1,274.7,1.4,274.3,2,274.3z"/>
<path d="M5.1,279.8v0.9H2v-5.1h1.2v4.2H5.1z M8.3,278.8l-0.5-1.4c0-0.1-0.1-0.2-0.1-0.3c0-0.1-0.1-0.3-0.1-0.4
	c0,0.1-0.1,0.3-0.1,0.4c0,0.1-0.1,0.2-0.1,0.3l-0.5,1.4H8.3z M10.1,280.8H9.2c-0.1,0-0.2,0-0.2-0.1c-0.1,0-0.1-0.1-0.1-0.2l-0.3-0.9
	H6.6l-0.3,0.9c0,0.1-0.1,0.1-0.1,0.2c-0.1,0.1-0.1,0.1-0.2,0.1H5l2-5.1h1.2L10.1,280.8z M13.6,276.6h-1.4v4.2H11v-4.2H9.6v-0.9h4.1
	V276.6z M17.4,279.4C17.4,279.4,17.5,279.4,17.4,279.4c0.1,0,0.1,0,0.2,0.1l0.5,0.5c-0.2,0.3-0.5,0.5-0.8,0.6
	c-0.3,0.1-0.7,0.2-1.1,0.2c-0.4,0-0.7-0.1-1-0.2c-0.3-0.1-0.6-0.3-0.8-0.5c-0.2-0.2-0.4-0.5-0.5-0.8c-0.1-0.3-0.2-0.7-0.2-1
	c0-0.4,0.1-0.7,0.2-1c0.1-0.3,0.3-0.6,0.5-0.8c0.2-0.2,0.5-0.4,0.8-0.5c0.3-0.1,0.7-0.2,1-0.2c0.2,0,0.4,0,0.5,0.1
	c0.2,0,0.3,0.1,0.5,0.1c0.1,0.1,0.3,0.1,0.4,0.2c0.1,0.1,0.2,0.2,0.3,0.3l-0.4,0.5c0,0-0.1,0.1-0.1,0.1c0,0-0.1,0-0.1,0
	c0,0-0.1,0-0.1,0c0,0-0.1,0-0.1-0.1c0,0-0.1-0.1-0.1-0.1c0,0-0.1-0.1-0.2-0.1c-0.1,0-0.1-0.1-0.2-0.1c-0.1,0-0.2,0-0.3,0
	c-0.2,0-0.4,0-0.5,0.1c-0.2,0.1-0.3,0.2-0.4,0.3c-0.1,0.1-0.2,0.3-0.3,0.5c-0.1,0.2-0.1,0.4-0.1,0.7c0,0.3,0,0.5,0.1,0.7
	c0.1,0.2,0.2,0.4,0.3,0.5c0.1,0.1,0.3,0.2,0.4,0.3c0.2,0.1,0.3,0.1,0.5,0.1c0.1,0,0.2,0,0.3,0c0.1,0,0.2,0,0.2-0.1
	c0.1,0,0.1-0.1,0.2-0.1c0.1,0,0.1-0.1,0.2-0.2c0,0,0.1,0,0.1-0.1C17.4,279.4,17.4,279.4,17.4,279.4z M22.9,275.6v5.1h-1.2v-2.2h-2.1
	v2.2h-1.2v-5.1h1.2v2.1h2.1v-2.1H22.9z"/>
<path class="st0" d="M2,0.5h46c0.6,0,1,0.4,1,1v5c0,0.6-0.4,1-1,1H2c-0.6,0-1-0.4-1-1v-5C1,0.9,1.4,0.5,2,0.5z"/>
<path class="st1" d="M2,0.5h46c0.6,0,1,0.4,1,1v5c0,0.6-0.4,1-1,1H2c-0.6,0-1-0.4-1-1v-5C1,0.9,1.4,0.5,2,0.5z"/>
<path d="M3.8,4.4c0.3,0,0.5-0.1,0.7-0.2C4.6,4,4.7,3.8,4.7,3.6c0-0.1,0-0.2-0.1-0.3c0-0.1-0.1-0.2-0.2-0.2C4.4,2.9,4.3,2.9,4.2,2.8
	c-0.1,0-0.2-0.1-0.4-0.1H3.2v1.6H3.8z M3.8,1.9c0.4,0,0.7,0,0.9,0.1C5,2.1,5.2,2.2,5.4,2.4c0.2,0.1,0.3,0.3,0.4,0.5s0.1,0.4,0.1,0.7
	c0,0.3,0,0.5-0.1,0.7C5.6,4.5,5.5,4.7,5.3,4.8C5.2,5,5,5.1,4.7,5.2C4.4,5.3,4.1,5.3,3.8,5.3H3.2V7H2V1.9H3.8z M11.3,4.4
	c0,0.4-0.1,0.7-0.2,1c-0.1,0.3-0.3,0.6-0.5,0.8c-0.2,0.2-0.5,0.4-0.8,0.5C9.5,7,9.1,7.1,8.7,7.1C8.3,7.1,7.9,7,7.6,6.9
	C7.3,6.7,7,6.5,6.8,6.3C6.5,6.1,6.4,5.8,6.2,5.5C6.1,5.2,6,4.8,6,4.4s0.1-0.7,0.2-1c0.1-0.3,0.3-0.6,0.5-0.8C7,2.4,7.3,2.2,7.6,2
	c0.3-0.1,0.7-0.2,1.1-0.2c0.4,0,0.8,0.1,1.1,0.2c0.3,0.1,0.6,0.3,0.8,0.5c0.2,0.2,0.4,0.5,0.5,0.8C11.3,3.7,11.3,4.1,11.3,4.4z
	 M10.1,4.4c0-0.3,0-0.5-0.1-0.7C10,3.6,9.9,3.4,9.8,3.3C9.6,3.1,9.5,3,9.3,2.9C9.1,2.9,8.9,2.8,8.7,2.8c-0.2,0-0.4,0-0.6,0.1
	C7.9,3,7.8,3.1,7.6,3.3C7.5,3.4,7.4,3.6,7.4,3.8C7.3,4,7.3,4.2,7.3,4.4c0,0.3,0,0.5,0.1,0.7c0.1,0.2,0.2,0.4,0.3,0.5
	C7.8,5.8,7.9,5.9,8.1,6C8.3,6,8.5,6.1,8.7,6.1c0.2,0,0.4,0,0.6-0.1c0.2-0.1,0.3-0.2,0.4-0.3C9.9,5.5,10,5.3,10,5.1
	C10.1,4.9,10.1,4.7,10.1,4.4z M15,6.1V7h-3.1V1.9h1.2v4.2H15z M17.3,5.1V7h-1.2V5.1l-1.8-3.2h1c0.1,0,0.2,0,0.2,0.1
	c0.1,0,0.1,0.1,0.2,0.2l0.7,1.5c0.1,0.1,0.1,0.2,0.2,0.3c0,0.1,0.1,0.2,0.1,0.3c0-0.1,0.1-0.2,0.1-0.3c0-0.1,0.1-0.2,0.2-0.3
	l0.7-1.5c0,0,0-0.1,0.1-0.1c0,0,0.1-0.1,0.1-0.1c0,0,0.1,0,0.1-0.1c0,0,0.1,0,0.1,0h1.1L17.3,5.1z"/>
</svg>
