<?xml version="1.0" encoding="utf-8"?>
<!-- Generator: Adobe Illustrator 22.0.0, SVG Export Plug-In . SVG Version: 6.00 Build 0)  -->
<svg version="1.1" baseProfile="basic" id="Layer_1"
	 xmlns="http://www.w3.org/2000/svg" xmlns:xlink="http://www.w3.org/1999/xlink" x="0px" y="0px" width="13px" height="36px"
	 viewBox="0 0 13 36" xml:space="preserve">
<style type="text/css">
	.st0{fill:#399DFF;}
	.st1{fill:none;stroke:#399DFF;}
	.st2{fill:#EEEEEE;}
	.st3{fill:#FF9300;}
	.st4{fill:none;stroke:#FFFFFF;}
</style>
<path class="st0" d="M4,3.5h4c0.3,0,0.5,0.2,0.5,0.5v7c0,0.3-0.2,0.5-0.5,0.5H4c-0.3,0-0.5-0.2-0.5-0.5V4C3.5,3.7,3.7,3.5,4,3.5z"/>
<path class="st1" d="M4,3.5h4c0.3,0,0.5,0.2,0.5,0.5v7c0,0.3-0.2,0.5-0.5,0.5H4c-0.3,0-0.5-0.2-0.5-0.5V4C3.5,3.7,3.7,3.5,4,3.5z"/>
<path class="st2" d="M8.2,7.1L6.9,8.4c-0.4,0.4-1,0.4-1.3,0L5.1,7.9l0.4-0.4L6,7.9c0.1,0.1,0.3,0.1,0.4,0l1.3-1.3
	c0.1-0.1,0.1-0.3,0-0.4L7.3,5.7C7.2,5.6,7,5.6,6.9,5.7L6.4,6.2C6.2,6.1,5.9,6,5.7,6l0.8-0.8c0.4-0.4,1-0.4,1.3,0l0.4,0.4
	C8.6,6.1,8.6,6.7,8.2,7.1z M5.6,8.8L5.1,9.3C5,9.4,4.8,9.4,4.7,9.3L4.2,8.8c-0.1-0.1-0.1-0.3,0-0.4l1.3-1.3c0.1-0.1,0.3-0.1,0.4,0
	l0.4,0.4l0.4-0.4L6.4,6.6c-0.4-0.4-1-0.4-1.3,0L3.8,7.9c-0.4,0.4-0.4,1,0,1.3l0.4,0.4c0.4,0.4,1,0.4,1.3,0L6.3,9
	C6.1,9,5.8,8.9,5.6,8.8z"/>
<path class="st3" d="M3.5,20.5h5c0.6,0,1,0.4,1,1v8c0,0.6-0.4,1-1,1h-5c-0.6,0-1-0.4-1-1v-8C2.5,20.9,2.9,20.5,3.5,20.5z"/>
<path class="st4" d="M3.5,20.5h5c0.6,0,1,0.4,1,1v8c0,0.6-0.4,1-1,1h-5c-0.6,0-1-0.4-1-1v-8C2.5,20.9,2.9,20.5,3.5,20.5z"/>
<path d="M8.2,25.1l-1.3,1.3c-0.4,0.4-1,0.4-1.3,0l-0.4-0.4l0.4-0.4L6,25.9c0.1,0.1,0.3,0.1,0.4,0l1.3-1.3c0.1-0.1,0.1-0.3,0-0.4
	l-0.4-0.4c-0.1-0.1-0.3-0.1-0.4,0l-0.5,0.5C6.2,24.1,5.9,24,5.7,24l0.8-0.8c0.4-0.4,1-0.4,1.3,0l0.4,0.4C8.6,24.1,8.6,24.7,8.2,25.1
	z M5.6,26.8l-0.5,0.5c-0.1,0.1-0.3,0.1-0.4,0l-0.4-0.4c-0.1-0.1-0.1-0.3,0-0.4l1.3-1.3c0.1-0.1,0.3-0.1,0.4,0l0.4,0.4l0.4-0.4
	l-0.4-0.4c-0.4-0.4-1-0.4-1.3,0l-1.3,1.3c-0.4,0.4-0.4,1,0,1.3l0.4,0.4c0.4,0.4,1,0.4,1.3,0L6.3,27C6.1,27,5.8,26.9,5.6,26.8z"/>
</svg>
