<?xml version="1.0" encoding="utf-8"?>
<!-- Generator: Adobe Illustrator 22.0.0, SVG Export Plug-In . SVG Version: 6.00 Build 0)  -->
<svg version="1.1" baseProfile="basic" id="Layer_1"
	 xmlns="http://www.w3.org/2000/svg" xmlns:xlink="http://www.w3.org/1999/xlink" x="0px" y="0px" width="30px" height="13px"
	 viewBox="0 0 30 13" xml:space="preserve">
<style type="text/css">
	.st0{fill:#399DFF;}
	.st1{fill:none;stroke:#399DFF;}
</style>
<path class="st0" d="M3.7,2.5h23c0.6,0,1,0.4,1,1v6c0,0.6-0.4,1-1,1h-23c-0.6,0-1-0.4-1-1v-6C2.7,3,3.1,2.5,3.7,2.5z"/>
<path class="st1" d="M3.7,2.5h23c0.6,0,1,0.4,1,1v6c0,0.6-0.4,1-1,1h-23c-0.6,0-1-0.4-1-1v-6C2.7,3,3.1,2.5,3.7,2.5z"/>
</svg>
