<?xml version="1.0" encoding="UTF-8" standalone="no"?>
<!-- Generator: Adobe Illustrator 22.0.0, SVG Export Plug-In . SVG Version: 6.00 Build 0)  -->

<svg
   version="1.1"
   id="Layer_1"
   x="0px"
   y="0px"
   width="43px"
   height="14px"
   viewBox="0 0 43 14"
   xml:space="preserve"
   sodipodi:docname="hover00174.svg"
   inkscape:version="1.1 (c68e22c387, 2021-05-23)"
   xmlns:inkscape="http://www.inkscape.org/namespaces/inkscape"
   xmlns:sodipodi="http://sodipodi.sourceforge.net/DTD/sodipodi-0.dtd"
   xmlns="http://www.w3.org/2000/svg"
   xmlns:svg="http://www.w3.org/2000/svg"><defs
   id="defs11" /><sodipodi:namedview
   id="namedview9"
   pagecolor="#ffffff"
   bordercolor="#666666"
   borderopacity="1.0"
   inkscape:pageshadow="2"
   inkscape:pageopacity="0.0"
   inkscape:pagecheckerboard="0"
   showgrid="false"
   inkscape:zoom="24.604651"
   inkscape:cx="18.634688"
   inkscape:cy="7.0108696"
   inkscape:window-width="1920"
   inkscape:window-height="1017"
   inkscape:window-x="-8"
   inkscape:window-y="-8"
   inkscape:window-maximized="1"
   inkscape:current-layer="Layer_1" />
<style
   type="text/css"
   id="style2">
	.st0{fill:#399DFF;}
	.st1{fill:none;stroke:#399DFF;}
</style>
<path
   class="st0"
   d="M4.5,3.5h34c0.6,0,1,0.4,1,1v5c0,0.6-0.4,1-1,1h-34c-0.6,0-1-0.4-1-1v-5C3.5,3.9,3.9,3.5,4.5,3.5z"
   id="path4" />
<path
   class="st1"
   d="M4.5,3.5h34c0.6,0,1,0.4,1,1v5c0,0.6-0.4,1-1,1h-34c-0.6,0-1-0.4-1-1v-5C3.5,3.9,3.9,3.5,4.5,3.5z"
   id="path6" />
</svg>
