<?xml version="1.0" encoding="utf-8"?>
<!-- Generator: Adobe Illustrator 22.0.0, SVG Export Plug-In . SVG Version: 6.00 Build 0)  -->
<svg version="1.1"
	 id="Layer_1" inkscape:version="1.1 (c68e22c387, 2021-05-23)" sodipodi:docname="hover00167.svg" xmlns:inkscape="http://www.inkscape.org/namespaces/inkscape" xmlns:sodipodi="http://sodipodi.sourceforge.net/DTD/sodipodi-0.dtd" xmlns:svg="http://www.w3.org/2000/svg"
	 xmlns="http://www.w3.org/2000/svg" xmlns:xlink="http://www.w3.org/1999/xlink" x="0px" y="0px" width="133px" height="18px"
	 viewBox="0 0 133 18" style="enable-background:new 0 0 133 18;" xml:space="preserve">
<style type="text/css">
	.st0{fill:#6B6B6B;}
	.st1{fill:none;stroke:#6B6B6B;}
	.st2{fill:#FFFFFF;}
</style>
<sodipodi:namedview  bordercolor="#666666" borderopacity="1.0" id="namedview11" inkscape:current-layer="Layer_1" inkscape:cx="48.837902" inkscape:cy="8.9881853" inkscape:pagecheckerboard="0" inkscape:pageopacity="0.0" inkscape:pageshadow="2" inkscape:window-height="1017" inkscape:window-maximized="1" inkscape:window-width="1920" inkscape:window-x="-8" inkscape:window-y="-8" inkscape:zoom="7.9548872" pagecolor="#ffffff" showgrid="false">
	</sodipodi:namedview>
<path id="path4" class="st0" d="M5,3.5h122c0.6,0,1,0.4,1,1v9c0,0.6-0.4,1-1,1H5c-0.6,0-1-0.4-1-1v-9C4,3.9,4.4,3.5,5,3.5z"/>
<path id="path6" class="st1" d="M5,3.5h122c0.6,0,1,0.4,1,1v9c0,0.6-0.4,1-1,1H5c-0.6,0-1-0.4-1-1v-9C4,3.9,4.4,3.5,5,3.5z"/>
<path id="path8" class="st2" d="M123.5,11L121,8h5L123.5,11z"/>
</svg>
