<svg width="11" height="22" viewBox="0 0 11 22" fill="none" xmlns="http://www.w3.org/2000/svg">
<path d="M7.5 2.5H3.5C2.94772 2.5 2.5 2.94772 2.5 3.5V7.5C2.5 8.05228 2.94772 8.5 3.5 8.5H7.5C8.05228 8.5 8.5 8.05228 8.5 7.5V3.5C8.5 2.94772 8.05228 2.5 7.5 2.5Z" fill="#399DFF"/>
<path d="M7.5 2.5H3.5C2.94772 2.5 2.5 2.94772 2.5 3.5V7.5C2.5 8.05228 2.94772 8.5 3.5 8.5H7.5C8.05228 8.5 8.5 8.05228 8.5 7.5V3.5C8.5 2.94772 8.05228 2.5 7.5 2.5Z" stroke="#399DFF"/>
<path d="M2.5 4.74072H5.25C5.25 4.74072 5.54832 3.61809 6.16667 3.50887C6.78501 3.39964 7.14584 4.33564 7.14584 4.33564L8 8.5" stroke="white"/>
<path d="M8.5 12.5H2.5C1.94772 12.5 1.5 12.9477 1.5 13.5V19.5C1.5 20.0523 1.94772 20.5 2.5 20.5H8.5C9.05228 20.5 9.5 20.0523 9.5 19.5V13.5C9.5 12.9477 9.05228 12.5 8.5 12.5Z" fill="#FF9300"/>
<path d="M2.5 15.7407H5.25C5.25 15.7407 5.54832 14.6181 6.16667 14.5089C6.78501 14.3996 7.14584 15.3356 7.14584 15.3356L8 19.5" stroke="black"/>
</svg>
