<svg width="40" height="84" fill="none" xmlns="http://www.w3.org/2000/svg"><path d="M.5 2.5a2 2 0 0 1 2-2h35a2 2 0 0 1 2 2v37a2 2 0 0 1-2 2h-35a2 2 0 0 1-2-2v-37Z" fill="#242424"/><rect x="2.5" y="2.5" width="35" height="16" rx="1" fill="#7432FF"/><rect x="2.5" y="2.5" width="35" height="16" rx="1" stroke="#7432FF"/><path d="M25.656 17h-1.664a.76.76 0 0 1-.464-.136.836.836 0 0 1-.256-.352l-.864-2.36h-4.792l-.864 2.36a.748.748 0 0 1-.256.336.692.692 0 0 1-.456.152h-1.672l4.544-11.568h2.2L25.656 17Zm-7.488-4.368h3.688l-1.408-3.848a28.01 28.01 0 0 1-.216-.6 22.001 22.001 0 0 1-.224-.76c-.074.272-.149.525-.224.76a7.48 7.48 0 0 1-.208.616l-1.408 3.832Z" fill="#fff"/><path opacity=".5" d="M38 20.5H2v1h36v-1Z" fill="#000"/><path d="M15.957 38V26.432h3.992c.757 0 1.403.072 1.936.216.539.144.979.35 1.32.616.347.267.6.59.76.968.16.379.24.805.24 1.28 0 .272-.04.533-.12.784-.08.245-.205.477-.376.696a2.727 2.727 0 0 1-.64.584 3.79 3.79 0 0 1-.92.448c1.59.357 2.384 1.216 2.384 2.576 0 .49-.093.944-.28 1.36a3.037 3.037 0 0 1-.816 1.08 3.941 3.941 0 0 1-1.32.704c-.523.17-1.12.256-1.792.256h-4.368Zm2.152-5.072v3.392h2.184c.4 0 .733-.048 1-.144a1.7 1.7 0 0 0 .648-.384c.165-.16.283-.347.352-.56.075-.213.112-.44.112-.68 0-.25-.04-.475-.12-.672a1.234 1.234 0 0 0-.376-.512 1.724 1.724 0 0 0-.656-.328 3.63 3.63 0 0 0-.968-.112H18.11Zm0-1.488h1.72c.73 0 1.285-.133 1.664-.4s.568-.69.568-1.272c0-.603-.17-1.032-.512-1.288-.341-.256-.875-.384-1.6-.384h-1.84v3.344Z" fill="#B4B4B4"/><path d="M2.5 1h35V0h-35v1ZM39 2.5v37h1v-37h-1ZM37.5 41h-35v1h35v-1ZM1 39.5v-37H0v37h1ZM2.5 41A1.5 1.5 0 0 1 1 39.5H0A2.5 2.5 0 0 0 2.5 42v-1ZM39 39.5a1.5 1.5 0 0 1-1.5 1.5v1a2.5 2.5 0 0 0 2.5-2.5h-1ZM37.5 1A1.5 1.5 0 0 1 39 2.5h1A2.5 2.5 0 0 0 37.5 0v1Zm-35-1A2.5 2.5 0 0 0 0 2.5h1A1.5 1.5 0 0 1 2.5 1V0Z" fill="#000"/><path d="M.5 44.5a2 2 0 0 1 2-2h35a2 2 0 0 1 2 2v37a2 2 0 0 1-2 2h-35a2 2 0 0 1-2-2v-37Z" fill="#242424"/><path d="M25.656 59h-1.664a.76.76 0 0 1-.464-.136.836.836 0 0 1-.256-.352l-.864-2.36h-4.792l-.864 2.36a.748.748 0 0 1-.256.336.692.692 0 0 1-.456.152h-1.672l4.544-11.568h2.2L25.656 59Zm-7.488-4.368h3.688l-1.408-3.848c-.064-.17-.136-.37-.216-.6a22.001 22.001 0 0 1-.224-.76c-.074.272-.149.525-.224.76-.069.235-.138.44-.208.616l-1.408 3.832Z" fill="#B4B4B4"/><path opacity=".5" d="M38 62.5H2v1h36v-1Z" fill="#000"/><rect x="2.5" y="65.5" width="35" height="16" rx="1" fill="#7432FF"/><rect x="2.5" y="65.5" width="35" height="16" rx="1" stroke="#7432FF"/><path d="M15.957 80V68.432h3.992c.757 0 1.403.072 1.936.216.539.144.979.35 1.32.616.347.267.6.59.76.968.16.379.24.805.24 1.28 0 .272-.04.533-.12.784-.08.245-.205.477-.376.696a2.727 2.727 0 0 1-.64.584 3.79 3.79 0 0 1-.92.448c1.59.357 2.384 1.216 2.384 2.576 0 .49-.093.944-.28 1.36a3.037 3.037 0 0 1-.816 1.08 3.941 3.941 0 0 1-1.32.704c-.523.17-1.12.256-1.792.256h-4.368Zm2.152-5.072v3.392h2.184c.4 0 .733-.048 1-.144a1.7 1.7 0 0 0 .648-.384c.165-.16.283-.347.352-.56.075-.213.112-.44.112-.68 0-.25-.04-.475-.12-.672a1.234 1.234 0 0 0-.376-.512 1.724 1.724 0 0 0-.656-.328 3.63 3.63 0 0 0-.968-.112H18.11Zm0-1.488h1.72c.73 0 1.285-.133 1.664-.4s.568-.69.568-1.272c0-.603-.17-1.032-.512-1.288-.341-.256-.875-.384-1.6-.384h-1.84v3.344Z" fill="#fff"/><path d="M2.5 43h35v-1h-35v1ZM39 44.5v37h1v-37h-1ZM37.5 83h-35v1h35v-1ZM1 81.5v-37H0v37h1ZM2.5 83A1.5 1.5 0 0 1 1 81.5H0A2.5 2.5 0 0 0 2.5 84v-1ZM39 81.5a1.5 1.5 0 0 1-1.5 1.5v1a2.5 2.5 0 0 0 2.5-2.5h-1ZM37.5 43a1.5 1.5 0 0 1 1.5 1.5h1a2.5 2.5 0 0 0-2.5-2.5v1Zm-35-1A2.5 2.5 0 0 0 0 44.5h1A1.5 1.5 0 0 1 2.5 43v-1Z" fill="#000"/></svg>