<svg width="135" height="108" fill="none" xmlns="http://www.w3.org/2000/svg"><path d="M.5 2.5a2 2 0 0 1 2-2h130a2 2 0 0 1 2 2v22a2 2 0 0 1-2 2H2.5a2 2 0 0 1-2-2v-22Z" fill="#242424"/><rect x="2.5" y="2.5" width="30" height="22" rx="1" fill="#7432FF"/><rect x="2.5" y="2.5" width="30" height="22" rx="1" stroke="#7432FF"/><path d="M17.82 14.084c0 .421-.073.813-.22 1.176a2.83 2.83 0 0 1-.611.948 2.826 2.826 0 0 1-.956.628 3.23 3.23 0 0 1-1.236.228 3.26 3.26 0 0 1-1.24-.228 2.868 2.868 0 0 1-.96-.628 2.88 2.88 0 0 1-.616-.948 3.158 3.158 0 0 1-.216-1.176c0-.421.072-.813.216-1.176.146-.363.352-.677.616-.944.266-.267.586-.476.96-.628a3.26 3.26 0 0 1 1.24-.228c.453 0 .865.077 1.236.232.373.152.692.361.956.628s.468.581.612.944c.146.363.22.753.22 1.172Zm-1.383 0a2.52 2.52 0 0 0-.112-.776A1.63 1.63 0 0 0 16 12.72a1.371 1.371 0 0 0-.512-.368 1.77 1.77 0 0 0-.692-.128 1.81 1.81 0 0 0-.7.128 1.406 1.406 0 0 0-.516.368c-.14.16-.246.356-.32.588a2.5 2.5 0 0 0-.112.776c0 .29.037.552.112.784.074.23.18.424.32.584.14.16.313.283.516.368.205.083.438.124.7.124.258 0 .489-.041.692-.124.202-.085.373-.208.512-.368.14-.16.249-.355.324-.584.074-.232.112-.493.112-.784ZM18.605 17v-3.296l-.271-.056a.58.58 0 0 1-.229-.1c-.056-.045-.084-.112-.084-.2v-.488h.584v-.156c0-.237.038-.452.113-.644a1.39 1.39 0 0 1 .328-.496c.143-.136.318-.24.524-.312a2.04 2.04 0 0 1 .7-.112 2.155 2.155 0 0 1 .548.072l-.024.604c-.006.085-.042.145-.108.18a.442.442 0 0 1-.2.048c-.11 0-.207.01-.293.032a.493.493 0 0 0-.216.112.506.506 0 0 0-.128.216 1.09 1.09 0 0 0-.044.336v.12h1.457v-.312c0-.237.037-.452.111-.644.078-.192.187-.356.328-.492.145-.136.32-.241.524-.316a2.04 2.04 0 0 1 .7-.112c.102 0 .195.007.28.02.086.01.175.03.269.056l-.024.604a.224.224 0 0 1-.032.108.236.236 0 0 1-.076.068.461.461 0 0 1-.2.048c-.11 0-.207.01-.293.032a.472.472 0 0 0-.215.116.506.506 0 0 0-.128.216c-.03.088-.044.2-.044.336v.272h.971v.848h-.931V17h-1.24v-3.292h-1.416V17h-1.24Z" fill="#fff"/><path fill="#000" d="M33.5 25V2h1v23z" opacity=".75"/><path d="M46.015 12.356a.492.492 0 0 1-.128.144.273.273 0 0 1-.168.048.439.439 0 0 1-.2-.056 7.77 7.77 0 0 0-.24-.132 1.797 1.797 0 0 0-.304-.128 1.187 1.187 0 0 0-.392-.06c-.254 0-.443.055-.568.164a.548.548 0 0 0-.184.436c0 .117.037.215.112.292a.971.971 0 0 0 .292.2c.122.056.261.108.416.156.157.045.317.097.48.156.162.056.321.123.476.2.157.077.296.176.416.296.122.12.221.267.296.44.074.17.112.377.112.62 0 .27-.047.521-.14.756-.094.235-.23.44-.408.616-.176.173-.395.31-.656.412a2.467 2.467 0 0 1-.884.148c-.182 0-.367-.019-.556-.056a3.426 3.426 0 0 1-.544-.156 3.293 3.293 0 0 1-.496-.244 2.102 2.102 0 0 1-.404-.312l.4-.632a.386.386 0 0 1 .296-.16c.08 0 .16.025.24.076l.276.168c.104.061.222.117.356.168.133.05.29.076.472.076.245 0 .436-.053.572-.16.136-.11.204-.281.204-.516a.486.486 0 0 0-.112-.332.862.862 0 0 0-.296-.212 2.637 2.637 0 0 0-.412-.148c-.155-.043-.314-.09-.476-.14a3.843 3.843 0 0 1-.476-.192 1.588 1.588 0 0 1-.416-.3 1.449 1.449 0 0 1-.292-.464 1.858 1.858 0 0 1-.112-.688 1.652 1.652 0 0 1 .52-1.196c.17-.163.38-.292.628-.388a2.29 2.29 0 0 1 .852-.148 3.058 3.058 0 0 1 1.004.168c.152.053.293.119.424.196.133.075.252.16.356.256l-.336.628Zm3.526 2.072c0-.099-.014-.195-.04-.288a.64.64 0 0 0-.124-.248.603.603 0 0 0-.224-.18.774.774 0 0 0-.34-.068c-.235 0-.42.068-.553.204-.133.133-.22.327-.264.58h1.544Zm-1.56.72c.04.347.145.599.316.756.17.155.39.232.66.232.143 0 .267-.017.371-.052a1.79 1.79 0 0 0 .276-.116l.224-.116a.477.477 0 0 1 .216-.052c.1 0 .174.036.225.108l.36.444a1.866 1.866 0 0 1-.416.36 2.22 2.22 0 0 1-.925.32 3.259 3.259 0 0 1-.444.032 2.39 2.39 0 0 1-.82-.14 1.926 1.926 0 0 1-.668-.424 2.029 2.029 0 0 1-.452-.696 2.635 2.635 0 0 1-.164-.968c0-.277.047-.54.14-.788.096-.248.232-.465.408-.652.18-.187.394-.335.645-.444a2.14 2.14 0 0 1 .855-.164c.275 0 .526.043.753.128a1.616 1.616 0 0 1 .972.972c.093.235.14.501.14.8 0 .093-.005.17-.012.228a.361.361 0 0 1-.044.14.167.167 0 0 1-.089.072.386.386 0 0 1-.136.02H47.98Zm4.316-1.848c.08-.075.163-.144.248-.208a1.515 1.515 0 0 1 .588-.264c.115-.027.239-.04.372-.04.227 0 .427.04.6.12.176.077.324.187.444.328.12.139.21.305.272.5.061.192.092.401.092.628V17h-1.24v-2.636c0-.203-.047-.36-.14-.472-.093-.115-.23-.172-.412-.172a.862.862 0 0 0-.384.088 1.499 1.499 0 0 0-.344.232V17h-1.24v-4.148h.768c.155 0 .256.07.304.208l.072.24Zm5.815.664a.765.765 0 0 0-.305-.216.937.937 0 0 0-.343-.064.653.653 0 0 0-.568.288c-.07.099-.124.228-.165.388-.04.16-.06.353-.06.58 0 .219.017.403.048.552.032.15.076.27.133.364.058.09.128.156.208.196.08.04.169.06.267.06.091 0 .172-.008.245-.024a.834.834 0 0 0 .376-.196c.056-.05.11-.108.163-.172v-1.756Zm1.24-2.952V17h-.768c-.155 0-.257-.07-.305-.208l-.096-.316a2.34 2.34 0 0 1-.26.24 1.503 1.503 0 0 1-.636.304c-.12.03-.25.044-.392.044-.216 0-.416-.048-.6-.144a1.383 1.383 0 0 1-.476-.416 2.13 2.13 0 0 1-.316-.664 3.31 3.31 0 0 1-.111-.9c0-.31.042-.596.127-.86a2.13 2.13 0 0 1 .36-.688 1.69 1.69 0 0 1 .565-.456c.218-.11.46-.164.723-.164.216 0 .398.03.544.092.147.061.28.144.4.248v-2.1h1.24Z" fill="#B4B4B4"/><path fill="#000" d="M67 25V2h1v23z" opacity=".75"/><path d="M75.835 8.356a.492.492 0 0 1-.128.144.273.273 0 0 1-.168.048.439.439 0 0 1-.2-.056 6.934 6.934 0 0 0-.24-.132 1.796 1.796 0 0 0-.304-.128 1.187 1.187 0 0 0-.392-.06c-.253 0-.442.055-.568.164a.548.548 0 0 0-.184.436c0 .117.038.215.112.292a.972.972 0 0 0 .292.2c.123.056.262.108.416.156.158.045.318.097.48.156.163.056.322.123.476.2.158.077.296.176.416.296.123.12.222.267.296.44.075.17.112.377.112.62 0 .27-.046.521-.14.756-.093.235-.229.44-.408.616-.176.173-.394.31-.656.412a2.467 2.467 0 0 1-.884.148c-.18 0-.366-.019-.556-.056a3.426 3.426 0 0 1-.544-.156 3.298 3.298 0 0 1-.496-.244 2.105 2.105 0 0 1-.404-.312l.4-.632a.386.386 0 0 1 .296-.16c.08 0 .16.025.24.076l.276.168c.104.061.223.117.356.168.134.05.291.076.472.076.246 0 .436-.053.572-.16.136-.11.204-.281.204-.516a.486.486 0 0 0-.112-.332.862.862 0 0 0-.296-.212 2.633 2.633 0 0 0-.412-.148c-.154-.043-.313-.09-.476-.14a3.85 3.85 0 0 1-.476-.192 1.59 1.59 0 0 1-.416-.3 1.451 1.451 0 0 1-.292-.464 1.858 1.858 0 0 1-.112-.688 1.652 1.652 0 0 1 .52-1.196 1.88 1.88 0 0 1 .628-.388c.248-.099.532-.148.852-.148a3.04 3.04 0 0 1 1.004.168c.152.053.294.119.424.196.134.075.252.16.356.256l-.336.628Zm3.526 2.072c0-.099-.013-.195-.04-.288a.64.64 0 0 0-.124-.248.604.604 0 0 0-.224-.18.773.773 0 0 0-.34-.068c-.235 0-.419.068-.552.204-.133.133-.221.327-.264.58h1.544Zm-1.56.72c.04.347.145.599.316.756.17.155.39.232.66.232.144 0 .268-.017.372-.052a1.79 1.79 0 0 0 .276-.116l.224-.116a.477.477 0 0 1 .216-.052c.099 0 .173.036.224.108l.36.444a1.866 1.866 0 0 1-.416.36 2.22 2.22 0 0 1-.924.32 3.259 3.259 0 0 1-.444.032c-.29 0-.564-.047-.82-.14a1.927 1.927 0 0 1-.668-.424 2.03 2.03 0 0 1-.452-.696 2.63 2.63 0 0 1-.164-.968c0-.277.047-.54.14-.788.096-.248.232-.465.408-.652a1.97 1.97 0 0 1 .644-.444 2.14 2.14 0 0 1 .856-.164c.275 0 .525.043.752.128a1.617 1.617 0 0 1 .972.972c.093.235.14.501.14.8 0 .093-.004.17-.012.228a.361.361 0 0 1-.044.14.166.166 0 0 1-.088.072.386.386 0 0 1-.136.02h-2.392ZM82.118 9.3c.08-.075.162-.144.248-.208a1.515 1.515 0 0 1 .588-.264 1.64 1.64 0 0 1 .372-.04c.226 0 .426.04.6.12.176.077.324.187.444.328.12.139.21.305.272.5.06.192.092.401.092.628V13h-1.24v-2.636c0-.203-.047-.36-.14-.472-.094-.115-.231-.172-.412-.172a.863.863 0 0 0-.384.088 1.502 1.502 0 0 0-.344.232V13h-1.24V8.852h.768c.154 0 .256.07.304.208l.072.24Zm5.814.664a.764.764 0 0 0-.304-.216.938.938 0 0 0-.344-.064.653.653 0 0 0-.568.288c-.07.099-.124.228-.164.388-.04.16-.06.353-.06.58 0 .219.016.403.048.552.032.15.076.27.132.364.059.09.128.156.208.196.08.04.17.06.268.06.09 0 .172-.008.244-.024a.832.832 0 0 0 .376-.196c.056-.05.11-.108.164-.172V9.964Zm1.24-2.952V13h-.768c-.155 0-.256-.07-.304-.208l-.096-.316c-.083.088-.17.168-.26.24a1.5 1.5 0 0 1-.636.304c-.12.03-.25.044-.392.044-.216 0-.416-.048-.6-.144a1.383 1.383 0 0 1-.476-.416 2.133 2.133 0 0 1-.316-.664 3.31 3.31 0 0 1-.112-.9c0-.31.043-.596.128-.86.085-.267.205-.496.36-.688a1.69 1.69 0 0 1 .564-.456c.219-.11.46-.164.724-.164.216 0 .397.03.544.092.147.061.28.144.4.248v-2.1h1.24Zm3.933 3.404a1.09 1.09 0 0 0-.312.396 1.086 1.086 0 0 0-.092.444c0 .128.02.244.056.348a.783.783 0 0 0 .424.444c.102.04.214.06.336.06.18 0 .346-.023.5-.068.155-.048.3-.115.432-.2l-1.344-1.424ZM97.093 13H95.87c-.06 0-.116-.003-.164-.008a.727.727 0 0 1-.136-.036.472.472 0 0 1-.116-.068 1.117 1.117 0 0 1-.12-.112l-.252-.264a3.096 3.096 0 0 1-1.788.552c-.232 0-.46-.04-.684-.12a1.916 1.916 0 0 1-.592-.34 1.745 1.745 0 0 1-.42-.54 1.545 1.545 0 0 1-.16-.708c0-.176.027-.343.08-.5a1.67 1.67 0 0 1 .232-.436 2.03 2.03 0 0 1 .356-.368c.136-.112.287-.21.452-.292a2.198 2.198 0 0 1-.276-.572 1.889 1.889 0 0 1-.084-.544c0-.208.038-.404.112-.588a1.43 1.43 0 0 1 .332-.488 1.63 1.63 0 0 1 .536-.336c.214-.083.458-.124.732-.124.26 0 .487.039.684.116.198.075.364.175.5.3.136.123.243.265.32.428.078.163.126.33.144.5l-.8.16c-.14.032-.245-.024-.312-.168a.888.888 0 0 0-.216-.316.46.46 0 0 0-.32-.108.54.54 0 0 0-.42.188.6.6 0 0 0-.104.196.753.753 0 0 0-.036.232c0 .07.006.136.016.2a1.013 1.013 0 0 0 .18.392c.051.07.114.145.188.228l1.44 1.516a3.031 3.031 0 0 0 .264-1.036.282.282 0 0 1 .076-.176.232.232 0 0 1 .172-.064h.784c0 .387-.052.75-.156 1.088-.104.339-.25.648-.44.928L97.093 13Zm-20.59 4.98h2.073v2.46a3.057 3.057 0 0 1-.956.476 3.728 3.728 0 0 1-1.056.148 3.69 3.69 0 0 1-1.312-.224 3.066 3.066 0 0 1-1.008-.624 2.764 2.764 0 0 1-.648-.944 3.062 3.062 0 0 1-.228-1.188c0-.435.072-.833.216-1.196.144-.365.35-.68.616-.944.27-.264.593-.47.972-.616a3.53 3.53 0 0 1 1.276-.22c.243 0 .47.02.684.06.213.04.41.095.588.164a2.687 2.687 0 0 1 .896.56l-.392.596a.377.377 0 0 1-.24.172c-.096.021-.2-.003-.312-.072a3.478 3.478 0 0 0-.304-.164 1.663 1.663 0 0 0-.288-.116 1.898 1.898 0 0 0-.312-.064 3.068 3.068 0 0 0-.368-.02c-.254 0-.482.045-.684.136a1.465 1.465 0 0 0-.52.376c-.141.163-.25.359-.328.588-.078.227-.116.48-.116.76 0 .31.043.584.128.824s.205.443.36.608c.157.165.344.292.56.38.219.085.46.128.724.128.162 0 .31-.016.44-.048.133-.032.263-.075.388-.128v-.884h-.576a.28.28 0 0 1-.2-.068.226.226 0 0 1-.072-.172v-.744Zm3.958-2.968V21h-1.24v-5.988h1.24Zm2.63 1.776c.315 0 .602.05.86.148a1.866 1.866 0 0 1 1.096 1.096c.104.261.156.556.156.884 0 .33-.052.63-.156.896a1.91 1.91 0 0 1-.432.676 1.912 1.912 0 0 1-.664.428 2.395 2.395 0 0 1-.86.148 2.44 2.44 0 0 1-.868-.148 1.999 1.999 0 0 1-.672-.428 1.958 1.958 0 0 1-.436-.676 2.507 2.507 0 0 1-.152-.896c0-.328.05-.623.152-.884.104-.264.25-.488.436-.672a1.95 1.95 0 0 1 .672-.424 2.44 2.44 0 0 1 .868-.148Zm0 3.356c.286 0 .495-.1.628-.3.136-.203.204-.51.204-.92 0-.41-.068-.716-.204-.916-.133-.2-.342-.3-.628-.3-.293 0-.508.1-.644.3-.136.2-.204.505-.204.916 0 .41.068.717.204.92.136.2.35.3.644.3Zm3.857-.272a.821.821 0 0 0 .304.216c.109.043.22.064.332.064a.807.807 0 0 0 .324-.064.627.627 0 0 0 .252-.216c.072-.101.128-.233.168-.396.04-.165.06-.368.06-.608 0-.208-.016-.384-.048-.528a.976.976 0 0 0-.136-.356.504.504 0 0 0-.224-.2.688.688 0 0 0-.304-.064.76.76 0 0 0-.396.1 1.366 1.366 0 0 0-.332.292v1.76Zm0-2.58c.16-.152.334-.273.524-.364.192-.093.405-.14.64-.14.234 0 .448.048.64.144a1.4 1.4 0 0 1 .492.412c.136.176.24.39.312.64.074.25.112.53.112.84 0 .336-.043.641-.128.916-.086.275-.207.51-.364.708-.155.195-.34.347-.556.456-.216.107-.455.16-.716.16-.126 0-.238-.012-.336-.036a1.215 1.215 0 0 1-.272-.1 1.248 1.248 0 0 1-.228-.16 2.777 2.777 0 0 1-.196-.2l-.044.208c-.022.085-.056.144-.104.176a.341.341 0 0 1-.192.048h-.824v-5.988h1.24v2.28Zm5.373 2.02a4.03 4.03 0 0 0-.612.064c-.16.032-.286.072-.38.12a.476.476 0 0 0-.196.164.4.4 0 0 0-.052.2c0 .141.04.241.116.3.078.056.191.084.34.084.16 0 .3-.028.42-.084a1.28 1.28 0 0 0 .364-.272v-.576Zm-2.232-1.884a2.5 2.5 0 0 1 .832-.492 2.91 2.91 0 0 1 .984-.164c.251 0 .476.041.676.124a1.452 1.452 0 0 1 .836.856c.075.2.112.419.112.656V21h-.568a.594.594 0 0 1-.268-.048c-.058-.032-.108-.099-.148-.2l-.088-.228a4.006 4.006 0 0 1-.3.232 1.977 1.977 0 0 1-.3.172c-.1.045-.21.079-.328.1a1.88 1.88 0 0 1-.384.036c-.189 0-.36-.024-.516-.072a1.12 1.12 0 0 1-.396-.22.973.973 0 0 1-.248-.356 1.306 1.306 0 0 1-.088-.496c0-.15.038-.3.112-.452a1.1 1.1 0 0 1 .388-.42 2.43 2.43 0 0 1 .744-.32c.312-.085.706-.133 1.18-.144v-.176c0-.243-.05-.417-.152-.524-.098-.11-.24-.164-.424-.164a1.13 1.13 0 0 0-.36.048 1.707 1.707 0 0 0-.252.108c-.072.04-.142.076-.212.108a.588.588 0 0 1-.248.048.357.357 0 0 1-.216-.064.556.556 0 0 1-.144-.152l-.224-.388Zm5.353-2.416V21h-1.24v-5.988h1.24Z" fill="#B4B4B4"/><path opacity=".5" d="M101.5 2h-1v23h1V2Z" fill="#000"/><path d="m116.842 14.772-.54-1.596a6.75 6.75 0 0 1-.128-.356 11.798 11.798 0 0 1-.136-.448 6.476 6.476 0 0 1-.256.812l-.536 1.588h1.596ZM118.99 17h-1.048a.467.467 0 0 1-.284-.08.534.534 0 0 1-.164-.212l-.344-1.016h-2.216l-.344 1.016a.494.494 0 0 1-.16.204.44.44 0 0 1-.28.088h-1.056l2.256-5.828h1.384L118.99 17Zm1.436-5.988V17h-1.24v-5.988h1.24Zm1.958 0V17h-1.24v-5.988h1.24Z" fill="#B4B4B4"/><path d="M2.5 1h130V0H2.5v1ZM134 2.5v22h1v-22h-1ZM132.5 26H2.5v1h130v-1ZM1 24.5v-22H0v22h1ZM2.5 26A1.5 1.5 0 0 1 1 24.5H0A2.5 2.5 0 0 0 2.5 27v-1ZM134 24.5a1.5 1.5 0 0 1-1.5 1.5v1a2.5 2.5 0 0 0 2.5-2.5h-1ZM132.5 1a1.5 1.5 0 0 1 1.5 1.5h1a2.5 2.5 0 0 0-2.5-2.5v1ZM2.5 0A2.5 2.5 0 0 0 0 2.5h1A1.5 1.5 0 0 1 2.5 1V0Z" fill="#000"/><path d="M.5 29.5a2 2 0 0 1 2-2h130a2 2 0 0 1 2 2v22a2 2 0 0 1-2 2H2.5a2 2 0 0 1-2-2v-22Z" fill="#242424"/><path d="M17.82 41.084c0 .421-.073.813-.22 1.176a2.83 2.83 0 0 1-.611.948 2.826 2.826 0 0 1-.956.628 3.23 3.23 0 0 1-1.236.228 3.26 3.26 0 0 1-1.24-.228 2.868 2.868 0 0 1-.96-.628 2.88 2.88 0 0 1-.616-.948 3.158 3.158 0 0 1-.216-1.176c0-.421.072-.813.216-1.176.146-.363.352-.677.616-.944.266-.267.586-.476.96-.628a3.26 3.26 0 0 1 1.24-.228c.453 0 .865.077 1.236.232.373.152.692.361.956.628s.468.581.612.944c.146.363.22.753.22 1.172Zm-1.383 0a2.52 2.52 0 0 0-.112-.776A1.63 1.63 0 0 0 16 39.72a1.371 1.371 0 0 0-.512-.368 1.77 1.77 0 0 0-.692-.128 1.81 1.81 0 0 0-.7.128 1.406 1.406 0 0 0-.516.368c-.14.16-.246.356-.32.588a2.5 2.5 0 0 0-.112.776c0 .29.037.552.112.784.074.23.18.424.32.584.14.16.313.283.516.368.205.083.438.124.7.124.258 0 .489-.041.692-.124.202-.085.373-.208.512-.368.14-.16.249-.355.324-.584.074-.232.112-.493.112-.784ZM18.605 44v-3.296l-.271-.056a.58.58 0 0 1-.229-.1c-.056-.045-.084-.112-.084-.2v-.488h.584v-.156c0-.237.038-.452.113-.644a1.39 1.39 0 0 1 .328-.496c.143-.136.318-.24.524-.312a2.04 2.04 0 0 1 .7-.112 2.155 2.155 0 0 1 .548.072l-.024.604c-.006.085-.042.145-.108.18a.442.442 0 0 1-.2.048c-.11 0-.207.01-.293.032a.493.493 0 0 0-.216.112.506.506 0 0 0-.128.216 1.09 1.09 0 0 0-.044.336v.12h1.457v-.312c0-.237.037-.452.111-.644.078-.192.187-.356.328-.492.145-.136.32-.241.524-.316a2.04 2.04 0 0 1 .7-.112c.102 0 .195.007.28.02.086.01.175.03.269.056l-.024.604a.224.224 0 0 1-.032.108.236.236 0 0 1-.076.068.461.461 0 0 1-.2.048c-.11 0-.207.01-.293.032a.472.472 0 0 0-.215.116.506.506 0 0 0-.128.216c-.03.088-.044.2-.044.336v.272h.971v.848h-.931V44h-1.24v-3.292h-1.416V44h-1.24Z" fill="#B4B4B4"/><path fill="#000" d="M33.5 52V29h1v23z" opacity=".75"/><rect x="36" y="29.5" width="30" height="22" rx="1" fill="#7432FF"/><rect x="36" y="29.5" width="30" height="22" rx="1" stroke="#7432FF"/><path d="M46.015 39.356a.492.492 0 0 1-.128.144.273.273 0 0 1-.168.048.439.439 0 0 1-.2-.056 7.77 7.77 0 0 0-.24-.132 1.797 1.797 0 0 0-.304-.128 1.187 1.187 0 0 0-.392-.06c-.254 0-.443.055-.568.164a.548.548 0 0 0-.184.436c0 .117.037.215.112.292a.971.971 0 0 0 .292.2c.122.056.261.108.416.156.157.045.317.097.48.156.162.056.321.123.476.2.157.077.296.176.416.296.122.12.221.267.296.44.074.17.112.377.112.62 0 .27-.047.521-.14.756-.094.235-.23.44-.408.616-.176.173-.395.31-.656.412a2.467 2.467 0 0 1-.884.148c-.182 0-.367-.019-.556-.056a3.426 3.426 0 0 1-.544-.156 3.293 3.293 0 0 1-.496-.244 2.102 2.102 0 0 1-.404-.312l.4-.632a.386.386 0 0 1 .296-.16c.08 0 .16.025.24.076l.276.168c.104.061.222.117.356.168.133.05.29.076.472.076.245 0 .436-.053.572-.16.136-.11.204-.281.204-.516a.486.486 0 0 0-.112-.332.862.862 0 0 0-.296-.212 2.637 2.637 0 0 0-.412-.148c-.155-.043-.314-.09-.476-.14a3.843 3.843 0 0 1-.476-.192 1.588 1.588 0 0 1-.416-.3 1.449 1.449 0 0 1-.292-.464 1.858 1.858 0 0 1-.112-.688 1.652 1.652 0 0 1 .52-1.196c.17-.163.38-.292.628-.388a2.29 2.29 0 0 1 .852-.148 3.058 3.058 0 0 1 1.004.168c.152.053.293.119.424.196.133.075.252.16.356.256l-.336.628Zm3.526 2.072c0-.099-.014-.195-.04-.288a.64.64 0 0 0-.124-.248.603.603 0 0 0-.224-.18.774.774 0 0 0-.34-.068c-.235 0-.42.068-.553.204-.133.133-.22.327-.264.58h1.544Zm-1.56.72c.04.347.145.599.316.756.17.155.39.232.66.232.143 0 .267-.017.371-.052a1.79 1.79 0 0 0 .276-.116l.224-.116a.477.477 0 0 1 .216-.052c.1 0 .174.036.225.108l.36.444a1.866 1.866 0 0 1-.416.36 2.22 2.22 0 0 1-.925.32 3.259 3.259 0 0 1-.444.032 2.39 2.39 0 0 1-.82-.14 1.926 1.926 0 0 1-.668-.424 2.029 2.029 0 0 1-.452-.696 2.635 2.635 0 0 1-.164-.968c0-.277.047-.54.14-.788.096-.248.232-.465.408-.652.18-.187.394-.335.645-.444a2.14 2.14 0 0 1 .855-.164c.275 0 .526.043.753.128a1.616 1.616 0 0 1 .972.972c.093.235.14.501.14.8 0 .093-.005.17-.012.228a.361.361 0 0 1-.044.14.167.167 0 0 1-.089.072.386.386 0 0 1-.136.02H47.98Zm4.316-1.848c.08-.075.163-.144.248-.208a1.515 1.515 0 0 1 .588-.264c.115-.027.239-.04.372-.04.227 0 .427.04.6.12.176.077.324.187.444.328.12.139.21.305.272.5.061.192.092.401.092.628V44h-1.24v-2.636c0-.203-.047-.36-.14-.472-.093-.115-.23-.172-.412-.172a.862.862 0 0 0-.384.088 1.499 1.499 0 0 0-.344.232V44h-1.24v-4.148h.768c.155 0 .256.07.304.208l.072.24Zm5.815.664a.765.765 0 0 0-.305-.216.937.937 0 0 0-.343-.064.653.653 0 0 0-.568.288c-.07.099-.124.228-.165.388-.04.16-.06.353-.06.58 0 .219.017.403.048.552.032.15.076.27.133.364.058.09.128.156.208.196.08.04.169.06.267.06.091 0 .172-.008.245-.024a.834.834 0 0 0 .376-.196c.056-.05.11-.108.163-.172v-1.756Zm1.24-2.952V44h-.768c-.155 0-.257-.07-.305-.208l-.096-.316a2.34 2.34 0 0 1-.26.24 1.503 1.503 0 0 1-.636.304c-.12.03-.25.044-.392.044-.216 0-.416-.048-.6-.144a1.383 1.383 0 0 1-.476-.416 2.13 2.13 0 0 1-.316-.664 3.31 3.31 0 0 1-.111-.9c0-.31.042-.596.127-.86a2.13 2.13 0 0 1 .36-.688 1.69 1.69 0 0 1 .565-.456c.218-.11.46-.164.723-.164.216 0 .398.03.544.092.147.061.28.144.4.248v-2.1h1.24Z" fill="#fff"/><path fill="#000" d="M67 52V29h1v23z" opacity=".75"/><path d="M75.835 35.356a.492.492 0 0 1-.128.144.273.273 0 0 1-.168.048.44.44 0 0 1-.2-.056 6.934 6.934 0 0 0-.24-.132 1.793 1.793 0 0 0-.304-.128 1.187 1.187 0 0 0-.392-.06c-.253 0-.442.055-.568.164a.548.548 0 0 0-.184.436c0 .117.038.215.112.292a.973.973 0 0 0 .292.2c.123.056.262.108.416.156.158.045.318.097.48.156.163.056.322.123.476.2.158.077.296.176.416.296.123.12.222.267.296.44.075.17.112.377.112.62 0 .27-.046.521-.14.756-.093.235-.229.44-.408.616-.176.173-.394.31-.656.412a2.467 2.467 0 0 1-.884.148c-.18 0-.366-.019-.556-.056a3.426 3.426 0 0 1-.544-.156 3.298 3.298 0 0 1-.496-.244 2.105 2.105 0 0 1-.404-.312l.4-.632a.386.386 0 0 1 .296-.16c.08 0 .16.025.24.076l.276.168c.104.061.223.117.356.168.134.05.291.076.472.076.246 0 .436-.053.572-.16.136-.11.204-.281.204-.516a.486.486 0 0 0-.112-.332.862.862 0 0 0-.296-.212 2.633 2.633 0 0 0-.412-.148c-.154-.043-.313-.09-.476-.14a3.85 3.85 0 0 1-.476-.192 1.59 1.59 0 0 1-.416-.3 1.45 1.45 0 0 1-.292-.464 1.858 1.858 0 0 1-.112-.688 1.652 1.652 0 0 1 .52-1.196 1.88 1.88 0 0 1 .628-.388 2.29 2.29 0 0 1 .852-.148 3.04 3.04 0 0 1 1.004.168c.152.053.294.119.424.196.134.075.252.16.356.256l-.336.628Zm3.526 2.072c0-.099-.013-.195-.04-.288a.64.64 0 0 0-.124-.248.603.603 0 0 0-.224-.18.773.773 0 0 0-.34-.068c-.235 0-.419.068-.552.204-.133.133-.221.327-.264.58h1.544Zm-1.56.72c.04.347.145.599.316.756.17.155.39.232.66.232.144 0 .268-.017.372-.052a1.79 1.79 0 0 0 .276-.116l.224-.116a.477.477 0 0 1 .216-.052c.099 0 .173.036.224.108l.36.444a1.866 1.866 0 0 1-.416.36 2.22 2.22 0 0 1-.924.32 3.259 3.259 0 0 1-.444.032c-.29 0-.564-.047-.82-.14a1.927 1.927 0 0 1-.668-.424 2.03 2.03 0 0 1-.452-.696 2.63 2.63 0 0 1-.164-.968c0-.277.047-.54.14-.788.096-.248.232-.465.408-.652a1.97 1.97 0 0 1 .644-.444 2.14 2.14 0 0 1 .856-.164c.275 0 .525.043.752.128a1.616 1.616 0 0 1 .972.972c.093.235.14.501.14.8 0 .093-.004.17-.012.228a.361.361 0 0 1-.044.14.166.166 0 0 1-.088.072.386.386 0 0 1-.136.02h-2.392Zm4.317-1.848c.08-.075.162-.144.248-.208a1.517 1.517 0 0 1 .588-.264c.114-.027.238-.04.372-.04.226 0 .426.04.6.12.176.077.324.187.444.328.12.139.21.305.272.5.06.192.092.401.092.628V40h-1.24v-2.636c0-.203-.047-.36-.14-.472-.094-.115-.231-.172-.412-.172a.862.862 0 0 0-.384.088 1.501 1.501 0 0 0-.344.232V40h-1.24v-4.148h.768c.154 0 .256.07.304.208l.072.24Zm5.814.664a.764.764 0 0 0-.304-.216.937.937 0 0 0-.344-.064.653.653 0 0 0-.568.288c-.07.099-.124.228-.164.388-.04.16-.06.353-.06.58 0 .219.016.403.048.552.032.15.076.27.132.364.059.09.128.156.208.196.08.04.17.06.268.06.09 0 .172-.008.244-.024a.832.832 0 0 0 .376-.196c.056-.05.11-.108.164-.172v-1.756Zm1.24-2.952V40h-.768c-.155 0-.256-.07-.304-.208l-.096-.316c-.083.088-.17.168-.26.24a1.5 1.5 0 0 1-.636.304c-.12.03-.25.044-.392.044-.216 0-.416-.048-.6-.144a1.383 1.383 0 0 1-.476-.416 2.133 2.133 0 0 1-.316-.664 3.31 3.31 0 0 1-.112-.9c0-.31.043-.596.128-.86.085-.267.205-.496.36-.688a1.69 1.69 0 0 1 .564-.456c.219-.11.46-.164.724-.164.216 0 .397.03.544.092.147.061.28.144.4.248v-2.1h1.24Zm3.933 3.404a1.09 1.09 0 0 0-.312.396 1.086 1.086 0 0 0-.092.444c0 .128.02.244.056.348a.783.783 0 0 0 .424.444c.102.04.214.06.336.06.18 0 .346-.023.5-.068.155-.048.3-.115.432-.2l-1.344-1.424ZM97.093 40H95.87c-.06 0-.116-.003-.164-.008a.727.727 0 0 1-.136-.036.472.472 0 0 1-.116-.068 1.117 1.117 0 0 1-.12-.112l-.252-.264a3.096 3.096 0 0 1-1.788.552c-.232 0-.46-.04-.684-.12a1.916 1.916 0 0 1-.592-.34 1.745 1.745 0 0 1-.42-.54 1.545 1.545 0 0 1-.16-.708c0-.176.027-.343.08-.5a1.67 1.67 0 0 1 .232-.436 2.03 2.03 0 0 1 .356-.368 2.39 2.39 0 0 1 .452-.292 2.198 2.198 0 0 1-.276-.572 1.89 1.89 0 0 1-.084-.544c0-.208.038-.404.112-.588a1.43 1.43 0 0 1 .332-.488 1.61 1.61 0 0 1 .536-.336c.214-.083.458-.124.732-.124.26 0 .487.039.684.116.198.075.364.175.5.3.136.123.243.265.32.428.078.163.126.33.144.5l-.8.16c-.14.032-.245-.024-.312-.168a.887.887 0 0 0-.216-.316.46.46 0 0 0-.32-.108.539.539 0 0 0-.42.188.6.6 0 0 0-.104.196.754.754 0 0 0-.036.232c0 .07.006.136.016.2a1.015 1.015 0 0 0 .18.392c.051.07.114.145.188.228l1.44 1.516a3.031 3.031 0 0 0 .264-1.036.282.282 0 0 1 .076-.176.232.232 0 0 1 .172-.064h.784c0 .387-.052.75-.156 1.088-.104.339-.25.648-.44.928L97.093 40Zm-20.59 4.98h2.073v2.46a3.057 3.057 0 0 1-.956.476 3.728 3.728 0 0 1-1.056.148 3.69 3.69 0 0 1-1.312-.224 3.066 3.066 0 0 1-1.008-.624 2.764 2.764 0 0 1-.648-.944 3.062 3.062 0 0 1-.228-1.188c0-.435.072-.833.216-1.196.144-.365.35-.68.616-.944.27-.264.593-.47.972-.616a3.53 3.53 0 0 1 1.276-.22c.243 0 .47.02.684.06.213.04.41.095.588.164a2.687 2.687 0 0 1 .896.56l-.392.596a.377.377 0 0 1-.24.172c-.096.021-.2-.003-.312-.072a3.478 3.478 0 0 0-.304-.164 1.663 1.663 0 0 0-.288-.116 1.898 1.898 0 0 0-.312-.064 3.068 3.068 0 0 0-.368-.02c-.254 0-.482.045-.684.136a1.465 1.465 0 0 0-.52.376c-.141.163-.25.359-.328.588-.078.227-.116.48-.116.76 0 .31.043.584.128.824s.205.443.36.608c.157.165.344.292.56.38.219.085.46.128.724.128.162 0 .31-.016.44-.048.133-.032.263-.075.388-.128v-.884h-.576a.28.28 0 0 1-.2-.068.226.226 0 0 1-.072-.172v-.744Zm3.958-2.968V48h-1.24v-5.988h1.24Zm2.63 1.776c.315 0 .602.05.86.148a1.866 1.866 0 0 1 1.096 1.096c.104.261.156.556.156.884 0 .33-.052.63-.156.896a1.91 1.91 0 0 1-.432.676 1.912 1.912 0 0 1-.664.428 2.395 2.395 0 0 1-.86.148 2.44 2.44 0 0 1-.868-.148 1.999 1.999 0 0 1-.672-.428 1.958 1.958 0 0 1-.436-.676 2.507 2.507 0 0 1-.152-.896c0-.328.05-.623.152-.884.104-.264.25-.488.436-.672a1.95 1.95 0 0 1 .672-.424 2.44 2.44 0 0 1 .868-.148Zm0 3.356c.286 0 .495-.1.628-.3.136-.203.204-.51.204-.92 0-.41-.068-.716-.204-.916-.133-.2-.342-.3-.628-.3-.293 0-.508.1-.644.3-.136.2-.204.505-.204.916 0 .41.068.717.204.92.136.2.35.3.644.3Zm3.857-.272a.821.821 0 0 0 .304.216c.109.043.22.064.332.064a.807.807 0 0 0 .324-.064.627.627 0 0 0 .252-.216c.072-.101.128-.233.168-.396.04-.165.06-.368.06-.608 0-.208-.016-.384-.048-.528a.976.976 0 0 0-.136-.356.504.504 0 0 0-.224-.2.688.688 0 0 0-.304-.064.76.76 0 0 0-.396.1 1.366 1.366 0 0 0-.332.292v1.76Zm0-2.58c.16-.152.334-.273.524-.364.192-.093.405-.14.64-.14.234 0 .448.048.64.144a1.4 1.4 0 0 1 .492.412c.136.176.24.39.312.64.074.25.112.53.112.84 0 .336-.043.641-.128.916-.086.275-.207.51-.364.708-.155.195-.34.347-.556.456-.216.107-.455.16-.716.16-.126 0-.238-.012-.336-.036a1.215 1.215 0 0 1-.272-.1 1.248 1.248 0 0 1-.228-.16 2.777 2.777 0 0 1-.196-.2l-.044.208c-.022.085-.056.144-.104.176a.341.341 0 0 1-.192.048h-.824v-5.988h1.24v2.28Zm5.373 2.02a4.03 4.03 0 0 0-.612.064c-.16.032-.286.072-.38.12a.476.476 0 0 0-.196.164.4.4 0 0 0-.052.2c0 .141.04.241.116.3.078.056.191.084.34.084.16 0 .3-.028.42-.084a1.28 1.28 0 0 0 .364-.272v-.576Zm-2.232-1.884a2.5 2.5 0 0 1 .832-.492 2.91 2.91 0 0 1 .984-.164c.251 0 .476.041.676.124a1.452 1.452 0 0 1 .836.856c.075.2.112.419.112.656V48h-.568a.594.594 0 0 1-.268-.048c-.058-.032-.108-.099-.148-.2l-.088-.228a4.006 4.006 0 0 1-.3.232 1.977 1.977 0 0 1-.3.172c-.1.045-.21.079-.328.1a1.88 1.88 0 0 1-.384.036c-.189 0-.36-.024-.516-.072a1.12 1.12 0 0 1-.396-.22.973.973 0 0 1-.248-.356 1.306 1.306 0 0 1-.088-.496c0-.15.038-.3.112-.452a1.1 1.1 0 0 1 .388-.42 2.43 2.43 0 0 1 .744-.32c.312-.085.706-.133 1.18-.144v-.176c0-.243-.05-.417-.152-.524-.098-.11-.24-.164-.424-.164a1.13 1.13 0 0 0-.36.048 1.707 1.707 0 0 0-.252.108c-.072.04-.142.076-.212.108a.588.588 0 0 1-.248.048.357.357 0 0 1-.216-.064.556.556 0 0 1-.144-.152l-.224-.388Zm5.353-2.416V48h-1.24v-5.988h1.24Z" fill="#B4B4B4"/><path opacity=".5" d="M101.5 29h-1v23h1V29Z" fill="#000"/><path d="m116.842 41.772-.54-1.596a6.75 6.75 0 0 1-.128-.356 11.798 11.798 0 0 1-.136-.448 6.476 6.476 0 0 1-.256.812l-.536 1.588h1.596ZM118.99 44h-1.048a.467.467 0 0 1-.284-.08.534.534 0 0 1-.164-.212l-.344-1.016h-2.216l-.344 1.016a.494.494 0 0 1-.16.204.44.44 0 0 1-.28.088h-1.056l2.256-5.828h1.384L118.99 44Zm1.436-5.988V44h-1.24v-5.988h1.24Zm1.958 0V44h-1.24v-5.988h1.24Z" fill="#B4B4B4"/><path d="M2.5 28h130v-1H2.5v1ZM134 29.5v22h1v-22h-1ZM132.5 53H2.5v1h130v-1ZM1 51.5v-22H0v22h1ZM2.5 53A1.5 1.5 0 0 1 1 51.5H0A2.5 2.5 0 0 0 2.5 54v-1ZM134 51.5a1.5 1.5 0 0 1-1.5 1.5v1a2.5 2.5 0 0 0 2.5-2.5h-1ZM132.5 28a1.5 1.5 0 0 1 1.5 1.5h1a2.5 2.5 0 0 0-2.5-2.5v1Zm-130-1A2.5 2.5 0 0 0 0 29.5h1A1.5 1.5 0 0 1 2.5 28v-1Z" fill="#000"/><path d="M.5 56.5a2 2 0 0 1 2-2h130a2 2 0 0 1 2 2v22a2 2 0 0 1-2 2H2.5a2 2 0 0 1-2-2v-22Z" fill="#242424"/><path d="M17.82 68.084c0 .421-.073.813-.22 1.176a2.83 2.83 0 0 1-.611.948 2.826 2.826 0 0 1-.956.628 3.23 3.23 0 0 1-1.236.228 3.26 3.26 0 0 1-1.24-.228 2.868 2.868 0 0 1-.96-.628 2.88 2.88 0 0 1-.616-.948 3.158 3.158 0 0 1-.216-1.176c0-.421.072-.813.216-1.176.146-.363.352-.677.616-.944.266-.267.586-.476.96-.628a3.26 3.26 0 0 1 1.24-.228c.453 0 .865.077 1.236.232.373.152.692.361.956.628s.468.581.612.944c.146.363.22.753.22 1.172Zm-1.383 0a2.52 2.52 0 0 0-.112-.776A1.63 1.63 0 0 0 16 66.72a1.371 1.371 0 0 0-.512-.368 1.77 1.77 0 0 0-.692-.128 1.81 1.81 0 0 0-.7.128 1.406 1.406 0 0 0-.516.368c-.14.16-.246.356-.32.588a2.5 2.5 0 0 0-.112.776c0 .29.037.552.112.784.074.23.18.424.32.584.14.16.313.283.516.368.205.083.438.124.7.124.258 0 .489-.041.692-.124.202-.085.373-.208.512-.368.14-.16.249-.355.324-.584.074-.232.112-.493.112-.784ZM18.605 71v-3.296l-.271-.056a.58.58 0 0 1-.229-.1c-.056-.045-.084-.112-.084-.2v-.488h.584v-.156c0-.237.038-.452.113-.644a1.39 1.39 0 0 1 .328-.496c.143-.136.318-.24.524-.312a2.04 2.04 0 0 1 .7-.112 2.155 2.155 0 0 1 .548.072l-.024.604c-.006.085-.042.145-.108.18a.442.442 0 0 1-.2.048c-.11 0-.207.01-.293.032a.493.493 0 0 0-.216.112.506.506 0 0 0-.128.216 1.09 1.09 0 0 0-.044.336v.12h1.457v-.312c0-.237.037-.452.111-.644.078-.192.187-.356.328-.492.145-.136.32-.241.524-.316a2.04 2.04 0 0 1 .7-.112c.102 0 .195.007.28.02.086.01.175.03.269.056l-.024.604a.224.224 0 0 1-.032.108.236.236 0 0 1-.076.068.461.461 0 0 1-.2.048c-.11 0-.207.01-.293.032a.472.472 0 0 0-.215.116.506.506 0 0 0-.128.216c-.03.088-.044.2-.044.336v.272h.971v.848h-.931V71h-1.24v-3.292h-1.416V71h-1.24Z" fill="#B4B4B4"/><path fill="#000" d="M33.5 79V56h1v23z" opacity=".75"/><path d="M46.015 66.356a.492.492 0 0 1-.128.144.273.273 0 0 1-.168.048.439.439 0 0 1-.2-.056 7.77 7.77 0 0 0-.24-.132 1.797 1.797 0 0 0-.304-.128 1.187 1.187 0 0 0-.392-.06c-.254 0-.443.055-.568.164a.548.548 0 0 0-.184.436c0 .117.037.215.112.292a.971.971 0 0 0 .292.2c.122.056.261.108.416.156.157.045.317.097.48.156.162.056.321.123.476.2.157.077.296.176.416.296.122.12.221.267.296.44.074.17.112.377.112.62 0 .27-.047.521-.14.756-.094.235-.23.44-.408.616-.176.173-.395.31-.656.412a2.467 2.467 0 0 1-.884.148c-.182 0-.367-.019-.556-.056a3.426 3.426 0 0 1-.544-.156 3.293 3.293 0 0 1-.496-.244 2.102 2.102 0 0 1-.404-.312l.4-.632a.386.386 0 0 1 .296-.16c.08 0 .16.025.24.076l.276.168c.104.061.222.117.356.168.133.05.29.076.472.076.245 0 .436-.053.572-.16.136-.11.204-.281.204-.516a.486.486 0 0 0-.112-.332.862.862 0 0 0-.296-.212 2.637 2.637 0 0 0-.412-.148c-.155-.043-.314-.09-.476-.14a3.843 3.843 0 0 1-.476-.192 1.588 1.588 0 0 1-.416-.3 1.449 1.449 0 0 1-.292-.464 1.858 1.858 0 0 1-.112-.688 1.652 1.652 0 0 1 .52-1.196c.17-.163.38-.292.628-.388a2.29 2.29 0 0 1 .852-.148 3.058 3.058 0 0 1 1.004.168c.152.053.293.119.424.196.133.075.252.16.356.256l-.336.628Zm3.526 2.072c0-.099-.014-.195-.04-.288a.64.64 0 0 0-.124-.248.603.603 0 0 0-.224-.18.774.774 0 0 0-.34-.068c-.235 0-.42.068-.553.204-.133.133-.22.327-.264.58h1.544Zm-1.56.72c.04.347.145.599.316.756.17.155.39.232.66.232.143 0 .267-.017.371-.052a1.79 1.79 0 0 0 .276-.116l.224-.116a.477.477 0 0 1 .216-.052c.1 0 .174.036.225.108l.36.444a1.866 1.866 0 0 1-.416.36 2.22 2.22 0 0 1-.925.32 3.259 3.259 0 0 1-.444.032 2.39 2.39 0 0 1-.82-.14 1.926 1.926 0 0 1-.668-.424 2.029 2.029 0 0 1-.452-.696 2.635 2.635 0 0 1-.164-.968c0-.277.047-.54.14-.788.096-.248.232-.465.408-.652.18-.187.394-.335.645-.444a2.14 2.14 0 0 1 .855-.164c.275 0 .526.043.753.128a1.616 1.616 0 0 1 .972.972c.093.235.14.501.14.8 0 .093-.005.17-.012.228a.361.361 0 0 1-.044.14.167.167 0 0 1-.089.072.386.386 0 0 1-.136.02H47.98Zm4.316-1.848c.08-.075.163-.144.248-.208a1.515 1.515 0 0 1 .588-.264c.115-.027.239-.04.372-.04.227 0 .427.04.6.12.176.077.324.187.444.328.12.139.21.305.272.5.061.192.092.401.092.628V71h-1.24v-2.636c0-.203-.047-.36-.14-.472-.093-.115-.23-.172-.412-.172a.862.862 0 0 0-.384.088 1.499 1.499 0 0 0-.344.232V71h-1.24v-4.148h.768c.155 0 .256.07.304.208l.072.24Zm5.815.664a.765.765 0 0 0-.305-.216.937.937 0 0 0-.343-.064.653.653 0 0 0-.568.288c-.07.099-.124.228-.165.388-.04.16-.06.353-.06.58 0 .219.017.403.048.552.032.15.076.27.133.364.058.09.128.156.208.196.08.04.169.06.267.06.091 0 .172-.008.245-.024a.834.834 0 0 0 .376-.196c.056-.05.11-.108.163-.172v-1.756Zm1.24-2.952V71h-.768c-.155 0-.257-.07-.305-.208l-.096-.316a2.34 2.34 0 0 1-.26.24 1.503 1.503 0 0 1-.636.304c-.12.03-.25.044-.392.044-.216 0-.416-.048-.6-.144a1.383 1.383 0 0 1-.476-.416 2.13 2.13 0 0 1-.316-.664 3.31 3.31 0 0 1-.111-.9c0-.31.042-.596.127-.86a2.13 2.13 0 0 1 .36-.688 1.69 1.69 0 0 1 .565-.456c.218-.11.46-.164.723-.164.216 0 .398.03.544.092.147.061.28.144.4.248v-2.1h1.24Z" fill="#B4B4B4"/><path fill="#000" d="M67 79V56h1v23z" opacity=".75"/><rect x="69.5" y="56.5" width="30" height="22" rx="1" fill="#7432FF"/><rect x="69.5" y="56.5" width="30" height="22" rx="1" stroke="#7432FF"/><path d="M75.835 62.356a.492.492 0 0 1-.128.144.273.273 0 0 1-.168.048.44.44 0 0 1-.2-.056 6.934 6.934 0 0 0-.24-.132 1.793 1.793 0 0 0-.304-.128 1.187 1.187 0 0 0-.392-.06c-.253 0-.442.055-.568.164a.548.548 0 0 0-.184.436c0 .117.038.215.112.292a.973.973 0 0 0 .292.2c.123.056.262.108.416.156.158.045.318.097.48.156.163.056.322.123.476.2.158.077.296.176.416.296.123.12.222.267.296.44.075.17.112.377.112.62 0 .27-.046.521-.14.756-.093.235-.229.44-.408.616-.176.173-.394.31-.656.412a2.467 2.467 0 0 1-.884.148c-.18 0-.366-.019-.556-.056a3.426 3.426 0 0 1-.544-.156 3.298 3.298 0 0 1-.496-.244 2.105 2.105 0 0 1-.404-.312l.4-.632a.386.386 0 0 1 .296-.16c.08 0 .16.025.24.076l.276.168c.104.061.223.117.356.168.134.05.291.076.472.076.246 0 .436-.053.572-.16.136-.11.204-.281.204-.516a.486.486 0 0 0-.112-.332.862.862 0 0 0-.296-.212 2.633 2.633 0 0 0-.412-.148c-.154-.043-.313-.09-.476-.14a3.85 3.85 0 0 1-.476-.192 1.59 1.59 0 0 1-.416-.3 1.45 1.45 0 0 1-.292-.464 1.858 1.858 0 0 1-.112-.688 1.652 1.652 0 0 1 .52-1.196 1.88 1.88 0 0 1 .628-.388 2.29 2.29 0 0 1 .852-.148 3.04 3.04 0 0 1 1.004.168c.152.053.294.119.424.196.134.075.252.16.356.256l-.336.628Zm3.526 2.072c0-.099-.013-.195-.04-.288a.64.64 0 0 0-.124-.248.603.603 0 0 0-.224-.18.773.773 0 0 0-.34-.068c-.235 0-.419.068-.552.204-.133.133-.221.327-.264.58h1.544Zm-1.56.72c.04.347.145.599.316.756.17.155.39.232.66.232.144 0 .268-.017.372-.052a1.79 1.79 0 0 0 .276-.116l.224-.116a.477.477 0 0 1 .216-.052c.099 0 .173.036.224.108l.36.444a1.866 1.866 0 0 1-.416.36 2.22 2.22 0 0 1-.924.32 3.259 3.259 0 0 1-.444.032c-.29 0-.564-.047-.82-.14a1.927 1.927 0 0 1-.668-.424 2.03 2.03 0 0 1-.452-.696 2.63 2.63 0 0 1-.164-.968c0-.277.047-.54.14-.788.096-.248.232-.465.408-.652a1.97 1.97 0 0 1 .644-.444 2.14 2.14 0 0 1 .856-.164c.275 0 .525.043.752.128a1.616 1.616 0 0 1 .972.972c.093.235.14.501.14.8 0 .093-.004.17-.012.228a.361.361 0 0 1-.044.14.166.166 0 0 1-.088.072.386.386 0 0 1-.136.02h-2.392Zm4.317-1.848c.08-.075.162-.144.248-.208a1.517 1.517 0 0 1 .588-.264c.114-.027.238-.04.372-.04.226 0 .426.04.6.12.176.077.324.187.444.328.12.139.21.305.272.5.06.192.092.401.092.628V67h-1.24v-2.636c0-.203-.047-.36-.14-.472-.094-.115-.231-.172-.412-.172a.862.862 0 0 0-.384.088 1.501 1.501 0 0 0-.344.232V67h-1.24v-4.148h.768c.154 0 .256.07.304.208l.072.24Zm5.814.664a.764.764 0 0 0-.304-.216.937.937 0 0 0-.344-.064.653.653 0 0 0-.568.288c-.07.099-.124.228-.164.388-.04.16-.06.353-.06.58 0 .219.016.403.048.552.032.15.076.27.132.364.059.09.128.156.208.196.08.04.17.06.268.06.09 0 .172-.008.244-.024a.832.832 0 0 0 .376-.196c.056-.05.11-.108.164-.172v-1.756Zm1.24-2.952V67h-.768c-.155 0-.256-.07-.304-.208l-.096-.316c-.083.088-.17.168-.26.24a1.5 1.5 0 0 1-.636.304c-.12.03-.25.044-.392.044-.216 0-.416-.048-.6-.144a1.383 1.383 0 0 1-.476-.416 2.133 2.133 0 0 1-.316-.664 3.31 3.31 0 0 1-.112-.9c0-.31.043-.596.128-.86.085-.267.205-.496.36-.688a1.69 1.69 0 0 1 .564-.456c.219-.11.46-.164.724-.164.216 0 .397.03.544.092.147.061.28.144.4.248v-2.1h1.24Zm3.933 3.404a1.09 1.09 0 0 0-.312.396 1.086 1.086 0 0 0-.092.444c0 .128.02.244.056.348a.783.783 0 0 0 .424.444c.102.04.214.06.336.06.18 0 .346-.023.5-.068.155-.048.3-.115.432-.2l-1.344-1.424ZM97.093 67H95.87c-.06 0-.116-.003-.164-.008a.727.727 0 0 1-.136-.036.472.472 0 0 1-.116-.068 1.117 1.117 0 0 1-.12-.112l-.252-.264a3.096 3.096 0 0 1-1.788.552c-.232 0-.46-.04-.684-.12a1.916 1.916 0 0 1-.592-.34 1.745 1.745 0 0 1-.42-.54 1.545 1.545 0 0 1-.16-.708c0-.176.027-.343.08-.5a1.67 1.67 0 0 1 .232-.436 2.03 2.03 0 0 1 .356-.368 2.39 2.39 0 0 1 .452-.292 2.198 2.198 0 0 1-.276-.572 1.89 1.89 0 0 1-.084-.544c0-.208.038-.404.112-.588a1.43 1.43 0 0 1 .332-.488 1.61 1.61 0 0 1 .536-.336c.214-.083.458-.124.732-.124.26 0 .487.039.684.116.198.075.364.175.5.3.136.123.243.265.32.428.078.163.126.33.144.5l-.8.16c-.14.032-.245-.024-.312-.168a.887.887 0 0 0-.216-.316.46.46 0 0 0-.32-.108.539.539 0 0 0-.42.188.6.6 0 0 0-.104.196.754.754 0 0 0-.036.232c0 .07.006.136.016.2a1.015 1.015 0 0 0 .18.392c.051.07.114.145.188.228l1.44 1.516a3.031 3.031 0 0 0 .264-1.036.282.282 0 0 1 .076-.176.232.232 0 0 1 .172-.064h.784c0 .387-.052.75-.156 1.088-.104.339-.25.648-.44.928L97.093 67Zm-20.59 4.98h2.073v2.46a3.057 3.057 0 0 1-.956.476 3.728 3.728 0 0 1-1.056.148 3.69 3.69 0 0 1-1.312-.224 3.066 3.066 0 0 1-1.008-.624 2.764 2.764 0 0 1-.648-.944 3.062 3.062 0 0 1-.228-1.188c0-.435.072-.833.216-1.196.144-.365.35-.68.616-.944.27-.264.593-.47.972-.616a3.53 3.53 0 0 1 1.276-.22c.243 0 .47.02.684.06.213.04.41.095.588.164a2.687 2.687 0 0 1 .896.56l-.392.596a.377.377 0 0 1-.24.172c-.096.021-.2-.003-.312-.072a3.478 3.478 0 0 0-.304-.164 1.663 1.663 0 0 0-.288-.116 1.898 1.898 0 0 0-.312-.064 3.068 3.068 0 0 0-.368-.02c-.254 0-.482.045-.684.136a1.465 1.465 0 0 0-.52.376c-.141.163-.25.359-.328.588-.078.227-.116.48-.116.76 0 .31.043.584.128.824s.205.443.36.608c.157.165.344.292.56.38.219.085.46.128.724.128.162 0 .31-.016.44-.048.133-.032.263-.075.388-.128v-.884h-.576a.28.28 0 0 1-.2-.068.226.226 0 0 1-.072-.172v-.744Zm3.958-2.968V75h-1.24v-5.988h1.24Zm2.63 1.776c.315 0 .602.05.86.148a1.866 1.866 0 0 1 1.096 1.096c.104.261.156.556.156.884 0 .33-.052.63-.156.896a1.91 1.91 0 0 1-.432.676 1.912 1.912 0 0 1-.664.428 2.395 2.395 0 0 1-.86.148 2.44 2.44 0 0 1-.868-.148 1.999 1.999 0 0 1-.672-.428 1.958 1.958 0 0 1-.436-.676 2.507 2.507 0 0 1-.152-.896c0-.328.05-.623.152-.884.104-.264.25-.488.436-.672a1.95 1.95 0 0 1 .672-.424 2.44 2.44 0 0 1 .868-.148Zm0 3.356c.286 0 .495-.1.628-.3.136-.203.204-.51.204-.92 0-.41-.068-.716-.204-.916-.133-.2-.342-.3-.628-.3-.293 0-.508.1-.644.3-.136.2-.204.505-.204.916 0 .41.068.717.204.92.136.2.35.3.644.3Zm3.857-.272a.821.821 0 0 0 .304.216c.109.043.22.064.332.064a.807.807 0 0 0 .324-.064.627.627 0 0 0 .252-.216c.072-.101.128-.233.168-.396.04-.165.06-.368.06-.608 0-.208-.016-.384-.048-.528a.976.976 0 0 0-.136-.356.504.504 0 0 0-.224-.2.688.688 0 0 0-.304-.064.76.76 0 0 0-.396.1 1.366 1.366 0 0 0-.332.292v1.76Zm0-2.58c.16-.152.334-.273.524-.364.192-.093.405-.14.64-.14.234 0 .448.048.64.144a1.4 1.4 0 0 1 .492.412c.136.176.24.39.312.64.074.25.112.53.112.84 0 .336-.043.641-.128.916-.086.275-.207.51-.364.708-.155.195-.34.347-.556.456-.216.107-.455.16-.716.16-.126 0-.238-.012-.336-.036a1.215 1.215 0 0 1-.272-.1 1.248 1.248 0 0 1-.228-.16 2.777 2.777 0 0 1-.196-.2l-.044.208c-.022.085-.056.144-.104.176a.341.341 0 0 1-.192.048h-.824v-5.988h1.24v2.28Zm5.373 2.02a4.03 4.03 0 0 0-.612.064c-.16.032-.286.072-.38.12a.476.476 0 0 0-.196.164.4.4 0 0 0-.052.2c0 .141.04.241.116.3.078.056.191.084.34.084.16 0 .3-.028.42-.084a1.28 1.28 0 0 0 .364-.272v-.576Zm-2.232-1.884a2.5 2.5 0 0 1 .832-.492 2.91 2.91 0 0 1 .984-.164c.251 0 .476.041.676.124a1.452 1.452 0 0 1 .836.856c.075.2.112.419.112.656V75h-.568a.594.594 0 0 1-.268-.048c-.058-.032-.108-.099-.148-.2l-.088-.228a4.006 4.006 0 0 1-.3.232 1.977 1.977 0 0 1-.3.172c-.1.045-.21.079-.328.1a1.88 1.88 0 0 1-.384.036c-.189 0-.36-.024-.516-.072a1.12 1.12 0 0 1-.396-.22.973.973 0 0 1-.248-.356 1.306 1.306 0 0 1-.088-.496c0-.15.038-.3.112-.452a1.1 1.1 0 0 1 .388-.42 2.43 2.43 0 0 1 .744-.32c.312-.085.706-.133 1.18-.144v-.176c0-.243-.05-.417-.152-.524-.098-.11-.24-.164-.424-.164a1.13 1.13 0 0 0-.36.048 1.707 1.707 0 0 0-.252.108c-.072.04-.142.076-.212.108a.588.588 0 0 1-.248.048.357.357 0 0 1-.216-.064.556.556 0 0 1-.144-.152l-.224-.388Zm5.353-2.416V75h-1.24v-5.988h1.24Z" fill="#fff"/><path opacity=".5" d="M101.5 56h-1v23h1V56Z" fill="#000"/><path d="m116.842 68.772-.54-1.596a6.75 6.75 0 0 1-.128-.356 11.798 11.798 0 0 1-.136-.448 6.476 6.476 0 0 1-.256.812l-.536 1.588h1.596ZM118.99 71h-1.048a.467.467 0 0 1-.284-.08.534.534 0 0 1-.164-.212l-.344-1.016h-2.216l-.344 1.016a.494.494 0 0 1-.16.204.44.44 0 0 1-.28.088h-1.056l2.256-5.828h1.384L118.99 71Zm1.436-5.988V71h-1.24v-5.988h1.24Zm1.958 0V71h-1.24v-5.988h1.24Z" fill="#B4B4B4"/><path d="M2.5 55h130v-1H2.5v1ZM134 56.5v22h1v-22h-1ZM132.5 80H2.5v1h130v-1ZM1 78.5v-22H0v22h1ZM2.5 80A1.5 1.5 0 0 1 1 78.5H0A2.5 2.5 0 0 0 2.5 81v-1ZM134 78.5a1.5 1.5 0 0 1-1.5 1.5v1a2.5 2.5 0 0 0 2.5-2.5h-1ZM132.5 55a1.5 1.5 0 0 1 1.5 1.5h1a2.5 2.5 0 0 0-2.5-2.5v1Zm-130-1A2.5 2.5 0 0 0 0 56.5h1A1.5 1.5 0 0 1 2.5 55v-1Z" fill="#000"/><path d="M.5 83.5a2 2 0 0 1 2-2h130a2 2 0 0 1 2 2v22a2 2 0 0 1-2 2H2.5a2 2 0 0 1-2-2v-22Z" fill="#242424"/><path d="M17.82 95.084c0 .421-.073.813-.22 1.176a2.83 2.83 0 0 1-.611.948 2.826 2.826 0 0 1-.956.628 3.23 3.23 0 0 1-1.236.228 3.26 3.26 0 0 1-1.24-.228 2.868 2.868 0 0 1-.96-.628 2.88 2.88 0 0 1-.616-.948 3.158 3.158 0 0 1-.216-1.176c0-.421.072-.813.216-1.176.146-.363.352-.677.616-.944.266-.267.586-.476.96-.628a3.26 3.26 0 0 1 1.24-.228c.453 0 .865.077 1.236.232.373.152.692.361.956.628s.468.581.612.944c.146.363.22.753.22 1.172Zm-1.383 0a2.52 2.52 0 0 0-.112-.776A1.63 1.63 0 0 0 16 93.72a1.371 1.371 0 0 0-.512-.368 1.77 1.77 0 0 0-.692-.128 1.81 1.81 0 0 0-.7.128 1.406 1.406 0 0 0-.516.368c-.14.16-.246.356-.32.588a2.5 2.5 0 0 0-.112.776c0 .29.037.552.112.784.074.23.18.424.32.584.14.16.313.283.516.368.205.083.438.124.7.124.258 0 .489-.041.692-.124.202-.085.373-.208.512-.368.14-.16.249-.355.324-.584.074-.232.112-.493.112-.784ZM18.605 98v-3.296l-.271-.056a.58.58 0 0 1-.229-.1c-.056-.045-.084-.112-.084-.2v-.488h.584v-.156c0-.237.038-.452.113-.644a1.39 1.39 0 0 1 .328-.496c.143-.136.318-.24.524-.312a2.04 2.04 0 0 1 .7-.112 2.155 2.155 0 0 1 .548.072l-.024.604c-.006.085-.042.145-.108.18a.442.442 0 0 1-.2.048c-.11 0-.207.01-.293.032a.493.493 0 0 0-.216.112.506.506 0 0 0-.128.216 1.09 1.09 0 0 0-.044.336v.12h1.457v-.312c0-.237.037-.452.111-.644.078-.192.187-.356.328-.492.145-.136.32-.241.524-.316a2.04 2.04 0 0 1 .7-.112c.102 0 .195.007.28.02.086.01.175.03.269.056l-.024.604a.224.224 0 0 1-.032.108.236.236 0 0 1-.076.068.461.461 0 0 1-.2.048c-.11 0-.207.01-.293.032a.472.472 0 0 0-.215.116.506.506 0 0 0-.128.216c-.03.088-.044.2-.044.336v.272h.971v.848h-.931V98h-1.24v-3.292h-1.416V98h-1.24Z" fill="#B4B4B4"/><path fill="#000" d="M33.5 106V83h1v23z" opacity=".75"/><path d="M46.015 93.356a.492.492 0 0 1-.128.144.273.273 0 0 1-.168.048.439.439 0 0 1-.2-.056 7.77 7.77 0 0 0-.24-.132 1.797 1.797 0 0 0-.304-.128 1.187 1.187 0 0 0-.392-.06c-.254 0-.443.055-.568.164a.548.548 0 0 0-.184.436c0 .117.037.215.112.292a.971.971 0 0 0 .292.2c.122.056.261.108.416.156.157.045.317.097.48.156.162.056.321.123.476.2.157.077.296.176.416.296.122.12.221.267.296.44.074.17.112.377.112.62 0 .27-.047.521-.14.756-.094.235-.23.44-.408.616-.176.173-.395.31-.656.412a2.467 2.467 0 0 1-.884.148c-.182 0-.367-.019-.556-.056a3.426 3.426 0 0 1-.544-.156 3.293 3.293 0 0 1-.496-.244 2.102 2.102 0 0 1-.404-.312l.4-.632a.386.386 0 0 1 .296-.16c.08 0 .16.025.24.076l.276.168c.104.061.222.117.356.168.133.05.29.076.472.076.245 0 .436-.053.572-.16.136-.11.204-.281.204-.516a.486.486 0 0 0-.112-.332.862.862 0 0 0-.296-.212 2.637 2.637 0 0 0-.412-.148c-.155-.043-.314-.09-.476-.14a3.843 3.843 0 0 1-.476-.192 1.588 1.588 0 0 1-.416-.3 1.449 1.449 0 0 1-.292-.464 1.858 1.858 0 0 1-.112-.688 1.652 1.652 0 0 1 .52-1.196c.17-.163.38-.292.628-.388a2.29 2.29 0 0 1 .852-.148 3.058 3.058 0 0 1 1.004.168c.152.053.293.119.424.196.133.075.252.16.356.256l-.336.628Zm3.526 2.072c0-.099-.014-.195-.04-.288a.64.64 0 0 0-.124-.248.603.603 0 0 0-.224-.18.774.774 0 0 0-.34-.068c-.235 0-.42.068-.553.204-.133.133-.22.327-.264.58h1.544Zm-1.56.72c.04.347.145.599.316.756.17.155.39.232.66.232.143 0 .267-.017.371-.052a1.79 1.79 0 0 0 .276-.116l.224-.116a.477.477 0 0 1 .216-.052c.1 0 .174.036.225.108l.36.444a1.866 1.866 0 0 1-.416.36 2.22 2.22 0 0 1-.925.32 3.259 3.259 0 0 1-.444.032 2.39 2.39 0 0 1-.82-.14 1.926 1.926 0 0 1-.668-.424 2.029 2.029 0 0 1-.452-.696 2.635 2.635 0 0 1-.164-.968c0-.277.047-.54.14-.788.096-.248.232-.465.408-.652.18-.187.394-.335.645-.444a2.14 2.14 0 0 1 .855-.164c.275 0 .526.043.753.128a1.616 1.616 0 0 1 .972.972c.093.235.14.501.14.8 0 .093-.005.17-.012.228a.361.361 0 0 1-.044.14.167.167 0 0 1-.089.072.386.386 0 0 1-.136.02H47.98Zm4.316-1.848c.08-.075.163-.144.248-.208a1.515 1.515 0 0 1 .588-.264c.115-.027.239-.04.372-.04.227 0 .427.04.6.12.176.077.324.187.444.328.12.139.21.305.272.5.061.192.092.401.092.628V98h-1.24v-2.636c0-.203-.047-.36-.14-.472-.093-.115-.23-.172-.412-.172a.862.862 0 0 0-.384.088 1.499 1.499 0 0 0-.344.232V98h-1.24v-4.148h.768c.155 0 .256.07.304.208l.072.24Zm5.815.664a.765.765 0 0 0-.305-.216.937.937 0 0 0-.343-.064.653.653 0 0 0-.568.288c-.07.099-.124.228-.165.388-.04.16-.06.353-.06.58 0 .219.017.403.048.552.032.15.076.27.133.364.058.09.128.156.208.196.08.04.169.06.267.06.091 0 .172-.008.245-.024a.834.834 0 0 0 .376-.196c.056-.05.11-.108.163-.172v-1.756Zm1.24-2.952V98h-.768c-.155 0-.257-.07-.305-.208l-.096-.316a2.34 2.34 0 0 1-.26.24 1.503 1.503 0 0 1-.636.304c-.12.03-.25.044-.392.044-.216 0-.416-.048-.6-.144a1.383 1.383 0 0 1-.476-.416 2.13 2.13 0 0 1-.316-.664 3.31 3.31 0 0 1-.111-.9c0-.31.042-.596.127-.86a2.13 2.13 0 0 1 .36-.688 1.69 1.69 0 0 1 .565-.456c.218-.11.46-.164.723-.164.216 0 .398.03.544.092.147.061.28.144.4.248v-2.1h1.24Z" fill="#B4B4B4"/><path fill="#000" d="M67 106V83h1v23z" opacity=".75"/><path d="M75.835 89.356a.492.492 0 0 1-.128.144.273.273 0 0 1-.168.048.44.44 0 0 1-.2-.056 6.934 6.934 0 0 0-.24-.132 1.793 1.793 0 0 0-.304-.128 1.187 1.187 0 0 0-.392-.06c-.253 0-.442.055-.568.164a.548.548 0 0 0-.184.436c0 .117.038.215.112.292a.973.973 0 0 0 .292.2c.123.056.262.108.416.156.158.045.318.097.48.156.163.056.322.123.476.2.158.077.296.176.416.296.123.12.222.267.296.44.075.17.112.377.112.62 0 .27-.046.521-.14.756-.093.235-.229.44-.408.616-.176.173-.394.31-.656.412a2.467 2.467 0 0 1-.884.148c-.18 0-.366-.019-.556-.056a3.426 3.426 0 0 1-.544-.156 3.298 3.298 0 0 1-.496-.244 2.105 2.105 0 0 1-.404-.312l.4-.632a.386.386 0 0 1 .296-.16c.08 0 .16.025.24.076l.276.168c.104.061.223.117.356.168.134.05.291.076.472.076.246 0 .436-.053.572-.16.136-.11.204-.281.204-.516a.486.486 0 0 0-.112-.332.862.862 0 0 0-.296-.212 2.633 2.633 0 0 0-.412-.148c-.154-.043-.313-.09-.476-.14a3.85 3.85 0 0 1-.476-.192 1.59 1.59 0 0 1-.416-.3 1.45 1.45 0 0 1-.292-.464 1.858 1.858 0 0 1-.112-.688 1.652 1.652 0 0 1 .52-1.196 1.88 1.88 0 0 1 .628-.388 2.29 2.29 0 0 1 .852-.148 3.04 3.04 0 0 1 1.004.168c.152.053.294.119.424.196.134.075.252.16.356.256l-.336.628Zm3.526 2.072c0-.099-.013-.195-.04-.288a.64.64 0 0 0-.124-.248.603.603 0 0 0-.224-.18.773.773 0 0 0-.34-.068c-.235 0-.419.068-.552.204-.133.133-.221.327-.264.58h1.544Zm-1.56.72c.04.347.145.599.316.756.17.155.39.232.66.232.144 0 .268-.017.372-.052a1.79 1.79 0 0 0 .276-.116l.224-.116a.477.477 0 0 1 .216-.052c.099 0 .173.036.224.108l.36.444a1.866 1.866 0 0 1-.416.36 2.22 2.22 0 0 1-.924.32 3.259 3.259 0 0 1-.444.032c-.29 0-.564-.047-.82-.14a1.927 1.927 0 0 1-.668-.424 2.03 2.03 0 0 1-.452-.696 2.63 2.63 0 0 1-.164-.968c0-.277.047-.54.14-.788.096-.248.232-.465.408-.652a1.97 1.97 0 0 1 .644-.444 2.14 2.14 0 0 1 .856-.164c.275 0 .525.043.752.128a1.616 1.616 0 0 1 .972.972c.093.235.14.501.14.8 0 .093-.004.17-.012.228a.361.361 0 0 1-.044.14.166.166 0 0 1-.088.072.386.386 0 0 1-.136.02h-2.392Zm4.317-1.848c.08-.075.162-.144.248-.208a1.517 1.517 0 0 1 .588-.264c.114-.027.238-.04.372-.04.226 0 .426.04.6.12.176.077.324.187.444.328.12.139.21.305.272.5.06.192.092.401.092.628V94h-1.24v-2.636c0-.203-.047-.36-.14-.472-.094-.115-.231-.172-.412-.172a.862.862 0 0 0-.384.088 1.501 1.501 0 0 0-.344.232V94h-1.24v-4.148h.768c.154 0 .256.07.304.208l.072.24Zm5.814.664a.764.764 0 0 0-.304-.216.937.937 0 0 0-.344-.064.653.653 0 0 0-.568.288c-.07.099-.124.228-.164.388-.04.16-.06.353-.06.58 0 .219.016.403.048.552.032.15.076.27.132.364.059.09.128.156.208.196.08.04.17.06.268.06.09 0 .172-.008.244-.024a.832.832 0 0 0 .376-.196c.056-.05.11-.108.164-.172v-1.756Zm1.24-2.952V94h-.768c-.155 0-.256-.07-.304-.208l-.096-.316c-.083.088-.17.168-.26.24a1.5 1.5 0 0 1-.636.304c-.12.03-.25.044-.392.044-.216 0-.416-.048-.6-.144a1.383 1.383 0 0 1-.476-.416 2.133 2.133 0 0 1-.316-.664 3.31 3.31 0 0 1-.112-.9c0-.31.043-.596.128-.86.085-.267.205-.496.36-.688a1.69 1.69 0 0 1 .564-.456c.219-.11.46-.164.724-.164.216 0 .397.03.544.092.147.061.28.144.4.248v-2.1h1.24Zm3.933 3.404a1.09 1.09 0 0 0-.312.396 1.086 1.086 0 0 0-.092.444c0 .128.02.244.056.348a.783.783 0 0 0 .424.444c.102.04.214.06.336.06.18 0 .346-.023.5-.068.155-.048.3-.115.432-.2l-1.344-1.424ZM97.093 94H95.87c-.06 0-.116-.003-.164-.008a.727.727 0 0 1-.136-.036.472.472 0 0 1-.116-.068 1.117 1.117 0 0 1-.12-.112l-.252-.264a3.096 3.096 0 0 1-1.788.552c-.232 0-.46-.04-.684-.12a1.916 1.916 0 0 1-.592-.34 1.745 1.745 0 0 1-.42-.54 1.545 1.545 0 0 1-.16-.708c0-.176.027-.343.08-.5a1.67 1.67 0 0 1 .232-.436 2.03 2.03 0 0 1 .356-.368 2.39 2.39 0 0 1 .452-.292 2.198 2.198 0 0 1-.276-.572 1.89 1.89 0 0 1-.084-.544c0-.208.038-.404.112-.588a1.43 1.43 0 0 1 .332-.488 1.61 1.61 0 0 1 .536-.336c.214-.083.458-.124.732-.124.26 0 .487.039.684.116.198.075.364.175.5.3.136.123.243.265.32.428.078.163.126.33.144.5l-.8.16c-.14.032-.245-.024-.312-.168a.887.887 0 0 0-.216-.316.46.46 0 0 0-.32-.108.539.539 0 0 0-.42.188.6.6 0 0 0-.104.196.754.754 0 0 0-.036.232c0 .07.006.136.016.2a1.015 1.015 0 0 0 .18.392c.051.07.114.145.188.228l1.44 1.516a3.031 3.031 0 0 0 .264-1.036.282.282 0 0 1 .076-.176.232.232 0 0 1 .172-.064h.784c0 .387-.052.75-.156 1.088-.104.339-.25.648-.44.928L97.093 94Zm-20.59 4.98h2.073v2.46a3.057 3.057 0 0 1-.956.476 3.717 3.717 0 0 1-1.056.148 3.69 3.69 0 0 1-1.312-.224 3.066 3.066 0 0 1-1.008-.624 2.764 2.764 0 0 1-.648-.944 3.062 3.062 0 0 1-.228-1.188c0-.435.072-.833.216-1.196.144-.365.35-.68.616-.944.27-.264.593-.47.972-.616a3.53 3.53 0 0 1 1.276-.22c.243 0 .47.02.684.06.213.04.41.095.588.164a2.687 2.687 0 0 1 .896.56l-.392.596a.377.377 0 0 1-.24.172c-.096.021-.2-.003-.312-.072a3.478 3.478 0 0 0-.304-.164 1.663 1.663 0 0 0-.288-.116 1.898 1.898 0 0 0-.312-.064 3.068 3.068 0 0 0-.368-.02c-.254 0-.482.045-.684.136a1.465 1.465 0 0 0-.52.376c-.141.163-.25.359-.328.588-.078.227-.116.48-.116.76 0 .31.043.584.128.824s.205.443.36.608c.157.165.344.292.56.38.219.085.46.128.724.128.162 0 .31-.016.44-.048a2.48 2.48 0 0 0 .388-.128v-.884h-.576a.28.28 0 0 1-.2-.068.226.226 0 0 1-.072-.172v-.744Zm3.958-2.968V102h-1.24v-5.988h1.24Zm2.63 1.776c.315 0 .602.05.86.148a1.866 1.866 0 0 1 1.096 1.096c.104.261.156.556.156.884 0 .331-.052.629-.156.896a1.912 1.912 0 0 1-.432.676 1.907 1.907 0 0 1-.664.428 2.388 2.388 0 0 1-.86.148c-.317 0-.606-.049-.868-.148a1.994 1.994 0 0 1-.672-.428 1.96 1.96 0 0 1-.436-.676 2.507 2.507 0 0 1-.152-.896c0-.328.05-.623.152-.884.104-.264.25-.488.436-.672a1.95 1.95 0 0 1 .672-.424 2.44 2.44 0 0 1 .868-.148Zm0 3.356c.286 0 .495-.1.628-.3.136-.203.204-.509.204-.92 0-.41-.068-.716-.204-.916-.133-.2-.342-.3-.628-.3-.293 0-.508.1-.644.3-.136.2-.204.505-.204.916 0 .411.068.717.204.92.136.2.35.3.644.3Zm3.857-.272a.828.828 0 0 0 .636.28.802.802 0 0 0 .324-.064.623.623 0 0 0 .252-.216c.072-.101.128-.233.168-.396.04-.165.06-.368.06-.608 0-.208-.016-.384-.048-.528a.976.976 0 0 0-.136-.356.504.504 0 0 0-.224-.2.688.688 0 0 0-.304-.064.76.76 0 0 0-.396.1 1.366 1.366 0 0 0-.332.292v1.76Zm0-2.58c.16-.152.334-.273.524-.364.192-.093.405-.14.64-.14.234 0 .448.048.64.144a1.4 1.4 0 0 1 .492.412c.136.176.24.39.312.64.074.25.112.53.112.84 0 .336-.043.641-.128.916a2.137 2.137 0 0 1-.364.708c-.155.195-.34.347-.556.456a1.59 1.59 0 0 1-.716.16c-.126 0-.238-.012-.336-.036a1.2 1.2 0 0 1-.272-.1 1.248 1.248 0 0 1-.228-.16 2.716 2.716 0 0 1-.196-.2l-.044.208c-.022.085-.056.144-.104.176a.341.341 0 0 1-.192.048h-.824v-5.988h1.24v2.28Zm5.373 2.02a4.162 4.162 0 0 0-.612.064c-.16.032-.286.072-.38.12a.478.478 0 0 0-.196.164.398.398 0 0 0-.052.2c0 .141.04.241.116.3.078.056.191.084.34.084.16 0 .3-.028.42-.084.12-.056.242-.147.364-.272v-.576Zm-2.232-1.884a2.5 2.5 0 0 1 .832-.492 2.91 2.91 0 0 1 .984-.164c.251 0 .476.041.676.124a1.452 1.452 0 0 1 .836.856c.075.2.112.419.112.656V102h-.568a.594.594 0 0 1-.268-.048c-.058-.032-.108-.099-.148-.2l-.088-.228a4.088 4.088 0 0 1-.3.232 1.952 1.952 0 0 1-.3.172c-.1.045-.21.079-.328.1a1.88 1.88 0 0 1-.384.036c-.189 0-.36-.024-.516-.072a1.125 1.125 0 0 1-.396-.22.976.976 0 0 1-.248-.356 1.305 1.305 0 0 1-.088-.496c0-.149.038-.3.112-.452a1.1 1.1 0 0 1 .388-.42 2.43 2.43 0 0 1 .744-.32c.312-.085.706-.133 1.18-.144v-.176c0-.243-.05-.417-.152-.524-.098-.11-.24-.164-.424-.164a1.13 1.13 0 0 0-.36.048 1.707 1.707 0 0 0-.252.108c-.072.04-.142.076-.212.108a.588.588 0 0 1-.248.048.357.357 0 0 1-.216-.064.556.556 0 0 1-.144-.152l-.224-.388Zm5.353-2.416V102h-1.24v-5.988h1.24Z" fill="#B4B4B4"/><path opacity=".5" d="M101.5 83h-1v23h1V83Z" fill="#000"/><rect x="103" y="83.5" width="30" height="22" rx="1" fill="#7432FF"/><rect x="103" y="83.5" width="30" height="22" rx="1" stroke="#7432FF"/><path d="m116.842 95.772-.54-1.596a6.75 6.75 0 0 1-.128-.356 11.798 11.798 0 0 1-.136-.448 6.476 6.476 0 0 1-.256.812l-.536 1.588h1.596ZM118.99 98h-1.048a.467.467 0 0 1-.284-.08.534.534 0 0 1-.164-.212l-.344-1.016h-2.216l-.344 1.016a.494.494 0 0 1-.16.204.44.44 0 0 1-.28.088h-1.056l2.256-5.828h1.384L118.99 98Zm1.436-5.988V98h-1.24v-5.988h1.24Zm1.958 0V98h-1.24v-5.988h1.24Z" fill="#fff"/><path d="M2.5 82h130v-1H2.5v1ZM134 83.5v22h1v-22h-1Zm-1.5 23.5H2.5v1h130v-1ZM1 105.5v-22H0v22h1Zm1.5 1.5a1.5 1.5 0 0 1-1.5-1.5H0a2.5 2.5 0 0 0 2.5 2.5v-1Zm131.5-1.5a1.5 1.5 0 0 1-1.5 1.5v1a2.5 2.5 0 0 0 2.5-2.5h-1ZM132.5 82a1.5 1.5 0 0 1 1.5 1.5h1a2.5 2.5 0 0 0-2.5-2.5v1Zm-130-1A2.5 2.5 0 0 0 0 83.5h1A1.5 1.5 0 0 1 2.5 82v-1Z" fill="#000"/></svg>