<svg width="50" height="15" fill="none" xmlns="http://www.w3.org/2000/svg"><path d="M.5 2.5a2 2 0 0 1 2-2h45a2 2 0 0 1 2 2v10a2 2 0 0 1-2 2h-45a2 2 0 0 1-2-2v-10Z" fill="#242424"/><path d="M25.404 3.715V11h-1.49V6.81c0-.097.002-.202.005-.315a6.36 6.36 0 0 1 .03-.345l-1.935 3.745a.63.63 0 0 1-.245.265c-.1.06-.215.09-.345.09h-.23a.684.684 0 0 1-.35-.09.641.641 0 0 1-.24-.265L18.669 6.14c.01.12.018.238.025.355.007.113.01.218.01.315V11h-1.49V3.715h1.29c.073 0 .136.002.19.005a.498.498 0 0 1 .15.03.3.3 0 0 1 .115.08.524.524 0 0 1 .105.145l1.875 3.695c.067.127.13.258.19.395.063.137.123.277.18.42a5.578 5.578 0 0 1 .375-.83l1.87-3.68a.604.604 0 0 1 .1-.145.345.345 0 0 1 .12-.08.487.487 0 0 1 .145-.03c.056-.003.122-.005.195-.005h1.29Zm4.298 4.07a1.32 1.32 0 0 0-.05-.36.799.799 0 0 0-.155-.31.754.754 0 0 0-.28-.225.966.966 0 0 0-.425-.085c-.293 0-.523.085-.69.255-.166.167-.276.408-.33.725h1.93Zm-1.95.9c.05.433.182.748.395.945.213.193.489.29.825.29.18 0 .335-.022.465-.065.13-.043.245-.092.345-.145l.28-.145a.597.597 0 0 1 .27-.065.32.32 0 0 1 .28.135l.45.555c-.16.183-.333.333-.52.45a2.78 2.78 0 0 1-1.155.4 4.06 4.06 0 0 1-.555.04c-.363 0-.705-.058-1.025-.175a2.41 2.41 0 0 1-.835-.53 2.537 2.537 0 0 1-.565-.87 3.288 3.288 0 0 1-.205-1.21c0-.347.058-.675.175-.985.12-.31.29-.582.51-.815.223-.233.492-.418.805-.555a2.675 2.675 0 0 1 1.07-.205c.343 0 .657.053.94.16a2.02 2.02 0 0 1 1.215 1.215c.117.293.175.627.175 1 0 .117-.005.212-.015.285a.45.45 0 0 1-.055.175.208.208 0 0 1-.11.09.482.482 0 0 1-.17.025h-2.99Zm5.546-2.31c.1-.093.203-.18.31-.26a1.892 1.892 0 0 1 .735-.33 2.05 2.05 0 0 1 .465-.05c.283 0 .533.05.75.15.22.097.405.233.555.41.15.173.263.382.34.625.076.24.115.502.115.785V11h-1.55V7.705c0-.253-.059-.45-.175-.59-.117-.143-.289-.215-.515-.215-.17 0-.33.037-.48.11a1.88 1.88 0 0 0-.43.29V11h-1.55V5.815h.96c.193 0 .32.087.38.26l.09.3Zm8.923-.56V11h-.96c-.193 0-.32-.087-.38-.26l-.09-.3c-.1.097-.203.185-.31.265a2.073 2.073 0 0 1-.345.2 1.96 1.96 0 0 1-.395.125c-.14.033-.293.05-.46.05a1.86 1.86 0 0 1-.755-.145 1.58 1.58 0 0 1-.55-.415 1.8 1.8 0 0 1-.34-.625 2.584 2.584 0 0 1-.115-.79v-3.29h1.55v3.29c0 .257.058.455.175.595.117.14.288.21.515.21.17 0 .328-.035.475-.105.15-.073.295-.172.435-.295V5.815h1.55Z" fill="#B4B4B4"/><path d="M2.5 1h45V0h-45v1ZM49 2.5v10h1v-10h-1ZM47.5 14h-45v1h45v-1ZM1 12.5v-10H0v10h1ZM2.5 14A1.5 1.5 0 0 1 1 12.5H0A2.5 2.5 0 0 0 2.5 15v-1ZM49 12.5a1.5 1.5 0 0 1-1.5 1.5v1a2.5 2.5 0 0 0 2.5-2.5h-1ZM47.5 1A1.5 1.5 0 0 1 49 2.5h1A2.5 2.5 0 0 0 47.5 0v1Zm-45-1A2.5 2.5 0 0 0 0 2.5h1A1.5 1.5 0 0 1 2.5 1V0Z" fill="#000"/><path d="m11.057 4.839 2.068 1.076V3.75H6.214c-.327 0-.589.2-.589.447V8.37l1.416.304c.074.016.148-.018.171-.071l.354-.972c.023-.069.13-.1.211-.058l3.387 1.771c.128.067.034.22-.114.187l-2.61-.555c-.074-.015-.151.018-.168.074l-.347.972c-.023.068-.134.1-.211.058l-2.089-1.1v2.27h6.864c.35 0 .633-.217.633-.48V6.538l-1.4-.297c-.073-.015-.147.018-.168.072l-.363.974c-.027.069-.131.097-.212.059L7.59 5.573c-.128-.067-.034-.22.114-.187l2.61.555c.074.015.148-.018.168-.072l.364-.974c.027-.066.13-.097.212-.056Z" fill="#C9478F"/></svg>