<svg width="13" height="26" fill="none" xmlns="http://www.w3.org/2000/svg"><path fill-rule="evenodd" clip-rule="evenodd" d="m9.237 8.392-.854.854-1.495-1.495.854-.854 1.495 1.495Z" fill="#A981FF"/><path fill-rule="evenodd" clip-rule="evenodd" d="M11.44 9.741 9.666 7.966a.604.604 0 0 0-.854 0l-.854.854a.604.604 0 0 0 0 .854l1.775 1.776a1.208 1.208 0 1 0 1.709-1.709Z" fill="#996DF3"/><path fill-rule="evenodd" clip-rule="evenodd" d="M.99 5.078a4.078 4.078 0 1 1 8.156 0 4.078 4.078 0 0 1-8.155 0Z" fill="#C2A5FF"/><path fill-rule="evenodd" clip-rule="evenodd" d="M2.2 5.078a2.87 2.87 0 1 1 5.738 0 2.87 2.87 0 0 1-5.739 0Z" fill="#000"/><path fill-rule="evenodd" clip-rule="evenodd" d="m9.243 21.392-.854.854-1.495-1.495.854-.854 1.495 1.495Z" fill="url(#a)"/><path fill-rule="evenodd" clip-rule="evenodd" d="M11.446 22.741 9.67 20.966a.604.604 0 0 0-.854 0l-.854.854a.604.604 0 0 0 0 .854l1.776 1.776a1.208 1.208 0 1 0 1.708-1.709Z" fill="url(#b)"/><path fill-rule="evenodd" clip-rule="evenodd" d="M.996 18.078a4.078 4.078 0 1 1 8.156 0 4.078 4.078 0 0 1-8.156 0Z" fill="url(#c)"/><path fill-rule="evenodd" clip-rule="evenodd" d="M2.205 18.078a2.87 2.87 0 1 1 5.738 0 2.87 2.87 0 0 1-5.738 0Z" fill="#000"/><defs><linearGradient id="a" x1="8.068" y1="19.897" x2="8.068" y2="22.246" gradientUnits="userSpaceOnUse"><stop stop-color="#fff"/><stop offset="1" stop-color="#fff" stop-opacity=".35"/></linearGradient><linearGradient id="b" x1="9.793" y1="20.789" x2="9.793" y2="24.804" gradientUnits="userSpaceOnUse"><stop stop-color="#fff"/><stop offset="1" stop-color="#fff" stop-opacity=".35"/></linearGradient><linearGradient id="c" x1="5.074" y1="14" x2="5.074" y2="22.155" gradientUnits="userSpaceOnUse"><stop stop-color="#fff"/><stop offset="1" stop-color="#fff" stop-opacity=".35"/></linearGradient></defs></svg>