<svg width="30" height="13" fill="none" xmlns="http://www.w3.org/2000/svg"><path d="M.652 2.542a2 2 0 0 1 2-2h24.696a2 2 0 0 1 2 2v7.916a2 2 0 0 1-2 2H2.652a2 2 0 0 1-2-2V2.542Z" fill="#242424"/><path d="M2.652 1.042h24.696v-1H2.652v1Zm26.196 1.5v7.916h1V2.542h-1Zm-1.5 9.416H2.652v1h24.696v-1Zm-26.196-1.5V2.542h-1v7.916h1Zm1.5 1.5a1.5 1.5 0 0 1-1.5-1.5h-1a2.5 2.5 0 0 0 2.5 2.5v-1Zm26.196-1.5a1.5 1.5 0 0 1-1.5 1.5v1a2.5 2.5 0 0 0 2.5-2.5h-1Zm-1.5-9.416a1.5 1.5 0 0 1 1.5 1.5h1a2.5 2.5 0 0 0-2.5-2.5v1Zm-24.696-1a2.5 2.5 0 0 0-2.5 2.5h1a1.5 1.5 0 0 1 1.5-1.5v-1Z" fill="#000"/></svg>