<svg width="399" height="84" fill="none" xmlns="http://www.w3.org/2000/svg"><g opacity=".1"><path fill-rule="evenodd" clip-rule="evenodd" d="M260.5 7.5a.5.5 0 0 1-.5.5H140a.5.5 0 0 1 0-1h120a.5.5 0 0 1 .5.5Z" fill="#EEE"/><path clip-rule="evenodd" d="M261 7.5a1 1 0 0 1-1 1H140a1 1 0 0 1 0-2h120a1 1 0 0 1 1 1Z" stroke="#EEE"/><path d="M144.5 4h-1v2h1V4Zm0 5h-1v2h1V9Zm112-5h-1v2h1V4Zm0 5h-1v2h1V9Z" fill="#EEE"/></g><path fill-rule="evenodd" clip-rule="evenodd" d="M260 7a.5.5 0 0 1-.5.5h-120a.5.5 0 0 1 0-1h120a.5.5 0 0 1 .5.5Z" fill="#737373"/><path clip-rule="evenodd" d="M260.5 7a1 1 0 0 1-1 1h-120a1 1 0 0 1 0-2h120a1 1 0 0 1 1 1Z" stroke="#000"/><path d="M144 3.5h-1v2h1v-2Zm0 5h-1v2h1v-2Zm112-5h-1v2h1v-2Zm0 5h-1v2h1v-2Z" fill="#000"/><path d="M200.5 18.5h-1V20h1v-1.5Zm0 4.5h-1v1.5h1V23Zm-56-7h-1v2h1v-2Zm0 9h-1v2h1v-2Zm112-9h-1v2h1v-2Zm0 9h-1v2h1v-2Z" opacity=".1" fill="#EEE"/><g opacity=".1"><path fill-rule="evenodd" clip-rule="evenodd" d="M260.5 21.5a.5.5 0 0 1-.5.5H140a.5.5 0 0 1 0-1h120a.5.5 0 0 1 .5.5Z" fill="#EEE"/><path clip-rule="evenodd" d="M261 21.5a1 1 0 0 1-1 1H140a1 1 0 0 1 0-2h120a1 1 0 0 1 1 1Z" stroke="#EEE"/><path d="M144.5 18h-1v2h1v-2Zm0 5h-1v2h1v-2Zm112-5h-1v2h1v-2Zm0 5h-1v2h1v-2Z" fill="#EEE"/></g><path fill-rule="evenodd" clip-rule="evenodd" d="M260 21a.5.5 0 0 1-.5.5h-120a.5.5 0 0 1 0-1h120a.5.5 0 0 1 .5.5Z" fill="#737373"/><path clip-rule="evenodd" d="M260.5 21a1 1 0 0 1-1 1h-120a1 1 0 0 1 0-2h120a1 1 0 0 1 1 1Z" stroke="#000"/><path d="M144 17.5h-1v2h1v-2Zm0 5h-1v2h1v-2Zm112-5h-1v2h1v-2Zm0 5h-1v2h1v-2ZM200 18h-1v1.5h1V18Zm0 4.5h-1V24h1v-1.5Zm-56-7h-1v2h1v-2Zm0 9h-1v2h1v-2Zm112-9h-1v2h1v-2Zm0 9h-1v2h1v-2Z" fill="#000"/><g opacity=".1"><path fill-rule="evenodd" clip-rule="evenodd" d="M260.5 35.5a.5.5 0 0 1-.5.5H140a.5.5 0 0 1 0-1h120a.5.5 0 0 1 .5.5Z" fill="#EEE"/><path clip-rule="evenodd" d="M261 35.5a1 1 0 0 1-1 1H140a1 1 0 0 1 0-2h120a1 1 0 0 1 1 1Z" stroke="#EEE"/><path d="M144.5 31h-1v3h1v-3Zm0 6h-1v3h1v-3Zm8-6h-1v3h1v-3Zm0 6h-1v3h1v-3Zm8-6h-1v3h1v-3Zm0 6h-1v3h1v-3Zm8-6h-1v3h1v-3Zm0 6h-1v3h1v-3Zm8-6h-1v3h1v-3Zm0 6h-1v3h1v-3Zm8-6h-1v3h1v-3Zm0 6h-1v3h1v-3Zm8-6h-1v3h1v-3Zm0 6h-1v3h1v-3Zm8-6h-1v3h1v-3Zm0 6h-1v3h1v-3Zm8-6h-1v3h1v-3Zm0 6h-1v3h1v-3Zm8-6h-1v3h1v-3Zm0 6h-1v3h1v-3Zm8-6h-1v3h1v-3Zm0 6h-1v3h1v-3Zm8-6h-1v3h1v-3Zm0 6h-1v3h1v-3Zm8-6h-1v3h1v-3Zm0 6h-1v3h1v-3Zm8-6h-1v3h1v-3Zm0 6h-1v3h1v-3Zm8-6h-1v3h1v-3Zm0 6h-1v3h1v-3Z" fill="#EEE"/></g><path fill-rule="evenodd" clip-rule="evenodd" d="M260 35a.5.5 0 0 1-.5.5h-120a.5.5 0 0 1 0-1h120a.5.5 0 0 1 .5.5Z" fill="#737373"/><path clip-rule="evenodd" d="M260.5 35a1 1 0 0 1-1 1h-120a1 1 0 0 1 0-2h120a1 1 0 0 1 1 1Z" stroke="#000"/><path d="M144 30.5h-1v3h1v-3Zm0 6h-1v3h1v-3Zm8-6h-1v3h1v-3Zm0 6h-1v3h1v-3Zm8-6h-1v3h1v-3Zm0 6h-1v3h1v-3Zm8-6h-1v3h1v-3Zm0 6h-1v3h1v-3Zm8-6h-1v3h1v-3Zm0 6h-1v3h1v-3Zm8-6h-1v3h1v-3Zm0 6h-1v3h1v-3Zm8-6h-1v3h1v-3Zm0 6h-1v3h1v-3Zm8-6h-1v3h1v-3Zm0 6h-1v3h1v-3Zm8-6h-1v3h1v-3Zm0 6h-1v3h1v-3Zm8-6h-1v3h1v-3Zm0 6h-1v3h1v-3Zm8-6h-1v3h1v-3Zm0 6h-1v3h1v-3Zm8-6h-1v3h1v-3Zm0 6h-1v3h1v-3Zm8-6h-1v3h1v-3Zm0 6h-1v3h1v-3Zm8-6h-1v3h1v-3Zm0 6h-1v3h1v-3Zm8-6h-1v3h1v-3Zm0 6h-1v3h1v-3Z" fill="#000"/><g opacity=".1"><path fill-rule="evenodd" clip-rule="evenodd" d="M393.5 7.5a.5.5 0 0 1-.5.5H273a.5.5 0 0 1 0-1h120a.5.5 0 0 1 .5.5Z" fill="#EEE"/><path clip-rule="evenodd" d="M394 7.5a1 1 0 0 1-1 1H273a1 1 0 0 1 0-2h120a1 1 0 0 1 1 1Z" stroke="#EEE"/><path d="M277.5 4h-1v2h1V4Zm0 5h-1v2h1V9Zm112-5h-1v2h1V4Zm0 5h-1v2h1V9Z" fill="#EEE"/></g><path fill-rule="evenodd" clip-rule="evenodd" d="M393 7a.5.5 0 0 1-.5.5h-120a.5.5 0 0 1 0-1h120a.5.5 0 0 1 .5.5Z" fill="url(#a)"/><path clip-rule="evenodd" d="M393.5 7a1 1 0 0 1-1 1h-120a1 1 0 0 1 0-2h120a1 1 0 0 1 1 1Z" stroke="#000"/><path clip-rule="evenodd" d="M393.5 7a2 2 0 0 1-2 2h-118a2 2 0 1 1 0-4h118a2 2 0 0 1 2 2Z" stroke="#001E3C" stroke-opacity=".5"/><path d="M277 3.5h-1v2h1v-2Zm0 5h-1v2h1v-2Zm112-5h-1v2h1v-2Zm0 5h-1v2h1v-2Z" fill="#000"/><path d="M333.5 18.5h-1V20h1v-1.5Zm0 4.5h-1v1.5h1V23Zm-56-7h-1v2h1v-2Zm0 9h-1v2h1v-2Zm112-9h-1v2h1v-2Zm0 9h-1v2h1v-2Z" opacity=".1" fill="#EEE"/><g opacity=".1"><path fill-rule="evenodd" clip-rule="evenodd" d="M393.5 21.5a.5.5 0 0 1-.5.5H273a.5.5 0 0 1 0-1h120a.5.5 0 0 1 .5.5Z" fill="#EEE"/><path clip-rule="evenodd" d="M394 21.5a1 1 0 0 1-1 1H273a1 1 0 0 1 0-2h120a1 1 0 0 1 1 1Z" stroke="#EEE"/><path d="M277.5 18h-1v2h1v-2Zm0 5h-1v2h1v-2Zm112-5h-1v2h1v-2Zm0 5h-1v2h1v-2Z" fill="#EEE"/></g><path fill-rule="evenodd" clip-rule="evenodd" d="M393 21a.5.5 0 0 1-.5.5h-120a.5.5 0 0 1 0-1h120a.5.5 0 0 1 .5.5Z" fill="url(#b)"/><path clip-rule="evenodd" d="M393.5 21a1 1 0 0 1-1 1h-120a1 1 0 0 1 0-2h120a1 1 0 0 1 1 1Z" stroke="#000"/><path clip-rule="evenodd" d="M393.5 21a2 2 0 0 1-2 2h-118a2 2 0 1 1 0-4h118a2 2 0 0 1 2 2Z" stroke="#001E3C" stroke-opacity=".5"/><path d="M277 17.5h-1v2h1v-2Zm0 5h-1v2h1v-2Zm112-5h-1v2h1v-2Zm0 5h-1v2h1v-2ZM333 18h-1v1.5h1V18Zm0 4.5h-1V24h1v-1.5Zm-56-7h-1v2h1v-2Zm0 9h-1v2h1v-2Zm112-9h-1v2h1v-2Zm0 9h-1v2h1v-2Z" fill="#000"/><g opacity=".1"><path fill-rule="evenodd" clip-rule="evenodd" d="M393.5 35.5a.5.5 0 0 1-.5.5H273a.5.5 0 0 1 0-1h120a.5.5 0 0 1 .5.5Z" fill="#EEE"/><path clip-rule="evenodd" d="M394 35.5a1 1 0 0 1-1 1H273a1 1 0 0 1 0-2h120a1 1 0 0 1 1 1Z" stroke="#EEE"/><path d="M277.5 31h-1v3h1v-3Zm0 6h-1v3h1v-3Zm8-6h-1v3h1v-3Zm0 6h-1v3h1v-3Zm8-6h-1v3h1v-3Zm0 6h-1v3h1v-3Zm8-6h-1v3h1v-3Zm0 6h-1v3h1v-3Zm8-6h-1v3h1v-3Zm0 6h-1v3h1v-3Zm8-6h-1v3h1v-3Zm0 6h-1v3h1v-3Zm8-6h-1v3h1v-3Zm0 6h-1v3h1v-3Zm8-6h-1v3h1v-3Zm0 6h-1v3h1v-3Zm8-6h-1v3h1v-3Zm0 6h-1v3h1v-3Zm8-6h-1v3h1v-3Zm0 6h-1v3h1v-3Zm8-6h-1v3h1v-3Zm0 6h-1v3h1v-3Zm8-6h-1v3h1v-3Zm0 6h-1v3h1v-3Zm8-6h-1v3h1v-3Zm0 6h-1v3h1v-3Zm8-6h-1v3h1v-3Zm0 6h-1v3h1v-3Zm8-6h-1v3h1v-3Zm0 6h-1v3h1v-3Z" fill="#EEE"/></g><path fill-rule="evenodd" clip-rule="evenodd" d="M393 35a.5.5 0 0 1-.5.5h-120a.5.5 0 0 1 0-1h120a.5.5 0 0 1 .5.5Z" fill="url(#c)"/><path clip-rule="evenodd" d="M393.5 35a1 1 0 0 1-1 1h-120a1 1 0 0 1 0-2h120a1 1 0 0 1 1 1Z" stroke="#000"/><path clip-rule="evenodd" d="M393.5 35a2 2 0 0 1-2 2h-118a2 2 0 1 1 0-4h118a2 2 0 0 1 2 2Z" stroke="#001E3C" stroke-opacity=".5"/><path d="M277 30.5h-1v3h1v-3Zm0 6h-1v3h1v-3Zm8-6h-1v3h1v-3Zm0 6h-1v3h1v-3Zm8-6h-1v3h1v-3Zm0 6h-1v3h1v-3Zm8-6h-1v3h1v-3Zm0 6h-1v3h1v-3Zm8-6h-1v3h1v-3Zm0 6h-1v3h1v-3Zm8-6h-1v3h1v-3Zm0 6h-1v3h1v-3Zm8-6h-1v3h1v-3Zm0 6h-1v3h1v-3Zm8-6h-1v3h1v-3Zm0 6h-1v3h1v-3Zm8-6h-1v3h1v-3Zm0 6h-1v3h1v-3Zm8-6h-1v3h1v-3Zm0 6h-1v3h1v-3Zm8-6h-1v3h1v-3Zm0 6h-1v3h1v-3Zm8-6h-1v3h1v-3Zm0 6h-1v3h1v-3Zm8-6h-1v3h1v-3Zm0 6h-1v3h1v-3Zm8-6h-1v3h1v-3Zm0 6h-1v3h1v-3Zm8-6h-1v3h1v-3Zm0 6h-1v3h1v-3Z" fill="#000"/><g opacity=".1"><path fill-rule="evenodd" clip-rule="evenodd" d="M127.5 49.5a.5.5 0 0 1-.5.5H7a.5.5 0 0 1 0-1h120a.5.5 0 0 1 .5.5Z" fill="#EEE"/><path clip-rule="evenodd" d="M128 49.5a1 1 0 0 1-1 1H7a1 1 0 1 1 0-2h120a1 1 0 0 1 1 1Z" stroke="#EEE"/><path d="M11.5 46h-1v2h1v-2Zm0 5h-1v2h1v-2Zm112-5h-1v2h1v-2Zm0 5h-1v2h1v-2Z" fill="#EEE"/></g><path fill-rule="evenodd" clip-rule="evenodd" d="M127 49a.5.5 0 0 1-.5.5H6.5a.5.5 0 0 1 0-1h120a.5.5 0 0 1 .5.5Z" fill="#1F1F1F"/><path clip-rule="evenodd" d="M127.5 49a1 1 0 0 1-1 1H6.5a1 1 0 1 1 0-2h120a1 1 0 0 1 1 1Z" stroke="#000"/><path d="M11 45.5h-1v2h1v-2Zm0 5h-1v2h1v-2Zm112-5h-1v2h1v-2Zm0 5h-1v2h1v-2Z" fill="#000"/><path d="M67.5 60.5h-1V62h1v-1.5Zm0 4.5h-1v1.5h1V65Zm-56-7h-1v2h1v-2Zm0 9h-1v2h1v-2Zm112-9h-1v2h1v-2Zm0 9h-1v2h1v-2Z" opacity=".1" fill="#EEE"/><g opacity=".1"><path fill-rule="evenodd" clip-rule="evenodd" d="M127.5 63.5a.5.5 0 0 1-.5.5H7a.5.5 0 0 1 0-1h120a.5.5 0 0 1 .5.5Z" fill="#EEE"/><path clip-rule="evenodd" d="M128 63.5a1 1 0 0 1-1 1H7a1 1 0 1 1 0-2h120a1 1 0 0 1 1 1Z" stroke="#EEE"/><path d="M11.5 60h-1v2h1v-2Zm0 5h-1v2h1v-2Zm112-5h-1v2h1v-2Zm0 5h-1v2h1v-2Z" fill="#EEE"/></g><path fill-rule="evenodd" clip-rule="evenodd" d="M127 63a.5.5 0 0 1-.5.5H6.5a.5.5 0 0 1 0-1h120a.5.5 0 0 1 .5.5Z" fill="#1F1F1F"/><path clip-rule="evenodd" d="M127.5 63a1 1 0 0 1-1 1H6.5a1 1 0 1 1 0-2h120a1 1 0 0 1 1 1Z" stroke="#000"/><path d="M11 59.5h-1v2h1v-2Zm0 5h-1v2h1v-2Zm112-5h-1v2h1v-2Zm0 5h-1v2h1v-2ZM67 60h-1v1.5h1V60Zm0 4.5h-1V66h1v-1.5Zm-56-7h-1v2h1v-2Zm0 9h-1v2h1v-2Zm112-9h-1v2h1v-2Zm0 9h-1v2h1v-2Z" fill="#000"/><g opacity=".1"><path fill-rule="evenodd" clip-rule="evenodd" d="M127.5 77.5a.5.5 0 0 1-.5.5H7a.5.5 0 0 1 0-1h120a.5.5 0 0 1 .5.5Z" fill="#EEE"/><path clip-rule="evenodd" d="M128 77.5a1 1 0 0 1-1 1H7a1 1 0 1 1 0-2h120a1 1 0 0 1 1 1Z" stroke="#EEE"/><path d="M11.5 73h-1v3h1v-3Zm0 6h-1v3h1v-3Zm8-6h-1v3h1v-3Zm0 6h-1v3h1v-3Zm8-6h-1v3h1v-3Zm0 6h-1v3h1v-3Zm8-6h-1v3h1v-3Zm0 6h-1v3h1v-3Zm8-6h-1v3h1v-3Zm0 6h-1v3h1v-3Zm8-6h-1v3h1v-3Zm0 6h-1v3h1v-3Zm8-6h-1v3h1v-3Zm0 6h-1v3h1v-3Zm8-6h-1v3h1v-3Zm0 6h-1v3h1v-3Zm8-6h-1v3h1v-3Zm0 6h-1v3h1v-3Zm8-6h-1v3h1v-3Zm0 6h-1v3h1v-3Zm8-6h-1v3h1v-3Zm0 6h-1v3h1v-3Zm8-6h-1v3h1v-3Zm0 6h-1v3h1v-3Zm8-6h-1v3h1v-3Zm0 6h-1v3h1v-3Zm8-6h-1v3h1v-3Zm0 6h-1v3h1v-3Zm8-6h-1v3h1v-3Zm0 6h-1v3h1v-3Z" fill="#EEE"/></g><path fill-rule="evenodd" clip-rule="evenodd" d="M127 77a.5.5 0 0 1-.5.5H6.5a.5.5 0 0 1 0-1h120a.5.5 0 0 1 .5.5Z" fill="#1F1F1F"/><path clip-rule="evenodd" d="M127.5 77a1 1 0 0 1-1 1H6.5a1 1 0 1 1 0-2h120a1 1 0 0 1 1 1Z" stroke="#000"/><path d="M11 72.5h-1v3h1v-3Zm0 6h-1v3h1v-3Zm8-6h-1v3h1v-3Zm0 6h-1v3h1v-3Zm8-6h-1v3h1v-3Zm0 6h-1v3h1v-3Zm8-6h-1v3h1v-3Zm0 6h-1v3h1v-3Zm8-6h-1v3h1v-3Zm0 6h-1v3h1v-3Zm8-6h-1v3h1v-3Zm0 6h-1v3h1v-3Zm8-6h-1v3h1v-3Zm0 6h-1v3h1v-3Zm8-6h-1v3h1v-3Zm0 6h-1v3h1v-3Zm8-6h-1v3h1v-3Zm0 6h-1v3h1v-3Zm8-6h-1v3h1v-3Zm0 6h-1v3h1v-3Zm8-6h-1v3h1v-3Zm0 6h-1v3h1v-3Zm8-6h-1v3h1v-3Zm0 6h-1v3h1v-3Zm8-6h-1v3h1v-3Zm0 6h-1v3h1v-3Zm8-6h-1v3h1v-3Zm0 6h-1v3h1v-3Zm8-6h-1v3h1v-3Zm0 6h-1v3h1v-3Z" fill="#000"/><g opacity=".1"><path fill-rule="evenodd" clip-rule="evenodd" d="M260.5 49.5a.5.5 0 0 1-.5.5H140a.5.5 0 0 1 0-1h120a.5.5 0 0 1 .5.5Z" fill="#EEE"/><path clip-rule="evenodd" d="M261 49.5a1 1 0 0 1-1 1H140a1 1 0 0 1 0-2h120a1 1 0 0 1 1 1Z" stroke="#EEE"/><path d="M144.5 46h-1v2h1v-2Zm0 5h-1v2h1v-2Zm112-5h-1v2h1v-2Zm0 5h-1v2h1v-2Z" fill="#EEE"/></g><path fill-rule="evenodd" clip-rule="evenodd" d="M260 49a.5.5 0 0 1-.5.5h-120a.5.5 0 0 1 0-1h120a.5.5 0 0 1 .5.5Z" fill="#737373"/><path clip-rule="evenodd" d="M260.5 49a1 1 0 0 1-1 1h-120a1 1 0 0 1 0-2h120a1 1 0 0 1 1 1Z" stroke="#000"/><path d="M144 45.5h-1v2h1v-2Zm0 5h-1v2h1v-2Zm112-5h-1v2h1v-2Zm0 5h-1v2h1v-2Z" fill="#000"/><path d="M200.5 60.5h-1V62h1v-1.5Zm0 4.5h-1v1.5h1V65Zm-56-7h-1v2h1v-2Zm0 9h-1v2h1v-2Zm112-9h-1v2h1v-2Zm0 9h-1v2h1v-2Z" opacity=".1" fill="#EEE"/><g opacity=".1"><path fill-rule="evenodd" clip-rule="evenodd" d="M260.5 63.5a.5.5 0 0 1-.5.5H140a.5.5 0 0 1 0-1h120a.5.5 0 0 1 .5.5Z" fill="#EEE"/><path clip-rule="evenodd" d="M261 63.5a1 1 0 0 1-1 1H140a1 1 0 0 1 0-2h120a1 1 0 0 1 1 1Z" stroke="#EEE"/><path d="M144.5 60h-1v2h1v-2Zm0 5h-1v2h1v-2Zm112-5h-1v2h1v-2Zm0 5h-1v2h1v-2Z" fill="#EEE"/></g><path fill-rule="evenodd" clip-rule="evenodd" d="M260 63a.5.5 0 0 1-.5.5h-120a.5.5 0 0 1 0-1h120a.5.5 0 0 1 .5.5Z" fill="#737373"/><path clip-rule="evenodd" d="M260.5 63a1 1 0 0 1-1 1h-120a1 1 0 0 1 0-2h120a1 1 0 0 1 1 1Z" stroke="#000"/><path d="M144 59.5h-1v2h1v-2Zm0 5h-1v2h1v-2Zm112-5h-1v2h1v-2Zm0 5h-1v2h1v-2ZM200 60h-1v1.5h1V60Zm0 4.5h-1V66h1v-1.5Zm-56-7h-1v2h1v-2Zm0 9h-1v2h1v-2Zm112-9h-1v2h1v-2Zm0 9h-1v2h1v-2Z" fill="#000"/><g opacity=".1"><path fill-rule="evenodd" clip-rule="evenodd" d="M260.5 77.5a.5.5 0 0 1-.5.5H140a.5.5 0 0 1 0-1h120a.5.5 0 0 1 .5.5Z" fill="#EEE"/><path clip-rule="evenodd" d="M261 77.5a1 1 0 0 1-1 1H140a1 1 0 0 1 0-2h120a1 1 0 0 1 1 1Z" stroke="#EEE"/><path d="M144.5 73h-1v3h1v-3Zm0 6h-1v3h1v-3Zm8-6h-1v3h1v-3Zm0 6h-1v3h1v-3Zm8-6h-1v3h1v-3Zm0 6h-1v3h1v-3Zm8-6h-1v3h1v-3Zm0 6h-1v3h1v-3Zm8-6h-1v3h1v-3Zm0 6h-1v3h1v-3Zm8-6h-1v3h1v-3Zm0 6h-1v3h1v-3Zm8-6h-1v3h1v-3Zm0 6h-1v3h1v-3Zm8-6h-1v3h1v-3Zm0 6h-1v3h1v-3Zm8-6h-1v3h1v-3Zm0 6h-1v3h1v-3Zm8-6h-1v3h1v-3Zm0 6h-1v3h1v-3Zm8-6h-1v3h1v-3Zm0 6h-1v3h1v-3Zm8-6h-1v3h1v-3Zm0 6h-1v3h1v-3Zm8-6h-1v3h1v-3Zm0 6h-1v3h1v-3Zm8-6h-1v3h1v-3Zm0 6h-1v3h1v-3Zm8-6h-1v3h1v-3Zm0 6h-1v3h1v-3Z" fill="#EEE"/></g><path fill-rule="evenodd" clip-rule="evenodd" d="M260 77a.5.5 0 0 1-.5.5h-120a.5.5 0 0 1 0-1h120a.5.5 0 0 1 .5.5Z" fill="#737373"/><path clip-rule="evenodd" d="M260.5 77a1 1 0 0 1-1 1h-120a1 1 0 0 1 0-2h120a1 1 0 0 1 1 1Z" stroke="#000"/><path d="M144 72.5h-1v3h1v-3Zm0 6h-1v3h1v-3Zm8-6h-1v3h1v-3Zm0 6h-1v3h1v-3Zm8-6h-1v3h1v-3Zm0 6h-1v3h1v-3Zm8-6h-1v3h1v-3Zm0 6h-1v3h1v-3Zm8-6h-1v3h1v-3Zm0 6h-1v3h1v-3Zm8-6h-1v3h1v-3Zm0 6h-1v3h1v-3Zm8-6h-1v3h1v-3Zm0 6h-1v3h1v-3Zm8-6h-1v3h1v-3Zm0 6h-1v3h1v-3Zm8-6h-1v3h1v-3Zm0 6h-1v3h1v-3Zm8-6h-1v3h1v-3Zm0 6h-1v3h1v-3Zm8-6h-1v3h1v-3Zm0 6h-1v3h1v-3Zm8-6h-1v3h1v-3Zm0 6h-1v3h1v-3Zm8-6h-1v3h1v-3Zm0 6h-1v3h1v-3Zm8-6h-1v3h1v-3Zm0 6h-1v3h1v-3Zm8-6h-1v3h1v-3Zm0 6h-1v3h1v-3Z" fill="#000"/><g opacity=".1"><path fill-rule="evenodd" clip-rule="evenodd" d="M393.5 49.5a.5.5 0 0 1-.5.5H273a.5.5 0 0 1 0-1h120a.5.5 0 0 1 .5.5Z" fill="#EEE"/><path clip-rule="evenodd" d="M394 49.5a1 1 0 0 1-1 1H273a1 1 0 0 1 0-2h120a1 1 0 0 1 1 1Z" stroke="#EEE"/><path d="M277.5 46h-1v2h1v-2Zm0 5h-1v2h1v-2Zm112-5h-1v2h1v-2Zm0 5h-1v2h1v-2Z" fill="#EEE"/></g><path fill-rule="evenodd" clip-rule="evenodd" d="M393 49a.5.5 0 0 1-.5.5h-120a.5.5 0 0 1 0-1h120a.5.5 0 0 1 .5.5Z" fill="url(#d)"/><path clip-rule="evenodd" d="M393.5 49a1 1 0 0 1-1 1h-120a1 1 0 0 1 0-2h120a1 1 0 0 1 1 1Z" stroke="#000"/><path clip-rule="evenodd" d="M393.5 49a2 2 0 0 1-2 2h-118a2 2 0 1 1 0-4h118a2 2 0 0 1 2 2Z" stroke="#001E3C" stroke-opacity=".5"/><path d="M277 45.5h-1v2h1v-2Zm0 5h-1v2h1v-2Zm112-5h-1v2h1v-2Zm0 5h-1v2h1v-2Z" fill="#000"/><path d="M333.5 60.5h-1V62h1v-1.5Zm0 4.5h-1v1.5h1V65Zm-56-7h-1v2h1v-2Zm0 9h-1v2h1v-2Zm112-9h-1v2h1v-2Zm0 9h-1v2h1v-2Z" opacity=".1" fill="#EEE"/><g opacity=".1"><path fill-rule="evenodd" clip-rule="evenodd" d="M393.5 63.5a.5.5 0 0 1-.5.5H273a.5.5 0 0 1 0-1h120a.5.5 0 0 1 .5.5Z" fill="#EEE"/><path clip-rule="evenodd" d="M394 63.5a1 1 0 0 1-1 1H273a1 1 0 0 1 0-2h120a1 1 0 0 1 1 1Z" stroke="#EEE"/><path d="M277.5 60h-1v2h1v-2Zm0 5h-1v2h1v-2Zm112-5h-1v2h1v-2Zm0 5h-1v2h1v-2Z" fill="#EEE"/></g><path fill-rule="evenodd" clip-rule="evenodd" d="M393 63a.5.5 0 0 1-.5.5h-120a.5.5 0 0 1 0-1h120a.5.5 0 0 1 .5.5Z" fill="url(#e)"/><path clip-rule="evenodd" d="M393.5 63a1 1 0 0 1-1 1h-120a1 1 0 0 1 0-2h120a1 1 0 0 1 1 1Z" stroke="#000"/><path clip-rule="evenodd" d="M393.5 63a2 2 0 0 1-2 2h-118a2 2 0 1 1 0-4h118a2 2 0 0 1 2 2Z" stroke="#001E3C" stroke-opacity=".5"/><path d="M277 59.5h-1v2h1v-2Zm0 5h-1v2h1v-2Zm112-5h-1v2h1v-2Zm0 5h-1v2h1v-2ZM333 60h-1v1.5h1V60Zm0 4.5h-1V66h1v-1.5Zm-56-7h-1v2h1v-2Zm0 9h-1v2h1v-2Zm112-9h-1v2h1v-2Zm0 9h-1v2h1v-2Z" fill="#000"/><g opacity=".1"><path fill-rule="evenodd" clip-rule="evenodd" d="M393.5 77.5a.5.5 0 0 1-.5.5H273a.5.5 0 0 1 0-1h120a.5.5 0 0 1 .5.5Z" fill="#EEE"/><path clip-rule="evenodd" d="M394 77.5a1 1 0 0 1-1 1H273a1 1 0 0 1 0-2h120a1 1 0 0 1 1 1Z" stroke="#EEE"/><path d="M277.5 73h-1v3h1v-3Zm0 6h-1v3h1v-3Zm8-6h-1v3h1v-3Zm0 6h-1v3h1v-3Zm8-6h-1v3h1v-3Zm0 6h-1v3h1v-3Zm8-6h-1v3h1v-3Zm0 6h-1v3h1v-3Zm8-6h-1v3h1v-3Zm0 6h-1v3h1v-3Zm8-6h-1v3h1v-3Zm0 6h-1v3h1v-3Zm8-6h-1v3h1v-3Zm0 6h-1v3h1v-3Zm8-6h-1v3h1v-3Zm0 6h-1v3h1v-3Zm8-6h-1v3h1v-3Zm0 6h-1v3h1v-3Zm8-6h-1v3h1v-3Zm0 6h-1v3h1v-3Zm8-6h-1v3h1v-3Zm0 6h-1v3h1v-3Zm8-6h-1v3h1v-3Zm0 6h-1v3h1v-3Zm8-6h-1v3h1v-3Zm0 6h-1v3h1v-3Zm8-6h-1v3h1v-3Zm0 6h-1v3h1v-3Zm8-6h-1v3h1v-3Zm0 6h-1v3h1v-3Z" fill="#EEE"/></g><path fill-rule="evenodd" clip-rule="evenodd" d="M393 77a.5.5 0 0 1-.5.5h-120a.5.5 0 0 1 0-1h120a.5.5 0 0 1 .5.5Z" fill="url(#f)"/><path clip-rule="evenodd" d="M393.5 77a1 1 0 0 1-1 1h-120a1 1 0 0 1 0-2h120a1 1 0 0 1 1 1Z" stroke="#000"/><path clip-rule="evenodd" d="M393.5 77a2 2 0 0 1-2 2h-118a2 2 0 1 1 0-4h118a2 2 0 0 1 2 2Z" stroke="#001E3C" stroke-opacity=".5"/><path d="M277 72.5h-1v3h1v-3Zm0 6h-1v3h1v-3Zm8-6h-1v3h1v-3Zm0 6h-1v3h1v-3Zm8-6h-1v3h1v-3Zm0 6h-1v3h1v-3Zm8-6h-1v3h1v-3Zm0 6h-1v3h1v-3Zm8-6h-1v3h1v-3Zm0 6h-1v3h1v-3Zm8-6h-1v3h1v-3Zm0 6h-1v3h1v-3Zm8-6h-1v3h1v-3Zm0 6h-1v3h1v-3Zm8-6h-1v3h1v-3Zm0 6h-1v3h1v-3Zm8-6h-1v3h1v-3Zm0 6h-1v3h1v-3Zm8-6h-1v3h1v-3Zm0 6h-1v3h1v-3Zm8-6h-1v3h1v-3Zm0 6h-1v3h1v-3Zm8-6h-1v3h1v-3Zm0 6h-1v3h1v-3Zm8-6h-1v3h1v-3Zm0 6h-1v3h1v-3Zm8-6h-1v3h1v-3Zm0 6h-1v3h1v-3Zm8-6h-1v3h1v-3Zm0 6h-1v3h1v-3Z" fill="#000"/><g opacity=".1"><path fill-rule="evenodd" clip-rule="evenodd" d="M127.5 7.5a.5.5 0 0 1-.5.5H7a.5.5 0 0 1 0-1h120a.5.5 0 0 1 .5.5Z" fill="#EEE"/><path clip-rule="evenodd" d="M128 7.5a1 1 0 0 1-1 1H7a1 1 0 1 1 0-2h120a1 1 0 0 1 1 1Z" stroke="#EEE"/><path d="M11.5 4h-1v2h1V4Zm0 5h-1v2h1V9Zm112-5h-1v2h1V4Zm0 5h-1v2h1V9Z" fill="#EEE"/></g><path fill-rule="evenodd" clip-rule="evenodd" d="M127 7a.5.5 0 0 1-.5.5H6.5a.5.5 0 0 1 0-1h120a.5.5 0 0 1 .5.5Z" fill="#1F1F1F"/><path clip-rule="evenodd" d="M127.5 7a1 1 0 0 1-1 1H6.5a1 1 0 1 1 0-2h120a1 1 0 0 1 1 1Z" stroke="#000"/><path d="M11 3.5h-1v2h1v-2Zm0 5h-1v2h1v-2Zm112-5h-1v2h1v-2Zm0 5h-1v2h1v-2Z" fill="#000"/><path d="M67.5 18.5h-1V20h1v-1.5Zm0 4.5h-1v1.5h1V23Zm-56-7h-1v2h1v-2Zm0 9h-1v2h1v-2Zm112-9h-1v2h1v-2Zm0 9h-1v2h1v-2Z" opacity=".1" fill="#EEE"/><g opacity=".1"><path fill-rule="evenodd" clip-rule="evenodd" d="M127.5 21.5a.5.5 0 0 1-.5.5H7a.5.5 0 0 1 0-1h120a.5.5 0 0 1 .5.5Z" fill="#EEE"/><path clip-rule="evenodd" d="M128 21.5a1 1 0 0 1-1 1H7a1 1 0 1 1 0-2h120a1 1 0 0 1 1 1Z" stroke="#EEE"/><path d="M11.5 18h-1v2h1v-2Zm0 5h-1v2h1v-2Zm112-5h-1v2h1v-2Zm0 5h-1v2h1v-2Z" fill="#EEE"/></g><path fill-rule="evenodd" clip-rule="evenodd" d="M127 21a.5.5 0 0 1-.5.5H6.5a.5.5 0 0 1 0-1h120a.5.5 0 0 1 .5.5Z" fill="#1F1F1F"/><path clip-rule="evenodd" d="M127.5 21a1 1 0 0 1-1 1H6.5a1 1 0 1 1 0-2h120a1 1 0 0 1 1 1Z" stroke="#000"/><path d="M11 17.5h-1v2h1v-2Zm0 5h-1v2h1v-2Zm112-5h-1v2h1v-2Zm0 5h-1v2h1v-2ZM67 18h-1v1.5h1V18Zm0 4.5h-1V24h1v-1.5Zm-56-7h-1v2h1v-2Zm0 9h-1v2h1v-2Zm112-9h-1v2h1v-2Zm0 9h-1v2h1v-2Z" fill="#000"/><g opacity=".1"><path fill-rule="evenodd" clip-rule="evenodd" d="M127.5 35.5a.5.5 0 0 1-.5.5H7a.5.5 0 0 1 0-1h120a.5.5 0 0 1 .5.5Z" fill="#EEE"/><path clip-rule="evenodd" d="M128 35.5a1 1 0 0 1-1 1H7a1 1 0 1 1 0-2h120a1 1 0 0 1 1 1Z" stroke="#EEE"/><path d="M11.5 31h-1v3h1v-3Zm0 6h-1v3h1v-3Zm8-6h-1v3h1v-3Zm0 6h-1v3h1v-3Zm8-6h-1v3h1v-3Zm0 6h-1v3h1v-3Zm8-6h-1v3h1v-3Zm0 6h-1v3h1v-3Zm8-6h-1v3h1v-3Zm0 6h-1v3h1v-3Zm8-6h-1v3h1v-3Zm0 6h-1v3h1v-3Zm8-6h-1v3h1v-3Zm0 6h-1v3h1v-3Zm8-6h-1v3h1v-3Zm0 6h-1v3h1v-3Zm8-6h-1v3h1v-3Zm0 6h-1v3h1v-3Zm8-6h-1v3h1v-3Zm0 6h-1v3h1v-3Zm8-6h-1v3h1v-3Zm0 6h-1v3h1v-3Zm8-6h-1v3h1v-3Zm0 6h-1v3h1v-3Zm8-6h-1v3h1v-3Zm0 6h-1v3h1v-3Zm8-6h-1v3h1v-3Zm0 6h-1v3h1v-3Zm8-6h-1v3h1v-3Zm0 6h-1v3h1v-3Z" fill="#EEE"/></g><path fill-rule="evenodd" clip-rule="evenodd" d="M127 35a.5.5 0 0 1-.5.5H6.5a.5.5 0 0 1 0-1h120a.5.5 0 0 1 .5.5Z" fill="#1F1F1F"/><path clip-rule="evenodd" d="M127.5 35a1 1 0 0 1-1 1H6.5a1 1 0 1 1 0-2h120a1 1 0 0 1 1 1Z" stroke="#000"/><path d="M11 30.5h-1v3h1v-3Zm0 6h-1v3h1v-3Zm8-6h-1v3h1v-3Zm0 6h-1v3h1v-3Zm8-6h-1v3h1v-3Zm0 6h-1v3h1v-3Zm8-6h-1v3h1v-3Zm0 6h-1v3h1v-3Zm8-6h-1v3h1v-3Zm0 6h-1v3h1v-3Zm8-6h-1v3h1v-3Zm0 6h-1v3h1v-3Zm8-6h-1v3h1v-3Zm0 6h-1v3h1v-3Zm8-6h-1v3h1v-3Zm0 6h-1v3h1v-3Zm8-6h-1v3h1v-3Zm0 6h-1v3h1v-3Zm8-6h-1v3h1v-3Zm0 6h-1v3h1v-3Zm8-6h-1v3h1v-3Zm0 6h-1v3h1v-3Zm8-6h-1v3h1v-3Zm0 6h-1v3h1v-3Zm8-6h-1v3h1v-3Zm0 6h-1v3h1v-3Zm8-6h-1v3h1v-3Zm0 6h-1v3h1v-3Zm8-6h-1v3h1v-3Zm0 6h-1v3h1v-3Z" fill="#000"/><defs><linearGradient id="a" x1="332.5" y1="6.5" x2="332.5" y2="7.5" gradientUnits="userSpaceOnUse"><stop stop-color="#FF99D2"/><stop offset="1" stop-color="#BF287C"/></linearGradient><linearGradient id="b" x1="332.5" y1="20.5" x2="332.5" y2="21.5" gradientUnits="userSpaceOnUse"><stop stop-color="#FF99D2"/><stop offset="1" stop-color="#BF287C"/></linearGradient><linearGradient id="c" x1="332.5" y1="34.5" x2="332.5" y2="35.5" gradientUnits="userSpaceOnUse"><stop stop-color="#FF99D2"/><stop offset="1" stop-color="#BF287C"/></linearGradient><linearGradient id="d" x1="332.5" y1="48.5" x2="332.5" y2="49.5" gradientUnits="userSpaceOnUse"><stop stop-color="#FF99D2"/><stop offset="1" stop-color="#BF287C"/></linearGradient><linearGradient id="e" x1="332.5" y1="62.5" x2="332.5" y2="63.5" gradientUnits="userSpaceOnUse"><stop stop-color="#FF99D2"/><stop offset="1" stop-color="#BF287C"/></linearGradient><linearGradient id="f" x1="332.5" y1="76.5" x2="332.5" y2="77.5" gradientUnits="userSpaceOnUse"><stop stop-color="#FF99D2"/><stop offset="1" stop-color="#BF287C"/></linearGradient></defs></svg>