<svg width="49" height="28" fill="none" xmlns="http://www.w3.org/2000/svg"><path d="M.5 2.5a2 2 0 0 1 2-2h44a2 2 0 0 1 2 2v9a2 2 0 0 1-2 2h-44a2 2 0 0 1-2-2v-9Z" fill="#242424"/><path d="M11.676 4.172V10h-1.36V7.536H7.948V10h-1.36V4.172h1.36v2.436h2.368V4.172h1.36Zm2.654 1.616c.315 0 .601.05.86.148a1.866 1.866 0 0 1 1.096 1.096c.104.261.156.556.156.884 0 .33-.052.63-.156.896a1.91 1.91 0 0 1-.432.676 1.912 1.912 0 0 1-.664.428 2.395 2.395 0 0 1-.86.148 2.44 2.44 0 0 1-.868-.148 1.999 1.999 0 0 1-.672-.428 1.958 1.958 0 0 1-.436-.676 2.507 2.507 0 0 1-.152-.896c0-.328.05-.623.152-.884.104-.264.25-.488.436-.672a1.95 1.95 0 0 1 .672-.424 2.44 2.44 0 0 1 .868-.148Zm0 3.356c.286 0 .495-.1.628-.3.136-.203.204-.51.204-.92 0-.41-.068-.716-.204-.916-.133-.2-.342-.3-.628-.3-.293 0-.508.1-.644.3-.136.2-.204.505-.204.916 0 .41.068.717.204.92.136.2.35.3.644.3Zm3.777-2.652c.128-.224.274-.4.44-.528a.925.925 0 0 1 .576-.192.74.74 0 0 1 .456.132l-.08.912c-.014.059-.036.099-.068.12a.208.208 0 0 1-.124.032 1.14 1.14 0 0 1-.084-.004l-.108-.008a1.556 1.556 0 0 0-.116-.012.74.74 0 0 0-.104-.008.637.637 0 0 0-.436.144 1.14 1.14 0 0 0-.272.4V10h-1.24V5.852h.736c.06 0 .112.005.152.016a.24.24 0 0 1 .104.052c.029.021.05.05.064.088a.717.717 0 0 1 .04.136l.064.348Zm3.042-.64V10h-1.24V5.852h1.24Zm.128-1.136c0 .099-.02.192-.06.28a.765.765 0 0 1-1.22.228.8.8 0 0 1-.16-.228.708.708 0 0 1-.056-.28c0-.101.019-.196.056-.284a.783.783 0 0 1 .16-.232.773.773 0 0 1 .236-.156.76.76 0 0 1 .576 0 .75.75 0 0 1 .408.388.68.68 0 0 1 .06.284Zm3.701 1.632a.716.716 0 0 1-.044.248.563.563 0 0 1-.116.196L23.086 9.08h1.852V10h-3.28v-.504c0-.05.013-.115.04-.192a.717.717 0 0 1 .12-.216l1.748-2.316H21.77v-.92h3.208v.496Zm2.364-.56c.315 0 .602.05.86.148a1.866 1.866 0 0 1 1.096 1.096c.104.261.156.556.156.884 0 .33-.052.63-.156.896a1.91 1.91 0 0 1-.432.676 1.912 1.912 0 0 1-.664.428 2.395 2.395 0 0 1-.86.148 2.44 2.44 0 0 1-.868-.148 1.997 1.997 0 0 1-.672-.428 1.956 1.956 0 0 1-.436-.676 2.507 2.507 0 0 1-.152-.896c0-.328.051-.623.152-.884.104-.264.25-.488.436-.672.19-.184.414-.325.672-.424a2.44 2.44 0 0 1 .868-.148Zm0 3.356c.286 0 .495-.1.628-.3.136-.203.204-.51.204-.92 0-.41-.068-.716-.204-.916-.133-.2-.342-.3-.628-.3-.293 0-.508.1-.644.3-.136.2-.204.505-.204.916 0 .41.068.717.204.92.136.2.351.3.644.3Zm3.76-2.844a3 3 0 0 1 .249-.208 1.513 1.513 0 0 1 .588-.264 1.64 1.64 0 0 1 .372-.04c.226 0 .426.04.6.12.176.077.324.187.444.328.12.139.21.305.272.5.061.192.092.401.092.628V10h-1.24V7.364c0-.203-.047-.36-.14-.472-.094-.115-.23-.172-.412-.172a.863.863 0 0 0-.384.088 1.5 1.5 0 0 0-.344.232V10h-1.24V5.852h.768c.154 0 .256.07.304.208l.072.24Zm4.729 3.764a1.51 1.51 0 0 1-.524-.084 1.096 1.096 0 0 1-.38-.244 1.073 1.073 0 0 1-.232-.384 1.477 1.477 0 0 1-.08-.5V6.708h-.352a.24.24 0 0 1-.164-.06c-.046-.043-.068-.104-.068-.184V5.98l.66-.128.244-1.012c.032-.128.122-.192.272-.192h.648V5.86h1.028v.848h-1.028v2.06a.4.4 0 0 0 .068.24.244.244 0 0 0 .204.092.436.436 0 0 0 .112-.012.625.625 0 0 0 .08-.032.708.708 0 0 1 .064-.032.159.159 0 0 1 .072-.016.13.13 0 0 1 .088.028.27.27 0 0 1 .072.08l.376.588c-.16.12-.34.21-.54.272a2.19 2.19 0 0 1-.62.088Zm3.606-1.752a4.03 4.03 0 0 0-.612.064c-.16.032-.287.072-.38.12a.475.475 0 0 0-.196.164.4.4 0 0 0-.052.2c0 .141.038.241.116.3.077.056.19.084.34.084.16 0 .3-.028.42-.084a1.28 1.28 0 0 0 .364-.272v-.576Zm-2.232-1.884c.25-.221.528-.385.832-.492a2.89 2.89 0 0 1 .984-.164c.25 0 .476.041.676.124a1.452 1.452 0 0 1 .836.856c.075.2.112.419.112.656V10h-.568a.594.594 0 0 1-.268-.048c-.059-.032-.108-.099-.148-.2l-.088-.228a3.998 3.998 0 0 1-.3.232 1.98 1.98 0 0 1-.3.172c-.102.045-.21.079-.328.1a1.88 1.88 0 0 1-.384.036c-.19 0-.361-.024-.516-.072a.972.972 0 0 1-.644-.576 1.306 1.306 0 0 1-.088-.496c0-.15.037-.3.112-.452a1.1 1.1 0 0 1 .388-.42c.184-.128.432-.235.744-.32.312-.085.705-.133 1.18-.144v-.176c0-.243-.05-.417-.152-.524-.099-.11-.24-.164-.424-.164a1.13 1.13 0 0 0-.36.048 1.698 1.698 0 0 0-.252.108c-.072.04-.143.076-.212.108a.588.588 0 0 1-.248.048.357.357 0 0 1-.216-.064.556.556 0 0 1-.144-.152l-.224-.388Zm5.352-2.416V10h-1.24V4.012h1.24Z" fill="#B4B4B4"/><path d="M2.5 1h44V0h-44v1ZM48 2.5v9h1v-9h-1ZM46.5 13h-44v1h44v-1ZM1 11.5v-9H0v9h1ZM2.5 13A1.5 1.5 0 0 1 1 11.5H0A2.5 2.5 0 0 0 2.5 14v-1ZM48 11.5a1.5 1.5 0 0 1-1.5 1.5v1a2.5 2.5 0 0 0 2.5-2.5h-1ZM46.5 1A1.5 1.5 0 0 1 48 2.5h1A2.5 2.5 0 0 0 46.5 0v1Zm-44-1A2.5 2.5 0 0 0 0 2.5h1A1.5 1.5 0 0 1 2.5 1V0Z" fill="#000"/><path d="M.5 16.5a2 2 0 0 1 2-2h44a2 2 0 0 1 2 2v9a2 2 0 0 1-2 2h-44a2 2 0 0 1-2-2v-9Z" fill="#242424"/><rect x="2.5" y="16.5" width="44" height="9" rx="1" fill="#7432FF"/><rect x="2.5" y="16.5" width="44" height="9" rx="1" stroke="#7432FF"/><path d="M11.676 18.172V24h-1.36v-2.464H7.948V24h-1.36v-5.828h1.36v2.436h2.368v-2.436h1.36Zm2.654 1.616c.315 0 .601.05.86.148a1.866 1.866 0 0 1 1.096 1.096c.104.261.156.556.156.884 0 .33-.052.63-.156.896a1.91 1.91 0 0 1-.432.676 1.912 1.912 0 0 1-.664.428 2.395 2.395 0 0 1-.86.148 2.44 2.44 0 0 1-.868-.148 1.999 1.999 0 0 1-.672-.428 1.958 1.958 0 0 1-.436-.676 2.507 2.507 0 0 1-.152-.896c0-.328.05-.623.152-.884.104-.264.25-.488.436-.672a1.95 1.95 0 0 1 .672-.424 2.44 2.44 0 0 1 .868-.148Zm0 3.356c.286 0 .495-.1.628-.3.136-.203.204-.51.204-.92 0-.41-.068-.716-.204-.916-.133-.2-.342-.3-.628-.3-.293 0-.508.1-.644.3-.136.2-.204.505-.204.916 0 .41.068.717.204.92.136.2.35.3.644.3Zm3.777-2.652c.128-.224.274-.4.44-.528a.925.925 0 0 1 .576-.192.74.74 0 0 1 .456.132l-.08.912c-.014.059-.036.099-.068.12a.208.208 0 0 1-.124.032.96.96 0 0 1-.084-.004l-.108-.008a1.589 1.589 0 0 0-.116-.012.744.744 0 0 0-.104-.008.637.637 0 0 0-.436.144 1.14 1.14 0 0 0-.272.4V24h-1.24v-4.148h.736c.06 0 .112.005.152.016a.24.24 0 0 1 .104.052c.029.021.05.05.064.088a.717.717 0 0 1 .04.136l.064.348Zm3.042-.64V24h-1.24v-4.148h1.24Zm.128-1.136c0 .099-.02.192-.06.28a.765.765 0 0 1-1.22.228.8.8 0 0 1-.16-.228.708.708 0 0 1-.056-.28c0-.101.019-.196.056-.284a.783.783 0 0 1 .16-.232.772.772 0 0 1 .236-.156.76.76 0 0 1 .576 0 .75.75 0 0 1 .408.388.68.68 0 0 1 .06.284Zm3.701 1.632a.716.716 0 0 1-.044.248.563.563 0 0 1-.116.196l-1.732 2.288h1.852V24h-3.28v-.504c0-.05.013-.115.04-.192a.717.717 0 0 1 .12-.216l1.748-2.316H21.77v-.92h3.208v.496Zm2.364-.56c.315 0 .602.05.86.148a1.866 1.866 0 0 1 1.096 1.096c.104.261.156.556.156.884 0 .33-.052.63-.156.896a1.91 1.91 0 0 1-.432.676 1.912 1.912 0 0 1-.664.428 2.395 2.395 0 0 1-.86.148 2.44 2.44 0 0 1-.868-.148 1.997 1.997 0 0 1-.672-.428 1.956 1.956 0 0 1-.436-.676 2.507 2.507 0 0 1-.152-.896c0-.328.051-.623.152-.884.104-.264.25-.488.436-.672.19-.184.414-.325.672-.424a2.44 2.44 0 0 1 .868-.148Zm0 3.356c.286 0 .495-.1.628-.3.136-.203.204-.51.204-.92 0-.41-.068-.716-.204-.916-.133-.2-.342-.3-.628-.3-.293 0-.508.1-.644.3-.136.2-.204.505-.204.916 0 .41.068.717.204.92.136.2.351.3.644.3Zm3.76-2.844c.08-.075.163-.144.249-.208a1.515 1.515 0 0 1 .588-.264c.114-.027.238-.04.372-.04.226 0 .426.04.6.12.176.077.324.187.444.328.12.139.21.305.272.5.061.192.092.401.092.628V24h-1.24v-2.636c0-.203-.047-.36-.14-.472-.094-.115-.23-.172-.412-.172a.862.862 0 0 0-.384.088 1.499 1.499 0 0 0-.344.232V24h-1.24v-4.148h.768c.154 0 .256.07.304.208l.072.24Zm4.729 3.764a1.51 1.51 0 0 1-.524-.084 1.096 1.096 0 0 1-.38-.244 1.073 1.073 0 0 1-.232-.384 1.477 1.477 0 0 1-.08-.5v-2.144h-.352a.24.24 0 0 1-.164-.06c-.046-.043-.068-.104-.068-.184v-.484l.66-.128.244-1.012c.032-.128.122-.192.272-.192h.648v1.212h1.028v.848h-1.028v2.06a.4.4 0 0 0 .068.24.244.244 0 0 0 .204.092.436.436 0 0 0 .112-.012.625.625 0 0 0 .08-.032.716.716 0 0 1 .064-.032.158.158 0 0 1 .072-.016.13.13 0 0 1 .088.028.27.27 0 0 1 .072.08l.376.588c-.16.12-.34.21-.54.272a2.19 2.19 0 0 1-.62.088Zm3.606-1.752a4.03 4.03 0 0 0-.612.064c-.16.032-.287.072-.38.12a.475.475 0 0 0-.196.164.4.4 0 0 0-.052.2c0 .141.038.241.116.3.077.056.19.084.34.084.16 0 .3-.028.42-.084a1.28 1.28 0 0 0 .364-.272v-.576Zm-2.232-1.884c.25-.221.528-.385.832-.492a2.89 2.89 0 0 1 .984-.164c.25 0 .476.041.676.124a1.452 1.452 0 0 1 .836.856c.075.2.112.419.112.656V24h-.568a.594.594 0 0 1-.268-.048c-.059-.032-.108-.099-.148-.2l-.088-.228a4.006 4.006 0 0 1-.3.232 1.977 1.977 0 0 1-.3.172c-.102.045-.21.079-.328.1a1.88 1.88 0 0 1-.384.036c-.19 0-.361-.024-.516-.072a1.12 1.12 0 0 1-.396-.22.972.972 0 0 1-.248-.356 1.306 1.306 0 0 1-.088-.496c0-.15.037-.3.112-.452a1.1 1.1 0 0 1 .388-.42 2.43 2.43 0 0 1 .744-.32c.312-.085.705-.133 1.18-.144v-.176c0-.243-.05-.417-.152-.524-.099-.11-.24-.164-.424-.164a1.13 1.13 0 0 0-.36.048 1.698 1.698 0 0 0-.252.108c-.072.04-.143.076-.212.108a.588.588 0 0 1-.248.048.357.357 0 0 1-.216-.064.556.556 0 0 1-.144-.152l-.224-.388Zm5.352-2.416V24h-1.24v-5.988h1.24Z" fill="#fff"/><path d="M2.5 15h44v-1h-44v1ZM48 16.5v9h1v-9h-1ZM46.5 27h-44v1h44v-1ZM1 25.5v-9H0v9h1ZM2.5 27A1.5 1.5 0 0 1 1 25.5H0A2.5 2.5 0 0 0 2.5 28v-1ZM48 25.5a1.5 1.5 0 0 1-1.5 1.5v1a2.5 2.5 0 0 0 2.5-2.5h-1ZM46.5 15a1.5 1.5 0 0 1 1.5 1.5h1a2.5 2.5 0 0 0-2.5-2.5v1Zm-44-1A2.5 2.5 0 0 0 0 16.5h1A1.5 1.5 0 0 1 2.5 15v-1Z" fill="#000"/></svg>