<svg width="11" height="22" fill="none" xmlns="http://www.w3.org/2000/svg"><path d="M.5 2.5a2 2 0 0 1 2-2h6a2 2 0 0 1 2 2v6a2 2 0 0 1-2 2h-6a2 2 0 0 1-2-2v-6Z" fill="#242424"/><path d="M2.5 1h6V0h-6v1ZM10 2.5v6h1v-6h-1ZM8.5 10h-6v1h6v-1ZM1 8.5v-6H0v6h1ZM2.5 10A1.5 1.5 0 0 1 1 8.5H0A2.5 2.5 0 0 0 2.5 11v-1ZM10 8.5A1.5 1.5 0 0 1 8.5 10v1A2.5 2.5 0 0 0 11 8.5h-1ZM8.5 1A1.5 1.5 0 0 1 10 2.5h1A2.5 2.5 0 0 0 8.5 0v1Zm-6-1A2.5 2.5 0 0 0 0 2.5h1A1.5 1.5 0 0 1 2.5 1V0Z" fill="#000"/><path fill-rule="evenodd" clip-rule="evenodd" d="M6.275 3 3.4 5.849l1.725 1.71L8 4.708 6.275 3ZM4.626 8 3 6.388V8h1.626Z" fill="#B4B4B4"/><path d="M.5 13.5a2 2 0 0 1 2-2h6a2 2 0 0 1 2 2v6a2 2 0 0 1-2 2h-6a2 2 0 0 1-2-2v-6Z" fill="#242424"/><rect x="2.5" y="13.5" width="6" height="6" rx=".25" fill="#7432FF"/><rect x="2.5" y="13.5" width="6" height="6" rx=".25" stroke="#7432FF"/><path d="M2.5 12h6v-1h-6v1Zm7.5 1.5v6h1v-6h-1ZM8.5 21h-6v1h6v-1ZM1 19.5v-6H0v6h1ZM2.5 21A1.5 1.5 0 0 1 1 19.5H0A2.5 2.5 0 0 0 2.5 22v-1Zm7.5-1.5A1.5 1.5 0 0 1 8.5 21v1a2.5 2.5 0 0 0 2.5-2.5h-1ZM8.5 12a1.5 1.5 0 0 1 1.5 1.5h1A2.5 2.5 0 0 0 8.5 11v1Zm-6-1A2.5 2.5 0 0 0 0 13.5h1A1.5 1.5 0 0 1 2.5 12v-1Z" fill="#000"/><path fill-rule="evenodd" clip-rule="evenodd" d="M6.275 14 3.4 16.849l1.725 1.71L8 15.708 6.275 14Zm-1.649 5L3 17.388V19h1.626Z" fill="#fff"/></svg>