<svg width="16" height="24" fill="none" xmlns="http://www.w3.org/2000/svg"><path d="M15.5 2.5a2 2 0 0 0-2-2H.5v11h13a2 2 0 0 0 2-2v-7Z" fill="#242424"/><path d="M.5.5H0V0h.5v.5Zm0 11v.5H0v-.5h.5ZM13.5 1H.5V0h13v1ZM1 .5v11H0V.5h1ZM.5 11h13v1H.5v-1ZM15 9.5v-7h1v7h-1ZM13.5 11A1.5 1.5 0 0 0 15 9.5h1a2.5 2.5 0 0 1-2.5 2.5v-1Zm0-11A2.5 2.5 0 0 1 16 2.5h-1A1.5 1.5 0 0 0 13.5 1V0Z" fill="#000"/><path d="M7.75 4a3.82 3.82 0 0 1 2.997 1.415L12 4.235V8H8l1.36-1.28C9 5.686 7.969 4.94 6.75 4.94 5.23 4.941 4 6.101 4 7.53 4 5.58 5.679 4 7.75 4Z" fill="#B4B4B4"/><path d="M15.5 14.5a2 2 0 0 0-2-2H.5v11h13a2 2 0 0 0 2-2v-7Z" fill="#242424"/><path d="M13.5 15.5a1 1 0 0 0-1-1h-10v7h10a1 1 0 0 0 1-1v-5Z" fill="#242424"/><path d="M13.5 15.5a1 1 0 0 0-1-1h-10v7h10a1 1 0 0 0 1-1v-5Z" stroke="#242424"/><path d="M.5 12.5H0V12h.5v.5Zm0 11v.5H0v-.5h.5Zm13-10.5H.5v-1h13v1ZM1 12.5v11H0v-11h1ZM.5 23h13v1H.5v-1ZM15 21.5v-7h1v7h-1ZM13.5 23a1.5 1.5 0 0 0 1.5-1.5h1a2.5 2.5 0 0 1-2.5 2.5v-1Zm0-11a2.5 2.5 0 0 1 2.5 2.5h-1a1.5 1.5 0 0 0-1.5-1.5v-1Z" fill="#000"/><path d="M7.75 16a3.82 3.82 0 0 1 2.997 1.415L12 16.235V20H8l1.36-1.28c-.36-1.034-1.391-1.78-2.61-1.78C5.23 16.94 4 18.1 4 19.528 4 17.58 5.679 16 7.75 16Z" fill="#B4B4B4"/></svg>