<svg width="133" height="18" fill="none" xmlns="http://www.w3.org/2000/svg"><path d="M2 3.5a2 2 0 0 1 2-2h124a2 2 0 0 1 2 2v11a2 2 0 0 1-2 2H4a2 2 0 0 1-2-2v-11Z" fill="url(#a)"/><path d="M4 2h124V1H4v1Zm125.5 1.5v11h1v-11h-1ZM128 16H4v1h124v-1ZM2.5 14.5v-11h-1v11h1ZM4 16a1.5 1.5 0 0 1-1.5-1.5h-1A2.5 2.5 0 0 0 4 17v-1Zm125.5-1.5A1.5 1.5 0 0 1 128 16v1a2.5 2.5 0 0 0 2.5-2.5h-1ZM128 2a1.5 1.5 0 0 1 1.5 1.5h1A2.5 2.5 0 0 0 128 1v1ZM4 1a2.5 2.5 0 0 0-2.5 2.5h1A1.5 1.5 0 0 1 4 2V1Z" fill="#fff"/><path d="M123.5 11 121 8h5l-2.5 3Z" fill="#E3E3E3"/><defs><linearGradient id="a" x1="66" y1="1.5" x2="66" y2="16.5" gradientUnits="userSpaceOnUse"><stop stop-color="#553783"/><stop offset=".094" stop-color="#380D53"/><stop offset=".922" stop-color="#12051D"/><stop offset="1" stop-color="#281643"/></linearGradient></defs></svg>