<svg width="50" height="282" fill="none" xmlns="http://www.w3.org/2000/svg"><path d="M3.792 51.403c.309 0 .53-.073.665-.22.136-.148.204-.353.204-.617a.921.921 0 0 0-.053-.318.686.686 0 0 0-.43-.406 1.177 1.177 0 0 0-.385-.056h-.617v1.617h.616Zm0-2.502c.36 0 .668.043.925.129.259.084.47.2.637.35.167.15.291.325.37.528.08.203.12.423.12.658 0 .255-.041.488-.123.7a1.405 1.405 0 0 1-.375.547c-.168.151-.381.27-.64.356a2.949 2.949 0 0 1-.914.127h-.615V54H1.993v-5.1h1.798Zm7.552 2.547c0 .37-.064.712-.193 1.03a2.478 2.478 0 0 1-.535.829c-.231.233-.51.416-.837.55a2.824 2.824 0 0 1-1.081.199 2.83 2.83 0 0 1-1.085-.2 2.512 2.512 0 0 1-.84-.549 2.523 2.523 0 0 1-.54-.83 2.763 2.763 0 0 1-.188-1.028c0-.37.063-.712.189-1.03.128-.317.308-.592.539-.825.233-.234.513-.417.84-.55.326-.133.688-.2 1.085-.2.396 0 .757.068 1.081.203.327.134.606.317.837.55.23.233.41.509.535.826a2.7 2.7 0 0 1 .193 1.026Zm-1.211 0a2.19 2.19 0 0 0-.098-.678 1.425 1.425 0 0 0-.284-.515 1.2 1.2 0 0 0-.448-.322 1.547 1.547 0 0 0-.605-.112 1.58 1.58 0 0 0-.613.112 1.231 1.231 0 0 0-.451.322c-.122.14-.215.311-.28.514a2.176 2.176 0 0 0-.098.68c0 .254.032.483.098.686.065.2.158.37.28.51.123.14.274.248.451.322.18.073.384.109.613.109.226 0 .428-.036.605-.108a1.2 1.2 0 0 0 .448-.323c.124-.14.218-.31.284-.51.065-.203.098-.432.098-.686Zm4.875 1.607V54h-3.073v-5.1h1.183v4.155h1.89Zm2.273-.994V54h-1.183v-1.939l-1.848-3.16h1.043c.102 0 .183.024.241.073.06.047.111.107.15.182l.722 1.484c.06.117.115.226.164.329.05.1.092.2.13.297a3.996 3.996 0 0 1 .28-.626l.714-1.484a.664.664 0 0 1 .06-.091.435.435 0 0 1 .188-.14.374.374 0 0 1 .137-.024h1.05l-1.848 3.16Z" fill="#B4B4B4"/><rect x="1" y="55.25" width="48" height="7" rx="1" fill="#7432FF"/><rect x="1" y="55.25" width="48" height="7" rx="1" stroke="#7432FF"/><path d="M7.726 56.65v5.1H6.684v-2.933c0-.068 0-.141.003-.22.005-.08.012-.16.021-.242l-1.354 2.622a.441.441 0 0 1-.413.248h-.162a.479.479 0 0 1-.244-.063.449.449 0 0 1-.168-.185l-1.355-2.629.018.248c.004.08.007.153.007.221v2.933H1.994v-5.1h.903c.05 0 .095.002.133.004.04.002.074.01.105.021a.21.21 0 0 1 .08.056c.026.023.05.057.074.102L4.6 59.419c.047.089.091.18.133.277.044.095.086.193.126.294a3.92 3.92 0 0 1 .262-.581l1.31-2.576a.423.423 0 0 1 .07-.102.241.241 0 0 1 .083-.056.339.339 0 0 1 .102-.021c.04-.002.085-.004.136-.004h.903Zm5.887 2.549c0 .368-.064.711-.192 1.029a2.478 2.478 0 0 1-.536.829c-.23.233-.51.416-.836.55a2.83 2.83 0 0 1-1.082.199c-.396 0-.758-.066-1.085-.2a2.512 2.512 0 0 1-.84-.549 2.523 2.523 0 0 1-.539-.83 2.763 2.763 0 0 1-.189-1.028c0-.37.063-.712.19-1.03.128-.317.307-.592.538-.825.234-.234.514-.417.84-.55.327-.133.689-.2 1.085-.2.397 0 .757.068 1.082.203.326.134.605.317.836.55.231.233.41.509.536.826.128.317.192.66.192 1.026Zm-1.21 0c0-.252-.033-.479-.099-.68a1.424 1.424 0 0 0-.283-.514 1.199 1.199 0 0 0-.448-.322 1.547 1.547 0 0 0-.606-.112c-.228 0-.433.037-.612.112a1.232 1.232 0 0 0-.452.322c-.121.14-.214.311-.28.514a2.206 2.206 0 0 0-.098.68c0 .254.033.483.098.686.066.2.159.37.28.51.124.14.274.248.452.322.18.073.384.109.612.109.227 0 .428-.036.606-.108.177-.075.326-.183.448-.323.123-.14.218-.31.283-.51.066-.203.098-.432.098-.686Zm6.253-2.548v5.099h-.616a.568.568 0 0 1-.23-.042.593.593 0 0 1-.183-.154l-2.404-3.041c.01.09.015.18.017.266.005.083.007.163.007.237v2.734h-1.043v-5.1h.623a.93.93 0 0 1 .13.008.299.299 0 0 1 .094.027c.028.012.055.03.08.053a.913.913 0 0 1 .088.095l2.426 3.062a4.236 4.236 0 0 1-.032-.546v-2.698h1.043Zm5.89 2.547c0 .37-.064.712-.193 1.03a2.478 2.478 0 0 1-.535.829c-.231.233-.51.416-.837.55a2.82 2.82 0 0 1-1.081.199c-.397 0-.758-.066-1.085-.2a2.511 2.511 0 0 1-.84-.549 2.522 2.522 0 0 1-.54-.83 2.763 2.763 0 0 1-.188-1.028c0-.37.063-.712.189-1.03.128-.317.308-.592.539-.825.233-.234.513-.417.84-.55.326-.133.688-.2 1.085-.2s.757.068 1.081.203c.327.134.606.317.837.55.23.233.41.509.535.826a2.7 2.7 0 0 1 .193 1.026Zm-1.211 0a2.19 2.19 0 0 0-.098-.678 1.424 1.424 0 0 0-.284-.515 1.2 1.2 0 0 0-.448-.322 1.547 1.547 0 0 0-.605-.112 1.58 1.58 0 0 0-.613.112 1.232 1.232 0 0 0-.451.322c-.121.14-.215.311-.28.514a2.19 2.19 0 0 0-.098.68c0 .254.033.483.098.686.065.2.159.37.28.51.123.14.274.248.451.322.18.073.384.109.613.109.226 0 .428-.036.605-.108a1.2 1.2 0 0 0 .448-.323c.124-.14.219-.31.284-.51.065-.203.098-.432.098-.686Z" fill="#fff"/><path d="M7.726 64.4v5.1H6.684v-2.933c0-.068 0-.141.003-.22.005-.08.012-.16.021-.242l-1.354 2.621a.441.441 0 0 1-.413.249h-.162a.479.479 0 0 1-.244-.063.449.449 0 0 1-.168-.186l-1.355-2.628.018.249c.004.079.007.152.007.22V69.5H1.994v-5.1h.903c.05 0 .095.002.133.004.04.002.074.01.105.021a.21.21 0 0 1 .08.056c.026.023.05.057.074.102L4.6 67.168a6.08 6.08 0 0 1 .259.571 3.92 3.92 0 0 1 .262-.581l1.31-2.576a.423.423 0 0 1 .07-.102.241.241 0 0 1 .083-.056.339.339 0 0 1 .102-.021c.04-.002.085-.004.136-.004h.903Zm5.887 2.548c0 .37-.064.712-.192 1.03a2.478 2.478 0 0 1-.536.829c-.23.233-.51.416-.836.55a2.83 2.83 0 0 1-1.082.199c-.396 0-.758-.066-1.085-.2a2.512 2.512 0 0 1-.84-.549 2.523 2.523 0 0 1-.539-.83 2.763 2.763 0 0 1-.189-1.029c0-.368.063-.711.19-1.028.128-.318.307-.593.538-.826.234-.234.514-.417.84-.55.327-.133.689-.2 1.085-.2.397 0 .757.068 1.082.204.326.132.605.316.836.549.231.233.41.509.536.826.128.317.192.66.192 1.025Zm-1.21 0c0-.251-.033-.478-.099-.678a1.424 1.424 0 0 0-.283-.515 1.199 1.199 0 0 0-.448-.322 1.547 1.547 0 0 0-.606-.112c-.228 0-.433.037-.612.112a1.232 1.232 0 0 0-.452.322c-.121.14-.214.312-.28.514a2.202 2.202 0 0 0-.098.68c0 .254.033.483.098.686.066.2.159.37.28.51.124.14.274.248.452.323.18.072.384.108.612.108.227 0 .428-.036.606-.108.177-.075.326-.183.448-.323.123-.14.218-.31.283-.51.066-.204.098-.432.098-.687Zm6.253-2.547V69.5h-.616a.568.568 0 0 1-.23-.042.593.593 0 0 1-.183-.154l-2.404-3.041c.01.09.015.18.017.265.005.084.007.164.007.238V69.5h-1.043v-5.1h.623c.052 0 .095.003.13.007a.299.299 0 0 1 .094.029.261.261 0 0 1 .08.052.913.913 0 0 1 .088.094l2.426 3.063a4.236 4.236 0 0 1-.032-.546V64.4h1.043Zm5.89 2.547c0 .37-.064.712-.193 1.03a2.478 2.478 0 0 1-.535.829c-.231.233-.51.416-.837.55a2.82 2.82 0 0 1-1.081.199c-.397 0-.758-.066-1.085-.2a2.511 2.511 0 0 1-.84-.549 2.522 2.522 0 0 1-.54-.83 2.763 2.763 0 0 1-.188-1.029c0-.368.063-.711.189-1.028.128-.318.308-.593.539-.826.233-.234.513-.417.84-.55.326-.133.688-.2 1.085-.2s.757.068 1.081.204c.327.132.606.316.837.549.23.233.41.509.535.826.129.317.193.66.193 1.025Zm-1.211 0a2.19 2.19 0 0 0-.098-.678 1.424 1.424 0 0 0-.284-.515 1.2 1.2 0 0 0-.448-.322 1.547 1.547 0 0 0-.605-.112 1.58 1.58 0 0 0-.613.112 1.232 1.232 0 0 0-.451.322c-.121.14-.215.312-.28.514a2.19 2.19 0 0 0-.098.68c0 .254.033.483.098.686.065.2.159.37.28.51.123.14.274.248.451.323.18.072.384.108.613.108.226 0 .428-.036.605-.108a1.2 1.2 0 0 0 .448-.323c.124-.14.219-.31.284-.51.065-.204.098-.432.098-.687Zm6.135-1.511a.43.43 0 0 1-.112.126.239.239 0 0 1-.147.041.383.383 0 0 1-.175-.049 6.74 6.74 0 0 0-.21-.115 1.576 1.576 0 0 0-.266-.112 1.038 1.038 0 0 0-.343-.053c-.222 0-.388.048-.497.144a.48.48 0 0 0-.161.382.35.35 0 0 0 .098.255c.065.068.15.126.255.175.107.049.229.095.364.137.138.04.278.085.42.136.142.049.281.107.417.175.137.068.259.154.364.259.107.105.193.233.259.385.065.15.098.33.098.543 0 .235-.041.456-.123.661-.082.205-.2.385-.357.539a1.661 1.661 0 0 1-.574.36 2.16 2.16 0 0 1-.773.13c-.16 0-.321-.016-.487-.049a3.013 3.013 0 0 1-.476-.136 2.882 2.882 0 0 1-.434-.214 1.847 1.847 0 0 1-.353-.273l.35-.553a.338.338 0 0 1 .108-.098.287.287 0 0 1 .15-.042c.07 0 .14.022.21.066l.242.147c.091.054.195.103.312.148.116.044.254.066.413.066.214 0 .381-.047.5-.14.12-.096.179-.246.179-.451a.425.425 0 0 0-.098-.291.753.753 0 0 0-.26-.186 2.3 2.3 0 0 0-.36-.129 13.251 13.251 0 0 1-.416-.123 3.388 3.388 0 0 1-.417-.168 1.393 1.393 0 0 1-.364-.262 1.269 1.269 0 0 1-.255-.406 1.627 1.627 0 0 1-.098-.602 1.446 1.446 0 0 1 .455-1.046c.149-.143.332-.256.55-.34.216-.086.465-.13.745-.13.156 0 .308.013.455.039.149.023.29.06.423.109.133.046.257.103.371.171.117.065.22.14.312.224l-.294.55Zm4.618-.099h-1.435V69.5H31.47v-4.162h-1.435V64.4h4.053v.938ZM7.726 72.15v5.1H6.684v-2.933c0-.068 0-.141.003-.22.005-.08.012-.16.021-.242l-1.354 2.621a.441.441 0 0 1-.413.249h-.162a.479.479 0 0 1-.244-.063.449.449 0 0 1-.168-.186l-1.355-2.628.018.249c.004.079.007.152.007.22v2.933H1.994v-5.1h.903c.05 0 .095.002.133.004.04.002.074.01.105.021a.21.21 0 0 1 .08.056c.026.023.05.057.074.102L4.6 74.918a6.08 6.08 0 0 1 .259.571 3.92 3.92 0 0 1 .262-.581l1.31-2.576a.423.423 0 0 1 .07-.102.241.241 0 0 1 .083-.056.339.339 0 0 1 .102-.021c.04-.002.085-.004.136-.004h.903Zm5.887 2.548c0 .37-.064.712-.192 1.03a2.478 2.478 0 0 1-.536.829c-.23.233-.51.416-.836.55a2.83 2.83 0 0 1-1.082.199c-.396 0-.758-.066-1.085-.2a2.512 2.512 0 0 1-.84-.549 2.523 2.523 0 0 1-.539-.83 2.763 2.763 0 0 1-.189-1.029c0-.368.063-.711.19-1.028.128-.318.307-.593.538-.826.234-.234.514-.417.84-.55.327-.133.689-.2 1.085-.2.397 0 .757.068 1.082.204.326.132.605.316.836.549.231.233.41.509.536.826.128.317.192.66.192 1.025Zm-1.21 0c0-.251-.033-.478-.099-.678a1.424 1.424 0 0 0-.283-.515 1.199 1.199 0 0 0-.448-.322 1.547 1.547 0 0 0-.606-.112c-.228 0-.433.037-.612.112a1.232 1.232 0 0 0-.452.322c-.121.14-.214.312-.28.514a2.202 2.202 0 0 0-.098.68c0 .254.033.483.098.686.066.2.159.37.28.51.124.14.274.248.452.323.18.072.384.108.612.108.227 0 .428-.036.606-.108.177-.075.326-.183.448-.323.123-.14.218-.31.283-.51.066-.204.098-.432.098-.687Zm6.253-2.547v5.099h-.616a.568.568 0 0 1-.23-.042.593.593 0 0 1-.183-.154l-2.404-3.041c.01.09.015.18.017.265.005.084.007.164.007.238v2.734h-1.043v-5.1h.623c.052 0 .095.003.13.007a.299.299 0 0 1 .094.029.261.261 0 0 1 .08.052.913.913 0 0 1 .088.094l2.426 3.063a4.236 4.236 0 0 1-.032-.546V72.15h1.043Zm5.89 2.547c0 .37-.064.712-.193 1.03a2.478 2.478 0 0 1-.535.829c-.231.233-.51.416-.837.55a2.82 2.82 0 0 1-1.081.199c-.397 0-.758-.066-1.085-.2a2.511 2.511 0 0 1-.84-.549 2.522 2.522 0 0 1-.54-.83 2.763 2.763 0 0 1-.188-1.029c0-.368.063-.711.189-1.028.128-.318.308-.593.539-.826.233-.234.513-.417.84-.55.326-.133.688-.2 1.085-.2s.757.068 1.081.204c.327.132.606.316.837.549.23.233.41.509.535.826.129.317.193.66.193 1.025Zm-1.211 0a2.19 2.19 0 0 0-.098-.678 1.424 1.424 0 0 0-.284-.515 1.2 1.2 0 0 0-.448-.322 1.547 1.547 0 0 0-.605-.112 1.58 1.58 0 0 0-.613.112 1.232 1.232 0 0 0-.451.322c-.121.14-.215.312-.28.514a2.19 2.19 0 0 0-.098.68c0 .254.033.483.098.686.065.2.159.37.28.51.123.14.274.248.451.323.18.072.384.108.613.108.226 0 .428-.036.605-.108a1.2 1.2 0 0 0 .448-.323c.124-.14.219-.31.284-.51.065-.204.098-.432.098-.687Zm4.507-1.637v1.291h1.743v.913h-1.743v1.985h-1.19v-5.1h3.283v.91h-2.093Zm4.469 1.592c.308 0 .53-.074.665-.22.135-.148.203-.353.203-.617a.921.921 0 0 0-.053-.318.686.686 0 0 0-.43-.406 1.177 1.177 0 0 0-.385-.056h-.616v1.617h.616Zm0-2.503c.36 0 .667.044.924.13.259.084.471.2.637.35.168.15.292.326.37.529.08.203.12.422.12.657 0 .255-.04.488-.123.7a1.404 1.404 0 0 1-.374.546 1.796 1.796 0 0 1-.64.358 2.948 2.948 0 0 1-.914.126h-.616v1.704h-1.183v-5.1h1.799ZM7.726 79.9V85H6.684v-2.933c0-.068 0-.141.003-.22.005-.08.012-.16.021-.242l-1.354 2.621a.441.441 0 0 1-.413.249h-.162a.479.479 0 0 1-.244-.063.449.449 0 0 1-.168-.186l-1.355-2.628.018.249c.004.079.007.152.007.22V85H1.994v-5.1h.903c.05 0 .095.002.133.004.04.002.074.01.105.021a.21.21 0 0 1 .08.056c.026.023.05.057.074.102L4.6 82.668a6.08 6.08 0 0 1 .259.571 3.92 3.92 0 0 1 .262-.581l1.31-2.576a.423.423 0 0 1 .07-.102.241.241 0 0 1 .083-.056.339.339 0 0 1 .102-.021c.04-.002.085-.004.136-.004h.903Zm5.887 2.548c0 .37-.064.712-.192 1.03a2.478 2.478 0 0 1-.536.829c-.23.233-.51.416-.836.55a2.83 2.83 0 0 1-1.082.199c-.396 0-.758-.066-1.085-.2a2.512 2.512 0 0 1-.84-.549 2.523 2.523 0 0 1-.539-.83 2.763 2.763 0 0 1-.189-1.029c0-.368.063-.711.19-1.028.128-.318.307-.593.538-.826.234-.234.514-.417.84-.55.327-.133.689-.2 1.085-.2.397 0 .757.068 1.082.204.326.132.605.316.836.549.231.233.41.509.536.826.128.317.192.66.192 1.025Zm-1.21 0c0-.251-.033-.478-.099-.678a1.424 1.424 0 0 0-.283-.515 1.199 1.199 0 0 0-.448-.322 1.547 1.547 0 0 0-.606-.112c-.228 0-.433.037-.612.112a1.232 1.232 0 0 0-.452.322c-.121.14-.214.312-.28.514a2.202 2.202 0 0 0-.098.68c0 .254.033.483.098.686.066.2.159.37.28.51.124.14.274.248.452.323.18.072.384.108.612.108.227 0 .428-.036.606-.108.177-.075.326-.183.448-.323.123-.14.218-.31.283-.51.066-.204.098-.432.098-.687Zm6.253-2.547V85h-.616a.568.568 0 0 1-.23-.042.593.593 0 0 1-.183-.154l-2.404-3.041c.01.09.015.18.017.265.005.084.007.164.007.238V85h-1.043v-5.1h.623c.052 0 .095.003.13.007a.299.299 0 0 1 .094.029.261.261 0 0 1 .08.052.913.913 0 0 1 .088.094l2.426 3.063a4.236 4.236 0 0 1-.032-.546V79.9h1.043Zm5.89 2.547c0 .37-.064.712-.193 1.03a2.478 2.478 0 0 1-.535.829c-.231.233-.51.416-.837.55a2.82 2.82 0 0 1-1.081.199c-.397 0-.758-.066-1.085-.2a2.511 2.511 0 0 1-.84-.549 2.522 2.522 0 0 1-.54-.83 2.763 2.763 0 0 1-.188-1.029c0-.368.063-.711.189-1.028.128-.318.308-.593.539-.826.233-.234.513-.417.84-.55.326-.133.688-.2 1.085-.2s.757.068 1.081.204c.327.132.606.316.837.549.23.233.41.509.535.826.129.317.193.66.193 1.025Zm-1.211 0a2.19 2.19 0 0 0-.098-.678 1.424 1.424 0 0 0-.284-.515 1.2 1.2 0 0 0-.448-.322 1.547 1.547 0 0 0-.605-.112 1.58 1.58 0 0 0-.613.112 1.232 1.232 0 0 0-.451.322c-.121.14-.215.312-.28.514a2.19 2.19 0 0 0-.098.68c0 .254.033.483.098.686.065.2.159.37.28.51.123.14.274.248.451.323.18.072.384.108.613.108.226 0 .428-.036.605-.108a1.2 1.2 0 0 0 .448-.323c.124-.14.219-.31.284-.51.065-.204.098-.432.098-.687Zm6.135-1.511a.43.43 0 0 1-.112.126.239.239 0 0 1-.147.041.383.383 0 0 1-.175-.049 6.74 6.74 0 0 0-.21-.115 1.576 1.576 0 0 0-.266-.112 1.038 1.038 0 0 0-.343-.053c-.222 0-.388.048-.497.144a.48.48 0 0 0-.161.382.35.35 0 0 0 .098.255c.065.068.15.126.255.175.107.049.229.095.364.137.138.04.278.085.42.136.142.049.281.107.417.175.137.068.259.154.364.259.107.105.193.233.259.385.065.15.098.33.098.543 0 .235-.041.456-.123.661-.082.205-.2.385-.357.539a1.661 1.661 0 0 1-.574.36 2.16 2.16 0 0 1-.773.13c-.16 0-.321-.016-.487-.049a3.013 3.013 0 0 1-.476-.136 2.882 2.882 0 0 1-.434-.214 1.847 1.847 0 0 1-.353-.273l.35-.553a.338.338 0 0 1 .108-.098.287.287 0 0 1 .15-.042c.07 0 .14.022.21.066l.242.147c.091.054.195.103.312.148.116.044.254.066.413.066.214 0 .381-.047.5-.14.12-.096.179-.246.179-.451a.425.425 0 0 0-.098-.291.753.753 0 0 0-.26-.186 2.3 2.3 0 0 0-.36-.129 13.251 13.251 0 0 1-.416-.123 3.388 3.388 0 0 1-.417-.168 1.393 1.393 0 0 1-.364-.262 1.269 1.269 0 0 1-.255-.406 1.627 1.627 0 0 1-.098-.602 1.446 1.446 0 0 1 .455-1.046c.149-.143.332-.256.55-.34.216-.086.465-.13.745-.13.156 0 .308.013.455.039.149.023.29.06.423.109.133.046.257.103.371.171.117.065.22.14.312.224l-.294.55Zm4.618-.099h-1.435V85H31.47v-4.162h-1.435V79.9h4.053v.938Zm3.765 2.199h-1.295v1.392h-.882v-1.392h-1.288v-.778h1.288v-1.385h.882v1.386h1.295v.776Zm1.876-2.227v1.292h1.743v.913H39.73V85h-1.19v-5.1h3.283v.91H39.73Zm4.47 1.593c.307 0 .529-.074.664-.22.135-.148.203-.353.203-.617a.921.921 0 0 0-.052-.318.686.686 0 0 0-.43-.406 1.177 1.177 0 0 0-.386-.056h-.616v1.617h.616Zm0-2.503c.358 0 .666.044.923.13.26.084.471.2.637.35.168.15.292.326.371.529.08.203.12.422.12.657 0 .255-.042.488-.123.7a1.406 1.406 0 0 1-.375.546 1.787 1.787 0 0 1-.64.358 2.949 2.949 0 0 1-.914.126h-.616V85H42.4v-5.1h1.8ZM5.066 91.805v.945H1.994v-5.1h1.182v4.155h1.89ZM8.261 90.8l-.472-1.396a6.208 6.208 0 0 1-.112-.311c-.04-.122-.08-.252-.12-.392a5.509 5.509 0 0 1-.223.71l-.47 1.39h1.397Zm1.88 1.95h-.917a.407.407 0 0 1-.249-.07.47.47 0 0 1-.143-.186l-.301-.888H6.59l-.3.889a.433.433 0 0 1-.14.178.385.385 0 0 1-.245.077h-.924l1.974-5.1h1.21l1.975 5.1Zm3.462-4.162h-1.435v4.162h-1.183v-4.162H9.55v-.938h4.053v.938Zm3.817 2.843a.21.21 0 0 1 .084.017c.028.01.055.027.08.053l.47.493a1.96 1.96 0 0 1-.774.609c-.308.135-.673.203-1.095.203-.388 0-.735-.065-1.043-.196a2.307 2.307 0 0 1-.78-.546 2.441 2.441 0 0 1-.49-.826 3.066 3.066 0 0 1-.172-1.04c0-.38.062-.729.185-1.046a2.348 2.348 0 0 1 1.327-1.365 2.695 2.695 0 0 1 1.032-.192c.192 0 .371.017.54.052a2.46 2.46 0 0 1 .881.353c.124.085.233.175.33.273l-.4.536a.56.56 0 0 1-.09.091.244.244 0 0 1-.148.038.262.262 0 0 1-.119-.028 1.62 1.62 0 0 1-.119-.066 3.046 3.046 0 0 0-.14-.087 1.31 1.31 0 0 0-.42-.157 1.618 1.618 0 0 0-.322-.029c-.196 0-.375.036-.539.109a1.182 1.182 0 0 0-.42.318 1.482 1.482 0 0 0-.273.511c-.063.2-.094.43-.094.69 0 .26.035.493.105.696.072.203.169.374.29.514a1.26 1.26 0 0 0 .956.424c.107 0 .205-.005.294-.014a1.142 1.142 0 0 0 .465-.15 1.47 1.47 0 0 0 .207-.158.368.368 0 0 1 .09-.056.225.225 0 0 1 .102-.025Zm5.497-3.78v5.099h-1.19v-2.156h-2.072v2.156h-1.19v-5.1h1.19v2.132h2.072V87.65h1.19ZM3.792 98.403c.309 0 .53-.074.665-.22.136-.148.204-.353.204-.617a.921.921 0 0 0-.053-.318.686.686 0 0 0-.43-.406 1.177 1.177 0 0 0-.385-.056h-.617v1.617h.616Zm0-2.503c.36 0 .668.044.925.13.259.084.47.2.637.35.167.15.291.326.37.529.08.203.12.422.12.657 0 .255-.041.488-.123.7a1.405 1.405 0 0 1-.375.546 1.787 1.787 0 0 1-.64.358 2.949 2.949 0 0 1-.914.126h-.615V101H1.993v-5.1h1.798Zm7.552 2.548c0 .37-.064.712-.193 1.03a2.48 2.48 0 0 1-.535.829c-.231.233-.51.416-.837.549-.324.134-.685.2-1.081.2a2.83 2.83 0 0 1-1.085-.2 2.515 2.515 0 0 1-.84-.549 2.526 2.526 0 0 1-.54-.83 2.763 2.763 0 0 1-.188-1.029c0-.368.063-.711.189-1.028.128-.318.308-.593.539-.826.233-.234.513-.417.84-.55.326-.133.688-.2 1.085-.2.396 0 .757.068 1.081.204.327.132.606.316.837.549.23.233.41.509.535.826.129.317.193.66.193 1.025Zm-1.211 0a2.19 2.19 0 0 0-.098-.678 1.425 1.425 0 0 0-.284-.515 1.2 1.2 0 0 0-.448-.322 1.547 1.547 0 0 0-.605-.112 1.58 1.58 0 0 0-.613.112 1.231 1.231 0 0 0-.451.322c-.122.14-.215.312-.28.514a2.172 2.172 0 0 0-.098.68c0 .254.032.483.098.686.065.2.158.37.28.51.123.14.274.248.451.323.18.072.384.108.613.108.226 0 .428-.036.605-.108a1.2 1.2 0 0 0 .448-.323c.124-.14.218-.31.284-.51.065-.204.098-.432.098-.687Zm4.875 1.607V101h-3.073v-5.1h1.183v4.155h1.89Zm2.273-.994V101h-1.183v-1.939l-1.848-3.16h1.043c.102 0 .183.024.241.073.06.047.111.107.15.182l.722 1.484c.06.117.115.226.164.329.05.1.092.2.13.297a3.996 3.996 0 0 1 .28-.626l.714-1.484a.664.664 0 0 1 .06-.091.435.435 0 0 1 .188-.14.374.374 0 0 1 .137-.025h1.05l-1.848 3.161Zm-9.555 4.589v5.1H6.684v-2.933c0-.068 0-.141.003-.221.005-.079.012-.159.021-.241l-1.354 2.621a.44.44 0 0 1-.413.249h-.162a.479.479 0 0 1-.244-.063.448.448 0 0 1-.168-.186l-1.355-2.628.018.248c.004.08.007.153.007.221v2.933H1.994v-5.1h.903c.05 0 .095.002.133.004a.33.33 0 0 1 .105.021.21.21 0 0 1 .08.056c.026.023.05.057.074.101l1.312 2.587a6.494 6.494 0 0 1 .259.57 3.984 3.984 0 0 1 .262-.581l1.31-2.576a.418.418 0 0 1 .07-.101.241.241 0 0 1 .083-.056.321.321 0 0 1 .102-.021c.04-.002.085-.004.136-.004h.903Zm5.887 2.548c0 .369-.064.712-.192 1.029a2.476 2.476 0 0 1-.536.83c-.23.233-.51.416-.836.549a2.81 2.81 0 0 1-1.082.2c-.396 0-.758-.066-1.085-.2a2.515 2.515 0 0 1-.84-.549 2.52 2.52 0 0 1-.539-.83 2.76 2.76 0 0 1-.189-1.029c0-.368.063-.711.19-1.029.128-.317.307-.592.538-.826.234-.233.514-.416.84-.549.327-.133.689-.2 1.085-.2.397 0 .757.068 1.082.203.326.133.605.317.836.55.231.233.41.509.536.826.128.317.192.659.192 1.025Zm-1.21 0a2.17 2.17 0 0 0-.099-.679 1.422 1.422 0 0 0-.283-.514 1.202 1.202 0 0 0-.448-.322 1.542 1.542 0 0 0-.606-.112c-.228 0-.433.037-.612.112a1.235 1.235 0 0 0-.452.322c-.121.14-.214.311-.28.514a2.19 2.19 0 0 0-.098.679c0 .255.033.483.098.686.066.201.159.371.28.511.124.14.274.248.452.322.18.073.384.109.612.109.227 0 .428-.036.606-.109a1.2 1.2 0 0 0 .448-.322c.123-.14.218-.31.283-.511a2.23 2.23 0 0 0 .098-.686Zm6.253-2.548v5.1h-.616a.568.568 0 0 1-.23-.042.593.593 0 0 1-.183-.154l-2.404-3.042c.01.091.015.18.017.266.005.084.007.164.007.238v2.734h-1.043v-5.1h.623c.052 0 .095.003.13.007a.307.307 0 0 1 .094.028c.028.012.055.03.08.053a.944.944 0 0 1 .088.094l2.426 3.063a4.25 4.25 0 0 1-.032-.546v-2.699h1.043Zm5.89 2.548c0 .369-.064.712-.193 1.029a2.476 2.476 0 0 1-.535.83c-.231.233-.51.416-.837.549-.324.134-.684.2-1.081.2-.397 0-.758-.066-1.085-.2a2.515 2.515 0 0 1-.84-.549 2.52 2.52 0 0 1-.54-.83 2.76 2.76 0 0 1-.188-1.029c0-.368.063-.711.189-1.029.128-.317.308-.592.539-.826.233-.233.513-.416.84-.549.326-.133.688-.2 1.085-.2s.757.068 1.081.203c.327.133.606.317.837.55.23.233.41.509.535.826.129.317.193.659.193 1.025Zm-1.211 0a2.19 2.19 0 0 0-.098-.679 1.422 1.422 0 0 0-.284-.514 1.203 1.203 0 0 0-.448-.322 1.542 1.542 0 0 0-.605-.112 1.58 1.58 0 0 0-.613.112 1.235 1.235 0 0 0-.451.322c-.121.14-.215.311-.28.514a2.19 2.19 0 0 0-.098.679c0 .255.033.483.098.686.065.201.159.371.28.511.123.14.274.248.451.322.18.073.384.109.613.109.226 0 .428-.036.605-.109.178-.074.327-.182.448-.322.124-.14.219-.31.284-.511.065-.203.098-.431.098-.686Z" fill="#B4B4B4"/><rect x="1" y="110" width="48" height="7" rx="1" fill="#7432FF"/><rect x="1" y="110" width="48" height="7" rx="1" stroke="#7432FF"/><path d="M7.726 111.4v5.1H6.684v-2.933c0-.068 0-.141.003-.221.005-.079.012-.159.021-.241l-1.354 2.621a.44.44 0 0 1-.413.249h-.162a.479.479 0 0 1-.244-.063.448.448 0 0 1-.168-.186l-1.355-2.628.018.248c.004.08.007.153.007.221v2.933H1.994v-5.1h.903c.05 0 .095.002.133.004a.33.33 0 0 1 .105.021.21.21 0 0 1 .08.056c.026.023.05.057.074.101l1.312 2.587a6.494 6.494 0 0 1 .259.57 3.984 3.984 0 0 1 .262-.581l1.31-2.576a.418.418 0 0 1 .07-.101.241.241 0 0 1 .083-.056.321.321 0 0 1 .102-.021c.04-.002.085-.004.136-.004h.903Zm5.887 2.548c0 .369-.064.712-.192 1.029a2.476 2.476 0 0 1-.536.83c-.23.233-.51.416-.836.549a2.81 2.81 0 0 1-1.082.2c-.396 0-.758-.066-1.085-.2a2.515 2.515 0 0 1-.84-.549 2.52 2.52 0 0 1-.539-.83 2.76 2.76 0 0 1-.189-1.029c0-.368.063-.711.19-1.029.128-.317.307-.592.538-.826.234-.233.514-.416.84-.549.327-.133.689-.2 1.085-.2.397 0 .757.068 1.082.203.326.133.605.317.836.55.231.233.41.509.536.826.128.317.192.659.192 1.025Zm-1.21 0a2.17 2.17 0 0 0-.099-.679 1.422 1.422 0 0 0-.283-.514 1.202 1.202 0 0 0-.448-.322 1.542 1.542 0 0 0-.606-.112c-.228 0-.433.037-.612.112a1.235 1.235 0 0 0-.452.322c-.121.14-.214.311-.28.514a2.19 2.19 0 0 0-.098.679c0 .255.033.483.098.686.066.201.159.371.28.511.124.14.274.248.452.322.18.073.384.109.612.109.227 0 .428-.036.606-.109a1.2 1.2 0 0 0 .448-.322c.123-.14.218-.31.283-.511a2.23 2.23 0 0 0 .098-.686Zm6.253-2.548v5.1h-.616a.568.568 0 0 1-.23-.042.593.593 0 0 1-.183-.154l-2.404-3.042c.01.091.015.18.017.266.005.084.007.164.007.238v2.734h-1.043v-5.1h.623c.052 0 .095.003.13.007a.307.307 0 0 1 .094.028c.028.012.055.03.08.053a.944.944 0 0 1 .088.094l2.426 3.063a4.25 4.25 0 0 1-.032-.546V111.4h1.043Zm5.89 2.548c0 .369-.064.712-.193 1.029a2.476 2.476 0 0 1-.535.83c-.231.233-.51.416-.837.549-.324.134-.684.2-1.081.2-.397 0-.758-.066-1.085-.2a2.515 2.515 0 0 1-.84-.549 2.52 2.52 0 0 1-.54-.83 2.76 2.76 0 0 1-.188-1.029c0-.368.063-.711.189-1.029.128-.317.308-.592.539-.826.233-.233.513-.416.84-.549.326-.133.688-.2 1.085-.2s.757.068 1.081.203c.327.133.606.317.837.55.23.233.41.509.535.826.129.317.193.659.193 1.025Zm-1.211 0a2.19 2.19 0 0 0-.098-.679 1.422 1.422 0 0 0-.284-.514 1.203 1.203 0 0 0-.448-.322 1.542 1.542 0 0 0-.605-.112 1.58 1.58 0 0 0-.613.112 1.235 1.235 0 0 0-.451.322c-.121.14-.215.311-.28.514a2.19 2.19 0 0 0-.098.679c0 .255.033.483.098.686.065.201.159.371.28.511.123.14.274.248.451.322.18.073.384.109.613.109.226 0 .428-.036.605-.109.178-.074.327-.182.448-.322.124-.14.219-.31.284-.511.065-.203.098-.431.098-.686Zm6.135-1.512a.43.43 0 0 1-.112.126.239.239 0 0 1-.147.042.38.38 0 0 1-.175-.049 6.813 6.813 0 0 0-.21-.115 1.601 1.601 0 0 0-.266-.112 1.038 1.038 0 0 0-.343-.053c-.222 0-.388.048-.497.144a.478.478 0 0 0-.161.381c0 .103.032.188.098.256.065.068.15.126.255.175.107.049.229.094.364.136.138.04.278.086.42.137.142.049.281.107.417.175.137.068.259.154.364.259.107.105.193.233.259.385.065.149.098.33.098.542 0 .236-.041.457-.123.662a1.559 1.559 0 0 1-.93.899c-.227.087-.485.13-.774.13-.16 0-.321-.016-.487-.049a2.788 2.788 0 0 1-.91-.35 1.871 1.871 0 0 1-.353-.273l.35-.553a.338.338 0 0 1 .108-.098.287.287 0 0 1 .15-.042c.07 0 .14.022.21.066l.242.147c.091.054.195.103.312.147.116.045.254.067.413.067.214 0 .381-.047.5-.14.12-.096.179-.246.179-.452a.425.425 0 0 0-.098-.29.75.75 0 0 0-.26-.186 2.271 2.271 0 0 0-.36-.129 11.047 11.047 0 0 1-.416-.123 3.18 3.18 0 0 1-.417-.168 1.382 1.382 0 0 1-.364-.262 1.272 1.272 0 0 1-.255-.406 1.626 1.626 0 0 1-.098-.602 1.455 1.455 0 0 1 .455-1.047 1.65 1.65 0 0 1 .55-.339c.216-.086.465-.13.745-.13.156 0 .308.013.455.039.149.023.29.059.423.108.133.047.257.104.371.172.117.065.22.14.312.224l-.294.549Zm4.618-.098h-1.435v4.162H31.47v-4.162h-1.435v-.938h4.053v.938Z" fill="#fff"/><path d="M7.726 119.15v5.1H6.684v-2.933c0-.068 0-.141.003-.221.005-.079.012-.159.021-.241l-1.354 2.621a.44.44 0 0 1-.413.249h-.162a.479.479 0 0 1-.244-.063.448.448 0 0 1-.168-.186l-1.355-2.628.018.248c.004.08.007.153.007.221v2.933H1.994v-5.1h.903c.05 0 .095.002.133.004a.33.33 0 0 1 .105.021.21.21 0 0 1 .08.056c.026.023.05.057.074.101l1.312 2.587a6.494 6.494 0 0 1 .259.57 3.984 3.984 0 0 1 .262-.581l1.31-2.576a.418.418 0 0 1 .07-.101.241.241 0 0 1 .083-.056.321.321 0 0 1 .102-.021c.04-.002.085-.004.136-.004h.903Zm5.887 2.548c0 .369-.064.712-.192 1.029a2.476 2.476 0 0 1-.536.83c-.23.233-.51.416-.836.549a2.81 2.81 0 0 1-1.082.2c-.396 0-.758-.066-1.085-.2a2.515 2.515 0 0 1-.84-.549 2.52 2.52 0 0 1-.539-.83 2.76 2.76 0 0 1-.189-1.029c0-.368.063-.711.19-1.029.128-.317.307-.592.538-.826.234-.233.514-.416.84-.549.327-.133.689-.2 1.085-.2.397 0 .757.068 1.082.203.326.133.605.317.836.55.231.233.41.509.536.826.128.317.192.659.192 1.025Zm-1.21 0a2.17 2.17 0 0 0-.099-.679 1.422 1.422 0 0 0-.283-.514 1.202 1.202 0 0 0-.448-.322 1.542 1.542 0 0 0-.606-.112c-.228 0-.433.037-.612.112a1.235 1.235 0 0 0-.452.322c-.121.14-.214.311-.28.514a2.19 2.19 0 0 0-.098.679c0 .255.033.483.098.686.066.201.159.371.28.511.124.14.274.248.452.322.18.073.384.109.612.109.227 0 .428-.036.606-.109a1.2 1.2 0 0 0 .448-.322c.123-.14.218-.31.283-.511a2.23 2.23 0 0 0 .098-.686Zm6.253-2.548v5.1h-.616a.568.568 0 0 1-.23-.042.593.593 0 0 1-.183-.154l-2.404-3.042c.01.091.015.18.017.266.005.084.007.164.007.238v2.734h-1.043v-5.1h.623c.052 0 .095.003.13.007a.307.307 0 0 1 .094.028c.028.012.055.03.08.053a.944.944 0 0 1 .088.094l2.426 3.063a4.25 4.25 0 0 1-.032-.546v-2.699h1.043Zm5.89 2.548c0 .369-.064.712-.193 1.029a2.476 2.476 0 0 1-.535.83c-.231.233-.51.416-.837.549-.324.134-.684.2-1.081.2-.397 0-.758-.066-1.085-.2a2.515 2.515 0 0 1-.84-.549 2.52 2.52 0 0 1-.54-.83 2.76 2.76 0 0 1-.188-1.029c0-.368.063-.711.189-1.029.128-.317.308-.592.539-.826.233-.233.513-.416.84-.549.326-.133.688-.2 1.085-.2s.757.068 1.081.203c.327.133.606.317.837.55.23.233.41.509.535.826.129.317.193.659.193 1.025Zm-1.211 0a2.19 2.19 0 0 0-.098-.679 1.422 1.422 0 0 0-.284-.514 1.203 1.203 0 0 0-.448-.322 1.542 1.542 0 0 0-.605-.112 1.58 1.58 0 0 0-.613.112 1.235 1.235 0 0 0-.451.322c-.121.14-.215.311-.28.514a2.19 2.19 0 0 0-.098.679c0 .255.033.483.098.686.065.201.159.371.28.511.123.14.274.248.451.322.18.073.384.109.613.109.226 0 .428-.036.605-.109.178-.074.327-.182.448-.322.124-.14.219-.31.284-.511.065-.203.098-.431.098-.686Zm4.507-1.638v1.292h1.743v.913h-1.743v1.985h-1.19v-5.1h3.283v.91h-2.093Zm4.469 1.593c.308 0 .53-.074.665-.221.135-.147.203-.352.203-.616a.922.922 0 0 0-.053-.318.683.683 0 0 0-.43-.406 1.185 1.185 0 0 0-.385-.056h-.616v1.617h.616Zm0-2.503c.36 0 .667.044.924.13.259.084.471.201.637.35.168.149.292.325.37.528.08.203.12.423.12.658 0 .255-.04.488-.123.7a1.394 1.394 0 0 1-.374.546 1.773 1.773 0 0 1-.64.357 2.948 2.948 0 0 1-.914.126h-.616v1.705h-1.183v-5.1h1.799ZM7.726 126.9v5.1H6.684v-2.933c0-.068 0-.141.003-.221.005-.079.012-.159.021-.241l-1.354 2.621a.44.44 0 0 1-.413.249h-.162a.479.479 0 0 1-.244-.063.448.448 0 0 1-.168-.186l-1.355-2.628.018.248c.004.08.007.153.007.221V132H1.994v-5.1h.903c.05 0 .095.002.133.004a.33.33 0 0 1 .105.021.21.21 0 0 1 .08.056c.026.023.05.057.074.101l1.312 2.587a6.494 6.494 0 0 1 .259.57 3.984 3.984 0 0 1 .262-.581l1.31-2.576a.418.418 0 0 1 .07-.101.241.241 0 0 1 .083-.056.321.321 0 0 1 .102-.021c.04-.002.085-.004.136-.004h.903Zm5.887 2.548c0 .369-.064.712-.192 1.029a2.476 2.476 0 0 1-.536.83c-.23.233-.51.416-.836.549a2.81 2.81 0 0 1-1.082.2c-.396 0-.758-.066-1.085-.2a2.515 2.515 0 0 1-.84-.549 2.52 2.52 0 0 1-.539-.83 2.76 2.76 0 0 1-.189-1.029c0-.368.063-.711.19-1.029.128-.317.307-.592.538-.826.234-.233.514-.416.84-.549.327-.133.689-.2 1.085-.2.397 0 .757.068 1.082.203.326.133.605.317.836.55.231.233.41.509.536.826.128.317.192.659.192 1.025Zm-1.21 0a2.17 2.17 0 0 0-.099-.679 1.422 1.422 0 0 0-.283-.514 1.202 1.202 0 0 0-.448-.322 1.542 1.542 0 0 0-.606-.112c-.228 0-.433.037-.612.112a1.235 1.235 0 0 0-.452.322c-.121.14-.214.311-.28.514a2.19 2.19 0 0 0-.098.679c0 .255.033.483.098.686.066.201.159.371.28.511.124.14.274.248.452.322.18.073.384.109.612.109.227 0 .428-.036.606-.109a1.2 1.2 0 0 0 .448-.322c.123-.14.218-.31.283-.511a2.23 2.23 0 0 0 .098-.686Zm6.253-2.548v5.1h-.616a.568.568 0 0 1-.23-.042.593.593 0 0 1-.183-.154l-2.404-3.042c.01.091.015.18.017.266.005.084.007.164.007.238V132h-1.043v-5.1h.623c.052 0 .095.003.13.007a.307.307 0 0 1 .094.028c.028.012.055.03.08.053a.944.944 0 0 1 .088.094l2.426 3.063a4.25 4.25 0 0 1-.032-.546V126.9h1.043Zm5.89 2.548c0 .369-.064.712-.193 1.029a2.476 2.476 0 0 1-.535.83c-.231.233-.51.416-.837.549-.324.134-.684.2-1.081.2-.397 0-.758-.066-1.085-.2a2.515 2.515 0 0 1-.84-.549 2.52 2.52 0 0 1-.54-.83 2.76 2.76 0 0 1-.188-1.029c0-.368.063-.711.189-1.029.128-.317.308-.592.539-.826.233-.233.513-.416.84-.549.326-.133.688-.2 1.085-.2s.757.068 1.081.203c.327.133.606.317.837.55.23.233.41.509.535.826.129.317.193.659.193 1.025Zm-1.211 0a2.19 2.19 0 0 0-.098-.679 1.422 1.422 0 0 0-.284-.514 1.203 1.203 0 0 0-.448-.322 1.542 1.542 0 0 0-.605-.112 1.58 1.58 0 0 0-.613.112 1.235 1.235 0 0 0-.451.322c-.121.14-.215.311-.28.514a2.19 2.19 0 0 0-.098.679c0 .255.033.483.098.686.065.201.159.371.28.511.123.14.274.248.451.322.18.073.384.109.613.109.226 0 .428-.036.605-.109.178-.074.327-.182.448-.322.124-.14.219-.31.284-.511.065-.203.098-.431.098-.686Zm6.135-1.512a.43.43 0 0 1-.112.126.239.239 0 0 1-.147.042.38.38 0 0 1-.175-.049 6.813 6.813 0 0 0-.21-.115 1.601 1.601 0 0 0-.266-.112 1.038 1.038 0 0 0-.343-.053c-.222 0-.388.048-.497.144a.478.478 0 0 0-.161.381c0 .103.032.188.098.256.065.068.15.126.255.175.107.049.229.094.364.136.138.04.278.086.42.137.142.049.281.107.417.175.137.068.259.154.364.259.107.105.193.233.259.385.065.149.098.33.098.542 0 .236-.041.457-.123.662a1.559 1.559 0 0 1-.93.899c-.227.087-.485.13-.774.13-.16 0-.321-.016-.487-.049a2.788 2.788 0 0 1-.91-.35 1.871 1.871 0 0 1-.353-.273l.35-.553a.338.338 0 0 1 .108-.098.287.287 0 0 1 .15-.042c.07 0 .14.022.21.066l.242.147c.091.054.195.103.312.147.116.045.254.067.413.067.214 0 .381-.047.5-.14.12-.096.179-.246.179-.452a.425.425 0 0 0-.098-.29.75.75 0 0 0-.26-.186 2.271 2.271 0 0 0-.36-.129 11.047 11.047 0 0 1-.416-.123 3.18 3.18 0 0 1-.417-.168 1.382 1.382 0 0 1-.364-.262 1.272 1.272 0 0 1-.255-.406 1.626 1.626 0 0 1-.098-.602 1.455 1.455 0 0 1 .455-1.047 1.65 1.65 0 0 1 .55-.339c.216-.086.465-.13.745-.13.156 0 .308.013.455.039.149.023.29.059.423.108.133.047.257.104.371.172.117.065.22.14.312.224l-.294.549Zm4.618-.098h-1.435V132H31.47v-4.162h-1.435v-.938h4.053v.938Zm3.765 2.198h-1.295v1.393h-.882v-1.393h-1.288v-.777h1.288v-1.386h.882v1.386h1.295v.777Zm1.876-2.226v1.292h1.743v.913H39.73V132h-1.19v-5.1h3.283v.91H39.73Zm4.47 1.593c.307 0 .529-.074.664-.221.135-.147.203-.352.203-.616a.922.922 0 0 0-.052-.318.683.683 0 0 0-.43-.406 1.185 1.185 0 0 0-.386-.056h-.616v1.617h.616Zm0-2.503c.358 0 .666.044.923.13.26.084.471.201.637.35.168.149.292.325.371.528.08.203.12.423.12.658 0 .255-.042.488-.123.7a1.395 1.395 0 0 1-.375.546 1.773 1.773 0 0 1-.64.357 2.949 2.949 0 0 1-.914.126h-.616V132H42.4v-5.1h1.8ZM5.066 138.805v.945H1.994v-5.1h1.182v4.155h1.89Zm3.195-1.005-.472-1.396a6.353 6.353 0 0 1-.112-.312c-.04-.121-.08-.252-.12-.392a5.381 5.381 0 0 1-.223.711l-.47 1.389h1.397Zm1.88 1.95h-.917a.405.405 0 0 1-.249-.07.469.469 0 0 1-.143-.186l-.301-.889H6.59l-.3.889a.432.432 0 0 1-.14.179.386.386 0 0 1-.245.077h-.924l1.974-5.1h1.21l1.975 5.1Zm3.462-4.162h-1.435v4.162h-1.183v-4.162H9.55v-.938h4.053v.938Zm3.817 2.842c.028 0 .056.006.084.018a.21.21 0 0 1 .08.052l.47.494a1.965 1.965 0 0 1-.774.609c-.308.135-.673.203-1.095.203-.388 0-.735-.065-1.043-.196a2.307 2.307 0 0 1-.78-.546 2.441 2.441 0 0 1-.49-.826 3.067 3.067 0 0 1-.172-1.04c0-.38.062-.729.185-1.046a2.343 2.343 0 0 1 1.327-1.365 2.7 2.7 0 0 1 1.032-.193c.192 0 .371.018.54.053a2.46 2.46 0 0 1 .881.353c.124.084.233.175.33.273l-.4.536a.548.548 0 0 1-.09.091.242.242 0 0 1-.148.038.258.258 0 0 1-.119-.028 1.307 1.307 0 0 1-.119-.066 3.777 3.777 0 0 0-.14-.088 1.333 1.333 0 0 0-.42-.157 1.596 1.596 0 0 0-.322-.028 1.192 1.192 0 0 0-.959.427 1.484 1.484 0 0 0-.273.511 2.3 2.3 0 0 0-.094.689c0 .262.035.494.105.697.072.203.169.374.29.514a1.252 1.252 0 0 0 .956.424c.107 0 .205-.005.294-.014a1.52 1.52 0 0 0 .248-.053 1.083 1.083 0 0 0 .424-.255.378.378 0 0 1 .09-.056.23.23 0 0 1 .102-.025Zm5.497-3.78v5.1h-1.19v-2.156h-2.072v2.156h-1.19v-5.1h1.19v2.132h2.072v-2.132h1.19ZM3.792 145.403c.309 0 .53-.074.665-.221.136-.147.204-.352.204-.616a.922.922 0 0 0-.053-.318.683.683 0 0 0-.43-.406 1.185 1.185 0 0 0-.385-.056h-.617v1.617h.616Zm0-2.503c.36 0 .668.044.925.13.259.084.47.201.637.35.167.149.291.325.37.528.08.203.12.423.12.658 0 .255-.041.488-.123.7a1.395 1.395 0 0 1-.375.546 1.773 1.773 0 0 1-.64.357 2.949 2.949 0 0 1-.914.126h-.615V148H1.993v-5.1h1.798Zm7.552 2.548c0 .369-.064.712-.193 1.029a2.476 2.476 0 0 1-.535.83c-.231.233-.51.416-.837.549-.324.134-.685.2-1.081.2a2.83 2.83 0 0 1-1.085-.2 2.515 2.515 0 0 1-.84-.549 2.52 2.52 0 0 1-.54-.83 2.76 2.76 0 0 1-.188-1.029c0-.368.063-.711.189-1.029.128-.317.308-.592.539-.826.233-.233.513-.416.84-.549.326-.133.688-.2 1.085-.2.396 0 .757.068 1.081.203.327.133.606.317.837.55.23.233.41.509.535.826.129.317.193.659.193 1.025Zm-1.211 0a2.19 2.19 0 0 0-.098-.679 1.423 1.423 0 0 0-.284-.514 1.203 1.203 0 0 0-.448-.322 1.542 1.542 0 0 0-.605-.112 1.58 1.58 0 0 0-.613.112 1.235 1.235 0 0 0-.451.322c-.122.14-.215.311-.28.514a2.19 2.19 0 0 0-.098.679c0 .255.032.483.098.686.065.201.158.371.28.511.123.14.274.248.451.322.18.073.384.109.613.109.226 0 .428-.036.605-.109.178-.074.327-.182.448-.322.124-.14.218-.31.284-.511.065-.203.098-.431.098-.686Zm4.875 1.607V148h-3.073v-5.1h1.183v4.155h1.89Zm2.273-.994V148h-1.183v-1.939L14.25 142.9h1.043c.102 0 .183.025.241.074.06.047.111.107.15.182l.722 1.484c.06.117.115.226.164.329.05.1.092.199.13.297a4.171 4.171 0 0 1 .28-.626l.714-1.484a.664.664 0 0 1 .06-.091.392.392 0 0 1 .189-.14.38.38 0 0 1 .136-.025h1.05l-1.848 3.161Zm-9.555 4.589v5.1H6.684v-2.933c0-.068 0-.141.003-.221.005-.079.012-.159.021-.241l-1.354 2.621a.44.44 0 0 1-.413.249h-.162a.479.479 0 0 1-.244-.063.448.448 0 0 1-.168-.186l-1.355-2.628.018.248c.004.08.007.153.007.221v2.933H1.994v-5.1h.903c.05 0 .095.002.133.004a.33.33 0 0 1 .105.021.21.21 0 0 1 .08.056c.026.023.05.057.074.101l1.312 2.587a6.494 6.494 0 0 1 .259.57 3.984 3.984 0 0 1 .262-.581l1.31-2.576a.418.418 0 0 1 .07-.101.241.241 0 0 1 .083-.056.321.321 0 0 1 .102-.021c.04-.002.085-.004.136-.004h.903Zm5.887 2.548c0 .369-.064.712-.192 1.029a2.476 2.476 0 0 1-.536.83c-.23.233-.51.416-.836.549a2.81 2.81 0 0 1-1.082.2c-.396 0-.758-.066-1.085-.2a2.515 2.515 0 0 1-.84-.549 2.52 2.52 0 0 1-.539-.83 2.76 2.76 0 0 1-.189-1.029c0-.368.063-.711.19-1.029.128-.317.307-.592.538-.826.234-.233.514-.416.84-.549.327-.133.689-.2 1.085-.2.397 0 .757.068 1.082.203.326.133.605.317.836.55.231.233.41.509.536.826.128.317.192.659.192 1.025Zm-1.21 0a2.17 2.17 0 0 0-.099-.679 1.422 1.422 0 0 0-.283-.514 1.202 1.202 0 0 0-.448-.322 1.542 1.542 0 0 0-.606-.112c-.228 0-.433.037-.612.112a1.235 1.235 0 0 0-.452.322c-.121.14-.214.311-.28.514a2.19 2.19 0 0 0-.098.679c0 .255.033.483.098.686.066.201.159.371.28.511.124.14.274.248.452.322.18.073.384.109.612.109.227 0 .428-.036.606-.109a1.2 1.2 0 0 0 .448-.322c.123-.14.218-.31.283-.511a2.23 2.23 0 0 0 .098-.686Zm6.253-2.548v5.1h-.616a.568.568 0 0 1-.23-.042.593.593 0 0 1-.183-.154l-2.404-3.042c.01.091.015.18.017.266.005.084.007.164.007.238v2.734h-1.043v-5.1h.623c.052 0 .095.003.13.007a.307.307 0 0 1 .094.028c.028.012.055.03.08.053a.944.944 0 0 1 .088.094l2.426 3.063a4.25 4.25 0 0 1-.032-.546v-2.699h1.043Zm5.89 2.548c0 .369-.064.712-.193 1.029a2.476 2.476 0 0 1-.535.83c-.231.233-.51.416-.837.549-.324.134-.684.2-1.081.2-.397 0-.758-.066-1.085-.2a2.515 2.515 0 0 1-.84-.549 2.52 2.52 0 0 1-.54-.83 2.76 2.76 0 0 1-.188-1.029c0-.368.063-.711.189-1.029.128-.317.308-.592.539-.826.233-.233.513-.416.84-.549.326-.133.688-.2 1.085-.2s.757.068 1.081.203c.327.133.606.317.837.55.23.233.41.509.535.826.129.317.193.659.193 1.025Zm-1.211 0a2.19 2.19 0 0 0-.098-.679 1.422 1.422 0 0 0-.284-.514 1.203 1.203 0 0 0-.448-.322 1.542 1.542 0 0 0-.605-.112 1.58 1.58 0 0 0-.613.112 1.235 1.235 0 0 0-.451.322c-.121.14-.215.311-.28.514a2.19 2.19 0 0 0-.098.679c0 .255.033.483.098.686.065.201.159.371.28.511.123.14.274.248.451.322.18.073.384.109.613.109.226 0 .428-.036.605-.109.178-.074.327-.182.448-.322.124-.14.219-.31.284-.511.065-.203.098-.431.098-.686ZM7.726 158.4v5.1H6.684v-2.933c0-.068 0-.141.003-.221.005-.079.012-.159.021-.241l-1.354 2.621a.44.44 0 0 1-.413.249h-.162a.479.479 0 0 1-.244-.063.448.448 0 0 1-.168-.186l-1.355-2.628.018.248c.004.08.007.153.007.221v2.933H1.994v-5.1h.903c.05 0 .095.002.133.004a.33.33 0 0 1 .105.021.21.21 0 0 1 .08.056c.026.023.05.057.074.101l1.312 2.587a6.494 6.494 0 0 1 .259.57 3.984 3.984 0 0 1 .262-.581l1.31-2.576a.418.418 0 0 1 .07-.101.241.241 0 0 1 .083-.056.321.321 0 0 1 .102-.021c.04-.002.085-.004.136-.004h.903Zm5.887 2.548c0 .369-.064.712-.192 1.029a2.476 2.476 0 0 1-.536.83c-.23.233-.51.416-.836.549a2.81 2.81 0 0 1-1.082.2c-.396 0-.758-.066-1.085-.2a2.515 2.515 0 0 1-.84-.549 2.52 2.52 0 0 1-.539-.83 2.76 2.76 0 0 1-.189-1.029c0-.368.063-.711.19-1.029.128-.317.307-.592.538-.826.234-.233.514-.416.84-.549.327-.133.689-.2 1.085-.2.397 0 .757.068 1.082.203.326.133.605.317.836.55.231.233.41.509.536.826.128.317.192.659.192 1.025Zm-1.21 0a2.17 2.17 0 0 0-.099-.679 1.422 1.422 0 0 0-.283-.514 1.202 1.202 0 0 0-.448-.322 1.542 1.542 0 0 0-.606-.112c-.228 0-.433.037-.612.112a1.235 1.235 0 0 0-.452.322c-.121.14-.214.311-.28.514a2.19 2.19 0 0 0-.098.679c0 .255.033.483.098.686.066.201.159.371.28.511.124.14.274.248.452.322.18.073.384.109.612.109.227 0 .428-.036.606-.109a1.2 1.2 0 0 0 .448-.322c.123-.14.218-.31.283-.511a2.23 2.23 0 0 0 .098-.686Zm6.253-2.548v5.1h-.616a.568.568 0 0 1-.23-.042.593.593 0 0 1-.183-.154l-2.404-3.042c.01.091.015.18.017.266.005.084.007.164.007.238v2.734h-1.043v-5.1h.623c.052 0 .095.003.13.007a.307.307 0 0 1 .094.028c.028.012.055.03.08.053a.944.944 0 0 1 .088.094l2.426 3.063a4.25 4.25 0 0 1-.032-.546V158.4h1.043Zm5.89 2.548c0 .369-.064.712-.193 1.029a2.476 2.476 0 0 1-.535.83c-.231.233-.51.416-.837.549-.324.134-.684.2-1.081.2-.397 0-.758-.066-1.085-.2a2.515 2.515 0 0 1-.84-.549 2.52 2.52 0 0 1-.54-.83 2.76 2.76 0 0 1-.188-1.029c0-.368.063-.711.189-1.029.128-.317.308-.592.539-.826.233-.233.513-.416.84-.549.326-.133.688-.2 1.085-.2s.757.068 1.081.203c.327.133.606.317.837.55.23.233.41.509.535.826.129.317.193.659.193 1.025Zm-1.211 0a2.19 2.19 0 0 0-.098-.679 1.422 1.422 0 0 0-.284-.514 1.203 1.203 0 0 0-.448-.322 1.542 1.542 0 0 0-.605-.112 1.58 1.58 0 0 0-.613.112 1.235 1.235 0 0 0-.451.322c-.121.14-.215.311-.28.514a2.19 2.19 0 0 0-.098.679c0 .255.033.483.098.686.065.201.159.371.28.511.123.14.274.248.451.322.18.073.384.109.613.109.226 0 .428-.036.605-.109.178-.074.327-.182.448-.322.124-.14.219-.31.284-.511.065-.203.098-.431.098-.686Zm6.135-1.512a.43.43 0 0 1-.112.126.239.239 0 0 1-.147.042.38.38 0 0 1-.175-.049 6.813 6.813 0 0 0-.21-.115 1.601 1.601 0 0 0-.266-.112 1.038 1.038 0 0 0-.343-.053c-.222 0-.388.048-.497.144a.478.478 0 0 0-.161.381c0 .103.032.188.098.256.065.068.15.126.255.175.107.049.229.094.364.136.138.04.278.086.42.137.142.049.281.107.417.175.137.068.259.154.364.259.107.105.193.233.259.385.065.149.098.33.098.542 0 .236-.041.457-.123.662a1.559 1.559 0 0 1-.93.899c-.227.087-.485.13-.774.13-.16 0-.321-.016-.487-.049a2.788 2.788 0 0 1-.91-.35 1.871 1.871 0 0 1-.353-.273l.35-.553a.338.338 0 0 1 .108-.098.287.287 0 0 1 .15-.042c.07 0 .14.022.21.066l.242.147c.091.054.195.103.312.147.116.045.254.067.413.067.214 0 .381-.047.5-.14.12-.096.179-.246.179-.452a.425.425 0 0 0-.098-.29.75.75 0 0 0-.26-.186 2.271 2.271 0 0 0-.36-.129 11.047 11.047 0 0 1-.416-.123 3.18 3.18 0 0 1-.417-.168 1.382 1.382 0 0 1-.364-.262 1.272 1.272 0 0 1-.255-.406 1.626 1.626 0 0 1-.098-.602 1.455 1.455 0 0 1 .455-1.047 1.65 1.65 0 0 1 .55-.339c.216-.086.465-.13.745-.13.156 0 .308.013.455.039.149.023.29.059.423.108.133.047.257.104.371.172.117.065.22.14.312.224l-.294.549Zm4.618-.098h-1.435v4.162H31.47v-4.162h-1.435v-.938h4.053v.938Z" fill="#B4B4B4"/><rect x="1" y="164.75" width="48" height="7" rx="1" fill="#7432FF"/><rect x="1" y="164.75" width="48" height="7" rx="1" stroke="#7432FF"/><path d="M7.726 166.15v5.1H6.684v-2.933c0-.068 0-.141.003-.221.005-.079.012-.159.021-.241l-1.354 2.621a.44.44 0 0 1-.413.249h-.162a.479.479 0 0 1-.244-.063.448.448 0 0 1-.168-.186l-1.355-2.628.018.248c.004.08.007.153.007.221v2.933H1.994v-5.1h.903c.05 0 .095.002.133.004a.33.33 0 0 1 .105.021.21.21 0 0 1 .08.056c.026.023.05.057.074.101l1.312 2.587a6.494 6.494 0 0 1 .259.57 3.984 3.984 0 0 1 .262-.581l1.31-2.576a.418.418 0 0 1 .07-.101.241.241 0 0 1 .083-.056.321.321 0 0 1 .102-.021c.04-.002.085-.004.136-.004h.903Zm5.887 2.548c0 .369-.064.712-.192 1.029a2.476 2.476 0 0 1-.536.83c-.23.233-.51.416-.836.549a2.81 2.81 0 0 1-1.082.2c-.396 0-.758-.066-1.085-.2a2.515 2.515 0 0 1-.84-.549 2.52 2.52 0 0 1-.539-.83 2.76 2.76 0 0 1-.189-1.029c0-.368.063-.711.19-1.029.128-.317.307-.592.538-.826.234-.233.514-.416.84-.549.327-.133.689-.2 1.085-.2.397 0 .757.068 1.082.203.326.133.605.317.836.55.231.233.41.509.536.826.128.317.192.659.192 1.025Zm-1.21 0a2.17 2.17 0 0 0-.099-.679 1.422 1.422 0 0 0-.283-.514 1.202 1.202 0 0 0-.448-.322 1.542 1.542 0 0 0-.606-.112c-.228 0-.433.037-.612.112a1.235 1.235 0 0 0-.452.322c-.121.14-.214.311-.28.514a2.19 2.19 0 0 0-.098.679c0 .255.033.483.098.686.066.201.159.371.28.511.124.14.274.248.452.322.18.073.384.109.612.109.227 0 .428-.036.606-.109a1.2 1.2 0 0 0 .448-.322c.123-.14.218-.31.283-.511a2.23 2.23 0 0 0 .098-.686Zm6.253-2.548v5.1h-.616a.568.568 0 0 1-.23-.042.593.593 0 0 1-.183-.154l-2.404-3.042c.01.091.015.18.017.266.005.084.007.164.007.238v2.734h-1.043v-5.1h.623c.052 0 .095.003.13.007a.307.307 0 0 1 .094.028c.028.012.055.03.08.053a.944.944 0 0 1 .088.094l2.426 3.063a4.25 4.25 0 0 1-.032-.546v-2.699h1.043Zm5.89 2.548c0 .369-.064.712-.193 1.029a2.476 2.476 0 0 1-.535.83c-.231.233-.51.416-.837.549-.324.134-.684.2-1.081.2-.397 0-.758-.066-1.085-.2a2.515 2.515 0 0 1-.84-.549 2.52 2.52 0 0 1-.54-.83 2.76 2.76 0 0 1-.188-1.029c0-.368.063-.711.189-1.029.128-.317.308-.592.539-.826.233-.233.513-.416.84-.549.326-.133.688-.2 1.085-.2s.757.068 1.081.203c.327.133.606.317.837.55.23.233.41.509.535.826.129.317.193.659.193 1.025Zm-1.211 0a2.19 2.19 0 0 0-.098-.679 1.422 1.422 0 0 0-.284-.514 1.203 1.203 0 0 0-.448-.322 1.542 1.542 0 0 0-.605-.112 1.58 1.58 0 0 0-.613.112 1.235 1.235 0 0 0-.451.322c-.121.14-.215.311-.28.514a2.19 2.19 0 0 0-.098.679c0 .255.033.483.098.686.065.201.159.371.28.511.123.14.274.248.451.322.18.073.384.109.613.109.226 0 .428-.036.605-.109.178-.074.327-.182.448-.322.124-.14.219-.31.284-.511.065-.203.098-.431.098-.686Zm4.507-1.638v1.292h1.743v.913h-1.743v1.985h-1.19v-5.1h3.283v.91h-2.093Zm4.469 1.593c.308 0 .53-.074.665-.221.135-.147.203-.352.203-.616a.922.922 0 0 0-.053-.318.683.683 0 0 0-.43-.406 1.185 1.185 0 0 0-.385-.056h-.616v1.617h.616Zm0-2.503c.36 0 .667.044.924.13.259.084.471.201.637.35.168.149.292.325.37.528.08.203.12.423.12.658 0 .255-.04.488-.123.7a1.394 1.394 0 0 1-.374.546 1.773 1.773 0 0 1-.64.357 2.948 2.948 0 0 1-.914.126h-.616v1.705h-1.183v-5.1h1.799Z" fill="#fff"/><path d="M7.726 173.9v5.1H6.684v-2.933c0-.068 0-.141.003-.221.005-.079.012-.159.021-.241l-1.354 2.621a.44.44 0 0 1-.413.249h-.162a.479.479 0 0 1-.244-.063.448.448 0 0 1-.168-.186l-1.355-2.628.018.248c.004.08.007.153.007.221V179H1.994v-5.1h.903c.05 0 .095.002.133.004a.33.33 0 0 1 .105.021.21.21 0 0 1 .08.056c.026.023.05.057.074.101l1.312 2.587a6.494 6.494 0 0 1 .259.57 3.984 3.984 0 0 1 .262-.581l1.31-2.576a.418.418 0 0 1 .07-.101.241.241 0 0 1 .083-.056.321.321 0 0 1 .102-.021c.04-.002.085-.004.136-.004h.903Zm5.887 2.548c0 .369-.064.712-.192 1.029a2.476 2.476 0 0 1-.536.83c-.23.233-.51.416-.836.549a2.81 2.81 0 0 1-1.082.2c-.396 0-.758-.066-1.085-.2a2.515 2.515 0 0 1-.84-.549 2.52 2.52 0 0 1-.539-.83 2.76 2.76 0 0 1-.189-1.029c0-.368.063-.711.19-1.029.128-.317.307-.592.538-.826.234-.233.514-.416.84-.549.327-.133.689-.2 1.085-.2.397 0 .757.068 1.082.203.326.133.605.317.836.55.231.233.41.509.536.826.128.317.192.659.192 1.025Zm-1.21 0a2.17 2.17 0 0 0-.099-.679 1.422 1.422 0 0 0-.283-.514 1.202 1.202 0 0 0-.448-.322 1.542 1.542 0 0 0-.606-.112c-.228 0-.433.037-.612.112a1.235 1.235 0 0 0-.452.322c-.121.14-.214.311-.28.514a2.19 2.19 0 0 0-.098.679c0 .255.033.483.098.686.066.201.159.371.28.511.124.14.274.248.452.322.18.073.384.109.612.109.227 0 .428-.036.606-.109a1.2 1.2 0 0 0 .448-.322c.123-.14.218-.31.283-.511a2.23 2.23 0 0 0 .098-.686Zm6.253-2.548v5.1h-.616a.568.568 0 0 1-.23-.042.593.593 0 0 1-.183-.154l-2.404-3.042c.01.091.015.18.017.266.005.084.007.164.007.238V179h-1.043v-5.1h.623c.052 0 .095.003.13.007a.307.307 0 0 1 .094.028c.028.012.055.03.08.053a.944.944 0 0 1 .088.094l2.426 3.063a4.25 4.25 0 0 1-.032-.546V173.9h1.043Zm5.89 2.548c0 .369-.064.712-.193 1.029a2.476 2.476 0 0 1-.535.83c-.231.233-.51.416-.837.549-.324.134-.684.2-1.081.2-.397 0-.758-.066-1.085-.2a2.515 2.515 0 0 1-.84-.549 2.52 2.52 0 0 1-.54-.83 2.76 2.76 0 0 1-.188-1.029c0-.368.063-.711.189-1.029.128-.317.308-.592.539-.826.233-.233.513-.416.84-.549.326-.133.688-.2 1.085-.2s.757.068 1.081.203c.327.133.606.317.837.55.23.233.41.509.535.826.129.317.193.659.193 1.025Zm-1.211 0a2.19 2.19 0 0 0-.098-.679 1.422 1.422 0 0 0-.284-.514 1.203 1.203 0 0 0-.448-.322 1.542 1.542 0 0 0-.605-.112 1.58 1.58 0 0 0-.613.112 1.235 1.235 0 0 0-.451.322c-.121.14-.215.311-.28.514a2.19 2.19 0 0 0-.098.679c0 .255.033.483.098.686.065.201.159.371.28.511.123.14.274.248.451.322.18.073.384.109.613.109.226 0 .428-.036.605-.109.178-.074.327-.182.448-.322.124-.14.219-.31.284-.511.065-.203.098-.431.098-.686Zm6.135-1.512a.43.43 0 0 1-.112.126.239.239 0 0 1-.147.042.38.38 0 0 1-.175-.049 6.813 6.813 0 0 0-.21-.115 1.601 1.601 0 0 0-.266-.112 1.038 1.038 0 0 0-.343-.053c-.222 0-.388.048-.497.144a.478.478 0 0 0-.161.381c0 .103.032.188.098.256.065.068.15.126.255.175.107.049.229.094.364.136.138.04.278.086.42.137.142.049.281.107.417.175.137.068.259.154.364.259.107.105.193.233.259.385.065.149.098.33.098.542 0 .236-.041.457-.123.662a1.559 1.559 0 0 1-.93.899c-.227.087-.485.13-.774.13-.16 0-.321-.016-.487-.049a2.788 2.788 0 0 1-.91-.35 1.871 1.871 0 0 1-.353-.273l.35-.553a.338.338 0 0 1 .108-.098.287.287 0 0 1 .15-.042c.07 0 .14.022.21.066l.242.147c.091.054.195.103.312.147.116.045.254.067.413.067.214 0 .381-.047.5-.14.12-.096.179-.246.179-.452a.425.425 0 0 0-.098-.29.75.75 0 0 0-.26-.186 2.271 2.271 0 0 0-.36-.129 11.047 11.047 0 0 1-.416-.123 3.18 3.18 0 0 1-.417-.168 1.382 1.382 0 0 1-.364-.262 1.272 1.272 0 0 1-.255-.406 1.626 1.626 0 0 1-.098-.602 1.455 1.455 0 0 1 .455-1.047 1.65 1.65 0 0 1 .55-.339c.216-.086.465-.13.745-.13.156 0 .308.013.455.039.149.023.29.059.423.108.133.047.257.104.371.172.117.065.22.14.312.224l-.294.549Zm4.618-.098h-1.435V179H31.47v-4.162h-1.435v-.938h4.053v.938Zm3.765 2.198h-1.295v1.393h-.882v-1.393h-1.288v-.777h1.288v-1.386h.882v1.386h1.295v.777Zm1.876-2.226v1.292h1.743v.913H39.73V179h-1.19v-5.1h3.283v.91H39.73Zm4.47 1.593c.307 0 .529-.074.664-.221.135-.147.203-.352.203-.616a.922.922 0 0 0-.052-.318.683.683 0 0 0-.43-.406 1.185 1.185 0 0 0-.386-.056h-.616v1.617h.616Zm0-2.503c.358 0 .666.044.923.13.26.084.471.201.637.35.168.149.292.325.371.528.08.203.12.423.12.658 0 .255-.042.488-.123.7a1.395 1.395 0 0 1-.375.546 1.773 1.773 0 0 1-.64.357 2.949 2.949 0 0 1-.914.126h-.616V179H42.4v-5.1h1.8ZM5.066 185.805v.945H1.994v-5.1h1.182v4.155h1.89Zm3.195-1.005-.472-1.396a6.353 6.353 0 0 1-.112-.312c-.04-.121-.08-.252-.12-.392a5.381 5.381 0 0 1-.223.711l-.47 1.389h1.397Zm1.88 1.95h-.917a.405.405 0 0 1-.249-.07.469.469 0 0 1-.143-.186l-.301-.889H6.59l-.3.889a.432.432 0 0 1-.14.179.386.386 0 0 1-.245.077h-.924l1.974-5.1h1.21l1.975 5.1Zm3.462-4.162h-1.435v4.162h-1.183v-4.162H9.55v-.938h4.053v.938Zm3.817 2.842c.028 0 .056.006.084.018a.21.21 0 0 1 .08.052l.47.494a1.965 1.965 0 0 1-.774.609c-.308.135-.673.203-1.095.203-.388 0-.735-.065-1.043-.196a2.307 2.307 0 0 1-.78-.546 2.441 2.441 0 0 1-.49-.826 3.067 3.067 0 0 1-.172-1.04c0-.38.062-.729.185-1.046a2.343 2.343 0 0 1 1.327-1.365 2.7 2.7 0 0 1 1.032-.193c.192 0 .371.018.54.053a2.46 2.46 0 0 1 .881.353c.124.084.233.175.33.273l-.4.536a.548.548 0 0 1-.09.091.242.242 0 0 1-.148.038.258.258 0 0 1-.119-.028 1.307 1.307 0 0 1-.119-.066 3.777 3.777 0 0 0-.14-.088 1.333 1.333 0 0 0-.42-.157 1.596 1.596 0 0 0-.322-.028 1.192 1.192 0 0 0-.959.427 1.484 1.484 0 0 0-.273.511 2.3 2.3 0 0 0-.094.689c0 .262.035.494.105.697.072.203.169.374.29.514a1.252 1.252 0 0 0 .956.424c.107 0 .205-.005.294-.014a1.52 1.52 0 0 0 .248-.053 1.083 1.083 0 0 0 .424-.255.378.378 0 0 1 .09-.056.23.23 0 0 1 .102-.025Zm5.497-3.78v5.1h-1.19v-2.156h-2.072v2.156h-1.19v-5.1h1.19v2.132h2.072v-2.132h1.19ZM3.792 192.403c.309 0 .53-.074.665-.221.136-.147.204-.352.204-.616a.922.922 0 0 0-.053-.318.683.683 0 0 0-.43-.406 1.185 1.185 0 0 0-.385-.056h-.617v1.617h.616Zm0-2.503c.36 0 .668.044.925.13.259.084.47.201.637.35.167.149.291.325.37.528.08.203.12.423.12.658 0 .255-.041.488-.123.7a1.395 1.395 0 0 1-.375.546 1.773 1.773 0 0 1-.64.357 2.949 2.949 0 0 1-.914.126h-.615V195H1.993v-5.1h1.798Zm7.552 2.548c0 .369-.064.712-.193 1.029a2.476 2.476 0 0 1-.535.83c-.231.233-.51.416-.837.549-.324.134-.685.2-1.081.2a2.83 2.83 0 0 1-1.085-.2 2.515 2.515 0 0 1-.84-.549 2.52 2.52 0 0 1-.54-.83 2.76 2.76 0 0 1-.188-1.029c0-.368.063-.711.189-1.029.128-.317.308-.592.539-.826.233-.233.513-.416.84-.549.326-.133.688-.2 1.085-.2.396 0 .757.068 1.081.203.327.133.606.317.837.55.23.233.41.509.535.826.129.317.193.659.193 1.025Zm-1.211 0a2.19 2.19 0 0 0-.098-.679 1.423 1.423 0 0 0-.284-.514 1.203 1.203 0 0 0-.448-.322 1.542 1.542 0 0 0-.605-.112 1.58 1.58 0 0 0-.613.112 1.235 1.235 0 0 0-.451.322c-.122.14-.215.311-.28.514a2.19 2.19 0 0 0-.098.679c0 .255.032.483.098.686.065.201.158.371.28.511.123.14.274.248.451.322.18.073.384.109.613.109.226 0 .428-.036.605-.109.178-.074.327-.182.448-.322.124-.14.218-.31.284-.511.065-.203.098-.431.098-.686Zm4.875 1.607V195h-3.073v-5.1h1.183v4.155h1.89Zm2.273-.994V195h-1.183v-1.939L14.25 189.9h1.043c.102 0 .183.025.241.074.06.047.111.107.15.182l.722 1.484c.06.117.115.226.164.329.05.1.092.199.13.297a4.171 4.171 0 0 1 .28-.626l.714-1.484a.664.664 0 0 1 .06-.091.392.392 0 0 1 .189-.14.38.38 0 0 1 .136-.025h1.05l-1.848 3.161Zm-9.555 4.589v5.1H6.684v-2.933c0-.068 0-.141.003-.221.005-.079.012-.159.021-.241l-1.354 2.621a.44.44 0 0 1-.413.249h-.162a.479.479 0 0 1-.244-.063.448.448 0 0 1-.168-.186l-1.355-2.628.018.248c.004.08.007.153.007.221v2.933H1.994v-5.1h.903c.05 0 .095.002.133.004a.33.33 0 0 1 .105.021.21.21 0 0 1 .08.056c.026.023.05.057.074.101l1.312 2.587a6.494 6.494 0 0 1 .259.57 3.984 3.984 0 0 1 .262-.581l1.31-2.576a.418.418 0 0 1 .07-.101.241.241 0 0 1 .083-.056.321.321 0 0 1 .102-.021c.04-.002.085-.004.136-.004h.903Zm5.887 2.548c0 .369-.064.712-.192 1.029a2.476 2.476 0 0 1-.536.83c-.23.233-.51.416-.836.549a2.81 2.81 0 0 1-1.082.2c-.396 0-.758-.066-1.085-.2a2.515 2.515 0 0 1-.84-.549 2.52 2.52 0 0 1-.539-.83 2.76 2.76 0 0 1-.189-1.029c0-.368.063-.711.19-1.029.128-.317.307-.592.538-.826.234-.233.514-.416.84-.549.327-.133.689-.2 1.085-.2.397 0 .757.068 1.082.203.326.133.605.317.836.55.231.233.41.509.536.826.128.317.192.659.192 1.025Zm-1.21 0a2.17 2.17 0 0 0-.099-.679 1.422 1.422 0 0 0-.283-.514 1.202 1.202 0 0 0-.448-.322 1.542 1.542 0 0 0-.606-.112c-.228 0-.433.037-.612.112a1.235 1.235 0 0 0-.452.322c-.121.14-.214.311-.28.514a2.19 2.19 0 0 0-.098.679c0 .255.033.483.098.686.066.201.159.371.28.511.124.14.274.248.452.322.18.073.384.109.612.109.227 0 .428-.036.606-.109a1.2 1.2 0 0 0 .448-.322c.123-.14.218-.31.283-.511a2.23 2.23 0 0 0 .098-.686Zm6.253-2.548v5.1h-.616a.568.568 0 0 1-.23-.042.593.593 0 0 1-.183-.154l-2.404-3.042c.01.091.015.18.017.266.005.084.007.164.007.238v2.734h-1.043v-5.1h.623c.052 0 .095.003.13.007a.307.307 0 0 1 .094.028c.028.012.055.03.08.053a.944.944 0 0 1 .088.094l2.426 3.063a4.25 4.25 0 0 1-.032-.546v-2.699h1.043Zm5.89 2.548c0 .369-.064.712-.193 1.029a2.476 2.476 0 0 1-.535.83c-.231.233-.51.416-.837.549-.324.134-.684.2-1.081.2-.397 0-.758-.066-1.085-.2a2.515 2.515 0 0 1-.84-.549 2.52 2.52 0 0 1-.54-.83 2.76 2.76 0 0 1-.188-1.029c0-.368.063-.711.189-1.029.128-.317.308-.592.539-.826.233-.233.513-.416.84-.549.326-.133.688-.2 1.085-.2s.757.068 1.081.203c.327.133.606.317.837.55.23.233.41.509.535.826.129.317.193.659.193 1.025Zm-1.211 0a2.19 2.19 0 0 0-.098-.679 1.422 1.422 0 0 0-.284-.514 1.203 1.203 0 0 0-.448-.322 1.542 1.542 0 0 0-.605-.112 1.58 1.58 0 0 0-.613.112 1.235 1.235 0 0 0-.451.322c-.121.14-.215.311-.28.514a2.19 2.19 0 0 0-.098.679c0 .255.033.483.098.686.065.201.159.371.28.511.123.14.274.248.451.322.18.073.384.109.613.109.226 0 .428-.036.605-.109.178-.074.327-.182.448-.322.124-.14.219-.31.284-.511.065-.203.098-.431.098-.686ZM7.726 205.4v5.1H6.684v-2.933c0-.068 0-.141.003-.221.005-.079.012-.159.021-.241l-1.354 2.621a.44.44 0 0 1-.413.249h-.162a.479.479 0 0 1-.244-.063.448.448 0 0 1-.168-.186l-1.355-2.628.018.248c.004.08.007.153.007.221v2.933H1.994v-5.1h.903c.05 0 .095.002.133.004a.33.33 0 0 1 .105.021.21.21 0 0 1 .08.056c.026.023.05.057.074.101l1.312 2.587a6.494 6.494 0 0 1 .259.57 3.984 3.984 0 0 1 .262-.581l1.31-2.576a.418.418 0 0 1 .07-.101.241.241 0 0 1 .083-.056.321.321 0 0 1 .102-.021c.04-.002.085-.004.136-.004h.903Zm5.887 2.548c0 .369-.064.712-.192 1.029a2.476 2.476 0 0 1-.536.83c-.23.233-.51.416-.836.549a2.81 2.81 0 0 1-1.082.2c-.396 0-.758-.066-1.085-.2a2.515 2.515 0 0 1-.84-.549 2.52 2.52 0 0 1-.539-.83 2.76 2.76 0 0 1-.189-1.029c0-.368.063-.711.19-1.029.128-.317.307-.592.538-.826.234-.233.514-.416.84-.549.327-.133.689-.2 1.085-.2.397 0 .757.068 1.082.203.326.133.605.317.836.55.231.233.41.509.536.826.128.317.192.659.192 1.025Zm-1.21 0a2.17 2.17 0 0 0-.099-.679 1.422 1.422 0 0 0-.283-.514 1.202 1.202 0 0 0-.448-.322 1.542 1.542 0 0 0-.606-.112c-.228 0-.433.037-.612.112a1.235 1.235 0 0 0-.452.322c-.121.14-.214.311-.28.514a2.19 2.19 0 0 0-.098.679c0 .255.033.483.098.686.066.201.159.371.28.511.124.14.274.248.452.322.18.073.384.109.612.109.227 0 .428-.036.606-.109a1.2 1.2 0 0 0 .448-.322c.123-.14.218-.31.283-.511a2.23 2.23 0 0 0 .098-.686Zm6.253-2.548v5.1h-.616a.568.568 0 0 1-.23-.042.593.593 0 0 1-.183-.154l-2.404-3.042c.01.091.015.18.017.266.005.084.007.164.007.238v2.734h-1.043v-5.1h.623c.052 0 .095.003.13.007a.307.307 0 0 1 .094.028c.028.012.055.03.08.053a.944.944 0 0 1 .088.094l2.426 3.063a4.25 4.25 0 0 1-.032-.546V205.4h1.043Zm5.89 2.548c0 .369-.064.712-.193 1.029a2.476 2.476 0 0 1-.535.83c-.231.233-.51.416-.837.549-.324.134-.684.2-1.081.2-.397 0-.758-.066-1.085-.2a2.515 2.515 0 0 1-.84-.549 2.52 2.52 0 0 1-.54-.83 2.76 2.76 0 0 1-.188-1.029c0-.368.063-.711.189-1.029.128-.317.308-.592.539-.826.233-.233.513-.416.84-.549.326-.133.688-.2 1.085-.2s.757.068 1.081.203c.327.133.606.317.837.55.23.233.41.509.535.826.129.317.193.659.193 1.025Zm-1.211 0a2.19 2.19 0 0 0-.098-.679 1.422 1.422 0 0 0-.284-.514 1.203 1.203 0 0 0-.448-.322 1.542 1.542 0 0 0-.605-.112 1.58 1.58 0 0 0-.613.112 1.235 1.235 0 0 0-.451.322c-.121.14-.215.311-.28.514a2.19 2.19 0 0 0-.098.679c0 .255.033.483.098.686.065.201.159.371.28.511.123.14.274.248.451.322.18.073.384.109.613.109.226 0 .428-.036.605-.109.178-.074.327-.182.448-.322.124-.14.219-.31.284-.511.065-.203.098-.431.098-.686Zm6.135-1.512a.43.43 0 0 1-.112.126.239.239 0 0 1-.147.042.38.38 0 0 1-.175-.049 6.813 6.813 0 0 0-.21-.115 1.601 1.601 0 0 0-.266-.112 1.038 1.038 0 0 0-.343-.053c-.222 0-.388.048-.497.144a.478.478 0 0 0-.161.381c0 .103.032.188.098.256.065.068.15.126.255.175.107.049.229.094.364.136.138.04.278.086.42.137.142.049.281.107.417.175.137.068.259.154.364.259.107.105.193.233.259.385.065.149.098.33.098.542 0 .236-.041.457-.123.662a1.559 1.559 0 0 1-.93.899c-.227.087-.485.13-.774.13-.16 0-.321-.016-.487-.049a2.788 2.788 0 0 1-.91-.35 1.871 1.871 0 0 1-.353-.273l.35-.553a.338.338 0 0 1 .108-.098.287.287 0 0 1 .15-.042c.07 0 .14.022.21.066l.242.147c.091.054.195.103.312.147.116.045.254.067.413.067.214 0 .381-.047.5-.14.12-.096.179-.246.179-.452a.425.425 0 0 0-.098-.29.75.75 0 0 0-.26-.186 2.271 2.271 0 0 0-.36-.129 11.047 11.047 0 0 1-.416-.123 3.18 3.18 0 0 1-.417-.168 1.382 1.382 0 0 1-.364-.262 1.272 1.272 0 0 1-.255-.406 1.626 1.626 0 0 1-.098-.602 1.455 1.455 0 0 1 .455-1.047 1.65 1.65 0 0 1 .55-.339c.216-.086.465-.13.745-.13.156 0 .308.013.455.039.149.023.29.059.423.108.133.047.257.104.371.172.117.065.22.14.312.224l-.294.549Zm4.618-.098h-1.435v4.162H31.47v-4.162h-1.435v-.938h4.053v.938ZM7.726 213.15v5.1H6.684v-2.933c0-.068 0-.141.003-.221.005-.079.012-.159.021-.241l-1.354 2.621a.44.44 0 0 1-.413.249h-.162a.479.479 0 0 1-.244-.063.448.448 0 0 1-.168-.186l-1.355-2.628.018.248c.004.08.007.153.007.221v2.933H1.994v-5.1h.903c.05 0 .095.002.133.004a.33.33 0 0 1 .105.021.21.21 0 0 1 .08.056c.026.023.05.057.074.101l1.312 2.587a6.494 6.494 0 0 1 .259.57 3.984 3.984 0 0 1 .262-.581l1.31-2.576a.418.418 0 0 1 .07-.101.241.241 0 0 1 .083-.056.321.321 0 0 1 .102-.021c.04-.002.085-.004.136-.004h.903Zm5.887 2.548c0 .369-.064.712-.192 1.029a2.476 2.476 0 0 1-.536.83c-.23.233-.51.416-.836.549a2.81 2.81 0 0 1-1.082.2c-.396 0-.758-.066-1.085-.2a2.515 2.515 0 0 1-.84-.549 2.52 2.52 0 0 1-.539-.83 2.76 2.76 0 0 1-.189-1.029c0-.368.063-.711.19-1.029.128-.317.307-.592.538-.826.234-.233.514-.416.84-.549.327-.133.689-.2 1.085-.2.397 0 .757.068 1.082.203.326.133.605.317.836.55.231.233.41.509.536.826.128.317.192.659.192 1.025Zm-1.21 0a2.17 2.17 0 0 0-.099-.679 1.422 1.422 0 0 0-.283-.514 1.202 1.202 0 0 0-.448-.322 1.542 1.542 0 0 0-.606-.112c-.228 0-.433.037-.612.112a1.235 1.235 0 0 0-.452.322c-.121.14-.214.311-.28.514a2.19 2.19 0 0 0-.098.679c0 .255.033.483.098.686.066.201.159.371.28.511.124.14.274.248.452.322.18.073.384.109.612.109.227 0 .428-.036.606-.109a1.2 1.2 0 0 0 .448-.322c.123-.14.218-.31.283-.511a2.23 2.23 0 0 0 .098-.686Zm6.253-2.548v5.1h-.616a.568.568 0 0 1-.23-.042.593.593 0 0 1-.183-.154l-2.404-3.042c.01.091.015.18.017.266.005.084.007.164.007.238v2.734h-1.043v-5.1h.623c.052 0 .095.003.13.007a.307.307 0 0 1 .094.028c.028.012.055.03.08.053a.944.944 0 0 1 .088.094l2.426 3.063a4.25 4.25 0 0 1-.032-.546v-2.699h1.043Zm5.89 2.548c0 .369-.064.712-.193 1.029a2.476 2.476 0 0 1-.535.83c-.231.233-.51.416-.837.549-.324.134-.684.2-1.081.2-.397 0-.758-.066-1.085-.2a2.515 2.515 0 0 1-.84-.549 2.52 2.52 0 0 1-.54-.83 2.76 2.76 0 0 1-.188-1.029c0-.368.063-.711.189-1.029.128-.317.308-.592.539-.826.233-.233.513-.416.84-.549.326-.133.688-.2 1.085-.2s.757.068 1.081.203c.327.133.606.317.837.55.23.233.41.509.535.826.129.317.193.659.193 1.025Zm-1.211 0a2.19 2.19 0 0 0-.098-.679 1.422 1.422 0 0 0-.284-.514 1.203 1.203 0 0 0-.448-.322 1.542 1.542 0 0 0-.605-.112 1.58 1.58 0 0 0-.613.112 1.235 1.235 0 0 0-.451.322c-.121.14-.215.311-.28.514a2.19 2.19 0 0 0-.098.679c0 .255.033.483.098.686.065.201.159.371.28.511.123.14.274.248.451.322.18.073.384.109.613.109.226 0 .428-.036.605-.109.178-.074.327-.182.448-.322.124-.14.219-.31.284-.511.065-.203.098-.431.098-.686Zm4.507-1.638v1.292h1.743v.913h-1.743v1.985h-1.19v-5.1h3.283v.91h-2.093Zm4.469 1.593c.308 0 .53-.074.665-.221.135-.147.203-.352.203-.616a.922.922 0 0 0-.053-.318.683.683 0 0 0-.43-.406 1.185 1.185 0 0 0-.385-.056h-.616v1.617h.616Zm0-2.503c.36 0 .667.044.924.13.259.084.471.201.637.35.168.149.292.325.37.528.08.203.12.423.12.658 0 .255-.04.488-.123.7a1.394 1.394 0 0 1-.374.546 1.773 1.773 0 0 1-.64.357 2.948 2.948 0 0 1-.914.126h-.616v1.705h-1.183v-5.1h1.799Z" fill="#B4B4B4"/><rect x="1" y="219.5" width="48" height="7" rx="1" fill="#7432FF"/><rect x="1" y="219.5" width="48" height="7" rx="1" stroke="#7432FF"/><path d="M7.726 220.9v5.1H6.684v-2.933c0-.068 0-.141.003-.221.005-.079.012-.159.021-.241l-1.354 2.621a.44.44 0 0 1-.413.249h-.162a.479.479 0 0 1-.244-.063.448.448 0 0 1-.168-.186l-1.355-2.628.018.248c.004.08.007.153.007.221V226H1.994v-5.1h.903c.05 0 .095.002.133.004a.33.33 0 0 1 .105.021.21.21 0 0 1 .08.056c.026.023.05.057.074.101l1.312 2.587a6.494 6.494 0 0 1 .259.57 3.984 3.984 0 0 1 .262-.581l1.31-2.576a.418.418 0 0 1 .07-.101.241.241 0 0 1 .083-.056.321.321 0 0 1 .102-.021c.04-.002.085-.004.136-.004h.903Zm5.887 2.548c0 .369-.064.712-.192 1.029a2.476 2.476 0 0 1-.536.83c-.23.233-.51.416-.836.549a2.81 2.81 0 0 1-1.082.2c-.396 0-.758-.066-1.085-.2a2.515 2.515 0 0 1-.84-.549 2.52 2.52 0 0 1-.539-.83 2.76 2.76 0 0 1-.189-1.029c0-.368.063-.711.19-1.029.128-.317.307-.592.538-.826.234-.233.514-.416.84-.549.327-.133.689-.2 1.085-.2.397 0 .757.068 1.082.203.326.133.605.317.836.55.231.233.41.509.536.826.128.317.192.659.192 1.025Zm-1.21 0a2.17 2.17 0 0 0-.099-.679 1.422 1.422 0 0 0-.283-.514 1.202 1.202 0 0 0-.448-.322 1.542 1.542 0 0 0-.606-.112c-.228 0-.433.037-.612.112a1.235 1.235 0 0 0-.452.322c-.121.14-.214.311-.28.514a2.19 2.19 0 0 0-.098.679c0 .255.033.483.098.686.066.201.159.371.28.511.124.14.274.248.452.322.18.073.384.109.612.109.227 0 .428-.036.606-.109a1.2 1.2 0 0 0 .448-.322c.123-.14.218-.31.283-.511a2.23 2.23 0 0 0 .098-.686Zm6.253-2.548v5.1h-.616a.568.568 0 0 1-.23-.042.593.593 0 0 1-.183-.154l-2.404-3.042c.01.091.015.18.017.266.005.084.007.164.007.238V226h-1.043v-5.1h.623c.052 0 .095.003.13.007a.307.307 0 0 1 .094.028c.028.012.055.03.08.053a.944.944 0 0 1 .088.094l2.426 3.063a4.25 4.25 0 0 1-.032-.546V220.9h1.043Zm5.89 2.548c0 .369-.064.712-.193 1.029a2.476 2.476 0 0 1-.535.83c-.231.233-.51.416-.837.549-.324.134-.684.2-1.081.2-.397 0-.758-.066-1.085-.2a2.515 2.515 0 0 1-.84-.549 2.52 2.52 0 0 1-.54-.83 2.76 2.76 0 0 1-.188-1.029c0-.368.063-.711.189-1.029.128-.317.308-.592.539-.826.233-.233.513-.416.84-.549.326-.133.688-.2 1.085-.2s.757.068 1.081.203c.327.133.606.317.837.55.23.233.41.509.535.826.129.317.193.659.193 1.025Zm-1.211 0a2.19 2.19 0 0 0-.098-.679 1.422 1.422 0 0 0-.284-.514 1.203 1.203 0 0 0-.448-.322 1.542 1.542 0 0 0-.605-.112 1.58 1.58 0 0 0-.613.112 1.235 1.235 0 0 0-.451.322c-.121.14-.215.311-.28.514a2.19 2.19 0 0 0-.098.679c0 .255.033.483.098.686.065.201.159.371.28.511.123.14.274.248.451.322.18.073.384.109.613.109.226 0 .428-.036.605-.109.178-.074.327-.182.448-.322.124-.14.219-.31.284-.511.065-.203.098-.431.098-.686Zm6.135-1.512a.43.43 0 0 1-.112.126.239.239 0 0 1-.147.042.38.38 0 0 1-.175-.049 6.813 6.813 0 0 0-.21-.115 1.601 1.601 0 0 0-.266-.112 1.038 1.038 0 0 0-.343-.053c-.222 0-.388.048-.497.144a.478.478 0 0 0-.161.381c0 .103.032.188.098.256.065.068.15.126.255.175.107.049.229.094.364.136.138.04.278.086.42.137.142.049.281.107.417.175.137.068.259.154.364.259.107.105.193.233.259.385.065.149.098.33.098.542 0 .236-.041.457-.123.662a1.559 1.559 0 0 1-.93.899c-.227.087-.485.13-.774.13-.16 0-.321-.016-.487-.049a2.788 2.788 0 0 1-.91-.35 1.871 1.871 0 0 1-.353-.273l.35-.553a.338.338 0 0 1 .108-.098.287.287 0 0 1 .15-.042c.07 0 .14.022.21.066l.242.147c.091.054.195.103.312.147.116.045.254.067.413.067.214 0 .381-.047.5-.14.12-.096.179-.246.179-.452a.425.425 0 0 0-.098-.29.75.75 0 0 0-.26-.186 2.271 2.271 0 0 0-.36-.129 11.047 11.047 0 0 1-.416-.123 3.18 3.18 0 0 1-.417-.168 1.382 1.382 0 0 1-.364-.262 1.272 1.272 0 0 1-.255-.406 1.626 1.626 0 0 1-.098-.602 1.455 1.455 0 0 1 .455-1.047 1.65 1.65 0 0 1 .55-.339c.216-.086.465-.13.745-.13.156 0 .308.013.455.039.149.023.29.059.423.108.133.047.257.104.371.172.117.065.22.14.312.224l-.294.549Zm4.618-.098h-1.435V226H31.47v-4.162h-1.435v-.938h4.053v.938Zm3.765 2.198h-1.295v1.393h-.882v-1.393h-1.288v-.777h1.288v-1.386h.882v1.386h1.295v.777Zm1.876-2.226v1.292h1.743v.913H39.73V226h-1.19v-5.1h3.283v.91H39.73Zm4.47 1.593c.307 0 .529-.074.664-.221.135-.147.203-.352.203-.616a.922.922 0 0 0-.052-.318.683.683 0 0 0-.43-.406 1.185 1.185 0 0 0-.386-.056h-.616v1.617h.616Zm0-2.503c.358 0 .666.044.923.13.26.084.471.201.637.35.168.149.292.325.371.528.08.203.12.423.12.658 0 .255-.042.488-.123.7a1.395 1.395 0 0 1-.375.546 1.773 1.773 0 0 1-.64.357 2.949 2.949 0 0 1-.914.126h-.616V226H42.4v-5.1h1.8Z" fill="#fff"/><path d="M5.066 232.805v.945H1.994v-5.1h1.182v4.155h1.89Zm3.195-1.005-.472-1.396a6.353 6.353 0 0 1-.112-.312c-.04-.121-.08-.252-.12-.392a5.381 5.381 0 0 1-.223.711l-.47 1.389h1.397Zm1.88 1.95h-.917a.405.405 0 0 1-.249-.07.469.469 0 0 1-.143-.186l-.301-.889H6.59l-.3.889a.432.432 0 0 1-.14.179.386.386 0 0 1-.245.077h-.924l1.974-5.1h1.21l1.975 5.1Zm3.462-4.162h-1.435v4.162h-1.183v-4.162H9.55v-.938h4.053v.938Zm3.817 2.842c.028 0 .056.006.084.018a.21.21 0 0 1 .08.052l.47.494a1.965 1.965 0 0 1-.774.609c-.308.135-.673.203-1.095.203-.388 0-.735-.065-1.043-.196a2.307 2.307 0 0 1-.78-.546 2.441 2.441 0 0 1-.49-.826 3.067 3.067 0 0 1-.172-1.04c0-.38.062-.729.185-1.046a2.343 2.343 0 0 1 1.327-1.365 2.7 2.7 0 0 1 1.032-.193c.192 0 .371.018.54.053a2.46 2.46 0 0 1 .881.353c.124.084.233.175.33.273l-.4.536a.548.548 0 0 1-.09.091.242.242 0 0 1-.148.038.258.258 0 0 1-.119-.028 1.307 1.307 0 0 1-.119-.066 3.777 3.777 0 0 0-.14-.088 1.333 1.333 0 0 0-.42-.157 1.596 1.596 0 0 0-.322-.028 1.192 1.192 0 0 0-.959.427 1.484 1.484 0 0 0-.273.511 2.3 2.3 0 0 0-.094.689c0 .262.035.494.105.697.072.203.169.374.29.514a1.252 1.252 0 0 0 .956.424c.107 0 .205-.005.294-.014a1.52 1.52 0 0 0 .248-.053 1.083 1.083 0 0 0 .424-.255.378.378 0 0 1 .09-.056.23.23 0 0 1 .102-.025Zm5.497-3.78v5.1h-1.19v-2.156h-2.072v2.156h-1.19v-5.1h1.19v2.132h2.072v-2.132h1.19ZM3.792 239.403c.309 0 .53-.074.665-.221.136-.147.204-.352.204-.616a.922.922 0 0 0-.053-.318.683.683 0 0 0-.43-.406 1.185 1.185 0 0 0-.385-.056h-.617v1.617h.616Zm0-2.503c.36 0 .668.044.925.13.259.084.47.201.637.35.167.149.291.325.37.528.08.203.12.423.12.658 0 .255-.041.488-.123.7a1.395 1.395 0 0 1-.375.546 1.773 1.773 0 0 1-.64.357 2.949 2.949 0 0 1-.914.126h-.615V242H1.993v-5.1h1.798Zm7.552 2.548c0 .369-.064.712-.193 1.029a2.476 2.476 0 0 1-.535.83c-.231.233-.51.416-.837.549-.324.134-.685.2-1.081.2a2.83 2.83 0 0 1-1.085-.2 2.515 2.515 0 0 1-.84-.549 2.52 2.52 0 0 1-.54-.83 2.76 2.76 0 0 1-.188-1.029c0-.368.063-.711.189-1.029.128-.317.308-.592.539-.826.233-.233.513-.416.84-.549.326-.133.688-.2 1.085-.2.396 0 .757.068 1.081.203.327.133.606.317.837.55.23.233.41.509.535.826.129.317.193.659.193 1.025Zm-1.211 0a2.19 2.19 0 0 0-.098-.679 1.423 1.423 0 0 0-.284-.514 1.203 1.203 0 0 0-.448-.322 1.542 1.542 0 0 0-.605-.112 1.58 1.58 0 0 0-.613.112 1.235 1.235 0 0 0-.451.322c-.122.14-.215.311-.28.514a2.19 2.19 0 0 0-.098.679c0 .255.032.483.098.686.065.201.158.371.28.511.123.14.274.248.451.322.18.073.384.109.613.109.226 0 .428-.036.605-.109.178-.074.327-.182.448-.322.124-.14.218-.31.284-.511.065-.203.098-.431.098-.686Zm4.875 1.607V242h-3.073v-5.1h1.183v4.155h1.89Zm2.273-.994V242h-1.183v-1.939L14.25 236.9h1.043c.102 0 .183.025.241.074.06.047.111.107.15.182l.722 1.484c.06.117.115.226.164.329.05.1.092.199.13.297a4.171 4.171 0 0 1 .28-.626l.714-1.484a.664.664 0 0 1 .06-.091.392.392 0 0 1 .189-.14.38.38 0 0 1 .136-.025h1.05l-1.848 3.161Zm-9.555 4.589v5.1H6.684v-2.933c0-.068 0-.141.003-.221.005-.079.012-.159.021-.241l-1.354 2.621a.44.44 0 0 1-.413.249h-.162a.479.479 0 0 1-.244-.063.448.448 0 0 1-.168-.186l-1.355-2.628.018.248c.004.08.007.153.007.221v2.933H1.994v-5.1h.903c.05 0 .095.002.133.004a.33.33 0 0 1 .105.021.21.21 0 0 1 .08.056c.026.023.05.057.074.101l1.312 2.587a6.494 6.494 0 0 1 .259.57 3.984 3.984 0 0 1 .262-.581l1.31-2.576a.418.418 0 0 1 .07-.101.241.241 0 0 1 .083-.056.321.321 0 0 1 .102-.021c.04-.002.085-.004.136-.004h.903Zm5.887 2.548c0 .369-.064.712-.192 1.029a2.476 2.476 0 0 1-.536.83c-.23.233-.51.416-.836.549a2.81 2.81 0 0 1-1.082.2c-.396 0-.758-.066-1.085-.2a2.515 2.515 0 0 1-.84-.549 2.52 2.52 0 0 1-.539-.83 2.76 2.76 0 0 1-.189-1.029c0-.368.063-.711.19-1.029.128-.317.307-.592.538-.826.234-.233.514-.416.84-.549.327-.133.689-.2 1.085-.2.397 0 .757.068 1.082.203.326.133.605.317.836.55.231.233.41.509.536.826.128.317.192.659.192 1.025Zm-1.21 0a2.17 2.17 0 0 0-.099-.679 1.422 1.422 0 0 0-.283-.514 1.202 1.202 0 0 0-.448-.322 1.542 1.542 0 0 0-.606-.112c-.228 0-.433.037-.612.112a1.235 1.235 0 0 0-.452.322c-.121.14-.214.311-.28.514a2.19 2.19 0 0 0-.098.679c0 .255.033.483.098.686.066.201.159.371.28.511.124.14.274.248.452.322.18.073.384.109.612.109.227 0 .428-.036.606-.109a1.2 1.2 0 0 0 .448-.322c.123-.14.218-.31.283-.511a2.23 2.23 0 0 0 .098-.686Zm6.253-2.548v5.1h-.616a.568.568 0 0 1-.23-.042.593.593 0 0 1-.183-.154l-2.404-3.042c.01.091.015.18.017.266.005.084.007.164.007.238v2.734h-1.043v-5.1h.623c.052 0 .095.003.13.007a.307.307 0 0 1 .094.028c.028.012.055.03.08.053a.944.944 0 0 1 .088.094l2.426 3.063a4.25 4.25 0 0 1-.032-.546v-2.699h1.043Zm5.89 2.548c0 .369-.064.712-.193 1.029a2.476 2.476 0 0 1-.535.83c-.231.233-.51.416-.837.549-.324.134-.684.2-1.081.2-.397 0-.758-.066-1.085-.2a2.515 2.515 0 0 1-.84-.549 2.52 2.52 0 0 1-.54-.83 2.76 2.76 0 0 1-.188-1.029c0-.368.063-.711.189-1.029.128-.317.308-.592.539-.826.233-.233.513-.416.84-.549.326-.133.688-.2 1.085-.2s.757.068 1.081.203c.327.133.606.317.837.55.23.233.41.509.535.826.129.317.193.659.193 1.025Zm-1.211 0a2.19 2.19 0 0 0-.098-.679 1.422 1.422 0 0 0-.284-.514 1.203 1.203 0 0 0-.448-.322 1.542 1.542 0 0 0-.605-.112 1.58 1.58 0 0 0-.613.112 1.235 1.235 0 0 0-.451.322c-.121.14-.215.311-.28.514a2.19 2.19 0 0 0-.098.679c0 .255.033.483.098.686.065.201.159.371.28.511.123.14.274.248.451.322.18.073.384.109.613.109.226 0 .428-.036.605-.109.178-.074.327-.182.448-.322.124-.14.219-.31.284-.511.065-.203.098-.431.098-.686ZM7.726 252.4v5.1H6.684v-2.933c0-.068 0-.141.003-.221.005-.079.012-.159.021-.241l-1.354 2.621a.44.44 0 0 1-.413.249h-.162a.479.479 0 0 1-.244-.063.448.448 0 0 1-.168-.186l-1.355-2.628.018.248c.004.08.007.153.007.221v2.933H1.994v-5.1h.903c.05 0 .095.002.133.004a.33.33 0 0 1 .105.021.21.21 0 0 1 .08.056c.026.023.05.057.074.101l1.312 2.587a6.494 6.494 0 0 1 .259.57 3.984 3.984 0 0 1 .262-.581l1.31-2.576a.418.418 0 0 1 .07-.101.241.241 0 0 1 .083-.056.321.321 0 0 1 .102-.021c.04-.002.085-.004.136-.004h.903Zm5.887 2.548c0 .369-.064.712-.192 1.029a2.476 2.476 0 0 1-.536.83c-.23.233-.51.416-.836.549a2.81 2.81 0 0 1-1.082.2c-.396 0-.758-.066-1.085-.2a2.515 2.515 0 0 1-.84-.549 2.52 2.52 0 0 1-.539-.83 2.76 2.76 0 0 1-.189-1.029c0-.368.063-.711.19-1.029.128-.317.307-.592.538-.826.234-.233.514-.416.84-.549.327-.133.689-.2 1.085-.2.397 0 .757.068 1.082.203.326.133.605.317.836.55.231.233.41.509.536.826.128.317.192.659.192 1.025Zm-1.21 0a2.17 2.17 0 0 0-.099-.679 1.422 1.422 0 0 0-.283-.514 1.202 1.202 0 0 0-.448-.322 1.542 1.542 0 0 0-.606-.112c-.228 0-.433.037-.612.112a1.235 1.235 0 0 0-.452.322c-.121.14-.214.311-.28.514a2.19 2.19 0 0 0-.098.679c0 .255.033.483.098.686.066.201.159.371.28.511.124.14.274.248.452.322.18.073.384.109.612.109.227 0 .428-.036.606-.109a1.2 1.2 0 0 0 .448-.322c.123-.14.218-.31.283-.511a2.23 2.23 0 0 0 .098-.686Zm6.253-2.548v5.1h-.616a.568.568 0 0 1-.23-.042.593.593 0 0 1-.183-.154l-2.404-3.042c.01.091.015.18.017.266.005.084.007.164.007.238v2.734h-1.043v-5.1h.623c.052 0 .095.003.13.007a.307.307 0 0 1 .094.028c.028.012.055.03.08.053a.944.944 0 0 1 .088.094l2.426 3.063a4.25 4.25 0 0 1-.032-.546V252.4h1.043Zm5.89 2.548c0 .369-.064.712-.193 1.029a2.476 2.476 0 0 1-.535.83c-.231.233-.51.416-.837.549-.324.134-.684.2-1.081.2-.397 0-.758-.066-1.085-.2a2.515 2.515 0 0 1-.84-.549 2.52 2.52 0 0 1-.54-.83 2.76 2.76 0 0 1-.188-1.029c0-.368.063-.711.189-1.029.128-.317.308-.592.539-.826.233-.233.513-.416.84-.549.326-.133.688-.2 1.085-.2s.757.068 1.081.203c.327.133.606.317.837.55.23.233.41.509.535.826.129.317.193.659.193 1.025Zm-1.211 0a2.19 2.19 0 0 0-.098-.679 1.422 1.422 0 0 0-.284-.514 1.203 1.203 0 0 0-.448-.322 1.542 1.542 0 0 0-.605-.112 1.58 1.58 0 0 0-.613.112 1.235 1.235 0 0 0-.451.322c-.121.14-.215.311-.28.514a2.19 2.19 0 0 0-.098.679c0 .255.033.483.098.686.065.201.159.371.28.511.123.14.274.248.451.322.18.073.384.109.613.109.226 0 .428-.036.605-.109.178-.074.327-.182.448-.322.124-.14.219-.31.284-.511.065-.203.098-.431.098-.686Zm6.135-1.512a.43.43 0 0 1-.112.126.239.239 0 0 1-.147.042.38.38 0 0 1-.175-.049 6.813 6.813 0 0 0-.21-.115 1.601 1.601 0 0 0-.266-.112 1.038 1.038 0 0 0-.343-.053c-.222 0-.388.048-.497.144a.478.478 0 0 0-.161.381c0 .103.032.188.098.256.065.068.15.126.255.175.107.049.229.094.364.136.138.04.278.086.42.137.142.049.281.107.417.175.137.068.259.154.364.259.107.105.193.233.259.385.065.149.098.33.098.542 0 .236-.041.457-.123.662a1.559 1.559 0 0 1-.93.899c-.227.087-.485.13-.774.13-.16 0-.321-.016-.487-.049a2.788 2.788 0 0 1-.91-.35 1.871 1.871 0 0 1-.353-.273l.35-.553a.338.338 0 0 1 .108-.098.287.287 0 0 1 .15-.042c.07 0 .14.022.21.066l.242.147c.091.054.195.103.312.147.116.045.254.067.413.067.214 0 .381-.047.5-.14.12-.096.179-.246.179-.452a.425.425 0 0 0-.098-.29.75.75 0 0 0-.26-.186 2.271 2.271 0 0 0-.36-.129 11.047 11.047 0 0 1-.416-.123 3.18 3.18 0 0 1-.417-.168 1.382 1.382 0 0 1-.364-.262 1.272 1.272 0 0 1-.255-.406 1.626 1.626 0 0 1-.098-.602 1.455 1.455 0 0 1 .455-1.047 1.65 1.65 0 0 1 .55-.339c.216-.086.465-.13.745-.13.156 0 .308.013.455.039.149.023.29.059.423.108.133.047.257.104.371.172.117.065.22.14.312.224l-.294.549Zm4.618-.098h-1.435v4.162H31.47v-4.162h-1.435v-.938h4.053v.938ZM7.726 260.15v5.1H6.684v-2.933c0-.068 0-.141.003-.221.005-.079.012-.159.021-.241l-1.354 2.621a.44.44 0 0 1-.413.249h-.162a.479.479 0 0 1-.244-.063.448.448 0 0 1-.168-.186l-1.355-2.628.018.248c.004.08.007.153.007.221v2.933H1.994v-5.1h.903c.05 0 .095.002.133.004a.33.33 0 0 1 .105.021.21.21 0 0 1 .08.056c.026.023.05.057.074.101l1.312 2.587a6.494 6.494 0 0 1 .259.57 3.984 3.984 0 0 1 .262-.581l1.31-2.576a.418.418 0 0 1 .07-.101.241.241 0 0 1 .083-.056.321.321 0 0 1 .102-.021c.04-.002.085-.004.136-.004h.903Zm5.887 2.548c0 .369-.064.712-.192 1.029a2.476 2.476 0 0 1-.536.83c-.23.233-.51.416-.836.549a2.81 2.81 0 0 1-1.082.2c-.396 0-.758-.066-1.085-.2a2.515 2.515 0 0 1-.84-.549 2.52 2.52 0 0 1-.539-.83 2.76 2.76 0 0 1-.189-1.029c0-.368.063-.711.19-1.029.128-.317.307-.592.538-.826.234-.233.514-.416.84-.549.327-.133.689-.2 1.085-.2.397 0 .757.068 1.082.203.326.133.605.317.836.55.231.233.41.509.536.826.128.317.192.659.192 1.025Zm-1.21 0a2.17 2.17 0 0 0-.099-.679 1.422 1.422 0 0 0-.283-.514 1.202 1.202 0 0 0-.448-.322 1.542 1.542 0 0 0-.606-.112c-.228 0-.433.037-.612.112a1.235 1.235 0 0 0-.452.322c-.121.14-.214.311-.28.514a2.19 2.19 0 0 0-.098.679c0 .255.033.483.098.686.066.201.159.371.28.511.124.14.274.248.452.322.18.073.384.109.612.109.227 0 .428-.036.606-.109a1.2 1.2 0 0 0 .448-.322c.123-.14.218-.31.283-.511a2.23 2.23 0 0 0 .098-.686Zm6.253-2.548v5.1h-.616a.568.568 0 0 1-.23-.042.593.593 0 0 1-.183-.154l-2.404-3.042c.01.091.015.18.017.266.005.084.007.164.007.238v2.734h-1.043v-5.1h.623c.052 0 .095.003.13.007a.307.307 0 0 1 .094.028c.028.012.055.03.08.053a.944.944 0 0 1 .088.094l2.426 3.063a4.25 4.25 0 0 1-.032-.546v-2.699h1.043Zm5.89 2.548c0 .369-.064.712-.193 1.029a2.476 2.476 0 0 1-.535.83c-.231.233-.51.416-.837.549-.324.134-.684.2-1.081.2-.397 0-.758-.066-1.085-.2a2.515 2.515 0 0 1-.84-.549 2.52 2.52 0 0 1-.54-.83 2.76 2.76 0 0 1-.188-1.029c0-.368.063-.711.189-1.029.128-.317.308-.592.539-.826.233-.233.513-.416.84-.549.326-.133.688-.2 1.085-.2s.757.068 1.081.203c.327.133.606.317.837.55.23.233.41.509.535.826.129.317.193.659.193 1.025Zm-1.211 0a2.19 2.19 0 0 0-.098-.679 1.422 1.422 0 0 0-.284-.514 1.203 1.203 0 0 0-.448-.322 1.542 1.542 0 0 0-.605-.112 1.58 1.58 0 0 0-.613.112 1.235 1.235 0 0 0-.451.322c-.121.14-.215.311-.28.514a2.19 2.19 0 0 0-.098.679c0 .255.033.483.098.686.065.201.159.371.28.511.123.14.274.248.451.322.18.073.384.109.613.109.226 0 .428-.036.605-.109.178-.074.327-.182.448-.322.124-.14.219-.31.284-.511.065-.203.098-.431.098-.686Zm4.507-1.638v1.292h1.743v.913h-1.743v1.985h-1.19v-5.1h3.283v.91h-2.093Zm4.469 1.593c.308 0 .53-.074.665-.221.135-.147.203-.352.203-.616a.922.922 0 0 0-.053-.318.683.683 0 0 0-.43-.406 1.185 1.185 0 0 0-.385-.056h-.616v1.617h.616Zm0-2.503c.36 0 .667.044.924.13.259.084.471.201.637.35.168.149.292.325.37.528.08.203.12.423.12.658 0 .255-.04.488-.123.7a1.394 1.394 0 0 1-.374.546 1.773 1.773 0 0 1-.64.357 2.948 2.948 0 0 1-.914.126h-.616v1.705h-1.183v-5.1h1.799ZM7.726 267.9v5.1H6.684v-2.933c0-.068 0-.141.003-.221.005-.079.012-.159.021-.241l-1.354 2.621a.44.44 0 0 1-.413.249h-.162a.479.479 0 0 1-.244-.063.448.448 0 0 1-.168-.186l-1.355-2.628.018.248c.004.08.007.153.007.221V273H1.994v-5.1h.903c.05 0 .095.002.133.004a.33.33 0 0 1 .105.021.21.21 0 0 1 .08.056c.026.023.05.057.074.101l1.312 2.587a6.494 6.494 0 0 1 .259.57 3.984 3.984 0 0 1 .262-.581l1.31-2.576a.418.418 0 0 1 .07-.101.241.241 0 0 1 .083-.056.321.321 0 0 1 .102-.021c.04-.002.085-.004.136-.004h.903Zm5.887 2.548c0 .369-.064.712-.192 1.029a2.476 2.476 0 0 1-.536.83c-.23.233-.51.416-.836.549a2.81 2.81 0 0 1-1.082.2c-.396 0-.758-.066-1.085-.2a2.515 2.515 0 0 1-.84-.549 2.52 2.52 0 0 1-.539-.83 2.76 2.76 0 0 1-.189-1.029c0-.368.063-.711.19-1.029.128-.317.307-.592.538-.826.234-.233.514-.416.84-.549.327-.133.689-.2 1.085-.2.397 0 .757.068 1.082.203.326.133.605.317.836.55.231.233.41.509.536.826.128.317.192.659.192 1.025Zm-1.21 0a2.17 2.17 0 0 0-.099-.679 1.422 1.422 0 0 0-.283-.514 1.202 1.202 0 0 0-.448-.322 1.542 1.542 0 0 0-.606-.112c-.228 0-.433.037-.612.112a1.235 1.235 0 0 0-.452.322c-.121.14-.214.311-.28.514a2.19 2.19 0 0 0-.098.679c0 .255.033.483.098.686.066.201.159.371.28.511.124.14.274.248.452.322.18.073.384.109.612.109.227 0 .428-.036.606-.109a1.2 1.2 0 0 0 .448-.322c.123-.14.218-.31.283-.511a2.23 2.23 0 0 0 .098-.686Zm6.253-2.548v5.1h-.616a.568.568 0 0 1-.23-.042.593.593 0 0 1-.183-.154l-2.404-3.042c.01.091.015.18.017.266.005.084.007.164.007.238V273h-1.043v-5.1h.623c.052 0 .095.003.13.007a.307.307 0 0 1 .094.028c.028.012.055.03.08.053a.944.944 0 0 1 .088.094l2.426 3.063a4.25 4.25 0 0 1-.032-.546V267.9h1.043Zm5.89 2.548c0 .369-.064.712-.193 1.029a2.476 2.476 0 0 1-.535.83c-.231.233-.51.416-.837.549-.324.134-.684.2-1.081.2-.397 0-.758-.066-1.085-.2a2.515 2.515 0 0 1-.84-.549 2.52 2.52 0 0 1-.54-.83 2.76 2.76 0 0 1-.188-1.029c0-.368.063-.711.189-1.029.128-.317.308-.592.539-.826.233-.233.513-.416.84-.549.326-.133.688-.2 1.085-.2s.757.068 1.081.203c.327.133.606.317.837.55.23.233.41.509.535.826.129.317.193.659.193 1.025Zm-1.211 0a2.19 2.19 0 0 0-.098-.679 1.422 1.422 0 0 0-.284-.514 1.203 1.203 0 0 0-.448-.322 1.542 1.542 0 0 0-.605-.112 1.58 1.58 0 0 0-.613.112 1.235 1.235 0 0 0-.451.322c-.121.14-.215.311-.28.514a2.19 2.19 0 0 0-.098.679c0 .255.033.483.098.686.065.201.159.371.28.511.123.14.274.248.451.322.18.073.384.109.613.109.226 0 .428-.036.605-.109.178-.074.327-.182.448-.322.124-.14.219-.31.284-.511.065-.203.098-.431.098-.686Zm6.135-1.512a.43.43 0 0 1-.112.126.239.239 0 0 1-.147.042.38.38 0 0 1-.175-.049 6.813 6.813 0 0 0-.21-.115 1.601 1.601 0 0 0-.266-.112 1.038 1.038 0 0 0-.343-.053c-.222 0-.388.048-.497.144a.478.478 0 0 0-.161.381c0 .103.032.188.098.256.065.068.15.126.255.175.107.049.229.094.364.136.138.04.278.086.42.137.142.049.281.107.417.175.137.068.259.154.364.259.107.105.193.233.259.385.065.149.098.33.098.542 0 .236-.041.457-.123.662a1.559 1.559 0 0 1-.93.899c-.227.087-.485.13-.774.13-.16 0-.321-.016-.487-.049a2.788 2.788 0 0 1-.91-.35 1.871 1.871 0 0 1-.353-.273l.35-.553a.338.338 0 0 1 .108-.098.287.287 0 0 1 .15-.042c.07 0 .14.022.21.066l.242.147c.091.054.195.103.312.147.116.045.254.067.413.067.214 0 .381-.047.5-.14.12-.096.179-.246.179-.452a.425.425 0 0 0-.098-.29.75.75 0 0 0-.26-.186 2.271 2.271 0 0 0-.36-.129 11.047 11.047 0 0 1-.416-.123 3.18 3.18 0 0 1-.417-.168 1.382 1.382 0 0 1-.364-.262 1.272 1.272 0 0 1-.255-.406 1.626 1.626 0 0 1-.098-.602 1.455 1.455 0 0 1 .455-1.047 1.65 1.65 0 0 1 .55-.339c.216-.086.465-.13.745-.13.156 0 .308.013.455.039.149.023.29.059.423.108.133.047.257.104.371.172.117.065.22.14.312.224l-.294.549Zm4.618-.098h-1.435V273H31.47v-4.162h-1.435v-.938h4.053v.938Zm3.765 2.198h-1.295v1.393h-.882v-1.393h-1.288v-.777h1.288v-1.386h.882v1.386h1.295v.777Zm1.876-2.226v1.292h1.743v.913H39.73V273h-1.19v-5.1h3.283v.91H39.73Zm4.47 1.593c.307 0 .529-.074.664-.221.135-.147.203-.352.203-.616a.922.922 0 0 0-.052-.318.683.683 0 0 0-.43-.406 1.185 1.185 0 0 0-.386-.056h-.616v1.617h.616Zm0-2.503c.358 0 .666.044.923.13.26.084.471.201.637.35.168.149.292.325.371.528.08.203.12.423.12.658 0 .255-.042.488-.123.7a1.395 1.395 0 0 1-.375.546 1.773 1.773 0 0 1-.64.357 2.949 2.949 0 0 1-.914.126h-.616V273H42.4v-5.1h1.8Z" fill="#B4B4B4"/><rect x="1" y="274.25" width="48" height="7" rx="1" fill="#7432FF"/><rect x="1" y="274.25" width="48" height="7" rx="1" stroke="#7432FF"/><path d="M5.066 279.805v.945H1.994v-5.1h1.182v4.155h1.89Zm3.195-1.005-.472-1.396a6.353 6.353 0 0 1-.112-.312c-.04-.121-.08-.252-.12-.392a5.381 5.381 0 0 1-.223.711l-.47 1.389h1.397Zm1.88 1.95h-.917a.405.405 0 0 1-.249-.07.469.469 0 0 1-.143-.186l-.301-.889H6.59l-.3.889a.432.432 0 0 1-.14.179.386.386 0 0 1-.245.077h-.924l1.974-5.1h1.21l1.975 5.1Zm3.462-4.162h-1.435v4.162h-1.183v-4.162H9.55v-.938h4.053v.938Zm3.817 2.842c.028 0 .056.006.084.018a.21.21 0 0 1 .08.052l.47.494a1.965 1.965 0 0 1-.774.609c-.308.135-.673.203-1.095.203-.388 0-.735-.065-1.043-.196a2.307 2.307 0 0 1-.78-.546 2.441 2.441 0 0 1-.49-.826 3.067 3.067 0 0 1-.172-1.04c0-.38.062-.729.185-1.046a2.343 2.343 0 0 1 1.327-1.365 2.7 2.7 0 0 1 1.032-.193c.192 0 .371.018.54.053a2.46 2.46 0 0 1 .881.353c.124.084.233.175.33.273l-.4.536a.548.548 0 0 1-.09.091.242.242 0 0 1-.148.038.258.258 0 0 1-.119-.028 1.307 1.307 0 0 1-.119-.066 3.777 3.777 0 0 0-.14-.088 1.333 1.333 0 0 0-.42-.157 1.596 1.596 0 0 0-.322-.028 1.192 1.192 0 0 0-.959.427 1.484 1.484 0 0 0-.273.511 2.3 2.3 0 0 0-.094.689c0 .262.035.494.105.697.072.203.169.374.29.514a1.252 1.252 0 0 0 .956.424c.107 0 .205-.005.294-.014a1.52 1.52 0 0 0 .248-.053 1.083 1.083 0 0 0 .424-.255.378.378 0 0 1 .09-.056.23.23 0 0 1 .102-.025Zm5.497-3.78v5.1h-1.19v-2.156h-2.072v2.156h-1.19v-5.1h1.19v2.132h2.072v-2.132h1.19Z" fill="#fff"/><rect x="1" y=".5" width="48" height="7" rx="1" fill="#7432FF"/><rect x="1" y=".5" width="48" height="7" rx="1" stroke="#7432FF"/><path d="M3.792 4.403c.309 0 .53-.073.665-.22.136-.147.204-.353.204-.616a.921.921 0 0 0-.053-.319.687.687 0 0 0-.43-.406 1.176 1.176 0 0 0-.385-.056h-.617v1.617h.616Zm0-2.502c.36 0 .668.043.925.129.259.084.47.2.637.35.167.15.291.325.37.529.08.203.12.422.12.658 0 .254-.041.487-.123.7a1.405 1.405 0 0 1-.375.545 1.77 1.77 0 0 1-.64.357 2.949 2.949 0 0 1-.914.127h-.615V7H1.993V1.9h1.798Zm7.552 2.548c0 .368-.064.711-.193 1.029a2.477 2.477 0 0 1-.535.829c-.231.233-.51.416-.837.55a2.843 2.843 0 0 1-1.081.199c-.397 0-.759-.067-1.085-.2a2.511 2.511 0 0 1-.84-.549 2.522 2.522 0 0 1-.54-.83 2.763 2.763 0 0 1-.188-1.029c0-.368.063-.711.189-1.029.128-.317.308-.592.539-.825.233-.234.513-.417.84-.55.326-.133.688-.2 1.085-.2.396 0 .757.068 1.081.203.327.133.606.317.837.55.23.233.41.509.535.826a2.7 2.7 0 0 1 .193 1.026Zm-1.211 0a2.19 2.19 0 0 0-.098-.68 1.425 1.425 0 0 0-.284-.514 1.2 1.2 0 0 0-.448-.322 1.548 1.548 0 0 0-.605-.112 1.58 1.58 0 0 0-.613.112 1.23 1.23 0 0 0-.451.322c-.122.14-.215.312-.28.514a2.176 2.176 0 0 0-.098.68c0 .254.032.482.098.686.065.2.158.37.28.51.123.14.274.248.451.323.18.072.384.108.613.108.226 0 .428-.036.605-.108a1.2 1.2 0 0 0 .448-.322c.124-.14.218-.31.284-.511a2.25 2.25 0 0 0 .098-.686Zm4.875 1.606V7h-3.073V1.9h1.183v4.155h1.89Zm2.273-.994V7h-1.183V5.061l-1.848-3.16h1.043c.102 0 .183.024.241.073.06.047.111.107.15.182l.722 1.484c.06.117.115.226.164.329.05.1.092.2.13.297a3.996 3.996 0 0 1 .28-.626l.714-1.484a.664.664 0 0 1 .06-.091.435.435 0 0 1 .188-.14.373.373 0 0 1 .137-.024h1.05L17.28 5.06Z" fill="#fff"/><path d="M7.726 9.65v5.1H6.684v-2.933c0-.068 0-.141.003-.22.005-.08.012-.16.021-.242l-1.354 2.621a.441.441 0 0 1-.413.249h-.162a.479.479 0 0 1-.244-.063.449.449 0 0 1-.168-.186l-1.355-2.628.018.248c.004.08.007.153.007.221v2.933H1.994v-5.1h.903c.05 0 .095.002.133.004.04.002.074.01.105.021a.21.21 0 0 1 .08.056c.026.023.05.057.074.101L4.6 12.42a6.494 6.494 0 0 1 .259.57 3.92 3.92 0 0 1 .262-.581l1.31-2.575a.423.423 0 0 1 .07-.102.241.241 0 0 1 .083-.056.34.34 0 0 1 .102-.021c.04-.002.085-.004.136-.004h.903Zm5.887 2.548c0 .37-.064.712-.192 1.03a2.478 2.478 0 0 1-.536.829c-.23.233-.51.416-.836.55a2.83 2.83 0 0 1-1.082.199c-.396 0-.758-.066-1.085-.2a2.512 2.512 0 0 1-.84-.549 2.523 2.523 0 0 1-.539-.83 2.763 2.763 0 0 1-.189-1.029c0-.368.063-.711.19-1.029.128-.317.307-.592.538-.825.234-.234.514-.417.84-.55.327-.133.689-.2 1.085-.2.397 0 .757.068 1.082.204.326.133.605.316.836.549.231.233.41.509.536.826.128.317.192.66.192 1.025Zm-1.21 0c0-.252-.033-.478-.099-.678a1.424 1.424 0 0 0-.283-.515 1.199 1.199 0 0 0-.448-.322 1.547 1.547 0 0 0-.606-.112c-.228 0-.433.037-.612.112a1.232 1.232 0 0 0-.452.322c-.121.14-.214.311-.28.514a2.206 2.206 0 0 0-.098.68c0 .254.033.482.098.685.066.201.159.371.28.511.124.14.274.248.452.322.18.073.384.109.612.109.227 0 .428-.036.606-.109a1.19 1.19 0 0 0 .448-.322c.123-.14.218-.31.283-.51.066-.204.098-.432.098-.687Zm6.253-2.548v5.1h-.616a.568.568 0 0 1-.23-.042.593.593 0 0 1-.183-.154l-2.404-3.042c.01.091.015.18.017.266.005.085.007.164.007.239v2.733h-1.043v-5.1h.623a.93.93 0 0 1 .13.008.298.298 0 0 1 .094.027c.028.012.055.03.08.053a.92.92 0 0 1 .088.095l2.426 3.062a4.236 4.236 0 0 1-.032-.546V9.65h1.043Zm5.89 2.548c0 .37-.064.712-.193 1.03a2.478 2.478 0 0 1-.535.829c-.231.233-.51.416-.837.55a2.82 2.82 0 0 1-1.081.199c-.397 0-.758-.066-1.085-.2a2.511 2.511 0 0 1-.84-.549 2.522 2.522 0 0 1-.54-.83 2.763 2.763 0 0 1-.188-1.029c0-.368.063-.711.189-1.029.128-.317.308-.592.539-.825.233-.234.513-.417.84-.55.326-.133.688-.2 1.085-.2s.757.068 1.081.204c.327.133.606.316.837.549.23.233.41.509.535.826.129.317.193.66.193 1.025Zm-1.211 0a2.19 2.19 0 0 0-.098-.678 1.424 1.424 0 0 0-.284-.515 1.2 1.2 0 0 0-.448-.322 1.547 1.547 0 0 0-.605-.112 1.58 1.58 0 0 0-.613.112 1.232 1.232 0 0 0-.451.322c-.121.14-.215.311-.28.514a2.19 2.19 0 0 0-.098.68c0 .254.033.482.098.685.065.201.159.371.28.511.123.14.274.248.451.322.18.073.384.109.613.109.226 0 .428-.036.605-.109a1.2 1.2 0 0 0 .448-.322c.124-.14.219-.31.284-.51.065-.204.098-.432.098-.687ZM7.726 17.4v5.1H6.684v-2.933c0-.068 0-.141.003-.22.005-.08.012-.16.021-.242l-1.354 2.622a.441.441 0 0 1-.413.248h-.162a.479.479 0 0 1-.244-.063.449.449 0 0 1-.168-.185l-1.355-2.629.018.248c.004.08.007.153.007.221V22.5H1.994v-5.1h.903c.05 0 .095.002.133.004.04.002.074.01.105.021a.21.21 0 0 1 .08.056c.026.023.05.057.074.101L4.6 20.17a6.494 6.494 0 0 1 .259.57 3.92 3.92 0 0 1 .262-.581l1.31-2.576a.423.423 0 0 1 .07-.101.241.241 0 0 1 .083-.056.339.339 0 0 1 .102-.021c.04-.002.085-.003.136-.003h.903Zm5.887 2.549c0 .368-.064.711-.192 1.028a2.478 2.478 0 0 1-.536.83c-.23.233-.51.417-.836.55a2.83 2.83 0 0 1-1.082.199c-.396 0-.758-.067-1.085-.2a2.512 2.512 0 0 1-.84-.549 2.523 2.523 0 0 1-.539-.83 2.763 2.763 0 0 1-.189-1.029c0-.368.063-.711.19-1.029.128-.317.307-.592.538-.826.234-.233.514-.416.84-.549.327-.133.689-.2 1.085-.2.397 0 .757.068 1.082.203.326.133.605.317.836.55.231.233.41.509.536.826.128.317.192.66.192 1.026Zm-1.21 0c0-.253-.033-.479-.099-.68a1.424 1.424 0 0 0-.283-.514 1.199 1.199 0 0 0-.448-.322 1.547 1.547 0 0 0-.606-.112c-.228 0-.433.037-.612.112a1.232 1.232 0 0 0-.452.322c-.121.14-.214.312-.28.515-.065.2-.098.427-.098.678 0 .255.033.483.098.686.066.201.159.372.28.511.124.14.274.248.452.323.18.072.384.108.612.108.227 0 .428-.036.606-.108.177-.075.326-.183.448-.323.123-.14.218-.31.283-.51.066-.204.098-.432.098-.687Zm6.253-2.549v5.1h-.616a.568.568 0 0 1-.23-.042.593.593 0 0 1-.183-.154l-2.404-3.041c.01.09.015.18.017.265.005.085.007.164.007.239V22.5h-1.043v-5.1h.623a.93.93 0 0 1 .13.008.299.299 0 0 1 .094.027c.028.012.055.03.08.053a.913.913 0 0 1 .088.095l2.426 3.062a4.236 4.236 0 0 1-.032-.546v-2.698h1.043Zm5.89 2.549c0 .368-.064.711-.193 1.028a2.478 2.478 0 0 1-.535.83c-.231.233-.51.417-.837.55a2.82 2.82 0 0 1-1.081.199c-.397 0-.758-.067-1.085-.2a2.511 2.511 0 0 1-.84-.549 2.522 2.522 0 0 1-.54-.83 2.763 2.763 0 0 1-.188-1.029c0-.368.063-.711.189-1.029.128-.317.308-.592.539-.826.233-.233.513-.416.84-.549.326-.133.688-.2 1.085-.2s.757.068 1.081.203c.327.133.606.317.837.55.23.233.41.509.535.826a2.7 2.7 0 0 1 .193 1.026Zm-1.211 0a2.19 2.19 0 0 0-.098-.68 1.424 1.424 0 0 0-.284-.514 1.2 1.2 0 0 0-.448-.322 1.547 1.547 0 0 0-.605-.112 1.58 1.58 0 0 0-.613.112 1.232 1.232 0 0 0-.451.322c-.121.14-.215.312-.28.515a2.19 2.19 0 0 0-.098.678c0 .255.033.483.098.686.065.201.159.372.28.511.123.14.274.248.451.323.18.072.384.108.613.108.226 0 .428-.036.605-.108a1.2 1.2 0 0 0 .448-.323c.124-.14.219-.31.284-.51.065-.204.098-.432.098-.687Zm6.135-1.513a.43.43 0 0 1-.112.127.239.239 0 0 1-.147.042.383.383 0 0 1-.175-.05 6.74 6.74 0 0 0-.21-.115 1.576 1.576 0 0 0-.266-.112 1.038 1.038 0 0 0-.343-.052c-.222 0-.388.047-.497.143a.48.48 0 0 0-.161.381c0 .103.032.188.098.256.065.068.15.126.255.175.107.049.229.095.364.136.138.04.278.086.42.137.142.049.281.107.417.175.137.068.259.154.364.259.107.105.193.233.259.385.065.15.098.33.098.543 0 .235-.041.456-.123.661-.082.205-.2.385-.357.539a1.661 1.661 0 0 1-.574.36 2.16 2.16 0 0 1-.773.13c-.16 0-.321-.016-.487-.049a3.013 3.013 0 0 1-.476-.137 2.882 2.882 0 0 1-.434-.213 1.847 1.847 0 0 1-.353-.273l.35-.553a.338.338 0 0 1 .108-.098.287.287 0 0 1 .15-.042c.07 0 .14.022.21.067l.242.146c.091.054.195.103.312.148.116.044.254.066.413.066.214 0 .381-.047.5-.14.12-.096.179-.246.179-.452a.425.425 0 0 0-.098-.29.753.753 0 0 0-.26-.186 2.3 2.3 0 0 0-.36-.129 13.251 13.251 0 0 1-.416-.122 3.388 3.388 0 0 1-.417-.168 1.393 1.393 0 0 1-.364-.263 1.269 1.269 0 0 1-.255-.406 1.627 1.627 0 0 1-.098-.602 1.446 1.446 0 0 1 .455-1.046c.149-.143.332-.256.55-.34.216-.086.465-.13.745-.13.156 0 .308.013.455.039a2.26 2.26 0 0 1 .794.28c.117.065.22.14.312.224l-.294.55Zm4.618-.098h-1.435V22.5H31.47v-4.162h-1.435V17.4h4.053v.939ZM7.726 25.15v5.1H6.684v-2.933c0-.068 0-.141.003-.22.005-.08.012-.16.021-.242l-1.354 2.622a.441.441 0 0 1-.413.248h-.162a.479.479 0 0 1-.244-.063.449.449 0 0 1-.168-.185l-1.355-2.629.018.248c.004.08.007.153.007.221v2.933H1.994v-5.1h.903c.05 0 .095.002.133.004.04.002.074.01.105.021a.21.21 0 0 1 .08.056c.026.023.05.057.074.101L4.6 27.92a6.494 6.494 0 0 1 .259.57 3.92 3.92 0 0 1 .262-.581l1.31-2.576a.423.423 0 0 1 .07-.101.241.241 0 0 1 .083-.056.339.339 0 0 1 .102-.021c.04-.002.085-.003.136-.003h.903Zm5.887 2.549c0 .368-.064.711-.192 1.028a2.478 2.478 0 0 1-.536.83c-.23.233-.51.417-.836.55a2.83 2.83 0 0 1-1.082.199c-.396 0-.758-.067-1.085-.2a2.512 2.512 0 0 1-.84-.549 2.523 2.523 0 0 1-.539-.83 2.763 2.763 0 0 1-.189-1.029c0-.368.063-.711.19-1.029.128-.317.307-.592.538-.826.234-.233.514-.416.84-.549.327-.133.689-.2 1.085-.2.397 0 .757.068 1.082.203.326.133.605.317.836.55.231.233.41.509.536.826.128.317.192.66.192 1.026Zm-1.21 0c0-.253-.033-.479-.099-.68a1.424 1.424 0 0 0-.283-.514 1.199 1.199 0 0 0-.448-.322 1.547 1.547 0 0 0-.606-.112c-.228 0-.433.037-.612.112a1.232 1.232 0 0 0-.452.322c-.121.14-.214.312-.28.515-.065.2-.098.427-.098.678 0 .255.033.483.098.686.066.201.159.372.28.511.124.14.274.248.452.323.18.072.384.108.612.108.227 0 .428-.036.606-.108.177-.075.326-.183.448-.323.123-.14.218-.31.283-.51.066-.204.098-.432.098-.687Zm6.253-2.549v5.1h-.616a.568.568 0 0 1-.23-.042.593.593 0 0 1-.183-.154l-2.404-3.041c.01.09.015.18.017.265.005.085.007.164.007.239v2.733h-1.043v-5.1h.623a.93.93 0 0 1 .13.008.299.299 0 0 1 .094.027c.028.012.055.03.08.053a.913.913 0 0 1 .088.095l2.426 3.062a4.236 4.236 0 0 1-.032-.546v-2.698h1.043Zm5.89 2.549c0 .368-.064.711-.193 1.028a2.478 2.478 0 0 1-.535.83c-.231.233-.51.417-.837.55a2.82 2.82 0 0 1-1.081.199c-.397 0-.758-.067-1.085-.2a2.511 2.511 0 0 1-.84-.549 2.522 2.522 0 0 1-.54-.83 2.763 2.763 0 0 1-.188-1.029c0-.368.063-.711.189-1.029.128-.317.308-.592.539-.826.233-.233.513-.416.84-.549.326-.133.688-.2 1.085-.2s.757.068 1.081.203c.327.133.606.317.837.55.23.233.41.509.535.826a2.7 2.7 0 0 1 .193 1.026Zm-1.211 0a2.19 2.19 0 0 0-.098-.68 1.424 1.424 0 0 0-.284-.514 1.2 1.2 0 0 0-.448-.322 1.547 1.547 0 0 0-.605-.112 1.58 1.58 0 0 0-.613.112 1.232 1.232 0 0 0-.451.322c-.121.14-.215.312-.28.515a2.19 2.19 0 0 0-.098.678c0 .255.033.483.098.686.065.201.159.372.28.511.123.14.274.248.451.323.18.072.384.108.613.108.226 0 .428-.036.605-.108a1.2 1.2 0 0 0 .448-.323c.124-.14.219-.31.284-.51.065-.204.098-.432.098-.687Zm4.507-1.639v1.292h1.743v.913h-1.743v1.985h-1.19v-5.1h3.283v.91h-2.093Zm4.469 1.593c.308 0 .53-.073.665-.22.135-.148.203-.353.203-.616a.921.921 0 0 0-.053-.319.686.686 0 0 0-.43-.406 1.177 1.177 0 0 0-.385-.056h-.616v1.617h.616Zm0-2.502c.36 0 .667.043.924.129.259.084.471.2.637.35.168.15.292.326.37.529.08.203.12.422.12.658 0 .254-.04.487-.123.7a1.404 1.404 0 0 1-.374.546 1.81 1.81 0 0 1-.64.357 2.948 2.948 0 0 1-.914.125h-.616v1.705h-1.183v-5.1h1.799ZM7.726 32.9V38H6.684v-2.933c0-.068 0-.141.003-.22.005-.08.012-.16.021-.242l-1.354 2.622a.441.441 0 0 1-.413.248h-.162a.479.479 0 0 1-.244-.063.449.449 0 0 1-.168-.185l-1.355-2.629.018.248c.004.08.007.153.007.221V38H1.994v-5.1h.903c.05 0 .095.002.133.004.04.002.074.01.105.021a.21.21 0 0 1 .08.056c.026.023.05.057.074.102L4.6 35.669c.047.089.091.18.133.277.044.095.086.193.126.294a3.92 3.92 0 0 1 .262-.581l1.31-2.576a.423.423 0 0 1 .07-.102.241.241 0 0 1 .083-.056.339.339 0 0 1 .102-.021c.04-.002.085-.004.136-.004h.903Zm5.887 2.549c0 .368-.064.711-.192 1.029a2.478 2.478 0 0 1-.536.829c-.23.233-.51.416-.836.55a2.83 2.83 0 0 1-1.082.199c-.396 0-.758-.066-1.085-.2a2.512 2.512 0 0 1-.84-.549 2.523 2.523 0 0 1-.539-.83 2.763 2.763 0 0 1-.189-1.028c0-.37.063-.712.19-1.03.128-.317.307-.592.538-.825.234-.234.514-.417.84-.55.327-.133.689-.2 1.085-.2.397 0 .757.068 1.082.203.326.134.605.317.836.55.231.233.41.509.536.826.128.317.192.66.192 1.026Zm-1.21 0c0-.252-.033-.479-.099-.68a1.424 1.424 0 0 0-.283-.514 1.199 1.199 0 0 0-.448-.322 1.547 1.547 0 0 0-.606-.112c-.228 0-.433.037-.612.112a1.232 1.232 0 0 0-.452.322c-.121.14-.214.311-.28.514a2.206 2.206 0 0 0-.098.68c0 .254.033.483.098.686.066.2.159.37.28.51.124.14.274.248.452.322.18.073.384.109.612.109.227 0 .428-.036.606-.108.177-.075.326-.183.448-.323.123-.14.218-.31.283-.51.066-.203.098-.432.098-.686Zm6.253-2.548V38h-.616a.568.568 0 0 1-.23-.042.593.593 0 0 1-.183-.154l-2.404-3.041c.01.09.015.18.017.266.005.083.007.163.007.237V38h-1.043v-5.1h.623a.93.93 0 0 1 .13.008.299.299 0 0 1 .094.027c.028.012.055.03.08.053a.913.913 0 0 1 .088.095l2.426 3.062a4.236 4.236 0 0 1-.032-.546v-2.698h1.043Zm5.89 2.547c0 .37-.064.712-.193 1.03a2.478 2.478 0 0 1-.535.829c-.231.233-.51.416-.837.55a2.82 2.82 0 0 1-1.081.199c-.397 0-.758-.066-1.085-.2a2.511 2.511 0 0 1-.84-.549 2.522 2.522 0 0 1-.54-.83 2.763 2.763 0 0 1-.188-1.028c0-.37.063-.712.189-1.03.128-.317.308-.592.539-.825.233-.234.513-.417.84-.55.326-.133.688-.2 1.085-.2s.757.068 1.081.203c.327.134.606.317.837.55.23.233.41.509.535.826a2.7 2.7 0 0 1 .193 1.026Zm-1.211 0a2.19 2.19 0 0 0-.098-.678 1.424 1.424 0 0 0-.284-.515 1.2 1.2 0 0 0-.448-.322 1.547 1.547 0 0 0-.605-.112 1.58 1.58 0 0 0-.613.112 1.232 1.232 0 0 0-.451.322c-.121.14-.215.311-.28.514a2.19 2.19 0 0 0-.098.68c0 .254.033.483.098.686.065.2.159.37.28.51.123.14.274.248.451.322.18.073.384.109.613.109.226 0 .428-.036.605-.108a1.2 1.2 0 0 0 .448-.323c.124-.14.219-.31.284-.51.065-.203.098-.432.098-.686Zm6.135-1.511a.43.43 0 0 1-.112.126.239.239 0 0 1-.147.041.383.383 0 0 1-.175-.048 6.74 6.74 0 0 0-.21-.116 1.576 1.576 0 0 0-.266-.112 1.038 1.038 0 0 0-.343-.053c-.222 0-.388.048-.497.144a.48.48 0 0 0-.161.382.35.35 0 0 0 .098.255c.065.068.15.126.255.175.107.049.229.094.364.136.138.04.278.086.42.137.142.049.281.107.417.175.137.068.259.154.364.259.107.105.193.233.259.385.065.15.098.33.098.542 0 .236-.041.457-.123.662-.082.205-.2.385-.357.539a1.661 1.661 0 0 1-.574.36 2.16 2.16 0 0 1-.773.13c-.16 0-.321-.016-.487-.049a3.013 3.013 0 0 1-.476-.136 2.882 2.882 0 0 1-.434-.214 1.847 1.847 0 0 1-.353-.273l.35-.553a.338.338 0 0 1 .108-.098.287.287 0 0 1 .15-.042c.07 0 .14.022.21.066l.242.148c.091.053.195.102.312.146.116.045.254.067.413.067.214 0 .381-.047.5-.14.12-.096.179-.246.179-.452a.425.425 0 0 0-.098-.29.753.753 0 0 0-.26-.185 2.3 2.3 0 0 0-.36-.13 13.251 13.251 0 0 1-.416-.123 3.388 3.388 0 0 1-.417-.168 1.393 1.393 0 0 1-.364-.262 1.269 1.269 0 0 1-.255-.406 1.627 1.627 0 0 1-.098-.602 1.446 1.446 0 0 1 .455-1.047 1.64 1.64 0 0 1 .55-.339c.216-.086.465-.13.745-.13.156 0 .308.013.455.039a2.26 2.26 0 0 1 .794.28c.117.065.22.14.312.224l-.294.55Zm4.618-.098h-1.435V38H31.47v-4.161h-1.435V32.9h4.053v.938Zm3.765 2.197h-1.295v1.393h-.882v-1.393h-1.288v-.776h1.288v-1.386h.882v1.386h1.295v.776Zm1.876-2.226v1.292h1.743v.914H39.73V38h-1.19v-5.1h3.283v.91H39.73Zm4.47 1.593c.307 0 .529-.073.664-.22.135-.148.203-.353.203-.617a.921.921 0 0 0-.052-.318.686.686 0 0 0-.43-.406 1.177 1.177 0 0 0-.386-.056h-.616v1.617h.616Zm0-2.502c.358 0 .666.043.923.129.26.084.471.2.637.35.168.15.292.325.371.528.08.203.12.423.12.658 0 .255-.042.488-.123.7a1.406 1.406 0 0 1-.375.547c-.168.151-.381.27-.64.356a2.949 2.949 0 0 1-.914.127h-.616V38H42.4v-5.1h1.8ZM5.066 44.805v.945H1.994v-5.1h1.182v4.155h1.89ZM8.261 43.8l-.472-1.396a6.208 6.208 0 0 1-.112-.312c-.04-.12-.08-.252-.12-.392a5.509 5.509 0 0 1-.223.711l-.47 1.39h1.397Zm1.88 1.95h-.917a.407.407 0 0 1-.249-.07.47.47 0 0 1-.143-.185l-.301-.89H6.59l-.3.89a.433.433 0 0 1-.14.178.385.385 0 0 1-.245.077h-.924l1.974-5.1h1.21l1.975 5.1Zm3.462-4.161h-1.435v4.161h-1.183v-4.161H9.55v-.938h4.053v.938Zm3.817 2.842a.21.21 0 0 1 .084.017c.028.01.055.027.08.053l.47.493a1.96 1.96 0 0 1-.774.609c-.308.135-.673.203-1.095.203-.388 0-.735-.065-1.043-.196a2.307 2.307 0 0 1-.78-.546 2.441 2.441 0 0 1-.49-.826 3.066 3.066 0 0 1-.172-1.04c0-.38.062-.729.185-1.046a2.348 2.348 0 0 1 1.327-1.365 2.695 2.695 0 0 1 1.032-.193c.192 0 .371.018.54.053a2.46 2.46 0 0 1 .881.354c.124.084.233.175.33.273l-.4.535a.56.56 0 0 1-.09.091.244.244 0 0 1-.148.038.262.262 0 0 1-.119-.028 1.62 1.62 0 0 1-.119-.066 3.046 3.046 0 0 0-.14-.087 1.31 1.31 0 0 0-.42-.158 1.618 1.618 0 0 0-.322-.028c-.196 0-.375.036-.539.108a1.182 1.182 0 0 0-.42.319 1.482 1.482 0 0 0-.273.511c-.063.2-.094.43-.094.69 0 .26.035.493.105.696.072.203.169.374.29.514a1.26 1.26 0 0 0 .956.424c.107 0 .205-.005.294-.014a1.142 1.142 0 0 0 .465-.15 1.47 1.47 0 0 0 .207-.158.368.368 0 0 1 .09-.056.225.225 0 0 1 .102-.024Zm5.497-3.78v5.099h-1.19v-2.156h-2.072v2.156h-1.19v-5.1h1.19v2.132h2.072v-2.131h1.19Z" fill="#B4B4B4"/></svg>