<svg width="106" height="18" fill="none" xmlns="http://www.w3.org/2000/svg"><path d="M1 3a2 2 0 0 1 2-2h98a2 2 0 0 1 2 2v11a2 2 0 0 1-2 2H3a2 2 0 0 1-2-2V3Z" fill="url(#a)"/><path d="M3 1.5h98v-1H3v1ZM102.5 3v11h1V3h-1ZM101 15.5H3v1h98v-1ZM1.5 14V3h-1v11h1ZM3 15.5A1.5 1.5 0 0 1 1.5 14h-1A2.5 2.5 0 0 0 3 16.5v-1Zm99.5-1.5a1.5 1.5 0 0 1-1.5 1.5v1a2.5 2.5 0 0 0 2.5-2.5h-1ZM101 1.5a1.5 1.5 0 0 1 1.5 1.5h1A2.5 2.5 0 0 0 101 .5v1ZM3 .5A2.5 2.5 0 0 0 .5 3h1A1.5 1.5 0 0 1 3 1.5v-1Zm93 10-2.5-3h5l-2.5 3Z" fill="#fff"/><defs><linearGradient id="a" x1="52" y1="1" x2="52" y2="16" gradientUnits="userSpaceOnUse"><stop stop-color="#553783"/><stop offset=".094" stop-color="#380D53"/><stop offset=".922" stop-color="#12051D"/><stop offset="1" stop-color="#281643"/></linearGradient></defs></svg>