<svg width="12" height="34" fill="none" xmlns="http://www.w3.org/2000/svg"><path d="M1.5 21.5a2 2 0 0 1 2-2h5a2 2 0 0 1 2 2v8a2 2 0 0 1-2 2h-5a2 2 0 0 1-2-2v-8Z" fill="#242424"/><rect x="3.5" y="21.5" width="5" height="8" rx=".5" fill="#7432FF"/><rect x="3.5" y="21.5" width="5" height="8" rx=".5" stroke="#7432FF"/><path d="M3.5 20h5v-1h-5v1Zm6.5 1.5v8h1v-8h-1ZM8.5 31h-5v1h5v-1ZM2 29.5v-8H1v8h1ZM3.5 31A1.5 1.5 0 0 1 2 29.5H1A2.5 2.5 0 0 0 3.5 32v-1Zm6.5-1.5A1.5 1.5 0 0 1 8.5 31v1a2.5 2.5 0 0 0 2.5-2.5h-1ZM8.5 20a1.5 1.5 0 0 1 1.5 1.5h1A2.5 2.5 0 0 0 8.5 19v1Zm-5-1A2.5 2.5 0 0 0 1 21.5h1A1.5 1.5 0 0 1 3.5 20v-1Z" fill="#000"/><path d="M6.5 28h-1v-2h-2v-1h2v-2h1v2h2v1h-2v2Z" fill="#fff"/><path d="M1.5 3.5a2 2 0 0 1 2-2h5a2 2 0 0 1 2 2v8a2 2 0 0 1-2 2h-5a2 2 0 0 1-2-2v-8Z" fill="#242424"/><path d="M3.5 2h5V1h-5v1ZM10 3.5v8h1v-8h-1ZM8.5 13h-5v1h5v-1ZM2 11.5v-8H1v8h1ZM3.5 13A1.5 1.5 0 0 1 2 11.5H1A2.5 2.5 0 0 0 3.5 14v-1Zm6.5-1.5A1.5 1.5 0 0 1 8.5 13v1a2.5 2.5 0 0 0 2.5-2.5h-1ZM8.5 2A1.5 1.5 0 0 1 10 3.5h1A2.5 2.5 0 0 0 8.5 1v1Zm-5-1A2.5 2.5 0 0 0 1 3.5h1A1.5 1.5 0 0 1 3.5 2V1Z" fill="#000"/><path d="M6.5 10h-1V8h-2V7h2V5h1v2h2v1h-2v2Z" fill="#B4B4B4"/></svg>