<svg width="16" height="24" fill="none" xmlns="http://www.w3.org/2000/svg"><path d="M.5 2.5a2 2 0 0 1 2-2h13v11h-13a2 2 0 0 1-2-2v-7Z" fill="#242424"/><path d="M15.5.5h.5V0h-.5v.5Zm0 11v.5h.5v-.5h-.5ZM2.5 1h13V0h-13v1ZM15 .5v11h1V.5h-1Zm.5 10.5h-13v1h13v-1ZM1 9.5v-7H0v7h1ZM2.5 11A1.5 1.5 0 0 1 1 9.5H0A2.5 2.5 0 0 0 2.5 12v-1Zm0-11A2.5 2.5 0 0 0 0 2.5h1A1.5 1.5 0 0 1 2.5 1V0Z" fill="#000"/><path d="M8.25 4a3.821 3.821 0 0 0-2.997 1.415L4 4.235V8h4L6.64 6.72C7 5.686 8.031 4.94 9.25 4.94 10.77 4.94 12 6.1 12 7.528 12 5.58 10.321 4 8.25 4Z" fill="#B4B4B4"/><path d="M.5 14.5a2 2 0 0 1 2-2h13v11h-13a2 2 0 0 1-2-2v-7Z" fill="#242424"/><path d="M2.5 15.5a1 1 0 0 1 1-1h10v7h-10a1 1 0 0 1-1-1v-5Z" fill="#242424"/><path d="M2.5 15.5a1 1 0 0 1 1-1h10v7h-10a1 1 0 0 1-1-1v-5Z" stroke="#242424"/><path d="M15.5 12.5h.5V12h-.5v.5Zm0 11v.5h.5v-.5h-.5ZM2.5 13h13v-1h-13v1Zm12.5-.5v11h1v-11h-1Zm.5 10.5h-13v1h13v-1ZM1 21.5v-7H0v7h1ZM2.5 23A1.5 1.5 0 0 1 1 21.5H0A2.5 2.5 0 0 0 2.5 24v-1Zm0-11A2.5 2.5 0 0 0 0 14.5h1A1.5 1.5 0 0 1 2.5 13v-1Z" fill="#000"/><path d="M8.25 16a3.821 3.821 0 0 0-2.997 1.415L4 16.235V20h4l-1.36-1.28c.36-1.034 1.391-1.78 2.61-1.78 1.52 0 2.75 1.16 2.75 2.588C12 17.58 10.321 16 8.25 16Z" fill="#B4B4B4"/></svg>