<svg width="22" height="30" fill="none" xmlns="http://www.w3.org/2000/svg"><rect x="2.5" y="2" width="15" height="8" rx="1" fill="#242424"/><rect x="2.5" y="2" width="15" height="8" rx="1" stroke="#000"/><path d="M12.867 3.4v5.1h-1.043V5.567c0-.068 0-.141.003-.22.005-.08.012-.16.021-.242l-1.354 2.621a.44.44 0 0 1-.413.249H9.92a.479.479 0 0 1-.245-.063.45.45 0 0 1-.168-.186L8.152 5.098l.018.248c.004.08.007.153.007.221V8.5H7.134V3.4h.903c.051 0 .095.002.133.004.04.002.074.01.105.021a.21.21 0 0 1 .08.056c.026.023.05.057.074.102L9.74 6.168c.047.089.091.18.133.277.044.095.086.193.126.293a3.943 3.943 0 0 1 .263-.581l1.309-2.576a.425.425 0 0 1 .07-.101.242.242 0 0 1 .084-.056.341.341 0 0 1 .101-.021c.04-.002.085-.003.137-.003h.903Z" fill="#B4B4B4"/><rect x="2.5" y="17" width="15" height="8" rx="1" fill="#9C77EB"/><rect x="2.5" y="17" width="15" height="8" rx="1" stroke="#000"/><path d="M12.867 18.4v5.1h-1.043v-2.933c0-.068 0-.141.003-.22.005-.08.012-.16.021-.242l-1.354 2.622a.44.44 0 0 1-.413.248H9.92a.479.479 0 0 1-.245-.063.449.449 0 0 1-.168-.185l-1.355-2.629.018.248c.004.08.007.153.007.221V23.5H7.134v-5.1h.903a2.2 2.2 0 0 1 .133.004c.04.002.074.01.105.021a.21.21 0 0 1 .08.056c.026.023.05.057.074.101L9.74 21.17a6.494 6.494 0 0 1 .259.57 3.949 3.949 0 0 1 .263-.581l1.309-2.576a.425.425 0 0 1 .07-.101.242.242 0 0 1 .084-.056.34.34 0 0 1 .101-.021c.04-.002.085-.003.137-.003h.903Z" fill="#000"/></svg>