<svg width="16" height="16" fill="none" xmlns="http://www.w3.org/2000/svg"><path fill-rule="evenodd" clip-rule="evenodd" d="M9.678 1.5v1.465c0 .08-.065.145-.143.145h-3.07a.145.145 0 0 1-.143-.145V1.5C3.546 2.253 1.5 4.827 1.5 7.888 1.5 11.54 4.41 14.5 8 14.5s6.5-2.96 6.5-6.612c0-3.06-2.046-5.635-4.822-6.388Z" fill="#000"/><path fill-rule="evenodd" clip-rule="evenodd" d="M9.678 1.5v1.465c0 .08-.065.145-.143.145h-3.07a.145.145 0 0 1-.143-.145V1.5C3.546 2.253 1.5 4.827 1.5 7.888 1.5 11.54 4.41 14.5 8 14.5s6.5-2.96 6.5-6.612c0-3.06-2.046-5.635-4.822-6.388Zm-5.71 7.682a.719.719 0 0 1-.694-.547H3.12c-.237 0-.43-.082-.43-.182 0-.1.193-.182.43-.182h.154a.718.718 0 0 1 .693-.546c.334 0 .613.232.693.546h.131c.236 0 .43.082.43.182 0 .1-.194.182-.43.182H4.66a.718.718 0 0 1-.693.547Zm1.512 2.362a.7.7 0 0 1-.232-.04l-.078.138c-.119.209-.285.338-.37.288-.085-.05-.059-.261.06-.47l.09-.157a.733.733 0 0 1-.186-.488.723.723 0 0 1 .866-.712l.065-.115c.119-.208.285-.337.37-.287.086.05.059.261-.06.47l-.054.096c.15.134.246.33.246.549a.723.723 0 0 1-.717.728Zm2.7 1.061v.182c0 .24-.081.437-.18.437-.099 0-.18-.197-.18-.437v-.182a.726.726 0 0 1-.536-.704c0-.34.228-.624.537-.705v-.109c0-.24.08-.437.179-.437.099 0 .18.197.18.437v.109a.726.726 0 0 1 .536.704c0 .34-.228.624-.537.705Zm3.014-.675c-.085.05-.252-.08-.37-.287l-.076-.135a.709.709 0 0 1-.222.036.731.731 0 0 1-.478-1.27l-.059-.103c-.118-.209-.145-.42-.06-.47.085-.05.252.08.37.287l.067.118a.723.723 0 0 1 .877.71.732.732 0 0 1-.193.495l.085.15c.118.208.145.419.06.47Zm1.677-3.295h-.142a.718.718 0 0 1-.693.547.719.719 0 0 1-.693-.547H11.2c-.237 0-.43-.082-.43-.182 0-.1.193-.182.43-.182h.143a.718.718 0 0 1 .693-.546c.334 0 .613.232.693.546h.142c.236 0 .43.082.43.182 0 .1-.194.182-.43.182Z" fill="#C2A5FF"/><path clip-rule="evenodd" d="M9.678 1.5v1.465c0 .08-.065.145-.143.145h-3.07a.145.145 0 0 1-.143-.145V1.5C3.546 2.253 1.5 4.827 1.5 7.888 1.5 11.54 4.41 14.5 8 14.5s6.5-2.96 6.5-6.612c0-3.06-2.046-5.635-4.822-6.388Z" stroke="#000"/></svg>