<svg width="252" height="72" fill="none" xmlns="http://www.w3.org/2000/svg"><path fill-rule="evenodd" clip-rule="evenodd" d="M18 39.3c-7.956 0-14.4 6.712-14.4 15 0 6.638 4.122 12.244 9.846 14.231.72.131.99-.319.99-.712 0-.356-.018-1.538-.018-2.794-3.618.694-4.554-.919-4.842-1.763-.162-.43-.864-1.762-1.476-2.118-.504-.282-1.224-.975-.018-.994 1.134-.019 1.944 1.087 2.214 1.538 1.296 2.268 3.366 1.63 4.194 1.237.126-.975.504-1.631.918-2.006-3.204-.375-6.552-1.669-6.552-7.406 0-1.632.558-2.982 1.476-4.032-.144-.375-.648-1.912.144-3.975 0 0 1.206-.394 3.96 1.538a12.862 12.862 0 0 1 3.6-.507c1.224 0 2.448.17 3.6.507 2.754-1.95 3.96-1.538 3.96-1.538.792 2.063.288 3.6.144 3.975.918 1.05 1.476 2.381 1.476 4.032 0 5.756-3.366 7.03-6.57 7.406.522.469.972 1.369.972 2.775 0 2.006-.018 3.618-.018 4.125 0 .394.27.862.99.712 5.688-1.987 9.81-7.612 9.81-14.231 0-8.288-6.444-15-14.4-15Z" fill="#fff"/><path fill-rule="evenodd" clip-rule="evenodd" d="M18 3.3c-7.956 0-14.4 6.712-14.4 15 0 6.637 4.122 12.244 9.846 14.231.72.132.99-.319.99-.712 0-.357-.018-1.538-.018-2.794-3.618.694-4.554-.919-4.842-1.762-.162-.432-.864-1.763-1.476-2.12-.504-.28-1.224-.974-.018-.993 1.134-.019 1.944 1.088 2.214 1.538 1.296 2.268 3.366 1.63 4.194 1.237.126-.975.504-1.631.918-2.006-3.204-.375-6.552-1.669-6.552-7.407 0-1.63.558-2.98 1.476-4.03-.144-.376-.648-1.913.144-3.976 0 0 1.206-.394 3.96 1.538a12.862 12.862 0 0 1 3.6-.507c1.224 0 2.448.17 3.6.507 2.754-1.95 3.96-1.538 3.96-1.538.792 2.063.288 3.6.144 3.975.918 1.05 1.476 2.382 1.476 4.031 0 5.757-3.366 7.032-6.57 7.407.522.468.972 1.369.972 2.775 0 2.006-.018 3.619-.018 4.125 0 .393.27.862.99.712 5.688-1.987 9.81-7.612 9.81-14.231 0-8.288-6.444-15-14.4-15Z" fill="#7432FF"/><path fill-rule="evenodd" clip-rule="evenodd" d="M70.675 43.69v20.57h-33.35V43.69h33.35Zm.325-.315H37V64.575H71V43.375Z" fill="#fff"/><path fill-rule="evenodd" clip-rule="evenodd" d="M42.883 60.083c-.118.258-.473.944-1.39.944-.768 0-1.507-.486-1.507-1.659 0-.687.414-1.602 1.508-1.602.828 0 1.153.515 1.3.944l-.59.143c-.03-.343-.326-.572-.68-.572-.533 0-.888.372-.888 1.087 0 .43.178 1.087.887 1.087.414 0 .68-.314.77-.63l.59.258ZM44.805 57.766c.976 0 1.538.772 1.538 1.602 0 .715-.385 1.66-1.538 1.66-.946 0-1.537-.745-1.537-1.631 0-.887.591-1.631 1.537-1.631Zm0 2.718c.473 0 .917-.343.917-1.059 0-.543-.296-1.116-.946-1.116-.533 0-.917.401-.917 1.088.03.486.266 1.087.946 1.087ZM49.27 60.942c0-.086.059-2.547.059-2.547l-.68 2.547h-.532l-.68-2.547s.059 2.432.059 2.547h-.592v-3.09h.858l.62 2.289.622-2.29h.857v3.09h-.591ZM52.02 57.852c.65 0 1.123.4 1.123 1.03 0 .572-.326 1.001-1.183 1.001h-.62v1.059h-.592v-3.09h1.271Zm-.651 1.573h.532c.414 0 .65-.2.65-.543 0-.487-.414-.515-.71-.515h-.443v1.058h-.03ZM55.39 60.942l-.178-.601H54l-.177.6h-.65l1.063-3.09h.68l1.094 3.09h-.62Zm-.742-2.518-.5 1.43h1l-.5-1.43ZM57.252 58.367v2.575h-.591v-2.575h-.858v-.515h2.366v.515h-.917ZM58.612 60.942v-3.09h1v3.09h-1ZM61.54 57.852c.68 0 .975.372.975.772 0 .258-.148.601-.532.63.295.057.68.286.68.83 0 .428-.266.886-1.065.886H60.12v-3.118h1.42Zm-.829 1.486h.592c.266 0 .59-.111.59-.519 0-.407-.324-.481-.56-.481h-.622v1Zm0 1.202h.799c.413 0 .561-.22.561-.47 0-.468-.443-.53-.68-.53h-.68v1ZM63.431 60.942v-3.09h.592v2.575h1.27v.515h-1.862ZM65.678 60.942v-3.09h2.277v.515H66.27v.715h1.537v.486H66.27v.83h1.803v.515h-2.395v.029ZM57.37 48.782h10.703l.03 1.831H67.6c-.177-.63-.65-1.058-1.449-1.258-.443-.115-1.123-.2-2.01-.2v4.577c0 .315.118.458.325.543.237.115.71.115 1.42.115v.4h-6.298v-.4c.68 0 1.153-.057 1.39-.143.236-.115.354-.2.354-.515v-4.578c-.857 0-1.537.086-1.98.2-.858.23-1.331.659-1.45 1.26H57.4l-.03-1.832Z" fill="#fff"/><path fill-rule="evenodd" clip-rule="evenodd" d="m48.974 51.872.976.115.03.028a3.48 3.48 0 0 0 1.862 1.717c.857.372 1.862.543 2.986.543 1.094 0 1.862-.114 2.306-.371.443-.23.65-.487.65-.744 0-.286-.236-.544-.68-.716-.325-.143-.975-.314-1.921-.515l-1.567-.343c-1.538-.343-2.661-.687-3.282-1.03-.65-.343-.976-.801-.976-1.316 0-.544.444-1.059 1.301-1.545.858-.458 2.158-.687 3.903-.687.887 0 1.744.058 2.572.172.532.086 1.271.172 1.419.172.325 0 .444-.057.503-.086a.685.685 0 0 0 .236-.258l.03-.028h.828v2.489h-.887l-.03-.029c-.325-.543-.887-1.001-1.685-1.373-.798-.4-1.774-.572-2.898-.572-.798 0-1.448.086-1.892.286-.443.172-.65.4-.65.658 0 .315.207.544.62.715.444.172 1.42.43 2.898.744l1.804.4c.798.172 1.448.372 1.921.601.917.43 1.39.945 1.39 1.545 0 .573-.503 1.116-1.478 1.602-.947.487-2.513.744-4.612.744-.474 0-.976-.028-1.479-.057-.502-.028-1.005-.114-1.478-.171l-.473-.086c-.118 0-.207-.029-.296-.029-.088 0-.177-.029-.266-.029-.236 0-.384.03-.473.086-.089.058-.148.143-.236.258l-.03.028h-.946v-2.918Z" fill="#fff"/><path fill-rule="evenodd" clip-rule="evenodd" d="M59.972 47.094v2.346h-.68c-.325-.543-.887-1.001-1.685-1.402-.798-.4-1.774-.6-2.927-.6-.828 0-1.449.085-1.922.286-.473.2-.71.429-.71.715 0 .343.237.6.68.772.444.172 1.42.43 2.928.744l1.803.4c.798.173 1.449.373 1.922.602.887.4 1.33.915 1.33 1.487 0 .544-.473 1.059-1.448 1.545-.947.487-2.484.716-4.583.716-.473 0-.976-.03-1.478-.058a13.002 13.002 0 0 1-1.478-.171l-.474-.086c-.118 0-.206-.029-.325-.029-.088 0-.177-.028-.266-.028-.236 0-.414.028-.502.086a.602.602 0 0 0-.237.286h-.857v-2.776l.857.115a3.387 3.387 0 0 0 1.892 1.745c.887.372 1.863.544 2.986.544 1.094 0 1.863-.115 2.336-.372.473-.258.68-.515.68-.801 0-.315-.237-.573-.74-.801-.324-.144-.975-.315-1.92-.515l-1.568-.344c-1.537-.343-2.631-.686-3.282-1.03-.62-.343-.946-.744-.946-1.259 0-.514.414-1.03 1.242-1.487.857-.458 2.129-.687 3.873-.687.887 0 1.744.057 2.543.172.828.114 1.3.171 1.419.171.266 0 .443-.028.562-.085a.785.785 0 0 0 .236-.287h.74m.117-.057h-.917l-.029.057c-.059.086-.118.172-.207.23-.03.028-.147.085-.473.085-.148 0-1.094-.143-1.39-.172a18.777 18.777 0 0 0-2.571-.171c-1.745 0-3.075.229-3.932.715-.887.486-1.331 1.002-1.331 1.602 0 .544.355 1.002 1.035 1.373.65.344 1.744.687 3.311 1.03l1.567.344c.946.2 1.597.372 1.922.515.414.172.65.4.65.658 0 .229-.207.458-.62.687-.444.228-1.213.343-2.277.343-1.094 0-2.1-.172-2.957-.544-.887-.343-1.478-.915-1.862-1.688l-.03-.086h-.089l-.857-.114h-.118V54.876H50.009l.03-.057a.536.536 0 0 1 .206-.229c.03-.029.148-.086.444-.086.059 0 .148 0 .236.029.089 0 .207.029.325.029l.474.085c.473.086.975.143 1.478.172.502.029 1.005.057 1.478.057 2.129 0 3.696-.257 4.671-.744 1.006-.515 1.508-1.058 1.508-1.659 0-.63-.473-1.173-1.419-1.602-.473-.23-1.153-.43-1.951-.601l-1.804-.4c-1.478-.315-2.454-.573-2.897-.744-.384-.143-.591-.372-.591-.63 0-.229.206-.429.62-.6.444-.2 1.094-.287 1.893-.287 1.123 0 2.099.2 2.867.572.799.372 1.33.83 1.656 1.345l.03.057h.916V46.951h-.089Z" fill="#000"/><path fill-rule="evenodd" clip-rule="evenodd" d="m45.249 54.962-4.465-5.064a1.757 1.757 0 0 0-.532-.43c-.177-.085-.68-.142-1.123-.142h-.06v-.4h6.21v.428h-.06c-.62.03-1.005.058-1.212.086-.207.029-.207.115-.207.2v.115c0 .029.03.057.06.086l2.6 3.09h.03l2.247-2.833c.06-.057.089-.114.119-.171a.448.448 0 0 0 .088-.23c0-.085-.03-.2-.236-.228-.178-.029-.591-.057-1.183-.086h-.059v-.43h4.08v.401h-.06c-.442.03-1.004.086-1.182.172-.207.086-.384.258-.59.486l-3.933 4.95h-.532Z" fill="#fff"/><path fill-rule="evenodd" clip-rule="evenodd" d="M51.517 48.983v.286c-.414.028-1.006.086-1.213.171-.207.086-.413.258-.62.515l-3.933 4.95h-.473l-4.464-5.064c-.178-.2-.355-.343-.562-.43-.177-.085-.739-.142-1.153-.17v-.287h6.061v.286c-.62.029-1.035.057-1.212.086-.178.029-.266.114-.266.257 0 .029 0 .086.03.115.029.028.058.086.088.114l2.631 3.119h.119l2.276-2.833c.06-.057.089-.114.148-.2.06-.114.089-.2.089-.257 0-.172-.09-.258-.296-.286a7.486 7.486 0 0 0-1.183-.086v-.286h3.932Zm.147-.143h-4.228v.572h.148c.592.028.976.057 1.153.086.178.028.178.085.178.143 0 .028 0 .085-.089.2-.03.057-.089.114-.118.172l-2.218 2.775-2.572-3.033c-.03-.029-.059-.057-.059-.086v-.086c0-.028 0-.085.148-.114.177-.029.562-.057 1.183-.086h.147v-.572h-6.356V49.354h.118c.503.03.946.086 1.094.144.177.085.355.228.503.4l4.464 5.035.03.058h.591l.03-.058 3.99-4.92c.178-.23.385-.372.563-.458.147-.086.62-.143 1.153-.172h.118V48.84h.03Z" fill="#000"/><path fill-rule="evenodd" clip-rule="evenodd" d="M68.014 47.61c-.71 0-1.301-.573-1.301-1.26 0-.686.591-1.258 1.3-1.258.71 0 1.302.572 1.302 1.23.03.715-.532 1.287-1.301 1.287Zm0-2.433c-.65 0-1.183.515-1.183 1.145s.503 1.144 1.183 1.144c.65 0 1.183-.515 1.183-1.116 0-.658-.503-1.173-1.183-1.173Zm-.03.344c.414 0 .592.143.592.457 0 .258-.119.372-.355.458l.384.687h-.296l-.354-.658h-.207v.658h-.266V45.52h.502Zm-.207 1.2h.39c.444 0 .61-.167.61-.5 0-.333-.222-.5-.666-.5h-.334v1Z" fill="#fff"/><path fill-rule="evenodd" clip-rule="evenodd" d="M70.675 7.69v20.57h-33.35V7.69h33.35ZM71 7.375H37V28.575H71V7.375Z" fill="#7432FF"/><path fill-rule="evenodd" clip-rule="evenodd" d="M42.883 24.083c-.118.258-.473.944-1.39.944-.768 0-1.507-.486-1.507-1.659 0-.687.414-1.602 1.508-1.602.828 0 1.153.515 1.3.944l-.59.143c-.03-.343-.326-.572-.68-.572-.533 0-.888.372-.888 1.087 0 .43.178 1.087.887 1.087.414 0 .68-.314.77-.63l.59.258ZM44.805 21.766c.976 0 1.538.772 1.538 1.602 0 .715-.385 1.66-1.538 1.66-.946 0-1.537-.744-1.537-1.631s.591-1.631 1.537-1.631Zm0 2.718c.473 0 .917-.344.917-1.059 0-.543-.296-1.116-.946-1.116-.533 0-.917.401-.917 1.088.03.486.266 1.087.946 1.087ZM49.27 24.942c0-.086.059-2.547.059-2.547l-.68 2.547h-.532l-.68-2.547s.059 2.432.059 2.547h-.592v-3.09h.858l.62 2.288.622-2.288h.857v3.09h-.591ZM52.02 21.852c.65 0 1.123.4 1.123 1.03 0 .572-.326 1.001-1.183 1.001h-.62v1.059h-.592v-3.09h1.271Zm-.651 1.573h.532c.414 0 .65-.2.65-.543 0-.487-.414-.515-.71-.515h-.443v1.058h-.03ZM55.39 24.942l-.178-.601H54l-.177.6h-.65l1.063-3.09h.68l1.095 3.09h-.621Zm-.742-2.518-.5 1.43h1l-.5-1.43ZM57.252 22.367v2.575h-.591v-2.575h-.858v-.515h2.366v.515h-.917ZM58.612 24.942v-3.09h1v3.09h-1ZM61.54 21.852c.68 0 .975.372.975.772 0 .258-.148.6-.532.63.295.057.68.286.68.83 0 .428-.266.886-1.065.886H60.12v-3.118h1.42Zm-.829 1.486h.592c.266 0 .59-.111.59-.518 0-.408-.324-.482-.56-.482h-.622v1Zm0 1.202h.799c.413 0 .561-.22.561-.47 0-.468-.443-.53-.68-.53h-.68v1ZM63.431 24.942v-3.09h.592v2.575h1.27v.515h-1.862ZM65.678 24.942v-3.09h2.277v.515H66.27v.715h1.537v.486H66.27v.83h1.803v.515h-2.395v.029ZM57.37 12.782h10.703l.03 1.831H67.6c-.177-.63-.65-1.058-1.449-1.258-.443-.115-1.123-.2-2.01-.2v4.577c0 .315.118.457.325.543.237.115.71.115 1.42.115v.4h-6.298v-.4c.68 0 1.153-.057 1.39-.143.236-.115.354-.2.354-.515v-4.578c-.857 0-1.537.086-1.98.2-.858.23-1.331.659-1.45 1.26H57.4l-.03-1.832Z" fill="#7432FF"/><path fill-rule="evenodd" clip-rule="evenodd" d="m48.974 15.872.976.115.03.028a3.48 3.48 0 0 0 1.862 1.717c.857.372 1.862.543 2.986.543 1.094 0 1.862-.114 2.306-.371.443-.23.65-.487.65-.744 0-.287-.236-.544-.68-.716-.325-.143-.975-.314-1.921-.515l-1.567-.343c-1.538-.343-2.661-.687-3.282-1.03-.65-.343-.976-.801-.976-1.316 0-.543.444-1.059 1.301-1.545.858-.458 2.158-.687 3.903-.687.887 0 1.744.058 2.572.172.532.086 1.271.172 1.419.172.325 0 .444-.057.503-.086a.685.685 0 0 0 .236-.258l.03-.028h.828v2.489h-.887l-.03-.029c-.325-.543-.887-1.001-1.685-1.373-.798-.4-1.774-.572-2.898-.572-.798 0-1.448.086-1.892.286-.443.172-.65.4-.65.658 0 .315.207.544.62.715.444.172 1.42.43 2.898.744l1.804.4c.798.172 1.448.373 1.921.601.917.43 1.39.945 1.39 1.545 0 .573-.503 1.116-1.478 1.603-.947.486-2.513.743-4.613.743-.473 0-.975-.028-1.478-.057-.502-.028-1.005-.114-1.478-.172l-.473-.085c-.118 0-.207-.029-.296-.029-.088 0-.177-.028-.266-.028-.236 0-.384.028-.473.085-.089.057-.148.143-.236.258l-.03.028h-.946v-2.918Z" fill="#7432FF"/><path fill-rule="evenodd" clip-rule="evenodd" d="M59.972 11.094v2.346h-.68c-.325-.543-.887-1.001-1.685-1.402-.798-.4-1.774-.6-2.927-.6-.828 0-1.449.085-1.922.286-.473.2-.71.429-.71.715 0 .343.237.6.68.772.444.172 1.42.43 2.928.744l1.803.4c.798.172 1.449.373 1.922.602.887.4 1.33.915 1.33 1.487 0 .544-.473 1.059-1.448 1.545-.947.487-2.484.716-4.583.716-.473 0-.976-.029-1.478-.058a13.002 13.002 0 0 1-1.478-.171l-.474-.086c-.118 0-.206-.029-.325-.029-.088 0-.177-.028-.266-.028-.236 0-.414.028-.502.086a.602.602 0 0 0-.237.286h-.857v-2.776l.857.115a3.387 3.387 0 0 0 1.892 1.745c.887.372 1.863.544 2.986.544 1.094 0 1.863-.115 2.336-.372.473-.258.68-.515.68-.801 0-.315-.237-.573-.74-.802-.325-.143-.975-.314-1.921-.514l-1.567-.344c-1.537-.343-2.631-.686-3.282-1.03-.62-.343-.946-.744-.946-1.259 0-.514.414-1.03 1.242-1.487.857-.458 2.129-.687 3.873-.687.887 0 1.744.057 2.543.172.828.114 1.3.171 1.419.171.266 0 .443-.028.562-.085a.785.785 0 0 0 .236-.287h.74m.117-.057h-.917l-.029.057c-.059.086-.118.172-.207.23-.03.028-.147.085-.473.085-.148 0-1.094-.143-1.39-.171a18.78 18.78 0 0 0-2.571-.172c-1.745 0-3.075.229-3.933.715-.886.486-1.33 1.002-1.33 1.602 0 .544.355 1.002 1.035 1.374.65.343 1.744.686 3.311 1.03l1.567.343c.946.2 1.596.372 1.922.515.414.171.65.4.65.658 0 .229-.207.458-.62.687-.444.228-1.213.343-2.277.343-1.094 0-2.1-.172-2.957-.544-.887-.343-1.478-.915-1.862-1.688l-.03-.086h-.089l-.857-.114h-.118V18.876H50.009l.03-.057a.537.537 0 0 1 .206-.229c.03-.029.148-.086.444-.086.059 0 .148 0 .236.029.089 0 .207.028.325.028l.474.086c.473.086.975.143 1.478.172.502.029 1.005.057 1.478.057 2.129 0 3.696-.257 4.671-.744 1.006-.515 1.508-1.058 1.508-1.659 0-.63-.473-1.173-1.419-1.602-.473-.23-1.153-.43-1.951-.601l-1.804-.4c-1.478-.315-2.454-.573-2.897-.744-.384-.143-.591-.372-.591-.63 0-.229.206-.429.62-.6.444-.2 1.094-.287 1.892-.287 1.124 0 2.1.2 2.868.572.799.372 1.33.83 1.656 1.345l.03.057h.916V10.951h-.089Z" fill="#1A1A18"/><path fill-rule="evenodd" clip-rule="evenodd" d="m45.249 18.962-4.465-5.064a1.756 1.756 0 0 0-.532-.43c-.177-.085-.68-.142-1.123-.142h-.06v-.4h6.21v.428h-.06a15.75 15.75 0 0 0-1.212.086c-.207.029-.207.115-.207.2v.115c0 .029.03.057.06.086l2.6 3.09h.03l2.247-2.833c.06-.057.089-.114.119-.171a.448.448 0 0 0 .088-.23c0-.085-.03-.2-.236-.228-.178-.029-.591-.057-1.183-.086h-.059v-.43h4.08v.402h-.06c-.443.028-1.004.085-1.182.171-.207.086-.384.258-.591.486l-3.932 4.95h-.532Z" fill="#7432FF"/><path fill-rule="evenodd" clip-rule="evenodd" d="M51.517 12.983v.286c-.414.028-1.006.085-1.213.171-.207.086-.413.258-.62.515l-3.933 4.95h-.473l-4.464-5.064c-.178-.2-.355-.343-.562-.43-.177-.085-.739-.142-1.153-.171v-.286h6.061v.286c-.62.029-1.035.057-1.212.086-.178.028-.266.114-.266.257 0 .029 0 .086.03.115.029.028.058.086.088.114l2.631 3.119h.119l2.276-2.833c.06-.057.089-.114.148-.2.06-.114.089-.2.089-.257 0-.172-.09-.258-.296-.287a7.486 7.486 0 0 0-1.183-.085v-.286h3.932Zm.147-.144h-4.228v.573h.148c.592.028.976.057 1.153.085.178.03.178.086.178.144 0 .028 0 .085-.089.2-.03.057-.089.114-.118.171l-2.218 2.776-2.572-3.033c-.03-.029-.059-.057-.059-.086v-.086c0-.028 0-.085.148-.114.177-.029.562-.057 1.183-.086h.147v-.572h-6.356V13.354h.118c.503.03.946.086 1.094.144.177.085.355.228.503.4l4.464 5.035.03.058h.591l.03-.058 3.99-4.92c.178-.23.385-.372.563-.458.147-.086.62-.143 1.153-.172h.118V12.84h.03Z" fill="#1A1A18"/><path fill-rule="evenodd" clip-rule="evenodd" d="M68.014 11.61c-.71 0-1.301-.573-1.301-1.26 0-.686.591-1.258 1.3-1.258.71 0 1.302.572 1.302 1.23.03.715-.532 1.287-1.301 1.287Zm0-2.433c-.65 0-1.183.515-1.183 1.145s.503 1.144 1.183 1.144c.65 0 1.183-.515 1.183-1.116 0-.658-.503-1.173-1.183-1.173Zm-.03.344c.414 0 .592.143.592.458 0 .257-.119.371-.355.457l.384.687h-.296l-.354-.658h-.207v.658h-.266V9.52h.502Zm-.207 1.2h.39c.444 0 .61-.167.61-.5 0-.333-.222-.5-.666-.5h-.334v1Z" fill="#7432FF"/><path clip-rule="evenodd" d="M106.5 70.5h-33v-33h33v33Z" stroke="#fff"/><path fill-rule="evenodd" clip-rule="evenodd" d="M81.316 51.57c0 1.987.689 3.933 1.94 5.472l.977-.795a7.426 7.426 0 0 1-.006-9.349l-.977-.793a8.714 8.714 0 0 0-1.934 5.466Z" fill="#fff"/><path fill-rule="evenodd" clip-rule="evenodd" d="M78.912 51.57c0 2.533.877 5.009 2.468 6.974l.976-.791a9.854 9.854 0 0 1-2.189-6.182c0-2.246.775-4.44 2.184-6.18l-.978-.791a11.12 11.12 0 0 0-2.46 6.97Z" fill="#fff"/><path fill-rule="evenodd" clip-rule="evenodd" d="M76.534 51.57c0 3.078 1.067 6.086 3.001 8.475l.979-.792a12.244 12.244 0 0 1-2.722-7.682c0-2.787.963-5.511 2.71-7.67l-.978-.794a13.502 13.502 0 0 0-2.99 8.464ZM95.762 46.898a7.442 7.442 0 0 1 1.651 4.673c0 1.7-.59 3.36-1.658 4.676l.975.795a8.694 8.694 0 0 0 1.943-5.471 8.708 8.708 0 0 0-1.935-5.466l-.976.794Z" fill="#fff"/><path fill-rule="evenodd" clip-rule="evenodd" d="M97.637 45.392a9.86 9.86 0 0 1 2.182 6.179 9.85 9.85 0 0 1-2.188 6.182l.977.791a11.112 11.112 0 0 0 2.468-6.973c0-2.533-.876-5.008-2.462-6.971l-.977.791Z" fill="#fff"/><path fill-rule="evenodd" clip-rule="evenodd" d="M99.485 43.9a12.233 12.233 0 0 1 2.709 7.67c0 2.79-.966 5.518-2.72 7.683l.978.792a13.503 13.503 0 0 0 3.002-8.474c0-3.074-1.062-6.08-2.99-8.464l-.979.793M84.313 51.57a5.689 5.689 0 0 0 5.68 5.683 5.688 5.688 0 0 0 5.682-5.682 5.688 5.688 0 0 0-5.681-5.684 5.688 5.688 0 0 0-5.681 5.684Zm1.202 0c0-2.47 2.01-4.478 4.479-4.478a4.482 4.482 0 0 1 4.476 4.479 4.481 4.481 0 0 1-4.476 4.477 4.483 4.483 0 0 1-4.48-4.477ZM79.707 67.21h-.629l-.344-1.076h-1.196l-.327 1.076h-.612l1.184-3.679h.732l1.192 3.68Zm-1.064-1.527-.315-.966c-.034-.097-.097-.33-.188-.695h-.01c-.04.157-.097.388-.178.695l-.309.966h1ZM82.372 67.21h-.519l-.032-.398h-.01c-.188.304-.466.456-.843.456-.263 0-.47-.079-.627-.238-.188-.202-.28-.506-.28-.909v-1.566h.591v1.466c0 .51.177.767.523.767.26 0 .443-.13.544-.385a.611.611 0 0 0 .038-.224v-1.624h.592v1.894c0 .251.007.506.023.761ZM85.469 67.21h-.525l-.028-.42H84.9c-.168.32-.453.478-.853.478-.32 0-.588-.125-.798-.374-.213-.25-.319-.573-.319-.976 0-.429.117-.776.346-1.04.225-.249.5-.374.825-.374.359 0 .61.123.753.362v-1.523h.592V66.5c0 .259.006.497.022.712Zm-.614-1.114v-.442a.815.815 0 0 0-.017-.186.65.65 0 0 0-.213-.357.57.57 0 0 0-.394-.148.602.602 0 0 0-.517.264c-.127.175-.188.4-.188.672 0 .261.058.478.179.64.127.174.3.263.517.263a.57.57 0 0 0 .464-.22.737.737 0 0 0 .169-.486M87.117 63.91a.482.482 0 0 1-.144.364.498.498 0 0 1-.371.14.457.457 0 0 1-.345-.145.498.498 0 0 1-.14-.36.482.482 0 0 1 .5-.495.485.485 0 0 1 .5.495m.067 3.301h-1v-2.655h1v2.655ZM89.948 65.865c0 .408-.116.744-.35 1.006-.243.265-.567.397-.972.397-.391 0-.701-.128-.933-.385-.23-.257-.345-.58-.345-.976 0-.409.117-.746.356-1.01.24-.26.56-.393.965-.393.39 0 .703.132.942.39.225.25.337.573.337.971Zm-.611.016c0-.244-.053-.453-.16-.629-.123-.21-.3-.317-.53-.317a.591.591 0 0 0-.54.317c-.106.176-.159.39-.159.64 0 .243.053.455.16.629.125.21.304.318.535.318.226 0 .402-.11.529-.324.11-.177.165-.39.165-.634ZM94.574 65.669c0 .541-.133.95-.394 1.222-.24.251-.58.377-1.018.377-.897 0-1.345-.53-1.345-1.588V63.53h.593v2.18c0 .36.072.636.217.82a.66.66 0 0 0 .558.264c.53 0 .796-.362.796-1.085v-2.179h.593v2.138ZM97.617 67.21h-.593v-1.518c0-.472-.177-.706-.534-.706a.54.54 0 0 0-.43.195.69.69 0 0 0-.162.456v1.573h-.593v-1.893c0-.234-.008-.486-.02-.762h.519l.027.412h.017a.882.882 0 0 1 .306-.315c.162-.098.34-.148.538-.148a.85.85 0 0 1 .618.241c.204.196.307.49.307.882v1.584ZM99.23 63.91a.475.475 0 0 1-.142.364.503.503 0 0 1-.373.14.459.459 0 0 1-.346-.145.498.498 0 0 1-.138-.36.484.484 0 0 1 .5-.495.49.49 0 0 1 .357.14.474.474 0 0 1 .143.355m.065 3.301h-1v-2.655h1v2.655ZM100.971 65.001h-.653v1.288c0 .327.115.49.345.49.105 0 .193-.006.263-.023l.017.447a1.539 1.539 0 0 1-.459.059c-.235 0-.416-.07-.547-.208-.133-.144-.197-.38-.197-.712V65h-.388v-.446h.388v-.482l.578-.174v.656h.653v.446ZM103.107 66.447a.728.728 0 0 1-.274.594c-.182.148-.434.22-.754.22-.303 0-.56-.057-.771-.17l.125-.44c.205.124.42.188.651.188.3 0 .452-.114.452-.336a.323.323 0 0 0-.099-.24c-.065-.066-.181-.13-.349-.189-.471-.177-.707-.43-.707-.767 0-.23.086-.42.262-.575.174-.151.405-.228.692-.228.263 0 .487.054.672.16l-.125.42a1.014 1.014 0 0 0-.538-.156c-.124 0-.222.028-.291.088a.287.287 0 0 0-.103.224c0 .093.039.166.109.223.062.056.183.118.36.183.458.174.688.442.688.801Z" fill="#fff"/><path clip-rule="evenodd" d="M106.5 34.5h-33v-33h33v33Z" stroke="#7432FF"/><path fill-rule="evenodd" clip-rule="evenodd" d="M81.316 15.57c0 1.988.689 3.933 1.94 5.472l.977-.795a7.426 7.426 0 0 1-.006-9.348l-.977-.794a8.714 8.714 0 0 0-1.934 5.466Z" fill="#7432FF"/><path fill-rule="evenodd" clip-rule="evenodd" d="M78.912 15.57c0 2.533.877 5.009 2.468 6.974l.976-.791a9.854 9.854 0 0 1-2.189-6.182c0-2.246.775-4.44 2.184-6.18l-.978-.791a11.12 11.12 0 0 0-2.46 6.97Z" fill="#7432FF"/><path fill-rule="evenodd" clip-rule="evenodd" d="M76.534 15.57c0 3.078 1.067 6.086 3.001 8.475l.979-.792a12.244 12.244 0 0 1-2.722-7.682c0-2.787.963-5.511 2.71-7.671l-.978-.793a13.502 13.502 0 0 0-2.99 8.464ZM95.762 10.899a7.442 7.442 0 0 1 1.651 4.672c0 1.7-.59 3.36-1.658 4.676l.975.795a8.694 8.694 0 0 0 1.943-5.471 8.708 8.708 0 0 0-1.935-5.466l-.976.793Z" fill="#7432FF"/><path fill-rule="evenodd" clip-rule="evenodd" d="M97.637 9.392a9.86 9.86 0 0 1 2.182 6.179 9.85 9.85 0 0 1-2.188 6.182l.977.791a11.112 11.112 0 0 0 2.468-6.973c0-2.533-.876-5.008-2.462-6.971l-.977.792Z" fill="#7432FF"/><path fill-rule="evenodd" clip-rule="evenodd" d="M99.485 7.9a12.232 12.232 0 0 1 2.709 7.67c0 2.79-.966 5.518-2.72 7.683l.978.792a13.503 13.503 0 0 0 3.002-8.474c0-3.074-1.062-6.08-2.99-8.464l-.979.793M84.313 15.57a5.689 5.689 0 0 0 5.68 5.683 5.688 5.688 0 0 0 5.682-5.682 5.688 5.688 0 0 0-5.681-5.684 5.688 5.688 0 0 0-5.681 5.684Zm1.202 0c0-2.47 2.01-4.478 4.479-4.478a4.482 4.482 0 0 1 4.476 4.479 4.481 4.481 0 0 1-4.476 4.477 4.483 4.483 0 0 1-4.48-4.477ZM79.707 31.21h-.629l-.344-1.076h-1.196l-.327 1.076h-.612l1.184-3.679h.732l1.192 3.68Zm-1.064-1.527-.315-.966c-.034-.097-.097-.33-.188-.695h-.01c-.04.157-.097.388-.178.695l-.309.966h1ZM82.372 31.21h-.519l-.032-.398h-.01c-.188.304-.466.456-.843.456-.263 0-.47-.079-.627-.238-.188-.202-.28-.506-.28-.909v-1.566h.591v1.466c0 .51.177.767.523.767.26 0 .443-.13.544-.384a.611.611 0 0 0 .038-.225v-1.624h.592v1.894c0 .251.007.506.023.761ZM85.469 31.21h-.525l-.028-.42H84.9c-.168.32-.453.478-.853.478-.32 0-.588-.125-.798-.374-.213-.25-.319-.572-.319-.976 0-.429.117-.776.346-1.04.225-.249.5-.374.825-.374.359 0 .61.123.753.362v-1.523h.592V30.5c0 .259.006.497.022.712m-.614-1.115v-.442a.815.815 0 0 0-.017-.186.65.65 0 0 0-.213-.357.57.57 0 0 0-.394-.148.603.603 0 0 0-.517.264c-.127.175-.188.4-.188.672 0 .261.058.478.179.64.127.174.3.263.517.263a.57.57 0 0 0 .464-.22.737.737 0 0 0 .169-.486ZM87.117 27.91a.482.482 0 0 1-.144.364.498.498 0 0 1-.371.14.457.457 0 0 1-.345-.145.497.497 0 0 1-.14-.36.482.482 0 0 1 .5-.495.485.485 0 0 1 .5.495Zm.067 3.3h-1v-2.655h1v2.655ZM89.948 29.866c0 .407-.116.743-.35 1.005-.243.265-.567.397-.972.397-.391 0-.701-.128-.933-.385-.23-.256-.345-.58-.345-.976 0-.409.117-.746.356-1.01.24-.26.56-.393.965-.393.39 0 .703.132.942.39.225.25.337.574.337.972Zm-.611.015c0-.244-.053-.453-.16-.629-.123-.21-.3-.317-.53-.317a.592.592 0 0 0-.54.317c-.106.176-.159.39-.159.64 0 .243.053.455.159.629.126.21.305.318.536.318.226 0 .402-.11.529-.324.11-.177.165-.39.165-.634M94.574 29.669c0 .541-.133.951-.394 1.222-.24.251-.58.377-1.018.377-.897 0-1.345-.53-1.345-1.588V27.53h.593v2.18c0 .36.072.636.217.82a.66.66 0 0 0 .558.264c.53 0 .796-.362.796-1.085v-2.179h.593v2.138ZM97.617 31.21h-.593v-1.518c0-.472-.177-.706-.534-.706a.54.54 0 0 0-.43.195.69.69 0 0 0-.162.456v1.573h-.593v-1.893c0-.234-.008-.486-.02-.762h.519l.027.412h.017a.882.882 0 0 1 .306-.315c.162-.098.34-.148.538-.148a.85.85 0 0 1 .618.241c.204.196.307.49.307.882v1.584ZM99.23 27.91a.475.475 0 0 1-.142.364.503.503 0 0 1-.373.14.458.458 0 0 1-.346-.145.498.498 0 0 1-.138-.36.484.484 0 0 1 .5-.495.49.49 0 0 1 .357.14.474.474 0 0 1 .143.355Zm.066 3.3h-1v-2.655h1v2.655ZM100.971 29.001h-.653v1.288c0 .327.115.49.345.49.105 0 .193-.006.263-.023l.017.447a1.535 1.535 0 0 1-.459.059c-.235 0-.416-.07-.547-.208-.133-.144-.197-.38-.197-.712V29h-.388v-.446h.388v-.482l.578-.174v.656h.653v.446ZM103.107 30.447a.728.728 0 0 1-.274.594c-.182.148-.434.22-.754.22-.303 0-.56-.057-.771-.17l.125-.44c.205.125.42.188.651.188.3 0 .452-.113.452-.336a.323.323 0 0 0-.099-.24c-.065-.066-.181-.13-.349-.189-.471-.177-.707-.43-.707-.767 0-.23.086-.42.262-.575.174-.151.405-.228.692-.228.263 0 .487.054.672.16l-.125.42a1.014 1.014 0 0 0-.538-.156c-.124 0-.222.028-.291.088a.287.287 0 0 0-.103.224c0 .093.039.166.109.223.062.056.183.118.36.183.458.174.688.442.688.801Z" fill="#7432FF"/><path fill-rule="evenodd" clip-rule="evenodd" d="M131.503 37.2h8.891l-13.697 24.042c-.782 1.34-1.545 2.371-2.289 3.094-.744.723-1.432 1.248-2.062 1.576-.631.329-1.173.52-1.627.572-.454.053-.77.079-.946.079H111.6v-20.77h7.644l.037 14.267 12.222-22.86ZM114.465 69.217c.013-.09-.002-.152-.045-.186h.002a.276.276 0 0 0-.172-.047h-1.421a.468.468 0 0 0-.236.061c-.064.034-.104.075-.121.123l-.15.431h1.048l-.105.303h-1.049l-.322.923h-.293l.579-1.657a.701.701 0 0 1 .296-.349.843.843 0 0 1 .459-.14h1.421c.151 0 .263.045.337.13.081.087.103.224.067.408h-.295ZM116.563 69.797c.006-.086-.019-.144-.073-.174a.217.217 0 0 0-.07-.029.506.506 0 0 0-.081-.006h-.686a.537.537 0 0 0-.206.042c-.078.03-.124.07-.142.117l-.376 1.078h-.293l.538-1.54h.293l-.022.065a.771.771 0 0 1 .311-.064h.689c.13 0 .237.034.32.103.099.084.128.22.088.408h-.29ZM119.165 69.743c-.05.142-.159.26-.326.35a.855.855 0 0 1-.418.113h-.687a.668.668 0 0 1-.271-.059l-.072.206-.001.005c-.01.043.013.082.072.116a.252.252 0 0 0 .162.049h.687a.403.403 0 0 0 .174-.034.422.422 0 0 0 .195-.175h.29a.863.863 0 0 1-.765.511h-.686a.514.514 0 0 1-.332-.108c-.111-.09-.142-.209-.09-.356l.215-.616a.64.64 0 0 1 .318-.349.882.882 0 0 1 .428-.11h.685c.145 0 .26.035.346.106.101.086.127.203.076.35Zm-.272.266a.614.614 0 0 0-.042-.325c-.046-.118-.112-.178-.199-.178h-.696c-.06 0-.129.044-.206.133a.644.644 0 0 0-.146.363.566.566 0 0 0 .062.363c.052.094.112.14.178.14h.699c.083 0 .162-.056.235-.17a.714.714 0 0 0 .115-.326ZM121.464 69.743c-.049.142-.158.26-.325.35a.858.858 0 0 1-.419.113h-.686a.679.679 0 0 1-.128-.012.805.805 0 0 1-.143-.047l-.072.206-.002.005c-.01.043.014.082.073.116a.252.252 0 0 0 .162.049h.686a.42.42 0 0 0 .175-.034.422.422 0 0 0 .195-.175h.289a.856.856 0 0 1-.763.511h-.687a.516.516 0 0 1-.332-.108c-.112-.09-.142-.209-.09-.356l.215-.616a.633.633 0 0 1 .318-.349.88.88 0 0 1 .427-.11h.686c.145 0 .26.035.345.106.102.086.128.203.076.35Zm-.27.266a.623.623 0 0 0-.043-.325c-.046-.118-.112-.178-.198-.178h-.696c-.061 0-.13.044-.207.133a.644.644 0 0 0-.146.363.566.566 0 0 0 .062.363c.052.094.112.14.179.14h.698c.083 0 .161-.056.235-.17a.727.727 0 0 0 .116-.326ZM125.882 70.687a.806.806 0 0 1-.452.138h-1.426c-.149 0-.261-.042-.335-.125-.081-.09-.103-.228-.068-.413h.29c-.01.087.006.15.047.187h-.002c.042.032.1.05.174.05h1.425a.47.47 0 0 0 .234-.062c.066-.035.107-.078.124-.125l.086-.246c.016-.048.004-.09-.037-.125-.043-.041-.108-.062-.193-.062h-1.423c-.16 0-.28-.046-.359-.138-.085-.094-.104-.212-.054-.352l.086-.246a.696.696 0 0 1 .296-.349.84.84 0 0 1 .459-.14h1.425c.15 0 .261.045.334.13.081.087.104.224.068.408h-.29c.009-.087-.007-.15-.048-.187h.002a.274.274 0 0 0-.172-.046h-1.426a.478.478 0 0 0-.238.06c-.065.034-.105.076-.121.123l-.086.246a.111.111 0 0 0 .033.128c.044.04.109.061.196.061h1.426c.162 0 .281.046.357.138.084.097.102.213.054.35l-.086.246a.673.673 0 0 1-.3.351ZM128.149 70.713a.861.861 0 0 1-.419.112h-.686a.512.512 0 0 1-.34-.11c-.106-.09-.133-.208-.082-.353l.215-.617c.05-.142.159-.26.326-.351a.867.867 0 0 1 .421-.113h.686a.51.51 0 0 1 .333.106c.11.092.139.21.088.356l-.216.619c-.05.142-.159.259-.326.35Zm.249-.96c.016-.05-.004-.09-.061-.123a.322.322 0 0 0-.174-.044h-.686a.503.503 0 0 0-.202.042c-.08.034-.128.076-.144.125l-.217.663c-.016.049.004.09.06.123a.325.325 0 0 0 .174.047h.688a.49.49 0 0 0 .201-.044c.081-.035.129-.078.145-.129l.216-.66ZM129.543 69.588l-.467 1.237h-.317l.636-1.684a.678.678 0 0 1 .308-.346.995.995 0 0 1 .496-.113l-.112.298a.992.992 0 0 0-.272.068c-.056.028-.09.06-.103.093l-.055.145h.316l-.114.302h-.316ZM131.013 69.588l-.554 1.238h-.377l.554-1.238h-.372l.135-.302h.371l.271-.606h.378l-.271.606h.374l-.135.302h-.374ZM133.04 70.707a.782.782 0 0 1-.419.116.732.732 0 0 1-.237-.037.453.453 0 0 1-.186-.115c-.089.05-.18.09-.273.115a.966.966 0 0 1-.267.04c-.15 0-.261-.038-.335-.113-.083-.086-.097-.203-.045-.351l.376-1.076h.292l-.376 1.078c-.016.046-.003.083.04.113.048.03.113.046.199.046a.523.523 0 0 0 .228-.046c.064-.028.105-.067.122-.115l.233-.663h.292l-.232.665c-.017.047-.003.084.041.11a.35.35 0 0 0 .194.046.528.528 0 0 0 .23-.046c.066-.028.105-.065.121-.11l.377-1.079h.295l-.376 1.076a.649.649 0 0 1-.294.346ZM135.242 70.715a.898.898 0 0 1-.425.11h-.686a.52.52 0 0 1-.348-.108c-.103-.086-.128-.202-.076-.351a.632.632 0 0 1 .325-.349.862.862 0 0 1 .421-.112h.686a.652.652 0 0 1 .268.059l.073-.21c.01-.043-.014-.082-.07-.116a.285.285 0 0 0-.161-.05h-.686a.385.385 0 0 0-.177.035.41.41 0 0 0-.195.175h-.29a.882.882 0 0 1 .371-.406.815.815 0 0 1 .394-.106h.688c.135 0 .247.035.333.106.111.089.141.207.088.356l-.215.616a.648.648 0 0 1-.318.351Zm.047-.105a.58.58 0 0 0-.062-.363c-.052-.093-.111-.141-.176-.141h-.698c-.081 0-.16.059-.238.171a.716.716 0 0 0-.115.326.641.641 0 0 0 .039.333c.048.113.114.17.199.17h.7c.069 0 .137-.04.203-.123a.706.706 0 0 0 .148-.373ZM137.773 69.797c.006-.086-.019-.144-.074-.174a.211.211 0 0 0-.069-.029.506.506 0 0 0-.081-.006h-.686a.528.528 0 0 0-.205.042c-.079.03-.126.07-.144.117l-.375 1.078h-.293l.537-1.54h.293l-.022.065a.952.952 0 0 1 .162-.05.748.748 0 0 1 .15-.014h.688c.131 0 .237.034.32.103.1.084.128.22.088.408h-.289ZM140.374 69.743c-.049.142-.158.26-.325.35a.861.861 0 0 1-.419.113h-.686a.653.653 0 0 1-.271-.059l-.072.206-.002.005c-.01.043.014.082.072.116a.256.256 0 0 0 .163.049h.686a.395.395 0 0 0 .174-.034.418.418 0 0 0 .195-.175h.29a.863.863 0 0 1-.765.511h-.686a.516.516 0 0 1-.332-.108c-.112-.09-.141-.209-.09-.356l.216-.616a.628.628 0 0 1 .317-.349.884.884 0 0 1 .427-.11h.687c.143 0 .259.035.344.106.103.086.129.203.077.35Zm-.271.266a.614.614 0 0 0-.042-.325c-.046-.118-.112-.178-.199-.178h-.695c-.061 0-.13.044-.207.133a.644.644 0 0 0-.146.363.56.56 0 0 0 .062.363c.052.094.111.14.179.14h.698c.083 0 .161-.056.235-.17a.714.714 0 0 0 .115-.326ZM140.394 65.024c0 .438-.185.807-.557 1.105-.341.29-.768.434-1.278.434h-4.492c-.471 0-.87-.132-1.196-.395-.352-.284-.574-.716-.669-1.3h.914c.065.274.183.47.356.589h-.007c.168.103.369.154.601.154h4.493c.257 0 .48-.062.669-.186.168-.113.252-.247.252-.402v-.773c0-.145-.084-.274-.252-.388a1.185 1.185 0 0 0-.676-.2h-2.392v-.952h2.399c.262 0 .486-.064.669-.193.168-.113.252-.246.252-.395v-.773c0-.145-.084-.274-.252-.387a1.18 1.18 0 0 0-.676-.202h-4.486a1.11 1.11 0 0 0-.594.155h.007c-.178.109-.299.304-.363.588h-.914c.089-.588.307-1.016.654-1.284.326-.274.73-.41 1.21-.41h4.493c.5 0 .926.144 1.277.433.372.305.558.673.558 1.106 0 .377-.015.72-.045 1.029a.832.832 0 0 1-.148.426 2.763 2.763 0 0 1-.327.379c.143.14.253.268.327.387.084.145.134.283.148.418.031.304.045.65.045 1.037Z" fill="#fff"/><path fill-rule="evenodd" clip-rule="evenodd" d="m116.87 61.176-.63.41v2.374l.63.419v.521c-.256-.164-.515-.33-.779-.501l-.774-.501-.736-.477-.669-.437c-.081-.039-.12-.108-.12-.205 0-.09.039-.158.12-.202l2.959-1.926v.525h-.001Zm-.962 2.502v-1.801l-1.371.825c-.046.027-.069.052-.069.073 0 .025.023.05.069.074l1.371.83ZM116.669 56.545c.134.176.201.389.201.639V59.4a.998.998 0 0 1-.197.63c-.137.182-.304.272-.505.272h-1.676c-.195 0-.361-.09-.5-.271a1.023 1.023 0 0 1-.201-.639v-2.22c0-.232.062-.429.187-.59.124-.169.32-.278.588-.327v.451c-.129.032-.219.092-.271.18a.56.56 0 0 0-.067.29v2.216c0 .132.029.245.088.337.049.081.108.121.176.121h1.676c.071 0 .132-.04.183-.12l-.003.003a.6.6 0 0 0 .088-.334v-2.216a.644.644 0 0 0-.071-.308c-.048-.108-.116-.161-.2-.161h-.617v1.794h-.433v-2.242h1.053c.196 0 .362.093.501.279ZM115.349 51.808c.131.168.197.38.197.635v2.675h1.324v.45h-2.377c-.195 0-.362-.09-.501-.27a1.023 1.023 0 0 1-.2-.639v-2.216c0-.247.066-.458.2-.631.139-.184.306-.276.501-.276h.352c.199 0 .368.09.504.272Zm-.69.176a.397.397 0 0 0-.287.125.447.447 0 0 0-.143.334v2.22c0 .112.036.214.108.304.073.1.18.15.322.15h1.01v-2.674c0-.13-.046-.241-.138-.334a.41.41 0 0 0-.299-.125h-.573ZM116.184 46.807c.209.037.376.14.503.308a.96.96 0 0 1 .184.594v2.22c0 .25-.066.462-.198.635-.136.184-.304.275-.504.275h-2.374v-.458h2.374c.07 0 .132-.04.183-.122l-.003.004a.607.607 0 0 0 .087-.334v-2.22a.586.586 0 0 0-.07-.293v.004a.404.404 0 0 0-.264-.18v-.36l.082-.073Z" fill="#fff"/><path fill-rule="evenodd" clip-rule="evenodd" d="M131.503 1.2h8.891l-13.697 24.042c-.782 1.34-1.545 2.371-2.289 3.094-.744.723-1.432 1.248-2.062 1.577-.631.328-1.173.519-1.627.57-.454.054-.77.08-.946.08H111.6V9.793h7.644l.037 14.267L131.503 1.2ZM114.465 33.217c.013-.09-.002-.152-.045-.186h.002a.276.276 0 0 0-.172-.047h-1.421a.468.468 0 0 0-.236.061c-.064.034-.104.075-.121.122l-.15.432h1.048l-.105.303h-1.049l-.322.923h-.293l.579-1.658a.701.701 0 0 1 .296-.348.843.843 0 0 1 .459-.14h1.421c.151 0 .263.045.337.13.081.087.103.224.067.408h-.295ZM116.563 33.797c.006-.086-.019-.144-.073-.174a.217.217 0 0 0-.07-.029.506.506 0 0 0-.081-.007h-.686a.537.537 0 0 0-.206.043c-.078.03-.124.07-.142.117l-.376 1.078h-.293l.538-1.54h.293l-.022.065a.771.771 0 0 1 .311-.064h.689c.13 0 .237.034.32.103.099.084.128.22.088.408h-.29ZM119.165 33.743c-.05.142-.159.26-.326.35a.855.855 0 0 1-.418.113h-.687a.668.668 0 0 1-.271-.059l-.072.206-.001.005c-.01.044.013.082.072.116a.252.252 0 0 0 .162.049h.687a.403.403 0 0 0 .174-.034.422.422 0 0 0 .195-.175h.29a.863.863 0 0 1-.765.511h-.686a.514.514 0 0 1-.332-.108c-.111-.09-.142-.209-.09-.356l.215-.616a.64.64 0 0 1 .318-.349.882.882 0 0 1 .428-.11h.685c.145 0 .26.035.346.106.101.086.127.202.076.35Zm-.272.266a.613.613 0 0 0-.042-.325c-.046-.118-.112-.178-.199-.178h-.696c-.06 0-.129.044-.206.133a.644.644 0 0 0-.146.363.566.566 0 0 0 .062.362c.052.095.112.142.178.142h.699c.083 0 .162-.057.235-.171a.714.714 0 0 0 .115-.326ZM121.464 33.743c-.049.142-.158.26-.325.35a.858.858 0 0 1-.419.113h-.686a.679.679 0 0 1-.128-.012.805.805 0 0 1-.143-.047l-.072.206-.002.005c-.01.044.014.082.073.116a.252.252 0 0 0 .162.049h.686a.42.42 0 0 0 .175-.034.422.422 0 0 0 .195-.175h.289a.856.856 0 0 1-.763.511h-.687a.516.516 0 0 1-.332-.108c-.112-.09-.142-.209-.09-.356l.215-.616a.633.633 0 0 1 .318-.349.88.88 0 0 1 .427-.11h.686c.145 0 .26.035.345.106.102.086.128.202.076.35Zm-.27.266a.623.623 0 0 0-.043-.325c-.046-.118-.112-.178-.198-.178h-.696c-.061 0-.13.044-.207.133a.644.644 0 0 0-.146.363.566.566 0 0 0 .062.362c.052.095.112.142.179.142h.698c.083 0 .161-.057.235-.171a.727.727 0 0 0 .116-.326ZM125.882 34.687a.806.806 0 0 1-.452.138h-1.426c-.149 0-.261-.042-.335-.125-.081-.09-.103-.228-.068-.413h.29c-.01.087.006.15.047.187h-.002c.042.032.1.05.174.05h1.425a.47.47 0 0 0 .234-.062c.066-.035.107-.078.124-.125l.086-.246c.016-.048.004-.09-.037-.125-.043-.041-.108-.062-.193-.062h-1.423c-.16 0-.28-.046-.359-.138-.085-.094-.104-.212-.054-.352l.086-.247a.696.696 0 0 1 .296-.348.84.84 0 0 1 .459-.14h1.425c.15 0 .261.045.334.13.081.087.104.224.068.408h-.29c.009-.087-.007-.15-.048-.187h.002a.274.274 0 0 0-.172-.046h-1.426a.478.478 0 0 0-.238.06c-.065.034-.105.076-.121.123l-.086.246a.111.111 0 0 0 .033.128c.044.04.109.061.196.061h1.426c.162 0 .281.046.357.138.084.097.102.213.054.35l-.086.246a.673.673 0 0 1-.3.351ZM128.149 34.713a.861.861 0 0 1-.419.112h-.686a.512.512 0 0 1-.34-.11c-.106-.09-.133-.208-.082-.354l.215-.616c.05-.142.159-.26.326-.351a.867.867 0 0 1 .421-.113h.686a.51.51 0 0 1 .333.106c.11.092.139.21.088.356l-.216.619c-.05.142-.159.259-.326.35Zm.249-.96c.016-.05-.004-.09-.061-.123a.322.322 0 0 0-.174-.044h-.686a.503.503 0 0 0-.202.042c-.08.034-.128.076-.144.125l-.217.663c-.016.049.004.09.06.123a.325.325 0 0 0 .174.047h.688a.49.49 0 0 0 .201-.044c.081-.035.129-.078.145-.129l.216-.66ZM129.543 33.588l-.467 1.237h-.317l.636-1.684a.678.678 0 0 1 .308-.346.995.995 0 0 1 .496-.113l-.112.298a.992.992 0 0 0-.272.068c-.056.028-.09.06-.103.093l-.055.145h.316l-.114.302h-.316ZM131.013 33.588l-.554 1.238h-.377l.554-1.238h-.372l.135-.302h.371l.271-.606h.378l-.271.606h.374l-.135.302h-.374ZM133.04 34.707a.782.782 0 0 1-.419.116.732.732 0 0 1-.237-.037.453.453 0 0 1-.186-.115c-.089.05-.18.09-.273.115a.966.966 0 0 1-.267.04c-.15 0-.261-.038-.335-.113-.083-.086-.097-.203-.045-.351l.376-1.076h.292l-.376 1.078c-.016.046-.003.083.04.113.048.03.113.047.199.047a.523.523 0 0 0 .228-.047c.064-.028.105-.067.122-.115l.233-.663h.292l-.232.665c-.017.047-.003.084.041.11a.35.35 0 0 0 .194.046.528.528 0 0 0 .23-.047c.066-.027.105-.064.121-.11l.377-1.078h.295l-.376 1.076a.649.649 0 0 1-.294.346ZM135.242 34.715a.898.898 0 0 1-.425.11h-.686a.52.52 0 0 1-.348-.108c-.103-.086-.128-.202-.076-.351a.632.632 0 0 1 .325-.349.862.862 0 0 1 .421-.112h.686a.652.652 0 0 1 .268.059l.073-.21c.01-.043-.014-.082-.07-.116a.285.285 0 0 0-.161-.05h-.686a.385.385 0 0 0-.177.035.41.41 0 0 0-.195.175h-.29a.882.882 0 0 1 .371-.406.815.815 0 0 1 .394-.106h.688c.135 0 .247.035.333.106.111.089.141.207.088.356l-.215.616a.648.648 0 0 1-.318.351Zm.047-.105a.58.58 0 0 0-.062-.363c-.052-.093-.111-.141-.176-.141h-.698c-.081 0-.16.059-.238.171a.716.716 0 0 0-.115.326.641.641 0 0 0 .039.333c.048.113.114.17.199.17h.7c.069 0 .137-.04.203-.123a.706.706 0 0 0 .148-.373ZM137.773 33.797c.006-.086-.019-.144-.074-.174a.211.211 0 0 0-.069-.029.506.506 0 0 0-.081-.007h-.686a.528.528 0 0 0-.205.043c-.079.03-.126.07-.144.117l-.375 1.078h-.293l.537-1.54h.293l-.022.065a.952.952 0 0 1 .162-.05.748.748 0 0 1 .15-.014h.688c.131 0 .237.034.32.103.1.084.128.22.088.408h-.289ZM140.374 33.743c-.049.142-.158.26-.325.35a.861.861 0 0 1-.419.113h-.686a.653.653 0 0 1-.271-.059l-.072.206-.002.005c-.01.044.014.082.072.116a.256.256 0 0 0 .163.049h.686a.395.395 0 0 0 .174-.034.418.418 0 0 0 .195-.175h.29a.863.863 0 0 1-.765.511h-.686a.516.516 0 0 1-.332-.108c-.112-.09-.141-.209-.09-.356l.216-.616a.628.628 0 0 1 .317-.349.884.884 0 0 1 .427-.11h.687c.143 0 .259.035.344.106.103.086.129.202.077.35Zm-.271.266a.613.613 0 0 0-.042-.325c-.046-.118-.112-.178-.199-.178h-.695c-.061 0-.13.044-.207.133a.644.644 0 0 0-.146.363.56.56 0 0 0 .062.362c.052.095.111.142.179.142h.698c.083 0 .161-.057.235-.171a.714.714 0 0 0 .115-.326ZM140.394 29.024c0 .438-.185.807-.557 1.105-.341.29-.768.434-1.278.434h-4.492c-.471 0-.87-.131-1.196-.395-.352-.284-.574-.716-.669-1.3h.914c.065.274.183.47.356.589h-.007c.168.103.369.154.601.154h4.493c.257 0 .48-.062.669-.186.168-.113.252-.247.252-.402v-.773c0-.145-.084-.274-.252-.388a1.185 1.185 0 0 0-.676-.2h-2.392v-.952h2.399c.262 0 .486-.064.669-.193.168-.113.252-.246.252-.395v-.773c0-.145-.084-.274-.252-.387a1.18 1.18 0 0 0-.676-.202h-4.486a1.11 1.11 0 0 0-.594.155h.007c-.178.109-.299.304-.363.588h-.914c.089-.588.307-1.016.654-1.284.326-.274.73-.41 1.21-.41h4.493c.5 0 .926.144 1.277.433.372.305.558.673.558 1.106 0 .377-.015.72-.045 1.029a.832.832 0 0 1-.148.426 2.763 2.763 0 0 1-.327.379c.143.14.253.268.327.387.084.145.134.284.148.418.031.304.045.65.045 1.037Z" fill="#7432FF"/><path fill-rule="evenodd" clip-rule="evenodd" d="m116.87 25.176-.63.41v2.374l.63.419v.521c-.256-.164-.515-.33-.779-.501l-.774-.501-.736-.477-.669-.436c-.081-.04-.12-.109-.12-.206 0-.09.039-.158.12-.202l2.959-1.926v.525h-.001Zm-.962 2.503v-1.802l-1.371.825c-.046.027-.069.051-.069.073 0 .025.023.05.069.074l1.371.83ZM116.669 20.545c.134.176.201.389.201.639V23.4a.998.998 0 0 1-.197.63c-.137.182-.304.272-.505.272h-1.676c-.195 0-.361-.09-.5-.271a1.023 1.023 0 0 1-.201-.639v-2.22c0-.232.062-.429.187-.59.124-.169.32-.278.588-.327v.451c-.129.032-.219.092-.271.18a.56.56 0 0 0-.067.29v2.216c0 .132.029.245.088.338.049.08.108.12.176.12h1.676c.071 0 .132-.04.183-.12l-.003.003a.6.6 0 0 0 .088-.334v-2.216a.644.644 0 0 0-.071-.308c-.048-.108-.116-.161-.2-.161h-.617v1.794h-.433v-2.242h1.053c.196 0 .362.093.501.279ZM115.349 15.808c.131.168.197.38.197.635v2.675h1.324v.45h-2.377c-.195 0-.362-.09-.501-.27a1.023 1.023 0 0 1-.2-.639v-2.216c0-.247.066-.458.2-.631.139-.184.306-.275.501-.275h.352c.199 0 .368.09.504.27Zm-.69.176a.397.397 0 0 0-.287.125.447.447 0 0 0-.143.334v2.22c0 .112.036.214.108.304.073.1.18.15.322.15h1.01v-2.674c0-.13-.046-.241-.138-.334a.41.41 0 0 0-.299-.125h-.573ZM116.184 10.807c.209.037.376.14.503.308a.96.96 0 0 1 .184.595v2.22c0 .248-.066.46-.198.634-.136.184-.304.275-.504.275h-2.374v-.458h2.374c.07 0 .132-.04.183-.122l-.003.004a.607.607 0 0 0 .087-.334v-2.22a.586.586 0 0 0-.07-.293v.003a.404.404 0 0 0-.264-.179v-.36l.082-.073Z" fill="#7432FF"/><path fill-rule="evenodd" clip-rule="evenodd" d="M158.952 51.3c-.952 0-1.704.811-1.704 1.8 0 .99.769 1.8 1.704 1.8.952 0 1.704-.81 1.704-1.8.016-.989-.752-1.8-1.704-1.8Zm6.097 0c-.953 0-1.704.811-1.704 1.8 0 .99.768 1.8 1.704 1.8.952 0 1.703-.81 1.703-1.8 0-.989-.751-1.8-1.703-1.8Z" fill="#fff"/><path fill-rule="evenodd" clip-rule="evenodd" d="M172.916 36.9h-21.832c-1.841 0-3.34 1.573-3.34 3.523v23.119c0 1.95 1.499 3.522 3.34 3.522h18.476l-.864-3.163 2.086 2.035 1.971 1.915 3.503 3.25V40.422c0-1.95-1.499-3.523-3.34-3.523Zm-6.289 22.333s-.586-.736-1.075-1.385c2.134-.633 2.949-2.035 2.949-2.035a9.148 9.148 0 0 1-1.874 1.009c-.814.359-1.596.598-2.362.735a10.885 10.885 0 0 1-4.22-.017 13.184 13.184 0 0 1-2.395-.736 9.304 9.304 0 0 1-1.189-.58c-.049-.035-.098-.052-.147-.086a.216.216 0 0 1-.065-.052c-.293-.17-.456-.29-.456-.29s.782 1.368 2.851 2.017c-.489.65-1.092 1.42-1.092 1.42-3.6-.12-4.969-2.6-4.969-2.6 0-5.506 2.346-9.969 2.346-9.969 2.346-1.847 4.578-1.795 4.578-1.795l.163.205c-2.932.89-4.285 2.24-4.285 2.24s.359-.205.962-.496c1.743-.804 3.128-1.026 3.698-1.077.098-.017.179-.034.277-.034a13.139 13.139 0 0 1 3.291-.035c1.548.189 3.21.667 4.904 1.642 0 0-1.287-1.282-4.057-2.172l.228-.273s2.232-.052 4.579 1.795c0 0 2.346 4.463 2.346 9.97 0 0-1.385 2.479-4.986 2.599Z" fill="#fff"/><path fill-rule="evenodd" clip-rule="evenodd" d="M158.952 15.3c-.952 0-1.704.811-1.704 1.8 0 .99.769 1.8 1.704 1.8.952 0 1.704-.81 1.704-1.8.016-.989-.752-1.8-1.704-1.8Zm6.097 0c-.952 0-1.704.811-1.704 1.8 0 .99.768 1.8 1.704 1.8.952 0 1.703-.81 1.703-1.8 0-.989-.751-1.8-1.703-1.8Z" fill="#7432FF"/><path fill-rule="evenodd" clip-rule="evenodd" d="M172.916.9h-21.832c-1.841 0-3.34 1.573-3.34 3.523v23.119c0 1.95 1.499 3.522 3.34 3.522h18.476l-.864-3.163 2.086 2.035 1.971 1.915 3.503 3.25V4.422c0-1.95-1.499-3.523-3.34-3.523Zm-6.289 22.333s-.586-.736-1.075-1.385c2.134-.633 2.949-2.035 2.949-2.035a9.148 9.148 0 0 1-1.874 1.009c-.814.359-1.596.598-2.362.735a10.885 10.885 0 0 1-4.22-.017 13.184 13.184 0 0 1-2.395-.735 9.304 9.304 0 0 1-1.189-.582c-.049-.034-.098-.051-.147-.085a.216.216 0 0 1-.065-.052c-.293-.17-.456-.29-.456-.29s.782 1.368 2.851 2.017c-.489.65-1.092 1.42-1.092 1.42-3.6-.12-4.969-2.6-4.969-2.6 0-5.506 2.346-9.969 2.346-9.969 2.346-1.847 4.578-1.795 4.578-1.795l.163.205c-2.932.89-4.285 2.24-4.285 2.24s.359-.205.962-.496c1.743-.804 3.128-1.026 3.698-1.077.098-.017.179-.034.277-.034a13.139 13.139 0 0 1 3.291-.035c1.548.189 3.21.667 4.904 1.642 0 0-1.287-1.283-4.057-2.172l.228-.273s2.232-.052 4.579 1.795c0 0 2.346 4.463 2.346 9.97 0 0-1.385 2.479-4.986 2.599Z" fill="#7432FF"/><path fill-rule="evenodd" clip-rule="evenodd" d="M198.26 67.33c-7.82 0-14.17-6.36-14.17-14.17s6.36-14.18 14.17-14.18 14.17 6.36 14.17 14.17-6.35 14.18-14.17 14.18Zm0-27.4c-7.29 0-13.23 5.93-13.23 13.23 0 7.3 5.93 13.23 13.23 13.23 7.3 0 13.23-5.93 13.23-13.23 0-7.3-5.93-13.23-13.23-13.23Z" fill="#fff"/><path fill-rule="evenodd" clip-rule="evenodd" d="M209.45 52.68c.24 0 .48-.09.65-.26.19-.19.27-.44.24-.7a12.11 12.11 0 0 0-2.53-6.09.824.824 0 0 0-.66-.33c-.23 0-.45.1-.62.27l-6.84 6.83a.17.17 0 0 0 .12.29l9.64-.01ZM207.15 61.02c.26 0 .49-.12.66-.33a12.2 12.2 0 0 0 2.53-6.09.866.866 0 0 0-.24-.7.923.923 0 0 0-.65-.26h-9.64c-.15 0-.22.18-.12.29l6.84 6.84c.17.15.39.25.62.25ZM198.99 65c.18.18.43.27.71.23 2.23-.26 4.34-1.13 6.09-2.52a.858.858 0 0 0 .05-1.31l-6.81-6.81a.17.17 0 0 0-.29.12v9.67c0 .23.08.46.25.62ZM189.38 45.29c-.26 0-.49.12-.66.33a12.2 12.2 0 0 0-2.53 6.09c-.03.26.06.51.24.7.17.17.41.26.65.26h9.64c.15 0 .22-.18.12-.29L190 45.56a.881.881 0 0 0-.62-.27ZM197.54 41.31a.818.818 0 0 0-.71-.23c-2.22.26-4.33 1.13-6.09 2.52a.858.858 0 0 0-.05 1.31l6.81 6.81c.11.11.29.03.29-.12v-9.67c0-.23-.09-.45-.25-.62ZM206.13 44.27c0-.26-.12-.49-.33-.66a12.2 12.2 0 0 0-6.09-2.53.866.866 0 0 0-.7.24c-.17.17-.26.41-.26.65v9.64c0 .15.18.22.29.12l6.84-6.84c.15-.17.25-.39.25-.62ZM196.72 53.63h-9.64c-.24 0-.48.09-.65.26-.19.19-.27.44-.24.7a12.11 12.11 0 0 0 2.53 6.09c.17.22.41.33.66.33.23 0 .45-.1.62-.27l6.84-6.84c.1-.09.03-.27-.12-.27ZM197.51 54.58l-6.82 6.82a.92.92 0 0 0-.28.64c0 .27.12.51.33.67a12.06 12.06 0 0 0 6.09 2.52c.27.03.52-.05.71-.23.16-.16.25-.38.25-.63V54.7c0-.15-.18-.22-.28-.12Z" fill="#fff"/><path fill-rule="evenodd" clip-rule="evenodd" d="M198.26 31.33c-7.82 0-14.17-6.36-14.17-14.17s6.36-14.18 14.17-14.18 14.17 6.36 14.17 14.17-6.35 14.18-14.17 14.18Zm0-27.4c-7.29 0-13.23 5.93-13.23 13.23 0 7.3 5.93 13.23 13.23 13.23 7.3 0 13.23-5.93 13.23-13.23 0-7.3-5.93-13.23-13.23-13.23Z" fill="#7432FF"/><path fill-rule="evenodd" clip-rule="evenodd" d="M209.45 16.68c.24 0 .48-.09.65-.26.19-.19.27-.44.24-.7a12.11 12.11 0 0 0-2.53-6.09.824.824 0 0 0-.66-.33c-.23 0-.45.1-.62.27l-6.84 6.83a.17.17 0 0 0 .12.29l9.64-.01ZM207.15 25.02c.26 0 .49-.12.66-.33a12.2 12.2 0 0 0 2.53-6.09.866.866 0 0 0-.24-.7.923.923 0 0 0-.65-.26h-9.64c-.15 0-.22.18-.12.29l6.84 6.84c.17.15.39.25.62.25ZM198.99 29c.18.18.43.27.71.23 2.23-.26 4.34-1.13 6.09-2.52a.858.858 0 0 0 .05-1.31l-6.81-6.81a.17.17 0 0 0-.29.12v9.67c0 .23.08.46.25.62ZM189.38 9.29c-.26 0-.49.12-.66.33a12.2 12.2 0 0 0-2.53 6.09c-.03.26.06.51.24.7.17.17.41.26.65.26h9.64c.15 0 .22-.18.12-.29L190 9.56a.881.881 0 0 0-.62-.27ZM197.54 5.31a.818.818 0 0 0-.71-.23c-2.22.26-4.33 1.13-6.09 2.52a.858.858 0 0 0-.05 1.31l6.81 6.81c.11.11.29.03.29-.12V5.93c0-.23-.09-.45-.25-.62ZM206.13 8.27c0-.26-.12-.49-.33-.66a12.2 12.2 0 0 0-6.09-2.53.866.866 0 0 0-.7.24c-.17.17-.26.41-.26.65v9.64c0 .15.18.22.29.12l6.84-6.84c.15-.17.25-.39.25-.62ZM196.72 17.63h-9.64c-.24 0-.48.09-.65.26-.19.19-.27.44-.24.7a12.11 12.11 0 0 0 2.53 6.09c.17.22.41.33.66.33.23 0 .45-.1.62-.27l6.84-6.84c.1-.09.03-.27-.12-.27ZM197.51 18.58l-6.82 6.82a.92.92 0 0 0-.28.64c0 .27.12.51.33.67a12.06 12.06 0 0 0 6.09 2.52c.27.03.52-.05.71-.23.16-.16.25-.38.25-.63V18.7c0-.15-.18-.22-.28-.12Z" fill="#7432FF"/><path fill-rule="evenodd" clip-rule="evenodd" d="M228.6 57.657a2.45 2.45 0 0 0 2.443-2.451v-4.2c0-3.281 2.66-5.95 5.93-5.95.176 0 .351.01.524.025L233.998 39l-5.915 10.28c.17-.014.343-.023.517-.023h1.453a6.64 6.64 0 0 0-.234 1.748v1.75H228.6a2.45 2.45 0 0 0-2.442 2.451 2.45 2.45 0 0 0 2.442 2.451Z" fill="#fff"/><path fill-rule="evenodd" clip-rule="evenodd" d="M242.348 53.512c-.945 2.031-2.998 3.443-5.375 3.443h-1.453a6.642 6.642 0 0 0 .234-1.749v-1.75h1.219a2.45 2.45 0 0 0 2.443-2.45 2.45 2.45 0 0 0-2.443-2.452 2.45 2.45 0 0 0-2.443 2.451v4.201c0 3.28-2.66 5.95-5.93 5.95a5.934 5.934 0 0 1-5.372-3.438l-2.945 5.119h27.43l-5.365-9.325ZM238.664 67.074h-.96s-.014-.21-.014-.482.014-.481.014-.481.15-.014.48-.014c.331 0 .48.014.48.014s.014.166.014.481c0 .316-.014.482-.014.482Zm0-1.926h-.96a.96.96 0 0 0-.959.963v2.888h.959v-.962h.96v.962h.96v-2.888a.961.961 0 0 0-.96-.963ZM247.04 67.07s-.165.014-.479.014c-.315 0-.48-.014-.48-.014v-.963s.209-.015.48-.015.479.015.479.015.015.15.015.481c0 .332-.015.482-.015.482Zm.002-1.926h-1.921v3.852h.96v-.963h.961a.96.96 0 0 0 .958-.962v-.965a.96.96 0 0 0-.958-.962ZM220 66.11v1.927a.96.96 0 0 0 .959.962l1.92.001v-.963h-1.919v-1.926h1.919v-.963h-1.919c-.53 0-.96.431-.96.963M229.521 65.148h-.96v2.888c0 .532.43.963.96.963l1.541.001v-.963h-1.541v-2.89Z" fill="#fff"/><path d="M228.6 21.657a2.45 2.45 0 0 0 2.443-2.451v-4.2c0-3.281 2.66-5.95 5.93-5.95.176 0 .351.01.524.025L233.998 3l-5.915 10.28c.17-.014.343-.023.517-.023h1.453a6.64 6.64 0 0 0-.234 1.748v1.75H228.6a2.45 2.45 0 0 0-2.442 2.451 2.45 2.45 0 0 0 2.442 2.451Z" fill="#7432FF"/><path d="M242.348 17.512c-.945 2.031-2.998 3.443-5.375 3.443h-1.453a6.642 6.642 0 0 0 .234-1.749v-1.75h1.219a2.45 2.45 0 0 0 2.443-2.45 2.45 2.45 0 0 0-2.443-2.452 2.45 2.45 0 0 0-2.443 2.451v4.201c0 3.28-2.66 5.95-5.93 5.95a5.934 5.934 0 0 1-5.372-3.438l-2.945 5.119h27.43l-5.365-9.325Z" fill="#7432FF"/><path fill-rule="evenodd" clip-rule="evenodd" d="M238.664 31.074h-.96s-.014-.21-.014-.482c0-.271.014-.481.014-.481s.15-.014.48-.014c.331 0 .48.014.48.014s.014.166.014.481c0 .316-.014.482-.014.482Zm0-1.926h-.96a.96.96 0 0 0-.959.963v2.888h.959v-.962h.96v.962h.96v-2.888a.961.961 0 0 0-.96-.963ZM247.04 31.07s-.165.014-.479.014c-.315 0-.48-.014-.48-.014v-.963s.209-.015.48-.015.479.015.479.015.015.15.015.481c0 .332-.015.482-.015.482Zm.002-1.926h-1.921v3.852h.96v-.963h.961a.96.96 0 0 0 .958-.962v-.965a.96.96 0 0 0-.958-.962Z" fill="#7432FF"/><path d="M220 30.11v1.927a.96.96 0 0 0 .959.962l1.92.001v-.963h-1.919v-1.926h1.919v-.963h-1.919c-.53 0-.96.431-.96.963M229.521 29.148h-.96v2.888c0 .532.43.963.96.963l1.541.001v-.963h-1.541v-2.89Z" fill="#7432FF"/></svg>