<svg width="43" height="14" fill="none" xmlns="http://www.w3.org/2000/svg"><path d="M1.5 3.5a2 2 0 0 1 2-2h36a2 2 0 0 1 2 2v7a2 2 0 0 1-2 2h-36a2 2 0 0 1-2-2v-7Z" fill="#242424"/><path d="M3.5 2h36V1h-36v1ZM41 3.5v7h1v-7h-1ZM39.5 12h-36v1h36v-1ZM2 10.5v-7H1v7h1ZM3.5 12A1.5 1.5 0 0 1 2 10.5H1A2.5 2.5 0 0 0 3.5 13v-1ZM41 10.5a1.5 1.5 0 0 1-1.5 1.5v1a2.5 2.5 0 0 0 2.5-2.5h-1ZM39.5 2A1.5 1.5 0 0 1 41 3.5h1A2.5 2.5 0 0 0 39.5 1v1Zm-36-1A2.5 2.5 0 0 0 1 3.5h1A1.5 1.5 0 0 1 3.5 2V1Z" fill="#000"/></svg>