<svg width="26" height="39" fill="none" xmlns="http://www.w3.org/2000/svg"><path d="M3 6.5a3.5 3.5 0 1 1 7 0 3.5 3.5 0 0 1-7 0Z" fill="#FF7CC5" stroke="#FF7CC5"/><path fill-rule="evenodd" clip-rule="evenodd" d="M.5 19.5a6 6 0 1 1 12 0 6 6 0 0 1-12 0Z" fill="#2F1C04" stroke="#fff"/><path d="M3 19.5a3.5 3.5 0 1 1 7 0 3.5 3.5 0 0 1-7 0Z" fill="#fff" stroke="#fff"/><path fill-rule="evenodd" clip-rule="evenodd" d="M.5 32.5a6 6 0 1 1 12 0 6 6 0 0 1-12 0Z" fill="#FF7CC5" stroke="#2F1C04"/><path d="M3 32.5a3.5 3.5 0 1 1 7 0 3.5 3.5 0 0 1-7 0Z" fill="#2F1C04" stroke="#2F1C04"/><path d="M22.828 6.328 19.5 3l-3.328 3.328L19.5 9.657l3.328-3.329Z" stroke="#FF7CC5"/><path d="M22.828 19.328 19.5 16l-3.328 3.328 3.328 3.329 3.328-3.329Z" fill="#2F1C04" stroke="#fff"/><path d="M22.828 32.328 19.5 29l-3.328 3.328 3.328 3.329 3.328-3.329Z" fill="#FF7CC5" stroke="#2F1C04"/></svg>