<svg width="20" height="180" fill="none" xmlns="http://www.w3.org/2000/svg"><path d="M20 1H0v16h20V1Z" fill="#000"/><path opacity=".35" d="M20 1H0v16h20V1Z" fill="#000"/><path fill-rule="evenodd" clip-rule="evenodd" d="M20 17H0C4.48 6.333 11.146 1 20 1v16Z" fill="#7432FF"/><path opacity=".25" d="M6 1H0v16h6V1Z" fill="#9099FF"/><path d="M20 19H0v16h20V19Z" fill="#000"/><path opacity=".35" d="M20 19H0v16h20V19Z" fill="#000"/><path fill-rule="evenodd" clip-rule="evenodd" d="m0 35 20-16v16H0Z" fill="#7432FF"/><path opacity=".25" d="M13 19H7v16h6V19Z" fill="#9099FF"/><path d="M20 37H0v16h20V37Z" fill="#000"/><path opacity=".35" d="M20 37H0v16h20V37Z" fill="#000"/><path fill-rule="evenodd" clip-rule="evenodd" d="M20 53H0c8 0 14.667-5.333 20-16v16Z" fill="#7432FF"/><path opacity=".25" d="M20 37h-6v16h6V37Z" fill="#9099FF"/><path d="M20 55H0v16h20V55Z" fill="#000"/><path opacity=".35" d="M20 55H0v16h20V55Z" fill="#000"/><path fill-rule="evenodd" clip-rule="evenodd" d="M0 55v16h20v-8L0 55Z" fill="#7432FF"/><path opacity=".25" d="M6 55H0v16h6V55Z" fill="#9099FF"/><path d="M20 73H0v16h20V73Z" fill="#000"/><path opacity=".35" d="M20 73H0v16h20V73Z" fill="#000"/><path fill-rule="evenodd" clip-rule="evenodd" d="M0 73v16h20v-8c-6 0-12.667-2.667-20-8Z" fill="#7432FF"/><path opacity=".25" d="M13 73H7v16h6V73Z" fill="#9099FF"/><path d="M20 91H0v16h20V91Z" fill="#000"/><path opacity=".35" d="M20 91H0v16h20V91Z" fill="#000"/><path fill-rule="evenodd" clip-rule="evenodd" d="M0 91v16h20v-8C9.333 99 2.667 96.333 0 91Z" fill="#7432FF"/><path opacity=".25" d="M20 91h-6v16h6V91Z" fill="#9099FF"/><path d="M20 109H0v16h20v-16Z" fill="#000"/><path opacity=".35" d="M20 109H0v16h20v-16Z" fill="#000"/><path fill-rule="evenodd" clip-rule="evenodd" d="M0 117v8h20l-20-8Z" fill="#7432FF"/><path opacity=".25" d="M6 109H0v16h6v-16Z" fill="#9099FF"/><path d="M20 127H0v16h20v-16Z" fill="#000"/><path opacity=".35" d="M20 127H0v16h20v-16Z" fill="#000"/><path fill-rule="evenodd" clip-rule="evenodd" d="M0 135v8h20c-10.718-2.379-16.667-4.757-20-8Z" fill="#7432FF"/><path opacity=".25" d="M13 127H7v16h6v-16Z" fill="#9099FF"/><path d="M20 145H0v16h20v-16Z" fill="#000"/><path opacity=".35" d="M20 145H0v16h20v-16Z" fill="#000"/><path fill-rule="evenodd" clip-rule="evenodd" d="M0 153v8h20c-10.667-1.333-17.333-4-20-8Z" fill="#7432FF"/><path opacity=".25" d="M20 145h-6v16h6v-16Z" fill="#9099FF"/><path d="M20 163H0v16h20v-16Z" fill="#000"/><path opacity=".35" d="M20 163H0v16h20v-16Z" fill="#000"/><path d="M20 171H0v8h20v-8Z" fill="#7432FF"/></svg>