<svg width="11" height="22" fill="none" xmlns="http://www.w3.org/2000/svg"><path fill-rule="evenodd" clip-rule="evenodd" d="M.5 3.5a3 3 0 0 1 3-3h4a3 3 0 0 1 3 3v4a3 3 0 0 1-3 3h-4a3 3 0 0 1-3-3v-4Z" fill="#242424" stroke="#000"/><path d="M9 3.5H7.016c-1.516 0-1.516 4-3.011 4H2" stroke="#B4B4B4"/><path fill-rule="evenodd" clip-rule="evenodd" d="M.5 14.5a3 3 0 0 1 3-3h4a3 3 0 0 1 3 3v4a3 3 0 0 1-3 3h-4a3 3 0 0 1-3-3v-4Z" fill="#7432FF"/><path d="M9 14.5H7.016c-1.516 0-1.516 4-3.011 4H2" stroke="#fff"/></svg>