<svg width="32" height="24" fill="none" xmlns="http://www.w3.org/2000/svg"><path d="M.5 2.5a2 2 0 0 1 2-2h27a2 2 0 0 1 2 2v7a2 2 0 0 1-2 2h-27a2 2 0 0 1-2-2v-7Z" fill="#242424"/><path d="M2.5 1h27V0h-27v1ZM31 2.5v7h1v-7h-1ZM29.5 11h-27v1h27v-1ZM1 9.5v-7H0v7h1ZM2.5 11A1.5 1.5 0 0 1 1 9.5H0A2.5 2.5 0 0 0 2.5 12v-1ZM31 9.5a1.5 1.5 0 0 1-1.5 1.5v1A2.5 2.5 0 0 0 32 9.5h-1ZM29.5 1A1.5 1.5 0 0 1 31 2.5h1A2.5 2.5 0 0 0 29.5 0v1Zm-27-1A2.5 2.5 0 0 0 0 2.5h1A1.5 1.5 0 0 1 2.5 1V0Z" fill="#000"/><g clip-path="url(#a)"><path fill-rule="evenodd" clip-rule="evenodd" d="M8 3 4 6l4 3V7h4V5H8V3Z" fill="#B4B4B4"/></g><path fill="#000" d="M15.5 10V2h1v8z" opacity=".75"/><g clip-path="url(#b)"><path fill-rule="evenodd" clip-rule="evenodd" d="m24 9 4-3-4-3v2h-4v2h4v2Z" fill="#B4B4B4"/></g><path d="M.5 14.5a2 2 0 0 1 2-2h27a2 2 0 0 1 2 2v7a2 2 0 0 1-2 2h-27a2 2 0 0 1-2-2v-7Z" fill="#242424"/><path d="M2.5 13h27v-1h-27v1ZM31 14.5v7h1v-7h-1ZM29.5 23h-27v1h27v-1ZM1 21.5v-7H0v7h1ZM2.5 23A1.5 1.5 0 0 1 1 21.5H0A2.5 2.5 0 0 0 2.5 24v-1ZM31 21.5a1.5 1.5 0 0 1-1.5 1.5v1a2.5 2.5 0 0 0 2.5-2.5h-1ZM29.5 13a1.5 1.5 0 0 1 1.5 1.5h1a2.5 2.5 0 0 0-2.5-2.5v1Zm-27-1A2.5 2.5 0 0 0 0 14.5h1A1.5 1.5 0 0 1 2.5 13v-1Z" fill="#000"/><g clip-path="url(#c)"><path fill-rule="evenodd" clip-rule="evenodd" d="m8 15-4 3 4 3v-2h4v-2H8v-2Z" fill="#B4B4B4"/></g><path fill="#000" d="M15.5 22v-8h1v8z" opacity=".75"/><g clip-path="url(#d)"><path fill-rule="evenodd" clip-rule="evenodd" d="m24 21 4-3-4-3v2h-4v2h4v2Z" fill="#B4B4B4"/></g><defs><clipPath id="a"><path d="M14 2H4a2 2 0 0 0-2 2v4a2 2 0 0 0 2 2h10V2Z" fill="#fff"/></clipPath><clipPath id="b"><path d="M18 10h10a2 2 0 0 0 2-2V4a2 2 0 0 0-2-2H18v8Z" fill="#fff"/></clipPath><clipPath id="c"><path d="M14 14H4a2 2 0 0 0-2 2v4a2 2 0 0 0 2 2h10v-8Z" fill="#fff"/></clipPath><clipPath id="d"><path d="M18 22h10a2 2 0 0 0 2-2v-4a2 2 0 0 0-2-2H18v8Z" fill="#fff"/></clipPath></defs></svg>