<svg width="139" height="57" fill="none" xmlns="http://www.w3.org/2000/svg"><path fill-rule="evenodd" clip-rule="evenodd" d="m35 4 3 2-3 2V6.5h-1v-1h1V4Zm23 0 3 2-3 2V6.5h-1v-1h1V4Zm23 0 3 2-3 2V6.5h-1v-1h1V4ZM35 49l3 2-3 2v-1.5h-1v-1h1V49Zm23 0 3 2-3 2v-1.5h-1v-1h1V49Zm23 0 3 2-3 2v-1.5h-1v-1h1V49ZM26.5 20l-2 3-2-3H24v-1h1v1h1.5Zm23 0-2 3-2-3H47v-1h1v1h1.5Zm23 0-2 3-2-3H70v-1h1v1h1.5Zm23 0-2 3-2-3H93v-1h1v1h1.5Zm-73 17 2-3 2 3H25v1h-1v-1h-1.5Zm23 0 2-3 2 3H48v1h-1v-1h-1.5Zm23 0 2-3 2 3H71v1h-1v-1h-1.5Zm23 0 2-3 2 3H94v1h-1v-1h-1.5Zm21-15.5-2 3-2-3h1.5v-1h1v1h1.5Zm-4 14 2-3 2 3H111v1h-1v-1h-1.5Zm-4.5-9 3 2-3 2V29h-1v-1h1v-1.5Zm13.75-23 2.25 2-2.25 2V6H117V5h.75V3.5ZM131.5 12l-2 3-2-3h1.5v-1h1v1h1.5Zm0 15-2 3-2-3h1.5v-1h1v1h1.5Zm0 15-2 3-2-3h1.5v-1h1v1h1.5Z" fill="#9099FF"/><path d="M35.5 28h-1v1h1v-1Zm2 0h-1v1h1v-1Zm21 0h-1v1h1v-1Zm2 0h-1v1h1v-1Zm21 0h-1v1h1v-1Zm2 0h-1v1h1v-1Z" fill="#9099FF"/><path d="M110.5 5v15.5m-86.5-4h.5-.5Zm.5 0V19v-2.5Zm0 0h23-23Zm23 0V19v-2.5Zm0 0h23-23Zm23 0V19v-2.5Zm0 0h23-23Zm23 0h17-17Zm0 0V19v-2.5Zm9.5-11h7.5-7.5Zm0 45.5h7.5V35.5m-86.5 4h.5-.5Zm.5 0V37v2.5Zm0 0h23-23Zm23 0V37v2.5Zm0 0h23-23Zm23 0V37v2.5Zm0 0h23-23Zm23 0h17-17Zm0 0V37v2.5Zm25.5-34h-2.5v23h-2M13 6h2m-2 45h2m95.5-19a3.5 3.5 0 1 0 0-7 3.5 3.5 0 0 0 0 7Z" stroke="#9099FF"/><path fill-rule="evenodd" clip-rule="evenodd" d="M109.965 26h1.071v1.966l1.964-.002v1.072l-1.964.001V31h-1.071v-1.962l-1.964.001-.001-1.071 1.965-.002V26Z" fill="#9099FF"/></svg>