<svg width="11" height="11" fill="none" xmlns="http://www.w3.org/2000/svg"><path d="M.5 2.5a2 2 0 0 1 2-2h6a2 2 0 0 1 2 2v6a2 2 0 0 1-2 2h-6a2 2 0 0 1-2-2v-6Z" fill="#9099FF"/><rect x="2.5" y="2.5" width="6" height="6" rx=".25" fill="#9099FF"/><rect x="2.5" y="2.5" width="6" height="6" rx=".25" stroke="#9099FF"/><path d="M2.5 1h6V0h-6v1ZM10 2.5v6h1v-6h-1ZM8.5 10h-6v1h6v-1ZM1 8.5v-6H0v6h1ZM2.5 10A1.5 1.5 0 0 1 1 8.5H0A2.5 2.5 0 0 0 2.5 11v-1ZM10 8.5A1.5 1.5 0 0 1 8.5 10v1A2.5 2.5 0 0 0 11 8.5h-1ZM8.5 1A1.5 1.5 0 0 1 10 2.5h1A2.5 2.5 0 0 0 8.5 0v1Zm-6-1A2.5 2.5 0 0 0 0 2.5h1A1.5 1.5 0 0 1 2.5 1V0Z" fill="#000"/><path fill-rule="evenodd" clip-rule="evenodd" d="m3 3 4.979.012L8 4l-4.979-.012L3 3Zm4.979 2.012L3 5l.021.988L8 6l-.021-.988ZM3 7l4.979.012L8 8l-4.979-.012L3 7Z" fill="#000"/></svg>