<svg width="40" height="168" fill="none" xmlns="http://www.w3.org/2000/svg"><rect x="2.5" y="2" width="35" height="8" rx="1" fill="#7432FF"/><rect x="2.5" y="2" width="35" height="8" rx="1" stroke="#fff"/><path d="M14.037 4.436a.431.431 0 0 1-.112.127.24.24 0 0 1-.147.042.384.384 0 0 1-.175-.05 6.74 6.74 0 0 0-.21-.115 1.574 1.574 0 0 0-.266-.112 1.039 1.039 0 0 0-.343-.053c-.221 0-.387.048-.497.144a.48.48 0 0 0-.16.382c0 .102.032.187.097.255a.85.85 0 0 0 .256.175c.107.049.229.095.364.136.138.04.277.086.42.137.142.049.281.107.416.175.138.068.26.154.364.259.108.105.194.233.26.385.065.15.097.33.097.542 0 .236-.04.457-.122.662-.082.205-.2.385-.357.539a1.662 1.662 0 0 1-.574.36 2.16 2.16 0 0 1-.774.13 2.51 2.51 0 0 1-.486-.049 3.004 3.004 0 0 1-.476-.136 2.882 2.882 0 0 1-.434-.214 1.841 1.841 0 0 1-.354-.273l.35-.553a.337.337 0 0 1 .26-.14c.07 0 .14.022.21.067l.24.146c.092.054.196.103.312.147.117.045.255.067.413.067.215 0 .382-.047.5-.14.12-.096.18-.246.18-.451a.425.425 0 0 0-.099-.291.754.754 0 0 0-.259-.185 2.303 2.303 0 0 0-.36-.13 13.173 13.173 0 0 1-.417-.123 3.372 3.372 0 0 1-.416-.168 1.39 1.39 0 0 1-.364-.262 1.269 1.269 0 0 1-.256-.406 1.625 1.625 0 0 1-.098-.602 1.445 1.445 0 0 1 .455-1.047 1.66 1.66 0 0 1 .55-.339c.217-.086.465-.13.745-.13a2.641 2.641 0 0 1 .879.147c.133.047.257.104.37.172.117.065.221.14.312.224l-.294.55Zm1.937.434V8.5H14.89V4.87h1.085Zm.112-.994a.585.585 0 0 1-.052.246.668.668 0 0 1-.613.385.63.63 0 0 1-.248-.05.775.775 0 0 1-.207-.136.701.701 0 0 1-.14-.2.63.63 0 0 1 0-.494.686.686 0 0 1 .14-.202.678.678 0 0 1 .207-.136.664.664 0 0 1 .717.136.647.647 0 0 1 .144.203c.035.077.052.16.052.248Zm1.541 1.387c.07-.066.142-.127.217-.183a1.324 1.324 0 0 1 .514-.231c.1-.023.21-.035.326-.035.198 0 .373.035.525.106.154.067.284.163.389.287.105.12.184.267.238.437a1.8 1.8 0 0 1 .08.55V8.5h-1.085V6.194c0-.178-.04-.316-.122-.413-.082-.1-.202-.151-.36-.151a.755.755 0 0 0-.337.077 1.313 1.313 0 0 0-.3.203V8.5h-1.086V4.87h.672c.135 0 .224.061.266.183l.063.21Zm4.269 1.232c.18 0 .309-.045.388-.133a.504.504 0 0 0 .123-.35.476.476 0 0 0-.123-.347c-.08-.084-.209-.126-.388-.126-.18 0-.31.042-.392.126a.484.484 0 0 0-.12.346c0 .07.01.135.029.193.02.058.052.11.094.154a.47.47 0 0 0 .158.102.688.688 0 0 0 .23.035Zm.84 2.138a.192.192 0 0 0-.116-.185.928.928 0 0 0-.3-.085 3.622 3.622 0 0 0-.417-.027 7.445 7.445 0 0 1-.455-.029.73.73 0 0 0-.168.158.312.312 0 0 0-.063.193c0 .05.01.098.031.14a.287.287 0 0 0 .12.108c.055.03.13.054.223.07.096.019.216.028.36.028.157 0 .285-.01.386-.028a.79.79 0 0 0 .238-.077.284.284 0 0 0 .16-.266Zm1.07-3.65v.395c0 .06-.017.109-.052.143a.335.335 0 0 1-.171.081l-.263.06c.014.05.025.103.032.157a1.028 1.028 0 0 1-.102.658 1.104 1.104 0 0 1-.311.371c-.13.1-.286.179-.466.234-.18.054-.372.081-.577.081-.056 0-.111-.001-.165-.003a1.715 1.715 0 0 1-.157-.022c-.08.05-.12.104-.12.165 0 .06.033.105.099.133.065.026.151.044.259.056.107.01.228.016.364.021.137.002.277.01.42.024.142.012.28.033.416.064.138.03.26.079.368.146a.765.765 0 0 1 .259.274.845.845 0 0 1 .098.43c0 .163-.04.323-.12.48a1.235 1.235 0 0 1-.35.416 1.802 1.802 0 0 1-.566.29 2.42 2.42 0 0 1-.77.112c-.285 0-.531-.026-.739-.08a1.78 1.78 0 0 1-.514-.213.883.883 0 0 1-.301-.301.71.71 0 0 1-.098-.357c0-.162.046-.296.14-.403a.977.977 0 0 1 .392-.259.615.615 0 0 1-.21-.206.617.617 0 0 1-.077-.326.618.618 0 0 1 .115-.343.925.925 0 0 1 .371-.301 1.212 1.212 0 0 1-.448-.396 1.023 1.023 0 0 1-.164-.577c0-.182.038-.345.115-.49.077-.147.182-.27.315-.371.136-.103.294-.18.476-.235.182-.056.38-.083.592-.083.308 0 .58.058.819.175h1.092ZM25.24 3.26V8.5h-1.085V3.26h1.085Zm2.886 2.989a.914.914 0 0 0-.035-.253.56.56 0 0 0-.108-.216.528.528 0 0 0-.196-.158.676.676 0 0 0-.298-.06c-.205 0-.366.06-.483.179-.116.117-.194.286-.23.508h1.35Zm-1.365.63c.035.303.127.523.277.661a.826.826 0 0 0 .577.203c.126 0 .235-.015.326-.045.09-.03.171-.065.241-.102l.196-.102a.418.418 0 0 1 .19-.045c.085 0 .15.031.195.095l.315.388a1.633 1.633 0 0 1-.364.315 1.943 1.943 0 0 1-.808.28 2.845 2.845 0 0 1-.389.028c-.254 0-.493-.04-.717-.122a1.686 1.686 0 0 1-.585-.371 1.775 1.775 0 0 1-.395-.61 2.3 2.3 0 0 1-.144-.847c0-.242.041-.472.123-.689a1.73 1.73 0 0 1 .357-.57c.156-.164.344-.293.563-.389.222-.096.471-.144.75-.144.24 0 .459.038.657.112a1.414 1.414 0 0 1 .85.851c.082.205.123.439.123.7 0 .082-.003.148-.01.2a.315.315 0 0 1-.039.122.146.146 0 0 1-.077.063.337.337 0 0 1-.119.018H26.76Z" fill="#fff"/><rect x="2.5" y="54" width="35" height="8" rx="1" fill="#7432FF"/><rect x="2.5" y="54" width="35" height="8" rx="1" stroke="#fff"/><path d="M8.213 57.465h.189c.175 0 .3-.054.378-.164l1.148-1.666a.553.553 0 0 1 .217-.182.728.728 0 0 1 .294-.053h1.029l-1.512 2.062a1.03 1.03 0 0 1-.347.308c.089.033.17.078.242.136.072.059.14.135.203.228l1.54 2.366h-1.057a.951.951 0 0 1-.175-.014.442.442 0 0 1-.123-.042.382.382 0 0 1-.09-.067.772.772 0 0 1-.074-.094L8.92 58.508a.336.336 0 0 0-.161-.136.651.651 0 0 0-.26-.042h-.286v2.17H7.03v-5.1h1.183v2.066Zm5.533.784a.914.914 0 0 0-.035-.252.56.56 0 0 0-.109-.216.53.53 0 0 0-.196-.158.676.676 0 0 0-.297-.06c-.206 0-.367.06-.483.179-.117.117-.194.286-.231.508h1.35Zm-1.365.63c.035.304.127.524.276.662a.83.83 0 0 0 .578.203c.126 0 .234-.015.325-.045s.172-.065.242-.102l.196-.102a.418.418 0 0 1 .189-.045c.086 0 .151.031.196.094l.315.389a1.637 1.637 0 0 1-.364.315 1.951 1.951 0 0 1-.809.28 2.842 2.842 0 0 1-.388.028 2.07 2.07 0 0 1-.718-.122 1.687 1.687 0 0 1-.584-.371 1.774 1.774 0 0 1-.396-.61 2.3 2.3 0 0 1-.143-.847c0-.242.04-.472.122-.689a1.73 1.73 0 0 1 .357-.57c.156-.164.344-.293.564-.389.221-.096.471-.143.749-.143.24 0 .46.037.658.111a1.416 1.416 0 0 1 .85.851c.082.205.123.439.123.7 0 .082-.004.148-.01.2a.317.317 0 0 1-.04.122.147.147 0 0 1-.076.063.337.337 0 0 1-.12.017h-2.092Zm6.107-2.008-1.94 4.57a.374.374 0 0 1-.118.158c-.047.035-.121.053-.224.053h-.812l.7-1.47-1.45-3.312h.96c.084 0 .148.02.192.056.047.038.08.082.102.133l.595 1.565c.056.142.101.288.136.438l.077-.224c.026-.075.053-.149.08-.221l.54-1.557a.279.279 0 0 1 .112-.134.3.3 0 0 1 .175-.056h.875Zm4.495-.434a.431.431 0 0 1-.112.126.24.24 0 0 1-.147.041.383.383 0 0 1-.175-.048 6.74 6.74 0 0 0-.21-.116 1.576 1.576 0 0 0-.266-.112 1.039 1.039 0 0 0-.343-.053c-.222 0-.387.048-.497.144a.48.48 0 0 0-.161.382c0 .102.033.187.098.255s.15.126.255.175c.108.049.229.094.364.136.138.04.278.086.42.137.143.049.282.107.417.175.137.068.259.154.364.259.107.105.194.233.259.385.065.15.098.33.098.542 0 .236-.041.457-.123.662a1.54 1.54 0 0 1-.357.539 1.662 1.662 0 0 1-.574.36 2.16 2.16 0 0 1-.773.13 2.49 2.49 0 0 1-.487-.049 3.01 3.01 0 0 1-.476-.136 2.882 2.882 0 0 1-.434-.214 1.844 1.844 0 0 1-.353-.273l.35-.553a.337.337 0 0 1 .259-.14c.07 0 .14.022.21.066l.241.148c.091.053.195.102.312.146.117.045.254.067.413.067.215 0 .381-.047.5-.14.12-.096.179-.246.179-.452a.425.425 0 0 0-.098-.29.754.754 0 0 0-.26-.185 2.3 2.3 0 0 0-.36-.13 13.173 13.173 0 0 1-.416-.123 3.381 3.381 0 0 1-.417-.168 1.392 1.392 0 0 1-.364-.262 1.269 1.269 0 0 1-.255-.406 1.625 1.625 0 0 1-.098-.602 1.444 1.444 0 0 1 .455-1.047 1.65 1.65 0 0 1 .55-.339c.216-.086.465-.13.745-.13.156 0 .308.013.455.039a2.24 2.24 0 0 1 .794.28c.117.065.22.14.312.224l-.294.55Zm1.85 3.076a.722.722 0 0 0 .267.189.821.821 0 0 0 .3.056c.101 0 .193-.02.277-.06a.555.555 0 0 0 .217-.188c.063-.09.112-.203.147-.343.035-.14.053-.31.053-.511 0-.192-.014-.353-.042-.483a.944.944 0 0 0-.12-.316.441.441 0 0 0-.412-.227c-.159 0-.29.03-.392.087a1.11 1.11 0 0 0-.294.256v1.54Zm-.066-2.194a1.88 1.88 0 0 1 .483-.372c.182-.098.398-.147.648-.147.189 0 .364.043.525.127.16.084.3.205.416.364.117.158.208.353.273.584.068.229.102.489.102.78 0 .273-.039.526-.116.756a1.83 1.83 0 0 1-.318.602c-.136.17-.299.304-.49.4a1.374 1.374 0 0 1-.63.143c-.19 0-.348-.027-.476-.08a1.294 1.294 0 0 1-.35-.218v1.393h-1.085v-4.78h.672c.135 0 .224.06.266.181l.08.267Zm3.988-2.059v5.24H27.67v-5.24h1.085Zm1.738 1.61v3.63h-1.085v-3.63h1.085Zm.112-.993a.585.585 0 0 1-.052.244.669.669 0 0 1-1.068.2.698.698 0 0 1-.14-.2.62.62 0 0 1-.049-.245.629.629 0 0 1 .19-.451.678.678 0 0 1 .206-.136.664.664 0 0 1 .717.136c.06.058.109.126.144.203.035.077.052.16.052.248Zm1.838 4.679c-.172 0-.325-.024-.458-.073a.959.959 0 0 1-.333-.214.938.938 0 0 1-.203-.336 1.293 1.293 0 0 1-.07-.438V57.62h-.308a.21.21 0 0 1-.143-.053c-.04-.037-.06-.091-.06-.161v-.423l.578-.112.213-.886c.028-.112.108-.168.238-.168h.567v1.06h.9v.742h-.9v1.803c0 .084.02.154.06.21.042.054.101.08.178.08.04 0 .073-.003.098-.01a.545.545 0 0 0 .07-.028.606.606 0 0 1 .056-.028.139.139 0 0 1 .063-.014c.033 0 .059.008.077.025a.236.236 0 0 1 .063.07l.33.514c-.14.105-.298.184-.473.238a1.919 1.919 0 0 1-.543.077Z" fill="#fff"/><rect x="2.5" y="106" width="35" height="8" rx="1" fill="#7432FF"/><rect x="2.5" y="106" width="35" height="8" rx="1" stroke="#fff"/><path d="M8.39 111.18c.028 0 .056.006.084.018a.21.21 0 0 1 .08.052l.47.494a1.965 1.965 0 0 1-.774.609c-.308.135-.673.203-1.096.203-.387 0-.735-.065-1.043-.196a2.307 2.307 0 0 1-.78-.546 2.441 2.441 0 0 1-.49-.826 3.066 3.066 0 0 1-.172-1.04c0-.38.062-.729.186-1.046a2.344 2.344 0 0 1 1.327-1.365 2.7 2.7 0 0 1 1.032-.193c.191 0 .37.018.539.053a2.459 2.459 0 0 1 .882.353c.123.084.233.175.329.273l-.4.536a.547.547 0 0 1-.09.091.242.242 0 0 1-.147.038.258.258 0 0 1-.12-.028 1.302 1.302 0 0 1-.118-.066 3.752 3.752 0 0 0-.14-.088 1.332 1.332 0 0 0-.42-.157 1.596 1.596 0 0 0-.322-.028 1.192 1.192 0 0 0-.959.427 1.485 1.485 0 0 0-.273.511 2.3 2.3 0 0 0-.095.689c0 .262.035.494.105.697.073.203.17.374.29.514a1.251 1.251 0 0 0 .956.424 2.9 2.9 0 0 0 .294-.014 1.52 1.52 0 0 0 .249-.053 1.082 1.082 0 0 0 .423-.255.378.378 0 0 1 .091-.056.23.23 0 0 1 .102-.025Zm2.004-1.991c.13-.112.272-.202.423-.27a1.32 1.32 0 0 1 .55-.105c.198 0 .373.035.525.105.154.068.283.164.388.287.105.122.185.268.238.438.054.168.08.351.08.549v2.307h-1.084v-2.307c0-.177-.041-.315-.123-.413-.081-.1-.202-.15-.36-.15a.76.76 0 0 0-.336.077 1.326 1.326 0 0 0-.301.203v2.59H9.309v-5.24h1.085v1.929Zm4.674 1.834a3.558 3.558 0 0 0-.535.056c-.14.028-.25.063-.333.105a.421.421 0 0 0-.171.143.35.35 0 0 0-.046.175c0 .124.034.212.102.263a.505.505 0 0 0 .297.073.86.86 0 0 0 .368-.073c.105-.049.211-.128.318-.238v-.504Zm-1.953-1.649a2.19 2.19 0 0 1 .728-.43c.269-.096.556-.144.861-.144.22 0 .417.037.592.109a1.27 1.27 0 0 1 .732.749c.065.175.097.366.097.574v2.268h-.497a.52.52 0 0 1-.234-.042c-.051-.028-.095-.086-.13-.175l-.077-.2a3.412 3.412 0 0 1-.262.203 1.68 1.68 0 0 1-.263.151c-.088.04-.184.069-.287.088-.1.021-.212.031-.336.031a1.52 1.52 0 0 1-.451-.063.977.977 0 0 1-.347-.193.848.848 0 0 1-.217-.311 1.145 1.145 0 0 1-.077-.434c0-.131.033-.263.098-.396a.968.968 0 0 1 .34-.367c.16-.112.378-.205.65-.28a4.334 4.334 0 0 1 1.033-.126v-.154c0-.212-.044-.365-.133-.459-.086-.095-.21-.143-.37-.143a.99.99 0 0 0-.316.042 1.497 1.497 0 0 0-.22.094 2.794 2.794 0 0 1-.186.095.514.514 0 0 1-.217.042.315.315 0 0 1-.189-.056.488.488 0 0 1-.126-.133l-.196-.34Zm4.6-.112c.07-.065.142-.126.217-.182a1.364 1.364 0 0 1 .515-.231c.1-.023.208-.035.325-.035.198 0 .373.035.525.105.154.068.284.164.389.287.105.122.184.268.238.438.053.168.08.351.08.549v2.307h-1.085v-2.307c0-.177-.04-.315-.122-.413-.082-.1-.202-.15-.361-.15a.76.76 0 0 0-.336.077 1.324 1.324 0 0 0-.301.203v2.59h-1.085v-3.63h.672c.135 0 .224.061.266.182l.063.21Zm7.345-.826a.431.431 0 0 1-.112.126.24.24 0 0 1-.147.042.38.38 0 0 1-.175-.049 6.813 6.813 0 0 0-.21-.115 1.601 1.601 0 0 0-.266-.112 1.038 1.038 0 0 0-.343-.053c-.222 0-.388.048-.497.144a.478.478 0 0 0-.161.381c0 .103.032.188.098.256.065.068.15.126.255.175.108.049.229.094.364.136.138.04.278.086.42.137.143.049.281.107.417.175.137.068.259.154.364.259.107.105.193.233.259.385.065.149.098.33.098.542 0 .236-.041.457-.123.662a1.559 1.559 0 0 1-.93.899c-.227.087-.485.13-.774.13a2.49 2.49 0 0 1-.487-.049 2.788 2.788 0 0 1-.91-.35 1.868 1.868 0 0 1-.353-.273l.35-.553a.337.337 0 0 1 .259-.14c.07 0 .14.022.21.066l.241.147c.091.054.195.103.312.147.116.045.254.067.413.067.214 0 .381-.047.5-.14.12-.096.179-.246.179-.452a.425.425 0 0 0-.098-.29.751.751 0 0 0-.26-.186 2.271 2.271 0 0 0-.36-.129 10.993 10.993 0 0 1-.416-.123 3.175 3.175 0 0 1-.417-.168 1.38 1.38 0 0 1-.364-.262 1.272 1.272 0 0 1-.255-.406 1.623 1.623 0 0 1-.098-.602 1.453 1.453 0 0 1 .455-1.047 1.65 1.65 0 0 1 .55-.339c.216-.086.465-.13.745-.13.156 0 .308.013.455.039.15.023.29.059.423.108.133.047.257.104.371.172.117.065.22.14.312.224l-.294.549Zm1.85 3.077a.714.714 0 0 0 .267.189.828.828 0 0 0 .3.056c.101 0 .193-.02.277-.06a.544.544 0 0 0 .217-.189c.063-.088.112-.203.147-.343.035-.14.053-.31.053-.511 0-.191-.014-.352-.042-.483a.956.956 0 0 0-.12-.315.446.446 0 0 0-.178-.175.517.517 0 0 0-.234-.052.79.79 0 0 0-.392.087 1.11 1.11 0 0 0-.294.256v1.54Zm-.066-2.195c.143-.151.304-.275.483-.371.182-.098.398-.147.648-.147.189 0 .364.042.525.126.16.084.3.206.416.364.117.159.208.354.273.585.068.229.102.489.102.78 0 .273-.039.525-.116.756a1.83 1.83 0 0 1-.318.602 1.428 1.428 0 0 1-.49.399 1.37 1.37 0 0 1-.63.144 1.23 1.23 0 0 1-.476-.081 1.277 1.277 0 0 1-.35-.217v1.394h-1.085v-4.782h.672c.135 0 .224.061.266.182l.08.266Zm3.988-2.058v5.24h-1.085v-5.24h1.085Zm1.738 1.61v3.63h-1.085v-3.63h1.085Zm.112-.994a.583.583 0 0 1-.053.245.662.662 0 0 1-.612.385.624.624 0 0 1-.249-.049.774.774 0 0 1-.206-.136.694.694 0 0 1-.14-.2.63.63 0 0 1 .14-.696.642.642 0 0 1 .455-.186.677.677 0 0 1 .469.186.65.65 0 0 1 .143.203c.035.077.053.16.053.248Zm1.838 4.68c-.173 0-.325-.024-.458-.074a.953.953 0 0 1-.333-.213.933.933 0 0 1-.203-.336 1.297 1.297 0 0 1-.07-.438v-1.876h-.308a.209.209 0 0 1-.143-.052c-.04-.037-.06-.091-.06-.161v-.423l.578-.113.213-.885c.028-.112.108-.168.238-.168h.567v1.06h.9v.742h-.9v1.803c0 .084.02.154.06.21.042.054.101.08.178.08.04 0 .072-.003.098-.01a.545.545 0 0 0 .07-.028.538.538 0 0 1 .056-.028.143.143 0 0 1 .063-.014c.033 0 .058.008.077.024a.245.245 0 0 1 .063.07l.33.515c-.14.105-.298.184-.473.238a1.93 1.93 0 0 1-.543.077Z" fill="#fff"/><rect x="2.5" y="158" width="35" height="8" rx="1" fill="#7432FF"/><rect x="2.5" y="158" width="35" height="8" rx="1" stroke="#fff"/><path d="M17.92 161.948c0 .369-.065.71-.193 1.022-.126.311-.305.58-.536.809-.23.226-.51.404-.836.532a2.964 2.964 0 0 1-1.082.189h-1.98v-5.1h1.98c.397 0 .757.065 1.082.193a2.345 2.345 0 0 1 1.372 1.34c.128.311.192.649.192 1.015Zm-1.212 0a2.22 2.22 0 0 0-.098-.682 1.426 1.426 0 0 0-.283-.515 1.188 1.188 0 0 0-.448-.325 1.507 1.507 0 0 0-.606-.116h-.79v3.28h.79c.226 0 .428-.037.606-.112.177-.077.326-.186.448-.326.123-.142.218-.315.283-.518.065-.203.098-.431.098-.686Zm4.892-1.078v3.63h-.672c-.135 0-.224-.061-.266-.182l-.063-.21c-.07.068-.142.129-.217.185a1.33 1.33 0 0 1-.518.228 1.408 1.408 0 0 1-.322.035c-.198 0-.374-.034-.528-.102a1.1 1.1 0 0 1-.385-.29 1.265 1.265 0 0 1-.238-.438 1.807 1.807 0 0 1-.08-.553v-2.303h1.084v2.303c0 .18.041.319.123.417.081.098.202.147.36.147.12 0 .23-.025.333-.074.105-.051.206-.12.304-.206v-2.587H21.6Zm2.505 2.153a3.558 3.558 0 0 0-.535.056 1.3 1.3 0 0 0-.333.105.42.42 0 0 0-.171.143.35.35 0 0 0-.046.175c0 .124.034.212.102.263a.504.504 0 0 0 .297.073.86.86 0 0 0 .367-.073 1.11 1.11 0 0 0 .319-.238v-.504Zm-1.953-1.649a2.19 2.19 0 0 1 .728-.43c.268-.096.555-.144.861-.144.22 0 .416.037.591.109a1.273 1.273 0 0 1 .732.749c.065.175.098.366.098.574v2.268h-.497a.52.52 0 0 1-.235-.042c-.05-.028-.094-.086-.129-.175l-.077-.2a3.412 3.412 0 0 1-.262.203 1.68 1.68 0 0 1-.263.151c-.089.04-.184.069-.287.088-.1.021-.212.031-.336.031-.166 0-.316-.021-.451-.063a.975.975 0 0 1-.347-.193.845.845 0 0 1-.217-.311 1.143 1.143 0 0 1-.077-.434c0-.131.033-.263.098-.396a.967.967 0 0 1 .34-.367c.16-.112.377-.205.65-.28a4.333 4.333 0 0 1 1.033-.126v-.154c0-.212-.044-.365-.133-.459-.086-.095-.21-.143-.371-.143a.988.988 0 0 0-.315.042 1.488 1.488 0 0 0-.22.094 2.819 2.819 0 0 1-.186.095.514.514 0 0 1-.217.042.315.315 0 0 1-.189-.056.485.485 0 0 1-.126-.133l-.196-.34Zm4.683-2.114v5.24H25.75v-5.24h1.085Z" fill="#fff"/></svg>