<svg width="22" height="30" fill="none" xmlns="http://www.w3.org/2000/svg"><rect x="2.5" y="3" width="15" height="8" rx="1" fill="#9099FF"/><rect x="2.5" y="3" width="15" height="8" rx="1" stroke="#000"/><path d="M11.373 5.436a.43.43 0 0 1-.112.127.239.239 0 0 1-.147.042.384.384 0 0 1-.175-.05 6.74 6.74 0 0 0-.21-.115 1.574 1.574 0 0 0-.266-.112 1.038 1.038 0 0 0-.343-.053c-.222 0-.387.048-.497.144a.48.48 0 0 0-.161.382c0 .102.033.187.098.255a.85.85 0 0 0 .256.175c.107.049.228.095.364.136.137.04.277.086.42.137.142.049.28.107.416.175.138.068.259.154.364.259.107.105.194.233.259.385.065.15.098.33.098.542 0 .236-.04.457-.123.662a1.54 1.54 0 0 1-.357.539 1.661 1.661 0 0 1-.573.36 2.16 2.16 0 0 1-.774.13 2.48 2.48 0 0 1-.486-.049 3.006 3.006 0 0 1-.476-.136 2.884 2.884 0 0 1-.434-.214 1.845 1.845 0 0 1-.354-.273l.35-.553a.338.338 0 0 1 .259-.14c.07 0 .14.022.21.066l.242.148a2.1 2.1 0 0 0 .311.147c.117.044.254.066.413.066.215 0 .381-.047.5-.14.12-.096.179-.246.179-.451a.425.425 0 0 0-.098-.291.753.753 0 0 0-.259-.185 2.303 2.303 0 0 0-.36-.13 13.26 13.26 0 0 1-.417-.123 3.379 3.379 0 0 1-.416-.168 1.392 1.392 0 0 1-.364-.262 1.27 1.27 0 0 1-.256-.406 1.626 1.626 0 0 1-.098-.602 1.446 1.446 0 0 1 .455-1.046c.15-.143.333-.256.55-.34.217-.086.465-.13.745-.13a2.641 2.641 0 0 1 .879.147c.133.047.256.104.37.172.117.065.221.14.312.224l-.294.55Z" fill="#000"/><rect x="2.5" y="18" width="15" height="8" rx="1" fill="#FF7CC5"/><rect x="2.5" y="18" width="15" height="8" rx="1" stroke="#fff"/><path d="M11.373 20.436a.43.43 0 0 1-.112.127.239.239 0 0 1-.147.042.383.383 0 0 1-.175-.05 6.74 6.74 0 0 0-.21-.115 1.576 1.576 0 0 0-.266-.112 1.038 1.038 0 0 0-.343-.052c-.222 0-.387.047-.497.143a.48.48 0 0 0-.161.381c0 .103.033.188.098.256a.85.85 0 0 0 .256.175c.107.049.228.095.364.136.137.04.277.086.42.137.142.049.28.107.416.175.138.068.259.154.364.259.107.105.194.233.259.385.065.15.098.33.098.543 0 .235-.04.456-.123.661a1.54 1.54 0 0 1-.357.539 1.661 1.661 0 0 1-.573.36 2.16 2.16 0 0 1-.774.13 2.48 2.48 0 0 1-.486-.049 3.012 3.012 0 0 1-.476-.137 2.884 2.884 0 0 1-.434-.213 1.847 1.847 0 0 1-.354-.273l.35-.553a.338.338 0 0 1 .259-.14c.07 0 .14.022.21.067l.242.146c.09.054.194.103.311.148.117.044.254.066.413.066.215 0 .381-.047.5-.14.12-.096.179-.246.179-.452a.425.425 0 0 0-.098-.29.753.753 0 0 0-.259-.186 2.3 2.3 0 0 0-.36-.129 13.26 13.26 0 0 1-.417-.122 3.388 3.388 0 0 1-.416-.168 1.394 1.394 0 0 1-.364-.263 1.27 1.27 0 0 1-.256-.406 1.626 1.626 0 0 1-.098-.602 1.445 1.445 0 0 1 .455-1.046c.15-.143.333-.256.55-.34.217-.086.465-.13.745-.13.156 0 .308.013.455.039a2.27 2.27 0 0 1 .794.28c.117.065.221.14.312.224l-.294.55Z" fill="#000"/></svg>