<svg width="37" height="12" fill="none" xmlns="http://www.w3.org/2000/svg"><path d="M33.5 2.5h-30a1 1 0 0 0-1 1v5a1 1 0 0 0 1 1h30a1 1 0 0 0 1-1v-5a1 1 0 0 0-1-1Z" fill="#9099FF"/><path d="M33.5 2.5h-30a1 1 0 0 0-1 1v5a1 1 0 0 0 1 1h30a1 1 0 0 0 1-1v-5a1 1 0 0 0-1-1Z" stroke="#9099FF"/><path d="M14.019 4.356a.492.492 0 0 1-.128.144.273.273 0 0 1-.168.048.439.439 0 0 1-.2-.056c-.07-.04-.15-.084-.24-.132a1.796 1.796 0 0 0-.304-.128 1.187 1.187 0 0 0-.392-.06c-.254 0-.443.055-.568.164a.548.548 0 0 0-.184.436c0 .117.037.215.112.292a.972.972 0 0 0 .292.2c.122.056.261.108.416.156.157.045.317.097.48.156.162.056.321.123.476.2.157.077.296.176.416.296.122.12.221.267.296.44.074.17.112.377.112.62 0 .27-.047.521-.14.756-.094.235-.23.44-.408.616-.176.173-.395.31-.656.412a2.468 2.468 0 0 1-.884.148 2.87 2.87 0 0 1-.556-.056 3.433 3.433 0 0 1-.544-.156 3.298 3.298 0 0 1-.496-.244 2.107 2.107 0 0 1-.404-.312l.4-.632a.386.386 0 0 1 .296-.16c.08 0 .16.025.24.076l.276.168c.104.061.222.117.356.168.133.05.29.076.472.076.245 0 .436-.053.572-.16.136-.11.204-.281.204-.516a.486.486 0 0 0-.112-.332.861.861 0 0 0-.296-.212 2.63 2.63 0 0 0-.412-.148c-.155-.043-.314-.09-.476-.14a3.859 3.859 0 0 1-.476-.192 1.59 1.59 0 0 1-.416-.3 1.451 1.451 0 0 1-.292-.464 1.858 1.858 0 0 1-.112-.688 1.652 1.652 0 0 1 .52-1.196c.17-.163.38-.292.628-.388.248-.099.532-.148.852-.148a3.058 3.058 0 0 1 1.004.168c.152.053.293.119.424.196.133.075.252.16.356.256l-.336.628Zm3.03 2.956c-.247.01-.451.032-.611.064-.16.032-.287.072-.38.12a.476.476 0 0 0-.196.164.4.4 0 0 0-.052.2c0 .141.038.241.116.3.077.056.19.084.34.084.16 0 .3-.028.42-.084a1.28 1.28 0 0 0 .364-.272v-.576Zm-2.231-1.884c.25-.221.528-.385.832-.492.306-.11.634-.164.984-.164.25 0 .476.041.676.124a1.452 1.452 0 0 1 .836.856c.074.2.112.419.112.656V9h-.568a.594.594 0 0 1-.268-.048c-.059-.032-.108-.099-.148-.2l-.088-.228a3.998 3.998 0 0 1-.3.232 1.98 1.98 0 0 1-.3.172 1.439 1.439 0 0 1-.328.1 1.88 1.88 0 0 1-.384.036 1.73 1.73 0 0 1-.516-.072 1.12 1.12 0 0 1-.396-.22.973.973 0 0 1-.248-.356 1.306 1.306 0 0 1-.088-.496c0-.15.037-.3.112-.452.074-.155.204-.295.388-.42.184-.128.432-.235.744-.32.312-.085.705-.133 1.18-.144v-.176c0-.243-.051-.417-.152-.524-.099-.11-.24-.164-.424-.164a1.13 1.13 0 0 0-.36.048 1.707 1.707 0 0 0-.252.108c-.072.04-.143.076-.212.108a.588.588 0 0 1-.248.048.357.357 0 0 1-.216-.064.556.556 0 0 1-.144-.152l-.224-.388Zm7.91-.576L21.122 9h-1.128l-1.608-4.148h1.032c.088 0 .161.021.22.064.061.04.103.09.124.152l.576 1.86c.05.152.095.3.132.444.04.144.075.288.104.432.059-.288.14-.58.244-.876l.6-1.86a.303.303 0 0 1 .12-.152.344.344 0 0 1 .208-.064h.984Zm2.725 1.576c0-.099-.014-.195-.04-.288a.64.64 0 0 0-.124-.248.604.604 0 0 0-.224-.18.773.773 0 0 0-.34-.068c-.235 0-.419.068-.552.204-.133.133-.221.327-.264.58h1.544Zm-1.56.72c.04.347.145.599.316.756.17.155.39.232.66.232.144 0 .268-.017.372-.052a1.79 1.79 0 0 0 .276-.116l.224-.116a.477.477 0 0 1 .216-.052c.098 0 .173.036.224.108l.36.444a1.868 1.868 0 0 1-.416.36 2.224 2.224 0 0 1-.924.32 3.254 3.254 0 0 1-.444.032c-.29 0-.564-.047-.82-.14a1.928 1.928 0 0 1-.668-.424 2.03 2.03 0 0 1-.452-.696 2.63 2.63 0 0 1-.164-.968c0-.277.047-.54.14-.788.096-.248.232-.465.408-.652a1.97 1.97 0 0 1 .644-.444 2.14 2.14 0 0 1 .856-.164c.274 0 .525.043.752.128a1.617 1.617 0 0 1 .972.972c.093.235.14.501.14.8 0 .093-.004.17-.012.228a.361.361 0 0 1-.044.14.167.167 0 0 1-.088.072.386.386 0 0 1-.136.02h-2.392Z" fill="#000"/></svg>