<svg width="31" height="24" fill="none" xmlns="http://www.w3.org/2000/svg"><rect x="2.56" y="2.5" width="26" height="7" rx="1" fill="#9099FF"/><rect x="2.56" y="2.5" width="26" height="7" rx="1" stroke="#9099FF"/><path d="M10.022 3.66c0 .07-.012.137-.036.204a.724.724 0 0 1-.092.188L7.158 7.96h2.776V9H5.438v-.52a.63.63 0 0 1 .12-.348l2.744-3.92h-2.64v-1.04h4.36v.488Zm2.243 1.128c.314 0 .6.05.86.148.258.099.48.24.664.424.186.184.33.408.432.672.104.261.156.556.156.884 0 .33-.052.63-.156.896-.102.264-.246.49-.432.676a1.913 1.913 0 0 1-.664.428 2.396 2.396 0 0 1-.86.148 2.44 2.44 0 0 1-.868-.148 1.997 1.997 0 0 1-.672-.428 1.956 1.956 0 0 1-.436-.676 2.505 2.505 0 0 1-.152-.896c0-.328.05-.623.152-.884a1.91 1.91 0 0 1 .436-.672c.189-.184.413-.325.672-.424a2.44 2.44 0 0 1 .868-.148Zm0 3.356c.285 0 .494-.1.628-.3.136-.203.204-.51.204-.92 0-.41-.068-.716-.204-.916-.134-.2-.343-.3-.628-.3-.294 0-.508.1-.644.3-.136.2-.204.505-.204.916 0 .41.068.717.204.92.136.2.35.3.644.3Zm4.528-3.356c.315 0 .601.05.86.148a1.866 1.866 0 0 1 1.096 1.096c.104.261.156.556.156.884 0 .33-.052.63-.156.896a1.91 1.91 0 0 1-.432.676 1.912 1.912 0 0 1-.664.428 2.396 2.396 0 0 1-.86.148 2.44 2.44 0 0 1-.868-.148 1.997 1.997 0 0 1-.672-.428 1.956 1.956 0 0 1-.436-.676 2.507 2.507 0 0 1-.152-.896c0-.328.05-.623.152-.884.104-.264.25-.488.436-.672.19-.184.413-.325.672-.424a2.44 2.44 0 0 1 .868-.148Zm0 3.356c.285 0 .495-.1.628-.3.136-.203.204-.51.204-.92 0-.41-.068-.716-.204-.916-.133-.2-.343-.3-.628-.3-.293 0-.508.1-.644.3-.136.2-.204.505-.204.916 0 .41.068.717.204.92.136.2.35.3.644.3ZM19.409 9V4.852h.768c.155 0 .256.07.304.208l.068.224c.07-.072.142-.137.216-.196.075-.061.155-.113.24-.156a1.302 1.302 0 0 1 .612-.144c.251 0 .458.065.62.196.166.128.291.3.376.516a1.25 1.25 0 0 1 .576-.548c.118-.056.24-.097.368-.124a1.915 1.915 0 0 1 1.02.068c.184.07.338.172.46.308.126.133.22.299.284.496.064.195.096.416.096.664V9h-1.24V6.364c0-.43-.184-.644-.552-.644a.57.57 0 0 0-.42.168c-.109.11-.164.268-.164.476V9h-1.24V6.364c0-.237-.046-.404-.14-.5-.093-.096-.23-.144-.412-.144a.707.707 0 0 0-.32.076c-.098.05-.192.119-.28.204v3h-1.24Z" fill="#000"/><rect x="1.56" y="13.5" width="28" height="9" rx="1" fill="#7432FF"/><rect x="1.56" y="13.5" width="28" height="9" rx="1" stroke="#fff"/><path d="M10.022 15.66c0 .07-.012.137-.036.204a.724.724 0 0 1-.092.188L7.158 19.96h2.776V21H5.438v-.52a.631.631 0 0 1 .12-.348l2.744-3.92h-2.64v-1.04h4.36v.488Zm2.243 1.128c.314 0 .6.05.86.148.258.099.48.24.664.424.186.184.33.408.432.672.104.261.156.556.156.884 0 .33-.052.63-.156.896-.102.264-.246.49-.432.676a1.912 1.912 0 0 1-.664.428 2.395 2.395 0 0 1-.86.148c-.318 0-.607-.05-.868-.148a1.997 1.997 0 0 1-.672-.428 1.956 1.956 0 0 1-.436-.676 2.505 2.505 0 0 1-.152-.896c0-.328.05-.623.152-.884a1.91 1.91 0 0 1 .436-.672c.189-.184.413-.325.672-.424.26-.099.55-.148.868-.148Zm0 3.356c.285 0 .494-.1.628-.3.136-.203.204-.51.204-.92 0-.41-.068-.716-.204-.916-.134-.2-.343-.3-.628-.3-.294 0-.508.1-.644.3-.136.2-.204.505-.204.916 0 .41.068.717.204.92.136.2.35.3.644.3Zm4.528-3.356c.315 0 .601.05.86.148a1.866 1.866 0 0 1 1.096 1.096c.104.261.156.556.156.884 0 .33-.052.63-.156.896a1.91 1.91 0 0 1-.432.676 1.912 1.912 0 0 1-.664.428 2.395 2.395 0 0 1-.86.148 2.44 2.44 0 0 1-.868-.148 1.997 1.997 0 0 1-.672-.428 1.956 1.956 0 0 1-.436-.676 2.507 2.507 0 0 1-.152-.896c0-.328.05-.623.152-.884.104-.264.25-.488.436-.672.19-.184.413-.325.672-.424a2.44 2.44 0 0 1 .868-.148Zm0 3.356c.285 0 .495-.1.628-.3.136-.203.204-.51.204-.92 0-.41-.068-.716-.204-.916-.133-.2-.343-.3-.628-.3-.293 0-.508.1-.644.3-.136.2-.204.505-.204.916 0 .41.068.717.204.92.136.2.35.3.644.3Zm2.616.856v-4.148h.768c.155 0 .256.07.304.208l.068.224c.07-.072.142-.137.216-.196a1.282 1.282 0 0 1 .52-.26c.102-.027.212-.04.332-.04.251 0 .458.065.62.196.166.128.291.3.376.516a1.251 1.251 0 0 1 .576-.548 1.62 1.62 0 0 1 .368-.124 1.915 1.915 0 0 1 1.02.068c.184.07.338.172.46.308.126.133.22.299.284.496.064.195.096.416.096.664V21h-1.24v-2.636c0-.43-.184-.644-.552-.644a.57.57 0 0 0-.42.168c-.109.11-.164.268-.164.476V21h-1.24v-2.636c0-.237-.046-.404-.14-.5-.093-.096-.23-.144-.412-.144a.706.706 0 0 0-.32.076c-.098.05-.192.119-.28.204v3h-1.24Z" fill="#fff"/></svg>