<svg width="49" height="28" fill="none" xmlns="http://www.w3.org/2000/svg"><rect x="2.5" y="2.5" width="44" height="9" rx="1" fill="#9099FF"/><rect x="2.5" y="2.5" width="44" height="9" rx="1" stroke="#9099FF"/><path d="M16.73 4.172 14.394 10H13.17l-2.336-5.828h1.088a.45.45 0 0 1 .284.084.506.506 0 0 1 .164.208l1.128 3.12a9.55 9.55 0 0 1 .3.952 5.485 5.485 0 0 1 .276-.952l1.12-3.12a.48.48 0 0 1 .156-.2.443.443 0 0 1 .284-.092h1.096Zm2.104 3.256c0-.099-.014-.195-.04-.288a.64.64 0 0 0-.124-.248.603.603 0 0 0-.224-.18.773.773 0 0 0-.34-.068c-.235 0-.419.068-.552.204-.134.133-.222.327-.264.58h1.544Zm-1.56.72c.04.347.145.599.316.756.17.155.39.232.66.232.144 0 .268-.017.372-.052a1.79 1.79 0 0 0 .276-.116l.224-.116a.478.478 0 0 1 .216-.052c.098 0 .173.036.224.108l.36.444a1.868 1.868 0 0 1-.416.36 2.219 2.219 0 0 1-.924.32 3.256 3.256 0 0 1-.444.032c-.29 0-.564-.047-.82-.14a1.928 1.928 0 0 1-.668-.424 2.03 2.03 0 0 1-.452-.696 2.63 2.63 0 0 1-.164-.968c0-.277.046-.54.14-.788.096-.248.232-.465.408-.652a1.95 1.95 0 0 1 .644-.444 2.14 2.14 0 0 1 .856-.164c.274 0 .525.043.752.128a1.616 1.616 0 0 1 .972.972c.093.235.14.501.14.8 0 .093-.004.17-.012.228a.361.361 0 0 1-.044.14.167.167 0 0 1-.088.072.385.385 0 0 1-.136.02h-2.392Zm4.332-1.656c.128-.224.275-.4.44-.528a.925.925 0 0 1 .576-.192.74.74 0 0 1 .456.132l-.08.912c-.013.059-.036.099-.068.12a.208.208 0 0 1-.124.032.978.978 0 0 1-.084-.004l-.108-.008a1.55 1.55 0 0 0-.116-.012.739.739 0 0 0-.104-.008.637.637 0 0 0-.436.144c-.106.096-.197.23-.272.4V10h-1.24V5.852h.736c.062 0 .112.005.152.016.043.01.078.028.104.052.03.021.05.05.064.088a.69.69 0 0 1 .04.136l.064.348ZM27.865 10h-1.24V6.708h-1.736v2.06c0 .096.023.176.068.24a.244.244 0 0 0 .204.092.435.435 0 0 0 .112-.012.619.619 0 0 0 .08-.032.722.722 0 0 1 .064-.032.16.16 0 0 1 .072-.016c.037 0 .067.01.088.028a.27.27 0 0 1 .072.08l.376.588c-.16.12-.34.21-.54.272a2.19 2.19 0 0 1-.62.088 1.51 1.51 0 0 1-.524-.084 1.097 1.097 0 0 1-.38-.244 1.075 1.075 0 0 1-.232-.384 1.48 1.48 0 0 1-.08-.5V6.708h-.352a.24.24 0 0 1-.164-.06c-.045-.043-.068-.104-.068-.184V5.98l.66-.132.244-1.008c.032-.128.123-.192.272-.192h.648V5.86h2.976V10Zm.172-5.288c0 .099-.02.192-.06.28a.748.748 0 0 1-.164.232.785.785 0 0 1-.536.208.72.72 0 0 1-.284-.056.814.814 0 0 1-.236-.152.71.71 0 0 1-.216-.512.71.71 0 0 1 .216-.512.775.775 0 0 1 .52-.216c.104 0 .201.02.292.06a.749.749 0 0 1 .408.388c.04.088.06.181.06.28Zm3.623 2.124a.683.683 0 0 1-.108.108.238.238 0 0 1-.148.04.33.33 0 0 1-.168-.044 5.686 5.686 0 0 0-.163-.096.93.93 0 0 0-.524-.144.876.876 0 0 0-.396.084.734.734 0 0 0-.272.24 1.097 1.097 0 0 0-.16.384c-.035.15-.052.319-.052.508 0 .397.075.703.227.916.155.213.367.32.636.32a.9.9 0 0 0 .34-.052c.086-.037.158-.077.216-.12.06-.045.113-.087.16-.124a.308.308 0 0 1 .188-.056c.1 0 .174.036.224.108l.36.444a2.012 2.012 0 0 1-.404.36c-.14.09-.286.163-.436.216-.146.05-.294.085-.444.104a3.121 3.121 0 0 1-.436.032c-.253 0-.495-.048-.727-.144a1.819 1.819 0 0 1-.608-.416 2.069 2.069 0 0 1-.416-.676 2.555 2.555 0 0 1-.152-.912c0-.299.044-.577.132-.836a1.92 1.92 0 0 1 .395-.676c.177-.192.393-.343.649-.452.258-.11.557-.164.895-.164.326 0 .611.052.857.156.245.104.466.256.663.456l-.328.436Zm2.863 1.476a4.03 4.03 0 0 0-.612.064c-.16.032-.287.072-.38.12a.476.476 0 0 0-.196.164.4.4 0 0 0-.052.2c0 .141.039.241.116.3.078.056.19.084.34.084.16 0 .3-.028.42-.084.12-.056.242-.147.364-.272v-.576Zm-2.232-1.884c.25-.221.528-.385.832-.492.307-.11.635-.164.984-.164.25 0 .476.041.676.124a1.449 1.449 0 0 1 .836.856c.075.2.112.419.112.656V10h-.568a.594.594 0 0 1-.268-.048c-.059-.032-.108-.099-.148-.2l-.088-.228a3.998 3.998 0 0 1-.3.232 1.98 1.98 0 0 1-.3.172 1.42 1.42 0 0 1-.328.1 1.88 1.88 0 0 1-.384.036c-.19 0-.361-.024-.516-.072a1.122 1.122 0 0 1-.396-.22.974.974 0 0 1-.248-.356 1.308 1.308 0 0 1-.088-.496c0-.15.038-.3.112-.452a1.1 1.1 0 0 1 .388-.42c.184-.128.432-.235.744-.32.312-.085.705-.133 1.18-.144v-.176c0-.243-.05-.417-.152-.524-.099-.11-.24-.164-.424-.164a1.13 1.13 0 0 0-.36.048 1.707 1.707 0 0 0-.252.108c-.072.04-.142.076-.212.108a.588.588 0 0 1-.248.048.357.357 0 0 1-.216-.064.559.559 0 0 1-.144-.152l-.224-.388Zm5.353-2.416V10h-1.24V4.012h1.24Z" fill="#000"/><rect x="1.5" y="15.5" width="46" height="11" rx="1" fill="#7432FF"/><rect x="1.5" y="15.5" width="46" height="11" rx="1" stroke="#fff"/><path d="M16.73 18.172 14.394 24H13.17l-2.336-5.828h1.088a.45.45 0 0 1 .284.084.506.506 0 0 1 .164.208l1.128 3.12a9.55 9.55 0 0 1 .3.952 5.481 5.481 0 0 1 .276-.952l1.12-3.12a.48.48 0 0 1 .156-.2.443.443 0 0 1 .284-.092h1.096Zm2.104 3.256c0-.099-.014-.195-.04-.288a.64.64 0 0 0-.124-.248.602.602 0 0 0-.224-.18.773.773 0 0 0-.34-.068c-.235 0-.419.068-.552.204-.134.133-.222.327-.264.58h1.544Zm-1.56.72c.04.347.145.599.316.756.17.155.39.232.66.232.144 0 .268-.017.372-.052a1.79 1.79 0 0 0 .276-.116l.224-.116a.477.477 0 0 1 .216-.052c.098 0 .173.036.224.108l.36.444a1.867 1.867 0 0 1-.416.36 2.216 2.216 0 0 1-.924.32 3.256 3.256 0 0 1-.444.032c-.29 0-.564-.047-.82-.14a1.927 1.927 0 0 1-.668-.424 2.03 2.03 0 0 1-.452-.696 2.63 2.63 0 0 1-.164-.968c0-.277.046-.54.14-.788.096-.248.232-.465.408-.652a1.97 1.97 0 0 1 .644-.444 2.14 2.14 0 0 1 .856-.164c.274 0 .525.043.752.128a1.615 1.615 0 0 1 .972.972c.093.235.14.501.14.8 0 .093-.004.17-.012.228a.361.361 0 0 1-.044.14.167.167 0 0 1-.088.072.386.386 0 0 1-.136.02h-2.392Zm4.332-1.656c.128-.224.275-.4.44-.528a.925.925 0 0 1 .576-.192.74.74 0 0 1 .456.132l-.08.912c-.013.059-.036.099-.068.12a.208.208 0 0 1-.124.032.978.978 0 0 1-.084-.004l-.108-.008a1.583 1.583 0 0 0-.116-.012.743.743 0 0 0-.104-.008.637.637 0 0 0-.436.144c-.106.096-.197.23-.272.4V24h-1.24v-4.148h.736c.062 0 .112.005.152.016.043.01.078.028.104.052.03.021.05.05.064.088a.69.69 0 0 1 .04.136l.064.348ZM27.865 24h-1.24v-3.292h-1.736v2.06c0 .096.023.176.068.24a.244.244 0 0 0 .204.092.435.435 0 0 0 .112-.012.619.619 0 0 0 .08-.032.73.73 0 0 1 .064-.032.159.159 0 0 1 .072-.016c.037 0 .067.01.088.028a.27.27 0 0 1 .072.08l.376.588c-.16.12-.34.21-.54.272a2.19 2.19 0 0 1-.62.088 1.51 1.51 0 0 1-.524-.084 1.097 1.097 0 0 1-.38-.244 1.076 1.076 0 0 1-.232-.384 1.48 1.48 0 0 1-.08-.5v-2.144h-.352a.24.24 0 0 1-.164-.06c-.045-.043-.068-.104-.068-.184v-.484l.66-.132.244-1.008c.032-.128.123-.192.272-.192h.648v1.212h2.976V24Zm.172-5.288c0 .099-.02.192-.06.28a.748.748 0 0 1-.164.232.784.784 0 0 1-.536.208.72.72 0 0 1-.284-.056.814.814 0 0 1-.236-.152.71.71 0 0 1-.216-.512.71.71 0 0 1 .216-.512.773.773 0 0 1 .52-.216c.104 0 .201.02.292.06a.748.748 0 0 1 .408.388c.04.088.06.181.06.28Zm3.623 2.124a.686.686 0 0 1-.108.108.238.238 0 0 1-.148.04.33.33 0 0 1-.168-.044 5.83 5.83 0 0 0-.163-.096.93.93 0 0 0-.524-.144.876.876 0 0 0-.396.084.734.734 0 0 0-.272.24 1.097 1.097 0 0 0-.16.384c-.035.15-.052.319-.052.508 0 .397.075.703.227.916.155.213.367.32.636.32a.9.9 0 0 0 .34-.052c.086-.037.158-.077.216-.12.06-.045.113-.087.16-.124a.308.308 0 0 1 .188-.056c.1 0 .174.036.224.108l.36.444a2.01 2.01 0 0 1-.404.36c-.14.09-.286.163-.436.216a2.19 2.19 0 0 1-.444.104 3.121 3.121 0 0 1-.436.032c-.253 0-.495-.048-.727-.144a1.819 1.819 0 0 1-.608-.416 2.069 2.069 0 0 1-.416-.676 2.556 2.556 0 0 1-.152-.912c0-.299.044-.577.132-.836a1.92 1.92 0 0 1 .395-.676c.177-.192.393-.343.649-.452.258-.11.557-.164.895-.164.326 0 .611.052.857.156.245.104.466.256.663.456l-.328.436Zm2.863 1.476a4.03 4.03 0 0 0-.612.064c-.16.032-.287.072-.38.12a.477.477 0 0 0-.196.164.4.4 0 0 0-.052.2c0 .141.039.241.116.3.078.056.19.084.34.084.16 0 .3-.028.42-.084a1.28 1.28 0 0 0 .364-.272v-.576Zm-2.232-1.884a2.5 2.5 0 0 1 .832-.492 2.91 2.91 0 0 1 .984-.164c.25 0 .476.041.676.124a1.449 1.449 0 0 1 .836.856c.075.2.112.419.112.656V24h-.568a.594.594 0 0 1-.268-.048c-.059-.032-.108-.099-.148-.2l-.088-.228a4.006 4.006 0 0 1-.3.232 1.977 1.977 0 0 1-.3.172c-.101.045-.21.079-.328.1a1.88 1.88 0 0 1-.384.036c-.19 0-.361-.024-.516-.072a1.122 1.122 0 0 1-.396-.22.974.974 0 0 1-.248-.356 1.308 1.308 0 0 1-.088-.496c0-.15.038-.3.112-.452a1.1 1.1 0 0 1 .388-.42 2.43 2.43 0 0 1 .744-.32c.312-.085.705-.133 1.18-.144v-.176c0-.243-.05-.417-.152-.524-.099-.11-.24-.164-.424-.164a1.13 1.13 0 0 0-.36.048 1.707 1.707 0 0 0-.252.108c-.072.04-.142.076-.212.108a.588.588 0 0 1-.248.048.357.357 0 0 1-.216-.064.559.559 0 0 1-.144-.152l-.224-.388Zm5.353-2.416V24h-1.24v-5.988h1.24Z" fill="#fff"/></svg>