<svg width="48" height="56" fill="none" xmlns="http://www.w3.org/2000/svg"><path d="M9 20c3.038 0 5.5-2.686 5.5-6S12.038 8 9 8s-5.5 2.686-5.5 6 2.462 6 5.5 6Z" fill="url(#a)"/><path opacity=".3" d="M9 20A8.5 8.5 0 1 0 9 3a8.5 8.5 0 0 0 0 17Z" fill="url(#b)"/><path d="M9 17A5.5 5.5 0 1 0 9 6a5.5 5.5 0 0 0 0 11Z" fill="url(#c)"/><path opacity=".5" d="M10 11.25H8a.5.5 0 0 0 0 1h2a.5.5 0 0 0 0-1Z" fill="#EEE"/><path d="M10 11H8a.5.5 0 0 0 0 1h2a.5.5 0 0 0 0-1Z" fill="#1F1F1F"/><path d="M33 20c3.038 0 5.5-2.686 5.5-6S36.038 8 33 8s-5.5 2.686-5.5 6 2.462 6 5.5 6Z" fill="url(#d)"/><path opacity=".3" d="M33 20a8.5 8.5 0 1 0 0-17 8.5 8.5 0 0 0 0 17Z" fill="#FF1D9D"/><path d="M33 17a5.5 5.5 0 1 0 0-11 5.5 5.5 0 0 0 0 11Z" fill="url(#e)"/><path opacity=".5" d="M34 11.25h-2a.5.5 0 0 0 0 1h2a.5.5 0 0 0 0-1Z" fill="#EEE"/><path d="M34 11h-2a.5.5 0 0 0 0 1h2a.5.5 0 0 0 0-1Z" fill="#1F1F1F"/><path d="M9 48c3.038 0 5.5-2.686 5.5-6s-2.462-6-5.5-6-5.5 2.686-5.5 6 2.462 6 5.5 6Z" fill="url(#f)"/><path opacity=".3" d="M9 48a8.5 8.5 0 1 0 0-17 8.5 8.5 0 0 0 0 17Z" fill="url(#g)"/><path d="M9 45a5.5 5.5 0 1 0 0-11 5.5 5.5 0 0 0 0 11Z" fill="url(#h)"/><path opacity=".5" d="M10 39.25H8a.5.5 0 0 0 0 1h2a.5.5 0 0 0 0-1Z" fill="#EEE"/><path d="M10 39H8a.5.5 0 0 0 0 1h2a.5.5 0 0 0 0-1Z" fill="#1F1F1F"/><path d="M33 48c3.038 0 5.5-2.686 5.5-6s-2.462-6-5.5-6-5.5 2.686-5.5 6 2.462 6 5.5 6Z" fill="url(#i)"/><path opacity=".3" d="M33 48a8.5 8.5 0 1 0 0-17 8.5 8.5 0 0 0 0 17Z" fill="#FF1D9D"/><path d="M33 45a5.5 5.5 0 1 0 0-11 5.5 5.5 0 0 0 0 11Z" fill="url(#j)"/><path opacity=".5" d="M34 39.25h-2a.5.5 0 0 0 0 1h2a.5.5 0 0 0 0-1Z" fill="#EEE"/><path d="M34 39h-2a.5.5 0 0 0 0 1h2a.5.5 0 0 0 0-1Z" fill="#1F1F1F"/><defs><linearGradient id="a" x1="9" y1="14" x2="9" y2="20" gradientUnits="userSpaceOnUse"><stop offset=".521"/><stop offset="1" stop-opacity="0"/></linearGradient><linearGradient id="b" x1="9" y1="3" x2="9" y2="20" gradientUnits="userSpaceOnUse"><stop stop-color="#9099FF"/><stop offset=".214" stop-color="#9099FF"/><stop offset=".682" stop-color="#7F63F0"/><stop offset="1" stop-color="#5A3CCF"/></linearGradient><linearGradient id="c" x1="9" y1="6" x2="9" y2="17" gradientUnits="userSpaceOnUse"><stop stop-color="#9099FF"/><stop offset=".214" stop-color="#9099FF"/><stop offset=".682" stop-color="#7F63F0"/><stop offset="1" stop-color="#5A3CCF"/></linearGradient><linearGradient id="d" x1="33" y1="14" x2="33" y2="20" gradientUnits="userSpaceOnUse"><stop offset=".521"/><stop offset="1" stop-opacity="0"/></linearGradient><linearGradient id="e" x1="33" y1="6" x2="33" y2="17" gradientUnits="userSpaceOnUse"><stop stop-color="#FF99D2"/><stop offset="1" stop-color="#BF287C"/></linearGradient><linearGradient id="f" x1="9" y1="42" x2="9" y2="48" gradientUnits="userSpaceOnUse"><stop offset=".521"/><stop offset="1" stop-opacity="0"/></linearGradient><linearGradient id="g" x1="9" y1="31" x2="9" y2="48" gradientUnits="userSpaceOnUse"><stop stop-color="#9099FF"/><stop offset=".214" stop-color="#9099FF"/><stop offset=".682" stop-color="#7F63F0"/><stop offset="1" stop-color="#5A3CCF"/></linearGradient><linearGradient id="h" x1="9" y1="34" x2="9" y2="45" gradientUnits="userSpaceOnUse"><stop stop-color="#9099FF"/><stop offset=".214" stop-color="#9099FF"/><stop offset=".682" stop-color="#7F63F0"/><stop offset="1" stop-color="#5A3CCF"/></linearGradient><linearGradient id="i" x1="33" y1="42" x2="33" y2="48" gradientUnits="userSpaceOnUse"><stop offset=".521"/><stop offset="1" stop-opacity="0"/></linearGradient><linearGradient id="j" x1="33" y1="34" x2="33" y2="45" gradientUnits="userSpaceOnUse"><stop stop-color="#FF99D2"/><stop offset="1" stop-color="#BF287C"/></linearGradient></defs></svg>