<svg width="31" height="24" fill="none" xmlns="http://www.w3.org/2000/svg"><rect x="2.5" y="2.5" width="26" height="7" rx="1" fill="#9099FF"/><rect x="2.5" y="2.5" width="26" height="7" rx="1" stroke="#9099FF"/><path d="M14.06 3.172V9h-1.192V5.648c0-.077.002-.161.004-.252.006-.09.014-.183.024-.276l-1.548 2.996a.504.504 0 0 1-.472.284h-.184a.547.547 0 0 1-.28-.072.513.513 0 0 1-.192-.212L8.672 5.112c.008.096.015.19.02.284.006.09.008.175.008.252V9H7.508V3.172H8.54c.059 0 .11.001.152.004a.4.4 0 0 1 .12.024.24.24 0 0 1 .092.064.42.42 0 0 1 .084.116l1.5 2.956c.054.101.104.207.152.316.05.11.099.221.144.336a4.486 4.486 0 0 1 .3-.664L12.58 3.38a.486.486 0 0 1 .08-.116c.03-.03.062-.05.096-.064a.39.39 0 0 1 .116-.024c.046-.003.098-.004.156-.004h1.032Zm3.064 2.86c.352 0 .605-.084.76-.252.155-.168.232-.403.232-.704 0-.133-.02-.255-.06-.364a.785.785 0 0 0-.492-.464 1.344 1.344 0 0 0-.44-.064h-.704v1.848h.704Zm0-2.86c.41 0 .763.05 1.056.148.296.096.539.23.728.4.192.17.333.372.424.604.09.232.136.483.136.752 0 .29-.047.557-.14.8-.093.243-.236.45-.428.624-.192.173-.436.31-.732.408a3.37 3.37 0 0 1-1.044.144h-.704V9h-1.352V3.172h2.056Zm4.27 1.04v1.36h1.832v1h-1.832V7.96h2.392V9h-3.752V3.172h3.752v1.04h-2.392Z" fill="#000"/><rect x="1.5" y="13.5" width="28" height="9" rx="1" fill="#7432FF"/><rect x="1.5" y="13.5" width="28" height="9" rx="1" stroke="#fff"/><path d="M14.06 15.172V21h-1.192v-3.352c0-.077.002-.161.004-.252.006-.09.014-.183.024-.276l-1.548 2.996a.504.504 0 0 1-.472.284h-.184a.547.547 0 0 1-.28-.072.513.513 0 0 1-.192-.212l-1.548-3.004c.008.096.015.19.02.284.006.09.008.175.008.252V21H7.508v-5.828H8.54c.059 0 .11.001.152.004.046.003.086.01.12.024a.24.24 0 0 1 .092.064.42.42 0 0 1 .084.116l1.5 2.956c.054.101.104.207.152.316.05.11.099.221.144.336a4.48 4.48 0 0 1 .3-.664l1.496-2.944a.486.486 0 0 1 .08-.116c.03-.03.062-.05.096-.064a.392.392 0 0 1 .116-.024c.046-.003.098-.004.156-.004h1.032Zm3.064 2.86c.352 0 .605-.084.76-.252.155-.168.232-.403.232-.704 0-.133-.02-.255-.06-.364a.786.786 0 0 0-.492-.464 1.343 1.343 0 0 0-.44-.064h-.704v1.848h.704Zm0-2.86c.41 0 .763.05 1.056.148.296.096.539.23.728.4.192.17.333.372.424.604.09.232.136.483.136.752 0 .29-.047.557-.14.8-.093.243-.236.45-.428.624-.192.173-.436.31-.732.408a3.37 3.37 0 0 1-1.044.144h-.704V21h-1.352v-5.828h2.056Zm4.27 1.04v1.36h1.832v1h-1.832v1.388h2.392V21h-3.752v-5.828h3.752v1.04h-2.392Z" fill="#fff"/></svg>