<svg width="34" height="36" fill="none" xmlns="http://www.w3.org/2000/svg"><rect x="1.5" y="1.5" width="31" height="7" rx="1" fill="#7432FF"/><rect x="1.5" y="1.5" width="31" height="7" rx="1" stroke="#fff"/><path d="M8.86 5.449c0 .368-.065.709-.193 1.022-.126.31-.305.58-.536.808-.23.226-.51.404-.836.532A2.964 2.964 0 0 1 6.213 8h-1.98V2.9h1.98c.397 0 .757.065 1.082.193a2.343 2.343 0 0 1 1.372 1.34c.128.31.192.65.192 1.016Zm-1.212 0c0-.252-.032-.48-.098-.683a1.425 1.425 0 0 0-.283-.514 1.183 1.183 0 0 0-.448-.326 1.507 1.507 0 0 0-.606-.115h-.79V7.09h.79c.227 0 .428-.037.606-.112.177-.077.326-.185.448-.325.123-.143.218-.315.283-.518a2.22 2.22 0 0 0 .098-.686ZM10.643 8h-1.19V2.9h1.19V8Zm3.328-2.643h1.813V7.51c-.261.191-.54.33-.836.417a3.274 3.274 0 0 1-.924.129 3.22 3.22 0 0 1-1.148-.196 2.683 2.683 0 0 1-.882-.546 2.418 2.418 0 0 1-.567-.826 2.68 2.68 0 0 1-.2-1.04c0-.38.063-.729.19-1.046.125-.32.305-.595.538-.826.236-.231.52-.41.85-.539a3.088 3.088 0 0 1 1.117-.192c.213 0 .412.017.599.052a2.9 2.9 0 0 1 .514.144 2.359 2.359 0 0 1 .784.49l-.343.521a.33.33 0 0 1-.21.15c-.084.02-.175-.002-.273-.063a3.07 3.07 0 0 0-.266-.143 1.462 1.462 0 0 0-.525-.158 2.679 2.679 0 0 0-.322-.017c-.221 0-.42.04-.598.119a1.28 1.28 0 0 0-.455.329c-.124.142-.22.314-.287.514a2.05 2.05 0 0 0-.102.665c0 .271.038.511.112.721.075.21.18.388.315.533.138.144.301.255.49.332.192.075.403.112.634.112.142 0 .27-.014.385-.042.117-.028.23-.065.34-.112v-.774h-.505a.245.245 0 0 1-.175-.059.198.198 0 0 1-.063-.15v-.652ZM17.665 8h-1.19V2.9h1.19V8Zm4.543-4.162h-1.435V8H19.59V3.838h-1.435V2.9h4.053v.938ZM24.9 6.051l-.472-1.397a6.128 6.128 0 0 1-.112-.311c-.04-.122-.08-.253-.12-.393a5.545 5.545 0 0 1-.223.711l-.47 1.39H24.9ZM26.78 8h-.917a.407.407 0 0 1-.249-.07.469.469 0 0 1-.143-.185l-.301-.89h-1.94l-.3.89a.433.433 0 0 1-.14.178.385.385 0 0 1-.245.077h-.924l1.974-5.1h1.21L26.78 8Zm3.37-.945V8h-3.073V2.9h1.183v4.155h1.89Z" fill="#fff"/><rect x="1.5" y="27.5" width="31" height="7" rx="1" fill="#7432FF"/><rect x="1.5" y="27.5" width="31" height="7" rx="1" stroke="#fff"/><path d="m5.597 32.05-.473-1.396a6.198 6.198 0 0 1-.112-.311 10.27 10.27 0 0 1-.119-.392 5.514 5.514 0 0 1-.224.71l-.469 1.39h1.397ZM7.476 34h-.917a.407.407 0 0 1-.248-.07.469.469 0 0 1-.144-.185l-.301-.89H3.927l-.301.89a.433.433 0 0 1-.14.178.385.385 0 0 1-.245.077h-.924l1.974-5.1h1.211L7.476 34Zm4.75-5.1V34h-.617a.568.568 0 0 1-.23-.042.592.592 0 0 1-.183-.154l-2.404-3.042c.009.091.015.18.017.267.005.084.007.163.007.238V34H7.773v-5.1h.623a.94.94 0 0 1 .13.008.299.299 0 0 1 .094.027c.028.012.055.03.08.053a.913.913 0 0 1 .088.095l2.426 3.062a4.17 4.17 0 0 1-.032-.546v-2.698h1.043Zm3.579 3.15-.473-1.396a6.139 6.139 0 0 1-.112-.311 10.11 10.11 0 0 1-.119-.392 5.545 5.545 0 0 1-.224.71l-.469 1.39h1.397ZM17.684 34h-.917a.407.407 0 0 1-.248-.07.468.468 0 0 1-.144-.185l-.301-.89h-1.939l-.301.89a.434.434 0 0 1-.14.178.385.385 0 0 1-.245.077h-.924l1.974-5.1h1.211l1.974 5.1Zm3.37-.945V34h-3.073v-5.1h1.183v4.155h1.89Zm5.382-1.607c0 .37-.064.712-.193 1.03a2.478 2.478 0 0 1-.535.829c-.231.233-.51.416-.837.55a2.824 2.824 0 0 1-1.081.199 2.83 2.83 0 0 1-1.085-.2 2.513 2.513 0 0 1-.84-.549 2.524 2.524 0 0 1-.54-.83 2.763 2.763 0 0 1-.188-1.028c0-.37.063-.712.189-1.03.128-.317.308-.592.539-.826.233-.233.513-.416.84-.549.326-.133.688-.2 1.085-.2.396 0 .757.068 1.081.203.327.133.606.317.837.55.23.233.41.509.535.826a2.7 2.7 0 0 1 .193 1.026Zm-1.211 0c0-.252-.033-.478-.098-.678a1.424 1.424 0 0 0-.284-.515 1.199 1.199 0 0 0-.448-.322 1.547 1.547 0 0 0-.605-.112 1.58 1.58 0 0 0-.613.112 1.232 1.232 0 0 0-.451.322c-.122.14-.215.312-.28.515a2.19 2.19 0 0 0-.098.678c0 .255.032.483.098.687.065.2.158.37.28.51.123.14.274.248.451.322.18.073.384.109.613.109.226 0 .428-.036.605-.108.178-.075.327-.183.448-.323.124-.14.218-.31.284-.51.065-.203.098-.432.098-.686Zm4.252-.09h1.813v2.152c-.261.191-.54.33-.837.416a3.24 3.24 0 0 1-.924.13 3.22 3.22 0 0 1-1.148-.196 2.683 2.683 0 0 1-.882-.546 2.418 2.418 0 0 1-.567-.826 2.68 2.68 0 0 1-.2-1.04c0-.38.064-.729.19-1.046a2.37 2.37 0 0 1 .539-.826c.236-.231.52-.41.85-.539a3.09 3.09 0 0 1 1.117-.192c.212 0 .412.017.598.052.187.035.359.083.515.144a2.357 2.357 0 0 1 .784.49l-.343.521a.33.33 0 0 1-.21.15c-.084.02-.175-.002-.273-.063a3.063 3.063 0 0 0-.266-.143 1.464 1.464 0 0 0-.525-.157 2.672 2.672 0 0 0-.322-.018c-.222 0-.421.04-.599.119a1.282 1.282 0 0 0-.455.329 1.522 1.522 0 0 0-.287.515 2.05 2.05 0 0 0-.101.665c0 .27.037.51.112.72.075.21.18.388.315.533.138.144.3.255.49.332.191.075.402.112.633.112.143 0 .271-.014.385-.042.117-.028.23-.065.34-.112v-.773h-.504a.245.245 0 0 1-.175-.06.198.198 0 0 1-.063-.15v-.651Z" fill="#fff"/></svg>