<svg width="32" height="24" fill="none" xmlns="http://www.w3.org/2000/svg"><path d="M31.5 9.5a2 2 0 0 1-2 2h-27a2 2 0 0 1-2-2v-7a2 2 0 0 1 2-2h27a2 2 0 0 1 2 2v7Z" fill="#242424"/><path d="M29.5 11h-27v1h27v-1ZM1 9.5v-7H0v7h1ZM2.5 1h27V0h-27v1ZM31 2.5v7h1v-7h-1ZM29.5 1A1.5 1.5 0 0 1 31 2.5h1A2.5 2.5 0 0 0 29.5 0v1ZM1 2.5A1.5 1.5 0 0 1 2.5 1V0A2.5 2.5 0 0 0 0 2.5h1ZM2.5 11A1.5 1.5 0 0 1 1 9.5H0A2.5 2.5 0 0 0 2.5 12v-1Zm27 1A2.5 2.5 0 0 0 32 9.5h-1a1.5 1.5 0 0 1-1.5 1.5v1Z" fill="#000"/><g clip-path="url(#a)"><path fill-rule="evenodd" clip-rule="evenodd" d="m24 9 4-3-4-3v2h-4v2h4v2Z" fill="#B4B4B4"/></g><path fill="#000" d="M16.5 2v8h-1V2z" opacity=".75"/><path d="M2 8a2 2 0 0 0 2 2h10V2H4a2 2 0 0 0-2 2v4Z" fill="#9099FF"/><g clip-path="url(#b)"><path fill-rule="evenodd" clip-rule="evenodd" d="M8 9 4 6l4-3v2h4v2H8v2Z" fill="#000"/></g><path d="M.5 21.5a2 2 0 0 0 2 2h27a2 2 0 0 0 2-2v-7a2 2 0 0 0-2-2h-27a2 2 0 0 0-2 2v7Z" fill="#242424"/><path d="M2.5 23h27v1h-27v-1ZM31 21.5v-7h1v7h-1ZM29.5 13h-27v-1h27v1ZM1 14.5v7H0v-7h1ZM2.5 13A1.5 1.5 0 0 0 1 14.5H0A2.5 2.5 0 0 1 2.5 12v1ZM31 14.5a1.5 1.5 0 0 0-1.5-1.5v-1a2.5 2.5 0 0 1 2.5 2.5h-1ZM29.5 23a1.5 1.5 0 0 0 1.5-1.5h1a2.5 2.5 0 0 1-2.5 2.5v-1Zm-27 1A2.5 2.5 0 0 1 0 21.5h1A1.5 1.5 0 0 0 2.5 23v1Z" fill="#000"/><g clip-path="url(#c)"><path fill-rule="evenodd" clip-rule="evenodd" d="m8 21-4-3 4-3v2h4v2H8v2Z" fill="#B4B4B4"/></g><path fill="#000" d="M15.5 14v8h1v-8z" opacity=".75"/><path d="M30 20a2 2 0 0 1-2 2H18v-8h10a2 2 0 0 1 2 2v4Z" fill="#9099FF"/><g clip-path="url(#d)"><path fill-rule="evenodd" clip-rule="evenodd" d="m24 21 4-3-4-3v2h-4v2h4v2Z" fill="#000"/></g><defs><clipPath id="a"><path d="M18 10h10a2 2 0 0 0 2-2V4a2 2 0 0 0-2-2H18v8Z" fill="#fff"/></clipPath><clipPath id="b"><path d="M14 10H4a2 2 0 0 1-2-2V4a2 2 0 0 1 2-2h10v8Z" fill="#fff"/></clipPath><clipPath id="c"><path d="M14 22H4a2 2 0 0 1-2-2v-4a2 2 0 0 1 2-2h10v8Z" fill="#fff"/></clipPath><clipPath id="d"><path d="M18 22h10a2 2 0 0 0 2-2v-4a2 2 0 0 0-2-2H18v8Z" fill="#fff"/></clipPath></defs></svg>