<svg width="134" height="416" fill="none" xmlns="http://www.w3.org/2000/svg"><rect x="2" y="44" width="15" height="6" rx="1" fill="#9099FF"/><rect x="2" y="44" width="15" height="6" rx="1" stroke="#9099FF"/><path d="M8.895 45.437a.43.43 0 0 1-.112.126.239.239 0 0 1-.147.041.383.383 0 0 1-.175-.048 6.672 6.672 0 0 0-.21-.116 1.575 1.575 0 0 0-.266-.112 1.038 1.038 0 0 0-.343-.053c-.221 0-.387.048-.497.144a.48.48 0 0 0-.16.382c0 .102.032.187.097.255a.85.85 0 0 0 .256.175c.107.049.228.094.364.136.137.04.277.086.42.137.142.049.28.107.416.175.138.068.26.154.364.259.108.105.194.233.26.385.065.15.097.33.097.542 0 .236-.04.457-.122.662-.082.205-.2.385-.357.539a1.661 1.661 0 0 1-.574.36 2.16 2.16 0 0 1-.774.13c-.158 0-.32-.016-.486-.049a3.012 3.012 0 0 1-.476-.136 2.884 2.884 0 0 1-.434-.214 1.846 1.846 0 0 1-.354-.273l.35-.553a.338.338 0 0 1 .26-.14c.07 0 .14.022.21.066l.24.148c.092.053.196.102.312.146.117.045.255.067.413.067.215 0 .382-.047.5-.14.12-.096.18-.246.18-.452a.425.425 0 0 0-.099-.29.753.753 0 0 0-.259-.185 2.299 2.299 0 0 0-.36-.13 13.243 13.243 0 0 1-.417-.123 3.387 3.387 0 0 1-.416-.168 1.393 1.393 0 0 1-.364-.262 1.27 1.27 0 0 1-.256-.406 1.626 1.626 0 0 1-.098-.602 1.445 1.445 0 0 1 .455-1.047 1.66 1.66 0 0 1 .55-.339c.217-.086.465-.13.745-.13.157 0 .308.013.455.039a2.27 2.27 0 0 1 .794.28c.117.065.221.14.312.224l-.294.55Zm4.139 3.279v.784h-2.905v-.784h.98v-2.572a5.57 5.57 0 0 1 .014-.4l-.581.483a.358.358 0 0 1-.154.074.469.469 0 0 1-.14 0 .382.382 0 0 1-.12-.046.287.287 0 0 1-.076-.07l-.343-.455 1.589-1.333h.896v4.319h.84Z" fill="#000"/><rect x="18.5" y="96" width="15" height="6" rx="1" fill="#9099FF"/><rect x="18.5" y="96" width="15" height="6" rx="1" stroke="#9099FF"/><path d="M25.395 97.436a.43.43 0 0 1-.112.126.239.239 0 0 1-.147.043.384.384 0 0 1-.175-.05 6.518 6.518 0 0 0-.21-.115 1.573 1.573 0 0 0-.266-.112 1.038 1.038 0 0 0-.343-.053c-.221 0-.387.048-.497.144a.48.48 0 0 0-.16.382c0 .102.032.187.097.255a.85.85 0 0 0 .256.175c.107.049.228.095.364.137.137.04.277.085.42.136.142.049.28.107.416.175.138.068.26.154.364.259.108.105.194.233.26.385.065.15.097.33.097.543 0 .235-.04.456-.122.661a1.556 1.556 0 0 1-.931.899c-.227.087-.484.13-.774.13-.158 0-.32-.016-.486-.049a2.793 2.793 0 0 1-.91-.35 1.874 1.874 0 0 1-.354-.273l.35-.553a.338.338 0 0 1 .109-.098.288.288 0 0 1 .15-.042c.07 0 .14.022.21.066l.242.147c.09.054.195.103.311.147.117.045.255.067.413.067.215 0 .382-.047.5-.14.12-.096.18-.246.18-.452a.424.424 0 0 0-.099-.29.752.752 0 0 0-.259-.186 2.296 2.296 0 0 0-.36-.129 13.33 13.33 0 0 1-.417-.123 3.394 3.394 0 0 1-.416-.168 1.395 1.395 0 0 1-.364-.262 1.27 1.27 0 0 1-.256-.406 1.627 1.627 0 0 1-.098-.602 1.446 1.446 0 0 1 .455-1.046c.15-.143.333-.256.55-.34.217-.086.465-.13.745-.13.157 0 .308.013.455.039.15.023.29.06.424.109.133.046.256.103.37.171.117.065.221.14.312.224l-.294.55Zm3.876 3.084c.117 0 .209.033.277.098a.328.328 0 0 1 .101.252v.63h-3.584v-.35c0-.068.014-.14.042-.217a.523.523 0 0 1 .147-.21l1.47-1.48c.126-.126.236-.247.33-.361.093-.114.17-.226.23-.336a1.348 1.348 0 0 0 .182-.686c0-.203-.049-.358-.147-.466-.095-.11-.242-.164-.44-.164a.65.65 0 0 0-.638.444c-.049.129-.113.214-.192.256-.08.042-.193.051-.34.028l-.574-.102c.037-.254.109-.475.214-.664.107-.19.239-.347.395-.473a1.6 1.6 0 0 1 .543-.28 2.19 2.19 0 0 1 .654-.094c.252 0 .479.037.68.112.202.072.375.173.517.304a1.3 1.3 0 0 1 .326.469c.077.18.115.378.115.595 0 .187-.027.36-.08.518a2.05 2.05 0 0 1-.214.455 3.24 3.24 0 0 1-.318.416c-.12.133-.246.269-.382.407l-.997 1.021c.128-.039.255-.07.381-.091.126-.021.243-.031.35-.031h.952Z" fill="#000"/><rect x="35" y="148" width="15" height="6" rx="1" fill="#9099FF"/><rect x="35" y="148" width="15" height="6" rx="1" stroke="#9099FF"/><path d="M41.895 149.436a.43.43 0 0 1-.112.126.239.239 0 0 1-.147.042.38.38 0 0 1-.175-.049 6.586 6.586 0 0 0-.21-.115 1.598 1.598 0 0 0-.266-.112 1.038 1.038 0 0 0-.343-.053c-.221 0-.387.048-.497.144a.478.478 0 0 0-.16.381c0 .103.032.188.097.256.066.068.15.126.256.175.107.049.228.094.364.136.137.04.277.086.42.137.142.049.28.107.416.175.138.068.26.154.364.259.108.105.194.233.26.385.065.149.097.33.097.542 0 .236-.04.457-.122.662a1.556 1.556 0 0 1-.931.899c-.227.087-.484.13-.774.13-.158 0-.32-.016-.486-.049a2.793 2.793 0 0 1-.91-.35 1.874 1.874 0 0 1-.354-.273l.35-.553a.338.338 0 0 1 .109-.098.288.288 0 0 1 .15-.042c.07 0 .14.022.21.066l.242.147c.09.054.195.103.311.147.117.045.255.067.413.067.215 0 .382-.047.5-.14.12-.096.18-.246.18-.452a.424.424 0 0 0-.099-.29.75.75 0 0 0-.259-.186 2.267 2.267 0 0 0-.36-.129 11.103 11.103 0 0 1-.417-.123 3.186 3.186 0 0 1-.416-.168 1.384 1.384 0 0 1-.364-.262 1.274 1.274 0 0 1-.256-.406 1.626 1.626 0 0 1-.098-.602 1.455 1.455 0 0 1 .455-1.047 1.66 1.66 0 0 1 .55-.339c.217-.086.465-.13.745-.13.157 0 .308.013.455.039.15.023.29.059.424.108.133.047.256.104.37.172.117.065.221.14.312.224l-.294.549Zm.768.42a1.94 1.94 0 0 1 .214-.665c.107-.189.239-.346.395-.472a1.61 1.61 0 0 1 .543-.28 2.19 2.19 0 0 1 .654-.095c.252 0 .476.037.672.109.196.07.362.166.497.287a1.237 1.237 0 0 1 .413.927c0 .161-.016.304-.049.427a.973.973 0 0 1-.147.319.879.879 0 0 1-.238.227c-.093.061-.2.112-.322.154.565.199.847.584.847 1.155 0 .271-.049.507-.147.707a1.45 1.45 0 0 1-.395.501 1.695 1.695 0 0 1-.57.301 2.354 2.354 0 0 1-.68.098 2.49 2.49 0 0 1-.647-.077 1.536 1.536 0 0 1-.504-.245 1.67 1.67 0 0 1-.389-.427 2.916 2.916 0 0 1-.287-.616l.483-.196a.606.606 0 0 1 .35-.039.33.33 0 0 1 .231.161c.105.194.216.335.333.424a.692.692 0 0 0 .416.129.701.701 0 0 0 .539-.217.649.649 0 0 0 .137-.22.714.714 0 0 0 .045-.249c0-.109-.008-.207-.024-.294a.38.38 0 0 0-.126-.227.715.715 0 0 0-.319-.144 2.556 2.556 0 0 0-.588-.052v-.749c.212 0 .384-.016.515-.049a.792.792 0 0 0 .3-.133.41.41 0 0 0 .144-.21.985.985 0 0 0 .035-.27c0-.2-.049-.354-.147-.462-.096-.109-.242-.164-.44-.164a.652.652 0 0 0-.638.444c-.049.129-.113.214-.192.256-.08.042-.193.051-.34.028l-.574-.102Z" fill="#000"/><rect x="51.5" y="200" width="15" height="6" rx="1" fill="#9099FF"/><rect x="51.5" y="200" width="15" height="6" rx="1" stroke="#9099FF"/><path d="M59.48 202.948c0 .369-.064.71-.192 1.022-.126.311-.305.58-.536.809-.23.226-.51.404-.836.532a2.964 2.964 0 0 1-1.082.189h-1.98v-5.1h1.98c.397 0 .757.065 1.082.193a2.345 2.345 0 0 1 1.372 1.34c.128.311.192.649.192 1.015Zm-1.21 0c0-.252-.034-.479-.099-.682a1.426 1.426 0 0 0-.283-.515 1.188 1.188 0 0 0-.448-.325 1.506 1.506 0 0 0-.606-.116h-.79v3.28h.79c.226 0 .428-.037.606-.112.177-.077.326-.186.448-.326.123-.142.218-.315.283-.518a2.23 2.23 0 0 0 .098-.686Zm4.988 1.768v.784h-2.905v-.784h.98v-2.573a5.614 5.614 0 0 1 .014-.399l-.58.483a.352.352 0 0 1-.155.074.469.469 0 0 1-.14 0 .375.375 0 0 1-.119-.046.272.272 0 0 1-.077-.07l-.343-.455 1.59-1.333h.895v4.319h.84Z" fill="#000"/><rect x="68" y="252" width="15" height="6" rx="1" fill="#9099FF"/><rect x="68" y="252" width="15" height="6" rx="1" stroke="#9099FF"/><path d="M75.98 254.948c0 .369-.064.71-.192 1.022-.126.311-.305.58-.536.809-.23.226-.51.404-.836.532a2.964 2.964 0 0 1-1.082.189h-1.98v-5.1h1.98c.397 0 .757.065 1.082.193a2.345 2.345 0 0 1 1.372 1.34c.128.311.192.649.192 1.015Zm-1.21 0c0-.252-.033-.479-.099-.682a1.426 1.426 0 0 0-.283-.515 1.188 1.188 0 0 0-.448-.325 1.506 1.506 0 0 0-.606-.116h-.79v3.28h.79c.227 0 .428-.037.606-.112.177-.077.326-.186.448-.326.123-.142.218-.315.283-.518a2.23 2.23 0 0 0 .098-.686Zm4.726 1.572a.38.38 0 0 1 .276.098.328.328 0 0 1 .102.252v.63H76.29v-.35c0-.068.014-.14.042-.217a.523.523 0 0 1 .147-.21l1.47-1.481c.126-.126.236-.246.329-.36a2.24 2.24 0 0 0 .23-.336 1.338 1.338 0 0 0 .182-.686c0-.203-.048-.358-.146-.466-.096-.109-.243-.164-.441-.164a.652.652 0 0 0-.637.444c-.05.129-.113.214-.193.256-.079.042-.192.051-.34.028l-.573-.102c.037-.254.108-.476.213-.665.108-.189.24-.346.396-.472.159-.126.34-.219.542-.28.203-.063.422-.095.655-.095.252 0 .478.038.679.112.203.073.376.174.518.305.142.131.25.287.325.469.077.18.116.378.116.595 0 .187-.027.359-.08.518a2.05 2.05 0 0 1-.214.455 3.227 3.227 0 0 1-.319.416c-.119.133-.246.269-.381.406l-.998 1.022a3.06 3.06 0 0 1 .382-.091c.126-.021.242-.031.35-.031h.952Z" fill="#000"/><rect x="84.5" y="304" width="15" height="6" rx="1" fill="#9099FF"/><rect x="84.5" y="304" width="15" height="6" rx="1" stroke="#9099FF"/><path d="M90.435 308.555v.945h-3.073v-5.1h1.183v4.155h1.89Zm-.053-1.621h1.89v.875h-1.89v-.875Zm4.301-.136c.161 0 .298-.02.41-.06a.762.762 0 0 0 .28-.171.642.642 0 0 0 .157-.252.989.989 0 0 0 .05-.315c0-.224-.074-.399-.221-.525-.145-.126-.37-.189-.676-.189h-.476v1.512h.476Zm2.513 2.702h-1.07c-.2 0-.341-.075-.428-.224l-.847-1.481a.39.39 0 0 0-.133-.136.404.404 0 0 0-.21-.046h-.3v1.887h-1.184v-5.1h1.66c.368 0 .682.039.94.116.262.075.474.18.638.315.165.135.286.295.36.479.075.185.112.385.112.602a1.504 1.504 0 0 1-.262.879 1.484 1.484 0 0 1-.322.332 1.68 1.68 0 0 1-.438.242 1.068 1.068 0 0 1 .4.36l1.084 1.775Z" fill="#000"/><rect x="101" y="356" width="18" height="6" rx="1" fill="#9099FF"/><rect x="101" y="356" width="18" height="6" rx="1" stroke="#9099FF"/><path d="M103.673 358.798c.161 0 .297-.02.409-.06a.755.755 0 0 0 .28-.171.641.641 0 0 0 .158-.252c.032-.098.049-.203.049-.315 0-.224-.074-.399-.221-.525-.144-.126-.37-.189-.675-.189h-.476v1.512h.476Zm2.513 2.702h-1.071c-.199 0-.341-.075-.427-.224l-.847-1.481a.394.394 0 0 0-.133-.136.404.404 0 0 0-.21-.046h-.301v1.887h-1.183v-5.1h1.659c.368 0 .682.039.941.116.262.075.474.18.637.315.166.135.286.295.361.479.074.185.112.385.112.602 0 .166-.022.322-.067.469a1.448 1.448 0 0 1-.196.41 1.465 1.465 0 0 1-.322.332 1.688 1.688 0 0 1-.437.242 1.08 1.08 0 0 1 .399.36l1.085 1.775Zm1.513 0h-1.19v-5.1h1.19v5.1Zm5.331-5.1v5.1h-.616a.568.568 0 0 1-.231-.042.604.604 0 0 1-.182-.154l-2.404-3.042c.009.091.015.18.017.266.005.084.007.164.007.238v2.734h-1.043v-5.1h.623c.052 0 .095.003.13.007a.304.304 0 0 1 .094.028c.028.012.055.03.081.053a.946.946 0 0 1 .087.094l2.426 3.063a4.26 4.26 0 0 1-.032-.546V356.4h1.043Zm3.335 2.457h1.813v2.153c-.262.191-.541.33-.837.416a3.24 3.24 0 0 1-.924.13c-.42 0-.803-.065-1.148-.196a2.683 2.683 0 0 1-.882-.546 2.418 2.418 0 0 1-.567-.826 2.68 2.68 0 0 1-.199-1.04c0-.38.063-.729.189-1.046.126-.32.305-.595.539-.826.235-.231.519-.411.85-.539a3.098 3.098 0 0 1 1.117-.193c.212 0 .411.018.598.053s.358.083.515.143a2.409 2.409 0 0 1 .784.49l-.343.522a.327.327 0 0 1-.21.15c-.084.019-.175-.002-.273-.063a3.245 3.245 0 0 0-.266-.143 1.511 1.511 0 0 0-.525-.158 2.836 2.836 0 0 0-.322-.017c-.222 0-.422.04-.599.119a1.288 1.288 0 0 0-.455.329 1.51 1.51 0 0 0-.287.514c-.068.199-.101.42-.101.665 0 .271.037.511.112.721a1.385 1.385 0 0 0 .805.865c.191.075.402.112.633.112.142 0 .271-.014.385-.042.117-.028.23-.065.34-.112v-.774h-.504c-.075 0-.133-.019-.175-.059a.2.2 0 0 1-.063-.151v-.651Z" fill="#000"/><rect x="121.5" y="408" width="10" height="6" rx="1" fill="#9099FF"/><rect x="121.5" y="408" width="10" height="6" rx="1" stroke="#9099FF"/><path fill-rule="evenodd" clip-rule="evenodd" d="M125 411.5v2l-3-2.5 3-2.5v2h3v-2l3 2.5-3 2.5v-2h-3Z" fill="#000"/></svg>