<svg width="134" height="208" fill="none" xmlns="http://www.w3.org/2000/svg"><rect x="99.511" y="200" width="30" height="6" rx="1" fill="#7432FF"/><rect x="99.511" y="200" width="30" height="6" rx="1" stroke="#fff"/><path d="M105.881 204.52c.117 0 .209.033.277.098a.33.33 0 0 1 .101.252v.63h-3.584v-.35c0-.068.014-.14.042-.217a.523.523 0 0 1 .147-.21l1.47-1.481c.126-.126.236-.246.329-.36.094-.114.171-.226.231-.336a1.355 1.355 0 0 0 .182-.686c0-.203-.049-.358-.147-.466-.095-.109-.242-.164-.441-.164a.651.651 0 0 0-.637.444c-.049.129-.113.214-.192.256-.08.042-.193.051-.34.028l-.574-.102c.038-.254.109-.476.214-.665.107-.189.239-.346.395-.472a1.61 1.61 0 0 1 .543-.28c.203-.063.421-.095.654-.095.252 0 .479.038.679.112.203.073.376.174.518.305.143.131.251.287.326.469.077.18.115.378.115.595 0 .187-.027.359-.08.518a2.05 2.05 0 0 1-.214.455 3.258 3.258 0 0 1-.318.416c-.119.133-.246.269-.382.406l-.997 1.022c.128-.039.255-.07.381-.091.126-.021.243-.031.35-.031h.952Zm10.279.196v.784h-2.905v-.784h.98v-2.573l.003-.196c.003-.067.006-.135.011-.203l-.581.483a.358.358 0 0 1-.154.074.37.37 0 0 1-.259-.046.267.267 0 0 1-.077-.07l-.343-.455 1.589-1.333h.896v4.319h.84Zm6.645-2.86c.038-.254.109-.476.214-.665.107-.189.239-.346.395-.472a1.61 1.61 0 0 1 .543-.28c.203-.063.421-.095.654-.095.252 0 .476.037.672.109.196.07.362.166.497.287a1.237 1.237 0 0 1 .413.927c0 .161-.016.304-.049.427a.945.945 0 0 1-.147.319.875.875 0 0 1-.238.227c-.093.061-.2.112-.322.154.565.199.847.584.847 1.155 0 .271-.049.507-.147.707a1.45 1.45 0 0 1-.395.501 1.704 1.704 0 0 1-.571.301 2.352 2.352 0 0 1-.679.098 2.49 2.49 0 0 1-.647-.077 1.536 1.536 0 0 1-.504-.245 1.672 1.672 0 0 1-.389-.427 2.966 2.966 0 0 1-.287-.616l.483-.196a.606.606 0 0 1 .35-.039.327.327 0 0 1 .231.161c.105.194.216.335.333.424a.692.692 0 0 0 .416.129.698.698 0 0 0 .539-.217.656.656 0 0 0 .137-.22.72.72 0 0 0 .045-.249c0-.109-.008-.207-.024-.294a.38.38 0 0 0-.126-.227.713.713 0 0 0-.319-.144 2.556 2.556 0 0 0-.588-.052v-.749c.213 0 .384-.016.515-.049a.797.797 0 0 0 .301-.133.408.408 0 0 0 .143-.21.96.96 0 0 0 .035-.27c0-.2-.049-.354-.147-.462-.095-.109-.242-.164-.441-.164a.651.651 0 0 0-.637.444c-.049.129-.113.214-.192.256-.08.042-.193.051-.34.028l-.574-.102ZM110.761 203l-2.812 2.143v-4.286l2.812 2.143Zm7.5 0 2.813-2.143v4.286L118.261 203Z" fill="#fff"/><rect x="67.511" y="148" width="30" height="6" rx="1" fill="#7432FF"/><rect x="67.511" y="148" width="30" height="6" rx="1" stroke="#fff"/><path d="M70.773 149.856a1.94 1.94 0 0 1 .214-.665c.107-.189.239-.346.395-.472a1.61 1.61 0 0 1 .543-.28 2.19 2.19 0 0 1 .654-.095c.252 0 .476.037.672.109.196.07.362.166.497.287a1.237 1.237 0 0 1 .413.927c0 .161-.016.304-.049.427a.973.973 0 0 1-.147.319.879.879 0 0 1-.238.227c-.093.061-.2.112-.322.154.565.199.847.584.847 1.155 0 .271-.049.507-.147.707a1.45 1.45 0 0 1-.395.501 1.695 1.695 0 0 1-.57.301 2.354 2.354 0 0 1-.68.098 2.49 2.49 0 0 1-.647-.077 1.536 1.536 0 0 1-.504-.245 1.67 1.67 0 0 1-.389-.427 2.916 2.916 0 0 1-.287-.616l.483-.196a.606.606 0 0 1 .35-.039.33.33 0 0 1 .231.161c.105.194.216.335.333.424a.692.692 0 0 0 .416.129.701.701 0 0 0 .539-.217.649.649 0 0 0 .137-.22.714.714 0 0 0 .045-.249c0-.109-.008-.207-.024-.294a.38.38 0 0 0-.126-.227.715.715 0 0 0-.319-.144 2.556 2.556 0 0 0-.588-.052v-.749c.213 0 .384-.016.515-.049a.792.792 0 0 0 .3-.133.41.41 0 0 0 .144-.21.985.985 0 0 0 .035-.27c0-.2-.049-.354-.147-.462-.095-.109-.242-.164-.44-.164a.652.652 0 0 0-.638.444c-.049.129-.113.214-.192.256-.08.042-.193.051-.34.028l-.574-.102Zm13.124 2.664c.117 0 .209.033.277.098a.328.328 0 0 1 .101.252v.63h-3.584v-.35c0-.068.014-.14.042-.217a.523.523 0 0 1 .147-.21l1.47-1.481c.126-.126.236-.246.33-.36a2.29 2.29 0 0 0 .23-.336 1.342 1.342 0 0 0 .182-.686c0-.203-.049-.358-.147-.466-.095-.109-.242-.164-.44-.164a.652.652 0 0 0-.638.444c-.049.129-.113.214-.192.256-.08.042-.193.051-.34.028l-.574-.102a1.94 1.94 0 0 1 .214-.665c.107-.189.239-.346.395-.472a1.61 1.61 0 0 1 .543-.28 2.19 2.19 0 0 1 .654-.095c.252 0 .479.038.68.112.202.073.375.174.517.305a1.3 1.3 0 0 1 .326.469c.077.18.115.378.115.595 0 .187-.027.359-.08.518a2.05 2.05 0 0 1-.214.455 3.236 3.236 0 0 1-.318.416c-.12.133-.246.269-.382.406l-.997 1.022c.128-.039.255-.07.381-.091.126-.021.243-.031.35-.031h.952Zm10.279.196v.784H91.27v-.784h.98v-2.573a5.614 5.614 0 0 1 .014-.399l-.581.483a.352.352 0 0 1-.154.074.469.469 0 0 1-.14 0 .375.375 0 0 1-.12-.046.272.272 0 0 1-.076-.07l-.343-.455 1.589-1.333h.896v4.319h.84ZM78.761 151l-2.812 2.143v-4.286L78.762 151Zm10.313 0-2.813 2.143v-4.286L89.075 151Z" fill="#fff"/><rect x="35.511" y="96" width="30" height="6" rx="1" fill="#7432FF"/><rect x="35.511" y="96" width="30" height="6" rx="1" stroke="#fff"/><path d="M47.647 100.52c.116 0 .209.033.276.098a.328.328 0 0 1 .102.252v.63H44.44v-.35c0-.068.014-.14.042-.217a.523.523 0 0 1 .147-.21l1.47-1.48a5.1 5.1 0 0 0 .329-.361c.093-.114.17-.226.23-.336a1.348 1.348 0 0 0 .182-.686c0-.203-.048-.358-.146-.466-.096-.11-.243-.164-.441-.164a.65.65 0 0 0-.637.444c-.05.129-.113.214-.193.256-.08.042-.192.051-.34.028l-.573-.102c.037-.254.108-.475.213-.664.108-.19.24-.347.396-.473a1.6 1.6 0 0 1 .542-.28c.203-.063.421-.094.655-.094.252 0 .478.037.679.112.203.072.375.173.518.304.142.13.25.287.325.469.077.18.116.378.116.595 0 .187-.027.36-.08.518a2.05 2.05 0 0 1-.214.455 3.24 3.24 0 0 1-.319.416c-.119.133-.246.269-.381.407l-.998 1.021a3.06 3.06 0 0 1 .382-.091c.126-.021.242-.031.35-.031h.952Zm8.763.196v.784h-2.905v-.784h.98v-2.572a5.339 5.339 0 0 1 .014-.4l-.58.484a.358.358 0 0 1-.155.073.469.469 0 0 1-.14 0 .381.381 0 0 1-.119-.046.287.287 0 0 1-.077-.07l-.343-.454 1.59-1.334h.895v4.319h.84ZM52.386 99l-2.812 2.143v-4.286L52.387 99Z" fill="#fff"/><rect x="3.5" y="44" width="30" height="6" rx="1" fill="#7432FF"/><rect x="3.5" y="44" width="30" height="6" rx="1" stroke="#fff"/><path d="M11.932 44.4v5.1h-.616a.568.568 0 0 1-.231-.042.592.592 0 0 1-.182-.154l-2.405-3.041c.01.09.016.18.018.266.005.083.007.163.007.237V49.5H7.48v-5.1h.623a.95.95 0 0 1 .13.008.299.299 0 0 1 .094.027c.028.012.055.03.08.053a.914.914 0 0 1 .088.095l2.425 3.062a4.17 4.17 0 0 1-.031-.546v-2.698h1.043Zm5.89 2.549c0 .368-.065.711-.193 1.029a2.478 2.478 0 0 1-.536.829c-.23.233-.51.416-.836.55a2.83 2.83 0 0 1-1.082.199c-.396 0-.758-.066-1.085-.2a2.511 2.511 0 0 1-.84-.549 2.522 2.522 0 0 1-.539-.83 2.763 2.763 0 0 1-.189-1.028c0-.37.063-.712.19-1.03.128-.317.307-.592.538-.825.234-.234.514-.417.84-.55.327-.133.689-.2 1.085-.2.397 0 .757.068 1.082.203.326.134.605.317.836.55.231.233.41.509.536.826.128.317.192.66.192 1.026Zm-1.212 0a2.19 2.19 0 0 0-.098-.68 1.427 1.427 0 0 0-.283-.514 1.2 1.2 0 0 0-.448-.322 1.548 1.548 0 0 0-.606-.112c-.228 0-.433.037-.612.112a1.23 1.23 0 0 0-.452.322c-.121.14-.214.311-.28.514a2.206 2.206 0 0 0-.098.68c0 .254.033.483.098.686.066.2.159.37.28.51.124.14.274.248.452.322.18.073.384.109.612.109.227 0 .428-.036.606-.108a1.2 1.2 0 0 0 .448-.323c.123-.14.218-.31.283-.51.066-.203.098-.432.098-.686Zm4.508-1.639v1.292h1.743v.914h-1.743V49.5h-1.19v-5.1h3.283v.91h-2.093Zm8.402-.91v5.1h-1.043v-2.933c0-.068.002-.141.004-.22.005-.08.012-.16.02-.242l-1.354 2.622a.441.441 0 0 1-.413.248h-.16a.479.479 0 0 1-.246-.063.449.449 0 0 1-.168-.185l-1.354-2.629a9.7 9.7 0 0 1 .017.248c.005.08.007.153.007.221V49.5h-1.043v-5.1h.903c.052 0 .096.002.133.004.04.002.075.01.105.021a.21.21 0 0 1 .08.056.328.328 0 0 1 .074.102l1.313 2.586c.047.089.09.18.133.277.044.095.086.193.126.294a3.907 3.907 0 0 1 .262-.581l1.31-2.576a.423.423 0 0 1 .07-.102.242.242 0 0 1 .083-.056.339.339 0 0 1 .102-.021c.04-.002.085-.004.136-.004h.903Z" fill="#fff"/></svg>