<svg width="90" height="28" fill="none" xmlns="http://www.w3.org/2000/svg"><rect x="2.5" y="2.5" width="41" height="9" rx="1" fill="#9099FF"/><rect x="2.5" y="2.5" width="41" height="9" rx="1" stroke="#9099FF"/><path d="M8.79 5.212v1.36h1.831v1H8.79V8.96h2.392V10H7.43V4.172h3.752v1.04H8.79ZM12.832 6.3a3 3 0 0 1 .248-.208 1.513 1.513 0 0 1 .588-.264 1.64 1.64 0 0 1 .372-.04c.226 0 .426.04.6.12.176.077.324.187.444.328.12.139.21.305.272.5.061.192.092.401.092.628V10h-1.24V7.364c0-.203-.047-.36-.14-.472-.094-.115-.23-.172-.412-.172a.863.863 0 0 0-.384.088 1.5 1.5 0 0 0-.344.232V10h-1.24V5.852h.768c.154 0 .256.07.304.208l.072.24Zm7.105-.448L18.33 10h-1.128l-1.608-4.148h1.032c.088 0 .161.021.22.064.061.04.102.09.124.152l.576 1.86c.05.152.094.3.132.444.04.144.074.288.104.432.058-.288.14-.58.244-.876l.6-1.86a.301.301 0 0 1 .12-.152.344.344 0 0 1 .208-.064h.984Zm2.724 1.576c0-.099-.014-.195-.04-.288a.64.64 0 0 0-.124-.248.604.604 0 0 0-.224-.18.773.773 0 0 0-.34-.068c-.235 0-.42.068-.552.204-.134.133-.222.327-.264.58h1.544Zm-1.56.72c.04.347.145.599.316.756.17.155.39.232.66.232.144 0 .268-.017.372-.052a1.79 1.79 0 0 0 .276-.116l.224-.116a.477.477 0 0 1 .216-.052c.098 0 .173.036.224.108l.36.444a1.868 1.868 0 0 1-.416.36 2.224 2.224 0 0 1-.924.32 3.259 3.259 0 0 1-.444.032c-.291 0-.564-.047-.82-.14a1.927 1.927 0 0 1-.668-.424 2.028 2.028 0 0 1-.452-.696c-.11-.277-.164-.6-.164-.968 0-.277.046-.54.14-.788.096-.248.232-.465.408-.652a1.97 1.97 0 0 1 .644-.444 2.14 2.14 0 0 1 .856-.164c.274 0 .525.043.752.128a1.617 1.617 0 0 1 .972.972c.093.235.14.501.14.8 0 .093-.004.17-.012.228a.361.361 0 0 1-.044.14.167.167 0 0 1-.088.072.386.386 0 0 1-.136.02h-2.392Zm4.412-4.136V10h-1.24V4.012h1.24Zm2.63 1.776c.315 0 .602.05.86.148A1.866 1.866 0 0 1 30.1 7.032c.104.261.156.556.156.884 0 .33-.052.63-.156.896a1.91 1.91 0 0 1-.432.676 1.912 1.912 0 0 1-.664.428 2.395 2.395 0 0 1-.86.148 2.44 2.44 0 0 1-.868-.148 1.997 1.997 0 0 1-.672-.428 1.956 1.956 0 0 1-.436-.676 2.507 2.507 0 0 1-.152-.896c0-.328.05-.623.152-.884.104-.264.25-.488.436-.672.19-.184.413-.325.672-.424a2.44 2.44 0 0 1 .868-.148Zm0 3.356c.286 0 .495-.1.628-.3.136-.203.204-.51.204-.92 0-.41-.068-.716-.204-.916-.133-.2-.342-.3-.628-.3-.293 0-.508.1-.644.3-.136.2-.204.505-.204.916 0 .41.068.717.204.92.136.2.35.3.644.3ZM32 8.872a.822.822 0 0 0 .304.216.93.93 0 0 0 .344.064.73.73 0 0 0 .316-.068.634.634 0 0 0 .248-.216c.072-.101.128-.232.168-.392.04-.16.06-.355.06-.584 0-.219-.016-.403-.048-.552a1.08 1.08 0 0 0-.136-.36.505.505 0 0 0-.472-.26.899.899 0 0 0-.448.1c-.118.067-.23.164-.336.292v1.76Zm-.076-2.508a2.12 2.12 0 0 1 .552-.424 1.54 1.54 0 0 1 .74-.168c.216 0 .416.048.6.144.184.096.342.235.476.416.133.181.237.404.312.668.077.261.116.559.116.892 0 .312-.044.6-.132.864a2.117 2.117 0 0 1-.364.688 1.65 1.65 0 0 1-.56.456c-.216.11-.456.164-.72.164-.216 0-.398-.03-.544-.092a1.478 1.478 0 0 1-.4-.248v1.592h-1.24V5.852h.768c.154 0 .256.07.304.208l.092.304Zm5.897 1.064c0-.099-.013-.195-.04-.288a.64.64 0 0 0-.124-.248.604.604 0 0 0-.224-.18.773.773 0 0 0-.34-.068c-.235 0-.419.068-.552.204-.133.133-.221.327-.264.58h1.544Zm-1.56.72c.04.347.145.599.316.756.17.155.39.232.66.232.144 0 .268-.017.372-.052a1.79 1.79 0 0 0 .276-.116l.224-.116a.477.477 0 0 1 .216-.052c.099 0 .173.036.224.108l.36.444a1.868 1.868 0 0 1-.416.36 2.224 2.224 0 0 1-.924.32 3.259 3.259 0 0 1-.444.032c-.29 0-.564-.047-.82-.14a1.928 1.928 0 0 1-.668-.424 2.03 2.03 0 0 1-.452-.696 2.63 2.63 0 0 1-.164-.968c0-.277.047-.54.14-.788.096-.248.232-.465.408-.652a1.97 1.97 0 0 1 .644-.444 2.14 2.14 0 0 1 .856-.164c.275 0 .526.043.752.128a1.617 1.617 0 0 1 .972.972c.094.235.14.501.14.8 0 .093-.004.17-.012.228a.361.361 0 0 1-.044.14.167.167 0 0 1-.088.072.386.386 0 0 1-.136.02h-2.392Z" fill="#000"/><rect x="46.5" y="16.5" width="41" height="9" rx="1" fill="#9099FF"/><rect x="46.5" y="16.5" width="41" height="9" rx="1" stroke="#9099FF"/><path d="M63.598 22.92V24h-3.512v-5.828h1.352v4.748h2.16Zm1.931-3.708v1.476h1.993v1.044h-1.993V24h-1.36v-5.828h3.752v1.04H65.53Zm8.717 1.872c0 .421-.073.813-.22 1.176a2.83 2.83 0 0 1-.612.948 2.825 2.825 0 0 1-.956.628c-.37.152-.783.228-1.236.228a3.26 3.26 0 0 1-1.24-.228 2.87 2.87 0 0 1-.96-.628 2.882 2.882 0 0 1-.616-.948 3.158 3.158 0 0 1-.216-1.176c0-.421.072-.813.216-1.176.147-.363.352-.677.616-.944a2.87 2.87 0 0 1 .96-.628 3.26 3.26 0 0 1 1.24-.228c.453 0 .865.077 1.236.232.373.152.692.361.956.628s.468.581.612.944c.147.363.22.753.22 1.172Zm-1.384 0a2.5 2.5 0 0 0-.112-.776 1.627 1.627 0 0 0-.324-.588 1.37 1.37 0 0 0-.512-.368 1.77 1.77 0 0 0-.692-.128 1.81 1.81 0 0 0-.7.128 1.408 1.408 0 0 0-.516.368c-.139.16-.245.356-.32.588-.075.23-.112.488-.112.776 0 .29.037.552.112.784.075.23.181.424.32.584.141.16.313.283.516.368.205.083.439.124.7.124.259 0 .49-.041.692-.124a1.37 1.37 0 0 0 .512-.368c.141-.16.25-.355.324-.584.075-.232.112-.493.112-.784Z" fill="#000"/></svg>