<svg width="40" height="84" fill="none" xmlns="http://www.w3.org/2000/svg"><rect x="2.5" y="2.5" width="35" height="16" rx="1" fill="#7432FF"/><rect x="2.5" y="2.5" width="35" height="16" rx="1" stroke="#fff"/><path d="M25.656 17h-1.664a.76.76 0 0 1-.464-.136.836.836 0 0 1-.256-.352l-.864-2.36h-4.792l-.864 2.36a.748.748 0 0 1-.256.336.692.692 0 0 1-.456.152h-1.672l4.544-11.568h2.2L25.656 17Zm-7.488-4.368h3.688l-1.408-3.848a28.01 28.01 0 0 1-.216-.6 22.001 22.001 0 0 1-.224-.76c-.074.272-.149.525-.224.76a7.48 7.48 0 0 1-.208.616l-1.408 3.832Z" fill="#fff"/><rect x="2.5" y="65.5" width="35" height="16" rx="1" fill="#7432FF"/><rect x="2.5" y="65.5" width="35" height="16" rx="1" stroke="#fff"/><path d="M15.957 80V68.432h3.992c.757 0 1.403.072 1.936.216.539.144.979.35 1.32.616.347.267.6.59.76.968.16.379.24.805.24 1.28 0 .272-.04.533-.12.784-.08.245-.205.477-.376.696a2.727 2.727 0 0 1-.64.584 3.79 3.79 0 0 1-.92.448c1.59.357 2.384 1.216 2.384 2.576 0 .49-.093.944-.28 1.36a3.037 3.037 0 0 1-.816 1.08 3.941 3.941 0 0 1-1.32.704c-.523.17-1.12.256-1.792.256h-4.368Zm2.152-5.072v3.392h2.184c.4 0 .733-.048 1-.144a1.7 1.7 0 0 0 .648-.384c.165-.16.283-.347.352-.56.075-.213.112-.44.112-.68 0-.25-.04-.475-.12-.672a1.234 1.234 0 0 0-.376-.512 1.724 1.724 0 0 0-.656-.328 3.63 3.63 0 0 0-.968-.112H18.11Zm0-1.488h1.72c.73 0 1.285-.133 1.664-.4s.568-.69.568-1.272c0-.603-.17-1.032-.512-1.288-.341-.256-.875-.384-1.6-.384h-1.84v3.344Z" fill="#fff"/></svg>