<svg width="13" height="36" fill="none" xmlns="http://www.w3.org/2000/svg"><rect x="3.5" y="3.5" width="5" height="8" rx=".5" fill="#9099FF"/><rect x="3.5" y="3.5" width="5" height="8" rx=".5" stroke="#9099FF"/><path fill-rule="evenodd" clip-rule="evenodd" d="M8.224 7.055 6.889 8.39a.943.943 0 0 1-1.334 0l-.444-.444.444-.445.445.445a.315.315 0 0 0 .445 0L7.779 6.61a.315.315 0 0 0 0-.445l-.445-.445a.315.315 0 0 0-.445 0l-.476.476a1.251 1.251 0 0 0-.72-.169l.752-.752a.943.943 0 0 1 1.334 0l.445.445a.943.943 0 0 1 0 1.334ZM5.587 8.803l-.476.476a.315.315 0 0 1-.445 0l-.445-.445a.314.314 0 0 1 0-.445l1.334-1.334a.315.315 0 0 1 .445 0l.445.445.444-.445-.444-.444a.943.943 0 0 0-1.334 0L3.776 7.945a.943.943 0 0 0 0 1.334l.445.445a.943.943 0 0 0 1.334 0l.752-.752a1.258 1.258 0 0 1-.72-.17Z" fill="#000"/><rect x="2.5" y="20.5" width="7" height="10" rx="1" fill="#7432FF"/><rect x="2.5" y="20.5" width="7" height="10" rx="1" stroke="#fff"/><path fill-rule="evenodd" clip-rule="evenodd" d="M8.224 25.055 6.889 26.39a.943.943 0 0 1-1.334 0l-.444-.444.444-.445.445.445a.315.315 0 0 0 .445 0l1.334-1.334a.315.315 0 0 0 0-.445l-.445-.445a.315.315 0 0 0-.445 0l-.476.476a1.251 1.251 0 0 0-.72-.169l.752-.752a.943.943 0 0 1 1.334 0l.445.445a.943.943 0 0 1 0 1.334Zm-2.637 1.748-.476.476a.315.315 0 0 1-.445 0l-.445-.445a.314.314 0 0 1 0-.445l1.334-1.334a.315.315 0 0 1 .445 0l.445.445.444-.445-.444-.444a.943.943 0 0 0-1.334 0l-1.335 1.334a.943.943 0 0 0 0 1.334l.445.445a.943.943 0 0 0 1.334 0l.752-.752a1.257 1.257 0 0 1-.72-.17Z" fill="#fff"/></svg>