<svg width="56" height="48" fill="none" xmlns="http://www.w3.org/2000/svg"><path d="M11.5 17c3.038 0 5.5-2.686 5.5-6s-2.462-6-5.5-6S6 7.686 6 11s2.462 6 5.5 6Z" fill="url(#a)"/><path d="M11.5 14a5.5 5.5 0 1 0 0-11 5.5 5.5 0 0 0 0 11Z" fill="url(#b)"/><path opacity=".2" d="M11 7.75v2a.5.5 0 0 0 1 0v-2a.5.5 0 0 0-1 0Z" fill="#EEE"/><path d="M11 7.5v2a.5.5 0 0 0 1 0v-2a.5.5 0 0 0-1 0Z" fill="#1F1F1F"/><path d="M11.5 41c3.038 0 5.5-2.686 5.5-6s-2.462-6-5.5-6S6 31.686 6 35s2.462 6 5.5 6Z" fill="url(#c)"/><path d="M11.5 38a5.5 5.5 0 1 0 0-11 5.5 5.5 0 0 0 0 11Z" fill="url(#d)"/><path opacity=".2" d="M11 31.75v2a.5.5 0 0 0 1 0v-2a.5.5 0 0 0-1 0Z" fill="#EEE"/><path d="M11 31.5v2a.5.5 0 0 0 1 0v-2a.5.5 0 0 0-1 0Z" fill="#1F1F1F"/><path d="M39.5 17c3.038 0 5.5-2.686 5.5-6s-2.462-6-5.5-6S34 7.686 34 11s2.462 6 5.5 6Z" fill="url(#e)"/><path d="M39.5 14a5.5 5.5 0 1 0 0-11 5.5 5.5 0 0 0 0 11Z" fill="url(#f)"/><path opacity=".2" d="M39 7.75v2a.5.5 0 0 0 1 0v-2a.5.5 0 0 0-1 0Z" fill="#EEE"/><path d="M39 7.5v2a.5.5 0 0 0 1 0v-2a.5.5 0 0 0-1 0Z" fill="#1F1F1F"/><path d="M39.5 41c3.038 0 5.5-2.686 5.5-6s-2.462-6-5.5-6-5.5 2.686-5.5 6 2.462 6 5.5 6Z" fill="url(#g)"/><path d="M39.5 38a5.5 5.5 0 1 0 0-11 5.5 5.5 0 0 0 0 11Z" fill="url(#h)"/><path opacity=".2" d="M39 31.75v2a.5.5 0 0 0 1 0v-2a.5.5 0 0 0-1 0Z" fill="#EEE"/><path d="M39 31.5v2a.5.5 0 0 0 1 0v-2a.5.5 0 0 0-1 0Z" fill="#1F1F1F"/><defs><linearGradient id="a" x1="11.5" y1="11" x2="11.5" y2="17" gradientUnits="userSpaceOnUse"><stop offset=".521"/><stop offset="1" stop-opacity="0"/></linearGradient><linearGradient id="b" x1="11.5" y1="3" x2="11.5" y2="14" gradientUnits="userSpaceOnUse"><stop stop-color="#9F76F4"/><stop offset="1" stop-color="#3C1888"/></linearGradient><linearGradient id="c" x1="11.5" y1="35" x2="11.5" y2="41" gradientUnits="userSpaceOnUse"><stop offset=".521"/><stop offset="1" stop-opacity="0"/></linearGradient><linearGradient id="d" x1="11.5" y1="27" x2="11.5" y2="38" gradientUnits="userSpaceOnUse"><stop stop-color="#9F76F4"/><stop offset="1" stop-color="#3C1888"/></linearGradient><linearGradient id="e" x1="39.5" y1="11" x2="39.5" y2="17" gradientUnits="userSpaceOnUse"><stop offset=".521"/><stop offset="1" stop-opacity="0"/></linearGradient><linearGradient id="f" x1="39.5" y1="3" x2="39.5" y2="14" gradientUnits="userSpaceOnUse"><stop stop-color="#FF99D2"/><stop offset="1" stop-color="#BF287C"/></linearGradient><linearGradient id="g" x1="39.5" y1="35" x2="39.5" y2="41" gradientUnits="userSpaceOnUse"><stop offset=".521"/><stop offset="1" stop-opacity="0"/></linearGradient><linearGradient id="h" x1="39.5" y1="27" x2="39.5" y2="38" gradientUnits="userSpaceOnUse"><stop stop-color="#FF99D2"/><stop offset="1" stop-color="#BF287C"/></linearGradient></defs></svg>