<svg width="28" height="24" fill="none" xmlns="http://www.w3.org/2000/svg"><path d="M11.5 17c3.038 0 5.5-2.686 5.5-6s-2.462-6-5.5-6S6 7.686 6 11s2.462 6 5.5 6Z" fill="url(#a)"/><path d="M11.5 14a5.5 5.5 0 1 0 0-11 5.5 5.5 0 0 0 0 11Z" fill="url(#b)"/><path d="M14.5 8.5a3 3 0 1 1-6 0 3 3 0 0 1 6 0Z" fill="#EEE" stroke="#979797"/><path d="M11 7.75v2a.5.5 0 0 0 1 0v-2a.5.5 0 0 0-1 0Z" fill="#fff" fill-opacity=".2"/><path d="M11 7.5v2a.5.5 0 0 0 1 0v-2a.5.5 0 0 0-1 0Z" fill="#1F1F1F"/><defs><linearGradient id="a" x1="11.5" y1="11" x2="11.5" y2="17" gradientUnits="userSpaceOnUse"><stop offset=".521"/><stop offset="1" stop-opacity="0"/></linearGradient><linearGradient id="b" x1="11.5" y1="3" x2="11.5" y2="14" gradientUnits="userSpaceOnUse"><stop stop-color="#9F76F4"/><stop offset="1" stop-color="#3C1888"/></linearGradient></defs></svg>